<?xml version="1.0" encoding="UTF-8"?>
<!DOCTYPE svg PUBLIC "-//W3C//DTD SVG 1.1//EN"
    "http://www.w3.org/Graphics/SVG/1.1/DTD/svg11.dtd"><svg xmlns="http://www.w3.org/2000/svg" height="300.0000" stroke-opacity="1" viewBox="0 0 300 300" font-size="1" width="300.0000" xmlns:xlink="http://www.w3.org/1999/xlink" stroke="rgb(0,0,0)" version="1.1"><defs></defs><g stroke-linejoin="miter" stroke-opacity="0.0" fill-opacity="0.2" stroke="rgb(0,0,0)" stroke-width="0.0" fill="rgb(85,85,85)" stroke-linecap="butt" stroke-miterlimit="10.0"><path d="M 43.9904,212.7404 l -0.0000,-144.2308 h -2.8846 l -0.0000,144.2308 Z"/></g><g stroke-linejoin="miter" stroke-opacity="1.0" fill-opacity="0.7" font-size="5.7692307692307665px" stroke="rgb(0,0,0)" stroke-width="0.9949874371066196" fill="rgb(51,51,51)" stroke-linecap="butt" stroke-miterlimit="10.0"><text dominant-baseline="middle" transform="matrix(1.0000,0.0000,0.0000,1.0000,36.7788,68.5096)" stroke="none" text-anchor="end">1.0e2</text></g><g stroke-linejoin="miter" stroke-opacity="0.5" fill-opacity="0.0" stroke="rgb(26,102,204)" stroke-width="0.9949874371066196" fill="rgb(0,0,0)" stroke-linecap="butt" stroke-miterlimit="10.0"><path d="M 39.6635,68.5096 h 2.8846 "/></g><g stroke-linejoin="miter" stroke-opacity="1.0" fill-opacity="0.7" font-size="5.7692307692307665px" stroke="rgb(0,0,0)" stroke-width="0.9949874371066196" fill="rgb(51,51,51)" stroke-linecap="butt" stroke-miterlimit="10.0"><text dominant-baseline="middle" transform="matrix(1.0000,0.0000,0.0000,1.0000,36.7788,82.9327)" stroke="none" text-anchor="end">90</text></g><g stroke-linejoin="miter" stroke-opacity="0.5" fill-opacity="0.0" stroke="rgb(26,102,204)" stroke-width="0.9949874371066196" fill="rgb(0,0,0)" stroke-linecap="butt" stroke-miterlimit="10.0"><path d="M 39.6635,82.9327 h 2.8846 "/></g><g stroke-linejoin="miter" stroke-opacity="1.0" fill-opacity="0.7" font-size="5.7692307692307665px" stroke="rgb(0,0,0)" stroke-width="0.9949874371066196" fill="rgb(51,51,51)" stroke-linecap="butt" stroke-miterlimit="10.0"><text dominant-baseline="middle" transform="matrix(1.0000,0.0000,0.0000,1.0000,36.7788,97.3558)" stroke="none" text-anchor="end">80</text></g><g stroke-linejoin="miter" stroke-opacity="0.5" fill-opacity="0.0" stroke="rgb(26,102,204)" stroke-width="0.9949874371066196" fill="rgb(0,0,0)" stroke-linecap="butt" stroke-miterlimit="10.0"><path d="M 39.6635,97.3558 h 2.8846 "/></g><g stroke-linejoin="miter" stroke-opacity="1.0" fill-opacity="0.7" font-size="5.7692307692307665px" stroke="rgb(0,0,0)" stroke-width="0.9949874371066196" fill="rgb(51,51,51)" stroke-linecap="butt" stroke-miterlimit="10.0"><text dominant-baseline="middle" transform="matrix(1.0000,0.0000,0.0000,1.0000,36.7788,111.7788)" stroke="none" text-anchor="end">70</text></g><g stroke-linejoin="miter" stroke-opacity="0.5" fill-opacity="0.0" stroke="rgb(26,102,204)" stroke-width="0.9949874371066196" fill="rgb(0,0,0)" stroke-linecap="butt" stroke-miterlimit="10.0"><path d="M 39.6635,111.7788 h 2.8846 "/></g><g stroke-linejoin="miter" stroke-opacity="1.0" fill-opacity="0.7" font-size="5.7692307692307665px" stroke="rgb(0,0,0)" stroke-width="0.9949874371066196" fill="rgb(51,51,51)" stroke-linecap="butt" stroke-miterlimit="10.0"><text dominant-baseline="middle" transform="matrix(1.0000,0.0000,0.0000,1.0000,36.7788,126.2019)" stroke="none" text-anchor="end">60</text></g><g stroke-linejoin="miter" stroke-opacity="0.5" fill-opacity="0.0" stroke="rgb(26,102,204)" stroke-width="0.9949874371066196" fill="rgb(0,0,0)" stroke-linecap="butt" stroke-miterlimit="10.0"><path d="M 39.6635,126.2019 h 2.8846 "/></g><g stroke-linejoin="miter" stroke-opacity="1.0" fill-opacity="0.7" font-size="5.7692307692307665px" stroke="rgb(0,0,0)" stroke-width="0.9949874371066196" fill="rgb(51,51,51)" stroke-linecap="butt" stroke-miterlimit="10.0"><text dominant-baseline="middle" transform="matrix(1.0000,0.0000,0.0000,1.0000,36.7788,140.6250)" stroke="none" text-anchor="end">50</text></g><g stroke-linejoin="miter" stroke-opacity="0.5" fill-opacity="0.0" stroke="rgb(26,102,204)" stroke-width="0.9949874371066196" fill="rgb(0,0,0)" stroke-linecap="butt" stroke-miterlimit="10.0"><path d="M 39.6635,140.6250 h 2.8846 "/></g><g stroke-linejoin="miter" stroke-opacity="1.0" fill-opacity="0.7" font-size="5.7692307692307665px" stroke="rgb(0,0,0)" stroke-width="0.9949874371066196" fill="rgb(51,51,51)" stroke-linecap="butt" stroke-miterlimit="10.0"><text dominant-baseline="middle" transform="matrix(1.0000,0.0000,0.0000,1.0000,36.7788,155.0481)" stroke="none" text-anchor="end">40</text></g><g stroke-linejoin="miter" stroke-opacity="0.5" fill-opacity="0.0" stroke="rgb(26,102,204)" stroke-width="0.9949874371066196" fill="rgb(0,0,0)" stroke-linecap="butt" stroke-miterlimit="10.0"><path d="M 39.6635,155.0481 h 2.8846 "/></g><g stroke-linejoin="miter" stroke-opacity="1.0" fill-opacity="0.7" font-size="5.7692307692307665px" stroke="rgb(0,0,0)" stroke-width="0.9949874371066196" fill="rgb(51,51,51)" stroke-linecap="butt" stroke-miterlimit="10.0"><text dominant-baseline="middle" transform="matrix(1.0000,0.0000,0.0000,1.0000,36.7788,169.4712)" stroke="none" text-anchor="end">30</text></g><g stroke-linejoin="miter" stroke-opacity="0.5" fill-opacity="0.0" stroke="rgb(26,102,204)" stroke-width="0.9949874371066196" fill="rgb(0,0,0)" stroke-linecap="butt" stroke-miterlimit="10.0"><path d="M 39.6635,169.4712 h 2.8846 "/></g><g stroke-linejoin="miter" stroke-opacity="1.0" fill-opacity="0.7" font-size="5.7692307692307665px" stroke="rgb(0,0,0)" stroke-width="0.9949874371066196" fill="rgb(51,51,51)" stroke-linecap="butt" stroke-miterlimit="10.0"><text dominant-baseline="middle" transform="matrix(1.0000,0.0000,0.0000,1.0000,36.7788,183.8942)" stroke="none" text-anchor="end">20</text></g><g stroke-linejoin="miter" stroke-opacity="0.5" fill-opacity="0.0" stroke="rgb(26,102,204)" stroke-width="0.9949874371066196" fill="rgb(0,0,0)" stroke-linecap="butt" stroke-miterlimit="10.0"><path d="M 39.6635,183.8942 h 2.8846 "/></g><g stroke-linejoin="miter" stroke-opacity="1.0" fill-opacity="0.7" font-size="5.7692307692307665px" stroke="rgb(0,0,0)" stroke-width="0.9949874371066196" fill="rgb(51,51,51)" stroke-linecap="butt" stroke-miterlimit="10.0"><text dominant-baseline="middle" transform="matrix(1.0000,0.0000,0.0000,1.0000,36.7788,198.3173)" stroke="none" text-anchor="end">10</text></g><g stroke-linejoin="miter" stroke-opacity="0.5" fill-opacity="0.0" stroke="rgb(26,102,204)" stroke-width="0.9949874371066196" fill="rgb(0,0,0)" stroke-linecap="butt" stroke-miterlimit="10.0"><path d="M 39.6635,198.3173 h 2.8846 "/></g><g stroke-linejoin="miter" stroke-opacity="1.0" fill-opacity="0.7" font-size="5.7692307692307665px" stroke="rgb(0,0,0)" stroke-width="0.9949874371066196" fill="rgb(51,51,51)" stroke-linecap="butt" stroke-miterlimit="10.0"><text dominant-baseline="middle" transform="matrix(1.0000,0.0000,0.0000,1.0000,36.7788,212.7404)" stroke="none" text-anchor="end">0.0</text></g><g stroke-linejoin="miter" stroke-opacity="0.5" fill-opacity="0.0" stroke="rgb(26,102,204)" stroke-width="0.9949874371066196" fill="rgb(0,0,0)" stroke-linecap="butt" stroke-miterlimit="10.0"><path d="M 39.6635,212.7404 h 2.8846 "/></g><g stroke-linejoin="miter" stroke-opacity="0.0" fill-opacity="0.2" stroke="rgb(0,0,0)" stroke-width="0.0" fill="rgb(85,85,85)" stroke-linecap="butt" stroke-miterlimit="10.0"><path d="M 267.5481,222.8365 l -0.0000,-2.8846 h -216.3462 l -0.0000,2.8846 Z"/></g><g stroke-linejoin="miter" stroke-opacity="1.0" fill-opacity="0.7" font-size="5.7692307692307665px" stroke="rgb(0,0,0)" stroke-width="0.9949874371066196" fill="rgb(51,51,51)" stroke-linecap="butt" stroke-miterlimit="10.0"><text dominant-baseline="text-before-edge" transform="matrix(1.0000,0.0000,0.0000,1.0000,266.4717,227.1635)" stroke="none" text-anchor="middle">2.0e2</text></g><g stroke-linejoin="miter" stroke-opacity="0.5" fill-opacity="0.0" stroke="rgb(26,102,204)" stroke-width="0.9949874371066196" fill="rgb(0,0,0)" stroke-linecap="butt" stroke-miterlimit="10.0"><path d="M 266.4717,221.3942 v 2.8846 "/></g><g stroke-linejoin="miter" stroke-opacity="1.0" fill-opacity="0.7" font-size="5.7692307692307665px" stroke="rgb(0,0,0)" stroke-width="0.9949874371066196" fill="rgb(51,51,51)" stroke-linecap="butt" stroke-miterlimit="10.0"><text dominant-baseline="text-before-edge" transform="matrix(1.0000,0.0000,0.0000,1.0000,244.9447,227.1635)" stroke="none" text-anchor="middle">1.8e2</text></g><g stroke-linejoin="miter" stroke-opacity="0.5" fill-opacity="0.0" stroke="rgb(26,102,204)" stroke-width="0.9949874371066196" fill="rgb(0,0,0)" stroke-linecap="butt" stroke-miterlimit="10.0"><path d="M 244.9447,221.3942 v 2.8846 "/></g><g stroke-linejoin="miter" stroke-opacity="1.0" fill-opacity="0.7" font-size="5.7692307692307665px" stroke="rgb(0,0,0)" stroke-width="0.9949874371066196" fill="rgb(51,51,51)" stroke-linecap="butt" stroke-miterlimit="10.0"><text dominant-baseline="text-before-edge" transform="matrix(1.0000,0.0000,0.0000,1.0000,223.4178,227.1635)" stroke="none" text-anchor="middle">1.6e2</text></g><g stroke-linejoin="miter" stroke-opacity="0.5" fill-opacity="0.0" stroke="rgb(26,102,204)" stroke-width="0.9949874371066196" fill="rgb(0,0,0)" stroke-linecap="butt" stroke-miterlimit="10.0"><path d="M 223.4178,221.3942 v 2.8846 "/></g><g stroke-linejoin="miter" stroke-opacity="1.0" fill-opacity="0.7" font-size="5.7692307692307665px" stroke="rgb(0,0,0)" stroke-width="0.9949874371066196" fill="rgb(51,51,51)" stroke-linecap="butt" stroke-miterlimit="10.0"><text dominant-baseline="text-before-edge" transform="matrix(1.0000,0.0000,0.0000,1.0000,201.8908,227.1635)" stroke="none" text-anchor="middle">1.4e2</text></g><g stroke-linejoin="miter" stroke-opacity="0.5" fill-opacity="0.0" stroke="rgb(26,102,204)" stroke-width="0.9949874371066196" fill="rgb(0,0,0)" stroke-linecap="butt" stroke-miterlimit="10.0"><path d="M 201.8908,221.3942 v 2.8846 "/></g><g stroke-linejoin="miter" stroke-opacity="1.0" fill-opacity="0.7" font-size="5.7692307692307665px" stroke="rgb(0,0,0)" stroke-width="0.9949874371066196" fill="rgb(51,51,51)" stroke-linecap="butt" stroke-miterlimit="10.0"><text dominant-baseline="text-before-edge" transform="matrix(1.0000,0.0000,0.0000,1.0000,180.3638,227.1635)" stroke="none" text-anchor="middle">1.2e2</text></g><g stroke-linejoin="miter" stroke-opacity="0.5" fill-opacity="0.0" stroke="rgb(26,102,204)" stroke-width="0.9949874371066196" fill="rgb(0,0,0)" stroke-linecap="butt" stroke-miterlimit="10.0"><path d="M 180.3638,221.3942 v 2.8846 "/></g><g stroke-linejoin="miter" stroke-opacity="1.0" fill-opacity="0.7" font-size="5.7692307692307665px" stroke="rgb(0,0,0)" stroke-width="0.9949874371066196" fill="rgb(51,51,51)" stroke-linecap="butt" stroke-miterlimit="10.0"><text dominant-baseline="text-before-edge" transform="matrix(1.0000,0.0000,0.0000,1.0000,158.8368,227.1635)" stroke="none" text-anchor="middle">1.0e2</text></g><g stroke-linejoin="miter" stroke-opacity="0.5" fill-opacity="0.0" stroke="rgb(26,102,204)" stroke-width="0.9949874371066196" fill="rgb(0,0,0)" stroke-linecap="butt" stroke-miterlimit="10.0"><path d="M 158.8368,221.3942 v 2.8846 "/></g><g stroke-linejoin="miter" stroke-opacity="1.0" fill-opacity="0.7" font-size="5.7692307692307665px" stroke="rgb(0,0,0)" stroke-width="0.9949874371066196" fill="rgb(51,51,51)" stroke-linecap="butt" stroke-miterlimit="10.0"><text dominant-baseline="text-before-edge" transform="matrix(1.0000,0.0000,0.0000,1.0000,137.3098,227.1635)" stroke="none" text-anchor="middle">80</text></g><g stroke-linejoin="miter" stroke-opacity="0.5" fill-opacity="0.0" stroke="rgb(26,102,204)" stroke-width="0.9949874371066196" fill="rgb(0,0,0)" stroke-linecap="butt" stroke-miterlimit="10.0"><path d="M 137.3098,221.3942 v 2.8846 "/></g><g stroke-linejoin="miter" stroke-opacity="1.0" fill-opacity="0.7" font-size="5.7692307692307665px" stroke="rgb(0,0,0)" stroke-width="0.9949874371066196" fill="rgb(51,51,51)" stroke-linecap="butt" stroke-miterlimit="10.0"><text dominant-baseline="text-before-edge" transform="matrix(1.0000,0.0000,0.0000,1.0000,115.7829,227.1635)" stroke="none" text-anchor="middle">60</text></g><g stroke-linejoin="miter" stroke-opacity="0.5" fill-opacity="0.0" stroke="rgb(26,102,204)" stroke-width="0.9949874371066196" fill="rgb(0,0,0)" stroke-linecap="butt" stroke-miterlimit="10.0"><path d="M 115.7829,221.3942 v 2.8846 "/></g><g stroke-linejoin="miter" stroke-opacity="1.0" fill-opacity="0.7" font-size="5.7692307692307665px" stroke="rgb(0,0,0)" stroke-width="0.9949874371066196" fill="rgb(51,51,51)" stroke-linecap="butt" stroke-miterlimit="10.0"><text dominant-baseline="text-before-edge" transform="matrix(1.0000,0.0000,0.0000,1.0000,94.2559,227.1635)" stroke="none" text-anchor="middle">40</text></g><g stroke-linejoin="miter" stroke-opacity="0.5" fill-opacity="0.0" stroke="rgb(26,102,204)" stroke-width="0.9949874371066196" fill="rgb(0,0,0)" stroke-linecap="butt" stroke-miterlimit="10.0"><path d="M 94.2559,221.3942 v 2.8846 "/></g><g stroke-linejoin="miter" stroke-opacity="1.0" fill-opacity="0.7" font-size="5.7692307692307665px" stroke="rgb(0,0,0)" stroke-width="0.9949874371066196" fill="rgb(51,51,51)" stroke-linecap="butt" stroke-miterlimit="10.0"><text dominant-baseline="text-before-edge" transform="matrix(1.0000,0.0000,0.0000,1.0000,72.7289,227.1635)" stroke="none" text-anchor="middle">20</text></g><g stroke-linejoin="miter" stroke-opacity="0.5" fill-opacity="0.0" stroke="rgb(26,102,204)" stroke-width="0.9949874371066196" fill="rgb(0,0,0)" stroke-linecap="butt" stroke-miterlimit="10.0"><path d="M 72.7289,221.3942 v 2.8846 "/></g><g stroke-linejoin="miter" stroke-opacity="1.0" fill-opacity="0.7" font-size="5.7692307692307665px" stroke="rgb(0,0,0)" stroke-width="0.9949874371066196" fill="rgb(51,51,51)" stroke-linecap="butt" stroke-miterlimit="10.0"><text dominant-baseline="text-before-edge" transform="matrix(1.0000,0.0000,0.0000,1.0000,51.2019,227.1635)" stroke="none" text-anchor="middle">0.0</text></g><g stroke-linejoin="miter" stroke-opacity="0.5" fill-opacity="0.0" stroke="rgb(26,102,204)" stroke-width="0.9949874371066196" fill="rgb(0,0,0)" stroke-linecap="butt" stroke-miterlimit="10.0"><path d="M 51.2019,221.3942 v 2.8846 "/></g><g stroke-linejoin="miter" stroke-opacity="0.0" fill-opacity="2.0e-2" stroke="rgb(0,0,0)" stroke-width="0.0" fill="rgb(255,255,255)" stroke-linecap="butt" stroke-miterlimit="10.0"><path d="M 267.5481,212.7404 l -0.0000,-144.2308 h -216.3462 l -0.0000,144.2308 Z"/></g><g stroke-linejoin="miter" stroke-opacity="1.0" fill-opacity="0.0" stroke="rgb(84,84,84)" stroke-width="0.4974937185533098" fill="rgb(0,0,0)" stroke-linecap="butt" stroke-miterlimit="10.0"><path d="M 51.2019,212.7404 l 1.0763,-1.4423 l 1.0763,-1.4423 l 1.0763,-1.4423 l 1.0763,-1.4423 l 1.0763,-1.4423 l 1.0763,-1.4423 l 1.0763,-1.4423 l 1.0763,-1.4423 l 1.0763,-1.4423 l 1.0763,-1.4423 l 1.0763,-1.4423 l 1.0763,-1.4423 l 1.0763,-1.4423 l 1.0763,-1.4423 l 1.0763,-1.4423 l 1.0763,-1.4423 l 1.0763,-1.4423 l 1.0763,-1.4423 l 1.0763,-1.4423 l 1.0763,-1.4423 l 1.0763,-1.4423 l 1.0763,-1.4423 l 1.0763,-1.4423 l 1.0763,-1.4423 l 1.0763,-1.4423 l 1.0763,-1.4423 l 1.0763,-1.4423 l 1.0763,-1.4423 l 1.0763,-1.4423 l 1.0763,-1.4423 l 1.0763,-1.4423 l 1.0763,-1.4423 l 1.0763,-1.4423 l 1.0763,-1.4423 l 1.0763,-1.4423 l 1.0763,-1.4423 l 1.0763,-1.4423 l 1.0763,-1.4423 l 1.0763,-1.4423 l 1.0763,-1.4423 l 1.0763,-1.4423 l 1.0763,-1.4423 l 1.0763,-1.4423 l 1.0763,-1.4423 l 1.0763,-1.4423 l 1.0763,-1.4423 l 1.0763,-1.4423 l 1.0763,-1.4423 l 1.0763,-1.4423 l 1.0763,-1.4423 l 1.0763,-1.4423 l 1.0763,-1.4423 l 1.0763,-1.4423 l 1.0763,-1.4423 l 1.0763,-1.4423 l 1.0763,-1.4423 l 1.0763,-1.4423 l 1.0763,-1.4423 l 1.0763,-1.4423 l 1.0763,-1.4423 l 1.0763,-1.4423 l 1.0763,-1.4423 l 1.0763,-1.4423 l 1.0763,-1.4423 l 1.0763,-1.4423 l 1.0763,-1.4423 l 1.0763,-1.4423 l 1.0763,-1.4423 l 1.0763,-1.4423 l 1.0763,-1.4423 l 1.0763,-1.4423 l 1.0763,-1.4423 l 1.0763,-1.4423 l 1.0763,-1.4423 l 1.0763,-1.4423 l 1.0763,-1.4423 l 1.0763,-1.4423 l 1.0763,-1.4423 l 1.0763,-1.4423 l 1.0763,-1.4423 l 1.0763,-1.4423 l 1.0763,-1.4423 l 1.0763,-1.4423 l 1.0763,-1.4423 l 1.0763,-1.4423 l 1.0763,-1.4423 l 1.0763,-1.4423 l 1.0763,-1.4423 l 1.0763,-1.4423 l 1.0763,-1.4423 l 1.0763,-1.4423 l 1.0763,-1.4423 l 1.0763,-1.4423 l 1.0763,-1.4423 l 1.0763,-1.4423 l 1.0763,-1.4423 l 1.0763,-1.4423 l 1.0763,-1.4423 l 1.0763,-1.4423 l 1.0763,-1.4423 h 1.0763 h 1.0763 h 1.0763 h 1.0763 h 1.0763 h 1.0763 h 1.0763 h 1.0763 h 1.0763 h 1.0763 h 1.0763 h 1.0763 h 1.0763 h 1.0763 h 1.0763 h 1.0763 h 1.0763 h 1.0763 h 1.0763 h 1.0763 h 1.0763 h 1.0763 h 1.0763 h 1.0763 h 1.0763 h 1.0763 h 1.0763 h 1.0763 h 1.0763 h 1.0763 h 1.0763 h 1.0763 h 1.0763 h 1.0763 h 1.0763 h 1.0763 h 1.0763 h 1.0763 h 1.0763 h 1.0763 h 1.0763 h 1.0763 h 1.0763 h 1.0763 h 1.0763 h 1.0763 h 1.0763 h 1.0763 h 1.0763 h 1.0763 h 1.0763 h 1.0763 h 1.0763 h 1.0763 h 1.0763 h 1.0763 h 1.0763 h 1.0763 h 1.0763 h 1.0763 h 1.0763 h 1.0763 h 1.0763 h 1.0763 h 1.0763 h 1.0763 h 1.0763 h 1.0763 h 1.0763 h 1.0763 h 1.0763 h 1.0763 h 1.0763 h 1.0763 h 1.0763 h 1.0763 h 1.0763 h 1.0763 h 1.0763 h 1.0763 h 1.0763 h 1.0763 h 1.0763 h 1.0763 h 1.0763 h 1.0763 h 1.0763 h 1.0763 h 1.0763 h 1.0763 h 1.0763 h 1.0763 h 1.0763 h 1.0763 h 1.0763 h 1.0763 h 1.0763 h 1.0763 h 1.0763 h 1.0763 h 1.0763 "/></g><g stroke-linejoin="miter" stroke-opacity="1.0" fill-opacity="0.0" stroke="rgb(31,84,212)" stroke-width="1.2437342963832745" fill="rgb(0,0,0)" stroke-linecap="butt" stroke-miterlimit="10.0"><path d="M 51.2019,212.7404 l 1.0763,-0.7248 l 1.0763,-0.7272 l 1.0763,-0.7296 l 1.0763,-0.7320 l 1.0763,-0.7344 l 1.0763,-0.7369 l 1.0763,-0.7393 l 1.0763,-0.7417 l 1.0763,-0.7441 l 1.0763,-0.7465 l 1.0763,-0.7489 l 1.0763,-0.7513 l 1.0763,-0.7537 l 1.0763,-0.7562 l 1.0763,-0.7586 l 1.0763,-0.7610 l 1.0763,-0.7634 l 1.0763,-0.7658 l 1.0763,-0.7682 l 1.0763,-0.7706 l 1.0763,-0.7730 l 1.0763,-0.7754 l 1.0763,-0.7778 l 1.0763,-0.7802 l 1.0763,-0.7826 l 1.0763,-0.7850 l 1.0763,-0.7874 l 1.0763,-0.7898 l 1.0763,-0.7922 l 1.0763,-0.7946 l 1.0763,-0.7970 l 1.0763,-0.7994 l 1.0763,-0.8018 l 1.0763,-0.8042 l 1.0763,-0.8066 l 1.0763,-0.8089 l 1.0763,-0.8113 l 1.0763,-0.8137 l 1.0763,-0.8161 l 1.0763,-0.8185 l 1.0763,-0.8208 l 1.0763,-0.8232 l 1.0763,-0.8256 l 1.0763,-0.8280 l 1.0763,-0.8303 l 1.0763,-0.8327 l 1.0763,-0.8350 l 1.0763,-0.8374 l 1.0763,-0.8398 l 1.0763,-0.8421 l 1.0763,-0.8445 l 1.0763,-0.8468 l 1.0763,-0.8492 l 1.0763,-0.8515 l 1.0763,-0.8539 l 1.0763,-0.8562 l 1.0763,-0.8585 l 1.0763,-0.8609 l 1.0763,-0.8632 l 1.0763,-0.8655 l 1.0763,-0.8679 l 1.0763,-0.8702 l 1.0763,-0.8725 l 1.0763,-0.8748 l 1.0763,-0.8771 l 1.0763,-0.8795 l 1.0763,-0.8818 l 1.0763,-0.8841 l 1.0763,-0.8864 l 1.0763,-0.8887 l 1.0763,-0.8910 l 1.0763,-0.8933 l 1.0763,-0.8956 l 1.0763,-0.8978 l 1.0763,-0.9001 l 1.0763,-0.9024 l 1.0763,-0.9047 l 1.0763,-0.9070 l 1.0763,-0.9092 l 1.0763,-0.9115 l 1.0763,-0.9138 l 1.0763,-0.9160 l 1.0763,-0.9183 l 1.0763,-0.9205 l 1.0763,-0.9228 l 1.0763,-0.9250 l 1.0763,-0.9272 l 1.0763,-0.9295 l 1.0763,-0.9317 l 1.0763,-0.9339 l 1.0763,-0.9362 l 1.0763,-0.9384 l 1.0763,-0.9406 l 1.0763,-0.9428 l 1.0763,-0.9450 l 1.0763,-0.9472 l 1.0763,-0.9494 l 1.0763,-0.9516 l 1.0763,-0.9538 l 1.0763,-0.9560 l 1.0763,-0.9357 l 1.0763,-0.9160 l 1.0763,-0.8968 l 1.0763,-0.8782 l 1.0763,-0.8602 l 1.0763,-0.8426 l 1.0763,-0.8255 l 1.0763,-0.8090 l 1.0763,-0.7928 l 1.0763,-0.7771 l 1.0763,-0.7618 l 1.0763,-0.7470 l 1.0763,-0.7325 l 1.0763,-0.7184 l 1.0763,-0.7047 l 1.0763,-0.6913 l 1.0763,-0.6783 l 1.0763,-0.6656 l 1.0763,-0.6532 l 1.0763,-0.6412 l 1.0763,-0.6294 l 1.0763,-0.6179 l 1.0763,-0.6067 l 1.0763,-0.5958 l 1.0763,-0.5852 l 1.0763,-0.5748 l 1.0763,-0.5646 l 1.0763,-0.5547 l 1.0763,-0.5450 l 1.0763,-0.5355 l 1.0763,-0.5263 l 1.0763,-0.5173 l 1.0763,-0.5084 l 1.0763,-0.4998 l 1.0763,-0.4914 l 1.0763,-0.4831 l 1.0763,-0.4751 l 1.0763,-0.4672 l 1.0763,-0.4594 l 1.0763,-0.4519 l 1.0763,-0.4445 l 1.0763,-0.4373 l 1.0763,-0.4302 l 1.0763,-0.4233 l 1.0763,-0.4165 l 1.0763,-0.4099 l 1.0763,-0.4034 l 1.0763,-0.3970 l 1.0763,-0.3907 l 1.0763,-0.3846 l 1.0763,-0.3786 l 1.0763,-0.3728 l 1.0763,-0.3670 l 1.0763,-0.3614 l 1.0763,-0.3559 l 1.0763,-0.3504 l 1.0763,-0.3451 l 1.0763,-0.3399 l 1.0763,-0.3348 l 1.0763,-0.3298 l 1.0763,-0.3249 l 1.0763,-0.3200 l 1.0763,-0.3153 l 1.0763,-0.3107 l 1.0763,-0.3061 l 1.0763,-0.3016 l 1.0763,-0.2972 l 1.0763,-0.2929 l 1.0763,-0.2887 l 1.0763,-0.2846 l 1.0763,-0.2805 l 1.0763,-0.2765 l 1.0763,-0.2725 l 1.0763,-0.2687 l 1.0763,-0.2649 l 1.0763,-0.2611 l 1.0763,-0.2575 l 1.0763,-0.2539 l 1.0763,-0.2503 l 1.0763,-0.2469 l 1.0763,-0.2434 l 1.0763,-0.2401 l 1.0763,-0.2368 l 1.0763,-0.2335 l 1.0763,-0.2303 l 1.0763,-0.2272 l 1.0763,-0.2241 l 1.0763,-0.2211 l 1.0763,-0.2181 l 1.0763,-0.2152 l 1.0763,-0.2123 l 1.0763,-0.2094 l 1.0763,-0.2066 l 1.0763,-0.2039 l 1.0763,-0.2012 l 1.0763,-0.1985 l 1.0763,-0.1959 l 1.0763,-0.1933 l 1.0763,-0.1908 l 1.0763,-0.1883 l 1.0763,-0.1859 "/></g><g stroke-linejoin="miter" stroke-opacity="1.0" fill-opacity="0.0" stroke="rgb(224,84,31)" stroke-width="1.2437342963832745" fill="rgb(0,0,0)" stroke-linecap="butt" stroke-miterlimit="10.0"><path d="M 51.2019,212.7404 l 1.0763,-0.7591 l 1.0763,-0.7843 l 1.0763,-0.8094 l 1.0763,-0.8343 l 1.0763,-0.8589 l 1.0763,-0.8832 l 1.0763,-0.9072 l 1.0763,-0.9308 l 1.0763,-0.9540 l 1.0763,-0.9767 l 1.0763,-0.9989 l 1.0763,-1.0205 l 1.0763,-1.0415 l 1.0763,-1.0620 l 1.0763,-1.0818 l 1.0763,-1.1011 l 1.0763,-1.1196 l 1.0763,-1.1375 l 1.0763,-1.1547 l 1.0763,-1.1712 l 1.0763,-1.1871 l 1.0763,-1.2023 l 1.0763,-1.2168 l 1.0763,-1.2306 l 1.0763,-1.2438 l 1.0763,-1.2563 l 1.0763,-1.2683 l 1.0763,-1.2796 l 1.0763,-1.2903 l 1.0763,-1.3004 l 1.0763,-1.3099 l 1.0763,-1.3190 l 1.0763,-1.3275 l 1.0763,-1.3354 l 1.0763,-1.3430 l 1.0763,-1.3500 l 1.0763,-1.3566 l 1.0763,-1.3628 l 1.0763,-1.3686 l 1.0763,-1.3740 l 1.0763,-1.3791 l 1.0763,-1.3838 l 1.0763,-1.3882 l 1.0763,-1.3923 l 1.0763,-1.3961 l 1.0763,-1.3997 l 1.0763,-1.4030 l 1.0763,-1.4060 l 1.0763,-1.4089 l 1.0763,-1.4115 l 1.0763,-1.4139 l 1.0763,-1.4162 l 1.0763,-1.4183 l 1.0763,-1.4202 l 1.0763,-1.4220 l 1.0763,-1.4236 l 1.0763,-1.4252 l 1.0763,-1.4266 l 1.0763,-1.4278 l 1.0763,-1.4290 l 1.0763,-1.4301 l 1.0763,-1.4311 l 1.0763,-1.4321 l 1.0763,-1.4329 l 1.0763,-1.4337 l 1.0763,-1.4344 l 1.0763,-1.4351 l 1.0763,-1.4357 l 1.0763,-1.4363 l 1.0763,-1.4368 l 1.0763,-1.4373 l 1.0763,-1.4377 l 1.0763,-1.4381 l 1.0763,-1.4385 l 1.0763,-1.4388 l 1.0763,-1.4391 l 1.0763,-1.4394 l 1.0763,-1.4396 l 1.0763,-1.4399 l 1.0763,-1.4401 l 1.0763,-1.4403 l 1.0763,-1.4404 l 1.0763,-1.4406 l 1.0763,-1.4408 l 1.0763,-1.4409 l 1.0763,-1.4410 l 1.0763,-1.4411 l 1.0763,-1.4412 l 1.0763,-1.4413 l 1.0763,-1.4414 l 1.0763,-1.4415 l 1.0763,-1.4416 l 1.0763,-1.4416 l 1.0763,-1.4417 l 1.0763,-1.4417 l 1.0763,-1.4418 l 1.0763,-1.4418 l 1.0763,-1.4419 l 1.0763,-1.4419 l 1.0763,-1.4420 l 1.0763,-1.2978 l 1.0763,-1.1680 l 1.0763,-1.0512 l 1.0763,-0.9461 l 1.0763,-0.8514 l 1.0763,-0.7663 l 1.0763,-0.6897 l 1.0763,-0.6207 l 1.0763,-0.5586 l 1.0763,-0.5028 l 1.0763,-0.4525 l 1.0763,-0.4072 l 1.0763,-0.3665 l 1.0763,-0.3299 l 1.0763,-0.2969 l 1.0763,-0.2672 l 1.0763,-0.2405 l 1.0763,-0.2164 l 1.0763,-0.1948 l 1.0763,-0.1753 l 1.0763,-0.1578 l 1.0763,-0.1420 l 1.0763,-0.1278 l 1.0763,-0.1150 l 1.0763,-0.1035 l 1.0763,-0.0932 l 1.0763,-0.0838 l 1.0763,-0.0755 l 1.0763,-0.0679 l 1.0763,-0.0611 l 1.0763,-0.0550 l 1.0763,-0.0495 l 1.0763,-0.0446 l 1.0763,-0.0401 l 1.0763,-0.0361 l 1.0763,-0.0325 l 1.0763,-0.0292 l 1.0763,-0.0263 l 1.0763,-0.0237 l 1.0763,-0.0213 l 1.0763,-0.0192 l 1.0763,-0.0173 l 1.0763,-0.0155 l 1.0763,-0.0140 l 1.0763,-0.0126 l 1.0763,-0.0113 l 1.0763,-0.0102 l 1.0763,-0.0092 l 1.0763,-0.0083 l 1.0763,-0.0074 l 1.0763,-0.0067 l 1.0763,-0.0060 l 1.0763,-0.0054 l 1.0763,-0.0049 l 1.0763,-0.0044 l 1.0763,-0.0039 l 1.0763,-0.0036 l 1.0763,-0.0032 l 1.0763,-0.0029 l 1.0763,-0.0026 l 1.0763,-0.0023 l 1.0763,-0.0021 l 1.0763,-0.0019 l 1.0763,-0.0017 l 1.0763,-0.0015 l 1.0763,-0.0014 l 1.0763,-0.0012 l 1.0763,-0.0011 l 1.0763,-0.0010 l 1.0763,-0.0009 l 1.0763,-0.0008 l 1.0763,-0.0007 l 1.0763,-0.0007 l 1.0763,-0.0006 l 1.0763,-0.0005 l 1.0763,-0.0005 l 1.0763,-0.0004 l 1.0763,-0.0004 l 1.0763,-0.0004 l 1.0763,-0.0003 l 1.0763,-0.0003 l 1.0763,-0.0003 l 1.0763,-0.0002 l 1.0763,-0.0002 l 1.0763,-0.0002 l 1.0763,-0.0002 l 1.0763,-0.0002 l 1.0763,-0.0001 l 1.0763,-0.0001 l 1.0763,-0.0001 l 1.0763,-0.0001 l 1.0763,-0.0001 l 1.0763,-0.0001 l 1.0763,-0.0001 l 1.0763,-0.0001 l 1.0763,-0.0001 l 1.0763,-0.0001 l 1.0763,-0.0000 l 1.0763,-0.0000 l 1.0763,-0.0000 l 1.0763,-0.0000 "/></g></svg>