
<svg xmlns="http://www.w3.org/2000/svg" height="300.0" viewBox="-1.081603951867382 -0.750342385218365 1.8541039518673819 1.5809499006544654" width="450.0" xmlns:xlink="http://www.w3.org/1999/xlink">
  <g transform="translate(-1.0449017946421715, 8.772495032723271e-2)" fill-opacity="1.0" font-size="8.0e-2" stroke="none" stroke-width="0.0" fill="#333333" text-anchor="middle">
    <text transform="rotate(-90.0, 5.7297842774789665e-2, -4.759238521836506e-2)" x="5.7297842774789665e-2" y="-4.759238521836506e-2">average beta * (1/r)
    </text>
  </g>
  <g transform="translate(-0.12370089732108575, 0.8161999006544653)" fill-opacity="1.0" font-size="8.0e-2" stroke="none" stroke-width="0.0" fill="#333333" text-anchor="middle">
    <text transform="rotate(0.0, 5.7297842774789665e-2, -4.759238521836506e-2)" x="5.7297842774789665e-2" y="-4.759238521836506e-2">rate
    </text>
  </g>
  <g transform="translate(-0.12370089732108575, -0.57175)" fill-opacity="1.0" font-size="0.12" stroke="none" stroke-width="0.0" fill="#333333" text-anchor="middle">
    <text transform="rotate(0.0, 5.7297842774789665e-2, -4.759238521836506e-2)" x="5.7297842774789665e-2" y="-4.759238521836506e-2">beta measure check
    </text>
  </g>
  <g stroke-opacity="0.0" fill-opacity="0.1" stroke="#000000" stroke-width="0.0" fill="#cccccc">
    <rect height="0.8958566629339307" width="1.3762294514408149" x="-0.6308168829456179" y="-0.4955207166853305"/>
  </g>
  <g stroke-opacity="0.1" stroke="#808080" stroke-width="5.0e-3" fill="none">
    <polyline points="-0.6354043144504206,0.40033594624860025
0.75,0.40033594624860025"/>
  </g>
  <g stroke-opacity="0.1" stroke="#808080" stroke-width="5.0e-3" fill="none">
    <polyline points="-0.6354043144504206,0.3107502799552071
0.75,0.3107502799552071"/>
  </g>
  <g stroke-opacity="0.1" stroke="#808080" stroke-width="5.0e-3" fill="none">
    <polyline points="-0.6354043144504206,0.22116461366181428
0.75,0.22116461366181428"/>
  </g>
  <g stroke-opacity="0.1" stroke="#808080" stroke-width="5.0e-3" fill="none">
    <polyline points="-0.6354043144504206,0.13157894736842118
0.75,0.13157894736842118"/>
  </g>
  <g stroke-opacity="0.1" stroke="#808080" stroke-width="5.0e-3" fill="none">
    <polyline points="-0.6354043144504206,4.199328107502798e-2
0.75,4.199328107502798e-2"/>
  </g>
  <g stroke-opacity="0.1" stroke="#808080" stroke-width="5.0e-3" fill="none">
    <polyline points="-0.6354043144504206,-4.759238521836473e-2
0.75,-4.759238521836473e-2"/>
  </g>
  <g stroke-opacity="0.1" stroke="#808080" stroke-width="5.0e-3" fill="none">
    <polyline points="-0.6354043144504206,-0.13717805151175788
0.75,-0.13717805151175788"/>
  </g>
  <g stroke-opacity="0.1" stroke="#808080" stroke-width="5.0e-3" fill="none">
    <polyline points="-0.6354043144504206,-0.22676371780515103
0.75,-0.22676371780515103"/>
  </g>
  <g stroke-opacity="0.1" stroke="#808080" stroke-width="5.0e-3" fill="none">
    <polyline points="-0.6354043144504206,-0.3163493840985442
0.75,-0.3163493840985442"/>
  </g>
  <g stroke-opacity="0.1" stroke="#808080" stroke-width="5.0e-3" fill="none">
    <polyline points="-0.6354043144504206,-0.40593505039193734
0.75,-0.40593505039193734"/>
  </g>
  <g stroke-opacity="0.1" stroke="#808080" stroke-width="5.0e-3" fill="none">
    <polyline points="-0.6354043144504206,-0.4955207166853305
0.75,-0.4955207166853305"/>
  </g>
  <g fill-opacity="0.8" font-size="5.0e-2" stroke="none" stroke-width="0.0" fill="#333333" text-anchor="end">
    <text x="-0.75" y="0.4133258678611422">0.090
    </text>
  </g>
  <g fill-opacity="0.8" font-size="5.0e-2" stroke="none" stroke-width="0.0" fill="#333333" text-anchor="end">
    <text x="-0.75" y="0.32374020156774913">0.095
    </text>
  </g>
  <g fill-opacity="0.8" font-size="5.0e-2" stroke="none" stroke-width="0.0" fill="#333333" text-anchor="end">
    <text x="-0.75" y="0.23415453527435626">0.100
    </text>
  </g>
  <g fill-opacity="0.8" font-size="5.0e-2" stroke="none" stroke-width="0.0" fill="#333333" text-anchor="end">
    <text x="-0.75" y="0.14456886898096316">0.105
    </text>
  </g>
  <g fill-opacity="0.8" font-size="5.0e-2" stroke="none" stroke-width="0.0" fill="#333333" text-anchor="end">
    <text x="-0.75" y="5.4983202687570065e-2">0.110
    </text>
  </g>
  <g fill-opacity="0.8" font-size="5.0e-2" stroke="none" stroke-width="0.0" fill="#333333" text-anchor="end">
    <text x="-0.75" y="-3.460246360582275e-2">0.115
    </text>
  </g>
  <g fill-opacity="0.8" font-size="5.0e-2" stroke="none" stroke-width="0.0" fill="#333333" text-anchor="end">
    <text x="-0.75" y="-0.1241881298992159">0.120
    </text>
  </g>
  <g fill-opacity="0.8" font-size="5.0e-2" stroke="none" stroke-width="0.0" fill="#333333" text-anchor="end">
    <text x="-0.75" y="-0.21377379619260906">0.125
    </text>
  </g>
  <g fill-opacity="0.8" font-size="5.0e-2" stroke="none" stroke-width="0.0" fill="#333333" text-anchor="end">
    <text x="-0.75" y="-0.3033594624860022">0.130
    </text>
  </g>
  <g fill-opacity="0.8" font-size="5.0e-2" stroke="none" stroke-width="0.0" fill="#333333" text-anchor="end">
    <text x="-0.75" y="-0.39294512877939514">0.135
    </text>
  </g>
  <g fill-opacity="0.8" font-size="5.0e-2" stroke="none" stroke-width="0.0" fill="#333333" text-anchor="end">
    <text x="-0.75" y="-0.4825307950727883">0.140
    </text>
  </g>
  <g stroke-opacity="0.5" fill-opacity="0.5" stroke="#570d66" stroke-width="5.0e-3" fill="#570d66">
    <g transform="rotate(-90.0, -0.7201128837462103, 0.40033594624860025)">
      <polyline points="-0.7201128837462103,0.41533594624860026
-0.7201128837462103,0.38533594624860024"/>
    </g>
    <g transform="rotate(-90.0, -0.7201128837462103, 0.3107502799552071)">
      <polyline points="-0.7201128837462103,0.3257502799552071
-0.7201128837462103,0.2957502799552071"/>
    </g>
    <g transform="rotate(-90.0, -0.7201128837462103, 0.22116461366181428)">
      <polyline points="-0.7201128837462103,0.2361646136618143
-0.7201128837462103,0.20616461366181427"/>
    </g>
    <g transform="rotate(-90.0, -0.7201128837462103, 0.13157894736842118)">
      <polyline points="-0.7201128837462103,0.1465789473684212
-0.7201128837462103,0.11657894736842118"/>
    </g>
    <g transform="rotate(-90.0, -0.7201128837462103, 4.199328107502798e-2)">
      <polyline points="-0.7201128837462103,5.699328107502798e-2
-0.7201128837462103,2.6993281075027978e-2"/>
    </g>
    <g transform="rotate(-90.0, -0.7201128837462103, -4.759238521836473e-2)">
      <polyline points="-0.7201128837462103,-3.259238521836473e-2
-0.7201128837462103,-6.259238521836473e-2"/>
    </g>
    <g transform="rotate(-90.0, -0.7201128837462103, -0.13717805151175788)">
      <polyline points="-0.7201128837462103,-0.12217805151175788
-0.7201128837462103,-0.1521780515117579"/>
    </g>
    <g transform="rotate(-90.0, -0.7201128837462103, -0.22676371780515103)">
      <polyline points="-0.7201128837462103,-0.21176371780515102
-0.7201128837462103,-0.24176371780515105"/>
    </g>
    <g transform="rotate(-90.0, -0.7201128837462103, -0.3163493840985442)">
      <polyline points="-0.7201128837462103,-0.30134938409854417
-0.7201128837462103,-0.3313493840985442"/>
    </g>
    <g transform="rotate(-90.0, -0.7201128837462103, -0.40593505039193734)">
      <polyline points="-0.7201128837462103,-0.3909350503919373
-0.7201128837462103,-0.42093505039193735"/>
    </g>
    <g transform="rotate(-90.0, -0.7201128837462103, -0.4955207166853305)">
      <polyline points="-0.7201128837462103,-0.4805207166853305
-0.7201128837462103,-0.5105207166853305"/>
    </g>
  </g>
  <g stroke-opacity="0.5" fill-opacity="0.5" stroke="#570d66" stroke-width="0.0" fill="#570d66">
    <rect height="0.8958566629339307" width="4.587431504802675e-3" x="-0.7086443049842035" y="-0.4955207166853305"/>
  </g>
  <g stroke-opacity="0.1" stroke="#808080" stroke-width="5.0e-3" fill="none">
    <polyline points="-0.6308168829456179,0.40481522956326993
-0.6308168829456179,-0.5"/>
  </g>
  <g stroke-opacity="0.1" stroke="#808080" stroke-width="5.0e-3" fill="none">
    <polyline points="-0.51613109532555,0.40481522956326993
-0.51613109532555,-0.5"/>
  </g>
  <g stroke-opacity="0.1" stroke="#808080" stroke-width="5.0e-3" fill="none">
    <polyline points="-0.40144530770548204,0.40481522956326993
-0.40144530770548204,-0.5"/>
  </g>
  <g stroke-opacity="0.1" stroke="#808080" stroke-width="5.0e-3" fill="none">
    <polyline points="-0.28675952008541417,0.40481522956326993
-0.28675952008541417,-0.5"/>
  </g>
  <g stroke-opacity="0.1" stroke="#808080" stroke-width="5.0e-3" fill="none">
    <polyline points="-0.17207373246534619,0.40481522956326993
-0.17207373246534619,-0.5"/>
  </g>
  <g stroke-opacity="0.1" stroke="#808080" stroke-width="5.0e-3" fill="none">
    <polyline points="-5.7387944845278316e-2,0.40481522956326993
-5.7387944845278316e-2,-0.5"/>
  </g>
  <g stroke-opacity="0.1" stroke="#808080" stroke-width="5.0e-3" fill="none">
    <polyline points="5.7297842774789665e-2,0.40481522956326993
5.7297842774789665e-2,-0.5"/>
  </g>
  <g stroke-opacity="0.1" stroke="#808080" stroke-width="5.0e-3" fill="none">
    <polyline points="0.17198363039485742,0.40481522956326993
0.17198363039485742,-0.5"/>
  </g>
  <g stroke-opacity="0.1" stroke="#808080" stroke-width="5.0e-3" fill="none">
    <polyline points="0.2866694180149254,0.40481522956326993
0.2866694180149254,-0.5"/>
  </g>
  <g stroke-opacity="0.1" stroke="#808080" stroke-width="5.0e-3" fill="none">
    <polyline points="0.4013552056349934,0.40481522956326993
0.4013552056349934,-0.5"/>
  </g>
  <g stroke-opacity="0.1" stroke="#808080" stroke-width="5.0e-3" fill="none">
    <polyline points="0.5160409932550611,0.40481522956326993
0.5160409932550611,-0.5"/>
  </g>
  <g stroke-opacity="0.1" stroke="#808080" stroke-width="5.0e-3" fill="none">
    <polyline points="0.6307267808751291,0.40481522956326993
0.6307267808751291,-0.5"/>
  </g>
  <g stroke-opacity="0.1" stroke="#808080" stroke-width="5.0e-3" fill="none">
    <polyline points="0.7454125684951971,0.40481522956326993
0.7454125684951971,-0.5"/>
  </g>
  <g fill-opacity="0.8" font-size="5.0e-2" stroke="none" stroke-width="0.0" fill="#333333" text-anchor="end">
    <text transform="rotate(-45.0, -0.6308168829456179, 0.5)" x="-0.6308168829456179" y="0.5">-0.02
    </text>
  </g>
  <g fill-opacity="0.8" font-size="5.0e-2" stroke="none" stroke-width="0.0" fill="#333333" text-anchor="end">
    <text transform="rotate(-45.0, -0.51613109532555, 0.5)" x="-0.51613109532555" y="0.5">0.00
    </text>
  </g>
  <g fill-opacity="0.8" font-size="5.0e-2" stroke="none" stroke-width="0.0" fill="#333333" text-anchor="end">
    <text transform="rotate(-45.0, -0.40144530770548204, 0.5)" x="-0.40144530770548204" y="0.5">0.02
    </text>
  </g>
  <g fill-opacity="0.8" font-size="5.0e-2" stroke="none" stroke-width="0.0" fill="#333333" text-anchor="end">
    <text transform="rotate(-45.0, -0.28675952008541417, 0.5)" x="-0.28675952008541417" y="0.5">0.04
    </text>
  </g>
  <g fill-opacity="0.8" font-size="5.0e-2" stroke="none" stroke-width="0.0" fill="#333333" text-anchor="end">
    <text transform="rotate(-45.0, -0.17207373246534619, 0.5)" x="-0.17207373246534619" y="0.5">0.06
    </text>
  </g>
  <g fill-opacity="0.8" font-size="5.0e-2" stroke="none" stroke-width="0.0" fill="#333333" text-anchor="end">
    <text transform="rotate(-45.0, -5.7387944845278316e-2, 0.5)" x="-5.7387944845278316e-2" y="0.5">0.08
    </text>
  </g>
  <g fill-opacity="0.8" font-size="5.0e-2" stroke="none" stroke-width="0.0" fill="#333333" text-anchor="end">
    <text transform="rotate(-45.0, 5.7297842774789665e-2, 0.5)" x="5.7297842774789665e-2" y="0.5">0.10
    </text>
  </g>
  <g fill-opacity="0.8" font-size="5.0e-2" stroke="none" stroke-width="0.0" fill="#333333" text-anchor="end">
    <text transform="rotate(-45.0, 0.17198363039485742, 0.5)" x="0.17198363039485742" y="0.5">0.12
    </text>
  </g>
  <g fill-opacity="0.8" font-size="5.0e-2" stroke="none" stroke-width="0.0" fill="#333333" text-anchor="end">
    <text transform="rotate(-45.0, 0.2866694180149254, 0.5)" x="0.2866694180149254" y="0.5">0.14
    </text>
  </g>
  <g fill-opacity="0.8" font-size="5.0e-2" stroke="none" stroke-width="0.0" fill="#333333" text-anchor="end">
    <text transform="rotate(-45.0, 0.4013552056349934, 0.5)" x="0.4013552056349934" y="0.5">0.16
    </text>
  </g>
  <g fill-opacity="0.8" font-size="5.0e-2" stroke="none" stroke-width="0.0" fill="#333333" text-anchor="end">
    <text transform="rotate(-45.0, 0.5160409932550611, 0.5)" x="0.5160409932550611" y="0.5">0.18
    </text>
  </g>
  <g fill-opacity="0.8" font-size="5.0e-2" stroke="none" stroke-width="0.0" fill="#333333" text-anchor="end">
    <text transform="rotate(-45.0, 0.6307267808751291, 0.5)" x="0.6307267808751291" y="0.5">0.20
    </text>
  </g>
  <g fill-opacity="0.8" font-size="5.0e-2" stroke="none" stroke-width="0.0" fill="#333333" text-anchor="end">
    <text transform="rotate(-45.0, 0.7454125684951971, 0.5)" x="0.7454125684951971" y="0.5">0.22
    </text>
  </g>
  <g stroke-opacity="0.5" fill-opacity="0.5" stroke="#570d66" stroke-width="5.0e-3" fill="#570d66">
    <polyline points="-0.6308168829456179,0.4399720044792833
-0.6308168829456179,0.4099720044792833"/>
    <polyline points="-0.51613109532555,0.4399720044792833
-0.51613109532555,0.4099720044792833"/>
    <polyline points="-0.40144530770548204,0.4399720044792833
-0.40144530770548204,0.4099720044792833"/>
    <polyline points="-0.28675952008541417,0.4399720044792833
-0.28675952008541417,0.4099720044792833"/>
    <polyline points="-0.17207373246534619,0.4399720044792833
-0.17207373246534619,0.4099720044792833"/>
    <polyline points="-5.7387944845278316e-2,0.4399720044792833
-5.7387944845278316e-2,0.4099720044792833"/>
    <polyline points="5.7297842774789665e-2,0.4399720044792833
5.7297842774789665e-2,0.4099720044792833"/>
    <polyline points="0.17198363039485742,0.4399720044792833
0.17198363039485742,0.4099720044792833"/>
    <polyline points="0.2866694180149254,0.4399720044792833
0.2866694180149254,0.4099720044792833"/>
    <polyline points="0.4013552056349934,0.4399720044792833
0.4013552056349934,0.4099720044792833"/>
    <polyline points="0.5160409932550611,0.4399720044792833
0.5160409932550611,0.4099720044792833"/>
    <polyline points="0.6307267808751291,0.4399720044792833
0.6307267808751291,0.4099720044792833"/>
    <polyline points="0.7454125684951971,0.4399720044792833
0.7454125684951971,0.4099720044792833"/>
  </g>
  <g stroke-opacity="0.5" fill-opacity="0.5" stroke="#570d66" stroke-width="0.0" fill="#570d66">
    <rect height="4.47928331466968e-3" width="1.3762294514408149" x="-0.6308168829456179" y="0.40929451287793955"/>
  </g>
  <g stroke-opacity="1.0" stroke="#026062" stroke-width="1.2e-2" fill="none">
    <polyline points="-0.5103968059445465,-0.3787744149417759
-0.48745964842053296,0.2166864376888546
-0.45878820151551597,0.15058740394237485
-0.40144530770548204,0.14902713078671287
-0.22941662627538006,0.20027255395301446
5.729784277478989e-2,0.212340414935829
0.6307267808751291,0.2108342707942592"/>
  </g>
</svg>