<?xml version="1.0" encoding="UTF-8"?>
<!DOCTYPE svg PUBLIC "-//W3C//DTD SVG 1.1//EN"
    "http://www.w3.org/Graphics/SVG/1.1/DTD/svg11.dtd">
<svg xmlns="http://www.w3.org/2000/svg" height="400.0000" stroke-opacity="1" viewBox="0 0 600 400" font-size="1" width="600.0000" xmlns:xlink="http://www.w3.org/1999/xlink" stroke="rgb(0,0,0)" version="1.1">
  <defs>
  </defs>
  <g stroke-linejoin="miter" stroke-opacity="1.0" fill-opacity="0.0" stroke="rgb(44,160,44)" stroke-width="1.30940833830909" fill="rgb(0,0,0)" stroke-linecap="butt" stroke-miterlimit="10.0">
    <path d="M 124.6810,101.1666 l 0.6155,-0.1725 l 0.6155,-1.0423 l 0.6155,0.6386 l 0.6155,-0.6232 l 0.6155,-0.0194 l 0.6155,0.8666 l 0.6155,0.3766 l 0.6155,0.0891 l 0.6155,2.3762 l 0.6155,-0.2573 l 0.6155,-0.7268 l 0.6155,0.0741 l 0.6155,0.4674 l 0.6155,-0.6322 l 0.6155,1.8964 l 0.6155,-0.2169 l 0.6155,-1.3217 l 0.6155,-1.1774 l 0.6155,-0.4474 l 0.6155,0.1267 l 0.6155,-0.8373 l 0.6155,-0.0739 l 0.6155,-0.0366 l 0.6155,0.5208 l 0.6155,0.3109 l 0.6155,0.6745 l 0.6155,1.2321 l 0.6155,0.6779 l 0.6155,-1.3255 l 0.6155,-0.7656 l 0.6155,0.0403 l 0.6155,0.2946 l 0.6155,0.3472 l 0.6155,0.2897 l 0.6155,-0.3041 l 0.6155,0.9010 l 0.6155,0.3554 l 0.6155,-1.3709 l 0.6155,1.1026 l 0.6155,-0.0681 l 0.6155,0.1781 l 0.6155,-0.3951 l 0.6155,-0.5365 l 0.6155,0.3307 l 0.6155,0.9549 l 0.6155,2.3920 l 0.6155,3.6030 l 0.6155,4.4553 l 0.6155,1.4979 l 0.6155,-4.2449 l 0.6155,-2.6492 l 0.6155,-0.0525 l 0.6155,0.9464 l 0.6155,3.3294 l 0.6155,-2.0057 l 0.6155,-0.1228 l 0.6155,1.7138 l 0.6155,-2.7385 l 0.6155,1.5573 l 0.6155,-0.5776 l 0.6155,-0.4883 l 0.6155,0.4614 l 0.6155,-1.4025 l 0.6155,-0.9457 l 0.6155,0.2995 l 0.6155,1.8160 l 0.6155,-0.4959 l 0.6155,1.3795 l 0.6155,0.2307 l 0.6155,0.3755 l 0.6155,0.0531 l 0.6155,2.8752 l 0.6155,-0.1462 l 0.6155,-2.0979 l 0.6155,-0.2190 l 0.6155,-1.5712 l 0.6155,-1.9971 l 0.6155,0.4113 l 0.6155,-0.8722 l 0.6155,-0.9545 l 0.6155,-0.0604 l 0.6155,-0.1209 l 0.6155,0.7774 l 0.6155,0.5398 l 0.6155,-1.6143 l 0.6155,-0.4824 l 0.6155,-0.0063 l 0.6155,0.1808 l 0.6155,0.6686 l 0.6155,-1.8024 l 0.6155,-1.1850 l 0.6155,0.2438 l 0.6155,0.3138 l 0.6155,-1.2710 l 0.6155,0.0847 l 0.6155,0.5675 l 0.6155,-1.2722 l 0.6155,-0.2636 l 0.6155,0.4311 l 0.6155,0.1620 l 0.6155,0.0746 l 0.6155,1.1269 l 0.6155,-0.1355 l 0.6155,0.3892 l 0.6155,1.5875 l 0.6155,1.2696 l 0.6155,-1.6161 l 0.6155,0.1735 l 0.6155,-1.7474 l 0.6155,0.1559 l 0.6155,-0.3893 l 0.6155,0.1692 l 0.6155,-0.1031 l 0.6155,0.0466 l 0.6155,-0.0334 l 0.6155,0.5464 l 0.6155,-1.1441 l 0.6155,1.2567 l 0.6155,1.6298 l 0.6155,-2.2225 l 0.6155,0.8072 l 0.6155,0.7484 l 0.6155,0.8845 l 0.6155,-0.2263 l 0.6155,2.1909 l 0.6155,-0.5100 l 0.6155,-1.1510 l 0.6155,-1.5717 l 0.6155,1.7023 l 0.6155,2.0052 l 0.6155,-0.8439 l 0.6155,-0.9543 l 0.6155,-1.3443 l 0.6155,0.2019 l 0.6155,0.2653 l 0.6155,-1.1454 l 0.6155,0.8283 l 0.6155,1.0696 l 0.6155,1.7247 l 0.6155,-0.2089 l 0.6155,1.4733 l 0.6155,2.6592 l 0.6155,1.2020 l 0.6155,-0.1015 l 0.6155,-0.8659 l 0.6155,2.7909 l 0.6155,-1.8446 l 0.6155,2.4062 l 0.6155,-0.0755 l 0.6155,1.2836 l 0.6155,-0.5943 l 0.6155,-2.2386 l 0.6155,1.7318 l 0.6155,-1.5695 l 0.6155,1.1963 l 0.6155,-0.6250 l 0.6155,-2.7164 l 0.6155,0.0467 l 0.6155,2.0887 l 0.6155,-0.5612 l 0.6155,-0.1772 l 0.6155,2.0538 l 0.6155,1.5594 l 0.6155,0.0510 l 0.6155,-0.0017 l 0.6155,1.3454 l 0.6155,-2.1644 l 0.6155,-1.8298 l 0.6155,-1.8186 l 0.6155,0.5122 l 0.6155,-0.0039 l 0.6155,-1.5928 l 0.6155,1.3848 l 0.6155,-0.4955 l 0.6155,-1.2511 l 0.6155,0.2080 l 0.6155,0.9015 l 0.6155,-2.6104 l 0.6155,-0.4445 l 0.6155,-0.3771 l 0.6155,-0.3544 l 0.6155,-0.0860 l 0.6155,1.2615 l 0.6155,-0.5499 l 0.6155,-0.0079 l 0.6155,-1.7881 l 0.6155,0.1559 l 0.6155,0.2191 l 0.6155,-0.6023 l 0.6155,-0.7091 l 0.6155,-0.4656 l 0.6155,-0.0868 l 0.6155,0.1194 l 0.6155,0.7300 l 0.6155,0.0608 l 0.6155,-0.0415 l 0.6155,-0.9512 l 0.6155,-0.4570 l 0.6155,0.2503 l 0.6155,-0.6739 l 0.6155,0.3815 l 0.6155,1.1517 l 0.6155,-1.1351 l 0.6155,1.3563 l 0.6155,-0.2883 l 0.6155,0.3236 l 0.6155,-1.0436 l 0.6155,-1.0808 l 0.6155,0.0085 l 0.6155,0.1364 l 0.6155,-0.6935 l 0.6155,-0.3106 l 0.6155,-0.0531 l 0.6155,0.6068 l 0.6155,0.0236 l 0.6155,0.2292 l 0.6155,-0.1790 l 0.6155,-0.1536 l 0.6155,1.0541 l 0.6155,0.5860 l 0.6155,-0.8372 l 0.6155,0.9891 l 0.6155,0.6801 l 0.6155,0.0457 l 0.6155,-0.3312 l 0.6155,-0.0628 l 0.6155,-1.3505 l 0.6155,1.0879 l 0.6155,0.0405 l 0.6155,0.9626 l 0.6155,-1.0598 l 0.6155,1.0670 l 0.6155,-0.0050 l 0.6155,0.4281 l 0.6155,-0.6473 l 0.6155,0.2493 l 0.6155,-1.4843 l 0.6155,-0.7447 l 0.6155,0.0498 l 0.6155,-0.4465 l 0.6155,0.1392 l 0.6155,-0.0979 l 0.6155,-0.2838 l 0.6155,0.3513 l 0.6155,-0.5123 l 0.6155,-0.1127 l 0.6155,-0.3350 l 0.6155,0.2215 l 0.6155,1.0494 l 0.6155,0.9270 l 0.6155,0.2217 l 0.6155,0.2254 l 0.6155,-0.3248 l 0.6155,0.3829 l 0.6155,-0.6194 l 0.6155,-0.2762 l 0.6155,0.2069 l 0.6155,-1.4438 l 0.6155,4.0722 l 0.6155,2.0313 l 0.6155,-1.9420 l 0.6155,-3.3433 l 0.6155,-0.1892 l 0.6155,0.7861 l 0.6155,-0.5665 l 0.6155,0.1222 l 0.6155,-1.6478 l 0.6155,-0.3442 l 0.6155,-0.7387 l 0.6155,0.0214 l 0.6155,-0.5436 l 0.6155,0.1411 l 0.6155,-0.2252 l 0.6155,0.1974 l 0.6155,-0.4331 l 0.6155,0.4396 l 0.6155,-0.4643 l 0.6155,0.3731 l 0.6155,0.0026 l 0.6155,0.1708 l 0.6155,-0.1399 l 0.6155,-0.1421 l 0.6155,0.1791 l 0.6155,0.7433 l 0.6155,-0.3109 l 0.6155,0.0127 l 0.6155,-0.9107 l 0.6155,0.1401 l 0.6155,-0.0038 l 0.6155,0.3563 l 0.6155,-0.4842 l 0.6155,0.1278 l 0.6155,-0.2690 l 0.6155,0.6476 l 0.6155,-0.1686 l 0.6155,-0.2044 l 0.6155,0.1985 l 0.6155,0.1007 l 0.6155,-0.1775 l 0.6155,0.6194 l 0.6155,0.1873 l 0.6155,0.2102 l 0.6155,-0.5416 l 0.6155,0.2530 l 0.6155,0.2987 l 0.6155,0.0392 l 0.6155,-0.4289 l 0.6155,-0.2929 l 0.6155,0.0535 l 0.6155,0.2831 l 0.6155,2.7801 l 0.6155,-1.5855 l 0.6155,1.6827 l 0.6155,0.0895 l 0.6155,-1.0875 l 0.6155,0.4462 l 0.6155,0.0288 l 0.6155,-0.0065 l 0.6155,-1.1734 l 0.6155,-0.6847 l 0.6155,0.6699 l 0.6155,0.9846 l 0.6155,-0.6825 l 0.6155,-0.5537 l 0.6155,1.0675 l 0.6155,-0.8490 l 0.6155,0.3925 l 0.6155,0.5790 l 0.6155,-0.4462 l 0.6155,-0.0238 l 0.6155,0.3897 l 0.6155,-0.4799 l 0.6155,1.4141 l 0.6155,-0.1024 l 0.6155,0.3677 l 0.6155,0.0009 l 0.6155,0.3594 l 0.6155,-0.6571 l 0.6155,-0.2177 l 0.6155,0.1774 l 0.6155,0.0338 l 0.6155,-0.4994 l 0.6155,0.4469 l 0.6155,0.2171 l 0.6155,0.3543 l 0.6155,0.3664 l 0.6155,0.0343 l 0.6155,0.7734 l 0.6155,0.7412 l 0.6155,0.5046 l 0.6155,0.1969 l 0.6155,-2.4175 l 0.6155,-0.3946 l 0.6155,-1.1945 l 0.6155,-0.1875 l 0.6155,0.1832 l 0.6155,0.0406 l 0.6155,-0.7960 l 0.6155,0.2059 l 0.6155,-0.4856 l 0.6155,0.2961 l 0.6155,-0.7908 l 0.6155,-0.2051 l 0.6155,-0.0545 l 0.6155,-0.3968 l 0.6155,0.6189 l 0.6155,-0.1133 l 0.6155,0.3282 l 0.6155,0.4225 l 0.6155,-0.0123 l 0.6155,-0.6099 l 0.6155,-0.3423 l 0.6155,-1.4099 l 0.6155,-0.1973 l 0.6155,-0.6126 l 0.6155,0.1701 l 0.6155,-0.6768 l 0.6155,0.9471 l 0.6155,-0.3858 l 0.6155,0.2378 l 0.6155,-0.1749 l 0.6155,-0.3574 l 0.6155,0.3172 l 0.6155,0.2501 l 0.6155,-0.0952 l 0.6155,-0.2048 l 0.6155,0.9717 l 0.6155,0.0727 l 0.6155,0.5537 l 0.6155,-0.8962 l 0.6155,-0.5892 l 0.6155,0.1290 l 0.6155,-0.3448 l 0.6155,0.4375 l 0.6155,0.0429 l 0.6155,-0.2696 l 0.6155,0.2811 l 0.6155,-0.1616 l 0.6155,0.3718 l 0.6155,-0.1529 l 0.6155,0.4421 l 0.6155,-0.3308 l 0.6155,0.3397 l 0.6155,-0.6825 l 0.6155,-0.8402 l 0.6155,0.1280 l 0.6155,0.1420 l 0.6155,0.7118 l 0.6155,0.1412 l 0.6155,0.0093 l 0.6155,-0.0208 l 0.6155,-0.7577 l 0.6155,0.2793 l 0.6155,0.0191 l 0.6155,-0.0325 l 0.6155,-0.5897 l 0.6155,-0.3468 l 0.6155,-0.5303 l 0.6155,-0.3919 l 0.6155,-0.4987 l 0.6155,0.1492 l 0.6155,-0.1323 l 0.6155,-0.6128 l 0.6155,0.1757 l 0.6155,0.0091 l 0.6155,-0.1096 l 0.6155,-0.0567 l 0.6155,0.3413 l 0.6155,-1.4464 l 0.6155,0.7100 l 0.6155,0.0019 l 0.6155,0.4204 l 0.6155,0.3783 l 0.6155,0.3071 l 0.6155,-0.0352 l 0.6155,-0.3074 l 0.6155,0.0140 l 0.6155,0.4285 l 0.6155,-0.8690 l 0.6155,0.2361 l 0.6155,0.2006 l 0.6155,0.2768 l 0.6155,1.4333 l 0.6155,-0.1611 l 0.6155,0.1655 l 0.6155,0.1409 l 0.6155,0.1598 l 0.6155,-0.7522 l 0.6155,-0.0705 l 0.6155,-0.2742 l 0.6155,0.3003 l 0.6155,0.2312 l 0.6155,-0.0132 l 0.6155,0.3869 l 0.6155,-0.1659 l 0.6155,0.1393 l 0.6155,-0.0287 l 0.6155,0.2060 l 0.6155,0.4629 l 0.6155,0.8005 l 0.6155,-0.9064 l 0.6155,0.3665 l 0.6155,0.2335 l 0.6155,-0.7894 l 0.6155,0.3818 l 0.6155,-1.1473 l 0.6155,-0.6222 l 0.6155,0.1051 l 0.6155,-0.0101 l 0.6155,0.2627 l 0.6155,-0.1413 l 0.6155,-0.0808 l 0.6155,0.1915 l 0.6155,-0.0142 l 0.6155,-0.4008 l 0.6155,0.0477 l 0.6155,0.1650 l 0.6155,-0.0739 l 0.6155,0.2905 l 0.6155,0.2136 l 0.6155,-0.4774 l 0.6155,0.1271 l 0.6155,2.0782 l 0.6155,-0.3644 l 0.6155,-0.7017 l 0.6155,-0.5223 l 0.6155,-0.1543 l 0.6155,-0.2255 l 0.6155,-0.4397 l 0.6155,0.0176 l 0.6155,0.1851 l 0.6155,0.1020 l 0.6155,-0.7829 l 0.6155,-0.3552 l 0.6155,0.1899 l 0.6155,0.3621 l 0.6155,-0.1201 l 0.6155,0.0240 l 0.6155,0.1452 "/>
  </g>
  <g stroke-linejoin="miter" stroke-opacity="1.0" fill-opacity="0.0" stroke="rgb(255,127,14)" stroke-width="1.30940833830909" fill="rgb(0,0,0)" stroke-linecap="butt" stroke-miterlimit="10.0">
    <path d="M 124.6810,105.6215 l 0.6155,-0.4758 l 0.6155,-2.6474 l 0.6155,1.5711 l 0.6155,-1.5928 l 0.6155,-0.0736 l 0.6155,2.1421 l 0.6155,0.9042 l 0.6155,0.1801 l 0.6155,5.8970 l 0.6155,-0.7220 l 0.6155,-1.8911 l 0.6155,0.1228 l 0.6155,1.1056 l 0.6155,-1.6497 l 0.6155,4.6819 l 0.6155,-0.6293 l 0.6155,-3.3870 l 0.6155,-3.0056 l 0.6155,-1.1624 l 0.6155,0.2801 l 0.6155,-2.1316 l 0.6155,-0.2100 l 0.6155,-0.1155 l 0.6155,1.2788 l 0.6155,0.7464 l 0.6155,1.6512 l 0.6155,3.0353 l 0.6155,1.6319 l 0.6155,-3.3861 l 0.6155,-1.9658 l 0.6155,0.0609 l 0.6155,0.6965 l 0.6155,0.8240 l 0.6155,0.6753 l 0.6155,-0.8131 l 0.6155,2.2049 l 0.6155,0.8278 l 0.6155,-3.4925 l 0.6155,2.7123 l 0.6155,-0.2306 l 0.6155,0.3867 l 0.6155,-1.0485 l 0.6155,-1.3955 l 0.6155,0.7811 l 0.6155,2.3372 l 0.6155,5.9160 l 0.6155,8.9082 l 0.6155,10.9860 l 0.6155,3.5271 l 0.6155,-10.8500 l 0.6155,-6.7947 l 0.6155,-0.2616 l 0.6155,2.2377 l 0.6155,8.1823 l 0.6155,-5.2038 l 0.6155,-0.4646 l 0.6155,4.1302 l 0.6155,-7.0248 l 0.6155,3.7576 l 0.6155,-1.6014 l 0.6155,-1.3680 l 0.6155,1.0151 l 0.6155,-3.6502 l 0.6155,-2.4859 l 0.6155,0.6425 l 0.6155,4.4303 l 0.6155,-1.3755 l 0.6155,3.3218 l 0.6155,0.4304 l 0.6155,0.7902 l 0.6155,-0.0197 l 0.6155,7.0361 l 0.6155,-0.5590 l 0.6155,-5.4341 l 0.6155,-0.7035 l 0.6155,-4.0790 l 0.6155,-5.1188 l 0.6155,0.9336 l 0.6155,-2.2804 l 0.6155,-2.4721 l 0.6155,-0.2217 l 0.6155,-0.3714 l 0.6155,1.8768 l 0.6155,1.2719 l 0.6155,-4.1208 l 0.6155,-1.2658 l 0.6155,-0.0679 l 0.6155,0.4005 l 0.6155,1.6178 l 0.6155,-4.5692 l 0.6155,-2.9980 l 0.6155,0.5921 l 0.6155,0.7637 l 0.6155,-3.2028 l 0.6155,0.2058 l 0.6155,1.4116 l 0.6155,-3.1962 l 0.6155,-0.6555 l 0.6155,1.0852 l 0.6155,0.4060 l 0.6155,0.1850 l 0.6155,2.8146 l 0.6155,-0.3582 l 0.6155,0.9559 l 0.6155,3.9459 l 0.6155,3.1276 l 0.6155,-4.1053 l 0.6155,0.3936 l 0.6155,-4.4108 l 0.6155,0.3739 l 0.6155,-0.9911 l 0.6155,0.4110 l 0.6155,-0.2719 l 0.6155,0.1039 l 0.6155,-0.0968 l 0.6155,1.3535 l 0.6155,-2.8809 l 0.6155,3.1384 l 0.6155,4.0524 l 0.6155,-5.6025 l 0.6155,2.0056 l 0.6155,1.8465 l 0.6155,2.1757 l 0.6155,-0.6141 l 0.6155,5.4329 l 0.6155,-1.3518 l 0.6155,-2.9459 l 0.6155,-3.9797 l 0.6155,4.2292 l 0.6155,4.9613 l 0.6155,-2.1910 l 0.6155,-2.4536 l 0.6155,-3.4137 l 0.6155,0.4726 l 0.6155,0.6284 l 0.6155,-2.9021 l 0.6155,2.0499 l 0.6155,2.6409 l 0.6155,4.2628 l 0.6155,-0.5964 l 0.6155,3.6128 l 0.6155,6.5563 l 0.6155,2.8743 l 0.6155,-0.4011 l 0.6155,-2.3091 l 0.6155,6.8473 l 0.6155,-4.7820 l 0.6155,5.8744 l 0.6155,-0.3647 l 0.6155,3.0360 l 0.6155,-1.6763 l 0.6155,-5.7762 l 0.6155,4.1851 l 0.6155,-4.0926 l 0.6155,2.8472 l 0.6155,-1.7227 l 0.6155,-6.9402 l 0.6155,0.0098 l 0.6155,5.1152 l 0.6155,-1.5399 l 0.6155,-0.5701 l 0.6155,5.0114 l 0.6155,3.7458 l 0.6155,-0.0470 l 0.6155,-0.1778 l 0.6155,3.1918 l 0.6155,-5.6012 l 0.6155,-4.7305 l 0.6155,-4.6734 l 0.6155,1.1821 l 0.6155,-0.1147 l 0.6155,-4.0860 l 0.6155,3.3830 l 0.6155,-1.3377 l 0.6155,-3.2183 l 0.6155,0.4491 l 0.6155,2.1804 l 0.6155,-6.6121 l 0.6155,-1.1573 l 0.6155,-0.9818 l 0.6155,-0.9189 l 0.6155,-0.2422 l 0.6155,3.1280 l 0.6155,-1.4191 l 0.6155,-0.0555 l 0.6155,-4.5053 l 0.6155,0.3818 l 0.6155,0.5374 l 0.6155,-1.5191 l 0.6155,-1.7771 l 0.6155,-1.1577 l 0.6155,-0.2036 l 0.6155,0.3131 l 0.6155,1.8376 l 0.6155,0.1536 l 0.6155,-0.1031 l 0.6155,-2.3769 l 0.6155,-1.1271 l 0.6155,0.6478 l 0.6155,-1.6666 l 0.6155,0.9817 l 0.6155,2.9013 l 0.6155,-2.8332 l 0.6155,3.4123 l 0.6155,-0.7197 l 0.6155,0.8144 l 0.6155,-2.6087 l 0.6155,-2.6860 l 0.6155,0.0534 l 0.6155,0.3727 l 0.6155,-1.7045 l 0.6155,-0.7370 l 0.6155,-0.0890 l 0.6155,1.5611 l 0.6155,0.0934 l 0.6155,0.6068 l 0.6155,-0.4174 l 0.6155,-0.3516 l 0.6155,2.6697 l 0.6155,1.4831 l 0.6155,-2.0838 l 0.6155,2.4945 l 0.6155,1.7070 l 0.6155,0.1106 l 0.6155,-0.8323 l 0.6155,-0.1563 l 0.6155,-3.3746 l 0.6155,2.7417 l 0.6155,0.1065 l 0.6155,2.4112 l 0.6155,-2.6592 l 0.6155,2.6738 l 0.6155,-0.0223 l 0.6155,1.0607 l 0.6155,-1.6343 l 0.6155,0.6172 l 0.6155,-3.7205 l 0.6155,-1.8491 l 0.6155,0.1480 l 0.6155,-1.0936 l 0.6155,0.3772 l 0.6155,-0.2179 l 0.6155,-0.6817 l 0.6155,0.9103 l 0.6155,-1.2544 l 0.6155,-0.2481 l 0.6155,-0.8025 l 0.6155,0.5935 l 0.6155,2.6594 l 0.6155,2.3374 l 0.6155,0.5601 l 0.6155,0.5661 l 0.6155,-0.8130 l 0.6155,0.9611 l 0.6155,-1.5504 l 0.6155,-0.6830 l 0.6155,0.5289 l 0.6155,-3.6013 l 0.6155,10.2104 l 0.6155,5.0468 l 0.6155,-4.9166 l 0.6155,-8.3901 l 0.6155,-0.4545 l 0.6155,1.9865 l 0.6155,-1.4071 l 0.6155,0.3231 l 0.6155,-4.1039 l 0.6155,-0.8203 l 0.6155,-1.8018 l 0.6155,0.1089 l 0.6155,-1.3043 l 0.6155,0.4149 l 0.6155,-0.5035 l 0.6155,0.5558 l 0.6155,-1.0240 l 0.6155,1.1637 l 0.6155,-1.1034 l 0.6155,0.9964 l 0.6155,0.0639 l 0.6155,0.4838 l 0.6155,-0.2958 l 0.6155,-0.2998 l 0.6155,0.5047 l 0.6155,1.9119 l 0.6155,-0.7351 l 0.6155,0.0781 l 0.6155,-2.2310 l 0.6155,0.4091 l 0.6155,0.0465 l 0.6155,0.9464 l 0.6155,-1.1608 l 0.6155,0.3759 l 0.6155,-0.6185 l 0.6155,1.6764 l 0.6155,-0.3743 l 0.6155,-0.4618 l 0.6155,0.5482 l 0.6155,0.3001 l 0.6155,-0.3973 l 0.6155,1.5972 l 0.6155,0.5069 l 0.6155,0.5610 l 0.6155,-1.3220 l 0.6155,0.6723 l 0.6155,0.7825 l 0.6155,0.1289 l 0.6155,-1.0422 l 0.6155,-0.6961 l 0.6155,0.1740 l 0.6155,0.7467 l 0.6155,6.9844 l 0.6155,-3.9714 l 0.6155,4.2227 l 0.6155,0.2144 l 0.6155,-2.7294 l 0.6155,1.1214 l 0.6155,0.0710 l 0.6155,-0.0174 l 0.6155,-2.9348 l 0.6155,-1.6954 l 0.6155,1.7013 l 0.6155,2.4778 l 0.6155,-1.7050 l 0.6155,-1.3727 l 0.6155,2.6883 l 0.6155,-2.1191 l 0.6155,0.9974 l 0.6155,1.4577 l 0.6155,-1.1143 l 0.6155,-0.0515 l 0.6155,0.9825 l 0.6155,-1.1975 l 0.6155,3.5449 l 0.6155,-0.2679 l 0.6155,0.9091 l 0.6155,-0.0133 l 0.6155,0.8832 l 0.6155,-1.6633 l 0.6155,-0.5547 l 0.6155,0.4362 l 0.6155,0.0747 l 0.6155,-1.2586 l 0.6155,1.1147 l 0.6155,0.5335 l 0.6155,0.8733 l 0.6155,0.8983 l 0.6155,0.0629 l 0.6155,1.9101 l 0.6155,1.8183 l 0.6155,1.2161 l 0.6155,0.4398 l 0.6155,-6.0987 l 0.6155,-1.0046 l 0.6155,-2.9982 l 0.6155,-0.4628 l 0.6155,0.4668 l 0.6155,0.1075 l 0.6155,-1.9848 l 0.6155,0.5319 l 0.6155,-1.2000 l 0.6155,0.7614 l 0.6155,-1.9605 l 0.6155,-0.4846 l 0.6155,-0.1053 l 0.6155,-0.9605 l 0.6155,1.5843 l 0.6155,-0.2560 l 0.6155,0.8494 l 0.6155,1.0799 l 0.6155,-0.0137 l 0.6155,-1.5077 l 0.6155,-0.8296 l 0.6155,-3.4939 l 0.6155,-0.4416 l 0.6155,-1.4773 l 0.6155,0.4881 l 0.6155,-1.6324 l 0.6155,2.4371 l 0.6155,-0.9102 l 0.6155,0.6539 l 0.6155,-0.3819 l 0.6155,-0.8362 l 0.6155,0.8553 l 0.6155,0.6821 l 0.6155,-0.1856 l 0.6155,-0.4586 l 0.6155,2.4852 l 0.6155,0.2227 l 0.6155,1.4237 l 0.6155,-2.2098 l 0.6155,-1.4293 l 0.6155,0.3746 l 0.6155,-0.8122 l 0.6155,1.1482 l 0.6155,0.1545 l 0.6155,-0.6278 l 0.6155,0.7525 l 0.6155,-0.3590 l 0.6155,0.9764 l 0.6155,-0.3414 l 0.6155,1.1480 l 0.6155,-0.7911 l 0.6155,0.8897 l 0.6155,-1.6715 l 0.6155,-2.0556 l 0.6155,0.3770 l 0.6155,0.4095 l 0.6155,1.8314 l 0.6155,0.3936 l 0.6155,0.0612 l 0.6155,-0.0145 l 0.6155,-1.8569 l 0.6155,0.7468 l 0.6155,0.0916 l 0.6155,-0.0382 l 0.6155,-1.4312 l 0.6155,-0.8155 l 0.6155,-1.2695 l 0.6155,-0.9162 l 0.6155,-1.1779 l 0.6155,0.4487 l 0.6155,-0.2581 l 0.6155,-1.4582 l 0.6155,0.5217 l 0.6155,0.1015 l 0.6155,-0.1961 l 0.6155,-0.0629 l 0.6155,0.9322 l 0.6155,-3.5431 l 0.6155,1.8689 l 0.6155,0.0871 l 0.6155,1.1324 l 0.6155,1.0202 l 0.6155,0.8357 l 0.6155,-0.0254 l 0.6155,-0.7059 l 0.6155,0.1016 l 0.6155,1.1371 l 0.6155,-2.1139 l 0.6155,0.6614 l 0.6155,0.5684 l 0.6155,0.7552 l 0.6155,3.6416 l 0.6155,-0.3664 l 0.6155,0.4521 l 0.6155,0.3878 l 0.6155,0.4325 l 0.6155,-1.8501 l 0.6155,-0.1350 l 0.6155,-0.6437 l 0.6155,0.7963 l 0.6155,0.6187 l 0.6155,0.0038 l 0.6155,1.0037 l 0.6155,-0.3843 l 0.6155,0.3808 l 0.6155,-0.0416 l 0.6155,0.5453 l 0.6155,1.1842 l 0.6155,2.0209 l 0.6155,-2.2585 l 0.6155,0.9373 l 0.6155,0.5991 l 0.6155,-1.9618 l 0.6155,0.9780 l 0.6155,-2.8507 l 0.6155,-1.5210 l 0.6155,0.3063 l 0.6155,0.0163 l 0.6155,0.6979 l 0.6155,-0.3164 l 0.6155,-0.1633 l 0.6155,0.5182 l 0.6155,0.0007 l 0.6155,-0.9660 l 0.6155,0.1608 l 0.6155,0.4529 l 0.6155,-0.1472 l 0.6155,0.7647 l 0.6155,0.5676 l 0.6155,-1.1635 l 0.6155,0.3546 l 0.6155,5.2302 l 0.6155,-0.9079 l 0.6155,-1.7456 l 0.6155,-1.2867 l 0.6155,-0.3590 l 0.6155,-0.5350 l 0.6155,-1.0674 l 0.6155,0.0821 l 0.6155,0.5002 l 0.6155,0.2892 l 0.6155,-1.9249 l 0.6155,-0.8441 l 0.6155,0.5236 l 0.6155,0.9506 l 0.6155,-0.2608 l 0.6155,0.1009 l 0.6155,0.4032 "/>
  </g>
  <g stroke-linejoin="miter" stroke-opacity="1.0" fill-opacity="0.0" stroke="rgb(31,119,180)" stroke-width="1.30940833830909" fill="rgb(0,0,0)" stroke-linecap="butt" stroke-miterlimit="10.0">
    <path d="M 124.6810,116.2777 l 0.6155,-2.9120 l 0.6155,-13.6478 l 0.6155,7.9947 l 0.6155,-8.1462 l 0.6155,-0.2224 l 0.6155,10.8633 l 0.6155,4.2380 l 0.6155,0.4509 l 0.6155,29.0218 l 0.6155,-5.2297 l 0.6155,-10.8496 l 0.6155,-0.3322 l 0.6155,4.6043 l 0.6155,-9.3471 l 0.6155,22.6961 l 0.6155,-4.7607 l 0.6155,-18.3426 l 0.6155,-15.6879 l 0.6155,-5.8379 l 0.6155,1.6084 l 0.6155,-10.5163 l 0.6155,-0.4894 l 0.6155,-0.0026 l 0.6155,6.9629 l 0.6155,4.0171 l 0.6155,8.3776 l 0.6155,14.9615 l 0.6155,7.3482 l 0.6155,-18.0276 l 0.6155,-10.1938 l 0.6155,0.3511 l 0.6155,3.5145 l 0.6155,4.0110 l 0.6155,3.1080 l 0.6155,-4.4553 l 0.6155,10.8166 l 0.6155,3.5005 l 0.6155,-18.2346 l 0.6155,13.5267 l 0.6155,-1.7285 l 0.6155,1.4327 l 0.6155,-5.7958 l 0.6155,-7.2931 l 0.6155,3.8847 l 0.6155,11.5101 l 0.6155,28.9455 l 0.6155,42.7549 l 0.6155,51.4515 l 0.6155,12.1339 l 0.6155,-60.1823 l 0.6155,-37.4392 l 0.6155,-3.2411 l 0.6155,9.4040 l 0.6155,38.7689 l 0.6155,-29.6910 l 0.6155,-4.7707 l 0.6155,18.4186 l 0.6155,-38.0705 l 0.6155,17.3934 l 0.6155,-10.0834 l 0.6155,-8.4919 l 0.6155,3.7794 l 0.6155,-19.6853 l 0.6155,-13.0617 l 0.6155,3.1090 l 0.6155,21.9246 l 0.6155,-7.9789 l 0.6155,15.8376 l 0.6155,0.7548 l 0.6155,2.5378 l 0.6155,-1.5994 l 0.6155,33.7586 l 0.6155,-5.5532 l 0.6155,-29.6787 l 0.6155,-4.8137 l 0.6155,-21.4856 l 0.6155,-25.8142 l 0.6155,5.4825 l 0.6155,-10.8150 l 0.6155,-11.3467 l 0.6155,0.3488 l 0.6155,-0.4282 l 0.6155,10.8161 l 0.6155,7.3445 l 0.6155,-19.9226 l 0.6155,-4.8576 l 0.6155,1.3115 l 0.6155,3.5843 l 0.6155,9.5120 l 0.6155,-21.8179 l 0.6155,-13.0997 l 0.6155,5.3562 l 0.6155,5.9760 l 0.6155,-14.1173 l 0.6155,3.4715 l 0.6155,9.3374 l 0.6155,-14.0980 l 0.6155,-0.8494 l 0.6155,7.8636 l 0.6155,4.1287 l 0.6155,2.8376 l 0.6155,15.8529 l 0.6155,-0.6626 l 0.6155,5.9228 l 0.6155,20.6244 l 0.6155,15.6993 l 0.6155,-21.0940 l 0.6155,2.2499 l 0.6155,-21.8648 l 0.6155,2.9315 l 0.6155,-4.0215 l 0.6155,3.1405 l 0.6155,-0.4108 l 0.6155,1.4754 l 0.6155,0.4034 l 0.6155,7.6297 l 0.6155,-13.8558 l 0.6155,16.7895 l 0.6155,20.6765 l 0.6155,-28.4288 l 0.6155,10.7527 l 0.6155,9.5201 l 0.6155,10.7821 l 0.6155,-3.5971 l 0.6155,26.7869 l 0.6155,-8.2042 l 0.6155,-15.8321 l 0.6155,-20.3568 l 0.6155,21.5068 l 0.6155,24.3035 l 0.6155,-12.4252 l 0.6155,-13.2266 l 0.6155,-17.4884 l 0.6155,2.6468 l 0.6155,3.3171 l 0.6155,-14.4697 l 0.6155,10.8687 l 0.6155,13.3828 l 0.6155,20.9553 l 0.6155,-4.1758 l 0.6155,17.0494 l 0.6155,31.0950 l 0.6155,11.4583 l 0.6155,-5.3483 l 0.6155,-14.6406 l 0.6155,31.7580 l 0.6155,-27.6340 l 0.6155,26.7902 l 0.6155,-5.4508 l 0.6155,11.8070 l 0.6155,-12.1932 l 0.6155,-32.1667 l 0.6155,18.9591 l 0.6155,-23.1681 l 0.6155,12.4848 l 0.6155,-10.8468 l 0.6155,-36.4781 l 0.6155,-0.2511 l 0.6155,25.2890 l 0.6155,-8.9950 l 0.6155,-3.7734 l 0.6155,24.2943 l 0.6155,17.0021 l 0.6155,-2.6248 l 0.6155,-3.1496 l 0.6155,13.8467 l 0.6155,-30.6507 l 0.6155,-25.0450 l 0.6155,-23.7435 l 0.6155,6.4874 l 0.6155,-0.2620 l 0.6155,-20.1109 l 0.6155,18.0349 l 0.6155,-6.3012 l 0.6155,-15.4558 l 0.6155,3.4929 l 0.6155,11.9974 l 0.6155,-32.4560 l 0.6155,-3.8898 l 0.6155,-2.8756 l 0.6155,-2.4663 l 0.6155,0.9945 l 0.6155,17.7835 l 0.6155,-5.6847 l 0.6155,1.3468 l 0.6155,-20.9726 l 0.6155,4.2865 l 0.6155,4.8691 l 0.6155,-5.6300 l 0.6155,-6.7146 l 0.6155,-3.3704 l 0.6155,1.5103 l 0.6155,4.0084 l 0.6155,11.4462 l 0.6155,2.5454 l 0.6155,1.1427 l 0.6155,-10.2885 l 0.6155,-3.6440 l 0.6155,5.3561 l 0.6155,-6.4514 l 0.6155,7.0296 l 0.6155,16.3251 l 0.6155,-13.0187 l 0.6155,18.7181 l 0.6155,-2.7071 l 0.6155,5.0630 l 0.6155,-12.2650 l 0.6155,-12.1689 l 0.6155,2.0023 l 0.6155,3.5016 l 0.6155,-7.0412 l 0.6155,-1.9367 l 0.6155,1.3632 l 0.6155,9.5412 l 0.6155,1.8036 l 0.6155,4.2852 l 0.6155,-1.0196 l 0.6155,-0.6605 l 0.6155,14.4611 l 0.6155,7.9388 l 0.6155,-10.2186 l 0.6155,13.0796 l 0.6155,8.6127 l 0.6155,0.2858 l 0.6155,-4.4377 l 0.6155,-0.8774 l 0.6155,-16.9328 l 0.6155,14.3268 l 0.6155,0.5715 l 0.6155,12.0718 l 0.6155,-13.7634 l 0.6155,13.4570 l 0.6155,-0.5629 l 0.6155,4.8791 l 0.6155,-8.7866 l 0.6155,2.8282 l 0.6155,-18.9706 l 0.6155,-8.8513 l 0.6155,1.4845 l 0.6155,-4.7903 l 0.6155,2.7485 l 0.6155,-0.3456 l 0.6155,-2.6580 l 0.6155,5.4004 l 0.6155,-5.6475 l 0.6155,-0.3962 l 0.6155,-3.1608 l 0.6155,3.9371 l 0.6155,14.0995 l 0.6155,11.9173 l 0.6155,2.5517 l 0.6155,2.4820 l 0.6155,-4.5090 l 0.6155,4.5464 l 0.6155,-8.1903 l 0.6155,-3.5215 l 0.6155,2.6799 l 0.6155,-18.0784 l 0.6155,51.7040 l 0.6155,23.8110 l 0.6155,-26.9441 l 0.6155,-43.2101 l 0.6155,-1.7913 l 0.6155,10.4803 l 0.6155,-6.9119 l 0.6155,2.0140 l 0.6155,-20.2054 l 0.6155,-2.9822 l 0.6155,-7.7818 l 0.6155,2.0709 l 0.6155,-5.0932 l 0.6155,3.6922 l 0.6155,-1.0637 l 0.6155,4.2610 l 0.6155,-3.8233 l 0.6155,7.2548 l 0.6155,-4.3850 l 0.6155,6.2782 l 0.6155,1.3516 l 0.6155,3.3867 l 0.6155,-0.6567 l 0.6155,-0.6585 l 0.6155,3.3817 l 0.6155,10.2742 l 0.6155,-3.3793 l 0.6155,0.8189 l 0.6155,-10.7636 l 0.6155,2.8636 l 0.6155,0.9282 l 0.6155,5.3835 l 0.6155,-5.3746 l 0.6155,2.5199 l 0.6155,-2.5594 l 0.6155,9.0121 l 0.6155,-1.6080 l 0.6155,-1.9840 l 0.6155,3.1419 l 0.6155,1.7721 l 0.6155,-1.7888 l 0.6155,8.2531 l 0.6155,2.4692 l 0.6155,2.6412 l 0.6155,-6.8777 l 0.6155,3.3719 l 0.6155,3.7878 l 0.6155,0.3693 l 0.6155,-5.4980 l 0.6155,-3.5446 l 0.6155,0.9481 l 0.6155,3.7730 l 0.6155,34.8102 l 0.6155,-21.3603 l 0.6155,20.4799 l 0.6155,-0.3746 l 0.6155,-15.0642 l 0.6155,4.8066 l 0.6155,-0.6294 l 0.6155,-1.0369 l 0.6155,-15.5725 l 0.6155,-8.7438 l 0.6155,8.5924 l 0.6155,12.1300 l 0.6155,-9.2664 l 0.6155,-7.2269 l 0.6155,13.3708 l 0.6155,-11.2004 l 0.6155,4.8362 l 0.6155,6.9455 l 0.6155,-6.1884 l 0.6155,-0.6208 l 0.6155,4.5775 l 0.6155,-6.5021 l 0.6155,17.4748 l 0.6155,-2.2853 l 0.6155,3.7006 l 0.6155,-1.0514 l 0.6155,3.4832 l 0.6155,-9.3792 l 0.6155,-3.4505 l 0.6155,1.6489 l 0.6155,-0.2192 l 0.6155,-6.8710 l 0.6155,5.2758 l 0.6155,2.1618 l 0.6155,3.7797 l 0.6155,3.7591 l 0.6155,-0.5608 l 0.6155,8.7066 l 0.6155,7.9077 l 0.6155,4.5922 l 0.6155,0.5417 l 0.6155,-32.1556 l 0.6155,-5.3827 l 0.6155,-15.1314 l 0.6155,-1.8480 l 0.6155,2.8694 l 0.6155,0.9529 l 0.6155,-9.5509 l 0.6155,3.4109 l 0.6155,-5.3929 l 0.6155,4.6237 l 0.6155,-9.1788 l 0.6155,-1.4383 l 0.6155,0.5061 l 0.6155,-3.8006 l 0.6155,9.0652 l 0.6155,-0.5101 l 0.6155,5.0296 l 0.6155,5.9729 l 0.6155,0.2605 l 0.6155,-7.2232 l 0.6155,-3.5473 l 0.6155,-16.7325 l 0.6155,-0.8090 l 0.6155,-5.9693 l 0.6155,4.0822 l 0.6155,-6.6998 l 0.6155,13.9007 l 0.6155,-3.4087 l 0.6155,4.5368 l 0.6155,-0.8367 l 0.6155,-3.0851 l 0.6155,5.4845 l 0.6155,4.3873 l 0.6155,-0.1364 l 0.6155,-1.5041 l 0.6155,13.2672 l 0.6155,1.4157 l 0.6155,7.3608 l 0.6155,-11.1034 l 0.6155,-6.7562 l 0.6155,2.5297 l 0.6155,-3.5122 l 0.6155,6.4250 l 0.6155,1.1925 l 0.6155,-2.7709 l 0.6155,4.2377 l 0.6155,-1.4937 l 0.6155,5.2400 l 0.6155,-1.5623 l 0.6155,5.9457 l 0.6155,-3.9897 l 0.6155,4.5740 l 0.6155,-8.4158 l 0.6155,-9.9995 l 0.6155,2.5609 l 0.6155,2.6141 l 0.6155,9.6133 l 0.6155,2.0352 l 0.6155,0.2913 l 0.6155,-0.0988 l 0.6155,-9.3065 l 0.6155,4.0847 l 0.6155,0.6415 l 0.6155,-0.0347 l 0.6155,-7.0000 l 0.6155,-3.6433 l 0.6155,-5.7717 l 0.6155,-3.7799 l 0.6155,-4.9456 l 0.6155,3.3759 l 0.6155,-0.3043 l 0.6155,-6.3025 l 0.6155,3.8390 l 0.6155,1.5724 l 0.6155,0.0109 l 0.6155,0.6663 l 0.6155,5.6054 l 0.6155,-17.0046 l 0.6155,10.7281 l 0.6155,1.3763 l 0.6155,6.5385 l 0.6155,5.7073 l 0.6155,4.5505 l 0.6155,0.0590 l 0.6155,-3.3478 l 0.6155,0.8216 l 0.6155,5.9631 l 0.6155,-10.5331 l 0.6155,3.7647 l 0.6155,3.1442 l 0.6155,3.9496 l 0.6155,18.2219 l 0.6155,-2.5470 l 0.6155,1.6544 l 0.6155,1.2726 l 0.6155,1.4518 l 0.6155,-10.0122 l 0.6155,-1.0281 l 0.6155,-3.5271 l 0.6155,3.8172 l 0.6155,2.7779 l 0.6155,-0.4043 l 0.6155,4.6156 l 0.6155,-2.5052 l 0.6155,1.4264 l 0.6155,-0.7379 l 0.6155,2.2311 l 0.6155,5.3415 l 0.6155,9.3171 l 0.6155,-12.4444 l 0.6155,4.0435 l 0.6155,2.1976 l 0.6155,-10.6870 l 0.6155,4.4482 l 0.6155,-14.8690 l 0.6155,-7.6192 l 0.6155,1.8220 l 0.6155,0.2960 l 0.6155,3.6905 l 0.6155,-1.5308 l 0.6155,-0.7048 l 0.6155,2.7297 l 0.6155,0.0317 l 0.6155,-4.8031 l 0.6155,1.0225 l 0.6155,2.4402 l 0.6155,-0.6600 l 0.6155,3.9253 l 0.6155,2.7819 l 0.6155,-5.9845 l 0.6155,1.8473 l 0.6155,26.1506 l 0.6155,-5.5860 l 0.6155,-9.5407 l 0.6155,-6.8562 l 0.6155,-1.9395 l 0.6155,-2.7404 l 0.6155,-5.2919 l 0.6155,0.6668 l 0.6155,2.7277 l 0.6155,1.5617 l 0.6155,-9.5724 l 0.6155,-3.7863 l 0.6155,3.1992 l 0.6155,5.2007 l 0.6155,-1.0690 l 0.6155,0.7803 l 0.6155,2.2575 "/>
  </g>
  <g stroke-linejoin="miter" stroke-opacity="1.0" fill-opacity="0.0" stroke="rgb(102,102,102)" stroke-width="0.43646944610302996" fill="rgb(0,0,0)" stroke-linecap="butt" stroke-miterlimit="10.0">
    <path d="M 124.6810,112.6824 h 307.1485 "/>
  </g>
  <g stroke-linejoin="miter" stroke-opacity="0.0" fill-opacity="0.0" stroke="rgb(0,0,0)" fill-rule="evenodd" stroke-width="0.0" fill="rgb(0,0,0)" stroke-linecap="butt" stroke-miterlimit="10.0">
    <path d="M 49.8924,86.1356 l -24.5965,0.0000 l -0.0000,172.1752 l 24.5965,0.0000 Z"/>
  </g>
  <g stroke-linejoin="miter" stroke-opacity="1.0" fill-opacity="1.0" font-size="22.360410021622705px" stroke="rgb(0,0,0)" fill-rule="evenodd" stroke-width="0.0" fill="rgb(31,119,180)" stroke-linecap="butt" stroke-miterlimit="10.0">
    <text dominant-baseline="middle" transform="matrix(0.0000,-1.0000,1.0000,0.0000,37.5942,258.3107)" stroke="none" text-anchor="start">moving average
    </text>
  </g>
  <g stroke-linejoin="miter" stroke-opacity="0.0" fill-opacity="0.0" stroke="rgb(0,0,0)" fill-rule="evenodd" stroke-width="0.0" fill="rgb(0,0,0)" stroke-linecap="butt" stroke-miterlimit="10.0">
    <path d="M 566.2277,254.8418 l -0.0000,-12.2982 h -30.7456 l -0.0000,12.2982 Z"/>
  </g>
  <g stroke-linejoin="miter" stroke-opacity="1.0" fill-opacity="0.63" font-size="11.180205010811353px" stroke="rgb(0,0,0)" fill-rule="evenodd" stroke-width="0.0" fill="rgb(0,0,0)" stroke-linecap="butt" stroke-miterlimit="10.0">
    <text dominant-baseline="middle" transform="matrix(1.0000,-0.0000,0.0000,1.0000,550.8549,248.6927)" stroke="none" text-anchor="middle">0.996
    </text>
  </g>
  <g stroke-linejoin="miter" stroke-opacity="1.0" fill-opacity="0.0" stroke="rgb(44,160,44)" stroke-width="1.30940833830909" fill="rgb(0,0,0)" stroke-linecap="butt" stroke-miterlimit="10.0">
    <path d="M 510.9103,247.5747 h 20.4766 "/>
  </g>
  <g stroke-linejoin="miter" stroke-opacity="0.0" fill-opacity="0.0" stroke="rgb(0,0,0)" fill-rule="evenodd" stroke-width="0.0" fill="rgb(0,0,0)" stroke-linecap="butt" stroke-miterlimit="10.0">
    <path d="M 560.0786,236.4006 l -0.0000,-12.2982 h -24.5965 l -0.0000,12.2982 Z"/>
  </g>
  <g stroke-linejoin="miter" stroke-opacity="1.0" fill-opacity="0.63" font-size="11.180205010811353px" stroke="rgb(0,0,0)" fill-rule="evenodd" stroke-width="0.0" fill="rgb(0,0,0)" stroke-linecap="butt" stroke-miterlimit="10.0">
    <text dominant-baseline="middle" transform="matrix(1.0000,-0.0000,0.0000,1.0000,547.7804,230.2515)" stroke="none" text-anchor="middle">0.99
    </text>
  </g>
  <g stroke-linejoin="miter" stroke-opacity="1.0" fill-opacity="0.0" stroke="rgb(255,127,14)" stroke-width="1.30940833830909" fill="rgb(0,0,0)" stroke-linecap="butt" stroke-miterlimit="10.0">
    <path d="M 510.9103,229.1335 h 20.4766 "/>
  </g>
  <g stroke-linejoin="miter" stroke-opacity="0.0" fill-opacity="0.0" stroke="rgb(0,0,0)" fill-rule="evenodd" stroke-width="0.0" fill="rgb(0,0,0)" stroke-linecap="butt" stroke-miterlimit="10.0">
    <path d="M 560.0786,217.9594 l -0.0000,-12.2982 h -24.5965 l -0.0000,12.2982 Z"/>
  </g>
  <g stroke-linejoin="miter" stroke-opacity="1.0" fill-opacity="0.63" font-size="11.180205010811353px" stroke="rgb(0,0,0)" fill-rule="evenodd" stroke-width="0.0" fill="rgb(0,0,0)" stroke-linecap="butt" stroke-miterlimit="10.0">
    <text dominant-baseline="middle" transform="matrix(1.0000,-0.0000,0.0000,1.0000,547.7804,211.8103)" stroke="none" text-anchor="middle">0.95
    </text>
  </g>
  <g stroke-linejoin="miter" stroke-opacity="1.0" fill-opacity="0.0" stroke="rgb(31,119,180)" stroke-width="1.30940833830909" fill="rgb(0,0,0)" stroke-linecap="butt" stroke-miterlimit="10.0">
    <path d="M 510.9103,210.6923 h 20.4766 "/>
  </g>
  <g stroke-linejoin="miter" stroke-opacity="0.0" fill-opacity="0.0" stroke="rgb(0,0,0)" fill-rule="evenodd" stroke-width="0.0" fill="rgb(0,0,0)" stroke-linecap="butt" stroke-miterlimit="10.0">
    <path d="M 546.0481,199.5182 l -0.0000,-14.0551 h -70.2756 l -0.0000,14.0551 Z"/>
  </g>
  <g stroke-linejoin="miter" stroke-opacity="1.0" fill-opacity="0.33" font-size="12.777377155212973px" stroke="rgb(0,0,0)" fill-rule="evenodd" stroke-width="0.0" fill="rgb(0,0,0)" stroke-linecap="butt" stroke-miterlimit="10.0">
    <text dominant-baseline="middle" transform="matrix(1.0000,-0.0000,0.0000,1.0000,510.9103,192.4907)" stroke="none" text-anchor="middle">decay rate
    </text>
  </g>
  <g stroke-linejoin="miter" stroke-opacity="0.2" fill-opacity="0.0" stroke="rgb(0,0,0)" stroke-width="0.8729388922060599" fill="rgb(0,0,0)" stroke-linecap="butt" stroke-miterlimit="10.0">
    <path d="M 570.7505,258.3107 l -0.0000,-76.3166 h -99.5008 l -0.0000,76.3166 Z"/>
  </g>
  <g stroke-linejoin="miter" stroke-opacity="0.0" fill-opacity="0.1" stroke="rgb(0,0,0)" stroke-width="0.0" fill="rgb(0,0,0)" stroke-linecap="butt" stroke-miterlimit="10.0">
    <path d="M 116.4904,258.3107 l -0.0000,-204.7657 h -4.0953 l -0.0000,204.7657 Z"/>
  </g>
  <g stroke-linejoin="miter" stroke-opacity="0.0" fill-opacity="0.0" stroke="rgb(0,0,0)" fill-rule="evenodd" stroke-width="0.0" fill="rgb(0,0,0)" stroke-linecap="butt" stroke-miterlimit="10.0">
    <path d="M 107.2759,65.7262 l -0.0000,-14.0551 h -42.1653 l -0.0000,14.0551 Z"/>
  </g>
  <g stroke-linejoin="miter" stroke-opacity="1.0" fill-opacity="0.6" font-size="12.777377155212973px" stroke="rgb(0,0,0)" fill-rule="evenodd" stroke-width="0.0" fill="rgb(0,0,0)" stroke-linecap="butt" stroke-miterlimit="10.0">
    <text dominant-baseline="middle" transform="matrix(1.0000,-0.0000,0.0000,1.0000,86.1932,58.6986)" stroke="none" text-anchor="middle">2.0e-3
    </text>
  </g>
  <g stroke-linejoin="miter" stroke-opacity="0.6" fill-opacity="0.0" stroke="rgb(0,0,0)" stroke-width="2.1823472305151497" fill="rgb(0,0,0)" stroke-linecap="butt" stroke-miterlimit="10.0">
    <path d="M 110.3474,57.4209 h 6.1430 "/>
  </g>
  <g stroke-linejoin="miter" stroke-opacity="0.0" fill-opacity="0.0" stroke="rgb(0,0,0)" fill-rule="evenodd" stroke-width="0.0" fill="rgb(0,0,0)" stroke-linecap="butt" stroke-miterlimit="10.0">
    <path d="M 107.2759,93.3569 l -0.0000,-14.0551 h -42.1653 l -0.0000,14.0551 Z"/>
  </g>
  <g stroke-linejoin="miter" stroke-opacity="1.0" fill-opacity="0.6" font-size="12.777377155212973px" stroke="rgb(0,0,0)" fill-rule="evenodd" stroke-width="0.0" fill="rgb(0,0,0)" stroke-linecap="butt" stroke-miterlimit="10.0">
    <text dominant-baseline="middle" transform="matrix(1.0000,-0.0000,0.0000,1.0000,86.1932,86.3294)" stroke="none" text-anchor="middle">1.0e-3
    </text>
  </g>
  <g stroke-linejoin="miter" stroke-opacity="0.6" fill-opacity="0.0" stroke="rgb(0,0,0)" stroke-width="2.1823472305151497" fill="rgb(0,0,0)" stroke-linecap="butt" stroke-miterlimit="10.0">
    <path d="M 110.3474,85.0516 h 6.1430 "/>
  </g>
  <g stroke-linejoin="miter" stroke-opacity="0.0" fill-opacity="0.0" stroke="rgb(0,0,0)" fill-rule="evenodd" stroke-width="0.0" fill="rgb(0,0,0)" stroke-linecap="butt" stroke-miterlimit="10.0">
    <path d="M 107.2759,120.9877 l -0.0000,-14.0551 h -35.1378 l -0.0000,14.0551 Z"/>
  </g>
  <g stroke-linejoin="miter" stroke-opacity="1.0" fill-opacity="0.6" font-size="12.777377155212973px" stroke="rgb(0,0,0)" fill-rule="evenodd" stroke-width="0.0" fill="rgb(0,0,0)" stroke-linecap="butt" stroke-miterlimit="10.0">
    <text dominant-baseline="middle" transform="matrix(1.0000,-0.0000,0.0000,1.0000,89.7070,113.9601)" stroke="none" text-anchor="middle">0.0e0
    </text>
  </g>
  <g stroke-linejoin="miter" stroke-opacity="0.6" fill-opacity="0.0" stroke="rgb(0,0,0)" stroke-width="2.1823472305151497" fill="rgb(0,0,0)" stroke-linecap="butt" stroke-miterlimit="10.0">
    <path d="M 110.3474,112.6824 h 6.1430 "/>
  </g>
  <g stroke-linejoin="miter" stroke-opacity="0.0" fill-opacity="0.0" stroke="rgb(0,0,0)" fill-rule="evenodd" stroke-width="0.0" fill="rgb(0,0,0)" stroke-linecap="butt" stroke-miterlimit="10.0">
    <path d="M 107.2759,148.6184 l -0.0000,-14.0551 h -49.1929 l -0.0000,14.0551 Z"/>
  </g>
  <g stroke-linejoin="miter" stroke-opacity="1.0" fill-opacity="0.6" font-size="12.777377155212973px" stroke="rgb(0,0,0)" fill-rule="evenodd" stroke-width="0.0" fill="rgb(0,0,0)" stroke-linecap="butt" stroke-miterlimit="10.0">
    <text dominant-baseline="middle" transform="matrix(1.0000,-0.0000,0.0000,1.0000,82.6795,141.5909)" stroke="none" text-anchor="middle">-1.0e-3
    </text>
  </g>
  <g stroke-linejoin="miter" stroke-opacity="0.6" fill-opacity="0.0" stroke="rgb(0,0,0)" stroke-width="2.1823472305151497" fill="rgb(0,0,0)" stroke-linecap="butt" stroke-miterlimit="10.0">
    <path d="M 110.3474,140.3131 h 6.1430 "/>
  </g>
  <g stroke-linejoin="miter" stroke-opacity="0.0" fill-opacity="0.0" stroke="rgb(0,0,0)" fill-rule="evenodd" stroke-width="0.0" fill="rgb(0,0,0)" stroke-linecap="butt" stroke-miterlimit="10.0">
    <path d="M 107.2759,176.2492 l -0.0000,-14.0551 h -49.1929 l -0.0000,14.0551 Z"/>
  </g>
  <g stroke-linejoin="miter" stroke-opacity="1.0" fill-opacity="0.6" font-size="12.777377155212973px" stroke="rgb(0,0,0)" fill-rule="evenodd" stroke-width="0.0" fill="rgb(0,0,0)" stroke-linecap="butt" stroke-miterlimit="10.0">
    <text dominant-baseline="middle" transform="matrix(1.0000,-0.0000,0.0000,1.0000,82.6795,169.2216)" stroke="none" text-anchor="middle">-2.0e-3
    </text>
  </g>
  <g stroke-linejoin="miter" stroke-opacity="0.6" fill-opacity="0.0" stroke="rgb(0,0,0)" stroke-width="2.1823472305151497" fill="rgb(0,0,0)" stroke-linecap="butt" stroke-miterlimit="10.0">
    <path d="M 110.3474,167.9439 h 6.1430 "/>
  </g>
  <g stroke-linejoin="miter" stroke-opacity="0.0" fill-opacity="0.0" stroke="rgb(0,0,0)" fill-rule="evenodd" stroke-width="0.0" fill="rgb(0,0,0)" stroke-linecap="butt" stroke-miterlimit="10.0">
    <path d="M 107.2759,203.8800 l -0.0000,-14.0551 h -49.1929 l -0.0000,14.0551 Z"/>
  </g>
  <g stroke-linejoin="miter" stroke-opacity="1.0" fill-opacity="0.6" font-size="12.777377155212973px" stroke="rgb(0,0,0)" fill-rule="evenodd" stroke-width="0.0" fill="rgb(0,0,0)" stroke-linecap="butt" stroke-miterlimit="10.0">
    <text dominant-baseline="middle" transform="matrix(1.0000,-0.0000,0.0000,1.0000,82.6795,196.8524)" stroke="none" text-anchor="middle">-3.0e-3
    </text>
  </g>
  <g stroke-linejoin="miter" stroke-opacity="0.6" fill-opacity="0.0" stroke="rgb(0,0,0)" stroke-width="2.1823472305151497" fill="rgb(0,0,0)" stroke-linecap="butt" stroke-miterlimit="10.0">
    <path d="M 110.3474,195.5747 h 6.1430 "/>
  </g>
  <g stroke-linejoin="miter" stroke-opacity="0.0" fill-opacity="0.0" stroke="rgb(0,0,0)" fill-rule="evenodd" stroke-width="0.0" fill="rgb(0,0,0)" stroke-linecap="butt" stroke-miterlimit="10.0">
    <path d="M 107.2759,231.5107 l -0.0000,-14.0551 h -49.1929 l -0.0000,14.0551 Z"/>
  </g>
  <g stroke-linejoin="miter" stroke-opacity="1.0" fill-opacity="0.6" font-size="12.777377155212973px" stroke="rgb(0,0,0)" fill-rule="evenodd" stroke-width="0.0" fill="rgb(0,0,0)" stroke-linecap="butt" stroke-miterlimit="10.0">
    <text dominant-baseline="middle" transform="matrix(1.0000,-0.0000,0.0000,1.0000,82.6795,224.4832)" stroke="none" text-anchor="middle">-4.0e-3
    </text>
  </g>
  <g stroke-linejoin="miter" stroke-opacity="0.6" fill-opacity="0.0" stroke="rgb(0,0,0)" stroke-width="2.1823472305151497" fill="rgb(0,0,0)" stroke-linecap="butt" stroke-miterlimit="10.0">
    <path d="M 110.3474,223.2054 h 6.1430 "/>
  </g>
  <g stroke-linejoin="miter" stroke-opacity="0.0" fill-opacity="0.0" stroke="rgb(0,0,0)" fill-rule="evenodd" stroke-width="0.0" fill="rgb(0,0,0)" stroke-linecap="butt" stroke-miterlimit="10.0">
    <path d="M 107.2759,259.1415 l -0.0000,-14.0551 h -49.1929 l -0.0000,14.0551 Z"/>
  </g>
  <g stroke-linejoin="miter" stroke-opacity="1.0" fill-opacity="0.6" font-size="12.777377155212973px" stroke="rgb(0,0,0)" fill-rule="evenodd" stroke-width="0.0" fill="rgb(0,0,0)" stroke-linecap="butt" stroke-miterlimit="10.0">
    <text dominant-baseline="middle" transform="matrix(1.0000,-0.0000,0.0000,1.0000,82.6795,252.1139)" stroke="none" text-anchor="middle">-5.0e-3
    </text>
  </g>
  <g stroke-linejoin="miter" stroke-opacity="0.6" fill-opacity="0.0" stroke="rgb(0,0,0)" stroke-width="2.1823472305151497" fill="rgb(0,0,0)" stroke-linecap="butt" stroke-miterlimit="10.0">
    <path d="M 110.3474,250.8362 h 6.1430 "/>
  </g>
  <g stroke-linejoin="miter" stroke-opacity="0.0" fill-opacity="0.1" stroke="rgb(0,0,0)" stroke-width="0.0" fill="rgb(0,0,0)" stroke-linecap="butt" stroke-miterlimit="10.0">
    <path d="M 431.8295,270.5967 l -0.0000,-4.0953 h -307.1485 l -0.0000,4.0953 Z"/>
  </g>
  <g stroke-linejoin="miter" stroke-opacity="0.0" fill-opacity="0.0" stroke="rgb(0,0,0)" fill-rule="evenodd" stroke-width="0.0" fill="rgb(0,0,0)" stroke-linecap="butt" stroke-miterlimit="10.0">
    <path d="M 451.0730,340.3159 l 9.9385,-9.9385 l -54.6616,-54.6616 l -9.9385,9.9385 Z"/>
  </g>
  <g stroke-linejoin="miter" stroke-opacity="1.0" fill-opacity="0.6" font-size="12.777377155212973px" stroke="rgb(0,0,0)" fill-rule="evenodd" stroke-width="0.0" fill="rgb(0,0,0)" stroke-linecap="butt" stroke-miterlimit="10.0">
    <text dominant-baseline="middle" transform="matrix(0.7071,0.7071,-0.7071,0.7071,401.3806,280.6851)" stroke="none" text-anchor="start">31 Mar 2017
    </text>
  </g>
  <g stroke-linejoin="miter" stroke-opacity="0.6" fill-opacity="0.0" stroke="rgb(0,0,0)" stroke-width="2.1823472305151497" fill="rgb(0,0,0)" stroke-linecap="butt" stroke-miterlimit="10.0">
    <path d="M 402.2841,266.5014 v 6.1430 "/>
  </g>
  <g stroke-linejoin="miter" stroke-opacity="0.0" fill-opacity="0.0" stroke="rgb(0,0,0)" fill-rule="evenodd" stroke-width="0.0" fill="rgb(0,0,0)" stroke-linecap="butt" stroke-miterlimit="10.0">
    <path d="M 412.9102,340.3159 l 9.9385,-9.9385 l -54.6616,-54.6616 l -9.9385,9.9385 Z"/>
  </g>
  <g stroke-linejoin="miter" stroke-opacity="1.0" fill-opacity="0.6" font-size="12.777377155212973px" stroke="rgb(0,0,0)" fill-rule="evenodd" stroke-width="0.0" fill="rgb(0,0,0)" stroke-linecap="butt" stroke-miterlimit="10.0">
    <text dominant-baseline="middle" transform="matrix(0.7071,0.7071,-0.7071,0.7071,363.2179,280.6851)" stroke="none" text-anchor="start">31 Dec 2016
    </text>
  </g>
  <g stroke-linejoin="miter" stroke-opacity="0.6" fill-opacity="0.0" stroke="rgb(0,0,0)" stroke-width="2.1823472305151497" fill="rgb(0,0,0)" stroke-linecap="butt" stroke-miterlimit="10.0">
    <path d="M 364.1214,266.5014 v 6.1430 "/>
  </g>
  <g stroke-linejoin="miter" stroke-opacity="0.0" fill-opacity="0.0" stroke="rgb(0,0,0)" fill-rule="evenodd" stroke-width="0.0" fill="rgb(0,0,0)" stroke-linecap="butt" stroke-miterlimit="10.0">
    <path d="M 374.1320,340.3159 l 9.9385,-9.9385 l -54.6616,-54.6616 l -9.9385,9.9385 Z"/>
  </g>
  <g stroke-linejoin="miter" stroke-opacity="1.0" fill-opacity="0.6" font-size="12.777377155212973px" stroke="rgb(0,0,0)" fill-rule="evenodd" stroke-width="0.0" fill="rgb(0,0,0)" stroke-linecap="butt" stroke-miterlimit="10.0">
    <text dominant-baseline="middle" transform="matrix(0.7071,0.7071,-0.7071,0.7071,324.4396,280.6851)" stroke="none" text-anchor="start">30 Sep 2016
    </text>
  </g>
  <g stroke-linejoin="miter" stroke-opacity="0.6" fill-opacity="0.0" stroke="rgb(0,0,0)" stroke-width="2.1823472305151497" fill="rgb(0,0,0)" stroke-linecap="butt" stroke-miterlimit="10.0">
    <path d="M 325.3431,266.5014 v 6.1430 "/>
  </g>
  <g stroke-linejoin="miter" stroke-opacity="0.0" fill-opacity="0.0" stroke="rgb(0,0,0)" fill-rule="evenodd" stroke-width="0.0" fill="rgb(0,0,0)" stroke-linecap="butt" stroke-miterlimit="10.0">
    <path d="M 334.7382,340.3159 l 9.9385,-9.9385 l -54.6616,-54.6616 l -9.9385,9.9385 Z"/>
  </g>
  <g stroke-linejoin="miter" stroke-opacity="1.0" fill-opacity="0.6" font-size="12.777377155212973px" stroke="rgb(0,0,0)" fill-rule="evenodd" stroke-width="0.0" fill="rgb(0,0,0)" stroke-linecap="butt" stroke-miterlimit="10.0">
    <text dominant-baseline="middle" transform="matrix(0.7071,0.7071,-0.7071,0.7071,285.0458,280.6851)" stroke="none" text-anchor="start">30 Jun 2016
    </text>
  </g>
  <g stroke-linejoin="miter" stroke-opacity="0.6" fill-opacity="0.0" stroke="rgb(0,0,0)" stroke-width="2.1823472305151497" fill="rgb(0,0,0)" stroke-linecap="butt" stroke-miterlimit="10.0">
    <path d="M 285.9493,266.5014 v 6.1430 "/>
  </g>
  <g stroke-linejoin="miter" stroke-opacity="0.0" fill-opacity="0.0" stroke="rgb(0,0,0)" fill-rule="evenodd" stroke-width="0.0" fill="rgb(0,0,0)" stroke-linecap="butt" stroke-miterlimit="10.0">
    <path d="M 295.9599,340.3159 l 9.9385,-9.9385 l -54.6616,-54.6616 l -9.9385,9.9385 Z"/>
  </g>
  <g stroke-linejoin="miter" stroke-opacity="1.0" fill-opacity="0.6" font-size="12.777377155212973px" stroke="rgb(0,0,0)" fill-rule="evenodd" stroke-width="0.0" fill="rgb(0,0,0)" stroke-linecap="butt" stroke-miterlimit="10.0">
    <text dominant-baseline="middle" transform="matrix(0.7071,0.7071,-0.7071,0.7071,246.2676,280.6851)" stroke="none" text-anchor="start">31 Mar 2016
    </text>
  </g>
  <g stroke-linejoin="miter" stroke-opacity="0.6" fill-opacity="0.0" stroke="rgb(0,0,0)" stroke-width="2.1823472305151497" fill="rgb(0,0,0)" stroke-linecap="butt" stroke-miterlimit="10.0">
    <path d="M 247.1711,266.5014 v 6.1430 "/>
  </g>
  <g stroke-linejoin="miter" stroke-opacity="0.0" fill-opacity="0.0" stroke="rgb(0,0,0)" fill-rule="evenodd" stroke-width="0.0" fill="rgb(0,0,0)" stroke-linecap="butt" stroke-miterlimit="10.0">
    <path d="M 258.4127,340.3159 l 9.9385,-9.9385 l -54.6616,-54.6616 l -9.9385,9.9385 Z"/>
  </g>
  <g stroke-linejoin="miter" stroke-opacity="1.0" fill-opacity="0.6" font-size="12.777377155212973px" stroke="rgb(0,0,0)" fill-rule="evenodd" stroke-width="0.0" fill="rgb(0,0,0)" stroke-linecap="butt" stroke-miterlimit="10.0">
    <text dominant-baseline="middle" transform="matrix(0.7071,0.7071,-0.7071,0.7071,208.7204,280.6851)" stroke="none" text-anchor="start">31 Dec 2015
    </text>
  </g>
  <g stroke-linejoin="miter" stroke-opacity="0.6" fill-opacity="0.0" stroke="rgb(0,0,0)" stroke-width="2.1823472305151497" fill="rgb(0,0,0)" stroke-linecap="butt" stroke-miterlimit="10.0">
    <path d="M 209.6239,266.5014 v 6.1430 "/>
  </g>
  <g stroke-linejoin="miter" stroke-opacity="0.0" fill-opacity="0.0" stroke="rgb(0,0,0)" fill-rule="evenodd" stroke-width="0.0" fill="rgb(0,0,0)" stroke-linecap="butt" stroke-miterlimit="10.0">
    <path d="M 219.0189,340.3159 l 9.9385,-9.9385 l -54.6616,-54.6616 l -9.9385,9.9385 Z"/>
  </g>
  <g stroke-linejoin="miter" stroke-opacity="1.0" fill-opacity="0.6" font-size="12.777377155212973px" stroke="rgb(0,0,0)" fill-rule="evenodd" stroke-width="0.0" fill="rgb(0,0,0)" stroke-linecap="butt" stroke-miterlimit="10.0">
    <text dominant-baseline="middle" transform="matrix(0.7071,0.7071,-0.7071,0.7071,169.3266,280.6851)" stroke="none" text-anchor="start">30 Sep 2015
    </text>
  </g>
  <g stroke-linejoin="miter" stroke-opacity="0.6" fill-opacity="0.0" stroke="rgb(0,0,0)" stroke-width="2.1823472305151497" fill="rgb(0,0,0)" stroke-linecap="butt" stroke-miterlimit="10.0">
    <path d="M 170.2301,266.5014 v 6.1430 "/>
  </g>
  <g stroke-linejoin="miter" stroke-opacity="0.0" fill-opacity="0.0" stroke="rgb(0,0,0)" fill-rule="evenodd" stroke-width="0.0" fill="rgb(0,0,0)" stroke-linecap="butt" stroke-miterlimit="10.0">
    <path d="M 179.6251,340.3159 l 9.9385,-9.9385 l -54.6616,-54.6616 l -9.9385,9.9385 Z"/>
  </g>
  <g stroke-linejoin="miter" stroke-opacity="1.0" fill-opacity="0.6" font-size="12.777377155212973px" stroke="rgb(0,0,0)" fill-rule="evenodd" stroke-width="0.0" fill="rgb(0,0,0)" stroke-linecap="butt" stroke-miterlimit="10.0">
    <text dominant-baseline="middle" transform="matrix(0.7071,0.7071,-0.7071,0.7071,129.9328,280.6851)" stroke="none" text-anchor="start">30 Jun 2015
    </text>
  </g>
  <g stroke-linejoin="miter" stroke-opacity="0.6" fill-opacity="0.0" stroke="rgb(0,0,0)" stroke-width="2.1823472305151497" fill="rgb(0,0,0)" stroke-linecap="butt" stroke-miterlimit="10.0">
    <path d="M 130.8363,266.5014 v 6.1430 "/>
  </g>
  <g stroke-linejoin="miter" stroke-opacity="0.0" fill-opacity="0.0" stroke="rgb(0,0,0)" stroke-width="0.0" fill="rgb(0,0,0)" stroke-linecap="butt" stroke-miterlimit="10.0">
    <path d="M 431.8295,258.3107 l -0.0000,-204.7657 h -307.1485 l -0.0000,204.7657 Z"/>
  </g>
</svg>