<svg viewBox="-1.4059678118201535 -0.68275 2.413467811820153 1.5020159178324475" xmlns="http://www.w3.org/2000/svg" xmlns:xlink="http://www.w3.org/1999/xlink" version="1.1" width="600.0" height="300.0"><g stroke-width="0.0" stroke="none" fill="#000000" transform="translate(-0.19923390591007695, -0.57175)" fill-opacity="1.0" font-size="0.12" text-anchor="middle"><text transform="rotate(0.0, 0.0, -0.0)" x="0.0" y="-0.0">moving average</text></g><g stroke-width="0.0" stroke="#000000" fill="#666666" fill-opacity="3.0e-2" stroke-opacity="0.0"><rect width="1.9999999999999998" height="1.0" x="-1.0" y="-0.5" /></g><g stroke-width="5.0e-3" stroke="#A8E5EE" fill="none" stroke-opacity="0.3"><polyline points="-1.005,0.5 1.0049999999999997,0.5" /></g><g stroke-width="5.0e-3" stroke="#A8E5EE" fill="none" stroke-opacity="0.3"><polyline points="-1.005,0.33333333333333337 1.0049999999999997,0.33333333333333337" /></g><g stroke-width="5.0e-3" stroke="#A8E5EE" fill="none" stroke-opacity="0.3"><polyline points="-1.005,0.16666666666666669 1.0049999999999997,0.16666666666666669" /></g><g stroke-width="5.0e-3" stroke="#A8E5EE" fill="none" stroke-opacity="0.3"><polyline points="-1.005,-0.0 1.0049999999999997,-0.0" /></g><g stroke-width="5.0e-3" stroke="#A8E5EE" fill="none" stroke-opacity="0.3"><polyline points="-1.005,-0.16666666666666663 1.0049999999999997,-0.16666666666666663" /></g><g stroke-width="5.0e-3" stroke="#A8E5EE" fill="none" stroke-opacity="0.3"><polyline points="-1.005,-0.33333333333333337 1.0049999999999997,-0.33333333333333337" /></g><g stroke-width="5.0e-3" stroke="#A8E5EE" fill="none" stroke-opacity="0.3"><polyline points="-1.005,-0.5 1.0049999999999997,-0.5" /></g><g stroke-width="0.0" stroke="none" fill="#666666" fill-opacity="1.0" font-size="5.0e-2" text-anchor="end"><text x="-1.2309678118201535" y="0.5145">-8.0e-3</text></g><g stroke-width="0.0" stroke="none" fill="#666666" fill-opacity="1.0" font-size="5.0e-2" text-anchor="end"><text x="-1.2309678118201535" y="0.3478333333333334">-6.0e-3</text></g><g stroke-width="0.0" stroke="none" fill="#666666" fill-opacity="1.0" font-size="5.0e-2" text-anchor="end"><text x="-1.2309678118201535" y="0.1811666666666667">-4.0e-3</text></g><g stroke-width="0.0" stroke="none" fill="#666666" fill-opacity="1.0" font-size="5.0e-2" text-anchor="end"><text x="-1.2309678118201535" y="1.4499999999999999e-2">-2.0e-3</text></g><g stroke-width="0.0" stroke="none" fill="#666666" fill-opacity="1.0" font-size="5.0e-2" text-anchor="end"><text x="-1.2309678118201535" y="-0.15216666666666662">0.0e0</text></g><g stroke-width="0.0" stroke="none" fill="#666666" fill-opacity="1.0" font-size="5.0e-2" text-anchor="end"><text x="-1.2309678118201535" y="-0.31883333333333336">2.0e-3</text></g><g stroke-width="0.0" stroke="none" fill="#666666" fill-opacity="1.0" font-size="5.0e-2" text-anchor="end"><text x="-1.2309678118201535" y="-0.4855">4.0e-3</text></g><g stroke-width="0.0" stroke="#2C429D" fill="#5F0391" fill-opacity="1.0" stroke-opacity="0.4"><line stroke-width="5.0e-3" transform="rotate(-90.0, -1.2008928118201536, 0.5)" x1="-1.2008928118201536" y1="0.515" x2="-1.2008928118201536" y2="0.485" /><line stroke-width="5.0e-3" transform="rotate(-90.0, -1.2008928118201536, 0.33333333333333337)" x1="-1.2008928118201536" y1="0.3483333333333334" x2="-1.2008928118201536" y2="0.31833333333333336" /><line stroke-width="5.0e-3" transform="rotate(-90.0, -1.2008928118201536, 0.16666666666666669)" x1="-1.2008928118201536" y1="0.1816666666666667" x2="-1.2008928118201536" y2="0.15166666666666667" /><line stroke-width="5.0e-3" transform="rotate(-90.0, -1.2008928118201536, -0.0)" x1="-1.2008928118201536" y1="1.5e-2" x2="-1.2008928118201536" y2="-1.5e-2" /><line stroke-width="5.0e-3" transform="rotate(-90.0, -1.2008928118201536, -0.16666666666666663)" x1="-1.2008928118201536" y1="-0.15166666666666662" x2="-1.2008928118201536" y2="-0.18166666666666664" /><line stroke-width="5.0e-3" transform="rotate(-90.0, -1.2008928118201536, -0.33333333333333337)" x1="-1.2008928118201536" y1="-0.31833333333333336" x2="-1.2008928118201536" y2="-0.3483333333333334" /><line stroke-width="5.0e-3" transform="rotate(-90.0, -1.2008928118201536, -0.5)" x1="-1.2008928118201536" y1="-0.485" x2="-1.2008928118201536" y2="-0.515" /></g><g stroke-width="0.0" stroke="#666666" fill="#5F0391" fill-opacity="0.5" stroke-opacity="0.0"><rect width="4.999999999999893e-3" height="1.0" x="-1.1908928118201536" y="-0.5" /></g><g stroke-width="5.0e-3" stroke="#A8E5EE" fill="none" stroke-opacity="0.3"><polyline points="-1.0,0.505 -1.0,-0.505" /></g><g stroke-width="5.0e-3" stroke="#A8E5EE" fill="none" stroke-opacity="0.3"><polyline points="-0.871743486973948,0.505 -0.871743486973948,-0.505" /></g><g stroke-width="5.0e-3" stroke="#A8E5EE" fill="none" stroke-opacity="0.3"><polyline points="-0.6152304609218437,0.505 -0.6152304609218437,-0.505" /></g><g stroke-width="5.0e-3" stroke="#A8E5EE" fill="none" stroke-opacity="0.3"><polyline points="-0.36272545090180375,0.505 -0.36272545090180375,-0.505" /></g><g stroke-width="5.0e-3" stroke="#A8E5EE" fill="none" stroke-opacity="0.3"><polyline points="-0.11022044088176364,0.505 -0.11022044088176364,-0.505" /></g><g stroke-width="5.0e-3" stroke="#A8E5EE" fill="none" stroke-opacity="0.3"><polyline points="0.1342685370741481,0.505 0.1342685370741481,-0.505" /></g><g stroke-width="5.0e-3" stroke="#A8E5EE" fill="none" stroke-opacity="0.3"><polyline points="0.3867735470941882,0.505 0.3867735470941882,-0.505" /></g><g stroke-width="5.0e-3" stroke="#A8E5EE" fill="none" stroke-opacity="0.3"><polyline points="0.6432865731462925,0.505 0.6432865731462925,-0.505" /></g><g stroke-width="5.0e-3" stroke="#A8E5EE" fill="none" stroke-opacity="0.3"><polyline points="0.8997995991983965,0.505 0.8997995991983965,-0.505" /></g><g stroke-width="5.0e-3" stroke="#A8E5EE" fill="none" stroke-opacity="0.3"><polyline points="0.9999999999999998,0.505 0.9999999999999998,-0.505" /></g><g stroke-width="0.0" stroke="none" fill="#666666" fill-opacity="1.0" font-size="5.0e-2" text-anchor="end"><text transform="rotate(-45.0, -1.0, 0.6062500000000001)" x="-1.0" y="0.6062500000000001">12 Feb 2018</text></g><g stroke-width="0.0" stroke="none" fill="#666666" fill-opacity="1.0" font-size="5.0e-2" text-anchor="end"><text transform="rotate(-45.0, -0.871743486973948, 0.6062500000000001)" x="-0.871743486973948" y="0.6062500000000001">31 Mar 2018</text></g><g stroke-width="0.0" stroke="none" fill="#666666" fill-opacity="1.0" font-size="5.0e-2" text-anchor="end"><text transform="rotate(-45.0, -0.6152304609218437, 0.6062500000000001)" x="-0.6152304609218437" y="0.6062500000000001">30 Jun 2018</text></g><g stroke-width="0.0" stroke="none" fill="#666666" fill-opacity="1.0" font-size="5.0e-2" text-anchor="end"><text transform="rotate(-45.0, -0.36272545090180375, 0.6062500000000001)" x="-0.36272545090180375" y="0.6062500000000001">30 Sep 2018</text></g><g stroke-width="0.0" stroke="none" fill="#666666" fill-opacity="1.0" font-size="5.0e-2" text-anchor="end"><text transform="rotate(-45.0, -0.11022044088176364, 0.6062500000000001)" x="-0.11022044088176364" y="0.6062500000000001">31 Dec 2018</text></g><g stroke-width="0.0" stroke="none" fill="#666666" fill-opacity="1.0" font-size="5.0e-2" text-anchor="end"><text transform="rotate(-45.0, 0.1342685370741481, 0.6062500000000001)" x="0.1342685370741481" y="0.6062500000000001">31 Mar 2019</text></g><g stroke-width="0.0" stroke="none" fill="#666666" fill-opacity="1.0" font-size="5.0e-2" text-anchor="end"><text transform="rotate(-45.0, 0.3867735470941882, 0.6062500000000001)" x="0.3867735470941882" y="0.6062500000000001">30 Jun 2019</text></g><g stroke-width="0.0" stroke="none" fill="#666666" fill-opacity="1.0" font-size="5.0e-2" text-anchor="end"><text transform="rotate(-45.0, 0.6432865731462925, 0.6062500000000001)" x="0.6432865731462925" y="0.6062500000000001">30 Sep 2019</text></g><g stroke-width="0.0" stroke="none" fill="#666666" fill-opacity="1.0" font-size="5.0e-2" text-anchor="end"><text transform="rotate(-45.0, 0.8997995991983965, 0.6062500000000001)" x="0.8997995991983965" y="0.6062500000000001">31 Dec 2019</text></g><g stroke-width="0.0" stroke="none" fill="#666666" fill-opacity="1.0" font-size="5.0e-2" text-anchor="end"><text transform="rotate(-45.0, 0.9999999999999998, 0.6062500000000001)" x="0.9999999999999998" y="0.6062500000000001">06 Feb 2020</text></g><g stroke-width="0.0" stroke="#2C429D" fill="#5F0391" fill-opacity="1.0" stroke-opacity="0.4"><line stroke-width="5.0e-3" x1="-1.0" y1="0.54" x2="-1.0" y2="0.51" /><line stroke-width="5.0e-3" x1="-0.871743486973948" y1="0.54" x2="-0.871743486973948" y2="0.51" /><line stroke-width="5.0e-3" x1="-0.6152304609218437" y1="0.54" x2="-0.6152304609218437" y2="0.51" /><line stroke-width="5.0e-3" x1="-0.36272545090180375" y1="0.54" x2="-0.36272545090180375" y2="0.51" /><line stroke-width="5.0e-3" x1="-0.11022044088176364" y1="0.54" x2="-0.11022044088176364" y2="0.51" /><line stroke-width="5.0e-3" x1="0.1342685370741481" y1="0.54" x2="0.1342685370741481" y2="0.51" /><line stroke-width="5.0e-3" x1="0.3867735470941882" y1="0.54" x2="0.3867735470941882" y2="0.51" /><line stroke-width="5.0e-3" x1="0.6432865731462925" y1="0.54" x2="0.6432865731462925" y2="0.51" /><line stroke-width="5.0e-3" x1="0.8997995991983965" y1="0.54" x2="0.8997995991983965" y2="0.51" /><line stroke-width="5.0e-3" x1="0.9999999999999998" y1="0.54" x2="0.9999999999999998" y2="0.51" /></g><g stroke-width="0.0" stroke="#666666" fill="#5F0391" fill-opacity="0.5" stroke-opacity="0.0"><rect width="1.9999999999999998" height="5.0000000000000044e-3" x="-1.0" y="0.51" /></g><g stroke-width="5.0e-3" stroke="#C58C4B" fill="none" stroke-opacity="0.5"><polyline points="-1.0,-0.16666666666666663 0.9999999999999998,-0.16666666666666663" /></g><g stroke-width="5.0e-3" stroke="#3C7F2B" fill="none" stroke-opacity="0.5"><polyline points="-1.0,-6.0059554708351226e-2 -0.9959919839679359,-7.626291792188122e-2 -0.9919839679358717,-0.13625577215507123 -0.9879759519038076,-0.18776324039916137 -0.9839679358717435,-0.18826424430216038 -0.9799599198396793,-0.16277387738187366 -0.9759519038076152,-0.1400032476131987 -0.9719438877755511,-0.1453909083782562 -0.9679358717434869,-0.21271002247870263 -0.9639278557114228,-0.25910968252887556 -0.9599198396793587,-0.20120289976336303 -0.9559118236472945,-0.15298522968525796 -0.9519038076152304,-9.777777752522099e-2 -0.9478957915831663,-0.12230049464286896 -0.9438877755511023,-0.17023387599931872 -0.9398797595190381,-0.18103627808511047 -0.935871743486974,-0.1783011654560297 -0.9318637274549099,-0.19627422490929203 -0.9278557114228457,-0.2665836240967452 -0.9238476953907816,-0.25627612188938154 -0.9198396793587175,-0.22519602231217517 -0.9158316633266533,-0.19834884560239652 -0.9118236472945892,-0.19350541884681316 -0.9078156312625251,-0.19925513989571597 -0.9038076152304609,-0.13801721381553977 -0.8997995991983968,-0.14561930506693788 -0.8957915831663327,-0.13898129046529373 -0.8917835671342685,-3.417852902917773e-2 -0.8877755511022044,4.7487926870463326e-2 -0.8837675350701403,-7.486580564047829e-2 -0.8797595190380761,-6.8421579344364325e-3 -0.875751503006012,-2.6628882556434252e-3 -0.8717434869739479,-6.78454831048032e-2 -0.8677354709418837,2.1341300216701997e-2 -0.8637274549098196,-4.029226969995825e-2 -0.8597194388777555,-9.452808229243237e-2 -0.8557114228456915,-0.12663260149591182 -0.8517034068136273,-3.628402565371447e-2 -0.8476953907815632,-5.668230275334474e-2 -0.8436873747494991,-0.13130068331407407 -0.8396793587174349,-0.1099827914164988 -0.8356713426853708,-0.14705406336001126 -0.8316633266533067,-0.1359896948835716 -0.8276553106212425,-0.17117494671318345 -0.8236472945891784,-0.21513733158132153 -0.8196392785571143,-0.21617638336652156 -0.8156312625250501,-0.18977347302333314 -0.811623246492986,-0.15289656145557184 -0.8076152304609219,-0.1538193580902164 -0.8036072144288577,-9.833302423205115e-2 -0.7995991983967936,-0.1093970978053942 -0.7955911823647295,-0.15551117693717753 -0.7915831663326653,-0.16070647385168046 -0.7875751503006012,-0.126749514979708 -0.7835671342685371,-0.13935288160932158 -0.779559118236473,-0.11058544078418775 -0.7755511022044088,-0.10398859453355669 -0.7715430861723447,-0.1601633741965569 -0.7675350701402806,-0.17487179122929064 -0.7635270541082164,-0.17335454902154812 -0.7595190380761523,-0.2131686876743123 -0.7555110220440882,-0.2497061345199474 -0.751503006012024,-0.2526630757596666 -0.7474949899799599,-0.2520428364298849 -0.7434869739478958,-0.21916713137480914 -0.7394789579158316,-0.23342685786382333 -0.7354709418837675,-0.22652118687631073 -0.7314629258517034,-0.21254652247393857 -0.7274549098196392,-0.24091754853467462 -0.7234468937875751,-0.2241188009923315 -0.719438877755511,-0.23475929983082455 -0.7154308617234469,-0.22291607296872185 -0.7114228456913828,-0.21027025604511052 -0.7074148296593187,-0.15962519064827196 -0.7034068136272545,-0.21254341276088062 -0.6993987975951904,-0.18148568730532466 -0.6953907815631263,-0.2257064007209051 -0.6913827655310621,-0.24137772609593677 -0.687374749498998,-0.2405686164593166 -0.6833667334669339,-0.2724189385479252 -0.6793587174348698,-0.26415447573028916 -0.6753507014028056,-0.2722843722296303 -0.6713426853707415,-0.2714540582588447 -0.6673346693386774,-0.2734724695211156 -0.6633266533066133,-0.2513227852233646 -0.6593186372745492,-0.25737539750686034 -0.6553106212424851,-0.24859987650397364 -0.6513026052104209,-0.23563491958903104 -0.6472945891783568,-0.21538851564374506 -0.6432865731462927,-0.22008029842262955 -0.6392785571142285,-0.19088574755098908 -0.6352705410821644,-0.19742564033160792 -0.6312625250501003,-0.1383055117812847 -0.6272545090180361,-0.14889919780535132 -0.623246492985972,-0.11378096127809856 -0.6192384769539079,-0.14209058029393173 -0.6152304609218437,-0.1464781998999951 -0.6112224448897796,-0.16025121043078783 -0.6072144288577155,-0.13990686160075927 -0.6032064128256514,-0.1770109205288909 -0.5991983967935872,-0.21168336460462667 -0.5951903807615231,-0.24603374204295902 -0.591182364729459,-0.2565122604119522 -0.5871743486973948,-0.22235545471599305 -0.5831663326653307,-0.2558668127671042 -0.5791583166332666,-0.25590120422860374 -0.5751503006012024,-0.2471533746942579 -0.5711422845691383,-0.25965330711037216 -0.5671342685370742,-0.2639963998755589 -0.56312625250501,-0.24262646793999665 -0.5591182364729459,-0.23487473732500996 -0.5551102204408818,-0.23911584304563782 -0.5511022044088176,-0.2553663797732232 -0.5470941883767535,-0.28868320689282023 -0.5430861723446894,-0.26992861835746385 -0.5390781563126252,-0.23733287648474832 -0.5350701402805611,-0.20975461155450226 -0.531062124248497,-0.22790370212034772 -0.5270541082164328,-0.22050479536710954 -0.5230460921843687,-0.23828934658695777 -0.5190380761523046,-0.2540141795966344 -0.5150300601202404,-0.2643633973217224 -0.5110220440881764,-0.2712294016512783 -0.5070140280561123,-0.2649078715965857 -0.5030060120240482,-0.25398450026383945 -0.498997995991984,-0.2198714738997256 -0.4949899799599199,-0.20048607756370496 -0.49098196392785576,-0.22533231498166162 -0.4869739478957916,-0.19060232977460345 -0.4829659318637275,-0.22227310693651958 -0.47895791583166336,-0.23331614568994596 -0.47494989979959923,-0.24008815047419874 -0.4709418837675351,-0.24502707593507023 -0.46693386773547096,-0.2394497587981096 -0.46292585170340683,-0.22875771268307388 -0.4589178356713427,-0.2514019351782435 -0.45490981963927857,-0.27900326120066554 -0.45090180360721444,-0.27450827447515136 -0.4468937875751503,-0.29280470360842503 -0.44288577154308617,-0.2679970852680864 -0.43887775551102204,-0.2634908500222991 -0.434869739478958,-0.25175092373807595 -0.4308617234468939,-0.23580061594804547 -0.42685370741482975,-0.21709812225105463 -0.4228456913827656,-0.20534405851521342 -0.4188376753507015,-0.21131030623411085 -0.41482965931863736,-0.2246317316333658 -0.4108216432865732,-0.22321934608119032 -0.4068136272545091,-0.24234317977657527 -0.40280561122244496,-0.23970703585300257 -0.3987975951903808,-0.21278297251580458 -0.3947895791583167,-0.23278821117337534 -0.39078156312625256,-0.23470083325715874 -0.38677354709418843,-0.2638408509461101 -0.3827655310621243,-0.2574463046723874 -0.37875751503006017,-0.23823281268498886 -0.37474949899799603,-0.22921305417760085 -0.3707414829659319,-0.21235781930897857 -0.36673346693386777,-0.22157107886999194 -0.36272545090180364,-0.21879723198898982 -0.3587174348697395,-0.23133442264145465 -0.35470941883767537,-0.22644783140626434 -0.35070140280561124,-0.22642238439388174 -0.3466933867735471,-0.1892552833136979 -0.342685370741483,-0.1650287084656341 -0.33867735470941884,-0.16346396279561803 -0.3346693386773547,-0.15771197331928433 -0.3306613226452907,-1.8924754021790835e-2 -0.32665330661322656,6.0303067722098314e-2 -0.3226452905811624,-9.821400434250283e-3 -0.3186372745490983,7.013346178214863e-3 -0.31462925851703416,-9.028660488947637e-2 -0.31062124248497003,-9.30527151245778e-2 -0.3066132264529059,-3.6331368098300176e-2 -0.30260521042084176,-4.13429866295596e-2 -0.29859719438877763,-2.9655850126496297e-2 -0.2945891783567135,-1.3476905966173236e-2 -0.29058116232464937,0.10949182926335554 -0.28657314629258523,1.8793413981573692e-2 -0.2825651302605211,8.23501517407289e-2 -0.27855711422845697,9.732101141366417e-2 -0.27454909819639284,1.9349448168932193e-2 -0.2705410821643287,-3.492168506554527e-2 -0.2665330661322646,-8.526934617284165e-2 -0.26252505010020044,-6.293620870474281e-2 -0.2585170340681363,-9.139228867101923e-2 -0.2545090180360722,-0.12115512229444503 -0.25050100200400804,-0.21087686106754022 -0.2464929859719439,-0.19819939641853135 -0.24248496993987978,-0.1581161524869329 -0.23847695390781565,-7.56347158590518e-2 -0.23446893787575152,-7.400706840337934e-2 -0.2304609218436875,-4.698926083013877e-2 -0.22645290581162336,-9.688160081345676e-2 -0.22244488977955923,-0.10962434482173022 -0.2184368737474951,-4.254662099214146e-2 -0.21442885771543096,2.757235681867376e-2 -0.21042084168336683,5.199283616502126e-3 -0.2064128256513027,2.4007734823822957e-2 -0.20240480961923857,-4.974671702886624e-2 -0.19839679358717444,-6.916098315869956e-2 -0.1943887775551103,-0.16867814747464394 -0.19038076152304617,-0.159471346518261 -0.18637274549098204,-0.19373756127204023 -0.1823647294589179,-0.2377256902162722 -0.17835671342685377,-9.708845311837033e-2 -0.17434869739478964,-9.421991326096502e-2 -0.1703406813627255,4.7581340225882895e-4 -0.16633266533066138,-1.5217158030099931e-2 -0.16232464929859725,-2.130459221007186e-2 -0.1583166332665331,-5.109299171366266e-2 -0.15430861723446898,-5.603854962616017e-2 -0.15030060120240485,1.8726762485259285e-2 -0.14629258517034072,9.692494486948561e-2 -0.14228456913827658,8.33853769160115e-2 -0.13827655310621245,0.13553052102041702 -0.13426853707414832,0.18666153437928923 -0.1302605210420842,0.2556747936052777 -0.12625250501002017,0.3490851066521746 -0.12224448897795603,0.12161761192395287 -0.1182364729458919,7.167744387674546e-2 -0.11422845691382777,6.493671315913596e-2 -0.11022044088176364,1.812060211110017e-2 -0.1062124248496995,3.5991853087681824e-3 -0.10220440881763537,9.953727407790214e-2 -9.819639278557124e-2,-5.44370843241353e-2 -9.418837675350711e-2,-8.915679675937349e-2 -9.018036072144298e-2,-0.13323473797700924 -8.617234468937884e-2,-0.15194663190935098 -8.216432865731471e-2,-0.1714669732836891 -7.815631262525058e-2,-0.17061733871667928 -7.414829659318645e-2,-0.1484556599438629 -7.014028056112231e-2,-0.19380212323399537 -6.613226452905818e-2,-0.2016933528833007 -6.212424849699405e-2,-0.23145339606642124 -5.811623246492992e-2,-0.2827845297612136 -5.4108216432865786e-2,-0.2175683158484284 -5.010020040080165e-2,-0.22419194165964895 -4.609218436873752e-2,-0.22704392844669563 -4.208416833667339e-2,-0.25924534800677046 -3.8076152304609256e-2,-0.22179234807874937 -3.4068136272545124e-2,-0.21296394707008892 -3.0060120240480992e-2,-0.2749391245318652 -2.605210420841686e-2,-0.3051948719418648 -2.204408817635284e-2,-0.3020109881280917 -1.8036072144288706e-2,-0.32338286021484375 -1.4028056112224574e-2,-0.3351194273848519 -1.0020040080160442e-2,-0.3174179734774015 -6.012024048096309e-3,-0.27070877070239263 -2.004008016032177e-3,-0.2683232178828565 2.004008016031955e-3,-0.2661939394803935 6.012024048096087e-3,-0.314583628625664 1.002004008016022e-2,-0.319768745763785 1.4028056112224352e-2,-0.3010504607815022 1.8036072144288484e-2,-0.33941462507377795 2.2044088176352616e-2,-0.337017315849505 2.605210420841675e-2,-0.3358978392849665 3.006012024048088e-2,-0.3127168256684276 3.406813627254501e-2,-0.33204197885125586 3.8076152304609145e-2,-0.32890281430082857 4.208416833667328e-2,-0.3174961333983001 4.609218436873741e-2,-0.30768717153623837 5.010020040080154e-2,-0.28884653066663823 5.4108216432865675e-2,-0.31136943966658315 5.811623246492981e-2,-0.2879338547461957 6.212424849699394e-2,-0.2771531046822484 6.613226452905807e-2,-0.24435597635264417 7.01402805611222e-2,-0.20647604859508606 7.414829659318634e-2,-0.19559406119367195 7.815631262525047e-2,-0.2548124237850454 8.21643286573146e-2,-0.2626924935706775 8.617234468937873e-2,-0.2867476465320168 9.018036072144286e-2,-0.277125266109704 9.4188376753507e-2,-0.292321167009463 9.819639278557113e-2,-0.30145134541558627 0.10220440881763526,-0.2941680695473198 0.1062124248496994,-0.2755067628204886 0.11022044088176353,-0.31503982353921733 0.11422845691382766,-0.22780105245544602 0.11823647294589179,-0.2212469456394084 0.12224448897795592,-0.24833898636105067 0.12625250501002006,-0.22485893968628845 0.13026052104208397,-0.23687872035949142 0.1342685370741481,-0.2613335596179356 0.13827655310621223,-0.3045260295438438 0.14228456913827636,-0.29770579312833967 0.1462925851703405,-0.300095805064422 0.15030060120240463,-0.3021012877659569 0.15430861723446876,-0.31460337919250014 0.1583166332665329,-0.31156867687212264 0.16232464929859702,-0.27896534028993414 0.16633266533066116,-0.2878163975915027 0.1703406813627253,-0.2819177535214258 0.17434869739478942,-0.30360344283014573 0.17835671342685355,-0.2941334071479784 0.18236472945891768,-0.28988185557352364 0.18637274549098182,-0.27423609187925224 0.19038076152304595,-0.2754319822074326 0.19438877755511008,-0.2742083248521291 0.1983967935871742,-0.3055077052570433 0.20240480961923835,-0.28942328363779124 0.20641282565130248,-0.2817477790494234 0.2104208416833666,-0.29547018319847307 0.21442885771543074,-0.2934922921201407 0.21843687374749488,-0.291113364002603 0.222444889779559,-0.2535141709350376 0.22645290581162314,-0.240312444356246 0.23046092184368727,-0.2765973532278936 0.2344689378757514,-0.2524299304371006 0.23847695390781554,-0.17876890003796353 0.24248496993987967,-0.1714691408460508 0.2464929859719438,-0.15862068962906095 0.25050100200400793,-0.1744954628442923 0.25450901803607207,-7.232706851091308e-2 0.2585170340681362,-0.11031066321582317 0.26252505010020033,-0.13738677333933924 0.26653306613226446,-0.17575058871251414 0.2705410821643286,-0.15090290447305243 0.2745490981963927,-0.12347335076346111 0.27855711422845686,-0.16088280452089598 0.282565130260521,-0.14938703074275683 0.2865731462925851,-0.10031062717045103 0.29058116232464926,-0.10926444580707106 0.2945891783567134,-7.708893187725718e-2 0.2985971943887775,-5.266819299447567e-2 0.30260521042084165,-6.710258482514075e-2 0.3066132264529058,-1.6734101619029995e-2 0.3106212424849699,-1.269293460244958e-2 0.31462925851703405,-0.10874965166782524 0.3186372745490982,-0.14551519695929394 0.3226452905811623,-0.17205960675804266 0.32665330661322645,-0.21530237378576833 0.3306613226452906,-0.23224233790614301 0.3346693386773545,-0.22750546604128097 0.3386773547094186,-0.21596495152198691 0.34268537074148275,-0.23053758149074421 0.3466933867735469,-0.22062398535614647 0.350701402805611,-0.2218066012465778 0.35470941883767515,-0.2593433109747202 0.3587174348697393,-0.2671291321525706 0.3627254509018034,-0.3013876981956335 0.36673346693386755,-0.2894015783683749 0.3707414829659317,-0.2760423812622026 0.3747494989979958,-0.2308161968123137 0.37875751503005994,-0.22246415428436206 0.3827655310621241,-0.2355738046418674 0.3867735470941882,-0.25604903889950337 0.39078156312625234,-0.28342583065917093 0.3947895791583165,-0.28977056995117434 0.3987975951903806,-0.3154616058781622 0.40280561122244474,-0.30049046674606616 0.40681362725450887,-0.2736027224449993 0.410821643286573,-0.2734050579024818 0.41482965931863713,-0.2868204164785513 0.41883767535070127,-0.29032364424861623 0.4228456913827654,-0.30334718909477665 0.42685370741482953,-0.2972458864311538 0.43086172344689366,-0.27651032280611465 0.4348697394789578,-0.24371536748496025 0.4388777555110219,-0.25476125546938044 0.44288577154308606,-0.22454031992207768 0.4468937875751502,-0.23341622779483107 0.4509018036072143,-0.2585126886447109 0.45490981963927846,-0.27340869108429666 0.4589178356713426,-0.24608702079456857 0.4629258517034067,-0.2727849013787743 0.46693386773547085,-0.26073973259582395 0.470941883767535,-0.24527780700333235 0.4749498997995991,-0.1957422207844316 0.47895791583166325,-0.1566237451861613 0.4829659318637274,-0.12667010534980494 0.4869739478957915,-2.7108404543849662e-3 0.49098196392785565,-6.479623241589927e-2 0.4949899799599198,-7.308384583119842e-2 0.4989979959919839,-0.15521491465058612 0.503006012024048,-0.12812669688197087 0.5070140280561122,-7.841282429720042e-2 0.5110220440881763,-0.14540195893282826 0.5150300601202404,-2.258872677487478e-2 0.5190380761523046,-4.00477766773093e-2 0.5230460921843687,-0.10605813024318322 0.5270541082164328,-0.15922678757441466 0.531062124248497,-0.12648955188846422 0.5350701402805611,-0.16271915595835573 0.539078156312625,-0.1608073517397398 0.5430861723446891,-5.1563312435200404e-2 0.5470941883767533,-0.10283145074725475 0.5511022044088174,-9.265520361065072e-2 0.5551102204408815,-0.1235397410468353 0.5591182364729457,-0.17822726457376203 0.5631262525050098,-0.1803266547783028 0.5671342685370739,-0.15079778373624986 0.5711422845691381,-0.19652341544976204 0.5751503006012022,-0.24888854893899848 0.5791583166332663,-0.24856991659771144 0.5831663326653305,-0.2440830266877302 0.5871743486973946,-0.24155492721530092 0.5911823647294587,-0.26782581545680273 0.5951903807615229,-0.2747470915134127 0.599198396793587,-0.26632358436575887 0.6032064128256511,-0.24825526749835425 0.6072144288577153,-0.254919276183568 0.6112224448897794,-0.25193428398084716 0.6152304609218435,-0.2477541308528196 0.6192384769539077,-0.22325142762599848 0.6232464929859718,-0.2200182704240793 0.6272545090180359,-0.18213407045100927 0.6312625250501,-0.20694272135876524 0.6352705410821642,-0.19479612275013436 0.6392785571142283,-0.1711790893740407 0.6432865731462925,-0.1919322605620687 0.6472945891783566,-0.13927678558947632 0.6513026052104207,-6.537376158607677e-2 0.6553106212424848,-0.10352301094170702 0.659318637274549,-0.165500132287268 0.6633266533066131,-0.14685699077980485 0.6673346693386772,-8.250097711406257e-2 0.6713426853707414,-0.12447299599451289 0.6753507014028055,-0.15322935700039297 0.6793587174348696,-0.19923280484948525 0.6833667334669338,-0.19182082316149462 0.6873747494989979,-0.23183997205485563 0.691382765531062,-0.22024153674777225 0.6953907815631262,-0.2290587184450842 0.6993987975951903,-0.20957642539772448 0.7034068136272544,-0.23596474688461833 0.7074148296593186,-0.21760380355978926 0.7114228456913827,-0.22690321163211324 0.7154308617234468,-0.23188556972715046 0.719438877755511,-0.24555974785863566 0.7234468937875751,-0.26480601005061954 0.7274549098196392,-0.2564292434702127 0.7314629258517034,-0.26547482052916827 0.7354709418837675,-0.24792008510834196 0.7394789579158316,-0.2839237908122687 0.7434869739478958,-0.2934661262435406 0.7474949899799597,-0.282182807743527 0.7515030060120238,-0.2793330446762834 0.7555110220440879,-0.28505962351435987 0.7595190380761521,-0.28979582145621996 0.7635270541082162,-0.27545438331256966 0.7675350701402803,-0.2765292610665888 0.7715430861723445,-0.27399980432384585 0.7755511022044086,-0.27211936700434736 0.7795591182364727,-0.29878851839351583 0.7835671342685369,-0.2942783683392155 0.787575150300601,-0.28542790871631907 0.7915831663326651,-0.26380961113045176 0.7955911823647293,-0.2523524383804534 0.7995991983967934,-0.2571205412215133 0.8036072144288575,-0.2837613976695603 0.8076152304609217,-0.2870448430342959 0.8116232464929858,-0.2983831656138157 0.8156312625250499,-0.2750503138386198 0.819639278557114,-0.23351244979276664 0.8236472945891782,-0.20241922208064445 0.8276553106212423,-0.2268968348917385 0.8316633266533064,-0.23013168884137847 0.8356713426853706,-0.2648511289008899 0.8396793587174347,-0.2467425989984413 0.8436873747494988,-0.23816573555154263 0.847695390781563,-0.246690521438104 0.8517034068136271,-0.278267108709757 0.8557114228456912,-0.2729895004320745 0.8597194388777554,-0.29734986222067217 0.8637274549098195,-0.292212520064403 0.8677354709418836,-0.2841335871647318 0.8717434869739478,-0.2967993187696901 0.8757515030060119,-0.310845169310339 0.879759519038076,-0.30724361373995934 0.8837675350701402,-0.29940031923214416 0.8877755511022043,-0.31407639626273043 0.8917835671342684,-0.3068475111083089 0.8957915831663326,-0.2756818178719469 0.8997995991983967,-0.2824881043604468 0.9038076152304608,-0.31146326397459356 0.907815631262525,-0.27470297842501246 0.9118236472945891,-0.28399760032275034 0.9158316633266532,-0.2664344916310748 0.9198396793587174,-0.2818230729972766 0.9238476953907815,-0.303703644395687 0.9278557114228456,-0.28493820246862267 0.9318637274549098,-0.3079912673355436 0.9358717434869739,-0.2946096998078481 0.939879759519038,-0.295997757856573 0.9438877755511021,-0.3242468181458905 0.9478957915831663,-0.33242915669147155 0.9519038076152302,-0.3130764474731753 0.9559118236472943,-0.3069602680807745 0.9599198396793585,-0.3046969470707537 0.9639278557114226,-0.25994839422840743 0.9679358717434867,-0.1892186728956361 0.9719438877755509,-0.2297718366300593 0.975951903807615,-0.2230030357274735 0.9799599198396791,-0.23322562144908077 0.9839679358717432,-0.15546249290692327 0.9879759519038074,-0.18614114182150066 0.9919839679358715,-0.24712290103125845 0.9959919839679356,-0.2897158330796099 0.9999999999999998,-0.2973973543010302" /></g><g stroke-width="5.0e-3" stroke="#382A8C" fill="none" stroke-opacity="0.5"><polyline points="-1.0,-0.20039192044593468 -0.9959919839679359,-0.20224129923006318 -0.9919839679358717,-0.21304968938250324 -0.9879759519038076,-0.22264441342097585 -0.9839679358717435,-0.22239422337693027 -0.9799599198396793,-0.2169206487682802 -0.9759519038076152,-0.21179333766003605 -0.9719438877755511,-0.21215518490838603 -0.9679358717434869,-0.2250294198838363 -0.9639278557114228,-0.2342414508286792 -0.9599198396793587,-0.22284103271932842 -0.9559118236472945,-0.21292277017149674 -0.9519038076152304,-0.20121371104634256 -0.9478957915831663,-0.20510633900368724 -0.9438877755511023,-0.213915238732448 -0.9398797595190381,-0.21564870131731484 -0.935871743486974,-0.21475052974835374 -0.9318637274549099,-0.217998637785214 -0.9278557114228457,-0.23191960436036396 -0.9238476953907816,-0.230195384487084 -0.9198396793587175,-0.22420799545559478 -0.9158316633266533,-0.21881977340706482 -0.9118236472945892,-0.21764016566573963 -0.9078156312625251,-0.21855352505519243 -0.9038076152304609,-0.20604840097436106 -0.8997995991983968,-0.20689282290818245 -0.8957915831663327,-0.20494261763777544 -0.8917835671342685,-0.1832136123632757 -0.8877755511022044,-0.1653011447467594 -0.8837675350701403,-0.18775422904579908 -0.8797595190380761,-0.17294865739765197 -0.875751503006012,-0.17043966623833773 -0.8717434869739479,-0.18185278348137102 -0.8677354709418837,-0.16278543532085277 -0.8637274549098196,-0.17332006474067208 -0.8597194388777555,-0.18288114051637816 -0.8557114228456915,-0.18844396800084218 -0.8517034068136273,-0.16967109781146872 -0.8476953907815632,-0.17242925204102355 -0.8436873747494991,-0.18625685135188907 -0.8396793587174349,-0.18142246188977496 -0.8356713426853708,-0.1881516015117407 -0.8316633266533067,-0.18551639999261582 -0.8276553106212425,-0.19208620297721557 -0.8236472945891784,-0.20070596232773752 -0.8196392785571143,-0.20105956445043338 -0.8156312625250501,-0.195908835590493 -0.811623246492986,-0.18844150702892992 -0.8076152304609219,-0.18826992096516948 -0.8036072144288577,-0.176782020791875 -0.7995991983967936,-0.17821604605249775 -0.7955911823647295,-0.1867843925265733 -0.7915831663326653,-0.18751356064798308 -0.7875751503006012,-0.18042676341214248 -0.7835671342685371,-0.18241826890522828 -0.779559118236473,-0.1762106598789024 -0.7755511022044088,-0.17422761678991872 -0.7715430861723447,-0.18479935214840282 -0.7675350701402806,-0.18750459883180548 -0.7635270541082164,-0.18707325593675816 -0.7595190380761523,-0.19492713193770994 -0.7555110220440882,-0.20244378964573717 -0.751503006012024,-0.20351156368833967 -0.7474949899799599,-0.2038803172683733 -0.7434869739478958,-0.19776568503856762 -0.7394789579158316,-0.20084216293487933 -0.7354709418837675,-0.19978329172560816 -0.7314629258517034,-0.1972472398604076 -0.7274549098196392,-0.2030938330605594 -0.7234468937875751,-0.20010249664734403 -0.719438877755511,-0.2024784845770028 -0.7154308617234469,-0.20042604091918736 -0.7114228456913828,-0.19811441155308174 -0.7074148296593187,-0.18807528587347266 -0.7034068136272545,-0.19840669654694532 -0.6993987975951904,-0.19231769152680322 -0.6953907815631263,-0.2010803371669525 -0.6913827655310621,-0.20447113853528776 -0.687374749498998,-0.20467900611678902 -0.6833667334669339,-0.21142801216544038 -0.6793587174348698,-0.2103819529876324 -0.6753507014028056,-0.21255197453281904 -0.6713426853707415,-0.21298448217187627 -0.6673346693386774,-0.213975688204617 -0.6633266533066133,-0.21012985630423386 -0.6593186372745492,-0.21175685768727626 -0.6553106212424851,-0.21045433301550054 -0.6513026052104209,-0.2082367192852287 -0.6472945891783568,-0.2044511491920865 -0.6432865731462927,-0.20550170134887824 -0.6392785571142285,-0.19979339714002342 -0.6352705410821644,-0.20101551666420592 -0.6312625250501003,-0.1891246001245025 -0.6272545090180361,-0.1907393128910959 -0.623246492985972,-0.1832782050486761 -0.6192384769539079,-0.18825774944867968 -0.6152304609218437,-0.18867464544568913 -0.6112224448897796,-0.19101307920141564 -0.6072144288577155,-0.18662582512499482 -0.6032064128256514,-0.1935963808625647 -0.5991983967935872,-0.2003813329471794 -0.5951903807615231,-0.2073810948990259 -0.591182364729459,-0.2098691898563131 -0.5871743486973948,-0.20348937161849012 -0.5831663326653307,-0.2103962606470845 -0.5791583166332666,-0.21085890258742845 -0.5751503006012024,-0.20955681141293148 -0.5711422845691383,-0.21243922482129296 -0.5671342685370742,-0.21378296624103077 -0.56312625250501,-0.21000280911903502 -0.5591182364729459,-0.20877603128443878 -0.5551102204408818,-0.20988763309761982 -0.5511022044088176,-0.2134375902128719 -0.5470941883767535,-0.2205352227040115 -0.5430861723446894,-0.21745935830692154 -0.5390781563126252,-0.211452477610515 -0.5350701402805611,-0.20618484173889218 -0.531062124248497,-0.20985780369534912 -0.5270541082164328,-0.20855586832728712 -0.5230460921843687,-0.21223958718184444 -0.5190380761523046,-0.21565176338017822 -0.5150300601202404,-0.21811001830048127 -0.5110220440881764,-0.21994929895915538 -0.5070140280561123,-0.21919635687243066 -0.5030060120240482,-0.21746552724109658 -0.498997995991984,-0.21099600938107665 -0.4949899799599199,-0.20720065591275683 -0.49098196392785576,-0.21211176183734315 -0.4869739478957916,-0.20528558007777564 -0.4829659318637275,-0.21148404136827426 -0.47895791583166336,-0.21380466813780463 -0.47494989979959923,-0.21535691768650622 -0.4709418837675351,-0.21659417236456735 -0.46693386773547096,-0.21576160083069307 -0.46292585170340683,-0.21385681812874657 -0.4589178356713427,-0.21854259896911377 -0.45490981963927857,-0.22440127010833044 -0.45090180360721444,-0.22404770641907568 -0.4468937875751503,-0.22821844440182237 -0.44288577154308617,-0.2238957583790212 -0.43887775551102204,-0.22343478294307606 -0.434869739478958,-0.22148425156144103 -0.4308617234468939,-0.21859229649809186 -0.42685370741482975,-0.21501830159742996 -0.4228456913827656,-0.21268468047598665 -0.4188376753507015,-0.21380623982185298 -0.41482965931863736,-0.21644956950104532 -0.4108216432865732,-0.21624861266019635 -0.4068136272545091,-0.22014887702119568 -0.40280561122244496,-0.21984314191210885 -0.3987975951903808,-0.2146494110708812 -0.3947895791583167,-0.2186375392946558 -0.39078156312625256,-0.2191623188129247 -0.38677354709418843,-0.22515416695962442 -0.3827655310621243,-0.22426087598245403 -0.37875751503006017,-0.2207451670676034 -0.37474949899799603,-0.2191138570969956 -0.3707414829659319,-0.21583936123187997 -0.36673346693386777,-0.2176496282531688 -0.36272545090180364,-0.21713338719092323 -0.3587174348697395,-0.21966078962073676 -0.35470941883767537,-0.21879908511177293 -0.35070140280561124,-0.21887057537538346 -0.3466933867735471,-0.21150326642808825 -0.342685370741483,-0.20642905750028517 -0.33867735470941884,-0.2057011940102469 -0.3346693386773547,-0.20412647286576346 -0.3306613226452907,-0.17587022714735556 -0.32665330661322656,-0.15843403608071693 -0.3226452905811624,-0.17028580583691222 -0.3186372745490983,-0.16530828875925896 -0.31462925851703416,-0.1830659845747451 -0.31062124248497003,-0.18269097541094204 -0.3066132264529059,-0.1704361722342439 -0.30260521042084176,-0.17009706022723348 -0.29859719438877763,-0.166467984929349 -0.2945891783567135,-0.16185891052293155 -0.29058116232464937,-0.13575238494765518 -0.28657314629258523,-0.15145687175485933 -0.2825651302605211,-0.13702733399694678 -0.27855711422845697,-0.13183379741460988 -0.27454909819639284,-0.14515075164960967 -0.2705410821643287,-0.1543697011761186 -0.2665330661322646,-0.1632540314124039 -0.26252505010020044,-0.15800212719051143 -0.2585170340681363,-0.1627475411588395 -0.2545090180360722,-0.16799186950326062 -0.25050100200400804,-0.18548539893750915 -0.2464929859719439,-0.1832015524318844 -0.24248496993987978,-0.17532713983447112 -0.23847695390781565,-0.1586425020733946 -0.23446893787575152,-0.15748578004457137 -0.2304609218436875,-0.1512414742595578 -0.22645290581162336,-0.1601858678662007 -0.22244488977955923,-0.16210316672724057 -0.2184368737474951,-0.1481499175174329 -0.21442885771543096,-0.13305625682942313 -0.21042084168336683,-0.13592719000944042 -0.2064128256513027,-0.13074958458385388 -0.20240480961923857,-0.14396465264130254 -0.19839679358717444,-0.14690791750011067 -0.1943887775551103,-0.16605056399078055 -0.19038076152304617,-0.1642339122399482 -0.18637274549098204,-0.17104534762359558 -0.1823647294589179,-0.18007753337663057 -0.17835671342685377,-0.15250348343596576 -0.17434869739478964,-0.15137468962207212 -0.1703406813627255,-0.1318479747088458 -0.16633266533066138,-0.13366480693151295 -0.16232464929859725,-0.13369784384610084 -0.1583166332665331,-0.1385354426249974 -0.15430861723446898,-0.1386502201633164 -0.15030060120240485,-0.12285871901394874 -0.14629258517034072,-0.10579004231327105 -0.14228456913827658,-0.10647132705599083 -0.13827655310621245,-9.413439066661422e-2 -0.13426853707414832,-8.160214536111399e-2 -0.1302605210420842,-6.510461468762374e-2 -0.12625250501002017,-4.3198665188303176e-2 -0.12224448897795603,-8.479958215830652e-2 -0.1182364729458919,-9.272915321818131e-2 -0.11422845691382777,-9.243302230493844e-2 -0.11022044088176364,-0.1002280479877049 -0.1062124248496995,-0.10195004788371365 -0.10220440881763537,-8.169292713759602e-2 -9.819639278557124e-2,-0.11069535548896181 -9.418837675350711e-2,-0.11708104397949604 -9.018036072144298e-2,-0.12562312232948636 -8.617234468937884e-2,-0.12944415592063663 -8.216432865731471e-2,-0.13357596662888438 -7.815631262525058e-2,-0.1337850859535311 -7.414829659318645e-2,-0.12971845115077218 -7.014028056112231e-2,-0.1389810273497043 -6.613226452905818e-2,-0.1411088286390395 -6.212424849699405e-2,-0.14767078707528325 -5.811623246492992e-2,-0.1587817203815095 -5.4108216432865786e-2,-0.1469712651710281 -5.010020040080165e-2,-0.14900319407812856 -4.609218436873752e-2,-0.1503262738976784 -4.208416833667339e-2,-0.1575380242781501 -3.8076152304609256e-2,-0.15106068300205455 -3.4068136272545124e-2,-0.15000170205006558 -3.0060120240480992e-2,-0.16303388196021718 -2.605210420841686e-2,-0.17020818335200572 -2.204408817635284e-2,-0.17092167709726191 -1.8036072144288706e-2,-0.17651007435761157 -1.4028056112224574e-2,-0.18032823259283481 -1.0020040080160442e-2,-0.17833475954913325 -6.012024048096309e-3,-0.1703794281473544 -2.004008016032177e-3,-0.17090589423371594 2.004008016031955e-3,-0.17145450397575546 6.012024048096087e-3,-0.18208544150951755 1.002004008016022e-2,-0.18444868040717521 1.4028056112224352e-2,-0.18205698809738824 1.8036072144288484e-2,-0.1909242922601614 2.2044088176352616e-2,-0.19193024324878616 2.605210420841675e-2,-0.1931578342082878 3.006012024048088e-2,-0.18994743785632995 3.406813627254501e-2,-0.19504266641051238 3.8076152304609145e-2,-0.19578518788636579 4.208416833667328e-2,-0.1948345700877261 4.609218436873741e-2,-0.1940990426110908 5.010020040080154e-2,-0.19146555250073427 5.4108216432865675e-2,-0.19694650567208905 5.811623246492981e-2,-0.1934019780158961 6.212424849699394e-2,-0.1921905918809622 6.613226452905807e-2,-0.18647820088247435 7.01402805611222e-2,-0.1794778503051896 7.414829659318634e-2,-0.17757058711191342 7.815631262525047e-2,-0.1895997873649885 8.21643286573146e-2,-0.1918288987139799 8.617234468937873e-2,-0.1973509466704939 9.018036072144286e-2,-0.19631999742774764 9.4188376753507e-2,-0.20016885710702337 9.819639278557113e-2,-0.20291756607671807 0.10220440881763526,-0.20244605336633326 0.1062124248496994,-0.19962985720425008 0.11022044088176353,-0.2082987581413921 0.11422845691382766,-0.19191182770991022 0.11823647294589179,-0.19095951963355817 0.12224448897795592,-0.19668305688089982 0.12625250501002006,-0.19250197613525089 0.13026052104208397,-0.1952305554641558 0.1342685370741481,-0.20054003455933433 0.13827655310621223,-0.20978996430248997 0.14228456913827636,-0.2093731215009199 0.1462925851703405,-0.2107349557158391 0.15030060120240463,-0.2120301363350009 0.15430861723446876,-0.2154325029772749 0.1583166332665329,-0.2158174097990716 0.16232464929859702,-0.21025227235009125 0.16633266533066116,-0.2127104815670091 0.1703406813627253,-0.21228166216954436 0.17434869739478942,-0.2173169016669272 0.17835671342685355,-0.21628540691218967 0.18236472945891768,-0.21621355225326322 0.18637274549098182,-0.2138202797481894 0.19038076152304595,-0.21466389608800696 0.19438877755511008,-0.2150269648423605 0.1983967935871742,-0.22188088531783545 0.20240480961923835,-0.21949950185837186 0.20641282565130248,-0.2186633720329617 0.2104208416833666,-0.2220397632315062 0.21442885771543074,-0.22237859515199931 0.21843687374749488,-0.2226140193679752 0.222444889779559,-0.21577707915543498 0.22645290581162314,-0.21351341803974888 0.23046092184368727,-0.2210406507483461 0.2344689378757514,-0.21676146088784454 0.23847695390781554,-0.2023817067411131 0.24248496993987967,-0.20068513243336783 0.2464929859719438,-0.1978224563977633 0.25050100200400793,-0.2006061884432605 0.25450901803607207,-0.17990554907203005 0.2585170340681362,-0.18642830911924113 0.26252505010020033,-0.19108364481825646 0.26653306613226446,-0.19822139748289325 0.2705410821643286,-0.19302574132838424 0.2745490981963927,-0.1871170133668958 0.27855711422845686,-0.19396429030598417 0.282565130260521,-0.19133362738680149 0.2865731462925851,-0.18109620963638862 0.29058116232464926,-0.1820793714930078 0.2945891783567134,-0.17491428719289615 0.2985971943887775,-0.1690504013438574 0.30260521042084165,-0.17077388958683049 0.3066132264529058,-0.15966072244203833 0.3106212424849699,-0.15742267306738078 0.31462925851703405,-0.17519104013936626 0.3186372745490982,-0.18188134604127326 0.3226452905811623,-0.186827745474626 0.32665330661322645,-0.1953306238706426 0.3306613226452906,-0.19891917249632862 0.3346693386773545,-0.1983048877125323 0.3386773547094186,-0.19628832888843695 0.34268537074148275,-0.19940032649437323 0.3466933867735469,-0.19772860468318898 0.350701402805611,-0.19819418509944753 0.35470941883767515,-0.2059393546354089 0.3587174348697393,-0.20803101386181644 0.3627254509018034,-0.21547531292902944 0.36673346693386755,-0.21393688451241333 0.3707414829659317,-0.2120192869026053 0.3747494989979958,-0.20361252263622642 0.37875751503005994,-0.20221386126021723 0.3827655310621241,-0.20503887337020543 0.3867735470941882,-0.2094401627464575 0.39078156312625234,-0.21538280381867614 0.3947895791583165,-0.21733256976306825 0.3987975951903806,-0.2231963116128315 0.40280561122244474,-0.22112433280408073 0.40681362725450887,-0.2165395604358843 0.410821643286573,-0.2170707606423281 0.41482965931863713,-0.2203177895263696 0.41883767535070127,-0.2216837171400866 0.4228456913827654,-0.22497543563922973 0.42685370741482953,-0.22453881250401653 0.43086172344689366,-0.22111814897392368 0.4348697394789578,-0.2151119992267566 0.4388777555110219,-0.21760765495000334 0.44288577154308606,-0.21193400354634984 0.4468937875751502,-0.21383558019163595 0.4509018036072143,-0.21905158014999482 0.45490981963927846,-0.2224259689783361 0.4589178356713426,-0.21747062290928199 0.4629258517034067,-0.22309730640484893 0.46693386773547085,-0.22118483114871812 0.470941883767535,-0.21848755180397994 0.4749498997995991,-0.208846768696341 0.47895791583166325,-0.20089074671125773 0.4829659318637274,-0.19445632277217884 0.4869739478957915,-0.16898258649786124 0.49098196392785565,-0.17973862833086907 0.4949899799599198,-0.18024680567607265 0.4989979959919839,-0.19560374198959274 0.503006012024048,-0.18978132728912966 0.5070140280561122,-0.1792204210943923 0.5110220440881763,-0.19161201364286262 0.5150300601202404,-0.16658358423456054 0.5190380761523046,-0.1686357445551947 0.5230460921843687,-0.18055365417584335 0.5270541082164328,-0.190443842325702 0.531062124248497,-0.18358325501795003 0.5350701402805611,-0.19025917288868088 0.539078156312625,-0.1896013207500723 0.5430861723446891,-0.16746153706746014 0.5470941883767533,-0.17655741737035313 0.5511022044088174,-0.17378453558575202 0.5551102204408815,-0.17915086380555778 0.5591182364729457,-0.18953362501489956 0.5631262525050098,-0.18984047946941884 0.5671342685370739,-0.18383879213891285 0.5711422845691381,-0.1926546352250762 0.5751503006012022,-0.20316768004875851 0.5791583166332663,-0.20356121156901474 0.5831663326653305,-0.20311386515645313 0.5871743486973946,-0.2030179250975771 0.5911823647294587,-0.2086581583604411 0.5951903807615229,-0.2106343279520958 0.599198396793587,-0.20959062981703658 0.6032064128256511,-0.20654393665045534 0.6072144288577153,-0.20829405604756213 0.6112224448897794,-0.20816329469279382 0.6152304609218435,-0.20776492837072535 0.6192384769539077,-0.20326376978534655 0.6232464929859718,-0.2028169648082102 0.6272545090180359,-0.1954113155334848 0.6312625250501,-0.2002408041763425 0.6352705410821642,-0.19787824650451413 0.6392785571142283,-0.19312350629844488 0.6432865731462925,-0.19705511573689638 0.6472945891783566,-0.1864716745834638 0.6513026052104207,-0.17121752616917363 0.6553106212424848,-0.17778961859400244 0.659318637274549,-0.18944357088769093 0.6633266533066131,-0.18547510564481162 0.6673346693386772,-0.1722163902675251 0.6713426853707414,-0.17971438536221584 0.6753507014028055,-0.1849137554215038 0.6793587174348696,-0.19379846674645906 0.6833667334669338,-0.19237027601653456 0.6873747494989979,-0.2003693751997183 0.691382765531062,-0.19836420452325398 0.6953907815631262,-0.20034659974089863 0.6993987975951903,-0.19673692782507968 0.7034068136272544,-0.2021434830913016 0.7074148296593186,-0.1988092042389974 0.7114228456913827,-0.20085721599078188 0.7154308617234468,-0.20211425946125472 0.719438877755511,-0.20514707545505928 0.7234468937875751,-0.20940082572775565 0.7274549098196392,-0.20827942739900418 0.7314629258517034,-0.2105702368516139 0.7354709418837675,-0.20760808485251636 0.7394789579158316,-0.215212583293528 0.7434869739478958,-0.2178083778210288 0.7474949899799597,-0.21630816838161027 0.7515030060120238,-0.2163969693827451 0.7555110220440879,-0.2181717887817356 0.7595190380761521,-0.21978803552915738 0.7635270541082162,-0.21761965467211675 0.7675350701402803,-0.21841303948225055 0.7715430861723445,-0.2184883161707628 0.7755511022044086,-0.2186673572953589 0.7795591182364727,-0.22453615247834768 0.7835671342685369,-0.22437663415731957 0.787575150300601,-0.2233054800051626 0.7915831663326651,-0.21960277247444127 0.7955911823647293,-0.21775327165708014 0.7995991983967934,-0.21905297757206998 0.8036072144288575,-0.22476223189182498 0.8076152304609217,-0.2260090006982266 0.8116232464929858,-0.22888722493105185 0.8156312625250499,-0.22491533897997373 0.819639278557114,-0.21710858080531648 0.8236472945891782,-0.21105356306211465 0.8276553106212423,-0.2158630653213709 0.8316633266533064,-0.21662042417827698 0.8356713426853706,-0.22369989097745635 0.8396793587174347,-0.22048948810418678 0.8436873747494988,-0.21903655276040235 0.847695390781563,-0.22093292292168054 0.8517034068136271,-0.22750623211979715 0.8557114228456912,-0.22695828491933934 0.8597194388777554,-0.2322910000117281 0.8637274549098195,-0.23191409707167532 0.8677354709418836,-0.23090123318286193 0.8717434869739478,-0.2339668874417331 0.8757515030060119,-0.23740458657181163 0.879759519038076,-0.23741868211609107 0.8837675350701402,-0.2365482217279523 0.8877755511022043,-0.24011216403199886 0.8917835671342684,-0.23940598892898557 0.8957915831663326,-0.2338469506967793 0.8997995991983967,-0.23562665644261027 0.9038076152304608,-0.24189065051369985 0.907815631262525,-0.23523395376787248 0.9118236472945891,-0.23748769099340705 0.9158316633266532,-0.23444000421735345 0.9198396793587174,-0.23783784652323703 0.9238476953907815,-0.24265406728027017 0.9278557114228456,-0.23951131044199092 0.9318637274549098,-0.24457645436676856 0.9358717434869739,-0.2425341843962745 0.939879759519038,-0.24333259164157528 0.9438877755511021,-0.24950936540918844 0.9478957915831663,-0.2518933261136469 0.9519038076152302,-0.24882799177105142 0.9559118236472943,-0.24824721216280543 0.9599198396793585,-0.2483816850039665 0.9639278557114226,-0.23999472669943311 0.9679358717434867,-0.22604765999388365 0.9719438877755509,-0.233790365117589 0.975951903807615,-0.23239635508467227 0.9799599198396791,-0.23434702848287736 0.9839679358717432,-0.21878248213427443 0.9879759519038074,-0.22428525933153987 0.9919839679358715,-0.23610069569936232 0.9959919839679356,-0.24472988425911135 0.9999999999999998,-0.2467161346066561" /></g><g stroke-width="5.0e-3" stroke="#02C814" fill="none" stroke-opacity="0.5"><polyline points="-1.0,-0.2132927281095427 -0.9959919839679359,-0.2140820319984723 -0.9919839679358717,-0.21898591882436602 -0.9879759519038076,-0.22335786212149267 -0.9839679358717435,-0.22323991878853933 -0.9799599198396793,-0.22072905320928804 -0.9759519038076152,-0.2183644181032448 -0.9719438877755511,-0.2184997194680316 -0.9679358717434869,-0.22435748685356194 -0.9639278557114228,-0.22857065754503614 -0.9599198396793587,-0.22338929575284439 -0.9559118236472945,-0.21885879289327992 -0.9519038076152304,-0.2134888596267962 -0.9478957915831663,-0.2152077670330529 -0.9438877755511023,-0.2191765882591652 -0.9398797595190381,-0.2199421857494661 -0.935871743486974,-0.21951356673872335 -0.9318637274549099,-0.22096994153092098 -0.9278557114228457,-0.22728830606594852 -0.9238476953907816,-0.22652562019340383 -0.9198396793587175,-0.2238218358948123 -0.9158316633266533,-0.22137655784856936 -0.9118236472945892,-0.22082945057134484 -0.9078156312625251,-0.22122928052083168 -0.9038076152304609,-0.2155466119758329 -0.8997995991983968,-0.21588605384225923 -0.8957915831663327,-0.21496167627760976 -0.8917835671342685,-0.20507791232457395 -0.8877755511022044,-0.1968723572375526 -0.8837675350701403,-0.2068847228681827 -0.8797595190380761,-0.20010434867554572 -0.875751503006012,-0.19884731569328684 -0.8717434869739479,-0.2038730812984677 -0.8677354709418837,-0.19516574515883578 -0.8637274549098196,-0.19977222346455492 -0.8597194388777555,-0.20396427131909523 -0.8557114228456915,-0.2063763333081211 -0.8517034068136273,-0.19783707679817863 -0.8476953907815632,-0.1989517512410679 -0.8436873747494991,-0.20505587498422084 -0.8396793587174349,-0.2027959197440461 -0.8356713426853708,-0.20572540666455308 -0.8316633266533067,-0.20446161324621837 -0.8276553106212425,-0.20732771741406897 -0.8236472945891784,-0.21112972569797728 -0.8196392785571143,-0.21124145524998206 -0.8156312625250501,-0.20888478337440386 -0.811623246492986,-0.20547779555108192 -0.8076152304609219,-0.2053242157763211 -0.8036072144288577,-0.20010074636045638 -0.7995991983967936,-0.200638077225628 -0.7955911823647295,-0.20437256303919937 -0.7915831663326653,-0.20461979723267998 -0.7875751503006012,-0.20137378158476782 -0.7835671342685371,-0.20216999107818856 -0.779559118236473,-0.19930785402812268 -0.7755511022044088,-0.1983186894210882 -0.7715430861723447,-0.20292997334134633 -0.7675350701402806,-0.20405586409431864 -0.7635270541082164,-0.20378939416140496 -0.7595190380761523,-0.20721593539762295 -0.7555110220440882,-0.21051050890500822 -0.751503006012024,-0.2109500588871308 -0.7474949899799599,-0.21108100364553284 -0.7434869739478958,-0.2083276291418048 -0.7394789579158316,-0.20964903064661644 -0.7354709418837675,-0.20913890956007597 -0.7314629258517034,-0.20797001142709337 -0.7274549098196392,-0.2105196912053683 -0.7234468937875751,-0.20915820259280293 -0.719438877755511,-0.21017256483319202 -0.7154308617234469,-0.20922762717473864 -0.7114228456913828,-0.20816320384621934 -0.7074148296593187,-0.20366778458856294 -0.7034068136272545,-0.2081768750818349 -0.6993987975951904,-0.205436211905885 -0.6953907815631263,-0.20925794014960086 -0.6913827655310621,-0.21072242505430205 -0.687374749498998,-0.21078665040929523 -0.6833667334669339,-0.21374427298012333 -0.6793587174348698,-0.21327157667527885 -0.6753507014028056,-0.21421767469690456 -0.6713426853707415,-0.21440133845060017 -0.6673346693386774,-0.21483271394704395 -0.6633266533066133,-0.2131315403176084 -0.6593186372745492,-0.21383606142307998 -0.6553106212424851,-0.2132524457784709 -0.6513026052104209,-0.21226248233887057 -0.6472945891783568,-0.21057655014462895 -0.6432865731462927,-0.21101224967753918 -0.6392785571142285,-0.20847447156807275 -0.6352705410821644,-0.20897406974752808 -0.6312625250501003,-0.20370727321216442 -0.6272545090180361,-0.2043531296128973 -0.623246492985972,-0.2010129563029459 -0.6192384769539079,-0.20312316938283692 -0.6152304609218437,-0.2032408442614585 -0.6112224448897796,-0.20420360644474356 -0.6072144288577155,-0.20221969515739546 -0.6032064128256514,-0.20520980715348747 -0.5991983967935872,-0.2081348906678071 -0.5951903807615231,-0.2111700391390533 -0.591182364729459,-0.21224395721656575 -0.5871743486973948,-0.20943820338757857 -0.5831663326653307,-0.21243723450681595 -0.5791583166332666,-0.21263083616663836 -0.5751503006012024,-0.21205317813387958 -0.5711422845691383,-0.2133033164256951 -0.5671342685370742,-0.21388721619842332 -0.56312625250501,-0.21223409871613963 -0.5591182364729459,-0.21168817918957727 -0.5551102204408818,-0.2121610658328439 -0.5511022044088176,-0.21370146862658557 -0.5470941883767535,-0.21679892233081854 -0.5430861723446894,-0.2154729092851475 -0.5390781563126252,-0.2128610246402317 -0.5350701402805611,-0.2105576104887934 -0.531062124248497,-0.21213975730626378 -0.5270541082164328,-0.2115624037560534 -0.5230460921843687,-0.21315410283588587 -0.5190380761523046,-0.21463612398727594 -0.5150300601202404,-0.2157107626991257 -0.5110220440881764,-0.21652168657313253 -0.5070140280561123,-0.21620905553987846 -0.5030060120240482,-0.2154693210045897 -0.498997995991984,-0.21266532459144993 -0.4949899799599199,-0.21100854183691065 -0.49098196392785576,-0.2131256872071331 -0.4869739478957916,-0.21015650702939148 -0.4829659318637275,-0.21282655937502715 -0.47895791583166336,-0.2138279543720275 -0.47494989979959923,-0.21450136078232707 -0.4709418837675351,-0.21504173579470587 -0.46693386773547096,-0.21468747037425462 -0.46292585170340683,-0.21386647732350506 -0.4589178356713427,-0.21589689850019633 -0.45490981963927857,-0.2184462622069826 -0.45090180360721444,-0.2183189840284856 -0.4468937875751503,-0.22014936074968083 -0.44288577154308617,-0.21831362091868012 -0.43887775551102204,-0.2181383782346198 -0.434869739478958,-0.21731773143804511 -0.4308617234468939,-0.21608542060418567 -0.42685370741482975,-0.21455152138116673 -0.4228456913827656,-0.21354522004493826 -0.4188376753507015,-0.21402595440331296 -0.41482965931863736,-0.2151664347552671 -0.4108216432865732,-0.21508523271949653 -0.4068136272545091,-0.21677341505632275 -0.40280561122244496,-0.21665609966878963 -0.3987975951903808,-0.2144298896298975 -0.3947895791583167,-0.21615033143036144 -0.39078156312625256,-0.21638725888581223 -0.38677354709418843,-0.21898107406339096 -0.3827655310621243,-0.21862290630035885 -0.37875751503006017,-0.21713323663380002 -0.37474949899799603,-0.21644652025613098 -0.3707414829659319,-0.21504874718704692 -0.36673346693386777,-0.21583102040595348 -0.36272545090180364,-0.21561680591908616 -0.3587174348697395,-0.21671011052645028 -0.35470941883767537,-0.21635238940128787 -0.35070140280561124,-0.21639364019572616 -0.3466933867735471,-0.21323914308227465 -0.342685370741483,-0.2110523199974278 -0.33867735470941884,-0.2107199187143598 -0.3346693386773547,-0.21002239916897958 -0.3306613226452907,-0.19787151887679122 -0.32665330661322656,-0.19029678462803323 -0.3226452905811624,-0.19524300832902308 -0.3186372745490983,-0.19300169427477865 -0.31462925851703416,-0.20049456773148544 -0.31062124248497003,-0.2002590946665922 -0.3066132264529059,-0.1949337355914309 -0.30260521042084176,-0.19468345929654984 -0.29859719438877763,-0.1930242184901818 -0.2945891783567135,-0.19093750609457272 -0.29058116232464937,-0.17964111297482444 -0.28657314629258523,-0.18617176275844172 -0.2825651302605211,-0.17985162748000327 -0.27855711422845697,-0.17744765171431143 -0.27454909819639284,-0.18294502996458817 -0.2705410821643287,-0.18672309152132005 -0.2665330661322646,-0.1903804520140313 -0.26252505010020044,-0.18802124828808164 -0.2585170340681363,-0.18991927950143994 -0.2545090180360722,-0.19204196443868649 -0.25050100200400804,-0.19940522395394444 -0.2464929859719439,-0.1983713126863329 -0.24248496993987978,-0.19494760347807838 -0.23847695390781565,-0.1877486426487457 -0.23446893787575152,-0.18713127175560085 -0.2304609218436875,-0.18434326764215836 -0.22645290581162336,-0.1880134904822265 -0.22244488977955923,-0.18871162591529034 -0.2184368737474951,-0.1826554302960799 -0.21442885771543096,-0.17608153153876793 -0.21042084168336683,-0.17712033788162806 -0.2064128256513027,-0.17474137036782167 -0.20240480961923857,-0.1801767235511854 -0.19839679358717444,-0.1812745286183196 -0.1943887775551103,-0.1892689320661073 -0.19038076152304617,-0.18839776642690298 -0.18637274549098204,-0.19119019680775695 -0.1823647294589179,-0.1949427425026814 -0.17835671342685377,-0.1831648200111603 -0.17434869739478964,-0.1825550340182044 -0.1703406813627255,-0.1741307139658853 -0.16633266533066138,-0.17472237402459623 -0.16232464929859725,-0.1745619933429312 -0.1583166332665331,-0.1764412064538904 -0.15430861723446898,-0.17632896369453865 -0.15030060120240485,-0.16947137385949818 -0.14629258517034072,-0.16203593613199996 -0.14228456913827658,-0.16208612747994955 -0.13827655310621245,-0.15662146525303677 -0.13426853707414832,-0.15104618254428726 -0.1302605210420842,-0.14376288184135333 -0.12625250501002017,-0.1341515669715857 -0.12224448897795603,-0.1513815107608053 -0.1182364729458919,-0.15445633844750872 -0.11422845691382777,-0.15406956152318452 -0.11022044088176364,-0.15710699556941232 -0.1062124248496995,-0.15759469228185186 -0.10220440881763537,-0.1487913565257749 -9.819639278557124e-2,-0.16077134593842124 -9.418837675350711e-2,-0.16325913386739 -9.018036072144298e-2,-0.16667429155282198 -8.617234468937884e-2,-0.1681153759440649 -8.216432865731471e-2,-0.16969750058374666 -7.815631262525058e-2,-0.16963315772250165 -7.414829659318645e-2,-0.16776435817607815 -7.014028056112231e-2,-0.17151430262597522 -6.613226452905818e-2,-0.17227505539464727 -6.212424849699405e-2,-0.1749127106290137 -5.811623246492992e-2,-0.17948569721068053 -5.4108216432865786e-2,-0.1744162357665442 -5.010020040080165e-2,-0.17515737364559836 -4.609218436873752e-2,-0.1756049100020195 -4.208416833667339e-2,-0.17853850244936453 -3.8076152304609256e-2,-0.1757198971661985 -3.4068136272545124e-2,-0.17516968563115431 -3.0060120240480992e-2,-0.180554021645703 -2.605210420841686e-2,-0.18350206723573048 -2.204408817635284e-2,-0.1837465197762036 -1.8036072144288706e-2,-0.1860453982602457 -1.4028056112224574e-2,-0.18761247923063595 -1.0020040080160442e-2,-0.18674283264357472 -6.012024048096309e-3,-0.18336004050675347 -2.004008016032177e-3,-0.18352688104007098 2.004008016031955e-3,-0.18370451494098128 6.012024048096087e-3,-0.18812345973532407 1.002004008016022e-2,-0.18909164102589782 1.4028056112224352e-2,-0.18806677375535163 1.8036072144288484e-2,-0.19176810136961042 2.2044088176352616e-2,-0.19218723338007038 2.605210420841675e-2,-0.19270185842664356 3.006012024048088e-2,-0.1913553691566644 3.406813627254501e-2,-0.19348908965465572 3.8076152304609145e-2,-0.1938073607509575 4.208416833667328e-2,-0.19341663118285868 4.609218436873741e-2,-0.19311389655128253 5.010020040080154e-2,-0.19201301581517005 5.4108216432865675e-2,-0.19431008973618347 5.811623246492981e-2,-0.19283443751427642 6.212424849699394e-2,-0.1923288126254592 6.613226452905807e-2,-0.18993314597101962 7.01402805611222e-2,-0.18698411282385052 7.414829659318634e-2,-0.18615326617161954 7.815631262525047e-2,-0.19115801464279691 8.21643286573146e-2,-0.19208539723550266 8.617234468937873e-2,-0.19439742000474536 9.018036072144286e-2,-0.19397802712034473 9.4188376753507e-2,-0.1955994641521649 9.819639278557113e-2,-0.19676935145783414 0.10220440881763526,-0.19659773404958136 0.1062124248496994,-0.19544364912298995 0.11022044088176353,-0.1990884201001506 0.11422845691382766,-0.1922715816926417 0.11823647294589179,-0.1918717554936794 0.12224448897795592,-0.19426148503387797 0.12625250501002006,-0.19252342736354977 0.13026052104208397,-0.19366400270978024 0.1342685370741481,-0.19588975110792917 0.13827655310621223,-0.199774690565508 0.14228456913827636,-0.19964238646166055 0.1462925851703405,-0.20025195436323062 0.15030060120240463,-0.2008367189481618 0.15430861723446876,-0.20230431293748008 0.1583166332665329,-0.20251985633327807 0.16232464929859702,-0.20025218477342932 0.16633266533066116,-0.20131995677823245 0.1703406813627253,-0.201188555669639 0.17434869739478942,-0.20333576728171365 0.17835671342685355,-0.20296380336729236 0.18236472945891768,-0.20298941600407905 0.18637274549098182,-0.20204651876790547 0.19038076152304595,-0.2024473801550265 0.19438877755511008,-0.2026496855859995 0.1983967935871742,-0.2055581403344161 0.20240480961923835,-0.20463374551978697 0.20641282565130248,-0.20434730859437134 0.2104208416833666,-0.20581361626719974 0.21442885771543074,-0.20602236482083325 0.21843687374749488,-0.20618855414155168 0.222444889779559,-0.203410015825356 0.22645290581162314,-0.20251906700583733 0.23046092184368727,-0.20569823172871848 0.2344689378757514,-0.20398108190455477 0.23847695390781554,-0.19805029981869415 0.24248496993987967,-0.1973624282221409 0.2464929859719438,-0.19618536223236005 0.25050100200400793,-0.19735004155470715 0.25450901803607207,-0.1887547021397188 0.2585170340681362,-0.19143012492010325 0.26252505010020033,-0.19334475659368 0.26653306613226446,-0.19630237718408705 0.2705410821643286,-0.19415095905625812 0.2745490981963927,-0.19169090161383118 0.27855711422845686,-0.1945168503549718 0.282565130260521,-0.193421714369726 0.2865731462925851,-0.18916082161508718 0.29058116232464926,-0.18953562521238132 0.2945891783567134,-0.18652946760906852 0.2985971943887775,-0.18404671316498744 0.30260521042084165,-0.18469988248490732 0.3066132264529058,-0.18002957972068434 0.3106212424849699,-0.17901627343838256 0.31462925851703405,-0.18629917275740981 0.3186372745490982,-0.1890286349599245 0.3226452905811623,-0.19105075422836582 0.32665330661322645,-0.19455972434447988 0.3306613226452906,-0.19605102132452734 0.3346693386773545,-0.19580822140188858 0.3386773547094186,-0.19498258994527495 0.34268537074148275,-0.19627792613970418 0.3466933867735469,-0.19559804055561825 0.350701402805611,-0.19579979887728283 0.35470941883767515,-0.19901871576888697 0.3587174348697393,-0.19991388915365926 0.3627254509018034,-0.20303098132443187 0.36673346693386755,-0.20244539554029983 0.3707414829659317,-0.20169893577061648 0.3747494989979958,-0.1982610174314563 0.37875751503005994,-0.19770416788268208 0.3827655310621241,-0.19889215454681308 0.3867735470941882,-0.2007391093689065 0.39078156312625234,-0.20323419625554728 0.3947895791583165,-0.2040911764472645 0.3987975951903806,-0.20657172872562413 0.40280561122244474,-0.20578346905553868 0.40681362725450887,-0.2039507730358091 0.410821643286573,-0.20422250264418396 0.41482965931863713,-0.20561817012122086 0.41883767535070127,-0.20624363972666027 0.4228456913827654,-0.20766812316252958 0.42685370741482953,-0.20755921093372875 0.43086172344689366,-0.20621581564085156 0.4348697394789578,-0.20379571055858103 0.4388777555110219,-0.20487352010267423 0.44288577154308606,-0.20258243841916412 0.4468937875751502,-0.20340647855242933 0.4509018036072143,-0.2056036428528747 0.45490981963927846,-0.2070525470409842 0.4589178356713426,-0.2050701128840855 0.4629258517034067,-0.20744410918220713 0.46693386773547085,-0.20671932711975716 0.470941883767535,-0.20566583516908188 0.4749498997995991,-0.2017403774448565 0.47895791583166325,-0.1984869751667413 0.4829659318637274,-0.1958423227690903 0.4869739478957915,-0.18532852906877428 0.49098196392785565,-0.18969748265271114 0.4949899799599198,-0.18986597998047305 0.4989979959919839,-0.1961587921590089 0.503006012024048,-0.1937559058499001 0.5070140280561122,-0.18938575939180224 0.5110220440881763,-0.19445169359564285 0.5150300601202404,-0.18412446315535091 0.5190380761523046,-0.18489786677880715 0.5230460921843687,-0.18974165975396406 0.5270541082164328,-0.19377859410044684 0.531062124248497,-0.1909386036274262 0.5350701402805611,-0.19365815126696284 0.539078156312625,-0.19337320934866098 0.5430861723446891,-0.1842403217004086 0.5470941883767533,-0.18791654612196362 0.5511022044088174,-0.18672814369954327 0.5551102204408815,-0.1888839781232341 0.5591182364729457,-0.19311762666020738 0.5631262525050098,-0.19322916590863148 0.5671342685370739,-0.19074539362311038 0.5711422845691381,-0.1943444676765369 0.5751503006012022,-0.19866287351078415 0.5791583166332663,-0.1988432991931658 0.5831663326653305,-0.1986786989456265 0.5871743486973946,-0.19865748348211898 0.5911823647294587,-0.20099491937509006 0.5951903807615229,-0.20183902760751948 0.599198396793587,-0.20144607683689097 0.6032064128256511,-0.20022705283937103 0.6072144288577153,-0.20097242536492954 0.6112224448897794,-0.2009487770004902 0.6152304609218435,-0.20081471348033875 0.6192384769539077,-0.198993639990511 0.6232464929859718,-0.19882760383704123 0.6272545090180359,-0.1958014911760505 0.6312625250501,-0.1977838002768838 0.6352705410821642,-0.19682347932485655 0.6392785571142283,-0.19487502378948396 0.6432865731462925,-0.19648238382115846 0.6472945891783566,-0.19213900347809365 0.6513026052104207,-0.1858527931592956 0.6553106212424848,-0.18849074402021437 0.659318637274549,-0.19323060567685535 0.6633266533066131,-0.19158622792096458 0.6673346693386772,-0.18611975089056898 0.6713426853707414,-0.18913956046528646 0.6753507014028055,-0.19123427156577544 0.6793587174348696,-0.19485350838062698 0.6833667334669338,-0.19426328941082116 0.6873747494989979,-0.19753668124805956 0.691382765531062,-0.1967258812420355 0.6953907815631262,-0.1975455967451436 0.6993987975951903,-0.19607687754704484 0.7034068136272544,-0.19829641048681335 0.7074148296593186,-0.19694518080125045 0.7114228456913827,-0.1977923931780543 0.7154308617234468,-0.1983202236418019 0.719438877755511,-0.19957881483204165 0.7234468937875751,-0.20134492121069292 0.7274549098196392,-0.20091840593940735 0.7314629258517034,-0.2018872129443947 0.7354709418837675,-0.200709187150942 0.7394789579158316,-0.20385273915797586 0.7434869739478958,-0.20496257640299842 0.7474949899799597,-0.20440073171276585 0.7515030060120238,-0.20448587022316744 0.7555110220440879,-0.2052614522757661 0.7595190380761521,-0.20597612231674112 0.7635270541082162,-0.20514487694676187 0.7675350701402803,-0.20552075658996538 0.7715430861723445,-0.2056043504012005 0.7755511022044086,-0.20573037469877764 0.7795591182364727,-0.20818529078607806 0.7835671342685369,-0.20818692879359835 0.787575150300601,-0.20781486409801908 0.7915831663326651,-0.20636323508561005 0.7955911823647293,-0.20566072485349074 0.7995991983967934,-0.206241894263542 0.8036072144288575,-0.2086296886644612 0.8076152304609217,-0.20920562634623363 0.8116232464929858,-0.21045148748478182 0.8156312625250499,-0.2089026105095263 0.819639278557114,-0.20577585938592036 0.8236472945891782,-0.2033464831716899 0.8276553106212423,-0.2053442823003767 0.8316633266533064,-0.20569689252871703 0.8356713426853706,-0.20863536520875625 0.8396793587174347,-0.20738476504144643 0.8436873747494988,-0.20684452466327452 0.847695390781563,-0.20766931370938269 0.8517034068136271,-0.210409503655833 0.8557114228456912,-0.21025547954006496 0.8597194388777554,-0.21250240645519725 0.8637274549098195,-0.2124292801604123 0.8677354709418836,-0.21209514106830696 0.8717434869739478,-0.21342411448118492 0.8757515030060119,-0.21491201698649753 0.879759519038076,-0.2150096334190713 0.8837675350701402,-0.2147456975302312 0.8877755511022043,-0.21628991787376795 0.8917835671342684,-0.2160988695019832 0.8957915831663326,-0.21392458841321027 0.8997995991983967,-0.21473240987226305 0.9038076152304608,-0.21737450993748497 0.907815631262525,-0.2147576956636087 0.9118236472945891,-0.2157610369858075 0.9158316633266532,-0.21460601407065416 0.9198396793587174,-0.2160734174166815 0.9238476953907815,-0.21812729381938856 0.9278557114228456,-0.21694518629355186 0.9318637274549098,-0.21910355335918774 0.9358717434869739,-0.21837439638097522 0.939879759519038,-0.21879860019006103 0.9438877755511021,-0.22141786069001235 0.9478957915831663,-0.22250464948636728 0.9519038076152302,-0.22137449843689516 0.9559118236472943,-0.22124963134786046 0.9599198396793585,-0.2214145395374003 0.9639278557114226,-0.21810519757250335 0.9679358717434867,-0.2125087746198575 0.9719438877755509,-0.21572011636699118 0.975951903807615,-0.21522557809082665 0.9799599198396791,-0.2160905940615222 0.9839679358717432,-0.20982188012699943 0.9879759519038074,-0.212100810262141 0.9919839679358715,-0.21696495964089124 0.9959919839679356,-0.22055885001616815 0.9999999999999998,-0.22146655831383466" /></g><g /><g stroke-width="4.0e-3" stroke="#3764A0" fill="#FFFFFF" fill-opacity="1.0" stroke-opacity="0.5"><rect width="0.4304462887010113" height="0.25817398204276576" x="0.3449300744674789" y="8.456460076186187e-2" /></g><g stroke-width="0.0" stroke="none" fill="#666666" fill-opacity="1.0" font-size="4.000000000000001e-2" text-anchor="start"><text x="0.3686788352233968" y="0.30338864502115775">rate = 0.996</text></g><g stroke-width="5.0e-3" stroke="#02C814" fill="none" stroke-opacity="0.5"><polyline points="0.7011614858062469,0.2970542647925992 0.7486590073180825,0.2970542647925992" /></g><g stroke-width="0.0" stroke="none" fill="#666666" fill-opacity="1.0" font-size="4.000000000000001e-2" text-anchor="start"><text x="0.3686788352233968" y="0.24868263395633378">rate = 0.99</text></g><g stroke-width="5.0e-3" stroke="#382A8C" fill="none" stroke-opacity="0.5"><polyline points="0.7011614858062469,0.24234825372777521 0.7486590073180825,0.24234825372777521" /></g><g stroke-width="0.0" stroke="none" fill="#666666" fill-opacity="1.0" font-size="4.000000000000001e-2" text-anchor="start"><text x="0.3686788352233968" y="0.1939766228915098">rate = 0.95</text></g><g stroke-width="5.0e-3" stroke="#3C7F2B" fill="none" stroke-opacity="0.5"><polyline points="0.7011614858062469,0.1876422426629512 0.7486590073180825,0.1876422426629512" /></g><g stroke-width="0.0" stroke="none" fill="#666666" fill-opacity="1.0" font-size="4.000000000000001e-2" text-anchor="start"><text x="0.3686788352233968" y="0.13927061182668582">zero</text></g><g stroke-width="5.0e-3" stroke="#C58C4B" fill="none" stroke-opacity="0.5"><polyline points="0.7011614858062468,0.13293623159812726 0.7486590073180825,0.13293623159812726" /></g><g /></svg>