<?xml version="1.0" encoding="UTF-8"?>
<!DOCTYPE svg PUBLIC "-//W3C//DTD SVG 1.1//EN"
    "http://www.w3.org/Graphics/SVG/1.1/DTD/svg11.dtd"><svg xmlns="http://www.w3.org/2000/svg" height="400.0000" stroke-opacity="1" viewBox="0 0 600 400" font-size="1" width="600.0000" xmlns:xlink="http://www.w3.org/1999/xlink" stroke="rgb(0,0,0)" version="1.1"><defs></defs><g stroke-linejoin="miter" stroke-opacity="0.0" fill-opacity="0.2" stroke="rgb(0,0,0)" stroke-width="0.0" fill="rgb(85,85,85)" stroke-linecap="butt" stroke-miterlimit="10.0"><path d="M 94.4056,321.6783 l -0.0000,-279.7203 h -5.5944 l -0.0000,279.7203 Z"/></g><g stroke-linejoin="miter" stroke-opacity="1.0" fill-opacity="0.7" font-size="11.188811188811187px" stroke="rgb(0,0,0)" stroke-width="1.9296726052976874" fill="rgb(51,51,51)" stroke-linecap="butt" stroke-miterlimit="10.0"><text dominant-baseline="middle" transform="matrix(1.0000,0.0000,0.0000,1.0000,80.4196,47.2526)" stroke="none" text-anchor="end">0.0020</text></g><g stroke-linejoin="miter" stroke-opacity="0.5" fill-opacity="0.0" stroke="rgb(26,102,204)" stroke-width="1.9296726052976874" fill="rgb(0,0,0)" stroke-linecap="butt" stroke-miterlimit="10.0"><path d="M 86.0140,47.2526 h 5.5944 "/></g><g stroke-linejoin="miter" stroke-opacity="1.0" fill-opacity="0.7" font-size="11.188811188811187px" stroke="rgb(0,0,0)" stroke-width="1.9296726052976874" fill="rgb(51,51,51)" stroke-linecap="butt" stroke-miterlimit="10.0"><text dominant-baseline="middle" transform="matrix(1.0000,0.0000,0.0000,1.0000,80.4196,84.9976)" stroke="none" text-anchor="end">0.0010</text></g><g stroke-linejoin="miter" stroke-opacity="0.5" fill-opacity="0.0" stroke="rgb(26,102,204)" stroke-width="1.9296726052976874" fill="rgb(0,0,0)" stroke-linecap="butt" stroke-miterlimit="10.0"><path d="M 86.0140,84.9976 h 5.5944 "/></g><g stroke-linejoin="miter" stroke-opacity="1.0" fill-opacity="0.7" font-size="11.188811188811187px" stroke="rgb(0,0,0)" stroke-width="1.9296726052976874" fill="rgb(51,51,51)" stroke-linecap="butt" stroke-miterlimit="10.0"><text dominant-baseline="middle" transform="matrix(1.0000,0.0000,0.0000,1.0000,80.4196,122.7426)" stroke="none" text-anchor="end">0.0</text></g><g stroke-linejoin="miter" stroke-opacity="0.5" fill-opacity="0.0" stroke="rgb(26,102,204)" stroke-width="1.9296726052976874" fill="rgb(0,0,0)" stroke-linecap="butt" stroke-miterlimit="10.0"><path d="M 86.0140,122.7426 h 5.5944 "/></g><g stroke-linejoin="miter" stroke-opacity="1.0" fill-opacity="0.7" font-size="11.188811188811187px" stroke="rgb(0,0,0)" stroke-width="1.9296726052976874" fill="rgb(51,51,51)" stroke-linecap="butt" stroke-miterlimit="10.0"><text dominant-baseline="middle" transform="matrix(1.0000,0.0000,0.0000,1.0000,80.4196,160.4876)" stroke="none" text-anchor="end">-0.0010</text></g><g stroke-linejoin="miter" stroke-opacity="0.5" fill-opacity="0.0" stroke="rgb(26,102,204)" stroke-width="1.9296726052976874" fill="rgb(0,0,0)" stroke-linecap="butt" stroke-miterlimit="10.0"><path d="M 86.0140,160.4876 h 5.5944 "/></g><g stroke-linejoin="miter" stroke-opacity="1.0" fill-opacity="0.7" font-size="11.188811188811187px" stroke="rgb(0,0,0)" stroke-width="1.9296726052976874" fill="rgb(51,51,51)" stroke-linecap="butt" stroke-miterlimit="10.0"><text dominant-baseline="middle" transform="matrix(1.0000,0.0000,0.0000,1.0000,80.4196,198.2326)" stroke="none" text-anchor="end">-0.0020</text></g><g stroke-linejoin="miter" stroke-opacity="0.5" fill-opacity="0.0" stroke="rgb(26,102,204)" stroke-width="1.9296726052976874" fill="rgb(0,0,0)" stroke-linecap="butt" stroke-miterlimit="10.0"><path d="M 86.0140,198.2326 h 5.5944 "/></g><g stroke-linejoin="miter" stroke-opacity="1.0" fill-opacity="0.7" font-size="11.188811188811187px" stroke="rgb(0,0,0)" stroke-width="1.9296726052976874" fill="rgb(51,51,51)" stroke-linecap="butt" stroke-miterlimit="10.0"><text dominant-baseline="middle" transform="matrix(1.0000,0.0000,0.0000,1.0000,80.4196,235.9777)" stroke="none" text-anchor="end">-0.0030</text></g><g stroke-linejoin="miter" stroke-opacity="0.5" fill-opacity="0.0" stroke="rgb(26,102,204)" stroke-width="1.9296726052976874" fill="rgb(0,0,0)" stroke-linecap="butt" stroke-miterlimit="10.0"><path d="M 86.0140,235.9777 h 5.5944 "/></g><g stroke-linejoin="miter" stroke-opacity="1.0" fill-opacity="0.7" font-size="11.188811188811187px" stroke="rgb(0,0,0)" stroke-width="1.9296726052976874" fill="rgb(51,51,51)" stroke-linecap="butt" stroke-miterlimit="10.0"><text dominant-baseline="middle" transform="matrix(1.0000,0.0000,0.0000,1.0000,80.4196,273.7227)" stroke="none" text-anchor="end">-0.0040</text></g><g stroke-linejoin="miter" stroke-opacity="0.5" fill-opacity="0.0" stroke="rgb(26,102,204)" stroke-width="1.9296726052976874" fill="rgb(0,0,0)" stroke-linecap="butt" stroke-miterlimit="10.0"><path d="M 86.0140,273.7227 h 5.5944 "/></g><g stroke-linejoin="miter" stroke-opacity="1.0" fill-opacity="0.7" font-size="11.188811188811187px" stroke="rgb(0,0,0)" stroke-width="1.9296726052976874" fill="rgb(51,51,51)" stroke-linecap="butt" stroke-miterlimit="10.0"><text dominant-baseline="middle" transform="matrix(1.0000,0.0000,0.0000,1.0000,80.4196,311.4677)" stroke="none" text-anchor="end">-0.0050</text></g><g stroke-linejoin="miter" stroke-opacity="0.5" fill-opacity="0.0" stroke="rgb(26,102,204)" stroke-width="1.9296726052976874" fill="rgb(0,0,0)" stroke-linecap="butt" stroke-miterlimit="10.0"><path d="M 86.0140,311.4677 h 5.5944 "/></g><g stroke-linejoin="miter" stroke-opacity="0.0" fill-opacity="0.2" stroke="rgb(0,0,0)" stroke-width="0.0" fill="rgb(85,85,85)" stroke-linecap="butt" stroke-miterlimit="10.0"><path d="M 527.9720,341.2587 l -0.0000,-5.5944 h -419.5804 l -0.0000,5.5944 Z"/></g><g stroke-linejoin="miter" stroke-opacity="1.0" fill-opacity="0.7" font-size="11.188811188811187px" stroke="rgb(0,0,0)" stroke-width="1.9296726052976874" fill="rgb(51,51,51)" stroke-linecap="butt" stroke-miterlimit="10.0"><text dominant-baseline="text-before-edge" transform="matrix(1.0000,0.0000,0.0000,1.0000,499.8320,349.6503)" stroke="none" text-anchor="middle">1.7e4</text></g><g stroke-linejoin="miter" stroke-opacity="0.5" fill-opacity="0.0" stroke="rgb(26,102,204)" stroke-width="1.9296726052976874" fill="rgb(0,0,0)" stroke-linecap="butt" stroke-miterlimit="10.0"><path d="M 499.8320,338.4615 v 5.5944 "/></g><g stroke-linejoin="miter" stroke-opacity="1.0" fill-opacity="0.7" font-size="11.188811188811187px" stroke="rgb(0,0,0)" stroke-width="1.9296726052976874" fill="rgb(51,51,51)" stroke-linecap="butt" stroke-miterlimit="10.0"><text dominant-baseline="text-before-edge" transform="matrix(1.0000,0.0000,0.0000,1.0000,457.8320,349.6503)" stroke="none" text-anchor="middle">1.7e4</text></g><g stroke-linejoin="miter" stroke-opacity="0.5" fill-opacity="0.0" stroke="rgb(26,102,204)" stroke-width="1.9296726052976874" fill="rgb(0,0,0)" stroke-linecap="butt" stroke-miterlimit="10.0"><path d="M 457.8320,338.4615 v 5.5944 "/></g><g stroke-linejoin="miter" stroke-opacity="1.0" fill-opacity="0.7" font-size="11.188811188811187px" stroke="rgb(0,0,0)" stroke-width="1.9296726052976874" fill="rgb(51,51,51)" stroke-linecap="butt" stroke-miterlimit="10.0"><text dominant-baseline="text-before-edge" transform="matrix(1.0000,0.0000,0.0000,1.0000,415.8319,349.6503)" stroke="none" text-anchor="middle">1.7e4</text></g><g stroke-linejoin="miter" stroke-opacity="0.5" fill-opacity="0.0" stroke="rgb(26,102,204)" stroke-width="1.9296726052976874" fill="rgb(0,0,0)" stroke-linecap="butt" stroke-miterlimit="10.0"><path d="M 415.8319,338.4615 v 5.5944 "/></g><g stroke-linejoin="miter" stroke-opacity="1.0" fill-opacity="0.7" font-size="11.188811188811187px" stroke="rgb(0,0,0)" stroke-width="1.9296726052976874" fill="rgb(51,51,51)" stroke-linecap="butt" stroke-miterlimit="10.0"><text dominant-baseline="text-before-edge" transform="matrix(1.0000,0.0000,0.0000,1.0000,373.8319,349.6503)" stroke="none" text-anchor="middle">1.7e4</text></g><g stroke-linejoin="miter" stroke-opacity="0.5" fill-opacity="0.0" stroke="rgb(26,102,204)" stroke-width="1.9296726052976874" fill="rgb(0,0,0)" stroke-linecap="butt" stroke-miterlimit="10.0"><path d="M 373.8319,338.4615 v 5.5944 "/></g><g stroke-linejoin="miter" stroke-opacity="1.0" fill-opacity="0.7" font-size="11.188811188811187px" stroke="rgb(0,0,0)" stroke-width="1.9296726052976874" fill="rgb(51,51,51)" stroke-linecap="butt" stroke-miterlimit="10.0"><text dominant-baseline="text-before-edge" transform="matrix(1.0000,0.0000,0.0000,1.0000,331.8318,349.6503)" stroke="none" text-anchor="middle">1.7e4</text></g><g stroke-linejoin="miter" stroke-opacity="0.5" fill-opacity="0.0" stroke="rgb(26,102,204)" stroke-width="1.9296726052976874" fill="rgb(0,0,0)" stroke-linecap="butt" stroke-miterlimit="10.0"><path d="M 331.8318,338.4615 v 5.5944 "/></g><g stroke-linejoin="miter" stroke-opacity="1.0" fill-opacity="0.7" font-size="11.188811188811187px" stroke="rgb(0,0,0)" stroke-width="1.9296726052976874" fill="rgb(51,51,51)" stroke-linecap="butt" stroke-miterlimit="10.0"><text dominant-baseline="text-before-edge" transform="matrix(1.0000,0.0000,0.0000,1.0000,289.8318,349.6503)" stroke="none" text-anchor="middle">1.6e4</text></g><g stroke-linejoin="miter" stroke-opacity="0.5" fill-opacity="0.0" stroke="rgb(26,102,204)" stroke-width="1.9296726052976874" fill="rgb(0,0,0)" stroke-linecap="butt" stroke-miterlimit="10.0"><path d="M 289.8318,338.4615 v 5.5944 "/></g><g stroke-linejoin="miter" stroke-opacity="1.0" fill-opacity="0.7" font-size="11.188811188811187px" stroke="rgb(0,0,0)" stroke-width="1.9296726052976874" fill="rgb(51,51,51)" stroke-linecap="butt" stroke-miterlimit="10.0"><text dominant-baseline="text-before-edge" transform="matrix(1.0000,0.0000,0.0000,1.0000,247.8317,349.6503)" stroke="none" text-anchor="middle">1.6e4</text></g><g stroke-linejoin="miter" stroke-opacity="0.5" fill-opacity="0.0" stroke="rgb(26,102,204)" stroke-width="1.9296726052976874" fill="rgb(0,0,0)" stroke-linecap="butt" stroke-miterlimit="10.0"><path d="M 247.8317,338.4615 v 5.5944 "/></g><g stroke-linejoin="miter" stroke-opacity="1.0" fill-opacity="0.7" font-size="11.188811188811187px" stroke="rgb(0,0,0)" stroke-width="1.9296726052976874" fill="rgb(51,51,51)" stroke-linecap="butt" stroke-miterlimit="10.0"><text dominant-baseline="text-before-edge" transform="matrix(1.0000,0.0000,0.0000,1.0000,205.8317,349.6503)" stroke="none" text-anchor="middle">1.6e4</text></g><g stroke-linejoin="miter" stroke-opacity="0.5" fill-opacity="0.0" stroke="rgb(26,102,204)" stroke-width="1.9296726052976874" fill="rgb(0,0,0)" stroke-linecap="butt" stroke-miterlimit="10.0"><path d="M 205.8317,338.4615 v 5.5944 "/></g><g stroke-linejoin="miter" stroke-opacity="1.0" fill-opacity="0.7" font-size="11.188811188811187px" stroke="rgb(0,0,0)" stroke-width="1.9296726052976874" fill="rgb(51,51,51)" stroke-linecap="butt" stroke-miterlimit="10.0"><text dominant-baseline="text-before-edge" transform="matrix(1.0000,0.0000,0.0000,1.0000,163.8317,349.6503)" stroke="none" text-anchor="middle">1.6e4</text></g><g stroke-linejoin="miter" stroke-opacity="0.5" fill-opacity="0.0" stroke="rgb(26,102,204)" stroke-width="1.9296726052976874" fill="rgb(0,0,0)" stroke-linecap="butt" stroke-miterlimit="10.0"><path d="M 163.8317,338.4615 v 5.5944 "/></g><g stroke-linejoin="miter" stroke-opacity="1.0" fill-opacity="0.7" font-size="11.188811188811187px" stroke="rgb(0,0,0)" stroke-width="1.9296726052976874" fill="rgb(51,51,51)" stroke-linecap="butt" stroke-miterlimit="10.0"><text dominant-baseline="text-before-edge" transform="matrix(1.0000,0.0000,0.0000,1.0000,121.8316,349.6503)" stroke="none" text-anchor="middle">1.6e4</text></g><g stroke-linejoin="miter" stroke-opacity="0.5" fill-opacity="0.0" stroke="rgb(26,102,204)" stroke-width="1.9296726052976874" fill="rgb(0,0,0)" stroke-linecap="butt" stroke-miterlimit="10.0"><path d="M 121.8316,338.4615 v 5.5944 "/></g><g stroke-linejoin="miter" stroke-opacity="0.0" fill-opacity="2.0e-2" stroke="rgb(0,0,0)" stroke-width="0.0" fill="rgb(255,255,255)" stroke-linecap="butt" stroke-miterlimit="10.0"><path d="M 527.9720,321.6783 l -0.0000,-279.7203 h -419.5804 l -0.0000,279.7203 Z"/></g><g stroke-linejoin="miter" stroke-opacity="1.0" fill-opacity="0.0" stroke="rgb(250,165,218)" stroke-width="0.48241815132442184" fill="rgb(0,0,0)" stroke-linecap="butt" stroke-miterlimit="10.0"><path d="M 108.3916,164.7943 l 0.4200,-7.1344 l 0.4200,21.3152 l 0.4200,-20.6508 l 0.4200,-19.7925 l 0.4200,-12.4540 l 0.4200,7.9461 l 0.4200,-10.7348 l 0.4200,1.0013 l 0.4200,-1.6319 l 0.4200,-19.1515 l 0.4200,-8.9233 l 0.4200,-12.1872 l 0.4200,1.6746 l 0.4200,-23.4749 l 0.4200,-2.7087 l 0.4200,0.6498 l 0.4200,10.2226 l 0.4200,-2.5289 l 0.4200,-6.6491 l 0.4200,0.1219 l 0.4200,-0.6810 l 0.4200,6.6843 l 0.4200,10.0582 l 0.4200,-2.4697 l 0.4200,0.9098 l 0.4200,9.4909 l 0.4200,1.2470 l 0.4200,2.1474 l 0.4200,-21.7374 l 0.4200,-0.2240 l 0.4200,5.6755 l 0.4200,13.4287 l 0.4200,9.1218 l 0.4200,-5.8493 l 0.4200,8.5113 l 0.4200,3.5134 l 0.4200,-4.0713 l 0.4200,11.1591 l 0.4200,27.9535 l 0.4200,5.6555 l 0.4200,10.2941 l 0.4200,-8.5868 l 0.4200,9.9796 l 0.4200,-17.6558 l 0.4200,-8.0101 l 0.4200,7.4640 l 0.4200,29.6504 l 0.4200,-7.2094 l 0.4200,-5.3723 l 0.4200,4.5983 l 0.4200,-9.4745 l 0.4200,-16.4150 l 0.4200,-2.6193 l 0.4200,-0.3091 l 0.4200,-18.9564 l 0.4200,-13.0558 l 0.4200,-4.3420 l 0.4200,8.0173 l 0.4200,-3.8904 l 0.4200,-9.2935 l 0.4200,-6.0581 l 0.4200,-20.6555 l 0.4200,6.7021 l 0.4200,16.5551 l 0.4200,10.9860 l 0.4200,6.4164 l 0.4200,6.3649 l 0.4200,-5.6969 l 0.4200,8.8584 l 0.4200,12.1246 l 0.4200,-14.9300 l 0.4200,2.1103 l 0.4200,17.7692 l 0.4200,-13.4067 l 0.4200,16.6504 l 0.4200,23.1140 l 0.4200,-2.5429 l 0.4200,-42.0893 l 0.4200,-11.0551 l 0.4200,-6.3501 l 0.4200,15.0201 l 0.4200,-25.0265 l 0.4200,-10.5427 l 0.4200,-9.6496 l 0.4200,2.9786 l 0.4200,-7.7944 l 0.4200,12.3300 l 0.4200,-3.3629 l 0.4200,-5.3319 l 0.4200,0.7029 l 0.4200,-7.3339 l 0.4200,12.7669 l 0.4200,10.1638 l 0.4200,-3.0758 l 0.4200,-4.1770 l 0.4200,8.0607 l 0.4200,-5.6777 l 0.4200,27.6839 l 0.4200,-23.9175 l 0.4200,1.0871 l 0.4200,6.8754 l 0.4200,-13.1636 l 0.4200,-6.3961 l 0.4200,-4.9205 l 0.4200,10.2692 l 0.4200,6.6229 l 0.4200,9.3060 l 0.4200,-13.3117 l 0.4200,-6.7079 l 0.4200,5.3536 l 0.4200,2.4175 l 0.4200,-2.1048 l 0.4200,4.1679 l 0.4200,7.6146 l 0.4200,8.1308 l 0.4200,4.1505 l 0.4200,9.6891 l 0.4200,-20.0935 l 0.4200,-1.4246 l 0.4200,8.0832 l 0.4200,23.1482 l 0.4200,7.6407 l 0.4200,0.3206 l 0.4200,-11.7768 l 0.4200,6.5635 l 0.4200,-30.7864 l 0.4200,3.0080 l 0.4200,-7.3095 l 0.4200,-7.8818 l 0.4200,-2.9724 l 0.4200,-6.2639 l 0.4200,3.6195 l 0.4200,3.1415 l 0.4200,-4.8120 l 0.4200,19.6859 l 0.4200,2.5309 l 0.4200,6.5222 l 0.4200,-9.9933 l 0.4200,2.3500 l 0.4200,1.1747 l 0.4200,-2.5751 l 0.4200,25.7869 l 0.4200,-19.6940 l 0.4200,-8.1275 l 0.4200,4.5477 l 0.4200,9.1418 l 0.4200,-3.9083 l 0.4200,0.4300 l 0.4200,18.3450 l 0.4200,40.3901 l 0.4200,7.7817 l 0.4200,-13.3862 l 0.4200,18.2030 l 0.4200,-23.2184 l 0.4200,11.3286 l 0.4200,42.1100 l 0.4200,-17.9504 l 0.4200,1.1446 l 0.4200,-26.0765 l 0.4200,-26.3790 l 0.4200,-3.0807 l 0.4200,-20.7298 l 0.4200,1.5772 l 0.4200,-9.9431 l 0.4200,-7.5671 l 0.4200,-0.3194 l 0.4200,14.2353 l 0.4200,-10.1788 l 0.4200,5.3034 l 0.4200,-10.2259 l 0.4200,4.4701 l 0.4200,1.6605 l 0.4200,-7.6968 l 0.4200,-3.2411 l 0.4200,16.1420 l 0.4200,-27.2380 l 0.4200,2.8208 l 0.4200,-0.6612 l 0.4200,1.5969 l 0.4200,3.4067 l 0.4200,11.9777 l 0.4200,1.1872 l 0.4200,23.9168 l 0.4200,5.8408 l 0.4200,-17.8409 l 0.4200,-12.4684 l 0.4200,13.3389 l 0.4200,-10.3013 l 0.4200,7.1222 l 0.4200,10.4266 l 0.4200,-7.5911 l 0.4200,14.3393 l 0.4200,3.9539 l 0.4200,-8.5702 l 0.4200,-14.3005 l 0.4200,-11.9281 l 0.4200,-3.4705 l 0.4200,4.2074 l 0.4200,25.6805 l 0.4200,20.9839 l 0.4200,-7.5283 l 0.4200,-20.5806 l 0.4200,40.7744 l 0.4200,16.8928 l 0.4200,-17.3859 l 0.4200,-13.7817 l 0.4200,-20.0741 l 0.4200,-1.9513 l 0.4200,-6.3927 l 0.4200,-6.6690 l 0.4200,5.5533 l 0.4200,-2.1437 l 0.4200,16.5432 l 0.4200,-5.7234 l 0.4200,-8.3033 l 0.4200,-4.5630 l 0.4200,1.5738 l 0.4200,3.7713 l 0.4200,-2.4920 l 0.4200,18.2008 l 0.4200,-10.3193 l 0.4200,3.3608 l 0.4200,-2.2668 l 0.4200,-17.4552 l 0.4200,0.7889 l 0.4200,10.4382 l 0.4200,18.7747 l 0.4200,-6.9736 l 0.4200,-6.8088 l 0.4200,13.0779 l 0.4200,-15.1354 l 0.4200,-3.5762 l 0.4200,-6.9453 l 0.4200,-9.8641 l 0.4200,3.9996 l 0.4200,-8.4061 l 0.4200,-1.3600 l 0.4200,0.8112 l 0.4200,2.8595 l 0.4200,-1.5660 l 0.4200,-10.1958 l 0.4200,-6.1248 l 0.4200,1.1242 l 0.4200,3.3031 l 0.4200,9.3608 l 0.4200,15.6318 l 0.4200,-4.4824 l 0.4200,0.0698 l 0.4200,-2.4511 l 0.4200,-12.7443 l 0.4200,-0.0049 l 0.4200,-0.8575 l 0.4200,2.6976 l 0.4200,14.4970 l 0.4200,-7.6324 l 0.4200,4.1956 l 0.4200,-1.8432 l 0.4200,2.5545 l 0.4200,-10.8366 l 0.4200,1.0230 l 0.4200,-8.0982 l 0.4200,10.0389 l 0.4200,15.4677 l 0.4200,-7.4002 l 0.4200,9.5269 l 0.4200,-1.5359 l 0.4200,-7.8041 l 0.4200,5.3549 l 0.4200,-6.4746 l 0.4200,24.2280 l 0.4200,-18.7241 l 0.4200,5.8698 l 0.4200,-8.2507 l 0.4200,-1.7033 l 0.4200,0.7690 l 0.4200,10.8254 l 0.4200,0.5666 l 0.4200,9.6465 l 0.4200,0.4847 l 0.4200,38.7015 l 0.4200,4.0440 l 0.4200,-15.0808 l 0.4200,17.5602 l 0.4200,-1.7153 l 0.4200,8.9159 l 0.4200,-23.6840 l 0.4200,-6.0622 l 0.4200,2.5327 l 0.4200,-13.3010 l 0.4200,-8.2040 l 0.4200,0.5059 l 0.4200,-15.6683 l 0.4200,-8.2658 l 0.4200,-3.1090 l 0.4200,-3.8421 l 0.4200,5.6733 l 0.4200,-7.3888 l 0.4200,0.0122 l 0.4200,1.8999 l 0.4200,5.0912 l 0.4200,-4.6114 l 0.4200,2.9023 l 0.4200,3.2011 l 0.4200,4.4681 l 0.4200,-8.1335 l 0.4200,7.5620 l 0.4200,13.7679 l 0.4200,-6.1817 l 0.4200,-0.6677 l 0.4200,12.3158 l 0.4200,1.7542 l 0.4200,-13.7465 l 0.4200,-1.4305 l 0.4200,-8.1237 l 0.4200,2.3918 l 0.4200,16.5553 l 0.4200,11.4768 l 0.4200,-14.7546 l 0.4200,31.4713 l 0.4200,-16.9819 l 0.4200,4.7955 l 0.4200,5.0082 l 0.4200,24.6632 l 0.4200,-1.7501 l 0.4200,-22.6083 l 0.4200,2.4336 l 0.4200,28.1206 l 0.4200,-34.7203 l 0.4200,39.0875 l 0.4200,19.4670 l 0.4200,28.0959 l 0.4200,-7.6241 l 0.4200,11.0840 l 0.4200,-5.0933 l 0.4200,-28.7253 l 0.4200,-20.3049 l 0.4200,-38.6986 l 0.4200,13.6476 l 0.4200,-23.9389 l 0.4200,-12.9290 l 0.4200,3.8184 l 0.4200,-21.6071 l 0.4200,4.4882 l 0.4200,-10.0739 l 0.4200,-19.8601 l 0.4200,3.3686 l 0.4200,8.3239 l 0.4200,-8.1682 l 0.4200,-4.1440 l 0.4200,2.5155 l 0.4200,-2.8301 l 0.4200,1.8765 l 0.4200,4.4207 l 0.4200,1.8763 l 0.4200,2.3288 l 0.4200,1.2784 l 0.4200,-7.0625 l 0.4200,5.7901 l 0.4200,-1.0433 l 0.4200,-7.1399 l 0.4200,-2.3228 l 0.4200,5.3624 l 0.4200,-2.3656 l 0.4200,7.8452 l 0.4200,15.5816 l 0.4200,-10.1412 l 0.4200,-4.7151 l 0.4200,4.8064 l 0.4200,-0.7680 l 0.4200,16.1553 l 0.4200,2.0516 l 0.4200,32.6135 l 0.4200,-8.6712 l 0.4200,31.1529 l 0.4200,10.7535 l 0.4200,14.2970 l 0.4200,-40.5317 l 0.4200,-45.2677 l 0.4200,-6.8224 l 0.4200,-5.0537 l 0.4200,-0.9164 l 0.4200,2.6853 l 0.4200,-3.9475 l 0.4200,0.8598 l 0.4200,11.6912 l 0.4200,21.4182 l 0.4200,1.4288 l 0.4200,35.5301 l 0.4200,15.7984 l 0.4200,-23.6726 l 0.4200,-34.1285 l 0.4200,16.9664 l 0.4200,15.5279 l 0.4200,4.2872 l 0.4200,10.2029 l 0.4200,16.2243 l 0.4200,-27.2875 l 0.4200,-3.6797 l 0.4200,-9.4815 l 0.4200,-28.6987 l 0.4200,11.7286 l 0.4200,-4.0914 l 0.4200,26.3912 l 0.4200,25.2778 l 0.4200,-19.5382 l 0.4200,24.0276 l 0.4200,-26.1598 l 0.4200,-27.6017 l 0.4200,8.6943 l 0.4200,-18.9234 l 0.4200,7.8079 l 0.4200,8.9881 l 0.4200,-19.5345 l 0.4200,1.5377 l 0.4200,-16.7084 l 0.4200,-5.4330 l 0.4200,-0.4996 l 0.4200,3.1313 l 0.4200,4.3869 l 0.4200,-9.3649 l 0.4200,3.2029 l 0.4200,-2.7291 l 0.4200,4.0523 l 0.4200,5.1917 l 0.4200,7.7320 l 0.4200,-9.7661 l 0.4200,10.8310 l 0.4200,10.0051 l 0.4200,-1.0516 l 0.4200,28.1981 l 0.4200,-7.5824 l 0.4200,32.5110 l 0.4200,2.2232 l 0.4200,-25.1440 l 0.4200,11.2461 l 0.4200,-26.1858 l 0.4200,6.7701 l 0.4200,-22.6525 l 0.4200,10.5060 l 0.4200,-16.1707 l 0.4200,4.8685 l 0.4200,12.9499 l 0.4200,28.3584 l 0.4200,3.7544 l 0.4200,-5.3904 l 0.4200,-23.6095 l 0.4200,17.1977 l 0.4200,7.1631 l 0.4200,-7.3433 l 0.4200,-12.7579 l 0.4200,4.2068 l 0.4200,-4.9547 l 0.4200,-8.0449 l 0.4200,-9.0426 l 0.4200,9.8691 l 0.4200,-2.3635 l 0.4200,-8.8631 l 0.4200,2.7408 l 0.4200,22.6029 l 0.4200,-17.3451 l 0.4200,3.6675 l 0.4200,-8.8892 l 0.4200,-3.3121 l 0.4200,-2.9490 l 0.4200,9.2772 l 0.4200,-4.2376 l 0.4200,8.2655 l 0.4200,19.9933 l 0.4200,-20.7223 l 0.4200,-4.7253 l 0.4200,23.5261 l 0.4200,8.3043 l 0.4200,-7.6475 l 0.4200,-25.3854 l 0.4200,10.7427 l 0.4200,6.1507 l 0.4200,0.8438 l 0.4200,-20.0083 l 0.4200,-0.2232 l 0.4200,-4.5059 l 0.4200,2.6775 l 0.4200,3.0860 l 0.4200,-3.2323 l 0.4200,5.5570 l 0.4200,20.5636 l 0.4200,-17.1832 l 0.4200,3.2817 l 0.4200,12.6877 l 0.4200,-3.7917 l 0.4200,2.1850 l 0.4200,-3.8233 l 0.4200,16.7071 l 0.4200,2.2395 l 0.4200,11.6739 l 0.4200,-1.9579 l 0.4200,-23.6620 l 0.4200,-3.1659 l 0.4200,13.5171 l 0.4200,8.3391 l 0.4200,-11.5298 l 0.4200,-3.9780 l 0.4200,-18.6436 l 0.4200,10.9212 l 0.4200,-11.1282 l 0.4200,-0.3038 l 0.4200,14.8398 l 0.4200,5.7893 l 0.4200,0.6159 l 0.4200,39.6452 l 0.4200,-7.1440 l 0.4200,-14.8211 l 0.4200,-0.4538 l 0.4200,6.2897 l 0.4200,-12.7686 l 0.4200,31.0040 l 0.4200,-6.5033 l 0.4200,-25.0569 l 0.4200,-21.4305 l 0.4200,-7.9748 l 0.4200,2.1971 l 0.4200,-14.3658 l 0.4200,-0.6686 l 0.4200,-0.0036 l 0.4200,9.5116 l 0.4200,5.4876 l 0.4200,11.4442 l 0.4200,20.4381 l 0.4200,10.0380 l 0.4200,-24.6266 l 0.4200,-13.9252 l 0.4200,0.4796 l 0.4200,4.8010 l 0.4200,5.4793 l 0.4200,4.2457 l 0.4200,-6.0862 l 0.4200,14.7760 l 0.4200,4.7818 l 0.4200,-24.9094 l 0.4200,18.4782 l 0.4200,-2.3613 l 0.4200,1.9571 l 0.4200,-7.9174 l 0.4200,-9.9628 l 0.4200,5.3066 l 0.4200,15.7234 l 0.4200,39.5410 l 0.4200,58.4054 l 0.4200,70.2853 l 0.4200,16.5755 l 0.4200,-82.2121 l 0.4200,-51.1439 l 0.4200,-4.4275 l 0.4200,12.8464 l 0.4200,52.9603 l 0.4200,-40.5594 l 0.4200,-6.5170 l 0.4200,25.1607 l 0.4200,-52.0062 l 0.4200,23.7603 l 0.4200,-13.7745 l 0.4200,-11.6004 l 0.4200,5.1629 l 0.4200,-26.8911 l 0.4200,-17.8429 l 0.4200,4.2470 l 0.4200,29.9502 l 0.4200,-10.8996 l 0.4200,21.6349 l 0.4200,1.0311 l 0.4200,3.4667 l 0.4200,-2.1848 l 0.4200,46.1160 l 0.4200,-7.5859 l 0.4200,-40.5426 l 0.4200,-6.5758 l 0.4200,-29.3504 l 0.4200,-35.2636 l 0.4200,7.4894 l 0.4200,-14.7738 l 0.4200,-15.5001 l 0.4200,0.4765 l 0.4200,-0.5849 l 0.4200,14.7754 l 0.4200,10.0330 l 0.4200,-27.2153 l 0.4200,-6.6357 l 0.4200,1.7915 l 0.4200,4.8963 l 0.4200,12.9938 l 0.4200,-29.8044 l 0.4200,-17.8949 l 0.4200,7.3169 l 0.4200,8.1635 l 0.4200,-19.2850 l 0.4200,4.7422 l 0.4200,12.7554 l 0.4200,-19.2586 l 0.4200,-1.1603 l 0.4200,10.7421 l 0.4200,5.6400 l 0.4200,3.8763 l 0.4200,21.6559 l 0.4200,-0.9052 l 0.4200,8.0908 l 0.4200,28.1740 l 0.4200,21.4461 l 0.4200,-28.8154 l 0.4200,3.0734 l 0.4200,-29.8684 l 0.4200,4.0045 l 0.4200,-5.4936 l 0.4200,4.2901 l 0.4200,-0.5611 l 0.4200,2.0155 l 0.4200,0.5510 l 0.4200,10.4225 l 0.4200,-18.9277 l 0.4200,22.9353 l 0.4200,28.2452 l 0.4200,-38.8352 l 0.4200,14.6887 l 0.4200,13.0050 l 0.4200,14.7290 l 0.4200,-4.9139 l 0.4200,36.5923 l 0.4200,-11.2073 l 0.4200,-21.6275 l 0.4200,-27.8084 l 0.4200,29.3794 l 0.4200,33.1999 l 0.4200,-16.9734 l 0.4200,-18.0682 l 0.4200,-23.8900 l 0.4200,3.6156 l 0.4200,4.5313 l 0.4200,-19.7664 l 0.4200,14.8472 l 0.4200,18.2815 l 0.4200,28.6259 l 0.4200,-5.7044 l 0.4200,23.2904 l 0.4200,42.4773 l 0.4200,15.6526 l 0.4200,-7.3061 l 0.4200,-19.9998 l 0.4200,43.3831 l 0.4200,-37.7495 l 0.4200,36.5968 l 0.4200,-7.4461 l 0.4200,16.1290 l 0.4200,-16.6565 l 0.4200,-43.9413 l 0.4200,25.8991 l 0.4200,-31.6487 l 0.4200,17.0549 l 0.4200,-14.8172 l 0.4200,-49.8309 l 0.4200,-0.3431 l 0.4200,34.5460 l 0.4200,-12.2877 l 0.4200,-5.1546 l 0.4200,33.1873 l 0.4200,23.2257 l 0.4200,-3.5856 l 0.4200,-4.3025 l 0.4200,18.9153 l 0.4200,-41.8704 l 0.4200,-34.2127 l 0.4200,-32.4348 l 0.4200,8.8621 l 0.4200,-0.3579 l 0.4200,-27.4725 l 0.4200,24.6366 l 0.4200,-8.6078 l 0.4200,-21.1134 l 0.4200,4.7714 l 0.4200,16.3891 l 0.4200,-44.3365 l 0.4200,-5.3137 l 0.4200,-3.9282 l 0.4200,-3.3691 l 0.4200,1.3586 l 0.4200,24.2932 l 0.4200,-7.7656 l 0.4200,1.8398 l 0.4200,-28.6497 l 0.4200,5.8556 l 0.4200,6.6515 l 0.4200,-7.6908 l 0.4200,-9.1725 l 0.4200,-4.6042 l 0.4200,2.0632 l 0.4200,5.4757 l 0.4200,15.6361 l 0.4200,3.4772 l 0.4200,1.5609 l 0.4200,-14.0547 l 0.4200,-4.9779 l 0.4200,7.3168 l 0.4200,-8.8129 l 0.4200,9.6027 l 0.4200,22.3009 l 0.4200,-17.7841 l 0.4200,25.5699 l 0.4200,-3.6980 l 0.4200,6.9163 l 0.4200,-16.7546 l 0.4200,-16.6233 l 0.4200,2.7353 l 0.4200,4.7834 l 0.4200,-9.6187 l 0.4200,-2.6456 l 0.4200,1.8622 l 0.4200,13.0338 l 0.4200,2.4638 l 0.4200,5.8538 l 0.4200,-1.3928 l 0.4200,-0.9023 l 0.4200,19.7547 l 0.4200,10.8448 l 0.4200,-13.9591 l 0.4200,17.8674 l 0.4200,11.7654 l 0.4200,0.3904 l 0.4200,-6.0621 l 0.4200,-1.1986 l 0.4200,-23.1311 l 0.4200,19.5712 l 0.4200,0.7807 l 0.4200,16.4907 l 0.4200,-18.8015 l 0.4200,18.3829 l 0.4200,-0.7690 l 0.4200,6.6651 l 0.4200,-12.0029 l 0.4200,3.8634 l 0.4200,-25.9148 l 0.4200,-12.0913 l 0.4200,2.0279 l 0.4200,-6.5438 l 0.4200,3.7546 l 0.4200,-0.4722 l 0.4200,-3.6310 l 0.4200,7.3772 l 0.4200,-7.7148 l 0.4200,-0.5412 l 0.4200,-4.3178 l 0.4200,5.3783 l 0.4200,19.2606 l 0.4200,16.2797 l 0.4200,3.4858 l 0.4200,3.3906 l 0.4200,-6.1595 l 0.4200,6.2106 l 0.4200,-11.1884 l 0.4200,-4.8106 l 0.4200,3.6609 l 0.4200,-24.6960 l 0.4200,70.6303 l 0.4200,32.5270 l 0.4200,-36.8070 l 0.4200,-59.0272 l 0.4200,-2.4470 l 0.4200,14.3167 l 0.4200,-9.4420 l 0.4200,2.7512 l 0.4200,-27.6015 l 0.4200,-4.0739 l 0.4200,-10.6304 l 0.4200,2.8290 l 0.4200,-6.9576 l 0.4200,5.0437 l 0.4200,-1.4531 l 0.4200,5.8207 l 0.4200,-5.2228 l 0.4200,9.9104 l 0.4200,-5.9902 l 0.4200,8.5763 l 0.4200,1.8464 l 0.4200,4.6265 l 0.4200,-0.8970 l 0.4200,-0.8995 l 0.4200,4.6196 l 0.4200,14.0350 l 0.4200,-4.6164 l 0.4200,1.1186 l 0.4200,-14.7037 l 0.4200,3.9118 l 0.4200,1.2679 l 0.4200,7.3542 l 0.4200,-7.3420 l 0.4200,3.4423 l 0.4200,-3.4963 l 0.4200,12.3109 l 0.4200,-2.1966 l 0.4200,-2.7103 l 0.4200,4.2920 l 0.4200,2.4207 l 0.4200,-2.4436 l 0.4200,11.2742 l 0.4200,3.3730 l 0.4200,3.6081 l 0.4200,-9.3952 l 0.4200,4.6061 l 0.4200,5.1743 l 0.4200,0.5045 l 0.4200,-7.5106 l 0.4200,-4.8421 l 0.4200,1.2951 l 0.4200,5.1541 l 0.4200,47.5526 l 0.4200,-29.1792 l 0.4200,27.9765 l 0.4200,-0.5117 l 0.4200,-20.5785 l 0.4200,6.5661 l 0.4200,-0.8598 l 0.4200,-1.4164 l 0.4200,-21.2729 l 0.4200,-11.9445 l 0.4200,11.7377 l 0.4200,16.5701 l 0.4200,-12.6584 l 0.4200,-9.8723 l 0.4200,18.2652 l 0.4200,-15.3003 l 0.4200,6.6065 l 0.4200,9.4880 l 0.4200,-8.4536 l 0.4200,-0.8480 l 0.4200,6.2532 l 0.4200,-8.8822 l 0.4200,23.8715 l 0.4200,-3.1218 l 0.4200,5.0552 l 0.4200,-1.4362 l 0.4200,4.7582 l 0.4200,-12.8124 l 0.4200,-4.7135 l 0.4200,2.2525 l 0.4200,-0.2994 l 0.4200,-9.3862 l 0.4200,7.2070 l 0.4200,2.9532 l 0.4200,5.1632 l 0.4200,5.1352 l 0.4200,-0.7661 l 0.4200,11.8937 l 0.4200,10.8024 l 0.4200,6.2732 l 0.4200,0.7400 l 0.4200,-43.9262 l 0.4200,-7.3530 l 0.4200,-20.6702 l 0.4200,-2.5245 l 0.4200,3.9198 l 0.4200,1.3017 l 0.4200,-13.0470 l 0.4200,4.6594 l 0.4200,-7.3669 l 0.4200,6.3162 l 0.4200,-12.5387 l 0.4200,-1.9648 l 0.4200,0.6914 l 0.4200,-5.1919 l 0.4200,12.3835 l 0.4200,-0.6968 l 0.4200,6.8707 l 0.4200,8.1592 l 0.4200,0.3558 l 0.4200,-9.8673 l 0.4200,-4.8458 l 0.4200,-22.8575 l 0.4200,-1.1052 l 0.4200,-8.1543 l 0.4200,5.5765 l 0.4200,-9.1522 l 0.4200,18.9890 l 0.4200,-4.6565 l 0.4200,6.1975 l 0.4200,-1.1430 l 0.4200,-4.2144 l 0.4200,7.4921 l 0.4200,5.9933 l 0.4200,-0.1863 l 0.4200,-2.0547 l 0.4200,18.1237 l 0.4200,1.9340 l 0.4200,10.0553 l 0.4200,-15.1678 l 0.4200,-9.2293 l 0.4200,3.4558 l 0.4200,-4.7978 l 0.4200,8.7768 l 0.4200,1.6290 l 0.4200,-3.7851 l 0.4200,5.7890 l 0.4200,-2.0405 l 0.4200,7.1581 l 0.4200,-2.1342 l 0.4200,8.1222 l 0.4200,-5.4502 l 0.4200,6.2484 l 0.4200,-11.4964 l 0.4200,-13.6598 l 0.4200,3.4984 l 0.4200,3.5710 l 0.4200,13.1322 l 0.4200,2.7801 l 0.4200,0.3979 l 0.4200,-0.1350 l 0.4200,-12.7131 l 0.4200,5.5798 l 0.4200,0.8764 l 0.4200,-0.0474 l 0.4200,-9.5624 l 0.4200,-4.9770 l 0.4200,-7.8844 l 0.4200,-5.1636 l 0.4200,-6.7560 l 0.4200,4.6116 l 0.4200,-0.4156 l 0.4200,-8.6095 l 0.4200,5.2443 l 0.4200,2.1480 l 0.4200,0.0149 l 0.4200,0.9102 l 0.4200,7.6573 l 0.4200,-23.2291 l 0.4200,14.6551 l 0.4200,1.8801 l 0.4200,8.9319 l 0.4200,7.7965 l 0.4200,6.2162 l 0.4200,0.0805 l 0.4200,-4.5732 l 0.4200,1.1224 l 0.4200,8.1459 l 0.4200,-14.3887 l 0.4200,5.1427 l 0.4200,4.2951 l 0.4200,5.3953 l 0.4200,24.8920 l 0.4200,-3.4794 l 0.4200,2.2600 l 0.4200,1.7384 l 0.4200,1.9832 l 0.4200,-13.6771 l 0.4200,-1.4045 l 0.4200,-4.8183 l 0.4200,5.2145 l 0.4200,3.7948 l 0.4200,-0.5523 l 0.4200,6.3051 l 0.4200,-3.4222 l 0.4200,1.9485 l 0.4200,-1.0080 l 0.4200,3.0478 l 0.4200,7.2968 l 0.4200,12.7276 l 0.4200,-16.9997 l 0.4200,5.5236 l 0.4200,3.0020 l 0.4200,-14.5989 l 0.4200,6.0765 l 0.4200,-20.3118 l 0.4200,-10.4082 l 0.4200,2.4889 l 0.4200,0.4044 l 0.4200,5.0414 l 0.4200,-2.0911 l 0.4200,-0.9629 l 0.4200,3.7289 l 0.4200,0.0433 l 0.4200,-6.5613 l 0.4200,1.3968 l 0.4200,3.3335 l 0.4200,-0.9016 l 0.4200,5.3622 l 0.4200,3.8002 l 0.4200,-8.1751 l 0.4200,2.5234 l 0.4200,35.7230 l 0.4200,-7.6308 l 0.4200,-13.0331 l 0.4200,-9.3659 l 0.4200,-2.6495 l 0.4200,-3.7435 l 0.4200,-7.2290 l 0.4200,0.9109 l 0.4200,3.7262 l 0.4200,2.1333 l 0.4200,-13.0764 l 0.4200,-5.1723 l 0.4200,4.3703 l 0.4200,7.1044 l 0.4200,-1.4603 l 0.4200,1.0659 l 0.4200,3.0839 "/></g><g stroke-linejoin="miter" stroke-opacity="1.0" fill-opacity="0.0" stroke="rgb(93,165,218)" stroke-width="0.48241815132442184" fill="rgb(0,0,0)" stroke-linecap="butt" stroke-miterlimit="10.0"><path d="M 108.3916,104.2610 l 0.4200,-0.3286 l 0.4200,1.9201 l 0.4200,-1.3596 l 0.4200,-1.3681 l 0.4200,-0.8547 l 0.4200,0.7309 l 0.4200,-0.7347 l 0.4200,0.1642 l 0.4200,-0.0431 l 0.4200,-1.4510 l 0.4200,-0.7036 l 0.4200,-0.9976 l 0.4200,0.0666 l 0.4200,-1.9389 l 0.4200,-0.3638 l 0.4200,-0.1045 l 0.4200,0.6644 l 0.4200,-0.3175 l 0.4200,-0.6560 l 0.4200,-0.1383 l 0.4200,-0.2015 l 0.4200,0.3859 l 0.4200,0.6810 l 0.4200,-0.2838 l 0.4200,-0.0221 l 0.4200,0.6681 l 0.4200,0.0438 l 0.4200,0.1207 l 0.4200,-1.7820 l 0.4200,-0.1407 l 0.4200,0.3309 l 0.4200,0.9725 l 0.4200,0.6778 l 0.4200,-0.4861 l 0.4200,0.6413 l 0.4200,0.2729 l 0.4200,-0.3209 l 0.4200,0.8825 l 0.4200,2.2672 l 0.4200,0.5861 l 0.4200,0.9775 l 0.4200,-0.4957 l 0.4200,0.9572 l 0.4200,-1.2175 l 0.4200,-0.5116 l 0.4200,0.6963 l 0.4200,2.4983 l 0.4200,-0.3419 l 0.4200,-0.2224 l 0.4200,0.5547 l 0.4200,-0.5550 l 0.4200,-1.1459 l 0.4200,-0.1033 l 0.4200,0.0714 l 0.4200,-1.4219 l 0.4200,-1.0200 l 0.4200,-0.3710 l 0.4200,0.6018 l 0.4200,-0.3211 l 0.4200,-0.7676 l 0.4200,-0.5429 l 0.4200,-1.7328 l 0.4200,0.3802 l 0.4200,1.1937 l 0.4200,0.8096 l 0.4200,0.4848 l 0.4200,0.5044 l 0.4200,-0.4371 l 0.4200,0.7062 l 0.4200,1.0001 l 0.4200,-1.1197 l 0.4200,0.1883 l 0.4200,1.4487 l 0.4200,-0.9801 l 0.4200,1.3747 l 0.4200,1.9529 l 0.4200,-0.0150 l 0.4200,-3.1888 l 0.4200,-0.8617 l 0.4200,-0.5261 l 0.4200,1.1603 l 0.4200,-1.9880 l 0.4200,-0.9215 l 0.4200,-0.8885 l 0.4200,0.0867 l 0.4200,-0.7636 l 0.4200,0.8183 l 0.4200,-0.3911 l 0.4200,-0.5605 l 0.4200,-0.0968 l 0.4200,-0.7366 l 0.4200,0.8451 l 0.4200,0.6845 l 0.4200,-0.3367 l 0.4200,-0.4358 l 0.4200,0.5283 l 0.4200,-0.5407 l 0.4200,2.1077 l 0.4200,-1.9181 l 0.4200,-0.0057 l 0.4200,0.4617 l 0.4200,-1.1158 l 0.4200,-0.6225 l 0.4200,-0.5276 l 0.4200,0.6700 l 0.4200,0.4167 l 0.4200,0.6562 l 0.4200,-1.1186 l 0.4200,-0.6391 l 0.4200,0.3015 l 0.4200,0.0869 l 0.4200,-0.2656 l 0.4200,0.2289 l 0.4200,0.5204 l 0.4200,0.5900 l 0.4200,0.3018 l 0.4200,0.7602 l 0.4200,-1.5866 l 0.4200,-0.1672 l 0.4200,0.5884 l 0.4200,1.8236 l 0.4200,0.6683 l 0.4200,0.1106 l 0.4200,-0.8564 l 0.4200,0.5672 l 0.4200,-2.3968 l 0.4200,0.1932 l 0.4200,-0.6210 l 0.4200,-0.6935 l 0.4200,-0.3295 l 0.4200,-0.6034 l 0.4200,0.1646 l 0.4200,0.1402 l 0.4200,-0.4841 l 0.4200,1.4585 l 0.4200,0.1590 l 0.4200,0.4878 l 0.4200,-0.8093 l 0.4200,0.1414 l 0.4200,0.0562 l 0.4200,-0.2393 l 0.4200,2.0203 l 0.4200,-1.5231 l 0.4200,-0.6705 l 0.4200,0.3137 l 0.4200,0.6982 l 0.4200,-0.3121 l 0.4200,0.0206 l 0.4200,1.4555 l 0.4200,3.2866 l 0.4200,0.8264 l 0.4200,-0.8392 l 0.4200,1.6377 l 0.4200,-1.6097 l 0.4200,1.0676 l 0.4200,3.5711 l 0.4200,-1.0795 l 0.4200,0.3806 l 0.4200,-1.7940 l 0.4200,-1.9154 l 0.4200,-0.1494 l 0.4200,-1.5730 l 0.4200,0.1349 l 0.4200,-0.7809 l 0.4200,-0.6275 l 0.4200,-0.0755 l 0.4200,1.0879 l 0.4200,-0.8126 l 0.4200,0.3885 l 0.4200,-0.8342 l 0.4200,0.3039 l 0.4200,0.0958 l 0.4200,-0.6465 l 0.4200,-0.3182 l 0.4200,1.2207 l 0.4200,-2.1900 l 0.4200,0.1145 l 0.4200,-0.1532 l 0.4200,0.0254 l 0.4200,0.1765 l 0.4200,0.8751 l 0.4200,0.0562 l 0.4200,1.8791 l 0.4200,0.5212 l 0.4200,-1.3520 l 0.4200,-0.9882 l 0.4200,1.0305 l 0.4200,-0.8115 l 0.4200,0.5444 l 0.4200,0.8351 l 0.4200,-0.5680 l 0.4200,1.1584 l 0.4200,0.3802 l 0.4200,-0.6074 l 0.4200,-1.0977 l 0.4200,-0.9607 l 0.4200,-0.3279 l 0.4200,0.2737 l 0.4200,2.0073 l 0.4200,1.7263 l 0.4200,-0.4777 l 0.4200,-1.5501 l 0.4200,3.2822 l 0.4200,1.5217 l 0.4200,-1.1592 l 0.4200,-0.9357 l 0.4200,-1.4905 l 0.4200,-0.1150 l 0.4200,-0.4777 l 0.4200,-0.5234 l 0.4200,0.4298 l 0.4200,-0.1655 l 0.4200,1.3215 l 0.4200,-0.3989 l 0.4200,-0.6266 l 0.4200,-0.3581 l 0.4200,0.1160 l 0.4200,0.2977 l 0.4200,-0.1895 l 0.4200,1.4567 l 0.4200,-0.7579 l 0.4200,0.2983 l 0.4200,-0.1397 l 0.4200,-1.3633 l 0.4200,0.0319 l 0.4200,0.8068 l 0.4200,1.5123 l 0.4200,-0.4785 l 0.4200,-0.4913 l 0.4200,1.0743 l 0.4200,-1.1347 l 0.4200,-0.2660 l 0.4200,-0.5487 l 0.4200,-0.8078 l 0.4200,0.2650 l 0.4200,-0.7125 l 0.4200,-0.1796 l 0.4200,-0.0106 l 0.4200,0.1566 l 0.4200,-0.1867 l 0.4200,-0.8826 l 0.4200,-0.5941 l 0.4200,-0.0363 l 0.4200,0.1426 l 0.4200,0.6399 l 0.4200,1.1764 l 0.4200,-0.3749 l 0.4200,-0.0271 l 0.4200,-0.2284 l 0.4200,-1.0608 l 0.4200,-0.0884 l 0.4200,-0.1562 l 0.4200,0.1254 l 0.4200,1.0796 l 0.4200,-0.6371 l 0.4200,0.2812 l 0.4200,-0.1862 l 0.4200,0.1589 l 0.4200,-0.9028 l 0.4200,0.0063 l 0.4200,-0.7194 l 0.4200,0.7021 l 0.4200,1.1737 l 0.4200,-0.5985 l 0.4200,0.7284 l 0.4200,-0.1214 l 0.4200,-0.6285 l 0.4200,0.3955 l 0.4200,-0.5310 l 0.4200,1.9014 l 0.4200,-1.4454 l 0.4200,0.4530 l 0.4200,-0.6550 l 0.4200,-0.1616 l 0.4200,0.0300 l 0.4200,0.8375 l 0.4200,0.0567 l 0.4200,0.7852 l 0.4200,0.0877 l 0.4200,3.1466 l 0.4200,0.5162 l 0.4200,-0.9997 l 0.4200,1.5553 l 0.4200,0.0773 l 0.4200,0.9206 l 0.4200,-1.6554 l 0.4200,-0.3338 l 0.4200,0.3309 l 0.4200,-0.9270 l 0.4200,-0.5687 l 0.4200,0.0975 l 0.4200,-1.1948 l 0.4200,-0.6605 l 0.4200,-0.2783 l 0.4200,-0.3483 l 0.4200,0.3989 l 0.4200,-0.6249 l 0.4200,-0.0599 l 0.4200,0.0914 l 0.4200,0.3539 l 0.4200,-0.4033 l 0.4200,0.1809 l 0.4200,0.2157 l 0.4200,0.3290 l 0.4200,-0.6625 l 0.4200,0.5632 l 0.4200,1.0877 l 0.4200,-0.4576 l 0.4200,-0.0393 l 0.4200,0.9968 l 0.4200,0.1972 l 0.4200,-1.0367 l 0.4200,-0.1022 l 0.4200,-0.6430 l 0.4200,0.1683 l 0.4200,1.3103 l 0.4200,0.9650 l 0.4200,-1.0915 l 0.4200,2.5520 l 0.4200,-1.2086 l 0.4200,0.4705 l 0.4200,0.5048 l 0.4200,2.0952 l 0.4200,0.0724 l 0.4200,-1.6035 l 0.4200,0.3158 l 0.4200,2.3792 l 0.4200,-2.5451 l 0.4200,3.2309 l 0.4200,1.8046 l 0.4200,2.5656 l 0.4200,-0.1899 l 0.4200,1.2770 l 0.4200,0.0221 l 0.4200,-1.8889 l 0.4200,-1.3227 l 0.4200,-2.8701 l 0.4200,1.1743 l 0.4200,-1.7827 l 0.4200,-0.9906 l 0.4200,0.3015 l 0.4200,-1.7185 l 0.4200,0.2896 l 0.4200,-0.8586 l 0.4200,-1.6784 l 0.4200,0.1072 l 0.4200,0.5167 l 0.4200,-0.7715 l 0.4200,-0.4791 l 0.4200,0.0390 l 0.4200,-0.3787 l 0.4200,-0.0120 l 0.4200,0.1991 l 0.4200,0.0124 l 0.4200,0.0561 l 0.4200,-0.0189 l 0.4200,-0.6810 l 0.4200,0.3217 l 0.4200,-0.2031 l 0.4200,-0.6942 l 0.4200,-0.3346 l 0.4200,0.2723 l 0.4200,-0.3256 l 0.4200,0.4831 l 0.4200,1.1315 l 0.4200,-0.8686 l 0.4200,-0.4716 l 0.4200,0.2732 l 0.4200,-0.1546 l 0.4200,1.1968 l 0.4200,0.1283 l 0.4200,2.5810 l 0.4200,-0.6017 l 0.4200,2.5520 l 0.4200,1.0344 l 0.4200,1.3568 l 0.4200,-2.9778 l 0.4200,-3.5069 l 0.4200,-0.5983 l 0.4200,-0.4817 l 0.4200,-0.1690 l 0.4200,0.1162 l 0.4200,-0.4042 l 0.4200,-0.0338 l 0.4200,0.8363 l 0.4200,1.6579 l 0.4200,0.1378 l 0.4200,2.8710 l 0.4200,1.4231 l 0.4200,-1.6770 l 0.4200,-2.6015 l 0.4200,1.3600 l 0.4200,1.3073 l 0.4200,0.4650 l 0.4200,0.9535 l 0.4200,1.4722 l 0.4200,-1.9497 l 0.4200,-0.1624 l 0.4200,-0.6407 l 0.4200,-2.2134 l 0.4200,0.9149 l 0.4200,-0.3075 l 0.4200,2.1160 l 0.4200,2.1240 l 0.4200,-1.3687 l 0.4200,2.0439 l 0.4200,-1.8831 l 0.4200,-2.0956 l 0.4200,0.7061 l 0.4200,-1.4714 l 0.4200,0.5973 l 0.4200,0.7206 l 0.4200,-1.5282 l 0.4200,0.0856 l 0.4200,-1.3683 l 0.4200,-0.5276 l 0.4200,-0.1526 l 0.4200,0.1365 l 0.4200,0.2489 l 0.4200,-0.8347 l 0.4200,0.1366 l 0.4200,-0.3257 l 0.4200,0.2072 l 0.4200,0.3138 l 0.4200,0.5365 l 0.4200,-0.8346 l 0.4200,0.7775 l 0.4200,0.7516 l 0.4200,-0.0959 l 0.4200,2.2403 l 0.4200,-0.5184 l 0.4200,2.6609 l 0.4200,0.3572 l 0.4200,-1.8247 l 0.4200,0.9933 l 0.4200,-1.9603 l 0.4200,0.5793 l 0.4200,-1.7498 l 0.4200,0.8193 l 0.4200,-1.2761 l 0.4200,0.3475 l 0.4200,1.0121 l 0.4200,2.2925 l 0.4200,0.4285 l 0.4200,-0.2898 l 0.4200,-1.7678 l 0.4200,1.4094 l 0.4200,0.6698 l 0.4200,-0.4647 l 0.4200,-0.9254 l 0.4200,0.3845 l 0.4200,-0.3332 l 0.4200,-0.5989 l 0.4200,-0.7085 l 0.4200,0.7711 l 0.4200,-0.1711 l 0.4200,-0.6998 l 0.4200,0.1958 l 0.4200,1.7950 l 0.4200,-1.3176 l 0.4200,0.2993 l 0.4200,-0.6918 l 0.4200,-0.2784 l 0.4200,-0.2615 l 0.4200,0.7058 l 0.4200,-0.3411 l 0.4200,0.6436 l 0.4200,1.6123 l 0.4200,-1.5714 l 0.4200,-0.3682 l 0.4200,1.8744 l 0.4200,0.7433 l 0.4200,-0.5026 l 0.4200,-1.9502 l 0.4200,0.8463 l 0.4200,0.5185 l 0.4200,0.1165 l 0.4200,-1.5488 l 0.4200,-0.0398 l 0.4200,-0.3831 l 0.4200,0.1750 l 0.4200,0.2177 l 0.4200,-0.2763 l 0.4200,0.4151 l 0.4200,1.6362 l 0.4200,-1.3079 l 0.4200,0.2658 l 0.4200,1.0304 l 0.4200,-0.2414 l 0.4200,0.2226 l 0.4200,-0.2502 l 0.4200,1.3779 l 0.4200,0.2818 l 0.4200,1.0444 l 0.4200,-0.0036 l 0.4200,-1.7478 l 0.4200,-0.1958 l 0.4200,1.1270 l 0.4200,0.7623 l 0.4200,-0.7969 l 0.4200,-0.2357 l 0.4200,-1.4239 l 0.4200,0.8724 l 0.4200,-0.8513 l 0.4200,-0.0265 l 0.4200,1.1839 l 0.4200,0.5145 l 0.4200,0.1217 l 0.4200,3.2460 l 0.4200,-0.3515 l 0.4200,-0.9929 l 0.4200,0.1012 l 0.4200,0.6385 l 0.4200,-0.8636 l 0.4200,2.5906 l 0.4200,-0.2963 l 0.4200,-1.8055 l 0.4200,-1.6083 l 0.4200,-0.6112 l 0.4200,0.1731 l 0.4200,-1.1438 l 0.4200,-0.1009 l 0.4200,-0.0500 l 0.4200,0.7114 l 0.4200,0.4247 l 0.4200,0.9215 l 0.4200,1.6831 l 0.4200,0.9261 l 0.4200,-1.8106 l 0.4200,-1.0458 l 0.4200,0.0551 l 0.4200,0.4025 l 0.4200,0.4743 l 0.4200,0.3957 l 0.4200,-0.4155 l 0.4200,1.2308 l 0.4200,0.4855 l 0.4200,-1.8727 l 0.4200,1.5062 l 0.4200,-0.0931 l 0.4200,0.2433 l 0.4200,-0.5398 l 0.4200,-0.7329 l 0.4200,0.4517 l 0.4200,1.3045 l 0.4200,3.2676 l 0.4200,4.9218 l 0.4200,6.0861 l 0.4200,2.0462 l 0.4200,-5.7987 l 0.4200,-3.6189 l 0.4200,-0.0717 l 0.4200,1.2928 l 0.4200,4.5481 l 0.4200,-2.7398 l 0.4200,-0.1677 l 0.4200,2.3411 l 0.4200,-3.7410 l 0.4200,2.1273 l 0.4200,-0.7890 l 0.4200,-0.6670 l 0.4200,0.6304 l 0.4200,-1.9158 l 0.4200,-1.2919 l 0.4200,0.4091 l 0.4200,2.4807 l 0.4200,-0.6774 l 0.4200,1.8845 l 0.4200,0.3152 l 0.4200,0.5129 l 0.4200,0.0726 l 0.4200,3.9276 l 0.4200,-0.1998 l 0.4200,-2.8659 l 0.4200,-0.2992 l 0.4200,-2.1463 l 0.4200,-2.7282 l 0.4200,0.5619 l 0.4200,-1.1914 l 0.4200,-1.3039 l 0.4200,-0.0825 l 0.4200,-0.1652 l 0.4200,1.0620 l 0.4200,0.7374 l 0.4200,-2.2053 l 0.4200,-0.6589 l 0.4200,-0.0087 l 0.4200,0.2469 l 0.4200,0.9133 l 0.4200,-2.4622 l 0.4200,-1.6188 l 0.4200,0.3330 l 0.4200,0.4287 l 0.4200,-1.7363 l 0.4200,0.1157 l 0.4200,0.7753 l 0.4200,-1.7379 l 0.4200,-0.3601 l 0.4200,0.5889 l 0.4200,0.2213 l 0.4200,0.1019 l 0.4200,1.5393 l 0.4200,-0.1851 l 0.4200,0.5317 l 0.4200,2.1686 l 0.4200,1.7344 l 0.4200,-2.2077 l 0.4200,0.2370 l 0.4200,-2.3870 l 0.4200,0.2129 l 0.4200,-0.5318 l 0.4200,0.2311 l 0.4200,-0.1408 l 0.4200,0.0637 l 0.4200,-0.0457 l 0.4200,0.7464 l 0.4200,-1.5629 l 0.4200,1.7167 l 0.4200,2.2264 l 0.4200,-3.0360 l 0.4200,1.1027 l 0.4200,1.0224 l 0.4200,1.2082 l 0.4200,-0.3091 l 0.4200,2.9929 l 0.4200,-0.6966 l 0.4200,-1.5723 l 0.4200,-2.1470 l 0.4200,2.3254 l 0.4200,2.7392 l 0.4200,-1.1528 l 0.4200,-1.3036 l 0.4200,-1.8364 l 0.4200,0.2758 l 0.4200,0.3624 l 0.4200,-1.5647 l 0.4200,1.1316 l 0.4200,1.4612 l 0.4200,2.3560 l 0.4200,-0.2854 l 0.4200,2.0126 l 0.4200,3.6326 l 0.4200,1.6420 l 0.4200,-0.1386 l 0.4200,-1.1828 l 0.4200,3.8126 l 0.4200,-2.5198 l 0.4200,3.2870 l 0.4200,-0.1032 l 0.4200,1.7535 l 0.4200,-0.8119 l 0.4200,-3.0580 l 0.4200,2.3657 l 0.4200,-2.1440 l 0.4200,1.6342 l 0.4200,-0.8538 l 0.4200,-3.7108 l 0.4200,0.0638 l 0.4200,2.8533 l 0.4200,-0.7667 l 0.4200,-0.2421 l 0.4200,2.8056 l 0.4200,2.1302 l 0.4200,0.0697 l 0.4200,-0.0023 l 0.4200,1.8379 l 0.4200,-2.9566 l 0.4200,-2.4997 l 0.4200,-2.4843 l 0.4200,0.6997 l 0.4200,-0.0053 l 0.4200,-2.1759 l 0.4200,1.8917 l 0.4200,-0.6769 l 0.4200,-1.7091 l 0.4200,0.2841 l 0.4200,1.2315 l 0.4200,-3.5659 l 0.4200,-0.6072 l 0.4200,-0.5152 l 0.4200,-0.4841 l 0.4200,-0.1174 l 0.4200,1.7232 l 0.4200,-0.7512 l 0.4200,-0.0108 l 0.4200,-2.4426 l 0.4200,0.2130 l 0.4200,0.2993 l 0.4200,-0.8227 l 0.4200,-0.9687 l 0.4200,-0.6361 l 0.4200,-0.1186 l 0.4200,0.1632 l 0.4200,0.9973 l 0.4200,0.0831 l 0.4200,-0.0566 l 0.4200,-1.2994 l 0.4200,-0.6243 l 0.4200,0.3419 l 0.4200,-0.9206 l 0.4200,0.5211 l 0.4200,1.5733 l 0.4200,-1.5506 l 0.4200,1.8528 l 0.4200,-0.3938 l 0.4200,0.4421 l 0.4200,-1.4257 l 0.4200,-1.4765 l 0.4200,0.0116 l 0.4200,0.1864 l 0.4200,-0.9474 l 0.4200,-0.4242 l 0.4200,-0.0725 l 0.4200,0.8290 l 0.4200,0.0322 l 0.4200,0.3131 l 0.4200,-0.2445 l 0.4200,-0.2098 l 0.4200,1.4400 l 0.4200,0.8005 l 0.4200,-1.1437 l 0.4200,1.3512 l 0.4200,0.9291 l 0.4200,0.0624 l 0.4200,-0.4525 l 0.4200,-0.0858 l 0.4200,-1.8449 l 0.4200,1.4862 l 0.4200,0.0553 l 0.4200,1.3150 l 0.4200,-1.4477 l 0.4200,1.4576 l 0.4200,-0.0068 l 0.4200,0.5849 l 0.4200,-0.8843 l 0.4200,0.3406 l 0.4200,-2.0276 l 0.4200,-1.0173 l 0.4200,0.0680 l 0.4200,-0.6099 l 0.4200,0.1902 l 0.4200,-0.1337 l 0.4200,-0.3877 l 0.4200,0.4800 l 0.4200,-0.6998 l 0.4200,-0.1540 l 0.4200,-0.4577 l 0.4200,0.3026 l 0.4200,1.4335 l 0.4200,1.2663 l 0.4200,0.3028 l 0.4200,0.3080 l 0.4200,-0.4437 l 0.4200,0.5230 l 0.4200,-0.8461 l 0.4200,-0.3773 l 0.4200,0.2827 l 0.4200,-1.9723 l 0.4200,5.5629 l 0.4200,2.7749 l 0.4200,-2.6528 l 0.4200,-4.5671 l 0.4200,-0.2585 l 0.4200,1.0738 l 0.4200,-0.7739 l 0.4200,0.1669 l 0.4200,-2.2510 l 0.4200,-0.4702 l 0.4200,-1.0091 l 0.4200,0.0292 l 0.4200,-0.7426 l 0.4200,0.1927 l 0.4200,-0.3077 l 0.4200,0.2697 l 0.4200,-0.5916 l 0.4200,0.6005 l 0.4200,-0.6343 l 0.4200,0.5096 l 0.4200,0.0035 l 0.4200,0.2333 l 0.4200,-0.1910 l 0.4200,-0.1941 l 0.4200,0.2446 l 0.4200,1.0154 l 0.4200,-0.4247 l 0.4200,0.0174 l 0.4200,-1.2440 l 0.4200,0.1914 l 0.4200,-0.0052 l 0.4200,0.4868 l 0.4200,-0.6615 l 0.4200,0.1746 l 0.4200,-0.3675 l 0.4200,0.8846 l 0.4200,-0.2303 l 0.4200,-0.2793 l 0.4200,0.2712 l 0.4200,0.1376 l 0.4200,-0.2424 l 0.4200,0.8462 l 0.4200,0.2558 l 0.4200,0.2871 l 0.4200,-0.7399 l 0.4200,0.3456 l 0.4200,0.4081 l 0.4200,0.0536 l 0.4200,-0.5858 l 0.4200,-0.4001 l 0.4200,0.0732 l 0.4200,0.3868 l 0.4200,3.7977 l 0.4200,-2.1658 l 0.4200,2.2986 l 0.4200,0.1222 l 0.4200,-1.4856 l 0.4200,0.6096 l 0.4200,0.0393 l 0.4200,-0.0088 l 0.4200,-1.6030 l 0.4200,-0.9354 l 0.4200,0.9152 l 0.4200,1.3451 l 0.4200,-0.9323 l 0.4200,-0.7563 l 0.4200,1.4582 l 0.4200,-1.1598 l 0.4200,0.5362 l 0.4200,0.7910 l 0.4200,-0.6096 l 0.4200,-0.0325 l 0.4200,0.5323 l 0.4200,-0.6556 l 0.4200,1.9318 l 0.4200,-0.1399 l 0.4200,0.5023 l 0.4200,0.0012 l 0.4200,0.4910 l 0.4200,-0.8976 l 0.4200,-0.2973 l 0.4200,0.2423 l 0.4200,0.0462 l 0.4200,-0.6821 l 0.4200,0.6105 l 0.4200,0.2966 l 0.4200,0.4840 l 0.4200,0.5005 l 0.4200,0.0469 l 0.4200,1.0564 l 0.4200,1.0125 l 0.4200,0.6893 l 0.4200,0.2690 l 0.4200,-3.3024 l 0.4200,-0.5391 l 0.4200,-1.6317 l 0.4200,-0.2562 l 0.4200,0.2503 l 0.4200,0.0555 l 0.4200,-1.0874 l 0.4200,0.2813 l 0.4200,-0.6633 l 0.4200,0.4045 l 0.4200,-1.0802 l 0.4200,-0.2802 l 0.4200,-0.0744 l 0.4200,-0.5420 l 0.4200,0.8454 l 0.4200,-0.1548 l 0.4200,0.4484 l 0.4200,0.5772 l 0.4200,-0.0168 l 0.4200,-0.8331 l 0.4200,-0.4676 l 0.4200,-1.9260 l 0.4200,-0.2695 l 0.4200,-0.8368 l 0.4200,0.2324 l 0.4200,-0.9245 l 0.4200,1.2938 l 0.4200,-0.5270 l 0.4200,0.3248 l 0.4200,-0.2390 l 0.4200,-0.4883 l 0.4200,0.4333 l 0.4200,0.3417 l 0.4200,-0.1301 l 0.4200,-0.2798 l 0.4200,1.3274 l 0.4200,0.0994 l 0.4200,0.7564 l 0.4200,-1.2242 l 0.4200,-0.8049 l 0.4200,0.1762 l 0.4200,-0.4710 l 0.4200,0.5977 l 0.4200,0.0586 l 0.4200,-0.3683 l 0.4200,0.3840 l 0.4200,-0.2208 l 0.4200,0.5079 l 0.4200,-0.2089 l 0.4200,0.6039 l 0.4200,-0.4518 l 0.4200,0.4641 l 0.4200,-0.9324 l 0.4200,-1.1477 l 0.4200,0.1749 l 0.4200,0.1940 l 0.4200,0.9724 l 0.4200,0.1929 l 0.4200,0.0126 l 0.4200,-0.0285 l 0.4200,-1.0351 l 0.4200,0.3816 l 0.4200,0.0261 l 0.4200,-0.0444 l 0.4200,-0.8056 l 0.4200,-0.4738 l 0.4200,-0.7244 l 0.4200,-0.5354 l 0.4200,-0.6813 l 0.4200,0.2038 l 0.4200,-0.1807 l 0.4200,-0.8372 l 0.4200,0.2400 l 0.4200,0.0124 l 0.4200,-0.1497 l 0.4200,-0.0775 l 0.4200,0.4663 l 0.4200,-1.9759 l 0.4200,0.9698 l 0.4200,0.0026 l 0.4200,0.5742 l 0.4200,0.5168 l 0.4200,0.4195 l 0.4200,-0.0481 l 0.4200,-0.4199 l 0.4200,0.0191 l 0.4200,0.5854 l 0.4200,-1.1871 l 0.4200,0.3226 l 0.4200,0.2741 l 0.4200,0.3782 l 0.4200,1.9580 l 0.4200,-0.2200 l 0.4200,0.2261 l 0.4200,0.1925 l 0.4200,0.2183 l 0.4200,-1.0275 l 0.4200,-0.0963 l 0.4200,-0.3746 l 0.4200,0.4102 l 0.4200,0.3159 l 0.4200,-0.0180 l 0.4200,0.5285 l 0.4200,-0.2266 l 0.4200,0.1903 l 0.4200,-0.0392 l 0.4200,0.2814 l 0.4200,0.6324 l 0.4200,1.0935 l 0.4200,-1.2382 l 0.4200,0.5006 l 0.4200,0.3190 l 0.4200,-1.0783 l 0.4200,0.5216 l 0.4200,-1.5672 l 0.4200,-0.8499 l 0.4200,0.1436 l 0.4200,-0.0138 l 0.4200,0.3589 l 0.4200,-0.1930 l 0.4200,-0.1103 l 0.4200,0.2616 l 0.4200,-0.0194 l 0.4200,-0.5475 l 0.4200,0.0651 l 0.4200,0.2254 l 0.4200,-0.1010 l 0.4200,0.3969 l 0.4200,0.2918 l 0.4200,-0.6522 l 0.4200,0.1736 l 0.4200,2.8390 l 0.4200,-0.4978 l 0.4200,-0.9585 l 0.4200,-0.7135 l 0.4200,-0.2108 l 0.4200,-0.3080 l 0.4200,-0.6006 l 0.4200,0.0241 l 0.4200,0.2528 l 0.4200,0.1393 l 0.4200,-1.0695 l 0.4200,-0.4852 l 0.4200,0.2595 l 0.4200,0.4946 l 0.4200,-0.1641 l 0.4200,0.0328 l 0.4200,0.1984 "/></g><g stroke-linejoin="miter" stroke-opacity="1.0" fill-opacity="0.0" stroke="rgb(85,85,85)" stroke-width="0.48241815132442184" fill="rgb(0,0,0)" stroke-linecap="butt" stroke-miterlimit="10.0"><path d="M 108.3916,113.1792 l 0.4200,-0.0911 l 0.4200,0.4709 l 0.4200,-0.3476 l 0.4200,-0.3507 l 0.4200,-0.2234 l 0.4200,0.1724 l 0.4200,-0.1935 l 0.4200,0.0307 l 0.4200,-0.0210 l 0.4200,-0.3730 l 0.4200,-0.1872 l 0.4200,-0.2612 l 0.4200,0.0041 l 0.4200,-0.4972 l 0.4200,-0.1049 l 0.4200,-0.0403 l 0.4200,0.1518 l 0.4200,-0.0931 l 0.4200,-0.1780 l 0.4200,-0.0490 l 0.4200,-0.0649 l 0.4200,0.0818 l 0.4200,0.1559 l 0.4200,-0.0848 l 0.4200,-0.0196 l 0.4200,0.1530 l 0.4200,-0.0026 l 0.4200,0.0167 l 0.4200,-0.4589 l 0.4200,-0.0499 l 0.4200,0.0679 l 0.4200,0.2286 l 0.4200,0.1556 l 0.4200,-0.1348 l 0.4200,0.1467 l 0.4200,0.0551 l 0.4200,-0.0931 l 0.4200,0.2075 l 0.4200,0.5543 l 0.4200,0.1358 l 0.4200,0.2341 l 0.4200,-0.1335 l 0.4200,0.2294 l 0.4200,-0.3136 l 0.4200,-0.1380 l 0.4200,0.1636 l 0.4200,0.6146 l 0.4200,-0.0935 l 0.4200,-0.0639 l 0.4200,0.1302 l 0.4200,-0.1468 l 0.4200,-0.2949 l 0.4200,-0.0351 l 0.4200,0.0085 l 0.4200,-0.3648 l 0.4200,-0.2654 l 0.4200,-0.1039 l 0.4200,0.1391 l 0.4200,-0.0912 l 0.4200,-0.2031 l 0.4200,-0.1474 l 0.4200,-0.4453 l 0.4200,0.0816 l 0.4200,0.2853 l 0.4200,0.1902 l 0.4200,0.1096 l 0.4200,0.1149 l 0.4200,-0.1201 l 0.4200,0.1654 l 0.4200,0.2395 l 0.4200,-0.2898 l 0.4200,0.0364 l 0.4200,0.3517 l 0.4200,-0.2544 l 0.4200,0.3336 l 0.4200,0.4791 l 0.4200,-0.0114 l 0.4200,-0.8048 l 0.4200,-0.2254 l 0.4200,-0.1422 l 0.4200,0.2790 l 0.4200,-0.5071 l 0.4200,-0.2420 l 0.4200,-0.2344 l 0.4200,0.0087 l 0.4200,-0.2038 l 0.4200,0.1911 l 0.4200,-0.1106 l 0.4200,-0.1532 l 0.4200,-0.0377 l 0.4200,-0.1977 l 0.4200,0.1972 l 0.4200,0.1577 l 0.4200,-0.0971 l 0.4200,-0.1221 l 0.4200,0.1186 l 0.4200,-0.1482 l 0.4200,0.5135 l 0.4200,-0.4914 l 0.4200,-0.0147 l 0.4200,0.1021 l 0.4200,-0.2919 l 0.4200,-0.1694 l 0.4200,-0.1461 l 0.4200,0.1529 l 0.4200,0.0901 l 0.4200,0.1503 l 0.4200,-0.2929 l 0.4200,-0.1738 l 0.4200,0.0609 l 0.4200,0.0074 l 0.4200,-0.0806 l 0.4200,0.0428 l 0.4200,0.1159 l 0.4200,0.1337 l 0.4200,0.0621 l 0.4200,0.1770 l 0.4200,-0.4092 l 0.4200,-0.0555 l 0.4200,0.1333 l 0.4200,0.4426 l 0.4200,0.1551 l 0.4200,0.0162 l 0.4200,-0.2255 l 0.4200,0.1298 l 0.4200,-0.6108 l 0.4200,0.0349 l 0.4200,-0.1684 l 0.4200,-0.1870 l 0.4200,-0.0965 l 0.4200,-0.1652 l 0.4200,0.0263 l 0.4200,0.0204 l 0.4200,-0.1356 l 0.4200,0.3497 l 0.4200,0.0259 l 0.4200,0.1083 l 0.4200,-0.2156 l 0.4200,0.0215 l 0.4200,0.0003 l 0.4200,-0.0735 l 0.4200,0.4912 l 0.4200,-0.3931 l 0.4200,-0.1811 l 0.4200,0.0645 l 0.4200,0.1608 l 0.4200,-0.0912 l 0.4200,-0.0082 l 0.4200,0.3505 l 0.4200,0.8094 l 0.4200,0.1968 l 0.4200,-0.2190 l 0.4200,0.3997 l 0.4200,-0.4110 l 0.4200,0.2572 l 0.4200,0.8839 l 0.4200,-0.2761 l 0.4200,0.0881 l 0.4200,-0.4553 l 0.4200,-0.4869 l 0.4200,-0.0469 l 0.4200,-0.4029 l 0.4200,0.0229 l 0.4200,-0.2059 l 0.4200,-0.1681 l 0.4200,-0.0306 l 0.4200,0.2602 l 0.4200,-0.2141 l 0.4200,0.0856 l 0.4200,-0.2198 l 0.4200,0.0642 l 0.4200,0.0124 l 0.4200,-0.1731 l 0.4200,-0.0915 l 0.4200,0.2930 l 0.4200,-0.5588 l 0.4200,0.0157 l 0.4200,-0.0511 l 0.4200,-0.0066 l 0.4200,0.0312 l 0.4200,0.2060 l 0.4200,0.0020 l 0.4200,0.4578 l 0.4200,0.1197 l 0.4200,-0.3482 l 0.4200,-0.2583 l 0.4200,0.2457 l 0.4200,-0.2140 l 0.4200,0.1244 l 0.4200,0.1974 l 0.4200,-0.1527 l 0.4200,0.2785 l 0.4200,0.0848 l 0.4200,-0.1618 l 0.4200,-0.2848 l 0.4200,-0.2514 l 0.4200,-0.0939 l 0.4200,0.0563 l 0.4200,0.4899 l 0.4200,0.4212 l 0.4200,-0.1285 l 0.4200,-0.3970 l 0.4200,0.8100 l 0.4200,0.3723 l 0.4200,-0.2968 l 0.4200,-0.2418 l 0.4200,-0.3812 l 0.4200,-0.0384 l 0.4200,-0.1291 l 0.4200,-0.1409 l 0.4200,0.0970 l 0.4200,-0.0515 l 0.4200,0.3202 l 0.4200,-0.1089 l 0.4200,-0.1662 l 0.4200,-0.0995 l 0.4200,0.0188 l 0.4200,0.0643 l 0.4200,-0.0573 l 0.4200,0.3541 l 0.4200,-0.1984 l 0.4200,0.0651 l 0.4200,-0.0442 l 0.4200,-0.3502 l 0.4200,-0.0024 l 0.4200,0.1914 l 0.4200,0.3684 l 0.4200,-0.1282 l 0.4200,-0.1318 l 0.4200,0.2593 l 0.4200,-0.2921 l 0.4200,-0.0758 l 0.4200,-0.1467 l 0.4200,-0.2119 l 0.4200,0.0558 l 0.4200,-0.1884 l 0.4200,-0.0557 l 0.4200,-0.0136 l 0.4200,0.0282 l 0.4200,-0.0575 l 0.4200,-0.2316 l 0.4200,-0.1601 l 0.4200,-0.0211 l 0.4200,0.0236 l 0.4200,0.1481 l 0.4200,0.2827 l 0.4200,-0.1042 l 0.4200,-0.0176 l 0.4200,-0.0679 l 0.4200,-0.2762 l 0.4200,-0.0338 l 0.4200,-0.0509 l 0.4200,0.0194 l 0.4200,0.2581 l 0.4200,-0.1703 l 0.4200,0.0588 l 0.4200,-0.0578 l 0.4200,0.0284 l 0.4200,-0.2369 l 0.4200,-0.0103 l 0.4200,-0.1917 l 0.4200,0.1631 l 0.4200,0.2816 l 0.4200,-0.1606 l 0.4200,0.1707 l 0.4200,-0.0412 l 0.4200,-0.1681 l 0.4200,0.0875 l 0.4200,-0.1438 l 0.4200,0.4639 l 0.4200,-0.3714 l 0.4200,0.1021 l 0.4200,-0.1745 l 0.4200,-0.0516 l 0.4200,-0.0038 l 0.4200,0.1981 l 0.4200,0.0035 l 0.4200,0.1857 l 0.4200,0.0119 l 0.4200,0.7767 l 0.4200,0.1215 l 0.4200,-0.2571 l 0.4200,0.3809 l 0.4200,0.0126 l 0.4200,0.2235 l 0.4200,-0.4198 l 0.4200,-0.0907 l 0.4200,0.0753 l 0.4200,-0.2390 l 0.4200,-0.1501 l 0.4200,0.0161 l 0.4200,-0.3069 l 0.4200,-0.1742 l 0.4200,-0.0792 l 0.4200,-0.0969 l 0.4200,0.0897 l 0.4200,-0.1660 l 0.4200,-0.0252 l 0.4200,0.0126 l 0.4200,0.0783 l 0.4200,-0.1107 l 0.4200,0.0351 l 0.4200,0.0439 l 0.4200,0.0724 l 0.4200,-0.1752 l 0.4200,0.1307 l 0.4200,0.2623 l 0.4200,-0.1232 l 0.4200,-0.0190 l 0.4200,0.2400 l 0.4200,0.0409 l 0.4200,-0.2674 l 0.4200,-0.0346 l 0.4200,-0.1699 l 0.4200,0.0325 l 0.4200,0.3181 l 0.4200,0.2328 l 0.4200,-0.2806 l 0.4200,0.6294 l 0.4200,-0.3088 l 0.4200,0.1101 l 0.4200,0.1190 l 0.4200,0.5170 l 0.4200,0.0129 l 0.4200,-0.4060 l 0.4200,0.0726 l 0.4200,0.5887 l 0.4200,-0.6406 l 0.4200,0.8015 l 0.4200,0.4474 l 0.4200,0.6390 l 0.4200,-0.0480 l 0.4200,0.3186 l 0.4200,0.0058 l 0.4200,-0.4719 l 0.4200,-0.3317 l 0.4200,-0.7196 l 0.4200,0.2894 l 0.4200,-0.4490 l 0.4200,-0.2523 l 0.4200,0.0700 l 0.4200,-0.4348 l 0.4200,0.0659 l 0.4200,-0.2209 l 0.4200,-0.4265 l 0.4200,0.0187 l 0.4200,0.1211 l 0.4200,-0.2005 l 0.4200,-0.1280 l 0.4200,0.0012 l 0.4200,-0.1032 l 0.4200,-0.0118 l 0.4200,0.0410 l 0.4200,-0.0055 l 0.4200,0.0054 l 0.4200,-0.0133 l 0.4200,-0.1788 l 0.4200,0.0714 l 0.4200,-0.0596 l 0.4200,-0.1825 l 0.4200,-0.0931 l 0.4200,0.0583 l 0.4200,-0.0909 l 0.4200,0.1110 l 0.4200,0.2735 l 0.4200,-0.2257 l 0.4200,-0.1270 l 0.4200,0.0588 l 0.4200,-0.0479 l 0.4200,0.2898 l 0.4200,0.0236 l 0.4200,0.6369 l 0.4200,-0.1569 l 0.4200,0.6311 l 0.4200,0.2536 l 0.4200,0.3350 l 0.4200,-0.7476 l 0.4200,-0.8821 l 0.4200,-0.1576 l 0.4200,-0.1289 l 0.4200,-0.0511 l 0.4200,0.0201 l 0.4200,-0.1099 l 0.4200,-0.0176 l 0.4200,0.1999 l 0.4200,0.4060 l 0.4200,0.0272 l 0.4200,0.7106 l 0.4200,0.3508 l 0.4200,-0.4232 l 0.4200,-0.6555 l 0.4200,0.3329 l 0.4200,0.3208 l 0.4200,0.1111 l 0.4200,0.2336 l 0.4200,0.3640 l 0.4200,-0.4903 l 0.4200,-0.0450 l 0.4200,-0.1647 l 0.4200,-0.5583 l 0.4200,0.2221 l 0.4200,-0.0828 l 0.4200,0.5228 l 0.4200,0.5264 l 0.4200,-0.3451 l 0.4200,0.5070 l 0.4200,-0.4732 l 0.4200,-0.5278 l 0.4200,0.1711 l 0.4200,-0.3727 l 0.4200,0.1433 l 0.4200,0.1746 l 0.4200,-0.3870 l 0.4200,0.0153 l 0.4200,-0.3481 l 0.4200,-0.1390 l 0.4200,-0.0456 l 0.4200,0.0265 l 0.4200,0.0548 l 0.4200,-0.2159 l 0.4200,0.0263 l 0.4200,-0.0892 l 0.4200,0.0438 l 0.4200,0.0706 l 0.4200,0.1265 l 0.4200,-0.2158 l 0.4200,0.1866 l 0.4200,0.1807 l 0.4200,-0.0306 l 0.4200,0.5533 l 0.4200,-0.1346 l 0.4200,0.6598 l 0.4200,0.0859 l 0.4200,-0.4593 l 0.4200,0.2438 l 0.4200,-0.4938 l 0.4200,0.1396 l 0.4200,-0.4422 l 0.4200,0.1987 l 0.4200,-0.3245 l 0.4200,0.0804 l 0.4200,0.2469 l 0.4200,0.5677 l 0.4200,0.1034 l 0.4200,-0.0758 l 0.4200,-0.4455 l 0.4200,0.3475 l 0.4200,0.1636 l 0.4200,-0.1195 l 0.4200,-0.2350 l 0.4200,0.0918 l 0.4200,-0.0874 l 0.4200,-0.1540 l 0.4200,-0.1819 l 0.4200,0.1875 l 0.4200,-0.0475 l 0.4200,-0.1798 l 0.4200,0.0436 l 0.4200,0.4436 l 0.4200,-0.3332 l 0.4200,0.0700 l 0.4200,-0.1775 l 0.4200,-0.0747 l 0.4200,-0.0707 l 0.4200,0.1710 l 0.4200,-0.0902 l 0.4200,0.1557 l 0.4200,0.3984 l 0.4200,-0.3964 l 0.4200,-0.0967 l 0.4200,0.4637 l 0.4200,0.1823 l 0.4200,-0.1286 l 0.4200,-0.4909 l 0.4200,0.2068 l 0.4200,0.1255 l 0.4200,0.0253 l 0.4200,-0.3909 l 0.4200,-0.0148 l 0.4200,-0.1007 l 0.4200,0.0386 l 0.4200,0.0494 l 0.4200,-0.0739 l 0.4200,0.0987 l 0.4200,0.4043 l 0.4200,-0.3305 l 0.4200,0.0620 l 0.4200,0.2533 l 0.4200,-0.0638 l 0.4200,0.0520 l 0.4200,-0.0661 l 0.4200,0.3408 l 0.4200,0.0678 l 0.4200,0.2587 l 0.4200,-0.0026 l 0.4200,-0.4386 l 0.4200,-0.0519 l 0.4200,0.2786 l 0.4200,0.1883 l 0.4200,-0.2009 l 0.4200,-0.0612 l 0.4200,-0.3584 l 0.4200,0.2146 l 0.4200,-0.2157 l 0.4200,-0.0101 l 0.4200,0.2925 l 0.4200,0.1260 l 0.4200,0.0282 l 0.4200,0.8094 l 0.4200,-0.0876 l 0.4200,-0.2482 l 0.4200,0.0246 l 0.4200,0.1590 l 0.4200,-0.2161 l 0.4200,0.6468 l 0.4200,-0.0730 l 0.4200,-0.4505 l 0.4200,-0.4025 l 0.4200,-0.1544 l 0.4200,0.0412 l 0.4200,-0.2879 l 0.4200,-0.0281 l 0.4200,-0.0154 l 0.4200,0.1749 l 0.4200,0.1038 l 0.4200,0.2283 l 0.4200,0.4194 l 0.4200,0.2314 l 0.4200,-0.4521 l 0.4200,-0.2622 l 0.4200,0.0122 l 0.4200,0.0991 l 0.4200,0.1174 l 0.4200,0.0980 l 0.4200,-0.1044 l 0.4200,0.3068 l 0.4200,0.1214 l 0.4200,-0.4678 l 0.4200,0.3756 l 0.4200,-0.0231 l 0.4200,0.0609 l 0.4200,-0.1347 l 0.4200,-0.1834 l 0.4200,0.1122 l 0.4200,0.3258 l 0.4200,0.8175 l 0.4200,1.2335 l 0.4200,1.5283 l 0.4200,0.5228 l 0.4200,-1.4369 l 0.4200,-0.8963 l 0.4200,-0.0122 l 0.4200,0.3289 l 0.4200,1.1437 l 0.4200,-0.6749 l 0.4200,-0.0339 l 0.4200,0.5931 l 0.4200,-0.9256 l 0.4200,0.5386 l 0.4200,-0.1889 l 0.4200,-0.1590 l 0.4200,0.1649 l 0.4200,-0.4712 l 0.4200,-0.3167 l 0.4200,0.1076 l 0.4200,0.6258 l 0.4200,-0.1619 l 0.4200,0.4781 l 0.4200,0.0872 l 0.4200,0.1368 l 0.4200,0.0271 l 0.4200,0.9909 l 0.4200,-0.0380 l 0.4200,-0.7047 l 0.4200,-0.0652 l 0.4200,-0.5272 l 0.4200,-0.6743 l 0.4200,0.1462 l 0.4200,-0.2917 l 0.4200,-0.3207 l 0.4200,-0.0164 l 0.4200,-0.0371 l 0.4200,0.2695 l 0.4200,0.1892 l 0.4200,-0.5459 l 0.4200,-0.1610 l 0.4200,0.0011 l 0.4200,0.0650 l 0.4200,0.2317 l 0.4200,-0.6115 l 0.4200,-0.4025 l 0.4200,0.0843 l 0.4200,0.1084 l 0.4200,-0.4325 l 0.4200,0.0292 l 0.4200,0.1942 l 0.4200,-0.4335 l 0.4200,-0.0904 l 0.4200,0.1466 l 0.4200,0.0551 l 0.4200,0.0255 l 0.4200,0.3849 l 0.4200,-0.0450 l 0.4200,0.1340 l 0.4200,0.5436 l 0.4200,0.4367 l 0.4200,-0.5475 l 0.4200,0.0620 l 0.4200,-0.5938 l 0.4200,0.0544 l 0.4200,-0.1317 l 0.4200,0.0587 l 0.4200,-0.0341 l 0.4200,0.0169 l 0.4200,-0.0104 l 0.4200,0.1876 l 0.4200,-0.3892 l 0.4200,0.4295 l 0.4200,0.5582 l 0.4200,-0.7557 l 0.4200,0.2767 l 0.4200,0.2574 l 0.4200,0.3047 l 0.4200,-0.0738 l 0.4200,0.7515 l 0.4200,-0.1686 l 0.4200,-0.3881 l 0.4200,-0.5329 l 0.4200,0.5835 l 0.4200,0.6887 l 0.4200,-0.2822 l 0.4200,-0.3208 l 0.4200,-0.4550 l 0.4200,0.0717 l 0.4200,0.0936 l 0.4200,-0.3880 l 0.4200,0.2849 l 0.4200,0.3682 l 0.4200,0.5930 l 0.4200,-0.0656 l 0.4200,0.5087 l 0.4200,0.9152 l 0.4200,0.4203 l 0.4200,-0.0237 l 0.4200,-0.2848 l 0.4200,0.9631 l 0.4200,-0.6171 l 0.4200,0.8327 l 0.4200,-0.0124 l 0.4200,0.4516 l 0.4200,-0.1884 l 0.4200,-0.7506 l 0.4200,0.6031 l 0.4200,-0.5226 l 0.4200,0.4203 l 0.4200,-0.2005 l 0.4200,-0.9154 l 0.4200,0.0255 l 0.4200,0.7229 l 0.4200,-0.1800 l 0.4200,-0.0494 l 0.4200,0.7123 l 0.4200,0.5456 l 0.4200,0.0320 l 0.4200,0.0141 l 0.4200,0.4741 l 0.4200,-0.7232 l 0.4200,-0.6111 l 0.4200,-0.6092 l 0.4200,0.1849 l 0.4200,0.0092 l 0.4200,-0.5335 l 0.4200,0.4818 l 0.4200,-0.1590 l 0.4200,-0.4175 l 0.4200,0.0795 l 0.4200,0.3165 l 0.4200,-0.8819 l 0.4200,-0.1449 l 0.4200,-0.1224 l 0.4200,-0.1150 l 0.4200,-0.0237 l 0.4200,0.4364 l 0.4200,-0.1809 l 0.4200,0.0036 l 0.4200,-0.6044 l 0.4200,0.0577 l 0.4200,0.0794 l 0.4200,-0.2009 l 0.4200,-0.2380 l 0.4200,-0.1556 l 0.4200,-0.0267 l 0.4200,0.0437 l 0.4200,0.2523 l 0.4200,0.0245 l 0.4200,-0.0103 l 0.4200,-0.3211 l 0.4200,-0.1533 l 0.4200,0.0878 l 0.4200,-0.2276 l 0.4200,0.1322 l 0.4200,0.3956 l 0.4200,-0.3842 l 0.4200,0.4655 l 0.4200,-0.0948 l 0.4200,0.1139 l 0.4200,-0.3527 l 0.4200,-0.3665 l 0.4200,0.0044 l 0.4200,0.0481 l 0.4200,-0.2352 l 0.4200,-0.1051 l 0.4200,-0.0175 l 0.4200,0.2078 l 0.4200,0.0092 l 0.4200,0.0795 l 0.4200,-0.0597 l 0.4200,-0.0512 l 0.4200,0.3611 l 0.4200,0.2023 l 0.4200,-0.2831 l 0.4200,0.3397 l 0.4200,0.2352 l 0.4200,0.0192 l 0.4200,-0.1094 l 0.4200,-0.0181 l 0.4200,-0.4580 l 0.4200,0.3734 l 0.4200,0.0168 l 0.4200,0.3318 l 0.4200,-0.3579 l 0.4200,0.3673 l 0.4200,0.0023 l 0.4200,0.1502 l 0.4200,-0.2166 l 0.4200,0.0889 l 0.4200,-0.5029 l 0.4200,-0.2518 l 0.4200,0.0187 l 0.4200,-0.1507 l 0.4200,0.0489 l 0.4200,-0.0320 l 0.4200,-0.0956 l 0.4200,0.1211 l 0.4200,-0.1735 l 0.4200,-0.0376 l 0.4200,-0.1136 l 0.4200,0.0761 l 0.4200,0.3590 l 0.4200,0.3183 l 0.4200,0.0784 l 0.4200,0.0799 l 0.4200,-0.1078 l 0.4200,0.1336 l 0.4200,-0.2083 l 0.4200,-0.0918 l 0.4200,0.0729 l 0.4200,-0.4906 l 0.4200,1.3917 l 0.4200,0.6989 l 0.4200,-0.6560 l 0.4200,-1.1365 l 0.4200,-0.0628 l 0.4200,0.2701 l 0.4200,-0.1910 l 0.4200,0.0436 l 0.4200,-0.5608 l 0.4200,-0.1173 l 0.4200,-0.2523 l 0.4200,0.0065 l 0.4200,-0.1864 l 0.4200,0.0468 l 0.4200,-0.0781 l 0.4200,0.0660 l 0.4200,-0.1491 l 0.4200,0.1484 l 0.4200,-0.1598 l 0.4200,0.1257 l 0.4200,-0.0005 l 0.4200,0.0570 l 0.4200,-0.0489 l 0.4200,-0.0498 l 0.4200,0.0597 l 0.4200,0.2526 l 0.4200,-0.1066 l 0.4200,0.0035 l 0.4200,-0.3118 l 0.4200,0.0461 l 0.4200,-0.0029 l 0.4200,0.1201 l 0.4200,-0.1666 l 0.4200,0.0419 l 0.4200,-0.0934 l 0.4200,0.2193 l 0.4200,-0.0588 l 0.4200,-0.0712 l 0.4200,0.0662 l 0.4200,0.0330 l 0.4200,-0.0619 l 0.4200,0.2101 l 0.4200,0.0632 l 0.4200,0.0712 l 0.4200,-0.1854 l 0.4200,0.0855 l 0.4200,0.1013 l 0.4200,0.0130 l 0.4200,-0.1468 l 0.4200,-0.1008 l 0.4200,0.0172 l 0.4200,0.0957 l 0.4200,0.9487 l 0.4200,-0.5393 l 0.4200,0.5751 l 0.4200,0.0328 l 0.4200,-0.3691 l 0.4200,0.1536 l 0.4200,0.0115 l 0.4200,-0.0005 l 0.4200,-0.3991 l 0.4200,-0.2334 l 0.4200,0.2286 l 0.4200,0.3367 l 0.4200,-0.2316 l 0.4200,-0.1883 l 0.4200,0.3647 l 0.4200,-0.2887 l 0.4200,0.1344 l 0.4200,0.1986 l 0.4200,-0.1510 l 0.4200,-0.0072 l 0.4200,0.1340 l 0.4200,-0.1626 l 0.4200,0.4838 l 0.4200,-0.0327 l 0.4200,0.1277 l 0.4200,0.0028 l 0.4200,0.1253 l 0.4200,-0.2215 l 0.4200,-0.0721 l 0.4200,0.0626 l 0.4200,0.0137 l 0.4200,-0.1683 l 0.4200,0.1543 l 0.4200,0.0763 l 0.4200,0.1234 l 0.4200,0.1279 l 0.4200,0.0148 l 0.4200,0.2673 l 0.4200,0.2571 l 0.4200,0.1770 l 0.4200,0.0724 l 0.4200,-0.8202 l 0.4200,-0.1319 l 0.4200,-0.4054 l 0.4200,-0.0628 l 0.4200,0.0637 l 0.4200,0.0152 l 0.4200,-0.2705 l 0.4200,0.0708 l 0.4200,-0.1651 l 0.4200,0.1013 l 0.4200,-0.2695 l 0.4200,-0.0703 l 0.4200,-0.0191 l 0.4200,-0.1361 l 0.4200,0.2104 l 0.4200,-0.0390 l 0.4200,0.1116 l 0.4200,0.1442 l 0.4200,-0.0039 l 0.4200,-0.2080 l 0.4200,-0.1172 l 0.4200,-0.4822 l 0.4200,-0.0695 l 0.4200,-0.2115 l 0.4200,0.0552 l 0.4200,-0.2339 l 0.4200,0.3200 l 0.4200,-0.1342 l 0.4200,0.0783 l 0.4200,-0.0624 l 0.4200,-0.1249 l 0.4200,0.1052 l 0.4200,0.0826 l 0.4200,-0.0351 l 0.4200,-0.0726 l 0.4200,0.3290 l 0.4200,0.0230 l 0.4200,0.1873 l 0.4200,-0.3073 l 0.4200,-0.2034 l 0.4200,0.0413 l 0.4200,-0.1204 l 0.4200,0.1465 l 0.4200,0.0121 l 0.4200,-0.0945 l 0.4200,0.0933 l 0.4200,-0.0576 l 0.4200,0.1243 l 0.4200,-0.0545 l 0.4200,0.1486 l 0.4200,-0.1149 l 0.4200,0.1137 l 0.4200,-0.2350 l 0.4200,-0.2895 l 0.4200,0.0402 l 0.4200,0.0452 l 0.4200,0.2399 l 0.4200,0.0458 l 0.4200,0.0008 l 0.4200,-0.0094 l 0.4200,-0.2611 l 0.4200,0.0923 l 0.4200,0.0037 l 0.4200,-0.0139 l 0.4200,-0.2042 l 0.4200,-0.1219 l 0.4200,-0.1849 l 0.4200,-0.1381 l 0.4200,-0.1750 l 0.4200,0.0458 l 0.4200,-0.0502 l 0.4200,-0.2145 l 0.4200,0.0542 l 0.4200,-0.0025 l 0.4200,-0.0430 l 0.4200,-0.0251 l 0.4200,0.1108 l 0.4200,-0.4994 l 0.4200,0.2356 l 0.4200,-0.0055 l 0.4200,0.1374 l 0.4200,0.1235 l 0.4200,0.0996 l 0.4200,-0.0170 l 0.4200,-0.1100 l 0.4200,-0.0006 l 0.4200,0.1410 l 0.4200,-0.3016 l 0.4200,0.0749 l 0.4200,0.0630 l 0.4200,0.0892 l 0.4200,0.4845 l 0.4200,-0.0585 l 0.4200,0.0528 l 0.4200,0.0446 l 0.4200,0.0512 l 0.4200,-0.2601 l 0.4200,-0.0280 l 0.4200,-0.0977 l 0.4200,0.0982 l 0.4200,0.0750 l 0.4200,-0.0083 l 0.4200,0.1283 l 0.4200,-0.0600 l 0.4200,0.0440 l 0.4200,-0.0132 l 0.4200,0.0669 l 0.4200,0.1549 l 0.4200,0.2706 l 0.4200,-0.3114 l 0.4200,0.1223 l 0.4200,0.0773 l 0.4200,-0.2718 l 0.4200,0.1274 l 0.4200,-0.3944 l 0.4200,-0.2163 l 0.4200,0.0315 l 0.4200,-0.0078 l 0.4200,0.0854 l 0.4200,-0.0523 l 0.4200,-0.0318 l 0.4200,0.0611 l 0.4200,-0.0089 l 0.4200,-0.1410 l 0.4200,0.0118 l 0.4200,0.0519 l 0.4200,-0.0295 l 0.4200,0.0949 l 0.4200,0.0689 l 0.4200,-0.1669 l 0.4200,0.0391 l 0.4200,0.7056 l 0.4200,-0.1265 l 0.4200,-0.2420 l 0.4200,-0.1815 l 0.4200,-0.0563 l 0.4200,-0.0808 l 0.4200,-0.1542 l 0.4200,0.0015 l 0.4200,0.0588 l 0.4200,0.0306 l 0.4200,-0.2715 l 0.4200,-0.1262 l 0.4200,0.0596 l 0.4200,0.1186 l 0.4200,-0.0458 l 0.4200,0.0034 l 0.4200,0.0448 "/></g></svg>