<svg viewBox="-1.4059678118201535 -0.68275 2.413467811820153 1.5020159178324475" xmlns="http://www.w3.org/2000/svg" xmlns:xlink="http://www.w3.org/1999/xlink" version="1.1" width="600.0" height="300.0"><g stroke-width="0.0" stroke="none" fill="#000000" transform="translate(-0.19923390591007695, -0.57175)" fill-opacity="1.0" font-size="0.12" text-anchor="middle"><text transform="rotate(0.0, 0.0, -0.0)" x="0.0" y="-0.0">moving average</text></g><g stroke-width="0.0" stroke="#000000" fill="#666666" fill-opacity="3.0e-2" stroke-opacity="0.0"><rect width="1.9999999999999998" height="1.0" x="-1.0" y="-0.5" /></g><g stroke-width="5.0e-3" stroke="#A8E5EE" fill="none" stroke-opacity="0.3"><polyline points="-1.005,0.5 1.0049999999999997,0.5" /></g><g stroke-width="5.0e-3" stroke="#A8E5EE" fill="none" stroke-opacity="0.3"><polyline points="-1.005,0.33333333333333337 1.0049999999999997,0.33333333333333337" /></g><g stroke-width="5.0e-3" stroke="#A8E5EE" fill="none" stroke-opacity="0.3"><polyline points="-1.005,0.16666666666666669 1.0049999999999997,0.16666666666666669" /></g><g stroke-width="5.0e-3" stroke="#A8E5EE" fill="none" stroke-opacity="0.3"><polyline points="-1.005,-0.0 1.0049999999999997,-0.0" /></g><g stroke-width="5.0e-3" stroke="#A8E5EE" fill="none" stroke-opacity="0.3"><polyline points="-1.005,-0.16666666666666663 1.0049999999999997,-0.16666666666666663" /></g><g stroke-width="5.0e-3" stroke="#A8E5EE" fill="none" stroke-opacity="0.3"><polyline points="-1.005,-0.33333333333333337 1.0049999999999997,-0.33333333333333337" /></g><g stroke-width="5.0e-3" stroke="#A8E5EE" fill="none" stroke-opacity="0.3"><polyline points="-1.005,-0.5 1.0049999999999997,-0.5" /></g><g stroke-width="0.0" stroke="none" fill="#666666" fill-opacity="1.0" font-size="5.0e-2" text-anchor="end"><text x="-1.2309678118201535" y="0.5145">-8.0e-3</text></g><g stroke-width="0.0" stroke="none" fill="#666666" fill-opacity="1.0" font-size="5.0e-2" text-anchor="end"><text x="-1.2309678118201535" y="0.3478333333333334">-6.0e-3</text></g><g stroke-width="0.0" stroke="none" fill="#666666" fill-opacity="1.0" font-size="5.0e-2" text-anchor="end"><text x="-1.2309678118201535" y="0.1811666666666667">-4.0e-3</text></g><g stroke-width="0.0" stroke="none" fill="#666666" fill-opacity="1.0" font-size="5.0e-2" text-anchor="end"><text x="-1.2309678118201535" y="1.4499999999999999e-2">-2.0e-3</text></g><g stroke-width="0.0" stroke="none" fill="#666666" fill-opacity="1.0" font-size="5.0e-2" text-anchor="end"><text x="-1.2309678118201535" y="-0.15216666666666662">0.0e0</text></g><g stroke-width="0.0" stroke="none" fill="#666666" fill-opacity="1.0" font-size="5.0e-2" text-anchor="end"><text x="-1.2309678118201535" y="-0.31883333333333336">2.0e-3</text></g><g stroke-width="0.0" stroke="none" fill="#666666" fill-opacity="1.0" font-size="5.0e-2" text-anchor="end"><text x="-1.2309678118201535" y="-0.4855">4.0e-3</text></g><g stroke-width="0.0" stroke="#2C429D" fill="#5F0391" fill-opacity="1.0" stroke-opacity="0.4"><line stroke-width="5.0e-3" transform="rotate(-90.0, -1.2008928118201536, 0.5)" x1="-1.2008928118201536" y1="0.515" x2="-1.2008928118201536" y2="0.485" /><line stroke-width="5.0e-3" transform="rotate(-90.0, -1.2008928118201536, 0.33333333333333337)" x1="-1.2008928118201536" y1="0.3483333333333334" x2="-1.2008928118201536" y2="0.31833333333333336" /><line stroke-width="5.0e-3" transform="rotate(-90.0, -1.2008928118201536, 0.16666666666666669)" x1="-1.2008928118201536" y1="0.1816666666666667" x2="-1.2008928118201536" y2="0.15166666666666667" /><line stroke-width="5.0e-3" transform="rotate(-90.0, -1.2008928118201536, -0.0)" x1="-1.2008928118201536" y1="1.5e-2" x2="-1.2008928118201536" y2="-1.5e-2" /><line stroke-width="5.0e-3" transform="rotate(-90.0, -1.2008928118201536, -0.16666666666666663)" x1="-1.2008928118201536" y1="-0.15166666666666662" x2="-1.2008928118201536" y2="-0.18166666666666664" /><line stroke-width="5.0e-3" transform="rotate(-90.0, -1.2008928118201536, -0.33333333333333337)" x1="-1.2008928118201536" y1="-0.31833333333333336" x2="-1.2008928118201536" y2="-0.3483333333333334" /><line stroke-width="5.0e-3" transform="rotate(-90.0, -1.2008928118201536, -0.5)" x1="-1.2008928118201536" y1="-0.485" x2="-1.2008928118201536" y2="-0.515" /></g><g stroke-width="0.0" stroke="#666666" fill="#5F0391" fill-opacity="0.5" stroke-opacity="0.0"><rect width="4.999999999999893e-3" height="1.0" x="-1.1908928118201536" y="-0.5" /></g><g stroke-width="5.0e-3" stroke="#A8E5EE" fill="none" stroke-opacity="0.3"><polyline points="-1.0,0.505 -1.0,-0.505" /></g><g stroke-width="5.0e-3" stroke="#A8E5EE" fill="none" stroke-opacity="0.3"><polyline points="-0.871743486973948,0.505 -0.871743486973948,-0.505" /></g><g stroke-width="5.0e-3" stroke="#A8E5EE" fill="none" stroke-opacity="0.3"><polyline points="-0.6152304609218437,0.505 -0.6152304609218437,-0.505" /></g><g stroke-width="5.0e-3" stroke="#A8E5EE" fill="none" stroke-opacity="0.3"><polyline points="-0.36272545090180375,0.505 -0.36272545090180375,-0.505" /></g><g stroke-width="5.0e-3" stroke="#A8E5EE" fill="none" stroke-opacity="0.3"><polyline points="-0.11022044088176364,0.505 -0.11022044088176364,-0.505" /></g><g stroke-width="5.0e-3" stroke="#A8E5EE" fill="none" stroke-opacity="0.3"><polyline points="0.1342685370741481,0.505 0.1342685370741481,-0.505" /></g><g stroke-width="5.0e-3" stroke="#A8E5EE" fill="none" stroke-opacity="0.3"><polyline points="0.3867735470941882,0.505 0.3867735470941882,-0.505" /></g><g stroke-width="5.0e-3" stroke="#A8E5EE" fill="none" stroke-opacity="0.3"><polyline points="0.6432865731462925,0.505 0.6432865731462925,-0.505" /></g><g stroke-width="5.0e-3" stroke="#A8E5EE" fill="none" stroke-opacity="0.3"><polyline points="0.8997995991983965,0.505 0.8997995991983965,-0.505" /></g><g stroke-width="5.0e-3" stroke="#A8E5EE" fill="none" stroke-opacity="0.3"><polyline points="0.9999999999999998,0.505 0.9999999999999998,-0.505" /></g><g stroke-width="0.0" stroke="none" fill="#666666" fill-opacity="1.0" font-size="5.0e-2" text-anchor="end"><text transform="rotate(-45.0, -1.0, 0.6062500000000001)" x="-1.0" y="0.6062500000000001">12 Feb 2018</text></g><g stroke-width="0.0" stroke="none" fill="#666666" fill-opacity="1.0" font-size="5.0e-2" text-anchor="end"><text transform="rotate(-45.0, -0.871743486973948, 0.6062500000000001)" x="-0.871743486973948" y="0.6062500000000001">31 Mar 2018</text></g><g stroke-width="0.0" stroke="none" fill="#666666" fill-opacity="1.0" font-size="5.0e-2" text-anchor="end"><text transform="rotate(-45.0, -0.6152304609218437, 0.6062500000000001)" x="-0.6152304609218437" y="0.6062500000000001">30 Jun 2018</text></g><g stroke-width="0.0" stroke="none" fill="#666666" fill-opacity="1.0" font-size="5.0e-2" text-anchor="end"><text transform="rotate(-45.0, -0.36272545090180375, 0.6062500000000001)" x="-0.36272545090180375" y="0.6062500000000001">30 Sep 2018</text></g><g stroke-width="0.0" stroke="none" fill="#666666" fill-opacity="1.0" font-size="5.0e-2" text-anchor="end"><text transform="rotate(-45.0, -0.11022044088176364, 0.6062500000000001)" x="-0.11022044088176364" y="0.6062500000000001">31 Dec 2018</text></g><g stroke-width="0.0" stroke="none" fill="#666666" fill-opacity="1.0" font-size="5.0e-2" text-anchor="end"><text transform="rotate(-45.0, 0.1342685370741481, 0.6062500000000001)" x="0.1342685370741481" y="0.6062500000000001">31 Mar 2019</text></g><g stroke-width="0.0" stroke="none" fill="#666666" fill-opacity="1.0" font-size="5.0e-2" text-anchor="end"><text transform="rotate(-45.0, 0.3867735470941882, 0.6062500000000001)" x="0.3867735470941882" y="0.6062500000000001">30 Jun 2019</text></g><g stroke-width="0.0" stroke="none" fill="#666666" fill-opacity="1.0" font-size="5.0e-2" text-anchor="end"><text transform="rotate(-45.0, 0.6432865731462925, 0.6062500000000001)" x="0.6432865731462925" y="0.6062500000000001">30 Sep 2019</text></g><g stroke-width="0.0" stroke="none" fill="#666666" fill-opacity="1.0" font-size="5.0e-2" text-anchor="end"><text transform="rotate(-45.0, 0.8997995991983965, 0.6062500000000001)" x="0.8997995991983965" y="0.6062500000000001">31 Dec 2019</text></g><g stroke-width="0.0" stroke="none" fill="#666666" fill-opacity="1.0" font-size="5.0e-2" text-anchor="end"><text transform="rotate(-45.0, 0.9999999999999998, 0.6062500000000001)" x="0.9999999999999998" y="0.6062500000000001">06 Feb 2020</text></g><g stroke-width="0.0" stroke="#2C429D" fill="#5F0391" fill-opacity="1.0" stroke-opacity="0.4"><line stroke-width="5.0e-3" x1="-1.0" y1="0.54" x2="-1.0" y2="0.51" /><line stroke-width="5.0e-3" x1="-0.871743486973948" y1="0.54" x2="-0.871743486973948" y2="0.51" /><line stroke-width="5.0e-3" x1="-0.6152304609218437" y1="0.54" x2="-0.6152304609218437" y2="0.51" /><line stroke-width="5.0e-3" x1="-0.36272545090180375" y1="0.54" x2="-0.36272545090180375" y2="0.51" /><line stroke-width="5.0e-3" x1="-0.11022044088176364" y1="0.54" x2="-0.11022044088176364" y2="0.51" /><line stroke-width="5.0e-3" x1="0.1342685370741481" y1="0.54" x2="0.1342685370741481" y2="0.51" /><line stroke-width="5.0e-3" x1="0.3867735470941882" y1="0.54" x2="0.3867735470941882" y2="0.51" /><line stroke-width="5.0e-3" x1="0.6432865731462925" y1="0.54" x2="0.6432865731462925" y2="0.51" /><line stroke-width="5.0e-3" x1="0.8997995991983965" y1="0.54" x2="0.8997995991983965" y2="0.51" /><line stroke-width="5.0e-3" x1="0.9999999999999998" y1="0.54" x2="0.9999999999999998" y2="0.51" /></g><g stroke-width="0.0" stroke="#666666" fill="#5F0391" fill-opacity="0.5" stroke-opacity="0.0"><rect width="1.9999999999999998" height="5.0000000000000044e-3" x="-1.0" y="0.51" /></g><g stroke-width="5.0e-3" stroke="#C58C4B" fill="none" stroke-opacity="0.5"><polyline points="-1.0,-0.16666666666666663 0.9999999999999998,-0.16666666666666663" /></g><g stroke-width="5.0e-3" stroke="#3C7F2B" fill="none" stroke-opacity="0.5"><polyline points="-1.0,-6.005955470899582e-2 -0.9959919839679359,-7.626291792238149e-2 -0.9919839679358717,-0.13625577215515272 -0.9879759519038076,-0.18776324039891767 -0.9839679358717435,-0.1882642443019259 -0.9799599198396793,-0.16277387738179439 -0.9759519038076152,-0.140003247613245 -0.9719438877755511,-0.14539090837827295 -0.9679358717434869,-0.21271002247839377 -0.9639278557114228,-0.2591096825283694 -0.9599198396793587,-0.20120289976313432 -0.9559118236472945,-0.1529852296852401 -0.9519038076152304,-9.777777752542094e-2 -0.9478957915831663,-0.12230049464296733 -0.9438877755511023,-0.17023387599924222 -0.9398797595190381,-0.18103627808500145 -0.935871743486974,-0.17830116545593488 -0.9318637274549099,-0.19627422490914725 -0.9278557114228457,-0.2665836240964048 -0.9238476953907816,-0.25627612188908633 -0.9198396793587175,-0.22519602231197589 -0.9158316633266533,-0.1983488456022735 -0.9118236472945892,-0.1935054188467078 -0.9078156312625251,-0.19925513989560306 -0.9038076152304609,-0.1380172138155623 -0.8997995991983968,-0.14561930506694398 -0.8957915831663327,-0.13898129046531227 -0.8917835671342685,-3.417852902938601e-2 -0.8877755511022044,4.7487926870124375e-2 -0.8837675350701403,-7.486580564059941e-2 -0.8797595190380761,-6.842157934657589e-3 -0.875751503006012,-2.6628882558598077e-3 -0.8717434869739479,-6.784548310491689e-2 -0.8677354709418837,2.134130021647479e-2 -0.8637274549098196,-4.0292269700095806e-2 -0.8597194388777555,-9.452808229249765e-2 -0.8557114228456915,-0.12663260149593714 -0.8517034068136273,-3.6284025653836816e-2 -0.8476953907815632,-5.6682302753439884e-2 -0.8436873747494991,-0.13130068331409106 -0.8396793587174349,-0.10998279141653489 -0.8356713426853708,-0.1470540633600127 -0.8316633266533067,-0.13598969488358237 -0.8276553106212425,-0.17117494671316535 -0.8236472945891784,-0.2151373315812709 -0.8196392785571143,-0.21617638336647282 -0.8156312625250501,-0.18977347302330494 -0.811623246492986,-0.15289656145556907 -0.8076152304609219,-0.1538193580902132 -0.8036072144288577,-9.833302423208068e-2 -0.7995991983967936,-0.10939709780541607 -0.7955911823647295,-0.15551117693717387 -0.7915831663326653,-0.16070647385167436 -0.7875751503006012,-0.12674951497971831 -0.7835671342685371,-0.1393528816093258 -0.779559118236473,-0.11058544078420418 -0.7755511022044088,-0.1039885945335749 -0.7715430861723447,-0.16016337419655235 -0.7675350701402806,-0.17487179122928076 -0.7635270541082164,-0.17335454902153946 -0.7595190380761523,-0.21316868767429076 -0.7555110220440882,-0.2497061345199154 -0.751503006012024,-0.2526630757596353 -0.7474949899799599,-0.25204283642985525 -0.7434869739478958,-0.21916713137478994 -0.7394789579158316,-0.23342685786380135 -0.7354709418837675,-0.22652118687629164 -0.7314629258517034,-0.2125465224739237 -0.7274549098196392,-0.2409175485346542 -0.7234468937875751,-0.22411880099231574 -0.719438877755511,-0.23475929983080734 -0.7154308617234469,-0.22291607296870786 -0.7114228456913828,-0.21027025604509952 -0.7074148296593187,-0.15962519064827008 -0.7034068136272545,-0.2125434127608704 -0.6993987975951904,-0.18148568730531955 -0.6953907815631263,-0.22570640072089376 -0.6913827655310621,-0.2413777260959239 -0.687374749498998,-0.2405686164593045 -0.6833667334669339,-0.2724189385479098 -0.6793587174348698,-0.2641544757302755 -0.6753507014028056,-0.27228437222961643 -0.6713426853707415,-0.27145405825883173 -0.6673346693386774,-0.27347246952110293 -0.6633266533066133,-0.2513227852233547 -0.6593186372745492,-0.25737539750685035 -0.6553106212424851,-0.24859987650396498 -0.6513026052104209,-0.23563491958902405 -0.6472945891783568,-0.21538851564373984 -0.6432865731462927,-0.22008029842262422 -0.6392785571142285,-0.19088574755098608 -0.6352705410821644,-0.1974256403316046 -0.6312625250501003,-0.13830551178128536 -0.6272545090180361,-0.14889919780535132 -0.623246492985972,-0.11378096127810056 -0.6192384769539079,-0.14209058029393207 -0.6152304609218437,-0.14647819989999522 -0.6112224448897796,-0.16025121043078716 -0.6072144288577155,-0.1399068616007596 -0.6032064128256514,-0.17701092052888967 -0.5991983967935872,-0.2116833646046239 -0.5951903807615231,-0.24603374204295525 -0.591182364729459,-0.2565122604119482 -0.5871743486973948,-0.22235545471599039 -0.5831663326653307,-0.25586681276710055 -0.5791583166332666,-0.2559012042286002 -0.5751503006012024,-0.2471533746942549 -0.5711422845691383,-0.25965330711036894 -0.5671342685370742,-0.2639963998755558 -0.56312625250501,-0.24262646793999432 -0.5591182364729459,-0.23487473732500797 -0.5551102204408818,-0.2391158430456357 -0.5511022044088176,-0.25536637977322085 -0.5470941883767535,-0.28868320689281735 -0.5430861723446894,-0.2699286183574615 -0.5390781563126252,-0.23733287648474666 -0.5350701402805611,-0.20975461155450126 -0.531062124248497,-0.22790370212034639 -0.5270541082164328,-0.22050479536710832 -0.5230460921843687,-0.23828934658695633 -0.5190380761523046,-0.25401417959663286 -0.5150300601202404,-0.264363397321721 -0.5110220440881764,-0.27122940165127674 -0.5070140280561123,-0.26490787159658435 -0.5030060120240482,-0.25398450026383834 -0.498997995991984,-0.21987147389972495 -0.4949899799599199,-0.20048607756370462 -0.49098196392785576,-0.22533231498166095 -0.4869739478957916,-0.19060232977460312 -0.4829659318637275,-0.22227310693651892 -0.47895791583166336,-0.2333161456899454 -0.47494989979959923,-0.24008815047419818 -0.4709418837675351,-0.24502707593506945 -0.46693386773547096,-0.23944975879810904 -0.46292585170340683,-0.22875771268307343 -0.4589178356713427,-0.25140193517824283 -0.45490981963927857,-0.2790032612006649 -0.45090180360721444,-0.2745082744751507 -0.4468937875751503,-0.2928047036084245 -0.44288577154308617,-0.26799708526808586 -0.43887775551102204,-0.26349085002229866 -0.434869739478958,-0.2517509237380755 -0.4308617234468939,-0.23580061594804513 -0.42685370741482975,-0.2170981222510544 -0.4228456913827656,-0.2053440585152131 -0.4188376753507015,-0.21131030623411062 -0.41482965931863736,-0.22463173163336558 -0.4108216432865732,-0.2232193460811902 -0.4068136272545091,-0.24234317977657505 -0.40280561122244496,-0.23970703585300246 -0.3987975951903808,-0.21278297251580447 -0.3947895791583167,-0.232788211173375 -0.39078156312625256,-0.2347008332571584 -0.38677354709418843,-0.2638408509461099 -0.3827655310621243,-0.25744630467238727 -0.37875751503006017,-0.23823281268498864 -0.37474949899799603,-0.22921305417760074 -0.3707414829659319,-0.21235781930897835 -0.36673346693386777,-0.22157107886999194 -0.36272545090180364,-0.21879723198898982 -0.3587174348697395,-0.23133442264145465 -0.35470941883767537,-0.22644783140626434 -0.35070140280561124,-0.22642238439388174 -0.3466933867735471,-0.1892552833136979 -0.342685370741483,-0.1650287084656341 -0.33867735470941884,-0.16346396279561803 -0.3346693386773547,-0.15771197331928433 -0.3306613226452907,-1.8924754021790835e-2 -0.32665330661322656,6.0303067722098314e-2 -0.3226452905811624,-9.821400434250283e-3 -0.3186372745490983,7.013346178214863e-3 -0.31462925851703416,-9.028660488947637e-2 -0.31062124248497003,-9.30527151245778e-2 -0.3066132264529059,-3.6331368098300176e-2 -0.30260521042084176,-4.13429866295596e-2 -0.29859719438877763,-2.9655850126496297e-2 -0.2945891783567135,-1.3476905966173236e-2 -0.29058116232464937,0.10949182926335554 -0.28657314629258523,1.8793413981573692e-2 -0.2825651302605211,8.23501517407289e-2 -0.27855711422845697,9.732101141366417e-2 -0.27454909819639284,1.9349448168932193e-2 -0.2705410821643287,-3.492168506554527e-2 -0.2665330661322646,-8.526934617284165e-2 -0.26252505010020044,-6.293620870474281e-2 -0.2585170340681363,-9.139228867101923e-2 -0.2545090180360722,-0.12115512229444503 -0.25050100200400804,-0.21087686106754022 -0.2464929859719439,-0.19819939641853135 -0.24248496993987978,-0.1581161524869329 -0.23847695390781565,-7.56347158590518e-2 -0.23446893787575152,-7.400706840337934e-2 -0.2304609218436875,-4.698926083013877e-2 -0.22645290581162336,-9.688160081345676e-2 -0.22244488977955923,-0.10962434482173022 -0.2184368737474951,-4.254662099214146e-2 -0.21442885771543096,2.757235681867376e-2 -0.21042084168336683,5.199283616502126e-3 -0.2064128256513027,2.4007734823822957e-2 -0.20240480961923857,-4.974671702886624e-2 -0.19839679358717444,-6.916098315869956e-2 -0.1943887775551103,-0.16867814747464394 -0.19038076152304617,-0.159471346518261 -0.18637274549098204,-0.19373756127204023 -0.1823647294589179,-0.2377256902162722 -0.17835671342685377,-9.708845311837033e-2 -0.17434869739478964,-9.421991326096502e-2 -0.1703406813627255,4.7581340225882895e-4 -0.16633266533066138,-1.5217158030099931e-2 -0.16232464929859725,-2.130459221007186e-2 -0.1583166332665331,-5.109299171366266e-2 -0.15430861723446898,-5.603854962616017e-2 -0.15030060120240485,1.8726762485259285e-2 -0.14629258517034072,9.692494486948561e-2 -0.14228456913827658,8.33853769160115e-2 -0.13827655310621245,0.13553052102041702 -0.13426853707414832,0.18666153437928923 -0.1302605210420842,0.2556747936052777 -0.12625250501002017,0.3490851066521746 -0.12224448897795603,0.12161761192395287 -0.1182364729458919,7.167744387674546e-2 -0.11422845691382777,6.493671315913596e-2 -0.11022044088176364,1.812060211110017e-2 -0.1062124248496995,3.5991853087681824e-3 -0.10220440881763537,9.953727407790214e-2 -9.819639278557124e-2,-5.44370843241353e-2 -9.418837675350711e-2,-8.915679675937349e-2 -9.018036072144298e-2,-0.13323473797700924 -8.617234468937884e-2,-0.15194663190935098 -8.216432865731471e-2,-0.1714669732836891 -7.815631262525058e-2,-0.17061733871667928 -7.414829659318645e-2,-0.1484556599438629 -7.014028056112231e-2,-0.19380212323399537 -6.613226452905818e-2,-0.2016933528833007 -6.212424849699405e-2,-0.23145339606642124 -5.811623246492992e-2,-0.2827845297612136 -5.4108216432865786e-2,-0.2175683158484284 -5.010020040080165e-2,-0.22419194165964895 -4.609218436873752e-2,-0.22704392844669563 -4.208416833667339e-2,-0.25924534800677046 -3.8076152304609256e-2,-0.22179234807874937 -3.4068136272545124e-2,-0.21296394707008892 -3.0060120240480992e-2,-0.2749391245318652 -2.605210420841686e-2,-0.3051948719418648 -2.204408817635284e-2,-0.3020109881280917 -1.8036072144288706e-2,-0.32338286021484375 -1.4028056112224574e-2,-0.3351194273848519 -1.0020040080160442e-2,-0.3174179734774015 -6.012024048096309e-3,-0.27070877070239263 -2.004008016032177e-3,-0.2683232178828565 2.004008016031955e-3,-0.2661939394803935 6.012024048096087e-3,-0.314583628625664 1.002004008016022e-2,-0.319768745763785 1.4028056112224352e-2,-0.3010504607815022 1.8036072144288484e-2,-0.33941462507377795 2.2044088176352616e-2,-0.337017315849505 2.605210420841675e-2,-0.3358978392849665 3.006012024048088e-2,-0.3127168256684276 3.406813627254501e-2,-0.33204197885125586 3.8076152304609145e-2,-0.32890281430082857 4.208416833667328e-2,-0.3174961333983001 4.609218436873741e-2,-0.30768717153623837 5.010020040080154e-2,-0.28884653066663823 5.4108216432865675e-2,-0.31136943966658315 5.811623246492981e-2,-0.2879338547461957 6.212424849699394e-2,-0.2771531046822484 6.613226452905807e-2,-0.24435597635264417 7.01402805611222e-2,-0.20647604859508606 7.414829659318634e-2,-0.19559406119367195 7.815631262525047e-2,-0.2548124237850454 8.21643286573146e-2,-0.2626924935706775 8.617234468937873e-2,-0.2867476465320168 9.018036072144286e-2,-0.277125266109704 9.4188376753507e-2,-0.292321167009463 9.819639278557113e-2,-0.30145134541558627 0.10220440881763526,-0.2941680695473198 0.1062124248496994,-0.2755067628204886 0.11022044088176353,-0.31503982353921733 0.11422845691382766,-0.22780105245544602 0.11823647294589179,-0.2212469456394084 0.12224448897795592,-0.24833898636105067 0.12625250501002006,-0.22485893968628845 0.13026052104208397,-0.23687872035949142 0.1342685370741481,-0.2613335596179356 0.13827655310621223,-0.3045260295438438 0.14228456913827636,-0.29770579312833967 0.1462925851703405,-0.300095805064422 0.15030060120240463,-0.3021012877659569 0.15430861723446876,-0.31460337919250014 0.1583166332665329,-0.31156867687212264 0.16232464929859702,-0.27896534028993414 0.16633266533066116,-0.2878163975915027 0.1703406813627253,-0.2819177535214258 0.17434869739478942,-0.30360344283014573 0.17835671342685355,-0.2941334071479784 0.18236472945891768,-0.28988185557352364 0.18637274549098182,-0.27423609187925224 0.19038076152304595,-0.2754319822074326 0.19438877755511008,-0.2742083248521291 0.1983967935871742,-0.3055077052570433 0.20240480961923835,-0.28942328363779124 0.20641282565130248,-0.2817477790494234 0.2104208416833666,-0.29547018319847307 0.21442885771543074,-0.2934922921201407 0.21843687374749488,-0.291113364002603 0.222444889779559,-0.2535141709350376 0.22645290581162314,-0.240312444356246 0.23046092184368727,-0.2765973532278936 0.2344689378757514,-0.2524299304371006 0.23847695390781554,-0.17876890003796353 0.24248496993987967,-0.1714691408460508 0.2464929859719438,-0.15862068962906095 0.25050100200400793,-0.1744954628442923 0.25450901803607207,-7.232706851091308e-2 0.2585170340681362,-0.11031066321582317 0.26252505010020033,-0.13738677333933924 0.26653306613226446,-0.17575058871251414 0.2705410821643286,-0.15090290447305243 0.2745490981963927,-0.12347335076346111 0.27855711422845686,-0.16088280452089598 0.282565130260521,-0.14938703074275683 0.2865731462925851,-0.10031062717045103 0.29058116232464926,-0.10926444580707106 0.2945891783567134,-7.708893187725718e-2 0.2985971943887775,-5.266819299447567e-2 0.30260521042084165,-6.710258482514075e-2 0.3066132264529058,-1.6734101619029995e-2 0.3106212424849699,-1.269293460244958e-2 0.31462925851703405,-0.10874965166782524 0.3186372745490982,-0.14551519695929394 0.3226452905811623,-0.17205960675804266 0.32665330661322645,-0.21530237378576833 0.3306613226452906,-0.23224233790614301 0.3346693386773545,-0.22750546604128097 0.3386773547094186,-0.21596495152198691 0.34268537074148275,-0.23053758149074421 0.3466933867735469,-0.22062398535614647 0.350701402805611,-0.2218066012465778 0.35470941883767515,-0.2593433109747202 0.3587174348697393,-0.2671291321525706 0.3627254509018034,-0.3013876981956335 0.36673346693386755,-0.2894015783683749 0.3707414829659317,-0.2760423812622026 0.3747494989979958,-0.2308161968123137 0.37875751503005994,-0.22246415428436206 0.3827655310621241,-0.2355738046418674 0.3867735470941882,-0.25604903889950337 0.39078156312625234,-0.28342583065917093 0.3947895791583165,-0.28977056995117434 0.3987975951903806,-0.3154616058781622 0.40280561122244474,-0.30049046674606616 0.40681362725450887,-0.2736027224449993 0.410821643286573,-0.2734050579024818 0.41482965931863713,-0.2868204164785513 0.41883767535070127,-0.29032364424861623 0.4228456913827654,-0.30334718909477665 0.42685370741482953,-0.2972458864311538 0.43086172344689366,-0.27651032280611465 0.4348697394789578,-0.24371536748496025 0.4388777555110219,-0.25476125546938044 0.44288577154308606,-0.22454031992207768 0.4468937875751502,-0.23341622779483107 0.4509018036072143,-0.2585126886447109 0.45490981963927846,-0.27340869108429666 0.4589178356713426,-0.24608702079456857 0.4629258517034067,-0.2727849013787743 0.46693386773547085,-0.26073973259582395 0.470941883767535,-0.24527780700333235 0.4749498997995991,-0.1957422207844316 0.47895791583166325,-0.1566237451861613 0.4829659318637274,-0.12667010534980494 0.4869739478957915,-2.7108404543849662e-3 0.49098196392785565,-6.479623241589927e-2 0.4949899799599198,-7.308384583119842e-2 0.4989979959919839,-0.15521491465058612 0.503006012024048,-0.12812669688197087 0.5070140280561122,-7.841282429720042e-2 0.5110220440881763,-0.14540195893282826 0.5150300601202404,-2.258872677487478e-2 0.5190380761523046,-4.00477766773093e-2 0.5230460921843687,-0.10605813024318322 0.5270541082164328,-0.15922678757441466 0.531062124248497,-0.12648955188846422 0.5350701402805611,-0.16271915595835573 0.539078156312625,-0.1608073517397398 0.5430861723446891,-5.1563312435200404e-2 0.5470941883767533,-0.10283145074725475 0.5511022044088174,-9.265520361065072e-2 0.5551102204408815,-0.1235397410468353 0.5591182364729457,-0.17822726457376203 0.5631262525050098,-0.1803266547783028 0.5671342685370739,-0.15079778373624986 0.5711422845691381,-0.19652341544976204 0.5751503006012022,-0.24888854893899848 0.5791583166332663,-0.24856991659771144 0.5831663326653305,-0.2440830266877302 0.5871743486973946,-0.24155492721530092 0.5911823647294587,-0.26782581545680273 0.5951903807615229,-0.2747470915134127 0.599198396793587,-0.26632358436575887 0.6032064128256511,-0.24825526749835425 0.6072144288577153,-0.254919276183568 0.6112224448897794,-0.25193428398084716 0.6152304609218435,-0.2477541308528196 0.6192384769539077,-0.22325142762599848 0.6232464929859718,-0.2200182704240793 0.6272545090180359,-0.18213407045100927 0.6312625250501,-0.20694272135876524 0.6352705410821642,-0.19479612275013436 0.6392785571142283,-0.1711790893740407 0.6432865731462925,-0.1919322605620687 0.6472945891783566,-0.13927678558947632 0.6513026052104207,-6.537376158607677e-2 0.6553106212424848,-0.10352301094170702 0.659318637274549,-0.165500132287268 0.6633266533066131,-0.14685699077980485 0.6673346693386772,-8.250097711406257e-2 0.6713426853707414,-0.12447299599451289 0.6753507014028055,-0.15322935700039297 0.6793587174348696,-0.19923280484948525 0.6833667334669338,-0.19182082316149462 0.6873747494989979,-0.23183997205485563 0.691382765531062,-0.22024153674777225 0.6953907815631262,-0.2290587184450842 0.6993987975951903,-0.20957642539772448 0.7034068136272544,-0.23596474688461833 0.7074148296593186,-0.21760380355978926 0.7114228456913827,-0.22690321163211324 0.7154308617234468,-0.23188556972715046 0.719438877755511,-0.24555974785863566 0.7234468937875751,-0.26480601005061954 0.7274549098196392,-0.2564292434702127 0.7314629258517034,-0.26547482052916827 0.7354709418837675,-0.24792008510834196 0.7394789579158316,-0.2839237908122687 0.7434869739478958,-0.2934661262435406 0.7474949899799597,-0.282182807743527 0.7515030060120238,-0.2793330446762834 0.7555110220440879,-0.28505962351435987 0.7595190380761521,-0.28979582145621996 0.7635270541082162,-0.27545438331256966 0.7675350701402803,-0.2765292610665888 0.7715430861723445,-0.27399980432384585 0.7755511022044086,-0.27211936700434736 0.7795591182364727,-0.29878851839351583 0.7835671342685369,-0.2942783683392155 0.787575150300601,-0.28542790871631907 0.7915831663326651,-0.26380961113045176 0.7955911823647293,-0.2523524383804534 0.7995991983967934,-0.2571205412215133 0.8036072144288575,-0.2837613976695603 0.8076152304609217,-0.2870448430342959 0.8116232464929858,-0.2983831656138157 0.8156312625250499,-0.2750503138386198 0.819639278557114,-0.23351244979276664 0.8236472945891782,-0.20241922208064445 0.8276553106212423,-0.2268968348917385 0.8316633266533064,-0.23013168884137847 0.8356713426853706,-0.2648511289008899 0.8396793587174347,-0.2467425989984413 0.8436873747494988,-0.23816573555154263 0.847695390781563,-0.246690521438104 0.8517034068136271,-0.278267108709757 0.8557114228456912,-0.2729895004320745 0.8597194388777554,-0.29734986222067217 0.8637274549098195,-0.292212520064403 0.8677354709418836,-0.2841335871647318 0.8717434869739478,-0.2967993187696901 0.8757515030060119,-0.310845169310339 0.879759519038076,-0.30724361373995934 0.8837675350701402,-0.29940031923214416 0.8877755511022043,-0.31407639626273043 0.8917835671342684,-0.3068475111083089 0.8957915831663326,-0.2756818178719469 0.8997995991983967,-0.2824881043604468 0.9038076152304608,-0.31146326397459356 0.907815631262525,-0.27470297842501246 0.9118236472945891,-0.28399760032275034 0.9158316633266532,-0.2664344916310748 0.9198396793587174,-0.2818230729972766 0.9238476953907815,-0.303703644395687 0.9278557114228456,-0.28493820246862267 0.9318637274549098,-0.3079912673355436 0.9358717434869739,-0.2946096998078481 0.939879759519038,-0.295997757856573 0.9438877755511021,-0.3242468181458905 0.9478957915831663,-0.33242915669147155 0.9519038076152302,-0.3130764474731753 0.9559118236472943,-0.3069602680807745 0.9599198396793585,-0.3046969470707537 0.9639278557114226,-0.25994839422840743 0.9679358717434867,-0.1892186728956361 0.9719438877755509,-0.2297718366300593 0.975951903807615,-0.2230030357274735 0.9799599198396791,-0.23322562144908077 0.9839679358717432,-0.15546249290692327 0.9879759519038074,-0.18614114182150066 0.9919839679358715,-0.24712290103125845 0.9959919839679356,-0.2897158330796099 0.9999999999999998,-0.2973973543010302" /></g><g stroke-width="5.0e-3" stroke="#382A8C" fill="none" stroke-opacity="0.5"><polyline points="-1.0,-0.19992878578777162 -0.9959919839679359,-0.20177076611966105 -0.9919839679358717,-0.21251425848424255 -0.9879759519038076,-0.2220531672697047 -0.9839679358717435,-0.22181046878159838 -0.9799599198396793,-0.2163769331527754 -0.9759519038076152,-0.21128677664135576 -0.9719438877755511,-0.2116514735040802 -0.9679358717434869,-0.22445269067284623 -0.9639278557114228,-0.23361519600089697 -0.9599198396793587,-0.2222887843131246 -0.9559118236472945,-0.2124343914520459 -0.9519038076152304,-0.2007984094024139 -0.9478957915831663,-0.20467274650715328 -0.9438877755511023,-0.21343570025976633 -0.9398797595190381,-0.21516416243431302 -0.935871743486974,-0.21427586106500662 -0.9318637274549099,-0.21751072599955834 -0.9278557114228457,-0.23136024082610585 -0.9238476953907816,-0.22965097421734515 -0.9198396793587175,-0.2237012057786404 -0.9158316633266533,-0.21834671860203325 -0.9118236472945892,-0.21717805452092254 -0.9078156312625251,-0.21809127237395942 -0.9038076152304609,-0.2056553258331676 -0.8997995991983968,-0.20649936296326799 -0.8957915831663327,-0.2045629594639783 -0.8917835671342685,-0.1829465904868064 -0.8877755511022044,-0.1651256186923299 -0.8837675350701403,-0.1874702297388502 -0.8797595190380761,-0.1727394559566794 -0.875751503006012,-0.17024462904069948 -0.8717434869739479,-0.1816053306026626 -0.8677354709418837,-0.16263037546340675 -0.8637274549098196,-0.1731173726899221 -0.8597194388777555,-0.1826362841785043 -0.8557114228456915,-0.1881761060003322 -0.8517034068136273,-0.16949095578686801 -0.8476953907815632,-0.1722385419054583 -0.8436873747494991,-0.18600665562606844 -0.8396793587174349,-0.18119601752343728 -0.8356713426853708,-0.18789813965106394 -0.8316633266533067,-0.18527682519286737 -0.8276553106212425,-0.19182100425569115 -0.8236472945891784,-0.20040702065388705 -0.8196392785571143,-0.20076213412020139 -0.8156312625250501,-0.19563569454403051 -0.811623246492986,-0.18820169001527587 -0.8076152304609219,-0.1880331980566078 -0.8036072144288577,-0.17659379288531718 -0.7995991983967936,-0.17802399991345186 -0.7955911823647295,-0.18656054671872313 -0.7915831663326653,-0.18728911240380774 -0.7875751503006012,-0.18023189424389519 -0.7835671342685371,-0.18221774377717492 -0.779559118236473,-0.17603560699047205 -0.7755511022044088,-0.17406173607828346 -0.7715430861723447,-0.18459596059543193 -0.7675350701402806,-0.18729331813798888 -0.7635270541082164,-0.1868656544273536 -0.7595190380761523,-0.19469337110384566 -0.7555110220440882,-0.20218561363867515 -0.751503006012024,-0.20325220709543146 -0.7474949899799599,-0.2036222679161176 -0.7434869739478958,-0.1975313325902418 -0.7394789579158316,-0.20059963587588958 -0.7354709418837675,-0.1995467738982667 -0.7314629258517034,-0.1970215851475734 -0.7274549098196392,-0.20285103973298302 -0.7234468937875751,-0.1998719553125321 -0.719438877755511,-0.20224252353702832 -0.7154308617234469,-0.20019904592754623 -0.7114228456913828,-0.1978970528132361 -0.7074148296593187,-0.18789177176618876 -0.7034068136272545,-0.1981927503775297 -0.6993987975951904,-0.19212471191025293 -0.6953907815631263,-0.20086246434731858 -0.6913827655310621,-0.20424516878606025 -0.687374749498998,-0.20445467243183502 -0.6833667334669339,-0.21118587628983077 -0.6793587174348698,-0.21014531434888473 -0.6753507014028056,-0.21231138526256677 -0.6713426853707415,-0.2127450523380805 -0.6673346693386774,-0.21373582464974217 -0.6633266533066133,-0.2099032542389061 -0.6593186372745492,-0.2115279720054497 -0.6553106212424851,-0.2102313420598867 -0.6513026052104209,-0.20802203602133917 -0.6472945891783568,-0.20424888406795938 -0.6432865731462927,-0.2052986369394939 -0.6392785571142285,-0.19960754337999764 -0.6352705410821644,-0.20082830397783114 -0.6312625250501003,-0.188970251631305 -0.6272545090180361,-0.1905823414376181 -0.623246492985972,-0.1831418626958451 -0.6192384769539079,-0.18811017748483405 -0.6152304609218437,-0.18852750543413765 -0.6112224448897796,-0.19086161448495453 -0.6072144288577155,-0.18648664067840748 -0.6032064128256514,-0.19344165467325702 -0.5991983967935872,-0.20021183614696025 -0.5951903807615231,-0.20719662691920304 -0.591182364729459,-0.20968070174423925 -0.5871743486973948,-0.20331765619172482 -0.5831663326653307,-0.21021030578718958 -0.5791583166332666,-0.2106737491492885 -0.5751503006012024,-0.20937645779321257 -0.5711422845691383,-0.21225421344544582 -0.5671342685370742,-0.21359682293513238 -0.56312625250501,-0.20982683231742438 -0.5591182364729459,-0.20860448255065278 -0.5551102204408818,-0.20971540624252183 -0.5511022044088176,-0.21325951795607012 -0.5470941883767535,-0.22034395199816104 -0.5430861723446894,-0.21727642684003623 -0.5390781563126252,-0.21128380038066752 -0.5350701402805611,-0.2060286381556592 -0.531062124248497,-0.20969571600281667 -0.5270541082164328,-0.2083980145133445 -0.5230460921843687,-0.21207599256585163 -0.5190380761523046,-0.21548309270799804 -0.5150300601202404,-0.21793824712190202 -0.5110220440881764,-0.21977569948981146 -0.5070140280561123,-0.21902593050048758 -0.5030060120240482,-0.21730007564489928 -0.498997995991984,-0.21084431461826603 -0.4949899799599199,-0.20705750694387648 -0.49098196392785576,-0.21196104013366612 -0.4869739478957916,-0.20514875584073433 -0.4829659318637275,-0.21133744701245638 -0.47895791583166336,-0.2136554113623822 -0.47494989979959923,-0.21520641966250842 -0.4709418837675351,-0.21644302206279964 -0.46693386773547096,-0.21561339917413025 -0.46292585170340683,-0.21371335354736287 -0.4589178356713427,-0.21839264163775385 -0.45490981963927857,-0.22424299977764328 -0.45090180360721444,-0.22389160504677064 -0.4468937875751503,-0.22805705756770922 -0.44288577154308617,-0.22374301036004862 -0.43887775551102204,-0.22328430405997157 -0.434869739478958,-0.2213383842627502 -0.4308617234468939,-0.21845244809949738 -0.42685370741482975,-0.2148854310385846 -0.4228456913827656,-0.21255674520354106 -0.4188376753507015,-0.2136778678804373 -0.41482965931863736,-0.21631847734382514 -0.4108216432865732,-0.21611913277628536 -0.4068136272545091,-0.22001490164841142 -0.40280561122244496,-0.21971095564497845 -0.3987975951903808,-0.21452610377961912 -0.3947895791583167,-0.21850972019849513 -0.39078156312625256,-0.21903502952500076 -0.38677354709418843,-0.22501969110011244 -0.3827655310621243,-0.22412899344382797 -0.37875751503006017,-0.22061946815863387 -0.37474949899799603,-0.21899164990241993 -0.3707414829659319,-0.21572281697144713 -0.36673346693386777,-0.21753181890702522 -0.36272545090180364,-0.21701744213045437 -0.3587174348697395,-0.21954267815953277 -0.35470941883767537,-0.21868327735731397 -0.35070140280561124,-0.2187558334953269 -0.3466933867735471,-0.21139907878827568 -0.342685370741483,-0.20633232586391703 -0.33867735470941884,-0.20560634055593108 -0.3346693386773547,-0.20403451888306112 -0.3306613226452907,-0.17581384956792456 -0.32665330661322656,-0.1583993942636852 -0.3226452905811624,-0.17023726327509714 -0.3186372745490983,-0.16526615532419575 -0.31462925851703416,-0.18300335052271 -0.31062124248497003,-0.18262940511339798 -0.3066132264529059,-0.17038936880825417 -0.30260521042084176,-0.17005111250740645 -0.29859719438877763,-0.16642660394801534 -0.2945891783567135,-0.16182310757773555 -0.29058116232464937,-0.13574589851571395 -0.28657314629258523,-0.15143320429427964 -0.2825651302605211,-0.13701959055969004 -0.27855711422845697,-0.13183172120209874 -0.27454909819639284,-0.14513450652488757 -0.2705410821643287,-0.1543438936248449 -0.2665330661322646,-0.1632192037607113 -0.26252505010020044,-0.15797307769121272 -0.2585170340681363,-0.16271392499460335 -0.2545090180360722,-0.16795327535605264 -0.25050100200400804,-0.18542964158005582 -0.2464929859719439,-0.18314862084512873 -0.24248496993987978,-0.17528247981454304 -0.23847695390781565,-0.15861452921569075 -0.23446893787575152,-0.1574592015909898 -0.2304609218436875,-0.15122111874446564 -0.22645290581162336,-0.16015726816198594 -0.22244488977955923,-0.16207306029015534 -0.2184368737474951,-0.14813302836955333 -0.21442885771543096,-0.13305336873361606 -0.21042084168336683,-0.13592172611852749 -0.2064128256513027,-0.13074882577971292 -0.20240480961923857,-0.1439521505442155 -0.19839679358717444,-0.14689294943502873 -0.1943887775551103,-0.1660190626354544 -0.19038076152304617,-0.1642042932925697 -0.18637274549098204,-0.17101020677558254 -0.1823647294589179,-0.18003510610939355 -0.17835671342685377,-0.15248456453088188 -0.17434869739478964,-0.15135689544527553 -0.1703406813627255,-0.13184638029078766 -0.16633266533066138,-0.13366175264032887 -0.16232464929859725,-0.13369479353022096 -0.1583166332665331,-0.13852857141773767 -0.15430861723446898,-0.1386433272031964 -0.15030060120240485,-0.12286421700514205 -0.14629258517034072,-0.10580867073339273 -0.14228456913827658,-0.10648924816805871 -0.13827655310621245,-9.416147309633693e-2 -0.13426853707414832,-8.163835048339485e-2 -0.1302605210420842,-6.515269978957017e-2 -0.12625250501002017,-4.3262362246242136e-2 -0.12224448897795603,-8.483238650290259e-2 -0.1182364729458919,-9.275592012807554e-2 -0.11422845691382777,-9.245973263154927e-2 -0.11022044088176364,-0.10024899038324964 -0.1062124248496995,-0.10196957781877247 -0.10220440881763537,-8.172627243367014e-2 -9.819639278557124e-2,-0.11070850864896209 -9.418837675350711e-2,-0.11708973689276148 -9.018036072144298e-2,-0.1256259957349548 -8.617234468937884e-2,-0.12944446194384363 -8.216432865731471e-2,-0.1335735519183664 -7.815631262525058e-2,-0.1337825592186177 -7.414829659318645e-2,-0.12971857125903496 -7.014028056112231e-2,-0.13897523480390983 -6.613226452905818e-2,-0.14110174961807176 -6.212424849699405e-2,-0.14765967428734816 -5.811623246492992e-2,-0.15876383824409745 -5.4108216432865786e-2,-0.1469608023767115 -5.010020040080165e-2,-0.14899160267367284 -4.609218436873752e-2,-0.15031400342094192 -4.208416833667339e-2,-0.15752158658321447 -3.8076152304609256e-2,-0.15104822421184583 -3.4068136272545124e-2,-0.1499899852487827 -3.0060120240480992e-2,-0.16301476035935103 -2.605210420841686e-2,-0.17018515348307617 -2.204408817635284e-2,-0.17089847390490942 -1.8036072144288706e-2,-0.17648397346449174 -1.4028056112224574e-2,-0.18030027576599683 -1.0020040080160442e-2,-0.17830817650069541 -6.012024048096309e-3,-0.17035743391546054 -2.004008016032177e-3,-0.17088383671942275 2.004008016031955e-3,-0.1714323748505645 6.012024048096087e-3,-0.18205792832591694 1.002004008016022e-2,-0.18442020875653864 1.4028056112224352e-2,-0.18203003713015453 1.8036072144288484e-2,-0.19089307422512314 2.2044088176352616e-2,-0.19189882788875512 2.605210420841675e-2,-0.19312611745545494 3.006012024048088e-2,-0.1899176319504423 3.406813627254501e-2,-0.19501065452418775 3.8076152304609145e-2,-0.195753134857373 4.208416833667328e-2,-0.19480329547130182 4.609218436873741e-2,-0.19406843147815955 5.010020040080154e-2,-0.19143649070482016 5.4108216432865675e-2,-0.1969151729044275 5.811623246492981e-2,-0.1933725985879715 6.212424849699394e-2,-0.19216206113676426 6.613226452905807e-2,-0.18645254590629834 7.01402805611222e-2,-0.17945559465924998 7.414829659318634e-2,-0.17754940171832556 7.815631262525047e-2,-0.1895735208313537 8.21643286573146e-2,-0.19180192381801708 8.617234468937873e-2,-0.1973218601078116 9.018036072144286e-2,-0.19629164188759118 9.4188376753507e-2,-0.20013915830976403 9.819639278557113e-2,-0.2028870140779857 0.10220440881763526,-0.2024160022177085 0.1062124248496994,-0.1996012615456383 0.11022044088176353,-0.2082669287021326 0.11422845691382766,-0.19188690343374915 0.11823647294589179,-0.19093522356075854 0.12224448897795592,-0.19665674892587348 0.12625250501002006,-0.19247756196527277 0.13026052104208397,-0.19520533187712363 0.1342685370741481,-0.20051303361363615 0.13827655310621223,-0.20975973285886085 0.14228456913827636,-0.20934334854260983 0.1462925851703405,-0.21070497537568367 0.15030060120240463,-0.21199998021287803 0.15430861723446876,-0.2154014115737174 0.1583166332665329,-0.2157864907858299 0.16232464929859702,-0.21022364533025506 0.16633266533066116,-0.21268127374016554 0.1703406813627253,-0.21225289616466347 0.17434869739478942,-0.2172866825999752 0.17835671342685355,-0.21625584306584333 0.18236472945891768,-0.21618430839177383 0.18637274549098182,-0.21379213112473705 0.19038076152304595,-0.21463574879791825 0.19438877755511008,-0.21499897966095272 0.1983967935871742,-0.2218509491938473 0.20240480961923835,-0.21947063243062892 0.20641282565130248,-0.21863505802502692 0.2104208416833666,-0.2220106660650809 0.21442885771543074,-0.2223496830207483 0.21843687374749488,-0.22258532348823468 0.222444889779559,-0.21575076527986525 0.22645290581162314,-0.21348805402065862 0.23046092184368727,-0.22101327969834406 0.2344689378757514,-0.21673563587548106 0.23847695390781554,-0.2023603727412696 0.24248496993987967,-0.20066450617585407 0.2464929859719438,-0.197802862279158 0.25050100200400793,-0.20058599519570341 0.25450901803607207,-0.1798914110055133 0.2585170340681362,-0.1864124865215494 0.26252505010020033,-0.19106669031319534 0.26653306613226446,-0.1982026542180918 0.2705410821643286,-0.1930085967151436 0.2745490981963927,-0.18710162905080452 0.27855711422845686,-0.19394723701941796 0.282565130260521,-0.19131743793880496 0.2865731462925851,-0.18108285315238326 0.29058116232464926,-0.18206589461988787 0.2945891783567134,-0.17490277734579696 0.2985971943887775,-0.1690404911145552 0.30260521042084165,-0.1707636464994875 0.3066132264529058,-0.1596533392415218 0.3106212424849699,-0.1574159134619808 0.31462925851703405,-0.17518002708646074 0.3186372745490982,-0.18186883239056817 0.3226452905811623,-0.1868141779960052 0.32665330661322645,-0.1953151856891706 0.3306613226452906,-0.19890305039421163 0.3346693386773545,-0.19828906889635856 0.3386773547094186,-0.19627312996394897 0.34268537074148275,-0.1993845741732807 0.3466933867735469,-0.19771338501953584 0.350701402805611,-0.19817901420098827 0.35470941883767515,-0.20592263201707262 0.3587174348697393,-0.20801400304221918 0.3627254509018034,-0.21545686754193538 0.36673346693386755,-0.21391895188302057 0.3707414829659317,-0.21200193872663964 0.3747494989979958,-0.20359710626201744 0.37875751503005994,-0.20219888866193014 0.3827655310621241,-0.2050234713896555 0.3867735470941882,-0.20942402157370488 0.39078156312625234,-0.21536563009889642 0.3947895791583165,-0.21731517996289973 0.3987975951903806,-0.22317794104818023 0.40280561122244474,-0.22110654987006073 0.40681362725450887,-0.21652284017860746 0.410821643286573,-0.21705410609276787 0.41482965931863713,-0.22030068732607888 0.41883767535070127,-0.22166653017161664 0.4228456913827654,-0.22495781028161865 0.42685370741482953,-0.22452144353702574 0.43086172344689366,-0.2211015752409592 0.4348697394789578,-0.21509667165237978 0.4388777555110219,-0.2175920362075897 0.44288577154308606,-0.21191954129074708 0.4468937875751502,-0.213820930651611 0.4509018036072143,-0.21903617579301926 0.45490981963927846,-0.22241014140945325 0.4589178356713426,-0.2174557928482561 0.4629258517034067,-0.2230816812445604 0.46693386773547085,-0.22116967968931245 0.470941883767535,-0.21847299509987927 0.4749498997995991,-0.20883392597513362 0.47895791583166325,-0.2008793138035725 0.4829659318637274,-0.19444603015012707 0.4869739478957915,-0.16897641792303963 0.49098196392785565,-0.17973084054065602 0.4949899799599198,-0.18023901714246837 0.4989979959919839,-0.19559367919323334 0.503006012024048,-0.18977224799408365 0.5070140280561122,-0.17921301796600841 0.5110220440881763,-0.19160284295644603 0.5150300601202404,-0.16657818768461896 0.5190380761523046,-0.16863010305600845 0.5230460921843687,-0.18054635050539625 0.5270541082164328,-0.19043519976902057 0.531062124248497,-0.18357566850988438 0.5350701402805611,-0.19025072815764843 0.539078156312625,-0.1895930515919323 0.5430861723446891,-0.16745638673250252 0.5470941883767533,-0.17655108365194028 0.5511022044088174,-0.17377863789557269 0.5551102204408815,-0.17914431103996042 0.5591182364729457,-0.1895257700454146 0.5631262525050098,-0.18983266303160617 0.5671342685370739,-0.1838318287406625 0.5711422845691381,-0.1926466146333209 0.5751503006012022,-0.2031584093393327 0.5791583166332663,-0.20355198426707188 0.5831663326653305,-0.20310478560838208 0.5871743486973946,-0.20300894812468961 0.5911823647294587,-0.2086485855638962 0.5951903807615229,-0.21062461307414726 0.599198396793587,-0.20958113642900922 0.6032064128256511,-0.20653489753489562 0.6072144288577153,-0.2082849029715731 0.6112224448897794,-0.20815424826314877 0.6152304609218435,-0.20775601799472032 0.6192384769539077,-0.20325545847793702 0.6232464929859718,-0.2028087867290338 0.6272545090180359,-0.19540404157137015 0.6312625250501,-0.2002330720417178 0.6352705410821642,-0.19787084881316208 0.6392785571142283,-0.1931166948773131 0.6432865731462925,-0.19704795305988598 0.6472945891783566,-0.1864657011403893 0.6513026052104207,-0.17121320718420008 0.6553106212424848,-0.177784662599345 0.659318637274549,-0.18943747035188085 0.6633266533066131,-0.185469468669742 0.6673346693386772,-0.17221214115769412 0.6713426853707414,-0.1797094332933481 0.6753507014028055,-0.18490834112153565 0.6793587174348696,-0.1937922408501428 0.6833667334669338,-0.1923642501525381 0.6873747494989979,-0.2003626456612998 0.691382765531062,-0.19835773186381878 0.6953907815631262,-0.20034000625212067 0.6993987975951903,-0.19673073476457825 0.7034068136272544,-0.20213685596828856 0.7074148296593186,-0.19880294621248606 0.7114228456913827,-0.200850836400424 0.7154308617234468,-0.20210783177174818 0.719438877755511,-0.2051404447775993 0.7234468937875751,-0.20939389024680655 0.7274549098196392,-0.2082726581287634 0.7314629258517034,-0.21056333939396887 0.7354709418837675,-0.20760150712115566 0.7394789579158316,-0.21520543404181292 0.7434869739478958,-0.21780108469577186 0.7474949899799597,-0.21630107141124677 0.7515030060120238,-0.2163899361611209 0.7555110220440879,-0.2181646830138878 0.7595190380761521,-0.2197808720072646 0.7635270541082162,-0.21761273387302404 0.7675350701402803,-0.21840612591822328 0.7715430861723445,-0.21848146592115836 0.7755511022044086,-0.21866056184128557 0.7795591182364727,-0.22452898017074996 0.7835671342685369,-0.22436954554211752 0.787575150300601,-0.22329854184550924 0.7915831663326651,-0.21959617599704384 0.7955911823647293,-0.21774687579837826 0.7995991983967934,-0.21904655199241108 0.8036072144288575,-0.2247554631743115 0.8076152304609217,-0.226002211592211 0.8116232464929858,-0.22888030242253599 0.8156312625250499,-0.22490876069940946 0.819639278557114,-0.2171026034216309 0.8236472945891782,-0.2110480563429179 0.8276553106212423,-0.21585729056251401 0.8316633266533064,-0.21661465679573422 0.8356713426853706,-0.22369371512809288 0.8396793587174347,-0.22048358328533124 0.8436873747494988,-0.21903080075308257 0.847695390781563,-0.2209271072783794 0.8517034068136271,-0.22750005887430746 0.8557114228456912,-0.22695220771712532 0.8597194388777554,-0.2322846530019944 0.8637274549098195,-0.23190783666292736 0.8677354709418836,-0.23089509691700782 0.8717434869739478,-0.2339606281404767 0.8757515030060119,-0.23739818515489863 0.879759519038076,-0.2374123438823772 0.8837675350701402,-0.23654199767939 0.8877755511022043,-0.2401057963010348 0.8917835671342684,-0.2393997252697675 0.8957915831663326,-0.2338410644808805 0.8997995991983967,-0.235620729312491 0.9038076152304608,-0.24188443498580003 0.907815631262525,-0.2352281661657717 0.9118236472945891,-0.23748183866791173 0.9158316633266532,-0.23443437454612492 0.9198396793587174,-0.23783209199021493 0.9238476953907815,-0.2426481160799676 0.9278557114228456,-0.23950558297771185 0.9318637274549098,-0.24457052214600516 0.9358717434869739,-0.24252841609236164 0.939879759519038,-0.24332684053926135 0.9438877755511021,-0.24950336177029797 0.9478957915831663,-0.2518872640431702 0.9519038076152302,-0.24882214112599388 0.9559118236472943,-0.2482414483109856 0.9599198396793585,-0.2483759723066793 0.9639278557114226,-0.2399894714858508 0.9679358717434867,-0.22604311644672204 0.9719438877755509,-0.23378550475809579 0.975951903807615,-0.2323916078962983 0.9799599198396791,-0.2343422393189315 0.9839679358717432,-0.21877844743180141 0.9879759519038074,-0.22428101766946806 0.9919839679358715,-0.2360959707529401 0.9959919839679356,-0.24472482646539362 0.9999999999999998,-0.24671104077581996" /></g><g stroke-width="5.0e-3" stroke="#02C814" fill="none" stroke-opacity="0.5"><polyline points="-1.0,-0.20632251542737923 -0.9959919839679359,-0.20703373264157665 -0.9919839679358717,-0.2113100777213217 -0.9879759519038076,-0.21513045795855823 -0.9839679358717435,-0.21506106940056025 -0.9799599198396793,-0.2129146527465552 -0.9759519038076152,-0.21089243926361212 -0.9719438877755511,-0.211039895358213 -0.9679358717434869,-0.21616282853830293 -0.9639278557114228,-0.21986099011806137 -0.9599198396793587,-0.2153854422664837 -0.9559118236472945,-0.21147129849023882 -0.9519038076152304,-0.2068207580422332 -0.9478957915831663,-0.20834640348956968 -0.9438877755511023,-0.21183689036268527 -0.9398797595190381,-0.21253467047209218 -0.935871743486974,-0.2121898678922186 -0.9318637274549099,-0.21349215783873055 -0.9278557114228457,-0.2190480380419928 -0.9238476953907816,-0.21841358020962498 -0.9198396793587175,-0.21607862241017395 -0.9158316633266533,-0.21396731787300494 -0.9118236472945892,-0.2135173698434767 -0.9078156312625251,-0.2138972997234012 -0.9038076152304609,-0.20893969699768677 -0.8997995991983968,-0.20926417436506883 -0.8957915831663327,-0.20847855371974577 -0.8917835671342685,-0.19981634375185386 -0.8877755511022044,-0.19262047602100307 -0.8837675350701403,-0.20144834101029652 -0.8797595190380761,-0.19550011905234244 -0.875751503006012,-0.19441114563356776 -0.8717434869739479,-0.19885876019198168 -0.8677354709418837,-0.19119976441792186 -0.8637274549098196,-0.19528028575271006 -0.8597194388777555,-0.19899919869589178 -0.8557114228456915,-0.2011496757665534 -0.8517034068136273,-0.19362372140210282 -0.8476953907815632,-0.19462622478707792 -0.8436873747494991,-0.20004391954379552 -0.8396793587174349,-0.19806351524707222 -0.8356713426853708,-0.20067689410722833 -0.8316633266533067,-0.19957725330612497 -0.8276553106212425,-0.20213772321880163 -0.8236472945891784,-0.20553086290222755 -0.8196392785571143,-0.20565241291975989 -0.8156312625250501,-0.20358227597409329 -0.811623246492986,-0.20057688783687122 -0.8076152304609219,-0.20045999026211758 -0.8036072144288577,-0.19583452102477916 -0.7995991983967936,-0.19632964092347527 -0.7955911823647295,-0.19967103708154377 -0.7915831663326653,-0.19991002139412617 -0.7875751503006012,-0.19703665049419994 -0.7835671342685371,-0.19776377128251055 -0.779559118236473,-0.19522873245780803 -0.7755511022044088,-0.19436241159106327 -0.7715430861723447,-0.19849489869587156 -0.7675350701402806,-0.1995182459604926 -0.7635270541082164,-0.1992982807649485 -0.7595190380761523,-0.202379636930195 -0.7555110220440882,-0.20534578888082133 -0.751503006012024,-0.20575978556255536 -0.7474949899799599,-0.20589777957696132 -0.7434869739478958,-0.20345230339996767 -0.7394789579158316,-0.20465594083098781 -0.7354709418837675,-0.2042185708201184 -0.7314629258517034,-0.20318980813215348 -0.7274549098196392,-0.20549691707437912 -0.7234468937875751,-0.20429469979683312 -0.719438877755511,-0.20522523610869436 -0.7154308617234469,-0.2043959142146149 -0.7114228456913828,-0.2034583294957425 -0.7074148296593187,-0.19943397197019352 -0.7034068136272545,-0.203508194613914 -0.6993987975951904,-0.2010597174500578 -0.6953907815631263,-0.20451907840272476 -0.6913827655310621,-0.20585753372199989 -0.687374749498998,-0.20593488572056595 -0.6833667334669339,-0.20862144641060942 -0.6793587174348698,-0.20821547935374785 -0.6753507014028056,-0.2090896270592012 -0.6713426853707415,-0.2092759809222201 -0.6673346693386774,-0.2096861661325482 -0.6633266533066133,-0.20816933660228254 -0.6593186372745492,-0.2088261593794466 -0.6553106212424851,-0.20831831465172534 -0.6513026052104209,-0.20744224434593894 -0.6472945891783568,-0.20593530273128857 -0.6432865731462927,-0.20634845820524916 -0.6392785571142285,-0.20406782149638758 -0.6352705410821644,-0.20453828462305546 -0.6312625250501003,-0.199780223761864 -0.6272545090180361,-0.2003818197958671 -0.623246492985972,-0.19736643038572488 -0.6192384769539079,-0.19929685803056096 -0.6152304609218437,-0.1994190424880995 -0.6112224448897796,-0.2003091199602104 -0.6072144288577155,-0.19852134041569047 -0.6032064128256514,-0.20125520721468115 -0.5991983967935872,-0.2039320255939968 -0.5951903807615231,-0.20671106114510596 -0.591182364729459,-0.2077066333382167 -0.5871743486973948,-0.20516931139083494 -0.5831663326653307,-0.20791896460822445 -0.5791583166332666,-0.20811350731778 -0.5751503006012024,-0.20760483174267552 -0.5711422845691383,-0.20876302050777107 -0.5671342685370742,-0.20931402907539642 -0.56312625250501,-0.20782316400375211 -0.5591182364729459,-0.20734223877029823 -0.5551102204408818,-0.2077916572221673 -0.5511022044088176,-0.20921699690366802 -0.5470941883767535,-0.21206694060471398 -0.5430861723446894,-0.21087303858703776 -0.5390781563126252,-0.20850160155630226 -0.5350701402805611,-0.20641066546159648 -0.531062124248497,-0.20787596849123569 -0.5270541082164328,-0.20736416688549308 -0.5230460921843687,-0.20883949349700748 -0.5190380761523046,-0.2102152795501414 -0.5150300601202404,-0.2112184125683344 -0.5110220440881764,-0.21198027285371246 -0.5070140280561123,-0.21171154696452732 -0.5030060120240482,-0.21105046255643578 -0.498997995991984,-0.20849315659813628 -0.4949899799599199,-0.20698783816046107 -0.49098196392785576,-0.2089495301115104 -0.4869739478957916,-0.2062366624344264 -0.4829659318637275,-0.20870778727674044 -0.47895791583166336,-0.20964549165565372 -0.47494989979959923,-0.21028193465453104 -0.4709418837675351,-0.21079627355467956 -0.46693386773547096,-0.21048701139324422 -0.46292585170340683,-0.20974749869366083 -0.4589178356713427,-0.21163507734923215 -0.45490981963927857,-0.21400225086234193 -0.45090180360721444,-0.21390265596565405 -0.4468937875751503,-0.21560879277035394 -0.44288577154308617,-0.21393296694647912 -0.43887775551102204,-0.21378872460010256 -0.434869739478958,-0.2130483389990534 -0.4308617234468939,-0.21192712471480712 -0.42685370741482975,-0.21052641918398085 -0.4228456913827656,-0.20961238089738188 -0.4188376753507015,-0.21007260742536504 -0.41482965931863736,-0.21114327225254037 -0.4108216432865732,-0.2110842352458896 -0.4068136272545091,-0.21266268238486163 -0.40280561122244496,-0.21257051286054263 -0.3987975951903808,-0.21052513388553662 -0.3947895791583167,-0.2121345843326633 -0.39078156312625256,-0.21237020860672884 -0.38677354709418843,-0.21479073252044678 -0.3827655310621243,-0.21447536929225153 -0.37875751503006017,-0.21311017367478025 -0.37474949899799603,-0.2124890835502301 -0.3707414829659319,-0.21120756064324964 -0.36673346693386777,-0.21194922244279368 -0.36272545090180364,-0.21176580211802232 -0.3587174348697395,-0.21279690308970345 -0.35470941883767537,-0.21248012586909515 -0.35070140280561124,-0.21253396093025334 -0.3466933867735471,-0.209616146537693 -0.342685370741483,-0.2075965770969519 -0.33867735470941884,-0.20730112596882533 -0.3346693386773547,-0.20666561815802587 -0.3306613226452907,-0.19536682603487132 -0.32665330661322656,-0.1883228320073077 -0.3226452905811624,-0.192938285860898 -0.3186372745490983,-0.19085903859019415 -0.31462925851703416,-0.1978515451365359 -0.31062124248497003,-0.19764257419435582 -0.3066132264529059,-0.19268650699597445 -0.30260521042084176,-0.19246201592288448 -0.29859719438877763,-0.1909225688854661 -0.2945891783567135,-0.18898318647760437 -0.29058116232464937,-0.17844366253719635 -0.28657314629258523,-0.1845477937925366 -0.2825651302605211,-0.17864988994070763 -0.27855711422845697,-0.17640822100014708 -0.27454909819639284,-0.18155102913007037 -0.2705410821643287,-0.18508911787963278 -0.2665330661322646,-0.18851626103696006 -0.26252505010020044,-0.18631662238005575 -0.2585170340681363,-0.18809958712265662 -0.2545090180360722,-0.19009378461872406 -0.25050100200400804,-0.1969957690712747 -0.2464929859719439,-0.196037096267339 -0.24248496993987978,-0.1928390859534158 -0.23847695390781565,-0.1861016792893193 -0.23446893787575152,-0.1855295996391445 -0.2304609218436875,-0.18292208490834216 -0.22645290581162336,-0.1863697408106949 -0.22244488977955923,-0.18703120777136772 -0.2184368737474951,-0.18135536241320205 -0.21442885771543096,-0.17519060922265262 -0.21042084168336683,-0.176169403214661 -0.2064128256513027,-0.1739392523707507 -0.20240480961923857,-0.17904782057018764 -0.19839679358717444,-0.18008375744640892 -0.1943887775551103,-0.18760143949453378 -0.19038076152304617,-0.18678920224994366 -0.18637274549098204,-0.1894212280073192 -0.1823647294589179,-0.19295754365591666 -0.17835671342685377,-0.18188563727432583 -0.17434869739478964,-0.18131696534910957 -0.1703406813627255,-0.17339291900769893 -0.16633266533066138,-0.1739528817926479 -0.16232464929859725,-0.17380493363199534 -0.1583166332665331,-0.17557800422659509 -0.15430861723446898,-0.175475708809543 -0.15030060120240485,-0.16901673520389582 -0.14629258517034072,-0.1620099066224011 -0.14228456913827658,-0.1620573326527115 -0.13827655310621245,-0.15690395028608406 -0.13426853707414832,-0.15164373133214826 -0.1302605210420842,-0.14476944953122328 -0.12625250501002017,-0.13569484751492544 -0.12224448897795603,-0.1519531272765149 -0.1182364729458919,-0.1548540577634897 -0.11422845691382777,-0.15448719021433743 -0.11022044088176364,-0.15735478348468657 -0.1062124248496995,-0.15781459528649 -0.10220440881763537,-0.1494938930625781 -9.819639278557124e-2,-0.16081571706617936 -9.418837675350711e-2,-0.16316777953003025 -9.018036072144298e-2,-0.16639797089635855 -8.617234468937884e-2,-0.16776226947926842 -8.216432865731471e-2,-0.1692606342389359 -7.815631262525058e-2,-0.16920148882975405 -7.414829659318645e-2,-0.16743421792747637 -7.014028056112231e-2,-0.17098602075875258 -6.613226452905818e-2,-0.17170858354059804 -6.212424849699405e-2,-0.17420932607261852 -5.811623246492992e-2,-0.17854479304817727 -5.4108216432865786e-2,-0.1737444548820064 -5.010020040080165e-2,-0.1744496403907697 -4.609218436873752e-2,-0.17487676853880907 -4.208416833667339e-2,-0.17766155074324663 -3.8076152304609256e-2,-0.17499164593805905 -3.4068136272545124e-2,-0.17447257666592897 -3.0060120240480992e-2,-0.17958455634448778 -2.605210420841686e-2,-0.1823864344100372 -2.204408817635284e-2,-0.18262295745506274 -1.8036072144288706e-2,-0.18481025934469497 -1.4028056112224574e-2,-0.18630347512177636 -1.0020040080160442e-2,-0.18548262261823256 -6.012024048096309e-3,-0.18227362779966838 -2.004008016032177e-3,-0.18243652414571643 2.004008016031955e-3,-0.18260972864846803 6.012024048096087e-3,-0.18681524062341748 1.002004008016022e-2,-0.1877411235464761 1.4028056112224352e-2,-0.1867717712367627 1.8036072144288484e-2,-0.19029801913832378 2.2044088176352616e-2,-0.19070270082412377 2.605210420841675e-2,-0.19119840115906217 3.006012024048088e-2,-0.18992271782224268 3.406813627254501e-2,-0.19195990650825367 3.8076152304609145e-2,-0.19226910163359157 4.208416833667328e-2,-0.1919031020120583 4.609218436873741e-2,-0.19162075718863825 5.010020040080154e-2,-0.1905777715764606 5.4108216432865675e-2,-0.19277267933281705 5.811623246492981e-2,-0.19137221958052097 6.212424849699394e-2,-0.19089600611606794 6.613226452905807e-2,-0.1886172642439642 7.01402805611222e-2,-0.18580982487179432 7.414829659318634e-2,-0.1850219307745743 7.815631262525047e-2,-0.1898016883035607 8.21643286573146e-2,-0.1906921368283372 8.617234468937873e-2,-0.19290455049221367 9.018036072144286e-2,-0.19251013244258786 9.4188376753507e-2,-0.19406426504923713 9.819639278557113e-2,-0.19518770692956788 0.10220440881763526,-0.19503009941405058 0.1062124248496994,-0.19393374675643715 0.11022044088176353,-0.19742268367819182 0.11422845691382766,-0.19091405055093413 0.11823647294589179,-0.19053727001326914 0.12224448897795592,-0.19282747197350514 0.12625250501002006,-0.19117111429707434 0.13026052104208397,-0.1922674480524873 0.1342685370741481,-0.19440228028239093 0.13827655310621223,-0.19812540299380577 0.14228456913827636,-0.1980053865867657 0.1462925851703405,-0.1985953891678185 0.15030060120240463,-0.1991618294475278 0.15430861723446876,-0.20057375459492488 0.1583166332665329,-0.20078709690768515 0.16232464929859702,-0.19862195630096768 0.16633266533066116,-0.19965141442104917 0.1703406813627253,-0.1995321828281248 0.17434869739478942,-0.20159658025559568 0.17835671342685355,-0.2012470048513204 0.18236472945891768,-0.20127842633455062 0.18637274549098182,-0.20038117895596474 0.19038076152304595,-0.2007722698339124 0.19438877755511008,-0.2009730160949822 0.1983967935871742,-0.2037699077624039 0.20240480961923835,-0.20289010522284245 0.20641282565130248,-0.20262219756943267 0.2104208416833666,-0.2040364922272766 0.21442885771543074,-0.20424399570489493 0.21843687374749488,-0.20441067464115292 0.222444889779559,-0.20174954995319339 0.22645290581162314,-0.20090047031081737 0.23046092184368727,-0.20396091091673108 0.2344689378757514,-0.20231806286271214 0.23847695390781554,-0.19662562790107863 0.24248496993987967,-0.19597022025427313 0.2464929859719438,-0.19484433983928107 0.25050100200400793,-0.19596942709565868 0.25450901803607207,-0.18771005969198284 0.2585170340681362,-0.19028721530365145 0.26252505010020033,-0.19213339790518147 0.26653306613226446,-0.19498351663677205 0.2705410821643286,-0.19291877018591796 0.2745490981963927,-0.19055634242629926 0.27855711422845686,-0.19328076676024275 0.282565130260521,-0.1922315130090343 0.2865731462925851,-0.18813402279418456 0.29058116232464926,-0.1884990347026193 0.2945891783567134,-0.1856080552326519 0.2985971943887775,-0.18322031962860785 0.30260521042084165,-0.1838528624685245 0.3066132264529058,-0.17935638270146204 0.3106212424849699,-0.17838260021580588 0.31462925851703405,-0.18540437891858252 0.3186372745490982,-0.18803900363289716 0.3226452905811623,-0.1899924611901026 0.32665330661322645,-0.1933801511345925 0.3306613226452906,-0.19482303715482718 0.3346693386773545,-0.19459376460864342 0.3386773547094186,-0.19380217025283053 0.34268537074148275,-0.19505663177540777 0.3466933867735469,-0.19440546788350122 0.350701402805611,-0.19460495122462618 0.35470941883767515,-0.19771669460296548 0.3587174348697393,-0.19858606676268054 0.3627254509018034,-0.20160092430768517 0.36673346693386755,-0.20104118181705632 0.3707414829659317,-0.20032588763476777 0.3747494989979958,-0.1970106588532864 0.37875751503005994,-0.19647771760288635 0.3827655310621241,-0.1976304353782128 0.3867735470941882,-0.19942022759587819 0.39078156312625234,-0.20183688618186624 0.3947895791583165,-0.20267082110313572 0.3987975951903806,-0.20507450297268692 0.40280561122244474,-0.20431836025374106 0.40681362725450887,-0.2025520291356251 0.410821643286573,-0.20282041874546108 0.41482965931863713,-0.20417598598817477 0.41883767535070127,-0.20478682193174158 0.4228456913827654,-0.20617085280870184 0.42685370741482953,-0.20607145394075632 0.43086172344689366,-0.2047773065807148 0.4348697394789578,-0.20244064221992397 0.4388777555110219,-0.2034894121597377 0.44288577154308606,-0.20127682468919217 0.4468937875751502,-0.20207995129994383 0.4509018036072143,-0.20421301327391383 0.45490981963927846,-0.20562189217056392 0.4589178356713426,-0.20370730574304063 0.4629258517034067,-0.20601265504998323 0.46693386773547085,-0.2053161305326623 0.470941883767535,-0.20430087089351567 0.4749498997995991,-0.20050193174044284 0.47895791583166325,-0.19735341484875712 0.4829659318637274,-0.19479420498319822 0.4869739478957915,-0.1846049673930309 0.49098196392785565,-0.18884422224219755 0.4949899799599198,-0.18901103935611618 0.4989979959919839,-0.19511781608756773 0.503006012024048,-0.19279114706033051 0.5070140280561122,-0.1885553794528354 0.5110220440881763,-0.19347394000306306 0.5150300601202404,-0.18345659350614574 0.5190380761523046,-0.18420984603141544 0.5230460921843687,-0.188914026039269 0.5270541082164328,-0.19283609504258314 0.531062124248497,-0.19008267895783448 0.5350701402805611,-0.19272667477514838 0.539078156312625,-0.19245370036239184 0.5430861723446891,-0.183587591823538 0.5470941883767533,-0.1871609457709491 0.5511022044088174,-0.18600952801992598 0.5551102204408815,-0.1881068737171837 0.5591182364729457,-0.1922236070686565 0.5631262525050098,-0.1923355729150401 0.5671342685370739,-0.189925227559129 0.5711422845691381,-0.19342676832091843 0.5751503006012022,-0.19762836558857277 0.5791583166332663,-0.1978079157346716 0.5831663326653305,-0.19765201254532527 0.5871743486973946,-0.19763548864410052 0.5911823647294587,-0.1999128374577055 0.5951903807615229,-0.20073819145423066 0.599198396793587,-0.200360346482655 0.6032064128256511,-0.19917873408479503 0.6072144288577153,-0.19990816091326646 0.6112224448897794,-0.19988940599813 0.6152304609218435,-0.19976317325981874 0.6192384769539077,-0.19799492083204495 0.6232464929859718,-0.1978372942830673 0.6272545090180359,-0.19489528218978558 0.6312625250501,-0.19682892941545094 0.6352705410821642,-0.19589765669453374 0.6392785571142283,-0.19400388788866874 0.6432865731462925,-0.19557284238965245 0.6472945891783566,-0.19134584206453475 0.6513026052104207,-0.18522532391836244 0.6553106212424848,-0.1877978576174838 0.659318637274549,-0.19241892793842552 0.6633266533066131,-0.1908198014352238 0.6673346693386772,-0.18549546909934278 0.6713426853707414,-0.18844125264183764 0.6753507014028055,-0.1904858884957188 0.6793587174348696,-0.19401713819766497 0.6833667334669338,-0.19344504232923299 0.6873747494989979,-0.19664007736403089 0.691382765531062,-0.19585300211822743 0.6953907815631262,-0.19665593079253074 0.6993987975951903,-0.19522695849935212 0.7034068136272544,-0.1973954220858971 0.7074148296593186,-0.19608082391910564 0.7114228456913827,-0.1969108684834543 0.7154308617234468,-0.19742942650365192 0.719438877755511,-0.19866118532706467 0.7234468937875751,-0.20038848055254987 0.7274549098196392,-0.19997600934410953 0.7314629258517034,-0.20092546844533032 0.7354709418837675,-0.1997792870199997 0.7394789579158316,-0.20285214666866713 0.7434869739478958,-0.20393982007974332 0.7474949899799597,-0.20339525982439732 0.7515030060120238,-0.20348242897069446 0.7555110220440879,-0.20424395774056292 0.7595190380761521,-0.20494611623900694 0.7635270541082162,-0.20413820000838379 0.7675350701402803,-0.20450945496192208 0.7715430861723445,-0.20459517764692126 0.7755511022044086,-0.2047223611680692 0.7795591182364727,-0.2071254813025477 0.7835671342685369,-0.20713132144656754 0.787575150300601,-0.20677187286430643 0.7915831663326651,-0.2053570332008452 0.7955911823647293,-0.20467426969256375 0.7995991983967934,-0.20524643059460013 0.8036072144288575,-0.2075851955529514 0.8076152304609217,-0.20815257599059667 0.8116232464929858,-0.2093752108651331 0.8156312625250499,-0.20786461454211225 0.819639278557114,-0.20481032821562994 0.8236472945891782,-0.20243767848496874 0.8276553106212423,-0.20439581368423887 0.8316633266533064,-0.20474460608504008 0.8356713426853706,-0.20762370962082644 0.8396793587174347,-0.20640393690575087 0.8436873747494988,-0.2058791424783697 0.847695390781563,-0.20669027172158727 0.8517034068136271,-0.2093763997021857 0.8557114228456912,-0.2092297538760013 0.8597194388777554,-0.21143362180531344 0.8637274549098195,-0.21136629939447327 0.8677354709418836,-0.21104336964517934 0.8717434869739478,-0.2123489890436543 0.8757515030060119,-0.21381045840581026 0.879759519038076,-0.21391047280379816 0.8837675350701402,-0.2136563418069175 0.8877755511022043,-0.21517340387906536 0.8917835671342684,-0.21499070503624618 0.8957915831663326,-0.21286487680162558 0.8997995991983967,-0.2136606474849868 0.9038076152304608,-0.2162539700816205 0.907815631262525,-0.21369398441322585 0.9118236472945891,-0.214681590141092 0.9158316633266532,-0.21355380548648462 0.9198396793587174,-0.21499641474035902 0.9238476953907815,-0.21701416708525967 0.9278557114228456,-0.2158596896403362 0.9318637274549098,-0.21798024888100298 0.9358717434869739,-0.21726976755260563 0.939879759519038,-0.21769017192552453 0.9438877755511021,-0.22026332709239416 0.9478957915831663,-0.2213338481402547 0.9519038076152302,-0.22023001263699582 0.9559118236472943,-0.22011210402494852 0.9599198396793585,-0.22027843100037015 0.9639278557114226,-0.21703622083726382 0.9679358717434867,-0.21154949182420668 0.9719438877755509,-0.21470442164724635 0.975951903807615,-0.2142231872349708 0.9799599198396791,-0.21507611348666933 0.9839679358717432,-0.20892766123514628 0.9879759519038074,-0.21116809247499957 0.9919839679358715,-0.21594652540916637 0.9959919839679356,-0.21947866547552286 0.9999999999999998,-0.22037413584365284" /></g><g /><g stroke-width="4.0e-3" stroke="#3764A0" fill="#FFFFFF" fill-opacity="1.0" stroke-opacity="0.5"><rect width="0.4304462887010113" height="0.25817398204276576" x="0.3449300744674789" y="8.456460076186187e-2" /></g><g stroke-width="0.0" stroke="none" fill="#666666" fill-opacity="1.0" font-size="4.000000000000001e-2" text-anchor="start"><text x="0.3686788352233968" y="0.30338864502115775">rate = 0.996</text></g><g stroke-width="5.0e-3" stroke="#02C814" fill="none" stroke-opacity="0.5"><polyline points="0.7011614858062469,0.2970542647925992 0.7486590073180825,0.2970542647925992" /></g><g stroke-width="0.0" stroke="none" fill="#666666" fill-opacity="1.0" font-size="4.000000000000001e-2" text-anchor="start"><text x="0.3686788352233968" y="0.24868263395633378">rate = 0.99</text></g><g stroke-width="5.0e-3" stroke="#382A8C" fill="none" stroke-opacity="0.5"><polyline points="0.7011614858062469,0.24234825372777521 0.7486590073180825,0.24234825372777521" /></g><g stroke-width="0.0" stroke="none" fill="#666666" fill-opacity="1.0" font-size="4.000000000000001e-2" text-anchor="start"><text x="0.3686788352233968" y="0.1939766228915098">rate = 0.95</text></g><g stroke-width="5.0e-3" stroke="#3C7F2B" fill="none" stroke-opacity="0.5"><polyline points="0.7011614858062469,0.1876422426629512 0.7486590073180825,0.1876422426629512" /></g><g stroke-width="0.0" stroke="none" fill="#666666" fill-opacity="1.0" font-size="4.000000000000001e-2" text-anchor="start"><text x="0.3686788352233968" y="0.13927061182668582">zero</text></g><g stroke-width="5.0e-3" stroke="#C58C4B" fill="none" stroke-opacity="0.5"><polyline points="0.7011614858062468,0.13293623159812726 0.7486590073180825,0.13293623159812726" /></g><g /></svg>