<?xml version="1.0" encoding="UTF-8"?>
<!DOCTYPE svg PUBLIC "-//W3C//DTD SVG 1.1//EN"
    "http://www.w3.org/Graphics/SVG/1.1/DTD/svg11.dtd"><svg xmlns="http://www.w3.org/2000/svg" height="400.0000" stroke-opacity="1" viewBox="0 0 600 400" font-size="1" width="600.0000" xmlns:xlink="http://www.w3.org/1999/xlink" stroke="rgb(0,0,0)" version="1.1"><defs></defs><g stroke-linejoin="miter" stroke-opacity="0.0" fill-opacity="0.2" stroke="rgb(0,0,0)" stroke-width="0.0" fill="rgb(85,85,85)" stroke-linecap="butt" stroke-miterlimit="10.0"><path d="M 94.4056,321.6783 l -0.0000,-279.7203 h -5.5944 l -0.0000,279.7203 Z"/></g><g stroke-linejoin="miter" stroke-opacity="1.0" fill-opacity="0.7" font-size="11.188811188811187px" stroke="rgb(0,0,0)" stroke-width="1.9296726052976874" fill="rgb(51,51,51)" stroke-linecap="butt" stroke-miterlimit="10.0"><text dominant-baseline="middle" transform="matrix(1.0000,0.0000,0.0000,1.0000,80.4196,58.1792)" stroke="none" text-anchor="end">0.016</text></g><g stroke-linejoin="miter" stroke-opacity="0.5" fill-opacity="0.0" stroke="rgb(26,102,204)" stroke-width="1.9296726052976874" fill="rgb(0,0,0)" stroke-linecap="butt" stroke-miterlimit="10.0"><path d="M 86.0140,58.1792 h 5.5944 "/></g><g stroke-linejoin="miter" stroke-opacity="1.0" fill-opacity="0.7" font-size="11.188811188811187px" stroke="rgb(0,0,0)" stroke-width="1.9296726052976874" fill="rgb(51,51,51)" stroke-linecap="butt" stroke-miterlimit="10.0"><text dominant-baseline="middle" transform="matrix(1.0000,0.0000,0.0000,1.0000,80.4196,100.4721)" stroke="none" text-anchor="end">0.014</text></g><g stroke-linejoin="miter" stroke-opacity="0.5" fill-opacity="0.0" stroke="rgb(26,102,204)" stroke-width="1.9296726052976874" fill="rgb(0,0,0)" stroke-linecap="butt" stroke-miterlimit="10.0"><path d="M 86.0140,100.4721 h 5.5944 "/></g><g stroke-linejoin="miter" stroke-opacity="1.0" fill-opacity="0.7" font-size="11.188811188811187px" stroke="rgb(0,0,0)" stroke-width="1.9296726052976874" fill="rgb(51,51,51)" stroke-linecap="butt" stroke-miterlimit="10.0"><text dominant-baseline="middle" transform="matrix(1.0000,0.0000,0.0000,1.0000,80.4196,142.7650)" stroke="none" text-anchor="end">0.012</text></g><g stroke-linejoin="miter" stroke-opacity="0.5" fill-opacity="0.0" stroke="rgb(26,102,204)" stroke-width="1.9296726052976874" fill="rgb(0,0,0)" stroke-linecap="butt" stroke-miterlimit="10.0"><path d="M 86.0140,142.7650 h 5.5944 "/></g><g stroke-linejoin="miter" stroke-opacity="1.0" fill-opacity="0.7" font-size="11.188811188811187px" stroke="rgb(0,0,0)" stroke-width="1.9296726052976874" fill="rgb(51,51,51)" stroke-linecap="butt" stroke-miterlimit="10.0"><text dominant-baseline="middle" transform="matrix(1.0000,0.0000,0.0000,1.0000,80.4196,185.0579)" stroke="none" text-anchor="end">0.010</text></g><g stroke-linejoin="miter" stroke-opacity="0.5" fill-opacity="0.0" stroke="rgb(26,102,204)" stroke-width="1.9296726052976874" fill="rgb(0,0,0)" stroke-linecap="butt" stroke-miterlimit="10.0"><path d="M 86.0140,185.0579 h 5.5944 "/></g><g stroke-linejoin="miter" stroke-opacity="1.0" fill-opacity="0.7" font-size="11.188811188811187px" stroke="rgb(0,0,0)" stroke-width="1.9296726052976874" fill="rgb(51,51,51)" stroke-linecap="butt" stroke-miterlimit="10.0"><text dominant-baseline="middle" transform="matrix(1.0000,0.0000,0.0000,1.0000,80.4196,227.3508)" stroke="none" text-anchor="end">0.0080</text></g><g stroke-linejoin="miter" stroke-opacity="0.5" fill-opacity="0.0" stroke="rgb(26,102,204)" stroke-width="1.9296726052976874" fill="rgb(0,0,0)" stroke-linecap="butt" stroke-miterlimit="10.0"><path d="M 86.0140,227.3508 h 5.5944 "/></g><g stroke-linejoin="miter" stroke-opacity="1.0" fill-opacity="0.7" font-size="11.188811188811187px" stroke="rgb(0,0,0)" stroke-width="1.9296726052976874" fill="rgb(51,51,51)" stroke-linecap="butt" stroke-miterlimit="10.0"><text dominant-baseline="middle" transform="matrix(1.0000,0.0000,0.0000,1.0000,80.4196,269.6437)" stroke="none" text-anchor="end">0.0060</text></g><g stroke-linejoin="miter" stroke-opacity="0.5" fill-opacity="0.0" stroke="rgb(26,102,204)" stroke-width="1.9296726052976874" fill="rgb(0,0,0)" stroke-linecap="butt" stroke-miterlimit="10.0"><path d="M 86.0140,269.6437 h 5.5944 "/></g><g stroke-linejoin="miter" stroke-opacity="1.0" fill-opacity="0.7" font-size="11.188811188811187px" stroke="rgb(0,0,0)" stroke-width="1.9296726052976874" fill="rgb(51,51,51)" stroke-linecap="butt" stroke-miterlimit="10.0"><text dominant-baseline="middle" transform="matrix(1.0000,0.0000,0.0000,1.0000,80.4196,311.9366)" stroke="none" text-anchor="end">0.0040</text></g><g stroke-linejoin="miter" stroke-opacity="0.5" fill-opacity="0.0" stroke="rgb(26,102,204)" stroke-width="1.9296726052976874" fill="rgb(0,0,0)" stroke-linecap="butt" stroke-miterlimit="10.0"><path d="M 86.0140,311.9366 h 5.5944 "/></g><g stroke-linejoin="miter" stroke-opacity="0.0" fill-opacity="0.2" stroke="rgb(0,0,0)" stroke-width="0.0" fill="rgb(85,85,85)" stroke-linecap="butt" stroke-miterlimit="10.0"><path d="M 527.9720,341.2587 l -0.0000,-5.5944 h -419.5804 l -0.0000,5.5944 Z"/></g><g stroke-linejoin="miter" stroke-opacity="1.0" fill-opacity="0.7" font-size="11.188811188811187px" stroke="rgb(0,0,0)" stroke-width="1.9296726052976874" fill="rgb(51,51,51)" stroke-linecap="butt" stroke-miterlimit="10.0"><text dominant-baseline="text-before-edge" transform="matrix(1.0000,0.0000,0.0000,1.0000,499.8320,349.6503)" stroke="none" text-anchor="middle">1.7e4</text></g><g stroke-linejoin="miter" stroke-opacity="0.5" fill-opacity="0.0" stroke="rgb(26,102,204)" stroke-width="1.9296726052976874" fill="rgb(0,0,0)" stroke-linecap="butt" stroke-miterlimit="10.0"><path d="M 499.8320,338.4615 v 5.5944 "/></g><g stroke-linejoin="miter" stroke-opacity="1.0" fill-opacity="0.7" font-size="11.188811188811187px" stroke="rgb(0,0,0)" stroke-width="1.9296726052976874" fill="rgb(51,51,51)" stroke-linecap="butt" stroke-miterlimit="10.0"><text dominant-baseline="text-before-edge" transform="matrix(1.0000,0.0000,0.0000,1.0000,457.8320,349.6503)" stroke="none" text-anchor="middle">1.7e4</text></g><g stroke-linejoin="miter" stroke-opacity="0.5" fill-opacity="0.0" stroke="rgb(26,102,204)" stroke-width="1.9296726052976874" fill="rgb(0,0,0)" stroke-linecap="butt" stroke-miterlimit="10.0"><path d="M 457.8320,338.4615 v 5.5944 "/></g><g stroke-linejoin="miter" stroke-opacity="1.0" fill-opacity="0.7" font-size="11.188811188811187px" stroke="rgb(0,0,0)" stroke-width="1.9296726052976874" fill="rgb(51,51,51)" stroke-linecap="butt" stroke-miterlimit="10.0"><text dominant-baseline="text-before-edge" transform="matrix(1.0000,0.0000,0.0000,1.0000,415.8319,349.6503)" stroke="none" text-anchor="middle">1.7e4</text></g><g stroke-linejoin="miter" stroke-opacity="0.5" fill-opacity="0.0" stroke="rgb(26,102,204)" stroke-width="1.9296726052976874" fill="rgb(0,0,0)" stroke-linecap="butt" stroke-miterlimit="10.0"><path d="M 415.8319,338.4615 v 5.5944 "/></g><g stroke-linejoin="miter" stroke-opacity="1.0" fill-opacity="0.7" font-size="11.188811188811187px" stroke="rgb(0,0,0)" stroke-width="1.9296726052976874" fill="rgb(51,51,51)" stroke-linecap="butt" stroke-miterlimit="10.0"><text dominant-baseline="text-before-edge" transform="matrix(1.0000,0.0000,0.0000,1.0000,373.8319,349.6503)" stroke="none" text-anchor="middle">1.7e4</text></g><g stroke-linejoin="miter" stroke-opacity="0.5" fill-opacity="0.0" stroke="rgb(26,102,204)" stroke-width="1.9296726052976874" fill="rgb(0,0,0)" stroke-linecap="butt" stroke-miterlimit="10.0"><path d="M 373.8319,338.4615 v 5.5944 "/></g><g stroke-linejoin="miter" stroke-opacity="1.0" fill-opacity="0.7" font-size="11.188811188811187px" stroke="rgb(0,0,0)" stroke-width="1.9296726052976874" fill="rgb(51,51,51)" stroke-linecap="butt" stroke-miterlimit="10.0"><text dominant-baseline="text-before-edge" transform="matrix(1.0000,0.0000,0.0000,1.0000,331.8318,349.6503)" stroke="none" text-anchor="middle">1.7e4</text></g><g stroke-linejoin="miter" stroke-opacity="0.5" fill-opacity="0.0" stroke="rgb(26,102,204)" stroke-width="1.9296726052976874" fill="rgb(0,0,0)" stroke-linecap="butt" stroke-miterlimit="10.0"><path d="M 331.8318,338.4615 v 5.5944 "/></g><g stroke-linejoin="miter" stroke-opacity="1.0" fill-opacity="0.7" font-size="11.188811188811187px" stroke="rgb(0,0,0)" stroke-width="1.9296726052976874" fill="rgb(51,51,51)" stroke-linecap="butt" stroke-miterlimit="10.0"><text dominant-baseline="text-before-edge" transform="matrix(1.0000,0.0000,0.0000,1.0000,289.8318,349.6503)" stroke="none" text-anchor="middle">1.6e4</text></g><g stroke-linejoin="miter" stroke-opacity="0.5" fill-opacity="0.0" stroke="rgb(26,102,204)" stroke-width="1.9296726052976874" fill="rgb(0,0,0)" stroke-linecap="butt" stroke-miterlimit="10.0"><path d="M 289.8318,338.4615 v 5.5944 "/></g><g stroke-linejoin="miter" stroke-opacity="1.0" fill-opacity="0.7" font-size="11.188811188811187px" stroke="rgb(0,0,0)" stroke-width="1.9296726052976874" fill="rgb(51,51,51)" stroke-linecap="butt" stroke-miterlimit="10.0"><text dominant-baseline="text-before-edge" transform="matrix(1.0000,0.0000,0.0000,1.0000,247.8317,349.6503)" stroke="none" text-anchor="middle">1.6e4</text></g><g stroke-linejoin="miter" stroke-opacity="0.5" fill-opacity="0.0" stroke="rgb(26,102,204)" stroke-width="1.9296726052976874" fill="rgb(0,0,0)" stroke-linecap="butt" stroke-miterlimit="10.0"><path d="M 247.8317,338.4615 v 5.5944 "/></g><g stroke-linejoin="miter" stroke-opacity="1.0" fill-opacity="0.7" font-size="11.188811188811187px" stroke="rgb(0,0,0)" stroke-width="1.9296726052976874" fill="rgb(51,51,51)" stroke-linecap="butt" stroke-miterlimit="10.0"><text dominant-baseline="text-before-edge" transform="matrix(1.0000,0.0000,0.0000,1.0000,205.8317,349.6503)" stroke="none" text-anchor="middle">1.6e4</text></g><g stroke-linejoin="miter" stroke-opacity="0.5" fill-opacity="0.0" stroke="rgb(26,102,204)" stroke-width="1.9296726052976874" fill="rgb(0,0,0)" stroke-linecap="butt" stroke-miterlimit="10.0"><path d="M 205.8317,338.4615 v 5.5944 "/></g><g stroke-linejoin="miter" stroke-opacity="1.0" fill-opacity="0.7" font-size="11.188811188811187px" stroke="rgb(0,0,0)" stroke-width="1.9296726052976874" fill="rgb(51,51,51)" stroke-linecap="butt" stroke-miterlimit="10.0"><text dominant-baseline="text-before-edge" transform="matrix(1.0000,0.0000,0.0000,1.0000,163.8317,349.6503)" stroke="none" text-anchor="middle">1.6e4</text></g><g stroke-linejoin="miter" stroke-opacity="0.5" fill-opacity="0.0" stroke="rgb(26,102,204)" stroke-width="1.9296726052976874" fill="rgb(0,0,0)" stroke-linecap="butt" stroke-miterlimit="10.0"><path d="M 163.8317,338.4615 v 5.5944 "/></g><g stroke-linejoin="miter" stroke-opacity="1.0" fill-opacity="0.7" font-size="11.188811188811187px" stroke="rgb(0,0,0)" stroke-width="1.9296726052976874" fill="rgb(51,51,51)" stroke-linecap="butt" stroke-miterlimit="10.0"><text dominant-baseline="text-before-edge" transform="matrix(1.0000,0.0000,0.0000,1.0000,121.8316,349.6503)" stroke="none" text-anchor="middle">1.6e4</text></g><g stroke-linejoin="miter" stroke-opacity="0.5" fill-opacity="0.0" stroke="rgb(26,102,204)" stroke-width="1.9296726052976874" fill="rgb(0,0,0)" stroke-linecap="butt" stroke-miterlimit="10.0"><path d="M 121.8316,338.4615 v 5.5944 "/></g><g stroke-linejoin="miter" stroke-opacity="0.0" fill-opacity="2.0e-2" stroke="rgb(0,0,0)" stroke-width="0.0" fill="rgb(255,255,255)" stroke-linecap="butt" stroke-miterlimit="10.0"><path d="M 527.9720,321.6783 l -0.0000,-279.7203 h -419.5804 l -0.0000,279.7203 Z"/></g><g stroke-linejoin="miter" stroke-opacity="1.0" fill-opacity="0.0" stroke="rgb(250,165,218)" stroke-width="0.48241815132442184" fill="rgb(0,0,0)" stroke-linecap="butt" stroke-miterlimit="10.0"><path d="M 108.3916,183.7171 l 0.4200,4.6579 l 0.4200,-1.3008 l 0.4200,-0.8333 l 0.4200,-0.2977 l 0.4200,3.0909 l 0.4200,4.3249 l 0.4200,3.4165 l 0.4200,5.0423 l 0.4200,4.8882 l 0.4200,-1.0136 l 0.4200,3.5598 l 0.4200,2.3313 l 0.4200,4.6364 l 0.4200,-4.5486 l 0.4200,4.5591 l 0.4200,4.5579 l 0.4200,2.6400 l 0.4200,4.2698 l 0.4200,3.4755 l 0.4200,4.1864 l 0.4200,4.0719 l 0.4200,3.1100 l 0.4200,1.9021 l 0.4200,3.7281 l 0.4200,3.7392 l 0.4200,1.7687 l 0.4200,3.5835 l 0.4200,3.4248 l 0.4200,-6.8063 l 0.4200,3.6106 l 0.4200,2.8133 l 0.4200,-0.5410 l 0.4200,1.6142 l 0.4200,2.6496 l 0.4200,1.6928 l 0.4200,3.0236 l 0.4200,2.8392 l 0.4200,0.1516 l 0.4200,-14.6877 l 0.4200,2.8318 l 0.4200,1.1081 l 0.4200,1.7779 l 0.4200,1.1285 l 0.4200,-3.6427 l 0.4200,2.0177 l 0.4200,2.1359 l 0.4200,-15.6161 l 0.4200,2.6684 l 0.4200,3.0657 l 0.4200,3.1407 l 0.4200,1.5525 l 0.4200,-2.3980 l 0.4200,3.3872 l 0.4200,3.4495 l 0.4200,-4.6610 l 0.4200,-0.2573 l 0.4200,3.0709 l 0.4200,1.9594 l 0.4200,3.0131 l 0.4200,1.2647 l 0.4200,2.3822 l 0.4200,-6.7558 l 0.4200,2.3336 l 0.4200,-2.9649 l 0.4200,0.6425 l 0.4200,2.4189 l 0.4200,2.3555 l 0.4200,2.4698 l 0.4200,1.2834 l 0.4200,-0.4177 l 0.4200,-2.1913 l 0.4200,3.1064 l 0.4200,-4.4294 l 0.4200,-0.9694 l 0.4200,-3.1295 l 0.4200,-8.4585 l 0.4200,3.4247 l 0.4200,-31.4231 l 0.4200,2.0738 l 0.4200,3.4833 l 0.4200,-0.0398 l 0.4200,-7.1971 l 0.4200,2.3339 l 0.4200,2.5720 l 0.4200,4.0286 l 0.4200,2.9441 l 0.4200,1.1106 l 0.4200,3.7682 l 0.4200,3.3276 l 0.4200,3.7980 l 0.4200,2.5938 l 0.4200,0.2252 l 0.4200,1.4595 l 0.4200,3.4003 l 0.4200,3.1338 l 0.4200,1.9822 l 0.4200,2.6529 l 0.4200,-13.4559 l 0.4200,-7.9616 l 0.4200,3.8394 l 0.4200,2.7967 l 0.4200,0.1076 l 0.4200,2.8366 l 0.4200,3.1034 l 0.4200,1.2547 l 0.4200,2.5456 l 0.4200,1.5128 l 0.4200,-0.5611 l 0.4200,2.4068 l 0.4200,2.7017 l 0.4200,3.1548 l 0.4200,3.1056 l 0.4200,2.7051 l 0.4200,1.6089 l 0.4200,1.3434 l 0.4200,2.5451 l 0.4200,0.4676 l 0.4200,-7.3485 l 0.4200,3.0495 l 0.4200,1.3607 l 0.4200,-10.1499 l 0.4200,1.8599 l 0.4200,3.1960 l 0.4200,-0.2804 l 0.4200,2.0614 l 0.4200,-18.8007 l 0.4200,3.3511 l 0.4200,2.2740 l 0.4200,2.0008 l 0.4200,3.1516 l 0.4200,2.3511 l 0.4200,2.9009 l 0.4200,2.8996 l 0.4200,2.4862 l 0.4200,-6.5822 l 0.4200,3.0166 l 0.4200,2.0371 l 0.4200,0.5314 l 0.4200,2.8905 l 0.4200,2.9222 l 0.4200,2.7064 l 0.4200,-14.1497 l 0.4200,-5.9507 l 0.4200,1.7949 l 0.4200,2.7917 l 0.4200,1.2072 l 0.4200,2.8063 l 0.4200,3.1024 l 0.4200,-5.2834 l 0.4200,-31.7837 l 0.4200,2.7891 l 0.4200,0.3753 l 0.4200,-2.5770 l 0.4200,-6.2708 l 0.4200,1.7108 l 0.4200,-26.6825 l 0.4200,-0.4453 l 0.4200,4.7331 l 0.4200,-6.3899 l 0.4200,-6.1189 l 0.4200,4.8029 l 0.4200,-1.9392 l 0.4200,4.8394 l 0.4200,3.1532 l 0.4200,3.7305 l 0.4200,4.5803 l 0.4200,0.9864 l 0.4200,2.6433 l 0.4200,3.8768 l 0.4200,2.3924 l 0.4200,3.8486 l 0.4200,4.0661 l 0.4200,2.8762 l 0.4200,3.7359 l 0.4200,-1.3086 l 0.4200,-10.2593 l 0.4200,3.9917 l 0.4200,4.0310 l 0.4200,3.8872 l 0.4200,3.6049 l 0.4200,0.8121 l 0.4200,3.6978 l 0.4200,-8.0717 l 0.4200,3.1508 l 0.4200,-2.6605 l 0.4200,0.7103 l 0.4200,0.2311 l 0.4200,1.6550 l 0.4200,2.7183 l 0.4200,1.4272 l 0.4200,2.4386 l 0.4200,-0.7712 l 0.4200,3.2776 l 0.4200,1.9270 l 0.4200,-0.9957 l 0.4200,0.3980 l 0.4200,3.2292 l 0.4200,3.0130 l 0.4200,-11.1507 l 0.4200,-5.5032 l 0.4200,2.5964 l 0.4200,-4.9276 l 0.4200,-26.7333 l 0.4200,-0.3540 l 0.4200,-0.6182 l 0.4200,1.2948 l 0.4200,-2.3345 l 0.4200,4.4815 l 0.4200,3.7202 l 0.4200,3.5465 l 0.4200,3.6876 l 0.4200,4.0698 l 0.4200,-1.0940 l 0.4200,3.4594 l 0.4200,2.6606 l 0.4200,3.5148 l 0.4200,3.7862 l 0.4200,3.4461 l 0.4200,3.5214 l 0.4200,-3.4567 l 0.4200,1.4102 l 0.4200,3.3739 l 0.4200,3.4176 l 0.4200,-3.2412 l 0.4200,3.5121 l 0.4200,1.0035 l 0.4200,-4.3622 l 0.4200,2.4565 l 0.4200,2.4257 l 0.4200,-0.4438 l 0.4200,-1.6957 l 0.4200,3.1658 l 0.4200,2.2690 l 0.4200,1.0610 l 0.4200,2.9117 l 0.4200,1.5229 l 0.4200,3.1306 l 0.4200,3.0800 l 0.4200,2.8088 l 0.4200,2.8829 l 0.4200,0.1074 l 0.4200,1.8643 l 0.4200,2.7898 l 0.4200,2.4473 l 0.4200,0.2002 l 0.4200,-4.1334 l 0.4200,2.2353 l 0.4200,2.7347 l 0.4200,2.4911 l 0.4200,-2.1205 l 0.4200,2.6562 l 0.4200,2.5669 l 0.4200,2.3008 l 0.4200,-3.9220 l 0.4200,0.8211 l 0.4200,2.0097 l 0.4200,2.3878 l 0.4200,2.2253 l 0.4200,-1.3744 l 0.4200,2.3777 l 0.4200,0.2156 l 0.4200,-0.9234 l 0.4200,-5.1445 l 0.4200,0.8166 l 0.4200,-0.3170 l 0.4200,2.4132 l 0.4200,0.5003 l 0.4200,1.4968 l 0.4200,1.0177 l 0.4200,-15.2868 l 0.4200,-6.7608 l 0.4200,1.9932 l 0.4200,1.0265 l 0.4200,2.7516 l 0.4200,2.7447 l 0.4200,-0.6274 l 0.4200,2.6985 l 0.4200,-0.0559 l 0.4200,2.6339 l 0.4200,-35.2720 l 0.4200,3.1023 l 0.4200,-1.7106 l 0.4200,-3.3538 l 0.4200,3.4521 l 0.4200,1.6460 l 0.4200,-8.8626 l 0.4200,2.8263 l 0.4200,3.4004 l 0.4200,-0.4551 l 0.4200,1.9702 l 0.4200,3.4104 l 0.4200,-2.2594 l 0.4200,1.8337 l 0.4200,3.1167 l 0.4200,2.9116 l 0.4200,2.4084 l 0.4200,1.7821 l 0.4200,3.0818 l 0.4200,2.9108 l 0.4200,2.2469 l 0.4200,2.3014 l 0.4200,2.5834 l 0.4200,2.4612 l 0.4200,2.1133 l 0.4200,0.7063 l 0.4200,0.9364 l 0.4200,-2.9203 l 0.4200,1.5617 l 0.4200,2.6134 l 0.4200,-1.9266 l 0.4200,2.5178 l 0.4200,-3.0459 l 0.4200,2.5621 l 0.4200,0.5787 l 0.4200,2.3689 l 0.4200,-5.7159 l 0.4200,-1.1834 l 0.4200,-3.5021 l 0.4200,-22.2374 l 0.4200,-3.2708 l 0.4200,2.8681 l 0.4200,2.7357 l 0.4200,-10.4914 l 0.4200,3.4485 l 0.4200,-7.6538 l 0.4200,3.4959 l 0.4200,-12.8166 l 0.4200,-18.6392 l 0.4200,-21.0649 l 0.4200,-1.0774 l 0.4200,-7.2211 l 0.4200,4.1885 l 0.4200,3.0617 l 0.4200,4.4799 l 0.4200,-8.1493 l 0.4200,-1.3219 l 0.4200,-16.8672 l 0.4200,2.8101 l 0.4200,-2.7310 l 0.4200,3.0757 l 0.4200,5.1535 l 0.4200,-1.5622 l 0.4200,4.9773 l 0.4200,3.6255 l 0.4200,-0.8977 l 0.4200,4.9049 l 0.4200,3.8733 l 0.4200,3.7943 l 0.4200,4.4803 l 0.4200,4.5407 l 0.4200,4.3943 l 0.4200,4.3582 l 0.4200,3.9586 l 0.4200,4.1445 l 0.4200,4.0020 l 0.4200,3.9714 l 0.4200,2.9156 l 0.4200,3.1519 l 0.4200,3.7263 l 0.4200,2.5780 l 0.4200,3.4728 l 0.4200,2.8666 l 0.4200,3.3023 l 0.4200,1.9276 l 0.4200,-2.2864 l 0.4200,1.0005 l 0.4200,2.8125 l 0.4200,2.7095 l 0.4200,3.1747 l 0.4200,-3.2273 l 0.4200,3.0882 l 0.4200,-20.9466 l 0.4200,2.0525 l 0.4200,-15.9638 l 0.4200,1.7685 l 0.4200,-0.0071 l 0.4200,-25.4275 l 0.4200,-27.1154 l 0.4200,4.5989 l 0.4200,4.7814 l 0.4200,5.0302 l 0.4200,4.8021 l 0.4200,4.5425 l 0.4200,4.6668 l 0.4200,2.2546 l 0.4200,-3.2143 l 0.4200,4.5507 l 0.4200,-16.1688 l 0.4200,0.9580 l 0.4200,-3.8816 l 0.4200,-12.4655 l 0.4200,1.0804 l 0.4200,1.7094 l 0.4200,4.9247 l 0.4200,3.4908 l 0.4200,0.9380 l 0.4200,-6.3298 l 0.4200,4.9172 l 0.4200,3.6088 l 0.4200,-7.6791 l 0.4200,3.0222 l 0.4200,4.7660 l 0.4200,-5.7970 l 0.4200,-4.5158 l 0.4200,-0.4814 l 0.4200,-3.2831 l 0.4200,-4.5799 l 0.4200,-5.3259 l 0.4200,4.4505 l 0.4200,0.3208 l 0.4200,4.5153 l 0.4200,4.0925 l 0.4200,-0.4641 l 0.4200,5.1481 l 0.4200,0.8196 l 0.4200,4.5785 l 0.4200,4.9125 l 0.4200,4.6336 l 0.4200,4.3561 l 0.4200,3.0823 l 0.4200,4.3093 l 0.4200,4.2455 l 0.4200,3.9721 l 0.4200,3.6691 l 0.4200,2.9443 l 0.4200,2.1664 l 0.4200,1.6617 l 0.4200,1.9320 l 0.4200,3.8337 l 0.4200,-11.7919 l 0.4200,2.9636 l 0.4200,-15.3573 l 0.4200,4.2836 l 0.4200,-6.8497 l 0.4200,2.2418 l 0.4200,-7.3416 l 0.4200,3.7893 l 0.4200,-4.2055 l 0.4200,2.7171 l 0.4200,0.0696 l 0.4200,4.0982 l 0.4200,1.4754 l 0.4200,-9.3503 l 0.4200,4.3637 l 0.4200,3.9899 l 0.4200,-5.1768 l 0.4200,-0.4759 l 0.4200,3.6578 l 0.4200,3.5017 l 0.4200,1.4783 l 0.4200,3.9963 l 0.4200,3.7618 l 0.4200,2.9044 l 0.4200,2.4853 l 0.4200,2.0972 l 0.4200,3.8177 l 0.4200,2.2513 l 0.4200,3.6200 l 0.4200,-6.6852 l 0.4200,-2.0801 l 0.4200,3.6378 l 0.4200,2.2154 l 0.4200,3.5301 l 0.4200,3.4832 l 0.4200,1.7280 l 0.4200,3.1419 l 0.4200,1.9324 l 0.4200,-5.3887 l 0.4200,-5.5434 l 0.4200,3.2144 l 0.4200,-7.8304 l 0.4200,2.4010 l 0.4200,2.5328 l 0.4200,-9.3115 l 0.4200,1.6422 l 0.4200,3.1139 l 0.4200,3.7759 l 0.4200,-4.4640 l 0.4200,3.8069 l 0.4200,3.2884 l 0.4200,3.4753 l 0.4200,3.3320 l 0.4200,3.2219 l 0.4200,2.6673 l 0.4200,-6.2409 l 0.4200,-2.9806 l 0.4200,3.3048 l 0.4200,-0.1034 l 0.4200,3.1376 l 0.4200,3.2704 l 0.4200,2.9540 l 0.4200,-3.3160 l 0.4200,3.1886 l 0.4200,-0.0056 l 0.4200,3.1335 l 0.4200,-9.9327 l 0.4200,3.1694 l 0.4200,-0.8800 l 0.4200,1.7368 l 0.4200,0.2088 l 0.4200,2.9185 l 0.4200,-4.8889 l 0.4200,0.6035 l 0.4200,0.4719 l 0.4200,3.3109 l 0.4200,-1.9456 l 0.4200,2.4891 l 0.4200,3.2064 l 0.4200,-30.9076 l 0.4200,2.9109 l 0.4200,-0.5199 l 0.4200,3.8522 l 0.4200,2.9459 l 0.4200,0.2968 l 0.4200,-15.3025 l 0.4200,3.2602 l 0.4200,-7.7817 l 0.4200,-4.1208 l 0.4200,3.1368 l 0.4200,4.1147 l 0.4200,0.2468 l 0.4200,4.0847 l 0.4200,3.9897 l 0.4200,2.0973 l 0.4200,3.2287 l 0.4200,1.0761 l 0.4200,-4.7082 l 0.4200,1.8300 l 0.4200,-8.0823 l 0.4200,0.2974 l 0.4200,3.9921 l 0.4200,3.4379 l 0.4200,3.1991 l 0.4200,3.3534 l 0.4200,2.8570 l 0.4200,-1.0879 l 0.4200,3.1063 l 0.4200,-9.5120 l 0.4200,-3.1113 l 0.4200,3.7263 l 0.4200,3.6652 l 0.4200,2.3281 l 0.4200,1.4688 l 0.4200,2.9433 l 0.4200,-1.9122 l 0.4200,-27.2905 l 0.4200,-49.5062 l 0.4200,-55.5866 l 0.4200,3.8064 l 0.4200,-61.4621 l 0.4200,-15.0946 l 0.4200,8.5494 l 0.4200,7.0077 l 0.4200,-16.7718 l 0.4200,-5.5008 l 0.4200,8.5238 l 0.4200,3.0736 l 0.4200,-14.9261 l 0.4200,4.1405 l 0.4200,7.2205 l 0.4200,7.4927 l 0.4200,8.2576 l 0.4200,1.6054 l 0.4200,5.2755 l 0.4200,7.9450 l 0.4200,-0.7391 l 0.4200,6.7770 l 0.4200,3.1284 l 0.4200,7.6731 l 0.4200,7.3652 l 0.4200,7.2524 l 0.4200,-15.1178 l 0.4200,6.9086 l 0.4200,-9.5451 l 0.4200,7.1267 l 0.4200,-1.5041 l 0.4200,-5.2623 l 0.4200,6.9856 l 0.4200,5.1020 l 0.4200,4.6998 l 0.4200,7.1323 l 0.4200,6.9503 l 0.4200,4.2951 l 0.4200,5.5029 l 0.4200,-2.1077 l 0.4200,6.0659 l 0.4200,6.3912 l 0.4200,5.9719 l 0.4200,3.9883 l 0.4200,-5.1530 l 0.4200,2.1443 l 0.4200,5.4122 l 0.4200,5.0897 l 0.4200,0.9346 l 0.4200,5.5024 l 0.4200,3.4489 l 0.4200,0.4835 l 0.4200,5.5448 l 0.4200,3.7814 l 0.4200,4.8654 l 0.4200,4.9807 l 0.4200,-1.9495 l 0.4200,5.1151 l 0.4200,3.9860 l 0.4200,-7.2668 l 0.4200,-1.8095 l 0.4200,-7.0436 l 0.4200,5.1673 l 0.4200,-7.7612 l 0.4200,5.1397 l 0.4200,4.7951 l 0.4200,4.8410 l 0.4200,4.9918 l 0.4200,4.8057 l 0.4200,4.7437 l 0.4200,2.8197 l 0.4200,-1.4304 l 0.4200,-4.0656 l 0.4200,-8.0159 l 0.4200,-17.6040 l 0.4200,2.2415 l 0.4200,2.8257 l 0.4200,2.0208 l 0.4200,4.8038 l 0.4200,-14.5330 l 0.4200,3.6217 l 0.4200,-1.3807 l 0.4200,-5.5427 l 0.4200,-6.3401 l 0.4200,-8.9498 l 0.4200,2.1202 l 0.4200,1.5317 l 0.4200,-1.7188 l 0.4200,5.6602 l 0.4200,5.4110 l 0.4200,0.1712 l 0.4200,2.4936 l 0.4200,0.8182 l 0.4200,-5.8455 l 0.4200,5.1646 l 0.4200,-2.0476 l 0.4200,-18.3786 l 0.4200,2.8577 l 0.4200,5.2307 l 0.4200,0.5105 l 0.4200,-18.1470 l 0.4200,-10.8377 l 0.4200,-8.9310 l 0.4200,6.1057 l 0.4200,3.5464 l 0.4200,3.2115 l 0.4200,-15.8876 l 0.4200,-0.6943 l 0.4200,-4.2792 l 0.4200,3.7193 l 0.4200,4.3792 l 0.4200,-20.3838 l 0.4200,7.2542 l 0.4200,-5.7010 l 0.4200,5.6001 l 0.4200,6.7836 l 0.4200,-5.1827 l 0.4200,1.1569 l 0.4200,6.8624 l 0.4200,6.6209 l 0.4200,2.5368 l 0.4200,-13.2083 l 0.4200,-5.8385 l 0.4200,-4.1939 l 0.4200,6.3422 l 0.4200,7.0254 l 0.4200,-1.5535 l 0.4200,0.1482 l 0.4200,6.0521 l 0.4200,1.6511 l 0.4200,6.4259 l 0.4200,3.3588 l 0.4200,-16.1660 l 0.4200,6.5319 l 0.4200,6.5069 l 0.4200,6.3860 l 0.4200,6.3367 l 0.4200,-1.0657 l 0.4200,5.4765 l 0.4200,6.0439 l 0.4200,-4.5407 l 0.4200,5.6103 l 0.4200,5.3275 l 0.4200,4.9796 l 0.4200,4.4946 l 0.4200,5.2355 l 0.4200,5.3385 l 0.4200,4.8237 l 0.4200,1.4929 l 0.4200,4.9210 l 0.4200,4.9419 l 0.4200,1.7290 l 0.4200,4.4124 l 0.4200,3.8189 l 0.4200,3.3001 l 0.4200,2.9454 l 0.4200,-4.0147 l 0.4200,-0.7627 l 0.4200,-6.1987 l 0.4200,4.4981 l 0.4200,3.8061 l 0.4200,-0.2423 l 0.4200,-0.1567 l 0.4200,4.3940 l 0.4200,4.0095 l 0.4200,2.6545 l 0.4200,4.1144 l 0.4200,4.0730 l 0.4200,0.8069 l 0.4200,3.8973 l 0.4200,3.2393 l 0.4200,3.7945 l 0.4200,3.7207 l 0.4200,-4.4218 l 0.4200,1.3494 l 0.4200,-0.2792 l 0.4200,-2.7581 l 0.4200,1.0017 l 0.4200,3.7696 l 0.4200,2.9053 l 0.4200,3.5728 l 0.4200,-7.8098 l 0.4200,-4.0723 l 0.4200,3.8017 l 0.4200,-1.8402 l 0.4200,-3.3357 l 0.4200,-2.8029 l 0.4200,3.9082 l 0.4200,2.9230 l 0.4200,0.7986 l 0.4200,3.4168 l 0.4200,-9.9882 l 0.4200,1.0118 l 0.4200,3.7851 l 0.4200,2.8948 l 0.4200,3.4034 l 0.4200,3.6074 l 0.4200,3.2310 l 0.4200,2.2187 l 0.4200,2.0270 l 0.4200,3.3247 l 0.4200,2.8034 l 0.4200,2.4729 l 0.4200,-5.7849 l 0.4200,-2.8864 l 0.4200,3.0512 l 0.4200,2.9828 l 0.4200,2.2599 l 0.4200,2.1704 l 0.4200,-0.0508 l 0.4200,2.4870 l 0.4200,2.6618 l 0.4200,-12.1307 l 0.4200,-84.7829 l 0.4200,-9.2844 l 0.4200,-12.2777 l 0.4200,-35.7108 l 0.4200,6.7755 l 0.4200,4.3029 l 0.4200,5.5127 l 0.4200,6.3319 l 0.4200,-2.9827 l 0.4200,6.1357 l 0.4200,4.7715 l 0.4200,5.9600 l 0.4200,5.2779 l 0.4200,5.4369 l 0.4200,5.6110 l 0.4200,5.0211 l 0.4200,4.9778 l 0.4200,3.7993 l 0.4200,4.6094 l 0.4200,3.9028 l 0.4200,4.8795 l 0.4200,4.4651 l 0.4200,4.6831 l 0.4200,4.5641 l 0.4200,4.0922 l 0.4200,0.8937 l 0.4200,3.9557 l 0.4200,4.2130 l 0.4200,0.1238 l 0.4200,3.8390 l 0.4200,3.9979 l 0.4200,2.8647 l 0.4200,2.7759 l 0.4200,3.5425 l 0.4200,3.4391 l 0.4200,0.3914 l 0.4200,3.4943 l 0.4200,3.3476 l 0.4200,3.0089 l 0.4200,3.2132 l 0.4200,3.1258 l 0.4200,0.1378 l 0.4200,2.9083 l 0.4200,2.7873 l 0.4200,0.8128 l 0.4200,2.4769 l 0.4200,2.2580 l 0.4200,2.8932 l 0.4200,1.2918 l 0.4200,2.1460 l 0.4200,2.6923 l 0.4200,1.9041 l 0.4200,-50.2865 l 0.4200,-12.1690 l 0.4200,-9.6238 l 0.4200,4.4438 l 0.4200,-3.0656 l 0.4200,3.6585 l 0.4200,4.3076 l 0.4200,4.1749 l 0.4200,-4.2122 l 0.4200,1.6102 l 0.4200,1.6339 l 0.4200,-0.9377 l 0.4200,1.1940 l 0.4200,2.3039 l 0.4200,-2.1664 l 0.4200,-0.2207 l 0.4200,3.3090 l 0.4200,2.3269 l 0.4200,2.6001 l 0.4200,3.9035 l 0.4200,3.0278 l 0.4200,2.1182 l 0.4200,-7.8129 l 0.4200,3.6922 l 0.4200,3.2719 l 0.4200,3.6670 l 0.4200,3.1332 l 0.4200,-0.0102 l 0.4200,3.0525 l 0.4200,3.3473 l 0.4200,3.3740 l 0.4200,1.2334 l 0.4200,2.0310 l 0.4200,2.9976 l 0.4200,2.4745 l 0.4200,2.4058 l 0.4200,2.9934 l 0.4200,-0.7438 l 0.4200,-0.0708 l 0.4200,1.9258 l 0.4200,2.8900 l 0.4200,-41.1022 l 0.4200,2.7944 l 0.4200,-4.6604 l 0.4200,3.7935 l 0.4200,3.5123 l 0.4200,3.6992 l 0.4200,0.0645 l 0.4200,3.1777 l 0.4200,2.3823 l 0.4200,2.6178 l 0.4200,-0.0701 l 0.4200,3.3467 l 0.4200,3.3380 l 0.4200,2.6265 l 0.4200,-0.4620 l 0.4200,3.1980 l 0.4200,1.9656 l 0.4200,1.4158 l 0.4200,3.0399 l 0.4200,0.4512 l 0.4200,2.3408 l 0.4200,-10.3008 l 0.4200,3.1263 l 0.4200,1.4149 l 0.4200,2.2519 l 0.4200,0.8302 l 0.4200,-6.1025 l 0.4200,2.5803 l 0.4200,2.0817 l 0.4200,2.9660 l 0.4200,2.4552 l 0.4200,1.3538 l 0.4200,1.8488 l 0.4200,2.7804 l 0.4200,2.5904 l 0.4200,-6.5570 l 0.4200,2.7084 l 0.4200,-0.0751 l 0.4200,-3.5600 l 0.4200,0.5317 l 0.4200,2.4940 l 0.4200,2.1138 l 0.4200,0.5214 l 0.4200,2.6152 l 0.4200,2.2035 l 0.4200,1.5644 l 0.4200,2.4025 l 0.4200,0.8749 l 0.4200,2.3028 l 0.4200,0.2736 l 0.4200,1.4206 l 0.4200,1.0655 l 0.4200,-1.9924 l 0.4200,-3.5400 l 0.4200,2.0741 l 0.4200,1.9967 l 0.4200,-3.1480 l 0.4200,2.1900 l 0.4200,2.3749 l 0.4200,2.3193 l 0.4200,-3.1100 l 0.4200,1.3150 l 0.4200,2.2808 l 0.4200,2.2488 l 0.4200,-0.9800 l 0.4200,1.3555 l 0.4200,0.0042 l 0.4200,1.2412 l 0.4200,0.5231 l 0.4200,1.3705 l 0.4200,2.0966 l 0.4200,-0.7032 l 0.4200,1.0439 l 0.4200,1.8663 l 0.4200,1.9939 l 0.4200,1.9105 l 0.4200,-0.4634 l 0.4200,-17.4587 l 0.4200,-4.4763 l 0.4200,2.3511 l 0.4200,-0.1345 l 0.4200,0.4694 l 0.4200,1.1524 l 0.4200,2.3648 l 0.4200,1.6051 l 0.4200,2.2214 l 0.4200,-0.0884 l 0.4200,-4.7591 l 0.4200,1.4564 l 0.4200,1.6734 l 0.4200,1.2561 l 0.4200,-17.1950 l 0.4200,2.3028 l 0.4200,2.4448 l 0.4200,2.4428 l 0.4200,2.3502 l 0.4200,-3.4071 l 0.4200,2.4389 l 0.4200,1.7036 l 0.4200,1.5199 l 0.4200,1.8846 l 0.4200,2.2987 l 0.4200,0.8932 l 0.4200,1.8219 l 0.4200,2.0473 l 0.4200,2.0932 l 0.4200,1.7315 l 0.4200,0.0306 l 0.4200,-3.9151 l 0.4200,-7.7722 l 0.4200,1.3192 l 0.4200,1.9914 l 0.4200,-4.8215 l 0.4200,1.1661 l 0.4200,-10.4307 l 0.4200,-0.5742 l 0.4200,2.4326 l 0.4200,2.5493 l 0.4200,1.7022 l 0.4200,2.3083 l 0.4200,2.3581 l 0.4200,1.8671 l 0.4200,2.2811 l 0.4200,0.7365 l 0.4200,2.1362 l 0.4200,1.7514 l 0.4200,2.0764 l 0.4200,0.9766 l 0.4200,1.4796 l 0.4200,-0.5653 l 0.4200,1.7604 l 0.4200,-37.9111 l 0.4200,1.3876 l 0.4200,-1.5831 l 0.4200,0.6275 l 0.4200,2.7236 l 0.4200,2.4599 l 0.4200,1.3322 l 0.4200,2.7219 l 0.4200,2.2753 l 0.4200,2.4842 l 0.4200,-2.4967 l 0.4200,1.8309 l 0.4200,1.9993 l 0.4200,0.9841 l 0.4200,2.4311 l 0.4200,2.3995 l 0.4200,2.0652 "/></g><g stroke-linejoin="miter" stroke-opacity="1.0" fill-opacity="0.0" stroke="rgb(93,165,218)" stroke-width="0.48241815132442184" fill="rgb(0,0,0)" stroke-linecap="butt" stroke-miterlimit="10.0"><path d="M 108.3916,182.7543 l 0.4200,0.4082 l 0.4200,-0.2484 l 0.4200,0.0891 l 0.4200,0.0845 l 0.4200,0.2933 l 0.4200,0.3286 l 0.4200,0.3268 l 0.4200,0.4204 l 0.4200,0.4242 l 0.4200,0.0345 l 0.4200,0.3321 l 0.4200,0.2386 l 0.4200,0.4217 l 0.4200,-0.2761 l 0.4200,0.3976 l 0.4200,0.4194 l 0.4200,0.3383 l 0.4200,0.4011 l 0.4200,0.3386 l 0.4200,0.4148 l 0.4200,0.4100 l 0.4200,0.3888 l 0.4200,0.3286 l 0.4200,0.4001 l 0.4200,0.4144 l 0.4200,0.3291 l 0.4200,0.4127 l 0.4200,0.4094 l 0.4200,-0.1928 l 0.4200,0.4080 l 0.4200,0.3901 l 0.4200,0.2295 l 0.4200,0.3218 l 0.4200,0.3638 l 0.4200,0.3294 l 0.4200,0.3934 l 0.4200,0.3871 l 0.4200,0.2558 l 0.4200,-0.5854 l 0.4200,0.3406 l 0.4200,0.2218 l 0.4200,0.3582 l 0.4200,0.2276 l 0.4200,0.1174 l 0.4200,0.3535 l 0.4200,0.3094 l 0.4200,-0.8077 l 0.4200,0.3819 l 0.4200,0.3942 l 0.4200,0.3431 l 0.4200,0.3423 l 0.4200,0.1455 l 0.4200,0.3992 l 0.4200,0.3995 l 0.4200,0.0036 l 0.4200,0.1958 l 0.4200,0.3723 l 0.4200,0.3273 l 0.4200,0.3776 l 0.4200,0.2809 l 0.4200,0.3384 l 0.4200,-0.1976 l 0.4200,0.3677 l 0.4200,0.1134 l 0.4200,0.2654 l 0.4200,0.3482 l 0.4200,0.3435 l 0.4200,0.3554 l 0.4200,0.2932 l 0.4200,0.1923 l 0.4200,0.1410 l 0.4200,0.3844 l 0.4200,-0.0299 l 0.4200,0.1981 l 0.4200,0.0112 l 0.4200,-0.3741 l 0.4200,0.3911 l 0.4200,-1.6413 l 0.4200,0.2458 l 0.4200,0.3379 l 0.4200,0.1237 l 0.4200,-0.3962 l 0.4200,0.2237 l 0.4200,0.2349 l 0.4200,0.3906 l 0.4200,0.2745 l 0.4200,0.2564 l 0.4200,0.3595 l 0.4200,0.3263 l 0.4200,0.3869 l 0.4200,0.2785 l 0.4200,0.2431 l 0.4200,0.2921 l 0.4200,0.3634 l 0.4200,0.3471 l 0.4200,0.3282 l 0.4200,0.3247 l 0.4200,-0.5217 l 0.4200,-0.3634 l 0.4200,0.3855 l 0.4200,0.3413 l 0.4200,0.1301 l 0.4200,0.3046 l 0.4200,0.3262 l 0.4200,0.2905 l 0.4200,0.3463 l 0.4200,0.2927 l 0.4200,0.1231 l 0.4200,0.2962 l 0.4200,0.3610 l 0.4200,0.3775 l 0.4200,0.3637 l 0.4200,0.3667 l 0.4200,0.3205 l 0.4200,0.3037 l 0.4200,0.3566 l 0.4200,0.2541 l 0.4200,-0.1520 l 0.4200,0.3688 l 0.4200,0.3014 l 0.4200,-0.3236 l 0.4200,0.2804 l 0.4200,0.3709 l 0.4200,0.2185 l 0.4200,0.3045 l 0.4200,-0.8361 l 0.4200,0.3655 l 0.4200,0.2915 l 0.4200,0.2707 l 0.4200,0.3486 l 0.4200,0.2938 l 0.4200,0.3644 l 0.4200,0.3653 l 0.4200,0.3189 l 0.4200,-0.0844 l 0.4200,0.3629 l 0.4200,0.3168 l 0.4200,0.2270 l 0.4200,0.3622 l 0.4200,0.3650 l 0.4200,0.3527 l 0.4200,-0.5120 l 0.4200,-0.1319 l 0.4200,0.2692 l 0.4200,0.3439 l 0.4200,0.2595 l 0.4200,0.3428 l 0.4200,0.3630 l 0.4200,-0.0952 l 0.4200,-1.9578 l 0.4200,0.2205 l 0.4200,0.2153 l 0.4200,-0.2085 l 0.4200,-0.1880 l 0.4200,0.1228 l 0.4200,-2.3438 l 0.4200,0.1247 l 0.4200,0.3400 l 0.4200,-0.3108 l 0.4200,-0.4039 l 0.4200,0.3667 l 0.4200,-0.1519 l 0.4200,0.3671 l 0.4200,0.2411 l 0.4200,0.2863 l 0.4200,0.3679 l 0.4200,0.1167 l 0.4200,0.2277 l 0.4200,0.3356 l 0.4200,0.2185 l 0.4200,0.3469 l 0.4200,0.3640 l 0.4200,0.2755 l 0.4200,0.3429 l 0.4200,0.0433 l 0.4200,-0.6664 l 0.4200,0.3624 l 0.4200,0.3594 l 0.4200,0.3636 l 0.4200,0.3563 l 0.4200,0.1967 l 0.4200,0.3612 l 0.4200,-0.4035 l 0.4200,0.3032 l 0.4200,-0.0347 l 0.4200,0.1498 l 0.4200,0.1309 l 0.4200,0.2179 l 0.4200,0.2960 l 0.4200,0.2081 l 0.4200,0.2891 l 0.4200,0.0660 l 0.4200,0.3272 l 0.4200,0.2774 l 0.4200,0.0936 l 0.4200,0.1550 l 0.4200,0.3334 l 0.4200,0.3399 l 0.4200,-0.5301 l 0.4200,-0.2968 l 0.4200,0.3073 l 0.4200,-0.1705 l 0.4200,-1.9924 l 0.4200,-0.1409 l 0.4200,0.0701 l 0.4200,0.1713 l 0.4200,-0.1211 l 0.4200,0.3582 l 0.4200,0.3108 l 0.4200,0.3001 l 0.4200,0.3189 l 0.4200,0.3525 l 0.4200,-0.0244 l 0.4200,0.3230 l 0.4200,0.2711 l 0.4200,0.3285 l 0.4200,0.3531 l 0.4200,0.3358 l 0.4200,0.3467 l 0.4200,-0.1154 l 0.4200,0.2271 l 0.4200,0.3340 l 0.4200,0.3487 l 0.4200,-0.0606 l 0.4200,0.3523 l 0.4200,0.2068 l 0.4200,-0.1581 l 0.4200,0.3007 l 0.4200,0.2972 l 0.4200,0.0925 l 0.4200,0.0624 l 0.4200,0.3343 l 0.4200,0.2820 l 0.4200,0.2024 l 0.4200,0.3327 l 0.4200,0.2335 l 0.4200,0.3401 l 0.4200,0.3467 l 0.4200,0.3405 l 0.4200,0.3374 l 0.4200,0.1676 l 0.4200,0.2640 l 0.4200,0.3435 l 0.4200,0.3385 l 0.4200,0.2487 l 0.4200,0.0250 l 0.4200,0.3097 l 0.4200,0.3411 l 0.4200,0.3286 l 0.4200,0.0807 l 0.4200,0.3380 l 0.4200,0.3335 l 0.4200,0.3348 l 0.4200,0.0675 l 0.4200,0.2434 l 0.4200,0.3188 l 0.4200,0.3284 l 0.4200,0.3299 l 0.4200,0.1447 l 0.4200,0.3349 l 0.4200,0.2129 l 0.4200,0.2181 l 0.4200,0.0097 l 0.4200,0.2491 l 0.4200,0.2079 l 0.4200,0.3289 l 0.4200,0.2385 l 0.4200,0.2943 l 0.4200,0.2639 l 0.4200,-0.5260 l 0.4200,-0.1625 l 0.4200,0.2830 l 0.4200,0.2294 l 0.4200,0.3243 l 0.4200,0.3297 l 0.4200,0.1623 l 0.4200,0.3281 l 0.4200,0.1811 l 0.4200,0.3260 l 0.4200,-2.0278 l 0.4200,0.2682 l 0.4200,0.0941 l 0.4200,-0.2421 l 0.4200,0.3296 l 0.4200,0.1294 l 0.4200,-0.3193 l 0.4200,0.3044 l 0.4200,0.3041 l 0.4200,0.1253 l 0.4200,0.2523 l 0.4200,0.3265 l 0.4200,-0.0125 l 0.4200,0.2240 l 0.4200,0.3092 l 0.4200,0.2980 l 0.4200,0.2883 l 0.4200,0.2320 l 0.4200,0.3246 l 0.4200,0.3228 l 0.4200,0.2939 l 0.4200,0.2842 l 0.4200,0.3150 l 0.4200,0.3110 l 0.4200,0.2954 l 0.4200,0.2140 l 0.4200,0.2432 l 0.4200,0.0309 l 0.4200,0.2689 l 0.4200,0.3193 l 0.4200,0.0750 l 0.4200,0.3093 l 0.4200,0.0537 l 0.4200,0.3155 l 0.4200,0.2154 l 0.4200,0.3100 l 0.4200,-0.1083 l 0.4200,0.0863 l 0.4200,0.0217 l 0.4200,-1.2887 l 0.4200,-0.0395 l 0.4200,0.2647 l 0.4200,0.2559 l 0.4200,-0.7603 l 0.4200,0.3183 l 0.4200,-0.3118 l 0.4200,0.2951 l 0.4200,-1.0662 l 0.4200,-1.2525 l 0.4200,-2.1854 l 0.4200,-0.4485 l 0.4200,-1.2326 l 0.4200,0.3228 l 0.4200,-0.0554 l 0.4200,0.3307 l 0.4200,-0.5149 l 0.4200,-0.0824 l 0.4200,-1.6061 l 0.4200,0.0118 l 0.4200,-0.4085 l 0.4200,0.1062 l 0.4200,0.3139 l 0.4200,-0.3561 l 0.4200,0.3156 l 0.4200,0.1620 l 0.4200,-0.3250 l 0.4200,0.3322 l 0.4200,0.2717 l 0.4200,0.1940 l 0.4200,0.2794 l 0.4200,0.3324 l 0.4200,0.2982 l 0.4200,0.3315 l 0.4200,0.3215 l 0.4200,0.3302 l 0.4200,0.3288 l 0.4200,0.3288 l 0.4200,0.2175 l 0.4200,0.3030 l 0.4200,0.3173 l 0.4200,0.2109 l 0.4200,0.2992 l 0.4200,0.3077 l 0.4200,0.2993 l 0.4200,0.2679 l 0.4200,0.0141 l 0.4200,0.1412 l 0.4200,0.2696 l 0.4200,0.3048 l 0.4200,0.3165 l 0.4200,-0.0270 l 0.4200,0.3177 l 0.4200,-1.2970 l 0.4200,0.2360 l 0.4200,-1.2486 l 0.4200,0.0684 l 0.4200,-0.1170 l 0.4200,-1.7937 l 0.4200,-2.5716 l 0.4200,0.2507 l 0.4200,0.2796 l 0.4200,0.3268 l 0.4200,0.3297 l 0.4200,0.2936 l 0.4200,0.3313 l 0.4200,0.1653 l 0.4200,-0.3199 l 0.4200,0.3267 l 0.4200,-1.6126 l 0.4200,-0.1411 l 0.4200,-0.3245 l 0.4200,-1.2427 l 0.4200,-0.0922 l 0.4200,-0.0592 l 0.4200,0.2873 l 0.4200,0.1256 l 0.4200,-0.1671 l 0.4200,-0.5448 l 0.4200,0.3320 l 0.4200,0.2422 l 0.4200,-0.7988 l 0.4200,0.1449 l 0.4200,0.3164 l 0.4200,-0.6986 l 0.4200,-0.7008 l 0.4200,-0.0903 l 0.4200,-0.6180 l 0.4200,-0.4693 l 0.4200,-0.6584 l 0.4200,0.2306 l 0.4200,-0.1494 l 0.4200,0.2627 l 0.4200,0.2250 l 0.4200,-0.1899 l 0.4200,0.3417 l 0.4200,-0.0850 l 0.4200,0.2792 l 0.4200,0.3370 l 0.4200,0.3374 l 0.4200,0.3267 l 0.4200,0.1799 l 0.4200,0.3356 l 0.4200,0.3148 l 0.4200,0.3287 l 0.4200,0.3151 l 0.4200,0.2705 l 0.4200,0.1748 l 0.4200,0.1957 l 0.4200,0.2043 l 0.4200,0.3335 l 0.4200,-0.8353 l 0.4200,0.2741 l 0.4200,-1.3071 l 0.4200,0.3092 l 0.4200,-0.4320 l 0.4200,0.1110 l 0.4200,-0.5481 l 0.4200,0.2625 l 0.4200,-0.3665 l 0.4200,0.1854 l 0.4200,-0.0357 l 0.4200,0.3119 l 0.4200,0.1025 l 0.4200,-0.8723 l 0.4200,0.2984 l 0.4200,0.3207 l 0.4200,-0.3807 l 0.4200,-0.1169 l 0.4200,0.2372 l 0.4200,0.2902 l 0.4200,0.1417 l 0.4200,0.3049 l 0.4200,0.3128 l 0.4200,0.2547 l 0.4200,0.2208 l 0.4200,0.1986 l 0.4200,0.3297 l 0.4200,0.2216 l 0.4200,0.3264 l 0.4200,-0.4180 l 0.4200,-0.0695 l 0.4200,0.3148 l 0.4200,0.2232 l 0.4200,0.3165 l 0.4200,0.3180 l 0.4200,0.2163 l 0.4200,0.3056 l 0.4200,0.2347 l 0.4200,-0.2810 l 0.4200,-0.2488 l 0.4200,0.3010 l 0.4200,-0.4944 l 0.4200,0.2034 l 0.4200,0.2734 l 0.4200,-0.5623 l 0.4200,0.1652 l 0.4200,0.2699 l 0.4200,0.3294 l 0.4200,-0.2335 l 0.4200,0.3320 l 0.4200,0.2971 l 0.4200,0.3239 l 0.4200,0.3193 l 0.4200,0.3117 l 0.4200,0.2882 l 0.4200,-0.3086 l 0.4200,-0.0774 l 0.4200,0.3126 l 0.4200,0.0759 l 0.4200,0.3148 l 0.4200,0.3162 l 0.4200,0.3124 l 0.4200,-0.1280 l 0.4200,0.3080 l 0.4200,0.0647 l 0.4200,0.3263 l 0.4200,-0.4081 l 0.4200,0.3173 l 0.4200,0.0205 l 0.4200,0.1860 l 0.4200,0.1725 l 0.4200,0.3117 l 0.4200,-0.1647 l 0.4200,0.1412 l 0.4200,0.1495 l 0.4200,0.3240 l 0.4200,-0.0157 l 0.4200,0.2595 l 0.4200,0.3195 l 0.4200,-2.2194 l 0.4200,0.2972 l 0.4200,0.0896 l 0.4200,0.3236 l 0.4200,0.2273 l 0.4200,0.1452 l 0.4200,-1.2876 l 0.4200,0.3062 l 0.4200,-0.4537 l 0.4200,-0.2903 l 0.4200,0.2389 l 0.4200,0.3205 l 0.4200,0.0137 l 0.4200,0.3245 l 0.4200,0.3257 l 0.4200,0.2039 l 0.4200,0.2818 l 0.4200,0.1199 l 0.4200,-0.3584 l 0.4200,0.1186 l 0.4200,-0.4640 l 0.4200,0.0630 l 0.4200,0.3250 l 0.4200,0.2861 l 0.4200,0.2702 l 0.4200,0.2861 l 0.4200,0.2816 l 0.4200,-0.0445 l 0.4200,0.2657 l 0.4200,-0.5280 l 0.4200,-0.2254 l 0.4200,0.3218 l 0.4200,0.3089 l 0.4200,0.2519 l 0.4200,0.1915 l 0.4200,0.2721 l 0.4200,-0.0935 l 0.4200,-2.2618 l 0.4200,-5.3992 l 0.4200,-8.0750 l 0.4200,-0.5746 l 0.4200,-6.9398 l 0.4200,-2.4012 l 0.4200,0.3717 l 0.4200,0.0202 l 0.4200,-3.9370 l 0.4200,-1.1629 l 0.4200,0.3764 l 0.4200,-0.7416 l 0.4200,-2.4608 l 0.4200,-0.5246 l 0.4200,0.2635 l 0.4200,0.2986 l 0.4200,0.3075 l 0.4200,-0.3546 l 0.4200,0.0509 l 0.4200,0.3539 l 0.4200,-0.8553 l 0.4200,0.2963 l 0.4200,-0.3276 l 0.4200,0.3688 l 0.4200,0.3350 l 0.4200,0.3864 l 0.4200,-2.7159 l 0.4200,0.3841 l 0.4200,-1.2471 l 0.4200,0.3760 l 0.4200,-0.5235 l 0.4200,-1.0808 l 0.4200,0.3338 l 0.4200,0.1145 l 0.4200,0.0586 l 0.4200,0.3939 l 0.4200,0.3891 l 0.4200,0.1693 l 0.4200,0.2850 l 0.4200,-0.5754 l 0.4200,0.3076 l 0.4200,0.3933 l 0.4200,0.3804 l 0.4200,0.2249 l 0.4200,-0.8194 l 0.4200,-0.1291 l 0.4200,0.3711 l 0.4200,0.3558 l 0.4200,-0.2105 l 0.4200,0.3895 l 0.4200,0.2711 l 0.4200,-0.2139 l 0.4200,0.3653 l 0.4200,0.3210 l 0.4200,0.3801 l 0.4200,0.3871 l 0.4200,-0.0893 l 0.4200,0.3817 l 0.4200,0.3307 l 0.4200,-0.5628 l 0.4200,-0.2181 l 0.4200,-0.5917 l 0.4200,0.3786 l 0.4200,-0.7553 l 0.4200,0.3815 l 0.4200,0.3330 l 0.4200,0.3785 l 0.4200,0.3845 l 0.4200,0.3869 l 0.4200,0.3865 l 0.4200,0.2731 l 0.4200,-0.1104 l 0.4200,-0.2120 l 0.4200,-0.6172 l 0.4200,-1.4684 l 0.4200,0.1464 l 0.4200,0.1802 l 0.4200,0.0964 l 0.4200,0.3703 l 0.4200,-1.4088 l 0.4200,0.2945 l 0.4200,-0.1039 l 0.4200,-0.5301 l 0.4200,-0.6852 l 0.4200,-1.0947 l 0.4200,0.1329 l 0.4200,0.0592 l 0.4200,-0.2718 l 0.4200,0.3810 l 0.4200,0.3692 l 0.4200,-0.0913 l 0.4200,0.1406 l 0.4200,-0.0294 l 0.4200,-0.7054 l 0.4200,0.3798 l 0.4200,-0.4067 l 0.4200,-2.1994 l 0.4200,-0.1268 l 0.4200,0.3969 l 0.4200,0.1257 l 0.4200,-2.4319 l 0.4200,-0.8224 l 0.4200,-1.6689 l 0.4200,0.4074 l 0.4200,-0.1804 l 0.4200,0.2827 l 0.4200,-1.3787 l 0.4200,-0.6530 l 0.4200,-0.4593 l 0.4200,-0.0924 l 0.4200,0.2754 l 0.4200,-2.1840 l 0.4200,0.4166 l 0.4200,-1.1098 l 0.4200,0.3088 l 0.4200,0.4072 l 0.4200,-1.0559 l 0.4200,-0.4268 l 0.4200,0.4194 l 0.4200,0.4195 l 0.4200,-0.2129 l 0.4200,-1.2097 l 0.4200,-0.7374 l 0.4200,-0.7177 l 0.4200,0.3340 l 0.4200,0.4237 l 0.4200,-0.4529 l 0.4200,-0.2371 l 0.4200,0.3396 l 0.4200,-0.1163 l 0.4200,0.4089 l 0.4200,0.1422 l 0.4200,-1.9223 l 0.4200,0.3588 l 0.4200,0.3770 l 0.4200,0.3819 l 0.4200,0.4218 l 0.4200,-0.1255 l 0.4200,0.3194 l 0.4200,0.4231 l 0.4200,-0.6824 l 0.4200,0.4152 l 0.4200,0.4062 l 0.4200,0.2963 l 0.4200,0.2469 l 0.4200,0.3455 l 0.4200,0.4176 l 0.4200,0.4144 l 0.4200,0.2323 l 0.4200,0.4168 l 0.4200,0.4166 l 0.4200,0.0988 l 0.4200,0.3428 l 0.4200,0.3935 l 0.4200,0.2546 l 0.4200,0.3628 l 0.4200,-0.0552 l 0.4200,-0.0416 l 0.4200,-0.2358 l 0.4200,0.3848 l 0.4200,0.3763 l 0.4200,0.0269 l 0.4200,-0.0012 l 0.4200,0.4126 l 0.4200,0.4051 l 0.4200,0.2398 l 0.4200,0.3761 l 0.4200,0.4087 l 0.4200,0.2772 l 0.4200,0.4081 l 0.4200,0.3887 l 0.4200,0.3952 l 0.4200,0.3975 l 0.4200,0.0044 l 0.4200,0.2812 l 0.4200,0.1513 l 0.4200,0.0506 l 0.4200,0.2368 l 0.4200,0.4029 l 0.4200,0.3631 l 0.4200,0.4007 l 0.4200,-0.2623 l 0.4200,-0.0284 l 0.4200,0.4014 l 0.4200,0.0635 l 0.4200,-0.0082 l 0.4200,-0.0138 l 0.4200,0.4011 l 0.4200,0.3333 l 0.4200,0.2463 l 0.4200,0.3763 l 0.4200,-0.4090 l 0.4200,0.1960 l 0.4200,0.3979 l 0.4200,0.3247 l 0.4200,0.3902 l 0.4200,0.3930 l 0.4200,0.3660 l 0.4200,0.3493 l 0.4200,0.2970 l 0.4200,0.3890 l 0.4200,0.3512 l 0.4200,0.3740 l 0.4200,-0.0195 l 0.4200,0.0708 l 0.4200,0.3730 l 0.4200,0.3716 l 0.4200,0.3503 l 0.4200,0.3341 l 0.4200,0.2441 l 0.4200,0.3593 l 0.4200,0.3712 l 0.4200,-0.4006 l 0.4200,-5.7762 l 0.4200,-1.1083 l 0.4200,-0.9693 l 0.4200,-3.6128 l 0.4200,0.3976 l 0.4200,0.1890 l 0.4200,0.2945 l 0.4200,0.4032 l 0.4200,-0.5639 l 0.4200,0.3665 l 0.4200,0.2127 l 0.4200,0.4076 l 0.4200,0.3007 l 0.4200,0.3992 l 0.4200,0.3872 l 0.4200,0.3907 l 0.4200,0.3361 l 0.4200,0.3332 l 0.4200,0.3243 l 0.4200,0.3513 l 0.4200,0.4013 l 0.4200,0.3898 l 0.4200,0.3925 l 0.4200,0.3915 l 0.4200,0.3863 l 0.4200,0.1941 l 0.4200,0.3614 l 0.4200,0.3962 l 0.4200,0.0889 l 0.4200,0.3880 l 0.4200,0.3945 l 0.4200,0.3465 l 0.4200,0.3058 l 0.4200,0.3863 l 0.4200,0.3646 l 0.4200,0.2340 l 0.4200,0.3798 l 0.4200,0.3740 l 0.4200,0.3741 l 0.4200,0.3843 l 0.4200,0.3755 l 0.4200,0.2415 l 0.4200,0.3729 l 0.4200,0.3687 l 0.4200,0.2731 l 0.4200,0.3598 l 0.4200,0.3494 l 0.4200,0.3821 l 0.4200,0.3115 l 0.4200,0.3484 l 0.4200,0.3795 l 0.4200,0.3490 l 0.4200,-2.5794 l 0.4200,-0.5701 l 0.4200,-0.6860 l 0.4200,0.3838 l 0.4200,-0.0615 l 0.4200,0.3108 l 0.4200,0.3853 l 0.4200,0.3848 l 0.4200,-0.1397 l 0.4200,0.2059 l 0.4200,0.2130 l 0.4200,0.0140 l 0.4200,0.2058 l 0.4200,0.2660 l 0.4200,-0.0528 l 0.4200,0.1072 l 0.4200,0.3235 l 0.4200,0.2533 l 0.4200,0.3048 l 0.4200,0.3804 l 0.4200,0.3214 l 0.4200,0.2904 l 0.4200,-0.3924 l 0.4200,0.3754 l 0.4200,0.3265 l 0.4200,0.3780 l 0.4200,0.3272 l 0.4200,0.2090 l 0.4200,0.3578 l 0.4200,0.3632 l 0.4200,0.3743 l 0.4200,0.2765 l 0.4200,0.2952 l 0.4200,0.3544 l 0.4200,0.3228 l 0.4200,0.3187 l 0.4200,0.3704 l 0.4200,0.1339 l 0.4200,0.1527 l 0.4200,0.2688 l 0.4200,0.3536 l 0.4200,-1.9385 l 0.4200,0.3110 l 0.4200,-0.1893 l 0.4200,0.3581 l 0.4200,0.3580 l 0.4200,0.3699 l 0.4200,0.1193 l 0.4200,0.3527 l 0.4200,0.2753 l 0.4200,0.3334 l 0.4200,0.1189 l 0.4200,0.3506 l 0.4200,0.3655 l 0.4200,0.3030 l 0.4200,0.2120 l 0.4200,0.3597 l 0.4200,0.3209 l 0.4200,0.2917 l 0.4200,0.3629 l 0.4200,0.2121 l 0.4200,0.3144 l 0.4200,-0.4422 l 0.4200,0.3463 l 0.4200,0.2095 l 0.4200,0.3492 l 0.4200,0.1743 l 0.4200,-0.0044 l 0.4200,0.2994 l 0.4200,0.3363 l 0.4200,0.3461 l 0.4200,0.3057 l 0.4200,0.3161 l 0.4200,0.3310 l 0.4200,0.3523 l 0.4200,0.3381 l 0.4200,-0.0344 l 0.4200,0.3525 l 0.4200,0.2274 l 0.4200,0.0216 l 0.4200,0.2099 l 0.4200,0.3462 l 0.4200,0.3031 l 0.4200,0.2722 l 0.4200,0.3505 l 0.4200,0.3202 l 0.4200,0.3169 l 0.4200,0.3383 l 0.4200,0.2906 l 0.4200,0.3382 l 0.4200,0.2651 l 0.4200,0.3007 l 0.4200,0.2974 l 0.4200,0.1485 l 0.4200,0.0465 l 0.4200,0.3383 l 0.4200,0.3360 l 0.4200,0.1284 l 0.4200,0.3351 l 0.4200,0.3429 l 0.4200,0.3421 l 0.4200,0.0958 l 0.4200,0.3079 l 0.4200,0.3406 l 0.4200,0.3396 l 0.4200,0.1896 l 0.4200,0.2871 l 0.4200,0.2169 l 0.4200,0.2715 l 0.4200,0.2297 l 0.4200,0.3273 l 0.4200,0.3287 l 0.4200,0.1721 l 0.4200,0.3219 l 0.4200,0.3347 l 0.4200,0.3288 l 0.4200,0.3320 l 0.4200,0.2815 l 0.4200,-0.5867 l 0.4200,0.1123 l 0.4200,0.3331 l 0.4200,0.2547 l 0.4200,0.2688 l 0.4200,0.2898 l 0.4200,0.3303 l 0.4200,0.2883 l 0.4200,0.3295 l 0.4200,0.2472 l 0.4200,-0.0076 l 0.4200,0.3036 l 0.4200,0.3099 l 0.4200,0.2929 l 0.4200,-0.5909 l 0.4200,0.3162 l 0.4200,0.3149 l 0.4200,0.3176 l 0.4200,0.3144 l 0.4200,0.0710 l 0.4200,0.3229 l 0.4200,0.2906 l 0.4200,0.2832 l 0.4200,0.2991 l 0.4200,0.3226 l 0.4200,0.2541 l 0.4200,0.3091 l 0.4200,0.3121 l 0.4200,0.3200 l 0.4200,0.3003 l 0.4200,0.2209 l 0.4200,0.0248 l 0.4200,-0.0582 l 0.4200,0.2571 l 0.4200,0.2931 l 0.4200,0.0309 l 0.4200,0.2504 l 0.4200,-0.2891 l 0.4200,0.1394 l 0.4200,0.3123 l 0.4200,0.3167 l 0.4200,0.2841 l 0.4200,0.3063 l 0.4200,0.3119 l 0.4200,0.2972 l 0.4200,0.3136 l 0.4200,0.2380 l 0.4200,0.3115 l 0.4200,0.2992 l 0.4200,0.3088 l 0.4200,0.2710 l 0.4200,0.2887 l 0.4200,0.2020 l 0.4200,0.3016 l 0.4200,-1.7252 l 0.4200,0.2498 l 0.4200,0.0806 l 0.4200,0.1833 l 0.4200,0.2998 l 0.4200,0.2865 l 0.4200,0.2186 l 0.4200,0.3093 l 0.4200,0.2926 l 0.4200,0.3033 l 0.4200,0.0164 l 0.4200,0.2476 l 0.4200,0.2899 l 0.4200,0.2439 l 0.4200,0.2991 l 0.4200,0.3051 l 0.4200,0.2947 "/></g><g stroke-linejoin="miter" stroke-opacity="1.0" fill-opacity="0.0" stroke="rgb(85,85,85)" stroke-width="0.48241815132442184" fill="rgb(0,0,0)" stroke-linecap="butt" stroke-miterlimit="10.0"><path d="M 108.3916,119.7806 l 0.4200,0.1337 l 0.4200,0.0126 l 0.4200,0.0698 l 0.4200,0.0685 l 0.4200,0.1099 l 0.4200,0.1213 l 0.4200,0.1169 l 0.4200,0.1376 l 0.4200,0.1378 l 0.4200,0.0588 l 0.4200,0.1180 l 0.4200,0.0990 l 0.4200,0.1378 l 0.4200,-0.0030 l 0.4200,0.1315 l 0.4200,0.1368 l 0.4200,0.1245 l 0.4200,0.1326 l 0.4200,0.1194 l 0.4200,0.1361 l 0.4200,0.1349 l 0.4200,0.1335 l 0.4200,0.1233 l 0.4200,0.1330 l 0.4200,0.1369 l 0.4200,0.1236 l 0.4200,0.1370 l 0.4200,0.1367 l 0.4200,0.0161 l 0.4200,0.1354 l 0.4200,0.1341 l 0.4200,0.1067 l 0.4200,0.1227 l 0.4200,0.1261 l 0.4200,0.1241 l 0.4200,0.1347 l 0.4200,0.1314 l 0.4200,0.1115 l 0.4200,-0.0406 l 0.4200,0.1257 l 0.4200,0.1047 l 0.4200,0.1259 l 0.4200,0.1058 l 0.4200,0.0793 l 0.4200,0.1250 l 0.4200,0.1205 l 0.4200,-0.0821 l 0.4200,0.1309 l 0.4200,0.1335 l 0.4200,0.1260 l 0.4200,0.1233 l 0.4200,0.0854 l 0.4200,0.1349 l 0.4200,0.1355 l 0.4200,0.0585 l 0.4200,0.0947 l 0.4200,0.1292 l 0.4200,0.1241 l 0.4200,0.1305 l 0.4200,0.1113 l 0.4200,0.1225 l 0.4200,0.0200 l 0.4200,0.1312 l 0.4200,0.0877 l 0.4200,0.1140 l 0.4200,0.1279 l 0.4200,0.1272 l 0.4200,0.1264 l 0.4200,0.1188 l 0.4200,0.1013 l 0.4200,0.0857 l 0.4200,0.1338 l 0.4200,0.0624 l 0.4200,0.0967 l 0.4200,0.0695 l 0.4200,0.0004 l 0.4200,0.1343 l 0.4200,-0.2437 l 0.4200,0.1048 l 0.4200,0.1226 l 0.4200,0.0889 l 0.4200,-0.0159 l 0.4200,0.1001 l 0.4200,0.1021 l 0.4200,0.1342 l 0.4200,0.1099 l 0.4200,0.1127 l 0.4200,0.1269 l 0.4200,0.1202 l 0.4200,0.1331 l 0.4200,0.1109 l 0.4200,0.1110 l 0.4200,0.1191 l 0.4200,0.1281 l 0.4200,0.1248 l 0.4200,0.1253 l 0.4200,0.1206 l 0.4200,-0.0216 l 0.4200,-0.0085 l 0.4200,0.1333 l 0.4200,0.1272 l 0.4200,0.0832 l 0.4200,0.1164 l 0.4200,0.1206 l 0.4200,0.1194 l 0.4200,0.1283 l 0.4200,0.1197 l 0.4200,0.0823 l 0.4200,0.1151 l 0.4200,0.1307 l 0.4200,0.1328 l 0.4200,0.1289 l 0.4200,0.1316 l 0.4200,0.1246 l 0.4200,0.1220 l 0.4200,0.1302 l 0.4200,0.1139 l 0.4200,0.0331 l 0.4200,0.1305 l 0.4200,0.1217 l 0.4200,0.0160 l 0.4200,0.1179 l 0.4200,0.1320 l 0.4200,0.1019 l 0.4200,0.1220 l 0.4200,-0.0897 l 0.4200,0.1313 l 0.4200,0.1151 l 0.4200,0.1111 l 0.4200,0.1263 l 0.4200,0.1155 l 0.4200,0.1313 l 0.4200,0.1314 l 0.4200,0.1206 l 0.4200,0.0586 l 0.4200,0.1311 l 0.4200,0.1244 l 0.4200,0.1036 l 0.4200,0.1310 l 0.4200,0.1312 l 0.4200,0.1279 l 0.4200,-0.0132 l 0.4200,0.0387 l 0.4200,0.1115 l 0.4200,0.1286 l 0.4200,0.1155 l 0.4200,0.1259 l 0.4200,0.1308 l 0.4200,0.0571 l 0.4200,-0.2620 l 0.4200,0.1077 l 0.4200,0.1021 l 0.4200,0.0350 l 0.4200,0.0295 l 0.4200,0.0911 l 0.4200,-0.3377 l 0.4200,0.0852 l 0.4200,0.1262 l 0.4200,0.0065 l 0.4200,-0.0114 l 0.4200,0.1295 l 0.4200,0.0333 l 0.4200,0.1304 l 0.4200,0.1052 l 0.4200,0.1136 l 0.4200,0.1300 l 0.4200,0.0897 l 0.4200,0.1028 l 0.4200,0.1260 l 0.4200,0.1012 l 0.4200,0.1278 l 0.4200,0.1301 l 0.4200,0.1120 l 0.4200,0.1250 l 0.4200,0.0782 l 0.4200,-0.0584 l 0.4200,0.1298 l 0.4200,0.1283 l 0.4200,0.1298 l 0.4200,0.1292 l 0.4200,0.1041 l 0.4200,0.1297 l 0.4200,0.0028 l 0.4200,0.1209 l 0.4200,0.0561 l 0.4200,0.0891 l 0.4200,0.0929 l 0.4200,0.1017 l 0.4200,0.1200 l 0.4200,0.1057 l 0.4200,0.1151 l 0.4200,0.0821 l 0.4200,0.1248 l 0.4200,0.1132 l 0.4200,0.0798 l 0.4200,0.0906 l 0.4200,0.1236 l 0.4200,0.1270 l 0.4200,-0.0173 l 0.4200,0.0209 l 0.4200,0.1188 l 0.4200,0.0328 l 0.4200,-0.2706 l 0.4200,0.0446 l 0.4200,0.0753 l 0.4200,0.0933 l 0.4200,0.0403 l 0.4200,0.1279 l 0.4200,0.1185 l 0.4200,0.1165 l 0.4200,0.1229 l 0.4200,0.1269 l 0.4200,0.0659 l 0.4200,0.1212 l 0.4200,0.1115 l 0.4200,0.1223 l 0.4200,0.1280 l 0.4200,0.1257 l 0.4200,0.1261 l 0.4200,0.0512 l 0.4200,0.1039 l 0.4200,0.1254 l 0.4200,0.1267 l 0.4200,0.0526 l 0.4200,0.1278 l 0.4200,0.1053 l 0.4200,0.0444 l 0.4200,0.1176 l 0.4200,0.1170 l 0.4200,0.0862 l 0.4200,0.0750 l 0.4200,0.1240 l 0.4200,0.1142 l 0.4200,0.0997 l 0.4200,0.1254 l 0.4200,0.1054 l 0.4200,0.1253 l 0.4200,0.1270 l 0.4200,0.1266 l 0.4200,0.1250 l 0.4200,0.0938 l 0.4200,0.1111 l 0.4200,0.1266 l 0.4200,0.1265 l 0.4200,0.1132 l 0.4200,0.0772 l 0.4200,0.1199 l 0.4200,0.1264 l 0.4200,0.1237 l 0.4200,0.0791 l 0.4200,0.1257 l 0.4200,0.1247 l 0.4200,0.1261 l 0.4200,0.0848 l 0.4200,0.1082 l 0.4200,0.1240 l 0.4200,0.1240 l 0.4200,0.1255 l 0.4200,0.0910 l 0.4200,0.1258 l 0.4200,0.1029 l 0.4200,0.1092 l 0.4200,0.0763 l 0.4200,0.1096 l 0.4200,0.1074 l 0.4200,0.1245 l 0.4200,0.1079 l 0.4200,0.1207 l 0.4200,0.1125 l 0.4200,-0.0093 l 0.4200,0.0390 l 0.4200,0.1188 l 0.4200,0.1062 l 0.4200,0.1235 l 0.4200,0.1251 l 0.4200,0.1005 l 0.4200,0.1250 l 0.4200,0.1033 l 0.4200,0.1248 l 0.4200,-0.2538 l 0.4200,0.1157 l 0.4200,0.0834 l 0.4200,0.0338 l 0.4200,0.1248 l 0.4200,0.0934 l 0.4200,0.0140 l 0.4200,0.1196 l 0.4200,0.1211 l 0.4200,0.0887 l 0.4200,0.1104 l 0.4200,0.1244 l 0.4200,0.0651 l 0.4200,0.1053 l 0.4200,0.1204 l 0.4200,0.1184 l 0.4200,0.1192 l 0.4200,0.1068 l 0.4200,0.1238 l 0.4200,0.1240 l 0.4200,0.1202 l 0.4200,0.1162 l 0.4200,0.1231 l 0.4200,0.1226 l 0.4200,0.1205 l 0.4200,0.1043 l 0.4200,0.1128 l 0.4200,0.0800 l 0.4200,0.1140 l 0.4200,0.1233 l 0.4200,0.0869 l 0.4200,0.1224 l 0.4200,0.0779 l 0.4200,0.1226 l 0.4200,0.1049 l 0.4200,0.1225 l 0.4200,0.0587 l 0.4200,0.0886 l 0.4200,0.0729 l 0.4200,-0.1294 l 0.4200,0.0624 l 0.4200,0.1153 l 0.4200,0.1140 l 0.4200,-0.0475 l 0.4200,0.1229 l 0.4200,0.0177 l 0.4200,0.1195 l 0.4200,-0.0984 l 0.4200,-0.1389 l 0.4200,-0.2865 l 0.4200,-0.0044 l 0.4200,-0.1369 l 0.4200,0.1217 l 0.4200,0.0584 l 0.4200,0.1231 l 0.4200,-0.0189 l 0.4200,0.0529 l 0.4200,-0.2070 l 0.4200,0.0698 l 0.4200,-0.0054 l 0.4200,0.0825 l 0.4200,0.1199 l 0.4200,0.0024 l 0.4200,0.1202 l 0.4200,0.0918 l 0.4200,0.0068 l 0.4200,0.1227 l 0.4200,0.1134 l 0.4200,0.0971 l 0.4200,0.1122 l 0.4200,0.1227 l 0.4200,0.1158 l 0.4200,0.1224 l 0.4200,0.1214 l 0.4200,0.1224 l 0.4200,0.1223 l 0.4200,0.1222 l 0.4200,0.1017 l 0.4200,0.1189 l 0.4200,0.1198 l 0.4200,0.1007 l 0.4200,0.1164 l 0.4200,0.1198 l 0.4200,0.1166 l 0.4200,0.1139 l 0.4200,0.0736 l 0.4200,0.0889 l 0.4200,0.1113 l 0.4200,0.1194 l 0.4200,0.1201 l 0.4200,0.0673 l 0.4200,0.1211 l 0.4200,-0.1405 l 0.4200,0.1056 l 0.4200,-0.1357 l 0.4200,0.0800 l 0.4200,0.0490 l 0.4200,-0.2393 l 0.4200,-0.3800 l 0.4200,0.1058 l 0.4200,0.1110 l 0.4200,0.1200 l 0.4200,0.1213 l 0.4200,0.1137 l 0.4200,0.1213 l 0.4200,0.0956 l 0.4200,0.0149 l 0.4200,0.1209 l 0.4200,-0.2051 l 0.4200,0.0419 l 0.4200,0.0057 l 0.4200,-0.1562 l 0.4200,0.0499 l 0.4200,0.0550 l 0.4200,0.1134 l 0.4200,0.0861 l 0.4200,0.0356 l 0.4200,-0.0342 l 0.4200,0.1200 l 0.4200,0.1037 l 0.4200,-0.0805 l 0.4200,0.0893 l 0.4200,0.1167 l 0.4200,-0.0559 l 0.4200,-0.0582 l 0.4200,0.0441 l 0.4200,-0.0452 l 0.4200,-0.0238 l 0.4200,-0.0590 l 0.4200,0.1023 l 0.4200,0.0312 l 0.4200,0.1079 l 0.4200,0.1014 l 0.4200,0.0240 l 0.4200,0.1209 l 0.4200,0.0424 l 0.4200,0.1084 l 0.4200,0.1196 l 0.4200,0.1204 l 0.4200,0.1188 l 0.4200,0.0904 l 0.4200,0.1202 l 0.4200,0.1154 l 0.4200,0.1193 l 0.4200,0.1173 l 0.4200,0.1100 l 0.4200,0.0900 l 0.4200,0.0977 l 0.4200,0.0990 l 0.4200,0.1196 l 0.4200,-0.0796 l 0.4200,0.1084 l 0.4200,-0.1639 l 0.4200,0.1154 l 0.4200,-0.0175 l 0.4200,0.0814 l 0.4200,-0.0390 l 0.4200,0.1075 l 0.4200,-0.0076 l 0.4200,0.0943 l 0.4200,0.0513 l 0.4200,0.1158 l 0.4200,0.0802 l 0.4200,-0.0907 l 0.4200,0.1130 l 0.4200,0.1162 l 0.4200,-0.0099 l 0.4200,0.0409 l 0.4200,0.1024 l 0.4200,0.1105 l 0.4200,0.0836 l 0.4200,0.1142 l 0.4200,0.1147 l 0.4200,0.1041 l 0.4200,0.0979 l 0.4200,0.0964 l 0.4200,0.1180 l 0.4200,0.0982 l 0.4200,0.1181 l 0.4200,-0.0100 l 0.4200,0.0463 l 0.4200,0.1161 l 0.4200,0.0985 l 0.4200,0.1155 l 0.4200,0.1158 l 0.4200,0.0998 l 0.4200,0.1136 l 0.4200,0.1030 l 0.4200,0.0142 l 0.4200,0.0152 l 0.4200,0.1127 l 0.4200,-0.0231 l 0.4200,0.0969 l 0.4200,0.1079 l 0.4200,-0.0404 l 0.4200,0.0905 l 0.4200,0.1083 l 0.4200,0.1182 l 0.4200,0.0175 l 0.4200,0.1184 l 0.4200,0.1118 l 0.4200,0.1175 l 0.4200,0.1168 l 0.4200,0.1147 l 0.4200,0.1118 l 0.4200,0.0098 l 0.4200,0.0458 l 0.4200,0.1157 l 0.4200,0.0756 l 0.4200,0.1154 l 0.4200,0.1163 l 0.4200,0.1151 l 0.4200,0.0407 l 0.4200,0.1149 l 0.4200,0.0733 l 0.4200,0.1178 l 0.4200,-0.0103 l 0.4200,0.1160 l 0.4200,0.0660 l 0.4200,0.0940 l 0.4200,0.0907 l 0.4200,0.1151 l 0.4200,0.0318 l 0.4200,0.0868 l 0.4200,0.0864 l 0.4200,0.1174 l 0.4200,0.0602 l 0.4200,0.1067 l 0.4200,0.1168 l 0.4200,-0.3207 l 0.4200,0.1123 l 0.4200,0.0762 l 0.4200,0.1169 l 0.4200,0.1003 l 0.4200,0.0859 l 0.4200,-0.1629 l 0.4200,0.1137 l 0.4200,-0.0186 l 0.4200,0.0087 l 0.4200,0.1012 l 0.4200,0.1160 l 0.4200,0.0615 l 0.4200,0.1165 l 0.4200,0.1168 l 0.4200,0.0964 l 0.4200,0.1096 l 0.4200,0.0818 l 0.4200,-0.0013 l 0.4200,0.0808 l 0.4200,-0.0206 l 0.4200,0.0705 l 0.4200,0.1166 l 0.4200,0.1101 l 0.4200,0.1073 l 0.4200,0.1101 l 0.4200,0.1091 l 0.4200,0.0530 l 0.4200,0.1065 l 0.4200,-0.0311 l 0.4200,0.0213 l 0.4200,0.1160 l 0.4200,0.1138 l 0.4200,0.1040 l 0.4200,0.0935 l 0.4200,0.1076 l 0.4200,0.0444 l 0.4200,-0.3352 l 0.4200,-0.9084 l 0.4200,-1.4482 l 0.4200,-0.0652 l 0.4200,-1.2575 l 0.4200,-0.4150 l 0.4200,0.1182 l 0.4200,0.0465 l 0.4200,-0.7483 l 0.4200,-0.1826 l 0.4200,0.1179 l 0.4200,-0.1140 l 0.4200,-0.4471 l 0.4200,-0.0724 l 0.4200,0.0954 l 0.4200,0.1022 l 0.4200,0.1009 l 0.4200,-0.0278 l 0.4200,0.0526 l 0.4200,0.1111 l 0.4200,-0.1399 l 0.4200,0.1015 l 0.4200,-0.0322 l 0.4200,0.1137 l 0.4200,0.1063 l 0.4200,0.1181 l 0.4200,-0.5302 l 0.4200,0.1179 l 0.4200,-0.2090 l 0.4200,0.1161 l 0.4200,-0.0646 l 0.4200,-0.1810 l 0.4200,0.1049 l 0.4200,0.0628 l 0.4200,0.0510 l 0.4200,0.1187 l 0.4200,0.1179 l 0.4200,0.0707 l 0.4200,0.0950 l 0.4200,-0.0783 l 0.4200,0.1015 l 0.4200,0.1186 l 0.4200,0.1158 l 0.4200,0.0830 l 0.4200,-0.1290 l 0.4200,0.0114 l 0.4200,0.1138 l 0.4200,0.1107 l 0.4200,-0.0055 l 0.4200,0.1179 l 0.4200,0.0934 l 0.4200,-0.0063 l 0.4200,0.1129 l 0.4200,0.1040 l 0.4200,0.1162 l 0.4200,0.1177 l 0.4200,0.0197 l 0.4200,0.1167 l 0.4200,0.1061 l 0.4200,-0.0785 l 0.4200,-0.0087 l 0.4200,-0.0812 l 0.4200,0.1155 l 0.4200,-0.1163 l 0.4200,0.1161 l 0.4200,0.1065 l 0.4200,0.1157 l 0.4200,0.1171 l 0.4200,0.1176 l 0.4200,0.1177 l 0.4200,0.0943 l 0.4200,0.0167 l 0.4200,-0.0053 l 0.4200,-0.0900 l 0.4200,-0.2626 l 0.4200,0.0669 l 0.4200,0.0737 l 0.4200,0.0559 l 0.4200,0.1141 l 0.4200,-0.2585 l 0.4200,0.0989 l 0.4200,0.0174 l 0.4200,-0.0714 l 0.4200,-0.1089 l 0.4200,-0.1978 l 0.4200,0.0650 l 0.4200,0.0494 l 0.4200,-0.0198 l 0.4200,0.1145 l 0.4200,0.1120 l 0.4200,0.0175 l 0.4200,0.0637 l 0.4200,0.0274 l 0.4200,-0.1165 l 0.4200,0.1149 l 0.4200,-0.0546 l 0.4200,-0.4396 l 0.4200,0.0006 l 0.4200,0.1176 l 0.4200,0.0639 l 0.4200,-0.4986 l 0.4200,-0.1347 l 0.4200,-0.3415 l 0.4200,0.1183 l 0.4200,-0.0169 l 0.4200,0.0948 l 0.4200,-0.2551 l 0.4200,-0.1224 l 0.4200,-0.0623 l 0.4200,0.0015 l 0.4200,0.0919 l 0.4200,-0.4359 l 0.4200,0.1182 l 0.4200,-0.2268 l 0.4200,0.0973 l 0.4200,0.1171 l 0.4200,-0.2168 l 0.4200,-0.0779 l 0.4200,0.1181 l 0.4200,0.1186 l 0.4200,-0.0300 l 0.4200,-0.2269 l 0.4200,-0.1278 l 0.4200,-0.1260 l 0.4200,0.0963 l 0.4200,0.1188 l 0.4200,-0.0691 l 0.4200,-0.0344 l 0.4200,0.1022 l 0.4200,0.0037 l 0.4200,0.1146 l 0.4200,0.0525 l 0.4200,-0.3948 l 0.4200,0.1050 l 0.4200,0.1090 l 0.4200,0.1101 l 0.4200,0.1184 l 0.4200,-0.0072 l 0.4200,0.0970 l 0.4200,0.1186 l 0.4200,-0.1230 l 0.4200,0.1164 l 0.4200,0.1144 l 0.4200,0.0918 l 0.4200,0.0810 l 0.4200,0.1024 l 0.4200,0.1179 l 0.4200,0.1171 l 0.4200,0.0760 l 0.4200,0.1178 l 0.4200,0.1181 l 0.4200,0.0496 l 0.4200,0.1025 l 0.4200,0.1129 l 0.4200,0.0835 l 0.4200,0.1063 l 0.4200,0.0138 l 0.4200,0.0196 l 0.4200,-0.0263 l 0.4200,0.1119 l 0.4200,0.1092 l 0.4200,0.0349 l 0.4200,0.0283 l 0.4200,0.1177 l 0.4200,0.1161 l 0.4200,0.0807 l 0.4200,0.1102 l 0.4200,0.1173 l 0.4200,0.0886 l 0.4200,0.1174 l 0.4200,0.1131 l 0.4200,0.1149 l 0.4200,0.1155 l 0.4200,0.0299 l 0.4200,0.0898 l 0.4200,0.0634 l 0.4200,0.0398 l 0.4200,0.0800 l 0.4200,0.1168 l 0.4200,0.1089 l 0.4200,0.1167 l 0.4200,-0.0239 l 0.4200,0.0233 l 0.4200,0.1167 l 0.4200,0.0429 l 0.4200,0.0307 l 0.4200,0.0261 l 0.4200,0.1168 l 0.4200,0.1015 l 0.4200,0.0851 l 0.4200,0.1113 l 0.4200,-0.0536 l 0.4200,0.0739 l 0.4200,0.1163 l 0.4200,0.1012 l 0.4200,0.1148 l 0.4200,0.1157 l 0.4200,0.1102 l 0.4200,0.1064 l 0.4200,0.0959 l 0.4200,0.1152 l 0.4200,0.1074 l 0.4200,0.1121 l 0.4200,0.0288 l 0.4200,0.0474 l 0.4200,0.1118 l 0.4200,0.1116 l 0.4200,0.1080 l 0.4200,0.1037 l 0.4200,0.0863 l 0.4200,0.1100 l 0.4200,0.1120 l 0.4200,-0.0477 l 0.4200,-1.1950 l 0.4200,-0.2133 l 0.4200,-0.1737 l 0.4200,-0.7525 l 0.4200,0.1141 l 0.4200,0.0677 l 0.4200,0.0921 l 0.4200,0.1154 l 0.4200,-0.0949 l 0.4200,0.1074 l 0.4200,0.0737 l 0.4200,0.1165 l 0.4200,0.0931 l 0.4200,0.1150 l 0.4200,0.1123 l 0.4200,0.1134 l 0.4200,0.1013 l 0.4200,0.1013 l 0.4200,0.0989 l 0.4200,0.1054 l 0.4200,0.1161 l 0.4200,0.1138 l 0.4200,0.1143 l 0.4200,0.1142 l 0.4200,0.1134 l 0.4200,0.0725 l 0.4200,0.1080 l 0.4200,0.1157 l 0.4200,0.0497 l 0.4200,0.1142 l 0.4200,0.1155 l 0.4200,0.1057 l 0.4200,0.0966 l 0.4200,0.1142 l 0.4200,0.1094 l 0.4200,0.0825 l 0.4200,0.1129 l 0.4200,0.1117 l 0.4200,0.1121 l 0.4200,0.1143 l 0.4200,0.1124 l 0.4200,0.0848 l 0.4200,0.1122 l 0.4200,0.1114 l 0.4200,0.0913 l 0.4200,0.1098 l 0.4200,0.1077 l 0.4200,0.1145 l 0.4200,0.0998 l 0.4200,0.1076 l 0.4200,0.1143 l 0.4200,0.1081 l 0.4200,-0.5022 l 0.4200,-0.0844 l 0.4200,-0.1116 l 0.4200,0.1140 l 0.4200,0.0215 l 0.4200,0.0985 l 0.4200,0.1145 l 0.4200,0.1145 l 0.4200,0.0054 l 0.4200,0.0772 l 0.4200,0.0786 l 0.4200,0.0367 l 0.4200,0.0776 l 0.4200,0.0900 l 0.4200,0.0230 l 0.4200,0.0571 l 0.4200,0.1019 l 0.4200,0.0871 l 0.4200,0.0985 l 0.4200,0.1141 l 0.4200,0.1017 l 0.4200,0.0958 l 0.4200,-0.0471 l 0.4200,0.1132 l 0.4200,0.1027 l 0.4200,0.1139 l 0.4200,0.1030 l 0.4200,0.0799 l 0.4200,0.1101 l 0.4200,0.1110 l 0.4200,0.1135 l 0.4200,0.0940 l 0.4200,0.0971 l 0.4200,0.1094 l 0.4200,0.1029 l 0.4200,0.1020 l 0.4200,0.1132 l 0.4200,0.0638 l 0.4200,0.0674 l 0.4200,0.0915 l 0.4200,0.1095 l 0.4200,-0.3531 l 0.4200,0.1012 l 0.4200,-0.0007 l 0.4200,0.1105 l 0.4200,0.1103 l 0.4200,0.1129 l 0.4200,0.0623 l 0.4200,0.1095 l 0.4200,0.0940 l 0.4200,0.1058 l 0.4200,0.0624 l 0.4200,0.1094 l 0.4200,0.1125 l 0.4200,0.0998 l 0.4200,0.0818 l 0.4200,0.1116 l 0.4200,0.1039 l 0.4200,0.0980 l 0.4200,0.1125 l 0.4200,0.0822 l 0.4200,0.1028 l 0.4200,-0.0500 l 0.4200,0.1090 l 0.4200,0.0810 l 0.4200,0.1101 l 0.4200,0.0739 l 0.4200,0.0405 l 0.4200,0.0995 l 0.4200,0.1078 l 0.4200,0.1093 l 0.4200,0.1011 l 0.4200,0.1042 l 0.4200,0.1071 l 0.4200,0.1110 l 0.4200,0.1081 l 0.4200,0.0357 l 0.4200,0.1113 l 0.4200,0.0870 l 0.4200,0.0452 l 0.4200,0.0825 l 0.4200,0.1103 l 0.4200,0.1013 l 0.4200,0.0963 l 0.4200,0.1113 l 0.4200,0.1050 l 0.4200,0.1051 l 0.4200,0.1089 l 0.4200,0.1003 l 0.4200,0.1090 l 0.4200,0.0955 l 0.4200,0.1017 l 0.4200,0.1018 l 0.4200,0.0718 l 0.4200,0.0516 l 0.4200,0.1097 l 0.4200,0.1093 l 0.4200,0.0700 l 0.4200,0.1092 l 0.4200,0.1106 l 0.4200,0.1105 l 0.4200,0.0622 l 0.4200,0.1045 l 0.4200,0.1104 l 0.4200,0.1103 l 0.4200,0.0807 l 0.4200,0.0997 l 0.4200,0.0859 l 0.4200,0.0966 l 0.4200,0.0884 l 0.4200,0.1086 l 0.4200,0.1083 l 0.4200,0.0772 l 0.4200,0.1079 l 0.4200,0.1099 l 0.4200,0.1085 l 0.4200,0.1094 l 0.4200,0.1010 l 0.4200,-0.0686 l 0.4200,0.0701 l 0.4200,0.1097 l 0.4200,0.0961 l 0.4200,0.0987 l 0.4200,0.1025 l 0.4200,0.1093 l 0.4200,0.1008 l 0.4200,0.1094 l 0.4200,0.0951 l 0.4200,0.0440 l 0.4200,0.1052 l 0.4200,0.1064 l 0.4200,0.1034 l 0.4200,-0.0596 l 0.4200,0.1067 l 0.4200,0.1071 l 0.4200,0.1076 l 0.4200,0.1071 l 0.4200,0.0602 l 0.4200,0.1083 l 0.4200,0.1020 l 0.4200,0.1018 l 0.4200,0.1047 l 0.4200,0.1086 l 0.4200,0.0967 l 0.4200,0.1060 l 0.4200,0.1071 l 0.4200,0.1084 l 0.4200,0.1052 l 0.4200,0.0910 l 0.4200,0.0553 l 0.4200,0.0380 l 0.4200,0.0974 l 0.4200,0.1039 l 0.4200,0.0546 l 0.4200,0.0964 l 0.4200,-0.0048 l 0.4200,0.0742 l 0.4200,0.1074 l 0.4200,0.1080 l 0.4200,0.1027 l 0.4200,0.1059 l 0.4200,0.1071 l 0.4200,0.1051 l 0.4200,0.1077 l 0.4200,0.0932 l 0.4200,0.1076 l 0.4200,0.1056 l 0.4200,0.1069 l 0.4200,0.1009 l 0.4200,0.1040 l 0.4200,0.0871 l 0.4200,0.1062 l 0.4200,-0.2564 l 0.4200,0.0957 l 0.4200,0.0646 l 0.4200,0.0833 l 0.4200,0.1050 l 0.4200,0.1025 l 0.4200,0.0898 l 0.4200,0.1071 l 0.4200,0.1046 l 0.4200,0.1064 l 0.4200,0.0529 l 0.4200,0.0953 l 0.4200,0.1043 l 0.4200,0.0965 l 0.4200,0.1053 l 0.4200,0.1068 l 0.4200,0.1052 "/></g></svg>