<?xml version="1.0" encoding="UTF-8"?>
<!DOCTYPE svg PUBLIC "-//W3C//DTD SVG 1.1//EN"
    "http://www.w3.org/Graphics/SVG/1.1/DTD/svg11.dtd">
<svg xmlns="http://www.w3.org/2000/svg" height="400.0000" stroke-opacity="1" viewBox="0 0 600 400" font-size="1" width="600.0000" xmlns:xlink="http://www.w3.org/1999/xlink" stroke="rgb(0,0,0)" version="1.1">
  <defs>
  </defs>
  <g stroke-linejoin="miter" stroke-opacity="1.0" fill-opacity="0.0" stroke="rgb(44,160,44)" stroke-width="1.3222982061355344" fill="rgb(0,0,0)" stroke-linecap="butt" stroke-miterlimit="10.0">
    <path d="M 112.1092,162.5459 l 0.6318,0.1848 l 0.6318,-0.0976 l 0.6318,0.0837 l 0.6318,0.0886 l 0.6318,0.1921 l 0.6318,-0.0093 l 0.6318,0.1538 l 0.6318,0.1894 l 0.6318,-1.3156 l 0.6318,0.1762 l 0.6318,0.0531 l 0.6318,0.1918 l 0.6318,0.1347 l 0.6318,0.0861 l 0.6318,-0.7633 l 0.6318,0.1815 l 0.6318,-0.2690 l 0.6318,-0.1721 l 0.6318,0.1416 l 0.6318,0.1900 l 0.6318,0.0081 l 0.6318,0.1924 l 0.6318,0.1931 l 0.6318,0.1209 l 0.6318,0.1671 l 0.6318,0.0711 l 0.6318,-0.2125 l 0.6318,0.0703 l 0.6318,-0.2750 l 0.6318,0.0374 l 0.6318,0.1927 l 0.6318,0.1696 l 0.6318,0.1602 l 0.6318,0.1696 l 0.6318,0.1669 l 0.6318,-0.0264 l 0.6318,0.1575 l 0.6318,-0.3130 l 0.6318,-0.1336 l 0.6318,0.1908 l 0.6318,0.1831 l 0.6318,0.1493 l 0.6318,0.1135 l 0.6318,0.1613 l 0.6318,-0.0554 l 0.6318,-1.3408 l 0.6318,-3.2006 l 0.6318,-4.7868 l 0.6318,-0.3406 l 0.6318,-4.1138 l 0.6318,-1.4234 l 0.6318,0.2203 l 0.6318,0.0120 l 0.6318,-2.3338 l 0.6318,-0.6894 l 0.6318,0.2231 l 0.6318,-0.4396 l 0.6318,-1.4588 l 0.6318,-0.3110 l 0.6318,0.1562 l 0.6318,0.1770 l 0.6318,0.1823 l 0.6318,-0.2102 l 0.6318,0.0302 l 0.6318,0.2098 l 0.6318,-0.5070 l 0.6318,0.1756 l 0.6318,-0.1942 l 0.6318,0.2186 l 0.6318,0.1986 l 0.6318,0.2290 l 0.6318,-1.6099 l 0.6318,0.2277 l 0.6318,-0.7392 l 0.6318,0.2229 l 0.6318,-0.3103 l 0.6318,-0.6407 l 0.6318,0.1979 l 0.6318,0.0679 l 0.6318,0.0347 l 0.6318,0.2335 l 0.6318,0.2306 l 0.6318,0.1003 l 0.6318,0.1690 l 0.6318,-0.3411 l 0.6318,0.1823 l 0.6318,0.2331 l 0.6318,0.2255 l 0.6318,0.1333 l 0.6318,-0.4857 l 0.6318,-0.0765 l 0.6318,0.2200 l 0.6318,0.2109 l 0.6318,-0.1248 l 0.6318,0.2309 l 0.6318,0.1607 l 0.6318,-0.1268 l 0.6318,0.2166 l 0.6318,0.1903 l 0.6318,0.2253 l 0.6318,0.2294 l 0.6318,-0.0529 l 0.6318,0.2262 l 0.6318,0.1960 l 0.6318,-0.3336 l 0.6318,-0.1293 l 0.6318,-0.3508 l 0.6318,0.2244 l 0.6318,-0.4477 l 0.6318,0.2262 l 0.6318,0.1974 l 0.6318,0.2243 l 0.6318,0.2279 l 0.6318,0.2293 l 0.6318,0.2291 l 0.6318,0.1619 l 0.6318,-0.0654 l 0.6318,-0.1257 l 0.6318,-0.3658 l 0.6318,-0.8705 l 0.6318,0.0868 l 0.6318,0.1068 l 0.6318,0.0571 l 0.6318,0.2195 l 0.6318,-0.8351 l 0.6318,0.1746 l 0.6318,-0.0616 l 0.6318,-0.3142 l 0.6318,-0.4062 l 0.6318,-0.6489 l 0.6318,0.0788 l 0.6318,0.0351 l 0.6318,-0.1611 l 0.6318,0.2258 l 0.6318,0.2189 l 0.6318,-0.0541 l 0.6318,0.0833 l 0.6318,-0.0174 l 0.6318,-0.4181 l 0.6318,0.2251 l 0.6318,-0.2411 l 0.6318,-1.3038 l 0.6318,-0.0752 l 0.6318,0.2353 l 0.6318,0.0745 l 0.6318,-1.4416 l 0.6318,-0.4875 l 0.6318,-0.9893 l 0.6318,0.2415 l 0.6318,-0.1069 l 0.6318,0.1676 l 0.6318,-0.8173 l 0.6318,-0.3871 l 0.6318,-0.2723 l 0.6318,-0.0548 l 0.6318,0.1633 l 0.6318,-1.2946 l 0.6318,0.2470 l 0.6318,-0.6579 l 0.6318,0.1831 l 0.6318,0.2414 l 0.6318,-0.6259 l 0.6318,-0.2530 l 0.6318,0.2486 l 0.6318,0.2487 l 0.6318,-0.1262 l 0.6318,-0.7171 l 0.6318,-0.4371 l 0.6318,-0.4255 l 0.6318,0.1980 l 0.6318,0.2512 l 0.6318,-0.2685 l 0.6318,-0.1405 l 0.6318,0.2013 l 0.6318,-0.0689 l 0.6318,0.2424 l 0.6318,0.0843 l 0.6318,-1.1395 l 0.6318,0.2127 l 0.6318,0.2235 l 0.6318,0.2264 l 0.6318,0.2500 l 0.6318,-0.0744 l 0.6318,0.1893 l 0.6318,0.2508 l 0.6318,-0.4045 l 0.6318,0.2461 l 0.6318,0.2408 l 0.6318,0.1756 l 0.6318,0.1463 l 0.6318,0.2048 l 0.6318,0.2475 l 0.6318,0.2456 l 0.6318,0.1377 l 0.6318,0.2471 l 0.6318,0.2470 l 0.6318,0.0586 l 0.6318,0.2032 l 0.6318,0.2332 l 0.6318,0.1509 l 0.6318,0.2151 l 0.6318,-0.0327 l 0.6318,-0.0247 l 0.6318,-0.1398 l 0.6318,0.2281 l 0.6318,0.2231 l 0.6318,0.0159 l 0.6318,-0.0007 l 0.6318,0.2446 l 0.6318,0.2402 l 0.6318,0.1422 l 0.6318,0.2229 l 0.6318,0.2423 l 0.6318,0.1643 l 0.6318,0.2419 l 0.6318,0.2304 l 0.6318,0.2343 l 0.6318,0.2356 l 0.6318,0.0026 l 0.6318,0.1667 l 0.6318,0.0897 l 0.6318,0.0300 l 0.6318,0.1404 l 0.6318,0.2389 l 0.6318,0.2152 l 0.6318,0.2376 l 0.6318,-0.1555 l 0.6318,-0.0169 l 0.6318,0.2379 l 0.6318,0.0377 l 0.6318,-0.0049 l 0.6318,-0.0082 l 0.6318,0.2377 l 0.6318,0.1976 l 0.6318,0.1460 l 0.6318,0.2231 l 0.6318,-0.2425 l 0.6318,0.1162 l 0.6318,0.2359 l 0.6318,0.1925 l 0.6318,0.2313 l 0.6318,0.2330 l 0.6318,0.2170 l 0.6318,0.2071 l 0.6318,0.1761 l 0.6318,0.2306 l 0.6318,0.2082 l 0.6318,0.2217 l 0.6318,-0.0116 l 0.6318,0.0420 l 0.6318,0.2211 l 0.6318,0.2203 l 0.6318,0.2077 l 0.6318,0.1981 l 0.6318,0.1447 l 0.6318,0.2130 l 0.6318,0.2200 l 0.6318,-0.2375 l 0.6318,-3.4241 l 0.6318,-0.6570 l 0.6318,-0.5746 l 0.6318,-2.1417 l 0.6318,0.2357 l 0.6318,0.1120 l 0.6318,0.1746 l 0.6318,0.2390 l 0.6318,-0.3343 l 0.6318,0.2173 l 0.6318,0.1261 l 0.6318,0.2416 l 0.6318,0.1783 l 0.6318,0.2366 l 0.6318,0.2295 l 0.6318,0.2316 l 0.6318,0.1992 l 0.6318,0.1975 l 0.6318,0.1923 l 0.6318,0.2083 l 0.6318,0.2379 l 0.6318,0.2311 l 0.6318,0.2327 l 0.6318,0.2321 l 0.6318,0.2290 l 0.6318,0.1150 l 0.6318,0.2142 l 0.6318,0.2349 l 0.6318,0.0527 l 0.6318,0.2300 l 0.6318,0.2338 l 0.6318,0.2054 l 0.6318,0.1812 l 0.6318,0.2290 l 0.6318,0.2161 l 0.6318,0.1387 l 0.6318,0.2251 l 0.6318,0.2217 l 0.6318,0.2218 l 0.6318,0.2278 l 0.6318,0.2226 l 0.6318,0.1432 l 0.6318,0.2210 l 0.6318,0.2185 l 0.6318,0.1619 l 0.6318,0.2133 l 0.6318,0.2071 l 0.6318,0.2265 l 0.6318,0.1847 l 0.6318,0.2065 l 0.6318,0.2250 l 0.6318,0.2069 l 0.6318,-1.5291 l 0.6318,-0.3379 l 0.6318,-0.4067 l 0.6318,0.2275 l 0.6318,-0.0365 l 0.6318,0.1842 l 0.6318,0.2284 l 0.6318,0.2281 l 0.6318,-0.0828 l 0.6318,0.1221 l 0.6318,0.1262 l 0.6318,0.0083 l 0.6318,0.1220 l 0.6318,0.1577 l 0.6318,-0.0313 l 0.6318,0.0635 l 0.6318,0.1918 l 0.6318,0.1502 l 0.6318,0.1807 l 0.6318,0.2255 l 0.6318,0.1905 l 0.6318,0.1721 l 0.6318,-0.2326 l 0.6318,0.2225 l 0.6318,0.1935 l 0.6318,0.2241 l 0.6318,0.1939 l 0.6318,0.1239 l 0.6318,0.2121 l 0.6318,0.2153 l 0.6318,0.2219 l 0.6318,0.1639 l 0.6318,0.1750 l 0.6318,0.2101 l 0.6318,0.1914 l 0.6318,0.1889 l 0.6318,0.2196 l 0.6318,0.0794 l 0.6318,0.0905 l 0.6318,0.1593 l 0.6318,0.2096 l 0.6318,-1.1491 l 0.6318,0.1843 l 0.6318,-0.1122 l 0.6318,0.2123 l 0.6318,0.2122 l 0.6318,0.2192 l 0.6318,0.0707 l 0.6318,0.2091 l 0.6318,0.1632 l 0.6318,0.1977 l 0.6318,0.0705 l 0.6318,0.2078 l 0.6318,0.2167 l 0.6318,0.1796 l 0.6318,0.1257 l 0.6318,0.2133 l 0.6318,0.1902 l 0.6318,0.1729 l 0.6318,0.2151 l 0.6318,0.1257 l 0.6318,0.1864 l 0.6318,-0.2621 l 0.6318,0.2053 l 0.6318,0.1242 l 0.6318,0.2070 l 0.6318,0.1033 l 0.6318,-0.0026 l 0.6318,0.1775 l 0.6318,0.1993 l 0.6318,0.2052 l 0.6318,0.1812 l 0.6318,0.1874 l 0.6318,0.1962 l 0.6318,0.2088 l 0.6318,0.2004 l 0.6318,-0.0204 l 0.6318,0.2090 l 0.6318,0.1348 l 0.6318,0.0128 l 0.6318,0.1244 l 0.6318,0.2052 l 0.6318,0.1797 l 0.6318,0.1614 l 0.6318,0.2078 l 0.6318,0.1898 l 0.6318,0.1878 l 0.6318,0.2006 l 0.6318,0.1723 l 0.6318,0.2005 l 0.6318,0.1571 l 0.6318,0.1782 l 0.6318,0.1763 l 0.6318,0.0880 l 0.6318,0.0276 l 0.6318,0.2005 l 0.6318,0.1992 l 0.6318,0.0761 l 0.6318,0.1987 l 0.6318,0.2033 l 0.6318,0.2028 l 0.6318,0.0568 l 0.6318,0.1825 l 0.6318,0.2019 l 0.6318,0.2013 l 0.6318,0.1124 l 0.6318,0.1702 l 0.6318,0.1286 l 0.6318,0.1610 l 0.6318,0.1362 l 0.6318,0.1940 l 0.6318,0.1949 l 0.6318,0.1020 l 0.6318,0.1908 l 0.6318,0.1984 l 0.6318,0.1949 l 0.6318,0.1968 l 0.6318,0.1669 l 0.6318,-0.3478 l 0.6318,0.0665 l 0.6318,0.1975 l 0.6318,0.1510 l 0.6318,0.1594 l 0.6318,0.1718 l 0.6318,0.1958 l 0.6318,0.1709 l 0.6318,0.1953 l 0.6318,0.1466 l 0.6318,-0.0045 l 0.6318,0.1800 l 0.6318,0.1837 l 0.6318,0.1737 l 0.6318,-0.3503 l 0.6318,0.1874 l 0.6318,0.1867 l 0.6318,0.1883 l 0.6318,0.1864 l 0.6318,0.0421 l 0.6318,0.1914 l 0.6318,0.1722 l 0.6318,0.1679 l 0.6318,0.1773 l 0.6318,0.1913 l 0.6318,0.1506 l 0.6318,0.1832 l 0.6318,0.1850 l 0.6318,0.1897 l 0.6318,0.1780 l 0.6318,0.1309 l 0.6318,0.0147 l 0.6318,-0.0345 l 0.6318,0.1524 l 0.6318,0.1738 l 0.6318,0.0183 l 0.6318,0.1484 l 0.6318,-0.1714 l 0.6318,0.0827 l 0.6318,0.1851 l 0.6318,0.1877 l 0.6318,0.1684 l 0.6318,0.1815 l 0.6318,0.1849 l 0.6318,0.1762 l 0.6318,0.1859 l 0.6318,0.1411 l 0.6318,0.1847 l 0.6318,0.1774 l 0.6318,0.1830 l 0.6318,0.1607 l 0.6318,0.1711 l 0.6318,0.1197 l 0.6318,0.1788 l 0.6318,-1.0227 l 0.6318,0.1481 l 0.6318,0.0478 l 0.6318,0.1087 l 0.6318,0.1777 l 0.6318,0.1698 l 0.6318,0.1296 l 0.6318,0.1833 l 0.6318,0.1734 l 0.6318,0.1798 l 0.6318,0.0097 l 0.6318,0.1468 l 0.6318,0.1718 l 0.6318,0.1446 l 0.6318,0.1773 l 0.6318,0.1809 l 0.6318,0.1747 "/>
  </g>
  <g stroke-linejoin="miter" stroke-opacity="1.0" fill-opacity="0.0" stroke="rgb(255,127,14)" stroke-width="1.3222982061355344" fill="rgb(0,0,0)" stroke-linecap="butt" stroke-miterlimit="10.0">
    <path d="M 112.1092,167.8573 l 0.6318,0.4303 l 0.6318,-0.3358 l 0.6318,0.1775 l 0.6318,0.1684 l 0.6318,0.4530 l 0.6318,-0.0689 l 0.6318,0.3588 l 0.6318,0.4462 l 0.6318,-3.4537 l 0.6318,0.4074 l 0.6318,0.0673 l 0.6318,0.4609 l 0.6318,0.3241 l 0.6318,0.1546 l 0.6318,-1.9669 l 0.6318,0.4243 l 0.6318,-0.7904 l 0.6318,-0.5126 l 0.6318,0.3254 l 0.6318,0.4620 l 0.6318,-0.0286 l 0.6318,0.4635 l 0.6318,0.4646 l 0.6318,0.2829 l 0.6318,0.4004 l 0.6318,0.1567 l 0.6318,-0.5639 l 0.6318,0.1671 l 0.6318,-0.8050 l 0.6318,0.0404 l 0.6318,0.4649 l 0.6318,0.4092 l 0.6318,0.3853 l 0.6318,0.4080 l 0.6318,0.3827 l 0.6318,-0.0917 l 0.6318,0.3783 l 0.6318,-0.9162 l 0.6318,-0.3622 l 0.6318,0.4541 l 0.6318,0.4410 l 0.6318,0.3317 l 0.6318,0.2339 l 0.6318,0.3835 l 0.6318,-0.1691 l 0.6318,-3.4416 l 0.6318,-7.8468 l 0.6318,-11.0225 l 0.6318,-0.5641 l 0.6318,-9.6407 l 0.6318,-3.1820 l 0.6318,0.6250 l 0.6318,0.2185 l 0.6318,-4.7442 l 0.6318,-1.4705 l 0.6318,0.6406 l 0.6318,-0.6771 l 0.6318,-3.1384 l 0.6318,-0.3985 l 0.6318,0.4806 l 0.6318,0.5303 l 0.6318,0.5914 l 0.6318,-0.3535 l 0.6318,0.1959 l 0.6318,0.6364 l 0.6318,-0.8415 l 0.6318,0.5241 l 0.6318,-0.1804 l 0.6318,0.6532 l 0.6318,0.6159 l 0.6318,0.6610 l 0.6318,-3.1498 l 0.6318,0.6497 l 0.6318,-1.5719 l 0.6318,0.6407 l 0.6318,-0.5843 l 0.6318,-1.2916 l 0.6318,0.6190 l 0.6318,0.2900 l 0.6318,0.2192 l 0.6318,0.6750 l 0.6318,0.6648 l 0.6318,0.4032 l 0.6318,0.5461 l 0.6318,-0.6326 l 0.6318,0.5478 l 0.6318,0.6673 l 0.6318,0.6519 l 0.6318,0.4580 l 0.6318,-0.9579 l 0.6318,-0.0299 l 0.6318,0.6366 l 0.6318,0.6152 l 0.6318,-0.1410 l 0.6318,0.6548 l 0.6318,0.4988 l 0.6318,-0.1489 l 0.6318,0.6193 l 0.6318,0.5570 l 0.6318,0.6341 l 0.6318,0.6413 l 0.6318,0.0079 l 0.6318,0.6305 l 0.6318,0.5641 l 0.6318,-0.6179 l 0.6318,-0.1468 l 0.6318,-0.7087 l 0.6318,0.6298 l 0.6318,-0.9141 l 0.6318,0.6324 l 0.6318,0.5617 l 0.6318,0.6240 l 0.6318,0.6285 l 0.6318,0.6305 l 0.6318,0.6274 l 0.6318,0.4747 l 0.6318,-0.0596 l 0.6318,-0.1860 l 0.6318,-0.7198 l 0.6318,-1.9140 l 0.6318,0.3134 l 0.6318,0.3604 l 0.6318,0.2509 l 0.6318,0.6018 l 0.6318,-1.7547 l 0.6318,0.4913 l 0.6318,-0.0629 l 0.6318,-0.6355 l 0.6318,-0.7888 l 0.6318,-1.3061 l 0.6318,0.2711 l 0.6318,0.1727 l 0.6318,-0.2729 l 0.6318,0.6312 l 0.6318,0.6144 l 0.6318,-0.0282 l 0.6318,0.3077 l 0.6318,0.0842 l 0.6318,-0.8064 l 0.6318,0.6166 l 0.6318,-0.3978 l 0.6318,-2.7385 l 0.6318,0.0142 l 0.6318,0.6449 l 0.6318,0.2366 l 0.6318,-2.9812 l 0.6318,-1.0777 l 0.6318,-1.9316 l 0.6318,0.6731 l 0.6318,-0.0146 l 0.6318,0.4677 l 0.6318,-1.8272 l 0.6318,-0.6166 l 0.6318,-0.5513 l 0.6318,0.0928 l 0.6318,0.4720 l 0.6318,-2.8497 l 0.6318,0.7039 l 0.6318,-1.2042 l 0.6318,0.5342 l 0.6318,0.6800 l 0.6318,-1.1284 l 0.6318,-0.3105 l 0.6318,0.7073 l 0.6318,0.7017 l 0.6318,-0.0441 l 0.6318,-1.5788 l 0.6318,-0.9031 l 0.6318,-0.8502 l 0.6318,0.6174 l 0.6318,0.7133 l 0.6318,-0.4899 l 0.6318,-0.1081 l 0.6318,0.5850 l 0.6318,-0.0352 l 0.6318,0.6964 l 0.6318,0.3629 l 0.6318,-2.4392 l 0.6318,0.6221 l 0.6318,0.6455 l 0.6318,0.6506 l 0.6318,0.7040 l 0.6318,-0.0061 l 0.6318,0.5581 l 0.6318,0.7017 l 0.6318,-0.7853 l 0.6318,0.6917 l 0.6318,0.6777 l 0.6318,0.5253 l 0.6318,0.4591 l 0.6318,0.5910 l 0.6318,0.6845 l 0.6318,0.6768 l 0.6318,0.4264 l 0.6318,0.6769 l 0.6318,0.6744 l 0.6318,0.2410 l 0.6318,0.5735 l 0.6318,0.6355 l 0.6318,0.4503 l 0.6318,0.5877 l 0.6318,0.0058 l 0.6318,0.0360 l 0.6318,-0.2443 l 0.6318,0.6202 l 0.6318,0.6055 l 0.6318,0.1215 l 0.6318,0.0884 l 0.6318,0.6530 l 0.6318,0.6390 l 0.6318,0.4164 l 0.6318,0.6014 l 0.6318,0.6410 l 0.6318,0.4426 l 0.6318,0.6355 l 0.6318,0.6032 l 0.6318,0.6158 l 0.6318,0.6168 l 0.6318,0.0388 l 0.6318,0.4427 l 0.6318,0.2633 l 0.6318,0.1061 l 0.6318,0.3784 l 0.6318,0.6166 l 0.6318,0.5567 l 0.6318,0.6097 l 0.6318,-0.3477 l 0.6318,-0.0199 l 0.6318,0.6096 l 0.6318,0.1173 l 0.6318,0.0104 l 0.6318,0.0037 l 0.6318,0.6068 l 0.6318,0.5082 l 0.6318,0.3735 l 0.6318,0.5668 l 0.6318,-0.5885 l 0.6318,0.3071 l 0.6318,0.5961 l 0.6318,0.4918 l 0.6318,0.5802 l 0.6318,0.5855 l 0.6318,0.5460 l 0.6318,0.5111 l 0.6318,0.4425 l 0.6318,0.5737 l 0.6318,0.5189 l 0.6318,0.5421 l 0.6318,-0.0631 l 0.6318,0.0815 l 0.6318,0.5427 l 0.6318,0.5392 l 0.6318,0.5054 l 0.6318,0.4787 l 0.6318,0.3406 l 0.6318,0.5159 l 0.6318,0.5304 l 0.6318,-0.6425 l 0.6318,-8.6688 l 0.6318,-1.5582 l 0.6318,-1.4155 l 0.6318,-5.1236 l 0.6318,0.6243 l 0.6318,0.3205 l 0.6318,0.4764 l 0.6318,0.6252 l 0.6318,-0.7329 l 0.6318,0.5798 l 0.6318,0.3677 l 0.6318,0.6285 l 0.6318,0.4870 l 0.6318,0.6097 l 0.6318,0.5999 l 0.6318,0.5922 l 0.6318,0.5274 l 0.6318,0.4987 l 0.6318,0.5073 l 0.6318,0.5233 l 0.6318,0.6042 l 0.6318,0.5815 l 0.6318,0.5911 l 0.6318,0.5879 l 0.6318,0.5706 l 0.6318,0.2722 l 0.6318,0.5413 l 0.6318,0.5852 l 0.6318,0.1453 l 0.6318,0.5673 l 0.6318,0.5791 l 0.6318,0.4966 l 0.6318,0.4534 l 0.6318,0.5589 l 0.6318,0.5343 l 0.6318,0.3116 l 0.6318,0.5518 l 0.6318,0.5423 l 0.6318,0.5315 l 0.6318,0.5481 l 0.6318,0.5390 l 0.6318,0.3136 l 0.6318,0.5254 l 0.6318,0.5172 l 0.6318,0.3794 l 0.6318,0.4995 l 0.6318,0.4815 l 0.6318,0.5357 l 0.6318,0.4304 l 0.6318,0.4858 l 0.6318,0.5271 l 0.6318,0.4732 l 0.6318,-4.1394 l 0.6318,-0.9274 l 0.6318,-1.0998 l 0.6318,0.5517 l 0.6318,-0.1359 l 0.6318,0.4374 l 0.6318,0.5512 l 0.6318,0.5489 l 0.6318,-0.2603 l 0.6318,0.2783 l 0.6318,0.2743 l 0.6318,-0.0323 l 0.6318,0.2714 l 0.6318,0.3657 l 0.6318,-0.1410 l 0.6318,0.1182 l 0.6318,0.4476 l 0.6318,0.3376 l 0.6318,0.4194 l 0.6318,0.5355 l 0.6318,0.4401 l 0.6318,0.3923 l 0.6318,-0.6836 l 0.6318,0.5254 l 0.6318,0.4496 l 0.6318,0.5274 l 0.6318,0.4485 l 0.6318,0.2511 l 0.6318,0.4910 l 0.6318,0.5000 l 0.6318,0.5157 l 0.6318,0.3556 l 0.6318,0.3874 l 0.6318,0.4813 l 0.6318,0.4305 l 0.6318,0.4235 l 0.6318,0.5029 l 0.6318,0.1275 l 0.6318,0.1614 l 0.6318,0.3474 l 0.6318,0.4776 l 0.6318,-3.2871 l 0.6318,0.4105 l 0.6318,-0.3917 l 0.6318,0.4901 l 0.6318,0.4871 l 0.6318,0.5055 l 0.6318,0.1039 l 0.6318,0.4748 l 0.6318,0.3539 l 0.6318,0.4399 l 0.6318,0.1013 l 0.6318,0.4725 l 0.6318,0.4932 l 0.6318,0.3957 l 0.6318,0.2273 l 0.6318,0.4819 l 0.6318,0.4103 l 0.6318,0.3608 l 0.6318,0.4825 l 0.6318,0.2374 l 0.6318,0.4052 l 0.6318,-0.8280 l 0.6318,0.4602 l 0.6318,0.2450 l 0.6318,0.4519 l 0.6318,0.1879 l 0.6318,-0.1663 l 0.6318,0.3857 l 0.6318,0.4268 l 0.6318,0.4551 l 0.6318,0.3922 l 0.6318,0.3864 l 0.6318,0.4135 l 0.6318,0.4590 l 0.6318,0.4370 l 0.6318,-0.2308 l 0.6318,0.4539 l 0.6318,0.2299 l 0.6318,-0.0919 l 0.6318,0.2271 l 0.6318,0.4395 l 0.6318,0.3784 l 0.6318,0.3014 l 0.6318,0.4470 l 0.6318,0.4023 l 0.6318,0.3803 l 0.6318,0.4287 l 0.6318,0.3306 l 0.6318,0.4262 l 0.6318,0.2832 l 0.6318,0.3626 l 0.6318,0.3409 l 0.6318,0.1019 l 0.6318,-0.0682 l 0.6318,0.4156 l 0.6318,0.4104 l 0.6318,0.0275 l 0.6318,0.4097 l 0.6318,0.4257 l 0.6318,0.4240 l 0.6318,0.0035 l 0.6318,0.3541 l 0.6318,0.4191 l 0.6318,0.4178 l 0.6318,0.1636 l 0.6318,0.3329 l 0.6318,0.2136 l 0.6318,0.3080 l 0.6318,0.2377 l 0.6318,0.3844 l 0.6318,0.3993 l 0.6318,0.1372 l 0.6318,0.3705 l 0.6318,0.4019 l 0.6318,0.3962 l 0.6318,0.3987 l 0.6318,0.2849 l 0.6318,-1.2158 l 0.6318,-0.0430 l 0.6318,0.4011 l 0.6318,0.2357 l 0.6318,0.2650 l 0.6318,0.3074 l 0.6318,0.3959 l 0.6318,0.3291 l 0.6318,0.3910 l 0.6318,0.2206 l 0.6318,-0.1977 l 0.6318,0.3328 l 0.6318,0.3460 l 0.6318,0.3112 l 0.6318,-1.3612 l 0.6318,0.3746 l 0.6318,0.3634 l 0.6318,0.3686 l 0.6318,0.3618 l 0.6318,-0.0705 l 0.6318,0.3827 l 0.6318,0.3277 l 0.6318,0.2963 l 0.6318,0.3284 l 0.6318,0.3784 l 0.6318,0.2393 l 0.6318,0.3551 l 0.6318,0.3536 l 0.6318,0.3715 l 0.6318,0.3287 l 0.6318,0.1731 l 0.6318,-0.2009 l 0.6318,-0.3388 l 0.6318,0.2484 l 0.6318,0.3189 l 0.6318,-0.1686 l 0.6318,0.2349 l 0.6318,-0.7611 l 0.6318,0.0512 l 0.6318,0.3575 l 0.6318,0.3687 l 0.6318,0.2987 l 0.6318,0.3513 l 0.6318,0.3598 l 0.6318,0.3237 l 0.6318,0.3602 l 0.6318,0.2249 l 0.6318,0.3535 l 0.6318,0.3259 l 0.6318,0.3507 l 0.6318,0.2669 l 0.6318,0.3036 l 0.6318,0.1505 l 0.6318,0.3299 l 0.6318,-3.5891 l 0.6318,0.2489 l 0.6318,-0.0654 l 0.6318,0.1307 l 0.6318,0.3450 l 0.6318,0.3209 l 0.6318,0.1976 l 0.6318,0.3579 l 0.6318,0.3212 l 0.6318,0.3434 l 0.6318,-0.1817 l 0.6318,0.2516 l 0.6318,0.3136 l 0.6318,0.2202 l 0.6318,0.3408 l 0.6318,0.3475 l 0.6318,0.3233 "/>
  </g>
  <g stroke-linejoin="miter" stroke-opacity="1.0" fill-opacity="0.0" stroke="rgb(31,119,180)" stroke-width="1.3222982061355344" fill="rgb(0,0,0)" stroke-linecap="butt" stroke-miterlimit="10.0">
    <path d="M 112.1092,181.7614 l 0.6318,1.7300 l 0.6318,-2.8981 l 0.6318,0.3578 l 0.6318,0.2797 l 0.6318,1.9627 l 0.6318,-1.1533 l 0.6318,1.4755 l 0.6318,1.9007 l 0.6318,-18.3217 l 0.6318,1.7256 l 0.6318,-0.3082 l 0.6318,2.2836 l 0.6318,1.7463 l 0.6318,0.1759 l 0.6318,-9.0712 l 0.6318,1.9326 l 0.6318,-4.6129 l 0.6318,-2.4428 l 0.6318,1.8595 l 0.6318,2.4391 l 0.6318,0.1463 l 0.6318,2.4214 l 0.6318,2.3651 l 0.6318,1.2432 l 0.6318,1.9139 l 0.6318,0.6379 l 0.6318,-2.7910 l 0.6318,1.0848 l 0.6318,-4.7911 l 0.6318,0.1763 l 0.6318,2.3665 l 0.6318,2.0379 l 0.6318,1.8964 l 0.6318,1.9878 l 0.6318,1.6936 l 0.6318,-0.6449 l 0.6318,1.8414 l 0.6318,-5.6386 l 0.6318,-1.8443 l 0.6318,2.2089 l 0.6318,2.1727 l 0.6318,1.3800 l 0.6318,0.8707 l 0.6318,1.7447 l 0.6318,-1.1335 l 0.6318,-16.1775 l 0.6318,-29.3467 l 0.6318,-32.9511 l 0.6318,2.2564 l 0.6318,-36.4340 l 0.6318,-8.9479 l 0.6318,5.0680 l 0.6318,4.1541 l 0.6318,-9.9421 l 0.6318,-3.2608 l 0.6318,5.0528 l 0.6318,1.8220 l 0.6318,-8.8480 l 0.6318,2.4545 l 0.6318,4.2802 l 0.6318,4.4416 l 0.6318,4.8950 l 0.6318,0.9516 l 0.6318,3.1273 l 0.6318,4.7097 l 0.6318,-0.4381 l 0.6318,4.0173 l 0.6318,1.8545 l 0.6318,4.5485 l 0.6318,4.3660 l 0.6318,4.2991 l 0.6318,-8.9616 l 0.6318,4.0953 l 0.6318,-5.6582 l 0.6318,4.2246 l 0.6318,-0.8916 l 0.6318,-3.1194 l 0.6318,4.1410 l 0.6318,3.0244 l 0.6318,2.7860 l 0.6318,4.2279 l 0.6318,4.1201 l 0.6318,2.5461 l 0.6318,3.2621 l 0.6318,-1.2494 l 0.6318,3.5958 l 0.6318,3.7886 l 0.6318,3.5401 l 0.6318,2.3642 l 0.6318,-3.0546 l 0.6318,1.2711 l 0.6318,3.2083 l 0.6318,3.0171 l 0.6318,0.5540 l 0.6318,3.2618 l 0.6318,2.0444 l 0.6318,0.2866 l 0.6318,3.2869 l 0.6318,2.2415 l 0.6318,2.8841 l 0.6318,2.9525 l 0.6318,-1.1556 l 0.6318,3.0321 l 0.6318,2.3629 l 0.6318,-4.3076 l 0.6318,-1.0727 l 0.6318,-4.1754 l 0.6318,3.0631 l 0.6318,-4.6007 l 0.6318,3.0467 l 0.6318,2.8425 l 0.6318,2.8697 l 0.6318,2.9591 l 0.6318,2.8488 l 0.6318,2.8120 l 0.6318,1.6715 l 0.6318,-0.8479 l 0.6318,-2.4100 l 0.6318,-4.7517 l 0.6318,-10.4355 l 0.6318,1.3288 l 0.6318,1.6750 l 0.6318,1.1979 l 0.6318,2.8476 l 0.6318,-8.6150 l 0.6318,2.1469 l 0.6318,-0.8185 l 0.6318,-3.2857 l 0.6318,-3.7583 l 0.6318,-5.3053 l 0.6318,1.2568 l 0.6318,0.9079 l 0.6318,-1.0189 l 0.6318,3.3553 l 0.6318,3.2076 l 0.6318,0.1015 l 0.6318,1.4782 l 0.6318,0.4850 l 0.6318,-3.4651 l 0.6318,3.0615 l 0.6318,-1.2138 l 0.6318,-10.8946 l 0.6318,1.6940 l 0.6318,3.1007 l 0.6318,0.3026 l 0.6318,-10.7573 l 0.6318,-6.4245 l 0.6318,-5.2942 l 0.6318,3.6194 l 0.6318,2.1023 l 0.6318,1.9038 l 0.6318,-9.4180 l 0.6318,-0.4116 l 0.6318,-2.5367 l 0.6318,2.2048 l 0.6318,2.5959 l 0.6318,-12.0833 l 0.6318,4.3002 l 0.6318,-3.3795 l 0.6318,3.3197 l 0.6318,4.0212 l 0.6318,-3.0722 l 0.6318,0.6858 l 0.6318,4.0679 l 0.6318,3.9248 l 0.6318,1.5038 l 0.6318,-7.8297 l 0.6318,-3.4610 l 0.6318,-2.4861 l 0.6318,3.7596 l 0.6318,4.1646 l 0.6318,-0.9209 l 0.6318,0.0878 l 0.6318,3.5876 l 0.6318,0.9788 l 0.6318,3.8092 l 0.6318,1.9910 l 0.6318,-9.5830 l 0.6318,3.8721 l 0.6318,3.8572 l 0.6318,3.7856 l 0.6318,3.7563 l 0.6318,-0.6317 l 0.6318,3.2464 l 0.6318,3.5828 l 0.6318,-2.6917 l 0.6318,3.3257 l 0.6318,3.1580 l 0.6318,2.9519 l 0.6318,2.6644 l 0.6318,3.1035 l 0.6318,3.1646 l 0.6318,2.8594 l 0.6318,0.8850 l 0.6318,2.9171 l 0.6318,2.9295 l 0.6318,1.0249 l 0.6318,2.6156 l 0.6318,2.2638 l 0.6318,1.9563 l 0.6318,1.7460 l 0.6318,-2.3799 l 0.6318,-0.4521 l 0.6318,-3.6745 l 0.6318,2.6664 l 0.6318,2.2562 l 0.6318,-0.1436 l 0.6318,-0.0929 l 0.6318,2.6047 l 0.6318,2.3768 l 0.6318,1.5736 l 0.6318,2.4389 l 0.6318,2.4144 l 0.6318,0.4783 l 0.6318,2.3103 l 0.6318,1.9202 l 0.6318,2.2493 l 0.6318,2.2056 l 0.6318,-2.6212 l 0.6318,0.7999 l 0.6318,-0.1655 l 0.6318,-1.6350 l 0.6318,0.5938 l 0.6318,2.2346 l 0.6318,1.7222 l 0.6318,2.1179 l 0.6318,-4.6296 l 0.6318,-2.4140 l 0.6318,2.2536 l 0.6318,-1.0909 l 0.6318,-1.9773 l 0.6318,-1.6615 l 0.6318,2.3167 l 0.6318,1.7327 l 0.6318,0.4734 l 0.6318,2.0254 l 0.6318,-5.9209 l 0.6318,0.5998 l 0.6318,2.2438 l 0.6318,1.7160 l 0.6318,2.0175 l 0.6318,2.1384 l 0.6318,1.9153 l 0.6318,1.3152 l 0.6318,1.2016 l 0.6318,1.9708 l 0.6318,1.6618 l 0.6318,1.4659 l 0.6318,-3.4292 l 0.6318,-1.7110 l 0.6318,1.8087 l 0.6318,1.7682 l 0.6318,1.3396 l 0.6318,1.2866 l 0.6318,-0.0301 l 0.6318,1.4743 l 0.6318,1.5779 l 0.6318,-7.1909 l 0.6318,-50.2583 l 0.6318,-5.5037 l 0.6318,-7.2780 l 0.6318,-21.1690 l 0.6318,4.0165 l 0.6318,2.5507 l 0.6318,3.2679 l 0.6318,3.7535 l 0.6318,-1.7681 l 0.6318,3.6371 l 0.6318,2.8285 l 0.6318,3.5330 l 0.6318,3.1287 l 0.6318,3.2229 l 0.6318,3.3261 l 0.6318,2.9765 l 0.6318,2.9508 l 0.6318,2.2522 l 0.6318,2.7324 l 0.6318,2.3136 l 0.6318,2.8925 l 0.6318,2.6468 l 0.6318,2.7761 l 0.6318,2.7056 l 0.6318,2.4258 l 0.6318,0.5298 l 0.6318,2.3449 l 0.6318,2.4974 l 0.6318,0.0734 l 0.6318,2.2757 l 0.6318,2.3699 l 0.6318,1.6982 l 0.6318,1.6455 l 0.6318,2.0999 l 0.6318,2.0386 l 0.6318,0.2320 l 0.6318,2.0714 l 0.6318,1.9844 l 0.6318,1.7836 l 0.6318,1.9047 l 0.6318,1.8530 l 0.6318,0.0817 l 0.6318,1.7240 l 0.6318,1.6523 l 0.6318,0.4818 l 0.6318,1.4683 l 0.6318,1.3385 l 0.6318,1.7151 l 0.6318,0.7657 l 0.6318,1.2721 l 0.6318,1.5960 l 0.6318,1.1287 l 0.6318,-29.8092 l 0.6318,-7.2136 l 0.6318,-5.7048 l 0.6318,2.6343 l 0.6318,-1.8172 l 0.6318,2.1687 l 0.6318,2.5535 l 0.6318,2.4748 l 0.6318,-2.4970 l 0.6318,0.9545 l 0.6318,0.9686 l 0.6318,-0.5559 l 0.6318,0.7078 l 0.6318,1.3657 l 0.6318,-1.2842 l 0.6318,-0.1309 l 0.6318,1.9615 l 0.6318,1.3793 l 0.6318,1.5413 l 0.6318,2.3139 l 0.6318,1.7948 l 0.6318,1.2557 l 0.6318,-4.6314 l 0.6318,2.1887 l 0.6318,1.9395 l 0.6318,2.1737 l 0.6318,1.8573 l 0.6318,-0.0061 l 0.6318,1.8095 l 0.6318,1.9842 l 0.6318,2.0001 l 0.6318,0.7312 l 0.6318,1.2039 l 0.6318,1.7769 l 0.6318,1.4669 l 0.6318,1.4261 l 0.6318,1.7744 l 0.6318,-0.4409 l 0.6318,-0.0420 l 0.6318,1.1416 l 0.6318,1.7131 l 0.6318,-24.3649 l 0.6318,1.6565 l 0.6318,-2.7627 l 0.6318,2.2487 l 0.6318,2.0821 l 0.6318,2.1929 l 0.6318,0.0383 l 0.6318,1.8837 l 0.6318,1.4122 l 0.6318,1.5518 l 0.6318,-0.0416 l 0.6318,1.9839 l 0.6318,1.9787 l 0.6318,1.5570 l 0.6318,-0.2739 l 0.6318,1.8957 l 0.6318,1.1652 l 0.6318,0.8393 l 0.6318,1.8020 l 0.6318,0.2674 l 0.6318,1.3876 l 0.6318,-6.1062 l 0.6318,1.8532 l 0.6318,0.8388 l 0.6318,1.3349 l 0.6318,0.4922 l 0.6318,-3.6175 l 0.6318,1.5295 l 0.6318,1.2340 l 0.6318,1.7582 l 0.6318,1.4554 l 0.6318,0.8025 l 0.6318,1.0959 l 0.6318,1.6482 l 0.6318,1.5356 l 0.6318,-3.8869 l 0.6318,1.6055 l 0.6318,-0.0445 l 0.6318,-2.1103 l 0.6318,0.3152 l 0.6318,1.4784 l 0.6318,1.2530 l 0.6318,0.3091 l 0.6318,1.5503 l 0.6318,1.3062 l 0.6318,0.9273 l 0.6318,1.4242 l 0.6318,0.5187 l 0.6318,1.3651 l 0.6318,0.1622 l 0.6318,0.8421 l 0.6318,0.6316 l 0.6318,-1.1811 l 0.6318,-2.0985 l 0.6318,1.2295 l 0.6318,1.1836 l 0.6318,-1.8661 l 0.6318,1.2982 l 0.6318,1.4078 l 0.6318,1.3748 l 0.6318,-1.8436 l 0.6318,0.7795 l 0.6318,1.3520 l 0.6318,1.3330 l 0.6318,-0.5809 l 0.6318,0.8035 l 0.6318,0.0025 l 0.6318,0.7357 l 0.6318,0.3101 l 0.6318,0.8124 l 0.6318,1.2428 l 0.6318,-0.4169 l 0.6318,0.6188 l 0.6318,1.1063 l 0.6318,1.1820 l 0.6318,1.1325 l 0.6318,-0.2747 l 0.6318,-10.3493 l 0.6318,-2.6535 l 0.6318,1.3937 l 0.6318,-0.0798 l 0.6318,0.2783 l 0.6318,0.6831 l 0.6318,1.4018 l 0.6318,0.9515 l 0.6318,1.3168 l 0.6318,-0.0524 l 0.6318,-2.8211 l 0.6318,0.8633 l 0.6318,0.9920 l 0.6318,0.7446 l 0.6318,-10.1930 l 0.6318,1.3651 l 0.6318,1.4493 l 0.6318,1.4481 l 0.6318,1.3932 l 0.6318,-2.0197 l 0.6318,1.4458 l 0.6318,1.0099 l 0.6318,0.9010 l 0.6318,1.1172 l 0.6318,1.3627 l 0.6318,0.5295 l 0.6318,1.0800 l 0.6318,1.2136 l 0.6318,1.2408 l 0.6318,1.0264 l 0.6318,0.0181 l 0.6318,-2.3208 l 0.6318,-4.6073 l 0.6318,0.7820 l 0.6318,1.1805 l 0.6318,-2.8581 l 0.6318,0.6913 l 0.6318,-6.1832 l 0.6318,-0.3404 l 0.6318,1.4420 l 0.6318,1.5112 l 0.6318,1.0090 l 0.6318,1.3683 l 0.6318,1.3978 l 0.6318,1.1068 l 0.6318,1.3522 l 0.6318,0.4366 l 0.6318,1.2663 l 0.6318,1.0382 l 0.6318,1.2309 l 0.6318,0.5789 l 0.6318,0.8771 l 0.6318,-0.3351 l 0.6318,1.0435 l 0.6318,-22.4733 l 0.6318,0.8226 l 0.6318,-0.9384 l 0.6318,0.3720 l 0.6318,1.6145 l 0.6318,1.4582 l 0.6318,0.7897 l 0.6318,1.6135 l 0.6318,1.3488 l 0.6318,1.4726 l 0.6318,-1.4800 l 0.6318,1.0854 l 0.6318,1.1852 l 0.6318,0.5834 l 0.6318,1.4411 l 0.6318,1.4224 l 0.6318,1.2242 "/>
  </g>
  <g stroke-linejoin="miter" stroke-opacity="1.0" fill-opacity="0.0" stroke="rgb(102,102,102)" stroke-width="0.4407660687118448" fill="rgb(0,0,0)" stroke-linecap="butt" stroke-miterlimit="10.0">
    <path d="M 112.1092,258.7950 h 315.2723 "/>
  </g>
  <g stroke-linejoin="miter" stroke-opacity="0.0" fill-opacity="0.0" stroke="rgb(0,0,0)" fill-rule="evenodd" stroke-width="0.0" fill="rgb(0,0,0)" stroke-linecap="butt" stroke-miterlimit="10.0">
    <path d="M 49.7693,94.6895 l -25.2470,0.0000 l -0.0000,164.1056 l 25.2470,0.0000 Z"/>
  </g>
  <g stroke-linejoin="miter" stroke-opacity="1.0" fill-opacity="1.0" font-size="22.951826032485474px" stroke="rgb(0,0,0)" fill-rule="evenodd" stroke-width="0.0" fill="rgb(31,119,180)" stroke-linecap="butt" stroke-miterlimit="10.0">
    <text dominant-baseline="middle" transform="matrix(0.0000,-1.0000,1.0000,0.0000,37.1458,258.7950)" stroke="none" text-anchor="start">std deviation
    </text>
  </g>
  <g stroke-linejoin="miter" stroke-opacity="0.0" fill-opacity="0.0" stroke="rgb(0,0,0)" fill-rule="evenodd" stroke-width="0.0" fill="rgb(0,0,0)" stroke-linecap="butt" stroke-miterlimit="10.0">
    <path d="M 565.3345,255.2343 l -0.0000,-12.6235 h -31.5588 l -0.0000,12.6235 Z"/>
  </g>
  <g stroke-linejoin="miter" stroke-opacity="1.0" fill-opacity="0.63" font-size="11.475913016242737px" stroke="rgb(0,0,0)" fill-rule="evenodd" stroke-width="0.0" fill="rgb(0,0,0)" stroke-linecap="butt" stroke-miterlimit="10.0">
    <text dominant-baseline="middle" transform="matrix(1.0000,-0.0000,0.0000,1.0000,549.5551,248.9226)" stroke="none" text-anchor="middle">0.996
    </text>
  </g>
  <g stroke-linejoin="miter" stroke-opacity="1.0" fill-opacity="0.0" stroke="rgb(44,160,44)" stroke-width="1.3222982061355344" fill="rgb(0,0,0)" stroke-linecap="butt" stroke-miterlimit="10.0">
    <path d="M 508.5539,247.7750 h 21.0182 "/>
  </g>
  <g stroke-linejoin="miter" stroke-opacity="0.0" fill-opacity="0.0" stroke="rgb(0,0,0)" fill-rule="evenodd" stroke-width="0.0" fill="rgb(0,0,0)" stroke-linecap="butt" stroke-miterlimit="10.0">
    <path d="M 559.0227,236.3054 l -0.0000,-12.6235 h -25.2470 l -0.0000,12.6235 Z"/>
  </g>
  <g stroke-linejoin="miter" stroke-opacity="1.0" fill-opacity="0.63" font-size="11.475913016242737px" stroke="rgb(0,0,0)" fill-rule="evenodd" stroke-width="0.0" fill="rgb(0,0,0)" stroke-linecap="butt" stroke-miterlimit="10.0">
    <text dominant-baseline="middle" transform="matrix(1.0000,-0.0000,0.0000,1.0000,546.3992,229.9936)" stroke="none" text-anchor="middle">0.99
    </text>
  </g>
  <g stroke-linejoin="miter" stroke-opacity="1.0" fill-opacity="0.0" stroke="rgb(255,127,14)" stroke-width="1.3222982061355344" fill="rgb(0,0,0)" stroke-linecap="butt" stroke-miterlimit="10.0">
    <path d="M 508.5539,228.8460 h 21.0182 "/>
  </g>
  <g stroke-linejoin="miter" stroke-opacity="0.0" fill-opacity="0.0" stroke="rgb(0,0,0)" fill-rule="evenodd" stroke-width="0.0" fill="rgb(0,0,0)" stroke-linecap="butt" stroke-miterlimit="10.0">
    <path d="M 559.0227,217.3764 l -0.0000,-12.6235 h -25.2470 l -0.0000,12.6235 Z"/>
  </g>
  <g stroke-linejoin="miter" stroke-opacity="1.0" fill-opacity="0.63" font-size="11.475913016242737px" stroke="rgb(0,0,0)" fill-rule="evenodd" stroke-width="0.0" fill="rgb(0,0,0)" stroke-linecap="butt" stroke-miterlimit="10.0">
    <text dominant-baseline="middle" transform="matrix(1.0000,-0.0000,0.0000,1.0000,546.3992,211.0647)" stroke="none" text-anchor="middle">0.95
    </text>
  </g>
  <g stroke-linejoin="miter" stroke-opacity="1.0" fill-opacity="0.0" stroke="rgb(31,119,180)" stroke-width="1.3222982061355344" fill="rgb(0,0,0)" stroke-linecap="butt" stroke-miterlimit="10.0">
    <path d="M 508.5539,209.9171 h 21.0182 "/>
  </g>
  <g stroke-linejoin="miter" stroke-opacity="0.0" fill-opacity="0.0" stroke="rgb(0,0,0)" fill-rule="evenodd" stroke-width="0.0" fill="rgb(0,0,0)" stroke-linecap="butt" stroke-miterlimit="10.0">
    <path d="M 544.6211,198.4475 l -0.0000,-14.4269 h -72.1343 l -0.0000,14.4269 Z"/>
  </g>
  <g stroke-linejoin="miter" stroke-opacity="1.0" fill-opacity="0.33" font-size="13.115329161420268px" stroke="rgb(0,0,0)" fill-rule="evenodd" stroke-width="0.0" fill="rgb(0,0,0)" stroke-linecap="butt" stroke-miterlimit="10.0">
    <text dominant-baseline="middle" transform="matrix(1.0000,-0.0000,0.0000,1.0000,508.5539,191.2341)" stroke="none" text-anchor="middle">decay rate
    </text>
  </g>
  <g stroke-linejoin="miter" stroke-opacity="0.2" fill-opacity="0.0" stroke="rgb(0,0,0)" stroke-width="0.8815321374236896" fill="rgb(0,0,0)" stroke-linecap="butt" stroke-miterlimit="10.0">
    <path d="M 569.9768,258.7950 l -0.0000,-78.3351 h -102.1325 l -0.0000,78.3351 Z"/>
  </g>
  <g stroke-linejoin="miter" stroke-opacity="0.0" fill-opacity="0.1" stroke="rgb(0,0,0)" stroke-width="0.0" fill="rgb(0,0,0)" stroke-linecap="butt" stroke-miterlimit="10.0">
    <path d="M 103.7019,258.7950 l -0.0000,-210.1816 h -4.2036 l -0.0000,210.1816 Z"/>
  </g>
  <g stroke-linejoin="miter" stroke-opacity="0.0" fill-opacity="0.0" stroke="rgb(0,0,0)" fill-rule="evenodd" stroke-width="0.0" fill="rgb(0,0,0)" stroke-linecap="butt" stroke-miterlimit="10.0">
    <path d="M 94.2437,69.3270 l -0.0000,-14.4269 h -36.0672 l -0.0000,14.4269 Z"/>
  </g>
  <g stroke-linejoin="miter" stroke-opacity="1.0" fill-opacity="0.6" font-size="13.115329161420268px" stroke="rgb(0,0,0)" fill-rule="evenodd" stroke-width="0.0" fill="rgb(0,0,0)" stroke-linecap="butt" stroke-miterlimit="10.0">
    <text dominant-baseline="middle" transform="matrix(1.0000,-0.0000,0.0000,1.0000,76.2102,62.1136)" stroke="none" text-anchor="middle">0.016
    </text>
  </g>
  <g stroke-linejoin="miter" stroke-opacity="0.6" fill-opacity="0.0" stroke="rgb(0,0,0)" stroke-width="2.203830343559224" fill="rgb(0,0,0)" stroke-linecap="butt" stroke-miterlimit="10.0">
    <path d="M 97.3965,60.8021 h 6.3054 "/>
  </g>
  <g stroke-linejoin="miter" stroke-opacity="0.0" fill-opacity="0.0" stroke="rgb(0,0,0)" fill-rule="evenodd" stroke-width="0.0" fill="rgb(0,0,0)" stroke-linecap="butt" stroke-miterlimit="10.0">
    <path d="M 94.2437,101.1059 l -0.0000,-14.4269 h -36.0672 l -0.0000,14.4269 Z"/>
  </g>
  <g stroke-linejoin="miter" stroke-opacity="1.0" fill-opacity="0.6" font-size="13.115329161420268px" stroke="rgb(0,0,0)" fill-rule="evenodd" stroke-width="0.0" fill="rgb(0,0,0)" stroke-linecap="butt" stroke-miterlimit="10.0">
    <text dominant-baseline="middle" transform="matrix(1.0000,-0.0000,0.0000,1.0000,76.2102,93.8924)" stroke="none" text-anchor="middle">0.014
    </text>
  </g>
  <g stroke-linejoin="miter" stroke-opacity="0.6" fill-opacity="0.0" stroke="rgb(0,0,0)" stroke-width="2.203830343559224" fill="rgb(0,0,0)" stroke-linecap="butt" stroke-miterlimit="10.0">
    <path d="M 97.3965,92.5809 h 6.3054 "/>
  </g>
  <g stroke-linejoin="miter" stroke-opacity="0.0" fill-opacity="0.0" stroke="rgb(0,0,0)" fill-rule="evenodd" stroke-width="0.0" fill="rgb(0,0,0)" stroke-linecap="butt" stroke-miterlimit="10.0">
    <path d="M 94.2437,132.8847 l -0.0000,-14.4269 h -36.0672 l -0.0000,14.4269 Z"/>
  </g>
  <g stroke-linejoin="miter" stroke-opacity="1.0" fill-opacity="0.6" font-size="13.115329161420268px" stroke="rgb(0,0,0)" fill-rule="evenodd" stroke-width="0.0" fill="rgb(0,0,0)" stroke-linecap="butt" stroke-miterlimit="10.0">
    <text dominant-baseline="middle" transform="matrix(1.0000,-0.0000,0.0000,1.0000,76.2102,125.6713)" stroke="none" text-anchor="middle">0.012
    </text>
  </g>
  <g stroke-linejoin="miter" stroke-opacity="0.6" fill-opacity="0.0" stroke="rgb(0,0,0)" stroke-width="2.203830343559224" fill="rgb(0,0,0)" stroke-linecap="butt" stroke-miterlimit="10.0">
    <path d="M 97.3965,124.3597 h 6.3054 "/>
  </g>
  <g stroke-linejoin="miter" stroke-opacity="0.0" fill-opacity="0.0" stroke="rgb(0,0,0)" fill-rule="evenodd" stroke-width="0.0" fill="rgb(0,0,0)" stroke-linecap="butt" stroke-miterlimit="10.0">
    <path d="M 94.2437,164.6635 l -0.0000,-14.4269 h -36.0672 l -0.0000,14.4269 Z"/>
  </g>
  <g stroke-linejoin="miter" stroke-opacity="1.0" fill-opacity="0.6" font-size="13.115329161420268px" stroke="rgb(0,0,0)" fill-rule="evenodd" stroke-width="0.0" fill="rgb(0,0,0)" stroke-linecap="butt" stroke-miterlimit="10.0">
    <text dominant-baseline="middle" transform="matrix(1.0000,-0.0000,0.0000,1.0000,76.2102,157.4501)" stroke="none" text-anchor="middle">0.010
    </text>
  </g>
  <g stroke-linejoin="miter" stroke-opacity="0.6" fill-opacity="0.0" stroke="rgb(0,0,0)" stroke-width="2.203830343559224" fill="rgb(0,0,0)" stroke-linecap="butt" stroke-miterlimit="10.0">
    <path d="M 97.3965,156.1386 h 6.3054 "/>
  </g>
  <g stroke-linejoin="miter" stroke-opacity="0.0" fill-opacity="0.0" stroke="rgb(0,0,0)" fill-rule="evenodd" stroke-width="0.0" fill="rgb(0,0,0)" stroke-linecap="butt" stroke-miterlimit="10.0">
    <path d="M 94.2437,196.4424 l -0.0000,-14.4269 h -36.0672 l -0.0000,14.4269 Z"/>
  </g>
  <g stroke-linejoin="miter" stroke-opacity="1.0" fill-opacity="0.6" font-size="13.115329161420268px" stroke="rgb(0,0,0)" fill-rule="evenodd" stroke-width="0.0" fill="rgb(0,0,0)" stroke-linecap="butt" stroke-miterlimit="10.0">
    <text dominant-baseline="middle" transform="matrix(1.0000,-0.0000,0.0000,1.0000,76.2102,189.2290)" stroke="none" text-anchor="middle">0.008
    </text>
  </g>
  <g stroke-linejoin="miter" stroke-opacity="0.6" fill-opacity="0.0" stroke="rgb(0,0,0)" stroke-width="2.203830343559224" fill="rgb(0,0,0)" stroke-linecap="butt" stroke-miterlimit="10.0">
    <path d="M 97.3965,187.9174 h 6.3054 "/>
  </g>
  <g stroke-linejoin="miter" stroke-opacity="0.0" fill-opacity="0.0" stroke="rgb(0,0,0)" fill-rule="evenodd" stroke-width="0.0" fill="rgb(0,0,0)" stroke-linecap="butt" stroke-miterlimit="10.0">
    <path d="M 94.2437,228.2212 l -0.0000,-14.4269 h -36.0672 l -0.0000,14.4269 Z"/>
  </g>
  <g stroke-linejoin="miter" stroke-opacity="1.0" fill-opacity="0.6" font-size="13.115329161420268px" stroke="rgb(0,0,0)" fill-rule="evenodd" stroke-width="0.0" fill="rgb(0,0,0)" stroke-linecap="butt" stroke-miterlimit="10.0">
    <text dominant-baseline="middle" transform="matrix(1.0000,-0.0000,0.0000,1.0000,76.2102,221.0078)" stroke="none" text-anchor="middle">0.006
    </text>
  </g>
  <g stroke-linejoin="miter" stroke-opacity="0.6" fill-opacity="0.0" stroke="rgb(0,0,0)" stroke-width="2.203830343559224" fill="rgb(0,0,0)" stroke-linecap="butt" stroke-miterlimit="10.0">
    <path d="M 97.3965,219.6963 h 6.3054 "/>
  </g>
  <g stroke-linejoin="miter" stroke-opacity="0.0" fill-opacity="0.0" stroke="rgb(0,0,0)" fill-rule="evenodd" stroke-width="0.0" fill="rgb(0,0,0)" stroke-linecap="butt" stroke-miterlimit="10.0">
    <path d="M 94.2437,260.0001 l -0.0000,-14.4269 h -36.0672 l -0.0000,14.4269 Z"/>
  </g>
  <g stroke-linejoin="miter" stroke-opacity="1.0" fill-opacity="0.6" font-size="13.115329161420268px" stroke="rgb(0,0,0)" fill-rule="evenodd" stroke-width="0.0" fill="rgb(0,0,0)" stroke-linecap="butt" stroke-miterlimit="10.0">
    <text dominant-baseline="middle" transform="matrix(1.0000,-0.0000,0.0000,1.0000,76.2102,252.7866)" stroke="none" text-anchor="middle">0.004
    </text>
  </g>
  <g stroke-linejoin="miter" stroke-opacity="0.6" fill-opacity="0.0" stroke="rgb(0,0,0)" stroke-width="2.203830343559224" fill="rgb(0,0,0)" stroke-linecap="butt" stroke-miterlimit="10.0">
    <path d="M 97.3965,251.4751 h 6.3054 "/>
  </g>
  <g stroke-linejoin="miter" stroke-opacity="0.0" fill-opacity="0.1" stroke="rgb(0,0,0)" stroke-width="0.0" fill="rgb(0,0,0)" stroke-linecap="butt" stroke-miterlimit="10.0">
    <path d="M 427.3815,271.4059 l -0.0000,-4.2036 h -315.2723 l -0.0000,4.2036 Z"/>
  </g>
  <g stroke-linejoin="miter" stroke-opacity="0.0" fill-opacity="0.0" stroke="rgb(0,0,0)" fill-rule="evenodd" stroke-width="0.0" fill="rgb(0,0,0)" stroke-linecap="butt" stroke-miterlimit="10.0">
    <path d="M 447.1340,342.9691 l 10.2013,-10.2013 l -56.1073,-56.1073 l -10.2013,10.2013 Z"/>
  </g>
  <g stroke-linejoin="miter" stroke-opacity="1.0" fill-opacity="0.6" font-size="13.115329161420268px" stroke="rgb(0,0,0)" fill-rule="evenodd" stroke-width="0.0" fill="rgb(0,0,0)" stroke-linecap="butt" stroke-miterlimit="10.0">
    <text dominant-baseline="middle" transform="matrix(0.7071,0.7071,-0.7071,0.7071,396.1273,281.7611)" stroke="none" text-anchor="start">31 Mar 2017
    </text>
  </g>
  <g stroke-linejoin="miter" stroke-opacity="0.6" fill-opacity="0.0" stroke="rgb(0,0,0)" stroke-width="2.203830343559224" fill="rgb(0,0,0)" stroke-linecap="butt" stroke-miterlimit="10.0">
    <path d="M 397.0547,267.2023 v 6.3054 "/>
  </g>
  <g stroke-linejoin="miter" stroke-opacity="0.0" fill-opacity="0.0" stroke="rgb(0,0,0)" fill-rule="evenodd" stroke-width="0.0" fill="rgb(0,0,0)" stroke-linecap="butt" stroke-miterlimit="10.0">
    <path d="M 407.9619,342.9691 l 10.2013,-10.2013 l -56.1073,-56.1073 l -10.2013,10.2013 Z"/>
  </g>
  <g stroke-linejoin="miter" stroke-opacity="1.0" fill-opacity="0.6" font-size="13.115329161420268px" stroke="rgb(0,0,0)" fill-rule="evenodd" stroke-width="0.0" fill="rgb(0,0,0)" stroke-linecap="butt" stroke-miterlimit="10.0">
    <text dominant-baseline="middle" transform="matrix(0.7071,0.7071,-0.7071,0.7071,356.9552,281.7611)" stroke="none" text-anchor="start">31 Dec 2016
    </text>
  </g>
  <g stroke-linejoin="miter" stroke-opacity="0.6" fill-opacity="0.0" stroke="rgb(0,0,0)" stroke-width="2.203830343559224" fill="rgb(0,0,0)" stroke-linecap="butt" stroke-miterlimit="10.0">
    <path d="M 357.8826,267.2023 v 6.3054 "/>
  </g>
  <g stroke-linejoin="miter" stroke-opacity="0.0" fill-opacity="0.0" stroke="rgb(0,0,0)" fill-rule="evenodd" stroke-width="0.0" fill="rgb(0,0,0)" stroke-linecap="butt" stroke-miterlimit="10.0">
    <path d="M 368.1579,342.9691 l 10.2013,-10.2013 l -56.1073,-56.1073 l -10.2013,10.2013 Z"/>
  </g>
  <g stroke-linejoin="miter" stroke-opacity="1.0" fill-opacity="0.6" font-size="13.115329161420268px" stroke="rgb(0,0,0)" fill-rule="evenodd" stroke-width="0.0" fill="rgb(0,0,0)" stroke-linecap="butt" stroke-miterlimit="10.0">
    <text dominant-baseline="middle" transform="matrix(0.7071,0.7071,-0.7071,0.7071,317.1513,281.7611)" stroke="none" text-anchor="start">30 Sep 2016
    </text>
  </g>
  <g stroke-linejoin="miter" stroke-opacity="0.6" fill-opacity="0.0" stroke="rgb(0,0,0)" stroke-width="2.203830343559224" fill="rgb(0,0,0)" stroke-linecap="butt" stroke-miterlimit="10.0">
    <path d="M 318.0787,267.2023 v 6.3054 "/>
  </g>
  <g stroke-linejoin="miter" stroke-opacity="0.0" fill-opacity="0.0" stroke="rgb(0,0,0)" fill-rule="evenodd" stroke-width="0.0" fill="rgb(0,0,0)" stroke-linecap="butt" stroke-miterlimit="10.0">
    <path d="M 327.7222,342.9691 l 10.2013,-10.2013 l -56.1073,-56.1073 l -10.2013,10.2013 Z"/>
  </g>
  <g stroke-linejoin="miter" stroke-opacity="1.0" fill-opacity="0.6" font-size="13.115329161420268px" stroke="rgb(0,0,0)" fill-rule="evenodd" stroke-width="0.0" fill="rgb(0,0,0)" stroke-linecap="butt" stroke-miterlimit="10.0">
    <text dominant-baseline="middle" transform="matrix(0.7071,0.7071,-0.7071,0.7071,276.7155,281.7611)" stroke="none" text-anchor="start">30 Jun 2016
    </text>
  </g>
  <g stroke-linejoin="miter" stroke-opacity="0.6" fill-opacity="0.0" stroke="rgb(0,0,0)" stroke-width="2.203830343559224" fill="rgb(0,0,0)" stroke-linecap="butt" stroke-miterlimit="10.0">
    <path d="M 277.6429,267.2023 v 6.3054 "/>
  </g>
  <g stroke-linejoin="miter" stroke-opacity="0.0" fill-opacity="0.0" stroke="rgb(0,0,0)" fill-rule="evenodd" stroke-width="0.0" fill="rgb(0,0,0)" stroke-linecap="butt" stroke-miterlimit="10.0">
    <path d="M 287.9183,342.9691 l 10.2013,-10.2013 l -56.1073,-56.1073 l -10.2013,10.2013 Z"/>
  </g>
  <g stroke-linejoin="miter" stroke-opacity="1.0" fill-opacity="0.6" font-size="13.115329161420268px" stroke="rgb(0,0,0)" fill-rule="evenodd" stroke-width="0.0" fill="rgb(0,0,0)" stroke-linecap="butt" stroke-miterlimit="10.0">
    <text dominant-baseline="middle" transform="matrix(0.7071,0.7071,-0.7071,0.7071,236.9116,281.7611)" stroke="none" text-anchor="start">31 Mar 2016
    </text>
  </g>
  <g stroke-linejoin="miter" stroke-opacity="0.6" fill-opacity="0.0" stroke="rgb(0,0,0)" stroke-width="2.203830343559224" fill="rgb(0,0,0)" stroke-linecap="butt" stroke-miterlimit="10.0">
    <path d="M 237.8390,267.2023 v 6.3054 "/>
  </g>
  <g stroke-linejoin="miter" stroke-opacity="0.0" fill-opacity="0.0" stroke="rgb(0,0,0)" fill-rule="evenodd" stroke-width="0.0" fill="rgb(0,0,0)" stroke-linecap="butt" stroke-miterlimit="10.0">
    <path d="M 249.3780,342.9691 l 10.2013,-10.2013 l -56.1073,-56.1073 l -10.2013,10.2013 Z"/>
  </g>
  <g stroke-linejoin="miter" stroke-opacity="1.0" fill-opacity="0.6" font-size="13.115329161420268px" stroke="rgb(0,0,0)" fill-rule="evenodd" stroke-width="0.0" fill="rgb(0,0,0)" stroke-linecap="butt" stroke-miterlimit="10.0">
    <text dominant-baseline="middle" transform="matrix(0.7071,0.7071,-0.7071,0.7071,198.3713,281.7611)" stroke="none" text-anchor="start">31 Dec 2015
    </text>
  </g>
  <g stroke-linejoin="miter" stroke-opacity="0.6" fill-opacity="0.0" stroke="rgb(0,0,0)" stroke-width="2.203830343559224" fill="rgb(0,0,0)" stroke-linecap="butt" stroke-miterlimit="10.0">
    <path d="M 199.2987,267.2023 v 6.3054 "/>
  </g>
  <g stroke-linejoin="miter" stroke-opacity="0.0" fill-opacity="0.0" stroke="rgb(0,0,0)" fill-rule="evenodd" stroke-width="0.0" fill="rgb(0,0,0)" stroke-linecap="butt" stroke-miterlimit="10.0">
    <path d="M 208.9422,342.9691 l 10.2013,-10.2013 l -56.1073,-56.1073 l -10.2013,10.2013 Z"/>
  </g>
  <g stroke-linejoin="miter" stroke-opacity="1.0" fill-opacity="0.6" font-size="13.115329161420268px" stroke="rgb(0,0,0)" fill-rule="evenodd" stroke-width="0.0" fill="rgb(0,0,0)" stroke-linecap="butt" stroke-miterlimit="10.0">
    <text dominant-baseline="middle" transform="matrix(0.7071,0.7071,-0.7071,0.7071,157.9356,281.7611)" stroke="none" text-anchor="start">30 Sep 2015
    </text>
  </g>
  <g stroke-linejoin="miter" stroke-opacity="0.6" fill-opacity="0.0" stroke="rgb(0,0,0)" stroke-width="2.203830343559224" fill="rgb(0,0,0)" stroke-linecap="butt" stroke-miterlimit="10.0">
    <path d="M 158.8630,267.2023 v 6.3054 "/>
  </g>
  <g stroke-linejoin="miter" stroke-opacity="0.0" fill-opacity="0.0" stroke="rgb(0,0,0)" fill-rule="evenodd" stroke-width="0.0" fill="rgb(0,0,0)" stroke-linecap="butt" stroke-miterlimit="10.0">
    <path d="M 168.5065,342.9691 l 10.2013,-10.2013 l -56.1073,-56.1073 l -10.2013,10.2013 Z"/>
  </g>
  <g stroke-linejoin="miter" stroke-opacity="1.0" fill-opacity="0.6" font-size="13.115329161420268px" stroke="rgb(0,0,0)" fill-rule="evenodd" stroke-width="0.0" fill="rgb(0,0,0)" stroke-linecap="butt" stroke-miterlimit="10.0">
    <text dominant-baseline="middle" transform="matrix(0.7071,0.7071,-0.7071,0.7071,117.4999,281.7611)" stroke="none" text-anchor="start">30 Jun 2015
    </text>
  </g>
  <g stroke-linejoin="miter" stroke-opacity="0.6" fill-opacity="0.0" stroke="rgb(0,0,0)" stroke-width="2.203830343559224" fill="rgb(0,0,0)" stroke-linecap="butt" stroke-miterlimit="10.0">
    <path d="M 118.4272,267.2023 v 6.3054 "/>
  </g>
  <g stroke-linejoin="miter" stroke-opacity="0.0" fill-opacity="0.0" stroke="rgb(0,0,0)" stroke-width="0.0" fill="rgb(0,0,0)" stroke-linecap="butt" stroke-miterlimit="10.0">
    <path d="M 427.3815,258.7950 l -0.0000,-210.1816 h -315.2723 l -0.0000,210.1816 Z"/>
  </g>
</svg>