<svg viewBox="-1.3559678118201535 -0.68275 2.3634678118201533 1.5045159178324474" xmlns="http://www.w3.org/2000/svg" xmlns:xlink="http://www.w3.org/1999/xlink" version="1.1" width="600.0" height="300.0"><g stroke-width="0.0" stroke="none" fill="#000000" transform="translate(-0.17423390591007692, -0.57175)" fill-opacity="1.0" font-size="0.12" text-anchor="middle"><text transform="rotate(0.0, 0.0, -0.0)" x="0.0" y="-0.0">std deviation</text></g><g stroke-width="0.0" stroke="#000000" fill="#666666" fill-opacity="3.0e-2" stroke-opacity="0.0"><rect width="1.9999999999999998" height="1.0" x="-1.0" y="-0.5" /></g><g stroke-width="5.0e-3" stroke="#A8E5EE" fill="none" stroke-opacity="0.3"><polyline points="-1.005,0.5 1.0049999999999997,0.5" /></g><g stroke-width="5.0e-3" stroke="#A8E5EE" fill="none" stroke-opacity="0.3"><polyline points="-1.005,0.25 1.0049999999999997,0.25" /></g><g stroke-width="5.0e-3" stroke="#A8E5EE" fill="none" stroke-opacity="0.3"><polyline points="-1.005,-0.0 1.0049999999999997,-0.0" /></g><g stroke-width="5.0e-3" stroke="#A8E5EE" fill="none" stroke-opacity="0.3"><polyline points="-1.005,-0.25 1.0049999999999997,-0.25" /></g><g stroke-width="5.0e-3" stroke="#A8E5EE" fill="none" stroke-opacity="0.3"><polyline points="-1.005,-0.5 1.0049999999999997,-0.5" /></g><g stroke-width="0.0" stroke="none" fill="#666666" fill-opacity="1.0" font-size="5.0e-2" text-anchor="end"><text x="-1.2309678118201535" y="0.5145">0.000</text></g><g stroke-width="0.0" stroke="none" fill="#666666" fill-opacity="1.0" font-size="5.0e-2" text-anchor="end"><text x="-1.2309678118201535" y="0.2645">0.005</text></g><g stroke-width="0.0" stroke="none" fill="#666666" fill-opacity="1.0" font-size="5.0e-2" text-anchor="end"><text x="-1.2309678118201535" y="1.4499999999999999e-2">0.010</text></g><g stroke-width="0.0" stroke="none" fill="#666666" fill-opacity="1.0" font-size="5.0e-2" text-anchor="end"><text x="-1.2309678118201535" y="-0.2355">0.015</text></g><g stroke-width="0.0" stroke="none" fill="#666666" fill-opacity="1.0" font-size="5.0e-2" text-anchor="end"><text x="-1.2309678118201535" y="-0.4855">0.020</text></g><g stroke-width="0.0" stroke="#2C429D" fill="#5F0391" fill-opacity="1.0" stroke-opacity="0.4"><line stroke-width="5.0e-3" transform="rotate(-90.0, -1.2008928118201536, 0.5)" x1="-1.2008928118201536" y1="0.515" x2="-1.2008928118201536" y2="0.485" /><line stroke-width="5.0e-3" transform="rotate(-90.0, -1.2008928118201536, 0.25)" x1="-1.2008928118201536" y1="0.265" x2="-1.2008928118201536" y2="0.235" /><line stroke-width="5.0e-3" transform="rotate(-90.0, -1.2008928118201536, -0.0)" x1="-1.2008928118201536" y1="1.5e-2" x2="-1.2008928118201536" y2="-1.5e-2" /><line stroke-width="5.0e-3" transform="rotate(-90.0, -1.2008928118201536, -0.25)" x1="-1.2008928118201536" y1="-0.235" x2="-1.2008928118201536" y2="-0.265" /><line stroke-width="5.0e-3" transform="rotate(-90.0, -1.2008928118201536, -0.5)" x1="-1.2008928118201536" y1="-0.485" x2="-1.2008928118201536" y2="-0.515" /></g><g stroke-width="0.0" stroke="#666666" fill="#5F0391" fill-opacity="0.5" stroke-opacity="0.0"><rect width="4.999999999999893e-3" height="1.0" x="-1.1908928118201536" y="-0.5" /></g><g stroke-width="5.0e-3" stroke="#A8E5EE" fill="none" stroke-opacity="0.3"><polyline points="-1.0,0.505 -1.0,-0.505" /></g><g stroke-width="5.0e-3" stroke="#A8E5EE" fill="none" stroke-opacity="0.3"><polyline points="-0.871743486973948,0.505 -0.871743486973948,-0.505" /></g><g stroke-width="5.0e-3" stroke="#A8E5EE" fill="none" stroke-opacity="0.3"><polyline points="-0.6152304609218437,0.505 -0.6152304609218437,-0.505" /></g><g stroke-width="5.0e-3" stroke="#A8E5EE" fill="none" stroke-opacity="0.3"><polyline points="-0.36272545090180375,0.505 -0.36272545090180375,-0.505" /></g><g stroke-width="5.0e-3" stroke="#A8E5EE" fill="none" stroke-opacity="0.3"><polyline points="-0.11022044088176364,0.505 -0.11022044088176364,-0.505" /></g><g stroke-width="5.0e-3" stroke="#A8E5EE" fill="none" stroke-opacity="0.3"><polyline points="0.1342685370741481,0.505 0.1342685370741481,-0.505" /></g><g stroke-width="5.0e-3" stroke="#A8E5EE" fill="none" stroke-opacity="0.3"><polyline points="0.3867735470941882,0.505 0.3867735470941882,-0.505" /></g><g stroke-width="5.0e-3" stroke="#A8E5EE" fill="none" stroke-opacity="0.3"><polyline points="0.6432865731462925,0.505 0.6432865731462925,-0.505" /></g><g stroke-width="5.0e-3" stroke="#A8E5EE" fill="none" stroke-opacity="0.3"><polyline points="0.8997995991983965,0.505 0.8997995991983965,-0.505" /></g><g stroke-width="5.0e-3" stroke="#A8E5EE" fill="none" stroke-opacity="0.3"><polyline points="0.9999999999999998,0.505 0.9999999999999998,-0.505" /></g><g stroke-width="0.0" stroke="none" fill="#666666" fill-opacity="1.0" font-size="5.0e-2" text-anchor="end"><text transform="rotate(-45.0, -1.0, 0.60875)" x="-1.0" y="0.60875">12 Feb 2018</text></g><g stroke-width="0.0" stroke="none" fill="#666666" fill-opacity="1.0" font-size="5.0e-2" text-anchor="end"><text transform="rotate(-45.0, -0.871743486973948, 0.60875)" x="-0.871743486973948" y="0.60875">31 Mar 2018</text></g><g stroke-width="0.0" stroke="none" fill="#666666" fill-opacity="1.0" font-size="5.0e-2" text-anchor="end"><text transform="rotate(-45.0, -0.6152304609218437, 0.60875)" x="-0.6152304609218437" y="0.60875">30 Jun 2018</text></g><g stroke-width="0.0" stroke="none" fill="#666666" fill-opacity="1.0" font-size="5.0e-2" text-anchor="end"><text transform="rotate(-45.0, -0.36272545090180375, 0.60875)" x="-0.36272545090180375" y="0.60875">30 Sep 2018</text></g><g stroke-width="0.0" stroke="none" fill="#666666" fill-opacity="1.0" font-size="5.0e-2" text-anchor="end"><text transform="rotate(-45.0, -0.11022044088176364, 0.60875)" x="-0.11022044088176364" y="0.60875">31 Dec 2018</text></g><g stroke-width="0.0" stroke="none" fill="#666666" fill-opacity="1.0" font-size="5.0e-2" text-anchor="end"><text transform="rotate(-45.0, 0.1342685370741481, 0.60875)" x="0.1342685370741481" y="0.60875">31 Mar 2019</text></g><g stroke-width="0.0" stroke="none" fill="#666666" fill-opacity="1.0" font-size="5.0e-2" text-anchor="end"><text transform="rotate(-45.0, 0.3867735470941882, 0.60875)" x="0.3867735470941882" y="0.60875">30 Jun 2019</text></g><g stroke-width="0.0" stroke="none" fill="#666666" fill-opacity="1.0" font-size="5.0e-2" text-anchor="end"><text transform="rotate(-45.0, 0.6432865731462925, 0.60875)" x="0.6432865731462925" y="0.60875">30 Sep 2019</text></g><g stroke-width="0.0" stroke="none" fill="#666666" fill-opacity="1.0" font-size="5.0e-2" text-anchor="end"><text transform="rotate(-45.0, 0.8997995991983965, 0.60875)" x="0.8997995991983965" y="0.60875">31 Dec 2019</text></g><g stroke-width="0.0" stroke="none" fill="#666666" fill-opacity="1.0" font-size="5.0e-2" text-anchor="end"><text transform="rotate(-45.0, 0.9999999999999998, 0.60875)" x="0.9999999999999998" y="0.60875">06 Feb 2020</text></g><g stroke-width="0.0" stroke="#2C429D" fill="#5F0391" fill-opacity="1.0" stroke-opacity="0.4"><line stroke-width="5.0e-3" x1="-1.0" y1="0.5425" x2="-1.0" y2="0.5125" /><line stroke-width="5.0e-3" x1="-0.871743486973948" y1="0.5425" x2="-0.871743486973948" y2="0.5125" /><line stroke-width="5.0e-3" x1="-0.6152304609218437" y1="0.5425" x2="-0.6152304609218437" y2="0.5125" /><line stroke-width="5.0e-3" x1="-0.36272545090180375" y1="0.5425" x2="-0.36272545090180375" y2="0.5125" /><line stroke-width="5.0e-3" x1="-0.11022044088176364" y1="0.5425" x2="-0.11022044088176364" y2="0.5125" /><line stroke-width="5.0e-3" x1="0.1342685370741481" y1="0.5425" x2="0.1342685370741481" y2="0.5125" /><line stroke-width="5.0e-3" x1="0.3867735470941882" y1="0.5425" x2="0.3867735470941882" y2="0.5125" /><line stroke-width="5.0e-3" x1="0.6432865731462925" y1="0.5425" x2="0.6432865731462925" y2="0.5125" /><line stroke-width="5.0e-3" x1="0.8997995991983965" y1="0.5425" x2="0.8997995991983965" y2="0.5125" /><line stroke-width="5.0e-3" x1="0.9999999999999998" y1="0.5425" x2="0.9999999999999998" y2="0.5125" /></g><g stroke-width="0.0" stroke="#666666" fill="#5F0391" fill-opacity="0.5" stroke-opacity="0.0"><rect width="1.9999999999999998" height="5.0000000000000044e-3" x="-1.0" y="0.5125" /></g><g stroke-width="5.0e-3" stroke="#C58C4B" fill="none" stroke-opacity="0.5"><polyline points="-1.0,0.5 0.9999999999999998,0.5" /></g><g stroke-width="5.0e-3" stroke="#3C7F2B" fill="none" stroke-opacity="0.5"><polyline points="-1.0,-0.21176050149143089 -0.9959919839679359,-0.1950314352088205 -0.9919839679358717,-0.19536565649702153 -0.9879759519038076,-0.191016192525438 -0.9839679358717435,-0.17352054630079816 -0.9799599198396793,-0.15984299663329316 -0.9759519038076152,-0.1458867485893245 -0.9719438877755511,-0.12969020265571451 -0.9679358717434869,-0.13849996673251652 -0.9639278557114228,-0.13405372623965073 -0.9599198396793587,-0.13628513932322217 -0.9559118236472945,-0.13286527362333578 -0.9519038076152304,-0.1335139408130156 -0.9478957915831663,-0.12079484932079876 -0.9438877755511023,-0.11792603002792712 -0.9398797595190381,-0.10294205541660173 -0.935871743486974,-8.771875504664417e-2 -0.9318637274549099,-7.47627331395817e-2 -0.9278557114228457,-8.961642181679252e-2 -0.9238476953907816,-7.531892173665944e-2 -0.9198396793587175,-6.661231996535932e-2 -0.9158316633266533,-5.671098248292994e-2 -0.9118236472945892,-4.2762581788917675e-2 -0.9078156312625251,-2.9233204493918086e-2 -0.9038076152304609,-4.012402951688265e-2 -0.8997995991983968,-2.682308676785783e-2 -0.8957915831663327,-1.3777022706287667e-2 -0.8917835671342685,-7.087340122948838e-2 -0.8877755511022044,-9.600367679318467e-2 -0.8837675350701403,-0.16321726823952354 -0.8797595190380761,-0.17045838760771748 -0.875751503006012,-0.15357340559113364 -0.8717434869739479,-0.15944057962987535 -0.8677354709418837,-0.18375878438444937 -0.8637274549098196,-0.18566235023944166 -0.8597194388777555,-0.18318828696280975 -0.8557114228456915,-0.17116235943285896 -0.8517034068136273,-0.19553573938030444 -0.8476953907815632,-0.18002023508465215 -0.8436873747494991,-0.19093458352149106 -0.8396793587174349,-0.175743682155456 -0.8356713426853708,-0.16573126524623505 -0.8316633266533067,-0.14951948866723452 -0.8276553106212425,-0.1397262861282057 -0.8236472945891784,-0.1340400961161139 -0.8196392785571143,-0.11799181707243722 -0.8156312625250501,-0.10628908055832509 -0.811623246492986,-9.87561172417235e-2 -0.8076152304609219,-8.360026402023424e-2 -0.8036072144288577,-8.704202588245158e-2 -0.7995991983967936,-7.29090093697008e-2 -0.7955911823647295,-7.127822739733936e-2 -0.7915831663326653,-5.697889693949609e-2 -0.7875751503006012,-5.0092038150007956e-2 -0.7835671342685371,-3.717565720252658e-2 -0.779559118236473,-2.8952125823827113e-2 -0.7755511022044088,-1.5847360723282966e-2 -0.7715430861723447,-2.3810957062733618e-2 -0.7675350701402806,-1.1994894035312842e-2 -0.7635270541082164,9.533300522768795e-4 -0.7595190380761523,2.5688662725523725e-3 -0.7555110220440882,5.836925993287556e-3 -0.751503006012024,1.8287334527726684e-2 -0.7474949899799599,3.048176947122344e-2 -0.7434869739478958,3.436306598193439e-2 -0.7394789579158316,4.4623550417327296e-2 -0.7354709418837675,5.5786635490755965e-2 -0.7314629258517034,6.549449984484934e-2 -0.7274549098196392,7.004547031013136e-2 -0.7234468937875751,7.863544704532355e-2 -0.719438877755511,8.836289229881372e-2 -0.7154308617234469,9.759194186905618e-2 -0.7114228456913828,0.10638919842535743 -0.7074148296593187,9.413418365189086e-2 -0.7034068136272545,8.089974786480825e-2 -0.6993987975951904,8.351408994250098e-2 -0.6953907815631263,7.790651196887527e-2 -0.6913827655310621,8.655761512733606e-2 -0.687374749498998,9.702065413693967e-2 -0.6833667334669339,9.848844877151974e-2 -0.6793587174348698,0.10805851114516118 -0.6753507014028056,0.11739143313778783 -0.6713426853707415,0.12707297589721084 -0.6673346693386774,0.13647736921674875 -0.6633266533066133,0.14097767454361815 -0.6593186372745492,0.1497104683022767 -0.6553106212424851,0.1578094609209003 -0.6513026052104209,0.1647547418368493 -0.6472945891783568,0.1689807477287636 -0.6432865731462927,0.177129087973375 -0.6392785571142285,0.17617408124527678 -0.6352705410821644,0.18391043591106276 -0.6312625250501003,0.155291313189945 -0.6272545090180361,0.16287909895727298 -0.623246492985972,0.15882015872055222 -0.6192384769539079,0.15931640475679637 -0.6152304609218437,0.16774448881596166 -0.6112224448897796,0.17416022667716824 -0.6072144288577155,0.17798446483802255 -0.6032064128256514,0.1714790582417367 -0.5991983967935872,0.16720485456991074 -0.5951903807615231,0.16342040221812576 -0.591182364729459,0.1708001186273458 -0.5871743486973948,0.16693232602309666 -0.5831663326653307,0.16374300345416648 -0.5791583166332666,0.17225720842421532 -0.5751503006012024,0.1797376102539081 -0.5711422845691383,0.1861396221012112 -0.5671342685370742,0.1938759415455258 -0.56312625250501,0.19643782794232856 -0.5591182364729459,0.20343044038634112 -0.5551102204408818,0.21072701572275193 -0.5511022044088176,0.21486630630957626 -0.5470941883767535,0.20874643840152624 -0.5430861723446894,0.21191482181490362 -0.5390781563126252,0.20655358933707652 -0.5350701402805611,0.2050296772573636 -0.531062124248497,0.20860655320618088 -0.5270541082164328,0.21532635961634583 -0.5230460921843687,0.2186629195333059 -0.5190380761523046,0.22271971841507865 -0.5150300601202404,0.2283886159023003 -0.5110220440881764,0.23465765856426807 -0.5070140280561123,0.24084836761552864 -0.5030060120240482,0.24579980483589892 -0.498997995991984,0.23666266792649848 -0.4949899799599199,0.2383711577375966 -0.49098196392785576,0.23684654008928413 -0.4869739478957916,0.2279017238246231 -0.4829659318637275,0.22215763626681617 -0.47895791583166336,0.22765703741021165 -0.47494989979959923,0.23396271399980106 -0.4709418837675351,0.24037740144464104 -0.46693386773547096,0.24653113164118667 -0.46292585170340683,0.2513715791776717 -0.4589178356713427,0.2505354313425172 -0.45490981963927857,0.24636269686745293 -0.45090180360721444,0.2525055778041335 -0.4468937875751503,0.2540720261757109 -0.44288577154308617,0.25167360486758894 -0.43887775551102204,0.2576746139977415 -0.434869739478958,0.26182308673774884 -0.4308617234468939,0.2641356106365806 -0.42685370741482975,0.2649618600494511 -0.4228456913827656,0.268859822428688 -0.4188376753507015,0.27417269870912286 -0.41482965931863736,0.2771504981593338 -0.4108216432865732,0.2827617664763734 -0.4068136272545091,0.28243539041638643 -0.40280561122244496,0.28783220254043856 -0.3987975951903808,0.28154458797927706 -0.3947895791583167,0.2807420191338257 -0.39078156312625256,0.2862352212646665 -0.38677354709418843,0.27814704529391865 -0.3827655310621243,0.2831187284364378 -0.37875751503006017,0.28271987147042404 -0.37474949899799603,0.286911762692321 -0.3707414829659319,0.2876806560826646 -0.36673346693386777,0.291658606586916 -0.36272545090180364,0.29680438511564333 -0.3587174348697395,0.29925350793824324 -0.35470941883767537,0.30391959000241553 -0.35070140280561124,0.30888444528290016 -0.3466933867735471,0.2898866297291317 -0.342685370741483,0.28562922974034766 -0.33867735470941884,0.2910171465428999 -0.3346693386773547,0.2957539586518274 -0.3306613226452907,8.601694954993638e-2 -0.32665330661322656,4.640560597954019e-2 -0.3226452905811624,2.136049343326224e-2 -0.3186372745490983,3.140688881748588e-2 -0.31462925851703416,-2.283527723682177e-2 -0.31062124248497003,-9.648139513365628e-3 -0.3066132264529059,-1.8421231692853146e-2 -0.30260521042084176,-5.464479886875706e-3 -0.29859719438877763,6.386899223804698e-3 -0.2945891783567135,1.7028339427112016e-2 -0.29058116232464937,-7.01125353851848e-2 -0.28657314629258523,-0.1041888059125251 -0.2825651302605211,-0.11190016057055518 -0.27855711422845697,-9.769033988687592e-2 -0.27454909819639284,-0.11721655652631591 -0.2705410821643287,-0.11810573378764644 -0.2665330661322646,-0.11667705500553249 -0.26252505010020044,-0.1038937330535048 -0.2585170340681363,-9.328908504340028e-2 -0.2545090180360722,-8.348212754520268e-2 -0.25050100200400804,-0.11521602539299969 -0.2464929859719439,-0.10055435380758149 -0.24248496993987978,-9.466112514682434e-2 -0.23847695390781565,-0.11844527874996735 -0.23446893787575152,-0.10280092521793616 -0.2304609218436875,-9.177144848809848e-2 -0.22645290581162336,-9.136301432559357e-2 -0.22244488977955923,-7.735202974154742e-2 -0.2184368737474951,-8.944434665877898e-2 -0.21442885771543096,-0.10307747088939823 -0.21042084168336683,-9.071237182446223e-2 -0.2064128256513027,-7.785271005593974e-2 -0.20240480961923857,-9.533666601577995e-2 -0.19839679358717444,-8.24796550236474e-2 -0.1943887775551103,-0.12454743333560558 -0.19038076152304617,-0.10920958258987123 -0.18637274549098204,-0.1005088228348151 -0.1823647294589179,-9.650263999864306e-2 -0.17835671342685377,-0.18797663010122523 -0.17434869739478964,-0.17059863888186844 -0.1703406813627255,-0.19896609887812977 -0.16633266533066138,-0.18250304715958854 -0.16232464929859725,-0.16541217136486353 -0.1583166332665331,-0.1532259603890359 -0.15430861723446898,-0.13681727677131994 -0.15030060120240485,-0.15076418060409924 -0.14629258517034072,-0.16644250689787488 -0.14228456913827658,-0.1505322761929775 -0.13827655310621245,-0.14856101028158697 -0.13426853707414832,-0.1461286076780678 -0.1302605210420842,-0.1551227561519397 -0.12625250501002017,-0.18367306702690855 -0.12224448897795603,-0.3932804787799552 -0.1182364729458919,-0.38040423244747557 -0.11422845691382777,-0.35829297098835144 -0.11022044088176364,-0.3454732644505435 -0.1062124248496995,-0.3249400888730669 -0.10220440881763537,-0.34229211212907606 -9.819639278557124e-2,-0.41441053519581583 -9.418837675350711e-2,-0.395870878645628 -9.018036072144298e-2,-0.3807636434223456 -8.617234468937884e-2,-0.359855969928508 -8.216432865731471e-2,-0.339637429886154 -7.815631262525058e-2,-0.31838035205776627 -7.414829659318645e-2,-0.2997615133549034 -7.014028056112231e-2,-0.28848123515067536 -6.613226452905818e-2,-0.26879351088070713 -6.212424849699405e-2,-0.25335861634301127 -5.811623246492992e-2,-0.24645452636866583 -5.4108216432865786e-2,-0.24727921094470695 -5.010020040080165e-2,-0.2285636523323299 -4.609218436873752e-2,-0.21015518100812725 -4.208416833667339e-2,-0.19727826079791833 -3.8076152304609256e-2,-0.18664530756787556 -3.4068136272545124e-2,-0.16965722846021902 -3.0060120240480992e-2,-0.17252559369742548 -2.605210420841686e-2,-0.16025566759272936 -2.204408817635284e-2,-0.14359149088012302 -1.8036072144288706e-2,-0.12978069523084235 -1.4028056112224574e-2,-0.11460127515511553 -1.0020040080160442e-2,-0.10082547108871165 -6.012024048096309e-3,-9.821806375337883e-2 -2.004008016032177e-3,-8.310422285267527e-2 2.004008016031955e-3,-6.836697594648766e-2 6.012024048096087e-3,-6.824752754918917e-2 1.002004008016022e-2,-5.402516760998566e-2 1.4028056112224352e-2,-4.2211445384479296e-2 1.8036072144288484e-2,-3.792263680500352e-2 2.2044088176352616e-2,-2.433961812346397e-2 2.605210420841675e-2,-1.1071428916910153e-2 3.006012024048088e-2,-1.8065796954822577e-3 3.406813627254501e-2,8.294978441457712e-3 3.8076152304609145e-2,2.0674911363422532e-2 4.208416833667328e-2,3.1860189503124525e-2 4.609218436873741e-2,4.299315795507197e-2 5.010020040080154e-2,5.1847699915548495e-2 5.4108216432865675e-2,5.9241262313039944e-2 5.811623246492981e-2,6.605119907243956e-2 6.212424849699394e-2,7.610029510835625e-2 6.613226452905807e-2,7.802385263705458e-2 7.01402805611222e-2,7.69452567855688e-2 7.414829659318634e-2,8.667624470267865e-2 7.815631262525047e-2,6.839681266287073e-2 8.21643286573146e-2,7.882072822561248e-2 8.617234468937873e-2,8.469246497288513e-2 9.018036072144286e-2,9.442676589803584e-2 9.4188376753507e-2,0.10270335116772944 9.819639278557113e-2,0.11202760498517178 0.10220440881763526,0.12137183714982586 0.1062124248496994,0.12774563414191803 0.11022044088176353,0.12272738050376508 0.11422845691382766,6.724784956850127e-2 0.11823647294589179,7.785722353634966e-2 0.12224448897795592,8.248986642192119e-2 0.12625250501002006,8.845418944349204e-2 0.13026052104208397,9.764485047545779e-2 0.1342685370741481,0.10265157492767102 0.13827655310621223,9.657452453165238e-2 0.14228456913827636,0.10638511789135724 0.1462925851703405,0.11630075214983254 0.15030060120240463,0.12597945594784565 0.15430861723446876,0.13398646655038354 0.1583166332665329,0.14316585959977818 0.16232464929859702,0.141901075047075 0.16633266533066116,0.15020155523094264 0.1703406813627253,0.15870980773325993 0.17434869739478942,0.16255120928231465 0.17835671342685355,0.17016439849887943 0.18236472945891768,0.17832378772789087 0.18637274549098182,0.18380991582873596 0.19038076152304595,0.19180015718211285 0.19438877755511008,0.19958690483833358 0.1983967935871742,0.1959663823533565 0.20240480961923835,0.20069382635984767 0.20641282565130248,0.20758258643568062 0.2104208416833666,0.2127360995579638 0.21442885771543074,0.21996200344303474 0.21843687374749488,0.22698182268402406 0.222444889779559,0.2163070634789756 0.22645290581162314,0.22134302176437726 0.23046092184368727,0.2122974920368046 0.2344689378757514,0.21254722750955474 0.23847695390781554,0.15998364479903965 0.24248496993987967,0.16804360939081747 0.2464929859719438,0.17470865572244032 0.25050100200400793,0.18023841169816796 0.25450901803607207,8.947153038776362e-2 0.2585170340681362,8.771929846725585e-2 0.26252505010020033,9.196676646239571e-2 0.26653306613226446,8.983716059995539e-2 0.2705410821643286,9.497537879532664e-2 0.2745490981963927,9.876568112489681e-2 0.27855711422845686,9.687237062296461e-2 0.282565130260521,0.1059312032883894 0.2865731462925851,9.503111170637074e-2 0.29058116232464926,0.1045911240249871 0.2945891783567134,0.10552316427336106 0.2985971943887775,0.11024294356136327 0.30260521042084165,0.11824070371846879 0.3066132264529058,0.10527715605780597 0.3106212424849699,0.11512661613931097 0.31462925851703405,4.85212154321521e-2 0.3186372745490982,4.957009128846834e-2 0.3226452905811623,5.5520247413808566e-2 0.32665330661322645,5.225620458392438e-2 0.3306613226452906,6.1350249371772636e-2 0.3346693386773545,7.227766114857365e-2 0.3386773547094186,8.201668195197226e-2 0.34268537074148275,9.0821427222187e-2 0.3466933867735469,0.10034016937453955 0.350701402805611,0.11044750354496735 0.35470941883767515,0.10782506272355935 0.3587174348697393,0.11721317108022222 0.3627254509018034,0.11629799308519079 0.36673346693386755,0.12470204989427225 0.3707414829659317,0.13254000773749158 0.3747494989979958,0.12281822327216163 0.37875751503005994,0.13172031918226978 0.3827655310621241,0.1394116341362056 0.3867735470941882,0.14448580899354213 0.39078156312625234,0.14616765848828278 0.3947895791583165,0.15472792075408648 0.3987975951903806,0.1568283682060117 0.40280561122244474,0.16323374000351032 0.40681362725450887,0.1643127622225667 0.410821643286573,0.17281214451968568 0.41482965931863713,0.17917246757818245 0.41883767535070127,0.1871618071609989 0.4228456913827654,0.19318654012397785 0.42685370741482953,0.20052980228523287 0.43086172344689366,0.20311748052558531 0.4348697394789578,0.1981908698241629 0.4388777555110219,0.20441773880770042 0.44288577154308606,0.2012569075255496 0.4468937875751502,0.20789739706464982 0.4509018036072143,0.20782575855441487 0.45490981963927846,0.2125713450703634 0.4589178356713426,0.21088004223837464 0.4629258517034067,0.20967909827456588 0.46693386773547085,0.2152820631884207 0.470941883767535,0.2195604610910934 0.4749498997995991,0.19751391030281884 0.47895791583166325,0.18792647044662275 0.4829659318637274,0.18590227325668346 0.4869739478957915,5.409949044052775e-2 0.49098196392785565,3.604813059323847e-2 0.4949899799599198,4.7276494428665716e-2 0.4989979959919839,9.235342414109171e-3 0.503006012024048,1.6443954618406698e-2 0.5070140280561122,1.1082854253325725e-2 0.5110220440881763,-7.723131917343196e-3 0.5150300601202404,-8.996777479998685e-2 0.5190380761523046,-7.683952235785318e-2 0.5230460921843687,-8.814201651226505e-2 0.5270541082164328,-8.98741542778545e-2 0.531062124248497,-8.127837731779464e-2 0.5350701402805611,-7.442876002512777e-2 0.539078156312625,-5.99062247333374e-2 0.5430861723446891,-0.11599559309755791 0.5470941883767533,-0.11518814089736928 0.5511022044088174,-0.1002015905887742 0.5551102204408815,-9.055416153146845e-2 0.5591182364729457,-9.310460071294724e-2 0.5631262525050098,-7.811293092427962e-2 0.5671342685370739,-6.87424722630553e-2 0.5711422845691381,-6.70942604135577e-2 0.5751503006012022,-6.944896037209813e-2 0.5791583166332663,-5.503081625000927e-2 0.5831663326653305,-4.110438064783184e-2 0.5871743486973946,-2.7444755041840074e-2 0.5911823647294587,-1.866054659288674e-2 0.5951903807615229,-5.851745324885527e-3 0.599198396793587,6.464768968961532e-3 0.6032064128256511,1.6645898616286958e-2 0.6072144288577153,2.8562426615517778e-2 0.6112224448897794,4.043318011488617e-2 0.6152304609218435,5.193627817603963e-2 0.6192384769539077,5.8604870963117006e-2 0.6232464929859718,6.969815530237405e-2 0.6272545090180359,6.904925117984578e-2 0.6312625250501,7.497949512208085e-2 0.6352705410821642,8.452499387397544e-2 0.6392785571142283,9.036160549139954e-2 0.6432865731462925,9.706156638386526e-2 0.6472945891783566,8.381976298031174e-2 0.6513026052104207,5.066335138750433e-2 0.6553106212424848,5.081969016267357e-2 0.659318637274549,3.3150600269197916e-2 0.6633266533066131,4.2366631102595365e-2 0.6673346693386772,2.3254691331530963e-2 0.6713426853707414,2.2536416683108573e-2 0.6753507014028055,2.8588195645790737e-2 0.6793587174348696,2.5033427950918896e-2 0.6833667334669338,3.665417380961872e-2 0.6873747494989979,3.6416816851405076e-2 0.691382765531062,4.7137944367127316e-2 0.6953907815631262,5.800271564055953e-2 0.6993987975951903,6.619162289097602e-2 0.7034068136272544,7.158056502769017e-2 0.7074148296593186,7.967633727212986e-2 0.7114228456913827,8.959788174095207e-2 0.7154308617234468,9.9777313036232e-2 0.719438877755511,0.10827528297047306 0.7234468937875751,0.11489026951209103 0.7274549098196392,0.12400266811570332 0.7314629258517034,0.13276035132230313 0.7354709418837675,0.13912663476639403 0.7394789579158316,0.13587835614004684 0.7434869739478958,0.14422174444913882 0.7474949899799597,0.15197689505283873 0.7515030060120238,0.16070716753656678 0.7555110220440879,0.16895928679919575 0.7595190380761521,0.17710375032848008 0.7635270541082162,0.18305249915822275 0.7675350701402803,0.1910649986603835 0.7715430861723445,0.19881474694842532 0.7755511022044086,0.20639973540982642 0.7795591182364727,0.2054563426789729 0.7835671342685369,0.21267213273566998 0.787575150300601,0.21899249175795166 0.7915831663326651,0.2203329870880718 0.7955911823647293,0.22577231874170328 0.7995991983967934,0.23242517649439653 0.8036072144288575,0.23005359633033717 0.8076152304609217,0.2367486943174571 0.8116232464929858,0.24170652127980574 0.8156312625250499,0.24095639096835608 0.819639278557114,0.2251362013766528 0.8236472945891782,0.22002600502662922 0.8276553106212423,0.2197066249335144 0.8316633266533064,0.22667284625092593 0.8356713426853706,0.21854387085874982 0.8396793587174347,0.22161242849333956 0.8436873747494988,0.22773574222244947 0.847695390781563,0.23369470327276898 0.8517034068136271,0.22761677984941137 0.8557114228456912,0.2341551143454303 0.8597194388777554,0.23316883559763713 0.8637274549098195,0.239578322701412 0.8677354709418836,0.24529444737274853 0.8717434869739478,0.24954351557469412 0.8757515030060119,0.25313675094045407 0.879759519038076,0.25920316950859773 0.8837675350701402,0.2644055687964456 0.8877755511022043,0.2671851638865068 0.8917835671342684,0.27229394628608655 0.8957915831663326,0.26356557034179207 0.8997995991983967,0.26886574417444187 0.9038076152304608,0.26231432195451204 0.907815631262525,0.2491758052911095 0.9118236472945891,0.25432125571602027 0.9158316633266532,0.25617623457544547 0.9198396793587174,0.25896619145453265 0.9238476953907815,0.2582001936577956 0.9278557114228456,0.25926687179558683 0.9318637274549098,0.2577400308456302 0.9358717434869739,0.26129471758565836 0.939879759519038,0.2673105504688964 0.9438877755511021,0.26147212894006844 0.9478957915831663,0.26652899419620907 0.9519038076152302,0.2668797689486313 0.9559118236472943,0.27222015377203823 0.9599198396793585,0.2779087706263619 0.9639278557114226,0.2539208866038982 0.9679358717434867,0.1971046270587294 0.9719438877755509,0.18630092322474556 0.975951903807615,0.19373191282102026 0.9799599198396791,0.2002919374232766 0.9839679358717432,0.1440563680949456 0.9879759519038074,0.14391188813193406 0.9919839679358715,0.11803766292436169 0.9959919839679356,0.11140084230312391 0.9999999999999998,0.12070797589510612" /></g><g stroke-width="5.0e-3" stroke="#382A8C" fill="none" stroke-opacity="0.5"><polyline points="-1.0,0.10172149578078604 -0.9959919839679359,0.10356534976309345 -0.9919839679358717,0.10037206046375124 -0.9879759519038076,9.831806539783394e-2 -0.9839679358717435,0.10032889508124077 -0.9799599198396793,0.10101148771676877 -0.9759519038076152,0.10185010853418358 -0.9719438877755511,0.10383987710902692 -0.9679358717434869,9.848563821774797e-2 -0.9639278557114228,9.677093794128394e-2 -0.9599198396793587,9.313403945623877e-2 -0.9559118236472945,9.092118412051092e-2 -0.9519038076152304,8.708652352518848e-2 -0.9478957915831663,8.850572609533075e-2 -0.9438877755511023,8.72397368718083e-2 -0.9398797595190381,8.917911217449076e-2 -0.935871743486974,9.120397917535489e-2 -0.9318637274549099,9.279489903680788e-2 -0.9278557114228457,8.648590200633882e-2 -0.9238476953907816,8.843214933852356e-2 -0.9198396793587175,8.895759144075288e-2 -0.9158316633266533,8.977064852539801e-2 -0.9118236472945892,9.176732633173929e-2 -0.9078156312625251,9.377703256676367e-2 -0.9038076152304609,8.905139874818235e-2 -0.8997995991983968,9.108025820344035e-2 -0.8957915831663327,9.296580056704673e-2 -0.8917835671342685,7.494296673809409e-2 -0.8877755511022044,6.389731867083209e-2 -0.8837675350701403,4.6041752001376834e-2 -0.8797595190380761,3.9835859035002974e-2 -0.875751503006012,4.1900277915456974e-2 -0.8717434869739479,3.917823655443198e-2 -0.8677354709418837,2.7702133937021978e-2 -0.8637274549098196,2.591751163462097e-2 -0.8597194388777555,2.4883180084079415e-2 -0.8557114228456915,2.610928379479055e-2 -0.8517034068136273,1.5469451488803077e-2 -0.8476953907815632,1.761922876757427e-2 -0.8436873747494991,1.305005511701629e-2 -0.8396793587174349,1.4640508767302107e-2 -0.8356713426853708,1.541874715369751e-2 -0.8316633266533067,1.7593850099969888e-2 -0.8276553106212425,1.842460078205288e-2 -0.8236472945891784,1.8104694160737178e-2 -0.8196392785571143,2.0515537963248176e-2 -0.8156312625250501,2.193836309346353e-2 -0.811623246492986,2.2268774892673593e-2 -0.8076152304609219,2.4662368403960744e-2 -0.8036072144288577,2.2139920647473943e-2 -0.7995991983967936,2.4458567289450006e-2 -0.7955911823647295,2.4105643799195164e-2 -0.7915831663326653,2.6471118223243495e-2 -0.7875751503006012,2.696476651999885e-2 -0.7835671342685371,2.9186598918202467e-2 -0.779559118236473,3.009498339843225e-2 -0.7755511022044088,3.230193847872548e-2 -0.7715430861723447,3.041611108703579e-2 -0.7675350701402806,3.249251799417535e-2 -0.7635270541082164,3.482892211957056e-2 -0.7595190380761523,3.480749641971709e-2 -0.7555110220440882,3.498319413456491e-2 -0.751503006012024,3.72703075511428e-2 -0.7474949899799599,3.9584468863974875e-2 -0.7434869739478958,4.0451457804719426e-2 -0.7394789579158316,4.2388214471318075e-2 -0.7354709418837675,4.463863977498228e-2 -0.7314629258517034,4.6670440021703896e-2 -0.7274549098196392,4.760222060290753e-2 -0.7234468937875751,4.951868374039964e-2 -0.719438877755511,5.155338728483033e-2 -0.7154308617234469,5.363451483168852e-2 -0.7114228456913828,5.565937909441676e-2 -0.7074148296593187,5.387001127787078e-2 -0.7034068136272545,5.186674606345543e-2 -0.6993987975951904,5.2643897070278e-2 -0.6953907815631263,5.184013785114483e-2 -0.6913827655310621,5.362951837265406e-2 -0.687374749498998,5.58652174142405e-2 -0.6833667334669339,5.6268138886620966e-2 -0.6793587174348698,5.844867250331742e-2 -0.6753507014028056,6.0471710727852845e-2 -0.6713426853707415,6.266721068230718e-2 -0.6673346693386774,6.481917067568443e-2 -0.6633266533066133,6.639645731488059e-2 -0.6593186372745492,6.846090432785468e-2 -0.6553106212424851,7.055425150009187e-2 -0.6513026052104209,7.250336326720813e-2 -0.6472945891783568,7.405019568696836e-2 -0.6432865731462927,7.613896375998352e-2 -0.6392785571142285,7.689726538579683e-2 -0.6352705410821644,7.89550172047418e-2 -0.6312625250501003,7.512642994411617e-2 -0.6272545090180361,7.714660051714578e-2 -0.623246492985972,7.692789777663012e-2 -0.6192384769539079,7.800492086450728e-2 -0.6152304609218437,8.01128062180218e-2 -0.6112224448897796,8.198520123581599e-2 -0.6072144288577155,8.326126653189675e-2 -0.6032064128256514,8.327653514367583e-2 -0.5991983967935872,8.340015142779794e-2 -0.5951903807615231,8.339628069343569e-2 -0.591182364729459,8.521934287724248e-2 -0.5871743486973948,8.555390177280842e-2 -0.5831663326653307,8.558339824061584e-2 -0.5791583166332666,8.765140552447193e-2 -0.5751503006012024,8.964523811708325e-2 -0.5711422845691383,9.134088514333344e-2 -0.5671342685370742,9.3310322104805e-2 -0.56312625250501,9.472345935130466e-2 -0.5591182364729459,9.668891068006474e-2 -0.5551102204408818,9.865573184808485e-2 -0.5511022044088176,0.1001073722825555 -0.5470941883767535,9.987037618195943e-2 -0.5430861723446894,0.1014550956493977 -0.5390781563126252,0.10184230661978916 -0.5350701402805611,0.10259779370583633 -0.531062124248497,0.10398422265779228 -0.5270541082164328,0.10589312395744033 -0.5230460921843687,0.10725434649071469 -0.5190380761523046,0.10869401001611917 -0.5150300601202404,0.11037966658245135 -0.5110220440881764,0.11217749800920479 -0.5070140280561123,0.11409552312525895 -0.5030060120240482,0.11589168320429949 -0.498997995991984,0.11587870406505452 -0.4949899799599199,0.11713611718073313 -0.49098196392785576,0.11793213151464244 -0.4869739478957916,0.11767807963472787 -0.4829659318637275,0.1178045543658024 -0.47895791583166336,0.11946863818347808 -0.47494989979959923,0.12126287125508461 -0.4709418837675351,0.12308900953390195 -0.46693386773547096,0.12494559611030986 -0.46292585170340683,0.12665322500699322 -0.4589178356713427,0.12747577216836792 -0.45490981963927857,0.1277011998905373 -0.45090180360721444,0.12956143105449774 -0.4468937875751503,0.130580353148313 -0.44288577154308617,0.13153092004458422 -0.43887775551102204,0.1333676673844219 -0.434869739478958,0.13502050851120456 -0.4308617234468939,0.13644152987337366 -0.42685370741482975,0.13763763568133813 -0.4228456913827656,0.13918607837037955 -0.4188376753507015,0.14093229653784312 -0.41482965931863736,0.14238452108659694 -0.4108216432865732,0.14417510103655828 -0.4068136272545091,0.14519561170489564 -0.40280561122244496,0.14696942774001232 -0.3987975951903808,0.14737785359979655 -0.3947895791583167,0.14834031702444478 -0.39078156312625256,0.15008897965598456 -0.38677354709418843,0.15001452403852855 -0.3827655310621243,0.15172825298304576 -0.37875751503006017,0.15284117860215035 -0.37474949899799603,0.1544446594273342 -0.3707414829659319,0.15562341624049536 -0.36673346693386777,0.15717947756898698 -0.36272545090180364,0.15888406479807587 -0.3587174348697395,0.16025928976031212 -0.35470941883767537,0.16192332923178704 -0.35070140280561124,0.16361768092315881 -0.3466933867735471,0.1624345451429997 -0.342685370741483,0.16276731845491532 -0.33867735470941884,0.16442972879676282 -0.3346693386773547,0.16597996188370184 -0.3306613226452907,0.127390810448264 -0.32665330661322656,0.11495774983347312 -0.3226452905811624,0.11042410809174236 -0.3186372745490983,0.11124247348152544 -0.31462925851703416,9.895920066255337e-2 -0.31062124248497003,0.10096319814920035 -0.3066132264529059,9.629516168604663e-2 -0.30260521042084176,9.831368165348281e-2 -0.29859719438877763,9.974185297038568e-2 -0.2945891783567135,0.10080104249323524 -0.29058116232464937,7.338289759226357e-2 -0.28657314629258523,6.531294724040748e-2 -0.2825651302605211,5.9015197453959445e-2 -0.27855711422845697,6.0133958272604704e-2 -0.27454909819639284,5.519182365021125e-2 -0.2705410821643287,5.40196201787313e-2 -0.2665330661322646,5.310301268956147e-2 -0.26252505010020044,5.424151558600254e-2 -0.2585170340681363,5.5573794957583245e-2 -0.2545090180360722,5.669665978532795e-2 -0.25050100200400804,4.674735294124854e-2 -0.2464929859719439,4.881376423205469e-2 -0.24248496993987978,4.862588020605679e-2 -0.23847695390781565,3.9997026716404815e-2 -0.23446893787575152,4.225085504930387e-2 -0.2304609218436875,4.302536134296242e-2 -0.22645290581162336,4.2197000832339016e-2 -0.22244488977955923,4.434820505758463e-2 -0.2184368737474951,3.905738158244909e-2 -0.21442885771543096,3.2615987927622325e-2 -0.21042084168336683,3.464361638638186e-2 -0.2064128256513027,3.594754040739423e-2 -0.20240480961923857,3.159389345035701e-2 -0.19839679358717444,3.361125314676894e-2 -0.1943887775551103,2.2108084367609637e-2 -0.19038076152304617,2.4380138622686565e-2 -0.18637274549098204,2.502318883298682e-2 -0.1823647294589179,2.4342794702402193e-2 -0.17835671342685377,-1.0381141438678965e-3 -0.17434869739478964,1.427917880002072e-3 -0.1703406813627255,-9.563646116525493e-3 -0.16633266533066138,-7.125243608642529e-3 -0.16232464929859725,-4.583284985022251e-3 -0.1583166332665331,-2.88268188143459e-3 -0.15430861723446898,-3.624198100328213e-4 -0.15030060120240485,-6.687856774743595e-3 -0.14629258517034072,-1.4327363723190767e-2 -0.14228456913827658,-1.1765394140787588e-2 -0.13827655310621245,-1.4491141979916744e-2 -0.13426853707414832,-1.7342725016293747e-2 -0.1302605210420842,-2.4073640825791776e-2 -0.12625250501002017,-3.7573129463994825e-2 -0.12224448897795603,-8.964678048613106e-2 -0.1182364729458919,-8.859498527049692e-2 -0.11422845691382777,-8.564728524102327e-2 -0.11022044088176364,-8.456418336878102e-2 -0.1062124248496995,-8.172471242131985e-2 -0.10220440881763537,-9.129059741173273e-2 -9.819639278557124e-2,-0.11324127083332991 -9.418837675350711e-2,-0.111355437633887 -9.018036072144298e-2,-0.11042192111409466 -8.617234468937884e-2,-0.1077897894365546 -8.216432865731471e-2,-0.10524539148042167 -7.815631262525058e-2,-0.10221285354001175 -7.414829659318645e-2,-9.968520736522224e-2 -7.014028056112231e-2,-9.923281542113271e-2 -6.613226452905818e-2,-9.636426268887444e-2 -6.212424849699405e-2,-9.466509710408977e-2 -5.811623246492992e-2,-9.538627084483187e-2 -5.4108216432865786e-2,-9.657776593172474e-2 -5.010020040080165e-2,-9.371117994910894e-2 -4.609218436873752e-2,-9.078791522115792e-2 -4.208416833667339e-2,-8.93992947173523e-2 -3.8076152304609256e-2,-8.771684242491828e-2 -3.4068136272545124e-2,-8.480500011322578e-2 -3.0060120240480992e-2,-8.704604483836043e-2 -2.605210420841686e-2,-8.566990898542559e-2 -2.204408817635284e-2,-8.274976141358426e-2 -1.8036072144288706e-2,-8.078670901224827e-2 -1.4028056112224574e-2,-7.83244211773233e-2 -1.0020040080160442e-2,-7.554841730713902e-2 -6.012024048096309e-3,-7.462716502353817e-2 -2.004008016032177e-3,-7.175544670429079e-2 2.004008016031955e-3,-6.889891175209761e-2 6.012024048096087e-3,-6.959051355800305e-2 1.002004008016022e-2,-6.691084303364792e-2 1.4028056112224352e-2,-6.424961975424803e-2 1.8036072144288484e-2,-6.390912493150258e-2 2.2044088176352616e-2,-6.111462061703221e-2 2.605210420841675e-2,-5.8350072694280386e-2 3.006012024048088e-2,-5.588141479716491e-2 3.406813627254501e-2,-5.3930110653891083e-2 3.8076152304609145e-2,-5.117132484195097e-2 4.208416833667328e-2,-4.843785906840681e-2 4.609218436873741e-2,-4.5706414568395415e-2 5.010020040080154e-2,-4.319832314921157e-2 5.4108216432865675e-2,-4.14642581514284e-2 5.811623246492981e-2,-3.916507997780472e-2 6.212424849699394e-2,-3.651115600853472e-2 6.613226452905807e-2,-3.490895593858523e-2 7.01402805611222e-2,-3.386435951219979e-2 7.414829659318634e-2,-3.131021381397947e-2 7.815631262525047e-2,-3.349831220675914e-2 8.21643286573146e-2,-3.0990795617765188e-2 8.617234468937873e-2,-2.9355884796655296e-2 9.018036072144286e-2,-2.673836270034291e-2 9.4188376753507e-2,-2.460114589025897e-2 9.819639278557113e-2,-2.2229265742766402e-2 0.10220440881763526,-1.9619167034545915e-2 0.1062124248496994,-1.7287546059825742e-2 0.11022044088176353,-1.7288008592613147e-2 0.11422845691382766,-2.3902102795849145e-2 0.11823647294589179,-2.1306971117428963e-2 0.12224448897795592,-1.981732785422019e-2 0.12625250501002006,-1.7813120641290592e-2 0.13026052104208397,-1.5474840510933174e-2 0.1342685370741481,-1.3868862059815412e-2 0.13827655310621223,-1.4264393954458665e-2 0.14228456913827636,-1.1692649290066748e-2 0.1462925851703405,-9.192646459997733e-3 0.15030060120240463,-6.699269107779071e-3 0.15430861723446876,-4.568184874348846e-3 0.1583166332665329,-2.0442685347048517e-3 0.16232464929859702,-6.304543146299357e-4 0.16633266533066116,1.6629587935703127e-3 0.1703406813627253,4.154309513686616e-3 0.17434869739478942,5.725378503465217e-3 0.17835671342685355,8.164458808272268e-3 0.18236472945891768,1.0629629052885892e-2 0.18637274549098182,1.287324371193832e-2 0.19038076152304595,1.5288831793451307e-2 0.19438877755511008,1.7713602056959266e-2 0.1983967935871742,1.8390772884695095e-2 0.20240480961923835,2.0594215592374066e-2 0.20641282565130248,2.2971184978362758e-2 0.2104208416833666,2.4934705938530755e-2 0.21442885771543074,2.7311667713641574e-2 0.21843687374749488,2.967894386193537e-2 0.222444889779559,3.026106872651041e-2 0.22645290581162314,3.242050001230301e-2 0.23046092184368727,3.2600234010626894e-2 0.2344689378757514,3.424248262689472e-2 0.23847695390781554,2.8697861412023573e-2 0.24248496993987967,3.0951017360580646e-2 0.2464929859719438,3.298957741787756e-2 0.25050100200400793,3.503354014308546e-2 0.25450901803607207,2.115214906653462e-2 0.2585170340681362,2.196455964151167e-2 0.26252505010020033,2.354987322772134e-2 0.26653306613226446,2.402779969217539e-2 0.2705410821643286,2.539959508277828e-2 0.2745490981963927,2.6463676895265797e-2 0.27855711422845686,2.7068232293845473e-2 0.282565130260521,2.91770046095709e-2 0.2865731462925851,2.7569345443928583e-2 0.29058116232464926,2.9900800281247475e-2 0.2945891783567134,3.0306459190947044e-2 0.2985971943887775,3.135224256818242e-2 0.30260521042084165,3.3587909755222634e-2 0.3066132264529058,3.120985620581157e-2 0.3106212424849699,3.336848219286592e-2 0.31462925851703405,2.3749839773116233e-2 0.3186372745490982,2.4457561606397005e-2 0.3226452905811623,2.592106960937035e-2 0.32665330661322645,2.5575164546325746e-2 0.3306613226452906,2.7467545151591943e-2 0.3346693386773545,2.9821856097179966e-2 0.3386773547094186,3.2023875136356184e-2 0.34268537074148275,3.3999280279756794e-2 0.3466933867735469,3.622781231256145e-2 0.350701402805611,3.8544126942648305e-2 0.35470941883767515,3.853579677618446e-2 0.3587174348697393,4.067919473622866e-2 0.3627254509018034,4.0826647295629126e-2 0.36673346693386755,4.303603934921757e-2 0.3707414829659317,4.51825909642235e-2 0.3747494989979958,4.4689183648636666e-2 0.37875751503005994,4.689456333469816e-2 0.3827655310621241,4.885053826358832e-2 0.3867735470941882,5.034386313215361e-2 0.39078156312625234,5.119389079513087e-2 0.3947895791583165,5.329191527001076e-2 0.3987975951903806,5.415512926945182e-2 0.40280561122244474,5.621763054181195e-2 0.40681362725450887,5.759501134283029e-2 0.410821643286573,5.9801168327096754e-2 0.41482965931863713,6.1579063892707064e-2 0.41883767535070127,6.37004751138821e-2 0.4228456913827654,6.544301427289312e-2 0.42685370741482953,6.761341078875016e-2 0.43086172344689366,6.929661193044911e-2 0.4348697394789578,6.995873170894618e-2 0.4388777555110219,7.185509200903512e-2 0.44288577154308606,7.265730733560644e-2 0.4468937875751502,7.464790133745086e-2 0.4509018036072143,7.563632537097453e-2 0.45490981963927846,7.72833145797514e-2 0.4589178356713426,7.836353777899491e-2 0.4629258517034067,7.913474684035804e-2 0.46693386773547085,8.108882011567292e-2 0.470941883767535,8.287784908152485e-2 0.4749498997995991,8.099838755323135e-2 0.47895791583166325,8.040271785230502e-2 0.4829659318637274,8.074315985024638e-2 0.4869739478957915,5.599747308010944e-2 0.49098196392785565,5.358214804489225e-2 0.4949899799599198,5.580948529303792e-2 0.4989979959919839,4.8630031049666345e-2 0.503006012024048,4.9549884534457966e-2 0.5070140280561122,4.739640013360802e-2 0.5110220440881763,4.3631141389245065e-2 0.5150300601202404,2.1974093674922535e-2 0.5190380761523046,2.4212509034535257e-2 0.5230460921843687,2.128215971373859e-2 0.5270541082164328,2.0037215014269694e-2 0.531062124248497,2.0690489174172544e-2 0.5350701402805611,2.1431068756455784e-2 0.539078156312625,2.381373875029935e-2 0.5430861723446891,8.115298191439246e-3 0.5470941883767533,7.5784693534867165e-3 0.5511022044088174,9.767280285337743e-3 0.5551102204408815,1.1173926778462961e-2 0.5591182364729457,9.691412931880805e-3 0.5631262525050098,1.2145675288004365e-2 0.5671342685370739,1.3270896130965881e-2 0.5711422845691381,1.2859966336676354e-2 0.5751503006012022,1.1256201204191019e-2 0.5791583166332663,1.370038398908946e-2 0.5831663326653305,1.6130626211064092e-2 0.5871743486973946,1.8555711915605344e-2 0.5911823647294587,1.9787271205683854e-2 0.5951903807615229,2.2048762727212234e-2 0.599198396793587,2.4403724004127936e-2 0.6032064128256511,2.643836358038182e-2 0.6072144288577153,2.8696312944918145e-2 0.6112224448897794,3.105810362533784e-2 0.6152304609218435,3.3402647664235174e-2 0.6192384769539077,3.496468113008966e-2 0.6232464929859718,3.728801608745208e-2 0.6272545090180359,3.748999319364443e-2 0.6312625250501,3.890623559891804e-2 0.6352705410821642,4.100080644154669e-2 0.6392785571142283,4.242050784042789e-2 0.6432865731462925,4.4109650819225854e-2 0.6472945891783566,4.201663554653451e-2 0.6513026052104207,3.530384852369878e-2 0.6553106212424848,3.5971803915651246e-2 0.659318637274549,3.308627470800585e-2 0.6633266533066131,3.4823156500109254e-2 0.6673346693386772,3.04368298866875e-2 0.6713426853707414,3.065153919859631e-2 0.6753507014028055,3.197393373599594e-2 0.6793587174348696,3.1309532344940216e-2 0.6833667334669338,3.3580958260810534e-2 0.6873747494989979,3.346886447033104e-2 0.691382765531062,3.565309435086417e-2 0.6953907815631262,3.782913058820264e-2 0.6993987975951903,3.964125944103669e-2 0.7034068136272544,4.081323171381884e-2 0.7074148296593186,4.26816204685882e-2 0.7114228456913827,4.480974503057422e-2 0.7154308617234468,4.702925142060688e-2 0.719438877755511,4.893631719007152e-2 0.7234468937875751,5.04795297385352e-2 0.7274549098196392,5.2682694402762686e-2 0.7314629258517034,5.471486089003291e-2 0.7354709418837675,5.659418509253339e-2 0.7394789579158316,5.648751562184323e-2 0.7434869739478958,5.843866611773629e-2 0.7474949899799597,6.0560767699932294e-2 0.7515030060120238,6.276316264213966e-2 0.7555110220440879,6.48258421368903e-2 0.7595190380761521,6.689969261368467e-2 0.7635270541082162,6.88762882580452e-2 0.7675350701402803,7.101117424563735e-2 0.7715430861723445,7.316127074425216e-2 0.7755511022044086,7.529948086897831e-2 0.7795591182364727,7.597852901845314e-2 0.7835671342685369,7.810288964930562e-2 0.787575150300601,8.016898538997136e-2 0.7915831663326651,8.168906806168968e-2 0.7955911823647293,8.363948187014891e-2 0.7995991983967934,8.565386227772659e-2 0.8036072144288575,8.632444883143559e-2 0.8076152304609217,8.833073325894447e-2 0.8116232464929858,9.00340380633255e-2 0.8156312625250499,9.140053366752143e-2 0.819639278557114,9.078642379873436e-2 0.8236472945891782,9.123641530187987e-2 0.8276553106212423,9.22732538017823e-2 0.8316633266533064,9.429181447444779e-2 0.8356713426853706,9.411926605496151e-2 0.8396793587174347,9.5699311431097e-2 0.8436873747494988,9.763241025542141e-2 0.847695390781563,9.948927458104323e-2 0.8517034068136271,9.956956612781803e-2 0.8557114228456912,0.10156332489504932 0.8597194388777554,0.10228441235525643 0.8637274549098195,0.10427159274020975 0.8677354709418836,0.10620879077517736 0.8717434869739478,0.10775552579383701 0.8757515030060119,0.10918249660661156 0.879759519038076,0.11114148473539887 0.8837675350701402,0.1130557755510268 0.8877755511022043,0.11440795385483576 0.8917835671342684,0.11631760318763001 0.8957915831663326,0.11680123979388307 0.8997995991983967,0.11857404889068601 0.9038076152304608,0.11864819563804291 0.907815631262525,0.1184846405454652 0.9118236472945891,0.12015865577677665 0.9158316633266532,0.12162499774348934 0.9198396793587174,0.12297558260374575 0.9238476953907815,0.12376526675843175 0.9278557114228456,0.12518136107980332 0.9318637274549098,0.12583637726519292 0.9358717434869739,0.12751233813974167 0.939879759519038,0.12934880615345035 0.9438877755511021,0.1293679323665104 0.9478957915831663,0.13095123624654448 0.9519038076152302,0.13234546492485422 0.9559118236472943,0.134171930347806 0.9599198396793585,0.13600478059928167 0.9639278557114226,0.13438507034971314 0.9679358717434867,0.1268116518430084 0.9719438877755509,0.1258165256401414 0.975951903807615,0.1275991589129576 0.9799599198396791,0.1292828956504124 0.9839679358717432,0.11961861953437358 0.9879759519038074,0.12010236572162841 0.9919839679358715,0.11548200422836363 0.9959919839679356,0.11395699586727931 0.9999999999999998,0.11570908088438486" /></g><g stroke-width="5.0e-3" stroke="#02C814" fill="none" stroke-opacity="0.5"><polyline points="-1.0,0.13832646617182026 -0.9959919839679359,0.13898773333026138 -0.9919839679358717,0.1374427006042122 -0.9879759519038076,0.13636511812249674 -0.9839679358717435,0.1370925219770831 -0.9799599198396793,0.13724938167156175 -0.9759519038076152,0.13746968657562736 -0.9719438877755511,0.1381927801876187 -0.9679358717434869,0.13567404917539982 -0.9639278557114228,0.13472145250082523 -0.9599198396793587,0.13299831039186333 -0.9559118236472945,0.13186305433726664 -0.9519038076152304,0.1299710781701221 -0.9478957915831663,0.130429488584984 -0.9438877755511023,0.12969180096647676 -0.9398797595190381,0.1303741147095972 -0.935871743486974,0.1310996623881321 -0.9318637274549099,0.1316317942222177 -0.9278557114228457,0.1286250620827234 -0.9238476953907816,0.1293198811259541 -0.9198396793587175,0.12940203007898254 -0.9158316633266533,0.12960417960476944 -0.9118236472945892,0.13032116720230902 -0.9078156312625251,0.13104373036848804 -0.9038076152304609,0.1288027879972461 -0.8997995991983968,0.1295331883749969 -0.8957915831663327,0.13020005182334338 -0.8917835671342685,0.12193779505889751 -0.8877755511022044,0.11659302065137706 -0.8837675350701403,0.10833858888305975 -0.8797595190380761,0.10508652842455174 -0.875751503006012,0.1057423124395181 -0.8717434869739479,0.10428474730172205 -0.8677354709418837,9.847478191355241e-2 -0.8637274549098196,9.742059738047909e-2 -0.8597194388777555,9.668666769856127e-2 -0.8557114228456915,9.69794766463068e-2 -0.8517034068136273,9.152350288192296e-2 -0.8476953907815632,9.223079337486806e-2 -0.8436873747494991,8.98272510987621e-2 -0.8396793587174349,9.021922276530331e-2 -0.8356713426853708,9.029178314824121e-2 -0.8316633266533067,9.097949533220939e-2 -0.8276553106212425,9.107914880853568e-2 -0.8236472945891784,9.063529904482648e-2 -0.8196392785571143,9.145322797458272e-2 -0.8156312625250501,9.180032786368941e-2 -0.811623246492986,9.162501912945664e-2 -0.8076152304609219,9.244108470619178e-2 -0.8036072144288577,9.090624903332406e-2 -0.7995991983967936,9.169834561418277e-2 -0.7955911823647295,9.128955949012041e-2 -0.7915831663326653,9.210152373495989e-2 -0.7875751503006012,9.201013070489761e-2 -0.7835671342685371,9.27687345037887e-2 -0.779559118236473,9.287591714903531e-2 -0.7755511022044088,9.360820057043417e-2 -0.7715430861723447,9.253895885180513e-2 -0.7675350701402806,9.323928826243222e-2 -0.7635270541082164,9.404828278455962e-2 -0.7595190380761523,9.381196542146975e-2 -0.7555110220440882,9.365356846423928e-2 -0.751503006012024,9.444813349793069e-2 -0.7474949899799599,9.52579412592573e-2 -0.7434869739478958,9.540520457401047e-2 -0.7394789579158316,9.605442690848393e-2 -0.7354709418837675,9.684186058294736e-2 -0.7314629258517034,9.753110658104319e-2 -0.7274549098196392,9.774334463055168e-2 -0.7234468937875751,9.838733314450837e-2 -0.719438877755511,9.909454690246566e-2 -0.7154308617234469,9.982012328519502e-2 -0.7114228456913828,0.10052264471113709 -0.7074148296593187,9.950581875614939e-2 -0.7034068136272545,9.845054199707648e-2 -0.6993987975951904,9.858451104002824e-2 -0.6953907815631263,9.805150199087892e-2 -0.6913827655310621,9.865609337778303e-2 -0.687374749498998,9.94589159610419e-2 -0.6833667334669339,9.945235767164451e-2 -0.6793587174348698,0.10023577746253026 -0.6753507014028056,0.10095027267623252 -0.6713426853707415,0.10174526351307045 -0.6673346693386774,0.10252359831725905 -0.6633266533066133,0.10305947407530414 -0.6593186372745492,0.10380534311840484 -0.6553106212424851,0.10456929300473489 -0.6513026052104209,0.10527378996931008 -0.6472945891783568,0.10580574988965447 -0.6432865731462927,0.106575481557381 -0.6392785571142285,0.10676983180661886 -0.6352705410821644,0.10753180277160562 -0.6312625250501003,0.10573545241155913 -0.6272545090180361,0.10648354842306107 -0.623246492985972,0.10623505089812263 -0.6192384769539079,0.10659857674050865 -0.6152304609218437,0.10738446370195964 -0.6112224448897796,0.10807987075023379 -0.6072144288577155,0.10849842202458587 -0.6032064128256514,0.10842578806085357 -0.5991983967935872,0.10838878390580109 -0.5951903807615231,0.10828811561035095 -0.591182364729459,0.10895870357362891 -0.5871743486973948,0.10900288378603823 -0.5831663326653307,0.10891821642001648 -0.5791583166332666,0.10969681759513844 -0.5751503006012024,0.11044843431973955 -0.5711422845691383,0.11107370384658705 -0.5671342685370742,0.11181727907564132 -0.56312625250501,0.1123373600149355 -0.5591182364729459,0.1130866687440511 -0.5551102204408818,0.11383782757331029 -0.5511022044088176,0.11437472783182129 -0.5470941883767535,0.11420200199185981 -0.5430861723446894,0.11480847890459278 -0.5390781563126252,0.11492451703805834 -0.5350701402805611,0.11518588593867646 -0.531062124248497,0.11570578721793157 -0.5270541082164328,0.11644453570482394 -0.5230460921843687,0.11695764670602898 -0.5190380761523046,0.11750264302918362 -0.5150300601202404,0.11815027334736544 -0.5110220440881764,0.11884647878706645 -0.5070140280561123,0.11960104109828912 -0.5030060120240482,0.12031100876697337 -0.498997995991984,0.12029840130816433 -0.4949899799599199,0.12079064673621748 -0.49098196392785576,0.12109435147838393 -0.4869739478957916,0.12098162097559018 -0.4829659318637275,0.12101755343336801 -0.47895791583166336,0.1216720952171414 -0.47494989979959923,0.12238142911937805 -0.4709418837675351,0.12310596223476206 -0.46693386773547096,0.12384910915130498 -0.46292585170340683,0.12453687670820984 -0.4589178356713427,0.12486262536590692 -0.45490981963927857,0.12494342250279517 -0.45090180360721444,0.1256930995417802 -0.4468937875751503,0.12609337203737342 -0.44288577154308617,0.1265047710549272 -0.43887775551102204,0.12725000826646593 -0.434869739478958,0.12793021602669719 -0.4308617234468939,0.1285233939828314 -0.42685370741482975,0.12902997308411002 -0.4228456913827656,0.1296715282377235 -0.4188376753507015,0.13038724210346458 -0.41482965931863736,0.13098795027013688 -0.4108216432865732,0.1317262896935854 -0.4068136272545091,0.1321598699909759 -0.40280561122244496,0.13289525021908927 -0.3987975951903808,0.1331187530016975 -0.3947895791583167,0.13353630568755603 -0.39078156312625256,0.13426316374033637 -0.38677354709418843,0.13427664186137606 -0.3827655310621243,0.134996608998047 -0.37875751503006017,0.13549810301653725 -0.37474949899799603,0.13618031215075982 -0.3707414829659319,0.13670601152261536 -0.36673346693386777,0.13736533597380524 -0.36272545090180364,0.13808716558390677 -0.3587174348697395,0.13867981151815595 -0.35470941883767537,0.13939070357573824 -0.35070140280561124,0.14011228389285557 -0.3466933867735471,0.13977194127060627 -0.342685370741483,0.13998498860986341 -0.33867735470941884,0.14069485114896785 -0.3346693386773547,0.14136370491315597 -0.3306613226452907,0.12643715800207406 -0.32665330661322656,0.12126692199565814 -0.3226452905811624,0.11950750623340628 -0.3186372745490983,0.11975931633543008 -0.31462925851703416,0.11478888041426771 -0.31062124248497003,0.11555498351257498 -0.3066132264529059,0.11346595173361518 -0.30260521042084176,0.11423393914647345 -0.29859719438877763,0.11473044569428109 -0.2945891783567135,0.1150635723983815 -0.29058116232464937,0.10308602876908463 -0.28657314629258523,9.968692044867788e-2 -0.2825651302605211,9.660477072458218e-2 -0.27855711422845697,9.685331664888414e-2 -0.27454909819639284,9.472480874822925e-2 -0.2705410821643287,9.415137218952818e-2 -0.2665330661322646,9.366626294503405e-2 -0.26252505010020044,9.394533306735187e-2 -0.2585170340681363,9.440681312988453e-2 -0.2545090180360722,9.477871184401188e-2 -0.25050100200400804,9.034442419318439e-2 -0.2464929859719439,9.106381428610466e-2 -0.24248496993987978,9.076087522059623e-2 -0.23847695390781565,8.662879681586688e-2 -0.23446893787575152,8.742081298529142e-2 -0.2304609218436875,8.750736551545202e-2 -0.22645290581162336,8.704108734567828e-2 -0.22244488977955923,8.782025250965042e-2 -0.2184368737474951,8.515021027782144e-2 -0.21442885771543096,8.188680778292035e-2 -0.21042084168336683,8.262098107660026e-2 -0.2064128256513027,8.292176331016726e-2 -0.20240480961923857,8.095606957777285e-2 -0.19839679358717444,8.16799994133992e-2 -0.1943887775551103,7.649355411340225e-2 -0.19038076152304617,7.727146180221073e-2 -0.18637274549098204,7.738243555167401e-2 -0.1823647294589179,7.690169118762907e-2 -0.17835671342685377,6.493122517546646e-2 -0.17434869739478964,6.576885423695605e-2 -0.1703406813627255,6.0192084481184516e-2 -0.16633266533066138,6.1040564618271786e-2 -0.16232464929859725,6.191712374674152e-2 -0.1583166332665331,6.2472002701642604e-2 -0.15430861723446898,6.334686139823015e-2 -0.15030060120240485,5.995121679747867e-2 -0.14629258517034072,5.584991990529725e-2 -0.14228456913827658,5.673888271768324e-2 -0.13827655310621245,5.494371450393354e-2 -0.13426853707414832,5.305131500900523e-2 -0.1302605210420842,4.922280452302602e-2 -0.12625250501002017,4.199455202423219e-2 -0.12224448897795603,1.768827042187604e-2 -0.1182364729458919,1.787090699726318e-2 -0.11422845691382777,1.8823594427998303e-2 -0.11022044088176364,1.9020033433793437e-2 -0.1062124248496995,1.996321637631504e-2 -0.10220440881763537,1.4490251589757752e-2 -9.819639278557124e-2,3.7468149263108486e-3 -9.418837675350711e-2,4.2399158717747465e-3 -9.018036072144298e-2,4.288123255665688e-3 -8.617234468937884e-2,5.111940363597134e-3 -8.216432865731471e-2,5.8990130598107204e-3 -7.815631262525058e-2,6.887887260014713e-3 -7.414829659318645e-2,7.5907339224488e-3 -7.014028056112231e-2,7.427311384143875e-3 -6.613226452905818e-2,8.365844424235158e-3 -6.212424849699405e-2,8.779164520421157e-3 -5.811623246492992e-2,8.047140912393724e-3 -5.4108216432865786e-2,6.93292371186216e-3 -5.010020040080165e-2,7.874753824356484e-3 -4.609218436873752e-2,8.843342023304668e-3 -4.208416833667339e-2,9.118056460417967e-3 -3.8076152304609256e-2,9.4490738033281e-3 -3.4068136272545124e-2,1.0406492778315235e-2 -3.0060120240480992e-2,8.99541985395802e-3 -2.605210420841686e-2,9.260887631195536e-3 -2.204408817635284e-2,1.023822970047139e-2 -1.8036072144288706e-2,1.0780224238456149e-2 -1.4028056112224574e-2,1.1555003349706494e-2 -1.0020040080160442e-2,1.2470923922432764e-2 -6.012024048096309e-3,1.2499289472440722e-2 -2.004008016032177e-3,1.3472823358348651e-2 2.004008016031955e-3,1.4444083530532226e-2 6.012024048096087e-3,1.3783080781107793e-2 1.002004008016022e-2,1.4677313864153219e-2 1.4028056112224352e-2,1.5561988569612495e-2 1.8036072144288484e-2,1.538047092392919e-2 2.2044088176352616e-2,1.6335505016273733e-2 2.605210420841675e-2,1.728098797722838e-2 3.006012024048088e-2,1.8096014484916267e-2 3.406813627254501e-2,1.8674181247743116e-2 3.8076152304609145e-2,1.9628877479033857e-2 4.208416833667328e-2,2.0578059031867824e-2 4.609218436873741e-2,2.1530396088772497e-2 5.010020040080154e-2,2.2386200666780876e-2 5.4108216432865675e-2,2.2889600815136857e-2 5.811623246492981e-2,2.3660199551419236e-2 6.212424849699394e-2,2.459245319133957e-2 6.613226452905807e-2,2.5053943412599644e-2 7.01402805611222e-2,2.5260093684858764e-2 7.414829659318634e-2,2.615180364011438e-2 7.815631262525047e-2,2.4940101108880397e-2 8.21643286573146e-2,2.5816221984987286e-2 8.617234468937873e-2,2.6302182955894426e-2 9.018036072144286e-2,2.7235779394152282e-2 9.4188376753507e-2,2.79528685945738e-2 9.819639278557113e-2,2.8777847638202014e-2 0.10220440881763526,2.971886888996017e-2 0.1062124248496994,3.054560262319511e-2 0.11022044088176353,3.0322407813180963e-2 0.11422845691382766,2.7229432518475427e-2 0.11823647294589179,2.8162435732772828e-2 0.12224448897795592,2.860809473635567e-2 0.12625250501002006,2.929051822283213e-2 0.13026052104208397,3.0118217886551557e-2 0.1342685370741481,3.062353203336554e-2 0.13827655310621223,3.023881678036472e-2 0.14228456913827636,3.117790351576777e-2 0.1462925851703405,3.2083142560267175e-2 0.15030060120240463,3.298911989134512e-2 0.15430861723446876,3.373240970927016e-2 0.1583166332665329,3.466149541227531e-2 0.16232464929859702,3.514090136626963e-2 0.16633266533066116,3.5969176998039754e-2 0.1703406813627253,3.689679269646762e-2 0.17434869739478942,3.7410825490260036e-2 0.17835671342685355,3.8325067098357424e-2 0.18236472945891768,3.924924612379588e-2 0.18637274549098182,4.00932082400548e-2 0.19038076152304595,4.0999007950435595e-2 0.19438877755511008,4.191398682394565e-2 0.1983967935871742,4.206480543801966e-2 0.20240480961923835,4.290568816083773e-2 0.20641282565130248,4.381374095310747e-2 0.2104208416833666,4.453015479290201e-2 0.21442885771543074,4.543776172560654e-2 0.21843687374749488,4.634505236050246e-2 0.222444889779559,4.655276655855051e-2 0.22645290581162314,4.738917305690282e-2 0.23046092184368727,4.736689332325e-2 0.2344689378757514,4.800535822149632e-2 0.23847695390781554,4.570203872422551e-2 0.24248496993987967,4.656908271043542e-2 0.2464929859719438,4.735132096467781e-2 0.25050100200400793,4.813195338648496e-2 0.25450901803607207,4.2306895461657e-2 0.2585170340681362,4.257196106796218e-2 0.26252505010020033,4.31532234376924e-2 0.26653306613226446,4.3269989038073e-2 0.2705410821643286,4.376536193626118e-2 0.2745490981963927,4.4129698874064927e-2 0.27855711422845686,4.4311715815714525e-2 0.282565130260521,4.511551711834716e-2 0.2865731462925851,4.437162363661795e-2 0.29058116232464926,4.5270661220975394e-2 0.2945891783567134,4.535635243367109e-2 0.2985971943887775,4.570372470777717e-2 0.30260521042084165,4.657367608216734e-2 0.3066132264529058,4.548331095057628e-2 0.3106212424849699,4.6299569891368186e-2 0.31462925851703405,4.235337007928347e-2 0.3186372745490982,4.2588927176118396e-2 0.3226452905811623,4.313015430703354e-2 0.32665330661322645,4.291807731571451e-2 0.3306613226452906,4.3628647017119604e-2 0.3346693386773545,4.453713149868527e-2 0.3386773547094186,4.5387187545817886e-2 0.34268537074148275,4.6141892082975366e-2 0.3466933867735469,4.7008562944490684e-2 0.350701402805611,4.791150846760034e-2 0.35470941883767515,4.785572267780841e-2 0.3587174348697393,4.868585181719459e-2 0.3627254509018034,4.8685815336692806e-2 0.36673346693386755,4.95581718334544e-2 0.3707414829659317,5.040894901439047e-2 0.3747494989979958,5.021250042338249e-2 0.37875751503005994,5.1084618529658066e-2 0.3827655310621241,5.185043843258891e-2 0.3867735470941882,5.2426736429529e-2 0.39078156312625234,5.273714891907161e-2 0.3947895791583165,5.3562746139066364e-2 0.3987975951903806,5.387568036599688e-2 0.40280561122244474,5.4711270334626916e-2 0.40681362725450887,5.528818917370182e-2 0.410821643286573,5.61712296997659e-2 0.41482965931863713,5.687387738503624e-2 0.41883767535070127,5.7723204285263674e-2 0.4228456913827654,5.841417809353372e-2 0.42685370741482953,5.929722985704877e-2 0.43086172344689366,6.000887904865704e-2 0.4348697394789578,6.033279380879031e-2 0.4388777555110219,6.110067227738475e-2 0.44288577154308606,6.1478705307709935e-2 0.4468937875751502,6.229057457906895e-2 0.4509018036072143,6.270028497685315e-2 0.45490981963927846,6.337195853327499e-2 0.4589178356713426,6.386921859971739e-2 0.4629258517034067,6.419543121880888e-2 0.46693386773547085,6.501792197210798e-2 0.470941883767535,6.578235043470199e-2 0.4749498997995991,6.516156298080611e-2 0.47895791583166325,6.500948977879206e-2 0.4829659318637274,6.520466983997464e-2 0.4869739478957915,5.54808592984013e-2 0.49098196392785565,5.4558844432016695e-2 0.4949899799599198,5.5447813773412846e-2 0.4989979959919839,5.258625490706337e-2 0.503006012024048,5.293893120788529e-2 0.5070140280561122,5.20352231915413e-2 0.5110220440881763,5.051324413267522e-2 0.5150300601202404,4.149665639412575e-2 0.5190380761523046,4.235901012232579e-2 0.5230460921843687,4.1108721131593084e-2 0.5270541082164328,4.052445165481522e-2 0.531062124248497,4.070391232542736e-2 0.5350701402805611,4.094038278134715e-2 0.539078156312625,4.185213221102585e-2 0.5430861723446891,3.512767203933603e-2 0.5470941883767533,3.48264230974315e-2 0.5511022044088174,3.562972510885415e-2 0.5551102204408815,3.61341714330744e-2 0.5591182364729457,3.5424931576587715e-2 0.5631262525050098,3.6353800854253215e-2 0.5671342685370739,3.671961610576202e-2 0.5711422845691381,3.6460081271530664e-2 0.5751503006012022,3.568089446730566e-2 0.5791583166332663,3.6607345037919736e-2 0.5831663326653305,3.753270338928277e-2 0.5871743486973946,3.84585382569283e-2 0.5911823647294587,3.887817191586851e-2 0.5951903807615229,3.973499962657184e-2 0.599198396793587,4.0642521880344507e-2 0.6032064128256511,4.1425674937973944e-2 0.6072144288577153,4.2291638560494005e-2 0.6112224448897794,4.3207938022454484e-2 0.6152304609218435,4.4120870930636436e-2 0.6192384769539077,4.4725625495884824e-2 0.6232464929859718,4.56346357139541e-2 0.6272545090180359,4.568957096142412e-2 0.6312625250501,4.622964257687828e-2 0.6352705410821642,4.705226669153961e-2 0.6392785571142283,4.760362087077141e-2 0.6432865731462925,4.8265018654042646e-2 0.6472945891783566,4.739655221807515e-2 0.6513026052104207,4.460076595690304e-2 0.6553106212424848,4.4860307455080795e-2 0.659318637274549,4.36692758445536e-2 0.6633266533066131,4.433125321502834e-2 0.6673346693386772,4.245805477735071e-2 0.6713426853707414,4.252309695235995e-2 0.6753507014028055,4.3028754097546695e-2 0.6793587174348696,4.271976337951838e-2 0.6833667334669338,4.360309756727748e-2 0.6873747494989979,4.3513409343700904e-2 0.691382765531062,4.4366355200182395e-2 0.6953907815631262,4.5214995177381034e-2 0.6993987975951903,4.5923878114989714e-2 0.7034068136272544,4.636810930748686e-2 0.7074148296593186,4.710522447895199e-2 0.7114228456913827,4.7943606824387974e-2 0.7154308617234468,4.882191199764979e-2 0.719438877755511,4.9574173804087907e-2 0.7234468937875751,5.0178550401690114e-2 0.7274549098196392,5.106210914008158e-2 0.7314629258517034,5.187071404240651e-2 0.7354709418837675,5.26362325477831e-2 0.7394789579158316,5.2584951351376086e-2 0.7434869739478958,5.336194522566218e-2 0.7474949899799597,5.422629941117718e-2 0.7515030060120238,5.511797463364837e-2 0.7555110220440879,5.595009176809079e-2 0.7595190380761521,5.678922100503048e-2 0.7635270541082162,5.761039565360149e-2 0.7675350701402803,5.84820695731727e-2 0.7715430861723445,5.936524278547428e-2 0.7755511022044086,6.024574670216848e-2 0.7795591182364727,6.05367616517527e-2 0.7835671342685369,6.141656533167261e-2 0.787575150300601,6.2281381214918774e-2 0.7915831663326651,6.295236226340994e-2 0.7955911823647293,6.377943397690683e-2 0.7995991983967934,6.461904730579882e-2 0.8036072144288575,6.492683089505419e-2 0.8076152304609217,6.576462052912962e-2 0.8116232464929858,6.64793886937095e-2 0.8156312625250499,6.711097314228315e-2 0.819639278557114,6.701090145026634e-2 0.8236472945891782,6.729424937490375e-2 0.8276553106212423,6.77627553956478e-2 0.8316633266533064,6.861545607549047e-2 0.8356713426853706,6.861698983628473e-2 0.8396793587174347,6.932575335808061e-2 0.8436873747494988,7.015924672783219e-2 0.847695390781563,7.095105432563426e-2 0.8517034068136271,7.105543037752377e-2 0.8557114228456912,7.191192758799286e-2 0.8597194388777554,7.225972288693366e-2 0.8637274549098195,7.311558477486757e-2 0.8677354709418836,7.395923818228528e-2 0.8717434869739478,7.46325213213832e-2 0.8757515030060119,7.525866298292783e-2 0.879759519038076,7.610793919240294e-2 0.8837675350701402,7.694973055221016e-2 0.8877755511022043,7.755243072559093e-2 0.8917835671342684,7.839462399968605e-2 0.8957915831663326,7.875756989696464e-2 0.8997995991983967,7.9533391578682e-2 0.9038076152304608,7.965745160131221e-2 0.907815631262525,7.979937566829265e-2 0.9118236472945891,8.05363875671582e-2 0.9158316633266532,8.124000164333778e-2 0.9198396793587174,8.185523056434801e-2 0.9238476953907815,8.225531536113895e-2 0.9278557114228456,8.294838103817503e-2 0.9318637274549098,8.329936973432245e-2 0.9358717434869739,8.407920656062495e-2 0.939879759519038,8.489279824538526e-2 0.9438877755511021,8.500813157002884e-2 0.9478957915831663,8.571494514973688e-2 0.9519038076152302,8.641228215017704e-2 0.9559118236472943,8.723877680965147e-2 0.9599198396793585,8.806211642957201e-2 0.9639278557114226,8.774238908913767e-2 0.9679358717434867,8.530125094682678e-2 0.9719438877755509,8.505495380260131e-2 0.975951903807615,8.586061136677059e-2 0.9799599198396791,8.66108382191646e-2 0.9839679358717432,8.335177992441722e-2 0.9879759519038074,8.364521475542269e-2 0.9919839679358715,8.202309889998333e-2 0.9959919839679356,8.152154065081019e-2 0.9999999999999998,8.227329097896141e-2" /></g><g /><g stroke-width="4.0e-3" stroke="#3764A0" fill="#FFFFFF" fill-opacity="1.0" stroke-opacity="0.5"><rect width="0.42152869952511957" height="0.2586036945028296" x="0.3543888690554248" y="8.459974453182997e-2" /></g><g stroke-width="0.0" stroke="none" fill="#666666" fill-opacity="1.0" font-size="4.000000000000001e-2" text-anchor="start"><text x="0.3776456248912935" y="0.30378800604352196">rate = 0.996</text></g><g stroke-width="5.0e-3" stroke="#02C814" fill="none" stroke-opacity="0.5"><polyline points="0.7032402065934548,0.297443082683973 0.7497537182651921,0.297443082683973" /></g><g stroke-width="0.0" stroke="none" fill="#666666" fill-opacity="1.0" font-size="4.000000000000001e-2" text-anchor="start"><text x="0.3776456248912935" y="0.24899094066559896">rate = 0.99</text></g><g stroke-width="5.0e-3" stroke="#382A8C" fill="none" stroke-opacity="0.5"><polyline points="0.7032402065934548,0.24264601730605 0.7497537182651921,0.24264601730605" /></g><g stroke-width="0.0" stroke="none" fill="#666666" fill-opacity="1.0" font-size="4.000000000000001e-2" text-anchor="start"><text x="0.3776456248912935" y="0.19419387528767598">rate = 0.95</text></g><g stroke-width="5.0e-3" stroke="#3C7F2B" fill="none" stroke-opacity="0.5"><polyline points="0.7032402065934548,0.18784895192812698 0.7497537182651921,0.18784895192812698" /></g><g stroke-width="0.0" stroke="none" fill="#666666" fill-opacity="1.0" font-size="4.000000000000001e-2" text-anchor="start"><text x="0.3776456248912935" y="0.13939680990975295">zero</text></g><g stroke-width="5.0e-3" stroke="#C58C4B" fill="none" stroke-opacity="0.5"><polyline points="0.7032402065934547,0.13305188655020397 0.749753718265192,0.13305188655020397" /></g><g /></svg>