<svg viewBox="-1.3559678118201535 -0.68275 2.3634678118201533 1.5045159178324474" xmlns="http://www.w3.org/2000/svg" xmlns:xlink="http://www.w3.org/1999/xlink" version="1.1" width="600.0" height="300.0"><g stroke-width="0.0" stroke="none" fill="#000000" transform="translate(-0.17423390591007692, -0.57175)" fill-opacity="1.0" font-size="0.12" text-anchor="middle"><text transform="rotate(0.0, 0.0, -0.0)" x="0.0" y="-0.0">std deviation</text></g><g stroke-width="0.0" stroke="#000000" fill="#666666" fill-opacity="3.0e-2" stroke-opacity="0.0"><rect width="1.9999999999999998" height="1.0" x="-1.0" y="-0.5" /></g><g stroke-width="5.0e-3" stroke="#A8E5EE" fill="none" stroke-opacity="0.3"><polyline points="-1.005,0.5 1.0049999999999997,0.5" /></g><g stroke-width="5.0e-3" stroke="#A8E5EE" fill="none" stroke-opacity="0.3"><polyline points="-1.005,0.25 1.0049999999999997,0.25" /></g><g stroke-width="5.0e-3" stroke="#A8E5EE" fill="none" stroke-opacity="0.3"><polyline points="-1.005,-0.0 1.0049999999999997,-0.0" /></g><g stroke-width="5.0e-3" stroke="#A8E5EE" fill="none" stroke-opacity="0.3"><polyline points="-1.005,-0.25 1.0049999999999997,-0.25" /></g><g stroke-width="5.0e-3" stroke="#A8E5EE" fill="none" stroke-opacity="0.3"><polyline points="-1.005,-0.5 1.0049999999999997,-0.5" /></g><g stroke-width="0.0" stroke="none" fill="#666666" fill-opacity="1.0" font-size="5.0e-2" text-anchor="end"><text x="-1.2309678118201535" y="0.5145">0.000</text></g><g stroke-width="0.0" stroke="none" fill="#666666" fill-opacity="1.0" font-size="5.0e-2" text-anchor="end"><text x="-1.2309678118201535" y="0.2645">0.005</text></g><g stroke-width="0.0" stroke="none" fill="#666666" fill-opacity="1.0" font-size="5.0e-2" text-anchor="end"><text x="-1.2309678118201535" y="1.4499999999999999e-2">0.010</text></g><g stroke-width="0.0" stroke="none" fill="#666666" fill-opacity="1.0" font-size="5.0e-2" text-anchor="end"><text x="-1.2309678118201535" y="-0.2355">0.015</text></g><g stroke-width="0.0" stroke="none" fill="#666666" fill-opacity="1.0" font-size="5.0e-2" text-anchor="end"><text x="-1.2309678118201535" y="-0.4855">0.020</text></g><g stroke-width="0.0" stroke="#2C429D" fill="#5F0391" fill-opacity="1.0" stroke-opacity="0.4"><line stroke-width="5.0e-3" transform="rotate(-90.0, -1.2008928118201536, 0.5)" x1="-1.2008928118201536" y1="0.515" x2="-1.2008928118201536" y2="0.485" /><line stroke-width="5.0e-3" transform="rotate(-90.0, -1.2008928118201536, 0.25)" x1="-1.2008928118201536" y1="0.265" x2="-1.2008928118201536" y2="0.235" /><line stroke-width="5.0e-3" transform="rotate(-90.0, -1.2008928118201536, -0.0)" x1="-1.2008928118201536" y1="1.5e-2" x2="-1.2008928118201536" y2="-1.5e-2" /><line stroke-width="5.0e-3" transform="rotate(-90.0, -1.2008928118201536, -0.25)" x1="-1.2008928118201536" y1="-0.235" x2="-1.2008928118201536" y2="-0.265" /><line stroke-width="5.0e-3" transform="rotate(-90.0, -1.2008928118201536, -0.5)" x1="-1.2008928118201536" y1="-0.485" x2="-1.2008928118201536" y2="-0.515" /></g><g stroke-width="0.0" stroke="#666666" fill="#5F0391" fill-opacity="0.5" stroke-opacity="0.0"><rect width="4.999999999999893e-3" height="1.0" x="-1.1908928118201536" y="-0.5" /></g><g stroke-width="5.0e-3" stroke="#A8E5EE" fill="none" stroke-opacity="0.3"><polyline points="-1.0,0.505 -1.0,-0.505" /></g><g stroke-width="5.0e-3" stroke="#A8E5EE" fill="none" stroke-opacity="0.3"><polyline points="-0.871743486973948,0.505 -0.871743486973948,-0.505" /></g><g stroke-width="5.0e-3" stroke="#A8E5EE" fill="none" stroke-opacity="0.3"><polyline points="-0.6152304609218437,0.505 -0.6152304609218437,-0.505" /></g><g stroke-width="5.0e-3" stroke="#A8E5EE" fill="none" stroke-opacity="0.3"><polyline points="-0.36272545090180375,0.505 -0.36272545090180375,-0.505" /></g><g stroke-width="5.0e-3" stroke="#A8E5EE" fill="none" stroke-opacity="0.3"><polyline points="-0.11022044088176364,0.505 -0.11022044088176364,-0.505" /></g><g stroke-width="5.0e-3" stroke="#A8E5EE" fill="none" stroke-opacity="0.3"><polyline points="0.1342685370741481,0.505 0.1342685370741481,-0.505" /></g><g stroke-width="5.0e-3" stroke="#A8E5EE" fill="none" stroke-opacity="0.3"><polyline points="0.3867735470941882,0.505 0.3867735470941882,-0.505" /></g><g stroke-width="5.0e-3" stroke="#A8E5EE" fill="none" stroke-opacity="0.3"><polyline points="0.6432865731462925,0.505 0.6432865731462925,-0.505" /></g><g stroke-width="5.0e-3" stroke="#A8E5EE" fill="none" stroke-opacity="0.3"><polyline points="0.8997995991983965,0.505 0.8997995991983965,-0.505" /></g><g stroke-width="5.0e-3" stroke="#A8E5EE" fill="none" stroke-opacity="0.3"><polyline points="0.9999999999999998,0.505 0.9999999999999998,-0.505" /></g><g stroke-width="0.0" stroke="none" fill="#666666" fill-opacity="1.0" font-size="5.0e-2" text-anchor="end"><text transform="rotate(-45.0, -1.0, 0.60875)" x="-1.0" y="0.60875">12 Feb 2018</text></g><g stroke-width="0.0" stroke="none" fill="#666666" fill-opacity="1.0" font-size="5.0e-2" text-anchor="end"><text transform="rotate(-45.0, -0.871743486973948, 0.60875)" x="-0.871743486973948" y="0.60875">31 Mar 2018</text></g><g stroke-width="0.0" stroke="none" fill="#666666" fill-opacity="1.0" font-size="5.0e-2" text-anchor="end"><text transform="rotate(-45.0, -0.6152304609218437, 0.60875)" x="-0.6152304609218437" y="0.60875">30 Jun 2018</text></g><g stroke-width="0.0" stroke="none" fill="#666666" fill-opacity="1.0" font-size="5.0e-2" text-anchor="end"><text transform="rotate(-45.0, -0.36272545090180375, 0.60875)" x="-0.36272545090180375" y="0.60875">30 Sep 2018</text></g><g stroke-width="0.0" stroke="none" fill="#666666" fill-opacity="1.0" font-size="5.0e-2" text-anchor="end"><text transform="rotate(-45.0, -0.11022044088176364, 0.60875)" x="-0.11022044088176364" y="0.60875">31 Dec 2018</text></g><g stroke-width="0.0" stroke="none" fill="#666666" fill-opacity="1.0" font-size="5.0e-2" text-anchor="end"><text transform="rotate(-45.0, 0.1342685370741481, 0.60875)" x="0.1342685370741481" y="0.60875">31 Mar 2019</text></g><g stroke-width="0.0" stroke="none" fill="#666666" fill-opacity="1.0" font-size="5.0e-2" text-anchor="end"><text transform="rotate(-45.0, 0.3867735470941882, 0.60875)" x="0.3867735470941882" y="0.60875">30 Jun 2019</text></g><g stroke-width="0.0" stroke="none" fill="#666666" fill-opacity="1.0" font-size="5.0e-2" text-anchor="end"><text transform="rotate(-45.0, 0.6432865731462925, 0.60875)" x="0.6432865731462925" y="0.60875">30 Sep 2019</text></g><g stroke-width="0.0" stroke="none" fill="#666666" fill-opacity="1.0" font-size="5.0e-2" text-anchor="end"><text transform="rotate(-45.0, 0.8997995991983965, 0.60875)" x="0.8997995991983965" y="0.60875">31 Dec 2019</text></g><g stroke-width="0.0" stroke="none" fill="#666666" fill-opacity="1.0" font-size="5.0e-2" text-anchor="end"><text transform="rotate(-45.0, 0.9999999999999998, 0.60875)" x="0.9999999999999998" y="0.60875">06 Feb 2020</text></g><g stroke-width="0.0" stroke="#2C429D" fill="#5F0391" fill-opacity="1.0" stroke-opacity="0.4"><line stroke-width="5.0e-3" x1="-1.0" y1="0.5425" x2="-1.0" y2="0.5125" /><line stroke-width="5.0e-3" x1="-0.871743486973948" y1="0.5425" x2="-0.871743486973948" y2="0.5125" /><line stroke-width="5.0e-3" x1="-0.6152304609218437" y1="0.5425" x2="-0.6152304609218437" y2="0.5125" /><line stroke-width="5.0e-3" x1="-0.36272545090180375" y1="0.5425" x2="-0.36272545090180375" y2="0.5125" /><line stroke-width="5.0e-3" x1="-0.11022044088176364" y1="0.5425" x2="-0.11022044088176364" y2="0.5125" /><line stroke-width="5.0e-3" x1="0.1342685370741481" y1="0.5425" x2="0.1342685370741481" y2="0.5125" /><line stroke-width="5.0e-3" x1="0.3867735470941882" y1="0.5425" x2="0.3867735470941882" y2="0.5125" /><line stroke-width="5.0e-3" x1="0.6432865731462925" y1="0.5425" x2="0.6432865731462925" y2="0.5125" /><line stroke-width="5.0e-3" x1="0.8997995991983965" y1="0.5425" x2="0.8997995991983965" y2="0.5125" /><line stroke-width="5.0e-3" x1="0.9999999999999998" y1="0.5425" x2="0.9999999999999998" y2="0.5125" /></g><g stroke-width="0.0" stroke="#666666" fill="#5F0391" fill-opacity="0.5" stroke-opacity="0.0"><rect width="1.9999999999999998" height="5.0000000000000044e-3" x="-1.0" y="0.5125" /></g><g stroke-width="5.0e-3" stroke="#C58C4B" fill="none" stroke-opacity="0.5"><polyline points="-1.0,0.5 0.9999999999999998,0.5" /></g><g stroke-width="5.0e-3" stroke="#3C7F2B" fill="none" stroke-opacity="0.5"><polyline points="-1.0,-0.21176050149180436 -0.9959919839679359,-0.1950314352090714 -0.9919839679358717,-0.19536565649727067 -0.9879759519038076,-0.1910161925256466 -0.9839679358717435,-0.17352054630089642 -0.9799599198396793,-0.1598429966333128 -0.9759519038076152,-0.1458867485892683 -0.9719438877755511,-0.12969020265557651 -0.9679358717434869,-0.13849996673242382 -0.9639278557114228,-0.13405372623953105 -0.9599198396793587,-0.13628513932313013 -0.9559118236472945,-0.13286527362323686 -0.9519038076152304,-0.13351394081292145 -0.9478957915831663,-0.12079484932066153 -0.9438877755511023,-0.11792603002778623 -0.9398797595190381,-0.10294205541641266 -0.935871743486974,-8.771875504641069e-2 -0.9318637274549099,-7.476273313931381e-2 -0.9278557114228457,-8.96164218165767e-2 -0.9238476953907816,-7.531892173641141e-2 -0.9198396793587175,-6.661231996510186e-2 -0.9158316633266533,-5.6710982482659156e-2 -0.9118236472945892,-4.27625817886208e-2 -0.9078156312625251,-2.9233204493597897e-2 -0.9038076152304609,-4.0124029516609205e-2 -0.8997995991983968,-2.6823086767564286e-2 -0.8957915831663327,-1.377702270597636e-2 -0.8917835671342685,-7.08734012293134e-2 -0.8877755511022044,-9.600367679305477e-2 -0.8837675350701403,-0.1632172682395321 -0.8797595190380761,-0.17045838760773047 -0.875751503006012,-0.15357340559112043 -0.8717434869739479,-0.1594405796298768 -0.8677354709418837,-0.1837587843844748 -0.8637274549098196,-0.18566235023947375 -0.8597194388777555,-0.18318828696284017 -0.8557114228456915,-0.17116235943287517 -0.8517034068136273,-0.19553573938034197 -0.8476953907815632,-0.18002023508467357 -0.8436873747494991,-0.19093458352152382 -0.8396793587174349,-0.17574368215547298 -0.8356713426853708,-0.16573126524624282 -0.8316633266533067,-0.1495194886672283 -0.8276553106212425,-0.1397262861281916 -0.8236472945891784,-0.13404009611609524 -0.8196392785571143,-0.11799181707240725 -0.8156312625250501,-0.10628908055828856 -0.811623246492986,-9.875611724168376e-2 -0.8076152304609219,-8.360026402018583e-2 -0.8036072144288577,-8.70420258824075e-2 -0.7995991983967936,-7.290900936964995e-2 -0.7955911823647295,-7.127822739729028e-2 -0.7915831663326653,-5.6978896939440915e-2 -0.7875751503006012,-5.009203814995156e-2 -0.7835671342685371,-3.717565720246585e-2 -0.779559118236473,-2.895212582376472e-2 -0.7755511022044088,-1.5847360723216686e-2 -0.7715430861723447,-2.3810957062674887e-2 -0.7675350701402806,-1.1994894035251336e-2 -0.7635270541082164,9.533300523414945e-4 -0.7595190380761523,2.5688662726149336e-3 -0.7555110220440882,5.836925993349118e-3 -0.751503006012024,1.8287334527790633e-2 -0.7474949899799599,3.0481769471289166e-2 -0.7434869739478958,3.43630659819979e-2 -0.7394789579158316,4.462355041739191e-2 -0.7354709418837675,5.578663549082152e-2 -0.7314629258517034,6.549449984491518e-2 -0.7274549098196392,7.004547031019598e-2 -0.7234468937875751,7.863544704538777e-2 -0.719438877755511,8.836289229887828e-2 -0.7154308617234469,9.759194186912051e-2 -0.7114228456913828,0.10638919842542138 -0.7074148296593187,9.413418365194742e-2 -0.7034068136272545,8.089974786485848e-2 -0.6993987975951904,8.351408994254927e-2 -0.6953907815631263,7.790651196892001e-2 -0.6913827655310621,8.65576151273808e-2 -0.687374749498998,9.702065413698469e-2 -0.6833667334669339,9.848844877156326e-2 -0.6793587174348698,0.10805851114520465 -0.6753507014028056,0.11739143313783124 -0.6713426853707415,0.1270729758972543 -0.6673346693386774,0.13647736921679204 -0.6633266533066133,0.14097767454366 -0.6593186372745492,0.14971046830231832 -0.6553106212424851,0.1578094609209415 -0.6513026052104209,0.1647547418368897 -0.6472945891783568,0.16898074772880267 -0.6432865731462927,0.17712908797341376 -0.6392785571142285,0.1761740812453133 -0.6352705410821644,0.18391043591109885 -0.6312625250501003,0.1552913131899747 -0.6272545090180361,0.16287909895730224 -0.623246492985972,0.15882015872057947 -0.6192384769539079,0.1593164047568224 -0.6152304609218437,0.16774448881598747 -0.6112224448897796,0.1741602266771935 -0.6072144288577155,0.17798446483804703 -0.6032064128256514,0.17147905824175924 -0.5991983967935872,0.16720485456993184 -0.5951903807615231,0.16342040221814552 -0.591182364729459,0.17080011862736538 -0.5871743486973948,0.1669323260231148 -0.5831663326653307,0.16374300345418352 -0.5791583166332666,0.17225720842423226 -0.5751503006012024,0.17973761025392482 -0.5711422845691383,0.18613962210122764 -0.5671342685370742,0.19387594154554194 -0.56312625250501,0.19643782794234416 -0.5591182364729459,0.20343044038635638 -0.5551102204408818,0.21072701572276697 -0.5511022044088176,0.21486630630959097 -0.5470941883767535,0.20874643840153995 -0.5430861723446894,0.21191482181491672 -0.5390781563126252,0.20655358933708856 -0.5350701402805611,0.20502967725737492 -0.531062124248497,0.20860655320619187 -0.5270541082164328,0.2153263596163566 -0.5230460921843687,0.2186629195333164 -0.5190380761523046,0.2227197184150888 -0.5150300601202404,0.2283886159023103 -0.5110220440881764,0.2346576585642779 -0.5070140280561123,0.2408483676155383 -0.5030060120240482,0.24579980483590835 -0.498997995991984,0.23666266792650692 -0.4949899799599199,0.2383711577376047 -0.49098196392785576,0.23684654008929185 -0.4869739478957916,0.2279017238246301 -0.4829659318637275,0.2221576362668226 -0.47895791583166336,0.22765703741021798 -0.47494989979959923,0.23396271399980734 -0.4709418837675351,0.24037740144464714 -0.46693386773547096,0.24653113164119267 -0.46292585170340683,0.2513715791776776 -0.4589178356713427,0.2505354313425227 -0.45490981963927857,0.24636269686745815 -0.45090180360721444,0.25250557780413857 -0.4468937875751503,0.2540720261757158 -0.44288577154308617,0.2516736048675935 -0.43887775551102204,0.257674613997746 -0.434869739478958,0.2618230867377532 -0.4308617234468939,0.2641356106365848 -0.42685370741482975,0.26496186004945504 -0.4228456913827656,0.26885982242869183 -0.4188376753507015,0.27417269870912664 -0.41482965931863736,0.27715049815933746 -0.4108216432865732,0.282761766476377 -0.4068136272545091,0.2824353904163899 -0.40280561122244496,0.28783220254044195 -0.3987975951903808,0.28154458797928017 -0.3947895791583167,0.28074201913382857 -0.39078156312625256,0.28623522126466944 -0.38677354709418843,0.27814704529392137 -0.3827655310621243,0.2831187284364405 -0.37875751503006017,0.28271987147042654 -0.37474949899799603,0.28691176269232344 -0.3707414829659319,0.2876806560826669 -0.36673346693386777,0.2916586065869183 -0.36272545090180364,0.29680438511564555 -0.3587174348697395,0.29925350793824546 -0.35470941883767537,0.30391959000241764 -0.35070140280561124,0.30888444528290226 -0.3466933867735471,0.2898866297291335 -0.342685370741483,0.28562922974034927 -0.33867735470941884,0.2910171465429015 -0.3346693386773547,0.29575395865182896 -0.3306613226452907,8.601694954993705e-2 -0.32665330661322656,4.64056059795408e-2 -0.3226452905811624,2.136049343326285e-2 -0.3186372745490983,3.1406888817486434e-2 -0.31462925851703416,-2.2835277236821216e-2 -0.31062124248497003,-9.648139513365184e-3 -0.3066132264529059,-1.8421231692852702e-2 -0.30260521042084176,-5.464479886875262e-3 -0.29859719438877763,6.386899223805198e-3 -0.2945891783567135,1.702833942711246e-2 -0.29058116232464937,-7.011253538518447e-2 -0.28657314629258523,-0.10418880591252477 -0.2825651302605211,-0.11190016057055485 -0.27855711422845697,-9.769033988687548e-2 -0.27454909819639284,-0.11721655652631557 -0.2705410821643287,-0.1181057337876461 -0.2665330661322646,-0.11667705500553227 -0.26252505010020044,-0.10389373305350447 -0.2585170340681363,-9.328908504339994e-2 -0.2545090180360722,-8.348212754520223e-2 -0.25050100200400804,-0.11521602539299958 -0.2464929859719439,-0.10055435380758138 -0.24248496993987978,-9.466112514682423e-2 -0.23847695390781565,-0.11844527874996724 -0.23446893787575152,-0.10280092521793593 -0.2304609218436875,-9.177144848809826e-2 -0.22645290581162336,-9.136301432559335e-2 -0.22244488977955923,-7.735202974154709e-2 -0.2184368737474951,-8.944434665877887e-2 -0.21442885771543096,-0.103077470889398 -0.21042084168336683,-9.071237182446212e-2 -0.2064128256513027,-7.785271005593963e-2 -0.20240480961923857,-9.533666601577973e-2 -0.19839679358717444,-8.247965502364729e-2 -0.1943887775551103,-0.12454743333560536 -0.19038076152304617,-0.10920958258987101 -0.18637274549098204,-0.10050882283481488 -0.1823647294589179,-9.650263999864295e-2 -0.17835671342685377,-0.18797663010122512 -0.17434869739478964,-0.17059863888186833 -0.1703406813627255,-0.19896609887812977 -0.16633266533066138,-0.18250304715958843 -0.16232464929859725,-0.16541217136486341 -0.1583166332665331,-0.1532259603890357 -0.15430861723446898,-0.13681727677131983 -0.15030060120240485,-0.15076418060409913 -0.14629258517034072,-0.16644250689787465 -0.14228456913827658,-0.15053227619297727 -0.13827655310621245,-0.14856101028158686 -0.13426853707414832,-0.1461286076780678 -0.1302605210420842,-0.1551227561519396 -0.12625250501002017,-0.18367306702690844 -0.12224448897795603,-0.3932804787799551 -0.1182364729458919,-0.38040423244747545 -0.11422845691382777,-0.3582929709883512 -0.11022044088176364,-0.3454732644505435 -0.1062124248496995,-0.3249400888730669 -0.10220440881763537,-0.34229211212907584 -9.819639278557124e-2,-0.41441053519581583 -9.418837675350711e-2,-0.395870878645628 -9.018036072144298e-2,-0.3807636434223456 -8.617234468937884e-2,-0.359855969928508 -8.216432865731471e-2,-0.339637429886154 -7.815631262525058e-2,-0.31838035205776627 -7.414829659318645e-2,-0.2997615133549034 -7.014028056112231e-2,-0.28848123515067536 -6.613226452905818e-2,-0.26879351088070713 -6.212424849699405e-2,-0.25335861634301127 -5.811623246492992e-2,-0.24645452636866583 -5.4108216432865786e-2,-0.24727921094470695 -5.010020040080165e-2,-0.2285636523323299 -4.609218436873752e-2,-0.21015518100812725 -4.208416833667339e-2,-0.19727826079791833 -3.8076152304609256e-2,-0.18664530756787556 -3.4068136272545124e-2,-0.16965722846021902 -3.0060120240480992e-2,-0.17252559369742548 -2.605210420841686e-2,-0.16025566759272936 -2.204408817635284e-2,-0.14359149088012302 -1.8036072144288706e-2,-0.12978069523084235 -1.4028056112224574e-2,-0.11460127515511553 -1.0020040080160442e-2,-0.10082547108871165 -6.012024048096309e-3,-9.821806375337883e-2 -2.004008016032177e-3,-8.310422285267527e-2 2.004008016031955e-3,-6.836697594648766e-2 6.012024048096087e-3,-6.824752754918917e-2 1.002004008016022e-2,-5.402516760998566e-2 1.4028056112224352e-2,-4.2211445384479296e-2 1.8036072144288484e-2,-3.792263680500352e-2 2.2044088176352616e-2,-2.433961812346397e-2 2.605210420841675e-2,-1.1071428916910153e-2 3.006012024048088e-2,-1.8065796954822577e-3 3.406813627254501e-2,8.294978441457712e-3 3.8076152304609145e-2,2.0674911363422532e-2 4.208416833667328e-2,3.1860189503124525e-2 4.609218436873741e-2,4.299315795507197e-2 5.010020040080154e-2,5.1847699915548495e-2 5.4108216432865675e-2,5.9241262313039944e-2 5.811623246492981e-2,6.605119907243956e-2 6.212424849699394e-2,7.610029510835625e-2 6.613226452905807e-2,7.802385263705458e-2 7.01402805611222e-2,7.69452567855688e-2 7.414829659318634e-2,8.667624470267865e-2 7.815631262525047e-2,6.839681266287073e-2 8.21643286573146e-2,7.882072822561248e-2 8.617234468937873e-2,8.469246497288513e-2 9.018036072144286e-2,9.442676589803584e-2 9.4188376753507e-2,0.10270335116772944 9.819639278557113e-2,0.11202760498517178 0.10220440881763526,0.12137183714982586 0.1062124248496994,0.12774563414191803 0.11022044088176353,0.12272738050376508 0.11422845691382766,6.724784956850127e-2 0.11823647294589179,7.785722353634966e-2 0.12224448897795592,8.248986642192119e-2 0.12625250501002006,8.845418944349204e-2 0.13026052104208397,9.764485047545779e-2 0.1342685370741481,0.10265157492767102 0.13827655310621223,9.657452453165238e-2 0.14228456913827636,0.10638511789135724 0.1462925851703405,0.11630075214983254 0.15030060120240463,0.12597945594784565 0.15430861723446876,0.13398646655038354 0.1583166332665329,0.14316585959977818 0.16232464929859702,0.141901075047075 0.16633266533066116,0.15020155523094264 0.1703406813627253,0.15870980773325993 0.17434869739478942,0.16255120928231465 0.17835671342685355,0.17016439849887943 0.18236472945891768,0.17832378772789087 0.18637274549098182,0.18380991582873596 0.19038076152304595,0.19180015718211285 0.19438877755511008,0.19958690483833358 0.1983967935871742,0.1959663823533565 0.20240480961923835,0.20069382635984767 0.20641282565130248,0.20758258643568062 0.2104208416833666,0.2127360995579638 0.21442885771543074,0.21996200344303474 0.21843687374749488,0.22698182268402406 0.222444889779559,0.2163070634789756 0.22645290581162314,0.22134302176437726 0.23046092184368727,0.2122974920368046 0.2344689378757514,0.21254722750955474 0.23847695390781554,0.15998364479903965 0.24248496993987967,0.16804360939081747 0.2464929859719438,0.17470865572244032 0.25050100200400793,0.18023841169816796 0.25450901803607207,8.947153038776362e-2 0.2585170340681362,8.771929846725585e-2 0.26252505010020033,9.196676646239571e-2 0.26653306613226446,8.983716059995539e-2 0.2705410821643286,9.497537879532664e-2 0.2745490981963927,9.876568112489681e-2 0.27855711422845686,9.687237062296461e-2 0.282565130260521,0.1059312032883894 0.2865731462925851,9.503111170637074e-2 0.29058116232464926,0.1045911240249871 0.2945891783567134,0.10552316427336106 0.2985971943887775,0.11024294356136327 0.30260521042084165,0.11824070371846879 0.3066132264529058,0.10527715605780597 0.3106212424849699,0.11512661613931097 0.31462925851703405,4.85212154321521e-2 0.3186372745490982,4.957009128846834e-2 0.3226452905811623,5.5520247413808566e-2 0.32665330661322645,5.225620458392438e-2 0.3306613226452906,6.1350249371772636e-2 0.3346693386773545,7.227766114857365e-2 0.3386773547094186,8.201668195197226e-2 0.34268537074148275,9.0821427222187e-2 0.3466933867735469,0.10034016937453955 0.350701402805611,0.11044750354496735 0.35470941883767515,0.10782506272355935 0.3587174348697393,0.11721317108022222 0.3627254509018034,0.11629799308519079 0.36673346693386755,0.12470204989427225 0.3707414829659317,0.13254000773749158 0.3747494989979958,0.12281822327216163 0.37875751503005994,0.13172031918226978 0.3827655310621241,0.1394116341362056 0.3867735470941882,0.14448580899354213 0.39078156312625234,0.14616765848828278 0.3947895791583165,0.15472792075408648 0.3987975951903806,0.1568283682060117 0.40280561122244474,0.16323374000351032 0.40681362725450887,0.1643127622225667 0.410821643286573,0.17281214451968568 0.41482965931863713,0.17917246757818245 0.41883767535070127,0.1871618071609989 0.4228456913827654,0.19318654012397785 0.42685370741482953,0.20052980228523287 0.43086172344689366,0.20311748052558531 0.4348697394789578,0.1981908698241629 0.4388777555110219,0.20441773880770042 0.44288577154308606,0.2012569075255496 0.4468937875751502,0.20789739706464982 0.4509018036072143,0.20782575855441487 0.45490981963927846,0.2125713450703634 0.4589178356713426,0.21088004223837464 0.4629258517034067,0.20967909827456588 0.46693386773547085,0.2152820631884207 0.470941883767535,0.2195604610910934 0.4749498997995991,0.19751391030281884 0.47895791583166325,0.18792647044662275 0.4829659318637274,0.18590227325668346 0.4869739478957915,5.409949044052775e-2 0.49098196392785565,3.604813059323847e-2 0.4949899799599198,4.7276494428665716e-2 0.4989979959919839,9.235342414109171e-3 0.503006012024048,1.6443954618406698e-2 0.5070140280561122,1.1082854253325725e-2 0.5110220440881763,-7.723131917343196e-3 0.5150300601202404,-8.996777479998685e-2 0.5190380761523046,-7.683952235785318e-2 0.5230460921843687,-8.814201651226505e-2 0.5270541082164328,-8.98741542778545e-2 0.531062124248497,-8.127837731779464e-2 0.5350701402805611,-7.442876002512777e-2 0.539078156312625,-5.99062247333374e-2 0.5430861723446891,-0.11599559309755791 0.5470941883767533,-0.11518814089736928 0.5511022044088174,-0.1002015905887742 0.5551102204408815,-9.055416153146845e-2 0.5591182364729457,-9.310460071294724e-2 0.5631262525050098,-7.811293092427962e-2 0.5671342685370739,-6.87424722630553e-2 0.5711422845691381,-6.70942604135577e-2 0.5751503006012022,-6.944896037209813e-2 0.5791583166332663,-5.503081625000927e-2 0.5831663326653305,-4.110438064783184e-2 0.5871743486973946,-2.7444755041840074e-2 0.5911823647294587,-1.866054659288674e-2 0.5951903807615229,-5.851745324885527e-3 0.599198396793587,6.464768968961532e-3 0.6032064128256511,1.6645898616286958e-2 0.6072144288577153,2.8562426615517778e-2 0.6112224448897794,4.043318011488617e-2 0.6152304609218435,5.193627817603963e-2 0.6192384769539077,5.8604870963117006e-2 0.6232464929859718,6.969815530237405e-2 0.6272545090180359,6.904925117984578e-2 0.6312625250501,7.497949512208085e-2 0.6352705410821642,8.452499387397544e-2 0.6392785571142283,9.036160549139954e-2 0.6432865731462925,9.706156638386526e-2 0.6472945891783566,8.381976298031174e-2 0.6513026052104207,5.066335138750433e-2 0.6553106212424848,5.081969016267357e-2 0.659318637274549,3.3150600269197916e-2 0.6633266533066131,4.2366631102595365e-2 0.6673346693386772,2.3254691331530963e-2 0.6713426853707414,2.2536416683108573e-2 0.6753507014028055,2.8588195645790737e-2 0.6793587174348696,2.5033427950918896e-2 0.6833667334669338,3.665417380961872e-2 0.6873747494989979,3.6416816851405076e-2 0.691382765531062,4.7137944367127316e-2 0.6953907815631262,5.800271564055953e-2 0.6993987975951903,6.619162289097602e-2 0.7034068136272544,7.158056502769017e-2 0.7074148296593186,7.967633727212986e-2 0.7114228456913827,8.959788174095207e-2 0.7154308617234468,9.9777313036232e-2 0.719438877755511,0.10827528297047306 0.7234468937875751,0.11489026951209103 0.7274549098196392,0.12400266811570332 0.7314629258517034,0.13276035132230313 0.7354709418837675,0.13912663476639403 0.7394789579158316,0.13587835614004684 0.7434869739478958,0.14422174444913882 0.7474949899799597,0.15197689505283873 0.7515030060120238,0.16070716753656678 0.7555110220440879,0.16895928679919575 0.7595190380761521,0.17710375032848008 0.7635270541082162,0.18305249915822275 0.7675350701402803,0.1910649986603835 0.7715430861723445,0.19881474694842532 0.7755511022044086,0.20639973540982642 0.7795591182364727,0.2054563426789729 0.7835671342685369,0.21267213273566998 0.787575150300601,0.21899249175795166 0.7915831663326651,0.2203329870880718 0.7955911823647293,0.22577231874170328 0.7995991983967934,0.23242517649439653 0.8036072144288575,0.23005359633033717 0.8076152304609217,0.2367486943174571 0.8116232464929858,0.24170652127980574 0.8156312625250499,0.24095639096835608 0.819639278557114,0.2251362013766528 0.8236472945891782,0.22002600502662922 0.8276553106212423,0.2197066249335144 0.8316633266533064,0.22667284625092593 0.8356713426853706,0.21854387085874982 0.8396793587174347,0.22161242849333956 0.8436873747494988,0.22773574222244947 0.847695390781563,0.23369470327276898 0.8517034068136271,0.22761677984941137 0.8557114228456912,0.2341551143454303 0.8597194388777554,0.23316883559763713 0.8637274549098195,0.239578322701412 0.8677354709418836,0.24529444737274853 0.8717434869739478,0.24954351557469412 0.8757515030060119,0.25313675094045407 0.879759519038076,0.25920316950859773 0.8837675350701402,0.2644055687964456 0.8877755511022043,0.2671851638865068 0.8917835671342684,0.27229394628608655 0.8957915831663326,0.26356557034179207 0.8997995991983967,0.26886574417444187 0.9038076152304608,0.26231432195451204 0.907815631262525,0.2491758052911095 0.9118236472945891,0.25432125571602027 0.9158316633266532,0.25617623457544547 0.9198396793587174,0.25896619145453265 0.9238476953907815,0.2582001936577956 0.9278557114228456,0.25926687179558683 0.9318637274549098,0.2577400308456302 0.9358717434869739,0.26129471758565836 0.939879759519038,0.2673105504688964 0.9438877755511021,0.26147212894006844 0.9478957915831663,0.26652899419620907 0.9519038076152302,0.2668797689486313 0.9559118236472943,0.27222015377203823 0.9599198396793585,0.2779087706263619 0.9639278557114226,0.2539208866038982 0.9679358717434867,0.1971046270587294 0.9719438877755509,0.18630092322474556 0.975951903807615,0.19373191282102026 0.9799599198396791,0.2002919374232766 0.9839679358717432,0.1440563680949456 0.9879759519038074,0.14391188813193406 0.9919839679358715,0.11803766292436169 0.9959919839679356,0.11140084230312391 0.9999999999999998,0.12070797589510612" /></g><g stroke-width="5.0e-3" stroke="#382A8C" fill="none" stroke-opacity="0.5"><polyline points="-1.0,0.10310388006408877 -0.9959919839679359,0.10495310916421569 -0.9919839679358717,0.10171902038965203 -0.9879759519038076,9.963625547486649e-2 -0.9839679358717435,0.1016531007344898 -0.9799599198396793,0.10232612866778967 -0.9759519038076152,0.10315706380086048 -0.9719438877755511,0.1051526795128716 -0.9679358717434869,9.974150729495945e-2 -0.9639278557114228,9.800342576736809e-2 -0.9599198396793587,9.431553619162003e-2 -0.9559118236472945,9.206680880522783e-2 -0.9519038076152304,8.818302908445558e-2 -0.9478957915831663,8.960465139203033e-2 -0.9438877755511023,8.83204750819131e-2 -0.9398797595190381,9.026583954038969e-2 -0.935871743486974,9.229617957472702e-2 -0.9318637274549099,9.3890619021959e-2 -0.9278557114228457,8.75257243419999e-2 -0.9238476953907816,8.947622929951715e-2 -0.9198396793587175,8.99925859889753e-2 -0.9158316633266533,9.079931534571245e-2 -0.9118236472945892,9.280077306576495e-2 -0.9078156312625251,9.481611325882044e-2 -0.9038076152304609,9.003905311020938e-2 -0.8997995991983968,9.207360156348604e-2 -0.8957915831663327,9.396268417001441e-2 -0.8917835671342685,7.579295835659683e-2 -0.8877755511022044,6.465970042466912e-2 -0.8837675350701403,4.668432548409379e-2 -0.8797595190380761,4.043039219106276e-2 -0.875751503006012,4.25011087803272e-2 -0.8717434869739479,3.97584686315155e-2 -0.8677354709418837,2.820587290748966e-2 -0.8637274549098196,2.6407370192851554e-2 -0.8597194388777555,2.5363871077616118e-2 -0.8557114228456915,2.6593104473867868e-2 -0.8517034068136273,1.5886843327486244e-2 -0.8476953907815632,1.8044364019559056e-2 -0.8436873747494991,1.3448913223893744e-2 -0.8396793587174349,1.5042842386600142e-2 -0.8356713426853708,1.5822280321805993e-2 -0.8316633266533067,1.800408906865525e-2 -0.8276553106212425,1.8836218492960133e-2 -0.8236472945891784,1.8512358211834723e-2 -0.8196392785571143,2.0931370445509134e-2 -0.8156312625250501,2.235606943395546e-2 -0.811623246492986,2.2682495771530586e-2 -0.8076152304609219,2.5083747810639212e-2 -0.8036072144288577,2.2542882393420782e-2 -0.7995991983967936,2.48689183179453e-2 -0.7955911823647295,2.4511519663549586e-2 -0.7915831663326653,2.688433376170085e-2 -0.7875751503006012,2.7375047961598897e-2 -0.7835671342685371,2.9603522676584837e-2 -0.779559118236473,3.05110833298039e-2 -0.7755511022044088,3.272386411635764e-2 -0.7715430861723447,3.0826606783736665e-2 -0.7675350701402806,3.2908796828934994e-2 -0.7635270541082164,3.52515677823903e-2 -0.7595190380761523,3.522713814570955e-2 -0.7555110220440882,3.540083393111937e-2 -0.751503006012024,3.769412859563093e-2 -0.7474949899799599,4.001434888608818e-2 -0.7434869739478958,4.087966187043751e-2 -0.7394789579158316,4.2821155174814385e-2 -0.7354709418837675,4.507682410553926e-2 -0.7314629258517034,4.7112561609519155e-2 -0.7274549098196392,4.804499974318477e-2 -0.7234468937875751,4.996465617287488e-2 -0.719438877755511,5.200399051399984e-2 -0.7154308617234469,5.408903861230274e-2 -0.7114228456913828,5.611747368829456e-2 -0.7074148296593187,5.431441374112611e-2 -0.7034068136272545,5.230009499661553e-2 -0.6993987975951904,5.3075065278796074e-2 -0.6953907815631263,5.226518547714043e-2 -0.6913827655310621,5.4058048888238286e-2 -0.687374749498998,5.629837429684126e-2 -0.6833667334669339,5.669981332392615e-2 -0.6793587174348698,5.888437754825171e-2 -0.6753507014028056,6.091137960447729e-2 -0.6713426853707415,6.31111084910993e-2 -0.6673346693386774,6.526716465050397e-2 -0.6633266533066133,6.684531042861414e-2 -0.6593186372745492,6.891349901910804e-2 -0.6553106212424851,7.101007773042928e-2 -0.6513026052104209,7.296164361654767e-2 -0.6472945891783568,7.450908411650708e-2 -0.6432865731462927,7.660131571880469e-2 -0.6392785571142285,7.73568857465396e-2 -0.6352705410821644,7.941789816326383e-2 -0.6312625250501003,7.556885068891678e-2 -0.6272545090180361,7.75921353038932e-2 -0.623246492985972,7.736724771387654e-2 -0.6192384769539079,7.84443129231765e-2 -0.6152304609218437,8.055533908070128e-2 -0.6112224448897796,8.24302273253677e-2 -0.6072144288577155,8.370577823565617e-2 -0.6032064128256514,8.371752366445595e-2 -0.5991983967935872,8.383809220619204e-2 -0.5951903807615231,8.383088266850047e-2 -0.591182364729459,8.56562019536985e-2 -0.5871743486973948,8.598651918328432e-2 -0.5831663326653307,8.601284519066216e-2 -0.5791583166332666,8.808351262609115e-2 -0.5751503006012024,9.007942555323312e-2 -0.5711422845691383,9.177678777312798e-2 -0.5671342685370742,9.374856132302106e-2 -0.56312625250501,9.516133352062861e-2 -0.5591182364729459,9.712861897394726e-2 -0.5551102204408818,9.909759693769354e-2 -0.5511022044088176,0.10055006449322962 -0.5470941883767535,0.10030904320479928 -0.5430861723446894,0.10189390370011181 -0.5390781563126252,0.1022769911260929 -0.5350701402805611,0.10302972062170895 -0.531062124248497,0.10441667166525548 -0.5270541082164328,0.10632697635306365 -0.5230460921843687,0.10768859809528097 -0.5190380761523046,0.10912885708080539 -0.5150300601202404,0.11081570395147838 -0.5110220440881764,0.11261494605176176 -0.5070140280561123,0.1145343016212923 -0.5030060120240482,0.11633123767879822 -0.498997995991984,0.11631285577691536 -0.4949899799599199,0.11756914562435622 -0.49098196392785576,0.11836385622030138 -0.4869739478957916,0.11810380997055264 -0.4829659318637275,0.11822720934468217 -0.47895791583166336,0.11989218759563991 -0.47494989979959923,0.12168756098813716 -0.4709418837675351,0.12351486044121351 -0.46693386773547096,0.12537237086871872 -0.46292585170340683,0.1270803234136642 -0.4589178356713427,0.12790158360943277 -0.45490981963927857,0.12812424785689946 -0.45090180360721444,0.12998539189029068 -0.4468937875751503,0.1310035464204533 -0.44288577154308617,0.13195184463462417 -0.43887775551102204,0.13378936599519958 -0.434869739478958,0.13544223574441522 -0.4308617234468939,0.13686250841279607 -0.42685370741482975,0.13805716594696743 -0.4228456913827656,0.13960529126146481 -0.4188376753507015,0.14135215822051667 -0.41482965931863736,0.14280441934210247 -0.4108216432865732,0.14459555864768597 -0.4068136272545091,0.14561509535728662 -0.40280561122244496,0.14738937629262455 -0.3987975951903808,0.14779399779473096 -0.3947895791583167,0.1487553229634206 -0.39078156312625256,0.15050445799335505 -0.38677354709418843,0.1504264500580933 -0.3827655310621243,0.15214034555650552 -0.37875751503006017,0.15325153034121708 -0.37474949899799603,0.15485478448893136 -0.3707414829659319,0.1560320219466747 -0.36673346693386777,0.15758814882327327 -0.36272545090180364,0.1592928793952521 -0.3587174348697395,0.1606677788197584 -0.35470941883767537,0.16233179029699074 -0.35070140280561124,0.1640262940164613 -0.3466933867735471,0.16283527666998687 -0.342685370741483,0.16316430712357755 -0.33867735470941884,0.16482670570024338 -0.3346693386773547,0.16637655975437865 -0.3306613226452907,0.12769574424486224 -0.32665330661322656,0.11523425403942561 -0.3226452905811624,0.11068968060587098 -0.3186372745490983,0.11150670882615205 -0.31462925851703416,9.919932859888558e-2 -0.31062124248497003,0.10120444246770377 -0.3066132264529059,9.652526921323407e-2 -0.30260521042084176,9.854493352759114e-2 -0.29859719438877763,9.997308654798331e-2 -0.2945891783567135,0.10103159894129199 -0.29058116232464937,7.35665238966976e-2 -0.28657314629258523,6.548276140732179e-2 -0.2825651302605211,5.917391813343803e-2 -0.27855711422845697,6.029267621685652e-2 -0.27454909819639284,5.534206051925605e-2 -0.2705410821643287,5.416688108236145e-2 -0.2665330661322646,5.324775864770431e-2 -0.26252505010020044,5.438622388387787e-2 -0.2585170340681363,5.571897151751626e-2 -0.2545090180360722,5.684204092057871e-2 -0.25050100200400804,4.687888699956333e-2 -0.2464929859719439,4.89465390731329e-2 -0.24248496993987978,4.875678127039096e-2 -0.23847695390781565,4.011538358957151e-2 -0.23446893787575152,4.2370759357546084e-2 -0.2304609218436875,4.3144892148853364e-2 -0.22645290581162336,4.2314509770169206e-2 -0.22244488977955923,4.446714988014294e-2 -0.2184368737474951,3.916865404536368e-2 -0.21442885771543096,3.271864490607307e-2 -0.21042084168336683,3.474754357904686e-2 -0.2064128256513027,3.6051878178303465e-2 -0.20240480961923857,3.169243629412233e-2 -0.19839679358717444,3.371104441948891e-2 -0.1943887775551103,2.2194917316960883e-2 -0.19038076152304617,2.4468438385340685e-2 -0.18637274549098204,2.511143978093222e-2 -0.1823647294589179,2.4429725758084886e-2 -0.17835671342685377,-9.777472481452554e-4 -0.17434869739478964,1.4900121596098659e-3 -0.1703406813627255,-9.512561703133526e-3 -0.16633266533066138,-7.072436998423748e-3 -0.16232464929859725,-4.528692223760289e-3 -0.1583166332665331,-2.827078162253027e-3 -0.15430861723446898,-3.051015263653145e-4 -0.15030060120240485,-6.636737310958263e-3 -0.14629258517034072,-1.4283226531865312e-2 -0.14228456913827658,-1.1719522737688393e-2 -0.13827655310621245,-1.444783676879513e-2 -0.13426853707414832,-1.7301948005558176e-2 -0.1302605210420842,-2.4038281478434786e-2 -0.12625250501002017,-3.754798702474571e-2 -0.12224448897795603,-8.966153203951055e-2 -0.1182364729458919,-8.860900044571685e-2 -0.11422845691382777,-8.56591172538298e-2 -0.11022044088176364,-8.45752668538885e-2 -0.1062124248496995,-8.173377007427851e-2 -0.10220440881763537,-9.130566155908326e-2 -9.819639278557124e-2,-0.11327081416926976 -9.418837675350711e-2,-0.11138353523803501 -9.018036072144298e-2,-0.11044918165757567 -8.617234468937884e-2,-0.10781514400191217 -8.216432865731471e-2,-0.10526891714469866 -7.815631262525058e-2,-0.10223427989348921 -7.414829659318645e-2,-9.970487774071979e-2 -7.014028056112231e-2,-9.925199888173741e-2 -6.613226452905818e-2,-9.638151943599094e-2 -6.212424849699405e-2,-9.468112900344083e-2 -5.811623246492992e-2,-9.54024726652073e-2 -5.4108216432865786e-2,-9.659460412440557e-2 -5.010020040080165e-2,-9.372617159263252e-2 -4.609218436873752e-2,-9.080105888670964e-2 -4.208416833667339e-2,-8.941144709745374e-2 -3.8076152304609256e-2,-8.77279718628251e-2 -3.4068136272545124e-2,-8.48143780563767e-2 -3.0060120240480992e-2,-8.705646249953725e-2 -2.605210420841686e-2,-8.567936642266172e-2 -2.204408817635284e-2,-8.27575040260029e-2 -1.8036072144288706e-2,-8.079321321914068e-2 -1.4028056112224574e-2,-7.832945494479393e-2 -1.0020040080160442e-2,-7.555193033059526e-2 -6.012024048096309e-3,-7.463026757567603e-2 -2.004008016032177e-3,-7.175697675998205e-2 2.004008016031955e-3,-6.889890046921221e-2 6.012024048096087e-3,-6.959070099768772e-2 1.002004008016022e-2,-6.690958485669951e-2 1.4028056112224352e-2,-6.42470311426171e-2 1.8036072144288484e-2,-6.390622244510757e-2 2.2044088176352616e-2,-6.111029310085503e-2 2.605210420841675e-2,-5.834435204062782e-2 3.006012024048088e-2,-5.587456103504429e-2 3.406813627254501e-2,-5.3922238560510705e-2 3.8076152304609145e-2,-5.116213076214371e-2 4.208416833667328e-2,-4.84274106990521e-2 4.609218436873741e-2,-4.5694727491360165e-2 5.010020040080154e-2,-4.3185564033242585e-2 5.4108216432865675e-2,-4.1450664583285834e-2 5.811623246492981e-2,-3.915056989930976e-2 6.212424849699394e-2,-3.6495524193745243e-2 6.613226452905807e-2,-3.489280976415032e-2 7.01402805611222e-2,-3.384798642300679e-2 7.414829659318634e-2,-3.129281605347134e-2 7.815631262525047e-2,-3.348192867963462e-2 8.21643286573146e-2,-3.097336397092243e-2 8.617234468937873e-2,-2.9337762995957584e-2 9.018036072144286e-2,-2.6719232347315103e-2 9.4188376753507e-2,-2.4581147864589536e-2 9.819639278557113e-2,-2.2208325840259224e-2 0.10220440881763526,-1.9597257856875383e-2 0.1062124248496994,-1.726485664053512e-2 0.11022044088176353,-1.7265364951788098e-2 0.11422845691382766,-2.3882929434198674e-2 0.11823647294589179,-2.1286875448476406e-2 0.12224448897795592,-1.9796688438245558e-2 0.12625250501002006,-1.7791898422034214e-2 0.13026052104208397,-1.5452782933870424e-2 0.1342685370741481,-1.3846245112340894e-2 0.13827655310621223,-1.4241985745567343e-2 0.14228456913827636,-1.1669396167889423e-2 0.1462925851703405,-9.168554375438398e-3 0.15030060120240463,-6.674354937714955e-3 0.15430861723446876,-4.542565124567077e-3 0.1583166332665329,-2.017858059161104e-3 0.16232464929859702,-6.03848087897374e-4 0.16633266533066116,1.690282328047077e-3 0.1703406813627253,4.182359171314931e-3 0.17434869739478942,5.753887684429193e-3 0.17835671342685355,8.193637496873685e-3 0.18236472945891768,1.0659497535202789e-2 0.18637274549098182,1.2903653735712728e-2 0.19038076152304595,1.5319909701404122e-2 0.19438877755511008,1.7745330838963513e-2 0.1983967935871742,1.8422596748043307e-2 0.20240480961923835,2.0626525514112815e-2 0.20641282565130248,2.300407357172024e-2 0.2104208416833666,2.4968094826839926e-2 0.21442885771543074,2.7345641595973635e-2 0.21843687374749488,2.971348721637329e-2 0.222444889779559,3.029534409739293e-2 0.22645290581162314,3.245520128923429e-2 0.23046092184368727,3.2634807527041565e-2 0.2344689378757514,3.4277232793264445e-2 0.23847695390781554,2.872997853134074e-2 0.24248496993987967,3.098359718220728e-2 0.2464929859719438,3.30225176022077e-2 0.25050100200400793,3.5066922129033284e-2 0.25450901803607207,2.118010393230013e-2 0.2585170340681362,2.199258284000838e-2 0.26252505010020033,2.3578206013803726e-2 0.26653306613226446,2.4056104371776743e-2 0.2705410821643286,2.5428000539772733e-2 0.2745490981963927,2.6492075275400206e-2 0.27855711422845686,2.709662778205263e-2 0.282565130260521,2.920576590088092e-2 0.2865731462925851,2.7597188640197057e-2 0.29058116232464926,2.9929115640687343e-2 0.2945891783567134,3.0334551097046525e-2 0.2985971943887775,3.1380332685391255e-2 0.30260521042084165,3.361642738504117e-2 0.3066132264529058,3.1237281836564768e-2 0.3106212424849699,3.339627859579275e-2 0.31462925851703405,2.3774605032624352e-2 0.3186372745490982,2.448234550509293e-2 0.3226452905811623,2.5946079565937363e-2 0.32665330661322645,2.5599917810836204e-2 0.3306613226452906,2.74926349792024e-2 0.3346693386773545,2.984735786794296e-2 0.3386773547094186,3.2049722185664875e-2 0.34268537074148275,3.402546312961513e-2 0.3466933867735469,3.625433926226579e-2 0.350701402805611,3.857104189787963e-2 0.35470941883767515,3.856253610295546e-2 0.3587174348697393,4.070628556796385e-2 0.3627254509018034,4.0853610544271e-2 0.36673346693386755,4.306331279369435e-2 0.3707414829659317,4.5210147100102016e-2 0.3747494989979958,4.4716223100629504e-2 0.37875751503005994,4.6921903715911595e-2 0.3827655310621241,4.887815854110927e-2 0.3867735470941882,5.03716569098544e-2 0.39078156312625234,5.122170870027881e-2 0.3947895791583165,5.332002970304922e-2 0.3987975951903806,5.41832708275915e-2 0.40280561122244474,5.6245992996181104e-2 0.40681362725450887,5.762337981425675e-2 0.410821643286573,5.98298237155071e-2 0.41482965931863713,6.1607929564605646e-2 0.41883767535070127,6.372960858538507e-2 0.4228456913827654,6.547234302662419e-2 0.42685370741482953,6.76429850696546e-2 0.43086172344689366,6.93262630733475e-2 0.4348697394789578,6.998817091722864e-2 0.4388777555110219,7.188473672142404e-2 0.44288577154308606,7.26867807203434e-2 0.4468937875751502,7.467758814319131e-2 0.4509018036072143,7.56660209180744e-2 0.45490981963927846,7.731315468679256e-2 0.4589178356713426,7.83932738139006e-2 0.4629258517034067,7.916444179616827e-2 0.46693386773547085,8.1118655227157e-2 0.470941883767535,8.29077727586025e-2 0.4749498997995991,8.102746101436681e-2 0.47895791583166325,8.043128134778527e-2 0.4829659318637274,8.077145523189799e-2 0.4869739478957915,5.601995704343088e-2 0.49098196392785565,5.360397044214127e-2 0.4949899799599198,5.5831546486688644e-2 0.4989979959919839,4.8650541918823065e-2 0.503006012024048,4.9570327073254594e-2 0.5070140280561122,4.741615049762227e-2 0.5110220440881763,4.365005615911105e-2 0.5150300601202404,2.1988719656286237e-2 0.5190380761523046,2.422739225380055e-2 0.5230460921843687,2.1296440298015362e-2 0.5270541082164328,2.0051197447104596e-2 0.531062124248497,2.070440144436586e-2 0.5350701402805611,2.14450069803252e-2 0.539078156312625,2.38279334104069e-2 0.5430861723446891,8.126675534551264e-3 0.5470941883767533,7.589685786524636e-3 0.5511022044088174,9.778716620567451e-3 0.5551102204408815,1.1185493270667035e-2 0.5591182364729457,9.70268875996222e-3 0.5631262525050098,1.215721719089008e-2 0.5671342685370739,1.328246185065246e-2 0.5711422845691381,1.2871402798457832e-2 0.5751503006012022,1.1267350134911092e-2 0.5791583166332663,1.3711786582639551e-2 0.5831663326653305,1.6142270635939482e-2 0.5871743486973946,1.8567595855867813e-2 0.5911823647294587,1.9799255407702665e-2 0.5951903807615229,2.2060970322744344e-2 0.599198396793587,2.4416143096813725e-2 0.6032064128256511,2.6450930463394196e-2 0.6072144288577153,2.8709090165860485e-2 0.6112224448897794,3.1071089600564872e-2 0.6152304609218435,3.341583464215503e-2 0.6192384769539077,3.4977927519375174e-2 0.6232464929859718,3.730145427731851e-2 0.6272545090180359,3.750328093038374e-2 0.6312625250501,3.8919614953126125e-2 0.6352705410821642,4.101432699324259e-2 0.6392785571142283,4.243406148443962e-2 0.6432865731462925,4.412332074829162e-2 0.6472945891783566,4.202983201984889e-2 0.6513026052104207,3.531596702259027e-2 0.6553106212424848,3.5983911212413844e-2 0.659318637274549,3.3097941509071305e-2 0.6633266533066131,3.48349083542443e-2 0.6673346693386772,3.0447867075438007e-2 0.6713426853707414,3.0662518692837093e-2 0.6753507014028055,3.1984985123963194e-2 0.6793587174348696,3.132043252952532e-2 0.6833667334669338,3.359201494441155e-2 0.6873747494989979,3.3479836421548725e-2 0.691382765531062,3.56642044803514e-2 0.6953907815631262,3.784039561564634e-2 0.6993987975951903,3.965260602580478e-2 0.7034068136272544,4.082462819729721e-2 0.7074148296593186,4.26931023051097e-2 0.7114228456913827,4.482136718303409e-2 0.7154308617234468,4.7041018159771575e-2 0.719438877755511,4.8948199662914194e-2 0.7234468937875751,5.049149163691424e-2 0.7274549098196392,5.269477962434821e-2 0.7314629258517034,5.472706662522808e-2 0.7354709418837675,5.66064632973588e-2 0.7394789579158316,5.649970133349086e-2 0.7434869739478958,5.845096073372791e-2 0.7474949899799597,6.057316408440938e-2 0.7515030060120238,6.27756769451801e-2 0.7555110220440879,6.483846680227673e-2 0.7595190380761521,6.691242610284942e-2 0.7635270541082162,6.888909584189512e-2 0.7675350701402803,7.102408861990239e-2 0.7715430861723445,7.317428750787969e-2 0.7755511022044086,7.531259749068775e-2 0.7795591182364727,7.599162140175286e-2 0.7835671342685369,7.811607521552177e-2 0.787575150300601,8.018225079338892e-2 0.7915831663326651,8.170233907205121e-2 0.7955911823647293,8.365281371880356e-2 0.7995991983967934,8.566727772708693e-2 0.8036072144288575,8.63378321587166e-2 0.8076152304609217,8.834419676000804e-2 0.8116232464929858,9.004755892343541e-2 0.8156312625250499,9.141403535329434e-2 0.819639278557114,9.079968543851635e-2 0.8236472945891782,9.12495588618985e-2 0.8276553106212423,9.228639259457294e-2 0.8316633266533064,9.43050250467598e-2 0.8356713426853706,9.413236490790672e-2 0.8396793587174347,9.571241599444641e-2 0.8436873747494988,9.764556361690646e-2 0.847695390781563,9.950248550153279e-2 0.8517034068136271,9.958268788488911e-2 0.8557114228456912,0.10157650258071549 0.8597194388777554,0.10229755649365774 0.8637274549098195,0.10428479089587295 0.8677354709418836,0.10622203350733017 0.8717434869739478,0.10776879836850778 0.8757515030060119,0.10919578950799219 0.879759519038076,0.11115482686926814 0.8837675350701402,0.11306915655156224 0.8877755511022043,0.1144213466103447 0.8917835671342684,0.11633103335279293 0.8957915831663326,0.11681454827309184 0.8997995991983967,0.11858739501710158 0.9038076152304608,0.11866145070623502 0.907815631262525,0.11849771093825268 0.9118236472945891,0.12017175612786146 0.9158316633266532,0.12163807991062553 0.9198396793587174,0.1229886708558976 0.9238476953907815,0.12377831988601568 0.9278557114228456,0.12519438909851 0.9318637274549098,0.12584935976526002 0.9358717434869739,0.12752532318257348 0.939879759519038,0.12936182282994863 0.9438877755511021,0.12938085558327284 0.9478957915831663,0.13096417792956982 0.9519038076152302,0.13235837671100276 0.9559118236472943,0.134184862714687 0.9599198396793585,0.13601773746974027 0.9639278557114226,0.13439771860896055 0.9679358717434867,0.12682349961967654 0.9719438877755509,0.1258282120955152 0.975951903807615,0.12761086021123969 0.9799599198396791,0.12929461892025923 0.9839679358717432,0.11962943286442701 0.9879759519038074,0.12011312777426059 0.9919839679358715,0.11549237563655801 0.9959919839679356,0.11396719512013725 0.9999999999999998,0.11571931015737891" /></g><g stroke-width="5.0e-3" stroke="#02C814" fill="none" stroke-opacity="0.5"><polyline points="-1.0,0.1652806020581828 -0.9959919839679359,0.16598241191790275 -0.9919839679358717,0.16396598905110737 -0.9879759519038076,0.16253586123460195 -0.9839679358717435,0.1633133049626001 -0.9799599198396793,0.16336126458012162 -0.9759519038076152,0.16349049448992803 -0.9719438877755511,0.16426379824652448 -0.9679358717434869,0.16107087851262797 -0.9639278557114228,0.1598114401048326 -0.9599198396793587,0.15752356354888603 -0.9559118236472945,0.15597512478760872 -0.9519038076152304,0.15350122636717234 -0.9478957915831663,0.15396312156752157 -0.9438877755511023,0.15297851861305145 -0.9398797595190381,0.15370817370234297 -0.935871743486974,0.15448108805138105 -0.9318637274549099,0.1550317587555769 -0.9278557114228457,0.15130700694323468 -0.9238476953907816,0.15203931448073849 -0.9198396793587175,0.15201009714136432 -0.9158316633266533,0.15213022172049812 -0.9118236472945892,0.15289096162194526 -0.9078156312625251,0.15366524405150728 -0.9038076152304609,0.15080102137602602 -0.8997995991983968,0.15158431094710462 -0.8957915831663327,0.1522816579045994 -0.8917835671342685,0.14215767505957683 -0.8877755511022044,0.13561804399025262 -0.8837675350701403,0.12573515078342545 -0.8797595190380761,0.12176152143119345 -0.875751503006012,0.12245599840506333 -0.8717434869739479,0.12067528443604897 -0.8677354709418837,0.11370335903464501 -0.8637274549098196,0.11240984751381017 -0.8597194388777555,0.11149586101292408 -0.8557114228456915,0.11178304499434738 -0.8517034068136273,0.10527979186328446 -0.8476953907815632,0.10604863307109247 -0.8436873747494991,0.10320105972909804 -0.8396793587174349,0.10358740195231747 -0.8356713426853708,0.10362372470315095 -0.8316633266533067,0.10435912572901718 -0.8276553106212425,0.1044270968145195 -0.8236472945891784,0.103867407623426 -0.8196392785571143,0.10475990208291924 -0.8156312625250501,0.10509139470408124 -0.811623246492986,0.10481085911974797 -0.8076152304609219,0.10569874789060496 -0.8036072144288577,0.10383344608054124 -0.7995991983967936,0.10469591567720538 -0.7955911823647295,0.10417763451943479 -0.7915831663326653,0.10506138403305632 -0.7875751503006012,0.10488302657136911 -0.7835671342685371,0.10570628041547098 -0.779559118236473,0.1057603875960828 -0.7755511022044088,0.10654560271711777 -0.7715430861723447,0.10526773588058386 -0.7675350701402806,0.10602386025703259 -0.7635270541082164,0.10689939803541126 -0.7595190380761523,0.10658268282845629 -0.7555110220440882,0.10635692862437451 -0.751503006012024,0.10721797651505094 -0.7474949899799599,0.108094649453161 -0.7434869739478958,0.10819352336325577 -0.7394789579158316,0.10888968147562172 -0.7354709418837675,0.10973636619552612 -0.7314629258517034,0.11046656919931691 -0.7274549098196392,0.11066387862381666 -0.7234468937875751,0.11134031456993715 -0.719438877755511,0.11209996703666536 -0.7154308617234469,0.11287142062734518 -0.7114228456913828,0.11361551194256053 -0.7074148296593187,0.11236931261493854 -0.7034068136272545,0.11111853647714992 -0.6993987975951904,0.11120357669427844 -0.6953907815631263,0.11055185111041477 -0.6913827655310621,0.11119456944919298 -0.687374749498998,0.11205777387458615 -0.6833667334669339,0.11200718688716554 -0.6793587174348698,0.11284493520448674 -0.6753507014028056,0.11361009499007907 -0.6713426853707415,0.1144633315795458 -0.6673346693386774,0.11529827123128777 -0.6633266533066133,0.11584543652188156 -0.6593186372745492,0.11664371396696682 -0.6553106212424851,0.11745622915384868 -0.6513026052104209,0.11819859574001262 -0.6472945891783568,0.11874055702725028 -0.6432865731462927,0.11956320141329724 -0.6392785571142285,0.11971586740709694 -0.6352705410821644,0.12052919165422393 -0.6312625250501003,0.11840245544896194 -0.6272545090180361,0.11920017509898656 -0.623246492985972,0.11884832821279845 -0.6192384769539079,0.11921293825893636 -0.6152304609218437,0.12005087974955009 -0.6112224448897796,0.12078860194536983 -0.6072144288577155,0.121200494451708 -0.6032064128256514,0.12107202760024166 -0.5991983967935872,0.12098481383310544 -0.5951903807615231,0.12082675671849341 -0.591182364729459,0.12153630032659862 -0.5871743486973948,0.12151857724999587 -0.5831663326653307,0.12137929017224341 -0.5791583166332666,0.12220690790784705 -0.5751503006012024,0.12300027471977365 -0.5711422845691383,0.12365798242046272 -0.5671342685370742,0.12444656837808166 -0.56312625250501,0.12497206468847905 -0.5591182364729459,0.12576167085322904 -0.5551102204408818,0.12655730832101397 -0.5511022044088176,0.12711474149494528 -0.5470941883767535,0.1268765109134415 -0.5430861723446894,0.12749980964348073 -0.5390781563126252,0.1275632685613125 -0.5350701402805611,0.1277928975912071 -0.531062124248497,0.1283303599573415 -0.5270541082164328,0.12910586602931112 -0.5230460921843687,0.12963531806874623 -0.5190380761523046,0.13020025208567337 -0.5150300601202404,0.13087910764430993 -0.5110220440881764,0.13161137877025403 -0.5070140280561123,0.1324042033758932 -0.5030060120240482,0.13314458707918403 -0.498997995991984,0.13306175585969854 -0.4949899799599199,0.13355304908808924 -0.49098196392785576,0.13384704523925128 -0.4869739478957916,0.13365197051287564 -0.4829659318637275,0.13364688690828996 -0.47895791583166336,0.1343311706808482 -0.47494989979959923,0.13507549759788534 -0.4709418837675351,0.13583609567555954 -0.46693386773547096,0.13661359034040949 -0.46292585170340683,0.13732665600222543 -0.4589178356713427,0.13764455878423154 -0.45490981963927857,0.1376898924849455 -0.45090180360721444,0.13847468017641246 -0.4468937875751503,0.13887570164172214 -0.44288577154308617,0.13927278054557385 -0.43887775551102204,0.14005166401880315 -0.434869739478958,0.14075455804692705 -0.4308617234468939,0.14135795196435008 -0.42685370741482975,0.14186297541911902 -0.4228456913827656,0.14252140582873202 -0.4188376753507015,0.1432686511147142 -0.41482965931863736,0.1438894690045458 -0.4108216432865732,0.14465932013028804 -0.4068136272545091,0.14509487051187114 -0.40280561122244496,0.14586077447478935 -0.3987975951903808,0.1460449049246786 -0.3947895791583167,0.1464621855886265 -0.39078156312625256,0.14721940539869383 -0.38677354709418843,0.14718842323108938 -0.3827655310621243,0.14793505999457507 -0.37875751503006017,0.14843255163025826 -0.37474949899799603,0.14913528404593118 -0.3707414829659319,0.14966014769800812 -0.36673346693386777,0.15034283015156358 -0.36272545090180364,0.15109114857357336 -0.3587174348697395,0.15170021285628055 -0.35470941883767537,0.15243528711000565 -0.35070140280561124,0.1531836758025824 -0.3466933867735471,0.15273449763759023 -0.342685370741483,0.15290730481988768 -0.33867735470941884,0.15364090494220128 -0.3346693386773547,0.15432730276998774 -0.3306613226452907,0.13765503091233755 -0.32665330661322656,0.13187205753213688 -0.3226452905811624,0.1298938537876908 -0.3186372745490983,0.13012161658270816 -0.31462925851703416,0.12461704162864684 -0.31062124248497003,0.12541696472458758 -0.3066132264529059,0.12306391377794468 -0.30260521042084176,0.1238659257442069 -0.29859719438877763,0.12436637239333209 -0.2945891783567135,0.12468653143950681 -0.29058116232464937,0.11149771237173611 -0.28657314629258523,0.10775366831214261 -0.2825651302605211,0.10434543157836546 -0.27855711422845697,0.10458069233406625 -0.27454909819639284,0.10223262805782635 -0.2705410821643287,0.10158059687037635 -0.2665330661322646,0.10102601432570879 -0.26252505010020044,0.10129426386930857 -0.2585170340681363,0.10176781495478487 -0.2545090180360722,0.10214432978680016 -0.25050100200400804,9.730642451692989e-2 -0.2464929859719439,9.805567379199731e-2 -0.24248496993987978,9.768981778428854e-2 -0.23847695390781565,9.31651456970079e-2 -0.23446893787575152,9.399473536067537e-2 -0.2304609218436875,9.405654413918024e-2 -0.22645290581162336,9.352820515686805e-2 -0.22244488977955923,9.434524917531562e-2 -0.2184368737474951,9.141904340689505e-2 -0.21442885771543096,8.78570303005608e-2 -0.21042084168336683,8.862562700502008e-2 -0.2064128256513027,8.892301616451748e-2 -0.20240480961923857,8.677914784585111e-2 -0.19839679358717444,8.753669183465651e-2 -0.1943887775551103,8.19277878911342e-2 -0.19038076152304617,8.274162102003207e-2 -0.18637274549098204,8.284183211246432e-2 -0.1823647294589179,8.230673029684465e-2 -0.17835671342685377,6.939499362950069e-2 -0.17434869739478964,7.027472202140284e-2 -0.1703406813627255,6.426482256557553e-2 -0.16633266533066138,6.51575260377254e-2 -0.16232464929859725,6.607956081968241e-2 -0.1583166332665331,6.665782295311451e-2 -0.15430861723446898,6.757748331042718e-2 -0.15030060120240485,6.391849233052466e-2 -0.14629258517034072,5.951129221055523e-2 -0.14228456913827658,6.044644005829347e-2 -0.13827655310621245,5.851197025151306e-2 -0.13426853707414832,5.647677588046507e-2 -0.1302605210420842,5.237929064658481e-2 -0.12625250501002017,4.46671303708977e-2 -0.12224448897795603,1.8789223221792883e-2 -0.1182364729458919,1.8977316944688183e-2 -0.11422845691382777,1.998388070519591e-2 -0.11022044088176364,2.0186661291246022e-2 -0.1062124248496995,2.1182339969442743e-2 -0.10220440881763537,1.5376550410901524e-2 -9.819639278557124e-2,3.991304935985873e-3 -9.418837675350711e-2,4.512100109557715e-3 -9.018036072144298e-2,4.562405962860394e-3 -8.617234468937884e-2,5.432986822935804e-3 -8.216432865731471e-2,6.264515381073588e-3 -7.815631262525058e-2,7.3086816839932345e-3 -7.414829659318645e-2,8.049545027726146e-3 -7.014028056112231e-2,7.87601947006722e-3 -6.613226452905818e-2,8.866419108640555e-3 -6.212424849699405e-2,9.302328889123912e-3 -5.811623246492992e-2,8.529452790433767e-3 -5.4108216432865786e-2,7.347602291650657e-3 -5.010020040080165e-2,8.340746311983838e-3 -4.609218436873752e-2,9.361675486014243e-3 -4.208416833667339e-2,9.651220782959269e-3 -3.8076152304609256e-2,9.996693259898215e-3 -3.4068136272545124e-2,1.1004471638632163e-2 -3.0060120240480992e-2,9.51648428882046e-3 -2.605210420841686e-2,9.79654533095825e-3 -2.204408817635284e-2,1.0825199635924154e-2 -1.8036072144288706e-2,1.1396235936085908e-2 -1.4028056112224574e-2,1.2211975196978975e-2 -1.0020040080160442e-2,1.317394397854732e-2 -6.012024048096309e-3,1.3197953564889231e-2 -2.004008016032177e-3,1.422110286119127e-2 2.004008016031955e-3,1.524155003955413e-2 6.012024048096087e-3,1.4545738120421536e-2 1.002004008016022e-2,1.5485403864332559e-2 1.4028056112224352e-2,1.6412746260014544e-2 1.8036072144288484e-2,1.62218266238906e-2 2.2044088176352616e-2,1.722426438072472e-2 2.605210420841675e-2,1.8216457251632512e-2 3.006012024048088e-2,1.9068972023122077e-2 3.406813627254501e-2,1.9675761754818333e-2 3.8076152304609145e-2,2.0676609152200376e-2 4.208416833667328e-2,2.167054546046676e-2 4.609218436873741e-2,2.2667617765047277e-2 5.010020040080154e-2,2.356196706492275e-2 5.4108216432865675e-2,2.4089133749035152e-2 5.811623246492981e-2,2.4892911900712633e-2 6.212424849699394e-2,2.5867581658918393e-2 6.613226452905807e-2,2.6344993237105485e-2 7.01402805611222e-2,2.6553519539978643e-2 7.414829659318634e-2,2.748470266780484e-2 7.815631262525047e-2,2.621040906257005e-2 8.21643286573146e-2,2.7126599888394054e-2 8.617234468937873e-2,2.7634183559708925e-2 9.018036072144286e-2,2.8608829767688693e-2 9.4188376753507e-2,2.9358121729658515e-2 9.819639278557113e-2,3.0220041317929158e-2 0.10220440881763526,3.1201979400239166e-2 0.1062124248496994,3.20624866836719e-2 0.11022044088176353,3.1826252970744484e-2 0.11422845691382766,2.856618820421647e-2 0.11823647294589179,2.9538988959528722e-2 0.12224448897795592,3.000323582910941e-2 0.12625250501002006,3.0711290322592177e-2 0.13026052104208397,3.1574563945270084e-2 0.1342685370741481,3.210079914689373e-2 0.13827655310621223,3.169595810056025e-2 0.14228456913827636,3.267407982503995e-2 0.1462925851703405,3.36174115763031e-2 0.15030060120240463,3.456125051376574e-2 0.15430861723446876,3.533553096493952e-2 0.1583166332665329,3.630264982023074e-2 0.16232464929859702,3.679511511477013e-2 0.16633266533066116,3.765726174807671e-2 0.1703406813627253,3.862170890350547e-2 0.17434869739478942,3.915572970213965e-2 0.17835671342685355,4.010539452520723e-2 0.18236472945891768,4.106577028775904e-2 0.18637274549098182,4.194063156439354e-2 0.19038076152304595,4.2881799324683445e-2 0.19438877755511008,4.3832089798133245e-2 0.1983967935871742,4.398592124158124e-2 0.20240480961923835,4.4856707398805096e-2 0.20641282565130248,4.579848013196247e-2 0.2104208416833666,4.654191104389893e-2 0.21442885771543074,4.7483476028745975e-2 0.21843687374749488,4.8424430920893324e-2 0.222444889779559,4.8629248228210464e-2 0.22645290581162314,4.9494289300101746e-2 0.23046092184368727,4.9466460897308606e-2 0.2344689378757514,5.0123010770156184e-2 0.23847695390781554,4.769901939963389e-2 0.24248496993987967,4.859607828335938e-2 0.2464929859719438,4.940379498521258e-2 0.25050100200400793,5.0212197435130834e-2 0.25450901803607207,4.411137633339912e-2 0.2585170340681362,4.438287548139236e-2 0.26252505010020033,4.498383156569258e-2 0.26653306613226446,4.510102579278641e-2 0.2705410821643286,4.560816034542303e-2 0.2745490981963927,4.597832391445045e-2 0.27855711422845686,4.616316290786743e-2 0.282565130260521,4.699284553992039e-2 0.2865731462925851,4.620547318306212e-2 0.29058116232464926,4.713560984233667e-2 0.2945891783567134,4.7214857708713975e-2 0.2985971943887775,4.756752229363037e-2 0.30260521042084165,4.846698732600735e-2 0.3066132264529058,4.7319969993171285e-2 0.3106212424849699,4.816230965382212e-2 0.31462925851703405,4.4048532385176975e-2 0.3186372745490982,4.4288790033606806e-2 0.3226452905811623,4.4846848890614854e-2 0.32665330661322645,4.462204586194024e-2 0.3306613226452906,4.5355977110088375e-2 0.3346693386773545,4.629408031229937e-2 0.3386773547094186,4.717063330716975e-2 0.34268537074148275,4.794980016422257e-2 0.3466933867735469,4.8843415408730995e-2 0.350701402805611,4.9775437354286356e-2 0.35470941883767515,4.971287206359443e-2 0.3587174348697393,5.0569589142190785e-2 0.3627254509018034,5.056516992279575e-2 0.36673346693386755,5.1463909181063694e-2 0.3707414829659317,5.233986335996471e-2 0.3747494989979958,5.2123982477148056e-2 0.37875751503005994,5.3022144991190456e-2 0.3827655310621241,5.381137476420417e-2 0.3867735470941882,5.440417670110814e-2 0.39078156312625234,5.472132329535073e-2 0.3947895791583165,5.557203497080565e-2 0.3987975951903806,5.5891802827137516e-2 0.40280561122244474,5.6750679397357395e-2 0.40681362725450887,5.7339463680384506e-2 0.410821643286573,5.82485898119503e-2 0.41482965931863713,5.897146507036477e-2 0.41883767535070127,5.984567555906095e-2 0.4228456913827654,6.055623386758585e-2 0.42685370741482953,6.1464279941129074e-2 0.43086172344689366,6.219268554539775e-2 0.4348697394789578,6.251719091770991e-2 0.4388777555110219,6.33065744246088e-2 0.44288577154308606,6.368734254842301e-2 0.4468937875751502,6.452181638865062e-2 0.4509018036072143,6.494028758512704e-2 0.45490981963927846,6.562977892568811e-2 0.4589178356713426,6.613415915051946e-2 0.4629258517034067,6.6466013686028e-2 0.46693386773547085,6.73091084653662e-2 0.470941883767535,6.809146005086664e-2 0.4749498997995991,6.743373189157525e-2 0.47895791583166325,6.726341818010273e-2 0.4829659318637274,6.745408588964891e-2 0.4869739478957915,5.736051359821165e-2 0.49098196392785565,5.64006800389491e-2 0.4949899799599198,5.731369044308643e-2 0.4989979959919839,5.4348397719652e-2 0.503006012024048,5.470419051351655e-2 0.5070140280561122,5.3758571579245074e-2 0.5110220440881763,5.218055832385721e-2 0.5150300601202404,4.284416027378862e-2 0.5190380761523046,4.373022566802298e-2 0.5230460921843687,4.243550948987829e-2 0.5270541082164328,4.182922445736148e-2 0.531062124248497,4.200721509690647e-2 0.5350701402805611,4.224798267463248e-2 0.539078156312625,4.318399333628431e-2 0.5430861723446891,3.62307020506375e-2 0.5470941883767533,3.5917280140314756e-2 0.5511022044088174,3.674099915913781e-2 0.5551102204408815,3.7258146579636275e-2 0.5591182364729457,3.652457747196658e-2 0.5631262525050098,3.747827494523065e-2 0.5671342685370739,3.784930551496629e-2 0.5711422845691381,3.757942037502038e-2 0.5751503006012022,3.677462124394293e-2 0.5791583166332663,3.772546549846578e-2 0.5831663326653305,3.867475184096447e-2 0.5871743486973946,3.9624491805131e-2 0.5911823647294587,4.005418785523629e-2 0.5951903807615229,4.093325564741496e-2 0.599198396793587,4.186337466505985e-2 0.6032064128256511,4.266447796881345e-2 0.6072144288577153,4.355243930363878e-2 0.6112224448897794,4.4491492887806294e-2 0.6152304609218435,4.542683979487455e-2 0.6192384769539077,4.604312258926524e-2 0.6232464929859718,4.697414175943393e-2 0.6272545090180359,4.702295161355008e-2 0.6312625250501,4.7575271707677336e-2 0.6352705410821642,4.841636510809871e-2 0.6392785571142283,4.897724381237484e-2 0.6432865731462925,4.965390887859494e-2 0.6472945891783566,4.875093389453594e-2 0.6513026052104207,4.586355890686028e-2 0.6553106212424848,4.612688785917862e-2 0.659318637274549,4.4898769291680074e-2 0.6633266533066131,4.557386472624847e-2 0.6673346693386772,4.363855657172089e-2 0.6713426853707414,4.370218402639281e-2 0.6753507014028055,4.421862839800872e-2 0.6793587174348696,4.389822084034084e-2 0.6833667334669338,4.4801372638991976e-2 0.6873747494989979,4.470644372599908e-2 0.691382765531062,4.557795623195354e-2 0.6953907815631262,4.6446055785261287e-2 0.6993987975951903,4.71687607526875e-2 0.7034068136272544,4.762185435865085e-2 0.7074148296593186,4.8373447161096594e-2 0.7114228456913827,4.923056063126119e-2 0.7154308617234468,5.012836954515382e-2 0.719438877755511,5.089704655203392e-2 0.7234468937875751,5.151404575796348e-2 0.7274549098196392,5.241619920263396e-2 0.7314629258517034,5.324227540793164e-2 0.7354709418837675,5.40223240574676e-2 0.7394789579158316,5.396639520387159e-2 0.7434869739478958,5.475986566093588e-2 0.7474949899799597,5.564160477284563e-2 0.7515030060120238,5.655182327806091e-2 0.7555110220440879,5.740131075931215e-2 0.7595190380761521,5.825784594635264e-2 0.7635270541082162,5.9094541474328355e-2 0.7675350701402803,5.998399341124716e-2 0.7715430861723445,6.088489977429545e-2 0.7755511022044086,6.1782985315057215e-2 0.7795591182364727,6.2077596791233425e-2 0.7835671342685369,6.2974658062882e-2 0.787575150300601,6.385589508512918e-2 0.7915831663326651,6.453710346710123e-2 0.7955911823647293,6.537912628176124e-2 0.7995991983967934,6.623497635418041e-2 0.8036072144288575,6.654631713790687e-2 0.8076152304609217,6.740013062911648e-2 0.8116232464929858,6.81281686123974e-2 0.8156312625250499,6.876826941145586e-2 0.819639278557114,6.865617415181624e-2 0.8236472945891782,6.893829197298212e-2 0.8276553106212423,6.941381864636198e-2 0.8316633266533064,7.028220520708933e-2 0.8356713426853706,7.027936626011216e-2 0.8396793587174347,7.099859805471287e-2 0.8436873747494988,7.184629818687499e-2 0.847695390781563,7.265225597340169e-2 0.8517034068136271,7.275466568786487e-2 0.8557114228456912,7.362600385502244e-2 0.8597194388777554,7.397765132381934e-2 0.8637274549098195,7.484822754987774e-2 0.8677354709418836,7.570595365694432e-2 0.8717434869739478,7.639038159681355e-2 0.8757515030060119,7.70265685681919e-2 0.879759519038076,7.789017748466559e-2 0.8837675350701402,7.874568003991156e-2 0.8877755511022043,7.935766993585602e-2 0.8917835671342684,8.02134712311734e-2 0.8957915831663326,8.057606196853717e-2 0.8997995991983967,8.136459151898395e-2 0.9038076152304608,8.14867434679375e-2 0.907815631262525,8.162226097931108e-2 0.9118236472945891,8.237100892705812e-2 0.9158316633266532,8.308346433958425e-2 0.9198396793587174,8.370768676656104e-2 0.9238476953907815,8.41119897514993e-2 0.9278557114228456,8.481336192909528e-2 0.9318637274549098,8.516738836513471e-2 0.9358717434869739,8.59579426139645e-2 0.939879759519038,8.678410952637972e-2 0.9438877755511021,8.689709666073941e-2 0.9478957915831663,8.761444135011875e-2 0.9519038076152302,8.831976192543417e-2 0.9559118236472943,8.915831348595954e-2 0.9599198396793585,8.99938406201577e-2 0.9639278557114226,8.965533799963377e-2 0.9679358717434867,8.7143240866421e-2 0.9719438877755509,8.688635551315838e-2 0.975951903807615,8.770308711101316e-2 0.9799599198396791,8.84642003348518e-2 0.9839679358717432,8.511631149094995e-2 0.9879759519038074,8.541113444314785e-2 0.9919839679358715,8.374859531041445e-2 0.9959919839679356,8.323178610838072e-2 0.9999999999999998,8.399452414829461e-2" /></g><g /><g stroke-width="4.0e-3" stroke="#3764A0" fill="#FFFFFF" fill-opacity="1.0" stroke-opacity="0.5"><rect width="0.42152869952511957" height="0.2586036945028296" x="0.3543888690554248" y="8.459974453182997e-2" /></g><g stroke-width="0.0" stroke="none" fill="#666666" fill-opacity="1.0" font-size="4.000000000000001e-2" text-anchor="start"><text x="0.3776456248912935" y="0.30378800604352196">rate = 0.996</text></g><g stroke-width="5.0e-3" stroke="#02C814" fill="none" stroke-opacity="0.5"><polyline points="0.7032402065934548,0.297443082683973 0.7497537182651921,0.297443082683973" /></g><g stroke-width="0.0" stroke="none" fill="#666666" fill-opacity="1.0" font-size="4.000000000000001e-2" text-anchor="start"><text x="0.3776456248912935" y="0.24899094066559896">rate = 0.99</text></g><g stroke-width="5.0e-3" stroke="#382A8C" fill="none" stroke-opacity="0.5"><polyline points="0.7032402065934548,0.24264601730605 0.7497537182651921,0.24264601730605" /></g><g stroke-width="0.0" stroke="none" fill="#666666" fill-opacity="1.0" font-size="4.000000000000001e-2" text-anchor="start"><text x="0.3776456248912935" y="0.19419387528767598">rate = 0.95</text></g><g stroke-width="5.0e-3" stroke="#3C7F2B" fill="none" stroke-opacity="0.5"><polyline points="0.7032402065934548,0.18784895192812698 0.7497537182651921,0.18784895192812698" /></g><g stroke-width="0.0" stroke="none" fill="#666666" fill-opacity="1.0" font-size="4.000000000000001e-2" text-anchor="start"><text x="0.3776456248912935" y="0.13939680990975295">zero</text></g><g stroke-width="5.0e-3" stroke="#C58C4B" fill="none" stroke-opacity="0.5"><polyline points="0.7032402065934547,0.13305188655020397 0.749753718265192,0.13305188655020397" /></g><g /></svg>