<?xml version="1.0" encoding="UTF-8"?>
<!DOCTYPE svg PUBLIC "-//W3C//DTD SVG 1.1//EN"
    "http://www.w3.org/Graphics/SVG/1.1/DTD/svg11.dtd"><svg xmlns="http://www.w3.org/2000/svg" height="400.0000" stroke-opacity="1" viewBox="0 0 600 400" font-size="1" width="600.0000" xmlns:xlink="http://www.w3.org/1999/xlink" stroke="rgb(0,0,0)" version="1.1"><defs></defs><g stroke-linejoin="miter" stroke-opacity="0.0" fill-opacity="0.2" stroke="rgb(0,0,0)" stroke-width="0.0" fill="rgb(85,85,85)" stroke-linecap="butt" stroke-miterlimit="10.0"><path d="M 94.4056,321.6783 l -0.0000,-279.7203 h -5.5944 l -0.0000,279.7203 Z"/></g><g stroke-linejoin="miter" stroke-opacity="1.0" fill-opacity="0.7" font-size="11.188811188811187px" stroke="rgb(0,0,0)" stroke-width="1.9296726052976874" fill="rgb(51,51,51)" stroke-linecap="butt" stroke-miterlimit="10.0"><text dominant-baseline="middle" transform="matrix(1.0000,0.0000,0.0000,1.0000,80.4196,78.3029)" stroke="none" text-anchor="end">0.040</text></g><g stroke-linejoin="miter" stroke-opacity="0.5" fill-opacity="0.0" stroke="rgb(26,102,204)" stroke-width="1.9296726052976874" fill="rgb(0,0,0)" stroke-linecap="butt" stroke-miterlimit="10.0"><path d="M 86.0140,78.3029 h 5.5944 "/></g><g stroke-linejoin="miter" stroke-opacity="1.0" fill-opacity="0.7" font-size="11.188811188811187px" stroke="rgb(0,0,0)" stroke-width="1.9296726052976874" fill="rgb(51,51,51)" stroke-linecap="butt" stroke-miterlimit="10.0"><text dominant-baseline="middle" transform="matrix(1.0000,0.0000,0.0000,1.0000,80.4196,115.9450)" stroke="none" text-anchor="end">0.030</text></g><g stroke-linejoin="miter" stroke-opacity="0.5" fill-opacity="0.0" stroke="rgb(26,102,204)" stroke-width="1.9296726052976874" fill="rgb(0,0,0)" stroke-linecap="butt" stroke-miterlimit="10.0"><path d="M 86.0140,115.9450 h 5.5944 "/></g><g stroke-linejoin="miter" stroke-opacity="1.0" fill-opacity="0.7" font-size="11.188811188811187px" stroke="rgb(0,0,0)" stroke-width="1.9296726052976874" fill="rgb(51,51,51)" stroke-linecap="butt" stroke-miterlimit="10.0"><text dominant-baseline="middle" transform="matrix(1.0000,0.0000,0.0000,1.0000,80.4196,153.5872)" stroke="none" text-anchor="end">0.020</text></g><g stroke-linejoin="miter" stroke-opacity="0.5" fill-opacity="0.0" stroke="rgb(26,102,204)" stroke-width="1.9296726052976874" fill="rgb(0,0,0)" stroke-linecap="butt" stroke-miterlimit="10.0"><path d="M 86.0140,153.5872 h 5.5944 "/></g><g stroke-linejoin="miter" stroke-opacity="1.0" fill-opacity="0.7" font-size="11.188811188811187px" stroke="rgb(0,0,0)" stroke-width="1.9296726052976874" fill="rgb(51,51,51)" stroke-linecap="butt" stroke-miterlimit="10.0"><text dominant-baseline="middle" transform="matrix(1.0000,0.0000,0.0000,1.0000,80.4196,191.2293)" stroke="none" text-anchor="end">0.010</text></g><g stroke-linejoin="miter" stroke-opacity="0.5" fill-opacity="0.0" stroke="rgb(26,102,204)" stroke-width="1.9296726052976874" fill="rgb(0,0,0)" stroke-linecap="butt" stroke-miterlimit="10.0"><path d="M 86.0140,191.2293 h 5.5944 "/></g><g stroke-linejoin="miter" stroke-opacity="1.0" fill-opacity="0.7" font-size="11.188811188811187px" stroke="rgb(0,0,0)" stroke-width="1.9296726052976874" fill="rgb(51,51,51)" stroke-linecap="butt" stroke-miterlimit="10.0"><text dominant-baseline="middle" transform="matrix(1.0000,0.0000,0.0000,1.0000,80.4196,228.8714)" stroke="none" text-anchor="end">0.0</text></g><g stroke-linejoin="miter" stroke-opacity="0.5" fill-opacity="0.0" stroke="rgb(26,102,204)" stroke-width="1.9296726052976874" fill="rgb(0,0,0)" stroke-linecap="butt" stroke-miterlimit="10.0"><path d="M 86.0140,228.8714 h 5.5944 "/></g><g stroke-linejoin="miter" stroke-opacity="1.0" fill-opacity="0.7" font-size="11.188811188811187px" stroke="rgb(0,0,0)" stroke-width="1.9296726052976874" fill="rgb(51,51,51)" stroke-linecap="butt" stroke-miterlimit="10.0"><text dominant-baseline="middle" transform="matrix(1.0000,0.0000,0.0000,1.0000,80.4196,266.5136)" stroke="none" text-anchor="end">-0.010</text></g><g stroke-linejoin="miter" stroke-opacity="0.5" fill-opacity="0.0" stroke="rgb(26,102,204)" stroke-width="1.9296726052976874" fill="rgb(0,0,0)" stroke-linecap="butt" stroke-miterlimit="10.0"><path d="M 86.0140,266.5136 h 5.5944 "/></g><g stroke-linejoin="miter" stroke-opacity="1.0" fill-opacity="0.7" font-size="11.188811188811187px" stroke="rgb(0,0,0)" stroke-width="1.9296726052976874" fill="rgb(51,51,51)" stroke-linecap="butt" stroke-miterlimit="10.0"><text dominant-baseline="middle" transform="matrix(1.0000,0.0000,0.0000,1.0000,80.4196,304.1557)" stroke="none" text-anchor="end">-0.020</text></g><g stroke-linejoin="miter" stroke-opacity="0.5" fill-opacity="0.0" stroke="rgb(26,102,204)" stroke-width="1.9296726052976874" fill="rgb(0,0,0)" stroke-linecap="butt" stroke-miterlimit="10.0"><path d="M 86.0140,304.1557 h 5.5944 "/></g><g stroke-linejoin="miter" stroke-opacity="0.0" fill-opacity="0.2" stroke="rgb(0,0,0)" stroke-width="0.0" fill="rgb(85,85,85)" stroke-linecap="butt" stroke-miterlimit="10.0"><path d="M 527.9720,341.2587 l -0.0000,-5.5944 h -419.5804 l -0.0000,5.5944 Z"/></g><g stroke-linejoin="miter" stroke-opacity="1.0" fill-opacity="0.7" font-size="11.188811188811187px" stroke="rgb(0,0,0)" stroke-width="1.9296726052976874" fill="rgb(51,51,51)" stroke-linecap="butt" stroke-miterlimit="10.0"><text dominant-baseline="text-before-edge" transform="matrix(1.0000,0.0000,0.0000,1.0000,501.5120,349.6503)" stroke="none" text-anchor="middle">1.7e4</text></g><g stroke-linejoin="miter" stroke-opacity="0.5" fill-opacity="0.0" stroke="rgb(26,102,204)" stroke-width="1.9296726052976874" fill="rgb(0,0,0)" stroke-linecap="butt" stroke-miterlimit="10.0"><path d="M 501.5120,338.4615 v 5.5944 "/></g><g stroke-linejoin="miter" stroke-opacity="1.0" fill-opacity="0.7" font-size="11.188811188811187px" stroke="rgb(0,0,0)" stroke-width="1.9296726052976874" fill="rgb(51,51,51)" stroke-linecap="butt" stroke-miterlimit="10.0"><text dominant-baseline="text-before-edge" transform="matrix(1.0000,0.0000,0.0000,1.0000,459.5120,349.6503)" stroke="none" text-anchor="middle">1.7e4</text></g><g stroke-linejoin="miter" stroke-opacity="0.5" fill-opacity="0.0" stroke="rgb(26,102,204)" stroke-width="1.9296726052976874" fill="rgb(0,0,0)" stroke-linecap="butt" stroke-miterlimit="10.0"><path d="M 459.5120,338.4615 v 5.5944 "/></g><g stroke-linejoin="miter" stroke-opacity="1.0" fill-opacity="0.7" font-size="11.188811188811187px" stroke="rgb(0,0,0)" stroke-width="1.9296726052976874" fill="rgb(51,51,51)" stroke-linecap="butt" stroke-miterlimit="10.0"><text dominant-baseline="text-before-edge" transform="matrix(1.0000,0.0000,0.0000,1.0000,417.5119,349.6503)" stroke="none" text-anchor="middle">1.7e4</text></g><g stroke-linejoin="miter" stroke-opacity="0.5" fill-opacity="0.0" stroke="rgb(26,102,204)" stroke-width="1.9296726052976874" fill="rgb(0,0,0)" stroke-linecap="butt" stroke-miterlimit="10.0"><path d="M 417.5119,338.4615 v 5.5944 "/></g><g stroke-linejoin="miter" stroke-opacity="1.0" fill-opacity="0.7" font-size="11.188811188811187px" stroke="rgb(0,0,0)" stroke-width="1.9296726052976874" fill="rgb(51,51,51)" stroke-linecap="butt" stroke-miterlimit="10.0"><text dominant-baseline="text-before-edge" transform="matrix(1.0000,0.0000,0.0000,1.0000,375.5119,349.6503)" stroke="none" text-anchor="middle">1.7e4</text></g><g stroke-linejoin="miter" stroke-opacity="0.5" fill-opacity="0.0" stroke="rgb(26,102,204)" stroke-width="1.9296726052976874" fill="rgb(0,0,0)" stroke-linecap="butt" stroke-miterlimit="10.0"><path d="M 375.5119,338.4615 v 5.5944 "/></g><g stroke-linejoin="miter" stroke-opacity="1.0" fill-opacity="0.7" font-size="11.188811188811187px" stroke="rgb(0,0,0)" stroke-width="1.9296726052976874" fill="rgb(51,51,51)" stroke-linecap="butt" stroke-miterlimit="10.0"><text dominant-baseline="text-before-edge" transform="matrix(1.0000,0.0000,0.0000,1.0000,333.5118,349.6503)" stroke="none" text-anchor="middle">1.7e4</text></g><g stroke-linejoin="miter" stroke-opacity="0.5" fill-opacity="0.0" stroke="rgb(26,102,204)" stroke-width="1.9296726052976874" fill="rgb(0,0,0)" stroke-linecap="butt" stroke-miterlimit="10.0"><path d="M 333.5118,338.4615 v 5.5944 "/></g><g stroke-linejoin="miter" stroke-opacity="1.0" fill-opacity="0.7" font-size="11.188811188811187px" stroke="rgb(0,0,0)" stroke-width="1.9296726052976874" fill="rgb(51,51,51)" stroke-linecap="butt" stroke-miterlimit="10.0"><text dominant-baseline="text-before-edge" transform="matrix(1.0000,0.0000,0.0000,1.0000,291.5118,349.6503)" stroke="none" text-anchor="middle">1.6e4</text></g><g stroke-linejoin="miter" stroke-opacity="0.5" fill-opacity="0.0" stroke="rgb(26,102,204)" stroke-width="1.9296726052976874" fill="rgb(0,0,0)" stroke-linecap="butt" stroke-miterlimit="10.0"><path d="M 291.5118,338.4615 v 5.5944 "/></g><g stroke-linejoin="miter" stroke-opacity="1.0" fill-opacity="0.7" font-size="11.188811188811187px" stroke="rgb(0,0,0)" stroke-width="1.9296726052976874" fill="rgb(51,51,51)" stroke-linecap="butt" stroke-miterlimit="10.0"><text dominant-baseline="text-before-edge" transform="matrix(1.0000,0.0000,0.0000,1.0000,249.5117,349.6503)" stroke="none" text-anchor="middle">1.6e4</text></g><g stroke-linejoin="miter" stroke-opacity="0.5" fill-opacity="0.0" stroke="rgb(26,102,204)" stroke-width="1.9296726052976874" fill="rgb(0,0,0)" stroke-linecap="butt" stroke-miterlimit="10.0"><path d="M 249.5117,338.4615 v 5.5944 "/></g><g stroke-linejoin="miter" stroke-opacity="1.0" fill-opacity="0.7" font-size="11.188811188811187px" stroke="rgb(0,0,0)" stroke-width="1.9296726052976874" fill="rgb(51,51,51)" stroke-linecap="butt" stroke-miterlimit="10.0"><text dominant-baseline="text-before-edge" transform="matrix(1.0000,0.0000,0.0000,1.0000,207.5117,349.6503)" stroke="none" text-anchor="middle">1.6e4</text></g><g stroke-linejoin="miter" stroke-opacity="0.5" fill-opacity="0.0" stroke="rgb(26,102,204)" stroke-width="1.9296726052976874" fill="rgb(0,0,0)" stroke-linecap="butt" stroke-miterlimit="10.0"><path d="M 207.5117,338.4615 v 5.5944 "/></g><g stroke-linejoin="miter" stroke-opacity="1.0" fill-opacity="0.7" font-size="11.188811188811187px" stroke="rgb(0,0,0)" stroke-width="1.9296726052976874" fill="rgb(51,51,51)" stroke-linecap="butt" stroke-miterlimit="10.0"><text dominant-baseline="text-before-edge" transform="matrix(1.0000,0.0000,0.0000,1.0000,165.5117,349.6503)" stroke="none" text-anchor="middle">1.6e4</text></g><g stroke-linejoin="miter" stroke-opacity="0.5" fill-opacity="0.0" stroke="rgb(26,102,204)" stroke-width="1.9296726052976874" fill="rgb(0,0,0)" stroke-linecap="butt" stroke-miterlimit="10.0"><path d="M 165.5117,338.4615 v 5.5944 "/></g><g stroke-linejoin="miter" stroke-opacity="1.0" fill-opacity="0.7" font-size="11.188811188811187px" stroke="rgb(0,0,0)" stroke-width="1.9296726052976874" fill="rgb(51,51,51)" stroke-linecap="butt" stroke-miterlimit="10.0"><text dominant-baseline="text-before-edge" transform="matrix(1.0000,0.0000,0.0000,1.0000,123.5116,349.6503)" stroke="none" text-anchor="middle">1.6e4</text></g><g stroke-linejoin="miter" stroke-opacity="0.5" fill-opacity="0.0" stroke="rgb(26,102,204)" stroke-width="1.9296726052976874" fill="rgb(0,0,0)" stroke-linecap="butt" stroke-miterlimit="10.0"><path d="M 123.5116,338.4615 v 5.5944 "/></g><g stroke-linejoin="miter" stroke-opacity="0.0" fill-opacity="2.0e-2" stroke="rgb(0,0,0)" stroke-width="0.0" fill="rgb(255,255,255)" stroke-linecap="butt" stroke-miterlimit="10.0"><path d="M 527.9720,321.6783 l -0.0000,-279.7203 h -419.5804 l -0.0000,279.7203 Z"/></g><g stroke-linejoin="miter" stroke-opacity="1.0" fill-opacity="0.0" stroke="rgb(250,165,218)" stroke-width="0.48241815132442184" fill="rgb(0,0,0)" stroke-linecap="butt" stroke-miterlimit="10.0"><path d="M 108.3916,244.5893 l 0.4200,13.8327 l 0.4200,-37.0177 l 0.4200,43.7372 l 0.4200,27.0645 l 0.4200,10.0531 l 0.4200,-5.1945 l 0.4200,7.2328 l 0.4200,-0.4777 l 0.4200,0.7768 l 0.4200,3.4208 l 0.4200,-2.8782 l 0.4200,-7.9475 l 0.4200,1.4897 l 0.4200,-24.7426 l 0.4200,-4.3338 l 0.4200,1.0856 l 0.4200,15.6568 l 0.4200,-3.1418 l 0.4200,-9.1948 l 0.4200,0.1938 l 0.4200,-1.0849 l 0.4200,10.1982 l 0.4200,10.9911 l 0.4200,-1.8837 l 0.4200,0.7595 l 0.4200,5.6989 l 0.4200,0.2523 l 0.4200,0.2238 l 0.4200,-10.0522 l 0.4200,-0.2866 l 0.4200,6.6189 l 0.4200,7.7356 l 0.4200,-1.9034 l 0.4200,2.4911 l 0.4200,-3.3601 l 0.4200,-2.9808 l 0.4200,3.6530 l 0.4200,-10.8497 l 0.4200,-46.8338 l 0.4200,-16.0797 l 0.4200,-31.5077 l 0.4200,32.0274 l 0.4200,-29.5622 l 0.4200,60.8040 l 0.4200,16.1960 l 0.4200,-12.4368 l 0.4200,-54.4474 l 0.4200,22.7781 l 0.4200,14.4310 l 0.4200,-10.9618 l 0.4200,24.1474 l 0.4200,27.2382 l 0.4200,2.0081 l 0.4200,0.1985 l 0.4200,3.8017 l 0.4200,-11.1480 l 0.4200,-6.3928 l 0.4200,12.1836 l 0.4200,-4.5927 l 0.4200,-14.0340 l 0.4200,-12.4673 l 0.4200,-46.6351 l 0.4200,23.0869 l 0.4200,43.8029 l 0.4200,14.5861 l 0.4200,3.9605 l 0.4200,0.9790 l 0.4200,0.0407 l 0.4200,0.3497 l 0.4200,-8.4671 l 0.4200,13.0722 l 0.4200,-0.3443 l 0.4200,-12.3675 l 0.4200,15.1950 l 0.4200,-14.0431 l 0.4200,-39.6562 l 0.4200,6.7470 l 0.4200,56.3983 l 0.4200,-3.9748 l 0.4200,-4.6902 l 0.4200,9.1535 l 0.4200,-15.0740 l 0.4200,-13.8478 l 0.4200,-16.2497 l 0.4200,5.8186 l 0.4200,-14.8191 l 0.4200,24.8586 l 0.4200,-5.2450 l 0.4200,-9.2685 l 0.4200,1.3630 l 0.4200,-14.4227 l 0.4200,26.6625 l 0.4200,12.7388 l 0.4200,-2.7147 l 0.4200,-4.5456 l 0.4200,8.7276 l 0.4200,-4.7478 l 0.4200,9.7851 l 0.4200,3.7911 l 0.4200,0.6357 l 0.4200,2.6996 l 0.4200,-5.9097 l 0.4200,-6.4744 l 0.4200,-6.5727 l 0.4200,13.2031 l 0.4200,4.4955 l 0.4200,1.5003 l 0.4200,-2.1009 l 0.4200,-5.6147 l 0.4200,5.1411 l 0.4200,1.5767 l 0.4200,-1.2813 l 0.4200,2.3688 l 0.4200,0.7588 l 0.4200,-4.4674 l 0.4200,-4.5263 l 0.4200,-15.2627 l 0.4200,26.6552 l 0.4200,0.2125 l 0.4200,-2.9840 l 0.4200,-29.9963 l 0.4200,-18.1541 l 0.4200,-0.8978 l 0.4200,29.6853 l 0.4200,-12.3872 l 0.4200,35.1762 l 0.4200,0.5047 l 0.4200,-1.9167 l 0.4200,-5.8781 l 0.4200,-3.3657 l 0.4200,-8.8505 l 0.4200,5.7963 l 0.4200,4.1435 l 0.4200,-6.2433 l 0.4200,15.9028 l 0.4200,-0.6214 l 0.4200,-3.7791 l 0.4200,5.1660 l 0.4200,-0.2670 l 0.4200,-0.3233 l 0.4200,0.5926 l 0.4200,-23.2336 l 0.4200,25.8793 l 0.4200,1.0068 l 0.4200,0.1955 l 0.4200,-4.0711 l 0.4200,2.6812 l 0.4200,-0.2265 l 0.4200,-19.9912 l 0.4200,-72.2396 l 0.4200,-23.4562 l 0.4200,44.8801 l 0.4200,-44.6065 l 0.4200,69.8468 l 0.4200,-21.2583 l 0.4200,-73.4616 l 0.4200,54.0408 l 0.4200,-2.5736 l 0.4200,53.0846 l 0.4200,21.9296 l 0.4200,0.5902 l 0.4200,-2.6414 l 0.4200,0.8210 l 0.4200,-6.0086 l 0.4200,-6.8539 l 0.4200,-0.3484 l 0.4200,12.7074 l 0.4200,-6.5673 l 0.4200,4.3702 l 0.4200,-8.3346 l 0.4200,4.6072 l 0.4200,1.4385 l 0.4200,-7.1592 l 0.4200,-3.9699 l 0.4200,16.4766 l 0.4200,-22.0397 l 0.4200,4.3269 l 0.4200,-0.9557 l 0.4200,2.3080 l 0.4200,4.5273 l 0.4200,11.3695 l 0.4200,0.5604 l 0.4200,-2.0930 l 0.4200,-5.6592 l 0.4200,13.7236 l 0.4200,-1.4476 l 0.4200,2.8159 l 0.4200,-0.1537 l 0.4200,1.2706 l 0.4200,-3.1132 l 0.4200,3.4928 l 0.4200,-7.4924 l 0.4200,-4.3362 l 0.4200,8.8191 l 0.4200,4.1281 l 0.4200,-6.4512 l 0.4200,-3.6584 l 0.4200,4.5457 l 0.4200,3.7814 l 0.4200,-23.6687 l 0.4200,12.3675 l 0.4200,16.8743 l 0.4200,-30.8112 l 0.4200,-28.8271 l 0.4200,33.8920 l 0.4200,16.3045 l 0.4200,9.5521 l 0.4200,-0.0119 l 0.4200,-1.0269 l 0.4200,-2.8239 l 0.4200,2.6450 l 0.4200,-0.8081 l 0.4200,1.3895 l 0.4200,1.2928 l 0.4200,-0.9070 l 0.4200,-1.9990 l 0.4200,0.8399 l 0.4200,1.4731 l 0.4200,-0.8308 l 0.4200,-1.3020 l 0.4200,3.9291 l 0.4200,-0.4357 l 0.4200,0.4028 l 0.4200,-6.7608 l 0.4200,0.7529 l 0.4200,6.3498 l 0.4200,-6.1123 l 0.4200,5.2870 l 0.4200,2.0086 l 0.4200,-5.6487 l 0.4200,6.3658 l 0.4200,-0.8578 l 0.4200,-4.0289 l 0.4200,-10.9718 l 0.4200,5.5346 l 0.4200,-11.9858 l 0.4200,-2.4977 l 0.4200,1.5281 l 0.4200,4.9961 l 0.4200,-2.5582 l 0.4200,-20.1098 l 0.4200,-16.4031 l 0.4200,3.4764 l 0.4200,9.6365 l 0.4200,21.3721 l 0.4200,12.9262 l 0.4200,-0.0700 l 0.4200,0.0196 l 0.4200,-0.9503 l 0.4200,-13.4234 l 0.4200,-0.0092 l 0.4200,-1.6326 l 0.4200,4.9976 l 0.4200,12.1723 l 0.4200,-1.0426 l 0.4200,1.8635 l 0.4200,-0.4425 l 0.4200,0.5959 l 0.4200,-6.7371 l 0.4200,1.4193 l 0.4200,-13.5946 l 0.4200,17.6372 l 0.4200,-0.8732 l 0.4200,5.5291 l 0.4200,-6.7060 l 0.4200,1.9672 l 0.4200,5.4457 l 0.4200,-2.2204 l 0.4200,2.6776 l 0.4200,-24.6249 l 0.4200,27.6037 l 0.4200,-3.3597 l 0.4200,4.1022 l 0.4200,-0.0302 l 0.4200,0.0553 l 0.4200,-5.2863 l 0.4200,-0.6335 l 0.4200,-14.9088 l 0.4200,-1.0477 l 0.4200,-77.5733 l 0.4200,-14.3905 l 0.4200,55.2515 l 0.4200,-44.1513 l 0.4200,5.8588 l 0.4200,-28.4830 l 0.4200,80.8091 l 0.4200,10.2678 l 0.4200,-3.6905 l 0.4200,16.7277 l 0.4200,3.6271 l 0.4200,-0.0560 l 0.4200,-4.1162 l 0.4200,-8.9966 l 0.4200,-4.7110 l 0.4200,-6.6867 l 0.4200,10.2849 l 0.4200,-12.0152 l 0.4200,0.0249 l 0.4200,3.7894 l 0.4200,8.7771 l 0.4200,-6.9015 l 0.4200,4.9879 l 0.4200,4.4788 l 0.4200,4.4457 l 0.4200,-7.6512 l 0.4200,9.3149 l 0.4200,0.8490 l 0.4200,3.9602 l 0.4200,0.1143 l 0.4200,-7.6442 l 0.4200,-2.7156 l 0.4200,14.0936 l 0.4200,-0.1011 l 0.4200,-4.3514 l 0.4200,2.4030 l 0.4200,0.0851 l 0.4200,-17.3230 l 0.4200,23.4322 l 0.4200,-39.2606 l 0.4200,34.8075 l 0.4200,-6.1778 l 0.4200,-8.0363 l 0.4200,-48.5532 l 0.4200,5.2335 l 0.4200,52.6316 l 0.4200,-2.9261 l 0.4200,-43.0863 l 0.4200,58.1205 l 0.4200,-34.1950 l 0.4200,-32.1914 l 0.4200,-54.5295 l 0.4200,20.6807 l 0.4200,-26.1449 l 0.4200,14.0703 l 0.4200,67.7060 l 0.4200,23.3367 l 0.4200,8.4615 l 0.4200,4.3167 l 0.4200,-7.5299 l 0.4200,-10.2746 l 0.4200,3.7615 l 0.4200,-22.3631 l 0.4200,6.3325 l 0.4200,-13.6691 l 0.4200,-31.5373 l 0.4200,6.9848 l 0.4200,16.1290 l 0.4200,-13.8342 l 0.4200,-8.0212 l 0.4200,5.2088 l 0.4200,-5.6018 l 0.4200,3.9093 l 0.4200,8.8143 l 0.4200,3.3819 l 0.4200,3.9871 l 0.4200,2.0508 l 0.4200,-11.0909 l 0.4200,10.7443 l 0.4200,-1.6373 l 0.4200,-11.7268 l 0.4200,-4.6933 l 0.4200,11.4120 l 0.4200,-4.2608 l 0.4200,14.6890 l 0.4200,17.2135 l 0.4200,-3.4965 l 0.4200,-4.4591 l 0.4200,5.4680 l 0.4200,-0.6584 l 0.4200,9.1756 l 0.4200,-0.8741 l 0.4200,-27.4280 l 0.4200,18.5101 l 0.4200,-49.5604 l 0.4200,-28.6695 l 0.4200,-41.7291 l 0.4200,130.3507 l 0.4200,24.0456 l 0.4200,-3.1010 l 0.4200,-3.1709 l 0.4200,-0.6720 l 0.4200,1.9361 l 0.4200,-2.7989 l 0.4200,0.6766 l 0.4200,6.9850 l 0.4200,-0.1392 l 0.4200,-0.7256 l 0.4200,-30.2872 l 0.4200,-25.4405 l 0.4200,41.7865 l 0.4200,21.9521 l 0.4200,-3.1586 l 0.4200,-9.5940 l 0.4200,-3.9529 l 0.4200,-11.1235 l 0.4200,-22.4193 l 0.4200,39.0407 l 0.4200,2.6738 l 0.4200,5.0741 l 0.4200,-0.7206 l 0.4200,4.4787 l 0.4200,-0.9023 l 0.4200,-1.4719 l 0.4200,-19.2064 l 0.4200,18.6765 l 0.4200,-18.9609 l 0.4200,22.7304 l 0.4200,1.8155 l 0.4200,2.0412 l 0.4200,-5.9882 l 0.4200,3.9217 l 0.4200,2.3659 l 0.4200,-6.8963 l 0.4200,0.9889 l 0.4200,-13.2775 l 0.4200,-6.2099 l 0.4200,-0.6295 l 0.4200,3.8696 l 0.4200,4.8445 l 0.4200,-10.3434 l 0.4200,4.1388 l 0.4200,-3.3787 l 0.4200,5.0925 l 0.4200,5.4448 l 0.4200,5.7743 l 0.4200,-6.6686 l 0.4200,8.1910 l 0.4200,1.9668 l 0.4200,0.0944 l 0.4200,-16.0711 l 0.4200,9.1573 l 0.4200,-40.1386 l 0.4200,-4.5822 l 0.4200,43.6729 l 0.4200,-11.7695 l 0.4200,22.8400 l 0.4200,-2.1402 l 0.4200,1.9582 l 0.4200,2.3707 l 0.4200,-4.1717 l 0.4200,2.5351 l 0.4200,2.2922 l 0.4200,-15.4101 l 0.4200,-4.3739 l 0.4200,6.3483 l 0.4200,14.3543 l 0.4200,-5.6504 l 0.4200,-5.6630 l 0.4200,6.0983 l 0.4200,5.2681 l 0.4200,-0.7831 l 0.4200,0.9365 l 0.4200,-0.8118 l 0.4200,-4.4478 l 0.4200,5.1106 l 0.4200,-0.6776 l 0.4200,-4.9005 l 0.4200,2.0675 l 0.4200,2.0464 l 0.4200,2.8071 l 0.4200,0.8865 l 0.4200,-3.0910 l 0.4200,-2.2830 l 0.4200,-2.5554 l 0.4200,6.5960 l 0.4200,-2.1033 l 0.4200,3.2884 l 0.4200,-9.2307 l 0.4200,10.8483 l 0.4200,-1.3825 l 0.4200,-4.2051 l 0.4200,-8.5843 l 0.4200,8.4386 l 0.4200,4.2102 l 0.4200,3.1321 l 0.4200,-0.9741 l 0.4200,-0.2980 l 0.4200,-2.8351 l 0.4200,-0.1590 l 0.4200,-3.7400 l 0.4200,2.4182 l 0.4200,2.2282 l 0.4200,-2.2831 l 0.4200,3.5988 l 0.4200,-4.4830 l 0.4200,6.7329 l 0.4200,0.3262 l 0.4200,-4.9126 l 0.4200,2.6491 l 0.4200,-1.3709 l 0.4200,2.2202 l 0.4200,-15.3658 l 0.4200,-3.5903 l 0.4200,-22.5201 l 0.4200,4.7516 l 0.4200,34.4783 l 0.4200,0.7399 l 0.4200,-7.0726 l 0.4200,-10.3633 l 0.4200,13.9740 l 0.4200,2.2641 l 0.4200,-3.9125 l 0.4200,6.0205 l 0.4200,-5.2284 l 0.4200,-0.2720 l 0.4200,5.7356 l 0.4200,-2.3235 l 0.4200,-0.4014 l 0.4200,-50.9400 l 0.4200,16.2127 l 0.4200,24.5525 l 0.4200,0.4974 l 0.4200,-7.6024 l 0.4200,14.0249 l 0.4200,-34.3380 l 0.4200,11.8350 l 0.4200,25.7353 l 0.4200,-2.9615 l 0.4200,-6.1195 l 0.4200,2.0243 l 0.4200,-15.6243 l 0.4200,-0.9903 l 0.4200,-0.0054 l 0.4200,12.4375 l 0.4200,4.6912 l 0.4200,4.4948 l 0.4200,-8.8362 l 0.4200,-12.0649 l 0.4200,22.6309 l 0.4200,-2.2353 l 0.4200,0.2481 l 0.4200,1.8813 l 0.4200,0.6323 l 0.4200,-0.6744 l 0.4200,0.7876 l 0.4200,-4.7192 l 0.4200,-4.3782 l 0.4200,9.1342 l 0.4200,-0.5709 l 0.4200,1.1765 l 0.4200,-0.9335 l 0.4200,2.5412 l 0.4200,-2.1145 l 0.4200,2.0278 l 0.4200,-3.9968 l 0.4200,-49.4099 l 0.4200,-88.6484 l 0.4200,-94.2895 l 0.4200,-41.3328 l 0.4200,222.7362 l 0.4200,38.3724 l 0.4200,1.3971 l 0.4200,-4.3352 l 0.4200,-29.2936 l 0.4200,29.8274 l 0.4200,2.6365 l 0.4200,-11.2643 l 0.4200,19.4855 l 0.4200,-3.2306 l 0.4200,2.9097 l 0.4200,0.8933 l 0.4200,-0.1539 l 0.4200,-1.7534 l 0.4200,-5.6875 l 0.4200,1.7821 l 0.4200,6.7672 l 0.4200,-0.7036 l 0.4200,0.4771 l 0.4200,-0.1490 l 0.4200,-0.6004 l 0.4200,0.4103 l 0.4200,-18.7417 l 0.4200,5.5146 l 0.4200,15.9200 l 0.4200,0.0471 l 0.4200,-6.3803 l 0.4200,-21.0330 l 0.4200,6.2969 l 0.4200,-12.1960 l 0.4200,-15.6931 l 0.4200,0.5623 l 0.4200,-0.6877 l 0.4200,16.4598 l 0.4200,8.5597 l 0.4200,-22.4631 l 0.4200,-7.7726 l 0.4200,2.2619 l 0.4200,5.9412 l 0.4200,13.7219 l 0.4200,-27.6131 l 0.4200,-24.4270 l 0.4200,12.2233 l 0.4200,12.1751 l 0.4200,-25.5318 l 0.4200,8.0392 l 0.4200,19.6203 l 0.4200,-24.1104 l 0.4200,-1.9215 l 0.4200,17.7845 l 0.4200,7.6146 l 0.4200,4.6119 l 0.4200,19.8234 l 0.4200,-0.3627 l 0.4200,2.8283 l 0.4200,-2.4284 l 0.4200,-17.1975 l 0.4200,28.1794 l 0.4200,-1.1277 l 0.4200,3.8782 l 0.4200,1.4853 l 0.4200,-1.9229 l 0.4200,1.7606 l 0.4200,-0.1848 l 0.4200,0.6410 l 0.4200,0.1469 l 0.4200,1.2337 l 0.4200,-2.1621 l 0.4200,5.4933 l 0.4200,-16.1604 l 0.4200,23.8895 l 0.4200,-0.6290 l 0.4200,-5.4409 l 0.4200,-11.3662 l 0.4200,4.8316 l 0.4200,-38.4889 l 0.4200,17.9630 l 0.4200,24.3784 l 0.4200,10.3554 l 0.4200,-6.5017 l 0.4200,-27.5312 l 0.4200,19.4685 l 0.4200,12.4537 l 0.4200,4.2708 l 0.4200,0.3724 l 0.4200,0.0306 l 0.4200,-3.0182 l 0.4200,3.9541 l 0.4200,-2.8436 l 0.4200,-19.0159 l 0.4200,5.7933 l 0.4200,-24.6186 l 0.4200,-57.7125 l 0.4200,-30.9019 l 0.4200,17.2162 l 0.4200,42.3532 l 0.4200,-59.5835 l 0.4200,76.4158 l 0.4200,-42.6576 l 0.4200,12.4666 l 0.4200,-24.2672 l 0.4200,29.6267 l 0.4200,51.9543 l 0.4200,-15.3545 l 0.4200,22.3205 l 0.4200,-6.8875 l 0.4200,7.4314 l 0.4200,1.3370 l 0.4200,-0.1542 l 0.4200,8.2917 l 0.4200,0.2039 l 0.4200,-0.6654 l 0.4200,-1.0296 l 0.4200,-10.8095 l 0.4200,2.3973 l 0.4200,2.5969 l 0.4200,-12.3397 l 0.4200,23.2900 l 0.4200,-4.4794 l 0.4200,-19.0125 l 0.4200,7.4074 l 0.4200,-0.2651 l 0.4200,-23.0918 l 0.4200,24.6667 l 0.4200,-6.2974 l 0.4200,-19.0668 l 0.4200,5.4126 l 0.4200,15.9245 l 0.4200,-37.4213 l 0.4200,-7.1501 l 0.4200,-5.6124 l 0.4200,-5.0359 l 0.4200,2.1101 l 0.4200,34.4606 l 0.4200,-7.7016 l 0.4200,2.0401 l 0.4200,-31.3687 l 0.4200,9.1788 l 0.4200,9.4808 l 0.4200,-9.9890 l 0.4200,-13.3941 l 0.4200,-7.6741 l 0.4200,3.6862 l 0.4200,9.4361 l 0.4200,23.3477 l 0.4200,3.6003 l 0.4200,1.4615 l 0.4200,-13.2990 l 0.4200,-6.6617 l 0.4200,10.6564 l 0.4200,-10.9178 l 0.4200,14.1096 l 0.4200,20.2040 l 0.4200,-6.3051 l 0.4200,14.3253 l 0.4200,0.3082 l 0.4200,-0.4412 l 0.4200,0.9313 l 0.4200,-9.0975 l 0.4200,2.6150 l 0.4200,3.9276 l 0.4200,-7.4630 l 0.4200,-2.8957 l 0.4200,2.1654 l 0.4200,11.8131 l 0.4200,0.9909 l 0.4200,1.3038 l 0.4200,-0.0492 l 0.4200,-0.0933 l 0.4200,-3.9916 l 0.4200,-11.6783 l 0.4200,17.3841 l 0.4200,-16.0714 l 0.4200,-19.1884 l 0.4200,-0.8249 l 0.4200,12.4946 l 0.4200,2.0852 l 0.4200,26.9868 l 0.4200,-9.6521 l 0.4200,-0.9167 l 0.4200,-22.6273 l 0.4200,30.9410 l 0.4200,-19.9164 l 0.4200,1.2910 l 0.4200,-11.4238 l 0.4200,21.4918 l 0.4200,-5.0719 l 0.4200,22.7826 l 0.4200,-3.6709 l 0.4200,1.3067 l 0.4200,-4.5894 l 0.4200,3.1991 l 0.4200,-0.3396 l 0.4200,-2.9699 l 0.4200,5.7696 l 0.4200,-4.9978 l 0.4200,-0.5367 l 0.4200,-4.8427 l 0.4200,6.3708 l 0.4200,5.6936 l 0.4200,-15.6658 l 0.4200,-5.9869 l 0.4200,-6.6189 l 0.4200,12.2667 l 0.4200,-10.8774 l 0.4200,19.8495 l 0.4200,4.5468 l 0.4200,-2.9118 l 0.4200,3.7014 l 0.4200,-24.0954 l 0.4200,-48.7855 l 0.4200,65.2782 l 0.4200,22.8537 l 0.4200,-0.6545 l 0.4200,2.4749 l 0.4200,-1.0624 l 0.4200,0.5013 l 0.4200,-10.4632 l 0.4200,-2.8267 l 0.4200,-8.7004 l 0.4200,2.6323 l 0.4200,-6.5529 l 0.4200,5.0490 l 0.4200,-1.3549 l 0.4200,5.2347 l 0.4200,-4.4347 l 0.4200,8.2064 l 0.4200,-4.2496 l 0.4200,6.1014 l 0.4200,0.9567 l 0.4200,1.9244 l 0.4200,-0.3000 l 0.4200,-0.3305 l 0.4200,1.4345 l 0.4200,-0.5892 l 0.4200,1.3362 l 0.4200,-0.2193 l 0.4200,-0.8893 l 0.4200,1.4199 l 0.4200,0.2913 l 0.4200,0.2377 l 0.4200,0.1187 l 0.4200,0.4311 l 0.4200,-0.3581 l 0.4200,-1.2014 l 0.4200,0.9968 l 0.4200,0.8135 l 0.4200,-1.3843 l 0.4200,-1.3545 l 0.4200,1.4217 l 0.4200,-9.1095 l 0.4200,-4.6819 l 0.4200,-5.9482 l 0.4200,14.2826 l 0.4200,-5.2500 l 0.4200,-7.9481 l 0.4200,-0.9314 l 0.4200,11.9468 l 0.4200,4.3431 l 0.4200,-0.8431 l 0.4200,-4.8939 l 0.4200,-68.8786 l 0.4200,68.6373 l 0.4200,-38.2740 l 0.4200,1.0404 l 0.4200,34.9569 l 0.4200,-7.4600 l 0.4200,1.1121 l 0.4200,1.7662 l 0.4200,16.5428 l 0.4200,-0.5624 l 0.4200,1.3626 l 0.4200,-8.0469 l 0.4200,8.2330 l 0.4200,1.0281 l 0.4200,-3.8628 l 0.4200,5.4249 l 0.4200,-0.6089 l 0.4200,-4.3283 l 0.4200,4.4246 l 0.4200,0.2212 l 0.4200,-2.3937 l 0.4200,3.0842 l 0.4200,-14.0203 l 0.4200,3.7085 l 0.4200,-5.9974 l 0.4200,1.9024 l 0.4200,-6.5174 l 0.4200,15.5075 l 0.4200,2.6791 l 0.4200,-1.0325 l 0.4200,0.1601 l 0.4200,2.0736 l 0.4200,-0.5158 l 0.4200,-1.3826 l 0.4200,-3.9655 l 0.4200,-6.0061 l 0.4200,1.0715 l 0.4200,-19.8328 l 0.4200,-26.4993 l 0.4200,-19.7886 l 0.4200,-2.6912 l 0.4200,79.2433 l 0.4200,-3.6830 l 0.4200,-22.0441 l 0.4200,-4.2884 l 0.4200,6.7492 l 0.4200,2.0109 l 0.4200,-21.7228 l 0.4200,9.7476 l 0.4200,-14.4683 l 0.4200,13.8303 l 0.4200,-24.8237 l 0.4200,-5.0847 l 0.4200,1.8640 l 0.4200,-13.8769 l 0.4200,34.5690 l 0.4200,-1.3521 l 0.4200,12.5297 l 0.4200,9.5306 l 0.4200,0.2417 l 0.4200,-9.0324 l 0.4200,-7.7367 l 0.4200,-44.7246 l 0.4200,-3.6078 l 0.4200,-26.5939 l 0.4200,21.9492 l 0.4200,-29.8395 l 0.4200,71.0335 l 0.4200,-9.6037 l 0.4200,13.9948 l 0.4200,-2.0912 l 0.4200,-8.3089 l 0.4200,15.8082 l 0.4200,8.0679 l 0.4200,-0.1685 l 0.4200,-2.0087 l 0.4200,8.9325 l 0.4200,-1.6223 l 0.4200,-12.3734 l 0.4200,20.8762 l 0.4200,-0.2255 l 0.4200,1.6415 l 0.4200,-2.0299 l 0.4200,3.4905 l 0.4200,-0.4376 l 0.4200,0.8463 l 0.4200,-1.1338 l 0.4200,1.1003 l 0.4200,-4.9644 l 0.4200,2.4969 l 0.4200,-10.7197 l 0.4200,9.5856 l 0.4200,-9.3812 l 0.4200,16.4159 l 0.4200,-4.8227 l 0.4200,4.3301 l 0.4200,2.6802 l 0.4200,-3.4098 l 0.4200,-3.9253 l 0.4200,-0.6621 l 0.4200,0.2286 l 0.4200,11.0586 l 0.4200,-0.3475 l 0.4200,-0.5128 l 0.4200,0.0313 l 0.4200,0.1208 l 0.4200,-5.8163 l 0.4200,-15.9967 l 0.4200,-15.4867 l 0.4200,-25.0025 l 0.4200,20.3935 l 0.4200,-1.5453 l 0.4200,-32.8115 l 0.4200,25.7309 l 0.4200,8.3627 l 0.4200,0.0530 l 0.4200,3.1879 l 0.4200,21.5024 l 0.4200,-45.9711 l 0.4200,50.3847 l 0.4200,3.1489 l 0.4200,9.0842 l 0.4200,-1.2503 l 0.4200,-6.7706 l 0.4200,-0.1291 l 0.4200,6.1363 l 0.4200,-1.0963 l 0.4200,-12.3283 l 0.4200,18.8144 l 0.4200,-1.3398 l 0.4200,-4.0613 l 0.4200,-8.7270 l 0.4200,-58.1737 l 0.4200,14.0386 l 0.4200,-8.3319 l 0.4200,-6.8325 l 0.4200,-8.1896 l 0.4200,52.8503 l 0.4200,3.0410 l 0.4200,8.7701 l 0.4200,-8.2303 l 0.4200,-8.3057 l 0.4200,1.4083 l 0.4200,-16.7599 l 0.4200,11.1170 l 0.4200,-5.5777 l 0.4200,3.1002 l 0.4200,-9.2319 l 0.4200,-25.6994 l 0.4200,-51.9954 l 0.4200,91.9183 l 0.4200,-14.5641 l 0.4200,-9.8862 l 0.4200,42.4006 l 0.4200,-8.5687 l 0.4200,17.4536 l 0.4200,-11.9399 l 0.4200,4.4010 l 0.4200,0.6283 l 0.4200,6.4463 l 0.4200,-2.0065 l 0.4200,-1.1377 l 0.4200,3.9533 l 0.4200,0.0307 l 0.4200,-7.0028 l 0.4200,2.2661 l 0.4200,4.1884 l 0.4200,-0.8554 l 0.4200,3.5187 l 0.4200,-0.9390 l 0.4200,0.4613 l 0.4200,1.7527 l 0.4200,-38.7757 l 0.4200,21.2568 l 0.4200,22.2530 l 0.4200,4.8802 l 0.4200,-0.2017 l 0.4200,-1.4054 l 0.4200,-6.3693 l 0.4200,1.1404 l 0.4200,3.7891 l 0.4200,1.4201 l 0.4200,-14.4192 l 0.4200,-10.8778 l 0.4200,10.0165 l 0.4200,11.1026 l 0.4200,-1.5839 l 0.4200,1.2096 l 0.4200,2.6652 "/></g><g stroke-linejoin="miter" stroke-opacity="1.0" fill-opacity="0.0" stroke="rgb(93,165,218)" stroke-width="0.48241815132442184" fill="rgb(0,0,0)" stroke-linecap="butt" stroke-miterlimit="10.0"><path d="M 108.3916,235.0336 l 0.4200,-0.0329 l 0.4200,0.1622 l 0.4200,-0.0944 l 0.4200,-0.1426 l 0.4200,-0.1144 l 0.4200,0.1020 l 0.4200,-0.0996 l 0.4200,0.0239 l 0.4200,-0.0062 l 0.4200,-0.2300 l 0.4200,-0.1327 l 0.4200,-0.2091 l 0.4200,0.0150 l 0.4200,-0.4681 l 0.4200,-0.1010 l 0.4200,-0.0298 l 0.4200,0.1867 l 0.4200,-0.0863 l 0.4200,-0.1856 l 0.4200,-0.0409 l 0.4200,-0.0605 l 0.4200,0.1161 l 0.4200,0.1957 l 0.4200,-0.0786 l 0.4200,-0.0063 l 0.4200,0.1849 l 0.4200,0.0116 l 0.4200,0.0316 l 0.4200,-0.4896 l 0.4200,-0.0435 l 0.4200,0.1022 l 0.4200,0.2854 l 0.4200,0.1816 l 0.4200,-0.1262 l 0.4200,0.1683 l 0.4200,0.0676 l 0.4200,-0.0788 l 0.4200,0.2140 l 0.4200,0.4548 l 0.4200,0.0892 l 0.4200,0.1276 l 0.4200,-0.0590 l 0.4200,0.1115 l 0.4200,-0.1383 l 0.4200,-0.0719 l 0.4200,0.0985 l 0.4200,0.2473 l 0.4200,-0.0203 l 0.4200,-0.0151 l 0.4200,0.0360 l 0.4200,-0.0344 l 0.4200,-0.0976 l 0.4200,-0.0110 l 0.4200,0.0077 l 0.4200,-0.1743 l 0.4200,-0.1625 l 0.4200,-0.0675 l 0.4200,0.1095 l 0.4200,-0.0560 l 0.4200,-0.1449 l 0.4200,-0.1135 l 0.4200,-0.4107 l 0.4200,0.1013 l 0.4200,0.2933 l 0.4200,0.1722 l 0.4200,0.0928 l 0.4200,0.0889 l 0.4200,-0.0750 l 0.4200,0.1211 l 0.4200,0.1457 l 0.4200,-0.1570 l 0.4200,0.0299 l 0.4200,0.1986 l 0.4200,-0.1192 l 0.4200,0.1684 l 0.4200,0.1394 l 0.4200,-0.0005 l 0.4200,-0.2407 l 0.4200,-0.1231 l 0.4200,-0.0868 l 0.4200,0.1864 l 0.4200,-0.3216 l 0.4200,-0.1924 l 0.4200,-0.2098 l 0.4200,0.0219 l 0.4200,-0.1976 l 0.4200,0.2171 l 0.4200,-0.0988 l 0.4200,-0.1493 l 0.4200,-0.0270 l 0.4200,-0.2124 l 0.4200,0.2492 l 0.4200,0.1842 l 0.4200,-0.0870 l 0.4200,-0.1177 l 0.4200,0.1444 l 0.4200,-0.1448 l 0.4200,0.5357 l 0.4200,-0.4416 l 0.4200,-0.0015 l 0.4200,0.1218 l 0.4200,-0.2966 l 0.4200,-0.1840 l 0.4200,-0.1658 l 0.4200,0.2137 l 0.4200,0.1248 l 0.4200,0.1856 l 0.4200,-0.3134 l 0.4200,-0.1986 l 0.4200,0.0971 l 0.4200,0.0273 l 0.4200,-0.0836 l 0.4200,0.0729 l 0.4200,0.1601 l 0.4200,0.1705 l 0.4200,0.0821 l 0.4200,0.1949 l 0.4200,-0.4078 l 0.4200,-0.0490 l 0.4200,0.1709 l 0.4200,0.4636 l 0.4200,0.1368 l 0.4200,0.0209 l 0.4200,-0.1689 l 0.4200,0.1181 l 0.4200,-0.5362 l 0.4200,0.0526 l 0.4200,-0.1709 l 0.4200,-0.2058 l 0.4200,-0.1042 l 0.4200,-0.1992 l 0.4200,0.0564 l 0.4200,0.0473 l 0.4200,-0.1640 l 0.4200,0.4872 l 0.4200,0.0471 l 0.4200,0.1398 l 0.4200,-0.2301 l 0.4200,0.0426 l 0.4200,0.0167 l 0.4200,-0.0715 l 0.4200,0.5632 l 0.4200,-0.3779 l 0.4200,-0.1947 l 0.4200,0.0949 l 0.4200,0.2001 l 0.4200,-0.0853 l 0.4200,0.0058 l 0.4200,0.3801 l 0.4200,0.5881 l 0.4200,0.0768 l 0.4200,-0.0732 l 0.4200,0.1330 l 0.4200,-0.1115 l 0.4200,0.0935 l 0.4200,0.0468 l 0.4200,0.0481 l 0.4200,-0.0106 l 0.4200,0.0179 l 0.4200,-0.1022 l 0.4200,-0.0141 l 0.4200,-0.1864 l 0.4200,0.0201 l 0.4200,-0.1222 l 0.4200,-0.1137 l 0.4200,-0.0148 l 0.4200,0.1983 l 0.4200,-0.1377 l 0.4200,0.0705 l 0.4200,-0.1537 l 0.4200,0.0602 l 0.4200,0.0182 l 0.4200,-0.1271 l 0.4200,-0.0684 l 0.4200,0.2507 l 0.4200,-0.4504 l 0.4200,0.0289 l 0.4200,-0.0385 l 0.4200,0.0065 l 0.4200,0.0444 l 0.4200,0.2064 l 0.4200,0.0121 l 0.4200,0.3502 l 0.4200,0.0710 l 0.4200,-0.1945 l 0.4200,-0.1845 l 0.4200,0.2000 l 0.4200,-0.1476 l 0.4200,0.1047 l 0.4200,0.1402 l 0.4200,-0.0893 l 0.4200,0.1769 l 0.4200,0.0460 l 0.4200,-0.0738 l 0.4200,-0.1655 l 0.4200,-0.1813 l 0.4200,-0.0705 l 0.4200,0.0599 l 0.4200,0.3659 l 0.4200,0.1883 l 0.4200,-0.0372 l 0.4200,-0.1727 l 0.4200,0.3092 l 0.4200,-0.0012 l 0.4200,0.0176 l 0.4200,-0.0220 l 0.4200,-0.0979 l 0.4200,-0.0114 l 0.4200,-0.0518 l 0.4200,-0.0662 l 0.4200,0.0565 l 0.4200,-0.0206 l 0.4200,0.1425 l 0.4200,-0.0339 l 0.4200,-0.0646 l 0.4200,-0.0438 l 0.4200,0.0149 l 0.4200,0.0361 l 0.4200,-0.0223 l 0.4200,0.1437 l 0.4200,-0.0590 l 0.4200,0.0268 l 0.4200,-0.0119 l 0.4200,-0.1495 l 0.4200,0.0045 l 0.4200,0.1018 l 0.4200,0.1260 l 0.4200,-0.0272 l 0.4200,-0.0371 l 0.4200,0.0741 l 0.4200,-0.0715 l 0.4200,-0.0247 l 0.4200,-0.0590 l 0.4200,-0.1072 l 0.4200,0.0390 l 0.4200,-0.1083 l 0.4200,-0.0308 l 0.4200,-0.0019 l 0.4200,0.0272 l 0.4200,-0.0323 l 0.4200,-0.1685 l 0.4200,-0.1314 l 0.4200,-0.0086 l 0.4200,0.0335 l 0.4200,0.1417 l 0.4200,0.2190 l 0.4200,-0.0611 l 0.4200,-0.0047 l 0.4200,-0.0404 l 0.4200,-0.2112 l 0.4200,-0.0200 l 0.4200,-0.0362 l 0.4200,0.0293 l 0.4200,0.2296 l 0.4200,-0.1242 l 0.4200,0.0581 l 0.4200,-0.0377 l 0.4200,0.0325 l 0.4200,-0.1939 l 0.4200,0.0015 l 0.4200,-0.1791 l 0.4200,0.1802 l 0.4200,0.2558 l 0.4200,-0.1177 l 0.4200,0.1455 l 0.4200,-0.0222 l 0.4200,-0.1234 l 0.4200,0.0815 l 0.4200,-0.1085 l 0.4200,0.3512 l 0.4200,-0.2293 l 0.4200,0.0851 l 0.4200,-0.1224 l 0.4200,-0.0334 l 0.4200,0.0063 l 0.4200,0.1634 l 0.4200,0.0097 l 0.4200,0.1225 l 0.4200,0.0117 l 0.4200,0.2276 l 0.4200,-0.0091 l 0.4200,0.0121 l 0.4200,-0.0242 l 0.4200,-0.0043 l 0.4200,-0.0685 l 0.4200,0.1108 l 0.4200,0.0063 l 0.4200,-0.0055 l 0.4200,0.0072 l 0.4200,-0.0148 l 0.4200,0.0038 l 0.4200,-0.0696 l 0.4200,-0.0664 l 0.4200,-0.0341 l 0.4200,-0.0474 l 0.4200,0.0550 l 0.4200,-0.0867 l 0.4200,-0.0094 l 0.4200,0.0143 l 0.4200,0.0521 l 0.4200,-0.0585 l 0.4200,0.0276 l 0.4200,0.0310 l 0.4200,0.0433 l 0.4200,-0.0895 l 0.4200,0.0801 l 0.4200,0.1148 l 0.4200,-0.0389 l 0.4200,-0.0039 l 0.4200,0.0791 l 0.4200,0.0096 l 0.4200,-0.0659 l 0.4200,-0.0096 l 0.4200,-0.0700 l 0.4200,0.0207 l 0.4200,0.1207 l 0.4200,0.0352 l 0.4200,-0.0351 l 0.4200,0.0261 l 0.4200,0.0412 l 0.4200,-0.0052 l 0.4200,-0.0171 l 0.4200,-0.1846 l 0.4200,-0.0105 l 0.4200,0.1849 l 0.4200,-0.0246 l 0.4200,-0.3122 l 0.4200,0.3663 l 0.4200,-0.4325 l 0.4200,-0.4417 l 0.4200,-0.8407 l 0.4200,0.0750 l 0.4200,-0.5171 l 0.4200,-0.0098 l 0.4200,0.7854 l 0.4200,0.4450 l 0.4200,0.7098 l 0.4200,-0.2233 l 0.4200,0.3343 l 0.4200,0.1232 l 0.4200,-0.0318 l 0.4200,0.1394 l 0.4200,-0.0130 l 0.4200,0.0308 l 0.4200,-0.0264 l 0.4200,0.0058 l 0.4200,0.0214 l 0.4200,-0.0335 l 0.4200,-0.0339 l 0.4200,0.0032 l 0.4200,-0.0332 l 0.4200,-0.0012 l 0.4200,0.0187 l 0.4200,0.0011 l 0.4200,0.0049 l 0.4200,-0.0016 l 0.4200,-0.0678 l 0.4200,0.0355 l 0.4200,-0.0216 l 0.4200,-0.0864 l 0.4200,-0.0496 l 0.4200,0.0413 l 0.4200,-0.0491 l 0.4200,0.0725 l 0.4200,0.1304 l 0.4200,-0.0891 l 0.4200,-0.0632 l 0.4200,0.0385 l 0.4200,-0.0211 l 0.4200,0.1400 l 0.4200,0.0106 l 0.4200,0.0708 l 0.4200,0.0161 l 0.4200,-0.1560 l 0.4200,-0.1494 l 0.4200,-0.2650 l 0.4200,0.5135 l 0.4200,0.0941 l 0.4200,-0.0408 l 0.4200,-0.0440 l 0.4200,-0.0179 l 0.4200,0.0125 l 0.4200,-0.0455 l 0.4200,-0.0042 l 0.4200,0.0903 l 0.4200,0.0917 l 0.4200,0.0017 l 0.4200,-0.1300 l 0.4200,-0.1975 l 0.4200,0.2373 l 0.4200,0.1333 l 0.4200,-0.0214 l 0.4200,-0.0928 l 0.4200,-0.0510 l 0.4200,-0.1311 l 0.4200,-0.2727 l 0.4200,0.3608 l 0.4200,0.0218 l 0.4200,0.0761 l 0.4200,0.1375 l 0.4200,-0.0255 l 0.4200,0.0132 l 0.4200,-0.1578 l 0.4200,-0.3380 l 0.4200,0.2514 l 0.4200,-0.3784 l 0.4200,0.3749 l 0.4200,0.2434 l 0.4200,-0.0573 l 0.4200,0.1030 l 0.4200,-0.0287 l 0.4200,-0.0534 l 0.4200,0.0951 l 0.4200,-0.0025 l 0.4200,0.0091 l 0.4200,-0.0175 l 0.4200,-0.0073 l 0.4200,0.0066 l 0.4200,0.0102 l 0.4200,-0.0424 l 0.4200,0.0092 l 0.4200,-0.0228 l 0.4200,0.0152 l 0.4200,0.0197 l 0.4200,0.0244 l 0.4200,-0.0408 l 0.4200,0.0414 l 0.4200,0.0158 l 0.4200,-0.0005 l 0.4200,-0.0779 l 0.4200,0.0395 l 0.4200,-0.2991 l 0.4200,-0.0640 l 0.4200,0.2805 l 0.4200,-0.1277 l 0.4200,0.2247 l 0.4200,-0.0464 l 0.4200,0.1054 l 0.4200,-0.0295 l 0.4200,0.0387 l 0.4200,-0.0029 l 0.4200,-0.0354 l 0.4200,-0.2275 l 0.4200,-0.0677 l 0.4200,0.0471 l 0.4200,0.2174 l 0.4200,-0.1519 l 0.4200,-0.1014 l 0.4200,0.0736 l 0.4200,0.1207 l 0.4200,-0.0446 l 0.4200,0.0395 l 0.4200,0.0597 l 0.4200,0.0514 l 0.4200,-0.0546 l 0.4200,0.0146 l 0.4200,0.0475 l 0.4200,-0.0109 l 0.4200,-0.1682 l 0.4200,0.1446 l 0.4200,-0.0253 l 0.4200,0.0541 l 0.4200,0.0158 l 0.4200,0.0118 l 0.4200,-0.0373 l 0.4200,0.0213 l 0.4200,-0.0432 l 0.4200,-0.1819 l 0.4200,0.1887 l 0.4200,0.0277 l 0.4200,-0.1918 l 0.4200,-0.1187 l 0.4200,0.0844 l 0.4200,0.2293 l 0.4200,-0.0739 l 0.4200,-0.0606 l 0.4200,-0.0153 l 0.4200,0.1606 l 0.4200,0.0026 l 0.4200,0.0221 l 0.4200,-0.0091 l 0.4200,-0.0132 l 0.4200,0.0166 l 0.4200,-0.0257 l 0.4200,-0.1696 l 0.4200,0.1525 l 0.4200,-0.0240 l 0.4200,-0.1201 l 0.4200,0.0330 l 0.4200,-0.0301 l 0.4200,0.0339 l 0.4200,-0.2148 l 0.4200,-0.0550 l 0.4200,-0.2313 l 0.4200,0.0009 l 0.4200,0.3730 l 0.4200,0.0321 l 0.4200,-0.2037 l 0.4200,-0.1700 l 0.4200,0.1811 l 0.4200,0.0476 l 0.4200,0.2378 l 0.4200,-0.1290 l 0.4200,0.1298 l 0.4200,0.0035 l 0.4200,-0.1812 l 0.4200,-0.0991 l 0.4200,-0.0253 l 0.4200,-0.8644 l 0.4200,0.1205 l 0.4200,0.3131 l 0.4200,-0.0293 l 0.4200,-0.1937 l 0.4200,0.2634 l 0.4200,-0.8329 l 0.4200,0.1142 l 0.4200,0.6231 l 0.4200,0.4238 l 0.4200,0.1278 l 0.4200,-0.0341 l 0.4200,0.2043 l 0.4200,0.0149 l 0.4200,0.0072 l 0.4200,-0.1116 l 0.4200,-0.0776 l 0.4200,-0.1944 l 0.4200,-0.4445 l 0.4200,-0.2994 l 0.4200,0.5712 l 0.4200,0.2559 l 0.4200,-0.0120 l 0.4200,-0.0914 l 0.4200,-0.1168 l 0.4200,-0.1052 l 0.4200,0.1117 l 0.4200,-0.3437 l 0.4200,-0.1556 l 0.4200,0.5593 l 0.4200,-0.4102 l 0.4200,0.0289 l 0.4200,-0.0760 l 0.4200,0.1669 l 0.4200,0.2055 l 0.4200,-0.1212 l 0.4200,-0.3954 l 0.4200,-1.2507 l 0.4200,-2.4712 l 0.4200,-3.7551 l 0.4200,-1.6388 l 0.4200,5.0155 l 0.4200,2.1165 l 0.4200,0.0340 l 0.4200,-0.6215 l 0.4200,-2.3719 l 0.4200,1.7147 l 0.4200,0.0906 l 0.4200,-1.2689 l 0.4200,2.1612 l 0.4200,-1.0217 l 0.4200,0.4160 l 0.4200,0.3348 l 0.4200,-0.3080 l 0.4200,0.9374 l 0.4200,0.5537 l 0.4200,-0.1643 l 0.4200,-1.0592 l 0.4200,0.3241 l 0.4200,-0.8886 l 0.4200,-0.1635 l 0.4200,-0.2715 l 0.4200,-0.0394 l 0.4200,-2.1387 l 0.4200,0.1297 l 0.4200,1.8109 l 0.4200,0.1626 l 0.4200,1.1196 l 0.4200,1.2030 l 0.4200,-0.2138 l 0.4200,0.4546 l 0.4200,0.4461 l 0.4200,0.0259 l 0.4200,0.0513 l 0.4200,-0.3370 l 0.4200,-0.2549 l 0.4200,0.7442 l 0.4200,0.1865 l 0.4200,0.0023 l 0.4200,-0.0672 l 0.4200,-0.2619 l 0.4200,0.6786 l 0.4200,0.3326 l 0.4200,-0.0596 l 0.4200,-0.0816 l 0.4200,0.3053 l 0.4200,-0.0168 l 0.4200,-0.1217 l 0.4200,0.2573 l 0.4200,0.0401 l 0.4200,-0.0664 l 0.4200,-0.0279 l 0.4200,-0.0134 l 0.4200,-0.2355 l 0.4200,0.0331 l 0.4200,-0.0967 l 0.4200,-0.4711 l 0.4200,-0.4796 l 0.4200,0.6281 l 0.4200,-0.0573 l 0.4200,0.5148 l 0.4200,-0.0366 l 0.4200,0.0899 l 0.4200,-0.0375 l 0.4200,0.0232 l 0.4200,-0.0104 l 0.4200,0.0075 l 0.4200,-0.1285 l 0.4200,0.2582 l 0.4200,-0.2705 l 0.4200,-0.4797 l 0.4200,0.6607 l 0.4200,-0.1897 l 0.4200,-0.2091 l 0.4200,-0.2870 l 0.4200,0.0795 l 0.4200,-0.8406 l 0.4200,0.2309 l 0.4200,0.4701 l 0.4200,0.5152 l 0.4200,-0.5213 l 0.4200,-0.8027 l 0.4200,0.3849 l 0.4200,0.3852 l 0.4200,0.4544 l 0.4200,-0.0594 l 0.4200,-0.0814 l 0.4200,0.3318 l 0.4200,-0.2220 l 0.4200,-0.3405 l 0.4200,-0.6678 l 0.4200,0.0929 l 0.4200,-0.6786 l 0.4200,-1.4486 l 0.4200,-0.7917 l 0.4200,0.0722 l 0.4200,0.6044 l 0.4200,-1.8585 l 0.4200,1.4278 l 0.4200,-1.6522 l 0.4200,0.0600 l 0.4200,-1.0124 l 0.4200,0.5069 l 0.4200,1.8019 l 0.4200,-1.2026 l 0.4200,1.1952 l 0.4200,-0.8250 l 0.4200,0.4623 l 0.4200,1.8397 l 0.4200,-0.0259 l 0.4200,-1.1964 l 0.4200,0.3643 l 0.4200,0.1105 l 0.4200,-1.2855 l 0.4200,-1.1105 l 0.4200,-0.0399 l 0.4200,0.0013 l 0.4200,-1.0518 l 0.4200,1.8189 l 0.4200,1.3047 l 0.4200,1.1062 l 0.4200,-0.2758 l 0.4200,0.0022 l 0.4200,0.8544 l 0.4200,-0.6785 l 0.4200,0.2645 l 0.4200,0.6223 l 0.4200,-0.0943 l 0.4200,-0.4255 l 0.4200,1.2054 l 0.4200,0.1596 l 0.4200,0.1275 l 0.4200,0.1133 l 0.4200,0.0264 l 0.4200,-0.4096 l 0.4200,0.1954 l 0.4200,0.0027 l 0.4200,0.5421 l 0.4200,-0.0387 l 0.4200,-0.0563 l 0.4200,0.1519 l 0.4200,0.1557 l 0.4200,0.0877 l 0.4200,0.0150 l 0.4200,-0.0206 l 0.4200,-0.1389 l 0.4200,-0.0130 l 0.4200,0.0089 l 0.4200,0.1845 l 0.4200,0.0707 l 0.4200,-0.0365 l 0.4200,0.0939 l 0.4200,-0.0483 l 0.4200,-0.1864 l 0.4200,0.1967 l 0.4200,-0.2241 l 0.4200,0.0579 l 0.4200,-0.0642 l 0.4200,0.1947 l 0.4200,0.1408 l 0.4200,-0.0008 l 0.4200,-0.0137 l 0.4200,0.0619 l 0.4200,0.0189 l 0.4200,0.0027 l 0.4200,-0.0376 l 0.4200,-0.0019 l 0.4200,-0.0200 l 0.4200,0.0161 l 0.4200,0.0125 l 0.4200,-0.1050 l 0.4200,-0.0853 l 0.4200,0.1219 l 0.4200,-0.1386 l 0.4200,-0.1266 l 0.4200,-0.0096 l 0.4200,0.0674 l 0.4200,0.0120 l 0.4200,0.2140 l 0.4200,-0.1502 l 0.4200,-0.0070 l 0.4200,-0.1886 l 0.4200,0.2161 l 0.4200,-0.2042 l 0.4200,0.0011 l 0.4200,-0.1007 l 0.4200,0.1524 l 0.4200,-0.0545 l 0.4200,0.2867 l 0.4200,0.0936 l 0.4200,-0.0051 l 0.4200,0.0418 l 0.4200,-0.0115 l 0.4200,0.0083 l 0.4200,0.0212 l 0.4200,-0.0258 l 0.4200,0.0373 l 0.4200,0.0060 l 0.4200,0.0138 l 0.4200,-0.0079 l 0.4200,-0.0715 l 0.4200,-0.1159 l 0.4200,-0.0358 l 0.4200,-0.0393 l 0.4200,0.0567 l 0.4200,-0.0659 l 0.4200,0.1057 l 0.4200,0.0393 l 0.4200,-0.0285 l 0.4200,0.1570 l 0.4200,-0.6111 l 0.4200,-0.6485 l 0.4200,0.6749 l 0.4200,0.6679 l 0.4200,0.0165 l 0.4200,-0.0777 l 0.4200,0.0622 l 0.4200,-0.0116 l 0.4200,0.1006 l 0.4200,0.0011 l 0.4200,-0.0179 l 0.4200,0.0010 l 0.4200,-0.0315 l 0.4200,0.0100 l 0.4200,-0.0162 l 0.4200,0.0147 l 0.4200,-0.0339 l 0.4200,0.0358 l 0.4200,-0.0365 l 0.4200,0.0314 l 0.4200,0.0002 l 0.4200,0.0117 l 0.4200,-0.0093 l 0.4200,-0.0105 l 0.4200,0.0133 l 0.4200,0.0376 l 0.4200,-0.0107 l 0.4200,0.0006 l 0.4200,-0.0598 l 0.4200,0.0128 l 0.4200,-0.0003 l 0.4200,0.0279 l 0.4200,-0.0381 l 0.4200,0.0117 l 0.4200,-0.0252 l 0.4200,0.0560 l 0.4200,-0.0117 l 0.4200,-0.0163 l 0.4200,0.0162 l 0.4200,0.0073 l 0.4200,-0.0131 l 0.4200,0.0395 l 0.4200,0.0071 l 0.4200,0.0055 l 0.4200,-0.0179 l 0.4200,0.0114 l 0.4200,0.0085 l 0.4200,0.0007 l 0.4200,-0.0116 l 0.4200,-0.0145 l 0.4200,0.0031 l 0.4200,0.0138 l 0.4200,-0.0947 l 0.4200,0.1380 l 0.4200,-0.1275 l 0.4200,-0.0120 l 0.4200,0.1187 l 0.4200,-0.0373 l 0.4200,-0.0029 l 0.4200,0.0006 l 0.4200,0.0811 l 0.4200,0.0077 l 0.4200,-0.0038 l 0.4200,-0.0533 l 0.4200,0.0474 l 0.4200,0.0175 l 0.4200,-0.0436 l 0.4200,0.0463 l 0.4200,-0.0141 l 0.4200,-0.0374 l 0.4200,0.0324 l 0.4200,0.0013 l 0.4200,-0.0258 l 0.4200,0.0320 l 0.4200,-0.1237 l 0.4200,0.0137 l 0.4200,-0.0514 l 0.4200,-0.0001 l 0.4200,-0.0583 l 0.4200,0.1034 l 0.4200,0.0278 l 0.4200,-0.0221 l 0.4200,-0.0045 l 0.4200,0.0597 l 0.4200,-0.0508 l 0.4200,-0.0295 l 0.4200,-0.0543 l 0.4200,-0.0646 l 0.4200,-0.0065 l 0.4200,-0.1643 l 0.4200,-0.1931 l 0.4200,-0.1521 l 0.4200,-0.0642 l 0.4200,0.6453 l 0.4200,0.0634 l 0.4200,0.1345 l 0.4200,0.0120 l 0.4200,-0.0114 l 0.4200,-0.0028 l 0.4200,0.0387 l 0.4200,-0.0053 l 0.4200,0.0093 l 0.4200,-0.0029 l 0.4200,-0.0016 l 0.4200,-0.0076 l 0.4200,-0.0025 l 0.4200,-0.0237 l 0.4200,0.0348 l 0.4200,-0.0041 l 0.4200,0.0102 l 0.4200,0.0027 l 0.4200,0.0001 l 0.4200,-0.0057 l 0.4200,-0.0146 l 0.4200,-0.1365 l 0.4200,-0.0308 l 0.4200,-0.1109 l 0.4200,0.0340 l 0.4200,-0.1437 l 0.4200,0.2001 l 0.4200,-0.0712 l 0.4200,0.0458 l 0.4200,-0.0329 l 0.4200,-0.0735 l 0.4200,0.0668 l 0.4200,0.0476 l 0.4200,-0.0174 l 0.4200,-0.0395 l 0.4200,0.1668 l 0.4200,0.0095 l 0.4200,0.0608 l 0.4200,-0.1031 l 0.4200,-0.0993 l 0.4200,0.0243 l 0.4200,-0.0667 l 0.4200,0.0850 l 0.4200,0.0075 l 0.4200,-0.0489 l 0.4200,0.0516 l 0.4200,-0.0286 l 0.4200,0.0639 l 0.4200,-0.0247 l 0.4200,0.0679 l 0.4200,-0.0481 l 0.4200,0.0504 l 0.4200,-0.1062 l 0.4200,-0.1766 l 0.4200,0.0310 l 0.4200,0.0329 l 0.4200,0.1445 l 0.4200,0.0236 l 0.4200,0.0015 l 0.4200,-0.0034 l 0.4200,-0.1413 l 0.4200,0.0587 l 0.4200,0.0038 l 0.4200,-0.0064 l 0.4200,-0.1284 l 0.4200,-0.0884 l 0.4200,-0.1521 l 0.4200,-0.1266 l 0.4200,-0.1776 l 0.4200,0.0560 l 0.4200,-0.0492 l 0.4200,-0.2426 l 0.4200,0.0739 l 0.4200,0.0037 l 0.4200,-0.0454 l 0.4200,-0.0239 l 0.4200,0.1413 l 0.4200,-0.6296 l 0.4200,0.3459 l 0.4200,0.0008 l 0.4200,0.1837 l 0.4200,0.1527 l 0.4200,0.1151 l 0.4200,-0.0127 l 0.4200,-0.1143 l 0.4200,0.0054 l 0.4200,0.1596 l 0.4200,-0.3273 l 0.4200,0.0975 l 0.4200,0.0791 l 0.4200,0.1039 l 0.4200,0.4466 l 0.4200,-0.0394 l 0.4200,0.0408 l 0.4200,0.0329 l 0.4200,0.0353 l 0.4200,-0.1798 l 0.4200,-0.0196 l 0.4200,-0.0797 l 0.4200,0.0883 l 0.4200,0.0626 l 0.4200,-0.0034 l 0.4200,0.0954 l 0.4200,-0.0387 l 0.4200,0.0329 l 0.4200,-0.0066 l 0.4200,0.0462 l 0.4200,0.0911 l 0.4200,0.1145 l 0.4200,-0.1237 l 0.4200,0.0614 l 0.4200,0.0328 l 0.4200,-0.1247 l 0.4200,0.0699 l 0.4200,-0.2355 l 0.4200,-0.1771 l 0.4200,0.0329 l 0.4200,-0.0031 l 0.4200,0.0786 l 0.4200,-0.0410 l 0.4200,-0.0243 l 0.4200,0.0570 l 0.4200,-0.0041 l 0.4200,-0.1215 l 0.4200,0.0154 l 0.4200,0.0519 l 0.4200,-0.0228 l 0.4200,0.0875 l 0.4200,0.0592 l 0.4200,-0.1352 l 0.4200,0.0387 l 0.4200,0.4441 l 0.4200,-0.0421 l 0.4200,-0.1132 l 0.4200,-0.1137 l 0.4200,-0.0387 l 0.4200,-0.0604 l 0.4200,-0.1302 l 0.4200,0.0056 l 0.4200,0.0577 l 0.4200,0.0303 l 0.4200,-0.2508 l 0.4200,-0.1337 l 0.4200,0.0741 l 0.4200,0.1323 l 0.4200,-0.0419 l 0.4200,0.0085 l 0.4200,0.0505 "/></g><g stroke-linejoin="miter" stroke-opacity="1.0" fill-opacity="0.0" stroke="rgb(85,85,85)" stroke-width="0.48241815132442184" fill="rgb(0,0,0)" stroke-linecap="butt" stroke-miterlimit="10.0"><path d="M 108.3916,230.2645 l 0.4200,-0.0066 l 0.4200,0.0332 l 0.4200,-0.0236 l 0.4200,-0.0257 l 0.4200,-0.0174 l 0.4200,0.0136 l 0.4200,-0.0152 l 0.4200,0.0025 l 0.4200,-0.0017 l 0.4200,-0.0307 l 0.4200,-0.0163 l 0.4200,-0.0236 l 0.4200,0.0004 l 0.4200,-0.0474 l 0.4200,-0.0106 l 0.4200,-0.0041 l 0.4200,0.0155 l 0.4200,-0.0094 l 0.4200,-0.0183 l 0.4200,-0.0051 l 0.4200,-0.0069 l 0.4200,0.0087 l 0.4200,0.0163 l 0.4200,-0.0087 l 0.4200,-0.0020 l 0.4200,0.0158 l 0.4200,-0.0003 l 0.4200,0.0017 l 0.4200,-0.0477 l 0.4200,-0.0054 l 0.4200,0.0074 l 0.4200,0.0245 l 0.4200,0.0162 l 0.4200,-0.0139 l 0.4200,0.0152 l 0.4200,0.0056 l 0.4200,-0.0095 l 0.4200,0.0211 l 0.4200,0.0534 l 0.4200,0.0122 l 0.4200,0.0204 l 0.4200,-0.0114 l 0.4200,0.0196 l 0.4200,-0.0266 l 0.4200,-0.0122 l 0.4200,0.0146 l 0.4200,0.0516 l 0.4200,-0.0073 l 0.4200,-0.0051 l 0.4200,0.0103 l 0.4200,-0.0116 l 0.4200,-0.0242 l 0.4200,-0.0030 l 0.4200,0.0007 l 0.4200,-0.0319 l 0.4200,-0.0246 l 0.4200,-0.0100 l 0.4200,0.0134 l 0.4200,-0.0087 l 0.4200,-0.0198 l 0.4200,-0.0148 l 0.4200,-0.0465 l 0.4200,0.0089 l 0.4200,0.0304 l 0.4200,0.0194 l 0.4200,0.0109 l 0.4200,0.0112 l 0.4200,-0.0117 l 0.4200,0.0161 l 0.4200,0.0226 l 0.4200,-0.0271 l 0.4200,0.0035 l 0.4200,0.0330 l 0.4200,-0.0233 l 0.4200,0.0308 l 0.4200,0.0412 l 0.4200,-0.0009 l 0.4200,-0.0688 l 0.4200,-0.0214 l 0.4200,-0.0140 l 0.4200,0.0274 l 0.4200,-0.0497 l 0.4200,-0.0253 l 0.4200,-0.0255 l 0.4200,0.0010 l 0.4200,-0.0228 l 0.4200,0.0217 l 0.4200,-0.0124 l 0.4200,-0.0174 l 0.4200,-0.0044 l 0.4200,-0.0232 l 0.4200,0.0234 l 0.4200,0.0182 l 0.4200,-0.0111 l 0.4200,-0.0141 l 0.4200,0.0138 l 0.4200,-0.0172 l 0.4200,0.0590 l 0.4200,-0.0548 l 0.4200,-0.0017 l 0.4200,0.0119 l 0.4200,-0.0342 l 0.4200,-0.0205 l 0.4200,-0.0181 l 0.4200,0.0191 l 0.4200,0.0111 l 0.4200,0.0182 l 0.4200,-0.0353 l 0.4200,-0.0217 l 0.4200,0.0077 l 0.4200,0.0009 l 0.4200,-0.0102 l 0.4200,0.0054 l 0.4200,0.0146 l 0.4200,0.0165 l 0.4200,0.0076 l 0.4200,0.0213 l 0.4200,-0.0491 l 0.4200,-0.0069 l 0.4200,0.0167 l 0.4200,0.0536 l 0.4200,0.0179 l 0.4200,0.0018 l 0.4200,-0.0257 l 0.4200,0.0151 l 0.4200,-0.0718 l 0.4200,0.0044 l 0.4200,-0.0210 l 0.4200,-0.0239 l 0.4200,-0.0126 l 0.4200,-0.0219 l 0.4200,0.0035 l 0.4200,0.0027 l 0.4200,-0.0182 l 0.4200,0.0470 l 0.4200,0.0034 l 0.4200,0.0140 l 0.4200,-0.0278 l 0.4200,0.0028 l 0.4200,0.0000 l 0.4200,-0.0097 l 0.4200,0.0638 l 0.4200,-0.0493 l 0.4200,-0.0238 l 0.4200,0.0086 l 0.4200,0.0212 l 0.4200,-0.0119 l 0.4200,-0.0011 l 0.4200,0.0454 l 0.4200,0.0978 l 0.4200,0.0216 l 0.4200,-0.0238 l 0.4200,0.0435 l 0.4200,-0.0437 l 0.4200,0.0282 l 0.4200,0.0897 l 0.4200,-0.0256 l 0.4200,0.0084 l 0.4200,-0.0441 l 0.4200,-0.0510 l 0.4200,-0.0052 l 0.4200,-0.0456 l 0.4200,0.0027 l 0.4200,-0.0244 l 0.4200,-0.0205 l 0.4200,-0.0038 l 0.4200,0.0321 l 0.4200,-0.0259 l 0.4200,0.0106 l 0.4200,-0.0271 l 0.4200,0.0081 l 0.4200,0.0015 l 0.4200,-0.0217 l 0.4200,-0.0117 l 0.4200,0.0375 l 0.4200,-0.0708 l 0.4200,0.0021 l 0.4200,-0.0068 l 0.4200,-0.0009 l 0.4200,0.0042 l 0.4200,0.0274 l 0.4200,0.0003 l 0.4200,0.0586 l 0.4200,0.0145 l 0.4200,-0.0424 l 0.4200,-0.0329 l 0.4200,0.0318 l 0.4200,-0.0272 l 0.4200,0.0161 l 0.4200,0.0250 l 0.4200,-0.0191 l 0.4200,0.0349 l 0.4200,0.0103 l 0.4200,-0.0196 l 0.4200,-0.0355 l 0.4200,-0.0325 l 0.4200,-0.0125 l 0.4200,0.0075 l 0.4200,0.0641 l 0.4200,0.0515 l 0.4200,-0.0151 l 0.4200,-0.0481 l 0.4200,0.0986 l 0.4200,0.0407 l 0.4200,-0.0315 l 0.4200,-0.0269 l 0.4200,-0.0443 l 0.4200,-0.0046 l 0.4200,-0.0158 l 0.4200,-0.0176 l 0.4200,0.0122 l 0.4200,-0.0064 l 0.4200,0.0397 l 0.4200,-0.0131 l 0.4200,-0.0204 l 0.4200,-0.0125 l 0.4200,0.0024 l 0.4200,0.0081 l 0.4200,-0.0072 l 0.4200,0.0440 l 0.4200,-0.0239 l 0.4200,0.0080 l 0.4200,-0.0054 l 0.4200,-0.0436 l 0.4200,-0.0003 l 0.4200,0.0245 l 0.4200,0.0455 l 0.4200,-0.0153 l 0.4200,-0.0160 l 0.4200,0.0317 l 0.4200,-0.0351 l 0.4200,-0.0094 l 0.4200,-0.0185 l 0.4200,-0.0273 l 0.4200,0.0073 l 0.4200,-0.0248 l 0.4200,-0.0075 l 0.4200,-0.0018 l 0.4200,0.0038 l 0.4200,-0.0078 l 0.4200,-0.0318 l 0.4200,-0.0226 l 0.4200,-0.0030 l 0.4200,0.0034 l 0.4200,0.0211 l 0.4200,0.0393 l 0.4200,-0.0141 l 0.4200,-0.0024 l 0.4200,-0.0093 l 0.4200,-0.0386 l 0.4200,-0.0049 l 0.4200,-0.0074 l 0.4200,0.0028 l 0.4200,0.0371 l 0.4200,-0.0240 l 0.4200,0.0084 l 0.4200,-0.0082 l 0.4200,0.0041 l 0.4200,-0.0340 l 0.4200,-0.0015 l 0.4200,-0.0284 l 0.4200,0.0245 l 0.4200,0.0412 l 0.4200,-0.0230 l 0.4200,0.0247 l 0.4200,-0.0059 l 0.4200,-0.0241 l 0.4200,0.0127 l 0.4200,-0.0209 l 0.4200,0.0672 l 0.4200,-0.0520 l 0.4200,0.0148 l 0.4200,-0.0251 l 0.4200,-0.0076 l 0.4200,-0.0006 l 0.4200,0.0290 l 0.4200,0.0005 l 0.4200,0.0265 l 0.4200,0.0017 l 0.4200,0.1054 l 0.4200,0.0151 l 0.4200,-0.0318 l 0.4200,0.0477 l 0.4200,0.0015 l 0.4200,0.0265 l 0.4200,-0.0494 l 0.4200,-0.0112 l 0.4200,0.0094 l 0.4200,-0.0298 l 0.4200,-0.0193 l 0.4200,0.0021 l 0.4200,-0.0406 l 0.4200,-0.0239 l 0.4200,-0.0111 l 0.4200,-0.0137 l 0.4200,0.0128 l 0.4200,-0.0236 l 0.4200,-0.0036 l 0.4200,0.0018 l 0.4200,0.0113 l 0.4200,-0.0159 l 0.4200,0.0051 l 0.4200,0.0063 l 0.4200,0.0104 l 0.4200,-0.0251 l 0.4200,0.0190 l 0.4200,0.0372 l 0.4200,-0.0171 l 0.4200,-0.0027 l 0.4200,0.0335 l 0.4200,0.0056 l 0.4200,-0.0366 l 0.4200,-0.0049 l 0.4200,-0.0241 l 0.4200,0.0047 l 0.4200,0.0453 l 0.4200,0.0317 l 0.4200,-0.0377 l 0.4200,0.0850 l 0.4200,-0.0394 l 0.4200,0.0145 l 0.4200,0.0154 l 0.4200,0.0643 l 0.4200,0.0015 l 0.4200,-0.0483 l 0.4200,0.0090 l 0.4200,0.0705 l 0.4200,-0.0737 l 0.4200,0.0953 l 0.4200,0.0469 l 0.4200,0.0605 l 0.4200,-0.0042 l 0.4200,0.0271 l 0.4200,0.0005 l 0.4200,-0.0396 l 0.4200,-0.0305 l 0.4200,-0.0724 l 0.4200,0.0314 l 0.4200,-0.0481 l 0.4200,-0.0289 l 0.4200,0.0082 l 0.4200,-0.0517 l 0.4200,0.0082 l 0.4200,-0.0276 l 0.4200,-0.0555 l 0.4200,0.0025 l 0.4200,0.0164 l 0.4200,-0.0270 l 0.4200,-0.0177 l 0.4200,0.0002 l 0.4200,-0.0145 l 0.4200,-0.0017 l 0.4200,0.0058 l 0.4200,-0.0008 l 0.4200,0.0008 l 0.4200,-0.0019 l 0.4200,-0.0255 l 0.4200,0.0103 l 0.4200,-0.0086 l 0.4200,-0.0266 l 0.4200,-0.0139 l 0.4200,0.0088 l 0.4200,-0.0136 l 0.4200,0.0167 l 0.4200,0.0403 l 0.4200,-0.0326 l 0.4200,-0.0188 l 0.4200,0.0088 l 0.4200,-0.0072 l 0.4200,0.0430 l 0.4200,0.0034 l 0.4200,0.0892 l 0.4200,-0.0206 l 0.4200,0.0821 l 0.4200,0.0302 l 0.4200,0.0381 l 0.4200,-0.0846 l 0.4200,-0.1129 l 0.4200,-0.0223 l 0.4200,-0.0186 l 0.4200,-0.0075 l 0.4200,0.0030 l 0.4200,-0.0162 l 0.4200,-0.0026 l 0.4200,0.0297 l 0.4200,0.0582 l 0.4200,0.0037 l 0.4200,0.0941 l 0.4200,0.0420 l 0.4200,-0.0496 l 0.4200,-0.0830 l 0.4200,0.0447 l 0.4200,0.0409 l 0.4200,0.0136 l 0.4200,0.0278 l 0.4200,0.0413 l 0.4200,-0.0546 l 0.4200,-0.0053 l 0.4200,-0.0198 l 0.4200,-0.0700 l 0.4200,0.0293 l 0.4200,-0.0107 l 0.4200,0.0666 l 0.4200,0.0614 l 0.4200,-0.0383 l 0.4200,0.0572 l 0.4200,-0.0513 l 0.4200,-0.0622 l 0.4200,0.0213 l 0.4200,-0.0462 l 0.4200,0.0184 l 0.4200,0.0219 l 0.4200,-0.0484 l 0.4200,0.0020 l 0.4200,-0.0460 l 0.4200,-0.0192 l 0.4200,-0.0064 l 0.4200,0.0037 l 0.4200,0.0077 l 0.4200,-0.0303 l 0.4200,0.0038 l 0.4200,-0.0128 l 0.4200,0.0063 l 0.4200,0.0101 l 0.4200,0.0180 l 0.4200,-0.0305 l 0.4200,0.0268 l 0.4200,0.0252 l 0.4200,-0.0042 l 0.4200,0.0743 l 0.4200,-0.0170 l 0.4200,0.0822 l 0.4200,0.0098 l 0.4200,-0.0532 l 0.4200,0.0295 l 0.4200,-0.0593 l 0.4200,0.0177 l 0.4200,-0.0561 l 0.4200,0.0263 l 0.4200,-0.0425 l 0.4200,0.0109 l 0.4200,0.0328 l 0.4200,0.0713 l 0.4200,0.0121 l 0.4200,-0.0088 l 0.4200,-0.0531 l 0.4200,0.0429 l 0.4200,0.0192 l 0.4200,-0.0138 l 0.4200,-0.0279 l 0.4200,0.0112 l 0.4200,-0.0106 l 0.4200,-0.0190 l 0.4200,-0.0230 l 0.4200,0.0240 l 0.4200,-0.0060 l 0.4200,-0.0229 l 0.4200,0.0057 l 0.4200,0.0560 l 0.4200,-0.0405 l 0.4200,0.0088 l 0.4200,-0.0224 l 0.4200,-0.0096 l 0.4200,-0.0092 l 0.4200,0.0223 l 0.4200,-0.0116 l 0.4200,0.0201 l 0.4200,0.0495 l 0.4200,-0.0478 l 0.4200,-0.0123 l 0.4200,0.0582 l 0.4200,0.0214 l 0.4200,-0.0149 l 0.4200,-0.0591 l 0.4200,0.0261 l 0.4200,0.0154 l 0.4200,0.0031 l 0.4200,-0.0478 l 0.4200,-0.0019 l 0.4200,-0.0130 l 0.4200,0.0050 l 0.4200,0.0064 l 0.4200,-0.0095 l 0.4200,0.0128 l 0.4200,0.0508 l 0.4200,-0.0401 l 0.4200,0.0078 l 0.4200,0.0313 l 0.4200,-0.0077 l 0.4200,0.0063 l 0.4200,-0.0080 l 0.4200,0.0406 l 0.4200,0.0077 l 0.4200,0.0287 l 0.4200,-0.0003 l 0.4200,-0.0482 l 0.4200,-0.0061 l 0.4200,0.0322 l 0.4200,0.0207 l 0.4200,-0.0218 l 0.4200,-0.0069 l 0.4200,-0.0413 l 0.4200,0.0256 l 0.4200,-0.0253 l 0.4200,-0.0012 l 0.4200,0.0348 l 0.4200,0.0143 l 0.4200,0.0031 l 0.4200,0.0853 l 0.4200,-0.0082 l 0.4200,-0.0240 l 0.4200,0.0025 l 0.4200,0.0157 l 0.4200,-0.0212 l 0.4200,0.0624 l 0.4200,-0.0064 l 0.4200,-0.0413 l 0.4200,-0.0406 l 0.4200,-0.0166 l 0.4200,0.0045 l 0.4200,-0.0320 l 0.4200,-0.0032 l 0.4200,-0.0018 l 0.4200,0.0201 l 0.4200,0.0116 l 0.4200,0.0248 l 0.4200,0.0429 l 0.4200,0.0218 l 0.4200,-0.0425 l 0.4200,-0.0269 l 0.4200,0.0013 l 0.4200,0.0104 l 0.4200,0.0121 l 0.4200,0.0099 l 0.4200,-0.0104 l 0.4200,0.0305 l 0.4200,0.0114 l 0.4200,-0.0446 l 0.4200,0.0374 l 0.4200,-0.0022 l 0.4200,0.0057 l 0.4200,-0.0127 l 0.4200,-0.0178 l 0.4200,0.0111 l 0.4200,0.0310 l 0.4200,0.0687 l 0.4200,0.0766 l 0.4200,0.0490 l 0.4200,0.0037 l 0.4200,-0.0168 l 0.4200,-0.0336 l 0.4200,-0.0006 l 0.4200,0.0155 l 0.4200,0.0381 l 0.4200,-0.0159 l 0.4200,-0.0011 l 0.4200,0.0168 l 0.4200,-0.0258 l 0.4200,0.0191 l 0.4200,-0.0057 l 0.4200,-0.0054 l 0.4200,0.0057 l 0.4200,-0.0170 l 0.4200,-0.0141 l 0.4200,0.0052 l 0.4200,0.0260 l 0.4200,-0.0056 l 0.4200,0.0157 l 0.4200,0.0023 l 0.4200,0.0032 l 0.4200,0.0006 l 0.4200,0.0132 l 0.4200,-0.0000 l 0.4200,-0.0049 l 0.4200,-0.0011 l 0.4200,-0.0114 l 0.4200,-0.0227 l 0.4200,0.0060 l 0.4200,-0.0121 l 0.4200,-0.0154 l 0.4200,-0.0009 l 0.4200,-0.0020 l 0.4200,0.0138 l 0.4200,0.0087 l 0.4200,-0.0261 l 0.4200,-0.0090 l 0.4200,0.0001 l 0.4200,0.0038 l 0.4200,0.0128 l 0.4200,-0.0347 l 0.4200,-0.0273 l 0.4200,0.0061 l 0.4200,0.0077 l 0.4200,-0.0313 l 0.4200,0.0023 l 0.4200,0.0148 l 0.4200,-0.0332 l 0.4200,-0.0075 l 0.4200,0.0122 l 0.4200,0.0045 l 0.4200,0.0020 l 0.4200,0.0295 l 0.4200,-0.0032 l 0.4200,0.0096 l 0.4200,0.0355 l 0.4200,0.0237 l 0.4200,-0.0289 l 0.4200,0.0037 l 0.4200,-0.0375 l 0.4200,0.0038 l 0.4200,-0.0093 l 0.4200,0.0042 l 0.4200,-0.0025 l 0.4200,0.0012 l 0.4200,-0.0008 l 0.4200,0.0133 l 0.4200,-0.0277 l 0.4200,0.0314 l 0.4200,0.0350 l 0.4200,-0.0460 l 0.4200,0.0191 l 0.4200,0.0162 l 0.4200,0.0174 l 0.4200,-0.0040 l 0.4200,0.0365 l 0.4200,-0.0067 l 0.4200,-0.0175 l 0.4200,-0.0290 l 0.4200,0.0332 l 0.4200,0.0299 l 0.4200,-0.0103 l 0.4200,-0.0137 l 0.4200,-0.0230 l 0.4200,0.0040 l 0.4200,0.0051 l 0.4200,-0.0218 l 0.4200,0.0168 l 0.4200,0.0192 l 0.4200,0.0252 l 0.4200,-0.0023 l 0.4200,0.0162 l 0.4200,0.0160 l 0.4200,0.0009 l 0.4200,0.0001 l 0.4200,0.0001 l 0.4200,-0.0046 l 0.4200,0.0075 l 0.4200,-0.0091 l 0.4200,0.0003 l 0.4200,-0.0113 l 0.4200,0.0055 l 0.4200,0.0155 l 0.4200,-0.0096 l 0.4200,0.0101 l 0.4200,-0.0068 l 0.4200,0.0040 l 0.4200,0.0089 l 0.4200,0.0000 l 0.4200,-0.0032 l 0.4200,0.0022 l 0.4200,0.0005 l 0.4200,-0.0105 l 0.4200,-0.0154 l 0.4200,-0.0011 l 0.4200,-0.0005 l 0.4200,-0.0189 l 0.4200,0.0290 l 0.4200,0.0157 l 0.4200,0.0078 l 0.4200,-0.0012 l 0.4200,-0.0001 l 0.4200,0.0025 l 0.4200,-0.0010 l 0.4200,0.0011 l 0.4200,0.0005 l 0.4200,0.0003 l 0.4200,-0.0001 l 0.4200,-0.0026 l 0.4200,-0.0022 l 0.4200,-0.0022 l 0.4200,-0.0024 l 0.4200,-0.0005 l 0.4200,0.0083 l 0.4200,-0.0027 l 0.4200,0.0001 l 0.4200,-0.0134 l 0.4200,0.0017 l 0.4200,0.0022 l 0.4200,-0.0057 l 0.4200,-0.0079 l 0.4200,-0.0058 l 0.4200,-0.0011 l 0.4200,0.0017 l 0.4200,0.0093 l 0.4200,0.0008 l 0.4200,-0.0003 l 0.4200,-0.0116 l 0.4200,-0.0064 l 0.4200,0.0038 l 0.4200,-0.0099 l 0.4200,0.0060 l 0.4200,0.0160 l 0.4200,-0.0147 l 0.4200,0.0184 l 0.4200,-0.0032 l 0.4200,0.0039 l 0.4200,-0.0126 l 0.4200,-0.0159 l 0.4200,0.0002 l 0.4200,0.0023 l 0.4200,-0.0115 l 0.4200,-0.0056 l 0.4200,-0.0010 l 0.4200,0.0110 l 0.4200,0.0005 l 0.4200,0.0039 l 0.4200,-0.0029 l 0.4200,-0.0026 l 0.4200,0.0172 l 0.4200,0.0083 l 0.4200,-0.0116 l 0.4200,0.0142 l 0.4200,0.0083 l 0.4200,0.0006 l 0.4200,-0.0036 l 0.4200,-0.0006 l 0.4200,-0.0176 l 0.4200,0.0154 l 0.4200,0.0006 l 0.4200,0.0110 l 0.4200,-0.0114 l 0.4200,0.0122 l 0.4200,0.0001 l 0.4200,0.0041 l 0.4200,-0.0058 l 0.4200,0.0026 l 0.4200,-0.0162 l 0.4200,-0.0103 l 0.4200,0.0008 l 0.4200,-0.0068 l 0.4200,0.0023 l 0.4200,-0.0015 l 0.4200,-0.0045 l 0.4200,0.0058 l 0.4200,-0.0083 l 0.4200,-0.0019 l 0.4200,-0.0059 l 0.4200,0.0040 l 0.4200,0.0174 l 0.4200,0.0130 l 0.4200,0.0028 l 0.4200,0.0027 l 0.4200,-0.0037 l 0.4200,0.0046 l 0.4200,-0.0072 l 0.4200,-0.0035 l 0.4200,0.0028 l 0.4200,-0.0205 l 0.4200,0.0504 l 0.4200,0.0079 l 0.4200,-0.0051 l 0.4200,-0.0296 l 0.4200,-0.0026 l 0.4200,0.0108 l 0.4200,-0.0073 l 0.4200,0.0018 l 0.4200,-0.0248 l 0.4200,-0.0062 l 0.4200,-0.0142 l 0.4200,0.0004 l 0.4200,-0.0114 l 0.4200,0.0030 l 0.4200,-0.0049 l 0.4200,0.0042 l 0.4200,-0.0096 l 0.4200,0.0096 l 0.4200,-0.0103 l 0.4200,0.0082 l 0.4200,-0.0000 l 0.4200,0.0036 l 0.4200,-0.0031 l 0.4200,-0.0032 l 0.4200,0.0038 l 0.4200,0.0154 l 0.4200,-0.0062 l 0.4200,0.0002 l 0.4200,-0.0195 l 0.4200,0.0031 l 0.4200,-0.0002 l 0.4200,0.0078 l 0.4200,-0.0107 l 0.4200,0.0028 l 0.4200,-0.0062 l 0.4200,0.0145 l 0.4200,-0.0037 l 0.4200,-0.0046 l 0.4200,0.0043 l 0.4200,0.0021 l 0.4200,-0.0040 l 0.4200,0.0133 l 0.4200,0.0038 l 0.4200,0.0042 l 0.4200,-0.0109 l 0.4200,0.0052 l 0.4200,0.0060 l 0.4200,0.0007 l 0.4200,-0.0086 l 0.4200,-0.0062 l 0.4200,0.0011 l 0.4200,0.0059 l 0.4200,0.0490 l 0.4200,-0.0232 l 0.4200,0.0261 l 0.4200,0.0012 l 0.4200,-0.0147 l 0.4200,0.0067 l 0.4200,0.0005 l 0.4200,-0.0000 l 0.4200,-0.0178 l 0.4200,-0.0122 l 0.4200,0.0122 l 0.4200,0.0159 l 0.4200,-0.0103 l 0.4200,-0.0093 l 0.4200,0.0178 l 0.4200,-0.0134 l 0.4200,0.0066 l 0.4200,0.0090 l 0.4200,-0.0067 l 0.4200,-0.0003 l 0.4200,0.0060 l 0.4200,-0.0073 l 0.4200,0.0206 l 0.4200,-0.0012 l 0.4200,0.0045 l 0.4200,0.0001 l 0.4200,0.0041 l 0.4200,-0.0073 l 0.4200,-0.0026 l 0.4200,0.0023 l 0.4200,0.0005 l 0.4200,-0.0063 l 0.4200,0.0059 l 0.4200,0.0027 l 0.4200,0.0041 l 0.4200,0.0039 l 0.4200,0.0004 l 0.4200,0.0069 l 0.4200,0.0050 l 0.4200,0.0026 l 0.4200,0.0008 l 0.4200,-0.0146 l 0.4200,-0.0040 l 0.4200,-0.0145 l 0.4200,-0.0026 l 0.4200,0.0027 l 0.4200,0.0006 l 0.4200,-0.0118 l 0.4200,0.0033 l 0.4200,-0.0078 l 0.4200,0.0049 l 0.4200,-0.0134 l 0.4200,-0.0038 l 0.4200,-0.0011 l 0.4200,-0.0077 l 0.4200,0.0119 l 0.4200,-0.0021 l 0.4200,0.0060 l 0.4200,0.0073 l 0.4200,-0.0002 l 0.4200,-0.0105 l 0.4200,-0.0064 l 0.4200,-0.0292 l 0.4200,-0.0047 l 0.4200,-0.0150 l 0.4200,0.0041 l 0.4200,-0.0175 l 0.4200,0.0242 l 0.4200,-0.0097 l 0.4200,0.0057 l 0.4200,-0.0045 l 0.4200,-0.0093 l 0.4200,0.0079 l 0.4200,0.0060 l 0.4200,-0.0025 l 0.4200,-0.0053 l 0.4200,0.0236 l 0.4200,0.0015 l 0.4200,0.0121 l 0.4200,-0.0198 l 0.4200,-0.0144 l 0.4200,0.0030 l 0.4200,-0.0089 l 0.4200,0.0109 l 0.4200,0.0009 l 0.4200,-0.0069 l 0.4200,0.0068 l 0.4200,-0.0042 l 0.4200,0.0090 l 0.4200,-0.0039 l 0.4200,0.0104 l 0.4200,-0.0079 l 0.4200,0.0079 l 0.4200,-0.0165 l 0.4200,-0.0221 l 0.4200,0.0032 l 0.4200,0.0036 l 0.4200,0.0183 l 0.4200,0.0033 l 0.4200,0.0001 l 0.4200,-0.0007 l 0.4200,-0.0194 l 0.4200,0.0071 l 0.4200,0.0003 l 0.4200,-0.0011 l 0.4200,-0.0159 l 0.4200,-0.0100 l 0.4200,-0.0158 l 0.4200,-0.0124 l 0.4200,-0.0163 l 0.4200,0.0044 l 0.4200,-0.0048 l 0.4200,-0.0210 l 0.4200,0.0055 l 0.4200,-0.0003 l 0.4200,-0.0043 l 0.4200,-0.0025 l 0.4200,0.0112 l 0.4200,-0.0515 l 0.4200,0.0257 l 0.4200,-0.0006 l 0.4200,0.0143 l 0.4200,0.0125 l 0.4200,0.0098 l 0.4200,-0.0016 l 0.4200,-0.0108 l 0.4200,-0.0001 l 0.4200,0.0139 l 0.4200,-0.0298 l 0.4200,0.0077 l 0.4200,0.0064 l 0.4200,0.0089 l 0.4200,0.0454 l 0.4200,-0.0051 l 0.4200,0.0046 l 0.4200,0.0038 l 0.4200,0.0043 l 0.4200,-0.0223 l 0.4200,-0.0025 l 0.4200,-0.0089 l 0.4200,0.0091 l 0.4200,0.0067 l 0.4200,-0.0007 l 0.4200,0.0113 l 0.4200,-0.0052 l 0.4200,0.0038 l 0.4200,-0.0011 l 0.4200,0.0057 l 0.4200,0.0129 l 0.4200,0.0212 l 0.4200,-0.0239 l 0.4200,0.0099 l 0.4200,0.0060 l 0.4200,-0.0215 l 0.4200,0.0105 l 0.4200,-0.0331 l 0.4200,-0.0199 l 0.4200,0.0030 l 0.4200,-0.0007 l 0.4200,0.0081 l 0.4200,-0.0049 l 0.4200,-0.0030 l 0.4200,0.0058 l 0.4200,-0.0008 l 0.4200,-0.0134 l 0.4200,0.0011 l 0.4200,0.0050 l 0.4200,-0.0028 l 0.4200,0.0091 l 0.4200,0.0064 l 0.4200,-0.0156 l 0.4200,0.0038 l 0.4200,0.0627 l 0.4200,-0.0099 l 0.4200,-0.0200 l 0.4200,-0.0160 l 0.4200,-0.0052 l 0.4200,-0.0075 l 0.4200,-0.0148 l 0.4200,0.0002 l 0.4200,0.0058 l 0.4200,0.0030 l 0.4200,-0.0268 l 0.4200,-0.0132 l 0.4200,0.0063 l 0.4200,0.0123 l 0.4200,-0.0047 l 0.4200,0.0003 l 0.4200,0.0046 "/></g></svg>