<?xml version="1.0" encoding="UTF-8"?>
<!DOCTYPE svg PUBLIC "-//W3C//DTD SVG 1.1//EN"
    "http://www.w3.org/Graphics/SVG/1.1/DTD/svg11.dtd"><svg xmlns="http://www.w3.org/2000/svg" height="400.0000" stroke-opacity="1" viewBox="0 0 600 400" font-size="1" width="600.0000" xmlns:xlink="http://www.w3.org/1999/xlink" stroke="rgb(0,0,0)" version="1.1"><defs></defs><g stroke-linejoin="miter" stroke-opacity="0.0" fill-opacity="0.2" stroke="rgb(0,0,0)" stroke-width="0.0" fill="rgb(85,85,85)" stroke-linecap="butt" stroke-miterlimit="10.0"><path d="M 94.4056,321.6783 l -0.0000,-279.7203 h -5.5944 l -0.0000,279.7203 Z"/></g><g stroke-linejoin="miter" stroke-opacity="1.0" fill-opacity="0.7" font-size="11.188811188811187px" stroke="rgb(0,0,0)" stroke-width="1.9296726052976874" fill="rgb(51,51,51)" stroke-linecap="butt" stroke-miterlimit="10.0"><text dominant-baseline="middle" transform="matrix(1.0000,0.0000,0.0000,1.0000,80.4196,44.4086)" stroke="none" text-anchor="end">0.0080</text></g><g stroke-linejoin="miter" stroke-opacity="0.5" fill-opacity="0.0" stroke="rgb(26,102,204)" stroke-width="1.9296726052976874" fill="rgb(0,0,0)" stroke-linecap="butt" stroke-miterlimit="10.0"><path d="M 86.0140,44.4086 h 5.5944 "/></g><g stroke-linejoin="miter" stroke-opacity="1.0" fill-opacity="0.7" font-size="11.188811188811187px" stroke="rgb(0,0,0)" stroke-width="1.9296726052976874" fill="rgb(51,51,51)" stroke-linecap="butt" stroke-miterlimit="10.0"><text dominant-baseline="middle" transform="matrix(1.0000,0.0000,0.0000,1.0000,80.4196,88.4595)" stroke="none" text-anchor="end">0.0060</text></g><g stroke-linejoin="miter" stroke-opacity="0.5" fill-opacity="0.0" stroke="rgb(26,102,204)" stroke-width="1.9296726052976874" fill="rgb(0,0,0)" stroke-linecap="butt" stroke-miterlimit="10.0"><path d="M 86.0140,88.4595 h 5.5944 "/></g><g stroke-linejoin="miter" stroke-opacity="1.0" fill-opacity="0.7" font-size="11.188811188811187px" stroke="rgb(0,0,0)" stroke-width="1.9296726052976874" fill="rgb(51,51,51)" stroke-linecap="butt" stroke-miterlimit="10.0"><text dominant-baseline="middle" transform="matrix(1.0000,0.0000,0.0000,1.0000,80.4196,132.5103)" stroke="none" text-anchor="end">0.0040</text></g><g stroke-linejoin="miter" stroke-opacity="0.5" fill-opacity="0.0" stroke="rgb(26,102,204)" stroke-width="1.9296726052976874" fill="rgb(0,0,0)" stroke-linecap="butt" stroke-miterlimit="10.0"><path d="M 86.0140,132.5103 h 5.5944 "/></g><g stroke-linejoin="miter" stroke-opacity="1.0" fill-opacity="0.7" font-size="11.188811188811187px" stroke="rgb(0,0,0)" stroke-width="1.9296726052976874" fill="rgb(51,51,51)" stroke-linecap="butt" stroke-miterlimit="10.0"><text dominant-baseline="middle" transform="matrix(1.0000,0.0000,0.0000,1.0000,80.4196,176.5612)" stroke="none" text-anchor="end">0.0020</text></g><g stroke-linejoin="miter" stroke-opacity="0.5" fill-opacity="0.0" stroke="rgb(26,102,204)" stroke-width="1.9296726052976874" fill="rgb(0,0,0)" stroke-linecap="butt" stroke-miterlimit="10.0"><path d="M 86.0140,176.5612 h 5.5944 "/></g><g stroke-linejoin="miter" stroke-opacity="1.0" fill-opacity="0.7" font-size="11.188811188811187px" stroke="rgb(0,0,0)" stroke-width="1.9296726052976874" fill="rgb(51,51,51)" stroke-linecap="butt" stroke-miterlimit="10.0"><text dominant-baseline="middle" transform="matrix(1.0000,0.0000,0.0000,1.0000,80.4196,220.6120)" stroke="none" text-anchor="end">0.0</text></g><g stroke-linejoin="miter" stroke-opacity="0.5" fill-opacity="0.0" stroke="rgb(26,102,204)" stroke-width="1.9296726052976874" fill="rgb(0,0,0)" stroke-linecap="butt" stroke-miterlimit="10.0"><path d="M 86.0140,220.6120 h 5.5944 "/></g><g stroke-linejoin="miter" stroke-opacity="1.0" fill-opacity="0.7" font-size="11.188811188811187px" stroke="rgb(0,0,0)" stroke-width="1.9296726052976874" fill="rgb(51,51,51)" stroke-linecap="butt" stroke-miterlimit="10.0"><text dominant-baseline="middle" transform="matrix(1.0000,0.0000,0.0000,1.0000,80.4196,264.6629)" stroke="none" text-anchor="end">-0.0020</text></g><g stroke-linejoin="miter" stroke-opacity="0.5" fill-opacity="0.0" stroke="rgb(26,102,204)" stroke-width="1.9296726052976874" fill="rgb(0,0,0)" stroke-linecap="butt" stroke-miterlimit="10.0"><path d="M 86.0140,264.6629 h 5.5944 "/></g><g stroke-linejoin="miter" stroke-opacity="1.0" fill-opacity="0.7" font-size="11.188811188811187px" stroke="rgb(0,0,0)" stroke-width="1.9296726052976874" fill="rgb(51,51,51)" stroke-linecap="butt" stroke-miterlimit="10.0"><text dominant-baseline="middle" transform="matrix(1.0000,0.0000,0.0000,1.0000,80.4196,308.7137)" stroke="none" text-anchor="end">-0.0040</text></g><g stroke-linejoin="miter" stroke-opacity="0.5" fill-opacity="0.0" stroke="rgb(26,102,204)" stroke-width="1.9296726052976874" fill="rgb(0,0,0)" stroke-linecap="butt" stroke-miterlimit="10.0"><path d="M 86.0140,308.7137 h 5.5944 "/></g><g stroke-linejoin="miter" stroke-opacity="0.0" fill-opacity="0.2" stroke="rgb(0,0,0)" stroke-width="0.0" fill="rgb(85,85,85)" stroke-linecap="butt" stroke-miterlimit="10.0"><path d="M 527.9720,341.2587 l -0.0000,-5.5944 h -419.5804 l -0.0000,5.5944 Z"/></g><g stroke-linejoin="miter" stroke-opacity="1.0" fill-opacity="0.7" font-size="11.188811188811187px" stroke="rgb(0,0,0)" stroke-width="1.9296726052976874" fill="rgb(51,51,51)" stroke-linecap="butt" stroke-miterlimit="10.0"><text dominant-baseline="text-before-edge" transform="matrix(1.0000,0.0000,0.0000,1.0000,501.5120,349.6503)" stroke="none" text-anchor="middle">1.7e4</text></g><g stroke-linejoin="miter" stroke-opacity="0.5" fill-opacity="0.0" stroke="rgb(26,102,204)" stroke-width="1.9296726052976874" fill="rgb(0,0,0)" stroke-linecap="butt" stroke-miterlimit="10.0"><path d="M 501.5120,338.4615 v 5.5944 "/></g><g stroke-linejoin="miter" stroke-opacity="1.0" fill-opacity="0.7" font-size="11.188811188811187px" stroke="rgb(0,0,0)" stroke-width="1.9296726052976874" fill="rgb(51,51,51)" stroke-linecap="butt" stroke-miterlimit="10.0"><text dominant-baseline="text-before-edge" transform="matrix(1.0000,0.0000,0.0000,1.0000,459.5120,349.6503)" stroke="none" text-anchor="middle">1.7e4</text></g><g stroke-linejoin="miter" stroke-opacity="0.5" fill-opacity="0.0" stroke="rgb(26,102,204)" stroke-width="1.9296726052976874" fill="rgb(0,0,0)" stroke-linecap="butt" stroke-miterlimit="10.0"><path d="M 459.5120,338.4615 v 5.5944 "/></g><g stroke-linejoin="miter" stroke-opacity="1.0" fill-opacity="0.7" font-size="11.188811188811187px" stroke="rgb(0,0,0)" stroke-width="1.9296726052976874" fill="rgb(51,51,51)" stroke-linecap="butt" stroke-miterlimit="10.0"><text dominant-baseline="text-before-edge" transform="matrix(1.0000,0.0000,0.0000,1.0000,417.5119,349.6503)" stroke="none" text-anchor="middle">1.7e4</text></g><g stroke-linejoin="miter" stroke-opacity="0.5" fill-opacity="0.0" stroke="rgb(26,102,204)" stroke-width="1.9296726052976874" fill="rgb(0,0,0)" stroke-linecap="butt" stroke-miterlimit="10.0"><path d="M 417.5119,338.4615 v 5.5944 "/></g><g stroke-linejoin="miter" stroke-opacity="1.0" fill-opacity="0.7" font-size="11.188811188811187px" stroke="rgb(0,0,0)" stroke-width="1.9296726052976874" fill="rgb(51,51,51)" stroke-linecap="butt" stroke-miterlimit="10.0"><text dominant-baseline="text-before-edge" transform="matrix(1.0000,0.0000,0.0000,1.0000,375.5119,349.6503)" stroke="none" text-anchor="middle">1.7e4</text></g><g stroke-linejoin="miter" stroke-opacity="0.5" fill-opacity="0.0" stroke="rgb(26,102,204)" stroke-width="1.9296726052976874" fill="rgb(0,0,0)" stroke-linecap="butt" stroke-miterlimit="10.0"><path d="M 375.5119,338.4615 v 5.5944 "/></g><g stroke-linejoin="miter" stroke-opacity="1.0" fill-opacity="0.7" font-size="11.188811188811187px" stroke="rgb(0,0,0)" stroke-width="1.9296726052976874" fill="rgb(51,51,51)" stroke-linecap="butt" stroke-miterlimit="10.0"><text dominant-baseline="text-before-edge" transform="matrix(1.0000,0.0000,0.0000,1.0000,333.5118,349.6503)" stroke="none" text-anchor="middle">1.7e4</text></g><g stroke-linejoin="miter" stroke-opacity="0.5" fill-opacity="0.0" stroke="rgb(26,102,204)" stroke-width="1.9296726052976874" fill="rgb(0,0,0)" stroke-linecap="butt" stroke-miterlimit="10.0"><path d="M 333.5118,338.4615 v 5.5944 "/></g><g stroke-linejoin="miter" stroke-opacity="1.0" fill-opacity="0.7" font-size="11.188811188811187px" stroke="rgb(0,0,0)" stroke-width="1.9296726052976874" fill="rgb(51,51,51)" stroke-linecap="butt" stroke-miterlimit="10.0"><text dominant-baseline="text-before-edge" transform="matrix(1.0000,0.0000,0.0000,1.0000,291.5118,349.6503)" stroke="none" text-anchor="middle">1.6e4</text></g><g stroke-linejoin="miter" stroke-opacity="0.5" fill-opacity="0.0" stroke="rgb(26,102,204)" stroke-width="1.9296726052976874" fill="rgb(0,0,0)" stroke-linecap="butt" stroke-miterlimit="10.0"><path d="M 291.5118,338.4615 v 5.5944 "/></g><g stroke-linejoin="miter" stroke-opacity="1.0" fill-opacity="0.7" font-size="11.188811188811187px" stroke="rgb(0,0,0)" stroke-width="1.9296726052976874" fill="rgb(51,51,51)" stroke-linecap="butt" stroke-miterlimit="10.0"><text dominant-baseline="text-before-edge" transform="matrix(1.0000,0.0000,0.0000,1.0000,249.5117,349.6503)" stroke="none" text-anchor="middle">1.6e4</text></g><g stroke-linejoin="miter" stroke-opacity="0.5" fill-opacity="0.0" stroke="rgb(26,102,204)" stroke-width="1.9296726052976874" fill="rgb(0,0,0)" stroke-linecap="butt" stroke-miterlimit="10.0"><path d="M 249.5117,338.4615 v 5.5944 "/></g><g stroke-linejoin="miter" stroke-opacity="1.0" fill-opacity="0.7" font-size="11.188811188811187px" stroke="rgb(0,0,0)" stroke-width="1.9296726052976874" fill="rgb(51,51,51)" stroke-linecap="butt" stroke-miterlimit="10.0"><text dominant-baseline="text-before-edge" transform="matrix(1.0000,0.0000,0.0000,1.0000,207.5117,349.6503)" stroke="none" text-anchor="middle">1.6e4</text></g><g stroke-linejoin="miter" stroke-opacity="0.5" fill-opacity="0.0" stroke="rgb(26,102,204)" stroke-width="1.9296726052976874" fill="rgb(0,0,0)" stroke-linecap="butt" stroke-miterlimit="10.0"><path d="M 207.5117,338.4615 v 5.5944 "/></g><g stroke-linejoin="miter" stroke-opacity="1.0" fill-opacity="0.7" font-size="11.188811188811187px" stroke="rgb(0,0,0)" stroke-width="1.9296726052976874" fill="rgb(51,51,51)" stroke-linecap="butt" stroke-miterlimit="10.0"><text dominant-baseline="text-before-edge" transform="matrix(1.0000,0.0000,0.0000,1.0000,165.5117,349.6503)" stroke="none" text-anchor="middle">1.6e4</text></g><g stroke-linejoin="miter" stroke-opacity="0.5" fill-opacity="0.0" stroke="rgb(26,102,204)" stroke-width="1.9296726052976874" fill="rgb(0,0,0)" stroke-linecap="butt" stroke-miterlimit="10.0"><path d="M 165.5117,338.4615 v 5.5944 "/></g><g stroke-linejoin="miter" stroke-opacity="1.0" fill-opacity="0.7" font-size="11.188811188811187px" stroke="rgb(0,0,0)" stroke-width="1.9296726052976874" fill="rgb(51,51,51)" stroke-linecap="butt" stroke-miterlimit="10.0"><text dominant-baseline="text-before-edge" transform="matrix(1.0000,0.0000,0.0000,1.0000,123.5116,349.6503)" stroke="none" text-anchor="middle">1.6e4</text></g><g stroke-linejoin="miter" stroke-opacity="0.5" fill-opacity="0.0" stroke="rgb(26,102,204)" stroke-width="1.9296726052976874" fill="rgb(0,0,0)" stroke-linecap="butt" stroke-miterlimit="10.0"><path d="M 123.5116,338.4615 v 5.5944 "/></g><g stroke-linejoin="miter" stroke-opacity="0.0" fill-opacity="2.0e-2" stroke="rgb(0,0,0)" stroke-width="0.0" fill="rgb(255,255,255)" stroke-linecap="butt" stroke-miterlimit="10.0"><path d="M 527.9720,321.6783 l -0.0000,-279.7203 h -419.5804 l -0.0000,279.7203 Z"/></g><g stroke-linejoin="miter" stroke-opacity="1.0" fill-opacity="0.0" stroke="rgb(250,165,218)" stroke-width="0.48241815132442184" fill="rgb(0,0,0)" stroke-linecap="butt" stroke-miterlimit="10.0"><path d="M 108.3916,233.9168 l 0.4200,7.3902 l 0.4200,-25.6074 l 0.4200,26.4335 l 0.4200,14.9580 l 0.4200,4.7529 l 0.4200,-3.8300 l 0.4200,3.0625 l 0.4200,-1.4463 l 0.4200,-0.7640 l 0.4200,3.0546 l 0.4200,-2.0107 l 0.4200,-4.2467 l 0.4200,-0.6717 l 0.4200,-10.7471 l 0.4200,-3.7624 l 0.4200,-0.8948 l 0.4200,5.9761 l 0.4200,-2.3856 l 0.4200,-4.5078 l 0.4200,-0.8853 l 0.4200,-1.2500 l 0.4200,2.9272 l 0.4200,3.5094 l 0.4200,-1.2521 l 0.4200,-0.4049 l 0.4200,1.7488 l 0.4200,-0.4878 l 0.4200,-0.4595 l 0.4200,-0.6445 l 0.4200,-0.9063 l 0.4200,1.5735 l 0.4200,3.1571 l 0.4200,-0.5849 l 0.4200,0.4155 l 0.4200,-1.1043 l 0.4200,-1.5404 l 0.4200,0.5524 l 0.4200,-2.9784 l 0.4200,-13.5811 l 0.4200,-6.3518 l 0.4200,-10.4446 l 0.4200,10.6815 l 0.4200,-8.4303 l 0.4200,17.4203 l 0.4200,4.2407 l 0.4200,-3.6561 l 0.4200,-16.2662 l 0.4200,7.7231 l 0.4200,4.1685 l 0.4200,-3.2954 l 0.4200,6.4088 l 0.4200,7.9225 l 0.4200,0.1153 l 0.4200,-0.3903 l 0.4200,2.6241 l 0.4200,-2.8129 l 0.4200,-2.3308 l 0.4200,3.1678 l 0.4200,-1.7019 l 0.4200,-3.8971 l 0.4200,-3.6464 l 0.4200,-12.8808 l 0.4200,6.6754 l 0.4200,12.1704 l 0.4200,4.0845 l 0.4200,0.8391 l 0.4200,0.0623 l 0.4200,-0.2300 l 0.4200,0.1780 l 0.4200,-1.7705 l 0.4200,4.6601 l 0.4200,-0.5932 l 0.4200,-1.8381 l 0.4200,5.3349 l 0.4200,-3.0697 l 0.4200,-12.7040 l 0.4200,1.6451 l 0.4200,33.8960 l 0.4200,-2.0558 l 0.4200,-3.3895 l 0.4200,5.1188 l 0.4200,-3.5778 l 0.4200,-9.0492 l 0.4200,-10.2747 l 0.4200,0.8812 l 0.4200,-7.9151 l 0.4200,9.7906 l 0.4200,-3.2695 l 0.4200,-4.5012 l 0.4200,-0.4681 l 0.4200,-5.5570 l 0.4200,8.7367 l 0.4200,4.0001 l 0.4200,-1.4844 l 0.4200,-1.9829 l 0.4200,2.4094 l 0.4200,-1.8098 l 0.4200,8.2176 l 0.4200,5.3432 l 0.4200,-0.7117 l 0.4200,0.5862 l 0.4200,-1.6721 l 0.4200,-3.3500 l 0.4200,-3.5685 l 0.4200,4.6496 l 0.4200,1.1518 l 0.4200,0.6116 l 0.4200,0.2163 l 0.4200,-2.6272 l 0.4200,1.1310 l 0.4200,-0.2553 l 0.4200,-1.2173 l 0.4200,0.1868 l 0.4200,0.1983 l 0.4200,-1.4785 l 0.4200,-2.2045 l 0.4200,-5.0799 l 0.4200,12.3982 l 0.4200,-0.7108 l 0.4200,-1.0220 l 0.4200,-7.2735 l 0.4200,-9.1259 l 0.4200,-1.8071 l 0.4200,9.9735 l 0.4200,-4.9743 l 0.4200,20.9763 l 0.4200,-0.6623 l 0.4200,-1.1232 l 0.4200,-2.8212 l 0.4200,-2.6071 l 0.4200,-4.4739 l 0.4200,0.8441 l 0.4200,0.3929 l 0.4200,-2.9839 l 0.4200,9.1804 l 0.4200,-1.0145 l 0.4200,-1.7524 l 0.4200,2.2561 l 0.4200,-0.8582 l 0.4200,-0.9296 l 0.4200,-0.5131 l 0.4200,-1.5856 l 0.4200,14.5692 l 0.4200,0.2980 l 0.4200,-0.7157 l 0.4200,-1.7207 l 0.4200,-0.0098 l 0.4200,-1.3243 l 0.4200,-5.6643 l 0.4200,-38.2004 l 0.4200,-12.3096 l 0.4200,23.7486 l 0.4200,-20.2688 l 0.4200,30.7059 l 0.4200,-9.5729 l 0.4200,-37.4902 l 0.4200,29.4600 l 0.4200,-1.1637 l 0.4200,23.4419 l 0.4200,12.0491 l 0.4200,-0.5877 l 0.4200,0.3243 l 0.4200,-0.6458 l 0.4200,-3.1934 l 0.4200,-3.8811 l 0.4200,-1.2857 l 0.4200,5.4417 l 0.4200,-3.0706 l 0.4200,0.9723 l 0.4200,-3.6846 l 0.4200,0.9385 l 0.4200,-0.3286 l 0.4200,-3.1658 l 0.4200,-2.2741 l 0.4200,6.6774 l 0.4200,-5.0840 l 0.4200,0.5568 l 0.4200,-1.4865 l 0.4200,-0.1436 l 0.4200,0.7596 l 0.4200,4.0933 l 0.4200,-0.5076 l 0.4200,2.7868 l 0.4200,-2.8860 l 0.4200,6.7656 l 0.4200,-0.0823 l 0.4200,1.8077 l 0.4200,0.0325 l 0.4200,0.0980 l 0.4200,-1.1022 l 0.4200,0.9937 l 0.4200,-1.9692 l 0.4200,-2.8689 l 0.4200,2.9598 l 0.4200,2.8493 l 0.4200,-2.0853 l 0.4200,-2.6066 l 0.4200,0.7163 l 0.4200,7.8166 l 0.4200,-8.6360 l 0.4200,3.9901 l 0.4200,10.8802 l 0.4200,-3.7624 l 0.4200,-22.4272 l 0.4200,19.0525 l 0.4200,8.1835 l 0.4200,7.4834 l 0.4200,-1.3200 l 0.4200,-1.5009 l 0.4200,-2.5619 l 0.4200,0.2094 l 0.4200,-1.7338 l 0.4200,2.4495 l 0.4200,-0.2775 l 0.4200,-0.9116 l 0.4200,-2.1499 l 0.4200,-0.9893 l 0.4200,-0.4048 l 0.4200,-1.5079 l 0.4200,2.4459 l 0.4200,1.9548 l 0.4200,-1.2591 l 0.4200,-0.9330 l 0.4200,-0.3048 l 0.4200,-1.5989 l 0.4200,3.0305 l 0.4200,0.8012 l 0.4200,1.4666 l 0.4200,0.3323 l 0.4200,-1.5548 l 0.4200,5.2249 l 0.4200,-1.6069 l 0.4200,-2.8382 l 0.4200,-6.3698 l 0.4200,0.1348 l 0.4200,-7.0941 l 0.4200,-3.8639 l 0.4200,-1.6890 l 0.4200,0.1679 l 0.4200,-2.4796 l 0.4200,-7.7722 l 0.4200,-7.0767 l 0.4200,-0.0818 l 0.4200,1.8886 l 0.4200,5.8362 l 0.4200,5.8179 l 0.4200,-0.4100 l 0.4200,-0.6355 l 0.4200,-0.8213 l 0.4200,-2.6268 l 0.4200,-1.0129 l 0.4200,-1.3719 l 0.4200,0.5752 l 0.4200,5.4014 l 0.4200,-0.0923 l 0.4200,0.1249 l 0.4200,-0.6942 l 0.4200,-0.3491 l 0.4200,-0.6882 l 0.4200,-0.4418 l 0.4200,-3.6798 l 0.4200,5.3904 l 0.4200,2.9784 l 0.4200,1.7876 l 0.4200,-1.3720 l 0.4200,-0.4179 l 0.4200,1.9225 l 0.4200,-0.9045 l 0.4200,0.8382 l 0.4200,0.0043 l 0.4200,15.4570 l 0.4200,-2.1165 l 0.4200,1.7445 l 0.4200,-1.0636 l 0.4200,-1.0518 l 0.4200,-0.9182 l 0.4200,-2.0721 l 0.4200,-6.5350 l 0.4200,-3.2412 l 0.4200,-34.9210 l 0.4200,-5.4183 l 0.4200,25.3693 l 0.4200,-18.8169 l 0.4200,2.8328 l 0.4200,-9.1970 l 0.4200,27.4054 l 0.4200,2.7422 l 0.4200,-1.9107 l 0.4200,5.6579 l 0.4200,1.0190 l 0.4200,-0.6168 l 0.4200,0.0465 l 0.4200,-3.1675 l 0.4200,-2.2529 l 0.4200,-2.7361 l 0.4200,2.4574 l 0.4200,-3.7607 l 0.4200,-0.6642 l 0.4200,0.4025 l 0.4200,1.8218 l 0.4200,-2.0740 l 0.4200,0.7299 l 0.4200,0.6346 l 0.4200,0.7258 l 0.4200,-1.6001 l 0.4200,2.1152 l 0.4200,1.5281 l 0.4200,0.8415 l 0.4200,-0.4297 l 0.4200,-0.8026 l 0.4200,-1.2417 l 0.4200,4.9322 l 0.4200,-0.5231 l 0.4200,-0.8638 l 0.4200,0.0782 l 0.4200,2.8250 l 0.4200,-4.3799 l 0.4200,8.6187 l 0.4200,-6.0675 l 0.4200,15.8851 l 0.4200,-4.1833 l 0.4200,-4.9760 l 0.4200,-19.9750 l 0.4200,1.1301 l 0.4200,23.2435 l 0.4200,-2.5114 l 0.4200,-15.8490 l 0.4200,36.1680 l 0.4200,-11.5902 l 0.4200,-24.9959 l 0.4200,-37.5693 l 0.4200,16.1693 l 0.4200,-11.6562 l 0.4200,8.5511 l 0.4200,29.1453 l 0.4200,10.5616 l 0.4200,10.0699 l 0.4200,2.0929 l 0.4200,-2.0919 l 0.4200,-6.1577 l 0.4200,0.5444 l 0.4200,-11.2032 l 0.4200,1.8634 l 0.4200,-7.5198 l 0.4200,-15.2195 l 0.4200,3.0382 l 0.4200,6.3961 l 0.4200,-5.8477 l 0.4200,-3.1687 l 0.4200,1.7504 l 0.4200,-1.9469 l 0.4200,1.1746 l 0.4200,2.4971 l 0.4200,0.7644 l 0.4200,0.8728 l 0.4200,0.3112 l 0.4200,-2.9320 l 0.4200,2.5144 l 0.4200,-0.5818 l 0.4200,-2.8000 l 0.4200,-1.1233 l 0.4200,2.4054 l 0.4200,-0.9991 l 0.4200,2.9502 l 0.4200,4.0081 l 0.4200,-0.6609 l 0.4200,-1.1260 l 0.4200,0.9731 l 0.4200,-0.3696 l 0.4200,2.6493 l 0.4200,-0.4509 l 0.4200,-3.9697 l 0.4200,5.1224 l 0.4200,-14.9820 l 0.4200,-9.4752 l 0.4200,-12.6827 l 0.4200,45.9573 l 0.4200,19.7682 l 0.4200,-2.5111 l 0.4200,-2.6819 l 0.4200,-1.5529 l 0.4200,-0.2106 l 0.4200,-2.2858 l 0.4200,-0.7758 l 0.4200,2.8533 l 0.4200,1.9814 l 0.4200,-1.3370 l 0.4200,-9.5390 l 0.4200,-14.5195 l 0.4200,22.0016 l 0.4200,17.3766 l 0.4200,-1.1713 l 0.4200,-5.7043 l 0.4200,-4.1155 l 0.4200,-7.5671 l 0.4200,-13.0602 l 0.4200,22.5808 l 0.4200,-0.0033 l 0.4200,1.9016 l 0.4200,4.0177 l 0.4200,2.0826 l 0.4200,-1.6386 l 0.4200,3.0742 l 0.4200,-9.4837 l 0.4200,11.6640 l 0.4200,-10.4624 l 0.4200,16.8795 l 0.4200,5.5516 l 0.4200,0.2245 l 0.4200,-3.0712 l 0.4200,0.9644 l 0.4200,0.4979 l 0.4200,-3.2027 l 0.4200,-1.7515 l 0.4200,-9.1860 l 0.4200,-7.0561 l 0.4200,-3.3222 l 0.4200,-0.2151 l 0.4200,0.6800 l 0.4200,-6.6220 l 0.4200,0.2642 l 0.4200,-3.1567 l 0.4200,0.9100 l 0.4200,1.2594 l 0.4200,1.7844 l 0.4200,-3.0015 l 0.4200,3.2021 l 0.4200,0.7688 l 0.4200,-0.8061 l 0.4200,-1.4606 l 0.4200,2.9930 l 0.4200,-15.4362 l 0.4200,-4.3905 l 0.4200,23.1392 l 0.4200,-6.6436 l 0.4200,15.0718 l 0.4200,-1.9760 l 0.4200,4.2405 l 0.4200,0.9554 l 0.4200,-1.2276 l 0.4200,0.0286 l 0.4200,1.5419 l 0.4200,-3.1903 l 0.4200,-5.4513 l 0.4200,1.2173 l 0.4200,11.3817 l 0.4200,-1.9097 l 0.4200,-4.9850 l 0.4200,1.8128 l 0.4200,3.0011 l 0.4200,-1.5788 l 0.4200,-0.5605 l 0.4200,-0.9693 l 0.4200,-2.8528 l 0.4200,2.1994 l 0.4200,-1.5576 l 0.4200,-2.9217 l 0.4200,-0.5207 l 0.4200,5.9912 l 0.4200,3.9086 l 0.4200,-0.7780 l 0.4200,-2.0175 l 0.4200,-2.8264 l 0.4200,-3.1025 l 0.4200,2.6872 l 0.4200,-2.1397 l 0.4200,1.1971 l 0.4200,-0.2456 l 0.4200,10.1307 l 0.4200,-1.9180 l 0.4200,4.4285 l 0.4200,-7.4454 l 0.4200,2.3249 l 0.4200,10.3453 l 0.4200,1.7729 l 0.4200,-1.6771 l 0.4200,-2.0298 l 0.4200,3.1112 l 0.4200,-2.9341 l 0.4200,-4.8014 l 0.4200,-1.4383 l 0.4200,-0.8982 l 0.4200,-3.0769 l 0.4200,0.4493 l 0.4200,3.3943 l 0.4200,6.9666 l 0.4200,-1.2263 l 0.4200,-1.6341 l 0.4200,-0.7488 l 0.4200,-2.7775 l 0.4200,-0.5474 l 0.4200,-5.8328 l 0.4200,-6.4726 l 0.4200,-14.5734 l 0.4200,-1.6232 l 0.4200,21.0652 l 0.4200,-0.7671 l 0.4200,-1.9828 l 0.4200,-6.5200 l 0.4200,6.2032 l 0.4200,-0.1527 l 0.4200,2.4222 l 0.4200,3.2425 l 0.4200,-2.0236 l 0.4200,-2.1944 l 0.4200,5.0207 l 0.4200,-1.9989 l 0.4200,-1.8644 l 0.4200,-15.4589 l 0.4200,3.8913 l 0.4200,12.3181 l 0.4200,-2.4141 l 0.4200,-6.0889 l 0.4200,6.7447 l 0.4200,-11.9310 l 0.4200,3.0209 l 0.4200,18.5745 l 0.4200,2.1881 l 0.4200,-5.4808 l 0.4200,-1.4600 l 0.4200,-9.7411 l 0.4200,-3.9190 l 0.4200,-2.8058 l 0.4200,4.7522 l 0.4200,0.9443 l 0.4200,2.3409 l 0.4200,-0.8216 l 0.4200,-7.2183 l 0.4200,16.0855 l 0.4200,-0.2185 l 0.4200,-1.4746 l 0.4200,-0.1902 l 0.4200,-0.5611 l 0.4200,-1.3363 l 0.4200,-0.3420 l 0.4200,-0.6379 l 0.4200,-3.7734 l 0.4200,11.5808 l 0.4200,3.0700 l 0.4200,-1.1325 l 0.4200,-2.1919 l 0.4200,0.7396 l 0.4200,-1.0091 l 0.4200,-0.0856 l 0.4200,0.3858 l 0.4200,-20.2233 l 0.4200,-96.2044 l 0.4200,-115.6436 l 0.4200,38.9189 l 0.4200,171.3775 l 0.4200,38.2319 l 0.4200,-0.9118 l 0.4200,-5.3379 l 0.4200,-21.6030 l 0.4200,30.0309 l 0.4200,-0.0623 l 0.4200,-10.9765 l 0.4200,26.0717 l 0.4200,-3.2355 l 0.4200,1.1900 l 0.4200,-0.7619 l 0.4200,-2.1644 l 0.4200,-0.4749 l 0.4200,-6.5565 l 0.4200,-1.1217 l 0.4200,8.1221 l 0.4200,-2.1448 l 0.4200,0.7591 l 0.4200,-2.2792 l 0.4200,-2.5810 l 0.4200,-1.7124 l 0.4200,-8.7136 l 0.4200,1.1983 l 0.4200,20.3870 l 0.4200,-1.9129 l 0.4200,-3.4156 l 0.4200,-18.6282 l 0.4200,1.2275 l 0.4200,-14.5627 l 0.4200,-16.8927 l 0.4200,-2.6471 l 0.4200,-2.9850 l 0.4200,9.7837 l 0.4200,4.0253 l 0.4200,-14.1158 l 0.4200,-6.5945 l 0.4200,-0.0477 l 0.4200,2.1098 l 0.4200,6.5692 l 0.4200,-14.0211 l 0.4200,-13.8556 l 0.4200,6.1033 l 0.4200,5.3891 l 0.4200,-12.1693 l 0.4200,3.5168 l 0.4200,8.1502 l 0.4200,-10.1991 l 0.4200,-0.8733 l 0.4200,6.7626 l 0.4200,2.4857 l 0.4200,1.2535 l 0.4200,7.6499 l 0.4200,-0.6387 l 0.4200,0.6827 l 0.4200,1.0574 l 0.4200,-6.1174 l 0.4200,13.3194 l 0.4200,-1.1765 l 0.4200,4.5017 l 0.4200,-0.1166 l 0.4200,-1.5361 l 0.4200,0.0204 l 0.4200,-0.8537 l 0.4200,-0.4751 l 0.4200,-0.6679 l 0.4200,0.3219 l 0.4200,0.2621 l 0.4200,4.3176 l 0.4200,-4.2683 l 0.4200,19.4265 l 0.4200,-0.1861 l 0.4200,-3.3688 l 0.4200,-6.8404 l 0.4200,0.9664 l 0.4200,-18.8729 l 0.4200,9.0593 l 0.4200,14.2027 l 0.4200,9.3600 l 0.4200,0.0137 l 0.4200,-15.7210 l 0.4200,11.8387 l 0.4200,8.0220 l 0.4200,5.0306 l 0.4200,-1.2260 l 0.4200,-1.3423 l 0.4200,-0.7192 l 0.4200,2.5482 l 0.4200,-0.9452 l 0.4200,-10.1871 l 0.4200,0.9269 l 0.4200,-17.2404 l 0.4200,-43.1481 l 0.4200,-19.5642 l 0.4200,14.8598 l 0.4200,23.6277 l 0.4200,-34.7632 l 0.4200,46.0624 l 0.4200,-26.0972 l 0.4200,7.8276 l 0.4200,-13.3385 l 0.4200,15.9355 l 0.4200,30.1166 l 0.4200,-8.1301 l 0.4200,14.5651 l 0.4200,-4.3474 l 0.4200,3.8476 l 0.4200,8.3643 l 0.4200,-1.6695 l 0.4200,8.8495 l 0.4200,-0.6449 l 0.4200,-1.7576 l 0.4200,2.6395 l 0.4200,-7.4258 l 0.4200,-0.3477 l 0.4200,-0.0308 l 0.4200,-8.7164 l 0.4200,21.8001 l 0.4200,0.6148 l 0.4200,-13.2985 l 0.4200,3.1719 l 0.4200,-2.7551 l 0.4200,-17.1972 l 0.4200,17.6319 l 0.4200,-6.4198 l 0.4200,-14.1508 l 0.4200,1.6374 l 0.4200,9.1410 l 0.4200,-21.8334 l 0.4200,-6.2873 l 0.4200,-4.3848 l 0.4200,-3.3924 l 0.4200,0.8380 l 0.4200,17.7710 l 0.4200,-4.6442 l 0.4200,0.1605 l 0.4200,-14.7741 l 0.4200,4.0960 l 0.4200,3.8327 l 0.4200,-4.6710 l 0.4200,-5.6919 l 0.4200,-2.9691 l 0.4200,1.4822 l 0.4200,3.3075 l 0.4200,7.9505 l 0.4200,0.8576 l 0.4200,0.1166 l 0.4200,-4.2424 l 0.4200,-2.2947 l 0.4200,3.0544 l 0.4200,-3.3640 l 0.4200,3.9608 l 0.4200,6.7232 l 0.4200,-1.4814 l 0.4200,6.1957 l 0.4200,-0.3495 l 0.4200,-0.4654 l 0.4200,0.8515 l 0.4200,-2.6687 l 0.4200,0.3366 l 0.4200,0.8274 l 0.4200,-2.6124 l 0.4200,-1.4225 l 0.4200,0.1736 l 0.4200,3.7423 l 0.4200,-0.1578 l 0.4200,0.0759 l 0.4200,-0.4610 l 0.4200,-0.4675 l 0.4200,0.3161 l 0.4200,-3.5498 l 0.4200,5.5945 l 0.4200,-4.0991 l 0.4200,-6.3797 l 0.4200,-0.7724 l 0.4200,3.3181 l 0.4200,0.0870 l 0.4200,10.0359 l 0.4200,-1.5128 l 0.4200,-1.0365 l 0.4200,-7.0425 l 0.4200,11.5088 l 0.4200,-6.1849 l 0.4200,-0.4597 l 0.4200,-4.5709 l 0.4200,7.0405 l 0.4200,-2.3115 l 0.4200,11.2201 l 0.4200,-1.0487 l 0.4200,-0.3082 l 0.4200,-2.1244 l 0.4200,0.4010 l 0.4200,-0.8658 l 0.4200,-1.6191 l 0.4200,1.5639 l 0.4200,-1.7956 l 0.4200,-0.9002 l 0.4200,-2.0501 l 0.4200,1.4034 l 0.4200,4.4019 l 0.4200,-3.8712 l 0.4200,-3.0279 l 0.4200,-3.0795 l 0.4200,3.1443 l 0.4200,-3.8120 l 0.4200,5.9615 l 0.4200,0.8557 l 0.4200,-1.3218 l 0.4200,6.2575 l 0.4200,23.5054 l 0.4200,-49.1302 l 0.4200,57.2714 l 0.4200,42.9651 l 0.4200,-3.8023 l 0.4200,1.2626 l 0.4200,-2.8368 l 0.4200,-2.1648 l 0.4200,-6.7978 l 0.4200,-7.9980 l 0.4200,-12.6011 l 0.4200,-2.9628 l 0.4200,-9.4084 l 0.4200,0.0041 l 0.4200,-4.1870 l 0.4200,0.9286 l 0.4200,-5.0830 l 0.4200,3.4786 l 0.4200,-4.1663 l 0.4200,2.2096 l 0.4200,-0.9581 l 0.4200,-0.1714 l 0.4200,-1.4226 l 0.4200,-1.4097 l 0.4200,-0.2956 l 0.4200,0.3117 l 0.4200,-0.3303 l 0.4200,-1.2026 l 0.4200,0.5192 l 0.4200,-0.3599 l 0.4200,-0.9449 l 0.4200,-0.3827 l 0.4200,-0.4134 l 0.4200,-0.7085 l 0.4200,-1.0164 l 0.4200,0.1943 l 0.4200,-0.6199 l 0.4200,-0.5879 l 0.4200,-1.3253 l 0.4200,-1.5106 l 0.4200,-0.4015 l 0.4200,-3.0596 l 0.4200,-3.1207 l 0.4200,-3.5349 l 0.4200,4.7528 l 0.4200,-2.6397 l 0.4200,-3.5886 l 0.4200,-1.5176 l 0.4200,3.3272 l 0.4200,0.8181 l 0.4200,-0.9421 l 0.4200,-1.8311 l 0.4200,-18.6899 l 0.4200,44.0302 l 0.4200,-22.2042 l 0.4200,-3.1750 l 0.4200,19.5712 l 0.4200,-5.9662 l 0.4200,-1.6279 l 0.4200,-1.0273 l 0.4200,10.4030 l 0.4200,-0.0509 l 0.4200,0.8623 l 0.4200,-2.7385 l 0.4200,4.1987 l 0.4200,0.3317 l 0.4200,0.2807 l 0.4200,3.9781 l 0.4200,-1.1242 l 0.4200,-2.7205 l 0.4200,1.5575 l 0.4200,-1.1824 l 0.4200,-2.0306 l 0.4200,1.1765 l 0.4200,-1.9735 l 0.4200,-0.6212 l 0.4200,-5.1728 l 0.4200,-1.3888 l 0.4200,-4.8985 l 0.4200,6.9386 l 0.4200,0.2114 l 0.4200,-1.4952 l 0.4200,-1.0541 l 0.4200,1.0121 l 0.4200,-0.4725 l 0.4200,-1.4839 l 0.4200,-2.3516 l 0.4200,-3.3457 l 0.4200,-1.0474 l 0.4200,-7.2654 l 0.4200,-10.7896 l 0.4200,-7.9227 l 0.4200,-1.2158 l 0.4200,43.9298 l 0.4200,-2.5641 l 0.4200,-9.0928 l 0.4200,-5.0588 l 0.4200,0.9476 l 0.4200,-1.0073 l 0.4200,-9.9370 l 0.4200,2.4608 l 0.4200,-6.7304 l 0.4200,4.0537 l 0.4200,-9.1292 l 0.4200,-2.5038 l 0.4200,-0.0127 l 0.4200,-4.4564 l 0.4200,9.7327 l 0.4200,-0.9480 l 0.4200,2.9816 l 0.4200,2.3768 l 0.4200,-0.4110 l 0.4200,-2.0621 l 0.4200,-2.3150 l 0.4200,-11.0261 l 0.4200,-1.1074 l 0.4200,-6.9240 l 0.4200,5.7864 l 0.4200,-6.8598 l 0.4200,16.9977 l 0.4200,-2.6019 l 0.4200,3.0232 l 0.4200,-0.8214 l 0.4200,-2.0561 l 0.4200,3.2495 l 0.4200,1.5357 l 0.4200,-0.3552 l 0.4200,-0.6836 l 0.4200,3.6645 l 0.4200,-0.7259 l 0.4200,-2.5020 l 0.4200,6.0050 l 0.4200,0.2124 l 0.4200,0.0410 l 0.4200,-0.7261 l 0.4200,1.0780 l 0.4200,-0.5267 l 0.4200,-0.1038 l 0.4200,-0.3563 l 0.4200,-0.1522 l 0.4200,-1.0217 l 0.4200,0.1200 l 0.4200,-2.1723 l 0.4200,1.8642 l 0.4200,-2.1210 l 0.4200,4.5498 l 0.4200,0.5993 l 0.4200,0.5981 l 0.4200,0.2691 l 0.4200,0.9070 l 0.4200,-1.5993 l 0.4200,-0.8691 l 0.4200,-0.6132 l 0.4200,4.3527 l 0.4200,-0.1628 l 0.4200,-0.6824 l 0.4200,-0.5510 l 0.4200,0.9715 l 0.4200,-1.6887 l 0.4200,-3.9248 l 0.4200,-4.4887 l 0.4200,-6.4399 l 0.4200,4.1084 l 0.4200,-0.8975 l 0.4200,-6.6968 l 0.4200,4.8315 l 0.4200,1.1582 l 0.4200,-0.3506 l 0.4200,0.1952 l 0.4200,3.6348 l 0.4200,-6.0089 l 0.4200,13.5529 l 0.4200,0.1194 l 0.4200,2.6779 l 0.4200,-0.0095 l 0.4200,-1.8211 l 0.4200,-0.7418 l 0.4200,1.1270 l 0.4200,-0.8003 l 0.4200,-2.6133 l 0.4200,6.9818 l 0.4200,-0.5076 l 0.4200,-1.4070 l 0.4200,-2.5685 l 0.4200,-14.2431 l 0.4200,3.8793 l 0.4200,-3.2466 l 0.4200,-2.2345 l 0.4200,-2.1339 l 0.4200,12.6113 l 0.4200,0.1324 l 0.4200,1.6202 l 0.4200,-2.0017 l 0.4200,-2.1413 l 0.4200,-0.1958 l 0.4200,-3.4933 l 0.4200,1.7989 l 0.4200,-1.3829 l 0.4200,0.2014 l 0.4200,-1.8151 l 0.4200,-4.3226 l 0.4200,-9.3567 l 0.4200,17.8179 l 0.4200,-3.1323 l 0.4200,-2.2024 l 0.4200,9.3638 l 0.4200,-1.8471 l 0.4200,7.6374 l 0.4200,-2.5726 l 0.4200,0.4731 l 0.4200,-0.4895 l 0.4200,1.2543 l 0.4200,-0.9499 l 0.4200,-0.7830 l 0.4200,0.5462 l 0.4200,-0.4571 l 0.4200,-1.4473 l 0.4200,-0.0256 l 0.4200,0.5333 l 0.4200,-0.5999 l 0.4200,0.6905 l 0.4200,-0.3721 l 0.4200,0.7012 l 0.4200,0.0126 l 0.4200,2.3734 l 0.4200,6.5846 l 0.4200,8.9986 l 0.4200,2.1715 l 0.4200,-0.8812 l 0.4200,-1.2291 l 0.4200,-2.6020 l 0.4200,-0.9228 l 0.4200,0.4040 l 0.4200,-0.3760 l 0.4200,-3.2168 l 0.4200,-5.2383 l 0.4200,1.8855 l 0.4200,3.0837 l 0.4200,-1.3712 l 0.4200,-0.5243 l 0.4200,0.1408 "/></g><g stroke-linejoin="miter" stroke-opacity="1.0" fill-opacity="0.0" stroke="rgb(93,165,218)" stroke-width="0.48241815132442184" fill="rgb(0,0,0)" stroke-linecap="butt" stroke-miterlimit="10.0"><path d="M 108.3916,234.9560 l 0.4200,-0.1068 l 0.4200,0.4350 l 0.4200,-0.2045 l 0.4200,-0.3194 l 0.4200,-0.2848 l 0.4200,0.2131 l 0.4200,-0.2541 l 0.4200,0.0189 l 0.4200,-0.0509 l 0.4200,-0.5186 l 0.4200,-0.3355 l 0.4200,-0.5021 l 0.4200,-0.0101 l 0.4200,-1.0416 l 0.4200,-0.2788 l 0.4200,-0.1177 l 0.4200,0.3844 l 0.4200,-0.2414 l 0.4200,-0.4591 l 0.4200,-0.1408 l 0.4200,-0.1836 l 0.4200,0.2129 l 0.4200,0.3962 l 0.4200,-0.2182 l 0.4200,-0.0598 l 0.4200,0.3692 l 0.4200,-0.0185 l 0.4200,0.0257 l 0.4200,-1.0468 l 0.4200,-0.1406 l 0.4200,0.1769 l 0.4200,0.5881 l 0.4200,0.3566 l 0.4200,-0.3069 l 0.4200,0.3258 l 0.4200,0.1049 l 0.4200,-0.2045 l 0.4200,0.4293 l 0.4200,1.0423 l 0.4200,0.1646 l 0.4200,0.2621 l 0.4200,-0.1491 l 0.4200,0.2277 l 0.4200,-0.2859 l 0.4200,-0.1770 l 0.4200,0.1876 l 0.4200,0.6489 l 0.4200,-0.0678 l 0.4200,-0.0587 l 0.4200,0.0562 l 0.4200,-0.0925 l 0.4200,-0.2015 l 0.4200,-0.0525 l 0.4200,-0.0133 l 0.4200,-0.3469 l 0.4200,-0.3499 l 0.4200,-0.1732 l 0.4200,0.2037 l 0.4200,-0.1484 l 0.4200,-0.3234 l 0.4200,-0.2660 l 0.4200,-0.8283 l 0.4200,0.1733 l 0.4200,0.6022 l 0.4200,0.3363 l 0.4200,0.1631 l 0.4200,0.1564 l 0.4200,-0.1828 l 0.4200,0.2285 l 0.4200,0.2934 l 0.4200,-0.3217 l 0.4200,0.0305 l 0.4200,0.4298 l 0.4200,-0.2496 l 0.4200,0.3645 l 0.4200,0.3600 l 0.4200,-0.0275 l 0.4200,-0.2626 l 0.4200,-0.2715 l 0.4200,-0.2085 l 0.4200,0.3913 l 0.4200,-0.6096 l 0.4200,-0.4219 l 0.4200,-0.4620 l 0.4200,0.0054 l 0.4200,-0.4409 l 0.4200,0.4262 l 0.4200,-0.2419 l 0.4200,-0.3434 l 0.4200,-0.0971 l 0.4200,-0.4676 l 0.4200,0.4845 l 0.4200,0.3473 l 0.4200,-0.2140 l 0.4200,-0.2747 l 0.4200,0.2591 l 0.4200,-0.3251 l 0.4200,1.1471 l 0.4200,-0.8491 l 0.4200,-0.0428 l 0.4200,0.2126 l 0.4200,-0.6113 l 0.4200,-0.4041 l 0.4200,-0.3696 l 0.4200,0.3958 l 0.4200,0.2126 l 0.4200,0.3398 l 0.4200,-0.6341 l 0.4200,-0.4256 l 0.4200,0.1529 l 0.4200,0.0140 l 0.4200,-0.2019 l 0.4200,0.1038 l 0.4200,0.2781 l 0.4200,0.3004 l 0.4200,0.1245 l 0.4200,0.3532 l 0.4200,-0.7633 l 0.4200,-0.1307 l 0.4200,0.2984 l 0.4200,0.9302 l 0.4200,0.2418 l 0.4200,0.0100 l 0.4200,-0.3353 l 0.4200,0.2016 l 0.4200,-0.9248 l 0.4200,0.0662 l 0.4200,-0.3544 l 0.4200,-0.4195 l 0.4200,-0.2337 l 0.4200,-0.4085 l 0.4200,0.0690 l 0.4200,0.0517 l 0.4200,-0.3401 l 0.4200,0.9171 l 0.4200,0.0533 l 0.4200,0.2309 l 0.4200,-0.4468 l 0.4200,0.0445 l 0.4200,-0.0034 l 0.4200,-0.1643 l 0.4200,1.0930 l 0.4200,-0.6765 l 0.4200,-0.3838 l 0.4200,0.1423 l 0.4200,0.3441 l 0.4200,-0.1865 l 0.4200,-0.0222 l 0.4200,0.7088 l 0.4200,1.3253 l 0.4200,0.1363 l 0.4200,-0.1420 l 0.4200,0.2952 l 0.4200,-0.1634 l 0.4200,0.1811 l 0.4200,0.4116 l 0.4200,0.1000 l 0.4200,-0.0409 l 0.4200,0.0991 l 0.4200,-0.1227 l 0.4200,-0.0531 l 0.4200,-0.3240 l 0.4200,0.0105 l 0.4200,-0.2511 l 0.4200,-0.2416 l 0.4200,-0.0602 l 0.4200,0.3838 l 0.4200,-0.2791 l 0.4200,0.1094 l 0.4200,-0.3089 l 0.4200,0.0867 l 0.4200,0.0043 l 0.4200,-0.2638 l 0.4200,-0.1605 l 0.4200,0.4851 l 0.4200,-0.7735 l 0.4200,0.0206 l 0.4200,-0.1082 l 0.4200,-0.0226 l 0.4200,0.0507 l 0.4200,0.3776 l 0.4200,-0.0089 l 0.4200,0.7273 l 0.4200,0.1148 l 0.4200,-0.3475 l 0.4200,-0.3554 l 0.4200,0.3774 l 0.4200,-0.2929 l 0.4200,0.1758 l 0.4200,0.2552 l 0.4200,-0.1884 l 0.4200,0.3429 l 0.4200,0.0643 l 0.4200,-0.1554 l 0.4200,-0.3066 l 0.4200,-0.3471 l 0.4200,-0.1617 l 0.4200,0.0825 l 0.4200,0.7684 l 0.4200,0.4152 l 0.4200,-0.0891 l 0.4200,-0.2853 l 0.4200,0.8802 l 0.4200,0.0417 l 0.4200,0.0495 l 0.4200,-0.0420 l 0.4200,-0.1518 l 0.4200,-0.0491 l 0.4200,-0.1223 l 0.4200,-0.1498 l 0.4200,0.0869 l 0.4200,-0.0675 l 0.4200,0.3013 l 0.4200,-0.0875 l 0.4200,-0.1408 l 0.4200,-0.1090 l 0.4200,0.0010 l 0.4200,0.0444 l 0.4200,-0.0693 l 0.4200,0.3139 l 0.4200,-0.1224 l 0.4200,0.0280 l 0.4200,-0.0485 l 0.4200,-0.2586 l 0.4200,-0.0201 l 0.4200,0.1871 l 0.4200,0.2863 l 0.4200,-0.0706 l 0.4200,-0.0896 l 0.4200,0.1525 l 0.4200,-0.1228 l 0.4200,-0.0717 l 0.4200,-0.1309 l 0.4200,-0.2138 l 0.4200,0.0477 l 0.4200,-0.2208 l 0.4200,-0.0881 l 0.4200,-0.0340 l 0.4200,0.0221 l 0.4200,-0.0901 l 0.4200,-0.3265 l 0.4200,-0.2710 l 0.4200,-0.0502 l 0.4200,0.0297 l 0.4200,0.2444 l 0.4200,0.4207 l 0.4200,-0.1389 l 0.4200,-0.0381 l 0.4200,-0.1031 l 0.4200,-0.3900 l 0.4200,-0.0696 l 0.4200,-0.0991 l 0.4200,0.0217 l 0.4200,0.4261 l 0.4200,-0.2467 l 0.4200,0.0782 l 0.4200,-0.0984 l 0.4200,0.0297 l 0.4200,-0.3604 l 0.4200,-0.0297 l 0.4200,-0.3434 l 0.4200,0.3076 l 0.4200,0.4737 l 0.4200,-0.2318 l 0.4200,0.2496 l 0.4200,-0.0682 l 0.4200,-0.2395 l 0.4200,0.1214 l 0.4200,-0.2157 l 0.4200,0.7146 l 0.4200,-0.3766 l 0.4200,0.1312 l 0.4200,-0.2369 l 0.4200,-0.0895 l 0.4200,-0.0188 l 0.4200,0.2858 l 0.4200,-0.0102 l 0.4200,0.2118 l 0.4200,-0.0047 l 0.4200,0.7130 l 0.4200,-0.0312 l 0.4200,0.0321 l 0.4200,0.0135 l 0.4200,-0.0320 l 0.4200,-0.1219 l 0.4200,0.2716 l 0.4200,-0.0084 l 0.4200,-0.0303 l 0.4200,0.0189 l 0.4200,-0.0401 l 0.4200,-0.0168 l 0.4200,-0.1033 l 0.4200,-0.1330 l 0.4200,-0.0866 l 0.4200,-0.1099 l 0.4200,0.0787 l 0.4200,-0.1723 l 0.4200,-0.0449 l 0.4200,-0.0017 l 0.4200,0.0713 l 0.4200,-0.1276 l 0.4200,0.0235 l 0.4200,0.0305 l 0.4200,0.0552 l 0.4200,-0.1721 l 0.4200,0.1277 l 0.4200,0.2217 l 0.4200,-0.0868 l 0.4200,-0.0317 l 0.4200,0.1521 l 0.4200,-0.0051 l 0.4200,-0.1034 l 0.4200,-0.0414 l 0.4200,-0.1354 l 0.4200,0.0122 l 0.4200,0.2513 l 0.4200,0.0729 l 0.4200,-0.0430 l 0.4200,0.2587 l 0.4200,0.1042 l 0.4200,-0.0253 l 0.4200,-0.0457 l 0.4200,-0.2051 l 0.4200,-0.0472 l 0.4200,0.4066 l 0.4200,-0.0671 l 0.4200,-0.4055 l 0.4200,0.8951 l 0.4200,-0.4907 l 0.4200,-0.7987 l 0.4200,-1.5237 l 0.4200,0.0962 l 0.4200,-1.0419 l 0.4200,-0.0759 l 0.4200,1.5969 l 0.4200,0.8872 l 0.4200,1.6561 l 0.4200,-0.4395 l 0.4200,0.7540 l 0.4200,0.2552 l 0.4200,-0.0914 l 0.4200,0.3649 l 0.4200,-0.0511 l 0.4200,0.0632 l 0.4200,0.0254 l 0.4200,-0.0159 l 0.4200,0.0262 l 0.4200,-0.0735 l 0.4200,-0.0891 l 0.4200,-0.0225 l 0.4200,-0.0914 l 0.4200,-0.0321 l 0.4200,0.0099 l 0.4200,-0.0269 l 0.4200,-0.0190 l 0.4200,-0.0321 l 0.4200,-0.1479 l 0.4200,0.0452 l 0.4200,-0.0713 l 0.4200,-0.1850 l 0.4200,-0.1271 l 0.4200,0.0527 l 0.4200,-0.1259 l 0.4200,0.1205 l 0.4200,0.2779 l 0.4200,-0.1766 l 0.4200,-0.1477 l 0.4200,0.0476 l 0.4200,-0.0718 l 0.4200,0.3021 l 0.4200,-0.0065 l 0.4200,0.3782 l 0.4200,0.0197 l 0.4200,-0.0853 l 0.4200,-0.2966 l 0.4200,-0.5102 l 0.4200,1.3671 l 0.4200,0.6664 l 0.4200,-0.1044 l 0.4200,-0.1176 l 0.4200,-0.0704 l 0.4200,-0.0056 l 0.4200,-0.1243 l 0.4200,-0.0429 l 0.4200,0.1883 l 0.4200,0.2793 l 0.4200,-0.0247 l 0.4200,0.0275 l 0.4200,-0.3885 l 0.4200,0.5992 l 0.4200,0.5469 l 0.4200,-0.0011 l 0.4200,-0.1707 l 0.4200,-0.1416 l 0.4200,-0.2967 l 0.4200,-0.5740 l 0.4200,0.9264 l 0.4200,0.0122 l 0.4200,0.1530 l 0.4200,0.4879 l 0.4200,-0.0544 l 0.4200,0.0021 l 0.4200,-0.2070 l 0.4200,-0.6440 l 0.4200,0.6173 l 0.4200,-0.7680 l 0.4200,0.9802 l 0.4200,0.7263 l 0.4200,-0.1517 l 0.4200,0.3047 l 0.4200,-0.0875 l 0.4200,-0.1413 l 0.4200,0.2948 l 0.4200,-0.0394 l 0.4200,0.0710 l 0.4200,-0.0637 l 0.4200,-0.0508 l 0.4200,-0.0176 l 0.4200,-0.0068 l 0.4200,-0.1046 l 0.4200,-0.0126 l 0.4200,-0.0848 l 0.4200,0.0026 l 0.4200,0.0164 l 0.4200,0.0369 l 0.4200,-0.0992 l 0.4200,0.0910 l 0.4200,0.0299 l 0.4200,-0.0335 l 0.4200,0.0084 l 0.4200,0.0704 l 0.4200,-0.4447 l 0.4200,-0.1990 l 0.4200,0.7812 l 0.4200,-0.3091 l 0.4200,0.6804 l 0.4200,-0.1358 l 0.4200,0.3628 l 0.4200,-0.0765 l 0.4200,0.1358 l 0.4200,-0.0358 l 0.4200,-0.0746 l 0.4200,-0.3644 l 0.4200,-0.2092 l 0.4200,0.0717 l 0.4200,0.6406 l 0.4200,-0.3302 l 0.4200,-0.2814 l 0.4200,0.1445 l 0.4200,0.2956 l 0.4200,-0.1468 l 0.4200,0.0607 l 0.4200,0.1246 l 0.4200,0.1133 l 0.4200,-0.1447 l 0.4200,-0.0012 l 0.4200,0.1033 l 0.4200,-0.0611 l 0.4200,-0.3034 l 0.4200,0.3990 l 0.4200,-0.0974 l 0.4200,0.1187 l 0.4200,0.0063 l 0.4200,-0.0032 l 0.4200,-0.1040 l 0.4200,0.0215 l 0.4200,-0.1232 l 0.4200,-0.3664 l 0.4200,0.5422 l 0.4200,0.0373 l 0.4200,-0.3492 l 0.4200,-0.3197 l 0.4200,0.1715 l 0.4200,0.7124 l 0.4200,-0.1900 l 0.4200,-0.1820 l 0.4200,-0.0826 l 0.4200,0.4769 l 0.4200,-0.0311 l 0.4200,0.0253 l 0.4200,-0.0578 l 0.4200,-0.0675 l 0.4200,0.0080 l 0.4200,-0.0920 l 0.4200,-0.3306 l 0.4200,0.4214 l 0.4200,-0.0960 l 0.4200,-0.2899 l 0.4200,0.0393 l 0.4200,-0.1175 l 0.4200,0.0419 l 0.4200,-0.4885 l 0.4200,-0.1880 l 0.4200,-0.5823 l 0.4200,-0.0640 l 0.4200,1.0070 l 0.4200,0.0317 l 0.4200,-0.4942 l 0.4200,-0.4534 l 0.4200,0.4145 l 0.4200,0.0635 l 0.4200,0.6332 l 0.4200,-0.3260 l 0.4200,0.3072 l 0.4200,-0.0353 l 0.4200,-0.4221 l 0.4200,-0.2841 l 0.4200,-0.1179 l 0.4200,-1.7403 l 0.4200,0.2158 l 0.4200,0.7392 l 0.4200,-0.1488 l 0.4200,-0.5396 l 0.4200,0.6020 l 0.4200,-1.8672 l 0.4200,0.1886 l 0.4200,1.5905 l 0.4200,1.0983 l 0.4200,0.2761 l 0.4200,-0.1384 l 0.4200,0.5153 l 0.4200,-0.0094 l 0.4200,-0.0281 l 0.4200,-0.2970 l 0.4200,-0.2336 l 0.4200,-0.4929 l 0.4200,-1.0321 l 0.4200,-0.7818 l 0.4200,1.4634 l 0.4200,0.6142 l 0.4200,-0.0881 l 0.4200,-0.2759 l 0.4200,-0.3380 l 0.4200,-0.3160 l 0.4200,0.2100 l 0.4200,-0.8322 l 0.4200,-0.4432 l 0.4200,1.4260 l 0.4200,-0.9595 l 0.4200,-0.0063 l 0.4200,-0.2558 l 0.4200,0.3369 l 0.4200,0.4449 l 0.4200,-0.3432 l 0.4200,-0.9362 l 0.4200,-2.7077 l 0.4200,-5.7669 l 0.4200,-10.1580 l 0.4200,-4.4045 l 0.4200,14.0152 l 0.4200,6.2038 l 0.4200,-0.0410 l 0.4200,-1.8637 l 0.4200,-6.6886 l 0.4200,4.9949 l 0.4200,0.1451 l 0.4200,-3.6596 l 0.4200,6.2849 l 0.4200,-2.9764 l 0.4200,1.0839 l 0.4200,0.8353 l 0.4200,-0.9575 l 0.4200,2.5380 l 0.4200,1.4413 l 0.4200,-0.5464 l 0.4200,-2.8423 l 0.4200,0.7793 l 0.4200,-2.4164 l 0.4200,-0.5204 l 0.4200,-0.7890 l 0.4200,-0.1762 l 0.4200,-5.5181 l 0.4200,0.3382 l 0.4200,4.6623 l 0.4200,0.3502 l 0.4200,2.8175 l 0.4200,3.1001 l 0.4200,-0.6143 l 0.4200,1.0924 l 0.4200,1.0809 l 0.4200,-0.0063 l 0.4200,0.0581 l 0.4200,-0.8722 l 0.4200,-0.6856 l 0.4200,1.8722 l 0.4200,0.4047 l 0.4200,-0.0554 l 0.4200,-0.2226 l 0.4200,-0.6746 l 0.4200,1.7487 l 0.4200,0.8363 l 0.4200,-0.1884 l 0.4200,-0.2406 l 0.4200,0.7863 l 0.4200,-0.0823 l 0.4200,-0.3192 l 0.4200,0.6754 l 0.4200,0.0631 l 0.4200,-0.1876 l 0.4200,-0.1053 l 0.4200,-0.0719 l 0.4200,-0.5351 l 0.4200,0.0346 l 0.4200,-0.2696 l 0.4200,-1.0468 l 0.4200,-1.1393 l 0.4200,1.5930 l 0.4200,-0.1936 l 0.4200,1.3680 l 0.4200,-0.1338 l 0.4200,0.1817 l 0.4200,-0.1333 l 0.4200,0.0122 l 0.4200,-0.0688 l 0.4200,-0.0258 l 0.4200,-0.3352 l 0.4200,0.6514 l 0.4200,-0.5996 l 0.4200,-1.0632 l 0.4200,1.8378 l 0.4200,-0.4752 l 0.4200,-0.5339 l 0.4200,-0.7194 l 0.4200,0.1372 l 0.4200,-1.8960 l 0.4200,0.5107 l 0.4200,1.1581 l 0.4200,1.3496 l 0.4200,-1.1941 l 0.4200,-1.8897 l 0.4200,0.9265 l 0.4200,0.9429 l 0.4200,1.1760 l 0.4200,-0.2023 l 0.4200,-0.2564 l 0.4200,0.8466 l 0.4200,-0.5668 l 0.4200,-0.8463 l 0.4200,-1.5942 l 0.4200,0.1611 l 0.4200,-1.6792 l 0.4200,-3.5104 l 0.4200,-2.0598 l 0.4200,0.1178 l 0.4200,1.4605 l 0.4200,-4.6024 l 0.4200,3.6163 l 0.4200,-4.1756 l 0.4200,0.1264 l 0.4200,-2.5471 l 0.4200,1.2596 l 0.4200,4.4529 l 0.4200,-2.9723 l 0.4200,2.9266 l 0.4200,-2.0439 l 0.4200,1.0854 l 0.4200,4.5619 l 0.4200,-0.1290 l 0.4200,-2.8698 l 0.4200,0.8342 l 0.4200,0.2080 l 0.4200,-3.0715 l 0.4200,-2.6859 l 0.4200,-0.1055 l 0.4200,-0.0060 l 0.4200,-2.4573 l 0.4200,4.2448 l 0.4200,3.0466 l 0.4200,2.5997 l 0.4200,-0.6903 l 0.4200,-0.0490 l 0.4200,1.9830 l 0.4200,-1.5646 l 0.4200,0.5605 l 0.4200,1.4177 l 0.4200,-0.2664 l 0.4200,-0.9957 l 0.4200,2.9268 l 0.4200,0.3265 l 0.4200,0.2515 l 0.4200,0.2191 l 0.4200,0.0168 l 0.4200,-0.9155 l 0.4200,0.4089 l 0.4200,-0.0393 l 0.4200,1.3164 l 0.4200,-0.1261 l 0.4200,-0.1651 l 0.4200,0.3197 l 0.4200,0.3365 l 0.4200,0.1726 l 0.4200,0.0003 l 0.4200,-0.0791 l 0.4200,-0.3217 l 0.4200,-0.0648 l 0.4200,-0.0159 l 0.4200,0.4170 l 0.4200,0.1347 l 0.4200,-0.1100 l 0.4200,0.1979 l 0.4200,-0.1310 l 0.4200,-0.3844 l 0.4200,0.4626 l 0.4200,-0.4471 l 0.4200,0.0977 l 0.4200,-0.1727 l 0.4200,0.4484 l 0.4200,0.3371 l 0.4200,-0.0318 l 0.4200,-0.0595 l 0.4200,0.1306 l 0.4200,0.0177 l 0.4200,-0.0226 l 0.4200,-0.0938 l 0.4200,-0.0334 l 0.4200,-0.0706 l 0.4200,0.0076 l 0.4200,-0.0006 l 0.4200,-0.2052 l 0.4200,-0.2017 l 0.4200,0.2693 l 0.4200,-0.2876 l 0.4200,-0.2892 l 0.4200,-0.0557 l 0.4200,0.1179 l 0.4200,-0.0072 l 0.4200,0.5229 l 0.4200,-0.3013 l 0.4200,-0.0481 l 0.4200,-0.4015 l 0.4200,0.4915 l 0.4200,-0.4262 l 0.4200,-0.0336 l 0.4200,-0.2476 l 0.4200,0.3153 l 0.4200,-0.1509 l 0.4200,0.6975 l 0.4200,0.2015 l 0.4200,-0.0407 l 0.4200,0.0717 l 0.4200,-0.0529 l 0.4200,-0.0106 l 0.4200,0.0212 l 0.4200,-0.0780 l 0.4200,0.0655 l 0.4200,-0.0145 l 0.4200,0.0077 l 0.4200,-0.0420 l 0.4200,-0.1245 l 0.4200,-0.2353 l 0.4200,-0.1062 l 0.4200,-0.1140 l 0.4200,0.0944 l 0.4200,-0.1653 l 0.4200,0.2130 l 0.4200,0.0571 l 0.4200,-0.0885 l 0.4200,0.4142 l 0.4200,-0.5384 l 0.4200,-1.3400 l 0.4200,1.6785 l 0.4200,2.1077 l 0.4200,0.0081 l 0.4200,-0.1866 l 0.4200,0.1320 l 0.4200,-0.0606 l 0.4200,0.3572 l 0.4200,-0.0225 l 0.4200,-0.0445 l 0.4200,-0.0297 l 0.4200,-0.0913 l 0.4200,-0.0076 l 0.4200,-0.0686 l 0.4200,0.0045 l 0.4200,-0.1030 l 0.4200,0.0630 l 0.4200,-0.1072 l 0.4200,0.0494 l 0.4200,-0.0319 l 0.4200,-0.0030 l 0.4200,-0.0527 l 0.4200,-0.0558 l 0.4200,0.0009 l 0.4200,0.0880 l 0.4200,-0.0505 l 0.4200,-0.0299 l 0.4200,-0.1240 l 0.4200,-0.0016 l 0.4200,-0.0331 l 0.4200,0.0402 l 0.4200,-0.1069 l 0.4200,-0.0044 l 0.4200,-0.0865 l 0.4200,0.1214 l 0.4200,-0.0567 l 0.4200,-0.0669 l 0.4200,0.0078 l 0.4200,-0.0140 l 0.4200,-0.0593 l 0.4200,0.0816 l 0.4200,-0.0121 l 0.4200,-0.0150 l 0.4200,-0.0536 l 0.4200,-0.0008 l 0.4200,-0.0055 l 0.4200,-0.0283 l 0.4200,-0.0452 l 0.4200,-0.0579 l 0.4200,-0.0232 l 0.4200,0.0058 l 0.4200,0.2146 l 0.4200,0.4385 l 0.4200,-0.1607 l 0.4200,-0.0630 l 0.4200,0.3159 l 0.4200,-0.1084 l 0.4200,-0.0401 l 0.4200,-0.0319 l 0.4200,0.2419 l 0.4200,0.0157 l 0.4200,-0.0125 l 0.4200,-0.0971 l 0.4200,0.1077 l 0.4200,0.0285 l 0.4200,-0.0632 l 0.4200,0.1217 l 0.4200,-0.0552 l 0.4200,-0.0993 l 0.4200,0.0559 l 0.4200,-0.0289 l 0.4200,-0.0830 l 0.4200,0.0570 l 0.4200,-0.1973 l 0.4200,-0.0027 l 0.4200,-0.1476 l 0.4200,-0.0368 l 0.4200,-0.1650 l 0.4200,0.2310 l 0.4200,0.0329 l 0.4200,-0.0839 l 0.4200,-0.0451 l 0.4200,0.1198 l 0.4200,-0.1384 l 0.4200,-0.0998 l 0.4200,-0.1528 l 0.4200,-0.1771 l 0.4200,-0.0531 l 0.4200,-0.3789 l 0.4200,-0.4528 l 0.4200,-0.3806 l 0.4200,-0.1942 l 0.4200,1.7886 l 0.4200,0.1202 l 0.4200,0.3703 l 0.4200,-0.0020 l 0.4200,-0.0562 l 0.4200,-0.0386 l 0.4200,0.0998 l 0.4200,-0.0405 l 0.4200,0.0060 l 0.4200,-0.0319 l 0.4200,0.0070 l 0.4200,-0.0459 l 0.4200,-0.0369 l 0.4200,-0.0753 l 0.4200,0.0740 l 0.4200,-0.0396 l 0.4200,-0.0003 l 0.4200,-0.0125 l 0.4200,-0.0303 l 0.4200,-0.0183 l 0.4200,-0.0561 l 0.4200,-0.2099 l 0.4200,-0.1036 l 0.4200,-0.2657 l 0.4200,0.0404 l 0.4200,-0.3366 l 0.4200,0.4741 l 0.4200,-0.1896 l 0.4200,0.0695 l 0.4200,-0.1103 l 0.4200,-0.1965 l 0.4200,0.1180 l 0.4200,0.0737 l 0.4200,-0.0754 l 0.4200,-0.1231 l 0.4200,0.4007 l 0.4200,-0.0120 l 0.4200,0.1245 l 0.4200,-0.2077 l 0.4200,-0.2339 l 0.4200,0.0183 l 0.4200,-0.1777 l 0.4200,0.1645 l 0.4200,-0.0190 l 0.4200,-0.1392 l 0.4200,0.0832 l 0.4200,-0.0967 l 0.4200,0.1148 l 0.4200,-0.0868 l 0.4200,0.1282 l 0.4200,-0.1308 l 0.4200,0.0845 l 0.4200,-0.2328 l 0.4200,-0.3743 l 0.4200,0.0288 l 0.4200,0.0341 l 0.4200,0.3117 l 0.4200,0.0183 l 0.4200,-0.0305 l 0.4200,-0.0409 l 0.4200,-0.2993 l 0.4200,0.0951 l 0.4200,-0.0276 l 0.4200,-0.0492 l 0.4200,-0.2873 l 0.4200,-0.2200 l 0.4200,-0.3474 l 0.4200,-0.3041 l 0.4200,-0.4086 l 0.4200,0.0707 l 0.4200,-0.1510 l 0.4200,-0.5369 l 0.4200,0.1046 l 0.4200,-0.0431 l 0.4200,-0.1442 l 0.4200,-0.1000 l 0.4200,0.2485 l 0.4200,-1.2284 l 0.4200,0.6880 l 0.4200,-0.0508 l 0.4200,0.3361 l 0.4200,0.2728 l 0.4200,0.1949 l 0.4200,-0.0696 l 0.4200,-0.2695 l 0.4200,-0.0345 l 0.4200,0.2879 l 0.4200,-0.6534 l 0.4200,0.1518 l 0.4200,0.1152 l 0.4200,0.1679 l 0.4200,0.9855 l 0.4200,-0.1113 l 0.4200,0.0485 l 0.4200,0.0331 l 0.4200,0.0389 l 0.4200,-0.3505 l 0.4200,-0.0745 l 0.4200,-0.1888 l 0.4200,0.1428 l 0.4200,0.0912 l 0.4200,-0.0411 l 0.4200,0.1628 l 0.4200,-0.1059 l 0.4200,0.0325 l 0.4200,-0.0450 l 0.4200,0.0603 l 0.4200,0.1603 l 0.4200,0.2387 l 0.4200,-0.2074 l 0.4200,0.0991 l 0.4200,0.0390 l 0.4200,-0.2239 l 0.4200,0.1154 l 0.4200,-0.3916 l 0.4200,-0.3516 l 0.4200,0.0271 l 0.4200,-0.0427 l 0.4200,0.1197 l 0.4200,-0.1123 l 0.4200,-0.0816 l 0.4200,0.0758 l 0.4200,-0.0423 l 0.4200,-0.2545 l 0.4200,-0.0072 l 0.4200,0.0639 l 0.4200,-0.0775 l 0.4200,0.1352 l 0.4200,0.0807 l 0.4200,-0.2693 l 0.4200,0.0387 l 0.4200,1.1168 l 0.4200,-0.0968 l 0.4200,-0.2068 l 0.4200,-0.2267 l 0.4200,-0.1042 l 0.4200,-0.1438 l 0.4200,-0.2669 l 0.4200,-0.0255 l 0.4200,0.0752 l 0.4200,0.0230 l 0.4200,-0.4617 l 0.4200,-0.2804 l 0.4200,0.1005 l 0.4200,0.2165 l 0.4200,-0.1134 l 0.4200,-0.0212 l 0.4200,0.0580 "/></g><g stroke-linejoin="miter" stroke-opacity="1.0" fill-opacity="0.0" stroke="rgb(85,85,85)" stroke-width="0.48241815132442184" fill="rgb(0,0,0)" stroke-linecap="butt" stroke-miterlimit="10.0"><path d="M 108.3916,228.7468 l 0.4200,-0.0443 l 0.4200,0.1948 l 0.4200,-0.1395 l 0.4200,-0.1518 l 0.4200,-0.1061 l 0.4200,0.0739 l 0.4200,-0.0935 l 0.4200,0.0079 l 0.4200,-0.0162 l 0.4200,-0.1802 l 0.4200,-0.1001 l 0.4200,-0.1414 l 0.4200,-0.0047 l 0.4200,-0.2743 l 0.4200,-0.0682 l 0.4200,-0.0310 l 0.4200,0.0830 l 0.4200,-0.0611 l 0.4200,-0.1117 l 0.4200,-0.0368 l 0.4200,-0.0466 l 0.4200,0.0428 l 0.4200,0.0870 l 0.4200,-0.0571 l 0.4200,-0.0188 l 0.4200,0.0843 l 0.4200,-0.0085 l 0.4200,0.0027 l 0.4200,-0.2735 l 0.4200,-0.0382 l 0.4200,0.0353 l 0.4200,0.1342 l 0.4200,0.0859 l 0.4200,-0.0855 l 0.4200,0.0802 l 0.4200,0.0251 l 0.4200,-0.0604 l 0.4200,0.1140 l 0.4200,0.3055 l 0.4200,0.0631 l 0.4200,0.1107 l 0.4200,-0.0702 l 0.4200,0.1061 l 0.4200,-0.1533 l 0.4200,-0.0750 l 0.4200,0.0768 l 0.4200,0.2972 l 0.4200,-0.0470 l 0.4200,-0.0346 l 0.4200,0.0527 l 0.4200,-0.0705 l 0.4200,-0.1395 l 0.4200,-0.0231 l 0.4200,-0.0022 l 0.4200,-0.1814 l 0.4200,-0.1425 l 0.4200,-0.0623 l 0.4200,0.0692 l 0.4200,-0.0550 l 0.4200,-0.1162 l 0.4200,-0.0889 l 0.4200,-0.2608 l 0.4200,0.0429 l 0.4200,0.1650 l 0.4200,0.1028 l 0.4200,0.0546 l 0.4200,0.0564 l 0.4200,-0.0709 l 0.4200,0.0840 l 0.4200,0.1208 l 0.4200,-0.1539 l 0.4200,0.0130 l 0.4200,0.1805 l 0.4200,-0.1332 l 0.4200,0.1677 l 0.4200,0.2291 l 0.4200,-0.0110 l 0.4200,-0.3664 l 0.4200,-0.1237 l 0.4200,-0.0833 l 0.4200,0.1477 l 0.4200,-0.2736 l 0.4200,-0.1451 l 0.4200,-0.1459 l 0.4200,-0.0014 l 0.4200,-0.1317 l 0.4200,0.1137 l 0.4200,-0.0745 l 0.4200,-0.1021 l 0.4200,-0.0308 l 0.4200,-0.1330 l 0.4200,0.1223 l 0.4200,0.0936 l 0.4200,-0.0671 l 0.4200,-0.0837 l 0.4200,0.0691 l 0.4200,-0.0999 l 0.4200,0.3226 l 0.4200,-0.2986 l 0.4200,-0.0162 l 0.4200,0.0585 l 0.4200,-0.1902 l 0.4200,-0.1176 l 0.4200,-0.1046 l 0.4200,0.0974 l 0.4200,0.0533 l 0.4200,0.0922 l 0.4200,-0.1952 l 0.4200,-0.1231 l 0.4200,0.0349 l 0.4200,-0.0017 l 0.4200,-0.0613 l 0.4200,0.0225 l 0.4200,0.0719 l 0.4200,0.0825 l 0.4200,0.0340 l 0.4200,0.1081 l 0.4200,-0.2648 l 0.4200,-0.0437 l 0.4200,0.0829 l 0.4200,0.2850 l 0.4200,0.0895 l 0.4200,0.0034 l 0.4200,-0.1420 l 0.4200,0.0742 l 0.4200,-0.3782 l 0.4200,0.0166 l 0.4200,-0.1176 l 0.4200,-0.1325 l 0.4200,-0.0731 l 0.4200,-0.1218 l 0.4200,0.0122 l 0.4200,0.0079 l 0.4200,-0.1022 l 0.4200,0.2442 l 0.4200,0.0113 l 0.4200,0.0674 l 0.4200,-0.1511 l 0.4200,0.0084 l 0.4200,-0.0062 l 0.4200,-0.0568 l 0.4200,0.3334 l 0.4200,-0.2606 l 0.4200,-0.1298 l 0.4200,0.0386 l 0.4200,0.1047 l 0.4200,-0.0679 l 0.4200,-0.0119 l 0.4200,0.2329 l 0.4200,0.5200 l 0.4200,0.1075 l 0.4200,-0.1282 l 0.4200,0.2249 l 0.4200,-0.2283 l 0.4200,0.1426 l 0.4200,0.4838 l 0.4200,-0.1365 l 0.4200,0.0383 l 0.4200,-0.2288 l 0.4200,-0.2642 l 0.4200,-0.0329 l 0.4200,-0.2387 l 0.4200,0.0080 l 0.4200,-0.1318 l 0.4200,-0.1118 l 0.4200,-0.0258 l 0.4200,0.1616 l 0.4200,-0.1389 l 0.4200,0.0486 l 0.4200,-0.1447 l 0.4200,0.0356 l 0.4200,0.0018 l 0.4200,-0.1172 l 0.4200,-0.0662 l 0.4200,0.1884 l 0.4200,-0.3619 l 0.4200,0.0046 l 0.4200,-0.0411 l 0.4200,-0.0106 l 0.4200,0.0154 l 0.4200,0.1348 l 0.4200,-0.0047 l 0.4200,0.2978 l 0.4200,0.0685 l 0.4200,-0.2185 l 0.4200,-0.1715 l 0.4200,0.1570 l 0.4200,-0.1431 l 0.4200,0.0760 l 0.4200,0.1219 l 0.4200,-0.1019 l 0.4200,0.1729 l 0.4200,0.0465 l 0.4200,-0.1042 l 0.4200,-0.1829 l 0.4200,-0.1684 l 0.4200,-0.0687 l 0.4200,0.0322 l 0.4200,0.3225 l 0.4200,0.2577 l 0.4200,-0.0812 l 0.4200,-0.2432 l 0.4200,0.5070 l 0.4200,0.2029 l 0.4200,-0.1616 l 0.4200,-0.1391 l 0.4200,-0.2242 l 0.4200,-0.0290 l 0.4200,-0.0845 l 0.4200,-0.0932 l 0.4200,0.0556 l 0.4200,-0.0378 l 0.4200,0.1950 l 0.4200,-0.0708 l 0.4200,-0.1065 l 0.4200,-0.0675 l 0.4200,0.0061 l 0.4200,0.0346 l 0.4200,-0.0412 l 0.4200,0.2157 l 0.4200,-0.1232 l 0.4200,0.0341 l 0.4200,-0.0322 l 0.4200,-0.2180 l 0.4200,-0.0072 l 0.4200,0.1163 l 0.4200,0.2225 l 0.4200,-0.0806 l 0.4200,-0.0841 l 0.4200,0.1520 l 0.4200,-0.1760 l 0.4200,-0.0517 l 0.4200,-0.0958 l 0.4200,-0.1386 l 0.4200,0.0305 l 0.4200,-0.1262 l 0.4200,-0.0421 l 0.4200,-0.0145 l 0.4200,0.0131 l 0.4200,-0.0433 l 0.4200,-0.1589 l 0.4200,-0.1147 l 0.4200,-0.0202 l 0.4200,0.0110 l 0.4200,0.0972 l 0.4200,0.1867 l 0.4200,-0.0736 l 0.4200,-0.0171 l 0.4200,-0.0504 l 0.4200,-0.1900 l 0.4200,-0.0288 l 0.4200,-0.0407 l 0.4200,0.0082 l 0.4200,0.1741 l 0.4200,-0.1197 l 0.4200,0.0350 l 0.4200,-0.0446 l 0.4200,0.0141 l 0.4200,-0.1666 l 0.4200,-0.0125 l 0.4200,-0.1397 l 0.4200,0.1118 l 0.4200,0.1924 l 0.4200,-0.1138 l 0.4200,0.1125 l 0.4200,-0.0330 l 0.4200,-0.1189 l 0.4200,0.0552 l 0.4200,-0.1033 l 0.4200,0.3168 l 0.4200,-0.2473 l 0.4200,0.0647 l 0.4200,-0.1228 l 0.4200,-0.0407 l 0.4200,-0.0078 l 0.4200,0.1320 l 0.4200,-0.0027 l 0.4200,0.1198 l 0.4200,0.0027 l 0.4200,0.5028 l 0.4200,0.0660 l 0.4200,-0.1523 l 0.4200,0.2217 l 0.4200,0.0021 l 0.4200,0.1201 l 0.4200,-0.2311 l 0.4200,-0.0571 l 0.4200,0.0389 l 0.4200,-0.1425 l 0.4200,-0.0945 l 0.4200,0.0048 l 0.4200,-0.1913 l 0.4200,-0.1154 l 0.4200,-0.0563 l 0.4200,-0.0684 l 0.4200,0.0544 l 0.4200,-0.1135 l 0.4200,-0.0218 l 0.4200,0.0035 l 0.4200,0.0473 l 0.4200,-0.0779 l 0.4200,0.0185 l 0.4200,0.0243 l 0.4200,0.0429 l 0.4200,-0.1193 l 0.4200,0.0824 l 0.4200,0.1670 l 0.4200,-0.0826 l 0.4200,-0.0170 l 0.4200,0.1494 l 0.4200,0.0206 l 0.4200,-0.1696 l 0.4200,-0.0269 l 0.4200,-0.1138 l 0.4200,0.0166 l 0.4200,0.2028 l 0.4200,0.1404 l 0.4200,-0.1737 l 0.4200,0.3897 l 0.4200,-0.1808 l 0.4200,0.0610 l 0.4200,0.0652 l 0.4200,0.2929 l 0.4200,0.0023 l 0.4200,-0.2188 l 0.4200,0.0363 l 0.4200,0.3228 l 0.4200,-0.3271 l 0.4200,0.4440 l 0.4200,0.2141 l 0.4200,0.2822 l 0.4200,-0.0230 l 0.4200,0.1219 l 0.4200,-0.0020 l 0.4200,-0.1770 l 0.4200,-0.1396 l 0.4200,-0.3188 l 0.4200,0.1402 l 0.4200,-0.2174 l 0.4200,-0.1342 l 0.4200,0.0328 l 0.4200,-0.2345 l 0.4200,0.0327 l 0.4200,-0.1285 l 0.4200,-0.2518 l 0.4200,0.0068 l 0.4200,0.0697 l 0.4200,-0.1256 l 0.4200,-0.0841 l 0.4200,-0.0040 l 0.4200,-0.0697 l 0.4200,-0.0122 l 0.4200,0.0215 l 0.4200,-0.0082 l 0.4200,-0.0012 l 0.4200,-0.0131 l 0.4200,-0.1179 l 0.4200,0.0417 l 0.4200,-0.0429 l 0.4200,-0.1225 l 0.4200,-0.0662 l 0.4200,0.0345 l 0.4200,-0.0648 l 0.4200,0.0699 l 0.4200,0.1759 l 0.4200,-0.1478 l 0.4200,-0.0876 l 0.4200,0.0346 l 0.4200,-0.0361 l 0.4200,0.1874 l 0.4200,0.0105 l 0.4200,0.3987 l 0.4200,-0.0948 l 0.4200,0.3675 l 0.4200,0.1308 l 0.4200,0.1666 l 0.4200,-0.3633 l 0.4200,-0.4859 l 0.4200,-0.1028 l 0.4200,-0.0866 l 0.4200,-0.0376 l 0.4200,0.0086 l 0.4200,-0.0757 l 0.4200,-0.0160 l 0.4200,0.1271 l 0.4200,0.2553 l 0.4200,0.0119 l 0.4200,0.4221 l 0.4200,0.1840 l 0.4200,-0.2182 l 0.4200,-0.3600 l 0.4200,0.1952 l 0.4200,0.1783 l 0.4200,0.0557 l 0.4200,0.1196 l 0.4200,0.1812 l 0.4200,-0.2381 l 0.4200,-0.0277 l 0.4200,-0.0905 l 0.4200,-0.3044 l 0.4200,0.1257 l 0.4200,-0.0513 l 0.4200,0.2950 l 0.4200,0.2726 l 0.4200,-0.1696 l 0.4200,0.2538 l 0.4200,-0.2237 l 0.4200,-0.2710 l 0.4200,0.0900 l 0.4200,-0.2041 l 0.4200,0.0770 l 0.4200,0.0925 l 0.4200,-0.2130 l 0.4200,0.0043 l 0.4200,-0.2032 l 0.4200,-0.0880 l 0.4200,-0.0324 l 0.4200,0.0119 l 0.4200,0.0292 l 0.4200,-0.1356 l 0.4200,0.0121 l 0.4200,-0.0600 l 0.4200,0.0232 l 0.4200,0.0398 l 0.4200,0.0740 l 0.4200,-0.1354 l 0.4200,0.1124 l 0.4200,0.1056 l 0.4200,-0.0224 l 0.4200,0.3243 l 0.4200,-0.0776 l 0.4200,0.3625 l 0.4200,0.0385 l 0.4200,-0.2287 l 0.4200,0.1248 l 0.4200,-0.2546 l 0.4200,0.0726 l 0.4200,-0.2419 l 0.4200,0.1102 l 0.4200,-0.1853 l 0.4200,0.0429 l 0.4200,0.1385 l 0.4200,0.3114 l 0.4200,0.0481 l 0.4200,-0.0417 l 0.4200,-0.2278 l 0.4200,0.1837 l 0.4200,0.0792 l 0.4200,-0.0633 l 0.4200,-0.1228 l 0.4200,0.0440 l 0.4200,-0.0493 l 0.4200,-0.0849 l 0.4200,-0.1019 l 0.4200,0.0994 l 0.4200,-0.0296 l 0.4200,-0.1011 l 0.4200,0.0200 l 0.4200,0.2399 l 0.4200,-0.1742 l 0.4200,0.0336 l 0.4200,-0.0988 l 0.4200,-0.0451 l 0.4200,-0.0433 l 0.4200,0.0916 l 0.4200,-0.0532 l 0.4200,0.0818 l 0.4200,0.2100 l 0.4200,-0.2029 l 0.4200,-0.0560 l 0.4200,0.2483 l 0.4200,0.0876 l 0.4200,-0.0666 l 0.4200,-0.2481 l 0.4200,0.1076 l 0.4200,0.0613 l 0.4200,0.0089 l 0.4200,-0.2023 l 0.4200,-0.0121 l 0.4200,-0.0587 l 0.4200,0.0172 l 0.4200,0.0229 l 0.4200,-0.0441 l 0.4200,0.0500 l 0.4200,0.2137 l 0.4200,-0.1700 l 0.4200,0.0289 l 0.4200,0.1290 l 0.4200,-0.0360 l 0.4200,0.0224 l 0.4200,-0.0372 l 0.4200,0.1691 l 0.4200,0.0284 l 0.4200,0.1178 l 0.4200,-0.0050 l 0.4200,-0.1999 l 0.4200,-0.0291 l 0.4200,0.1326 l 0.4200,0.0836 l 0.4200,-0.0938 l 0.4200,-0.0323 l 0.4200,-0.1724 l 0.4200,0.1037 l 0.4200,-0.1079 l 0.4200,-0.0090 l 0.4200,0.1427 l 0.4200,0.0560 l 0.4200,0.0092 l 0.4200,0.3689 l 0.4200,-0.0377 l 0.4200,-0.1018 l 0.4200,0.0065 l 0.4200,0.0622 l 0.4200,-0.0902 l 0.4200,0.2675 l 0.4200,-0.0299 l 0.4200,-0.1692 l 0.4200,-0.1678 l 0.4200,-0.0723 l 0.4200,0.0150 l 0.4200,-0.1341 l 0.4200,-0.0173 l 0.4200,-0.0113 l 0.4200,0.0803 l 0.4200,0.0444 l 0.4200,0.1001 l 0.4200,0.1785 l 0.4200,0.0881 l 0.4200,-0.1734 l 0.4200,-0.1128 l 0.4200,0.0016 l 0.4200,0.0396 l 0.4200,0.0465 l 0.4200,0.0372 l 0.4200,-0.0463 l 0.4200,0.1244 l 0.4200,0.0437 l 0.4200,-0.1806 l 0.4200,0.1541 l 0.4200,-0.0126 l 0.4200,0.0200 l 0.4200,-0.0551 l 0.4200,-0.0759 l 0.4200,0.0424 l 0.4200,0.1266 l 0.4200,0.2991 l 0.4200,0.3623 l 0.4200,0.2799 l 0.4200,0.0218 l 0.4200,-0.0035 l 0.4200,-0.1196 l 0.4200,-0.0059 l 0.4200,0.0663 l 0.4200,0.2047 l 0.4200,-0.0561 l 0.4200,-0.0080 l 0.4200,0.0812 l 0.4200,-0.0852 l 0.4200,0.0895 l 0.4200,-0.0266 l 0.4200,-0.0256 l 0.4200,0.0222 l 0.4200,-0.0692 l 0.4200,-0.0612 l 0.4200,0.0193 l 0.4200,0.1226 l 0.4200,-0.0266 l 0.4200,0.0727 l 0.4200,0.0068 l 0.4200,0.0115 l 0.4200,-0.0006 l 0.4200,0.0884 l 0.4200,-0.0032 l 0.4200,-0.0071 l 0.4200,-0.0078 l 0.4200,-0.0431 l 0.4200,-0.0868 l 0.4200,0.0237 l 0.4200,-0.0535 l 0.4200,-0.0671 l 0.4200,-0.0072 l 0.4200,-0.0120 l 0.4200,0.0591 l 0.4200,0.0358 l 0.4200,-0.1071 l 0.4200,-0.0422 l 0.4200,-0.0033 l 0.4200,0.0129 l 0.4200,0.0540 l 0.4200,-0.1422 l 0.4200,-0.1175 l 0.4200,0.0231 l 0.4200,0.0300 l 0.4200,-0.1341 l 0.4200,0.0061 l 0.4200,0.0618 l 0.4200,-0.1425 l 0.4200,-0.0364 l 0.4200,0.0500 l 0.4200,0.0156 l 0.4200,0.0050 l 0.4200,0.1294 l 0.4200,-0.0177 l 0.4200,0.0384 l 0.4200,0.1604 l 0.4200,0.1062 l 0.4200,-0.1190 l 0.4200,0.0126 l 0.4200,-0.1553 l 0.4200,0.0131 l 0.4200,-0.0439 l 0.4200,0.0148 l 0.4200,-0.0144 l 0.4200,0.0015 l 0.4200,-0.0070 l 0.4200,0.0550 l 0.4200,-0.1188 l 0.4200,0.1386 l 0.4200,0.1591 l 0.4200,-0.1846 l 0.4200,0.0819 l 0.4200,0.0694 l 0.4200,0.0755 l 0.4200,-0.0206 l 0.4200,0.1753 l 0.4200,-0.0317 l 0.4200,-0.0746 l 0.4200,-0.1205 l 0.4200,0.1533 l 0.4200,0.1442 l 0.4200,-0.0458 l 0.4200,-0.0600 l 0.4200,-0.0973 l 0.4200,0.0142 l 0.4200,0.0190 l 0.4200,-0.0939 l 0.4200,0.0730 l 0.4200,0.0856 l 0.4200,0.1196 l 0.4200,-0.0134 l 0.4200,0.0770 l 0.4200,0.0977 l 0.4200,0.0071 l 0.4200,-0.0029 l 0.4200,0.0003 l 0.4200,0.0103 l 0.4200,0.0438 l 0.4200,-0.0185 l 0.4200,-0.0022 l 0.4200,-0.0464 l 0.4200,0.0225 l 0.4200,0.0867 l 0.4200,-0.0330 l 0.4200,0.0520 l 0.4200,-0.0272 l 0.4200,0.0159 l 0.4200,0.0675 l 0.4200,-0.0031 l 0.4200,0.0015 l 0.4200,0.0077 l 0.4200,-0.0012 l 0.4200,-0.0318 l 0.4200,-0.0620 l 0.4200,-0.0086 l 0.4200,-0.0058 l 0.4200,-0.0809 l 0.4200,0.1467 l 0.4200,0.0816 l 0.4200,0.0460 l 0.4200,-0.0077 l 0.4200,-0.0038 l 0.4200,0.0189 l 0.4200,0.0010 l 0.4200,0.0024 l 0.4200,0.0056 l 0.4200,-0.0020 l 0.4200,-0.0001 l 0.4200,0.0139 l 0.4200,-0.0128 l 0.4200,-0.0130 l 0.4200,-0.0138 l 0.4200,-0.0059 l 0.4200,0.0415 l 0.4200,-0.0145 l 0.4200,-0.0032 l 0.4200,-0.0507 l 0.4200,0.0043 l 0.4200,0.0068 l 0.4200,-0.0282 l 0.4200,-0.0373 l 0.4200,-0.0292 l 0.4200,-0.0084 l 0.4200,0.0043 l 0.4200,0.0412 l 0.4200,0.0002 l 0.4200,-0.0051 l 0.4200,-0.0523 l 0.4200,-0.0316 l 0.4200,0.0136 l 0.4200,-0.0466 l 0.4200,0.0241 l 0.4200,0.0745 l 0.4200,-0.0648 l 0.4200,0.0878 l 0.4200,-0.0179 l 0.4200,0.0147 l 0.4200,-0.0562 l 0.4200,-0.0708 l 0.4200,-0.0028 l 0.4200,0.0068 l 0.4200,-0.0539 l 0.4200,-0.0286 l 0.4200,-0.0081 l 0.4200,0.0476 l 0.4200,-0.0016 l 0.4200,0.0142 l 0.4200,-0.0167 l 0.4200,-0.0152 l 0.4200,0.0789 l 0.4200,0.0355 l 0.4200,-0.0529 l 0.4200,0.0648 l 0.4200,0.0360 l 0.4200,-0.0007 l 0.4200,-0.0192 l 0.4200,-0.0063 l 0.4200,-0.0748 l 0.4200,0.0711 l 0.4200,-0.0008 l 0.4200,0.0501 l 0.4200,-0.0498 l 0.4200,0.0568 l 0.4200,-0.0032 l 0.4200,0.0157 l 0.4200,-0.0280 l 0.4200,0.0084 l 0.4200,-0.0667 l 0.4200,-0.0476 l 0.4200,0.0001 l 0.4200,-0.0334 l 0.4200,0.0067 l 0.4200,-0.0103 l 0.4200,-0.0238 l 0.4200,0.0229 l 0.4200,-0.0397 l 0.4200,-0.0122 l 0.4200,-0.0296 l 0.4200,0.0144 l 0.4200,0.0794 l 0.4200,0.0587 l 0.4200,0.0093 l 0.4200,0.0090 l 0.4200,-0.0195 l 0.4200,0.0177 l 0.4200,-0.0339 l 0.4200,-0.0188 l 0.4200,0.0092 l 0.4200,-0.0860 l 0.4200,0.2977 l 0.4200,0.0516 l 0.4200,-0.0097 l 0.4200,-0.0881 l 0.4200,-0.0155 l 0.4200,0.0485 l 0.4200,-0.0354 l 0.4200,0.0044 l 0.4200,-0.1050 l 0.4200,-0.0316 l 0.4200,-0.0664 l 0.4200,-0.0022 l 0.4200,-0.0547 l 0.4200,0.0096 l 0.4200,-0.0263 l 0.4200,0.0153 l 0.4200,-0.0467 l 0.4200,0.0406 l 0.4200,-0.0497 l 0.4200,0.0339 l 0.4200,-0.0041 l 0.4200,0.0125 l 0.4200,-0.0178 l 0.4200,-0.0183 l 0.4200,0.0135 l 0.4200,0.0684 l 0.4200,-0.0317 l 0.4200,-0.0030 l 0.4200,-0.0884 l 0.4200,0.0099 l 0.4200,-0.0049 l 0.4200,0.0317 l 0.4200,-0.0515 l 0.4200,0.0086 l 0.4200,-0.0318 l 0.4200,0.0631 l 0.4200,-0.0207 l 0.4200,-0.0246 l 0.4200,0.0157 l 0.4200,0.0056 l 0.4200,-0.0217 l 0.4200,0.0575 l 0.4200,0.0132 l 0.4200,0.0150 l 0.4200,-0.0516 l 0.4200,0.0197 l 0.4200,0.0232 l 0.4200,-0.0005 l 0.4200,-0.0413 l 0.4200,-0.0311 l 0.4200,0.0009 l 0.4200,0.0227 l 0.4200,0.2506 l 0.4200,-0.0965 l 0.4200,0.1266 l 0.4200,0.0019 l 0.4200,-0.0645 l 0.4200,0.0274 l 0.4200,-0.0015 l 0.4200,-0.0037 l 0.4200,-0.0776 l 0.4200,-0.0564 l 0.4200,0.0531 l 0.4200,0.0723 l 0.4200,-0.0480 l 0.4200,-0.0442 l 0.4200,0.0815 l 0.4200,-0.0605 l 0.4200,0.0266 l 0.4200,0.0384 l 0.4200,-0.0326 l 0.4200,-0.0052 l 0.4200,0.0241 l 0.4200,-0.0352 l 0.4200,0.0981 l 0.4200,-0.0088 l 0.4200,0.0174 l 0.4200,-0.0031 l 0.4200,0.0153 l 0.4200,-0.0341 l 0.4200,-0.0151 l 0.4200,0.0069 l 0.4200,-0.0014 l 0.4200,-0.0305 l 0.4200,0.0237 l 0.4200,0.0087 l 0.4200,0.0153 l 0.4200,0.0144 l 0.4200,-0.0016 l 0.4200,0.0301 l 0.4200,0.0218 l 0.4200,0.0093 l 0.4200,0.0005 l 0.4200,-0.0410 l 0.4200,-0.0207 l 0.4200,-0.0618 l 0.4200,-0.0153 l 0.4200,0.0086 l 0.4200,-0.0008 l 0.4200,-0.0533 l 0.4200,0.0113 l 0.4200,-0.0373 l 0.4200,0.0186 l 0.4200,-0.0603 l 0.4200,-0.0205 l 0.4200,-0.0085 l 0.4200,-0.0374 l 0.4200,0.0510 l 0.4200,-0.0131 l 0.4200,0.0233 l 0.4200,0.0296 l 0.4200,-0.0045 l 0.4200,-0.0487 l 0.4200,-0.0316 l 0.4200,-0.1242 l 0.4200,-0.0248 l 0.4200,-0.0689 l 0.4200,0.0140 l 0.4200,-0.0795 l 0.4200,0.1068 l 0.4200,-0.0460 l 0.4200,0.0215 l 0.4200,-0.0239 l 0.4200,-0.0446 l 0.4200,0.0314 l 0.4200,0.0229 l 0.4200,-0.0152 l 0.4200,-0.0273 l 0.4200,0.1040 l 0.4200,0.0028 l 0.4200,0.0506 l 0.4200,-0.0873 l 0.4200,-0.0657 l 0.4200,0.0094 l 0.4200,-0.0425 l 0.4200,0.0446 l 0.4200,-0.0002 l 0.4200,-0.0338 l 0.4200,0.0263 l 0.4200,-0.0221 l 0.4200,0.0359 l 0.4200,-0.0207 l 0.4200,0.0426 l 0.4200,-0.0381 l 0.4200,0.0312 l 0.4200,-0.0737 l 0.4200,-0.0971 l 0.4200,0.0101 l 0.4200,0.0116 l 0.4200,0.0781 l 0.4200,0.0105 l 0.4200,-0.0037 l 0.4200,-0.0069 l 0.4200,-0.0855 l 0.4200,0.0273 l 0.4200,-0.0028 l 0.4200,-0.0086 l 0.4200,-0.0715 l 0.4200,-0.0469 l 0.4200,-0.0715 l 0.4200,-0.0572 l 0.4200,-0.0739 l 0.4200,0.0147 l 0.4200,-0.0249 l 0.4200,-0.0935 l 0.4200,0.0193 l 0.4200,-0.0055 l 0.4200,-0.0230 l 0.4200,-0.0153 l 0.4200,0.0442 l 0.4200,-0.2173 l 0.4200,0.1083 l 0.4200,-0.0069 l 0.4200,0.0579 l 0.4200,0.0498 l 0.4200,0.0380 l 0.4200,-0.0113 l 0.4200,-0.0501 l 0.4200,-0.0046 l 0.4200,0.0559 l 0.4200,-0.1285 l 0.4200,0.0289 l 0.4200,0.0231 l 0.4200,0.0339 l 0.4200,0.1985 l 0.4200,-0.0255 l 0.4200,0.0156 l 0.4200,0.0123 l 0.4200,0.0145 l 0.4200,-0.0967 l 0.4200,-0.0149 l 0.4200,-0.0419 l 0.4200,0.0348 l 0.4200,0.0248 l 0.4200,-0.0072 l 0.4200,0.0444 l 0.4200,-0.0259 l 0.4200,0.0123 l 0.4200,-0.0088 l 0.4200,0.0205 l 0.4200,0.0516 l 0.4200,0.0887 l 0.4200,-0.1014 l 0.4200,0.0384 l 0.4200,0.0219 l 0.4200,-0.0921 l 0.4200,0.0411 l 0.4200,-0.1378 l 0.4200,-0.0865 l 0.4200,0.0086 l 0.4200,-0.0072 l 0.4200,0.0301 l 0.4200,-0.0246 l 0.4200,-0.0167 l 0.4200,0.0203 l 0.4200,-0.0076 l 0.4200,-0.0596 l 0.4200,0.0007 l 0.4200,0.0170 l 0.4200,-0.0159 l 0.4200,0.0342 l 0.4200,0.0231 l 0.4200,-0.0684 l 0.4200,0.0117 l 0.4200,0.2775 l 0.4200,-0.0447 l 0.4200,-0.0853 l 0.4200,-0.0697 l 0.4200,-0.0255 l 0.4200,-0.0353 l 0.4200,-0.0651 l 0.4200,-0.0035 l 0.4200,0.0201 l 0.4200,0.0083 l 0.4200,-0.1130 l 0.4200,-0.0585 l 0.4200,0.0222 l 0.4200,0.0476 l 0.4200,-0.0235 l 0.4200,-0.0027 l 0.4200,0.0150 "/></g></svg>