<svg viewBox="-1.3559678118201535 -0.68275 2.3634678118201533 1.5020159178324475" xmlns="http://www.w3.org/2000/svg" xmlns:xlink="http://www.w3.org/1999/xlink" version="1.1" width="600.0" height="300.0"><g stroke-width="0.0" stroke="none" fill="#000000" transform="translate(-0.17423390591007692, -0.57175)" fill-opacity="1.0" font-size="0.12" text-anchor="middle"><text transform="rotate(0.0, 0.0, -0.0)" x="0.0" y="-0.0">beta on ma</text></g><g stroke-width="0.0" stroke="#000000" fill="#666666" fill-opacity="3.0e-2" stroke-opacity="0.0"><rect width="1.9999999999999998" height="1.0" x="-1.0" y="-0.5" /></g><g stroke-width="5.0e-3" stroke="#A8E5EE" fill="none" stroke-opacity="0.3"><polyline points="-1.005,0.5 1.0049999999999997,0.5" /></g><g stroke-width="5.0e-3" stroke="#A8E5EE" fill="none" stroke-opacity="0.3"><polyline points="-1.005,0.375 1.0049999999999997,0.375" /></g><g stroke-width="5.0e-3" stroke="#A8E5EE" fill="none" stroke-opacity="0.3"><polyline points="-1.005,0.25 1.0049999999999997,0.25" /></g><g stroke-width="5.0e-3" stroke="#A8E5EE" fill="none" stroke-opacity="0.3"><polyline points="-1.005,0.125 1.0049999999999997,0.125" /></g><g stroke-width="5.0e-3" stroke="#A8E5EE" fill="none" stroke-opacity="0.3"><polyline points="-1.005,-0.0 1.0049999999999997,-0.0" /></g><g stroke-width="5.0e-3" stroke="#A8E5EE" fill="none" stroke-opacity="0.3"><polyline points="-1.005,-0.125 1.0049999999999997,-0.125" /></g><g stroke-width="5.0e-3" stroke="#A8E5EE" fill="none" stroke-opacity="0.3"><polyline points="-1.005,-0.25 1.0049999999999997,-0.25" /></g><g stroke-width="5.0e-3" stroke="#A8E5EE" fill="none" stroke-opacity="0.3"><polyline points="-1.005,-0.3750000000000001 1.0049999999999997,-0.3750000000000001" /></g><g stroke-width="5.0e-3" stroke="#A8E5EE" fill="none" stroke-opacity="0.3"><polyline points="-1.005,-0.5 1.0049999999999997,-0.5" /></g><g stroke-width="0.0" stroke="none" fill="#666666" fill-opacity="1.0" font-size="5.0e-2" text-anchor="end"><text x="-1.2309678118201535" y="0.5145">-0.03</text></g><g stroke-width="0.0" stroke="none" fill="#666666" fill-opacity="1.0" font-size="5.0e-2" text-anchor="end"><text x="-1.2309678118201535" y="0.3895">-0.02</text></g><g stroke-width="0.0" stroke="none" fill="#666666" fill-opacity="1.0" font-size="5.0e-2" text-anchor="end"><text x="-1.2309678118201535" y="0.2645">-0.01</text></g><g stroke-width="0.0" stroke="none" fill="#666666" fill-opacity="1.0" font-size="5.0e-2" text-anchor="end"><text x="-1.2309678118201535" y="0.1395">0.00</text></g><g stroke-width="0.0" stroke="none" fill="#666666" fill-opacity="1.0" font-size="5.0e-2" text-anchor="end"><text x="-1.2309678118201535" y="1.4499999999999999e-2">0.01</text></g><g stroke-width="0.0" stroke="none" fill="#666666" fill-opacity="1.0" font-size="5.0e-2" text-anchor="end"><text x="-1.2309678118201535" y="-0.1105">0.02</text></g><g stroke-width="0.0" stroke="none" fill="#666666" fill-opacity="1.0" font-size="5.0e-2" text-anchor="end"><text x="-1.2309678118201535" y="-0.2355">0.03</text></g><g stroke-width="0.0" stroke="none" fill="#666666" fill-opacity="1.0" font-size="5.0e-2" text-anchor="end"><text x="-1.2309678118201535" y="-0.3605000000000001">0.04</text></g><g stroke-width="0.0" stroke="none" fill="#666666" fill-opacity="1.0" font-size="5.0e-2" text-anchor="end"><text x="-1.2309678118201535" y="-0.4855">0.05</text></g><g stroke-width="0.0" stroke="#2C429D" fill="#5F0391" fill-opacity="1.0" stroke-opacity="0.4"><line stroke-width="5.0e-3" transform="rotate(-90.0, -1.2008928118201536, 0.5)" x1="-1.2008928118201536" y1="0.515" x2="-1.2008928118201536" y2="0.485" /><line stroke-width="5.0e-3" transform="rotate(-90.0, -1.2008928118201536, 0.375)" x1="-1.2008928118201536" y1="0.39" x2="-1.2008928118201536" y2="0.36" /><line stroke-width="5.0e-3" transform="rotate(-90.0, -1.2008928118201536, 0.25)" x1="-1.2008928118201536" y1="0.265" x2="-1.2008928118201536" y2="0.235" /><line stroke-width="5.0e-3" transform="rotate(-90.0, -1.2008928118201536, 0.125)" x1="-1.2008928118201536" y1="0.14" x2="-1.2008928118201536" y2="0.11" /><line stroke-width="5.0e-3" transform="rotate(-90.0, -1.2008928118201536, -0.0)" x1="-1.2008928118201536" y1="1.5e-2" x2="-1.2008928118201536" y2="-1.5e-2" /><line stroke-width="5.0e-3" transform="rotate(-90.0, -1.2008928118201536, -0.125)" x1="-1.2008928118201536" y1="-0.11" x2="-1.2008928118201536" y2="-0.14" /><line stroke-width="5.0e-3" transform="rotate(-90.0, -1.2008928118201536, -0.25)" x1="-1.2008928118201536" y1="-0.235" x2="-1.2008928118201536" y2="-0.265" /><line stroke-width="5.0e-3" transform="rotate(-90.0, -1.2008928118201536, -0.3750000000000001)" x1="-1.2008928118201536" y1="-0.3600000000000001" x2="-1.2008928118201536" y2="-0.3900000000000001" /><line stroke-width="5.0e-3" transform="rotate(-90.0, -1.2008928118201536, -0.5)" x1="-1.2008928118201536" y1="-0.485" x2="-1.2008928118201536" y2="-0.515" /></g><g stroke-width="0.0" stroke="#666666" fill="#5F0391" fill-opacity="0.5" stroke-opacity="0.0"><rect width="4.999999999999893e-3" height="1.0" x="-1.1908928118201536" y="-0.5" /></g><g stroke-width="5.0e-3" stroke="#A8E5EE" fill="none" stroke-opacity="0.3"><polyline points="-1.0,0.505 -1.0,-0.505" /></g><g stroke-width="5.0e-3" stroke="#A8E5EE" fill="none" stroke-opacity="0.3"><polyline points="-0.871743486973948,0.505 -0.871743486973948,-0.505" /></g><g stroke-width="5.0e-3" stroke="#A8E5EE" fill="none" stroke-opacity="0.3"><polyline points="-0.6152304609218437,0.505 -0.6152304609218437,-0.505" /></g><g stroke-width="5.0e-3" stroke="#A8E5EE" fill="none" stroke-opacity="0.3"><polyline points="-0.36272545090180375,0.505 -0.36272545090180375,-0.505" /></g><g stroke-width="5.0e-3" stroke="#A8E5EE" fill="none" stroke-opacity="0.3"><polyline points="-0.11022044088176364,0.505 -0.11022044088176364,-0.505" /></g><g stroke-width="5.0e-3" stroke="#A8E5EE" fill="none" stroke-opacity="0.3"><polyline points="0.1342685370741481,0.505 0.1342685370741481,-0.505" /></g><g stroke-width="5.0e-3" stroke="#A8E5EE" fill="none" stroke-opacity="0.3"><polyline points="0.3867735470941882,0.505 0.3867735470941882,-0.505" /></g><g stroke-width="5.0e-3" stroke="#A8E5EE" fill="none" stroke-opacity="0.3"><polyline points="0.6432865731462925,0.505 0.6432865731462925,-0.505" /></g><g stroke-width="5.0e-3" stroke="#A8E5EE" fill="none" stroke-opacity="0.3"><polyline points="0.8997995991983965,0.505 0.8997995991983965,-0.505" /></g><g stroke-width="5.0e-3" stroke="#A8E5EE" fill="none" stroke-opacity="0.3"><polyline points="0.9999999999999998,0.505 0.9999999999999998,-0.505" /></g><g stroke-width="0.0" stroke="none" fill="#666666" fill-opacity="1.0" font-size="5.0e-2" text-anchor="end"><text transform="rotate(-45.0, -1.0, 0.6062500000000001)" x="-1.0" y="0.6062500000000001">12 Feb 2018</text></g><g stroke-width="0.0" stroke="none" fill="#666666" fill-opacity="1.0" font-size="5.0e-2" text-anchor="end"><text transform="rotate(-45.0, -0.871743486973948, 0.6062500000000001)" x="-0.871743486973948" y="0.6062500000000001">31 Mar 2018</text></g><g stroke-width="0.0" stroke="none" fill="#666666" fill-opacity="1.0" font-size="5.0e-2" text-anchor="end"><text transform="rotate(-45.0, -0.6152304609218437, 0.6062500000000001)" x="-0.6152304609218437" y="0.6062500000000001">30 Jun 2018</text></g><g stroke-width="0.0" stroke="none" fill="#666666" fill-opacity="1.0" font-size="5.0e-2" text-anchor="end"><text transform="rotate(-45.0, -0.36272545090180375, 0.6062500000000001)" x="-0.36272545090180375" y="0.6062500000000001">30 Sep 2018</text></g><g stroke-width="0.0" stroke="none" fill="#666666" fill-opacity="1.0" font-size="5.0e-2" text-anchor="end"><text transform="rotate(-45.0, -0.11022044088176364, 0.6062500000000001)" x="-0.11022044088176364" y="0.6062500000000001">31 Dec 2018</text></g><g stroke-width="0.0" stroke="none" fill="#666666" fill-opacity="1.0" font-size="5.0e-2" text-anchor="end"><text transform="rotate(-45.0, 0.1342685370741481, 0.6062500000000001)" x="0.1342685370741481" y="0.6062500000000001">31 Mar 2019</text></g><g stroke-width="0.0" stroke="none" fill="#666666" fill-opacity="1.0" font-size="5.0e-2" text-anchor="end"><text transform="rotate(-45.0, 0.3867735470941882, 0.6062500000000001)" x="0.3867735470941882" y="0.6062500000000001">30 Jun 2019</text></g><g stroke-width="0.0" stroke="none" fill="#666666" fill-opacity="1.0" font-size="5.0e-2" text-anchor="end"><text transform="rotate(-45.0, 0.6432865731462925, 0.6062500000000001)" x="0.6432865731462925" y="0.6062500000000001">30 Sep 2019</text></g><g stroke-width="0.0" stroke="none" fill="#666666" fill-opacity="1.0" font-size="5.0e-2" text-anchor="end"><text transform="rotate(-45.0, 0.8997995991983965, 0.6062500000000001)" x="0.8997995991983965" y="0.6062500000000001">31 Dec 2019</text></g><g stroke-width="0.0" stroke="none" fill="#666666" fill-opacity="1.0" font-size="5.0e-2" text-anchor="end"><text transform="rotate(-45.0, 0.9999999999999998, 0.6062500000000001)" x="0.9999999999999998" y="0.6062500000000001">06 Feb 2020</text></g><g stroke-width="0.0" stroke="#2C429D" fill="#5F0391" fill-opacity="1.0" stroke-opacity="0.4"><line stroke-width="5.0e-3" x1="-1.0" y1="0.54" x2="-1.0" y2="0.51" /><line stroke-width="5.0e-3" x1="-0.871743486973948" y1="0.54" x2="-0.871743486973948" y2="0.51" /><line stroke-width="5.0e-3" x1="-0.6152304609218437" y1="0.54" x2="-0.6152304609218437" y2="0.51" /><line stroke-width="5.0e-3" x1="-0.36272545090180375" y1="0.54" x2="-0.36272545090180375" y2="0.51" /><line stroke-width="5.0e-3" x1="-0.11022044088176364" y1="0.54" x2="-0.11022044088176364" y2="0.51" /><line stroke-width="5.0e-3" x1="0.1342685370741481" y1="0.54" x2="0.1342685370741481" y2="0.51" /><line stroke-width="5.0e-3" x1="0.3867735470941882" y1="0.54" x2="0.3867735470941882" y2="0.51" /><line stroke-width="5.0e-3" x1="0.6432865731462925" y1="0.54" x2="0.6432865731462925" y2="0.51" /><line stroke-width="5.0e-3" x1="0.8997995991983965" y1="0.54" x2="0.8997995991983965" y2="0.51" /><line stroke-width="5.0e-3" x1="0.9999999999999998" y1="0.54" x2="0.9999999999999998" y2="0.51" /></g><g stroke-width="0.0" stroke="#666666" fill="#5F0391" fill-opacity="0.5" stroke-opacity="0.0"><rect width="1.9999999999999998" height="5.0000000000000044e-3" x="-1.0" y="0.51" /></g><g stroke-width="5.0e-3" stroke="#C58C4B" fill="none" stroke-opacity="0.5"><polyline points="-1.0,0.125 0.9999999999999998,0.125" /></g><g stroke-width="5.0e-3" stroke="#3C7F2B" fill="none" stroke-opacity="0.5"><polyline points="-1.0,0.24438796017200587 -0.9959919839679359,0.26889389032769906 -0.9919839679358717,0.3406466299874972 -0.9879759519038076,0.3701001729106723 -0.9839679358717435,0.37022225702261996 -0.9799599198396793,0.3616497224608387 -0.9759519038076152,0.34831409827079207 -0.9719438877755511,0.35220289050211395 -0.9679358717434869,0.3773114406317315 -0.9639278557114228,0.36299708118377827 -0.9599198396793587,0.38385689979142135 -0.9559118236472945,0.3712376812439418 -0.9519038076152304,0.32755068862408043 -0.9478957915831663,0.3539840290542182 -0.9438877755511023,0.38499217630230154 -0.9398797595190381,0.3874244233729845 -0.935871743486974,0.38699097025734175 -0.9318637274549099,0.3884503335573031 -0.9278557114228457,0.35862910143309 -0.9238476953907816,0.3680903752270751 -0.9198396793587175,0.3882779487101021 -0.9158316633266533,0.3939939000973219 -0.9118236472945892,0.39374617743328577 -0.9078156312625251,0.39407430743362687 -0.9038076152304609,0.37028050972265125 -0.8997995991983968,0.3771186445741799 -0.8957915831663327,0.3713792178191805 -0.8917835671342685,0.23922731332917946 -0.8877755511022044,7.037518381384394e-2 -0.8837675350701403,0.35742897918988237 -0.8797595190380761,0.2784357941673674 -0.875751503006012,0.27170102474032776 -0.8717434869739479,0.3619705986948637 -0.8677354709418837,0.26655877917593 -0.8637274549098196,0.35300670627021596 -0.8597194388777555,0.3919416072553572 -0.8557114228456915,0.39965260956963766 -0.8517034068136273,0.36398983333793156 -0.8476953907815632,0.3804459410441062 -0.8436873747494991,0.4067838848875106 -0.8396793587174349,0.40650230768289425 -0.8356713426853708,0.4053689385615596 -0.8316633266533067,0.40752798494846265 -0.8276553106212425,0.39729187792888065 -0.8236472945891784,0.3665836301781199 -0.8196392785571143,0.3655534924856536 -0.8156312625250501,0.3884718197822349 -0.811623246492986,0.40545025900503595 -0.8076152304609219,0.4052766843183879 -0.8036072144288577,0.39831328944659117 -0.7995991983967936,0.4035904981285824 -0.7955911823647295,0.40828199925932207 -0.7915831663326653,0.406738236556343 -0.7875751503006012,0.4106413263951875 -0.7835671342685371,0.41174779538146244 -0.779559118236473,0.4066065821122449 -0.7755511022044088,0.40339395329303745 -0.7715430861723447,0.4100008281225388 -0.7675350701402806,0.40233952077289986 -0.7635270541082164,0.4033293578618292 -0.7595190380761523,0.366900624632027 -0.7555110220440882,0.31098193164275967 -0.751503006012024,0.3051511641315321 -0.7474949899799599,0.3063975555514842 -0.7434869739478958,0.36373278498229317 -0.7394789579158316,0.3444292002434035 -0.7354709418837675,0.3547585587192166 -0.7314629258517034,0.37243167947414935 -0.7274549098196392,0.33621826904804286 -0.7234468937875751,0.3622907859162565 -0.719438877755511,0.3478289994451643 -0.7154308617234469,0.364636818497444 -0.7114228456913828,0.37803221911459345 -0.7074148296593187,0.3884499622004179 -0.7034068136272545,0.39016365385610774 -0.6993987975951904,0.40339549556401444 -0.6953907815631263,0.3847419804451866 -0.6913827655310621,0.3656462507017464 -0.687374749498998,0.3668275111943097 -0.6833667334669339,0.3123538114191141 -0.6793587174348698,0.3305084294003714 -0.6753507014028056,0.31347325483261407 -0.6713426853707415,0.31534930548828594 -0.6673346693386774,0.3107883185746477 -0.6633266533066133,0.3557535671336983 -0.6593186372745492,0.3463720249669045 -0.6553106212424851,0.36017606108252564 -0.6513026052104209,0.3750842044999533 -0.6472945891783568,0.3847898562220765 -0.6432865731462927,0.3845834613653202 -0.6392785571142285,0.3747438255106579 -0.6352705410821644,0.3811562991499477 -0.6312625250501003,0.29194293721270337 -0.6272545090180361,0.3210792570990526 -0.623246492985972,0.22747781896755043 -0.6192384769539079,0.3202329838456998 -0.6152304609218437,0.3302979407645904 -0.6112224448897796,0.35728624092482575 -0.6072144288577155,0.3201150557597028 -0.6032064128256514,0.38431205541928387 -0.5991983967935872,0.38566453629292274 -0.5951903807615231,0.34110898406832224 -0.591182364729459,0.3175409164590415 -0.5871743486973948,0.3842506125249943 -0.5831663326653307,0.3362473315425117 -0.5791583166332666,0.33617025826767866 -0.5751503006012024,0.3546054731004948 -0.5711422845691383,0.329280029184611 -0.5671342685370742,0.3185993542113741 -0.56312625250501,0.36577777739098727 -0.5591182364729459,0.3760038620250102 -0.5551102204408818,0.37111305310179876 -0.5511022044088176,0.34508007463476464 -0.5470941883767535,0.2597084389273481 -0.5430861723446894,0.3238863985679263 -0.5390781563126252,0.3850947952719289 -0.5350701402805611,0.3874181069653561 -0.531062124248497,0.39420391281422795 -0.5270541082164328,0.3944646452513587 -0.5230460921843687,0.39068871942689976 -0.5190380761523046,0.37239796775504985 -0.5150300601202404,0.35240072967021385 -0.5110220440881764,0.3354611371532664 -0.5070140280561123,0.35194523143575285 -0.5030060120240482,0.3740960044578166 -0.498997995991984,0.3916925695621767 -0.4949899799599199,0.3656384648406831 -0.49098196392785576,0.40000323827126644 -0.4869739478957916,0.3582771918735128 -0.4829659318637275,0.4076641444688358 -0.47895791583166336,0.4085015162793776 -0.47494989979959923,0.4051799385682733 -0.4709418837675351,0.40086273457907684 -0.46693386773547096,0.4058605650982958 -0.46292585170340683,0.4093729633451731 -0.4589178356713427,0.39585832719739195 -0.45490981963927857,0.335199043075896 -0.45090180360721444,0.34967510799987356 -0.4468937875751503,0.2884322403966121 -0.44288577154308617,0.3753653412498324 -0.43887775551102204,0.3844103013180977 -0.434869739478958,0.4008026735601588 -0.4308617234468939,0.40503448819492766 -0.42685370741482975,0.3842463229379932 -0.4228456913827656,0.3567240460479017 -0.4188376753507015,0.37308317839583116 -0.41482965931863736,0.39822150285960434 -0.4108216432865732,0.3965397058685687 -0.4068136272545091,0.4051839339975046 -0.40280561122244496,0.4065093514648219 -0.3987975951903808,0.38574110138462536 -0.3947895791583167,0.4128488431806969 -0.39078156312625256,0.4131205493834157 -0.38677354709418843,0.3800487674323158 -0.3827655310621243,0.3952649833149435 -0.37875751503006017,0.4172720418040001 -0.37474949899799603,0.41428127304675594 -0.3707414829659319,0.38845090916321423 -0.36673346693386777,0.40742660171989015 -0.36272545090180364,0.40294732402899 -0.3587174348697395,0.4173427991734342 -0.35470941883767537,0.4144478894223207 -0.35070140280561124,0.4144246921762748 -0.3466933867735471,0.3257993327954207 -0.342685370741483,0.2086218414611185 -0.33867735470941884,0.19844631213110225 -0.3346693386773547,0.1600405460302462 -0.3306613226452907,-9.887309658563304e-2 -0.32665330661322656,-0.3854162429621292 -0.3226452905811624,4.485696690837432e-2 -0.3186372745490983,-1.6003802991298444e-2 -0.31462925851703416,0.3145651836624812 -0.31062124248497003,0.31854360176848334 -0.3066132264529059,0.2295718167097393 -0.30260521042084176,0.2407144646615738 -0.29859719438877763,0.2152499683773627 -0.2945891783567135,0.17672048788946493 -0.29058116232464937,-6.1972082687410945e-2 -0.28657314629258523,0.23610862351706535 -0.2825651302605211,0.11896568424410947 -0.27855711422845697,8.20533165063565e-2 -0.27454909819639284,0.2712231188308525 -0.2705410821643287,0.337798313632652 -0.2665330661322646,0.36315314986236374 -0.26252505010020044,0.3587011008522662 -0.2585170340681363,0.36553154225406836 -0.2545090180360722,0.3614106760994669 -0.25050100200400804,0.2972686284997269 -0.2464929859719439,0.3144165090712605 -0.24248496993987978,0.3565281139519805 -0.23847695390781565,0.37815767817281887 -0.23446893787575152,0.3775482560013368 -0.2304609218436875,0.3636454982494677 -0.22645290581162336,0.38660270985553236 -0.22244488977955923,0.386378924768538 -0.2184368737474951,0.3706351529990282 -0.21442885771543096,0.2996662640515866 -0.21042084168336683,0.33241820990647863 -0.2064128256513027,0.307538079046919 -0.20240480961923857,0.38715348376733727 -0.19839679358717444,0.39292318187448294 -0.1943887775551103,0.35809504692170135 -0.19038076152304617,0.36720382814830427 -0.18637274549098204,0.3310781228805936 -0.1823647294589179,0.2673198770137607 -0.17835671342685377,0.41059399771988564 -0.17434869739478964,0.41047477690696477 -0.1703406813627255,0.36984773803403315 -0.16633266533066138,0.38339105998408995 -0.16232464929859725,0.38791462380108677 -0.1583166332665331,0.40489256660767897 -0.15430861723446898,0.40666229866131665 -0.15030060120240485,0.359038621156609 -0.14629258517034072,0.25969747208478294 -0.14228456913827658,0.2833384318420198 -0.13827655310621245,0.19502074578465917 -0.13426853707414832,8.839963613026125e-2 -0.1302605210420842,-7.32163203834777e-2 -0.12625250501002017,-0.30096560086244384 -0.12224448897795603,0.34471467883946944 -0.1182364729458919,0.3752987332852695 -0.11422845691382777,0.37801838810122784 -0.11022044088176364,0.3900352987906331 -0.1062124248496995,0.3905648464563525 -0.10220440881763537,0.36882382542658587 -9.819639278557124e-2,0.39470097122464387 -9.418837675350711e-2,0.37978323371110406 -9.018036072144298e-2,0.35182808915473973 -8.617234468937884e-2,0.3363422307677711 -8.216432865731471e-2,0.3180144402598984 -7.815631262525058e-2,0.31888259520466067 -7.414829659318645e-2,0.34030118540834 -7.014028056112231e-2,0.29746968400308366 -6.613226452905818e-2,0.2881559715132889 -6.212424849699405e-2,0.25035956442495894 -5.811623246492992e-2,0.17440711348952853 -5.4108216432865786e-2,0.28404800718577805 -5.010020040080165e-2,0.2760465244151347 -4.609218436873752e-2,0.27246356173325303 -4.208416833667339e-2,0.22982563795671862 -3.8076152304609256e-2,0.28475904663462426 -3.4068136272545124e-2,0.29485274381205884 -3.0060120240480992e-2,0.22216064700771027 -2.605210420841686e-2,0.17214642658675317 -2.204408817635284e-2,0.17824815376122832 -1.8036072144288706e-2,0.13787426833647104 -1.4028056112224574e-2,0.11311673138245809 -1.0020040080160442e-2,0.1527178367849258 -6.012024048096309e-3,0.2416452288967299 -2.004008016032177e-3,0.24483112830289205 2.004008016031955e-3,0.2476076953218173 6.012024048096087e-3,0.1826718308968644 1.002004008016022e-2,0.1728400771421783 1.4028056112224352e-2,0.20894101933709963 1.8036072144288484e-2,0.14444181748874968 2.2044088176352616e-2,0.14971651947811926 2.605210420841675e-2,0.15213613926272374 3.006012024048088e-2,0.20068779754015093 3.406813627254501e-2,0.16743436261369155 3.8076152304609145e-2,0.1738209208037912 4.208416833667328e-2,0.1960816191881919 4.609218436873741e-2,0.21281974055933067 5.010020040080154e-2,0.24001058110177131 5.4108216432865675e-2,0.21412338178888618 5.811623246492981e-2,0.24863230038008682 6.212424849699394e-2,0.2586932068026418 6.613226452905807e-2,0.2756181120980321 7.01402805611222e-2,0.2621899505137354 7.414829659318634e-2,0.24974665069900515 7.815631262525047e-2,0.30438394028959287 8.21643286573146e-2,0.3020941135479138 8.617234468937873e-2,0.287783421127254 9.018036072144286e-2,0.2972554959978094 9.4188376753507e-2,0.28370329215168943 9.819639278557113e-2,0.27208168039501146 0.10220440881763526,0.28246130919438905 0.1062124248496994,0.302636720093697 0.11022044088176353,0.26661936925265334 0.11422845691382766,0.34211156144272714 0.11823647294589179,0.33665204946724947 0.12224448897795592,0.3553913535691227 0.12625250501002006,0.34527311038356834 0.13026052104208397,0.35391936457152173 0.1342685370741481,0.3598297130535819 0.13827655310621223,0.33294746233132555 0.14228456913827636,0.34198349141301165 0.1462925851703405,0.33908396893573245 0.15030060120240463,0.33651116334341724 0.15430861723446876,0.318372708586004 0.1583166332665329,0.3235419929980483 0.16232464929859702,0.36234334176639427 0.16633266533066116,0.3578559770022658 0.1703406813627253,0.36158951893753905 0.17434869739478942,0.3446706859218208 0.17835671342685355,0.35594659151643404 0.18236472945891768,0.35961889616846776 0.18637274549098182,0.3671315096535742 0.19038076152304595,0.36707418758422916 0.19438877755511008,0.36714916874877557 0.1983967935871742,0.34893617981412894 0.20240480961923835,0.3688689136173955 0.20641282565130248,0.3731154393263034 0.2104208416833666,0.36520313014689765 0.21442885771543074,0.3671827982289401 0.21843687374749488,0.36926552555612907 0.222444889779559,0.36587809025932616 0.22645290581162314,0.3438274239850453 0.23046092184368727,0.3897138430232726 0.2344689378757514,0.3781089720445606 0.23847695390781554,0.23349914049025494 0.24248496993987967,0.20602212955924293 0.2464929859719438,0.1541464720530532 0.25050100200400793,0.22414666609320105 0.25450901803607207,-3.8193873481635165e-2 0.2585170340681362,0.14604371346810785 0.26252505010020033,0.2398277100651504 0.26653306613226446,0.33233506898065074 0.2705410821643286,0.28913019177040244 0.2745490981963927,0.22531908854230487 0.27855711422845686,0.3215706943545076 0.282565130260521,0.3010545706818655 0.2865731462925851,0.1942703658104175 0.29058116232464926,0.22224124541391876 0.2945891783567134,0.1289581183817064 0.2985971943887775,4.110860521886506e-2 0.30260521042084165,0.1036241312241638 0.3066132264529058,-6.535331149536039e-2 0.3106212424849699,-8.482225067375682e-2 0.31462925851703405,0.31012413063443545 0.3186372745490982,0.3478184345840896 0.3226452905811623,0.3537584659080627 0.32665330661322645,0.3320356984600622 0.3306613226452906,0.3108847216496033 0.3346693386773545,0.3179231971979967 0.3386773547094186,0.333016101911658 0.34268537074148275,0.3153532851025301 0.3466933867735469,0.32916142103373025 0.350701402805611,0.32773616613748624 0.35470941883767515,0.2717777696050666 0.3587174348697393,0.25388929557691076 0.3627254509018034,0.16642473222670662 0.36673346693386755,0.20654519216143585 0.3707414829659317,0.24536979248777402 0.3747494989979958,0.33613854223101225 0.37875751503005994,0.3423717219404563 0.3827655310621241,0.3331557314425771 0.3867735470941882,0.30828637079001675 0.39078156312625234,0.2558063323503974 0.3947895791583165,0.23887618806929817 0.3987975951903806,0.16384478395398266 0.40280561122244474,0.2184409907327705 0.40681362725450887,0.2937213116200451 0.410821643286573,0.2940922158175048 0.41482965931863713,0.26727987008884646 0.41883767535070127,0.25863691771851244 0.4228456913827654,0.22363113259282424 0.42685370741482953,0.24272248317867806 0.43086172344689366,0.29629598879196 0.4348697394789578,0.3341454703568081 0.4388777555110219,0.33263108908824046 0.44288577154308606,0.3328576665108487 0.4468937875751502,0.34067687048856593 0.4509018036072143,0.34315469477861676 0.45490981963927846,0.32758780831299017 0.4589178356713426,0.3559336801440457 0.4629258517034067,0.34208341032107814 0.46693386773547085,0.35660410740846016 0.470941883767535,0.36325746963741834 0.4749498997995991,0.31377084198722394 0.47895791583166325,0.20434811750755033 0.4829659318637274,8.463244413011961e-2 0.4869739478957915,-0.19777221270660095 0.49098196392785565,0.12810759865875398 0.4949899799599198,0.1555040188312906 0.4989979959919839,0.3571259181256326 0.503006012024048,0.3258617770699883 0.5070140280561122,0.24275062423318194 0.5110220440881763,0.36575319459569267 0.5150300601202404,0.21869153525808416 0.5190380761523046,0.2563466850071373 0.5230460921843687,0.3629171914636602 0.5270541082164328,0.39625223944829024 0.531062124248497,0.38434574008762307 0.5350701402805611,0.39913809957122415 0.539078156312625,0.3989079072867831 0.5430861723446891,0.32828628535256565 0.5470941883767533,0.3871229198862103 0.5511022044088174,0.3792301332302152 0.5551102204408815,0.4002978544425688 0.5591182364729457,0.40682985981542374 0.5631262525050098,0.4062011335985599 0.5671342685370739,0.4101648839013331 0.5711422845691381,0.4018956671656091 0.5751503006012022,0.3590736727710818 0.5791583166332663,0.35946780017129226 0.5831663326653305,0.36489145976933934 0.5871743486973946,0.3677970096487475 0.5911823647294587,0.33454355040209866 0.5951903807615229,0.3236088990823221 0.599198396793587,0.33719194859230944 0.6032064128256511,0.3620766377454358 0.6072144288577153,0.3541561471699879 0.6112224448897794,0.3578943480449302 0.6152304609218435,0.3628143682637688 0.6192384769539077,0.38458156119767367 0.6232464929859718,0.38618451448609903 0.6272545090180359,0.3884612496194813 0.6312625250501,0.39427722402053933 0.6352705410821642,0.39434631139328274 0.6392785571142283,0.3840368620365707 0.6432865731462925,0.39585345599457045 0.6472945891783566,0.35585035682223365 0.6513026052104207,0.2189069848150687 0.6553106212424848,0.3202527458316463 0.659318637274549,0.40175611992225846 0.6633266533066131,0.39096194796477524 0.6673346693386772,0.3121213433315816 0.6713426853707414,0.3811075634093029 0.6753507014028055,0.4040363668736817 0.6793587174348696,0.4051485551108843 0.6833667334669338,0.4083892756260106 0.6873747494989979,0.3807264950481448 0.691382765531062,0.39306819058906695 0.6953907815631262,0.3843498276517324 0.6993987975951903,0.40208232870629823 0.7034068136272544,0.3787508704823186 0.7074148296593186,0.39824725137222533 0.7114228456913827,0.39011005677886434 0.7154308617234468,0.3847509882855237 0.719438877755511,0.36686732573665376 0.7234468937875751,0.33340339732207036 0.7274549098196392,0.35029416966638094 0.7314629258517034,0.33283660101369494 0.7354709418837675,0.3662316722862934 0.7394789579158316,0.3001296375437683 0.7434869739478958,0.274485943696829 0.7474949899799597,0.3063041405346254 0.7515030060120238,0.31332615726108093 0.7555110220440879,0.2993200486004709 0.7595190380761521,0.28670299900606866 0.7635270541082162,0.3242331010898686 0.7675350701402803,0.32192476108024565 0.7715430861723445,0.3273485673268133 0.7755511022044086,0.3311575200250559 0.7795591182364727,0.2703172581054932 0.7835671342685369,0.2846207191903386 0.787575150300601,0.30973185188364155 0.7915831663326651,0.3530911615943288 0.7955911823647293,0.3629461980984976 0.7995991983967934,0.3604679391650663 0.8036072144288575,0.3271001950014544 0.8076152304609217,0.31931227651667343 0.8116232464929858,0.28855983671453433 0.8156312625250499,0.35113221061490296 0.819639278557114,0.36859291556906637 0.8236472945891782,0.31378288732989923 0.8276553106212423,0.3709126448855475 0.8316633266533064,0.3749889952452715 0.8356713426853706,0.3843713178172121 0.8396793587174347,0.3936156406087867 0.8436873747494988,0.3907152469940096 0.847695390781563,0.3943233075189466 0.8517034068136271,0.3724563077498809 0.8557114228456912,0.3813879916178066 0.8597194388777554,0.33271071993579604 0.8637274549098195,0.3472104086492053 0.8677354709418836,0.3664549235087833 0.8717434869739478,0.33720666381315034 0.8757515030060119,0.29289120989965334 0.879759519038076,0.30650669835285627 0.8837675350701402,0.33293662207675906 0.8877755511022043,0.2857483237225983 0.8917835671342684,0.3137056527751404 0.8957915831663326,0.3844659937079642 0.8997995991983967,0.3796709038387863 0.9038076152304608,0.3264079118185531 0.907815631262525,0.3988235140979807 0.9118236472945891,0.39480343075022983 0.9158316633266532,0.39940771041332956 0.9198396793587174,0.39956701567446223 0.9238476953907815,0.3700516978348442 0.9278557114228456,0.40177588661292485 0.9318637274549098,0.3678481200059985 0.9358717434869739,0.39530627191809387 0.939879759519038,0.3933181681170318 0.9438877755511021,0.3292616116962941 0.9478957915831663,0.2984127990193299 0.9519038076152302,0.3683509460070076 0.9559118236472943,0.3819628525652395 0.9599198396793585,0.38605789951252345 0.9639278557114226,0.3853041179760535 0.9679358717434867,0.19851276769997162 0.9719438877755509,0.36026865278763803 0.975951903807615,0.3436863029345576 0.9799599198396791,0.3689058019268895 0.9839679358717432,0.17797189714394485 0.9879759519038074,0.29739738279424 0.9919839679358715,0.4129362145395261 0.9959919839679356,0.4090804588395974 0.9999999999999998,0.40212279519139754" /></g><g stroke-width="5.0e-3" stroke="#382A8C" fill="none" stroke-opacity="0.5"><polyline points="-1.0,0.17602659548241012 -0.9959919839679359,0.1773700755822416 -0.9919839679358717,0.18331231783488167 -0.9879759519038076,0.18559890317206873 -0.9839679358717435,0.18557498063189837 -0.9799599198396793,0.1846270841952904 -0.9759519038076152,0.18297642835449668 -0.9719438877755511,0.18311962480937066 -0.9679358717434869,0.1858175713348283 -0.9639278557114228,0.1848064851374558 -0.9599198396793587,0.18583112432636412 -0.9559118236472945,0.18382780628620676 -0.9519038076152304,0.17825559844388683 -0.9478957915831663,0.18058013825311142 -0.9438877755511023,0.18432919732578212 -0.9398797595190381,0.1848010799929652 -0.935871743486974,0.1845688272346307 -0.9318637274549099,0.18531419621603418 -0.9278557114228457,0.18531523351133994 -0.9238476953907816,0.185610402592914 -0.9198396793587175,0.18602609805139259 -0.9158316633266533,0.18557425173540837 -0.9118236472945892,0.18536874554002325 -0.9078156312625251,0.18553243477620984 -0.9038076152304609,0.18152846468563866 -0.8997995991983968,0.1819383991554892 -0.8957915831663327,0.18097148080302544 -0.8917835671342685,0.1654113991014478 -0.8877755511022044,0.14581391380985848 -0.8837675350701403,0.172374938071019 -0.8797595190380761,0.15962459998852174 -0.875751503006012,0.15693431748578368 -0.8717434869739479,0.16864987203828063 -0.8677354709418837,0.1509430501486448 -0.8637274549098196,0.16271701621097223 -0.8597194388777555,0.17112137202849698 -0.8557114228456915,0.17501843458186445 -0.8517034068136273,0.1611650703502479 -0.8476953907815632,0.16375813371855336 -0.8436873747494991,0.17475948222828536 -0.8396793587174349,0.17163115999499418 -0.8356713426853708,0.17601257883147714 -0.8316633266533067,0.17445993780587082 -0.8276553106212425,0.17817813552456735 -0.8236472945891784,0.18173213297448837 -0.8196392785571143,0.18184261602719293 -0.8156312625250501,0.1800273332536506 -0.811623246492986,0.1765254652765082 -0.8076152304609219,0.1764306986830564 -0.8036072144288577,0.16911923653426775 -0.7995991983967936,0.17021098876343355 -0.7955911823647295,0.17597810990783663 -0.7915831663326653,0.17638478159236298 -0.7875751503006012,0.17211810004721145 -0.7835671342685371,0.17345571632108603 -0.779559118236473,0.1691696693120861 -0.7755511022044088,0.16761821071251803 -0.7715430861723447,0.17525027427612017 -0.7675350701402806,0.1767536291399226 -0.7635270541082164,0.17652714141132542 -0.7595190380761523,0.18013230741860065 -0.7555110220440882,0.18231498386723682 -0.751503006012024,0.18251967060656227 -0.7474949899799599,0.18258454758464482 -0.7434869739478958,0.1811800468445015 -0.7394789579158316,0.18201409579849992 -0.7354709418837675,0.18175528052710666 -0.7314629258517034,0.18104067521296435 -0.7274549098196392,0.18252405433975138 -0.7234468937875751,0.18189067628212696 -0.719438877755511,0.1824226898076005 -0.7154308617234469,0.18198059756643314 -0.7114228456913828,0.18136961182087324 -0.7074148296593187,0.17746119637091323 -0.7034068136272545,0.18169442200003638 -0.6993987975951904,0.17966423315850794 -0.6953907815631263,0.1824574189361718 -0.6913827655310621,0.18303966978855468 -0.687374749498998,0.18306623720927878 -0.6833667334669339,0.18342480759812507 -0.6793587174348698,0.18344509199323272 -0.6753507014028056,0.1833805505452743 -0.6713426853707415,0.18335383912512604 -0.6673346693386774,0.1832764272226582 -0.6633266533066133,0.18346135717537154 -0.6593186372745492,0.18343452151174272 -0.6553106212424851,0.18346445607557021 -0.6513026052104209,0.18342135098494539 -0.6472945891783568,0.18307242625509385 -0.6432865731462927,0.1832098074992895 -0.6392785571142285,0.18217195592850255 -0.6352705410821644,0.1824719347599872 -0.6312625250501003,0.17822897136285076 -0.6272545090180361,0.17903913024922247 -0.623246492985972,0.17491338335961765 -0.6192384769539079,0.17793976302969144 -0.6152304609218437,0.178159568773812 -0.6112224448897796,0.1793166180937909 -0.6072144288577155,0.17709330189984862 -0.6032064128256514,0.18052042186533673 -0.5991983967935872,0.1825840754634125 -0.5951903807615231,0.18342657659629946 -0.591182364729459,0.1834044068175325 -0.5871743486973948,0.18318975078999528 -0.5831663326653307,0.18346077066870042 -0.5791583166332666,0.18343095827636352 -0.5751503006012024,0.18350240108789806 -0.5711422845691383,0.18329476857821608 -0.5671342685370742,0.18311908466608162 -0.56312625250501,0.1835059233050309 -0.5591182364729459,0.18354329981045814 -0.5551102204408818,0.18351374469250892 -0.5511022044088176,0.18319605206518996 -0.5470941883767535,0.1815375521647153 -0.5430861723446894,0.18246606288227957 -0.5390781563126252,0.1835106521126741 -0.5350701402805611,0.18356625752185368 -0.531062124248497,0.18364412317320272 -0.5270541082164328,0.1836675507925405 -0.5230460921843687,0.18349193560099286 -0.5190380761523046,0.18297455528994971 -0.5150300601202404,0.18238738229095453 -0.5110220440881764,0.18182964298039955 -0.5070140280561123,0.1820728104416623 -0.5030060120240482,0.18256844234665737 -0.498997995991984,0.18363422638422494 -0.4949899799599199,0.18364426799107714 -0.49098196392785576,0.1835917349227275 -0.4869739478957916,0.18354724260056798 -0.4829659318637275,0.1837324660141223 -0.47895791583166336,0.18348555860728816 -0.47494989979959923,0.18322538584905984 -0.4709418837675351,0.18296324689068383 -0.46693386773547096,0.183147003784828 -0.46292585170340683,0.18348558386913238 -0.4589178356713427,0.18248240951360922 -0.45490981963927857,0.18025609645228852 -0.45090180360721444,0.1804253294469917 -0.4468937875751503,0.17821215806430268 -0.44288577154308617,0.1805664096959843 -0.43887775551102204,0.18077590654906434 -0.434869739478958,0.18158800554643134 -0.4308617234468939,0.18255515860452715 -0.42685370741482975,0.18335236729465743 -0.4228456913827656,0.1836291811161166 -0.4188376753507015,0.1835245811486526 -0.41482965931863736,0.18310896406671462 -0.4108216432865732,0.18314992759950766 -0.4068136272545091,0.1821219629726662 -0.40280561122244496,0.1822240335288623 -0.3987975951903808,0.1834713196833035 -0.3947895791583167,0.18265909886606874 -0.39078156312625256,0.1825065253294174 -0.38677354709418843,0.1801194678233714 -0.3827655310621243,0.18056967210804808 -0.37875751503006017,0.18206632679398377 -0.37474949899799603,0.1825946142325573 -0.3707414829659319,0.18335553723276315 -0.36673346693386777,0.1829998240358005 -0.36272545090180364,0.18311578674650042 -0.3587174348697395,0.18246154485289623 -0.35470941883767537,0.1827171581280827 -0.35070140280561124,0.18269714065362674 -0.3466933867735471,0.18375144179125674 -0.342685370741483,0.18319914414111338 -0.33867735470941884,0.18303179253097518 -0.3346693386773547,0.18259920346214764 -0.3306613226452907,0.16384394276256914 -0.32665330661322656,0.14220594677425075 -0.3226452905811624,0.16006917160793466 -0.3186372745490983,0.1539104948969383 -0.31462925851703416,0.17409846520673483 -0.31062124248497003,0.17381459424592594 -0.3066132264529059,0.1631594129207895 -0.30260521042084176,0.162793235165842 -0.29859719438877763,0.15874987761316245 -0.2945891783567135,0.15315047524353947 -0.29058116232464937,0.11974878301776126 -0.28657314629258523,0.14667156612363758 -0.2825651302605211,0.12746277931103472 -0.27855711422845697,0.1191405901197502 -0.27454909819639284,0.1415143106673175 -0.2705410821643287,0.15363658540549463 -0.2665330661322646,0.16316177340435095 -0.26252505010020044,0.15818001709575802 -0.2585170340681363,0.16292118681678275 -0.2545090180360722,0.1675292372290949 -0.25050100200400804,0.17843398500008595 -0.2464929859719439,0.1775433925051657 -0.24248496993987978,0.17370910567800002 -0.23847695390781565,0.16206579366250806 -0.23446893787575152,0.16099810745763565 -0.2304609218436875,0.15492388883184194 -0.22645290581162336,0.16394918051320462 -0.22244488977955923,0.16557710164632633 -0.2184368737474951,0.15318100436623305 -0.21442885771543096,0.13630561198308683 -0.21042084168336683,0.14018893057292686 -0.2064128256513027,0.13342980382053543 -0.20240480961923857,0.15117665642648165 -0.19839679358717444,0.15434277158011156 -0.1943887775551103,0.17120831413000287 -0.19038076152304617,0.17011069590780148 -0.18637274549098204,0.17402088676955502 -0.1823647294589179,0.17773034954158973 -0.17835671342685377,0.16464509525692478 -0.17434869739478964,0.16377721265174128 -0.1703406813627255,0.14726016488407706 -0.16633266533066138,0.1492122753462024 -0.16232464929859725,0.1492470104884573 -0.1583166332665331,0.15421842716911133 -0.15430861723446898,0.1543284332578726 -0.15030060120240485,0.1387395477792417 -0.14629258517034072,0.11852549838886733 -0.14228456913827658,0.11950917031409836 -0.13827655310621245,0.10232530582716348 -0.13426853707414832,8.302241971895336e-2 -0.1302605210420842,5.603452549627047e-2 -0.12625250501002017,1.8974570008450486e-2 -0.12224448897795603,0.11372267872783709 -0.1182364729458919,0.12393780559583956 -0.11422845691382777,0.1235896760623898 -0.11022044088176364,0.13273784887473788 -0.1062124248496995,0.13457712484830048 -0.10220440881763537,0.11386297333888395 -9.819639278557124e-2,0.14847647103733375 -9.418837675350711e-2,0.1535749359406185 -9.018036072144298e-2,0.15961728468700076 -8.617234468937884e-2,0.16196305573798975 -8.216432865731471e-2,0.16429466127018022 -7.815631262525058e-2,0.16440503308927024 -7.414829659318645e-2,0.16220583876438566 -7.014028056112231e-2,0.16717741789313018 -6.613226452905818e-2,0.16812570531992133 -6.212424849699405e-2,0.17073318086337919 -5.811623246492992e-2,0.17392269966769686 -5.4108216432865786e-2,0.1709447948218913 -5.010020040080165e-2,0.17162362147061522 -4.609218436873752e-2,0.1720354002651595 -4.208416833667339e-2,0.17393979980141244 -3.8076152304609256e-2,0.17240320963335354 -3.4068136272545124e-2,0.17209176541383003 -3.0060120240480992e-2,0.17514234292930142 -2.605210420841686e-2,0.17578305664145377 -2.204408817635284e-2,0.17580356486295873 -1.8036072144288706e-2,0.17576461510439323 -1.4028056112224574e-2,0.17548930511610622 -1.0020040080160442e-2,0.17567263087714424 -6.012024048096309e-3,0.17592484969709415 -2.004008016032177e-3,0.17594080530975192 2.004008016031955e-3,0.1759533703738187 6.012024048096087e-3,0.17551374379720824 1.002004008016022e-2,0.17517700625258625 1.4028056112224352e-2,0.17553291342632216 1.8036072144288484e-2,0.17395895305711195 2.2044088176352616e-2,0.173699067023938 2.605210420841675e-2,0.1733627842228208 3.006012024048088e-2,0.174218580232322 3.406813627254501e-2,0.1728626277590351 3.8076152304609145e-2,0.17262806294879174 4.208416833667328e-2,0.17292968903450429 4.609218436873741e-2,0.17315343123659094 5.010020040080154e-2,0.1738954236698771 5.4108216432865675e-2,0.1723139860763962 5.811623246492981e-2,0.1734447457124773 6.212424849699394e-2,0.17378075174088087 6.613226452905807e-2,0.1750942137515305 7.01402805611222e-2,0.17600340101976653 7.414829659318634e-2,0.17610042426248979 7.815631262525047e-2,0.17478811924793952 8.21643286573146e-2,0.17426151315434046 8.617234468937873e-2,0.1726525009498987 9.018036072144286e-2,0.1730021004518273 9.4188376753507e-2,0.17164730574266396 9.819639278557113e-2,0.17052751580980363 0.10220440881763526,0.17073172739906795 0.1062124248496994,0.171887801875876 0.11022044088176353,0.1681548260203642 0.11422845691382766,0.17491099796776627 0.11823647294589179,0.1751292010119584 0.12224448897795592,0.17366118029019206 0.12625250501002006,0.17485786075944404 0.13026052104208397,0.17414548860093582 0.1342685370741481,0.17242969087030635 0.13827655310621223,0.16842278722045767 0.14228456913827636,0.1686432760102461 0.1462925851703405,0.16791829999441255 0.15030060120240463,0.16719894194947316 0.15430861723446876,0.16519304441148658 0.1583166332665329,0.1649498433385731 0.16232464929859702,0.16830032879873885 0.16633266533066116,0.16695188494089175 0.1703406813627253,0.1671985157447159 0.17434869739478942,0.16418322874061048 0.17835671342685355,0.16485836092900247 0.18236472945891768,0.1649043865283421 0.18637274549098182,0.1664003092813781 0.19038076152304595,0.1658947537667642 0.19438877755511008,0.1656723983432276 0.1983967935871742,0.16117967689676987 0.20240480961923835,0.1629219768602428 0.20641282565130248,0.1635016639663156 0.2104208416833666,0.16113460719368478 0.21442885771543074,0.16088052496034227 0.21843687374749488,0.16070251197593738 0.222444889779559,0.16558613003345635 0.22645290581162314,0.16694154916989395 0.23046092184368727,0.16232423635606102 0.2344689378757514,0.16527084484473797 0.23847695390781554,0.1726387805810347 0.24248496993987967,0.17314890995710985 0.2464929859719438,0.17388225596685997 0.25050100200400793,0.1732092157063192 0.25450901803607207,0.17535666017944318 0.2585170340681362,0.17597815341840278 0.26252505010020033,0.17588840682140822 0.26653306613226446,0.17495437101916128 0.2705410821643286,0.17585601720923222 0.2745490981963927,0.17622483617741258 0.27855711422845686,0.1758994052773855 0.282565130260521,0.1761828715327901 0.2865731462925851,0.17609014299684056 0.29058116232464926,0.1762117755254245 0.2945891783567134,0.17499276339890424 0.2985971943887775,0.1732150615573289 0.30260521042084165,0.173838911704026 0.3066132264529058,0.16915893440013813 0.3106212424849699,0.16786891108823215 0.31462925851703405,0.17598444079245573 0.3186372745490982,0.1771118954231779 0.3226452905811623,0.17734887368115904 0.32665330661322645,0.17666333036144155 0.3306613226452906,0.1759119304034334 0.3346693386773545,0.1760636958190317 0.3386773547094186,0.17651276266295296 0.34268537074148275,0.1758156693561989 0.3466933867735469,0.17623023704898416 0.350701402805611,0.1761226490961295 0.35470941883767515,0.17379287667747872 0.3587174348697393,0.1729244627806455 0.3627254509018034,0.1692118998399883 0.36673346693386755,0.1701125817074013 0.3707414829659317,0.17116466802956493 0.3747494989979958,0.1749374701445286 0.37875751503005994,0.1753860886924712 0.3827655310621241,0.17446309999363635 0.3867735470941882,0.172696462148889 0.39078156312625234,0.16967607911111032 0.3947895791583165,0.16849442770486678 0.3987975951903806,0.1645289261034259 0.40280561122244474,0.16607853655359295 0.40681362725450887,0.16918854439231268 0.410821643286573,0.16886370778829107 0.41482965931863713,0.16677031367029566 0.41883767535070127,0.1658076386444437 0.4228456913827654,0.16333802859021163 0.42685370741482953,0.16368736569505604 0.43086172344689366,0.1663062092724873 0.4348697394789578,0.17024203783559144 0.4388777555110219,0.16879898514308989 0.44288577154308606,0.17200554838982768 0.4468937875751502,0.17107165697625176 0.4509018036072143,0.16812169172894614 0.45490981963927846,0.16584090344293584 0.4589178356713426,0.1692486967776099 0.4629258517034067,0.16559652544127645 0.46693386773547085,0.1669842684331212 0.470941883767535,0.16878637508353317 0.4749498997995991,0.1738393772354644 0.47895791583166325,0.17606206790303458 0.4829659318637274,0.17662016436766637 0.4869739478957915,0.17030843059084494 0.49098196392785565,0.1756026955658797 0.4949899799599198,0.17577131570185522 0.4989979959919839,0.17845982271257677 0.503006012024048,0.17830226835929291 0.5070140280561122,0.17621657555188014 0.5110220440881763,0.17887169962320038 0.5150300601202404,0.17236434533821215 0.5190380761523046,0.17344578991623233 0.5230460921843687,0.17822033271556859 0.5270541082164328,0.17991216231752238 0.531062124248497,0.1791075241292418 0.5350701402805611,0.18001338281970286 0.539078156312625,0.179969701327523 0.5430861723446891,0.17448572065891227 0.5470941883767533,0.17819908627445302 0.5511022044088174,0.17729204694981132 0.5551102204408815,0.17897588072251802 0.5591182364729457,0.18071414762593063 0.5631262525050098,0.18073058761362304 0.5671342685370739,0.18012818211395187 0.5711422845691381,0.18091425538712375 0.5751503006012022,0.17994025194924906 0.5791583166332663,0.1798590778944939 0.5831663326653305,0.17995156465861867 0.5871743486973946,0.17997085323921364 0.5911823647294587,0.17857795330186527 0.5951903807615229,0.1779348223806987 0.599198396793587,0.1782887249540382 0.6032064128256511,0.17920500351139534 0.6072144288577153,0.17871409448338632 0.6112224448897794,0.17875326610762388 0.6152304609218435,0.17887059922065868 0.6192384769539077,0.17999088575408567 0.6232464929859718,0.18007626070627913 0.6272545090180359,0.18093630270517236 0.6312625250501,0.1805815270472118 0.6352705410821642,0.1808368411194754 0.6392785571142283,0.18100001580094766 0.6432865731462925,0.1809405499290836 0.6472945891783566,0.18052482761153732 0.6513026052104207,0.1759611432221927 0.6553106212424848,0.17871121332634687 0.659318637274549,0.18135346831645666 0.6633266533066131,0.18085706914653743 0.6673346693386772,0.17706989101076176 0.6713426853707414,0.17983975461609547 0.6753507014028055,0.18104487582654216 0.6793587174348696,0.18183006597755036 0.6833667334669338,0.18182942981274242 0.6873747494989979,0.18136615640993986 0.691382765531062,0.18162701455521008 0.6953907815631262,0.18137805701316323 0.6993987975951903,0.18178981861833743 0.7034068136272544,0.1811238038821243 0.7074148296593186,0.18163875079013908 0.7114228456913827,0.18136339037188315 0.7154308617234468,0.18114812671610825 0.719438877755511,0.18049292520882715 0.7234468937875751,0.17924183160348567 0.7274549098196392,0.17961896032905766 0.7314629258517034,0.17883068063924695 0.7354709418837675,0.1798499819668966 0.7394789579158316,0.1769786270894173 0.7434869739478958,0.17568054616254253 0.7474949899799597,0.17646224874423844 0.7515030060120238,0.17641775598824477 0.7555110220440879,0.1754964394027878 0.7595190380761521,0.17459240192386638 0.7635270541082162,0.1758098685905511 0.7675350701402803,0.17538355759063978 0.7715430861723445,0.17534217608735359 0.7755511022044086,0.17524324094258187 0.7795591182364727,0.1716638464990033 0.7835671342685369,0.1717750018674915 0.787575150300601,0.17250768768178026 0.7915831663326651,0.1748371029210899 0.7955911823647293,0.17585499457716502 0.7995991983967934,0.17515985834774045 0.8036072144288575,0.1716711632970656 0.8076152304609217,0.17078150564514205 0.8116232464929858,0.1685909156654316 0.8156312625250499,0.17165134950118 0.819639278557114,0.17644332112688227 0.8236472945891782,0.17893390730394265 0.8276553106212423,0.17716047894825454 0.8316633266533064,0.17681828647283765 0.8356713426853706,0.17300736608369 0.8396793587174347,0.1749890339430062 0.8436873747494988,0.1757826705081128 0.847695390781563,0.1747532902444912 0.8517034068136271,0.17053457308742104 0.8557114228456912,0.17094439891441432 0.8597194388777554,0.16673963883031717 0.8637274549098195,0.1670718314200701 0.8677354709418836,0.16794708114719747 0.8717434869739478,0.16527014855398636 0.8757515030060119,0.16196272049862231 0.879759519038076,0.16194817840600667 0.8837675350701402,0.1628392334126979 0.8877755511022043,0.15915259472777493 0.8917835671342684,0.15993220524057522 0.8957915831663326,0.16567444026481293 0.8997995991983967,0.1640251005437635 0.9038076152304608,0.15766900933685235 0.907815631262525,0.16487767830910122 0.9118236472945891,0.16273349286009758 0.9158316633266532,0.16568531160889266 0.9198396793587174,0.1625136726270044 0.9238476953907815,0.1574761320612949 0.9278557114228456,0.16101109144981557 0.9318637274549098,0.15549212880908259 0.9358717434869739,0.1579197537253369 0.939879759519038,0.15700550924603562 0.9438877755511021,0.14956756610362776 0.9478957915831663,0.14630497790927338 0.9519038076152302,0.15063087292146593 0.9559118236472943,0.1513988384822914 0.9599198396793585,0.15122298219766667 0.9639278557114226,0.16152280224615212 0.9679358717434867,0.17301522526735735 0.9719438877755509,0.1684421541522031 0.975951903807615,0.1694582790946912 0.9799599198396791,0.16805173755376512 0.9839679358717432,0.17664157903201022 0.9879759519038074,0.17498372296316278 0.9919839679358715,0.16870386396535653 0.9959919839679356,0.16157942694591365 0.9999999999999998,0.15956816069738144" /></g><g stroke-width="5.0e-3" stroke="#02C814" fill="none" stroke-opacity="0.5"><polyline points="-1.0,0.16965770693306897 -0.9959919839679359,0.1701645123204215 -0.9919839679358717,0.17246612687729934 -0.9879759519038076,0.17368360561126 -0.9839679358717435,0.17365479115955706 -0.9799599198396793,0.1728157620954473 -0.9759519038076152,0.1718073071456402 -0.9719438877755511,0.17186804836936737 -0.9679358717434869,0.17328105849595415 -0.9639278557114228,0.1735254859435295 -0.9599198396793587,0.17249968321330567 -0.9559118236472945,0.1708295024463704 -0.9519038076152304,0.16786551151432172 -0.9478957915831663,0.1688026716569947 -0.9438877755511023,0.17042778613855347 -0.9398797595190381,0.17069734004391734 -0.935871743486974,0.17054515205498583 -0.9318637274549099,0.17100711853800105 -0.9278557114228457,0.17169931312763198 -0.9238476953907816,0.17163399088903014 -0.9198396793587175,0.171167567830585 -0.9158316633266533,0.17052235251664383 -0.9118236472945892,0.1703600855383009 -0.9078156312625251,0.1704770131342908 -0.9038076152304609,0.16793088436579362 -0.8997995991983968,0.16809583493112207 -0.8957915831663327,0.16763087057633536 -0.8917835671342685,0.1603008967179762 -0.8877755511022044,0.15235034830501104 -0.8837675350701403,0.1609676030268215 -0.8797595190380761,0.15547978664888606 -0.875751503006012,0.1543395222767328 -0.8717434869739479,0.158531665207218 -0.8677354709418837,0.15085685685057765 -0.8637274549098196,0.1550789697240305 -0.8597194388777555,0.15829470864399303 -0.8557114228456915,0.15989613125163382 -0.8517034068136273,0.15339580155945376 -0.8476953907815632,0.15433451879948018 -0.8436873747494991,0.1587199457330336 -0.8396793587174349,0.15720631856220862 -0.8356713426853708,0.15910075037369353 -0.8316633266533067,0.15830473763424308 -0.8276553106212425,0.16001000720387315 -0.8236472945891784,0.1618696038025465 -0.8196392785571143,0.16192046127985493 -0.8156312625250501,0.16077387493587392 -0.811623246492986,0.1588336863708727 -0.8076152304609219,0.15874175843252103 -0.8036072144288577,0.1551309565304626 -0.7995991983967936,0.15553241540549745 -0.7955911823647295,0.15804745899302836 -0.7915831663326653,0.15820217095769434 -0.7875751503006012,0.1560341594584982 -0.7835671342685371,0.15658844112833342 -0.779559118236473,0.15450865777301148 -0.7755511022044088,0.1537405840887452 -0.7715430861723447,0.1570409281323974 -0.7675350701402806,0.15775293066339213 -0.7635270541082164,0.1575888319690364 -0.7595190380761523,0.15951940335325743 -0.7555110220440882,0.16103364268669978 -0.751503006012024,0.16121662709573248 -0.7474949899799599,0.1612708744505964 -0.7434869739478958,0.16001553759396192 -0.7394789579158316,0.1606245707398527 -0.7354709418837675,0.16039350999729762 -0.7314629258517034,0.15983107020673037 -0.7274549098196392,0.16096926669025935 -0.7234468937875751,0.1603670265589242 -0.719438877755511,0.16081242510548183 -0.7154308617234469,0.16039298113779626 -0.7114228456913828,0.15988820129531683 -0.7074148296593187,0.1573452358003843 -0.7034068136272545,0.15974521748488724 -0.6993987975951904,0.15830900964518085 -0.6953907815631263,0.16015648390663367 -0.6913827655310621,0.16075689074865446 -0.687374749498998,0.16078292049278287 -0.6833667334669339,0.16176731373142944 -0.6793587174348698,0.16162130725669177 -0.6753507014028056,0.16190213891446487 -0.6713426853707415,0.16195466010190374 -0.6673346693386774,0.16207259635849114 -0.6633266533066133,0.16155966338164873 -0.6593186372745492,0.16177509261497408 -0.6553106212424851,0.16159520293837898 -0.6513026052104209,0.1612638542178595 -0.6472945891783568,0.16062491111374688 -0.6432865731462927,0.16079511015850484 -0.6392785571142285,0.15969557334487477 -0.6352705410821644,0.15992220551127834 -0.6312625250501003,0.15706981371258028 -0.6272545090180361,0.15745223277263926 -0.623246492985972,0.15531944427723615 -0.6192384769539079,0.15667996888818386 -0.6152304609218437,0.1567532663435242 -0.6112224448897796,0.15732550980485244 -0.6072144288577155,0.15610573153787927 -0.6032064128256514,0.15785668244669848 -0.5991983967935872,0.15928199299559803 -0.5951903807615231,0.16046143535221064 -0.591182364729459,0.1608168560889407 -0.5871743486973948,0.15976767270307723 -0.5831663326653307,0.1607987442460369 -0.5791583166332666,0.16085833372061098 -0.5751503006012024,0.16067724348429607 -0.5711422845691383,0.16104639767711965 -0.5671342685370742,0.16120372014847528 -0.56312625250501,0.1607140003806118 -0.5591182364729459,0.160536619108457 -0.5551102204408818,0.1606896115172028 -0.5511022044088176,0.16112760373878 -0.5470941883767535,0.1617445321391604 -0.5430861723446894,0.16148844573955984 -0.5390781563126252,0.1608014747548554 -0.5350701402805611,0.16001983106911138 -0.531062124248497,0.1605459248549399 -0.5270541082164328,0.1603584733962618 -0.5230460921843687,0.16083348117657115 -0.5190380761523046,0.1612003219112117 -0.5150300601202404,0.16142279944914478 -0.5110220440881764,0.16156635688415372 -0.5070140280561123,0.1615120762604662 -0.5030060120240482,0.1613685173027523 -0.498997995991984,0.16062819129019362 -0.4949899799599199,0.16007978528183997 -0.49098196392785576,0.1607240608258254 -0.4869739478957916,0.15970838783682467 -0.4829659318637275,0.16055837100539622 -0.47895791583166336,0.1608224973006221 -0.47494989979959923,0.16098216989684655 -0.4709418837675351,0.16109954528796627 -0.46693386773547096,0.16102257898295447 -0.46292585170340683,0.16082523787400532 -0.4589178356713427,0.16123965042916427 -0.45490981963927857,0.1615486210750669 -0.45090180360721444,0.16153671231110628 -0.4468937875751503,0.16163484303942122 -0.44288577154308617,0.16149638533802746 -0.43887775551102204,0.16147896017853375 -0.434869739478958,0.16137942255742382 -0.4308617234468939,0.16118285527255005 -0.42685370741482975,0.16086167197925344 -0.4228456913827656,0.16060960209437863 -0.4188376753507015,0.16073102036101444 -0.41482965931863736,0.16098113632381572 -0.4108216432865732,0.16096464320762127 -0.4068136272545091,0.161247894492618 -0.40280561122244496,0.1612305173872685 -0.3987975951903808,0.16077561477616537 -0.3947895791583167,0.1611022022964066 -0.39078156312625256,0.16114103304663768 -0.38677354709418843,0.16139182761212173 -0.3827655310621243,0.1613653880614404 -0.37875751503006017,0.16119460956277082 -0.37474949899799603,0.1610922716126017 -0.3707414829659319,0.16082461395066683 -0.36673346693386777,0.1609732054475606 -0.36272545090180364,0.16093382053511324 -0.3587174348697395,0.16110967355401518 -0.35470941883767537,0.16105412338206326 -0.35070140280561124,0.161060925622301 -0.3466933867735471,0.1603155242477189 -0.342685370741483,0.15959839507598073 -0.33867735470941884,0.15947778994880835 -0.3346693386773547,0.1592094004624029 -0.3306613226452907,0.15164767286980912 -0.32665330661322656,0.14504427282958182 -0.3226452905811624,0.14961541111616106 -0.3186372745490983,0.14770503550140524 -0.31462925851703416,0.15341782000388315 -0.31062124248497003,0.153270913734516 -0.3066132264529059,0.14949439309249274 -0.30260521042084176,0.14929701841436838 -0.29859719438877763,0.1479374542353865 -0.2945891783567135,0.14611198648471263 -0.29058116232464937,0.13502786191111898 -0.28657314629258523,0.14236276928776792 -0.2825651302605211,0.13600969835922466 -0.27855711422845697,0.1332726116642407 -0.27454909819639284,0.13960208847986444 -0.2705410821643287,0.14331287742794835 -0.2665330661322646,0.146467090307976 -0.26252505010020044,0.14453763829452332 -0.2585170340681363,0.1461277363797247 -0.2545090180360722,0.14777847785264042 -0.25050100200400804,0.1524395388930858 -0.2464929859719439,0.15189255884056002 -0.24248496993987978,0.14987924085595145 -0.23847695390781565,0.14476913610718978 -0.23446893787575152,0.14426338176095788 -0.2304609218436875,0.14187874128511097 -0.22645290581162336,0.14506114730442177 -0.22244488977955923,0.1456143431848062 -0.2184368737474951,0.1406039641945318 -0.21442885771543096,0.13430145090185674 -0.21042084168336683,0.13542164987530364 -0.2064128256513027,0.13289295081749425 -0.20240480961923857,0.13874907140224502 -0.19839679358717444,0.13978982169408466 -0.1943887775551103,0.14650448273036354 -0.19038076152304617,0.145895868106575 -0.18637274549098204,0.1478015155663716 -0.1823647294589179,0.1500253509444614 -0.17835671342685377,0.14252181326357793 -0.17434869739478964,0.14203873982243975 -0.1703406813627255,0.13494416735834602 -0.16633266533066138,0.1355225564554846 -0.16232464929859725,0.13536903719950305 -0.1583166332665331,0.13716965913146856 -0.15430861723446898,0.13706733131754978 -0.15030060120240485,0.13061269056069358 -0.14629258517034072,0.12273610072498842 -0.14228456913827658,0.12279855177285698 -0.13827655310621245,0.11628732341659825 -0.13426853707414832,0.1091264395628821 -0.1302605210420842,9.927904121522979e-2 -0.12625250501002017,8.577797172002688e-2 -0.12224448897795603,0.11637180419847354 -0.1182364729458919,0.12006004762690659 -0.11422845691382777,0.11962487960856533 -0.11022044088176364,0.12308623569232485 -0.1062124248496995,0.12361129781214053 -0.10220440881763537,0.11454632012115029 -9.819639278557124e-2,0.12876428284596325 -9.418837675350711e-2,0.13105188409537671 -9.018036072144298e-2,0.1340105242061046 -8.617234468937884e-2,0.1351721667465549 -8.216432865731471e-2,0.13640258071822936 -7.815631262525058e-2,0.13635495000289644 -7.414829659318645e-2,0.13493326316774268 -7.014028056112231e-2,0.13782757443454519 -6.613226452905818e-2,0.13836954596524104 -6.212424849699405e-2,0.140180885526825 -5.811623246492992e-2,0.14301844707373274 -5.4108216432865786e-2,0.14004596765172916 -5.010020040080165e-2,0.1405243373189488 -4.609218436873752e-2,0.14080792445193602 -4.208416833667339e-2,0.14259187267093182 -3.8076152304609256e-2,0.14094274222935865 -3.4068136272545124e-2,0.1406002777709151 -3.0060120240480992e-2,0.14380306901583328 -2.605210420841686e-2,0.14528474685509646 -2.204408817635284e-2,0.14539891833140517 -1.8036072144288706e-2,0.14642148368653268 -1.4028056112224574e-2,0.1470575076990458 -1.0020040080160442e-2,0.1467146275383202 -6.012024048096309e-3,0.1452634648713529 -2.004008016032177e-3,0.1453416524127929 2.004008016031955e-3,0.14542427885473758 6.012024048096087e-3,0.147300457108129 1.002004008016022e-2,0.14765395762816874 1.4028056112224352e-2,0.14728297069981905 1.8036072144288484e-2,0.14854798345087306 2.2044088176352616e-2,0.14867272146005178 2.605210420841675e-2,0.1488211747169061 3.006012024048088e-2,0.14842551556138134 3.406813627254501e-2,0.1490433365518784 3.8076152304609145e-2,0.14912743217943603 4.208416833667328e-2,0.1490247173754693 4.609218436873741e-2,0.14894311299060226 5.010020040080154e-2,0.1486313195108891 5.4108216432865675e-2,0.1492617021883943 5.811623246492981e-2,0.14887461553547526 6.212424849699394e-2,0.14873183095329762 6.613226452905807e-2,0.1479906778475405 7.01402805611222e-2,0.14692744036677352 7.414829659318634e-2,0.1465947402120033 7.815631262525047e-2,0.14842459274118236 8.21643286573146e-2,0.14870118987958253 8.617234468937873e-2,0.14931641093093845 9.018036072144286e-2,0.1492141891449324 9.4188376753507e-2,0.14959286399403765 9.819639278557113e-2,0.14983211991991668 0.10220440881763526,0.1497991186682941 0.1062124248496994,0.14956126199772335 0.11022044088176353,0.15022718513023442 0.11422845691382766,0.14881939445660053 0.11823647294589179,0.14870690000161818 0.12224448897795592,0.14933757070831305 0.12625250501002006,0.14889757260883008 0.13026052104208397,0.14919612223662837 0.1342685370741481,0.14970205677484327 0.13827655310621223,0.15033861218924138 0.14228456913827636,0.15032245438288644 0.1462925851703405,0.15039462158401168 0.15030060120240463,0.15045657951401958 0.15430861723446876,0.15058079704577954 0.1583166332665329,0.15059521755525906 0.16232464929859702,0.1503970233537794 0.16633266533066116,0.15050477256028355 0.1703406813627253,0.1504929437522164 0.17434869739478942,0.15064266332058218 0.17835671342685355,0.15062402987294704 0.18236472945891768,0.15062545650770431 0.18637274549098182,0.1505655588664438 0.19038076152304595,0.1505935507015106 0.19438877755511008,0.15060637278775746 0.1983967935871742,0.1506932803558878 0.20240480961923835,0.15068628094179953 0.20641282565130248,0.15068031912736884 0.2104208416833666,0.15069245522724323 0.21442885771543074,0.1506902918459847 0.21843687374749488,0.15068787714744858 0.222444889779559,0.1506492972016657 0.22645290581162314,0.15060051470310643 0.23046092184368727,0.15069608400984796 0.2344689378757514,0.1506739970860358 0.23847695390781554,0.15010512041122276 0.24248496993987967,0.14998859965017264 0.2464929859719438,0.14976526979084498 0.25050100200400793,0.14998794422391776 0.25450901803607207,0.14774395380366828 0.2585170340681362,0.1486320098153519 0.26252505010020033,0.149167912976716 0.26653306613226446,0.14983731069852174 0.2705410821643286,0.14937775628074246 0.2745490981963927,0.1487315506718282 0.27855711422845686,0.14947301710044886 0.282565130260521,0.14921058450539776 0.2865731462925851,0.14795865605726077 0.29058116232464926,0.14808639088255082 0.2945891783567134,0.1469939873761551 0.2985971943887775,0.14594594628846141 0.30260521042084165,0.1462388582377288 0.3066132264529058,0.1440110533039543 0.3106212424849699,0.14345840370240048 0.31462925851703405,0.14704016821549343 0.3186372745490982,0.14803309466623754 0.3226452905811623,0.14865927981359794 0.32665330661322645,0.14953310796452057 0.3306613226452906,0.14981944714417456 0.3346693386773545,0.1497765305256924 0.3386773547094186,0.14962092869745836 0.34268537074148275,0.1498600199525691 0.3466933867735469,0.1497400775146368 0.350701402805611,0.14977698659938782 0.35470941883767515,0.15024423733761394 0.3587174348697393,0.15033201434143706 0.3627254509018034,0.15049884418750198 0.36673346693386755,0.15048462776719318 0.3707414829659317,0.15045539705756472 0.3747494989979958,0.15016226547269207 0.37875751503005994,0.1500895682009762 0.3827655310621241,0.1502371105596471 0.3867735470941882,0.15040289742249513 0.39078156312625234,0.15050350153353764 0.3947895791583165,0.15050501867279126 0.3987975951903806,0.15041581176887736 0.40280561122244474,0.1504598460663107 0.40681362725450887,0.15050742933204192 0.410821643286573,0.1505053608171701 0.41482965931863713,0.15046815670423097 0.41883767535070127,0.15043672781428097 0.4228456913827654,0.1503315217009495 0.42685370741482953,0.15034121439180226 0.43086172344689366,0.15043886011950813 0.4348697394789578,0.1505078533411905 0.4388777555110219,0.15049488844920422 0.44288577154308606,0.1504908980606534 0.4468937875751502,0.1505071098019461 0.4509018036072143,0.15047191152330286 0.45490981963927846,0.1503856569555002 0.4589178356713426,0.15049214043214204 0.4629258517034067,0.15035576237719012 0.46693386773547085,0.1504120850565852 0.470941883767535,0.1504714371667933 0.4749498997995991,0.15045838229223218 0.47895791583166325,0.1501672024615469 0.4829659318637274,0.14974472071094957 0.4869739478957915,0.14660675766155762 0.49098196392785565,0.14826423084636686 0.4949899799599198,0.14831822996536564 0.4989979959919839,0.14987561093167467 0.503006012024048,0.14940747296780166 0.5070140280561122,0.14823673032707785 0.5110220440881763,0.14958190754558381 0.5150300601202404,0.14648879318088154 0.5190380761523046,0.14680553409106167 0.5230460921843687,0.14850909303183313 0.5270541082164328,0.14951887642417494 0.531062124248497,0.14886268888191867 0.5350701402805611,0.14950294872367426 0.539078156312625,0.1494441329799736 0.5430861723446891,0.14676524287652204 0.5470941883767533,0.14808739313379138 0.5511022044088174,0.147700079289117 0.5551102204408815,0.1483886346192177 0.5591182364729457,0.14945397848528297 0.5631262525050098,0.14947661358551317 0.5671342685370739,0.14891790445217867 0.5711422845691381,0.14969586552176628 0.5751503006012022,0.15026077555337403 0.5791583166332663,0.1502755541357204 0.5831663326653305,0.15026219472817315 0.5871743486973946,0.1502604693310451 0.5911823647294587,0.1503987161365965 0.5951903807615229,0.15041970680439676 0.599198396793587,0.1504119197438834 0.6032064128256511,0.15036680690843668 0.6072144288577153,0.15039844102457078 0.6112224448897794,0.15039764357044955 0.6152304609218435,0.15039281256096448 0.6192384769539077,0.1502887043624231 0.6232464929859718,0.15027560075253538 0.6272545090180359,0.1499329813552422 0.6312625250501,0.15018235080950026 0.6352705410821642,0.1500733525953855 0.6392785571142283,0.14979056596009516 0.6432865731462925,0.15003170661902082 0.6472945891783566,0.14926292778981826 0.6513026052104207,0.1474576416360221 0.6553106212424848,0.14833791614268627 0.659318637274549,0.14953060411314212 0.6633266533066131,0.14918195277837792 0.6673346693386772,0.14763272712981762 0.6713426853707414,0.14858747336020706 0.6753507014028055,0.1491284707080761 0.6793587174348696,0.1498366010406189 0.6833667334669338,0.1497421427575482 0.6873747494989979,0.15017396697203533 0.691382765531062,0.1500900244438514 0.6953907815631262,0.15017520108931115 0.6993987975951903,0.15001320127992285 0.7034068136272544,0.1502414523915807 0.7074148296593186,0.15011679510637765 0.7114228456913827,0.15020011100735897 0.7154308617234468,0.1502439171821794 0.719438877755511,0.1503233578237626 0.7234468937875751,0.15037506243370152 0.7274549098196392,0.15036912819669573 0.7314629258517034,0.15037688204182853 0.7354709418837675,0.15036500636973316 0.7394789579158316,0.15032855162137793 0.7434869739478958,0.1502619099066958 0.7474949899799597,0.1502992456906831 0.7515030060120238,0.15029402949113624 0.7555110220440879,0.1502391713845606 0.7595190380761521,0.15017637092544311 0.7635270541082162,0.15024844412253002 0.7675350701402803,0.1502178793684702 0.7715430861723445,0.1502106005917191 0.7755511022044086,0.15019933765726873 0.7795591182364727,0.14990817618968755 0.7835671342685369,0.14990787070536038 0.787575150300601,0.1499612746261657 0.7915831663326651,0.15013873061490274 0.7955911823647293,0.15020637915350593 0.7995991983967934,0.15015134974639255 0.8036072144288575,0.14984220130104775 0.8076152304609217,0.14974692543203827 0.8116232464929858,0.149514090178253 0.8156312625250499,0.14979941769839916 0.819639278557114,0.15019762791499042 0.8236472945891782,0.15034127784103535 0.8276553106212423,0.15023521256159839 0.8316633266533064,0.15020631711612198 0.8356713426853706,0.14985055469413094 0.8396793587174347,0.15002878147823173 0.8436873747494988,0.15009372348295197 0.847695390781563,0.1499918842811253 0.8517034068136271,0.1495362988080493 0.8557114228456912,0.14956687945057906 0.8597194388777554,0.1490651023622686 0.8637274549098195,0.14908339213578242 0.8677354709418836,0.14916567744359782 0.8717434869739478,0.1488232082304824 0.8757515030060119,0.14838812525546147 0.879759519038076,0.14835740308406337 0.8837675350701402,0.14843957415673809 0.8877755511022043,0.14793644475542883 0.8917835671342684,0.14800220028864652 0.8957915831663326,0.14868999151660017 0.8997995991983967,0.14845139235105648 0.9038076152304608,0.14756250781452557 0.907815631262525,0.14845807284627016 0.9118236472945891,0.14814056738470494 0.9158316633266532,0.1485061687174276 0.9198396793587174,0.1480403006222547 0.9238476953907815,0.14729802202704234 0.9278557114228456,0.147743568160763 0.9318637274549098,0.14691501438401938 0.9358717434869739,0.14721155340504344 0.939879759519038,0.1470414107315563 0.9438877755511021,0.14590086618740766 0.9478957915831663,0.1453723217941148 0.9519038076152302,0.14592696239679198 0.9559118236472943,0.1459856712470426 0.9599198396793585,0.1459077832797699 0.9639278557114226,0.14734743255201738 0.9679358717434867,0.14909355094516347 0.9719438877755509,0.14823457486959946 0.975951903807615,0.1483859354632731 0.9799599198396791,0.14811808706171115 0.9839679358717432,0.14963160117392138 0.9879759519038074,0.14922144603661303 0.9919839679358715,0.14791682175214454 0.9959919839679356,0.14657168449267355 0.9999999999999998,0.14617630057339137" /></g><g /><g stroke-width="4.0e-3" stroke="#3764A0" fill="#FFFFFF" fill-opacity="1.0" stroke-opacity="0.5"><rect width="0.42152869952511957" height="0.25817398204276576" x="0.3543888690554248" y="8.456460076186187e-2" /></g><g stroke-width="0.0" stroke="none" fill="#666666" fill-opacity="1.0" font-size="4.000000000000001e-2" text-anchor="start"><text x="0.3776456248912935" y="0.30338864502115775">rate = 0.996</text></g><g stroke-width="5.0e-3" stroke="#02C814" fill="none" stroke-opacity="0.5"><polyline points="0.7032402065934548,0.2970542647925992 0.7497537182651921,0.2970542647925992" /></g><g stroke-width="0.0" stroke="none" fill="#666666" fill-opacity="1.0" font-size="4.000000000000001e-2" text-anchor="start"><text x="0.3776456248912935" y="0.24868263395633378">rate = 0.99</text></g><g stroke-width="5.0e-3" stroke="#382A8C" fill="none" stroke-opacity="0.5"><polyline points="0.7032402065934548,0.24234825372777521 0.7497537182651921,0.24234825372777521" /></g><g stroke-width="0.0" stroke="none" fill="#666666" fill-opacity="1.0" font-size="4.000000000000001e-2" text-anchor="start"><text x="0.3776456248912935" y="0.1939766228915098">rate = 0.95</text></g><g stroke-width="5.0e-3" stroke="#3C7F2B" fill="none" stroke-opacity="0.5"><polyline points="0.7032402065934548,0.1876422426629512 0.7497537182651921,0.1876422426629512" /></g><g stroke-width="0.0" stroke="none" fill="#666666" fill-opacity="1.0" font-size="4.000000000000001e-2" text-anchor="start"><text x="0.3776456248912935" y="0.13927061182668582">zero</text></g><g stroke-width="5.0e-3" stroke="#C58C4B" fill="none" stroke-opacity="0.5"><polyline points="0.7032402065934547,0.13293623159812726 0.749753718265192,0.13293623159812726" /></g><g /></svg>