<?xml version="1.0" encoding="UTF-8"?>
<!DOCTYPE svg PUBLIC "-//W3C//DTD SVG 1.1//EN"
    "http://www.w3.org/Graphics/SVG/1.1/DTD/svg11.dtd">
<svg xmlns="http://www.w3.org/2000/svg" height="400.0000" stroke-opacity="1" viewBox="0 0 600 400" font-size="1" width="600.0000" xmlns:xlink="http://www.w3.org/1999/xlink" stroke="rgb(0,0,0)" version="1.1">
  <defs>
  </defs>
  <g stroke-linejoin="miter" stroke-opacity="1.0" fill-opacity="0.0" stroke="rgb(44,160,44)" stroke-width="1.3222982061355344" fill="rgb(0,0,0)" stroke-linecap="butt" stroke-miterlimit="10.0">
    <path d="M 112.1092,194.8477 l 0.6318,0.0360 l 0.6318,0.1799 l 0.6318,-0.0976 l 0.6318,0.0981 l 0.6318,0.0026 l 0.6318,-0.1370 l 0.6318,-0.0750 l 0.6318,-0.0192 l 0.6318,-0.6536 l 0.6318,0.0911 l 0.6318,0.2368 l 0.6318,-0.0222 l 0.6318,-0.1464 l 0.6318,0.1992 l 0.6318,-0.6298 l 0.6318,0.0864 l 0.6318,0.4712 l 0.6318,0.3205 l 0.6318,0.0966 l 0.6318,-0.0258 l 0.6318,0.1545 l 0.6318,0.0113 l 0.6318,0.0055 l 0.6318,-0.0844 l 0.6318,-0.0587 l 0.6318,-0.1470 l 0.6318,-0.3361 l 0.6318,-0.2264 l 0.6318,0.4320 l 0.6318,0.1935 l 0.6318,-0.0091 l 0.6318,-0.0691 l 0.6318,-0.0883 l 0.6318,-0.0796 l 0.6318,0.0844 l 0.6318,-0.2599 l 0.6318,-0.1177 l 0.6318,0.4230 l 0.6318,-0.3102 l 0.6318,0.0219 l 0.6318,-0.0574 l 0.6318,0.1262 l 0.6318,0.1554 l 0.6318,-0.0917 l 0.6318,-0.2990 l 0.6318,-0.9458 l 0.6318,-1.8687 l 0.6318,-2.8396 l 0.6318,-1.2393 l 0.6318,3.7927 l 0.6318,1.6005 l 0.6318,0.0257 l 0.6318,-0.4700 l 0.6318,-1.7936 l 0.6318,1.2967 l 0.6318,0.0685 l 0.6318,-0.9596 l 0.6318,1.6343 l 0.6318,-0.7726 l 0.6318,0.3146 l 0.6318,0.2532 l 0.6318,-0.2329 l 0.6318,0.7089 l 0.6318,0.4187 l 0.6318,-0.1242 l 0.6318,-0.8010 l 0.6318,0.2451 l 0.6318,-0.6720 l 0.6318,-0.1236 l 0.6318,-0.2053 l 0.6318,-0.0298 l 0.6318,-1.6173 l 0.6318,0.0981 l 0.6318,1.3694 l 0.6318,0.1230 l 0.6318,0.8467 l 0.6318,0.9097 l 0.6318,-0.1617 l 0.6318,0.3438 l 0.6318,0.3374 l 0.6318,0.0196 l 0.6318,0.0388 l 0.6318,-0.2548 l 0.6318,-0.1927 l 0.6318,0.5627 l 0.6318,0.1410 l 0.6318,0.0018 l 0.6318,-0.0508 l 0.6318,-0.1980 l 0.6318,0.5132 l 0.6318,0.2515 l 0.6318,-0.0451 l 0.6318,-0.0617 l 0.6318,0.2309 l 0.6318,-0.0127 l 0.6318,-0.0920 l 0.6318,0.1946 l 0.6318,0.0303 l 0.6318,-0.0502 l 0.6318,-0.0211 l 0.6318,-0.0101 l 0.6318,-0.1781 l 0.6318,0.0250 l 0.6318,-0.0731 l 0.6318,-0.3562 l 0.6318,-0.3627 l 0.6318,0.4750 l 0.6318,-0.0433 l 0.6318,0.3893 l 0.6318,-0.0277 l 0.6318,0.0680 l 0.6318,-0.0283 l 0.6318,0.0175 l 0.6318,-0.0078 l 0.6318,0.0056 l 0.6318,-0.0972 l 0.6318,0.1952 l 0.6318,-0.2045 l 0.6318,-0.3627 l 0.6318,0.4996 l 0.6318,-0.1435 l 0.6318,-0.1581 l 0.6318,-0.2170 l 0.6318,0.0601 l 0.6318,-0.6357 l 0.6318,0.1746 l 0.6318,0.3555 l 0.6318,0.3896 l 0.6318,-0.3942 l 0.6318,-0.6070 l 0.6318,0.2911 l 0.6318,0.2913 l 0.6318,0.3436 l 0.6318,-0.0449 l 0.6318,-0.0616 l 0.6318,0.2509 l 0.6318,-0.1678 l 0.6318,-0.2575 l 0.6318,-0.5050 l 0.6318,0.0703 l 0.6318,-0.5132 l 0.6318,-1.0954 l 0.6318,-0.5987 l 0.6318,0.0546 l 0.6318,0.4570 l 0.6318,-1.4054 l 0.6318,1.0797 l 0.6318,-1.2494 l 0.6318,0.0453 l 0.6318,-0.7656 l 0.6318,0.3833 l 0.6318,1.3626 l 0.6318,-0.9094 l 0.6318,0.9038 l 0.6318,-0.6238 l 0.6318,0.3496 l 0.6318,1.3912 l 0.6318,-0.0196 l 0.6318,-0.9047 l 0.6318,0.2755 l 0.6318,0.0835 l 0.6318,-0.9721 l 0.6318,-0.8398 l 0.6318,-0.0302 l 0.6318,0.0010 l 0.6318,-0.7954 l 0.6318,1.3754 l 0.6318,0.9866 l 0.6318,0.8365 l 0.6318,-0.2085 l 0.6318,0.0016 l 0.6318,0.6461 l 0.6318,-0.5131 l 0.6318,0.2000 l 0.6318,0.4706 l 0.6318,-0.0713 l 0.6318,-0.3217 l 0.6318,0.9115 l 0.6318,0.1207 l 0.6318,0.0964 l 0.6318,0.0857 l 0.6318,0.0200 l 0.6318,-0.3097 l 0.6318,0.1478 l 0.6318,0.0020 l 0.6318,0.4099 l 0.6318,-0.0293 l 0.6318,-0.0426 l 0.6318,0.1149 l 0.6318,0.1177 l 0.6318,0.0663 l 0.6318,0.0113 l 0.6318,-0.0156 l 0.6318,-0.1050 l 0.6318,-0.0098 l 0.6318,0.0067 l 0.6318,0.1395 l 0.6318,0.0535 l 0.6318,-0.0276 l 0.6318,0.0710 l 0.6318,-0.0365 l 0.6318,-0.1409 l 0.6318,0.1487 l 0.6318,-0.1694 l 0.6318,0.0438 l 0.6318,-0.0485 l 0.6318,0.1472 l 0.6318,0.1065 l 0.6318,-0.0006 l 0.6318,-0.0103 l 0.6318,0.0468 l 0.6318,0.0143 l 0.6318,0.0020 l 0.6318,-0.0285 l 0.6318,-0.0014 l 0.6318,-0.0151 l 0.6318,0.0122 l 0.6318,0.0094 l 0.6318,-0.0794 l 0.6318,-0.0645 l 0.6318,0.0922 l 0.6318,-0.1048 l 0.6318,-0.0958 l 0.6318,-0.0072 l 0.6318,0.0510 l 0.6318,0.0091 l 0.6318,0.1618 l 0.6318,-0.1136 l 0.6318,-0.0053 l 0.6318,-0.1426 l 0.6318,0.1634 l 0.6318,-0.1544 l 0.6318,0.0009 l 0.6318,-0.0761 l 0.6318,0.1152 l 0.6318,-0.0412 l 0.6318,0.2168 l 0.6318,0.0708 l 0.6318,-0.0039 l 0.6318,0.0316 l 0.6318,-0.0087 l 0.6318,0.0063 l 0.6318,0.0160 l 0.6318,-0.0195 l 0.6318,0.0282 l 0.6318,0.0045 l 0.6318,0.0105 l 0.6318,-0.0059 l 0.6318,-0.0541 l 0.6318,-0.0877 l 0.6318,-0.0271 l 0.6318,-0.0297 l 0.6318,0.0429 l 0.6318,-0.0499 l 0.6318,0.0799 l 0.6318,0.0297 l 0.6318,-0.0215 l 0.6318,0.1187 l 0.6318,-0.4621 l 0.6318,-0.4904 l 0.6318,0.5104 l 0.6318,0.5051 l 0.6318,0.0125 l 0.6318,-0.0588 l 0.6318,0.0471 l 0.6318,-0.0088 l 0.6318,0.0761 l 0.6318,0.0008 l 0.6318,-0.0135 l 0.6318,0.0007 l 0.6318,-0.0238 l 0.6318,0.0076 l 0.6318,-0.0123 l 0.6318,0.0111 l 0.6318,-0.0257 l 0.6318,0.0271 l 0.6318,-0.0276 l 0.6318,0.0238 l 0.6318,0.0001 l 0.6318,0.0088 l 0.6318,-0.0070 l 0.6318,-0.0080 l 0.6318,0.0101 l 0.6318,0.0284 l 0.6318,-0.0081 l 0.6318,0.0004 l 0.6318,-0.0452 l 0.6318,0.0097 l 0.6318,-0.0003 l 0.6318,0.0211 l 0.6318,-0.0288 l 0.6318,0.0088 l 0.6318,-0.0191 l 0.6318,0.0423 l 0.6318,-0.0088 l 0.6318,-0.0123 l 0.6318,0.0123 l 0.6318,0.0055 l 0.6318,-0.0099 l 0.6318,0.0298 l 0.6318,0.0054 l 0.6318,0.0042 l 0.6318,-0.0135 l 0.6318,0.0086 l 0.6318,0.0064 l 0.6318,0.0005 l 0.6318,-0.0088 l 0.6318,-0.0110 l 0.6318,0.0024 l 0.6318,0.0105 l 0.6318,-0.0716 l 0.6318,0.1044 l 0.6318,-0.0964 l 0.6318,-0.0091 l 0.6318,0.0898 l 0.6318,-0.0282 l 0.6318,-0.0022 l 0.6318,0.0005 l 0.6318,0.0614 l 0.6318,0.0058 l 0.6318,-0.0029 l 0.6318,-0.0403 l 0.6318,0.0359 l 0.6318,0.0132 l 0.6318,-0.0329 l 0.6318,0.0350 l 0.6318,-0.0107 l 0.6318,-0.0283 l 0.6318,0.0245 l 0.6318,0.0010 l 0.6318,-0.0195 l 0.6318,0.0242 l 0.6318,-0.0935 l 0.6318,0.0104 l 0.6318,-0.0389 l 0.6318,-0.0001 l 0.6318,-0.0441 l 0.6318,0.0782 l 0.6318,0.0210 l 0.6318,-0.0167 l 0.6318,-0.0034 l 0.6318,0.0452 l 0.6318,-0.0384 l 0.6318,-0.0223 l 0.6318,-0.0411 l 0.6318,-0.0488 l 0.6318,-0.0050 l 0.6318,-0.1242 l 0.6318,-0.1460 l 0.6318,-0.1150 l 0.6318,-0.0486 l 0.6318,0.4880 l 0.6318,0.0480 l 0.6318,0.1017 l 0.6318,0.0090 l 0.6318,-0.0086 l 0.6318,-0.0021 l 0.6318,0.0293 l 0.6318,-0.0040 l 0.6318,0.0070 l 0.6318,-0.0022 l 0.6318,-0.0012 l 0.6318,-0.0057 l 0.6318,-0.0019 l 0.6318,-0.0179 l 0.6318,0.0263 l 0.6318,-0.0031 l 0.6318,0.0077 l 0.6318,0.0020 l 0.6318,0.0001 l 0.6318,-0.0043 l 0.6318,-0.0110 l 0.6318,-0.1033 l 0.6318,-0.0233 l 0.6318,-0.0838 l 0.6318,0.0257 l 0.6318,-0.1086 l 0.6318,0.1513 l 0.6318,-0.0538 l 0.6318,0.0346 l 0.6318,-0.0249 l 0.6318,-0.0556 l 0.6318,0.0505 l 0.6318,0.0360 l 0.6318,-0.0132 l 0.6318,-0.0299 l 0.6318,0.1261 l 0.6318,0.0071 l 0.6318,0.0460 l 0.6318,-0.0780 l 0.6318,-0.0751 l 0.6318,0.0184 l 0.6318,-0.0504 l 0.6318,0.0643 l 0.6318,0.0057 l 0.6318,-0.0369 l 0.6318,0.0390 l 0.6318,-0.0216 l 0.6318,0.0484 l 0.6318,-0.0186 l 0.6318,0.0513 l 0.6318,-0.0364 l 0.6318,0.0381 l 0.6318,-0.0803 l 0.6318,-0.1336 l 0.6318,0.0234 l 0.6318,0.0249 l 0.6318,0.1092 l 0.6318,0.0179 l 0.6318,0.0011 l 0.6318,-0.0025 l 0.6318,-0.1068 l 0.6318,0.0444 l 0.6318,0.0029 l 0.6318,-0.0049 l 0.6318,-0.0971 l 0.6318,-0.0668 l 0.6318,-0.1150 l 0.6318,-0.0957 l 0.6318,-0.1343 l 0.6318,0.0423 l 0.6318,-0.0372 l 0.6318,-0.1834 l 0.6318,0.0559 l 0.6318,0.0028 l 0.6318,-0.0343 l 0.6318,-0.0181 l 0.6318,0.1069 l 0.6318,-0.4761 l 0.6318,0.2616 l 0.6318,0.0006 l 0.6318,0.1389 l 0.6318,0.1155 l 0.6318,0.0871 l 0.6318,-0.0096 l 0.6318,-0.0864 l 0.6318,0.0041 l 0.6318,0.1207 l 0.6318,-0.2475 l 0.6318,0.0737 l 0.6318,0.0598 l 0.6318,0.0785 l 0.6318,0.3378 l 0.6318,-0.0298 l 0.6318,0.0309 l 0.6318,0.0249 l 0.6318,0.0267 l 0.6318,-0.1360 l 0.6318,-0.0148 l 0.6318,-0.0603 l 0.6318,0.0668 l 0.6318,0.0474 l 0.6318,-0.0026 l 0.6318,0.0721 l 0.6318,-0.0292 l 0.6318,0.0249 l 0.6318,-0.0050 l 0.6318,0.0349 l 0.6318,0.0689 l 0.6318,0.0866 l 0.6318,-0.0936 l 0.6318,0.0465 l 0.6318,0.0248 l 0.6318,-0.0943 l 0.6318,0.0529 l 0.6318,-0.1781 l 0.6318,-0.1340 l 0.6318,0.0249 l 0.6318,-0.0023 l 0.6318,0.0594 l 0.6318,-0.0310 l 0.6318,-0.0184 l 0.6318,0.0431 l 0.6318,-0.0031 l 0.6318,-0.0919 l 0.6318,0.0116 l 0.6318,0.0392 l 0.6318,-0.0172 l 0.6318,0.0662 l 0.6318,0.0448 l 0.6318,-0.1023 l 0.6318,0.0293 l 0.6318,0.3358 l 0.6318,-0.0318 l 0.6318,-0.0856 l 0.6318,-0.0860 l 0.6318,-0.0293 l 0.6318,-0.0457 l 0.6318,-0.0985 l 0.6318,0.0043 l 0.6318,0.0436 l 0.6318,0.0229 l 0.6318,-0.1897 l 0.6318,-0.1011 l 0.6318,0.0560 l 0.6318,0.1000 l 0.6318,-0.0317 l 0.6318,0.0064 l 0.6318,0.0382 "/>
  </g>
  <g stroke-linejoin="miter" stroke-opacity="1.0" fill-opacity="0.0" stroke="rgb(255,127,14)" stroke-width="1.3222982061355344" fill="rgb(0,0,0)" stroke-linecap="butt" stroke-miterlimit="10.0">
    <path d="M 112.1092,202.4506 l 0.6318,0.1786 l 0.6318,0.7073 l 0.6318,-0.3349 l 0.6318,0.3498 l 0.6318,0.0114 l 0.6318,-0.4763 l 0.6318,-0.3018 l 0.6318,-0.0677 l 0.6318,-3.1078 l 0.6318,0.5313 l 0.6318,1.2319 l 0.6318,-0.0700 l 0.6318,-0.6670 l 0.6318,0.9966 l 0.6318,-2.9450 l 0.6318,0.5065 l 0.6318,2.3137 l 0.6318,1.3188 l 0.6318,0.3297 l 0.6318,-0.0697 l 0.6318,0.4094 l 0.6318,0.0224 l 0.6318,0.0110 l 0.6318,-0.1685 l 0.6318,-0.1511 l 0.6318,-0.4644 l 0.6318,-1.2993 l 0.6318,-0.9569 l 0.6318,1.8776 l 0.6318,0.6815 l 0.6318,-0.0166 l 0.6318,-0.2056 l 0.6318,-0.2857 l 0.6318,-0.2694 l 0.6318,0.3261 l 0.6318,-0.9501 l 0.6318,-0.4490 l 0.6318,1.6302 l 0.6318,-1.0671 l 0.6318,0.1135 l 0.6318,-0.1909 l 0.6318,0.5018 l 0.6318,0.5437 l 0.6318,-0.2777 l 0.6318,-1.0615 l 0.6318,-3.9082 l 0.6318,-7.9234 l 0.6318,-11.1011 l 0.6318,-5.0587 l 0.6318,17.8298 l 0.6318,6.1609 l 0.6318,0.1731 l 0.6318,-1.5037 l 0.6318,-6.0000 l 0.6318,4.8376 l 0.6318,0.3480 l 0.6318,-3.0796 l 0.6318,5.6018 l 0.6318,-2.2850 l 0.6318,1.0980 l 0.6318,0.8643 l 0.6318,-0.6139 l 0.6318,2.1625 l 0.6318,1.1722 l 0.6318,-0.2711 l 0.6318,-2.1065 l 0.6318,0.7681 l 0.6318,-1.8282 l 0.6318,-0.2717 l 0.6318,-0.5118 l 0.6318,0.0132 l 0.6318,-4.7601 l 0.6318,0.4796 l 0.6318,4.3655 l 0.6318,0.4458 l 0.6318,2.3469 l 0.6318,2.1056 l 0.6318,-0.2893 l 0.6318,0.6840 l 0.6318,0.5473 l 0.6318,0.0377 l 0.6318,0.0598 l 0.6318,-0.3350 l 0.6318,-0.2940 l 0.6318,0.8195 l 0.6318,0.1250 l 0.6318,0.0050 l 0.6318,-0.0312 l 0.6318,-0.1755 l 0.6318,0.3356 l 0.6318,-0.1754 l 0.6318,0.0636 l 0.6318,0.0648 l 0.6318,-0.3691 l 0.6318,0.0360 l 0.6318,0.2119 l 0.6318,-0.5320 l 0.6318,-0.1569 l 0.6318,0.2578 l 0.6318,0.0847 l 0.6318,0.0365 l 0.6318,0.4226 l 0.6318,-0.0344 l 0.6318,0.0848 l 0.6318,0.0249 l 0.6318,-0.3843 l 0.6318,0.5046 l 0.6318,-0.0170 l 0.6318,-0.0775 l 0.6318,0.0378 l 0.6318,-0.1077 l 0.6318,0.0504 l 0.6318,-0.0322 l 0.6318,0.0127 l 0.6318,-0.0118 l 0.6318,0.1375 l 0.6318,-0.3414 l 0.6318,0.4033 l 0.6318,-0.0298 l 0.6318,0.0090 l 0.6318,0.1634 l 0.6318,0.0188 l 0.6318,-0.1367 l 0.6318,0.0600 l 0.6318,-0.9095 l 0.6318,0.3481 l 0.6318,0.5332 l 0.6318,0.2137 l 0.6318,-0.1693 l 0.6318,-0.9713 l 0.6318,0.5708 l 0.6318,0.4336 l 0.6318,0.2489 l 0.6318,-0.0063 l 0.6318,-0.0205 l 0.6318,-0.0047 l 0.6318,0.0531 l 0.6318,-0.1506 l 0.6318,-0.7401 l 0.6318,0.1484 l 0.6318,-1.0355 l 0.6318,-2.8099 l 0.6318,-1.6911 l 0.6318,0.2627 l 0.6318,1.4340 l 0.6318,-4.0760 l 0.6318,3.4134 l 0.6318,-3.5742 l 0.6318,0.2709 l 0.6318,-2.2465 l 0.6318,1.3673 l 0.6318,4.1383 l 0.6318,-2.4327 l 0.6318,2.6277 l 0.6318,-1.5885 l 0.6318,1.0480 l 0.6318,3.3755 l 0.6318,-0.0032 l 0.6318,-1.9391 l 0.6318,0.7074 l 0.6318,0.2404 l 0.6318,-2.2504 l 0.6318,-2.1274 l 0.6318,0.0305 l 0.6318,0.1151 l 0.6318,-2.0881 l 0.6318,3.8634 l 0.6318,2.3557 l 0.6318,1.5998 l 0.6318,-0.3141 l 0.6318,0.0327 l 0.6318,0.9560 l 0.6318,-0.6715 l 0.6318,0.3219 l 0.6318,0.5702 l 0.6318,-0.0567 l 0.6318,-0.3490 l 0.6318,0.7466 l 0.6318,-0.0163 l 0.6318,-0.0445 l 0.6318,-0.0672 l 0.6318,-0.0222 l 0.6318,0.1733 l 0.6318,-0.0288 l 0.6318,-0.0025 l 0.6318,-0.4633 l 0.6318,0.0667 l 0.6318,0.0866 l 0.6318,-0.2594 l 0.6318,-0.3903 l 0.6318,-0.3078 l 0.6318,-0.0591 l 0.6318,0.0909 l 0.6318,0.4784 l 0.6318,0.0341 l 0.6318,-0.0227 l 0.6318,-0.6005 l 0.6318,-0.3526 l 0.6318,0.2123 l 0.6318,-0.5569 l 0.6318,0.3501 l 0.6318,0.8577 l 0.6318,-0.7649 l 0.6318,0.9555 l 0.6318,-0.1567 l 0.6318,0.1799 l 0.6318,-0.6236 l 0.6318,-0.8744 l 0.6318,0.0204 l 0.6318,0.1401 l 0.6318,-0.6612 l 0.6318,-0.3207 l 0.6318,-0.0404 l 0.6318,0.6804 l 0.6318,0.0370 l 0.6318,0.2343 l 0.6318,-0.1573 l 0.6318,-0.1377 l 0.6318,0.9644 l 0.6318,0.4048 l 0.6318,-0.5589 l 0.6318,0.6928 l 0.6318,0.3258 l 0.6318,0.0166 l 0.6318,-0.1335 l 0.6318,-0.0285 l 0.6318,-0.8005 l 0.6318,0.7456 l 0.6318,0.0216 l 0.6318,0.3852 l 0.6318,-0.3884 l 0.6318,0.4341 l 0.6318,-0.0022 l 0.6318,0.0864 l 0.6318,-0.1382 l 0.6318,0.0694 l 0.6318,-0.5946 l 0.6318,-0.5128 l 0.6318,0.0474 l 0.6318,-0.3651 l 0.6318,0.1343 l 0.6318,-0.0762 l 0.6318,-0.2495 l 0.6318,0.3364 l 0.6318,-0.4570 l 0.6318,-0.0999 l 0.6318,-0.3386 l 0.6318,0.2585 l 0.6318,0.9861 l 0.6318,0.5839 l 0.6318,0.0979 l 0.6318,0.0842 l 0.6318,-0.1212 l 0.6318,0.1464 l 0.6318,-0.2415 l 0.6318,-0.1445 l 0.6318,0.1166 l 0.6318,-0.9741 l 0.6318,1.6447 l 0.6318,-0.9254 l 0.6318,1.0419 l 0.6318,-0.3554 l 0.6318,-0.0997 l 0.6318,0.3922 l 0.6318,-0.2495 l 0.6318,0.0651 l 0.6318,-1.0441 l 0.6318,-0.2889 l 0.6318,-0.7108 l 0.6318,0.0473 l 0.6318,-0.5850 l 0.6318,0.1970 l 0.6318,-0.2371 l 0.6318,0.2647 l 0.6318,-0.4863 l 0.6318,0.5647 l 0.6318,-0.5173 l 0.6318,0.4820 l 0.6318,0.0292 l 0.6318,0.2163 l 0.6318,-0.1297 l 0.6318,-0.1351 l 0.6318,0.2278 l 0.6318,0.7768 l 0.6318,-0.2686 l 0.6318,0.0299 l 0.6318,-0.9252 l 0.6318,0.1920 l 0.6318,0.0213 l 0.6318,0.4166 l 0.6318,-0.4998 l 0.6318,0.1722 l 0.6318,-0.2823 l 0.6318,0.7484 l 0.6318,-0.1503 l 0.6318,-0.1941 l 0.6318,0.2329 l 0.6318,0.1209 l 0.6318,-0.1591 l 0.6318,0.6114 l 0.6318,0.1639 l 0.6318,0.1666 l 0.6318,-0.4033 l 0.6318,0.2232 l 0.6318,0.2310 l 0.6318,0.0345 l 0.6318,-0.2970 l 0.6318,-0.2307 l 0.6318,0.0610 l 0.6318,0.2457 l 0.6318,1.0106 l 0.6318,-0.0686 l 0.6318,0.1684 l 0.6318,-0.0173 l 0.6318,0.0814 l 0.6318,0.0245 l 0.6318,-0.0008 l 0.6318,0.0002 l 0.6318,-0.1483 l 0.6318,-0.2841 l 0.6318,0.3055 l 0.6318,0.1895 l 0.6318,-0.0728 l 0.6318,-0.1650 l 0.6318,0.2698 l 0.6318,-0.1459 l 0.6318,0.1069 l 0.6318,0.0670 l 0.6318,-0.0320 l 0.6318,-0.0032 l 0.6318,0.0406 l 0.6318,-0.0475 l 0.6318,-0.0221 l 0.6318,0.0280 l 0.6318,-0.1066 l 0.6318,0.0019 l 0.6318,-0.1449 l 0.6318,0.2527 l 0.6318,0.0482 l 0.6318,-0.0350 l 0.6318,-0.0071 l 0.6318,0.0843 l 0.6318,-0.0607 l 0.6318,-0.0550 l 0.6318,-0.1240 l 0.6318,-0.1730 l 0.6318,-0.0141 l 0.6318,-0.5193 l 0.6318,-0.6872 l 0.6318,-0.5692 l 0.6318,-0.2297 l 0.6318,2.3123 l 0.6318,0.1326 l 0.6318,0.0727 l 0.6318,-0.0380 l 0.6318,0.0398 l 0.6318,0.0072 l 0.6318,-0.2264 l 0.6318,0.0878 l 0.6318,-0.2132 l 0.6318,0.1508 l 0.6318,-0.4340 l 0.6318,-0.1453 l 0.6318,-0.0336 l 0.6318,-0.3330 l 0.6318,0.5391 l 0.6318,-0.0738 l 0.6318,0.2335 l 0.6318,0.2313 l 0.6318,-0.0024 l 0.6318,-0.3268 l 0.6318,-0.2438 l 0.6318,-1.4251 l 0.6318,-0.2422 l 0.6318,-0.8829 l 0.6318,0.3165 l 0.6318,-1.0757 l 0.6318,1.6400 l 0.6318,-0.5292 l 0.6318,0.3956 l 0.6318,-0.2234 l 0.6318,-0.5183 l 0.6318,0.5448 l 0.6318,0.3962 l 0.6318,-0.1029 l 0.6318,-0.2632 l 0.6318,1.3077 l 0.6318,0.0905 l 0.6318,0.5057 l 0.6318,-0.7834 l 0.6318,-0.6906 l 0.6318,0.2008 l 0.6318,-0.4381 l 0.6318,0.6262 l 0.6318,0.0752 l 0.6318,-0.3118 l 0.6318,0.3797 l 0.6318,-0.1719 l 0.6318,0.4559 l 0.6318,-0.1469 l 0.6318,0.4715 l 0.6318,-0.3005 l 0.6318,0.3460 l 0.6318,-0.6622 l 0.6318,-1.0909 l 0.6318,0.2341 l 0.6318,0.2414 l 0.6318,0.9349 l 0.6318,0.1587 l 0.6318,0.0234 l 0.6318,-0.0055 l 0.6318,-0.8109 l 0.6318,0.3779 l 0.6318,0.0425 l 0.6318,-0.0176 l 0.6318,-0.7238 l 0.6318,-0.4937 l 0.6318,-0.8691 l 0.6318,-0.7146 l 0.6318,-1.0142 l 0.6318,0.4149 l 0.6318,-0.2324 l 0.6318,-1.3777 l 0.6318,0.5383 l 0.6318,0.1007 l 0.6318,-0.1939 l 0.6318,-0.0632 l 0.6318,0.9199 l 0.6318,-3.4118 l 0.6318,2.1845 l 0.6318,0.0888 l 0.6318,1.1176 l 0.6318,0.8952 l 0.6318,0.6538 l 0.6318,-0.0185 l 0.6318,-0.5277 l 0.6318,0.0804 l 0.6318,0.8522 l 0.6318,-1.5342 l 0.6318,0.5601 l 0.6318,0.4448 l 0.6318,0.5428 l 0.6318,1.9150 l 0.6318,-0.1105 l 0.6318,0.1386 l 0.6318,0.1025 l 0.6318,0.0968 l 0.6318,-0.4948 l 0.6318,-0.0518 l 0.6318,-0.2679 l 0.6318,0.3395 l 0.6318,0.2168 l 0.6318,0.0012 l 0.6318,0.2699 l 0.6318,-0.0846 l 0.6318,0.0871 l 0.6318,-0.0086 l 0.6318,0.1009 l 0.6318,0.1150 l 0.6318,-0.1393 l 0.6318,0.2269 l 0.6318,0.0048 l 0.6318,-0.0489 l 0.6318,0.0652 l 0.6318,0.0495 l 0.6318,-0.3173 l 0.6318,-0.5392 l 0.6318,0.1349 l 0.6318,0.0068 l 0.6318,0.2708 l 0.6318,-0.1120 l 0.6318,-0.0625 l 0.6318,0.1921 l 0.6318,0.0002 l 0.6318,-0.3640 l 0.6318,0.0703 l 0.6318,0.1835 l 0.6318,-0.0558 l 0.6318,0.2703 l 0.6318,0.1531 l 0.6318,-0.3299 l 0.6318,0.1245 l 0.6318,0.3294 l 0.6318,0.2237 l 0.6318,0.1814 l 0.6318,-0.0903 l 0.6318,-0.0612 l 0.6318,-0.1171 l 0.6318,-0.3238 l 0.6318,0.0305 l 0.6318,0.1712 l 0.6318,0.0849 l 0.6318,-0.6947 l 0.6318,-0.4482 l 0.6318,0.2978 l 0.6318,0.4604 l 0.6318,-0.1111 l 0.6318,0.0444 l 0.6318,0.1665 "/>
  </g>
  <g stroke-linejoin="miter" stroke-opacity="1.0" fill-opacity="0.0" stroke="rgb(31,119,180)" stroke-width="1.3222982061355344" fill="rgb(0,0,0)" stroke-linecap="butt" stroke-miterlimit="10.0">
    <path d="M 112.1092,255.3109 l 0.6318,1.7121 l 0.6318,-2.9586 l 0.6318,4.5527 l 0.6318,-3.9537 l 0.6318,-0.2057 l 0.6318,4.3373 l 0.6318,-1.7570 l 0.6318,-0.3036 l 0.6318,-38.5207 l 0.6318,12.2600 l 0.6318,18.5665 l 0.6318,0.3762 l 0.6318,-5.7489 l 0.6318,10.6056 l 0.6318,-25.9664 l 0.6318,8.9496 l 0.6318,19.4610 l 0.6318,-2.2395 l 0.6318,-4.6276 l 0.6318,1.5308 l 0.6318,-11.8150 l 0.6318,-0.7488 l 0.6318,-0.0041 l 0.6318,9.4052 l 0.6318,3.5475 l 0.6318,3.3990 l 0.6318,-6.6819 l 0.6318,-9.1235 l 0.6318,17.1135 l 0.6318,-1.6903 l 0.6318,0.1876 l 0.6318,1.4227 l 0.6318,0.4782 l 0.6318,-0.5100 l 0.6318,0.5956 l 0.6318,-3.5687 l 0.6318,-3.3108 l 0.6318,6.9072 l 0.6318,-0.4317 l 0.6318,0.8896 l 0.6318,-0.7059 l 0.6318,1.9217 l 0.6318,-1.5990 l 0.6318,1.5334 l 0.6318,-3.0224 l 0.6318,-37.3636 l 0.6318,-67.0358 l 0.6318,-71.3015 l 0.6318,-31.2558 l 0.6318,168.4326 l 0.6318,29.0171 l 0.6318,1.0565 l 0.6318,-3.2783 l 0.6318,-22.1517 l 0.6318,22.5554 l 0.6318,1.9937 l 0.6318,-8.5180 l 0.6318,14.7349 l 0.6318,-2.4430 l 0.6318,2.2003 l 0.6318,0.6755 l 0.6318,-0.1164 l 0.6318,-1.3260 l 0.6318,-4.3009 l 0.6318,1.3476 l 0.6318,5.1173 l 0.6318,-0.5321 l 0.6318,0.3608 l 0.6318,-0.1126 l 0.6318,-0.4540 l 0.6318,0.3103 l 0.6318,-14.1724 l 0.6318,4.1701 l 0.6318,12.0387 l 0.6318,0.0356 l 0.6318,-4.8248 l 0.6318,-15.9051 l 0.6318,4.7617 l 0.6318,-9.2226 l 0.6318,-11.8671 l 0.6318,0.4252 l 0.6318,-0.5200 l 0.6318,12.4469 l 0.6318,6.4728 l 0.6318,-16.9865 l 0.6318,-5.8776 l 0.6318,1.7104 l 0.6318,4.4927 l 0.6318,10.3765 l 0.6318,-20.8809 l 0.6318,-18.4716 l 0.6318,9.2433 l 0.6318,9.2068 l 0.6318,-19.3071 l 0.6318,6.0792 l 0.6318,14.8368 l 0.6318,-18.2322 l 0.6318,-1.4530 l 0.6318,13.4486 l 0.6318,5.7581 l 0.6318,3.4875 l 0.6318,14.9904 l 0.6318,-0.2742 l 0.6318,2.1387 l 0.6318,-1.8364 l 0.6318,-13.0047 l 0.6318,21.3092 l 0.6318,-0.8527 l 0.6318,2.9327 l 0.6318,1.1232 l 0.6318,-1.4541 l 0.6318,1.3314 l 0.6318,-0.1398 l 0.6318,0.4847 l 0.6318,0.1111 l 0.6318,0.9329 l 0.6318,-1.6350 l 0.6318,4.1541 l 0.6318,-12.2205 l 0.6318,18.0652 l 0.6318,-0.4757 l 0.6318,-4.1144 l 0.6318,-8.5951 l 0.6318,3.6536 l 0.6318,-29.1052 l 0.6318,13.5836 l 0.6318,18.4349 l 0.6318,7.8307 l 0.6318,-4.9166 l 0.6318,-20.8190 l 0.6318,14.7220 l 0.6318,9.4175 l 0.6318,3.2296 l 0.6318,0.2816 l 0.6318,0.0231 l 0.6318,-2.2823 l 0.6318,2.9901 l 0.6318,-2.1503 l 0.6318,-14.3798 l 0.6318,4.3809 l 0.6318,-18.6165 l 0.6318,-43.6421 l 0.6318,-23.3680 l 0.6318,13.0189 l 0.6318,32.0274 l 0.6318,-45.0569 l 0.6318,57.7855 l 0.6318,-32.2576 l 0.6318,9.4272 l 0.6318,-18.3508 l 0.6318,22.4037 l 0.6318,39.2877 l 0.6318,-11.6111 l 0.6318,16.8787 l 0.6318,-5.2083 l 0.6318,5.6196 l 0.6318,1.0111 l 0.6318,-0.1166 l 0.6318,6.2701 l 0.6318,0.1542 l 0.6318,-0.5032 l 0.6318,-0.7786 l 0.6318,-8.1741 l 0.6318,1.8129 l 0.6318,1.9638 l 0.6318,-9.3313 l 0.6318,17.6119 l 0.6318,-3.3873 l 0.6318,-14.3772 l 0.6318,5.6015 l 0.6318,-0.2004 l 0.6318,-17.4620 l 0.6318,18.6529 l 0.6318,-4.7621 l 0.6318,-14.4183 l 0.6318,4.0930 l 0.6318,12.0421 l 0.6318,-28.2979 l 0.6318,-5.4069 l 0.6318,-4.2441 l 0.6318,-3.8082 l 0.6318,1.5957 l 0.6318,26.0590 l 0.6318,-5.8239 l 0.6318,1.5427 l 0.6318,-23.7210 l 0.6318,6.9410 l 0.6318,7.1694 l 0.6318,-7.5537 l 0.6318,-10.1286 l 0.6318,-5.8031 l 0.6318,2.7875 l 0.6318,7.1356 l 0.6318,17.6555 l 0.6318,2.7225 l 0.6318,1.1052 l 0.6318,-10.0567 l 0.6318,-5.0376 l 0.6318,8.0583 l 0.6318,-8.2560 l 0.6318,10.6697 l 0.6318,15.2782 l 0.6318,-4.7679 l 0.6318,10.8328 l 0.6318,0.2331 l 0.6318,-0.3336 l 0.6318,0.7043 l 0.6318,-6.8795 l 0.6318,1.9775 l 0.6318,2.9700 l 0.6318,-5.6435 l 0.6318,-2.1897 l 0.6318,1.6375 l 0.6318,8.9330 l 0.6318,0.7493 l 0.6318,0.9859 l 0.6318,-0.0372 l 0.6318,-0.0706 l 0.6318,-3.0185 l 0.6318,-8.8311 l 0.6318,13.1458 l 0.6318,-12.1532 l 0.6318,-14.5102 l 0.6318,-0.6238 l 0.6318,9.4484 l 0.6318,1.5768 l 0.6318,20.4074 l 0.6318,-7.2989 l 0.6318,-0.6932 l 0.6318,-17.1108 l 0.6318,23.3975 l 0.6318,-15.0607 l 0.6318,0.9762 l 0.6318,-8.6387 l 0.6318,16.2521 l 0.6318,-3.8354 l 0.6318,17.2282 l 0.6318,-2.7760 l 0.6318,0.9881 l 0.6318,-3.4705 l 0.6318,2.4192 l 0.6318,-0.2568 l 0.6318,-2.2458 l 0.6318,4.3629 l 0.6318,-3.7793 l 0.6318,-0.4059 l 0.6318,-3.6621 l 0.6318,4.8175 l 0.6318,4.3055 l 0.6318,-11.8464 l 0.6318,-4.5273 l 0.6318,-5.0052 l 0.6318,9.2760 l 0.6318,-8.2255 l 0.6318,15.0101 l 0.6318,3.4383 l 0.6318,-2.2019 l 0.6318,2.7990 l 0.6318,-18.2209 l 0.6318,-36.8915 l 0.6318,49.3633 l 0.6318,17.2819 l 0.6318,-0.4949 l 0.6318,1.8715 l 0.6318,-0.8034 l 0.6318,0.3790 l 0.6318,-7.9122 l 0.6318,-2.1375 l 0.6318,-6.5792 l 0.6318,1.9906 l 0.6318,-4.9553 l 0.6318,3.8180 l 0.6318,-1.0246 l 0.6318,3.9585 l 0.6318,-3.3535 l 0.6318,6.2056 l 0.6318,-3.2136 l 0.6318,4.6138 l 0.6318,0.7235 l 0.6318,1.4552 l 0.6318,-0.2269 l 0.6318,-0.2500 l 0.6318,1.0848 l 0.6318,-0.4456 l 0.6318,1.0104 l 0.6318,-0.1658 l 0.6318,-0.6725 l 0.6318,1.0737 l 0.6318,0.2203 l 0.6318,0.1798 l 0.6318,0.0898 l 0.6318,0.3260 l 0.6318,-0.2708 l 0.6318,-0.9085 l 0.6318,0.7538 l 0.6318,0.6151 l 0.6318,-1.0468 l 0.6318,-1.0243 l 0.6318,1.0751 l 0.6318,-6.8886 l 0.6318,-3.5404 l 0.6318,-4.4980 l 0.6318,10.8005 l 0.6318,-3.9700 l 0.6318,-6.0104 l 0.6318,-0.7043 l 0.6318,9.0341 l 0.6318,3.2842 l 0.6318,-0.6375 l 0.6318,-3.7007 l 0.6318,-52.0858 l 0.6318,51.9034 l 0.6318,-28.9427 l 0.6318,0.7867 l 0.6318,26.4344 l 0.6318,-5.6412 l 0.6318,0.8410 l 0.6318,1.3356 l 0.6318,12.5097 l 0.6318,-0.4253 l 0.6318,1.0304 l 0.6318,-6.0851 l 0.6318,6.2258 l 0.6318,0.7774 l 0.6318,-2.9210 l 0.6318,4.1023 l 0.6318,-0.4605 l 0.6318,-3.2730 l 0.6318,3.3459 l 0.6318,0.1673 l 0.6318,-1.8101 l 0.6318,2.3322 l 0.6318,-10.6021 l 0.6318,2.8044 l 0.6318,-4.5353 l 0.6318,1.4386 l 0.6318,-4.9285 l 0.6318,11.7267 l 0.6318,2.0259 l 0.6318,-0.7808 l 0.6318,0.1211 l 0.6318,1.5681 l 0.6318,-0.3900 l 0.6318,-1.0455 l 0.6318,-2.9987 l 0.6318,-4.5418 l 0.6318,0.8103 l 0.6318,-14.9975 l 0.6318,-20.0387 l 0.6318,-14.9641 l 0.6318,-2.0351 l 0.6318,59.9236 l 0.6318,-2.7851 l 0.6318,-16.6697 l 0.6318,-3.2429 l 0.6318,5.1037 l 0.6318,1.5206 l 0.6318,-16.4267 l 0.6318,7.3711 l 0.6318,-10.9409 l 0.6318,10.4585 l 0.6318,-18.7717 l 0.6318,-3.8450 l 0.6318,1.4096 l 0.6318,-10.4937 l 0.6318,26.1410 l 0.6318,-1.0224 l 0.6318,9.4750 l 0.6318,7.2070 l 0.6318,0.1828 l 0.6318,-6.8303 l 0.6318,-5.8505 l 0.6318,-33.8206 l 0.6318,-2.7282 l 0.6318,-20.1102 l 0.6318,16.5980 l 0.6318,-22.5645 l 0.6318,53.7154 l 0.6318,-7.2623 l 0.6318,10.5828 l 0.6318,-1.5813 l 0.6318,-6.2832 l 0.6318,11.9541 l 0.6318,6.1009 l 0.6318,-0.1274 l 0.6318,-1.5190 l 0.6318,6.7547 l 0.6318,-1.2268 l 0.6318,-9.3567 l 0.6318,15.7865 l 0.6318,-0.1705 l 0.6318,1.2413 l 0.6318,-1.5350 l 0.6318,2.6395 l 0.6318,-0.3309 l 0.6318,0.6399 l 0.6318,-0.8573 l 0.6318,0.8320 l 0.6318,-3.7541 l 0.6318,1.8882 l 0.6318,-8.1063 l 0.6318,7.2486 l 0.6318,-7.0940 l 0.6318,12.4136 l 0.6318,-3.6469 l 0.6318,3.2744 l 0.6318,2.0268 l 0.6318,-2.5785 l 0.6318,-2.9683 l 0.6318,-0.5007 l 0.6318,0.1728 l 0.6318,8.3625 l 0.6318,-0.2628 l 0.6318,-0.3878 l 0.6318,0.0237 l 0.6318,0.0914 l 0.6318,-4.3983 l 0.6318,-12.0967 l 0.6318,-11.7110 l 0.6318,-18.9068 l 0.6318,15.4215 l 0.6318,-1.1685 l 0.6318,-24.8120 l 0.6318,19.4576 l 0.6318,6.3239 l 0.6318,0.0401 l 0.6318,2.4107 l 0.6318,16.2601 l 0.6318,-34.7632 l 0.6318,38.1008 l 0.6318,2.3812 l 0.6318,6.8694 l 0.6318,-0.9455 l 0.6318,-5.1199 l 0.6318,-0.0976 l 0.6318,4.6403 l 0.6318,-0.8290 l 0.6318,-9.3226 l 0.6318,14.2274 l 0.6318,-1.0132 l 0.6318,-3.0711 l 0.6318,-6.5993 l 0.6318,-43.9908 l 0.6318,10.6160 l 0.6318,-6.3006 l 0.6318,-5.1667 l 0.6318,-6.1930 l 0.6318,39.9653 l 0.6318,2.2996 l 0.6318,6.6319 l 0.6318,-6.2237 l 0.6318,-6.2808 l 0.6318,1.0649 l 0.6318,-12.6738 l 0.6318,8.4067 l 0.6318,-4.2179 l 0.6318,2.3444 l 0.6318,-6.9812 l 0.6318,-19.4338 l 0.6318,-39.3188 l 0.6318,69.5084 l 0.6318,-11.0133 l 0.6318,-7.4760 l 0.6318,32.0632 l 0.6318,-6.4796 l 0.6318,13.1984 l 0.6318,-9.0289 l 0.6318,3.3280 l 0.6318,0.4751 l 0.6318,4.8747 l 0.6318,-1.5173 l 0.6318,-0.8604 l 0.6318,2.9894 l 0.6318,0.0232 l 0.6318,-5.2955 l 0.6318,1.7136 l 0.6318,3.1673 l 0.6318,-0.6469 l 0.6318,2.6608 l 0.6318,-0.7101 l 0.6318,0.3488 l 0.6318,1.3254 l 0.6318,-29.3221 l 0.6318,16.0744 l 0.6318,16.8277 l 0.6318,3.6904 l 0.6318,-0.1525 l 0.6318,-1.0628 l 0.6318,-4.8164 l 0.6318,0.8624 l 0.6318,2.8653 l 0.6318,1.0739 l 0.6318,-10.9037 l 0.6318,-8.2258 l 0.6318,7.5745 l 0.6318,8.3958 l 0.6318,-1.1978 l 0.6318,0.9147 l 0.6318,2.0154 "/>
  </g>
  <g stroke-linejoin="miter" stroke-opacity="1.0" fill-opacity="0.0" stroke="rgb(102,102,102)" stroke-width="0.4407660687118448" fill="rgb(0,0,0)" stroke-linecap="butt" stroke-miterlimit="10.0">
    <path d="M 112.1092,189.9570 h 315.2723 "/>
  </g>
  <g stroke-linejoin="miter" stroke-opacity="0.0" fill-opacity="0.0" stroke="rgb(0,0,0)" fill-rule="evenodd" stroke-width="0.0" fill="rgb(0,0,0)" stroke-linecap="butt" stroke-miterlimit="10.0">
    <path d="M 49.7693,132.5600 l -25.2470,0.0000 l -0.0000,126.2350 l 25.2470,0.0000 Z"/>
  </g>
  <g stroke-linejoin="miter" stroke-opacity="1.0" fill-opacity="1.0" font-size="22.951826032485474px" stroke="rgb(0,0,0)" fill-rule="evenodd" stroke-width="0.0" fill="rgb(31,119,180)" stroke-linecap="butt" stroke-miterlimit="10.0">
    <text dominant-baseline="middle" transform="matrix(0.0000,-1.0000,1.0000,0.0000,37.1458,258.7950)" stroke="none" text-anchor="start">beta on ma
    </text>
  </g>
  <g stroke-linejoin="miter" stroke-opacity="0.0" fill-opacity="0.0" stroke="rgb(0,0,0)" fill-rule="evenodd" stroke-width="0.0" fill="rgb(0,0,0)" stroke-linecap="butt" stroke-miterlimit="10.0">
    <path d="M 565.3345,255.2343 l -0.0000,-12.6235 h -31.5588 l -0.0000,12.6235 Z"/>
  </g>
  <g stroke-linejoin="miter" stroke-opacity="1.0" fill-opacity="0.63" font-size="11.475913016242737px" stroke="rgb(0,0,0)" fill-rule="evenodd" stroke-width="0.0" fill="rgb(0,0,0)" stroke-linecap="butt" stroke-miterlimit="10.0">
    <text dominant-baseline="middle" transform="matrix(1.0000,-0.0000,0.0000,1.0000,549.5551,248.9226)" stroke="none" text-anchor="middle">0.996
    </text>
  </g>
  <g stroke-linejoin="miter" stroke-opacity="1.0" fill-opacity="0.0" stroke="rgb(44,160,44)" stroke-width="1.3222982061355344" fill="rgb(0,0,0)" stroke-linecap="butt" stroke-miterlimit="10.0">
    <path d="M 508.5539,247.7750 h 21.0182 "/>
  </g>
  <g stroke-linejoin="miter" stroke-opacity="0.0" fill-opacity="0.0" stroke="rgb(0,0,0)" fill-rule="evenodd" stroke-width="0.0" fill="rgb(0,0,0)" stroke-linecap="butt" stroke-miterlimit="10.0">
    <path d="M 559.0227,236.3054 l -0.0000,-12.6235 h -25.2470 l -0.0000,12.6235 Z"/>
  </g>
  <g stroke-linejoin="miter" stroke-opacity="1.0" fill-opacity="0.63" font-size="11.475913016242737px" stroke="rgb(0,0,0)" fill-rule="evenodd" stroke-width="0.0" fill="rgb(0,0,0)" stroke-linecap="butt" stroke-miterlimit="10.0">
    <text dominant-baseline="middle" transform="matrix(1.0000,-0.0000,0.0000,1.0000,546.3992,229.9936)" stroke="none" text-anchor="middle">0.99
    </text>
  </g>
  <g stroke-linejoin="miter" stroke-opacity="1.0" fill-opacity="0.0" stroke="rgb(255,127,14)" stroke-width="1.3222982061355344" fill="rgb(0,0,0)" stroke-linecap="butt" stroke-miterlimit="10.0">
    <path d="M 508.5539,228.8460 h 21.0182 "/>
  </g>
  <g stroke-linejoin="miter" stroke-opacity="0.0" fill-opacity="0.0" stroke="rgb(0,0,0)" fill-rule="evenodd" stroke-width="0.0" fill="rgb(0,0,0)" stroke-linecap="butt" stroke-miterlimit="10.0">
    <path d="M 559.0227,217.3764 l -0.0000,-12.6235 h -25.2470 l -0.0000,12.6235 Z"/>
  </g>
  <g stroke-linejoin="miter" stroke-opacity="1.0" fill-opacity="0.63" font-size="11.475913016242737px" stroke="rgb(0,0,0)" fill-rule="evenodd" stroke-width="0.0" fill="rgb(0,0,0)" stroke-linecap="butt" stroke-miterlimit="10.0">
    <text dominant-baseline="middle" transform="matrix(1.0000,-0.0000,0.0000,1.0000,546.3992,211.0647)" stroke="none" text-anchor="middle">0.95
    </text>
  </g>
  <g stroke-linejoin="miter" stroke-opacity="1.0" fill-opacity="0.0" stroke="rgb(31,119,180)" stroke-width="1.3222982061355344" fill="rgb(0,0,0)" stroke-linecap="butt" stroke-miterlimit="10.0">
    <path d="M 508.5539,209.9171 h 21.0182 "/>
  </g>
  <g stroke-linejoin="miter" stroke-opacity="0.0" fill-opacity="0.0" stroke="rgb(0,0,0)" fill-rule="evenodd" stroke-width="0.0" fill="rgb(0,0,0)" stroke-linecap="butt" stroke-miterlimit="10.0">
    <path d="M 544.6211,198.4475 l -0.0000,-14.4269 h -72.1343 l -0.0000,14.4269 Z"/>
  </g>
  <g stroke-linejoin="miter" stroke-opacity="1.0" fill-opacity="0.33" font-size="13.115329161420268px" stroke="rgb(0,0,0)" fill-rule="evenodd" stroke-width="0.0" fill="rgb(0,0,0)" stroke-linecap="butt" stroke-miterlimit="10.0">
    <text dominant-baseline="middle" transform="matrix(1.0000,-0.0000,0.0000,1.0000,508.5539,191.2341)" stroke="none" text-anchor="middle">decay rate
    </text>
  </g>
  <g stroke-linejoin="miter" stroke-opacity="0.2" fill-opacity="0.0" stroke="rgb(0,0,0)" stroke-width="0.8815321374236896" fill="rgb(0,0,0)" stroke-linecap="butt" stroke-miterlimit="10.0">
    <path d="M 569.9768,258.7950 l -0.0000,-78.3351 h -102.1325 l -0.0000,78.3351 Z"/>
  </g>
  <g stroke-linejoin="miter" stroke-opacity="0.0" fill-opacity="0.1" stroke="rgb(0,0,0)" stroke-width="0.0" fill="rgb(0,0,0)" stroke-linecap="butt" stroke-miterlimit="10.0">
    <path d="M 103.7019,258.7950 l -0.0000,-210.1816 h -4.2036 l -0.0000,210.1816 Z"/>
  </g>
  <g stroke-linejoin="miter" stroke-opacity="0.0" fill-opacity="0.0" stroke="rgb(0,0,0)" fill-rule="evenodd" stroke-width="0.0" fill="rgb(0,0,0)" stroke-linecap="butt" stroke-miterlimit="10.0">
    <path d="M 94.2437,84.6223 l -0.0000,-14.4269 h -28.8537 l -0.0000,14.4269 Z"/>
  </g>
  <g stroke-linejoin="miter" stroke-opacity="1.0" fill-opacity="0.6" font-size="13.115329161420268px" stroke="rgb(0,0,0)" fill-rule="evenodd" stroke-width="0.0" fill="rgb(0,0,0)" stroke-linecap="butt" stroke-miterlimit="10.0">
    <text dominant-baseline="middle" transform="matrix(1.0000,-0.0000,0.0000,1.0000,79.8169,77.4089)" stroke="none" text-anchor="middle">0.04
    </text>
  </g>
  <g stroke-linejoin="miter" stroke-opacity="0.6" fill-opacity="0.0" stroke="rgb(0,0,0)" stroke-width="2.203830343559224" fill="rgb(0,0,0)" stroke-linecap="butt" stroke-miterlimit="10.0">
    <path d="M 97.3965,76.0974 h 6.3054 "/>
  </g>
  <g stroke-linejoin="miter" stroke-opacity="0.0" fill-opacity="0.0" stroke="rgb(0,0,0)" fill-rule="evenodd" stroke-width="0.0" fill="rgb(0,0,0)" stroke-linecap="butt" stroke-miterlimit="10.0">
    <path d="M 94.2437,113.0872 l -0.0000,-14.4269 h -28.8537 l -0.0000,14.4269 Z"/>
  </g>
  <g stroke-linejoin="miter" stroke-opacity="1.0" fill-opacity="0.6" font-size="13.115329161420268px" stroke="rgb(0,0,0)" fill-rule="evenodd" stroke-width="0.0" fill="rgb(0,0,0)" stroke-linecap="butt" stroke-miterlimit="10.0">
    <text dominant-baseline="middle" transform="matrix(1.0000,-0.0000,0.0000,1.0000,79.8169,105.8738)" stroke="none" text-anchor="middle">0.03
    </text>
  </g>
  <g stroke-linejoin="miter" stroke-opacity="0.6" fill-opacity="0.0" stroke="rgb(0,0,0)" stroke-width="2.203830343559224" fill="rgb(0,0,0)" stroke-linecap="butt" stroke-miterlimit="10.0">
    <path d="M 97.3965,104.5623 h 6.3054 "/>
  </g>
  <g stroke-linejoin="miter" stroke-opacity="0.0" fill-opacity="0.0" stroke="rgb(0,0,0)" fill-rule="evenodd" stroke-width="0.0" fill="rgb(0,0,0)" stroke-linecap="butt" stroke-miterlimit="10.0">
    <path d="M 94.2437,141.5521 l -0.0000,-14.4269 h -28.8537 l -0.0000,14.4269 Z"/>
  </g>
  <g stroke-linejoin="miter" stroke-opacity="1.0" fill-opacity="0.6" font-size="13.115329161420268px" stroke="rgb(0,0,0)" fill-rule="evenodd" stroke-width="0.0" fill="rgb(0,0,0)" stroke-linecap="butt" stroke-miterlimit="10.0">
    <text dominant-baseline="middle" transform="matrix(1.0000,-0.0000,0.0000,1.0000,79.8169,134.3387)" stroke="none" text-anchor="middle">0.02
    </text>
  </g>
  <g stroke-linejoin="miter" stroke-opacity="0.6" fill-opacity="0.0" stroke="rgb(0,0,0)" stroke-width="2.203830343559224" fill="rgb(0,0,0)" stroke-linecap="butt" stroke-miterlimit="10.0">
    <path d="M 97.3965,133.0272 h 6.3054 "/>
  </g>
  <g stroke-linejoin="miter" stroke-opacity="0.0" fill-opacity="0.0" stroke="rgb(0,0,0)" fill-rule="evenodd" stroke-width="0.0" fill="rgb(0,0,0)" stroke-linecap="butt" stroke-miterlimit="10.0">
    <path d="M 94.2437,170.0170 l -0.0000,-14.4269 h -28.8537 l -0.0000,14.4269 Z"/>
  </g>
  <g stroke-linejoin="miter" stroke-opacity="1.0" fill-opacity="0.6" font-size="13.115329161420268px" stroke="rgb(0,0,0)" fill-rule="evenodd" stroke-width="0.0" fill="rgb(0,0,0)" stroke-linecap="butt" stroke-miterlimit="10.0">
    <text dominant-baseline="middle" transform="matrix(1.0000,-0.0000,0.0000,1.0000,79.8169,162.8036)" stroke="none" text-anchor="middle">0.01
    </text>
  </g>
  <g stroke-linejoin="miter" stroke-opacity="0.6" fill-opacity="0.0" stroke="rgb(0,0,0)" stroke-width="2.203830343559224" fill="rgb(0,0,0)" stroke-linecap="butt" stroke-miterlimit="10.0">
    <path d="M 97.3965,161.4921 h 6.3054 "/>
  </g>
  <g stroke-linejoin="miter" stroke-opacity="0.0" fill-opacity="0.0" stroke="rgb(0,0,0)" fill-rule="evenodd" stroke-width="0.0" fill="rgb(0,0,0)" stroke-linecap="butt" stroke-miterlimit="10.0">
    <path d="M 94.2437,198.4819 l -0.0000,-14.4269 h -28.8537 l -0.0000,14.4269 Z"/>
  </g>
  <g stroke-linejoin="miter" stroke-opacity="1.0" fill-opacity="0.6" font-size="13.115329161420268px" stroke="rgb(0,0,0)" fill-rule="evenodd" stroke-width="0.0" fill="rgb(0,0,0)" stroke-linecap="butt" stroke-miterlimit="10.0">
    <text dominant-baseline="middle" transform="matrix(1.0000,-0.0000,0.0000,1.0000,79.8169,191.2685)" stroke="none" text-anchor="middle">0.00
    </text>
  </g>
  <g stroke-linejoin="miter" stroke-opacity="0.6" fill-opacity="0.0" stroke="rgb(0,0,0)" stroke-width="2.203830343559224" fill="rgb(0,0,0)" stroke-linecap="butt" stroke-miterlimit="10.0">
    <path d="M 97.3965,189.9570 h 6.3054 "/>
  </g>
  <g stroke-linejoin="miter" stroke-opacity="0.0" fill-opacity="0.0" stroke="rgb(0,0,0)" fill-rule="evenodd" stroke-width="0.0" fill="rgb(0,0,0)" stroke-linecap="butt" stroke-miterlimit="10.0">
    <path d="M 94.2437,226.9468 l -0.0000,-14.4269 h -36.0672 l -0.0000,14.4269 Z"/>
  </g>
  <g stroke-linejoin="miter" stroke-opacity="1.0" fill-opacity="0.6" font-size="13.115329161420268px" stroke="rgb(0,0,0)" fill-rule="evenodd" stroke-width="0.0" fill="rgb(0,0,0)" stroke-linecap="butt" stroke-miterlimit="10.0">
    <text dominant-baseline="middle" transform="matrix(1.0000,-0.0000,0.0000,1.0000,76.2102,219.7334)" stroke="none" text-anchor="middle">-0.01
    </text>
  </g>
  <g stroke-linejoin="miter" stroke-opacity="0.6" fill-opacity="0.0" stroke="rgb(0,0,0)" stroke-width="2.203830343559224" fill="rgb(0,0,0)" stroke-linecap="butt" stroke-miterlimit="10.0">
    <path d="M 97.3965,218.4219 h 6.3054 "/>
  </g>
  <g stroke-linejoin="miter" stroke-opacity="0.0" fill-opacity="0.0" stroke="rgb(0,0,0)" fill-rule="evenodd" stroke-width="0.0" fill="rgb(0,0,0)" stroke-linecap="butt" stroke-miterlimit="10.0">
    <path d="M 94.2437,255.4117 l -0.0000,-14.4269 h -36.0672 l -0.0000,14.4269 Z"/>
  </g>
  <g stroke-linejoin="miter" stroke-opacity="1.0" fill-opacity="0.6" font-size="13.115329161420268px" stroke="rgb(0,0,0)" fill-rule="evenodd" stroke-width="0.0" fill="rgb(0,0,0)" stroke-linecap="butt" stroke-miterlimit="10.0">
    <text dominant-baseline="middle" transform="matrix(1.0000,-0.0000,0.0000,1.0000,76.2102,248.1983)" stroke="none" text-anchor="middle">-0.02
    </text>
  </g>
  <g stroke-linejoin="miter" stroke-opacity="0.6" fill-opacity="0.0" stroke="rgb(0,0,0)" stroke-width="2.203830343559224" fill="rgb(0,0,0)" stroke-linecap="butt" stroke-miterlimit="10.0">
    <path d="M 97.3965,246.8868 h 6.3054 "/>
  </g>
  <g stroke-linejoin="miter" stroke-opacity="0.0" fill-opacity="0.1" stroke="rgb(0,0,0)" stroke-width="0.0" fill="rgb(0,0,0)" stroke-linecap="butt" stroke-miterlimit="10.0">
    <path d="M 427.3815,271.4059 l -0.0000,-4.2036 h -315.2723 l -0.0000,4.2036 Z"/>
  </g>
  <g stroke-linejoin="miter" stroke-opacity="0.0" fill-opacity="0.0" stroke="rgb(0,0,0)" fill-rule="evenodd" stroke-width="0.0" fill="rgb(0,0,0)" stroke-linecap="butt" stroke-miterlimit="10.0">
    <path d="M 447.1340,342.9691 l 10.2013,-10.2013 l -56.1073,-56.1073 l -10.2013,10.2013 Z"/>
  </g>
  <g stroke-linejoin="miter" stroke-opacity="1.0" fill-opacity="0.6" font-size="13.115329161420268px" stroke="rgb(0,0,0)" fill-rule="evenodd" stroke-width="0.0" fill="rgb(0,0,0)" stroke-linecap="butt" stroke-miterlimit="10.0">
    <text dominant-baseline="middle" transform="matrix(0.7071,0.7071,-0.7071,0.7071,396.1273,281.7611)" stroke="none" text-anchor="start">31 Mar 2017
    </text>
  </g>
  <g stroke-linejoin="miter" stroke-opacity="0.6" fill-opacity="0.0" stroke="rgb(0,0,0)" stroke-width="2.203830343559224" fill="rgb(0,0,0)" stroke-linecap="butt" stroke-miterlimit="10.0">
    <path d="M 397.0547,267.2023 v 6.3054 "/>
  </g>
  <g stroke-linejoin="miter" stroke-opacity="0.0" fill-opacity="0.0" stroke="rgb(0,0,0)" fill-rule="evenodd" stroke-width="0.0" fill="rgb(0,0,0)" stroke-linecap="butt" stroke-miterlimit="10.0">
    <path d="M 407.9619,342.9691 l 10.2013,-10.2013 l -56.1073,-56.1073 l -10.2013,10.2013 Z"/>
  </g>
  <g stroke-linejoin="miter" stroke-opacity="1.0" fill-opacity="0.6" font-size="13.115329161420268px" stroke="rgb(0,0,0)" fill-rule="evenodd" stroke-width="0.0" fill="rgb(0,0,0)" stroke-linecap="butt" stroke-miterlimit="10.0">
    <text dominant-baseline="middle" transform="matrix(0.7071,0.7071,-0.7071,0.7071,356.9552,281.7611)" stroke="none" text-anchor="start">31 Dec 2016
    </text>
  </g>
  <g stroke-linejoin="miter" stroke-opacity="0.6" fill-opacity="0.0" stroke="rgb(0,0,0)" stroke-width="2.203830343559224" fill="rgb(0,0,0)" stroke-linecap="butt" stroke-miterlimit="10.0">
    <path d="M 357.8826,267.2023 v 6.3054 "/>
  </g>
  <g stroke-linejoin="miter" stroke-opacity="0.0" fill-opacity="0.0" stroke="rgb(0,0,0)" fill-rule="evenodd" stroke-width="0.0" fill="rgb(0,0,0)" stroke-linecap="butt" stroke-miterlimit="10.0">
    <path d="M 368.1579,342.9691 l 10.2013,-10.2013 l -56.1073,-56.1073 l -10.2013,10.2013 Z"/>
  </g>
  <g stroke-linejoin="miter" stroke-opacity="1.0" fill-opacity="0.6" font-size="13.115329161420268px" stroke="rgb(0,0,0)" fill-rule="evenodd" stroke-width="0.0" fill="rgb(0,0,0)" stroke-linecap="butt" stroke-miterlimit="10.0">
    <text dominant-baseline="middle" transform="matrix(0.7071,0.7071,-0.7071,0.7071,317.1513,281.7611)" stroke="none" text-anchor="start">30 Sep 2016
    </text>
  </g>
  <g stroke-linejoin="miter" stroke-opacity="0.6" fill-opacity="0.0" stroke="rgb(0,0,0)" stroke-width="2.203830343559224" fill="rgb(0,0,0)" stroke-linecap="butt" stroke-miterlimit="10.0">
    <path d="M 318.0787,267.2023 v 6.3054 "/>
  </g>
  <g stroke-linejoin="miter" stroke-opacity="0.0" fill-opacity="0.0" stroke="rgb(0,0,0)" fill-rule="evenodd" stroke-width="0.0" fill="rgb(0,0,0)" stroke-linecap="butt" stroke-miterlimit="10.0">
    <path d="M 327.7222,342.9691 l 10.2013,-10.2013 l -56.1073,-56.1073 l -10.2013,10.2013 Z"/>
  </g>
  <g stroke-linejoin="miter" stroke-opacity="1.0" fill-opacity="0.6" font-size="13.115329161420268px" stroke="rgb(0,0,0)" fill-rule="evenodd" stroke-width="0.0" fill="rgb(0,0,0)" stroke-linecap="butt" stroke-miterlimit="10.0">
    <text dominant-baseline="middle" transform="matrix(0.7071,0.7071,-0.7071,0.7071,276.7155,281.7611)" stroke="none" text-anchor="start">30 Jun 2016
    </text>
  </g>
  <g stroke-linejoin="miter" stroke-opacity="0.6" fill-opacity="0.0" stroke="rgb(0,0,0)" stroke-width="2.203830343559224" fill="rgb(0,0,0)" stroke-linecap="butt" stroke-miterlimit="10.0">
    <path d="M 277.6429,267.2023 v 6.3054 "/>
  </g>
  <g stroke-linejoin="miter" stroke-opacity="0.0" fill-opacity="0.0" stroke="rgb(0,0,0)" fill-rule="evenodd" stroke-width="0.0" fill="rgb(0,0,0)" stroke-linecap="butt" stroke-miterlimit="10.0">
    <path d="M 287.9183,342.9691 l 10.2013,-10.2013 l -56.1073,-56.1073 l -10.2013,10.2013 Z"/>
  </g>
  <g stroke-linejoin="miter" stroke-opacity="1.0" fill-opacity="0.6" font-size="13.115329161420268px" stroke="rgb(0,0,0)" fill-rule="evenodd" stroke-width="0.0" fill="rgb(0,0,0)" stroke-linecap="butt" stroke-miterlimit="10.0">
    <text dominant-baseline="middle" transform="matrix(0.7071,0.7071,-0.7071,0.7071,236.9116,281.7611)" stroke="none" text-anchor="start">31 Mar 2016
    </text>
  </g>
  <g stroke-linejoin="miter" stroke-opacity="0.6" fill-opacity="0.0" stroke="rgb(0,0,0)" stroke-width="2.203830343559224" fill="rgb(0,0,0)" stroke-linecap="butt" stroke-miterlimit="10.0">
    <path d="M 237.8390,267.2023 v 6.3054 "/>
  </g>
  <g stroke-linejoin="miter" stroke-opacity="0.0" fill-opacity="0.0" stroke="rgb(0,0,0)" fill-rule="evenodd" stroke-width="0.0" fill="rgb(0,0,0)" stroke-linecap="butt" stroke-miterlimit="10.0">
    <path d="M 249.3780,342.9691 l 10.2013,-10.2013 l -56.1073,-56.1073 l -10.2013,10.2013 Z"/>
  </g>
  <g stroke-linejoin="miter" stroke-opacity="1.0" fill-opacity="0.6" font-size="13.115329161420268px" stroke="rgb(0,0,0)" fill-rule="evenodd" stroke-width="0.0" fill="rgb(0,0,0)" stroke-linecap="butt" stroke-miterlimit="10.0">
    <text dominant-baseline="middle" transform="matrix(0.7071,0.7071,-0.7071,0.7071,198.3713,281.7611)" stroke="none" text-anchor="start">31 Dec 2015
    </text>
  </g>
  <g stroke-linejoin="miter" stroke-opacity="0.6" fill-opacity="0.0" stroke="rgb(0,0,0)" stroke-width="2.203830343559224" fill="rgb(0,0,0)" stroke-linecap="butt" stroke-miterlimit="10.0">
    <path d="M 199.2987,267.2023 v 6.3054 "/>
  </g>
  <g stroke-linejoin="miter" stroke-opacity="0.0" fill-opacity="0.0" stroke="rgb(0,0,0)" fill-rule="evenodd" stroke-width="0.0" fill="rgb(0,0,0)" stroke-linecap="butt" stroke-miterlimit="10.0">
    <path d="M 208.9422,342.9691 l 10.2013,-10.2013 l -56.1073,-56.1073 l -10.2013,10.2013 Z"/>
  </g>
  <g stroke-linejoin="miter" stroke-opacity="1.0" fill-opacity="0.6" font-size="13.115329161420268px" stroke="rgb(0,0,0)" fill-rule="evenodd" stroke-width="0.0" fill="rgb(0,0,0)" stroke-linecap="butt" stroke-miterlimit="10.0">
    <text dominant-baseline="middle" transform="matrix(0.7071,0.7071,-0.7071,0.7071,157.9356,281.7611)" stroke="none" text-anchor="start">30 Sep 2015
    </text>
  </g>
  <g stroke-linejoin="miter" stroke-opacity="0.6" fill-opacity="0.0" stroke="rgb(0,0,0)" stroke-width="2.203830343559224" fill="rgb(0,0,0)" stroke-linecap="butt" stroke-miterlimit="10.0">
    <path d="M 158.8630,267.2023 v 6.3054 "/>
  </g>
  <g stroke-linejoin="miter" stroke-opacity="0.0" fill-opacity="0.0" stroke="rgb(0,0,0)" fill-rule="evenodd" stroke-width="0.0" fill="rgb(0,0,0)" stroke-linecap="butt" stroke-miterlimit="10.0">
    <path d="M 168.5065,342.9691 l 10.2013,-10.2013 l -56.1073,-56.1073 l -10.2013,10.2013 Z"/>
  </g>
  <g stroke-linejoin="miter" stroke-opacity="1.0" fill-opacity="0.6" font-size="13.115329161420268px" stroke="rgb(0,0,0)" fill-rule="evenodd" stroke-width="0.0" fill="rgb(0,0,0)" stroke-linecap="butt" stroke-miterlimit="10.0">
    <text dominant-baseline="middle" transform="matrix(0.7071,0.7071,-0.7071,0.7071,117.4999,281.7611)" stroke="none" text-anchor="start">30 Jun 2015
    </text>
  </g>
  <g stroke-linejoin="miter" stroke-opacity="0.6" fill-opacity="0.0" stroke="rgb(0,0,0)" stroke-width="2.203830343559224" fill="rgb(0,0,0)" stroke-linecap="butt" stroke-miterlimit="10.0">
    <path d="M 118.4272,267.2023 v 6.3054 "/>
  </g>
  <g stroke-linejoin="miter" stroke-opacity="0.0" fill-opacity="0.0" stroke="rgb(0,0,0)" stroke-width="0.0" fill="rgb(0,0,0)" stroke-linecap="butt" stroke-miterlimit="10.0">
    <path d="M 427.3815,258.7950 l -0.0000,-210.1816 h -315.2723 l -0.0000,210.1816 Z"/>
  </g>
</svg>