<?xml version="1.0" encoding="UTF-8"?>
<!DOCTYPE svg PUBLIC "-//W3C//DTD SVG 1.1//EN"
    "http://www.w3.org/Graphics/SVG/1.1/DTD/svg11.dtd"><svg xmlns="http://www.w3.org/2000/svg" height="400.0000" stroke-opacity="1" viewBox="0 0 600 400" font-size="1" width="600.0000" xmlns:xlink="http://www.w3.org/1999/xlink" stroke="rgb(0,0,0)" version="1.1"><defs></defs><g stroke-linejoin="miter" stroke-opacity="0.0" fill-opacity="0.2" stroke="rgb(0,0,0)" stroke-width="0.0" fill="rgb(85,85,85)" stroke-linecap="butt" stroke-miterlimit="10.0"><path d="M 94.4056,321.6783 l -0.0000,-279.7203 h -5.5944 l -0.0000,279.7203 Z"/></g><g stroke-linejoin="miter" stroke-opacity="1.0" fill-opacity="0.7" font-size="11.188811188811187px" stroke="rgb(0,0,0)" stroke-width="1.9296726052976874" fill="rgb(51,51,51)" stroke-linecap="butt" stroke-miterlimit="10.0"><text dominant-baseline="middle" transform="matrix(1.0000,0.0000,0.0000,1.0000,80.4196,47.2554)" stroke="none" text-anchor="end">0.0020</text></g><g stroke-linejoin="miter" stroke-opacity="0.5" fill-opacity="0.0" stroke="rgb(26,102,204)" stroke-width="1.9296726052976874" fill="rgb(0,0,0)" stroke-linecap="butt" stroke-miterlimit="10.0"><path d="M 86.0140,47.2554 h 5.5944 "/></g><g stroke-linejoin="miter" stroke-opacity="1.0" fill-opacity="0.7" font-size="11.188811188811187px" stroke="rgb(0,0,0)" stroke-width="1.9296726052976874" fill="rgb(51,51,51)" stroke-linecap="butt" stroke-miterlimit="10.0"><text dominant-baseline="middle" transform="matrix(1.0000,0.0000,0.0000,1.0000,80.4196,85.0163)" stroke="none" text-anchor="end">0.0010</text></g><g stroke-linejoin="miter" stroke-opacity="0.5" fill-opacity="0.0" stroke="rgb(26,102,204)" stroke-width="1.9296726052976874" fill="rgb(0,0,0)" stroke-linecap="butt" stroke-miterlimit="10.0"><path d="M 86.0140,85.0163 h 5.5944 "/></g><g stroke-linejoin="miter" stroke-opacity="1.0" fill-opacity="0.7" font-size="11.188811188811187px" stroke="rgb(0,0,0)" stroke-width="1.9296726052976874" fill="rgb(51,51,51)" stroke-linecap="butt" stroke-miterlimit="10.0"><text dominant-baseline="middle" transform="matrix(1.0000,0.0000,0.0000,1.0000,80.4196,122.7772)" stroke="none" text-anchor="end">0.0</text></g><g stroke-linejoin="miter" stroke-opacity="0.5" fill-opacity="0.0" stroke="rgb(26,102,204)" stroke-width="1.9296726052976874" fill="rgb(0,0,0)" stroke-linecap="butt" stroke-miterlimit="10.0"><path d="M 86.0140,122.7772 h 5.5944 "/></g><g stroke-linejoin="miter" stroke-opacity="1.0" fill-opacity="0.7" font-size="11.188811188811187px" stroke="rgb(0,0,0)" stroke-width="1.9296726052976874" fill="rgb(51,51,51)" stroke-linecap="butt" stroke-miterlimit="10.0"><text dominant-baseline="middle" transform="matrix(1.0000,0.0000,0.0000,1.0000,80.4196,160.5381)" stroke="none" text-anchor="end">-0.0010</text></g><g stroke-linejoin="miter" stroke-opacity="0.5" fill-opacity="0.0" stroke="rgb(26,102,204)" stroke-width="1.9296726052976874" fill="rgb(0,0,0)" stroke-linecap="butt" stroke-miterlimit="10.0"><path d="M 86.0140,160.5381 h 5.5944 "/></g><g stroke-linejoin="miter" stroke-opacity="1.0" fill-opacity="0.7" font-size="11.188811188811187px" stroke="rgb(0,0,0)" stroke-width="1.9296726052976874" fill="rgb(51,51,51)" stroke-linecap="butt" stroke-miterlimit="10.0"><text dominant-baseline="middle" transform="matrix(1.0000,0.0000,0.0000,1.0000,80.4196,198.2990)" stroke="none" text-anchor="end">-0.0020</text></g><g stroke-linejoin="miter" stroke-opacity="0.5" fill-opacity="0.0" stroke="rgb(26,102,204)" stroke-width="1.9296726052976874" fill="rgb(0,0,0)" stroke-linecap="butt" stroke-miterlimit="10.0"><path d="M 86.0140,198.2990 h 5.5944 "/></g><g stroke-linejoin="miter" stroke-opacity="1.0" fill-opacity="0.7" font-size="11.188811188811187px" stroke="rgb(0,0,0)" stroke-width="1.9296726052976874" fill="rgb(51,51,51)" stroke-linecap="butt" stroke-miterlimit="10.0"><text dominant-baseline="middle" transform="matrix(1.0000,0.0000,0.0000,1.0000,80.4196,236.0599)" stroke="none" text-anchor="end">-0.0030</text></g><g stroke-linejoin="miter" stroke-opacity="0.5" fill-opacity="0.0" stroke="rgb(26,102,204)" stroke-width="1.9296726052976874" fill="rgb(0,0,0)" stroke-linecap="butt" stroke-miterlimit="10.0"><path d="M 86.0140,236.0599 h 5.5944 "/></g><g stroke-linejoin="miter" stroke-opacity="1.0" fill-opacity="0.7" font-size="11.188811188811187px" stroke="rgb(0,0,0)" stroke-width="1.9296726052976874" fill="rgb(51,51,51)" stroke-linecap="butt" stroke-miterlimit="10.0"><text dominant-baseline="middle" transform="matrix(1.0000,0.0000,0.0000,1.0000,80.4196,273.8208)" stroke="none" text-anchor="end">-0.0040</text></g><g stroke-linejoin="miter" stroke-opacity="0.5" fill-opacity="0.0" stroke="rgb(26,102,204)" stroke-width="1.9296726052976874" fill="rgb(0,0,0)" stroke-linecap="butt" stroke-miterlimit="10.0"><path d="M 86.0140,273.8208 h 5.5944 "/></g><g stroke-linejoin="miter" stroke-opacity="1.0" fill-opacity="0.7" font-size="11.188811188811187px" stroke="rgb(0,0,0)" stroke-width="1.9296726052976874" fill="rgb(51,51,51)" stroke-linecap="butt" stroke-miterlimit="10.0"><text dominant-baseline="middle" transform="matrix(1.0000,0.0000,0.0000,1.0000,80.4196,311.5817)" stroke="none" text-anchor="end">-0.0050</text></g><g stroke-linejoin="miter" stroke-opacity="0.5" fill-opacity="0.0" stroke="rgb(26,102,204)" stroke-width="1.9296726052976874" fill="rgb(0,0,0)" stroke-linecap="butt" stroke-miterlimit="10.0"><path d="M 86.0140,311.5817 h 5.5944 "/></g><g stroke-linejoin="miter" stroke-opacity="0.0" fill-opacity="0.2" stroke="rgb(0,0,0)" stroke-width="0.0" fill="rgb(85,85,85)" stroke-linecap="butt" stroke-miterlimit="10.0"><path d="M 527.9720,341.2587 l -0.0000,-5.5944 h -419.5804 l -0.0000,5.5944 Z"/></g><g stroke-linejoin="miter" stroke-opacity="1.0" fill-opacity="0.7" font-size="11.188811188811187px" stroke="rgb(0,0,0)" stroke-width="1.9296726052976874" fill="rgb(51,51,51)" stroke-linecap="butt" stroke-miterlimit="10.0"><text dominant-baseline="text-before-edge" transform="matrix(1.0000,0.0000,0.0000,1.0000,500.6720,349.6503)" stroke="none" text-anchor="middle">1.7e4</text></g><g stroke-linejoin="miter" stroke-opacity="0.5" fill-opacity="0.0" stroke="rgb(26,102,204)" stroke-width="1.9296726052976874" fill="rgb(0,0,0)" stroke-linecap="butt" stroke-miterlimit="10.0"><path d="M 500.6720,338.4615 v 5.5944 "/></g><g stroke-linejoin="miter" stroke-opacity="1.0" fill-opacity="0.7" font-size="11.188811188811187px" stroke="rgb(0,0,0)" stroke-width="1.9296726052976874" fill="rgb(51,51,51)" stroke-linecap="butt" stroke-miterlimit="10.0"><text dominant-baseline="text-before-edge" transform="matrix(1.0000,0.0000,0.0000,1.0000,458.6720,349.6503)" stroke="none" text-anchor="middle">1.7e4</text></g><g stroke-linejoin="miter" stroke-opacity="0.5" fill-opacity="0.0" stroke="rgb(26,102,204)" stroke-width="1.9296726052976874" fill="rgb(0,0,0)" stroke-linecap="butt" stroke-miterlimit="10.0"><path d="M 458.6720,338.4615 v 5.5944 "/></g><g stroke-linejoin="miter" stroke-opacity="1.0" fill-opacity="0.7" font-size="11.188811188811187px" stroke="rgb(0,0,0)" stroke-width="1.9296726052976874" fill="rgb(51,51,51)" stroke-linecap="butt" stroke-miterlimit="10.0"><text dominant-baseline="text-before-edge" transform="matrix(1.0000,0.0000,0.0000,1.0000,416.6719,349.6503)" stroke="none" text-anchor="middle">1.7e4</text></g><g stroke-linejoin="miter" stroke-opacity="0.5" fill-opacity="0.0" stroke="rgb(26,102,204)" stroke-width="1.9296726052976874" fill="rgb(0,0,0)" stroke-linecap="butt" stroke-miterlimit="10.0"><path d="M 416.6719,338.4615 v 5.5944 "/></g><g stroke-linejoin="miter" stroke-opacity="1.0" fill-opacity="0.7" font-size="11.188811188811187px" stroke="rgb(0,0,0)" stroke-width="1.9296726052976874" fill="rgb(51,51,51)" stroke-linecap="butt" stroke-miterlimit="10.0"><text dominant-baseline="text-before-edge" transform="matrix(1.0000,0.0000,0.0000,1.0000,374.6719,349.6503)" stroke="none" text-anchor="middle">1.7e4</text></g><g stroke-linejoin="miter" stroke-opacity="0.5" fill-opacity="0.0" stroke="rgb(26,102,204)" stroke-width="1.9296726052976874" fill="rgb(0,0,0)" stroke-linecap="butt" stroke-miterlimit="10.0"><path d="M 374.6719,338.4615 v 5.5944 "/></g><g stroke-linejoin="miter" stroke-opacity="1.0" fill-opacity="0.7" font-size="11.188811188811187px" stroke="rgb(0,0,0)" stroke-width="1.9296726052976874" fill="rgb(51,51,51)" stroke-linecap="butt" stroke-miterlimit="10.0"><text dominant-baseline="text-before-edge" transform="matrix(1.0000,0.0000,0.0000,1.0000,332.6718,349.6503)" stroke="none" text-anchor="middle">1.7e4</text></g><g stroke-linejoin="miter" stroke-opacity="0.5" fill-opacity="0.0" stroke="rgb(26,102,204)" stroke-width="1.9296726052976874" fill="rgb(0,0,0)" stroke-linecap="butt" stroke-miterlimit="10.0"><path d="M 332.6718,338.4615 v 5.5944 "/></g><g stroke-linejoin="miter" stroke-opacity="1.0" fill-opacity="0.7" font-size="11.188811188811187px" stroke="rgb(0,0,0)" stroke-width="1.9296726052976874" fill="rgb(51,51,51)" stroke-linecap="butt" stroke-miterlimit="10.0"><text dominant-baseline="text-before-edge" transform="matrix(1.0000,0.0000,0.0000,1.0000,290.6718,349.6503)" stroke="none" text-anchor="middle">1.6e4</text></g><g stroke-linejoin="miter" stroke-opacity="0.5" fill-opacity="0.0" stroke="rgb(26,102,204)" stroke-width="1.9296726052976874" fill="rgb(0,0,0)" stroke-linecap="butt" stroke-miterlimit="10.0"><path d="M 290.6718,338.4615 v 5.5944 "/></g><g stroke-linejoin="miter" stroke-opacity="1.0" fill-opacity="0.7" font-size="11.188811188811187px" stroke="rgb(0,0,0)" stroke-width="1.9296726052976874" fill="rgb(51,51,51)" stroke-linecap="butt" stroke-miterlimit="10.0"><text dominant-baseline="text-before-edge" transform="matrix(1.0000,0.0000,0.0000,1.0000,248.6717,349.6503)" stroke="none" text-anchor="middle">1.6e4</text></g><g stroke-linejoin="miter" stroke-opacity="0.5" fill-opacity="0.0" stroke="rgb(26,102,204)" stroke-width="1.9296726052976874" fill="rgb(0,0,0)" stroke-linecap="butt" stroke-miterlimit="10.0"><path d="M 248.6717,338.4615 v 5.5944 "/></g><g stroke-linejoin="miter" stroke-opacity="1.0" fill-opacity="0.7" font-size="11.188811188811187px" stroke="rgb(0,0,0)" stroke-width="1.9296726052976874" fill="rgb(51,51,51)" stroke-linecap="butt" stroke-miterlimit="10.0"><text dominant-baseline="text-before-edge" transform="matrix(1.0000,0.0000,0.0000,1.0000,206.6717,349.6503)" stroke="none" text-anchor="middle">1.6e4</text></g><g stroke-linejoin="miter" stroke-opacity="0.5" fill-opacity="0.0" stroke="rgb(26,102,204)" stroke-width="1.9296726052976874" fill="rgb(0,0,0)" stroke-linecap="butt" stroke-miterlimit="10.0"><path d="M 206.6717,338.4615 v 5.5944 "/></g><g stroke-linejoin="miter" stroke-opacity="1.0" fill-opacity="0.7" font-size="11.188811188811187px" stroke="rgb(0,0,0)" stroke-width="1.9296726052976874" fill="rgb(51,51,51)" stroke-linecap="butt" stroke-miterlimit="10.0"><text dominant-baseline="text-before-edge" transform="matrix(1.0000,0.0000,0.0000,1.0000,164.6717,349.6503)" stroke="none" text-anchor="middle">1.6e4</text></g><g stroke-linejoin="miter" stroke-opacity="0.5" fill-opacity="0.0" stroke="rgb(26,102,204)" stroke-width="1.9296726052976874" fill="rgb(0,0,0)" stroke-linecap="butt" stroke-miterlimit="10.0"><path d="M 164.6717,338.4615 v 5.5944 "/></g><g stroke-linejoin="miter" stroke-opacity="1.0" fill-opacity="0.7" font-size="11.188811188811187px" stroke="rgb(0,0,0)" stroke-width="1.9296726052976874" fill="rgb(51,51,51)" stroke-linecap="butt" stroke-miterlimit="10.0"><text dominant-baseline="text-before-edge" transform="matrix(1.0000,0.0000,0.0000,1.0000,122.6716,349.6503)" stroke="none" text-anchor="middle">1.6e4</text></g><g stroke-linejoin="miter" stroke-opacity="0.5" fill-opacity="0.0" stroke="rgb(26,102,204)" stroke-width="1.9296726052976874" fill="rgb(0,0,0)" stroke-linecap="butt" stroke-miterlimit="10.0"><path d="M 122.6716,338.4615 v 5.5944 "/></g><g stroke-linejoin="miter" stroke-opacity="0.0" fill-opacity="2.0e-2" stroke="rgb(0,0,0)" stroke-width="0.0" fill="rgb(255,255,255)" stroke-linecap="butt" stroke-miterlimit="10.0"><path d="M 527.9720,321.6783 l -0.0000,-279.7203 h -419.5804 l -0.0000,279.7203 Z"/></g><g stroke-linejoin="miter" stroke-opacity="1.0" fill-opacity="0.0" stroke="rgb(250,165,218)" stroke-width="0.48241815132442184" fill="rgb(0,0,0)" stroke-linecap="butt" stroke-miterlimit="10.0"><path d="M 108.3916,164.8264 l 0.4200,-7.1451 l 0.4200,21.3578 l 0.4200,-20.6871 l 0.4200,-19.8111 l 0.4200,-12.4601 l 0.4200,7.9543 l 0.4200,-10.7391 l 0.4200,1.0041 l 0.4200,-1.6307 l 0.4200,-19.1601 l 0.4200,-8.9264 l 0.4200,-12.1909 l 0.4200,1.6737 l 0.4200,-23.4785 l 0.4200,-2.7091 l 0.4200,0.6488 l 0.4200,10.2188 l 0.4200,-2.5291 l 0.4200,-6.6481 l 0.4200,0.1216 l 0.4200,-0.6809 l 0.4200,6.6817 l 0.4200,10.0561 l 0.4200,-2.4695 l 0.4200,0.9100 l 0.4200,9.4914 l 0.4200,1.2481 l 0.4200,2.1489 l 0.4200,-21.7456 l 0.4200,-0.2236 l 0.4200,5.6743 l 0.4200,13.4282 l 0.4200,9.1266 l 0.4200,-5.8519 l 0.4200,8.5169 l 0.4200,3.5180 l 0.4200,-4.0732 l 0.4200,11.1691 l 0.4200,27.9877 l 0.4200,5.6679 l 0.4200,10.3127 l 0.4200,-8.6050 l 0.4200,9.9933 l 0.4200,-17.6819 l 0.4200,-8.0168 l 0.4200,7.4711 l 0.4200,29.6767 l 0.4200,-7.2186 l 0.4200,-5.3769 l 0.4200,4.6023 l 0.4200,-9.4807 l 0.4200,-16.4238 l 0.4200,-2.6200 l 0.4200,-0.3088 l 0.4200,-18.9647 l 0.4200,-13.0610 l 0.4200,-4.3439 l 0.4200,8.0187 l 0.4200,-3.8920 l 0.4200,-9.2963 l 0.4200,-6.0595 l 0.4200,-20.6572 l 0.4200,6.7009 l 0.4200,16.5523 l 0.4200,10.9865 l 0.4200,6.4180 l 0.4200,6.3674 l 0.4200,-5.6990 l 0.4200,8.8618 l 0.4200,12.1315 l 0.4200,-14.9395 l 0.4200,2.1118 l 0.4200,17.7783 l 0.4200,-13.4156 l 0.4200,16.6601 l 0.4200,23.1339 l 0.4200,-2.5442 l 0.4200,-42.1238 l 0.4200,-11.0591 l 0.4200,-6.3523 l 0.4200,15.0215 l 0.4200,-25.0352 l 0.4200,-10.5436 l 0.4200,-9.6484 l 0.4200,2.9769 l 0.4200,-7.7920 l 0.4200,12.3233 l 0.4200,-3.3623 l 0.4200,-5.3301 l 0.4200,0.7025 l 0.4200,-7.3304 l 0.4200,12.7585 l 0.4200,10.1608 l 0.4200,-3.0755 l 0.4200,-4.1763 l 0.4200,8.0592 l 0.4200,-5.6775 l 0.4200,27.6808 l 0.4200,-23.9358 l 0.4200,1.0878 l 0.4200,6.8765 l 0.4200,-13.1665 l 0.4200,-6.3940 l 0.4200,-4.9174 l 0.4200,10.2633 l 0.4200,6.6226 l 0.4200,9.3083 l 0.4200,-13.3175 l 0.4200,-6.7063 l 0.4200,5.3526 l 0.4200,2.4183 l 0.4200,-2.1037 l 0.4200,4.1687 l 0.4200,7.6171 l 0.4200,8.1374 l 0.4200,4.1574 l 0.4200,9.7040 l 0.4200,-20.1248 l 0.4200,-1.4237 l 0.4200,8.0886 l 0.4200,23.1724 l 0.4200,7.6623 l 0.4200,0.3251 l 0.4200,-11.7974 l 0.4200,6.5754 l 0.4200,-30.8308 l 0.4200,3.0099 l 0.4200,-7.3109 l 0.4200,-7.8813 l 0.4200,-2.9706 l 0.4200,-6.2603 l 0.4200,3.6182 l 0.4200,3.1410 l 0.4200,-4.8096 l 0.4200,19.6764 l 0.4200,2.5340 l 0.4200,6.5284 l 0.4200,-10.0008 l 0.4200,2.3525 l 0.4200,1.1770 l 0.4200,-2.5750 l 0.4200,25.8006 l 0.4200,-19.7254 l 0.4200,-8.1309 l 0.4200,4.5506 l 0.4200,9.1488 l 0.4200,-3.9089 l 0.4200,0.4330 l 0.4200,18.3626 l 0.4200,40.4696 l 0.4200,7.8021 l 0.4200,-13.4249 l 0.4200,18.2352 l 0.4200,-23.2613 l 0.4200,11.3439 l 0.4200,42.1591 l 0.4200,-17.9817 l 0.4200,1.1457 l 0.4200,-26.0947 l 0.4200,-26.3909 l 0.4200,-3.0813 l 0.4200,-20.7383 l 0.4200,1.5767 l 0.4200,-9.9475 l 0.4200,-7.5707 l 0.4200,-0.3209 l 0.4200,14.2371 l 0.4200,-10.1825 l 0.4200,5.3037 l 0.4200,-10.2291 l 0.4200,4.4699 l 0.4200,1.6602 l 0.4200,-7.6988 l 0.4200,-3.2419 l 0.4200,16.1420 l 0.4200,-27.2457 l 0.4200,2.8197 l 0.4200,-0.6616 l 0.4200,1.5963 l 0.4200,3.4060 l 0.4200,11.9767 l 0.4200,1.1878 l 0.4200,23.9230 l 0.4200,5.8477 l 0.4200,-17.8548 l 0.4200,-12.4734 l 0.4200,13.3417 l 0.4200,-10.3054 l 0.4200,7.1246 l 0.4200,10.4324 l 0.4200,-7.5946 l 0.4200,14.3478 l 0.4200,3.9599 l 0.4200,-8.5755 l 0.4200,-14.3086 l 0.4200,-11.9313 l 0.4200,-3.4704 l 0.4200,4.2071 l 0.4200,25.6816 l 0.4200,21.0034 l 0.4200,-7.5332 l 0.4200,-20.5979 l 0.4200,40.7954 l 0.4200,16.9233 l 0.4200,-17.4047 l 0.4200,-13.7896 l 0.4200,-20.0848 l 0.4200,-1.9512 l 0.4200,-6.3947 l 0.4200,-6.6711 l 0.4200,5.5539 l 0.4200,-2.1443 l 0.4200,16.5475 l 0.4200,-5.7248 l 0.4200,-8.3061 l 0.4200,-4.5642 l 0.4200,1.5740 l 0.4200,3.7723 l 0.4200,-2.4924 l 0.4200,18.2059 l 0.4200,-10.3239 l 0.4200,3.3632 l 0.4200,-2.2667 l 0.4200,-17.4622 l 0.4200,0.7888 l 0.4200,10.4388 l 0.4200,18.7816 l 0.4200,-6.9760 l 0.4200,-6.8111 l 0.4200,13.0846 l 0.4200,-15.1440 l 0.4200,-3.5768 l 0.4200,-6.9469 l 0.4200,-9.8648 l 0.4200,3.9992 l 0.4200,-8.4052 l 0.4200,-1.3591 l 0.4200,0.8114 l 0.4200,2.8591 l 0.4200,-1.5653 l 0.4200,-10.1929 l 0.4200,-6.1205 l 0.4200,1.1239 l 0.4200,3.3013 l 0.4200,9.3561 l 0.4200,15.6297 l 0.4200,-4.4836 l 0.4200,0.0705 l 0.4200,-2.4511 l 0.4200,-12.7463 l 0.4200,-0.0043 l 0.4200,-0.8566 l 0.4200,2.6972 l 0.4200,14.4942 l 0.4200,-7.6354 l 0.4200,4.1969 l 0.4200,-1.8429 l 0.4200,2.5560 l 0.4200,-10.8401 l 0.4200,1.0236 l 0.4200,-8.0962 l 0.4200,10.0336 l 0.4200,15.4690 l 0.4200,-7.4057 l 0.4200,9.5333 l 0.4200,-1.5352 l 0.4200,-7.8099 l 0.4200,5.3586 l 0.4200,-6.4783 l 0.4200,24.2381 l 0.4200,-18.7539 l 0.4200,5.8758 l 0.4200,-8.2559 l 0.4200,-1.7024 l 0.4200,0.7708 l 0.4200,10.8313 l 0.4200,0.5708 l 0.4200,9.6609 l 0.4200,0.4909 l 0.4200,38.7663 l 0.4200,4.0515 l 0.4200,-15.1163 l 0.4200,17.5877 l 0.4200,-1.7191 l 0.4200,8.9264 l 0.4200,-23.7125 l 0.4200,-6.0651 l 0.4200,2.5358 l 0.4200,-13.3082 l 0.4200,-8.2073 l 0.4200,0.5065 l 0.4200,-15.6748 l 0.4200,-8.2686 l 0.4200,-3.1101 l 0.4200,-3.8431 l 0.4200,5.6733 l 0.4200,-7.3902 l 0.4200,0.0119 l 0.4200,1.8996 l 0.4200,5.0912 l 0.4200,-4.6121 l 0.4200,2.9023 l 0.4200,3.2014 l 0.4200,4.4689 l 0.4200,-8.1356 l 0.4200,7.5626 l 0.4200,13.7719 l 0.4200,-6.1848 l 0.4200,-0.6675 l 0.4200,12.3218 l 0.4200,1.7566 l 0.4200,-13.7563 l 0.4200,-1.4306 l 0.4200,-8.1264 l 0.4200,2.3923 l 0.4200,16.5593 l 0.4200,11.4862 l 0.4200,-14.7676 l 0.4200,31.4901 l 0.4200,-17.0000 l 0.4200,4.8021 l 0.4200,5.0154 l 0.4200,24.6880 l 0.4200,-1.7507 l 0.4200,-22.6270 l 0.4200,2.4371 l 0.4200,28.1391 l 0.4200,-34.7417 l 0.4200,39.1076 l 0.4200,19.4817 l 0.4200,28.1073 l 0.4200,-7.6281 l 0.4200,11.0819 l 0.4200,-5.0939 l 0.4200,-28.7155 l 0.4200,-20.3019 l 0.4200,-38.7037 l 0.4200,13.6537 l 0.4200,-23.9512 l 0.4200,-12.9420 l 0.4200,3.8176 l 0.4200,-21.6265 l 0.4200,4.4886 l 0.4200,-10.0841 l 0.4200,-19.8757 l 0.4200,3.3705 l 0.4200,8.3272 l 0.4200,-8.1724 l 0.4200,-4.1456 l 0.4200,2.5159 l 0.4200,-2.8307 l 0.4200,1.8765 l 0.4200,4.4206 l 0.4200,1.8761 l 0.4200,2.3286 l 0.4200,1.2782 l 0.4200,-7.0629 l 0.4200,5.7895 l 0.4200,-1.0435 l 0.4200,-7.1398 l 0.4200,-2.3225 l 0.4200,5.3612 l 0.4200,-2.3653 l 0.4200,7.8438 l 0.4200,15.5816 l 0.4200,-10.1445 l 0.4200,-4.7155 l 0.4200,4.8066 l 0.4200,-0.7680 l 0.4200,16.1574 l 0.4200,2.0533 l 0.4200,32.6340 l 0.4200,-8.6823 l 0.4200,31.1893 l 0.4200,10.7706 l 0.4200,14.3166 l 0.4200,-40.6015 l 0.4200,-45.3045 l 0.4200,-6.8240 l 0.4200,-5.0548 l 0.4200,-0.9170 l 0.4200,2.6849 l 0.4200,-3.9480 l 0.4200,0.8596 l 0.4200,11.6909 l 0.4200,21.4239 l 0.4200,1.4322 l 0.4200,35.5583 l 0.4200,15.8245 l 0.4200,-23.7035 l 0.4200,-34.1564 l 0.4200,16.9746 l 0.4200,15.5413 l 0.4200,4.2954 l 0.4200,10.2158 l 0.4200,16.2425 l 0.4200,-27.3085 l 0.4200,-3.6788 l 0.4200,-9.4843 l 0.4200,-28.7113 l 0.4200,11.7308 l 0.4200,-4.0930 l 0.4200,26.3999 l 0.4200,25.2944 l 0.4200,-19.5465 l 0.4200,24.0430 l 0.4200,-26.1699 l 0.4200,-27.6121 l 0.4200,8.6960 l 0.4200,-18.9314 l 0.4200,7.8078 l 0.4200,8.9898 l 0.4200,-19.5424 l 0.4200,1.5357 l 0.4200,-16.7146 l 0.4200,-5.4360 l 0.4200,-0.5017 l 0.4200,3.1295 l 0.4200,4.3854 l 0.4200,-9.3661 l 0.4200,3.2015 l 0.4200,-2.7295 l 0.4200,4.0511 l 0.4200,5.1909 l 0.4200,7.7319 l 0.4200,-9.7676 l 0.4200,10.8305 l 0.4200,10.0077 l 0.4200,-1.0509 l 0.4200,28.2118 l 0.4200,-7.5869 l 0.4200,32.5429 l 0.4200,2.2306 l 0.4200,-25.1724 l 0.4200,11.2581 l 0.4200,-26.2052 l 0.4200,6.7749 l 0.4200,-22.6636 l 0.4200,10.5086 l 0.4200,-16.1766 l 0.4200,4.8688 l 0.4200,12.9530 l 0.4200,28.3730 l 0.4200,3.7630 l 0.4200,-5.3902 l 0.4200,-23.6231 l 0.4200,17.2061 l 0.4200,7.1707 l 0.4200,-7.3445 l 0.4200,-12.7627 l 0.4200,4.2095 l 0.4200,-4.9558 l 0.4200,-8.0477 l 0.4200,-9.0460 l 0.4200,9.8707 l 0.4200,-2.3643 l 0.4200,-8.8662 l 0.4200,2.7407 l 0.4200,22.6081 l 0.4200,-17.3531 l 0.4200,3.6687 l 0.4200,-8.8922 l 0.4200,-3.3133 l 0.4200,-2.9499 l 0.4200,9.2779 l 0.4200,-4.2387 l 0.4200,8.2672 l 0.4200,20.0017 l 0.4200,-20.7352 l 0.4200,-4.7265 l 0.4200,23.5323 l 0.4200,8.3144 l 0.4200,-7.6492 l 0.4200,-25.3995 l 0.4200,10.7447 l 0.4200,6.1542 l 0.4200,0.8461 l 0.4200,-20.0174 l 0.4200,-0.2237 l 0.4200,-4.5069 l 0.4200,2.6773 l 0.4200,3.0861 l 0.4200,-3.2328 l 0.4200,5.5575 l 0.4200,20.5692 l 0.4200,-17.1931 l 0.4200,3.2834 l 0.4200,12.6942 l 0.4200,-3.7911 l 0.4200,2.1888 l 0.4200,-3.8233 l 0.4200,16.7183 l 0.4200,2.2464 l 0.4200,11.6881 l 0.4200,-1.9559 l 0.4200,-23.6771 l 0.4200,-3.1665 l 0.4200,13.5236 l 0.4200,8.3460 l 0.4200,-11.5341 l 0.4200,-3.9786 l 0.4200,-18.6514 l 0.4200,10.9236 l 0.4200,-11.1326 l 0.4200,-0.3048 l 0.4200,14.8433 l 0.4200,5.7926 l 0.4200,0.6176 l 0.4200,39.6666 l 0.4200,-7.1441 l 0.4200,-14.8248 l 0.4200,-0.4516 l 0.4200,6.2941 l 0.4200,-12.7709 l 0.4200,31.0166 l 0.4200,-6.5021 l 0.4200,-25.0590 l 0.4200,-21.4379 l 0.4200,-7.9817 l 0.4200,2.1950 l 0.4200,-14.3759 l 0.4200,-0.6723 l 0.4200,-0.0064 l 0.4200,9.5131 l 0.4200,5.4881 l 0.4200,11.4477 l 0.4200,20.4467 l 0.4200,10.0445 l 0.4200,-24.6345 l 0.4200,-13.9307 l 0.4200,0.4786 l 0.4200,4.8019 l 0.4200,5.4811 l 0.4200,4.2476 l 0.4200,-6.0882 l 0.4200,14.7821 l 0.4200,4.7852 l 0.4200,-24.9177 l 0.4200,18.4850 l 0.4200,-2.3609 l 0.4200,1.9588 l 0.4200,-7.9195 l 0.4200,-9.9669 l 0.4200,5.3078 l 0.4200,15.7297 l 0.4200,39.5573 l 0.4200,58.4136 l 0.4200,70.2469 l 0.4200,16.5455 l 0.4200,-82.0886 l 0.4200,-51.1033 l 0.4200,-4.4254 l 0.4200,12.8476 l 0.4200,52.9518 l 0.4200,-40.5112 l 0.4200,-6.5125 l 0.4200,25.1544 l 0.4200,-51.9623 l 0.4200,23.7640 l 0.4200,-13.7722 l 0.4200,-11.6045 l 0.4200,5.1602 l 0.4200,-26.9025 l 0.4200,-17.8693 l 0.4200,4.2398 l 0.4200,29.9745 l 0.4200,-10.9088 l 0.4200,21.6435 l 0.4200,1.0287 l 0.4200,3.4647 l 0.4200,-2.1870 l 0.4200,46.1181 l 0.4200,-7.5779 l 0.4200,-40.5031 l 0.4200,-6.5825 l 0.4200,-29.3717 l 0.4200,-35.3283 l 0.4200,7.4858 l 0.4200,-14.8185 l 0.4200,-15.5469 l 0.4200,0.4662 l 0.4200,-0.5950 l 0.4200,14.7910 l 0.4200,10.0380 l 0.4200,-27.2475 l 0.4200,-6.6495 l 0.4200,1.7891 l 0.4200,4.8970 l 0.4200,13.0006 l 0.4200,-29.8270 l 0.4200,-17.9099 l 0.4200,7.3209 l 0.4200,8.1660 l 0.4200,-19.2935 l 0.4200,4.7432 l 0.4200,12.7567 l 0.4200,-19.2625 l 0.4200,-1.1605 l 0.4200,10.7408 l 0.4200,5.6391 l 0.4200,3.8756 l 0.4200,21.6553 l 0.4200,-0.9054 l 0.4200,8.0928 l 0.4200,28.1844 l 0.4200,21.4633 l 0.4200,-28.8404 l 0.4200,3.0767 l 0.4200,-29.8846 l 0.4200,4.0052 l 0.4200,-5.4950 l 0.4200,4.2909 l 0.4200,-0.5611 l 0.4200,2.0162 l 0.4200,0.5515 l 0.4200,10.4261 l 0.4200,-18.9358 l 0.4200,22.9387 l 0.4200,28.2628 l 0.4200,-38.8708 l 0.4200,14.6946 l 0.4200,13.0152 l 0.4200,14.7446 l 0.4200,-4.9138 l 0.4200,36.6271 l 0.4200,-11.2160 l 0.4200,-21.6424 l 0.4200,-27.8229 l 0.4200,29.3914 l 0.4200,33.2251 l 0.4200,-16.9804 l 0.4200,-18.0741 l 0.4200,-23.8990 l 0.4200,3.6166 l 0.4200,4.5333 l 0.4200,-19.7742 l 0.4200,14.8504 l 0.4200,18.2893 l 0.4200,28.6430 l 0.4200,-5.7020 l 0.4200,23.3059 l 0.4200,42.4979 l 0.4200,15.6518 l 0.4200,-7.3091 l 0.4200,-19.9945 l 0.4200,43.3720 l 0.4200,-37.7198 l 0.4200,36.5816 l 0.4200,-7.4388 l 0.4200,16.1131 l 0.4200,-16.6353 l 0.4200,-43.8953 l 0.4200,25.8946 l 0.4200,-31.6252 l 0.4200,17.0537 l 0.4200,-14.8111 l 0.4200,-49.8293 l 0.4200,-0.3506 l 0.4200,34.5781 l 0.4200,-12.2936 l 0.4200,-5.1617 l 0.4200,33.2060 l 0.4200,23.2207 l 0.4200,-3.5831 l 0.4200,-4.3002 l 0.4200,18.9039 l 0.4200,-41.8237 l 0.4200,-34.2247 l 0.4200,-32.4884 l 0.4200,8.8673 l 0.4200,-0.3704 l 0.4200,-27.5295 l 0.4200,24.6804 l 0.4200,-8.6296 l 0.4200,-21.1549 l 0.4200,4.7720 l 0.4200,16.4072 l 0.4200,-44.3934 l 0.4200,-5.3280 l 0.4200,-3.9373 l 0.4200,-3.3753 l 0.4200,1.3592 l 0.4200,24.3143 l 0.4200,-7.7739 l 0.4200,1.8384 l 0.4200,-28.6682 l 0.4200,5.8581 l 0.4200,6.6531 l 0.4200,-7.6948 l 0.4200,-9.1756 l 0.4200,-4.6049 l 0.4200,2.0636 l 0.4200,5.4757 l 0.4200,15.6355 l 0.4200,3.4770 l 0.4200,1.5607 l 0.4200,-14.0567 l 0.4200,-4.9780 l 0.4200,7.3155 l 0.4200,-8.8127 l 0.4200,9.6007 l 0.4200,22.2996 l 0.4200,-17.7896 l 0.4200,25.5701 l 0.4200,-3.6989 l 0.4200,6.9199 l 0.4200,-16.7627 l 0.4200,-16.6266 l 0.4200,2.7349 l 0.4200,4.7831 l 0.4200,-9.6189 l 0.4200,-2.6451 l 0.4200,1.8618 l 0.4200,13.0314 l 0.4200,2.4647 l 0.4200,5.8558 l 0.4200,-1.3925 l 0.4200,-0.9019 l 0.4200,19.7622 l 0.4200,10.8568 l 0.4200,-13.9744 l 0.4200,17.8829 l 0.4200,11.7825 l 0.4200,0.3927 l 0.4200,-6.0691 l 0.4200,-1.1985 l 0.4200,-23.1545 l 0.4200,19.5817 l 0.4200,0.7835 l 0.4200,16.5079 l 0.4200,-18.8227 l 0.4200,18.3990 l 0.4200,-0.7675 l 0.4200,6.6740 l 0.4200,-12.0138 l 0.4200,3.8682 l 0.4200,-25.9344 l 0.4200,-12.0956 l 0.4200,2.0282 l 0.4200,-6.5453 l 0.4200,3.7548 l 0.4200,-0.4722 l 0.4200,-3.6316 l 0.4200,7.3779 l 0.4200,-7.7165 l 0.4200,-0.5411 l 0.4200,-4.3180 l 0.4200,5.3782 l 0.4200,19.2629 l 0.4200,16.2915 l 0.4200,3.4918 l 0.4200,3.3964 l 0.4200,-6.1643 l 0.4200,6.2177 l 0.4200,-11.1975 l 0.4200,-4.8127 l 0.4200,3.6639 l 0.4200,-24.7110 l 0.4200,70.6392 l 0.4200,32.5825 l 0.4200,-36.8521 l 0.4200,-59.0638 l 0.4200,-2.4498 l 0.4200,14.3183 l 0.4200,-9.4450 l 0.4200,2.7510 l 0.4200,-27.6112 l 0.4200,-4.0776 l 0.4200,-10.6327 l 0.4200,2.8256 l 0.4200,-6.9579 l 0.4200,5.0402 l 0.4200,-1.4538 l 0.4200,5.8177 l 0.4200,-5.2221 l 0.4200,9.9064 l 0.4200,-5.9895 l 0.4200,8.5739 l 0.4200,1.8467 l 0.4200,4.6271 l 0.4200,-0.8962 l 0.4200,-0.8987 l 0.4200,4.6210 l 0.4200,14.0399 l 0.4200,-4.6169 l 0.4200,1.1214 l 0.4200,-14.7102 l 0.4200,3.9131 l 0.4200,1.2694 l 0.4200,7.3575 l 0.4200,-7.3441 l 0.4200,3.4446 l 0.4200,-3.4962 l 0.4200,12.3155 l 0.4200,-2.1958 l 0.4200,-2.7100 l 0.4200,4.2962 l 0.4200,2.4247 l 0.4200,-2.4433 l 0.4200,11.2840 l 0.4200,3.3802 l 0.4200,3.6159 l 0.4200,-9.4045 l 0.4200,4.6124 l 0.4200,5.1822 l 0.4200,0.5077 l 0.4200,-7.5169 l 0.4200,-4.8445 l 0.4200,1.2971 l 0.4200,5.1588 l 0.4200,47.5944 l 0.4200,-29.2352 l 0.4200,28.0122 l 0.4200,-0.5062 l 0.4200,-20.5985 l 0.4200,6.5753 l 0.4200,-0.8566 l 0.4200,-1.4141 l 0.4200,-21.2844 l 0.4200,-11.9491 l 0.4200,11.7414 l 0.4200,16.5787 l 0.4200,-12.6634 l 0.4200,-9.8758 l 0.4200,18.2725 l 0.4200,-15.3066 l 0.4200,6.6095 l 0.4200,9.4935 l 0.4200,-8.4561 l 0.4200,-0.8474 l 0.4200,6.2569 l 0.4200,-8.8851 l 0.4200,23.8822 l 0.4200,-3.1204 l 0.4200,5.0602 l 0.4200,-1.4345 l 0.4200,4.7623 l 0.4200,-12.8159 l 0.4200,-4.7145 l 0.4200,2.2540 l 0.4200,-0.2989 l 0.4200,-9.3894 l 0.4200,7.2098 l 0.4200,2.9547 l 0.4200,5.1658 l 0.4200,5.1379 l 0.4200,-0.7654 l 0.4200,11.8982 l 0.4200,10.8054 l 0.4200,6.2740 l 0.4200,0.7401 l 0.4200,-43.9212 l 0.4200,-7.3581 l 0.4200,-20.6847 l 0.4200,-2.5303 l 0.4200,3.9195 l 0.4200,1.3000 l 0.4200,-13.0562 l 0.4200,4.6600 l 0.4200,-7.3719 l 0.4200,6.3174 l 0.4200,-12.5443 l 0.4200,-1.9661 l 0.4200,0.6910 l 0.4200,-5.1930 l 0.4200,12.3839 l 0.4200,-0.6974 l 0.4200,6.8712 l 0.4200,8.1606 l 0.4200,0.3559 l 0.4200,-9.8704 l 0.4200,-4.8468 l 0.4200,-22.8595 l 0.4200,-1.1049 l 0.4200,-8.1513 l 0.4200,5.5735 l 0.4200,-9.1482 l 0.4200,18.9767 l 0.4200,-4.6556 l 0.4200,6.1956 l 0.4200,-1.1428 l 0.4200,-4.2136 l 0.4200,7.4900 l 0.4200,5.9931 l 0.4200,-0.1861 l 0.4200,-2.0547 l 0.4200,18.1251 l 0.4200,1.9362 l 0.4200,10.0638 l 0.4200,-15.1830 l 0.4200,-9.2334 l 0.4200,3.4569 l 0.4200,-4.7988 l 0.4200,8.7786 l 0.4200,1.6306 l 0.4200,-3.7864 l 0.4200,5.7919 l 0.4200,-2.0409 l 0.4200,7.1628 l 0.4200,-2.1350 l 0.4200,8.1291 l 0.4200,-5.4547 l 0.4200,6.2544 l 0.4200,-11.5072 l 0.4200,-13.6663 l 0.4200,3.4985 l 0.4200,3.5718 l 0.4200,13.1363 l 0.4200,2.7840 l 0.4200,0.3998 l 0.4200,-0.1337 l 0.4200,-12.7239 l 0.4200,5.5823 l 0.4200,0.8778 l 0.4200,-0.0465 l 0.4200,-9.5675 l 0.4200,-4.9771 l 0.4200,-7.8828 l 0.4200,-5.1601 l 0.4200,-6.7500 l 0.4200,4.6071 l 0.4200,-0.4148 l 0.4200,-8.6027 l 0.4200,5.2383 l 0.4200,2.1467 l 0.4200,0.0153 l 0.4200,0.9100 l 0.4200,7.6535 l 0.4200,-23.2278 l 0.4200,14.6348 l 0.4200,1.8801 l 0.4200,8.9299 l 0.4200,7.7997 l 0.4200,6.2227 l 0.4200,0.0825 l 0.4200,-4.5769 l 0.4200,1.1246 l 0.4200,8.1546 l 0.4200,-14.4072 l 0.4200,5.1458 l 0.4200,4.2998 l 0.4200,5.4027 l 0.4200,24.9287 l 0.4200,-3.4872 l 0.4200,2.2668 l 0.4200,1.7430 l 0.4200,1.9874 l 0.4200,-13.7007 l 0.4200,-1.4047 l 0.4200,-4.8220 l 0.4200,5.2196 l 0.4200,3.7995 l 0.4200,-0.5519 l 0.4200,6.3123 l 0.4200,-3.4254 l 0.4200,1.9512 l 0.4200,-1.0083 l 0.4200,3.0513 l 0.4200,7.3043 l 0.4200,12.7418 l 0.4200,-17.0226 l 0.4200,5.5288 l 0.4200,3.0052 l 0.4200,-14.6114 l 0.4200,6.0806 l 0.4200,-20.3249 l 0.4200,-10.4111 l 0.4200,2.4890 l 0.4200,0.4044 l 0.4200,5.0421 l 0.4200,-2.0916 l 0.4200,-0.9630 l 0.4200,3.7297 l 0.4200,0.0435 l 0.4200,-6.5630 l 0.4200,1.3970 l 0.4200,3.3341 l 0.4200,-0.9016 l 0.4200,5.3636 l 0.4200,3.8021 l 0.4200,-8.1791 l 0.4200,2.5243 l 0.4200,35.7358 l 0.4200,-7.6381 l 0.4200,-13.0442 l 0.4200,-9.3707 l 0.4200,-2.6499 l 0.4200,-3.7443 l 0.4200,-7.2305 l 0.4200,0.9111 l 0.4200,3.7266 l 0.4200,2.1341 l 0.4200,-13.0794 l 0.4200,-5.1708 l 0.4200,4.3692 l 0.4200,7.1034 l 0.4200,-1.4600 l 0.4200,1.0663 l 0.4200,3.0846 "/></g><g stroke-linejoin="miter" stroke-opacity="1.0" fill-opacity="0.0" stroke="rgb(93,165,218)" stroke-width="0.48241815132442184" fill="rgb(0,0,0)" stroke-linecap="butt" stroke-miterlimit="10.0"><path d="M 108.3916,104.2783 l 0.4200,-0.3287 l 0.4200,1.9206 l 0.4200,-1.3600 l 0.4200,-1.3684 l 0.4200,-0.8549 l 0.4200,0.7311 l 0.4200,-0.7348 l 0.4200,0.1642 l 0.4200,-0.0431 l 0.4200,-1.4513 l 0.4200,-0.7037 l 0.4200,-0.9977 l 0.4200,0.0666 l 0.4200,-1.9390 l 0.4200,-0.3637 l 0.4200,-0.1044 l 0.4200,0.6644 l 0.4200,-0.3175 l 0.4200,-0.6559 l 0.4200,-0.1382 l 0.4200,-0.2014 l 0.4200,0.3858 l 0.4200,0.6809 l 0.4200,-0.2838 l 0.4200,-0.0221 l 0.4200,0.6681 l 0.4200,0.0439 l 0.4200,0.1207 l 0.4200,-1.7820 l 0.4200,-0.1407 l 0.4200,0.3309 l 0.4200,0.9725 l 0.4200,0.6778 l 0.4200,-0.4861 l 0.4200,0.6413 l 0.4200,0.2729 l 0.4200,-0.3209 l 0.4200,0.8826 l 0.4200,2.2674 l 0.4200,0.5862 l 0.4200,0.9777 l 0.4200,-0.4958 l 0.4200,0.9574 l 0.4200,-1.2178 l 0.4200,-0.5117 l 0.4200,0.6965 l 0.4200,2.4989 l 0.4200,-0.3420 l 0.4200,-0.2224 l 0.4200,0.5549 l 0.4200,-0.5552 l 0.4200,-1.1462 l 0.4200,-0.1033 l 0.4200,0.0715 l 0.4200,-1.4222 l 0.4200,-1.0201 l 0.4200,-0.3710 l 0.4200,0.6019 l 0.4200,-0.3211 l 0.4200,-0.7677 l 0.4200,-0.5429 l 0.4200,-1.7329 l 0.4200,0.3802 l 0.4200,1.1937 l 0.4200,0.8097 l 0.4200,0.4848 l 0.4200,0.5044 l 0.4200,-0.4372 l 0.4200,0.7063 l 0.4200,1.0003 l 0.4200,-1.1200 l 0.4200,0.1883 l 0.4200,1.4489 l 0.4200,-0.9804 l 0.4200,1.3750 l 0.4200,1.9535 l 0.4200,-0.0150 l 0.4200,-3.1900 l 0.4200,-0.8618 l 0.4200,-0.5261 l 0.4200,1.1604 l 0.4200,-1.9884 l 0.4200,-0.9216 l 0.4200,-0.8885 l 0.4200,0.0867 l 0.4200,-0.7636 l 0.4200,0.8183 l 0.4200,-0.3911 l 0.4200,-0.5605 l 0.4200,-0.0968 l 0.4200,-0.7365 l 0.4200,0.8451 l 0.4200,0.6845 l 0.4200,-0.3367 l 0.4200,-0.4358 l 0.4200,0.5283 l 0.4200,-0.5406 l 0.4200,2.1077 l 0.4200,-1.9182 l 0.4200,-0.0057 l 0.4200,0.4617 l 0.4200,-1.1157 l 0.4200,-0.6225 l 0.4200,-0.5275 l 0.4200,0.6700 l 0.4200,0.4167 l 0.4200,0.6562 l 0.4200,-1.1186 l 0.4200,-0.6390 l 0.4200,0.3015 l 0.4200,0.0869 l 0.4200,-0.2656 l 0.4200,0.2289 l 0.4200,0.5203 l 0.4200,0.5900 l 0.4200,0.3018 l 0.4200,0.7603 l 0.4200,-1.5867 l 0.4200,-0.1671 l 0.4200,0.5884 l 0.4200,1.8236 l 0.4200,0.6684 l 0.4200,0.1106 l 0.4200,-0.8564 l 0.4200,0.5672 l 0.4200,-2.3971 l 0.4200,0.1932 l 0.4200,-0.6210 l 0.4200,-0.6935 l 0.4200,-0.3295 l 0.4200,-0.6033 l 0.4200,0.1646 l 0.4200,0.1402 l 0.4200,-0.4840 l 0.4200,1.4583 l 0.4200,0.1590 l 0.4200,0.4877 l 0.4200,-0.8093 l 0.4200,0.1414 l 0.4200,0.0562 l 0.4200,-0.2393 l 0.4200,2.0202 l 0.4200,-1.5232 l 0.4200,-0.6704 l 0.4200,0.3137 l 0.4200,0.6982 l 0.4200,-0.3120 l 0.4200,0.0206 l 0.4200,1.4554 l 0.4200,3.2869 l 0.4200,0.8266 l 0.4200,-0.8395 l 0.4200,1.6381 l 0.4200,-1.6103 l 0.4200,1.0679 l 0.4200,3.5723 l 0.4200,-1.0801 l 0.4200,0.3808 l 0.4200,-1.7949 l 0.4200,-1.9161 l 0.4200,-0.1494 l 0.4200,-1.5734 l 0.4200,0.1350 l 0.4200,-0.7811 l 0.4200,-0.6276 l 0.4200,-0.0754 l 0.4200,1.0881 l 0.4200,-0.8127 l 0.4200,0.3886 l 0.4200,-0.8343 l 0.4200,0.3040 l 0.4200,0.0959 l 0.4200,-0.6465 l 0.4200,-0.3182 l 0.4200,1.2208 l 0.4200,-2.1902 l 0.4200,0.1145 l 0.4200,-0.1532 l 0.4200,0.0254 l 0.4200,0.1765 l 0.4200,0.8751 l 0.4200,0.0563 l 0.4200,1.8793 l 0.4200,0.5213 l 0.4200,-1.3523 l 0.4200,-0.9883 l 0.4200,1.0305 l 0.4200,-0.8116 l 0.4200,0.5445 l 0.4200,0.8352 l 0.4200,-0.5681 l 0.4200,1.1585 l 0.4200,0.3803 l 0.4200,-0.6075 l 0.4200,-1.0979 l 0.4200,-0.9608 l 0.4200,-0.3279 l 0.4200,0.2737 l 0.4200,2.0074 l 0.4200,1.7266 l 0.4200,-0.4778 l 0.4200,-1.5505 l 0.4200,3.2828 l 0.4200,1.5223 l 0.4200,-1.1597 l 0.4200,-0.9361 l 0.4200,-1.4910 l 0.4200,-0.1150 l 0.4200,-0.4778 l 0.4200,-0.5235 l 0.4200,0.4299 l 0.4200,-0.1655 l 0.4200,1.3218 l 0.4200,-0.3990 l 0.4200,-0.6267 l 0.4200,-0.3581 l 0.4200,0.1161 l 0.4200,0.2978 l 0.4200,-0.1895 l 0.4200,1.4570 l 0.4200,-0.7581 l 0.4200,0.2983 l 0.4200,-0.1397 l 0.4200,-1.3636 l 0.4200,0.0319 l 0.4200,0.8070 l 0.4200,1.5127 l 0.4200,-0.4787 l 0.4200,-0.4915 l 0.4200,1.0747 l 0.4200,-1.1351 l 0.4200,-0.2660 l 0.4200,-0.5489 l 0.4200,-0.8080 l 0.4200,0.2651 l 0.4200,-0.7126 l 0.4200,-0.1796 l 0.4200,-0.0106 l 0.4200,0.1566 l 0.4200,-0.1867 l 0.4200,-0.8826 l 0.4200,-0.5941 l 0.4200,-0.0363 l 0.4200,0.1426 l 0.4200,0.6399 l 0.4200,1.1765 l 0.4200,-0.3749 l 0.4200,-0.0271 l 0.4200,-0.2284 l 0.4200,-1.0609 l 0.4200,-0.0883 l 0.4200,-0.1562 l 0.4200,0.1254 l 0.4200,1.0797 l 0.4200,-0.6371 l 0.4200,0.2812 l 0.4200,-0.1862 l 0.4200,0.1590 l 0.4200,-0.9028 l 0.4200,0.0063 l 0.4200,-0.7194 l 0.4200,0.7021 l 0.4200,1.1738 l 0.4200,-0.5986 l 0.4200,0.7285 l 0.4200,-0.1214 l 0.4200,-0.6285 l 0.4200,0.3956 l 0.4200,-0.5310 l 0.4200,1.9015 l 0.4200,-1.4457 l 0.4200,0.4530 l 0.4200,-0.6551 l 0.4200,-0.1616 l 0.4200,0.0300 l 0.4200,0.8376 l 0.4200,0.0568 l 0.4200,0.7853 l 0.4200,0.0877 l 0.4200,3.1472 l 0.4200,0.5165 l 0.4200,-1.0001 l 0.4200,1.5559 l 0.4200,0.0773 l 0.4200,0.9211 l 0.4200,-1.6564 l 0.4200,-0.3339 l 0.4200,0.3311 l 0.4200,-0.9274 l 0.4200,-0.5689 l 0.4200,0.0976 l 0.4200,-1.1952 l 0.4200,-0.6606 l 0.4200,-0.2784 l 0.4200,-0.3484 l 0.4200,0.3990 l 0.4200,-0.6250 l 0.4200,-0.0599 l 0.4200,0.0914 l 0.4200,0.3540 l 0.4200,-0.4034 l 0.4200,0.1810 l 0.4200,0.2158 l 0.4200,0.3291 l 0.4200,-0.6627 l 0.4200,0.5633 l 0.4200,1.0879 l 0.4200,-0.4577 l 0.4200,-0.0393 l 0.4200,0.9971 l 0.4200,0.1973 l 0.4200,-1.0370 l 0.4200,-0.1022 l 0.4200,-0.6431 l 0.4200,0.1684 l 0.4200,1.3106 l 0.4200,0.9653 l 0.4200,-1.0919 l 0.4200,2.5528 l 0.4200,-1.2092 l 0.4200,0.4707 l 0.4200,0.5051 l 0.4200,2.0963 l 0.4200,0.0725 l 0.4200,-1.6046 l 0.4200,0.3160 l 0.4200,2.3806 l 0.4200,-2.5470 l 0.4200,3.2327 l 0.4200,1.8062 l 0.4200,2.5682 l 0.4200,-0.1900 l 0.4200,1.2786 l 0.4200,0.0222 l 0.4200,-1.8913 l 0.4200,-1.3240 l 0.4200,-2.8729 l 0.4200,1.1752 l 0.4200,-1.7842 l 0.4200,-0.9912 l 0.4200,0.3017 l 0.4200,-1.7196 l 0.4200,0.2897 l 0.4200,-0.8590 l 0.4200,-1.6791 l 0.4200,0.1073 l 0.4200,0.5169 l 0.4200,-0.7717 l 0.4200,-0.4792 l 0.4200,0.0390 l 0.4200,-0.3788 l 0.4200,-0.0120 l 0.4200,0.1991 l 0.4200,0.0124 l 0.4200,0.0561 l 0.4200,-0.0189 l 0.4200,-0.6811 l 0.4200,0.3218 l 0.4200,-0.2031 l 0.4200,-0.6943 l 0.4200,-0.3346 l 0.4200,0.2723 l 0.4200,-0.3256 l 0.4200,0.4832 l 0.4200,1.1317 l 0.4200,-0.8688 l 0.4200,-0.4716 l 0.4200,0.2732 l 0.4200,-0.1546 l 0.4200,1.1970 l 0.4200,0.1284 l 0.4200,2.5817 l 0.4200,-0.6020 l 0.4200,2.5531 l 0.4200,1.0351 l 0.4200,1.3578 l 0.4200,-2.9803 l 0.4200,-3.5090 l 0.4200,-0.5984 l 0.4200,-0.4818 l 0.4200,-0.1690 l 0.4200,0.1162 l 0.4200,-0.4042 l 0.4200,-0.0338 l 0.4200,0.8365 l 0.4200,1.6583 l 0.4200,0.1379 l 0.4200,2.8722 l 0.4200,1.4241 l 0.4200,-1.6783 l 0.4200,-2.6031 l 0.4200,1.3606 l 0.4200,1.3081 l 0.4200,0.4653 l 0.4200,0.9542 l 0.4200,1.4734 l 0.4200,-1.9514 l 0.4200,-0.1625 l 0.4200,-0.6411 l 0.4200,-2.2148 l 0.4200,0.9153 l 0.4200,-0.3076 l 0.4200,2.1171 l 0.4200,2.1255 l 0.4200,-1.3698 l 0.4200,2.0455 l 0.4200,-1.8848 l 0.4200,-2.0972 l 0.4200,0.7065 l 0.4200,-1.4723 l 0.4200,0.5976 l 0.4200,0.7210 l 0.4200,-1.5291 l 0.4200,0.0856 l 0.4200,-1.3689 l 0.4200,-0.5278 l 0.4200,-0.1526 l 0.4200,0.1366 l 0.4200,0.2490 l 0.4200,-0.8349 l 0.4200,0.1367 l 0.4200,-0.3257 l 0.4200,0.2073 l 0.4200,0.3139 l 0.4200,0.5367 l 0.4200,-0.8348 l 0.4200,0.7777 l 0.4200,0.7519 l 0.4200,-0.0959 l 0.4200,2.2412 l 0.4200,-0.5186 l 0.4200,2.6624 l 0.4200,0.3576 l 0.4200,-1.8262 l 0.4200,0.9940 l 0.4200,-1.9617 l 0.4200,0.5797 l 0.4200,-1.7508 l 0.4200,0.8197 l 0.4200,-1.2767 l 0.4200,0.3477 l 0.4200,1.0126 l 0.4200,2.2938 l 0.4200,0.4288 l 0.4200,-0.2900 l 0.4200,-1.7691 l 0.4200,1.4104 l 0.4200,0.6704 l 0.4200,-0.4650 l 0.4200,-0.9260 l 0.4200,0.3848 l 0.4200,-0.3334 l 0.4200,-0.5992 l 0.4200,-0.7089 l 0.4200,0.7716 l 0.4200,-0.1712 l 0.4200,-0.7002 l 0.4200,0.1960 l 0.4200,1.7960 l 0.4200,-1.3186 l 0.4200,0.2995 l 0.4200,-0.6922 l 0.4200,-0.2785 l 0.4200,-0.2616 l 0.4200,0.7062 l 0.4200,-0.3412 l 0.4200,0.6440 l 0.4200,1.6133 l 0.4200,-1.5726 l 0.4200,-0.3684 l 0.4200,1.8756 l 0.4200,0.7439 l 0.4200,-0.5030 l 0.4200,-1.9517 l 0.4200,0.8468 l 0.4200,0.5189 l 0.4200,0.1166 l 0.4200,-1.5499 l 0.4200,-0.0398 l 0.4200,-0.3833 l 0.4200,0.1752 l 0.4200,0.2179 l 0.4200,-0.2764 l 0.4200,0.4153 l 0.4200,1.6372 l 0.4200,-1.3088 l 0.4200,0.2660 l 0.4200,1.0311 l 0.4200,-0.2415 l 0.4200,0.2228 l 0.4200,-0.2504 l 0.4200,1.3789 l 0.4200,0.2821 l 0.4200,1.0454 l 0.4200,-0.0036 l 0.4200,-1.7494 l 0.4200,-0.1959 l 0.4200,1.1279 l 0.4200,0.7631 l 0.4200,-0.7976 l 0.4200,-0.2358 l 0.4200,-1.4251 l 0.4200,0.8731 l 0.4200,-0.8520 l 0.4200,-0.0265 l 0.4200,1.1848 l 0.4200,0.5150 l 0.4200,0.1219 l 0.4200,3.2490 l 0.4200,-0.3519 l 0.4200,-0.9939 l 0.4200,0.1014 l 0.4200,0.6392 l 0.4200,-0.8645 l 0.4200,2.5934 l 0.4200,-0.2966 l 0.4200,-1.8076 l 0.4200,-1.6100 l 0.4200,-0.6117 l 0.4200,0.1733 l 0.4200,-1.1447 l 0.4200,-0.1009 l 0.4200,-0.0500 l 0.4200,0.7120 l 0.4200,0.4251 l 0.4200,0.9223 l 0.4200,1.6847 l 0.4200,0.9272 l 0.4200,-1.8127 l 0.4200,-1.0468 l 0.4200,0.0552 l 0.4200,0.4029 l 0.4200,0.4749 l 0.4200,0.3961 l 0.4200,-0.4158 l 0.4200,1.2321 l 0.4200,0.4861 l 0.4200,-1.8747 l 0.4200,1.5077 l 0.4200,-0.0931 l 0.4200,0.2437 l 0.4200,-0.5403 l 0.4200,-0.7336 l 0.4200,0.4522 l 0.4200,1.3059 l 0.4200,3.2713 l 0.4200,4.9290 l 0.4200,6.0976 l 0.4200,2.0508 l 0.4200,-5.8133 l 0.4200,-3.6258 l 0.4200,-0.0717 l 0.4200,1.2949 l 0.4200,4.5557 l 0.4200,-2.7452 l 0.4200,-0.1679 l 0.4200,2.3452 l 0.4200,-3.7478 l 0.4200,2.1307 l 0.4200,-0.7902 l 0.4200,-0.6679 l 0.4200,0.6314 l 0.4200,-1.9187 l 0.4200,-1.2936 l 0.4200,0.4098 l 0.4200,2.4841 l 0.4200,-0.6783 l 0.4200,1.8873 l 0.4200,0.3157 l 0.4200,0.5138 l 0.4200,0.0728 l 0.4200,3.9337 l 0.4200,-0.2001 l 0.4200,-2.8708 l 0.4200,-0.2996 l 0.4200,-2.1494 l 0.4200,-2.7317 l 0.4200,0.5627 l 0.4200,-1.1928 l 0.4200,-1.3052 l 0.4200,-0.0825 l 0.4200,-0.1653 l 0.4200,1.0631 l 0.4200,0.7383 l 0.4200,-2.2076 l 0.4200,-0.6595 l 0.4200,-0.0086 l 0.4200,0.2472 l 0.4200,0.9142 l 0.4200,-2.4646 l 0.4200,-1.6201 l 0.4200,0.3333 l 0.4200,0.4291 l 0.4200,-1.7376 l 0.4200,0.1158 l 0.4200,0.7759 l 0.4200,-1.7391 l 0.4200,-0.3603 l 0.4200,0.5893 l 0.4200,0.2215 l 0.4200,0.1020 l 0.4200,1.5404 l 0.4200,-0.1852 l 0.4200,0.5322 l 0.4200,2.1703 l 0.4200,1.7360 l 0.4200,-2.2098 l 0.4200,0.2373 l 0.4200,-2.3890 l 0.4200,0.2131 l 0.4200,-0.5321 l 0.4200,0.2313 l 0.4200,-0.1408 l 0.4200,0.0638 l 0.4200,-0.0457 l 0.4200,0.7470 l 0.4200,-1.5640 l 0.4200,1.7179 l 0.4200,2.2281 l 0.4200,-3.0386 l 0.4200,1.1035 l 0.4200,1.0232 l 0.4200,1.2093 l 0.4200,-0.3093 l 0.4200,2.9956 l 0.4200,-0.6973 l 0.4200,-1.5738 l 0.4200,-2.1488 l 0.4200,2.3272 l 0.4200,2.7418 l 0.4200,-1.1539 l 0.4200,-1.3048 l 0.4200,-1.8380 l 0.4200,0.2761 l 0.4200,0.3628 l 0.4200,-1.5660 l 0.4200,1.1324 l 0.4200,1.4624 l 0.4200,2.3581 l 0.4200,-0.2856 l 0.4200,2.0146 l 0.4200,3.6366 l 0.4200,1.6442 l 0.4200,-0.1388 l 0.4200,-1.1843 l 0.4200,3.8173 l 0.4200,-2.5233 l 0.4200,3.2912 l 0.4200,-0.1033 l 0.4200,1.7559 l 0.4200,-0.8130 l 0.4200,-3.0623 l 0.4200,2.3686 l 0.4200,-2.1468 l 0.4200,1.6363 l 0.4200,-0.8549 l 0.4200,-3.7153 l 0.4200,0.0639 l 0.4200,2.8563 l 0.4200,-0.7675 l 0.4200,-0.2423 l 0.4200,2.8087 l 0.4200,2.1328 l 0.4200,0.0698 l 0.4200,-0.0023 l 0.4200,1.8402 l 0.4200,-2.9605 l 0.4200,-2.5025 l 0.4200,-2.4869 l 0.4200,0.7004 l 0.4200,-0.0052 l 0.4200,-2.1779 l 0.4200,1.8934 l 0.4200,-0.6775 l 0.4200,-1.7106 l 0.4200,0.2844 l 0.4200,1.2326 l 0.4200,-3.5691 l 0.4200,-0.6076 l 0.4200,-0.5155 l 0.4200,-0.4844 l 0.4200,-0.1175 l 0.4200,1.7245 l 0.4200,-0.7517 l 0.4200,-0.0108 l 0.4200,-2.4443 l 0.4200,0.2132 l 0.4200,0.2995 l 0.4200,-0.8232 l 0.4200,-0.9693 l 0.4200,-0.6364 l 0.4200,-0.1186 l 0.4200,0.1633 l 0.4200,0.9979 l 0.4200,0.0832 l 0.4200,-0.0566 l 0.4200,-1.3002 l 0.4200,-0.6246 l 0.4200,0.3421 l 0.4200,-0.9211 l 0.4200,0.5214 l 0.4200,1.5741 l 0.4200,-1.5515 l 0.4200,1.8538 l 0.4200,-0.3940 l 0.4200,0.4424 l 0.4200,-1.4265 l 0.4200,-1.4773 l 0.4200,0.0117 l 0.4200,0.1865 l 0.4200,-0.9479 l 0.4200,-0.4244 l 0.4200,-0.0725 l 0.4200,0.8294 l 0.4200,0.0322 l 0.4200,0.3133 l 0.4200,-0.2446 l 0.4200,-0.2099 l 0.4200,1.4407 l 0.4200,0.8009 l 0.4200,-1.1443 l 0.4200,1.3519 l 0.4200,0.9296 l 0.4200,0.0625 l 0.4200,-0.4527 l 0.4200,-0.0858 l 0.4200,-1.8459 l 0.4200,1.4870 l 0.4200,0.0553 l 0.4200,1.3157 l 0.4200,-1.4486 l 0.4200,1.4585 l 0.4200,-0.0068 l 0.4200,0.5852 l 0.4200,-0.8848 l 0.4200,0.3408 l 0.4200,-2.0288 l 0.4200,-1.0178 l 0.4200,0.0680 l 0.4200,-0.6102 l 0.4200,0.1903 l 0.4200,-0.1337 l 0.4200,-0.3879 l 0.4200,0.4802 l 0.4200,-0.7001 l 0.4200,-0.1540 l 0.4200,-0.4579 l 0.4200,0.3027 l 0.4200,1.4341 l 0.4200,1.2670 l 0.4200,0.3030 l 0.4200,0.3082 l 0.4200,-0.4439 l 0.4200,0.5233 l 0.4200,-0.8466 l 0.4200,-0.3775 l 0.4200,0.2829 l 0.4200,-1.9734 l 0.4200,5.5655 l 0.4200,2.7768 l 0.4200,-2.6548 l 0.4200,-4.5700 l 0.4200,-0.2586 l 0.4200,1.0744 l 0.4200,-0.7743 l 0.4200,0.1670 l 0.4200,-2.2521 l 0.4200,-0.4703 l 0.4200,-1.0095 l 0.4200,0.0292 l 0.4200,-0.7428 l 0.4200,0.1928 l 0.4200,-0.3078 l 0.4200,0.2698 l 0.4200,-0.5918 l 0.4200,0.6007 l 0.4200,-0.6345 l 0.4200,0.5098 l 0.4200,0.0035 l 0.4200,0.2334 l 0.4200,-0.1911 l 0.4200,-0.1941 l 0.4200,0.2447 l 0.4200,1.0157 l 0.4200,-0.4248 l 0.4200,0.0174 l 0.4200,-1.2445 l 0.4200,0.1915 l 0.4200,-0.0052 l 0.4200,0.4869 l 0.4200,-0.6617 l 0.4200,0.1746 l 0.4200,-0.3676 l 0.4200,0.8849 l 0.4200,-0.2304 l 0.4200,-0.2793 l 0.4200,0.2713 l 0.4200,0.1376 l 0.4200,-0.2425 l 0.4200,0.8465 l 0.4200,0.2559 l 0.4200,0.2872 l 0.4200,-0.7402 l 0.4200,0.3457 l 0.4200,0.4083 l 0.4200,0.0536 l 0.4200,-0.5861 l 0.4200,-0.4002 l 0.4200,0.0732 l 0.4200,0.3869 l 0.4200,3.7992 l 0.4200,-2.1670 l 0.4200,2.2996 l 0.4200,0.1223 l 0.4200,-1.4864 l 0.4200,0.6099 l 0.4200,0.0394 l 0.4200,-0.0088 l 0.4200,-1.6038 l 0.4200,-0.9358 l 0.4200,0.9156 l 0.4200,1.3457 l 0.4200,-0.9328 l 0.4200,-0.7567 l 0.4200,1.4588 l 0.4200,-1.1604 l 0.4200,0.5364 l 0.4200,0.7913 l 0.4200,-0.6099 l 0.4200,-0.0325 l 0.4200,0.5326 l 0.4200,-0.6559 l 0.4200,1.9327 l 0.4200,-0.1400 l 0.4200,0.5026 l 0.4200,0.0012 l 0.4200,0.4913 l 0.4200,-0.8981 l 0.4200,-0.2975 l 0.4200,0.2424 l 0.4200,0.0462 l 0.4200,-0.6825 l 0.4200,0.6108 l 0.4200,0.2968 l 0.4200,0.4843 l 0.4200,0.5008 l 0.4200,0.0470 l 0.4200,1.0571 l 0.4200,1.0132 l 0.4200,0.6898 l 0.4200,0.2692 l 0.4200,-3.3047 l 0.4200,-0.5393 l 0.4200,-1.6326 l 0.4200,-0.2563 l 0.4200,0.2504 l 0.4200,0.0556 l 0.4200,-1.0879 l 0.4200,0.2814 l 0.4200,-0.6636 l 0.4200,0.4047 l 0.4200,-1.0807 l 0.4200,-0.2803 l 0.4200,-0.0744 l 0.4200,-0.5422 l 0.4200,0.8457 l 0.4200,-0.1549 l 0.4200,0.4486 l 0.4200,0.5774 l 0.4200,-0.0168 l 0.4200,-0.8335 l 0.4200,-0.4677 l 0.4200,-1.9267 l 0.4200,-0.2696 l 0.4200,-0.8370 l 0.4200,0.2324 l 0.4200,-0.9248 l 0.4200,1.2941 l 0.4200,-0.5271 l 0.4200,0.3249 l 0.4200,-0.2390 l 0.4200,-0.4884 l 0.4200,0.4334 l 0.4200,0.3418 l 0.4200,-0.1301 l 0.4200,-0.2799 l 0.4200,1.3277 l 0.4200,0.0994 l 0.4200,0.7567 l 0.4200,-1.2246 l 0.4200,-0.8052 l 0.4200,0.1762 l 0.4200,-0.4711 l 0.4200,0.5978 l 0.4200,0.0586 l 0.4200,-0.3684 l 0.4200,0.3841 l 0.4200,-0.2208 l 0.4200,0.5080 l 0.4200,-0.2090 l 0.4200,0.6041 l 0.4200,-0.4520 l 0.4200,0.4642 l 0.4200,-0.9327 l 0.4200,-1.1480 l 0.4200,0.1749 l 0.4200,0.1940 l 0.4200,0.9726 l 0.4200,0.1929 l 0.4200,0.0127 l 0.4200,-0.0284 l 0.4200,-1.0354 l 0.4200,0.3817 l 0.4200,0.0261 l 0.4200,-0.0444 l 0.4200,-0.8058 l 0.4200,-0.4739 l 0.4200,-0.7245 l 0.4200,-0.5354 l 0.4200,-0.6814 l 0.4200,0.2039 l 0.4200,-0.1807 l 0.4200,-0.8372 l 0.4200,0.2401 l 0.4200,0.0124 l 0.4200,-0.1497 l 0.4200,-0.0775 l 0.4200,0.4663 l 0.4200,-1.9761 l 0.4200,0.9699 l 0.4200,0.0026 l 0.4200,0.5743 l 0.4200,0.5169 l 0.4200,0.4196 l 0.4200,-0.0481 l 0.4200,-0.4200 l 0.4200,0.0191 l 0.4200,0.5855 l 0.4200,-1.1873 l 0.4200,0.3226 l 0.4200,0.2741 l 0.4200,0.3782 l 0.4200,1.9582 l 0.4200,-0.2201 l 0.4200,0.2262 l 0.4200,0.1926 l 0.4200,0.2183 l 0.4200,-1.0277 l 0.4200,-0.0963 l 0.4200,-0.3747 l 0.4200,0.4103 l 0.4200,0.3159 l 0.4200,-0.0180 l 0.4200,0.5286 l 0.4200,-0.2267 l 0.4200,0.1903 l 0.4200,-0.0392 l 0.4200,0.2814 l 0.4200,0.6325 l 0.4200,1.0938 l 0.4200,-1.2386 l 0.4200,0.5008 l 0.4200,0.3191 l 0.4200,-1.0787 l 0.4200,0.5218 l 0.4200,-1.5677 l 0.4200,-0.8501 l 0.4200,0.1437 l 0.4200,-0.0138 l 0.4200,0.3589 l 0.4200,-0.1930 l 0.4200,-0.1103 l 0.4200,0.2617 l 0.4200,-0.0194 l 0.4200,-0.5476 l 0.4200,0.0651 l 0.4200,0.2254 l 0.4200,-0.1010 l 0.4200,0.3970 l 0.4200,0.2919 l 0.4200,-0.6523 l 0.4200,0.1736 l 0.4200,2.8395 l 0.4200,-0.4980 l 0.4200,-0.9588 l 0.4200,-0.7136 l 0.4200,-0.2108 l 0.4200,-0.3081 l 0.4200,-0.6007 l 0.4200,0.0241 l 0.4200,0.2529 l 0.4200,0.1393 l 0.4200,-1.0697 l 0.4200,-0.4852 l 0.4200,0.2595 l 0.4200,0.4947 l 0.4200,-0.1641 l 0.4200,0.0328 l 0.4200,0.1984 "/></g><g stroke-linejoin="miter" stroke-opacity="1.0" fill-opacity="0.0" stroke="rgb(85,85,85)" stroke-width="0.48241815132442184" fill="rgb(0,0,0)" stroke-linecap="butt" stroke-miterlimit="10.0"><path d="M 108.3916,113.2079 l 0.4200,-0.0911 l 0.4200,0.4710 l 0.4200,-0.3477 l 0.4200,-0.3509 l 0.4200,-0.2235 l 0.4200,0.1724 l 0.4200,-0.1935 l 0.4200,0.0307 l 0.4200,-0.0210 l 0.4200,-0.3731 l 0.4200,-0.1873 l 0.4200,-0.2613 l 0.4200,0.0041 l 0.4200,-0.4974 l 0.4200,-0.1049 l 0.4200,-0.0403 l 0.4200,0.1519 l 0.4200,-0.0932 l 0.4200,-0.1780 l 0.4200,-0.0490 l 0.4200,-0.0649 l 0.4200,0.0818 l 0.4200,0.1559 l 0.4200,-0.0848 l 0.4200,-0.0196 l 0.4200,0.1530 l 0.4200,-0.0026 l 0.4200,0.0167 l 0.4200,-0.4590 l 0.4200,-0.0499 l 0.4200,0.0679 l 0.4200,0.2286 l 0.4200,0.1557 l 0.4200,-0.1348 l 0.4200,0.1467 l 0.4200,0.0551 l 0.4200,-0.0932 l 0.4200,0.2075 l 0.4200,0.5545 l 0.4200,0.1358 l 0.4200,0.2341 l 0.4200,-0.1335 l 0.4200,0.2294 l 0.4200,-0.3137 l 0.4200,-0.1381 l 0.4200,0.1637 l 0.4200,0.6148 l 0.4200,-0.0936 l 0.4200,-0.0639 l 0.4200,0.1302 l 0.4200,-0.1468 l 0.4200,-0.2950 l 0.4200,-0.0351 l 0.4200,0.0085 l 0.4200,-0.3649 l 0.4200,-0.2654 l 0.4200,-0.1039 l 0.4200,0.1391 l 0.4200,-0.0912 l 0.4200,-0.2031 l 0.4200,-0.1475 l 0.4200,-0.4454 l 0.4200,0.0817 l 0.4200,0.2854 l 0.4200,0.1903 l 0.4200,0.1096 l 0.4200,0.1149 l 0.4200,-0.1201 l 0.4200,0.1655 l 0.4200,0.2395 l 0.4200,-0.2898 l 0.4200,0.0364 l 0.4200,0.3518 l 0.4200,-0.2545 l 0.4200,0.3336 l 0.4200,0.4793 l 0.4200,-0.0114 l 0.4200,-0.8051 l 0.4200,-0.2255 l 0.4200,-0.1422 l 0.4200,0.2791 l 0.4200,-0.5073 l 0.4200,-0.2421 l 0.4200,-0.2345 l 0.4200,0.0087 l 0.4200,-0.2038 l 0.4200,0.1912 l 0.4200,-0.1106 l 0.4200,-0.1533 l 0.4200,-0.0377 l 0.4200,-0.1978 l 0.4200,0.1972 l 0.4200,0.1577 l 0.4200,-0.0971 l 0.4200,-0.1221 l 0.4200,0.1186 l 0.4200,-0.1483 l 0.4200,0.5136 l 0.4200,-0.4915 l 0.4200,-0.0147 l 0.4200,0.1022 l 0.4200,-0.2919 l 0.4200,-0.1694 l 0.4200,-0.1461 l 0.4200,0.1530 l 0.4200,0.0901 l 0.4200,0.1503 l 0.4200,-0.2930 l 0.4200,-0.1739 l 0.4200,0.0609 l 0.4200,0.0074 l 0.4200,-0.0806 l 0.4200,0.0428 l 0.4200,0.1159 l 0.4200,0.1337 l 0.4200,0.0621 l 0.4200,0.1770 l 0.4200,-0.4093 l 0.4200,-0.0555 l 0.4200,0.1333 l 0.4200,0.4427 l 0.4200,0.1551 l 0.4200,0.0162 l 0.4200,-0.2255 l 0.4200,0.1298 l 0.4200,-0.6109 l 0.4200,0.0350 l 0.4200,-0.1685 l 0.4200,-0.1871 l 0.4200,-0.0965 l 0.4200,-0.1653 l 0.4200,0.0263 l 0.4200,0.0204 l 0.4200,-0.1356 l 0.4200,0.3498 l 0.4200,0.0260 l 0.4200,0.1083 l 0.4200,-0.2157 l 0.4200,0.0215 l 0.4200,0.0003 l 0.4200,-0.0735 l 0.4200,0.4913 l 0.4200,-0.3932 l 0.4200,-0.1811 l 0.4200,0.0645 l 0.4200,0.1609 l 0.4200,-0.0912 l 0.4200,-0.0082 l 0.4200,0.3506 l 0.4200,0.8096 l 0.4200,0.1969 l 0.4200,-0.2190 l 0.4200,0.3998 l 0.4200,-0.4111 l 0.4200,0.2572 l 0.4200,0.8841 l 0.4200,-0.2762 l 0.4200,0.0881 l 0.4200,-0.4554 l 0.4200,-0.4871 l 0.4200,-0.0469 l 0.4200,-0.4030 l 0.4200,0.0229 l 0.4200,-0.2060 l 0.4200,-0.1682 l 0.4200,-0.0306 l 0.4200,0.2603 l 0.4200,-0.2141 l 0.4200,0.0856 l 0.4200,-0.2198 l 0.4200,0.0642 l 0.4200,0.0124 l 0.4200,-0.1732 l 0.4200,-0.0916 l 0.4200,0.2930 l 0.4200,-0.5589 l 0.4200,0.0157 l 0.4200,-0.0511 l 0.4200,-0.0066 l 0.4200,0.0312 l 0.4200,0.2061 l 0.4200,0.0020 l 0.4200,0.4579 l 0.4200,0.1197 l 0.4200,-0.3483 l 0.4200,-0.2583 l 0.4200,0.2457 l 0.4200,-0.2141 l 0.4200,0.1244 l 0.4200,0.1975 l 0.4200,-0.1527 l 0.4200,0.2786 l 0.4200,0.0849 l 0.4200,-0.1618 l 0.4200,-0.2849 l 0.4200,-0.2514 l 0.4200,-0.0939 l 0.4200,0.0563 l 0.4200,0.4900 l 0.4200,0.4213 l 0.4200,-0.1285 l 0.4200,-0.3971 l 0.4200,0.8102 l 0.4200,0.3724 l 0.4200,-0.2968 l 0.4200,-0.2418 l 0.4200,-0.3812 l 0.4200,-0.0384 l 0.4200,-0.1292 l 0.4200,-0.1410 l 0.4200,0.0970 l 0.4200,-0.0515 l 0.4200,0.3202 l 0.4200,-0.1090 l 0.4200,-0.1662 l 0.4200,-0.0995 l 0.4200,0.0188 l 0.4200,0.0643 l 0.4200,-0.0573 l 0.4200,0.3542 l 0.4200,-0.1985 l 0.4200,0.0651 l 0.4200,-0.0442 l 0.4200,-0.3503 l 0.4200,-0.0024 l 0.4200,0.1914 l 0.4200,0.3684 l 0.4200,-0.1282 l 0.4200,-0.1318 l 0.4200,0.2594 l 0.4200,-0.2922 l 0.4200,-0.0758 l 0.4200,-0.1467 l 0.4200,-0.2119 l 0.4200,0.0558 l 0.4200,-0.1884 l 0.4200,-0.0557 l 0.4200,-0.0136 l 0.4200,0.0282 l 0.4200,-0.0575 l 0.4200,-0.2316 l 0.4200,-0.1602 l 0.4200,-0.0211 l 0.4200,0.0236 l 0.4200,0.1481 l 0.4200,0.2827 l 0.4200,-0.1043 l 0.4200,-0.0176 l 0.4200,-0.0679 l 0.4200,-0.2762 l 0.4200,-0.0338 l 0.4200,-0.0509 l 0.4200,0.0194 l 0.4200,0.2582 l 0.4200,-0.1703 l 0.4200,0.0589 l 0.4200,-0.0578 l 0.4200,0.0284 l 0.4200,-0.2370 l 0.4200,-0.0103 l 0.4200,-0.1918 l 0.4200,0.1632 l 0.4200,0.2816 l 0.4200,-0.1606 l 0.4200,0.1707 l 0.4200,-0.0412 l 0.4200,-0.1681 l 0.4200,0.0875 l 0.4200,-0.1439 l 0.4200,0.4640 l 0.4200,-0.3715 l 0.4200,0.1022 l 0.4200,-0.1745 l 0.4200,-0.0516 l 0.4200,-0.0038 l 0.4200,0.1981 l 0.4200,0.0035 l 0.4200,0.1857 l 0.4200,0.0119 l 0.4200,0.7769 l 0.4200,0.1215 l 0.4200,-0.2572 l 0.4200,0.3810 l 0.4200,0.0126 l 0.4200,0.2235 l 0.4200,-0.4199 l 0.4200,-0.0907 l 0.4200,0.0753 l 0.4200,-0.2390 l 0.4200,-0.1501 l 0.4200,0.0161 l 0.4200,-0.3070 l 0.4200,-0.1743 l 0.4200,-0.0792 l 0.4200,-0.0969 l 0.4200,0.0897 l 0.4200,-0.1660 l 0.4200,-0.0252 l 0.4200,0.0126 l 0.4200,0.0783 l 0.4200,-0.1107 l 0.4200,0.0351 l 0.4200,0.0439 l 0.4200,0.0724 l 0.4200,-0.1753 l 0.4200,0.1307 l 0.4200,0.2623 l 0.4200,-0.1233 l 0.4200,-0.0190 l 0.4200,0.2401 l 0.4200,0.0409 l 0.4200,-0.2675 l 0.4200,-0.0346 l 0.4200,-0.1699 l 0.4200,0.0325 l 0.4200,0.3182 l 0.4200,0.2328 l 0.4200,-0.2807 l 0.4200,0.6296 l 0.4200,-0.3088 l 0.4200,0.1101 l 0.4200,0.1191 l 0.4200,0.5172 l 0.4200,0.0129 l 0.4200,-0.4061 l 0.4200,0.0726 l 0.4200,0.5889 l 0.4200,-0.6407 l 0.4200,0.8017 l 0.4200,0.4475 l 0.4200,0.6392 l 0.4200,-0.0480 l 0.4200,0.3187 l 0.4200,0.0058 l 0.4200,-0.4720 l 0.4200,-0.3318 l 0.4200,-0.7198 l 0.4200,0.2894 l 0.4200,-0.4491 l 0.4200,-0.2524 l 0.4200,0.0700 l 0.4200,-0.4349 l 0.4200,0.0660 l 0.4200,-0.2209 l 0.4200,-0.4266 l 0.4200,0.0187 l 0.4200,0.1212 l 0.4200,-0.2005 l 0.4200,-0.1280 l 0.4200,0.0012 l 0.4200,-0.1032 l 0.4200,-0.0118 l 0.4200,0.0410 l 0.4200,-0.0055 l 0.4200,0.0054 l 0.4200,-0.0133 l 0.4200,-0.1789 l 0.4200,0.0714 l 0.4200,-0.0596 l 0.4200,-0.1826 l 0.4200,-0.0931 l 0.4200,0.0584 l 0.4200,-0.0909 l 0.4200,0.1111 l 0.4200,0.2735 l 0.4200,-0.2257 l 0.4200,-0.1271 l 0.4200,0.0588 l 0.4200,-0.0480 l 0.4200,0.2899 l 0.4200,0.0236 l 0.4200,0.6370 l 0.4200,-0.1569 l 0.4200,0.6312 l 0.4200,0.2537 l 0.4200,0.3351 l 0.4200,-0.7478 l 0.4200,-0.8823 l 0.4200,-0.1576 l 0.4200,-0.1289 l 0.4200,-0.0511 l 0.4200,0.0201 l 0.4200,-0.1099 l 0.4200,-0.0176 l 0.4200,0.2000 l 0.4200,0.4060 l 0.4200,0.0272 l 0.4200,0.7108 l 0.4200,0.3509 l 0.4200,-0.4233 l 0.4200,-0.6557 l 0.4200,0.3330 l 0.4200,0.3208 l 0.4200,0.1112 l 0.4200,0.2337 l 0.4200,0.3641 l 0.4200,-0.4905 l 0.4200,-0.0450 l 0.4200,-0.1647 l 0.4200,-0.5584 l 0.4200,0.2221 l 0.4200,-0.0828 l 0.4200,0.5230 l 0.4200,0.5266 l 0.4200,-0.3452 l 0.4200,0.5071 l 0.4200,-0.4734 l 0.4200,-0.5279 l 0.4200,0.1711 l 0.4200,-0.3728 l 0.4200,0.1434 l 0.4200,0.1746 l 0.4200,-0.3871 l 0.4200,0.0153 l 0.4200,-0.3482 l 0.4200,-0.1390 l 0.4200,-0.0456 l 0.4200,0.0266 l 0.4200,0.0548 l 0.4200,-0.2160 l 0.4200,0.0263 l 0.4200,-0.0892 l 0.4200,0.0438 l 0.4200,0.0706 l 0.4200,0.1265 l 0.4200,-0.2159 l 0.4200,0.1866 l 0.4200,0.1807 l 0.4200,-0.0306 l 0.4200,0.5535 l 0.4200,-0.1347 l 0.4200,0.6599 l 0.4200,0.0859 l 0.4200,-0.4594 l 0.4200,0.2439 l 0.4200,-0.4940 l 0.4200,0.1396 l 0.4200,-0.4423 l 0.4200,0.1988 l 0.4200,-0.3246 l 0.4200,0.0805 l 0.4200,0.2469 l 0.4200,0.5679 l 0.4200,0.1035 l 0.4200,-0.0758 l 0.4200,-0.4456 l 0.4200,0.3476 l 0.4200,0.1637 l 0.4200,-0.1195 l 0.4200,-0.2351 l 0.4200,0.0918 l 0.4200,-0.0874 l 0.4200,-0.1541 l 0.4200,-0.1819 l 0.4200,0.1875 l 0.4200,-0.0475 l 0.4200,-0.1798 l 0.4200,0.0436 l 0.4200,0.4437 l 0.4200,-0.3333 l 0.4200,0.0700 l 0.4200,-0.1776 l 0.4200,-0.0747 l 0.4200,-0.0707 l 0.4200,0.1710 l 0.4200,-0.0902 l 0.4200,0.1557 l 0.4200,0.3984 l 0.4200,-0.3965 l 0.4200,-0.0968 l 0.4200,0.4638 l 0.4200,0.1823 l 0.4200,-0.1287 l 0.4200,-0.4910 l 0.4200,0.2068 l 0.4200,0.1255 l 0.4200,0.0253 l 0.4200,-0.3910 l 0.4200,-0.0148 l 0.4200,-0.1007 l 0.4200,0.0386 l 0.4200,0.0494 l 0.4200,-0.0739 l 0.4200,0.0987 l 0.4200,0.4044 l 0.4200,-0.3306 l 0.4200,0.0620 l 0.4200,0.2534 l 0.4200,-0.0639 l 0.4200,0.0520 l 0.4200,-0.0661 l 0.4200,0.3409 l 0.4200,0.0678 l 0.4200,0.2587 l 0.4200,-0.0026 l 0.4200,-0.4387 l 0.4200,-0.0519 l 0.4200,0.2787 l 0.4200,0.1884 l 0.4200,-0.2010 l 0.4200,-0.0612 l 0.4200,-0.3585 l 0.4200,0.2146 l 0.4200,-0.2158 l 0.4200,-0.0101 l 0.4200,0.2925 l 0.4200,0.1260 l 0.4200,0.0282 l 0.4200,0.8096 l 0.4200,-0.0876 l 0.4200,-0.2483 l 0.4200,0.0246 l 0.4200,0.1590 l 0.4200,-0.2161 l 0.4200,0.6470 l 0.4200,-0.0730 l 0.4200,-0.4506 l 0.4200,-0.4026 l 0.4200,-0.1545 l 0.4200,0.0412 l 0.4200,-0.2880 l 0.4200,-0.0281 l 0.4200,-0.0154 l 0.4200,0.1750 l 0.4200,0.1038 l 0.4200,0.2283 l 0.4200,0.4195 l 0.4200,0.2315 l 0.4200,-0.4522 l 0.4200,-0.2623 l 0.4200,0.0122 l 0.4200,0.0991 l 0.4200,0.1174 l 0.4200,0.0981 l 0.4200,-0.1045 l 0.4200,0.3069 l 0.4200,0.1214 l 0.4200,-0.4679 l 0.4200,0.3757 l 0.4200,-0.0231 l 0.4200,0.0609 l 0.4200,-0.1347 l 0.4200,-0.1834 l 0.4200,0.1123 l 0.4200,0.3258 l 0.4200,0.8177 l 0.4200,1.2339 l 0.4200,1.5288 l 0.4200,0.5231 l 0.4200,-1.4375 l 0.4200,-0.8966 l 0.4200,-0.0122 l 0.4200,0.3290 l 0.4200,1.1441 l 0.4200,-0.6752 l 0.4200,-0.0340 l 0.4200,0.5933 l 0.4200,-0.9260 l 0.4200,0.5388 l 0.4200,-0.1889 l 0.4200,-0.1590 l 0.4200,0.1649 l 0.4200,-0.4714 l 0.4200,-0.3168 l 0.4200,0.1076 l 0.4200,0.6260 l 0.4200,-0.1619 l 0.4200,0.4782 l 0.4200,0.0872 l 0.4200,0.1369 l 0.4200,0.0271 l 0.4200,0.9913 l 0.4200,-0.0380 l 0.4200,-0.7050 l 0.4200,-0.0652 l 0.4200,-0.5274 l 0.4200,-0.6745 l 0.4200,0.1462 l 0.4200,-0.2918 l 0.4200,-0.3208 l 0.4200,-0.0164 l 0.4200,-0.0371 l 0.4200,0.2696 l 0.4200,0.1893 l 0.4200,-0.5461 l 0.4200,-0.1611 l 0.4200,0.0011 l 0.4200,0.0650 l 0.4200,0.2318 l 0.4200,-0.6117 l 0.4200,-0.4026 l 0.4200,0.0843 l 0.4200,0.1085 l 0.4200,-0.4326 l 0.4200,0.0292 l 0.4200,0.1943 l 0.4200,-0.4337 l 0.4200,-0.0904 l 0.4200,0.1466 l 0.4200,0.0552 l 0.4200,0.0255 l 0.4200,0.3850 l 0.4200,-0.0451 l 0.4200,0.1341 l 0.4200,0.5438 l 0.4200,0.4368 l 0.4200,-0.5477 l 0.4200,0.0620 l 0.4200,-0.5940 l 0.4200,0.0544 l 0.4200,-0.1317 l 0.4200,0.0587 l 0.4200,-0.0342 l 0.4200,0.0169 l 0.4200,-0.0104 l 0.4200,0.1876 l 0.4200,-0.3893 l 0.4200,0.4296 l 0.4200,0.5584 l 0.4200,-0.7559 l 0.4200,0.2768 l 0.4200,0.2575 l 0.4200,0.3048 l 0.4200,-0.0738 l 0.4200,0.7518 l 0.4200,-0.1687 l 0.4200,-0.3882 l 0.4200,-0.5331 l 0.4200,0.5837 l 0.4200,0.6890 l 0.4200,-0.2823 l 0.4200,-0.3209 l 0.4200,-0.4551 l 0.4200,0.0717 l 0.4200,0.0936 l 0.4200,-0.3881 l 0.4200,0.2850 l 0.4200,0.3683 l 0.4200,0.5932 l 0.4200,-0.0656 l 0.4200,0.5089 l 0.4200,0.9155 l 0.4200,0.4204 l 0.4200,-0.0237 l 0.4200,-0.2850 l 0.4200,0.9635 l 0.4200,-0.6174 l 0.4200,0.8330 l 0.4200,-0.0124 l 0.4200,0.4518 l 0.4200,-0.1885 l 0.4200,-0.7509 l 0.4200,0.6033 l 0.4200,-0.5228 l 0.4200,0.4205 l 0.4200,-0.2006 l 0.4200,-0.9158 l 0.4200,0.0255 l 0.4200,0.7232 l 0.4200,-0.1800 l 0.4200,-0.0494 l 0.4200,0.7126 l 0.4200,0.5458 l 0.4200,0.0321 l 0.4200,0.0141 l 0.4200,0.4743 l 0.4200,-0.7235 l 0.4200,-0.6114 l 0.4200,-0.6095 l 0.4200,0.1850 l 0.4200,0.0092 l 0.4200,-0.5337 l 0.4200,0.4820 l 0.4200,-0.1590 l 0.4200,-0.4177 l 0.4200,0.0795 l 0.4200,0.3167 l 0.4200,-0.8823 l 0.4200,-0.1450 l 0.4200,-0.1224 l 0.4200,-0.1150 l 0.4200,-0.0237 l 0.4200,0.4366 l 0.4200,-0.1810 l 0.4200,0.0036 l 0.4200,-0.6046 l 0.4200,0.0577 l 0.4200,0.0794 l 0.4200,-0.2009 l 0.4200,-0.2381 l 0.4200,-0.1556 l 0.4200,-0.0267 l 0.4200,0.0437 l 0.4200,0.2524 l 0.4200,0.0245 l 0.4200,-0.0103 l 0.4200,-0.3212 l 0.4200,-0.1533 l 0.4200,0.0878 l 0.4200,-0.2277 l 0.4200,0.1322 l 0.4200,0.3957 l 0.4200,-0.3843 l 0.4200,0.4656 l 0.4200,-0.0948 l 0.4200,0.1139 l 0.4200,-0.3528 l 0.4200,-0.3666 l 0.4200,0.0044 l 0.4200,0.0481 l 0.4200,-0.2353 l 0.4200,-0.1051 l 0.4200,-0.0175 l 0.4200,0.2079 l 0.4200,0.0092 l 0.4200,0.0795 l 0.4200,-0.0597 l 0.4200,-0.0512 l 0.4200,0.3612 l 0.4200,0.2024 l 0.4200,-0.2832 l 0.4200,0.3398 l 0.4200,0.2353 l 0.4200,0.0192 l 0.4200,-0.1095 l 0.4200,-0.0181 l 0.4200,-0.4581 l 0.4200,0.3735 l 0.4200,0.0168 l 0.4200,0.3319 l 0.4200,-0.3580 l 0.4200,0.3675 l 0.4200,0.0023 l 0.4200,0.1503 l 0.4200,-0.2167 l 0.4200,0.0889 l 0.4200,-0.5031 l 0.4200,-0.2519 l 0.4200,0.0187 l 0.4200,-0.1508 l 0.4200,0.0489 l 0.4200,-0.0320 l 0.4200,-0.0956 l 0.4200,0.1211 l 0.4200,-0.1736 l 0.4200,-0.0376 l 0.4200,-0.1137 l 0.4200,0.0761 l 0.4200,0.3592 l 0.4200,0.3184 l 0.4200,0.0784 l 0.4200,0.0799 l 0.4200,-0.1078 l 0.4200,0.1336 l 0.4200,-0.2084 l 0.4200,-0.0918 l 0.4200,0.0730 l 0.4200,-0.4908 l 0.4200,1.3922 l 0.4200,0.6992 l 0.4200,-0.6562 l 0.4200,-1.1370 l 0.4200,-0.0628 l 0.4200,0.2702 l 0.4200,-0.1911 l 0.4200,0.0436 l 0.4200,-0.5610 l 0.4200,-0.1173 l 0.4200,-0.2524 l 0.4200,0.0065 l 0.4200,-0.1865 l 0.4200,0.0468 l 0.4200,-0.0782 l 0.4200,0.0660 l 0.4200,-0.1492 l 0.4200,0.1485 l 0.4200,-0.1599 l 0.4200,0.1257 l 0.4200,-0.0005 l 0.4200,0.0570 l 0.4200,-0.0489 l 0.4200,-0.0498 l 0.4200,0.0597 l 0.4200,0.2527 l 0.4200,-0.1067 l 0.4200,0.0035 l 0.4200,-0.3119 l 0.4200,0.0461 l 0.4200,-0.0029 l 0.4200,0.1201 l 0.4200,-0.1666 l 0.4200,0.0419 l 0.4200,-0.0935 l 0.4200,0.2194 l 0.4200,-0.0588 l 0.4200,-0.0712 l 0.4200,0.0663 l 0.4200,0.0330 l 0.4200,-0.0619 l 0.4200,0.2102 l 0.4200,0.0632 l 0.4200,0.0712 l 0.4200,-0.1854 l 0.4200,0.0855 l 0.4200,0.1014 l 0.4200,0.0130 l 0.4200,-0.1468 l 0.4200,-0.1008 l 0.4200,0.0172 l 0.4200,0.0957 l 0.4200,0.9490 l 0.4200,-0.5395 l 0.4200,0.5753 l 0.4200,0.0328 l 0.4200,-0.3692 l 0.4200,0.1536 l 0.4200,0.0115 l 0.4200,-0.0005 l 0.4200,-0.3992 l 0.4200,-0.2335 l 0.4200,0.2286 l 0.4200,0.3368 l 0.4200,-0.2317 l 0.4200,-0.1884 l 0.4200,0.3649 l 0.4200,-0.2888 l 0.4200,0.1345 l 0.4200,0.1986 l 0.4200,-0.1510 l 0.4200,-0.0072 l 0.4200,0.1340 l 0.4200,-0.1626 l 0.4200,0.4839 l 0.4200,-0.0327 l 0.4200,0.1278 l 0.4200,0.0028 l 0.4200,0.1253 l 0.4200,-0.2216 l 0.4200,-0.0721 l 0.4200,0.0626 l 0.4200,0.0137 l 0.4200,-0.1684 l 0.4200,0.1544 l 0.4200,0.0763 l 0.4200,0.1234 l 0.4200,0.1279 l 0.4200,0.0148 l 0.4200,0.2674 l 0.4200,0.2572 l 0.4200,0.1771 l 0.4200,0.0725 l 0.4200,-0.8205 l 0.4200,-0.1319 l 0.4200,-0.4056 l 0.4200,-0.0628 l 0.4200,0.0637 l 0.4200,0.0152 l 0.4200,-0.2706 l 0.4200,0.0708 l 0.4200,-0.1652 l 0.4200,0.1014 l 0.4200,-0.2696 l 0.4200,-0.0704 l 0.4200,-0.0191 l 0.4200,-0.1361 l 0.4200,0.2105 l 0.4200,-0.0391 l 0.4200,0.1117 l 0.4200,0.1442 l 0.4200,-0.0039 l 0.4200,-0.2080 l 0.4200,-0.1172 l 0.4200,-0.4823 l 0.4200,-0.0695 l 0.4200,-0.2116 l 0.4200,0.0552 l 0.4200,-0.2340 l 0.4200,0.3201 l 0.4200,-0.1343 l 0.4200,0.0784 l 0.4200,-0.0624 l 0.4200,-0.1249 l 0.4200,0.1052 l 0.4200,0.0826 l 0.4200,-0.0351 l 0.4200,-0.0726 l 0.4200,0.3291 l 0.4200,0.0230 l 0.4200,0.1874 l 0.4200,-0.3074 l 0.4200,-0.2034 l 0.4200,0.0413 l 0.4200,-0.1204 l 0.4200,0.1465 l 0.4200,0.0121 l 0.4200,-0.0946 l 0.4200,0.0933 l 0.4200,-0.0577 l 0.4200,0.1244 l 0.4200,-0.0545 l 0.4200,0.1486 l 0.4200,-0.1149 l 0.4200,0.1138 l 0.4200,-0.2351 l 0.4200,-0.2896 l 0.4200,0.0403 l 0.4200,0.0452 l 0.4200,0.2400 l 0.4200,0.0458 l 0.4200,0.0008 l 0.4200,-0.0094 l 0.4200,-0.2612 l 0.4200,0.0923 l 0.4200,0.0037 l 0.4200,-0.0139 l 0.4200,-0.2043 l 0.4200,-0.1219 l 0.4200,-0.1849 l 0.4200,-0.1382 l 0.4200,-0.1751 l 0.4200,0.0458 l 0.4200,-0.0502 l 0.4200,-0.2145 l 0.4200,0.0542 l 0.4200,-0.0025 l 0.4200,-0.0430 l 0.4200,-0.0251 l 0.4200,0.1108 l 0.4200,-0.4995 l 0.4200,0.2356 l 0.4200,-0.0055 l 0.4200,0.1374 l 0.4200,0.1235 l 0.4200,0.0996 l 0.4200,-0.0170 l 0.4200,-0.1100 l 0.4200,-0.0006 l 0.4200,0.1411 l 0.4200,-0.3017 l 0.4200,0.0749 l 0.4200,0.0630 l 0.4200,0.0893 l 0.4200,0.4846 l 0.4200,-0.0586 l 0.4200,0.0528 l 0.4200,0.0446 l 0.4200,0.0512 l 0.4200,-0.2601 l 0.4200,-0.0280 l 0.4200,-0.0977 l 0.4200,0.0983 l 0.4200,0.0750 l 0.4200,-0.0083 l 0.4200,0.1284 l 0.4200,-0.0600 l 0.4200,0.0440 l 0.4200,-0.0132 l 0.4200,0.0669 l 0.4200,0.1549 l 0.4200,0.2707 l 0.4200,-0.3115 l 0.4200,0.1224 l 0.4200,0.0773 l 0.4200,-0.2719 l 0.4200,0.1274 l 0.4200,-0.3945 l 0.4200,-0.2163 l 0.4200,0.0315 l 0.4200,-0.0078 l 0.4200,0.0854 l 0.4200,-0.0523 l 0.4200,-0.0318 l 0.4200,0.0611 l 0.4200,-0.0089 l 0.4200,-0.1410 l 0.4200,0.0118 l 0.4200,0.0519 l 0.4200,-0.0295 l 0.4200,0.0949 l 0.4200,0.0689 l 0.4200,-0.1669 l 0.4200,0.0391 l 0.4200,0.7058 l 0.4200,-0.1265 l 0.4200,-0.2421 l 0.4200,-0.1815 l 0.4200,-0.0563 l 0.4200,-0.0808 l 0.4200,-0.1542 l 0.4200,0.0015 l 0.4200,0.0588 l 0.4200,0.0306 l 0.4200,-0.2716 l 0.4200,-0.1263 l 0.4200,0.0596 l 0.4200,0.1186 l 0.4200,-0.0458 l 0.4200,0.0034 l 0.4200,0.0448 "/></g></svg>