<?xml version="1.0" encoding="UTF-8"?>
<!DOCTYPE svg PUBLIC "-//W3C//DTD SVG 1.1//EN"
    "http://www.w3.org/Graphics/SVG/1.1/DTD/svg11.dtd"><svg xmlns="http://www.w3.org/2000/svg" height="400.0000" stroke-opacity="1" viewBox="0 0 600 400" font-size="1" width="600.0000" xmlns:xlink="http://www.w3.org/1999/xlink" stroke="rgb(0,0,0)" version="1.1"><defs></defs><g stroke-linejoin="miter" stroke-opacity="0.0" fill-opacity="0.2" stroke="rgb(0,0,0)" stroke-width="0.0" fill="rgb(85,85,85)" stroke-linecap="butt" stroke-miterlimit="10.0"><path d="M 94.4056,321.6783 l -0.0000,-279.7203 h -5.5944 l -0.0000,279.7203 Z"/></g><g stroke-linejoin="miter" stroke-opacity="1.0" fill-opacity="0.7" font-size="11.188811188811187px" stroke="rgb(0,0,0)" stroke-width="1.9296726052976874" fill="rgb(51,51,51)" stroke-linecap="butt" stroke-miterlimit="10.0"><text dominant-baseline="middle" transform="matrix(1.0000,0.0000,0.0000,1.0000,80.4196,47.2797)" stroke="none" text-anchor="end">0.0020</text></g><g stroke-linejoin="miter" stroke-opacity="0.5" fill-opacity="0.0" stroke="rgb(26,102,204)" stroke-width="1.9296726052976874" fill="rgb(0,0,0)" stroke-linecap="butt" stroke-miterlimit="10.0"><path d="M 86.0140,47.2797 h 5.5944 "/></g><g stroke-linejoin="miter" stroke-opacity="1.0" fill-opacity="0.7" font-size="11.188811188811187px" stroke="rgb(0,0,0)" stroke-width="1.9296726052976874" fill="rgb(51,51,51)" stroke-linecap="butt" stroke-miterlimit="10.0"><text dominant-baseline="middle" transform="matrix(1.0000,0.0000,0.0000,1.0000,80.4196,85.1486)" stroke="none" text-anchor="end">0.0010</text></g><g stroke-linejoin="miter" stroke-opacity="0.5" fill-opacity="0.0" stroke="rgb(26,102,204)" stroke-width="1.9296726052976874" fill="rgb(0,0,0)" stroke-linecap="butt" stroke-miterlimit="10.0"><path d="M 86.0140,85.1486 h 5.5944 "/></g><g stroke-linejoin="miter" stroke-opacity="1.0" fill-opacity="0.7" font-size="11.188811188811187px" stroke="rgb(0,0,0)" stroke-width="1.9296726052976874" fill="rgb(51,51,51)" stroke-linecap="butt" stroke-miterlimit="10.0"><text dominant-baseline="middle" transform="matrix(1.0000,0.0000,0.0000,1.0000,80.4196,123.0176)" stroke="none" text-anchor="end">0.0</text></g><g stroke-linejoin="miter" stroke-opacity="0.5" fill-opacity="0.0" stroke="rgb(26,102,204)" stroke-width="1.9296726052976874" fill="rgb(0,0,0)" stroke-linecap="butt" stroke-miterlimit="10.0"><path d="M 86.0140,123.0176 h 5.5944 "/></g><g stroke-linejoin="miter" stroke-opacity="1.0" fill-opacity="0.7" font-size="11.188811188811187px" stroke="rgb(0,0,0)" stroke-width="1.9296726052976874" fill="rgb(51,51,51)" stroke-linecap="butt" stroke-miterlimit="10.0"><text dominant-baseline="middle" transform="matrix(1.0000,0.0000,0.0000,1.0000,80.4196,160.8866)" stroke="none" text-anchor="end">-0.0010</text></g><g stroke-linejoin="miter" stroke-opacity="0.5" fill-opacity="0.0" stroke="rgb(26,102,204)" stroke-width="1.9296726052976874" fill="rgb(0,0,0)" stroke-linecap="butt" stroke-miterlimit="10.0"><path d="M 86.0140,160.8866 h 5.5944 "/></g><g stroke-linejoin="miter" stroke-opacity="1.0" fill-opacity="0.7" font-size="11.188811188811187px" stroke="rgb(0,0,0)" stroke-width="1.9296726052976874" fill="rgb(51,51,51)" stroke-linecap="butt" stroke-miterlimit="10.0"><text dominant-baseline="middle" transform="matrix(1.0000,0.0000,0.0000,1.0000,80.4196,198.7555)" stroke="none" text-anchor="end">-0.0020</text></g><g stroke-linejoin="miter" stroke-opacity="0.5" fill-opacity="0.0" stroke="rgb(26,102,204)" stroke-width="1.9296726052976874" fill="rgb(0,0,0)" stroke-linecap="butt" stroke-miterlimit="10.0"><path d="M 86.0140,198.7555 h 5.5944 "/></g><g stroke-linejoin="miter" stroke-opacity="1.0" fill-opacity="0.7" font-size="11.188811188811187px" stroke="rgb(0,0,0)" stroke-width="1.9296726052976874" fill="rgb(51,51,51)" stroke-linecap="butt" stroke-miterlimit="10.0"><text dominant-baseline="middle" transform="matrix(1.0000,0.0000,0.0000,1.0000,80.4196,236.6245)" stroke="none" text-anchor="end">-0.0030</text></g><g stroke-linejoin="miter" stroke-opacity="0.5" fill-opacity="0.0" stroke="rgb(26,102,204)" stroke-width="1.9296726052976874" fill="rgb(0,0,0)" stroke-linecap="butt" stroke-miterlimit="10.0"><path d="M 86.0140,236.6245 h 5.5944 "/></g><g stroke-linejoin="miter" stroke-opacity="1.0" fill-opacity="0.7" font-size="11.188811188811187px" stroke="rgb(0,0,0)" stroke-width="1.9296726052976874" fill="rgb(51,51,51)" stroke-linecap="butt" stroke-miterlimit="10.0"><text dominant-baseline="middle" transform="matrix(1.0000,0.0000,0.0000,1.0000,80.4196,274.4934)" stroke="none" text-anchor="end">-0.0040</text></g><g stroke-linejoin="miter" stroke-opacity="0.5" fill-opacity="0.0" stroke="rgb(26,102,204)" stroke-width="1.9296726052976874" fill="rgb(0,0,0)" stroke-linecap="butt" stroke-miterlimit="10.0"><path d="M 86.0140,274.4934 h 5.5944 "/></g><g stroke-linejoin="miter" stroke-opacity="1.0" fill-opacity="0.7" font-size="11.188811188811187px" stroke="rgb(0,0,0)" stroke-width="1.9296726052976874" fill="rgb(51,51,51)" stroke-linecap="butt" stroke-miterlimit="10.0"><text dominant-baseline="middle" transform="matrix(1.0000,0.0000,0.0000,1.0000,80.4196,312.3624)" stroke="none" text-anchor="end">-0.0050</text></g><g stroke-linejoin="miter" stroke-opacity="0.5" fill-opacity="0.0" stroke="rgb(26,102,204)" stroke-width="1.9296726052976874" fill="rgb(0,0,0)" stroke-linecap="butt" stroke-miterlimit="10.0"><path d="M 86.0140,312.3624 h 5.5944 "/></g><g stroke-linejoin="miter" stroke-opacity="0.0" fill-opacity="0.2" stroke="rgb(0,0,0)" stroke-width="0.0" fill="rgb(85,85,85)" stroke-linecap="butt" stroke-miterlimit="10.0"><path d="M 527.9720,341.2587 l -0.0000,-5.5944 h -419.5804 l -0.0000,5.5944 Z"/></g><g stroke-linejoin="miter" stroke-opacity="1.0" fill-opacity="0.7" font-size="11.188811188811187px" stroke="rgb(0,0,0)" stroke-width="1.9296726052976874" fill="rgb(51,51,51)" stroke-linecap="butt" stroke-miterlimit="10.0"><text dominant-baseline="text-before-edge" transform="matrix(1.0000,0.0000,0.0000,1.0000,500.6720,349.6503)" stroke="none" text-anchor="middle">1.7e4</text></g><g stroke-linejoin="miter" stroke-opacity="0.5" fill-opacity="0.0" stroke="rgb(26,102,204)" stroke-width="1.9296726052976874" fill="rgb(0,0,0)" stroke-linecap="butt" stroke-miterlimit="10.0"><path d="M 500.6720,338.4615 v 5.5944 "/></g><g stroke-linejoin="miter" stroke-opacity="1.0" fill-opacity="0.7" font-size="11.188811188811187px" stroke="rgb(0,0,0)" stroke-width="1.9296726052976874" fill="rgb(51,51,51)" stroke-linecap="butt" stroke-miterlimit="10.0"><text dominant-baseline="text-before-edge" transform="matrix(1.0000,0.0000,0.0000,1.0000,458.6720,349.6503)" stroke="none" text-anchor="middle">1.7e4</text></g><g stroke-linejoin="miter" stroke-opacity="0.5" fill-opacity="0.0" stroke="rgb(26,102,204)" stroke-width="1.9296726052976874" fill="rgb(0,0,0)" stroke-linecap="butt" stroke-miterlimit="10.0"><path d="M 458.6720,338.4615 v 5.5944 "/></g><g stroke-linejoin="miter" stroke-opacity="1.0" fill-opacity="0.7" font-size="11.188811188811187px" stroke="rgb(0,0,0)" stroke-width="1.9296726052976874" fill="rgb(51,51,51)" stroke-linecap="butt" stroke-miterlimit="10.0"><text dominant-baseline="text-before-edge" transform="matrix(1.0000,0.0000,0.0000,1.0000,416.6719,349.6503)" stroke="none" text-anchor="middle">1.7e4</text></g><g stroke-linejoin="miter" stroke-opacity="0.5" fill-opacity="0.0" stroke="rgb(26,102,204)" stroke-width="1.9296726052976874" fill="rgb(0,0,0)" stroke-linecap="butt" stroke-miterlimit="10.0"><path d="M 416.6719,338.4615 v 5.5944 "/></g><g stroke-linejoin="miter" stroke-opacity="1.0" fill-opacity="0.7" font-size="11.188811188811187px" stroke="rgb(0,0,0)" stroke-width="1.9296726052976874" fill="rgb(51,51,51)" stroke-linecap="butt" stroke-miterlimit="10.0"><text dominant-baseline="text-before-edge" transform="matrix(1.0000,0.0000,0.0000,1.0000,374.6719,349.6503)" stroke="none" text-anchor="middle">1.7e4</text></g><g stroke-linejoin="miter" stroke-opacity="0.5" fill-opacity="0.0" stroke="rgb(26,102,204)" stroke-width="1.9296726052976874" fill="rgb(0,0,0)" stroke-linecap="butt" stroke-miterlimit="10.0"><path d="M 374.6719,338.4615 v 5.5944 "/></g><g stroke-linejoin="miter" stroke-opacity="1.0" fill-opacity="0.7" font-size="11.188811188811187px" stroke="rgb(0,0,0)" stroke-width="1.9296726052976874" fill="rgb(51,51,51)" stroke-linecap="butt" stroke-miterlimit="10.0"><text dominant-baseline="text-before-edge" transform="matrix(1.0000,0.0000,0.0000,1.0000,332.6718,349.6503)" stroke="none" text-anchor="middle">1.7e4</text></g><g stroke-linejoin="miter" stroke-opacity="0.5" fill-opacity="0.0" stroke="rgb(26,102,204)" stroke-width="1.9296726052976874" fill="rgb(0,0,0)" stroke-linecap="butt" stroke-miterlimit="10.0"><path d="M 332.6718,338.4615 v 5.5944 "/></g><g stroke-linejoin="miter" stroke-opacity="1.0" fill-opacity="0.7" font-size="11.188811188811187px" stroke="rgb(0,0,0)" stroke-width="1.9296726052976874" fill="rgb(51,51,51)" stroke-linecap="butt" stroke-miterlimit="10.0"><text dominant-baseline="text-before-edge" transform="matrix(1.0000,0.0000,0.0000,1.0000,290.6718,349.6503)" stroke="none" text-anchor="middle">1.6e4</text></g><g stroke-linejoin="miter" stroke-opacity="0.5" fill-opacity="0.0" stroke="rgb(26,102,204)" stroke-width="1.9296726052976874" fill="rgb(0,0,0)" stroke-linecap="butt" stroke-miterlimit="10.0"><path d="M 290.6718,338.4615 v 5.5944 "/></g><g stroke-linejoin="miter" stroke-opacity="1.0" fill-opacity="0.7" font-size="11.188811188811187px" stroke="rgb(0,0,0)" stroke-width="1.9296726052976874" fill="rgb(51,51,51)" stroke-linecap="butt" stroke-miterlimit="10.0"><text dominant-baseline="text-before-edge" transform="matrix(1.0000,0.0000,0.0000,1.0000,248.6717,349.6503)" stroke="none" text-anchor="middle">1.6e4</text></g><g stroke-linejoin="miter" stroke-opacity="0.5" fill-opacity="0.0" stroke="rgb(26,102,204)" stroke-width="1.9296726052976874" fill="rgb(0,0,0)" stroke-linecap="butt" stroke-miterlimit="10.0"><path d="M 248.6717,338.4615 v 5.5944 "/></g><g stroke-linejoin="miter" stroke-opacity="1.0" fill-opacity="0.7" font-size="11.188811188811187px" stroke="rgb(0,0,0)" stroke-width="1.9296726052976874" fill="rgb(51,51,51)" stroke-linecap="butt" stroke-miterlimit="10.0"><text dominant-baseline="text-before-edge" transform="matrix(1.0000,0.0000,0.0000,1.0000,206.6717,349.6503)" stroke="none" text-anchor="middle">1.6e4</text></g><g stroke-linejoin="miter" stroke-opacity="0.5" fill-opacity="0.0" stroke="rgb(26,102,204)" stroke-width="1.9296726052976874" fill="rgb(0,0,0)" stroke-linecap="butt" stroke-miterlimit="10.0"><path d="M 206.6717,338.4615 v 5.5944 "/></g><g stroke-linejoin="miter" stroke-opacity="1.0" fill-opacity="0.7" font-size="11.188811188811187px" stroke="rgb(0,0,0)" stroke-width="1.9296726052976874" fill="rgb(51,51,51)" stroke-linecap="butt" stroke-miterlimit="10.0"><text dominant-baseline="text-before-edge" transform="matrix(1.0000,0.0000,0.0000,1.0000,164.6717,349.6503)" stroke="none" text-anchor="middle">1.6e4</text></g><g stroke-linejoin="miter" stroke-opacity="0.5" fill-opacity="0.0" stroke="rgb(26,102,204)" stroke-width="1.9296726052976874" fill="rgb(0,0,0)" stroke-linecap="butt" stroke-miterlimit="10.0"><path d="M 164.6717,338.4615 v 5.5944 "/></g><g stroke-linejoin="miter" stroke-opacity="1.0" fill-opacity="0.7" font-size="11.188811188811187px" stroke="rgb(0,0,0)" stroke-width="1.9296726052976874" fill="rgb(51,51,51)" stroke-linecap="butt" stroke-miterlimit="10.0"><text dominant-baseline="text-before-edge" transform="matrix(1.0000,0.0000,0.0000,1.0000,122.6716,349.6503)" stroke="none" text-anchor="middle">1.6e4</text></g><g stroke-linejoin="miter" stroke-opacity="0.5" fill-opacity="0.0" stroke="rgb(26,102,204)" stroke-width="1.9296726052976874" fill="rgb(0,0,0)" stroke-linecap="butt" stroke-miterlimit="10.0"><path d="M 122.6716,338.4615 v 5.5944 "/></g><g stroke-linejoin="miter" stroke-opacity="0.0" fill-opacity="2.0e-2" stroke="rgb(0,0,0)" stroke-width="0.0" fill="rgb(255,255,255)" stroke-linecap="butt" stroke-miterlimit="10.0"><path d="M 527.9720,321.6783 l -0.0000,-279.7203 h -419.5804 l -0.0000,279.7203 Z"/></g><g stroke-linejoin="miter" stroke-opacity="1.0" fill-opacity="0.0" stroke="rgb(250,165,218)" stroke-width="0.48241815132442184" fill="rgb(0,0,0)" stroke-linecap="butt" stroke-miterlimit="10.0"><path d="M 108.3916,165.0675 l 0.4200,-7.2512 l 0.4200,21.6709 l 0.4200,-20.9862 l 0.4200,-19.9692 l 0.4200,-12.5124 l 0.4200,8.0156 l 0.4200,-10.7740 l 0.4200,1.0222 l 0.4200,-1.6242 l 0.4200,-19.2125 l 0.4200,-8.9491 l 0.4200,-12.2128 l 0.4200,1.6500 l 0.4200,-23.4652 l 0.4200,-2.7234 l 0.4200,0.6208 l 0.4200,10.1353 l 0.4200,-2.5401 l 0.4200,-6.6294 l 0.4200,0.0987 l 0.4200,-0.6956 l 0.4200,6.6004 l 0.4200,9.9765 l 0.4200,-2.4732 l 0.4200,0.8924 l 0.4200,9.4566 l 0.4200,1.2450 l 0.4200,2.1500 l 0.4200,-21.7141 l 0.4200,-0.2396 l 0.4200,5.6110 l 0.4200,13.3811 l 0.4200,9.1709 l 0.4200,-5.8850 l 0.4200,8.5756 l 0.4200,3.5650 l 0.4200,-4.1074 l 0.4200,11.3088 l 0.4200,28.4988 l 0.4200,5.8233 l 0.4200,10.5804 l 0.4200,-8.8732 l 0.4200,10.2084 l 0.4200,-18.0962 l 0.4200,-8.1115 l 0.4200,7.5676 l 0.4200,30.0205 l 0.4200,-7.3394 l 0.4200,-5.4365 l 0.4200,4.6532 l 0.4200,-9.5557 l 0.4200,-16.5052 l 0.4200,-2.6208 l 0.4200,-0.3024 l 0.4200,-19.0164 l 0.4200,-13.0905 l 0.4200,-4.3605 l 0.4200,8.0018 l 0.4200,-3.9052 l 0.4200,-9.3012 l 0.4200,-6.0554 l 0.4200,-20.5754 l 0.4200,6.6428 l 0.4200,16.4029 l 0.4200,10.9345 l 0.4200,6.4077 l 0.4200,6.3768 l 0.4200,-5.7139 l 0.4200,8.8824 l 0.4200,12.2128 l 0.4200,-15.0299 l 0.4200,2.1203 l 0.4200,17.8909 l 0.4200,-13.5037 l 0.4200,16.7746 l 0.4200,23.3741 l 0.4200,-2.5632 l 0.4200,-42.3849 l 0.4200,-11.0836 l 0.4200,-6.3713 l 0.4200,15.0163 l 0.4200,-25.0589 l 0.4200,-10.5486 l 0.4200,-9.6359 l 0.4200,2.9345 l 0.4200,-7.7600 l 0.4200,12.1952 l 0.4200,-3.3619 l 0.4200,-5.3050 l 0.4200,0.6748 l 0.4200,-7.2598 l 0.4200,12.5628 l 0.4200,10.0639 l 0.4200,-3.0734 l 0.4200,-4.1619 l 0.4200,7.9869 l 0.4200,-5.6594 l 0.4200,27.6631 l 0.4200,-24.0212 l 0.4200,1.0720 l 0.4200,6.8599 l 0.4200,-13.1496 l 0.4200,-6.3654 l 0.4200,-4.8857 l 0.4200,10.1363 l 0.4200,6.5804 l 0.4200,9.3127 l 0.4200,-13.3284 l 0.4200,-6.6766 l 0.4200,5.2954 l 0.4200,2.3961 l 0.4200,-2.1044 l 0.4200,4.1437 l 0.4200,7.6256 l 0.4200,8.2147 l 0.4200,4.2294 l 0.4200,9.9132 l 0.4200,-20.4437 l 0.4200,-1.4289 l 0.4200,8.1445 l 0.4200,23.5692 l 0.4200,7.8826 l 0.4200,0.3474 l 0.4200,-12.0900 l 0.4200,6.7208 l 0.4200,-31.1889 l 0.4200,3.0086 l 0.4200,-7.3170 l 0.4200,-7.8622 l 0.4200,-2.9664 l 0.4200,-6.2160 l 0.4200,3.5532 l 0.4200,3.0919 l 0.4200,-4.7769 l 0.4200,19.5633 l 0.4200,2.5483 l 0.4200,6.5888 l 0.4200,-10.0686 l 0.4200,2.3608 l 0.4200,1.1849 l 0.4200,-2.5855 l 0.4200,26.1137 l 0.4200,-19.9959 l 0.4200,-8.1576 l 0.4200,4.5574 l 0.4200,9.2146 l 0.4200,-3.9350 l 0.4200,0.4412 l 0.4200,18.6055 l 0.4200,41.2172 l 0.4200,8.0015 l 0.4200,-13.7945 l 0.4200,18.5801 l 0.4200,-23.7361 l 0.4200,11.5037 l 0.4200,42.6114 l 0.4200,-18.2649 l 0.4200,1.1563 l 0.4200,-26.2590 l 0.4200,-26.4702 l 0.4200,-3.0843 l 0.4200,-20.7909 l 0.4200,1.5651 l 0.4200,-9.9802 l 0.4200,-7.5999 l 0.4200,-0.3436 l 0.4200,14.2249 l 0.4200,-10.2061 l 0.4200,5.2871 l 0.4200,-10.2463 l 0.4200,4.4464 l 0.4200,1.6426 l 0.4200,-7.7073 l 0.4200,-3.2530 l 0.4200,16.0945 l 0.4200,-27.2252 l 0.4200,2.7822 l 0.4200,-0.6805 l 0.4200,1.5659 l 0.4200,3.3674 l 0.4200,11.9197 l 0.4200,1.1784 l 0.4200,24.0031 l 0.4200,5.9153 l 0.4200,-17.9721 l 0.4200,-12.4967 l 0.4200,13.3536 l 0.4200,-10.3297 l 0.4200,7.1301 l 0.4200,10.4831 l 0.4200,-7.6273 l 0.4200,14.4393 l 0.4200,4.0117 l 0.4200,-8.6328 l 0.4200,-14.3605 l 0.4200,-11.9330 l 0.4200,-3.4752 l 0.4200,4.1741 l 0.4200,25.7262 l 0.4200,21.2195 l 0.4200,-7.6016 l 0.4200,-20.7214 l 0.4200,41.0850 l 0.4200,17.1265 l 0.4200,-17.5678 l 0.4200,-13.8584 l 0.4200,-20.1510 l 0.4200,-1.9568 l 0.4200,-6.4116 l 0.4200,-6.6894 l 0.4200,5.5461 l 0.4200,-2.1563 l 0.4200,16.5813 l 0.4200,-5.7386 l 0.4200,-8.3253 l 0.4200,-4.5779 l 0.4200,1.5630 l 0.4200,3.7672 l 0.4200,-2.5021 l 0.4200,18.2583 l 0.4200,-10.3569 l 0.4200,3.3745 l 0.4200,-2.2713 l 0.4200,-17.4824 l 0.4200,0.7708 l 0.4200,10.4275 l 0.4200,18.8608 l 0.4200,-7.0026 l 0.4200,-6.8306 l 0.4200,13.1460 l 0.4200,-15.1959 l 0.4200,-3.5869 l 0.4200,-6.9578 l 0.4200,-9.8623 l 0.4200,3.9655 l 0.4200,-8.3926 l 0.4200,-1.3734 l 0.4200,0.7841 l 0.4200,2.8199 l 0.4200,-1.5731 l 0.4200,-10.1198 l 0.4200,-6.0538 l 0.4200,1.0885 l 0.4200,3.2266 l 0.4200,9.2077 l 0.4200,15.5657 l 0.4200,-4.4947 l 0.4200,0.0668 l 0.4200,-2.4542 l 0.4200,-12.6816 l 0.4200,-0.0203 l 0.4200,-0.8609 l 0.4200,2.6479 l 0.4200,14.4226 l 0.4200,-7.6458 l 0.4200,4.1864 l 0.4200,-1.8465 l 0.4200,2.5542 l 0.4200,-10.8110 l 0.4200,1.0020 l 0.4200,-8.0068 l 0.4200,9.8874 l 0.4200,15.5202 l 0.4200,-7.4672 l 0.4200,9.6242 l 0.4200,-1.5477 l 0.4200,-7.8705 l 0.4200,5.3940 l 0.4200,-6.5136 l 0.4200,24.5336 l 0.4200,-19.0115 l 0.4200,5.9232 l 0.4200,-8.3028 l 0.4200,-1.7078 l 0.4200,0.7697 l 0.4200,10.9068 l 0.4200,0.5860 l 0.4200,9.8162 l 0.4200,0.5134 l 0.4200,39.4618 l 0.4200,4.1543 l 0.4200,-15.5014 l 0.4200,17.8943 l 0.4200,-1.7595 l 0.4200,9.0678 l 0.4200,-24.0847 l 0.4200,-6.0963 l 0.4200,2.5697 l 0.4200,-13.3709 l 0.4200,-8.2304 l 0.4200,0.5092 l 0.4200,-15.7079 l 0.4200,-8.2821 l 0.4200,-3.1228 l 0.4200,-3.8506 l 0.4200,5.6382 l 0.4200,-7.3823 l 0.4200,-0.0040 l 0.4200,1.8738 l 0.4200,5.0516 l 0.4200,-4.6043 l 0.4200,2.8725 l 0.4200,3.1757 l 0.4200,4.4488 l 0.4200,-8.1224 l 0.4200,7.5215 l 0.4200,13.8029 l 0.4200,-6.2172 l 0.4200,-0.6688 l 0.4200,12.4013 l 0.4200,1.7868 l 0.4200,-13.8554 l 0.4200,-1.4347 l 0.4200,-8.1284 l 0.4200,2.3771 l 0.4200,16.6025 l 0.4200,11.6198 l 0.4200,-14.9087 l 0.4200,31.7819 l 0.4200,-17.1788 l 0.4200,4.8567 l 0.4200,5.0782 l 0.4200,24.9490 l 0.4200,-1.7630 l 0.4200,-22.8040 l 0.4200,2.4674 l 0.4200,28.3178 l 0.4200,-34.8950 l 0.4200,39.2689 l 0.4200,19.5808 l 0.4200,28.1837 l 0.4200,-7.6611 l 0.4200,11.0342 l 0.4200,-5.1052 l 0.4200,-28.5217 l 0.4200,-20.2216 l 0.4200,-38.7590 l 0.4200,13.6990 l 0.4200,-24.0617 l 0.4200,-13.0481 l 0.4200,3.8182 l 0.4200,-21.7971 l 0.4200,4.4968 l 0.4200,-10.1731 l 0.4200,-20.0139 l 0.4200,3.3873 l 0.4200,8.3497 l 0.4200,-8.2059 l 0.4200,-4.1557 l 0.4200,2.5122 l 0.4200,-2.8293 l 0.4200,1.8685 l 0.4200,4.3961 l 0.4200,1.8590 l 0.4200,2.3071 l 0.4200,1.2615 l 0.4200,-7.0290 l 0.4200,5.7335 l 0.4200,-1.0444 l 0.4200,-7.0865 l 0.4200,-2.2987 l 0.4200,5.2844 l 0.4200,-2.3430 l 0.4200,7.7352 l 0.4200,15.4677 l 0.4200,-10.1440 l 0.4200,-4.6956 l 0.4200,4.7614 l 0.4200,-0.7704 l 0.4200,16.1110 l 0.4200,2.0704 l 0.4200,32.9930 l 0.4200,-8.8593 l 0.4200,31.7096 l 0.4200,11.0133 l 0.4200,14.6109 l 0.4200,-41.5512 l 0.4200,-45.5321 l 0.4200,-6.8405 l 0.4200,-5.0700 l 0.4200,-0.9371 l 0.4200,2.6592 l 0.4200,-3.9593 l 0.4200,0.8371 l 0.4200,11.6569 l 0.4200,21.4813 l 0.4200,1.4524 l 0.4200,35.8860 l 0.4200,16.0511 l 0.4200,-23.9838 l 0.4200,-34.3322 l 0.4200,17.0391 l 0.4200,15.6468 l 0.4200,4.3493 l 0.4200,10.3147 l 0.4200,16.3936 l 0.4200,-27.4725 l 0.4200,-3.6740 l 0.4200,-9.5039 l 0.4200,-28.7798 l 0.4200,11.7371 l 0.4200,-4.1086 l 0.4200,26.4717 l 0.4200,25.4269 l 0.4200,-19.6045 l 0.4200,24.1590 l 0.4200,-26.2354 l 0.4200,-27.6774 l 0.4200,8.7056 l 0.4200,-18.9836 l 0.4200,7.8035 l 0.4200,8.9983 l 0.4200,-19.5921 l 0.4200,1.5157 l 0.4200,-16.7560 l 0.4200,-5.4669 l 0.4200,-0.5321 l 0.4200,3.0957 l 0.4200,4.3519 l 0.4200,-9.3738 l 0.4200,3.1645 l 0.4200,-2.7454 l 0.4200,4.0103 l 0.4200,5.1523 l 0.4200,7.7016 l 0.4200,-9.7650 l 0.4200,10.7915 l 0.4200,10.0156 l 0.4200,-1.0533 l 0.4200,28.4038 l 0.4200,-7.6427 l 0.4200,32.8906 l 0.4200,2.2790 l 0.4200,-25.4227 l 0.4200,11.3601 l 0.4200,-26.3400 l 0.4200,6.8075 l 0.4200,-22.7213 l 0.4200,10.5187 l 0.4200,-16.2067 l 0.4200,4.8562 l 0.4200,12.9706 l 0.4200,28.5226 l 0.4200,3.8135 l 0.4200,-5.4010 l 0.4200,-23.7072 l 0.4200,17.2737 l 0.4200,7.2232 l 0.4200,-7.3581 l 0.4200,-12.7946 l 0.4200,4.2255 l 0.4200,-4.9654 l 0.4200,-8.0678 l 0.4200,-9.0697 l 0.4200,9.8719 l 0.4200,-2.3750 l 0.4200,-8.8870 l 0.4200,2.7271 l 0.4200,22.6576 l 0.4200,-17.3973 l 0.4200,3.6691 l 0.4200,-8.9122 l 0.4200,-3.3288 l 0.4200,-2.9659 l 0.4200,9.2665 l 0.4200,-4.2511 l 0.4200,8.2686 l 0.4200,20.0924 l 0.4200,-20.8090 l 0.4200,-4.7395 l 0.4200,23.6099 l 0.4200,8.3799 l 0.4200,-7.6750 l 0.4200,-25.4643 l 0.4200,10.7550 l 0.4200,6.1741 l 0.4200,0.8552 l 0.4200,-20.0575 l 0.4200,-0.2393 l 0.4200,-4.5237 l 0.4200,2.6588 l 0.4200,3.0724 l 0.4200,-3.2456 l 0.4200,5.5465 l 0.4200,20.6419 l 0.4200,-17.2489 l 0.4200,3.2872 l 0.4200,12.7489 l 0.4200,-3.7990 l 0.4200,2.2073 l 0.4200,-3.8315 l 0.4200,16.8216 l 0.4200,2.2806 l 0.4200,11.7980 l 0.4200,-1.9530 l 0.4200,-23.7849 l 0.4200,-3.1717 l 0.4200,13.5767 l 0.4200,8.4003 l 0.4200,-11.5648 l 0.4200,-3.9823 l 0.4200,-18.6938 l 0.4200,10.9339 l 0.4200,-11.1598 l 0.4200,-0.3190 l 0.4200,14.8647 l 0.4200,5.8157 l 0.4200,0.6287 l 0.4200,39.8581 l 0.4200,-7.1563 l 0.4200,-14.8489 l 0.4200,-0.4327 l 0.4200,6.3293 l 0.4200,-12.7776 l 0.4200,31.0919 l 0.4200,-6.4805 l 0.4200,-25.0656 l 0.4200,-21.4987 l 0.4200,-8.0285 l 0.4200,2.1834 l 0.4200,-14.4510 l 0.4200,-0.6999 l 0.4200,-0.0308 l 0.4200,9.5152 l 0.4200,5.4842 l 0.4200,11.4656 l 0.4200,20.5097 l 0.4200,10.0952 l 0.4200,-24.6803 l 0.4200,-13.9677 l 0.4200,0.4685 l 0.4200,4.8049 l 0.4200,5.4915 l 0.4200,4.2609 l 0.4200,-6.1003 l 0.4200,14.8239 l 0.4200,4.8127 l 0.4200,-24.9701 l 0.4200,18.5292 l 0.4200,-2.3560 l 0.4200,1.9726 l 0.4200,-7.9309 l 0.4200,-9.9953 l 0.4200,5.3143 l 0.4200,15.7697 l 0.4200,39.6584 l 0.4200,58.5132 l 0.4200,70.1910 l 0.4200,16.0903 l 0.4200,-81.2898 l 0.4200,-50.9410 l 0.4200,-4.3963 l 0.4200,12.8756 l 0.4200,52.8816 l 0.4200,-40.3118 l 0.4200,-6.4647 l 0.4200,25.1421 l 0.4200,-51.8746 l 0.4200,23.8012 l 0.4200,-13.7512 l 0.4200,-11.6123 l 0.4200,5.1784 l 0.4200,-26.9970 l 0.4200,-18.0007 l 0.4200,4.2453 l 0.4200,30.0994 l 0.4200,-10.9447 l 0.4200,21.6991 l 0.4200,1.0447 l 0.4200,3.4832 l 0.4200,-2.1710 l 0.4200,46.0384 l 0.4200,-7.4864 l 0.4200,-40.4051 l 0.4200,-6.5926 l 0.4200,-29.5415 l 0.4200,-35.7050 l 0.4200,7.5437 l 0.4200,-15.0195 l 0.4200,-15.7763 l 0.4200,0.4444 l 0.4200,-0.6311 l 0.4200,14.9251 l 0.4200,10.0928 l 0.4200,-27.4970 l 0.4200,-6.7405 l 0.4200,1.7798 l 0.4200,4.9094 l 0.4200,13.0568 l 0.4200,-30.0174 l 0.4200,-18.0317 l 0.4200,7.3526 l 0.4200,8.1792 l 0.4200,-19.3534 l 0.4200,4.7440 l 0.4200,12.7401 l 0.4200,-19.2642 l 0.4200,-1.1602 l 0.4200,10.6870 l 0.4200,5.6017 l 0.4200,3.8443 l 0.4200,21.5778 l 0.4200,-0.9152 l 0.4200,8.0878 l 0.4200,28.2802 l 0.4200,21.6504 l 0.4200,-29.0662 l 0.4200,3.1010 l 0.4200,-29.9769 l 0.4200,3.9949 l 0.4200,-5.5093 l 0.4200,4.2791 l 0.4200,-0.5713 l 0.4200,2.0082 l 0.4200,0.5445 l 0.4200,10.4417 l 0.4200,-18.9717 l 0.4200,22.9577 l 0.4200,28.4589 l 0.4200,-39.0913 l 0.4200,14.7361 l 0.4200,13.0936 l 0.4200,14.8696 l 0.4200,-4.9268 l 0.4200,36.9413 l 0.4200,-11.2978 l 0.4200,-21.7576 l 0.4200,-27.9096 l 0.4200,29.4948 l 0.4200,33.4196 l 0.4200,-17.0362 l 0.4200,-18.1149 l 0.4200,-23.9552 l 0.4200,3.6199 l 0.4200,4.5436 l 0.4200,-19.8238 l 0.4200,14.8697 l 0.4200,18.3447 l 0.4200,28.7692 l 0.4200,-5.6916 l 0.4200,23.4142 l 0.4200,42.6389 l 0.4200,15.6402 l 0.4200,-7.3426 l 0.4200,-19.9204 l 0.4200,43.2321 l 0.4200,-37.4305 l 0.4200,36.4243 l 0.4200,-7.3735 l 0.4200,15.9405 l 0.4200,-16.4032 l 0.4200,-43.4320 l 0.4200,25.8112 l 0.4200,-31.4178 l 0.4200,17.0336 l 0.4200,-14.7306 l 0.4200,-49.9574 l 0.4200,-0.3747 l 0.4200,34.7464 l 0.4200,-12.3189 l 0.4200,-5.1873 l 0.4200,33.2708 l 0.4200,23.1741 l 0.4200,-3.5244 l 0.4200,-4.2432 l 0.4200,18.8167 l 0.4200,-41.5947 l 0.4200,-34.3918 l 0.4200,-32.8711 l 0.4200,8.9570 l 0.4200,-0.4040 l 0.4200,-27.9194 l 0.4200,24.9946 l 0.4200,-8.7505 l 0.4200,-21.4422 l 0.4200,4.8084 l 0.4200,16.5635 l 0.4200,-44.8639 l 0.4200,-5.4163 l 0.4200,-3.9998 l 0.4200,-3.4227 l 0.4200,1.3665 l 0.4200,24.4966 l 0.4200,-7.8437 l 0.4200,1.8253 l 0.4200,-28.8245 l 0.4200,5.8761 l 0.4200,6.6590 l 0.4200,-7.7257 l 0.4200,-9.1918 l 0.4200,-4.6003 l 0.4200,2.0632 l 0.4200,5.4552 l 0.4200,15.5643 l 0.4200,3.4543 l 0.4200,1.5436 l 0.4200,-14.0294 l 0.4200,-4.9601 l 0.4200,7.2527 l 0.4200,-8.7670 l 0.4200,9.5069 l 0.4200,22.1841 l 0.4200,-17.7899 l 0.4200,25.5084 l 0.4200,-3.7103 l 0.4200,6.9428 l 0.4200,-16.8131 l 0.4200,-16.6019 l 0.4200,2.7020 l 0.4200,4.7448 l 0.4200,-9.5870 l 0.4200,-2.6402 l 0.4200,1.8289 l 0.4200,12.9304 l 0.4200,2.4534 l 0.4200,5.8531 l 0.4200,-1.3970 l 0.4200,-0.9055 l 0.4200,19.8630 l 0.4200,11.0240 l 0.4200,-14.1760 l 0.4200,18.1071 l 0.4200,12.0188 l 0.4200,0.4142 l 0.4200,-6.1835 l 0.4200,-1.2052 l 0.4200,-23.4198 l 0.4200,19.7192 l 0.4200,0.8081 l 0.4200,16.7385 l 0.4200,-19.0722 l 0.4200,18.5992 l 0.4200,-0.7591 l 0.4200,6.7780 l 0.4200,-12.1477 l 0.4200,3.9211 l 0.4200,-26.0976 l 0.4200,-12.1138 l 0.4200,2.0148 l 0.4200,-6.5509 l 0.4200,3.7336 l 0.4200,-0.4833 l 0.4200,-3.6367 l 0.4200,7.3522 l 0.4200,-7.7157 l 0.4200,-0.5526 l 0.4200,-4.3127 l 0.4200,5.3372 l 0.4200,19.2731 l 0.4200,16.4498 l 0.4200,3.5560 l 0.4200,3.4620 l 0.4200,-6.2337 l 0.4200,6.3083 l 0.4200,-11.3121 l 0.4200,-4.8369 l 0.4200,3.6952 l 0.4200,-24.7842 l 0.4200,70.9685 l 0.4200,32.8773 l 0.4200,-37.1261 l 0.4200,-59.2363 l 0.4200,-2.4715 l 0.4200,14.3365 l 0.4200,-9.4722 l 0.4200,2.7452 l 0.4200,-27.6687 l 0.4200,-4.1144 l 0.4200,-10.6678 l 0.4200,2.7838 l 0.4200,-6.9846 l 0.4200,4.9911 l 0.4200,-1.4849 l 0.4200,5.7690 l 0.4200,-5.2372 l 0.4200,9.8478 l 0.4200,-5.9986 l 0.4200,8.5264 l 0.4200,1.8258 l 0.4200,4.6089 l 0.4200,-0.9075 l 0.4200,-0.9100 l 0.4200,4.6105 l 0.4200,14.0810 l 0.4200,-4.6337 l 0.4200,1.1289 l 0.4200,-14.7383 l 0.4200,3.9008 l 0.4200,1.2633 l 0.4200,7.3717 l 0.4200,-7.3631 l 0.4200,3.4452 l 0.4200,-3.5047 l 0.4200,12.3584 l 0.4200,-2.2034 l 0.4200,-2.7198 l 0.4200,4.3223 l 0.4200,2.4490 l 0.4200,-2.4542 l 0.4200,11.3990 l 0.4200,3.4417 l 0.4200,3.6881 l 0.4200,-9.5221 l 0.4200,4.6752 l 0.4200,5.2679 l 0.4200,0.5307 l 0.4200,-7.6038 l 0.4200,-4.8769 l 0.4200,1.3115 l 0.4200,5.2118 l 0.4200,48.1803 l 0.4200,-29.6752 l 0.4200,28.3068 l 0.4200,-0.4928 l 0.4200,-20.7669 l 0.4200,6.6420 l 0.4200,-0.8387 l 0.4200,-1.4003 l 0.4200,-21.3620 l 0.4200,-11.9776 l 0.4200,11.7637 l 0.4200,16.6503 l 0.4200,-12.6982 l 0.4200,-9.8992 l 0.4200,18.3302 l 0.4200,-15.3454 l 0.4200,6.6283 l 0.4200,9.5345 l 0.4200,-8.4731 l 0.4200,-0.8446 l 0.4200,6.2831 l 0.4200,-8.9042 l 0.4200,23.9729 l 0.4200,-3.1119 l 0.4200,5.0987 l 0.4200,-1.4186 l 0.4200,4.7974 l 0.4200,-12.8312 l 0.4200,-4.7158 l 0.4200,2.2668 l 0.4200,-0.2911 l 0.4200,-9.4076 l 0.4200,7.2278 l 0.4200,2.9679 l 0.4200,5.1865 l 0.4200,5.1608 l 0.4200,-0.7506 l 0.4200,11.9243 l 0.4200,10.8162 l 0.4200,6.2675 l 0.4200,0.7407 l 0.4200,-43.8208 l 0.4200,-7.3959 l 0.4200,-20.8156 l 0.4200,-2.5701 l 0.4200,3.9198 l 0.4200,1.2849 l 0.4200,-13.1383 l 0.4200,4.6596 l 0.4200,-7.4171 l 0.4200,6.3148 l 0.4200,-12.5849 l 0.4200,-1.9801 l 0.4200,0.6786 l 0.4200,-5.1908 l 0.4200,12.3246 l 0.4200,-0.7106 l 0.4200,6.8357 l 0.4200,8.1383 l 0.4200,0.3487 l 0.4200,-9.8716 l 0.4200,-4.8431 l 0.4200,-22.7511 l 0.4200,-1.0935 l 0.4200,-8.0353 l 0.4200,5.4766 l 0.4200,-8.9812 l 0.4200,18.5543 l 0.4200,-4.6112 l 0.4200,6.0948 l 0.4200,-1.1413 l 0.4200,-4.1681 l 0.4200,7.3652 l 0.4200,5.9292 l 0.4200,-0.1921 l 0.4200,-2.0491 l 0.4200,18.0907 l 0.4200,1.9623 l 0.4200,10.2110 l 0.4200,-15.3939 l 0.4200,-9.2547 l 0.4200,3.4465 l 0.4200,-4.7974 l 0.4200,8.7670 l 0.4200,1.6402 l 0.4200,-3.8020 l 0.4200,5.8179 l 0.4200,-2.0522 l 0.4200,7.2294 l 0.4200,-2.1545 l 0.4200,8.2500 l 0.4200,-5.5385 l 0.4200,6.3565 l 0.4200,-11.6584 l 0.4200,-13.6624 l 0.4200,3.4629 l 0.4200,3.5528 l 0.4200,13.2011 l 0.4200,2.8321 l 0.4200,0.4162 l 0.4200,-0.1261 l 0.4200,-12.8319 l 0.4200,5.5988 l 0.4200,0.8873 l 0.4200,-0.0431 l 0.4200,-9.5903 l 0.4200,-4.9536 l 0.4200,-7.7926 l 0.4200,-5.0668 l 0.4200,-6.5776 l 0.4200,4.4388 l 0.4200,-0.4139 l 0.4200,-8.3376 l 0.4200,5.0068 l 0.4200,2.0617 l 0.4200,0.0050 l 0.4200,0.8704 l 0.4200,7.4409 l 0.4200,-22.8093 l 0.4200,14.1256 l 0.4200,1.8373 l 0.4200,8.8444 l 0.4200,7.8346 l 0.4200,6.3214 l 0.4200,0.0935 l 0.4200,-4.6469 l 0.4200,1.1447 l 0.4200,8.3171 l 0.4200,-14.6292 l 0.4200,5.1739 l 0.4200,4.3586 l 0.4200,5.5161 l 0.4200,25.6018 l 0.4200,-3.6269 l 0.4200,2.3584 l 0.4200,1.8141 l 0.4200,2.0655 l 0.4200,-14.1602 l 0.4200,-1.4204 l 0.4200,-4.8907 l 0.4200,5.3041 l 0.4200,3.8811 l 0.4200,-0.5524 l 0.4200,6.4551 l 0.4200,-3.4985 l 0.4200,2.0018 l 0.4200,-1.0209 l 0.4200,3.1231 l 0.4200,7.4780 l 0.4200,13.0556 l 0.4200,-17.5336 l 0.4200,5.6219 l 0.4200,3.0655 l 0.4200,-14.8132 l 0.4200,6.1381 l 0.4200,-20.4340 l 0.4200,-10.4027 l 0.4200,2.4649 l 0.4200,0.3909 l 0.4200,5.0180 l 0.4200,-2.0956 l 0.4200,-0.9689 l 0.4200,3.7137 l 0.4200,0.0384 l 0.4200,-6.5530 l 0.4200,1.3800 l 0.4200,3.3144 l 0.4200,-0.9052 l 0.4200,5.3554 l 0.4200,3.8174 l 0.4200,-8.2007 l 0.4200,2.5175 l 0.4200,36.0463 l 0.4200,-7.7425 l 0.4200,-13.1581 l 0.4200,-9.4070 l 0.4200,-2.6569 l 0.4200,-3.7521 l 0.4200,-7.2306 l 0.4200,0.8949 l 0.4200,3.7077 l 0.4200,2.1254 l 0.4200,-13.0520 l 0.4200,-5.1486 l 0.4200,4.3114 l 0.4200,7.0483 l 0.4200,-1.4648 l 0.4200,1.0521 l 0.4200,3.0692 "/></g><g stroke-linejoin="miter" stroke-opacity="1.0" fill-opacity="0.0" stroke="rgb(93,165,218)" stroke-width="0.48241815132442184" fill="rgb(0,0,0)" stroke-linecap="butt" stroke-miterlimit="10.0"><path d="M 108.3916,104.4511 l 0.4200,-0.3296 l 0.4200,1.9258 l 0.4200,-1.3637 l 0.4200,-1.3720 l 0.4200,-0.8571 l 0.4200,0.7329 l 0.4200,-0.7367 l 0.4200,0.1646 l 0.4200,-0.0433 l 0.4200,-1.4549 l 0.4200,-0.7054 l 0.4200,-1.0001 l 0.4200,0.0667 l 0.4200,-1.9435 l 0.4200,-0.3646 l 0.4200,-0.1047 l 0.4200,0.6658 l 0.4200,-0.3183 l 0.4200,-0.6574 l 0.4200,-0.1386 l 0.4200,-0.2019 l 0.4200,0.3866 l 0.4200,0.6823 l 0.4200,-0.2844 l 0.4200,-0.0222 l 0.4200,0.6694 l 0.4200,0.0439 l 0.4200,0.1209 l 0.4200,-1.7858 l 0.4200,-0.1411 l 0.4200,0.3315 l 0.4200,0.9745 l 0.4200,0.6792 l 0.4200,-0.4872 l 0.4200,0.6426 l 0.4200,0.2735 l 0.4200,-0.3216 l 0.4200,0.8845 l 0.4200,2.2727 l 0.4200,0.5876 l 0.4200,0.9801 l 0.4200,-0.4971 l 0.4200,0.9599 l 0.4200,-1.2210 l 0.4200,-0.5130 l 0.4200,0.6981 l 0.4200,2.5054 l 0.4200,-0.3429 l 0.4200,-0.2231 l 0.4200,0.5563 l 0.4200,-0.5567 l 0.4200,-1.1493 l 0.4200,-0.1036 l 0.4200,0.0716 l 0.4200,-1.4258 l 0.4200,-1.0226 l 0.4200,-0.3720 l 0.4200,0.6033 l 0.4200,-0.3220 l 0.4200,-0.7696 l 0.4200,-0.5442 l 0.4200,-1.7367 l 0.4200,0.3809 l 0.4200,1.1963 l 0.4200,0.8115 l 0.4200,0.4859 l 0.4200,0.5056 l 0.4200,-0.4383 l 0.4200,0.7080 l 0.4200,1.0027 l 0.4200,-1.1227 l 0.4200,0.1887 l 0.4200,1.4525 l 0.4200,-0.9828 l 0.4200,1.3785 l 0.4200,1.9587 l 0.4200,-0.0150 l 0.4200,-3.1982 l 0.4200,-0.8640 l 0.4200,-0.5274 l 0.4200,1.1632 l 0.4200,-1.9931 l 0.4200,-0.9237 l 0.4200,-0.8905 l 0.4200,0.0868 l 0.4200,-0.7652 l 0.4200,0.8199 l 0.4200,-0.3920 l 0.4200,-0.5617 l 0.4200,-0.0971 l 0.4200,-0.7381 l 0.4200,0.8467 l 0.4200,0.6859 l 0.4200,-0.3375 l 0.4200,-0.4367 l 0.4200,0.5293 l 0.4200,-0.5418 l 0.4200,2.1121 l 0.4200,-1.9224 l 0.4200,-0.0058 l 0.4200,0.4626 l 0.4200,-1.1181 l 0.4200,-0.6238 l 0.4200,-0.5286 l 0.4200,0.6712 l 0.4200,0.4174 l 0.4200,0.6574 l 0.4200,-1.1209 l 0.4200,-0.6403 l 0.4200,0.3020 l 0.4200,0.0870 l 0.4200,-0.2661 l 0.4200,0.2292 l 0.4200,0.5213 l 0.4200,0.5911 l 0.4200,0.3023 l 0.4200,0.7618 l 0.4200,-1.5899 l 0.4200,-0.1675 l 0.4200,0.5895 l 0.4200,1.8273 l 0.4200,0.6698 l 0.4200,0.1108 l 0.4200,-0.8584 l 0.4200,0.5684 l 0.4200,-2.4021 l 0.4200,0.1935 l 0.4200,-0.6222 l 0.4200,-0.6948 l 0.4200,-0.3301 l 0.4200,-0.6044 l 0.4200,0.1648 l 0.4200,0.1404 l 0.4200,-0.4849 l 0.4200,1.4608 l 0.4200,0.1592 l 0.4200,0.4886 l 0.4200,-0.8109 l 0.4200,0.1416 l 0.4200,0.0562 l 0.4200,-0.2398 l 0.4200,2.0241 l 0.4200,-1.5262 l 0.4200,-0.6717 l 0.4200,0.3142 l 0.4200,0.6994 l 0.4200,-0.3127 l 0.4200,0.0206 l 0.4200,1.4583 l 0.4200,3.2944 l 0.4200,0.8287 l 0.4200,-0.8416 l 0.4200,1.6424 l 0.4200,-1.6145 l 0.4200,1.0706 l 0.4200,3.5826 l 0.4200,-1.0833 l 0.4200,0.3819 l 0.4200,-1.8000 l 0.4200,-1.9211 l 0.4200,-0.1498 l 0.4200,-1.5773 l 0.4200,0.1352 l 0.4200,-0.7829 l 0.4200,-0.6290 l 0.4200,-0.0757 l 0.4200,1.0905 l 0.4200,-0.8146 l 0.4200,0.3894 l 0.4200,-0.8361 l 0.4200,0.3046 l 0.4200,0.0960 l 0.4200,-0.6480 l 0.4200,-0.3190 l 0.4200,1.2234 l 0.4200,-2.1949 l 0.4200,0.1147 l 0.4200,-0.1536 l 0.4200,0.0254 l 0.4200,0.1768 l 0.4200,0.8768 l 0.4200,0.0563 l 0.4200,1.8834 l 0.4200,0.5225 l 0.4200,-1.3555 l 0.4200,-0.9905 l 0.4200,1.0328 l 0.4200,-0.8134 l 0.4200,0.5456 l 0.4200,0.8370 l 0.4200,-0.5694 l 0.4200,1.1612 l 0.4200,0.3812 l 0.4200,-0.6090 l 0.4200,-1.1004 l 0.4200,-0.9629 l 0.4200,-0.3287 l 0.4200,0.2743 l 0.4200,2.0119 l 0.4200,1.7309 l 0.4200,-0.4791 l 0.4200,-1.5543 l 0.4200,3.2913 l 0.4200,1.5267 l 0.4200,-1.1631 l 0.4200,-0.9387 l 0.4200,-1.4949 l 0.4200,-0.1154 l 0.4200,-0.4790 l 0.4200,-0.5248 l 0.4200,0.4308 l 0.4200,-0.1660 l 0.4200,1.3251 l 0.4200,-0.4001 l 0.4200,-0.6283 l 0.4200,-0.3590 l 0.4200,0.1163 l 0.4200,0.2984 l 0.4200,-0.1900 l 0.4200,1.4607 l 0.4200,-0.7601 l 0.4200,0.2991 l 0.4200,-0.1401 l 0.4200,-1.3670 l 0.4200,0.0319 l 0.4200,0.8089 l 0.4200,1.5166 l 0.4200,-0.4800 l 0.4200,-0.4927 l 0.4200,1.0775 l 0.4200,-1.1381 l 0.4200,-0.2667 l 0.4200,-0.5502 l 0.4200,-0.8099 l 0.4200,0.2657 l 0.4200,-0.7143 l 0.4200,-0.1800 l 0.4200,-0.0106 l 0.4200,0.1569 l 0.4200,-0.1871 l 0.4200,-0.8846 l 0.4200,-0.5954 l 0.4200,-0.0365 l 0.4200,0.1429 l 0.4200,0.6412 l 0.4200,1.1791 l 0.4200,-0.3758 l 0.4200,-0.0272 l 0.4200,-0.2290 l 0.4200,-1.0631 l 0.4200,-0.0886 l 0.4200,-0.1566 l 0.4200,0.1256 l 0.4200,1.0819 l 0.4200,-0.6385 l 0.4200,0.2818 l 0.4200,-0.1867 l 0.4200,0.1592 l 0.4200,-0.9047 l 0.4200,0.0062 l 0.4200,-0.7208 l 0.4200,0.7034 l 0.4200,1.1761 l 0.4200,-0.5999 l 0.4200,0.7300 l 0.4200,-0.1217 l 0.4200,-0.6299 l 0.4200,0.3963 l 0.4200,-0.5322 l 0.4200,1.9057 l 0.4200,-1.4489 l 0.4200,0.4539 l 0.4200,-0.6565 l 0.4200,-0.1620 l 0.4200,0.0301 l 0.4200,0.8393 l 0.4200,0.0568 l 0.4200,0.7870 l 0.4200,0.0879 l 0.4200,3.1556 l 0.4200,0.5180 l 0.4200,-1.0030 l 0.4200,1.5605 l 0.4200,0.0776 l 0.4200,0.9240 l 0.4200,-1.6614 l 0.4200,-0.3349 l 0.4200,0.3320 l 0.4200,-0.9301 l 0.4200,-0.5705 l 0.4200,0.0978 l 0.4200,-1.1983 l 0.4200,-0.6623 l 0.4200,-0.2791 l 0.4200,-0.3492 l 0.4200,0.3999 l 0.4200,-0.6265 l 0.4200,-0.0601 l 0.4200,0.0916 l 0.4200,0.3548 l 0.4200,-0.4043 l 0.4200,0.1814 l 0.4200,0.2162 l 0.4200,0.3298 l 0.4200,-0.6642 l 0.4200,0.5646 l 0.4200,1.0906 l 0.4200,-0.4589 l 0.4200,-0.0395 l 0.4200,0.9996 l 0.4200,0.1978 l 0.4200,-1.0397 l 0.4200,-0.1025 l 0.4200,-0.6447 l 0.4200,0.1688 l 0.4200,1.3139 l 0.4200,0.9680 l 0.4200,-1.0948 l 0.4200,2.5602 l 0.4200,-1.2128 l 0.4200,0.4721 l 0.4200,0.5066 l 0.4200,2.1032 l 0.4200,0.0727 l 0.4200,-1.6098 l 0.4200,0.3170 l 0.4200,2.3888 l 0.4200,-2.5555 l 0.4200,3.2439 l 0.4200,1.8131 l 0.4200,2.5788 l 0.4200,-0.1909 l 0.4200,1.2842 l 0.4200,0.0223 l 0.4200,-1.8995 l 0.4200,-1.3295 l 0.4200,-2.8835 l 0.4200,1.1794 l 0.4200,-1.7904 l 0.4200,-0.9945 l 0.4200,0.3027 l 0.4200,-1.7249 l 0.4200,0.2906 l 0.4200,-0.8616 l 0.4200,-1.6837 l 0.4200,0.1075 l 0.4200,0.5183 l 0.4200,-0.7738 l 0.4200,-0.4805 l 0.4200,0.0391 l 0.4200,-0.3798 l 0.4200,-0.0121 l 0.4200,0.1996 l 0.4200,0.0124 l 0.4200,0.0562 l 0.4200,-0.0189 l 0.4200,-0.6828 l 0.4200,0.3226 l 0.4200,-0.2036 l 0.4200,-0.6960 l 0.4200,-0.3354 l 0.4200,0.2729 l 0.4200,-0.3264 l 0.4200,0.4843 l 0.4200,1.1344 l 0.4200,-0.8709 l 0.4200,-0.4728 l 0.4200,0.2738 l 0.4200,-0.1550 l 0.4200,1.1999 l 0.4200,0.1287 l 0.4200,2.5890 l 0.4200,-0.6038 l 0.4200,2.5612 l 0.4200,1.0387 l 0.4200,1.3627 l 0.4200,-2.9904 l 0.4200,-3.5189 l 0.4200,-0.6000 l 0.4200,-0.4830 l 0.4200,-0.1695 l 0.4200,0.1165 l 0.4200,-0.4053 l 0.4200,-0.0339 l 0.4200,0.8385 l 0.4200,1.6628 l 0.4200,0.1382 l 0.4200,2.8812 l 0.4200,1.4290 l 0.4200,-1.6839 l 0.4200,-2.6108 l 0.4200,1.3646 l 0.4200,1.3122 l 0.4200,0.4668 l 0.4200,0.9574 l 0.4200,1.4786 l 0.4200,-1.9581 l 0.4200,-0.1631 l 0.4200,-0.6432 l 0.4200,-2.2214 l 0.4200,0.9180 l 0.4200,-0.3086 l 0.4200,2.1238 l 0.4200,2.1329 l 0.4200,-1.3745 l 0.4200,2.0528 l 0.4200,-1.8914 l 0.4200,-2.1038 l 0.4200,0.7087 l 0.4200,-1.4768 l 0.4200,0.5994 l 0.4200,0.7232 l 0.4200,-1.5337 l 0.4200,0.0859 l 0.4200,-1.3728 l 0.4200,-0.5293 l 0.4200,-0.1531 l 0.4200,0.1369 l 0.4200,0.2497 l 0.4200,-0.8372 l 0.4200,0.1370 l 0.4200,-0.3266 l 0.4200,0.2078 l 0.4200,0.3147 l 0.4200,0.5381 l 0.4200,-0.8371 l 0.4200,0.7798 l 0.4200,0.7540 l 0.4200,-0.0962 l 0.4200,2.2481 l 0.4200,-0.5203 l 0.4200,2.6713 l 0.4200,0.3588 l 0.4200,-1.8322 l 0.4200,0.9973 l 0.4200,-1.9679 l 0.4200,0.5815 l 0.4200,-1.7561 l 0.4200,0.8222 l 0.4200,-1.2805 l 0.4200,0.3486 l 0.4200,1.0156 l 0.4200,2.3013 l 0.4200,0.4303 l 0.4200,-0.2910 l 0.4200,-1.7747 l 0.4200,1.4149 l 0.4200,0.6726 l 0.4200,-0.4666 l 0.4200,-0.9291 l 0.4200,0.3860 l 0.4200,-0.3345 l 0.4200,-0.6011 l 0.4200,-0.7111 l 0.4200,0.7740 l 0.4200,-0.1717 l 0.4200,-0.7024 l 0.4200,0.1965 l 0.4200,1.8018 l 0.4200,-1.3227 l 0.4200,0.3004 l 0.4200,-0.6944 l 0.4200,-0.2794 l 0.4200,-0.2624 l 0.4200,0.7084 l 0.4200,-0.3423 l 0.4200,0.6460 l 0.4200,1.6186 l 0.4200,-1.5776 l 0.4200,-0.3696 l 0.4200,1.8817 l 0.4200,0.7464 l 0.4200,-0.5047 l 0.4200,-1.9579 l 0.4200,0.8495 l 0.4200,0.5206 l 0.4200,0.1170 l 0.4200,-1.5547 l 0.4200,-0.0399 l 0.4200,-0.3845 l 0.4200,0.1757 l 0.4200,0.2185 l 0.4200,-0.2772 l 0.4200,0.4166 l 0.4200,1.6425 l 0.4200,-1.3130 l 0.4200,0.2668 l 0.4200,1.0344 l 0.4200,-0.2423 l 0.4200,0.2235 l 0.4200,-0.2512 l 0.4200,1.3836 l 0.4200,0.2831 l 0.4200,1.0491 l 0.4200,-0.0036 l 0.4200,-1.7555 l 0.4200,-0.1965 l 0.4200,1.1318 l 0.4200,0.7658 l 0.4200,-0.8004 l 0.4200,-0.2367 l 0.4200,-1.4298 l 0.4200,0.8760 l 0.4200,-0.8548 l 0.4200,-0.0266 l 0.4200,1.1888 l 0.4200,0.5167 l 0.4200,0.1223 l 0.4200,3.2614 l 0.4200,-0.3533 l 0.4200,-0.9978 l 0.4200,0.1017 l 0.4200,0.6416 l 0.4200,-0.8678 l 0.4200,2.6036 l 0.4200,-0.2979 l 0.4200,-1.8146 l 0.4200,-1.6158 l 0.4200,-0.6138 l 0.4200,0.1739 l 0.4200,-1.1486 l 0.4200,-0.1013 l 0.4200,-0.0502 l 0.4200,0.7144 l 0.4200,0.4265 l 0.4200,0.9256 l 0.4200,1.6910 l 0.4200,0.9307 l 0.4200,-1.8195 l 0.4200,-1.0505 l 0.4200,0.0554 l 0.4200,0.4043 l 0.4200,0.4765 l 0.4200,0.3976 l 0.4200,-0.4174 l 0.4200,1.2367 l 0.4200,0.4879 l 0.4200,-1.8817 l 0.4200,1.5133 l 0.4200,-0.0935 l 0.4200,0.2446 l 0.4200,-0.5424 l 0.4200,-0.7363 l 0.4200,0.4539 l 0.4200,1.3109 l 0.4200,3.2848 l 0.4200,4.9507 l 0.4200,6.1254 l 0.4200,2.0612 l 0.4200,-5.8433 l 0.4200,-3.6415 l 0.4200,-0.0721 l 0.4200,1.3002 l 0.4200,4.5750 l 0.4200,-2.7574 l 0.4200,-0.1687 l 0.4200,2.3551 l 0.4200,-3.7639 l 0.4200,2.1393 l 0.4200,-0.7935 l 0.4200,-0.6708 l 0.4200,0.6340 l 0.4200,-1.9266 l 0.4200,-1.2987 l 0.4200,0.4113 l 0.4200,2.4940 l 0.4200,-0.6811 l 0.4200,1.8950 l 0.4200,0.3170 l 0.4200,0.5159 l 0.4200,0.0730 l 0.4200,3.9506 l 0.4200,-0.2010 l 0.4200,-2.8837 l 0.4200,-0.3009 l 0.4200,-2.1585 l 0.4200,-2.7426 l 0.4200,0.5648 l 0.4200,-1.1974 l 0.4200,-1.3101 l 0.4200,-0.0828 l 0.4200,-0.1659 l 0.4200,1.0670 l 0.4200,0.7410 l 0.4200,-2.2158 l 0.4200,-0.6619 l 0.4200,-0.0086 l 0.4200,0.2481 l 0.4200,0.9175 l 0.4200,-2.4733 l 0.4200,-1.6256 l 0.4200,0.3344 l 0.4200,0.4305 l 0.4200,-1.7433 l 0.4200,0.1162 l 0.4200,0.7784 l 0.4200,-1.7447 l 0.4200,-0.3615 l 0.4200,0.5911 l 0.4200,0.2222 l 0.4200,0.1023 l 0.4200,1.5455 l 0.4200,-0.1858 l 0.4200,0.5339 l 0.4200,2.1778 l 0.4200,1.7422 l 0.4200,-2.2176 l 0.4200,0.2381 l 0.4200,-2.3970 l 0.4200,0.2138 l 0.4200,-0.5339 l 0.4200,0.2320 l 0.4200,-0.1413 l 0.4200,0.0640 l 0.4200,-0.0458 l 0.4200,0.7495 l 0.4200,-1.5691 l 0.4200,1.7235 l 0.4200,2.2358 l 0.4200,-3.0487 l 0.4200,1.1072 l 0.4200,1.0266 l 0.4200,1.2134 l 0.4200,-0.3104 l 0.4200,3.0064 l 0.4200,-0.6998 l 0.4200,-1.5794 l 0.4200,-2.1561 l 0.4200,2.3353 l 0.4200,2.7517 l 0.4200,-1.1581 l 0.4200,-1.3095 l 0.4200,-1.8443 l 0.4200,0.2770 l 0.4200,0.3640 l 0.4200,-1.5712 l 0.4200,1.1362 l 0.4200,1.4674 l 0.4200,2.3665 l 0.4200,-0.2866 l 0.4200,2.0220 l 0.4200,3.6505 l 0.4200,1.6507 l 0.4200,-0.1393 l 0.4200,-1.1891 l 0.4200,3.8326 l 0.4200,-2.5337 l 0.4200,3.3044 l 0.4200,-0.1037 l 0.4200,1.7632 l 0.4200,-0.8165 l 0.4200,-3.0750 l 0.4200,2.3781 l 0.4200,-2.1556 l 0.4200,1.6428 l 0.4200,-0.8584 l 0.4200,-3.7299 l 0.4200,0.0641 l 0.4200,2.8672 l 0.4200,-0.7705 l 0.4200,-0.2433 l 0.4200,2.8196 l 0.4200,2.1413 l 0.4200,0.0701 l 0.4200,-0.0023 l 0.4200,1.8477 l 0.4200,-2.9728 l 0.4200,-2.5125 l 0.4200,-2.4963 l 0.4200,0.7030 l 0.4200,-0.0053 l 0.4200,-2.1859 l 0.4200,1.9003 l 0.4200,-0.6800 l 0.4200,-1.7168 l 0.4200,0.2854 l 0.4200,1.2370 l 0.4200,-3.5817 l 0.4200,-0.6097 l 0.4200,-0.5173 l 0.4200,-0.4860 l 0.4200,-0.1179 l 0.4200,1.7303 l 0.4200,-0.7543 l 0.4200,-0.0108 l 0.4200,-2.4523 l 0.4200,0.2139 l 0.4200,0.3005 l 0.4200,-0.8259 l 0.4200,-0.9724 l 0.4200,-0.6384 l 0.4200,-0.1190 l 0.4200,0.1638 l 0.4200,1.0010 l 0.4200,0.0834 l 0.4200,-0.0568 l 0.4200,-1.3042 l 0.4200,-0.6265 l 0.4200,0.3431 l 0.4200,-0.9239 l 0.4200,0.5230 l 0.4200,1.5791 l 0.4200,-1.5563 l 0.4200,1.8596 l 0.4200,-0.3953 l 0.4200,0.4438 l 0.4200,-1.4309 l 0.4200,-1.4817 l 0.4200,0.0117 l 0.4200,0.1870 l 0.4200,-0.9507 l 0.4200,-0.4257 l 0.4200,-0.0727 l 0.4200,0.8318 l 0.4200,0.0323 l 0.4200,0.3142 l 0.4200,-0.2453 l 0.4200,-0.2105 l 0.4200,1.4451 l 0.4200,0.8034 l 0.4200,-1.1478 l 0.4200,1.3561 l 0.4200,0.9326 l 0.4200,0.0627 l 0.4200,-0.4541 l 0.4200,-0.0861 l 0.4200,-1.8516 l 0.4200,1.4915 l 0.4200,0.0555 l 0.4200,1.3199 l 0.4200,-1.4531 l 0.4200,1.4631 l 0.4200,-0.0068 l 0.4200,0.5871 l 0.4200,-0.8876 l 0.4200,0.3419 l 0.4200,-2.0351 l 0.4200,-1.0209 l 0.4200,0.0682 l 0.4200,-0.6120 l 0.4200,0.1909 l 0.4200,-0.1341 l 0.4200,-0.3891 l 0.4200,0.4816 l 0.4200,-0.7022 l 0.4200,-0.1545 l 0.4200,-0.4592 l 0.4200,0.3036 l 0.4200,1.4384 l 0.4200,1.2708 l 0.4200,0.3040 l 0.4200,0.3091 l 0.4200,-0.4453 l 0.4200,0.5250 l 0.4200,-0.8492 l 0.4200,-0.3786 l 0.4200,0.2837 l 0.4200,-1.9793 l 0.4200,5.5830 l 0.4200,2.7860 l 0.4200,-2.6635 l 0.4200,-4.5840 l 0.4200,-0.2594 l 0.4200,1.0776 l 0.4200,-0.7766 l 0.4200,0.1675 l 0.4200,-2.2586 l 0.4200,-0.4717 l 0.4200,-1.0124 l 0.4200,0.0293 l 0.4200,-0.7449 l 0.4200,0.1933 l 0.4200,-0.3086 l 0.4200,0.2705 l 0.4200,-0.5935 l 0.4200,0.6024 l 0.4200,-0.6363 l 0.4200,0.5112 l 0.4200,0.0035 l 0.4200,0.2340 l 0.4200,-0.1917 l 0.4200,-0.1947 l 0.4200,0.2454 l 0.4200,1.0186 l 0.4200,-0.4260 l 0.4200,0.0174 l 0.4200,-1.2479 l 0.4200,0.1920 l 0.4200,-0.0053 l 0.4200,0.4883 l 0.4200,-0.6635 l 0.4200,0.1751 l 0.4200,-0.3686 l 0.4200,0.8873 l 0.4200,-0.2310 l 0.4200,-0.2801 l 0.4200,0.2720 l 0.4200,0.1380 l 0.4200,-0.2432 l 0.4200,0.8488 l 0.4200,0.2566 l 0.4200,0.2880 l 0.4200,-0.7423 l 0.4200,0.3467 l 0.4200,0.4094 l 0.4200,0.0537 l 0.4200,-0.5877 l 0.4200,-0.4013 l 0.4200,0.0734 l 0.4200,0.3880 l 0.4200,3.8105 l 0.4200,-2.1733 l 0.4200,2.3065 l 0.4200,0.1227 l 0.4200,-1.4909 l 0.4200,0.6117 l 0.4200,0.0395 l 0.4200,-0.0088 l 0.4200,-1.6085 l 0.4200,-0.9385 l 0.4200,0.9182 l 0.4200,1.3496 l 0.4200,-0.9355 l 0.4200,-0.7589 l 0.4200,1.4631 l 0.4200,-1.1638 l 0.4200,0.5380 l 0.4200,0.7937 l 0.4200,-0.6117 l 0.4200,-0.0326 l 0.4200,0.5342 l 0.4200,-0.6579 l 0.4200,1.9385 l 0.4200,-0.1404 l 0.4200,0.5041 l 0.4200,0.0012 l 0.4200,0.4928 l 0.4200,-0.9008 l 0.4200,-0.2984 l 0.4200,0.2432 l 0.4200,0.0464 l 0.4200,-0.6845 l 0.4200,0.6127 l 0.4200,0.2977 l 0.4200,0.4858 l 0.4200,0.5023 l 0.4200,0.0471 l 0.4200,1.0604 l 0.4200,1.0164 l 0.4200,0.6921 l 0.4200,0.2701 l 0.4200,-3.3151 l 0.4200,-0.5410 l 0.4200,-1.6374 l 0.4200,-0.2571 l 0.4200,0.2511 l 0.4200,0.0557 l 0.4200,-1.0911 l 0.4200,0.2822 l 0.4200,-0.6655 l 0.4200,0.4059 l 0.4200,-1.0838 l 0.4200,-0.2811 l 0.4200,-0.0746 l 0.4200,-0.5437 l 0.4200,0.8481 l 0.4200,-0.1553 l 0.4200,0.4498 l 0.4200,0.5791 l 0.4200,-0.0168 l 0.4200,-0.8359 l 0.4200,-0.4690 l 0.4200,-1.9319 l 0.4200,-0.2704 l 0.4200,-0.8393 l 0.4200,0.2330 l 0.4200,-0.9272 l 0.4200,1.2975 l 0.4200,-0.5286 l 0.4200,0.3257 l 0.4200,-0.2397 l 0.4200,-0.4897 l 0.4200,0.4345 l 0.4200,0.3426 l 0.4200,-0.1305 l 0.4200,-0.2806 l 0.4200,1.3312 l 0.4200,0.0997 l 0.4200,0.7587 l 0.4200,-1.2280 l 0.4200,-0.8073 l 0.4200,0.1767 l 0.4200,-0.4724 l 0.4200,0.5994 l 0.4200,0.0587 l 0.4200,-0.3694 l 0.4200,0.3851 l 0.4200,-0.2214 l 0.4200,0.5093 l 0.4200,-0.2096 l 0.4200,0.6056 l 0.4200,-0.4532 l 0.4200,0.4654 l 0.4200,-0.9351 l 0.4200,-1.1510 l 0.4200,0.1753 l 0.4200,0.1945 l 0.4200,0.9751 l 0.4200,0.1934 l 0.4200,0.0127 l 0.4200,-0.0286 l 0.4200,-1.0381 l 0.4200,0.3826 l 0.4200,0.0262 l 0.4200,-0.0445 l 0.4200,-0.8079 l 0.4200,-0.4751 l 0.4200,-0.7263 l 0.4200,-0.5368 l 0.4200,-0.6830 l 0.4200,0.2043 l 0.4200,-0.1812 l 0.4200,-0.8392 l 0.4200,0.2406 l 0.4200,0.0124 l 0.4200,-0.1501 l 0.4200,-0.0777 l 0.4200,0.4673 l 0.4200,-1.9804 l 0.4200,0.9719 l 0.4200,0.0025 l 0.4200,0.5755 l 0.4200,0.5180 l 0.4200,0.4205 l 0.4200,-0.0483 l 0.4200,-0.4210 l 0.4200,0.0191 l 0.4200,0.5868 l 0.4200,-1.1900 l 0.4200,0.3233 l 0.4200,0.2747 l 0.4200,0.3790 l 0.4200,1.9629 l 0.4200,-0.2206 l 0.4200,0.2267 l 0.4200,0.1930 l 0.4200,0.2188 l 0.4200,-1.0303 l 0.4200,-0.0966 l 0.4200,-0.3756 l 0.4200,0.4112 l 0.4200,0.3167 l 0.4200,-0.0181 l 0.4200,0.5299 l 0.4200,-0.2272 l 0.4200,0.1908 l 0.4200,-0.0393 l 0.4200,0.2821 l 0.4200,0.6341 l 0.4200,1.0967 l 0.4200,-1.2418 l 0.4200,0.5021 l 0.4200,0.3199 l 0.4200,-1.0815 l 0.4200,0.5231 l 0.4200,-1.5716 l 0.4200,-0.8521 l 0.4200,0.1439 l 0.4200,-0.0138 l 0.4200,0.3598 l 0.4200,-0.1935 l 0.4200,-0.1106 l 0.4200,0.2622 l 0.4200,-0.0195 l 0.4200,-0.5489 l 0.4200,0.0652 l 0.4200,0.2259 l 0.4200,-0.1013 l 0.4200,0.3979 l 0.4200,0.2925 l 0.4200,-0.6539 l 0.4200,0.1740 l 0.4200,2.8467 l 0.4200,-0.4993 l 0.4200,-0.9613 l 0.4200,-0.7154 l 0.4200,-0.2113 l 0.4200,-0.3089 l 0.4200,-0.6022 l 0.4200,0.0241 l 0.4200,0.2534 l 0.4200,0.1396 l 0.4200,-1.0722 l 0.4200,-0.4864 l 0.4200,0.2600 l 0.4200,0.4958 l 0.4200,-0.1645 l 0.4200,0.0329 l 0.4200,0.1988 "/></g><g stroke-linejoin="miter" stroke-opacity="1.0" fill-opacity="0.0" stroke="rgb(85,85,85)" stroke-width="0.48241815132442184" fill="rgb(0,0,0)" stroke-linecap="butt" stroke-miterlimit="10.0"><path d="M 108.3916,113.4209 l 0.4200,-0.0914 l 0.4200,0.4724 l 0.4200,-0.3487 l 0.4200,-0.3519 l 0.4200,-0.2241 l 0.4200,0.1729 l 0.4200,-0.1941 l 0.4200,0.0308 l 0.4200,-0.0211 l 0.4200,-0.3742 l 0.4200,-0.1878 l 0.4200,-0.2621 l 0.4200,0.0041 l 0.4200,-0.4988 l 0.4200,-0.1052 l 0.4200,-0.0405 l 0.4200,0.1523 l 0.4200,-0.0934 l 0.4200,-0.1785 l 0.4200,-0.0492 l 0.4200,-0.0651 l 0.4200,0.0820 l 0.4200,0.1563 l 0.4200,-0.0851 l 0.4200,-0.0197 l 0.4200,0.1534 l 0.4200,-0.0026 l 0.4200,0.0167 l 0.4200,-0.4603 l 0.4200,-0.0501 l 0.4200,0.0681 l 0.4200,0.2293 l 0.4200,0.1561 l 0.4200,-0.1352 l 0.4200,0.1471 l 0.4200,0.0553 l 0.4200,-0.0934 l 0.4200,0.2081 l 0.4200,0.5561 l 0.4200,0.1362 l 0.4200,0.2348 l 0.4200,-0.1339 l 0.4200,0.2301 l 0.4200,-0.3146 l 0.4200,-0.1384 l 0.4200,0.1641 l 0.4200,0.6166 l 0.4200,-0.0938 l 0.4200,-0.0641 l 0.4200,0.1306 l 0.4200,-0.1473 l 0.4200,-0.2959 l 0.4200,-0.0352 l 0.4200,0.0085 l 0.4200,-0.3659 l 0.4200,-0.2662 l 0.4200,-0.1042 l 0.4200,0.1395 l 0.4200,-0.0915 l 0.4200,-0.2037 l 0.4200,-0.1479 l 0.4200,-0.4467 l 0.4200,0.0819 l 0.4200,0.2862 l 0.4200,0.1908 l 0.4200,0.1100 l 0.4200,0.1153 l 0.4200,-0.1205 l 0.4200,0.1660 l 0.4200,0.2402 l 0.4200,-0.2907 l 0.4200,0.0365 l 0.4200,0.3528 l 0.4200,-0.2552 l 0.4200,0.3346 l 0.4200,0.4807 l 0.4200,-0.0114 l 0.4200,-0.8074 l 0.4200,-0.2261 l 0.4200,-0.1426 l 0.4200,0.2799 l 0.4200,-0.5087 l 0.4200,-0.2428 l 0.4200,-0.2352 l 0.4200,0.0087 l 0.4200,-0.2044 l 0.4200,0.1917 l 0.4200,-0.1109 l 0.4200,-0.1537 l 0.4200,-0.0378 l 0.4200,-0.1983 l 0.4200,0.1978 l 0.4200,0.1582 l 0.4200,-0.0974 l 0.4200,-0.1225 l 0.4200,0.1190 l 0.4200,-0.1487 l 0.4200,0.5151 l 0.4200,-0.4929 l 0.4200,-0.0148 l 0.4200,0.1025 l 0.4200,-0.2928 l 0.4200,-0.1699 l 0.4200,-0.1466 l 0.4200,0.1534 l 0.4200,0.0904 l 0.4200,0.1508 l 0.4200,-0.2938 l 0.4200,-0.1744 l 0.4200,0.0611 l 0.4200,0.0075 l 0.4200,-0.0809 l 0.4200,0.0430 l 0.4200,0.1162 l 0.4200,0.1341 l 0.4200,0.0623 l 0.4200,0.1775 l 0.4200,-0.4104 l 0.4200,-0.0557 l 0.4200,0.1337 l 0.4200,0.4439 l 0.4200,0.1556 l 0.4200,0.0162 l 0.4200,-0.2262 l 0.4200,0.1302 l 0.4200,-0.6127 l 0.4200,0.0351 l 0.4200,-0.1690 l 0.4200,-0.1876 l 0.4200,-0.0968 l 0.4200,-0.1657 l 0.4200,0.0264 l 0.4200,0.0204 l 0.4200,-0.1360 l 0.4200,0.3508 l 0.4200,0.0260 l 0.4200,0.1086 l 0.4200,-0.2163 l 0.4200,0.0215 l 0.4200,0.0003 l 0.4200,-0.0738 l 0.4200,0.4927 l 0.4200,-0.3943 l 0.4200,-0.1816 l 0.4200,0.0647 l 0.4200,0.1613 l 0.4200,-0.0915 l 0.4200,-0.0083 l 0.4200,0.3516 l 0.4200,0.8119 l 0.4200,0.1974 l 0.4200,-0.2196 l 0.4200,0.4009 l 0.4200,-0.4123 l 0.4200,0.2580 l 0.4200,0.8866 l 0.4200,-0.2770 l 0.4200,0.0884 l 0.4200,-0.4567 l 0.4200,-0.4884 l 0.4200,-0.0470 l 0.4200,-0.4041 l 0.4200,0.0230 l 0.4200,-0.2065 l 0.4200,-0.1686 l 0.4200,-0.0307 l 0.4200,0.2610 l 0.4200,-0.2147 l 0.4200,0.0859 l 0.4200,-0.2204 l 0.4200,0.0643 l 0.4200,0.0124 l 0.4200,-0.1737 l 0.4200,-0.0918 l 0.4200,0.2939 l 0.4200,-0.5605 l 0.4200,0.0158 l 0.4200,-0.0513 l 0.4200,-0.0066 l 0.4200,0.0313 l 0.4200,0.2067 l 0.4200,0.0020 l 0.4200,0.4592 l 0.4200,0.1201 l 0.4200,-0.3493 l 0.4200,-0.2590 l 0.4200,0.2464 l 0.4200,-0.2147 l 0.4200,0.1247 l 0.4200,0.1980 l 0.4200,-0.1532 l 0.4200,0.2793 l 0.4200,0.0851 l 0.4200,-0.1623 l 0.4200,-0.2857 l 0.4200,-0.2521 l 0.4200,-0.0942 l 0.4200,0.0565 l 0.4200,0.4914 l 0.4200,0.4225 l 0.4200,-0.1289 l 0.4200,-0.3982 l 0.4200,0.8125 l 0.4200,0.3734 l 0.4200,-0.2977 l 0.4200,-0.2425 l 0.4200,-0.3823 l 0.4200,-0.0385 l 0.4200,-0.1295 l 0.4200,-0.1414 l 0.4200,0.0973 l 0.4200,-0.0516 l 0.4200,0.3211 l 0.4200,-0.1093 l 0.4200,-0.1667 l 0.4200,-0.0998 l 0.4200,0.0188 l 0.4200,0.0645 l 0.4200,-0.0575 l 0.4200,0.3552 l 0.4200,-0.1990 l 0.4200,0.0653 l 0.4200,-0.0443 l 0.4200,-0.3512 l 0.4200,-0.0024 l 0.4200,0.1920 l 0.4200,0.3695 l 0.4200,-0.1286 l 0.4200,-0.1322 l 0.4200,0.2601 l 0.4200,-0.2930 l 0.4200,-0.0760 l 0.4200,-0.1471 l 0.4200,-0.2125 l 0.4200,0.0559 l 0.4200,-0.1890 l 0.4200,-0.0559 l 0.4200,-0.0136 l 0.4200,0.0283 l 0.4200,-0.0576 l 0.4200,-0.2323 l 0.4200,-0.1606 l 0.4200,-0.0212 l 0.4200,0.0237 l 0.4200,0.1485 l 0.4200,0.2835 l 0.4200,-0.1046 l 0.4200,-0.0176 l 0.4200,-0.0681 l 0.4200,-0.2770 l 0.4200,-0.0339 l 0.4200,-0.0510 l 0.4200,0.0195 l 0.4200,0.2589 l 0.4200,-0.1708 l 0.4200,0.0590 l 0.4200,-0.0580 l 0.4200,0.0285 l 0.4200,-0.2376 l 0.4200,-0.0104 l 0.4200,-0.1923 l 0.4200,0.1636 l 0.4200,0.2824 l 0.4200,-0.1611 l 0.4200,0.1712 l 0.4200,-0.0413 l 0.4200,-0.1686 l 0.4200,0.0877 l 0.4200,-0.1443 l 0.4200,0.4653 l 0.4200,-0.3725 l 0.4200,0.1024 l 0.4200,-0.1750 l 0.4200,-0.0518 l 0.4200,-0.0039 l 0.4200,0.1987 l 0.4200,0.0035 l 0.4200,0.1862 l 0.4200,0.0119 l 0.4200,0.7791 l 0.4200,0.1218 l 0.4200,-0.2579 l 0.4200,0.3821 l 0.4200,0.0126 l 0.4200,0.2241 l 0.4200,-0.4211 l 0.4200,-0.0909 l 0.4200,0.0755 l 0.4200,-0.2397 l 0.4200,-0.1505 l 0.4200,0.0161 l 0.4200,-0.3079 l 0.4200,-0.1748 l 0.4200,-0.0794 l 0.4200,-0.0972 l 0.4200,0.0899 l 0.4200,-0.1665 l 0.4200,-0.0253 l 0.4200,0.0126 l 0.4200,0.0786 l 0.4200,-0.1111 l 0.4200,0.0352 l 0.4200,0.0440 l 0.4200,0.0726 l 0.4200,-0.1758 l 0.4200,0.1311 l 0.4200,0.2630 l 0.4200,-0.1236 l 0.4200,-0.0191 l 0.4200,0.2407 l 0.4200,0.0410 l 0.4200,-0.2683 l 0.4200,-0.0347 l 0.4200,-0.1704 l 0.4200,0.0326 l 0.4200,0.3191 l 0.4200,0.2335 l 0.4200,-0.2814 l 0.4200,0.6314 l 0.4200,-0.3097 l 0.4200,0.1104 l 0.4200,0.1194 l 0.4200,0.5186 l 0.4200,0.0129 l 0.4200,-0.4073 l 0.4200,0.0728 l 0.4200,0.5905 l 0.4200,-0.6425 l 0.4200,0.8040 l 0.4200,0.4488 l 0.4200,0.6410 l 0.4200,-0.0481 l 0.4200,0.3196 l 0.4200,0.0059 l 0.4200,-0.4734 l 0.4200,-0.3328 l 0.4200,-0.7218 l 0.4200,0.2902 l 0.4200,-0.4504 l 0.4200,-0.2531 l 0.4200,0.0702 l 0.4200,-0.4361 l 0.4200,0.0661 l 0.4200,-0.2216 l 0.4200,-0.4278 l 0.4200,0.0187 l 0.4200,0.1215 l 0.4200,-0.2011 l 0.4200,-0.1284 l 0.4200,0.0012 l 0.4200,-0.1035 l 0.4200,-0.0118 l 0.4200,0.0411 l 0.4200,-0.0056 l 0.4200,0.0054 l 0.4200,-0.0133 l 0.4200,-0.1794 l 0.4200,0.0716 l 0.4200,-0.0598 l 0.4200,-0.1831 l 0.4200,-0.0934 l 0.4200,0.0585 l 0.4200,-0.0912 l 0.4200,0.1114 l 0.4200,0.2743 l 0.4200,-0.2263 l 0.4200,-0.1274 l 0.4200,0.0590 l 0.4200,-0.0481 l 0.4200,0.2907 l 0.4200,0.0237 l 0.4200,0.6388 l 0.4200,-0.1573 l 0.4200,0.6330 l 0.4200,0.2544 l 0.4200,0.3360 l 0.4200,-0.7499 l 0.4200,-0.8848 l 0.4200,-0.1581 l 0.4200,-0.1293 l 0.4200,-0.0512 l 0.4200,0.0202 l 0.4200,-0.1102 l 0.4200,-0.0176 l 0.4200,0.2005 l 0.4200,0.4072 l 0.4200,0.0273 l 0.4200,0.7128 l 0.4200,0.3519 l 0.4200,-0.4245 l 0.4200,-0.6575 l 0.4200,0.3339 l 0.4200,0.3217 l 0.4200,0.1115 l 0.4200,0.2343 l 0.4200,0.3651 l 0.4200,-0.4918 l 0.4200,-0.0451 l 0.4200,-0.1652 l 0.4200,-0.5600 l 0.4200,0.2228 l 0.4200,-0.0831 l 0.4200,0.5244 l 0.4200,0.5280 l 0.4200,-0.3462 l 0.4200,0.5085 l 0.4200,-0.4747 l 0.4200,-0.5294 l 0.4200,0.1716 l 0.4200,-0.3739 l 0.4200,0.1438 l 0.4200,0.1751 l 0.4200,-0.3882 l 0.4200,0.0153 l 0.4200,-0.3492 l 0.4200,-0.1394 l 0.4200,-0.0458 l 0.4200,0.0266 l 0.4200,0.0549 l 0.4200,-0.2166 l 0.4200,0.0263 l 0.4200,-0.0895 l 0.4200,0.0439 l 0.4200,0.0708 l 0.4200,0.1269 l 0.4200,-0.2165 l 0.4200,0.1871 l 0.4200,0.1812 l 0.4200,-0.0307 l 0.4200,0.5550 l 0.4200,-0.1350 l 0.4200,0.6618 l 0.4200,0.0862 l 0.4200,-0.4607 l 0.4200,0.2445 l 0.4200,-0.4953 l 0.4200,0.1400 l 0.4200,-0.4436 l 0.4200,0.1993 l 0.4200,-0.3255 l 0.4200,0.0807 l 0.4200,0.2476 l 0.4200,0.5694 l 0.4200,0.1038 l 0.4200,-0.0760 l 0.4200,-0.4469 l 0.4200,0.3485 l 0.4200,0.1641 l 0.4200,-0.1199 l 0.4200,-0.2357 l 0.4200,0.0920 l 0.4200,-0.0876 l 0.4200,-0.1545 l 0.4200,-0.1824 l 0.4200,0.1881 l 0.4200,-0.0476 l 0.4200,-0.1803 l 0.4200,0.0438 l 0.4200,0.4449 l 0.4200,-0.3342 l 0.4200,0.0702 l 0.4200,-0.1781 l 0.4200,-0.0749 l 0.4200,-0.0709 l 0.4200,0.1715 l 0.4200,-0.0905 l 0.4200,0.1562 l 0.4200,0.3996 l 0.4200,-0.3976 l 0.4200,-0.0970 l 0.4200,0.4650 l 0.4200,0.1828 l 0.4200,-0.1290 l 0.4200,-0.4924 l 0.4200,0.2074 l 0.4200,0.1258 l 0.4200,0.0254 l 0.4200,-0.3921 l 0.4200,-0.0148 l 0.4200,-0.1010 l 0.4200,0.0387 l 0.4200,0.0496 l 0.4200,-0.0741 l 0.4200,0.0990 l 0.4200,0.4055 l 0.4200,-0.3315 l 0.4200,0.0622 l 0.4200,0.2541 l 0.4200,-0.0640 l 0.4200,0.0521 l 0.4200,-0.0663 l 0.4200,0.3418 l 0.4200,0.0680 l 0.4200,0.2594 l 0.4200,-0.0026 l 0.4200,-0.4399 l 0.4200,-0.0521 l 0.4200,0.2795 l 0.4200,0.1889 l 0.4200,-0.2015 l 0.4200,-0.0614 l 0.4200,-0.3595 l 0.4200,0.2152 l 0.4200,-0.2164 l 0.4200,-0.0102 l 0.4200,0.2933 l 0.4200,0.1264 l 0.4200,0.0283 l 0.4200,0.8118 l 0.4200,-0.0879 l 0.4200,-0.2490 l 0.4200,0.0247 l 0.4200,0.1595 l 0.4200,-0.2167 l 0.4200,0.6488 l 0.4200,-0.0732 l 0.4200,-0.4518 l 0.4200,-0.4038 l 0.4200,-0.1549 l 0.4200,0.0413 l 0.4200,-0.2888 l 0.4200,-0.0281 l 0.4200,-0.0155 l 0.4200,0.1754 l 0.4200,0.1041 l 0.4200,0.2290 l 0.4200,0.4207 l 0.4200,0.2321 l 0.4200,-0.4535 l 0.4200,-0.2630 l 0.4200,0.0122 l 0.4200,0.0994 l 0.4200,0.1177 l 0.4200,0.0983 l 0.4200,-0.1048 l 0.4200,0.3078 l 0.4200,0.1218 l 0.4200,-0.4692 l 0.4200,0.3767 l 0.4200,-0.0232 l 0.4200,0.0611 l 0.4200,-0.1351 l 0.4200,-0.1840 l 0.4200,0.1126 l 0.4200,0.3267 l 0.4200,0.8200 l 0.4200,1.2374 l 0.4200,1.5332 l 0.4200,0.5246 l 0.4200,-1.4415 l 0.4200,-0.8991 l 0.4200,-0.0122 l 0.4200,0.3299 l 0.4200,1.1473 l 0.4200,-0.6771 l 0.4200,-0.0341 l 0.4200,0.5950 l 0.4200,-0.9286 l 0.4200,0.5403 l 0.4200,-0.1895 l 0.4200,-0.1595 l 0.4200,0.1654 l 0.4200,-0.4727 l 0.4200,-0.3177 l 0.4200,0.1079 l 0.4200,0.6278 l 0.4200,-0.1624 l 0.4200,0.4796 l 0.4200,0.0874 l 0.4200,0.1373 l 0.4200,0.0272 l 0.4200,0.9941 l 0.4200,-0.0381 l 0.4200,-0.7070 l 0.4200,-0.0654 l 0.4200,-0.5289 l 0.4200,-0.6764 l 0.4200,0.1467 l 0.4200,-0.2927 l 0.4200,-0.3218 l 0.4200,-0.0164 l 0.4200,-0.0372 l 0.4200,0.2704 l 0.4200,0.1898 l 0.4200,-0.5477 l 0.4200,-0.1615 l 0.4200,0.0011 l 0.4200,0.0652 l 0.4200,0.2325 l 0.4200,-0.6134 l 0.4200,-0.4037 l 0.4200,0.0845 l 0.4200,0.1088 l 0.4200,-0.4338 l 0.4200,0.0293 l 0.4200,0.1948 l 0.4200,-0.4349 l 0.4200,-0.0907 l 0.4200,0.1470 l 0.4200,0.0553 l 0.4200,0.0255 l 0.4200,0.3861 l 0.4200,-0.0452 l 0.4200,0.1344 l 0.4200,0.5453 l 0.4200,0.4381 l 0.4200,-0.5492 l 0.4200,0.0622 l 0.4200,-0.5957 l 0.4200,0.0545 l 0.4200,-0.1321 l 0.4200,0.0588 l 0.4200,-0.0342 l 0.4200,0.0169 l 0.4200,-0.0105 l 0.4200,0.1881 l 0.4200,-0.3904 l 0.4200,0.4309 l 0.4200,0.5600 l 0.4200,-0.7581 l 0.4200,0.2776 l 0.4200,0.2582 l 0.4200,0.3056 l 0.4200,-0.0740 l 0.4200,0.7539 l 0.4200,-0.1692 l 0.4200,-0.3893 l 0.4200,-0.5346 l 0.4200,0.5854 l 0.4200,0.6909 l 0.4200,-0.2831 l 0.4200,-0.3218 l 0.4200,-0.4564 l 0.4200,0.0719 l 0.4200,0.0939 l 0.4200,-0.3892 l 0.4200,0.2858 l 0.4200,0.3693 l 0.4200,0.5949 l 0.4200,-0.0658 l 0.4200,0.5103 l 0.4200,0.9182 l 0.4200,0.4216 l 0.4200,-0.0238 l 0.4200,-0.2858 l 0.4200,0.9663 l 0.4200,-0.6192 l 0.4200,0.8354 l 0.4200,-0.0125 l 0.4200,0.4531 l 0.4200,-0.1890 l 0.4200,-0.7531 l 0.4200,0.6051 l 0.4200,-0.5243 l 0.4200,0.4217 l 0.4200,-0.2011 l 0.4200,-0.9184 l 0.4200,0.0256 l 0.4200,0.7253 l 0.4200,-0.1805 l 0.4200,-0.0496 l 0.4200,0.7147 l 0.4200,0.5474 l 0.4200,0.0321 l 0.4200,0.0141 l 0.4200,0.4757 l 0.4200,-0.7256 l 0.4200,-0.6132 l 0.4200,-0.6112 l 0.4200,0.1855 l 0.4200,0.0092 l 0.4200,-0.5352 l 0.4200,0.4834 l 0.4200,-0.1595 l 0.4200,-0.4189 l 0.4200,0.0797 l 0.4200,0.3176 l 0.4200,-0.8848 l 0.4200,-0.1454 l 0.4200,-0.1228 l 0.4200,-0.1154 l 0.4200,-0.0238 l 0.4200,0.4378 l 0.4200,-0.1815 l 0.4200,0.0036 l 0.4200,-0.6063 l 0.4200,0.0579 l 0.4200,0.0797 l 0.4200,-0.2015 l 0.4200,-0.2387 l 0.4200,-0.1561 l 0.4200,-0.0267 l 0.4200,0.0438 l 0.4200,0.2531 l 0.4200,0.0246 l 0.4200,-0.0104 l 0.4200,-0.3221 l 0.4200,-0.1538 l 0.4200,0.0881 l 0.4200,-0.2283 l 0.4200,0.1326 l 0.4200,0.3968 l 0.4200,-0.3854 l 0.4200,0.4670 l 0.4200,-0.0951 l 0.4200,0.1143 l 0.4200,-0.3538 l 0.4200,-0.3677 l 0.4200,0.0044 l 0.4200,0.0483 l 0.4200,-0.2359 l 0.4200,-0.1054 l 0.4200,-0.0176 l 0.4200,0.2085 l 0.4200,0.0093 l 0.4200,0.0797 l 0.4200,-0.0599 l 0.4200,-0.0513 l 0.4200,0.3622 l 0.4200,0.2029 l 0.4200,-0.2840 l 0.4200,0.3408 l 0.4200,0.2360 l 0.4200,0.0193 l 0.4200,-0.1098 l 0.4200,-0.0182 l 0.4200,-0.4594 l 0.4200,0.3746 l 0.4200,0.0169 l 0.4200,0.3328 l 0.4200,-0.3591 l 0.4200,0.3685 l 0.4200,0.0023 l 0.4200,0.1507 l 0.4200,-0.2173 l 0.4200,0.0892 l 0.4200,-0.5045 l 0.4200,-0.2526 l 0.4200,0.0188 l 0.4200,-0.1512 l 0.4200,0.0490 l 0.4200,-0.0321 l 0.4200,-0.0959 l 0.4200,0.1214 l 0.4200,-0.1741 l 0.4200,-0.0377 l 0.4200,-0.1140 l 0.4200,0.0763 l 0.4200,0.3602 l 0.4200,0.3193 l 0.4200,0.0787 l 0.4200,0.0802 l 0.4200,-0.1081 l 0.4200,0.1340 l 0.4200,-0.2090 l 0.4200,-0.0921 l 0.4200,0.0732 l 0.4200,-0.4922 l 0.4200,1.3962 l 0.4200,0.7012 l 0.4200,-0.6581 l 0.4200,-1.1402 l 0.4200,-0.0630 l 0.4200,0.2709 l 0.4200,-0.1917 l 0.4200,0.0437 l 0.4200,-0.5626 l 0.4200,-0.1176 l 0.4200,-0.2531 l 0.4200,0.0065 l 0.4200,-0.1870 l 0.4200,0.0470 l 0.4200,-0.0784 l 0.4200,0.0662 l 0.4200,-0.1496 l 0.4200,0.1489 l 0.4200,-0.1603 l 0.4200,0.1261 l 0.4200,-0.0005 l 0.4200,0.0572 l 0.4200,-0.0491 l 0.4200,-0.0500 l 0.4200,0.0599 l 0.4200,0.2534 l 0.4200,-0.1070 l 0.4200,0.0036 l 0.4200,-0.3128 l 0.4200,0.0463 l 0.4200,-0.0029 l 0.4200,0.1205 l 0.4200,-0.1671 l 0.4200,0.0421 l 0.4200,-0.0937 l 0.4200,0.2200 l 0.4200,-0.0589 l 0.4200,-0.0714 l 0.4200,0.0664 l 0.4200,0.0331 l 0.4200,-0.0621 l 0.4200,0.2108 l 0.4200,0.0634 l 0.4200,0.0714 l 0.4200,-0.1859 l 0.4200,0.0857 l 0.4200,0.1017 l 0.4200,0.0131 l 0.4200,-0.1473 l 0.4200,-0.1011 l 0.4200,0.0173 l 0.4200,0.0960 l 0.4200,0.9517 l 0.4200,-0.5411 l 0.4200,0.5770 l 0.4200,0.0329 l 0.4200,-0.3703 l 0.4200,0.1541 l 0.4200,0.0115 l 0.4200,-0.0005 l 0.4200,-0.4003 l 0.4200,-0.2341 l 0.4200,0.2293 l 0.4200,0.3378 l 0.4200,-0.2324 l 0.4200,-0.1889 l 0.4200,0.3659 l 0.4200,-0.2896 l 0.4200,0.1349 l 0.4200,0.1992 l 0.4200,-0.1515 l 0.4200,-0.0072 l 0.4200,0.1344 l 0.4200,-0.1631 l 0.4200,0.4853 l 0.4200,-0.0328 l 0.4200,0.1281 l 0.4200,0.0028 l 0.4200,0.1257 l 0.4200,-0.2222 l 0.4200,-0.0723 l 0.4200,0.0628 l 0.4200,0.0138 l 0.4200,-0.1689 l 0.4200,0.1548 l 0.4200,0.0765 l 0.4200,0.1238 l 0.4200,0.1283 l 0.4200,0.0149 l 0.4200,0.2681 l 0.4200,0.2579 l 0.4200,0.1776 l 0.4200,0.0727 l 0.4200,-0.8229 l 0.4200,-0.1323 l 0.4200,-0.4067 l 0.4200,-0.0630 l 0.4200,0.0639 l 0.4200,0.0152 l 0.4200,-0.2714 l 0.4200,0.0710 l 0.4200,-0.1656 l 0.4200,0.1017 l 0.4200,-0.2704 l 0.4200,-0.0706 l 0.4200,-0.0192 l 0.4200,-0.1365 l 0.4200,0.2111 l 0.4200,-0.0392 l 0.4200,0.1120 l 0.4200,0.1446 l 0.4200,-0.0039 l 0.4200,-0.2086 l 0.4200,-0.1176 l 0.4200,-0.4837 l 0.4200,-0.0697 l 0.4200,-0.2122 l 0.4200,0.0553 l 0.4200,-0.2346 l 0.4200,0.3210 l 0.4200,-0.1346 l 0.4200,0.0786 l 0.4200,-0.0626 l 0.4200,-0.1253 l 0.4200,0.1055 l 0.4200,0.0828 l 0.4200,-0.0352 l 0.4200,-0.0728 l 0.4200,0.3300 l 0.4200,0.0230 l 0.4200,0.1879 l 0.4200,-0.3083 l 0.4200,-0.2040 l 0.4200,0.0414 l 0.4200,-0.1207 l 0.4200,0.1469 l 0.4200,0.0122 l 0.4200,-0.0948 l 0.4200,0.0935 l 0.4200,-0.0578 l 0.4200,0.1247 l 0.4200,-0.0546 l 0.4200,0.1490 l 0.4200,-0.1153 l 0.4200,0.1141 l 0.4200,-0.2357 l 0.4200,-0.2904 l 0.4200,0.0404 l 0.4200,0.0453 l 0.4200,0.2407 l 0.4200,0.0459 l 0.4200,0.0009 l 0.4200,-0.0094 l 0.4200,-0.2619 l 0.4200,0.0926 l 0.4200,0.0037 l 0.4200,-0.0139 l 0.4200,-0.2048 l 0.4200,-0.1222 l 0.4200,-0.1854 l 0.4200,-0.1386 l 0.4200,-0.1756 l 0.4200,0.0459 l 0.4200,-0.0504 l 0.4200,-0.2151 l 0.4200,0.0544 l 0.4200,-0.0025 l 0.4200,-0.0432 l 0.4200,-0.0252 l 0.4200,0.1111 l 0.4200,-0.5009 l 0.4200,0.2363 l 0.4200,-0.0055 l 0.4200,0.1378 l 0.4200,0.1239 l 0.4200,0.0999 l 0.4200,-0.0171 l 0.4200,-0.1103 l 0.4200,-0.0006 l 0.4200,0.1415 l 0.4200,-0.3026 l 0.4200,0.0751 l 0.4200,0.0632 l 0.4200,0.0895 l 0.4200,0.4860 l 0.4200,-0.0587 l 0.4200,0.0530 l 0.4200,0.0447 l 0.4200,0.0514 l 0.4200,-0.2609 l 0.4200,-0.0281 l 0.4200,-0.0980 l 0.4200,0.0985 l 0.4200,0.0752 l 0.4200,-0.0083 l 0.4200,0.1287 l 0.4200,-0.0602 l 0.4200,0.0442 l 0.4200,-0.0132 l 0.4200,0.0671 l 0.4200,0.1554 l 0.4200,0.2715 l 0.4200,-0.3124 l 0.4200,0.1227 l 0.4200,0.0775 l 0.4200,-0.2726 l 0.4200,0.1278 l 0.4200,-0.3956 l 0.4200,-0.2169 l 0.4200,0.0316 l 0.4200,-0.0078 l 0.4200,0.0857 l 0.4200,-0.0525 l 0.4200,-0.0319 l 0.4200,0.0613 l 0.4200,-0.0089 l 0.4200,-0.1414 l 0.4200,0.0118 l 0.4200,0.0521 l 0.4200,-0.0296 l 0.4200,0.0952 l 0.4200,0.0691 l 0.4200,-0.1674 l 0.4200,0.0392 l 0.4200,0.7077 l 0.4200,-0.1269 l 0.4200,-0.2428 l 0.4200,-0.1820 l 0.4200,-0.0565 l 0.4200,-0.0811 l 0.4200,-0.1546 l 0.4200,0.0015 l 0.4200,0.0589 l 0.4200,0.0307 l 0.4200,-0.2723 l 0.4200,-0.1266 l 0.4200,0.0597 l 0.4200,0.1189 l 0.4200,-0.0459 l 0.4200,0.0034 l 0.4200,0.0449 "/></g></svg>