<?xml version="1.0" encoding="UTF-8"?>
<!DOCTYPE svg PUBLIC "-//W3C//DTD SVG 1.1//EN"
    "http://www.w3.org/Graphics/SVG/1.1/DTD/svg11.dtd">
<svg xmlns="http://www.w3.org/2000/svg" height="400.0000" stroke-opacity="1" viewBox="0 0 600 400" font-size="1" width="600.0000" xmlns:xlink="http://www.w3.org/1999/xlink" stroke="rgb(0,0,0)" version="1.1">
  <defs>
  </defs>
  <g stroke-linejoin="miter" stroke-opacity="1.0" fill-opacity="0.0" stroke="rgb(44,160,44)" stroke-width="1.3093632889694378" fill="rgb(0,0,0)" stroke-linecap="butt" stroke-miterlimit="10.0">
    <path d="M 124.6810,101.2935 l 0.6155,-0.1732 l 0.6155,-1.0467 l 0.6155,0.6413 l 0.6155,-0.6258 l 0.6155,-0.0195 l 0.6155,0.8702 l 0.6155,0.3783 l 0.6155,0.0895 l 0.6155,2.3874 l 0.6155,-0.2586 l 0.6155,-0.7304 l 0.6155,0.0745 l 0.6155,0.4697 l 0.6155,-0.6353 l 0.6155,1.9059 l 0.6155,-0.2180 l 0.6155,-1.3284 l 0.6155,-1.1828 l 0.6155,-0.4493 l 0.6155,0.1273 l 0.6155,-0.8408 l 0.6155,-0.0742 l 0.6155,-0.0367 l 0.6155,0.5229 l 0.6155,0.3122 l 0.6155,0.6775 l 0.6155,1.2379 l 0.6155,0.6813 l 0.6155,-1.3320 l 0.6155,-0.7690 l 0.6155,0.0405 l 0.6155,0.2960 l 0.6155,0.3488 l 0.6155,0.2910 l 0.6155,-0.3055 l 0.6155,0.9053 l 0.6155,0.3572 l 0.6155,-1.3774 l 0.6155,1.1078 l 0.6155,-0.0684 l 0.6155,0.1790 l 0.6155,-0.3970 l 0.6155,-0.5390 l 0.6155,0.3323 l 0.6155,0.9596 l 0.6155,2.4046 l 0.6155,3.6241 l 0.6155,4.4840 l 0.6155,1.5089 l 0.6155,-4.2775 l 0.6155,-2.6657 l 0.6155,-0.0528 l 0.6155,0.9518 l 0.6155,3.3490 l 0.6155,-2.0185 l 0.6155,-0.1235 l 0.6155,1.7240 l 0.6155,-2.7553 l 0.6155,1.5661 l 0.6155,-0.5809 l 0.6155,-0.4910 l 0.6155,0.4641 l 0.6155,-1.4104 l 0.6155,-0.9507 l 0.6155,0.3011 l 0.6155,1.8257 l 0.6155,-0.4986 l 0.6155,1.3872 l 0.6155,0.2321 l 0.6155,0.3777 l 0.6155,0.0535 l 0.6155,2.8920 l 0.6155,-0.1472 l 0.6155,-2.1110 l 0.6155,-0.2203 l 0.6155,-1.5801 l 0.6155,-2.0077 l 0.6155,0.4135 l 0.6155,-0.8765 l 0.6155,-0.9591 l 0.6155,-0.0606 l 0.6155,-0.1215 l 0.6155,0.7811 l 0.6155,0.5425 l 0.6155,-1.6220 l 0.6155,-0.4845 l 0.6155,-0.0063 l 0.6155,0.1816 l 0.6155,0.6717 l 0.6155,-1.8105 l 0.6155,-1.1900 l 0.6155,0.2448 l 0.6155,0.3151 l 0.6155,-1.2761 l 0.6155,0.0851 l 0.6155,0.5698 l 0.6155,-1.2772 l 0.6155,-0.2646 l 0.6155,0.4327 l 0.6155,0.1626 l 0.6155,0.0749 l 0.6155,1.1313 l 0.6155,-0.1360 l 0.6155,0.3909 l 0.6155,1.5943 l 0.6155,1.2754 l 0.6155,-1.6234 l 0.6155,0.1743 l 0.6155,-1.7547 l 0.6155,0.1565 l 0.6155,-0.3908 l 0.6155,0.1699 l 0.6155,-0.1034 l 0.6155,0.0468 l 0.6155,-0.0336 l 0.6155,0.5486 l 0.6155,-1.1486 l 0.6155,1.2617 l 0.6155,1.6367 l 0.6155,-2.2318 l 0.6155,0.8105 l 0.6155,0.7515 l 0.6155,0.8883 l 0.6155,-0.2273 l 0.6155,2.2008 l 0.6155,-0.5123 l 0.6155,-1.1562 l 0.6155,-1.5784 l 0.6155,1.7095 l 0.6155,2.0143 l 0.6155,-0.8478 l 0.6155,-0.9586 l 0.6155,-1.3501 l 0.6155,0.2028 l 0.6155,0.2665 l 0.6155,-1.1502 l 0.6155,0.8318 l 0.6155,1.0742 l 0.6155,1.7324 l 0.6155,-0.2098 l 0.6155,1.4802 l 0.6155,2.6723 l 0.6155,1.2084 l 0.6155,-0.1020 l 0.6155,-0.8704 l 0.6155,2.8056 l 0.6155,-1.8548 l 0.6155,2.4189 l 0.6155,-0.0759 l 0.6155,1.2907 l 0.6155,-0.5977 l 0.6155,-2.2510 l 0.6155,1.7409 l 0.6155,-1.5780 l 0.6155,1.2026 l 0.6155,-0.6284 l 0.6155,-2.7304 l 0.6155,0.0469 l 0.6155,2.0989 l 0.6155,-0.5640 l 0.6155,-0.1781 l 0.6155,2.0640 l 0.6155,1.5675 l 0.6155,0.0513 l 0.6155,-0.0017 l 0.6155,1.3526 l 0.6155,-2.1762 l 0.6155,-1.8392 l 0.6155,-1.8274 l 0.6155,0.5146 l 0.6155,-0.0038 l 0.6155,-1.6002 l 0.6155,1.3911 l 0.6155,-0.4978 l 0.6155,-1.2567 l 0.6155,0.2089 l 0.6155,0.9055 l 0.6155,-2.6219 l 0.6155,-0.4463 l 0.6155,-0.3787 l 0.6155,-0.3558 l 0.6155,-0.0863 l 0.6155,1.2666 l 0.6155,-0.5521 l 0.6155,-0.0079 l 0.6155,-1.7952 l 0.6155,0.1566 l 0.6155,0.2200 l 0.6155,-0.6046 l 0.6155,-0.7118 l 0.6155,-0.4673 l 0.6155,-0.0871 l 0.6155,0.1199 l 0.6155,0.7328 l 0.6155,0.0611 l 0.6155,-0.0416 l 0.6155,-0.9547 l 0.6155,-0.4586 l 0.6155,0.2512 l 0.6155,-0.6763 l 0.6155,0.3828 l 0.6155,1.1559 l 0.6155,-1.1393 l 0.6155,1.3613 l 0.6155,-0.2893 l 0.6155,0.3249 l 0.6155,-1.0475 l 0.6155,-1.0847 l 0.6155,0.0086 l 0.6155,0.1369 l 0.6155,-0.6959 l 0.6155,-0.3116 l 0.6155,-0.0532 l 0.6155,0.6089 l 0.6155,0.0237 l 0.6155,0.2300 l 0.6155,-0.1796 l 0.6155,-0.1541 l 0.6155,1.0578 l 0.6155,0.5881 l 0.6155,-0.8402 l 0.6155,0.9927 l 0.6155,0.6827 l 0.6155,0.0459 l 0.6155,-0.3324 l 0.6155,-0.0630 l 0.6155,-1.3554 l 0.6155,1.0919 l 0.6155,0.0406 l 0.6155,0.9662 l 0.6155,-1.0637 l 0.6155,1.0710 l 0.6155,-0.0050 l 0.6155,0.4298 l 0.6155,-0.6498 l 0.6155,0.2503 l 0.6155,-1.4898 l 0.6155,-0.7473 l 0.6155,0.0499 l 0.6155,-0.4480 l 0.6155,0.1397 l 0.6155,-0.0982 l 0.6155,-0.2848 l 0.6155,0.3526 l 0.6155,-0.5140 l 0.6155,-0.1131 l 0.6155,-0.3362 l 0.6155,0.2223 l 0.6155,1.0530 l 0.6155,0.9303 l 0.6155,0.2225 l 0.6155,0.2263 l 0.6155,-0.3260 l 0.6155,0.3843 l 0.6155,-0.6217 l 0.6155,-0.2772 l 0.6155,0.2077 l 0.6155,-1.4489 l 0.6155,4.0870 l 0.6155,2.0394 l 0.6155,-1.9498 l 0.6155,-3.3557 l 0.6155,-0.1899 l 0.6155,0.7889 l 0.6155,-0.5685 l 0.6155,0.1226 l 0.6155,-1.6534 l 0.6155,-0.3453 l 0.6155,-0.7411 l 0.6155,0.0214 l 0.6155,-0.5453 l 0.6155,0.1415 l 0.6155,-0.2259 l 0.6155,0.1980 l 0.6155,-0.4344 l 0.6155,0.4410 l 0.6155,-0.4658 l 0.6155,0.3742 l 0.6155,0.0025 l 0.6155,0.1713 l 0.6155,-0.1403 l 0.6155,-0.1425 l 0.6155,0.1796 l 0.6155,0.7456 l 0.6155,-0.3119 l 0.6155,0.0128 l 0.6155,-0.9135 l 0.6155,0.1405 l 0.6155,-0.0039 l 0.6155,0.3574 l 0.6155,-0.4857 l 0.6155,0.1282 l 0.6155,-0.2698 l 0.6155,0.6496 l 0.6155,-0.1691 l 0.6155,-0.2051 l 0.6155,0.1991 l 0.6155,0.1010 l 0.6155,-0.1780 l 0.6155,0.6214 l 0.6155,0.1879 l 0.6155,0.2108 l 0.6155,-0.5434 l 0.6155,0.2538 l 0.6155,0.2997 l 0.6155,0.0393 l 0.6155,-0.4302 l 0.6155,-0.2938 l 0.6155,0.0537 l 0.6155,0.2840 l 0.6155,2.7894 l 0.6155,-1.5910 l 0.6155,1.6885 l 0.6155,0.0898 l 0.6155,-1.0914 l 0.6155,0.4478 l 0.6155,0.0289 l 0.6155,-0.0065 l 0.6155,-1.1774 l 0.6155,-0.6870 l 0.6155,0.6721 l 0.6155,0.9880 l 0.6155,-0.6848 l 0.6155,-0.5555 l 0.6155,1.0711 l 0.6155,-0.8519 l 0.6155,0.3938 l 0.6155,0.5810 l 0.6155,-0.4478 l 0.6155,-0.0239 l 0.6155,0.3910 l 0.6155,-0.4816 l 0.6155,1.4190 l 0.6155,-0.1028 l 0.6155,0.3690 l 0.6155,0.0009 l 0.6155,0.3608 l 0.6155,-0.6594 l 0.6155,-0.2184 l 0.6155,0.1780 l 0.6155,0.0339 l 0.6155,-0.5011 l 0.6155,0.4485 l 0.6155,0.2179 l 0.6155,0.3556 l 0.6155,0.3677 l 0.6155,0.0345 l 0.6155,0.7763 l 0.6155,0.7441 l 0.6155,0.5066 l 0.6155,0.1977 l 0.6155,-2.4268 l 0.6155,-0.3960 l 0.6155,-1.1987 l 0.6155,-0.1882 l 0.6155,0.1838 l 0.6155,0.0408 l 0.6155,-0.7987 l 0.6155,0.2066 l 0.6155,-0.4872 l 0.6155,0.2971 l 0.6155,-0.7934 l 0.6155,-0.2057 l 0.6155,-0.0546 l 0.6155,-0.3980 l 0.6155,0.6208 l 0.6155,-0.1137 l 0.6155,0.3293 l 0.6155,0.4239 l 0.6155,-0.0123 l 0.6155,-0.6119 l 0.6155,-0.3434 l 0.6155,-1.4142 l 0.6155,-0.1979 l 0.6155,-0.6144 l 0.6155,0.1706 l 0.6155,-0.6787 l 0.6155,0.9498 l 0.6155,-0.3869 l 0.6155,0.2384 l 0.6155,-0.1754 l 0.6155,-0.3585 l 0.6155,0.3181 l 0.6155,0.2508 l 0.6155,-0.0955 l 0.6155,-0.2054 l 0.6155,0.9745 l 0.6155,0.0730 l 0.6155,0.5554 l 0.6155,-0.8989 l 0.6155,-0.5910 l 0.6155,0.1293 l 0.6155,-0.3458 l 0.6155,0.4388 l 0.6155,0.0430 l 0.6155,-0.2704 l 0.6155,0.2819 l 0.6155,-0.1621 l 0.6155,0.3728 l 0.6155,-0.1534 l 0.6155,0.4433 l 0.6155,-0.3318 l 0.6155,0.3407 l 0.6155,-0.6846 l 0.6155,-0.8426 l 0.6155,0.1284 l 0.6155,0.1424 l 0.6155,0.7138 l 0.6155,0.1416 l 0.6155,0.0093 l 0.6155,-0.0209 l 0.6155,-0.7599 l 0.6155,0.2801 l 0.6155,0.0192 l 0.6155,-0.0326 l 0.6155,-0.5914 l 0.6155,-0.3478 l 0.6155,-0.5317 l 0.6155,-0.3929 l 0.6155,-0.5000 l 0.6155,0.1495 l 0.6155,-0.1326 l 0.6155,-0.6143 l 0.6155,0.1761 l 0.6155,0.0090 l 0.6155,-0.1099 l 0.6155,-0.0569 l 0.6155,0.3421 l 0.6155,-1.4497 l 0.6155,0.7114 l 0.6155,0.0019 l 0.6155,0.4213 l 0.6155,0.3792 l 0.6155,0.3078 l 0.6155,-0.0354 l 0.6155,-0.3082 l 0.6155,0.0140 l 0.6155,0.4295 l 0.6155,-0.8711 l 0.6155,0.2367 l 0.6155,0.2011 l 0.6155,0.2775 l 0.6155,1.4369 l 0.6155,-0.1615 l 0.6155,0.1659 l 0.6155,0.1413 l 0.6155,0.1602 l 0.6155,-0.7542 l 0.6155,-0.0707 l 0.6155,-0.2750 l 0.6155,0.3010 l 0.6155,0.2318 l 0.6155,-0.0132 l 0.6155,0.3879 l 0.6155,-0.1664 l 0.6155,0.1396 l 0.6155,-0.0288 l 0.6155,0.2065 l 0.6155,0.4642 l 0.6155,0.8028 l 0.6155,-0.9091 l 0.6155,0.3675 l 0.6155,0.2342 l 0.6155,-0.7917 l 0.6155,0.3829 l 0.6155,-1.1505 l 0.6155,-0.6238 l 0.6155,0.1054 l 0.6155,-0.0101 l 0.6155,0.2634 l 0.6155,-0.1417 l 0.6155,-0.0810 l 0.6155,0.1920 l 0.6155,-0.0142 l 0.6155,-0.4018 l 0.6155,0.0477 l 0.6155,0.1654 l 0.6155,-0.0742 l 0.6155,0.2912 l 0.6155,0.2141 l 0.6155,-0.4787 l 0.6155,0.1274 l 0.6155,2.0839 l 0.6155,-0.3655 l 0.6155,-0.7037 l 0.6155,-0.5237 l 0.6155,-0.1547 l 0.6155,-0.2261 l 0.6155,-0.4408 l 0.6155,0.0176 l 0.6155,0.1855 l 0.6155,0.1022 l 0.6155,-0.7849 l 0.6155,-0.3560 l 0.6155,0.1903 l 0.6155,0.3629 l 0.6155,-0.1204 l 0.6155,0.0241 l 0.6155,0.1455 "/>
  </g>
  <g stroke-linejoin="miter" stroke-opacity="1.0" fill-opacity="0.0" stroke="rgb(255,127,14)" stroke-width="1.3093632889694378" fill="rgb(0,0,0)" stroke-linecap="butt" stroke-miterlimit="10.0">
    <path d="M 124.6810,105.7333 l 0.6155,-0.4779 l 0.6155,-2.6589 l 0.6155,1.5779 l 0.6155,-1.5994 l 0.6155,-0.0738 l 0.6155,2.1513 l 0.6155,0.9087 l 0.6155,0.1812 l 0.6155,5.9300 l 0.6155,-0.7263 l 0.6155,-1.9021 l 0.6155,0.1238 l 0.6155,1.1123 l 0.6155,-1.6589 l 0.6155,4.7097 l 0.6155,-0.6330 l 0.6155,-3.4071 l 0.6155,-3.0204 l 0.6155,-1.1673 l 0.6155,0.2814 l 0.6155,-2.1400 l 0.6155,-0.2107 l 0.6155,-0.1158 l 0.6155,1.2837 l 0.6155,0.7496 l 0.6155,1.6586 l 0.6155,3.0505 l 0.6155,1.6413 l 0.6155,-3.4041 l 0.6155,-1.9746 l 0.6155,0.0614 l 0.6155,0.6998 l 0.6155,0.8280 l 0.6155,0.6787 l 0.6155,-0.8167 l 0.6155,2.2159 l 0.6155,0.8325 l 0.6155,-3.5096 l 0.6155,2.7253 l 0.6155,-0.2314 l 0.6155,0.3889 l 0.6155,-1.0535 l 0.6155,-1.4017 l 0.6155,0.7849 l 0.6155,2.3489 l 0.6155,5.9494 l 0.6155,8.9651 l 0.6155,11.0594 l 0.6155,3.5538 l 0.6155,-10.9435 l 0.6155,-6.8357 l 0.6155,-0.2625 l 0.6155,2.2498 l 0.6155,8.2266 l 0.6155,-5.2342 l 0.6155,-0.4667 l 0.6155,4.1521 l 0.6155,-7.0617 l 0.6155,3.7760 l 0.6155,-1.6089 l 0.6155,-1.3740 l 0.6155,1.0202 l 0.6155,-3.6664 l 0.6155,-2.4960 l 0.6155,0.6456 l 0.6155,4.4495 l 0.6155,-1.3810 l 0.6155,3.3366 l 0.6155,0.4328 l 0.6155,0.7942 l 0.6155,-0.0194 l 0.6155,7.0673 l 0.6155,-0.5615 l 0.6155,-5.4581 l 0.6155,-0.7060 l 0.6155,-4.0950 l 0.6155,-5.1378 l 0.6155,0.9374 l 0.6155,-2.2883 l 0.6155,-2.4805 l 0.6155,-0.2223 l 0.6155,-0.3725 l 0.6155,1.8836 l 0.6155,1.2767 l 0.6155,-4.1349 l 0.6155,-1.2699 l 0.6155,-0.0680 l 0.6155,0.4019 l 0.6155,1.6234 l 0.6155,-4.5844 l 0.6155,-3.0077 l 0.6155,0.5939 l 0.6155,0.7660 l 0.6155,-3.2130 l 0.6155,0.2062 l 0.6155,1.4158 l 0.6155,-3.2063 l 0.6155,-0.6577 l 0.6155,1.0882 l 0.6155,0.4070 l 0.6155,0.1853 l 0.6155,2.8231 l 0.6155,-0.3594 l 0.6155,0.9588 l 0.6155,3.9587 l 0.6155,3.1385 l 0.6155,-4.1192 l 0.6155,0.3949 l 0.6155,-4.4251 l 0.6155,0.3750 l 0.6155,-0.9943 l 0.6155,0.4121 l 0.6155,-0.2729 l 0.6155,0.1041 l 0.6155,-0.0972 l 0.6155,1.3576 l 0.6155,-2.8900 l 0.6155,3.1480 l 0.6155,4.0656 l 0.6155,-5.6208 l 0.6155,2.0118 l 0.6155,1.8525 l 0.6155,2.1830 l 0.6155,-0.6161 l 0.6155,5.4519 l 0.6155,-1.3564 l 0.6155,-2.9560 l 0.6155,-3.9929 l 0.6155,4.2433 l 0.6155,4.9790 l 0.6155,-2.1985 l 0.6155,-2.4619 l 0.6155,-3.4250 l 0.6155,0.4742 l 0.6155,0.6305 l 0.6155,-2.9115 l 0.6155,2.0565 l 0.6155,2.6498 l 0.6155,4.2778 l 0.6155,-0.5983 l 0.6155,3.6261 l 0.6155,6.5811 l 0.6155,2.8859 l 0.6155,-0.4023 l 0.6155,-2.3174 l 0.6155,6.8735 l 0.6155,-4.7997 l 0.6155,5.8964 l 0.6155,-0.3657 l 0.6155,3.0474 l 0.6155,-1.6822 l 0.6155,-5.7961 l 0.6155,4.1999 l 0.6155,-4.1061 l 0.6155,2.8572 l 0.6155,-1.7280 l 0.6155,-6.9624 l 0.6155,0.0102 l 0.6155,5.1322 l 0.6155,-1.5443 l 0.6155,-0.5714 l 0.6155,5.0277 l 0.6155,3.7579 l 0.6155,-0.0468 l 0.6155,-0.1779 l 0.6155,3.2015 l 0.6155,-5.6167 l 0.6155,-4.7439 l 0.6155,-4.6870 l 0.6155,1.1861 l 0.6155,-0.1147 l 0.6155,-4.0982 l 0.6155,3.3937 l 0.6155,-1.3415 l 0.6155,-3.2280 l 0.6155,0.4507 l 0.6155,2.1874 l 0.6155,-6.6328 l 0.6155,-1.1611 l 0.6155,-0.9851 l 0.6155,-0.9220 l 0.6155,-0.2431 l 0.6155,3.1383 l 0.6155,-1.4238 l 0.6155,-0.0557 l 0.6155,-4.5206 l 0.6155,0.3829 l 0.6155,0.5390 l 0.6155,-1.5245 l 0.6155,-1.7836 l 0.6155,-1.1621 l 0.6155,-0.2047 l 0.6155,0.3138 l 0.6155,1.8437 l 0.6155,0.1538 l 0.6155,-0.1037 l 0.6155,-2.3854 l 0.6155,-1.1314 l 0.6155,0.6497 l 0.6155,-1.6728 l 0.6155,0.9847 l 0.6155,2.9109 l 0.6155,-2.8432 l 0.6155,3.4235 l 0.6155,-0.7224 l 0.6155,0.8169 l 0.6155,-2.6177 l 0.6155,-2.6955 l 0.6155,0.0532 l 0.6155,0.3736 l 0.6155,-1.7107 l 0.6155,-0.7399 l 0.6155,-0.0897 l 0.6155,1.5659 l 0.6155,0.0933 l 0.6155,0.6084 l 0.6155,-0.4191 l 0.6155,-0.3531 l 0.6155,2.6780 l 0.6155,1.4876 l 0.6155,-2.0908 l 0.6155,2.5022 l 0.6155,1.7123 l 0.6155,0.1108 l 0.6155,-0.8352 l 0.6155,-0.1570 l 0.6155,-3.3857 l 0.6155,2.7502 l 0.6155,0.1067 l 0.6155,2.4188 l 0.6155,-2.6679 l 0.6155,2.6823 l 0.6155,-0.0225 l 0.6155,1.0640 l 0.6155,-1.6396 l 0.6155,0.6190 l 0.6155,-3.7326 l 0.6155,-1.8552 l 0.6155,0.1482 l 0.6155,-1.0973 l 0.6155,0.3781 l 0.6155,-0.2189 l 0.6155,-0.6841 l 0.6155,0.9127 l 0.6155,-1.2586 l 0.6155,-0.2492 l 0.6155,-0.8052 l 0.6155,0.5949 l 0.6155,2.6671 l 0.6155,2.3444 l 0.6155,0.5617 l 0.6155,0.5677 l 0.6155,-0.8157 l 0.6155,0.9640 l 0.6155,-1.5554 l 0.6155,-0.6853 l 0.6155,0.5303 l 0.6155,-3.6124 l 0.6155,10.2422 l 0.6155,5.0643 l 0.6155,-4.9333 l 0.6155,-8.4172 l 0.6155,-0.4562 l 0.6155,1.9924 l 0.6155,-1.4116 l 0.6155,0.3238 l 0.6155,-4.1166 l 0.6155,-0.8231 l 0.6155,-1.8074 l 0.6155,0.1088 l 0.6155,-1.3083 l 0.6155,0.4156 l 0.6155,-0.5053 l 0.6155,0.5569 l 0.6155,-1.0271 l 0.6155,1.1663 l 0.6155,-1.1067 l 0.6155,0.9986 l 0.6155,0.0637 l 0.6155,0.4847 l 0.6155,-0.2970 l 0.6155,-0.3009 l 0.6155,0.5056 l 0.6155,1.9166 l 0.6155,-0.7374 l 0.6155,0.0779 l 0.6155,-2.2371 l 0.6155,0.4097 l 0.6155,0.0463 l 0.6155,0.9484 l 0.6155,-1.1640 l 0.6155,0.3765 l 0.6155,-0.6203 l 0.6155,1.6801 l 0.6155,-0.3755 l 0.6155,-0.4632 l 0.6155,0.5492 l 0.6155,0.3006 l 0.6155,-0.3986 l 0.6155,1.6008 l 0.6155,0.5080 l 0.6155,0.5622 l 0.6155,-1.3257 l 0.6155,0.6738 l 0.6155,0.7843 l 0.6155,0.1290 l 0.6155,-1.0451 l 0.6155,-0.6981 l 0.6155,0.1741 l 0.6155,0.7483 l 0.6155,7.0047 l 0.6155,-3.9842 l 0.6155,4.2361 l 0.6155,0.2152 l 0.6155,-2.7385 l 0.6155,1.1250 l 0.6155,0.0713 l 0.6155,-0.0175 l 0.6155,-2.9441 l 0.6155,-1.7004 l 0.6155,1.7060 l 0.6155,2.4853 l 0.6155,-1.7104 l 0.6155,-1.3769 l 0.6155,2.6963 l 0.6155,-2.1257 l 0.6155,1.0003 l 0.6155,1.4622 l 0.6155,-1.1178 l 0.6155,-0.0517 l 0.6155,0.9856 l 0.6155,-1.2013 l 0.6155,3.5565 l 0.6155,-0.2687 l 0.6155,0.9125 l 0.6155,-0.0133 l 0.6155,0.8866 l 0.6155,-1.6692 l 0.6155,-0.5566 l 0.6155,0.4378 l 0.6155,0.0751 l 0.6155,-1.2628 l 0.6155,1.1185 l 0.6155,0.5354 l 0.6155,0.8766 l 0.6155,0.9018 l 0.6155,0.0633 l 0.6155,1.9178 l 0.6155,1.8261 l 0.6155,1.2217 l 0.6155,0.4421 l 0.6155,-6.1235 l 0.6155,-1.0081 l 0.6155,-3.0081 l 0.6155,-0.4643 l 0.6155,0.4682 l 0.6155,0.1078 l 0.6155,-1.9908 l 0.6155,0.5333 l 0.6155,-1.2036 l 0.6155,0.7633 l 0.6155,-1.9661 l 0.6155,-0.4861 l 0.6155,-0.1058 l 0.6155,-0.9631 l 0.6155,1.5879 l 0.6155,-0.2568 l 0.6155,0.8514 l 0.6155,1.0827 l 0.6155,-0.0138 l 0.6155,-1.5120 l 0.6155,-0.8320 l 0.6155,-3.5020 l 0.6155,-0.4427 l 0.6155,-1.4802 l 0.6155,0.4885 l 0.6155,-1.6353 l 0.6155,2.4404 l 0.6155,-0.9121 l 0.6155,0.6547 l 0.6155,-0.3829 l 0.6155,-0.8378 l 0.6155,0.8562 l 0.6155,0.6829 l 0.6155,-0.1862 l 0.6155,-0.4597 l 0.6155,2.4892 l 0.6155,0.2229 l 0.6155,1.4266 l 0.6155,-2.2149 l 0.6155,-1.4322 l 0.6155,0.3750 l 0.6155,-0.8138 l 0.6155,1.1498 l 0.6155,0.1545 l 0.6155,-0.6291 l 0.6155,0.7535 l 0.6155,-0.3598 l 0.6155,0.9780 l 0.6155,-0.3423 l 0.6155,1.1500 l 0.6155,-0.7929 l 0.6155,0.8912 l 0.6155,-1.6750 l 0.6155,-2.0590 l 0.6155,0.3772 l 0.6155,0.4097 l 0.6155,1.8340 l 0.6155,0.3941 l 0.6155,0.0611 l 0.6155,-0.0147 l 0.6155,-1.8604 l 0.6155,0.7477 l 0.6155,0.0915 l 0.6155,-0.0384 l 0.6155,-1.4336 l 0.6155,-0.8167 l 0.6155,-1.2708 l 0.6155,-0.9169 l 0.6155,-1.1784 l 0.6155,0.4484 l 0.6155,-0.2583 l 0.6155,-1.4581 l 0.6155,0.5211 l 0.6155,0.1012 l 0.6155,-0.1962 l 0.6155,-0.0631 l 0.6155,0.9314 l 0.6155,-3.5414 l 0.6155,1.8660 l 0.6155,0.0868 l 0.6155,1.1313 l 0.6155,1.0196 l 0.6155,0.8355 l 0.6155,-0.0257 l 0.6155,-0.7062 l 0.6155,0.1013 l 0.6155,1.1369 l 0.6155,-2.1145 l 0.6155,0.6609 l 0.6155,0.5681 l 0.6155,0.7551 l 0.6155,3.6449 l 0.6155,-0.3672 l 0.6155,0.4528 l 0.6155,0.3885 l 0.6155,0.4333 l 0.6155,-1.8541 l 0.6155,-0.1353 l 0.6155,-0.6448 l 0.6155,0.7973 l 0.6155,0.6196 l 0.6155,0.0037 l 0.6155,1.0057 l 0.6155,-0.3853 l 0.6155,0.3816 l 0.6155,-0.0418 l 0.6155,0.5465 l 0.6155,1.1875 l 0.6155,2.0281 l 0.6155,-2.2668 l 0.6155,0.9403 l 0.6155,0.6013 l 0.6155,-1.9685 l 0.6155,0.9809 l 0.6155,-2.8587 l 0.6155,-1.5236 l 0.6155,0.3065 l 0.6155,0.0161 l 0.6155,0.6988 l 0.6155,-0.3170 l 0.6155,-0.1637 l 0.6155,0.5188 l 0.6155,0.0006 l 0.6155,-0.9676 l 0.6155,0.1608 l 0.6155,0.4534 l 0.6155,-0.1476 l 0.6155,0.7658 l 0.6155,0.5686 l 0.6155,-1.1659 l 0.6155,0.3551 l 0.6155,5.2457 l 0.6155,-0.9118 l 0.6155,-1.7521 l 0.6155,-1.2905 l 0.6155,-0.3600 l 0.6155,-0.5363 l 0.6155,-1.0694 l 0.6155,0.0821 l 0.6155,0.5008 l 0.6155,0.2897 l 0.6155,-1.9279 l 0.6155,-0.8449 l 0.6155,0.5237 l 0.6155,0.9513 l 0.6155,-0.2613 l 0.6155,0.1009 l 0.6155,0.4036 "/>
  </g>
  <g stroke-linejoin="miter" stroke-opacity="1.0" fill-opacity="0.0" stroke="rgb(31,119,180)" stroke-width="1.3093632889694378" fill="rgb(0,0,0)" stroke-linecap="butt" stroke-miterlimit="10.0">
    <path d="M 124.6810,116.3939 l 0.6155,-2.9152 l 0.6155,-13.6846 l 0.6155,8.0040 l 0.6155,-8.1694 l 0.6155,-0.2335 l 0.6155,10.8815 l 0.6155,4.2573 l 0.6155,0.4603 l 0.6155,29.1776 l 0.6155,-5.2386 l 0.6155,-10.8700 l 0.6155,-0.3167 l 0.6155,4.6333 l 0.6155,-9.3537 l 0.6155,22.7604 l 0.6155,-4.7440 l 0.6155,-18.3490 l 0.6155,-15.7378 l 0.6155,-5.8772 l 0.6155,1.5983 l 0.6155,-10.5787 l 0.6155,-0.5123 l 0.6155,-0.0225 l 0.6155,6.9655 l 0.6155,4.0147 l 0.6155,8.3932 l 0.6155,15.0139 l 0.6155,7.3901 l 0.6155,-18.0669 l 0.6155,-10.2249 l 0.6155,0.3429 l 0.6155,3.5174 l 0.6155,4.0200 l 0.6155,3.1191 l 0.6155,-4.4656 l 0.6155,10.8516 l 0.6155,3.5230 l 0.6155,-18.2790 l 0.6155,13.5641 l 0.6155,-1.7247 l 0.6155,1.4440 l 0.6155,-5.8057 l 0.6155,-7.3170 l 0.6155,3.8903 l 0.6155,11.5440 l 0.6155,29.0314 l 0.6155,42.8338 l 0.6155,51.3824 l 0.6155,11.7787 l 0.6155,-59.5072 l 0.6155,-37.2907 l 0.6155,-3.2183 l 0.6155,9.4254 l 0.6155,38.7113 l 0.6155,-29.5097 l 0.6155,-4.7324 l 0.6155,18.4050 l 0.6155,-37.9741 l 0.6155,17.4233 l 0.6155,-10.0664 l 0.6155,-8.5006 l 0.6155,3.7908 l 0.6155,-19.7628 l 0.6155,-13.1772 l 0.6155,3.1077 l 0.6155,22.0339 l 0.6155,-8.0119 l 0.6155,15.8845 l 0.6155,0.7648 l 0.6155,2.5498 l 0.6155,-1.5893 l 0.6155,33.7018 l 0.6155,-5.4803 l 0.6155,-29.5780 l 0.6155,-4.8260 l 0.6155,-21.6255 l 0.6155,-26.1374 l 0.6155,5.5223 l 0.6155,-10.9948 l 0.6155,-11.5489 l 0.6155,0.3253 l 0.6155,-0.4620 l 0.6155,10.9258 l 0.6155,7.3883 l 0.6155,-20.1288 l 0.6155,-4.9343 l 0.6155,1.3029 l 0.6155,3.5939 l 0.6155,9.5581 l 0.6155,-21.9739 l 0.6155,-13.1999 l 0.6155,5.3824 l 0.6155,5.9874 l 0.6155,-14.1674 l 0.6155,3.4728 l 0.6155,9.3263 l 0.6155,-14.1021 l 0.6155,-0.8493 l 0.6155,7.8233 l 0.6155,4.1006 l 0.6155,2.8142 l 0.6155,15.7957 l 0.6155,-0.6699 l 0.6155,5.9205 l 0.6155,20.7022 l 0.6155,15.8489 l 0.6155,-21.2775 l 0.6155,2.2701 l 0.6155,-21.9442 l 0.6155,2.9244 l 0.6155,-4.0330 l 0.6155,3.1325 l 0.6155,-0.4182 l 0.6155,1.4701 l 0.6155,0.3986 l 0.6155,7.6437 l 0.6155,-13.8880 l 0.6155,16.8059 l 0.6155,20.8330 l 0.6155,-28.6163 l 0.6155,10.7874 l 0.6155,9.5850 l 0.6155,10.8851 l 0.6155,-3.6066 l 0.6155,27.0424 l 0.6155,-8.2704 l 0.6155,-15.9274 l 0.6155,-20.4309 l 0.6155,21.5913 l 0.6155,24.4644 l 0.6155,-12.4711 l 0.6155,-13.2608 l 0.6155,-17.5361 l 0.6155,2.6499 l 0.6155,3.3261 l 0.6155,-14.5118 l 0.6155,10.8852 l 0.6155,13.4290 l 0.6155,21.0601 l 0.6155,-4.1665 l 0.6155,17.1401 l 0.6155,31.2133 l 0.6155,11.4492 l 0.6155,-5.3751 l 0.6155,-14.5825 l 0.6155,31.6475 l 0.6155,-27.4005 l 0.6155,26.6639 l 0.6155,-5.3977 l 0.6155,11.6690 l 0.6155,-12.0077 l 0.6155,-31.7939 l 0.6155,18.8947 l 0.6155,-22.9990 l 0.6155,12.4692 l 0.6155,-10.7834 l 0.6155,-36.5707 l 0.6155,-0.2743 l 0.6155,25.4357 l 0.6155,-9.0179 l 0.6155,-3.7973 l 0.6155,24.3555 l 0.6155,16.9643 l 0.6155,-2.5800 l 0.6155,-3.1062 l 0.6155,13.7745 l 0.6155,-30.4489 l 0.6155,-25.1761 l 0.6155,-24.0629 l 0.6155,6.5569 l 0.6155,-0.2957 l 0.6155,-20.4381 l 0.6155,18.2970 l 0.6155,-6.4057 l 0.6155,-15.6965 l 0.6155,3.5199 l 0.6155,12.1251 l 0.6155,-32.8420 l 0.6155,-3.9649 l 0.6155,-2.9280 l 0.6155,-2.5056 l 0.6155,1.0004 l 0.6155,17.9324 l 0.6155,-5.7419 l 0.6155,1.3362 l 0.6155,-21.1006 l 0.6155,4.3015 l 0.6155,4.8747 l 0.6155,-5.6555 l 0.6155,-6.7287 l 0.6155,-3.3676 l 0.6155,1.5103 l 0.6155,3.9934 l 0.6155,11.3936 l 0.6155,2.5286 l 0.6155,1.1300 l 0.6155,-10.2700 l 0.6155,-3.6310 l 0.6155,5.3092 l 0.6155,-6.4178 l 0.6155,6.9594 l 0.6155,16.2396 l 0.6155,-13.0229 l 0.6155,18.6731 l 0.6155,-2.7161 l 0.6155,5.0824 l 0.6155,-12.3078 l 0.6155,-12.1532 l 0.6155,1.9779 l 0.6155,3.4734 l 0.6155,-7.0180 l 0.6155,-1.9327 l 0.6155,1.3389 l 0.6155,9.4655 l 0.6155,1.7960 l 0.6155,4.2847 l 0.6155,-1.0227 l 0.6155,-0.6629 l 0.6155,14.5405 l 0.6155,8.0700 l 0.6155,-10.3774 l 0.6155,13.2550 l 0.6155,8.7982 l 0.6155,0.3032 l 0.6155,-4.5266 l 0.6155,-0.8823 l 0.6155,-17.1442 l 0.6155,14.4352 l 0.6155,0.5915 l 0.6155,12.2532 l 0.6155,-13.9615 l 0.6155,13.6153 l 0.6155,-0.5557 l 0.6155,4.9617 l 0.6155,-8.8925 l 0.6155,2.8704 l 0.6155,-19.1044 l 0.6155,-8.8678 l 0.6155,1.4749 l 0.6155,-4.7955 l 0.6155,2.7332 l 0.6155,-0.3538 l 0.6155,-2.6622 l 0.6155,5.3821 l 0.6155,-5.6482 l 0.6155,-0.4045 l 0.6155,-3.1571 l 0.6155,3.9070 l 0.6155,14.1087 l 0.6155,12.0419 l 0.6155,2.6031 l 0.6155,2.5343 l 0.6155,-4.5633 l 0.6155,4.6179 l 0.6155,-8.2809 l 0.6155,-3.5408 l 0.6155,2.7050 l 0.6155,-18.1430 l 0.6155,51.9516 l 0.6155,24.0674 l 0.6155,-27.1777 l 0.6155,-43.3632 l 0.6155,-1.8092 l 0.6155,10.4948 l 0.6155,-6.9340 l 0.6155,2.0096 l 0.6155,-20.2545 l 0.6155,-3.0119 l 0.6155,-7.8092 l 0.6155,2.0378 l 0.6155,-5.1130 l 0.6155,3.6537 l 0.6155,-1.0870 l 0.6155,4.2231 l 0.6155,-3.8338 l 0.6155,7.2090 l 0.6155,-4.3912 l 0.6155,6.2416 l 0.6155,1.3366 l 0.6155,3.3739 l 0.6155,-0.6643 l 0.6155,-0.6662 l 0.6155,3.3750 l 0.6155,10.3078 l 0.6155,-3.3921 l 0.6155,0.8264 l 0.6155,-10.7890 l 0.6155,2.8555 l 0.6155,0.9248 l 0.6155,5.3963 l 0.6155,-5.3901 l 0.6155,2.5220 l 0.6155,-2.5656 l 0.6155,9.0468 l 0.6155,-1.6130 l 0.6155,-1.9910 l 0.6155,3.1641 l 0.6155,1.7928 l 0.6155,-1.7966 l 0.6155,8.3445 l 0.6155,2.5195 l 0.6155,2.6998 l 0.6155,-6.9705 l 0.6155,3.4224 l 0.6155,3.8563 l 0.6155,0.3885 l 0.6155,-5.5663 l 0.6155,-3.5701 l 0.6155,0.9601 l 0.6155,3.8152 l 0.6155,35.2698 l 0.6155,-21.7234 l 0.6155,20.7217 l 0.6155,-0.3608 l 0.6155,-15.2021 l 0.6155,4.8622 l 0.6155,-0.6139 l 0.6155,-1.0251 l 0.6155,-15.6378 l 0.6155,-8.7680 l 0.6155,8.6115 l 0.6155,12.1887 l 0.6155,-9.2956 l 0.6155,-7.2466 l 0.6155,13.4184 l 0.6155,-11.2334 l 0.6155,4.8522 l 0.6155,6.9796 l 0.6155,-6.2026 l 0.6155,-0.6183 l 0.6155,4.5994 l 0.6155,-6.5182 l 0.6155,17.5490 l 0.6155,-2.2780 l 0.6155,3.7324 l 0.6155,-1.0384 l 0.6155,3.5119 l 0.6155,-9.3929 l 0.6155,-3.4522 l 0.6155,1.6594 l 0.6155,-0.2131 l 0.6155,-6.8867 l 0.6155,5.2910 l 0.6155,2.1726 l 0.6155,3.7967 l 0.6155,3.7779 l 0.6155,-0.5495 l 0.6155,8.7290 l 0.6155,7.9178 l 0.6155,4.5880 l 0.6155,0.5422 l 0.6155,-32.0785 l 0.6155,-5.4141 l 0.6155,-15.2378 l 0.6155,-1.8814 l 0.6155,2.8695 l 0.6155,0.9406 l 0.6155,-9.6177 l 0.6155,3.4110 l 0.6155,-5.4296 l 0.6155,4.6227 l 0.6155,-9.2126 l 0.6155,-1.4495 l 0.6155,0.4968 l 0.6155,-3.7998 l 0.6155,9.0220 l 0.6155,-0.5202 l 0.6155,5.0040 l 0.6155,5.9575 l 0.6155,0.2552 l 0.6155,-7.2264 l 0.6155,-3.5453 l 0.6155,-16.6546 l 0.6155,-0.8005 l 0.6155,-5.8821 l 0.6155,4.0091 l 0.6155,-6.5746 l 0.6155,13.5824 l 0.6155,-3.3756 l 0.6155,4.4616 l 0.6155,-0.8355 l 0.6155,-3.0512 l 0.6155,5.3916 l 0.6155,4.3404 l 0.6155,-0.1406 l 0.6155,-1.5000 l 0.6155,13.2430 l 0.6155,1.4365 l 0.6155,7.4748 l 0.6155,-11.2689 l 0.6155,-6.7748 l 0.6155,2.5229 l 0.6155,-3.5119 l 0.6155,6.4178 l 0.6155,1.2007 l 0.6155,-2.7832 l 0.6155,4.2589 l 0.6155,-1.5023 l 0.6155,5.2922 l 0.6155,-1.5772 l 0.6155,6.0393 l 0.6155,-4.0544 l 0.6155,4.6532 l 0.6155,-8.5344 l 0.6155,-10.0014 l 0.6155,2.5350 l 0.6155,2.6008 l 0.6155,9.6637 l 0.6155,2.0732 l 0.6155,0.3047 l 0.6155,-0.0923 l 0.6155,-9.3934 l 0.6155,4.0986 l 0.6155,0.6496 l 0.6155,-0.0315 l 0.6155,-7.0205 l 0.6155,-3.6262 l 0.6155,-5.7045 l 0.6155,-3.7091 l 0.6155,-4.8150 l 0.6155,3.2494 l 0.6155,-0.3030 l 0.6155,-6.1034 l 0.6155,3.6652 l 0.6155,1.5092 l 0.6155,0.0037 l 0.6155,0.6372 l 0.6155,5.4470 l 0.6155,-16.6972 l 0.6155,10.3405 l 0.6155,1.3450 l 0.6155,6.4744 l 0.6155,5.7352 l 0.6155,4.6275 l 0.6155,0.0685 l 0.6155,-3.4017 l 0.6155,0.8380 l 0.6155,6.0884 l 0.6155,-10.7091 l 0.6155,3.7875 l 0.6155,3.1907 l 0.6155,4.0380 l 0.6155,18.7414 l 0.6155,-2.6550 l 0.6155,1.7264 l 0.6155,1.3280 l 0.6155,1.5121 l 0.6155,-10.3658 l 0.6155,-1.0398 l 0.6155,-3.5802 l 0.6155,3.8828 l 0.6155,2.8411 l 0.6155,-0.4044 l 0.6155,4.7254 l 0.6155,-2.5610 l 0.6155,1.4654 l 0.6155,-0.7473 l 0.6155,2.2863 l 0.6155,5.4742 l 0.6155,9.5572 l 0.6155,-12.8352 l 0.6155,4.1154 l 0.6155,2.2441 l 0.6155,-10.8438 l 0.6155,4.4933 l 0.6155,-14.9584 l 0.6155,-7.6152 l 0.6155,1.8044 l 0.6155,0.2862 l 0.6155,3.6734 l 0.6155,-1.5340 l 0.6155,-0.7093 l 0.6155,2.7185 l 0.6155,0.0281 l 0.6155,-4.7971 l 0.6155,1.0102 l 0.6155,2.4262 l 0.6155,-0.6627 l 0.6155,3.9203 l 0.6155,2.7945 l 0.6155,-6.0032 l 0.6155,1.8429 l 0.6155,26.3872 l 0.6155,-5.6678 l 0.6155,-9.6322 l 0.6155,-6.8863 l 0.6155,-1.9449 l 0.6155,-2.7467 l 0.6155,-5.2930 l 0.6155,0.6551 l 0.6155,2.7142 l 0.6155,1.5559 l 0.6155,-9.5545 l 0.6155,-3.7690 l 0.6155,3.1561 l 0.6155,5.1596 l 0.6155,-1.0723 l 0.6155,0.7702 l 0.6155,2.2468 "/>
  </g>
  <g stroke-linejoin="miter" stroke-opacity="1.0" fill-opacity="0.0" stroke="rgb(102,102,102)" stroke-width="0.43645442965647924" fill="rgb(0,0,0)" stroke-linecap="butt" stroke-miterlimit="10.0">
    <path d="M 124.6810,112.8728 h 307.1485 "/>
  </g>
  <g stroke-linejoin="miter" stroke-opacity="0.0" fill-opacity="0.0" stroke="rgb(0,0,0)" fill-rule="evenodd" stroke-width="0.0" fill="rgb(0,0,0)" stroke-linecap="butt" stroke-miterlimit="10.0">
    <path d="M 49.8924,123.0193 l -24.5965,0.0000 l -0.0000,135.2805 l 24.5965,0.0000 Z"/>
  </g>
  <g stroke-linejoin="miter" stroke-opacity="1.0" fill-opacity="1.0" font-size="22.360410021622705px" stroke="rgb(0,0,0)" fill-rule="evenodd" stroke-width="0.0" fill="rgb(31,119,180)" stroke-linecap="butt" stroke-miterlimit="10.0">
    <text dominant-baseline="middle" transform="matrix(0.0000,-1.0000,1.0000,0.0000,37.5942,258.2998)" stroke="none" text-anchor="start">alpha on ma
    </text>
  </g>
  <g stroke-linejoin="miter" stroke-opacity="0.0" fill-opacity="0.0" stroke="rgb(0,0,0)" fill-rule="evenodd" stroke-width="0.0" fill="rgb(0,0,0)" stroke-linecap="butt" stroke-miterlimit="10.0">
    <path d="M 566.2277,254.8309 l -0.0000,-12.2982 h -30.7456 l -0.0000,12.2982 Z"/>
  </g>
  <g stroke-linejoin="miter" stroke-opacity="1.0" fill-opacity="0.63" font-size="11.180205010811353px" stroke="rgb(0,0,0)" fill-rule="evenodd" stroke-width="0.0" fill="rgb(0,0,0)" stroke-linecap="butt" stroke-miterlimit="10.0">
    <text dominant-baseline="middle" transform="matrix(1.0000,-0.0000,0.0000,1.0000,550.8549,248.6818)" stroke="none" text-anchor="middle">0.996
    </text>
  </g>
  <g stroke-linejoin="miter" stroke-opacity="1.0" fill-opacity="0.0" stroke="rgb(44,160,44)" stroke-width="1.3093632889694378" fill="rgb(0,0,0)" stroke-linecap="butt" stroke-miterlimit="10.0">
    <path d="M 510.9103,247.5637 h 20.4766 "/>
  </g>
  <g stroke-linejoin="miter" stroke-opacity="0.0" fill-opacity="0.0" stroke="rgb(0,0,0)" fill-rule="evenodd" stroke-width="0.0" fill="rgb(0,0,0)" stroke-linecap="butt" stroke-miterlimit="10.0">
    <path d="M 560.0786,236.3897 l -0.0000,-12.2982 h -24.5965 l -0.0000,12.2982 Z"/>
  </g>
  <g stroke-linejoin="miter" stroke-opacity="1.0" fill-opacity="0.63" font-size="11.180205010811353px" stroke="rgb(0,0,0)" fill-rule="evenodd" stroke-width="0.0" fill="rgb(0,0,0)" stroke-linecap="butt" stroke-miterlimit="10.0">
    <text dominant-baseline="middle" transform="matrix(1.0000,-0.0000,0.0000,1.0000,547.7804,230.2406)" stroke="none" text-anchor="middle">0.99
    </text>
  </g>
  <g stroke-linejoin="miter" stroke-opacity="1.0" fill-opacity="0.0" stroke="rgb(255,127,14)" stroke-width="1.3093632889694378" fill="rgb(0,0,0)" stroke-linecap="butt" stroke-miterlimit="10.0">
    <path d="M 510.9103,229.1225 h 20.4766 "/>
  </g>
  <g stroke-linejoin="miter" stroke-opacity="0.0" fill-opacity="0.0" stroke="rgb(0,0,0)" fill-rule="evenodd" stroke-width="0.0" fill="rgb(0,0,0)" stroke-linecap="butt" stroke-miterlimit="10.0">
    <path d="M 560.0786,217.9485 l -0.0000,-12.2982 h -24.5965 l -0.0000,12.2982 Z"/>
  </g>
  <g stroke-linejoin="miter" stroke-opacity="1.0" fill-opacity="0.63" font-size="11.180205010811353px" stroke="rgb(0,0,0)" fill-rule="evenodd" stroke-width="0.0" fill="rgb(0,0,0)" stroke-linecap="butt" stroke-miterlimit="10.0">
    <text dominant-baseline="middle" transform="matrix(1.0000,-0.0000,0.0000,1.0000,547.7804,211.7994)" stroke="none" text-anchor="middle">0.95
    </text>
  </g>
  <g stroke-linejoin="miter" stroke-opacity="1.0" fill-opacity="0.0" stroke="rgb(31,119,180)" stroke-width="1.3093632889694378" fill="rgb(0,0,0)" stroke-linecap="butt" stroke-miterlimit="10.0">
    <path d="M 510.9103,210.6814 h 20.4766 "/>
  </g>
  <g stroke-linejoin="miter" stroke-opacity="0.0" fill-opacity="0.0" stroke="rgb(0,0,0)" fill-rule="evenodd" stroke-width="0.0" fill="rgb(0,0,0)" stroke-linecap="butt" stroke-miterlimit="10.0">
    <path d="M 546.0481,199.5073 l -0.0000,-14.0551 h -70.2756 l -0.0000,14.0551 Z"/>
  </g>
  <g stroke-linejoin="miter" stroke-opacity="1.0" fill-opacity="0.33" font-size="12.777377155212973px" stroke="rgb(0,0,0)" fill-rule="evenodd" stroke-width="0.0" fill="rgb(0,0,0)" stroke-linecap="butt" stroke-miterlimit="10.0">
    <text dominant-baseline="middle" transform="matrix(1.0000,-0.0000,0.0000,1.0000,510.9103,192.4797)" stroke="none" text-anchor="middle">decay rate
    </text>
  </g>
  <g stroke-linejoin="miter" stroke-opacity="0.2" fill-opacity="0.0" stroke="rgb(0,0,0)" stroke-width="0.8729088593129585" fill="rgb(0,0,0)" stroke-linecap="butt" stroke-miterlimit="10.0">
    <path d="M 570.7505,258.2998 l -0.0000,-76.3166 h -99.5008 l -0.0000,76.3166 Z"/>
  </g>
  <g stroke-linejoin="miter" stroke-opacity="0.0" fill-opacity="0.1" stroke="rgb(0,0,0)" stroke-width="0.0" fill="rgb(0,0,0)" stroke-linecap="butt" stroke-miterlimit="10.0">
    <path d="M 116.4904,258.2998 l -0.0000,-204.7657 h -4.0953 l -0.0000,204.7657 Z"/>
  </g>
  <g stroke-linejoin="miter" stroke-opacity="0.0" fill-opacity="0.0" stroke="rgb(0,0,0)" fill-rule="evenodd" stroke-width="0.0" fill="rgb(0,0,0)" stroke-linecap="butt" stroke-miterlimit="10.0">
    <path d="M 107.2759,65.7351 l -0.0000,-14.0551 h -42.1653 l -0.0000,14.0551 Z"/>
  </g>
  <g stroke-linejoin="miter" stroke-opacity="1.0" fill-opacity="0.6" font-size="12.777377155212973px" stroke="rgb(0,0,0)" fill-rule="evenodd" stroke-width="0.0" fill="rgb(0,0,0)" stroke-linecap="butt" stroke-miterlimit="10.0">
    <text dominant-baseline="middle" transform="matrix(1.0000,-0.0000,0.0000,1.0000,86.1932,58.7075)" stroke="none" text-anchor="middle">2.0e-3
    </text>
  </g>
  <g stroke-linejoin="miter" stroke-opacity="0.6" fill-opacity="0.0" stroke="rgb(0,0,0)" stroke-width="2.1822721482823964" fill="rgb(0,0,0)" stroke-linecap="butt" stroke-miterlimit="10.0">
    <path d="M 110.3474,57.4298 h 6.1430 "/>
  </g>
  <g stroke-linejoin="miter" stroke-opacity="0.0" fill-opacity="0.0" stroke="rgb(0,0,0)" fill-rule="evenodd" stroke-width="0.0" fill="rgb(0,0,0)" stroke-linecap="butt" stroke-miterlimit="10.0">
    <path d="M 107.2759,93.4566 l -0.0000,-14.0551 h -42.1653 l -0.0000,14.0551 Z"/>
  </g>
  <g stroke-linejoin="miter" stroke-opacity="1.0" fill-opacity="0.6" font-size="12.777377155212973px" stroke="rgb(0,0,0)" fill-rule="evenodd" stroke-width="0.0" fill="rgb(0,0,0)" stroke-linecap="butt" stroke-miterlimit="10.0">
    <text dominant-baseline="middle" transform="matrix(1.0000,-0.0000,0.0000,1.0000,86.1932,86.4290)" stroke="none" text-anchor="middle">1.0e-3
    </text>
  </g>
  <g stroke-linejoin="miter" stroke-opacity="0.6" fill-opacity="0.0" stroke="rgb(0,0,0)" stroke-width="2.1822721482823964" fill="rgb(0,0,0)" stroke-linecap="butt" stroke-miterlimit="10.0">
    <path d="M 110.3474,85.1513 h 6.1430 "/>
  </g>
  <g stroke-linejoin="miter" stroke-opacity="0.0" fill-opacity="0.0" stroke="rgb(0,0,0)" fill-rule="evenodd" stroke-width="0.0" fill="rgb(0,0,0)" stroke-linecap="butt" stroke-miterlimit="10.0">
    <path d="M 107.2759,121.1781 l -0.0000,-14.0551 h -35.1378 l -0.0000,14.0551 Z"/>
  </g>
  <g stroke-linejoin="miter" stroke-opacity="1.0" fill-opacity="0.6" font-size="12.777377155212973px" stroke="rgb(0,0,0)" fill-rule="evenodd" stroke-width="0.0" fill="rgb(0,0,0)" stroke-linecap="butt" stroke-miterlimit="10.0">
    <text dominant-baseline="middle" transform="matrix(1.0000,-0.0000,0.0000,1.0000,89.7070,114.1505)" stroke="none" text-anchor="middle">0.0e0
    </text>
  </g>
  <g stroke-linejoin="miter" stroke-opacity="0.6" fill-opacity="0.0" stroke="rgb(0,0,0)" stroke-width="2.1822721482823964" fill="rgb(0,0,0)" stroke-linecap="butt" stroke-miterlimit="10.0">
    <path d="M 110.3474,112.8728 h 6.1430 "/>
  </g>
  <g stroke-linejoin="miter" stroke-opacity="0.0" fill-opacity="0.0" stroke="rgb(0,0,0)" fill-rule="evenodd" stroke-width="0.0" fill="rgb(0,0,0)" stroke-linecap="butt" stroke-miterlimit="10.0">
    <path d="M 107.2759,148.8996 l -0.0000,-14.0551 h -49.1929 l -0.0000,14.0551 Z"/>
  </g>
  <g stroke-linejoin="miter" stroke-opacity="1.0" fill-opacity="0.6" font-size="12.777377155212973px" stroke="rgb(0,0,0)" fill-rule="evenodd" stroke-width="0.0" fill="rgb(0,0,0)" stroke-linecap="butt" stroke-miterlimit="10.0">
    <text dominant-baseline="middle" transform="matrix(1.0000,-0.0000,0.0000,1.0000,82.6795,141.8720)" stroke="none" text-anchor="middle">-1.0e-3
    </text>
  </g>
  <g stroke-linejoin="miter" stroke-opacity="0.6" fill-opacity="0.0" stroke="rgb(0,0,0)" stroke-width="2.1822721482823964" fill="rgb(0,0,0)" stroke-linecap="butt" stroke-miterlimit="10.0">
    <path d="M 110.3474,140.5943 h 6.1430 "/>
  </g>
  <g stroke-linejoin="miter" stroke-opacity="0.0" fill-opacity="0.0" stroke="rgb(0,0,0)" fill-rule="evenodd" stroke-width="0.0" fill="rgb(0,0,0)" stroke-linecap="butt" stroke-miterlimit="10.0">
    <path d="M 107.2759,176.6210 l -0.0000,-14.0551 h -49.1929 l -0.0000,14.0551 Z"/>
  </g>
  <g stroke-linejoin="miter" stroke-opacity="1.0" fill-opacity="0.6" font-size="12.777377155212973px" stroke="rgb(0,0,0)" fill-rule="evenodd" stroke-width="0.0" fill="rgb(0,0,0)" stroke-linecap="butt" stroke-miterlimit="10.0">
    <text dominant-baseline="middle" transform="matrix(1.0000,-0.0000,0.0000,1.0000,82.6795,169.5935)" stroke="none" text-anchor="middle">-2.0e-3
    </text>
  </g>
  <g stroke-linejoin="miter" stroke-opacity="0.6" fill-opacity="0.0" stroke="rgb(0,0,0)" stroke-width="2.1822721482823964" fill="rgb(0,0,0)" stroke-linecap="butt" stroke-miterlimit="10.0">
    <path d="M 110.3474,168.3158 h 6.1430 "/>
  </g>
  <g stroke-linejoin="miter" stroke-opacity="0.0" fill-opacity="0.0" stroke="rgb(0,0,0)" fill-rule="evenodd" stroke-width="0.0" fill="rgb(0,0,0)" stroke-linecap="butt" stroke-miterlimit="10.0">
    <path d="M 107.2759,204.3425 l -0.0000,-14.0551 h -49.1929 l -0.0000,14.0551 Z"/>
  </g>
  <g stroke-linejoin="miter" stroke-opacity="1.0" fill-opacity="0.6" font-size="12.777377155212973px" stroke="rgb(0,0,0)" fill-rule="evenodd" stroke-width="0.0" fill="rgb(0,0,0)" stroke-linecap="butt" stroke-miterlimit="10.0">
    <text dominant-baseline="middle" transform="matrix(1.0000,-0.0000,0.0000,1.0000,82.6795,197.3150)" stroke="none" text-anchor="middle">-3.0e-3
    </text>
  </g>
  <g stroke-linejoin="miter" stroke-opacity="0.6" fill-opacity="0.0" stroke="rgb(0,0,0)" stroke-width="2.1822721482823964" fill="rgb(0,0,0)" stroke-linecap="butt" stroke-miterlimit="10.0">
    <path d="M 110.3474,196.0372 h 6.1430 "/>
  </g>
  <g stroke-linejoin="miter" stroke-opacity="0.0" fill-opacity="0.0" stroke="rgb(0,0,0)" fill-rule="evenodd" stroke-width="0.0" fill="rgb(0,0,0)" stroke-linecap="butt" stroke-miterlimit="10.0">
    <path d="M 107.2759,232.0640 l -0.0000,-14.0551 h -49.1929 l -0.0000,14.0551 Z"/>
  </g>
  <g stroke-linejoin="miter" stroke-opacity="1.0" fill-opacity="0.6" font-size="12.777377155212973px" stroke="rgb(0,0,0)" fill-rule="evenodd" stroke-width="0.0" fill="rgb(0,0,0)" stroke-linecap="butt" stroke-miterlimit="10.0">
    <text dominant-baseline="middle" transform="matrix(1.0000,-0.0000,0.0000,1.0000,82.6795,225.0365)" stroke="none" text-anchor="middle">-4.0e-3
    </text>
  </g>
  <g stroke-linejoin="miter" stroke-opacity="0.6" fill-opacity="0.0" stroke="rgb(0,0,0)" stroke-width="2.1822721482823964" fill="rgb(0,0,0)" stroke-linecap="butt" stroke-miterlimit="10.0">
    <path d="M 110.3474,223.7587 h 6.1430 "/>
  </g>
  <g stroke-linejoin="miter" stroke-opacity="0.0" fill-opacity="0.0" stroke="rgb(0,0,0)" fill-rule="evenodd" stroke-width="0.0" fill="rgb(0,0,0)" stroke-linecap="butt" stroke-miterlimit="10.0">
    <path d="M 107.2759,259.7855 l -0.0000,-14.0551 h -49.1929 l -0.0000,14.0551 Z"/>
  </g>
  <g stroke-linejoin="miter" stroke-opacity="1.0" fill-opacity="0.6" font-size="12.777377155212973px" stroke="rgb(0,0,0)" fill-rule="evenodd" stroke-width="0.0" fill="rgb(0,0,0)" stroke-linecap="butt" stroke-miterlimit="10.0">
    <text dominant-baseline="middle" transform="matrix(1.0000,-0.0000,0.0000,1.0000,82.6795,252.7580)" stroke="none" text-anchor="middle">-5.0e-3
    </text>
  </g>
  <g stroke-linejoin="miter" stroke-opacity="0.6" fill-opacity="0.0" stroke="rgb(0,0,0)" stroke-width="2.1822721482823964" fill="rgb(0,0,0)" stroke-linecap="butt" stroke-miterlimit="10.0">
    <path d="M 110.3474,251.4802 h 6.1430 "/>
  </g>
  <g stroke-linejoin="miter" stroke-opacity="0.0" fill-opacity="0.1" stroke="rgb(0,0,0)" stroke-width="0.0" fill="rgb(0,0,0)" stroke-linecap="butt" stroke-miterlimit="10.0">
    <path d="M 431.8295,270.5858 l -0.0000,-4.0953 h -307.1485 l -0.0000,4.0953 Z"/>
  </g>
  <g stroke-linejoin="miter" stroke-opacity="0.0" fill-opacity="0.0" stroke="rgb(0,0,0)" fill-rule="evenodd" stroke-width="0.0" fill="rgb(0,0,0)" stroke-linecap="butt" stroke-miterlimit="10.0">
    <path d="M 451.0730,340.3049 l 9.9385,-9.9385 l -54.6616,-54.6616 l -9.9385,9.9385 Z"/>
  </g>
  <g stroke-linejoin="miter" stroke-opacity="1.0" fill-opacity="0.6" font-size="12.777377155212973px" stroke="rgb(0,0,0)" fill-rule="evenodd" stroke-width="0.0" fill="rgb(0,0,0)" stroke-linecap="butt" stroke-miterlimit="10.0">
    <text dominant-baseline="middle" transform="matrix(0.7071,0.7071,-0.7071,0.7071,401.3806,280.6741)" stroke="none" text-anchor="start">31 Mar 2017
    </text>
  </g>
  <g stroke-linejoin="miter" stroke-opacity="0.6" fill-opacity="0.0" stroke="rgb(0,0,0)" stroke-width="2.1822721482823964" fill="rgb(0,0,0)" stroke-linecap="butt" stroke-miterlimit="10.0">
    <path d="M 402.2841,266.4904 v 6.1430 "/>
  </g>
  <g stroke-linejoin="miter" stroke-opacity="0.0" fill-opacity="0.0" stroke="rgb(0,0,0)" fill-rule="evenodd" stroke-width="0.0" fill="rgb(0,0,0)" stroke-linecap="butt" stroke-miterlimit="10.0">
    <path d="M 412.9102,340.3049 l 9.9385,-9.9385 l -54.6616,-54.6616 l -9.9385,9.9385 Z"/>
  </g>
  <g stroke-linejoin="miter" stroke-opacity="1.0" fill-opacity="0.6" font-size="12.777377155212973px" stroke="rgb(0,0,0)" fill-rule="evenodd" stroke-width="0.0" fill="rgb(0,0,0)" stroke-linecap="butt" stroke-miterlimit="10.0">
    <text dominant-baseline="middle" transform="matrix(0.7071,0.7071,-0.7071,0.7071,363.2179,280.6741)" stroke="none" text-anchor="start">31 Dec 2016
    </text>
  </g>
  <g stroke-linejoin="miter" stroke-opacity="0.6" fill-opacity="0.0" stroke="rgb(0,0,0)" stroke-width="2.1822721482823964" fill="rgb(0,0,0)" stroke-linecap="butt" stroke-miterlimit="10.0">
    <path d="M 364.1214,266.4904 v 6.1430 "/>
  </g>
  <g stroke-linejoin="miter" stroke-opacity="0.0" fill-opacity="0.0" stroke="rgb(0,0,0)" fill-rule="evenodd" stroke-width="0.0" fill="rgb(0,0,0)" stroke-linecap="butt" stroke-miterlimit="10.0">
    <path d="M 374.1320,340.3049 l 9.9385,-9.9385 l -54.6616,-54.6616 l -9.9385,9.9385 Z"/>
  </g>
  <g stroke-linejoin="miter" stroke-opacity="1.0" fill-opacity="0.6" font-size="12.777377155212973px" stroke="rgb(0,0,0)" fill-rule="evenodd" stroke-width="0.0" fill="rgb(0,0,0)" stroke-linecap="butt" stroke-miterlimit="10.0">
    <text dominant-baseline="middle" transform="matrix(0.7071,0.7071,-0.7071,0.7071,324.4396,280.6741)" stroke="none" text-anchor="start">30 Sep 2016
    </text>
  </g>
  <g stroke-linejoin="miter" stroke-opacity="0.6" fill-opacity="0.0" stroke="rgb(0,0,0)" stroke-width="2.1822721482823964" fill="rgb(0,0,0)" stroke-linecap="butt" stroke-miterlimit="10.0">
    <path d="M 325.3431,266.4904 v 6.1430 "/>
  </g>
  <g stroke-linejoin="miter" stroke-opacity="0.0" fill-opacity="0.0" stroke="rgb(0,0,0)" fill-rule="evenodd" stroke-width="0.0" fill="rgb(0,0,0)" stroke-linecap="butt" stroke-miterlimit="10.0">
    <path d="M 334.7382,340.3049 l 9.9385,-9.9385 l -54.6616,-54.6616 l -9.9385,9.9385 Z"/>
  </g>
  <g stroke-linejoin="miter" stroke-opacity="1.0" fill-opacity="0.6" font-size="12.777377155212973px" stroke="rgb(0,0,0)" fill-rule="evenodd" stroke-width="0.0" fill="rgb(0,0,0)" stroke-linecap="butt" stroke-miterlimit="10.0">
    <text dominant-baseline="middle" transform="matrix(0.7071,0.7071,-0.7071,0.7071,285.0458,280.6741)" stroke="none" text-anchor="start">30 Jun 2016
    </text>
  </g>
  <g stroke-linejoin="miter" stroke-opacity="0.6" fill-opacity="0.0" stroke="rgb(0,0,0)" stroke-width="2.1822721482823964" fill="rgb(0,0,0)" stroke-linecap="butt" stroke-miterlimit="10.0">
    <path d="M 285.9493,266.4904 v 6.1430 "/>
  </g>
  <g stroke-linejoin="miter" stroke-opacity="0.0" fill-opacity="0.0" stroke="rgb(0,0,0)" fill-rule="evenodd" stroke-width="0.0" fill="rgb(0,0,0)" stroke-linecap="butt" stroke-miterlimit="10.0">
    <path d="M 295.9599,340.3049 l 9.9385,-9.9385 l -54.6616,-54.6616 l -9.9385,9.9385 Z"/>
  </g>
  <g stroke-linejoin="miter" stroke-opacity="1.0" fill-opacity="0.6" font-size="12.777377155212973px" stroke="rgb(0,0,0)" fill-rule="evenodd" stroke-width="0.0" fill="rgb(0,0,0)" stroke-linecap="butt" stroke-miterlimit="10.0">
    <text dominant-baseline="middle" transform="matrix(0.7071,0.7071,-0.7071,0.7071,246.2676,280.6741)" stroke="none" text-anchor="start">31 Mar 2016
    </text>
  </g>
  <g stroke-linejoin="miter" stroke-opacity="0.6" fill-opacity="0.0" stroke="rgb(0,0,0)" stroke-width="2.1822721482823964" fill="rgb(0,0,0)" stroke-linecap="butt" stroke-miterlimit="10.0">
    <path d="M 247.1711,266.4904 v 6.1430 "/>
  </g>
  <g stroke-linejoin="miter" stroke-opacity="0.0" fill-opacity="0.0" stroke="rgb(0,0,0)" fill-rule="evenodd" stroke-width="0.0" fill="rgb(0,0,0)" stroke-linecap="butt" stroke-miterlimit="10.0">
    <path d="M 258.4127,340.3049 l 9.9385,-9.9385 l -54.6616,-54.6616 l -9.9385,9.9385 Z"/>
  </g>
  <g stroke-linejoin="miter" stroke-opacity="1.0" fill-opacity="0.6" font-size="12.777377155212973px" stroke="rgb(0,0,0)" fill-rule="evenodd" stroke-width="0.0" fill="rgb(0,0,0)" stroke-linecap="butt" stroke-miterlimit="10.0">
    <text dominant-baseline="middle" transform="matrix(0.7071,0.7071,-0.7071,0.7071,208.7204,280.6741)" stroke="none" text-anchor="start">31 Dec 2015
    </text>
  </g>
  <g stroke-linejoin="miter" stroke-opacity="0.6" fill-opacity="0.0" stroke="rgb(0,0,0)" stroke-width="2.1822721482823964" fill="rgb(0,0,0)" stroke-linecap="butt" stroke-miterlimit="10.0">
    <path d="M 209.6239,266.4904 v 6.1430 "/>
  </g>
  <g stroke-linejoin="miter" stroke-opacity="0.0" fill-opacity="0.0" stroke="rgb(0,0,0)" fill-rule="evenodd" stroke-width="0.0" fill="rgb(0,0,0)" stroke-linecap="butt" stroke-miterlimit="10.0">
    <path d="M 219.0189,340.3049 l 9.9385,-9.9385 l -54.6616,-54.6616 l -9.9385,9.9385 Z"/>
  </g>
  <g stroke-linejoin="miter" stroke-opacity="1.0" fill-opacity="0.6" font-size="12.777377155212973px" stroke="rgb(0,0,0)" fill-rule="evenodd" stroke-width="0.0" fill="rgb(0,0,0)" stroke-linecap="butt" stroke-miterlimit="10.0">
    <text dominant-baseline="middle" transform="matrix(0.7071,0.7071,-0.7071,0.7071,169.3266,280.6741)" stroke="none" text-anchor="start">30 Sep 2015
    </text>
  </g>
  <g stroke-linejoin="miter" stroke-opacity="0.6" fill-opacity="0.0" stroke="rgb(0,0,0)" stroke-width="2.1822721482823964" fill="rgb(0,0,0)" stroke-linecap="butt" stroke-miterlimit="10.0">
    <path d="M 170.2301,266.4904 v 6.1430 "/>
  </g>
  <g stroke-linejoin="miter" stroke-opacity="0.0" fill-opacity="0.0" stroke="rgb(0,0,0)" fill-rule="evenodd" stroke-width="0.0" fill="rgb(0,0,0)" stroke-linecap="butt" stroke-miterlimit="10.0">
    <path d="M 179.6251,340.3049 l 9.9385,-9.9385 l -54.6616,-54.6616 l -9.9385,9.9385 Z"/>
  </g>
  <g stroke-linejoin="miter" stroke-opacity="1.0" fill-opacity="0.6" font-size="12.777377155212973px" stroke="rgb(0,0,0)" fill-rule="evenodd" stroke-width="0.0" fill="rgb(0,0,0)" stroke-linecap="butt" stroke-miterlimit="10.0">
    <text dominant-baseline="middle" transform="matrix(0.7071,0.7071,-0.7071,0.7071,129.9328,280.6741)" stroke="none" text-anchor="start">30 Jun 2015
    </text>
  </g>
  <g stroke-linejoin="miter" stroke-opacity="0.6" fill-opacity="0.0" stroke="rgb(0,0,0)" stroke-width="2.1822721482823964" fill="rgb(0,0,0)" stroke-linecap="butt" stroke-miterlimit="10.0">
    <path d="M 130.8363,266.4904 v 6.1430 "/>
  </g>
  <g stroke-linejoin="miter" stroke-opacity="0.0" fill-opacity="0.0" stroke="rgb(0,0,0)" stroke-width="0.0" fill="rgb(0,0,0)" stroke-linecap="butt" stroke-miterlimit="10.0">
    <path d="M 431.8295,258.2998 l -0.0000,-204.7657 h -307.1485 l -0.0000,204.7657 Z"/>
  </g>
</svg>