<svg viewBox="-1.4059678118201535 -0.68275 2.413467811820153 1.5020159178324475" xmlns="http://www.w3.org/2000/svg" xmlns:xlink="http://www.w3.org/1999/xlink" version="1.1" width="600.0" height="300.0"><g stroke-width="0.0" stroke="none" fill="#000000" transform="translate(-0.19923390591007695, -0.57175)" fill-opacity="1.0" font-size="0.12" text-anchor="middle"><text transform="rotate(0.0, 0.0, -0.0)" x="0.0" y="-0.0">alpha on ma</text></g><g stroke-width="0.0" stroke="#000000" fill="#666666" fill-opacity="3.0e-2" stroke-opacity="0.0"><rect width="1.9999999999999998" height="1.0" x="-1.0" y="-0.5" /></g><g stroke-width="5.0e-3" stroke="#A8E5EE" fill="none" stroke-opacity="0.3"><polyline points="-1.005,0.5 1.0049999999999997,0.5" /></g><g stroke-width="5.0e-3" stroke="#A8E5EE" fill="none" stroke-opacity="0.3"><polyline points="-1.005,0.33333333333333337 1.0049999999999997,0.33333333333333337" /></g><g stroke-width="5.0e-3" stroke="#A8E5EE" fill="none" stroke-opacity="0.3"><polyline points="-1.005,0.16666666666666669 1.0049999999999997,0.16666666666666669" /></g><g stroke-width="5.0e-3" stroke="#A8E5EE" fill="none" stroke-opacity="0.3"><polyline points="-1.005,-0.0 1.0049999999999997,-0.0" /></g><g stroke-width="5.0e-3" stroke="#A8E5EE" fill="none" stroke-opacity="0.3"><polyline points="-1.005,-0.16666666666666663 1.0049999999999997,-0.16666666666666663" /></g><g stroke-width="5.0e-3" stroke="#A8E5EE" fill="none" stroke-opacity="0.3"><polyline points="-1.005,-0.33333333333333337 1.0049999999999997,-0.33333333333333337" /></g><g stroke-width="5.0e-3" stroke="#A8E5EE" fill="none" stroke-opacity="0.3"><polyline points="-1.005,-0.5 1.0049999999999997,-0.5" /></g><g stroke-width="0.0" stroke="none" fill="#666666" fill-opacity="1.0" font-size="5.0e-2" text-anchor="end"><text x="-1.2309678118201535" y="0.5145">-8.0e-3</text></g><g stroke-width="0.0" stroke="none" fill="#666666" fill-opacity="1.0" font-size="5.0e-2" text-anchor="end"><text x="-1.2309678118201535" y="0.3478333333333334">-6.0e-3</text></g><g stroke-width="0.0" stroke="none" fill="#666666" fill-opacity="1.0" font-size="5.0e-2" text-anchor="end"><text x="-1.2309678118201535" y="0.1811666666666667">-4.0e-3</text></g><g stroke-width="0.0" stroke="none" fill="#666666" fill-opacity="1.0" font-size="5.0e-2" text-anchor="end"><text x="-1.2309678118201535" y="1.4499999999999999e-2">-2.0e-3</text></g><g stroke-width="0.0" stroke="none" fill="#666666" fill-opacity="1.0" font-size="5.0e-2" text-anchor="end"><text x="-1.2309678118201535" y="-0.15216666666666662">0.0e0</text></g><g stroke-width="0.0" stroke="none" fill="#666666" fill-opacity="1.0" font-size="5.0e-2" text-anchor="end"><text x="-1.2309678118201535" y="-0.31883333333333336">2.0e-3</text></g><g stroke-width="0.0" stroke="none" fill="#666666" fill-opacity="1.0" font-size="5.0e-2" text-anchor="end"><text x="-1.2309678118201535" y="-0.4855">4.0e-3</text></g><g stroke-width="0.0" stroke="#2C429D" fill="#5F0391" fill-opacity="1.0" stroke-opacity="0.4"><line stroke-width="5.0e-3" transform="rotate(-90.0, -1.2008928118201536, 0.5)" x1="-1.2008928118201536" y1="0.515" x2="-1.2008928118201536" y2="0.485" /><line stroke-width="5.0e-3" transform="rotate(-90.0, -1.2008928118201536, 0.33333333333333337)" x1="-1.2008928118201536" y1="0.3483333333333334" x2="-1.2008928118201536" y2="0.31833333333333336" /><line stroke-width="5.0e-3" transform="rotate(-90.0, -1.2008928118201536, 0.16666666666666669)" x1="-1.2008928118201536" y1="0.1816666666666667" x2="-1.2008928118201536" y2="0.15166666666666667" /><line stroke-width="5.0e-3" transform="rotate(-90.0, -1.2008928118201536, -0.0)" x1="-1.2008928118201536" y1="1.5e-2" x2="-1.2008928118201536" y2="-1.5e-2" /><line stroke-width="5.0e-3" transform="rotate(-90.0, -1.2008928118201536, -0.16666666666666663)" x1="-1.2008928118201536" y1="-0.15166666666666662" x2="-1.2008928118201536" y2="-0.18166666666666664" /><line stroke-width="5.0e-3" transform="rotate(-90.0, -1.2008928118201536, -0.33333333333333337)" x1="-1.2008928118201536" y1="-0.31833333333333336" x2="-1.2008928118201536" y2="-0.3483333333333334" /><line stroke-width="5.0e-3" transform="rotate(-90.0, -1.2008928118201536, -0.5)" x1="-1.2008928118201536" y1="-0.485" x2="-1.2008928118201536" y2="-0.515" /></g><g stroke-width="0.0" stroke="#666666" fill="#5F0391" fill-opacity="0.5" stroke-opacity="0.0"><rect width="4.999999999999893e-3" height="1.0" x="-1.1908928118201536" y="-0.5" /></g><g stroke-width="5.0e-3" stroke="#A8E5EE" fill="none" stroke-opacity="0.3"><polyline points="-1.0,0.505 -1.0,-0.505" /></g><g stroke-width="5.0e-3" stroke="#A8E5EE" fill="none" stroke-opacity="0.3"><polyline points="-0.871743486973948,0.505 -0.871743486973948,-0.505" /></g><g stroke-width="5.0e-3" stroke="#A8E5EE" fill="none" stroke-opacity="0.3"><polyline points="-0.6152304609218437,0.505 -0.6152304609218437,-0.505" /></g><g stroke-width="5.0e-3" stroke="#A8E5EE" fill="none" stroke-opacity="0.3"><polyline points="-0.36272545090180375,0.505 -0.36272545090180375,-0.505" /></g><g stroke-width="5.0e-3" stroke="#A8E5EE" fill="none" stroke-opacity="0.3"><polyline points="-0.11022044088176364,0.505 -0.11022044088176364,-0.505" /></g><g stroke-width="5.0e-3" stroke="#A8E5EE" fill="none" stroke-opacity="0.3"><polyline points="0.1342685370741481,0.505 0.1342685370741481,-0.505" /></g><g stroke-width="5.0e-3" stroke="#A8E5EE" fill="none" stroke-opacity="0.3"><polyline points="0.3867735470941882,0.505 0.3867735470941882,-0.505" /></g><g stroke-width="5.0e-3" stroke="#A8E5EE" fill="none" stroke-opacity="0.3"><polyline points="0.6432865731462925,0.505 0.6432865731462925,-0.505" /></g><g stroke-width="5.0e-3" stroke="#A8E5EE" fill="none" stroke-opacity="0.3"><polyline points="0.8997995991983965,0.505 0.8997995991983965,-0.505" /></g><g stroke-width="5.0e-3" stroke="#A8E5EE" fill="none" stroke-opacity="0.3"><polyline points="0.9999999999999998,0.505 0.9999999999999998,-0.505" /></g><g stroke-width="0.0" stroke="none" fill="#666666" fill-opacity="1.0" font-size="5.0e-2" text-anchor="end"><text transform="rotate(-45.0, -1.0, 0.6062500000000001)" x="-1.0" y="0.6062500000000001">12 Feb 2018</text></g><g stroke-width="0.0" stroke="none" fill="#666666" fill-opacity="1.0" font-size="5.0e-2" text-anchor="end"><text transform="rotate(-45.0, -0.871743486973948, 0.6062500000000001)" x="-0.871743486973948" y="0.6062500000000001">31 Mar 2018</text></g><g stroke-width="0.0" stroke="none" fill="#666666" fill-opacity="1.0" font-size="5.0e-2" text-anchor="end"><text transform="rotate(-45.0, -0.6152304609218437, 0.6062500000000001)" x="-0.6152304609218437" y="0.6062500000000001">30 Jun 2018</text></g><g stroke-width="0.0" stroke="none" fill="#666666" fill-opacity="1.0" font-size="5.0e-2" text-anchor="end"><text transform="rotate(-45.0, -0.36272545090180375, 0.6062500000000001)" x="-0.36272545090180375" y="0.6062500000000001">30 Sep 2018</text></g><g stroke-width="0.0" stroke="none" fill="#666666" fill-opacity="1.0" font-size="5.0e-2" text-anchor="end"><text transform="rotate(-45.0, -0.11022044088176364, 0.6062500000000001)" x="-0.11022044088176364" y="0.6062500000000001">31 Dec 2018</text></g><g stroke-width="0.0" stroke="none" fill="#666666" fill-opacity="1.0" font-size="5.0e-2" text-anchor="end"><text transform="rotate(-45.0, 0.1342685370741481, 0.6062500000000001)" x="0.1342685370741481" y="0.6062500000000001">31 Mar 2019</text></g><g stroke-width="0.0" stroke="none" fill="#666666" fill-opacity="1.0" font-size="5.0e-2" text-anchor="end"><text transform="rotate(-45.0, 0.3867735470941882, 0.6062500000000001)" x="0.3867735470941882" y="0.6062500000000001">30 Jun 2019</text></g><g stroke-width="0.0" stroke="none" fill="#666666" fill-opacity="1.0" font-size="5.0e-2" text-anchor="end"><text transform="rotate(-45.0, 0.6432865731462925, 0.6062500000000001)" x="0.6432865731462925" y="0.6062500000000001">30 Sep 2019</text></g><g stroke-width="0.0" stroke="none" fill="#666666" fill-opacity="1.0" font-size="5.0e-2" text-anchor="end"><text transform="rotate(-45.0, 0.8997995991983965, 0.6062500000000001)" x="0.8997995991983965" y="0.6062500000000001">31 Dec 2019</text></g><g stroke-width="0.0" stroke="none" fill="#666666" fill-opacity="1.0" font-size="5.0e-2" text-anchor="end"><text transform="rotate(-45.0, 0.9999999999999998, 0.6062500000000001)" x="0.9999999999999998" y="0.6062500000000001">06 Feb 2020</text></g><g stroke-width="0.0" stroke="#2C429D" fill="#5F0391" fill-opacity="1.0" stroke-opacity="0.4"><line stroke-width="5.0e-3" x1="-1.0" y1="0.54" x2="-1.0" y2="0.51" /><line stroke-width="5.0e-3" x1="-0.871743486973948" y1="0.54" x2="-0.871743486973948" y2="0.51" /><line stroke-width="5.0e-3" x1="-0.6152304609218437" y1="0.54" x2="-0.6152304609218437" y2="0.51" /><line stroke-width="5.0e-3" x1="-0.36272545090180375" y1="0.54" x2="-0.36272545090180375" y2="0.51" /><line stroke-width="5.0e-3" x1="-0.11022044088176364" y1="0.54" x2="-0.11022044088176364" y2="0.51" /><line stroke-width="5.0e-3" x1="0.1342685370741481" y1="0.54" x2="0.1342685370741481" y2="0.51" /><line stroke-width="5.0e-3" x1="0.3867735470941882" y1="0.54" x2="0.3867735470941882" y2="0.51" /><line stroke-width="5.0e-3" x1="0.6432865731462925" y1="0.54" x2="0.6432865731462925" y2="0.51" /><line stroke-width="5.0e-3" x1="0.8997995991983965" y1="0.54" x2="0.8997995991983965" y2="0.51" /><line stroke-width="5.0e-3" x1="0.9999999999999998" y1="0.54" x2="0.9999999999999998" y2="0.51" /></g><g stroke-width="0.0" stroke="#666666" fill="#5F0391" fill-opacity="0.5" stroke-opacity="0.0"><rect width="1.9999999999999998" height="5.0000000000000044e-3" x="-1.0" y="0.51" /></g><g stroke-width="5.0e-3" stroke="#C58C4B" fill="none" stroke-opacity="0.5"><polyline points="-1.0,-0.16666666666666663 0.9999999999999998,-0.16666666666666663" /></g><g stroke-width="5.0e-3" stroke="#3C7F2B" fill="none" stroke-opacity="0.5"><polyline points="-1.0,-6.070316834865397e-2 -0.9959919839679359,-7.693849499165017e-2 -0.9919839679358717,-0.1371396222257466 -0.9879759519038076,-0.1886877655837529 -0.9839679358717435,-0.18916367410490353 -0.9799599198396793,-0.16361890959247483 -0.9759519038076152,-0.1407573128687727 -0.9719438877755511,-0.14609551307696533 -0.9679358717434869,-0.2134318981024279 -0.9639278557114228,-0.25980039071665884 -0.9599198396793587,-0.20201230241104895 -0.9559118236472945,-0.15375069339255087 -0.9519038076152304,-9.836486663386268e-2 -0.9478957915831663,-0.12286791715629097 -0.9438877755511023,-0.17079978424758813 -0.9398797595190381,-0.18158266482235697 -0.935871743486974,-0.1788344343332947 -0.9318637274549099,-0.1967959127276221 -0.9278557114228457,-0.26705079649649943 -0.9238476953907816,-0.25683506419102375 -0.9198396793587175,-0.22586548305934506 -0.9158316633266533,-0.19906161721598337 -0.9118236472945892,-0.1942159861502759 -0.9078156312625251,-0.19995988950835886 -0.9038076152304609,-0.13865949536199962 -0.8997995991983968,-0.14621759104937293 -0.8957915831663327,-0.1395159807594415 -0.8917835671342685,-3.4401379804185006e-2 -0.8877755511022044,4.756021962572582e-2 -0.8837675350701403,-7.495892858113506e-2 -0.8797595190380761,-6.844216300120443e-3 -0.875751503006012,-2.5709721955913256e-3 -0.8717434869739479,-6.754897576054675e-2 -0.8677354709418837,2.1565524190882812e-2 -0.8637274549098196,-3.977770475210085e-2 -0.8597194388777555,-9.382083247830797e-2 -0.8557114228456915,-0.12586205351370428 -0.8517034068136273,-3.560878469928774e-2 -0.8476953907815632,-5.5863430708778306e-2 -0.8436873747494991,-0.1303185786954415 -0.8396793587174349,-0.10901090192014662 -0.8356713426853708,-0.14607091606640643 -0.8316633266533067,-0.13502634811024683 -0.8276553106212425,-0.17025951225105596 -0.8236472945891784,-0.2143701032609645 -0.8196392785571143,-0.2154972635772835 -0.8156312625250501,-0.18911901999392677 -0.811623246492986,-0.15226068726769915 -0.8076152304609219,-0.15320021372808212 -0.8036072144288577,-9.774540507041862e-2 -0.7995991983967936,-0.10875193257007698 -0.7955911823647295,-0.15482305477662583 -0.7915831663326653,-0.16004374855303138 -0.7875751503006012,-0.12610439395958195 -0.7835671342685371,-0.13869185800672013 -0.779559118236473,-0.10993796055803695 -0.7755511022044088,-0.10331805488678492 -0.7715430861723447,-0.15943979067015257 -0.7675350701402806,-0.17419565099807455 -0.7635270541082164,-0.17271905819425637 -0.7595190380761523,-0.21265045912816005 -0.7555110220440882,-0.24936221749151333 -0.751503006012024,-0.25240643632975934 -0.7474949899799599,-0.2518597403220547 -0.7434869739478958,-0.21901973994114043 -0.7394789579158316,-0.23334423850527164 -0.7354709418837675,-0.22650035864291562 -0.7314629258517034,-0.21258445325976605 -0.7274549098196392,-0.24098707156431098 -0.7234468937875751,-0.22426347681432124 -0.719438877755511,-0.23493957340592742 -0.7154308617234469,-0.22316552087446695 -0.7114228456913828,-0.21057740984077267 -0.7074148296593187,-0.15997494992464245 -0.7034068136272545,-0.21287037686078258 -0.6993987975951904,-0.18186289065668515 -0.6953907815631263,-0.22605613008951242 -0.6913827655310621,-0.24174237390106867 -0.687374749498998,-0.24098900108212895 -0.6833667334669339,-0.2727837267427605 -0.6793587174348698,-0.2646215370881094 -0.6753507014028056,-0.27276479566402034 -0.6713426853707415,-0.27199542054788595 -0.6673346693386774,-0.27405231371265104 -0.6633266533066133,-0.25210553993445595 -0.6593186372745492,-0.2581637438951827 -0.6553106212424851,-0.24948083643049512 -0.6513026052104209,-0.23660684535759657 -0.6472945891783568,-0.2164193481218285 -0.6432865731462927,-0.22110940080588148 -0.6392785571142285,-0.19187969552460793 -0.6352705410821644,-0.19841895115830877 -0.6312625250501003,-0.13894104703767762 -0.6272545090180361,-0.14958608529686035 -0.623246492985972,-0.11411471985263888 -0.6192384769539079,-0.14265333915205436 -0.6152304609218437,-0.14702020075124955 -0.6112224448897796,-0.1608150416683899 -0.6072144288577155,-0.14035177949870858 -0.6032064128256514,-0.17754490404277046 -0.5991983967935872,-0.2122040802808216 -0.5951903807615231,-0.24648278004336444 -0.591182364729459,-0.2569534502060541 -0.5871743486973948,-0.22301297129519193 -0.5831663326653307,-0.256422850413239 -0.5791583166332666,-0.2565045929379568 -0.5751503006012024,-0.24785859110282427 -0.5711422845691383,-0.2603151340214326 -0.5671342685370742,-0.2646642709435181 -0.56312625250501,-0.24350930127157955 -0.5591182364729459,-0.23582531391821282 -0.5551102204408818,-0.24006844251435044 -0.5511022044088176,-0.2562394032391965 -0.5470941883767535,-0.28923865036973306 -0.5430861723446894,-0.27080475319072495 -0.5390781563126252,-0.23852878976628422 -0.5350701402805611,-0.21097505397984262 -0.531062124248497,-0.22913950136482608 -0.5270541082164328,-0.22174594657833313 -0.5230460921843687,-0.23950913469207447 -0.5190380761523046,-0.2551640805873362 -0.5150300601202404,-0.2654469553768797 -0.5110220440881764,-0.2722643464178208 -0.5070140280561123,-0.2660629968462017 -0.5030060120240482,-0.2552868628715912 -0.498997995991984,-0.22128926749936384 -0.4949899799599199,-0.20175261034824177 -0.49098196392785576,-0.22674454875792294 -0.4869739478957916,-0.1917951299245697 -0.4829659318637275,-0.22367323064223776 -0.47895791583166336,-0.23471326162656914 -0.47494989979959923,-0.24147455547575392 -0.4709418837675351,-0.24640488314970344 -0.46693386773547096,-0.24087042281428073 -0.46292585170340683,-0.2302070119444366 -0.4589178356713427,-0.2527806078487015 -0.45490981963927857,-0.2800909265533741 -0.45090180360721444,-0.2757136739565159 -0.4468937875751503,-0.29370818817386424 -0.44288577154308617,-0.26943827158444444 -0.43887775551102204,-0.26501458415393486 -0.434869739478958,-0.2533967604724764 -0.4308617234468939,-0.23748345740825405 -0.42685370741482975,-0.21864983419090533 -0.4228456913827656,-0.20670843242143444 -0.4188376753507015,-0.21273634757020876 -0.41482965931863736,-0.22617253734778897 -0.4108216432865732,-0.22473706066483468 -0.4068136272545091,-0.2438942885955031 -0.40280561122244496,-0.24127277449849305 -0.3987975951903808,-0.21423686652477147 -0.3947895791583167,-0.23436610387365386 -0.39078156312625256,-0.23627745015919177 -0.38677354709418843,-0.26523612245522965 -0.3827655310621243,-0.2589559435598979 -0.37875751503006017,-0.23988987914336335 -0.37474949899799603,-0.2308539696482934 -0.3707414829659319,-0.21384340677575542 -0.36673346693386777,-0.2231356574496367 -0.36272545090180364,-0.22032105031520988 -0.3587174348697395,-0.2329179856941188 -0.35470941883767537,-0.2280121909929964 -0.35070140280561124,-0.22797761547811868 -0.3466933867735471,-0.1903283293445206 -0.342685370741483,-0.16546078530786779 -0.33867735470941884,-0.1638240061535109 -0.3346693386773547,-0.1578747090621032 -0.3306613226452907,-1.7945044353910533e-2 -0.32665330661322656,6.212341943689309e-2 -0.3226452905811624,-9.622629117240433e-3 -0.3186372745490983,7.257115759296939e-3 -0.31462925851703416,-9.046624724843788e-2 -0.31062124248497003,-9.316782553527125e-2 -0.3066132264529059,-3.6359660884765055e-2 -0.30260521042084176,-4.131240205996023e-2 -0.29859719438877763,-2.9587946964306777e-2 -0.2945891783567135,-1.341159262834446e-2 -0.29058116232464937,0.10915295507656247 -0.28657314629258523,1.91074563270745e-2 -0.2825651302605211,8.232947236696836e-2 -0.27855711422845697,9.713841578790855e-2 -0.27454909819639284,2.009446201776449e-2 -0.2705410821643287,-3.373334260734151e-2 -0.2665330661322646,-8.388040789393636e-2 -0.26252505010020044,-6.156529341545047e-2 -0.2585170340681363,-8.99520526733415e-2 -0.2545090180360722,-0.11973915630100218 -0.25050100200400804,-0.20986529832300294 -0.2464929859719439,-0.19717625050857857 -0.24248496993987978,-0.1569572715153411 -0.23847695390781565,-7.44222699072431e-2 -0.23446893787575152,-7.27660576729795e-2 -0.2304609218436875,-4.5786751100122314e-2 -0.22645290581162336,-9.550408979424307e-2 -0.22244488977955923,-0.10824386742901537 -0.2184368737474951,-4.125811452862693e-2 -0.21442885771543096,2.852949487159434e-2 -0.21042084168336683,6.440220347393888e-3 -0.2064128256513027,2.5170703397683125e-2 -0.20240480961923857,-4.7960077138959334e-2 -0.19839679358717444,-6.730101719958514e-2 -0.1943887775551103,-0.1670499608518795 -0.19038076152304617,-0.1578660737271862 -0.18637274549098204,-0.19243408236664794 -0.1823647294589179,-0.23688591374354073 -0.17835671342685377,-9.556870483855873e-2 -0.17434869739478964,-9.269730379112706e-2 -0.1703406813627255,1.7873919753950696e-3 -0.16633266533066138,-1.3729485616585935e-2 -0.16232464929859725,-1.9707288291879066e-2 -0.1583166332665331,-4.9314819996366e-2 -0.15430861723446898,-5.420839446902448e-2 -0.15030060120240485,2.027500305654434e-2 -0.14629258517034072,9.787134662079566e-2 -0.14228456913827658,8.460920451012371e-2 -0.13827655310621245,0.1361146997118472 -0.13426853707414832,0.186327205457468 -0.1302605210420842,0.25367456040184894 -0.12625250501002017,0.3442819310108653 -0.12224448897795603,0.12442450633512209 -0.1182364729458919,7.500380326591494e-2 -0.11422845691382777,6.837231220790724e-2 -0.11022044088176364,2.1784966029668063e-2 -0.1062124248496995,7.283578464966467e-3 -0.10220440881763537,0.10291695804500994 -9.819639278557124e-2,-5.059844952109005e-2 -9.418837675350711e-2,-8.559742377826984e-2 -9.018036072144298e-2,-0.1301540200206992 -8.617234468937884e-2,-0.14919149605339366 -8.216432865731471e-2,-0.1690652109968106 -7.815631262525058e-2,-0.1683291246411347 -7.414829659318645e-2,-0.14604511459156788 -7.014028056112231e-2,-0.19195511246796082 -6.613226452905818e-2,-0.2000511571112451 -6.212424849699405e-2,-0.23027228040341075 -5.811623246492992e-2,-0.28235510362470995 -5.4108216432865786e-2,-0.21632892876686827 -5.010020040080165e-2,-0.2231045122398888 -4.609218436873752e-2,-0.22606930711173612 -4.208416833667339e-2,-0.2586124879341588 -3.8076152304609256e-2,-0.22093522701006763 -3.4068136272545124e-2,-0.21213568916941283 -3.0060120240480992e-2,-0.2745070196882129 -2.605210420841686e-2,-0.3050160989325671 -2.204408817635284e-2,-0.3018486791592302 -1.8036072144288706e-2,-0.32335254934543944 -1.4028056112224574e-2,-0.3351385569815565 -1.0020040080160442e-2,-0.3173942610944087 -6.012024048096309e-3,-0.27068430879652516 -2.004008016032177e-3,-0.2683492142878411 2.004008016031955e-3,-0.26626906380327464 6.012024048096087e-3,-0.314640158216554 1.002004008016022e-2,-0.31984159913453547 1.4028056112224352e-2,-0.30122330524421115 1.8036072144288484e-2,-0.3394631070808468 2.2044088176352616e-2,-0.3370929485037564 2.605210420841675e-2,-0.33599521478671013 3.006012024048088e-2,-0.3130260792713351 3.406813627254501e-2,-0.3322314829095486 3.8076152304609145e-2,-0.32914223339074367 4.208416833667328e-2,-0.317873418268258 4.609218436873741e-2,-0.30818297537123185 5.010020040080154e-2,-0.28952825545090966 5.4108216432865675e-2,-0.3119148605801363 5.811623246492981e-2,-0.2887241939964248 6.212424849699394e-2,-0.27802987752247244 6.613226452905807e-2,-0.24536092097635842 7.01402805611222e-2,-0.207388263955407 7.414829659318634e-2,-0.19640192801561118 7.815631262525047e-2,-0.25593679636460587 8.21643286573146e-2,-0.2638094529700765 8.617234468937873e-2,-0.2877855368923631 9.018036072144286e-2,-0.27825137371395847 9.4188376753507e-2,-0.2933769231002815 9.819639278557113e-2,-0.3024547936901155 0.10220440881763526,-0.2952735120571126 0.1062124248496994,-0.2767820865489178 0.11022044088176353,-0.3160673829821703 0.11422845691382766,-0.2294264552695282 0.11823647294589179,-0.22280400624943708 0.12224448897795592,-0.24999945970266813 0.12625250501002006,-0.22643907236663807 0.13026052104208397,-0.23849205459904288 0.1342685370741481,-0.26297174978670046 0.13827655310621223,-0.30598289714543425 0.14228456913827636,-0.2992696107635755 0.1462925851703405,-0.3016737930838548 0.15030060120240463,-0.3036952477355016 0.15430861723446876,-0.3160925408115415 0.1583166332665329,-0.31313868519459476 0.16232464929859702,-0.2808859018523515 0.16633266533066116,-0.2897110329502235 0.1703406813627253,-0.28386116724535915 0.17434869739478942,-0.3054189276995056 0.17835671342685355,-0.2960731491403089 0.18236472945891768,-0.2918735367183112 0.18637274549098182,-0.2763081119733072 0.19038076152304595,-0.27750409441929125 0.19438877755511008,-0.27628279091060837 0.1983967935871742,-0.307426550591134 0.20240480961923835,-0.2915438807801658 0.20641282565130248,-0.2839192575426195 0.2104208416833666,-0.2975778738803968 0.21442885771543074,-0.29563587654160184 0.21843687374749488,-0.2932911984237577 0.222444889779559,-0.2556743277993737 0.22645290581162314,-0.24225275227510368 0.23046092184368727,-0.27890515016956785 0.2344689378757514,-0.2546375217000387 0.23847695390781554,-0.17970512376908288 0.24248496993987967,-0.17213723510802448 0.2464929859719438,-0.15884956938880113 0.25050100200400793,-0.17523191655811865 0.25450901803607207,-7.11703762516539e-2 0.2585170340681362,-0.11044441896819135 0.26252505010020033,-0.13805425099375113 0.26653306613226446,-0.17687125539204474 0.2705410821643286,-0.1517516512745135 0.2745490981963927,-0.1239598548206392 0.27855711422845686,-0.16175446081885891 0.282565130260521,-0.15012460492514657 0.2865731462925851,-0.10058153468358955 0.29058116232464926,-0.10959991876419883 0.2945891783567134,-7.710099542996096e-2 0.2985971943887775,-5.2455352225632024e-2 0.30260521042084165,-6.706081103146722e-2 0.3066132264529058,-1.6456512950807745e-2 0.3106212424849699,-1.2528090490805277e-2 0.31462925851703405,-0.10877380299297645 0.3186372745490982,-0.14549119252867482 0.3226452905811623,-0.17201684030922892 0.32665330661322645,-0.21527006980651175 0.3306613226452906,-0.2322509468622711 0.3346693386773545,-0.22756455849926094 0.3386773547094186,-0.21607610297165425 0.34268537074148275,-0.23067174566761417 0.3466933867735469,-0.220812846825847 0.350701402805611,-0.22202852351914482 0.35470941883767515,-0.2595283190372899 0.3587174348697393,-0.267331249536673 0.3627254509018034,-0.30146605679133875 0.36673346693386755,-0.28959205931923293 0.3707414829659317,-0.2763685881239858 0.3747494989979958,-0.2314521545772349 0.37875751503005994,-0.22314192719448278 0.3827655310621241,-0.23623684817098756 0.3867735470941882,-0.25665419307703863 0.39078156312625234,-0.2838828852349914 0.3947895791583165,-0.2902017578032705 0.3987975951903806,-0.3156204637375112 0.40280561122244474,-0.30090910635131884 0.40681362725450887,-0.27441115716727305 0.410821643286573,-0.27424708744891546 0.41482965931863713,-0.28755424972273125 0.41883767535070127,-0.2910426650801903 0.4228456913827654,-0.30390011653680715 0.42685370741482953,-0.2979372040302961 0.43086172344689366,-0.27755542188096594 0.4348697394789578,-0.2450194831912117 0.4388777555110219,-0.25605518550959494 0.44288577154308606,-0.22584413940400316 0.4468937875751502,-0.23475137914862765 0.4509018036072143,-0.259853901414301 0.45490981963927846,-0.27466635095099745 0.4589178356713426,-0.24754757089825674 0.4629258517034067,-0.2741581705404008 0.46693386773547085,-0.26222991297750775 0.470941883767535,-0.24682380123396397 0.4749498997995991,-0.1969652220187068 0.47895791583166325,-0.1571213471888394 0.4829659318637274,-0.12643123447423543 0.4869739478957915,-9.480066479478078e-4 0.49098196392785565,-6.481031804510595e-2 0.4949899799599198,-7.320276657978553e-2 0.4989979959919839,-0.15598772441369646 0.503006012024048,-0.12875278286314928 0.5070140280561122,-7.874334903704572e-2 0.5110220440881763,-0.1459589714092473 0.5150300601202404,-2.2786686157437286e-2 0.5190380761523046,-4.023572438088818e-2 0.5230460921843687,-0.10626105134624331 0.5270541082164328,-0.15938081191040232 0.531062124248497,-0.12662173421402456 0.5350701402805611,-0.16280783520256958 0.539078156312625,-0.16088720126384526 0.5430861723446891,-5.161484680187578e-2 0.5470941883767533,-0.10277389317451968 0.5511022044088174,-9.253725503574206e-2 0.5551102204408815,-0.12333690357967053 0.5591182364729457,-0.1779813790607686 0.5631262525050098,-0.1801065880659516 0.5671342685370739,-0.1506013548431131 0.5711422845691381,-0.1963246431479232 0.5751503006012022,-0.24875687315147976 0.5791583166332663,-0.24852172750823787 0.5831663326653305,-0.24411477964863237 0.5871743486973946,-0.24166064373132456 0.5911823647294587,-0.2679752605756275 0.5951903807615229,-0.2749620202078289 0.599198396793587,-0.2666334660261531 0.6032064128256511,-0.24867868451804143 0.6072144288577153,-0.25538286983247516 0.6112224448897794,-0.2524640965112871 0.6152304609218435,-0.24834919716485648 0.6192384769539077,-0.22395267906731886 0.6232464929859718,-0.22074768935821165 0.6272545090180359,-0.18288928315954978 0.6312625250501,-0.20769267144792092 0.6352705410821642,-0.19555215095299738 0.6392785571142283,-0.17189897171566382 0.6432865731462925,-0.19265223482577876 0.6472945891783566,-0.13988307317676452 0.6513026052104207,-6.559777174630577e-2 0.6553106212424848,-0.10388637694267899 0.659318637274549,-0.16591952255997322 0.6633266533066131,-0.14723863113059021 0.6673346693386772,-8.274123297714309e-2 0.6713426853707414,-0.12469916379549328 0.6753507014028055,-0.15341635807502574 0.6793587174348696,-0.19939610618351322 0.6833667334669338,-0.19201466960137326 0.6873747494989979,-0.23203188047689827 0.691382765531062,-0.220502531973089 0.6953907815631262,-0.2293541785295079 0.6993987975951903,-0.20994545480891524 0.7034068136272544,-0.23632935829231372 0.7074148296593186,-0.21805253983420247 0.7114228456913827,-0.22737083185323714 0.7154308617234468,-0.2323834148699535 0.719438877755511,-0.24606323557620668 0.7234468937875751,-0.2652839119451592 0.7274549098196392,-0.25700848770499307 0.7314629258517034,-0.26605708615767554 0.7354709418837675,-0.24865746029650182 0.7394789579158316,-0.2844892647748185 0.7434869739478958,-0.29399477909396243 0.7474949899799597,-0.28288388297290035 0.7515030060120238,-0.28011188039384305 0.7555110220440879,-0.2858230504197409 0.7595190380761521,-0.29054516198351554 0.7635270541082162,-0.2764296031421659 0.7675350701402803,-0.27753067781539253 0.7715430861723445,-0.2750662748633479 0.7755511022044086,-0.2732400953460825 0.7795591182364727,-0.2996002997088819 0.7835671342685369,-0.2952098259629622 0.787575150300601,-0.28654629709937407 0.7915831663326651,-0.26522981090108533 0.7955911823647293,-0.25385238120115405 0.7995991983967934,-0.25861135080513453 0.8036072144288575,-0.28505009277306503 0.8076152304609217,-0.288312938361 0.8116232464929858,-0.2994759543964114 0.8156312625250499,-0.27660476482424645 0.819639278557114,-0.23520880915796205 0.8236472945891782,-0.20371863329079465 0.8276553106212423,-0.22854001182478778 0.8316633266533064,-0.23177881053028204 0.8356713426853706,-0.26654046565880796 0.8396793587174347,-0.24851016404714843 0.8436873747494988,-0.23991190081144187 0.847695390781563,-0.24844892897505688 0.8517034068136271,-0.27988117467556883 0.8557114228456912,-0.2746926603190831 0.8597194388777554,-0.29874901132948095 0.8637274549098195,-0.29375065543416445 0.8677354709418836,-0.2858426200111207 0.8717434869739478,-0.2983259390895797 0.8757515030060119,-0.31207998491409006 0.879759519038076,-0.30861649897327714 0.8837675350701402,-0.30101140038352137 0.8877755511022043,-0.315344938559471 0.8917835671342684,-0.30837348797413466 0.8957915831663326,-0.2778205809302192 0.8997995991983967,-0.2845934318502552 0.9038076152304608,-0.31313833293430937 0.907815631262525,-0.27702504144273743 0.9118236472945891,-0.2862877681158077 0.9158316633266532,-0.2687760653919705 0.9198396793587174,-0.28415843129927687 0.9238476953907815,-0.30579661854942375 0.9278557114228456,-0.2873356489955292 0.9318637274549098,-0.31010453981124264 0.9358717434869739,-0.296997107033408 0.939879759519038,-0.2983864310609947 0.9438877755511021,-0.32607998352200307 0.9478957915831663,-0.3340169566196548 0.9519038076152302,-0.3153545596209779 0.9559118236472943,-0.3093960176486291 0.9599198396793585,-0.30719428425447204 0.9639278557114226,-0.26245773365682634 0.9679358717434867,-0.1899193344882969 0.9719438877755509,-0.2319233226751668 0.975951903807615,-0.22495808817132068 0.9799599198396791,-0.2353520732046651 0.9839679358717432,-0.1559153311795396 0.9879759519038074,-0.18753349238084616 0.9919839679358715,-0.24935454483346065 0.9959919839679356,-0.2918989291089247 0.9999999999999998,-0.29955689973124777" /></g><g stroke-width="5.0e-3" stroke="#382A8C" fill="none" stroke-opacity="0.5"><polyline points="-1.0,-0.20056044096927172 -0.9959919839679359,-0.20241616573575993 -0.9919839679358717,-0.21325395780766987 -0.9879759519038076,-0.22286089638948248 -0.9839679358717435,-0.2226111131831363 -0.9799599198396793,-0.21713288521164087 -0.9759519038076152,-0.2119973964453462 -0.9719438877755511,-0.21236001731999954 -0.9679358717434869,-0.2252486133589917 -0.9639278557114228,-0.23445766672780166 -0.9599198396793587,-0.22306177205818456 -0.9559118236472945,-0.2131334086405421 -0.9519038076152304,-0.20139683107306372 -0.9478957915831663,-0.20530043897211891 -0.9438877755511023,-0.2141276241642196 -0.9398797595190381,-0.21586360363361268 -0.935871743486974,-0.21496444507773416 -0.9318637274549099,-0.21821653303446908 -0.9278557114228457,-0.23213936252406198 -0.9238476953907816,-0.23041727796012546 -0.9198396793587175,-0.22443202961567865 -0.9158316633266533,-0.2190416951619465 -0.9118236472945892,-0.21786131659590469 -0.9078156312625251,-0.21877578354731864 -0.9038076152304609,-0.20625109329425417 -0.8997995991983968,-0.20709724812597763 -0.8957915831663327,-0.20514217916477295 -0.8917835671342685,-0.18333931034743356 -0.8877755511022044,-0.16533507209499587 -0.8837675350701403,-0.18790973624548246 -0.8797595190380761,-0.1730448399358624 -0.875751503006012,-0.1705228709943204 -0.8717434869739479,-0.18198786613193896 -0.8677354709418837,-0.1628405762839611 -0.8637274549098196,-0.17342640932385733 -0.8597194388777555,-0.1830234868008851 -0.8557114228456915,-0.1886025654183009 -0.8517034068136273,-0.16976872038602187 -0.8476953907815632,-0.1725370839059539 -0.8436873747494991,-0.1864106540587258 -0.8396793587174349,-0.18156217757320725 -0.8356713426853708,-0.18830899062635564 -0.8316633266533067,-0.18566654174721364 -0.8276553106212425,-0.19225118617028347 -0.8236472945891784,-0.20088541033210572 -0.8196392785571143,-0.201239234844377 -0.8156312625250501,-0.19608058352437951 -0.811623246492986,-0.1885982634879696 -0.8076152304609219,-0.1884256154580003 -0.8036072144288577,-0.17690733587074436 -0.7995991983967936,-0.17834483898811204 -0.7955911823647295,-0.1869353373524264 -0.7915831663326653,-0.1876654375842407 -0.7875751503006012,-0.18056108279503047 -0.7835671342685371,-0.18255700028931487 -0.779559118236473,-0.1763319498532393 -0.7755511022044088,-0.17434206535917163 -0.7715430861723447,-0.18494205493466687 -0.7675350701402806,-0.1876523525389715 -0.7635270541082164,-0.18721952920733798 -0.7595190380761523,-0.19508651767506424 -0.7555110220440882,-0.20261130943802885 -0.751503006012024,-0.20367986805227412 -0.7474949899799599,-0.20404889527382242 -0.7434869739478958,-0.19792878342325637 -0.7394789579158316,-0.2010082476385756 -0.7354709418837675,-0.19994827042837926 -0.7314629258517034,-0.19740933620484036 -0.7274549098196392,-0.20326137616213547 -0.7234468937875751,-0.20026758068205008 -0.719438877755511,-0.20264548988633402 -0.7154308617234469,-0.20059131632658145 -0.7114228456913828,-0.19827725767547177 -0.7074148296593187,-0.18822346682969215 -0.7034068136272545,-0.1985698289274448 -0.6993987975951904,-0.19247313205340455 -0.6953907815631263,-0.2012456397175325 -0.6913827655310621,-0.20463860703969028 -0.687374749498998,-0.20484666062784807 -0.6833667334669339,-0.21159741015770595 -0.6793587174348698,-0.21055175818844596 -0.6753507014028056,-0.21272203100061726 -0.6713426853707415,-0.2131549149241031 -0.6673346693386774,-0.21414636844311652 -0.6633266533066133,-0.21030145964864477 -0.6593186372745492,-0.21192877781824526 -0.6553106212424851,-0.2106266737739756 -0.6513026052104209,-0.20840911163085607 -0.6472945891783568,-0.20462233681385145 -0.6432865731462927,-0.20567346785925245 -0.6392785571142285,-0.19996133993349385 -0.6352705410821644,-0.20118439993584913 -0.6312625250501003,-0.18927806728845242 -0.6272545090180361,-0.19089507363541236 -0.623246492985972,-0.18341892111403157 -0.6192384769539079,-0.18840828345900817 -0.6152304609218437,-0.18882535319541238 -0.6112224448897796,-0.19116723472200847 -0.6072144288577155,-0.18677180988424236 -0.6032064128256514,-0.1937535298013956 -0.5991983967935872,-0.20054530731720976 -0.5951903807615231,-0.20754812089516506 -0.591182364729459,-0.21003649491900034 -0.5871743486973948,-0.2036560066785742 -0.5831663326653307,-0.21056416801181466 -0.5791583166332666,-0.21102709942847708 -0.5751503006012024,-0.2097255703598616 -0.5711422845691383,-0.21260774548091965 -0.5671342685370742,-0.21395141339376855 -0.56312625250501,-0.21017288366098774 -0.5591182364729459,-0.20894650444699103 -0.5551102204408818,-0.21005832446590966 -0.5511022044088176,-0.21360769299623816 -0.5470941883767535,-0.22070056961379048 -0.5430861723446894,-0.21762846870737607 -0.5390781563126252,-0.21162548634171052 -0.5350701402805611,-0.2063581847778464 -0.531062124248497,-0.21003167794630018 -0.5270541082164328,-0.20873005624432706 -0.5230460921843687,-0.21241355901262227 -0.5190380761523046,-0.21582452682095943 -0.5150300601202404,-0.2182814481518489 -0.5110220440881764,-0.2201195682250212 -0.5070140280561123,-0.21936814050148967 -0.5030060120240482,-0.21763960666888593 -0.498997995991984,-0.2111740632235063 -0.4949899799599199,-0.20737890030045525 -0.49098196392785576,-0.21229013037425304 -0.4869739478957916,-0.20546389244415453 -0.4829659318637275,-0.2116632351559895 -0.47895791583166336,-0.2139834212428705 -0.47494989979959923,-0.21553526000425582 -0.4709418837675351,-0.21677215089455792 -0.46693386773547096,-0.21594071360233502 -0.46292585170340683,-0.21403751549387828 -0.4589178356713427,-0.21872042674224246 -0.45490981963927857,-0.22457227189181717 -0.45090180360721444,-0.2242201221459018 -0.4468937875751503,-0.2283841801902986 -0.44288577154308617,-0.2240704782395323 -0.43887775551102204,-0.22361101452526622 -0.434869739478958,-0.22166402526124396 -0.4308617234468939,-0.2187760454163189 -0.42685370741482975,-0.21520528509024206 -0.4228456913827656,-0.21287294963504944 -0.4188376753507015,-0.2139944528882709 -0.41482965931863736,-0.21663672958964963 -0.4108216432865732,-0.2164363540394879 -0.4068136272545091,-0.22033354579755582 -0.40280561122244496,-0.22002875999825855 -0.3987975951903808,-0.21483986556386292 -0.3947895791583167,-0.21882557618010767 -0.39078156312625256,-0.21935034759369165 -0.38677354709418843,-0.22533442386384828 -0.3827655310621243,-0.22444348940089576 -0.37875751503006017,-0.2209337659059155 -0.37474949899799603,-0.21930488625129496 -0.3707414829659319,-0.21603353699268857 -0.36673346693386777,-0.2178429303400754 -0.36272545090180364,-0.2173275255004048 -0.3587174348697395,-0.21985304547790785 -0.35470941883767537,-0.2189927543275053 -0.35070140280561124,-0.21906464522850067 -0.3466933867735471,-0.2117014291673175 -0.342685370741483,-0.20662521762964003 -0.33867735470941884,-0.20589662047235802 -0.3346693386773547,-0.20432015640248935 -0.3306613226452907,-0.1759954309751678 -0.32665330661322656,-0.1584805142279958 -0.3226452905811624,-0.17039507592324366 -0.3186372745490983,-0.16539489756843528 -0.31462925851703416,-0.18322202627782036 -0.31062124248497003,-0.1828451139932621 -0.3066132264529059,-0.17055266988213125 -0.30260521042084176,-0.17021125811110038 -0.29859719438877763,-0.16656748542389221 -0.2945891783567135,-0.1619386951995817 -0.29058116232464937,-0.13572090497414913 -0.28657314629258523,-0.15151311220886599 -0.2825651302605211,-0.13702126464952968 -0.27855711422845697,-0.1318015803696052 -0.27454909819639284,-0.14518798140175082 -0.2705410821643287,-0.15444309727478145 -0.2665330661322646,-0.1633549966015121 -0.26252505010020044,-0.15808717727657928 -0.2585170340681363,-0.16284541580400103 -0.2545090180360722,-0.16810202436442734 -0.25050100200400804,-0.1856259553321994 -0.2464929859719439,-0.1833389328687658 -0.24248496993987978,-0.17545285723135917 -0.23847695390781565,-0.1587343418317918 -0.23446893787575152,-0.1575734846080612 -0.2304609218436875,-0.15131131633999295 -0.22645290581162336,-0.16027911774599768 -0.22244488977955923,-0.16219964913281937 -0.2184368737474951,-0.14821241502931426 -0.21442885771543096,-0.13307373304136283 -0.21042084168336683,-0.13595409018378102 -0.2064128256513027,-0.13075894026649149 -0.20240480961923857,-0.14401708731426532 -0.19839679358717444,-0.14696697235315515 -0.1943887775551103,-0.16614854708741256 -0.19038076152304617,-0.16432830627381279 -0.18637274549098204,-0.1711478260434085 -0.1823647294589179,-0.1801877776068228 -0.17835671342685377,-0.15258302126535606 -0.17434869739478964,-0.1514510224972394 -0.1703406813627255,-0.13188638817537934 -0.16633266533066138,-0.13370644466054948 -0.16232464929859725,-0.1337384986858855 -0.1583166332665331,-0.1385853488464298 -0.15430861723446898,-0.13869919207488335 -0.15030060120240485,-0.12287558108645269 -0.14629258517034072,-0.10576726988199181 -0.14228456913827658,-0.1064509259029156 -0.13827655310621245,-9.408366905138843e-2 -0.13426853707414832,-8.152014930014995e-2 -0.1302605210420842,-6.498233822802402e-2 -0.12625250501002017,-4.3026482814518485e-2 -0.12224448897795603,-8.477362846559433e-2 -0.1182364729458919,-9.271788438816408e-2 -0.11422845691382777,-9.242148760299385e-2 -0.11022044088176364,-0.10022765515209497 -0.1062124248496995,-0.10195132982107091 -0.10220440881763537,-8.167154346216865e-2 -9.819639278557124e-2,-0.11070917467260766 -9.418837675350711e-2,-0.11709846530727497 -9.018036072144298e-2,-0.12564463119862324 -8.617234468937884e-2,-0.1294663158196907 -8.216432865731471e-2,-0.13359870999847923 -7.815631262525058e-2,-0.13380664742375337 -7.414829659318645e-2,-0.12973711041027025 -7.014028056112231e-2,-0.13900194424031154 -6.613226452905818e-2,-0.14112925445204816 -6.212424849699405e-2,-0.14769185942309393 -5.811623246492992e-2,-0.15880397567055637 -5.4108216432865786e-2,-0.14699105877505958 -5.010020040080165e-2,-0.14902248200368529 -4.609218436873752e-2,-0.15034495514833657 -4.208416833667339e-2,-0.15755701594588034 -3.8076152304609256e-2,-0.15107824165541084 -3.4068136272545124e-2,-0.15001832208391208 -3.0060120240480992e-2,-0.1630513538129218 -2.605210420841686e-2,-0.17022572653667067 -2.204408817635284e-2,-0.1709392067505494 -1.8036072144288706e-2,-0.17652764659812448 -1.4028056112224574e-2,-0.18034593944466049 -1.0020040080160442e-2,-0.17835290851344798 -6.012024048096309e-3,-0.170397905070799 -2.004008016032177e-3,-0.17092435120077176 2.004008016031955e-3,-0.17147296120153854 6.012024048096087e-3,-0.18210380886895505 1.002004008016022e-2,-0.18446734578781798 1.4028056112224352e-2,-0.18207633527239475 1.8036072144288484e-2,-0.19094335534282159 2.2044088176352616e-2,-0.19194993988249331 2.605210420841675e-2,-0.19317814916494558 3.006012024048088e-2,-0.1899690190010791 3.406813627254501e-2,-0.19506422718506577 3.8076152304609145e-2,-0.1958074897276133 4.208416833667328e-2,-0.19485793175221178 4.609218436873741e-2,-0.19412338286969189 5.010020040080154e-2,-0.1914911534494923 5.4108216432865675e-2,-0.19697184532197243 5.811623246492981e-2,-0.193428932387971 6.212424849699394e-2,-0.19221853120427645 6.613226452905807e-2,-0.18650771863745375 7.01402805611222e-2,-0.17950844402572896 7.414829659318634e-2,-0.17760144919852028 7.815631262525047e-2,-0.18962996288611866 8.21643286573146e-2,-0.1918593262800845 8.617234468937873e-2,-0.19738092951427455 9.018036072144286e-2,-0.19635110419412527 9.4188376753507e-2,-0.20019978545374806 9.819639278557113e-2,-0.20294857852514148 0.10220440881763526,-0.2024782373919245 0.1062124248496994,-0.19966396269977982 0.11022044088176353,-0.20833067204065447 0.11422845691382766,-0.19195061146003556 0.11823647294589179,-0.19099910868443082 0.12224448897795592,-0.19672195911877322 0.12625250501002006,-0.1925427119292703 0.13026052104208397,-0.19527128075179134 0.1342685370741481,-0.2005799154332405 0.13827655310621223,-0.20982699145209838 0.14228456913827636,-0.20941148892054418 0.1462925851703405,-0.21077371575369797 0.15030060120240463,-0.21206929390959228 0.15430861723446876,-0.21547071580048827 0.1583166332665329,-0.2158565490078479 0.16232464929859702,-0.21029626687587355 0.16633266533066116,-0.21275403645584323 0.1703406813627253,-0.21232660983767015 0.17434869739478942,-0.21735940774424167 0.17835671342685355,-0.21632988708446577 0.18236472945891768,-0.21625922674909026 0.18637274549098182,-0.21386895826422414 0.19038076152304595,-0.21471300252405423 0.19438877755511008,-0.21507686035701368 0.1983967935871742,-0.22192586810092396 0.20240480961923835,-0.21954801091570475 0.20641282565130248,-0.218713806562429 0.2104208416833666,-0.22208793278165917 0.21442885771543074,-0.22242751533343796 0.21843687374749488,-0.22266378616985294 0.222444889779559,-0.21583532508061043 0.22645290581162314,-0.21357475476109067 0.23046092184368727,-0.2210957627358141 0.2344689378757514,-0.2168223154522284 0.23847695390781554,-0.20245540024841047 0.24248496993987967,-0.20076027185866707 0.2464929859719438,-0.1978993416291186 0.25050100200400793,-0.20068242925758462 0.25450901803607207,-0.17998578292939116 0.2585170340681362,-0.18650933905188383 0.26252505010020033,-0.1911645481892833 0.26653306613226446,-0.1983009784783949 0.2705410821643286,-0.1931072603933901 0.2745490981963927,-0.1871993732316034 0.27855711422845686,-0.19404615842368422 0.282565130260521,-0.19141624900254917 0.2865731462925851,-0.18117880531602448 0.29058116232464926,-0.18216193946564307 0.2945891783567134,-0.17499459064972822 0.2985971943887775,-0.1691272544895145 0.30260521042084165,-0.1708510997364746 0.3066132264529058,-0.1597296371023299 0.3106212424849699,-0.15748856538727973 0.31462925851703405,-0.1752689028401644 0.3186372745490982,-0.18196058664995296 0.3226452905811623,-0.18690722437138574 0.32665330661322645,-0.1954091152067613 0.3306613226452906,-0.19899689391884579 0.3346693386773545,-0.19838338402161182 0.3386773547094186,-0.19636804144412368 0.34268537074148275,-0.19947935710086162 0.3466933867735469,-0.19780883844340824 0.350701402805611,-0.19827471690161869 0.35470941883767515,-0.20601659747236178 0.3587174348697393,-0.2081075942462881 0.3627254509018034,-0.2155465607724567 0.36673346693386755,-0.21401066053739137 0.3707414829659317,-0.21209582156937468 0.3747494989979958,-0.20369645302610617 0.37875751503005994,-0.20229920356948605 0.3827655310621241,-0.20512319002519697 0.3867735470941882,-0.20952205466785478 0.39078156312625234,-0.21546015208746727 0.3947895791583165,-0.21740876348545957 0.3987975951903806,-0.22326629169034207 0.40280561122244474,-0.2211982630747389 0.40681362725450887,-0.2166203618256325 0.410821643286573,-0.2171519026208173 0.41482965931863713,-0.22039588254253362 0.41883767535070127,-0.2217609564341011 0.4228456913827654,-0.22504885071888536 0.42685370741482953,-0.22461397731845945 0.43086172344689366,-0.22119963470174941 0.4348697394789578,-0.2152024956601004 0.4388777555110219,-0.21769603183499553 0.44288577154308606,-0.21202994146722298 0.4468937875751502,-0.21393030797595702 0.4509018036072143,-0.21914087734748777 0.45490981963927846,-0.22251132016850284 0.4589178356713426,-0.21756428423901897 0.4629258517034067,-0.22318389282699613 0.46693386773547085,-0.2212754336613273 0.470941883767535,-0.21858307736705573 0.4749498997995991,-0.20895445451028327 0.47895791583166325,-0.2010039875951205 0.4829659318637274,-0.19457106911640432 0.4869739478957915,-0.16908299673908322 0.49098196392785565,-0.1798499993345245 0.4949899799599198,-0.18035796896489664 0.4989979959919839,-0.19572034627163082 0.503006012024048,-0.18989763614453303 0.5070140280561122,-0.17933190732540827 0.5110220440881763,-0.19172877700975866 0.5150300601202404,-0.16668587967825244 0.5190380761523046,-0.16873937255739135 0.5230460921843687,-0.18066664789144926 0.5270541082164328,-0.1905599548051904 0.531062124248497,-0.18369750725376344 0.5350701402805611,-0.1903749674157189 0.539078156312625,-0.1897169006525108 0.5430861723446891,-0.1675652317917724 0.5470941883767533,-0.17666796118978012 0.5511022044088174,-0.17389248670375468 0.5551102204408815,-0.1792615500585697 0.5591182364729457,-0.1896473680911568 0.5631262525050098,-0.1899541391013171 0.5671342685370739,-0.18395108881766076 0.5711422845691381,-0.19276820669702055 0.5751503006012022,-0.20327930077940803 0.5791583166332663,-0.20367315369772188 0.5831663326653305,-0.20322649795700443 0.5871743486973946,-0.20313107385049145 0.5911823647294587,-0.2087688740674326 0.5951903807615229,-0.21074438759812175 0.599198396793587,-0.20970219827030012 0.6032064128256511,-0.20665816569225026 0.6072144288577153,-0.2084078243967855 0.6112224448897794,-0.20827779830779058 0.6152304609218435,-0.20788032472976303 0.6192384769539077,-0.2033822124270358 0.6232464929859718,-0.2029360185984722 0.6272545090180359,-0.19553264016443317 0.6312625250501,-0.20036143459522415 0.6352705410821642,-0.19799971949318407 0.6392785571142283,-0.1932455075257643 0.6432865731462925,-0.19717695989684958 0.6472945891783566,-0.1865927219679151 0.6513026052104207,-0.17132818727198862 0.6553106212424848,-0.17790536186395012 0.659318637274549,-0.18956437951744332 0.6633266533066131,-0.185594651803338 0.6673346693386772,-0.1723273927134672 0.6713426853707414,-0.17983044586839836 0.6753507014028055,-0.18503180139617337 0.6793587174348696,-0.19391783280331998 0.6833667334669338,-0.19248967779150095 0.6873747494989979,-0.20048778481143015 0.691382765531062,-0.1984835005496377 0.6953907815631262,-0.20046561225308968 0.6993987975951903,-0.19685714189937975 0.7034068136272544,-0.20226244705123775 0.7074148296593186,-0.19892967009063212 0.7114228456913827,-0.20097734542489865 0.7154308617234468,-0.20223426757551854 0.719438877755511,-0.2052660644466382 0.7234468937875751,-0.2095176239940547 0.7274549098196392,-0.20839773379273452 0.7314629258517034,-0.21068745189452043 0.7354709418837675,-0.2077282646100983 0.7394789579158316,-0.2153269985076407 0.7434869739478958,-0.21792076964033302 0.7474949899799597,-0.21642326968058068 0.7515030060120238,-0.21651286254948043 0.7555110220440879,-0.21828646300066534 0.7595190380761521,-0.21990156073670064 0.7635270541082162,-0.21773698112286566 0.7675350701402803,-0.21853026588478908 0.7715430861723445,-0.21860635849390242 0.7755511022044086,-0.2187860711567603 0.7795591182364727,-0.22464719671280264 0.7835671342685369,-0.2244889970975139 0.787575150300601,-0.22342066638127545 0.7915831663326651,-0.21972469086735769 0.7955911823647293,-0.21787860357205335 0.7995991983967934,-0.2191774011200478 0.8036072144288575,-0.2248787529954842 0.8076152304609217,-0.22612427245445765 0.8116232464929858,-0.2289979203679693 0.8156312625250499,-0.22503499116166803 0.819639278557114,-0.21724166793957034 0.8236472945891782,-0.21119390298371876 0.8276553106212423,-0.2159992672728952 0.8316633266533064,-0.21675641511830712 0.8356713426853706,-0.22382649466903415 0.8396793587174347,-0.2206223058006258 0.8436873747494988,-0.21917232596002878 0.847695390781563,-0.22106668631802007 0.8517034068136271,-0.22762935500765757 0.8557114228456912,-0.22708351536759352 0.8597194388777554,-0.23240558971753789 0.8637274549098195,-0.2320306573874038 0.8677354709418836,-0.23102128281869805 0.8717434869739478,-0.23408036101419283 0.8757515030060119,-0.23750964031115063 0.879759519038076,-0.2375247351405917 0.8837675350701402,-0.23665790217246163 0.8877755511022043,-0.2402120214398561 0.8917835671342684,-0.2395091701281613 0.8957915831663326,-0.2339683518502924 0.8997995991983967,-0.2357440448856446 0.9038076152304608,-0.24198964892696695 0.907815631262525,-0.23535611012404756 0.9118236472945891,-0.23760416404707552 0.9158316633266532,-0.23456667997185998 0.9198396793587174,-0.23795547197540334 0.9238476953907815,-0.24275665725128182 0.9278557114228456,-0.23962617588849777 0.9318637274549098,-0.24467444069987299 0.9358717434869739,-0.24264100697731994 0.939879759519038,-0.24343733742553975 0.9438877755511021,-0.24959035388753503 0.9478957915831663,-0.25196420206833725 0.9519038076152302,-0.24891425506563924 0.9559118236472943,-0.24833692162270016 0.9599198396793585,-0.24847161396411055 0.9639278557114226,-0.24012130206118865 0.9679358717434867,-0.22621536241646223 0.9719438877755509,-0.233942600096827 0.975951903807615,-0.23255299073843994 0.9799599198396791,-0.23449944173940107 0.9839679358717432,-0.2189663568852135 0.9879759519038074,-0.22446352435297 0.9919839679358715,-0.2362569688351841 0.9959919839679356,-0.24486133666230814 0.9999999999999998,-0.24684125224177056" /></g><g stroke-width="5.0e-3" stroke="#02C814" fill="none" stroke-opacity="0.5"><polyline points="-1.0,-0.21282595353933476 -0.9959919839679359,-0.21362172997196727 -0.9919839679358717,-0.21854623242593163 -0.9879759519038076,-0.2229326670706535 -0.9839679358717435,-0.22281741620682782 -0.9799599198396793,-0.22030221643199965 -0.9759519038076152,-0.217932547391541 -0.9719438877755511,-0.21807120094566412 -0.9679358717434869,-0.22394601487281973 -0.9639278557114228,-0.2281684053087788 -0.9599198396793587,-0.2229786432855686 -0.9559118236472945,-0.21843723979070084 -0.9519038076152304,-0.21304889544566086 -0.9478957915831663,-0.21477728255934447 -0.9438877755511023,-0.21876165482947452 -0.9398797595190381,-0.2195322742697673 -0.935871743486974,-0.21910516769506927 -0.9318637274549099,-0.22056829073130757 -0.9278557114228457,-0.22690016080521846 -0.9238476953907816,-0.22613908477664213 -0.9198396793587175,-0.22343266956223617 -0.9158316633266533,-0.22098413403358963 -0.9118236472945892,-0.220438301053125 -0.9078156312625251,-0.22084184766342885 -0.9038076152304609,-0.21514280153531673 -0.8997995991983968,-0.21548605006676458 -0.8957915831663327,-0.2145609314537137 -0.8917835671342685,-0.20463243461003 -0.8877755511022044,-0.19638098586219754 -0.8837675350701403,-0.20644944911724328 -0.8797595190380761,-0.19963710394106482 -0.875751503006012,-0.19837558573777037 -0.8717434869739479,-0.2034298687602265 -0.8677354709418837,-0.19467798655733348 -0.8637274549098196,-0.1993125372915726 -0.8597194388777555,-0.2035272039624153 -0.8557114228456915,-0.2059520648567238 -0.8517034068136273,-0.19737457429712124 -0.8476953907815632,-0.19849739436343472 -0.8436873747494991,-0.204631560641087 -0.8396793587174349,-0.20236431435946234 -0.8356713426853708,-0.2053083625714267 -0.8316633266533067,-0.20404179145023316 -0.8276553106212425,-0.20692140309685525 -0.8236472945891784,-0.21073859259621353 -0.8196392785571143,-0.2108530367340241 -0.8156312625250501,-0.20849081949763704 -0.811623246492986,-0.20507341856948103 -0.8076152304609219,-0.20492153978493977 -0.8036072144288577,-0.19967788917733398 -0.7995991983967936,-0.20021993363920376 -0.7955911823647295,-0.20397233669307113 -0.7915831663326653,-0.20422279709156 -0.7875751503006012,-0.20096555244187753 -0.7835671342685371,-0.20176738371908687 -0.779559118236473,-0.19889484818003145 -0.7755511022044088,-0.19790330394043587 -0.7715430861723447,-0.2025367496829087 -0.7675350701402806,-0.20366924487036364 -0.7635270541082164,-0.20340392200195578 -0.7595190380761523,-0.20684492237242058 -0.7555110220440882,-0.21015186075616255 -0.751503006012024,-0.21059485037941228 -0.7474949899799599,-0.21072833356331744 -0.7434869739478958,-0.20796868613839803 -0.7394789579158316,-0.20929627773242665 -0.7354709418837675,-0.20878673195669695 -0.7314629258517034,-0.20761625253998373 -0.7274549098196392,-0.2101756448861377 -0.7234468937875751,-0.20881221822149632 -0.719438877755511,-0.20983164306578117 -0.7154308617234469,-0.2088859845519525 -0.7114228456913828,-0.20782032872077416 -0.7074148296593187,-0.20331119100816109 -0.7034068136272545,-0.20783737270770675 -0.6993987975951904,-0.20508969034108593 -0.6953907815631263,-0.20892528698956447 -0.6913827655310621,-0.2103958283453624 -0.687374749498998,-0.21046223968921562 -0.6833667334669339,-0.21342895708736465 -0.6793587174348698,-0.2129571948447493 -0.6753507014028056,-0.2139073971350196 -0.6713426853707415,-0.21409345744150732 -0.6673346693386774,-0.2145277319729314 -0.6633266533066133,-0.21282474692527742 -0.6593186372745492,-0.21353281021865955 -0.6553106212424851,-0.21294983683365243 -0.6513026052104209,-0.211959472185957 -0.6472945891783568,-0.21027114384070467 -0.6432865731462927,-0.21070988394761203 -0.6392785571142285,-0.20816690191574094 -0.6352705410821644,-0.20866981207490465 -0.6312625250501003,-0.20338762733457738 -0.6272545090180361,-0.20403757197952388 -0.623246492985972,-0.20068686987808215 -0.6192384769539079,-0.20280673282695427 -0.6152304609218437,-0.20292663463061722 -0.6112224448897796,-0.20389453660410184 -0.6072144288577155,-0.2019053518665168 -0.6032064128256514,-0.20490746611243593 -0.5991983967935872,-0.2078430277197697 -0.5951903807615231,-0.2108876357270808 -0.591182364729459,-0.21196578522502807 -0.5871743486973948,-0.20915494351610708 -0.5831663326653307,-0.2121626830796589 -0.5791583166332666,-0.21235848239906874 -0.5751503006012024,-0.21178134495649126 -0.5711422845691383,-0.21303585163044703 -0.5671342685370742,-0.2136226628039114 -0.56312625250501,-0.21196786486445007 -0.5591182364729459,-0.21142247994911978 -0.5551102204408818,-0.21189812860193535 -0.5511022044088176,-0.21344335625504696 -0.5470941883767535,-0.21654759914552346 -0.5430861723446894,-0.21522120340371664 -0.5390781563126252,-0.21260605642893937 -0.5350701402805611,-0.21029917208697557 -0.531062124248497,-0.21188647832967167 -0.5270541082164328,-0.21130954485332876 -0.5230460921843687,-0.21290616374301763 -0.5190380761523046,-0.2143925475585623 -0.5150300601202404,-0.21547061697684045 -0.5110220440881764,-0.21628443144513843 -0.5070140280561123,-0.21597300725243596 -0.5030060120240482,-0.21523377074657646 -0.498997995991984,-0.21242616386441338 -0.4949899799599199,-0.21076740888202095 -0.49098196392785576,-0.21289047186061305 -0.4869739478957916,-0.20991634911943746 -0.4829659318637275,-0.21259356902308857 -0.47895791583166336,-0.21359840525553064 -0.47494989979959923,-0.21427456527729571 -0.4709418837675351,-0.2148174129383208 -0.46693386773547096,-0.21446414891586107 -0.46292585170340683,-0.21364330148050115 -0.4589178356713427,-0.21567847811844354 -0.45490981963927857,-0.21823249662180044 -0.45090180360721444,-0.21810666507244392 -0.4468937875751503,-0.2199402844038434 -0.44288577154308617,-0.21810429134614806 -0.43887775551102204,-0.217930416776126 -0.434869739478958,-0.21711034106994853 -0.4308617234468939,-0.21587789270001245 -0.42685370741482975,-0.21434309927821593 -0.4228456913827656,-0.21333653603780778 -0.4188376753507015,-0.21381959503533987 -0.41482965931863736,-0.2149633858577582 -0.4108216432865732,-0.2148835417503404 -0.4068136272545091,-0.21657552168265326 -0.40280561122244496,-0.21645953896657522 -0.3987975951903808,-0.21423140221102221 -0.3947895791583167,-0.2159558079079419 -0.39078156312625256,-0.21619451191992411 -0.38677354709418843,-0.21879251099035057 -0.3827655310621243,-0.21843547390407436 -0.37875751503006017,-0.21694558938537056 -0.37474949899799603,-0.21625944005308717 -0.3707414829659319,-0.2148610644514516 -0.36673346693386777,-0.21564587252085698 -0.36272545090180364,-0.2154327631044649 -0.3587174348697395,-0.21652889934309694 -0.35470941883767537,-0.2161721222340245 -0.35070140280561124,-0.2162148207658553 -0.3466933867735471,-0.21305657762383423 -0.342685370741483,-0.21086669043881545 -0.33867735470941884,-0.21053489616465104 -0.3346693386773547,-0.20983712070320726 -0.3306613226452907,-0.1976477534103558 -0.32665330661322656,-0.1900413997758621 -0.3226452905811624,-0.1950113987982235 -0.3186372745490983,-0.19276183068339048 -0.31462925851703416,-0.2002847138745455 -0.31062124248497003,-0.20004970831695423 -0.3066132264529059,-0.1947064113693261 -0.30260521042084176,-0.19445636511739883 -0.29859719438877763,-0.1927916149291634 -0.2945891783567135,-0.1906971917214043 -0.29058116232464937,-0.17934879540927906 -0.28657314629258523,-0.18591529723793376 -0.2825651302605211,-0.17956615685081556 -0.27855711422845697,-0.17715065729986867 -0.27454909819639284,-0.18267879059855208 -0.2705410821643287,-0.18647559803840574 -0.2665330661322646,-0.19014924616398787 -0.26252505010020044,-0.1877819234573871 -0.2585170340681363,-0.18968872406282666 -0.2545090180360722,-0.19182051903765085 -0.25050100200400804,-0.1992080828905901 -0.2464929859719439,-0.19817251616084575 -0.24248496993987978,-0.19473985271354477 -0.23847695390781565,-0.1875172636322905 -0.23446893787575152,-0.1868986309702152 -0.2304609218436875,-0.18410057323380624 -0.22645290581162336,-0.1877867841550337 -0.22244488977955923,-0.18848863942297645 -0.2184368737474951,-0.1824101472499129 -0.21442885771543096,-0.1758085830599535 -0.21042084168336683,-0.17685361481533945 -0.2064128256513027,-0.17446448381997604 -0.20240480961923857,-0.17992715999339282 -0.19839679358717444,-0.18103078707349662 -0.1943887775551103,-0.1890569722003923 -0.19038076152304617,-0.18818402642945253 -0.18637274549098204,-0.19098644814354226 -0.1823647294589179,-0.19475069455619842 -0.17835671342685377,-0.18293844657860814 -0.17434869739478964,-0.18232752575253497 -0.1703406813627255,-0.17387238030448604 -0.16633266533066138,-0.17446770596302386 -0.16232464929859725,-0.17430776242753343 -0.1583166332665331,-0.17619595896479 -0.15430861723446898,-0.17608434969384112 -0.15030060120240485,-0.16919974453970255 -0.14629258517034072,-0.16173177812598638 -0.14228456913827658,-0.1617835256542398 -0.13827655310621245,-0.1562928909007062 -0.13426853707414832,-0.15068941397213875 -0.1302605210420842,-0.14336739100435014 -0.12625250501002017,-0.13370319264706332 -0.12224448897795603,-0.15105652048525187 -0.1182364729458919,-0.15414775751026777 -0.11422845691382777,-0.15376053825289104 -0.11022044088176364,-0.156813293254512 -0.1062124248496995,-0.15730436410144621 -0.10220440881763537,-0.14846559611703303 -9.819639278557124e-2,-0.16050335535153493 -9.418837675350711e-2,-0.16300154987648752 -9.018036072144298e-2,-0.1664298296213239 -8.617234468937884e-2,-0.1678767012079051 -8.216432865731471e-2,-0.16946487951544165 -7.815631262525058e-2,-0.1694013362860488 -7.414829659318645e-2,-0.16752773336607374 -7.014028056112231e-2,-0.17129040538097173 -6.613226452905818e-2,-0.17205433859617147 -6.212424849699405e-2,-0.17470036365460107 -5.811623246492992e-2,-0.17928605657545693 -5.4108216432865786e-2,-0.17420510465531192 -5.010020040080165e-2,-0.1749491304476124 -4.609218436873752e-2,-0.17539875006222883 -4.208416833667339e-2,-0.17834058243423656 -3.8076152304609256e-2,-0.17551608910422833 -3.4068136272545124e-2,-0.1749653953834982 -3.0060120240480992e-2,-0.18036370053937656 -2.605210420841686e-2,-0.18331885865387842 -2.204408817635284e-2,-0.18356468415928207 -1.8036072144288706e-2,-0.18586882921898262 -1.4028056112224574e-2,-0.1874395713039323 -1.0020040080160442e-2,-0.18656930499318292 -6.012024048096309e-3,-0.1831811688388464 -2.004008016032177e-3,-0.183349204297783 2.004008016031955e-3,-0.18352804766611752 6.012024048096087e-3,-0.18795584603295057 1.002004008016022e-2,-0.18892645247238216 1.4028056112224352e-2,-0.18790081584976126 1.8036072144288484e-2,-0.19160864921907161 2.2044088176352616e-2,-0.1920292284888918 2.605210420841675e-2,-0.19254541361498334 3.006012024048088e-2,-0.1911979595034149 3.406813627254501e-2,-0.19333540107802094 3.8076152304609145e-2,-0.19365493513547793 4.208416833667328e-2,-0.19326457741019443 4.609218436873741e-2,-0.1929623131991114 5.010020040080154e-2,-0.191860839332753 5.4108216432865675e-2,-0.19416169123639537 5.811623246492981e-2,-0.19268506149891762 6.212424849699394e-2,-0.19217961668307748 6.613226452905807e-2,-0.1897814696619875 7.01402805611222e-2,-0.1868287046573721 7.414829659318634e-2,-0.18599727577850733 7.815631262525047e-2,-0.19101057796751886 8.21643286573146e-2,-0.1919400071538373 8.617234468937873e-2,-0.19425567990363302 9.018036072144286e-2,-0.19383662316749906 9.4188376753507e-2,-0.1954606894013724 9.819639278557113e-2,-0.1966325959837828 0.10220440881763526,-0.19646163302581476 0.1062124248496994,-0.19530718307160755 0.11022044088176353,-0.19895622376609146 0.11422845691382766,-0.19213324140360666 0.11823647294589179,-0.19173369658363848 0.12224448897795592,-0.1941270662692951 0.12625250501002006,-0.19238777717408329 0.13026052104208397,-0.1935304792236544 0.1342685370741481,-0.1957593983895335 0.13827655310621223,-0.19964852389570586 0.14228456913827636,-0.19951692965251278 0.1462925851703405,-0.20012774601194416 0.15030060120240463,-0.20071371789435133 0.15430861723446876,-0.20218302810474087 0.1583166332665329,-0.20239950459511313 0.16232464929859702,-0.20013122194171507 0.16633266533066116,-0.20120049622766822 0.1703406813627253,-0.20106980630371352 0.17434869739478942,-0.20321902447129636 0.17835671342685355,-0.20284767440996498 0.18236472945891768,-0.20287409563418968 0.18637274549098182,-0.20193147850864268 0.19038076152304595,-0.2023333466669005 0.19438877755511008,-0.2025365425566129 0.1983967935871742,-0.20544703888793403 0.20240480961923835,-0.2045231048998012 0.20641282565130248,-0.20423733916417797 0.2104208416833666,-0.20570495981618309 0.21442885771543074,-0.20591455999025887 0.21843687374749488,-0.20608158371369156 0.222444889779559,-0.20330278507920352 0.22645290581162314,-0.20241215046860972 0.23046092184368727,-0.205593412051172 0.2344689378757514,-0.20387640004169527 0.23847695390781554,-0.1979426678160079 0.24248496993987967,-0.19725492151125135 0.2464929859719438,-0.19607748504614764 0.25050100200400793,-0.1972439218647638 0.25450901803607207,-0.1886395786628592 0.2585170340681362,-0.19131924442531922 0.26252505010020033,-0.19323679380774794 0.26653306613226446,-0.19619807720725657 0.2705410821643286,-0.19404524441767146 0.2745490981963927,-0.19158309041338195 0.27855711422845686,-0.19441284459520858 0.282565130260521,-0.1933172217633452 0.2865731462925851,-0.18905182413529875 0.29058116232464926,-0.18942775843365722 0.2945891783567134,-0.186417967393935 0.2985971943887775,-0.1839318705594939 0.30260521042084165,-0.1845867266394028 0.3066132264529058,-0.17990885160313785 0.3106212424849699,-0.17889415447237633 0.31462925851703405,-0.18619062431343525 0.3186372745490982,-0.18892448672114137 0.3226452905811623,-0.1909496943415585 0.32665330661322645,-0.19446294113643636 0.3306613226452906,-0.19595616724969533 0.3346693386773545,-0.1957138026202081 0.3386773547094186,-0.1948880940313329 0.34268537074148275,-0.1961851474025036 0.3466933867735469,-0.19550533421681615 0.350701402805611,-0.19570788301626663 0.35470941883767515,-0.1989297447388585 0.3587174348697393,-0.1998260773942755 0.3627254509018034,-0.20294520548130035 0.36673346693386755,-0.20236007244508325 0.3707414829659317,-0.20161396850594548 0.3747494989979958,-0.1981748496803224 0.37875751503005994,-0.1976182469508173 0.3827655310621241,-0.1988076200769726 0.3867735470941882,-0.20065620439251663 0.39078156312625234,-0.20315291675992286 0.3947895791583165,-0.20401078522580807 0.3987975951903806,-0.20649240920311196 0.40280561122244474,-0.20570472661526107 0.40681362725450887,-0.2038723235316402 0.410821643286573,-0.2041447606948691 0.41482965931863713,-0.20554133678144992 0.41883767535070127,-0.2061675289199586 0.4228456913827654,-0.20759273292134373 0.42685370741482953,-0.20748447545655924 0.43086172344689366,-0.20614166184555582 0.4348697394789578,-0.20372175490895195 0.4388777555110219,-0.20480043133305803 0.44288577154308606,-0.20250935522593894 0.4468937875751502,-0.20333426546843703 0.4509018036072143,-0.2055325102541089 0.45490981963927846,-0.20698215860130387 0.4589178356713426,-0.2050001542721901 0.4629258517034067,-0.20737497311057973 0.46693386773547085,-0.2066507984609829 0.470941883767535,-0.2055978312972081 0.4749498997995991,-0.20167193796014182 0.47895791583166325,-0.1984174165534246 0.4829659318637274,-0.19577138725564447 0.4869739478957915,-0.18524614012990004 0.49098196392785565,-0.18962158264627715 0.4949899799599198,-0.1897907721168045 0.4989979959919839,-0.19609024950594445 0.503006012024048,-0.1936859072578162 0.5070140280561122,-0.18931173029814863 0.5110220440881763,-0.19438335690552744 0.5150300601202404,-0.18404499261795393 0.5190380761523046,-0.18481996700914405 0.5230460921843687,-0.18967038503207234 0.5270541082164328,-0.19371172657452917 0.531062124248497,-0.19086962632767013 0.5350701402805611,-0.1935921726644534 0.539078156312625,-0.19330748077467663 0.5430861723446891,-0.18416509620900479 0.5470941883767533,-0.18784647319648995 0.5511022044088174,-0.18665711589871903 0.5551102204408815,-0.1888158952955531 0.5591182364729457,-0.1930540699621579 0.5631262525050098,-0.19316617539859415 0.5671342685370739,-0.1906806861043231 0.5711422845691381,-0.19428329241946807 0.5751503006012022,-0.19860479876118775 0.5791583166332663,-0.1987858135608518 0.5831663326653305,-0.19862164144055594 0.5871743486973946,-0.19860091710804129 0.5911823647294587,-0.20093978005834134 0.5951903807615229,-0.20178465335326468 0.599198396793587,-0.20139210946429986 0.6032064128256511,-0.2001731949853921 0.6072144288577153,-0.2009193264739495 0.6112224448897794,-0.200896175468116 0.6152304609218435,-0.20076257096431238 0.6192384769539077,-0.19894129612899614 0.6232464929859718,-0.19877566982835893 0.6272545090180359,-0.19574839282391188 0.6312625250501,-0.19773230568066857 0.6352705410821642,-0.19677193320059994 0.6392785571142283,-0.1948227072825789 0.6432865731462925,-0.19643154773056104 0.6472945891783566,-0.19208549314351775 0.6513026052104207,-0.18579321069989285 0.6553106212424848,-0.18843461643423254 0.659318637274549,-0.19317927205951269 0.6633266533066131,-0.19153398160775492 0.6673346693386772,-0.18606237232382483 0.6713426853707414,-0.1890858980519281 0.6753507014028055,-0.19118296997464745 0.6793587174348696,-0.19480536326861642 0.6833667334669338,-0.1942151831061798 0.6873747494989979,-0.19749088792598035 0.691382765531062,-0.19668012806219426 0.6953907815631262,-0.19750068604234783 0.6993987975951903,-0.19603165146267387 0.7034068136272544,-0.1982527028656378 0.7074148296593186,-0.1969012913051742 0.7114228456913827,-0.19774933745823653 0.7154308617234468,-0.19827783038708913 0.719438877755511,-0.1995373312569948 0.7234468937875751,-0.20130437656727296 0.7274549098196392,-0.20087821511266268 0.7314629258517034,-0.20184768416064736 0.7354709418837675,-0.20066984920195663 0.7394789579158316,-0.20381435669563364 0.7434869739478958,-0.20492468858931412 0.7474949899799597,-0.2043633122956472 0.7515030060120238,-0.20444891872032567 0.7555110220440879,-0.20522496036224058 0.7595190380761521,-0.20594005915403535 0.7635270541082162,-0.2051093301405934 0.7675350701402803,-0.2054856589046028 0.7715430861723445,-0.20556971268625013 0.7755511022044086,-0.20569619231261183 0.7795591182364727,-0.2081512103146378 0.7835671342685369,-0.20815332593524705 0.787575150300601,-0.20778181896378223 0.7915831663326651,-0.20633089390208503 0.7955911823647293,-0.2056289043606998 0.7995991983967934,-0.20621047688201988 0.8036072144288575,-0.2085982879878876 0.8076152304609217,-0.2091745305758782 0.8116232464929858,-0.21042042992808085 0.8156312625250499,-0.2088725603900493 0.819639278557114,-0.20574684236920715 0.8236472945891782,-0.20331787991798667 0.8276553106212423,-0.20531615531285596 0.8316633266533064,-0.20566918040795923 0.8356713426853706,-0.2086075973418513 0.8396793587174347,-0.20735773815778702 0.8436873747494988,-0.20681803149566003 0.847695390781563,-0.20764311279595304 0.8517034068136271,-0.21038292430957695 0.8557114228456912,-0.21022942020068214 0.8597194388777554,-0.21247575990208467 0.8637274549098195,-0.21240314273247396 0.8677354709418836,-0.21206964877718892 0.8717434869739478,-0.21339833128757368 0.8757515030060119,-0.21488570866831425 0.879759519038076,-0.21498372960809686 0.8837675350701402,-0.2147204602270305 0.8877755511022043,-0.21626396258859748 0.8917835671342684,-0.21607354970408077 0.8957915831663326,-0.2139013676119591 0.8997995991983967,-0.21470909362063784 0.9038076152304608,-0.21734951978659312 0.907815631262525,-0.21473534794831373 0.9118236472945891,-0.21573839122457195 0.9158316633266532,-0.2145847064937424 0.9198396793587174,-0.21605144657644948 0.9238476953907815,-0.21810395206732902 0.9278557114228456,-0.21692342532049702 0.9318637274549098,-0.21908017694538495 0.9358717434869739,-0.21835224292384736 0.939879759519038,-0.21877648001992256 0.9438877755511021,-0.22139326716419716 0.9478957915831663,-0.22247914399994806 0.9519038076152302,-0.22135092807017498 0.9559118236472943,-0.22122668477664187 0.9599198396793585,-0.22139185509236847 0.9639278557114226,-0.21808674068693612 0.9679358717434867,-0.21249509650271647 0.9719438877755509,-0.21570479127694409 0.975951903807615,-0.21521106259000622 0.9799599198396791,-0.2160758406928921 0.9839679358717432,-0.20981112969162907 0.9879759519038074,-0.21208956875241203 0.9919839679358715,-0.2169509513818354 0.9959919839679356,-0.22054178260199753 0.9999999999999998,-0.2214488879980877" /></g><g /><g stroke-width="4.0e-3" stroke="#3764A0" fill="#FFFFFF" fill-opacity="1.0" stroke-opacity="0.5"><rect width="0.4304462887010113" height="0.25817398204276576" x="0.3449300744674789" y="8.456460076186187e-2" /></g><g stroke-width="0.0" stroke="none" fill="#666666" fill-opacity="1.0" font-size="4.000000000000001e-2" text-anchor="start"><text x="0.3686788352233968" y="0.30338864502115775">rate = 0.996</text></g><g stroke-width="5.0e-3" stroke="#02C814" fill="none" stroke-opacity="0.5"><polyline points="0.7011614858062469,0.2970542647925992 0.7486590073180825,0.2970542647925992" /></g><g stroke-width="0.0" stroke="none" fill="#666666" fill-opacity="1.0" font-size="4.000000000000001e-2" text-anchor="start"><text x="0.3686788352233968" y="0.24868263395633378">rate = 0.99</text></g><g stroke-width="5.0e-3" stroke="#382A8C" fill="none" stroke-opacity="0.5"><polyline points="0.7011614858062469,0.24234825372777521 0.7486590073180825,0.24234825372777521" /></g><g stroke-width="0.0" stroke="none" fill="#666666" fill-opacity="1.0" font-size="4.000000000000001e-2" text-anchor="start"><text x="0.3686788352233968" y="0.1939766228915098">rate = 0.95</text></g><g stroke-width="5.0e-3" stroke="#3C7F2B" fill="none" stroke-opacity="0.5"><polyline points="0.7011614858062469,0.1876422426629512 0.7486590073180825,0.1876422426629512" /></g><g stroke-width="0.0" stroke="none" fill="#666666" fill-opacity="1.0" font-size="4.000000000000001e-2" text-anchor="start"><text x="0.3686788352233968" y="0.13927061182668582">zero</text></g><g stroke-width="5.0e-3" stroke="#C58C4B" fill="none" stroke-opacity="0.5"><polyline points="0.7011614858062468,0.13293623159812726 0.7486590073180825,0.13293623159812726" /></g><g /></svg>