<svg viewBox="-1.4059678118201535 -0.68275 2.413467811820153 1.5020159178324475" xmlns="http://www.w3.org/2000/svg" xmlns:xlink="http://www.w3.org/1999/xlink" version="1.1" width="600.0" height="300.0"><g stroke-width="0.0" stroke="none" fill="#000000" transform="translate(-0.19923390591007695, -0.57175)" fill-opacity="1.0" font-size="0.12" text-anchor="middle"><text transform="rotate(0.0, 0.0, -0.0)" x="0.0" y="-0.0">alpha on ma</text></g><g stroke-width="0.0" stroke="#000000" fill="#666666" fill-opacity="3.0e-2" stroke-opacity="0.0"><rect width="1.9999999999999998" height="1.0" x="-1.0" y="-0.5" /></g><g stroke-width="5.0e-3" stroke="#A8E5EE" fill="none" stroke-opacity="0.3"><polyline points="-1.005,0.5 1.0049999999999997,0.5" /></g><g stroke-width="5.0e-3" stroke="#A8E5EE" fill="none" stroke-opacity="0.3"><polyline points="-1.005,0.33333333333333337 1.0049999999999997,0.33333333333333337" /></g><g stroke-width="5.0e-3" stroke="#A8E5EE" fill="none" stroke-opacity="0.3"><polyline points="-1.005,0.16666666666666669 1.0049999999999997,0.16666666666666669" /></g><g stroke-width="5.0e-3" stroke="#A8E5EE" fill="none" stroke-opacity="0.3"><polyline points="-1.005,-0.0 1.0049999999999997,-0.0" /></g><g stroke-width="5.0e-3" stroke="#A8E5EE" fill="none" stroke-opacity="0.3"><polyline points="-1.005,-0.16666666666666663 1.0049999999999997,-0.16666666666666663" /></g><g stroke-width="5.0e-3" stroke="#A8E5EE" fill="none" stroke-opacity="0.3"><polyline points="-1.005,-0.33333333333333337 1.0049999999999997,-0.33333333333333337" /></g><g stroke-width="5.0e-3" stroke="#A8E5EE" fill="none" stroke-opacity="0.3"><polyline points="-1.005,-0.5 1.0049999999999997,-0.5" /></g><g stroke-width="0.0" stroke="none" fill="#666666" fill-opacity="1.0" font-size="5.0e-2" text-anchor="end"><text x="-1.2309678118201535" y="0.5145">-8.0e-3</text></g><g stroke-width="0.0" stroke="none" fill="#666666" fill-opacity="1.0" font-size="5.0e-2" text-anchor="end"><text x="-1.2309678118201535" y="0.3478333333333334">-6.0e-3</text></g><g stroke-width="0.0" stroke="none" fill="#666666" fill-opacity="1.0" font-size="5.0e-2" text-anchor="end"><text x="-1.2309678118201535" y="0.1811666666666667">-4.0e-3</text></g><g stroke-width="0.0" stroke="none" fill="#666666" fill-opacity="1.0" font-size="5.0e-2" text-anchor="end"><text x="-1.2309678118201535" y="1.4499999999999999e-2">-2.0e-3</text></g><g stroke-width="0.0" stroke="none" fill="#666666" fill-opacity="1.0" font-size="5.0e-2" text-anchor="end"><text x="-1.2309678118201535" y="-0.15216666666666662">0.0e0</text></g><g stroke-width="0.0" stroke="none" fill="#666666" fill-opacity="1.0" font-size="5.0e-2" text-anchor="end"><text x="-1.2309678118201535" y="-0.31883333333333336">2.0e-3</text></g><g stroke-width="0.0" stroke="none" fill="#666666" fill-opacity="1.0" font-size="5.0e-2" text-anchor="end"><text x="-1.2309678118201535" y="-0.4855">4.0e-3</text></g><g stroke-width="0.0" stroke="#2C429D" fill="#5F0391" fill-opacity="1.0" stroke-opacity="0.4"><line stroke-width="5.0e-3" transform="rotate(-90.0, -1.2008928118201536, 0.5)" x1="-1.2008928118201536" y1="0.515" x2="-1.2008928118201536" y2="0.485" /><line stroke-width="5.0e-3" transform="rotate(-90.0, -1.2008928118201536, 0.33333333333333337)" x1="-1.2008928118201536" y1="0.3483333333333334" x2="-1.2008928118201536" y2="0.31833333333333336" /><line stroke-width="5.0e-3" transform="rotate(-90.0, -1.2008928118201536, 0.16666666666666669)" x1="-1.2008928118201536" y1="0.1816666666666667" x2="-1.2008928118201536" y2="0.15166666666666667" /><line stroke-width="5.0e-3" transform="rotate(-90.0, -1.2008928118201536, -0.0)" x1="-1.2008928118201536" y1="1.5e-2" x2="-1.2008928118201536" y2="-1.5e-2" /><line stroke-width="5.0e-3" transform="rotate(-90.0, -1.2008928118201536, -0.16666666666666663)" x1="-1.2008928118201536" y1="-0.15166666666666662" x2="-1.2008928118201536" y2="-0.18166666666666664" /><line stroke-width="5.0e-3" transform="rotate(-90.0, -1.2008928118201536, -0.33333333333333337)" x1="-1.2008928118201536" y1="-0.31833333333333336" x2="-1.2008928118201536" y2="-0.3483333333333334" /><line stroke-width="5.0e-3" transform="rotate(-90.0, -1.2008928118201536, -0.5)" x1="-1.2008928118201536" y1="-0.485" x2="-1.2008928118201536" y2="-0.515" /></g><g stroke-width="0.0" stroke="#666666" fill="#5F0391" fill-opacity="0.5" stroke-opacity="0.0"><rect width="4.999999999999893e-3" height="1.0" x="-1.1908928118201536" y="-0.5" /></g><g stroke-width="5.0e-3" stroke="#A8E5EE" fill="none" stroke-opacity="0.3"><polyline points="-1.0,0.505 -1.0,-0.505" /></g><g stroke-width="5.0e-3" stroke="#A8E5EE" fill="none" stroke-opacity="0.3"><polyline points="-0.871743486973948,0.505 -0.871743486973948,-0.505" /></g><g stroke-width="5.0e-3" stroke="#A8E5EE" fill="none" stroke-opacity="0.3"><polyline points="-0.6152304609218437,0.505 -0.6152304609218437,-0.505" /></g><g stroke-width="5.0e-3" stroke="#A8E5EE" fill="none" stroke-opacity="0.3"><polyline points="-0.36272545090180375,0.505 -0.36272545090180375,-0.505" /></g><g stroke-width="5.0e-3" stroke="#A8E5EE" fill="none" stroke-opacity="0.3"><polyline points="-0.11022044088176364,0.505 -0.11022044088176364,-0.505" /></g><g stroke-width="5.0e-3" stroke="#A8E5EE" fill="none" stroke-opacity="0.3"><polyline points="0.1342685370741481,0.505 0.1342685370741481,-0.505" /></g><g stroke-width="5.0e-3" stroke="#A8E5EE" fill="none" stroke-opacity="0.3"><polyline points="0.3867735470941882,0.505 0.3867735470941882,-0.505" /></g><g stroke-width="5.0e-3" stroke="#A8E5EE" fill="none" stroke-opacity="0.3"><polyline points="0.6432865731462925,0.505 0.6432865731462925,-0.505" /></g><g stroke-width="5.0e-3" stroke="#A8E5EE" fill="none" stroke-opacity="0.3"><polyline points="0.8997995991983965,0.505 0.8997995991983965,-0.505" /></g><g stroke-width="5.0e-3" stroke="#A8E5EE" fill="none" stroke-opacity="0.3"><polyline points="0.9999999999999998,0.505 0.9999999999999998,-0.505" /></g><g stroke-width="0.0" stroke="none" fill="#666666" fill-opacity="1.0" font-size="5.0e-2" text-anchor="end"><text transform="rotate(-45.0, -1.0, 0.6062500000000001)" x="-1.0" y="0.6062500000000001">12 Feb 2018</text></g><g stroke-width="0.0" stroke="none" fill="#666666" fill-opacity="1.0" font-size="5.0e-2" text-anchor="end"><text transform="rotate(-45.0, -0.871743486973948, 0.6062500000000001)" x="-0.871743486973948" y="0.6062500000000001">31 Mar 2018</text></g><g stroke-width="0.0" stroke="none" fill="#666666" fill-opacity="1.0" font-size="5.0e-2" text-anchor="end"><text transform="rotate(-45.0, -0.6152304609218437, 0.6062500000000001)" x="-0.6152304609218437" y="0.6062500000000001">30 Jun 2018</text></g><g stroke-width="0.0" stroke="none" fill="#666666" fill-opacity="1.0" font-size="5.0e-2" text-anchor="end"><text transform="rotate(-45.0, -0.36272545090180375, 0.6062500000000001)" x="-0.36272545090180375" y="0.6062500000000001">30 Sep 2018</text></g><g stroke-width="0.0" stroke="none" fill="#666666" fill-opacity="1.0" font-size="5.0e-2" text-anchor="end"><text transform="rotate(-45.0, -0.11022044088176364, 0.6062500000000001)" x="-0.11022044088176364" y="0.6062500000000001">31 Dec 2018</text></g><g stroke-width="0.0" stroke="none" fill="#666666" fill-opacity="1.0" font-size="5.0e-2" text-anchor="end"><text transform="rotate(-45.0, 0.1342685370741481, 0.6062500000000001)" x="0.1342685370741481" y="0.6062500000000001">31 Mar 2019</text></g><g stroke-width="0.0" stroke="none" fill="#666666" fill-opacity="1.0" font-size="5.0e-2" text-anchor="end"><text transform="rotate(-45.0, 0.3867735470941882, 0.6062500000000001)" x="0.3867735470941882" y="0.6062500000000001">30 Jun 2019</text></g><g stroke-width="0.0" stroke="none" fill="#666666" fill-opacity="1.0" font-size="5.0e-2" text-anchor="end"><text transform="rotate(-45.0, 0.6432865731462925, 0.6062500000000001)" x="0.6432865731462925" y="0.6062500000000001">30 Sep 2019</text></g><g stroke-width="0.0" stroke="none" fill="#666666" fill-opacity="1.0" font-size="5.0e-2" text-anchor="end"><text transform="rotate(-45.0, 0.8997995991983965, 0.6062500000000001)" x="0.8997995991983965" y="0.6062500000000001">31 Dec 2019</text></g><g stroke-width="0.0" stroke="none" fill="#666666" fill-opacity="1.0" font-size="5.0e-2" text-anchor="end"><text transform="rotate(-45.0, 0.9999999999999998, 0.6062500000000001)" x="0.9999999999999998" y="0.6062500000000001">06 Feb 2020</text></g><g stroke-width="0.0" stroke="#2C429D" fill="#5F0391" fill-opacity="1.0" stroke-opacity="0.4"><line stroke-width="5.0e-3" x1="-1.0" y1="0.54" x2="-1.0" y2="0.51" /><line stroke-width="5.0e-3" x1="-0.871743486973948" y1="0.54" x2="-0.871743486973948" y2="0.51" /><line stroke-width="5.0e-3" x1="-0.6152304609218437" y1="0.54" x2="-0.6152304609218437" y2="0.51" /><line stroke-width="5.0e-3" x1="-0.36272545090180375" y1="0.54" x2="-0.36272545090180375" y2="0.51" /><line stroke-width="5.0e-3" x1="-0.11022044088176364" y1="0.54" x2="-0.11022044088176364" y2="0.51" /><line stroke-width="5.0e-3" x1="0.1342685370741481" y1="0.54" x2="0.1342685370741481" y2="0.51" /><line stroke-width="5.0e-3" x1="0.3867735470941882" y1="0.54" x2="0.3867735470941882" y2="0.51" /><line stroke-width="5.0e-3" x1="0.6432865731462925" y1="0.54" x2="0.6432865731462925" y2="0.51" /><line stroke-width="5.0e-3" x1="0.8997995991983965" y1="0.54" x2="0.8997995991983965" y2="0.51" /><line stroke-width="5.0e-3" x1="0.9999999999999998" y1="0.54" x2="0.9999999999999998" y2="0.51" /></g><g stroke-width="0.0" stroke="#666666" fill="#5F0391" fill-opacity="0.5" stroke-opacity="0.0"><rect width="1.9999999999999998" height="5.0000000000000044e-3" x="-1.0" y="0.51" /></g><g stroke-width="5.0e-3" stroke="#C58C4B" fill="none" stroke-opacity="0.5"><polyline points="-1.0,-0.16666666666666663 0.9999999999999998,-0.16666666666666663" /></g><g stroke-width="5.0e-3" stroke="#3C7F2B" fill="none" stroke-opacity="0.5"><polyline points="-1.0,-6.070316834979128e-2 -0.9959919839679359,-7.693849499255356e-2 -0.9919839679358717,-0.13713962222603193 -0.9879759519038076,-0.18868776558360434 -0.9839679358717435,-0.18916367410475843 -0.9799599198396793,-0.16361890959251735 -0.9759519038076152,-0.14075731286897253 -0.9719438877755511,-0.14609551307711865 -0.9679358717434869,-0.21343189810216523 -0.9639278557114228,-0.25980039071616956 -0.9599198396793587,-0.20201230241086288 -0.9559118236472945,-0.15375069339262126 -0.9519038076152304,-9.836486663422006e-2 -0.9478957915831663,-0.12286791715650192 -0.9438877755511023,-0.1707997842475677 -0.9398797595190381,-0.18158266482229357 -0.935871743486974,-0.17883443433324464 -0.9318637274549099,-0.19679591272750963 -0.9278557114228457,-0.2670507964961719 -0.9238476953907816,-0.256835064190737 -0.9198396793587175,-0.22586548305915555 -0.9158316633266533,-0.1990616172158789 -0.9118236472945892,-0.19421598615018987 -0.9078156312625251,-0.19995988950826094 -0.9038076152304609,-0.13865949536207323 -0.8997995991983968,-0.14621759104942167 -0.8957915831663327,-0.13951598075950522 -0.8917835671342685,-3.44013798045153e-2 -0.8877755511022044,4.7560219625198796e-2 -0.8837675350701403,-7.495892858131037e-2 -0.8797595190380761,-6.844216300426864e-3 -0.875751503006012,-2.570972195887755e-3 -0.8717434869739479,-6.754897576070307e-2 -0.8677354709418837,2.1565524190583385e-2 -0.8637274549098196,-3.977770475227971e-2 -0.8597194388777555,-9.38208324783999e-2 -0.8557114228456915,-0.12586205351375146 -0.8517034068136273,-3.560878469944273e-2 -0.8476953907815632,-5.586343070889965e-2 -0.8436873747494991,-0.13031857869547647 -0.8396793587174349,-0.10901090192020024 -0.8356713426853708,-0.14607091606642386 -0.8316633266533067,-0.1350263481102727 -0.8276553106212425,-0.17025951225105307 -0.8236472945891784,-0.2143701032609313 -0.8196392785571143,-0.21549726357725096 -0.8156312625250501,-0.18911901999391167 -0.811623246492986,-0.15226068726770758 -0.8076152304609219,-0.15320021372808967 -0.8036072144288577,-9.774540507046037e-2 -0.7995991983967936,-0.10875193257010951 -0.7955911823647295,-0.15482305477663127 -0.7915831663326653,-0.16004374855303383 -0.7875751503006012,-0.1261043939596007 -0.7835671342685371,-0.1386918580067319 -0.779559118236473,-0.10993796055806138 -0.7755511022044088,-0.1033180548868109 -0.7715430861723447,-0.15943979067015468 -0.7675350701402806,-0.17419565099807166 -0.7635270541082164,-0.17271905819425393 -0.7595190380761523,-0.2126504591281464 -0.7555110220440882,-0.24936221749149112 -0.751503006012024,-0.25240643632973736 -0.7474949899799599,-0.2518597403220335 -0.7434869739478958,-0.21901973994112622 -0.7394789579158316,-0.23334423850525488 -0.7354709418837675,-0.22650035864290075 -0.7314629258517034,-0.2125844532597545 -0.7274549098196392,-0.24098707156429433 -0.7234468937875751,-0.22426347681430792 -0.719438877755511,-0.23493957340591265 -0.7154308617234469,-0.22316552087445463 -0.7114228456913828,-0.21057740984076312 -0.7074148296593187,-0.15997494992464323 -0.7034068136272545,-0.21287037686077315 -0.6993987975951904,-0.18186289065668126 -0.6953907815631263,-0.22605613008950154 -0.6913827655310621,-0.24174237390105624 -0.687374749498998,-0.24098900108211696 -0.6833667334669339,-0.2727837267427453 -0.6793587174348698,-0.2646215370880953 -0.6753507014028056,-0.2727647956640058 -0.6713426853707415,-0.27199542054787196 -0.6673346693386774,-0.27405231371263705 -0.6633266533066133,-0.2521055399344444 -0.6593186372745492,-0.25816374389517094 -0.6553106212424851,-0.24948083643048424 -0.6513026052104209,-0.23660684535758736 -0.6472945891783568,-0.21641934812182184 -0.6432865731462927,-0.2211094008058746 -0.6392785571142285,-0.1918796955246046 -0.6352705410821644,-0.19841895115830488 -0.6312625250501003,-0.13894104703768084 -0.6272545090180361,-0.14958608529686201 -0.623246492985972,-0.11411471985264454 -0.6192384769539079,-0.14265333915205647 -0.6152304609218437,-0.14702020075125122 -0.6112224448897796,-0.1608150416683901 -0.6072144288577155,-0.14035177949871058 -0.6032064128256514,-0.17754490404276935 -0.5991983967935872,-0.21220408028081883 -0.5951903807615231,-0.24648278004336044 -0.591182364729459,-0.25695345020604976 -0.5871743486973948,-0.22301297129518893 -0.5831663326653307,-0.25642285041323476 -0.5791583166332666,-0.2565045929379527 -0.5751503006012024,-0.2478585911028207 -0.5711422845691383,-0.2603151340214286 -0.5671342685370742,-0.2646642709435141 -0.56312625250501,-0.24350930127157622 -0.5591182364729459,-0.23582531391820982 -0.5551102204408818,-0.24006844251434745 -0.5511022044088176,-0.25623940323919303 -0.5470941883767535,-0.28923865036972907 -0.5430861723446894,-0.27080475319072117 -0.5390781563126252,-0.23852878976628145 -0.5350701402805611,-0.21097505397984095 -0.531062124248497,-0.22913950136482397 -0.5270541082164328,-0.22174594657833124 -0.5230460921843687,-0.23950913469207213 -0.5190380761523046,-0.25516408058733364 -0.5150300601202404,-0.2654469553768769 -0.5110220440881764,-0.27226434641781805 -0.5070140280561123,-0.26606299684619894 -0.5030060120240482,-0.25528686287158875 -0.498997995991984,-0.2212892674993624 -0.4949899799599199,-0.20175261034824088 -0.49098196392785576,-0.22674454875792138 -0.4869739478957916,-0.19179512992456915 -0.4829659318637275,-0.22367323064223654 -0.47895791583166336,-0.2347132616265678 -0.47494989979959923,-0.2414745554757527 -0.4709418837675351,-0.246404883149702 -0.46693386773547096,-0.2408704228142794 -0.46292585170340683,-0.2302070119444356 -0.4589178356713427,-0.25278060784870016 -0.45490981963927857,-0.28009092655337253 -0.45090180360721444,-0.27571367395651447 -0.4468937875751503,-0.2937081881738628 -0.44288577154308617,-0.2694382715844431 -0.43887775551102204,-0.26501458415393353 -0.434869739478958,-0.2533967604724753 -0.4308617234468939,-0.23748345740825316 -0.42685370741482975,-0.21864983419090467 -0.4228456913827656,-0.206708432421434 -0.4188376753507015,-0.2127363475702082 -0.41482965931863736,-0.2261725373477882 -0.4108216432865732,-0.22473706066483412 -0.4068136272545091,-0.24389428859550233 -0.40280561122244496,-0.24127277449849238 -0.3987975951903808,-0.21423686652477103 -0.3947895791583167,-0.2343661038736533 -0.39078156312625256,-0.2362774501591911 -0.38677354709418843,-0.2652361224552291 -0.3827655310621243,-0.2589559435598974 -0.37875751503006017,-0.2398898791433629 -0.37474949899799603,-0.23085396964829297 -0.3707414829659319,-0.21384340677575497 -0.36673346693386777,-0.22313565744963637 -0.36272545090180364,-0.22032105031520965 -0.3587174348697395,-0.23291798569411848 -0.35470941883767537,-0.22801219099299608 -0.35070140280561124,-0.22797761547811835 -0.3466933867735471,-0.19032832934452037 -0.342685370741483,-0.16546078530786779 -0.33867735470941884,-0.1638240061535109 -0.3346693386773547,-0.1578747090621032 -0.3306613226452907,-1.7945044353910755e-2 -0.32665330661322656,6.212341943689281e-2 -0.3226452905811624,-9.622629117240544e-3 -0.3186372745490983,7.257115759296773e-3 -0.31462925851703416,-9.046624724843788e-2 -0.31062124248497003,-9.316782553527125e-2 -0.3066132264529059,-3.6359660884765166e-2 -0.30260521042084176,-4.131240205996023e-2 -0.29859719438877763,-2.9587946964306777e-2 -0.2945891783567135,-1.341159262834446e-2 -0.29058116232464937,0.10915295507656236 -0.28657314629258523,1.9107456327074335e-2 -0.2825651302605211,8.232947236696825e-2 -0.27855711422845697,9.713841578790838e-2 -0.27454909819639284,2.009446201776449e-2 -0.2705410821643287,-3.373334260734151e-2 -0.2665330661322646,-8.388040789393636e-2 -0.26252505010020044,-6.1565293415450584e-2 -0.2585170340681363,-8.995205267334161e-2 -0.2545090180360722,-0.11973915630100218 -0.25050100200400804,-0.20986529832300305 -0.2464929859719439,-0.19717625050857857 -0.24248496993987978,-0.15695727151534122 -0.23847695390781565,-7.44222699072431e-2 -0.23446893787575152,-7.276605767297961e-2 -0.2304609218436875,-4.5786751100122425e-2 -0.22645290581162336,-9.550408979424307e-2 -0.22244488977955923,-0.10824386742901537 -0.2184368737474951,-4.125811452862693e-2 -0.21442885771543096,2.852949487159423e-2 -0.21042084168336683,6.440220347393888e-3 -0.2064128256513027,2.517070339768307e-2 -0.20240480961923857,-4.7960077138959334e-2 -0.19839679358717444,-6.730101719958514e-2 -0.1943887775551103,-0.16704996085187962 -0.19038076152304617,-0.1578660737271862 -0.18637274549098204,-0.19243408236664794 -0.1823647294589179,-0.23688591374354073 -0.17835671342685377,-9.556870483855873e-2 -0.17434869739478964,-9.269730379112706e-2 -0.1703406813627255,1.7873919753950696e-3 -0.16633266533066138,-1.3729485616585824e-2 -0.16232464929859725,-1.9707288291879066e-2 -0.1583166332665331,-4.9314819996366e-2 -0.15430861723446898,-5.420839446902437e-2 -0.15030060120240485,2.027500305654434e-2 -0.14629258517034072,9.787134662079566e-2 -0.14228456913827658,8.460920451012371e-2 -0.13827655310621245,0.1361146997118472 -0.13426853707414832,0.186327205457468 -0.1302605210420842,0.25367456040184894 -0.12625250501002017,0.3442819310108653 -0.12224448897795603,0.12442450633512209 -0.1182364729458919,7.500380326591494e-2 -0.11422845691382777,6.837231220790724e-2 -0.11022044088176364,2.1784966029668063e-2 -0.1062124248496995,7.283578464966467e-3 -0.10220440881763537,0.10291695804500994 -9.819639278557124e-2,-5.059844952109005e-2 -9.418837675350711e-2,-8.559742377826984e-2 -9.018036072144298e-2,-0.1301540200206992 -8.617234468937884e-2,-0.14919149605339366 -8.216432865731471e-2,-0.1690652109968106 -7.815631262525058e-2,-0.1683291246411347 -7.414829659318645e-2,-0.14604511459156788 -7.014028056112231e-2,-0.19195511246796082 -6.613226452905818e-2,-0.2000511571112451 -6.212424849699405e-2,-0.23027228040341075 -5.811623246492992e-2,-0.28235510362470995 -5.4108216432865786e-2,-0.21632892876686827 -5.010020040080165e-2,-0.2231045122398888 -4.609218436873752e-2,-0.22606930711173612 -4.208416833667339e-2,-0.2586124879341588 -3.8076152304609256e-2,-0.22093522701006763 -3.4068136272545124e-2,-0.21213568916941283 -3.0060120240480992e-2,-0.2745070196882129 -2.605210420841686e-2,-0.3050160989325671 -2.204408817635284e-2,-0.3018486791592302 -1.8036072144288706e-2,-0.32335254934543944 -1.4028056112224574e-2,-0.3351385569815565 -1.0020040080160442e-2,-0.3173942610944087 -6.012024048096309e-3,-0.27068430879652516 -2.004008016032177e-3,-0.2683492142878411 2.004008016031955e-3,-0.26626906380327464 6.012024048096087e-3,-0.314640158216554 1.002004008016022e-2,-0.31984159913453547 1.4028056112224352e-2,-0.30122330524421115 1.8036072144288484e-2,-0.3394631070808468 2.2044088176352616e-2,-0.3370929485037564 2.605210420841675e-2,-0.33599521478671013 3.006012024048088e-2,-0.3130260792713351 3.406813627254501e-2,-0.3322314829095486 3.8076152304609145e-2,-0.32914223339074367 4.208416833667328e-2,-0.317873418268258 4.609218436873741e-2,-0.30818297537123185 5.010020040080154e-2,-0.28952825545090966 5.4108216432865675e-2,-0.3119148605801363 5.811623246492981e-2,-0.2887241939964248 6.212424849699394e-2,-0.27802987752247244 6.613226452905807e-2,-0.24536092097635842 7.01402805611222e-2,-0.207388263955407 7.414829659318634e-2,-0.19640192801561118 7.815631262525047e-2,-0.25593679636460587 8.21643286573146e-2,-0.2638094529700765 8.617234468937873e-2,-0.2877855368923631 9.018036072144286e-2,-0.27825137371395847 9.4188376753507e-2,-0.2933769231002815 9.819639278557113e-2,-0.3024547936901155 0.10220440881763526,-0.2952735120571126 0.1062124248496994,-0.2767820865489178 0.11022044088176353,-0.3160673829821703 0.11422845691382766,-0.2294264552695282 0.11823647294589179,-0.22280400624943708 0.12224448897795592,-0.24999945970266813 0.12625250501002006,-0.22643907236663807 0.13026052104208397,-0.23849205459904288 0.1342685370741481,-0.26297174978670046 0.13827655310621223,-0.30598289714543425 0.14228456913827636,-0.2992696107635755 0.1462925851703405,-0.3016737930838548 0.15030060120240463,-0.3036952477355016 0.15430861723446876,-0.3160925408115415 0.1583166332665329,-0.31313868519459476 0.16232464929859702,-0.2808859018523515 0.16633266533066116,-0.2897110329502235 0.1703406813627253,-0.28386116724535915 0.17434869739478942,-0.3054189276995056 0.17835671342685355,-0.2960731491403089 0.18236472945891768,-0.2918735367183112 0.18637274549098182,-0.2763081119733072 0.19038076152304595,-0.27750409441929125 0.19438877755511008,-0.27628279091060837 0.1983967935871742,-0.307426550591134 0.20240480961923835,-0.2915438807801658 0.20641282565130248,-0.2839192575426195 0.2104208416833666,-0.2975778738803968 0.21442885771543074,-0.29563587654160184 0.21843687374749488,-0.2932911984237577 0.222444889779559,-0.2556743277993737 0.22645290581162314,-0.24225275227510368 0.23046092184368727,-0.27890515016956785 0.2344689378757514,-0.2546375217000387 0.23847695390781554,-0.17970512376908288 0.24248496993987967,-0.17213723510802448 0.2464929859719438,-0.15884956938880113 0.25050100200400793,-0.17523191655811865 0.25450901803607207,-7.11703762516539e-2 0.2585170340681362,-0.11044441896819135 0.26252505010020033,-0.13805425099375113 0.26653306613226446,-0.17687125539204474 0.2705410821643286,-0.1517516512745135 0.2745490981963927,-0.1239598548206392 0.27855711422845686,-0.16175446081885891 0.282565130260521,-0.15012460492514657 0.2865731462925851,-0.10058153468358955 0.29058116232464926,-0.10959991876419883 0.2945891783567134,-7.710099542996096e-2 0.2985971943887775,-5.2455352225632024e-2 0.30260521042084165,-6.706081103146722e-2 0.3066132264529058,-1.6456512950807745e-2 0.3106212424849699,-1.2528090490805277e-2 0.31462925851703405,-0.10877380299297645 0.3186372745490982,-0.14549119252867482 0.3226452905811623,-0.17201684030922892 0.32665330661322645,-0.21527006980651175 0.3306613226452906,-0.2322509468622711 0.3346693386773545,-0.22756455849926094 0.3386773547094186,-0.21607610297165425 0.34268537074148275,-0.23067174566761417 0.3466933867735469,-0.220812846825847 0.350701402805611,-0.22202852351914482 0.35470941883767515,-0.2595283190372899 0.3587174348697393,-0.267331249536673 0.3627254509018034,-0.30146605679133875 0.36673346693386755,-0.28959205931923293 0.3707414829659317,-0.2763685881239858 0.3747494989979958,-0.2314521545772349 0.37875751503005994,-0.22314192719448278 0.3827655310621241,-0.23623684817098756 0.3867735470941882,-0.25665419307703863 0.39078156312625234,-0.2838828852349914 0.3947895791583165,-0.2902017578032705 0.3987975951903806,-0.3156204637375112 0.40280561122244474,-0.30090910635131884 0.40681362725450887,-0.27441115716727305 0.410821643286573,-0.27424708744891546 0.41482965931863713,-0.28755424972273125 0.41883767535070127,-0.2910426650801903 0.4228456913827654,-0.30390011653680715 0.42685370741482953,-0.2979372040302961 0.43086172344689366,-0.27755542188096594 0.4348697394789578,-0.2450194831912117 0.4388777555110219,-0.25605518550959494 0.44288577154308606,-0.22584413940400316 0.4468937875751502,-0.23475137914862765 0.4509018036072143,-0.259853901414301 0.45490981963927846,-0.27466635095099745 0.4589178356713426,-0.24754757089825674 0.4629258517034067,-0.2741581705404008 0.46693386773547085,-0.26222991297750775 0.470941883767535,-0.24682380123396397 0.4749498997995991,-0.1969652220187068 0.47895791583166325,-0.1571213471888394 0.4829659318637274,-0.12643123447423543 0.4869739478957915,-9.480066479478078e-4 0.49098196392785565,-6.481031804510595e-2 0.4949899799599198,-7.320276657978553e-2 0.4989979959919839,-0.15598772441369646 0.503006012024048,-0.12875278286314928 0.5070140280561122,-7.874334903704572e-2 0.5110220440881763,-0.1459589714092473 0.5150300601202404,-2.2786686157437286e-2 0.5190380761523046,-4.023572438088818e-2 0.5230460921843687,-0.10626105134624331 0.5270541082164328,-0.15938081191040232 0.531062124248497,-0.12662173421402456 0.5350701402805611,-0.16280783520256958 0.539078156312625,-0.16088720126384526 0.5430861723446891,-5.161484680187578e-2 0.5470941883767533,-0.10277389317451968 0.5511022044088174,-9.253725503574206e-2 0.5551102204408815,-0.12333690357967053 0.5591182364729457,-0.1779813790607686 0.5631262525050098,-0.1801065880659516 0.5671342685370739,-0.1506013548431131 0.5711422845691381,-0.1963246431479232 0.5751503006012022,-0.24875687315147976 0.5791583166332663,-0.24852172750823787 0.5831663326653305,-0.24411477964863237 0.5871743486973946,-0.24166064373132456 0.5911823647294587,-0.2679752605756275 0.5951903807615229,-0.2749620202078289 0.599198396793587,-0.2666334660261531 0.6032064128256511,-0.24867868451804143 0.6072144288577153,-0.25538286983247516 0.6112224448897794,-0.2524640965112871 0.6152304609218435,-0.24834919716485648 0.6192384769539077,-0.22395267906731886 0.6232464929859718,-0.22074768935821165 0.6272545090180359,-0.18288928315954978 0.6312625250501,-0.20769267144792092 0.6352705410821642,-0.19555215095299738 0.6392785571142283,-0.17189897171566382 0.6432865731462925,-0.19265223482577876 0.6472945891783566,-0.13988307317676452 0.6513026052104207,-6.559777174630577e-2 0.6553106212424848,-0.10388637694267899 0.659318637274549,-0.16591952255997322 0.6633266533066131,-0.14723863113059021 0.6673346693386772,-8.274123297714309e-2 0.6713426853707414,-0.12469916379549328 0.6753507014028055,-0.15341635807502574 0.6793587174348696,-0.19939610618351322 0.6833667334669338,-0.19201466960137326 0.6873747494989979,-0.23203188047689827 0.691382765531062,-0.220502531973089 0.6953907815631262,-0.2293541785295079 0.6993987975951903,-0.20994545480891524 0.7034068136272544,-0.23632935829231372 0.7074148296593186,-0.21805253983420247 0.7114228456913827,-0.22737083185323714 0.7154308617234468,-0.2323834148699535 0.719438877755511,-0.24606323557620668 0.7234468937875751,-0.2652839119451592 0.7274549098196392,-0.25700848770499307 0.7314629258517034,-0.26605708615767554 0.7354709418837675,-0.24865746029650182 0.7394789579158316,-0.2844892647748185 0.7434869739478958,-0.29399477909396243 0.7474949899799597,-0.28288388297290035 0.7515030060120238,-0.28011188039384305 0.7555110220440879,-0.2858230504197409 0.7595190380761521,-0.29054516198351554 0.7635270541082162,-0.2764296031421659 0.7675350701402803,-0.27753067781539253 0.7715430861723445,-0.2750662748633479 0.7755511022044086,-0.2732400953460825 0.7795591182364727,-0.2996002997088819 0.7835671342685369,-0.2952098259629622 0.787575150300601,-0.28654629709937407 0.7915831663326651,-0.26522981090108533 0.7955911823647293,-0.25385238120115405 0.7995991983967934,-0.25861135080513453 0.8036072144288575,-0.28505009277306503 0.8076152304609217,-0.288312938361 0.8116232464929858,-0.2994759543964114 0.8156312625250499,-0.27660476482424645 0.819639278557114,-0.23520880915796205 0.8236472945891782,-0.20371863329079465 0.8276553106212423,-0.22854001182478778 0.8316633266533064,-0.23177881053028204 0.8356713426853706,-0.26654046565880796 0.8396793587174347,-0.24851016404714843 0.8436873747494988,-0.23991190081144187 0.847695390781563,-0.24844892897505688 0.8517034068136271,-0.27988117467556883 0.8557114228456912,-0.2746926603190831 0.8597194388777554,-0.29874901132948095 0.8637274549098195,-0.29375065543416445 0.8677354709418836,-0.2858426200111207 0.8717434869739478,-0.2983259390895797 0.8757515030060119,-0.31207998491409006 0.879759519038076,-0.30861649897327714 0.8837675350701402,-0.30101140038352137 0.8877755511022043,-0.315344938559471 0.8917835671342684,-0.30837348797413466 0.8957915831663326,-0.2778205809302192 0.8997995991983967,-0.2845934318502552 0.9038076152304608,-0.31313833293430937 0.907815631262525,-0.27702504144273743 0.9118236472945891,-0.2862877681158077 0.9158316633266532,-0.2687760653919705 0.9198396793587174,-0.28415843129927687 0.9238476953907815,-0.30579661854942375 0.9278557114228456,-0.2873356489955292 0.9318637274549098,-0.31010453981124264 0.9358717434869739,-0.296997107033408 0.939879759519038,-0.2983864310609947 0.9438877755511021,-0.32607998352200307 0.9478957915831663,-0.3340169566196548 0.9519038076152302,-0.3153545596209779 0.9559118236472943,-0.3093960176486291 0.9599198396793585,-0.30719428425447204 0.9639278557114226,-0.26245773365682634 0.9679358717434867,-0.1899193344882969 0.9719438877755509,-0.2319233226751668 0.975951903807615,-0.22495808817132068 0.9799599198396791,-0.2353520732046651 0.9839679358717432,-0.1559153311795396 0.9879759519038074,-0.18753349238084616 0.9919839679358715,-0.24935454483346065 0.9959919839679356,-0.2918989291089247 0.9999999999999998,-0.29955689973124777" /></g><g stroke-width="5.0e-3" stroke="#382A8C" fill="none" stroke-opacity="0.5"><polyline points="-1.0,-0.20015252975203357 -0.9959919839679359,-0.20199868843072943 -0.9919839679358717,-0.21276279353926064 -0.9879759519038076,-0.22230747123531602 -0.9839679358717435,-0.22206477264510072 -0.9799599198396793,-0.21662941204839248 -0.9759519038076152,-0.21153396607823327 -0.9719438877755511,-0.21189866602324814 -0.9679358717434869,-0.22470637788299574 -0.9639278557114228,-0.23386133960119204 -0.9599198396793587,-0.22254459350549038 -0.9559118236472945,-0.212685390993559 -0.9519038076152304,-0.2010292026103383 -0.9478957915831663,-0.20491133978755804 -0.9438877755511023,-0.21368671645003579 -0.9398797595190381,-0.2154162477375876 -0.935871743486974,-0.21452698030744766 -0.9318637274549099,-0.2177636145971784 -0.9278557114228457,-0.231608672036819 -0.9238476953907816,-0.22990171782766988 -0.9198396793587175,-0.22395620939603922 -0.9158316633266533,-0.21860173706507025 -0.9118236472945892,-0.21743244255741323 -0.9078156312625251,-0.21834587016067197 -0.9038076152304609,-0.2058968585729194 -0.8997995991983968,-0.20674169843935986 -0.8957915831663327,-0.20480114191465182 -0.8917835671342685,-0.18312427798021258 -0.8877755511022044,-0.16522357971161106 -0.8837675350701403,-0.18767253432093178 -0.8797595190380761,-0.17289069002849433 -0.875751503006012,-0.17038396856996985 -0.8717434869739479,-0.18178874149302238 -0.8677354709418837,-0.16274417963610488 -0.8637274549098196,-0.17327514296335111 -0.8597194388777555,-0.18282429297454517 -0.8557114228456915,-0.1883771891419307 -0.8517034068136273,-0.16963964275445576 -0.8476953907815632,-0.17239545881773422 -0.8436873747494991,-0.1862022616710579 -0.8396793587174349,-0.18137923588477745 -0.8356713426853708,-0.18809565722859933 -0.8316633266533067,-0.1854677852171328 -0.8276553106212425,-0.19202372701638248 -0.8236472945891784,-0.2006207066701743 -0.8196392785571143,-0.20097555587222737 -0.8156312625250501,-0.19584259380120295 -0.811623246492986,-0.18839597221722515 -0.8076152304609219,-0.18822610546845553 -0.8036072144288577,-0.17676050193396275 -0.7995991983967936,-0.17819316867766932 -0.7955911823647295,-0.18674803103654702 -0.7915831663326653,-0.18747689336487317 -0.7875751503006012,-0.18040439853424584 -0.7835671342685371,-0.1823935103600095 -0.779559118236473,-0.17619595396222176 -0.7755511022044088,-0.17421565501573644 -0.7715430861723447,-0.18477363364277255 -0.7675350701402806,-0.18747476022682708 -0.7635270541082164,-0.18704542041370542 -0.7595190380761523,-0.1948834180430471 -0.7555110220440882,-0.20238139496677776 -0.751503006012024,-0.2034481900287547 -0.7474949899799599,-0.20381812456030057 -0.7434869739478958,-0.19772300358804107 -0.7394789579158316,-0.20079316991722862 -0.7354709418837675,-0.199739178225816 -0.7314629258517034,-0.19721148629259133 -0.7274549098196392,-0.203044587681662 -0.7234468937875751,-0.20006350039172482 -0.719438877755511,-0.20243511103715262 -0.7154308617234469,-0.20039012741535567 -0.7114228456913828,-0.19808601403679493 -0.7074148296593187,-0.18806856382919146 -0.7034068136272545,-0.19838135961509262 -0.6993987975951904,-0.1923069295535763 -0.6953907815631263,-0.20105206504858786 -0.6913827655310621,-0.20443591583364162 -0.687374749498998,-0.204645297629941 -0.6833667334669339,-0.21137665816575635 -0.6793587174348698,-0.21033643697062787 -0.6753507014028056,-0.2125021074326836 -0.6713426853707415,-0.21293581835356723 -0.6673346693386774,-0.21392641265882428 -0.6633266533066133,-0.21009520840039309 -0.6593186372745492,-0.2117196990600313 -0.6553106212424851,-0.2104234833032359 -0.6513026052104209,-0.20821440932016277 -0.6472945891783568,-0.20444058061121073 -0.6432865731462927,-0.20549046181683694 -0.6392785571142285,-0.1997965424038186 -0.6352705410821644,-0.20101774138018513 -0.6312625250501003,-0.18914688993795015 -0.6272545090180361,-0.19076062101931135 -0.623246492985972,-0.18330682833805256 -0.6192384769539079,-0.18828337450611943 -0.6152304609218437,-0.18870054048402052 -0.6112224448897796,-0.1910372908816338 -0.6072144288577155,-0.1866550109805979 -0.6032064128256514,-0.19361926887630265 -0.5991983967935872,-0.20039462924772145 -0.5951903807615231,-0.20738100055531916 -0.591182364729459,-0.20986474652010934 -0.5871743486973948,-0.20350191129381245 -0.5831663326653307,-0.2103944958272459 -0.5791583166332666,-0.21085795700359156 -0.5751503006012024,-0.20956122730237403 -0.5711422845691383,-0.21243811974256777 -0.5671342685370742,-0.21378026955889662 -0.56312625250501,-0.2100122666534271 -0.5591182364729459,-0.20879031528427383 -0.5551102204408818,-0.20990109699875348 -0.5511022044088176,-0.21344392049459293 -0.5470941883767535,-0.22052254960520756 -0.5430861723446894,-0.21745895834084916 -0.5390781563126252,-0.21147086446474417 -0.5350701402805611,-0.20621668088743683 -0.531062124248497,-0.20988354271202547 -0.5270541082164328,-0.20858617839264848 -0.5230460921843687,-0.2122632308601724 -0.5190380761523046,-0.21566849921757336 -0.5150300601202404,-0.21812184743168506 -0.5110220440881764,-0.21995775446588683 -0.5070140280561123,-0.21920940868141148 -0.5030060120240482,-0.21748588203136476 -0.498997995991984,-0.2110348095108816 -0.4949899799599199,-0.20724861301099207 -0.49098196392785576,-0.21215139085073254 -0.4869739478957916,-0.20533994287456325 -0.4829659318637275,-0.21152843904061147 -0.47895791583166336,-0.2138454975942895 -0.47494989979959923,-0.2153957430600092 -0.4709418837675351,-0.2166316757419834 -0.46693386773547096,-0.21580313449465993 -0.46292585170340683,-0.21390476589505925 -0.4589178356713427,-0.2185804768521189 -0.45490981963927857,-0.2244232802883196 -0.45090180360721444,-0.2240731730506379 -0.4468937875751503,-0.2282314425222527 -0.44288577154308617,-0.22392660732447156 -0.43887775551102204,-0.22346930403888776 -0.434869739478958,-0.22152697580949998 -0.4308617234468939,-0.2186451941206904 -0.42685370741482975,-0.21508171681959576 -0.4228456913827656,-0.21275449528561563 -0.4188376753507015,-0.21387527897195557 -0.41482965931863736,-0.2165143693408189 -0.4108216432865732,-0.2163154984385356 -0.4068136272545091,-0.2202076181779491 -0.40280561122244496,-0.21990452119101678 -0.3987975951903808,-0.2147250203858222 -0.3947895791583167,-0.21870561626578267 -0.39078156312625256,-0.2192307296524051 -0.38677354709418843,-0.22520690847907365 -0.3827655310621243,-0.22431851690983817 -0.37875751503006017,-0.22081521439388307 -0.37474949899799603,-0.21918988555827246 -0.3707414829659319,-0.2159244809233024 -0.36673346693386777,-0.21773227173068177 -0.36272545090180364,-0.21721867649428828 -0.3587174348697395,-0.21974162272190034 -0.35470941883767537,-0.21888361746420693 -0.35070140280561124,-0.21895645091645388 -0.3466933867735471,-0.21160466828640012 -0.342685370741483,-0.206536583200854 -0.33867735470941884,-0.2058098778200903 -0.3346693386773547,-0.2042364698510929 -0.3306613226452907,-0.1759523941357939 -0.32665330661322656,-0.158462674348108 -0.3226452905811624,-0.170360348395733 -0.3186372745490983,-0.16536744893295285 -0.31462925851703416,-0.18317044079310207 -0.31062124248497003,-0.18279454172522458 -0.3066132264529059,-0.1705187083513564 -0.30260521042084176,-0.1701780856736066 -0.29859719438877763,-0.1665393905899325 -0.2945891783567135,-0.16191687767440144 -0.29058116232464937,-0.13573254991536332 -0.28657314629258523,-0.15150403931224998 -0.2825651302605211,-0.13703031485550843 -0.27855711422845697,-0.13181705696179125 -0.27454909819639284,-0.14518649079523216 -0.2705410821643287,-0.15443038824298227 -0.2665330661322646,-0.16333186963148516 -0.26252505010020044,-0.15807038283081087 -0.2585170340681363,-0.1628233020811597 -0.2545090180360722,-0.16807417440093264 -0.25050100200400804,-0.1855790145508438 -0.2464929859719439,-0.1832949229189803 -0.24248496993987978,-0.17541773674617078 -0.23847695390781565,-0.15871746817240606 -0.23446893787575152,-0.1575580237322597 -0.2304609218436875,-0.15130267666487163 -0.22645290581162336,-0.16026105590797857 -0.22244488977955923,-0.16217977220311186 -0.2184368737474951,-0.14820708045528086 -0.21442885771543096,-0.13308396715147197 -0.21042084168336683,-0.13596122813251243 -0.2064128256513027,-0.1307712690224071 -0.20240480961923857,-0.14401584796248834 -0.19839679358717444,-0.1469628312009722 -0.1943887775551103,-0.16612592198613207 -0.19038076152304617,-0.16430761245070535 -0.18637274549098204,-0.1711210155280546 -0.1823647294589179,-0.18015301608370626 -0.17835671342685377,-0.1525734223683698 -0.17434869739478964,-0.1514425399440803 -0.1703406813627255,-0.13189552797298232 -0.16633266533066138,-0.1337138372105594 -0.16232464929859725,-0.13374577426887757 -0.1583166332665331,-0.13858826868461727 -0.15430861723446898,-0.13870197279884366 -0.15030060120240485,-0.12289188716979327 -0.14629258517034072,-0.10579803337678662 -0.14228456913827658,-0.10648075364945908 -0.13827655310621245,-9.412363788117628e-2 -0.13426853707414832,-8.157026866481054e-2 -0.1302605210420842,-6.50457354069357e-2 -0.12625250501002017,-4.310734182925324e-2 -0.12224448897795603,-8.481792930601695e-2 -0.1182364729458919,-9.275536719796951e-2 -0.11422845691382777,-9.245878964153487e-2 -0.11022044088176364,-0.10025849680627286 -0.1062124248496995,-0.10198051896380123 -0.10220440881763537,-8.171563495635836e-2 -9.819639278557124e-2,-0.11073095167199432 -9.418837675350711e-2,-0.11711535926143524 -9.018036072144298e-2,-0.12565522012358077 -8.617234468937884e-2,-0.12947409313058855 -8.216432865731471e-2,-0.13360352388769758 -7.815631262525058e-2,-0.13381126270204835 -7.414829659318645e-2,-0.12974444300399923 -7.014028056112231e-2,-0.13900295002189567 -6.613226452905818e-2,-0.14112883255322906 -6.212424849699405e-2,-0.14768713593070126 -5.811623246492992e-2,-0.1587921299946723 -5.4108216432865786e-2,-0.1469868539019502 -5.010020040080165e-2,-0.1490170291077737 -4.609218436873752e-2,-0.15033872567501394 -4.208416833667339e-2,-0.1575463865278015 -3.8076152304609256e-2,-0.15107167608928562 -3.4068136272545124e-2,-0.15001246280271896 -3.0060120240480992e-2,-0.16303774568885887 -2.605210420841686e-2,-0.17020803407049923 -2.204408817635284e-2,-0.17092127643097754 -1.8036072144288706e-2,-0.17650669044364264 -1.4028056112224574e-2,-0.18032303219075585 -1.0020040080160442e-2,-0.17833134431692754 -6.012024048096309e-3,-0.17038097616633607 -2.004008016032177e-3,-0.17090730025303613 2.004008016031955e-3,-0.1714557803502449 6.012024048096087e-3,-0.18208106926242595 1.002004008016022e-2,-0.18444357834701364 1.4028056112224352e-2,-0.1820540600339986 1.8036072144288484e-2,-0.19091669830175073 2.2044088176352616e-2,-0.19192303237203534 2.605210420841675e-2,-0.19315088687515247 3.006012024048088e-2,-0.1899436364805216 3.406813627254501e-2,-0.1950365666216055 3.8076152304609145e-2,-0.1957797388433683 4.208416833667328e-2,-0.1948309167610287 4.609218436873741e-2,-0.19409698895857364 5.010020040080154e-2,-0.1914662766398404 5.4108216432865675e-2,-0.19694462803990087 5.811623246492981e-2,-0.19340363787026116 6.212424849699394e-2,-0.19219404807668616 6.613226452905807e-2,-0.18648610456249348 7.01402805611222e-2,-0.1794902497528038 7.414829659318634e-2,-0.17758430455059138 7.815631262525047e-2,-0.18960758345411322 8.21643286573146e-2,-0.1918361842351266 8.617234468937873e-2,-0.1973556095512884 9.018036072144286e-2,-0.1963264781077938 9.4188376753507e-2,-0.2001737634227535 9.819639278557113e-2,-0.20292165755599034 0.10220440881763526,-0.20245177746398013 0.1062124248496994,-0.1996389241773946 0.11022044088176353,-0.2083023470012041 0.11422845691382766,-0.1919291876198974 0.11823647294589179,-0.19097828209813816 0.12224448897795592,-0.19669905078242345 0.12625250501002006,-0.19252168217449683 0.13026052104208397,-0.19524938988434393 0.1342685370741481,-0.2005561882895437 0.13827655310621223,-0.20979998085931728 0.14228456913827636,-0.20938489904526336 0.1462925851703405,-0.2107468814963963 0.15030060120240463,-0.21204224741481315 0.15430861723446876,-0.21544270100223906 0.1583166332665329,-0.21582866971204284 0.16232464929859702,-0.21027063647478017 0.16633266533066116,-0.21272778949358684 0.1703406813627253,-0.21230076885960492 0.17434869739478942,-0.2173320823211945 0.17835671342685355,-0.21630317891181383 0.18236472945891768,-0.2162328029030388 0.18637274549098182,-0.21384359274361242 0.19038076152304595,-0.21468760427401068 0.19438877755511008,-0.21505159026578025 0.1983967935871742,-0.22189862131555094 0.20240480961923835,-0.21952178988936233 0.20641282565130248,-0.21868810545312534 0.2104208416833666,-0.22206142002206786 0.21442885771543074,-0.22240115396727966 0.21843687374749488,-0.22263760740496663 0.222444889779559,-0.2158114876967855 0.22645290581162314,-0.21355183853522863 0.23046092184368727,-0.22107080342113428 0.2344689378757514,-0.21679886904034884 0.23847695390781554,-0.2024364628640799 0.24248496993987967,-0.20074202677122988 0.2464929859719438,-0.19788212442053876 0.25050100200400793,-0.20066456413393252 0.25450901803607207,-0.17997416515467712 0.2585170340681362,-0.18649592122784775 0.26252505010020033,-0.19114991952638072 0.26653306613226446,-0.19828446864106786 0.2705410821643286,-0.1930923702072299 0.2745490981963927,-0.18718628234842583 0.27855711422845686,-0.19403130062794705 0.282565130260521,-0.19140225706268243 0.2865731462925851,-0.18116774258107537 0.29058116232464926,-0.18215071971918617 0.2945891783567134,-0.17498541596954742 0.2985971943887775,-0.16911975051980155 0.30260521042084165,-0.17084320942576803 0.3066132264529058,-0.159724777786725 0.3106212424849699,-0.15748434853106563 0.31462925851703405,-0.17526008652654534 0.3186372745490982,-0.18195016131055508 0.3226452905811623,-0.18689567003072016 0.32665330661322645,-0.19539559463889 0.3306613226452906,-0.19898264417775557 0.3346693386773545,-0.1983694203691796 0.3386773547094186,-0.19635469031994546 0.34268537074148275,-0.1994654117166399 0.3466933867735469,-0.19779541581108662 0.350701402805611,-0.19826131992093732 0.35470941883767515,-0.20600158704364613 0.3587174348697393,-0.20809226705447614 0.3627254509018034,-0.21552975941652996 0.36673346693386755,-0.21399435275218637 0.3707414829659317,-0.21208008137091217 0.3747494989979958,-0.20368265606066494 0.37875751503005994,-0.2022858388844031 0.3827655310621241,-0.20510936219114795 0.3867735470941882,-0.20950744992336878 0.39078156312625234,-0.2154444788432507 0.3947895791583165,-0.21739285083802018 0.3987975951903806,-0.2232493741690904 0.40280561122244474,-0.22118191207404703 0.40681362725450887,-0.21660505842036093 0.410821643286573,-0.21713664444110736 0.41482965931863713,-0.22038015237263364 0.41883767535070127,-0.22174512041992278 0.4228456913827654,-0.22503255519254883 0.42685370741482953,-0.22459791773961102 0.43086172344689366,-0.22118435267099246 0.4348697394789578,-0.2151884542943382 0.4388777555110219,-0.21768167421759743 0.44288577154308606,-0.21201674212963662 0.4468937875751502,-0.21391689663091706 0.4509018036072143,-0.21912667774103833 0.45490981963927846,-0.2224966730438087 0.4589178356713426,-0.217550627783889 0.4629258517034067,-0.22316941128821588 0.46693386773547085,-0.22126141143666855 0.470941883767535,-0.218569639725538 0.4749498997995991,-0.2089427586607796 0.47895791583166325,-0.20099374391842717 0.4829659318637274,-0.19456201105652715 0.4869739478957915,-0.16907836267142684 0.49098196392785565,-0.17984357316941824 0.4949899799599198,-0.18035152191225534 0.4989979959919839,-0.19571144809740537 0.503006012024048,-0.18988976075176534 0.5070140280561122,-0.17932580749255866 0.5110220440881763,-0.19172076532094728 0.5150300601202404,-0.16668189422692403 0.5190380761523046,-0.1687351011963214 0.5230460921843687,-0.1806605615160708 0.5270541082164328,-0.19055242714293075 0.531062124248497,-0.18369108200931672 0.5350701402805611,-0.1903676148288509 0.539078156312625,-0.18970971714313578 0.5430861723446891,-0.16756136180815007 0.5470941883767533,-0.17666279752715286 0.5511022044088174,-0.1738877743282552 0.5551102204408815,-0.17925611933984353 0.5591182364729457,-0.1896405398918516 0.5631262525050098,-0.18994733636917416 0.5671342685370739,-0.18394517248429998 0.5711422845691381,-0.19276115934147953 0.5751503006012022,-0.203270936109187 0.5791583166332663,-0.2036648198986566 0.5831663326653305,-0.20321830319944822 0.5871743486973946,-0.20312297153488912 0.5911823647294587,-0.2087601427514717 0.5951903807615229,-0.21073549676725944 0.599198396793587,-0.2096935217097069 0.6032064128256511,-0.206649944269083 0.6072144288577153,-0.2083994720551431 0.6112224448897794,-0.20826954288135302 0.6152304609218435,-0.20787219677174706 0.6192384769539077,-0.20337469273104158 0.6232464929859718,-0.20292862462565597 0.6272545090180359,-0.19552618030891733 0.6312625250501,-0.2003544808327946 0.6352705410821642,-0.19799310352825916 0.6392785571142283,-0.19323949675044427 0.6432865731462925,-0.19717056579888959 0.6472945891783566,-0.18658757572501106 0.6513026052104207,-0.17132481017420365 0.6553106212424848,-0.17790127987697513 0.659318637274549,-0.18955905893193714 0.6633266533066131,-0.18558981222154713 0.6673346693386772,-0.1723240324909162 0.6713426853707414,-0.17982631336624633 0.6753507014028055,-0.18502716209379666 0.6793587174348696,-0.19391232182223828 0.6833667334669338,-0.1924843663945841 0.6873747494989979,-0.2004817240626111 0.691382765531062,-0.1984776973708352 0.6953907815631262,-0.20045967199327042 0.6993987975951903,-0.1968516102143496 0.7034068136272544,-0.2022564507947897 0.7074148296593186,-0.1989240489873101 0.7114228456913827,-0.20097158673296078 0.7154308617234468,-0.20222844837471698 0.719438877755511,-0.2052600238011989 0.7234468937875751,-0.2095112577956062 0.7274549098196392,-0.20839152946593986 0.7314629258517034,-0.21068110533565243 0.7354709418837675,-0.2077222389978276 0.7394789579158316,-0.2153203744837312 0.7434869739478958,-0.21791398902778902 0.7474949899799597,-0.21641668019743487 0.7515030060120238,-0.21650632896258415 0.7555110220440879,-0.21827984585743776 0.7595190380761521,-0.21989487538205577 0.7635270541082162,-0.21773053472754755 0.7675350701402803,-0.2185238177149036 0.7715430861723445,-0.218599966034146 0.7755511022044086,-0.2187797257550057 0.7795591182364727,-0.22464045836869317 0.7835671342685369,-0.2244823348085354 0.787575150300601,-0.2234141482651033 0.7915831663326651,-0.21971851348335825 0.7955911823647293,-0.21787262378141903 0.7995991983967934,-0.2191713818588863 0.8036072144288575,-0.22487237399808657 0.8076152304609217,-0.22611786406541057 0.8116232464929858,-0.22899136815504928 0.8156312625250499,-0.22502878058311981 0.819639278557114,-0.21723606858984756 0.8236472945891782,-0.21118878744718084 0.8276553106212423,-0.21599386266976428 0.8316633266533064,-0.21675100964783567 0.8356713426853706,-0.22382065901912773 0.8396793587174347,-0.22061674145072296 0.8436873747494988,-0.21916691177264414 0.847695390781563,-0.22106119783778222 0.8517034068136271,-0.2276234911306636 0.8557114228456912,-0.227077741651037 0.8597194388777554,-0.23239953359478183 0.8637274549098195,-0.23202468111430985 0.8677354709418836,-0.23101542483066506 0.8717434869739478,-0.2340743702946887 0.8757515030060119,-0.2375034985310187 0.879759519038076,-0.2375186490850093 0.8837675350701402,-0.23665192343249875 0.8877755511022043,-0.24020589056313857 0.8917835671342684,-0.23950313596801254 0.8957915831663326,-0.23396269313177764 0.8997995991983967,-0.23573833667231592 0.9038076152304608,-0.24198364257482885 0.907815631262525,-0.23535053047890797 0.9118236472945891,-0.23759851077454985 0.9158316633266532,-0.2345612466919892 0.9198396793587174,-0.23794990358405665 0.9238476953907815,-0.24275088263870082 0.9278557114228456,-0.23962062040535903 0.9318637274549098,-0.244668671353518 0.9358717434869739,-0.24263539546468038 0.939879759519038,-0.24343173570041388 0.9438877755511021,-0.24958449246324932 0.9478957915831663,-0.2519582753115587 0.9519038076152302,-0.2489085316594667 0.9559118236472943,-0.24833127768356544 0.9599198396793585,-0.24846601384076328 0.9639278557114226,-0.240116163108001 0.9679358717434867,-0.22621097174377292 0.9719438877755509,-0.23393786755468404 0.975951903807615,-0.23254836989861294 0.9799599198396791,-0.23449476919997891 0.9839679358717432,-0.21896249445212812 0.9879759519038074,-0.22445943035381555 0.9919839679358715,-0.23625235806022227 0.9959919839679356,-0.24485637619470635 0.9999999999999998,-0.2468362479976134" /></g><g stroke-width="5.0e-3" stroke="#02C814" fill="none" stroke-opacity="0.5"><polyline points="-1.0,-0.206386378998059 -0.9959919839679359,-0.20709738830003255 -0.9919839679358717,-0.21137143766660704 -0.9879759519038076,-0.21518827835719878 -0.9839679358717435,-0.21511904331923448 -0.9799599198396793,-0.212974999480115 -0.9759519038076152,-0.21095457517595262 -0.9719438877755511,-0.2111019707740014 -0.9679358717434869,-0.2162200814582088 -0.9639278557114228,-0.21991320387287594 -0.9599198396793587,-0.2154441763521887 -0.9559118236472945,-0.2115339626929823 -0.9519038076152304,-0.20688603039897613 -0.9478957915831663,-0.20841116159981066 -0.9438877755511023,-0.2118996566986392 -0.9398797595190381,-0.21259693021308013 -0.935871743486974,-0.21225247056963537 -0.9318637274549099,-0.21355369224240384 -0.9278557114228457,-0.2191032886890042 -0.9238476953907816,-0.21846983378608487 -0.9198396793587175,-0.21613802804673543 -0.9158316633266533,-0.2140290904989467 -0.9118236472945892,-0.21357963030906535 -0.9078156312625251,-0.21395926728035997 -0.9038076152304609,-0.20900539586265 -0.8997995991983968,-0.20932975403353915 -0.8957915831663327,-0.20854452130499834 -0.8917835671342685,-0.1998825886834562 -0.8877755511022044,-0.19268156048562657 -0.8837675350701403,-0.20151571702104498 -0.8797595190380761,-0.19556461581462348 -0.875751503006012,-0.19447470354020024 -0.8717434869739479,-0.19892531463726681 -0.8677354709418837,-0.19126065988623697 -0.8637274549098196,-0.1953449497119717 -0.8597194388777555,-0.19906604279482965 -0.8557114228456915,-0.20121722735930359 -0.8517034068136273,-0.19368739619388475 -0.8476953907815632,-0.19469064174262207 -0.8436873747494991,-0.20011133886694843 -0.8396793587174349,-0.19813013496173182 -0.8356713426853708,-0.20074446862733475 -0.8316633266533067,-0.19964446859222795 -0.8276553106212425,-0.20220557179566634 -0.8236472945891784,-0.20559877388875714 -0.8196392785571143,-0.20572031949832081 -0.8156312625250501,-0.2036503195783369 -0.811623246492986,-0.20064450574110937 -0.8076152304609219,-0.20052755122513843 -0.8036072144288577,-0.19589999325453944 -0.7995991983967936,-0.1963953689108433 -0.7955911823647295,-0.19973833968004773 -0.7915831663326653,-0.19997737202456267 -0.7875751503006012,-0.19710276484286005 -0.7835671342685371,-0.1978302157788182 -0.779559118236473,-0.19529367099478667 -0.7755511022044088,-0.19442666652526885 -0.7715430861723447,-0.19856160308377024 -0.7675350701402806,-0.19958530391123264 -0.7635270541082164,-0.19936523263640027 -0.7595190380761523,-0.20244729772607584 -0.7555110220440882,-0.2054134230812512 -0.751503006012024,-0.2058273694393885 -0.7474949899799599,-0.2059653546413821 -0.7434869739478958,-0.20352011436940365 -0.7394789579158316,-0.2047237186791141 -0.7354709418837675,-0.20428638345683492 -0.7314629258517034,-0.20325762990171736 -0.7274549098196392,-0.20556462942572196 -0.7234468937875751,-0.20436255024064587 -0.719438877755511,-0.2052930119302957 -0.7154308617234469,-0.20446378035553325 -0.7114228456913828,-0.20352622140607768 -0.7074148296593187,-0.19950116569520138 -0.7034068136272545,-0.20357616943820134 -0.6993987975951904,-0.2011274283934461 -0.6953907815631263,-0.2045870666998918 -0.6913827655310621,-0.2059253673409146 -0.687374749498998,-0.20600272114175988 -0.6833667334669339,-0.20868852490844336 -0.6793587174348698,-0.20828275355285064 -0.6753507014028056,-0.20915657668611276 -0.6713426853707415,-0.2093428842432995 -0.6673346693386774,-0.209752912166161 -0.6633266533066133,-0.20823679514189553 -0.6593186372745492,-0.20889338953113867 -0.6553106212424851,-0.2083857878871912 -0.6513026052104209,-0.20751005620134622 -0.6472945891783568,-0.2060035157896568 -0.6432865731462927,-0.20641660612509616 -0.6392785571142285,-0.2041362681065093 -0.6352705410821644,-0.20460671643217854 -0.6312625250501003,-0.19984803198437606 -0.6272545090180361,-0.20044979697654253 -0.623246492985972,-0.19743311867036406 -0.6192384769539079,-0.1993644356183656 -0.6152304609218437,-0.1994866344048991 -0.6112224448897796,-0.20037698798535297 -0.6072144288577155,-0.1985885141998096 -0.6032064128256514,-0.20132329814922956 -0.5991983967935872,-0.20400039552742988 -0.5951903807615231,-0.2067790812168906 -0.591182364729459,-0.20777437957498512 -0.5871743486973948,-0.2052377006691234 -0.5831663326653307,-0.20798672929322903 -0.5791583166332666,-0.20818123041245373 -0.5751503006012024,-0.20767276830898707 -0.5711422845691383,-0.20883054471657114 -0.5671342685370742,-0.20938133669582293 -0.56312625250501,-0.20789114414123677 -0.5591182364729459,-0.20741040744455164 -0.5551102204408818,-0.20785970412794663 -0.5511022044088176,-0.20928449161729068 -0.5470941883767535,-0.21213278867172103 -0.5430861723446894,-0.21093976157775773 -0.5390781563126252,-0.20856962322031636 -0.5350701402805611,-0.2064793901659573 -0.531062124248497,-0.20794430381807427 -0.5270541082164328,-0.20743269861510094 -0.5230460921843687,-0.20890751131606233 -0.5190380761523046,-0.2102826504701697 -0.5150300601202404,-0.211285219414995 -0.5110220440881764,-0.21204660539701448 -0.5070140280561123,-0.21177812802934604 -0.5030060120240482,-0.21111754477269684 -0.498997995991984,-0.20856165228759294 -0.4949899799599199,-0.20705687047328836 -0.49098196392785576,-0.2090179106876704 -0.4869739478957916,-0.20630595942409302 -0.4829659318637275,-0.2087763781915265 -0.47895791583166336,-0.2097136854935856 -0.47494989979959923,-0.21034982752820797 -0.4709418837675351,-0.21086390633841412 -0.46693386773547096,-0.21055487718191468 -0.46292585170340683,-0.20981581925140635 -0.4589178356713427,-0.21170230914287158 -0.45490981963927857,-0.2140676475539227 -0.45090180360721444,-0.21396821060308746 -0.4468937875751503,-0.2156727295581784 -0.44288577154308617,-0.21399867367862524 -0.43887775551102204,-0.21385462777403264 -0.434869739478958,-0.21311495175509043 -0.4308617234468939,-0.2119946734714916 -0.42685370741482975,-0.21059494051969896 -0.4228456913827656,-0.20968143681856788 -0.4188376753507015,-0.2101414643102233 -0.41482965931863736,-0.2112115431036482 -0.4108216432865732,-0.2111525896451698 -0.4068136272545091,-0.21272996439917247 -0.40280561122244496,-0.2126379233632295 -0.3987975951903808,-0.21059401941452205 -0.3947895791583167,-0.212202463272966 -0.39078156312625256,-0.2124379615394164 -0.38677354709418843,-0.21485642260778293 -0.3827655310621243,-0.21454144238269357 -0.37875751503006017,-0.213177568927302 -0.37474949899799603,-0.21255703969353612 -0.3707414829659319,-0.2112764865893405 -0.36673346693386777,-0.21201769112762825 -0.36272545090180364,-0.21183444980530408 -0.3587174348697395,-0.21286482616014757 -0.35470941883767537,-0.2125483546085276 -0.35070140280561124,-0.21260219923646206 -0.3466933867735471,-0.20968630653363818 -0.342685370741483,-0.20766750986554938 -0.33867735470941884,-0.20737214486140032 -0.3346693386773547,-0.20673676951187248 -0.3306613226452907,-0.19543368617861556 -0.32665330661322656,-0.1883807993290414 -0.3226452905811624,-0.19300284927426536 -0.3186372745490983,-0.1909209148838794 -0.31462925851703416,-0.19792078031946214 -0.31062124248497003,-0.19771161449198293 -0.3066132264529059,-0.1927510924550444 -0.30260521042084176,-0.1925262604679565 -0.29859719438877763,-0.19098485613995264 -0.2945891783567135,-0.18904272903045471 -0.29058116232464937,-0.17848480720669013 -0.28657314629258523,-0.1846016689842821 -0.2825651302605211,-0.17869267647915044 -0.27855711422845697,-0.17644590918163838 -0.27454909819639284,-0.18159997571720787 -0.2705410821643287,-0.185144241934468 -0.2665330661322646,-0.18857629909978812 -0.26252505010020044,-0.18637358068994603 -0.2585170340681363,-0.18815893730143873 -0.2545090180360722,-0.19015550993454755 -0.25050100200400804,-0.19706351077953832 -0.2464929859719439,-0.19610421796606792 -0.24248496993987978,-0.1929037625265161 -0.23847695390781565,-0.18615890661019796 -0.23446893787575152,-0.18558591183381268 -0.2304609218436875,-0.18297436076229145 -0.22645290581162336,-0.18642715484831485 -0.22244488977955923,-0.18708939217422194 -0.2184368737474951,-0.18140525322322965 -0.21442885771543096,-0.1752291067170576 -0.21042084168336683,-0.17620984877011492 -0.2064128256513027,-0.17397491416055344 -0.20240480961923857,-0.17909401655795232 -0.19839679358717444,-0.18013166036095318 -0.1943887775551103,-0.187660350640652 -0.19038076152304617,-0.18684709213778694 -0.18637274549098204,-0.18948187768228753 -0.1823647294589179,-0.1930211362570089 -0.17835671342685377,-0.1819380934332121 -0.17434869739478964,-0.18136848391302363 -0.1703406813627255,-0.17343160997893925 -0.16633266533066138,-0.17399252595250392 -0.16232464929859725,-0.17384417102516025 -0.1583166332665331,-0.17562041738393452 -0.15430861723446898,-0.17551781355578644 -0.15030060120240485,-0.16904667763871029 -0.14629258517034072,-0.16202431812836482 -0.14228456913827658,-0.16207179949927497 -0.13827655310621245,-0.15690530170762274 -0.13426853707414832,-0.15163045821989107 -0.1302605210420842,-0.14473575209197587 -0.12625250501002017,-0.13563261006963667 -0.12224448897795603,-0.1519531908407047 -0.1182364729458919,-0.15486148302924574 -0.11422845691382777,-0.15449370439768584 -0.11022044088176364,-0.1573680424481072 -0.1062124248496995,-0.15782880197791427 -0.10220440881763537,-0.14949002652521104 -9.819639278557124e-2,-0.160839292810237 -9.418837675350711e-2,-0.16319554631264288 -9.018036072144298e-2,-0.16643107254721956 -8.617234468937884e-2,-0.1677973443315155 -8.216432865731471e-2,-0.16929777510681676 -7.815631262525058e-2,-0.16923840950047997 -7.414829659318645e-2,-0.167468471949206 -7.014028056112231e-2,-0.1710252362945619 -6.613226452905818e-2,-0.17174859958630118 -6.212424849699405e-2,-0.17425227717003255 -5.811623246492992e-2,-0.1785922345605857 -5.4108216432865786e-2,-0.1737869575110098 -5.010020040080165e-2,-0.1744928079718684 -4.609218436873752e-2,-0.17492027505842134 -4.208416833667339e-2,-0.17770780651328788 -3.8076152304609256e-2,-0.1750351409609472 -3.4068136272545124e-2,-0.1745153871669487 -3.0060120240480992e-2,-0.17963231935614699 -2.605210420841686e-2,-0.18243628306992532 -2.204408817635284e-2,-0.18267287321348202 -1.8036072144288706e-2,-0.18486149706408328 -1.4028056112224574e-2,-0.18635546136044112 -1.0020040080160442e-2,-0.18553409666859277 -6.012024048096309e-3,-0.18232305290670137 -2.004008016032177e-3,-0.18248596551730123 2.004008016031955e-3,-0.18265919309517675 6.012024048096087e-3,-0.18686712346801626 1.002004008016022e-2,-0.18779336358653675 1.4028056112224352e-2,-0.18682350520119195 1.8036072144288484e-2,-0.19035112550276456 2.2044088176352616e-2,-0.1907558837720521 2.605210420841675e-2,-0.19125168099560974 3.006012024048088e-2,-0.18997557734656645 3.406813627254501e-2,-0.19201330516704007 3.8076152304609145e-2,-0.19232253561870605 4.208416833667328e-2,-0.19195641991989465 4.609218436873741e-2,-0.19167397127493924 5.010020040080154e-2,-0.19063066512375526 5.4108216432865675e-2,-0.1928260845353278 5.811623246492981e-2,-0.19142528312509888 6.212424849699394e-2,-0.19094890238736306 6.613226452905807e-2,-0.18866936574549298 7.01402805611222e-2,-0.185860610231251 7.414829659318634e-2,-0.185072216405736 7.815631262525047e-2,-0.18985410022042193 8.21643286573146e-2,-0.1907447758820443 8.617234468937873e-2,-0.19295767326956326 9.018036072144286e-2,-0.1925631555885743 9.4188376753507e-2,-0.19411751291226897 9.819639278557113e-2,-0.1952410458920275 0.10220440881763526,-0.1950834175136924 0.1062124248496994,-0.1939869464473798 0.11022044088176353,-0.19747604522782158 0.11422845691382766,-0.19096678663735855 0.11823647294589179,-0.19058986131702416 0.12224448897795592,-0.1928805697365802 0.12625250501002006,-0.19122383361913786 0.13026052104208397,-0.19232038592817846 0.1342685370741481,-0.19445552427913637 0.13827655310621223,-0.1981787006778153 0.14228456913827636,-0.1980587058846205 0.1462925851703405,-0.19864866712149676 0.15030060120240463,-0.1992150562139714 0.15430861723446876,-0.20062676933896872 0.1583166332665329,-0.20084009662149693 0.16232464929859702,-0.19867534446797053 0.16633266533066116,-0.19970468580637368 0.1703406813627253,-0.19958549499614653 0.17434869739478942,-0.2016495079363948 0.17835671342685355,-0.20130005461549805 0.18236472945891768,-0.2013315019285935 0.18637274549098182,-0.20043448388661023 0.19038076152304595,-0.20082552280281873 0.19438877755511008,-0.20102625498131377 0.1983967935871742,-0.20382237628201894 0.20240480961923835,-0.2029429290424155 0.20641282565130248,-0.2026751497338336 0.2104208416833666,-0.20408900508116123 0.21442885771543074,-0.20429647946008478 0.21843687374749488,-0.20446314452369196 0.222444889779559,-0.20180297829111882 0.22645290581162314,-0.20095413820620878 0.23046092184368727,-0.20401372978000987 0.2344689378757514,-0.20237148858908172 0.23847695390781554,-0.19667996696676282 0.24248496993987967,-0.19602453782702067 0.2464929859719438,-0.19489856552914708 0.25050100200400793,-0.19602373020856878 0.25450901803607207,-0.18776238073405138 0.2585170340681362,-0.19034054621694363 0.26252505010020033,-0.19218723143263217 0.26653306613226446,-0.19503782031291772 0.2705410821643286,-0.1929727666421992 0.2745490981963927,-0.19060970595215176 0.27855711422845686,-0.19333479555718058 0.282565130260521,-0.19228530140088507 0.2865731462925851,-0.18818643100149246 0.29058116232464926,-0.18855154311088063 0.2945891783567134,-0.1856590853671538 0.2985971943887775,-0.18326977672162503 0.30260521042084165,-0.18390266388476872 0.3066132264529058,-0.1794027057500175 0.3106212424849699,-0.17842793188373296 0.31462925851703405,-0.1854550905847423 0.3186372745490982,-0.18809095695308486 0.3226452905811623,-0.1900450943683779 0.32665330661322645,-0.19343356341889006 0.3306613226452906,-0.1948765924538255 0.3346693386773545,-0.19464729165424777 0.3386773547094186,-0.19385560383145917 0.34268537074148275,-0.19511016831463712 0.3466933867735469,-0.1944589466779849 0.350701402805611,-0.19465843472320365 0.35470941883767515,-0.1977701989885019 0.3587174348697393,-0.1986394960707013 0.3627254509018034,-0.2016537849481176 0.36673346693386755,-0.20109423092214673 0.3707414829659317,-0.20037913920431982 0.3747494989979958,-0.19706438685452388 0.37875751503005994,-0.19653146460573678 0.3827655310621241,-0.19768414009385404 0.3867735470941882,-0.19947373735556628 0.39078156312625234,-0.20188987662912983 0.3947895791583165,-0.20272358829219983 0.3987975951903806,-0.20512636215528457 0.40280561122244474,-0.20437062150891216 0.40681362725450887,-0.20260502804461056 0.410821643286573,-0.20287337039111053 0.41482965931863713,-0.20422846799894234 0.41883767535070127,-0.20483909176767157 0.4228456913827654,-0.20622250466186798 0.42685370741482953,-0.206123225149765 0.43086172344689366,-0.20482978532894391 0.4348697394789578,-0.20249410660558786 0.4388777555110219,-0.20354255087294404 0.44288577154308606,-0.20133073592814998 0.4468937875751502,-0.20213367210411726 0.4509018036072143,-0.20426601201379524 0.45490981963927846,-0.2056742974766279 0.4589178356713426,-0.2037606457543194 0.4629258517034067,-0.20606500293775853 0.46693386773547085,-0.20536889640791656 0.470941883767535,-0.20435416349624014 0.4749498997995991,-0.20055652608431418 0.47895791583166325,-0.1974084247966018 0.4829659318637274,-0.19484910816972933 0.4869739478957915,-0.18465606946718083 0.49098196392785565,-0.18889767992150686 0.4949899799599198,-0.1890645129038403 0.4989979959919839,-0.19517292721668933 0.503006012024048,-0.19284589803854302 0.5070140280561122,-0.1886087459505692 0.5110220440881763,-0.19352884058958575 0.5150300601202404,-0.18350743191139418 0.5190380761523046,-0.18426109701723425 0.5230460921843687,-0.1889677081060499 0.5270541082164328,-0.19289091394121116 0.531062124248497,-0.19013676428408544 0.5350701402805611,-0.19278142916317698 0.539078156312625,-0.19250837120920306 0.5430861723446891,-0.18363864701916044 0.5470941883767533,-0.18721393046302415 0.5511022044088174,-0.18606188522460299 0.5551102204408815,-0.18816014734827813 0.5591182364729457,-0.19227813408261973 0.5631262525050098,-0.19239009218596503 0.5671342685370739,-0.18997910393685213 0.5711422845691381,-0.19348143511272609 0.5751503006012022,-0.19768320913015092 0.5791583166332663,-0.19786275657404118 0.5831663326653305,-0.19770687546911248 0.5871743486973946,-0.19769036252442007 0.5911823647294587,-0.19996745171160224 0.5951903807615229,-0.2007926677992189 0.599198396793587,-0.2004149355610927 0.6032064128256511,-0.19923355941594123 0.6072144288577153,-0.19996289049771587 0.6112224448897794,-0.1999441648677539 0.6152304609218435,-0.19981798002272233 0.6192384769539077,-0.19804998275898977 0.6232464929859718,-0.1978923799449701 0.6272545090180359,-0.19495038426634426 0.6312625250501,-0.19688408542942726 0.6352705410821642,-0.19595281375772677 0.6392785571142283,-0.19405890098990097 0.6432865731462925,-0.19562797753161032 0.6472945891783566,-0.19140035209434003 0.6513026052104207,-0.1852773173986031 0.6553106212424848,-0.1878511018797988 0.659318637274549,-0.19247364171979042 0.6633266533066131,-0.19087410646967584 0.6673346693386772,-0.185547592983344 0.6713426853707414,-0.18849471769321557 0.6753507014028055,-0.190540010443767 0.6793587174348696,-0.19407195253136544 0.6833667334669338,-0.19349976972006389 0.6873747494989979,-0.19669498774719119 0.691382765531062,-0.19590792023336367 0.6953907815631262,-0.19671084423704432 0.6993987975951903,-0.19528186250165291 0.7034068136272544,-0.19745031185720396 0.7074148296593186,-0.19613576463635807 0.7114228456913827,-0.19696579584568652 0.7154308617234468,-0.19748433294671686 0.719438877755511,-0.19871598369207266 0.7234468937875751,-0.2004430006632706 0.7274549098196392,-0.20003064735467935 0.7314629258517034,-0.20097992348903593 0.7354709418837675,-0.19983403032707647 0.7394789579158316,-0.20290610828988243 0.7434869739478958,-0.20399341914745295 0.7474949899799597,-0.20344913025608335 0.7515030060120238,-0.20353631751187218 0.7555110220440879,-0.2042975901705878 0.7595190380761521,-0.20499949335349532 0.7635270541082162,-0.20419199906686403 0.7675350701402803,-0.20456314953765675 0.7715430861723445,-0.20464889203308656 0.7755511022044086,-0.20477607645019447 0.7795591182364727,-0.2071780186202482 0.7835671342685369,-0.20718392957271836 0.787575150300601,-0.2068247640881512 0.7915831663326651,-0.20541075341240644 0.7955911823647293,-0.2047283753831517 0.7995991983967934,-0.2053003262140939 0.8036072144288575,-0.20763787897940622 0.8076152304609217,-0.2082049754858306 0.8116232464929858,-0.2094268538158215 0.8156312625250499,-0.20791737968310542 0.819639278557114,-0.20486487021116517 0.8236472945891782,-0.20249321042610324 0.8276553106212423,-0.2044506630191495 0.8316633266533064,-0.20479935493131252 0.8356713426853706,-0.20767699716109334 0.8396793587174347,-0.20645801696816346 0.8436873747494988,-0.20593356937460705 0.847695390781563,-0.206744322931264 0.8517034068136271,-0.20942880889487103 0.8557114228456912,-0.20928235243365068 0.8597194388777554,-0.21148459494918415 0.8637274549098195,-0.21141742357534132 0.8677354709418836,-0.2110948586734881 0.8717434869739478,-0.21239944067826266 0.8757515030060119,-0.2138596210617637 0.879759519038076,-0.21395963826445485 0.8837675350701402,-0.21370586639539013 0.8877755511022043,-0.21522146009330467 0.8917835671342684,-0.21503906820127605 0.8957915831663326,-0.2129155387220345 0.8997995991983967,-0.2137106342343702 0.9038076152304608,-0.21630129463009984 0.907815631262525,-0.21374424070526887 0.9118236472945891,-0.21473093234919038 0.9158316633266532,-0.2136044219710328 0.9198396793587174,-0.21504564114130786 0.9238476953907815,-0.21706119869860563 0.9278557114228456,-0.21590821066926402 0.9318637274549098,-0.21802633326877796 0.9358717434869739,-0.2173168684578043 0.939879759519038,-0.21773685579380908 0.9438877755511021,-0.22030669003844028 0.9478957915831663,-0.2213757530875693 0.9519038076152302,-0.2202736883334271 0.9559118236472943,-0.22015606615791838 0.9599198396793585,-0.22032226688651657 0.9639278557114226,-0.2170846414864086 0.9679358717434867,-0.2116039192099608 0.9719438877755509,-0.214756007878679 0.975951903807615,-0.2142753721659303 0.9799599198396791,-0.2151275014865205 0.9839679358717432,-0.2089846740315281 0.9879759519038074,-0.21122358174659617 0.9919839679358715,-0.21599767809632242 0.9959919839679356,-0.2195256843907185 0.9999999999999998,-0.22042004137264515" /></g><g /><g stroke-width="4.0e-3" stroke="#3764A0" fill="#FFFFFF" fill-opacity="1.0" stroke-opacity="0.5"><rect width="0.4304462887010113" height="0.25817398204276576" x="0.3449300744674789" y="8.456460076186187e-2" /></g><g stroke-width="0.0" stroke="none" fill="#666666" fill-opacity="1.0" font-size="4.000000000000001e-2" text-anchor="start"><text x="0.3686788352233968" y="0.30338864502115775">rate = 0.996</text></g><g stroke-width="5.0e-3" stroke="#02C814" fill="none" stroke-opacity="0.5"><polyline points="0.7011614858062469,0.2970542647925992 0.7486590073180825,0.2970542647925992" /></g><g stroke-width="0.0" stroke="none" fill="#666666" fill-opacity="1.0" font-size="4.000000000000001e-2" text-anchor="start"><text x="0.3686788352233968" y="0.24868263395633378">rate = 0.99</text></g><g stroke-width="5.0e-3" stroke="#382A8C" fill="none" stroke-opacity="0.5"><polyline points="0.7011614858062469,0.24234825372777521 0.7486590073180825,0.24234825372777521" /></g><g stroke-width="0.0" stroke="none" fill="#666666" fill-opacity="1.0" font-size="4.000000000000001e-2" text-anchor="start"><text x="0.3686788352233968" y="0.1939766228915098">rate = 0.95</text></g><g stroke-width="5.0e-3" stroke="#3C7F2B" fill="none" stroke-opacity="0.5"><polyline points="0.7011614858062469,0.1876422426629512 0.7486590073180825,0.1876422426629512" /></g><g stroke-width="0.0" stroke="none" fill="#666666" fill-opacity="1.0" font-size="4.000000000000001e-2" text-anchor="start"><text x="0.3686788352233968" y="0.13927061182668582">zero</text></g><g stroke-width="5.0e-3" stroke="#C58C4B" fill="none" stroke-opacity="0.5"><polyline points="0.7011614858062468,0.13293623159812726 0.7486590073180825,0.13293623159812726" /></g><g /></svg>