<svg viewBox="-1.3559678118201535 -0.68275 2.3634678118201533 1.5020159178324475" xmlns="http://www.w3.org/2000/svg" xmlns:xlink="http://www.w3.org/1999/xlink" version="1.1" width="600.0" height="300.0"><g stroke-width="0.0" stroke="none" fill="#000000" transform="translate(-0.17423390591007692, -0.57175)" fill-opacity="1.0" font-size="0.12" text-anchor="middle"><text transform="rotate(0.0, 0.0, -0.0)" x="0.0" y="-0.0">beta on std</text></g><g stroke-width="0.0" stroke="#000000" fill="#666666" fill-opacity="3.0e-2" stroke-opacity="0.0"><rect width="1.9999999999999998" height="1.0" x="-1.0" y="-0.5" /></g><g stroke-width="5.0e-3" stroke="#A8E5EE" fill="none" stroke-opacity="0.3"><polyline points="-1.005,0.5 1.0049999999999997,0.5" /></g><g stroke-width="5.0e-3" stroke="#A8E5EE" fill="none" stroke-opacity="0.3"><polyline points="-1.005,0.3333333333333333 1.0049999999999997,0.3333333333333333" /></g><g stroke-width="5.0e-3" stroke="#A8E5EE" fill="none" stroke-opacity="0.3"><polyline points="-1.005,0.16666666666666663 1.0049999999999997,0.16666666666666663" /></g><g stroke-width="5.0e-3" stroke="#A8E5EE" fill="none" stroke-opacity="0.3"><polyline points="-1.005,-0.0 1.0049999999999997,-0.0" /></g><g stroke-width="5.0e-3" stroke="#A8E5EE" fill="none" stroke-opacity="0.3"><polyline points="-1.005,-0.16666666666666674 1.0049999999999997,-0.16666666666666674" /></g><g stroke-width="5.0e-3" stroke="#A8E5EE" fill="none" stroke-opacity="0.3"><polyline points="-1.005,-0.33333333333333337 1.0049999999999997,-0.33333333333333337" /></g><g stroke-width="5.0e-3" stroke="#A8E5EE" fill="none" stroke-opacity="0.3"><polyline points="-1.005,-0.5 1.0049999999999997,-0.5" /></g><g stroke-width="0.0" stroke="none" fill="#666666" fill-opacity="1.0" font-size="5.0e-2" text-anchor="end"><text x="-1.2309678118201535" y="0.5145">-0.04</text></g><g stroke-width="0.0" stroke="none" fill="#666666" fill-opacity="1.0" font-size="5.0e-2" text-anchor="end"><text x="-1.2309678118201535" y="0.3478333333333333">-0.02</text></g><g stroke-width="0.0" stroke="none" fill="#666666" fill-opacity="1.0" font-size="5.0e-2" text-anchor="end"><text x="-1.2309678118201535" y="0.18116666666666664">0.00</text></g><g stroke-width="0.0" stroke="none" fill="#666666" fill-opacity="1.0" font-size="5.0e-2" text-anchor="end"><text x="-1.2309678118201535" y="1.4499999999999999e-2">0.02</text></g><g stroke-width="0.0" stroke="none" fill="#666666" fill-opacity="1.0" font-size="5.0e-2" text-anchor="end"><text x="-1.2309678118201535" y="-0.15216666666666673">0.04</text></g><g stroke-width="0.0" stroke="none" fill="#666666" fill-opacity="1.0" font-size="5.0e-2" text-anchor="end"><text x="-1.2309678118201535" y="-0.31883333333333336">0.06</text></g><g stroke-width="0.0" stroke="none" fill="#666666" fill-opacity="1.0" font-size="5.0e-2" text-anchor="end"><text x="-1.2309678118201535" y="-0.4855">0.08</text></g><g stroke-width="0.0" stroke="#2C429D" fill="#5F0391" fill-opacity="1.0" stroke-opacity="0.4"><line stroke-width="5.0e-3" transform="rotate(-90.0, -1.2008928118201536, 0.5)" x1="-1.2008928118201536" y1="0.515" x2="-1.2008928118201536" y2="0.485" /><line stroke-width="5.0e-3" transform="rotate(-90.0, -1.2008928118201536, 0.3333333333333333)" x1="-1.2008928118201536" y1="0.34833333333333333" x2="-1.2008928118201536" y2="0.3183333333333333" /><line stroke-width="5.0e-3" transform="rotate(-90.0, -1.2008928118201536, 0.16666666666666663)" x1="-1.2008928118201536" y1="0.18166666666666664" x2="-1.2008928118201536" y2="0.15166666666666662" /><line stroke-width="5.0e-3" transform="rotate(-90.0, -1.2008928118201536, -0.0)" x1="-1.2008928118201536" y1="1.5e-2" x2="-1.2008928118201536" y2="-1.5e-2" /><line stroke-width="5.0e-3" transform="rotate(-90.0, -1.2008928118201536, -0.16666666666666674)" x1="-1.2008928118201536" y1="-0.15166666666666673" x2="-1.2008928118201536" y2="-0.18166666666666675" /><line stroke-width="5.0e-3" transform="rotate(-90.0, -1.2008928118201536, -0.33333333333333337)" x1="-1.2008928118201536" y1="-0.31833333333333336" x2="-1.2008928118201536" y2="-0.3483333333333334" /><line stroke-width="5.0e-3" transform="rotate(-90.0, -1.2008928118201536, -0.5)" x1="-1.2008928118201536" y1="-0.485" x2="-1.2008928118201536" y2="-0.515" /></g><g stroke-width="0.0" stroke="#666666" fill="#5F0391" fill-opacity="0.5" stroke-opacity="0.0"><rect width="4.999999999999893e-3" height="1.0" x="-1.1908928118201536" y="-0.5" /></g><g stroke-width="5.0e-3" stroke="#A8E5EE" fill="none" stroke-opacity="0.3"><polyline points="-1.0,0.505 -1.0,-0.505" /></g><g stroke-width="5.0e-3" stroke="#A8E5EE" fill="none" stroke-opacity="0.3"><polyline points="-0.871743486973948,0.505 -0.871743486973948,-0.505" /></g><g stroke-width="5.0e-3" stroke="#A8E5EE" fill="none" stroke-opacity="0.3"><polyline points="-0.6152304609218437,0.505 -0.6152304609218437,-0.505" /></g><g stroke-width="5.0e-3" stroke="#A8E5EE" fill="none" stroke-opacity="0.3"><polyline points="-0.36272545090180375,0.505 -0.36272545090180375,-0.505" /></g><g stroke-width="5.0e-3" stroke="#A8E5EE" fill="none" stroke-opacity="0.3"><polyline points="-0.11022044088176364,0.505 -0.11022044088176364,-0.505" /></g><g stroke-width="5.0e-3" stroke="#A8E5EE" fill="none" stroke-opacity="0.3"><polyline points="0.1342685370741481,0.505 0.1342685370741481,-0.505" /></g><g stroke-width="5.0e-3" stroke="#A8E5EE" fill="none" stroke-opacity="0.3"><polyline points="0.3867735470941882,0.505 0.3867735470941882,-0.505" /></g><g stroke-width="5.0e-3" stroke="#A8E5EE" fill="none" stroke-opacity="0.3"><polyline points="0.6432865731462925,0.505 0.6432865731462925,-0.505" /></g><g stroke-width="5.0e-3" stroke="#A8E5EE" fill="none" stroke-opacity="0.3"><polyline points="0.8997995991983965,0.505 0.8997995991983965,-0.505" /></g><g stroke-width="5.0e-3" stroke="#A8E5EE" fill="none" stroke-opacity="0.3"><polyline points="0.9999999999999998,0.505 0.9999999999999998,-0.505" /></g><g stroke-width="0.0" stroke="none" fill="#666666" fill-opacity="1.0" font-size="5.0e-2" text-anchor="end"><text transform="rotate(-45.0, -1.0, 0.6062500000000001)" x="-1.0" y="0.6062500000000001">12 Feb 2018</text></g><g stroke-width="0.0" stroke="none" fill="#666666" fill-opacity="1.0" font-size="5.0e-2" text-anchor="end"><text transform="rotate(-45.0, -0.871743486973948, 0.6062500000000001)" x="-0.871743486973948" y="0.6062500000000001">31 Mar 2018</text></g><g stroke-width="0.0" stroke="none" fill="#666666" fill-opacity="1.0" font-size="5.0e-2" text-anchor="end"><text transform="rotate(-45.0, -0.6152304609218437, 0.6062500000000001)" x="-0.6152304609218437" y="0.6062500000000001">30 Jun 2018</text></g><g stroke-width="0.0" stroke="none" fill="#666666" fill-opacity="1.0" font-size="5.0e-2" text-anchor="end"><text transform="rotate(-45.0, -0.36272545090180375, 0.6062500000000001)" x="-0.36272545090180375" y="0.6062500000000001">30 Sep 2018</text></g><g stroke-width="0.0" stroke="none" fill="#666666" fill-opacity="1.0" font-size="5.0e-2" text-anchor="end"><text transform="rotate(-45.0, -0.11022044088176364, 0.6062500000000001)" x="-0.11022044088176364" y="0.6062500000000001">31 Dec 2018</text></g><g stroke-width="0.0" stroke="none" fill="#666666" fill-opacity="1.0" font-size="5.0e-2" text-anchor="end"><text transform="rotate(-45.0, 0.1342685370741481, 0.6062500000000001)" x="0.1342685370741481" y="0.6062500000000001">31 Mar 2019</text></g><g stroke-width="0.0" stroke="none" fill="#666666" fill-opacity="1.0" font-size="5.0e-2" text-anchor="end"><text transform="rotate(-45.0, 0.3867735470941882, 0.6062500000000001)" x="0.3867735470941882" y="0.6062500000000001">30 Jun 2019</text></g><g stroke-width="0.0" stroke="none" fill="#666666" fill-opacity="1.0" font-size="5.0e-2" text-anchor="end"><text transform="rotate(-45.0, 0.6432865731462925, 0.6062500000000001)" x="0.6432865731462925" y="0.6062500000000001">30 Sep 2019</text></g><g stroke-width="0.0" stroke="none" fill="#666666" fill-opacity="1.0" font-size="5.0e-2" text-anchor="end"><text transform="rotate(-45.0, 0.8997995991983965, 0.6062500000000001)" x="0.8997995991983965" y="0.6062500000000001">31 Dec 2019</text></g><g stroke-width="0.0" stroke="none" fill="#666666" fill-opacity="1.0" font-size="5.0e-2" text-anchor="end"><text transform="rotate(-45.0, 0.9999999999999998, 0.6062500000000001)" x="0.9999999999999998" y="0.6062500000000001">06 Feb 2020</text></g><g stroke-width="0.0" stroke="#2C429D" fill="#5F0391" fill-opacity="1.0" stroke-opacity="0.4"><line stroke-width="5.0e-3" x1="-1.0" y1="0.54" x2="-1.0" y2="0.51" /><line stroke-width="5.0e-3" x1="-0.871743486973948" y1="0.54" x2="-0.871743486973948" y2="0.51" /><line stroke-width="5.0e-3" x1="-0.6152304609218437" y1="0.54" x2="-0.6152304609218437" y2="0.51" /><line stroke-width="5.0e-3" x1="-0.36272545090180375" y1="0.54" x2="-0.36272545090180375" y2="0.51" /><line stroke-width="5.0e-3" x1="-0.11022044088176364" y1="0.54" x2="-0.11022044088176364" y2="0.51" /><line stroke-width="5.0e-3" x1="0.1342685370741481" y1="0.54" x2="0.1342685370741481" y2="0.51" /><line stroke-width="5.0e-3" x1="0.3867735470941882" y1="0.54" x2="0.3867735470941882" y2="0.51" /><line stroke-width="5.0e-3" x1="0.6432865731462925" y1="0.54" x2="0.6432865731462925" y2="0.51" /><line stroke-width="5.0e-3" x1="0.8997995991983965" y1="0.54" x2="0.8997995991983965" y2="0.51" /><line stroke-width="5.0e-3" x1="0.9999999999999998" y1="0.54" x2="0.9999999999999998" y2="0.51" /></g><g stroke-width="0.0" stroke="#666666" fill="#5F0391" fill-opacity="0.5" stroke-opacity="0.0"><rect width="1.9999999999999998" height="5.0000000000000044e-3" x="-1.0" y="0.51" /></g><g stroke-width="5.0e-3" stroke="#C58C4B" fill="none" stroke-opacity="0.5"><polyline points="-1.0,0.16666666666666663 0.9999999999999998,0.16666666666666663" /></g><g stroke-width="5.0e-3" stroke="#3C7F2B" fill="none" stroke-opacity="0.5"><polyline points="-1.0,0.13512506915725175 -0.9959919839679359,7.13686831747602e-2 -0.9919839679358717,-0.138371559411944 -0.9879759519038076,-0.3041889097669085 -0.9839679358717435,-0.30588993669608067 -0.9799599198396793,-0.22017948376996155 -0.9759519038076152,-0.14879481989295262 -0.9719438877755511,-0.16383991214731042 -0.9679358717434869,-0.301525432709823 -0.9639278557114228,-0.39731524140051044 -0.9599198396793587,-0.23542192256868166 -0.9559118236472945,-0.11427653951568717 -0.9519038076152304,1.2254515189735304e-2 -0.9478957915831663,-3.54845795778026e-2 -0.9438877755511023,-0.11214158108281103 -0.9398797595190381,-0.1302331870422575 -0.935871743486974,-0.12601779544719405 -0.9318637274549099,-0.14735404525351092 -0.9278557114228457,-0.18662648645255386 -0.9238476953907816,-0.1734411217941273 -0.9198396793587175,-0.13636745591085175 -0.9158316633266533,-0.10956446572601797 -0.9118236472945892,-0.10622360362558303 -0.9078156312625251,-0.10842751964327091 -0.9038076152304609,-7.418045042094656e-2 -0.8997995991983968,-7.650139519951382e-2 -0.8957915831663327,-7.548905225003277e-2 -0.8917835671342685,-3.066813185950934e-2 -0.8877755511022044,4.9553467521862016e-2 -0.8837675350701403,-1.9467107848512244e-2 -0.8797595190380761,9.171290134779148e-2 -0.875751503006012,9.809424139064543e-2 -0.8717434869739479,2.2127809634113316e-2 -0.8677354709418837,0.14165105315303528 -0.8637274549098196,6.083880489641602e-2 -0.8597194388777555,-4.861175307469767e-3 -0.8557114228456915,-4.22792123857515e-2 -0.8517034068136273,7.099925999964346e-2 -0.8476953907815632,4.647439558294425e-2 -0.8436873747494991,-1.695639974047969e-2 -0.8396793587174349,7.432942752487848e-3 -0.8356713426853708,-2.253950999786114e-2 -0.8316633266533067,-1.3477401044521886e-2 -0.8276553106212425,-3.018153380161248e-2 -0.8236472945891784,-4.331015516215131e-2 -0.8196392785571143,-4.369589168951726e-2 -0.8156312625250501,-3.666601851682583e-2 -0.811623246492986,-3.125683347070074e-2 -0.8076152304609219,-3.1159844183584418e-2 -0.8036072144288577,-3.5946677483302825e-2 -0.7995991983967936,-3.262449244757293e-2 -0.7955911823647295,-3.085558646848452e-3 -0.7915831663326653,-5.289608823551006e-4 -0.7875751503006012,-1.9424682123986958e-2 -0.7835671342685371,-8.696991327876158e-3 -0.779559118236473,-3.388111570671293e-2 -0.7755511022044088,-4.120650037179696e-2 -0.7715430861723447,4.7121949470874336e-2 -0.7675350701402806,6.441358329633323e-2 -0.7635270541082164,6.2364122706313196e-2 -0.7595190380761523,0.1284166877038178 -0.7555110220440882,0.18530749565937366 -0.751503006012024,0.18998771330432873 -0.7474949899799599,0.1888383385163665 -0.7434869739478958,0.12046854899909121 -0.7394789579158316,0.15117673704711998 -0.7354709418837675,0.13479980918349593 -0.7314629258517034,9.814223551573331e-2 -0.7274549098196392,0.179909010658175 -0.7234468937875751,0.13102647637447423 -0.719438877755511,0.16448201242405264 -0.7154308617234469,0.12427936340778506 -0.7114228456913828,7.836268889623699e-2 -0.7074148296593187,-9.04567651115562e-2 -0.7034068136272545,8.596067867660628e-2 -0.6993987975951904,1.6515291207138405e-2 -0.6953907815631263,0.12636741110554967 -0.6913827655310621,0.15891364684583437 -0.687374749498998,0.15704925143598925 -0.6833667334669339,0.2375227068344079 -0.6793587174348698,0.21622161773562404 -0.6753507014028056,0.23927134630057184 -0.6713426853707415,0.23663457359460982 -0.6673346693386774,0.24372461946698948 -0.6633266533066133,0.15810522838489705 -0.6593186372745492,0.18197861020739814 -0.6553106212424851,0.14436855823524342 -0.6513026052104209,8.526288948306698e-2 -0.6472945891783568,-9.03598839426567e-3 -0.6432865731462927,1.4423949545541215e-2 -0.6392785571142285,-0.12425976948056239 -0.6352705410821644,-9.083871153990508e-2 -0.6312625250501003,-0.29249886905643085 -0.6272545090180361,-0.25695674180543626 -0.623246492985972,-0.33687889379467784 -0.6192384769539079,-0.23283573813858893 -0.6152304609218437,-0.2198410374318417 -0.6112224448897796,-0.1711091487152978 -0.6072144288577155,-0.23109709225394415 -0.6032064128256514,-7.493494586894167e-2 -0.5991983967935872,3.8399436717358626e-2 -0.5951903807615231,0.1291586854146516 -0.591182364729459,0.15240631815121142 -0.5871743486973948,7.309647239051387e-2 -0.5831663326653307,0.1474711999982693 -0.5791583166332666,0.14753615537618475 -0.5751503006012024,0.12774712006503214 -0.5711422845691383,0.16078620357480322 -0.5671342685370742,0.17352072934952412 -0.56312625250501,0.10426950486608677 -0.5591182364729459,7.85696629547677e-2 -0.5551102204408818,9.458207579143868e-2 -0.5511022044088176,0.1626171587983748 -0.5470941883767535,0.29471318306422956 -0.5430861723446894,0.22556497517780544 -0.5390781563126252,0.11076639795075915 -0.5350701402805611,3.4814372922451375e-2 -0.531062124248497,8.756425171852644e-2 -0.5270541082164328,6.639286356976354e-2 -0.5230460921843687,0.12665830032607517 -0.5190380761523046,0.18052341848914155 -0.5150300601202404,0.2176145846745603 -0.5110220440881764,0.24459283071565807 -0.5070140280561123,0.2165210297347327 -0.5030060120240482,0.16356714419118984 -0.498997995991984,7.7038442757841885e-3 -0.4949899799599199,-5.947608124859649e-2 -0.49098196392785576,4.526346845441104e-2 -0.4869739478957916,-5.077461077229628e-2 -0.4829659318637275,4.2154454550475284e-2 -0.47895791583166336,6.486826094331749e-2 -0.47494989979959923,8.083119712190956e-2 -0.4709418837675351,9.452331492448957e-2 -0.46693386773547096,7.694554173107293e-2 -0.46292585170340683,3.930106059387167e-2 -0.4589178356713427,0.13234574469316274 -0.45490981963927857,0.2296077931980311 -0.45090180360721444,0.21556821722580427 -0.4468937875751503,0.27697100830213306 -0.44288577154308617,0.186538009640911 -0.43887775551102204,0.1723417070398821 -0.434869739478958,0.13009827281474845 -0.4308617234468939,7.011830771058392e-2 -0.42685370741482975,2.0143120202077425e-3 -0.4228456913827656,-4.056282339122008e-2 -0.4188376753507015,-1.4427551723468213e-2 -0.41482965931863736,5.15415526663649e-2 -0.4108216432865732,4.462841184438371e-2 -0.4068136272545091,0.15093098073078726 -0.40280561122244496,0.137288570435735 -0.3987975951903808,8.673677364139376e-4 -0.3947895791583167,9.56112344358439e-2 -0.39078156312625256,0.10364159000235412 -0.38677354709418843,0.23391413671091693 -0.3827655310621243,0.21194222261591972 -0.37875751503006017,0.13855962432236435 -0.37474949899799603,0.10637608124046305 -0.3707414829659319,4.3365242112682834e-2 -0.36673346693386777,8.117308412507301e-2 -0.36272545090180364,6.914021614864696e-2 -0.3587174348697395,0.13276063259990828 -0.35470941883767537,0.10774407395673546 -0.35070140280561124,0.10759761531210299 -0.3466933867735471,-6.775244048570916e-2 -0.342685370741483,-0.11153489226944069 -0.33867735470941884,-0.11485258129230558 -0.3346693386773547,-0.12937383502068578 -0.3306613226452907,-9.553525497992488e-3 -0.32665330661322656,0.36216813065105363 -0.3226452905811624,2.2936004364943363e-2 -0.3186372745490983,0.10721609314877212 -0.31462925851703416,-0.22783877512454598 -0.31062124248497003,-0.24042667304673915 -0.3066132264529059,1.8172838613689457e-2 -0.30260521042084176,-2.434762477846797e-3 -0.29859719438877763,4.336636840728075e-2 -0.2945891783567135,0.10243508450032768 -0.29058116232464937,0.4049360533979822 -0.28657314629258523,8.939400746860066e-2 -0.2825651302605211,0.30353353947871226 -0.27855711422845697,0.35336816936516546 -0.27454909819639284,0.11285992080266666 -0.2705410821643287,-4.261616828783321e-2 -0.2665330661322646,-0.17380560139664458 -0.26252505010020044,-0.10919474438743826 -0.2585170340681363,-0.17698015692514202 -0.2545090180360722,-0.2405563605508818 -0.25050100200400804,-0.34979927199625693 -0.2464929859719439,-0.31919275344133236 -0.24248496993987978,-0.22304676048074135 -0.23847695390781565,-3.518520740161146e-2 -0.23446893787575152,-3.18977174352314e-2 -0.2304609218436875,1.8827477508756185e-2 -0.22645290581162336,-5.06377281406708e-2 -0.22244488977955923,-6.935439571230606e-2 -0.2184368737474951,3.197445410390298e-2 -0.21442885771543096,0.13179789254931373 -0.21042084168336683,0.10038440704280754 -0.2064128256513027,0.12405903634461768 -0.20240480961923857,5.983849302739502e-2 -0.19839679358717444,3.7953383851403955e-2 -0.1943887775551103,-2.0250404631019903e-2 -0.19038076152304617,-7.560318858948145e-3 -0.18637274549098204,-4.187311626088264e-2 -0.1823647294589179,-7.621227900451077e-2 -0.17835671342685377,8.367447326076904e-2 -0.17434869739478964,8.830138353331513e-2 -0.1703406813627255,0.215406765307247 -0.16633266533066138,0.19132779995243593 -0.16232464929859725,0.1831220500313926 -0.1583166332665331,0.14904035246012287 -0.15430861723446898,0.14413636558926773 -0.15030060120240485,0.19995393778170129 -0.14629258517034072,0.25943852109793697 -0.14228456913827658,0.24597093608501214 -0.13827655310621245,0.2816582992580524 -0.13426853707414832,0.3123714486608807 -0.1302605210420842,0.34390516679054095 -0.12625250501002017,0.3801015432238592 -0.12224448897795603,0.1670620067026003 -0.1182364729458919,7.748766600538143e-2 -0.11422845691382777,6.600081929084034e-2 -0.11022044088176364,-3.3711198810093546e-3 -0.1062124248496995,-2.3836987613697902e-2 -0.10220440881763537,0.10526126195712082 -9.819639278557124e-2,-4.314867101539288e-2 -9.418837675350711e-2,-9.159132270325565e-2 -9.018036072144298e-2,-0.14529917474864873 -8.617234468937884e-2,-0.16707070704901283 -8.216432865731471e-2,-0.186765565824492 -7.815631262525058e-2,-0.18597386661563753 -7.414829659318645e-2,-0.16714576984766938 -7.014028056112231e-2,-0.18709284166241125 -6.613226452905818e-2,-0.19090448602126275 -6.212424849699405e-2,-0.1973567180675232 -5.811623246492992e-2,-0.19596732414490137 -5.4108216432865786e-2,-0.16839874536770605 -5.010020040080165e-2,-0.169138965278537 -4.609218436873752e-2,-0.16899942834114823 -4.208416833667339e-2,-0.15717113948275707 -3.8076152304609256e-2,-0.1633378157693287 -3.4068136272545124e-2,-0.16694326227558598 -3.0060120240480992e-2,-0.1100740137041516 -2.605210420841686e-2,-8.900484267769126e-2 -2.204408817635284e-2,-9.120861260903679e-2 -1.8036072144288706e-2,-6.995075883823709e-2 -1.4028056112224574e-2,-5.679015423542444e-2 -1.0020040080160442e-2,-7.784555584208763e-2 -6.012024048096309e-3,-0.13278723999138353 -2.004008016032177e-3,-0.13616622808062284 2.004008016031955e-3,-0.13965665332872634 6.012024048096087e-3,-3.795618055014405e-2 1.002004008016022e-2,-2.8560077398487205e-2 1.4028056112224352e-2,-6.447437192927163e-2 1.8036072144288484e-2,2.5202855160915083e-2 2.2044088176352616e-2,1.994491205367893e-2 2.605210420841675e-2,1.720852041216031e-2 3.006012024048088e-2,-4.234541860629015e-2 3.406813627254501e-2,1.4303335298082198e-2 3.8076152304609145e-2,4.8517694261899225e-3 4.208416833667328e-2,-3.1917956194353e-2 4.609218436873741e-2,-6.587057376560523e-2 5.010020040080154e-2,-0.1336339170335341 5.4108216432865675e-2,-4.0533147277929116e-2 5.811623246492981e-2,-0.13024147249663887 6.212424849699394e-2,-0.1738464073563739 6.613226452905807e-2,-0.29957299094136014 7.01402805611222e-2,-0.4285464772355905 7.414829659318634e-2,-0.4695835169655538 7.815631262525047e-2,-0.16502022084894374 8.21643286573146e-2,-0.1385282567557211 8.617234468937873e-2,-4.7972938390522746e-2 9.018036072144286e-2,-8.207128683620213e-2 9.4188376753507e-2,-2.0528787026452444e-2 9.819639278557113e-2,1.7911773215843585e-2 0.10220440881763526,-1.398462433122405e-2 0.1062124248496994,-9.812519950013432e-2 0.11022044088176353,0.10111561464256391 0.11422845691382766,-0.15532834204896995 0.11823647294589179,-0.16570638866107357 0.12224448897795592,-0.10450694918101111 0.12625250501002006,-0.14526749292160568 0.13026052104208397,-0.11744950323720127 0.1342685370741481,-5.196958728447376e-2 0.13827655310621223,6.608613164760324e-2 0.14228456913827636,5.166152727611417e-2 0.1462925851703405,5.757437184456288e-2 0.15030060120240463,6.320598609966349e-2 0.15430861723446876,0.10301645530559711 0.1583166332665329,9.268316891396938e-2 0.16232464929859702,-1.9248125326328802e-2 0.16633266533066116,1.2518983312482856e-2 0.1703406813627253,-9.748634494405994e-3 0.17434869739478942,8.36082409537911e-2 0.17835671342685355,4.411355978690262e-2 0.18236472945891768,2.4854293601121957e-2 0.18637274549098182,-4.905319151107479e-2 0.19038076152304595,-4.28728069118367e-2 0.19438877755511008,-4.966407257520411e-2 0.1983967935871742,0.1402243532670709 0.20240480961923835,5.6079929423613006e-2 0.20641282565130248,1.4372746800758451e-2 0.2104208416833666,9.650929594907448e-2 0.21442885771543074,8.442355068884394e-2 0.21843687374749488,6.881335429531421e-2 0.222444889779559,-0.1526790571558556 0.22645290581162314,-0.21979613733487646 0.23046092184368727,9.146468922170803e-3 0.2344689378757514,-8.913384858868689e-2 0.23847695390781554,-0.22692426090434115 0.24248496993987967,-0.23080342890496774 0.2464929859719438,-0.24023253763974917 0.25050100200400793,-0.21185170990324753 0.25450901803607207,-0.14724678045453365 0.2585170340681362,-0.19183537403711304 0.26252505010020033,-0.2258186838895162 0.26653306613226446,-0.25738462802043094 0.2705410821643286,-0.21019744662954065 0.2745490981963927,-0.1635492196450592 0.27855711422845686,-0.1843649572825986 0.282565130260521,-0.16935425913504876 0.2865731462925851,-9.867879914913447e-2 0.29058116232464926,-0.10742581226436188 0.2945891783567134,-7.114826548779674e-2 0.2985971943887775,-4.789167696282004e-2 0.30260521042084165,-5.344743617170433e-2 0.3066132264529058,-1.7479957484686448e-2 0.3106212424849699,-1.4743032183183402e-2 0.31462925851703405,2.0839692277953292e-2 0.3186372745490982,-3.73662442418673e-2 0.3226452905811623,-7.739938587819983e-2 0.32665330661322645,-0.12437858232543098 0.3306613226452906,-0.14702831140392691 0.3346693386773545,-0.14072593327256366 0.3386773547094186,-0.12791501713293052 0.34268537074148275,-0.13536296585606833 0.3466933867735469,-0.1299108440610366 0.350701402805611,-0.13003851917129894 0.35470941883767515,-0.1040836606865696 0.3587174348697393,-0.10245659138539609 0.3627254509018034,-7.382419063099832e-2 0.36673346693386755,-7.662585856516835e-2 0.3707414829659317,-8.332341982015445e-2 0.3747494989979958,-9.773267199463131e-2 0.37875751503005994,-0.10113458989983581 0.3827655310621241,-8.771176943458192e-2 0.3867735470941882,-5.922891562916566e-2 0.39078156312625234,-1.5585300503523802e-2 0.3947895791583165,-6.786610274208238e-3 0.3987975951903806,4.1355647864182055e-2 0.40280561122244474,1.7879901061857828e-2 0.40681362725450887,-2.6071036793232638e-2 0.410821643286573,-2.6451121702151803e-2 0.41482965931863713,6.640221195230056e-3 0.41883767535070127,1.5890229858712857e-2 0.4228456913827654,5.64586600377307e-2 0.42685370741482953,3.6741084644319466e-2 0.43086172344689366,-3.293269732527904e-2 0.4348697394789578,-0.12883599468459284 0.4388777555110219,-9.160101389324016e-2 0.44288577154308606,-0.1710987105466496 0.4468937875751502,-0.14205037714451985 0.4509018036072143,-4.493612613222209e-2 0.45490981963927846,6.395683882480685e-3 0.4589178356713426,-7.288768391982914e-2 0.4629258517034067,2.042900354919097e-2 0.46693386773547085,-1.2343929240382745e-2 0.470941883767535,-5.729914311043516e-2 0.4749498997995991,-0.1545603191008288 0.47895791583166325,-0.17548262480352494 0.4829659318637274,-0.1801875415375287 0.4869739478957915,-4.15386456391198e-2 0.49098196392785565,-0.17696582172186748 0.4949899799599198,-0.20107807624876717 0.4989979959919839,-0.3119313640064735 0.503006012024048,-0.22221245881106022 0.5070140280561122,-6.63395447294236e-2 0.5110220440881763,-0.19759516900840868 0.5150300601202404,0.14699142725243547 0.5190380761523046,9.319021724179594e-2 0.5230460921843687,-7.489340858223703e-2 0.5270541082164328,-0.2023502248543234 0.531062124248497,-0.10868537429045844 0.5350701402805611,-0.18892780305733547 0.539078156312625,-0.1844685593232035 0.5430861723446891,6.99314672721234e-2 0.5470941883767533,-4.1516608362694774e-2 0.5511022044088174,-1.8227362889693066e-2 0.5551102204408815,-7.66050497813856e-2 0.5591182364729457,-0.15846125590730653 0.5631262525050098,-0.16219314243257488 0.5671342685370739,-0.11070251479074045 0.5711422845691381,-0.1592552892987269 0.5751503006012022,-0.20483481634604683 0.5791583166332663,-0.20443036031253903 0.5831663326653305,-0.1996243698998731 0.5871743486973946,-0.19755880198120623 0.5911823647294587,-0.20533099119023923 0.5951903807615229,-0.20745284150362964 0.599198396793587,-0.20565563698554057 0.6032064128256511,-0.20438706183980426 0.6072144288577153,-0.2015864460298653 0.6112224448897794,-0.20330719993208157 0.6152304609218435,-0.20681800241224768 0.6192384769539077,-0.22722673674496974 0.6232464929859718,-0.2313580093684987 0.6272545090180359,-0.26860469399077835 0.6312625250501,-0.22160494020011745 0.6352705410821642,-0.23925671795045322 0.6392785571142283,-0.27426300549349003 0.6432865731462925,-0.22455296474038766 0.6472945891783566,-0.28563207168564586 0.6513026052104207,-0.2977817188378772 0.6553106212424848,-0.25761411222313546 0.659318637274549,-0.18160674523930864 0.6633266533066131,-0.17757537982482818 0.6673346693386772,-0.14682849896384642 0.6713426853707414,-0.13946096026524912 0.6753507014028055,-0.13825538422510164 0.6793587174348696,-0.12268755966908129 0.6833667334669338,-0.1209551217748327 0.6873747494989979,-0.10229751989540758 0.691382765531062,-0.10218016618216696 0.6953907815631262,-9.832407969607837e-2 0.6993987975951903,-0.10681921980791609 0.7034068136272544,-7.809891212406661e-2 0.7074148296593186,-9.241355019135089e-2 0.7114228456913827,-8.054354943108122e-2 0.7154308617234468,-7.294969764177639e-2 0.719438877755511,-4.668918767223884e-2 0.7234468937875751,-4.239051053431031e-3 0.7274549098196392,-2.2352913657575635e-2 0.7314629258517034,1.437466905274687e-3 0.7354709418837675,-4.542064826782721e-2 0.7394789579158316,7.176873999124228e-2 0.7434869739478958,9.82387116116013e-2 0.7474949899799597,6.451256002508116e-2 0.7515030060120238,5.50118537102714e-2 0.7555110220440879,7.655874292710552e-2 0.7595190380761521,9.607744151458303e-2 0.7635270541082162,3.3663066893194205e-2 0.7675350701402803,3.874391124076798e-2 0.7715430861723445,2.581953895181832e-2 0.7755511022044086,1.5404687015463825e-2 0.7795591182364727,0.17491621519024841 0.7835671342685369,0.14964884617838187 0.787575150300601,9.670304053781431e-2 0.7915831663326651,-3.304669375364e-2 0.7955911823647293,-0.10107285860253878 0.7995991983967934,-6.953169464863296e-2 0.8036072144288575,0.11921379295260354 0.8076152304609217,0.14003111684718372 0.8116232464929858,0.21655327952492487 0.8156312625250499,5.754443461817521e-2 0.819639278557114,-0.158145662981229 0.8236472945891782,-0.2604529399659353 0.8276553106212423,-0.1489504283109705 0.8316633266533064,-0.1369337924837064 0.8356713426853706,2.1810336754264414e-2 0.8396793587174347,-2.9370242742901898e-2 0.8436873747494988,-5.577467023922078e-2 0.847695390781563,-2.3345816808853503e-2 0.8517034068136271,0.11000089433697147 0.8557114228456912,9.299393428411495e-2 0.8597194388777554,0.182510274538299 0.8637274549098195,0.16487857483556018 0.8677354709418836,0.13362876584107997 0.8717434869739478,0.1878427510072045 0.8757515030060119,0.2501890887496571 0.879759519038076,0.2329190606667929 0.8837675350701402,0.19129642258602625 0.8877755511022043,0.2721694757054668 0.8917835671342684,0.2297135206703706 0.8957915831663326,5.016897456526542e-2 0.8997995991983967,8.292937720625126e-2 0.9038076152304608,0.22699934113547832 0.907815631262525,8.960521970479846e-2 0.9118236472945891,0.11292930243435739 0.9158316633266532,6.64819406071217e-2 0.9198396793587174,0.11279538698530339 0.9238476953907815,0.17918649963668487 0.9278557114228456,0.12775198933801235 0.9318637274549098,0.19082571459345965 0.9358717434869739,0.15755334254455033 0.939879759519038,0.16138504148838545 0.9438877755511021,0.24653830631798207 0.9478957915831663,0.26601622869076674 0.9519038076152302,0.2073697914386255 0.9559118236472943,0.19000236258487013 0.9599198396793585,0.18247369003497027 0.9639278557114226,4.400126678976629e-2 0.9679358717434867,4.3899406327129575e-2 0.9719438877755509,-2.9997976455713227e-2 0.975951903807615,-1.10101005716563e-2 0.9799599198396791,-3.3043036066411235e-2 0.9839679358717432,0.13316137990851318 0.9879759519038074,3.2408704034597835e-2 0.9919839679358715,-0.11261764818333642 0.9959919839679356,-0.2323095684553479 0.9999999999999998,-0.25852636317534883" /></g><g stroke-width="5.0e-3" stroke="#382A8C" fill="none" stroke-opacity="0.5"><polyline points="-1.0,0.1555863158045363 -0.9959919839679359,0.1476644760391656 -0.9919839679358717,0.10370490478045447 -0.9879759519038076,6.53637582737201e-2 -0.9839679358717435,6.638823509406294e-2 -0.9799599198396793,8.946609511046955e-2 -0.9759519038076152,0.1106834887046334 -0.9719438877755511,0.10920691837162866 -0.9679358717434869,6.20619989918611e-2 -0.9639278557114228,2.7907739325696956e-2 -0.9599198396793587,7.568912134285904e-2 -0.9559118236472945,0.11607713715277934 -0.9519038076152304,0.1624377346590476 -0.9478957915831663,0.14710447941062238 -0.9438877755511023,0.11362674125708655 -0.9398797595190381,0.10693487993760442 -0.935871743486974,0.11034963914786478 -0.9318637274549099,9.830104689263297e-2 -0.9278557114228457,5.162969498793668e-2 -0.9238476953907816,5.8109153323145535e-2 -0.9198396793587175,8.072207496320266e-2 -0.9158316633266533,0.10066297018652204 -0.9118236472945892,0.10489116763888284 -0.9078156312625251,0.10166864842495221 -0.9038076152304609,0.14565517321882815 -0.8997995991983968,0.14269930353359034 -0.8957915831663327,0.1493845038745969 -0.8917835671342685,0.2174140259671507 -0.8877755511022044,0.27426528823042773 -0.8837675350701403,0.1904589190395798 -0.8797595190380761,0.2430690468909779 -0.875751503006012,0.2524012120849194 -0.8717434869739479,0.20915559379604087 -0.8677354709418837,0.2730090487782644 -0.8637274549098196,0.23250178197565663 -0.8597194388777555,0.19660479135349906 -0.8557114228456915,0.17608852946861697 -0.8517034068136273,0.2401715949209008 -0.8476953907815632,0.22997907488066743 -0.8436873747494991,0.17958746853505453 -0.8396793587174349,0.19692142171678273 -0.8356713426853708,0.1728924525211682 -0.8316633266533067,0.18215017088070873 -0.8276553106212425,0.15937581392197508 -0.8236472945891784,0.13020045070404773 -0.8196392785571143,0.1289886507555844 -0.8156312625250501,0.14630755473820684 -0.811623246492986,0.17092977902178036 -0.8076152304609219,0.17148261905218815 -0.8036072144288577,0.2075592849670843 -0.7995991983967936,0.2029458243439991 -0.7955911823647295,0.17581937358353356 -0.7915831663326653,0.17353347359981003 -0.7875751503006012,0.1950689079217766 -0.7835671342685371,0.189001400903767 -0.779559118236473,0.2072721911762358 -0.7755511022044088,0.21307970905356688 -0.7715430861723447,0.18219617255062281 -0.7675350701402806,0.17437689367298942 -0.7635270541082164,0.1755931289194118 -0.7595190380761523,0.15388053080174796 -0.7555110220440882,0.1334907846439236 -0.751503006012024,0.1305824331952189 -0.7474949899799599,0.1295918017876313 -0.7434869739478958,0.14571012677409312 -0.7394789579158316,0.13781675008615302 -0.7354709418837675,0.14049311661083402 -0.7314629258517034,0.1467839236874765 -0.7274549098196392,0.1328179434771089 -0.7234468937875751,0.13998907793691096 -0.719438877755511,0.13446875566948469 -0.7154308617234469,0.13916746754242004 -0.7114228456913828,0.14433466757687397 -0.7074148296593187,0.16617475224484424 -0.7034068136272545,0.14407195453717148 -0.6993987975951904,0.1574610086558597 -0.6953907815631263,0.13894499290143214 -0.6913827655310621,0.1317324461920546 -0.687374749498998,0.1312919198222609 -0.6833667334669339,0.11791381840677712 -0.6793587174348698,0.12002534511220608 -0.6753507014028056,0.11581518468540158 -0.6713426853707415,0.11498870744744322 -0.6673346693386774,0.11316318643528162 -0.6633266533066133,0.1201737836240544 -0.6593186372745492,0.11735805272649752 -0.6553106212424851,0.11956737026751868 -0.6513026052104209,0.12322050103988652 -0.6472945891783568,0.12928653575086269 -0.6432865731462927,0.12768594123124744 -0.6392785571142285,0.13627406545259074 -0.6352705410821644,0.13452128664722923 -0.6312625250501003,0.15138381580164617 -0.6272545090180361,0.14905087078480872 -0.623246492985972,0.15951434254306823 -0.6192384769539079,0.15269612124618714 -0.6152304609218437,0.152133568741686 -0.6112224448897796,0.14914349524465914 -0.6072144288577155,0.1545914721980836 -0.6032064128256514,0.14649784178332437 -0.5991983967935872,0.13877065239423386 -0.5951903807615231,0.13098859187694772 -0.591182364729459,0.12817057877570204 -0.5871743486973948,0.13543332604632574 -0.5831663326653307,0.1283649208858323 -0.5791583166332666,0.12787110031243987 -0.5751503006012024,0.12919271315104008 -0.5711422845691383,0.1265330859672154 -0.5671342685370742,0.1253455614911495 -0.56312625250501,0.12861710802574616 -0.5591182364729459,0.12959608505930265 -0.5551102204408818,0.12879513187953273 -0.5511022044088176,0.1265366369732941 -0.5470941883767535,0.12262925172661787 -0.5430861723446894,0.1246269152525944 -0.5390781563126252,0.128360691891719 -0.5350701402805611,0.13149374734662073 -0.531062124248497,0.12967518027260388 -0.5270541082164328,0.13031346258291648 -0.5230460921843687,0.12888940036075575 -0.5190380761523046,0.12772081072595703 -0.5150300601202404,0.12697683972419788 -0.5110220440881764,0.12651296517756005 -0.5070140280561123,0.12667577532048802 -0.5030060120240482,0.12695555856907398 -0.498997995991984,0.12789579354170116 -0.4949899799599199,0.12834855053955108 -0.49098196392785576,0.1283737557728692 -0.4869739478957916,0.128897765778355 -0.4829659318637275,0.1291157837269013 -0.47895791583166336,0.12912499608315675 -0.47494989979959923,0.12920945537708078 -0.4709418837675351,0.1293505646345381 -0.46693386773547096,0.12921874611640022 -0.46292585170340683,0.12881153127110684 -0.4589178356713427,0.13039128679772527 -0.45490981963927857,0.13257632540829334 -0.45090180360721444,0.1324624985096438 -0.4468937875751503,0.13425464171230006 -0.44288577154308617,0.13256545498443262 -0.43887775551102204,0.1323548659142929 -0.434869739478958,0.1313562969939211 -0.4308617234468939,0.12972789753007086 -0.42685370741482975,0.12756095682256685 -0.4228456913827656,0.12601738509672006 -0.4188376753507015,0.12686897770571243 -0.41482965931863736,0.1290934657051731 -0.4108216432865732,0.12892047710769522 -0.4068136272545091,0.132731307212188 -0.40280561122244496,0.13243522642947197 -0.3987975951903808,0.12730592317711004 -0.3947895791583167,0.1316757063754117 -0.39078156312625256,0.1322514069707405 -0.38677354709418843,0.13949168151568975 -0.3827655310621243,0.1384767683807402 -0.37875751503006017,0.1343231581581294 -0.37474949899799603,0.13230101157303553 -0.3707414829659319,0.12809374074948876 -0.36673346693386777,0.13060887284838352 -0.36272545090180364,0.12987352726262574 -0.3587174348697395,0.13374782279889152 -0.35470941883767537,0.13241065260593576 -0.35070140280561124,0.13252952351600078 -0.3466933867735471,0.1207227990440441 -0.342685370741483,0.11289244631857753 -0.33867735470941884,0.111716065514253 -0.3346693386773547,0.1090791391331718 -0.3306613226452907,8.100832882622883e-2 -0.32665330661322656,8.689540324232325e-2 -0.3226452905811624,8.495525608528626e-2 -0.3186372745490983,8.807551714379963e-2 -0.31462925851703416,8.522477364773429e-2 -0.31062124248497003,8.55457214705071e-2 -0.3066132264529059,9.753886444092208e-2 -0.30260521042084176,9.78470325732152e-2 -0.29859719438877763,0.1010958968137261 -0.2945891783567135,0.10505504552431699 -0.29058116232464937,0.13042294396488618 -0.28657314629258523,0.11099169077024956 -0.2825651302605211,0.13473295130417573 -0.27855711422845697,0.14347073191026782 -0.27454909819639284,0.1232842203303045 -0.2705410821643287,0.1085441548619353 -0.2665330661322646,9.447119640197182e-2 -0.26252505010020044,0.10370528224359804 -0.2585170340681363,9.610578670195336e-2 -0.2545090180360722,8.799532706303181e-2 -0.25050100200400804,6.590717394133311e-2 -0.2464929859719439,6.99747014491201e-2 -0.24248496993987978,8.418839313653176e-2 -0.23847695390781565,0.11471591978055834 -0.23446893787575152,0.11681128685535314 -0.2304609218436875,0.12798446387008489 -0.22645290581162336,0.11335268581743524 -0.22244488977955923,0.11010101393600591 -0.2184368737474951,0.13437181292976919 -0.21442885771543096,0.1607381880058299 -0.21042084168336683,0.15554302959738098 -0.2064128256513027,0.16469325272308222 -0.20240480961923857,0.1425660370125293 -0.19839679358717444,0.13737495152522927 -0.1943887775551103,0.10783994378779405 -0.19038076152304617,0.11128680112120126 -0.18637274549098204,9.93128395632667e-2 -0.1823647294589179,8.409928997202193e-2 -0.17835671342685377,0.1371582584165129 -0.17434869739478964,0.139540832975467 -0.1703406813627255,0.1790212811245303 -0.16633266533066138,0.17509157752150956 -0.16232464929859725,0.17502172230401114 -0.1583166332665331,0.16504895858139168 -0.15430861723446898,0.16481671633675493 -0.15030060120240485,0.19494425485175204 -0.14629258517034072,0.227076787033116 -0.14228456913827658,0.2256483704969804 -0.13827655310621245,0.2491277700842927 -0.13426853707414832,0.2725907631743274 -0.1302605210420842,0.30168725026328197 -0.12625250501002017,0.3372511333326649 -0.12224448897795603,0.23100280641408272 -0.1182364729458919,0.21029347597237685 -0.11422845691382777,0.21104717263185097 -0.11022044088176364,0.19139294886015235 -0.1062124248496995,0.18713440080506683 -0.10220440881763537,0.23338898416884585 -9.819639278557124e-2,0.16235086688319716 -9.418837675350711e-2,0.14609718244368503 -9.018036072144298e-2,0.12484089495571798 -8.617234468937884e-2,0.11538840421558177 -8.216432865731471e-2,0.10535232966060387 -7.815631262525058e-2,0.1048475396491933 -7.414829659318645e-2,0.1145833915087523 -7.014028056112231e-2,9.359035743505167e-2 -6.613226452905818e-2,8.871464820848796e-2 -6.212424849699405e-2,7.424321456215899e-2 -5.811623246492992e-2,5.08875419498403e-2 -5.4108216432865786e-2,7.830128992620611e-2 -5.010020040080165e-2,7.386717303131535e-2 -4.609218436873752e-2,7.102665754867393e-2 -4.208416833667339e-2,5.634740223310991e-2 -3.8076152304609256e-2,7.027830625155596e-2 -3.4068136272545124e-2,7.246291926813747e-2 -3.0060120240480992e-2,4.8379999627397474e-2 -2.605210420841686e-2,3.468772118262442e-2 -2.204408817635284e-2,3.32841638061398e-2 -1.8036072144288706e-2,2.2954161783417026e-2 -1.4028056112224574e-2,1.5941095935324834e-2 -1.0020040080160442e-2,1.9707765530180055e-2 -6.012024048096309e-3,3.505523237138991e-2 -2.004008016032177e-3,3.4116842673290626e-2 2.004008016031955e-3,3.3163367447346215e-2 6.012024048096087e-3,1.6957853266314715e-2 1.002004008016022e-2,1.3056852491535764e-2 1.4028056112224352e-2,1.7093722021776336e-2 1.8036072144288484e-2,4.3014008772789825e-3 2.2044088176352616e-2,2.724488212183407e-3 2.605210420841675e-2,8.605657572112735e-4 3.006012024048088e-2,5.856096197871918e-3 3.406813627254501e-2,-1.0508318009765372e-3 3.8076152304609145e-2,-2.0938586122875025e-3 4.208416833667328e-2,-7.708873797508398e-4 4.609218436873741e-2,2.1606750990632584e-4 5.010020040080154e-2,3.727865512104578e-3 5.4108216432865675e-2,-2.4402865442475496e-3 5.811623246492981e-2,2.0813969220611073e-3 6.212424849699394e-2,3.5193320494099067e-3 6.613226452905807e-2,1.0533872723588078e-2 7.01402805611222e-2,1.9031775157058617e-2 7.414829659318634e-2,2.1118341092253468e-2 7.815631262525047e-2,1.1783360132722187e-2 8.21643286573146e-2,9.577994085798125e-3 8.617234468937873e-2,4.74968164303019e-3 9.018036072144286e-2,5.756323831413057e-3 9.4188376753507e-2,2.575966629843829e-3 9.819639278557113e-2,3.552430750095592e-4 0.10220440881763526,7.480297217685172e-4 0.1062124248496994,3.102928510653913e-3 0.11022044088176353,-1.5311956127751492e-3 0.11422845691382766,1.5767674655392527e-2 0.11823647294589179,1.656477740843132e-2 0.12224448897795592,1.2820665561508182e-2 0.12625250501002006,1.6263664241113196e-2 0.13026052104208397,1.4503486017593825e-2 0.1342685370741481,1.1611805567735556e-2 0.13827655310621223,7.700372396510113e-3 0.14228456913827636,7.963816617905739e-3 0.1462925851703405,7.222106630907998e-3 0.15030060120240463,6.577930829921086e-3 0.15430861723446876,5.215542406088958e-3 0.1583166332665329,5.051456598550497e-3 0.16232464929859702,7.893978564714577e-3 0.16633266533066116,7.160065155548789e-3 0.1703406813627253,7.296438245109671e-3 0.17434869739478942,6.592749697235556e-3 0.17835671342685355,6.849374452172763e-3 0.18236472945891768,6.86195901930059e-3 0.18637274549098182,7.292703336879203e-3 0.19038076152304595,7.246331136211981e-3 0.19438877755511008,7.2408524923052164e-3 0.1983967935871742,8.582567479325454e-3 0.20240480961923835,8.62024190813998e-3 0.20641282565130248,8.561945924868974e-3 0.2104208416833666,9.327205781507975e-3 0.21442885771543074,9.393120204184202e-3 0.21843687374749488,9.450871018006068e-3 0.222444889779559,8.65219730899619e-3 0.22645290581162314,8.097688743448794e-3 0.23046092184368727,1.2192500073821111e-2 0.2344689378757514,1.1148911595074196e-2 0.23847695390781554,1.0879644957776657e-2 0.24248496993987967,1.0524004779264295e-2 0.2464929859719438,9.864992498843483e-3 0.25050100200400793,1.1038187055474491e-2 0.25450901803607207,1.3731541314401685e-2 0.2585170340681362,1.5184722945195517e-2 0.26252505010020033,1.6094525112882785e-2 0.26653306613226446,1.8148125021973438e-2 0.2705410821643286,1.8113398239981537e-2 0.2745490981963927,1.8002088534533667e-2 0.27855711422845686,2.0349080890358806e-2 0.282565130260521,2.000164591941289e-2 0.2865731462925851,2.0024069942827405e-2 0.29058116232464926,2.0244964415689015e-2 0.2945891783567134,1.965286740420258e-2 0.2985971943887775,1.8949489143156195e-2 0.30260521042084165,1.9509872044178422e-2 0.3066132264529058,1.8809482921280707e-2 0.3106212424849699,1.831789849902621e-2 0.31462925851703405,3.113432130248789e-2 0.3186372745490982,3.2723254225223264e-2 0.3226452905811623,3.37861959651477e-2 0.32665330661322645,3.650392503445321e-2 0.3306613226452906,3.7248083627728634e-2 0.3346693386773545,3.7148358927121594e-2 0.3386773547094186,3.6773717175709764e-2 0.34268537074148275,3.784558699159574e-2 0.3466933867735469,3.73645804697782e-2 0.350701402805611,3.754401771931892e-2 0.35470941883767515,4.213372102184526e-2 0.3587174348697393,4.3114263975570555e-2 0.3627254509018034,4.777828165789161e-2 0.36673346693386755,4.709652850865992e-2 0.3707414829659317,4.616183108064775e-2 0.3747494989979958,4.2818364155079724e-2 0.37875751503005994,4.2077624633517385e-2 0.3827655310621241,4.398226705736258e-2 0.3867735470941882,4.729872658558837e-2 0.39078156312625234,5.215039541499156e-2 0.3947895791583165,5.361559563313134e-2 0.3987975951903806,5.8765323388945856e-2 0.40280561122244474,5.7232073532556604e-2 0.40681362725450887,5.384707657207927e-2 0.410821643286573,5.431246130647743e-2 0.41482965931863713,5.751919739207223e-2 0.41883767535070127,5.887672796954074e-2 0.4228456913827654,6.2453004498380704e-2 0.42685370741482953,6.1991736033842115e-2 0.43086172344689366,5.83923947563752e-2 0.4348697394789578,5.218802888859325e-2 0.4388777555110219,5.525866014216141e-2 0.44288577154308606,4.904339952582243e-2 0.4468937875751502,5.1485072041493385e-2 0.4509018036072143,5.882302120806937e-2 0.45490981963927846,6.349652154468916e-2 0.4589178356713426,5.730596004229338e-2 0.4629258517034067,6.572996869988507e-2 0.46693386773547085,6.313899883268226e-2 0.470941883767535,5.938890131714769e-2 0.4749498997995991,4.723369997754179e-2 0.47895791583166325,3.76328419942053e-2 0.4829659318637274,2.9897185663907422e-2 0.4869739478957915,1.4901176730484689e-2 0.49098196392785565,2.426383696552764e-2 0.4949899799599198,2.4533754436973032e-2 0.4989979959919839,3.8853526158454e-2 0.503006012024048,3.7446440417638116e-2 0.5070140280561122,3.586242575005816e-2 0.5110220440881763,4.3338105671679006e-2 0.5150300601202404,5.00627398029983e-2 0.5190380761523046,4.960434239204359e-2 0.5230460921843687,4.972330284728205e-2 0.5270541082164328,4.885430721082357e-2 0.531062124248497,5.17149779346166e-2 0.5350701402805611,5.0672860705127054e-2 0.539078156312625,5.085130805882487e-2 0.5430861723446891,6.345865298764541e-2 0.5470941883767533,6.00749984905688e-2 0.5511022044088174,6.163952066317607e-2 0.5551102204408815,5.955304819084384e-2 0.5591182364729457,5.673412310563691e-2 0.5631262525050098,5.6592287980557265e-2 0.5671342685370739,5.966937569662478e-2 0.5711422845691381,5.752332304575092e-2 0.5751503006012022,5.5251747782604776e-2 0.5791583166332663,5.508871812116056e-2 0.5831663326653305,5.5257197412568904e-2 0.5871743486973946,5.528775902155486e-2 0.5911823647294587,5.4348451317162205e-2 0.5951903807615229,5.3948978916550705e-2 0.599198396793587,5.4163713386939094e-2 0.6032064128256511,5.474086361281516e-2 0.6072144288577153,5.463907574145066e-2 0.6112224448897794,5.4644450614294515e-2 0.6152304609218435,5.464141177727172e-2 0.6192384769539077,5.470685438485162e-2 0.6232464929859718,5.466382388673008e-2 0.6272545090180359,5.4520988517637314e-2 0.6312625250501,5.573952523593528e-2 0.6352705410821642,5.5384368722875665e-2 0.6392785571142283,5.465512356250318e-2 0.6432865731462925,5.603941455276096e-2 0.6472945891783566,5.485110435946766e-2 0.6513026052104207,5.531159168607663e-2 0.6553106212424848,5.673294538501128e-2 0.659318637274549,6.0434438178274874e-2 0.6633266533066131,6.0543523063861515e-2 0.6673346693386772,6.250130527769976e-2 0.6713426853707414,6.330200944696202e-2 0.6753507014028055,6.368060172827894e-2 0.6793587174348696,6.513588792876429e-2 0.6833667334669338,6.516944912480749e-2 0.6873747494989979,6.664786623238461e-2 0.691382765531062,6.661548235768894e-2 0.6953907815631262,6.687907476803123e-2 0.6993987975951903,6.655452292214903e-2 0.7034068136272544,6.808861180334447e-2 0.7074148296593186,6.754299687618692e-2 0.7114228456913827,6.815543225446069e-2 0.7154308617234468,6.857893522674269e-2 0.719438877755511,6.985568248618534e-2 0.7234468937875751,7.192739336675535e-2 0.7274549098196392,7.14412248517875e-2 0.7314629258517034,7.269263713979729e-2 0.7354709418837675,7.119098897158527e-2 0.7394789579158316,7.674525539844401e-2 0.7434869739478958,7.840160788919953e-2 0.7474949899799597,7.747040919336412e-2 0.7515030060120238,7.753276134449666e-2 0.7555110220440879,7.892966002633883e-2 0.7595190380761521,8.028455298162152e-2 0.7635270541082162,7.848506304806208e-2 0.7675350701402803,7.922489461778998e-2 0.7715430861723445,7.929859473888656e-2 0.7755511022044086,7.948468196684322e-2 0.7795591182364727,8.646315715267028e-2 0.7835671342685369,8.628713191162979e-2 0.787575150300601,8.50569601115353e-2 0.7915831663326651,8.076342497785127e-2 0.7955911823647293,7.848675229463287e-2 0.7995991983967934,8.023266241686461e-2 0.8036072144288575,8.863406486675207e-2 0.8076152304609217,9.0390061248451e-2 0.8116232464929858,9.468188080641027e-2 0.8156312625250499,8.900551988271188e-2 0.819639278557114,7.821484997433087e-2 0.8236472945891782,6.993759680304373e-2 0.8276553106212423,7.75704723840756e-2 0.8316633266533064,7.873151833674163e-2 0.8356713426853706,9.074650112110777e-2 0.8396793587174347,8.592902364889726e-2 0.8436873747494988,8.36399976824107e-2 0.847695390781563,8.685383964671572e-2 0.8517034068136271,9.880213908183533e-2 0.8557114228456912,9.787340243457593e-2 0.8597194388777554,0.10767291351391206 0.8637274549098195,0.1070049172021783 0.8677354709418836,0.10515471986445257 0.8717434869739478,0.11111045974414069 0.8757515030060119,0.1179463208482957 0.879759519038076,0.117974509371161 0.8837675350701402,0.1161946082564923 0.8877755511022043,0.12387719279870668 0.8917835671342684,0.12235878003168665 0.8957915831663326,0.11042857132680778 0.8997995991983967,0.11442441279543769 0.9038076152304608,0.129081119885176 0.907815631262525,0.1145937750845275 0.9118236472945891,0.11968330006538164 0.9158316633266532,0.11283742316771234 0.9198396793587174,0.12089808149364756 0.9238476953907815,0.13253194956553632 0.9278557114228456,0.12513172843067716 0.9318637274549098,0.13764283471762395 0.9358717434869739,0.13269656884882108 0.939879759519038,0.1346961299291886 0.9438877755511021,0.1506935541279999 0.9478957915831663,0.1567622287829788 0.9519038076152302,0.1488559874744685 0.9559118236472943,0.14732527709458648 0.9599198396793585,0.14768952587267864 0.9639278557114226,0.12519975885019868 0.9679358717434867,9.196638067652074e-2 0.9719438877755509,0.11032969409325843 0.975951903807615,0.1073080618270999 0.9799599198396791,0.1117555301923514 0.9839679358717432,8.12064469968683e-2 0.9879759519038074,9.189106568243366e-2 0.9919839679358715,0.11544237732338358 0.9959919839679356,0.1301194267397861 0.9999999999999998,0.1332181301514172" /></g><g stroke-width="5.0e-3" stroke="#02C814" fill="none" stroke-opacity="0.5"><polyline points="-1.0,0.1495073342934219 -0.9959919839679359,0.14984610285737515 -0.9919839679358717,0.15213907111484526 -0.9879759519038076,0.15390317676873094 -0.9839679358717435,0.15387661574465938 -0.9799599198396793,0.1530373369319537 -0.9759519038076152,0.15223711067919282 -0.9719438877755511,0.15229968338140698 -0.9679358717434869,0.15482135001585345 -0.9639278557114228,0.15620402437488895 -0.9599198396793587,0.15498007422683774 -0.9559118236472945,0.15416602031254573 -0.9519038076152304,0.15344281652772523 -0.9478957915831663,0.153652639052674 -0.9438877755511023,0.1542447708907042 -0.9398797595190381,0.15432759772122945 -0.935871743486974,0.15428099046499116 -0.9318637274549099,0.1545090234281017 -0.9278557114228457,0.15575500051357494 -0.9238476953907816,0.15571260423484978 -0.9198396793587175,0.15552677494257444 -0.9158316633266533,0.15535024158548322 -0.9118236472945892,0.1553038995348633 -0.9078156312625251,0.15535534062706602 -0.9038076152304609,0.15476009376866706 -0.8997995991983968,0.1547853214611037 -0.8957915831663327,0.15471015730340476 -0.8917835671342685,0.15423127848501644 -0.8877755511022044,0.1558001796383799 -0.8837675350701403,0.1533859666707572 -0.8797595190380761,0.1571441525742907 -0.875751503006012,0.15790227508140847 -0.8717434869739479,0.15505929301495103 -0.8677354709418837,0.16068409974928938 -0.8637274549098196,0.15724139972919876 -0.8597194388777555,0.15402967843629456 -0.8557114228456915,0.15211965488791584 -0.8517034068136273,0.15908701935447822 -0.8476953907815632,0.158058648589873 -0.8436873747494991,0.15281426915238555 -0.8396793587174349,0.15494657968520398 -0.8356713426853708,0.15225427307998324 -0.8316633266533067,0.15341132779984257 -0.8276553106212425,0.15084733453080318 -0.8236472945891784,0.14751657022107634 -0.8196392785571143,0.14739230788170898 -0.8156312625250501,0.1495001719755199 -0.811623246492986,0.15253346853385497 -0.8076152304609219,0.15264892773402478 -0.8036072144288577,0.15720936730131818 -0.7995991983967936,0.15671701121642279 -0.7955911823647295,0.15354432940956253 -0.7915831663326653,0.15331063514702276 -0.7875751503006012,0.15610232551465641 -0.7835671342685371,0.15541212272580746 -0.779559118236473,0.1578019118358278 -0.7755511022044088,0.15860571202111218 -0.7715430861723447,0.1549889754559729 -0.7675350701402806,0.15404915008601994 -0.7635270541082164,0.15424825821170068 -0.7595190380761523,0.15161739582431188 -0.7555110220440882,0.1490863585408828 -0.751503006012024,0.14872275037985505 -0.7474949899799599,0.14860452601140012 -0.7434869739478958,0.1506949972276022 -0.7394789579158316,0.14971411960465808 -0.7354709418837675,0.15006821398216003 -0.7314629258517034,0.15088122334308768 -0.7274549098196392,0.14918056435770538 -0.7234468937875751,0.15009645656056259 -0.719438877755511,0.14942531933721243 -0.7154308617234469,0.15001875472950627 -0.7114228456913828,0.15066881884730554 -0.7074148296593187,0.1534558621615525 -0.7034068136272545,0.150799523051243 -0.6993987975951904,0.15259636723279507 -0.6953907815631263,0.15025650862759382 -0.6913827655310621,0.1493102941042559 -0.687374749498998,0.1492561748759576 -0.6833667334669339,0.14751925658219017 -0.6793587174348698,0.1477941600696867 -0.6753507014028056,0.1472358238214327 -0.6713426853707415,0.1471196295378534 -0.6673346693386774,0.14687520326782394 -0.6633266533066133,0.147773370095154 -0.6593186372745492,0.14741157515634096 -0.6553106212424851,0.1476856492963089 -0.6513026052104209,0.14814031982381543 -0.6472945891783568,0.14889722882471473 -0.6432865731462927,0.14870521019603883 -0.6392785571142285,0.1497692541771976 -0.6352705410821644,0.14956608849620534 -0.6312625250501003,0.1517228205499312 -0.6272545090180361,0.15144678519018612 -0.623246492985972,0.15284625204824204 -0.6192384769539079,0.1520177620130857 -0.6152304609218437,0.15196499812345143 -0.6112224448897796,0.15160935665338837 -0.6072144288577155,0.15232372963804797 -0.6032064128256514,0.15137877346547035 -0.5991983967935872,0.15045402031242044 -0.5951903807615231,0.1495019237204755 -0.591182364729459,0.14914155846564658 -0.5871743486973948,0.1500925724754678 -0.5831663326653307,0.14921531418992218 -0.5791583166332666,0.1491479020934643 -0.5751503006012024,0.14931483556434083 -0.5711422845691383,0.1489835965802463 -0.5671342685370742,0.14883405706360603 -0.56312625250501,0.14923366665036458 -0.5591182364729459,0.14934902379231602 -0.5551102204408818,0.14925684169905218 -0.5511022044088176,0.14901535777653874 -0.5470941883767535,0.14862999477533634 -0.5430861723446894,0.14884988668709692 -0.5390781563126252,0.14926669282136745 -0.5350701402805611,0.14961785078704798 -0.531062124248497,0.1494394470505256 -0.5270541082164328,0.1495032516772148 -0.5230460921843687,0.1493873044283986 -0.5190380761523046,0.14930211421787248 -0.5150300601202404,0.14925485004079042 -0.5110220440881764,0.14923396031376285 -0.5070140280561123,0.1492378688659008 -0.5030060120240482,0.14923306819523807 -0.498997995991984,0.1492044996510043 -0.4949899799599199,0.14917136235453143 -0.49098196392785576,0.14932204023142948 -0.4869739478957916,0.14922357833718713 -0.4829659318637275,0.14944202223472408 -0.47895791583166336,0.14951031378049007 -0.47494989979959923,0.1495691340305546 -0.4709418837675351,0.14962877646839012 -0.46693386773547096,0.14958777868910306 -0.46292585170340683,0.14947383546017123 -0.4589178356713427,0.14986409579810273 -0.45490981963927857,0.1503903052814794 -0.45090180360721444,0.15037050764254212 -0.4468937875751503,0.15078676539603691 -0.44288577154308617,0.15041317228289647 -0.43887775551102204,0.15037664133591466 -0.434869739478958,0.1501740111275996 -0.4308617234468939,0.14984460144299944 -0.42685370741482975,0.14940823143748716 -0.4228456913827656,0.14910222093236591 -0.4188376753507015,0.14927422751863434 -0.41482965931863736,0.14970955409698966 -0.4108216432865732,0.1496850105894702 -0.4068136272545091,0.15041210347069756 -0.40280561122244496,0.15036989875355045 -0.3987975951903808,0.14942364484324633 -0.3947895791583167,0.15024575586436772 -0.39078156312625256,0.15036601813826528 -0.38677354709418843,0.1517198595773397 -0.3827655310621243,0.15155266309104704 -0.37875751503006017,0.1508076252441733 -0.37474949899799603,0.15045254219379778 -0.3707414829659319,0.14969725931753997 -0.36673346693386777,0.15016579438164662 -0.36272545090180364,0.15004727913431698 -0.3587174348697395,0.1507556858436208 -0.35470941883767537,0.15053570054560894 -0.35070140280561124,0.1505747770328661 -0.3466933867735471,0.14848490168657502 -0.342685370741483,0.14705484973857103 -0.33867735470941884,0.14683691217069716 -0.3346693386773547,0.14635382450822765 -0.3306613226452907,0.1397742234951732 -0.32665330661322656,0.13927751375231656 -0.3226452905811624,0.13967827117281745 -0.3186372745490983,0.13985886833103028 -0.31462925851703416,0.14035647249892846 -0.31062124248497003,0.14040095982998446 -0.3066132264529059,0.14168472942395732 -0.30260521042084176,0.14174179734239356 -0.29859719438877763,0.1421233939042445 -0.2945891783567135,0.14258167693336932 -0.29058116232464937,0.14604178988187794 -0.28657314629258523,0.14310066722213005 -0.2825651302605211,0.1473604522388512 -0.27855711422845697,0.149069075609906 -0.27454909819639284,0.14561950889999792 -0.2705410821643287,0.14300461643945722 -0.2665330661322646,0.1404414797942864 -0.26252505010020044,0.14228005026814933 -0.2585170340681363,0.14090546506815071 -0.2545090180360722,0.1394080584812839 -0.25050100200400804,0.13493850019453568 -0.2464929859719439,0.13579752591269062 -0.24248496993987978,0.1386961521653612 -0.23847695390781565,0.14503543157722953 -0.23446893787575152,0.14558995344805364 -0.2304609218436875,0.14810650744308124 -0.22645290581162336,0.14502378324507448 -0.22244488977955923,0.14440618074732575 -0.2184368737474951,0.14990442120345415 -0.21442885771543096,0.15615764796942633 -0.21042084168336683,0.15513100135661162 -0.2064128256513027,0.15745865298569722 -0.20240480961923857,0.15243084674450608 -0.19839679358717444,0.1513368600894916 -0.1943887775551103,0.1441510764652783 -0.19038076152304617,0.14509881325281293 -0.18637274549098204,0.1421945227428567 -0.1823647294589179,0.13838087890101314 -0.17835671342685377,0.15186199028857472 -0.17434869739478964,0.15265203250754078 -0.1703406813627255,0.16354651118027425 -0.16633266533066138,0.16272531117095657 -0.16232464929859725,0.16293918195441853 -0.1583166332665331,0.1604262426531312 -0.15430861723446898,0.1605700880217249 -0.15030060120240485,0.16944765668957695 -0.14629258517034072,0.17927709934709113 -0.14228456913827658,0.17920520551053631 -0.13827655310621245,0.18665613933122183 -0.13426853707414832,0.19430623317110796 -0.1302605210420842,0.20415551950967675 -0.12625250501002017,0.21693925417678173 -0.12224448897795603,0.1866092191454739 -0.1182364729458919,0.18055041222291196 -0.11422845691382777,0.1813062532709248 -0.11022044088176364,0.17542362793797245 -0.1062124248496995,0.1744891511829592 -0.10220440881763537,0.19056967104146139 -9.819639278557124e-2,0.1670746465488493 -9.418837675350711e-2,0.1619218925557433 -9.018036072144298e-2,0.15492378898546666 -8.617234468937884e-2,0.15197180907943753 -8.216432865731471e-2,0.14876093238381427 -7.815631262525058e-2,0.1488872239900384 -7.414829659318645e-2,0.15264041909078974 -7.014028056112231e-2,0.14529020652687258 -6.613226452905818e-2,0.14378361136297146 -6.212424849699405e-2,0.13866880665910042 -5.811623246492992e-2,0.13000341425243506 -5.4108216432865786e-2,0.1401139052964857 -5.010020040080165e-2,0.13866339745494555 -4.609218436873752e-2,0.13779213301585502 -4.208416833667339e-2,0.132254770325821 -3.8076152304609256e-2,0.13770545860570904 -3.4068136272545124e-2,0.1387466320730174 -3.0060120240480992e-2,0.12899325820752755 -2.605210420841686e-2,0.12354312384208727 -2.204408817635284e-2,0.12307596779630603 -1.8036072144288706e-2,0.11887784329781059 -1.4028056112224574e-2,0.1160179403229244 -1.0020040080160442e-2,0.11761123847484534 -6.012024048096309e-3,0.12389462214619879 -2.004008016032177e-3,0.12358586455745285 2.004008016031955e-3,0.12326116851220281 6.012024048096087e-3,0.11579550076899064 1.002004008016022e-2,0.11409199237675932 1.4028056112224352e-2,0.11589268397164948 1.8036072144288484e-2,0.1097487699415321 2.2044088176352616e-2,0.10901807726855162 2.605210420841675e-2,0.10813431821846742 3.006012024048088e-2,0.11043215860801525 3.406813627254501e-2,0.1069531515427557 3.8076152304609145e-2,0.10641751422642992 4.208416833667328e-2,0.1070497259880881 4.609218436873741e-2,0.10753102394650205 5.010020040080154e-2,0.10930490829325934 5.4108216432865675e-2,0.10578195873760321 5.811623246492981e-2,0.10812911602136355 6.212424849699394e-2,0.10890831253316091 6.613226452905807e-2,0.11267631506475212 7.01402805611222e-2,0.11729823570017478 7.414829659318634e-2,0.1185561789760709 7.815631262525047e-2,0.11159829293290008 8.21643286573146e-2,0.11021468244151017 8.617234468937873e-2,0.1068939162018473 9.018036072144286e-2,0.10750502519680499 9.4188376753507e-2,0.10520399242758954 9.819639278557113e-2,0.10354933428356394 0.10220440881763526,0.1037835646749043 0.1062124248496994,0.10541513868244246 0.11022044088176353,0.10071408337105014 0.11422845691382766,0.1110434011192824 0.11823647294589179,0.1116057105668628 0.12224448897795592,0.10837870485435719 0.12625250501002006,0.11084227236368971 0.13026052104208397,0.1092993651963548 0.1342685370741481,0.1063938868561719 0.13827655310621223,0.10155265491531801 0.14228456913827636,0.1017210817002483 0.1462925851703405,0.1009169494014458 0.15030060120240463,0.1001565264171973 0.15430861723446876,9.832500815615414e-2 0.1583166332665329,9.804494462694624e-2 0.16232464929859702,0.10098181612335805 0.16633266533066116,9.96898530650775e-2 0.1703406813627253,9.984094818894679e-2 0.17434869739478942,9.740027424099235e-2 0.17835671342685355,9.783310743069157e-2 0.18236472945891768,9.779522491899362e-2 0.18637274549098182,9.888139267029505e-2 0.19038076152304595,9.84304409819689e-2 0.19438877755511008,9.820219800382052e-2 0.1983967935871742,9.530623770614571e-2 0.20240480961923835,9.630942740977882e-2 0.20641282565130248,9.660446620179991e-2 0.2104208416833666,9.515114794119289e-2 0.21442885771543074,9.493395740156307e-2 0.21843687374749488,9.476295497553389e-2 0.222444889779559,9.766200447351586e-2 0.22645290581162314,9.853338052406357e-2 0.23046092184368727,9.582502121051711e-2 0.2344689378757514,9.751163846594524e-2 0.23847695390781554,0.10387248020184259 0.24248496993987967,0.10454099499354863 0.2464929859719438,0.10567928999018561 0.25050100200400793,0.1046321957757349 0.25450901803607207,0.11399372531296592 0.2585170340681362,0.11143698099505328 0.26252505010020033,0.10959342166036806 0.26653306613226446,0.10687168059788854 0.2705410821643286,0.10908787796177616 0.2745490981963927,0.11160274996330244 0.27855711422845686,0.1090713931327994 0.282565130260521,0.11013661642048295 0.2865731462925851,0.114490632289383 0.29058116232464926,0.11413577073470516 0.2945891783567134,0.11708773102429859 0.2985971943887775,0.11948076203089514 0.30260521042084165,0.1188929986058595 0.3066132264529058,0.12341732747371131 0.3106212424849699,0.12434955461619995 0.31462925851703405,0.11892462613747767 0.3186372745490982,0.11645565590562534 0.3226452905811623,0.11461618864872058 0.32665330661322645,0.11159989411085952 0.3306613226452906,0.11024930471568972 0.3346693386773545,0.11046911735054127 0.3386773547094186,0.1112213654185884 0.34268537074148275,0.11011801204597327 0.3466933867735469,0.11070888634919995 0.350701402805611,0.11053627370827024 0.35470941883767515,0.10814671002182591 0.3587174348697393,0.10743104539958542 0.3627254509018034,0.1051900610876571 0.36673346693386755,0.10565856452040823 0.3707414829659317,0.1062447258898595 0.3747494989979958,0.10910919244293577 0.37875751503005994,0.10953217636903273 0.3827655310621241,0.10869236272757404 0.3867735470941882,0.1074549181591809 0.39078156312625234,0.10586615110453335 0.3947895791583165,0.10529010425523305 0.3987975951903806,0.10378876165602552 0.40280561122244474,0.10432146668056524 0.40681362725450887,0.10557717975077541 0.410821643286573,0.1054056964169664 0.41482965931863713,0.10461194655962153 0.41883767535070127,0.10425271873426506 0.4228456913827654,0.10350045797656704 0.42685370741482953,0.10355695794574343 0.43086172344689366,0.10430779898589537 0.4348697394789578,0.10568696082855905 0.4388777555110219,0.10517908783702506 0.44288577154308606,0.10641011593058841 0.4468937875751502,0.10604040437836937 0.4509018036072143,0.10518677217683642 0.45490981963927846,0.1046106110805749 0.4589178356713426,0.10554360289299847 0.4629258517034067,0.10473514296689967 0.46693386773547085,0.10503391667153095 0.470941883767535,0.1054566073415622 0.4749498997995991,0.1072574875896517 0.47895791583166325,0.1087280153425989 0.4829659318637274,0.1098837013025194 0.4869739478957915,0.11620984527179656 0.49098196392785565,0.11407790570181559 0.4949899799599198,0.11397468166975688 0.4989979959919839,0.11125009862883312 0.503006012024048,0.11292052181167134 0.5070140280561122,0.11608789528988506 0.5110220440881763,0.11337757373113722 0.5150300601202404,0.12236100449606041 0.5190380761523046,0.12170633711476353 0.5230460921843687,0.11810924950622126 0.5270541082164328,0.11498046900653414 0.531062124248497,0.11759631222051753 0.5350701402805611,0.11540843640654141 0.539078156312625,0.1156494764355605 0.5430861723446891,0.12464904138211352 0.5470941883767533,0.12137722712218252 0.5511022044088174,0.12253544763519225 0.5551102204408815,0.12059482444343911 0.5591182364729457,0.11702710438422198 0.5631262525050098,0.11691967095340305 0.5671342685370739,0.11930116572284793 0.5711422845691381,0.1163056535148746 0.5751503006012022,0.11279352112976065 0.5791583166332663,0.11262512050379608 0.5831663326653305,0.11276915800050324 0.5871743486973946,0.11278401465728732 0.5911823647294587,0.11090896653820143 0.5951903807615229,0.1102111397734758 0.599198396793587,0.11053372429500158 0.6032064128256511,0.11153923556375472 0.6072144288577153,0.11096540814963007 0.6112224448897794,0.11098010580199891 0.6152304609218435,0.11107658427731149 0.6192384769539077,0.11245724544555963 0.6232464929859718,0.11257190442129428 0.6272545090180359,0.11483185349361913 0.6312625250501,0.11356928857048132 0.6352705410821642,0.11422565965115 0.6392785571142283,0.11556192772393181 0.6432865731462925,0.11460059276151813 0.6472945891783566,0.11765716066411169 0.6513026052104207,0.12235257168644814 0.6553106212424848,0.12067126521117755 0.659318637274549,0.1179045037352976 0.6633266533066131,0.1191065534002958 0.6673346693386772,0.12337663308861635 0.6713426853707414,0.12137073353898192 0.6753507014028055,0.11995393894912793 0.6793587174348696,0.1176726962060427 0.6833667334669338,0.11809380314461565 0.6873747494989979,0.11607145577959255 0.691382765531062,0.11663727196737039 0.6953907815631262,0.11610449114578886 0.6993987975951903,0.1170922921507545 0.7034068136272544,0.1158030968066181 0.7074148296593186,0.11666981117604408 0.7114228456913827,0.11617699641239604 0.7154308617234468,0.11587633009629161 0.719438877755511,0.11520903121952064 0.7234468937875751,0.11432682839339547 0.7274549098196392,0.11455152025292875 0.7314629258517034,0.11408540169162645 0.7354709418837675,0.11468094471303814 0.7394789579158316,0.1134520015343522 0.7434869739478958,0.11296636772465801 0.7474949899799597,0.11322021635283858 0.7515030060120238,0.11318281192702784 0.7555110220440879,0.11288576863029665 0.7595190380761521,0.11262585912184098 0.7635270541082162,0.11293764986582255 0.7675350701402803,0.11281300172903103 0.7715430861723445,0.11278553357584875 0.7755511022044086,0.11274780592836264 0.7795591182364727,0.11222833236642371 0.7835671342685369,0.11222676355662303 0.787575150300601,0.11231843891370064 0.7915831663326651,0.11268516078907476 0.7955911823647293,0.11283732421061549 0.7995991983967934,0.11274052794525657 0.8036072144288575,0.11250326025495888 0.8076152304609217,0.11242472734258796 0.8116232464929858,0.11230358533019086 0.8156312625250499,0.11253147201207192 0.819639278557114,0.11306095744763184 0.8236472945891782,0.11343489023114245 0.8276553106212423,0.11335858776175606 0.8316633266533064,0.11333505148740491 0.8356713426853706,0.11339451138360979 0.8396793587174347,0.11349774769149373 0.8436873747494988,0.11352275857718752 0.847695390781563,0.11353040694178945 0.8517034068136271,0.11374381281348811 0.8557114228456912,0.11374250029292898 0.8597194388777554,0.11394784425901017 0.8637274549098195,0.11394489637156557 0.8677354709418836,0.11392532528412758 0.8717434869739478,0.11409021116904988 0.8757515030060119,0.1143077397581394 0.879759519038076,0.11432080445115672 0.8837675350701402,0.11428396043718952 0.8877755511022043,0.11460993799794544 0.8917835671342684,0.11457576515327778 0.8957915831663326,0.11423754917501222 0.8997995991983967,0.11443358577970758 0.9038076152304608,0.11525051981627993 0.907815631262525,0.11478422136845812 0.9118236472945891,0.11505973337663589 0.9158316633266532,0.11478468977934253 0.9198396793587174,0.1152632774135362 0.9238476953907815,0.11599693145563161 0.9278557114228456,0.11566049729151212 0.9318637274549098,0.11650136899556562 0.9358717434869739,0.11626531742871571 0.939879759519038,0.11642685312159545 0.9438877755511021,0.11761756569802656 0.9478957915831663,0.11807359697286507 0.9519038076152302,0.11764223968689363 0.9559118236472943,0.11759080461310445 0.9599198396793585,0.11766861742303875 0.9639278557114226,0.11636756621753075 0.9679358717434867,0.1145879258349109 0.9719438877755509,0.11610453828991757 0.975951903807615,0.11592395260167193 0.9799599198396791,0.11629412647602683 0.9839679358717432,0.11466559708665663 0.9879759519038074,0.11554006417648666 0.9919839679358715,0.11773774335275716 0.9959919839679356,0.11906145756756542 0.9999999999999998,0.1193245172056916" /></g><g /><g stroke-width="4.0e-3" stroke="#3764A0" fill="#FFFFFF" fill-opacity="1.0" stroke-opacity="0.5"><rect width="0.42152869952511957" height="0.25817398204276576" x="0.3543888690554248" y="8.456460076186187e-2" /></g><g stroke-width="0.0" stroke="none" fill="#666666" fill-opacity="1.0" font-size="4.000000000000001e-2" text-anchor="start"><text x="0.3776456248912935" y="0.30338864502115775">rate = 0.996</text></g><g stroke-width="5.0e-3" stroke="#02C814" fill="none" stroke-opacity="0.5"><polyline points="0.7032402065934548,0.2970542647925992 0.7497537182651921,0.2970542647925992" /></g><g stroke-width="0.0" stroke="none" fill="#666666" fill-opacity="1.0" font-size="4.000000000000001e-2" text-anchor="start"><text x="0.3776456248912935" y="0.24868263395633378">rate = 0.99</text></g><g stroke-width="5.0e-3" stroke="#382A8C" fill="none" stroke-opacity="0.5"><polyline points="0.7032402065934548,0.24234825372777521 0.7497537182651921,0.24234825372777521" /></g><g stroke-width="0.0" stroke="none" fill="#666666" fill-opacity="1.0" font-size="4.000000000000001e-2" text-anchor="start"><text x="0.3776456248912935" y="0.1939766228915098">rate = 0.95</text></g><g stroke-width="5.0e-3" stroke="#3C7F2B" fill="none" stroke-opacity="0.5"><polyline points="0.7032402065934548,0.1876422426629512 0.7497537182651921,0.1876422426629512" /></g><g stroke-width="0.0" stroke="none" fill="#666666" fill-opacity="1.0" font-size="4.000000000000001e-2" text-anchor="start"><text x="0.3776456248912935" y="0.13927061182668582">zero</text></g><g stroke-width="5.0e-3" stroke="#C58C4B" fill="none" stroke-opacity="0.5"><polyline points="0.7032402065934547,0.13293623159812726 0.749753718265192,0.13293623159812726" /></g><g /></svg>