<?xml version="1.0" encoding="UTF-8"?>
<!DOCTYPE svg PUBLIC "-//W3C//DTD SVG 1.1//EN"
    "http://www.w3.org/Graphics/SVG/1.1/DTD/svg11.dtd"><svg xmlns="http://www.w3.org/2000/svg" height="400.0000" stroke-opacity="1" viewBox="0 0 600 400" font-size="1" width="600.0000" xmlns:xlink="http://www.w3.org/1999/xlink" stroke="rgb(0,0,0)" version="1.1"><defs></defs><g stroke-linejoin="miter" stroke-opacity="0.0" fill-opacity="0.2" stroke="rgb(0,0,0)" stroke-width="0.0" fill="rgb(85,85,85)" stroke-linecap="butt" stroke-miterlimit="10.0"><path d="M 94.4056,321.6783 l -0.0000,-279.7203 h -5.5944 l -0.0000,279.7203 Z"/></g><g stroke-linejoin="miter" stroke-opacity="1.0" fill-opacity="0.7" font-size="11.188811188811187px" stroke="rgb(0,0,0)" stroke-width="1.9296726052976874" fill="rgb(51,51,51)" stroke-linecap="butt" stroke-miterlimit="10.0"><text dominant-baseline="middle" transform="matrix(1.0000,0.0000,0.0000,1.0000,80.4196,47.2303)" stroke="none" text-anchor="end">0.0020</text></g><g stroke-linejoin="miter" stroke-opacity="0.5" fill-opacity="0.0" stroke="rgb(26,102,204)" stroke-width="1.9296726052976874" fill="rgb(0,0,0)" stroke-linecap="butt" stroke-miterlimit="10.0"><path d="M 86.0140,47.2303 h 5.5944 "/></g><g stroke-linejoin="miter" stroke-opacity="1.0" fill-opacity="0.7" font-size="11.188811188811187px" stroke="rgb(0,0,0)" stroke-width="1.9296726052976874" fill="rgb(51,51,51)" stroke-linecap="butt" stroke-miterlimit="10.0"><text dominant-baseline="middle" transform="matrix(1.0000,0.0000,0.0000,1.0000,80.4196,84.8360)" stroke="none" text-anchor="end">0.0010</text></g><g stroke-linejoin="miter" stroke-opacity="0.5" fill-opacity="0.0" stroke="rgb(26,102,204)" stroke-width="1.9296726052976874" fill="rgb(0,0,0)" stroke-linecap="butt" stroke-miterlimit="10.0"><path d="M 86.0140,84.8360 h 5.5944 "/></g><g stroke-linejoin="miter" stroke-opacity="1.0" fill-opacity="0.7" font-size="11.188811188811187px" stroke="rgb(0,0,0)" stroke-width="1.9296726052976874" fill="rgb(51,51,51)" stroke-linecap="butt" stroke-miterlimit="10.0"><text dominant-baseline="middle" transform="matrix(1.0000,0.0000,0.0000,1.0000,80.4196,122.4417)" stroke="none" text-anchor="end">0.0</text></g><g stroke-linejoin="miter" stroke-opacity="0.5" fill-opacity="0.0" stroke="rgb(26,102,204)" stroke-width="1.9296726052976874" fill="rgb(0,0,0)" stroke-linecap="butt" stroke-miterlimit="10.0"><path d="M 86.0140,122.4417 h 5.5944 "/></g><g stroke-linejoin="miter" stroke-opacity="1.0" fill-opacity="0.7" font-size="11.188811188811187px" stroke="rgb(0,0,0)" stroke-width="1.9296726052976874" fill="rgb(51,51,51)" stroke-linecap="butt" stroke-miterlimit="10.0"><text dominant-baseline="middle" transform="matrix(1.0000,0.0000,0.0000,1.0000,80.4196,160.0475)" stroke="none" text-anchor="end">-0.0010</text></g><g stroke-linejoin="miter" stroke-opacity="0.5" fill-opacity="0.0" stroke="rgb(26,102,204)" stroke-width="1.9296726052976874" fill="rgb(0,0,0)" stroke-linecap="butt" stroke-miterlimit="10.0"><path d="M 86.0140,160.0475 h 5.5944 "/></g><g stroke-linejoin="miter" stroke-opacity="1.0" fill-opacity="0.7" font-size="11.188811188811187px" stroke="rgb(0,0,0)" stroke-width="1.9296726052976874" fill="rgb(51,51,51)" stroke-linecap="butt" stroke-miterlimit="10.0"><text dominant-baseline="middle" transform="matrix(1.0000,0.0000,0.0000,1.0000,80.4196,197.6532)" stroke="none" text-anchor="end">-0.0020</text></g><g stroke-linejoin="miter" stroke-opacity="0.5" fill-opacity="0.0" stroke="rgb(26,102,204)" stroke-width="1.9296726052976874" fill="rgb(0,0,0)" stroke-linecap="butt" stroke-miterlimit="10.0"><path d="M 86.0140,197.6532 h 5.5944 "/></g><g stroke-linejoin="miter" stroke-opacity="1.0" fill-opacity="0.7" font-size="11.188811188811187px" stroke="rgb(0,0,0)" stroke-width="1.9296726052976874" fill="rgb(51,51,51)" stroke-linecap="butt" stroke-miterlimit="10.0"><text dominant-baseline="middle" transform="matrix(1.0000,0.0000,0.0000,1.0000,80.4196,235.2590)" stroke="none" text-anchor="end">-0.0030</text></g><g stroke-linejoin="miter" stroke-opacity="0.5" fill-opacity="0.0" stroke="rgb(26,102,204)" stroke-width="1.9296726052976874" fill="rgb(0,0,0)" stroke-linecap="butt" stroke-miterlimit="10.0"><path d="M 86.0140,235.2590 h 5.5944 "/></g><g stroke-linejoin="miter" stroke-opacity="1.0" fill-opacity="0.7" font-size="11.188811188811187px" stroke="rgb(0,0,0)" stroke-width="1.9296726052976874" fill="rgb(51,51,51)" stroke-linecap="butt" stroke-miterlimit="10.0"><text dominant-baseline="middle" transform="matrix(1.0000,0.0000,0.0000,1.0000,80.4196,272.8647)" stroke="none" text-anchor="end">-0.0040</text></g><g stroke-linejoin="miter" stroke-opacity="0.5" fill-opacity="0.0" stroke="rgb(26,102,204)" stroke-width="1.9296726052976874" fill="rgb(0,0,0)" stroke-linecap="butt" stroke-miterlimit="10.0"><path d="M 86.0140,272.8647 h 5.5944 "/></g><g stroke-linejoin="miter" stroke-opacity="1.0" fill-opacity="0.7" font-size="11.188811188811187px" stroke="rgb(0,0,0)" stroke-width="1.9296726052976874" fill="rgb(51,51,51)" stroke-linecap="butt" stroke-miterlimit="10.0"><text dominant-baseline="middle" transform="matrix(1.0000,0.0000,0.0000,1.0000,80.4196,310.4705)" stroke="none" text-anchor="end">-0.0050</text></g><g stroke-linejoin="miter" stroke-opacity="0.5" fill-opacity="0.0" stroke="rgb(26,102,204)" stroke-width="1.9296726052976874" fill="rgb(0,0,0)" stroke-linecap="butt" stroke-miterlimit="10.0"><path d="M 86.0140,310.4705 h 5.5944 "/></g><g stroke-linejoin="miter" stroke-opacity="0.0" fill-opacity="0.2" stroke="rgb(0,0,0)" stroke-width="0.0" fill="rgb(85,85,85)" stroke-linecap="butt" stroke-miterlimit="10.0"><path d="M 527.9720,341.2587 l -0.0000,-5.5944 h -419.5804 l -0.0000,5.5944 Z"/></g><g stroke-linejoin="miter" stroke-opacity="1.0" fill-opacity="0.7" font-size="11.188811188811187px" stroke="rgb(0,0,0)" stroke-width="1.9296726052976874" fill="rgb(51,51,51)" stroke-linecap="butt" stroke-miterlimit="10.0"><text dominant-baseline="text-before-edge" transform="matrix(1.0000,0.0000,0.0000,1.0000,500.6720,349.6503)" stroke="none" text-anchor="middle">1.7e4</text></g><g stroke-linejoin="miter" stroke-opacity="0.5" fill-opacity="0.0" stroke="rgb(26,102,204)" stroke-width="1.9296726052976874" fill="rgb(0,0,0)" stroke-linecap="butt" stroke-miterlimit="10.0"><path d="M 500.6720,338.4615 v 5.5944 "/></g><g stroke-linejoin="miter" stroke-opacity="1.0" fill-opacity="0.7" font-size="11.188811188811187px" stroke="rgb(0,0,0)" stroke-width="1.9296726052976874" fill="rgb(51,51,51)" stroke-linecap="butt" stroke-miterlimit="10.0"><text dominant-baseline="text-before-edge" transform="matrix(1.0000,0.0000,0.0000,1.0000,458.6720,349.6503)" stroke="none" text-anchor="middle">1.7e4</text></g><g stroke-linejoin="miter" stroke-opacity="0.5" fill-opacity="0.0" stroke="rgb(26,102,204)" stroke-width="1.9296726052976874" fill="rgb(0,0,0)" stroke-linecap="butt" stroke-miterlimit="10.0"><path d="M 458.6720,338.4615 v 5.5944 "/></g><g stroke-linejoin="miter" stroke-opacity="1.0" fill-opacity="0.7" font-size="11.188811188811187px" stroke="rgb(0,0,0)" stroke-width="1.9296726052976874" fill="rgb(51,51,51)" stroke-linecap="butt" stroke-miterlimit="10.0"><text dominant-baseline="text-before-edge" transform="matrix(1.0000,0.0000,0.0000,1.0000,416.6719,349.6503)" stroke="none" text-anchor="middle">1.7e4</text></g><g stroke-linejoin="miter" stroke-opacity="0.5" fill-opacity="0.0" stroke="rgb(26,102,204)" stroke-width="1.9296726052976874" fill="rgb(0,0,0)" stroke-linecap="butt" stroke-miterlimit="10.0"><path d="M 416.6719,338.4615 v 5.5944 "/></g><g stroke-linejoin="miter" stroke-opacity="1.0" fill-opacity="0.7" font-size="11.188811188811187px" stroke="rgb(0,0,0)" stroke-width="1.9296726052976874" fill="rgb(51,51,51)" stroke-linecap="butt" stroke-miterlimit="10.0"><text dominant-baseline="text-before-edge" transform="matrix(1.0000,0.0000,0.0000,1.0000,374.6719,349.6503)" stroke="none" text-anchor="middle">1.7e4</text></g><g stroke-linejoin="miter" stroke-opacity="0.5" fill-opacity="0.0" stroke="rgb(26,102,204)" stroke-width="1.9296726052976874" fill="rgb(0,0,0)" stroke-linecap="butt" stroke-miterlimit="10.0"><path d="M 374.6719,338.4615 v 5.5944 "/></g><g stroke-linejoin="miter" stroke-opacity="1.0" fill-opacity="0.7" font-size="11.188811188811187px" stroke="rgb(0,0,0)" stroke-width="1.9296726052976874" fill="rgb(51,51,51)" stroke-linecap="butt" stroke-miterlimit="10.0"><text dominant-baseline="text-before-edge" transform="matrix(1.0000,0.0000,0.0000,1.0000,332.6718,349.6503)" stroke="none" text-anchor="middle">1.7e4</text></g><g stroke-linejoin="miter" stroke-opacity="0.5" fill-opacity="0.0" stroke="rgb(26,102,204)" stroke-width="1.9296726052976874" fill="rgb(0,0,0)" stroke-linecap="butt" stroke-miterlimit="10.0"><path d="M 332.6718,338.4615 v 5.5944 "/></g><g stroke-linejoin="miter" stroke-opacity="1.0" fill-opacity="0.7" font-size="11.188811188811187px" stroke="rgb(0,0,0)" stroke-width="1.9296726052976874" fill="rgb(51,51,51)" stroke-linecap="butt" stroke-miterlimit="10.0"><text dominant-baseline="text-before-edge" transform="matrix(1.0000,0.0000,0.0000,1.0000,290.6718,349.6503)" stroke="none" text-anchor="middle">1.6e4</text></g><g stroke-linejoin="miter" stroke-opacity="0.5" fill-opacity="0.0" stroke="rgb(26,102,204)" stroke-width="1.9296726052976874" fill="rgb(0,0,0)" stroke-linecap="butt" stroke-miterlimit="10.0"><path d="M 290.6718,338.4615 v 5.5944 "/></g><g stroke-linejoin="miter" stroke-opacity="1.0" fill-opacity="0.7" font-size="11.188811188811187px" stroke="rgb(0,0,0)" stroke-width="1.9296726052976874" fill="rgb(51,51,51)" stroke-linecap="butt" stroke-miterlimit="10.0"><text dominant-baseline="text-before-edge" transform="matrix(1.0000,0.0000,0.0000,1.0000,248.6717,349.6503)" stroke="none" text-anchor="middle">1.6e4</text></g><g stroke-linejoin="miter" stroke-opacity="0.5" fill-opacity="0.0" stroke="rgb(26,102,204)" stroke-width="1.9296726052976874" fill="rgb(0,0,0)" stroke-linecap="butt" stroke-miterlimit="10.0"><path d="M 248.6717,338.4615 v 5.5944 "/></g><g stroke-linejoin="miter" stroke-opacity="1.0" fill-opacity="0.7" font-size="11.188811188811187px" stroke="rgb(0,0,0)" stroke-width="1.9296726052976874" fill="rgb(51,51,51)" stroke-linecap="butt" stroke-miterlimit="10.0"><text dominant-baseline="text-before-edge" transform="matrix(1.0000,0.0000,0.0000,1.0000,206.6717,349.6503)" stroke="none" text-anchor="middle">1.6e4</text></g><g stroke-linejoin="miter" stroke-opacity="0.5" fill-opacity="0.0" stroke="rgb(26,102,204)" stroke-width="1.9296726052976874" fill="rgb(0,0,0)" stroke-linecap="butt" stroke-miterlimit="10.0"><path d="M 206.6717,338.4615 v 5.5944 "/></g><g stroke-linejoin="miter" stroke-opacity="1.0" fill-opacity="0.7" font-size="11.188811188811187px" stroke="rgb(0,0,0)" stroke-width="1.9296726052976874" fill="rgb(51,51,51)" stroke-linecap="butt" stroke-miterlimit="10.0"><text dominant-baseline="text-before-edge" transform="matrix(1.0000,0.0000,0.0000,1.0000,164.6717,349.6503)" stroke="none" text-anchor="middle">1.6e4</text></g><g stroke-linejoin="miter" stroke-opacity="0.5" fill-opacity="0.0" stroke="rgb(26,102,204)" stroke-width="1.9296726052976874" fill="rgb(0,0,0)" stroke-linecap="butt" stroke-miterlimit="10.0"><path d="M 164.6717,338.4615 v 5.5944 "/></g><g stroke-linejoin="miter" stroke-opacity="1.0" fill-opacity="0.7" font-size="11.188811188811187px" stroke="rgb(0,0,0)" stroke-width="1.9296726052976874" fill="rgb(51,51,51)" stroke-linecap="butt" stroke-miterlimit="10.0"><text dominant-baseline="text-before-edge" transform="matrix(1.0000,0.0000,0.0000,1.0000,122.6716,349.6503)" stroke="none" text-anchor="middle">1.6e4</text></g><g stroke-linejoin="miter" stroke-opacity="0.5" fill-opacity="0.0" stroke="rgb(26,102,204)" stroke-width="1.9296726052976874" fill="rgb(0,0,0)" stroke-linecap="butt" stroke-miterlimit="10.0"><path d="M 122.6716,338.4615 v 5.5944 "/></g><g stroke-linejoin="miter" stroke-opacity="0.0" fill-opacity="2.0e-2" stroke="rgb(0,0,0)" stroke-width="0.0" fill="rgb(255,255,255)" stroke-linecap="butt" stroke-miterlimit="10.0"><path d="M 527.9720,321.6783 l -0.0000,-279.7203 h -419.5804 l -0.0000,279.7203 Z"/></g><g stroke-linejoin="miter" stroke-opacity="1.0" fill-opacity="0.0" stroke="rgb(250,165,218)" stroke-width="0.48241815132442184" fill="rgb(0,0,0)" stroke-linecap="butt" stroke-miterlimit="10.0"><path d="M 108.3916,164.3218 l 0.4200,-7.1587 l 0.4200,21.3172 l 0.4200,-20.6646 l 0.4200,-19.7337 l 0.4200,-12.3796 l 0.4200,7.9454 l 0.4200,-10.7100 l 0.4200,1.0197 l 0.4200,-1.6258 l 0.4200,-19.0786 l 0.4200,-8.8557 l 0.4200,-12.1304 l 0.4200,1.6849 l 0.4200,-23.4035 l 0.4200,-2.6834 l 0.4200,0.6460 l 0.4200,10.1936 l 0.4200,-2.5360 l 0.4200,-6.6297 l 0.4200,0.1240 l 0.4200,-0.6818 l 0.4200,6.6632 l 0.4200,10.0182 l 0.4200,-2.4722 l 0.4200,0.9078 l 0.4200,9.4554 l 0.4200,1.2324 l 0.4200,2.1381 l 0.4200,-21.6593 l 0.4200,-0.2045 l 0.4200,5.6553 l 0.4200,13.3749 l 0.4200,9.0731 l 0.4200,-5.8373 l 0.4200,8.4866 l 0.4200,3.4927 l 0.4200,-4.0594 l 0.4200,11.1237 l 0.4200,27.8530 l 0.4200,5.6406 l 0.4200,10.2787 l 0.4200,-8.5780 l 0.4200,9.9595 l 0.4200,-17.6283 l 0.4200,-7.9791 l 0.4200,7.4456 l 0.4200,29.5597 l 0.4200,-7.1938 l 0.4200,-5.3608 l 0.4200,4.5888 l 0.4200,-9.4516 l 0.4200,-16.3611 l 0.4200,-2.5974 l 0.4200,-0.3055 l 0.4200,-18.8870 l 0.4200,-12.9935 l 0.4200,-4.3199 l 0.4200,7.9930 l 0.4200,-3.8838 l 0.4200,-9.2606 l 0.4200,-6.0363 l 0.4200,-20.5959 l 0.4200,6.6874 l 0.4200,16.5158 l 0.4200,10.9392 l 0.4200,6.3842 l 0.4200,6.3361 l 0.4200,-5.6810 l 0.4200,8.8302 l 0.4200,12.0733 l 0.4200,-14.8866 l 0.4200,2.1168 l 0.4200,17.7021 l 0.4200,-13.3760 l 0.4200,16.6046 l 0.4200,23.0267 l 0.4200,-2.5443 l 0.4200,-41.9905 l 0.4200,-10.9321 l 0.4200,-6.3095 l 0.4200,14.9783 l 0.4200,-24.9646 l 0.4200,-10.4729 l 0.4200,-9.6190 l 0.4200,2.9761 l 0.4200,-7.7843 l 0.4200,12.3074 l 0.4200,-3.3696 l 0.4200,-5.3172 l 0.4200,0.7020 l 0.4200,-7.3167 l 0.4200,12.7371 l 0.4200,10.1192 l 0.4200,-3.0762 l 0.4200,-4.1609 l 0.4200,8.0357 l 0.4200,-5.6657 l 0.4200,27.5916 l 0.4200,-23.8657 l 0.4200,1.1172 l 0.4200,6.8480 l 0.4200,-13.1256 l 0.4200,-6.3575 l 0.4200,-4.8990 l 0.4200,10.2403 l 0.4200,6.5849 l 0.4200,9.2625 l 0.4200,-13.2752 l 0.4200,-6.6666 l 0.4200,5.3421 l 0.4200,2.4007 l 0.4200,-2.1011 l 0.4200,4.1547 l 0.4200,7.5810 l 0.4200,8.0915 l 0.4200,4.1272 l 0.4200,9.6528 l 0.4200,-20.0394 l 0.4200,-1.3903 l 0.4200,8.0555 l 0.4200,23.0553 l 0.4200,7.6028 l 0.4200,0.3188 l 0.4200,-11.7480 l 0.4200,6.5568 l 0.4200,-30.7020 l 0.4200,3.0489 l 0.4200,-7.2877 l 0.4200,-7.8425 l 0.4200,-2.9525 l 0.4200,-6.2413 l 0.4200,3.6130 l 0.4200,3.1247 l 0.4200,-4.8009 l 0.4200,19.6248 l 0.4200,2.4920 l 0.4200,6.4951 l 0.4200,-9.9658 l 0.4200,2.3562 l 0.4200,1.1672 l 0.4200,-2.5669 l 0.4200,25.6955 l 0.4200,-19.6702 l 0.4200,-8.0581 l 0.4200,4.5468 l 0.4200,9.0995 l 0.4200,-3.9100 l 0.4200,0.4367 l 0.4200,18.2787 l 0.4200,40.2548 l 0.4200,7.7929 l 0.4200,-13.4035 l 0.4200,18.1864 l 0.4200,-23.2130 l 0.4200,11.3243 l 0.4200,42.0316 l 0.4200,-17.9484 l 0.4200,1.1443 l 0.4200,-26.0457 l 0.4200,-26.2712 l 0.4200,-3.0269 l 0.4200,-20.6483 l 0.4200,1.6021 l 0.4200,-9.9119 l 0.4200,-7.5310 l 0.4200,-0.3125 l 0.4200,14.1883 l 0.4200,-10.1640 l 0.4200,5.2962 l 0.4200,-10.1988 l 0.4200,4.4648 l 0.4200,1.6476 l 0.4200,-7.6738 l 0.4200,-3.2248 l 0.4200,16.0918 l 0.4200,-27.1598 l 0.4200,2.8367 l 0.4200,-0.6652 l 0.4200,1.5900 l 0.4200,3.3923 l 0.4200,11.9329 l 0.4200,1.1681 l 0.4200,23.8277 l 0.4200,5.7920 l 0.4200,-17.7868 l 0.4200,-12.3964 l 0.4200,13.3077 l 0.4200,-10.2834 l 0.4200,7.1112 l 0.4200,10.3774 l 0.4200,-7.5782 l 0.4200,14.2985 l 0.4200,3.9221 l 0.4200,-8.5450 l 0.4200,-14.2359 l 0.4200,-11.8623 l 0.4200,-3.4430 l 0.4200,4.1959 l 0.4200,25.5834 l 0.4200,20.8677 l 0.4200,-7.5324 l 0.4200,-20.5026 l 0.4200,40.6663 l 0.4200,16.8004 l 0.4200,-17.3809 l 0.4200,-13.7113 l 0.4200,-19.9763 l 0.4200,-1.8955 l 0.4200,-6.3648 l 0.4200,-6.6315 l 0.4200,5.5458 l 0.4200,-2.1493 l 0.4200,16.4866 l 0.4200,-5.7380 l 0.4200,-8.2599 l 0.4200,-4.5296 l 0.4200,1.5758 l 0.4200,3.7531 l 0.4200,-2.4911 l 0.4200,18.1385 l 0.4200,-10.3182 l 0.4200,3.3705 l 0.4200,-2.2648 l 0.4200,-17.3860 l 0.4200,0.8185 l 0.4200,10.3986 l 0.4200,18.6835 l 0.4200,-6.9869 l 0.4200,-6.7678 l 0.4200,13.0447 l 0.4200,-15.1090 l 0.4200,-3.5277 l 0.4200,-6.9128 l 0.4200,-9.8173 l 0.4200,4.0015 l 0.4200,-8.3891 l 0.4200,-1.3478 l 0.4200,0.8066 l 0.4200,2.8466 l 0.4200,-1.5671 l 0.4200,-10.1637 l 0.4200,-6.1032 l 0.4200,1.1223 l 0.4200,3.2920 l 0.4200,9.3298 l 0.4200,15.5689 l 0.4200,-4.4836 l 0.4200,0.0743 l 0.4200,-2.4423 l 0.4200,-12.6955 l 0.4200,0.0054 l 0.4200,-0.8561 l 0.4200,2.6881 l 0.4200,14.4437 l 0.4200,-7.6201 l 0.4200,4.1882 l 0.4200,-1.8411 l 0.4200,2.5469 l 0.4200,-10.7993 l 0.4200,1.0295 l 0.4200,-8.0713 l 0.4200,10.0119 l 0.4200,15.4003 l 0.4200,-7.3919 l 0.4200,9.5015 l 0.4200,-1.5411 l 0.4200,-7.7736 l 0.4200,5.3454 l 0.4200,-6.4573 l 0.4200,24.1470 l 0.4200,-18.7006 l 0.4200,5.8863 l 0.4200,-8.2313 l 0.4200,-1.6806 l 0.4200,0.7693 l 0.4200,10.7840 l 0.4200,0.5464 l 0.4200,9.6138 l 0.4200,0.4731 l 0.4200,38.5882 l 0.4200,4.0520 l 0.4200,-15.0880 l 0.4200,17.5387 l 0.4200,-1.7125 l 0.4200,8.9029 l 0.4200,-23.6613 l 0.4200,-6.0250 l 0.4200,2.5315 l 0.4200,-13.2589 l 0.4200,-8.1600 l 0.4200,0.5129 l 0.4200,-15.6109 l 0.4200,-8.2215 l 0.4200,-3.0931 l 0.4200,-3.8291 l 0.4200,5.6568 l 0.4200,-7.3699 l 0.4200,0.0152 l 0.4200,1.8926 l 0.4200,5.0723 l 0.4200,-4.5998 l 0.4200,2.8944 l 0.4200,3.1874 l 0.4200,4.4495 l 0.4200,-8.1072 l 0.4200,7.5399 l 0.4200,13.7119 l 0.4200,-6.1696 l 0.4200,-0.6601 l 0.4200,12.2710 l 0.4200,1.7396 l 0.4200,-13.6996 l 0.4200,-1.4124 l 0.4200,-8.0926 l 0.4200,2.3896 l 0.4200,16.4927 l 0.4200,11.4203 l 0.4200,-14.7164 l 0.4200,31.3745 l 0.4200,-16.9714 l 0.4200,4.8102 l 0.4200,4.9890 l 0.4200,24.5896 l 0.4200,-1.7531 l 0.4200,-22.5681 l 0.4200,2.4603 l 0.4200,28.0296 l 0.4200,-34.6826 l 0.4200,39.0274 l 0.4200,19.3865 l 0.4200,28.0909 l 0.4200,-7.6330 l 0.4200,11.0783 l 0.4200,-5.1000 l 0.4200,-28.7206 l 0.4200,-20.2260 l 0.4200,-38.5384 l 0.4200,13.6636 l 0.4200,-23.8758 l 0.4200,-12.8497 l 0.4200,3.8209 l 0.4200,-21.5512 l 0.4200,4.4939 l 0.4200,-10.0586 l 0.4200,-19.8167 l 0.4200,3.3655 l 0.4200,8.3098 l 0.4200,-8.1560 l 0.4200,-4.1357 l 0.4200,2.5107 l 0.4200,-2.8247 l 0.4200,1.8723 l 0.4200,4.4093 l 0.4200,1.8696 l 0.4200,2.3208 l 0.4200,1.2731 l 0.4200,-7.0412 l 0.4200,5.7734 l 0.4200,-1.0420 l 0.4200,-7.1171 l 0.4200,-2.3154 l 0.4200,5.3462 l 0.4200,-2.3591 l 0.4200,7.8200 l 0.4200,15.5252 l 0.4200,-10.1106 l 0.4200,-4.6945 l 0.4200,4.7907 l 0.4200,-0.7675 l 0.4200,16.0971 l 0.4200,2.0362 l 0.4200,32.4936 l 0.4200,-8.6569 l 0.4200,31.0617 l 0.4200,10.7419 l 0.4200,14.2846 l 0.4200,-40.5224 l 0.4200,-45.0895 l 0.4200,-6.7177 l 0.4200,-5.0275 l 0.4200,-0.9085 l 0.4200,2.6748 l 0.4200,-3.9405 l 0.4200,0.8598 l 0.4200,11.6480 l 0.4200,21.3217 l 0.4200,1.3914 l 0.4200,35.4038 l 0.4200,15.7346 l 0.4200,-23.6498 l 0.4200,-33.9927 l 0.4200,16.9794 l 0.4200,15.4398 l 0.4200,4.2503 l 0.4200,10.1719 l 0.4200,16.1772 l 0.4200,-27.2524 l 0.4200,-3.6144 l 0.4200,-9.4397 l 0.4200,-28.5757 l 0.4200,11.7447 l 0.4200,-4.1027 l 0.4200,26.3027 l 0.4200,25.1346 l 0.4200,-19.5290 l 0.4200,23.9960 l 0.4200,-26.1353 l 0.4200,-27.4328 l 0.4200,8.7398 l 0.4200,-18.8798 l 0.4200,7.8289 l 0.4200,8.9315 l 0.4200,-19.4889 l 0.4200,1.5792 l 0.4200,-16.6616 l 0.4200,-5.3917 l 0.4200,-0.4971 l 0.4200,3.1170 l 0.4200,4.3635 l 0.4200,-9.3481 l 0.4200,3.2023 l 0.4200,-2.7300 l 0.4200,4.0401 l 0.4200,5.1669 l 0.4200,7.6964 l 0.4200,-9.7437 l 0.4200,10.8056 l 0.4200,9.9517 l 0.4200,-1.0626 l 0.4200,28.0958 l 0.4200,-7.5960 l 0.4200,32.4177 l 0.4200,2.1993 l 0.4200,-25.1020 l 0.4200,11.2561 l 0.4200,-26.1244 l 0.4200,6.8007 l 0.4200,-22.5834 l 0.4200,10.5160 l 0.4200,-16.1344 l 0.4200,4.8839 l 0.4200,12.8911 l 0.4200,28.2254 l 0.4200,3.6917 l 0.4200,-5.3761 l 0.4200,-23.5225 l 0.4200,17.1917 l 0.4200,7.1026 l 0.4200,-7.3306 l 0.4200,-12.6951 l 0.4200,4.2214 l 0.4200,-4.9450 l 0.4200,-8.0039 l 0.4200,-8.9932 l 0.4200,9.8512 l 0.4200,-2.3769 l 0.4200,-8.8270 l 0.4200,2.7461 l 0.4200,22.5161 l 0.4200,-17.3315 l 0.4200,3.6942 l 0.4200,-8.8656 l 0.4200,-3.2825 l 0.4200,-2.9344 l 0.4200,9.2491 l 0.4200,-4.2427 l 0.4200,8.2430 l 0.4200,19.9023 l 0.4200,-20.6931 l 0.4200,-4.6565 l 0.4200,23.4513 l 0.4200,8.2193 l 0.4200,-7.6379 l 0.4200,-25.2783 l 0.4200,10.7749 l 0.4200,6.0964 l 0.4200,0.8245 l 0.4200,-19.9368 l 0.4200,-0.1678 l 0.4200,-4.4932 l 0.4200,2.6759 l 0.4200,3.0657 l 0.4200,-3.2304 l 0.4200,5.5427 l 0.4200,20.4749 l 0.4200,-17.1736 l 0.4200,3.3172 l 0.4200,12.6319 l 0.4200,-3.8096 l 0.4200,2.1891 l 0.4200,-3.8132 l 0.4200,16.6572 l 0.4200,2.2027 l 0.4200,11.6434 l 0.4200,-1.9611 l 0.4200,-23.5979 l 0.4200,-3.1025 l 0.4200,13.4743 l 0.4200,8.2866 l 0.4200,-11.5058 l 0.4200,-3.9389 l 0.4200,-18.5669 l 0.4200,10.9209 l 0.4200,-11.1122 l 0.4200,-0.2811 l 0.4200,14.7871 l 0.4200,5.7343 l 0.4200,0.6025 l 0.4200,39.5044 l 0.4200,-7.1790 l 0.4200,-14.7722 l 0.4200,-0.4155 l 0.4200,6.2748 l 0.4200,-12.7378 l 0.4200,30.9232 l 0.4200,-6.5294 l 0.4200,-24.9773 l 0.4200,-21.2880 l 0.4200,-7.8948 l 0.4200,2.2039 l 0.4200,-14.3280 l 0.4200,-0.6478 l 0.4200,-0.0089 l 0.4200,9.4803 l 0.4200,5.4495 l 0.4200,11.3921 l 0.4200,20.3406 l 0.4200,9.9704 l 0.4200,-24.5692 l 0.4200,-13.8171 l 0.4200,0.5076 l 0.4200,4.7810 l 0.4200,5.4478 l 0.4200,4.2183 l 0.4200,-6.0721 l 0.4200,14.7341 l 0.4200,4.7372 l 0.4200,-24.8338 l 0.4200,18.4705 l 0.4200,-2.3981 l 0.4200,1.9576 l 0.4200,-7.8921 l 0.4200,-9.9065 l 0.4200,5.3099 l 0.4200,15.6524 l 0.4200,39.3697 l 0.4200,58.3478 l 0.4200,70.7110 l 0.4200,16.7245 l 0.4200,-83.1888 l 0.4200,-50.9775 l 0.4200,-4.2429 l 0.4200,12.8234 l 0.4200,52.7696 l 0.4200,-40.6179 l 0.4200,-6.3533 l 0.4200,25.1120 l 0.4200,-51.9422 l 0.4200,23.8790 l 0.4200,-13.8099 l 0.4200,-11.5017 l 0.4200,5.1882 l 0.4200,-26.8099 l 0.4200,-17.6878 l 0.4200,4.2836 l 0.4200,29.8313 l 0.4200,-10.9707 l 0.4200,21.5928 l 0.4200,0.9513 l 0.4200,3.4536 l 0.4200,-2.1852 l 0.4200,45.9593 l 0.4200,-7.6889 l 0.4200,-40.4039 l 0.4200,-6.3910 l 0.4200,-29.2179 l 0.4200,-35.0569 l 0.4200,7.5563 l 0.4200,-14.7837 l 0.4200,-15.4661 l 0.4200,0.4829 l 0.4200,-0.5982 l 0.4200,14.7473 l 0.4200,9.9761 l 0.4200,-27.1619 l 0.4200,-6.6008 l 0.4200,1.7877 l 0.4200,4.8795 l 0.4200,12.9539 l 0.4200,-29.7382 l 0.4200,-17.8515 l 0.4200,7.3121 l 0.4200,8.1463 l 0.4200,-19.2511 l 0.4200,4.7364 l 0.4200,12.7304 l 0.4200,-19.2182 l 0.4200,-1.1573 l 0.4200,10.7214 l 0.4200,5.6200 l 0.4200,3.8607 l 0.4200,21.5853 l 0.4200,-0.9215 l 0.4200,8.0616 l 0.4200,28.0631 l 0.4200,21.3484 l 0.4200,-28.7464 l 0.4200,3.0992 l 0.4200,-29.7639 l 0.4200,4.0301 l 0.4200,-5.4803 l 0.4200,4.2805 l 0.4200,-0.5658 l 0.4200,2.0079 l 0.4200,0.5457 l 0.4200,10.3831 l 0.4200,-18.8706 l 0.4200,22.8762 l 0.4200,28.1099 l 0.4200,-38.7552 l 0.4200,14.7168 l 0.4200,12.9284 l 0.4200,14.6579 l 0.4200,-4.9187 l 0.4200,36.4922 l 0.4200,-11.2196 l 0.4200,-21.5611 l 0.4200,-27.6726 l 0.4200,29.3354 l 0.4200,33.0300 l 0.4200,-16.9895 l 0.4200,-17.9741 l 0.4200,-23.7581 l 0.4200,3.6666 l 0.4200,4.5045 l 0.4200,-19.7049 l 0.4200,14.8434 l 0.4200,18.1735 l 0.4200,28.4810 l 0.4200,-5.7434 l 0.4200,23.2484 l 0.4200,42.3980 l 0.4200,15.6949 l 0.4200,-7.3342 l 0.4200,-20.0314 l 0.4200,43.3375 l 0.4200,-37.7837 l 0.4200,36.5736 l 0.4200,-7.4431 l 0.4200,16.1206 l 0.4200,-16.6573 l 0.4200,-43.8767 l 0.4200,25.8840 l 0.4200,-31.5933 l 0.4200,17.0555 l 0.4200,-14.7934 l 0.4200,-49.6256 l 0.4200,-0.2386 l 0.4200,34.4275 l 0.4200,-12.3281 l 0.4200,-5.1064 l 0.4200,33.0771 l 0.4200,23.0664 l 0.4200,-3.6176 l 0.4200,-4.2746 l 0.4200,18.8706 l 0.4200,-41.7917 l 0.4200,-33.9704 l 0.4200,-32.2405 l 0.4200,8.9019 l 0.4200,-0.3885 l 0.4200,-27.4095 l 0.4200,24.6338 l 0.4200,-8.6475 l 0.4200,-21.0537 l 0.4200,4.7815 l 0.4200,16.3415 l 0.4200,-44.2438 l 0.4200,-5.2846 l 0.4200,-3.9290 l 0.4200,-3.3690 l 0.4200,1.3564 l 0.4200,24.2617 l 0.4200,-7.7735 l 0.4200,1.8373 l 0.4200,-28.5792 l 0.4200,5.8505 l 0.4200,6.6350 l 0.4200,-7.6784 l 0.4200,-9.1524 l 0.4200,-4.5957 l 0.4200,2.0598 l 0.4200,5.4648 l 0.4200,15.5962 l 0.4200,3.4577 l 0.4200,1.5528 l 0.4200,-14.0094 l 0.4200,-4.9598 l 0.4200,7.2960 l 0.4200,-8.7884 l 0.4200,9.5756 l 0.4200,22.2230 l 0.4200,-17.7342 l 0.4200,25.4918 l 0.4200,-3.7069 l 0.4200,6.8940 l 0.4200,-16.6987 l 0.4200,-16.5487 l 0.4200,2.7374 l 0.4200,4.7635 l 0.4200,-9.5897 l 0.4200,-2.6315 l 0.4200,1.8564 l 0.4200,12.9875 l 0.4200,2.4436 l 0.4200,5.8300 l 0.4200,-1.3925 l 0.4200,-0.8980 l 0.4200,19.6824 l 0.4200,10.7926 l 0.4200,-13.9201 l 0.4200,17.8164 l 0.4200,11.7186 l 0.4200,0.3863 l 0.4200,-6.0446 l 0.4200,-1.1904 l 0.4200,-23.0562 l 0.4200,19.5219 l 0.4200,0.7620 l 0.4200,16.4367 l 0.4200,-18.7586 l 0.4200,18.3404 l 0.4200,-0.7786 l 0.4200,6.6486 l 0.4200,-11.9724 l 0.4200,3.8630 l 0.4200,-25.8336 l 0.4200,-12.0137 l 0.4200,2.0343 l 0.4200,-6.5238 l 0.4200,3.7474 l 0.4200,-0.4759 l 0.4200,-3.6186 l 0.4200,7.3540 l 0.4200,-7.6954 l 0.4200,-0.5326 l 0.4200,-4.3033 l 0.4200,5.3626 l 0.4200,19.1861 l 0.4200,16.1994 l 0.4200,3.4614 l 0.4200,3.3798 l 0.4200,-6.1420 l 0.4200,6.1971 l 0.4200,-11.1570 l 0.4200,-4.7822 l 0.4200,3.6529 l 0.4200,-24.6108 l 0.4200,70.4124 l 0.4200,32.3752 l 0.4200,-36.8866 l 0.4200,-58.7914 l 0.4200,-2.1741 l 0.4200,14.2718 l 0.4200,-9.4716 l 0.4200,2.7784 l 0.4200,-27.5153 l 0.4200,-3.9695 l 0.4200,-10.6036 l 0.4200,2.8375 l 0.4200,-6.9625 l 0.4200,5.0364 l 0.4200,-1.4716 l 0.4200,5.7997 l 0.4200,-5.2269 l 0.4200,9.8862 l 0.4200,-5.9965 l 0.4200,8.5566 l 0.4200,1.8188 l 0.4200,4.6039 l 0.4200,-0.9049 l 0.4200,-0.8959 l 0.4200,4.6032 l 0.4200,13.9739 l 0.4200,-4.6256 l 0.4200,1.1240 l 0.4200,-14.6512 l 0.4200,3.9242 l 0.4200,1.2551 l 0.4200,7.3243 l 0.4200,-7.3279 l 0.4200,3.4424 l 0.4200,-3.4895 l 0.4200,12.2712 l 0.4200,-2.2089 l 0.4200,-2.6959 l 0.4200,4.2812 l 0.4200,2.4059 l 0.4200,-2.4375 l 0.4200,11.2376 l 0.4200,3.3484 l 0.4200,3.5948 l 0.4200,-9.3679 l 0.4200,4.6036 l 0.4200,5.1532 l 0.4200,0.4997 l 0.4200,-7.4853 l 0.4200,-4.8156 l 0.4200,1.2965 l 0.4200,5.1346 l 0.4200,47.3818 l 0.4200,-29.1904 l 0.4200,27.9648 l 0.4200,-0.5320 l 0.4200,-20.5416 l 0.4200,6.5906 l 0.4200,-0.8625 l 0.4200,-1.4062 l 0.4200,-21.2022 l 0.4200,-11.8578 l 0.4200,11.7175 l 0.4200,16.4862 l 0.4200,-12.6449 l 0.4200,-9.8088 l 0.4200,18.2183 l 0.4200,-15.2835 l 0.4200,6.6170 l 0.4200,9.4394 l 0.4200,-8.4420 l 0.4200,-0.8254 l 0.4200,6.2328 l 0.4200,-8.8617 l 0.4200,23.8023 l 0.4200,-3.1551 l 0.4200,5.0493 l 0.4200,-1.4361 l 0.4200,4.7496 l 0.4200,-12.7779 l 0.4200,-4.6724 l 0.4200,2.2536 l 0.4200,-0.3011 l 0.4200,-9.3507 l 0.4200,7.1963 l 0.4200,2.9308 l 0.4200,5.1407 l 0.4200,5.1111 l 0.4200,-0.7684 l 0.4200,11.8566 l 0.4200,10.7643 l 0.4200,6.2578 l 0.4200,0.7388 l 0.4200,-43.8380 l 0.4200,-7.2359 l 0.4200,-20.5862 l 0.4200,-2.4930 l 0.4200,3.9078 l 0.4200,1.2883 l 0.4200,-13.0135 l 0.4200,4.6560 l 0.4200,-7.3549 l 0.4200,6.3031 l 0.4200,-12.5105 l 0.4200,-1.9572 l 0.4200,0.6888 l 0.4200,-5.1807 l 0.4200,12.3552 l 0.4200,-0.7032 l 0.4200,6.8483 l 0.4200,8.1257 l 0.4200,0.3477 l 0.4200,-9.8321 l 0.4200,-4.8236 l 0.4200,-22.7811 l 0.4200,-1.1019 l 0.4200,-8.1367 l 0.4200,5.5661 l 0.4200,-9.1299 l 0.4200,18.9510 l 0.4200,-4.6506 l 0.4200,6.1794 l 0.4200,-1.1427 l 0.4200,-4.2007 l 0.4200,7.4688 l 0.4200,5.9685 l 0.4200,-0.1892 l 0.4200,-2.0475 l 0.4200,18.0592 l 0.4200,1.9157 l 0.4200,10.0183 l 0.4200,-15.1213 l 0.4200,-9.1835 l 0.4200,3.4499 l 0.4200,-4.7829 l 0.4200,8.7481 l 0.4200,1.6162 l 0.4200,-3.7723 l 0.4200,5.7705 l 0.4200,-2.0371 l 0.4200,7.1335 l 0.4200,-2.1310 l 0.4200,8.0947 l 0.4200,-5.4357 l 0.4200,6.2302 l 0.4200,-11.4601 l 0.4200,-13.6002 l 0.4200,3.4965 l 0.4200,3.5546 l 0.4200,13.0807 l 0.4200,2.7591 l 0.4200,0.3951 l 0.4200,-0.1340 l 0.4200,-12.6678 l 0.4200,5.5714 l 0.4200,0.8681 l 0.4200,-0.0477 l 0.4200,-9.5271 l 0.4200,-4.9503 l 0.4200,-7.8532 l 0.4200,-5.1431 l 0.4200,-6.7351 l 0.4200,4.6006 l 0.4200,-0.4171 l 0.4200,-8.5840 l 0.4200,5.2311 l 0.4200,2.1396 l 0.4200,0.0137 l 0.4200,0.9068 l 0.4200,7.6310 l 0.4200,-23.1490 l 0.4200,14.6229 l 0.4200,1.8608 l 0.4200,8.8983 l 0.4200,7.7593 l 0.4200,6.1867 l 0.4200,0.0758 l 0.4200,-4.5565 l 0.4200,1.1227 l 0.4200,8.1160 l 0.4200,-14.3453 l 0.4200,5.1385 l 0.4200,4.2746 l 0.4200,5.3727 l 0.4200,24.8047 l 0.4200,-3.4771 l 0.4200,2.2580 l 0.4200,1.7351 l 0.4200,1.9789 l 0.4200,-13.6449 l 0.4200,-1.3909 l 0.4200,-4.8003 l 0.4200,5.1997 l 0.4200,3.7796 l 0.4200,-0.5515 l 0.4200,6.2850 l 0.4200,-3.4129 l 0.4200,1.9440 l 0.4200,-1.0048 l 0.4200,3.0385 l 0.4200,7.2728 l 0.4200,12.6905 l 0.4200,-16.9612 l 0.4200,5.5135 l 0.4200,2.9917 l 0.4200,-14.5552 l 0.4200,6.0641 l 0.4200,-20.2444 l 0.4200,-10.3528 l 0.4200,2.4874 l 0.4200,0.4001 l 0.4200,5.0227 l 0.4200,-2.0881 l 0.4200,-0.9583 l 0.4200,3.7157 l 0.4200,0.0400 l 0.4200,-6.5376 l 0.4200,1.3957 l 0.4200,3.3201 l 0.4200,-0.9009 l 0.4200,5.3430 l 0.4200,3.7823 l 0.4200,-8.1476 l 0.4200,2.5199 l 0.4200,35.5895 l 0.4200,-7.6407 l 0.4200,-12.9844 l 0.4200,-9.3114 l 0.4200,-2.6244 l 0.4200,-3.7257 l 0.4200,-7.1977 l 0.4200,0.9164 l 0.4200,3.7106 l 0.4200,2.1196 l 0.4200,-13.0320 l 0.4200,-5.1420 l 0.4200,4.3600 l 0.4200,7.0747 l 0.4200,-1.4646 l 0.4200,1.0629 l 0.4200,3.0709 "/></g><g stroke-linejoin="miter" stroke-opacity="1.0" fill-opacity="0.0" stroke="rgb(93,165,218)" stroke-width="0.48241815132442184" fill="rgb(0,0,0)" stroke-linecap="butt" stroke-miterlimit="10.0"><path d="M 108.3916,104.0333 l 0.4200,-0.3300 l 0.4200,1.9133 l 0.4200,-1.3559 l 0.4200,-1.3622 l 0.4200,-0.8507 l 0.4200,0.7288 l 0.4200,-0.7325 l 0.4200,0.1640 l 0.4200,-0.0431 l 0.4200,-1.4458 l 0.4200,-0.7002 l 0.4200,-0.9937 l 0.4200,0.0669 l 0.4200,-1.9322 l 0.4200,-0.3616 l 0.4200,-0.1040 l 0.4200,0.6621 l 0.4200,-0.3168 l 0.4200,-0.6536 l 0.4200,-0.1375 l 0.4200,-0.2008 l 0.4200,0.3846 l 0.4200,0.6784 l 0.4200,-0.2832 l 0.4200,-0.0220 l 0.4200,0.6658 l 0.4200,0.0433 l 0.4200,0.1202 l 0.4200,-1.7759 l 0.4200,-0.1395 l 0.4200,0.3298 l 0.4200,0.9691 l 0.4200,0.6750 l 0.4200,-0.4848 l 0.4200,0.6393 l 0.4200,0.2716 l 0.4200,-0.3199 l 0.4200,0.8796 l 0.4200,2.2587 l 0.4200,0.5827 l 0.4200,0.9736 l 0.4200,-0.4945 l 0.4200,0.9540 l 0.4200,-1.2136 l 0.4200,-0.5091 l 0.4200,0.6941 l 0.4200,2.4888 l 0.4200,-0.3421 l 0.4200,-0.2214 l 0.4200,0.5528 l 0.4200,-0.5533 l 0.4200,-1.1414 l 0.4200,-0.1023 l 0.4200,0.0712 l 0.4200,-1.4167 l 0.4200,-1.0155 l 0.4200,-0.3691 l 0.4200,0.5999 l 0.4200,-0.3203 l 0.4200,-0.7647 l 0.4200,-0.5406 l 0.4200,-1.7264 l 0.4200,0.3796 l 0.4200,1.1893 l 0.4200,0.8061 l 0.4200,0.4826 l 0.4200,0.5023 l 0.4200,-0.4359 l 0.4200,0.7039 l 0.4200,0.9961 l 0.4200,-1.1162 l 0.4200,0.1882 l 0.4200,1.4433 l 0.4200,-0.9774 l 0.4200,1.3703 l 0.4200,1.9450 l 0.4200,-0.0161 l 0.4200,-3.1771 l 0.4200,-0.8567 l 0.4200,-0.5237 l 0.4200,1.1564 l 0.4200,-1.9815 l 0.4200,-0.9171 l 0.4200,-0.8849 l 0.4200,0.0868 l 0.4200,-0.7610 l 0.4200,0.8158 l 0.4200,-0.3902 l 0.4200,-0.5584 l 0.4200,-0.0963 l 0.4200,-0.7340 l 0.4200,0.8425 l 0.4200,0.6817 l 0.4200,-0.3359 l 0.4200,-0.4341 l 0.4200,0.5266 l 0.4200,-0.5391 l 0.4200,2.1006 l 0.4200,-1.9124 l 0.4200,-0.0048 l 0.4200,0.4601 l 0.4200,-1.1121 l 0.4200,-0.6199 l 0.4200,-0.5255 l 0.4200,0.6679 l 0.4200,0.4150 l 0.4200,0.6537 l 0.4200,-1.1151 l 0.4200,-0.6364 l 0.4200,0.3008 l 0.4200,0.0864 l 0.4200,-0.2648 l 0.4200,0.2282 l 0.4200,0.5184 l 0.4200,0.5877 l 0.4200,0.3004 l 0.4200,0.7574 l 0.4200,-1.5814 l 0.4200,-0.1659 l 0.4200,0.5864 l 0.4200,1.8170 l 0.4200,0.6650 l 0.4200,0.1098 l 0.4200,-0.8533 l 0.4200,0.5655 l 0.4200,-2.3885 l 0.4200,0.1935 l 0.4200,-0.6189 l 0.4200,-0.6909 l 0.4200,-0.3281 l 0.4200,-0.6012 l 0.4200,0.1643 l 0.4200,0.1396 l 0.4200,-0.4825 l 0.4200,1.4537 l 0.4200,0.1578 l 0.4200,0.4860 l 0.4200,-0.8067 l 0.4200,0.1412 l 0.4200,0.0559 l 0.4200,-0.2385 l 0.4200,2.0134 l 0.4200,-1.5186 l 0.4200,-0.6675 l 0.4200,0.3129 l 0.4200,0.6956 l 0.4200,-0.3113 l 0.4200,0.0207 l 0.4200,1.4503 l 0.4200,3.2742 l 0.4200,0.8217 l 0.4200,-0.8366 l 0.4200,1.6321 l 0.4200,-1.6047 l 0.4200,1.0645 l 0.4200,3.5574 l 0.4200,-1.0775 l 0.4200,0.3798 l 0.4200,-1.7876 l 0.4200,-1.9073 l 0.4200,-0.1478 l 0.4200,-1.5672 l 0.4200,0.1352 l 0.4200,-0.7782 l 0.4200,-0.6249 l 0.4200,-0.0749 l 0.4200,1.0841 l 0.4200,-0.8102 l 0.4200,0.3875 l 0.4200,-0.8314 l 0.4200,0.3032 l 0.4200,0.0953 l 0.4200,-0.6442 l 0.4200,-0.3168 l 0.4200,1.2165 l 0.4200,-2.1827 l 0.4200,0.1151 l 0.4200,-0.1527 l 0.4200,0.0254 l 0.4200,0.1758 l 0.4200,0.8719 l 0.4200,0.0556 l 0.4200,1.8724 l 0.4200,0.5183 l 0.4200,-1.3474 l 0.4200,-0.9840 l 0.4200,1.0272 l 0.4200,-0.8091 l 0.4200,0.5428 l 0.4200,0.8318 l 0.4200,-0.5664 l 0.4200,1.1544 l 0.4200,0.3782 l 0.4200,-0.6054 l 0.4200,-1.0934 l 0.4200,-0.9567 l 0.4200,-0.3263 l 0.4200,0.2729 l 0.4200,1.9999 l 0.4200,1.7189 l 0.4200,-0.4769 l 0.4200,-1.5441 l 0.4200,3.2711 l 0.4200,1.5142 l 0.4200,-1.1557 l 0.4200,-0.9316 l 0.4200,-1.4845 l 0.4200,-0.1138 l 0.4200,-0.4759 l 0.4200,-0.5213 l 0.4200,0.4285 l 0.4200,-0.1651 l 0.4200,1.3168 l 0.4200,-0.3982 l 0.4200,-0.6241 l 0.4200,-0.3564 l 0.4200,0.1158 l 0.4200,0.2965 l 0.4200,-0.1890 l 0.4200,1.4515 l 0.4200,-0.7559 l 0.4200,0.2976 l 0.4200,-0.1394 l 0.4200,-1.3582 l 0.4200,0.0325 l 0.4200,0.8039 l 0.4200,1.5063 l 0.4200,-0.4776 l 0.4200,-0.4893 l 0.4200,1.0707 l 0.4200,-1.1311 l 0.4200,-0.2644 l 0.4200,-0.5466 l 0.4200,-0.8046 l 0.4200,0.2645 l 0.4200,-0.7100 l 0.4200,-0.1786 l 0.4200,-0.0105 l 0.4200,0.1560 l 0.4200,-0.1861 l 0.4200,-0.8793 l 0.4200,-0.5916 l 0.4200,-0.0359 l 0.4200,0.1421 l 0.4200,0.6375 l 0.4200,1.1719 l 0.4200,-0.3741 l 0.4200,-0.0269 l 0.4200,-0.2276 l 0.4200,-1.0568 l 0.4200,-0.0875 l 0.4200,-0.1556 l 0.4200,0.1250 l 0.4200,1.0757 l 0.4200,-0.6353 l 0.4200,0.2805 l 0.4200,-0.1857 l 0.4200,0.1584 l 0.4200,-0.8996 l 0.4200,0.0066 l 0.4200,-0.7168 l 0.4200,0.6999 l 0.4200,1.1692 l 0.4200,-0.5969 l 0.4200,0.7261 l 0.4200,-0.1213 l 0.4200,-0.6262 l 0.4200,0.3944 l 0.4200,-0.5293 l 0.4200,1.8948 l 0.4200,-1.4411 l 0.4200,0.4520 l 0.4200,-0.6529 l 0.4200,-0.1607 l 0.4200,0.0300 l 0.4200,0.8344 l 0.4200,0.0561 l 0.4200,0.7823 l 0.4200,0.0869 l 0.4200,3.1350 l 0.4200,0.5126 l 0.4200,-0.9962 l 0.4200,1.5501 l 0.4200,0.0762 l 0.4200,0.9172 l 0.4200,-1.6498 l 0.4200,-0.3317 l 0.4200,0.3299 l 0.4200,-0.9237 l 0.4200,-0.5661 l 0.4200,0.0975 l 0.4200,-1.1904 l 0.4200,-0.6574 l 0.4200,-0.2770 l 0.4200,-0.3469 l 0.4200,0.3977 l 0.4200,-0.6229 l 0.4200,-0.0594 l 0.4200,0.0911 l 0.4200,0.3526 l 0.4200,-0.4020 l 0.4200,0.1805 l 0.4200,0.2148 l 0.4200,0.3277 l 0.4200,-0.6603 l 0.4200,0.5615 l 0.4200,1.0834 l 0.4200,-0.4564 l 0.4200,-0.0390 l 0.4200,0.9932 l 0.4200,0.1959 l 0.4200,-1.0329 l 0.4200,-0.1013 l 0.4200,-0.6406 l 0.4200,0.1680 l 0.4200,1.3054 l 0.4200,0.9608 l 0.4200,-1.0879 l 0.4200,2.5431 l 0.4200,-1.2055 l 0.4200,0.4694 l 0.4200,0.5027 l 0.4200,2.0872 l 0.4200,0.0711 l 0.4200,-1.5977 l 0.4200,0.3155 l 0.4200,2.3703 l 0.4200,-2.5371 l 0.4200,3.2204 l 0.4200,1.7964 l 0.4200,2.5557 l 0.4200,-0.1903 l 0.4200,1.2728 l 0.4200,0.0216 l 0.4200,-1.8827 l 0.4200,-1.3172 l 0.4200,-2.8593 l 0.4200,1.1717 l 0.4200,-1.7770 l 0.4200,-0.9859 l 0.4200,0.3010 l 0.4200,-1.7124 l 0.4200,0.2896 l 0.4200,-0.8556 l 0.4200,-1.6716 l 0.4200,0.1078 l 0.4200,0.5147 l 0.4200,-0.7689 l 0.4200,-0.4769 l 0.4200,0.0391 l 0.4200,-0.3774 l 0.4200,-0.0118 l 0.4200,0.1983 l 0.4200,0.0122 l 0.4200,0.0558 l 0.4200,-0.0189 l 0.4200,-0.6785 l 0.4200,0.3209 l 0.4200,-0.2025 l 0.4200,-0.6915 l 0.4200,-0.3330 l 0.4200,0.2715 l 0.4200,-0.3246 l 0.4200,0.4815 l 0.4200,1.1270 l 0.4200,-0.8660 l 0.4200,-0.4693 l 0.4200,0.2724 l 0.4200,-0.1542 l 0.4200,1.1925 l 0.4200,0.1271 l 0.4200,2.5714 l 0.4200,-0.6010 l 0.4200,2.5429 l 0.4200,1.0291 l 0.4200,1.3512 l 0.4200,-2.9678 l 0.4200,-3.4921 l 0.4200,-0.5938 l 0.4200,-0.4795 l 0.4200,-0.1681 l 0.4200,0.1158 l 0.4200,-0.4028 l 0.4200,-0.0334 l 0.4200,0.8333 l 0.4200,1.6512 l 0.4200,0.1362 l 0.4200,2.8604 l 0.4200,1.4161 l 0.4200,-1.6719 l 0.4200,-2.5908 l 0.4200,1.3568 l 0.4200,1.3016 l 0.4200,0.4624 l 0.4200,0.9497 l 0.4200,1.4663 l 0.4200,-1.9437 l 0.4200,-0.1605 l 0.4200,-0.6382 l 0.4200,-2.2048 l 0.4200,0.9130 l 0.4200,-0.3070 l 0.4200,2.1084 l 0.4200,2.1148 l 0.4200,-1.3652 l 0.4200,2.0375 l 0.4200,-1.8778 l 0.4200,-2.0866 l 0.4200,0.7050 l 0.4200,-1.4665 l 0.4200,0.5962 l 0.4200,0.7175 l 0.4200,-1.5231 l 0.4200,0.0864 l 0.4200,-1.3633 l 0.4200,-0.5247 l 0.4200,-0.1516 l 0.4200,0.1361 l 0.4200,0.2479 l 0.4200,-0.8318 l 0.4200,0.1367 l 0.4200,-0.3246 l 0.4200,0.2067 l 0.4200,0.3125 l 0.4200,0.5343 l 0.4200,-0.8319 l 0.4200,0.7752 l 0.4200,0.7483 l 0.4200,-0.0961 l 0.4200,2.2321 l 0.4200,-0.5181 l 0.4200,2.6515 l 0.4200,0.3541 l 0.4200,-1.8183 l 0.4200,0.9910 l 0.4200,-1.9539 l 0.4200,0.5787 l 0.4200,-1.7438 l 0.4200,0.8176 l 0.4200,-1.2720 l 0.4200,0.3472 l 0.4200,1.0081 l 0.4200,2.2833 l 0.4200,0.4252 l 0.4200,-0.2891 l 0.4200,-1.7611 l 0.4200,1.4057 l 0.4200,0.6663 l 0.4200,-0.4635 l 0.4200,-0.9217 l 0.4200,0.3838 l 0.4200,-0.3322 l 0.4200,-0.5964 l 0.4200,-0.7054 l 0.4200,0.7688 l 0.4200,-0.1710 l 0.4200,-0.6971 l 0.4200,0.1957 l 0.4200,1.7882 l 0.4200,-1.3142 l 0.4200,0.2992 l 0.4200,-0.6895 l 0.4200,-0.2768 l 0.4200,-0.2603 l 0.4200,0.7035 l 0.4200,-0.3403 l 0.4200,0.6415 l 0.4200,1.6059 l 0.4200,-1.5669 l 0.4200,-0.3657 l 0.4200,1.8678 l 0.4200,0.7392 l 0.4200,-0.5013 l 0.4200,-1.9427 l 0.4200,0.8447 l 0.4200,0.5160 l 0.4200,0.1157 l 0.4200,-1.5432 l 0.4200,-0.0384 l 0.4200,-0.3817 l 0.4200,0.1747 l 0.4200,0.2168 l 0.4200,-0.2754 l 0.4200,0.4137 l 0.4200,1.6298 l 0.4200,-1.3044 l 0.4200,0.2659 l 0.4200,1.0264 l 0.4200,-0.2413 l 0.4200,0.2220 l 0.4200,-0.2495 l 0.4200,1.3731 l 0.4200,0.2798 l 0.4200,1.0405 l 0.4200,-0.0043 l 0.4200,-1.7416 l 0.4200,-0.1937 l 0.4200,1.1231 l 0.4200,0.7588 l 0.4200,-0.7946 l 0.4200,-0.2342 l 0.4200,-1.4186 l 0.4200,0.8703 l 0.4200,-0.8489 l 0.4200,-0.0257 l 0.4200,1.1796 l 0.4200,0.5118 l 0.4200,0.1209 l 0.4200,3.2343 l 0.4200,-0.3524 l 0.4200,-0.9892 l 0.4200,0.1016 l 0.4200,0.6362 l 0.4200,-0.8610 l 0.4200,2.5822 l 0.4200,-0.2968 l 0.4200,-1.7992 l 0.4200,-1.6015 l 0.4200,-0.6078 l 0.4200,0.1730 l 0.4200,-1.1398 l 0.4200,-0.0997 l 0.4200,-0.0497 l 0.4200,0.7089 l 0.4200,0.4226 l 0.4200,0.9179 l 0.4200,1.6765 l 0.4200,0.9218 l 0.4200,-1.8050 l 0.4200,-1.0408 l 0.4200,0.0557 l 0.4200,0.4010 l 0.4200,0.4724 l 0.4200,0.3940 l 0.4200,-0.4142 l 0.4200,1.2268 l 0.4200,0.4830 l 0.4200,-1.8665 l 0.4200,1.5022 l 0.4200,-0.0937 l 0.4200,0.2426 l 0.4200,-0.5380 l 0.4200,-0.7300 l 0.4200,0.4507 l 0.4200,1.2997 l 0.4200,3.2556 l 0.4200,4.9048 l 0.4200,6.0697 l 0.4200,2.0443 l 0.4200,-5.7913 l 0.4200,-3.6093 l 0.4200,-0.0697 l 0.4200,1.2892 l 0.4200,4.5354 l 0.4200,-2.7345 l 0.4200,-0.1663 l 0.4200,2.3353 l 0.4200,-3.7328 l 0.4200,2.1231 l 0.4200,-0.7875 l 0.4200,-0.6648 l 0.4200,0.6290 l 0.4200,-1.9108 l 0.4200,-1.2871 l 0.4200,0.4086 l 0.4200,2.4730 l 0.4200,-0.6764 l 0.4200,1.8794 l 0.4200,0.3138 l 0.4200,0.5115 l 0.4200,0.0723 l 0.4200,3.9174 l 0.4200,-0.1993 l 0.4200,-2.8597 l 0.4200,-0.2978 l 0.4200,-2.1405 l 0.4200,-2.7194 l 0.4200,0.5616 l 0.4200,-1.1879 l 0.4200,-1.2990 l 0.4200,-0.0814 l 0.4200,-0.1645 l 0.4200,1.0586 l 0.4200,0.7345 l 0.4200,-2.1985 l 0.4200,-0.6554 l 0.4200,-0.0082 l 0.4200,0.2461 l 0.4200,0.9101 l 0.4200,-2.4544 l 0.4200,-1.6115 l 0.4200,0.3329 l 0.4200,0.4270 l 0.4200,-1.7303 l 0.4200,0.1165 l 0.4200,0.7724 l 0.4200,-1.7322 l 0.4200,-0.3576 l 0.4200,0.5870 l 0.4200,0.2201 l 0.4200,0.1014 l 0.4200,1.5337 l 0.4200,-0.1854 l 0.4200,0.5300 l 0.4200,2.1606 l 0.4200,1.7271 l 0.4200,-2.2012 l 0.4200,0.2376 l 0.4200,-2.3788 l 0.4200,0.2138 l 0.4200,-0.5300 l 0.4200,0.2306 l 0.4200,-0.1404 l 0.4200,0.0636 l 0.4200,-0.0455 l 0.4200,0.7438 l 0.4200,-1.5578 l 0.4200,1.7116 l 0.4200,2.2173 l 0.4200,-3.0268 l 0.4200,1.1009 l 0.4200,1.0180 l 0.4200,1.2033 l 0.4200,-0.3088 l 0.4200,2.9828 l 0.4200,-0.6959 l 0.4200,-1.5666 l 0.4200,-2.1386 l 0.4200,2.3186 l 0.4200,2.7285 l 0.4200,-1.1505 l 0.4200,-1.2986 l 0.4200,-1.8293 l 0.4200,0.2761 l 0.4200,0.3610 l 0.4200,-1.5595 l 0.4200,1.1286 l 0.4200,1.4553 l 0.4200,2.3470 l 0.4200,-0.2857 l 0.4200,2.0061 l 0.4200,3.6202 l 0.4200,1.6363 l 0.4200,-0.1386 l 0.4200,-1.1795 l 0.4200,3.8022 l 0.4200,-2.5141 l 0.4200,3.2788 l 0.4200,-0.1031 l 0.4200,1.7494 l 0.4200,-0.8101 l 0.4200,-3.0510 l 0.4200,2.3601 l 0.4200,-2.1390 l 0.4200,1.6304 l 0.4200,-0.8519 l 0.4200,-3.7008 l 0.4200,0.0651 l 0.4200,2.8447 l 0.4200,-0.7652 l 0.4200,-0.2411 l 0.4200,2.7976 l 0.4200,2.1242 l 0.4200,0.0694 l 0.4200,-0.0023 l 0.4200,1.8335 l 0.4200,-2.9500 l 0.4200,-2.4928 l 0.4200,-2.4765 l 0.4200,0.6985 l 0.4200,-0.0054 l 0.4200,-2.1692 l 0.4200,1.8866 l 0.4200,-0.6754 l 0.4200,-1.7034 l 0.4200,0.2840 l 0.4200,1.2274 l 0.4200,-3.5551 l 0.4200,-0.6032 l 0.4200,-0.5131 l 0.4200,-0.4821 l 0.4200,-0.1167 l 0.4200,1.7173 l 0.4200,-0.7495 l 0.4200,-0.0103 l 0.4200,-2.4341 l 0.4200,0.2137 l 0.4200,0.2981 l 0.4200,-0.8199 l 0.4200,-0.9647 l 0.4200,-0.6332 l 0.4200,-0.1177 l 0.4200,0.1627 l 0.4200,0.9936 l 0.4200,0.0822 l 0.4200,-0.0564 l 0.4200,-1.2947 l 0.4200,-0.6212 l 0.4200,0.3410 l 0.4200,-0.9174 l 0.4200,0.5198 l 0.4200,1.5672 l 0.4200,-1.5459 l 0.4200,1.8470 l 0.4200,-0.3935 l 0.4200,0.4408 l 0.4200,-1.4208 l 0.4200,-1.4702 l 0.4200,0.0125 l 0.4200,0.1857 l 0.4200,-0.9440 l 0.4200,-0.4221 l 0.4200,-0.0720 l 0.4200,0.8260 l 0.4200,0.0316 l 0.4200,0.3119 l 0.4200,-0.2437 l 0.4200,-0.2089 l 0.4200,1.4348 l 0.4200,0.7967 l 0.4200,-1.1400 l 0.4200,1.3469 l 0.4200,0.9249 l 0.4200,0.0617 l 0.4200,-0.4508 l 0.4200,-0.0852 l 0.4200,-1.8381 l 0.4200,1.4819 l 0.4200,0.0542 l 0.4200,1.3102 l 0.4200,-1.4432 l 0.4200,1.4532 l 0.4200,-0.0076 l 0.4200,0.5828 l 0.4200,-0.8814 l 0.4200,0.3399 l 0.4200,-2.0205 l 0.4200,-1.0123 l 0.4200,0.0684 l 0.4200,-0.6077 l 0.4200,0.1899 l 0.4200,-0.1333 l 0.4200,-0.3862 l 0.4200,0.4784 l 0.4200,-0.6975 l 0.4200,-0.1530 l 0.4200,-0.4559 l 0.4200,0.3018 l 0.4200,1.4280 l 0.4200,1.2608 l 0.4200,0.3010 l 0.4200,0.3067 l 0.4200,-0.4423 l 0.4200,0.5214 l 0.4200,-0.8434 l 0.4200,-0.3754 l 0.4200,0.2819 l 0.4200,-1.9653 l 0.4200,5.5436 l 0.4200,2.7618 l 0.4200,-2.6452 l 0.4200,-4.5492 l 0.4200,-0.2543 l 0.4200,1.0701 l 0.4200,-0.7718 l 0.4200,0.1668 l 0.4200,-2.2428 l 0.4200,-0.4668 l 0.4200,-1.0050 l 0.4200,0.0298 l 0.4200,-0.7398 l 0.4200,0.1925 l 0.4200,-0.3067 l 0.4200,0.2689 l 0.4200,-0.5896 l 0.4200,0.5987 l 0.4200,-0.6324 l 0.4200,0.5082 l 0.4200,0.0031 l 0.4200,0.2324 l 0.4200,-0.1905 l 0.4200,-0.1932 l 0.4200,0.2439 l 0.4200,1.0115 l 0.4200,-0.4238 l 0.4200,0.0176 l 0.4200,-1.2394 l 0.4200,0.1915 l 0.4200,-0.0054 l 0.4200,0.4850 l 0.4200,-0.6594 l 0.4200,0.1744 l 0.4200,-0.3662 l 0.4200,0.8816 l 0.4200,-0.2301 l 0.4200,-0.2781 l 0.4200,0.2704 l 0.4200,0.1369 l 0.4200,-0.2416 l 0.4200,0.8432 l 0.4200,0.2543 l 0.4200,0.2858 l 0.4200,-0.7374 l 0.4200,0.3448 l 0.4200,0.4063 l 0.4200,0.0531 l 0.4200,-0.5837 l 0.4200,-0.3982 l 0.4200,0.0731 l 0.4200,0.3853 l 0.4200,3.7834 l 0.4200,-2.1605 l 0.4200,2.2916 l 0.4200,0.1202 l 0.4200,-1.4803 l 0.4200,0.6084 l 0.4200,0.0388 l 0.4200,-0.0088 l 0.4200,-1.5971 l 0.4200,-0.9308 l 0.4200,0.9124 l 0.4200,1.3394 l 0.4200,-0.9298 l 0.4200,-0.7529 l 0.4200,1.4533 l 0.4200,-1.1566 l 0.4200,0.5350 l 0.4200,0.7877 l 0.4200,-0.6079 l 0.4200,-0.0320 l 0.4200,0.5304 l 0.4200,-0.6536 l 0.4200,1.9251 l 0.4200,-0.1407 l 0.4200,0.5006 l 0.4200,0.0009 l 0.4200,0.4892 l 0.4200,-0.8946 l 0.4200,-0.2956 l 0.4200,0.2416 l 0.4200,0.0459 l 0.4200,-0.6797 l 0.4200,0.6087 l 0.4200,0.2951 l 0.4200,0.4820 l 0.4200,0.4983 l 0.4200,0.0464 l 0.4200,1.0526 l 0.4200,1.0082 l 0.4200,0.6863 l 0.4200,0.2677 l 0.4200,-3.2909 l 0.4200,-0.5348 l 0.4200,-1.6254 l 0.4200,-0.2541 l 0.4200,0.2495 l 0.4200,0.0551 l 0.4200,-1.0834 l 0.4200,0.2810 l 0.4200,-0.6611 l 0.4200,0.4035 l 0.4200,-1.0765 l 0.4200,-0.2784 l 0.4200,-0.0739 l 0.4200,-0.5399 l 0.4200,0.8427 l 0.4200,-0.1549 l 0.4200,0.4468 l 0.4200,0.5747 l 0.4200,-0.0171 l 0.4200,-0.8301 l 0.4200,-0.4653 l 0.4200,-1.9186 l 0.4200,-0.2673 l 0.4200,-0.8336 l 0.4200,0.2321 l 0.4200,-0.9214 l 0.4200,1.2898 l 0.4200,-0.5260 l 0.4200,0.3239 l 0.4200,-0.2383 l 0.4200,-0.4864 l 0.4200,0.4321 l 0.4200,0.3401 l 0.4200,-0.1299 l 0.4200,-0.2787 l 0.4200,1.3227 l 0.4200,0.0981 l 0.4200,0.7536 l 0.4200,-1.2202 l 0.4200,-0.8012 l 0.4200,0.1761 l 0.4200,-0.4694 l 0.4200,0.5958 l 0.4200,0.0580 l 0.4200,-0.3670 l 0.4200,0.3828 l 0.4200,-0.2202 l 0.4200,0.5061 l 0.4200,-0.2085 l 0.4200,0.6018 l 0.4200,-0.4506 l 0.4200,0.4626 l 0.4200,-0.9293 l 0.4200,-1.1430 l 0.4200,0.1749 l 0.4200,0.1932 l 0.4200,0.9687 l 0.4200,0.1915 l 0.4200,0.0125 l 0.4200,-0.0284 l 0.4200,-1.0313 l 0.4200,0.3808 l 0.4200,0.0258 l 0.4200,-0.0443 l 0.4200,-0.8027 l 0.4200,-0.4716 l 0.4200,-0.7215 l 0.4200,-0.5331 l 0.4200,-0.6786 l 0.4200,0.2035 l 0.4200,-0.1802 l 0.4200,-0.8342 l 0.4200,0.2396 l 0.4200,0.0122 l 0.4200,-0.1493 l 0.4200,-0.0771 l 0.4200,0.4646 l 0.4200,-1.9692 l 0.4200,0.9674 l 0.4200,0.0020 l 0.4200,0.5722 l 0.4200,0.5147 l 0.4200,0.4177 l 0.4200,-0.0482 l 0.4200,-0.4184 l 0.4200,0.0192 l 0.4200,0.5833 l 0.4200,-1.1832 l 0.4200,0.3220 l 0.4200,0.2729 l 0.4200,0.3766 l 0.4200,1.9508 l 0.4200,-0.2203 l 0.4200,0.2254 l 0.4200,0.1917 l 0.4200,0.2174 l 0.4200,-1.0239 l 0.4200,-0.0954 l 0.4200,-0.3732 l 0.4200,0.4089 l 0.4200,0.3145 l 0.4200,-0.0181 l 0.4200,0.5266 l 0.4200,-0.2261 l 0.4200,0.1897 l 0.4200,-0.0392 l 0.4200,0.2804 l 0.4200,0.6299 l 0.4200,1.0891 l 0.4200,-1.2343 l 0.4200,0.4995 l 0.4200,0.3175 l 0.4200,-1.0746 l 0.4200,0.5203 l 0.4200,-1.5618 l 0.4200,-0.8460 l 0.4200,0.1435 l 0.4200,-0.0138 l 0.4200,0.3576 l 0.4200,-0.1925 l 0.4200,-0.1098 l 0.4200,0.2607 l 0.4200,-0.0195 l 0.4200,-0.5455 l 0.4200,0.0651 l 0.4200,0.2245 l 0.4200,-0.1008 l 0.4200,0.3955 l 0.4200,0.2905 l 0.4200,-0.6500 l 0.4200,0.1733 l 0.4200,2.8286 l 0.4200,-0.4976 l 0.4200,-0.9547 l 0.4200,-0.7103 l 0.4200,-0.2096 l 0.4200,-0.3068 l 0.4200,-0.5983 l 0.4200,0.0243 l 0.4200,0.2519 l 0.4200,0.1387 l 0.4200,-1.0657 l 0.4200,-0.4829 l 0.4200,0.2588 l 0.4200,0.4927 l 0.4200,-0.1638 l 0.4200,0.0328 l 0.4200,0.1976 "/></g><g stroke-linejoin="miter" stroke-opacity="1.0" fill-opacity="0.0" stroke="rgb(85,85,85)" stroke-width="0.48241815132442184" fill="rgb(0,0,0)" stroke-linecap="butt" stroke-miterlimit="10.0"><path d="M 108.3916,112.9157 l 0.4200,-0.0911 l 0.4200,0.4692 l 0.4200,-0.3465 l 0.4200,-0.3493 l 0.4200,-0.2225 l 0.4200,0.1718 l 0.4200,-0.1929 l 0.4200,0.0307 l 0.4200,-0.0209 l 0.4200,-0.3717 l 0.4200,-0.1864 l 0.4200,-0.2602 l 0.4200,0.0042 l 0.4200,-0.4955 l 0.4200,-0.1044 l 0.4200,-0.0402 l 0.4200,0.1513 l 0.4200,-0.0929 l 0.4200,-0.1773 l 0.4200,-0.0488 l 0.4200,-0.0647 l 0.4200,0.0815 l 0.4200,0.1553 l 0.4200,-0.0846 l 0.4200,-0.0195 l 0.4200,0.1524 l 0.4200,-0.0026 l 0.4200,0.0166 l 0.4200,-0.4573 l 0.4200,-0.0496 l 0.4200,0.0677 l 0.4200,0.2278 l 0.4200,0.1550 l 0.4200,-0.1344 l 0.4200,0.1462 l 0.4200,0.0549 l 0.4200,-0.0928 l 0.4200,0.2068 l 0.4200,0.5523 l 0.4200,0.1351 l 0.4200,0.2332 l 0.4200,-0.1331 l 0.4200,0.2286 l 0.4200,-0.3125 l 0.4200,-0.1374 l 0.4200,0.1631 l 0.4200,0.6124 l 0.4200,-0.0934 l 0.4200,-0.0636 l 0.4200,0.1298 l 0.4200,-0.1463 l 0.4200,-0.2938 l 0.4200,-0.0349 l 0.4200,0.0085 l 0.4200,-0.3635 l 0.4200,-0.2643 l 0.4200,-0.1034 l 0.4200,0.1386 l 0.4200,-0.0909 l 0.4200,-0.2023 l 0.4200,-0.1469 l 0.4200,-0.4437 l 0.4200,0.0815 l 0.4200,0.2843 l 0.4200,0.1894 l 0.4200,0.1092 l 0.4200,0.1144 l 0.4200,-0.1197 l 0.4200,0.1649 l 0.4200,0.2385 l 0.4200,-0.2888 l 0.4200,0.0364 l 0.4200,0.3504 l 0.4200,-0.2536 l 0.4200,0.3324 l 0.4200,0.4773 l 0.4200,-0.0115 l 0.4200,-0.8019 l 0.4200,-0.2244 l 0.4200,-0.1416 l 0.4200,0.2781 l 0.4200,-0.5054 l 0.4200,-0.2410 l 0.4200,-0.2335 l 0.4200,0.0088 l 0.4200,-0.2031 l 0.4200,0.1905 l 0.4200,-0.1103 l 0.4200,-0.1527 l 0.4200,-0.0375 l 0.4200,-0.1970 l 0.4200,0.1965 l 0.4200,0.1571 l 0.4200,-0.0968 l 0.4200,-0.1217 l 0.4200,0.1182 l 0.4200,-0.1478 l 0.4200,0.5117 l 0.4200,-0.4898 l 0.4200,-0.0145 l 0.4200,0.1018 l 0.4200,-0.2909 l 0.4200,-0.1687 l 0.4200,-0.1455 l 0.4200,0.1524 l 0.4200,0.0898 l 0.4200,0.1498 l 0.4200,-0.2919 l 0.4200,-0.1732 l 0.4200,0.0607 l 0.4200,0.0074 l 0.4200,-0.0803 l 0.4200,0.0427 l 0.4200,0.1155 l 0.4200,0.1332 l 0.4200,0.0618 l 0.4200,0.1763 l 0.4200,-0.4078 l 0.4200,-0.0552 l 0.4200,0.1329 l 0.4200,0.4410 l 0.4200,0.1544 l 0.4200,0.0161 l 0.4200,-0.2247 l 0.4200,0.1294 l 0.4200,-0.6087 l 0.4200,0.0350 l 0.4200,-0.1679 l 0.4200,-0.1863 l 0.4200,-0.0961 l 0.4200,-0.1646 l 0.4200,0.0263 l 0.4200,0.0203 l 0.4200,-0.1351 l 0.4200,0.3485 l 0.4200,0.0258 l 0.4200,0.1079 l 0.4200,-0.2149 l 0.4200,0.0214 l 0.4200,0.0003 l 0.4200,-0.0733 l 0.4200,0.4895 l 0.4200,-0.3919 l 0.4200,-0.1804 l 0.4200,0.0643 l 0.4200,0.1603 l 0.4200,-0.0909 l 0.4200,-0.0082 l 0.4200,0.3493 l 0.4200,0.8065 l 0.4200,0.1959 l 0.4200,-0.2182 l 0.4200,0.3983 l 0.4200,-0.4096 l 0.4200,0.2564 l 0.4200,0.8807 l 0.4200,-0.2754 l 0.4200,0.0879 l 0.4200,-0.4537 l 0.4200,-0.4851 l 0.4200,-0.0466 l 0.4200,-0.4014 l 0.4200,0.0230 l 0.4200,-0.2052 l 0.4200,-0.1675 l 0.4200,-0.0304 l 0.4200,0.2593 l 0.4200,-0.2134 l 0.4200,0.0854 l 0.4200,-0.2190 l 0.4200,0.0640 l 0.4200,0.0123 l 0.4200,-0.1725 l 0.4200,-0.0912 l 0.4200,0.2920 l 0.4200,-0.5569 l 0.4200,0.0158 l 0.4200,-0.0510 l 0.4200,-0.0065 l 0.4200,0.0311 l 0.4200,0.2053 l 0.4200,0.0019 l 0.4200,0.4562 l 0.4200,0.1192 l 0.4200,-0.3470 l 0.4200,-0.2573 l 0.4200,0.2449 l 0.4200,-0.2133 l 0.4200,0.1240 l 0.4200,0.1967 l 0.4200,-0.1522 l 0.4200,0.2776 l 0.4200,0.0845 l 0.4200,-0.1612 l 0.4200,-0.2838 l 0.4200,-0.2504 l 0.4200,-0.0935 l 0.4200,0.0561 l 0.4200,0.4882 l 0.4200,0.4196 l 0.4200,-0.1282 l 0.4200,-0.3955 l 0.4200,0.8072 l 0.4200,0.3708 l 0.4200,-0.2958 l 0.4200,-0.2408 l 0.4200,-0.3797 l 0.4200,-0.0382 l 0.4200,-0.1287 l 0.4200,-0.1404 l 0.4200,0.0967 l 0.4200,-0.0513 l 0.4200,0.3191 l 0.4200,-0.1086 l 0.4200,-0.1656 l 0.4200,-0.0991 l 0.4200,0.0187 l 0.4200,0.0641 l 0.4200,-0.0571 l 0.4200,0.3529 l 0.4200,-0.1978 l 0.4200,0.0649 l 0.4200,-0.0440 l 0.4200,-0.3489 l 0.4200,-0.0023 l 0.4200,0.1907 l 0.4200,0.3670 l 0.4200,-0.1278 l 0.4200,-0.1313 l 0.4200,0.2584 l 0.4200,-0.2912 l 0.4200,-0.0755 l 0.4200,-0.1462 l 0.4200,-0.2111 l 0.4200,0.0556 l 0.4200,-0.1878 l 0.4200,-0.0555 l 0.4200,-0.0135 l 0.4200,0.0281 l 0.4200,-0.0573 l 0.4200,-0.2308 l 0.4200,-0.1595 l 0.4200,-0.0210 l 0.4200,0.0235 l 0.4200,0.1475 l 0.4200,0.2817 l 0.4200,-0.1040 l 0.4200,-0.0175 l 0.4200,-0.0677 l 0.4200,-0.2752 l 0.4200,-0.0337 l 0.4200,-0.0507 l 0.4200,0.0194 l 0.4200,0.2572 l 0.4200,-0.1697 l 0.4200,0.0587 l 0.4200,-0.0576 l 0.4200,0.0283 l 0.4200,-0.2361 l 0.4200,-0.0102 l 0.4200,-0.1911 l 0.4200,0.1626 l 0.4200,0.2806 l 0.4200,-0.1601 l 0.4200,0.1701 l 0.4200,-0.0411 l 0.4200,-0.1675 l 0.4200,0.0872 l 0.4200,-0.1434 l 0.4200,0.4623 l 0.4200,-0.3702 l 0.4200,0.1018 l 0.4200,-0.1739 l 0.4200,-0.0514 l 0.4200,-0.0038 l 0.4200,0.1974 l 0.4200,0.0035 l 0.4200,0.1850 l 0.4200,0.0118 l 0.4200,0.7740 l 0.4200,0.1209 l 0.4200,-0.2562 l 0.4200,0.3796 l 0.4200,0.0124 l 0.4200,0.2227 l 0.4200,-0.4184 l 0.4200,-0.0903 l 0.4200,0.0750 l 0.4200,-0.2381 l 0.4200,-0.1495 l 0.4200,0.0160 l 0.4200,-0.3059 l 0.4200,-0.1736 l 0.4200,-0.0789 l 0.4200,-0.0965 l 0.4200,0.0894 l 0.4200,-0.1654 l 0.4200,-0.0251 l 0.4200,0.0126 l 0.4200,0.0780 l 0.4200,-0.1104 l 0.4200,0.0349 l 0.4200,0.0437 l 0.4200,0.0721 l 0.4200,-0.1747 l 0.4200,0.1303 l 0.4200,0.2613 l 0.4200,-0.1229 l 0.4200,-0.0189 l 0.4200,0.2392 l 0.4200,0.0407 l 0.4200,-0.2665 l 0.4200,-0.0344 l 0.4200,-0.1693 l 0.4200,0.0324 l 0.4200,0.3170 l 0.4200,0.2319 l 0.4200,-0.2797 l 0.4200,0.6273 l 0.4200,-0.3078 l 0.4200,0.1098 l 0.4200,0.1186 l 0.4200,0.5152 l 0.4200,0.0127 l 0.4200,-0.4046 l 0.4200,0.0724 l 0.4200,0.5866 l 0.4200,-0.6384 l 0.4200,0.7988 l 0.4200,0.4456 l 0.4200,0.6366 l 0.4200,-0.0480 l 0.4200,0.3175 l 0.4200,0.0057 l 0.4200,-0.4702 l 0.4200,-0.3304 l 0.4200,-0.7169 l 0.4200,0.2885 l 0.4200,-0.4475 l 0.4200,-0.2513 l 0.4200,0.0698 l 0.4200,-0.4333 l 0.4200,0.0658 l 0.4200,-0.2201 l 0.4200,-0.4249 l 0.4200,0.0187 l 0.4200,0.1207 l 0.4200,-0.1998 l 0.4200,-0.1275 l 0.4200,0.0012 l 0.4200,-0.1029 l 0.4200,-0.0117 l 0.4200,0.0408 l 0.4200,-0.0055 l 0.4200,0.0054 l 0.4200,-0.0132 l 0.4200,-0.1782 l 0.4200,0.0711 l 0.4200,-0.0594 l 0.4200,-0.1819 l 0.4200,-0.0928 l 0.4200,0.0582 l 0.4200,-0.0906 l 0.4200,0.1107 l 0.4200,0.2725 l 0.4200,-0.2249 l 0.4200,-0.1266 l 0.4200,0.0586 l 0.4200,-0.0478 l 0.4200,0.2888 l 0.4200,0.0235 l 0.4200,0.6346 l 0.4200,-0.1564 l 0.4200,0.6289 l 0.4200,0.2526 l 0.4200,0.3338 l 0.4200,-0.7450 l 0.4200,-0.8788 l 0.4200,-0.1569 l 0.4200,-0.1284 l 0.4200,-0.0509 l 0.4200,0.0200 l 0.4200,-0.1095 l 0.4200,-0.0175 l 0.4200,0.1992 l 0.4200,0.4045 l 0.4200,0.0270 l 0.4200,0.7081 l 0.4200,0.3494 l 0.4200,-0.4217 l 0.4200,-0.6531 l 0.4200,0.3318 l 0.4200,0.3196 l 0.4200,0.1107 l 0.4200,0.2328 l 0.4200,0.3627 l 0.4200,-0.4887 l 0.4200,-0.0447 l 0.4200,-0.1641 l 0.4200,-0.5563 l 0.4200,0.2214 l 0.4200,-0.0826 l 0.4200,0.5210 l 0.4200,0.5245 l 0.4200,-0.3440 l 0.4200,0.5053 l 0.4200,-0.4717 l 0.4200,-0.5258 l 0.4200,0.1706 l 0.4200,-0.3715 l 0.4200,0.1429 l 0.4200,0.1740 l 0.4200,-0.3857 l 0.4200,0.0153 l 0.4200,-0.3469 l 0.4200,-0.1384 l 0.4200,-0.0454 l 0.4200,0.0265 l 0.4200,0.0546 l 0.4200,-0.2152 l 0.4200,0.0262 l 0.4200,-0.0889 l 0.4200,0.0437 l 0.4200,0.0703 l 0.4200,0.1261 l 0.4200,-0.2151 l 0.4200,0.1859 l 0.4200,0.1800 l 0.4200,-0.0306 l 0.4200,0.5514 l 0.4200,-0.1343 l 0.4200,0.6575 l 0.4200,0.0854 l 0.4200,-0.4577 l 0.4200,0.2430 l 0.4200,-0.4921 l 0.4200,0.1392 l 0.4200,-0.4407 l 0.4200,0.1981 l 0.4200,-0.3234 l 0.4200,0.0802 l 0.4200,0.2460 l 0.4200,0.5657 l 0.4200,0.1029 l 0.4200,-0.0756 l 0.4200,-0.4439 l 0.4200,0.3463 l 0.4200,0.1630 l 0.4200,-0.1191 l 0.4200,-0.2341 l 0.4200,0.0915 l 0.4200,-0.0871 l 0.4200,-0.1535 l 0.4200,-0.1812 l 0.4200,0.1869 l 0.4200,-0.0473 l 0.4200,-0.1791 l 0.4200,0.0435 l 0.4200,0.4420 l 0.4200,-0.3321 l 0.4200,0.0698 l 0.4200,-0.1769 l 0.4200,-0.0744 l 0.4200,-0.0704 l 0.4200,0.1704 l 0.4200,-0.0899 l 0.4200,0.1552 l 0.4200,0.3969 l 0.4200,-0.3950 l 0.4200,-0.0963 l 0.4200,0.4620 l 0.4200,0.1815 l 0.4200,-0.1282 l 0.4200,-0.4891 l 0.4200,0.2061 l 0.4200,0.1250 l 0.4200,0.0252 l 0.4200,-0.3895 l 0.4200,-0.0147 l 0.4200,-0.1003 l 0.4200,0.0385 l 0.4200,0.0492 l 0.4200,-0.0737 l 0.4200,0.0984 l 0.4200,0.4028 l 0.4200,-0.3294 l 0.4200,0.0618 l 0.4200,0.2524 l 0.4200,-0.0637 l 0.4200,0.0518 l 0.4200,-0.0659 l 0.4200,0.3396 l 0.4200,0.0675 l 0.4200,0.2577 l 0.4200,-0.0026 l 0.4200,-0.4370 l 0.4200,-0.0516 l 0.4200,0.2777 l 0.4200,0.1876 l 0.4200,-0.2002 l 0.4200,-0.0609 l 0.4200,-0.3571 l 0.4200,0.2139 l 0.4200,-0.2150 l 0.4200,-0.0101 l 0.4200,0.2914 l 0.4200,0.1255 l 0.4200,0.0281 l 0.4200,0.8064 l 0.4200,-0.0875 l 0.4200,-0.2473 l 0.4200,0.0245 l 0.4200,0.1584 l 0.4200,-0.2153 l 0.4200,0.6446 l 0.4200,-0.0728 l 0.4200,-0.4488 l 0.4200,-0.4010 l 0.4200,-0.1538 l 0.4200,0.0411 l 0.4200,-0.2869 l 0.4200,-0.0279 l 0.4200,-0.0153 l 0.4200,0.1743 l 0.4200,0.1034 l 0.4200,0.2274 l 0.4200,0.4178 l 0.4200,0.2305 l 0.4200,-0.4505 l 0.4200,-0.2612 l 0.4200,0.0122 l 0.4200,0.0987 l 0.4200,0.1169 l 0.4200,0.0977 l 0.4200,-0.1041 l 0.4200,0.3057 l 0.4200,0.1209 l 0.4200,-0.4661 l 0.4200,0.3743 l 0.4200,-0.0231 l 0.4200,0.0607 l 0.4200,-0.1342 l 0.4200,-0.1827 l 0.4200,0.1119 l 0.4200,0.3245 l 0.4200,0.8145 l 0.4200,1.2288 l 0.4200,1.5223 l 0.4200,0.5205 l 0.4200,-1.4317 l 0.4200,-0.8926 l 0.4200,-0.0119 l 0.4200,0.3277 l 0.4200,1.1394 l 0.4200,-0.6727 l 0.4200,-0.0336 l 0.4200,0.5910 l 0.4200,-0.9224 l 0.4200,0.5369 l 0.4200,-0.1883 l 0.4200,-0.1583 l 0.4200,0.1643 l 0.4200,-0.4695 l 0.4200,-0.3154 l 0.4200,0.1073 l 0.4200,0.6235 l 0.4200,-0.1615 l 0.4200,0.4764 l 0.4200,0.0867 l 0.4200,0.1363 l 0.4200,0.0270 l 0.4200,0.9873 l 0.4200,-0.0381 l 0.4200,-0.7021 l 0.4200,-0.0647 l 0.4200,-0.5252 l 0.4200,-0.6716 l 0.4200,0.1458 l 0.4200,-0.2907 l 0.4200,-0.3195 l 0.4200,-0.0162 l 0.4200,-0.0370 l 0.4200,0.2686 l 0.4200,0.1884 l 0.4200,-0.5440 l 0.4200,-0.1603 l 0.4200,0.0011 l 0.4200,0.0647 l 0.4200,0.2309 l 0.4200,-0.6093 l 0.4200,-0.4008 l 0.4200,0.0841 l 0.4200,0.1080 l 0.4200,-0.4309 l 0.4200,0.0292 l 0.4200,0.1935 l 0.4200,-0.4320 l 0.4200,-0.0899 l 0.4200,0.1461 l 0.4200,0.0549 l 0.4200,0.0254 l 0.4200,0.3835 l 0.4200,-0.0450 l 0.4200,0.1335 l 0.4200,0.5416 l 0.4200,0.4350 l 0.4200,-0.5456 l 0.4200,0.0619 l 0.4200,-0.5917 l 0.4200,0.0543 l 0.4200,-0.1312 l 0.4200,0.0585 l 0.4200,-0.0340 l 0.4200,0.0168 l 0.4200,-0.0104 l 0.4200,0.1869 l 0.4200,-0.3878 l 0.4200,0.4281 l 0.4200,0.5561 l 0.4200,-0.7531 l 0.4200,0.2759 l 0.4200,0.2564 l 0.4200,0.3035 l 0.4200,-0.0736 l 0.4200,0.7488 l 0.4200,-0.1682 l 0.4200,-0.3866 l 0.4200,-0.5309 l 0.4200,0.5816 l 0.4200,0.6861 l 0.4200,-0.2814 l 0.4200,-0.3195 l 0.4200,-0.4532 l 0.4200,0.0716 l 0.4200,0.0932 l 0.4200,-0.3866 l 0.4200,0.2840 l 0.4200,0.3668 l 0.4200,0.5907 l 0.4200,-0.0655 l 0.4200,0.5068 l 0.4200,0.9117 l 0.4200,0.4184 l 0.4200,-0.0237 l 0.4200,-0.2838 l 0.4200,0.9596 l 0.4200,-0.6151 l 0.4200,0.8298 l 0.4200,-0.0126 l 0.4200,0.4500 l 0.4200,-0.1878 l 0.4200,-0.7477 l 0.4200,0.6011 l 0.4200,-0.5209 l 0.4200,0.4190 l 0.4200,-0.1999 l 0.4200,-0.9119 l 0.4200,0.0257 l 0.4200,0.7202 l 0.4200,-0.1795 l 0.4200,-0.0492 l 0.4200,0.7097 l 0.4200,0.5434 l 0.4200,0.0318 l 0.4200,0.0140 l 0.4200,0.4724 l 0.4200,-0.7206 l 0.4200,-0.6087 l 0.4200,-0.6068 l 0.4200,0.1844 l 0.4200,0.0091 l 0.4200,-0.5315 l 0.4200,0.4802 l 0.4200,-0.1585 l 0.4200,-0.4159 l 0.4200,0.0793 l 0.4200,0.3153 l 0.4200,-0.8787 l 0.4200,-0.1441 l 0.4200,-0.1219 l 0.4200,-0.1145 l 0.4200,-0.0236 l 0.4200,0.4348 l 0.4200,-0.1804 l 0.4200,0.0036 l 0.4200,-0.6021 l 0.4200,0.0577 l 0.4200,0.0791 l 0.4200,-0.2001 l 0.4200,-0.2370 l 0.4200,-0.1549 l 0.4200,-0.0265 l 0.4200,0.0435 l 0.4200,0.2514 l 0.4200,0.0244 l 0.4200,-0.0103 l 0.4200,-0.3199 l 0.4200,-0.1526 l 0.4200,0.0875 l 0.4200,-0.2268 l 0.4200,0.1317 l 0.4200,0.3941 l 0.4200,-0.3829 l 0.4200,0.4639 l 0.4200,-0.0946 l 0.4200,0.1135 l 0.4200,-0.3515 l 0.4200,-0.3650 l 0.4200,0.0045 l 0.4200,0.0479 l 0.4200,-0.2343 l 0.4200,-0.1047 l 0.4200,-0.0174 l 0.4200,0.2071 l 0.4200,0.0091 l 0.4200,0.0792 l 0.4200,-0.0595 l 0.4200,-0.0510 l 0.4200,0.3598 l 0.4200,0.2014 l 0.4200,-0.2822 l 0.4200,0.3386 l 0.4200,0.2342 l 0.4200,0.0191 l 0.4200,-0.1090 l 0.4200,-0.0180 l 0.4200,-0.4563 l 0.4200,0.3722 l 0.4200,0.0166 l 0.4200,0.3305 l 0.4200,-0.3567 l 0.4200,0.3661 l 0.4200,0.0022 l 0.4200,0.1497 l 0.4200,-0.2159 l 0.4200,0.0886 l 0.4200,-0.5011 l 0.4200,-0.2507 l 0.4200,0.0187 l 0.4200,-0.1502 l 0.4200,0.0487 l 0.4200,-0.0319 l 0.4200,-0.0952 l 0.4200,0.1206 l 0.4200,-0.1729 l 0.4200,-0.0374 l 0.4200,-0.1132 l 0.4200,0.0758 l 0.4200,0.3577 l 0.4200,0.3170 l 0.4200,0.0780 l 0.4200,0.0796 l 0.4200,-0.1074 l 0.4200,0.1331 l 0.4200,-0.2076 l 0.4200,-0.0914 l 0.4200,0.0727 l 0.4200,-0.4888 l 0.4200,1.3868 l 0.4200,0.6959 l 0.4200,-0.6538 l 0.4200,-1.1321 l 0.4200,-0.0622 l 0.4200,0.2691 l 0.4200,-0.1904 l 0.4200,0.0435 l 0.4200,-0.5587 l 0.4200,-0.1167 l 0.4200,-0.2514 l 0.4200,0.0065 l 0.4200,-0.1858 l 0.4200,0.0467 l 0.4200,-0.0779 l 0.4200,0.0657 l 0.4200,-0.1486 l 0.4200,0.1479 l 0.4200,-0.1593 l 0.4200,0.1253 l 0.4200,-0.0005 l 0.4200,0.0568 l 0.4200,-0.0487 l 0.4200,-0.0496 l 0.4200,0.0595 l 0.4200,0.2517 l 0.4200,-0.1063 l 0.4200,0.0036 l 0.4200,-0.3107 l 0.4200,0.0460 l 0.4200,-0.0029 l 0.4200,0.1197 l 0.4200,-0.1660 l 0.4200,0.0418 l 0.4200,-0.0931 l 0.4200,0.2185 l 0.4200,-0.0586 l 0.4200,-0.0709 l 0.4200,0.0660 l 0.4200,0.0329 l 0.4200,-0.0616 l 0.4200,0.2094 l 0.4200,0.0629 l 0.4200,0.0709 l 0.4200,-0.1847 l 0.4200,0.0852 l 0.4200,0.1009 l 0.4200,0.0129 l 0.4200,-0.1463 l 0.4200,-0.1004 l 0.4200,0.0172 l 0.4200,0.0953 l 0.4200,0.9452 l 0.4200,-0.5376 l 0.4200,0.5732 l 0.4200,0.0325 l 0.4200,-0.3678 l 0.4200,0.1531 l 0.4200,0.0114 l 0.4200,-0.0005 l 0.4200,-0.3976 l 0.4200,-0.2324 l 0.4200,0.2278 l 0.4200,0.3354 l 0.4200,-0.2309 l 0.4200,-0.1876 l 0.4200,0.3635 l 0.4200,-0.2877 l 0.4200,0.1340 l 0.4200,0.1978 l 0.4200,-0.1505 l 0.4200,-0.0071 l 0.4200,0.1335 l 0.4200,-0.1620 l 0.4200,0.4820 l 0.4200,-0.0327 l 0.4200,0.1273 l 0.4200,0.0028 l 0.4200,0.1248 l 0.4200,-0.2207 l 0.4200,-0.0718 l 0.4200,0.0624 l 0.4200,0.0137 l 0.4200,-0.1677 l 0.4200,0.1538 l 0.4200,0.0760 l 0.4200,0.1229 l 0.4200,0.1273 l 0.4200,0.0147 l 0.4200,0.2663 l 0.4200,0.2560 l 0.4200,0.1763 l 0.4200,0.0721 l 0.4200,-0.8172 l 0.4200,-0.1311 l 0.4200,-0.4039 l 0.4200,-0.0624 l 0.4200,0.0634 l 0.4200,0.0151 l 0.4200,-0.2695 l 0.4200,0.0706 l 0.4200,-0.1645 l 0.4200,0.1010 l 0.4200,-0.2686 l 0.4200,-0.0700 l 0.4200,-0.0190 l 0.4200,-0.1356 l 0.4200,0.2097 l 0.4200,-0.0390 l 0.4200,0.1113 l 0.4200,0.1436 l 0.4200,-0.0039 l 0.4200,-0.2072 l 0.4200,-0.1167 l 0.4200,-0.4804 l 0.4200,-0.0691 l 0.4200,-0.2107 l 0.4200,0.0550 l 0.4200,-0.2331 l 0.4200,0.3189 l 0.4200,-0.1338 l 0.4200,0.0781 l 0.4200,-0.0622 l 0.4200,-0.1244 l 0.4200,0.1048 l 0.4200,0.0822 l 0.4200,-0.0350 l 0.4200,-0.0723 l 0.4200,0.3278 l 0.4200,0.0228 l 0.4200,0.1866 l 0.4200,-0.3062 l 0.4200,-0.2026 l 0.4200,0.0412 l 0.4200,-0.1199 l 0.4200,0.1460 l 0.4200,0.0120 l 0.4200,-0.0942 l 0.4200,0.0929 l 0.4200,-0.0575 l 0.4200,0.1239 l 0.4200,-0.0543 l 0.4200,0.1481 l 0.4200,-0.1145 l 0.4200,0.1134 l 0.4200,-0.2342 l 0.4200,-0.2884 l 0.4200,0.0402 l 0.4200,0.0450 l 0.4200,0.2390 l 0.4200,0.0455 l 0.4200,0.0008 l 0.4200,-0.0094 l 0.4200,-0.2601 l 0.4200,0.0920 l 0.4200,0.0037 l 0.4200,-0.0138 l 0.4200,-0.2035 l 0.4200,-0.1214 l 0.4200,-0.1842 l 0.4200,-0.1376 l 0.4200,-0.1744 l 0.4200,0.0456 l 0.4200,-0.0501 l 0.4200,-0.2137 l 0.4200,0.0541 l 0.4200,-0.0025 l 0.4200,-0.0429 l 0.4200,-0.0250 l 0.4200,0.1104 l 0.4200,-0.4976 l 0.4200,0.2349 l 0.4200,-0.0055 l 0.4200,0.1369 l 0.4200,0.1230 l 0.4200,0.0992 l 0.4200,-0.0170 l 0.4200,-0.1096 l 0.4200,-0.0005 l 0.4200,0.1405 l 0.4200,-0.3006 l 0.4200,0.0747 l 0.4200,0.0628 l 0.4200,0.0889 l 0.4200,0.4827 l 0.4200,-0.0585 l 0.4200,0.0527 l 0.4200,0.0444 l 0.4200,0.0510 l 0.4200,-0.2591 l 0.4200,-0.0279 l 0.4200,-0.0973 l 0.4200,0.0979 l 0.4200,0.0747 l 0.4200,-0.0083 l 0.4200,0.1279 l 0.4200,-0.0598 l 0.4200,0.0439 l 0.4200,-0.0132 l 0.4200,0.0667 l 0.4200,0.1543 l 0.4200,0.2696 l 0.4200,-0.3104 l 0.4200,0.1220 l 0.4200,0.0770 l 0.4200,-0.2708 l 0.4200,0.1270 l 0.4200,-0.3930 l 0.4200,-0.2154 l 0.4200,0.0314 l 0.4200,-0.0077 l 0.4200,0.0851 l 0.4200,-0.0521 l 0.4200,-0.0316 l 0.4200,0.0609 l 0.4200,-0.0089 l 0.4200,-0.1404 l 0.4200,0.0118 l 0.4200,0.0517 l 0.4200,-0.0294 l 0.4200,0.0946 l 0.4200,0.0686 l 0.4200,-0.1663 l 0.4200,0.0390 l 0.4200,0.7030 l 0.4200,-0.1262 l 0.4200,-0.2411 l 0.4200,-0.1808 l 0.4200,-0.0561 l 0.4200,-0.0805 l 0.4200,-0.1536 l 0.4200,0.0016 l 0.4200,0.0585 l 0.4200,0.0304 l 0.4200,-0.2705 l 0.4200,-0.1257 l 0.4200,0.0594 l 0.4200,0.1181 l 0.4200,-0.0456 l 0.4200,0.0034 l 0.4200,0.0446 "/></g></svg>