<?xml version="1.0" encoding="UTF-8"?>
<!DOCTYPE svg PUBLIC "-//W3C//DTD SVG 1.1//EN"
    "http://www.w3.org/Graphics/SVG/1.1/DTD/svg11.dtd"><svg xmlns="http://www.w3.org/2000/svg" height="400.0000" stroke-opacity="1" viewBox="0 0 600 400" font-size="1" width="600.0000" xmlns:xlink="http://www.w3.org/1999/xlink" stroke="rgb(0,0,0)" version="1.1"><defs></defs><g stroke-linejoin="miter" stroke-opacity="0.0" fill-opacity="0.2" stroke="rgb(0,0,0)" stroke-width="0.0" fill="rgb(85,85,85)" stroke-linecap="butt" stroke-miterlimit="10.0"><path d="M 94.4056,321.6783 l -0.0000,-279.7203 h -5.5944 l -0.0000,279.7203 Z"/></g><g stroke-linejoin="miter" stroke-opacity="1.0" fill-opacity="0.7" font-size="11.188811188811187px" stroke="rgb(0,0,0)" stroke-width="1.9296726052976874" fill="rgb(51,51,51)" stroke-linecap="butt" stroke-miterlimit="10.0"><text dominant-baseline="middle" transform="matrix(1.0000,0.0000,0.0000,1.0000,80.4196,47.0642)" stroke="none" text-anchor="end">0.0020</text></g><g stroke-linejoin="miter" stroke-opacity="0.5" fill-opacity="0.0" stroke="rgb(26,102,204)" stroke-width="1.9296726052976874" fill="rgb(0,0,0)" stroke-linecap="butt" stroke-miterlimit="10.0"><path d="M 86.0140,47.0642 h 5.5944 "/></g><g stroke-linejoin="miter" stroke-opacity="1.0" fill-opacity="0.7" font-size="11.188811188811187px" stroke="rgb(0,0,0)" stroke-width="1.9296726052976874" fill="rgb(51,51,51)" stroke-linecap="butt" stroke-miterlimit="10.0"><text dominant-baseline="middle" transform="matrix(1.0000,0.0000,0.0000,1.0000,80.4196,83.7484)" stroke="none" text-anchor="end">0.0010</text></g><g stroke-linejoin="miter" stroke-opacity="0.5" fill-opacity="0.0" stroke="rgb(26,102,204)" stroke-width="1.9296726052976874" fill="rgb(0,0,0)" stroke-linecap="butt" stroke-miterlimit="10.0"><path d="M 86.0140,83.7484 h 5.5944 "/></g><g stroke-linejoin="miter" stroke-opacity="1.0" fill-opacity="0.7" font-size="11.188811188811187px" stroke="rgb(0,0,0)" stroke-width="1.9296726052976874" fill="rgb(51,51,51)" stroke-linecap="butt" stroke-miterlimit="10.0"><text dominant-baseline="middle" transform="matrix(1.0000,0.0000,0.0000,1.0000,80.4196,120.4325)" stroke="none" text-anchor="end">0.0</text></g><g stroke-linejoin="miter" stroke-opacity="0.5" fill-opacity="0.0" stroke="rgb(26,102,204)" stroke-width="1.9296726052976874" fill="rgb(0,0,0)" stroke-linecap="butt" stroke-miterlimit="10.0"><path d="M 86.0140,120.4325 h 5.5944 "/></g><g stroke-linejoin="miter" stroke-opacity="1.0" fill-opacity="0.7" font-size="11.188811188811187px" stroke="rgb(0,0,0)" stroke-width="1.9296726052976874" fill="rgb(51,51,51)" stroke-linecap="butt" stroke-miterlimit="10.0"><text dominant-baseline="middle" transform="matrix(1.0000,0.0000,0.0000,1.0000,80.4196,157.1167)" stroke="none" text-anchor="end">-0.0010</text></g><g stroke-linejoin="miter" stroke-opacity="0.5" fill-opacity="0.0" stroke="rgb(26,102,204)" stroke-width="1.9296726052976874" fill="rgb(0,0,0)" stroke-linecap="butt" stroke-miterlimit="10.0"><path d="M 86.0140,157.1167 h 5.5944 "/></g><g stroke-linejoin="miter" stroke-opacity="1.0" fill-opacity="0.7" font-size="11.188811188811187px" stroke="rgb(0,0,0)" stroke-width="1.9296726052976874" fill="rgb(51,51,51)" stroke-linecap="butt" stroke-miterlimit="10.0"><text dominant-baseline="middle" transform="matrix(1.0000,0.0000,0.0000,1.0000,80.4196,193.8008)" stroke="none" text-anchor="end">-0.0020</text></g><g stroke-linejoin="miter" stroke-opacity="0.5" fill-opacity="0.0" stroke="rgb(26,102,204)" stroke-width="1.9296726052976874" fill="rgb(0,0,0)" stroke-linecap="butt" stroke-miterlimit="10.0"><path d="M 86.0140,193.8008 h 5.5944 "/></g><g stroke-linejoin="miter" stroke-opacity="1.0" fill-opacity="0.7" font-size="11.188811188811187px" stroke="rgb(0,0,0)" stroke-width="1.9296726052976874" fill="rgb(51,51,51)" stroke-linecap="butt" stroke-miterlimit="10.0"><text dominant-baseline="middle" transform="matrix(1.0000,0.0000,0.0000,1.0000,80.4196,230.4850)" stroke="none" text-anchor="end">-0.0030</text></g><g stroke-linejoin="miter" stroke-opacity="0.5" fill-opacity="0.0" stroke="rgb(26,102,204)" stroke-width="1.9296726052976874" fill="rgb(0,0,0)" stroke-linecap="butt" stroke-miterlimit="10.0"><path d="M 86.0140,230.4850 h 5.5944 "/></g><g stroke-linejoin="miter" stroke-opacity="1.0" fill-opacity="0.7" font-size="11.188811188811187px" stroke="rgb(0,0,0)" stroke-width="1.9296726052976874" fill="rgb(51,51,51)" stroke-linecap="butt" stroke-miterlimit="10.0"><text dominant-baseline="middle" transform="matrix(1.0000,0.0000,0.0000,1.0000,80.4196,267.1691)" stroke="none" text-anchor="end">-0.0040</text></g><g stroke-linejoin="miter" stroke-opacity="0.5" fill-opacity="0.0" stroke="rgb(26,102,204)" stroke-width="1.9296726052976874" fill="rgb(0,0,0)" stroke-linecap="butt" stroke-miterlimit="10.0"><path d="M 86.0140,267.1691 h 5.5944 "/></g><g stroke-linejoin="miter" stroke-opacity="1.0" fill-opacity="0.7" font-size="11.188811188811187px" stroke="rgb(0,0,0)" stroke-width="1.9296726052976874" fill="rgb(51,51,51)" stroke-linecap="butt" stroke-miterlimit="10.0"><text dominant-baseline="middle" transform="matrix(1.0000,0.0000,0.0000,1.0000,80.4196,303.8533)" stroke="none" text-anchor="end">-0.0050</text></g><g stroke-linejoin="miter" stroke-opacity="0.5" fill-opacity="0.0" stroke="rgb(26,102,204)" stroke-width="1.9296726052976874" fill="rgb(0,0,0)" stroke-linecap="butt" stroke-miterlimit="10.0"><path d="M 86.0140,303.8533 h 5.5944 "/></g><g stroke-linejoin="miter" stroke-opacity="0.0" fill-opacity="0.2" stroke="rgb(0,0,0)" stroke-width="0.0" fill="rgb(85,85,85)" stroke-linecap="butt" stroke-miterlimit="10.0"><path d="M 527.9720,341.2587 l -0.0000,-5.5944 h -419.5804 l -0.0000,5.5944 Z"/></g><g stroke-linejoin="miter" stroke-opacity="1.0" fill-opacity="0.7" font-size="11.188811188811187px" stroke="rgb(0,0,0)" stroke-width="1.9296726052976874" fill="rgb(51,51,51)" stroke-linecap="butt" stroke-miterlimit="10.0"><text dominant-baseline="text-before-edge" transform="matrix(1.0000,0.0000,0.0000,1.0000,500.6720,349.6503)" stroke="none" text-anchor="middle">1.7e4</text></g><g stroke-linejoin="miter" stroke-opacity="0.5" fill-opacity="0.0" stroke="rgb(26,102,204)" stroke-width="1.9296726052976874" fill="rgb(0,0,0)" stroke-linecap="butt" stroke-miterlimit="10.0"><path d="M 500.6720,338.4615 v 5.5944 "/></g><g stroke-linejoin="miter" stroke-opacity="1.0" fill-opacity="0.7" font-size="11.188811188811187px" stroke="rgb(0,0,0)" stroke-width="1.9296726052976874" fill="rgb(51,51,51)" stroke-linecap="butt" stroke-miterlimit="10.0"><text dominant-baseline="text-before-edge" transform="matrix(1.0000,0.0000,0.0000,1.0000,458.6720,349.6503)" stroke="none" text-anchor="middle">1.7e4</text></g><g stroke-linejoin="miter" stroke-opacity="0.5" fill-opacity="0.0" stroke="rgb(26,102,204)" stroke-width="1.9296726052976874" fill="rgb(0,0,0)" stroke-linecap="butt" stroke-miterlimit="10.0"><path d="M 458.6720,338.4615 v 5.5944 "/></g><g stroke-linejoin="miter" stroke-opacity="1.0" fill-opacity="0.7" font-size="11.188811188811187px" stroke="rgb(0,0,0)" stroke-width="1.9296726052976874" fill="rgb(51,51,51)" stroke-linecap="butt" stroke-miterlimit="10.0"><text dominant-baseline="text-before-edge" transform="matrix(1.0000,0.0000,0.0000,1.0000,416.6719,349.6503)" stroke="none" text-anchor="middle">1.7e4</text></g><g stroke-linejoin="miter" stroke-opacity="0.5" fill-opacity="0.0" stroke="rgb(26,102,204)" stroke-width="1.9296726052976874" fill="rgb(0,0,0)" stroke-linecap="butt" stroke-miterlimit="10.0"><path d="M 416.6719,338.4615 v 5.5944 "/></g><g stroke-linejoin="miter" stroke-opacity="1.0" fill-opacity="0.7" font-size="11.188811188811187px" stroke="rgb(0,0,0)" stroke-width="1.9296726052976874" fill="rgb(51,51,51)" stroke-linecap="butt" stroke-miterlimit="10.0"><text dominant-baseline="text-before-edge" transform="matrix(1.0000,0.0000,0.0000,1.0000,374.6719,349.6503)" stroke="none" text-anchor="middle">1.7e4</text></g><g stroke-linejoin="miter" stroke-opacity="0.5" fill-opacity="0.0" stroke="rgb(26,102,204)" stroke-width="1.9296726052976874" fill="rgb(0,0,0)" stroke-linecap="butt" stroke-miterlimit="10.0"><path d="M 374.6719,338.4615 v 5.5944 "/></g><g stroke-linejoin="miter" stroke-opacity="1.0" fill-opacity="0.7" font-size="11.188811188811187px" stroke="rgb(0,0,0)" stroke-width="1.9296726052976874" fill="rgb(51,51,51)" stroke-linecap="butt" stroke-miterlimit="10.0"><text dominant-baseline="text-before-edge" transform="matrix(1.0000,0.0000,0.0000,1.0000,332.6718,349.6503)" stroke="none" text-anchor="middle">1.7e4</text></g><g stroke-linejoin="miter" stroke-opacity="0.5" fill-opacity="0.0" stroke="rgb(26,102,204)" stroke-width="1.9296726052976874" fill="rgb(0,0,0)" stroke-linecap="butt" stroke-miterlimit="10.0"><path d="M 332.6718,338.4615 v 5.5944 "/></g><g stroke-linejoin="miter" stroke-opacity="1.0" fill-opacity="0.7" font-size="11.188811188811187px" stroke="rgb(0,0,0)" stroke-width="1.9296726052976874" fill="rgb(51,51,51)" stroke-linecap="butt" stroke-miterlimit="10.0"><text dominant-baseline="text-before-edge" transform="matrix(1.0000,0.0000,0.0000,1.0000,290.6718,349.6503)" stroke="none" text-anchor="middle">1.6e4</text></g><g stroke-linejoin="miter" stroke-opacity="0.5" fill-opacity="0.0" stroke="rgb(26,102,204)" stroke-width="1.9296726052976874" fill="rgb(0,0,0)" stroke-linecap="butt" stroke-miterlimit="10.0"><path d="M 290.6718,338.4615 v 5.5944 "/></g><g stroke-linejoin="miter" stroke-opacity="1.0" fill-opacity="0.7" font-size="11.188811188811187px" stroke="rgb(0,0,0)" stroke-width="1.9296726052976874" fill="rgb(51,51,51)" stroke-linecap="butt" stroke-miterlimit="10.0"><text dominant-baseline="text-before-edge" transform="matrix(1.0000,0.0000,0.0000,1.0000,248.6717,349.6503)" stroke="none" text-anchor="middle">1.6e4</text></g><g stroke-linejoin="miter" stroke-opacity="0.5" fill-opacity="0.0" stroke="rgb(26,102,204)" stroke-width="1.9296726052976874" fill="rgb(0,0,0)" stroke-linecap="butt" stroke-miterlimit="10.0"><path d="M 248.6717,338.4615 v 5.5944 "/></g><g stroke-linejoin="miter" stroke-opacity="1.0" fill-opacity="0.7" font-size="11.188811188811187px" stroke="rgb(0,0,0)" stroke-width="1.9296726052976874" fill="rgb(51,51,51)" stroke-linecap="butt" stroke-miterlimit="10.0"><text dominant-baseline="text-before-edge" transform="matrix(1.0000,0.0000,0.0000,1.0000,206.6717,349.6503)" stroke="none" text-anchor="middle">1.6e4</text></g><g stroke-linejoin="miter" stroke-opacity="0.5" fill-opacity="0.0" stroke="rgb(26,102,204)" stroke-width="1.9296726052976874" fill="rgb(0,0,0)" stroke-linecap="butt" stroke-miterlimit="10.0"><path d="M 206.6717,338.4615 v 5.5944 "/></g><g stroke-linejoin="miter" stroke-opacity="1.0" fill-opacity="0.7" font-size="11.188811188811187px" stroke="rgb(0,0,0)" stroke-width="1.9296726052976874" fill="rgb(51,51,51)" stroke-linecap="butt" stroke-miterlimit="10.0"><text dominant-baseline="text-before-edge" transform="matrix(1.0000,0.0000,0.0000,1.0000,164.6717,349.6503)" stroke="none" text-anchor="middle">1.6e4</text></g><g stroke-linejoin="miter" stroke-opacity="0.5" fill-opacity="0.0" stroke="rgb(26,102,204)" stroke-width="1.9296726052976874" fill="rgb(0,0,0)" stroke-linecap="butt" stroke-miterlimit="10.0"><path d="M 164.6717,338.4615 v 5.5944 "/></g><g stroke-linejoin="miter" stroke-opacity="1.0" fill-opacity="0.7" font-size="11.188811188811187px" stroke="rgb(0,0,0)" stroke-width="1.9296726052976874" fill="rgb(51,51,51)" stroke-linecap="butt" stroke-miterlimit="10.0"><text dominant-baseline="text-before-edge" transform="matrix(1.0000,0.0000,0.0000,1.0000,122.6716,349.6503)" stroke="none" text-anchor="middle">1.6e4</text></g><g stroke-linejoin="miter" stroke-opacity="0.5" fill-opacity="0.0" stroke="rgb(26,102,204)" stroke-width="1.9296726052976874" fill="rgb(0,0,0)" stroke-linecap="butt" stroke-miterlimit="10.0"><path d="M 122.6716,338.4615 v 5.5944 "/></g><g stroke-linejoin="miter" stroke-opacity="0.0" fill-opacity="2.0e-2" stroke="rgb(0,0,0)" stroke-width="0.0" fill="rgb(255,255,255)" stroke-linecap="butt" stroke-miterlimit="10.0"><path d="M 527.9720,321.6783 l -0.0000,-279.7203 h -419.5804 l -0.0000,279.7203 Z"/></g><g stroke-linejoin="miter" stroke-opacity="1.0" fill-opacity="0.0" stroke="rgb(250,165,218)" stroke-width="0.48241815132442184" fill="rgb(0,0,0)" stroke-linecap="butt" stroke-miterlimit="10.0"><path d="M 108.3916,161.1913 l 0.4200,-7.3697 l 0.4200,21.3810 l 0.4200,-20.9236 l 0.4200,-19.3997 l 0.4200,-11.8382 l 0.4200,8.0053 l 0.4200,-10.5979 l 0.4200,1.1994 l 0.4200,-1.5931 l 0.4200,-18.5794 l 0.4200,-8.2920 l 0.4200,-11.7127 l 0.4200,1.8289 l 0.4200,-23.0082 l 0.4200,-2.4345 l 0.4200,0.6480 l 0.4200,10.0707 l 0.4200,-2.6561 l 0.4200,-6.5206 l 0.4200,0.1763 l 0.4200,-0.6930 l 0.4200,6.5694 l 0.4200,9.7323 l 0.4200,-2.5886 l 0.4200,0.9147 l 0.4200,9.2171 l 0.4200,1.0370 l 0.4200,2.0623 l 0.4200,-21.1664 l 0.4200,0.1028 l 0.4200,5.5374 l 0.4200,12.9683 l 0.4200,8.6068 l 0.4200,-5.8529 l 0.4200,8.3902 l 0.4200,3.2752 l 0.4200,-4.0193 l 0.4200,10.9546 l 0.4200,27.2348 l 0.4200,5.5840 l 0.4200,10.3936 l 0.4200,-8.7379 l 0.4200,10.0337 l 0.4200,-17.9097 l 0.4200,-7.7673 l 0.4200,7.4385 l 0.4200,29.1696 l 0.4200,-7.1934 l 0.4200,-5.3862 l 0.4200,4.6104 l 0.4200,-9.4673 l 0.4200,-16.0781 l 0.4200,-2.2993 l 0.4200,-0.2530 l 0.4200,-18.4204 l 0.4200,-12.4145 l 0.4200,-4.0946 l 0.4200,7.9052 l 0.4200,-3.9321 l 0.4200,-9.0595 l 0.4200,-5.8928 l 0.4200,-20.4165 l 0.4200,6.7137 l 0.4200,16.5366 l 0.4200,10.5458 l 0.4200,6.0630 l 0.4200,6.0745 l 0.4200,-5.6446 l 0.4200,8.7047 l 0.4200,11.6462 l 0.4200,-14.7360 l 0.4200,2.3288 l 0.4200,17.2446 l 0.4200,-13.3629 l 0.4200,16.4682 l 0.4200,22.4466 l 0.4200,-2.6560 l 0.4200,-41.4292 l 0.4200,-9.8441 l 0.4200,-5.9767 l 0.4200,14.7469 l 0.4200,-24.6703 l 0.4200,-9.9257 l 0.4200,-9.4082 l 0.4200,3.0344 l 0.4200,-7.7814 l 0.4200,12.3093 l 0.4200,-3.5063 l 0.4200,-5.2369 l 0.4200,0.7317 l 0.4200,-7.2768 l 0.4200,12.7090 l 0.4200,9.7625 l 0.4200,-3.1857 l 0.4200,-4.0408 l 0.4200,7.9254 l 0.4200,-5.6818 l 0.4200,27.0238 l 0.4200,-23.7677 l 0.4200,1.5214 l 0.4200,6.6569 l 0.4200,-12.9433 l 0.4200,-6.0043 l 0.4200,-4.7236 l 0.4200,10.1205 l 0.4200,6.2412 l 0.4200,8.9052 l 0.4200,-13.1261 l 0.4200,-6.2747 l 0.4200,5.3345 l 0.4200,2.2355 l 0.4200,-2.1052 l 0.4200,4.0894 l 0.4200,7.3100 l 0.4200,7.7495 l 0.4200,3.8962 l 0.4200,9.4087 l 0.4200,-19.8096 l 0.4200,-0.9476 l 0.4200,7.8887 l 0.4200,22.4044 l 0.4200,7.2834 l 0.4200,0.2712 l 0.4200,-11.6971 l 0.4200,6.6530 l 0.4200,-30.2286 l 0.4200,3.5902 l 0.4200,-7.1715 l 0.4200,-7.5243 l 0.4200,-2.7605 l 0.4200,-6.0870 l 0.4200,3.6362 l 0.4200,2.9891 l 0.4200,-4.7734 l 0.4200,19.2735 l 0.4200,2.0330 l 0.4200,6.2932 l 0.4200,-9.8498 l 0.4200,2.5042 l 0.4200,1.0932 l 0.4200,-2.5249 l 0.4200,25.1252 l 0.4200,-19.7013 l 0.4200,-7.4471 l 0.4200,4.6034 l 0.4200,8.7844 l 0.4200,-3.9943 l 0.4200,0.5142 l 0.4200,17.8596 l 0.4200,39.3931 l 0.4200,7.9756 l 0.4200,-13.7310 l 0.4200,18.3244 l 0.4200,-23.6101 l 0.4200,11.4953 l 0.4200,41.7788 l 0.4200,-18.1196 l 0.4200,1.1616 l 0.4200,-26.1893 l 0.4200,-25.4568 l 0.4200,-2.4864 l 0.4200,-20.0817 l 0.4200,1.9040 l 0.4200,-9.7281 l 0.4200,-7.2442 l 0.4200,-0.2198 l 0.4200,13.9082 l 0.4200,-10.1908 l 0.4200,5.3313 l 0.4200,-10.0821 l 0.4200,4.5152 l 0.4200,1.5276 l 0.4200,-7.5549 l 0.4200,-3.0725 l 0.4200,15.8223 l 0.4200,-26.8314 l 0.4200,3.1129 l 0.4200,-0.7120 l 0.4200,1.5573 l 0.4200,3.2980 l 0.4200,11.6318 l 0.4200,0.9229 l 0.4200,23.2114 l 0.4200,5.2781 l 0.4200,-17.4928 l 0.4200,-11.7507 l 0.4200,13.2102 l 0.4200,-10.2837 l 0.4200,7.1304 l 0.4200,9.9858 l 0.4200,-7.5867 l 0.4200,14.1059 l 0.4200,3.6031 l 0.4200,-8.4265 l 0.4200,-13.7243 l 0.4200,-11.2973 l 0.4200,-3.1671 l 0.4200,4.1576 l 0.4200,24.8739 l 0.4200,19.9465 l 0.4200,-7.7043 l 0.4200,-19.9450 l 0.4200,40.1101 l 0.4200,16.1661 l 0.4200,-17.4757 l 0.4200,-13.2417 l 0.4200,-19.2647 l 0.4200,-1.4460 l 0.4200,-6.1711 l 0.4200,-6.3538 l 0.4200,5.5341 l 0.4200,-2.2160 l 0.4200,16.1180 l 0.4200,-5.9244 l 0.4200,-7.9387 l 0.4200,-4.2603 l 0.4200,1.6193 l 0.4200,3.6240 l 0.4200,-2.5128 l 0.4200,17.7346 l 0.4200,-10.4257 l 0.4200,3.5033 l 0.4200,-2.2755 l 0.4200,-16.9085 l 0.4200,1.1216 l 0.4200,10.1351 l 0.4200,17.9987 l 0.4200,-7.1826 l 0.4200,-6.4537 l 0.4200,12.8706 l 0.4200,-15.0017 l 0.4200,-3.1236 l 0.4200,-6.6790 l 0.4200,-9.4791 l 0.4200,4.0865 l 0.4200,-8.3181 l 0.4200,-1.2090 l 0.4200,0.8000 l 0.4200,2.7728 l 0.4200,-1.6039 l 0.4200,-9.9907 l 0.4200,-5.9523 l 0.4200,1.1593 l 0.4200,3.2562 l 0.4200,9.1750 l 0.4200,15.0617 l 0.4200,-4.6810 l 0.4200,0.1584 l 0.4200,-2.3869 l 0.4200,-12.3568 l 0.4200,0.1989 l 0.4200,-0.8542 l 0.4200,2.6426 l 0.4200,14.0681 l 0.4200,-7.7220 l 0.4200,4.2339 l 0.4200,-1.8824 l 0.4200,2.5192 l 0.4200,-10.5874 l 0.4200,1.2005 l 0.4200,-7.9323 l 0.4200,9.9506 l 0.4200,14.8134 l 0.4200,-7.5180 l 0.4200,9.4287 l 0.4200,-1.6826 l 0.4200,-7.5549 l 0.4200,5.3811 l 0.4200,-6.4072 l 0.4200,23.6884 l 0.4200,-18.7317 l 0.4200,6.1496 l 0.4200,-8.1498 l 0.4200,-1.4603 l 0.4200,0.7862 l 0.4200,10.5024 l 0.4200,0.3238 l 0.4200,9.4133 l 0.4200,0.3187 l 0.4200,37.9880 l 0.4200,4.2073 l 0.4200,-15.4385 l 0.4200,17.6458 l 0.4200,-1.7034 l 0.4200,9.0169 l 0.4200,-24.1063 l 0.4200,-5.6657 l 0.4200,2.5891 l 0.4200,-13.0466 l 0.4200,-7.7329 l 0.4200,0.6491 l 0.4200,-15.2338 l 0.4200,-7.7954 l 0.4200,-2.9340 l 0.4200,-3.7446 l 0.4200,5.6118 l 0.4200,-7.3391 l 0.4200,0.0867 l 0.4200,1.8540 l 0.4200,4.9546 l 0.4200,-4.5976 l 0.4200,2.8940 l 0.4200,3.0729 l 0.4200,4.2940 l 0.4200,-7.9987 l 0.4200,7.4950 l 0.4200,13.2432 l 0.4200,-6.2555 l 0.4200,-0.5301 l 0.4200,11.9853 l 0.4200,1.5156 l 0.4200,-13.4268 l 0.4200,-1.1162 l 0.4200,-7.8700 l 0.4200,2.4739 l 0.4200,16.0372 l 0.4200,10.8858 l 0.4200,-14.6176 l 0.4200,30.9542 l 0.4200,-17.1394 l 0.4200,5.0426 l 0.4200,4.8424 l 0.4200,24.2145 l 0.4200,-1.8452 l 0.4200,-22.5310 l 0.4200,2.8186 l 0.4200,27.5317 l 0.4200,-34.6075 l 0.4200,38.8502 l 0.4200,18.8411 l 0.4200,28.1255 l 0.4200,-7.6509 l 0.4200,11.2332 l 0.4200,-5.1748 l 0.4200,-29.2624 l 0.4200,-19.6727 l 0.4200,-37.3090 l 0.4200,13.9793 l 0.4200,-23.5420 l 0.4200,-12.2366 l 0.4200,3.9110 l 0.4200,-21.2673 l 0.4200,4.6363 l 0.4200,-10.0239 l 0.4200,-19.6551 l 0.4200,3.3967 l 0.4200,8.3299 l 0.4200,-8.1825 l 0.4200,-4.1282 l 0.4200,2.5208 l 0.4200,-2.8334 l 0.4200,1.8753 l 0.4200,4.3970 l 0.4200,1.8351 l 0.4200,2.2838 l 0.4200,1.2374 l 0.4200,-6.9658 l 0.4200,5.7405 l 0.4200,-1.0687 l 0.4200,-7.0236 l 0.4200,-2.2835 l 0.4200,5.3101 l 0.4200,-2.3567 l 0.4200,7.7313 l 0.4200,15.1648 l 0.4200,-10.0376 l 0.4200,-4.4973 l 0.4200,4.7302 l 0.4200,-0.8059 l 0.4200,15.7293 l 0.4200,1.7895 l 0.4200,31.7222 l 0.4200,-8.7779 l 0.4200,30.7301 l 0.4200,10.9292 l 0.4200,14.6454 l 0.4200,-41.6447 l 0.4200,-43.6369 l 0.4200,-5.7818 l 0.4200,-4.8200 l 0.4200,-0.8268 l 0.4200,2.6163 l 0.4200,-3.9168 l 0.4200,0.8878 l 0.4200,11.3653 l 0.4200,20.5828 l 0.4200,0.9924 l 0.4200,34.6241 l 0.4200,15.2900 l 0.4200,-23.7061 l 0.4200,-32.9684 l 0.4200,17.2091 l 0.4200,14.8036 l 0.4200,3.9486 l 0.4200,9.9659 l 0.4200,15.8904 l 0.4200,-27.1724 l 0.4200,-3.0728 l 0.4200,-9.1520 l 0.4200,-27.6875 l 0.4200,11.9753 l 0.4200,-4.2319 l 0.4200,25.7219 l 0.4200,24.1249 l 0.4200,-19.5426 l 0.4200,23.8661 l 0.4200,-26.0053 l 0.4200,-26.2568 l 0.4200,9.0456 l 0.4200,-18.5968 l 0.4200,7.9812 l 0.4200,8.5577 l 0.4200,-19.1992 l 0.4200,1.8800 l 0.4200,-16.3604 l 0.4200,-5.0750 l 0.4200,-0.4371 l 0.4200,3.0574 l 0.4200,4.2229 l 0.4200,-9.2749 l 0.4200,3.2653 l 0.4200,-2.7551 l 0.4200,3.9958 l 0.4200,4.9904 l 0.4200,7.4298 l 0.4200,-9.6726 l 0.4200,10.7248 l 0.4200,9.5015 l 0.4200,-1.2263 l 0.4200,27.4325 l 0.4200,-7.8765 l 0.4200,31.9578 l 0.4200,1.9639 l 0.4200,-24.9843 l 0.4200,11.4880 l 0.4200,-25.7872 l 0.4200,7.1512 l 0.4200,-22.1505 l 0.4200,10.6906 l 0.4200,-15.9475 l 0.4200,5.0637 l 0.4200,12.4753 l 0.4200,27.2886 l 0.4200,3.1941 l 0.4200,-5.3265 l 0.4200,-22.9131 l 0.4200,17.2477 l 0.4200,6.6462 l 0.4200,-7.2896 l 0.4200,-12.2483 l 0.4200,4.3785 l 0.4200,-4.9031 l 0.4200,-7.7054 l 0.4200,-8.6239 l 0.4200,9.7859 l 0.4200,-2.5248 l 0.4200,-8.5773 l 0.4200,2.8416 l 0.4200,21.9017 l 0.4200,-17.3519 l 0.4200,3.9538 l 0.4200,-8.7288 l 0.4200,-3.0404 l 0.4200,-2.8185 l 0.4200,9.0877 l 0.4200,-4.3393 l 0.4200,8.1240 l 0.4200,19.2365 l 0.4200,-20.5823 l 0.4200,-4.1119 l 0.4200,22.9573 l 0.4200,7.6064 l 0.4200,-7.6223 l 0.4200,-24.5033 l 0.4200,11.0207 l 0.4200,5.7221 l 0.4200,0.6830 l 0.4200,-19.4531 l 0.4200,0.2226 l 0.4200,-4.4010 l 0.4200,2.6919 l 0.4200,2.9316 l 0.4200,-3.2288 l 0.4200,5.4701 l 0.4200,19.8421 l 0.4200,-17.1634 l 0.4200,3.5961 l 0.4200,12.2530 l 0.4200,-3.9669 l 0.4200,2.2249 l 0.4200,-3.7599 l 0.4200,16.3568 l 0.4200,1.8901 l 0.4200,11.4550 l 0.4200,-2.0710 l 0.4200,-23.2037 l 0.4200,-2.5274 l 0.4200,13.2155 l 0.4200,7.8702 l 0.4200,-11.4183 l 0.4200,-3.6033 l 0.4200,-18.0169 l 0.4200,11.0274 l 0.4200,-11.0758 l 0.4200,-0.0644 l 0.4200,14.4333 l 0.4200,5.2830 l 0.4200,0.4767 l 0.4200,38.6368 l 0.4200,-7.4935 l 0.4200,-14.5107 l 0.4200,-0.1228 l 0.4200,6.1802 l 0.4200,-12.5893 l 0.4200,30.5216 l 0.4200,-6.8205 l 0.4200,-24.4307 l 0.4200,-20.2448 l 0.4200,-7.3182 l 0.4200,2.2866 l 0.4200,-14.1014 l 0.4200,-0.4419 l 0.4200,-0.0187 l 0.4200,9.3108 l 0.4200,5.1471 l 0.4200,11.0073 l 0.4200,19.6073 l 0.4200,9.4265 l 0.4200,-24.2404 l 0.4200,-12.9696 l 0.4200,0.7627 l 0.4200,4.6489 l 0.4200,5.2117 l 0.4200,4.0024 l 0.4200,-6.0065 l 0.4200,14.4972 l 0.4200,4.3568 l 0.4200,-24.3290 l 0.4200,18.5185 l 0.4200,-2.7059 l 0.4200,1.9674 l 0.4200,-7.7346 l 0.4200,-9.4952 l 0.4200,5.3799 l 0.4200,15.1503 l 0.4200,38.2456 l 0.4200,57.5295 l 0.4200,71.4968 l 0.4200,20.1749 l 0.4200,-89.3871 l 0.4200,-49.7433 l 0.4200,-3.3027 l 0.4200,12.6276 l 0.4200,51.5504 l 0.4200,-40.6021 l 0.4200,-5.5694 l 0.4200,24.7131 l 0.4200,-51.1904 l 0.4200,24.2105 l 0.4200,-13.8658 l 0.4200,-10.9707 l 0.4200,5.2677 l 0.4200,-26.2375 l 0.4200,-16.8294 l 0.4200,4.4554 l 0.4200,29.0447 l 0.4200,-11.2448 l 0.4200,21.2508 l 0.4200,0.5453 l 0.4200,3.3609 l 0.4200,-2.1841 l 0.4200,44.9311 l 0.4200,-8.1744 l 0.4200,-39.4044 l 0.4200,-5.4836 l 0.4200,-28.3874 l 0.4200,-33.8669 l 0.4200,7.8672 l 0.4200,-14.6965 l 0.4200,-15.1671 l 0.4200,0.5853 l 0.4200,-0.6225 l 0.4200,14.6210 l 0.4200,9.6214 l 0.4200,-26.8686 l 0.4200,-6.3292 l 0.4200,1.8058 l 0.4200,4.8078 l 0.4200,12.7369 l 0.4200,-29.4471 l 0.4200,-17.6193 l 0.4200,7.3650 l 0.4200,8.1064 l 0.4200,-19.1895 l 0.4200,4.7609 l 0.4200,12.7012 l 0.4200,-19.1308 l 0.4200,-1.1420 l 0.4200,10.7243 l 0.4200,5.5082 l 0.4200,3.7603 l 0.4200,21.1800 l 0.4200,-1.1821 l 0.4200,7.8759 l 0.4200,27.2613 l 0.4200,20.5774 l 0.4200,-28.4814 l 0.4200,3.4713 l 0.4200,-29.0804 l 0.4200,4.3933 l 0.4200,-5.4234 l 0.4200,4.2560 l 0.4200,-0.6296 l 0.4200,1.9610 l 0.4200,0.4934 l 0.4200,10.1158 l 0.4200,-18.5767 l 0.4200,22.6255 l 0.4200,27.0624 l 0.4200,-38.3394 l 0.4200,15.0746 l 0.4200,12.3621 l 0.4200,14.1515 l 0.4200,-5.0281 l 0.4200,35.9555 l 0.4200,-11.4284 l 0.4200,-21.1538 l 0.4200,-26.6701 l 0.4200,29.1333 l 0.4200,31.9009 l 0.4200,-17.1490 l 0.4200,-17.3500 l 0.4200,-22.8471 l 0.4200,4.0257 l 0.4200,4.3228 l 0.4200,-19.3052 l 0.4200,14.8437 l 0.4200,17.4374 l 0.4200,27.5269 l 0.4200,-6.0397 l 0.4200,22.9903 l 0.4200,41.8680 l 0.4200,16.0786 l 0.4200,-7.4415 l 0.4200,-20.5136 l 0.4200,43.2925 l 0.4200,-38.3315 l 0.4200,36.6167 l 0.4200,-7.4607 l 0.4200,16.2067 l 0.4200,-16.8502 l 0.4200,-43.6621 l 0.4200,25.9840 l 0.4200,-31.3229 l 0.4200,17.1707 l 0.4200,-14.7015 l 0.4200,-48.1633 l 0.4200,0.5177 l 0.4200,33.6156 l 0.4200,-12.6191 l 0.4200,-4.7738 l 0.4200,32.3418 l 0.4200,22.0114 l 0.4200,-3.8592 l 0.4200,-4.1113 l 0.4200,18.5881 l 0.4200,-41.2193 l 0.4200,-32.3729 l 0.4200,-31.0185 l 0.4200,9.1527 l 0.4200,-0.5374 l 0.4200,-26.9936 l 0.4200,24.6268 l 0.4200,-8.8846 l 0.4200,-20.6580 l 0.4200,4.9108 l 0.4200,16.0716 l 0.4200,-43.7548 l 0.4200,-5.0613 l 0.4200,-3.9288 l 0.4200,-3.3787 l 0.4200,1.3621 l 0.4200,24.2541 l 0.4200,-7.9356 l 0.4200,1.8609 l 0.4200,-28.2710 l 0.4200,5.8989 l 0.4200,6.5840 l 0.4200,-7.6728 l 0.4200,-9.0993 l 0.4200,-4.6004 l 0.4200,2.0653 l 0.4200,5.4723 l 0.4200,15.4957 l 0.4200,3.2774 l 0.4200,1.4849 l 0.4200,-13.7770 l 0.4200,-4.8374 l 0.4200,7.2354 l 0.4200,-8.7155 l 0.4200,9.5005 l 0.4200,21.7379 l 0.4200,-17.5782 l 0.4200,25.1154 l 0.4200,-3.9676 l 0.4200,6.7763 l 0.4200,-16.3818 l 0.4200,-15.9375 l 0.4200,2.8675 l 0.4200,4.6195 l 0.4200,-9.4586 l 0.4200,-2.4864 l 0.4200,1.8392 l 0.4200,12.6988 l 0.4200,2.1919 l 0.4200,5.6483 l 0.4200,-1.4462 l 0.4200,-0.8563 l 0.4200,19.2093 l 0.4200,10.3123 l 0.4200,-13.7944 l 0.4200,17.6484 l 0.4200,11.3756 l 0.4200,0.3183 l 0.4200,-5.9979 l 0.4200,-1.1040 l 0.4200,-22.6350 l 0.4200,19.4374 l 0.4200,0.4851 l 0.4200,16.1539 l 0.4200,-18.6886 l 0.4200,18.2818 l 0.4200,-0.9561 l 0.4200,6.5956 l 0.4200,-11.9044 l 0.4200,3.9781 l 0.4200,-25.3649 l 0.4200,-11.2522 l 0.4200,2.1855 l 0.4200,-6.4202 l 0.4200,3.7625 l 0.4200,-0.5403 l 0.4200,-3.5402 l 0.4200,7.2417 l 0.4200,-7.6536 l 0.4200,-0.4036 l 0.4200,-4.2162 l 0.4200,5.3111 l 0.4200,18.6281 l 0.4200,15.4871 l 0.4200,3.1908 l 0.4200,3.3082 l 0.4200,-6.0962 l 0.4200,6.2025 l 0.4200,-11.0625 l 0.4200,-4.4810 l 0.4200,3.6620 l 0.4200,-24.0681 l 0.4200,69.0200 l 0.4200,31.4318 l 0.4200,-37.1733 l 0.4200,-56.9580 l 0.4200,-1.0422 l 0.4200,13.9610 l 0.4200,-9.5150 l 0.4200,2.8810 l 0.4200,-26.9194 l 0.4200,-3.4514 l 0.4200,-10.3678 l 0.4200,2.9259 l 0.4200,-6.9174 l 0.4200,5.0363 l 0.4200,-1.5500 l 0.4200,5.6981 l 0.4200,-5.2480 l 0.4200,9.7630 l 0.4200,-6.0648 l 0.4200,8.4630 l 0.4200,1.6062 l 0.4200,4.4502 l 0.4200,-0.9801 l 0.4200,-0.8664 l 0.4200,4.5015 l 0.4200,13.5359 l 0.4200,-4.7769 l 0.4200,1.1912 l 0.4200,-14.3079 l 0.4200,4.1069 l 0.4200,1.1423 l 0.4200,7.1159 l 0.4200,-7.2916 l 0.4200,3.5015 l 0.4200,-3.4736 l 0.4200,12.0359 l 0.4200,-2.3920 l 0.4200,-2.5810 l 0.4200,4.2353 l 0.4200,2.2703 l 0.4200,-2.4197 l 0.4200,11.0312 l 0.4200,3.0979 l 0.4200,3.4927 l 0.4200,-9.2509 l 0.4200,4.6938 l 0.4200,4.9883 l 0.4200,0.4252 l 0.4200,-7.3495 l 0.4200,-4.5596 l 0.4200,1.3665 l 0.4200,4.9981 l 0.4200,46.3259 l 0.4200,-29.4130 l 0.4200,28.0254 l 0.4200,-0.7468 l 0.4200,-20.4003 l 0.4200,6.8390 l 0.4200,-0.9271 l 0.4200,-1.3496 l 0.4200,-20.7357 l 0.4200,-11.1420 l 0.4200,11.6593 l 0.4200,15.8601 l 0.4200,-12.6523 l 0.4200,-9.3111 l 0.4200,17.9643 l 0.4200,-15.2620 l 0.4200,6.7657 l 0.4200,9.0853 l 0.4200,-8.4189 l 0.4200,-0.6279 l 0.4200,6.1043 l 0.4200,-8.7661 l 0.4200,23.4077 l 0.4200,-3.4890 l 0.4200,5.0267 l 0.4200,-1.4781 l 0.4200,4.7078 l 0.4200,-12.6100 l 0.4200,-4.3031 l 0.4200,2.3015 l 0.4200,-0.3314 l 0.4200,-9.1115 l 0.4200,7.2112 l 0.4200,2.7175 l 0.4200,4.9696 l 0.4200,4.9148 l 0.4200,-0.8316 l 0.4200,11.6643 l 0.4200,10.5188 l 0.4200,6.2034 l 0.4200,0.7354 l 0.4200,-43.4512 l 0.4200,-6.1831 l 0.4200,-20.0215 l 0.4200,-2.1930 l 0.4200,3.8784 l 0.4200,1.1923 l 0.4200,-12.8633 l 0.4200,4.7433 l 0.4200,-7.3561 l 0.4200,6.3193 l 0.4200,-12.4674 l 0.4200,-1.8849 l 0.4200,0.6900 l 0.4200,-5.1890 l 0.4200,12.3885 l 0.4200,-0.8447 l 0.4200,6.7497 l 0.4200,7.8586 l 0.4200,0.2009 l 0.4200,-9.6195 l 0.4200,-4.6099 l 0.4200,-22.3988 l 0.4200,-1.0888 l 0.4200,-8.1985 l 0.4200,5.6394 l 0.4200,-9.1799 l 0.4200,19.2172 l 0.4200,-4.7816 l 0.4200,6.1463 l 0.4200,-1.2002 l 0.4200,-4.1392 l 0.4200,7.4014 l 0.4200,5.7557 l 0.4200,-0.2734 l 0.4200,-2.0050 l 0.4200,17.6582 l 0.4200,1.5996 l 0.4200,9.7794 l 0.4200,-14.9525 l 0.4200,-8.6975 l 0.4200,3.5190 l 0.4200,-4.7291 l 0.4200,8.6145 l 0.4200,1.4228 l 0.4200,-3.7062 l 0.4200,5.6961 l 0.4200,-2.0858 l 0.4200,7.0014 l 0.4200,-2.1957 l 0.4200,7.9584 l 0.4200,-5.4446 l 0.4200,6.1976 l 0.4200,-11.3167 l 0.4200,-13.0464 l 0.4200,3.6509 l 0.4200,3.4007 l 0.4200,12.6855 l 0.4200,2.4694 l 0.4200,0.3494 l 0.4200,-0.1282 l 0.4200,-12.3739 l 0.4200,5.6866 l 0.4200,0.7400 l 0.4200,-0.0597 l 0.4200,-9.2885 l 0.4200,-4.6528 l 0.4200,-7.6175 l 0.4200,-4.9800 l 0.4200,-6.6556 l 0.4200,4.6451 l 0.4200,-0.4685 l 0.4200,-8.5422 l 0.4200,5.2843 l 0.4200,2.0838 l 0.4200,-0.0155 l 0.4200,0.8896 l 0.4200,7.5076 l 0.4200,-22.7901 l 0.4200,14.7119 l 0.4200,1.5715 l 0.4200,8.6619 l 0.4200,7.3914 l 0.4200,5.8997 l 0.4200,-0.0251 l 0.4200,-4.4528 l 0.4200,1.1901 l 0.4200,7.9228 l 0.4200,-14.1749 l 0.4200,5.3055 l 0.4200,4.0760 l 0.4200,5.1856 l 0.4200,24.3059 l 0.4200,-3.5751 l 0.4200,2.2956 l 0.4200,1.7428 l 0.4200,1.9942 l 0.4200,-13.7291 l 0.4200,-1.1749 l 0.4200,-4.6847 l 0.4200,5.1796 l 0.4200,3.6523 l 0.4200,-0.5799 l 0.4200,6.2144 l 0.4200,-3.4320 l 0.4200,1.9679 l 0.4200,-1.0042 l 0.4200,3.0203 l 0.4200,7.1928 l 0.4200,12.6802 l 0.4200,-17.2257 l 0.4200,5.6524 l 0.4200,2.9347 l 0.4200,-14.4531 l 0.4200,6.1783 l 0.4200,-19.8808 l 0.4200,-9.7515 l 0.4200,2.5916 l 0.4200,0.3404 l 0.4200,4.9015 l 0.4200,-2.1385 l 0.4200,-0.9072 l 0.4200,3.6422 l 0.4200,-0.0346 l 0.4200,-6.3900 l 0.4200,1.4690 l 0.4200,3.2156 l 0.4200,-0.9463 l 0.4200,5.2281 l 0.4200,3.5866 l 0.4200,-8.0168 l 0.4200,2.6113 l 0.4200,34.6472 l 0.4200,-7.9395 l 0.4200,-12.6618 l 0.4200,-8.8247 l 0.4200,-2.3622 l 0.4200,-3.5817 l 0.4200,-6.9583 l 0.4200,1.0248 l 0.4200,3.6011 l 0.4200,1.9866 l 0.4200,-12.7774 l 0.4200,-4.8469 l 0.4200,4.3650 l 0.4200,6.8540 l 0.4200,-1.5818 l 0.4200,1.0593 l 0.4200,2.9716 "/></g><g stroke-linejoin="miter" stroke-opacity="1.0" fill-opacity="0.0" stroke="rgb(93,165,218)" stroke-width="0.48241815132442184" fill="rgb(0,0,0)" stroke-linecap="butt" stroke-miterlimit="10.0"><path d="M 108.3916,102.4826 l 0.4200,-0.3257 l 0.4200,1.8668 l 0.4200,-1.3245 l 0.4200,-1.3276 l 0.4200,-0.8287 l 0.4200,0.7118 l 0.4200,-0.7153 l 0.4200,0.1607 l 0.4200,-0.0422 l 0.4200,-1.4105 l 0.4200,-0.6819 l 0.4200,-0.9690 l 0.4200,0.0661 l 0.4200,-1.8856 l 0.4200,-0.3514 l 0.4200,-0.1012 l 0.4200,0.6463 l 0.4200,-0.3097 l 0.4200,-0.6377 l 0.4200,-0.1337 l 0.4200,-0.1958 l 0.4200,0.3755 l 0.4200,0.6618 l 0.4200,-0.2769 l 0.4200,-0.0212 l 0.4200,0.6498 l 0.4200,0.0417 l 0.4200,0.1173 l 0.4200,-1.7333 l 0.4200,-0.1348 l 0.4200,0.3220 l 0.4200,0.9455 l 0.4200,0.6579 l 0.4200,-0.4737 l 0.4200,0.6242 l 0.4200,0.2645 l 0.4200,-0.3124 l 0.4200,0.8586 l 0.4200,2.2031 l 0.4200,0.5663 l 0.4200,0.9492 l 0.4200,-0.4834 l 0.4200,0.9312 l 0.4200,-1.1850 l 0.4200,-0.4955 l 0.4200,0.6776 l 0.4200,2.4273 l 0.4200,-0.3363 l 0.4200,-0.2156 l 0.4200,0.5394 l 0.4200,-0.5403 l 0.4200,-1.1129 l 0.4200,-0.0987 l 0.4200,0.0696 l 0.4200,-1.3822 l 0.4200,-0.9894 l 0.4200,-0.3592 l 0.4200,0.5856 l 0.4200,-0.3131 l 0.4200,-0.7458 l 0.4200,-0.5268 l 0.4200,-1.6841 l 0.4200,0.3719 l 0.4200,1.1602 l 0.4200,0.7855 l 0.4200,0.4701 l 0.4200,0.4896 l 0.4200,-0.4258 l 0.4200,0.6872 l 0.4200,0.9711 l 0.4200,-1.0900 l 0.4200,0.1847 l 0.4200,1.4079 l 0.4200,-0.9550 l 0.4200,1.3378 l 0.4200,1.8959 l 0.4200,-0.0177 l 0.4200,-3.0992 l 0.4200,-0.8327 l 0.4200,-0.5101 l 0.4200,1.1287 l 0.4200,-1.9343 l 0.4200,-0.8930 l 0.4200,-0.8627 l 0.4200,0.0855 l 0.4200,-0.7427 l 0.4200,0.7967 l 0.4200,-0.3815 l 0.4200,-0.5446 l 0.4200,-0.0935 l 0.4200,-0.7163 l 0.4200,0.8228 l 0.4200,0.6646 l 0.4200,-0.3284 l 0.4200,-0.4234 l 0.4200,0.5143 l 0.4200,-0.5265 l 0.4200,2.0503 l 0.4200,-1.8680 l 0.4200,-0.0031 l 0.4200,0.4490 l 0.4200,-1.0857 l 0.4200,-0.6041 l 0.4200,-0.5124 l 0.4200,0.6523 l 0.4200,0.4044 l 0.4200,0.6376 l 0.4200,-1.0888 l 0.4200,-0.6203 l 0.4200,0.2940 l 0.4200,0.0841 l 0.4200,-0.2585 l 0.4200,0.2229 l 0.4200,0.5058 l 0.4200,0.5731 l 0.4200,0.2926 l 0.4200,0.7388 l 0.4200,-1.5439 l 0.4200,-0.1606 l 0.4200,0.5724 l 0.4200,1.7725 l 0.4200,0.6471 l 0.4200,0.1065 l 0.4200,-0.8327 l 0.4200,0.5526 l 0.4200,-2.3311 l 0.4200,0.1910 l 0.4200,-0.6042 l 0.4200,-0.6737 l 0.4200,-0.3197 l 0.4200,-0.5866 l 0.4200,0.1608 l 0.4200,0.1361 l 0.4200,-0.4711 l 0.4200,1.4192 l 0.4200,0.1527 l 0.4200,0.4741 l 0.4200,-0.7877 l 0.4200,0.1385 l 0.4200,0.0544 l 0.4200,-0.2329 l 0.4200,1.9650 l 0.4200,-1.4838 l 0.4200,-0.6501 l 0.4200,0.3059 l 0.4200,0.6785 l 0.4200,-0.3044 l 0.4200,0.0204 l 0.4200,1.4152 l 0.4200,3.1931 l 0.4200,0.7981 l 0.4200,-0.8170 l 0.4200,1.5931 l 0.4200,-1.5671 l 0.4200,1.0401 l 0.4200,3.4691 l 0.4200,-1.0549 l 0.4200,0.3716 l 0.4200,-1.7442 l 0.4200,-1.8587 l 0.4200,-0.1422 l 0.4200,-1.5287 l 0.4200,0.1335 l 0.4200,-0.7594 l 0.4200,-0.6089 l 0.4200,-0.0725 l 0.4200,1.0577 l 0.4200,-0.7916 l 0.4200,0.3789 l 0.4200,-0.8115 l 0.4200,0.2967 l 0.4200,0.0927 l 0.4200,-0.6287 l 0.4200,-0.3085 l 0.4200,1.1872 l 0.4200,-2.1309 l 0.4200,0.1144 l 0.4200,-0.1492 l 0.4200,0.0249 l 0.4200,0.1715 l 0.4200,0.8506 l 0.4200,0.0534 l 0.4200,1.8267 l 0.4200,0.5037 l 0.4200,-1.3151 l 0.4200,-0.9586 l 0.4200,1.0032 l 0.4200,-0.7905 l 0.4200,0.5304 l 0.4200,0.8109 l 0.4200,-0.5534 l 0.4200,1.1268 l 0.4200,0.3678 l 0.4200,-0.5910 l 0.4200,-1.0660 l 0.4200,-0.9323 l 0.4200,-0.3175 l 0.4200,0.2666 l 0.4200,1.9510 l 0.4200,1.6748 l 0.4200,-0.4671 l 0.4200,-1.5059 l 0.4200,3.1927 l 0.4200,1.4735 l 0.4200,-1.1291 l 0.4200,-0.9075 l 0.4200,-1.4471 l 0.4200,-0.1094 l 0.4200,-0.4641 l 0.4200,-0.5080 l 0.4200,0.4185 l 0.4200,-0.1616 l 0.4200,1.2848 l 0.4200,-0.3899 l 0.4200,-0.6084 l 0.4200,-0.3471 l 0.4200,0.1133 l 0.4200,0.2891 l 0.4200,-0.1847 l 0.4200,1.4162 l 0.4200,-0.7390 l 0.4200,0.2911 l 0.4200,-0.1363 l 0.4200,-1.3248 l 0.4200,0.0331 l 0.4200,0.7842 l 0.4200,1.4686 l 0.4200,-0.4676 l 0.4200,-0.4768 l 0.4200,1.0450 l 0.4200,-1.1046 l 0.4200,-0.2567 l 0.4200,-0.5329 l 0.4200,-0.7844 l 0.4200,0.2589 l 0.4200,-0.6930 l 0.4200,-0.1735 l 0.4200,-0.0100 l 0.4200,0.1522 l 0.4200,-0.1817 l 0.4200,-0.8577 l 0.4200,-0.5763 l 0.4200,-0.0345 l 0.4200,0.1387 l 0.4200,0.6218 l 0.4200,1.1427 l 0.4200,-0.3663 l 0.4200,-0.0258 l 0.4200,-0.2220 l 0.4200,-1.0309 l 0.4200,-0.0844 l 0.4200,-0.1518 l 0.4200,0.1221 l 0.4200,1.0494 l 0.4200,-0.6210 l 0.4200,0.2743 l 0.4200,-0.1815 l 0.4200,0.1548 l 0.4200,-0.8779 l 0.4200,0.0074 l 0.4200,-0.6994 l 0.4200,0.6836 l 0.4200,1.1401 l 0.4200,-0.5837 l 0.4200,0.7090 l 0.4200,-0.1191 l 0.4200,-0.6108 l 0.4200,0.3854 l 0.4200,-0.5168 l 0.4200,1.8492 l 0.4200,-1.4080 l 0.4200,0.4425 l 0.4200,-0.6375 l 0.4200,-0.1561 l 0.4200,0.0294 l 0.4200,0.8141 l 0.4200,0.0538 l 0.4200,0.7631 l 0.4200,0.0839 l 0.4200,3.0582 l 0.4200,0.4965 l 0.4200,-0.9724 l 0.4200,1.5132 l 0.4200,0.0726 l 0.4200,0.8946 l 0.4200,-1.6104 l 0.4200,-0.3217 l 0.4200,0.3222 l 0.4200,-0.9015 l 0.4200,-0.5512 l 0.4200,0.0957 l 0.4200,-1.1614 l 0.4200,-0.6400 l 0.4200,-0.2695 l 0.4200,-0.3381 l 0.4200,0.3883 l 0.4200,-0.6081 l 0.4200,-0.0573 l 0.4200,0.0889 l 0.4200,0.3439 l 0.4200,-0.3926 l 0.4200,0.1765 l 0.4200,0.2094 l 0.4200,0.3195 l 0.4200,-0.6445 l 0.4200,0.5485 l 0.4200,1.0563 l 0.4200,-0.4465 l 0.4200,-0.0375 l 0.4200,0.9689 l 0.4200,0.1900 l 0.4200,-1.0079 l 0.4200,-0.0977 l 0.4200,-0.6248 l 0.4200,0.1646 l 0.4200,1.2733 l 0.4200,0.9357 l 0.4200,-1.0624 l 0.4200,2.4820 l 0.4200,-1.1789 l 0.4200,0.4593 l 0.4200,0.4898 l 0.4200,2.0355 l 0.4200,0.0670 l 0.4200,-1.5587 l 0.4200,0.3096 l 0.4200,2.3120 l 0.4200,-2.4777 l 0.4200,3.1445 l 0.4200,1.7495 l 0.4200,2.4924 l 0.4200,-0.1878 l 0.4200,1.2426 l 0.4200,0.0201 l 0.4200,-1.8379 l 0.4200,-1.2839 l 0.4200,-2.7887 l 0.4200,1.1462 l 0.4200,-1.7349 l 0.4200,-0.9599 l 0.4200,0.2947 l 0.4200,-1.6708 l 0.4200,0.2844 l 0.4200,-0.8350 l 0.4200,-1.6297 l 0.4200,0.1070 l 0.4200,0.5020 l 0.4200,-0.7507 l 0.4200,-0.4644 l 0.4200,0.0387 l 0.4200,-0.3682 l 0.4200,-0.0111 l 0.4200,0.1935 l 0.4200,0.0117 l 0.4200,0.0544 l 0.4200,-0.0185 l 0.4200,-0.6618 l 0.4200,0.3138 l 0.4200,-0.1979 l 0.4200,-0.6744 l 0.4200,-0.3241 l 0.4200,0.2652 l 0.4200,-0.3170 l 0.4200,0.4701 l 0.4200,1.0989 l 0.4200,-0.8461 l 0.4200,-0.4569 l 0.4200,0.2663 l 0.4200,-0.1508 l 0.4200,1.1635 l 0.4200,0.1227 l 0.4200,2.5082 l 0.4200,-0.5892 l 0.4200,2.4813 l 0.4200,1.0012 l 0.4200,1.3172 l 0.4200,-2.8968 l 0.4200,-3.4033 l 0.4200,-0.5755 l 0.4200,-0.4672 l 0.4200,-0.1634 l 0.4200,0.1132 l 0.4200,-0.3931 l 0.4200,-0.0322 l 0.4200,0.8129 l 0.4200,1.6099 l 0.4200,0.1310 l 0.4200,2.7901 l 0.4200,1.3784 l 0.4200,-1.6325 l 0.4200,-2.5256 l 0.4200,1.3263 l 0.4200,1.2683 l 0.4200,0.4497 l 0.4200,0.9260 l 0.4200,1.4295 l 0.4200,-1.8977 l 0.4200,-0.1546 l 0.4200,-0.6224 l 0.4200,-2.1502 l 0.4200,0.8930 l 0.4200,-0.3004 l 0.4200,2.0571 l 0.4200,2.0610 l 0.4200,-1.3339 l 0.4200,1.9892 l 0.4200,-1.8340 l 0.4200,-2.0337 l 0.4200,0.6899 l 0.4200,-1.4313 l 0.4200,0.5831 l 0.4200,0.6993 l 0.4200,-1.4865 l 0.4200,0.0859 l 0.4200,-1.3300 l 0.4200,-0.5104 l 0.4200,-0.1474 l 0.4200,0.1329 l 0.4200,0.2417 l 0.4200,-0.8117 l 0.4200,0.1343 l 0.4200,-0.3168 l 0.4200,0.2020 l 0.4200,0.3046 l 0.4200,0.5209 l 0.4200,-0.8121 l 0.4200,0.7571 l 0.4200,0.7291 l 0.4200,-0.0945 l 0.4200,2.1775 l 0.4200,-0.5077 l 0.4200,2.5871 l 0.4200,0.3428 l 0.4200,-1.7743 l 0.4200,0.9686 l 0.4200,-1.9071 l 0.4200,0.5665 l 0.4200,-1.7016 l 0.4200,0.7994 l 0.4200,-1.2417 l 0.4200,0.3400 l 0.4200,0.9830 l 0.4200,2.2264 l 0.4200,0.4126 l 0.4200,-0.2824 l 0.4200,-1.7178 l 0.4200,1.3730 l 0.4200,0.6487 l 0.4200,-0.4528 l 0.4200,-0.8987 l 0.4200,0.3753 l 0.4200,-0.3245 l 0.4200,-0.5815 l 0.4200,-0.6875 l 0.4200,0.7507 l 0.4200,-0.1676 l 0.4200,-0.6799 l 0.4200,0.1916 l 0.4200,1.7443 l 0.4200,-1.2838 l 0.4200,0.2932 l 0.4200,-0.6729 l 0.4200,-0.2694 l 0.4200,-0.2536 l 0.4200,0.6865 l 0.4200,-0.3327 l 0.4200,0.6261 l 0.4200,1.5660 l 0.4200,-1.5302 l 0.4200,-0.3551 l 0.4200,1.8225 l 0.4200,0.7193 l 0.4200,-0.4898 l 0.4200,-1.8947 l 0.4200,0.8260 l 0.4200,0.5025 l 0.4200,0.1124 l 0.4200,-1.5055 l 0.4200,-0.0359 l 0.4200,-0.3723 l 0.4200,0.1708 l 0.4200,0.2113 l 0.4200,-0.2689 l 0.4200,0.4039 l 0.4200,1.5895 l 0.4200,-1.2741 l 0.4200,0.2607 l 0.4200,1.0010 l 0.4200,-0.2364 l 0.4200,0.2168 l 0.4200,-0.2436 l 0.4200,1.3398 l 0.4200,0.2716 l 0.4200,1.0149 l 0.4200,-0.0052 l 0.4200,-1.6992 l 0.4200,-0.1873 l 0.4200,1.0959 l 0.4200,0.7393 l 0.4200,-0.7759 l 0.4200,-0.2277 l 0.4200,-1.3837 l 0.4200,0.8505 l 0.4200,-0.8290 l 0.4200,-0.0242 l 0.4200,1.1508 l 0.4200,0.4981 l 0.4200,0.1175 l 0.4200,3.1556 l 0.4200,-0.3465 l 0.4200,-0.9650 l 0.4200,0.1000 l 0.4200,0.6207 l 0.4200,-0.8407 l 0.4200,2.5205 l 0.4200,-0.2917 l 0.4200,-1.7556 l 0.4200,-1.5610 l 0.4200,-0.5915 l 0.4200,0.1694 l 0.4200,-1.1122 l 0.4200,-0.0961 l 0.4200,-0.0484 l 0.4200,0.6916 l 0.4200,0.4116 l 0.4200,0.8951 l 0.4200,1.6349 l 0.4200,0.8981 l 0.4200,-1.7622 l 0.4200,-1.0139 l 0.4200,0.0553 l 0.4200,0.3912 l 0.4200,0.4605 l 0.4200,0.3840 l 0.4200,-0.4046 l 0.4200,1.1974 l 0.4200,0.4703 l 0.4200,-1.8217 l 0.4200,1.4675 l 0.4200,-0.0927 l 0.4200,0.2368 l 0.4200,-0.5252 l 0.4200,-0.7118 l 0.4200,0.4404 l 0.4200,1.2678 l 0.4200,3.1763 l 0.4200,4.7866 l 0.4200,5.9276 l 0.4200,2.0005 l 0.4200,-5.6643 l 0.4200,-3.5244 l 0.4200,-0.0663 l 0.4200,1.2588 l 0.4200,4.4285 l 0.4200,-2.6722 l 0.4200,-0.1616 l 0.4200,2.2808 l 0.4200,-3.6470 l 0.4200,2.0748 l 0.4200,-0.7699 l 0.4200,-0.6490 l 0.4200,0.6144 l 0.4200,-1.8663 l 0.4200,-1.2556 l 0.4200,0.3996 l 0.4200,2.4141 l 0.4200,-0.6616 l 0.4200,1.8355 l 0.4200,0.3058 l 0.4200,0.4995 l 0.4200,0.0705 l 0.4200,3.8267 l 0.4200,-0.1948 l 0.4200,-2.7950 l 0.4200,-0.2901 l 0.4200,-2.0908 l 0.4200,-2.6544 l 0.4200,0.5499 l 0.4200,-1.1600 l 0.4200,-1.2671 l 0.4200,-0.0785 l 0.4200,-0.1605 l 0.4200,1.0333 l 0.4200,0.7162 l 0.4200,-2.1463 l 0.4200,-0.6378 l 0.4200,-0.0074 l 0.4200,0.2402 l 0.4200,0.8880 l 0.4200,-2.3959 l 0.4200,-1.5702 l 0.4200,0.3263 l 0.4200,0.4163 l 0.4200,-1.6886 l 0.4200,0.1153 l 0.4200,0.7535 l 0.4200,-1.6906 l 0.4200,-0.3472 l 0.4200,0.5730 l 0.4200,0.2142 l 0.4200,0.0987 l 0.4200,1.4962 l 0.4200,-0.1823 l 0.4200,0.5172 l 0.4200,2.1076 l 0.4200,1.6836 l 0.4200,-2.1495 l 0.4200,0.2338 l 0.4200,-2.3212 l 0.4200,0.2108 l 0.4200,-0.5173 l 0.4200,0.2255 l 0.4200,-0.1372 l 0.4200,0.0621 l 0.4200,-0.0445 l 0.4200,0.7257 l 0.4200,-1.5205 l 0.4200,1.6713 l 0.4200,2.1619 l 0.4200,-2.9552 l 0.4200,1.0769 l 0.4200,0.9923 l 0.4200,1.1733 l 0.4200,-0.3023 l 0.4200,2.9110 l 0.4200,-0.6814 l 0.4200,-1.5284 l 0.4200,-2.0855 l 0.4200,2.2643 l 0.4200,2.6608 l 0.4200,-1.1248 l 0.4200,-1.2664 l 0.4200,-1.7840 l 0.4200,0.2710 l 0.4200,0.3520 l 0.4200,-1.5219 l 0.4200,1.1026 l 0.4200,1.4190 l 0.4200,2.2892 l 0.4200,-0.2805 l 0.4200,1.9583 l 0.4200,3.5330 l 0.4200,1.5965 l 0.4200,-0.1359 l 0.4200,-1.1522 l 0.4200,3.7140 l 0.4200,-2.4571 l 0.4200,3.2036 l 0.4200,-0.1011 l 0.4200,1.7095 l 0.4200,-0.7918 l 0.4200,-2.9818 l 0.4200,2.3064 l 0.4200,-2.0905 l 0.4200,1.5933 l 0.4200,-0.8327 l 0.4200,-3.6150 l 0.4200,0.0655 l 0.4200,2.7777 l 0.4200,-0.7484 l 0.4200,-0.2352 l 0.4200,2.7324 l 0.4200,2.0748 l 0.4200,0.0678 l 0.4200,-0.0022 l 0.4200,1.7920 l 0.4200,-2.8840 l 0.4200,-2.4353 l 0.4200,-2.4178 l 0.4200,0.6833 l 0.4200,-0.0057 l 0.4200,-2.1180 l 0.4200,1.8432 l 0.4200,-0.6605 l 0.4200,-1.6626 l 0.4200,0.2784 l 0.4200,1.1980 l 0.4200,-3.4712 l 0.4200,-0.5859 l 0.4200,-0.5002 l 0.4200,-0.4700 l 0.4200,-0.1135 l 0.4200,1.6759 l 0.4200,-0.7328 l 0.4200,-0.0095 l 0.4200,-2.3752 l 0.4200,0.2107 l 0.4200,0.2907 l 0.4200,-0.8003 l 0.4200,-0.9405 l 0.4200,-0.6168 l 0.4200,-0.1142 l 0.4200,0.1588 l 0.4200,0.9692 l 0.4200,0.0793 l 0.4200,-0.0551 l 0.4200,-1.2630 l 0.4200,-0.6048 l 0.4200,0.3333 l 0.4200,-0.8953 l 0.4200,0.5080 l 0.4200,1.5284 l 0.4200,-1.5097 l 0.4200,1.8034 l 0.4200,-0.3856 l 0.4200,0.4304 l 0.4200,-1.3865 l 0.4200,-1.4328 l 0.4200,0.0137 l 0.4200,0.1811 l 0.4200,-0.9211 l 0.4200,-0.4108 l 0.4200,-0.0698 l 0.4200,0.8058 l 0.4200,0.0299 l 0.4200,0.3043 l 0.4200,-0.2381 l 0.4200,-0.2035 l 0.4200,1.3999 l 0.4200,0.7758 l 0.4200,-1.1129 l 0.4200,1.3152 l 0.4200,0.9010 l 0.4200,0.0593 l 0.4200,-0.4399 l 0.4200,-0.0827 l 0.4200,-1.7931 l 0.4200,1.4475 l 0.4200,0.0514 l 0.4200,1.2782 l 0.4200,-1.4093 l 0.4200,1.4192 l 0.4200,-0.0088 l 0.4200,0.5686 l 0.4200,-0.8605 l 0.4200,0.3325 l 0.4200,-1.9715 l 0.4200,-0.9855 l 0.4200,0.0677 l 0.4200,-0.5929 l 0.4200,0.1859 l 0.4200,-0.1302 l 0.4200,-0.3766 l 0.4200,0.4671 l 0.4200,-0.6809 l 0.4200,-0.1485 l 0.4200,-0.4446 l 0.4200,0.2948 l 0.4200,1.3927 l 0.4200,1.2285 l 0.4200,0.2924 l 0.4200,0.2989 l 0.4200,-0.4318 l 0.4200,0.5091 l 0.4200,-0.8233 l 0.4200,-0.3653 l 0.4200,0.2754 l 0.4200,-1.9175 l 0.4200,5.4100 l 0.4200,2.6898 l 0.4200,-2.5836 l 0.4200,-4.4359 l 0.4200,-0.2436 l 0.4200,1.0442 l 0.4200,-0.7539 l 0.4200,0.1635 l 0.4200,-2.1880 l 0.4200,-0.4532 l 0.4200,-0.9799 l 0.4200,0.0300 l 0.4200,-0.7218 l 0.4200,0.1885 l 0.4200,-0.2993 l 0.4200,0.2626 l 0.4200,-0.5755 l 0.4200,0.5846 l 0.4200,-0.6175 l 0.4200,0.4963 l 0.4200,0.0025 l 0.4200,0.2267 l 0.4200,-0.1861 l 0.4200,-0.1883 l 0.4200,0.2381 l 0.4200,0.9864 l 0.4200,-0.4144 l 0.4200,0.0176 l 0.4200,-1.2091 l 0.4200,0.1881 l 0.4200,-0.0054 l 0.4200,0.4731 l 0.4200,-0.6437 l 0.4200,0.1707 l 0.4200,-0.3575 l 0.4200,0.8604 l 0.4200,-0.2253 l 0.4200,-0.2710 l 0.4200,0.2640 l 0.4200,0.1333 l 0.4200,-0.2359 l 0.4200,0.8228 l 0.4200,0.2472 l 0.4200,0.2786 l 0.4200,-0.7196 l 0.4200,0.3371 l 0.4200,0.3960 l 0.4200,0.0514 l 0.4200,-0.5695 l 0.4200,-0.3878 l 0.4200,0.0718 l 0.4200,0.3758 l 0.4200,3.6903 l 0.4200,-2.1113 l 0.4200,2.2377 l 0.4200,0.1150 l 0.4200,-1.4442 l 0.4200,0.5950 l 0.4200,0.0372 l 0.4200,-0.0086 l 0.4200,-1.5579 l 0.4200,-0.9063 l 0.4200,0.8910 l 0.4200,1.3057 l 0.4200,-0.9084 l 0.4200,-0.7335 l 0.4200,1.4185 l 0.4200,-1.1297 l 0.4200,0.5231 l 0.4200,0.7678 l 0.4200,-0.5938 l 0.4200,-0.0305 l 0.4200,0.5174 l 0.4200,-0.6381 l 0.4200,1.8786 l 0.4200,-0.1392 l 0.4200,0.4885 l 0.4200,0.0003 l 0.4200,0.4773 l 0.4200,-0.8732 l 0.4200,-0.2875 l 0.4200,0.2360 l 0.4200,0.0445 l 0.4200,-0.6631 l 0.4200,0.5945 l 0.4200,0.2872 l 0.4200,0.4700 l 0.4200,0.4857 l 0.4200,0.0448 l 0.4200,1.0269 l 0.4200,0.9826 l 0.4200,0.6687 l 0.4200,0.2605 l 0.4200,-3.2111 l 0.4200,-0.5185 l 0.4200,-1.5850 l 0.4200,-0.2462 l 0.4200,0.2437 l 0.4200,0.0535 l 0.4200,-1.0569 l 0.4200,0.2752 l 0.4200,-0.6452 l 0.4200,0.3943 l 0.4200,-1.0506 l 0.4200,-0.2704 l 0.4200,-0.0718 l 0.4200,-0.5266 l 0.4200,0.8226 l 0.4200,-0.1519 l 0.4200,0.4361 l 0.4200,0.5602 l 0.4200,-0.0173 l 0.4200,-0.8097 l 0.4200,-0.4530 l 0.4200,-1.8711 l 0.4200,-0.2588 l 0.4200,-0.8130 l 0.4200,0.2272 l 0.4200,-0.8991 l 0.4200,1.2592 l 0.4200,-0.5144 l 0.4200,0.3166 l 0.4200,-0.2328 l 0.4200,-0.4743 l 0.4200,0.4220 l 0.4200,0.3314 l 0.4200,-0.1271 l 0.4200,-0.2718 l 0.4200,1.2907 l 0.4200,0.0943 l 0.4200,0.7350 l 0.4200,-1.1912 l 0.4200,-0.7803 l 0.4200,0.1726 l 0.4200,-0.4581 l 0.4200,0.5817 l 0.4200,0.0559 l 0.4200,-0.3581 l 0.4200,0.3738 l 0.4200,-0.2152 l 0.4200,0.4940 l 0.4200,-0.2039 l 0.4200,0.5873 l 0.4200,-0.4402 l 0.4200,0.4518 l 0.4200,-0.9070 l 0.4200,-1.1141 l 0.4200,0.1718 l 0.4200,0.1883 l 0.4200,0.9449 l 0.4200,0.1858 l 0.4200,0.0119 l 0.4200,-0.0277 l 0.4200,-1.0061 l 0.4200,0.3726 l 0.4200,0.0247 l 0.4200,-0.0432 l 0.4200,-0.7830 l 0.4200,-0.4593 l 0.4200,-0.7035 l 0.4200,-0.5194 l 0.4200,-0.6616 l 0.4200,0.1992 l 0.4200,-0.1761 l 0.4200,-0.8138 l 0.4200,0.2346 l 0.4200,0.0116 l 0.4200,-0.1457 l 0.4200,-0.0752 l 0.4200,0.4535 l 0.4200,-1.9222 l 0.4200,0.9459 l 0.4200,0.0011 l 0.4200,0.5584 l 0.4200,0.5017 l 0.4200,0.4071 l 0.4200,-0.0475 l 0.4200,-0.4083 l 0.4200,0.0192 l 0.4200,0.5691 l 0.4200,-1.1552 l 0.4200,0.3153 l 0.4200,0.2660 l 0.4200,0.3673 l 0.4200,1.9030 l 0.4200,-0.2171 l 0.4200,0.2201 l 0.4200,0.1867 l 0.4200,0.2118 l 0.4200,-0.9992 l 0.4200,-0.0920 l 0.4200,-0.3641 l 0.4200,0.3994 l 0.4200,0.3064 l 0.4200,-0.0180 l 0.4200,0.5137 l 0.4200,-0.2212 l 0.4200,0.1853 l 0.4200,-0.0385 l 0.4200,0.2735 l 0.4200,0.6142 l 0.4200,1.0618 l 0.4200,-1.2053 l 0.4200,0.4886 l 0.4200,0.3092 l 0.4200,-1.0486 l 0.4200,0.5088 l 0.4200,-1.5242 l 0.4200,-0.8237 l 0.4200,0.1409 l 0.4200,-0.0136 l 0.4200,0.3489 l 0.4200,-0.1882 l 0.4200,-0.1070 l 0.4200,0.2545 l 0.4200,-0.0193 l 0.4200,-0.5322 l 0.4200,0.0641 l 0.4200,0.2190 l 0.4200,-0.0986 l 0.4200,0.3860 l 0.4200,0.2830 l 0.4200,-0.6345 l 0.4200,0.1697 l 0.4200,2.7594 l 0.4200,-0.4886 l 0.4200,-0.9308 l 0.4200,-0.6919 l 0.4200,-0.2037 l 0.4200,-0.2991 l 0.4200,-0.5834 l 0.4200,0.0243 l 0.4200,0.2457 l 0.4200,0.1350 l 0.4200,-1.0400 l 0.4200,-0.4701 l 0.4200,0.2530 l 0.4200,0.4805 l 0.4200,-0.1603 l 0.4200,0.0321 l 0.4200,0.1928 "/></g><g stroke-linejoin="miter" stroke-opacity="1.0" fill-opacity="0.0" stroke="rgb(85,85,85)" stroke-width="0.48241815132442184" fill="rgb(0,0,0)" stroke-linecap="butt" stroke-miterlimit="10.0"><path d="M 108.3916,111.1399 l 0.4200,-0.0889 l 0.4200,0.4577 l 0.4200,-0.3380 l 0.4200,-0.3408 l 0.4200,-0.2170 l 0.4200,0.1676 l 0.4200,-0.1881 l 0.4200,0.0299 l 0.4200,-0.0204 l 0.4200,-0.3625 l 0.4200,-0.1818 l 0.4200,-0.2539 l 0.4200,0.0041 l 0.4200,-0.4833 l 0.4200,-0.1018 l 0.4200,-0.0392 l 0.4200,0.1476 l 0.4200,-0.0906 l 0.4200,-0.1730 l 0.4200,-0.0476 l 0.4200,-0.0631 l 0.4200,0.0795 l 0.4200,0.1515 l 0.4200,-0.0825 l 0.4200,-0.0190 l 0.4200,0.1487 l 0.4200,-0.0026 l 0.4200,0.0162 l 0.4200,-0.4461 l 0.4200,-0.0484 l 0.4200,0.0660 l 0.4200,0.2222 l 0.4200,0.1512 l 0.4200,-0.1311 l 0.4200,0.1426 l 0.4200,0.0535 l 0.4200,-0.0906 l 0.4200,0.2017 l 0.4200,0.5388 l 0.4200,0.1318 l 0.4200,0.2275 l 0.4200,-0.1298 l 0.4200,0.2230 l 0.4200,-0.3049 l 0.4200,-0.1340 l 0.4200,0.1591 l 0.4200,0.5974 l 0.4200,-0.0911 l 0.4200,-0.0621 l 0.4200,0.1266 l 0.4200,-0.1427 l 0.4200,-0.2866 l 0.4200,-0.0340 l 0.4200,0.0083 l 0.4200,-0.3546 l 0.4200,-0.2578 l 0.4200,-0.1009 l 0.4200,0.1352 l 0.4200,-0.0887 l 0.4200,-0.1974 l 0.4200,-0.1433 l 0.4200,-0.4328 l 0.4200,0.0795 l 0.4200,0.2773 l 0.4200,0.1848 l 0.4200,0.1065 l 0.4200,0.1116 l 0.4200,-0.1168 l 0.4200,0.1608 l 0.4200,0.2327 l 0.4200,-0.2817 l 0.4200,0.0355 l 0.4200,0.3418 l 0.4200,-0.2474 l 0.4200,0.3243 l 0.4200,0.4656 l 0.4200,-0.0112 l 0.4200,-0.7823 l 0.4200,-0.2189 l 0.4200,-0.1381 l 0.4200,0.2713 l 0.4200,-0.4931 l 0.4200,-0.2351 l 0.4200,-0.2278 l 0.4200,0.0085 l 0.4200,-0.1981 l 0.4200,0.1859 l 0.4200,-0.1076 l 0.4200,-0.1489 l 0.4200,-0.0366 l 0.4200,-0.1922 l 0.4200,0.1917 l 0.4200,0.1532 l 0.4200,-0.0944 l 0.4200,-0.1187 l 0.4200,0.1153 l 0.4200,-0.1441 l 0.4200,0.4992 l 0.4200,-0.4778 l 0.4200,-0.0142 l 0.4200,0.0993 l 0.4200,-0.2838 l 0.4200,-0.1646 l 0.4200,-0.1420 l 0.4200,0.1487 l 0.4200,0.0876 l 0.4200,0.1461 l 0.4200,-0.2848 l 0.4200,-0.1689 l 0.4200,0.0592 l 0.4200,0.0072 l 0.4200,-0.0784 l 0.4200,0.0417 l 0.4200,0.1126 l 0.4200,0.1299 l 0.4200,0.0603 l 0.4200,0.1720 l 0.4200,-0.3978 l 0.4200,-0.0538 l 0.4200,0.1296 l 0.4200,0.4302 l 0.4200,0.1506 l 0.4200,0.0157 l 0.4200,-0.2192 l 0.4200,0.1262 l 0.4200,-0.5938 l 0.4200,0.0341 l 0.4200,-0.1637 l 0.4200,-0.1818 l 0.4200,-0.0938 l 0.4200,-0.1606 l 0.4200,0.0257 l 0.4200,0.0198 l 0.4200,-0.1318 l 0.4200,0.3400 l 0.4200,0.0251 l 0.4200,0.1053 l 0.4200,-0.2096 l 0.4200,0.0209 l 0.4200,0.0003 l 0.4200,-0.0715 l 0.4200,0.4775 l 0.4200,-0.3823 l 0.4200,-0.1759 l 0.4200,0.0627 l 0.4200,0.1563 l 0.4200,-0.0887 l 0.4200,-0.0080 l 0.4200,0.3407 l 0.4200,0.7867 l 0.4200,0.1911 l 0.4200,-0.2129 l 0.4200,0.3886 l 0.4200,-0.3996 l 0.4200,0.2501 l 0.4200,0.8591 l 0.4200,-0.2687 l 0.4200,0.0857 l 0.4200,-0.4426 l 0.4200,-0.4732 l 0.4200,-0.0454 l 0.4200,-0.3916 l 0.4200,0.0224 l 0.4200,-0.2002 l 0.4200,-0.1634 l 0.4200,-0.0297 l 0.4200,0.2530 l 0.4200,-0.2082 l 0.4200,0.0833 l 0.4200,-0.2137 l 0.4200,0.0624 l 0.4200,0.0120 l 0.4200,-0.1683 l 0.4200,-0.0889 l 0.4200,0.2848 l 0.4200,-0.5433 l 0.4200,0.0154 l 0.4200,-0.0497 l 0.4200,-0.0064 l 0.4200,0.0304 l 0.4200,0.2003 l 0.4200,0.0019 l 0.4200,0.4450 l 0.4200,0.1162 l 0.4200,-0.3385 l 0.4200,-0.2510 l 0.4200,0.2389 l 0.4200,-0.2081 l 0.4200,0.1209 l 0.4200,0.1919 l 0.4200,-0.1485 l 0.4200,0.2708 l 0.4200,0.0824 l 0.4200,-0.1573 l 0.4200,-0.2768 l 0.4200,-0.2443 l 0.4200,-0.0912 l 0.4200,0.0548 l 0.4200,0.4763 l 0.4200,0.4093 l 0.4200,-0.1250 l 0.4200,-0.3858 l 0.4200,0.7875 l 0.4200,0.3617 l 0.4200,-0.2886 l 0.4200,-0.2349 l 0.4200,-0.3704 l 0.4200,-0.0372 l 0.4200,-0.1255 l 0.4200,-0.1370 l 0.4200,0.0943 l 0.4200,-0.0501 l 0.4200,0.3112 l 0.4200,-0.1060 l 0.4200,-0.1615 l 0.4200,-0.0967 l 0.4200,0.0183 l 0.4200,0.0625 l 0.4200,-0.0557 l 0.4200,0.3443 l 0.4200,-0.1930 l 0.4200,0.0633 l 0.4200,-0.0430 l 0.4200,-0.3404 l 0.4200,-0.0022 l 0.4200,0.1860 l 0.4200,0.3580 l 0.4200,-0.1247 l 0.4200,-0.1280 l 0.4200,0.2521 l 0.4200,-0.2841 l 0.4200,-0.0736 l 0.4200,-0.1426 l 0.4200,-0.2059 l 0.4200,0.0543 l 0.4200,-0.1832 l 0.4200,-0.0541 l 0.4200,-0.0132 l 0.4200,0.0274 l 0.4200,-0.0559 l 0.4200,-0.2251 l 0.4200,-0.1556 l 0.4200,-0.0205 l 0.4200,0.0230 l 0.4200,0.1439 l 0.4200,0.2748 l 0.4200,-0.1014 l 0.4200,-0.0171 l 0.4200,-0.0660 l 0.4200,-0.2685 l 0.4200,-0.0328 l 0.4200,-0.0494 l 0.4200,0.0189 l 0.4200,0.2509 l 0.4200,-0.1656 l 0.4200,0.0572 l 0.4200,-0.0562 l 0.4200,0.0276 l 0.4200,-0.2303 l 0.4200,-0.0100 l 0.4200,-0.1864 l 0.4200,0.1586 l 0.4200,0.2737 l 0.4200,-0.1562 l 0.4200,0.1660 l 0.4200,-0.0401 l 0.4200,-0.1634 l 0.4200,0.0851 l 0.4200,-0.1399 l 0.4200,0.4510 l 0.4200,-0.3612 l 0.4200,0.0994 l 0.4200,-0.1697 l 0.4200,-0.0502 l 0.4200,-0.0037 l 0.4200,0.1925 l 0.4200,0.0034 l 0.4200,0.1805 l 0.4200,0.0115 l 0.4200,0.7551 l 0.4200,0.1179 l 0.4200,-0.2500 l 0.4200,0.3703 l 0.4200,0.0121 l 0.4200,0.2172 l 0.4200,-0.4082 l 0.4200,-0.0880 l 0.4200,0.0732 l 0.4200,-0.2323 l 0.4200,-0.1458 l 0.4200,0.0157 l 0.4200,-0.2984 l 0.4200,-0.1693 l 0.4200,-0.0770 l 0.4200,-0.0942 l 0.4200,0.0872 l 0.4200,-0.1614 l 0.4200,-0.0244 l 0.4200,0.0123 l 0.4200,0.0761 l 0.4200,-0.1077 l 0.4200,0.0341 l 0.4200,0.0427 l 0.4200,0.0704 l 0.4200,-0.1704 l 0.4200,0.1271 l 0.4200,0.2549 l 0.4200,-0.1199 l 0.4200,-0.0185 l 0.4200,0.2333 l 0.4200,0.0397 l 0.4200,-0.2600 l 0.4200,-0.0336 l 0.4200,-0.1651 l 0.4200,0.0316 l 0.4200,0.3093 l 0.4200,0.2262 l 0.4200,-0.2728 l 0.4200,0.6120 l 0.4200,-0.3003 l 0.4200,0.1071 l 0.4200,0.1157 l 0.4200,0.5026 l 0.4200,0.0124 l 0.4200,-0.3947 l 0.4200,0.0707 l 0.4200,0.5723 l 0.4200,-0.6228 l 0.4200,0.7793 l 0.4200,0.4346 l 0.4200,0.6210 l 0.4200,-0.0468 l 0.4200,0.3097 l 0.4200,0.0056 l 0.4200,-0.4587 l 0.4200,-0.3223 l 0.4200,-0.6993 l 0.4200,0.2815 l 0.4200,-0.4365 l 0.4200,-0.2451 l 0.4200,0.0681 l 0.4200,-0.4227 l 0.4200,0.0642 l 0.4200,-0.2147 l 0.4200,-0.4145 l 0.4200,0.0183 l 0.4200,0.1178 l 0.4200,-0.1949 l 0.4200,-0.1244 l 0.4200,0.0012 l 0.4200,-0.1003 l 0.4200,-0.0115 l 0.4200,0.0398 l 0.4200,-0.0054 l 0.4200,0.0052 l 0.4200,-0.0129 l 0.4200,-0.1738 l 0.4200,0.0694 l 0.4200,-0.0580 l 0.4200,-0.1774 l 0.4200,-0.0905 l 0.4200,0.0567 l 0.4200,-0.0884 l 0.4200,0.1080 l 0.4200,0.2659 l 0.4200,-0.2194 l 0.4200,-0.1235 l 0.4200,0.0572 l 0.4200,-0.0466 l 0.4200,0.2817 l 0.4200,0.0229 l 0.4200,0.6191 l 0.4200,-0.1527 l 0.4200,0.6135 l 0.4200,0.2464 l 0.4200,0.3256 l 0.4200,-0.7268 l 0.4200,-0.8573 l 0.4200,-0.1530 l 0.4200,-0.1253 l 0.4200,-0.0496 l 0.4200,0.0196 l 0.4200,-0.1068 l 0.4200,-0.0171 l 0.4200,0.1944 l 0.4200,0.3946 l 0.4200,0.0263 l 0.4200,0.6908 l 0.4200,0.3408 l 0.4200,-0.4115 l 0.4200,-0.6371 l 0.4200,0.3238 l 0.4200,0.3117 l 0.4200,0.1080 l 0.4200,0.2271 l 0.4200,0.3538 l 0.4200,-0.4767 l 0.4200,-0.0436 l 0.4200,-0.1600 l 0.4200,-0.5427 l 0.4200,0.2160 l 0.4200,-0.0806 l 0.4200,0.5083 l 0.4200,0.5116 l 0.4200,-0.3356 l 0.4200,0.4929 l 0.4200,-0.4602 l 0.4200,-0.5129 l 0.4200,0.1665 l 0.4200,-0.3624 l 0.4200,0.1394 l 0.4200,0.1697 l 0.4200,-0.3763 l 0.4200,0.0149 l 0.4200,-0.3384 l 0.4200,-0.1350 l 0.4200,-0.0443 l 0.4200,0.0258 l 0.4200,0.0532 l 0.4200,-0.2099 l 0.4200,0.0256 l 0.4200,-0.0867 l 0.4200,0.0426 l 0.4200,0.0686 l 0.4200,0.1230 l 0.4200,-0.2099 l 0.4200,0.1814 l 0.4200,0.1756 l 0.4200,-0.0298 l 0.4200,0.5379 l 0.4200,-0.1310 l 0.4200,0.6414 l 0.4200,0.0833 l 0.4200,-0.4465 l 0.4200,0.2371 l 0.4200,-0.4801 l 0.4200,0.1358 l 0.4200,-0.4299 l 0.4200,0.1933 l 0.4200,-0.3155 l 0.4200,0.0783 l 0.4200,0.2400 l 0.4200,0.5518 l 0.4200,0.1004 l 0.4200,-0.0737 l 0.4200,-0.4330 l 0.4200,0.3379 l 0.4200,0.1590 l 0.4200,-0.1162 l 0.4200,-0.2284 l 0.4200,0.0893 l 0.4200,-0.0849 l 0.4200,-0.1497 l 0.4200,-0.1768 l 0.4200,0.1823 l 0.4200,-0.0462 l 0.4200,-0.1747 l 0.4200,0.0425 l 0.4200,0.4312 l 0.4200,-0.3241 l 0.4200,0.0681 l 0.4200,-0.1726 l 0.4200,-0.0726 l 0.4200,-0.0687 l 0.4200,0.1662 l 0.4200,-0.0878 l 0.4200,0.1514 l 0.4200,0.3872 l 0.4200,-0.3854 l 0.4200,-0.0939 l 0.4200,0.4507 l 0.4200,0.1771 l 0.4200,-0.1251 l 0.4200,-0.4772 l 0.4200,0.2011 l 0.4200,0.1219 l 0.4200,0.0246 l 0.4200,-0.3800 l 0.4200,-0.0143 l 0.4200,-0.0979 l 0.4200,0.0375 l 0.4200,0.0480 l 0.4200,-0.0719 l 0.4200,0.0960 l 0.4200,0.3930 l 0.4200,-0.3214 l 0.4200,0.0603 l 0.4200,0.2462 l 0.4200,-0.0621 l 0.4200,0.0505 l 0.4200,-0.0642 l 0.4200,0.3313 l 0.4200,0.0658 l 0.4200,0.2514 l 0.4200,-0.0026 l 0.4200,-0.4263 l 0.4200,-0.0503 l 0.4200,0.2709 l 0.4200,0.1830 l 0.4200,-0.1954 l 0.4200,-0.0594 l 0.4200,-0.3484 l 0.4200,0.2087 l 0.4200,-0.2097 l 0.4200,-0.0098 l 0.4200,0.2843 l 0.4200,0.1224 l 0.4200,0.0274 l 0.4200,0.7867 l 0.4200,-0.0854 l 0.4200,-0.2412 l 0.4200,0.0240 l 0.4200,0.1545 l 0.4200,-0.2101 l 0.4200,0.6288 l 0.4200,-0.0711 l 0.4200,-0.4378 l 0.4200,-0.3911 l 0.4200,-0.1500 l 0.4200,0.0401 l 0.4200,-0.2799 l 0.4200,-0.0272 l 0.4200,-0.0150 l 0.4200,0.1700 l 0.4200,0.1008 l 0.4200,0.2219 l 0.4200,0.4076 l 0.4200,0.2248 l 0.4200,-0.4395 l 0.4200,-0.2548 l 0.4200,0.0119 l 0.4200,0.0963 l 0.4200,0.1140 l 0.4200,0.0953 l 0.4200,-0.1015 l 0.4200,0.2983 l 0.4200,0.1179 l 0.4200,-0.4547 l 0.4200,0.3652 l 0.4200,-0.0226 l 0.4200,0.0592 l 0.4200,-0.1309 l 0.4200,-0.1782 l 0.4200,0.1091 l 0.4200,0.3166 l 0.4200,0.7945 l 0.4200,1.1986 l 0.4200,1.4849 l 0.4200,0.5076 l 0.4200,-1.3967 l 0.4200,-0.8706 l 0.4200,-0.0115 l 0.4200,0.3196 l 0.4200,1.1114 l 0.4200,-0.6564 l 0.4200,-0.0327 l 0.4200,0.5765 l 0.4200,-0.8999 l 0.4200,0.5238 l 0.4200,-0.1838 l 0.4200,-0.1544 l 0.4200,0.1603 l 0.4200,-0.4581 l 0.4200,-0.3076 l 0.4200,0.1047 l 0.4200,0.6082 l 0.4200,-0.1576 l 0.4200,0.4647 l 0.4200,0.0845 l 0.4200,0.1329 l 0.4200,0.0263 l 0.4200,0.9631 l 0.4200,-0.0373 l 0.4200,-0.6849 l 0.4200,-0.0631 l 0.4200,-0.5123 l 0.4200,-0.6551 l 0.4200,0.1423 l 0.4200,-0.2836 l 0.4200,-0.3116 l 0.4200,-0.0158 l 0.4200,-0.0361 l 0.4200,0.2620 l 0.4200,0.1838 l 0.4200,-0.5307 l 0.4200,-0.1563 l 0.4200,0.0011 l 0.4200,0.0631 l 0.4200,0.2252 l 0.4200,-0.5944 l 0.4200,-0.3910 l 0.4200,0.0821 l 0.4200,0.1054 l 0.4200,-0.4204 l 0.4200,0.0285 l 0.4200,0.1887 l 0.4200,-0.4214 l 0.4200,-0.0877 l 0.4200,0.1425 l 0.4200,0.0536 l 0.4200,0.0247 l 0.4200,0.3741 l 0.4200,-0.0439 l 0.4200,0.1303 l 0.4200,0.5283 l 0.4200,0.4243 l 0.4200,-0.5323 l 0.4200,0.0604 l 0.4200,-0.5772 l 0.4200,0.0530 l 0.4200,-0.1280 l 0.4200,0.0571 l 0.4200,-0.0332 l 0.4200,0.0164 l 0.4200,-0.0101 l 0.4200,0.1823 l 0.4200,-0.3784 l 0.4200,0.4176 l 0.4200,0.5424 l 0.4200,-0.7347 l 0.4200,0.2692 l 0.4200,0.2501 l 0.4200,0.2960 l 0.4200,-0.0718 l 0.4200,0.7304 l 0.4200,-0.1642 l 0.4200,-0.3771 l 0.4200,-0.5178 l 0.4200,0.5674 l 0.4200,0.6692 l 0.4200,-0.2745 l 0.4200,-0.3117 l 0.4200,-0.4421 l 0.4200,0.0698 l 0.4200,0.0909 l 0.4200,-0.3771 l 0.4200,0.2771 l 0.4200,0.3577 l 0.4200,0.5762 l 0.4200,-0.0640 l 0.4200,0.4944 l 0.4200,0.8893 l 0.4200,0.4081 l 0.4200,-0.0232 l 0.4200,-0.2768 l 0.4200,0.9361 l 0.4200,-0.6002 l 0.4200,0.8095 l 0.4200,-0.0124 l 0.4200,0.4390 l 0.4200,-0.1833 l 0.4200,-0.7294 l 0.4200,0.5864 l 0.4200,-0.5081 l 0.4200,0.4087 l 0.4200,-0.1950 l 0.4200,-0.8896 l 0.4200,0.0251 l 0.4200,0.7026 l 0.4200,-0.1752 l 0.4200,-0.0479 l 0.4200,0.6923 l 0.4200,0.5300 l 0.4200,0.0309 l 0.4200,0.0137 l 0.4200,0.4608 l 0.4200,-0.7030 l 0.4200,-0.5937 l 0.4200,-0.5918 l 0.4200,0.1800 l 0.4200,0.0089 l 0.4200,-0.5185 l 0.4200,0.4684 l 0.4200,-0.1547 l 0.4200,-0.4057 l 0.4200,0.0774 l 0.4200,0.3076 l 0.4200,-0.8572 l 0.4200,-0.1405 l 0.4200,-0.1189 l 0.4200,-0.1117 l 0.4200,-0.0230 l 0.4200,0.4241 l 0.4200,-0.1760 l 0.4200,0.0036 l 0.4200,-0.5874 l 0.4200,0.0563 l 0.4200,0.0772 l 0.4200,-0.1952 l 0.4200,-0.2312 l 0.4200,-0.1511 l 0.4200,-0.0258 l 0.4200,0.0425 l 0.4200,0.2452 l 0.4200,0.0237 l 0.4200,-0.0101 l 0.4200,-0.3121 l 0.4200,-0.1489 l 0.4200,0.0854 l 0.4200,-0.2212 l 0.4200,0.1285 l 0.4200,0.3844 l 0.4200,-0.3736 l 0.4200,0.4525 l 0.4200,-0.0923 l 0.4200,0.1107 l 0.4200,-0.3429 l 0.4200,-0.3561 l 0.4200,0.0044 l 0.4200,0.0468 l 0.4200,-0.2286 l 0.4200,-0.1021 l 0.4200,-0.0170 l 0.4200,0.2020 l 0.4200,0.0089 l 0.4200,0.0773 l 0.4200,-0.0580 l 0.4200,-0.0497 l 0.4200,0.3510 l 0.4200,0.1965 l 0.4200,-0.2753 l 0.4200,0.3303 l 0.4200,0.2285 l 0.4200,0.0186 l 0.4200,-0.1064 l 0.4200,-0.0176 l 0.4200,-0.4451 l 0.4200,0.3631 l 0.4200,0.0162 l 0.4200,0.3224 l 0.4200,-0.3480 l 0.4200,0.3571 l 0.4200,0.0021 l 0.4200,0.1460 l 0.4200,-0.2106 l 0.4200,0.0865 l 0.4200,-0.4888 l 0.4200,-0.2446 l 0.4200,0.0183 l 0.4200,-0.1465 l 0.4200,0.0476 l 0.4200,-0.0311 l 0.4200,-0.0929 l 0.4200,0.1177 l 0.4200,-0.1687 l 0.4200,-0.0365 l 0.4200,-0.1104 l 0.4200,0.0740 l 0.4200,0.3489 l 0.4200,0.3092 l 0.4200,0.0761 l 0.4200,0.0776 l 0.4200,-0.1048 l 0.4200,0.1299 l 0.4200,-0.2025 l 0.4200,-0.0891 l 0.4200,0.0709 l 0.4200,-0.4769 l 0.4200,1.3528 l 0.4200,0.6787 l 0.4200,-0.6378 l 0.4200,-1.1043 l 0.4200,-0.0606 l 0.4200,0.2625 l 0.4200,-0.1858 l 0.4200,0.0424 l 0.4200,-0.5450 l 0.4200,-0.1138 l 0.4200,-0.2452 l 0.4200,0.0064 l 0.4200,-0.1812 l 0.4200,0.0456 l 0.4200,-0.0760 l 0.4200,0.0641 l 0.4200,-0.1450 l 0.4200,0.1443 l 0.4200,-0.1554 l 0.4200,0.1222 l 0.4200,-0.0005 l 0.4200,0.0554 l 0.4200,-0.0476 l 0.4200,-0.0484 l 0.4200,0.0581 l 0.4200,0.2455 l 0.4200,-0.1038 l 0.4200,0.0035 l 0.4200,-0.3030 l 0.4200,0.0449 l 0.4200,-0.0028 l 0.4200,0.1167 l 0.4200,-0.1619 l 0.4200,0.0408 l 0.4200,-0.0908 l 0.4200,0.2132 l 0.4200,-0.0572 l 0.4200,-0.0692 l 0.4200,0.0644 l 0.4200,0.0321 l 0.4200,-0.0601 l 0.4200,0.2042 l 0.4200,0.0613 l 0.4200,0.0691 l 0.4200,-0.1802 l 0.4200,0.0831 l 0.4200,0.0985 l 0.4200,0.0126 l 0.4200,-0.1427 l 0.4200,-0.0979 l 0.4200,0.0168 l 0.4200,0.0930 l 0.4200,0.9220 l 0.4200,-0.5245 l 0.4200,0.5592 l 0.4200,0.0316 l 0.4200,-0.3587 l 0.4200,0.1494 l 0.4200,0.0111 l 0.4200,-0.0005 l 0.4200,-0.3879 l 0.4200,-0.2267 l 0.4200,0.2222 l 0.4200,0.3272 l 0.4200,-0.2252 l 0.4200,-0.1830 l 0.4200,0.3546 l 0.4200,-0.2807 l 0.4200,0.1308 l 0.4200,0.1929 l 0.4200,-0.1468 l 0.4200,-0.0069 l 0.4200,0.1302 l 0.4200,-0.1581 l 0.4200,0.4702 l 0.4200,-0.0320 l 0.4200,0.1242 l 0.4200,0.0027 l 0.4200,0.1218 l 0.4200,-0.2153 l 0.4200,-0.0700 l 0.4200,0.0608 l 0.4200,0.0133 l 0.4200,-0.1636 l 0.4200,0.1501 l 0.4200,0.0741 l 0.4200,0.1199 l 0.4200,0.1242 l 0.4200,0.0144 l 0.4200,0.2597 l 0.4200,0.2497 l 0.4200,0.1719 l 0.4200,0.0703 l 0.4200,-0.7972 l 0.4200,-0.1278 l 0.4200,-0.3940 l 0.4200,-0.0608 l 0.4200,0.0619 l 0.4200,0.0147 l 0.4200,-0.2629 l 0.4200,0.0689 l 0.4200,-0.1605 l 0.4200,0.0986 l 0.4200,-0.2620 l 0.4200,-0.0683 l 0.4200,-0.0185 l 0.4200,-0.1322 l 0.4200,0.2045 l 0.4200,-0.0380 l 0.4200,0.1085 l 0.4200,0.1401 l 0.4200,-0.0038 l 0.4200,-0.2021 l 0.4200,-0.1138 l 0.4200,-0.4686 l 0.4200,-0.0674 l 0.4200,-0.2056 l 0.4200,0.0537 l 0.4200,-0.2274 l 0.4200,0.3111 l 0.4200,-0.1306 l 0.4200,0.0762 l 0.4200,-0.0606 l 0.4200,-0.1213 l 0.4200,0.1023 l 0.4200,0.0802 l 0.4200,-0.0341 l 0.4200,-0.0706 l 0.4200,0.3198 l 0.4200,0.0222 l 0.4200,0.1820 l 0.4200,-0.2987 l 0.4200,-0.1976 l 0.4200,0.0402 l 0.4200,-0.1170 l 0.4200,0.1424 l 0.4200,0.0117 l 0.4200,-0.0919 l 0.4200,0.0907 l 0.4200,-0.0561 l 0.4200,0.1209 l 0.4200,-0.0530 l 0.4200,0.1444 l 0.4200,-0.1117 l 0.4200,0.1106 l 0.4200,-0.2285 l 0.4200,-0.2813 l 0.4200,0.0392 l 0.4200,0.0439 l 0.4200,0.2332 l 0.4200,0.0444 l 0.4200,0.0008 l 0.4200,-0.0091 l 0.4200,-0.2538 l 0.4200,0.0898 l 0.4200,0.0036 l 0.4200,-0.0135 l 0.4200,-0.1985 l 0.4200,-0.1184 l 0.4200,-0.1796 l 0.4200,-0.1342 l 0.4200,-0.1701 l 0.4200,0.0445 l 0.4200,-0.0488 l 0.4200,-0.2084 l 0.4200,0.0528 l 0.4200,-0.0025 l 0.4200,-0.0418 l 0.4200,-0.0244 l 0.4200,0.1077 l 0.4200,-0.4854 l 0.4200,0.2291 l 0.4200,-0.0054 l 0.4200,0.1336 l 0.4200,0.1200 l 0.4200,0.0967 l 0.4200,-0.0166 l 0.4200,-0.1069 l 0.4200,-0.0005 l 0.4200,0.1371 l 0.4200,-0.2932 l 0.4200,0.0729 l 0.4200,0.0612 l 0.4200,0.0867 l 0.4200,0.4709 l 0.4200,-0.0571 l 0.4200,0.0514 l 0.4200,0.0433 l 0.4200,0.0497 l 0.4200,-0.2528 l 0.4200,-0.0272 l 0.4200,-0.0949 l 0.4200,0.0955 l 0.4200,0.0728 l 0.4200,-0.0081 l 0.4200,0.1247 l 0.4200,-0.0584 l 0.4200,0.0428 l 0.4200,-0.0128 l 0.4200,0.0651 l 0.4200,0.1505 l 0.4200,0.2630 l 0.4200,-0.3028 l 0.4200,0.1190 l 0.4200,0.0751 l 0.4200,-0.2642 l 0.4200,0.1239 l 0.4200,-0.3834 l 0.4200,-0.2101 l 0.4200,0.0307 l 0.4200,-0.0076 l 0.4200,0.0830 l 0.4200,-0.0509 l 0.4200,-0.0309 l 0.4200,0.0594 l 0.4200,-0.0087 l 0.4200,-0.1370 l 0.4200,0.0115 l 0.4200,0.0504 l 0.4200,-0.0287 l 0.4200,0.0922 l 0.4200,0.0670 l 0.4200,-0.1622 l 0.4200,0.0381 l 0.4200,0.6858 l 0.4200,-0.1232 l 0.4200,-0.2352 l 0.4200,-0.1763 l 0.4200,-0.0547 l 0.4200,-0.0785 l 0.4200,-0.1498 l 0.4200,0.0016 l 0.4200,0.0571 l 0.4200,0.0297 l 0.4200,-0.2639 l 0.4200,-0.1226 l 0.4200,0.0579 l 0.4200,0.1152 l 0.4200,-0.0445 l 0.4200,0.0033 l 0.4200,0.0435 "/></g></svg>