<svg viewBox="-1.3559678118201535 -0.68275 2.3634678118201533 1.5020159178324475" xmlns="http://www.w3.org/2000/svg" xmlns:xlink="http://www.w3.org/1999/xlink" version="1.1" width="600.0" height="300.0"><g stroke-width="0.0" stroke="none" fill="#000000" transform="translate(-0.17423390591007692, -0.57175)" fill-opacity="1.0" font-size="0.12" text-anchor="middle"><text transform="rotate(0.0, 0.0, -0.0)" x="0.0" y="-0.0">beta on std</text></g><g stroke-width="0.0" stroke="#000000" fill="#666666" fill-opacity="3.0e-2" stroke-opacity="0.0"><rect width="1.9999999999999998" height="1.0" x="-1.0" y="-0.5" /></g><g stroke-width="5.0e-3" stroke="#A8E5EE" fill="none" stroke-opacity="0.3"><polyline points="-1.005,0.5 1.0049999999999997,0.5" /></g><g stroke-width="5.0e-3" stroke="#A8E5EE" fill="none" stroke-opacity="0.3"><polyline points="-1.005,0.3333333333333333 1.0049999999999997,0.3333333333333333" /></g><g stroke-width="5.0e-3" stroke="#A8E5EE" fill="none" stroke-opacity="0.3"><polyline points="-1.005,0.16666666666666663 1.0049999999999997,0.16666666666666663" /></g><g stroke-width="5.0e-3" stroke="#A8E5EE" fill="none" stroke-opacity="0.3"><polyline points="-1.005,-0.0 1.0049999999999997,-0.0" /></g><g stroke-width="5.0e-3" stroke="#A8E5EE" fill="none" stroke-opacity="0.3"><polyline points="-1.005,-0.16666666666666674 1.0049999999999997,-0.16666666666666674" /></g><g stroke-width="5.0e-3" stroke="#A8E5EE" fill="none" stroke-opacity="0.3"><polyline points="-1.005,-0.33333333333333337 1.0049999999999997,-0.33333333333333337" /></g><g stroke-width="5.0e-3" stroke="#A8E5EE" fill="none" stroke-opacity="0.3"><polyline points="-1.005,-0.5 1.0049999999999997,-0.5" /></g><g stroke-width="0.0" stroke="none" fill="#666666" fill-opacity="1.0" font-size="5.0e-2" text-anchor="end"><text x="-1.2309678118201535" y="0.5145">-0.04</text></g><g stroke-width="0.0" stroke="none" fill="#666666" fill-opacity="1.0" font-size="5.0e-2" text-anchor="end"><text x="-1.2309678118201535" y="0.3478333333333333">-0.02</text></g><g stroke-width="0.0" stroke="none" fill="#666666" fill-opacity="1.0" font-size="5.0e-2" text-anchor="end"><text x="-1.2309678118201535" y="0.18116666666666664">0.00</text></g><g stroke-width="0.0" stroke="none" fill="#666666" fill-opacity="1.0" font-size="5.0e-2" text-anchor="end"><text x="-1.2309678118201535" y="1.4499999999999999e-2">0.02</text></g><g stroke-width="0.0" stroke="none" fill="#666666" fill-opacity="1.0" font-size="5.0e-2" text-anchor="end"><text x="-1.2309678118201535" y="-0.15216666666666673">0.04</text></g><g stroke-width="0.0" stroke="none" fill="#666666" fill-opacity="1.0" font-size="5.0e-2" text-anchor="end"><text x="-1.2309678118201535" y="-0.31883333333333336">0.06</text></g><g stroke-width="0.0" stroke="none" fill="#666666" fill-opacity="1.0" font-size="5.0e-2" text-anchor="end"><text x="-1.2309678118201535" y="-0.4855">0.08</text></g><g stroke-width="0.0" stroke="#2C429D" fill="#5F0391" fill-opacity="1.0" stroke-opacity="0.4"><line stroke-width="5.0e-3" transform="rotate(-90.0, -1.2008928118201536, 0.5)" x1="-1.2008928118201536" y1="0.515" x2="-1.2008928118201536" y2="0.485" /><line stroke-width="5.0e-3" transform="rotate(-90.0, -1.2008928118201536, 0.3333333333333333)" x1="-1.2008928118201536" y1="0.34833333333333333" x2="-1.2008928118201536" y2="0.3183333333333333" /><line stroke-width="5.0e-3" transform="rotate(-90.0, -1.2008928118201536, 0.16666666666666663)" x1="-1.2008928118201536" y1="0.18166666666666664" x2="-1.2008928118201536" y2="0.15166666666666662" /><line stroke-width="5.0e-3" transform="rotate(-90.0, -1.2008928118201536, -0.0)" x1="-1.2008928118201536" y1="1.5e-2" x2="-1.2008928118201536" y2="-1.5e-2" /><line stroke-width="5.0e-3" transform="rotate(-90.0, -1.2008928118201536, -0.16666666666666674)" x1="-1.2008928118201536" y1="-0.15166666666666673" x2="-1.2008928118201536" y2="-0.18166666666666675" /><line stroke-width="5.0e-3" transform="rotate(-90.0, -1.2008928118201536, -0.33333333333333337)" x1="-1.2008928118201536" y1="-0.31833333333333336" x2="-1.2008928118201536" y2="-0.3483333333333334" /><line stroke-width="5.0e-3" transform="rotate(-90.0, -1.2008928118201536, -0.5)" x1="-1.2008928118201536" y1="-0.485" x2="-1.2008928118201536" y2="-0.515" /></g><g stroke-width="0.0" stroke="#666666" fill="#5F0391" fill-opacity="0.5" stroke-opacity="0.0"><rect width="4.999999999999893e-3" height="1.0" x="-1.1908928118201536" y="-0.5" /></g><g stroke-width="5.0e-3" stroke="#A8E5EE" fill="none" stroke-opacity="0.3"><polyline points="-1.0,0.505 -1.0,-0.505" /></g><g stroke-width="5.0e-3" stroke="#A8E5EE" fill="none" stroke-opacity="0.3"><polyline points="-0.871743486973948,0.505 -0.871743486973948,-0.505" /></g><g stroke-width="5.0e-3" stroke="#A8E5EE" fill="none" stroke-opacity="0.3"><polyline points="-0.6152304609218437,0.505 -0.6152304609218437,-0.505" /></g><g stroke-width="5.0e-3" stroke="#A8E5EE" fill="none" stroke-opacity="0.3"><polyline points="-0.36272545090180375,0.505 -0.36272545090180375,-0.505" /></g><g stroke-width="5.0e-3" stroke="#A8E5EE" fill="none" stroke-opacity="0.3"><polyline points="-0.11022044088176364,0.505 -0.11022044088176364,-0.505" /></g><g stroke-width="5.0e-3" stroke="#A8E5EE" fill="none" stroke-opacity="0.3"><polyline points="0.1342685370741481,0.505 0.1342685370741481,-0.505" /></g><g stroke-width="5.0e-3" stroke="#A8E5EE" fill="none" stroke-opacity="0.3"><polyline points="0.3867735470941882,0.505 0.3867735470941882,-0.505" /></g><g stroke-width="5.0e-3" stroke="#A8E5EE" fill="none" stroke-opacity="0.3"><polyline points="0.6432865731462925,0.505 0.6432865731462925,-0.505" /></g><g stroke-width="5.0e-3" stroke="#A8E5EE" fill="none" stroke-opacity="0.3"><polyline points="0.8997995991983965,0.505 0.8997995991983965,-0.505" /></g><g stroke-width="5.0e-3" stroke="#A8E5EE" fill="none" stroke-opacity="0.3"><polyline points="0.9999999999999998,0.505 0.9999999999999998,-0.505" /></g><g stroke-width="0.0" stroke="none" fill="#666666" fill-opacity="1.0" font-size="5.0e-2" text-anchor="end"><text transform="rotate(-45.0, -1.0, 0.6062500000000001)" x="-1.0" y="0.6062500000000001">12 Feb 2018</text></g><g stroke-width="0.0" stroke="none" fill="#666666" fill-opacity="1.0" font-size="5.0e-2" text-anchor="end"><text transform="rotate(-45.0, -0.871743486973948, 0.6062500000000001)" x="-0.871743486973948" y="0.6062500000000001">31 Mar 2018</text></g><g stroke-width="0.0" stroke="none" fill="#666666" fill-opacity="1.0" font-size="5.0e-2" text-anchor="end"><text transform="rotate(-45.0, -0.6152304609218437, 0.6062500000000001)" x="-0.6152304609218437" y="0.6062500000000001">30 Jun 2018</text></g><g stroke-width="0.0" stroke="none" fill="#666666" fill-opacity="1.0" font-size="5.0e-2" text-anchor="end"><text transform="rotate(-45.0, -0.36272545090180375, 0.6062500000000001)" x="-0.36272545090180375" y="0.6062500000000001">30 Sep 2018</text></g><g stroke-width="0.0" stroke="none" fill="#666666" fill-opacity="1.0" font-size="5.0e-2" text-anchor="end"><text transform="rotate(-45.0, -0.11022044088176364, 0.6062500000000001)" x="-0.11022044088176364" y="0.6062500000000001">31 Dec 2018</text></g><g stroke-width="0.0" stroke="none" fill="#666666" fill-opacity="1.0" font-size="5.0e-2" text-anchor="end"><text transform="rotate(-45.0, 0.1342685370741481, 0.6062500000000001)" x="0.1342685370741481" y="0.6062500000000001">31 Mar 2019</text></g><g stroke-width="0.0" stroke="none" fill="#666666" fill-opacity="1.0" font-size="5.0e-2" text-anchor="end"><text transform="rotate(-45.0, 0.3867735470941882, 0.6062500000000001)" x="0.3867735470941882" y="0.6062500000000001">30 Jun 2019</text></g><g stroke-width="0.0" stroke="none" fill="#666666" fill-opacity="1.0" font-size="5.0e-2" text-anchor="end"><text transform="rotate(-45.0, 0.6432865731462925, 0.6062500000000001)" x="0.6432865731462925" y="0.6062500000000001">30 Sep 2019</text></g><g stroke-width="0.0" stroke="none" fill="#666666" fill-opacity="1.0" font-size="5.0e-2" text-anchor="end"><text transform="rotate(-45.0, 0.8997995991983965, 0.6062500000000001)" x="0.8997995991983965" y="0.6062500000000001">31 Dec 2019</text></g><g stroke-width="0.0" stroke="none" fill="#666666" fill-opacity="1.0" font-size="5.0e-2" text-anchor="end"><text transform="rotate(-45.0, 0.9999999999999998, 0.6062500000000001)" x="0.9999999999999998" y="0.6062500000000001">06 Feb 2020</text></g><g stroke-width="0.0" stroke="#2C429D" fill="#5F0391" fill-opacity="1.0" stroke-opacity="0.4"><line stroke-width="5.0e-3" x1="-1.0" y1="0.54" x2="-1.0" y2="0.51" /><line stroke-width="5.0e-3" x1="-0.871743486973948" y1="0.54" x2="-0.871743486973948" y2="0.51" /><line stroke-width="5.0e-3" x1="-0.6152304609218437" y1="0.54" x2="-0.6152304609218437" y2="0.51" /><line stroke-width="5.0e-3" x1="-0.36272545090180375" y1="0.54" x2="-0.36272545090180375" y2="0.51" /><line stroke-width="5.0e-3" x1="-0.11022044088176364" y1="0.54" x2="-0.11022044088176364" y2="0.51" /><line stroke-width="5.0e-3" x1="0.1342685370741481" y1="0.54" x2="0.1342685370741481" y2="0.51" /><line stroke-width="5.0e-3" x1="0.3867735470941882" y1="0.54" x2="0.3867735470941882" y2="0.51" /><line stroke-width="5.0e-3" x1="0.6432865731462925" y1="0.54" x2="0.6432865731462925" y2="0.51" /><line stroke-width="5.0e-3" x1="0.8997995991983965" y1="0.54" x2="0.8997995991983965" y2="0.51" /><line stroke-width="5.0e-3" x1="0.9999999999999998" y1="0.54" x2="0.9999999999999998" y2="0.51" /></g><g stroke-width="0.0" stroke="#666666" fill="#5F0391" fill-opacity="0.5" stroke-opacity="0.0"><rect width="1.9999999999999998" height="5.0000000000000044e-3" x="-1.0" y="0.51" /></g><g stroke-width="5.0e-3" stroke="#C58C4B" fill="none" stroke-opacity="0.5"><polyline points="-1.0,0.16666666666666663 0.9999999999999998,0.16666666666666663" /></g><g stroke-width="5.0e-3" stroke="#3C7F2B" fill="none" stroke-opacity="0.5"><polyline points="-1.0,0.1351250693646896 -0.9959919839679359,7.136868335860574e-2 -0.9919839679358717,-0.13837155931665923 -0.9879759519038076,-0.30418890974044255 -0.9839679358717435,-0.30588993667027375 -0.9799599198396793,-0.22017948371262597 -0.9759519038076152,-0.14879481980804232 -0.9719438877755511,-0.16383991206912774 -0.9679358717434869,-0.3015254327137523 -0.9639278557114228,-0.39731524145485053 -0.9599198396793587,-0.23542192256024008 -0.9559118236472945,-0.11427653945995031 -0.9519038076152304,1.2254515294172985e-2 -0.9478957915831663,-3.548457949716799e-2 -0.9438877755511023,-0.11214158104784167 -0.9398797595190381,-0.13023318701689313 -0.935871743486974,-0.12601779541943725 -0.9318637274549099,-0.14735404524160034 -0.9278557114228457,-0.18662648649687563 -0.9238476953907816,-0.17344112183025018 -0.9198396793587175,-0.13636745592236166 -0.9158316633266533,-0.10956446571708633 -0.9118236472945892,-0.10622360361301209 -0.9078156312625251,-0.10842751963502584 -0.9038076152304609,-7.418045037150378e-2 -0.8997995991983968,-7.650139515534038e-2 -0.8957915831663327,-7.548905220138458e-2 -0.8917835671342685,-3.0668131767045526e-2 -0.8877755511022044,4.955346764006241e-2 -0.8837675350701403,-1.9467107801052763e-2 -0.8797595190380761,9.17129014144305e-2 -0.875751503006012,9.809424145862322e-2 -0.8717434869739479,2.2127809677454258e-2 -0.8677354709418837,0.14165105321561583 -0.8637274549098196,6.08388049396455e-2 -0.8597194388777555,-4.86117527947183e-3 -0.8557114228456915,-4.227921236597654e-2 -0.8517034068136273,7.099926003647689e-2 -0.8476953907815632,4.6474395615195285e-2 -0.8436873747494991,-1.695639972538776e-2 -0.8396793587174349,7.432942771615936e-3 -0.8356713426853708,-2.2539509986176598e-2 -0.8316633266533067,-1.3477401030769665e-2 -0.8276553106212425,-3.0181533794649162e-2 -0.8236472945891784,-4.3310155163263864e-2 -0.8196392785571143,-4.3695891690815e-2 -0.8156312625250501,-3.6666018513462406e-2 -0.811623246492986,-3.1256833461113076e-2 -0.8076152304609219,-3.1159844174154516e-2 -0.8036072144288577,-3.594667746555147e-2 -0.7995991983967936,-3.262449243163423e-2 -0.7955911823647295,-3.085558638645569e-3 -0.7915831663326653,-5.289608749483588e-4 -0.7875751503006012,-1.942468211173487e-2 -0.7835671342685371,-8.696991317528102e-3 -0.779559118236473,-3.388111569241514e-2 -0.7755511022044088,-4.120650035656115e-2 -0.7715430861723447,4.7121949477471003e-2 -0.7675350701402806,6.441358330094943e-2 -0.7635270541082164,6.23641227111304e-2 -0.7595190380761523,0.12841668770340675 -0.7555110220440882,0.1853074956545399 -0.751503006012024,0.18998771329913572 -0.7474949899799599,0.18883833851124776 -0.7434869739478958,0.12046854899799242 -0.7394789579158316,0.1511767370443703 -0.7354709418837675,0.13479980918155038 -0.7314629258517034,9.81422355154083e-2 -0.7274549098196392,0.1799090106546964 -0.7234468937875751,0.13102647637288606 -0.719438877755511,0.16448201242130273 -0.7154308617234469,0.12427936340634144 -0.7114228456913828,7.836268889617037e-2 -0.7074148296593187,-9.045676510671341e-2 -0.7034068136272545,8.596067867634638e-2 -0.6993987975951904,1.651529120949191e-2 -0.6953907815631263,0.1263674111042996 -0.6913827655310621,0.15891364684338904 -0.687374749498998,0.15704925143360526 -0.6833667334669339,0.2375227068297826 -0.6793587174348698,0.21622161773161847 -0.6753507014028056,0.23927134629598296 -0.6713426853707415,0.23663457359008078 -0.6673346693386774,0.24372461946231305 -0.6633266533066133,0.15810522838191043 -0.6593186372745492,0.1819786102039883 -0.6553106212424851,0.14436855823246486 -0.6513026052104209,8.52628894812193e-2 -0.6472945891783568,-9.035988394692995e-3 -0.6432865731462927,1.442394954479681e-2 -0.6392785571142285,-0.12425976947939443 -0.6352705410821644,-9.083871153915812e-2 -0.6312625250501003,-0.2924988690527889 -0.6272545090180361,-0.25695674180236316 -0.623246492985972,-0.33687889379014135 -0.6192384769539079,-0.23283573813555436 -0.6152304609218437,-0.2198410374290104 -0.6112224448897796,-0.17110914871312044 -0.6072144288577155,-0.23109709225093145 -0.6032064128256514,-7.493494586767246e-2 -0.5991983967935872,3.839943671724366e-2 -0.5951903807615231,0.12915868541335068 -0.591182364729459,0.15240631814955558 -0.5871743486973948,7.309647239007488e-2 -0.5831663326653307,0.14747119999685232 -0.5791583166332666,0.14753615537476722 -0.5751503006012024,0.12774712006388395 -0.5711422845691383,0.16078620357329748 -0.5671342685370742,0.1735207293478918 -0.56312625250501,0.10426950486511882 -0.5591182364729459,7.856966295402412e-2 -0.5551102204408818,9.458207579057609e-2 -0.5511022044088176,0.16261715879708138 -0.5470941883767535,0.29471318306221084 -0.5430861723446894,0.22556497517630564 -0.5390781563126252,0.11076639795012216 -0.5350701402805611,3.481437292244194e-2 -0.531062124248497,8.756425171813903e-2 -0.5270541082164328,6.63928635695315e-2 -0.5230460921843687,0.1266583003254908 -0.5190380761523046,0.18052341848825965 -0.5150300601202404,0.21761458467348443 -0.5110220440881764,0.24459283071445403 -0.5070140280561123,0.21652102973365422 -0.5030060120240482,0.16356714419033264 -0.498997995991984,7.703844275602445e-3 -0.4949899799599199,-5.9476081248452606e-2 -0.49098196392785576,4.526346845416257e-2 -0.4869739478957916,-5.07746107720366e-2 -0.4829659318637275,4.215445455031147e-2 -0.47895791583166336,6.486826094301656e-2 -0.47494989979959923,8.083119712152481e-2 -0.4709418837675351,9.452331492404437e-2 -0.46693386773547096,7.694554173069823e-2 -0.46292585170340683,3.930106059363275e-2 -0.4589178356713427,0.1323457446926748 -0.45490981963927857,0.22960779319728875 -0.45090180360721444,0.21556821722511066 -0.4468937875751503,0.27697100830127636 -0.44288577154308617,0.18653800964035122 -0.43887775551102204,0.17234170703936608 -0.434869739478958,0.13009827281435132 -0.4308617234468939,7.011830771034522e-2 -0.42685370741482975,2.0143120201439046e-3 -0.4228456913827656,-4.056282339118056e-2 -0.4188376753507015,-1.4427551723480203e-2 -0.41482965931863736,5.154155266624111e-2 -0.4108216432865732,4.462841184427213e-2 -0.4068136272545091,0.15093098073052946 -0.40280561122244496,0.1372885704354992 -0.3987975951903808,8.673677363943422e-4 -0.3947895791583167,9.561123443568992e-2 -0.39078156312625256,0.10364159000218742 -0.38677354709418843,0.23391413671059452 -0.3827655310621243,0.2119422226156369 -0.37875751503006017,0.13855962432220592 -0.37474949899799603,0.10637608124035802 -0.3707414829659319,4.33652421126729e-2 -0.36673346693386777,8.117308412501412e-2 -0.36272545090180364,6.914021614860266e-2 -0.3587174348697395,0.13276063259979953 -0.35470941883767537,0.10774407395665131 -0.35070140280561124,0.10759761531201911 -0.3466933867735471,-6.775244048562268e-2 -0.342685370741483,-0.11153489226926916 -0.33867735470941884,-0.11485258129212816 -0.3346693386773547,-0.1293738350204875 -0.3306613226452907,-9.553525497822735e-3 -0.32665330661322656,0.3621681306512463 -0.3226452905811624,2.2936004365063545e-2 -0.3186372745490983,0.10721609314890196 -0.31462925851703416,-0.22783877512449335 -0.31062124248497003,-0.24042667304668797 -0.3066132264529059,1.8172838613761455e-2 -0.30260521042084176,-2.434762477777186e-3 -0.29859719438877763,4.336636840735525e-2 -0.2945891783567135,0.10243508450040867 -0.29058116232464937,0.40493605339807326 -0.28657314629258523,8.939400746865506e-2 -0.2825651302605211,0.3035335394787775 -0.27855711422845697,0.35336816936523385 -0.27454909819639284,0.11285992080271151 -0.2705410821643287,-4.261616828780146e-2 -0.2665330661322646,-0.1738056013966235 -0.26252505010020044,-0.1091947443874135 -0.2585170340681363,-0.1769801569251228 -0.2545090180360722,-0.24055636055086826 -0.25050100200400804,-0.3497992719962588 -0.2464929859719439,-0.31919275344133236 -0.24248496993987978,-0.22304676048073524 -0.23847695390781565,-3.5185207401595586e-2 -0.23446893787575152,-3.189771743521519e-2 -0.2304609218436875,1.8827477508775614e-2 -0.22645290581162336,-5.063772814065837e-2 -0.22244488977955923,-6.935439571229529e-2 -0.2184368737474951,3.197445410392025e-2 -0.21442885771543096,0.13179789254933721 -0.21042084168336683,0.1003844070428287 -0.2064128256513027,0.12405903634464027 -0.20240480961923857,5.983849302740851e-2 -0.19839679358717444,3.795338385141561e-2 -0.1943887775551103,-2.0250404631017793e-2 -0.19038076152304617,-7.560318858945481e-3 -0.18637274549098204,-4.1873116260882526e-2 -0.1823647294589179,-7.621227900451377e-2 -0.17835671342685377,8.367447326077376e-2 -0.17434869739478964,8.830138353331995e-2 -0.1703406813627255,0.2154067653072555 -0.16633266533066138,0.1913277999524437 -0.16232464929859725,0.18312205003139992 -0.1583166332665331,0.1490403524601288 -0.15430861723446898,0.14413636558927362 -0.15030060120240485,0.19995393778170978 -0.14629258517034072,0.25943852109794746 -0.14228456913827658,0.24597093608502252 -0.13827655310621245,0.2816582992580639 -0.13426853707414832,0.3123714486608929 -0.1302605210420842,0.34390516679055416 -0.12625250501002017,0.3801015432238738 -0.12224448897795603,0.16706200670260452 -0.1182364729458919,7.748766600538526e-2 -0.11422845691382777,6.600081929084417e-2 -0.11022044088176364,-3.371119881006579e-3 -0.1062124248496995,-2.383698761369546e-2 -0.10220440881763537,0.1052612619571246 -9.819639278557124e-2,-4.314867101539144e-2 -9.418837675350711e-2,-9.159132270325454e-2 -9.018036072144298e-2,-0.14529917474864806 -8.617234468937884e-2,-0.1670707070490124 -8.216432865731471e-2,-0.18676556582449177 -7.815631262525058e-2,-0.1859738666156373 -7.414829659318645e-2,-0.16714576984766882 -7.014028056112231e-2,-0.18709284166241114 -6.613226452905818e-2,-0.19090448602126275 -6.212424849699405e-2,-0.19735671806752364 -5.811623246492992e-2,-0.19596732414490248 -5.4108216432865786e-2,-0.16839874536770627 -5.010020040080165e-2,-0.16913896527853733 -4.609218436873752e-2,-0.16899942834114845 -4.208416833667339e-2,-0.15717113948275774 -3.8076152304609256e-2,-0.1633378157693287 -3.4068136272545124e-2,-0.16694326227558598 -3.0060120240480992e-2,-0.11007401370415171 -2.605210420841686e-2,-8.90048426776916e-2 -2.204408817635284e-2,-9.120861260903712e-2 -1.8036072144288706e-2,-6.995075883823776e-2 -1.4028056112224574e-2,-5.679015423542477e-2 -1.0020040080160442e-2,-7.784555584208819e-2 -6.012024048096309e-3,-0.13278723999138353 -2.004008016032177e-3,-0.13616622808062306 2.004008016031955e-3,-0.13965665332872634 6.012024048096087e-3,-3.795618055014449e-2 1.002004008016022e-2,-2.8560077398488093e-2 1.4028056112224352e-2,-6.44743719292723e-2 1.8036072144288484e-2,2.5202855160914583e-2 2.2044088176352616e-2,1.994491205367893e-2 2.605210420841675e-2,1.720852041216031e-2 3.006012024048088e-2,-4.234541860629015e-2 3.406813627254501e-2,1.4303335298082198e-2 3.8076152304609145e-2,4.8517694261899225e-3 4.208416833667328e-2,-3.1917956194353e-2 4.609218436873741e-2,-6.587057376560523e-2 5.010020040080154e-2,-0.1336339170335341 5.4108216432865675e-2,-4.0533147277929116e-2 5.811623246492981e-2,-0.13024147249663887 6.212424849699394e-2,-0.1738464073563739 6.613226452905807e-2,-0.29957299094136014 7.01402805611222e-2,-0.4285464772355905 7.414829659318634e-2,-0.4695835169655538 7.815631262525047e-2,-0.16502022084894374 8.21643286573146e-2,-0.1385282567557211 8.617234468937873e-2,-4.7972938390522746e-2 9.018036072144286e-2,-8.207128683620213e-2 9.4188376753507e-2,-2.0528787026452444e-2 9.819639278557113e-2,1.7911773215843585e-2 0.10220440881763526,-1.398462433122405e-2 0.1062124248496994,-9.812519950013432e-2 0.11022044088176353,0.10111561464256391 0.11422845691382766,-0.15532834204896995 0.11823647294589179,-0.16570638866107357 0.12224448897795592,-0.10450694918101111 0.12625250501002006,-0.14526749292160568 0.13026052104208397,-0.11744950323720127 0.1342685370741481,-5.196958728447376e-2 0.13827655310621223,6.608613164760324e-2 0.14228456913827636,5.166152727611417e-2 0.1462925851703405,5.757437184456288e-2 0.15030060120240463,6.320598609966349e-2 0.15430861723446876,0.10301645530559711 0.1583166332665329,9.268316891396938e-2 0.16232464929859702,-1.9248125326328802e-2 0.16633266533066116,1.2518983312482856e-2 0.1703406813627253,-9.748634494405994e-3 0.17434869739478942,8.36082409537911e-2 0.17835671342685355,4.411355978690262e-2 0.18236472945891768,2.4854293601121957e-2 0.18637274549098182,-4.905319151107479e-2 0.19038076152304595,-4.28728069118367e-2 0.19438877755511008,-4.966407257520411e-2 0.1983967935871742,0.1402243532670709 0.20240480961923835,5.6079929423613006e-2 0.20641282565130248,1.4372746800758451e-2 0.2104208416833666,9.650929594907448e-2 0.21442885771543074,8.442355068884394e-2 0.21843687374749488,6.881335429531421e-2 0.222444889779559,-0.1526790571558556 0.22645290581162314,-0.21979613733487646 0.23046092184368727,9.146468922170803e-3 0.2344689378757514,-8.913384858868689e-2 0.23847695390781554,-0.22692426090434115 0.24248496993987967,-0.23080342890496774 0.2464929859719438,-0.24023253763974917 0.25050100200400793,-0.21185170990324753 0.25450901803607207,-0.14724678045453365 0.2585170340681362,-0.19183537403711304 0.26252505010020033,-0.2258186838895162 0.26653306613226446,-0.25738462802043094 0.2705410821643286,-0.21019744662954065 0.2745490981963927,-0.1635492196450592 0.27855711422845686,-0.1843649572825986 0.282565130260521,-0.16935425913504876 0.2865731462925851,-9.867879914913447e-2 0.29058116232464926,-0.10742581226436188 0.2945891783567134,-7.114826548779674e-2 0.2985971943887775,-4.789167696282004e-2 0.30260521042084165,-5.344743617170433e-2 0.3066132264529058,-1.7479957484686448e-2 0.3106212424849699,-1.4743032183183402e-2 0.31462925851703405,2.0839692277953292e-2 0.3186372745490982,-3.73662442418673e-2 0.3226452905811623,-7.739938587819983e-2 0.32665330661322645,-0.12437858232543098 0.3306613226452906,-0.14702831140392691 0.3346693386773545,-0.14072593327256366 0.3386773547094186,-0.12791501713293052 0.34268537074148275,-0.13536296585606833 0.3466933867735469,-0.1299108440610366 0.350701402805611,-0.13003851917129894 0.35470941883767515,-0.1040836606865696 0.3587174348697393,-0.10245659138539609 0.3627254509018034,-7.382419063099832e-2 0.36673346693386755,-7.662585856516835e-2 0.3707414829659317,-8.332341982015445e-2 0.3747494989979958,-9.773267199463131e-2 0.37875751503005994,-0.10113458989983581 0.3827655310621241,-8.771176943458192e-2 0.3867735470941882,-5.922891562916566e-2 0.39078156312625234,-1.5585300503523802e-2 0.3947895791583165,-6.786610274208238e-3 0.3987975951903806,4.1355647864182055e-2 0.40280561122244474,1.7879901061857828e-2 0.40681362725450887,-2.6071036793232638e-2 0.410821643286573,-2.6451121702151803e-2 0.41482965931863713,6.640221195230056e-3 0.41883767535070127,1.5890229858712857e-2 0.4228456913827654,5.64586600377307e-2 0.42685370741482953,3.6741084644319466e-2 0.43086172344689366,-3.293269732527904e-2 0.4348697394789578,-0.12883599468459284 0.4388777555110219,-9.160101389324016e-2 0.44288577154308606,-0.1710987105466496 0.4468937875751502,-0.14205037714451985 0.4509018036072143,-4.493612613222209e-2 0.45490981963927846,6.395683882480685e-3 0.4589178356713426,-7.288768391982914e-2 0.4629258517034067,2.042900354919097e-2 0.46693386773547085,-1.2343929240382745e-2 0.470941883767535,-5.729914311043516e-2 0.4749498997995991,-0.1545603191008288 0.47895791583166325,-0.17548262480352494 0.4829659318637274,-0.1801875415375287 0.4869739478957915,-4.15386456391198e-2 0.49098196392785565,-0.17696582172186748 0.4949899799599198,-0.20107807624876717 0.4989979959919839,-0.3119313640064735 0.503006012024048,-0.22221245881106022 0.5070140280561122,-6.63395447294236e-2 0.5110220440881763,-0.19759516900840868 0.5150300601202404,0.14699142725243547 0.5190380761523046,9.319021724179594e-2 0.5230460921843687,-7.489340858223703e-2 0.5270541082164328,-0.2023502248543234 0.531062124248497,-0.10868537429045844 0.5350701402805611,-0.18892780305733547 0.539078156312625,-0.1844685593232035 0.5430861723446891,6.99314672721234e-2 0.5470941883767533,-4.1516608362694774e-2 0.5511022044088174,-1.8227362889693066e-2 0.5551102204408815,-7.66050497813856e-2 0.5591182364729457,-0.15846125590730653 0.5631262525050098,-0.16219314243257488 0.5671342685370739,-0.11070251479074045 0.5711422845691381,-0.1592552892987269 0.5751503006012022,-0.20483481634604683 0.5791583166332663,-0.20443036031253903 0.5831663326653305,-0.1996243698998731 0.5871743486973946,-0.19755880198120623 0.5911823647294587,-0.20533099119023923 0.5951903807615229,-0.20745284150362964 0.599198396793587,-0.20565563698554057 0.6032064128256511,-0.20438706183980426 0.6072144288577153,-0.2015864460298653 0.6112224448897794,-0.20330719993208157 0.6152304609218435,-0.20681800241224768 0.6192384769539077,-0.22722673674496974 0.6232464929859718,-0.2313580093684987 0.6272545090180359,-0.26860469399077835 0.6312625250501,-0.22160494020011745 0.6352705410821642,-0.23925671795045322 0.6392785571142283,-0.27426300549349003 0.6432865731462925,-0.22455296474038766 0.6472945891783566,-0.28563207168564586 0.6513026052104207,-0.2977817188378772 0.6553106212424848,-0.25761411222313546 0.659318637274549,-0.18160674523930864 0.6633266533066131,-0.17757537982482818 0.6673346693386772,-0.14682849896384642 0.6713426853707414,-0.13946096026524912 0.6753507014028055,-0.13825538422510164 0.6793587174348696,-0.12268755966908129 0.6833667334669338,-0.1209551217748327 0.6873747494989979,-0.10229751989540758 0.691382765531062,-0.10218016618216696 0.6953907815631262,-9.832407969607837e-2 0.6993987975951903,-0.10681921980791609 0.7034068136272544,-7.809891212406661e-2 0.7074148296593186,-9.241355019135089e-2 0.7114228456913827,-8.054354943108122e-2 0.7154308617234468,-7.294969764177639e-2 0.719438877755511,-4.668918767223884e-2 0.7234468937875751,-4.239051053431031e-3 0.7274549098196392,-2.2352913657575635e-2 0.7314629258517034,1.437466905274687e-3 0.7354709418837675,-4.542064826782721e-2 0.7394789579158316,7.176873999124228e-2 0.7434869739478958,9.82387116116013e-2 0.7474949899799597,6.451256002508116e-2 0.7515030060120238,5.50118537102714e-2 0.7555110220440879,7.655874292710552e-2 0.7595190380761521,9.607744151458303e-2 0.7635270541082162,3.3663066893194205e-2 0.7675350701402803,3.874391124076798e-2 0.7715430861723445,2.581953895181832e-2 0.7755511022044086,1.5404687015463825e-2 0.7795591182364727,0.17491621519024841 0.7835671342685369,0.14964884617838187 0.787575150300601,9.670304053781431e-2 0.7915831663326651,-3.304669375364e-2 0.7955911823647293,-0.10107285860253878 0.7995991983967934,-6.953169464863296e-2 0.8036072144288575,0.11921379295260354 0.8076152304609217,0.14003111684718372 0.8116232464929858,0.21655327952492487 0.8156312625250499,5.754443461817521e-2 0.819639278557114,-0.158145662981229 0.8236472945891782,-0.2604529399659353 0.8276553106212423,-0.1489504283109705 0.8316633266533064,-0.1369337924837064 0.8356713426853706,2.1810336754264414e-2 0.8396793587174347,-2.9370242742901898e-2 0.8436873747494988,-5.577467023922078e-2 0.847695390781563,-2.3345816808853503e-2 0.8517034068136271,0.11000089433697147 0.8557114228456912,9.299393428411495e-2 0.8597194388777554,0.182510274538299 0.8637274549098195,0.16487857483556018 0.8677354709418836,0.13362876584107997 0.8717434869739478,0.1878427510072045 0.8757515030060119,0.2501890887496571 0.879759519038076,0.2329190606667929 0.8837675350701402,0.19129642258602625 0.8877755511022043,0.2721694757054668 0.8917835671342684,0.2297135206703706 0.8957915831663326,5.016897456526542e-2 0.8997995991983967,8.292937720625126e-2 0.9038076152304608,0.22699934113547832 0.907815631262525,8.960521970479846e-2 0.9118236472945891,0.11292930243435739 0.9158316633266532,6.64819406071217e-2 0.9198396793587174,0.11279538698530339 0.9238476953907815,0.17918649963668487 0.9278557114228456,0.12775198933801235 0.9318637274549098,0.19082571459345965 0.9358717434869739,0.15755334254455033 0.939879759519038,0.16138504148838545 0.9438877755511021,0.24653830631798207 0.9478957915831663,0.26601622869076674 0.9519038076152302,0.2073697914386255 0.9559118236472943,0.19000236258487013 0.9599198396793585,0.18247369003497027 0.9639278557114226,4.400126678976629e-2 0.9679358717434867,4.3899406327129575e-2 0.9719438877755509,-2.9997976455713227e-2 0.975951903807615,-1.10101005716563e-2 0.9799599198396791,-3.3043036066411235e-2 0.9839679358717432,0.13316137990851318 0.9879759519038074,3.2408704034597835e-2 0.9919839679358715,-0.11261764818333642 0.9959919839679356,-0.2323095684553479 0.9999999999999998,-0.25852636317534883" /></g><g stroke-width="5.0e-3" stroke="#382A8C" fill="none" stroke-opacity="0.5"><polyline points="-1.0,0.15784514492932483 -0.9959919839679359,0.14906864614581777 -0.9919839679358717,0.10017495181154928 -0.9879759519038076,5.7649321066192694e-2 -0.9839679358717435,5.8807843102931356e-2 -0.9799599198396793,8.439730776532212e-2 -0.9759519038076152,0.10793009166809636 -0.9719438877755511,0.10631162337075278 -0.9679358717434869,5.3890060883550917e-2 -0.9639278557114228,1.609539188024245e-2 -0.9599198396793587,6.888659182531925e-2 -0.9559118236472945,0.11339989357917746 -0.9519038076152304,0.1643914039121956 -0.9478957915831663,0.14755821838122624 -0.9438877755511023,0.11074693664730556 -0.9398797595190381,0.10341429260613816 -0.935871743486974,0.10718606467318814 -0.9318637274549099,9.393675508926519e-2 -0.9278557114228457,4.2481156146736865e-2 -0.9238476953907816,4.961108294348687e-2 -0.9198396793587175,7.446224406993157e-2 -0.9158316633266533,9.638188374083118e-2 -0.9118236472945892,0.10104579457600871 -0.9078156312625251,9.751423803576298e-2 -0.9038076152304609,0.14593396999395658 -0.8997995991983968,0.14269963101839822 -0.8957915831663327,0.15006354600422084 -0.8917835671342685,0.224715275982947 -0.8877755511022044,0.28637851163038974 -0.8837675350701403,0.19537818846550004 -0.8797595190380761,0.2517361931338763 -0.875751503006012,0.26173389148426507 -0.8717434869739479,0.21530951916104585 -0.8677354709418837,0.2834497116257076 -0.8637274549098196,0.24019405924522585 -0.8597194388777555,0.20189837958210677 -0.8557114228456915,0.18003756330055948 -0.8517034068136273,0.24811426468305803 -0.8476953907815632,0.23729277896565532 -0.8436873747494991,0.18366497620053812 -0.8396793587174349,0.2020478948570988 -0.8356713426853708,0.17653189341966563 -0.8316633266533067,0.18636180875518904 -0.8276553106212425,0.1621607082183537 -0.8236472945891784,0.13114355335917743 -0.8196392785571143,0.1298656084924455 -0.8156312625250501,0.14826806609695847 -0.811623246492986,0.17442666003994112 -0.8076152304609219,0.17502115178956112 -0.8036072144288577,0.2133457208104717 -0.7995991983967936,0.20844496935436274 -0.7955911823647295,0.17955252574795977 -0.7915831663326653,0.17712670177817358 -0.7875751503006012,0.20003203538802794 -0.7835671342685371,0.19357462424815058 -0.779559118236473,0.21302815369399813 -0.7755511022044088,0.21922058279601808 -0.7715430861723447,0.18621806304306876 -0.7675350701402806,0.1778844127489827 -0.7635270541082164,0.17918697436082515 -0.7595190380761523,0.15597409727551365 -0.7555110220440882,0.13418003920952687 -0.751503006012024,0.13108000376748075 -0.7474949899799599,0.13002716429086075 -0.7434869739478958,0.1472660951856652 -0.7394789579158316,0.13881509819317728 -0.7354709418837675,0.14168869682404112 -0.7314629258517034,0.14844190762681853 -0.7274549098196392,0.13342283116679698 -0.7234468937875751,0.14113293899317741 -0.719438877755511,0.1351926869875511 -0.7154308617234469,0.14025993739533632 -0.7114228456913828,0.14583942436545194 -0.7074148296593187,0.16939608759678682 -0.7034068136272545,0.14547792689217393 -0.6993987975951904,0.15989366803246702 -0.6953907815631263,0.1398866390066924 -0.6913827655310621,0.1321111895999697 -0.687374749498998,0.1316400623702702 -0.6833667334669339,0.11715491187444976 -0.6793587174348698,0.11944264786997488 -0.6753507014028056,0.11488190971017775 -0.6713426853707415,0.11398877132304075 -0.6673346693386774,0.11200590294286628 -0.6633266533066133,0.11964664978502548 -0.6593186372745492,0.11657190577270227 -0.6553106212424851,0.11899456826409527 -0.6513026052104209,0.12300731903308937 -0.6472945891783568,0.12968146832265864 -0.6432865731462927,0.12791608956587125 -0.6392785571142285,0.13740694914205515 -0.6352705410821644,0.1354634190048442 -0.6312625250501003,0.15412101442122916 -0.6272545090180361,0.15154044402647254 -0.623246492985972,0.16310867340828944 -0.6192384769539079,0.15552331647174855 -0.6152304609218437,0.15489942061006284 -0.6112224448897796,0.1515569515656487 -0.6072144288577155,0.15765119595824018 -0.6032064128256514,0.14850178149210025 -0.5991983967935872,0.1397674709497682 -0.5951903807615231,0.13096667731148404 -0.591182364729459,0.12779139245566562 -0.5871743486973948,0.13597160438465833 -0.5831663326653307,0.12792412760911498 -0.5791583166332666,0.12736655963722354 -0.5751503006012024,0.12887362726150942 -0.5711422845691383,0.12581150127939617 -0.5671342685370742,0.1244374867042411 -0.56312625250501,0.1282402344983265 -0.5591182364729459,0.1293911160730295 -0.5551102204408818,0.12843717158449425 -0.5511022044088176,0.1256915289942795 -0.5470941883767535,0.1208304953709996 -0.5430861723446894,0.12325157173098505 -0.5390781563126252,0.1278073371980069 -0.5350701402805611,0.13165043744805555 -0.531062124248497,0.1293427245864069 -0.5270541082164328,0.13015510207619935 -0.5230460921843687,0.12824503142825788 -0.5190380761523046,0.1266294725033163 -0.5150300601202404,0.1255648044595522 -0.5110220440881764,0.1248616648117305 -0.5070140280561123,0.1251233908224107 -0.5030060120240482,0.12563003365598513 -0.498997995991984,0.12741765101442826 -0.4949899799599199,0.1283599137442371 -0.49098196392785576,0.1277600196403848 -0.4869739478957916,0.12915251471211875 -0.4829659318637275,0.12859475784383534 -0.47895791583166336,0.1283149545677003 -0.47494989979959923,0.12820652295304158 -0.4709418837675351,0.12819419141731236 -0.46693386773547096,0.12816553675229647 -0.46292585170340683,0.1279943870386101 -0.4589178356713427,0.12900488604448268 -0.45490981963927857,0.13049157804733602 -0.45090180360721444,0.13042030174007258 -0.4468937875751503,0.13171855347000827 -0.44288577154308617,0.13056036116265685 -0.43887775551102204,0.13040452084693266 -0.434869739478958,0.1296404322439756 -0.4308617234468939,0.12835957131165648 -0.42685370741482975,0.126620308393248 -0.4228456913827656,0.12535323984477964 -0.4188376753507015,0.12607205612589645 -0.41482965931863736,0.12798719333523267 -0.4108216432865732,0.12783675233895225 -0.4068136272545091,0.13119784104008958 -0.40280561122244496,0.1309361903239445 -0.3987975951903808,0.12641629927713527 -0.3947895791583167,0.13033213244411834 -0.39078156312625256,0.1308465551749518 -0.38677354709418843,0.13742328611154264 -0.3827655310621243,0.13650875537884882 -0.37875751503006017,0.13275751353230025 -0.37474949899799603,0.1309188719232569 -0.3707414829659319,0.12708165397652 -0.36673346693386777,0.1293942404738775 -0.36272545090180364,0.12871507564708456 -0.3587174348697395,0.1323097744783348 -0.35470941883767537,0.13106682076807402 -0.35070140280561124,0.1311761149340147 -0.3466933867735471,0.12019245120901029 -0.342685370741483,0.11291567343367659 -0.33867735470941884,0.11181685585469003 -0.3346693386773547,0.10934878837266188 -0.3306613226452907,8.370855992340015e-2 -0.32665330661322656,9.093675790564826e-2 -0.3226452905811624,8.784652032404161e-2 -0.3186372745490983,9.13823493466796e-2 -0.31462925851703416,8.688548155032816e-2 -0.31062124248497003,8.72375751484668e-2 -0.3066132264529059,0.10015169680471003 -0.30260521042084176,0.10048715328092978 -0.29859719438877763,0.10401708039754959 -0.2945891783567135,0.10832683598430387 -0.29058116232464937,0.13505237638506334 -0.28657314629258523,0.11434963475275256 -0.2825651302605211,0.13891194580893562 -0.27855711422845697,0.14797045759768046 -0.27454909819639284,0.1267962845046295 -0.2705410821643287,0.1114244290380389 -0.2665330661322646,9.67613016753962e-2 -0.26252505010020044,0.10630964758571065 -0.2585170340681363,9.840852214493323e-2 -0.2545090180360722,8.996720450023027e-2 -0.25050100200400804,6.677316538586003e-2 -0.2464929859719439,7.097395389506844e-2 -0.24248496993987978,8.563198106657122e-2 -0.23847695390781565,0.11701118517315506 -0.23446893787575152,0.11917028277347907 -0.2304609218436875,0.13067050173894423 -0.22645290581162336,0.11552052863401374 -0.22244488977955923,0.1121643262097749 -0.2184368737474951,0.13709650162991527 -0.21442885771543096,0.16412294003696815 -0.21042084168336683,0.15877766849641767 -0.2064128256513027,0.16817387805245632 -0.20240480961923857,0.14530384541548902 -0.19839679358717444,0.13996498712291372 -0.1943887775551103,0.10940561798112564 -0.19038076152304617,0.112936473980294 -0.18637274549098204,0.10063805176404944 -0.1823647294589179,8.499948600401497e-2 -0.17835671342685377,0.13908172955124798 -0.17434869739478964,0.14151076646171096 -0.1703406813627255,0.1816501346001732 -0.16633266533066138,0.17764756241957802 -0.16232464929859725,0.17757625027811502 -0.1583166332665331,0.16740625067223053 -0.15430861723446898,0.16716946616730333 -0.15030060120240485,0.1978063474962874 -0.14629258517034072,0.23044119878661312 -0.14228456913827658,0.2289871957828079 -0.13827655310621245,0.252834068479456 -0.13426853707414832,0.27665302858403823 -0.1302605210420842,0.3061556600833042 -0.12625250501002017,0.34214121751251686 -0.12224448897795603,0.23391913797213293 -0.1182364729458919,0.2129759417339694 -0.11422845691382777,0.2137366442195866 -0.11022044088176364,0.19385664863394397 -0.1062124248496995,0.18955078727776847 -0.10220440881763537,0.23621646299556948 -9.819639278557124e-2,0.1642718080778917 -9.418837675350711e-2,0.14785943085295078 -9.018036072144298e-2,0.12639088875035842 -8.617234468937884e-2,0.11684694410856117 -8.216432865731471e-2,0.10671245496761333 -7.815631262525058e-2,0.10620267434193043 -7.414829659318645e-2,0.11602984181910647 -7.014028056112231e-2,9.481380781137244e-2 -6.613226452905818e-2,8.988917002498908e-2 -6.212424849699405e-2,7.52648554010803e-2 -5.811623246492992e-2,5.165047513571941e-2 -5.4108216432865786e-2,7.931307350026884e-2 -5.010020040080165e-2,7.483417600370051e-2 -4.609218436873752e-2,7.19647336696696e-2 -4.208416833667339e-2,5.7124952195859224e-2 -3.8076152304609256e-2,7.119209459357778e-2 -3.4068136272545124e-2,7.339941283037588e-2 -3.0060120240480992e-2,4.902759406427737e-2 -2.605210420841686e-2,3.518257961286936e-2 -2.204408817635284e-2,3.376443907075738e-2 -1.8036072144288706e-2,2.331761125631454e-2 -1.4028056112224574e-2,1.622564878374122e-2 -1.0020040080160442e-2,2.0033657119756243e-2 -6.012024048096309e-3,3.554191257816619e-2 -2.004008016032177e-3,3.459307021229624e-2 2.004008016031955e-3,3.362871819054186e-2 6.012024048096087e-3,1.720620975057935e-2 1.002004008016022e-2,1.3258280288971303e-2 1.4028056112224352e-2,1.7343030327390208e-2 1.8036072144288484e-2,4.37516219551809e-3 2.2044088176352616e-2,2.778884424030348e-3 2.605210420841675e-2,8.913092220638186e-4 3.006012024048088e-2,5.9499393083179974e-3 3.406813627254501e-2,-1.0555465430752697e-3 3.8076152304609145e-2,-2.112574137214329e-3 4.208416833667328e-2,-7.708727015233174e-4 4.609218436873741e-2,2.3059239082318106e-4 5.010020040080154e-2,3.793306002395025e-3 5.4108216432865675e-2,-2.4790085779965443e-3 5.811623246492981e-2,2.110546484060727e-3 6.212424849699394e-2,3.57173654710613e-3 6.613226452905807e-2,1.0694229773427988e-2 7.01402805611222e-2,1.9322634274201e-2 7.414829659318634e-2,2.1444854435837657e-2 7.815631262525047e-2,1.188579403150497e-2 8.21643286573146e-2,9.63987392126242e-3 8.617234468937873e-2,4.71152861070967e-3 9.018036072144286e-2,5.7371111804465635e-3 9.4188376753507e-2,2.4876784655672446e-3 9.819639278557113e-2,2.178736063838116e-4 0.10220440881763526,6.193429732538891e-4 0.1062124248496994,3.025035146452748e-3 0.11022044088176353,-1.7604633492769306e-3 0.11422845691382766,1.58285672090549e-2 0.11823647294589179,1.664216673556368e-2 0.12224448897795592,1.2800708613625922e-2 0.12625250501002006,1.6315012003035034e-2 0.13026052104208397,1.450883929565877e-2 0.1342685370741481,1.1528291877288432e-2 0.13827655310621223,7.465363398013791e-3 0.14228456913827636,7.735893188954901e-3 0.1462925851703405,6.97187033945712e-3 0.15030060120240463,6.306529985373954e-3 0.15430861723446876,4.888903921095478e-3 0.1583166332665329,4.718630391809753e-3 0.16232464929859702,7.653695023784268e-3 0.16633266533066116,6.880185012574924e-3 0.1703406813627253,7.023598799032527e-3 0.17434869739478942,6.240102827227312e-3 0.17835671342685355,6.513449961006779e-3 0.18236472945891768,6.52723247200071e-3 0.18637274549098182,6.996649278768863e-3 0.19038076152304595,6.936867958958592e-3 0.19438877755511008,6.9256205470196175e-3 0.1983967935871742,8.162033750169329e-3 0.20240480961923835,8.237638005710202e-3 0.20641282565130248,8.192508911830043e-3 0.2104208416833666,8.905684547692638e-3 0.21442885771543074,8.9662670851966e-3 0.21843687374749488,9.020292190576984e-3 0.222444889779559,8.330834769144702e-3 0.22645290581162314,7.81148567982104e-3 0.23046092184368727,1.179477135621071e-2 0.2344689378757514,1.0817560152635852e-2 0.23847695390781554,1.0772604376848516e-2 0.24248496993987967,1.0442092954601856e-2 0.2464929859719438,9.825420269245766e-3 0.25050100200400793,1.0957795886025468e-2 0.25450901803607207,1.3944161158237545e-2 0.2585170340681362,1.5306032949160275e-2 0.26252505010020033,1.61514249639102e-2 0.26653306613226446,1.8107535903397087e-2 0.2705410821643286,1.8143865689361827e-2 0.2745490981963927,1.8112508612972145e-2 0.27855711422845686,2.036733838305599e-2 0.282565130260521,2.0055118359177837e-2 0.2865731462925851,2.0211992296223003e-2 0.29058116232464926,2.0419903087933677e-2 0.2945891783567134,1.9920117058675357e-2 0.2985971943887775,1.929149934663471e-2 0.30260521042084165,1.982942198908222e-2 0.3066132264529058,1.9264335629642193e-2 0.3106212424849699,1.8800809863621926e-2 0.31462925851703405,3.1381907568892364e-2 0.3186372745490982,3.288847814600521e-2 0.3226452905811623,3.389136160967576e-2 0.32665330661322645,3.650726279678129e-2 0.3306613226452906,3.7208861596803866e-2 0.3346693386773545,3.71164014528268e-2 0.3386773547094186,3.676561885986007e-2 0.34268537074148275,3.7800883001010255e-2 0.3466933867735469,3.7339518318500964e-2 0.350701402805611,3.75134514689025e-2 0.35470941883767515,4.20141417050352e-2 0.3587174348697393,4.297052368142795e-2 0.3627254509018034,4.755098600699337e-2 0.36673346693386755,4.688687432306854e-2 0.3707414829659317,4.5974143004155754e-2 0.3747494989979958,4.272798384464577e-2 0.37875751503005994,4.2002978095709076e-2 0.3827655310621241,4.3875979684803335e-2 0.3867735470941882,4.714368634283678e-2 0.39078156312625234,5.1930581459709635e-2 0.3947895791583165,5.337425718040356e-2 0.3987975951903806,5.8461173575481196e-2 0.40280561122244474,5.695079077628484e-2 0.40681362725450887,5.361688894881789e-2 0.410821643286573,5.4076372417963536e-2 0.41482965931863713,5.7248267941734376e-2 0.41883767535070127,5.859096671576791e-2 0.4228456913827654,6.2132241184480574e-2 0.42685370741482953,6.1675520469045286e-2 0.43086172344689366,5.8113465534050446e-2 0.4348697394789578,5.1974983521703544e-2 0.4388777555110219,5.501924644364237e-2 0.44288577154308606,4.886534721493879e-2 0.4468937875751502,5.1286989420466056e-2 0.4509018036072143,5.857149405094608e-2 0.45490981963927846,6.321028001378959e-2 0.4589178356713426,5.7072446222173834e-2 0.4629258517034067,6.544005898079325e-2 0.46693386773547085,6.286880297614006e-2 0.470941883767535,5.9146611265523896e-2 0.4749498997995991,4.7093305161457266e-2 0.47895791583166325,3.757387249113209e-2 0.4829659318637274,2.9902676433582798e-2 0.4869739478957915,1.5134240440374147e-2 0.49098196392785565,2.439686666698354e-2 0.4949899799599198,2.4662196560687688e-2 0.4989979959919839,3.884639221836145e-2 0.503006012024048,3.7489619374277194e-2 0.5070140280561122,3.599445897678322e-2 0.5110220440881763,4.3365254227129224e-2 0.5150300601202404,5.0277089155751076e-2 0.5190380761523046,4.980283080952114e-2 0.5230460921843687,4.982873259362525e-2 0.5270541082164328,4.8885348536792106e-2 0.531062124248497,5.179644824912755e-2 0.5350701402805611,5.070519459691519e-2 0.539078156312625,5.0888459585687607e-2 0.5430861723446891,6.36441802126097e-2 0.5470941883767533,6.019680462220356e-2 0.5511022044088174,6.178003972364893e-2 0.5551102204408815,5.965690392857764e-2 0.5591182364729457,5.676789822059625e-2 0.5631262525050098,5.662405695924716e-2 0.5671342685370739,5.974060250160412e-2 0.5711422845691381,5.753667363788495e-2 0.5751503006012022,5.5197995822703405e-2 0.5791583166332663,5.503247987594945e-2 0.5831663326653305,5.5203848961499546e-2 0.5871743486973946,5.523504659192097e-2 0.5911823647294587,5.4260410919833135e-2 0.5951903807615229,5.384853569254583e-2 0.599198396793587,5.406988616017583e-2 0.6032064128256511,5.466635088275118e-2 0.6072144288577153,5.4553648644076524e-2 0.6112224448897794,5.455984441605205e-2 0.6152304609218435,5.455929238031554e-2 0.6192384769539077,5.465299414235808e-2 0.6232464929859718,5.461272718685711e-2 0.6272545090180359,5.45158915512996e-2 0.6312625250501,5.570502821995299e-2 0.6352705410821642,5.536430189898772e-2 0.6392785571142283,5.466399095800878e-2 0.6432865731462925,5.602456668105149e-2 0.6472945891783566,5.489943586311141e-2 0.6513026052104207,5.544576271478496e-2 0.6553106212424848,5.6828730347128376e-2 0.659318637274549,6.0463379039770115e-2 0.6633266533066131,6.059461813647571e-2 0.6673346693386772,6.262332035559737e-2 0.6713426853707414,6.338252217625984e-2 0.6753507014028055,6.373284015666031e-2 0.6793587174348696,6.514048713367782e-2 0.6833667334669338,6.51816385576855e-2 0.6873747494989979,6.661811837500697e-2 0.691382765531062,6.659627747540464e-2 0.6953907815631262,6.684951701687308e-2 0.6993987975951903,6.654385422420228e-2 0.7034068136272544,6.805007745460234e-2 0.7074148296593186,6.752175622867801e-2 0.7114228456913827,6.812365913478036e-2 0.7154308617234468,6.854070072469404e-2 0.719438877755511,6.980199133042425e-2 0.7234468937875751,7.185223242900268e-2 0.7274549098196392,7.137175831376791e-2 0.7314629258517034,7.261160718809578e-2 0.7354709418837675,7.112503879409338e-2 0.7394789579158316,7.664214737970731e-2 0.7434869739478958,7.828565645078706e-2 0.7474949899799597,7.736193665808877e-2 0.7515030060120238,7.742380457112408e-2 0.7555110220440879,7.88119365585141e-2 0.7595190380761521,8.015885681697715e-2 0.7635270541082162,7.837012096298335e-2 0.7675350701402803,7.91060106323544e-2 0.7715430861723445,7.917928237132726e-2 0.7755511022044086,7.936443150355182e-2 0.7795591182364727,8.631525440286825e-2 0.7835671342685369,8.613993402190956e-2 0.787575150300601,8.491491289582759e-2 0.7915831663326651,8.063957828703333e-2 0.7955911823647293,7.837182697057288e-2 0.7995991983967934,8.011146761554927e-2 0.8036072144288575,8.84865184082641e-2 0.8076152304609217,9.023655133733716e-2 0.8116232464929858,9.451492818006019e-2 0.8156312625250499,8.885780856988718e-2 0.819639278557114,7.810544684553072e-2 0.8236472945891782,6.985710836539893e-2 0.8276553106212423,7.746819403219146e-2 0.8316633266533064,7.862568749031795e-2 0.8356713426853706,9.060964305425634e-2 0.8396793587174347,8.580700783754486e-2 0.8436873747494988,8.352455590610641e-2 0.847695390781563,8.672982920586136e-2 0.8517034068136271,9.86498986921952e-2 0.8557114228456912,9.77235347955197e-2 0.8597194388777554,0.10750026641274835 0.8637274549098195,0.1068338498287495 0.8677354709418836,0.104988082539899 0.8717434869739478,0.11093055968096116 0.8757515030060119,0.11775170770536958 0.879759519038076,0.11777971959495165 0.8837675350701402,0.11600355282382441 0.8877755511022043,0.1236710740207223 0.8917835671342684,0.12215563920148631 0.8957915831663326,0.11025087632964847 0.8997995991983967,0.11423905854309713 0.9038076152304608,0.12887073428968482 0.907815631262525,0.11441377087288152 0.9118236472945891,0.11949386743984564 0.9158316633266532,0.11266118249641988 0.9198396793587174,0.1207079686149819 0.9238476953907815,0.1323227460688472 0.9278557114228456,0.12493602111925806 0.9318637274549098,0.1374273661512928 0.9358717434869739,0.1324896412092585 0.939879759519038,0.1344858135502523 0.9438877755511021,0.15046003357283827 0.9478957915831663,0.15651920025981214 0.9519038076152302,0.14862586971736547 0.9559118236472943,0.14709739588123888 0.9599198396793585,0.1474609590325665 0.9639278557114226,0.12500869816345095 0.9679358717434867,9.183808368289959e-2 0.9719438877755509,0.11017384844808042 0.975951903807615,0.10715753294958369 0.9799599198396791,0.11159762062743833 0.9839679358717432,8.111416586744769e-2 0.9879759519038074,9.1779464811099e-2 0.9919839679358715,0.11529311700225775 0.9959919839679356,0.12994273634846076 0.9999999999999998,0.13303459408765367" /></g><g stroke-width="5.0e-3" stroke="#02C814" fill="none" stroke-opacity="0.5"><polyline points="-1.0,0.11768044529293259 -0.9959919839679359,0.11636125399658986 -0.9919839679358717,0.10918485195184707 -0.9879759519038076,0.10250142845316995 -0.9839679358717435,0.10270443229885273 -0.9799599198396793,0.10729600282508223 -0.9759519038076152,0.11156672735414519 -0.9719438877755511,0.11133137933871945 -0.9679358717434869,0.10305453985589119 -0.9639278557114228,9.643655960691272e-2 -0.9599198396793587,0.1068729999220947 -0.9559118236472945,0.11603814896189957 -0.9519038076152304,0.12705224029566775 -0.9478957915831663,0.12372912304783418 -0.9438877755511023,0.11648399451301822 -0.9398797595190381,0.11498527587923274 -0.935871743486974,0.11581922537057499 -0.9318637274549099,0.1131042477008184 -0.9278557114228457,0.10287093160695276 -0.9238476953907816,0.10440716103995079 -0.9198396793587175,0.10997078511611119 -0.9158316633266533,0.11493957118678932 -0.9118236472945892,0.11600492797102291 -0.9078156312625251,0.11524243086380065 -0.9038076152304609,0.12674084127346547 -0.8997995991983968,0.1260753798415955 -0.8957915831663327,0.12786713814645945 -0.8917835671342685,0.1477615108532171 -0.8877755511022044,0.16563129672853333 -0.8837675350701403,0.14364542172909506 -0.8797595190380761,0.16110377284005223 -0.875751503006012,0.16440289767357535 -0.8717434869739479,0.15153141711236418 -0.8677354709418837,0.17409523561875767 -0.8637274549098196,0.16144979019631828 -0.8597194388777555,0.14999175193736664 -0.8557114228456915,0.14336655527319675 -0.8517034068136273,0.16687858545153655 -0.8476953907815632,0.16368245698857403 -0.8436873747494991,0.14674888194179803 -0.8396793587174349,0.1532679028060288 -0.8356713426853708,0.1449973925148319 -0.8316633266533067,0.14859289427104877 -0.8276553106212425,0.14063111628981706 -0.8236472945891784,0.1302493190055517 -0.8196392785571143,0.12992991111609425 -0.8156312625250501,0.13653215589334522 -0.811623246492986,0.14601625513611 -0.8076152304609219,0.14643068300863032 -0.8036072144288577,0.16068320955731524 -0.7995991983967936,0.15920739160661507 -0.7955911823647295,0.1492141430640136 -0.7915831663326653,0.14853921154341593 -0.7875751503006012,0.15727113551095462 -0.7835671342685371,0.15514422020569973 -0.779559118236473,0.16271131396380045 -0.7755511022044088,0.16530445514110442 -0.7715430861723447,0.15345172307208155 -0.7675350701402806,0.15051370624935662 -0.7635270541082164,0.15119741114563479 -0.7595190380761523,0.14257153088570845 -0.7555110220440882,0.13433635838193697 -0.751503006012024,0.13321456105036383 -0.7474949899799599,0.13287925617738194 -0.7434869739478958,0.13983447721748316 -0.7394789579158316,0.13658424137282688 -0.7354709418837675,0.137832925059034 -0.7314629258517034,0.1406784172564165 -0.7274549098196392,0.13467189948972186 -0.7234468937875751,0.13793838705268885 -0.719438877755511,0.13555881175939083 -0.7154308617234469,0.13777002907882108 -0.7114228456913828,0.14023351444110066 -0.7074148296593187,0.1506434144694394 -0.7034068136272545,0.14057848778318377 -0.6993987975951904,0.14698627998827346 -0.6953907815631263,0.13841707547084076 -0.6913827655310621,0.1350763841462767 -0.687374749498998,0.13492515800273497 -0.6833667334669339,0.12844687638221142 -0.6793587174348698,0.12950580014203494 -0.6753507014028056,0.1274268176482043 -0.6713426853707415,0.12702145297462003 -0.6673346693386774,0.12609054362942318 -0.6633266533066133,0.12976592195458542 -0.6593186372745492,0.12828787088720967 -0.6553106212424851,0.12950380798065658 -0.6513026052104209,0.13154879964868943 -0.6472945891783568,0.13500736141275954 -0.6432865731462927,0.13413436411480556 -0.6392785571142285,0.13923822384319984 -0.6352705410821644,0.1382584709595165 -0.6312625250501003,0.14871525432301158 -0.6272545090180361,0.14743969549339941 -0.623246492985972,0.15402093516270376 -0.6192384769539079,0.14994896380921102 -0.6152304609218437,0.14971806392877962 -0.6112224448897796,0.14789383380975846 -0.6072144288577155,0.15164238379275063 -0.6032064128256514,0.14619415735756985 -0.5991983967935872,0.1409025489056045 -0.5951903807615231,0.13546370055243667 -0.591182364729459,0.13350523889560134 -0.5871743486973948,0.13871930017039247 -0.5831663326653307,0.1334673843351954 -0.5791583166332666,0.13311566860481533 -0.5751503006012024,0.13414310449642297 -0.5711422845691383,0.13198926035464836 -0.5671342685370742,0.13098850796639822 -0.56312625250501,0.13383501826509892 -0.5591182364729459,0.134749576158691 -0.5551102204408818,0.13397424206407715 -0.5511022044088176,0.13153515286055745 -0.5470941883767535,0.12683039331746343 -0.5430861723446894,0.128975977681845 -0.5390781563126252,0.13320038274646745 -0.5350701402805611,0.13688007223178805 -0.531062124248497,0.13448130985358836 -0.5270541082164328,0.13536408577725678 -0.5230460921843687,0.1330339482121663 -0.5190380761523046,0.13089595793407022 -0.5150300601202404,0.12936106220993993 -0.5110220440881764,0.1282190153564408 -0.5070140280561123,0.1286554750913249 -0.5030060120240482,0.12967682178950868 -0.498997995991984,0.1335893760583703 -0.4949899799599199,0.13585218768980262 -0.49098196392785576,0.13315805520046864 -0.4869739478957916,0.13717821724446394 -0.4829659318637275,0.1338471732234458 -0.47895791583166336,0.13256898772938241 -0.47494989979959923,0.1317222138550787 -0.4709418837675351,0.13105626747420884 -0.46693386773547096,0.1314862459342344 -0.46292585170340683,0.13246921440585951 -0.4589178356713427,0.13021831463316175 -0.45490981963927857,0.12747326616229687 -0.45090180360721444,0.12761601955659685 -0.4468937875751503,0.1256830989597456 -0.44288577154308617,0.12775678718553807 -0.43887775551102204,0.12794290133202335 -0.434869739478958,0.12880888545251773 -0.4308617234468939,0.13008724068403882 -0.42685370741482975,0.131650091602098 -0.4228456913827656,0.13264093259862186 -0.4188376753507015,0.1321939721981118 -0.41482965931863736,0.1311872873857714 -0.4108216432865732,0.1312577433083038 -0.4068136272545091,0.1298871165102381 -0.40280561122244496,0.1299839205525432 -0.3987975951903808,0.131884222697653 -0.3947895791583167,0.1305904837986137 -0.39078156312625256,0.1304072046081285 -0.38677354709418843,0.12864832018792188 -0.3827655310621243,0.1289161374008056 -0.37875751503006017,0.13002986315984744 -0.37474949899799603,0.1305144311932378 -0.3707414829659319,0.1314848245866233 -0.36673346693386777,0.13099869176942036 -0.36272545090180364,0.13112980211236686 -0.3587174348697395,0.13052429040484848 -0.35470941883767537,0.13072505958405867 -0.35070140280561124,0.1307027243304852 -0.3466933867735471,0.13249394443035345 -0.342685370741483,0.13371412216452117 -0.33867735470941884,0.13388191082664702 -0.3346693386773547,0.13421920591595032 -0.3306613226452907,0.14210819560770455 -0.32665330661322656,0.15053172426040107 -0.3226452905811624,0.14486950842368312 -0.3186372745490983,0.1477619654525707 -0.31462925851703416,0.13931319961255517 -0.31062124248497003,0.1396433788636583 -0.3066132264529059,0.14731018709607685 -0.30260521042084176,0.147668794707559 -0.29859719438877763,0.15003317115530024 -0.2945891783567135,0.1529667245491826 -0.29058116232464937,0.16836542382830255 -0.28657314629258523,0.15738510765600083 -0.2825651302605211,0.1686938240108361 -0.27855711422845697,0.17315990472420834 -0.27454909819639284,0.16302464166634445 -0.2705410821643287,0.15593088585762993 -0.2665330661322646,0.1490868042985684 -0.26252505010020044,0.15362567965379015 -0.2585170340681363,0.1500586791742633 -0.2545090180360722,0.1461229884440281 -0.25050100200400804,0.13338852107657567 -0.2464929859719439,0.1354263981291467 -0.24248496993987978,0.1421898500999743 -0.23847695390781565,0.156374051579934 -0.23446893787575152,0.15761897543867381 -0.2304609218436875,0.1631850851117193 -0.22645290581162336,0.15597952150327005 -0.22244488977955923,0.15459410519566097 -0.2184368737474951,0.16646368270420853 -0.21442885771543096,0.17940375904756511 -0.21042084168336683,0.17724181191097643 -0.2064128256513027,0.18207061314629258 -0.20240480961923857,0.1709456818134631 -0.19839679358717444,0.16867178031911384 -0.1943887775551103,0.1527685829091549 -0.19038076152304617,0.1546361534291948 -0.18637274549098204,0.1487880309816641 -0.1823647294589179,0.14105545584859203 -0.17835671342685377,0.16592725032495242 -0.17434869739478964,0.16734083445886155 -0.1703406813627255,0.1860725931692483 -0.16633266533066138,0.18465579317895986 -0.16232464929859725,0.1850312408458087 -0.1583166332665331,0.18061583595588132 -0.15430861723446898,0.18087295982165863 -0.15030060120240485,0.1959658033009436 -0.14629258517034072,0.2122436373761199 -0.14228456913827658,0.21212021312996981 -0.13827655310621245,0.22433314458561704 -0.13426853707414832,0.23672203862557584 -0.1302605210420842,0.2523284832448729 -0.12625250501002017,0.2718568686681485 -0.12224448897795603,0.22120499160607893 -0.1182364729458919,0.2123224387199884 -0.11422845691382777,0.21340796470198992 -0.11022044088176364,0.20476935091813175 -0.1062124248496995,0.20340388542965243 -0.10220440881763537,0.22602804777878072 -9.819639278557124e-2,0.19108283781822816 -9.418837675350711e-2,0.18382021791954067 -9.018036072144298e-2,0.17393020431254314 -8.617234468937884e-2,0.1697834380889795 -8.216432865731471e-2,0.16526634902107884 -7.815631262525058e-2,0.16544544565385016 -7.414829659318645e-2,0.17069360659951016 -7.014028056112231e-2,0.16024521895353278 -6.613226452905818e-2,0.15812609358591573 -6.212424849699405e-2,0.15087508190289467 -5.811623246492992e-2,0.13851980767508482 -5.4108216432865786e-2,0.15254810718609474 -5.010020040080165e-2,0.15051582743597425 -4.609218436873752e-2,0.14929625463472057 -4.208416833667339e-2,0.14145042442779632 -3.8076152304609256e-2,0.14906643618447268 -3.4068136272545124e-2,0.15053472950320795 -3.0060120240480992e-2,0.1365786791255027 -2.605210420841686e-2,0.12887112412820123 -2.204408817635284e-2,0.12822402179891923 -1.8036072144288706e-2,0.12228773296431006 -1.4028056112224574e-2,0.1182522606399452 -1.0020040080160442e-2,0.12050682814131597 -6.012024048096309e-3,0.12931891979032983 -2.004008016032177e-3,0.12889136633449427 2.004008016031955e-3,0.12844024991950626 6.012024048096087e-3,0.11771364177564558 1.002004008016022e-2,0.11530553998974347 1.4028056112224352e-2,0.11786526981010897 1.8036072144288484e-2,0.10904291435690583 2.2044088176352616e-2,0.10801620396296335 2.605210420841675e-2,0.10676851880362492 3.006012024048088e-2,0.11004842002396648 3.406813627254501e-2,0.10505163623600317 3.8076152304609145e-2,0.10429665654065395 4.208416833667328e-2,0.1052162437869098 4.609218436873741e-2,0.1059210051490454 5.010020040080154e-2,0.10848455951914548 5.4108216432865675e-2,0.10335807223925852 5.811623246492981e-2,0.10675444868508666 6.212424849699394e-2,0.10789562759719173 6.613226452905807e-2,0.11334789623001196 7.01402805611222e-2,0.1200257128858892 7.414829659318634e-2,0.12186374172830894 7.815631262525047e-2,0.11148803005980645 8.21643286573146e-2,0.10947700389991682 8.617234468937873e-2,0.10459611209295394 9.018036072144286e-2,0.10549979442689073 9.4188376753507e-2,0.10211396185824184 9.819639278557113e-2,9.96810783636467e-2 0.10220440881763526,0.10003824992526172 0.1062124248496994,0.10245345168009529 0.11022044088176353,9.53716714215993e-2 0.11422845691382766,0.11030032844595733 0.11823647294589179,0.11113203866382038 0.12224448897795592,0.10635544018241949 0.12625250501002006,0.1099643544668919 0.13026052104208397,0.10768799390408229 0.1342685370741481,0.1033582376286139 0.13827655310621223,9.606840905126274e-2 0.14228456913827636,9.632934360875456e-2 0.1462925851703405,9.514400813725266e-2 0.15030060120240463,9.401950345608145e-2 0.15430861723446876,9.127212022970949e-2 0.1583166332665329,9.086339898721535e-2 0.16232464929859702,9.525612062995403e-2 0.16633266533066116,9.330479883453596e-2 0.1703406813627253,9.35450996215415e-2 0.17434869739478942,8.979265519141022e-2 0.17835671342685355,9.046419489127355e-2 0.18236472945891768,9.041729587489084e-2 0.18637274549098182,9.209543647489604e-2 0.19038076152304595,9.140513249229737e-2 0.19438877755511008,9.105943092390495e-2 0.1983967935871742,8.643775436043671e-2 0.20240480961923835,8.801347858412989e-2 0.20641282565130248,8.848867016275369e-2 0.2104208416833666,8.616786273445565e-2 0.21442885771543074,8.583162465665645e-2 0.21843687374749488,8.556729862819229e-2 0.222444889779559,9.01666698152016e-2 0.22645290581162314,9.157662976468028e-2 0.23046092184368727,8.704266121051213e-2 0.2344689378757514,8.976151437246599e-2 0.23847695390781554,9.972021011884324e-2 0.24248496993987967,0.1007960121322734 0.2464929859719438,0.10262660506043603 0.25050100200400793,0.10091249738547309 0.25450901803607207,0.11527902342306778 0.2585170340681362,0.11120546711453178 0.26252505010020033,0.1082824335136599 0.26653306613226446,0.10390956034480064 0.2705410821643286,0.10735211821475127 0.2745490981963927,0.11126042806473052 0.27855711422845686,0.10716610303893753 0.282565130260521,0.10884730848153629 0.2865731462925851,0.11558054780674071 0.29058116232464926,0.1150216489267552 0.2945891783567134,0.11963009205209357 0.2985971943887775,0.12338169180976971 0.30260521042084165,0.122439154399139 0.3066132264529058,0.1294678561803061 0.3106212424849699,0.13094768139434398 0.31462925851703405,0.12158588642074208 0.3186372745490982,0.11766374401152341 0.3226452905811623,0.11475464737969049 0.32665330661322645,0.10990242069568829 0.3306613226452906,0.10777316550487398 0.3346693386773545,0.10812438546103692 0.3386773547094186,0.10931386203830695 0.34268537074148275,0.10754128518424605 0.3466933867735469,0.10849003994362177 0.350701402805611,0.10821616720737626 0.35470941883767515,0.1041961551261712 0.3587174348697393,0.10302614484406292 0.3627254509018034,9.922773967286153e-2 0.36673346693386755,9.999996536864503e-2 0.3707414829659317,0.10097105233468345 0.3747494989979958,0.10561068844643468 0.37875751503005994,0.10631829469454218 0.3827655310621241,0.10488826075635571 0.3867735470941882,0.10273977698348963 0.39078156312625234,9.993274779684624e-2 0.3947895791583165,9.893707748655639e-2 0.3987975951903806,9.623871752265367e-2 0.40280561122244474,9.716607810310246e-2 0.40681362725450887,9.933841931252485e-2 0.410821643286573,9.903713073005016e-2 0.41482965931863713,9.757383425779093e-2 0.41883767535070127,9.69152159540757e-2 0.4228456913827654,9.548565165732092e-2 0.42685370741482953,9.55974980662796e-2 0.43086172344689366,9.700489866370693e-2 0.4348697394789578,9.956888780985274e-2 0.4388777555110219,9.855368439374429e-2 0.44288577154308606,0.10089558631516693 0.4468937875751502,0.10014004420300537 0.4509018036072143,9.827214418966346e-2 0.45490981963927846,9.702641706535647e-2 0.4589178356713426,9.890684002236622e-2 0.4629258517034067,9.70187478294865e-2 0.46693386773547085,9.765881301576756e-2 0.470941883767535,9.857622477509609e-2 0.4749498997995991,0.10224506497803376 0.47895791583166325,0.105242284413046 0.4829659318637274,0.10762585036740008 0.4869739478957915,0.11872842964555708 0.49098196392785565,0.11463396616351862 0.4949899799599198,0.1144564058511997 0.4989979959919839,0.10898790766060779 0.503006012024048,0.11173970646713355 0.5070140280561122,0.11685907737957962 0.5110220440881763,0.11195006937274365 0.5150300601202404,0.1254090406101256 0.5190380761523046,0.12441997817361372 0.5230460921843687,0.1187400468116886 0.5270541082164328,0.11389689683124499 0.531062124248497,0.11773593905932894 0.5350701402805611,0.11440002705450292 0.539078156312625,0.11476462180102831 0.5430861723446891,0.12757742844144437 0.5470941883767533,0.1227711036086202 0.5511022044088174,0.12442572214061748 0.5551102204408815,0.1215943737533452 0.5591182364729457,0.11629801776998905 0.5631262525050098,0.11614747666039382 0.5671342685370739,0.11955164321694994 0.5711422845691381,0.11510624471901265 0.5751503006012022,0.10988025251148165 0.5791583166332663,0.10964228377768165 0.5831663326653305,0.10985569286313196 0.5871743486973946,0.10988206448483184 0.5911823647294587,0.10708896753777658 0.5951903807615229,0.1060601686803796 0.599198396793587,0.10654199163235178 0.6032064128256511,0.10803534795888764 0.6072144288577153,0.1071721442957288 0.6112224448897794,0.10719885628600845 0.6152304609218435,0.10735042980160658 0.6192384769539077,0.10944981532664666 0.6232464929859718,0.1096313085722278 0.6272545090180359,0.11307748674423851 0.6312625250501,0.11106033493490347 0.6352705410821642,0.11208883715388485 0.6392785571142283,0.11417712517914336 0.6432865731462925,0.11260919585512125 0.6472945891783566,0.11733183154728882 0.6513026052104207,0.1243930575396423 0.6553106212424848,0.12172386042878086 0.659318637274549,0.11720762578546579 0.6633266533066131,0.11902476844161297 0.6673346693386772,0.12531435831578203 0.6713426853707414,0.12219944538215027 0.6753507014028055,0.1200182983788155 0.6793587174348696,0.11643129647430361 0.6833667334669338,0.11706935415897057 0.6873747494989979,0.1138791762893206 0.691382765531062,0.11474056225835821 0.6953907815631262,0.11391593537897904 0.6993987975951903,0.11543484630430167 0.7034068136272544,0.11336318439989462 0.7074148296593186,0.11471505368381696 0.7114228456913827,0.11392478841441833 0.7154308617234468,0.113439826816915 0.719438877755511,0.11233420649562087 0.7234468937875751,0.11084113042598198 0.7274549098196392,0.11121687672002556 0.7314629258517034,0.11041714872602915 0.7354709418837675,0.11142585201500815 0.7394789579158316,0.10913730679261446 0.7434869739478958,0.10827452419649636 0.7474949899799597,0.10872347147624489 0.7515030060120238,0.10865837593018318 0.7555110220440879,0.10810014096782533 0.7595190380761521,0.1076004034798495 0.7635270541082162,0.10819655870586142 0.7675350701402803,0.1079467115402099 0.7715430861723445,0.10789220561853113 0.7755511022044086,0.1078132786018759 0.7795591182364727,0.1064960773635315 0.7835671342685369,0.10649484941306464 0.787575150300601,0.10671098476516894 0.7915831663326651,0.10756397329353329 0.7955911823647293,0.10794923242651444 0.7995991983967934,0.10766355654839171 0.8036072144288575,0.10666690407284485 0.8076152304609217,0.10640264230157986 0.8116232464929858,0.10588387709391489 0.8156312625250499,0.10662083736031425 0.819639278557114,0.10818683549616948 0.8236472945891782,0.1093559564259508 0.8276553106212423,0.10865309878454676 0.8316633266533064,0.10851777276461483 0.8356713426853706,0.10767475997879355 0.8396793587174347,0.10817858100175254 0.8436873747494988,0.10837473411797005 0.847695390781563,0.10812561193473424 0.8517034068136271,0.10750976393830824 0.8557114228456912,0.10755637869327056 0.8597194388777554,0.1070841017521375 0.8637274549098195,0.10710350843364291 0.8677354709418836,0.10718704472633239 0.8717434869739478,0.10695055016734267 0.8757515030060119,0.10672183083062414 0.879759519038076,0.10670452285527965 0.8837675350701402,0.10674750524606436 0.8877755511022043,0.10661611701105106 0.8917835671342684,0.1066388847114142 0.8957915831663326,0.10697444832033776 0.8997995991983967,0.10693025090972103 0.9038076152304608,0.10699104177503582 0.907815631262525,0.1073334599768444 0.9118236472945891,0.10731478953344686 0.9158316633266532,0.1073861022793492 0.9198396793587174,0.10744116361604406 0.9238476953907815,0.10759153564407592 0.9278557114228456,0.10760635792965056 0.9318637274549098,0.10784041403368821 0.9358717434869739,0.10781739287554065 0.939879759519038,0.10785538778617426 0.9438877755511021,0.10832651017308148 0.9478957915831663,0.10847491571692613 0.9519038076152302,0.10837253613514436 0.9559118236472943,0.10835488440030522 0.9599198396793585,0.10838387434566132 0.9639278557114226,0.10807487279753658 0.9679358717434867,0.10800835959144667 0.9719438877755509,0.1086633117528526 0.975951903807615,0.10862158066820216 0.9799599198396791,0.10875082456717405 0.9839679358717432,0.10901895591856808 0.9879759519038074,0.10927579080908773 0.9919839679358715,0.11022504966810326 0.9959919839679356,0.11061362353399073 0.9999999999999998,0.11062845386751813" /></g><g /><g stroke-width="4.0e-3" stroke="#3764A0" fill="#FFFFFF" fill-opacity="1.0" stroke-opacity="0.5"><rect width="0.42152869952511957" height="0.25817398204276576" x="0.3543888690554248" y="8.456460076186187e-2" /></g><g stroke-width="0.0" stroke="none" fill="#666666" fill-opacity="1.0" font-size="4.000000000000001e-2" text-anchor="start"><text x="0.3776456248912935" y="0.30338864502115775">rate = 0.996</text></g><g stroke-width="5.0e-3" stroke="#02C814" fill="none" stroke-opacity="0.5"><polyline points="0.7032402065934548,0.2970542647925992 0.7497537182651921,0.2970542647925992" /></g><g stroke-width="0.0" stroke="none" fill="#666666" fill-opacity="1.0" font-size="4.000000000000001e-2" text-anchor="start"><text x="0.3776456248912935" y="0.24868263395633378">rate = 0.99</text></g><g stroke-width="5.0e-3" stroke="#382A8C" fill="none" stroke-opacity="0.5"><polyline points="0.7032402065934548,0.24234825372777521 0.7497537182651921,0.24234825372777521" /></g><g stroke-width="0.0" stroke="none" fill="#666666" fill-opacity="1.0" font-size="4.000000000000001e-2" text-anchor="start"><text x="0.3776456248912935" y="0.1939766228915098">rate = 0.95</text></g><g stroke-width="5.0e-3" stroke="#3C7F2B" fill="none" stroke-opacity="0.5"><polyline points="0.7032402065934548,0.1876422426629512 0.7497537182651921,0.1876422426629512" /></g><g stroke-width="0.0" stroke="none" fill="#666666" fill-opacity="1.0" font-size="4.000000000000001e-2" text-anchor="start"><text x="0.3776456248912935" y="0.13927061182668582">zero</text></g><g stroke-width="5.0e-3" stroke="#C58C4B" fill="none" stroke-opacity="0.5"><polyline points="0.7032402065934547,0.13293623159812726 0.749753718265192,0.13293623159812726" /></g><g /></svg>