<?xml version="1.0" encoding="UTF-8"?>
<!DOCTYPE svg PUBLIC "-//W3C//DTD SVG 1.1//EN"
    "http://www.w3.org/Graphics/SVG/1.1/DTD/svg11.dtd"><svg xmlns="http://www.w3.org/2000/svg" height="400.0000" stroke-opacity="1" viewBox="0 0 600 400" font-size="1" width="600.0000" xmlns:xlink="http://www.w3.org/1999/xlink" stroke="rgb(0,0,0)" version="1.1"><defs></defs><g stroke-linejoin="miter" stroke-opacity="0.4" fill-opacity="0.5" stroke="rgb(85,85,85)" stroke-width="1.0" fill="rgb(93,165,218)" stroke-linecap="butt" stroke-miterlimit="10.0"><path d="M 600.0000,400.0000 l -0.0000,-0.0000 h -60.0000 l -0.0000,0.0000 Z"/></g><g stroke-linejoin="miter" stroke-opacity="0.4" fill-opacity="0.5" stroke="rgb(85,85,85)" stroke-width="1.0" fill="rgb(93,165,218)" stroke-linecap="butt" stroke-miterlimit="10.0"><path d="M 540.0000,400.0000 l -0.0000,-0.0000 h -30.0000 l -0.0000,0.0000 Z"/></g><g stroke-linejoin="miter" stroke-opacity="0.4" fill-opacity="0.5" stroke="rgb(85,85,85)" stroke-width="1.0" fill="rgb(93,165,218)" stroke-linecap="butt" stroke-miterlimit="10.0"><path d="M 510.0000,400.0000 l -0.0000,-0.2152 h -30.0000 l -0.0000,0.2152 Z"/></g><g stroke-linejoin="miter" stroke-opacity="0.4" fill-opacity="0.5" stroke="rgb(85,85,85)" stroke-width="1.0" fill="rgb(93,165,218)" stroke-linecap="butt" stroke-miterlimit="10.0"><path d="M 480.0000,400.0000 l -0.0000,-0.9984 h -30.0000 l -0.0000,0.9984 Z"/></g><g stroke-linejoin="miter" stroke-opacity="0.4" fill-opacity="0.5" stroke="rgb(85,85,85)" stroke-width="1.0" fill="rgb(93,165,218)" stroke-linecap="butt" stroke-miterlimit="10.0"><path d="M 450.0000,400.0000 l -0.0000,-3.2331 h -30.0000 l -0.0000,3.2331 Z"/></g><g stroke-linejoin="miter" stroke-opacity="0.4" fill-opacity="0.5" stroke="rgb(85,85,85)" stroke-width="1.0" fill="rgb(93,165,218)" stroke-linecap="butt" stroke-miterlimit="10.0"><path d="M 420.0000,400.0000 l -0.0000,-21.2655 h -30.0000 l -0.0000,21.2655 Z"/></g><g stroke-linejoin="miter" stroke-opacity="0.4" fill-opacity="0.5" stroke="rgb(85,85,85)" stroke-width="1.0" fill="rgb(93,165,218)" stroke-linecap="butt" stroke-miterlimit="10.0"><path d="M 390.0000,400.0000 l -0.0000,-144.0743 h -30.0000 l -0.0000,144.0743 Z"/></g><g stroke-linejoin="miter" stroke-opacity="0.4" fill-opacity="0.5" stroke="rgb(85,85,85)" stroke-width="1.0" fill="rgb(93,165,218)" stroke-linecap="butt" stroke-miterlimit="10.0"><path d="M 360.0000,400.0000 l -0.0000,-296.0317 h -30.0000 l -0.0000,296.0317 Z"/></g><g stroke-linejoin="miter" stroke-opacity="0.4" fill-opacity="0.5" stroke="rgb(85,85,85)" stroke-width="1.0" fill="rgb(93,165,218)" stroke-linecap="butt" stroke-miterlimit="10.0"><path d="M 330.0000,400.0000 l -0.0000,-400.0000 h -30.0000 l -0.0000,400.0000 Z"/></g><g stroke-linejoin="miter" stroke-opacity="0.4" fill-opacity="0.5" stroke="rgb(85,85,85)" stroke-width="1.0" fill="rgb(93,165,218)" stroke-linecap="butt" stroke-miterlimit="10.0"><path d="M 300.0000,400.0000 l -0.0000,-206.1499 h -30.0000 l -0.0000,206.1499 Z"/></g><g stroke-linejoin="miter" stroke-opacity="0.4" fill-opacity="0.5" stroke="rgb(85,85,85)" stroke-width="1.0" fill="rgb(93,165,218)" stroke-linecap="butt" stroke-miterlimit="10.0"><path d="M 270.0000,400.0000 l -0.0000,-92.6131 h -30.0000 l -0.0000,92.6131 Z"/></g><g stroke-linejoin="miter" stroke-opacity="0.4" fill-opacity="0.5" stroke="rgb(85,85,85)" stroke-width="1.0" fill="rgb(93,165,218)" stroke-linecap="butt" stroke-miterlimit="10.0"><path d="M 240.0000,400.0000 l -0.0000,-30.4533 h -30.0000 l -0.0000,30.4533 Z"/></g><g stroke-linejoin="miter" stroke-opacity="0.4" fill-opacity="0.5" stroke="rgb(85,85,85)" stroke-width="1.0" fill="rgb(93,165,218)" stroke-linecap="butt" stroke-miterlimit="10.0"><path d="M 210.0000,400.0000 l -0.0000,-9.7096 h -30.0000 l -0.0000,9.7096 Z"/></g><g stroke-linejoin="miter" stroke-opacity="0.4" fill-opacity="0.5" stroke="rgb(85,85,85)" stroke-width="1.0" fill="rgb(93,165,218)" stroke-linecap="butt" stroke-miterlimit="10.0"><path d="M 180.0000,400.0000 l -0.0000,-4.5909 h -30.0000 l -0.0000,4.5909 Z"/></g><g stroke-linejoin="miter" stroke-opacity="0.4" fill-opacity="0.5" stroke="rgb(85,85,85)" stroke-width="1.0" fill="rgb(93,165,218)" stroke-linecap="butt" stroke-miterlimit="10.0"><path d="M 150.0000,400.0000 l -0.0000,-2.7245 h -30.0000 l -0.0000,2.7245 Z"/></g><g stroke-linejoin="miter" stroke-opacity="0.4" fill-opacity="0.5" stroke="rgb(85,85,85)" stroke-width="1.0" fill="rgb(93,165,218)" stroke-linecap="butt" stroke-miterlimit="10.0"><path d="M 120.0000,400.0000 l -0.0000,-0.1434 h -30.0000 l -0.0000,0.1434 Z"/></g><g stroke-linejoin="miter" stroke-opacity="0.4" fill-opacity="0.5" stroke="rgb(85,85,85)" stroke-width="1.0" fill="rgb(93,165,218)" stroke-linecap="butt" stroke-miterlimit="10.0"><path d="M 90.0000,400.0000 l -0.0000,-0.0000 h -30.0000 l -0.0000,0.0000 Z"/></g><g stroke-linejoin="miter" stroke-opacity="0.4" fill-opacity="0.5" stroke="rgb(85,85,85)" stroke-width="1.0" fill="rgb(93,165,218)" stroke-linecap="butt" stroke-miterlimit="10.0"><path d="M 60.0000,400.0000 l -0.0000,-0.0000 h -60.0000 l -0.0000,0.0000 Z"/></g></svg>