<?xml version="1.0" encoding="UTF-8"?>
<!DOCTYPE svg PUBLIC "-//W3C//DTD SVG 1.1//EN"
    "http://www.w3.org/Graphics/SVG/1.1/DTD/svg11.dtd">
<svg xmlns="http://www.w3.org/2000/svg" height="400.0000" stroke-opacity="1" viewBox="0 0 600 400" font-size="1" width="600.0000" xmlns:xlink="http://www.w3.org/1999/xlink" stroke="rgb(0,0,0)" version="1.1">
  <defs>
  </defs>
  <g stroke-linejoin="miter" stroke-opacity="1.0" fill-opacity="0.0" stroke="rgb(44,160,44)" stroke-width="1.3111228984652454" fill="rgb(0,0,0)" stroke-linecap="butt" stroke-miterlimit="10.0">
    <path d="M 124.6810,104.6845 l 0.6155,-0.2106 l 0.6155,-1.2767 l 0.6155,0.7735 l 0.6155,-0.7610 l 0.6155,-0.0241 l 0.6155,1.0515 l 0.6155,0.4575 l 0.6155,0.1081 l 0.6155,2.8545 l 0.6155,-0.3104 l 0.6155,-0.8796 l 0.6155,0.0885 l 0.6155,0.5612 l 0.6155,-0.7672 l 0.6155,2.2573 l 0.6155,-0.2605 l 0.6155,-1.5978 l 0.6155,-1.4152 l 0.6155,-0.5343 l 0.6155,0.1504 l 0.6155,-1.0045 l 0.6155,-0.0887 l 0.6155,-0.0442 l 0.6155,0.6218 l 0.6155,0.3717 l 0.6155,0.8065 l 0.6155,1.4678 l 0.6155,0.8075 l 0.6155,-1.6021 l 0.6155,-0.9183 l 0.6155,0.0476 l 0.6155,0.3512 l 0.6155,0.4145 l 0.6155,0.3463 l 0.6155,-0.3667 l 0.6155,1.0772 l 0.6155,0.4257 l 0.6155,-1.6652 l 0.6155,1.3116 l 0.6155,-0.0821 l 0.6155,0.2126 l 0.6155,-0.4763 l 0.6155,-0.6478 l 0.6155,0.3966 l 0.6155,1.1428 l 0.6155,2.8215 l 0.6155,4.1137 l 0.6155,4.8464 l 0.6155,1.5965 l 0.6155,-4.7401 l 0.6155,-2.8071 l 0.6155,-0.0535 l 0.6155,0.9646 l 0.6155,3.3381 l 0.6155,-2.0500 l 0.6155,-0.1227 l 0.6155,1.7014 l 0.6155,-2.7951 l 0.6155,1.5267 l 0.6155,-0.5724 l 0.6155,-0.4843 l 0.6155,0.4565 l 0.6155,-1.4057 l 0.6155,-0.9436 l 0.6155,0.2970 l 0.6155,1.7832 l 0.6155,-0.4922 l 0.6155,1.3566 l 0.6155,0.2287 l 0.6155,0.3722 l 0.6155,0.0533 l 0.6155,2.8206 l 0.6155,-0.1437 l 0.6155,-2.0944 l 0.6155,-0.2147 l 0.6155,-1.5597 l 0.6155,-1.9859 l 0.6155,0.4016 l 0.6155,-0.8583 l 0.6155,-0.9408 l 0.6155,-0.0586 l 0.6155,-0.1182 l 0.6155,0.7615 l 0.6155,0.5304 l 0.6155,-1.6105 l 0.6155,-0.4759 l 0.6155,-0.0056 l 0.6155,0.1789 l 0.6155,0.6592 l 0.6155,-1.8099 l 0.6155,-1.1807 l 0.6155,0.2409 l 0.6155,0.3103 l 0.6155,-1.2718 l 0.6155,0.0845 l 0.6155,0.5614 l 0.6155,-1.2768 l 0.6155,-0.2618 l 0.6155,0.4280 l 0.6155,0.1618 l 0.6155,0.0750 l 0.6155,1.1183 l 0.6155,-0.1352 l 0.6155,0.3895 l 0.6155,1.5762 l 0.6155,1.2612 l 0.6155,-1.6360 l 0.6155,0.1735 l 0.6155,-1.7704 l 0.6155,0.1558 l 0.6155,-0.3896 l 0.6155,0.1696 l 0.6155,-0.1030 l 0.6155,0.0473 l 0.6155,-0.0333 l 0.6155,0.5494 l 0.6155,-1.1656 l 0.6155,1.2580 l 0.6155,1.6267 l 0.6155,-2.2724 l 0.6155,0.8032 l 0.6155,0.7457 l 0.6155,0.8815 l 0.6155,-0.2268 l 0.6155,2.1721 l 0.6155,-0.5103 l 0.6155,-1.1588 l 0.6155,-1.5871 l 0.6155,1.6807 l 0.6155,1.9729 l 0.6155,-0.8392 l 0.6155,-0.9507 l 0.6155,-1.3437 l 0.6155,0.2002 l 0.6155,0.2634 l 0.6155,-1.1469 l 0.6155,0.8198 l 0.6155,1.0581 l 0.6155,1.7008 l 0.6155,-0.2071 l 0.6155,1.4544 l 0.6155,2.6105 l 0.6155,1.1774 l 0.6155,-0.0995 l 0.6155,-0.8559 l 0.6155,2.7278 l 0.6155,-1.8133 l 0.6155,2.3268 l 0.6155,-0.0727 l 0.6155,1.2407 l 0.6155,-0.5765 l 0.6155,-2.1881 l 0.6155,1.6647 l 0.6155,-1.5193 l 0.6155,1.1476 l 0.6155,-0.6021 l 0.6155,-2.6436 l 0.6155,0.0451 l 0.6155,1.9886 l 0.6155,-0.5360 l 0.6155,-0.1690 l 0.6155,1.9570 l 0.6155,1.4838 l 0.6155,0.0489 l 0.6155,-0.0013 l 0.6155,1.2850 l 0.6155,-2.0787 l 0.6155,-1.7510 l 0.6155,-1.7382 l 0.6155,0.4854 l 0.6155,-0.0032 l 0.6155,-1.5241 l 0.6155,1.3108 l 0.6155,-0.4710 l 0.6155,-1.1955 l 0.6155,0.1983 l 0.6155,0.8572 l 0.6155,-2.5176 l 0.6155,-0.4215 l 0.6155,-0.3580 l 0.6155,-0.3369 l 0.6155,-0.0813 l 0.6155,1.1986 l 0.6155,-0.5256 l 0.6155,-0.0069 l 0.6155,-1.7276 l 0.6155,0.1497 l 0.6155,0.2103 l 0.6155,-0.5790 l 0.6155,-0.6833 l 0.6155,-0.4484 l 0.6155,-0.0830 l 0.6155,0.1160 l 0.6155,0.7042 l 0.6155,0.0595 l 0.6155,-0.0396 l 0.6155,-0.9293 l 0.6155,-0.4453 l 0.6155,0.2442 l 0.6155,-0.6601 l 0.6155,0.3728 l 0.6155,1.1218 l 0.6155,-1.1187 l 0.6155,1.3200 l 0.6155,-0.2822 l 0.6155,0.3175 l 0.6155,-1.0311 l 0.6155,-1.0688 l 0.6155,0.0089 l 0.6155,0.1349 l 0.6155,-0.6870 l 0.6155,-0.3071 l 0.6155,-0.0521 l 0.6155,0.6005 l 0.6155,0.0239 l 0.6155,0.2284 l 0.6155,-0.1783 l 0.6155,-0.1532 l 0.6155,1.0497 l 0.6155,0.5854 l 0.6155,-0.8436 l 0.6155,0.9880 l 0.6155,0.6810 l 0.6155,0.0463 l 0.6155,-0.3341 l 0.6155,-0.0631 l 0.6155,-1.3765 l 0.6155,1.0931 l 0.6155,0.0412 l 0.6155,0.9700 l 0.6155,-1.0797 l 0.6155,1.0753 l 0.6155,-0.0048 l 0.6155,0.4340 l 0.6155,-0.6604 l 0.6155,0.2538 l 0.6155,-1.5266 l 0.6155,-0.7614 l 0.6155,0.0510 l 0.6155,-0.4571 l 0.6155,0.1426 l 0.6155,-0.1002 l 0.6155,-0.2919 l 0.6155,0.3611 l 0.6155,-0.5296 l 0.6155,-0.1163 l 0.6155,-0.3472 l 0.6155,0.2295 l 0.6155,1.0835 l 0.6155,0.9579 l 0.6155,0.2302 l 0.6155,0.2345 l 0.6155,-0.3393 l 0.6155,0.3993 l 0.6155,-0.6506 l 0.6155,-0.2899 l 0.6155,0.2171 l 0.6155,-1.5314 l 0.6155,4.1858 l 0.6155,2.0546 l 0.6155,-1.9914 l 0.6155,-3.4410 l 0.6155,-0.1883 l 0.6155,0.7818 l 0.6155,-0.5672 l 0.6155,0.1225 l 0.6155,-1.6662 l 0.6155,-0.3445 l 0.6155,-0.7429 l 0.6155,0.0218 l 0.6155,-0.5477 l 0.6155,0.1422 l 0.6155,-0.2271 l 0.6155,0.1996 l 0.6155,-0.4393 l 0.6155,0.4451 l 0.6155,-0.4727 l 0.6155,0.3791 l 0.6155,0.0029 l 0.6155,0.1745 l 0.6155,-0.1430 l 0.6155,-0.1456 l 0.6155,0.1840 l 0.6155,0.7622 l 0.6155,-0.3208 l 0.6155,0.0133 l 0.6155,-0.9470 l 0.6155,0.1451 l 0.6155,-0.0038 l 0.6155,0.3697 l 0.6155,-0.5054 l 0.6155,0.1333 l 0.6155,-0.2814 l 0.6155,0.6754 l 0.6155,-0.1768 l 0.6155,-0.2149 l 0.6155,0.2087 l 0.6155,0.1061 l 0.6155,-0.1876 l 0.6155,0.6532 l 0.6155,0.1982 l 0.6155,0.2228 l 0.6155,-0.5780 l 0.6155,0.2691 l 0.6155,0.3182 l 0.6155,0.0419 l 0.6155,-0.4607 l 0.6155,-0.3149 l 0.6155,0.0575 l 0.6155,0.3044 l 0.6155,2.9499 l 0.6155,-1.7031 l 0.6155,1.7681 l 0.6155,0.0946 l 0.6155,-1.1594 l 0.6155,0.4714 l 0.6155,0.0305 l 0.6155,-0.0069 l 0.6155,-1.2582 l 0.6155,-0.7316 l 0.6155,0.7110 l 0.6155,1.0443 l 0.6155,-0.7308 l 0.6155,-0.5931 l 0.6155,1.1344 l 0.6155,-0.9119 l 0.6155,0.4188 l 0.6155,0.6182 l 0.6155,-0.4800 l 0.6155,-0.0257 l 0.6155,0.4185 l 0.6155,-0.5191 l 0.6155,1.5148 l 0.6155,-0.1106 l 0.6155,0.3961 l 0.6155,0.0008 l 0.6155,0.3886 l 0.6155,-0.7162 l 0.6155,-0.2370 l 0.6155,0.1928 l 0.6155,0.0367 l 0.6155,-0.5476 l 0.6155,0.4878 l 0.6155,0.2376 l 0.6155,0.3882 l 0.6155,0.4021 l 0.6155,0.0376 l 0.6155,0.8499 l 0.6155,0.8151 l 0.6155,0.5561 l 0.6155,0.2175 l 0.6155,-2.7200 l 0.6155,-0.4340 l 0.6155,-1.3212 l 0.6155,-0.2062 l 0.6155,0.2011 l 0.6155,0.0446 l 0.6155,-0.8826 l 0.6155,0.2270 l 0.6155,-0.5389 l 0.6155,0.3274 l 0.6155,-0.8817 l 0.6155,-0.2283 l 0.6155,-0.0609 l 0.6155,-0.4435 l 0.6155,0.6887 l 0.6155,-0.1271 l 0.6155,0.3668 l 0.6155,0.4728 l 0.6155,-0.0141 l 0.6155,-0.6893 l 0.6155,-0.3868 l 0.6155,-1.6029 l 0.6155,-0.2226 l 0.6155,-0.6931 l 0.6155,0.1917 l 0.6155,-0.7682 l 0.6155,1.0675 l 0.6155,-0.4377 l 0.6155,0.2690 l 0.6155,-0.1991 l 0.6155,-0.4077 l 0.6155,0.3608 l 0.6155,0.2850 l 0.6155,-0.1093 l 0.6155,-0.2353 l 0.6155,1.1102 l 0.6155,0.0831 l 0.6155,0.6346 l 0.6155,-1.0364 l 0.6155,-0.6803 l 0.6155,0.1482 l 0.6155,-0.3989 l 0.6155,0.5046 l 0.6155,0.0493 l 0.6155,-0.3135 l 0.6155,0.3259 l 0.6155,-0.1887 l 0.6155,0.4325 l 0.6155,-0.1792 l 0.6155,0.5159 l 0.6155,-0.3887 l 0.6155,0.3978 l 0.6155,-0.8056 l 0.6155,-0.9924 l 0.6155,0.1502 l 0.6155,0.1669 l 0.6155,0.8375 l 0.6155,0.1663 l 0.6155,0.0105 l 0.6155,-0.0251 l 0.6155,-0.9038 l 0.6155,0.3312 l 0.6155,0.0223 l 0.6155,-0.0392 l 0.6155,-0.7070 l 0.6155,-0.4159 l 0.6155,-0.6370 l 0.6155,-0.4710 l 0.6155,-0.6003 l 0.6155,0.1790 l 0.6155,-0.1598 l 0.6155,-0.7412 l 0.6155,0.2119 l 0.6155,0.0107 l 0.6155,-0.1332 l 0.6155,-0.0692 l 0.6155,0.4147 l 0.6155,-1.7682 l 0.6155,0.8594 l 0.6155,0.0020 l 0.6155,0.5101 l 0.6155,0.4597 l 0.6155,0.3737 l 0.6155,-0.0434 l 0.6155,-0.3767 l 0.6155,0.0168 l 0.6155,0.5250 l 0.6155,-1.0708 l 0.6155,0.2896 l 0.6155,0.2464 l 0.6155,0.3406 l 0.6155,1.7584 l 0.6155,-0.1984 l 0.6155,0.2030 l 0.6155,0.1731 l 0.6155,0.1967 l 0.6155,-0.9337 l 0.6155,-0.0876 l 0.6155,-0.3406 l 0.6155,0.3719 l 0.6155,0.2868 l 0.6155,-0.0169 l 0.6155,0.4814 l 0.6155,-0.2079 l 0.6155,0.1737 l 0.6155,-0.0365 l 0.6155,0.2580 l 0.6155,0.5806 l 0.6155,1.0032 l 0.6155,-1.1469 l 0.6155,0.4594 l 0.6155,0.2931 l 0.6155,-1.0000 l 0.6155,0.4800 l 0.6155,-1.4554 l 0.6155,-0.7851 l 0.6155,0.1319 l 0.6155,-0.0131 l 0.6155,0.3313 l 0.6155,-0.1794 l 0.6155,-0.1029 l 0.6155,0.2427 l 0.6155,-0.0185 l 0.6155,-0.5121 l 0.6155,0.0604 l 0.6155,0.2104 l 0.6155,-0.0952 l 0.6155,0.3721 l 0.6155,0.2739 l 0.6155,-0.6162 l 0.6155,0.1632 l 0.6155,2.6509 l 0.6155,-0.4648 l 0.6155,-0.8966 l 0.6155,-0.6667 l 0.6155,-0.1971 l 0.6155,-0.2884 l 0.6155,-0.5632 l 0.6155,0.0221 l 0.6155,0.2367 l 0.6155,0.1305 l 0.6155,-1.0096 l 0.6155,-0.4573 l 0.6155,0.2441 l 0.6155,0.4661 l 0.6155,-0.1555 l 0.6155,0.0307 l 0.6155,0.1877 "/>
  </g>
  <g stroke-linejoin="miter" stroke-opacity="1.0" fill-opacity="0.0" stroke="rgb(255,127,14)" stroke-width="1.3111228984652454" fill="rgb(0,0,0)" stroke-linecap="butt" stroke-miterlimit="10.0">
    <path d="M 124.6810,109.2478 l 0.6155,-0.5215 l 0.6155,-2.9272 l 0.6155,1.7132 l 0.6155,-1.7526 l 0.6155,-0.0811 l 0.6155,2.3521 l 0.6155,0.9942 l 0.6155,0.1988 l 0.6155,6.4457 l 0.6155,-0.7729 l 0.6155,-2.0394 l 0.6155,0.1316 l 0.6155,1.1889 l 0.6155,-1.7943 l 0.6155,5.0100 l 0.6155,-0.6687 l 0.6155,-3.6415 l 0.6155,-3.2001 l 0.6155,-1.2251 l 0.6155,0.2952 l 0.6155,-2.2714 l 0.6155,-0.2226 l 0.6155,-0.1230 l 0.6155,1.3638 l 0.6155,0.7995 l 0.6155,1.7720 l 0.6155,3.2496 l 0.6155,1.7425 l 0.6155,-3.6713 l 0.6155,-2.1041 l 0.6155,0.0649 l 0.6155,0.7444 l 0.6155,0.8842 l 0.6155,0.7279 l 0.6155,-0.8843 l 0.6155,2.3874 l 0.6155,0.8983 l 0.6155,-3.8487 l 0.6155,2.9110 l 0.6155,-0.2484 l 0.6155,0.4176 l 0.6155,-1.1427 l 0.6155,-1.5273 l 0.6155,0.8520 l 0.6155,2.5501 l 0.6155,6.3707 l 0.6155,9.2016 l 0.6155,10.7386 l 0.6155,3.2137 l 0.6155,-10.0350 l 0.6155,-6.0277 l 0.6155,-0.2171 l 0.6155,1.9228 l 0.6155,7.0530 l 0.6155,-4.4645 l 0.6155,-0.3894 l 0.6155,3.5081 l 0.6155,-6.0781 l 0.6155,3.1591 l 0.6155,-1.3507 l 0.6155,-1.1556 l 0.6155,0.8660 l 0.6155,-3.1373 l 0.6155,-2.1293 l 0.6155,0.5570 l 0.6155,3.7686 l 0.6155,-1.1759 l 0.6155,2.8436 l 0.6155,0.3739 l 0.6155,0.6850 l 0.6155,-0.0139 l 0.6155,6.1415 l 0.6155,-0.4824 l 0.6155,-4.7270 l 0.6155,-0.6035 l 0.6155,-3.5555 l 0.6155,-4.4952 l 0.6155,0.8105 l 0.6155,-1.9804 l 0.6155,-2.1567 l 0.6155,-0.1824 l 0.6155,-0.3144 l 0.6155,1.6413 l 0.6155,1.1210 l 0.6155,-3.6978 l 0.6155,-1.1124 l 0.6155,-0.0499 l 0.6155,0.3648 l 0.6155,1.4414 l 0.6155,-4.1857 l 0.6155,-2.7147 l 0.6155,0.5385 l 0.6155,0.6929 l 0.6155,-2.9371 l 0.6155,0.1963 l 0.6155,1.2781 l 0.6155,-2.9604 l 0.6155,-0.5887 l 0.6155,0.9948 l 0.6155,0.3811 l 0.6155,0.1794 l 0.6155,2.5701 l 0.6155,-0.3251 l 0.6155,0.8930 l 0.6155,3.6208 l 0.6155,2.8826 l 0.6155,-3.9127 l 0.6155,0.3723 l 0.6155,-4.2280 l 0.6155,0.3548 l 0.6155,-0.9268 l 0.6155,0.3921 l 0.6155,-0.2512 l 0.6155,0.1045 l 0.6155,-0.0868 l 0.6155,1.2923 l 0.6155,-2.8176 l 0.6155,2.9721 l 0.6155,3.8244 l 0.6155,-5.5380 l 0.6155,1.8886 l 0.6155,1.7462 l 0.6155,2.0607 l 0.6155,-0.5852 l 0.6155,5.1181 l 0.6155,-1.2902 l 0.6155,-2.8483 l 0.6155,-3.8750 l 0.6155,3.9677 l 0.6155,4.6416 l 0.6155,-2.0803 l 0.6155,-2.3401 l 0.6155,-3.2804 l 0.6155,0.4515 l 0.6155,0.6010 l 0.6155,-2.8088 l 0.6155,1.9497 l 0.6155,2.5134 l 0.6155,4.0451 l 0.6155,-0.5693 l 0.6155,3.4434 l 0.6155,6.2237 l 0.6155,2.7105 l 0.6155,-0.3787 l 0.6155,-2.2049 l 0.6155,6.4978 l 0.6155,-4.5197 l 0.6155,5.4742 l 0.6155,-0.3371 l 0.6155,2.8248 l 0.6155,-1.5622 l 0.6155,-5.4362 l 0.6155,3.8734 l 0.6155,-3.8035 l 0.6155,2.6272 l 0.6155,-1.5958 l 0.6155,-6.5291 l 0.6155,0.0120 l 0.6155,4.6904 l 0.6155,-1.4131 l 0.6155,-0.5232 l 0.6155,4.6229 l 0.6155,3.4502 l 0.6155,-0.0433 l 0.6155,-0.1644 l 0.6155,2.9700 l 0.6155,-5.2206 l 0.6155,-4.3917 l 0.6155,-4.3371 l 0.6155,1.0867 l 0.6155,-0.1033 l 0.6155,-3.8166 l 0.6155,3.1175 l 0.6155,-1.2394 l 0.6155,-3.0116 l 0.6155,0.4209 l 0.6155,2.0339 l 0.6155,-6.3084 l 0.6155,-1.0729 l 0.6155,-0.9131 l 0.6155,-0.8580 l 0.6155,-0.2236 l 0.6155,2.9331 l 0.6155,-1.3436 l 0.6155,-0.0492 l 0.6155,-4.3588 l 0.6155,0.3665 l 0.6155,0.5161 l 0.6155,-1.4620 l 0.6155,-1.7198 l 0.6155,-1.1207 l 0.6155,-0.1945 l 0.6155,0.3084 l 0.6155,1.7929 l 0.6155,0.1537 l 0.6155,-0.0995 l 0.6155,-2.3813 l 0.6155,-1.1252 l 0.6155,0.6485 l 0.6155,-1.6844 l 0.6155,0.9882 l 0.6155,2.9089 l 0.6155,-2.9023 l 0.6155,3.4194 l 0.6155,-0.7296 l 0.6155,0.8279 l 0.6155,-2.6930 l 0.6155,-2.7777 l 0.6155,0.0559 l 0.6155,0.3844 l 0.6155,-1.7756 l 0.6155,-0.7670 l 0.6155,-0.0924 l 0.6155,1.6275 l 0.6155,0.0985 l 0.6155,0.6404 l 0.6155,-0.4445 l 0.6155,-0.3764 l 0.6155,2.8345 l 0.6155,1.5824 l 0.6155,-2.2647 l 0.6155,2.6656 l 0.6155,1.8309 l 0.6155,0.1191 l 0.6155,-0.9105 l 0.6155,-0.1721 l 0.6155,-3.7606 l 0.6155,2.9711 l 0.6155,0.1156 l 0.6155,2.6272 l 0.6155,-2.9608 l 0.6155,2.9119 l 0.6155,-0.0257 l 0.6155,1.1672 l 0.6155,-1.8288 l 0.6155,0.6845 l 0.6155,-4.2235 l 0.6155,-2.0724 l 0.6155,0.1637 l 0.6155,-1.2319 l 0.6155,0.4225 l 0.6155,-0.2482 l 0.6155,-0.7783 l 0.6155,1.0343 l 0.6155,-1.4465 l 0.6155,-0.2876 l 0.6155,-0.9324 l 0.6155,0.6860 l 0.6155,3.0701 l 0.6155,2.6949 l 0.6155,0.6484 l 0.6155,0.6582 l 0.6155,-0.9617 l 0.6155,1.1272 l 0.6155,-1.8521 l 0.6155,-0.8166 l 0.6155,0.6271 l 0.6155,-4.3714 l 0.6155,11.6026 l 0.6155,5.3909 l 0.6155,-5.3908 l 0.6155,-9.1771 l 0.6155,-0.4642 l 0.6155,2.0281 l 0.6155,-1.4549 l 0.6155,0.3343 l 0.6155,-4.3214 l 0.6155,-0.8493 l 0.6155,-1.8815 l 0.6155,0.1139 l 0.6155,-1.3708 l 0.6155,0.4356 l 0.6155,-0.5325 l 0.6155,0.5886 l 0.6155,-1.0958 l 0.6155,1.2408 l 0.6155,-1.1914 l 0.6155,1.0716 l 0.6155,0.0687 l 0.6155,0.5257 l 0.6155,-0.3252 l 0.6155,-0.3313 l 0.6155,0.5561 l 0.6155,2.1086 l 0.6155,-0.8223 l 0.6155,0.0859 l 0.6155,-2.5298 l 0.6155,0.4582 l 0.6155,0.0511 l 0.6155,1.0701 l 0.6155,-1.3320 l 0.6155,0.4282 l 0.6155,-0.7154 l 0.6155,1.9243 l 0.6155,-0.4365 l 0.6155,-0.5409 l 0.6155,0.6378 l 0.6155,0.3500 l 0.6155,-0.4726 l 0.6155,1.8806 l 0.6155,0.5989 l 0.6155,0.6657 l 0.6155,-1.5986 l 0.6155,0.8042 l 0.6155,0.9398 l 0.6155,0.1530 l 0.6155,-1.2806 l 0.6155,-0.8581 l 0.6155,0.2105 l 0.6155,0.9162 l 0.6155,8.3175 l 0.6155,-4.7805 l 0.6155,4.8209 l 0.6155,0.2443 l 0.6155,-3.2064 l 0.6155,1.2869 l 0.6155,0.0797 l 0.6155,-0.0232 l 0.6155,-3.4862 l 0.6155,-1.9953 l 0.6155,1.9730 l 0.6155,2.8674 l 0.6155,-2.0132 l 0.6155,-1.6215 l 0.6155,3.1200 l 0.6155,-2.5106 l 0.6155,1.1626 l 0.6155,1.7026 l 0.6155,-1.3252 l 0.6155,-0.0638 l 0.6155,1.1619 l 0.6155,-1.4422 l 0.6155,4.1726 l 0.6155,-0.3220 l 0.6155,1.0773 l 0.6155,-0.0195 l 0.6155,1.0553 l 0.6155,-2.0324 l 0.6155,-0.6774 l 0.6155,0.5261 l 0.6155,0.0875 l 0.6155,-1.5590 l 0.6155,1.3617 l 0.6155,0.6535 l 0.6155,1.0747 l 0.6155,1.1090 l 0.6155,0.0739 l 0.6155,2.3660 l 0.6155,2.2503 l 0.6155,1.5089 l 0.6155,0.5462 l 0.6155,-7.9610 l 0.6155,-1.2267 l 0.6155,-3.6919 l 0.6155,-0.5631 l 0.6155,0.5633 l 0.6155,0.1284 l 0.6155,-2.4518 l 0.6155,0.6483 l 0.6155,-1.4853 l 0.6155,0.9352 l 0.6155,-2.4457 l 0.6155,-0.6033 l 0.6155,-0.1331 l 0.6155,-1.2058 l 0.6155,1.9775 l 0.6155,-0.3241 l 0.6155,1.0672 l 0.6155,1.3605 l 0.6155,-0.0202 l 0.6155,-1.9358 l 0.6155,-1.0651 l 0.6155,-4.5017 l 0.6155,-0.5601 l 0.6155,-1.8802 l 0.6155,0.6210 l 0.6155,-2.0877 l 0.6155,3.1120 l 0.6155,-1.1610 l 0.6155,0.8352 l 0.6155,-0.4911 l 0.6155,-1.0789 l 0.6155,1.1058 l 0.6155,0.8845 l 0.6155,-0.2427 l 0.6155,-0.6014 l 0.6155,3.2521 l 0.6155,0.2895 l 0.6155,1.8610 l 0.6155,-2.9175 l 0.6155,-1.8760 l 0.6155,0.4904 l 0.6155,-1.0713 l 0.6155,1.5149 l 0.6155,0.2035 l 0.6155,-0.8370 l 0.6155,1.0032 l 0.6155,-0.4826 l 0.6155,1.3110 l 0.6155,-0.4626 l 0.6155,1.5506 l 0.6155,-1.0778 l 0.6155,1.2079 l 0.6155,-2.2905 l 0.6155,-2.8067 l 0.6155,0.5126 l 0.6155,0.5588 l 0.6155,2.5029 l 0.6155,0.5364 l 0.6155,0.0823 l 0.6155,-0.0218 l 0.6155,-2.5775 l 0.6155,1.0304 l 0.6155,0.1259 l 0.6155,-0.0543 l 0.6155,-2.0025 l 0.6155,-1.1398 l 0.6155,-1.7762 l 0.6155,-1.2817 l 0.6155,-1.6490 l 0.6155,0.6354 l 0.6155,-0.3620 l 0.6155,-2.0550 l 0.6155,0.7451 l 0.6155,0.1480 l 0.6155,-0.2767 l 0.6155,-0.0867 l 0.6155,1.3509 l 0.6155,-5.0097 l 0.6155,2.6575 l 0.6155,0.1260 l 0.6155,1.6050 l 0.6155,1.4457 l 0.6155,1.1850 l 0.6155,-0.0344 l 0.6155,-1.0011 l 0.6155,0.1471 l 0.6155,1.6340 l 0.6155,-3.0110 l 0.6155,0.9467 l 0.6155,0.8155 l 0.6155,1.0859 l 0.6155,5.2018 l 0.6155,-0.5138 l 0.6155,0.6324 l 0.6155,0.5439 l 0.6155,0.6087 l 0.6155,-2.6326 l 0.6155,-0.1915 l 0.6155,-0.9142 l 0.6155,1.1322 l 0.6155,0.8811 l 0.6155,0.0041 l 0.6155,1.4377 l 0.6155,-0.5559 l 0.6155,0.5478 l 0.6155,-0.0626 l 0.6155,0.7905 l 0.6155,1.7187 l 0.6155,2.9114 l 0.6155,-3.3112 l 0.6155,1.3365 l 0.6155,0.8550 l 0.6155,-2.8551 l 0.6155,1.3932 l 0.6155,-4.1147 l 0.6155,-2.1460 l 0.6155,0.4309 l 0.6155,0.0227 l 0.6155,0.9892 l 0.6155,-0.4511 l 0.6155,-0.2340 l 0.6155,0.7423 l 0.6155,0.0001 l 0.6155,-1.3972 l 0.6155,0.2326 l 0.6155,0.6577 l 0.6155,-0.2154 l 0.6155,1.1178 l 0.6155,0.8307 l 0.6155,-1.7160 l 0.6155,0.5210 l 0.6155,7.4502 l 0.6155,-1.2529 l 0.6155,-2.4144 l 0.6155,-1.7666 l 0.6155,-0.4927 l 0.6155,-0.7361 l 0.6155,-1.4719 l 0.6155,0.1122 l 0.6155,0.6903 l 0.6155,0.4000 l 0.6155,-2.6858 l 0.6155,-1.1686 l 0.6155,0.7271 l 0.6155,1.3230 l 0.6155,-0.3645 l 0.6155,0.1410 l 0.6155,0.5664 "/>
  </g>
  <g stroke-linejoin="miter" stroke-opacity="1.0" fill-opacity="0.0" stroke="rgb(31,119,180)" stroke-width="1.3111228984652454" fill="rgb(0,0,0)" stroke-linecap="butt" stroke-miterlimit="10.0">
    <path d="M 124.6810,121.1586 l 0.6155,-3.3594 l 0.6155,-16.0173 l 0.6155,8.9330 l 0.6155,-9.1313 l 0.6155,-0.2493 l 0.6155,12.4527 l 0.6155,4.7648 l 0.6155,0.5142 l 0.6155,32.4319 l 0.6155,-4.9700 l 0.6155,-10.6964 l 0.6155,-0.2991 l 0.6155,4.5384 l 0.6155,-9.6556 l 0.6155,22.3939 l 0.6155,-4.4772 l 0.6155,-18.2274 l 0.6155,-15.1299 l 0.6155,-5.3947 l 0.6155,1.5487 l 0.6155,-10.4056 l 0.6155,-0.4347 l 0.6155,0.0243 l 0.6155,6.9343 l 0.6155,4.1014 l 0.6155,8.6068 l 0.6155,15.2198 l 0.6155,7.4376 l 0.6155,-19.6376 l 0.6155,-10.3882 l 0.6155,0.3674 l 0.6155,3.5869 l 0.6155,4.1769 l 0.6155,3.3103 l 0.6155,-4.9638 l 0.6155,11.7745 l 0.6155,3.8359 l 0.6155,-21.3425 l 0.6155,13.9838 l 0.6155,-1.7870 l 0.6155,1.5157 l 0.6155,-6.3588 l 0.6155,-8.1363 l 0.6155,4.3056 l 0.6155,12.8467 l 0.6155,30.7389 l 0.6155,41.1728 l 0.6155,47.6125 l 0.6155,9.5006 l 0.6155,-49.7755 l 0.6155,-30.8574 l 0.6155,-1.9562 l 0.6155,7.8468 l 0.6155,30.9157 l 0.6155,-24.0904 l 0.6155,-3.4938 l 0.6155,14.8686 l 0.6155,-32.4917 l 0.6155,14.1329 l 0.6155,-8.0797 l 0.6155,-6.8476 l 0.6155,3.4205 l 0.6155,-17.3422 l 0.6155,-11.4149 l 0.6155,2.9690 l 0.6155,19.1461 l 0.6155,-7.2027 l 0.6155,14.3971 l 0.6155,0.8061 l 0.6155,2.5076 l 0.6155,-1.5351 l 0.6155,32.5926 l 0.6155,-5.3877 l 0.6155,-30.8649 l 0.6155,-4.6540 l 0.6155,-22.1192 l 0.6155,-26.7709 l 0.6155,5.3894 l 0.6155,-11.0510 l 0.6155,-11.8463 l 0.6155,0.3741 l 0.6155,-0.4656 l 0.6155,11.6181 l 0.6155,8.0477 l 0.6155,-23.5202 l 0.6155,-5.5407 l 0.6155,1.4684 l 0.6155,4.1590 l 0.6155,11.2301 l 0.6155,-27.5952 l 0.6155,-15.7727 l 0.6155,6.3178 l 0.6155,7.1854 l 0.6155,-17.7818 l 0.6155,4.2574 l 0.6155,11.6560 l 0.6155,-18.2710 l 0.6155,-1.1059 l 0.6155,10.1364 l 0.6155,5.3774 l 0.6155,3.7500 l 0.6155,20.9365 l 0.6155,-0.9861 l 0.6155,7.8812 l 0.6155,26.3288 l 0.6155,18.9669 l 0.6155,-28.6491 l 0.6155,2.6322 l 0.6155,-28.2341 l 0.6155,3.3891 l 0.6155,-4.9157 l 0.6155,3.7934 l 0.6155,-0.5733 l 0.6155,1.8350 l 0.6155,0.4624 l 0.6155,10.0215 l 0.6155,-19.3494 l 0.6155,21.3761 l 0.6155,24.6157 l 0.6155,-35.7093 l 0.6155,11.4276 l 0.6155,10.2316 l 0.6155,11.7017 l 0.6155,-4.0521 l 0.6155,29.0851 l 0.6155,-8.7849 l 0.6155,-17.4417 l 0.6155,-22.3248 l 0.6155,21.8346 l 0.6155,24.2041 l 0.6155,-12.3037 l 0.6155,-13.2881 l 0.6155,-17.8589 l 0.6155,2.6494 l 0.6155,3.3903 l 0.6155,-15.4287 l 0.6155,11.2824 l 0.6155,14.0197 l 0.6155,21.8855 l 0.6155,-4.3507 l 0.6155,17.8452 l 0.6155,32.0251 l 0.6155,11.1749 l 0.6155,-5.3198 l 0.6155,-15.0252 l 0.6155,32.0955 l 0.6155,-27.0101 l 0.6155,24.9461 l 0.6155,-4.9884 l 0.6155,11.0686 l 0.6155,-11.6252 l 0.6155,-31.6855 l 0.6155,17.5398 l 0.6155,-21.8411 l 0.6155,11.5354 l 0.6155,-10.2406 l 0.6155,-36.1272 l 0.6155,-0.1732 l 0.6155,23.4453 l 0.6155,-8.3498 l 0.6155,-3.5512 l 0.6155,23.4109 l 0.6155,16.3091 l 0.6155,-2.5367 l 0.6155,-3.1217 l 0.6155,14.0856 l 0.6155,-31.6147 l 0.6155,-24.8893 l 0.6155,-23.3879 l 0.6155,6.2510 l 0.6155,-0.2444 l 0.6155,-20.6166 l 0.6155,18.0499 l 0.6155,-6.3907 l 0.6155,-16.1501 l 0.6155,3.6396 l 0.6155,12.7439 l 0.6155,-35.6364 l 0.6155,-3.9658 l 0.6155,-3.0073 l 0.6155,-2.6488 l 0.6155,1.0892 l 0.6155,19.8507 l 0.6155,-6.3960 l 0.6155,1.5301 l 0.6155,-24.7272 l 0.6155,4.8924 l 0.6155,5.6840 l 0.6155,-6.7512 l 0.6155,-8.2044 l 0.6155,-4.1878 l 0.6155,1.9275 l 0.6155,5.2225 l 0.6155,15.0853 l 0.6155,3.3402 l 0.6155,1.5100 l 0.6155,-14.3449 l 0.6155,-5.0553 l 0.6155,7.5488 l 0.6155,-9.2490 l 0.6155,10.1544 l 0.6155,23.0335 l 0.6155,-18.3600 l 0.6155,24.4939 l 0.6155,-3.5554 l 0.6155,6.5182 l 0.6155,-16.7142 l 0.6155,-16.1441 l 0.6155,2.5938 l 0.6155,4.6342 l 0.6155,-9.5958 l 0.6155,-2.6575 l 0.6155,1.9085 l 0.6155,13.4801 l 0.6155,2.5109 l 0.6155,6.1003 l 0.6155,-1.5679 l 0.6155,-1.0562 l 0.6155,20.8071 l 0.6155,10.8427 l 0.6155,-15.2482 l 0.6155,17.1935 l 0.6155,10.9825 l 0.6155,0.2591 l 0.6155,-6.3696 l 0.6155,-1.3522 l 0.6155,-25.0609 l 0.6155,17.8309 l 0.6155,0.6628 l 0.6155,14.6207 l 0.6155,-17.7468 l 0.6155,15.4592 l 0.6155,-0.6872 l 0.6155,5.7071 l 0.6155,-10.9771 l 0.6155,3.3794 l 0.6155,-24.0831 l 0.6155,-10.1405 l 0.6155,1.6896 l 0.6155,-5.6321 l 0.6155,3.2682 l 0.6155,-0.4300 l 0.6155,-3.3367 l 0.6155,6.8595 l 0.6155,-7.3295 l 0.6155,-0.5221 l 0.6155,-4.2262 l 0.6155,5.3529 l 0.6155,18.7534 l 0.6155,14.5662 l 0.6155,3.0735 l 0.6155,3.0458 l 0.6155,-5.9509 l 0.6155,5.7675 l 0.6155,-11.1311 l 0.6155,-4.6718 l 0.6155,3.4994 l 0.6155,-24.2852 l 0.6155,57.3820 l 0.6155,19.9719 l 0.6155,-22.4252 l 0.6155,-38.6509 l 0.6155,-1.0384 l 0.6155,8.5580 l 0.6155,-5.4146 l 0.6155,1.8934 l 0.6155,-17.6474 l 0.6155,-2.2276 l 0.6155,-6.5546 l 0.6155,2.0287 l 0.6155,-4.4032 l 0.6155,3.4725 l 0.6155,-0.8497 l 0.6155,4.0866 l 0.6155,-3.7059 l 0.6155,7.0605 l 0.6155,-4.5145 l 0.6155,6.3669 l 0.6155,1.4254 l 0.6155,3.6133 l 0.6155,-0.7760 l 0.6155,-0.8145 l 0.6155,3.8372 l 0.6155,11.5786 l 0.6155,-4.2305 l 0.6155,0.9027 l 0.6155,-14.3556 l 0.6155,3.4420 l 0.6155,1.0787 l 0.6155,6.7243 l 0.6155,-7.4496 l 0.6155,3.2254 l 0.6155,-3.6891 l 0.6155,11.7951 l 0.6155,-2.3958 l 0.6155,-2.9874 l 0.6155,4.2985 l 0.6155,2.4059 l 0.6155,-2.8840 l 0.6155,11.5749 l 0.6155,3.4212 l 0.6155,3.7089 l 0.6155,-11.4253 l 0.6155,4.8479 l 0.6155,5.4750 l 0.6155,0.3547 l 0.6155,-9.3970 l 0.6155,-5.9623 l 0.6155,1.3624 l 0.6155,5.8181 l 0.6155,38.0830 l 0.6155,-24.0438 l 0.6155,17.6539 l 0.6155,-0.2436 l 0.6155,-14.8167 l 0.6155,4.4338 l 0.6155,-0.5237 l 0.6155,-0.9523 l 0.6155,-16.4619 l 0.6155,-8.7905 l 0.6155,8.1985 l 0.6155,11.5851 l 0.6155,-9.5054 l 0.6155,-7.4327 l 0.6155,13.0312 l 0.6155,-11.7160 l 0.6155,4.8288 l 0.6155,7.0206 l 0.6155,-6.6121 l 0.6155,-0.6655 l 0.6155,4.9224 l 0.6155,-7.4306 l 0.6155,18.6234 l 0.6155,-2.4584 l 0.6155,3.9899 l 0.6155,-1.1970 l 0.6155,3.9248 l 0.6155,-11.3199 l 0.6155,-4.0841 l 0.6155,1.9294 l 0.6155,-0.2989 l 0.6155,-8.7519 l 0.6155,6.5035 l 0.6155,2.6934 l 0.6155,4.7996 l 0.6155,4.8321 l 0.6155,-0.8132 l 0.6155,11.3013 l 0.6155,9.9737 l 0.6155,5.7864 l 0.6155,0.6227 l 0.6155,-44.6467 l 0.6155,-5.1828 l 0.6155,-15.0644 l 0.6155,-1.7641 l 0.6155,2.8230 l 0.6155,0.9647 l 0.6155,-9.9848 l 0.6155,3.5224 l 0.6155,-5.7510 l 0.6155,4.9584 l 0.6155,-10.1814 l 0.6155,-1.5823 l 0.6155,0.5648 l 0.6155,-4.4053 l 0.6155,10.5370 l 0.6155,-0.6040 l 0.6155,5.9508 l 0.6155,7.1227 l 0.6155,0.2971 l 0.6155,-9.1490 l 0.6155,-4.4485 l 0.6155,-20.7903 l 0.6155,-0.9103 l 0.6155,-6.8634 l 0.6155,4.8217 l 0.6155,-7.8829 l 0.6155,16.7370 l 0.6155,-3.8116 l 0.6155,5.2017 l 0.6155,-0.9709 l 0.6155,-3.6685 l 0.6155,6.6780 l 0.6155,5.3662 l 0.6155,-0.1739 l 0.6155,-1.9200 l 0.6155,16.7079 l 0.6155,1.6678 l 0.6155,8.7537 l 0.6155,-13.7380 l 0.6155,-7.8920 l 0.6155,2.9172 l 0.6155,-4.1834 l 0.6155,7.6579 l 0.6155,1.4230 l 0.6155,-3.4481 l 0.6155,5.2714 l 0.6155,-1.9238 l 0.6155,6.6905 l 0.6155,-2.0697 l 0.6155,7.6915 l 0.6155,-5.3675 l 0.6155,5.9468 l 0.6155,-11.4509 l 0.6155,-12.7758 l 0.6155,3.1101 l 0.6155,3.2316 l 0.6155,11.8652 l 0.6155,2.4170 l 0.6155,0.3429 l 0.6155,-0.1399 l 0.6155,-12.0016 l 0.6155,4.9626 l 0.6155,0.7853 l 0.6155,-0.0499 l 0.6155,-9.0012 l 0.6155,-4.5605 l 0.6155,-7.2156 l 0.6155,-4.6835 l 0.6155,-6.1195 l 0.6155,4.3894 l 0.6155,-0.3659 l 0.6155,-7.9562 l 0.6155,5.0777 l 0.6155,2.0834 l 0.6155,0.0420 l 0.6155,0.9353 l 0.6155,7.8636 l 0.6155,-20.7841 l 0.6155,11.7632 l 0.6155,1.3783 l 0.6155,6.9122 l 0.6155,6.0133 l 0.6155,4.8010 l 0.6155,0.0600 l 0.6155,-3.5454 l 0.6155,0.9095 l 0.6155,6.8736 l 0.6155,-11.2673 l 0.6155,4.0344 l 0.6155,3.4183 l 0.6155,4.3871 l 0.6155,20.8158 l 0.6155,-2.3970 l 0.6155,1.5891 l 0.6155,1.2521 l 0.6155,1.4677 l 0.6155,-10.2650 l 0.6155,-1.0342 l 0.6155,-3.6248 l 0.6155,4.0212 l 0.6155,2.9730 l 0.6155,-0.4395 l 0.6155,5.1782 l 0.6155,-2.8189 l 0.6155,1.6457 l 0.6155,-0.8672 l 0.6155,2.7007 l 0.6155,6.5471 l 0.6155,11.0916 l 0.6155,-14.4477 l 0.6155,4.1993 l 0.6155,2.3197 l 0.6155,-11.6037 l 0.6155,4.5591 l 0.6155,-15.5509 l 0.6155,-7.2955 l 0.6155,1.7337 l 0.6155,0.2922 l 0.6155,3.6761 l 0.6155,-1.5574 l 0.6155,-0.7347 l 0.6155,2.9129 l 0.6155,0.0335 l 0.6155,-5.4029 l 0.6155,1.1520 l 0.6155,2.8146 l 0.6155,-0.7827 l 0.6155,4.7126 l 0.6155,3.3627 l 0.6155,-7.4580 l 0.6155,2.2423 l 0.6155,29.3269 l 0.6155,-4.9067 l 0.6155,-8.7512 l 0.6155,-6.2148 l 0.6155,-1.6769 l 0.6155,-2.4808 l 0.6155,-5.0703 l 0.6155,0.6769 l 0.6155,2.6284 l 0.6155,1.5563 l 0.6155,-10.4057 l 0.6155,-3.8574 l 0.6155,3.1907 l 0.6155,5.2059 l 0.6155,-1.1260 l 0.6155,0.8301 l 0.6155,2.4379 "/>
  </g>
  <g stroke-linejoin="miter" stroke-opacity="1.0" fill-opacity="0.0" stroke="rgb(102,102,102)" stroke-width="0.4370409661550818" fill="rgb(0,0,0)" stroke-linecap="butt" stroke-miterlimit="10.0">
    <path d="M 124.6810,115.6408 h 307.1485 "/>
  </g>
  <g stroke-linejoin="miter" stroke-opacity="0.0" fill-opacity="0.0" stroke="rgb(0,0,0)" fill-rule="evenodd" stroke-width="0.0" fill="rgb(0,0,0)" stroke-linecap="butt" stroke-miterlimit="10.0">
    <path d="M 49.8924,111.1481 l -24.5965,0.0000 l -0.0000,147.5787 l 24.5965,0.0000 Z"/>
  </g>
  <g stroke-linejoin="miter" stroke-opacity="1.0" fill-opacity="1.0" font-size="22.360410021622705px" stroke="rgb(0,0,0)" fill-rule="evenodd" stroke-width="0.0" fill="rgb(31,119,180)" stroke-linecap="butt" stroke-miterlimit="10.0">
    <text dominant-baseline="middle" transform="matrix(0.0000,-1.0000,1.0000,0.0000,37.5942,258.7268)" stroke="none" text-anchor="start">alpha on std
    </text>
  </g>
  <g stroke-linejoin="miter" stroke-opacity="0.0" fill-opacity="0.0" stroke="rgb(0,0,0)" fill-rule="evenodd" stroke-width="0.0" fill="rgb(0,0,0)" stroke-linecap="butt" stroke-miterlimit="10.0">
    <path d="M 566.2277,255.2578 l -0.0000,-12.2982 h -30.7456 l -0.0000,12.2982 Z"/>
  </g>
  <g stroke-linejoin="miter" stroke-opacity="1.0" fill-opacity="0.63" font-size="11.180205010811353px" stroke="rgb(0,0,0)" fill-rule="evenodd" stroke-width="0.0" fill="rgb(0,0,0)" stroke-linecap="butt" stroke-miterlimit="10.0">
    <text dominant-baseline="middle" transform="matrix(1.0000,-0.0000,0.0000,1.0000,550.8549,249.1087)" stroke="none" text-anchor="middle">0.996
    </text>
  </g>
  <g stroke-linejoin="miter" stroke-opacity="1.0" fill-opacity="0.0" stroke="rgb(44,160,44)" stroke-width="1.3111228984652454" fill="rgb(0,0,0)" stroke-linecap="butt" stroke-miterlimit="10.0">
    <path d="M 510.9103,247.9907 h 20.4766 "/>
  </g>
  <g stroke-linejoin="miter" stroke-opacity="0.0" fill-opacity="0.0" stroke="rgb(0,0,0)" fill-rule="evenodd" stroke-width="0.0" fill="rgb(0,0,0)" stroke-linecap="butt" stroke-miterlimit="10.0">
    <path d="M 560.0786,236.8166 l -0.0000,-12.2982 h -24.5965 l -0.0000,12.2982 Z"/>
  </g>
  <g stroke-linejoin="miter" stroke-opacity="1.0" fill-opacity="0.63" font-size="11.180205010811353px" stroke="rgb(0,0,0)" fill-rule="evenodd" stroke-width="0.0" fill="rgb(0,0,0)" stroke-linecap="butt" stroke-miterlimit="10.0">
    <text dominant-baseline="middle" transform="matrix(1.0000,-0.0000,0.0000,1.0000,547.7804,230.6675)" stroke="none" text-anchor="middle">0.99
    </text>
  </g>
  <g stroke-linejoin="miter" stroke-opacity="1.0" fill-opacity="0.0" stroke="rgb(255,127,14)" stroke-width="1.3111228984652454" fill="rgb(0,0,0)" stroke-linecap="butt" stroke-miterlimit="10.0">
    <path d="M 510.9103,229.5495 h 20.4766 "/>
  </g>
  <g stroke-linejoin="miter" stroke-opacity="0.0" fill-opacity="0.0" stroke="rgb(0,0,0)" fill-rule="evenodd" stroke-width="0.0" fill="rgb(0,0,0)" stroke-linecap="butt" stroke-miterlimit="10.0">
    <path d="M 560.0786,218.3754 l -0.0000,-12.2982 h -24.5965 l -0.0000,12.2982 Z"/>
  </g>
  <g stroke-linejoin="miter" stroke-opacity="1.0" fill-opacity="0.63" font-size="11.180205010811353px" stroke="rgb(0,0,0)" fill-rule="evenodd" stroke-width="0.0" fill="rgb(0,0,0)" stroke-linecap="butt" stroke-miterlimit="10.0">
    <text dominant-baseline="middle" transform="matrix(1.0000,-0.0000,0.0000,1.0000,547.7804,212.2263)" stroke="none" text-anchor="middle">0.95
    </text>
  </g>
  <g stroke-linejoin="miter" stroke-opacity="1.0" fill-opacity="0.0" stroke="rgb(31,119,180)" stroke-width="1.3111228984652454" fill="rgb(0,0,0)" stroke-linecap="butt" stroke-miterlimit="10.0">
    <path d="M 510.9103,211.1083 h 20.4766 "/>
  </g>
  <g stroke-linejoin="miter" stroke-opacity="0.0" fill-opacity="0.0" stroke="rgb(0,0,0)" fill-rule="evenodd" stroke-width="0.0" fill="rgb(0,0,0)" stroke-linecap="butt" stroke-miterlimit="10.0">
    <path d="M 546.0481,199.9342 l -0.0000,-14.0551 h -70.2756 l -0.0000,14.0551 Z"/>
  </g>
  <g stroke-linejoin="miter" stroke-opacity="1.0" fill-opacity="0.33" font-size="12.777377155212973px" stroke="rgb(0,0,0)" fill-rule="evenodd" stroke-width="0.0" fill="rgb(0,0,0)" stroke-linecap="butt" stroke-miterlimit="10.0">
    <text dominant-baseline="middle" transform="matrix(1.0000,-0.0000,0.0000,1.0000,510.9103,192.9067)" stroke="none" text-anchor="middle">decay rate
    </text>
  </g>
  <g stroke-linejoin="miter" stroke-opacity="0.2" fill-opacity="0.0" stroke="rgb(0,0,0)" stroke-width="0.8740819323101636" fill="rgb(0,0,0)" stroke-linecap="butt" stroke-miterlimit="10.0">
    <path d="M 570.7505,258.7268 l -0.0000,-76.3166 h -99.5008 l -0.0000,76.3166 Z"/>
  </g>
  <g stroke-linejoin="miter" stroke-opacity="0.0" fill-opacity="0.1" stroke="rgb(0,0,0)" stroke-width="0.0" fill="rgb(0,0,0)" stroke-linecap="butt" stroke-miterlimit="10.0">
    <path d="M 116.4904,258.7268 l -0.0000,-204.7657 h -4.0953 l -0.0000,204.7657 Z"/>
  </g>
  <g stroke-linejoin="miter" stroke-opacity="0.0" fill-opacity="0.0" stroke="rgb(0,0,0)" fill-rule="evenodd" stroke-width="0.0" fill="rgb(0,0,0)" stroke-linecap="butt" stroke-miterlimit="10.0">
    <path d="M 107.2759,65.3858 l -0.0000,-14.0551 h -42.1653 l -0.0000,14.0551 Z"/>
  </g>
  <g stroke-linejoin="miter" stroke-opacity="1.0" fill-opacity="0.6" font-size="12.777377155212973px" stroke="rgb(0,0,0)" fill-rule="evenodd" stroke-width="0.0" fill="rgb(0,0,0)" stroke-linecap="butt" stroke-miterlimit="10.0">
    <text dominant-baseline="middle" transform="matrix(1.0000,-0.0000,0.0000,1.0000,86.1932,58.3582)" stroke="none" text-anchor="middle">2.0e-3
    </text>
  </g>
  <g stroke-linejoin="miter" stroke-opacity="0.6" fill-opacity="0.0" stroke="rgb(0,0,0)" stroke-width="2.185204830775409" fill="rgb(0,0,0)" stroke-linecap="butt" stroke-miterlimit="10.0">
    <path d="M 110.3474,57.0805 h 6.1430 "/>
  </g>
  <g stroke-linejoin="miter" stroke-opacity="0.0" fill-opacity="0.0" stroke="rgb(0,0,0)" fill-rule="evenodd" stroke-width="0.0" fill="rgb(0,0,0)" stroke-linecap="butt" stroke-miterlimit="10.0">
    <path d="M 107.2759,94.6659 l -0.0000,-14.0551 h -42.1653 l -0.0000,14.0551 Z"/>
  </g>
  <g stroke-linejoin="miter" stroke-opacity="1.0" fill-opacity="0.6" font-size="12.777377155212973px" stroke="rgb(0,0,0)" fill-rule="evenodd" stroke-width="0.0" fill="rgb(0,0,0)" stroke-linecap="butt" stroke-miterlimit="10.0">
    <text dominant-baseline="middle" transform="matrix(1.0000,-0.0000,0.0000,1.0000,86.1932,87.6384)" stroke="none" text-anchor="middle">1.0e-3
    </text>
  </g>
  <g stroke-linejoin="miter" stroke-opacity="0.6" fill-opacity="0.0" stroke="rgb(0,0,0)" stroke-width="2.185204830775409" fill="rgb(0,0,0)" stroke-linecap="butt" stroke-miterlimit="10.0">
    <path d="M 110.3474,86.3606 h 6.1430 "/>
  </g>
  <g stroke-linejoin="miter" stroke-opacity="0.0" fill-opacity="0.0" stroke="rgb(0,0,0)" fill-rule="evenodd" stroke-width="0.0" fill="rgb(0,0,0)" stroke-linecap="butt" stroke-miterlimit="10.0">
    <path d="M 107.2759,123.9461 l -0.0000,-14.0551 h -35.1378 l -0.0000,14.0551 Z"/>
  </g>
  <g stroke-linejoin="miter" stroke-opacity="1.0" fill-opacity="0.6" font-size="12.777377155212973px" stroke="rgb(0,0,0)" fill-rule="evenodd" stroke-width="0.0" fill="rgb(0,0,0)" stroke-linecap="butt" stroke-miterlimit="10.0">
    <text dominant-baseline="middle" transform="matrix(1.0000,-0.0000,0.0000,1.0000,89.7070,116.9185)" stroke="none" text-anchor="middle">0.0e0
    </text>
  </g>
  <g stroke-linejoin="miter" stroke-opacity="0.6" fill-opacity="0.0" stroke="rgb(0,0,0)" stroke-width="2.185204830775409" fill="rgb(0,0,0)" stroke-linecap="butt" stroke-miterlimit="10.0">
    <path d="M 110.3474,115.6408 h 6.1430 "/>
  </g>
  <g stroke-linejoin="miter" stroke-opacity="0.0" fill-opacity="0.0" stroke="rgb(0,0,0)" fill-rule="evenodd" stroke-width="0.0" fill="rgb(0,0,0)" stroke-linecap="butt" stroke-miterlimit="10.0">
    <path d="M 107.2759,153.2262 l -0.0000,-14.0551 h -49.1929 l -0.0000,14.0551 Z"/>
  </g>
  <g stroke-linejoin="miter" stroke-opacity="1.0" fill-opacity="0.6" font-size="12.777377155212973px" stroke="rgb(0,0,0)" fill-rule="evenodd" stroke-width="0.0" fill="rgb(0,0,0)" stroke-linecap="butt" stroke-miterlimit="10.0">
    <text dominant-baseline="middle" transform="matrix(1.0000,-0.0000,0.0000,1.0000,82.6795,146.1987)" stroke="none" text-anchor="middle">-1.0e-3
    </text>
  </g>
  <g stroke-linejoin="miter" stroke-opacity="0.6" fill-opacity="0.0" stroke="rgb(0,0,0)" stroke-width="2.185204830775409" fill="rgb(0,0,0)" stroke-linecap="butt" stroke-miterlimit="10.0">
    <path d="M 110.3474,144.9209 h 6.1430 "/>
  </g>
  <g stroke-linejoin="miter" stroke-opacity="0.0" fill-opacity="0.0" stroke="rgb(0,0,0)" fill-rule="evenodd" stroke-width="0.0" fill="rgb(0,0,0)" stroke-linecap="butt" stroke-miterlimit="10.0">
    <path d="M 107.2759,182.5064 l -0.0000,-14.0551 h -49.1929 l -0.0000,14.0551 Z"/>
  </g>
  <g stroke-linejoin="miter" stroke-opacity="1.0" fill-opacity="0.6" font-size="12.777377155212973px" stroke="rgb(0,0,0)" fill-rule="evenodd" stroke-width="0.0" fill="rgb(0,0,0)" stroke-linecap="butt" stroke-miterlimit="10.0">
    <text dominant-baseline="middle" transform="matrix(1.0000,-0.0000,0.0000,1.0000,82.6795,175.4788)" stroke="none" text-anchor="middle">-2.0e-3
    </text>
  </g>
  <g stroke-linejoin="miter" stroke-opacity="0.6" fill-opacity="0.0" stroke="rgb(0,0,0)" stroke-width="2.185204830775409" fill="rgb(0,0,0)" stroke-linecap="butt" stroke-miterlimit="10.0">
    <path d="M 110.3474,174.2011 h 6.1430 "/>
  </g>
  <g stroke-linejoin="miter" stroke-opacity="0.0" fill-opacity="0.0" stroke="rgb(0,0,0)" fill-rule="evenodd" stroke-width="0.0" fill="rgb(0,0,0)" stroke-linecap="butt" stroke-miterlimit="10.0">
    <path d="M 107.2759,211.7865 l -0.0000,-14.0551 h -49.1929 l -0.0000,14.0551 Z"/>
  </g>
  <g stroke-linejoin="miter" stroke-opacity="1.0" fill-opacity="0.6" font-size="12.777377155212973px" stroke="rgb(0,0,0)" fill-rule="evenodd" stroke-width="0.0" fill="rgb(0,0,0)" stroke-linecap="butt" stroke-miterlimit="10.0">
    <text dominant-baseline="middle" transform="matrix(1.0000,-0.0000,0.0000,1.0000,82.6795,204.7589)" stroke="none" text-anchor="middle">-3.0e-3
    </text>
  </g>
  <g stroke-linejoin="miter" stroke-opacity="0.6" fill-opacity="0.0" stroke="rgb(0,0,0)" stroke-width="2.185204830775409" fill="rgb(0,0,0)" stroke-linecap="butt" stroke-miterlimit="10.0">
    <path d="M 110.3474,203.4812 h 6.1430 "/>
  </g>
  <g stroke-linejoin="miter" stroke-opacity="0.0" fill-opacity="0.0" stroke="rgb(0,0,0)" fill-rule="evenodd" stroke-width="0.0" fill="rgb(0,0,0)" stroke-linecap="butt" stroke-miterlimit="10.0">
    <path d="M 107.2759,241.0667 l -0.0000,-14.0551 h -49.1929 l -0.0000,14.0551 Z"/>
  </g>
  <g stroke-linejoin="miter" stroke-opacity="1.0" fill-opacity="0.6" font-size="12.777377155212973px" stroke="rgb(0,0,0)" fill-rule="evenodd" stroke-width="0.0" fill="rgb(0,0,0)" stroke-linecap="butt" stroke-miterlimit="10.0">
    <text dominant-baseline="middle" transform="matrix(1.0000,-0.0000,0.0000,1.0000,82.6795,234.0391)" stroke="none" text-anchor="middle">-4.0e-3
    </text>
  </g>
  <g stroke-linejoin="miter" stroke-opacity="0.6" fill-opacity="0.0" stroke="rgb(0,0,0)" stroke-width="2.185204830775409" fill="rgb(0,0,0)" stroke-linecap="butt" stroke-miterlimit="10.0">
    <path d="M 110.3474,232.7614 h 6.1430 "/>
  </g>
  <g stroke-linejoin="miter" stroke-opacity="0.0" fill-opacity="0.1" stroke="rgb(0,0,0)" stroke-width="0.0" fill="rgb(0,0,0)" stroke-linecap="butt" stroke-miterlimit="10.0">
    <path d="M 431.8295,271.0127 l -0.0000,-4.0953 h -307.1485 l -0.0000,4.0953 Z"/>
  </g>
  <g stroke-linejoin="miter" stroke-opacity="0.0" fill-opacity="0.0" stroke="rgb(0,0,0)" fill-rule="evenodd" stroke-width="0.0" fill="rgb(0,0,0)" stroke-linecap="butt" stroke-miterlimit="10.0">
    <path d="M 451.0730,340.7319 l 9.9385,-9.9385 l -54.6616,-54.6616 l -9.9385,9.9385 Z"/>
  </g>
  <g stroke-linejoin="miter" stroke-opacity="1.0" fill-opacity="0.6" font-size="12.777377155212973px" stroke="rgb(0,0,0)" fill-rule="evenodd" stroke-width="0.0" fill="rgb(0,0,0)" stroke-linecap="butt" stroke-miterlimit="10.0">
    <text dominant-baseline="middle" transform="matrix(0.7071,0.7071,-0.7071,0.7071,401.3806,281.1011)" stroke="none" text-anchor="start">31 Mar 2017
    </text>
  </g>
  <g stroke-linejoin="miter" stroke-opacity="0.6" fill-opacity="0.0" stroke="rgb(0,0,0)" stroke-width="2.185204830775409" fill="rgb(0,0,0)" stroke-linecap="butt" stroke-miterlimit="10.0">
    <path d="M 402.2841,266.9174 v 6.1430 "/>
  </g>
  <g stroke-linejoin="miter" stroke-opacity="0.0" fill-opacity="0.0" stroke="rgb(0,0,0)" fill-rule="evenodd" stroke-width="0.0" fill="rgb(0,0,0)" stroke-linecap="butt" stroke-miterlimit="10.0">
    <path d="M 412.9102,340.7319 l 9.9385,-9.9385 l -54.6616,-54.6616 l -9.9385,9.9385 Z"/>
  </g>
  <g stroke-linejoin="miter" stroke-opacity="1.0" fill-opacity="0.6" font-size="12.777377155212973px" stroke="rgb(0,0,0)" fill-rule="evenodd" stroke-width="0.0" fill="rgb(0,0,0)" stroke-linecap="butt" stroke-miterlimit="10.0">
    <text dominant-baseline="middle" transform="matrix(0.7071,0.7071,-0.7071,0.7071,363.2179,281.1011)" stroke="none" text-anchor="start">31 Dec 2016
    </text>
  </g>
  <g stroke-linejoin="miter" stroke-opacity="0.6" fill-opacity="0.0" stroke="rgb(0,0,0)" stroke-width="2.185204830775409" fill="rgb(0,0,0)" stroke-linecap="butt" stroke-miterlimit="10.0">
    <path d="M 364.1214,266.9174 v 6.1430 "/>
  </g>
  <g stroke-linejoin="miter" stroke-opacity="0.0" fill-opacity="0.0" stroke="rgb(0,0,0)" fill-rule="evenodd" stroke-width="0.0" fill="rgb(0,0,0)" stroke-linecap="butt" stroke-miterlimit="10.0">
    <path d="M 374.1320,340.7319 l 9.9385,-9.9385 l -54.6616,-54.6616 l -9.9385,9.9385 Z"/>
  </g>
  <g stroke-linejoin="miter" stroke-opacity="1.0" fill-opacity="0.6" font-size="12.777377155212973px" stroke="rgb(0,0,0)" fill-rule="evenodd" stroke-width="0.0" fill="rgb(0,0,0)" stroke-linecap="butt" stroke-miterlimit="10.0">
    <text dominant-baseline="middle" transform="matrix(0.7071,0.7071,-0.7071,0.7071,324.4396,281.1011)" stroke="none" text-anchor="start">30 Sep 2016
    </text>
  </g>
  <g stroke-linejoin="miter" stroke-opacity="0.6" fill-opacity="0.0" stroke="rgb(0,0,0)" stroke-width="2.185204830775409" fill="rgb(0,0,0)" stroke-linecap="butt" stroke-miterlimit="10.0">
    <path d="M 325.3431,266.9174 v 6.1430 "/>
  </g>
  <g stroke-linejoin="miter" stroke-opacity="0.0" fill-opacity="0.0" stroke="rgb(0,0,0)" fill-rule="evenodd" stroke-width="0.0" fill="rgb(0,0,0)" stroke-linecap="butt" stroke-miterlimit="10.0">
    <path d="M 334.7382,340.7319 l 9.9385,-9.9385 l -54.6616,-54.6616 l -9.9385,9.9385 Z"/>
  </g>
  <g stroke-linejoin="miter" stroke-opacity="1.0" fill-opacity="0.6" font-size="12.777377155212973px" stroke="rgb(0,0,0)" fill-rule="evenodd" stroke-width="0.0" fill="rgb(0,0,0)" stroke-linecap="butt" stroke-miterlimit="10.0">
    <text dominant-baseline="middle" transform="matrix(0.7071,0.7071,-0.7071,0.7071,285.0458,281.1011)" stroke="none" text-anchor="start">30 Jun 2016
    </text>
  </g>
  <g stroke-linejoin="miter" stroke-opacity="0.6" fill-opacity="0.0" stroke="rgb(0,0,0)" stroke-width="2.185204830775409" fill="rgb(0,0,0)" stroke-linecap="butt" stroke-miterlimit="10.0">
    <path d="M 285.9493,266.9174 v 6.1430 "/>
  </g>
  <g stroke-linejoin="miter" stroke-opacity="0.0" fill-opacity="0.0" stroke="rgb(0,0,0)" fill-rule="evenodd" stroke-width="0.0" fill="rgb(0,0,0)" stroke-linecap="butt" stroke-miterlimit="10.0">
    <path d="M 295.9599,340.7319 l 9.9385,-9.9385 l -54.6616,-54.6616 l -9.9385,9.9385 Z"/>
  </g>
  <g stroke-linejoin="miter" stroke-opacity="1.0" fill-opacity="0.6" font-size="12.777377155212973px" stroke="rgb(0,0,0)" fill-rule="evenodd" stroke-width="0.0" fill="rgb(0,0,0)" stroke-linecap="butt" stroke-miterlimit="10.0">
    <text dominant-baseline="middle" transform="matrix(0.7071,0.7071,-0.7071,0.7071,246.2676,281.1011)" stroke="none" text-anchor="start">31 Mar 2016
    </text>
  </g>
  <g stroke-linejoin="miter" stroke-opacity="0.6" fill-opacity="0.0" stroke="rgb(0,0,0)" stroke-width="2.185204830775409" fill="rgb(0,0,0)" stroke-linecap="butt" stroke-miterlimit="10.0">
    <path d="M 247.1711,266.9174 v 6.1430 "/>
  </g>
  <g stroke-linejoin="miter" stroke-opacity="0.0" fill-opacity="0.0" stroke="rgb(0,0,0)" fill-rule="evenodd" stroke-width="0.0" fill="rgb(0,0,0)" stroke-linecap="butt" stroke-miterlimit="10.0">
    <path d="M 258.4127,340.7319 l 9.9385,-9.9385 l -54.6616,-54.6616 l -9.9385,9.9385 Z"/>
  </g>
  <g stroke-linejoin="miter" stroke-opacity="1.0" fill-opacity="0.6" font-size="12.777377155212973px" stroke="rgb(0,0,0)" fill-rule="evenodd" stroke-width="0.0" fill="rgb(0,0,0)" stroke-linecap="butt" stroke-miterlimit="10.0">
    <text dominant-baseline="middle" transform="matrix(0.7071,0.7071,-0.7071,0.7071,208.7204,281.1011)" stroke="none" text-anchor="start">31 Dec 2015
    </text>
  </g>
  <g stroke-linejoin="miter" stroke-opacity="0.6" fill-opacity="0.0" stroke="rgb(0,0,0)" stroke-width="2.185204830775409" fill="rgb(0,0,0)" stroke-linecap="butt" stroke-miterlimit="10.0">
    <path d="M 209.6239,266.9174 v 6.1430 "/>
  </g>
  <g stroke-linejoin="miter" stroke-opacity="0.0" fill-opacity="0.0" stroke="rgb(0,0,0)" fill-rule="evenodd" stroke-width="0.0" fill="rgb(0,0,0)" stroke-linecap="butt" stroke-miterlimit="10.0">
    <path d="M 219.0189,340.7319 l 9.9385,-9.9385 l -54.6616,-54.6616 l -9.9385,9.9385 Z"/>
  </g>
  <g stroke-linejoin="miter" stroke-opacity="1.0" fill-opacity="0.6" font-size="12.777377155212973px" stroke="rgb(0,0,0)" fill-rule="evenodd" stroke-width="0.0" fill="rgb(0,0,0)" stroke-linecap="butt" stroke-miterlimit="10.0">
    <text dominant-baseline="middle" transform="matrix(0.7071,0.7071,-0.7071,0.7071,169.3266,281.1011)" stroke="none" text-anchor="start">30 Sep 2015
    </text>
  </g>
  <g stroke-linejoin="miter" stroke-opacity="0.6" fill-opacity="0.0" stroke="rgb(0,0,0)" stroke-width="2.185204830775409" fill="rgb(0,0,0)" stroke-linecap="butt" stroke-miterlimit="10.0">
    <path d="M 170.2301,266.9174 v 6.1430 "/>
  </g>
  <g stroke-linejoin="miter" stroke-opacity="0.0" fill-opacity="0.0" stroke="rgb(0,0,0)" fill-rule="evenodd" stroke-width="0.0" fill="rgb(0,0,0)" stroke-linecap="butt" stroke-miterlimit="10.0">
    <path d="M 179.6251,340.7319 l 9.9385,-9.9385 l -54.6616,-54.6616 l -9.9385,9.9385 Z"/>
  </g>
  <g stroke-linejoin="miter" stroke-opacity="1.0" fill-opacity="0.6" font-size="12.777377155212973px" stroke="rgb(0,0,0)" fill-rule="evenodd" stroke-width="0.0" fill="rgb(0,0,0)" stroke-linecap="butt" stroke-miterlimit="10.0">
    <text dominant-baseline="middle" transform="matrix(0.7071,0.7071,-0.7071,0.7071,129.9328,281.1011)" stroke="none" text-anchor="start">30 Jun 2015
    </text>
  </g>
  <g stroke-linejoin="miter" stroke-opacity="0.6" fill-opacity="0.0" stroke="rgb(0,0,0)" stroke-width="2.185204830775409" fill="rgb(0,0,0)" stroke-linecap="butt" stroke-miterlimit="10.0">
    <path d="M 130.8363,266.9174 v 6.1430 "/>
  </g>
  <g stroke-linejoin="miter" stroke-opacity="0.0" fill-opacity="0.0" stroke="rgb(0,0,0)" stroke-width="0.0" fill="rgb(0,0,0)" stroke-linecap="butt" stroke-miterlimit="10.0">
    <path d="M 431.8295,258.7268 l -0.0000,-204.7657 h -307.1485 l -0.0000,204.7657 Z"/>
  </g>
</svg>