<svg viewBox="-1.2809678118201535 -0.68275 2.288467811820153 1.5020159178324475" xmlns="http://www.w3.org/2000/svg" xmlns:xlink="http://www.w3.org/1999/xlink" version="1.1" width="600.0" height="400.0"><g stroke-width="0.0" stroke="none" fill="#000000" transform="translate(-0.13673390591007695, -0.57175)" fill-opacity="1.0" font-size="0.12" text-anchor="middle"><text transform="rotate(0.0, 0.0, -0.0)" x="0.0" y="-0.0">digitalised return</text></g><g stroke-width="0.0" stroke="#000000" fill="#666666" fill-opacity="3.0e-2" stroke-opacity="0.0"><rect width="1.9999999999999998" height="1.0" x="-1.0" y="-0.5" /></g><g stroke-width="5.0e-3" stroke="#A8E5EE" fill="none" stroke-opacity="0.3"><polyline points="-1.005,0.5 1.0049999999999997,0.5" /></g><g stroke-width="5.0e-3" stroke="#A8E5EE" fill="none" stroke-opacity="0.3"><polyline points="-1.005,0.33333333333333337 1.0049999999999997,0.33333333333333337" /></g><g stroke-width="5.0e-3" stroke="#A8E5EE" fill="none" stroke-opacity="0.3"><polyline points="-1.005,0.16666666666666669 1.0049999999999997,0.16666666666666669" /></g><g stroke-width="5.0e-3" stroke="#A8E5EE" fill="none" stroke-opacity="0.3"><polyline points="-1.005,-0.0 1.0049999999999997,-0.0" /></g><g stroke-width="5.0e-3" stroke="#A8E5EE" fill="none" stroke-opacity="0.3"><polyline points="-1.005,-0.16666666666666663 1.0049999999999997,-0.16666666666666663" /></g><g stroke-width="5.0e-3" stroke="#A8E5EE" fill="none" stroke-opacity="0.3"><polyline points="-1.005,-0.33333333333333337 1.0049999999999997,-0.33333333333333337" /></g><g stroke-width="5.0e-3" stroke="#A8E5EE" fill="none" stroke-opacity="0.3"><polyline points="-1.005,-0.5 1.0049999999999997,-0.5" /></g><g stroke-width="0.0" stroke="none" fill="#666666" fill-opacity="1.0" font-size="5.0e-2" text-anchor="end"><text x="-1.2309678118201535" y="0.5145">0</text></g><g stroke-width="0.0" stroke="none" fill="#666666" fill-opacity="1.0" font-size="5.0e-2" text-anchor="end"><text x="-1.2309678118201535" y="0.3478333333333334">2</text></g><g stroke-width="0.0" stroke="none" fill="#666666" fill-opacity="1.0" font-size="5.0e-2" text-anchor="end"><text x="-1.2309678118201535" y="0.1811666666666667">4</text></g><g stroke-width="0.0" stroke="none" fill="#666666" fill-opacity="1.0" font-size="5.0e-2" text-anchor="end"><text x="-1.2309678118201535" y="1.4499999999999999e-2">6</text></g><g stroke-width="0.0" stroke="none" fill="#666666" fill-opacity="1.0" font-size="5.0e-2" text-anchor="end"><text x="-1.2309678118201535" y="-0.15216666666666662">8</text></g><g stroke-width="0.0" stroke="none" fill="#666666" fill-opacity="1.0" font-size="5.0e-2" text-anchor="end"><text x="-1.2309678118201535" y="-0.31883333333333336">10</text></g><g stroke-width="0.0" stroke="none" fill="#666666" fill-opacity="1.0" font-size="5.0e-2" text-anchor="end"><text x="-1.2309678118201535" y="-0.4855">12</text></g><g stroke-width="0.0" stroke="#2C429D" fill="#5F0391" fill-opacity="1.0" stroke-opacity="0.4"><line stroke-width="5.0e-3" transform="rotate(-90.0, -1.2008928118201536, 0.5)" x1="-1.2008928118201536" y1="0.515" x2="-1.2008928118201536" y2="0.485" /><line stroke-width="5.0e-3" transform="rotate(-90.0, -1.2008928118201536, 0.33333333333333337)" x1="-1.2008928118201536" y1="0.3483333333333334" x2="-1.2008928118201536" y2="0.31833333333333336" /><line stroke-width="5.0e-3" transform="rotate(-90.0, -1.2008928118201536, 0.16666666666666669)" x1="-1.2008928118201536" y1="0.1816666666666667" x2="-1.2008928118201536" y2="0.15166666666666667" /><line stroke-width="5.0e-3" transform="rotate(-90.0, -1.2008928118201536, -0.0)" x1="-1.2008928118201536" y1="1.5e-2" x2="-1.2008928118201536" y2="-1.5e-2" /><line stroke-width="5.0e-3" transform="rotate(-90.0, -1.2008928118201536, -0.16666666666666663)" x1="-1.2008928118201536" y1="-0.15166666666666662" x2="-1.2008928118201536" y2="-0.18166666666666664" /><line stroke-width="5.0e-3" transform="rotate(-90.0, -1.2008928118201536, -0.33333333333333337)" x1="-1.2008928118201536" y1="-0.31833333333333336" x2="-1.2008928118201536" y2="-0.3483333333333334" /><line stroke-width="5.0e-3" transform="rotate(-90.0, -1.2008928118201536, -0.5)" x1="-1.2008928118201536" y1="-0.485" x2="-1.2008928118201536" y2="-0.515" /></g><g stroke-width="0.0" stroke="#666666" fill="#5F0391" fill-opacity="0.5" stroke-opacity="0.0"><rect width="4.999999999999893e-3" height="1.0" x="-1.1908928118201536" y="-0.5" /></g><g stroke-width="5.0e-3" stroke="#A8E5EE" fill="none" stroke-opacity="0.3"><polyline points="-1.0,0.505 -1.0,-0.505" /></g><g stroke-width="5.0e-3" stroke="#A8E5EE" fill="none" stroke-opacity="0.3"><polyline points="-0.871743486973948,0.505 -0.871743486973948,-0.505" /></g><g stroke-width="5.0e-3" stroke="#A8E5EE" fill="none" stroke-opacity="0.3"><polyline points="-0.6152304609218437,0.505 -0.6152304609218437,-0.505" /></g><g stroke-width="5.0e-3" stroke="#A8E5EE" fill="none" stroke-opacity="0.3"><polyline points="-0.36272545090180375,0.505 -0.36272545090180375,-0.505" /></g><g stroke-width="5.0e-3" stroke="#A8E5EE" fill="none" stroke-opacity="0.3"><polyline points="-0.11022044088176364,0.505 -0.11022044088176364,-0.505" /></g><g stroke-width="5.0e-3" stroke="#A8E5EE" fill="none" stroke-opacity="0.3"><polyline points="0.1342685370741481,0.505 0.1342685370741481,-0.505" /></g><g stroke-width="5.0e-3" stroke="#A8E5EE" fill="none" stroke-opacity="0.3"><polyline points="0.3867735470941882,0.505 0.3867735470941882,-0.505" /></g><g stroke-width="5.0e-3" stroke="#A8E5EE" fill="none" stroke-opacity="0.3"><polyline points="0.6432865731462925,0.505 0.6432865731462925,-0.505" /></g><g stroke-width="5.0e-3" stroke="#A8E5EE" fill="none" stroke-opacity="0.3"><polyline points="0.8997995991983965,0.505 0.8997995991983965,-0.505" /></g><g stroke-width="5.0e-3" stroke="#A8E5EE" fill="none" stroke-opacity="0.3"><polyline points="0.9999999999999998,0.505 0.9999999999999998,-0.505" /></g><g stroke-width="0.0" stroke="none" fill="#666666" fill-opacity="1.0" font-size="5.0e-2" text-anchor="end"><text transform="rotate(-45.0, -1.0, 0.6062500000000001)" x="-1.0" y="0.6062500000000001">12 Feb 2018</text></g><g stroke-width="0.0" stroke="none" fill="#666666" fill-opacity="1.0" font-size="5.0e-2" text-anchor="end"><text transform="rotate(-45.0, -0.871743486973948, 0.6062500000000001)" x="-0.871743486973948" y="0.6062500000000001">31 Mar 2018</text></g><g stroke-width="0.0" stroke="none" fill="#666666" fill-opacity="1.0" font-size="5.0e-2" text-anchor="end"><text transform="rotate(-45.0, -0.6152304609218437, 0.6062500000000001)" x="-0.6152304609218437" y="0.6062500000000001">30 Jun 2018</text></g><g stroke-width="0.0" stroke="none" fill="#666666" fill-opacity="1.0" font-size="5.0e-2" text-anchor="end"><text transform="rotate(-45.0, -0.36272545090180375, 0.6062500000000001)" x="-0.36272545090180375" y="0.6062500000000001">30 Sep 2018</text></g><g stroke-width="0.0" stroke="none" fill="#666666" fill-opacity="1.0" font-size="5.0e-2" text-anchor="end"><text transform="rotate(-45.0, -0.11022044088176364, 0.6062500000000001)" x="-0.11022044088176364" y="0.6062500000000001">31 Dec 2018</text></g><g stroke-width="0.0" stroke="none" fill="#666666" fill-opacity="1.0" font-size="5.0e-2" text-anchor="end"><text transform="rotate(-45.0, 0.1342685370741481, 0.6062500000000001)" x="0.1342685370741481" y="0.6062500000000001">31 Mar 2019</text></g><g stroke-width="0.0" stroke="none" fill="#666666" fill-opacity="1.0" font-size="5.0e-2" text-anchor="end"><text transform="rotate(-45.0, 0.3867735470941882, 0.6062500000000001)" x="0.3867735470941882" y="0.6062500000000001">30 Jun 2019</text></g><g stroke-width="0.0" stroke="none" fill="#666666" fill-opacity="1.0" font-size="5.0e-2" text-anchor="end"><text transform="rotate(-45.0, 0.6432865731462925, 0.6062500000000001)" x="0.6432865731462925" y="0.6062500000000001">30 Sep 2019</text></g><g stroke-width="0.0" stroke="none" fill="#666666" fill-opacity="1.0" font-size="5.0e-2" text-anchor="end"><text transform="rotate(-45.0, 0.8997995991983965, 0.6062500000000001)" x="0.8997995991983965" y="0.6062500000000001">31 Dec 2019</text></g><g stroke-width="0.0" stroke="none" fill="#666666" fill-opacity="1.0" font-size="5.0e-2" text-anchor="end"><text transform="rotate(-45.0, 0.9999999999999998, 0.6062500000000001)" x="0.9999999999999998" y="0.6062500000000001">06 Feb 2020</text></g><g stroke-width="0.0" stroke="#2C429D" fill="#5F0391" fill-opacity="1.0" stroke-opacity="0.4"><line stroke-width="5.0e-3" x1="-1.0" y1="0.54" x2="-1.0" y2="0.51" /><line stroke-width="5.0e-3" x1="-0.871743486973948" y1="0.54" x2="-0.871743486973948" y2="0.51" /><line stroke-width="5.0e-3" x1="-0.6152304609218437" y1="0.54" x2="-0.6152304609218437" y2="0.51" /><line stroke-width="5.0e-3" x1="-0.36272545090180375" y1="0.54" x2="-0.36272545090180375" y2="0.51" /><line stroke-width="5.0e-3" x1="-0.11022044088176364" y1="0.54" x2="-0.11022044088176364" y2="0.51" /><line stroke-width="5.0e-3" x1="0.1342685370741481" y1="0.54" x2="0.1342685370741481" y2="0.51" /><line stroke-width="5.0e-3" x1="0.3867735470941882" y1="0.54" x2="0.3867735470941882" y2="0.51" /><line stroke-width="5.0e-3" x1="0.6432865731462925" y1="0.54" x2="0.6432865731462925" y2="0.51" /><line stroke-width="5.0e-3" x1="0.8997995991983965" y1="0.54" x2="0.8997995991983965" y2="0.51" /><line stroke-width="5.0e-3" x1="0.9999999999999998" y1="0.54" x2="0.9999999999999998" y2="0.51" /></g><g stroke-width="0.0" stroke="#666666" fill="#5F0391" fill-opacity="0.5" stroke-opacity="0.0"><rect width="1.9999999999999998" height="5.0000000000000044e-3" x="-1.0" y="0.51" /></g><g stroke-width="5.0e-3" stroke="#C58C4B" fill="none" stroke-opacity="0.5"><polyline points="-1.0,-0.33333333333333326 -0.9959919839679359,-0.16666666666666663 -0.9919839679358717,-0.33333333333333326 -0.9879759519038076,-0.33333333333333326 -0.9839679358717435,8.333333333333337e-2 -0.9799599198396793,0.4166666666666667 -0.9759519038076152,0.4166666666666667 -0.9719438877755511,-0.0 -0.9679358717434869,-0.33333333333333326 -0.9639278557114228,-0.33333333333333326 -0.9599198396793587,0.4166666666666667 -0.9559118236472945,0.4166666666666667 -0.9519038076152304,0.4166666666666667 -0.9478957915831663,-0.25 -0.9438877755511023,-0.33333333333333326 -0.9398797595190381,-8.333333333333326e-2 -0.935871743486974,0.16666666666666669 -0.9318637274549099,-0.16666666666666663 -0.9278557114228457,-0.33333333333333326 -0.9238476953907816,0.25 -0.9198396793587175,0.4166666666666667 -0.9158316633266533,0.4166666666666667 -0.9118236472945892,0.16666666666666669 -0.9078156312625251,-8.333333333333326e-2 -0.9038076152304609,0.4166666666666667 -0.8997995991983968,-8.333333333333326e-2 -0.8957915831663327,0.25 -0.8917835671342685,0.4166666666666667 -0.8877755511022044,0.4166666666666667 -0.8837675350701403,-0.41666666666666663 -0.8797595190380761,0.4166666666666667 -0.875751503006012,0.25 -0.8717434869739479,-0.33333333333333326 -0.8677354709418837,0.4166666666666667 -0.8637274549098196,-0.33333333333333326 -0.8597194388777555,-0.33333333333333326 -0.8557114228456915,-0.25 -0.8517034068136273,0.4166666666666667 -0.8476953907815632,-0.16666666666666663 -0.8436873747494991,-0.33333333333333326 -0.8396793587174349,0.33333333333333337 -0.8356713426853708,-0.25 -0.8316633266533067,0.25 -0.8276553106212425,-0.25 -0.8236472945891784,-0.33333333333333326 -0.8196392785571143,8.333333333333337e-2 -0.8156312625250501,0.33333333333333337 -0.811623246492986,0.4166666666666667 -0.8076152304609219,8.333333333333337e-2 -0.8036072144288577,0.4166666666666667 -0.7995991983967936,-8.333333333333326e-2 -0.7955911823647295,-0.33333333333333326 -0.7915831663326653,-0.0 -0.7875751503006012,0.4166666666666667 -0.7835671342685371,-8.333333333333326e-2 -0.779559118236473,0.33333333333333337 -0.7755511022044088,0.25 -0.7715430861723447,-0.33333333333333326 -0.7675350701402806,-0.16666666666666663 -0.7635270541082164,8.333333333333337e-2 -0.7595190380761523,-0.33333333333333326 -0.7555110220440882,-0.25 -0.751503006012024,-8.333333333333326e-2 -0.7474949899799599,-0.0 -0.7434869739478958,0.33333333333333337 -0.7394789579158316,-0.16666666666666663 -0.7354709418837675,0.16666666666666669 -0.7314629258517034,0.25 -0.7274549098196392,-0.25 -0.7234468937875751,0.33333333333333337 -0.719438877755511,-8.333333333333326e-2 -0.7154308617234469,0.25 -0.7114228456913828,0.25 -0.7074148296593187,0.4166666666666667 -0.7034068136272545,-0.33333333333333326 -0.6993987975951904,0.33333333333333337 -0.6953907815631263,-0.33333333333333326 -0.6913827655310621,-0.16666666666666663 -0.687374749498998,8.333333333333337e-2 -0.6833667334669339,-0.25 -0.6793587174348698,0.16666666666666669 -0.6753507014028056,-8.333333333333326e-2 -0.6713426853707415,-0.0 -0.6673346693386774,-8.333333333333326e-2 -0.6633266533066133,0.33333333333333337 -0.6593186372745492,-8.333333333333326e-2 -0.6553106212424851,0.16666666666666669 -0.6513026052104209,0.25 -0.6472945891783568,0.33333333333333337 -0.6432865731462927,-8.333333333333326e-2 -0.6392785571142285,0.33333333333333337 -0.6352705410821644,-8.333333333333326e-2 -0.6312625250501003,0.4166666666666667 -0.6272545090180361,-8.333333333333326e-2 -0.623246492985972,0.4166666666666667 -0.6192384769539079,-0.25 -0.6152304609218437,-0.0 -0.6112224448897796,-8.333333333333326e-2 -0.6072144288577155,0.33333333333333337 -0.6032064128256514,-0.25 -0.5991983967935872,-0.25 -0.5951903807615231,-0.25 -0.591182364729459,-0.16666666666666663 -0.5871743486973948,0.4166666666666667 -0.5831663326653307,-0.25 -0.5791583166332666,-0.0 -0.5751503006012024,0.16666666666666669 -0.5711422845691383,-0.16666666666666663 -0.5671342685370742,-8.333333333333326e-2 -0.56312625250501,0.33333333333333337 -0.5591182364729459,0.16666666666666669 -0.5551102204408818,-8.333333333333326e-2 -0.5511022044088176,-0.16666666666666663 -0.5470941883767535,-0.33333333333333326 -0.5430861723446894,0.25 -0.5390781563126252,0.33333333333333337 -0.5350701402805611,0.33333333333333337 -0.531062124248497,-0.16666666666666663 -0.5270541082164328,0.16666666666666669 -0.5230460921843687,-0.16666666666666663 -0.5190380761523046,-0.16666666666666663 -0.5150300601202404,-0.16666666666666663 -0.5110220440881764,-8.333333333333326e-2 -0.5070140280561123,8.333333333333337e-2 -0.5030060120240482,0.25 -0.498997995991984,0.4166666666666667 -0.4949899799599199,0.33333333333333337 -0.49098196392785576,-0.25 -0.4869739478957916,0.4166666666666667 -0.4829659318637275,-0.25 -0.47895791583166336,-0.16666666666666663 -0.47494989979959923,-8.333333333333326e-2 -0.4709418837675351,-8.333333333333326e-2 -0.46693386773547096,0.16666666666666669 -0.46292585170340683,0.25 -0.4589178356713427,-0.25 -0.45490981963927857,-0.25 -0.45090180360721444,8.333333333333337e-2 -0.4468937875751503,-0.25 -0.44288577154308617,0.33333333333333337 -0.43887775551102204,8.333333333333337e-2 -0.434869739478958,0.25 -0.4308617234468939,0.25 -0.42685370741482975,0.33333333333333337 -0.4228456913827656,0.25 -0.4188376753507015,-8.333333333333326e-2 -0.41482965931863736,-0.16666666666666663 -0.4108216432865732,8.333333333333337e-2 -0.4068136272545091,-0.16666666666666663 -0.40280561122244496,8.333333333333337e-2 -0.3987975951903808,0.33333333333333337 -0.3947895791583167,-0.16666666666666663 -0.39078156312625256,-0.0 -0.38677354709418843,-0.25 -0.3827655310621243,0.16666666666666669 -0.37875751503006017,0.33333333333333337 -0.37474949899799603,0.16666666666666669 -0.3707414829659319,0.33333333333333337 -0.36673346693386777,-8.333333333333326e-2 -0.36272545090180364,8.333333333333337e-2 -0.3587174348697395,-0.16666666666666663 -0.35470941883767537,0.16666666666666669 -0.35070140280561124,8.333333333333337e-2 -0.3466933867735471,0.4166666666666667 -0.342685370741483,0.33333333333333337 -0.33867735470941884,0.16666666666666669 -0.3346693386773547,0.16666666666666669 -0.3306613226452907,0.4166666666666667 -0.32665330661322656,0.4166666666666667 -0.3226452905811624,-0.33333333333333326 -0.3186372745490983,0.33333333333333337 -0.31462925851703416,-0.33333333333333326 -0.31062124248497003,8.333333333333337e-2 -0.3066132264529059,0.4166666666666667 -0.30260521042084176,8.333333333333337e-2 -0.29859719438877763,0.33333333333333337 -0.2945891783567135,0.33333333333333337 -0.29058116232464937,0.4166666666666667 -0.28657314629258523,-0.33333333333333326 -0.2825651302605211,0.4166666666666667 -0.27855711422845697,0.33333333333333337 -0.27454909819639284,-0.33333333333333326 -0.2705410821643287,-0.33333333333333326 -0.2665330661322646,-0.33333333333333326 -0.26252505010020044,0.33333333333333337 -0.2585170340681363,-0.25 -0.2545090180360722,-0.25 -0.25050100200400804,-0.33333333333333326 -0.2464929859719439,0.25 -0.24248496993987978,0.4166666666666667 -0.23847695390781565,0.4166666666666667 -0.23446893787575152,0.16666666666666669 -0.2304609218436875,0.4166666666666667 -0.22645290581162336,-0.33333333333333326 -0.22244488977955923,-8.333333333333326e-2 -0.2184368737474951,0.4166666666666667 -0.21442885771543096,0.4166666666666667 -0.21042084168336683,-8.333333333333326e-2 -0.2064128256513027,0.33333333333333337 -0.20240480961923857,-0.33333333333333326 -0.19839679358717444,-0.16666666666666663 -0.1943887775551103,-0.33333333333333326 -0.19038076152304617,0.25 -0.18637274549098204,-0.25 -0.1823647294589179,-0.33333333333333326 -0.17835671342685377,0.4166666666666667 -0.17434869739478964,0.16666666666666669 -0.1703406813627255,0.4166666666666667 -0.16633266533066138,-8.333333333333326e-2 -0.16232464929859725,8.333333333333337e-2 -0.1583166332665331,-0.16666666666666663 -0.15430861723446898,8.333333333333337e-2 -0.15030060120240485,0.4166666666666667 -0.14629258517034072,0.4166666666666667 -0.14228456913827658,8.333333333333337e-2 -0.13827655310621245,0.4166666666666667 -0.13426853707414832,0.4166666666666667 -0.1302605210420842,0.4166666666666667 -0.12625250501002017,0.4166666666666667 -0.12224448897795603,-0.41666666666666663 -0.1182364729458919,-0.25 -0.11422845691382777,0.16666666666666669 -0.11022044088176364,-0.25 -0.1062124248496995,-0.0 -0.10220440881763537,0.4166666666666667 -9.819639278557124e-2,-0.33333333333333326 -9.418837675350711e-2,-0.25 -9.018036072144298e-2,-0.33333333333333326 -8.617234468937884e-2,-0.16666666666666663 -8.216432865731471e-2,-0.16666666666666663 -7.815631262525058e-2,8.333333333333337e-2 -7.414829659318645e-2,0.25 -7.014028056112231e-2,-0.33333333333333326 -6.613226452905818e-2,-8.333333333333326e-2 -6.212424849699405e-2,-0.25 -5.811623246492992e-2,-0.33333333333333326 -5.4108216432865786e-2,0.4166666666666667 -5.010020040080165e-2,-8.333333333333326e-2 -4.609218436873752e-2,-0.0 -4.208416833667339e-2,-0.25 -3.8076152304609256e-2,0.33333333333333337 -3.4068136272545124e-2,0.16666666666666669 -3.0060120240480992e-2,-0.33333333333333326 -2.605210420841686e-2,-0.25 -2.204408817635284e-2,8.333333333333337e-2 -1.8036072144288706e-2,-0.16666666666666663 -1.4028056112224574e-2,-0.16666666666666663 -1.0020040080160442e-2,0.25 -6.012024048096309e-3,0.33333333333333337 -2.004008016032177e-3,8.333333333333337e-2 2.004008016031955e-3,-0.0 6.012024048096087e-3,-0.33333333333333326 1.002004008016022e-2,-8.333333333333326e-2 1.4028056112224352e-2,0.25 1.8036072144288484e-2,-0.33333333333333326 2.2044088176352616e-2,-0.0 2.605210420841675e-2,-0.0 3.006012024048088e-2,0.25 3.406813627254501e-2,-0.16666666666666663 3.8076152304609145e-2,-0.0 4.208416833667328e-2,0.16666666666666669 4.609218436873741e-2,0.16666666666666669 5.010020040080154e-2,0.25 5.4108216432865675e-2,-0.25 5.811623246492981e-2,0.25 6.212424849699394e-2,0.16666666666666669 6.613226452905807e-2,0.33333333333333337 7.01402805611222e-2,0.33333333333333337 7.414829659318634e-2,0.25 7.815631262525047e-2,-0.33333333333333326 8.21643286573146e-2,-8.333333333333326e-2 8.617234468937873e-2,-0.25 9.018036072144286e-2,0.16666666666666669 9.4188376753507e-2,-0.16666666666666663 9.819639278557113e-2,-8.333333333333326e-2 0.10220440881763526,8.333333333333337e-2 0.1062124248496994,0.25 0.11022044088176353,-0.33333333333333326 0.11422845691382766,0.4166666666666667 0.11823647294589179,0.16666666666666669 0.12224448897795592,-0.25 0.12625250501002006,0.33333333333333337 0.13026052104208397,-8.333333333333326e-2 0.1342685370741481,-0.25 0.13827655310621223,-0.33333333333333326 0.14228456913827636,8.333333333333337e-2 0.1462925851703405,-8.333333333333326e-2 0.15030060120240463,-8.333333333333326e-2 0.15430861723446876,-0.16666666666666663 0.1583166332665329,-0.0 0.16232464929859702,0.33333333333333337 0.16633266533066116,-8.333333333333326e-2 0.1703406813627253,8.333333333333337e-2 0.17434869739478942,-0.25 0.17835671342685355,0.16666666666666669 0.18236472945891768,8.333333333333337e-2 0.18637274549098182,0.25 0.19038076152304595,-0.0 0.19438877755511008,-0.0 0.1983967935871742,-0.25 0.20240480961923835,0.25 0.20641282565130248,8.333333333333337e-2 0.2104208416833666,-0.16666666666666663 0.21442885771543074,-0.0 0.21843687374749488,-0.0 0.222444889779559,0.33333333333333337 0.22645290581162314,0.16666666666666669 0.23046092184368727,-0.33333333333333326 0.2344689378757514,0.33333333333333337 0.23847695390781554,0.4166666666666667 0.24248496993987967,0.16666666666666669 0.2464929859719438,0.25 0.25050100200400793,-0.16666666666666663 0.25450901803607207,0.4166666666666667 0.2585170340681362,-0.25 0.26252505010020033,-0.16666666666666663 0.26653306613226446,-0.25 0.2705410821643286,0.33333333333333337 0.2745490981963927,0.33333333333333337 0.27855711422845686,-0.25 0.282565130260521,0.25 0.2865731462925851,0.4166666666666667 0.29058116232464926,-0.0 0.2945891783567134,0.4166666666666667 0.2985971943887775,0.33333333333333337 0.30260521042084165,-8.333333333333326e-2 0.3066132264529058,0.4166666666666667 0.3106212424849699,0.25 0.31462925851703405,-0.33333333333333326 0.3186372745490982,-0.25 0.3226452905811623,-0.16666666666666663 0.32665330661322645,-0.33333333333333326 0.3306613226452906,-0.16666666666666663 0.3346693386773545,8.333333333333337e-2 0.3386773547094186,0.16666666666666669 0.34268537074148275,-0.16666666666666663 0.3466933867735469,0.16666666666666669 0.350701402805611,-0.0 0.35470941883767515,-0.33333333333333326 0.3587174348697393,-8.333333333333326e-2 0.3627254509018034,-0.25 0.36673346693386755,0.16666666666666669 0.3707414829659317,0.16666666666666669 0.3747494989979958,0.4166666666666667 0.37875751503005994,0.16666666666666669 0.3827655310621241,-0.16666666666666663 0.3867735470941882,-0.16666666666666663 0.39078156312625234,-0.25 0.3947895791583165,-8.333333333333326e-2 0.3987975951903806,-0.25 0.40280561122244474,0.16666666666666669 0.40681362725450887,0.33333333333333337 0.410821643286573,-0.0 0.41482965931863713,-0.16666666666666663 0.41883767535070127,-8.333333333333326e-2 0.4228456913827654,-0.16666666666666663 0.42685370741482953,8.333333333333337e-2 0.43086172344689366,0.25 0.4348697394789578,0.33333333333333337 0.4388777555110219,-8.333333333333326e-2 0.44288577154308606,0.33333333333333337 0.4468937875751502,-8.333333333333326e-2 0.4509018036072143,-0.25 0.45490981963927846,-0.16666666666666663 0.4589178356713426,0.33333333333333337 0.4629258517034067,-0.25 0.46693386773547085,0.16666666666666669 0.470941883767535,0.25 0.4749498997995991,0.4166666666666667 0.47895791583166325,0.4166666666666667 0.4829659318637274,0.33333333333333337 0.4869739478957915,0.4166666666666667 0.49098196392785565,-0.33333333333333326 0.4949899799599198,-0.0 0.4989979959919839,-0.33333333333333326 0.503006012024048,0.33333333333333337 0.5070140280561122,0.4166666666666667 0.5110220440881763,-0.33333333333333326 0.5150300601202404,0.4166666666666667 0.5190380761523046,-8.333333333333326e-2 0.5230460921843687,-0.33333333333333326 0.5270541082164328,-0.33333333333333326 0.531062124248497,0.33333333333333337 0.5350701402805611,-0.25 0.539078156312625,8.333333333333337e-2 0.5430861723446891,0.4166666666666667 0.5470941883767533,-0.33333333333333326 0.5511022044088174,0.25 0.5551102204408815,-0.16666666666666663 0.5591182364729457,-0.33333333333333326 0.5631262525050098,-0.0 0.5671342685370739,0.33333333333333337 0.5711422845691381,-0.33333333333333326 0.5751503006012022,-0.33333333333333326 0.5791583166332663,-0.0 0.5831663326653305,8.333333333333337e-2 0.5871743486973946,8.333333333333337e-2 0.5911823647294587,-0.16666666666666663 0.5951903807615229,-8.333333333333326e-2 0.599198396793587,0.16666666666666669 0.6032064128256511,0.25 0.6072144288577153,-8.333333333333326e-2 0.6112224448897794,8.333333333333337e-2 0.6152304609218435,8.333333333333337e-2 0.6192384769539077,0.25 0.6232464929859718,8.333333333333337e-2 0.6272545090180359,0.4166666666666667 0.6312625250501,-0.16666666666666663 0.6352705410821642,0.25 0.6392785571142283,0.33333333333333337 0.6432865731462925,-0.16666666666666663 0.6472945891783566,0.4166666666666667 0.6513026052104207,0.4166666666666667 0.6553106212424848,-0.25 0.659318637274549,-0.33333333333333326 0.6633266533066131,0.25 0.6673346693386772,0.4166666666666667 0.6713426853707414,-0.25 0.6753507014028055,-0.16666666666666663 0.6793587174348696,-0.33333333333333326 0.6833667334669338,0.16666666666666669 0.6873747494989979,-0.25 0.691382765531062,0.16666666666666669 0.6953907815631262,-8.333333333333326e-2 0.6993987975951903,0.25 0.7034068136272544,-0.16666666666666663 0.7074148296593186,0.25 0.7114228456913827,-8.333333333333326e-2 0.7154308617234468,-0.0 0.719438877755511,-8.333333333333326e-2 0.7234468937875751,-0.16666666666666663 0.7274549098196392,0.16666666666666669 0.7314629258517034,-8.333333333333326e-2 0.7354709418837675,0.25 0.7394789579158316,-0.25 0.7434869739478958,-8.333333333333326e-2 0.7474949899799597,0.16666666666666669 0.7515030060120238,-0.0 0.7555110220440879,-8.333333333333326e-2 0.7595190380761521,-8.333333333333326e-2 0.7635270541082162,0.25 0.7675350701402803,-0.0 0.7715430861723445,8.333333333333337e-2 0.7755511022044086,-0.0 0.7795591182364727,-0.25 0.7835671342685369,8.333333333333337e-2 0.787575150300601,8.333333333333337e-2 0.7915831663326651,0.25 0.7955911823647293,0.16666666666666669 0.7995991983967934,-0.0 0.8036072144288575,-0.25 0.8076152304609217,-0.0 0.8116232464929858,-0.16666666666666663 0.8156312625250499,0.25 0.819639278557114,0.4166666666666667 0.8236472945891782,0.33333333333333337 0.8276553106212423,-0.16666666666666663 0.8316633266533064,-0.0 0.8356713426853706,-0.25 0.8396793587174347,0.25 0.8436873747494988,0.16666666666666669 0.847695390781563,-8.333333333333326e-2 0.8517034068136271,-0.25 0.8557114228456912,8.333333333333337e-2 0.8597194388777554,-0.25 0.8637274549098195,8.333333333333337e-2 0.8677354709418836,0.16666666666666669 0.8717434869739478,-0.16666666666666663 0.8757515030060119,-0.16666666666666663 0.879759519038076,-0.0 0.8837675350701402,8.333333333333337e-2 0.8877755511022043,-0.16666666666666663 0.8917835671342684,8.333333333333337e-2 0.8957915831663326,0.33333333333333337 0.8997995991983967,-8.333333333333326e-2 0.9038076152304608,-0.25 0.907815631262525,0.33333333333333337 0.9118236472945891,-8.333333333333326e-2 0.9158316633266532,0.25 0.9198396793587174,-0.16666666666666663 0.9238476953907815,-0.16666666666666663 0.9278557114228456,0.25 0.9318637274549098,-0.25 0.9358717434869739,0.16666666666666669 0.939879759519038,-0.0 0.9438877755511021,-0.25 0.9478957915831663,-8.333333333333326e-2 0.9519038076152302,0.25 0.9559118236472943,8.333333333333337e-2 0.9599198396793585,-0.0 0.9639278557114226,0.4166666666666667 0.9679358717434867,0.4166666666666667 0.9719438877755509,-0.33333333333333326 0.975951903807615,0.16666666666666669 0.9799599198396791,-8.333333333333326e-2 0.9839679358717432,0.4166666666666667 0.9879759519038074,-0.25 0.9919839679358715,-0.33333333333333326 0.9959919839679356,-0.33333333333333326 0.9999999999999998,-8.333333333333326e-2" /></g><g /></svg>