<svg viewBox="-1.4028650862068965 -0.68275 2.6155 1.4194741379310345" xmlns="http://www.w3.org/2000/svg" xmlns:xlink="http://www.w3.org/1999/xlink" version="1.1" width="600.0" height="400.0"><g stroke-width="0.0" stroke="none" fill="#000000" transform="translate(-1.3473650862068967, 2.698706896551728e-2)" fill-opacity="1.0" font-size="6.0e-2" text-anchor="middle"><text transform="rotate(-90.0, 0.0, -0.0)" x="0.0" y="-0.0">ma 0.99</text></g><g stroke-width="0.0" stroke="none" fill="#000000" transform="translate(-4.736508620689661e-2, 0.7052241379310346)" fill-opacity="1.0" font-size="6.0e-2" text-anchor="middle"><text transform="rotate(0.0, 0.0, -0.0)" x="0.0" y="-0.0">std 0.95</text></g><g stroke-width="0.0" stroke="none" fill="#000000" transform="translate(-4.736508620689661e-2, -0.57175)" fill-opacity="1.0" font-size="0.12" text-anchor="middle"><text transform="rotate(0.0, 0.0, -0.0)" x="0.0" y="-0.0">digitalised scatter of ma 0.99 vs std 0.95</text></g><g stroke-width="0.0" stroke="#000000" fill="#666666" fill-opacity="3.0e-2" stroke-opacity="0.0"><rect width="1.0" height="1.0" x="-0.5" y="-0.5" /></g><g stroke-width="5.0e-3" stroke="#A8E5EE" fill="none" stroke-opacity="0.3"><polyline points="-0.505,0.5 0.505,0.5" /></g><g stroke-width="5.0e-3" stroke="#A8E5EE" fill="none" stroke-opacity="0.3"><polyline points="-0.505,0.4 0.505,0.4" /></g><g stroke-width="5.0e-3" stroke="#A8E5EE" fill="none" stroke-opacity="0.3"><polyline points="-0.505,0.3 0.505,0.3" /></g><g stroke-width="5.0e-3" stroke="#A8E5EE" fill="none" stroke-opacity="0.3"><polyline points="-0.505,0.2 0.505,0.2" /></g><g stroke-width="5.0e-3" stroke="#A8E5EE" fill="none" stroke-opacity="0.3"><polyline points="-0.505,9.999999999999998e-2 0.505,9.999999999999998e-2" /></g><g stroke-width="5.0e-3" stroke="#A8E5EE" fill="none" stroke-opacity="0.3"><polyline points="-0.505,-0.0 0.505,-0.0" /></g><g stroke-width="5.0e-3" stroke="#A8E5EE" fill="none" stroke-opacity="0.3"><polyline points="-0.505,-9.999999999999998e-2 0.505,-9.999999999999998e-2" /></g><g stroke-width="5.0e-3" stroke="#A8E5EE" fill="none" stroke-opacity="0.3"><polyline points="-0.505,-0.19999999999999996 0.505,-0.19999999999999996" /></g><g stroke-width="5.0e-3" stroke="#A8E5EE" fill="none" stroke-opacity="0.3"><polyline points="-0.505,-0.30000000000000004 0.505,-0.30000000000000004" /></g><g stroke-width="5.0e-3" stroke="#A8E5EE" fill="none" stroke-opacity="0.3"><polyline points="-0.505,-0.4 0.505,-0.4" /></g><g stroke-width="5.0e-3" stroke="#A8E5EE" fill="none" stroke-opacity="0.3"><polyline points="-0.505,-0.5 0.505,-0.5" /></g><g stroke-width="0.0" stroke="none" fill="#666666" fill-opacity="1.0" font-size="5.0e-2" text-anchor="end"><text x="-0.565419827586207" y="0.5145">0</text></g><g stroke-width="0.0" stroke="none" fill="#666666" fill-opacity="1.0" font-size="5.0e-2" text-anchor="end"><text x="-0.565419827586207" y="0.41450000000000004">1</text></g><g stroke-width="0.0" stroke="none" fill="#666666" fill-opacity="1.0" font-size="5.0e-2" text-anchor="end"><text x="-0.565419827586207" y="0.3145">2</text></g><g stroke-width="0.0" stroke="none" fill="#666666" fill-opacity="1.0" font-size="5.0e-2" text-anchor="end"><text x="-0.565419827586207" y="0.21450000000000002">3</text></g><g stroke-width="0.0" stroke="none" fill="#666666" fill-opacity="1.0" font-size="5.0e-2" text-anchor="end"><text x="-0.565419827586207" y="0.11449999999999998">4</text></g><g stroke-width="0.0" stroke="none" fill="#666666" fill-opacity="1.0" font-size="5.0e-2" text-anchor="end"><text x="-0.565419827586207" y="1.4499999999999999e-2">5</text></g><g stroke-width="0.0" stroke="none" fill="#666666" fill-opacity="1.0" font-size="5.0e-2" text-anchor="end"><text x="-0.565419827586207" y="-8.549999999999998e-2">6</text></g><g stroke-width="0.0" stroke="none" fill="#666666" fill-opacity="1.0" font-size="5.0e-2" text-anchor="end"><text x="-0.565419827586207" y="-0.18549999999999994">7</text></g><g stroke-width="0.0" stroke="none" fill="#666666" fill-opacity="1.0" font-size="5.0e-2" text-anchor="end"><text x="-0.565419827586207" y="-0.28550000000000003">8</text></g><g stroke-width="0.0" stroke="none" fill="#666666" fill-opacity="1.0" font-size="5.0e-2" text-anchor="end"><text x="-0.565419827586207" y="-0.3855">9</text></g><g stroke-width="0.0" stroke="none" fill="#666666" fill-opacity="1.0" font-size="5.0e-2" text-anchor="end"><text x="-0.565419827586207" y="-0.4855">10</text></g><g stroke-width="0.0" stroke="#2C429D" fill="#5F0391" fill-opacity="1.0" stroke-opacity="0.4"><line stroke-width="5.0e-3" transform="rotate(-90.0, -0.5353448275862069, 0.5)" x1="-0.5353448275862069" y1="0.515" x2="-0.5353448275862069" y2="0.485" /><line stroke-width="5.0e-3" transform="rotate(-90.0, -0.5353448275862069, 0.4)" x1="-0.5353448275862069" y1="0.41500000000000004" x2="-0.5353448275862069" y2="0.385" /><line stroke-width="5.0e-3" transform="rotate(-90.0, -0.5353448275862069, 0.3)" x1="-0.5353448275862069" y1="0.315" x2="-0.5353448275862069" y2="0.285" /><line stroke-width="5.0e-3" transform="rotate(-90.0, -0.5353448275862069, 0.2)" x1="-0.5353448275862069" y1="0.21500000000000002" x2="-0.5353448275862069" y2="0.185" /><line stroke-width="5.0e-3" transform="rotate(-90.0, -0.5353448275862069, 9.999999999999998e-2)" x1="-0.5353448275862069" y1="0.11499999999999998" x2="-0.5353448275862069" y2="8.499999999999998e-2" /><line stroke-width="5.0e-3" transform="rotate(-90.0, -0.5353448275862069, -0.0)" x1="-0.5353448275862069" y1="1.5e-2" x2="-0.5353448275862069" y2="-1.5e-2" /><line stroke-width="5.0e-3" transform="rotate(-90.0, -0.5353448275862069, -9.999999999999998e-2)" x1="-0.5353448275862069" y1="-8.499999999999998e-2" x2="-0.5353448275862069" y2="-0.11499999999999998" /><line stroke-width="5.0e-3" transform="rotate(-90.0, -0.5353448275862069, -0.19999999999999996)" x1="-0.5353448275862069" y1="-0.18499999999999994" x2="-0.5353448275862069" y2="-0.21499999999999997" /><line stroke-width="5.0e-3" transform="rotate(-90.0, -0.5353448275862069, -0.30000000000000004)" x1="-0.5353448275862069" y1="-0.28500000000000003" x2="-0.5353448275862069" y2="-0.31500000000000006" /><line stroke-width="5.0e-3" transform="rotate(-90.0, -0.5353448275862069, -0.4)" x1="-0.5353448275862069" y1="-0.385" x2="-0.5353448275862069" y2="-0.41500000000000004" /><line stroke-width="5.0e-3" transform="rotate(-90.0, -0.5353448275862069, -0.5)" x1="-0.5353448275862069" y1="-0.485" x2="-0.5353448275862069" y2="-0.515" /></g><g stroke-width="0.0" stroke="#666666" fill="#5F0391" fill-opacity="0.5" stroke-opacity="0.0"><rect width="5.0000000000000044e-3" height="1.0" x="-0.5253448275862069" y="-0.5" /></g><g stroke-width="5.0e-3" stroke="#A8E5EE" fill="none" stroke-opacity="0.3"><polyline points="-0.5,0.505 -0.5,-0.505" /></g><g stroke-width="5.0e-3" stroke="#A8E5EE" fill="none" stroke-opacity="0.3"><polyline points="-0.4,0.505 -0.4,-0.505" /></g><g stroke-width="5.0e-3" stroke="#A8E5EE" fill="none" stroke-opacity="0.3"><polyline points="-0.3,0.505 -0.3,-0.505" /></g><g stroke-width="5.0e-3" stroke="#A8E5EE" fill="none" stroke-opacity="0.3"><polyline points="-0.2,0.505 -0.2,-0.505" /></g><g stroke-width="5.0e-3" stroke="#A8E5EE" fill="none" stroke-opacity="0.3"><polyline points="-9.999999999999998e-2,0.505 -9.999999999999998e-2,-0.505" /></g><g stroke-width="5.0e-3" stroke="#A8E5EE" fill="none" stroke-opacity="0.3"><polyline points="0.0,0.505 0.0,-0.505" /></g><g stroke-width="5.0e-3" stroke="#A8E5EE" fill="none" stroke-opacity="0.3"><polyline points="9.999999999999998e-2,0.505 9.999999999999998e-2,-0.505" /></g><g stroke-width="5.0e-3" stroke="#A8E5EE" fill="none" stroke-opacity="0.3"><polyline points="0.19999999999999996,0.505 0.19999999999999996,-0.505" /></g><g stroke-width="5.0e-3" stroke="#A8E5EE" fill="none" stroke-opacity="0.3"><polyline points="0.30000000000000004,0.505 0.30000000000000004,-0.505" /></g><g stroke-width="5.0e-3" stroke="#A8E5EE" fill="none" stroke-opacity="0.3"><polyline points="0.4,0.505 0.4,-0.505" /></g><g stroke-width="5.0e-3" stroke="#A8E5EE" fill="none" stroke-opacity="0.3"><polyline points="0.5,0.505 0.5,-0.505" /></g><g stroke-width="0.0" stroke="none" fill="#666666" fill-opacity="1.0" font-size="4.137931034482759e-2" text-anchor="middle"><text x="-0.5" y="0.6000000000000001">0</text></g><g stroke-width="0.0" stroke="none" fill="#666666" fill-opacity="1.0" font-size="4.137931034482759e-2" text-anchor="middle"><text x="-0.4" y="0.6000000000000001">1</text></g><g stroke-width="0.0" stroke="none" fill="#666666" fill-opacity="1.0" font-size="4.137931034482759e-2" text-anchor="middle"><text x="-0.3" y="0.6000000000000001">2</text></g><g stroke-width="0.0" stroke="none" fill="#666666" fill-opacity="1.0" font-size="4.137931034482759e-2" text-anchor="middle"><text x="-0.2" y="0.6000000000000001">3</text></g><g stroke-width="0.0" stroke="none" fill="#666666" fill-opacity="1.0" font-size="4.137931034482759e-2" text-anchor="middle"><text x="-9.999999999999998e-2" y="0.6000000000000001">4</text></g><g stroke-width="0.0" stroke="none" fill="#666666" fill-opacity="1.0" font-size="4.137931034482759e-2" text-anchor="middle"><text x="0.0" y="0.6000000000000001">5</text></g><g stroke-width="0.0" stroke="none" fill="#666666" fill-opacity="1.0" font-size="4.137931034482759e-2" text-anchor="middle"><text x="9.999999999999998e-2" y="0.6000000000000001">6</text></g><g stroke-width="0.0" stroke="none" fill="#666666" fill-opacity="1.0" font-size="4.137931034482759e-2" text-anchor="middle"><text x="0.19999999999999996" y="0.6000000000000001">7</text></g><g stroke-width="0.0" stroke="none" fill="#666666" fill-opacity="1.0" font-size="4.137931034482759e-2" text-anchor="middle"><text x="0.30000000000000004" y="0.6000000000000001">8</text></g><g stroke-width="0.0" stroke="none" fill="#666666" fill-opacity="1.0" font-size="4.137931034482759e-2" text-anchor="middle"><text x="0.4" y="0.6000000000000001">9</text></g><g stroke-width="0.0" stroke="none" fill="#666666" fill-opacity="1.0" font-size="4.137931034482759e-2" text-anchor="middle"><text x="0.5" y="0.6000000000000001">10</text></g><g stroke-width="0.0" stroke="#2C429D" fill="#5F0391" fill-opacity="1.0" stroke-opacity="0.4"><line stroke-width="5.0e-3" x1="-0.5" y1="0.54" x2="-0.5" y2="0.51" /><line stroke-width="5.0e-3" x1="-0.4" y1="0.54" x2="-0.4" y2="0.51" /><line stroke-width="5.0e-3" x1="-0.3" y1="0.54" x2="-0.3" y2="0.51" /><line stroke-width="5.0e-3" x1="-0.2" y1="0.54" x2="-0.2" y2="0.51" /><line stroke-width="5.0e-3" x1="-9.999999999999998e-2" y1="0.54" x2="-9.999999999999998e-2" y2="0.51" /><line stroke-width="5.0e-3" y1="0.54" y2="0.51" /><line stroke-width="5.0e-3" x1="9.999999999999998e-2" y1="0.54" x2="9.999999999999998e-2" y2="0.51" /><line stroke-width="5.0e-3" x1="0.19999999999999996" y1="0.54" x2="0.19999999999999996" y2="0.51" /><line stroke-width="5.0e-3" x1="0.30000000000000004" y1="0.54" x2="0.30000000000000004" y2="0.51" /><line stroke-width="5.0e-3" x1="0.4" y1="0.54" x2="0.4" y2="0.51" /><line stroke-width="5.0e-3" x1="0.5" y1="0.54" x2="0.5" y2="0.51" /></g><g stroke-width="0.0" stroke="#666666" fill="#5F0391" fill-opacity="0.5" stroke-opacity="0.0"><rect width="1.0" height="5.0000000000000044e-3" x="-0.5" y="0.51" /></g><g stroke-width="0.0" stroke="#000000" fill="#FFFFFF" fill-opacity="1.0" stroke-opacity="0.0"><rect width="9.999999999999998e-2" height="9.999999999999998e-2" x="-0.5" y="0.4" /></g><g stroke-width="0.0" stroke="#000000" fill="#FFFFFF" fill-opacity="1.0" stroke-opacity="0.0"><rect width="9.999999999999998e-2" height="0.10000000000000003" x="-0.5" y="0.3" /></g><g stroke-width="0.0" stroke="#000000" fill="#FFFFFF" fill-opacity="1.0" stroke-opacity="0.0"><rect width="9.999999999999998e-2" height="0.10000000000000003" x="-0.5" y="0.19999999999999996" /></g><g stroke-width="0.0" stroke="#000000" fill="#FFFFFF" fill-opacity="1.0" stroke-opacity="0.0"><rect width="9.999999999999998e-2" height="9.999999999999998e-2" x="-0.5" y="9.999999999999998e-2" /></g><g stroke-width="0.0" stroke="#000000" fill="#FFFFFF" fill-opacity="1.0" stroke-opacity="0.0"><rect width="9.999999999999998e-2" height="9.999999999999998e-2" x="-0.5" /></g><g stroke-width="0.0" stroke="#000000" fill="#FFFFFF" fill-opacity="1.0" stroke-opacity="0.0"><rect width="9.999999999999998e-2" height="0.10000000000000009" x="-0.5" y="-0.10000000000000009" /></g><g stroke-width="0.0" stroke="#000000" fill="#FFFFFF" fill-opacity="1.0" stroke-opacity="0.0"><rect width="9.999999999999998e-2" height="9.999999999999998e-2" x="-0.5" y="-0.20000000000000007" /></g><g stroke-width="0.0" stroke="#000000" fill="#FFFFFF" fill-opacity="1.0" stroke-opacity="0.0"><rect width="9.999999999999998e-2" height="9.999999999999998e-2" x="-0.5" y="-0.30000000000000004" /></g><g stroke-width="0.0" stroke="#000000" fill="#FFFFFF" fill-opacity="1.0" stroke-opacity="0.0"><rect width="9.999999999999998e-2" height="9.999999999999998e-2" x="-0.5" y="-0.4" /></g><g stroke-width="0.0" stroke="#000000" fill="#FFFFFF" fill-opacity="1.0" stroke-opacity="0.0"><rect width="9.999999999999998e-2" height="9.999999999999998e-2" x="-0.5" y="-0.5" /></g><g stroke-width="0.0" stroke="#000000" fill="#FFFFFF" fill-opacity="1.0" stroke-opacity="0.0"><rect width="0.10000000000000003" height="9.999999999999998e-2" x="-0.4" y="0.4" /></g><g stroke-width="0.0" stroke="#000000" fill="#FFFFFF" fill-opacity="1.0" stroke-opacity="0.0"><rect width="0.10000000000000003" height="0.10000000000000003" x="-0.4" y="0.3" /></g><g stroke-width="0.0" stroke="#000000" fill="#FFFFFF" fill-opacity="1.0" stroke-opacity="0.0"><rect width="0.10000000000000003" height="0.10000000000000003" x="-0.4" y="0.19999999999999996" /></g><g stroke-width="0.0" stroke="#000000" fill="#FFFFFF" fill-opacity="1.0" stroke-opacity="0.0"><rect width="0.10000000000000003" height="9.999999999999998e-2" x="-0.4" y="9.999999999999998e-2" /></g><g stroke-width="0.0" stroke="#000000" fill="#FFFFFF" fill-opacity="1.0" stroke-opacity="0.0"><rect width="0.10000000000000003" height="9.999999999999998e-2" x="-0.4" /></g><g stroke-width="0.0" stroke="#000000" fill="#FFFFFF" fill-opacity="1.0" stroke-opacity="0.0"><rect width="0.10000000000000003" height="0.10000000000000009" x="-0.4" y="-0.10000000000000009" /></g><g stroke-width="0.0" stroke="#000000" fill="#EFEFEF" fill-opacity="1.0" stroke-opacity="0.0"><rect width="0.10000000000000003" height="9.999999999999998e-2" x="-0.4" y="-0.20000000000000007" /></g><g stroke-width="0.0" stroke="#000000" fill="#FFFFFF" fill-opacity="1.0" stroke-opacity="0.0"><rect width="0.10000000000000003" height="9.999999999999998e-2" x="-0.4" y="-0.30000000000000004" /></g><g stroke-width="0.0" stroke="#000000" fill="#C5C5C5" fill-opacity="1.0" stroke-opacity="0.0"><rect width="0.10000000000000003" height="9.999999999999998e-2" x="-0.4" y="-0.4" /></g><g stroke-width="0.0" stroke="#000000" fill="#080808" fill-opacity="1.0" stroke-opacity="0.0"><rect width="0.10000000000000003" height="9.999999999999998e-2" x="-0.4" y="-0.5" /></g><g stroke-width="0.0" stroke="#000000" fill="#FFFFFF" fill-opacity="1.0" stroke-opacity="0.0"><rect width="0.10000000000000003" height="9.999999999999998e-2" x="-0.3" y="0.4" /></g><g stroke-width="0.0" stroke="#000000" fill="#FFFFFF" fill-opacity="1.0" stroke-opacity="0.0"><rect width="0.10000000000000003" height="0.10000000000000003" x="-0.3" y="0.3" /></g><g stroke-width="0.0" stroke="#000000" fill="#FFFFFF" fill-opacity="1.0" stroke-opacity="0.0"><rect width="0.10000000000000003" height="0.10000000000000003" x="-0.3" y="0.19999999999999996" /></g><g stroke-width="0.0" stroke="#000000" fill="#FFFFFF" fill-opacity="1.0" stroke-opacity="0.0"><rect width="0.10000000000000003" height="9.999999999999998e-2" x="-0.3" y="9.999999999999998e-2" /></g><g stroke-width="0.0" stroke="#000000" fill="#FFFFFF" fill-opacity="1.0" stroke-opacity="0.0"><rect width="0.10000000000000003" height="9.999999999999998e-2" x="-0.3" /></g><g stroke-width="0.0" stroke="#000000" fill="#EFEFEF" fill-opacity="1.0" stroke-opacity="0.0"><rect width="0.10000000000000003" height="0.10000000000000009" x="-0.3" y="-0.10000000000000009" /></g><g stroke-width="0.0" stroke="#000000" fill="#B5B5B5" fill-opacity="1.0" stroke-opacity="0.0"><rect width="0.10000000000000003" height="9.999999999999998e-2" x="-0.3" y="-0.20000000000000007" /></g><g stroke-width="0.0" stroke="#000000" fill="#9C9C9C" fill-opacity="1.0" stroke-opacity="0.0"><rect width="0.10000000000000003" height="9.999999999999998e-2" x="-0.3" y="-0.30000000000000004" /></g><g stroke-width="0.0" stroke="#000000" fill="#DEDEDE" fill-opacity="1.0" stroke-opacity="0.0"><rect width="0.10000000000000003" height="9.999999999999998e-2" x="-0.3" y="-0.4" /></g><g stroke-width="0.0" stroke="#000000" fill="#8C8C8C" fill-opacity="1.0" stroke-opacity="0.0"><rect width="0.10000000000000003" height="9.999999999999998e-2" x="-0.3" y="-0.5" /></g><g stroke-width="0.0" stroke="#000000" fill="#FFFFFF" fill-opacity="1.0" stroke-opacity="0.0"><rect width="9.999999999999998e-2" height="9.999999999999998e-2" x="-0.19999999999999996" y="0.4" /></g><g stroke-width="0.0" stroke="#000000" fill="#FFFFFF" fill-opacity="1.0" stroke-opacity="0.0"><rect width="9.999999999999998e-2" height="0.10000000000000003" x="-0.19999999999999996" y="0.3" /></g><g stroke-width="0.0" stroke="#000000" fill="#F7F7F7" fill-opacity="1.0" stroke-opacity="0.0"><rect width="9.999999999999998e-2" height="0.10000000000000003" x="-0.19999999999999996" y="0.19999999999999996" /></g><g stroke-width="0.0" stroke="#000000" fill="#EFEFEF" fill-opacity="1.0" stroke-opacity="0.0"><rect width="9.999999999999998e-2" height="9.999999999999998e-2" x="-0.19999999999999996" y="9.999999999999998e-2" /></g><g stroke-width="0.0" stroke="#000000" fill="#FFFFFF" fill-opacity="1.0" stroke-opacity="0.0"><rect width="9.999999999999998e-2" height="9.999999999999998e-2" x="-0.19999999999999996" /></g><g stroke-width="0.0" stroke="#000000" fill="#FFFFFF" fill-opacity="1.0" stroke-opacity="0.0"><rect width="9.999999999999998e-2" height="0.10000000000000009" x="-0.19999999999999996" y="-0.10000000000000009" /></g><g stroke-width="0.0" stroke="#000000" fill="#9C9C9C" fill-opacity="1.0" stroke-opacity="0.0"><rect width="9.999999999999998e-2" height="9.999999999999998e-2" x="-0.19999999999999996" y="-0.20000000000000007" /></g><g stroke-width="0.0" stroke="#000000" fill="#848484" fill-opacity="1.0" stroke-opacity="0.0"><rect width="9.999999999999998e-2" height="9.999999999999998e-2" x="-0.19999999999999996" y="-0.30000000000000004" /></g><g stroke-width="0.0" stroke="#000000" fill="#BDBDBD" fill-opacity="1.0" stroke-opacity="0.0"><rect width="9.999999999999998e-2" height="9.999999999999998e-2" x="-0.19999999999999996" y="-0.4" /></g><g stroke-width="0.0" stroke="#000000" fill="#CECECE" fill-opacity="1.0" stroke-opacity="0.0"><rect width="9.999999999999998e-2" height="9.999999999999998e-2" x="-0.19999999999999996" y="-0.5" /></g><g stroke-width="0.0" stroke="#000000" fill="#FFFFFF" fill-opacity="1.0" stroke-opacity="0.0"><rect width="9.999999999999998e-2" height="9.999999999999998e-2" x="-9.999999999999998e-2" y="0.4" /></g><g stroke-width="0.0" stroke="#000000" fill="#FFFFFF" fill-opacity="1.0" stroke-opacity="0.0"><rect width="9.999999999999998e-2" height="0.10000000000000003" x="-9.999999999999998e-2" y="0.3" /></g><g stroke-width="0.0" stroke="#000000" fill="#FFFFFF" fill-opacity="1.0" stroke-opacity="0.0"><rect width="9.999999999999998e-2" height="0.10000000000000003" x="-9.999999999999998e-2" y="0.19999999999999996" /></g><g stroke-width="0.0" stroke="#000000" fill="#F7F7F7" fill-opacity="1.0" stroke-opacity="0.0"><rect width="9.999999999999998e-2" height="9.999999999999998e-2" x="-9.999999999999998e-2" y="9.999999999999998e-2" /></g><g stroke-width="0.0" stroke="#000000" fill="#FFFFFF" fill-opacity="1.0" stroke-opacity="0.0"><rect width="9.999999999999998e-2" height="9.999999999999998e-2" x="-9.999999999999998e-2" /></g><g stroke-width="0.0" stroke="#000000" fill="#CECECE" fill-opacity="1.0" stroke-opacity="0.0"><rect width="9.999999999999998e-2" height="0.10000000000000009" x="-9.999999999999998e-2" y="-0.10000000000000009" /></g><g stroke-width="0.0" stroke="#000000" fill="#292929" fill-opacity="1.0" stroke-opacity="0.0"><rect width="9.999999999999998e-2" height="9.999999999999998e-2" x="-9.999999999999998e-2" y="-0.20000000000000007" /></g><g stroke-width="0.0" stroke="#000000" fill="#A5A5A5" fill-opacity="1.0" stroke-opacity="0.0"><rect width="9.999999999999998e-2" height="9.999999999999998e-2" x="-9.999999999999998e-2" y="-0.30000000000000004" /></g><g stroke-width="0.0" stroke="#000000" fill="#ADADAD" fill-opacity="1.0" stroke-opacity="0.0"><rect width="9.999999999999998e-2" height="9.999999999999998e-2" x="-9.999999999999998e-2" y="-0.4" /></g><g stroke-width="0.0" stroke="#000000" fill="#CECECE" fill-opacity="1.0" stroke-opacity="0.0"><rect width="9.999999999999998e-2" height="9.999999999999998e-2" x="-9.999999999999998e-2" y="-0.5" /></g><g stroke-width="0.0" stroke="#000000" fill="#FFFFFF" fill-opacity="1.0" stroke-opacity="0.0"><rect width="0.10000000000000009" height="9.999999999999998e-2" y="0.4" /></g><g stroke-width="0.0" stroke="#000000" fill="#FFFFFF" fill-opacity="1.0" stroke-opacity="0.0"><rect width="0.10000000000000009" height="0.10000000000000003" y="0.3" /></g><g stroke-width="0.0" stroke="#000000" fill="#FFFFFF" fill-opacity="1.0" stroke-opacity="0.0"><rect width="0.10000000000000009" height="0.10000000000000003" y="0.19999999999999996" /></g><g stroke-width="0.0" stroke="#000000" fill="#FFFFFF" fill-opacity="1.0" stroke-opacity="0.0"><rect width="0.10000000000000009" height="9.999999999999998e-2" y="9.999999999999998e-2" /></g><g stroke-width="0.0" stroke="#000000" fill="#DEDEDE" fill-opacity="1.0" stroke-opacity="0.0"><rect width="0.10000000000000009" height="9.999999999999998e-2" /></g><g stroke-width="0.0" stroke="#000000" fill="#A5A5A5" fill-opacity="1.0" stroke-opacity="0.0"><rect width="0.10000000000000009" height="0.10000000000000009" y="-0.10000000000000009" /></g><g stroke-width="0.0" stroke="#000000" fill="#000000" fill-opacity="1.0" stroke-opacity="0.0"><rect width="0.10000000000000009" height="9.999999999999998e-2" y="-0.20000000000000007" /></g><g stroke-width="0.0" stroke="#000000" fill="#BDBDBD" fill-opacity="1.0" stroke-opacity="0.0"><rect width="0.10000000000000009" height="9.999999999999998e-2" y="-0.30000000000000004" /></g><g stroke-width="0.0" stroke="#000000" fill="#EFEFEF" fill-opacity="1.0" stroke-opacity="0.0"><rect width="0.10000000000000009" height="9.999999999999998e-2" y="-0.4" /></g><g stroke-width="0.0" stroke="#000000" fill="#FFFFFF" fill-opacity="1.0" stroke-opacity="0.0"><rect width="0.10000000000000009" height="9.999999999999998e-2" y="-0.5" /></g><g stroke-width="0.0" stroke="#000000" fill="#FFFFFF" fill-opacity="1.0" stroke-opacity="0.0"><rect width="9.999999999999998e-2" height="9.999999999999998e-2" x="0.10000000000000009" y="0.4" /></g><g stroke-width="0.0" stroke="#000000" fill="#FFFFFF" fill-opacity="1.0" stroke-opacity="0.0"><rect width="9.999999999999998e-2" height="0.10000000000000003" x="0.10000000000000009" y="0.3" /></g><g stroke-width="0.0" stroke="#000000" fill="#E6E6E6" fill-opacity="1.0" stroke-opacity="0.0"><rect width="9.999999999999998e-2" height="0.10000000000000003" x="0.10000000000000009" y="0.19999999999999996" /></g><g stroke-width="0.0" stroke="#000000" fill="#CECECE" fill-opacity="1.0" stroke-opacity="0.0"><rect width="9.999999999999998e-2" height="9.999999999999998e-2" x="0.10000000000000009" y="9.999999999999998e-2" /></g><g stroke-width="0.0" stroke="#000000" fill="#D6D6D6" fill-opacity="1.0" stroke-opacity="0.0"><rect width="9.999999999999998e-2" height="9.999999999999998e-2" x="0.10000000000000009" /></g><g stroke-width="0.0" stroke="#000000" fill="#636363" fill-opacity="1.0" stroke-opacity="0.0"><rect width="9.999999999999998e-2" height="0.10000000000000009" x="0.10000000000000009" y="-0.10000000000000009" /></g><g stroke-width="0.0" stroke="#000000" fill="#D6D6D6" fill-opacity="1.0" stroke-opacity="0.0"><rect width="9.999999999999998e-2" height="9.999999999999998e-2" x="0.10000000000000009" y="-0.20000000000000007" /></g><g stroke-width="0.0" stroke="#000000" fill="#C5C5C5" fill-opacity="1.0" stroke-opacity="0.0"><rect width="9.999999999999998e-2" height="9.999999999999998e-2" x="0.10000000000000009" y="-0.30000000000000004" /></g><g stroke-width="0.0" stroke="#000000" fill="#E6E6E6" fill-opacity="1.0" stroke-opacity="0.0"><rect width="9.999999999999998e-2" height="9.999999999999998e-2" x="0.10000000000000009" y="-0.4" /></g><g stroke-width="0.0" stroke="#000000" fill="#FFFFFF" fill-opacity="1.0" stroke-opacity="0.0"><rect width="9.999999999999998e-2" height="9.999999999999998e-2" x="0.10000000000000009" y="-0.5" /></g><g stroke-width="0.0" stroke="#000000" fill="#FFFFFF" fill-opacity="1.0" stroke-opacity="0.0"><rect width="9.999999999999998e-2" height="9.999999999999998e-2" x="0.20000000000000007" y="0.4" /></g><g stroke-width="0.0" stroke="#000000" fill="#FFFFFF" fill-opacity="1.0" stroke-opacity="0.0"><rect width="9.999999999999998e-2" height="0.10000000000000003" x="0.20000000000000007" y="0.3" /></g><g stroke-width="0.0" stroke="#000000" fill="#F7F7F7" fill-opacity="1.0" stroke-opacity="0.0"><rect width="9.999999999999998e-2" height="0.10000000000000003" x="0.20000000000000007" y="0.19999999999999996" /></g><g stroke-width="0.0" stroke="#000000" fill="#CECECE" fill-opacity="1.0" stroke-opacity="0.0"><rect width="9.999999999999998e-2" height="9.999999999999998e-2" x="0.20000000000000007" y="9.999999999999998e-2" /></g><g stroke-width="0.0" stroke="#000000" fill="#ADADAD" fill-opacity="1.0" stroke-opacity="0.0"><rect width="9.999999999999998e-2" height="9.999999999999998e-2" x="0.20000000000000007" /></g><g stroke-width="0.0" stroke="#000000" fill="#A5A5A5" fill-opacity="1.0" stroke-opacity="0.0"><rect width="9.999999999999998e-2" height="0.10000000000000009" x="0.20000000000000007" y="-0.10000000000000009" /></g><g stroke-width="0.0" stroke="#000000" fill="#F7F7F7" fill-opacity="1.0" stroke-opacity="0.0"><rect width="9.999999999999998e-2" height="9.999999999999998e-2" x="0.20000000000000007" y="-0.20000000000000007" /></g><g stroke-width="0.0" stroke="#000000" fill="#FFFFFF" fill-opacity="1.0" stroke-opacity="0.0"><rect width="9.999999999999998e-2" height="9.999999999999998e-2" x="0.20000000000000007" y="-0.30000000000000004" /></g><g stroke-width="0.0" stroke="#000000" fill="#FFFFFF" fill-opacity="1.0" stroke-opacity="0.0"><rect width="9.999999999999998e-2" height="9.999999999999998e-2" x="0.20000000000000007" y="-0.4" /></g><g stroke-width="0.0" stroke="#000000" fill="#F7F7F7" fill-opacity="1.0" stroke-opacity="0.0"><rect width="9.999999999999998e-2" height="9.999999999999998e-2" x="0.20000000000000007" y="-0.5" /></g><g stroke-width="0.0" stroke="#000000" fill="#FFFFFF" fill-opacity="1.0" stroke-opacity="0.0"><rect width="9.999999999999998e-2" height="9.999999999999998e-2" x="0.30000000000000004" y="0.4" /></g><g stroke-width="0.0" stroke="#000000" fill="#FFFFFF" fill-opacity="1.0" stroke-opacity="0.0"><rect width="9.999999999999998e-2" height="0.10000000000000003" x="0.30000000000000004" y="0.3" /></g><g stroke-width="0.0" stroke="#000000" fill="#DEDEDE" fill-opacity="1.0" stroke-opacity="0.0"><rect width="9.999999999999998e-2" height="0.10000000000000003" x="0.30000000000000004" y="0.19999999999999996" /></g><g stroke-width="0.0" stroke="#000000" fill="#D6D6D6" fill-opacity="1.0" stroke-opacity="0.0"><rect width="9.999999999999998e-2" height="9.999999999999998e-2" x="0.30000000000000004" y="9.999999999999998e-2" /></g><g stroke-width="0.0" stroke="#000000" fill="#7B7B7B" fill-opacity="1.0" stroke-opacity="0.0"><rect width="9.999999999999998e-2" height="9.999999999999998e-2" x="0.30000000000000004" /></g><g stroke-width="0.0" stroke="#000000" fill="#BDBDBD" fill-opacity="1.0" stroke-opacity="0.0"><rect width="9.999999999999998e-2" height="0.10000000000000009" x="0.30000000000000004" y="-0.10000000000000009" /></g><g stroke-width="0.0" stroke="#000000" fill="#FFFFFF" fill-opacity="1.0" stroke-opacity="0.0"><rect width="9.999999999999998e-2" height="9.999999999999998e-2" x="0.30000000000000004" y="-0.20000000000000007" /></g><g stroke-width="0.0" stroke="#000000" fill="#FFFFFF" fill-opacity="1.0" stroke-opacity="0.0"><rect width="9.999999999999998e-2" height="9.999999999999998e-2" x="0.30000000000000004" y="-0.30000000000000004" /></g><g stroke-width="0.0" stroke="#000000" fill="#FFFFFF" fill-opacity="1.0" stroke-opacity="0.0"><rect width="9.999999999999998e-2" height="9.999999999999998e-2" x="0.30000000000000004" y="-0.4" /></g><g stroke-width="0.0" stroke="#000000" fill="#FFFFFF" fill-opacity="1.0" stroke-opacity="0.0"><rect width="9.999999999999998e-2" height="9.999999999999998e-2" x="0.30000000000000004" y="-0.5" /></g><g stroke-width="0.0" stroke="#000000" fill="#FFFFFF" fill-opacity="1.0" stroke-opacity="0.0"><rect width="9.999999999999998e-2" height="9.999999999999998e-2" x="0.4" y="0.4" /></g><g stroke-width="0.0" stroke="#000000" fill="#FFFFFF" fill-opacity="1.0" stroke-opacity="0.0"><rect width="9.999999999999998e-2" height="0.10000000000000003" x="0.4" y="0.3" /></g><g stroke-width="0.0" stroke="#000000" fill="#E6E6E6" fill-opacity="1.0" stroke-opacity="0.0"><rect width="9.999999999999998e-2" height="0.10000000000000003" x="0.4" y="0.19999999999999996" /></g><g stroke-width="0.0" stroke="#000000" fill="#C5C5C5" fill-opacity="1.0" stroke-opacity="0.0"><rect width="9.999999999999998e-2" height="9.999999999999998e-2" x="0.4" y="9.999999999999998e-2" /></g><g stroke-width="0.0" stroke="#000000" fill="#949494" fill-opacity="1.0" stroke-opacity="0.0"><rect width="9.999999999999998e-2" height="9.999999999999998e-2" x="0.4" /></g><g stroke-width="0.0" stroke="#000000" fill="#DEDEDE" fill-opacity="1.0" stroke-opacity="0.0"><rect width="9.999999999999998e-2" height="0.10000000000000009" x="0.4" y="-0.10000000000000009" /></g><g stroke-width="0.0" stroke="#000000" fill="#F7F7F7" fill-opacity="1.0" stroke-opacity="0.0"><rect width="9.999999999999998e-2" height="9.999999999999998e-2" x="0.4" y="-0.20000000000000007" /></g><g stroke-width="0.0" stroke="#000000" fill="#FFFFFF" fill-opacity="1.0" stroke-opacity="0.0"><rect width="9.999999999999998e-2" height="9.999999999999998e-2" x="0.4" y="-0.30000000000000004" /></g><g stroke-width="0.0" stroke="#000000" fill="#FFFFFF" fill-opacity="1.0" stroke-opacity="0.0"><rect width="9.999999999999998e-2" height="9.999999999999998e-2" x="0.4" y="-0.4" /></g><g stroke-width="0.0" stroke="#000000" fill="#FFFFFF" fill-opacity="1.0" stroke-opacity="0.0"><rect width="9.999999999999998e-2" height="9.999999999999998e-2" x="0.4" y="-0.5" /></g><g /></svg>