<svg viewBox="-1.2809678118201535 -0.68275 2.2924678118201536 1.5020159178324475" xmlns="http://www.w3.org/2000/svg" xmlns:xlink="http://www.w3.org/1999/xlink" version="1.1" width="600.0" height="400.0"><g stroke-width="0.0" stroke="none" fill="#000000" transform="translate(-0.13473390591007683, -0.57175)" fill-opacity="1.0" font-size="0.12" text-anchor="middle"><text transform="rotate(0.0, 0.0, -0.0)" x="0.0" y="-0.0">digitalised return</text></g><g stroke-width="0.0" stroke="#000000" fill="#666666" fill-opacity="3.0e-2" stroke-opacity="0.0"><rect width="1.9999999999999998" height="1.0" x="-1.0" y="-0.5" /></g><g stroke-width="5.0e-3" stroke="#A8E5EE" fill="none" stroke-opacity="0.3"><polyline points="-1.005,0.5 1.0049999999999997,0.5" /></g><g stroke-width="5.0e-3" stroke="#A8E5EE" fill="none" stroke-opacity="0.3"><polyline points="-1.005,0.33333333333333337 1.0049999999999997,0.33333333333333337" /></g><g stroke-width="5.0e-3" stroke="#A8E5EE" fill="none" stroke-opacity="0.3"><polyline points="-1.005,0.16666666666666669 1.0049999999999997,0.16666666666666669" /></g><g stroke-width="5.0e-3" stroke="#A8E5EE" fill="none" stroke-opacity="0.3"><polyline points="-1.005,-0.0 1.0049999999999997,-0.0" /></g><g stroke-width="5.0e-3" stroke="#A8E5EE" fill="none" stroke-opacity="0.3"><polyline points="-1.005,-0.16666666666666663 1.0049999999999997,-0.16666666666666663" /></g><g stroke-width="5.0e-3" stroke="#A8E5EE" fill="none" stroke-opacity="0.3"><polyline points="-1.005,-0.33333333333333337 1.0049999999999997,-0.33333333333333337" /></g><g stroke-width="5.0e-3" stroke="#A8E5EE" fill="none" stroke-opacity="0.3"><polyline points="-1.005,-0.5 1.0049999999999997,-0.5" /></g><g stroke-width="0.0" stroke="none" fill="#666666" fill-opacity="1.0" font-size="5.0e-2" text-anchor="end"><text x="-1.2309678118201535" y="0.5145">0</text></g><g stroke-width="0.0" stroke="none" fill="#666666" fill-opacity="1.0" font-size="5.0e-2" text-anchor="end"><text x="-1.2309678118201535" y="0.3478333333333334">2</text></g><g stroke-width="0.0" stroke="none" fill="#666666" fill-opacity="1.0" font-size="5.0e-2" text-anchor="end"><text x="-1.2309678118201535" y="0.1811666666666667">4</text></g><g stroke-width="0.0" stroke="none" fill="#666666" fill-opacity="1.0" font-size="5.0e-2" text-anchor="end"><text x="-1.2309678118201535" y="1.4499999999999999e-2">6</text></g><g stroke-width="0.0" stroke="none" fill="#666666" fill-opacity="1.0" font-size="5.0e-2" text-anchor="end"><text x="-1.2309678118201535" y="-0.15216666666666662">8</text></g><g stroke-width="0.0" stroke="none" fill="#666666" fill-opacity="1.0" font-size="5.0e-2" text-anchor="end"><text x="-1.2309678118201535" y="-0.31883333333333336">10</text></g><g stroke-width="0.0" stroke="none" fill="#666666" fill-opacity="1.0" font-size="5.0e-2" text-anchor="end"><text x="-1.2309678118201535" y="-0.4855">12</text></g><g stroke-width="0.0" stroke="#2C429D" fill="#5F0391" fill-opacity="1.0" stroke-opacity="0.4"><line stroke-width="5.0e-3" transform="rotate(-90.0, -1.2008928118201536, 0.5)" x1="-1.2008928118201536" y1="0.515" x2="-1.2008928118201536" y2="0.485" /><line stroke-width="5.0e-3" transform="rotate(-90.0, -1.2008928118201536, 0.33333333333333337)" x1="-1.2008928118201536" y1="0.3483333333333334" x2="-1.2008928118201536" y2="0.31833333333333336" /><line stroke-width="5.0e-3" transform="rotate(-90.0, -1.2008928118201536, 0.16666666666666669)" x1="-1.2008928118201536" y1="0.1816666666666667" x2="-1.2008928118201536" y2="0.15166666666666667" /><line stroke-width="5.0e-3" transform="rotate(-90.0, -1.2008928118201536, -0.0)" x1="-1.2008928118201536" y1="1.5e-2" x2="-1.2008928118201536" y2="-1.5e-2" /><line stroke-width="5.0e-3" transform="rotate(-90.0, -1.2008928118201536, -0.16666666666666663)" x1="-1.2008928118201536" y1="-0.15166666666666662" x2="-1.2008928118201536" y2="-0.18166666666666664" /><line stroke-width="5.0e-3" transform="rotate(-90.0, -1.2008928118201536, -0.33333333333333337)" x1="-1.2008928118201536" y1="-0.31833333333333336" x2="-1.2008928118201536" y2="-0.3483333333333334" /><line stroke-width="5.0e-3" transform="rotate(-90.0, -1.2008928118201536, -0.5)" x1="-1.2008928118201536" y1="-0.485" x2="-1.2008928118201536" y2="-0.515" /></g><g stroke-width="0.0" stroke="#666666" fill="#5F0391" fill-opacity="0.5" stroke-opacity="0.0"><rect width="4.999999999999893e-3" height="1.0" x="-1.1908928118201536" y="-0.5" /></g><g stroke-width="5.0e-3" stroke="#A8E5EE" fill="none" stroke-opacity="0.3"><polyline points="-1.0,0.505 -1.0,-0.505" /></g><g stroke-width="5.0e-3" stroke="#A8E5EE" fill="none" stroke-opacity="0.3"><polyline points="-0.871743486973948,0.505 -0.871743486973948,-0.505" /></g><g stroke-width="5.0e-3" stroke="#A8E5EE" fill="none" stroke-opacity="0.3"><polyline points="-0.6152304609218437,0.505 -0.6152304609218437,-0.505" /></g><g stroke-width="5.0e-3" stroke="#A8E5EE" fill="none" stroke-opacity="0.3"><polyline points="-0.36272545090180375,0.505 -0.36272545090180375,-0.505" /></g><g stroke-width="5.0e-3" stroke="#A8E5EE" fill="none" stroke-opacity="0.3"><polyline points="-0.11022044088176364,0.505 -0.11022044088176364,-0.505" /></g><g stroke-width="5.0e-3" stroke="#A8E5EE" fill="none" stroke-opacity="0.3"><polyline points="0.1342685370741481,0.505 0.1342685370741481,-0.505" /></g><g stroke-width="5.0e-3" stroke="#A8E5EE" fill="none" stroke-opacity="0.3"><polyline points="0.3867735470941882,0.505 0.3867735470941882,-0.505" /></g><g stroke-width="5.0e-3" stroke="#A8E5EE" fill="none" stroke-opacity="0.3"><polyline points="0.6432865731462925,0.505 0.6432865731462925,-0.505" /></g><g stroke-width="5.0e-3" stroke="#A8E5EE" fill="none" stroke-opacity="0.3"><polyline points="0.8997995991983965,0.505 0.8997995991983965,-0.505" /></g><g stroke-width="5.0e-3" stroke="#A8E5EE" fill="none" stroke-opacity="0.3"><polyline points="0.9999999999999998,0.505 0.9999999999999998,-0.505" /></g><g stroke-width="0.0" stroke="none" fill="#666666" fill-opacity="1.0" font-size="5.0e-2" text-anchor="end"><text transform="rotate(-45.0, -1.0, 0.6062500000000001)" x="-1.0" y="0.6062500000000001">12 Feb 2018</text></g><g stroke-width="0.0" stroke="none" fill="#666666" fill-opacity="1.0" font-size="5.0e-2" text-anchor="end"><text transform="rotate(-45.0, -0.871743486973948, 0.6062500000000001)" x="-0.871743486973948" y="0.6062500000000001">31 Mar 2018</text></g><g stroke-width="0.0" stroke="none" fill="#666666" fill-opacity="1.0" font-size="5.0e-2" text-anchor="end"><text transform="rotate(-45.0, -0.6152304609218437, 0.6062500000000001)" x="-0.6152304609218437" y="0.6062500000000001">30 Jun 2018</text></g><g stroke-width="0.0" stroke="none" fill="#666666" fill-opacity="1.0" font-size="5.0e-2" text-anchor="end"><text transform="rotate(-45.0, -0.36272545090180375, 0.6062500000000001)" x="-0.36272545090180375" y="0.6062500000000001">30 Sep 2018</text></g><g stroke-width="0.0" stroke="none" fill="#666666" fill-opacity="1.0" font-size="5.0e-2" text-anchor="end"><text transform="rotate(-45.0, -0.11022044088176364, 0.6062500000000001)" x="-0.11022044088176364" y="0.6062500000000001">31 Dec 2018</text></g><g stroke-width="0.0" stroke="none" fill="#666666" fill-opacity="1.0" font-size="5.0e-2" text-anchor="end"><text transform="rotate(-45.0, 0.1342685370741481, 0.6062500000000001)" x="0.1342685370741481" y="0.6062500000000001">31 Mar 2019</text></g><g stroke-width="0.0" stroke="none" fill="#666666" fill-opacity="1.0" font-size="5.0e-2" text-anchor="end"><text transform="rotate(-45.0, 0.3867735470941882, 0.6062500000000001)" x="0.3867735470941882" y="0.6062500000000001">30 Jun 2019</text></g><g stroke-width="0.0" stroke="none" fill="#666666" fill-opacity="1.0" font-size="5.0e-2" text-anchor="end"><text transform="rotate(-45.0, 0.6432865731462925, 0.6062500000000001)" x="0.6432865731462925" y="0.6062500000000001">30 Sep 2019</text></g><g stroke-width="0.0" stroke="none" fill="#666666" fill-opacity="1.0" font-size="5.0e-2" text-anchor="end"><text transform="rotate(-45.0, 0.8997995991983965, 0.6062500000000001)" x="0.8997995991983965" y="0.6062500000000001">31 Dec 2019</text></g><g stroke-width="0.0" stroke="none" fill="#666666" fill-opacity="1.0" font-size="5.0e-2" text-anchor="end"><text transform="rotate(-45.0, 0.9999999999999998, 0.6062500000000001)" x="0.9999999999999998" y="0.6062500000000001">06 Feb 2020</text></g><g stroke-width="0.0" stroke="#2C429D" fill="#5F0391" fill-opacity="1.0" stroke-opacity="0.4"><line stroke-width="5.0e-3" x1="-1.0" y1="0.54" x2="-1.0" y2="0.51" /><line stroke-width="5.0e-3" x1="-0.871743486973948" y1="0.54" x2="-0.871743486973948" y2="0.51" /><line stroke-width="5.0e-3" x1="-0.6152304609218437" y1="0.54" x2="-0.6152304609218437" y2="0.51" /><line stroke-width="5.0e-3" x1="-0.36272545090180375" y1="0.54" x2="-0.36272545090180375" y2="0.51" /><line stroke-width="5.0e-3" x1="-0.11022044088176364" y1="0.54" x2="-0.11022044088176364" y2="0.51" /><line stroke-width="5.0e-3" x1="0.1342685370741481" y1="0.54" x2="0.1342685370741481" y2="0.51" /><line stroke-width="5.0e-3" x1="0.3867735470941882" y1="0.54" x2="0.3867735470941882" y2="0.51" /><line stroke-width="5.0e-3" x1="0.6432865731462925" y1="0.54" x2="0.6432865731462925" y2="0.51" /><line stroke-width="5.0e-3" x1="0.8997995991983965" y1="0.54" x2="0.8997995991983965" y2="0.51" /><line stroke-width="5.0e-3" x1="0.9999999999999998" y1="0.54" x2="0.9999999999999998" y2="0.51" /></g><g stroke-width="0.0" stroke="#666666" fill="#5F0391" fill-opacity="0.5" stroke-opacity="0.0"><rect width="1.9999999999999998" height="5.0000000000000044e-3" x="-1.0" y="0.51" /></g><g stroke-width="3.0e-3" stroke="#2C429D" fill="#D99721" fill-opacity="0.8" stroke-opacity="0.4"><rect width="2.0000000000000018e-2" height="2.0000000000000018e-2" x="-1.01" y="-0.34333333333333327" /><rect width="2.0000000000000018e-2" height="2.0000000000000018e-2" x="-1.0059919839679359" y="-0.17666666666666664" /><rect width="2.0000000000000018e-2" height="2.0000000000000018e-2" x="-1.0019839679358717" y="-0.34333333333333327" /><rect width="2.0000000000000018e-2" height="2.0000000000000018e-2" x="-0.9979759519038076" y="-0.34333333333333327" /><rect width="2.0000000000000018e-2" height="1.999999999999999e-2" x="-0.9939679358717435" y="7.333333333333338e-2" /><rect width="2.0000000000000018e-2" height="2.0000000000000018e-2" x="-0.9899599198396793" y="0.4066666666666667" /><rect width="2.0000000000000018e-2" height="2.0000000000000018e-2" x="-0.9859519038076152" y="0.4066666666666667" /><rect width="2.0000000000000018e-2" height="2.0e-2" x="-0.9819438877755511" y="-1.0e-2" /><rect width="2.0000000000000018e-2" height="2.0000000000000018e-2" x="-0.977935871743487" y="-0.34333333333333327" /><rect width="2.0000000000000018e-2" height="2.0000000000000018e-2" x="-0.9739278557114228" y="-0.34333333333333327" /><rect width="2.0000000000000018e-2" height="2.0000000000000018e-2" x="-0.9699198396793587" y="0.4066666666666667" /><rect width="2.0000000000000018e-2" height="2.0000000000000018e-2" x="-0.9659118236472946" y="0.4066666666666667" /><rect width="2.0000000000000018e-2" height="2.0000000000000018e-2" x="-0.9619038076152304" y="0.4066666666666667" /><rect width="2.0000000000000018e-2" height="2.0000000000000018e-2" x="-0.9578957915831663" y="-0.26" /><rect width="2.0000000000000018e-2" height="2.0000000000000018e-2" x="-0.9538877755511023" y="-0.34333333333333327" /><rect width="2.0000000000000018e-2" height="1.999999999999999e-2" x="-0.9498797595190381" y="-9.333333333333325e-2" /><rect width="2.0000000000000018e-2" height="2.0000000000000018e-2" x="-0.945871743486974" y="0.15666666666666668" /><rect width="2.0000000000000018e-2" height="2.0000000000000018e-2" x="-0.9418637274549099" y="-0.17666666666666664" /><rect width="2.0000000000000018e-2" height="2.0000000000000018e-2" x="-0.9378557114228457" y="-0.34333333333333327" /><rect width="2.0000000000000018e-2" height="2.0000000000000018e-2" x="-0.9338476953907816" y="0.24" /><rect width="2.0000000000000018e-2" height="2.0000000000000018e-2" x="-0.9298396793587175" y="0.4066666666666667" /><rect width="2.0000000000000018e-2" height="2.0000000000000018e-2" x="-0.9258316633266533" y="0.4066666666666667" /><rect width="2.0000000000000018e-2" height="2.0000000000000018e-2" x="-0.9218236472945892" y="0.15666666666666668" /><rect width="2.0000000000000018e-2" height="1.999999999999999e-2" x="-0.9178156312625251" y="-9.333333333333325e-2" /><rect width="2.0000000000000018e-2" height="2.0000000000000018e-2" x="-0.913807615230461" y="0.4066666666666667" /><rect width="2.0000000000000018e-2" height="1.999999999999999e-2" x="-0.9097995991983968" y="-9.333333333333325e-2" /><rect width="2.0000000000000018e-2" height="2.0000000000000018e-2" x="-0.9057915831663327" y="0.24" /><rect width="2.0000000000000018e-2" height="2.0000000000000018e-2" x="-0.9017835671342685" y="0.4066666666666667" /><rect width="2.0000000000000018e-2" height="2.0000000000000018e-2" x="-0.8977755511022044" y="0.4066666666666667" /><rect width="2.0000000000000018e-2" height="2.0000000000000018e-2" x="-0.8937675350701403" y="-0.42666666666666664" /><rect width="2.0000000000000018e-2" height="2.0000000000000018e-2" x="-0.8897595190380762" y="0.4066666666666667" /><rect width="2.0000000000000018e-2" height="2.0000000000000018e-2" x="-0.885751503006012" y="0.24" /><rect width="2.0000000000000018e-2" height="2.0000000000000018e-2" x="-0.8817434869739479" y="-0.34333333333333327" /><rect width="2.0000000000000018e-2" height="2.0000000000000018e-2" x="-0.8777354709418838" y="0.4066666666666667" /><rect width="2.0000000000000018e-2" height="2.0000000000000018e-2" x="-0.8737274549098196" y="-0.34333333333333327" /><rect width="2.0000000000000018e-2" height="2.0000000000000018e-2" x="-0.8697194388777555" y="-0.34333333333333327" /><rect width="2.0000000000000018e-2" height="2.0000000000000018e-2" x="-0.8657114228456915" y="-0.26" /><rect width="2.0000000000000018e-2" height="2.0000000000000018e-2" x="-0.8617034068136273" y="0.4066666666666667" /><rect width="2.0000000000000018e-2" height="2.0000000000000018e-2" x="-0.8576953907815632" y="-0.17666666666666664" /><rect width="2.0000000000000018e-2" height="2.0000000000000018e-2" x="-0.8536873747494991" y="-0.34333333333333327" /><rect width="2.0000000000000018e-2" height="2.0000000000000018e-2" x="-0.8496793587174349" y="0.32333333333333336" /><rect width="2.0000000000000018e-2" height="2.0000000000000018e-2" x="-0.8456713426853708" y="-0.26" /><rect width="2.0000000000000018e-2" height="2.0000000000000018e-2" x="-0.8416633266533067" y="0.24" /><rect width="2.0000000000000018e-2" height="2.0000000000000018e-2" x="-0.8376553106212425" y="-0.26" /><rect width="2.0000000000000018e-2" height="2.0000000000000018e-2" x="-0.8336472945891784" y="-0.34333333333333327" /><rect width="2.0000000000000018e-2" height="1.999999999999999e-2" x="-0.8296392785571143" y="7.333333333333338e-2" /><rect width="2.0000000000000018e-2" height="2.0000000000000018e-2" x="-0.8256312625250501" y="0.32333333333333336" /><rect width="2.0000000000000018e-2" height="2.0000000000000018e-2" x="-0.821623246492986" y="0.4066666666666667" /><rect width="2.0000000000000018e-2" height="1.999999999999999e-2" x="-0.8176152304609219" y="7.333333333333338e-2" /><rect width="2.0000000000000018e-2" height="2.0000000000000018e-2" x="-0.8136072144288578" y="0.4066666666666667" /><rect width="2.0000000000000018e-2" height="1.999999999999999e-2" x="-0.8095991983967936" y="-9.333333333333325e-2" /><rect width="2.0000000000000018e-2" height="2.0000000000000018e-2" x="-0.8055911823647295" y="-0.34333333333333327" /><rect width="2.0000000000000018e-2" height="2.0e-2" x="-0.8015831663326654" y="-1.0e-2" /><rect width="2.0000000000000018e-2" height="2.0000000000000018e-2" x="-0.7975751503006012" y="0.4066666666666667" /><rect width="2.0000000000000018e-2" height="1.999999999999999e-2" x="-0.7935671342685371" y="-9.333333333333325e-2" /><rect width="2.0000000000000018e-2" height="2.0000000000000018e-2" x="-0.789559118236473" y="0.32333333333333336" /><rect width="2.0000000000000018e-2" height="2.0000000000000018e-2" x="-0.7855511022044088" y="0.24" /><rect width="2.0000000000000018e-2" height="2.0000000000000018e-2" x="-0.7815430861723447" y="-0.34333333333333327" /><rect width="2.0000000000000018e-2" height="2.0000000000000018e-2" x="-0.7775350701402806" y="-0.17666666666666664" /><rect width="2.0000000000000018e-2" height="1.999999999999999e-2" x="-0.7735270541082164" y="7.333333333333338e-2" /><rect width="2.0000000000000018e-2" height="2.0000000000000018e-2" x="-0.7695190380761523" y="-0.34333333333333327" /><rect width="2.0000000000000018e-2" height="2.0000000000000018e-2" x="-0.7655110220440882" y="-0.26" /><rect width="2.0000000000000018e-2" height="1.999999999999999e-2" x="-0.761503006012024" y="-9.333333333333325e-2" /><rect width="2.0000000000000018e-2" height="2.0e-2" x="-0.7574949899799599" y="-1.0e-2" /><rect width="2.0000000000000018e-2" height="2.0000000000000018e-2" x="-0.7534869739478958" y="0.32333333333333336" /><rect width="2.0000000000000018e-2" height="2.0000000000000018e-2" x="-0.7494789579158316" y="-0.17666666666666664" /><rect width="2.0000000000000018e-2" height="2.0000000000000018e-2" x="-0.7454709418837675" y="0.15666666666666668" /><rect width="2.0000000000000018e-2" height="2.0000000000000018e-2" x="-0.7414629258517034" y="0.24" /><rect width="2.0000000000000018e-2" height="2.0000000000000018e-2" x="-0.7374549098196392" y="-0.26" /><rect width="2.0000000000000018e-2" height="2.0000000000000018e-2" x="-0.7334468937875751" y="0.32333333333333336" /><rect width="2.0000000000000018e-2" height="1.999999999999999e-2" x="-0.729438877755511" y="-9.333333333333325e-2" /><rect width="2.0000000000000018e-2" height="2.0000000000000018e-2" x="-0.725430861723447" y="0.24" /><rect width="2.0000000000000018e-2" height="2.0000000000000018e-2" x="-0.7214228456913828" y="0.24" /><rect width="2.0000000000000018e-2" height="2.0000000000000018e-2" x="-0.7174148296593187" y="0.4066666666666667" /><rect width="2.0000000000000018e-2" height="2.0000000000000018e-2" x="-0.7134068136272546" y="-0.34333333333333327" /><rect width="2.0000000000000018e-2" height="2.0000000000000018e-2" x="-0.7093987975951904" y="0.32333333333333336" /><rect width="2.0000000000000018e-2" height="2.0000000000000018e-2" x="-0.7053907815631263" y="-0.34333333333333327" /><rect width="2.0000000000000018e-2" height="2.0000000000000018e-2" x="-0.7013827655310622" y="-0.17666666666666664" /><rect width="2.0000000000000018e-2" height="1.999999999999999e-2" x="-0.697374749498998" y="7.333333333333338e-2" /><rect width="2.0000000000000018e-2" height="2.0000000000000018e-2" x="-0.6933667334669339" y="-0.26" /><rect width="2.0000000000000018e-2" height="2.0000000000000018e-2" x="-0.6893587174348698" y="0.15666666666666668" /><rect width="2.0000000000000018e-2" height="1.999999999999999e-2" x="-0.6853507014028056" y="-9.333333333333325e-2" /><rect width="2.0000000000000018e-2" height="2.0e-2" x="-0.6813426853707415" y="-1.0e-2" /><rect width="2.0000000000000018e-2" height="1.999999999999999e-2" x="-0.6773346693386774" y="-9.333333333333325e-2" /><rect width="2.0000000000000018e-2" height="2.0000000000000018e-2" x="-0.6733266533066133" y="0.32333333333333336" /><rect width="2.0000000000000018e-2" height="1.999999999999999e-2" x="-0.6693186372745492" y="-9.333333333333325e-2" /><rect width="2.0000000000000018e-2" height="2.0000000000000018e-2" x="-0.6653106212424851" y="0.15666666666666668" /><rect width="2.0000000000000018e-2" height="2.0000000000000018e-2" x="-0.661302605210421" y="0.24" /><rect width="2.0000000000000018e-2" height="2.0000000000000018e-2" x="-0.6572945891783568" y="0.32333333333333336" /><rect width="2.0000000000000018e-2" height="1.999999999999999e-2" x="-0.6532865731462927" y="-9.333333333333325e-2" /><rect width="2.0000000000000018e-2" height="2.0000000000000018e-2" x="-0.6492785571142285" y="0.32333333333333336" /><rect width="2.0000000000000018e-2" height="1.999999999999999e-2" x="-0.6452705410821644" y="-9.333333333333325e-2" /><rect width="2.0000000000000018e-2" height="2.0000000000000018e-2" x="-0.6412625250501003" y="0.4066666666666667" /><rect width="2.0000000000000018e-2" height="1.999999999999999e-2" x="-0.6372545090180362" y="-9.333333333333325e-2" /><rect width="2.0000000000000018e-2" height="2.0000000000000018e-2" x="-0.633246492985972" y="0.4066666666666667" /><rect width="2.0000000000000018e-2" height="2.0000000000000018e-2" x="-0.6292384769539079" y="-0.26" /><rect width="2.0000000000000018e-2" height="2.0e-2" x="-0.6252304609218438" y="-1.0e-2" /><rect width="2.0000000000000018e-2" height="1.999999999999999e-2" x="-0.6212224448897796" y="-9.333333333333325e-2" /><rect width="2.0000000000000018e-2" height="2.0000000000000018e-2" x="-0.6172144288577155" y="0.32333333333333336" /><rect width="2.0000000000000018e-2" height="2.0000000000000018e-2" x="-0.6132064128256514" y="-0.26" /><rect width="2.0000000000000018e-2" height="2.0000000000000018e-2" x="-0.6091983967935872" y="-0.26" /><rect width="2.0000000000000018e-2" height="2.0000000000000018e-2" x="-0.6051903807615231" y="-0.26" /><rect width="2.0000000000000018e-2" height="2.0000000000000018e-2" x="-0.601182364729459" y="-0.17666666666666664" /><rect width="2.0000000000000018e-2" height="2.0000000000000018e-2" x="-0.5971743486973948" y="0.4066666666666667" /><rect width="2.0000000000000018e-2" height="2.0000000000000018e-2" x="-0.5931663326653307" y="-0.26" /><rect width="2.0000000000000018e-2" height="2.0e-2" x="-0.5891583166332666" y="-1.0e-2" /><rect width="2.0000000000000018e-2" height="2.0000000000000018e-2" x="-0.5851503006012024" y="0.15666666666666668" /><rect width="2.0000000000000018e-2" height="2.0000000000000018e-2" x="-0.5811422845691383" y="-0.17666666666666664" /><rect width="2.0000000000000018e-2" height="1.999999999999999e-2" x="-0.5771342685370742" y="-9.333333333333325e-2" /><rect width="2.0000000000000018e-2" height="2.0000000000000018e-2" x="-0.57312625250501" y="0.32333333333333336" /><rect width="2.0000000000000018e-2" height="2.0000000000000018e-2" x="-0.5691182364729459" y="0.15666666666666668" /><rect width="2.0000000000000018e-2" height="1.999999999999999e-2" x="-0.5651102204408818" y="-9.333333333333325e-2" /><rect width="2.0000000000000018e-2" height="2.0000000000000018e-2" x="-0.5611022044088176" y="-0.17666666666666664" /><rect width="2.0000000000000018e-2" height="2.0000000000000018e-2" x="-0.5570941883767535" y="-0.34333333333333327" /><rect width="2.0000000000000018e-2" height="2.0000000000000018e-2" x="-0.5530861723446894" y="0.24" /><rect width="2.0000000000000018e-2" height="2.0000000000000018e-2" x="-0.5490781563126252" y="0.32333333333333336" /><rect width="2.0000000000000018e-2" height="2.0000000000000018e-2" x="-0.5450701402805611" y="0.32333333333333336" /><rect width="2.0000000000000018e-2" height="2.0000000000000018e-2" x="-0.541062124248497" y="-0.17666666666666664" /><rect width="2.0000000000000018e-2" height="2.0000000000000018e-2" x="-0.5370541082164328" y="0.15666666666666668" /><rect width="2.0000000000000018e-2" height="2.0000000000000018e-2" x="-0.5330460921843687" y="-0.17666666666666664" /><rect width="2.0000000000000018e-2" height="2.0000000000000018e-2" x="-0.5290380761523046" y="-0.17666666666666664" /><rect width="2.0000000000000018e-2" height="2.0000000000000018e-2" x="-0.5250300601202404" y="-0.17666666666666664" /><rect width="2.0000000000000018e-2" height="1.999999999999999e-2" x="-0.5210220440881764" y="-9.333333333333325e-2" /><rect width="2.0000000000000018e-2" height="1.999999999999999e-2" x="-0.5170140280561123" y="7.333333333333338e-2" /><rect width="2.0000000000000018e-2" height="2.0000000000000018e-2" x="-0.5130060120240482" y="0.24" /><rect width="2.0000000000000018e-2" height="2.0000000000000018e-2" x="-0.508997995991984" y="0.4066666666666667" /><rect width="2.0000000000000018e-2" height="2.0000000000000018e-2" x="-0.5049899799599199" y="0.32333333333333336" /><rect width="2.0000000000000018e-2" height="2.0000000000000018e-2" x="-0.5009819639278558" y="-0.26" /><rect width="2.0000000000000018e-2" height="2.0000000000000018e-2" x="-0.49697394789579163" y="0.4066666666666667" /><rect width="2.0000000000000018e-2" height="2.0000000000000018e-2" x="-0.4929659318637275" y="-0.26" /><rect width="2.0000000000000018e-2" height="2.0000000000000018e-2" x="-0.48895791583166337" y="-0.17666666666666664" /><rect width="2.0000000000000018e-2" height="1.999999999999999e-2" x="-0.48494989979959924" y="-9.333333333333325e-2" /><rect width="2.0000000000000018e-2" height="1.999999999999999e-2" x="-0.4809418837675351" y="-9.333333333333325e-2" /><rect width="2.0000000000000018e-2" height="2.0000000000000018e-2" x="-0.476933867735471" y="0.15666666666666668" /><rect width="2.0000000000000018e-2" height="2.0000000000000018e-2" x="-0.47292585170340684" y="0.24" /><rect width="2.0000000000000018e-2" height="2.0000000000000018e-2" x="-0.4689178356713427" y="-0.26" /><rect width="2.0000000000000018e-2" height="2.0000000000000018e-2" x="-0.4649098196392786" y="-0.26" /><rect width="2.0000000000000018e-2" height="1.999999999999999e-2" x="-0.46090180360721444" y="7.333333333333338e-2" /><rect width="2.0000000000000018e-2" height="2.0000000000000018e-2" x="-0.4568937875751503" y="-0.26" /><rect width="2.0000000000000018e-2" height="2.0000000000000018e-2" x="-0.4528857715430862" y="0.32333333333333336" /><rect width="2.0000000000000018e-2" height="1.999999999999999e-2" x="-0.44887775551102205" y="7.333333333333338e-2" /><rect width="2.0000000000000018e-2" height="2.0000000000000018e-2" x="-0.444869739478958" y="0.24" /><rect width="2.0000000000000018e-2" height="2.0000000000000018e-2" x="-0.4408617234468939" y="0.24" /><rect width="2.0000000000000018e-2" height="2.0000000000000018e-2" x="-0.43685370741482976" y="0.32333333333333336" /><rect width="2.0000000000000018e-2" height="2.0000000000000018e-2" x="-0.43284569138276563" y="0.24" /><rect width="2.0000000000000018e-2" height="1.999999999999999e-2" x="-0.4288376753507015" y="-9.333333333333325e-2" /><rect width="2.0000000000000018e-2" height="2.0000000000000018e-2" x="-0.42482965931863736" y="-0.17666666666666664" /><rect width="2.0000000000000018e-2" height="1.999999999999999e-2" x="-0.42082164328657323" y="7.333333333333338e-2" /><rect width="2.0000000000000018e-2" height="2.0000000000000018e-2" x="-0.4168136272545091" y="-0.17666666666666664" /><rect width="2.0000000000000018e-2" height="1.999999999999999e-2" x="-0.41280561122244497" y="7.333333333333338e-2" /><rect width="2.0000000000000018e-2" height="2.0000000000000018e-2" x="-0.40879759519038084" y="0.32333333333333336" /><rect width="2.0000000000000018e-2" height="2.0000000000000018e-2" x="-0.4047895791583167" y="-0.17666666666666664" /><rect width="2.0000000000000018e-2" height="2.0e-2" x="-0.40078156312625257" y="-1.0e-2" /><rect width="2.0000000000000018e-2" height="2.0000000000000018e-2" x="-0.39677354709418844" y="-0.26" /><rect width="2.0000000000000018e-2" height="2.0000000000000018e-2" x="-0.3927655310621243" y="0.15666666666666668" /><rect width="2.0000000000000018e-2" height="2.0000000000000018e-2" x="-0.3887575150300602" y="0.32333333333333336" /><rect width="2.0000000000000018e-2" height="2.0000000000000018e-2" x="-0.38474949899799604" y="0.15666666666666668" /><rect width="2.0000000000000018e-2" height="2.0000000000000018e-2" x="-0.3807414829659319" y="0.32333333333333336" /><rect width="2.0000000000000018e-2" height="1.999999999999999e-2" x="-0.3767334669338678" y="-9.333333333333325e-2" /><rect width="2.0000000000000018e-2" height="1.999999999999999e-2" x="-0.37272545090180365" y="7.333333333333338e-2" /><rect width="2.0000000000000018e-2" height="2.0000000000000018e-2" x="-0.3687174348697395" y="-0.17666666666666664" /><rect width="2.0000000000000018e-2" height="2.0000000000000018e-2" x="-0.3647094188376754" y="0.15666666666666668" /><rect width="2.0000000000000018e-2" height="1.999999999999999e-2" x="-0.36070140280561125" y="7.333333333333338e-2" /><rect width="2.0000000000000018e-2" height="2.0000000000000018e-2" x="-0.3566933867735471" y="0.4066666666666667" /><rect width="2.0000000000000018e-2" height="2.0000000000000018e-2" x="-0.352685370741483" y="0.32333333333333336" /><rect width="2.0000000000000018e-2" height="2.0000000000000018e-2" x="-0.34867735470941885" y="0.15666666666666668" /><rect width="2.0000000000000018e-2" height="2.0000000000000018e-2" x="-0.3446693386773547" y="0.15666666666666668" /><rect width="2.0000000000000018e-2" height="2.0000000000000018e-2" x="-0.3406613226452907" y="0.4066666666666667" /><rect width="2.0000000000000018e-2" height="2.0000000000000018e-2" x="-0.33665330661322657" y="0.4066666666666667" /><rect width="2.0000000000000018e-2" height="2.0000000000000018e-2" x="-0.33264529058116243" y="-0.34333333333333327" /><rect width="2.0000000000000018e-2" height="2.0000000000000018e-2" x="-0.3286372745490983" y="0.32333333333333336" /><rect width="2.0000000000000018e-2" height="2.0000000000000018e-2" x="-0.32462925851703417" y="-0.34333333333333327" /><rect width="2.0000000000000018e-2" height="1.999999999999999e-2" x="-0.32062124248497004" y="7.333333333333338e-2" /><rect width="2.0000000000000018e-2" height="2.0000000000000018e-2" x="-0.3166132264529059" y="0.4066666666666667" /><rect width="2.0000000000000018e-2" height="1.999999999999999e-2" x="-0.3126052104208418" y="7.333333333333338e-2" /><rect width="2.0000000000000018e-2" height="2.0000000000000018e-2" x="-0.30859719438877764" y="0.32333333333333336" /><rect width="2.0000000000000018e-2" height="2.0000000000000018e-2" x="-0.3045891783567135" y="0.32333333333333336" /><rect width="2.0000000000000018e-2" height="2.0000000000000018e-2" x="-0.3005811623246494" y="0.4066666666666667" /><rect width="2.0000000000000018e-2" height="2.0000000000000018e-2" x="-0.29657314629258524" y="-0.34333333333333327" /><rect width="2.0000000000000018e-2" height="2.0000000000000018e-2" x="-0.2925651302605211" y="0.4066666666666667" /><rect width="2.0000000000000018e-2" height="2.0000000000000018e-2" x="-0.288557114228457" y="0.32333333333333336" /><rect width="2.0000000000000018e-2" height="2.0000000000000018e-2" x="-0.28454909819639285" y="-0.34333333333333327" /><rect width="2.0000000000000018e-2" height="2.0000000000000018e-2" x="-0.2805410821643287" y="-0.34333333333333327" /><rect width="2.0000000000000018e-2" height="2.0000000000000018e-2" x="-0.2765330661322646" y="-0.34333333333333327" /><rect width="2.0000000000000018e-2" height="2.0000000000000018e-2" x="-0.27252505010020045" y="0.32333333333333336" /><rect width="2.0000000000000018e-2" height="2.0000000000000018e-2" x="-0.2685170340681363" y="-0.26" /><rect width="2.0000000000000018e-2" height="2.0000000000000018e-2" x="-0.2645090180360722" y="-0.26" /><rect width="2.0000000000000018e-2" height="2.0000000000000018e-2" x="-0.26050100200400805" y="-0.34333333333333327" /><rect width="2.0000000000000018e-2" height="2.0000000000000018e-2" x="-0.2564929859719439" y="0.24" /><rect width="2.0000000000000018e-2" height="2.0000000000000018e-2" x="-0.2524849699398798" y="0.4066666666666667" /><rect width="2.0000000000000018e-2" height="2.0000000000000018e-2" x="-0.24847695390781566" y="0.4066666666666667" /><rect width="2.0000000000000018e-2" height="2.0000000000000018e-2" x="-0.24446893787575152" y="0.15666666666666668" /><rect width="2.0000000000000018e-2" height="2.0000000000000018e-2" x="-0.2404609218436875" y="0.4066666666666667" /><rect width="2.0000000000000018e-2" height="2.0000000000000018e-2" x="-0.23645290581162337" y="-0.34333333333333327" /><rect width="2.0000000000000018e-2" height="1.999999999999999e-2" x="-0.23244488977955924" y="-9.333333333333325e-2" /><rect width="2.0000000000000018e-2" height="2.0000000000000018e-2" x="-0.2284368737474951" y="0.4066666666666667" /><rect width="2.0000000000000018e-2" height="2.0000000000000018e-2" x="-0.22442885771543097" y="0.4066666666666667" /><rect width="2.0000000000000018e-2" height="1.999999999999999e-2" x="-0.22042084168336684" y="-9.333333333333325e-2" /><rect width="2.0000000000000018e-2" height="2.0000000000000018e-2" x="-0.2164128256513027" y="0.32333333333333336" /><rect width="2.0000000000000018e-2" height="2.0000000000000018e-2" x="-0.21240480961923858" y="-0.34333333333333327" /><rect width="2.0000000000000018e-2" height="2.0000000000000018e-2" x="-0.20839679358717444" y="-0.17666666666666664" /><rect width="2.0000000000000018e-2" height="2.0000000000000018e-2" x="-0.2043887775551103" y="-0.34333333333333327" /><rect width="2.0000000000000018e-2" height="2.0000000000000018e-2" x="-0.20038076152304618" y="0.24" /><rect width="2.0000000000000018e-2" height="2.0000000000000018e-2" x="-0.19637274549098205" y="-0.26" /><rect width="2.0000000000000018e-2" height="2.0000000000000018e-2" x="-0.19236472945891792" y="-0.34333333333333327" /><rect width="2.0000000000000018e-2" height="2.0000000000000018e-2" x="-0.18835671342685378" y="0.4066666666666667" /><rect width="2.0000000000000018e-2" height="2.0000000000000018e-2" x="-0.18434869739478965" y="0.15666666666666668" /><rect width="2.0000000000000018e-2" height="2.0000000000000018e-2" x="-0.18034068136272552" y="0.4066666666666667" /><rect width="2.0000000000000018e-2" height="1.999999999999999e-2" x="-0.1763326653306614" y="-9.333333333333325e-2" /><rect width="2.0000000000000018e-2" height="1.999999999999999e-2" x="-0.17232464929859725" y="7.333333333333338e-2" /><rect width="2.0000000000000018e-2" height="2.0000000000000018e-2" x="-0.16831663326653312" y="-0.17666666666666664" /><rect width="2.0000000000000018e-2" height="1.999999999999999e-2" x="-0.164308617234469" y="7.333333333333338e-2" /><rect width="2.0000000000000018e-2" height="2.0000000000000018e-2" x="-0.16030060120240486" y="0.4066666666666667" /><rect width="2.0000000000000018e-2" height="2.0000000000000018e-2" x="-0.15629258517034073" y="0.4066666666666667" /><rect width="2.0000000000000018e-2" height="1.999999999999999e-2" x="-0.1522845691382766" y="7.333333333333338e-2" /><rect width="2.0000000000000018e-2" height="2.0000000000000018e-2" x="-0.14827655310621246" y="0.4066666666666667" /><rect width="2.0000000000000004e-2" height="2.0000000000000018e-2" x="-0.14426853707414833" y="0.4066666666666667" /><rect width="2.0000000000000004e-2" height="2.0000000000000018e-2" x="-0.1402605210420842" y="0.4066666666666667" /><rect width="2.0000000000000004e-2" height="2.0000000000000018e-2" x="-0.13625250501002018" y="0.4066666666666667" /><rect width="2.0000000000000004e-2" height="2.0000000000000018e-2" x="-0.13224448897795604" y="-0.42666666666666664" /><rect width="2.0000000000000004e-2" height="2.0000000000000018e-2" x="-0.1282364729458919" y="-0.26" /><rect width="1.999999999999999e-2" height="2.0000000000000018e-2" x="-0.12422845691382776" y="0.15666666666666668" /><rect width="1.999999999999999e-2" height="2.0000000000000018e-2" x="-0.12022044088176363" y="-0.26" /><rect width="1.999999999999999e-2" height="2.0e-2" x="-0.1162124248496995" y="-1.0e-2" /><rect width="1.999999999999999e-2" height="2.0000000000000018e-2" x="-0.11220440881763537" y="0.4066666666666667" /><rect width="1.999999999999999e-2" height="2.0000000000000018e-2" x="-0.10819639278557124" y="-0.34333333333333327" /><rect width="1.999999999999999e-2" height="2.0000000000000018e-2" x="-0.1041883767535071" y="-0.26" /><rect width="1.999999999999999e-2" height="2.0000000000000018e-2" x="-0.10018036072144297" y="-0.34333333333333327" /><rect width="1.999999999999999e-2" height="2.0000000000000018e-2" x="-9.617234468937884e-2" y="-0.17666666666666664" /><rect width="1.999999999999999e-2" height="2.0000000000000018e-2" x="-9.21643286573147e-2" y="-0.17666666666666664" /><rect width="1.999999999999999e-2" height="1.999999999999999e-2" x="-8.815631262525057e-2" y="7.333333333333338e-2" /><rect width="1.999999999999999e-2" height="2.0000000000000018e-2" x="-8.414829659318644e-2" y="0.24" /><rect width="1.9999999999999997e-2" height="2.0000000000000018e-2" x="-8.014028056112231e-2" y="-0.34333333333333327" /><rect width="1.9999999999999997e-2" height="1.999999999999999e-2" x="-7.613226452905818e-2" y="-9.333333333333325e-2" /><rect width="1.9999999999999997e-2" height="2.0000000000000018e-2" x="-7.212424849699405e-2" y="-0.26" /><rect width="1.9999999999999997e-2" height="2.0000000000000018e-2" x="-6.811623246492991e-2" y="-0.34333333333333327" /><rect width="1.9999999999999997e-2" height="2.0000000000000018e-2" x="-6.410821643286578e-2" y="0.4066666666666667" /><rect width="2.0000000000000004e-2" height="1.999999999999999e-2" x="-6.0100200400801655e-2" y="-9.333333333333325e-2" /><rect width="2.0000000000000004e-2" height="2.0e-2" x="-5.609218436873752e-2" y="-1.0e-2" /><rect width="2.0000000000000004e-2" height="2.0000000000000018e-2" x="-5.208416833667339e-2" y="-0.26" /><rect width="2.0000000000000004e-2" height="2.0000000000000018e-2" x="-4.807615230460926e-2" y="0.32333333333333336" /><rect width="2.0000000000000004e-2" height="2.0000000000000018e-2" x="-4.4068136272545126e-2" y="0.15666666666666668" /><rect width="2.0000000000000004e-2" height="2.0000000000000018e-2" x="-4.0060120240480994e-2" y="-0.34333333333333327" /><rect width="2.0000000000000004e-2" height="2.0000000000000018e-2" x="-3.605210420841686e-2" y="-0.26" /><rect width="2.0000000000000004e-2" height="1.999999999999999e-2" x="-3.204408817635284e-2" y="7.333333333333338e-2" /><rect width="2.0000000000000004e-2" height="2.0000000000000018e-2" x="-2.8036072144288708e-2" y="-0.17666666666666664" /><rect width="2.0000000000000004e-2" height="2.0000000000000018e-2" x="-2.4028056112224576e-2" y="-0.17666666666666664" /><rect width="2.0000000000000004e-2" height="2.0000000000000018e-2" x="-2.0020040080160444e-2" y="0.24" /><rect width="2.0000000000000004e-2" height="2.0000000000000018e-2" x="-1.601202404809631e-2" y="0.32333333333333336" /><rect width="2.0e-2" height="1.999999999999999e-2" x="-1.2004008016032177e-2" y="7.333333333333338e-2" /><rect width="2.0e-2" height="2.0e-2" x="-7.995991983968045e-3" y="-1.0e-2" /><rect width="2.0000000000000004e-2" height="2.0000000000000018e-2" x="-3.987975951903913e-3" y="-0.34333333333333327" /><rect width="2.0000000000000004e-2" height="1.999999999999999e-2" x="2.0040080160219423e-5" y="-9.333333333333325e-2" /><rect width="2.0000000000000004e-2" height="2.0000000000000018e-2" x="4.028056112224352e-3" y="0.24" /><rect width="2.0000000000000004e-2" height="2.0000000000000018e-2" x="8.036072144288484e-3" y="-0.34333333333333327" /><rect width="2.0000000000000004e-2" height="2.0e-2" x="1.2044088176352616e-2" y="-1.0e-2" /><rect width="2.0000000000000004e-2" height="2.0e-2" x="1.6052104208416747e-2" y="-1.0e-2" /><rect width="2.0000000000000004e-2" height="2.0000000000000018e-2" x="2.006012024048088e-2" y="0.24" /><rect width="2.0000000000000004e-2" height="2.0000000000000018e-2" x="2.406813627254501e-2" y="-0.17666666666666664" /><rect width="2.0000000000000004e-2" height="2.0e-2" x="2.8076152304609144e-2" y="-1.0e-2" /><rect width="2.0000000000000004e-2" height="2.0000000000000018e-2" x="3.2084168336673276e-2" y="0.15666666666666668" /><rect width="2.0000000000000004e-2" height="2.0000000000000018e-2" x="3.609218436873741e-2" y="0.15666666666666668" /><rect width="2.0000000000000004e-2" height="2.0000000000000018e-2" x="4.010020040080154e-2" y="0.24" /><rect width="1.9999999999999997e-2" height="2.0000000000000018e-2" x="4.410821643286567e-2" y="-0.26" /><rect width="1.9999999999999997e-2" height="2.0000000000000018e-2" x="4.8116232464929805e-2" y="0.24" /><rect width="1.9999999999999997e-2" height="2.0000000000000018e-2" x="5.212424849699394e-2" y="0.15666666666666668" /><rect width="1.9999999999999997e-2" height="2.0000000000000018e-2" x="5.613226452905807e-2" y="0.32333333333333336" /><rect width="1.9999999999999997e-2" height="2.0000000000000018e-2" x="6.01402805611222e-2" y="0.32333333333333336" /><rect width="1.999999999999999e-2" height="2.0000000000000018e-2" x="6.414829659318634e-2" y="0.24" /><rect width="1.999999999999999e-2" height="2.0000000000000018e-2" x="6.815631262525047e-2" y="-0.34333333333333327" /><rect width="1.999999999999999e-2" height="1.999999999999999e-2" x="7.21643286573146e-2" y="-9.333333333333325e-2" /><rect width="1.999999999999999e-2" height="2.0000000000000018e-2" x="7.617234468937874e-2" y="-0.26" /><rect width="1.999999999999999e-2" height="2.0000000000000018e-2" x="8.018036072144287e-2" y="0.15666666666666668" /><rect width="1.999999999999999e-2" height="2.0000000000000018e-2" x="8.4188376753507e-2" y="-0.17666666666666664" /><rect width="1.999999999999999e-2" height="1.999999999999999e-2" x="8.819639278557113e-2" y="-9.333333333333325e-2" /><rect width="1.999999999999999e-2" height="1.999999999999999e-2" x="9.220440881763527e-2" y="7.333333333333338e-2" /><rect width="1.999999999999999e-2" height="2.0000000000000018e-2" x="9.62124248496994e-2" y="0.24" /><rect width="1.999999999999999e-2" height="2.0000000000000018e-2" x="0.10022044088176353" y="-0.34333333333333327" /><rect width="1.999999999999999e-2" height="2.0000000000000018e-2" x="0.10422845691382766" y="0.4066666666666667" /><rect width="2.0000000000000004e-2" height="2.0000000000000018e-2" x="0.1082364729458918" y="0.15666666666666668" /><rect width="2.0000000000000004e-2" height="2.0000000000000018e-2" x="0.11224448897795593" y="-0.26" /><rect width="2.0000000000000004e-2" height="2.0000000000000018e-2" x="0.11625250501002006" y="0.32333333333333336" /><rect width="2.0000000000000004e-2" height="1.999999999999999e-2" x="0.12026052104208397" y="-9.333333333333325e-2" /><rect width="2.0000000000000004e-2" height="2.0000000000000018e-2" x="0.1242685370741481" y="-0.26" /><rect width="2.0000000000000018e-2" height="2.0000000000000018e-2" x="0.12827655310621222" y="-0.34333333333333327" /><rect width="2.0000000000000018e-2" height="1.999999999999999e-2" x="0.13228456913827635" y="7.333333333333338e-2" /><rect width="2.0000000000000018e-2" height="1.999999999999999e-2" x="0.13629258517034049" y="-9.333333333333325e-2" /><rect width="2.0000000000000018e-2" height="1.999999999999999e-2" x="0.14030060120240462" y="-9.333333333333325e-2" /><rect width="2.0000000000000018e-2" height="2.0000000000000018e-2" x="0.14430861723446875" y="-0.17666666666666664" /><rect width="2.0000000000000018e-2" height="2.0e-2" x="0.14831663326653288" y="-1.0e-2" /><rect width="2.0000000000000018e-2" height="2.0000000000000018e-2" x="0.15232464929859701" y="0.32333333333333336" /><rect width="2.0000000000000018e-2" height="1.999999999999999e-2" x="0.15633266533066115" y="-9.333333333333325e-2" /><rect width="2.0000000000000018e-2" height="1.999999999999999e-2" x="0.16034068136272528" y="7.333333333333338e-2" /><rect width="2.0000000000000018e-2" height="2.0000000000000018e-2" x="0.1643486973947894" y="-0.26" /><rect width="2.0000000000000018e-2" height="2.0000000000000018e-2" x="0.16835671342685354" y="0.15666666666666668" /><rect width="2.0000000000000018e-2" height="1.999999999999999e-2" x="0.17236472945891768" y="7.333333333333338e-2" /><rect width="2.0000000000000018e-2" height="2.0000000000000018e-2" x="0.1763727454909818" y="0.24" /><rect width="2.0000000000000018e-2" height="2.0e-2" x="0.18038076152304594" y="-1.0e-2" /><rect width="2.0000000000000018e-2" height="2.0e-2" x="0.18438877755511007" y="-1.0e-2" /><rect width="2.0000000000000018e-2" height="2.0000000000000018e-2" x="0.1883967935871742" y="-0.26" /><rect width="2.0000000000000018e-2" height="2.0000000000000018e-2" x="0.19240480961923834" y="0.24" /><rect width="2.0000000000000018e-2" height="1.999999999999999e-2" x="0.19641282565130247" y="7.333333333333338e-2" /><rect width="2.0000000000000018e-2" height="2.0000000000000018e-2" x="0.2004208416833666" y="-0.17666666666666664" /><rect width="2.0000000000000018e-2" height="2.0e-2" x="0.20442885771543073" y="-1.0e-2" /><rect width="2.0000000000000018e-2" height="2.0e-2" x="0.20843687374749487" y="-1.0e-2" /><rect width="2.0000000000000018e-2" height="2.0000000000000018e-2" x="0.212444889779559" y="0.32333333333333336" /><rect width="2.0000000000000018e-2" height="2.0000000000000018e-2" x="0.21645290581162313" y="0.15666666666666668" /><rect width="2.0000000000000018e-2" height="2.0000000000000018e-2" x="0.22046092184368726" y="-0.34333333333333327" /><rect width="2.0000000000000018e-2" height="2.0000000000000018e-2" x="0.2244689378757514" y="0.32333333333333336" /><rect width="2.0000000000000018e-2" height="2.0000000000000018e-2" x="0.22847695390781553" y="0.4066666666666667" /><rect width="2.0000000000000018e-2" height="2.0000000000000018e-2" x="0.23248496993987966" y="0.15666666666666668" /><rect width="2.0000000000000018e-2" height="2.0000000000000018e-2" x="0.2364929859719438" y="0.24" /><rect width="2.0000000000000018e-2" height="2.0000000000000018e-2" x="0.24050100200400792" y="-0.17666666666666664" /><rect width="2.0000000000000018e-2" height="2.0000000000000018e-2" x="0.24450901803607206" y="0.4066666666666667" /><rect width="2.0000000000000018e-2" height="2.0000000000000018e-2" x="0.2485170340681362" y="-0.26" /><rect width="2.0000000000000018e-2" height="2.0000000000000018e-2" x="0.2525250501002003" y="-0.17666666666666664" /><rect width="2.0000000000000018e-2" height="2.0000000000000018e-2" x="0.25653306613226445" y="-0.26" /><rect width="2.0000000000000018e-2" height="2.0000000000000018e-2" x="0.2605410821643286" y="0.32333333333333336" /><rect width="2.0000000000000018e-2" height="2.0000000000000018e-2" x="0.2645490981963927" y="0.32333333333333336" /><rect width="2.0000000000000018e-2" height="2.0000000000000018e-2" x="0.26855711422845685" y="-0.26" /><rect width="2.0000000000000018e-2" height="2.0000000000000018e-2" x="0.272565130260521" y="0.24" /><rect width="2.0000000000000018e-2" height="2.0000000000000018e-2" x="0.2765731462925851" y="0.4066666666666667" /><rect width="2.0000000000000018e-2" height="2.0e-2" x="0.28058116232464925" y="-1.0e-2" /><rect width="2.0000000000000018e-2" height="2.0000000000000018e-2" x="0.2845891783567134" y="0.4066666666666667" /><rect width="2.0000000000000018e-2" height="2.0000000000000018e-2" x="0.2885971943887775" y="0.32333333333333336" /><rect width="2.0000000000000018e-2" height="1.999999999999999e-2" x="0.29260521042084164" y="-9.333333333333325e-2" /><rect width="2.0000000000000018e-2" height="2.0000000000000018e-2" x="0.2966132264529058" y="0.4066666666666667" /><rect width="2.0000000000000018e-2" height="2.0000000000000018e-2" x="0.3006212424849699" y="0.24" /><rect width="2.0000000000000018e-2" height="2.0000000000000018e-2" x="0.30462925851703404" y="-0.34333333333333327" /><rect width="2.0000000000000018e-2" height="2.0000000000000018e-2" x="0.3086372745490982" y="-0.26" /><rect width="2.0000000000000018e-2" height="2.0000000000000018e-2" x="0.3126452905811623" y="-0.17666666666666664" /><rect width="2.0000000000000018e-2" height="2.0000000000000018e-2" x="0.31665330661322644" y="-0.34333333333333327" /><rect width="2.0000000000000018e-2" height="2.0000000000000018e-2" x="0.32066132264529057" y="-0.17666666666666664" /><rect width="2.0000000000000018e-2" height="1.999999999999999e-2" x="0.3246693386773545" y="7.333333333333338e-2" /><rect width="2.0000000000000018e-2" height="2.0000000000000018e-2" x="0.3286773547094186" y="0.15666666666666668" /><rect width="2.0000000000000018e-2" height="2.0000000000000018e-2" x="0.33268537074148274" y="-0.17666666666666664" /><rect width="2.0000000000000018e-2" height="2.0000000000000018e-2" x="0.3366933867735469" y="0.15666666666666668" /><rect width="2.0000000000000018e-2" height="2.0e-2" x="0.340701402805611" y="-1.0e-2" /><rect width="2.0000000000000018e-2" height="2.0000000000000018e-2" x="0.34470941883767514" y="-0.34333333333333327" /><rect width="2.0000000000000018e-2" height="1.999999999999999e-2" x="0.3487174348697393" y="-9.333333333333325e-2" /><rect width="2.0000000000000018e-2" height="2.0000000000000018e-2" x="0.3527254509018034" y="-0.26" /><rect width="2.0000000000000018e-2" height="2.0000000000000018e-2" x="0.35673346693386754" y="0.15666666666666668" /><rect width="2.0000000000000018e-2" height="2.0000000000000018e-2" x="0.36074148296593167" y="0.15666666666666668" /><rect width="2.0000000000000018e-2" height="2.0000000000000018e-2" x="0.3647494989979958" y="0.4066666666666667" /><rect width="2.0000000000000018e-2" height="2.0000000000000018e-2" x="0.36875751503005993" y="0.15666666666666668" /><rect width="2.0000000000000018e-2" height="2.0000000000000018e-2" x="0.37276553106212407" y="-0.17666666666666664" /><rect width="2.0000000000000018e-2" height="2.0000000000000018e-2" x="0.3767735470941882" y="-0.17666666666666664" /><rect width="2.0000000000000018e-2" height="2.0000000000000018e-2" x="0.38078156312625233" y="-0.26" /><rect width="2.0000000000000018e-2" height="1.999999999999999e-2" x="0.38478957915831646" y="-9.333333333333325e-2" /><rect width="2.0000000000000018e-2" height="2.0000000000000018e-2" x="0.3887975951903806" y="-0.26" /><rect width="2.0000000000000018e-2" height="2.0000000000000018e-2" x="0.39280561122244473" y="0.15666666666666668" /><rect width="2.0000000000000018e-2" height="2.0000000000000018e-2" x="0.39681362725450886" y="0.32333333333333336" /><rect width="2.0000000000000018e-2" height="2.0e-2" x="0.400821643286573" y="-1.0e-2" /><rect width="2.0000000000000018e-2" height="2.0000000000000018e-2" x="0.4048296593186371" y="-0.17666666666666664" /><rect width="2.0000000000000018e-2" height="1.999999999999999e-2" x="0.40883767535070126" y="-9.333333333333325e-2" /><rect width="2.0000000000000018e-2" height="2.0000000000000018e-2" x="0.4128456913827654" y="-0.17666666666666664" /><rect width="2.0000000000000018e-2" height="1.999999999999999e-2" x="0.4168537074148295" y="7.333333333333338e-2" /><rect width="2.0000000000000018e-2" height="2.0000000000000018e-2" x="0.42086172344689365" y="0.24" /><rect width="2.0000000000000018e-2" height="2.0000000000000018e-2" x="0.4248697394789578" y="0.32333333333333336" /><rect width="2.0000000000000018e-2" height="1.999999999999999e-2" x="0.4288777555110219" y="-9.333333333333325e-2" /><rect width="2.0000000000000018e-2" height="2.0000000000000018e-2" x="0.43288577154308605" y="0.32333333333333336" /><rect width="2.0000000000000018e-2" height="1.999999999999999e-2" x="0.4368937875751502" y="-9.333333333333325e-2" /><rect width="2.0000000000000018e-2" height="2.0000000000000018e-2" x="0.4409018036072143" y="-0.26" /><rect width="2.0000000000000018e-2" height="2.0000000000000018e-2" x="0.44490981963927845" y="-0.17666666666666664" /><rect width="2.0000000000000018e-2" height="2.0000000000000018e-2" x="0.4489178356713426" y="0.32333333333333336" /><rect width="2.0000000000000018e-2" height="2.0000000000000018e-2" x="0.4529258517034067" y="-0.26" /><rect width="2.0000000000000018e-2" height="2.0000000000000018e-2" x="0.45693386773547084" y="0.15666666666666668" /><rect width="2.0000000000000018e-2" height="2.0000000000000018e-2" x="0.460941883767535" y="0.24" /><rect width="2.0000000000000018e-2" height="2.0000000000000018e-2" x="0.4649498997995991" y="0.4066666666666667" /><rect width="2.0000000000000018e-2" height="2.0000000000000018e-2" x="0.46895791583166324" y="0.4066666666666667" /><rect width="2.0000000000000018e-2" height="2.0000000000000018e-2" x="0.4729659318637274" y="0.32333333333333336" /><rect width="2.0000000000000018e-2" height="2.0000000000000018e-2" x="0.4769739478957915" y="0.4066666666666667" /><rect width="2.0000000000000018e-2" height="2.0000000000000018e-2" x="0.48098196392785564" y="-0.34333333333333327" /><rect width="2.0000000000000018e-2" height="2.0e-2" x="0.48498997995991977" y="-1.0e-2" /><rect width="2.0000000000000018e-2" height="2.0000000000000018e-2" x="0.4889979959919839" y="-0.34333333333333327" /><rect width="2.0000000000000018e-2" height="2.0000000000000018e-2" x="0.49300601202404803" y="0.32333333333333336" /><rect width="2.0000000000000018e-2" height="2.0000000000000018e-2" x="0.49701402805611217" y="0.4066666666666667" /><rect width="2.0000000000000018e-2" height="2.0000000000000018e-2" x="0.5010220440881763" y="-0.34333333333333327" /><rect width="2.0000000000000018e-2" height="2.0000000000000018e-2" x="0.5050300601202404" y="0.4066666666666667" /><rect width="2.0000000000000018e-2" height="1.999999999999999e-2" x="0.5090380761523046" y="-9.333333333333325e-2" /><rect width="2.0000000000000018e-2" height="2.0000000000000018e-2" x="0.5130460921843687" y="-0.34333333333333327" /><rect width="2.0000000000000018e-2" height="2.0000000000000018e-2" x="0.5170541082164328" y="-0.34333333333333327" /><rect width="2.0000000000000018e-2" height="2.0000000000000018e-2" x="0.521062124248497" y="0.32333333333333336" /><rect width="2.0000000000000018e-2" height="2.0000000000000018e-2" x="0.5250701402805611" y="-0.26" /><rect width="2.0000000000000018e-2" height="1.999999999999999e-2" x="0.529078156312625" y="7.333333333333338e-2" /><rect width="2.0000000000000018e-2" height="2.0000000000000018e-2" x="0.5330861723446891" y="0.4066666666666667" /><rect width="2.0000000000000018e-2" height="2.0000000000000018e-2" x="0.5370941883767533" y="-0.34333333333333327" /><rect width="2.0000000000000018e-2" height="2.0000000000000018e-2" x="0.5411022044088174" y="0.24" /><rect width="2.0000000000000018e-2" height="2.0000000000000018e-2" x="0.5451102204408815" y="-0.17666666666666664" /><rect width="2.0000000000000018e-2" height="2.0000000000000018e-2" x="0.5491182364729457" y="-0.34333333333333327" /><rect width="2.0000000000000018e-2" height="2.0e-2" x="0.5531262525050098" y="-1.0e-2" /><rect width="2.0000000000000018e-2" height="2.0000000000000018e-2" x="0.5571342685370739" y="0.32333333333333336" /><rect width="2.0000000000000018e-2" height="2.0000000000000018e-2" x="0.5611422845691381" y="-0.34333333333333327" /><rect width="2.0000000000000018e-2" height="2.0000000000000018e-2" x="0.5651503006012022" y="-0.34333333333333327" /><rect width="2.0000000000000018e-2" height="2.0e-2" x="0.5691583166332663" y="-1.0e-2" /><rect width="2.0000000000000018e-2" height="1.999999999999999e-2" x="0.5731663326653305" y="7.333333333333338e-2" /><rect width="2.0000000000000018e-2" height="1.999999999999999e-2" x="0.5771743486973946" y="7.333333333333338e-2" /><rect width="2.0000000000000018e-2" height="2.0000000000000018e-2" x="0.5811823647294587" y="-0.17666666666666664" /><rect width="2.0000000000000018e-2" height="1.999999999999999e-2" x="0.5851903807615229" y="-9.333333333333325e-2" /><rect width="2.0000000000000018e-2" height="2.0000000000000018e-2" x="0.589198396793587" y="0.15666666666666668" /><rect width="2.0000000000000018e-2" height="2.0000000000000018e-2" x="0.5932064128256511" y="0.24" /><rect width="2.0000000000000018e-2" height="1.999999999999999e-2" x="0.5972144288577153" y="-9.333333333333325e-2" /><rect width="2.0000000000000018e-2" height="1.999999999999999e-2" x="0.6012224448897794" y="7.333333333333338e-2" /><rect width="2.0000000000000018e-2" height="1.999999999999999e-2" x="0.6052304609218435" y="7.333333333333338e-2" /><rect width="2.0000000000000018e-2" height="2.0000000000000018e-2" x="0.6092384769539076" y="0.24" /><rect width="2.0000000000000018e-2" height="1.999999999999999e-2" x="0.6132464929859718" y="7.333333333333338e-2" /><rect width="2.0000000000000018e-2" height="2.0000000000000018e-2" x="0.6172545090180359" y="0.4066666666666667" /><rect width="2.0000000000000018e-2" height="2.0000000000000018e-2" x="0.6212625250501" y="-0.17666666666666664" /><rect width="2.0000000000000018e-2" height="2.0000000000000018e-2" x="0.6252705410821642" y="0.24" /><rect width="2.0000000000000018e-2" height="2.0000000000000018e-2" x="0.6292785571142283" y="0.32333333333333336" /><rect width="2.0000000000000018e-2" height="2.0000000000000018e-2" x="0.6332865731462924" y="-0.17666666666666664" /><rect width="2.0000000000000018e-2" height="2.0000000000000018e-2" x="0.6372945891783566" y="0.4066666666666667" /><rect width="2.0000000000000018e-2" height="2.0000000000000018e-2" x="0.6413026052104207" y="0.4066666666666667" /><rect width="2.0000000000000018e-2" height="2.0000000000000018e-2" x="0.6453106212424848" y="-0.26" /><rect width="2.0000000000000018e-2" height="2.0000000000000018e-2" x="0.649318637274549" y="-0.34333333333333327" /><rect width="2.0000000000000018e-2" height="2.0000000000000018e-2" x="0.6533266533066131" y="0.24" /><rect width="2.0000000000000018e-2" height="2.0000000000000018e-2" x="0.6573346693386772" y="0.4066666666666667" /><rect width="2.0000000000000018e-2" height="2.0000000000000018e-2" x="0.6613426853707414" y="-0.26" /><rect width="2.0000000000000018e-2" height="2.0000000000000018e-2" x="0.6653507014028055" y="-0.17666666666666664" /><rect width="2.0000000000000018e-2" height="2.0000000000000018e-2" x="0.6693587174348696" y="-0.34333333333333327" /><rect width="2.0000000000000018e-2" height="2.0000000000000018e-2" x="0.6733667334669338" y="0.15666666666666668" /><rect width="2.0000000000000018e-2" height="2.0000000000000018e-2" x="0.6773747494989979" y="-0.26" /><rect width="2.0000000000000018e-2" height="2.0000000000000018e-2" x="0.681382765531062" y="0.15666666666666668" /><rect width="2.0000000000000018e-2" height="1.999999999999999e-2" x="0.6853907815631262" y="-9.333333333333325e-2" /><rect width="2.0000000000000018e-2" height="2.0000000000000018e-2" x="0.6893987975951903" y="0.24" /><rect width="2.0000000000000018e-2" height="2.0000000000000018e-2" x="0.6934068136272544" y="-0.17666666666666664" /><rect width="2.0000000000000018e-2" height="2.0000000000000018e-2" x="0.6974148296593186" y="0.24" /><rect width="2.0000000000000018e-2" height="1.999999999999999e-2" x="0.7014228456913827" y="-9.333333333333325e-2" /><rect width="2.0000000000000018e-2" height="2.0e-2" x="0.7054308617234468" y="-1.0e-2" /><rect width="2.0000000000000018e-2" height="1.999999999999999e-2" x="0.709438877755511" y="-9.333333333333325e-2" /><rect width="2.0000000000000018e-2" height="2.0000000000000018e-2" x="0.7134468937875751" y="-0.17666666666666664" /><rect width="2.0000000000000018e-2" height="2.0000000000000018e-2" x="0.7174549098196392" y="0.15666666666666668" /><rect width="2.0000000000000018e-2" height="1.999999999999999e-2" x="0.7214629258517034" y="-9.333333333333325e-2" /><rect width="2.0000000000000018e-2" height="2.0000000000000018e-2" x="0.7254709418837675" y="0.24" /><rect width="2.0000000000000018e-2" height="2.0000000000000018e-2" x="0.7294789579158316" y="-0.26" /><rect width="2.0000000000000018e-2" height="1.999999999999999e-2" x="0.7334869739478957" y="-9.333333333333325e-2" /><rect width="2.0000000000000018e-2" height="2.0000000000000018e-2" x="0.7374949899799597" y="0.15666666666666668" /><rect width="2.0000000000000018e-2" height="2.0e-2" x="0.7415030060120238" y="-1.0e-2" /><rect width="2.0000000000000018e-2" height="1.999999999999999e-2" x="0.7455110220440879" y="-9.333333333333325e-2" /><rect width="2.0000000000000018e-2" height="1.999999999999999e-2" x="0.749519038076152" y="-9.333333333333325e-2" /><rect width="2.0000000000000018e-2" height="2.0000000000000018e-2" x="0.7535270541082162" y="0.24" /><rect width="2.0000000000000018e-2" height="2.0e-2" x="0.7575350701402803" y="-1.0e-2" /><rect width="2.0000000000000018e-2" height="1.999999999999999e-2" x="0.7615430861723445" y="7.333333333333338e-2" /><rect width="2.0000000000000018e-2" height="2.0e-2" x="0.7655511022044086" y="-1.0e-2" /><rect width="2.0000000000000018e-2" height="2.0000000000000018e-2" x="0.7695591182364727" y="-0.26" /><rect width="2.0000000000000018e-2" height="1.999999999999999e-2" x="0.7735671342685368" y="7.333333333333338e-2" /><rect width="2.0000000000000018e-2" height="1.999999999999999e-2" x="0.777575150300601" y="7.333333333333338e-2" /><rect width="2.0000000000000018e-2" height="2.0000000000000018e-2" x="0.7815831663326651" y="0.24" /><rect width="2.0000000000000018e-2" height="2.0000000000000018e-2" x="0.7855911823647292" y="0.15666666666666668" /><rect width="2.0000000000000018e-2" height="2.0e-2" x="0.7895991983967934" y="-1.0e-2" /><rect width="2.0000000000000018e-2" height="2.0000000000000018e-2" x="0.7936072144288575" y="-0.26" /><rect width="2.0000000000000018e-2" height="2.0e-2" x="0.7976152304609216" y="-1.0e-2" /><rect width="2.0000000000000018e-2" height="2.0000000000000018e-2" x="0.8016232464929858" y="-0.17666666666666664" /><rect width="2.0000000000000018e-2" height="2.0000000000000018e-2" x="0.8056312625250499" y="0.24" /><rect width="2.0000000000000018e-2" height="2.0000000000000018e-2" x="0.809639278557114" y="0.4066666666666667" /><rect width="2.0000000000000018e-2" height="2.0000000000000018e-2" x="0.8136472945891782" y="0.32333333333333336" /><rect width="2.0000000000000018e-2" height="2.0000000000000018e-2" x="0.8176553106212423" y="-0.17666666666666664" /><rect width="2.0000000000000018e-2" height="2.0e-2" x="0.8216633266533064" y="-1.0e-2" /><rect width="2.0000000000000018e-2" height="2.0000000000000018e-2" x="0.8256713426853706" y="-0.26" /><rect width="2.0000000000000018e-2" height="2.0000000000000018e-2" x="0.8296793587174347" y="0.24" /><rect width="2.0000000000000018e-2" height="2.0000000000000018e-2" x="0.8336873747494988" y="0.15666666666666668" /><rect width="2.0000000000000018e-2" height="1.999999999999999e-2" x="0.837695390781563" y="-9.333333333333325e-2" /><rect width="2.0000000000000018e-2" height="2.0000000000000018e-2" x="0.8417034068136271" y="-0.26" /><rect width="2.0000000000000018e-2" height="1.999999999999999e-2" x="0.8457114228456912" y="7.333333333333338e-2" /><rect width="2.0000000000000018e-2" height="2.0000000000000018e-2" x="0.8497194388777554" y="-0.26" /><rect width="2.0000000000000018e-2" height="1.999999999999999e-2" x="0.8537274549098195" y="7.333333333333338e-2" /><rect width="2.0000000000000018e-2" height="2.0000000000000018e-2" x="0.8577354709418836" y="0.15666666666666668" /><rect width="2.0000000000000018e-2" height="2.0000000000000018e-2" x="0.8617434869739478" y="-0.17666666666666664" /><rect width="2.0000000000000018e-2" height="2.0000000000000018e-2" x="0.8657515030060119" y="-0.17666666666666664" /><rect width="2.0000000000000018e-2" height="2.0e-2" x="0.869759519038076" y="-1.0e-2" /><rect width="2.0000000000000018e-2" height="1.999999999999999e-2" x="0.8737675350701402" y="7.333333333333338e-2" /><rect width="2.0000000000000018e-2" height="2.0000000000000018e-2" x="0.8777755511022043" y="-0.17666666666666664" /><rect width="2.0000000000000018e-2" height="1.999999999999999e-2" x="0.8817835671342684" y="7.333333333333338e-2" /><rect width="2.0000000000000018e-2" height="2.0000000000000018e-2" x="0.8857915831663326" y="0.32333333333333336" /><rect width="2.0000000000000018e-2" height="1.999999999999999e-2" x="0.8897995991983967" y="-9.333333333333325e-2" /><rect width="2.0000000000000018e-2" height="2.0000000000000018e-2" x="0.8938076152304608" y="-0.26" /><rect width="2.0000000000000018e-2" height="2.0000000000000018e-2" x="0.897815631262525" y="0.32333333333333336" /><rect width="2.0000000000000018e-2" height="1.999999999999999e-2" x="0.9018236472945891" y="-9.333333333333325e-2" /><rect width="2.0000000000000018e-2" height="2.0000000000000018e-2" x="0.9058316633266532" y="0.24" /><rect width="2.0000000000000018e-2" height="2.0000000000000018e-2" x="0.9098396793587173" y="-0.17666666666666664" /><rect width="2.0000000000000018e-2" height="2.0000000000000018e-2" x="0.9138476953907815" y="-0.17666666666666664" /><rect width="2.0000000000000018e-2" height="2.0000000000000018e-2" x="0.9178557114228456" y="0.24" /><rect width="2.0000000000000018e-2" height="2.0000000000000018e-2" x="0.9218637274549097" y="-0.26" /><rect width="2.0000000000000018e-2" height="2.0000000000000018e-2" x="0.9258717434869739" y="0.15666666666666668" /><rect width="2.0000000000000018e-2" height="2.0e-2" x="0.929879759519038" y="-1.0e-2" /><rect width="2.0000000000000018e-2" height="2.0000000000000018e-2" x="0.9338877755511021" y="-0.26" /><rect width="2.0000000000000018e-2" height="1.999999999999999e-2" x="0.9378957915831663" y="-9.333333333333325e-2" /><rect width="2.0000000000000018e-2" height="2.0000000000000018e-2" x="0.9419038076152302" y="0.24" /><rect width="2.0000000000000018e-2" height="1.999999999999999e-2" x="0.9459118236472943" y="7.333333333333338e-2" /><rect width="2.0000000000000018e-2" height="2.0e-2" x="0.9499198396793584" y="-1.0e-2" /><rect width="2.0000000000000018e-2" height="2.0000000000000018e-2" x="0.9539278557114226" y="0.4066666666666667" /><rect width="2.0000000000000018e-2" height="2.0000000000000018e-2" x="0.9579358717434867" y="0.4066666666666667" /><rect width="2.0000000000000018e-2" height="2.0000000000000018e-2" x="0.9619438877755508" y="-0.34333333333333327" /><rect width="2.0000000000000018e-2" height="2.0000000000000018e-2" x="0.965951903807615" y="0.15666666666666668" /><rect width="2.0000000000000018e-2" height="1.999999999999999e-2" x="0.9699599198396791" y="-9.333333333333325e-2" /><rect width="2.0000000000000018e-2" height="2.0000000000000018e-2" x="0.9739679358717432" y="0.4066666666666667" /><rect width="2.0000000000000018e-2" height="2.0000000000000018e-2" x="0.9779759519038074" y="-0.26" /><rect width="2.0000000000000018e-2" height="2.0000000000000018e-2" x="0.9819839679358715" y="-0.34333333333333327" /><rect width="2.0000000000000018e-2" height="2.0000000000000018e-2" x="0.9859919839679356" y="-0.34333333333333327" /><rect width="2.0000000000000018e-2" height="1.999999999999999e-2" x="0.9899999999999998" y="-9.333333333333325e-2" /></g><g stroke-width="2.0e-2" stroke="#5DA5DA" fill="none" stroke-opacity="0.5"><polyline points="-1.0,-0.33333333333333326 -0.9959919839679359,-0.2495812395309882 -0.9919839679358717,-0.27777964827222423 -0.9879759519038076,-0.2918781405977753 -0.9839679358717435,-0.21531991657071015 -0.9799599198396793,-0.1073246676477444 -0.9759519038076152,-3.019299505199613e-2 -0.9719438877755511,-2.6284785146098333e-2 -0.9679358717434869,-6.178880638191098e-2 -0.9639278557114228,-9.018772080893145e-2 -0.9599198396793587,-4.175986554187838e-2 -0.9559118236472945,-1.4107906314356766e-3 -0.9519038076152304,3.272383945243407e-2 -0.9478957915831663,1.1183662684221107e-2 -0.9438877755511023,-1.3434955678772731e-2 -0.9398797595190381,-1.814057900015187e-2 -0.935871743486974,-6.373674422842979e-3 -0.9318637274549099,-1.6059857011099465e-2 -0.9278557114228457,-3.4311652706610296e-2 -0.9238476953907816,-1.8698117025731653e-2 -0.9198396793587175,4.183046895775477e-3 -0.9158316633266533,2.4976757922712367e-2 -0.9118236472945892,3.1842054186689894e-2 -0.9078156312625251,2.6468109225880943e-2 -0.9038076152304609,4.4030488597072814e-2 -0.8997995991983968,3.8491892133994954e-2 -0.8957915831663327,4.7391602794450705e-2 -0.8917835671342685,6.244680463491459e-2 -0.8877755511022044,7.645711971842156e-2 -0.8837675350701403,5.751265203692685e-2 -0.8797595190380761,7.092910835040611e-2 -0.875751503006012,7.744031155012177e-2 -0.8717434869739479,6.288777603628798e-2 -0.8677354709418837,7.511036491839618e-2 -0.8637274549098196,6.133729044335079e-2 -0.8597194388777555,4.83370332766494e-2 -0.8557114228456915,3.87303304881052e-2 -0.8517034068136273,5.063588433258204e-2 -0.8476953907815632,4.393461953012223e-2 -0.8436873747494991,3.253776857766755e-2 -0.8396793587174349,4.144447776281335e-2 -0.8356713426853708,3.298063917103344e-2 -0.8316633266533067,3.916533527804256e-2 -0.8276553106212425,3.107426861318152e-2 -0.8236472945891784,2.105796667943055e-2 -0.8196392785571143,2.2740282783408894e-2 -0.8156312625250501,3.0990322662198755e-2 -0.811623246492986,4.106783529681074e-2 -0.8076152304609219,4.2154679516537896e-2 -0.8036072144288577,5.1636141280674286e-2 -0.7995991983967936,4.8270688193477795e-2 -0.7955911823647295,3.889544091587299e-2 -0.7915831663326653,3.795357880286554e-2 -0.7875751503006012,4.699566856427728e-2 -0.7835671342685371,4.392654199591162e-2 -0.779559118236473,5.0650696268718653e-2 -0.7755511022044088,5.5221933975906135e-2 -0.7715430861723447,4.642579446258205e-2 -0.7675350701402806,4.166199857645053e-2 -0.7635270541082164,4.258221379119681e-2 -0.7595190380761523,3.4380090591356494e-2 -0.7555110220440882,2.8247664347362145e-2 -0.751503006012024,2.586901765894012e-2 -0.7474949899799599,2.5323721998627424e-2 -0.7434869739478958,3.174514440096543e-2 -0.7394789579158316,2.7653022314543363e-2 -0.7354709418837675,3.0489952940298604e-2 -0.7314629258517034,3.492347729535983e-2 -0.7274549098196392,2.9226864504574068e-2 -0.7234468937875751,3.5246851477213015e-2 -0.719438877755511,3.292224995453863e-2 -0.7154308617234469,3.7137281266946376e-2 -0.7114228456913828,4.1231908957955976e-2 -0.7074148296593187,4.838768198748056e-2 -0.7034068136272545,4.117741784786555e-2 -0.6993987975951904,4.664728116496197e-2 -0.6953907815631263,3.959464368682697e-2 -0.6913827655310621,3.579882089653719e-2 -0.687374749498998,3.666630810532506e-2 -0.6833667334669339,3.147755963213994e-2 -0.6793587174348698,3.3904862210721975e-2 -0.6753507014028056,3.1816478694633776e-2 -0.6713426853707415,3.125412025732016e-2 -0.6673346693386774,2.924420541075795e-2 -0.6633266533066133,3.45381451618727e-2 -0.6593186372745492,3.250119251998468e-2 -0.6553106212424851,3.480296435444863e-2 -0.6513026052104209,3.8468698365043685e-2 -0.6472945891783568,4.345643005362548e-2 -0.6432865731462927,4.132646913572724e-2 -0.6392785571142285,4.6198809976583266e-2 -0.6352705410821644,4.40518287335806e-2 -0.6312625250501003,5.01875376848806e-2 -0.6272545090180361,4.800302593909134e-2 -0.623246492985972,5.399654391349118e-2 -0.6192384769539079,4.9085078876240695e-2 -0.6152304609218437,4.8296896998907046e-2 -0.6112224448897796,4.619597559529298e-2 -0.6072144288577155,5.0751756334646014e-2 -0.6032064128256514,4.600779578406117e-2 -0.5991983967935872,4.136546821884307e-2 -0.5951903807615231,3.682176927558001e-2 -0.591182364729459,3.366612302171318e-2 -0.5871743486973948,3.957306290301221e-2 -0.5831663326653307,3.513112388778683e-2 -0.5791583166332666,3.459508823080404e-2 -0.5751503006012024,3.659971444570986e-2 -0.5711422845691383,3.353036402060655e-2 -0.5671342685370742,3.177466038314142e-2 -0.56312625250501,3.628248681947943e-2 -0.5591182364729459,3.822192744891767e-2 -0.5551102204408818,3.642258681606425e-2 -0.5511022044088176,3.343069561127904e-2 -0.5470941883767535,2.8053010159511504e-2 -0.5430861723446894,3.1292209827009365e-2 -0.5390781563126252,3.568018085939273e-2 -0.5350701402805611,3.998491398875448e-2 -0.531062124248497,3.700954481155616e-2 -0.5270541082164328,3.886817362866246e-2 -0.5230460921843687,3.593455832948006e-2 -0.5190380761523046,3.30551188337595e-2 -0.5150300601202404,3.0228509606647858e-2 -0.5110220440881764,2.8627945809877153e-2 -0.5070140280561123,2.9395830831091208e-2 -0.5030060120240482,3.2479943322826166e-2 -0.498997995991984,3.782969539680536e-2 -0.4949899799599199,4.192845946136192e-2 -0.49098196392785576,3.789489632300802e-2 -0.4869739478957916,4.310846981439631e-2 -0.4829659318637275,3.908913238750572e-2 -0.47895791583166336,3.6278081411854735e-2 -0.47494989979959923,3.464990390566047e-2 -0.4709418837675351,3.3049669923651215e-2 -0.46693386773547096,3.485551356867289e-2 -0.46292585170340683,3.775302233941602e-2 -0.4589178356713427,3.389103345323319e-2 -0.45490981963927857,3.0093867902443616e-2 -0.45090180360721444,3.0803573252317917e-2 -0.4468937875751503,2.707276408238196e-2 -0.44288577154308617,3.1128471876760155e-2 -0.43887775551102204,3.1817569138256285e-2 -0.434869739478958,3.468836218965077e-2 -0.4308617234468939,3.7512464172948734e-2 -0.42685370741482975,4.1380498971699264e-2 -0.4228456913827656,4.409995975733827e-2 -0.4188376753507015,4.2443829477015194e-2 -0.41482965931863736,3.973433544618887e-2 -0.4108216432865732,4.029759226417656e-2 -0.4068136272545091,3.763159665141702e-2 -0.40280561122244496,3.821860893829693e-2 -0.3987975951903808,4.199843490611149e-2 -0.3947895791583167,3.933333826537111e-2 -0.39078156312625256,3.883235675801283e-2 -0.38677354709418843,3.5163592796803145e-2 -0.3827655310621243,3.6829450600557034e-2 -0.37875751503006017,4.057551577869334e-2 -0.37474949899799603,4.216438105634446e-2 -0.3707414829659319,4.582386147632589e-2 -0.36673346693386777,4.42047415164144e-2 -0.36272545090180364,4.4694018342652964e-2 -0.3587174348697395,4.2057696798205035e-2 -0.35470941883767537,4.3608121760024265e-2 -0.35070140280561124,4.4101191409985974e-2 -0.3466933867735471,4.871435015022274e-2 -0.342685370741483,5.2230167730698995e-2 -0.33867735470941884,5.364045135012979e-2 -0.3346693386773547,5.503012580869465e-2 -0.3306613226452907,5.946632018448289e-2 -0.32665330661322656,6.383818477292469e-2 -0.3226452905811624,5.8987963855012926e-2 -0.3186372745490983,6.233084934696426e-2 -0.31462925851703416,5.752021081213532e-2 -0.31062124248497003,5.7833380821379954e-2 -0.3066132264529059,6.217755596856189e-2 -0.30260521042084176,6.2433137672948336e-2 -0.29859719438877763,6.569907081828336e-2 -0.2945891783567135,6.891901062579858e-2 -0.29058116232464937,7.309432368825464e-2 -0.28657314629258523,6.822422853242016e-2 -0.2825651302605211,7.239124311174594e-2 -0.27855711422845697,7.550574194761389e-2 -0.27454909819639284,7.063543169333036e-2 -0.2705410821643287,6.583232530039584e-2 -0.2665330661322646,6.109527891834626e-2 -0.26252505010020044,6.432000675666777e-2 -0.2585170340681363,6.060366524812044e-2 -0.2545090180360722,5.693794784373907e-2 -0.25050100200400804,5.2340284763458145e-2 -0.2464929859719439,5.466471255826216e-2 -0.24248496993987978,5.891428496807943e-2 -0.23847695390781565,6.31066803379296e-2 -0.23446893787575152,6.431818725784816e-2 -0.2304609218436875,6.843318166427581e-2 -0.22645290581162336,6.374890951225853e-2 -0.22244488977955923,6.203689025600445e-2 -0.2184368737474951,6.615797925176858e-2 -0.21442885771543096,7.022458657107483e-2 -0.21042084168336683,6.844585471904135e-2 -0.2064128256513027,7.150931707064656e-2 -0.20240480961923857,6.683456939266819e-2 -0.19839679358717444,6.414247841262227e-2 -0.1943887775551103,5.956688293269463e-2 -0.19038076152304617,6.175577020260414e-2 -0.18637274549098204,5.8177715660582496e-2 -0.1823647294589179,5.369092866394859e-2 -0.17835671342685377,5.7844630715689904e-2 -0.17434869739478964,5.9088137479378355e-2 -0.1703406813627255,6.316835628072698e-2 -0.16633266533066138,6.149902539748464e-2 -0.16232464929859725,6.174747252068902e-2 -0.1583166332665331,5.9151983749574144e-2 -0.15430861723446898,5.942638439576875e-2 -0.15030060120240485,6.347475395162727e-2 -0.14629258517034072,6.747192039511984e-2 -0.14228456913827658,6.765119205905945e-2 -0.13827655310621245,7.159076561660482e-2 -0.13426853707414832,7.548086136219595e-2 -0.1302605210420842,7.932221278327639e-2 -0.12625250501002017,8.311553996257492e-2 -0.12224448897795603,7.750264001094664e-2 -0.1182364729458919,7.382907980356312e-2 -0.11422845691382777,7.486916288981299e-2 -0.11022044088176364,7.123394516268955e-2 -0.1062124248496995,7.043779951790768e-2 -0.10220440881763537,7.430287657709422e-2 -9.819639278557124e-2,6.975757513605835e-2 -9.418837675350711e-2,6.619625137008611e-2 -9.018036072144298e-2,6.175151713242455e-2 -8.617234468937884e-2,5.9213238714264704e-2 -8.216432865731471e-2,5.6705955855260004e-2 -7.815631262525058e-2,5.7001196834826184e-2 -7.414829659318645e-2,5.913881759189166e-2 -7.014028056112231e-2,5.479653669156481e-2 -6.613226452905818e-2,5.326990292991485e-2 -6.212424849699405e-2,4.992163761787882e-2 -5.811623246492992e-2,4.569469181500696e-2 -5.4108216432865786e-2,4.9781961511714545e-2 -5.010020040080165e-2,4.8316824021417015e-2 -4.609218436873752e-2,4.7785558181844656e-2 -4.208416833667339e-2,4.4514524356535135e-2 -3.8076152304609256e-2,4.768394229247486e-2 -3.4068136272545124e-2,4.898835574822491e-2 -3.0060120240480992e-2,4.480097692994239e-2 -2.605210420841686e-2,4.157524134773943e-2 -2.204408817635284e-2,4.203173163968782e-2 -1.8036072144288706e-2,3.975241040425409e-2 -1.4028056112224574e-2,3.7500058788429935e-2 -1.0020040080160442e-2,3.9816650359848826e-2 -6.012024048096309e-3,4.3013572508421416e-2 -2.004008016032177e-3,4.345233560198125e-2 2.004008016031955e-3,4.297990028961218e-2 6.012024048096087e-3,3.88920031159572e-2 1.002004008016022e-2,3.75654120405412e-2 1.4028056112224352e-2,3.986913622219479e-2 1.8036072144288484e-2,3.582539643931315e-2 2.2044088176352616e-2,3.5437543482784384e-2 2.605210420841675e-2,3.505420621425248e-2 3.006012024048088e-2,3.737743295274759e-2 3.406813627254501e-2,3.517381789157625e-2 3.8076152304609145e-2,3.4794254747392894e-2 4.208416833667328e-2,3.6216174386277e-2 4.609218436873741e-2,3.762166226752339e-2 5.010020040080154e-2,3.990807978502886e-2 5.4108216432865675e-2,3.678938268749227e-2 5.811623246492981e-2,3.908126775172399e-2 6.212424849699394e-2,4.045170655387231e-2 6.613226452905807e-2,4.3595318685200224e-2 7.01402805611222e-2,4.670291013766964e-2 7.414829659318634e-2,4.8881796718848625e-2 7.815631262525047e-2,4.478825014660964e-2 8.21643286573146e-2,4.3417034079742844e-2 8.617234468937873e-2,4.02789545102224e-2 9.018036072144286e-2,4.162972565375045e-2 9.4188376753507e-2,3.940508337535875e-2 9.819639278557113e-2,3.809510641141939e-2 0.10220440881763526,3.857760558151857e-2 0.1062124248496994,4.083108165845739e-2 0.11022044088176353,3.684562128900637e-2 0.11422845691382766,4.088869939906464e-2 0.11823647294589179,4.222670454171962e-2 0.12224448897795592,3.9120026899262306e-2 0.12625250501002006,4.22458516504125e-2 0.13026052104208397,4.091248708774031e-2 0.1342685370741481,3.7825566748300454e-2 0.13827655310621223,3.388954405539407e-2 0.14228456913827636,3.441356293002629e-2 0.1462925851703405,3.316639509514163e-2 0.15030060120240463,3.19331671793156e-2 0.15430861723446876,2.9832085019584453e-2 0.1583166332665329,2.9516659975717396e-2 0.16232464929859702,3.2727178922704714e-2 0.16633266533066116,3.150142916777482e-2 0.1703406813627253,3.204853430828247e-2 0.17434869739478942,2.90730590069323e-2 0.17835671342685355,3.0523807654665336e-2 0.18236472945891768,3.1080313989504282e-2 0.18637274549098182,3.338604732361866e-2 0.19038076152304595,3.3034601698163635e-2 0.19438877755511008,3.268703871189649e-2 0.1983967935871742,2.9714386818145255e-2 0.20240480961923835,3.202965010578368e-2 0.20641282565130248,3.256859112764671e-2 0.2104208416833666,3.047669717661594e-2 0.21442885771543074,3.0156863315506655e-2 0.21843687374749488,2.9840542291498906e-2 0.222444889779559,3.3022378868486135e-2 0.22645290581162314,3.442283567182913e-2 0.23046092184368727,3.0570968418892785e-2 0.2344689378757514,3.3740590180190544e-2 0.23847695390781554,3.774756721040684e-2 0.24248496993987967,3.90959638591763e-2 0.2464929859719438,4.130084858998945e-2 0.25050100200400793,3.9127651156011245e-2 0.25450901803607207,4.307104598592665e-2 0.2585170340681362,4.001128064989634e-2 0.26252505010020033,3.785443958107776e-2 0.26653306613226446,3.485176871145684e-2 0.2705410821643286,3.7963951369655635e-2 0.2745490981963927,4.104237056924409e-2 0.27855711422845686,3.801032898469836e-2 0.282565130260521,4.0217887348761416e-2 0.2865731462925851,4.413642329489553e-2 0.29058116232464926,4.36771857411673e-2 0.2945891783567134,4.755655400010517e-2 0.2985971943887775,5.0527654588472415e-2 0.30260521042084165,4.9136510078390594e-2 0.3066132264529058,5.295455287109041e-2 0.3106212424849699,5.5000741082719795e-2 0.31462925851703405,5.0969694790585496e-2 0.3186372745490982,4.784670978896516e-2 0.3226452905811623,4.5621668536254156e-2 0.32665330661322645,4.169241922991568e-2 0.3306613226452906,3.9532814278357864e-2 0.3346693386773545,3.998663332244806e-2 0.3386773547094186,4.129869683441778e-2 0.34268537074148275,3.9145505856053586e-2 0.3466933867735469,4.0465342732202314e-2 0.350701402805611,4.004667521024591e-2 0.35470941883767515,3.6184902317122125e-2 0.3587174348697393,3.494917963992761e-2 0.3627254509018034,3.200403270053431e-2 0.36673346693386755,3.339539713124923e-2 0.3707414829659317,3.4771928357685e-2 0.3747494989979958,3.8715143188939594e-2 0.37875751503005994,4.003586372235651e-2 0.3827655310621241,3.7902959151886684e-2 0.3867735470941882,3.579273597700977e-2 0.39078156312625234,3.2845591296569054e-2 0.3947895791583165,3.164790779205684e-2 0.3987975951903806,2.8745308480968512e-2 0.40280561122244474,3.0166260156775093e-2 0.40681362725450887,3.328873110948849e-2 0.410821643286573,3.294597629564788e-2 0.41482965931863713,3.0891289397994404e-2 0.41883767535070127,2.9715877863013884e-2 0.4228456913827654,2.7695619007396644e-2 0.42685370741482953,2.8267820035176416e-2 0.43086172344689366,3.054755615524013e-2 0.4348697394789578,3.3659767591677325e-2 0.4388777555110219,3.245757817250311e-2 0.44288577154308606,3.554844370281235e-2 0.4468937875751502,3.432751668336248e-2 0.4509018036072143,3.140823485399652e-2 0.45490981963927846,2.937507980000842e-2 0.4589178356713426,3.249425739841827e-2 0.4629258517034067,2.959609927953788e-2 0.46693386773547085,3.1001965898206474e-2 0.470941883767535,3.3247546950461115e-2 0.4749498997995991,3.717808529118205e-2 0.47895791583166325,4.1067353255197614e-2 0.4829659318637274,4.4061957393200124e-2 0.4869739478957915,4.7878785491918596e-2 0.49098196392785565,4.3974737375819195e-2 0.4949899799599198,4.352449434136896e-2 0.4989979959919839,3.96668903189521e-2 0.503006012024048,4.26722181033381e-2 0.5070140280561122,4.6498713074841325e-2 0.5110220440881763,4.261339032578204e-2 0.5150300601202404,4.6438725509491574e-2 0.5190380761523046,4.5111884830249305e-2 0.5230460921843687,4.124337982552306e-2 0.5270541082164328,3.7415269292005116e-2 0.531062124248497,4.0438837088319746e-2 0.5350701402805611,3.747189931526196e-2 0.539078156312625,3.794028957858786e-2 0.5430861723446891,4.180745915445189e-2 0.5470941883767533,3.797770995310662e-2 0.5511022044088174,4.014175789977842e-2 0.5551102204408815,3.803136253397005e-2 0.5591182364729457,3.424251290487973e-2 0.5631262525050098,3.389322427748803e-2 0.5671342685370739,3.694703242414693e-2 0.5711422845691381,3.317151648282762e-2 0.5751503006012022,2.9435230800067047e-2 0.5791583166332663,2.9135215509089152e-2 0.5831663326653305,2.9687517494528748e-2 0.5871743486973946,3.023408720482318e-2 0.5911823647294587,2.8228344442861042e-2 0.5951903807615229,2.7092125895846253e-2 0.599198396793587,2.8513383666891157e-2 0.6032064128256511,3.0768322455083208e-2 0.6072144288577153,2.9606872109553817e-2 0.6112224448897794,3.0153660353479494e-2 0.6152304609218435,3.0694787869415374e-2 0.6192384769539077,3.292592732060895e-2 0.6232464929859718,3.343866672256002e-2 0.6272545090180359,3.733615596007667e-2 0.6312625250501,3.526176803312331e-2 0.6352705410821642,3.7444950484312844e-2 0.6392785571142283,4.045266197827452e-2 0.6432865731462925,3.834763711741296e-2 0.6472945891783566,4.219199537723839e-2 0.6513026052104207,4.5996673331124116e-2 0.6553106212424848,4.298981626147591e-2 0.659318637274549,3.916757500477208e-2 0.6633266533066131,4.130862333301233e-2 0.6673346693386772,4.511987291456776e-2 0.6713426853707414,4.212379295638369e-2 0.6753507014028055,4.000445823651977e-2 0.6793587174348696,3.621545055695535e-2 0.6833667334669338,3.753920355153867e-2 0.6873747494989979,3.462183136875285e-2 0.691382765531062,3.596136243411674e-2 0.6953907815631262,3.475135024213277e-2 0.6993987975951903,3.6934316014562096e-2 0.7034068136272544,3.486976856668317e-2 0.7074148296593186,3.705091877323419e-2 0.7114228456913827,3.583054305497446e-2 0.7154308617234468,3.546736664706296e-2 0.719438877755511,3.4263372982099805e-2 0.7234468937875751,3.22273080010963e-2 0.7274549098196392,3.3589427941706995e-2 0.7314629258517034,3.2404939786093157e-2 0.7354709418837675,3.460900282339002e-2 0.7394789579158316,3.172651482558597e-2 0.7434869739478958,3.0561350623307115e-2 0.7474949899799597,3.1939459245780455e-2 0.7515030060120238,3.1616102815114844e-2 0.7555110220440879,3.0452494218456527e-2 0.7595190380761521,2.930080599488194e-2 0.7635270541082162,3.153435105356056e-2 0.7675350701402803,3.121525192311425e-2 0.7715430861723445,3.174257699784755e-2 0.7755511022044086,3.142144691731036e-2 0.7795591182364727,2.8574723200743557e-2 0.7835671342685369,2.9128570928716013e-2 0.787575150300601,2.96767541625792e-2 0.7915831663326651,3.190467352606674e-2 0.7955911823647293,3.326724067268433e-2 0.7995991983967934,3.2930915711755826e-2 0.8036072144288575,3.007085636428658e-2 0.8076152304609217,2.976691260018377e-2 0.8116232464929858,2.778165690758827e-2 0.8156312625250499,3.0027267125193047e-2 0.819639278557114,3.3934009708332435e-2 0.8236472945891782,3.6958931733931055e-2 0.8276553106212423,3.490185315682959e-2 0.8316633266533064,3.454930164092396e-2 0.8356713426853706,3.1675295685578087e-2 0.8396793587174347,3.388019876744741e-2 0.8436873747494988,3.522110177965243e-2 0.847695390781563,3.4024034082164034e-2 0.8517034068136271,3.1156465676121847e-2 0.8557114228456912,3.168320399587132e-2 0.8597194388777554,2.8839813551025384e-2 0.8637274549098195,2.9389834793223546e-2 0.8677354709418836,3.077528626389414e-2 0.8717434869739478,2.8782808950465366e-2 0.8757515030060119,2.6810619013479142e-2 0.879759519038076,2.654010999241485e-2 0.8837675350701402,2.711308081749325e-2 0.8877755511022043,2.5158264982965306e-2 0.8917835671342684,2.5745073252395778e-2 0.8957915831663326,2.8847427049168983e-2 0.8997995991983967,2.771606248007663e-2 0.9038076152304608,2.491548110384384e-2 0.907815631262525,2.8025407294394344e-2 0.9118236472945891,2.6902617052873112e-2 0.9158316633266532,2.9151842069453093e-2 0.9198396793587174,2.7177798922419782e-2 0.9238476953907815,2.522381431212173e-2 0.9278557114228456,2.748941420398332e-2 0.9318637274549098,2.469272069584827e-2 0.9358717434869739,2.6123501124188153e-2 0.939879759519038,2.58602550237807e-2 0.9438877755511021,2.308062965990837e-2 0.9478957915831663,2.200846212130325e-2 0.9519038076152302,2.430540398377523e-2 0.9559118236472943,2.4900047094472355e-2 0.9599198396793585,2.464922435548539e-2 0.9639278557114226,2.859779894559733e-2 0.9679358717434867,3.250631857332986e-2 0.9719438877755509,2.8821949535988434e-2 0.975951903807615,3.0210084342464527e-2 0.9799599198396791,2.906675076244769e-2 0.9839679358717432,3.2969444371509504e-2 0.9879759519038074,3.0120457711127147e-2 0.9919839679358715,2.646138981028001e-2 0.9959919839679356,2.283940399665363e-2 0.9999999999999998,2.177065442239945e-2" /></g><g /></svg>