<svg viewBox="-1.0125 -0.6585 2.0374999999999996 1.2934999999999999" xmlns="http://www.w3.org/2000/svg" xmlns:xlink="http://www.w3.org/1999/xlink" version="1.1" width="600.0" height="400.0"><g stroke-width="0.0" stroke="none" fill="#000000" transform="translate(6.249999999999978e-3, -0.5475)" fill-opacity="1.0" font-size="0.12" text-anchor="middle"><text transform="rotate(0.0, 0.0, -0.0)" x="0.0" y="-0.0">digit count</text></g><g stroke-width="0.0" stroke="#000000" fill="#666666" fill-opacity="3.0e-2" stroke-opacity="0.0"><rect width="2.0" height="1.0" x="-1.0" y="-0.5" /></g><g stroke-width="5.0e-3" stroke="#A8E5EE" fill="none" stroke-opacity="0.3"><polyline points="-1.0,0.505 -1.0,-0.505" /></g><g stroke-width="5.0e-3" stroke="#A8E5EE" fill="none" stroke-opacity="0.3"><polyline points="-0.8,0.505 -0.8,-0.505" /></g><g stroke-width="5.0e-3" stroke="#A8E5EE" fill="none" stroke-opacity="0.3"><polyline points="-0.6,0.505 -0.6,-0.505" /></g><g stroke-width="5.0e-3" stroke="#A8E5EE" fill="none" stroke-opacity="0.3"><polyline points="-0.4,0.505 -0.4,-0.505" /></g><g stroke-width="5.0e-3" stroke="#A8E5EE" fill="none" stroke-opacity="0.3"><polyline points="-0.19999999999999996,0.505 -0.19999999999999996,-0.505" /></g><g stroke-width="5.0e-3" stroke="#A8E5EE" fill="none" stroke-opacity="0.3"><polyline points="0.0,0.505 0.0,-0.505" /></g><g stroke-width="5.0e-3" stroke="#A8E5EE" fill="none" stroke-opacity="0.3"><polyline points="0.19999999999999996,0.505 0.19999999999999996,-0.505" /></g><g stroke-width="5.0e-3" stroke="#A8E5EE" fill="none" stroke-opacity="0.3"><polyline points="0.3999999999999999,0.505 0.3999999999999999,-0.505" /></g><g stroke-width="5.0e-3" stroke="#A8E5EE" fill="none" stroke-opacity="0.3"><polyline points="0.6000000000000001,0.505 0.6000000000000001,-0.505" /></g><g stroke-width="5.0e-3" stroke="#A8E5EE" fill="none" stroke-opacity="0.3"><polyline points="0.8,0.505 0.8,-0.505" /></g><g stroke-width="5.0e-3" stroke="#A8E5EE" fill="none" stroke-opacity="0.3"><polyline points="1.0,0.505 1.0,-0.505" /></g><g stroke-width="0.0" stroke="none" fill="#666666" fill-opacity="1.0" font-size="5.0e-2" text-anchor="middle"><text x="-1.0" y="0.60875">1</text></g><g stroke-width="0.0" stroke="none" fill="#666666" fill-opacity="1.0" font-size="5.0e-2" text-anchor="middle"><text x="-0.8" y="0.60875">2</text></g><g stroke-width="0.0" stroke="none" fill="#666666" fill-opacity="1.0" font-size="5.0e-2" text-anchor="middle"><text x="-0.6" y="0.60875">3</text></g><g stroke-width="0.0" stroke="none" fill="#666666" fill-opacity="1.0" font-size="5.0e-2" text-anchor="middle"><text x="-0.4" y="0.60875">4</text></g><g stroke-width="0.0" stroke="none" fill="#666666" fill-opacity="1.0" font-size="5.0e-2" text-anchor="middle"><text x="-0.19999999999999996" y="0.60875">5</text></g><g stroke-width="0.0" stroke="none" fill="#666666" fill-opacity="1.0" font-size="5.0e-2" text-anchor="middle"><text x="0.0" y="0.60875">6</text></g><g stroke-width="0.0" stroke="none" fill="#666666" fill-opacity="1.0" font-size="5.0e-2" text-anchor="middle"><text x="0.19999999999999996" y="0.60875">7</text></g><g stroke-width="0.0" stroke="none" fill="#666666" fill-opacity="1.0" font-size="5.0e-2" text-anchor="middle"><text x="0.3999999999999999" y="0.60875">8</text></g><g stroke-width="0.0" stroke="none" fill="#666666" fill-opacity="1.0" font-size="5.0e-2" text-anchor="middle"><text x="0.6000000000000001" y="0.60875">9</text></g><g stroke-width="0.0" stroke="none" fill="#666666" fill-opacity="1.0" font-size="5.0e-2" text-anchor="middle"><text x="0.8" y="0.60875">10</text></g><g stroke-width="0.0" stroke="none" fill="#666666" fill-opacity="1.0" font-size="5.0e-2" text-anchor="middle"><text x="1.0" y="0.60875">11</text></g><g stroke-width="0.0" stroke="#2C429D" fill="#5F0391" fill-opacity="1.0" stroke-opacity="0.4"><line stroke-width="5.0e-3" x1="-1.0" y1="0.5425" x2="-1.0" y2="0.5125" /><line stroke-width="5.0e-3" x1="-0.8" y1="0.5425" x2="-0.8" y2="0.5125" /><line stroke-width="5.0e-3" x1="-0.6" y1="0.5425" x2="-0.6" y2="0.5125" /><line stroke-width="5.0e-3" x1="-0.4" y1="0.5425" x2="-0.4" y2="0.5125" /><line stroke-width="5.0e-3" x1="-0.19999999999999996" y1="0.5425" x2="-0.19999999999999996" y2="0.5125" /><line stroke-width="5.0e-3" y1="0.5425" y2="0.5125" /><line stroke-width="5.0e-3" x1="0.19999999999999996" y1="0.5425" x2="0.19999999999999996" y2="0.5125" /><line stroke-width="5.0e-3" x1="0.3999999999999999" y1="0.5425" x2="0.3999999999999999" y2="0.5125" /><line stroke-width="5.0e-3" x1="0.6000000000000001" y1="0.5425" x2="0.6000000000000001" y2="0.5125" /><line stroke-width="5.0e-3" x1="0.8" y1="0.5425" x2="0.8" y2="0.5125" /><line stroke-width="5.0e-3" x1="1.0" y1="0.5425" x2="1.0" y2="0.5125" /></g><g stroke-width="0.0" stroke="#666666" fill="#5F0391" fill-opacity="0.5" stroke-opacity="0.0"><rect width="2.0" height="5.0000000000000044e-3" x="-1.0" y="0.5125" /></g><g stroke-width="5.0e-3" stroke="#666666" fill="#FF0000" fill-opacity="0.5" stroke-opacity="0.5"><rect width="0.18181818181818188" x="-1.0" y="0.5" /><rect width="0.18181818181818188" height="0.8596491228070169" x="-0.8181818181818181" y="-0.3596491228070169" /><rect width="0.18181818181818166" height="0.8245614035087717" x="-0.6363636363636362" y="-0.3245614035087717" /><rect width="0.181818181818182" height="0.7543859649122797" x="-0.4545454545454546" y="-0.2543859649122797" /><rect width="0.18181818181818166" height="0.7192982456140351" x="-0.2727272727272726" y="-0.2192982456140351" /><rect width="0.18181818181818177" height="0.596491228070175" x="-9.090909090909094e-2" y="-9.649122807017496e-2" /><rect width="0.18181818181818188" height="0.9649122807017535" x="9.090909090909083e-2" y="-0.4649122807017535" /><rect width="0.1818181818181821" height="0.9122807017543842" x="0.2727272727272727" y="-0.41228070175438425" /><rect width="0.18181818181818166" height="0.9824561403508772" x="0.4545454545454548" y="-0.48245614035087725" /><rect width="0.18181818181818166" height="1.0" x="0.6363636363636365" y="-0.5" /><rect width="0.18181818181818188" height="3.508771929824556e-2" x="0.8181818181818181" y="0.46491228070175444" /></g><g /></svg>