<svg viewBox="-1.2809678118201535 -0.68275 2.2924678118201536 1.5020159178324475" xmlns="http://www.w3.org/2000/svg" xmlns:xlink="http://www.w3.org/1999/xlink" version="1.1" width="600.0" height="400.0"><g stroke-width="0.0" stroke="none" fill="#000000" transform="translate(-0.13473390591007683, -0.57175)" fill-opacity="1.0" font-size="0.12" text-anchor="middle"><text transform="rotate(0.0, 0.0, -0.0)" x="0.0" y="-0.0">digitalised return</text></g><g stroke-width="0.0" stroke="#000000" fill="#666666" fill-opacity="3.0e-2" stroke-opacity="0.0"><rect width="1.9999999999999998" height="1.0" x="-1.0" y="-0.5" /></g><g stroke-width="5.0e-3" stroke="#A8E5EE" fill="none" stroke-opacity="0.3"><polyline points="-1.005,0.5 1.0049999999999997,0.5" /></g><g stroke-width="5.0e-3" stroke="#A8E5EE" fill="none" stroke-opacity="0.3"><polyline points="-1.005,0.33333333333333337 1.0049999999999997,0.33333333333333337" /></g><g stroke-width="5.0e-3" stroke="#A8E5EE" fill="none" stroke-opacity="0.3"><polyline points="-1.005,0.16666666666666669 1.0049999999999997,0.16666666666666669" /></g><g stroke-width="5.0e-3" stroke="#A8E5EE" fill="none" stroke-opacity="0.3"><polyline points="-1.005,-0.0 1.0049999999999997,-0.0" /></g><g stroke-width="5.0e-3" stroke="#A8E5EE" fill="none" stroke-opacity="0.3"><polyline points="-1.005,-0.16666666666666663 1.0049999999999997,-0.16666666666666663" /></g><g stroke-width="5.0e-3" stroke="#A8E5EE" fill="none" stroke-opacity="0.3"><polyline points="-1.005,-0.33333333333333337 1.0049999999999997,-0.33333333333333337" /></g><g stroke-width="5.0e-3" stroke="#A8E5EE" fill="none" stroke-opacity="0.3"><polyline points="-1.005,-0.5 1.0049999999999997,-0.5" /></g><g stroke-width="0.0" stroke="none" fill="#666666" fill-opacity="1.0" font-size="5.0e-2" text-anchor="end"><text x="-1.2309678118201535" y="0.5145">0</text></g><g stroke-width="0.0" stroke="none" fill="#666666" fill-opacity="1.0" font-size="5.0e-2" text-anchor="end"><text x="-1.2309678118201535" y="0.3478333333333334">2</text></g><g stroke-width="0.0" stroke="none" fill="#666666" fill-opacity="1.0" font-size="5.0e-2" text-anchor="end"><text x="-1.2309678118201535" y="0.1811666666666667">4</text></g><g stroke-width="0.0" stroke="none" fill="#666666" fill-opacity="1.0" font-size="5.0e-2" text-anchor="end"><text x="-1.2309678118201535" y="1.4499999999999999e-2">6</text></g><g stroke-width="0.0" stroke="none" fill="#666666" fill-opacity="1.0" font-size="5.0e-2" text-anchor="end"><text x="-1.2309678118201535" y="-0.15216666666666662">8</text></g><g stroke-width="0.0" stroke="none" fill="#666666" fill-opacity="1.0" font-size="5.0e-2" text-anchor="end"><text x="-1.2309678118201535" y="-0.31883333333333336">10</text></g><g stroke-width="0.0" stroke="none" fill="#666666" fill-opacity="1.0" font-size="5.0e-2" text-anchor="end"><text x="-1.2309678118201535" y="-0.4855">12</text></g><g stroke-width="0.0" stroke="#2C429D" fill="#5F0391" fill-opacity="1.0" stroke-opacity="0.4"><line stroke-width="5.0e-3" transform="rotate(-90.0, -1.2008928118201536, 0.5)" x1="-1.2008928118201536" y1="0.515" x2="-1.2008928118201536" y2="0.485" /><line stroke-width="5.0e-3" transform="rotate(-90.0, -1.2008928118201536, 0.33333333333333337)" x1="-1.2008928118201536" y1="0.3483333333333334" x2="-1.2008928118201536" y2="0.31833333333333336" /><line stroke-width="5.0e-3" transform="rotate(-90.0, -1.2008928118201536, 0.16666666666666669)" x1="-1.2008928118201536" y1="0.1816666666666667" x2="-1.2008928118201536" y2="0.15166666666666667" /><line stroke-width="5.0e-3" transform="rotate(-90.0, -1.2008928118201536, -0.0)" x1="-1.2008928118201536" y1="1.5e-2" x2="-1.2008928118201536" y2="-1.5e-2" /><line stroke-width="5.0e-3" transform="rotate(-90.0, -1.2008928118201536, -0.16666666666666663)" x1="-1.2008928118201536" y1="-0.15166666666666662" x2="-1.2008928118201536" y2="-0.18166666666666664" /><line stroke-width="5.0e-3" transform="rotate(-90.0, -1.2008928118201536, -0.33333333333333337)" x1="-1.2008928118201536" y1="-0.31833333333333336" x2="-1.2008928118201536" y2="-0.3483333333333334" /><line stroke-width="5.0e-3" transform="rotate(-90.0, -1.2008928118201536, -0.5)" x1="-1.2008928118201536" y1="-0.485" x2="-1.2008928118201536" y2="-0.515" /></g><g stroke-width="0.0" stroke="#666666" fill="#5F0391" fill-opacity="0.5" stroke-opacity="0.0"><rect width="4.999999999999893e-3" height="1.0" x="-1.1908928118201536" y="-0.5" /></g><g stroke-width="5.0e-3" stroke="#A8E5EE" fill="none" stroke-opacity="0.3"><polyline points="-1.0,0.505 -1.0,-0.505" /></g><g stroke-width="5.0e-3" stroke="#A8E5EE" fill="none" stroke-opacity="0.3"><polyline points="-0.8637274549098197,0.505 -0.8637274549098197,-0.505" /></g><g stroke-width="5.0e-3" stroke="#A8E5EE" fill="none" stroke-opacity="0.3"><polyline points="-0.6112224448897796,0.505 -0.6112224448897796,-0.505" /></g><g stroke-width="5.0e-3" stroke="#A8E5EE" fill="none" stroke-opacity="0.3"><polyline points="-0.3587174348697396,0.505 -0.3587174348697396,-0.505" /></g><g stroke-width="5.0e-3" stroke="#A8E5EE" fill="none" stroke-opacity="0.3"><polyline points="-0.1062124248496995,0.505 -0.1062124248496995,-0.505" /></g><g stroke-width="5.0e-3" stroke="#A8E5EE" fill="none" stroke-opacity="0.3"><polyline points="0.13827655310621223,0.505 0.13827655310621223,-0.505" /></g><g stroke-width="5.0e-3" stroke="#A8E5EE" fill="none" stroke-opacity="0.3"><polyline points="0.3947895791583165,0.505 0.3947895791583165,-0.505" /></g><g stroke-width="5.0e-3" stroke="#A8E5EE" fill="none" stroke-opacity="0.3"><polyline points="0.6472945891783566,0.505 0.6472945891783566,-0.505" /></g><g stroke-width="5.0e-3" stroke="#A8E5EE" fill="none" stroke-opacity="0.3"><polyline points="0.8997995991983965,0.505 0.8997995991983965,-0.505" /></g><g stroke-width="5.0e-3" stroke="#A8E5EE" fill="none" stroke-opacity="0.3"><polyline points="0.9999999999999998,0.505 0.9999999999999998,-0.505" /></g><g stroke-width="0.0" stroke="none" fill="#666666" fill-opacity="1.0" font-size="5.0e-2" text-anchor="end"><text transform="rotate(-45.0, -1.0, 0.6062500000000001)" x="-1.0" y="0.6062500000000001">10 Feb 2017</text></g><g stroke-width="0.0" stroke="none" fill="#666666" fill-opacity="1.0" font-size="5.0e-2" text-anchor="end"><text transform="rotate(-45.0, -0.8637274549098197, 0.6062500000000001)" x="-0.8637274549098197" y="0.6062500000000001">31 Mar 2017</text></g><g stroke-width="0.0" stroke="none" fill="#666666" fill-opacity="1.0" font-size="5.0e-2" text-anchor="end"><text transform="rotate(-45.0, -0.6112224448897796, 0.6062500000000001)" x="-0.6112224448897796" y="0.6062500000000001">30 Jun 2017</text></g><g stroke-width="0.0" stroke="none" fill="#666666" fill-opacity="1.0" font-size="5.0e-2" text-anchor="end"><text transform="rotate(-45.0, -0.3587174348697396, 0.6062500000000001)" x="-0.3587174348697396" y="0.6062500000000001">30 Sep 2017</text></g><g stroke-width="0.0" stroke="none" fill="#666666" fill-opacity="1.0" font-size="5.0e-2" text-anchor="end"><text transform="rotate(-45.0, -0.1062124248496995, 0.6062500000000001)" x="-0.1062124248496995" y="0.6062500000000001">31 Dec 2017</text></g><g stroke-width="0.0" stroke="none" fill="#666666" fill-opacity="1.0" font-size="5.0e-2" text-anchor="end"><text transform="rotate(-45.0, 0.13827655310621223, 0.6062500000000001)" x="0.13827655310621223" y="0.6062500000000001">31 Mar 2018</text></g><g stroke-width="0.0" stroke="none" fill="#666666" fill-opacity="1.0" font-size="5.0e-2" text-anchor="end"><text transform="rotate(-45.0, 0.3947895791583165, 0.6062500000000001)" x="0.3947895791583165" y="0.6062500000000001">30 Jun 2018</text></g><g stroke-width="0.0" stroke="none" fill="#666666" fill-opacity="1.0" font-size="5.0e-2" text-anchor="end"><text transform="rotate(-45.0, 0.6472945891783566, 0.6062500000000001)" x="0.6472945891783566" y="0.6062500000000001">30 Sep 2018</text></g><g stroke-width="0.0" stroke="none" fill="#666666" fill-opacity="1.0" font-size="5.0e-2" text-anchor="end"><text transform="rotate(-45.0, 0.8997995991983965, 0.6062500000000001)" x="0.8997995991983965" y="0.6062500000000001">31 Dec 2018</text></g><g stroke-width="0.0" stroke="none" fill="#666666" fill-opacity="1.0" font-size="5.0e-2" text-anchor="end"><text transform="rotate(-45.0, 0.9999999999999998, 0.6062500000000001)" x="0.9999999999999998" y="0.6062500000000001">06 Feb 2019</text></g><g stroke-width="0.0" stroke="#2C429D" fill="#5F0391" fill-opacity="1.0" stroke-opacity="0.4"><line stroke-width="5.0e-3" x1="-1.0" y1="0.54" x2="-1.0" y2="0.51" /><line stroke-width="5.0e-3" x1="-0.8637274549098197" y1="0.54" x2="-0.8637274549098197" y2="0.51" /><line stroke-width="5.0e-3" x1="-0.6112224448897796" y1="0.54" x2="-0.6112224448897796" y2="0.51" /><line stroke-width="5.0e-3" x1="-0.3587174348697396" y1="0.54" x2="-0.3587174348697396" y2="0.51" /><line stroke-width="5.0e-3" x1="-0.1062124248496995" y1="0.54" x2="-0.1062124248496995" y2="0.51" /><line stroke-width="5.0e-3" x1="0.13827655310621223" y1="0.54" x2="0.13827655310621223" y2="0.51" /><line stroke-width="5.0e-3" x1="0.3947895791583165" y1="0.54" x2="0.3947895791583165" y2="0.51" /><line stroke-width="5.0e-3" x1="0.6472945891783566" y1="0.54" x2="0.6472945891783566" y2="0.51" /><line stroke-width="5.0e-3" x1="0.8997995991983965" y1="0.54" x2="0.8997995991983965" y2="0.51" /><line stroke-width="5.0e-3" x1="0.9999999999999998" y1="0.54" x2="0.9999999999999998" y2="0.51" /></g><g stroke-width="0.0" stroke="#666666" fill="#5F0391" fill-opacity="0.5" stroke-opacity="0.0"><rect width="1.9999999999999998" height="5.0000000000000044e-3" x="-1.0" y="0.51" /></g><g stroke-width="3.0e-3" stroke="#2C429D" fill="#D99721" fill-opacity="0.8" stroke-opacity="0.4"><rect width="2.0000000000000018e-2" height="2.0000000000000018e-2" x="-1.01" y="-0.17666666666666664" /><rect width="2.0000000000000018e-2" height="2.0000000000000018e-2" x="-1.0059919839679359" y="-0.17666666666666664" /><rect width="2.0000000000000018e-2" height="2.0000000000000018e-2" x="-1.0019839679358717" y="-0.17666666666666664" /><rect width="2.0000000000000018e-2" height="2.0000000000000018e-2" x="-0.9979759519038076" y="-0.17666666666666664" /><rect width="2.0000000000000018e-2" height="2.0000000000000018e-2" x="-0.9939679358717435" y="0.15666666666666668" /><rect width="2.0000000000000018e-2" height="2.0e-2" x="-0.9899599198396793" y="-1.0e-2" /><rect width="2.0000000000000018e-2" height="2.0000000000000018e-2" x="-0.9859519038076152" y="-0.26" /><rect width="2.0000000000000018e-2" height="2.0000000000000018e-2" x="-0.9819438877755511" y="0.15666666666666668" /><rect width="2.0000000000000018e-2" height="2.0e-2" x="-0.977935871743487" y="-1.0e-2" /><rect width="2.0000000000000018e-2" height="2.0e-2" x="-0.9739278557114228" y="-1.0e-2" /><rect width="2.0000000000000018e-2" height="2.0e-2" x="-0.9699198396793587" y="-1.0e-2" /><rect width="2.0000000000000018e-2" height="2.0000000000000018e-2" x="-0.9659118236472946" y="0.24" /><rect width="2.0000000000000018e-2" height="2.0000000000000018e-2" x="-0.9619038076152304" y="-0.34333333333333327" /><rect width="2.0000000000000018e-2" height="2.0000000000000018e-2" x="-0.9578957915831663" y="0.32333333333333336" /><rect width="2.0000000000000018e-2" height="2.0e-2" x="-0.9538877755511023" y="-1.0e-2" /><rect width="2.0000000000000018e-2" height="2.0000000000000018e-2" x="-0.9498797595190381" y="0.24" /><rect width="2.0000000000000018e-2" height="2.0000000000000018e-2" x="-0.945871743486974" y="0.24" /><rect width="2.0000000000000018e-2" height="2.0000000000000018e-2" x="-0.9418637274549099" y="0.15666666666666668" /><rect width="2.0000000000000018e-2" height="2.0e-2" x="-0.9378557114228457" y="-1.0e-2" /><rect width="2.0000000000000018e-2" height="1.999999999999999e-2" x="-0.9338476953907816" y="-9.333333333333325e-2" /><rect width="2.0000000000000018e-2" height="2.0e-2" x="-0.9298396793587175" y="-1.0e-2" /><rect width="2.0000000000000018e-2" height="2.0000000000000018e-2" x="-0.9258316633266533" y="0.24" /><rect width="2.0000000000000018e-2" height="2.0000000000000018e-2" x="-0.9218236472945892" y="-0.26" /><rect width="2.0000000000000018e-2" height="2.0000000000000018e-2" x="-0.9178156312625251" y="0.15666666666666668" /><rect width="2.0000000000000018e-2" height="2.0000000000000018e-2" x="-0.913807615230461" y="0.15666666666666668" /><rect width="2.0000000000000018e-2" height="2.0000000000000018e-2" x="-0.9097995991983968" y="0.15666666666666668" /><rect width="2.0000000000000018e-2" height="2.0000000000000018e-2" x="-0.9057915831663327" y="0.4066666666666667" /><rect width="2.0000000000000018e-2" height="1.999999999999999e-2" x="-0.9017835671342685" y="-9.333333333333325e-2" /><rect width="2.0000000000000018e-2" height="2.0000000000000018e-2" x="-0.8977755511022044" y="0.15666666666666668" /><rect width="2.0000000000000018e-2" height="1.999999999999999e-2" x="-0.8937675350701403" y="7.333333333333338e-2" /><rect width="2.0000000000000018e-2" height="2.0000000000000018e-2" x="-0.8897595190380762" y="0.15666666666666668" /><rect width="2.0000000000000018e-2" height="2.0000000000000018e-2" x="-0.885751503006012" y="-0.26" /><rect width="2.0000000000000018e-2" height="2.0e-2" x="-0.8817434869739479" y="-1.0e-2" /><rect width="2.0000000000000018e-2" height="1.999999999999999e-2" x="-0.8777354709418838" y="-9.333333333333325e-2" /><rect width="2.0000000000000018e-2" height="2.0000000000000018e-2" x="-0.8737274549098196" y="0.24" /><rect width="2.0000000000000018e-2" height="2.0000000000000018e-2" x="-0.8697194388777555" y="0.15666666666666668" /><rect width="2.0000000000000018e-2" height="2.0e-2" x="-0.8657114228456915" y="-1.0e-2" /><rect width="2.0000000000000018e-2" height="2.0000000000000018e-2" x="-0.8617034068136273" y="0.24" /><rect width="2.0000000000000018e-2" height="1.999999999999999e-2" x="-0.8576953907815632" y="-9.333333333333325e-2" /><rect width="2.0000000000000018e-2" height="1.999999999999999e-2" x="-0.8536873747494991" y="7.333333333333338e-2" /><rect width="2.0000000000000018e-2" height="2.0e-2" x="-0.8496793587174349" y="-1.0e-2" /><rect width="2.0000000000000018e-2" height="2.0000000000000018e-2" x="-0.8456713426853708" y="0.15666666666666668" /><rect width="2.0000000000000018e-2" height="2.0000000000000018e-2" x="-0.8416633266533067" y="0.32333333333333336" /><rect width="2.0000000000000018e-2" height="2.0000000000000018e-2" x="-0.8376553106212425" y="0.32333333333333336" /><rect width="2.0000000000000018e-2" height="2.0000000000000018e-2" x="-0.8336472945891784" y="-0.26" /><rect width="2.0000000000000018e-2" height="2.0000000000000018e-2" x="-0.8296392785571143" y="0.24" /><rect width="2.0000000000000018e-2" height="2.0000000000000018e-2" x="-0.8256312625250501" y="0.15666666666666668" /><rect width="2.0000000000000018e-2" height="2.0000000000000018e-2" x="-0.821623246492986" y="-0.26" /><rect width="2.0000000000000018e-2" height="2.0000000000000018e-2" x="-0.8176152304609219" y="0.24" /><rect width="2.0000000000000018e-2" height="2.0000000000000018e-2" x="-0.8136072144288578" y="-0.34333333333333327" /><rect width="2.0000000000000018e-2" height="2.0000000000000018e-2" x="-0.8095991983967936" y="-0.26" /><rect width="2.0000000000000018e-2" height="1.999999999999999e-2" x="-0.8055911823647295" y="7.333333333333338e-2" /><rect width="2.0000000000000018e-2" height="2.0e-2" x="-0.8015831663326654" y="-1.0e-2" /><rect width="2.0000000000000018e-2" height="2.0000000000000018e-2" x="-0.7975751503006012" y="0.15666666666666668" /><rect width="2.0000000000000018e-2" height="1.999999999999999e-2" x="-0.7935671342685371" y="-9.333333333333325e-2" /><rect width="2.0000000000000018e-2" height="2.0e-2" x="-0.789559118236473" y="-1.0e-2" /><rect width="2.0000000000000018e-2" height="2.0000000000000018e-2" x="-0.7855511022044088" y="0.15666666666666668" /><rect width="2.0000000000000018e-2" height="2.0e-2" x="-0.7815430861723447" y="-1.0e-2" /><rect width="2.0000000000000018e-2" height="2.0000000000000018e-2" x="-0.7775350701402806" y="-0.17666666666666664" /><rect width="2.0000000000000018e-2" height="1.999999999999999e-2" x="-0.7735270541082164" y="7.333333333333338e-2" /><rect width="2.0000000000000018e-2" height="2.0000000000000018e-2" x="-0.7695190380761523" y="0.15666666666666668" /><rect width="2.0000000000000018e-2" height="2.0e-2" x="-0.7655110220440882" y="-1.0e-2" /><rect width="2.0000000000000018e-2" height="2.0000000000000018e-2" x="-0.761503006012024" y="0.24" /><rect width="2.0000000000000018e-2" height="2.0000000000000018e-2" x="-0.7574949899799599" y="0.15666666666666668" /><rect width="2.0000000000000018e-2" height="2.0000000000000018e-2" x="-0.7534869739478958" y="-0.17666666666666664" /><rect width="2.0000000000000018e-2" height="1.999999999999999e-2" x="-0.7494789579158316" y="7.333333333333338e-2" /><rect width="2.0000000000000018e-2" height="2.0000000000000018e-2" x="-0.7454709418837675" y="0.4066666666666667" /><rect width="2.0000000000000018e-2" height="2.0000000000000018e-2" x="-0.7414629258517034" y="-0.17666666666666664" /><rect width="2.0000000000000018e-2" height="2.0000000000000018e-2" x="-0.7374549098196392" y="-0.26" /><rect width="2.0000000000000018e-2" height="2.0000000000000018e-2" x="-0.7334468937875751" y="-0.17666666666666664" /><rect width="2.0000000000000018e-2" height="1.999999999999999e-2" x="-0.729438877755511" y="-9.333333333333325e-2" /><rect width="2.0000000000000018e-2" height="1.999999999999999e-2" x="-0.725430861723447" y="-9.333333333333325e-2" /><rect width="2.0000000000000018e-2" height="2.0000000000000018e-2" x="-0.7214228456913828" y="-0.17666666666666664" /><rect width="2.0000000000000018e-2" height="2.0e-2" x="-0.7174148296593187" y="-1.0e-2" /><rect width="2.0000000000000018e-2" height="2.0000000000000018e-2" x="-0.7134068136272546" y="0.15666666666666668" /><rect width="2.0000000000000018e-2" height="1.999999999999999e-2" x="-0.7093987975951904" y="7.333333333333338e-2" /><rect width="2.0000000000000018e-2" height="2.0000000000000018e-2" x="-0.7053907815631263" y="-0.26" /><rect width="2.0000000000000018e-2" height="2.0000000000000018e-2" x="-0.7013827655310622" y="-0.17666666666666664" /><rect width="2.0000000000000018e-2" height="2.0000000000000018e-2" x="-0.697374749498998" y="0.15666666666666668" /><rect width="2.0000000000000018e-2" height="2.0000000000000018e-2" x="-0.6933667334669339" y="0.24" /><rect width="2.0000000000000018e-2" height="1.999999999999999e-2" x="-0.6893587174348698" y="-9.333333333333325e-2" /><rect width="2.0000000000000018e-2" height="2.0e-2" x="-0.6853507014028056" y="-1.0e-2" /><rect width="2.0000000000000018e-2" height="1.999999999999999e-2" x="-0.6813426853707415" y="7.333333333333338e-2" /><rect width="2.0000000000000018e-2" height="2.0000000000000018e-2" x="-0.6773346693386774" y="0.15666666666666668" /><rect width="2.0000000000000018e-2" height="2.0000000000000018e-2" x="-0.6733266533066133" y="-0.17666666666666664" /><rect width="2.0000000000000018e-2" height="2.0000000000000018e-2" x="-0.6693186372745492" y="0.15666666666666668" /><rect width="2.0000000000000018e-2" height="2.0000000000000018e-2" x="-0.6653106212424851" y="0.24" /><rect width="2.0000000000000018e-2" height="2.0e-2" x="-0.661302605210421" y="-1.0e-2" /><rect width="2.0000000000000018e-2" height="2.0000000000000018e-2" x="-0.6572945891783568" y="-0.34333333333333327" /><rect width="2.0000000000000018e-2" height="2.0000000000000018e-2" x="-0.6532865731462927" y="0.4066666666666667" /><rect width="2.0000000000000018e-2" height="1.999999999999999e-2" x="-0.6492785571142285" y="7.333333333333338e-2" /><rect width="2.0000000000000018e-2" height="1.999999999999999e-2" x="-0.6452705410821644" y="7.333333333333338e-2" /><rect width="2.0000000000000018e-2" height="1.999999999999999e-2" x="-0.6412625250501003" y="-9.333333333333325e-2" /><rect width="2.0000000000000018e-2" height="2.0e-2" x="-0.6372545090180362" y="-1.0e-2" /><rect width="2.0000000000000018e-2" height="2.0000000000000018e-2" x="-0.633246492985972" y="0.4066666666666667" /><rect width="2.0000000000000018e-2" height="2.0000000000000018e-2" x="-0.6292384769539079" y="-0.34333333333333327" /><rect width="2.0000000000000018e-2" height="2.0000000000000018e-2" x="-0.6252304609218438" y="0.4066666666666667" /><rect width="2.0000000000000018e-2" height="1.999999999999999e-2" x="-0.6212224448897796" y="-9.333333333333325e-2" /><rect width="2.0000000000000018e-2" height="1.999999999999999e-2" x="-0.6172144288577155" y="-9.333333333333325e-2" /><rect width="2.0000000000000018e-2" height="1.999999999999999e-2" x="-0.6132064128256514" y="-9.333333333333325e-2" /><rect width="2.0000000000000018e-2" height="2.0000000000000018e-2" x="-0.6091983967935872" y="0.4066666666666667" /><rect width="2.0000000000000018e-2" height="2.0000000000000018e-2" x="-0.6051903807615231" y="-0.26" /><rect width="2.0000000000000018e-2" height="2.0e-2" x="-0.601182364729459" y="-1.0e-2" /><rect width="2.0000000000000018e-2" height="1.999999999999999e-2" x="-0.5971743486973948" y="7.333333333333338e-2" /><rect width="2.0000000000000018e-2" height="2.0000000000000018e-2" x="-0.5931663326653307" y="-0.26" /><rect width="2.0000000000000018e-2" height="1.999999999999999e-2" x="-0.5891583166332666" y="-9.333333333333325e-2" /><rect width="2.0000000000000018e-2" height="2.0000000000000018e-2" x="-0.5851503006012024" y="-0.17666666666666664" /><rect width="2.0000000000000018e-2" height="1.999999999999999e-2" x="-0.5811422845691383" y="7.333333333333338e-2" /><rect width="2.0000000000000018e-2" height="2.0e-2" x="-0.5771342685370742" y="-1.0e-2" /><rect width="2.0000000000000018e-2" height="2.0000000000000018e-2" x="-0.57312625250501" y="-0.26" /><rect width="2.0000000000000018e-2" height="1.999999999999999e-2" x="-0.5691182364729459" y="7.333333333333338e-2" /><rect width="2.0000000000000018e-2" height="1.999999999999999e-2" x="-0.5651102204408818" y="7.333333333333338e-2" /><rect width="2.0000000000000018e-2" height="2.0000000000000018e-2" x="-0.5611022044088176" y="0.15666666666666668" /><rect width="2.0000000000000018e-2" height="1.999999999999999e-2" x="-0.5570941883767535" y="-9.333333333333325e-2" /><rect width="2.0000000000000018e-2" height="2.0e-2" x="-0.5530861723446894" y="-1.0e-2" /><rect width="2.0000000000000018e-2" height="2.0000000000000018e-2" x="-0.5490781563126252" y="0.15666666666666668" /><rect width="2.0000000000000018e-2" height="2.0000000000000018e-2" x="-0.5450701402805611" y="0.15666666666666668" /><rect width="2.0000000000000018e-2" height="1.999999999999999e-2" x="-0.541062124248497" y="7.333333333333338e-2" /><rect width="2.0000000000000018e-2" height="1.999999999999999e-2" x="-0.5370541082164328" y="-9.333333333333325e-2" /><rect width="2.0000000000000018e-2" height="2.0e-2" x="-0.5330460921843687" y="-1.0e-2" /><rect width="2.0000000000000018e-2" height="2.0000000000000018e-2" x="-0.5290380761523046" y="0.24" /><rect width="2.0000000000000018e-2" height="1.999999999999999e-2" x="-0.5250300601202404" y="-9.333333333333325e-2" /><rect width="2.0000000000000018e-2" height="1.999999999999999e-2" x="-0.5210220440881764" y="-9.333333333333325e-2" /><rect width="2.0000000000000018e-2" height="2.0000000000000018e-2" x="-0.5170140280561123" y="0.24" /><rect width="2.0000000000000018e-2" height="1.999999999999999e-2" x="-0.5130060120240482" y="7.333333333333338e-2" /><rect width="2.0000000000000018e-2" height="2.0000000000000018e-2" x="-0.508997995991984" y="0.4066666666666667" /><rect width="2.0000000000000018e-2" height="1.999999999999999e-2" x="-0.5049899799599199" y="-9.333333333333325e-2" /><rect width="2.0000000000000018e-2" height="2.0000000000000018e-2" x="-0.5009819639278558" y="-0.34333333333333327" /><rect width="2.0000000000000018e-2" height="1.999999999999999e-2" x="-0.49697394789579163" y="7.333333333333338e-2" /><rect width="2.0000000000000018e-2" height="1.999999999999999e-2" x="-0.4929659318637275" y="-9.333333333333325e-2" /><rect width="2.0000000000000018e-2" height="2.0000000000000018e-2" x="-0.48895791583166337" y="0.4066666666666667" /><rect width="2.0000000000000018e-2" height="2.0000000000000018e-2" x="-0.48494989979959924" y="0.24" /><rect width="2.0000000000000018e-2" height="2.0e-2" x="-0.4809418837675351" y="-1.0e-2" /><rect width="2.0000000000000018e-2" height="2.0000000000000018e-2" x="-0.476933867735471" y="-0.34333333333333327" /><rect width="2.0000000000000018e-2" height="2.0000000000000018e-2" x="-0.47292585170340684" y="0.32333333333333336" /><rect width="2.0000000000000018e-2" height="2.0000000000000018e-2" x="-0.4689178356713427" y="0.24" /><rect width="2.0000000000000018e-2" height="1.999999999999999e-2" x="-0.4649098196392786" y="-9.333333333333325e-2" /><rect width="2.0000000000000018e-2" height="2.0e-2" x="-0.46090180360721444" y="-1.0e-2" /><rect width="2.0000000000000018e-2" height="2.0e-2" x="-0.4568937875751503" y="-1.0e-2" /><rect width="2.0000000000000018e-2" height="2.0000000000000018e-2" x="-0.4528857715430862" y="-0.26" /><rect width="2.0000000000000018e-2" height="2.0000000000000018e-2" x="-0.44887775551102205" y="-0.26" /><rect width="2.0000000000000018e-2" height="1.999999999999999e-2" x="-0.444869739478958" y="-9.333333333333325e-2" /><rect width="2.0000000000000018e-2" height="2.0000000000000018e-2" x="-0.4408617234468939" y="0.4066666666666667" /><rect width="2.0000000000000018e-2" height="2.0000000000000018e-2" x="-0.43685370741482976" y="-0.17666666666666664" /><rect width="2.0000000000000018e-2" height="1.999999999999999e-2" x="-0.43284569138276563" y="7.333333333333338e-2" /><rect width="2.0000000000000018e-2" height="2.0000000000000018e-2" x="-0.4288376753507015" y="0.24" /><rect width="2.0000000000000018e-2" height="2.0000000000000018e-2" x="-0.42482965931863736" y="-0.34333333333333327" /><rect width="2.0000000000000018e-2" height="2.0000000000000018e-2" x="-0.42082164328657323" y="-0.17666666666666664" /><rect width="2.0000000000000018e-2" height="2.0e-2" x="-0.4168136272545091" y="-1.0e-2" /><rect width="2.0000000000000018e-2" height="2.0000000000000018e-2" x="-0.41280561122244497" y="0.15666666666666668" /><rect width="2.0000000000000018e-2" height="1.999999999999999e-2" x="-0.40879759519038084" y="-9.333333333333325e-2" /><rect width="2.0000000000000018e-2" height="1.999999999999999e-2" x="-0.4047895791583167" y="-9.333333333333325e-2" /><rect width="2.0000000000000018e-2" height="2.0e-2" x="-0.40078156312625257" y="-1.0e-2" /><rect width="2.0000000000000018e-2" height="2.0e-2" x="-0.39677354709418844" y="-1.0e-2" /><rect width="2.0000000000000018e-2" height="2.0000000000000018e-2" x="-0.3927655310621243" y="0.32333333333333336" /><rect width="2.0000000000000018e-2" height="2.0e-2" x="-0.3887575150300602" y="-1.0e-2" /><rect width="2.0000000000000018e-2" height="2.0000000000000018e-2" x="-0.38474949899799604" y="0.24" /><rect width="2.0000000000000018e-2" height="1.999999999999999e-2" x="-0.3807414829659319" y="7.333333333333338e-2" /><rect width="2.0000000000000018e-2" height="2.0000000000000018e-2" x="-0.3767334669338678" y="-0.17666666666666664" /><rect width="2.0000000000000018e-2" height="1.999999999999999e-2" x="-0.37272545090180365" y="-9.333333333333325e-2" /><rect width="2.0000000000000018e-2" height="2.0000000000000018e-2" x="-0.3687174348697395" y="-0.17666666666666664" /><rect width="2.0000000000000018e-2" height="2.0000000000000018e-2" x="-0.3647094188376754" y="-0.17666666666666664" /><rect width="2.0000000000000018e-2" height="1.999999999999999e-2" x="-0.36070140280561125" y="-9.333333333333325e-2" /><rect width="2.0000000000000018e-2" height="2.0e-2" x="-0.3566933867735471" y="-1.0e-2" /><rect width="2.0000000000000018e-2" height="2.0000000000000018e-2" x="-0.352685370741483" y="-0.26" /><rect width="2.0000000000000018e-2" height="2.0000000000000018e-2" x="-0.34867735470941885" y="0.15666666666666668" /><rect width="2.0000000000000018e-2" height="2.0000000000000018e-2" x="-0.3446693386773547" y="0.24" /><rect width="2.0000000000000018e-2" height="1.999999999999999e-2" x="-0.3406613226452907" y="-9.333333333333325e-2" /><rect width="2.0000000000000018e-2" height="1.999999999999999e-2" x="-0.33665330661322657" y="-9.333333333333325e-2" /><rect width="2.0000000000000018e-2" height="2.0000000000000018e-2" x="-0.33264529058116243" y="0.24" /><rect width="2.0000000000000018e-2" height="2.0e-2" x="-0.3286372745490983" y="-1.0e-2" /><rect width="2.0000000000000018e-2" height="1.999999999999999e-2" x="-0.32462925851703417" y="-9.333333333333325e-2" /><rect width="2.0000000000000018e-2" height="2.0e-2" x="-0.32062124248497004" y="-1.0e-2" /><rect width="2.0000000000000018e-2" height="2.0e-2" x="-0.3166132264529059" y="-1.0e-2" /><rect width="2.0000000000000018e-2" height="1.999999999999999e-2" x="-0.3126052104208418" y="7.333333333333338e-2" /><rect width="2.0000000000000018e-2" height="2.0000000000000018e-2" x="-0.30859719438877764" y="-0.26" /><rect width="2.0000000000000018e-2" height="2.0000000000000018e-2" x="-0.3045891783567135" y="0.32333333333333336" /><rect width="2.0000000000000018e-2" height="1.999999999999999e-2" x="-0.3005811623246494" y="-9.333333333333325e-2" /><rect width="2.0000000000000018e-2" height="2.0000000000000018e-2" x="-0.29657314629258524" y="0.32333333333333336" /><rect width="2.0000000000000018e-2" height="2.0e-2" x="-0.2925651302605211" y="-1.0e-2" /><rect width="2.0000000000000018e-2" height="2.0000000000000018e-2" x="-0.288557114228457" y="-0.34333333333333327" /><rect width="2.0000000000000018e-2" height="2.0000000000000018e-2" x="-0.28454909819639285" y="0.32333333333333336" /><rect width="2.0000000000000018e-2" height="2.0e-2" x="-0.2805410821643287" y="-1.0e-2" /><rect width="2.0000000000000018e-2" height="1.999999999999999e-2" x="-0.2765330661322646" y="-9.333333333333325e-2" /><rect width="2.0000000000000018e-2" height="1.999999999999999e-2" x="-0.27252505010020045" y="7.333333333333338e-2" /><rect width="2.0000000000000018e-2" height="2.0000000000000018e-2" x="-0.2685170340681363" y="-0.17666666666666664" /><rect width="2.0000000000000018e-2" height="2.0e-2" x="-0.2645090180360722" y="-1.0e-2" /><rect width="2.0000000000000018e-2" height="1.999999999999999e-2" x="-0.26050100200400805" y="7.333333333333338e-2" /><rect width="2.0000000000000018e-2" height="1.999999999999999e-2" x="-0.2564929859719439" y="-9.333333333333325e-2" /><rect width="2.0000000000000018e-2" height="2.0000000000000018e-2" x="-0.2524849699398798" y="0.32333333333333336" /><rect width="2.0000000000000018e-2" height="2.0000000000000018e-2" x="-0.24847695390781566" y="0.15666666666666668" /><rect width="2.0000000000000018e-2" height="2.0e-2" x="-0.24446893787575152" y="-1.0e-2" /><rect width="2.0000000000000018e-2" height="2.0000000000000018e-2" x="-0.2404609218436875" y="0.24" /><rect width="2.0000000000000018e-2" height="2.0000000000000018e-2" x="-0.23645290581162337" y="0.4066666666666667" /><rect width="2.0000000000000018e-2" height="2.0000000000000018e-2" x="-0.23244488977955924" y="-0.34333333333333327" /><rect width="2.0000000000000018e-2" height="2.0000000000000018e-2" x="-0.2284368737474951" y="0.32333333333333336" /><rect width="2.0000000000000018e-2" height="1.999999999999999e-2" x="-0.22442885771543097" y="-9.333333333333325e-2" /><rect width="2.0000000000000018e-2" height="2.0000000000000018e-2" x="-0.22042084168336684" y="-0.26" /><rect width="2.0000000000000018e-2" height="2.0000000000000018e-2" x="-0.2164128256513027" y="0.15666666666666668" /><rect width="2.0000000000000018e-2" height="1.999999999999999e-2" x="-0.21240480961923858" y="-9.333333333333325e-2" /><rect width="2.0000000000000018e-2" height="1.999999999999999e-2" x="-0.20839679358717444" y="7.333333333333338e-2" /><rect width="2.0000000000000018e-2" height="2.0000000000000018e-2" x="-0.2043887775551103" y="-0.34333333333333327" /><rect width="2.0000000000000018e-2" height="1.999999999999999e-2" x="-0.20038076152304618" y="7.333333333333338e-2" /><rect width="2.0000000000000018e-2" height="2.0000000000000018e-2" x="-0.19637274549098205" y="-0.34333333333333327" /><rect width="2.0000000000000018e-2" height="2.0000000000000018e-2" x="-0.19236472945891792" y="0.24" /><rect width="2.0000000000000018e-2" height="2.0000000000000018e-2" x="-0.18835671342685378" y="0.15666666666666668" /><rect width="2.0000000000000018e-2" height="2.0000000000000018e-2" x="-0.18434869739478965" y="0.32333333333333336" /><rect width="2.0000000000000018e-2" height="1.999999999999999e-2" x="-0.18034068136272552" y="7.333333333333338e-2" /><rect width="2.0000000000000018e-2" height="2.0000000000000018e-2" x="-0.1763326653306614" y="-0.17666666666666664" /><rect width="2.0000000000000018e-2" height="2.0000000000000018e-2" x="-0.17232464929859725" y="-0.26" /><rect width="2.0000000000000018e-2" height="2.0000000000000018e-2" x="-0.16831663326653312" y="-0.17666666666666664" /><rect width="2.0000000000000018e-2" height="1.999999999999999e-2" x="-0.164308617234469" y="-9.333333333333325e-2" /><rect width="2.0000000000000018e-2" height="2.0000000000000018e-2" x="-0.16030060120240486" y="0.15666666666666668" /><rect width="2.0000000000000018e-2" height="2.0000000000000018e-2" x="-0.15629258517034073" y="0.32333333333333336" /><rect width="2.0000000000000018e-2" height="2.0000000000000018e-2" x="-0.1522845691382766" y="-0.34333333333333327" /><rect width="2.0000000000000018e-2" height="2.0000000000000018e-2" x="-0.14827655310621246" y="-0.26" /><rect width="2.0000000000000004e-2" height="2.0000000000000018e-2" x="-0.14426853707414833" y="0.32333333333333336" /><rect width="2.0000000000000004e-2" height="2.0000000000000018e-2" x="-0.1402605210420842" y="0.15666666666666668" /><rect width="2.0000000000000004e-2" height="1.999999999999999e-2" x="-0.13625250501002018" y="-9.333333333333325e-2" /><rect width="2.0000000000000004e-2" height="2.0000000000000018e-2" x="-0.13224448897795604" y="0.15666666666666668" /><rect width="2.0000000000000004e-2" height="2.0000000000000018e-2" x="-0.1282364729458919" y="0.15666666666666668" /><rect width="1.999999999999999e-2" height="2.0e-2" x="-0.12422845691382776" y="-1.0e-2" /><rect width="1.999999999999999e-2" height="1.999999999999999e-2" x="-0.12022044088176363" y="-9.333333333333325e-2" /><rect width="1.999999999999999e-2" height="2.0000000000000018e-2" x="-0.1162124248496995" y="0.4066666666666667" /><rect width="1.999999999999999e-2" height="2.0000000000000018e-2" x="-0.11220440881763537" y="-0.34333333333333327" /><rect width="1.999999999999999e-2" height="2.0000000000000018e-2" x="-0.10819639278557124" y="-0.26" /><rect width="1.999999999999999e-2" height="2.0000000000000018e-2" x="-0.1041883767535071" y="-0.17666666666666664" /><rect width="1.999999999999999e-2" height="2.0000000000000018e-2" x="-0.10018036072144297" y="-0.26" /><rect width="1.999999999999999e-2" height="1.999999999999999e-2" x="-9.617234468937884e-2" y="-9.333333333333325e-2" /><rect width="1.999999999999999e-2" height="2.0e-2" x="-9.21643286573147e-2" y="-1.0e-2" /><rect width="1.999999999999999e-2" height="2.0000000000000018e-2" x="-8.815631262525057e-2" y="0.15666666666666668" /><rect width="1.999999999999999e-2" height="2.0000000000000018e-2" x="-8.414829659318644e-2" y="-0.26" /><rect width="1.9999999999999997e-2" height="2.0000000000000018e-2" x="-8.014028056112231e-2" y="-0.26" /><rect width="1.9999999999999997e-2" height="2.0000000000000018e-2" x="-7.613226452905818e-2" y="0.32333333333333336" /><rect width="1.9999999999999997e-2" height="2.0000000000000018e-2" x="-7.212424849699405e-2" y="-0.34333333333333327" /><rect width="1.9999999999999997e-2" height="2.0000000000000018e-2" x="-6.811623246492991e-2" y="0.24" /><rect width="1.9999999999999997e-2" height="2.0000000000000018e-2" x="-6.410821643286578e-2" y="-0.17666666666666664" /><rect width="2.0000000000000004e-2" height="2.0000000000000018e-2" x="-6.0100200400801655e-2" y="-0.34333333333333327" /><rect width="2.0000000000000004e-2" height="1.999999999999999e-2" x="-5.609218436873752e-2" y="-9.333333333333325e-2" /><rect width="2.0000000000000004e-2" height="2.0000000000000018e-2" x="-5.208416833667339e-2" y="0.15666666666666668" /><rect width="2.0000000000000004e-2" height="1.999999999999999e-2" x="-4.807615230460926e-2" y="7.333333333333338e-2" /><rect width="2.0000000000000004e-2" height="2.0000000000000018e-2" x="-4.4068136272545126e-2" y="-0.34333333333333327" /><rect width="2.0000000000000004e-2" height="2.0000000000000018e-2" x="-4.0060120240480994e-2" y="0.4066666666666667" /><rect width="2.0000000000000004e-2" height="2.0000000000000018e-2" x="-3.605210420841686e-2" y="0.4066666666666667" /><rect width="2.0000000000000004e-2" height="1.999999999999999e-2" x="-3.204408817635284e-2" y="7.333333333333338e-2" /><rect width="2.0000000000000004e-2" height="2.0000000000000018e-2" x="-2.8036072144288708e-2" y="0.15666666666666668" /><rect width="2.0000000000000004e-2" height="2.0000000000000018e-2" x="-2.4028056112224576e-2" y="0.4066666666666667" /><rect width="2.0000000000000004e-2" height="2.0000000000000018e-2" x="-2.0020040080160444e-2" y="0.4066666666666667" /><rect width="2.0000000000000004e-2" height="2.0000000000000018e-2" x="-1.601202404809631e-2" y="-0.34333333333333327" /><rect width="2.0e-2" height="2.0000000000000018e-2" x="-1.2004008016032177e-2" y="0.32333333333333336" /><rect width="2.0e-2" height="2.0000000000000018e-2" x="-7.995991983968045e-3" y="0.4066666666666667" /><rect width="2.0000000000000004e-2" height="2.0000000000000018e-2" x="-3.987975951903913e-3" y="-0.34333333333333327" /><rect width="2.0000000000000004e-2" height="2.0000000000000018e-2" x="2.0040080160219423e-5" y="-0.34333333333333327" /><rect width="2.0000000000000004e-2" height="2.0000000000000018e-2" x="4.028056112224352e-3" y="-0.17666666666666664" /><rect width="2.0000000000000004e-2" height="2.0000000000000018e-2" x="8.036072144288484e-3" y="-0.34333333333333327" /><rect width="2.0000000000000004e-2" height="2.0000000000000018e-2" x="1.2044088176352616e-2" y="-0.34333333333333327" /><rect width="2.0000000000000004e-2" height="1.999999999999999e-2" x="1.6052104208416747e-2" y="7.333333333333338e-2" /><rect width="2.0000000000000004e-2" height="2.0000000000000018e-2" x="2.006012024048088e-2" y="0.4066666666666667" /><rect width="2.0000000000000004e-2" height="2.0000000000000018e-2" x="2.406813627254501e-2" y="0.4066666666666667" /><rect width="2.0000000000000004e-2" height="2.0e-2" x="2.8076152304609144e-2" y="-1.0e-2" /><rect width="2.0000000000000004e-2" height="2.0000000000000018e-2" x="3.2084168336673276e-2" y="-0.34333333333333327" /><rect width="2.0000000000000004e-2" height="2.0000000000000018e-2" x="3.609218436873741e-2" y="-0.34333333333333327" /><rect width="2.0000000000000004e-2" height="2.0000000000000018e-2" x="4.010020040080154e-2" y="0.4066666666666667" /><rect width="1.9999999999999997e-2" height="2.0000000000000018e-2" x="4.410821643286567e-2" y="0.4066666666666667" /><rect width="1.9999999999999997e-2" height="2.0000000000000018e-2" x="4.8116232464929805e-2" y="0.4066666666666667" /><rect width="1.9999999999999997e-2" height="2.0000000000000018e-2" x="5.212424849699394e-2" y="-0.26" /><rect width="1.9999999999999997e-2" height="2.0000000000000018e-2" x="5.613226452905807e-2" y="-0.34333333333333327" /><rect width="1.9999999999999997e-2" height="1.999999999999999e-2" x="6.01402805611222e-2" y="-9.333333333333325e-2" /><rect width="1.999999999999999e-2" height="2.0000000000000018e-2" x="6.414829659318634e-2" y="0.15666666666666668" /><rect width="1.999999999999999e-2" height="2.0000000000000018e-2" x="6.815631262525047e-2" y="-0.17666666666666664" /><rect width="1.999999999999999e-2" height="2.0000000000000018e-2" x="7.21643286573146e-2" y="-0.34333333333333327" /><rect width="1.999999999999999e-2" height="2.0000000000000018e-2" x="7.617234468937874e-2" y="0.24" /><rect width="1.999999999999999e-2" height="2.0000000000000018e-2" x="8.018036072144287e-2" y="0.4066666666666667" /><rect width="1.999999999999999e-2" height="2.0000000000000018e-2" x="8.4188376753507e-2" y="0.32333333333333336" /><rect width="1.999999999999999e-2" height="2.0000000000000018e-2" x="8.819639278557113e-2" y="0.15666666666666668" /><rect width="1.999999999999999e-2" height="1.999999999999999e-2" x="9.220440881763527e-2" y="-9.333333333333325e-2" /><rect width="1.999999999999999e-2" height="2.0000000000000018e-2" x="9.62124248496994e-2" y="0.4066666666666667" /><rect width="1.999999999999999e-2" height="2.0e-2" x="0.10022044088176353" y="-1.0e-2" /><rect width="1.999999999999999e-2" height="2.0000000000000018e-2" x="0.10422845691382766" y="0.24" /><rect width="2.0000000000000004e-2" height="2.0000000000000018e-2" x="0.1082364729458918" y="0.4066666666666667" /><rect width="2.0000000000000004e-2" height="2.0000000000000018e-2" x="0.11224448897795593" y="0.4066666666666667" /><rect width="2.0000000000000004e-2" height="2.0000000000000018e-2" x="0.11625250501002006" y="-0.34333333333333327" /><rect width="2.0000000000000004e-2" height="2.0000000000000018e-2" x="0.12026052104208397" y="0.4066666666666667" /><rect width="2.0000000000000004e-2" height="2.0000000000000018e-2" x="0.1242685370741481" y="0.24" /><rect width="2.0000000000000018e-2" height="2.0000000000000018e-2" x="0.12827655310621222" y="-0.34333333333333327" /><rect width="2.0000000000000018e-2" height="2.0000000000000018e-2" x="0.13228456913827635" y="0.4066666666666667" /><rect width="2.0000000000000018e-2" height="2.0000000000000018e-2" x="0.13629258517034049" y="-0.34333333333333327" /><rect width="2.0000000000000018e-2" height="2.0000000000000018e-2" x="0.14030060120240462" y="-0.34333333333333327" /><rect width="2.0000000000000018e-2" height="2.0000000000000018e-2" x="0.14430861723446875" y="-0.26" /><rect width="2.0000000000000018e-2" height="2.0000000000000018e-2" x="0.14831663326653288" y="0.4066666666666667" /><rect width="2.0000000000000018e-2" height="2.0000000000000018e-2" x="0.15232464929859701" y="-0.17666666666666664" /><rect width="2.0000000000000018e-2" height="2.0000000000000018e-2" x="0.15633266533066115" y="-0.34333333333333327" /><rect width="2.0000000000000018e-2" height="2.0000000000000018e-2" x="0.16034068136272528" y="0.32333333333333336" /><rect width="2.0000000000000018e-2" height="2.0000000000000018e-2" x="0.1643486973947894" y="-0.26" /><rect width="2.0000000000000018e-2" height="2.0000000000000018e-2" x="0.16835671342685354" y="0.24" /><rect width="2.0000000000000018e-2" height="2.0000000000000018e-2" x="0.17236472945891768" y="-0.26" /><rect width="2.0000000000000018e-2" height="2.0000000000000018e-2" x="0.1763727454909818" y="-0.34333333333333327" /><rect width="2.0000000000000018e-2" height="2.0e-2" x="0.18038076152304594" y="-1.0e-2" /><rect width="2.0000000000000018e-2" height="2.0000000000000018e-2" x="0.18438877755511007" y="0.32333333333333336" /><rect width="2.0000000000000018e-2" height="2.0000000000000018e-2" x="0.1883967935871742" y="0.4066666666666667" /><rect width="2.0000000000000018e-2" height="1.999999999999999e-2" x="0.19240480961923834" y="7.333333333333338e-2" /><rect width="2.0000000000000018e-2" height="2.0000000000000018e-2" x="0.19641282565130247" y="0.4066666666666667" /><rect width="2.0000000000000018e-2" height="1.999999999999999e-2" x="0.2004208416833666" y="-9.333333333333325e-2" /><rect width="2.0000000000000018e-2" height="2.0000000000000018e-2" x="0.20442885771543073" y="-0.34333333333333327" /><rect width="2.0000000000000018e-2" height="2.0e-2" x="0.20843687374749487" y="-1.0e-2" /><rect width="2.0000000000000018e-2" height="2.0000000000000018e-2" x="0.212444889779559" y="0.4066666666666667" /><rect width="2.0000000000000018e-2" height="1.999999999999999e-2" x="0.21645290581162313" y="-9.333333333333325e-2" /><rect width="2.0000000000000018e-2" height="2.0000000000000018e-2" x="0.22046092184368726" y="0.32333333333333336" /><rect width="2.0000000000000018e-2" height="2.0000000000000018e-2" x="0.2244689378757514" y="0.24" /><rect width="2.0000000000000018e-2" height="2.0000000000000018e-2" x="0.22847695390781553" y="-0.34333333333333327" /><rect width="2.0000000000000018e-2" height="2.0000000000000018e-2" x="0.23248496993987966" y="-0.17666666666666664" /><rect width="2.0000000000000018e-2" height="1.999999999999999e-2" x="0.2364929859719438" y="7.333333333333338e-2" /><rect width="2.0000000000000018e-2" height="2.0000000000000018e-2" x="0.24050100200400792" y="-0.34333333333333327" /><rect width="2.0000000000000018e-2" height="2.0000000000000018e-2" x="0.24450901803607206" y="-0.26" /><rect width="2.0000000000000018e-2" height="1.999999999999999e-2" x="0.2485170340681362" y="-9.333333333333325e-2" /><rect width="2.0000000000000018e-2" height="2.0e-2" x="0.2525250501002003" y="-1.0e-2" /><rect width="2.0000000000000018e-2" height="2.0000000000000018e-2" x="0.25653306613226445" y="0.32333333333333336" /><rect width="2.0000000000000018e-2" height="2.0000000000000018e-2" x="0.2605410821643286" y="-0.17666666666666664" /><rect width="2.0000000000000018e-2" height="2.0000000000000018e-2" x="0.2645490981963927" y="0.15666666666666668" /><rect width="2.0000000000000018e-2" height="2.0000000000000018e-2" x="0.26855711422845685" y="0.24" /><rect width="2.0000000000000018e-2" height="2.0000000000000018e-2" x="0.272565130260521" y="-0.26" /><rect width="2.0000000000000018e-2" height="2.0000000000000018e-2" x="0.2765731462925851" y="0.24" /><rect width="2.0000000000000018e-2" height="2.0000000000000018e-2" x="0.28058116232464925" y="-0.17666666666666664" /><rect width="2.0000000000000018e-2" height="2.0000000000000018e-2" x="0.2845891783567134" y="0.24" /><rect width="2.0000000000000018e-2" height="2.0000000000000018e-2" x="0.2885971943887775" y="0.24" /><rect width="2.0000000000000018e-2" height="2.0000000000000018e-2" x="0.29260521042084164" y="0.4066666666666667" /><rect width="2.0000000000000018e-2" height="2.0000000000000018e-2" x="0.2966132264529058" y="-0.34333333333333327" /><rect width="2.0000000000000018e-2" height="2.0000000000000018e-2" x="0.3006212424849699" y="0.32333333333333336" /><rect width="2.0000000000000018e-2" height="2.0000000000000018e-2" x="0.30462925851703404" y="-0.34333333333333327" /><rect width="2.0000000000000018e-2" height="2.0000000000000018e-2" x="0.3086372745490982" y="-0.17666666666666664" /><rect width="2.0000000000000018e-2" height="2.0e-2" x="0.3126452905811623" y="-1.0e-2" /><rect width="2.0000000000000018e-2" height="2.0000000000000018e-2" x="0.31665330661322644" y="-0.26" /><rect width="2.0000000000000018e-2" height="2.0000000000000018e-2" x="0.32066132264529057" y="0.15666666666666668" /><rect width="2.0000000000000018e-2" height="1.999999999999999e-2" x="0.3246693386773545" y="-9.333333333333325e-2" /><rect width="2.0000000000000018e-2" height="2.0e-2" x="0.3286773547094186" y="-1.0e-2" /><rect width="2.0000000000000018e-2" height="1.999999999999999e-2" x="0.33268537074148274" y="-9.333333333333325e-2" /><rect width="2.0000000000000018e-2" height="2.0000000000000018e-2" x="0.3366933867735469" y="0.32333333333333336" /><rect width="2.0000000000000018e-2" height="1.999999999999999e-2" x="0.340701402805611" y="-9.333333333333325e-2" /><rect width="2.0000000000000018e-2" height="2.0000000000000018e-2" x="0.34470941883767514" y="0.15666666666666668" /><rect width="2.0000000000000018e-2" height="2.0000000000000018e-2" x="0.3487174348697393" y="0.24" /><rect width="2.0000000000000018e-2" height="2.0000000000000018e-2" x="0.3527254509018034" y="0.32333333333333336" /><rect width="2.0000000000000018e-2" height="1.999999999999999e-2" x="0.35673346693386754" y="-9.333333333333325e-2" /><rect width="2.0000000000000018e-2" height="2.0000000000000018e-2" x="0.36074148296593167" y="0.32333333333333336" /><rect width="2.0000000000000018e-2" height="1.999999999999999e-2" x="0.3647494989979958" y="-9.333333333333325e-2" /><rect width="2.0000000000000018e-2" height="2.0000000000000018e-2" x="0.36875751503005993" y="0.4066666666666667" /><rect width="2.0000000000000018e-2" height="1.999999999999999e-2" x="0.37276553106212407" y="-9.333333333333325e-2" /><rect width="2.0000000000000018e-2" height="2.0000000000000018e-2" x="0.3767735470941882" y="0.4066666666666667" /><rect width="2.0000000000000018e-2" height="2.0000000000000018e-2" x="0.38078156312625233" y="-0.26" /><rect width="2.0000000000000018e-2" height="2.0e-2" x="0.38478957915831646" y="-1.0e-2" /><rect width="2.0000000000000018e-2" height="2.0000000000000018e-2" x="0.3887975951903806" y="-0.17666666666666664" /><rect width="2.0000000000000018e-2" height="2.0000000000000018e-2" x="0.39280561122244473" y="0.32333333333333336" /><rect width="2.0000000000000018e-2" height="2.0000000000000018e-2" x="0.39681362725450886" y="-0.26" /><rect width="2.0000000000000018e-2" height="2.0000000000000018e-2" x="0.400821643286573" y="-0.26" /><rect width="2.0000000000000018e-2" height="2.0000000000000018e-2" x="0.4048296593186371" y="-0.26" /><rect width="2.0000000000000018e-2" height="2.0000000000000018e-2" x="0.40883767535070126" y="-0.17666666666666664" /><rect width="2.0000000000000018e-2" height="2.0000000000000018e-2" x="0.4128456913827654" y="0.32333333333333336" /><rect width="2.0000000000000018e-2" height="2.0000000000000018e-2" x="0.4168537074148295" y="-0.26" /><rect width="2.0000000000000018e-2" height="2.0e-2" x="0.42086172344689365" y="-1.0e-2" /><rect width="2.0000000000000018e-2" height="2.0000000000000018e-2" x="0.4248697394789578" y="0.15666666666666668" /><rect width="2.0000000000000018e-2" height="2.0000000000000018e-2" x="0.4288777555110219" y="-0.17666666666666664" /><rect width="2.0000000000000018e-2" height="1.999999999999999e-2" x="0.43288577154308605" y="-9.333333333333325e-2" /><rect width="2.0000000000000018e-2" height="2.0000000000000018e-2" x="0.4368937875751502" y="0.32333333333333336" /><rect width="2.0000000000000018e-2" height="2.0000000000000018e-2" x="0.4409018036072143" y="0.15666666666666668" /><rect width="2.0000000000000018e-2" height="1.999999999999999e-2" x="0.44490981963927845" y="-9.333333333333325e-2" /><rect width="2.0000000000000018e-2" height="2.0000000000000018e-2" x="0.4489178356713426" y="-0.17666666666666664" /><rect width="2.0000000000000018e-2" height="2.0000000000000018e-2" x="0.4529258517034067" y="-0.26" /><rect width="2.0000000000000018e-2" height="2.0000000000000018e-2" x="0.45693386773547084" y="0.24" /><rect width="2.0000000000000018e-2" height="2.0000000000000018e-2" x="0.460941883767535" y="0.32333333333333336" /><rect width="2.0000000000000018e-2" height="2.0000000000000018e-2" x="0.4649498997995991" y="0.32333333333333336" /><rect width="2.0000000000000018e-2" height="2.0000000000000018e-2" x="0.46895791583166324" y="-0.17666666666666664" /><rect width="2.0000000000000018e-2" height="2.0000000000000018e-2" x="0.4729659318637274" y="0.15666666666666668" /><rect width="2.0000000000000018e-2" height="2.0000000000000018e-2" x="0.4769739478957915" y="-0.17666666666666664" /><rect width="2.0000000000000018e-2" height="2.0000000000000018e-2" x="0.48098196392785564" y="-0.17666666666666664" /><rect width="2.0000000000000018e-2" height="2.0000000000000018e-2" x="0.48498997995991977" y="-0.17666666666666664" /><rect width="2.0000000000000018e-2" height="1.999999999999999e-2" x="0.4889979959919839" y="-9.333333333333325e-2" /><rect width="2.0000000000000018e-2" height="1.999999999999999e-2" x="0.49300601202404803" y="7.333333333333338e-2" /><rect width="2.0000000000000018e-2" height="2.0000000000000018e-2" x="0.49701402805611217" y="0.15666666666666668" /><rect width="2.0000000000000018e-2" height="2.0000000000000018e-2" x="0.5010220440881763" y="0.4066666666666667" /><rect width="2.0000000000000018e-2" height="2.0000000000000018e-2" x="0.5050300601202404" y="0.32333333333333336" /><rect width="2.0000000000000018e-2" height="2.0000000000000018e-2" x="0.5090380761523046" y="-0.26" /><rect width="2.0000000000000018e-2" height="2.0000000000000018e-2" x="0.5130460921843687" y="0.4066666666666667" /><rect width="2.0000000000000018e-2" height="2.0000000000000018e-2" x="0.5170541082164328" y="-0.26" /><rect width="2.0000000000000018e-2" height="2.0000000000000018e-2" x="0.521062124248497" y="-0.17666666666666664" /><rect width="2.0000000000000018e-2" height="1.999999999999999e-2" x="0.5250701402805611" y="-9.333333333333325e-2" /><rect width="2.0000000000000018e-2" height="1.999999999999999e-2" x="0.529078156312625" y="-9.333333333333325e-2" /><rect width="2.0000000000000018e-2" height="1.999999999999999e-2" x="0.5330861723446891" y="7.333333333333338e-2" /><rect width="2.0000000000000018e-2" height="2.0000000000000018e-2" x="0.5370941883767533" y="0.24" /><rect width="2.0000000000000018e-2" height="2.0000000000000018e-2" x="0.5411022044088174" y="-0.17666666666666664" /><rect width="2.0000000000000018e-2" height="2.0000000000000018e-2" x="0.5451102204408815" y="-0.26" /><rect width="2.0000000000000018e-2" height="1.999999999999999e-2" x="0.5491182364729457" y="7.333333333333338e-2" /><rect width="2.0000000000000018e-2" height="2.0000000000000018e-2" x="0.5531262525050098" y="-0.17666666666666664" /><rect width="2.0000000000000018e-2" height="2.0000000000000018e-2" x="0.5571342685370739" y="0.32333333333333336" /><rect width="2.0000000000000018e-2" height="1.999999999999999e-2" x="0.5611422845691381" y="7.333333333333338e-2" /><rect width="2.0000000000000018e-2" height="2.0000000000000018e-2" x="0.5651503006012022" y="0.15666666666666668" /><rect width="2.0000000000000018e-2" height="2.0000000000000018e-2" x="0.5691583166332663" y="0.24" /><rect width="2.0000000000000018e-2" height="2.0000000000000018e-2" x="0.5731663326653305" y="0.32333333333333336" /><rect width="2.0000000000000018e-2" height="2.0000000000000018e-2" x="0.5771743486973946" y="0.24" /><rect width="2.0000000000000018e-2" height="1.999999999999999e-2" x="0.5811823647294587" y="-9.333333333333325e-2" /><rect width="2.0000000000000018e-2" height="2.0000000000000018e-2" x="0.5851903807615229" y="-0.17666666666666664" /><rect width="2.0000000000000018e-2" height="1.999999999999999e-2" x="0.589198396793587" y="7.333333333333338e-2" /><rect width="2.0000000000000018e-2" height="2.0000000000000018e-2" x="0.5932064128256511" y="-0.17666666666666664" /><rect width="2.0000000000000018e-2" height="1.999999999999999e-2" x="0.5972144288577153" y="7.333333333333338e-2" /><rect width="2.0000000000000018e-2" height="2.0000000000000018e-2" x="0.6012224448897794" y="0.32333333333333336" /><rect width="2.0000000000000018e-2" height="2.0000000000000018e-2" x="0.6052304609218435" y="-0.17666666666666664" /><rect width="2.0000000000000018e-2" height="2.0e-2" x="0.6092384769539076" y="-1.0e-2" /><rect width="2.0000000000000018e-2" height="2.0000000000000018e-2" x="0.6132464929859718" y="-0.26" /><rect width="2.0000000000000018e-2" height="1.999999999999999e-2" x="0.6172545090180359" y="7.333333333333338e-2" /><rect width="2.0000000000000018e-2" height="2.0000000000000018e-2" x="0.6212625250501" y="0.32333333333333336" /><rect width="2.0000000000000018e-2" height="2.0000000000000018e-2" x="0.6252705410821642" y="0.15666666666666668" /><rect width="2.0000000000000018e-2" height="2.0000000000000018e-2" x="0.6292785571142283" y="0.24" /><rect width="2.0000000000000018e-2" height="1.999999999999999e-2" x="0.6332865731462924" y="-9.333333333333325e-2" /><rect width="2.0000000000000018e-2" height="1.999999999999999e-2" x="0.6372945891783566" y="7.333333333333338e-2" /><rect width="2.0000000000000018e-2" height="2.0000000000000018e-2" x="0.6413026052104207" y="-0.17666666666666664" /><rect width="2.0000000000000018e-2" height="1.999999999999999e-2" x="0.6453106212424848" y="7.333333333333338e-2" /><rect width="2.0000000000000018e-2" height="2.0e-2" x="0.649318637274549" y="-1.0e-2" /><rect width="2.0000000000000018e-2" height="2.0000000000000018e-2" x="0.6533266533066131" y="0.4066666666666667" /><rect width="2.0000000000000018e-2" height="2.0000000000000018e-2" x="0.6573346693386772" y="0.32333333333333336" /><rect width="2.0000000000000018e-2" height="1.999999999999999e-2" x="0.6613426853707414" y="7.333333333333338e-2" /><rect width="2.0000000000000018e-2" height="2.0000000000000018e-2" x="0.6653507014028055" y="0.15666666666666668" /><rect width="2.0000000000000018e-2" height="2.0000000000000018e-2" x="0.6693587174348696" y="0.4066666666666667" /><rect width="2.0000000000000018e-2" height="2.0000000000000018e-2" x="0.6733667334669338" y="0.4066666666666667" /><rect width="2.0000000000000018e-2" height="2.0000000000000018e-2" x="0.6773747494989979" y="-0.34333333333333327" /><rect width="2.0000000000000018e-2" height="2.0000000000000018e-2" x="0.681382765531062" y="0.32333333333333336" /><rect width="2.0000000000000018e-2" height="2.0000000000000018e-2" x="0.6853907815631262" y="-0.34333333333333327" /><rect width="2.0000000000000018e-2" height="1.999999999999999e-2" x="0.6893987975951903" y="7.333333333333338e-2" /><rect width="2.0000000000000018e-2" height="2.0000000000000018e-2" x="0.6934068136272544" y="0.4066666666666667" /><rect width="2.0000000000000018e-2" height="1.999999999999999e-2" x="0.6974148296593186" y="7.333333333333338e-2" /><rect width="2.0000000000000018e-2" height="2.0000000000000018e-2" x="0.7014228456913827" y="0.32333333333333336" /><rect width="2.0000000000000018e-2" height="2.0000000000000018e-2" x="0.7054308617234468" y="0.32333333333333336" /><rect width="2.0000000000000018e-2" height="2.0000000000000018e-2" x="0.709438877755511" y="0.4066666666666667" /><rect width="2.0000000000000018e-2" height="2.0000000000000018e-2" x="0.7134468937875751" y="-0.34333333333333327" /><rect width="2.0000000000000018e-2" height="2.0000000000000018e-2" x="0.7174549098196392" y="0.4066666666666667" /><rect width="2.0000000000000018e-2" height="2.0000000000000018e-2" x="0.7214629258517034" y="0.32333333333333336" /><rect width="2.0000000000000018e-2" height="2.0000000000000018e-2" x="0.7254709418837675" y="-0.34333333333333327" /><rect width="2.0000000000000018e-2" height="2.0000000000000018e-2" x="0.7294789579158316" y="-0.34333333333333327" /><rect width="2.0000000000000018e-2" height="2.0000000000000018e-2" x="0.7334869739478957" y="-0.34333333333333327" /><rect width="2.0000000000000018e-2" height="2.0000000000000018e-2" x="0.7374949899799597" y="0.32333333333333336" /><rect width="2.0000000000000018e-2" height="2.0000000000000018e-2" x="0.7415030060120238" y="-0.26" /><rect width="2.0000000000000018e-2" height="2.0000000000000018e-2" x="0.7455110220440879" y="-0.26" /><rect width="2.0000000000000018e-2" height="2.0000000000000018e-2" x="0.749519038076152" y="-0.34333333333333327" /><rect width="2.0000000000000018e-2" height="2.0000000000000018e-2" x="0.7535270541082162" y="0.24" /><rect width="2.0000000000000018e-2" height="2.0000000000000018e-2" x="0.7575350701402803" y="0.4066666666666667" /><rect width="2.0000000000000018e-2" height="2.0000000000000018e-2" x="0.7615430861723445" y="0.4066666666666667" /><rect width="2.0000000000000018e-2" height="2.0000000000000018e-2" x="0.7655511022044086" y="0.15666666666666668" /><rect width="2.0000000000000018e-2" height="2.0000000000000018e-2" x="0.7695591182364727" y="0.32333333333333336" /><rect width="2.0000000000000018e-2" height="2.0000000000000018e-2" x="0.7735671342685368" y="-0.34333333333333327" /><rect width="2.0000000000000018e-2" height="1.999999999999999e-2" x="0.777575150300601" y="-9.333333333333325e-2" /><rect width="2.0000000000000018e-2" height="2.0000000000000018e-2" x="0.7815831663326651" y="0.4066666666666667" /><rect width="2.0000000000000018e-2" height="2.0000000000000018e-2" x="0.7855911823647292" y="0.4066666666666667" /><rect width="2.0000000000000018e-2" height="1.999999999999999e-2" x="0.7895991983967934" y="-9.333333333333325e-2" /><rect width="2.0000000000000018e-2" height="2.0000000000000018e-2" x="0.7936072144288575" y="0.32333333333333336" /><rect width="2.0000000000000018e-2" height="2.0000000000000018e-2" x="0.7976152304609216" y="-0.34333333333333327" /><rect width="2.0000000000000018e-2" height="2.0000000000000018e-2" x="0.8016232464929858" y="-0.17666666666666664" /><rect width="2.0000000000000018e-2" height="2.0000000000000018e-2" x="0.8056312625250499" y="-0.34333333333333327" /><rect width="2.0000000000000018e-2" height="2.0000000000000018e-2" x="0.809639278557114" y="0.15666666666666668" /><rect width="2.0000000000000018e-2" height="2.0000000000000018e-2" x="0.8136472945891782" y="-0.26" /><rect width="2.0000000000000018e-2" height="2.0000000000000018e-2" x="0.8176553106212423" y="-0.34333333333333327" /><rect width="2.0000000000000018e-2" height="2.0000000000000018e-2" x="0.8216633266533064" y="0.4066666666666667" /><rect width="2.0000000000000018e-2" height="2.0000000000000018e-2" x="0.8256713426853706" y="0.15666666666666668" /><rect width="2.0000000000000018e-2" height="2.0000000000000018e-2" x="0.8296793587174347" y="0.4066666666666667" /><rect width="2.0000000000000018e-2" height="1.999999999999999e-2" x="0.8336873747494988" y="-9.333333333333325e-2" /><rect width="2.0000000000000018e-2" height="1.999999999999999e-2" x="0.837695390781563" y="7.333333333333338e-2" /><rect width="2.0000000000000018e-2" height="2.0000000000000018e-2" x="0.8417034068136271" y="-0.17666666666666664" /><rect width="2.0000000000000018e-2" height="1.999999999999999e-2" x="0.8457114228456912" y="7.333333333333338e-2" /><rect width="2.0000000000000018e-2" height="2.0000000000000018e-2" x="0.8497194388777554" y="0.4066666666666667" /><rect width="2.0000000000000018e-2" height="2.0000000000000018e-2" x="0.8537274549098195" y="0.4066666666666667" /><rect width="2.0000000000000018e-2" height="1.999999999999999e-2" x="0.8577354709418836" y="7.333333333333338e-2" /><rect width="2.0000000000000018e-2" height="2.0000000000000018e-2" x="0.8617434869739478" y="0.4066666666666667" /><rect width="2.0000000000000018e-2" height="2.0000000000000018e-2" x="0.8657515030060119" y="0.4066666666666667" /><rect width="2.0000000000000018e-2" height="2.0000000000000018e-2" x="0.869759519038076" y="0.4066666666666667" /><rect width="2.0000000000000018e-2" height="2.0000000000000018e-2" x="0.8737675350701402" y="0.4066666666666667" /><rect width="2.0000000000000018e-2" height="2.0000000000000018e-2" x="0.8777755511022043" y="-0.42666666666666664" /><rect width="2.0000000000000018e-2" height="2.0000000000000018e-2" x="0.8817835671342684" y="-0.26" /><rect width="2.0000000000000018e-2" height="2.0000000000000018e-2" x="0.8857915831663326" y="0.15666666666666668" /><rect width="2.0000000000000018e-2" height="2.0000000000000018e-2" x="0.8897995991983967" y="-0.26" /><rect width="2.0000000000000018e-2" height="2.0e-2" x="0.8938076152304608" y="-1.0e-2" /><rect width="2.0000000000000018e-2" height="2.0000000000000018e-2" x="0.897815631262525" y="0.4066666666666667" /><rect width="2.0000000000000018e-2" height="2.0000000000000018e-2" x="0.9018236472945891" y="-0.34333333333333327" /><rect width="2.0000000000000018e-2" height="2.0000000000000018e-2" x="0.9058316633266532" y="-0.26" /><rect width="2.0000000000000018e-2" height="2.0000000000000018e-2" x="0.9098396793587173" y="-0.26" /><rect width="2.0000000000000018e-2" height="2.0000000000000018e-2" x="0.9138476953907815" y="-0.17666666666666664" /><rect width="2.0000000000000018e-2" height="2.0000000000000018e-2" x="0.9178557114228456" y="-0.17666666666666664" /><rect width="2.0000000000000018e-2" height="1.999999999999999e-2" x="0.9218637274549097" y="7.333333333333338e-2" /><rect width="2.0000000000000018e-2" height="2.0000000000000018e-2" x="0.9258717434869739" y="0.32333333333333336" /><rect width="2.0000000000000018e-2" height="2.0000000000000018e-2" x="0.929879759519038" y="-0.34333333333333327" /><rect width="2.0000000000000018e-2" height="1.999999999999999e-2" x="0.9338877755511021" y="-9.333333333333325e-2" /><rect width="2.0000000000000018e-2" height="2.0000000000000018e-2" x="0.9378957915831663" y="-0.26" /><rect width="2.0000000000000018e-2" height="2.0000000000000018e-2" x="0.9419038076152302" y="-0.34333333333333327" /><rect width="2.0000000000000018e-2" height="2.0000000000000018e-2" x="0.9459118236472943" y="0.4066666666666667" /><rect width="2.0000000000000018e-2" height="1.999999999999999e-2" x="0.9499198396793584" y="-9.333333333333325e-2" /><rect width="2.0000000000000018e-2" height="2.0e-2" x="0.9539278557114226" y="-1.0e-2" /><rect width="2.0000000000000018e-2" height="2.0000000000000018e-2" x="0.9579358717434867" y="-0.26" /><rect width="2.0000000000000018e-2" height="2.0000000000000018e-2" x="0.9619438877755508" y="0.32333333333333336" /><rect width="2.0000000000000018e-2" height="2.0000000000000018e-2" x="0.965951903807615" y="0.15666666666666668" /><rect width="2.0000000000000018e-2" height="2.0000000000000018e-2" x="0.9699599198396791" y="-0.34333333333333327" /><rect width="2.0000000000000018e-2" height="2.0000000000000018e-2" x="0.9739679358717432" y="-0.26" /><rect width="2.0000000000000018e-2" height="2.0e-2" x="0.9779759519038074" y="-1.0e-2" /><rect width="2.0000000000000018e-2" height="2.0000000000000018e-2" x="0.9819839679358715" y="-0.17666666666666664" /><rect width="2.0000000000000018e-2" height="2.0000000000000018e-2" x="0.9859919839679356" y="-0.17666666666666664" /><rect width="2.0000000000000018e-2" height="2.0000000000000018e-2" x="0.9899999999999998" y="0.24" /></g><g stroke-width="2.0e-2" stroke="#5DA5DA" fill="none" stroke-opacity="0.5"><polyline points="-1.0,-0.16666666666666663 -0.9959919839679359,-0.16666666666666663 -0.9919839679358717,-0.16666666666666663 -0.9879759519038076,-0.16666666666666663 -0.9839679358717435,-9.865326680537323e-2 -0.9799599198396793,-8.179518090878024e-2 -0.9759519038076152,-0.10655497784730406 -0.9719438877755511,-7.118890913645648e-2 -0.9679358717434869,-6.295733612737686e-2 -0.9639278557114228,-5.637307526486879e-2 -0.9599198396793587,-5.0986859425872666e-2 -0.9559118236472945,-2.449506524562506e-2 -0.9519038076152304,-4.971067984739519e-2 -0.9478957915831663,-2.0527305110059735e-2 -0.9438877755511023,-1.9060457621062232e-2 -0.9398797595190381,-9.470591885589741e-4 -0.935871743486974,1.503104864359639e-2 -0.9318637274549099,2.419408354920488e-2 -0.9278557114228457,2.2802270167579075e-2 -0.9238476953907816,1.69736239742303e-2 -0.9198396793587175,1.6081553032702756e-2 -0.9158316633266533,2.7873615449167888e-2 -0.9118236472945892,1.4409814738783833e-2 -0.9078156312625251,2.151393619897174e-2 -0.9038076152304609,2.8047090334542557e-2 -0.8997995991983968,3.407515924414195e-2 -0.8957915831663327,5.0173614057822946e-2 -0.8917835671342685,4.473058733676172e-2 -0.8877755511022044,4.955347581529179e-2 -0.8837675350701403,5.0851205587621906e-2 -0.8797595190380761,5.5177575364093234e-2 -0.875751503006012,4.408100245440749e-2 -0.8717434869739479,4.251933859964585e-2 -0.8677354709418837,3.817129661780028e-2 -0.8637274549098196,4.531434355455877e-2 -0.8597194388777555,4.9311629679220204e-2 -0.8557114228456915,4.77237538290648e-2 -0.8517034068136273,5.409575490362928e-2 -0.8476953907815632,4.985766056188501e-2 -0.8436873747494991,5.086892390989445e-2 -0.8396793587174349,4.9362669280791915e-2 -0.8356713426853708,5.2769294472889805e-2 -0.8316633266533067,6.0764909759373154e-2 -0.8276553106212425,6.839158217414398e-2 -0.8236472945891784,5.964010113152568e-2 -0.8196392785571143,6.478251201764529e-2 -0.8156312625250501,6.748878100010636e-2 -0.811623246492986,5.9192972217395334e-2 -0.8076152304609219,6.409951596732666e-2 -0.8036072144288577,5.403777029896861e-2 -0.7995991983967936,4.645661274017038e-2 -0.7955911823647295,4.736259998046399e-2 -0.7915831663326653,4.621570364905042e-2 -0.7875751503006012,4.909157051068225e-2 -0.7835671342685371,4.597308740421113e-2 -0.779559118236473,4.490493647839977e-2 -0.7755511022044088,4.769702956280447e-2 -0.7715430861723447,4.661726109302933e-2 -0.7675350701402806,4.184918486801753e-2 -0.7635270541082164,4.276526650570189e-2 -0.7595190380761523,4.546867836649493e-2 -0.7555110220440882,4.448818315702158e-2 -0.751503006012024,4.886921588415338e-2 -0.7474949899799599,5.1352280357434665e-2 -0.7434869739478958,4.680699443441405e-2 -0.7394789579158316,4.756032780373376e-2 -0.7354709418837675,5.509289111261495e-2 -0.7314629258517034,5.061393257039093e-2 -0.7274549098196392,4.4603612923780456e-2 -0.7234468937875751,4.042137919577493e-2 -0.719438877755511,3.799533817009326e-2 -0.7154308617234469,3.5639481112551996e-2 -0.7114228456913828,3.174791964190721e-2 -0.7074148296593187,3.1142805431109144e-2 -0.7034068136272545,3.370269288165384e-2 -0.6993987975951904,3.463189816288015e-2 -0.6953907815631263,2.9348982361750042e-2 -0.6913827655310621,2.5741710272959573e-2 -0.687374749498998,2.8313538420625783e-2 -0.6833667334669339,3.232613165716047e-2 -0.6793587174348698,3.0249481224539743e-2 -0.6753507014028056,2.9710642174122892e-2 -0.6713426853707415,3.0658426908387937e-2 -0.6673346693386774,3.304407186146896e-2 -0.6633266533066133,2.9567273382544723e-2 -0.6593186372745492,3.1936506168258105e-2 -0.6553106212424851,3.567765053806776e-2 -0.6513026052104209,3.50699062138804e-2 -0.6472945891783568,2.8838244989863426e-2 -0.6432865731462927,3.535343485184517e-2 -0.6392785571142285,3.6154013357264425e-2 -0.6352705410821644,3.6936005474880296e-2 -0.6312625250501003,3.495557532672555e-2 -0.6272545090180361,3.438367323906133e-2 -0.623246492985972,4.059860668867932e-2 -0.6192384769539079,3.455724310576963e-2 -0.6152304609218437,4.06929513434694e-2 -0.6112224448897796,3.8713394858378214e-2 -0.6072144288577155,3.677697621199605e-2 -0.6032064128256514,3.4882395188942705e-2 -0.5991983967935872,4.086996603231574e-2 -0.5951903807615231,3.633399419815414e-2 -0.591182364729459,3.577053597435631e-2 -0.5871743486973948,3.6504087373297245e-2 -0.5831663326653307,3.210922525813131e-2 -0.5791583166332666,3.0347786371746288e-2 -0.5751503006012024,2.7357435669850827e-2 -0.5711422845691383,2.8202679454625845e-2 -0.5671342685370742,2.777897604607482e-2 -0.56312625250501,2.3626618564762225e-2 -0.5591182364729459,2.4514744935677513e-2 -0.5551102204408818,2.5385416228634328e-2 -0.5511022044088176,2.7466757921204787e-2 -0.5470941883767535,2.584214920341793e-2 -0.5430861723446894,2.546499661771584e-2 -0.5390781563126252,2.7516335954248183e-2 -0.5350701402805611,2.9528762275289222e-2 -0.531062124248497,3.0303440416200256e-2 -0.5270541082164328,2.867446254478112e-2 -0.5230460921843687,2.8265189635641563e-2 -0.5190380761523046,3.141656234107015e-2 -0.5150300601202404,2.9792537635349337e-2 -0.5110220440881764,2.819811851654086e-2 -0.5070140280561123,3.1311492722970014e-2 -0.5030060120240482,3.2038773667269094e-2 -0.498997995991984,3.7394668973526723e-2 -0.4949899799599199,3.57201190393992e-2 -0.49098196392785576,3.0620923146270074e-2 -0.4869739478957916,3.134647886592967e-2 -0.4829659318637275,2.977389769291494e-2 -0.47895791583166336,3.50596553760294e-2 -0.47494989979959923,3.798547173758576e-2 -0.4709418837675351,3.747026598361919e-2 -0.46693386773547096,3.245882777066844e-2 -0.46292585170340683,3.651092565717001e-2 -0.4589178356713427,3.9376203754791284e-2 -0.45490981963927857,3.7734910539867994e-2 -0.45090180360721444,3.7231887685103604e-2 -0.4468937875751503,3.6737217811850964e-2 -0.44288577154308617,3.294005132691258e-2 -0.43887775551102204,2.9205280098774322e-2 -0.434869739478958,2.7724523521911404e-2 -0.4308617234468939,3.28260233247728e-2 -0.42685370741482975,3.0217537083848167e-2 -0.4228456913827656,3.090992837175016e-2 -0.4188376753507015,3.375723532695474e-2 -0.41482965931863736,2.9000756226669644e-2 -0.4108216432865732,2.647292266755813e-2 -0.4068136272545091,2.6131913567468912e-2 -0.40280561122244496,2.7937000918460186e-2 -0.3987975951903808,2.6511851767686723e-2 -0.3947895791583167,2.510889539593264e-2 -0.39078156312625256,2.4789088005604254e-2 -0.38677354709418843,2.4474215690995782e-2 -0.3827655310621243,2.8386788654074957e-2 -0.37875751503006017,2.8028146603535642e-2 -0.37474949899799603,3.0825197530534032e-2 -0.3707414829659319,3.1485132229468804e-2 -0.36673346693386777,2.900109304637949e-2 -0.36272545090180364,2.7596426303616084e-2 -0.3587174348697395,2.517336461990677e-2 -0.35470941883767537,2.2786429124838914e-2 -0.35070140280561124,2.1469269767922183e-2 -0.3466933867735471,2.120343421402876e-2 -0.342685370741483,1.7853335105278423e-2 -0.33867735470941884,1.9687269259200613e-2 -0.3346693386773547,2.2518999212260304e-2 -0.3306613226452907,2.1220508962384643e-2 -0.32665330661322656,1.9940848275546652e-2 -0.3226452905811624,2.2750308821386733e-2 -0.3186372745490983,2.2473097372762596e-2 -0.31462925851703416,2.1186661766336434e-2 -0.31062124248497003,2.092962091218248e-2 -0.3066132264529059,2.0676238791311308e-2 -0.30260521042084176,2.1433195472166933e-2 -0.29859719438877763,1.8160836559041327e-2 -0.2945891783567135,2.1952714546040253e-2 -0.29058116232464937,2.0688573139567512e-2 -0.28657314629258523,2.4434897253617194e-2 -0.2825651302605211,2.414268091612004e-2 -0.27855711422845697,1.9875992359723482e-2 -0.27454909819639284,2.3610064258245245e-2 -0.2705410821643287,2.3329345399773938e-2 -0.2665330661322646,2.20635399742225e-2 -0.26252505010020044,2.278929599946994e-2 -0.2585170340681363,2.0549276137663774e-2 -0.2545090180360722,2.0306755370482543e-2 -0.25050100200400804,2.104925164051885e-2 -0.2464929859719439,1.9821739086853807e-2 -0.24248496993987978,2.3502078946756044e-2 -0.23847695390781565,2.5179782815095808e-2 -0.23446893787575152,2.4885214592329674e-2 -0.2304609218436875,2.751427683295854e-2 -0.22645290581162336,3.2051478502440334e-2 -0.22244488977955923,2.779844413402699e-2 -0.2184368737474951,3.134901025525194e-2 -0.21442885771543096,3.0018463896266834e-2 -0.21042084168336683,2.6774881532036776e-2 -0.2064128256513027,2.8392750444907466e-2 -0.20240480961923857,2.7102641188408105e-2 -0.19839679358717444,2.7750938138265124e-2 -0.1943887775551103,2.3594268696768617e-2 -0.19038076152304617,2.4280924884059085e-2 -0.18637274549098204,2.0176547537410883e-2 -0.1823647294589179,2.281036561401567e-2 -0.17835671342685377,2.445658091238867e-2 -0.17434869739478964,2.7986108065828297e-2 -0.1703406813627255,2.8617658258878798e-2 -0.16633266533066138,2.6392467850016366e-2 -0.16232464929859725,2.3247467160528834e-2 -0.1583166332665331,2.1089457137251855e-2 -0.15430861723446898,1.990450750971673e-2 -0.15030060120240485,2.1567666695758658e-2 -0.14629258517034072,2.5096001337787166e-2 -0.14228456913827658,2.1044897978862886e-2 -0.13827655310621245,1.7985431019165332e-2 -0.13426853707414832,2.1540398287063445e-2 -0.1302605210420842,2.3174349608041156e-2 -0.12625250501002017,2.1976705823314013e-2 -0.12224448897795603,2.360167418642589e-2 -0.1182364729458919,2.520641808536811e-2 -0.11422845691382777,2.492402417573114e-2 -0.11022044088176364,2.3712647073614534e-2 -0.1062124248496995,2.8104494676383485e-2 -0.10220440881763537,2.406963453064548e-2 -9.819639278557124e-2,2.101365207744288e-2 -9.418837675350711e-2,1.8923348574033327e-2 -9.018036072144298e-2,1.5931598124311552e-2 -8.617234468937884e-2,1.4828524678019428e-2 -8.216432865731471e-2,1.4663927009683997e-2 -7.815631262525058e-2,1.63493140813179e-2 -7.414829659318645e-2,1.3399275982257097e-2 -7.014028056112231e-2,1.0485047182681506e-2 -6.613226452905818e-2,1.405321888543909e-2 -6.212424849699405e-2,1.0217881677807461e-2 -5.811623246492992e-2,1.286245538321873e-2 -5.4108216432865786e-2,1.0884451679503804e-2 -5.010020040080165e-2,7.095808291555261e-3 -4.609218436873752e-2,6.1014980317199985e-3 -4.208416833667339e-2,7.865230635067832e-3 -3.8076152304609256e-2,8.69339677539166e-3 -3.4068136272545124e-2,4.943740921345918e-3 -3.0060120240480992e-2,9.453136824070785e-3 -2.605210420841686e-2,1.3908899442116263e-2 -2.204408817635284e-2,1.4667832108538947e-2 -1.8036072144288706e-2,1.632790316888777e-2 -1.4028056112224574e-2,2.0696218702686342e-2 -1.0020040080160442e-2,2.501293426060286e-2 -6.012024048096309e-3,2.1109901873742398e-2 -2.004008016032177e-3,2.4507544019090277e-2 2.004008016031955e-3,2.8771292216734412e-2 6.012024048096087e-3,2.4837743398632817e-2 1.002004008016022e-2,2.0950279737922073e-2 1.4028056112224352e-2,1.8915687817312787e-2 1.8036072144288484e-2,1.5098983758509543e-2 2.2044088176352616e-2,1.1326785324832611e-2 2.605210420841675e-2,1.2105699174868367e-2 3.006012024048088e-2,1.647836839753397e-2 3.406813627254501e-2,2.0800281959432065e-2 3.8076152304609145e-2,2.0575824653012775e-2 4.208416833667328e-2,1.6759784779336817e-2 4.609218436873741e-2,1.2987843208142835e-2 5.010020040080154e-2,1.7333758819198186e-2 5.4108216432865675e-2,2.162959762982486e-2 5.811623246492981e-2,2.5876006977331056e-2 6.212424849699394e-2,2.291272757577878e-2 6.613226452905807e-2,1.9089000389044264e-2 7.01402805611222e-2,1.799046739466248e-2 7.414829659318634e-2,1.9583941141649408e-2 7.815631262525047e-2,1.758918615362204e-2 8.21643286573146e-2,1.3833452077628594e-2 8.617234468937873e-2,1.6359240743456294e-2 9.018036072144286e-2,2.063753418077846e-2 9.4188376753507e-2,2.3977180572734014e-2 9.819639278557113e-2,2.550009364911049e-2 0.10220440881763526,2.4339304604731715e-2 0.1062124248496994,2.852098236487044e-2 0.11022044088176353,2.8217187454508685e-2 0.11422845691382766,3.0577997224010056e-2 0.11823647294589179,3.468514441725423e-2 0.12224448897795592,3.8746010301722644e-2 0.12625250501002006,3.479290962173409e-2 0.13026052104208397,3.884753806293734e-2 0.1342685370741481,4.1088111631990665e-2 0.13827655310621223,3.7117490682930465e-2 0.14228456913827636,4.11400572169906e-2 0.1462925851703405,3.717365824992147e-2 0.15030060120240463,3.325159275506756e-2 0.15430861723446876,3.0254939350439658e-2 0.1583166332665329,3.434060536940703e-2 0.16232464929859702,3.221650319877195e-2 0.16633266533066116,2.835582212961202e-2 0.1703406813627253,3.157497386260344e-2 0.17434869739478942,2.8604494394375624e-2 0.17835671342685355,3.0938826895968496e-2 0.18236472945891768,2.7978295914850626e-2 0.18637274549098182,2.417284432325273e-2 0.19038076152304595,2.3918383520814324e-2 0.19438877755511008,2.717379386101254e-2 0.1983967935871742,3.126958378906908e-2 0.20240480961923835,3.181678833046209e-2 0.20641282565130248,3.585960501819252e-2 0.2104208416833666,3.460812478571007e-2 0.21442885771543074,3.0746809482072313e-2 0.21843687374749488,3.0424300401516335e-2 0.222444889779559,3.4473688475433195e-2 0.22645290581162314,3.323919018230137e-2 0.23046092184368727,3.638236737475575e-2 0.2344689378757514,3.861873217907086e-2 0.23847695390781554,3.472658830491926e-2 0.24248496993987967,3.262016659367717e-2 0.2464929859719438,3.3150344626499684e-2 0.25050100200400793,2.9320701388447223e-2 0.25450901803607207,2.6403196800865225e-2 0.2585170340681362,2.525750862866344e-2 0.26252505010020033,2.499392737767059e-2 0.26653306613226446,2.821028128753794e-2 0.2705410821643286,2.6178354596607667e-2 0.2745490981963927,2.764256159842693e-2 0.27855711422845686,2.9959052487873616e-2 0.282565130260521,2.7043693711406802e-2 0.2865731462925851,2.9364493641193146e-2 0.29058116232464926,2.7324797993161454e-2 0.2945891783567134,2.9640785855806984e-2 0.2985971943887775,3.193176762249744e-2 0.30260521042084165,3.593010837099703e-2 0.3066132264529058,3.2094059554501786e-2 0.3106212424849699,3.5222232571779255e-2 0.31462925851703405,3.13964942571045e-2 0.3186372745490982,2.9341309659968118e-2 0.3226452905811623,2.903696675380213e-2 0.32665330661322645,2.614373193000774e-2 0.3306613226452906,2.760022721246136e-2 0.3346693386773545,2.6450839865219566e-2 0.3386773547094186,2.617688049741773e-2 0.34268537074148275,2.5043055131070635e-2 0.3466933867735469,2.823384225332548e-2 0.350701402805611,2.707953217510245e-2 0.35470941883767515,2.8523245817702048e-2 0.3587174348697393,3.0813137783769207e-2 0.3627254509018034,3.393989333068237e-2 0.36673346693386755,3.2728200142677855e-2 0.3707414829659317,3.583308804617191e-2 0.3747494989979958,3.460264742200447e-2 0.37875751503005994,3.854632688420384e-2 0.3827655310621241,3.728868536507951e-2 0.3867735470941882,4.12021314838632e-2 0.39078156312625234,3.819920417081668e-2 0.3947895791583165,3.780541022869999e-2 0.3987975951903806,3.569816748656146e-2 0.40280561122244474,3.8764590216531225e-2 0.40681362725450887,3.579045771699629e-2 0.410821643286573,3.2847838642390215e-2 0.41482965931863713,2.9936381033976778e-2 0.41883767535070127,2.7913266537698544e-2 0.4228456913827654,3.105523415047612e-2 0.42685370741482953,2.816474708082989e-2 0.43086172344689366,2.787517165139597e-2 0.4348697394789578,2.9301752787710966e-2 0.4388777555110219,2.7288034384680082e-2 0.44288577154308606,2.6151632509386125e-2 0.4468937875751502,2.930641743746193e-2 0.4509018036072143,3.07167391830655e-2 0.45490981963927846,2.9546063445936577e-2 0.4589178356713426,2.753255552116174e-2 0.4629258517034067,2.468530037181943e-2 0.46693386773547085,2.6996244442022088e-2 0.470941883767535,3.0137390275767062e-2 0.4749498997995991,3.3245538037988354e-2 0.47895791583166325,3.119669606610248e-2 0.4829659318637274,3.258474312661591e-2 0.4869739478957915,3.054368363198101e-2 0.49098196392785565,2.8524024081462762e-2 0.4949899799599198,2.6525530079149373e-2 0.4989979959919839,2.5400989304680044e-2 0.503006012024048,2.599385814368249e-2 0.5070140280561122,2.743314099001415e-2 0.5110220440881763,3.1414631984017505e-2 0.5150300601202404,3.450226763364855e-2 0.5190380761523046,3.159340431284552e-2 0.5230460921843687,3.5529661850543126e-2 0.5270541082164328,3.261159709167405e-2 0.531062124248497,3.0575454611635855e-2 0.5350701402805611,2.941183514178375e-2 0.539078156312625,2.8260350451401517e-2 0.5430861723446891,2.882269988555136e-2 0.5470941883767533,3.108066171063506e-2 0.5511022044088174,2.906231401785203e-2 0.5551102204408815,2.6214597269805295e-2 0.5591182364729457,2.6797351377443268e-2 0.5631262525050098,2.482393367004454e-2 0.5671342685370739,2.7970234013653117e-2 0.5711422845691381,2.853473670775275e-2 0.5751503006012022,2.9942904573734497e-2 0.5791583166332663,3.218581185598002e-2 0.5831663326653305,3.525463381325733e-2 0.5871743486973946,3.744256423706588e-2 0.5911823647294587,3.621227243976061e-2 0.5951903807615229,3.4146017987458144e-2 0.599198396793587,3.464688192572429e-2 0.6032064128256511,3.2597323641684106e-2 0.6072144288577153,3.311376974914837e-2 0.6112224448897794,3.616918274723557e-2 0.6152304609218435,3.410523512992614e-2 0.6192384769539077,3.3758259630113086e-2 0.6232464929859718,3.087189725104772e-2 0.6272545090180359,3.1405438335063596e-2 0.6312625250501,3.447557026819287e-2 0.6352705410821642,3.5819519499856234e-2 0.6392785571142283,3.799666848684846e-2 0.6432865731462925,3.676355001417475e-2 0.6472945891783566,3.723677741533038e-2 0.6513026052104207,3.516511009601908e-2 0.6553106212424848,3.5654422901273075e-2 0.659318637274549,3.529228784170013e-2 0.6633266533066131,3.9165226153894395e-2 0.6673346693386772,4.215210253847207e-2 0.6713426853707414,4.257017760410331e-2 0.6753507014028055,4.382982327162249e-2 0.6793587174348696,4.761374682489622e-2 0.6833667334669338,5.1358709289557214e-2 0.6873747494989979,4.745562459632191e-2 0.691382765531062,5.035571584854159e-2 0.6953907815631262,4.64639382262923e-2 0.6993987975951903,4.6837852895022514e-2 0.7034068136272544,5.058797788739422e-2 0.7074148296593186,5.091997464265563e-2 0.7114228456913827,5.3782893998197356e-2 0.7154308617234468,5.6616401830664964e-2 0.719438877755511,6.026535539745681e-2 0.7234468937875751,5.6276939787254565e-2 0.7274549098196392,5.99283558475977e-2 0.7314629258517034,6.269808993518006e-2 0.7354709418837675,5.868660998349301e-2 0.7394789579158316,5.471627605062096e-2 0.7434869739478958,5.078665576346453e-2 0.7474949899799597,5.364752868106737e-2 0.7515030060120238,5.0573388311337675e-2 0.7555110220440879,4.753074808373259e-2 0.7595190380761521,4.367581564804812e-2 0.7635270541082162,4.576388110076801e-2 0.7675350701402803,4.95170820514772e-2 0.7715430861723445,5.3231861584929985e-2 0.7755511022044086,5.437944730533595e-2 0.7795591182364727,5.7201210365269706e-2 0.7835671342685369,5.325120744886086e-2 0.787575150300601,5.186990160154781e-2 0.7915831663326651,5.555874420885898e-2 0.7955911823647293,5.920987595645072e-2 0.7995991983967934,5.7768793428245535e-2 0.8036072144288575,6.0554388407160986e-2 0.8076152304609217,5.657313442059808e-2 0.8116232464929858,5.431696168487499e-2 0.8156312625250499,5.039959171785835e-2 0.819639278557114,5.1574395768501535e-2 0.8236472945891782,4.8527498330418806e-2 0.8276553106212423,4.466984122630413e-2 0.8316633266533064,4.842746533101072e-2 0.8356713426853706,4.9621705368973756e-2 0.8396793587174347,5.332856286314164e-2 0.8436873747494988,5.194852503878605e-2 0.847695390781563,5.226542368678233e-2 0.8517034068136271,5.005503769816316e-2 0.8557114228456912,5.039099028240329e-2 0.8597194388777554,5.4088281223562074e-2 0.8637274549098195,5.7747905611054806e-2 0.8677354709418836,5.8006123753051586e-2 0.8717434869739478,6.162553180878921e-2 0.8757515030060119,6.520808710177206e-2 0.879759519038076,6.875417144450724e-2 0.8837675350701402,7.226416256168527e-2 0.8877755511022043,6.733191479393252e-2 0.8917835671342684,6.413100765216906e-2 0.8957915831663326,6.516518851123232e-2 0.8997995991983967,6.1986686899394794e-2 0.9038076152304608,6.1361592479739935e-2 0.907815631262525,6.49443051789621e-2 0.9118236472945891,6.0928614597181185e-2 0.9158316633266532,5.7793891952369836e-2 0.9198396793587174,5.469102681960519e-2 0.9238476953907815,5.245970427382696e-2 0.9278557114228456,5.025105089363224e-2 0.9318637274549098,5.058447263802135e-2 0.9358717434869739,5.3433949936492586e-2 0.939879759519038,4.9536502247458924e-2 0.9438877755511021,4.819767812057596e-2 0.9478957915831663,4.519320519639208e-2 0.9519038076152302,4.1379671323621414e-2 0.9559118236472943,4.516028549684481e-2 0.9599198396793585,4.38659457192917e-2 0.9639278557114226,4.342410834180854e-2 0.9679358717434867,4.0468823901088635e-2 0.9719438877755509,4.341826069686727e-2 0.975951903807615,4.4659406572680416e-2 0.9799599198396791,4.0853181593870136e-2 0.9839679358717432,3.792461838628103e-2 0.9879759519038074,3.754278658771848e-2 0.9919839679358715,3.5486909681591294e-2 0.9959919839679356,3.345186764620561e-2 0.9999999999999998,3.563167133290279e-2" /></g><g /></svg>