
<svg xmlns="http://www.w3.org/2000/svg" height="150.0" viewBox="-1.0168717751031797 -0.7514830797006165 1.7893717751031797 1.6014491823133066" width="225.0" xmlns:xlink="http://www.w3.org/1999/xlink">
  <g transform="translate(-0.9875794641718354, 9.79745911566533e-2)" fill-opacity="1.0" font-size="8.0e-2" stroke="none" stroke-width="0.0" fill="#333333" text-anchor="middle">
    <text transform="rotate(-90.0, 6.470768906865554e-2, -4.8733079700616466e-2)" x="6.470768906865554e-2" y="-4.8733079700616466e-2">std of ma / (0.5*r)**0.5
    </text>
  </g>
  <g transform="translate(-9.50397320859177e-2, 0.8366991823133065)" fill-opacity="1.0" font-size="8.0e-2" stroke="none" stroke-width="0.0" fill="#333333" text-anchor="middle">
    <text transform="rotate(0.0, 6.470768906865554e-2, -4.8733079700616466e-2)" x="6.470768906865554e-2" y="-4.8733079700616466e-2">rate
    </text>
  </g>
  <g transform="translate(-9.50397320859177e-2, -0.57175)" fill-opacity="1.0" font-size="0.12" stroke="none" stroke-width="0.0" fill="#333333" text-anchor="middle">
    <text transform="rotate(0.0, 6.470768906865554e-2, -4.8733079700616466e-2)" x="6.470768906865554e-2" y="-4.8733079700616466e-2">std of ma
    </text>
  </g>
  <g stroke-opacity="0.0" fill-opacity="0.1" stroke="#000000" stroke-width="0.0" fill="#cccccc">
    <rect height="0.893597861978977" width="1.3615079025126047" x="-0.6160462621876469" y="-0.495532010690105"/>
  </g>
  <g stroke-opacity="0.1" stroke="#808080" stroke-width="5.0e-3" fill="none">
    <polyline points="-0.6205846218626889,0.39806585128887195
0.75,0.39806585128887195"/>
  </g>
  <g stroke-opacity="0.1" stroke="#808080" stroke-width="5.0e-3" fill="none">
    <polyline points="-0.6205846218626889,0.31682968201805584
0.75,0.31682968201805584"/>
  </g>
  <g stroke-opacity="0.1" stroke="#808080" stroke-width="5.0e-3" fill="none">
    <polyline points="-0.6205846218626889,0.23559351274723977
0.75,0.23559351274723977"/>
  </g>
  <g stroke-opacity="0.1" stroke="#808080" stroke-width="5.0e-3" fill="none">
    <polyline points="-0.6205846218626889,0.15435734347642371
0.75,0.15435734347642371"/>
  </g>
  <g stroke-opacity="0.1" stroke="#808080" stroke-width="5.0e-3" fill="none">
    <polyline points="-0.6205846218626889,7.31211742056076e-2
0.75,7.31211742056076e-2"/>
  </g>
  <g stroke-opacity="0.1" stroke="#808080" stroke-width="5.0e-3" fill="none">
    <polyline points="-0.6205846218626889,-8.114995065208519e-3
0.75,-8.114995065208519e-3"/>
  </g>
  <g stroke-opacity="0.1" stroke="#808080" stroke-width="5.0e-3" fill="none">
    <polyline points="-0.6205846218626889,-8.935116433602452e-2
0.75,-8.935116433602452e-2"/>
  </g>
  <g stroke-opacity="0.1" stroke="#808080" stroke-width="5.0e-3" fill="none">
    <polyline points="-0.6205846218626889,-0.17058733360684064
0.75,-0.17058733360684064"/>
  </g>
  <g stroke-opacity="0.1" stroke="#808080" stroke-width="5.0e-3" fill="none">
    <polyline points="-0.6205846218626889,-0.25182350287765676
0.75,-0.25182350287765676"/>
  </g>
  <g stroke-opacity="0.1" stroke="#808080" stroke-width="5.0e-3" fill="none">
    <polyline points="-0.6205846218626889,-0.3330596721484729
0.75,-0.3330596721484729"/>
  </g>
  <g stroke-opacity="0.1" stroke="#808080" stroke-width="5.0e-3" fill="none">
    <polyline points="-0.6205846218626889,-0.41429584141928877
0.75,-0.41429584141928877"/>
  </g>
  <g stroke-opacity="0.1" stroke="#808080" stroke-width="5.0e-3" fill="none">
    <polyline points="-0.6205846218626889,-0.495532010690105
0.75,-0.495532010690105"/>
  </g>
  <g fill-opacity="0.8" font-size="5.0e-2" stroke="none" stroke-width="0.0" fill="#333333" text-anchor="end">
    <text x="-0.75" y="0.4110230202875671">1
    </text>
  </g>
  <g fill-opacity="0.8" font-size="5.0e-2" stroke="none" stroke-width="0.0" fill="#333333" text-anchor="end">
    <text x="-0.75" y="0.329786851016751">2
    </text>
  </g>
  <g fill-opacity="0.8" font-size="5.0e-2" stroke="none" stroke-width="0.0" fill="#333333" text-anchor="end">
    <text x="-0.75" y="0.24855068174593498">3
    </text>
  </g>
  <g fill-opacity="0.8" font-size="5.0e-2" stroke="none" stroke-width="0.0" fill="#333333" text-anchor="end">
    <text x="-0.75" y="0.16731451247511892">4
    </text>
  </g>
  <g fill-opacity="0.8" font-size="5.0e-2" stroke="none" stroke-width="0.0" fill="#333333" text-anchor="end">
    <text x="-0.75" y="8.60783432043028e-2">5
    </text>
  </g>
  <g fill-opacity="0.8" font-size="5.0e-2" stroke="none" stroke-width="0.0" fill="#333333" text-anchor="end">
    <text x="-0.75" y="4.8421739334867375e-3">6
    </text>
  </g>
  <g fill-opacity="0.8" font-size="5.0e-2" stroke="none" stroke-width="0.0" fill="#333333" text-anchor="end">
    <text x="-0.75" y="-7.639399533732938e-2">7
    </text>
  </g>
  <g fill-opacity="0.8" font-size="5.0e-2" stroke="none" stroke-width="0.0" fill="#333333" text-anchor="end">
    <text x="-0.75" y="-0.1576301646081455">8
    </text>
  </g>
  <g fill-opacity="0.8" font-size="5.0e-2" stroke="none" stroke-width="0.0" fill="#333333" text-anchor="end">
    <text x="-0.75" y="-0.2388663338789616">9
    </text>
  </g>
  <g fill-opacity="0.8" font-size="5.0e-2" stroke="none" stroke-width="0.0" fill="#333333" text-anchor="end">
    <text x="-0.75" y="-0.3201025031497776">10
    </text>
  </g>
  <g fill-opacity="0.8" font-size="5.0e-2" stroke="none" stroke-width="0.0" fill="#333333" text-anchor="end">
    <text x="-0.75" y="-0.4013386724205936">11
    </text>
  </g>
  <g fill-opacity="0.8" font-size="5.0e-2" stroke="none" stroke-width="0.0" fill="#333333" text-anchor="end">
    <text x="-0.75" y="-0.48257484169140985">12
    </text>
  </g>
  <g stroke-opacity="0.5" fill-opacity="0.5" stroke="#570d66" stroke-width="5.0e-3" fill="#570d66">
    <g transform="rotate(-90.0, -0.7204325867171012, 0.39806585128887195)">
      <polyline points="-0.7204325867171012,0.41306585128887197
-0.7204325867171012,0.38306585128887194"/>
    </g>
    <g transform="rotate(-90.0, -0.7204325867171012, 0.31682968201805584)">
      <polyline points="-0.7204325867171012,0.33182968201805585
-0.7204325867171012,0.3018296820180558"/>
    </g>
    <g transform="rotate(-90.0, -0.7204325867171012, 0.23559351274723977)">
      <polyline points="-0.7204325867171012,0.2505935127472398
-0.7204325867171012,0.22059351274723976"/>
    </g>
    <g transform="rotate(-90.0, -0.7204325867171012, 0.15435734347642371)">
      <polyline points="-0.7204325867171012,0.16935734347642373
-0.7204325867171012,0.1393573434764237"/>
    </g>
    <g transform="rotate(-90.0, -0.7204325867171012, 7.31211742056076e-2)">
      <polyline points="-0.7204325867171012,8.81211742056076e-2
-0.7204325867171012,5.81211742056076e-2"/>
    </g>
    <g transform="rotate(-90.0, -0.7204325867171012, -8.114995065208519e-3)">
      <polyline points="-0.7204325867171012,6.8850049347914805e-3
-0.7204325867171012,-2.311499506520852e-2"/>
    </g>
    <g transform="rotate(-90.0, -0.7204325867171012, -8.935116433602452e-2)">
      <polyline points="-0.7204325867171012,-7.435116433602453e-2
-0.7204325867171012,-0.10435116433602452"/>
    </g>
    <g transform="rotate(-90.0, -0.7204325867171012, -0.17058733360684064)">
      <polyline points="-0.7204325867171012,-0.15558733360684063
-0.7204325867171012,-0.18558733360684065"/>
    </g>
    <g transform="rotate(-90.0, -0.7204325867171012, -0.25182350287765676)">
      <polyline points="-0.7204325867171012,-0.23682350287765674
-0.7204325867171012,-0.26682350287765677"/>
    </g>
    <g transform="rotate(-90.0, -0.7204325867171012, -0.3330596721484729)">
      <polyline points="-0.7204325867171012,-0.31805967214847286
-0.7204325867171012,-0.3480596721484729"/>
    </g>
    <g transform="rotate(-90.0, -0.7204325867171012, -0.41429584141928877)">
      <polyline points="-0.7204325867171012,-0.39929584141928876
-0.7204325867171012,-0.4292958414192888"/>
    </g>
    <g transform="rotate(-90.0, -0.7204325867171012, -0.495532010690105)">
      <polyline points="-0.7204325867171012,-0.480532010690105
-0.7204325867171012,-0.510532010690105"/>
    </g>
  </g>
  <g stroke-opacity="0.5" fill-opacity="0.5" stroke="#570d66" stroke-width="0.0" fill="#570d66">
    <rect height="0.893597861978977" width="4.538359675042014e-3" x="-0.7090866875294962" y="-0.495532010690105"/>
  </g>
  <g stroke-opacity="0.1" stroke="#808080" stroke-width="5.0e-3" fill="none">
    <polyline points="-0.6160462621876469,0.40253384059876685
-0.6160462621876469,-0.5"/>
  </g>
  <g stroke-opacity="0.1" stroke="#808080" stroke-width="5.0e-3" fill="none">
    <polyline points="-0.4458577743735713,0.40253384059876685
-0.4458577743735713,-0.5"/>
  </g>
  <g stroke-opacity="0.1" stroke="#808080" stroke-width="5.0e-3" fill="none">
    <polyline points="-0.27566928655949563,0.40253384059876685
-0.27566928655949563,-0.5"/>
  </g>
  <g stroke-opacity="0.1" stroke="#808080" stroke-width="5.0e-3" fill="none">
    <polyline points="-0.10548079874542005,0.40253384059876685
-0.10548079874542005,-0.5"/>
  </g>
  <g stroke-opacity="0.1" stroke="#808080" stroke-width="5.0e-3" fill="none">
    <polyline points="6.470768906865554e-2,0.40253384059876685
6.470768906865554e-2,-0.5"/>
  </g>
  <g stroke-opacity="0.1" stroke="#808080" stroke-width="5.0e-3" fill="none">
    <polyline points="0.23489617688273112,0.40253384059876685
0.23489617688273112,-0.5"/>
  </g>
  <g stroke-opacity="0.1" stroke="#808080" stroke-width="5.0e-3" fill="none">
    <polyline points="0.4050846646968067,0.40253384059876685
0.4050846646968067,-0.5"/>
  </g>
  <g stroke-opacity="0.1" stroke="#808080" stroke-width="5.0e-3" fill="none">
    <polyline points="0.5752731525108825,0.40253384059876685
0.5752731525108825,-0.5"/>
  </g>
  <g stroke-opacity="0.1" stroke="#808080" stroke-width="5.0e-3" fill="none">
    <polyline points="0.7454616403249579,0.40253384059876685
0.7454616403249579,-0.5"/>
  </g>
  <g fill-opacity="0.8" font-size="5.0e-2" stroke="none" stroke-width="0.0" fill="#333333" text-anchor="end">
    <text transform="rotate(-45.0, -0.6160462621876469, 0.5)" x="-0.6160462621876469" y="0.5">-0.010
    </text>
  </g>
  <g fill-opacity="0.8" font-size="5.0e-2" stroke="none" stroke-width="0.0" fill="#333333" text-anchor="end">
    <text transform="rotate(-45.0, -0.4458577743735713, 0.5)" x="-0.4458577743735713" y="0.5">-0.005
    </text>
  </g>
  <g fill-opacity="0.8" font-size="5.0e-2" stroke="none" stroke-width="0.0" fill="#333333" text-anchor="end">
    <text transform="rotate(-45.0, -0.27566928655949563, 0.5)" x="-0.27566928655949563" y="0.5">0.000
    </text>
  </g>
  <g fill-opacity="0.8" font-size="5.0e-2" stroke="none" stroke-width="0.0" fill="#333333" text-anchor="end">
    <text transform="rotate(-45.0, -0.10548079874542005, 0.5)" x="-0.10548079874542005" y="0.5">0.005
    </text>
  </g>
  <g fill-opacity="0.8" font-size="5.0e-2" stroke="none" stroke-width="0.0" fill="#333333" text-anchor="end">
    <text transform="rotate(-45.0, 6.470768906865554e-2, 0.5)" x="6.470768906865554e-2" y="0.5">0.010
    </text>
  </g>
  <g fill-opacity="0.8" font-size="5.0e-2" stroke="none" stroke-width="0.0" fill="#333333" text-anchor="end">
    <text transform="rotate(-45.0, 0.23489617688273112, 0.5)" x="0.23489617688273112" y="0.5">0.015
    </text>
  </g>
  <g fill-opacity="0.8" font-size="5.0e-2" stroke="none" stroke-width="0.0" fill="#333333" text-anchor="end">
    <text transform="rotate(-45.0, 0.4050846646968067, 0.5)" x="0.4050846646968067" y="0.5">0.020
    </text>
  </g>
  <g fill-opacity="0.8" font-size="5.0e-2" stroke="none" stroke-width="0.0" fill="#333333" text-anchor="end">
    <text transform="rotate(-45.0, 0.5752731525108825, 0.5)" x="0.5752731525108825" y="0.5">0.025
    </text>
  </g>
  <g fill-opacity="0.8" font-size="5.0e-2" stroke="none" stroke-width="0.0" fill="#333333" text-anchor="end">
    <text transform="rotate(-45.0, 0.7454616403249579, 0.5)" x="0.7454616403249579" y="0.5">0.030
    </text>
  </g>
  <g stroke-opacity="0.5" fill-opacity="0.5" stroke="#570d66" stroke-width="5.0e-3" fill="#570d66">
    <polyline points="-0.6160462621876469,0.4401611790592607
-0.6160462621876469,0.4101611790592607"/>
    <polyline points="-0.4458577743735713,0.4401611790592607
-0.4458577743735713,0.4101611790592607"/>
    <polyline points="-0.27566928655949563,0.4401611790592607
-0.27566928655949563,0.4101611790592607"/>
    <polyline points="-0.10548079874542005,0.4401611790592607
-0.10548079874542005,0.4101611790592607"/>
    <polyline points="6.470768906865554e-2,0.4401611790592607
6.470768906865554e-2,0.4101611790592607"/>
    <polyline points="0.23489617688273112,0.4401611790592607
0.23489617688273112,0.4101611790592607"/>
    <polyline points="0.4050846646968067,0.4401611790592607
0.4050846646968067,0.4101611790592607"/>
    <polyline points="0.5752731525108825,0.4401611790592607
0.5752731525108825,0.4101611790592607"/>
    <polyline points="0.7454616403249579,0.4401611790592607
0.7454616403249579,0.4101611790592607"/>
  </g>
  <g stroke-opacity="0.5" fill-opacity="0.5" stroke="#570d66" stroke-width="0.0" fill="#570d66">
    <rect height="4.467989309894893e-3" width="1.3615079025126047" x="-0.6160462621876469" y="0.40952321647462864"/>
  </g>
  <g stroke-opacity="1.0" stroke="#026062" stroke-width="1.2e-2" fill="none">
    <polyline points="-0.27566928655949563,-0.4401708200186023
6.470768906865554e-2,0.395225650682965
0.4050846646968067,0.39492760048387515"/>
  </g>
</svg>