<svg viewBox="-1.0625 -0.6585 2.1125 1.2934999999999999" xmlns="http://www.w3.org/2000/svg" xmlns:xlink="http://www.w3.org/1999/xlink" version="1.1" width="600.0" height="400.0"><g stroke-width="0.0" stroke="none" fill="#000000" transform="translate(-6.249999999999978e-3, -0.5475)" fill-opacity="1.0" font-size="0.12" text-anchor="middle"><text transform="rotate(0.0, 0.0, -0.0)" x="0.0" y="-0.0">forecast error</text></g><g stroke-width="0.0" stroke="#000000" fill="#666666" fill-opacity="3.0e-2" stroke-opacity="0.0"><rect width="2.0" height="1.0" x="-1.0" y="-0.5" /></g><g stroke-width="5.0e-3" stroke="#A8E5EE" fill="none" stroke-opacity="0.3"><polyline points="-1.0,0.505 -1.0,-0.505" /></g><g stroke-width="5.0e-3" stroke="#A8E5EE" fill="none" stroke-opacity="0.3"><polyline points="-0.75,0.505 -0.75,-0.505" /></g><g stroke-width="5.0e-3" stroke="#A8E5EE" fill="none" stroke-opacity="0.3"><polyline points="-0.5,0.505 -0.5,-0.505" /></g><g stroke-width="5.0e-3" stroke="#A8E5EE" fill="none" stroke-opacity="0.3"><polyline points="-0.25,0.505 -0.25,-0.505" /></g><g stroke-width="5.0e-3" stroke="#A8E5EE" fill="none" stroke-opacity="0.3"><polyline points="0.0,0.505 0.0,-0.505" /></g><g stroke-width="5.0e-3" stroke="#A8E5EE" fill="none" stroke-opacity="0.3"><polyline points="0.25,0.505 0.25,-0.505" /></g><g stroke-width="5.0e-3" stroke="#A8E5EE" fill="none" stroke-opacity="0.3"><polyline points="0.5,0.505 0.5,-0.505" /></g><g stroke-width="5.0e-3" stroke="#A8E5EE" fill="none" stroke-opacity="0.3"><polyline points="0.7500000000000002,0.505 0.7500000000000002,-0.505" /></g><g stroke-width="5.0e-3" stroke="#A8E5EE" fill="none" stroke-opacity="0.3"><polyline points="1.0,0.505 1.0,-0.505" /></g><g stroke-width="0.0" stroke="none" fill="#666666" fill-opacity="1.0" font-size="5.0e-2" text-anchor="middle"><text x="-1.0" y="0.60875">-0.04</text></g><g stroke-width="0.0" stroke="none" fill="#666666" fill-opacity="1.0" font-size="5.0e-2" text-anchor="middle"><text x="-0.75" y="0.60875">-0.03</text></g><g stroke-width="0.0" stroke="none" fill="#666666" fill-opacity="1.0" font-size="5.0e-2" text-anchor="middle"><text x="-0.5" y="0.60875">-0.02</text></g><g stroke-width="0.0" stroke="none" fill="#666666" fill-opacity="1.0" font-size="5.0e-2" text-anchor="middle"><text x="-0.25" y="0.60875">-0.01</text></g><g stroke-width="0.0" stroke="none" fill="#666666" fill-opacity="1.0" font-size="5.0e-2" text-anchor="middle"><text x="0.0" y="0.60875">0.00</text></g><g stroke-width="0.0" stroke="none" fill="#666666" fill-opacity="1.0" font-size="5.0e-2" text-anchor="middle"><text x="0.25" y="0.60875">0.01</text></g><g stroke-width="0.0" stroke="none" fill="#666666" fill-opacity="1.0" font-size="5.0e-2" text-anchor="middle"><text x="0.5" y="0.60875">0.02</text></g><g stroke-width="0.0" stroke="none" fill="#666666" fill-opacity="1.0" font-size="5.0e-2" text-anchor="middle"><text x="0.7500000000000002" y="0.60875">0.03</text></g><g stroke-width="0.0" stroke="none" fill="#666666" fill-opacity="1.0" font-size="5.0e-2" text-anchor="middle"><text x="1.0" y="0.60875">0.04</text></g><g stroke-width="0.0" stroke="#2C429D" fill="#5F0391" fill-opacity="1.0" stroke-opacity="0.4"><line stroke-width="5.0e-3" x1="-1.0" y1="0.5425" x2="-1.0" y2="0.5125" /><line stroke-width="5.0e-3" x1="-0.75" y1="0.5425" x2="-0.75" y2="0.5125" /><line stroke-width="5.0e-3" x1="-0.5" y1="0.5425" x2="-0.5" y2="0.5125" /><line stroke-width="5.0e-3" x1="-0.25" y1="0.5425" x2="-0.25" y2="0.5125" /><line stroke-width="5.0e-3" y1="0.5425" y2="0.5125" /><line stroke-width="5.0e-3" x1="0.25" y1="0.5425" x2="0.25" y2="0.5125" /><line stroke-width="5.0e-3" x1="0.5" y1="0.5425" x2="0.5" y2="0.5125" /><line stroke-width="5.0e-3" x1="0.7500000000000002" y1="0.5425" x2="0.7500000000000002" y2="0.5125" /><line stroke-width="5.0e-3" x1="1.0" y1="0.5425" x2="1.0" y2="0.5125" /></g><g stroke-width="0.0" stroke="#666666" fill="#5F0391" fill-opacity="0.5" stroke-opacity="0.0"><rect width="2.0" height="5.0000000000000044e-3" x="-1.0" y="0.5125" /></g><g stroke-width="5.0e-3" stroke="#666666" fill="#FF0000" fill-opacity="0.5" stroke-opacity="0.5"><rect width="7.499999999999996e-2" height="2.836879432624112e-2" x="-0.825" y="0.4716312056737589" /><rect width="7.499999999999996e-2" height="7.092198581560294e-3" x="-0.75" y="0.4929078014184397" /><rect width="7.500000000000007e-2" x="-0.675" y="0.5" /><rect width="7.500000000000007e-2" height="3.546099290780136e-2" x="-0.6" y="0.46453900709219864" /><rect width="7.499999999999996e-2" height="2.836879432624112e-2" x="-0.5249999999999999" y="0.4716312056737589" /><rect width="7.499999999999996e-2" height="6.382978723404253e-2" x="-0.44999999999999996" y="0.43617021276595747" /><rect width="7.500000000000007e-2" height="7.801418439716301e-2" x="-0.375" y="0.421985815602837" /><rect width="7.500000000000007e-2" height="4.255319148936171e-2" x="-0.29999999999999993" y="0.4574468085106383" /><rect width="7.499999999999996e-2" height="0.17730496453900713" x="-0.22499999999999987" y="0.3226950354609929" /><rect width="7.500000000000007e-2" height="0.3546099290780142" x="-0.1499999999999999" y="0.1453900709219858" /><rect width="7.499999999999984e-2" height="1.0" x="-7.499999999999984e-2" y="-0.5" /><rect width="7.500000000000018e-2" height="0.7659574468085099" y="-0.26595744680850986" /><rect width="7.499999999999996e-2" height="0.3617021276595741" x="7.500000000000018e-2" y="0.1382978723404259" /><rect width="7.499999999999996e-2" height="0.28368794326241165" x="0.15000000000000013" y="0.21631205673758835" /><rect width="7.499999999999996e-2" height="0.14893617021276584" x="0.2250000000000001" y="0.35106382978723416" /><rect width="7.499999999999996e-2" height="5.673758865248235e-2" x="0.30000000000000004" y="0.44326241134751765" /><rect width="7.500000000000018e-2" height="5.6737588652482185e-2" x="0.375" y="0.4432624113475178" /><rect width="7.499999999999996e-2" height="2.1276595744680826e-2" x="0.4500000000000002" y="0.4787234042553192" /><rect width="7.499999999999996e-2" height="1.4184397163120588e-2" x="0.5250000000000001" y="0.4858156028368794" /><rect width="7.499999999999996e-2" x="0.6000000000000001" y="0.5" /><rect width="7.500000000000018e-2" height="7.092198581560294e-3" x="0.675" y="0.4929078014184397" /><rect width="7.499999999999996e-2" height="1.4184397163120532e-2" x="0.7500000000000002" y="0.48581560283687947" /></g><g /></svg>