<svg viewBox="-1.0625 -0.6585 2.1125 1.2934999999999999" xmlns="http://www.w3.org/2000/svg" xmlns:xlink="http://www.w3.org/1999/xlink" version="1.1" width="600.0" height="400.0"><g stroke-width="0.0" stroke="none" fill="#000000" transform="translate(-6.249999999999978e-3, -0.5475)" fill-opacity="1.0" font-size="0.12" text-anchor="middle"><text transform="rotate(0.0, 0.0, -0.0)" x="0.0" y="-0.0">forecast error</text></g><g stroke-width="0.0" stroke="#000000" fill="#666666" fill-opacity="3.0e-2" stroke-opacity="0.0"><rect width="2.0" height="1.0" x="-1.0" y="-0.5" /></g><g stroke-width="5.0e-3" stroke="#A8E5EE" fill="none" stroke-opacity="0.3"><polyline points="-1.0,0.505 -1.0,-0.505" /></g><g stroke-width="5.0e-3" stroke="#A8E5EE" fill="none" stroke-opacity="0.3"><polyline points="-0.75,0.505 -0.75,-0.505" /></g><g stroke-width="5.0e-3" stroke="#A8E5EE" fill="none" stroke-opacity="0.3"><polyline points="-0.5,0.505 -0.5,-0.505" /></g><g stroke-width="5.0e-3" stroke="#A8E5EE" fill="none" stroke-opacity="0.3"><polyline points="-0.25,0.505 -0.25,-0.505" /></g><g stroke-width="5.0e-3" stroke="#A8E5EE" fill="none" stroke-opacity="0.3"><polyline points="0.0,0.505 0.0,-0.505" /></g><g stroke-width="5.0e-3" stroke="#A8E5EE" fill="none" stroke-opacity="0.3"><polyline points="0.25,0.505 0.25,-0.505" /></g><g stroke-width="5.0e-3" stroke="#A8E5EE" fill="none" stroke-opacity="0.3"><polyline points="0.5,0.505 0.5,-0.505" /></g><g stroke-width="5.0e-3" stroke="#A8E5EE" fill="none" stroke-opacity="0.3"><polyline points="0.7500000000000002,0.505 0.7500000000000002,-0.505" /></g><g stroke-width="5.0e-3" stroke="#A8E5EE" fill="none" stroke-opacity="0.3"><polyline points="1.0,0.505 1.0,-0.505" /></g><g stroke-width="0.0" stroke="none" fill="#666666" fill-opacity="1.0" font-size="5.0e-2" text-anchor="middle"><text x="-1.0" y="0.60875">-0.04</text></g><g stroke-width="0.0" stroke="none" fill="#666666" fill-opacity="1.0" font-size="5.0e-2" text-anchor="middle"><text x="-0.75" y="0.60875">-0.03</text></g><g stroke-width="0.0" stroke="none" fill="#666666" fill-opacity="1.0" font-size="5.0e-2" text-anchor="middle"><text x="-0.5" y="0.60875">-0.02</text></g><g stroke-width="0.0" stroke="none" fill="#666666" fill-opacity="1.0" font-size="5.0e-2" text-anchor="middle"><text x="-0.25" y="0.60875">-0.01</text></g><g stroke-width="0.0" stroke="none" fill="#666666" fill-opacity="1.0" font-size="5.0e-2" text-anchor="middle"><text x="0.0" y="0.60875">0.00</text></g><g stroke-width="0.0" stroke="none" fill="#666666" fill-opacity="1.0" font-size="5.0e-2" text-anchor="middle"><text x="0.25" y="0.60875">0.01</text></g><g stroke-width="0.0" stroke="none" fill="#666666" fill-opacity="1.0" font-size="5.0e-2" text-anchor="middle"><text x="0.5" y="0.60875">0.02</text></g><g stroke-width="0.0" stroke="none" fill="#666666" fill-opacity="1.0" font-size="5.0e-2" text-anchor="middle"><text x="0.7500000000000002" y="0.60875">0.03</text></g><g stroke-width="0.0" stroke="none" fill="#666666" fill-opacity="1.0" font-size="5.0e-2" text-anchor="middle"><text x="1.0" y="0.60875">0.04</text></g><g stroke-width="0.0" stroke="#2C429D" fill="#5F0391" fill-opacity="1.0" stroke-opacity="0.4"><line stroke-width="5.0e-3" x1="-1.0" y1="0.5425" x2="-1.0" y2="0.5125" /><line stroke-width="5.0e-3" x1="-0.75" y1="0.5425" x2="-0.75" y2="0.5125" /><line stroke-width="5.0e-3" x1="-0.5" y1="0.5425" x2="-0.5" y2="0.5125" /><line stroke-width="5.0e-3" x1="-0.25" y1="0.5425" x2="-0.25" y2="0.5125" /><line stroke-width="5.0e-3" y1="0.5425" y2="0.5125" /><line stroke-width="5.0e-3" x1="0.25" y1="0.5425" x2="0.25" y2="0.5125" /><line stroke-width="5.0e-3" x1="0.5" y1="0.5425" x2="0.5" y2="0.5125" /><line stroke-width="5.0e-3" x1="0.7500000000000002" y1="0.5425" x2="0.7500000000000002" y2="0.5125" /><line stroke-width="5.0e-3" x1="1.0" y1="0.5425" x2="1.0" y2="0.5125" /></g><g stroke-width="0.0" stroke="#666666" fill="#5F0391" fill-opacity="0.5" stroke-opacity="0.0"><rect width="2.0" height="5.0000000000000044e-3" x="-1.0" y="0.5125" /></g><g stroke-width="5.0e-3" stroke="#666666" fill="#FF0000" fill-opacity="0.5" stroke-opacity="0.5"><rect width="7.499999999999996e-2" height="1.851851851851849e-2" x="-0.825" y="0.4814814814814815" /><rect width="7.499999999999996e-2" height="2.777777777777779e-2" x="-0.75" y="0.4722222222222222" /><rect width="7.500000000000007e-2" height="9.259259259259245e-3" x="-0.675" y="0.49074074074074076" /><rect width="7.500000000000007e-2" height="4.6296296296296224e-2" x="-0.6" y="0.4537037037037038" /><rect width="7.499999999999996e-2" height="4.629629629629628e-2" x="-0.5249999999999999" y="0.4537037037037037" /><rect width="7.499999999999996e-2" height="0.10185185185185186" x="-0.44999999999999996" y="0.39814814814814814" /><rect width="7.500000000000007e-2" height="9.259259259259245e-2" x="-0.375" y="0.40740740740740755" /><rect width="7.500000000000007e-2" height="0.12037037037037035" x="-0.29999999999999993" y="0.37962962962962965" /><rect width="7.499999999999996e-2" height="0.34259259259259256" x="-0.22499999999999987" y="0.15740740740740744" /><rect width="7.500000000000007e-2" height="0.5185185185185185" x="-0.1499999999999999" y="-1.851851851851849e-2" /><rect width="7.499999999999984e-2" height="1.0" x="-7.499999999999984e-2" y="-0.5" /><rect width="7.500000000000018e-2" height="0.7870370370370361" y="-0.2870370370370361" /><rect width="7.499999999999996e-2" height="0.49999999999999944" x="7.500000000000018e-2" y="5.551115123125783e-16" /><rect width="7.499999999999996e-2" height="0.4722222222222228" x="0.15000000000000013" y="2.777777777777718e-2" /><rect width="7.499999999999996e-2" height="0.24999999999999972" x="0.2250000000000001" y="0.2500000000000003" /><rect width="7.499999999999996e-2" height="0.12962962962962976" x="0.30000000000000004" y="0.37037037037037024" /><rect width="7.500000000000018e-2" height="8.333333333333326e-2" x="0.375" y="0.41666666666666674" /><rect width="7.499999999999996e-2" height="2.7777777777777735e-2" x="0.4500000000000002" y="0.47222222222222227" /><rect width="7.499999999999996e-2" height="2.777777777777779e-2" x="0.5250000000000001" y="0.4722222222222222" /><rect width="7.499999999999996e-2" x="0.6000000000000001" y="0.5" /><rect width="7.500000000000018e-2" height="9.259259259259245e-3" x="0.675" y="0.49074074074074076" /><rect width="7.499999999999996e-2" height="1.851851851851849e-2" x="0.7500000000000002" y="0.4814814814814815" /></g><g /></svg>