<svg viewBox="-1.0625 -0.6585 2.1125 1.2934999999999999" xmlns="http://www.w3.org/2000/svg" xmlns:xlink="http://www.w3.org/1999/xlink" version="1.1" width="600.0" height="400.0"><g stroke-width="0.0" stroke="none" fill="#000000" transform="translate(-6.249999999999978e-3, -0.5475)" fill-opacity="1.0" font-size="0.12" text-anchor="middle"><text transform="rotate(0.0, 0.0, -0.0)" x="0.0" y="-0.0">daily return</text></g><g stroke-width="0.0" stroke="#000000" fill="#666666" fill-opacity="3.0e-2" stroke-opacity="0.0"><rect width="2.0" height="1.0" x="-1.0" y="-0.5" /></g><g stroke-width="5.0e-3" stroke="#A8E5EE" fill="none" stroke-opacity="0.3"><polyline points="-1.0,0.505 -1.0,-0.505" /></g><g stroke-width="5.0e-3" stroke="#A8E5EE" fill="none" stroke-opacity="0.3"><polyline points="-0.75,0.505 -0.75,-0.505" /></g><g stroke-width="5.0e-3" stroke="#A8E5EE" fill="none" stroke-opacity="0.3"><polyline points="-0.5,0.505 -0.5,-0.505" /></g><g stroke-width="5.0e-3" stroke="#A8E5EE" fill="none" stroke-opacity="0.3"><polyline points="-0.25,0.505 -0.25,-0.505" /></g><g stroke-width="5.0e-3" stroke="#A8E5EE" fill="none" stroke-opacity="0.3"><polyline points="0.0,0.505 0.0,-0.505" /></g><g stroke-width="5.0e-3" stroke="#A8E5EE" fill="none" stroke-opacity="0.3"><polyline points="0.25,0.505 0.25,-0.505" /></g><g stroke-width="5.0e-3" stroke="#A8E5EE" fill="none" stroke-opacity="0.3"><polyline points="0.5,0.505 0.5,-0.505" /></g><g stroke-width="5.0e-3" stroke="#A8E5EE" fill="none" stroke-opacity="0.3"><polyline points="0.7500000000000002,0.505 0.7500000000000002,-0.505" /></g><g stroke-width="5.0e-3" stroke="#A8E5EE" fill="none" stroke-opacity="0.3"><polyline points="1.0,0.505 1.0,-0.505" /></g><g stroke-width="0.0" stroke="none" fill="#666666" fill-opacity="1.0" font-size="5.0e-2" text-anchor="middle"><text x="-1.0" y="0.60875">-0.04</text></g><g stroke-width="0.0" stroke="none" fill="#666666" fill-opacity="1.0" font-size="5.0e-2" text-anchor="middle"><text x="-0.75" y="0.60875">-0.03</text></g><g stroke-width="0.0" stroke="none" fill="#666666" fill-opacity="1.0" font-size="5.0e-2" text-anchor="middle"><text x="-0.5" y="0.60875">-0.02</text></g><g stroke-width="0.0" stroke="none" fill="#666666" fill-opacity="1.0" font-size="5.0e-2" text-anchor="middle"><text x="-0.25" y="0.60875">-0.01</text></g><g stroke-width="0.0" stroke="none" fill="#666666" fill-opacity="1.0" font-size="5.0e-2" text-anchor="middle"><text x="0.0" y="0.60875">0.00</text></g><g stroke-width="0.0" stroke="none" fill="#666666" fill-opacity="1.0" font-size="5.0e-2" text-anchor="middle"><text x="0.25" y="0.60875">0.01</text></g><g stroke-width="0.0" stroke="none" fill="#666666" fill-opacity="1.0" font-size="5.0e-2" text-anchor="middle"><text x="0.5" y="0.60875">0.02</text></g><g stroke-width="0.0" stroke="none" fill="#666666" fill-opacity="1.0" font-size="5.0e-2" text-anchor="middle"><text x="0.7500000000000002" y="0.60875">0.03</text></g><g stroke-width="0.0" stroke="none" fill="#666666" fill-opacity="1.0" font-size="5.0e-2" text-anchor="middle"><text x="1.0" y="0.60875">0.04</text></g><g stroke-width="0.0" stroke="#2C429D" fill="#5F0391" fill-opacity="1.0" stroke-opacity="0.4"><line stroke-width="5.0e-3" x1="-1.0" y1="0.5425" x2="-1.0" y2="0.5125" /><line stroke-width="5.0e-3" x1="-0.75" y1="0.5425" x2="-0.75" y2="0.5125" /><line stroke-width="5.0e-3" x1="-0.5" y1="0.5425" x2="-0.5" y2="0.5125" /><line stroke-width="5.0e-3" x1="-0.25" y1="0.5425" x2="-0.25" y2="0.5125" /><line stroke-width="5.0e-3" y1="0.5425" y2="0.5125" /><line stroke-width="5.0e-3" x1="0.25" y1="0.5425" x2="0.25" y2="0.5125" /><line stroke-width="5.0e-3" x1="0.5" y1="0.5425" x2="0.5" y2="0.5125" /><line stroke-width="5.0e-3" x1="0.7500000000000002" y1="0.5425" x2="0.7500000000000002" y2="0.5125" /><line stroke-width="5.0e-3" x1="1.0" y1="0.5425" x2="1.0" y2="0.5125" /></g><g stroke-width="0.0" stroke="#666666" fill="#5F0391" fill-opacity="0.5" stroke-opacity="0.0"><rect width="2.0" height="5.0000000000000044e-3" x="-1.0" y="0.5125" /></g><g stroke-width="5.0e-3" stroke="#666666" fill="#FF0000" fill-opacity="0.5" stroke-opacity="0.5"><rect width="7.499999999999996e-2" height="3.968253968253965e-2" x="-0.825" y="0.46031746031746035" /><rect width="7.499999999999996e-2" height="7.936507936507964e-3" x="-0.75" y="0.49206349206349204" /><rect width="7.500000000000007e-2" height="1.5873015873015872e-2" x="-0.675" y="0.48412698412698413" /><rect width="7.500000000000007e-2" height="3.968253968253965e-2" x="-0.6" y="0.46031746031746035" /><rect width="7.499999999999996e-2" height="5.5555555555555636e-2" x="-0.5249999999999999" y="0.44444444444444436" /><rect width="7.499999999999996e-2" height="4.761904761904767e-2" x="-0.44999999999999996" y="0.45238095238095233" /><rect width="7.500000000000007e-2" height="7.142857142857145e-2" x="-0.375" y="0.42857142857142855" /><rect width="7.500000000000007e-2" height="3.968253968253971e-2" x="-0.29999999999999993" y="0.4603174603174603" /><rect width="7.499999999999996e-2" height="0.1904761904761907" x="-0.22499999999999987" y="0.3095238095238093" /><rect width="7.500000000000007e-2" height="0.33333333333333376" x="-0.1499999999999999" y="0.16666666666666624" /><rect width="7.499999999999984e-2" height="0.9206349206349218" x="-7.499999999999984e-2" y="-0.4206349206349218" /><rect width="7.500000000000018e-2" height="1.0" y="-0.5" /><rect width="7.499999999999996e-2" height="0.4603174603174604" x="7.500000000000018e-2" y="3.96825396825396e-2" /><rect width="7.499999999999996e-2" height="0.3730158730158739" x="0.15000000000000013" y="0.1269841269841261" /><rect width="7.499999999999996e-2" height="0.18253968253968256" x="0.2250000000000001" y="0.31746031746031744" /><rect width="7.499999999999996e-2" height="7.936507936507953e-2" x="0.30000000000000004" y="0.4206349206349205" /><rect width="7.500000000000018e-2" height="5.555555555555558e-2" x="0.375" y="0.4444444444444444" /><rect width="7.499999999999996e-2" height="1.5873015873015872e-2" x="0.4500000000000002" y="0.48412698412698413" /><rect width="7.499999999999996e-2" height="1.5873015873015928e-2" x="0.5250000000000001" y="0.4841269841269841" /><rect width="7.499999999999996e-2" height="7.936507936507964e-3" x="0.6000000000000001" y="0.49206349206349204" /><rect width="7.500000000000018e-2" x="0.675" y="0.5" /><rect width="7.499999999999996e-2" height="1.5873015873015872e-2" x="0.7500000000000002" y="0.48412698412698413" /></g><g /></svg>