<svg viewBox="-1.4059678118201535 -0.68275 2.413467811820153 1.5020159178324475" xmlns="http://www.w3.org/2000/svg" xmlns:xlink="http://www.w3.org/1999/xlink" version="1.1" width="600.0" height="400.0"><g stroke-width="0.0" stroke="none" fill="#000000" transform="translate(-0.19923390591007695, -0.57175)" fill-opacity="1.0" font-size="0.12" text-anchor="middle"><text transform="rotate(0.0, 0.0, -0.0)" x="0.0" y="-0.0">moving average return</text></g><g stroke-width="0.0" stroke="#000000" fill="#666666" fill-opacity="3.0e-2" stroke-opacity="0.0"><rect width="1.9999999999999998" height="1.0" x="-1.0" y="-0.5" /></g><g stroke-width="5.0e-3" stroke="#A8E5EE" fill="none" stroke-opacity="0.3"><polyline points="-1.005,0.5 1.0049999999999997,0.5" /></g><g stroke-width="5.0e-3" stroke="#A8E5EE" fill="none" stroke-opacity="0.3"><polyline points="-1.005,0.33333333333333337 1.0049999999999997,0.33333333333333337" /></g><g stroke-width="5.0e-3" stroke="#A8E5EE" fill="none" stroke-opacity="0.3"><polyline points="-1.005,0.16666666666666669 1.0049999999999997,0.16666666666666669" /></g><g stroke-width="5.0e-3" stroke="#A8E5EE" fill="none" stroke-opacity="0.3"><polyline points="-1.005,-0.0 1.0049999999999997,-0.0" /></g><g stroke-width="5.0e-3" stroke="#A8E5EE" fill="none" stroke-opacity="0.3"><polyline points="-1.005,-0.16666666666666663 1.0049999999999997,-0.16666666666666663" /></g><g stroke-width="5.0e-3" stroke="#A8E5EE" fill="none" stroke-opacity="0.3"><polyline points="-1.005,-0.33333333333333337 1.0049999999999997,-0.33333333333333337" /></g><g stroke-width="5.0e-3" stroke="#A8E5EE" fill="none" stroke-opacity="0.3"><polyline points="-1.005,-0.5 1.0049999999999997,-0.5" /></g><g stroke-width="0.0" stroke="none" fill="#666666" fill-opacity="1.0" font-size="5.0e-2" text-anchor="end"><text x="-1.2309678118201535" y="0.5145">-8.0e-3</text></g><g stroke-width="0.0" stroke="none" fill="#666666" fill-opacity="1.0" font-size="5.0e-2" text-anchor="end"><text x="-1.2309678118201535" y="0.3478333333333334">-6.0e-3</text></g><g stroke-width="0.0" stroke="none" fill="#666666" fill-opacity="1.0" font-size="5.0e-2" text-anchor="end"><text x="-1.2309678118201535" y="0.1811666666666667">-4.0e-3</text></g><g stroke-width="0.0" stroke="none" fill="#666666" fill-opacity="1.0" font-size="5.0e-2" text-anchor="end"><text x="-1.2309678118201535" y="1.4499999999999999e-2">-2.0e-3</text></g><g stroke-width="0.0" stroke="none" fill="#666666" fill-opacity="1.0" font-size="5.0e-2" text-anchor="end"><text x="-1.2309678118201535" y="-0.15216666666666662">0.0e0</text></g><g stroke-width="0.0" stroke="none" fill="#666666" fill-opacity="1.0" font-size="5.0e-2" text-anchor="end"><text x="-1.2309678118201535" y="-0.31883333333333336">2.0e-3</text></g><g stroke-width="0.0" stroke="none" fill="#666666" fill-opacity="1.0" font-size="5.0e-2" text-anchor="end"><text x="-1.2309678118201535" y="-0.4855">4.0e-3</text></g><g stroke-width="0.0" stroke="#2C429D" fill="#5F0391" fill-opacity="1.0" stroke-opacity="0.4"><line stroke-width="5.0e-3" transform="rotate(-90.0, -1.2008928118201536, 0.5)" x1="-1.2008928118201536" y1="0.515" x2="-1.2008928118201536" y2="0.485" /><line stroke-width="5.0e-3" transform="rotate(-90.0, -1.2008928118201536, 0.33333333333333337)" x1="-1.2008928118201536" y1="0.3483333333333334" x2="-1.2008928118201536" y2="0.31833333333333336" /><line stroke-width="5.0e-3" transform="rotate(-90.0, -1.2008928118201536, 0.16666666666666669)" x1="-1.2008928118201536" y1="0.1816666666666667" x2="-1.2008928118201536" y2="0.15166666666666667" /><line stroke-width="5.0e-3" transform="rotate(-90.0, -1.2008928118201536, -0.0)" x1="-1.2008928118201536" y1="1.5e-2" x2="-1.2008928118201536" y2="-1.5e-2" /><line stroke-width="5.0e-3" transform="rotate(-90.0, -1.2008928118201536, -0.16666666666666663)" x1="-1.2008928118201536" y1="-0.15166666666666662" x2="-1.2008928118201536" y2="-0.18166666666666664" /><line stroke-width="5.0e-3" transform="rotate(-90.0, -1.2008928118201536, -0.33333333333333337)" x1="-1.2008928118201536" y1="-0.31833333333333336" x2="-1.2008928118201536" y2="-0.3483333333333334" /><line stroke-width="5.0e-3" transform="rotate(-90.0, -1.2008928118201536, -0.5)" x1="-1.2008928118201536" y1="-0.485" x2="-1.2008928118201536" y2="-0.515" /></g><g stroke-width="0.0" stroke="#666666" fill="#5F0391" fill-opacity="0.5" stroke-opacity="0.0"><rect width="4.999999999999893e-3" height="1.0" x="-1.1908928118201536" y="-0.5" /></g><g stroke-width="5.0e-3" stroke="#A8E5EE" fill="none" stroke-opacity="0.3"><polyline points="-1.0,0.505 -1.0,-0.505" /></g><g stroke-width="5.0e-3" stroke="#A8E5EE" fill="none" stroke-opacity="0.3"><polyline points="-0.8637274549098197,0.505 -0.8637274549098197,-0.505" /></g><g stroke-width="5.0e-3" stroke="#A8E5EE" fill="none" stroke-opacity="0.3"><polyline points="-0.6112224448897796,0.505 -0.6112224448897796,-0.505" /></g><g stroke-width="5.0e-3" stroke="#A8E5EE" fill="none" stroke-opacity="0.3"><polyline points="-0.3587174348697396,0.505 -0.3587174348697396,-0.505" /></g><g stroke-width="5.0e-3" stroke="#A8E5EE" fill="none" stroke-opacity="0.3"><polyline points="-0.1062124248496995,0.505 -0.1062124248496995,-0.505" /></g><g stroke-width="5.0e-3" stroke="#A8E5EE" fill="none" stroke-opacity="0.3"><polyline points="0.13827655310621223,0.505 0.13827655310621223,-0.505" /></g><g stroke-width="5.0e-3" stroke="#A8E5EE" fill="none" stroke-opacity="0.3"><polyline points="0.3947895791583165,0.505 0.3947895791583165,-0.505" /></g><g stroke-width="5.0e-3" stroke="#A8E5EE" fill="none" stroke-opacity="0.3"><polyline points="0.6472945891783566,0.505 0.6472945891783566,-0.505" /></g><g stroke-width="5.0e-3" stroke="#A8E5EE" fill="none" stroke-opacity="0.3"><polyline points="0.8997995991983965,0.505 0.8997995991983965,-0.505" /></g><g stroke-width="5.0e-3" stroke="#A8E5EE" fill="none" stroke-opacity="0.3"><polyline points="0.9999999999999998,0.505 0.9999999999999998,-0.505" /></g><g stroke-width="0.0" stroke="none" fill="#666666" fill-opacity="1.0" font-size="5.0e-2" text-anchor="end"><text transform="rotate(-45.0, -1.0, 0.6062500000000001)" x="-1.0" y="0.6062500000000001">10 Feb 2017</text></g><g stroke-width="0.0" stroke="none" fill="#666666" fill-opacity="1.0" font-size="5.0e-2" text-anchor="end"><text transform="rotate(-45.0, -0.8637274549098197, 0.6062500000000001)" x="-0.8637274549098197" y="0.6062500000000001">31 Mar 2017</text></g><g stroke-width="0.0" stroke="none" fill="#666666" fill-opacity="1.0" font-size="5.0e-2" text-anchor="end"><text transform="rotate(-45.0, -0.6112224448897796, 0.6062500000000001)" x="-0.6112224448897796" y="0.6062500000000001">30 Jun 2017</text></g><g stroke-width="0.0" stroke="none" fill="#666666" fill-opacity="1.0" font-size="5.0e-2" text-anchor="end"><text transform="rotate(-45.0, -0.3587174348697396, 0.6062500000000001)" x="-0.3587174348697396" y="0.6062500000000001">30 Sep 2017</text></g><g stroke-width="0.0" stroke="none" fill="#666666" fill-opacity="1.0" font-size="5.0e-2" text-anchor="end"><text transform="rotate(-45.0, -0.1062124248496995, 0.6062500000000001)" x="-0.1062124248496995" y="0.6062500000000001">31 Dec 2017</text></g><g stroke-width="0.0" stroke="none" fill="#666666" fill-opacity="1.0" font-size="5.0e-2" text-anchor="end"><text transform="rotate(-45.0, 0.13827655310621223, 0.6062500000000001)" x="0.13827655310621223" y="0.6062500000000001">31 Mar 2018</text></g><g stroke-width="0.0" stroke="none" fill="#666666" fill-opacity="1.0" font-size="5.0e-2" text-anchor="end"><text transform="rotate(-45.0, 0.3947895791583165, 0.6062500000000001)" x="0.3947895791583165" y="0.6062500000000001">30 Jun 2018</text></g><g stroke-width="0.0" stroke="none" fill="#666666" fill-opacity="1.0" font-size="5.0e-2" text-anchor="end"><text transform="rotate(-45.0, 0.6472945891783566, 0.6062500000000001)" x="0.6472945891783566" y="0.6062500000000001">30 Sep 2018</text></g><g stroke-width="0.0" stroke="none" fill="#666666" fill-opacity="1.0" font-size="5.0e-2" text-anchor="end"><text transform="rotate(-45.0, 0.8997995991983965, 0.6062500000000001)" x="0.8997995991983965" y="0.6062500000000001">31 Dec 2018</text></g><g stroke-width="0.0" stroke="none" fill="#666666" fill-opacity="1.0" font-size="5.0e-2" text-anchor="end"><text transform="rotate(-45.0, 0.9999999999999998, 0.6062500000000001)" x="0.9999999999999998" y="0.6062500000000001">06 Feb 2019</text></g><g stroke-width="0.0" stroke="#2C429D" fill="#5F0391" fill-opacity="1.0" stroke-opacity="0.4"><line stroke-width="5.0e-3" x1="-1.0" y1="0.54" x2="-1.0" y2="0.51" /><line stroke-width="5.0e-3" x1="-0.8637274549098197" y1="0.54" x2="-0.8637274549098197" y2="0.51" /><line stroke-width="5.0e-3" x1="-0.6112224448897796" y1="0.54" x2="-0.6112224448897796" y2="0.51" /><line stroke-width="5.0e-3" x1="-0.3587174348697396" y1="0.54" x2="-0.3587174348697396" y2="0.51" /><line stroke-width="5.0e-3" x1="-0.1062124248496995" y1="0.54" x2="-0.1062124248496995" y2="0.51" /><line stroke-width="5.0e-3" x1="0.13827655310621223" y1="0.54" x2="0.13827655310621223" y2="0.51" /><line stroke-width="5.0e-3" x1="0.3947895791583165" y1="0.54" x2="0.3947895791583165" y2="0.51" /><line stroke-width="5.0e-3" x1="0.6472945891783566" y1="0.54" x2="0.6472945891783566" y2="0.51" /><line stroke-width="5.0e-3" x1="0.8997995991983965" y1="0.54" x2="0.8997995991983965" y2="0.51" /><line stroke-width="5.0e-3" x1="0.9999999999999998" y1="0.54" x2="0.9999999999999998" y2="0.51" /></g><g stroke-width="0.0" stroke="#666666" fill="#5F0391" fill-opacity="0.5" stroke-opacity="0.0"><rect width="1.9999999999999998" height="5.0000000000000044e-3" x="-1.0" y="0.51" /></g><g stroke-width="5.0e-3" stroke="#C58C4B" fill="none" stroke-opacity="0.5"><polyline points="-1.0,-0.16666666666666663 0.9999999999999998,-0.16666666666666663" /></g><g stroke-width="5.0e-3" stroke="#3C7F2B" fill="none" stroke-opacity="0.5"><polyline points="-1.0,-0.2545342962738567 -0.9959919839679359,-0.2719414707752582 -0.9919839679358717,-0.2833415936623972 -0.9879759519038076,-0.29825738364274 -0.9839679358717435,-0.2880757999810808 -0.9799599198396793,-0.28899346479135857 -0.9759519038076152,-0.3080015004929637 -0.9719438877755511,-0.29642314889255517 -0.9679358717434869,-0.29168073851131016 -0.9639278557114228,-0.2916477436956232 -0.9599198396793587,-0.28963812826721713 -0.9559118236472945,-0.27273244711749645 -0.9519038076152304,-0.32401753697567937 -0.9478957915831663,-0.2916620061863072 -0.9438877755511023,-0.2875111985327181 -0.9398797595190381,-0.267791378131611 -0.935871743486974,-0.2505783679958391 -0.9318637274549099,-0.23685433151032398 -0.9278557114228457,-0.23667651381752863 -0.9238476953907816,-0.24677327116845993 -0.9198396793587175,-0.24429529760739277 -0.9158316633266533,-0.2263107444826783 -0.9118236472945892,-0.25807803765698023 -0.9078156312625251,-0.24672399069615814 -0.9038076152304609,-0.23724121056563274 -0.8997995991983968,-0.225329500223578 -0.8957915831663327,-0.17037304806560316 -0.8917835671342685,-0.17805482305525022 -0.8877755511022044,-0.1730652817149706 -0.8837675350701403,-0.1692272157935475 -0.8797595190380761,-0.16484874109071468 -0.875751503006012,-0.19504508999682535 -0.8717434869739479,-0.19814590397870202 -0.8677354709418837,-0.20878365462914672 -0.8637274549098196,-0.1972711636302955 -0.8597194388777555,-0.18889312466837482 -0.8557114228456915,-0.19011249335975333 -0.8517034068136273,-0.17619213186580618 -0.8476953907815632,-0.18374773471987504 -0.8436873747494991,-0.17944587969195658 -0.8396793587174349,-0.18167129452367436 -0.8356713426853708,-0.17494227824880082 -0.8316633266533067,-0.15883250958799777 -0.8276553106212425,-0.1307324652883266 -0.8236472945891784,-0.1682644497934499 -0.8196392785571143,-0.15606954764102654 -0.8156312625250501,-0.14944179871747398 -0.811623246492986,-0.1816732519313724 -0.8076152304609219,-0.16825755464099834 -0.8036072144288577,-0.21310191281019153 -0.7995991983967936,-0.2360810429193625 -0.7955911823647295,-0.23058606839397944 -0.7915831663326653,-0.22969329525978388 -0.7875751503006012,-0.21856288158091497 -0.7835671342685371,-0.2231797035295594 -0.779559118236473,-0.22530548372985293 -0.7755511022044088,-0.21707283717006598 -0.7715430861723447,-0.21697725116791833 -0.7675350701402806,-0.23146321854811147 -0.7635270541082164,-0.22837941335446588 -0.7595190380761523,-0.22101971525845632 -0.7555110220440882,-0.2230102409265191 -0.751503006012024,-0.21117159712224143 -0.7474949899799599,-0.2027816201206909 -0.7434869739478958,-0.2208306320196387 -0.7394789579158316,-0.21525938027147906 -0.7354709418837675,-0.13639029313648188 -0.7314629258517034,-0.15323760714074208 -0.7274549098196392,-0.18201198880829328 -0.7234468937875751,-0.20268998807046334 -0.719438877755511,-0.20853959295318236 -0.7154308617234469,-0.21680442133852085 -0.7114228456913828,-0.232764665762067 -0.7074148296593187,-0.2307535232462492 -0.7034068136272545,-0.2225268861418359 -0.6993987975951904,-0.2178168980707511 -0.6953907815631263,-0.24668686850371768 -0.6913827655310621,-0.25810616800990105 -0.687374749498998,-0.24845749772615078 -0.6833667334669339,-0.23277250259498583 -0.6793587174348698,-0.23599649838685788 -0.6753507014028056,-0.23364321028667168 -0.6713426853707415,-0.22683465957339422 -0.6673346693386774,-0.21974608284962294 -0.6633266533066133,-0.2358477737506276 -0.6593186372745492,-0.22823735566765713 -0.6553106212424851,-0.21581669695752526 -0.6513026052104209,-0.21454085787251465 -0.6472945891783568,-0.24678291236908323 -0.6432865731462927,-0.21478059760802526 -0.6392785571142285,-0.20994650837485507 -0.6352705410821644,-0.20588299212600025 -0.6312625250501003,-0.21042092012761127 -0.6272545090180361,-0.20954883962915516 -0.623246492985972,-0.1736314545192259 -0.6192384769539079,-0.20982280430411282 -0.6152304609218437,-0.17167659430255489 -0.6112224448897796,-0.1778096714073124 -0.6072144288577155,-0.18686988834015594 -0.6032064128256514,-0.19191066023192138 -0.5991983967935872,-0.15142768021543618 -0.5951903807615231,-0.17878426586216778 -0.591182364729459,-0.18204228633312303 -0.5871743486973948,-0.17801105811427687 -0.5831663326653307,-0.20777321800113613 -0.5791583166332666,-0.21352134636111086 -0.5751503006012024,-0.23060618075839012 -0.5711422845691383,-0.22718872898814424 -0.5671342685370742,-0.22665295235167748 -0.56312625250501,-0.24597971447149358 -0.5591182364729459,-0.24137376579972702 -0.5551102204408818,-0.23610533048891336 -0.5511022044088176,-0.22819880973774231 -0.5470941883767535,-0.2372843177503282 -0.5430861723446894,-0.23493103469606025 -0.5390781563126252,-0.22746297655938275 -0.5350701402805611,-0.21883142944157663 -0.531062124248497,-0.21318814586935197 -0.5270541082164328,-0.22105424209328017 -0.5230460921843687,-0.220387059669795 -0.5190380761523046,-0.20859253279406753 -0.5150300601202404,-0.2143600787015072 -0.5110220440881764,-0.21883309414418828 -0.5070140280561123,-0.20615247220451194 -0.5030060120240482,-0.20266287087032775 -0.498997995991984,-0.1401121499744068 -0.4949899799599199,-0.14675136312213855 -0.49098196392785576,-0.18938734262274404 -0.4869739478957916,-0.18617242323155392 -0.4829659318637275,-0.1911100334182052 -0.47895791583166336,-0.12506560583141602 -0.47494989979959923,-0.11949126851092029 -0.4709418837675351,-0.12669160327909867 -0.46693386773547096,-0.16990575408765585 -0.46292585170340683,-0.15532892365920292 -0.4589178356713427,-0.1472432416435574 -0.45490981963927857,-0.15517887796791607 -0.45090180360721444,-0.1577822395155818 -0.4468937875751503,-0.16173673974045955 -0.44288577154308617,-0.1811687850963818 -0.43887775551102204,-0.20421315167961063 -0.434869739478958,-0.21058823680735206 -0.4308617234468939,-0.17681108129328482 -0.42685370741482975,-0.18931987026169028 -0.4228456913827656,-0.1874436605816988 -0.4188376753507015,-0.18019664364885601 -0.41482965931863736,-0.224440873473031 -0.4108216432865732,-0.2355450905355262 -0.4068136272545091,-0.23525464584540745 -0.40280561122244496,-0.22723639750767588 -0.3987975951903808,-0.23189740027315997 -0.3947895791583167,-0.23469778876670222 -0.39078156312625256,-0.23591948080536862 -0.38677354709418843,-0.2350991182067783 -0.3827655310621243,-0.21896680514641476 -0.37875751503006017,-0.21905006479053035 -0.37474949899799603,-0.20716204962472495 -0.3707414829659319,-0.20543796469977493 -0.36673346693386777,-0.22048615952000616 -0.36272545090180364,-0.22281139660949156 -0.3587174348697395,-0.23541358819233726 -0.35470941883767537,-0.2480867376286755 -0.35070140280561124,-0.253001197453407 -0.3466933867735471,-0.2538759026560523 -0.342685370741483,-0.2729775407850471 -0.33867735470941884,-0.2631861176063981 -0.3346693386773547,-0.2508348783794727 -0.3306613226452907,-0.2562919677108402 -0.32665330661322656,-0.25931854712755087 -0.3226452905811624,-0.24765188273888938 -0.3186372745490983,-0.247259796572466 -0.31462925851703416,-0.250518567778401 -0.31062124248497003,-0.24912744178802626 -0.3066132264529059,-0.24809631873059734 -0.30260521042084176,-0.24539127011769213 -0.29859719438877763,-0.262720856924862 -0.2945891783567135,-0.24133316607854816 -0.29058116232464937,-0.24433567915082932 -0.28657314629258523,-0.22097741229883416 -0.2825651302605211,-0.22355412189544632 -0.27855711422845697,-0.25421229069545914 -0.27454909819639284,-0.23651177080197572 -0.2705410821643287,-0.23695290341302022 -0.2665330661322646,-0.24006710763126837 -0.26252505010020044,-0.2371885358599919 -0.2585170340681363,-0.2465469808808889 -0.2545090180360722,-0.24784648148215116 -0.25050100200400804,-0.24299948776388403 -0.2464929859719439,-0.24519373771521558 -0.24248496993987978,-0.2255632946453452 -0.23847695390781565,-0.2188766014257848 -0.23446893787575152,-0.2203625667171969 -0.2304609218436875,-0.20804326890091096 -0.22645290581162336,-0.182886944028667 -0.22244488977955923,-0.21608698440741436 -0.2184368737474951,-0.20266006431720063 -0.21442885771543096,-0.20617235242999188 -0.21042084168336683,-0.23136306231743142 -0.2064128256513027,-0.22500098154641301 -0.20240480961923857,-0.2306425340290733 -0.19839679358717444,-0.22584235904934946 -0.1943887775551103,-0.26371829161751503 -0.19038076152304617,-0.2573269853872697 -0.18637274549098204,-0.2867839142531027 -0.1823647294589179,-0.2723339569728045 -0.17835671342685377,-0.26266429739266495 -0.17434869739478964,-0.24225445540341917 -0.1703406813627255,-0.2379995999016561 -0.16633266533066138,-0.24663323096518897 -0.16232464929859725,-0.2655149119722561 -0.1583166332665331,-0.2738926748469127 -0.15430861723446898,-0.27498022298725755 -0.15030060120240485,-0.26759342565996 -0.14629258517034072,-0.24555055532914039 -0.14228456913827658,-0.278832667035973 -0.13827655310621245,-0.2955096936304955 -0.13426853707414832,-0.27558630106668913 -0.1302605210420842,-0.2666893352454961 -0.12625250501002017,-0.26995356381151925 -0.12224448897795603,-0.2628797545230843 -0.1182364729458919,-0.2536567012101827 -0.11422845691382777,-0.25260148381779 -0.11022044088176364,-0.25593940566672735 -0.1062124248496995,-0.22982313360303663 -0.10220440881763537,-0.261119804118248 -9.819639278557124e-2,-0.2829739524247442 -9.418837675350711e-2,-0.293910849051621 -9.018036072144298e-2,-0.3167534143045163 -8.617234468937884e-2,-0.316169759903271 -8.216432865731471e-2,-0.31411995304075513 -7.815631262525058e-2,-0.302110430558016 -7.414829659318645e-2,-0.3245425177227661 -7.014028056112231e-2,-0.344677584204067 -6.613226452905818e-2,-0.3210657336086058 -6.212424849699405e-2,-0.3523916398716619 -5.811623246492992e-2,-0.3363649839258629 -5.4108216432865786e-2,-0.34611193537228024 -5.010020040080165e-2,-0.3706161903780295 -4.609218436873752e-2,-0.369468734731923 -4.208416833667339e-2,-0.3569947453482454 -3.8076152304609256e-2,-0.3499885056677461 -3.4068136272545124e-2,-0.3898709055544358 -3.0060120240480992e-2,-0.3505659589282344 -2.605210420841686e-2,-0.29570998359027634 -2.204408817635284e-2,-0.2912947588908973 -1.8036072144288706e-2,-0.28236210985470256 -1.4028056112224574e-2,-0.1872578365173435 -1.0020040080160442e-2,-1.1884356526363105e-2 -6.012024048096309e-3,-9.16675289451786e-2 -2.004008016032177e-3,-7.452524241012548e-2 2.004008016031955e-3,8.028040389794511e-2 6.012024048096087e-3,6.159528431644079e-3 1.002004008016022e-2,-6.005955470899582e-2 1.4028056112224352e-2,-7.626291792238149e-2 1.8036072144288484e-2,-0.13625577215515272 2.2044088176352616e-2,-0.18776324039891767 2.605210420841675e-2,-0.1882642443019259 3.006012024048088e-2,-0.16277387738179439 3.406813627254501e-2,-0.140003247613245 3.8076152304609145e-2,-0.14539090837827295 4.208416833667328e-2,-0.21271002247839377 4.609218436873741e-2,-0.2591096825283694 5.010020040080154e-2,-0.20120289976313432 5.4108216432865675e-2,-0.1529852296852401 5.811623246492981e-2,-9.777777752542094e-2 6.212424849699394e-2,-0.12230049464296733 6.613226452905807e-2,-0.17023387599924222 7.01402805611222e-2,-0.18103627808500145 7.414829659318634e-2,-0.17830116545593488 7.815631262525047e-2,-0.19627422490914725 8.21643286573146e-2,-0.2665836240964048 8.617234468937873e-2,-0.25627612188908633 9.018036072144286e-2,-0.22519602231197589 9.4188376753507e-2,-0.1983488456022735 9.819639278557113e-2,-0.1935054188467078 0.10220440881763526,-0.19925513989560306 0.1062124248496994,-0.1380172138155623 0.11022044088176353,-0.14561930506694398 0.11422845691382766,-0.13898129046531227 0.11823647294589179,-3.417852902938601e-2 0.12224448897795592,4.7487926870124375e-2 0.12625250501002006,-7.486580564059941e-2 0.13026052104208397,-6.842157934657589e-3 0.1342685370741481,-2.6628882558598077e-3 0.13827655310621223,-6.784548310491689e-2 0.14228456913827636,2.134130021647479e-2 0.1462925851703405,-4.0292269700095806e-2 0.15030060120240463,-9.452808229249765e-2 0.15430861723446876,-0.12663260149593714 0.1583166332665329,-3.6284025653836816e-2 0.16232464929859702,-5.6682302753439884e-2 0.16633266533066116,-0.13130068331409106 0.1703406813627253,-0.10998279141653489 0.17434869739478942,-0.1470540633600127 0.17835671342685355,-0.13598969488358237 0.18236472945891768,-0.17117494671316535 0.18637274549098182,-0.2151373315812709 0.19038076152304595,-0.21617638336647282 0.19438877755511008,-0.18977347302330494 0.1983967935871742,-0.15289656145556907 0.20240480961923835,-0.1538193580902132 0.20641282565130248,-9.833302423208068e-2 0.2104208416833666,-0.10939709780541607 0.21442885771543074,-0.15551117693717387 0.21843687374749488,-0.16070647385167436 0.222444889779559,-0.12674951497971831 0.22645290581162314,-0.1393528816093258 0.23046092184368727,-0.11058544078420418 0.2344689378757514,-0.1039885945335749 0.23847695390781554,-0.16016337419655235 0.24248496993987967,-0.17487179122928076 0.2464929859719438,-0.17335454902153946 0.25050100200400793,-0.21316868767429076 0.25450901803607207,-0.2497061345199154 0.2585170340681362,-0.2526630757596353 0.26252505010020033,-0.25204283642985525 0.26653306613226446,-0.21916713137478994 0.2705410821643286,-0.23342685786380135 0.2745490981963927,-0.22652118687629164 0.27855711422845686,-0.2125465224739237 0.282565130260521,-0.2409175485346542 0.2865731462925851,-0.22411880099231574 0.29058116232464926,-0.23475929983080734 0.2945891783567134,-0.22291607296870786 0.2985971943887775,-0.21027025604509952 0.30260521042084165,-0.15962519064827008 0.3066132264529058,-0.2125434127608704 0.3106212424849699,-0.18148568730531955 0.31462925851703405,-0.22570640072089376 0.3186372745490982,-0.2413777260959239 0.3226452905811623,-0.2405686164593045 0.32665330661322645,-0.2724189385479098 0.3306613226452906,-0.2641544757302755 0.3346693386773545,-0.27228437222961643 0.3386773547094186,-0.27145405825883173 0.34268537074148275,-0.27347246952110293 0.3466933867735469,-0.2513227852233547 0.350701402805611,-0.25737539750685035 0.35470941883767515,-0.24859987650396498 0.3587174348697393,-0.23563491958902405 0.3627254509018034,-0.21538851564373984 0.36673346693386755,-0.22008029842262422 0.3707414829659317,-0.19088574755098608 0.3747494989979958,-0.1974256403316046 0.37875751503005994,-0.13830551178128536 0.3827655310621241,-0.14889919780535132 0.3867735470941882,-0.11378096127810056 0.39078156312625234,-0.14209058029393207 0.3947895791583165,-0.14647819989999522 0.3987975951903806,-0.16025121043078716 0.40280561122244474,-0.1399068616007596 0.40681362725450887,-0.17701092052888967 0.410821643286573,-0.2116833646046239 0.41482965931863713,-0.24603374204295525 0.41883767535070127,-0.2565122604119482 0.4228456913827654,-0.22235545471599039 0.42685370741482953,-0.25586681276710055 0.43086172344689366,-0.2559012042286002 0.4348697394789578,-0.2471533746942549 0.4388777555110219,-0.25965330711036894 0.44288577154308606,-0.2639963998755558 0.4468937875751502,-0.24262646793999432 0.4509018036072143,-0.23487473732500797 0.45490981963927846,-0.2391158430456357 0.4589178356713426,-0.25536637977322085 0.4629258517034067,-0.28868320689281735 0.46693386773547085,-0.2699286183574615 0.470941883767535,-0.23733287648474666 0.4749498997995991,-0.20975461155450126 0.47895791583166325,-0.22790370212034639 0.4829659318637274,-0.22050479536710832 0.4869739478957915,-0.23828934658695633 0.49098196392785565,-0.25401417959663286 0.4949899799599198,-0.264363397321721 0.4989979959919839,-0.27122940165127674 0.503006012024048,-0.26490787159658435 0.5070140280561122,-0.25398450026383834 0.5110220440881763,-0.21987147389972495 0.5150300601202404,-0.20048607756370462 0.5190380761523046,-0.22533231498166095 0.5230460921843687,-0.19060232977460312 0.5270541082164328,-0.22227310693651892 0.531062124248497,-0.2333161456899454 0.5350701402805611,-0.24008815047419818 0.539078156312625,-0.24502707593506945 0.5430861723446891,-0.23944975879810904 0.5470941883767533,-0.22875771268307343 0.5511022044088174,-0.25140193517824283 0.5551102204408815,-0.2790032612006649 0.5591182364729457,-0.2745082744751507 0.5631262525050098,-0.2928047036084245 0.5671342685370739,-0.26799708526808586 0.5711422845691381,-0.26349085002229866 0.5751503006012022,-0.2517509237380755 0.5791583166332663,-0.23580061594804513 0.5831663326653305,-0.2170981222510544 0.5871743486973946,-0.2053440585152131 0.5911823647294587,-0.21131030623411062 0.5951903807615229,-0.22463173163336558 0.599198396793587,-0.2232193460811902 0.6032064128256511,-0.24234317977657505 0.6072144288577153,-0.23970703585300246 0.6112224448897794,-0.21278297251580447 0.6152304609218435,-0.232788211173375 0.6192384769539077,-0.2347008332571584 0.6232464929859718,-0.2638408509461099 0.6272545090180359,-0.25744630467238727 0.6312625250501,-0.23823281268498864 0.6352705410821642,-0.22921305417760074 0.6392785571142283,-0.21235781930897835 0.6432865731462925,-0.22157107886999194 0.6472945891783566,-0.21879723198898982 0.6513026052104207,-0.23133442264145465 0.6553106212424848,-0.22644783140626434 0.659318637274549,-0.22642238439388174 0.6633266533066131,-0.1892552833136979 0.6673346693386772,-0.1650287084656341 0.6713426853707414,-0.16346396279561803 0.6753507014028055,-0.15771197331928433 0.6793587174348696,-1.8924754021790835e-2 0.6833667334669338,6.0303067722098314e-2 0.6873747494989979,-9.821400434250283e-3 0.691382765531062,7.013346178214863e-3 0.6953907815631262,-9.028660488947637e-2 0.6993987975951903,-9.30527151245778e-2 0.7034068136272544,-3.6331368098300176e-2 0.7074148296593186,-4.13429866295596e-2 0.7114228456913827,-2.9655850126496297e-2 0.7154308617234468,-1.3476905966173236e-2 0.719438877755511,0.10949182926335554 0.7234468937875751,1.8793413981573692e-2 0.7274549098196392,8.23501517407289e-2 0.7314629258517034,9.732101141366417e-2 0.7354709418837675,1.9349448168932193e-2 0.7394789579158316,-3.492168506554527e-2 0.7434869739478958,-8.526934617284165e-2 0.7474949899799597,-6.293620870474281e-2 0.7515030060120238,-9.139228867101923e-2 0.7555110220440879,-0.12115512229444503 0.7595190380761521,-0.21087686106754022 0.7635270541082162,-0.19819939641853135 0.7675350701402803,-0.1581161524869329 0.7715430861723445,-7.56347158590518e-2 0.7755511022044086,-7.400706840337934e-2 0.7795591182364727,-4.698926083013877e-2 0.7835671342685369,-9.688160081345676e-2 0.787575150300601,-0.10962434482173022 0.7915831663326651,-4.254662099214146e-2 0.7955911823647293,2.757235681867376e-2 0.7995991983967934,5.199283616502126e-3 0.8036072144288575,2.4007734823822957e-2 0.8076152304609217,-4.974671702886624e-2 0.8116232464929858,-6.916098315869956e-2 0.8156312625250499,-0.16867814747464394 0.819639278557114,-0.159471346518261 0.8236472945891782,-0.19373756127204023 0.8276553106212423,-0.2377256902162722 0.8316633266533064,-9.708845311837033e-2 0.8356713426853706,-9.421991326096502e-2 0.8396793587174347,4.7581340225882895e-4 0.8436873747494988,-1.5217158030099931e-2 0.847695390781563,-2.130459221007186e-2 0.8517034068136271,-5.109299171366266e-2 0.8557114228456912,-5.603854962616017e-2 0.8597194388777554,1.8726762485259285e-2 0.8637274549098195,9.692494486948561e-2 0.8677354709418836,8.33853769160115e-2 0.8717434869739478,0.13553052102041702 0.8757515030060119,0.18666153437928923 0.879759519038076,0.2556747936052777 0.8837675350701402,0.3490851066521746 0.8877755511022043,0.12161761192395287 0.8917835671342684,7.167744387674546e-2 0.8957915831663326,6.493671315913596e-2 0.8997995991983967,1.812060211110017e-2 0.9038076152304608,3.5991853087681824e-3 0.907815631262525,9.953727407790214e-2 0.9118236472945891,-5.44370843241353e-2 0.9158316633266532,-8.915679675937349e-2 0.9198396793587174,-0.13323473797700924 0.9238476953907815,-0.15194663190935098 0.9278557114228456,-0.1714669732836891 0.9318637274549098,-0.17061733871667928 0.9358717434869739,-0.1484556599438629 0.939879759519038,-0.19380212323399537 0.9438877755511021,-0.2016933528833007 0.9478957915831663,-0.23145339606642124 0.9519038076152302,-0.2827845297612136 0.9559118236472943,-0.2175683158484284 0.9599198396793585,-0.22419194165964895 0.9639278557114226,-0.22704392844669563 0.9679358717434867,-0.25924534800677046 0.9719438877755509,-0.22179234807874937 0.975951903807615,-0.21296394707008892 0.9799599198396791,-0.2749391245318652 0.9839679358717432,-0.3051948719418648 0.9879759519038074,-0.3020109881280917 0.9919839679358715,-0.32338286021484375 0.9959919839679356,-0.3351194273848519 0.9999999999999998,-0.3174179734774015" /></g><g stroke-width="5.0e-3" stroke="#382A8C" fill="none" stroke-opacity="0.5"><polyline points="-1.0,-0.21978986299477754 -0.9959919839679359,-0.22364381130683486 -0.9919839679358717,-0.2264247207863297 -0.9879759519038076,-0.22999984008764995 -0.9839679358717435,-0.22863750027444307 -0.9799599198396793,-0.22942030757680887 -0.9759519038076152,-0.23384501745320863 -0.9719438877755511,-0.23226121255296284 -0.9679358717434869,-0.23195247802019436 -0.9639278557114228,-0.23254672850167313 -0.9599198396793587,-0.23273694588280802 -0.9559118236472945,-0.22990818040152294 -0.9519038076152304,-0.24065603630336418 -0.9478957915831663,-0.23498585236288916 -0.9438877755511023,-0.23472094023086365 -0.9398797595190381,-0.2312854648663929 -0.935871743486974,-0.22819060782872358 -0.9318637274549099,-0.2256556380919812 -0.9278557114228457,-0.22573248283953795 -0.9238476953907816,-0.22787289346816175 -0.9198396793587175,-0.22756464599758652 -0.9158316633266533,-0.22411669775860787 -0.9118236472945892,-0.2305258545315817 -0.9078156312625251,-0.22852010814818124 -0.9038076152304609,-0.2267966941937246 -0.8997995991983968,-0.22450709592605678 -0.8957915831663327,-0.21346817751786884 -0.8917835671342685,-0.21457914601791417 -0.8877755511022044,-0.2132092011413017 -0.8837675350701403,-0.21203438124106433 -0.8797595190380761,-0.2107242471470262 -0.875751503006012,-0.21633174282024348 -0.8717434869739479,-0.21674098851840018 -0.8677354709418837,-0.2186917874514993 -0.8637274549098196,-0.21627894313047702 -0.8597194388777555,-0.21440459431947445 -0.8557114228456915,-0.21439330168874393 -0.8517034068136273,-0.21135264710024992 -0.8476953907815632,-0.2125173860390347 -0.8436873747494991,-0.21136419852191368 -0.8396793587174349,-0.21149065413149148 -0.8356713426853708,-0.20983947214067422 -0.8316633266533067,-0.20625309637070488 -0.8276553106212425,-0.20013277899234316 -0.8236472945891784,-0.20697405847610506 -0.8196392785571143,-0.20413611924240105 -0.8156312625250501,-0.202322398118419 -0.811623246492986,-0.20826422562063107 -0.8076152304609219,-0.20530316668329363 -0.8036072144288577,-0.21393624690986046 -0.7995991983967936,-0.21854203845080689 -0.7955911823647295,-0.21761478444692894 -0.7915831663326653,-0.21756575162395653 -0.7875751503006012,-0.21545279440509202 -0.7835671342685371,-0.21641091830491344 -0.779559118236473,-0.21690563239389316 -0.7755511022044088,-0.21533723176963215 -0.7715430861723447,-0.21533546407366444 -0.7675350701402806,-0.21825980212127627 -0.7635270541082164,-0.21777330859548383 -0.7595190380761523,-0.216402501859275 -0.7555110220440882,-0.21684836601653923 -0.751503006012024,-0.2145341015985749 -0.7474949899799599,-0.2128164895974809 -0.7434869739478958,-0.21633810490914152 -0.7394789579158316,-0.21526511138530946 -0.7354709418837675,-0.19943766549590825 -0.7314629258517034,-0.20218586337945688 -0.7274549098196392,-0.20746878241123257 -0.7234468937875751,-0.21136260229692871 -0.719438877755511,-0.21244933044196412 -0.7154308617234469,-0.21406841026374457 -0.7114228456913828,-0.21729811111298325 -0.7074148296593187,-0.2170497646826034 -0.7034068136272545,-0.21553674937724954 -0.6993987975951904,-0.21466194826177099 -0.6953907815631263,-0.220485317539306 -0.6913827655310621,-0.22303893155262222 -0.687374749498998,-0.22145511818815766 -0.6833667334669339,-0.21857960225764317 -0.6793587174348698,-0.21936865057152433 -0.6753507014028056,-0.21906338278312654 -0.6713426853707415,-0.21784395661604605 -0.6673346693386774,-0.21651234907865802 -0.6633266533066133,-0.21977423805796215 -0.6593186372745492,-0.21840907234077422 -0.6553106212424851,-0.21601660018540292 -0.6513026052104209,-0.215758726585643 -0.6472945891783568,-0.22221246960200636 -0.6432865731462927,-0.21604113396879565 -0.6392785571142285,-0.21505909924878241 -0.6352705410821644,-0.2141929898913405 -0.6312625250501003,-0.21501963003979474 -0.6272545090180361,-0.21479865666312314 -0.623246492985972,-0.2075441498466224 -0.6192384769539079,-0.21446078469588037 -0.6152304609218437,-0.20676589748241458 -0.6112224448897796,-0.20764379585416748 -0.6072144288577155,-0.20916122151715144 -0.6032064128256514,-0.20994837479701922 -0.5991983967935872,-0.2016514474607385 -0.5951903807615231,-0.2066323863298486 -0.591182364729459,-0.20700639080386152 -0.5871743486973948,-0.20594803435794984 -0.5831663326653307,-0.21163423306984153 -0.5791583166332666,-0.21274779546413913 -0.5751503006012024,-0.216180269896322 -0.5711422845691383,-0.21563982718054664 -0.5671342685370742,-0.21564817940666936 -0.56312625250501,-0.21963233281471517 -0.5591182364729459,-0.21897318321537762 -0.5551102204408818,-0.21814171157381645 -0.5511022044088176,-0.2167370492042694 -0.5470941883767535,-0.21867285382365065 -0.5430861723446894,-0.21838771610191687 -0.5390781563126252,-0.21705678469767709 -0.5350701402805611,-0.21543120839634655 -0.531062124248497,-0.21433433020632298 -0.5270541082164328,-0.21589922837926334 -0.5230460921843687,-0.21581717900425734 -0.5190380761523046,-0.21349941321945376 -0.5150300601202404,-0.2146060085838717 -0.5110220440881764,-0.21549987568590678 -0.5070140280561123,-0.21299229739393477 -0.5030060120240482,-0.21222452812662818 -0.498997995991984,-0.19959514199147643 -0.4949899799599199,-0.20032951473046579 -0.49098196392785576,-0.2083356078163081 -0.4869739478957916,-0.2075016275227507 -0.4829659318637275,-0.2082772512787987 -0.47895791583166336,-0.19487284733224597 -0.47494989979959923,-0.19305670887661397 -0.4709418837675351,-0.19376235177457246 -0.46693386773547096,-0.2017482593144453 -0.46292585170340683,-0.19850893253269297 -0.4589178356713427,-0.19645652377930733 -0.45490981963927857,-0.19755335528425766 -0.45090180360721444,-0.1976504438061596 -0.4468937875751503,-0.19804330671238923 -0.44288577154308617,-0.20157238534178723 -0.43887775551102204,-0.20598432094547037 -0.434869739478958,-0.20724363210219643 -0.4308617234468939,-0.200511030632602 -0.42685370741482975,-0.20277932997011405 -0.4228456913827656,-0.20226870427171706 -0.4188376753507015,-0.2006686022409302 -0.41482965931863736,-0.20932584201523452 -0.4108216432865732,-0.2117013980890653 -0.4068136272545091,-0.21188201421613584 -0.40280561122244496,-0.21051007446653391 -0.3987975951903808,-0.21161114035068573 -0.3947895791583167,-0.2123751812455248 -0.39078156312625256,-0.21284341346967484 -0.38677354709418843,-0.2129101959086922 -0.3827655310621243,-0.20990141711751342 -0.37875751503006017,-0.21000887161501547 -0.37474949899799603,-0.20771854300118076 -0.3707414829659319,-0.20736768525011862 -0.36673346693386777,-0.21036204734476172 -0.36272545090180364,-0.21092908960202505 -0.3587174348697395,-0.21357182861335489 -0.35470941883767537,-0.21632846732856126 -0.35070140280561124,-0.21763062142379352 -0.3466933867735471,-0.21815994408113015 -0.342685370741483,-0.22234271858917765 -0.33867735470941884,-0.22088896291096372 -0.3346693386773547,-0.21883914707611174 -0.3306613226452907,-0.2202522554617634 -0.32665330661322656,-0.22121914251528074 -0.3226452905811624,-0.21926445392769345 -0.3186372745490983,-0.2194701557865698 -0.31462925851703416,-0.22040090303332693 -0.31062124248497003,-0.22042388128473644 -0.3066132264529059,-0.22050478570222787 -0.30260521042084176,-0.22023938790791064 -0.29859719438877763,-0.22396103612354834 -0.2945891783567135,-0.22006673279951317 -0.29058116232464937,-0.22088080274824717 -0.28657314629258523,-0.2164388201756654 -0.2825651302605211,-0.21700015828571184 -0.27855711422845697,-0.2232040088706071 -0.27454909819639284,-0.21997054233997615 -0.2705410821643287,-0.22022444898763804 -0.2665330661322646,-0.22101540039011658 -0.26252505010020044,-0.22062980444561087 -0.2585170340681363,-0.22266916815098603 -0.2545090180360722,-0.22316835222811193 -0.25050100200400804,-0.22244500913396914 -0.2464929859719439,-0.22309004452601233 -0.24248496993987978,-0.21938134639140594 -0.23847695390781565,-0.2181045844501902 -0.23446893787575152,-0.21840979179137854 -0.2304609218436875,-0.21596312582425825 -0.22645290581162336,-0.21084783101930815 -0.22244488977955923,-0.2172141829484171 -0.2184368737474951,-0.2145150283952324 -0.21442885771543096,-0.21509947197388135 -0.21042084168336683,-0.22005283673395704 -0.2064128256513027,-0.21889248062105815 -0.20240480961923857,-0.2200829346824209 -0.19839679358717444,-0.2192277428450058 -0.1943887775551103,-0.2268757408126293 -0.19038076152304617,-0.22596511939685593 -0.18637274549098204,-0.23217542845893469 -0.1823647294589179,-0.2298295381210328 -0.17835671342685377,-0.22831938614385872 -0.17434869739478964,-0.22457776582040012 -0.1703406813627255,-0.22390300797197016 -0.16633266533066138,-0.225772218468281 -0.16232464929859725,-0.22976037198575627 -0.1583166332665331,-0.23179508987607855 -0.15430861723446898,-0.23243407898991642 -0.15030060120240485,-0.23138135953321382 -0.14629258517034072,-0.2273317778606183 -0.14228456913827658,-0.23417562192038544 -0.13827655310621245,-0.2379604632656892 -0.13426853707414832,-0.2345487197917725 -0.1302605210420842,-0.2331786858033854 -0.12625250501002017,-0.23416736432568908 -0.12224448897795603,-0.23310969523549108 -0.1182364729458919,-0.2315616705684862 -0.11422845691382777,-0.2315715844631726 -0.11022044088176364,-0.23245008777256193 -0.1062124248496995,-0.22745823909586516 -0.10220440881763537,-0.23374557072190028 -9.819639278557124e-2,-0.23839332515007028 -9.418837675350711e-2,-0.24102829693652095 -9.018036072144298e-2,-0.2461290586233783 -8.617234468937884e-2,-0.24671896322537767 -8.216432865731471e-2,-0.2470036971016376 -7.815631262525058e-2,-0.24527182742895093 -7.414829659318645e-2,-0.2503298915987633 -7.014028056112231e-2,-0.25510207680445307 -6.613226452905818e-2,-0.2512730424750961 -6.212424849699405e-2,-0.2582405088446559 -5.811623246492992e-2,-0.255975286220151 -5.4108216432865786e-2,-0.25873026245316577 -5.010020040080165e-2,-0.26450843712955785 -4.609218436873752e-2,-0.265340523500606 -4.208416833667339e-2,-0.2638861425950293 -3.8076152304609256e-2,-0.2634157036434015 -3.4068136272545124e-2,-0.272263069781836 -3.0060120240480992e-2,-0.26557429816140454 -2.605210420841686e-2,-0.2554472329718508 -2.204408817635284e-2,-0.25496654361306437 -1.8036072144288706e-2,-0.2535424984346374 -1.4028056112224574e-2,-0.2347994479697526 -1.0020040080160442e-2,-0.19922981181260802 -6.012024048096309e-3,-0.21332064880879342 -2.004008016032177e-3,-0.20867316007811498 2.004008016031955e-3,-0.1763533383094037 6.012024048096087e-3,-0.18861764255171032 1.002004008016022e-2,-0.19991958702843415 1.4028056112224352e-2,-0.20176261177711097 1.8036072144288484e-2,-0.2125116849893638 2.2044088176352616e-2,-0.22205545334465082 2.605210420841675e-2,-0.2218126102278678 3.006012024048088e-2,-0.21637635456179216 3.406813627254501e-2,-0.21128370106229166 3.8076152304609145e-2,-0.21164860621936987 4.208416833667328e-2,-0.22445602098425244 4.609218436873741e-2,-0.2336228642314937 5.010020040080154e-2,-0.2222910262943294 5.4108216432865675e-2,-0.21243200327987788 5.811623246492981e-2,-0.20079065879615765 6.212424849699394e-2,-0.20466684894074305 6.613226452905807e-2,-0.213433837331372 7.01402805611222e-2,-0.21516309447854964 7.414829659318634e-2,-0.2142744088065056 7.815631262525047e-2,-0.21751071227641394 8.21643286573146e-2,-0.2313662628843759 8.617234468937873e-2,-0.22965619857973718 9.018036072144286e-2,-0.22370383657617565 9.4188376753507e-2,-0.21834705892152784 9.819639278557113e-2,-0.21717790220692224 0.10220440881763526,-0.21809150005259348 0.1062124248496994,-0.20565044891042794 0.11022044088176353,-0.2064948776637513 0.11422845691382766,-0.20455774036833263 0.11823647294589179,-0.18293281818047802 0.12224448897795592,-0.16510496065185498 0.12625250501002006,-0.18745849660693525 0.13026052104208397,-0.1727221501595947 0.1342685370741481,-0.17022654233380152 0.13827655310621223,-0.18159172575858695 0.14228456913827636,-0.16260979505432083 0.1462925851703405,-0.1731008892866146 0.15030060120240463,-0.18262346226159976 0.15430861723446876,-0.18816542694094496 0.1583166332665329,-0.16947365655606772 0.16232464929859702,-0.17222239501521464 0.16633266533066116,-0.1859955283632172 0.1703406813627253,-0.1811833211108823 0.17434869739478942,-0.18788788802444578 0.17835671342685355,-0.18526577866340932 0.18236472945891768,-0.19181228633373693 0.18637274549098182,-0.2004012710005022 0.19038076152304595,-0.20075655994970776 0.19438877755511008,-0.19562849018650386 0.1983967935871742,-0.1881921373385107 0.20240480961923835,-0.18802368662802416 0.20641282565130248,-0.17658072626507026 0.2104208416833666,-0.17801151581725327 0.21442885771543074,-0.18655085730599308 0.21843687374749488,-0.18727974549469772 0.222444889779559,-0.18022045782451346 0.22645290581162314,-0.18220702437865355 0.23046092184368727,-0.17602313756499377 0.2344689378757514,-0.17404880432057868 0.23847695390781554,-0.18458625991527455 0.24248496993987967,-0.187284500764744 0.2464929859719438,-0.1868568018375526 0.25050100200400793,-0.19468684340182152 0.25450901803607207,-0.20218127031457356 0.2585170340681362,-0.20324820587112502 0.26252505010020033,-0.20361840929854302 0.26653306613226446,-0.19752584100951498 0.2705410821643286,-0.2005950328499646 0.2745490981963927,-0.1995419337253036 0.27855711422845686,-0.19701612097971344 0.282565130260521,-0.20284716696676164 0.2865731462925851,-0.19986734380107873 0.29058116232464926,-0.20223857063641248 0.2945891783567134,-0.20019460987373905 0.2985971943887775,-0.1978920782039877 0.30260521042084165,-0.18788433864889387 0.3066132264529058,-0.19818794817577812 0.3106212424849699,-0.1921184667996203 0.31462925851703405,-0.20085840713143754 0.3186372745490982,-0.2042419667531219 0.3226452905811623,-0.20445155237353996 0.32665330661322645,-0.21118437613966112 0.3306613226452906,-0.2101435860665798 0.3346693386773545,-0.2123101753276444 0.3386773547094186,-0.2127439538187561 0.34268537074148275,-0.21373496174398665 0.3466933867735469,-0.20990153974264603 0.350701402805611,-0.21152663567882446 0.35470941883767515,-0.21022973386326416 0.3587174348697393,-0.20801996276214818 0.3627254509018034,-0.20424601803866382 0.36673346693386755,-0.205296023643876 0.3707414829659317,-0.19960375362247262 0.3747494989979958,-0.20082480750787413 0.37875751503005994,-0.1889643342510431 0.3827655310621241,-0.1905768137784818 0.3867735470941882,-0.18313488002301337 0.39078156312625234,-0.18810426305648897 0.3947895791583165,-0.18852173318684207 0.3987975951903806,-0.19085635968460513 0.40280561122244474,-0.1864805853842445 0.40681362725450887,-0.19343700249980644 0.410821643286573,-0.20020852430993674 0.41482965931863713,-0.20719466967451006 0.41883767535070127,-0.2096792293426002 0.4228456913827654,-0.20331501863928836 0.42685370741482953,-0.21020895991216226 0.43086172344689366,-0.210672500959747 0.4348697394789578,-0.20937498868148785 0.4388777555110219,-0.21225327160954088 0.44288577154308606,-0.21359612727123933 0.4468937875751502,-0.20982548547086832 0.4509018036072143,-0.20860293791926166 0.45490981963927846,-0.2097140671379183 0.4589178356713426,-0.21325879257346247 0.4629258517034067,-0.2203444218839169 0.46693386773547085,-0.2172763827671127 0.470941883767535,-0.21128277182550637 0.4749498997995991,-0.20602676480979398 0.47895791583166325,-0.2096944521032431 0.4829659318637274,-0.2083965563057708 0.4869739478957915,-0.21207512961639874 0.49098196392785565,-0.2154827709174063 0.4949899799599198,-0.21793830845111184 0.4989979959919839,-0.21977604168249143 0.503006012024048,-0.21902615556335414 0.5070140280561122,-0.2173000393373954 0.5110220440881763,-0.21084331910169507 0.5150300601202404,-0.2070559641494224 0.5190380761523046,-0.21196022711510232 0.5230460921843687,-0.2051469684669187 0.5270541082164328,-0.21133656113842736 0.531062124248497,-0.2136548619980434 0.5350701402805611,-0.21520609283854952 0.539078156312625,-0.21644286982524752 0.5430861723446891,-0.21561313467350973 0.5470941883767533,-0.21371283370060112 0.5511022044088174,-0.21839275599757757 0.5551102204408815,-0.22424389155543767 0.5591182364729457,-0.2238924416099335 0.5631262525050098,-0.22805842906704776 0.5671342685370739,-0.2237438110859835 0.5711422845691381,-0.22328503813899558 0.5751503006012022,-0.22133886473166486 0.5791583166332663,-0.2184525621825384 0.5831663326653305,-0.21488510153674867 0.5871743486973946,-0.2125561330415402 0.5911823647294587,-0.21367739813440745 0.5951903807615229,-0.21631833010116008 0.599198396793587,-0.21611896325444646 0.6032064128256511,-0.2200151933579979 0.6072144288577153,-0.21971120894292118 0.6112224448897794,-0.21452575512310756 0.6152304609218435,-0.21850983096920396 0.6192384769539077,-0.21903519871024957 0.6232464929859718,-0.22502052992852373 0.6272545090180359,-0.22412972496741157 0.6312625250501,-0.22061980651696245 0.6352705410821642,-0.21899180769876325 0.6392785571142283,-0.21572262095554862 0.6432865731462925,-0.21753181783155695 0.6472945891783566,-0.21701738674202298 0.6513026052104207,-0.21954288734992422 0.6553106212424848,-0.21868339549996862 0.659318637274549,-0.2187559578915289 0.6633266533066131,-0.2113984556061108 0.6673346693386772,-0.20633120003863892 0.6713426853707414,-0.2056051538054412 0.6753507014028055,-0.20403318927832148 0.6793587174348696,-0.17580978312899787 0.6833667334669338,-0.15839368840974444 0.6873747494989979,-0.17023274513786735 0.691382765531062,-0.16526121232302216 0.6953907815631262,-0.18300011734656751 0.6993987975951903,-0.1826261696168252 0.7034068136272544,-0.1703850426753144 0.7074148296593186,-0.1700467989158826 0.7114228456913827,-0.16642200757436387 0.7154308617234468,-0.16181814735766586 0.719438877755511,-0.1357386896633579 0.7234468937875751,-0.151427436264979 0.7274549098196392,-0.13701263519499496 0.7314629258517034,-0.13182439176023053 0.7354709418837675,-0.14512837658464006 0.7394789579158316,-0.15433859684975038 0.7434869739478958,-0.1632146963793658 0.7474949899799597,-0.15796818444764904 0.7515030060120238,-0.16270946622672577 0.7555110220440879,-0.16794928299727752 0.7595190380761521,-0.18542708209147563 0.7635270541082162,-0.18314590696426414 0.7675350701402803,-0.17527917858609277 0.7715430861723445,-0.15860997195404292 0.7755511022044086,-0.15745460144952583 0.7795591182364727,-0.15121609177492878 0.7835671342685369,-0.16015296203249607 0.787575150300601,-0.16206893954804336 0.7915831663326651,-0.14812792359919214 0.7955911823647293,-0.13304721705184575 0.7995991983967934,-0.13591584271692136 0.8036072144288575,-0.13074263206878878 0.8076152304609217,-0.14394695156513615 0.8116232464929858,-0.14688800813358827 0.8156312625250499,-0.16601549508357993 0.819639278557114,-0.16420063701680654 0.8236472945891782,-0.17100704894248397 0.8276553106212423,-0.1800325861986456 0.8316633266533064,-0.15248023733664562 0.8356713426853706,-0.15135253727066134 0.8396793587174347,-0.13184079381335678 0.8436873747494988,-0.13365633919160003 0.847695390781563,-0.13368943633050256 0.8517034068136271,-0.13852357354685307 0.8557114228456912,-0.13863838650026572 0.8597194388777554,-0.12285834749120794 0.8637274549098195,-0.10580181313902437 0.8677354709418836,-0.10648250050631447 0.8717434869739478,-9.41540513591872e-2 0.8757515030060119,-8.163025719467709e-2 0.879759519038076,-6.514371550789644e-2 0.8837675350701402,-4.325219014890169e-2 0.8877755511022043,-8.482471816738524e-2 0.8917835671342684,-9.274878174604317e-2 0.8957915831663326,-9.245264886341764e-2 0.8997995991983967,-0.100242414173634 0.9038076152304608,-0.101963162877589 0.907815631262525,-8.171880926018249e-2 0.9118236472945891,-0.11070269678066968 0.9158316633266532,-0.1170843268213162 0.9198396793587174,-0.12562109490840467 0.9238476953907815,-0.1294398116873251 0.9278557114228456,-0.13356916394274532 0.9318637274549098,-0.1337782259379935 0.9358717434869739,-0.1297140731660582 0.939879759519038,-0.13897125105620545 0.9438877755511021,-0.14109791245714232 0.9478957915831663,-0.1476562014040761 0.9519038076152302,-0.15876094640784466 0.9559118236472943,-0.1469573645670691 0.9599198396793585,-0.14898829716924367 0.9639278557114226,-0.15031079410178028 0.9679358717434867,-0.15751874999279125 0.9719438877755509,-0.15104511311375735 0.975951903807615,-0.1499868562455099 0.9799599198396791,-0.16301225992150226 0.9839679358717432,-0.17018300357346205 0.9879759519038074,-0.17089637755495024 0.9919839679358715,-0.17648214660412298 0.9959919839679356,-0.1802986352821565 0.9999999999999998,-0.17830646554850904" /></g><g /><g stroke-width="4.0e-3" stroke="#3764A0" fill="#FFFFFF" fill-opacity="1.0" stroke-opacity="0.5"><rect width="0.4277426781621746" height="0.2487713863909992" x="0.3462818797368973" y="8.926589858774511e-2" /></g><g stroke-width="0.0" stroke="none" fill="#666666" fill-opacity="1.0" font-size="4.000000000000001e-2" text-anchor="start"><text x="0.3712595543741046" y="0.28992583761067375">rate = 0.99</text></g><g stroke-width="5.0e-3" stroke="#382A8C" fill="none" stroke-opacity="0.5"><polyline points="0.6959693246577991,0.28218106803435017 0.7459246739322136,0.28218106803435017" /></g><g stroke-width="0.0" stroke="none" fill="#666666" fill-opacity="1.0" font-size="4.000000000000001e-2" text-anchor="start"><text x="0.3712595543741046" y="0.22303919126969754">rate = 0.95</text></g><g stroke-width="5.0e-3" stroke="#3C7F2B" fill="none" stroke-opacity="0.5"><polyline points="0.6959693246577991,0.21529442169337398 0.7459246739322136,0.21529442169337398" /></g><g stroke-width="0.0" stroke="none" fill="#666666" fill-opacity="1.0" font-size="4.000000000000001e-2" text-anchor="start"><text x="0.3712595543741046" y="0.15615254492872135">zero</text></g><g stroke-width="5.0e-3" stroke="#C58C4B" fill="none" stroke-opacity="0.5"><polyline points="0.6959693246577991,0.14840777535239777 0.7459246739322136,0.14840777535239777" /></g><g /></svg>