<svg viewBox="-1.4059678118201535 -0.68275 2.413467811820153 1.5020159178324475" xmlns="http://www.w3.org/2000/svg" xmlns:xlink="http://www.w3.org/1999/xlink" version="1.1" width="600.0" height="400.0"><g stroke-width="0.0" stroke="none" fill="#000000" transform="translate(-0.19923390591007695, -0.57175)" fill-opacity="1.0" font-size="0.12" text-anchor="middle"><text transform="rotate(0.0, 0.0, -0.0)" x="0.0" y="-0.0">ma alpha</text></g><g stroke-width="0.0" stroke="#000000" fill="#666666" fill-opacity="3.0e-2" stroke-opacity="0.0"><rect width="1.9999999999999998" height="1.0" x="-1.0" y="-0.5" /></g><g stroke-width="5.0e-3" stroke="#A8E5EE" fill="none" stroke-opacity="0.3"><polyline points="-1.005,0.5 1.0049999999999997,0.5" /></g><g stroke-width="5.0e-3" stroke="#A8E5EE" fill="none" stroke-opacity="0.3"><polyline points="-1.005,0.33333333333333337 1.0049999999999997,0.33333333333333337" /></g><g stroke-width="5.0e-3" stroke="#A8E5EE" fill="none" stroke-opacity="0.3"><polyline points="-1.005,0.16666666666666669 1.0049999999999997,0.16666666666666669" /></g><g stroke-width="5.0e-3" stroke="#A8E5EE" fill="none" stroke-opacity="0.3"><polyline points="-1.005,-0.0 1.0049999999999997,-0.0" /></g><g stroke-width="5.0e-3" stroke="#A8E5EE" fill="none" stroke-opacity="0.3"><polyline points="-1.005,-0.16666666666666663 1.0049999999999997,-0.16666666666666663" /></g><g stroke-width="5.0e-3" stroke="#A8E5EE" fill="none" stroke-opacity="0.3"><polyline points="-1.005,-0.33333333333333337 1.0049999999999997,-0.33333333333333337" /></g><g stroke-width="5.0e-3" stroke="#A8E5EE" fill="none" stroke-opacity="0.3"><polyline points="-1.005,-0.5 1.0049999999999997,-0.5" /></g><g stroke-width="0.0" stroke="none" fill="#666666" fill-opacity="1.0" font-size="5.0e-2" text-anchor="end"><text x="-1.2309678118201535" y="0.5145">-8.0e-3</text></g><g stroke-width="0.0" stroke="none" fill="#666666" fill-opacity="1.0" font-size="5.0e-2" text-anchor="end"><text x="-1.2309678118201535" y="0.3478333333333334">-6.0e-3</text></g><g stroke-width="0.0" stroke="none" fill="#666666" fill-opacity="1.0" font-size="5.0e-2" text-anchor="end"><text x="-1.2309678118201535" y="0.1811666666666667">-4.0e-3</text></g><g stroke-width="0.0" stroke="none" fill="#666666" fill-opacity="1.0" font-size="5.0e-2" text-anchor="end"><text x="-1.2309678118201535" y="1.4499999999999999e-2">-2.0e-3</text></g><g stroke-width="0.0" stroke="none" fill="#666666" fill-opacity="1.0" font-size="5.0e-2" text-anchor="end"><text x="-1.2309678118201535" y="-0.15216666666666662">0.0e0</text></g><g stroke-width="0.0" stroke="none" fill="#666666" fill-opacity="1.0" font-size="5.0e-2" text-anchor="end"><text x="-1.2309678118201535" y="-0.31883333333333336">2.0e-3</text></g><g stroke-width="0.0" stroke="none" fill="#666666" fill-opacity="1.0" font-size="5.0e-2" text-anchor="end"><text x="-1.2309678118201535" y="-0.4855">4.0e-3</text></g><g stroke-width="0.0" stroke="#2C429D" fill="#5F0391" fill-opacity="1.0" stroke-opacity="0.4"><line stroke-width="5.0e-3" transform="rotate(-90.0, -1.2008928118201536, 0.5)" x1="-1.2008928118201536" y1="0.515" x2="-1.2008928118201536" y2="0.485" /><line stroke-width="5.0e-3" transform="rotate(-90.0, -1.2008928118201536, 0.33333333333333337)" x1="-1.2008928118201536" y1="0.3483333333333334" x2="-1.2008928118201536" y2="0.31833333333333336" /><line stroke-width="5.0e-3" transform="rotate(-90.0, -1.2008928118201536, 0.16666666666666669)" x1="-1.2008928118201536" y1="0.1816666666666667" x2="-1.2008928118201536" y2="0.15166666666666667" /><line stroke-width="5.0e-3" transform="rotate(-90.0, -1.2008928118201536, -0.0)" x1="-1.2008928118201536" y1="1.5e-2" x2="-1.2008928118201536" y2="-1.5e-2" /><line stroke-width="5.0e-3" transform="rotate(-90.0, -1.2008928118201536, -0.16666666666666663)" x1="-1.2008928118201536" y1="-0.15166666666666662" x2="-1.2008928118201536" y2="-0.18166666666666664" /><line stroke-width="5.0e-3" transform="rotate(-90.0, -1.2008928118201536, -0.33333333333333337)" x1="-1.2008928118201536" y1="-0.31833333333333336" x2="-1.2008928118201536" y2="-0.3483333333333334" /><line stroke-width="5.0e-3" transform="rotate(-90.0, -1.2008928118201536, -0.5)" x1="-1.2008928118201536" y1="-0.485" x2="-1.2008928118201536" y2="-0.515" /></g><g stroke-width="0.0" stroke="#666666" fill="#5F0391" fill-opacity="0.5" stroke-opacity="0.0"><rect width="4.999999999999893e-3" height="1.0" x="-1.1908928118201536" y="-0.5" /></g><g stroke-width="5.0e-3" stroke="#A8E5EE" fill="none" stroke-opacity="0.3"><polyline points="-1.0,0.505 -1.0,-0.505" /></g><g stroke-width="5.0e-3" stroke="#A8E5EE" fill="none" stroke-opacity="0.3"><polyline points="-0.8637274549098197,0.505 -0.8637274549098197,-0.505" /></g><g stroke-width="5.0e-3" stroke="#A8E5EE" fill="none" stroke-opacity="0.3"><polyline points="-0.6112224448897796,0.505 -0.6112224448897796,-0.505" /></g><g stroke-width="5.0e-3" stroke="#A8E5EE" fill="none" stroke-opacity="0.3"><polyline points="-0.3587174348697396,0.505 -0.3587174348697396,-0.505" /></g><g stroke-width="5.0e-3" stroke="#A8E5EE" fill="none" stroke-opacity="0.3"><polyline points="-0.1062124248496995,0.505 -0.1062124248496995,-0.505" /></g><g stroke-width="5.0e-3" stroke="#A8E5EE" fill="none" stroke-opacity="0.3"><polyline points="0.13827655310621223,0.505 0.13827655310621223,-0.505" /></g><g stroke-width="5.0e-3" stroke="#A8E5EE" fill="none" stroke-opacity="0.3"><polyline points="0.3947895791583165,0.505 0.3947895791583165,-0.505" /></g><g stroke-width="5.0e-3" stroke="#A8E5EE" fill="none" stroke-opacity="0.3"><polyline points="0.6472945891783566,0.505 0.6472945891783566,-0.505" /></g><g stroke-width="5.0e-3" stroke="#A8E5EE" fill="none" stroke-opacity="0.3"><polyline points="0.8997995991983965,0.505 0.8997995991983965,-0.505" /></g><g stroke-width="5.0e-3" stroke="#A8E5EE" fill="none" stroke-opacity="0.3"><polyline points="0.9999999999999998,0.505 0.9999999999999998,-0.505" /></g><g stroke-width="0.0" stroke="none" fill="#666666" fill-opacity="1.0" font-size="5.0e-2" text-anchor="end"><text transform="rotate(-45.0, -1.0, 0.6062500000000001)" x="-1.0" y="0.6062500000000001">10 Feb 2017</text></g><g stroke-width="0.0" stroke="none" fill="#666666" fill-opacity="1.0" font-size="5.0e-2" text-anchor="end"><text transform="rotate(-45.0, -0.8637274549098197, 0.6062500000000001)" x="-0.8637274549098197" y="0.6062500000000001">31 Mar 2017</text></g><g stroke-width="0.0" stroke="none" fill="#666666" fill-opacity="1.0" font-size="5.0e-2" text-anchor="end"><text transform="rotate(-45.0, -0.6112224448897796, 0.6062500000000001)" x="-0.6112224448897796" y="0.6062500000000001">30 Jun 2017</text></g><g stroke-width="0.0" stroke="none" fill="#666666" fill-opacity="1.0" font-size="5.0e-2" text-anchor="end"><text transform="rotate(-45.0, -0.3587174348697396, 0.6062500000000001)" x="-0.3587174348697396" y="0.6062500000000001">30 Sep 2017</text></g><g stroke-width="0.0" stroke="none" fill="#666666" fill-opacity="1.0" font-size="5.0e-2" text-anchor="end"><text transform="rotate(-45.0, -0.1062124248496995, 0.6062500000000001)" x="-0.1062124248496995" y="0.6062500000000001">31 Dec 2017</text></g><g stroke-width="0.0" stroke="none" fill="#666666" fill-opacity="1.0" font-size="5.0e-2" text-anchor="end"><text transform="rotate(-45.0, 0.13827655310621223, 0.6062500000000001)" x="0.13827655310621223" y="0.6062500000000001">31 Mar 2018</text></g><g stroke-width="0.0" stroke="none" fill="#666666" fill-opacity="1.0" font-size="5.0e-2" text-anchor="end"><text transform="rotate(-45.0, 0.3947895791583165, 0.6062500000000001)" x="0.3947895791583165" y="0.6062500000000001">30 Jun 2018</text></g><g stroke-width="0.0" stroke="none" fill="#666666" fill-opacity="1.0" font-size="5.0e-2" text-anchor="end"><text transform="rotate(-45.0, 0.6472945891783566, 0.6062500000000001)" x="0.6472945891783566" y="0.6062500000000001">30 Sep 2018</text></g><g stroke-width="0.0" stroke="none" fill="#666666" fill-opacity="1.0" font-size="5.0e-2" text-anchor="end"><text transform="rotate(-45.0, 0.8997995991983965, 0.6062500000000001)" x="0.8997995991983965" y="0.6062500000000001">31 Dec 2018</text></g><g stroke-width="0.0" stroke="none" fill="#666666" fill-opacity="1.0" font-size="5.0e-2" text-anchor="end"><text transform="rotate(-45.0, 0.9999999999999998, 0.6062500000000001)" x="0.9999999999999998" y="0.6062500000000001">06 Feb 2019</text></g><g stroke-width="0.0" stroke="#2C429D" fill="#5F0391" fill-opacity="1.0" stroke-opacity="0.4"><line stroke-width="5.0e-3" x1="-1.0" y1="0.54" x2="-1.0" y2="0.51" /><line stroke-width="5.0e-3" x1="-0.8637274549098197" y1="0.54" x2="-0.8637274549098197" y2="0.51" /><line stroke-width="5.0e-3" x1="-0.6112224448897796" y1="0.54" x2="-0.6112224448897796" y2="0.51" /><line stroke-width="5.0e-3" x1="-0.3587174348697396" y1="0.54" x2="-0.3587174348697396" y2="0.51" /><line stroke-width="5.0e-3" x1="-0.1062124248496995" y1="0.54" x2="-0.1062124248496995" y2="0.51" /><line stroke-width="5.0e-3" x1="0.13827655310621223" y1="0.54" x2="0.13827655310621223" y2="0.51" /><line stroke-width="5.0e-3" x1="0.3947895791583165" y1="0.54" x2="0.3947895791583165" y2="0.51" /><line stroke-width="5.0e-3" x1="0.6472945891783566" y1="0.54" x2="0.6472945891783566" y2="0.51" /><line stroke-width="5.0e-3" x1="0.8997995991983965" y1="0.54" x2="0.8997995991983965" y2="0.51" /><line stroke-width="5.0e-3" x1="0.9999999999999998" y1="0.54" x2="0.9999999999999998" y2="0.51" /></g><g stroke-width="0.0" stroke="#666666" fill="#5F0391" fill-opacity="0.5" stroke-opacity="0.0"><rect width="1.9999999999999998" height="5.0000000000000044e-3" x="-1.0" y="0.51" /></g><g stroke-width="5.0e-3" stroke="#C58C4B" fill="none" stroke-opacity="0.5"><polyline points="-1.0,-0.16666666666666663 0.9999999999999998,-0.16666666666666663" /></g><g stroke-width="5.0e-3" stroke="#3C7F2B" fill="none" stroke-opacity="0.5"><polyline points="-1.0,-0.2558215851880896 -0.9959919839679359,-0.2729695824402636 -0.9919839679358717,-0.28411926253844644 -0.9879759519038076,-0.2985933789160857 -0.9839679358717435,-0.28882565439448804 -0.9799599198396793,-0.28973637615494574 -0.9759519038076152,-0.3080835798976719 -0.9719438877755511,-0.2970660596957011 -0.9679358717434869,-0.29252922930749414 -0.9639278557114228,-0.29251821216649176 -0.9599198396793587,-0.2906028445960154 -0.9559118236472945,-0.2742289793711913 -0.9519038076152304,-0.32442225182458007 -0.9478957915831663,-0.29333822731395953 -0.9438877755511023,-0.2892950670279232 -0.9398797595190381,-0.2698324053414536 -0.935871743486974,-0.2525919032081788 -0.9318637274549099,-0.23868121689689137 -0.9278557114228457,-0.23847540871537687 -0.9238476953907816,-0.2487013254301138 -0.9198396793587175,-0.24618227058148645 -0.9158316633266533,-0.22787991873998736 -0.9118236472945892,-0.26007252441422724 -0.9078156312625251,-0.24868707436028425 -0.9038076152304609,-0.2390955576771101 -0.8997995991983968,-0.22695700757288229 -0.8957915831663327,-0.17061838382353522 -0.8917835671342685,-0.17859960284795195 -0.8877755511022044,-0.1734098233649919 -0.8837675350701403,-0.16941766080262133 -0.8797595190380761,-0.16487228055793446 -0.875751503006012,-0.19603298408590986 -0.8717434869739479,-0.1991587138946187 -0.8677354709418837,-0.20992111870315067 -0.8637274549098196,-0.1982490273544223 -0.8597194388777555,-0.18970833306973212 -0.8557114228456915,-0.1909240282143102 -0.8517034068136273,-0.17671911599699508 -0.8476953907815632,-0.18441778183710722 -0.8436873747494991,-0.18001269831476008 -0.8396793587174349,-0.18225923335487992 -0.8356713426853708,-0.1753865435045161 -0.8316633266533067,-0.15893072563573718 -0.8276553106212425,-0.1302009027833314 -0.8236472945891784,-0.16878482835217723 -0.8196392785571143,-0.15641345395097017 -0.8156312625250501,-0.14966757172831047 -0.811623246492986,-0.18226502952434165 -0.8076152304609219,-0.16875765757269245 -0.8036072144288577,-0.21372402495435894 -0.7995991983967936,-0.23661586181438643 -0.7955911823647295,-0.23119162057366915 -0.7915831663326653,-0.23033133201341427 -0.7875751503006012,-0.21928881048433835 -0.7835671342685371,-0.22390027172040916 -0.779559118236473,-0.22603240091348853 -0.7755511022044088,-0.21786020944966045 -0.7715430861723447,-0.21777567558912658 -0.7675350701402806,-0.23219609221197623 -0.7635270541082164,-0.22915924293930212 -0.7595190380761523,-0.22186571764979202 -0.7555110220440882,-0.22385771410855293 -0.751503006012024,-0.2120728696951355 -0.7474949899799599,-0.20367232476102282 -0.7434869739478958,-0.22171862731977832 -0.7394789579158316,-0.2161785969512282 -0.7354709418837675,-0.1368562214710396 -0.7314629258517034,-0.15389425366193044 -0.7274549098196392,-0.18284962745666133 -0.7234468937875751,-0.20355045663506222 -0.719438877755511,-0.20939710223526908 -0.7154308617234469,-0.21765396243550694 -0.7114228456913828,-0.23356532290620446 -0.7074148296593187,-0.23159613812800972 -0.7034068136272545,-0.22343700095792596 -0.6993987975951904,-0.21875996422576394 -0.6953907815631263,-0.2474817478482294 -0.6913827655310621,-0.25881167000064553 -0.687374749498998,-0.24932407845342552 -0.6833667334669339,-0.2338137295793441 -0.6793587174348698,-0.2370372221402396 -0.6753507014028056,-0.23472197503101933 -0.6713426853707415,-0.22796796083010795 -0.6673346693386774,-0.2209077441924615 -0.6633266533066133,-0.23695263644994413 -0.6593186372745492,-0.2294084045069743 -0.6553106212424851,-0.21701945048425453 -0.6513026052104209,-0.21573743929340627 -0.6472945891783568,-0.24784265129963068 -0.6432865731462927,-0.21604602063524292 -0.6392785571142285,-0.21119111042003702 -0.6352705410821644,-0.20709650723265405 -0.6312625250501003,-0.21164050878997276 -0.6272545090180361,-0.21075535123558353 -0.623246492985972,-0.17448868102368753 -0.6192384769539079,-0.21100406751670397 -0.6152304609218437,-0.17259928735441998 -0.6112224448897796,-0.17876006809631217 -0.6072144288577155,-0.18786249885130057 -0.6032064128256514,-0.1929073781290329 -0.5991983967935872,-0.15205297956792962 -0.5951903807615231,-0.17965644943861514 -0.591182364729459,-0.18290253226565856 -0.5871743486973948,-0.1788236042632051 -0.5831663326653307,-0.20863442933009413 -0.5791583166332666,-0.21437908932291516 -0.5751503006012024,-0.23140639238604566 -0.5711422845691383,-0.22803959889109648 -0.5671342685370742,-0.22753198916966133 -0.56312625250501,-0.24673092113810124 -0.5591182364729459,-0.24221172759186083 -0.5551102204408818,-0.23702657950557715 -0.5511022044088176,-0.22920718813720886 -0.5470941883767535,-0.23824381481713408 -0.5430861723446894,-0.23593810934812376 -0.5390781563126252,-0.22854823658198853 -0.5350701402805611,-0.21996371700634798 -0.531062124248497,-0.2143261393800865 -0.5270541082164328,-0.22218496015150435 -0.5230460921843687,-0.22152590007877915 -0.5190380761523046,-0.20973118037758587 -0.5150300601202404,-0.21550497785897504 -0.5110220440881764,-0.2199745111603738 -0.5070140280561123,-0.20727816205960048 -0.5030060120240482,-0.20375430625614988 -0.498997995991984,-0.14040654560369537 -0.4949899799599199,-0.14716815095703317 -0.49098196392785576,-0.19032587873404416 -0.4869739478957916,-0.18707491347450944 -0.4829659318637275,-0.19201135728304664 -0.47895791583166336,-0.1254748143531801 -0.47494989979959923,-0.11978996622633142 -0.4709418837675351,-0.12703495645671226 -0.46693386773547096,-0.1704948347994537 -0.46292585170340683,-0.15584495870606552 -0.4589178356713427,-0.14768796456614064 -0.45490981963927857,-0.15561502196443 -0.45090180360721444,-0.15819306091323493 -0.4468937875751503,-0.16212803400537235 -0.44288577154308617,-0.18156177325815925 -0.43887775551102204,-0.2045874162184147 -0.434869739478958,-0.2109701939988653 -0.4308617234468939,-0.17725816522204352 -0.42685370741482975,-0.18976070295186775 -0.4228456913827656,-0.18788923727494988 -0.4188376753507015,-0.18064260460957005 -0.41482965931863736,-0.22481992194503297 -0.4108216432865732,-0.23591191352432828 -0.4068136272545091,-0.23566519349040138 -0.40280561122244496,-0.2277353043648329 -0.3987975951903808,-0.23240294159280261 -0.3947895791583167,-0.2352187315384785 -0.39078156312625256,-0.23646529860490417 -0.38677354709418843,-0.23568525263898543 -0.3827655310621243,-0.2196995221936121 -0.37875751503006017,-0.21980074592496768 -0.37474949899799603,-0.2079682702054022 -0.3707414829659319,-0.20625011889078448 -0.36673346693386777,-0.2212620406892336 -0.36272545090180364,-0.22359188581018807 -0.3587174348697395,-0.23611385600479762 -0.35470941883767537,-0.24865857937240776 -0.35070140280561124,-0.2535206359307761 -0.3466933867735471,-0.25440575188691505 -0.342685370741483,-0.2731317161052508 -0.33867735470941884,-0.2636323222593545 -0.3346693386773547,-0.25159024856250045 -0.3306613226452907,-0.2569669740802728 -0.32665330661322656,-0.2599482160027261 -0.3226452905811624,-0.24856332537857018 -0.3186372745490983,-0.24819664852680068 -0.31462925851703416,-0.2514171357031103 -0.31062124248497003,-0.2500709064448371 -0.3066132264529059,-0.24907552566360913 -0.30260521042084176,-0.24643221256485048 -0.29859719438877763,-0.2634413495057799 -0.2945891783567135,-0.24257111417246746 -0.29058116232464937,-0.2455541593674494 -0.28657314629258523,-0.22227104395393527 -0.2825651302605211,-0.22486017024813276 -0.27855711422845697,-0.2554350989429812 -0.27454909819639284,-0.23795247878878711 -0.2705410821643287,-0.23839619729031758 -0.2665330661322646,-0.2415019121403934 -0.26252505010020044,-0.23864362627063085 -0.2585170340681363,-0.24794518998872606 -0.2545090180360722,-0.24924220875993386 -0.25050100200400804,-0.24446187883449166 -0.2464929859719439,-0.246644907314004 -0.24248496993987978,-0.22705023998954477 -0.23847695390781565,-0.22026356092131338 -0.23446893787575152,-0.22175739419582718 -0.2304609218436875,-0.2091784022032891 -0.22645290581162336,-0.1832378992621072 -0.22244488977955923,-0.21747074176258263 -0.2184368737474951,-0.20384595501279734 -0.21442885771543096,-0.2073955957362662 -0.21042084168336683,-0.23275344184154112 -0.2064128256513027,-0.22640213384970864 -0.20240480961923857,-0.23203972537308026 -0.19839679358717444,-0.2272479961558278 -0.1943887775551103,-0.26478295748036695 -0.19038076152304617,-0.2585548230369046 -0.18637274549098204,-0.287395174454498 -0.1823647294589179,-0.27342189593166355 -0.17835671342685377,-0.2639989368261846 -0.17434869739478964,-0.24386058473602878 -0.1703406813627255,-0.23962235000405796 -0.16633266533066138,-0.24822766310791822 -0.16232464929859725,-0.2668908414538683 -0.1583166332665331,-0.2751107268914531 -0.15430861723446898,-0.27619855843222396 -0.15030060120240485,-0.26903112249100325 -0.14629258517034072,-0.24730312085114492 -0.14228456913827658,-0.2802079388216926 -0.13827655310621245,-0.29644880473937085 -0.13426853707414832,-0.2771789485156776 -0.1302605210420842,-0.2684657798398561 -0.12625250501002017,-0.2717012487502911 -0.12224448897795603,-0.2647451463201459 -0.1182364729458919,-0.2555948523802397 -0.11422845691382777,-0.2545431237710335 -0.11022044088176364,-0.25787477829873007 -0.1062124248496995,-0.23158804558136536 -0.10220440881763537,-0.26307753706519366 -9.819639278557124e-2,-0.28462505398019844 -9.418837675350711e-2,-0.2952978463890398 -9.018036072144298e-2,-0.3173572468479843 -8.617234468937884e-2,-0.31682365561326464 -8.216432865731471e-2,-0.3148981836047745 -7.815631262525058e-2,-0.30347601599725726 -7.414829659318645e-2,-0.3250334830585869 -7.014028056112231e-2,-0.3440739233092447 -6.613226452905818e-2,-0.32210594455012376 -6.212424849699405e-2,-0.3520472334230047 -5.811623246492992e-2,-0.337090031823824 -5.4108216432865786e-2,-0.34633109032730414 -5.010020040080165e-2,-0.3694007884906716 -4.609218436873752e-2,-0.36830592400874396 -4.208416833667339e-2,-0.35686483462964236 -3.8076152304609256e-2,-0.35035342237761813 -3.4068136272545124e-2,-0.38817558023416887 -3.0060120240480992e-2,-0.3520745624675685 -2.605210420841686e-2,-0.29846621201510914 -2.204408817635284e-2,-0.29400570228626133 -1.8036072144288706e-2,-0.2849503062286838 -1.4028056112224574e-2,-0.1877840296469664 -1.0020040080160442e-2,-9.301063419272615e-3 -6.012024048096309e-3,-9.219395606280689e-2 -2.004008016032177e-3,-7.465283108061604e-2 2.004008016031955e-3,8.230419115808324e-2 6.012024048096087e-3,6.30860635939362e-3 1.002004008016022e-2,-6.070316834979128e-2 1.4028056112224352e-2,-7.693849499255356e-2 1.8036072144288484e-2,-0.13713962222603193 2.2044088176352616e-2,-0.18868776558360434 2.605210420841675e-2,-0.18916367410475843 3.006012024048088e-2,-0.16361890959251735 3.406813627254501e-2,-0.14075731286897253 3.8076152304609145e-2,-0.14609551307711865 4.208416833667328e-2,-0.21343189810216523 4.609218436873741e-2,-0.25980039071616956 5.010020040080154e-2,-0.20201230241086288 5.4108216432865675e-2,-0.15375069339262126 5.811623246492981e-2,-9.836486663422006e-2 6.212424849699394e-2,-0.12286791715650192 6.613226452905807e-2,-0.1707997842475677 7.01402805611222e-2,-0.18158266482229357 7.414829659318634e-2,-0.17883443433324464 7.815631262525047e-2,-0.19679591272750963 8.21643286573146e-2,-0.2670507964961719 8.617234468937873e-2,-0.256835064190737 9.018036072144286e-2,-0.22586548305915555 9.4188376753507e-2,-0.1990616172158789 9.819639278557113e-2,-0.19421598615018987 0.10220440881763526,-0.19995988950826094 0.1062124248496994,-0.13865949536207323 0.11022044088176353,-0.14621759104942167 0.11422845691382766,-0.13951598075950522 0.11823647294589179,-3.44013798045153e-2 0.12224448897795592,4.7560219625198796e-2 0.12625250501002006,-7.495892858131037e-2 0.13026052104208397,-6.844216300426864e-3 0.1342685370741481,-2.570972195887755e-3 0.13827655310621223,-6.754897576070307e-2 0.14228456913827636,2.1565524190583385e-2 0.1462925851703405,-3.977770475227971e-2 0.15030060120240463,-9.38208324783999e-2 0.15430861723446876,-0.12586205351375146 0.1583166332665329,-3.560878469944273e-2 0.16232464929859702,-5.586343070889965e-2 0.16633266533066116,-0.13031857869547647 0.1703406813627253,-0.10901090192020024 0.17434869739478942,-0.14607091606642386 0.17835671342685355,-0.1350263481102727 0.18236472945891768,-0.17025951225105307 0.18637274549098182,-0.2143701032609313 0.19038076152304595,-0.21549726357725096 0.19438877755511008,-0.18911901999391167 0.1983967935871742,-0.15226068726770758 0.20240480961923835,-0.15320021372808967 0.20641282565130248,-9.774540507046037e-2 0.2104208416833666,-0.10875193257010951 0.21442885771543074,-0.15482305477663127 0.21843687374749488,-0.16004374855303383 0.222444889779559,-0.1261043939596007 0.22645290581162314,-0.1386918580067319 0.23046092184368727,-0.10993796055806138 0.2344689378757514,-0.1033180548868109 0.23847695390781554,-0.15943979067015468 0.24248496993987967,-0.17419565099807166 0.2464929859719438,-0.17271905819425393 0.25050100200400793,-0.2126504591281464 0.25450901803607207,-0.24936221749149112 0.2585170340681362,-0.25240643632973736 0.26252505010020033,-0.2518597403220335 0.26653306613226446,-0.21901973994112622 0.2705410821643286,-0.23334423850525488 0.2745490981963927,-0.22650035864290075 0.27855711422845686,-0.2125844532597545 0.282565130260521,-0.24098707156429433 0.2865731462925851,-0.22426347681430792 0.29058116232464926,-0.23493957340591265 0.2945891783567134,-0.22316552087445463 0.2985971943887775,-0.21057740984076312 0.30260521042084165,-0.15997494992464323 0.3066132264529058,-0.21287037686077315 0.3106212424849699,-0.18186289065668126 0.31462925851703405,-0.22605613008950154 0.3186372745490982,-0.24174237390105624 0.3226452905811623,-0.24098900108211696 0.32665330661322645,-0.2727837267427453 0.3306613226452906,-0.2646215370880953 0.3346693386773545,-0.2727647956640058 0.3386773547094186,-0.27199542054787196 0.34268537074148275,-0.27405231371263705 0.3466933867735469,-0.2521055399344444 0.350701402805611,-0.25816374389517094 0.35470941883767515,-0.24948083643048424 0.3587174348697393,-0.23660684535758736 0.3627254509018034,-0.21641934812182184 0.36673346693386755,-0.2211094008058746 0.3707414829659317,-0.1918796955246046 0.3747494989979958,-0.19841895115830488 0.37875751503005994,-0.13894104703768084 0.3827655310621241,-0.14958608529686201 0.3867735470941882,-0.11411471985264454 0.39078156312625234,-0.14265333915205647 0.3947895791583165,-0.14702020075125122 0.3987975951903806,-0.1608150416683901 0.40280561122244474,-0.14035177949871058 0.40681362725450887,-0.17754490404276935 0.410821643286573,-0.21220408028081883 0.41482965931863713,-0.24648278004336044 0.41883767535070127,-0.25695345020604976 0.4228456913827654,-0.22301297129518893 0.42685370741482953,-0.25642285041323476 0.43086172344689366,-0.2565045929379527 0.4348697394789578,-0.2478585911028207 0.4388777555110219,-0.2603151340214286 0.44288577154308606,-0.2646642709435141 0.4468937875751502,-0.24350930127157622 0.4509018036072143,-0.23582531391820982 0.45490981963927846,-0.24006844251434745 0.4589178356713426,-0.25623940323919303 0.4629258517034067,-0.28923865036972907 0.46693386773547085,-0.27080475319072117 0.470941883767535,-0.23852878976628145 0.4749498997995991,-0.21097505397984095 0.47895791583166325,-0.22913950136482397 0.4829659318637274,-0.22174594657833124 0.4869739478957915,-0.23950913469207213 0.49098196392785565,-0.25516408058733364 0.4949899799599198,-0.2654469553768769 0.4989979959919839,-0.27226434641781805 0.503006012024048,-0.26606299684619894 0.5070140280561122,-0.25528686287158875 0.5110220440881763,-0.2212892674993624 0.5150300601202404,-0.20175261034824088 0.5190380761523046,-0.22674454875792138 0.5230460921843687,-0.19179512992456915 0.5270541082164328,-0.22367323064223654 0.531062124248497,-0.2347132616265678 0.5350701402805611,-0.2414745554757527 0.539078156312625,-0.246404883149702 0.5430861723446891,-0.2408704228142794 0.5470941883767533,-0.2302070119444356 0.5511022044088174,-0.25278060784870016 0.5551102204408815,-0.28009092655337253 0.5591182364729457,-0.27571367395651447 0.5631262525050098,-0.2937081881738628 0.5671342685370739,-0.2694382715844431 0.5711422845691381,-0.26501458415393353 0.5751503006012022,-0.2533967604724753 0.5791583166332663,-0.23748345740825316 0.5831663326653305,-0.21864983419090467 0.5871743486973946,-0.206708432421434 0.5911823647294587,-0.2127363475702082 0.5951903807615229,-0.2261725373477882 0.599198396793587,-0.22473706066483412 0.6032064128256511,-0.24389428859550233 0.6072144288577153,-0.24127277449849238 0.6112224448897794,-0.21423686652477103 0.6152304609218435,-0.2343661038736533 0.6192384769539077,-0.2362774501591911 0.6232464929859718,-0.2652361224552291 0.6272545090180359,-0.2589559435598974 0.6312625250501,-0.2398898791433629 0.6352705410821642,-0.23085396964829297 0.6392785571142283,-0.21384340677575497 0.6432865731462925,-0.22313565744963637 0.6472945891783566,-0.22032105031520965 0.6513026052104207,-0.23291798569411848 0.6553106212424848,-0.22801219099299608 0.659318637274549,-0.22797761547811835 0.6633266533066131,-0.19032832934452037 0.6673346693386772,-0.16546078530786779 0.6713426853707414,-0.1638240061535109 0.6753507014028055,-0.1578747090621032 0.6793587174348696,-1.7945044353910755e-2 0.6833667334669338,6.212341943689281e-2 0.6873747494989979,-9.622629117240544e-3 0.691382765531062,7.257115759296773e-3 0.6953907815631262,-9.046624724843788e-2 0.6993987975951903,-9.316782553527125e-2 0.7034068136272544,-3.6359660884765166e-2 0.7074148296593186,-4.131240205996023e-2 0.7114228456913827,-2.9587946964306777e-2 0.7154308617234468,-1.341159262834446e-2 0.719438877755511,0.10915295507656236 0.7234468937875751,1.9107456327074335e-2 0.7274549098196392,8.232947236696825e-2 0.7314629258517034,9.713841578790838e-2 0.7354709418837675,2.009446201776449e-2 0.7394789579158316,-3.373334260734151e-2 0.7434869739478958,-8.388040789393636e-2 0.7474949899799597,-6.1565293415450584e-2 0.7515030060120238,-8.995205267334161e-2 0.7555110220440879,-0.11973915630100218 0.7595190380761521,-0.20986529832300305 0.7635270541082162,-0.19717625050857857 0.7675350701402803,-0.15695727151534122 0.7715430861723445,-7.44222699072431e-2 0.7755511022044086,-7.276605767297961e-2 0.7795591182364727,-4.5786751100122425e-2 0.7835671342685369,-9.550408979424307e-2 0.787575150300601,-0.10824386742901537 0.7915831663326651,-4.125811452862693e-2 0.7955911823647293,2.852949487159423e-2 0.7995991983967934,6.440220347393888e-3 0.8036072144288575,2.517070339768307e-2 0.8076152304609217,-4.7960077138959334e-2 0.8116232464929858,-6.730101719958514e-2 0.8156312625250499,-0.16704996085187962 0.819639278557114,-0.1578660737271862 0.8236472945891782,-0.19243408236664794 0.8276553106212423,-0.23688591374354073 0.8316633266533064,-9.556870483855873e-2 0.8356713426853706,-9.269730379112706e-2 0.8396793587174347,1.7873919753950696e-3 0.8436873747494988,-1.3729485616585824e-2 0.847695390781563,-1.9707288291879066e-2 0.8517034068136271,-4.9314819996366e-2 0.8557114228456912,-5.420839446902437e-2 0.8597194388777554,2.027500305654434e-2 0.8637274549098195,9.787134662079566e-2 0.8677354709418836,8.460920451012371e-2 0.8717434869739478,0.1361146997118472 0.8757515030060119,0.186327205457468 0.879759519038076,0.25367456040184894 0.8837675350701402,0.3442819310108653 0.8877755511022043,0.12442450633512209 0.8917835671342684,7.500380326591494e-2 0.8957915831663326,6.837231220790724e-2 0.8997995991983967,2.1784966029668063e-2 0.9038076152304608,7.283578464966467e-3 0.907815631262525,0.10291695804500994 0.9118236472945891,-5.059844952109005e-2 0.9158316633266532,-8.559742377826984e-2 0.9198396793587174,-0.1301540200206992 0.9238476953907815,-0.14919149605339366 0.9278557114228456,-0.1690652109968106 0.9318637274549098,-0.1683291246411347 0.9358717434869739,-0.14604511459156788 0.939879759519038,-0.19195511246796082 0.9438877755511021,-0.2000511571112451 0.9478957915831663,-0.23027228040341075 0.9519038076152302,-0.28235510362470995 0.9559118236472943,-0.21632892876686827 0.9599198396793585,-0.2231045122398888 0.9639278557114226,-0.22606930711173612 0.9679358717434867,-0.2586124879341588 0.9719438877755509,-0.22093522701006763 0.975951903807615,-0.21213568916941283 0.9799599198396791,-0.2745070196882129 0.9839679358717432,-0.3050160989325671 0.9879759519038074,-0.3018486791592302 0.9919839679358715,-0.32335254934543944 0.9959919839679356,-0.3351385569815565 0.9999999999999998,-0.3173942610944087" /></g><g stroke-width="5.0e-3" stroke="#382A8C" fill="none" stroke-opacity="0.5"><polyline points="-1.0,-0.21986779358992437 -0.9959919839679359,-0.2237135144766016 -0.9919839679358717,-0.22648780110969102 -0.9879759519038076,-0.23005294292252254 -0.9839679358717435,-0.22869621177892252 -0.9799599198396793,-0.22947746477712583 -0.9759519038076152,-0.2338876666980173 -0.9719438877755511,-0.23231093132131708 -0.9679358717434869,-0.23200431570987723 -0.9639278557114228,-0.23259725197582348 -0.9599198396793587,-0.23278765207189733 -0.9559118236472945,-0.22997080719014162 -0.9519038076152304,-0.24067861813899416 -0.9478957915831663,-0.23503574577629938 -0.9438877755511023,-0.23477281945692197 -0.9398797595190381,-0.23135216958912908 -0.935871743486974,-0.22826953769743497 -0.9318637274549099,-0.22574384175590156 -0.9278557114228457,-0.22582138774005145 -0.9238476953907816,-0.2279559077893567 -0.9198396793587175,-0.22764963707136932 -0.9158316633266533,-0.22421380172466032 -0.9118236472945892,-0.23060358377141976 -0.9078156312625251,-0.22860619222477063 -0.9038076152304609,-0.22688964861660033 -0.8997995991983968,-0.22460828009021583 -0.8957915831663327,-0.2135963450437124 -0.8917835671342685,-0.21470635347655298 -0.8877755511022044,-0.2133389559540836 -0.8837675350701403,-0.212166140954121 -0.8797595190380761,-0.21085790038638064 -0.875751503006012,-0.21645880591196465 -0.8717434869739479,-0.21686797571587402 -0.8677354709418837,-0.21881566853293033 -0.8637274549098196,-0.21640831158561158 -0.8597194388777555,-0.21453767569490567 -0.8557114228456915,-0.2145269606136998 -0.8517034068136273,-0.21149076759064767 -0.8476953907815632,-0.21265469814304605 -0.8436873747494991,-0.21150326988073398 -0.8396793587174349,-0.2116300278939569 -0.8356713426853708,-0.20998078957721344 -0.8316633266533067,-0.20639661418988375 -0.8276553106212425,-0.20027495911974058 -0.8236472945891784,-0.20711877116308208 -0.8196392785571143,-0.20428132798413912 -0.8156312625250501,-0.20246717671338788 -0.811623246492986,-0.20840947467026139 -0.8076152304609219,-0.2054495867543441 -0.8036072144288577,-0.2140777569364496 -0.7995991983967936,-0.2186762660290683 -0.7955911823647295,-0.2177516091666467 -0.7915831663326653,-0.21770329957114343 -0.7875751503006012,-0.2155948905968601 -0.7835671342685371,-0.21655191563876774 -0.779559118236473,-0.2170462831220732 -0.7755511022044088,-0.21548128321213555 -0.7715430861723447,-0.21548003813115024 -0.7675350701402806,-0.2183995037694647 -0.7635270541082164,-0.21791465391202824 -0.7595190380761523,-0.21654715411421477 -0.7555110220440882,-0.2169927194487722 -0.751503006012024,-0.21468305214513184 -0.7474949899799599,-0.21296823116411534 -0.7434869739478958,-0.2164851906656231 -0.7394789579158316,-0.21541459202499047 -0.7354709418837675,-0.19959315594648852 -0.7314629258517034,-0.20234419938783 -0.7274549098196392,-0.2076292681806372 -0.7234468937875751,-0.21152167699293412 -0.719438877755511,-0.21260777565493194 -0.7154308617234469,-0.21422542215575924 -0.7114228456913828,-0.21745064970388905 -0.7074148296593187,-0.21720330271103594 -0.7034068136272545,-0.21569339905040008 -0.6993987975951904,-0.21482035767038654 -0.6953907815631263,-0.22063360853811786 -0.6913827655310621,-0.223181125534598 -0.687374749498998,-0.22160248122681514 -0.6833667334669339,-0.21873458067221108 -0.6793587174348698,-0.21952248117929996 -0.6753507014028056,-0.21921846149219593 -0.6713426853707415,-0.21800214591099676 -0.6673346693386774,-0.21667350186521905 -0.6633266533066133,-0.21992947807366447 -0.6593186372745492,-0.21856793083594528 -0.6553106212424851,-0.21618044035569084 -0.6513026052104209,-0.21592338537109634 -0.6472945891783568,-0.22236433126588095 -0.6432865731462927,-0.21620784862066256 -0.6392785571142285,-0.21522762504274595 -0.6352705410821644,-0.21436294931262756 -0.6312625250501003,-0.21518892021145353 -0.6272545090180361,-0.21496858762968984 -0.623246492985972,-0.20771862687136766 -0.6192384769539079,-0.21463314085010687 -0.6152304609218437,-0.2069419330337685 -0.6112224448897796,-0.20782018079915132 -0.6072144288577155,-0.20933788162253075 -0.6032064128256514,-0.2101250594670665 -0.5991983967935872,-0.20182358106494436 -0.5951903807615231,-0.2068096971785477 -0.591182364729459,-0.20718386098771324 -0.5871743486973948,-0.20612497400871788 -0.5831663326653307,-0.2118117258258787 -0.5791583166332666,-0.21292474786007598 -0.5751503006012024,-0.21635363683256537 -0.5711422845691383,-0.2158143913408811 -0.5671342685370742,-0.2158231001783879 -0.56312625250501,-0.21980050374513893 -0.5591182364729459,-0.21914333866692137 -0.5551102204408818,-0.21831407576960427 -0.5511022044088176,-0.21691243865599963 -0.5470941883767535,-0.2188450802349512 -0.5430861723446894,-0.21856099330171586 -0.5390781563126252,-0.21723304080404138 -0.5350701402805611,-0.21561039053755227 -0.531062124248497,-0.2145151787966546 -0.5270541082164328,-0.21607840903646225 -0.5230460921843687,-0.21599681272903937 -0.5190380761523046,-0.21368213595380858 -0.5150300601202404,-0.21478786971222974 -0.5110220440881764,-0.21568090198929968 -0.5070140280561123,-0.21317636587991107 -0.5030060120240482,-0.21240928736410603 -0.498997995991984,-0.19976970683319184 -0.4949899799599199,-0.20050549320423627 -0.49098196392785576,-0.20852298017154725 -0.4869739478957916,-0.20768860570580894 -0.4829659318637275,-0.20846457337180913 -0.47895791583166336,-0.19503800119513148 -0.47494989979959923,-0.19321513373680077 -0.4709418837675351,-0.1939227324290851 -0.46693386773547096,-0.20192967968719477 -0.46292585170340683,-0.1986837877538118 -0.4589178356713427,-0.1966258296678498 -0.45490981963927857,-0.19772511838010587 -0.45090180360721444,-0.1978220303532764 -0.4468937875751503,-0.19821544317625206 -0.44288577154308617,-0.2017513636307393 -0.43887775551102204,-0.20616814139664108 -0.434869739478958,-0.2074279949896206 -0.4308617234468939,-0.2006888008939145 -0.42685370741482975,-0.20296036252986605 -0.4228456913827656,-0.20244885803779766 -0.4188376753507015,-0.20084605849156678 -0.41482965931863736,-0.20951050379409597 -0.4108216432865732,-0.21188513169114676 -0.4068136272545091,-0.21206582113141081 -0.40280561122244496,-0.21069494698885782 -0.3987975951903808,-0.21179553969511333 -0.3947895791583167,-0.21255918121451 -0.39078156312625256,-0.2130272087679448 -0.38677354709418843,-0.21309417186323998 -0.3827655310621243,-0.2100876973108552 -0.37875751503006017,-0.2101952296421824 -0.37474949899799603,-0.20790517932469366 -0.3707414829659319,-0.2075542373109528 -0.36673346693386777,-0.21054854315203553 -0.36272545090180364,-0.21111544408587757 -0.3587174348697395,-0.21375610438971215 -0.35470941883767537,-0.21650886981312056 -0.35070140280561124,-0.21780876813194172 -0.3466933867735471,-0.21833731762786268 -0.342685370741483,-0.22250889830769705 -0.33867735470941884,-0.22106045109470618 -0.3346693386773547,-0.21901692436810516 -0.3306613226452907,-0.22042673773129162 -0.32665330661322656,-0.22139124392188514 -0.3226452905811624,-0.21944278949415386 -0.3186372745490983,-0.21964840509740835 -0.31462925851703416,-0.22057702174821148 -0.31062124248497003,-0.22060041975994327 -0.3066132264529059,-0.22068156777459458 -0.30260521042084176,-0.2204174345448412 -0.29859719438877763,-0.22412715472486766 -0.2945891783567135,-0.22024704251464655 -0.29058116232464937,-0.2210591933691335 -0.28657314629258523,-0.2166287266344794 -0.2825651302605211,-0.2171893563504027 -0.27855711422845697,-0.2233772077161641 -0.27454909819639284,-0.22015481948039417 -0.2705410821643287,-0.22040846431187577 -0.2665330661322646,-0.22119757737501833 -0.26252505010020044,-0.2208135862675551 -0.2585170340681363,-0.22284694517943615 -0.2545090180360722,-0.22334484031655688 -0.25050100200400804,-0.2226246211710694 -0.2464929859719439,-0.22326784841651515 -0.24248496993987978,-0.21957146277517814 -0.23847695390781565,-0.21829801101129964 -0.23446893787575152,-0.21860288922899296 -0.2304609218436875,-0.2161609961934856 -0.22645290581162336,-0.2110490126953326 -0.22244488977955923,-0.21741157442986858 -0.2184368737474951,-0.21471627466086096 -0.21442885771543096,-0.2153003286991837 -0.21042084168336683,-0.22024531789483714 -0.2064128256513027,-0.2190881879218931 -0.20240480961923857,-0.2202761104817137 -0.19839679358717444,-0.2194234410417557 -0.1943887775551103,-0.22704638403292698 -0.19038076152304617,-0.22614055914171116 -0.18637274549098204,-0.23231972966399594 -0.1823647294589179,-0.22998879371988679 -0.17835671342685377,-0.2284874427340814 -0.17434869739478964,-0.22476363304224223 -0.1703406813627255,-0.2240918904809316 -0.16633266533066138,-0.2259543669909998 -0.16232464929859725,-0.22992421105715277 -0.1583166332665331,-0.23194775348069363 -0.15430861723446898,-0.23258332144648852 -0.15030060120240485,-0.2315379566407576 -0.14629258517034072,-0.22751171144870252 -0.14228456913827658,-0.23431904106534818 -0.13827655310621245,-0.23807714950132253 -0.13426853707414832,-0.23469270503242778 -0.1302605210420842,-0.23333261737105004 -0.12625250501002017,-0.2343153912302527 -0.12224448897795603,-0.23326546811117033 -0.1182364729458919,-0.23172780741925525 -0.11422845691382777,-0.2317382430239946 -0.11022044088176364,-0.23261198677167938 -0.1062124248496995,-0.22764854697261505 -0.10220440881763537,-0.23390427124800994 -9.819639278557124e-2,-0.2385201306426774 -9.418837675350711e-2,-0.24113358215953873 -9.018036072144298e-2,-0.2461869882894061 -8.617234468937884e-2,-0.24677079757049492 -8.216432865731471e-2,-0.2470526684811687 -7.815631262525058e-2,-0.24534069405499692 -7.414829659318645e-2,-0.2503444157070639 -7.014028056112231e-2,-0.2550574139271802 -6.613226452905818e-2,-0.25128274612463275 -6.212424849699405e-2,-0.25816416810060994 -5.811623246492992e-2,-0.25593266985134266 -5.4108216432865786e-2,-0.25864860399835166 -5.010020040080165e-2,-0.2643416164376242 -4.609218436873752e-2,-0.2651579867714675 -4.208416833667339e-2,-0.26372826292853446 -3.8076152304609256e-2,-0.26326477984988517 -3.4068136272545124e-2,-0.2719748376166964 -3.0060120240480992e-2,-0.2654218970178417 -2.605210420841686e-2,-0.255463586375664 -2.204408817635284e-2,-0.25498883797954475 -1.8036072144288706e-2,-0.25358198528091713 -1.4028056112224574e-2,-0.23500601360594708 -1.0020040080160442e-2,-0.19942449378765137 -6.012024048096309e-3,-0.2135629330236014 -2.004008016032177e-3,-0.20890510481482116 2.004008016031955e-3,-0.1764640340754916 6.012024048096087e-3,-0.18879757152754228 1.002004008016022e-2,-0.20014171312967177 1.4028056112224352e-2,-0.20198892355544062 1.8036072144288484e-2,-0.21275855438540392 2.2044088176352616e-2,-0.22230806480561405 2.605210420841675e-2,-0.22206524370301628 3.006012024048088e-2,-0.21662720339693498 3.406813627254501e-2,-0.2115293019153074 3.8076152304609145e-2,-0.2118942284294304 4.208416833667328e-2,-0.2247080939609819 4.609218436873741e-2,-0.23386738759414516 5.010020040080154e-2,-0.22254525608978903 5.4108216432865675e-2,-0.21268146895561135 5.811623246492981e-2,-0.20101997310109643 6.212424849699394e-2,-0.20490396233799735 6.613226452905807e-2,-0.2136833520066963 7.01402805611222e-2,-0.21541369137559485 7.414829659318634e-2,-0.21452406114143785 7.815631262525047e-2,-0.21776214157718432 8.21643286573146e-2,-0.2316132144685482 8.617234468937873e-2,-0.22990548310574155 9.018036072144286e-2,-0.22395740840148115 9.4188376753507e-2,-0.21860067470310374 9.819639278557113e-2,-0.21743090843651713 0.10220440881763526,-0.21834473093863016 0.1062124248496994,-0.20589066030535585 0.11022044088176353,-0.20673590510835704 0.11422845691382766,-0.2047946381389184 0.11823647294589179,-0.1831092784803804 0.12224448897795592,-0.16520175790660152 0.12625250501002006,-0.18765949486960942 0.13026052104208397,-0.17287211984052264 0.1342685370741481,-0.170364639501545 0.13827655310621223,-0.18177385541063074 0.14228456913827636,-0.1627223591748218 0.1462925851703405,-0.1732573856217421 0.15030060120240463,-0.1828101797735583 0.15430861723446876,-0.1883652208071842 0.1583166332665329,-0.16962108018965139 0.16232464929859702,-0.1723780537684615 0.16633266533066116,-0.18618985194810433 0.1703406813627253,-0.18136527554816184 0.17434869739478942,-0.18808414430557885 0.17835671342685355,-0.18545549349067414 0.18236472945891768,-0.1920137691418955 0.18637274549098182,-0.2006137250662522 0.19038076152304595,-0.20096876403284258 0.19438877755511008,-0.1958341854291099 0.1983967935871742,-0.1883852309975792 0.20240480961923835,-0.18821541874369707 0.20641282565130248,-0.17674628001656478 0.2104208416833666,-0.17817953870458836 0.21442885771543074,-0.18673719245243003 0.21843687374749488,-0.18746638917413339 0.222444889779559,-0.1803918424290858 0.22645290581162314,-0.18238168023210632 0.23046092184368727,-0.17618239249447987 0.2344689378757514,-0.17420164579536068 0.23847695390781554,-0.1847628444207825 0.24248496993987967,-0.18746486337912394 0.2464929859719438,-0.1870355006078226 0.25050100200400793,-0.1948758277594731 0.25450901803607207,-0.20237599961821318 0.2585170340681362,-0.20344314964654953 0.26252505010020033,-0.2038132393280475 0.26653306613226446,-0.1977164951183349 0.2705410821643286,-0.20078756159757472 0.2745490981963927,-0.19973334456706304 0.27855711422845686,-0.1972050403813207 0.282565130260521,-0.20303974329156416 0.2865731462925851,-0.20005792830605118 0.29058116232464926,-0.20243020886285001 0.2945891783567134,-0.20038475333833938 0.2985971943887775,-0.19808011285617932 0.30260521042084165,-0.1880602166148646 0.3066132264529058,-0.19837564270559271 0.3106212424849699,-0.1922997811531596 0.31462925851703405,-0.2010471094505749 0.3186372745490982,-0.20443182645777602 0.3226452905811623,-0.20464130111586587 0.32665330661322645,-0.21137429423156562 0.3306613226452906,-0.21033385493896395 0.3346693386773545,-0.212500055747462 0.3386773547094186,-0.21293388898884913 0.34268537074148275,-0.2139247300870195 0.3466933867735469,-0.21009268197047282 0.350701402805611,-0.21171756166935873 0.35470941883767515,-0.21042108362284395 0.3587174348697393,-0.20821155392183222 0.3627254509018034,-0.20443694183445016 0.36673346693386755,-0.20548708524655357 0.3707414829659317,-0.19979199950352644 0.3747494989979958,-0.20101350036654853 0.37875751503005994,-0.18914024038427724 0.3827655310621241,-0.1907543677112088 0.3867735470941882,-0.18329913547696874 0.39078156312625234,-0.18827674948075024 0.3947895791583165,-0.18869406537232136 0.3987975951903806,-0.19103133846506648 0.40280561122244474,-0.18664827064575173 0.40681362725450887,-0.19361392929653354 0.410821643286573,-0.2003906320287404 0.41482965931863713,-0.20737836361435236 0.41883767535070127,-0.2098626033318045 0.4228456913827654,-0.2034986100722206 0.42685370741482953,-0.2103924931464859 0.43086172344689366,-0.21085606064172457 0.4348697394789578,-0.2095591181843618 0.4388777555110219,-0.21243654649402 0.44288577154308606,-0.21377895110845957 0.4468937875751502,-0.2100103041616046 0.4509018036072143,-0.20878816309820136 0.45490981963927846,-0.20989915819530414 0.4589178356713426,-0.21344260302719642 0.4629258517034067,-0.22052243625282109 0.46693386773547085,-0.2174583372166412 0.470941883767535,-0.21146926468136418 0.4749498997995991,-0.20621424420109757 0.47895791583166325,-0.20988172124841342 0.4829659318637274,-0.20858417036874588 0.4869739478957915,-0.212261824116471 0.49098196392785565,-0.215667640458164 0.4949899799599198,-0.21812137916868235 0.4989979959919839,-0.21995757456076304 0.503006012024048,-0.21920911868237247 0.5070140280561122,-0.21748533759675925 0.5110220440881763,-0.2110333128842169 0.5150300601202404,-0.20724657748810682 0.5190380761523046,-0.21215008827090442 0.5230460921843687,-0.20533767485491805 0.5270541082164328,-0.21152707378787894 0.531062124248497,-0.21384447442071153 0.5350701402805611,-0.215394948482161 0.539078156312625,-0.21663106193297765 0.5430861723446891,-0.21580241513187592 0.5470941883767533,-0.21390379824025085 0.5511022044088174,-0.21858014731527242 0.5551102204408815,-0.22442373293946138 0.5591182364729457,-0.22407357668715167 0.5631262525050098,-0.22823238713430904 0.5671342685370739,-0.22392698646993991 0.5711422845691381,-0.22346962261842285 0.5751503006012022,-0.22152704709929694 0.5791583166332663,-0.21864490584292162 0.5831663326653305,-0.21508099251568502 0.5871743486973946,-0.2127534957052667 0.5911823647294587,-0.21387442646527055 0.5951903807615229,-0.21651384262287587 0.599198396793587,-0.21631495519747934 0.6032064128256511,-0.2202075384766361 0.6072144288577153,-0.21990440878548856 0.6112224448897794,-0.21472431453341534 0.6152304609218435,-0.21870537124617684 0.6192384769539077,-0.2192305479898361 0.6232464929859718,-0.2252073968368704 0.6272545090180359,-0.22431890362758555 0.6312625250501,-0.22081521501596568 0.6352705410821642,-0.2191897119803452 0.6392785571142283,-0.21592396130898317 0.6432865731462925,-0.21773195006805957 0.6472945891783566,-0.21721830599130887 0.6513026052104207,-0.2197415189192019 0.6553106212424848,-0.21888342831389318 0.659318637274549,-0.21895627276587526 0.6633266533066131,-0.21160375379374352 0.6673346693386772,-0.20653517678682287 0.6713426853707414,-0.20580841601237865 0.6753507014028055,-0.2042348719939313 0.6793587174348696,-0.1759480699616114 0.6833667334669338,-0.15845673355300605 0.6873747494989979,-0.17035556353072212 0.691382765531062,-0.16536225036886365 0.6953907815631262,-0.1831669115099268 0.6993987975951903,-0.18279101403342302 0.7034068136272544,-0.1705141039573893 0.7074148296593186,-0.17017349719829133 0.7114228456913827,-0.16653452732367724 0.7154308617234468,-0.16191166008173974 0.719438877755511,-0.1357251027629992 0.7234468937875751,-0.1514979939308947 0.7274549098196392,-0.1370230998987234 0.7314629258517034,-0.13180947826089728 0.7354709418837675,-0.1451800823235947 0.7394789579158316,-0.1544247997350512 0.7434869739478958,-0.16332706151252363 0.7474949899799597,-0.158065195809739 0.7515030060120238,-0.16281854696524023 0.7555110220440879,-0.1680698835808101 0.7595190380761521,-0.18557614644503384 0.7635270541082162,-0.18329190407835416 0.7675350701402803,-0.17541413488850044 0.7715430861723445,-0.15871261683065563 0.7755511022044086,-0.15755313292042505 0.7795591182364727,-0.15129736591501808 0.7835671342685369,-0.16025645917060727 0.787575150300601,-0.16217536212492212 0.7915831663326651,-0.14820169516351656 0.7955911823647293,-0.13307754725915355 0.7995991983967934,-0.1359550744370287 0.8036072144288575,-0.13076481224113135 0.8076152304609217,-0.14401036868296957 0.8116232464929858,-0.14695760899199473 0.8156312625250499,-0.16612206011737307 0.819639278557114,-0.16430366493594817 0.8236472945891782,-0.17111756761883656 0.8276553106212423,-0.1801502087251533 0.8316633266533064,-0.15256880321420463 0.8356713426853706,-0.15143789254972828 0.8396793587174347,-0.1318896587609254 0.8436873747494988,-0.13370814152875699 0.847695390781563,-0.13374013662554707 0.8517034068136271,-0.13858298893660126 0.8557114228456912,-0.13869675208711973 0.8597194388777554,-0.12288574604988456 0.8637274549098195,-0.1057909163166817 0.8677354709418836,-0.10647374672508814 0.8717434869739478,-9.411596925941845e-2 0.8757515030060119,-8.156194294502439e-2 0.879759519038076,-6.503653853723801e-2 0.8837675350701402,-4.3096983566432545e-2 0.8877755511022043,-8.480997530366863e-2 0.8917835671342684,-9.27479374595217e-2 0.8957915831663326,-9.245141590827488e-2 0.8997995991983967,-0.10025162643030072 0.9038076152304608,-0.10197381030157004 0.907815631262525,-8.170788732053924e-2 0.9118236472945891,-0.11072483464518001 0.9158316633266532,-0.11710964482900699 0.9198396793587174,-0.12565001656655161 0.9238476953907815,-0.12946914259543385 0.9278557114228456,-0.13359883844748943 0.9318637274549098,-0.1338066341811467 0.9358717434869739,-0.1297396509784583 0.939879759519038,-0.13899867622430984 0.9438877755511021,-0.14112470826172063 0.9478957915831663,-0.1476833806582183 0.9519038076152302,-0.15878896384968966 0.9559118236472943,-0.1469831374333488 0.9599198396793585,-0.14901344817449613 0.9639278557114226,-0.15033524387802566 0.9679358717434867,-0.15754328362309922 0.9719438877755509,-0.15106829734726068 0.975951903807615,-0.1500090679126611 0.9799599198396791,-0.163034988843335 0.9839679358717432,-0.17020563540690914 0.9879759519038074,-0.17091893434083127 0.9919839679358715,-0.176504624926485 0.9959919839679356,-0.18032115893335698 0.9999999999999998,-0.1783294011862907" /></g><g /><g stroke-width="4.0e-3" stroke="#3764A0" fill="#FFFFFF" fill-opacity="1.0" stroke-opacity="0.5"><rect width="0.4277426781621746" height="0.2487713863909992" x="0.3462818797368973" y="8.926589858774511e-2" /></g><g stroke-width="0.0" stroke="none" fill="#666666" fill-opacity="1.0" font-size="4.000000000000001e-2" text-anchor="start"><text x="0.3712595543741046" y="0.28992583761067375">rate = 0.99</text></g><g stroke-width="5.0e-3" stroke="#382A8C" fill="none" stroke-opacity="0.5"><polyline points="0.6959693246577991,0.28218106803435017 0.7459246739322136,0.28218106803435017" /></g><g stroke-width="0.0" stroke="none" fill="#666666" fill-opacity="1.0" font-size="4.000000000000001e-2" text-anchor="start"><text x="0.3712595543741046" y="0.22303919126969754">rate = 0.95</text></g><g stroke-width="5.0e-3" stroke="#3C7F2B" fill="none" stroke-opacity="0.5"><polyline points="0.6959693246577991,0.21529442169337398 0.7459246739322136,0.21529442169337398" /></g><g stroke-width="0.0" stroke="none" fill="#666666" fill-opacity="1.0" font-size="4.000000000000001e-2" text-anchor="start"><text x="0.3712595543741046" y="0.15615254492872135">zero</text></g><g stroke-width="5.0e-3" stroke="#C58C4B" fill="none" stroke-opacity="0.5"><polyline points="0.6959693246577991,0.14840777535239777 0.7459246739322136,0.14840777535239777" /></g><g /></svg>