<svg viewBox="-1.3559678118201535 -0.68275 2.3634678118201533 1.5020159178324475" xmlns="http://www.w3.org/2000/svg" xmlns:xlink="http://www.w3.org/1999/xlink" version="1.1" width="600.0" height="400.0"><g stroke-width="0.0" stroke="none" fill="#000000" transform="translate(-0.17423390591007692, -0.57175)" fill-opacity="1.0" font-size="0.12" text-anchor="middle"><text transform="rotate(0.0, 0.0, -0.0)" x="0.0" y="-0.0">ma beta</text></g><g stroke-width="0.0" stroke="#000000" fill="#666666" fill-opacity="3.0e-2" stroke-opacity="0.0"><rect width="1.9999999999999998" height="1.0" x="-1.0" y="-0.5" /></g><g stroke-width="5.0e-3" stroke="#A8E5EE" fill="none" stroke-opacity="0.3"><polyline points="-1.005,0.5 1.0049999999999997,0.5" /></g><g stroke-width="5.0e-3" stroke="#A8E5EE" fill="none" stroke-opacity="0.3"><polyline points="-1.005,0.375 1.0049999999999997,0.375" /></g><g stroke-width="5.0e-3" stroke="#A8E5EE" fill="none" stroke-opacity="0.3"><polyline points="-1.005,0.25 1.0049999999999997,0.25" /></g><g stroke-width="5.0e-3" stroke="#A8E5EE" fill="none" stroke-opacity="0.3"><polyline points="-1.005,0.125 1.0049999999999997,0.125" /></g><g stroke-width="5.0e-3" stroke="#A8E5EE" fill="none" stroke-opacity="0.3"><polyline points="-1.005,-0.0 1.0049999999999997,-0.0" /></g><g stroke-width="5.0e-3" stroke="#A8E5EE" fill="none" stroke-opacity="0.3"><polyline points="-1.005,-0.125 1.0049999999999997,-0.125" /></g><g stroke-width="5.0e-3" stroke="#A8E5EE" fill="none" stroke-opacity="0.3"><polyline points="-1.005,-0.25 1.0049999999999997,-0.25" /></g><g stroke-width="5.0e-3" stroke="#A8E5EE" fill="none" stroke-opacity="0.3"><polyline points="-1.005,-0.3750000000000001 1.0049999999999997,-0.3750000000000001" /></g><g stroke-width="5.0e-3" stroke="#A8E5EE" fill="none" stroke-opacity="0.3"><polyline points="-1.005,-0.5 1.0049999999999997,-0.5" /></g><g stroke-width="0.0" stroke="none" fill="#666666" fill-opacity="1.0" font-size="5.0e-2" text-anchor="end"><text x="-1.2309678118201535" y="0.5145">-0.03</text></g><g stroke-width="0.0" stroke="none" fill="#666666" fill-opacity="1.0" font-size="5.0e-2" text-anchor="end"><text x="-1.2309678118201535" y="0.3895">-0.02</text></g><g stroke-width="0.0" stroke="none" fill="#666666" fill-opacity="1.0" font-size="5.0e-2" text-anchor="end"><text x="-1.2309678118201535" y="0.2645">-0.01</text></g><g stroke-width="0.0" stroke="none" fill="#666666" fill-opacity="1.0" font-size="5.0e-2" text-anchor="end"><text x="-1.2309678118201535" y="0.1395">0.00</text></g><g stroke-width="0.0" stroke="none" fill="#666666" fill-opacity="1.0" font-size="5.0e-2" text-anchor="end"><text x="-1.2309678118201535" y="1.4499999999999999e-2">0.01</text></g><g stroke-width="0.0" stroke="none" fill="#666666" fill-opacity="1.0" font-size="5.0e-2" text-anchor="end"><text x="-1.2309678118201535" y="-0.1105">0.02</text></g><g stroke-width="0.0" stroke="none" fill="#666666" fill-opacity="1.0" font-size="5.0e-2" text-anchor="end"><text x="-1.2309678118201535" y="-0.2355">0.03</text></g><g stroke-width="0.0" stroke="none" fill="#666666" fill-opacity="1.0" font-size="5.0e-2" text-anchor="end"><text x="-1.2309678118201535" y="-0.3605000000000001">0.04</text></g><g stroke-width="0.0" stroke="none" fill="#666666" fill-opacity="1.0" font-size="5.0e-2" text-anchor="end"><text x="-1.2309678118201535" y="-0.4855">0.05</text></g><g stroke-width="0.0" stroke="#2C429D" fill="#5F0391" fill-opacity="1.0" stroke-opacity="0.4"><line stroke-width="5.0e-3" transform="rotate(-90.0, -1.2008928118201536, 0.5)" x1="-1.2008928118201536" y1="0.515" x2="-1.2008928118201536" y2="0.485" /><line stroke-width="5.0e-3" transform="rotate(-90.0, -1.2008928118201536, 0.375)" x1="-1.2008928118201536" y1="0.39" x2="-1.2008928118201536" y2="0.36" /><line stroke-width="5.0e-3" transform="rotate(-90.0, -1.2008928118201536, 0.25)" x1="-1.2008928118201536" y1="0.265" x2="-1.2008928118201536" y2="0.235" /><line stroke-width="5.0e-3" transform="rotate(-90.0, -1.2008928118201536, 0.125)" x1="-1.2008928118201536" y1="0.14" x2="-1.2008928118201536" y2="0.11" /><line stroke-width="5.0e-3" transform="rotate(-90.0, -1.2008928118201536, -0.0)" x1="-1.2008928118201536" y1="1.5e-2" x2="-1.2008928118201536" y2="-1.5e-2" /><line stroke-width="5.0e-3" transform="rotate(-90.0, -1.2008928118201536, -0.125)" x1="-1.2008928118201536" y1="-0.11" x2="-1.2008928118201536" y2="-0.14" /><line stroke-width="5.0e-3" transform="rotate(-90.0, -1.2008928118201536, -0.25)" x1="-1.2008928118201536" y1="-0.235" x2="-1.2008928118201536" y2="-0.265" /><line stroke-width="5.0e-3" transform="rotate(-90.0, -1.2008928118201536, -0.3750000000000001)" x1="-1.2008928118201536" y1="-0.3600000000000001" x2="-1.2008928118201536" y2="-0.3900000000000001" /><line stroke-width="5.0e-3" transform="rotate(-90.0, -1.2008928118201536, -0.5)" x1="-1.2008928118201536" y1="-0.485" x2="-1.2008928118201536" y2="-0.515" /></g><g stroke-width="0.0" stroke="#666666" fill="#5F0391" fill-opacity="0.5" stroke-opacity="0.0"><rect width="4.999999999999893e-3" height="1.0" x="-1.1908928118201536" y="-0.5" /></g><g stroke-width="5.0e-3" stroke="#A8E5EE" fill="none" stroke-opacity="0.3"><polyline points="-1.0,0.505 -1.0,-0.505" /></g><g stroke-width="5.0e-3" stroke="#A8E5EE" fill="none" stroke-opacity="0.3"><polyline points="-0.8637274549098197,0.505 -0.8637274549098197,-0.505" /></g><g stroke-width="5.0e-3" stroke="#A8E5EE" fill="none" stroke-opacity="0.3"><polyline points="-0.6112224448897796,0.505 -0.6112224448897796,-0.505" /></g><g stroke-width="5.0e-3" stroke="#A8E5EE" fill="none" stroke-opacity="0.3"><polyline points="-0.3587174348697396,0.505 -0.3587174348697396,-0.505" /></g><g stroke-width="5.0e-3" stroke="#A8E5EE" fill="none" stroke-opacity="0.3"><polyline points="-0.1062124248496995,0.505 -0.1062124248496995,-0.505" /></g><g stroke-width="5.0e-3" stroke="#A8E5EE" fill="none" stroke-opacity="0.3"><polyline points="0.13827655310621223,0.505 0.13827655310621223,-0.505" /></g><g stroke-width="5.0e-3" stroke="#A8E5EE" fill="none" stroke-opacity="0.3"><polyline points="0.3947895791583165,0.505 0.3947895791583165,-0.505" /></g><g stroke-width="5.0e-3" stroke="#A8E5EE" fill="none" stroke-opacity="0.3"><polyline points="0.6472945891783566,0.505 0.6472945891783566,-0.505" /></g><g stroke-width="5.0e-3" stroke="#A8E5EE" fill="none" stroke-opacity="0.3"><polyline points="0.8997995991983965,0.505 0.8997995991983965,-0.505" /></g><g stroke-width="5.0e-3" stroke="#A8E5EE" fill="none" stroke-opacity="0.3"><polyline points="0.9999999999999998,0.505 0.9999999999999998,-0.505" /></g><g stroke-width="0.0" stroke="none" fill="#666666" fill-opacity="1.0" font-size="5.0e-2" text-anchor="end"><text transform="rotate(-45.0, -1.0, 0.6062500000000001)" x="-1.0" y="0.6062500000000001">10 Feb 2017</text></g><g stroke-width="0.0" stroke="none" fill="#666666" fill-opacity="1.0" font-size="5.0e-2" text-anchor="end"><text transform="rotate(-45.0, -0.8637274549098197, 0.6062500000000001)" x="-0.8637274549098197" y="0.6062500000000001">31 Mar 2017</text></g><g stroke-width="0.0" stroke="none" fill="#666666" fill-opacity="1.0" font-size="5.0e-2" text-anchor="end"><text transform="rotate(-45.0, -0.6112224448897796, 0.6062500000000001)" x="-0.6112224448897796" y="0.6062500000000001">30 Jun 2017</text></g><g stroke-width="0.0" stroke="none" fill="#666666" fill-opacity="1.0" font-size="5.0e-2" text-anchor="end"><text transform="rotate(-45.0, -0.3587174348697396, 0.6062500000000001)" x="-0.3587174348697396" y="0.6062500000000001">30 Sep 2017</text></g><g stroke-width="0.0" stroke="none" fill="#666666" fill-opacity="1.0" font-size="5.0e-2" text-anchor="end"><text transform="rotate(-45.0, -0.1062124248496995, 0.6062500000000001)" x="-0.1062124248496995" y="0.6062500000000001">31 Dec 2017</text></g><g stroke-width="0.0" stroke="none" fill="#666666" fill-opacity="1.0" font-size="5.0e-2" text-anchor="end"><text transform="rotate(-45.0, 0.13827655310621223, 0.6062500000000001)" x="0.13827655310621223" y="0.6062500000000001">31 Mar 2018</text></g><g stroke-width="0.0" stroke="none" fill="#666666" fill-opacity="1.0" font-size="5.0e-2" text-anchor="end"><text transform="rotate(-45.0, 0.3947895791583165, 0.6062500000000001)" x="0.3947895791583165" y="0.6062500000000001">30 Jun 2018</text></g><g stroke-width="0.0" stroke="none" fill="#666666" fill-opacity="1.0" font-size="5.0e-2" text-anchor="end"><text transform="rotate(-45.0, 0.6472945891783566, 0.6062500000000001)" x="0.6472945891783566" y="0.6062500000000001">30 Sep 2018</text></g><g stroke-width="0.0" stroke="none" fill="#666666" fill-opacity="1.0" font-size="5.0e-2" text-anchor="end"><text transform="rotate(-45.0, 0.8997995991983965, 0.6062500000000001)" x="0.8997995991983965" y="0.6062500000000001">31 Dec 2018</text></g><g stroke-width="0.0" stroke="none" fill="#666666" fill-opacity="1.0" font-size="5.0e-2" text-anchor="end"><text transform="rotate(-45.0, 0.9999999999999998, 0.6062500000000001)" x="0.9999999999999998" y="0.6062500000000001">06 Feb 2019</text></g><g stroke-width="0.0" stroke="#2C429D" fill="#5F0391" fill-opacity="1.0" stroke-opacity="0.4"><line stroke-width="5.0e-3" x1="-1.0" y1="0.54" x2="-1.0" y2="0.51" /><line stroke-width="5.0e-3" x1="-0.8637274549098197" y1="0.54" x2="-0.8637274549098197" y2="0.51" /><line stroke-width="5.0e-3" x1="-0.6112224448897796" y1="0.54" x2="-0.6112224448897796" y2="0.51" /><line stroke-width="5.0e-3" x1="-0.3587174348697396" y1="0.54" x2="-0.3587174348697396" y2="0.51" /><line stroke-width="5.0e-3" x1="-0.1062124248496995" y1="0.54" x2="-0.1062124248496995" y2="0.51" /><line stroke-width="5.0e-3" x1="0.13827655310621223" y1="0.54" x2="0.13827655310621223" y2="0.51" /><line stroke-width="5.0e-3" x1="0.3947895791583165" y1="0.54" x2="0.3947895791583165" y2="0.51" /><line stroke-width="5.0e-3" x1="0.6472945891783566" y1="0.54" x2="0.6472945891783566" y2="0.51" /><line stroke-width="5.0e-3" x1="0.8997995991983965" y1="0.54" x2="0.8997995991983965" y2="0.51" /><line stroke-width="5.0e-3" x1="0.9999999999999998" y1="0.54" x2="0.9999999999999998" y2="0.51" /></g><g stroke-width="0.0" stroke="#666666" fill="#5F0391" fill-opacity="0.5" stroke-opacity="0.0"><rect width="1.9999999999999998" height="5.0000000000000044e-3" x="-1.0" y="0.51" /></g><g stroke-width="5.0e-3" stroke="#C58C4B" fill="none" stroke-opacity="0.5"><polyline points="-1.0,0.125 0.9999999999999998,0.125" /></g><g stroke-width="5.0e-3" stroke="#3C7F2B" fill="none" stroke-opacity="0.5"><polyline points="-1.0,0.3721470055591985 -0.9959919839679359,0.31899662890676483 -0.9919839679358717,0.26754104142772733 -0.9879759519038076,0.1844717042253009 -0.9839679358717435,0.2522331550518855 -0.9799599198396793,0.24709890045509425 -0.9759519038076152,0.13809167672198597 -0.9719438877755511,0.22358407419198417 -0.9679358717434869,0.25136880991833666 -0.9639278557114228,0.2515448155735903 -0.9599198396793587,0.2621363398415245 -0.9559118236472945,0.3335795914313896 -0.9519038076152304,0.18089680476468528 -0.9478957915831663,0.34826463725604095 -0.9438877755511023,0.35872407143990803 -0.9398797595190381,0.38889877220279323 -0.935871743486974,0.3847465906721671 -0.9318637274549099,0.36225869451834725 -0.9278557114228457,0.36182993300033917 -0.9238476953907816,0.38221185088750903 -0.9198396793587175,0.3785706946891706 -0.9158316633266533,0.33762410394882625 -0.9118236472945892,0.40011628029965407 -0.9078156312625251,0.3956664297110373 -0.9038076152304609,0.38217784246267084 -0.8997995991983968,0.3531931348199937 -0.8957915831663327,0.15999700721385834 -0.8917835671342685,0.2066209612714885 -0.8877755511022044,0.1789498189005136 -0.8837675350701403,0.15625834511428338 -0.8797595190380761,0.12905977138679559 -0.875751503006012,0.30458308801195466 -0.8717434869739479,0.3146824150115861 -0.8677354709418837,0.3438085123911378 -0.8637274549098196,0.3164755154247853 -0.8597194388777555,0.28889197185341675 -0.8557114228456915,0.29356889221501675 -0.8517034068136273,0.23790906258262512 -0.8476953907815632,0.2748293774958095 -0.8436873747494991,0.2563056253126381 -0.8396793587174349,0.26660151399947607 -0.8356713426853708,0.23594202537747738 -0.8316633266533067,0.15059469483388344 -0.8276553106212425,-2.2077949651732043e-2 -0.8236472945891784,0.2831836972352554 -0.8196392785571143,0.23481752085692398 -0.8156312625250501,0.20198609108745075 -0.811623246492986,0.34279630347894263 -0.8076152304609219,0.3143407292944603 -0.8036072144288577,0.372303187272121 -0.7995991983967936,0.33265258230095995 -0.7955911823647295,0.3472677418491936 -0.7915831663326653,0.34935407893554604 -0.7875751503006012,0.3707614056511528 -0.7835671342685371,0.36409827467292555 -0.779559118236473,0.3603200109523118 -0.7755511022044088,0.3734482218617896 -0.7715430861723447,0.37355016100197624 -0.7675350701402806,0.3502948758595293 -0.7635270541082164,0.3578202804168662 -0.7595190380761523,0.3717293515887781 -0.7555110220440882,0.36888862555743895 -0.751503006012024,0.3805736336842641 -0.7474949899799599,0.3774554548699073 -0.7434869739478958,0.37898746037044884 -0.7394789579158316,0.3848079553267615 -0.7354709418837675,0.2560432915555486 -0.7314629258517034,0.3266326446822547 -0.7274549098196392,0.40053003530711107 -0.7234468937875751,0.416736123171621 -0.719438877755511,0.4160663990931608 -0.7154308617234469,0.4113993012210263 -0.7114228456913828,0.39024834242883416 -0.7074148296593187,0.3940354155137856 -0.7034068136272545,0.40661818148660434 -0.6993987975951904,0.41133403208454433 -0.6953907815631263,0.36345124139456997 -0.6913827655310621,0.32732845729005067 -0.687374749498998,0.3605910238774176 -0.6833667334669339,0.3974602736309444 -0.6793587174348698,0.39220041012812085 -0.6753507014028056,0.396217348970595 -0.6713426853707415,0.40506789669228693 -0.6673346693386774,0.4093815370567928 -0.6633266533066133,0.39494332077693256 -0.6593186372745492,0.4061628005852117 -0.6553106212424851,0.4111619247032491 -0.6513026052104209,0.41061438950988793 -0.6472945891783568,0.3790413413466336 -0.6432865731462927,0.42042418123031977 -0.6392785571142285,0.41704385883128536 -0.6352705410821644,0.41244496617738163 -0.6312625250501003,0.417642116200027 -0.6272545090180361,0.41684026536225266 -0.623246492985972,0.33413208371270453 -0.6192384769539079,0.42619802591109457 -0.6152304609218437,0.3616842892212945 -0.6112224448897796,0.3802406513763009 -0.6072144288577155,0.40211632328895425 -0.6032064128256514,0.4111136098887952 -0.5991983967935872,0.3083487172077003 -0.5951903807615231,0.39936131557415017 -0.591182364729459,0.40534900987565725 -0.5871743486973948,0.3979815648583827 -0.5831663326653307,0.424748812520353 -0.5791583166332666,0.42139886091676376 -0.5751503006012024,0.3974954519758242 -0.5711422845691383,0.4043828992449409 -0.5671342685370742,0.4053636823489808 -0.56312625250501,0.3584010763605387 -0.5591182364729459,0.3732961010945156 -0.5551102204408818,0.38784341575101033 -0.5511022044088176,0.40452721564577265 -0.5470941883767535,0.3862156443014567 -0.5430861723446894,0.3919862279410852 -0.5390781563126252,0.4064130394834775 -0.5350701402805611,0.4148226855162024 -0.531062124248497,0.41529363673543296 -0.5270541082164328,0.4141695749036434 -0.5230460921843687,0.41461443960400185 -0.5190380761523046,0.4132263706864342 -0.5150300601202404,0.4170132856747254 -0.5110220440881764,0.41651637611147396 -0.5070140280561123,0.4115560675525598 -0.5030060120240482,0.40558425258342506 -0.498997995991984,0.20167834143756758 -0.4949899799599199,0.24269769826500825 -0.49098196392785576,0.41075115814315627 -0.4869739478957916,0.40605219471682663 -0.4829659318637275,0.4130935973049899 -0.47895791583166336,0.2582959579169043 -0.47494989979959923,0.23361640334582218 -0.4709418837675351,0.2666577993837138 -0.46693386773547096,0.3999206584222815 -0.46292585170340683,0.376902619601154 -0.4589178356713427,0.358969718596267 -0.45490981963927857,0.37739244680603484 -0.45090180360721444,0.3824575572290109 -0.4468937875751503,0.3893230236993019 -0.44288577154308617,0.4084132345739838 -0.43887775551102204,0.397132388084323 -0.434869739478958,0.38720286179309626 -0.4308617234468939,0.4116705370727265 -0.42685370741482975,0.4146074822813566 -0.4228456913827656,0.4149611600478951 -0.4188376753507015,0.4140311352810179 -0.41482965931863736,0.3743865254578974 -0.4108216432865732,0.3439956259082292 -0.4068136272545091,0.3449220902950342 -0.40280561122244496,0.3686307352964686 -0.3987975951903808,0.35608471261328667 -0.3947895791583167,0.34769870099526745 -0.39078156312625256,0.3438181514848617 -0.38677354709418843,0.3464601131179461 -0.3827655310621243,0.38780369320004554 -0.37875751503006017,0.3876711686122183 -0.37474949899799603,0.40067677203638485 -0.3707414829659319,0.40121757054455676 -0.36673346693386777,0.3881585111553587 -0.36272545090180364,0.38376552334625247 -0.3587174348697395,0.35162599759428415 -0.35470941883767537,0.3031183009998418 -0.35070140280561124,0.27887953725189096 -0.3466933867735471,0.27416192230563396 -0.342685370741483,0.16640709925292807 -0.33867735470941884,0.23760752296324883 -0.3346693386773547,0.3069980368370433 -0.3306613226452907,0.28272718316849 -0.32665330661322656,0.26732687535191213 -0.3226452905811624,0.32428750648561966 -0.3186372745490983,0.3256634742835106 -0.31462925851703416,0.31386580839665335 -0.31062124248497003,0.3193193319193463 -0.3066132264529059,0.32312739319852835 -0.30260521042084176,0.3323213553003758 -0.29859719438877763,0.2666963220937323 -0.2945891783567135,0.36239383562305494 -0.29058116232464937,0.3569733687200325 -0.28657314629258523,0.36904850882443785 -0.2825651302605211,0.3736327101889164 -0.27855711422845697,0.35935204738475457 -0.27454909819639284,0.3964671426834014 -0.2705410821643287,0.3962376217283815 -0.2665330661322646,0.3938798219999505 -0.26252505010020044,0.3963192193671014 -0.2585170340681363,0.3850372727683318 -0.2545090180360722,0.38215225462155283 -0.25050100200400804,0.3918125682559009 -0.2464929859719439,0.3882626312443654 -0.24248496993987978,0.39288205542493576 -0.23847695390781565,0.37677182232106576 -0.23446893787575152,0.3812986711152358 -0.2304609218436875,0.33580052842057945 -0.22645290581162336,0.19145454321064537 -0.22244488977955923,0.3972882967673274 -0.2184368737474951,0.36097278027001495 -0.21442885771543096,0.3737158220710125 -0.21042084168336683,0.4128425348271552 -0.2064128256513027,0.41403946491579535 -0.20240480961923857,0.41376107272468465 -0.19839679358717444,0.41466994988354855 -0.1943887775551103,0.34467170687886683 -0.19038076152304617,0.3709365337978977 -0.18637274549098204,0.24472548858369736 -0.1823647294589179,0.3290890316282077 -0.17835671342685377,0.3682436684418062 -0.17434869739478964,0.4119886967026827 -0.1703406813627255,0.41379610774493303 -0.16633266533066138,0.4085353825712298 -0.16232464929859725,0.3680071852451541 -0.1583166332665331,0.3359406723417903 -0.15430861723446898,0.3309889485389874 -0.15030060120240485,0.3625536615801358 -0.14629258517034072,0.4098220211397241 -0.14228456913827658,0.34821959373065 -0.13827655310621245,0.27402547888593687 -0.13426853707414832,0.36994846250391844 -0.1302605210420842,0.3936474498415379 -0.12625250501002017,0.38655067129515824 -0.12224448897795603,0.4009022787977969 -0.1182364729458919,0.40969319543373806 -0.11422845691382777,0.4098889950811471 -0.11022044088176364,0.4088458083565131 -0.1062124248496995,0.3832332375318743 -0.10220440881763537,0.4152295836094848 -9.819639278557124e-2,0.36830989512233836 -9.418837675350711e-2,0.3256671123228677 -9.018036072144298e-2,0.21034359641576172 -8.617234468937884e-2,0.2143069187603978 -8.216432865731471e-2,0.22802489501694606 -7.815631262525058e-2,0.30084305310856385 -7.414829659318645e-2,0.18699517705762275 -7.014028056112231e-2,5.097608881310778e-2 -6.613226452905818e-2,0.2479674076613297 -6.212424849699405e-2,8.520205532621888e-2 -5.811623246492992e-2,0.20588368085122444 -5.4108216432865786e-2,0.1488349979998858 -5.010020040080165e-2,-3.5769733597063036e-3 -4.609218436873752e-2,6.295944291677125e-3 -4.208416833667339e-2,0.11215953977342497 -3.8076152304609256e-2,0.16018035097922534 -3.4068136272545124e-2,-3.5126805038317666e-2 -3.0060120240480992e-2,0.26276144793308265 -2.605210420841686e-2,0.37244181922720915 -2.204408817635284e-2,0.3692704307679975 -1.8036072144288706e-2,0.3594013535295182 -1.4028056112224574e-2,0.1730435275971992 -1.0020040080160442e-2,-0.12132894376416281 -6.012024048096309e-3,0.18134044377560032 -2.004008016032177e-3,0.13987654272364297 2.004008016031955e-3,-0.13515667746277205 6.012024048096087e-3,0.10171518068079743 1.002004008016022e-2,0.24438796018975106 1.4028056112224352e-2,0.26889389034252326 1.8036072144288484e-2,0.3406466299920242 2.2044088176352616e-2,0.3701001729075807 2.605210420841675e-2,0.3702222570194567 3.006012024048088e-2,0.3616497224612299 3.406813627254501e-2,0.34831409827435866 3.8076152304609145e-2,0.35220289050489956 4.208416833667328e-2,0.3773114406256315 4.609218436873741e-2,0.36299708117246887 5.010020040080154e-2,0.38385689978701387 5.4108216432865675e-2,0.37123768124500084 5.811623246492981e-2,0.3275506886310662 6.212424849699394e-2,0.3539840290583848 6.613226452905807e-2,0.3849921763013411 7.01402805611222e-2,0.38742442337095473 7.414829659318634e-2,0.3869909702555802 7.815631262525047e-2,0.38845033355380115 8.21643286573146e-2,0.35862910142391724 8.617234468937873e-2,0.3680903752187497 9.018036072144286e-2,0.388277948704464 9.4188376753507e-2,0.393993900093995 9.819639278557113e-2,0.3937461774303713 0.10220440881763526,0.394074307430226 0.1062124248496994,0.3702805097243548 0.11022044088176353,0.37711864457524946 0.11422845691382766,0.3713792178207835 0.11823647294589179,0.23922731333709274 0.12224448897795592,7.037518382558328e-2 0.12625250501002006,0.3574289791930459 0.13026052104208397,0.278435794173004 0.1342685370741481,0.2717010247461078 0.13827655310621223,0.3619705986977478 0.14228456913827636,0.2665587791813461 0.1462925851703405,0.35300670627334574 0.15030060120240463,0.3919416072567845 0.15430861723446876,0.3996526095701733 0.1583166332665329,0.36398983334054386 0.16232464929859702,0.38044594104618734 0.16633266533066116,0.40678388488777073 0.1703406813627253,0.40650230768359885 0.17434869739478942,0.4053689385614843 0.17835671342685355,0.4075279849486105 0.18236472945891768,0.39729187792833287 0.18637274549098182,0.36658363017678086 0.19038076152304595,0.3655534924842958 0.19438877755511008,0.3884718197813642 0.1983967935871742,0.40545025900484943 0.20240480961923835,0.40527668431818464 0.20641282565130248,0.398313289447376 0.2104208416833666,0.4035904981291617 0.21442885771543074,0.4082819992590898 0.21843687374749488,0.4067382365560263 0.222444889779559,0.4106413263954243 0.22645290581162314,0.41174779538149164 0.23046092184368727,0.40660658211273404 0.2344689378757514,0.40339395329363315 0.23847695390781554,0.41000082812225047 0.24248496993987967,0.4023395207724072 0.2464929859719438,0.40332935786135804 0.25050100200400793,0.3669006246310539 0.25450901803607207,0.3109819316413813 0.2585170340681362,0.3051511641301182 0.26252505010020033,0.30639755555007614 0.26653306613226446,0.36373278498131006 0.2705410821643286,0.3444292002422574 0.2745490981963927,0.354758558718153 0.27855711422845686,0.37243167947325895 0.282565130260521,0.33621826904684904 0.2865731462925851,0.36229078591526387 0.29058116232464926,0.3478289994440545 0.2945891783567134,0.3646368184964742 0.2985971943887775,0.37803221911377594 0.30260521042084165,0.3884499622002329 0.3066132264529058,0.39016365385541785 0.3106212424849699,0.4033954955636351 0.31462925851703405,0.3847419804444557 0.3186372745490982,0.3656462507008961 0.3226452905811623,0.36682751119346546 0.32665330661322645,0.3123538114180656 0.3306613226452906,0.3305084293993853 0.3346693386773545,0.3134732548315705 0.3386773547094186,0.3153493054872476 0.34268537074148275,0.3107883185735941 0.3466933867735469,0.355753567132832 0.350701402805611,0.34637202496599423 0.35470941883767515,0.3601760610816847 0.3587174348697393,0.3750842044992191 0.3627254509018034,0.3847898562215166 0.36673346693386755,0.38458346136472416 0.3707414829659317,0.37474382551031604 0.3747494989979958,0.38115629914955546 0.37875751503005994,0.29194293721276743 0.3827655310621241,0.32107925709904356 0.3867735470941882,0.22747781896776093 0.39078156312625234,0.32023298384572524 0.3947895791583165,0.33029794076458957 0.3987975951903806,0.35728624092474615 0.40280561122244474,0.3201150557597366 0.40681362725450887,0.38431205541912833 0.410821643286573,0.3856645362926304 0.41482965931863713,0.34110898406792367 0.41883767535070127,0.3175409164586091 0.4228456913827654,0.38425061252470444 0.42685370741482953,0.33624733154213504 0.43086172344689366,0.33617025826730185 0.4348697394789578,0.35460547310014623 0.4388777555110219,0.32928002918422816 0.44288577154308606,0.3185993542109786 0.4468937875751502,0.36577777739066714 0.4509018036072143,0.37600386202471525 0.45490981963927846,0.3711130531014912 0.4589178356713426,0.3450800746344158 0.4629258517034067,0.2597084389269446 0.46693386773547085,0.3238863985675787 0.470941883767535,0.3850947952716876 0.4749498997995991,0.3874181069651964 0.47895791583166325,0.3942039128140282 0.4829659318637274,0.3944646452511774 0.4869739478957915,0.3906887194266824 0.49098196392785565,0.37239796775480327 0.4949899799599198,0.3524007296699484 0.4989979959919839,0.33546113715298825 0.503006012024048,0.3519452314354884 0.5070140280561122,0.37409600445757746 0.5110220440881763,0.3916925695620306 0.5150300601202404,0.3656384648405816 0.5190380761523046,0.40000323827112383 0.5230460921843687,0.35827719187344403 0.5270541082164328,0.40766414446872373 0.531062124248497,0.40850151627925074 0.5350701402805611,0.4051799385681375 0.539078156312625,0.40086273457893457 0.5430861723446891,0.4058605650981617 0.5470941883767533,0.40937296334505546 0.5511022044088174,0.3958583271972515 0.5551102204408815,0.3351990430757362 0.5591182364729457,0.3496751079997188 0.5631262525050098,0.28843224039644433 0.5671342685370739,0.37536534124969917 0.5711422845691381,0.3844103013179695 0.5751503006012022,0.40080267356004506 0.5791583166332663,0.4050344881948341 0.5831663326653305,0.38424632293792355 0.5871743486973946,0.356724046047846 0.5911823647294587,0.3730831783957692 0.5951903807615229,0.39822150285953006 0.599198396793587,0.396539705868496 0.6032064128256511,0.40518393399741764 0.6072144288577153,0.4065093514647375 0.6112224448897794,0.3857411013845726 0.6152304609218435,0.4128488431806307 0.6192384769539077,0.41312054938334797 0.6232464929859718,0.38004876743223687 0.6272545090180359,0.39526498331486914 0.6312625250501,0.4172720418039417 0.6352705410821642,0.414281273046704 0.6392785571142283,0.3884509091631755 0.6432865731462925,0.40742660171984596 0.6472945891783566,0.40294732402894773 0.6513026052104207,0.41734279917338535 0.6553106212424848,0.41444788942227534 0.659318637274549,0.4144246921762293 0.6633266533066131,0.32579933279540385 0.6673346693386772,0.20862184146111518 0.6713426853707414,0.19844631213109976 0.6753507014028055,0.16004054603024664 0.6793587174348696,-9.88730965856186e-2 0.6833667334669338,-0.38541624296211086 0.6873747494989979,4.485696690838442e-2 0.691382765531062,-1.600380299128734e-2 0.6953907815631262,0.3145651836624842 0.6993987975951903,0.31854360176848623 0.7034068136272544,0.22957181670974475 0.7074148296593186,0.24071446466157898 0.7114228456913827,0.21524996837736837 0.7154308617234468,0.17672048788947137 0.719438877755511,-6.197208268740251e-2 0.7234468937875751,0.2361086235170698 0.7274549098196392,0.11896568424411524 0.7314629258517034,8.205331650636266e-2 0.7354709418837675,0.27122311883085604 0.7394789579158316,0.3377983136326541 0.7434869739478958,0.3631531498623648 0.7474949899799597,0.3587011008522677 0.7515030060120238,0.36553154225406925 0.7555110220440879,0.3614106760994673 0.7595190380761521,0.2972686284997259 0.7635270541082162,0.31441650907125973 0.7675350701402803,0.35652811395198025 0.7715430861723445,0.37815767817281976 0.7755511022044086,0.3775482560013378 0.7795591182364727,0.3636454982494689 0.7835671342685369,0.3866027098555329 0.787575150300601,0.3863789247685384 0.7915831663326651,0.3706351529990294 0.7955911823647293,0.29966626405158836 0.7995991983967934,0.3324182099064801 0.8036072144288575,0.3075380790469207 0.8076152304609217,0.3871534837673381 0.8116232464929858,0.3929231818744836 0.8156312625250499,0.3580950469217012 0.819639278557114,0.3672038281483042 0.8236472945891782,0.33107812288059313 0.8276553106212423,0.26731987701376 0.8316633266533064,0.410593997719886 0.8356713426853706,0.4104747769069651 0.8396793587174347,0.3698477380340339 0.8436873747494988,0.3833910599840905 0.847695390781563,0.3879146238010873 0.8517034068136271,0.40489256660767947 0.8557114228456912,0.40666229866131703 0.8597194388777554,0.3590386211566096 0.8637274549098195,0.2596974720847838 0.8677354709418836,0.28333843184202057 0.8717434869739478,0.19502074578466017 0.8757515030060119,8.839963613026247e-2 0.879759519038076,-7.321632038347636e-2 0.8837675350701402,-0.30096560086244206 0.8877755511022043,0.3447146788394699 0.8917835671342684,0.3752987332852699 0.8957915831663326,0.37801838810122823 0.8997995991983967,0.39003529879063337 0.9038076152304608,0.39056484645635275 0.907815631262525,0.36882382542658626 0.9118236472945891,0.394700971224644 0.9158316633266532,0.3797832337111042 0.9198396793587174,0.35182808915473984 0.9238476953907815,0.33634223076777114 0.9278557114228456,0.3180144402598984 0.9318637274549098,0.31888259520466067 0.9358717434869739,0.34030118540834 0.939879759519038,0.2974696840030836 0.9438877755511021,0.28815597151328887 0.9478957915831663,0.2503595644249589 0.9519038076152302,0.17440711348952836 0.9559118236472943,0.28404800718577805 0.9599198396793585,0.27604652441513466 0.9639278557114226,0.2724635617332529 0.9679358717434867,0.2298256379567185 0.9719438877755509,0.28475904663462426 0.975951903807615,0.2948527438120588 0.9799599198396791,0.22216064700771015 0.9839679358717432,0.17214642658675305 0.9879759519038074,0.17824815376122827 0.9919839679358715,0.13787426833647087 0.9959919839679356,0.11311673138245798 0.9999999999999998,0.15271783678492568" /></g><g stroke-width="5.0e-3" stroke="#382A8C" fill="none" stroke-opacity="0.5"><polyline points="-1.0,0.16824016310299406 -0.9959919839679359,0.16400384442076366 -0.9919839679358717,0.16054799449166085 -0.9879759519038076,0.15567070481074513 -0.9839679358717435,0.15766102107872026 -0.9799599198396793,0.156545830123765 -0.9759519038076152,0.14995611093768202 -0.9719438877755511,0.15252525947502515 -0.9679358717434869,0.15300716820365579 -0.9639278557114228,0.1520818386067176 -0.9599198396793587,0.15178104367722328 -0.9559118236472945,0.15617720910779304 -0.9519038076152304,0.13995265271432988 -0.9478957915831663,0.1503025385184305 -0.9438877755511023,0.15072519930418804 -0.9398797595190381,0.1560431003417092 -0.935871743486974,0.16032009753376003 -0.9318637274549099,0.16345793000064324 -0.9278557114228457,0.16336907889373264 -0.9238476953907816,0.16083267197107015 -0.9198396793587175,0.16121828496275148 -0.9158316633266533,0.16531407891105554 -0.9118236472945892,0.15794269433297392 -0.9078156312625251,0.16061566205523015 -0.9038076152304609,0.1627452365322996 -0.8997995991983968,0.16535358104550374 -0.8957915831663327,0.17468233652804716 -0.8917835671342685,0.17411760524786324 -0.8877755511022044,0.17482250110510783 -0.8837675350701403,0.17535248540605491 -0.8797595190380761,0.17586390086205483 -0.875751503006012,0.1732968782643453 -0.8717434869739479,0.1730386235532737 -0.8677354709418837,0.17171300646122584 -0.8637274549098196,0.17338652774206437 -0.8597194388777555,0.17447224135808226 -0.8557114228456915,0.17447803246689825 -0.8517034068136273,0.17586511613146233 -0.8476953907815632,0.175417397971881 -0.8436873747494991,0.17587445371650656 -0.8396793587174349,0.17582857052588918 -0.8356713426853708,0.1763740711542902 -0.8316633266533067,0.17708078195423105 -0.8276553106212425,0.17674589221211962 -0.8236472945891784,0.17739648038131572 -0.8196392785571143,0.17755884626921842 -0.8156312625250501,0.17742714258245074 -0.811623246492986,0.17740290454668917 -0.8076152304609219,0.17777170392072295 -0.8036072144288577,0.175872858480994 -0.7995991983967936,0.17319852859356472 -0.7955911823647295,0.17385468734300646 -0.7915831663326653,0.17388774272600116 -0.7875751503006012,0.17521577771731345 -0.7835671342685371,0.17466148497882084 -0.779559118236473,0.17435417872432712 -0.7755511022044088,0.1752995058368476 -0.7715430861723447,0.17530040774694272 -0.7675350701402806,0.17350761258976916 -0.7635270541082164,0.17384945959056952 -0.7595190380761523,0.1747461917114772 -0.7555110220440882,0.1744717095795288 -0.751503006012024,0.1758053579232403 -0.7474949899799599,0.17657993830324875 -0.7434869739478958,0.17491334416384624 -0.7394789579158316,0.17552757687317705 -0.7354709418837675,0.17760572221695659 -0.7314629258517034,0.1784957086445922 -0.7274549098196392,0.17907919619630586 -0.7234468937875751,0.1785033037047563 -0.719438877755511,0.17818161619020523 -0.7154308617234469,0.17758487408588125 -0.7114228456913828,0.17598693237737123 -0.7074148296593187,0.17613474867408685 -0.7034068136272545,0.1769688589044091 -0.6993987975951904,0.17738743414370284 -0.6953907815631263,0.1740063525330386 -0.6913827655310621,0.17188023886101322 -0.687374749498998,0.1732866576591901 -0.6833667334669339,0.17547704179257295 -0.6793587174348698,0.1749440559496811 -0.6753507014028056,0.1751565713514846 -0.6713426853707415,0.1759557823412875 -0.6673346693386774,0.17672458265811253 -0.6633266533066133,0.17474150571829522 -0.6593186372745492,0.17568715088875447 -0.6553106212424851,0.17707348933617129 -0.6513026052104209,0.1771979883090793 -0.6472945891783568,0.17313179675935675 -0.6432865731462927,0.17748648864078864 -0.6392785571142285,0.17792125959000255 -0.6352705410821644,0.1782535845338964 -0.6312625250501003,0.1779444293410511 -0.6272545090180361,0.17803246348216695 -0.623246492985972,0.17939094596815025 -0.6192384769539079,0.17864589070083425 -0.6152304609218437,0.1797550609922458 -0.6112224448897796,0.17984665721515591 -0.6072144288577155,0.17989563737571396 -0.6032064128256514,0.17986176880407162 -0.5991983967935872,0.17859355737166183 -0.5951903807615231,0.18012518911041392 -0.591182364729459,0.18017035884346794 -0.5871743486973948,0.18002589800075364 -0.5831663326653307,0.18012287327580256 -0.5791583166332666,0.17988487775990847 -0.5751503006012024,0.17869773511657788 -0.5711422845691383,0.17894305274884015 -0.5671342685370742,0.17893939260106817 -0.56312625250501,0.1767845546299719 -0.5591182364729459,0.17722663240458275 -0.5551102204408818,0.17774418774841966 -0.5511022044088176,0.17851785638169626 -0.5470941883767535,0.17745265182489656 -0.5430861723446894,0.1776285590865665 -0.5390781563126252,0.17838366063182948 -0.5350701402805611,0.17914161415666696 -0.531062124248497,0.17954593558484733 -0.5270541082164328,0.17896395010536548 -0.5230460921843687,0.1789993550179229 -0.5190380761523046,0.1798258983776722 -0.5150300601202404,0.1794981309587943 -0.5110220440881764,0.17916809286144303 -0.5070140280561123,0.17998586537902556 -0.5030060120240482,0.18013665811312912 -0.498997995991984,0.17728935638899534 -0.4949899799599199,0.17779651331261698 -0.49098196392785576,0.1811082685146057 -0.4869739478957916,0.18100395264317182 -0.4829659318637275,0.1811071218509313 -0.47895791583166336,0.17482057802122136 -0.47494989979959923,0.17303505061721042 -0.4709418837675351,0.1737659530948491 -0.46693386773547096,0.180013480385174 -0.46292585170340683,0.17819765133387372 -0.4589178356713427,0.1767003410638277 -0.45490981963927857,0.17755144402825357 -0.45090180360721444,0.17762252472229756 -0.4468937875751503,0.17790433317604787 -0.44288577154308617,0.18002381481975333 -0.43887775551102204,0.18150042576322317 -0.434869739478958,0.18166835878218557 -0.4308617234468939,0.17976616136834878 -0.42685370741482975,0.18080860919073166 -0.4228456913827656,0.1806096290626621 -0.4188376753507015,0.1798809147377477 -0.41482965931863736,0.1820506359499145 -0.4108216432865732,0.18171985708830557 -0.4068136272545091,0.18167825429389545 -0.40280561122244496,0.18194641129258882 -0.3987975951903808,0.18175019462497694 -0.3947895791583167,0.18156494088544445 -0.39078156312625256,0.18143119614835385 -0.38677354709418843,0.18141077781434573 -0.3827655310621243,0.18205042346914257 -0.37875751503006017,0.1820397398835223 -0.37474949899799603,0.1821076901576757 -0.3707414829659319,0.1820826985680596 -0.36673346693386777,0.18204355440164904 -0.36272545090180364,0.18195824331501564 -0.3587174348697395,0.18127143321441813 -0.35470941883767537,0.18001576305017997 -0.35070140280561124,0.17922126036047453 -0.3466933867735471,0.1788602810937449 -0.342685370741483,0.17538274236604862 -0.33867735470941884,0.17678811728293298 -0.3346693386773547,0.17849739280648214 -0.3306613226452907,0.17738584028534093 -0.32665330661322656,0.17653477192761385 -0.3226452905811624,0.17821488211394043 -0.3186372745490983,0.1780553266285696 -0.31462925851703416,0.17729599839840499 -0.31062124248497003,0.17727620939960376 -0.3066132264529059,0.1772063075109116 -0.30260521042084176,0.1774340929357438 -0.29859719438877763,0.17384134152292913 -0.2945891783567135,0.1777729120097848 -0.29058116232464937,0.17708886292412085 -0.28657314629258523,0.18027024976821399 -0.2825651302605211,0.17997853462071367 -0.27855711422845697,0.17529174714285917 -0.27454909819639284,0.17830324571087874 -0.2705410821643287,0.17810546219728063 -0.2665330661322646,0.17745770347451356 -0.26252505010020044,0.17778310133732622 -0.2585170340681363,0.17595656372444085 -0.2545090180360722,0.17544979693979057 -0.25050100200400804,0.17618417557292831 -0.2464929859719439,0.17553909016026936 -0.24248496993987978,0.17884952677707983 -0.23847695390781565,0.17967418428618176 -0.23446893787575152,0.1794933991081536 -0.2304609218436875,0.18073988233710003 -0.22645290581162336,0.1816235313675454 -0.22244488977955923,0.1805427081404719 -0.2184368737474951,0.1815481936169704 -0.21442885771543096,0.18139532561240457 -0.21042084168336683,0.17900633951539563 -0.2064128256513027,0.17979682656301627 -0.20240480961923857,0.1790019092916676 -0.19839679358717444,0.1795962678928772 -0.1943887775551103,0.17258711130868531 -0.19038076152304617,0.17374370733821543 -0.18637274549098204,0.16506564841545096 -0.1823647294589179,0.1689609118691972 -0.17835671342685377,0.17117972673339443 -0.17434869739478964,0.17584028518421307 -0.1703406813627255,0.17652094587374978 -0.16633266533066138,0.17457840415300885 -0.16232464929859725,0.16951847370678857 -0.1583166332665331,0.16636539553781338 -0.15430861723446898,0.16528621460270182 -0.15030060120240485,0.16707139318218833 -0.14629258517034072,0.17308139300589642 -0.14228456913827658,0.16330934672835368 -0.13827655310621245,0.15612628528898298 -0.13426853707414832,0.16309567722360857 -0.1302605210420842,0.16551911306551176 -0.12625250501002017,0.1638290764321672 -0.12224448897795603,0.16566902873485329 -0.1182364729458919,0.16817896252538878 -0.11422845691382777,0.16816383170564747 -0.11022044088176364,0.16680084393367534 -0.1062124248496995,0.17388784878045072 -0.10220440881763537,0.16573482499736536 -9.819639278557124e-2,0.15751295480072314 -9.418837675350711e-2,0.15194347332413577 -9.018036072144298e-2,0.13994232258471523 -8.617234468937884e-2,0.13833231877793384 -8.216432865731471e-2,0.13754061164873982 -7.815631262525058e-2,0.14235809360381235 -7.414829659318645e-2,0.12896016845905034 -7.014028056112231e-2,0.11454016634509157 -6.613226452905818e-2,0.12773358560704812 -6.212424849699405e-2,0.10707167175291715 -5.811623246492992e-2,0.11523038048577267 -5.4108216432865786e-2,0.10606524452729221 -5.010020040080165e-2,8.621757441756955e-2 -4.609218436873752e-2,8.287920927469766e-2 -4.208416833667339e-2,8.89147483856147e-2 -3.8076152304609256e-2,9.078834595396856e-2 -3.4068136272545124e-2,5.985200081211711e-2 -3.0060120240480992e-2,9.101487343003872e-2 -2.605210420841686e-2,0.12896877282067865 -2.204408817635284e-2,0.13026207371770937 -1.8036072144288706e-2,0.13402642324988695 -1.4028056112224574e-2,0.17069282818996312 -1.0020040080160442e-2,0.1680834282394878 -6.012024048096309e-3,0.1787031258110503 -2.004008016032177e-3,0.17652784729148274 2.004008016031955e-3,0.1499430958348309 6.012024048096087e-3,0.1655436622684942 1.002004008016022e-2,0.17522041507952235 1.4028056112224352e-2,0.1763575802335121 1.8036072144288484e-2,0.18116234400822057 2.2044088176352616e-2,0.18253218182650388 2.605210420841675e-2,0.1825324715777633 3.006012024048088e-2,0.18213832876200242 3.406813627254501e-2,0.18101454602143136 3.8076152304609145e-2,0.18112227009169174 4.208416833667328e-2,0.18265991022967965 4.609218436873741e-2,0.18089098150668387 5.010020040080154e-2,0.18299233766669504 5.4108216432865675e-2,0.1819245830866405 5.811623246492981e-2,0.17746554650567276 6.212424849699394e-2,0.1794319434373976 6.613226452905807e-2,0.1824136735222217 7.01402805611222e-2,0.1827374657569627 7.414829659318634e-2,0.1825837240840339 7.815631262525047e-2,0.18305473193140098 8.21643286573146e-2,0.18203300754320512 8.617234468937873e-2,0.18246070903320982 9.018036072144286e-2,0.18336185984354836 9.4188376753507e-2,0.18335329529704925 9.819639278557113e-2,0.1832443104903037 0.10220440881763526,0.183334479951482 0.1062124248496994,0.18040361643420505 0.11022044088176353,0.1807447376722221 0.11422845691382766,0.1799425612681987 0.11823647294589179,0.166170126050448 0.12224448897795592,0.14793854930013645 0.12625250501002006,0.17264909924049177 0.13026052104208397,0.16088462489086786 0.1342685370741481,0.15837032470750428 0.13827655310621223,0.16927548304419127 0.14228456913827636,0.15273223746341846 0.1462925851703405,0.16379563606061542 0.15030060120240463,0.1716002310323393 0.15430861723446876,0.1751679186115569 0.1583166332665329,0.16235362588828162 0.16232464929859702,0.16478558338791516 0.16633266533066116,0.17498933817953383 0.1703406813627253,0.17212019456315414 0.17434869739478942,0.17613884214932185 0.17835671342685355,0.17472598982509574 0.18236472945891768,0.17809906280298649 0.18637274549098182,0.18121957087027007 0.19038076152304595,0.18131328415802778 0.19438877755511008,0.17975513473124022 0.1983967935871742,0.17663002451500304 0.20240480961923835,0.17654501888567858 0.20641282565130248,0.16981286869161988 0.2104208416833666,0.17083081412892204 0.21442885771543074,0.17615568746008026 0.21843687374749488,0.1765270657121376 0.222444889779559,0.17261098864851715 0.22645290581162314,0.17384897986622294 0.23046092184368727,0.16987212224411835 0.2344689378757514,0.16842228083542354 0.23847695390781554,0.1755136126098707 0.24248496993987967,0.17688706606759746 0.2464929859719438,0.17668206572809952 0.25050100200400793,0.17991626242200542 0.25450901803607207,0.18176079727067512 0.2585170340681362,0.1819185698857878 0.26252505010020033,0.18196743198023985 0.26653306613226446,0.18083774284569032 0.2705410821643286,0.1815347987112263 0.2745490981963927,0.18132363972676901 0.27855711422845686,0.18072359668893279 0.282565130260521,0.1819484336054587 0.2865731462925851,0.18144784273233633 0.29058116232464926,0.18187551129888252 0.2945891783567134,0.18152458685886402 0.2985971943887775,0.18101720135947558 0.30260521042084165,0.17756216860933188 0.3066132264529058,0.18133515118363525 0.3106212424849699,0.17957043791342242 0.31462925851703405,0.18198944493018943 0.3186372745490982,0.18243185530830974 0.3226452905811623,0.1824500155610374 0.32665330661322645,0.18253992712063388 0.3306613226452906,0.18260191843411716 0.3346693386773545,0.18245142087691002 0.3386773547094186,0.18240736969436938 0.34268537074148275,0.18229063076779062 0.3466933867735469,0.18263048593396147 0.350701402805611,0.18253878505461535 0.35470941883767515,0.18262092261820356 0.3587174348697393,0.18266785355045817 0.3627254509018034,0.18247513624458223 0.36673346693386755,0.18256956828772491 0.3707414829659317,0.1817707016237624 0.3747494989979958,0.18202004762293172 0.37875751503005994,0.17827882369687353 0.3827655310621241,0.17902094687394543 0.3867735470941882,0.17521075179524243 0.39078156312625234,0.17802377078323628 0.3947895791583165,0.17822663661138477 0.3987975951903806,0.17928627323859542 0.40280561122244474,0.17724635537775835 0.40681362725450887,0.1803835723127128 0.410821643286573,0.18217835598039528 0.41482965931863713,0.1827567717982086 0.41883767535070127,0.18264241140264886 0.4228456913827654,0.1826710943649641 0.42685370741482953,0.1826902681250962 0.43086172344689366,0.1826434669333175 0.4348697394789578,0.18276252788549197 0.4388777555110219,0.1824509242252706 0.44288577154308606,0.18222679321131513 0.4468937875751502,0.18275253282044462 0.4509018036072143,0.1828349849275051 0.45490981963927846,0.1827646594630687 0.4589178356713426,0.1823197256912923 0.4629258517034067,0.1804205617858209 0.46693386773547085,0.18145709202900112 0.470941883767535,0.1827198124188097 0.4749498997995991,0.18296907930327605 0.47895791583166325,0.18291580304358196 0.4829659318637274,0.18298612715461138 0.4869739478957915,0.1826808128141289 0.49098196392785565,0.18204562706627397 0.4949899799599198,0.181374415781402 0.4989979959919839,0.18075408757282807 0.503006012024048,0.18102249558997974 0.5070140280561122,0.18157774056276155 0.5110220440881763,0.1828769057265312 0.5150300601202404,0.18302425195027427 0.5190380761523046,0.18280094779074335 0.5230460921843687,0.18300399509207554 0.5270541082164328,0.18297661215666805 0.531062124248497,0.18265099207053948 0.5350701402805611,0.18233836357365846 0.539078156312625,0.18203450532798798 0.5430861723446891,0.18224611807419017 0.5470941883767533,0.18264983272694646 0.5511022044088174,0.1814930266799757 0.5551102204408815,0.17908385051008546 0.5591182364729457,0.1792637116529277 0.5631262525050098,0.1769227279299821 0.5671342685370739,0.17941803794449002 0.5711422845691381,0.17964168100679756 0.5751503006012022,0.18051708964995394 0.5791583166332663,0.1815803560166266 0.5831663326653305,0.1824988112179416 0.5871743486973946,0.1828552186209647 0.5911823647294587,0.18271273118048936 0.5951903807615229,0.1822097228324177 0.599198396793587,0.18225711352357526 0.6032064128256511,0.18110389235800284 0.6072144288577153,0.1812155217738753 0.6112224448897794,0.18264046553637048 0.6152304609218435,0.18169994575926268 0.6192384769539077,0.18152997885457356 0.6232464929859718,0.17896158607215767 0.6272545090180359,0.17943933933951445 0.6312625250501,0.18105040829251873 0.6352705410821642,0.18163145422614135 0.6392785571142283,0.18250143989962608 0.6432865731462925,0.18208704504364592 0.6472945891783566,0.18221964542518215 0.6513026052104207,0.18148474008349008 0.6553106212424848,0.18176804830990995 0.659318637274549,0.18174539200932466 0.6633266533066131,0.18305443120018478 0.6673346693386772,0.18267741087533595 0.6713426853707414,0.1825351392615026 0.6753507014028055,0.18215717691966749 0.6793587174348696,0.1642971277966721 0.6833667334669338,0.14312967318323477 0.6873747494989979,0.16061752192477236 0.691382765531062,0.1545950435970322 0.6953907815631262,0.17427591723274827 0.6993987975951903,0.17400160029276657 0.7034068136272544,0.16363416638714107 0.7074148296593186,0.16327677319596756 0.7114228456913827,0.15932238661186948 0.7154308617234468,0.15383591819612902 0.719438877755511,0.12091537856717194 0.7234468937875751,0.1474335675182581 0.7274549098196392,0.12849056016586163 0.7314629258517034,0.12027294205862105 0.7354709418837675,0.14233517655727673 0.7394789579158316,0.15426581324137634 0.7434869739478958,0.16361737172344892 0.7474949899799597,0.15872857515567762 0.7515030060120238,0.1633813500597311 0.7555110220440879,0.16789390329305875 0.7595190380761521,0.17849304733711285 0.7635270541082162,0.17763832534267743 0.7675350701402803,0.1739267325027491 0.7715430861723445,0.16253062798276813 0.7755511022044086,0.1614815941261672 0.7795591182364727,0.15550450332622995 0.7835671342685369,0.16437904743094733 0.787575150300601,0.16597700124780435 0.7915831663326651,0.15377864957305976 0.7955911823647293,0.13710873826067377 0.7995991983967934,0.14094609335160135 0.8036072144288575,0.13426350054961073 0.8076152304609217,0.15178689249748556 0.8116232464929858,0.15490945524757355 0.8156312625250499,0.1714859345435737 0.819639278557114,0.17041151910811536 0.8236472945891782,0.1742333130308521 0.8276553106212423,0.177829820690249 0.8316633266533064,0.16503304750079228 0.8356713426853706,0.16417821287368672 0.8396793587174347,0.1478555154496844 0.8436873747494988,0.14978643638543893 0.847695390781563,0.14982077516620912 0.8517034068136271,0.15473526514387942 0.8557114228456912,0.1548439986847403 0.8597194388777554,0.139408945102306 0.8637274549098195,0.11935305341873875 0.8677354709418836,0.12032869874795982 0.8717434869739478,0.10326285836445653 0.8757515030060119,8.407759414868216e-2 0.879759519038076,5.723017155339305e-2 0.8837675350701402,2.032608204508707e-2 0.8877755511022043,0.11445508788425529 0.8917835671342684,0.1246015565558426 0.8957915831663326,0.12425540462340856 0.8997995991983967,0.13333828244603524 0.9038076152304608,0.13516395589300667 0.907815631262525,0.11457244372467207 0.9118236472945891,0.14892784965432027 0.9158316633266532,0.153983197463054 0.9198396793587174,0.15996873596220929 0.9238476953907815,0.16229036709364653 0.9278557114228456,0.16459617034418628 0.9318637274549098,0.1647052671365407 0.9358717434869739,0.1625301660359365 0.939879759519038,0.1674431959547114 0.9438877755511021,0.1683788228649984 0.9478957915831663,0.17094697017851318 0.9519038076152302,0.17407111110082724 0.9559118236472943,0.17115577928112896 0.9599198396793585,0.17182316430105515 0.9639278557114226,0.17222756053632432 0.9679358717434867,0.17409124953421173 0.9719438877755509,0.17258912279423572 0.975951903807615,0.1722834988367289 0.9799599198396791,0.17526069406530959 0.9839679358717432,0.1758636182853583 0.9879759519038074,0.17588048597136297 0.9919839679358715,0.17581297516566768 0.9959919839679356,0.17551852689334718 0.9999999999999998,0.17571169285699312" /></g><g /><g stroke-width="4.0e-3" stroke="#3764A0" fill="#FFFFFF" fill-opacity="1.0" stroke-opacity="0.5"><rect width="0.41888109989568045" height="0.2487713863909992" x="0.3557126688701444" y="8.926589858774511e-2" /></g><g stroke-width="0.0" stroke="none" fill="#666666" fill-opacity="1.0" font-size="4.000000000000001e-2" text-anchor="start"><text x="0.3801728790830308" y="0.28992583761067375">rate = 0.99</text></g><g stroke-width="5.0e-3" stroke="#382A8C" fill="none" stroke-opacity="0.5"><polyline points="0.6981556118505546,0.28218106803435017 0.7470760322763275,0.28218106803435017" /></g><g stroke-width="0.0" stroke="none" fill="#666666" fill-opacity="1.0" font-size="4.000000000000001e-2" text-anchor="start"><text x="0.3801728790830308" y="0.22303919126969754">rate = 0.95</text></g><g stroke-width="5.0e-3" stroke="#3C7F2B" fill="none" stroke-opacity="0.5"><polyline points="0.6981556118505546,0.21529442169337398 0.7470760322763275,0.21529442169337398" /></g><g stroke-width="0.0" stroke="none" fill="#666666" fill-opacity="1.0" font-size="4.000000000000001e-2" text-anchor="start"><text x="0.3801728790830308" y="0.15615254492872135">zero</text></g><g stroke-width="5.0e-3" stroke="#C58C4B" fill="none" stroke-opacity="0.5"><polyline points="0.6981556118505546,0.14840777535239777 0.7470760322763275,0.14840777535239777" /></g><g /></svg>