<svg viewBox="-0.8364765000000002 -0.6964049999999999 1.5275265000000002 1.3537558752442276" xmlns="http://www.w3.org/2000/svg" xmlns:xlink="http://www.w3.org/1999/xlink" version="1.1" width="800.0" height="600.0"><g stroke-width="0.0" stroke="none" fill="#000000" transform="translate(-7.128750000000006e-2, -0.57175)" fill-opacity="1.0" font-size="0.12" text-anchor="middle"><text transform="rotate(0.0, 0.0, -0.0)" x="0.0" y="-0.0">mcmc3</text></g><g stroke-width="0.0" stroke="#000000" fill="#666666" fill-opacity="3.0e-2" stroke-opacity="0.0"><rect width="1.33" height="1.0" x="-0.665" y="-0.5" /></g><g stroke-width="5.0e-3" stroke="#A8E5EE" fill="none" stroke-opacity="0.3"><polyline points="-0.67,0.5 0.67,0.5" /></g><g stroke-width="5.0e-3" stroke="#A8E5EE" fill="none" stroke-opacity="0.3"><polyline points="-0.67,0.4 0.67,0.4" /></g><g stroke-width="5.0e-3" stroke="#A8E5EE" fill="none" stroke-opacity="0.3"><polyline points="-0.67,0.3 0.67,0.3" /></g><g stroke-width="5.0e-3" stroke="#A8E5EE" fill="none" stroke-opacity="0.3"><polyline points="-0.67,0.2 0.67,0.2" /></g><g stroke-width="5.0e-3" stroke="#A8E5EE" fill="none" stroke-opacity="0.3"><polyline points="-0.67,9.999999999999998e-2 0.67,9.999999999999998e-2" /></g><g stroke-width="5.0e-3" stroke="#A8E5EE" fill="none" stroke-opacity="0.3"><polyline points="-0.67,-0.0 0.67,-0.0" /></g><g stroke-width="5.0e-3" stroke="#A8E5EE" fill="none" stroke-opacity="0.3"><polyline points="-0.67,-9.999999999999998e-2 0.67,-9.999999999999998e-2" /></g><g stroke-width="5.0e-3" stroke="#A8E5EE" fill="none" stroke-opacity="0.3"><polyline points="-0.67,-0.19999999999999996 0.67,-0.19999999999999996" /></g><g stroke-width="5.0e-3" stroke="#A8E5EE" fill="none" stroke-opacity="0.3"><polyline points="-0.67,-0.30000000000000004 0.67,-0.30000000000000004" /></g><g stroke-width="5.0e-3" stroke="#A8E5EE" fill="none" stroke-opacity="0.3"><polyline points="-0.67,-0.4 0.67,-0.4" /></g><g stroke-width="5.0e-3" stroke="#A8E5EE" fill="none" stroke-opacity="0.3"><polyline points="-0.67,-0.5 0.67,-0.5" /></g><g stroke-width="0.0" stroke="none" fill="#666666" fill-opacity="1.0" font-size="5.0e-2" text-anchor="end"><text x="-0.7450750000000002" y="0.5145">-10</text></g><g stroke-width="0.0" stroke="none" fill="#666666" fill-opacity="1.0" font-size="5.0e-2" text-anchor="end"><text x="-0.7450750000000002" y="0.41450000000000004">-8</text></g><g stroke-width="0.0" stroke="none" fill="#666666" fill-opacity="1.0" font-size="5.0e-2" text-anchor="end"><text x="-0.7450750000000002" y="0.3145">-6</text></g><g stroke-width="0.0" stroke="none" fill="#666666" fill-opacity="1.0" font-size="5.0e-2" text-anchor="end"><text x="-0.7450750000000002" y="0.21450000000000002">-4</text></g><g stroke-width="0.0" stroke="none" fill="#666666" fill-opacity="1.0" font-size="5.0e-2" text-anchor="end"><text x="-0.7450750000000002" y="0.11449999999999998">-2</text></g><g stroke-width="0.0" stroke="none" fill="#666666" fill-opacity="1.0" font-size="5.0e-2" text-anchor="end"><text x="-0.7450750000000002" y="1.4499999999999999e-2">0</text></g><g stroke-width="0.0" stroke="none" fill="#666666" fill-opacity="1.0" font-size="5.0e-2" text-anchor="end"><text x="-0.7450750000000002" y="-8.549999999999998e-2">2</text></g><g stroke-width="0.0" stroke="none" fill="#666666" fill-opacity="1.0" font-size="5.0e-2" text-anchor="end"><text x="-0.7450750000000002" y="-0.18549999999999994">4</text></g><g stroke-width="0.0" stroke="none" fill="#666666" fill-opacity="1.0" font-size="5.0e-2" text-anchor="end"><text x="-0.7450750000000002" y="-0.28550000000000003">6</text></g><g stroke-width="0.0" stroke="none" fill="#666666" fill-opacity="1.0" font-size="5.0e-2" text-anchor="end"><text x="-0.7450750000000002" y="-0.3855">8</text></g><g stroke-width="0.0" stroke="none" fill="#666666" fill-opacity="1.0" font-size="5.0e-2" text-anchor="end"><text x="-0.7450750000000002" y="-0.4855">10</text></g><g stroke-width="0.0" stroke="#2C429D" fill="#5F0391" fill-opacity="1.0" stroke-opacity="0.4"><line stroke-width="5.0e-3" transform="rotate(-90.0, -0.7150000000000001, 0.5)" x1="-0.7150000000000001" y1="0.515" x2="-0.7150000000000001" y2="0.485" /><line stroke-width="5.0e-3" transform="rotate(-90.0, -0.7150000000000001, 0.4)" x1="-0.7150000000000001" y1="0.41500000000000004" x2="-0.7150000000000001" y2="0.385" /><line stroke-width="5.0e-3" transform="rotate(-90.0, -0.7150000000000001, 0.3)" x1="-0.7150000000000001" y1="0.315" x2="-0.7150000000000001" y2="0.285" /><line stroke-width="5.0e-3" transform="rotate(-90.0, -0.7150000000000001, 0.2)" x1="-0.7150000000000001" y1="0.21500000000000002" x2="-0.7150000000000001" y2="0.185" /><line stroke-width="5.0e-3" transform="rotate(-90.0, -0.7150000000000001, 9.999999999999998e-2)" x1="-0.7150000000000001" y1="0.11499999999999998" x2="-0.7150000000000001" y2="8.499999999999998e-2" /><line stroke-width="5.0e-3" transform="rotate(-90.0, -0.7150000000000001, -0.0)" x1="-0.7150000000000001" y1="1.5e-2" x2="-0.7150000000000001" y2="-1.5e-2" /><line stroke-width="5.0e-3" transform="rotate(-90.0, -0.7150000000000001, -9.999999999999998e-2)" x1="-0.7150000000000001" y1="-8.499999999999998e-2" x2="-0.7150000000000001" y2="-0.11499999999999998" /><line stroke-width="5.0e-3" transform="rotate(-90.0, -0.7150000000000001, -0.19999999999999996)" x1="-0.7150000000000001" y1="-0.18499999999999994" x2="-0.7150000000000001" y2="-0.21499999999999997" /><line stroke-width="5.0e-3" transform="rotate(-90.0, -0.7150000000000001, -0.30000000000000004)" x1="-0.7150000000000001" y1="-0.28500000000000003" x2="-0.7150000000000001" y2="-0.31500000000000006" /><line stroke-width="5.0e-3" transform="rotate(-90.0, -0.7150000000000001, -0.4)" x1="-0.7150000000000001" y1="-0.385" x2="-0.7150000000000001" y2="-0.41500000000000004" /><line stroke-width="5.0e-3" transform="rotate(-90.0, -0.7150000000000001, -0.5)" x1="-0.7150000000000001" y1="-0.485" x2="-0.7150000000000001" y2="-0.515" /></g><g stroke-width="0.0" stroke="#666666" fill="#5F0391" fill-opacity="0.5" stroke-opacity="0.0"><rect width="5.0000000000000044e-3" height="1.0" x="-0.7050000000000001" y="-0.5" /></g><g stroke-width="5.0e-3" stroke="#A8E5EE" fill="none" stroke-opacity="0.3"><polyline points="-0.665,0.505 -0.665,-0.505" /></g><g stroke-width="5.0e-3" stroke="#A8E5EE" fill="none" stroke-opacity="0.3"><polyline points="-0.5440909090909091,0.505 -0.5440909090909091,-0.505" /></g><g stroke-width="5.0e-3" stroke="#A8E5EE" fill="none" stroke-opacity="0.3"><polyline points="-0.4231818181818182,0.505 -0.4231818181818182,-0.505" /></g><g stroke-width="5.0e-3" stroke="#A8E5EE" fill="none" stroke-opacity="0.3"><polyline points="-0.3022727272727273,0.505 -0.3022727272727273,-0.505" /></g><g stroke-width="5.0e-3" stroke="#A8E5EE" fill="none" stroke-opacity="0.3"><polyline points="-0.18136363636363634,0.505 -0.18136363636363634,-0.505" /></g><g stroke-width="5.0e-3" stroke="#A8E5EE" fill="none" stroke-opacity="0.3"><polyline points="-6.045454545454543e-2,0.505 -6.045454545454543e-2,-0.505" /></g><g stroke-width="5.0e-3" stroke="#A8E5EE" fill="none" stroke-opacity="0.3"><polyline points="6.045454545454543e-2,0.505 6.045454545454543e-2,-0.505" /></g><g stroke-width="5.0e-3" stroke="#A8E5EE" fill="none" stroke-opacity="0.3"><polyline points="0.1813636363636364,0.505 0.1813636363636364,-0.505" /></g><g stroke-width="5.0e-3" stroke="#A8E5EE" fill="none" stroke-opacity="0.3"><polyline points="0.30227272727272736,0.505 0.30227272727272736,-0.505" /></g><g stroke-width="5.0e-3" stroke="#A8E5EE" fill="none" stroke-opacity="0.3"><polyline points="0.4231818181818183,0.505 0.4231818181818183,-0.505" /></g><g stroke-width="5.0e-3" stroke="#A8E5EE" fill="none" stroke-opacity="0.3"><polyline points="0.5440909090909092,0.505 0.5440909090909092,-0.505" /></g><g stroke-width="5.0e-3" stroke="#A8E5EE" fill="none" stroke-opacity="0.3"><polyline points="0.665,0.505 0.665,-0.505" /></g><g stroke-width="0.0" stroke="none" fill="#666666" fill-opacity="1.0" font-size="5.0e-2" text-anchor="middle"><text x="-0.665" y="0.6182116423963016">-5</text></g><g stroke-width="0.0" stroke="none" fill="#666666" fill-opacity="1.0" font-size="5.0e-2" text-anchor="middle"><text x="-0.5440909090909091" y="0.6182116423963016">-4</text></g><g stroke-width="0.0" stroke="none" fill="#666666" fill-opacity="1.0" font-size="5.0e-2" text-anchor="middle"><text x="-0.4231818181818182" y="0.6182116423963016">-3</text></g><g stroke-width="0.0" stroke="none" fill="#666666" fill-opacity="1.0" font-size="5.0e-2" text-anchor="middle"><text x="-0.3022727272727273" y="0.6182116423963016">-2</text></g><g stroke-width="0.0" stroke="none" fill="#666666" fill-opacity="1.0" font-size="5.0e-2" text-anchor="middle"><text x="-0.18136363636363634" y="0.6182116423963016">-1</text></g><g stroke-width="0.0" stroke="none" fill="#666666" fill-opacity="1.0" font-size="5.0e-2" text-anchor="middle"><text x="-6.045454545454543e-2" y="0.6182116423963016">0</text></g><g stroke-width="0.0" stroke="none" fill="#666666" fill-opacity="1.0" font-size="5.0e-2" text-anchor="middle"><text x="6.045454545454543e-2" y="0.6182116423963016">1</text></g><g stroke-width="0.0" stroke="none" fill="#666666" fill-opacity="1.0" font-size="5.0e-2" text-anchor="middle"><text x="0.1813636363636364" y="0.6182116423963016">2</text></g><g stroke-width="0.0" stroke="none" fill="#666666" fill-opacity="1.0" font-size="5.0e-2" text-anchor="middle"><text x="0.30227272727272736" y="0.6182116423963016">3</text></g><g stroke-width="0.0" stroke="none" fill="#666666" fill-opacity="1.0" font-size="5.0e-2" text-anchor="middle"><text x="0.4231818181818183" y="0.6182116423963016">4</text></g><g stroke-width="0.0" stroke="none" fill="#666666" fill-opacity="1.0" font-size="5.0e-2" text-anchor="middle"><text x="0.5440909090909092" y="0.6182116423963016">5</text></g><g stroke-width="0.0" stroke="none" fill="#666666" fill-opacity="1.0" font-size="5.0e-2" text-anchor="middle"><text x="0.665" y="0.6182116423963016">6</text></g><g stroke-width="0.0" stroke="#2C429D" fill="#5F0391" fill-opacity="1.0" stroke-opacity="0.4"><line stroke-width="5.0e-3" x1="-0.665" y1="0.5519616423963015" x2="-0.665" y2="0.5219616423963015" /><line stroke-width="5.0e-3" x1="-0.5440909090909091" y1="0.5519616423963015" x2="-0.5440909090909091" y2="0.5219616423963015" /><line stroke-width="5.0e-3" x1="-0.4231818181818182" y1="0.5519616423963015" x2="-0.4231818181818182" y2="0.5219616423963015" /><line stroke-width="5.0e-3" x1="-0.3022727272727273" y1="0.5519616423963015" x2="-0.3022727272727273" y2="0.5219616423963015" /><line stroke-width="5.0e-3" x1="-0.18136363636363634" y1="0.5519616423963015" x2="-0.18136363636363634" y2="0.5219616423963015" /><line stroke-width="5.0e-3" x1="-6.045454545454543e-2" y1="0.5519616423963015" x2="-6.045454545454543e-2" y2="0.5219616423963015" /><line stroke-width="5.0e-3" x1="6.045454545454543e-2" y1="0.5519616423963015" x2="6.045454545454543e-2" y2="0.5219616423963015" /><line stroke-width="5.0e-3" x1="0.1813636363636364" y1="0.5519616423963015" x2="0.1813636363636364" y2="0.5219616423963015" /><line stroke-width="5.0e-3" x1="0.30227272727272736" y1="0.5519616423963015" x2="0.30227272727272736" y2="0.5219616423963015" /><line stroke-width="5.0e-3" x1="0.4231818181818183" y1="0.5519616423963015" x2="0.4231818181818183" y2="0.5219616423963015" /><line stroke-width="5.0e-3" x1="0.5440909090909092" y1="0.5519616423963015" x2="0.5440909090909092" y2="0.5219616423963015" /><line stroke-width="5.0e-3" x1="0.665" y1="0.5519616423963015" x2="0.665" y2="0.5219616423963015" /></g><g stroke-width="0.0" stroke="#666666" fill="#5F0391" fill-opacity="0.5" stroke-opacity="0.0"><rect width="1.33" height="5.0000000000000044e-3" x="-0.665" y="0.5219616423963015" /></g><g stroke-width="3.0e-3" stroke="#2C429D" fill="#D99721" fill-opacity="0.8" stroke-opacity="0.4"><rect width="3.0000000000000027e-2" height="3.0000000000000027e-2" x="0.34819359408499684" y="-0.3931918772084929" /><rect width="3.0e-2" height="3.0e-2" x="9.140734140074804e-2" y="-7.008125450078005e-2" /><rect width="3.0000000000000027e-2" height="3.0000000000000027e-2" x="-0.30777761223493144" y="0.33867640460713777" /><rect width="3.0000000000000027e-2" height="3.0000000000000027e-2" x="0.2027994088146634" y="-0.15958568929659556" /><rect width="3.0000000000000027e-2" height="3.0000000000000027e-2" x="0.16063864037491216" y="-0.27173522157772456" /><rect width="3.0000000000000027e-2" height="3.0000000000000027e-2" x="-0.1964324216705573" y="0.3986404071424241" /><rect width="3.0e-2" height="3.0000000000000027e-2" x="8.735006730394292e-2" y="-0.24011627166378702" /><rect width="3.0000000000000027e-2" height="3.0000000000000027e-2" x="0.3269519331353551" y="-0.4012156091474388" /><rect width="3.0e-2" height="3.0e-2" x="8.208687905492908e-2" y="-8.101733677510435e-2" /><rect width="3.0000000000000027e-2" height="3.0e-2" x="0.16028014157829296" y="-3.879805666589985e-2" /><rect width="3.0e-2" height="3.0e-2" x="-2.8222858540761328e-2" y="-5.524861725785922e-2" /><rect width="3.0000000000000013e-2" height="3.0000000000000027e-2" x="-0.1302991811791735" y="0.30760002625301275" /><rect width="3.0000000000000027e-2" height="3.0e-2" x="0.29309038606204385" y="-4.250349294396581e-2" /><rect width="3.0000000000000027e-2" height="3.0000000000000027e-2" x="-0.28224197910819454" y="0.23028444696709593" /><rect width="3.0000000000000027e-2" height="3.0000000000000027e-2" x="0.2030293299912067" y="-0.19817181639294823" /><rect width="3.0000000000000027e-2" height="3.0000000000000027e-2" x="0.5991572294999071" y="-0.4739486775681814" /><rect width="3.0000000000000027e-2" height="3.0000000000000027e-2" x="0.32383006204165066" y="-0.334092526414724" /><rect width="3.0000000000000027e-2" height="3.0000000000000027e-2" x="0.26106881201640264" y="-0.37105226555141724" /><rect width="3.0000000000000027e-2" height="3.0000000000000027e-2" x="-0.49863915511152" y="0.275383547127539" /><rect width="3.0000000000000027e-2" height="3.0000000000000027e-2" x="0.6365753970057725" y="-0.4872441946991769" /><rect width="3.0e-2" height="3.0e-2" x="6.361125590796336e-2" y="-6.489326994582688e-2" /><rect width="3.0000000000000027e-2" height="3.0000000000000027e-2" x="0.16015290807681093" y="-0.22399053095098598" /><rect width="3.0000000000000027e-2" height="3.0000000000000027e-2" x="-0.42938969302150853" y="0.4576810314001636" /><rect width="3.0000000000000027e-2" height="3.0000000000000027e-2" x="-0.5251379637973228" y="0.34920425049452763" /><rect width="3.0000000000000027e-2" height="3.0000000000000027e-2" x="-0.15864871481308385" y="0.134855832201922" /><rect width="3.0e-2" height="3.0000000000000027e-2" x="3.9722208922494465e-2" y="-0.16576226851637565" /><rect width="3.0e-2" height="3.0e-2" x="5.711616762591701e-3" y="7.770230368765009e-2" /><rect width="3.0000000000000027e-2" height="3.0000000000000027e-2" x="0.25989816518870423" y="-0.24662407307016876" /><rect width="3.0000000000000027e-2" height="3.0000000000000027e-2" x="-0.39085423666374025" y="0.3292126855231705" /><rect width="2.999999999999997e-2" height="3.0000000000000027e-2" x="-0.5120979082161865" y="0.35922649066322965" /><rect width="3.0e-2" height="3.0000000000000027e-2" x="-9.13136385500296e-2" y="0.1637534671173353" /><rect width="3.0000000000000013e-2" height="3.0000000000000027e-2" x="9.980340796321464e-2" y="-0.17575451214572135" /><rect width="3.0000000000000027e-2" height="3.0000000000000013e-2" x="0.33553295211300915" y="-0.12560165799530365" /><rect width="3.0000000000000013e-2" height="3.0000000000000013e-2" x="0.10814677501459959" y="-0.14454290878732312" /><rect width="3.0000000000000027e-2" height="3.0000000000000027e-2" x="-0.5156971025754131" y="0.44995654400043916" /><rect width="3.0000000000000027e-2" height="3.0000000000000027e-2" x="0.274404194340791" y="-0.3900824515818061" /><rect width="3.0000000000000027e-2" height="3.0000000000000027e-2" x="-0.21123834691777488" y="0.3161815755655424" /><rect width="3.0000000000000027e-2" height="3.0000000000000027e-2" x="0.3788011111538817" y="-0.467916453317164" /><rect width="3.0e-2" height="3.0000000000000027e-2" x="7.377017261089404e-2" y="0.12778413561273155" /><rect width="3.0000000000000027e-2" height="3.0000000000000027e-2" x="-0.48624108542862465" y="0.32480670413173707" /><rect width="3.0000000000000027e-2" height="3.0000000000000027e-2" x="0.15105082807652015" y="-0.17745177529984513" /><rect width="3.0000000000000027e-2" height="3.0000000000000027e-2" x="0.46908473975160103" y="-0.36127571763134003" /><rect width="3.0e-2" height="3.0e-2" x="-1.2986139116991965e-2" y="5.928117568213588e-2" /><rect width="3.0000000000000027e-2" height="3.0000000000000027e-2" x="0.27207439302225445" y="-0.26730803492809574" /><rect width="3.0e-2" height="3.0e-2" x="-1.3293244664096523e-2" y="-5.195069054379607e-2" /><rect width="3.0000000000000027e-2" height="3.0000000000000027e-2" x="-0.46030531453352713" y="0.31135945182364355" /><rect width="3.0000000000000027e-2" height="3.0000000000000027e-2" x="0.3135791112817695" y="-0.25806100640791774" /><rect width="3.0e-2" height="3.0000000000000027e-2" x="6.487762277306276e-2" y="-0.15623357701401464" /><rect width="3.0e-2" height="3.0e-2" x="6.764175243212957e-2" y="-9.118751383281264e-2" /><rect width="3.0000000000000027e-2" height="3.0000000000000027e-2" x="0.22184763402981011" y="-0.21867591359267757" /><rect width="3.0000000000000027e-2" height="3.0000000000000027e-2" x="0.22112502956287006" y="-0.18969185740493966" /><rect width="3.0000000000000027e-2" height="3.0000000000000027e-2" x="-0.5025423807928221" y="0.44592120295184356" /><rect width="3.0000000000000013e-2" height="3.0e-2" x="-0.1449285617827878" y="2.345072062589955e-2" /><rect width="3.0000000000000027e-2" height="3.0000000000000027e-2" x="-0.35273532901220706" y="0.438035546851246" /><rect width="3.0000000000000027e-2" height="3.0000000000000027e-2" x="0.4105430504820887" y="-0.2491083474482254" /><rect width="3.0000000000000027e-2" height="3.0000000000000027e-2" x="0.1656325007248043" y="-0.18479733719433733" /><rect width="3.0000000000000027e-2" height="3.0000000000000027e-2" x="0.1549057955041142" y="-0.2881942844711006" /><rect width="3.0000000000000027e-2" height="3.0000000000000027e-2" x="-0.31600850462411556" y="0.19761781701055375" /><rect width="3.0000000000000027e-2" height="3.0e-2" x="0.21171936588019358" y="-7.424030619846421e-2" /><rect width="3.0000000000000027e-2" height="3.0000000000000027e-2" x="0.641132119122433" y="-0.4971501978178028" /><rect width="3.0000000000000027e-2" height="3.0000000000000027e-2" x="-0.5434293096844013" y="0.4545559249106079" /><rect width="3.0000000000000027e-2" height="3.0e-2" x="0.12587044796183477" y="-6.277411205813264e-2" /><rect width="3.0000000000000027e-2" height="3.0000000000000027e-2" x="-0.48259707889775527" y="0.47847919437504416" /><rect width="3.0000000000000027e-2" height="3.0000000000000027e-2" x="-0.5392235468126824" y="0.3500387107521852" /><rect width="3.0000000000000027e-2" height="3.0000000000000027e-2" x="-0.6220237576997328" y="0.4804616423963015" /><rect width="3.0000000000000027e-2" height="3.0000000000000027e-2" x="-0.25341285851219203" y="0.15894939730743757" /><rect width="3.0000000000000027e-2" height="3.0000000000000027e-2" x="-0.32392738639550667" y="0.3458640839845155" /><rect width="3.0000000000000027e-2" height="3.0000000000000027e-2" x="0.30594788057113886" y="-0.3010491416180011" /><rect width="3.0000000000000027e-2" height="3.0000000000000013e-2" x="-0.19943369382559217" y="0.10977303941011148" /><rect width="3.0000000000000027e-2" height="3.0e-2" x="0.25984760117379957" y="-7.934549520062072e-2" /><rect width="3.0000000000000027e-2" height="3.0000000000000027e-2" x="0.30298113240893776" y="-0.3226904513029982" /><rect width="3.0000000000000013e-2" height="3.0000000000000027e-2" x="0.11931895224176738" y="-0.24098744487096058" /><rect width="3.0000000000000027e-2" height="3.0000000000000027e-2" x="-0.3374134171582653" y="0.27939730417534037" /><rect width="3.0000000000000027e-2" height="3.0000000000000027e-2" x="-0.35903894462070446" y="0.3486761290069791" /><rect width="3.0000000000000027e-2" height="3.0e-2" x="-0.15906395617172964" y="-6.38732781444644e-2" /><rect width="3.0000000000000027e-2" height="3.0000000000000027e-2" x="0.17523617448974493" y="-0.2401014792044096" /><rect width="3.0e-2" height="3.0000000000000013e-2" x="-3.0455263609013503e-2" y="9.87109499716838e-2" /><rect width="3.0000000000000027e-2" height="3.0e-2" x="0.23310990239493556" y="-4.5754225482539795e-3" /><rect width="3.0e-2" height="3.0000000000000027e-2" x="-0.11003609586704964" y="0.15942292072964115" /><rect width="3.0000000000000027e-2" height="3.0000000000000027e-2" x="0.27871740761634456" y="-0.28253649511499734" /><rect width="3.0e-2" height="3.0e-2" x="-0.11111722350079566" y="-2.6818078011297403e-3" /><rect width="3.0000000000000027e-2" height="3.0000000000000027e-2" x="-0.17998776435166708" y="0.1275927072026552" /><rect width="3.0000000000000027e-2" height="3.0000000000000027e-2" x="0.40931299553848033" y="-0.38835138957357584" /><rect width="3.0000000000000027e-2" height="3.0000000000000027e-2" x="0.3467707256873517" y="-0.2885732517428007" /><rect width="3.0000000000000027e-2" height="3.0000000000000027e-2" x="-0.3840064814790526" y="0.41537742699835345" /><rect width="3.0000000000000027e-2" height="3.0000000000000027e-2" x="0.523739084834108" y="-0.4757203260355717" /><rect width="3.0000000000000027e-2" height="3.0000000000000027e-2" x="-0.43857259049641406" y="0.41015258386921793" /><rect width="3.0000000000000027e-2" height="3.0000000000000027e-2" x="0.39838862748290194" y="-0.43410401027352885" /><rect width="3.0e-2" height="3.0e-2" x="8.44016731583861e-2" y="1.8981200317518723e-2" /><rect width="3.0000000000000027e-2" height="3.0e-2" x="-0.16202307591709164" y="4.595971734347795e-3" /><rect width="3.0e-2" height="3.0e-2" x="-7.136714680825372e-2" y="-5.680979177717836e-2" /><rect width="3.0000000000000027e-2" height="3.0000000000000027e-2" x="-0.34949520313195503" y="0.2699858014984542" /><rect width="3.0000000000000027e-2" height="3.0000000000000027e-2" x="0.392690384213925" y="-0.39305753389623177" /><rect width="3.0e-2" height="3.0e-2" x="-8.492585570774022e-3" y="-0.11189149363087968" /><rect width="3.0000000000000027e-2" height="3.0000000000000027e-2" x="0.13311198434043525" y="-0.20050968988095075" /><rect width="3.0000000000000027e-2" height="3.0000000000000027e-2" x="-0.5553761702188876" y="0.4055891795622879" /><rect width="3.0000000000000027e-2" height="3.0000000000000027e-2" x="0.21878686450068885" y="-0.19554853123319738" /><rect width="3.0000000000000027e-2" height="3.0000000000000027e-2" x="0.5193141452321369" y="-0.5035873370875514" /><rect width="3.0000000000000027e-2" height="3.0000000000000027e-2" x="0.3262040346947622" y="-0.16213570733889193" /><rect width="3.0000000000000027e-2" height="3.0000000000000027e-2" x="0.3276160015508961" y="-0.1639366842418174" /><rect width="3.0000000000000027e-2" height="3.0e-2" x="0.15629738522166337" y="-5.9593526558693974e-2" /><rect width="3.0000000000000027e-2" height="3.0000000000000027e-2" x="-0.22711156790020398" y="0.20337887512752778" /><rect width="3.0000000000000027e-2" height="3.0000000000000027e-2" x="0.18477463663054272" y="-0.38252672260358145" /><rect width="3.0000000000000027e-2" height="3.0000000000000027e-2" x="-0.3650541085213314" y="0.35465240662667075" /><rect width="3.0000000000000027e-2" height="3.0000000000000027e-2" x="-0.5924964159956715" y="0.4766090014308253" /><rect width="3.0000000000000027e-2" height="3.0000000000000027e-2" x="0.5577522825037978" y="-0.4639578908565396" /><rect width="3.0000000000000027e-2" height="3.0000000000000027e-2" x="0.33721191813116735" y="-0.4249542994417299" /><rect width="3.0e-2" height="3.0e-2" x="3.318227836614719e-2" y="1.0665943344185982e-2" /><rect width="3.0e-2" height="3.0e-2" x="3.4930572041240865e-3" y="-7.401200495652425e-2" /><rect width="3.0000000000000027e-2" height="3.0000000000000027e-2" x="0.403628140850229" y="-0.46982936708494205" /><rect width="3.0000000000000027e-2" height="3.0e-2" x="0.16669532637268625" y="-9.615829015763964e-2" /><rect width="3.0000000000000027e-2" height="3.0000000000000027e-2" x="0.2205061102224427" y="-0.2115749982582611" /><rect width="3.0000000000000027e-2" height="3.0000000000000027e-2" x="-0.3744852865781132" y="0.3224748004096052" /><rect width="3.0000000000000027e-2" height="3.0000000000000027e-2" x="0.22831170905634934" y="-0.17859021451984347" /><rect width="3.0000000000000027e-2" height="3.0000000000000027e-2" x="-0.3896752373348304" y="0.23469288426429386" /><rect width="3.0000000000000027e-2" height="3.0000000000000027e-2" x="-0.28533822313691926" y="0.12937652386721749" /><rect width="3.0000000000000027e-2" height="3.0000000000000027e-2" x="-0.4254053153973392" y="0.40834071892420853" /><rect width="3.0000000000000027e-2" height="3.0000000000000027e-2" x="0.3447375996884211" y="-0.29161067913520256" /><rect width="3.0000000000000027e-2" height="3.0000000000000027e-2" x="-0.312843453222574" y="0.2670765154623458" /><rect width="3.0000000000000027e-2" height="3.0000000000000027e-2" x="-0.36504535937988714" y="0.22655754314685783" /><rect width="3.0e-2" height="3.0000000000000013e-2" x="4.464717398903996e-2" y="-0.14223201788797757" /><rect width="3.0000000000000027e-2" height="3.0e-2" x="-0.1963777689726907" y="4.4157462927059146e-2" /><rect width="3.0e-2" height="3.0e-2" x="5.962510265577549e-2" y="-3.0721882321593993e-2" /><rect width="3.0000000000000013e-2" height="3.0000000000000027e-2" x="0.11530367063821224" y="-0.22174412179672975" /><rect width="3.0000000000000027e-2" height="3.0000000000000027e-2" x="-0.3717865230530858" y="0.3922249903436441" /><rect width="3.0000000000000027e-2" height="3.0000000000000027e-2" x="-0.47023299137893554" y="0.3532829367620096" /><rect width="3.0000000000000027e-2" height="3.0000000000000027e-2" x="0.2731536187805709" y="-0.3005277046319237" /><rect width="3.0000000000000027e-2" height="3.0000000000000027e-2" x="-0.31257152036156444" y="0.22769325477324703" /><rect width="3.0000000000000027e-2" height="3.0000000000000027e-2" x="0.19544235668223742" y="-0.23061952909479044" /><rect width="3.0000000000000027e-2" height="3.0000000000000027e-2" x="0.28211484946728593" y="-0.28230118456347064" /><rect width="3.0000000000000027e-2" height="3.0000000000000027e-2" x="-0.42647020846062333" y="0.2650890955927747" /><rect width="3.0000000000000027e-2" height="3.0e-2" x="0.18355296393605336" y="-8.999228114629475e-2" /><rect width="3.0000000000000027e-2" height="3.0000000000000027e-2" x="0.192497004860273" y="-0.2889380344236784" /><rect width="3.0000000000000027e-2" height="3.0000000000000027e-2" x="0.5852786837721172" y="-0.5117944436787843" /><rect width="3.0000000000000027e-2" height="3.0e-2" x="0.1643289387283604" y="-7.136133678984512e-2" /><rect width="3.0000000000000027e-2" height="3.0000000000000027e-2" x="0.5530989720514786" y="-0.38714247829457005" /><rect width="3.0000000000000027e-2" height="3.0000000000000027e-2" x="0.3479530107512482" y="-0.5053112055499174" /><rect width="3.0e-2" height="3.0e-2" x="-5.219956750320674e-2" y="-6.7017725319778315e-3" /><rect width="3.0000000000000027e-2" height="3.0e-2" x="0.15144082811649417" y="-0.12203258354314782" /><rect width="3.0000000000000013e-2" height="3.0000000000000027e-2" x="0.12075983903512623" y="-0.17433716448534753" /><rect width="3.0000000000000027e-2" height="3.0000000000000027e-2" x="0.3941440369603587" y="-0.4141842174661966" /><rect width="3.0000000000000027e-2" height="3.0000000000000027e-2" x="-0.2390390379370041" y="0.20082649943570247" /><rect width="3.0e-2" height="3.0e-2" x="-1.5886007129716093e-2" y="-0.11937967758144939" /><rect width="3.0e-2" height="3.0000000000000013e-2" x="-7.824649423479356e-2" y="0.11304153372990307" /><rect width="3.0000000000000027e-2" height="3.0000000000000027e-2" x="-0.31753456155031207" y="0.3715545277567438" /><rect width="3.0000000000000027e-2" height="3.0000000000000027e-2" x="0.318039608781131" y="-0.34535866419040584" /><rect width="3.0000000000000027e-2" height="3.0000000000000027e-2" x="0.5307254352311809" y="-0.5149597172642064" /><rect width="3.0000000000000027e-2" height="3.0000000000000027e-2" x="-0.39840811245954527" y="0.34490130162481836" /><rect width="3.0000000000000027e-2" height="3.0000000000000027e-2" x="0.20289846256604205" y="-0.2607668423861913" /><rect width="3.0000000000000027e-2" height="3.0000000000000027e-2" x="-0.6119035544637319" y="0.46299512148854527" /><rect width="3.0000000000000027e-2" height="3.0000000000000027e-2" x="0.27129216216337726" y="-0.2385069681733727" /><rect width="3.0000000000000027e-2" height="3.0000000000000027e-2" x="-0.5786632121534422" y="0.36306227895410825" /><rect width="3.0000000000000027e-2" height="3.0000000000000027e-2" x="0.5771877492551677" y="-0.4914628242460104" /><rect width="3.0000000000000027e-2" height="3.0000000000000027e-2" x="-0.19933733497624423" y="0.1413514827555426" /><rect width="3.0e-2" height="3.0e-2" x="-4.0881565644166104e-2" y="2.6222465183709978e-2" /><rect width="3.0000000000000013e-2" height="3.0000000000000027e-2" x="-0.13085010813935893" y="0.1701637926835402" /><rect width="3.0000000000000027e-2" height="3.0000000000000027e-2" x="0.22377982191427204" y="-0.2593345071495635" /><rect width="3.0000000000000027e-2" height="3.0000000000000027e-2" x="-0.1736671725003831" y="0.12743736437244219" /><rect width="3.0000000000000027e-2" height="3.0000000000000027e-2" x="0.49407732963971773" y="-0.4466126505469603" /><rect width="3.0000000000000027e-2" height="3.0000000000000027e-2" x="0.22471961471905266" y="-0.35581318779030446" /><rect width="3.0000000000000027e-2" height="3.0e-2" x="-0.16912993989723368" y="-2.1822413899536194e-2" /><rect width="3.0000000000000027e-2" height="3.0000000000000027e-2" x="0.2749617179885917" y="-0.2516422925108758" /><rect width="3.0000000000000027e-2" height="3.0000000000000027e-2" x="-0.48716590752541056" y="0.3446010142183886" /><rect width="3.0000000000000027e-2" height="3.0000000000000027e-2" x="-0.507116568162709" y="0.37085529080725643" /><rect width="3.0000000000000027e-2" height="3.0000000000000027e-2" x="0.19931795052039347" y="-0.16567616542334251" /><rect width="3.0e-2" height="3.0e-2" x="4.5756996639623085e-2" y="-5.483480717219867e-2" /><rect width="3.0000000000000027e-2" height="3.0000000000000027e-2" x="0.31150967810514596" y="-0.3684682112082307" /><rect width="3.0000000000000027e-2" height="3.0000000000000027e-2" x="-0.24975891174093984" y="0.14983675639475286" /><rect width="3.0000000000000027e-2" height="3.0000000000000027e-2" x="0.5170965202515568" y="-0.48651279323925556" /><rect width="3.0000000000000013e-2" height="3.0e-2" x="0.10125262180353024" y="-7.019163188947196e-2" /><rect width="3.0000000000000013e-2" height="3.0e-2" x="0.10975418398262694" y="-2.6146907491621837e-2" /><rect width="3.0000000000000027e-2" height="3.0000000000000027e-2" x="-0.32044656186472054" y="0.2703678908666951" /><rect width="3.0000000000000027e-2" height="3.0000000000000027e-2" x="0.24641036944539818" y="-0.30815209900037377" /><rect width="3.0000000000000027e-2" height="3.0000000000000013e-2" x="-0.15533147464257246" y="0.12434751973660303" /><rect width="3.0000000000000027e-2" height="3.0000000000000027e-2" x="-0.43797464304770206" y="0.364256177603959" /><rect width="3.0e-2" height="3.0000000000000013e-2" x="-2.687562716606172e-2" y="0.11547522193795264" /><rect width="3.0000000000000027e-2" height="3.0000000000000027e-2" x="0.2500533053299381" y="-0.4661664832215501" /><rect width="3.0000000000000027e-2" height="3.0000000000000027e-2" x="0.29160406400048333" y="-0.24072246625920435" /><rect width="3.0000000000000027e-2" height="3.0000000000000013e-2" x="-0.20823892098371133" y="0.12105448067585885" /><rect width="3.0000000000000027e-2" height="3.0000000000000027e-2" x="-0.22755235356703146" y="0.1363493612059476" /><rect width="3.0000000000000013e-2" height="3.0000000000000027e-2" x="9.924203792422982e-2" y="-0.20091606192767963" /><rect width="3.0000000000000027e-2" height="3.0000000000000027e-2" x="-0.26975141387269813" y="0.20446261723400205" /><rect width="3.0000000000000013e-2" height="3.0000000000000027e-2" x="-0.14444254350634544" y="0.14921024444132608" /><rect width="3.0e-2" height="3.0000000000000027e-2" x="-4.235226087266758e-4" y="-0.1926684920569287" /><rect width="3.0e-2" height="3.0000000000000027e-2" x="-8.269686316559242e-2" y="0.2838796075877654" /><rect width="3.0000000000000013e-2" height="3.0e-2" x="-0.13080640408404176" y="7.044608642091595e-2" /><rect width="3.0e-2" height="3.0e-2" x="-3.507490434007997e-2" y="-3.8555406442727355e-2" /><rect width="3.0000000000000027e-2" height="3.0e-2" x="0.1703549703088182" y="-6.1913403014914645e-2" /><rect width="3.0000000000000027e-2" height="3.0000000000000027e-2" x="-0.5984599191011514" y="0.42878250740741874" /><rect width="3.0000000000000027e-2" height="3.0000000000000027e-2" x="-0.3538910737224563" y="0.3077092614149912" /></g><g /></svg>