<svg viewBox="-0.8619765000000001 -0.6964049999999999 1.5479265 1.4248888986675547" xmlns="http://www.w3.org/2000/svg" xmlns:xlink="http://www.w3.org/1999/xlink" version="1.1" width="800.0" height="600.0"><g stroke-width="0.0" stroke="none" fill="#000000" transform="translate(-8.628750000000007e-2, -0.57175)" fill-opacity="1.0" font-size="0.12" text-anchor="middle"><text transform="rotate(0.0, 0.0, -0.0)" x="0.0" y="-0.0">Default Bar Chart</text></g><g stroke-width="0.0" stroke="#000000" fill="#666666" fill-opacity="3.0e-2" stroke-opacity="0.0"><rect width="1.33" height="1.0" x="-0.665" y="-0.5" /></g><g stroke-width="5.0e-3" stroke="#A8E5EE" fill="none" stroke-opacity="0.3"><polyline points="-0.67,0.5 0.67,0.5" /></g><g stroke-width="5.0e-3" stroke="#A8E5EE" fill="none" stroke-opacity="0.3"><polyline points="-0.67,0.40909090909090906 0.67,0.40909090909090906" /></g><g stroke-width="5.0e-3" stroke="#A8E5EE" fill="none" stroke-opacity="0.3"><polyline points="-0.67,0.3181818181818182 0.67,0.3181818181818182" /></g><g stroke-width="5.0e-3" stroke="#A8E5EE" fill="none" stroke-opacity="0.3"><polyline points="-0.67,0.2272727272727273 0.67,0.2272727272727273" /></g><g stroke-width="5.0e-3" stroke="#A8E5EE" fill="none" stroke-opacity="0.3"><polyline points="-0.67,0.13636363636363635 0.67,0.13636363636363635" /></g><g stroke-width="5.0e-3" stroke="#A8E5EE" fill="none" stroke-opacity="0.3"><polyline points="-0.67,4.545454545454547e-2 0.67,4.545454545454547e-2" /></g><g stroke-width="5.0e-3" stroke="#A8E5EE" fill="none" stroke-opacity="0.3"><polyline points="-0.67,-4.5454545454545414e-2 0.67,-4.5454545454545414e-2" /></g><g stroke-width="5.0e-3" stroke="#A8E5EE" fill="none" stroke-opacity="0.3"><polyline points="-0.67,-0.13636363636363635 0.67,-0.13636363636363635" /></g><g stroke-width="5.0e-3" stroke="#A8E5EE" fill="none" stroke-opacity="0.3"><polyline points="-0.67,-0.2272727272727273 0.67,-0.2272727272727273" /></g><g stroke-width="5.0e-3" stroke="#A8E5EE" fill="none" stroke-opacity="0.3"><polyline points="-0.67,-0.31818181818181823 0.67,-0.31818181818181823" /></g><g stroke-width="5.0e-3" stroke="#A8E5EE" fill="none" stroke-opacity="0.3"><polyline points="-0.67,-0.40909090909090906 0.67,-0.40909090909090906" /></g><g stroke-width="5.0e-3" stroke="#A8E5EE" fill="none" stroke-opacity="0.3"><polyline points="-0.67,-0.5 0.67,-0.5" /></g><g stroke-width="0.0" stroke="none" fill="#666666" fill-opacity="1.0" font-size="5.0e-2" text-anchor="end"><text x="-0.7200750000000001" y="0.5145">0</text></g><g stroke-width="0.0" stroke="none" fill="#666666" fill-opacity="1.0" font-size="5.0e-2" text-anchor="end"><text x="-0.7200750000000001" y="0.4235909090909091">100</text></g><g stroke-width="0.0" stroke="none" fill="#666666" fill-opacity="1.0" font-size="5.0e-2" text-anchor="end"><text x="-0.7200750000000001" y="0.3326818181818182">200</text></g><g stroke-width="0.0" stroke="none" fill="#666666" fill-opacity="1.0" font-size="5.0e-2" text-anchor="end"><text x="-0.7200750000000001" y="0.2417727272727273">300</text></g><g stroke-width="0.0" stroke="none" fill="#666666" fill-opacity="1.0" font-size="5.0e-2" text-anchor="end"><text x="-0.7200750000000001" y="0.15086363636363637">400</text></g><g stroke-width="0.0" stroke="none" fill="#666666" fill-opacity="1.0" font-size="5.0e-2" text-anchor="end"><text x="-0.7200750000000001" y="5.995454545454547e-2">500</text></g><g stroke-width="0.0" stroke="none" fill="#666666" fill-opacity="1.0" font-size="5.0e-2" text-anchor="end"><text x="-0.7200750000000001" y="-3.0954545454545415e-2">600</text></g><g stroke-width="0.0" stroke="none" fill="#666666" fill-opacity="1.0" font-size="5.0e-2" text-anchor="end"><text x="-0.7200750000000001" y="-0.12186363636363635">700</text></g><g stroke-width="0.0" stroke="none" fill="#666666" fill-opacity="1.0" font-size="5.0e-2" text-anchor="end"><text x="-0.7200750000000001" y="-0.21277272727272728">800</text></g><g stroke-width="0.0" stroke="none" fill="#666666" fill-opacity="1.0" font-size="5.0e-2" text-anchor="end"><text x="-0.7200750000000001" y="-0.3036818181818182">900</text></g><g stroke-width="0.0" stroke="none" fill="#666666" fill-opacity="1.0" font-size="5.0e-2" text-anchor="end"><text x="-0.7200750000000001" y="-0.39459090909090905">1,0</text></g><g stroke-width="0.0" stroke="none" fill="#666666" fill-opacity="1.0" font-size="5.0e-2" text-anchor="end"><text x="-0.7200750000000001" y="-0.4855">1,100</text></g><g stroke-width="0.0" stroke="#2C429D" fill="#5F0391" fill-opacity="1.0" stroke-opacity="0.4"><line stroke-width="5.0e-3" transform="rotate(-90.0, -0.6900000000000001, 0.5)" x1="-0.6900000000000001" y1="0.515" x2="-0.6900000000000001" y2="0.485" /><line stroke-width="5.0e-3" transform="rotate(-90.0, -0.6900000000000001, 0.40909090909090906)" x1="-0.6900000000000001" y1="0.4240909090909091" x2="-0.6900000000000001" y2="0.39409090909090905" /><line stroke-width="5.0e-3" transform="rotate(-90.0, -0.6900000000000001, 0.3181818181818182)" x1="-0.6900000000000001" y1="0.3331818181818182" x2="-0.6900000000000001" y2="0.30318181818181816" /><line stroke-width="5.0e-3" transform="rotate(-90.0, -0.6900000000000001, 0.2272727272727273)" x1="-0.6900000000000001" y1="0.2422727272727273" x2="-0.6900000000000001" y2="0.21227272727272728" /><line stroke-width="5.0e-3" transform="rotate(-90.0, -0.6900000000000001, 0.13636363636363635)" x1="-0.6900000000000001" y1="0.15136363636363637" x2="-0.6900000000000001" y2="0.12136363636363635" /><line stroke-width="5.0e-3" transform="rotate(-90.0, -0.6900000000000001, 4.545454545454547e-2)" x1="-0.6900000000000001" y1="6.045454545454547e-2" x2="-0.6900000000000001" y2="3.045454545454547e-2" /><line stroke-width="5.0e-3" transform="rotate(-90.0, -0.6900000000000001, -4.5454545454545414e-2)" x1="-0.6900000000000001" y1="-3.0454545454545415e-2" x2="-0.6900000000000001" y2="-6.0454545454545414e-2" /><line stroke-width="5.0e-3" transform="rotate(-90.0, -0.6900000000000001, -0.13636363636363635)" x1="-0.6900000000000001" y1="-0.12136363636363635" x2="-0.6900000000000001" y2="-0.15136363636363637" /><line stroke-width="5.0e-3" transform="rotate(-90.0, -0.6900000000000001, -0.2272727272727273)" x1="-0.6900000000000001" y1="-0.21227272727272728" x2="-0.6900000000000001" y2="-0.2422727272727273" /><line stroke-width="5.0e-3" transform="rotate(-90.0, -0.6900000000000001, -0.31818181818181823)" x1="-0.6900000000000001" y1="-0.3031818181818182" x2="-0.6900000000000001" y2="-0.33318181818181825" /><line stroke-width="5.0e-3" transform="rotate(-90.0, -0.6900000000000001, -0.40909090909090906)" x1="-0.6900000000000001" y1="-0.39409090909090905" x2="-0.6900000000000001" y2="-0.4240909090909091" /><line stroke-width="5.0e-3" transform="rotate(-90.0, -0.6900000000000001, -0.5)" x1="-0.6900000000000001" y1="-0.485" x2="-0.6900000000000001" y2="-0.515" /></g><g stroke-width="0.0" stroke="#666666" fill="#5F0391" fill-opacity="0.5" stroke-opacity="0.0"><rect width="5.0000000000000044e-3" height="1.0" x="-0.68" y="-0.5" /></g><g stroke-width="0.0" stroke="none" fill="#666666" fill-opacity="1.0" font-size="5.0e-2" text-anchor="end"><text transform="rotate(-45.0, -0.3325, 0.6072500000000001)" x="-0.3325" y="0.6072500000000001">False</text></g><g stroke-width="0.0" stroke="none" fill="#666666" fill-opacity="1.0" font-size="5.0e-2" text-anchor="end"><text transform="rotate(-45.0, 0.3325, 0.6072500000000001)" x="0.3325" y="0.6072500000000001">True</text></g><g stroke-width="0.0" stroke="#2C429D" fill="#5F0391" fill-opacity="1.0" stroke-opacity="0.4"><line stroke-width="5.0e-3" x1="-0.3325" y1="0.541" x2="-0.3325" y2="0.511" /><line stroke-width="5.0e-3" x1="0.3325" y1="0.541" x2="0.3325" y2="0.511" /></g><g stroke-width="0.0" stroke="#666666" fill="#5F0391" fill-opacity="0.5" stroke-opacity="0.0"><rect width="1.33" height="5.0000000000000044e-3" x="-0.665" y="0.511" /></g><g stroke-width="2.0e-3" stroke="#666666" fill="#032F74" fill-opacity="0.5" stroke-opacity="1.0"><rect width="0.5320000000000001" height="2.727272727272745e-3" x="-0.5985" y="0.49727272727272726" /><rect width="0.5319999999999999" height="0.9072727272727272" x="6.650000000000011e-2" y="-0.40727272727272723" /></g><g /><g stroke-width="0.0" stroke="none" fill="#032F74" fill-opacity="0.5" font-size="4.0e-2" text-anchor="middle"><text x="-0.3325" y="0.46098181818181816">3</text><text x="0.33250000000000013" y="-0.4435636363636364">998</text></g><g /><g stroke-width="6.600000000000001e-3" stroke="#3764A0" fill="#FFFFFF" fill-opacity="1.0" stroke-opacity="0.5" /><g /></svg>