<svg viewBox="-0.8109765000000002 -0.6964049999999999 1.4969265000000003 1.4248888986675547" xmlns="http://www.w3.org/2000/svg" xmlns:xlink="http://www.w3.org/1999/xlink" version="1.1" width="800.0" height="600.0"><g stroke-width="0.0" stroke="none" fill="#000000" transform="translate(-6.1287500000000106e-2, -0.57175)" fill-opacity="1.0" font-size="0.12" text-anchor="middle"><text transform="rotate(0.0, 0.0, -0.0)" x="0.0" y="-0.0">Default Bar Chart</text></g><g stroke-width="0.0" stroke="#000000" fill="#666666" fill-opacity="3.0e-2" stroke-opacity="0.0"><rect width="1.33" height="1.0" x="-0.665" y="-0.5" /></g><g stroke-width="5.0e-3" stroke="#A8E5EE" fill="none" stroke-opacity="0.3"><polyline points="-0.67,0.5 0.67,0.5" /></g><g stroke-width="5.0e-3" stroke="#A8E5EE" fill="none" stroke-opacity="0.3"><polyline points="-0.67,0.33333333333333337 0.67,0.33333333333333337" /></g><g stroke-width="5.0e-3" stroke="#A8E5EE" fill="none" stroke-opacity="0.3"><polyline points="-0.67,0.16666666666666669 0.67,0.16666666666666669" /></g><g stroke-width="5.0e-3" stroke="#A8E5EE" fill="none" stroke-opacity="0.3"><polyline points="-0.67,-0.0 0.67,-0.0" /></g><g stroke-width="5.0e-3" stroke="#A8E5EE" fill="none" stroke-opacity="0.3"><polyline points="-0.67,-0.16666666666666663 0.67,-0.16666666666666663" /></g><g stroke-width="5.0e-3" stroke="#A8E5EE" fill="none" stroke-opacity="0.3"><polyline points="-0.67,-0.33333333333333337 0.67,-0.33333333333333337" /></g><g stroke-width="5.0e-3" stroke="#A8E5EE" fill="none" stroke-opacity="0.3"><polyline points="-0.67,-0.5 0.67,-0.5" /></g><g stroke-width="0.0" stroke="none" fill="#666666" fill-opacity="1.0" font-size="5.0e-2" text-anchor="end"><text x="-0.7200750000000001" y="0.5145">0</text></g><g stroke-width="0.0" stroke="none" fill="#666666" fill-opacity="1.0" font-size="5.0e-2" text-anchor="end"><text x="-0.7200750000000001" y="0.3478333333333334">100</text></g><g stroke-width="0.0" stroke="none" fill="#666666" fill-opacity="1.0" font-size="5.0e-2" text-anchor="end"><text x="-0.7200750000000001" y="0.1811666666666667">200</text></g><g stroke-width="0.0" stroke="none" fill="#666666" fill-opacity="1.0" font-size="5.0e-2" text-anchor="end"><text x="-0.7200750000000001" y="1.4499999999999999e-2">300</text></g><g stroke-width="0.0" stroke="none" fill="#666666" fill-opacity="1.0" font-size="5.0e-2" text-anchor="end"><text x="-0.7200750000000001" y="-0.15216666666666662">400</text></g><g stroke-width="0.0" stroke="none" fill="#666666" fill-opacity="1.0" font-size="5.0e-2" text-anchor="end"><text x="-0.7200750000000001" y="-0.31883333333333336">500</text></g><g stroke-width="0.0" stroke="none" fill="#666666" fill-opacity="1.0" font-size="5.0e-2" text-anchor="end"><text x="-0.7200750000000001" y="-0.4855">600</text></g><g stroke-width="0.0" stroke="#2C429D" fill="#5F0391" fill-opacity="1.0" stroke-opacity="0.4"><line stroke-width="5.0e-3" transform="rotate(-90.0, -0.6900000000000001, 0.5)" x1="-0.6900000000000001" y1="0.515" x2="-0.6900000000000001" y2="0.485" /><line stroke-width="5.0e-3" transform="rotate(-90.0, -0.6900000000000001, 0.33333333333333337)" x1="-0.6900000000000001" y1="0.3483333333333334" x2="-0.6900000000000001" y2="0.31833333333333336" /><line stroke-width="5.0e-3" transform="rotate(-90.0, -0.6900000000000001, 0.16666666666666669)" x1="-0.6900000000000001" y1="0.1816666666666667" x2="-0.6900000000000001" y2="0.15166666666666667" /><line stroke-width="5.0e-3" transform="rotate(-90.0, -0.6900000000000001, -0.0)" x1="-0.6900000000000001" y1="1.5e-2" x2="-0.6900000000000001" y2="-1.5e-2" /><line stroke-width="5.0e-3" transform="rotate(-90.0, -0.6900000000000001, -0.16666666666666663)" x1="-0.6900000000000001" y1="-0.15166666666666662" x2="-0.6900000000000001" y2="-0.18166666666666664" /><line stroke-width="5.0e-3" transform="rotate(-90.0, -0.6900000000000001, -0.33333333333333337)" x1="-0.6900000000000001" y1="-0.31833333333333336" x2="-0.6900000000000001" y2="-0.3483333333333334" /><line stroke-width="5.0e-3" transform="rotate(-90.0, -0.6900000000000001, -0.5)" x1="-0.6900000000000001" y1="-0.485" x2="-0.6900000000000001" y2="-0.515" /></g><g stroke-width="0.0" stroke="#666666" fill="#5F0391" fill-opacity="0.5" stroke-opacity="0.0"><rect width="5.0000000000000044e-3" height="1.0" x="-0.68" y="-0.5" /></g><g stroke-width="0.0" stroke="none" fill="#666666" fill-opacity="1.0" font-size="5.0e-2" text-anchor="end"><text transform="rotate(-45.0, -0.3325, 0.6072500000000001)" x="-0.3325" y="0.6072500000000001">False</text></g><g stroke-width="0.0" stroke="none" fill="#666666" fill-opacity="1.0" font-size="5.0e-2" text-anchor="end"><text transform="rotate(-45.0, 0.3325, 0.6072500000000001)" x="0.3325" y="0.6072500000000001">True</text></g><g stroke-width="0.0" stroke="#2C429D" fill="#5F0391" fill-opacity="1.0" stroke-opacity="0.4"><line stroke-width="5.0e-3" x1="-0.3325" y1="0.541" x2="-0.3325" y2="0.511" /><line stroke-width="5.0e-3" x1="0.3325" y1="0.541" x2="0.3325" y2="0.511" /></g><g stroke-width="0.0" stroke="#666666" fill="#5F0391" fill-opacity="0.5" stroke-opacity="0.0"><rect width="1.33" height="5.0000000000000044e-3" x="-0.665" y="0.511" /></g><g stroke-width="2.0e-3" stroke="#666666" fill="#032F74" fill-opacity="0.5" stroke-opacity="1.0"><rect width="0.5320000000000001" height="0.765" x="-0.5985" y="-0.265" /><rect width="0.5319999999999999" height="0.9016666666666667" x="6.650000000000011e-2" y="-0.4016666666666667" /></g><g /><g stroke-width="0.0" stroke="none" fill="#032F74" fill-opacity="0.5" font-size="4.0e-2" text-anchor="middle"><text x="-0.3325" y="-0.3010666666666667">459</text><text x="0.33250000000000013" y="-0.4377333333333334">541</text></g><g /><g stroke-width="6.600000000000001e-3" stroke="#3764A0" fill="#FFFFFF" fill-opacity="1.0" stroke-opacity="0.5" /><g /></svg>