<svg viewBox="-0.8583626921176594 -0.68275 1.3658626921176593 1.486260262610592" xmlns="http://www.w3.org/2000/svg" xmlns:xlink="http://www.w3.org/1999/xlink" version="1.1" width="600.0" height="600.0"><g stroke-width="0.0" stroke="none" fill="#000000" transform="translate(-0.8028626921176594, 6.038013130529607e-2)" fill-opacity="1.0" font-size="6.0e-2" text-anchor="middle"><text transform="rotate(-90.0, 0.0, -0.0)" x="0.0" y="-0.0">ma 0.99</text></g><g stroke-width="0.0" stroke="none" fill="#000000" transform="translate(-0.1276813460588297, 0.7720102626105921)" fill-opacity="1.0" font-size="6.0e-2" text-anchor="middle"><text transform="rotate(0.0, 0.0, -0.0)" x="0.0" y="-0.0">std 0.95</text></g><g stroke-width="0.0" stroke="none" fill="#000000" transform="translate(-0.1276813460588297, -0.57175)" fill-opacity="1.0" font-size="0.12" text-anchor="middle"><text transform="rotate(0.0, 0.0, -0.0)" x="0.0" y="-0.0">std 0.95 vs ma 0.99</text></g><g stroke-width="0.0" stroke="#000000" fill="#666666" fill-opacity="3.0e-2" stroke-opacity="0.0"><rect width="1.0" height="1.0" x="-0.5" y="-0.5" /></g><g stroke-width="5.0e-3" stroke="#A8E5EE" fill="none" stroke-opacity="0.3"><polyline points="-0.505,0.5 0.505,0.5" /></g><g stroke-width="5.0e-3" stroke="#A8E5EE" fill="none" stroke-opacity="0.3"><polyline points="-0.505,0.35714285714285715 0.505,0.35714285714285715" /></g><g stroke-width="5.0e-3" stroke="#A8E5EE" fill="none" stroke-opacity="0.3"><polyline points="-0.505,0.2142857142857143 0.505,0.2142857142857143" /></g><g stroke-width="5.0e-3" stroke="#A8E5EE" fill="none" stroke-opacity="0.3"><polyline points="-0.505,7.142857142857145e-2 0.505,7.142857142857145e-2" /></g><g stroke-width="5.0e-3" stroke="#A8E5EE" fill="none" stroke-opacity="0.3"><polyline points="-0.505,-7.14285714285714e-2 0.505,-7.14285714285714e-2" /></g><g stroke-width="5.0e-3" stroke="#A8E5EE" fill="none" stroke-opacity="0.3"><polyline points="-0.505,-0.2142857142857143 0.505,-0.2142857142857143" /></g><g stroke-width="5.0e-3" stroke="#A8E5EE" fill="none" stroke-opacity="0.3"><polyline points="-0.505,-0.3571428571428571 0.505,-0.3571428571428571" /></g><g stroke-width="5.0e-3" stroke="#A8E5EE" fill="none" stroke-opacity="0.3"><polyline points="-0.505,-0.5 0.505,-0.5" /></g><g stroke-width="0.0" stroke="none" fill="#666666" fill-opacity="1.0" font-size="5.0e-2" text-anchor="end"><text x="-0.6128626921176593" y="0.5145">-0.002</text></g><g stroke-width="0.0" stroke="none" fill="#666666" fill-opacity="1.0" font-size="5.0e-2" text-anchor="end"><text x="-0.6128626921176593" y="0.37164285714285716">0.000</text></g><g stroke-width="0.0" stroke="none" fill="#666666" fill-opacity="1.0" font-size="5.0e-2" text-anchor="end"><text x="-0.6128626921176593" y="0.22878571428571431">0.002</text></g><g stroke-width="0.0" stroke="none" fill="#666666" fill-opacity="1.0" font-size="5.0e-2" text-anchor="end"><text x="-0.6128626921176593" y="8.592857142857145e-2">0.004</text></g><g stroke-width="0.0" stroke="none" fill="#666666" fill-opacity="1.0" font-size="5.0e-2" text-anchor="end"><text x="-0.6128626921176593" y="-5.69285714285714e-2">0.006</text></g><g stroke-width="0.0" stroke="none" fill="#666666" fill-opacity="1.0" font-size="5.0e-2" text-anchor="end"><text x="-0.6128626921176593" y="-0.1997857142857143">0.008</text></g><g stroke-width="0.0" stroke="none" fill="#666666" fill-opacity="1.0" font-size="5.0e-2" text-anchor="end"><text x="-0.6128626921176593" y="-0.3426428571428571">0.010</text></g><g stroke-width="0.0" stroke="none" fill="#666666" fill-opacity="1.0" font-size="5.0e-2" text-anchor="end"><text x="-0.6128626921176593" y="-0.4855">0.012</text></g><g stroke-width="0.0" stroke="#2C429D" fill="#5F0391" fill-opacity="1.0" stroke-opacity="0.4"><line stroke-width="5.0e-3" transform="rotate(-90.0, -0.5827876921176592, 0.5)" x1="-0.5827876921176592" y1="0.515" x2="-0.5827876921176592" y2="0.485" /><line stroke-width="5.0e-3" transform="rotate(-90.0, -0.5827876921176592, 0.35714285714285715)" x1="-0.5827876921176592" y1="0.37214285714285716" x2="-0.5827876921176592" y2="0.34214285714285714" /><line stroke-width="5.0e-3" transform="rotate(-90.0, -0.5827876921176592, 0.2142857142857143)" x1="-0.5827876921176592" y1="0.22928571428571431" x2="-0.5827876921176592" y2="0.1992857142857143" /><line stroke-width="5.0e-3" transform="rotate(-90.0, -0.5827876921176592, 7.142857142857145e-2)" x1="-0.5827876921176592" y1="8.642857142857145e-2" x2="-0.5827876921176592" y2="5.642857142857145e-2" /><line stroke-width="5.0e-3" transform="rotate(-90.0, -0.5827876921176592, -7.14285714285714e-2)" x1="-0.5827876921176592" y1="-5.64285714285714e-2" x2="-0.5827876921176592" y2="-8.64285714285714e-2" /><line stroke-width="5.0e-3" transform="rotate(-90.0, -0.5827876921176592, -0.2142857142857143)" x1="-0.5827876921176592" y1="-0.1992857142857143" x2="-0.5827876921176592" y2="-0.22928571428571431" /><line stroke-width="5.0e-3" transform="rotate(-90.0, -0.5827876921176592, -0.3571428571428571)" x1="-0.5827876921176592" y1="-0.3421428571428571" x2="-0.5827876921176592" y2="-0.3721428571428571" /><line stroke-width="5.0e-3" transform="rotate(-90.0, -0.5827876921176592, -0.5)" x1="-0.5827876921176592" y1="-0.485" x2="-0.5827876921176592" y2="-0.515" /></g><g stroke-width="0.0" stroke="#666666" fill="#5F0391" fill-opacity="0.5" stroke-opacity="0.0"><rect width="5.0000000000000044e-3" height="1.0" x="-0.5727876921176592" y="-0.5" /></g><g stroke-width="5.0e-3" stroke="#A8E5EE" fill="none" stroke-opacity="0.3"><polyline points="-0.5,0.505 -0.5,-0.505" /></g><g stroke-width="5.0e-3" stroke="#A8E5EE" fill="none" stroke-opacity="0.3"><polyline points="-0.3888888888888889,0.505 -0.3888888888888889,-0.505" /></g><g stroke-width="5.0e-3" stroke="#A8E5EE" fill="none" stroke-opacity="0.3"><polyline points="-0.2777777777777778,0.505 -0.2777777777777778,-0.505" /></g><g stroke-width="5.0e-3" stroke="#A8E5EE" fill="none" stroke-opacity="0.3"><polyline points="-0.16666666666666669,0.505 -0.16666666666666669,-0.505" /></g><g stroke-width="5.0e-3" stroke="#A8E5EE" fill="none" stroke-opacity="0.3"><polyline points="-5.555555555555558e-2,0.505 -5.555555555555558e-2,-0.505" /></g><g stroke-width="5.0e-3" stroke="#A8E5EE" fill="none" stroke-opacity="0.3"><polyline points="5.555555555555547e-2,0.505 5.555555555555547e-2,-0.505" /></g><g stroke-width="5.0e-3" stroke="#A8E5EE" fill="none" stroke-opacity="0.3"><polyline points="0.16666666666666663,0.505 0.16666666666666663,-0.505" /></g><g stroke-width="5.0e-3" stroke="#A8E5EE" fill="none" stroke-opacity="0.3"><polyline points="0.2777777777777777,0.505 0.2777777777777777,-0.505" /></g><g stroke-width="5.0e-3" stroke="#A8E5EE" fill="none" stroke-opacity="0.3"><polyline points="0.38888888888888884,0.505 0.38888888888888884,-0.505" /></g><g stroke-width="5.0e-3" stroke="#A8E5EE" fill="none" stroke-opacity="0.3"><polyline points="0.5,0.505 0.5,-0.505" /></g><g stroke-width="0.0" stroke="none" fill="#666666" fill-opacity="1.0" font-size="4.137931034482759e-2" text-anchor="end"><text transform="rotate(-45.0, -0.5, 0.6000000000000001)" x="-0.5" y="0.6000000000000001">0.002</text></g><g stroke-width="0.0" stroke="none" fill="#666666" fill-opacity="1.0" font-size="4.137931034482759e-2" text-anchor="end"><text transform="rotate(-45.0, -0.3888888888888889, 0.6000000000000001)" x="-0.3888888888888889" y="0.6000000000000001">0.004</text></g><g stroke-width="0.0" stroke="none" fill="#666666" fill-opacity="1.0" font-size="4.137931034482759e-2" text-anchor="end"><text transform="rotate(-45.0, -0.2777777777777778, 0.6000000000000001)" x="-0.2777777777777778" y="0.6000000000000001">0.006</text></g><g stroke-width="0.0" stroke="none" fill="#666666" fill-opacity="1.0" font-size="4.137931034482759e-2" text-anchor="end"><text transform="rotate(-45.0, -0.16666666666666669, 0.6000000000000001)" x="-0.16666666666666669" y="0.6000000000000001">0.008</text></g><g stroke-width="0.0" stroke="none" fill="#666666" fill-opacity="1.0" font-size="4.137931034482759e-2" text-anchor="end"><text transform="rotate(-45.0, -5.555555555555558e-2, 0.6000000000000001)" x="-5.555555555555558e-2" y="0.6000000000000001">0.010</text></g><g stroke-width="0.0" stroke="none" fill="#666666" fill-opacity="1.0" font-size="4.137931034482759e-2" text-anchor="end"><text transform="rotate(-45.0, 5.555555555555547e-2, 0.6000000000000001)" x="5.555555555555547e-2" y="0.6000000000000001">0.012</text></g><g stroke-width="0.0" stroke="none" fill="#666666" fill-opacity="1.0" font-size="4.137931034482759e-2" text-anchor="end"><text transform="rotate(-45.0, 0.16666666666666663, 0.6000000000000001)" x="0.16666666666666663" y="0.6000000000000001">0.014</text></g><g stroke-width="0.0" stroke="none" fill="#666666" fill-opacity="1.0" font-size="4.137931034482759e-2" text-anchor="end"><text transform="rotate(-45.0, 0.2777777777777777, 0.6000000000000001)" x="0.2777777777777777" y="0.6000000000000001">0.016</text></g><g stroke-width="0.0" stroke="none" fill="#666666" fill-opacity="1.0" font-size="4.137931034482759e-2" text-anchor="end"><text transform="rotate(-45.0, 0.38888888888888884, 0.6000000000000001)" x="0.38888888888888884" y="0.6000000000000001">0.018</text></g><g stroke-width="0.0" stroke="none" fill="#666666" fill-opacity="1.0" font-size="4.137931034482759e-2" text-anchor="end"><text transform="rotate(-45.0, 0.5, 0.6000000000000001)" x="0.5" y="0.6000000000000001">0.020</text></g><g stroke-width="0.0" stroke="#2C429D" fill="#5F0391" fill-opacity="1.0" stroke-opacity="0.4"><line stroke-width="5.0e-3" x1="-0.5" y1="0.54" x2="-0.5" y2="0.51" /><line stroke-width="5.0e-3" x1="-0.3888888888888889" y1="0.54" x2="-0.3888888888888889" y2="0.51" /><line stroke-width="5.0e-3" x1="-0.2777777777777778" y1="0.54" x2="-0.2777777777777778" y2="0.51" /><line stroke-width="5.0e-3" x1="-0.16666666666666669" y1="0.54" x2="-0.16666666666666669" y2="0.51" /><line stroke-width="5.0e-3" x1="-5.555555555555558e-2" y1="0.54" x2="-5.555555555555558e-2" y2="0.51" /><line stroke-width="5.0e-3" x1="5.555555555555547e-2" y1="0.54" x2="5.555555555555547e-2" y2="0.51" /><line stroke-width="5.0e-3" x1="0.16666666666666663" y1="0.54" x2="0.16666666666666663" y2="0.51" /><line stroke-width="5.0e-3" x1="0.2777777777777777" y1="0.54" x2="0.2777777777777777" y2="0.51" /><line stroke-width="5.0e-3" x1="0.38888888888888884" y1="0.54" x2="0.38888888888888884" y2="0.51" /><line stroke-width="5.0e-3" x1="0.5" y1="0.54" x2="0.5" y2="0.51" /></g><g stroke-width="0.0" stroke="#666666" fill="#5F0391" fill-opacity="0.5" stroke-opacity="0.0"><rect width="1.0" height="5.0000000000000044e-3" x="-0.5" y="0.51" /></g><g stroke-width="3.0e-3" stroke="#2C429D" fill="#D99721" fill-opacity="0.3" stroke-opacity="0.0"><rect width="2.0000000000000018e-2" height="2.0000000000000018e-2" x="-0.3098483781984095" y="-0.23756643159255508" /><rect width="2.0000000000000018e-2" height="2.0000000000000018e-2" x="-0.33434236422154884" y="-0.36087901819709123" /><rect width="2.0000000000000018e-2" height="2.0000000000000018e-2" x="-0.37067168893721547" y="-0.3986662609466949" /><rect width="2.0000000000000018e-2" height="2.0000000000000018e-2" x="-0.30010736287435613" y="-0.2519332606477448" /><rect width="2.0000000000000018e-2" height="1.9999999999999997e-2" x="-0.19977517739865935" y="-7.805352298533084e-2" /><rect width="2.0000000000000018e-2" height="2.0000000000000004e-2" x="-0.1732381014794811" y="4.248683228315021e-2" /><rect width="2.0000000000000018e-2" height="1.999999999999999e-2" x="-0.20424009696430018" y="7.292493403913981e-2" /><rect width="2.0000000000000018e-2" height="2.0000000000000004e-2" x="-0.165778400127514" y="-2.670044137755711e-2" /><rect width="2.0000000000000018e-2" height="1.9999999999999997e-2" x="-0.17791542174741887" y="-7.491788374401852e-2" /><rect width="1.999999999999999e-2" height="1.9999999999999997e-2" x="-8.851112774486701e-2" y="5.2684762785158275e-2" /><rect width="2.0000000000000004e-2" height="2.0000000000000018e-2" x="-5.645909027906736e-2" y="0.1487498075762173" /><rect width="2.0000000000000004e-2" height="2.0000000000000018e-2" x="-2.58073581707639e-2" y="0.24317690759501254" /><rect width="2.0000000000000004e-2" height="2.0000000000000018e-2" x="-5.0605260211816376e-2" y="0.22356794327023904" /><rect width="2.0000000000000004e-2" height="2.0000000000000018e-2" x="-5.417068699547394e-2" y="0.17639742116074497" /><rect width="1.9999999999999997e-2" height="2.0000000000000018e-2" x="-7.994231352274549e-2" y="0.17521956029908486" /><rect width="1.999999999999999e-2" height="2.0000000000000018e-2" x="-0.10234256619237524" y="0.18836729560425497" /><rect width="1.999999999999999e-2" height="2.0000000000000018e-2" x="-0.12257478039022661" y="0.17874072737613578" /><rect width="1.999999999999999e-2" height="2.0000000000000004e-2" x="-9.030512900397102e-2" y="0.11763094461972458" /><rect width="1.999999999999999e-2" height="2.0000000000000018e-2" x="-0.10710556118026408" y="0.13523561553714086" /><rect width="1.999999999999999e-2" height="2.0000000000000018e-2" x="-0.10871401235762555" y="0.17033801534323573" /><rect width="1.999999999999999e-2" height="2.0000000000000018e-2" x="-0.11489618432010455" y="0.1999229264610744" /><rect width="2.0000000000000004e-2" height="2.0000000000000018e-2" x="-0.13235402831256732" y="0.20976343063192993" /><rect width="2.0000000000000018e-2" height="2.0000000000000018e-2" x="-0.1499065204211414" y="0.2105010191957949" /><rect width="1.999999999999999e-2" height="2.0000000000000018e-2" x="-0.11538985952110119" y="0.26264382987622986" /><rect width="2.0000000000000004e-2" height="2.0000000000000018e-2" x="-0.13258916703475349" y="0.26171905365049586" /><rect width="2.0000000000000018e-2" height="2.0000000000000018e-2" x="-0.14813721726061302" y="0.2708607441558124" /><rect width="2.0000000000000004e-2" height="2.0000000000000018e-2" x="-4.290513207152851e-2" y="0.348185666335607" /><rect width="2.0000000000000004e-2" height="2.0000000000000018e-2" x="-2.442022426529713e-4" y="0.408009554623939" /><rect width="1.999999999999999e-2" height="2.0000000000000018e-2" x="0.10079869891324734" y="0.3321432078166453" /><rect width="2.0000000000000004e-2" height="2.0000000000000018e-2" x="0.11266800298055081" y="0.3792041579289732" /><rect width="1.999999999999999e-2" height="2.0000000000000018e-2" x="8.968953522492197e-2" y="0.3856246354955496" /><rect width="1.999999999999999e-2" height="2.0000000000000018e-2" x="9.832301031224412e-2" y="0.34965464440201965" /><rect width="2.0000000000000018e-2" height="2.0000000000000018e-2" x="0.13269872880309908" y="0.40531629005423725" /><rect width="2.0000000000000018e-2" height="2.0000000000000018e-2" x="0.1354743707922006" y="0.3731600998909463" /><rect width="2.0000000000000018e-2" height="2.0000000000000018e-2" x="0.13197907384384067" y="0.3452454089773229" /><rect width="2.0000000000000004e-2" height="2.0000000000000018e-2" x="0.11600745126508306" y="0.3295754288318685" /><rect width="2.0000000000000018e-2" height="2.0000000000000018e-2" x="0.14922489287963492" y="0.3800003222112062" /><rect width="2.0000000000000018e-2" height="2.0000000000000018e-2" x="0.12922005333578268" y="0.371649723271555" /><rect width="2.0000000000000018e-2" height="2.0000000000000018e-2" x="0.1427772986723247" y="0.3351148709230056" /><rect width="2.0000000000000004e-2" height="2.0000000000000018e-2" x="0.12390803984041311" y="0.3471897769425485" /><rect width="2.0000000000000004e-2" height="2.0000000000000018e-2" x="0.11110120095258814" y="0.33014363268325964" /><rect width="1.999999999999999e-2" height="2.0000000000000018e-2" x="9.119651967792065e-2" y="0.33651258650078447" /><rect width="1.999999999999999e-2" height="2.0000000000000018e-2" x="7.894492086507755e-2" y="0.32066845358913054" /><rect width="1.999999999999999e-2" height="2.0000000000000018e-2" x="7.174271296236646e-2" y="0.30057495286453595" /><rect width="1.9999999999999997e-2" height="2.0000000000000018e-2" x="5.234297339717676e-2" y="0.30022942307576206" /><rect width="2.0000000000000004e-2" height="2.0000000000000018e-2" x="3.891824988093718e-2" y="0.3123709552801768" /><rect width="2.0000000000000004e-2" height="2.0000000000000018e-2" x="3.0795342635749907e-2" y="0.3292804150027858" /><rect width="2.0000000000000004e-2" height="2.0000000000000018e-2" x="1.2813551031504397e-2" y="0.32963646109152533" /><rect width="2.0000000000000004e-2" height="2.0000000000000018e-2" x="1.8303785696197068e-2" y="0.3544396944587357" /><rect width="2.0000000000000004e-2" height="2.0000000000000018e-2" x="1.64211787923608e-3" y="0.35098882675549975" /><rect width="2.0000000000000004e-2" height="2.0000000000000018e-2" x="3.85578543412677e-5" y="0.33267866947306457" /><rect width="2.0000000000000004e-2" height="2.0000000000000018e-2" x="-1.6658507250938363e-2" y="0.3311038028998193" /><rect width="2.0000000000000004e-2" height="2.0000000000000018e-2" x="-2.3961787427253627e-2" y="0.3455073060147661" /><rect width="2.0000000000000004e-2" height="2.0000000000000018e-2" x="-3.8915037063023177e-2" y="0.34126358820403885" /><rect width="2.0000000000000004e-2" height="2.0000000000000018e-2" x="-4.786520022164103e-2" y="0.35340226554560794" /><rect width="1.9999999999999997e-2" height="2.0000000000000018e-2" x="-6.283099159306292e-2" y="0.3569542226718767" /><rect width="2.0000000000000004e-2" height="2.0000000000000018e-2" x="-5.282868104149079e-2" y="0.3361479497845504" /><rect width="1.9999999999999997e-2" height="2.0000000000000018e-2" x="-6.633654862508286e-2" y="0.3308815417286116" /><rect width="1.9999999999999997e-2" height="2.0000000000000018e-2" x="-8.103940712456896e-2" y="0.3316596964112351" /><rect width="1.999999999999999e-2" height="2.0000000000000018e-2" x="-8.251252945538871e-2" y="0.3169803271441842" /><rect width="1.999999999999999e-2" height="2.0000000000000018e-2" x="-8.59756383903618e-2" y="0.30326436866637296" /><rect width="1.999999999999999e-2" height="2.0000000000000018e-2" x="-0.10004176612239767" y="0.30160183315063677" /><rect width="1.999999999999999e-2" height="2.0000000000000018e-2" x="-0.11374541292135508" y="0.30123215819849575" /><rect width="1.999999999999999e-2" height="2.0000000000000018e-2" x="-0.11731508230425229" y="0.3124133120256789" /><rect width="2.0000000000000004e-2" height="2.0000000000000018e-2" x="-0.1288236211185786" y="0.3071597998172788" /><rect width="2.0000000000000004e-2" height="2.0000000000000018e-2" x="-0.14122130004303113" y="0.3092238819687631" /><rect width="2.0000000000000018e-2" height="2.0000000000000018e-2" x="-0.15184563612960367" y="0.3137921374689703" /><rect width="2.0000000000000018e-2" height="2.0000000000000018e-2" x="-0.1566858815018547" y="0.3039486395052125" /><rect width="2.0000000000000018e-2" height="2.0000000000000018e-2" x="-0.16596708176363434" y="0.3092445541469277" /><rect width="2.0000000000000018e-2" height="2.0000000000000018e-2" x="-0.17676809735976973" y="0.3054462549804523" /><rect width="2.0000000000000018e-2" height="2.0000000000000018e-2" x="-0.18683355103449667" y="0.309064800835273" /><rect width="2.0000000000000018e-2" height="2.0000000000000018e-2" x="-0.19639389762619153" y="0.3130399151248354" /><rect width="2.0000000000000018e-2" height="2.0000000000000018e-2" x="-0.18120406905496583" y="0.32952544150713314" /><rect width="2.0000000000000018e-2" height="2.0000000000000018e-2" x="-0.1654872581525696" y="0.31283684569859743" /><rect width="2.0000000000000018e-2" height="2.0000000000000018e-2" x="-0.16786555057540448" y="0.3227110687628374" /><rect width="2.0000000000000018e-2" height="2.0000000000000018e-2" x="-0.16107782770165513" y="0.3088586182727515" /><rect width="2.0000000000000018e-2" height="2.0000000000000018e-2" x="-0.17066530991874213" y="0.3036878862171267" /><rect width="2.0000000000000018e-2" height="2.0000000000000018e-2" x="-0.18226473283495676" y="0.3035653832275469" /><rect width="2.0000000000000018e-2" height="2.0000000000000018e-2" x="-0.18364244365591226" y="0.2933247253376161" /><rect width="2.0000000000000018e-2" height="2.0000000000000018e-2" x="-0.19417265483623347" y="0.2952072902502436" /><rect width="2.0000000000000018e-2" height="2.0000000000000018e-2" x="-0.20450428238508528" y="0.2921613266313122" /><rect width="2.0000000000000018e-2" height="2.0000000000000018e-2" x="-0.2151950890539952" y="0.29178460061900385" /><rect width="2.0000000000000018e-2" height="2.0000000000000018e-2" x="-0.22557932256395746" y="0.2905732427385055" /><rect width="2.0000000000000018e-2" height="2.0000000000000018e-2" x="-0.2302299831629912" y="0.2965747178366643" /><rect width="2.0000000000000018e-2" height="2.0000000000000018e-2" x="-0.23986220759416776" y="0.2944015581206457" /><rect width="2.0000000000000018e-2" height="2.0000000000000018e-2" x="-0.24871297586339725" y="0.2965534358752356" /><rect width="2.0000000000000018e-2" height="2.0000000000000018e-2" x="-0.2562317804152845" y="0.3000048837321899" /><rect width="2.0000000000000018e-2" height="2.0000000000000018e-2" x="-0.26062191687713404" y="0.305673269628341" /><rect width="2.0000000000000018e-2" height="2.0000000000000018e-2" x="-0.2695881625240856" y="0.30431719882423774" /><rect width="2.0000000000000018e-2" height="2.0000000000000018e-2" x="-0.2680534709988579" y="0.3126186808866866" /><rect width="2.0000000000000018e-2" height="2.0000000000000018e-2" x="-0.2765606673676727" y="0.31098858200013824" /><rect width="2.0000000000000018e-2" height="2.0000000000000018e-2" x="-0.24352040219045823" y="0.32783850693474" /><rect width="2.0000000000000018e-2" height="2.0000000000000018e-2" x="-0.2518794822282608" y="0.32558084162342116" /><rect width="2.0000000000000018e-2" height="2.0000000000000018e-2" x="-0.24695743403492965" y="0.33596637428739723" /><rect width="2.0000000000000018e-2" height="2.0000000000000018e-2" x="-0.2473029696660231" y="0.3290385340652184" /><rect width="2.0000000000000018e-2" height="2.0000000000000018e-2" x="-0.25661566237034217" y="0.3284597139410522" /><rect width="2.0000000000000018e-2" height="2.0000000000000018e-2" x="-0.26366221172976595" y="0.3252656229670531" /><rect width="2.0000000000000018e-2" height="2.0000000000000018e-2" x="-0.26773308024511083" y="0.3312334819175946" /><rect width="2.0000000000000018e-2" height="2.0000000000000018e-2" x="-0.26019930188161033" y="0.32181307659552383" /><rect width="2.0000000000000018e-2" height="2.0000000000000018e-2" x="-0.2552126932901001" y="0.31274946121892133" /><rect width="2.0000000000000018e-2" height="2.0000000000000018e-2" x="-0.2507998629858133" y="0.3035010497722087" /><rect width="2.0000000000000018e-2" height="2.0000000000000018e-2" x="-0.2589528785231442" y="0.3003371778720295" /><rect width="2.0000000000000018e-2" height="2.0000000000000018e-2" x="-0.2543618909404416" y="0.30890208065080604" /><rect width="2.0000000000000018e-2" height="2.0000000000000018e-2" x="-0.25064939184852814" y="0.29994416185714246" /><rect width="2.0000000000000018e-2" height="2.0000000000000018e-2" x="-0.26007122194856497" y="0.29948873470464754" /><rect width="2.0000000000000018e-2" height="2.0000000000000018e-2" x="-0.2683186451556301" y="0.3013272885631853" /><rect width="2.0000000000000018e-2" height="2.0000000000000018e-2" x="-0.2753827532850216" y="0.29774164610171416" /><rect width="2.0000000000000018e-2" height="2.0000000000000018e-2" x="-0.28393857062821737" y="0.29616786304532583" /><rect width="2.0000000000000018e-2" height="2.0000000000000018e-2" x="-0.2866435800162922" y="0.30115900973710785" /><rect width="2.0000000000000018e-2" height="2.0000000000000018e-2" x="-0.29435267375594754" y="0.3028512023275245" /><rect width="2.0000000000000018e-2" height="2.0000000000000018e-2" x="-0.30241873802337693" y="0.30156519092376793" /><rect width="2.0000000000000018e-2" height="2.0000000000000018e-2" x="-0.30695074890204727" y="0.29721777305997904" /><rect width="2.0000000000000018e-2" height="2.0000000000000018e-2" x="-0.29998144278776684" y="0.2884605989808356" /><rect width="2.0000000000000018e-2" height="2.0000000000000018e-2" x="-0.3033920810652502" y="0.2924828928222175" /><rect width="2.0000000000000018e-2" height="2.0000000000000018e-2" x="-0.29722815488795595" y="0.30010898880860704" /><rect width="2.0000000000000018e-2" height="2.0000000000000018e-2" x="-0.2953894311993598" y="0.30675053071247893" /><rect width="2.0000000000000018e-2" height="2.0000000000000018e-2" x="-0.2993085701448389" y="0.3023207349756115" /><rect width="2.0000000000000018e-2" height="2.0000000000000018e-2" x="-0.3067321034903926" y="0.304029054841921" /><rect width="2.0000000000000018e-2" height="2.0000000000000018e-2" x="-0.3103852087663681" y="0.2996342137291378" /><rect width="2.0000000000000018e-2" height="2.0000000000000018e-2" x="-0.31484578617467696" y="0.29560571191417345" /><rect width="2.0000000000000018e-2" height="2.0000000000000018e-2" x="-0.3211093990394194" y="0.292764588675633" /><rect width="2.0000000000000018e-2" height="2.0000000000000018e-2" x="-0.32804364778231343" y="0.29069182852214187" /><rect width="2.0000000000000018e-2" height="2.0000000000000018e-2" x="-0.33488149703188475" y="0.2917473195923344" /><rect width="2.0000000000000018e-2" height="2.0000000000000018e-2" x="-0.3403304372802486" y="0.29396245039933944" /><rect width="2.0000000000000018e-2" height="2.0000000000000018e-2" x="-0.33000387790997254" y="0.3018039831430296" /><rect width="2.0000000000000018e-2" height="2.0000000000000018e-2" x="-0.33182996151999555" y="0.3064097420687999" /><rect width="2.0000000000000018e-2" height="2.0000000000000018e-2" x="-0.3300663022653868" y="0.30068689019450345" /><rect width="2.0000000000000018e-2" height="2.0000000000000018e-2" x="-0.319989846070406" y="0.3088291264920886" /><rect width="2.0000000000000018e-2" height="2.0000000000000018e-2" x="-0.3135273008442521" y="0.30162812234015834" /><rect width="2.0000000000000018e-2" height="2.0000000000000018e-2" x="-0.31961492681668285" y="0.29901242037551495" /><rect width="2.0000000000000018e-2" height="2.0000000000000018e-2" x="-0.3266017534921475" y="0.2973096780409301" /><rect width="2.0000000000000018e-2" height="2.0000000000000018e-2" x="-0.3337102365060803" y="0.2959836440787492" /><rect width="2.0000000000000018e-2" height="2.0000000000000018e-2" x="-0.3405237837510402" y="0.29705950209668264" /><rect width="2.0000000000000018e-2" height="2.0000000000000018e-2" x="-0.34587034331113264" y="0.29936235087500385" /><rect width="2.0000000000000018e-2" height="2.0000000000000018e-2" x="-0.34489479032105563" y="0.2940794060597388" /><rect width="2.0000000000000018e-2" height="2.0000000000000018e-2" x="-0.340201251133852" y="0.2874888971913652" /><rect width="2.0000000000000018e-2" height="2.0000000000000018e-2" x="-0.3470067113327852" y="0.2880277449976113" /><rect width="2.0000000000000018e-2" height="2.0000000000000018e-2" x="-0.3487163751195395" y="0.28341778808812423" /><rect width="2.0000000000000018e-2" height="2.0000000000000018e-2" x="-0.3459897584300371" y="0.2884616591809539" /><rect width="2.0000000000000018e-2" height="2.0000000000000018e-2" x="-0.3526398449409597" y="0.2891094598521382" /><rect width="2.0000000000000018e-2" height="2.0000000000000018e-2" x="-0.35722276428505295" y="0.2914291358362705" /><rect width="2.0000000000000018e-2" height="2.0000000000000018e-2" x="-0.35975881598753495" y="0.2947897825290696" /><rect width="2.0000000000000018e-2" height="2.0000000000000018e-2" x="-0.36063921199440485" y="0.29889172294067" /><rect width="2.0000000000000018e-2" height="2.0000000000000018e-2" x="-0.3649470514831493" y="0.30158384705393837" /><rect width="2.0000000000000018e-2" height="2.0000000000000018e-2" x="-0.37083664359301766" y="0.30041587101904954" /><rect width="2.0000000000000018e-2" height="2.0000000000000018e-2" x="-0.3741258519103644" y="0.297566493428357" /><rect width="2.0000000000000018e-2" height="2.0000000000000018e-2" x="-0.38034755071048687" y="0.2978778982294486" /><rect width="2.0000000000000018e-2" height="2.0000000000000018e-2" x="-0.3799572390219934" y="0.29366507916575013" /><rect width="2.0000000000000018e-2" height="2.0000000000000018e-2" x="-0.3859407919386771" y="0.2940992620904197" /><rect width="2.0000000000000018e-2" height="2.0000000000000018e-2" x="-0.37890229786846175" y="0.2998883823709094" /><rect width="2.0000000000000018e-2" height="2.0000000000000018e-2" x="-0.3779858145825424" y="0.2956069014229544" /><rect width="2.0000000000000018e-2" height="2.0000000000000018e-2" x="-0.3840794609606274" y="0.2951238263160873" /><rect width="2.0000000000000018e-2" height="2.0000000000000018e-2" x="-0.37505321918834045" y="0.28869863078303526" /><rect width="2.0000000000000018e-2" height="2.0000000000000018e-2" x="-0.38056559249489574" y="0.28977251848013186" /><rect width="2.0000000000000018e-2" height="2.0000000000000018e-2" x="-0.38009678646756007" y="0.2936756192567158" /><rect width="2.0000000000000018e-2" height="2.0000000000000018e-2" x="-0.3847418601959548" y="0.29552479582318014" /><rect width="2.0000000000000018e-2" height="2.0000000000000018e-2" x="-0.38557583035058296" y="0.2991312986505995" /><rect width="2.0000000000000018e-2" height="2.0000000000000018e-2" x="-0.3899862337389361" y="0.2972622515881106" /><rect width="2.0000000000000018e-2" height="2.0000000000000018e-2" x="-0.3956955207752826" y="0.29789211146856753" /><rect width="2.0000000000000018e-2" height="2.0000000000000018e-2" x="-0.39840524232802765" y="0.29526832314584844" /><rect width="2.0000000000000018e-2" height="2.0000000000000018e-2" x="-0.40358101585973066" y="0.2962663860720929" /><rect width="2.0000000000000018e-2" height="2.0000000000000018e-2" x="-0.4090902900372956" y="0.29626727610269876" /><rect width="2.0000000000000018e-2" height="2.0000000000000018e-2" x="-0.3879288838720602" y="0.304152307279267" /><rect width="2.0000000000000018e-2" height="2.0000000000000018e-2" x="-0.38317660071598403" y="0.309574428257047" /><rect width="2.0000000000000018e-2" height="2.0000000000000018e-2" x="-0.3891577766880062" y="0.31038528733142895" /><rect width="2.0000000000000018e-2" height="2.0000000000000018e-2" x="-0.3944145677668517" y="0.3120833495599502" /><rect width="2.0000000000000018e-2" height="2.0000000000000018e-2" x="-0.1612102318335828" y="0.341793334743699" /><rect width="1.999999999999999e-2" height="2.0000000000000018e-2" x="-0.1171798875442595" y="0.3600319806764043" /><rect width="1.999999999999999e-2" height="2.0000000000000018e-2" x="-8.934113759402394e-2" y="0.3475700077169413" /><rect width="1.999999999999999e-2" height="2.0000000000000018e-2" x="-0.10050400065193386" y="0.352719457960105" /><rect width="2.0000000000000004e-2" height="2.0000000000000018e-2" x="-4.021931654588933e-2" y="0.334181476931511" /><rect width="2.0000000000000004e-2" height="2.0000000000000018e-2" x="-5.4872877361621546e-2" y="0.3345577082989807" /><rect width="2.0000000000000004e-2" height="2.0000000000000018e-2" x="-4.5120821975517915e-2" y="0.3472457938304556" /><rect width="2.0000000000000004e-2" height="2.0000000000000018e-2" x="-5.9518223956948606e-2" y="0.34755626886290014" /><rect width="1.9999999999999997e-2" height="2.0000000000000018e-2" x="-7.268704246093032e-2" y="0.3512617295180408" /><rect width="1.999999999999999e-2" height="2.0000000000000018e-2" x="-8.451117044381538e-2" y="0.35596195464951286" /><rect width="2.0000000000000004e-2" height="2.0000000000000018e-2" x="1.2328201448928109e-2" y="0.38274323397541127" /><rect width="1.9999999999999997e-2" height="2.0000000000000018e-2" x="5.019684469127162e-2" y="0.36652199495324644" /><rect width="1.9999999999999997e-2" height="2.0000000000000018e-2" x="5.876647065228758e-2" y="0.3812211391324194" /><rect width="1.9999999999999997e-2" height="2.0000000000000018e-2" x="4.2976533811946e-2" y="0.38642515374943276" /><rect width="1.999999999999999e-2" height="2.0000000000000018e-2" x="6.46754666418995e-2" y="0.3727297575193931" /><rect width="1.999999999999999e-2" height="2.0000000000000018e-2" x="6.566397604916542e-2" y="0.3632594537842751" /><rect width="1.999999999999999e-2" height="2.0000000000000018e-2" x="6.407668941352275e-2" y="0.3541655467854587" /><rect width="1.9999999999999997e-2" height="2.0000000000000018e-2" x="4.987226895160291e-2" y="0.3594437929185047" /><rect width="2.0000000000000004e-2" height="2.0000000000000018e-2" x="3.808867612457945e-2" y="0.35458190711708" /><rect width="2.0000000000000004e-2" height="2.0000000000000018e-2" x="2.7191500462951386e-2" y="0.349234010025706" /><rect width="1.9999999999999997e-2" height="2.0000000000000018e-2" x="6.2454039349147845e-2" y="0.3315492200332976" /><rect width="1.9999999999999997e-2" height="2.0000000000000018e-2" x="4.616260668304773e-2" y="0.33384268953501967" /><rect width="2.0000000000000004e-2" height="2.0000000000000018e-2" x="3.961484167896046e-2" y="0.3417479484276087" /><rect width="1.999999999999999e-2" height="2.0000000000000018e-2" x="6.604423261679827e-2" y="0.35846692711331263" /><rect width="1.9999999999999997e-2" height="2.0000000000000018e-2" x="4.866084583457731e-2" y="0.35957368310115984" /><rect width="2.0000000000000004e-2" height="2.0000000000000018e-2" x="3.6405533092038096e-2" y="0.3657652272494387" /><rect width="2.0000000000000004e-2" height="2.0000000000000018e-2" x="3.5951924696428945e-2" y="0.3567720393365038" /><rect width="2.0000000000000004e-2" height="2.0000000000000018e-2" x="2.038359456153272e-2" y="0.354813508329367" /><rect width="2.0000000000000004e-2" height="2.0000000000000018e-2" x="3.382076033053339e-2" y="0.3686553768620368" /><rect width="1.9999999999999997e-2" height="2.0000000000000018e-2" x="4.8969764130472056e-2" y="0.383586193231061" /><rect width="2.0000000000000004e-2" height="2.0000000000000018e-2" x="3.5230388670860265e-2" y="0.38064988900615354" /><rect width="2.0000000000000004e-2" height="2.0000000000000018e-2" x="2.094149947796154e-2" y="0.38569503626410556" /><rect width="2.0000000000000004e-2" height="2.0000000000000018e-2" x="4.036921913367853e-2" y="0.3725373888449508" /><rect width="2.0000000000000004e-2" height="2.0000000000000018e-2" x="2.608328218299117e-2" y="0.36956292165077853" /><rect width="1.999999999999999e-2" height="2.0000000000000018e-2" x="7.282703022777116e-2" y="0.35062798647742244" /><rect width="1.9999999999999997e-2" height="2.0000000000000018e-2" x="5.5784576159606754e-2" y="0.3523822586410708" /><rect width="1.9999999999999997e-2" height="2.0000000000000018e-2" x="4.61168076646964e-2" y="0.34565101752808647" /><rect width="2.0000000000000004e-2" height="2.0000000000000018e-2" x="4.1665373857651795e-2" y="0.3367602788965621" /><rect width="2.0000000000000018e-2" height="2.0000000000000018e-2" x="0.1433066963393239" y="0.36377143353275565" /><rect width="2.0000000000000004e-2" height="2.0000000000000018e-2" x="0.12399735969847193" y="0.3648248277060634" /><rect width="2.0000000000000018e-2" height="2.0000000000000018e-2" x="0.1555176445324492" y="0.383855245483823" /><rect width="2.0000000000000018e-2" height="2.0000000000000018e-2" x="0.1372249596858951" y="0.3820039643818507" /><rect width="2.0000000000000004e-2" height="2.0000000000000018e-2" x="0.1182347087386998" y="0.3818969670724449" /><rect width="1.999999999999999e-2" height="2.0000000000000018e-2" x="0.104694219906602" y="0.37711519635654533" /><rect width="1.999999999999999e-2" height="2.0000000000000018e-2" x="8.646202888454192e-2" y="0.37693715021087115" /><rect width="1.999999999999999e-2" height="2.0000000000000018e-2" x="0.10195899850257241" y="0.39219865359975575" /><rect width="2.0000000000000004e-2" height="2.0000000000000018e-2" x="0.11937970086563134" y="0.4086584059094452" /><rect width="1.999999999999999e-2" height="2.0000000000000018e-2" x="0.10170141058788552" y="0.40789338464007197" /><rect width="1.999999999999999e-2" height="2.0000000000000018e-2" x="9.951108273063237e-2" y="0.4197171862097205" /><rect width="1.999999999999999e-2" height="2.0000000000000018e-2" x="9.680835503451536e-2" y="0.431700368857713" /><rect width="2.0000000000000004e-2" height="2.0000000000000018e-2" x="0.1068019416029843" y="0.44747825798981655" /><rect width="2.0000000000000018e-2" height="2.0000000000000018e-2" x="0.13852480645071952" y="0.4684269800990772" /><rect width="2.0000000000000018e-2" height="2.0000000000000018e-2" x="0.3714250319776925" y="0.42823622047051385" /><rect width="2.0000000000000018e-2" height="2.0000000000000018e-2" x="0.3571178618348275" y="0.4204953375125042" /><rect width="2.0000000000000018e-2" height="2.0000000000000018e-2" x="0.332549461271163" y="0.42066772296867777" /><rect width="2.0000000000000018e-2" height="2.0000000000000018e-2" x="0.3183051356367068" y="0.4130858615467446" /><rect width="2.0000000000000018e-2" height="2.0000000000000018e-2" x="0.2954902202740727" y="0.41133682441879876" /><rect width="2.0000000000000018e-2" height="2.0000000000000018e-2" x="0.3147703257766259" y="0.4306092597400231" /><rect width="2.0000000000000018e-2" height="2.0000000000000018e-2" x="0.3949024642186174" y="0.40279069447710625" /><rect width="2.0000000000000018e-2" height="2.0000000000000018e-2" x="0.3743025958630367" y="0.3966132820484959" /><rect width="2.0000000000000018e-2" height="2.0000000000000018e-2" x="0.35751656363902273" y="0.38839580235713567" /><rect width="2.0000000000000018e-2" height="2.0000000000000018e-2" x="0.33428558106431705" y="0.384691229548437" /><rect width="2.0000000000000018e-2" height="2.0000000000000018e-2" x="0.3118203220359975" y="0.3807000258045339" /><rect width="2.0000000000000018e-2" height="2.0000000000000018e-2" x="0.2882011519900073" y="0.3804438232775574" /><rect width="2.0000000000000018e-2" height="2.0000000000000018e-2" x="0.26751340258075895" y="0.38424534771040036" /><rect width="2.0000000000000018e-2" height="2.0000000000000018e-2" x="0.2549796301863527" y="0.3754068126781063" /><rect width="2.0000000000000018e-2" height="2.0000000000000018e-2" x="0.23310422777368445" y="0.37334225612483846" /><rect width="2.0000000000000018e-2" height="2.0000000000000018e-2" x="0.2159542136212652" y="0.3670889522398464" /><rect width="2.0000000000000018e-2" height="2.0000000000000018e-2" x="0.20828291180789782" y="0.3565513392882818" /><rect width="2.0000000000000018e-2" height="2.0000000000000018e-2" x="0.20919927448437436" y="0.36766882731359296" /><rect width="2.0000000000000018e-2" height="2.0000000000000018e-2" x="0.18840409623881205" y="0.36571292481353374" /><rect width="2.0000000000000018e-2" height="2.0000000000000018e-2" x="0.16795013823459792" y="0.36442899948874014" /><rect width="2.0000000000000018e-2" height="2.0000000000000018e-2" x="0.15364236536031872" y="0.3576069219378755" /><rect width="2.0000000000000018e-2" height="2.0000000000000018e-2" x="0.1418279501386478" y="0.3636669877869405" /><rect width="2.0000000000000004e-2" height="2.0000000000000018e-2" x="0.12295223815280244" y="0.36462701435547346" /><rect width="2.0000000000000018e-2" height="2.0000000000000018e-2" x="0.12613930017378938" y="0.3523646031020561" /><rect width="2.0000000000000004e-2" height="2.0000000000000018e-2" x="0.1125059865711492" y="0.3456166594627098" /><rect width="1.999999999999999e-2" height="2.0000000000000018e-2" x="9.399017932358568e-2" y="0.3449319867663531" /><rect width="1.999999999999999e-2" height="2.0000000000000018e-2" x="7.864479579873586e-2" y="0.33968772202957154" /><rect width="1.9999999999999997e-2" height="2.0000000000000018e-2" x="6.177872289564868e-2" y="0.33610795610026223" /><rect width="1.9999999999999997e-2" height="2.0000000000000018e-2" x="4.6472252684043876e-2" y="0.33796232347587607" /><rect width="1.9999999999999997e-2" height="2.0000000000000018e-2" x="4.3575174407987756e-2" y="0.3453763032210847" /><rect width="2.0000000000000004e-2" height="2.0000000000000018e-2" x="2.6781984657791365e-2" y="0.34487009905008303" /><rect width="2.0000000000000004e-2" height="2.0000000000000018e-2" x="1.0407236730190292e-2" y="0.34434431047267033" /><rect width="2.0000000000000004e-2" height="2.0000000000000018e-2" x="1.027451699118099e-2" y="0.33443671646650763" /><rect width="2.0e-2" height="2.0000000000000018e-2" x="-5.528131819316431e-3" y="0.33223377764026224" /><rect width="2.0000000000000004e-2" height="2.0000000000000018e-2" x="-1.8654493563979517e-2" y="0.33445214585797267" /><rect width="2.0000000000000004e-2" height="2.0000000000000018e-2" x="-2.341984276806757e-2" y="0.3262155533265175" /><rect width="2.0000000000000004e-2" height="2.0000000000000018e-2" x="-3.851210083590378e-2" y="0.32528400584268713" /><rect width="2.0000000000000004e-2" height="2.0000000000000018e-2" x="-5.3254546524366723e-2" y="0.3241485721006556" /><rect width="1.9999999999999997e-2" height="2.0000000000000018e-2" x="-6.354881231735475e-2" y="0.3271244335651262" /><rect width="1.9999999999999997e-2" height="2.0000000000000018e-2" x="-7.47727765574163e-2" y="0.3224108422184997" /><rect width="1.999999999999999e-2" height="2.0000000000000018e-2" x="-8.85282639326052e-2" y="0.32172880337177584" /><rect width="1.999999999999999e-2" height="2.0000000000000018e-2" x="-0.10095634916224248" y="0.322611867569195" /><rect width="1.999999999999999e-2" height="2.0000000000000018e-2" x="-0.11332631270911585" y="0.32329497004216334" /><rect width="1.999999999999999e-2" height="2.0000000000000018e-2" x="-0.12316468116862399" y="0.325727557140826" /><rect width="2.0000000000000004e-2" height="2.0000000000000018e-2" x="-0.1313797502076698" y="0.3206777827411836" /><rect width="2.0000000000000004e-2" height="2.0000000000000018e-2" x="-0.13894632788387568" y="0.32394760895718955" /><rect width="2.0000000000000018e-2" height="2.0000000000000018e-2" x="-0.1501119849265159" y="0.3250654049142524" /><rect width="2.0000000000000018e-2" height="2.0000000000000018e-2" x="-0.15224923919547445" y="0.3303205927048458" /><rect width="2.0000000000000018e-2" height="2.0000000000000018e-2" x="-0.15105076224521696" y="0.3367516330510539" /><rect width="2.0000000000000018e-2" height="2.0000000000000018e-2" x="-0.1618629667757165" y="0.33849666701191383" /><rect width="2.0000000000000004e-2" height="2.0000000000000018e-2" x="-0.14155243713611393" y="0.3274511620642708" /><rect width="2.0000000000000018e-2" height="2.0000000000000018e-2" x="-0.15313456692425803" y="0.32540754109159675" /><rect width="2.0000000000000018e-2" height="2.0000000000000018e-2" x="-0.15965871475593224" y="0.32034940251166255" /><rect width="2.0000000000000018e-2" height="2.0000000000000018e-2" x="-0.170474600047265" y="0.3212986893020341" /><rect width="2.0000000000000018e-2" height="2.0000000000000018e-2" x="-0.17967080416645453" y="0.31778132486773797" /><rect width="2.0000000000000018e-2" height="2.0000000000000018e-2" x="-0.19003108491712156" y="0.3152746870541854" /><rect width="2.0000000000000018e-2" height="2.0000000000000018e-2" x="-0.2004135599486423" y="0.3157140579845559" /><rect width="2.0000000000000018e-2" height="2.0000000000000018e-2" x="-0.2074955437407277" y="0.31829398278763377" /><rect width="2.0000000000000018e-2" height="2.0000000000000018e-2" x="-0.20191968619431117" y="0.3103888526956303" /><rect width="2.0000000000000004e-2" height="2.0000000000000018e-2" x="-0.14027564979667567" y="0.3253456969290036" /><rect width="2.0000000000000018e-2" height="2.0000000000000018e-2" x="-0.15206384234637266" y="0.3262153651267894" /><rect width="2.0000000000000018e-2" height="2.0000000000000018e-2" x="-0.1572112193318988" y="0.3210030598017916" /><rect width="2.0000000000000018e-2" height="2.0000000000000018e-2" x="-0.1638382362057506" y="0.32481348285356315" /><rect width="2.0000000000000018e-2" height="2.0000000000000018e-2" x="-0.1740500813125318" y="0.32233315066238993" /><rect width="2.0000000000000018e-2" height="2.0000000000000018e-2" x="-0.17961310467392805" y="0.3175093377547691" /><rect width="2.0000000000000018e-2" height="2.0000000000000018e-2" x="-0.1728608133312356" y="0.30911093872860296" /><rect width="2.0000000000000018e-2" height="2.0000000000000018e-2" x="-0.18376147034242252" y="0.30950079721457313" /><rect width="2.0000000000000018e-2" height="2.0000000000000018e-2" x="-0.1947788407508711" y="0.3082758520257488" /><rect width="2.0000000000000018e-2" height="2.0000000000000018e-2" x="-0.2055329547428446" y="0.3071126927603034" /><rect width="2.0000000000000018e-2" height="2.0000000000000018e-2" x="-0.21442963143888266" y="0.30404064336361747" /><rect width="2.0000000000000018e-2" height="2.0000000000000018e-2" x="-0.22462895452366277" y="0.30370570912383543" /><rect width="2.0000000000000018e-2" height="2.0000000000000018e-2" x="-0.22322362245196015" y="0.30875845645182964" /><rect width="2.0000000000000018e-2" height="2.0000000000000018e-2" x="-0.23244637639901045" y="0.3065447657964885" /><rect width="2.0000000000000018e-2" height="2.0000000000000018e-2" x="-0.24189998717045386" y="0.3069445514095034" /><rect width="2.0000000000000018e-2" height="2.0000000000000018e-2" x="-0.2461682066265501" y="0.3024046412397038" /><rect width="2.0000000000000018e-2" height="2.0000000000000018e-2" x="-0.2546273016005012" y="0.303350490061339" /><rect width="2.0000000000000018e-2" height="2.0000000000000018e-2" x="-0.26369328659288316" y="0.30342867039028665" /><rect width="2.0000000000000018e-2" height="2.0000000000000018e-2" x="-0.2697889782515446" y="0.305601639273588" /><rect width="2.0000000000000018e-2" height="2.0000000000000018e-2" x="-0.27866702172804014" y="0.3048525354095223" /><rect width="2.0000000000000018e-2" height="2.0000000000000018e-2" x="-0.287318960804637" y="0.30453731972073056" /><rect width="2.0000000000000018e-2" height="2.0000000000000018e-2" x="-0.28329614885109866" y="0.29837371257901435" /><rect width="2.0000000000000018e-2" height="2.0000000000000018e-2" x="-0.28854885827567556" y="0.30053352746031503" /><rect width="2.0000000000000018e-2" height="2.0000000000000018e-2" x="-0.29620303253120517" y="0.3013000656107642" /><rect width="2.0000000000000018e-2" height="2.0000000000000018e-2" x="-0.30192915502206863" y="0.2982757624085012" /><rect width="2.0000000000000018e-2" height="2.0000000000000018e-2" x="-0.3099579343841273" y="0.2979858110880851" /><rect width="2.0000000000000018e-2" height="2.0000000000000018e-2" x="-0.3177577307351851" y="0.2977889394247898" /><rect width="2.0000000000000018e-2" height="2.0000000000000018e-2" x="-0.30589687028664925" y="0.30394562928067376" /><rect width="2.0000000000000018e-2" height="2.0000000000000018e-2" x="-0.3114923752464142" y="0.3059897844461328" /><rect width="2.0000000000000018e-2" height="2.0000000000000018e-2" x="-0.30144177684574125" y="0.29924455910416636" /><rect width="2.0000000000000018e-2" height="2.0000000000000018e-2" x="-0.3017192536969527" y="0.3030968471810658" /><rect width="2.0000000000000018e-2" height="2.0000000000000018e-2" x="-0.24331524177118746" y="0.31600217196732794" /><rect width="2.0000000000000018e-2" height="2.0000000000000018e-2" x="-0.25227075668752397" y="0.3175282395429813" /><rect width="2.0000000000000018e-2" height="2.0000000000000018e-2" x="-0.2596763618281312" y="0.3200974966007094" /><rect width="2.0000000000000018e-2" height="2.0000000000000018e-2" x="-0.2658205335518925" y="0.3176084096264033" /><rect width="2.0000000000000018e-2" height="2.0000000000000018e-2" x="-0.16496841303124204" y="0.3361407867373063" /><rect width="2.0000000000000018e-2" height="2.0000000000000018e-2" x="-0.16302148635156893" y="0.3303016770426694" /><rect width="2.0000000000000018e-2" height="2.0000000000000018e-2" x="-0.16774089423432453" y="0.32613764714875393" /><rect width="2.0000000000000018e-2" height="2.0000000000000018e-2" x="-0.1653746634811344" y="0.3197583019385953" /><rect width="2.0000000000000018e-2" height="2.0000000000000018e-2" x="-0.17108379339968383" y="0.3244040155416056" /><rect width="2.0000000000000018e-2" height="2.0000000000000018e-2" x="-0.17529523884943482" y="0.3296825984447347" /><rect width="2.0000000000000018e-2" height="2.0000000000000018e-2" x="-0.1731915587197202" y="0.3235691649970026" /><rect width="2.0000000000000018e-2" height="2.0000000000000018e-2" x="-0.1832569279261838" y="0.32591847243418515" /><rect width="2.0000000000000018e-2" height="2.0000000000000018e-2" x="-0.17114571115470417" y="0.33505094726995543" /><rect width="2.0000000000000018e-2" height="2.0000000000000018e-2" x="-0.18176794696314535" y="0.3341714629461551" /><rect width="2.0000000000000018e-2" height="2.0000000000000018e-2" x="-0.18280354560699746" y="0.34055495661128554" /><rect width="2.0000000000000018e-2" height="2.0000000000000018e-2" x="-0.18804774387195078" y="0.3457741433151589" /><rect width="2.0000000000000018e-2" height="2.0000000000000018e-2" x="-0.19693414372528434" y="0.3442322662202385" /><rect width="2.0000000000000018e-2" height="2.0000000000000018e-2" x="-0.18253019870377163" y="0.35411900081235104" /><rect width="2.0000000000000018e-2" height="2.0000000000000018e-2" x="-0.19347404313143984" y="0.3561004860841531" /><rect width="1.999999999999999e-2" height="2.0000000000000018e-2" x="-0.11946803460693504" y="0.34028428169432723" /><rect width="1.999999999999999e-2" height="2.0000000000000018e-2" x="-0.12063345163650778" y="0.33433066320866284" /><rect width="2.0000000000000004e-2" height="2.0000000000000018e-2" x="-0.12724473603958597" y="0.3299316316140189" /><rect width="1.999999999999999e-2" height="2.0000000000000018e-2" x="-0.12361802099911383" y="0.3223758365430835" /><rect width="2.0000000000000004e-2" height="2.0000000000000018e-2" x="-0.1337225152513607" y="0.31919051810353843" /><rect width="2.0000000000000018e-2" height="2.0000000000000018e-2" x="-0.14586408389008576" y="0.31973911602262156" /><rect width="2.0000000000000018e-2" height="2.0000000000000018e-2" x="-0.15668521796228624" y="0.32153189881823774" /><rect width="2.0000000000000018e-2" height="2.0000000000000018e-2" x="-0.16646826822649963" y="0.31877306483311585" /><rect width="2.0000000000000018e-2" height="2.0000000000000018e-2" x="-0.177044648225831" y="0.3202590130881072" /><rect width="2.0000000000000018e-2" height="2.0000000000000018e-2" x="-0.18827501947548286" y="0.31984889826351026" /><rect width="2.0000000000000018e-2" height="2.0000000000000018e-2" x="-0.1853611956487241" y="0.31298695168325263" /><rect width="2.0000000000000018e-2" height="2.0000000000000018e-2" x="-0.19579242709983263" y="0.31113879486799245" /><rect width="2.0000000000000018e-2" height="2.0000000000000018e-2" x="-0.1947755621250325" y="0.30455086279835664" /><rect width="2.0000000000000018e-2" height="2.0000000000000018e-2" x="-0.2041134027491338" y="0.305920845006566" /><rect width="2.0000000000000018e-2" height="2.0000000000000018e-2" x="-0.2128222444867104" y="0.30762546202033664" /><rect width="2.0000000000000018e-2" height="2.0000000000000018e-2" x="-0.20202026022734426" y="0.31507082505119943" /><rect width="2.0000000000000018e-2" height="2.0000000000000018e-2" x="-0.21191147773983482" y="0.31631220078764455" /><rect width="2.0000000000000018e-2" height="2.0000000000000018e-2" x="-0.2204573831242917" y="0.3138178306439614" /><rect width="2.0000000000000018e-2" height="2.0000000000000018e-2" x="-0.22609535496961036" y="0.30993157321590226" /><rect width="2.0000000000000018e-2" height="2.0000000000000018e-2" x="-0.22796407628506038" y="0.3046855779503723" /><rect width="2.0000000000000018e-2" height="2.0000000000000018e-2" x="-0.23747547870185015" y="0.3029702813285713" /><rect width="2.0000000000000018e-2" height="2.0000000000000018e-2" x="-0.23980930889426444" y="0.2977992278292051" /><rect width="2.0000000000000018e-2" height="2.0000000000000018e-2" x="-0.2469263883458666" y="0.29963776386366126" /><rect width="2.0000000000000018e-2" height="2.0000000000000018e-2" x="-0.24812530130856958" y="0.30369300608817823" /><rect width="2.0000000000000018e-2" height="2.0000000000000018e-2" x="-0.2575690592945715" y="0.3032315092406249" /><rect width="2.0000000000000018e-2" height="2.0000000000000018e-2" x="-0.26463608476391554" y="0.3003745196336344" /><rect width="2.0000000000000018e-2" height="2.0000000000000018e-2" x="-0.27351312862314664" y="0.2991779994862088" /><rect width="2.0000000000000018e-2" height="2.0000000000000018e-2" x="-0.28020727620001096" y="0.29628429129655365" /><rect width="2.0000000000000018e-2" height="2.0000000000000018e-2" x="-0.28836645619252343" y="0.2966781594115916" /><rect width="2.0000000000000018e-2" height="2.0000000000000018e-2" x="-0.29124165379702893" y="0.29970098244143606" /><rect width="2.0000000000000018e-2" height="2.0000000000000018e-2" x="-0.28576764116103437" y="0.304999487648439" /><rect width="2.0000000000000018e-2" height="2.0000000000000018e-2" x="-0.2926863843388355" y="0.30280812208672314" /><rect width="2.0000000000000018e-2" height="2.0000000000000018e-2" x="-0.2891743489852616" y="0.3078099776650126" /><rect width="2.0000000000000018e-2" height="2.0000000000000018e-2" x="-0.29655267057735707" y="0.3061417905940529" /><rect width="2.0000000000000018e-2" height="2.0000000000000018e-2" x="-0.2964730719427281" y="0.30155806959467985" /><rect width="2.0000000000000018e-2" height="2.0000000000000018e-2" x="-0.3017459456985024" y="0.2985967348960312" /><rect width="2.0000000000000018e-2" height="2.0000000000000018e-2" x="-0.29986671986742425" y="0.3029623818102119" /><rect width="2.0000000000000018e-2" height="2.0000000000000018e-2" x="-0.2985323374066199" y="0.29802184953868094" /><rect width="2.0000000000000018e-2" height="2.0000000000000018e-2" x="-0.3047578538011783" y="0.2997105966532394" /><rect width="2.0000000000000018e-2" height="2.0000000000000018e-2" x="-0.3095116290362835" y="0.30208806064910987" /><rect width="2.0000000000000018e-2" height="2.0000000000000018e-2" x="-0.28501546059410565" y="0.3105643892419242" /><rect width="2.0000000000000018e-2" height="2.0000000000000018e-2" x="-0.27436274915805814" y="0.3175566630929183" /><rect width="2.0000000000000018e-2" height="2.0000000000000018e-2" x="-0.27211364088969514" y="0.3232093200481724" /><rect width="2.0000000000000004e-2" height="2.0000000000000018e-2" x="-0.12566610243915727" y="0.3455735631197445" /><rect width="1.999999999999999e-2" height="2.0000000000000018e-2" x="-0.10560903568658074" y="0.33612899450142897" /><rect width="1.999999999999999e-2" height="2.0000000000000018e-2" x="-0.11808499552038897" y="0.3356811344392413" /><rect width="1.9999999999999997e-2" height="2.0000000000000018e-2" x="-7.581704848173791e-2" y="0.3222073300140171" /><rect width="1.999999999999999e-2" height="2.0000000000000018e-2" x="-8.382661756908198e-2" y="0.32731523910470184" /><rect width="1.9999999999999997e-2" height="2.0000000000000018e-2" x="-7.786983926404649e-2" y="0.3365756958829913" /><rect width="2.0000000000000004e-2" height="2.0000000000000018e-2" x="-5.697429891755867e-2" y="0.3257106819797687" /><rect width="2.0000000000000004e-2" height="2.0000000000000018e-2" x="3.440863814369067e-2" y="0.34764727366598336" /><rect width="2.0000000000000004e-2" height="2.0000000000000018e-2" x="1.982169094848541e-2" y="0.3458446410201248" /><rect width="2.0000000000000004e-2" height="2.0000000000000018e-2" x="3.238001785387946e-2" y="0.3353999302096333" /><rect width="2.0000000000000004e-2" height="2.0000000000000018e-2" x="3.4304615387695366e-2" y="0.3267358685987445" /><rect width="2.0000000000000004e-2" height="2.0000000000000018e-2" x="2.4753752097465227e-2" y="0.33274374469986756" /><rect width="2.0000000000000004e-2" height="2.0000000000000018e-2" x="1.7143066203212827e-2" y="0.32689808275191645" /><rect width="2.0000000000000004e-2" height="2.0000000000000018e-2" x="1.0069158487210437e-3" y="0.3274741269712734" /><rect width="1.999999999999999e-2" height="2.0000000000000018e-2" x="6.332843649456567e-2" y="0.3468489203070019" /><rect width="1.9999999999999997e-2" height="2.0000000000000018e-2" x="6.2431267388120444e-2" y="0.33888676239375093" /><rect width="1.9999999999999997e-2" height="2.0000000000000018e-2" x="4.57795447935242e-2" y="0.34131005700350936" /><rect width="2.0000000000000004e-2" height="2.0000000000000018e-2" x="3.5060179156308775e-2" y="0.33661412861103723" /><rect width="2.0000000000000004e-2" height="2.0000000000000018e-2" x="3.7894000480454666e-2" y="0.3275338419012701" /><rect width="2.0000000000000004e-2" height="2.0000000000000018e-2" x="2.1236589578643168e-2" y="0.3272656763148746" /><rect width="2.0000000000000004e-2" height="2.0000000000000018e-2" x="1.0824968842695801e-2" y="0.33251150405461294" /><rect width="2.0000000000000004e-2" height="2.0000000000000018e-2" x="8.993622345812033e-3" y="0.3248067721998522" /><rect width="2.0000000000000004e-2" height="2.0000000000000018e-2" x="1.1609955641487821e-2" y="0.31562222255355993" /><rect width="2.0e-2" height="2.0000000000000018e-2" x="-4.410204511549267e-3" y="0.31528084894766034" /><rect width="2.0000000000000004e-2" height="2.0000000000000018e-2" x="-1.988402186086951e-2" y="0.3156739684825234" /><rect width="2.0000000000000004e-2" height="2.0000000000000018e-2" x="-3.506138365754884e-2" y="0.3157600699286191" /><rect width="2.0000000000000004e-2" height="2.0000000000000018e-2" x="-4.482161527552169e-2" y="0.3108382747960283" /><rect width="2.0000000000000004e-2" height="2.0000000000000018e-2" x="-5.9053616695189985e-2" y="0.309116519080202" /><rect width="1.9999999999999997e-2" height="2.0000000000000018e-2" x="-7.273863258170458e-2" y="0.31003082083844646" /><rect width="1.999999999999999e-2" height="2.0000000000000018e-2" x="-8.405099885344107e-2" y="0.3126924650040215" /><rect width="1.999999999999999e-2" height="2.0000000000000018e-2" x="-9.729158552557875e-2" y="0.31116842359777874" /><rect width="1.999999999999999e-2" height="2.0000000000000018e-2" x="-0.1104813116392379" y="0.31128546856298367" /><rect width="1.999999999999999e-2" height="2.0000000000000018e-2" x="-0.12326253170892897" y="0.3116358159572563" /><rect width="2.0000000000000004e-2" height="2.0000000000000018e-2" x="-0.13067207923778407" y="0.3155633606931891" /><rect width="2.0000000000000004e-2" height="2.0000000000000018e-2" x="-0.14299795072656013" y="0.31595501798452846" /><rect width="2.0000000000000004e-2" height="2.0000000000000018e-2" x="-0.1422769461190141" y="0.32241206461626015" /><rect width="2.0000000000000018e-2" height="2.0000000000000018e-2" x="-0.14886610605069756" y="0.3182041848247552" /><rect width="2.0000000000000018e-2" height="2.0000000000000018e-2" x="-0.15947221577132925" y="0.32026440606557416" /><rect width="2.0000000000000018e-2" height="2.0000000000000018e-2" x="-0.16595733977931132" y="0.32440798272658145" /><rect width="2.0000000000000018e-2" height="2.0000000000000018e-2" x="-0.17340174076710818" y="0.32098393642680767" /><rect width="2.0000000000000018e-2" height="2.0000000000000018e-2" x="-0.158688625831562" y="0.33020229039434523" /><rect width="1.999999999999999e-2" height="2.0000000000000018e-2" x="-0.12184816844356387" y="0.34348478194606774" /><rect width="1.999999999999999e-2" height="2.0000000000000018e-2" x="-0.12202187818401693" y="0.3377604483434622" /><rect width="1.999999999999999e-2" height="2.0000000000000018e-2" x="-0.10238955605406118" y="0.3276142114783185" /><rect width="1.999999999999999e-2" height="2.0000000000000018e-2" x="-0.1126295903113995" y="0.33106825601020307" /><rect width="1.999999999999999e-2" height="2.0000000000000018e-2" x="-9.139410164545252e-2" y="0.34260583729459504" /><rect width="1.999999999999999e-2" height="2.0000000000000018e-2" x="-9.059601869571758e-2" y="0.33607966245972476" /><rect width="1.999999999999999e-2" height="2.0000000000000018e-2" x="-9.732021754191221e-2" y="0.33155519385269105" /><rect width="1.999999999999999e-2" height="2.0000000000000018e-2" x="-9.337047565109423e-2" y="0.3238264698660043" /><rect width="1.999999999999999e-2" height="2.0000000000000018e-2" x="-0.10628241549509675" y="0.325069183768882" /><rect width="1.999999999999999e-2" height="2.0000000000000018e-2" x="-0.10601868553678627" y="0.3181138019773413" /><rect width="1.999999999999999e-2" height="2.0000000000000018e-2" x="-0.11793104944277215" y="0.31985862380235963" /><rect width="2.0000000000000004e-2" height="2.0000000000000018e-2" x="-0.1300030175255189" y="0.31813644763538745" /><rect width="2.0000000000000004e-2" height="2.0000000000000018e-2" x="-0.1391018033563472" y="0.32127537104535786" /><rect width="2.0000000000000018e-2" height="2.0000000000000018e-2" x="-0.1450895168398772" y="0.31657759983493666" /><rect width="2.0000000000000018e-2" height="2.0000000000000018e-2" x="-0.15408481933072504" y="0.3194765294733851" /><rect width="2.0000000000000018e-2" height="2.0000000000000018e-2" x="-0.16510875762951116" y="0.3176983138737763" /><rect width="2.0000000000000018e-2" height="2.0000000000000018e-2" x="-0.17641923684638827" y="0.3166077000544818" /><rect width="2.0000000000000018e-2" height="2.0000000000000018e-2" x="-0.18586142566153163" y="0.31397492962648155" /><rect width="2.0000000000000018e-2" height="2.0000000000000018e-2" x="-0.1932114107062654" y="0.31028248515036544" /><rect width="2.0000000000000018e-2" height="2.0000000000000018e-2" x="-0.2033362980417825" y="0.3112586147804661" /><rect width="2.0000000000000018e-2" height="2.0000000000000018e-2" x="-0.21306705715934438" y="0.30927179583557685" /><rect width="2.0000000000000018e-2" height="2.0000000000000018e-2" x="-0.22014070542651776" y="0.31184579351681163" /><rect width="2.0000000000000018e-2" height="2.0000000000000018e-2" x="-0.21653150694662904" y="0.3052469166102187" /><rect width="2.0000000000000018e-2" height="2.0000000000000018e-2" x="-0.22580193840015983" y="0.3029968580322948" /><rect width="2.0000000000000018e-2" height="2.0000000000000018e-2" x="-0.2344187724016174" y="0.3043018998722564" /><rect width="2.0000000000000018e-2" height="2.0000000000000018e-2" x="-0.24411907515978143" y="0.30422779394129784" /><rect width="2.0000000000000018e-2" height="2.0000000000000018e-2" x="-0.25328809656144124" y="0.302690891349225" /><rect width="2.0000000000000018e-2" height="2.0000000000000018e-2" x="-0.2623375004815176" y="0.3012918948590979" /><rect width="2.0000000000000018e-2" height="2.0000000000000018e-2" x="-0.26894722139992155" y="0.3031759421539996" /><rect width="2.0000000000000018e-2" height="2.0000000000000018e-2" x="-0.27784999862301984" y="0.3024908168583651" /><rect width="2.0000000000000018e-2" height="2.0000000000000018e-2" x="-0.2864608300523811" y="0.3024285535600705" /><rect width="2.0000000000000018e-2" height="2.0000000000000018e-2" x="-0.294888595007707" y="0.30227630270728223" /><rect width="2.0000000000000018e-2" height="2.0000000000000018e-2" x="-0.29384038085775344" y="0.297191161732025" /><rect width="2.0000000000000018e-2" height="2.0000000000000018e-2" x="-0.30185792536321476" y="0.2973329775770065" /><rect width="2.0000000000000018e-2" height="2.0000000000000018e-2" x="-0.308880546496553" y="0.2982649142550645" /><rect width="2.0000000000000018e-2" height="2.0000000000000018e-2" x="-0.3103699857469976" y="0.30147732986475917" /><rect width="2.0000000000000018e-2" height="2.0000000000000018e-2" x="-0.31641368758161814" y="0.3030830324700655" /><rect width="2.0000000000000018e-2" height="2.0000000000000018e-2" x="-0.32380575174976434" y="0.3019595913989179" /><rect width="2.0000000000000018e-2" height="2.0000000000000018e-2" x="-0.32117066267412064" y="0.29701594914604823" /><rect width="2.0000000000000018e-2" height="2.0000000000000018e-2" x="-0.3286096604361616" y="0.2959392118818518" /><rect width="2.0000000000000018e-2" height="2.0000000000000018e-2" x="-0.3341183570592194" y="0.29344948714132724" /><rect width="2.0000000000000018e-2" height="2.0000000000000018e-2" x="-0.3332848789302023" y="0.2968932661192433" /><rect width="2.0000000000000018e-2" height="2.0000000000000018e-2" x="-0.3157068904845707" y="0.30365739552927046" /><rect width="2.0000000000000018e-2" height="2.0000000000000018e-2" x="-0.3100288945345682" y="0.30890319034914443" /><rect width="2.0000000000000018e-2" height="2.0000000000000018e-2" x="-0.30967402776183406" y="0.3047408413420243" /><rect width="2.0000000000000018e-2" height="2.0000000000000018e-2" x="-0.3174142736691367" y="0.3040875093625531" /><rect width="2.0000000000000018e-2" height="2.0000000000000018e-2" x="-0.30838207878474266" y="0.29796139591230697" /><rect width="2.0000000000000018e-2" height="2.0000000000000018e-2" x="-0.31179158726534145" y="0.3007432717609355" /><rect width="2.0000000000000018e-2" height="2.0000000000000018e-2" x="-0.31859526918532954" y="0.3020034755793462" /><rect width="2.0000000000000018e-2" height="2.0000000000000018e-2" x="-0.3252163370181062" y="0.30036485449005923" /><rect width="2.0000000000000018e-2" height="2.0000000000000018e-2" x="-0.31846308876676827" y="0.29467940389645186" /><rect width="2.0000000000000018e-2" height="2.0000000000000018e-2" x="-0.325727904872488" y="0.2951566992199865" /><rect width="2.0000000000000018e-2" height="2.0000000000000018e-2" x="-0.3246320395952134" y="0.2905460953172287" /><rect width="2.0000000000000018e-2" height="2.0000000000000018e-2" x="-0.3317536919318167" y="0.2908756559318712" /><rect width="2.0000000000000018e-2" height="2.0000000000000018e-2" x="-0.33810494156555515" y="0.2917552326631271" /><rect width="2.0000000000000018e-2" height="2.0000000000000018e-2" x="-0.3428261284556451" y="0.2891069802528383" /><rect width="2.0000000000000018e-2" height="2.0000000000000018e-2" x="-0.34681861219435134" y="0.28613741218906263" /><rect width="2.0000000000000018e-2" height="2.0000000000000018e-2" x="-0.3535590772692358" y="0.2861289855775526" /><rect width="2.0000000000000018e-2" height="2.0000000000000018e-2" x="-0.35933952092136845" y="0.2868853955242274" /><rect width="2.0000000000000018e-2" height="2.0000000000000018e-2" x="-0.36242795990925347" y="0.2838075589742306" /><rect width="2.0000000000000018e-2" height="2.0000000000000018e-2" x="-0.36810438479671104" y="0.2844219326094277" /><rect width="2.0000000000000018e-2" height="2.0000000000000018e-2" x="-0.3584061892994291" y="0.2892313186767431" /><rect width="2.0000000000000018e-2" height="2.0000000000000018e-2" x="-0.36429527133508277" y="0.2876962594185758" /><rect width="2.0000000000000018e-2" height="2.0000000000000018e-2" x="-0.35701591331083116" y="0.2822855512299468" /><rect width="2.0000000000000018e-2" height="2.0000000000000018e-2" x="-0.3424175614590572" y="0.28804243617632397" /><rect width="2.0000000000000018e-2" height="2.0000000000000018e-2" x="-0.34813472859733674" y="0.28609811467060564" /><rect width="2.0000000000000018e-2" height="2.0000000000000018e-2" x="-0.3501958162177656" y="0.2887350845280184" /><rect width="2.0000000000000018e-2" height="2.0000000000000018e-2" x="-0.3532957683049584" y="0.28580240790916256" /><rect width="2.0000000000000018e-2" height="2.0000000000000018e-2" x="-0.35244465964093563" y="0.2816447366147036" /><rect width="2.0000000000000018e-2" height="2.0000000000000018e-2" x="-0.35362985757069587" y="0.28436345367537735" /><rect width="2.0000000000000018e-2" height="2.0000000000000018e-2" x="-0.3519333676253484" y="0.27999145936012154" /><rect width="2.0000000000000018e-2" height="2.0000000000000018e-2" x="-0.3558830195579803" y="0.2817592441683887" /><rect width="2.0000000000000018e-2" height="2.0000000000000018e-2" x="-0.36256727831678426" y="0.2810732320769922" /><rect width="2.0000000000000018e-2" height="2.0000000000000018e-2" x="-0.35608014328356175" y="0.27574236172300903" /><rect width="2.0000000000000018e-2" height="2.0000000000000018e-2" x="-0.36169888245670345" y="0.27368760798417097" /><rect width="2.0000000000000018e-2" height="2.0000000000000018e-2" x="-0.36208863218067533" y="0.27633859735004057" /><rect width="2.0000000000000018e-2" height="2.0000000000000018e-2" x="-0.3680223930951746" y="0.2768438950168114" /><rect width="2.0000000000000018e-2" height="2.0000000000000018e-2" x="-0.37434307848854154" y="0.27673154973518943" /><rect width="2.0000000000000018e-2" height="2.0000000000000018e-2" x="-0.3476898740164913" y="0.2839758311828633" /><rect width="2.0000000000000018e-2" height="2.0000000000000018e-2" x="-0.28456069674044304" y="0.2960187918012145" /><rect width="2.0000000000000018e-2" height="2.0000000000000018e-2" x="-0.2725565813686383" y="0.28933766078525625" /><rect width="2.0000000000000018e-2" height="2.0000000000000018e-2" x="-0.2808132364754621" y="0.29054359322657275" /><rect width="2.0000000000000018e-2" height="2.0000000000000018e-2" x="-0.2881021527000669" y="0.28886264560466696" /><rect width="2.0000000000000018e-2" height="2.0000000000000018e-2" x="-0.22561818677752055" y="0.30229766001630476" /><rect width="2.0000000000000018e-2" height="2.0000000000000018e-2" x="-0.2254576534850659" y="0.29755080698489467" /><rect width="2.0000000000000018e-2" height="2.0000000000000018e-2" x="-0.19670851436484438" y="0.28735745241671695" /><rect width="2.0000000000000018e-2" height="2.0000000000000018e-2" x="-0.18933426922987773" y="0.279914639257884" /><rect width="2.0000000000000018e-2" height="2.0000000000000018e-2" x="-0.1996755287765068" y="0.2782041433019927" /></g><g /></svg>