<svg viewBox="-0.8853111415316547 -0.6827499999999999 1.4154999999999998 1.5155198535562422" xmlns="http://www.w3.org/2000/svg" xmlns:xlink="http://www.w3.org/1999/xlink" version="1.1" width="600.0" height="600.0"><g stroke-width="0.0" stroke="none" fill="#000000" transform="translate(-0.8298111415316547, 7.500992677812124e-2)" fill-opacity="1.0" font-size="6.0e-2" text-anchor="middle"><text transform="rotate(-90.0, 0.0, -0.0)" x="0.0" y="-0.0">actual</text></g><g stroke-width="0.0" stroke="none" fill="#000000" transform="translate(-0.12981114153165474, 0.8012698535562424)" fill-opacity="1.0" font-size="6.0e-2" text-anchor="middle"><text transform="rotate(0.0, 0.0, -0.0)" x="0.0" y="-0.0">forecast</text></g><g stroke-width="0.0" stroke="none" fill="#000000" transform="translate(-0.1298111415316548, -0.5717499999999999)" fill-opacity="1.0" font-size="0.12" text-anchor="middle"><text transform="rotate(0.0, 0.0, -0.0)" x="0.0" y="-0.0">forecast versus actual</text></g><g stroke-width="0.0" stroke="#000000" fill="#666666" fill-opacity="3.0e-2" stroke-opacity="0.0"><rect width="1.0" height="0.9999999999999999" x="-0.5" y="-0.4999999999999999" /></g><g stroke-width="5.0e-3" stroke="#A8E5EE" fill="none" stroke-opacity="0.3"><polyline points="-0.505,0.5 0.505,0.5" /></g><g stroke-width="5.0e-3" stroke="#A8E5EE" fill="none" stroke-opacity="0.3"><polyline points="-0.505,0.3888888888888889 0.505,0.3888888888888889" /></g><g stroke-width="5.0e-3" stroke="#A8E5EE" fill="none" stroke-opacity="0.3"><polyline points="-0.505,0.2777777777777778 0.505,0.2777777777777778" /></g><g stroke-width="5.0e-3" stroke="#A8E5EE" fill="none" stroke-opacity="0.3"><polyline points="-0.505,0.16666666666666674 0.505,0.16666666666666674" /></g><g stroke-width="5.0e-3" stroke="#A8E5EE" fill="none" stroke-opacity="0.3"><polyline points="-0.505,5.555555555555558e-2 0.505,5.555555555555558e-2" /></g><g stroke-width="5.0e-3" stroke="#A8E5EE" fill="none" stroke-opacity="0.3"><polyline points="-0.505,-5.555555555555547e-2 0.505,-5.555555555555547e-2" /></g><g stroke-width="5.0e-3" stroke="#A8E5EE" fill="none" stroke-opacity="0.3"><polyline points="-0.505,-0.16666666666666652 0.505,-0.16666666666666652" /></g><g stroke-width="5.0e-3" stroke="#A8E5EE" fill="none" stroke-opacity="0.3"><polyline points="-0.505,-0.2777777777777778 0.505,-0.2777777777777778" /></g><g stroke-width="5.0e-3" stroke="#A8E5EE" fill="none" stroke-opacity="0.3"><polyline points="-0.505,-0.38888888888888884 0.505,-0.38888888888888884" /></g><g stroke-width="5.0e-3" stroke="#A8E5EE" fill="none" stroke-opacity="0.3"><polyline points="-0.505,-0.4999999999999999 0.505,-0.4999999999999999" /></g><g stroke-width="0.0" stroke="none" fill="#666666" fill-opacity="1.0" font-size="5.0e-2" text-anchor="end"><text x="-0.6421222830633095" y="0.5145">-0.04</text></g><g stroke-width="0.0" stroke="none" fill="#666666" fill-opacity="1.0" font-size="5.0e-2" text-anchor="end"><text x="-0.6421222830633095" y="0.4033888888888889">-0.03</text></g><g stroke-width="0.0" stroke="none" fill="#666666" fill-opacity="1.0" font-size="5.0e-2" text-anchor="end"><text x="-0.6421222830633095" y="0.2922777777777778">-0.02</text></g><g stroke-width="0.0" stroke="none" fill="#666666" fill-opacity="1.0" font-size="5.0e-2" text-anchor="end"><text x="-0.6421222830633095" y="0.18116666666666675">-0.01</text></g><g stroke-width="0.0" stroke="none" fill="#666666" fill-opacity="1.0" font-size="5.0e-2" text-anchor="end"><text x="-0.6421222830633095" y="7.005555555555558e-2">0.00</text></g><g stroke-width="0.0" stroke="none" fill="#666666" fill-opacity="1.0" font-size="5.0e-2" text-anchor="end"><text x="-0.6421222830633095" y="-4.105555555555547e-2">0.01</text></g><g stroke-width="0.0" stroke="none" fill="#666666" fill-opacity="1.0" font-size="5.0e-2" text-anchor="end"><text x="-0.6421222830633095" y="-0.1521666666666665">0.02</text></g><g stroke-width="0.0" stroke="none" fill="#666666" fill-opacity="1.0" font-size="5.0e-2" text-anchor="end"><text x="-0.6421222830633095" y="-0.2632777777777778">0.03</text></g><g stroke-width="0.0" stroke="none" fill="#666666" fill-opacity="1.0" font-size="5.0e-2" text-anchor="end"><text x="-0.6421222830633095" y="-0.3743888888888888">0.04</text></g><g stroke-width="0.0" stroke="none" fill="#666666" fill-opacity="1.0" font-size="5.0e-2" text-anchor="end"><text x="-0.6421222830633095" y="-0.4854999999999999">0.05</text></g><g stroke-width="0.0" stroke="#2C429D" fill="#5F0391" fill-opacity="1.0" stroke-opacity="0.4"><line stroke-width="5.0e-3" transform="rotate(-90.0, -0.6120472830633095, 0.5)" x1="-0.6120472830633095" y1="0.515" x2="-0.6120472830633095" y2="0.485" /><line stroke-width="5.0e-3" transform="rotate(-90.0, -0.6120472830633095, 0.3888888888888889)" x1="-0.6120472830633095" y1="0.4038888888888889" x2="-0.6120472830633095" y2="0.3738888888888889" /><line stroke-width="5.0e-3" transform="rotate(-90.0, -0.6120472830633095, 0.2777777777777778)" x1="-0.6120472830633095" y1="0.2927777777777778" x2="-0.6120472830633095" y2="0.2627777777777778" /><line stroke-width="5.0e-3" transform="rotate(-90.0, -0.6120472830633095, 0.16666666666666674)" x1="-0.6120472830633095" y1="0.18166666666666675" x2="-0.6120472830633095" y2="0.15166666666666673" /><line stroke-width="5.0e-3" transform="rotate(-90.0, -0.6120472830633095, 5.555555555555558e-2)" x1="-0.6120472830633095" y1="7.055555555555558e-2" x2="-0.6120472830633095" y2="4.055555555555558e-2" /><line stroke-width="5.0e-3" transform="rotate(-90.0, -0.6120472830633095, -5.555555555555547e-2)" x1="-0.6120472830633095" y1="-4.055555555555547e-2" x2="-0.6120472830633095" y2="-7.055555555555547e-2" /><line stroke-width="5.0e-3" transform="rotate(-90.0, -0.6120472830633095, -0.16666666666666652)" x1="-0.6120472830633095" y1="-0.1516666666666665" x2="-0.6120472830633095" y2="-0.18166666666666653" /><line stroke-width="5.0e-3" transform="rotate(-90.0, -0.6120472830633095, -0.2777777777777778)" x1="-0.6120472830633095" y1="-0.2627777777777778" x2="-0.6120472830633095" y2="-0.2927777777777778" /><line stroke-width="5.0e-3" transform="rotate(-90.0, -0.6120472830633095, -0.38888888888888884)" x1="-0.6120472830633095" y1="-0.3738888888888888" x2="-0.6120472830633095" y2="-0.40388888888888885" /><line stroke-width="5.0e-3" transform="rotate(-90.0, -0.6120472830633095, -0.4999999999999999)" x1="-0.6120472830633095" y1="-0.4849999999999999" x2="-0.6120472830633095" y2="-0.5149999999999999" /></g><g stroke-width="0.0" stroke="#666666" fill="#5F0391" fill-opacity="0.5" stroke-opacity="0.0"><rect width="5.0000000000000044e-3" height="0.9999999999999999" x="-0.6020472830633095" y="-0.4999999999999999" /></g><g stroke-width="5.0e-3" stroke="#A8E5EE" fill="none" stroke-opacity="0.3"><polyline points="-0.5,0.505 -0.5,-0.5049999999999999" /></g><g stroke-width="5.0e-3" stroke="#A8E5EE" fill="none" stroke-opacity="0.3"><polyline points="-0.4,0.505 -0.4,-0.5049999999999999" /></g><g stroke-width="5.0e-3" stroke="#A8E5EE" fill="none" stroke-opacity="0.3"><polyline points="-0.3,0.505 -0.3,-0.5049999999999999" /></g><g stroke-width="5.0e-3" stroke="#A8E5EE" fill="none" stroke-opacity="0.3"><polyline points="-0.2,0.505 -0.2,-0.5049999999999999" /></g><g stroke-width="5.0e-3" stroke="#A8E5EE" fill="none" stroke-opacity="0.3"><polyline points="-9.999999999999998e-2,0.505 -9.999999999999998e-2,-0.5049999999999999" /></g><g stroke-width="5.0e-3" stroke="#A8E5EE" fill="none" stroke-opacity="0.3"><polyline points="0.0,0.505 0.0,-0.5049999999999999" /></g><g stroke-width="5.0e-3" stroke="#A8E5EE" fill="none" stroke-opacity="0.3"><polyline points="9.999999999999998e-2,0.505 9.999999999999998e-2,-0.5049999999999999" /></g><g stroke-width="5.0e-3" stroke="#A8E5EE" fill="none" stroke-opacity="0.3"><polyline points="0.19999999999999996,0.505 0.19999999999999996,-0.5049999999999999" /></g><g stroke-width="5.0e-3" stroke="#A8E5EE" fill="none" stroke-opacity="0.3"><polyline points="0.30000000000000004,0.505 0.30000000000000004,-0.5049999999999999" /></g><g stroke-width="5.0e-3" stroke="#A8E5EE" fill="none" stroke-opacity="0.3"><polyline points="0.40000000000000013,0.505 0.40000000000000013,-0.5049999999999999" /></g><g stroke-width="5.0e-3" stroke="#A8E5EE" fill="none" stroke-opacity="0.3"><polyline points="0.5,0.505 0.5,-0.5049999999999999" /></g><g stroke-width="0.0" stroke="none" fill="#666666" fill-opacity="1.0" font-size="4.137931034482759e-2" text-anchor="end"><text transform="rotate(-45.0, -0.5, 0.6000000000000001)" x="-0.5" y="0.6000000000000001">-7.0e-3</text></g><g stroke-width="0.0" stroke="none" fill="#666666" fill-opacity="1.0" font-size="4.137931034482759e-2" text-anchor="end"><text transform="rotate(-45.0, -0.4, 0.6000000000000001)" x="-0.4" y="0.6000000000000001">-6.0e-3</text></g><g stroke-width="0.0" stroke="none" fill="#666666" fill-opacity="1.0" font-size="4.137931034482759e-2" text-anchor="end"><text transform="rotate(-45.0, -0.3, 0.6000000000000001)" x="-0.3" y="0.6000000000000001">-5.0e-3</text></g><g stroke-width="0.0" stroke="none" fill="#666666" fill-opacity="1.0" font-size="4.137931034482759e-2" text-anchor="end"><text transform="rotate(-45.0, -0.2, 0.6000000000000001)" x="-0.2" y="0.6000000000000001">-4.0e-3</text></g><g stroke-width="0.0" stroke="none" fill="#666666" fill-opacity="1.0" font-size="4.137931034482759e-2" text-anchor="end"><text transform="rotate(-45.0, -9.999999999999998e-2, 0.6000000000000001)" x="-9.999999999999998e-2" y="0.6000000000000001">-3.0e-3</text></g><g stroke-width="0.0" stroke="none" fill="#666666" fill-opacity="1.0" font-size="4.137931034482759e-2" text-anchor="end"><text transform="rotate(-45.0, 0.0, 0.6000000000000001)" x="0.0" y="0.6000000000000001">-2.0e-3</text></g><g stroke-width="0.0" stroke="none" fill="#666666" fill-opacity="1.0" font-size="4.137931034482759e-2" text-anchor="end"><text transform="rotate(-45.0, 9.999999999999998e-2, 0.6000000000000001)" x="9.999999999999998e-2" y="0.6000000000000001">-1.0e-3</text></g><g stroke-width="0.0" stroke="none" fill="#666666" fill-opacity="1.0" font-size="4.137931034482759e-2" text-anchor="end"><text transform="rotate(-45.0, 0.19999999999999996, 0.6000000000000001)" x="0.19999999999999996" y="0.6000000000000001">0.0e0</text></g><g stroke-width="0.0" stroke="none" fill="#666666" fill-opacity="1.0" font-size="4.137931034482759e-2" text-anchor="end"><text transform="rotate(-45.0, 0.30000000000000004, 0.6000000000000001)" x="0.30000000000000004" y="0.6000000000000001">1.0e-3</text></g><g stroke-width="0.0" stroke="none" fill="#666666" fill-opacity="1.0" font-size="4.137931034482759e-2" text-anchor="end"><text transform="rotate(-45.0, 0.40000000000000013, 0.6000000000000001)" x="0.40000000000000013" y="0.6000000000000001">2.0e-3</text></g><g stroke-width="0.0" stroke="none" fill="#666666" fill-opacity="1.0" font-size="4.137931034482759e-2" text-anchor="end"><text transform="rotate(-45.0, 0.5, 0.6000000000000001)" x="0.5" y="0.6000000000000001">3.0e-3</text></g><g stroke-width="0.0" stroke="#2C429D" fill="#5F0391" fill-opacity="1.0" stroke-opacity="0.4"><line stroke-width="5.0e-3" x1="-0.5" y1="0.54" x2="-0.5" y2="0.51" /><line stroke-width="5.0e-3" x1="-0.4" y1="0.54" x2="-0.4" y2="0.51" /><line stroke-width="5.0e-3" x1="-0.3" y1="0.54" x2="-0.3" y2="0.51" /><line stroke-width="5.0e-3" x1="-0.2" y1="0.54" x2="-0.2" y2="0.51" /><line stroke-width="5.0e-3" x1="-9.999999999999998e-2" y1="0.54" x2="-9.999999999999998e-2" y2="0.51" /><line stroke-width="5.0e-3" y1="0.54" y2="0.51" /><line stroke-width="5.0e-3" x1="9.999999999999998e-2" y1="0.54" x2="9.999999999999998e-2" y2="0.51" /><line stroke-width="5.0e-3" x1="0.19999999999999996" y1="0.54" x2="0.19999999999999996" y2="0.51" /><line stroke-width="5.0e-3" x1="0.30000000000000004" y1="0.54" x2="0.30000000000000004" y2="0.51" /><line stroke-width="5.0e-3" x1="0.40000000000000013" y1="0.54" x2="0.40000000000000013" y2="0.51" /><line stroke-width="5.0e-3" x1="0.5" y1="0.54" x2="0.5" y2="0.51" /></g><g stroke-width="0.0" stroke="#666666" fill="#5F0391" fill-opacity="0.5" stroke-opacity="0.0"><rect width="1.0" height="5.0000000000000044e-3" x="-0.5" y="0.51" /></g><g stroke-width="3.0e-3" stroke="#2C429D" fill="#D99721" fill-opacity="0.3" stroke-opacity="0.0"><rect width="1.999999999999999e-2" height="1.999999999999999e-2" x="6.482461373551486e-2" y="-0.1079852853006875" /><rect width="1.999999999999999e-2" height="2.0000000000000004e-2" x="8.379885389678633e-2" y="1.6559623119344176e-2" /><rect width="2.0000000000000018e-2" height="1.999999999999999e-2" x="0.15643909534595046" y="-0.10237036658747244" /><rect width="2.0000000000000018e-2" height="1.999999999999999e-2" x="0.2171408895049337" y="-8.774305343420995e-2" /><rect width="2.0000000000000018e-2" height="2.0000000000000004e-2" x="0.21649977950666388" y="4.140537715267945e-2" /><rect width="2.0000000000000018e-2" height="2.0000000000000004e-2" x="0.1858520297925932" y="0.11064949787640661" /><rect width="2.0000000000000018e-2" height="2.0000000000000004e-2" x="0.1589922241918379" y="0.1067963120419136" /><rect width="2.0000000000000018e-2" height="2.0000000000000004e-2" x="0.16589617929013534" y="3.474430324989725e-2" /><rect width="2.0000000000000018e-2" height="2.0000000000000004e-2" x="0.24663361828138308" y="-0.13112365557680516" /><rect width="2.0000000000000018e-2" height="1.999999999999999e-2" x="0.3007084985489331" y="-8.431645342931159e-2" /><rect width="2.0000000000000018e-2" height="2.0000000000000018e-2" x="0.23011754122449124" y="0.1876451878376793" /><rect width="2.0000000000000018e-2" height="2.0000000000000018e-2" x="0.1736844226748555" y="0.16953135915717554" /><rect width="2.0000000000000004e-2" height="2.0000000000000018e-2" x="0.10830386429492857" y="0.19459936889665896" /><rect width="2.0000000000000018e-2" height="2.0e-2" x="0.1389558361691804" y="-1.0651119013664214e-2" /><rect width="2.0000000000000018e-2" height="1.9999999999999997e-2" x="0.19606709354904628" y="-7.635064812282298e-2" /><rect width="2.0000000000000018e-2" height="2.0000000000000004e-2" x="0.20780934206881607" y="1.6272595840818922e-2" /><rect width="2.0000000000000018e-2" height="1.9999999999999997e-2" x="0.20423991190697777" y="5.093289443750316e-2" /><rect width="2.0000000000000018e-2" height="2.0000000000000004e-2" x="0.22586084377309457" y="-3.92332092394059e-3" /><rect width="2.0000000000000018e-2" height="2.0000000000000018e-2" x="0.3097969098529878" y="-0.14588243043750326" /><rect width="2.0000000000000018e-2" height="1.9999999999999997e-2" x="0.29587036377251763" y="5.9717911093797434e-2" /><rect width="2.0000000000000018e-2" height="2.0000000000000004e-2" x="0.2587737264848209" y="0.11648732603170082" /><rect width="2.0000000000000018e-2" height="2.0000000000000004e-2" x="0.22736250482726483" y="0.10934418412752052" /><rect width="2.0000000000000018e-2" height="1.9999999999999997e-2" x="0.22224178786353133" y="5.424762068346085e-2" /><rect width="2.0000000000000018e-2" height="2.0000000000000004e-2" x="0.22925859076794464" y="2.6644741832711545e-2" /><rect width="2.0000000000000018e-2" height="2.0000000000000018e-2" x="0.15562403732509922" y="0.2045097833369371" /><rect width="2.0000000000000018e-2" height="2.0000000000000004e-2" x="0.16615450831478673" y="2.9104993330792313e-2" /><rect width="2.0000000000000018e-2" height="1.999999999999999e-2" x="0.15791699942812" y="6.606287312404292e-2" /><rect width="2.0000000000000004e-2" height="2.0000000000000018e-2" x="3.158524794674856e-2" y="0.32871834296390773" /><rect width="1.9999999999999997e-2" height="2.0000000000000018e-2" x="-6.776702351089735e-2" y="0.2809983335107535" /><rect width="1.999999999999999e-2" height="2.0000000000000018e-2" x="8.472916649695063e-2" y="-0.252161787013613" /><rect width="2.0000000000000004e-2" height="2.0000000000000018e-2" x="-4.347107678583841e-4" y="0.23918715070302943" /><rect width="2.0e-2" height="1.999999999999999e-2" x="-4.663986700966119e-3" y="7.801182096603278e-2" /><rect width="1.999999999999999e-2" height="1.999999999999999e-2" x="7.47897210233467e-2" y="-0.10639568282700994" /><rect width="2.0000000000000004e-2" height="2.0000000000000018e-2" x="-3.45356755852163e-2" y="0.29655910596598234" /><rect width="2.0000000000000004e-2" height="1.999999999999999e-2" x="4.184846559992351e-2" y="-9.372899905080088e-2" /><rect width="2.0000000000000004e-2" height="1.9999999999999997e-2" x="0.10582353489385578" y="-8.222347348504576e-2" /><rect width="2.0000000000000018e-2" height="2.0000000000000004e-2" x="0.14293653135988293" y="-3.043853559161768e-2" /><rect width="2.0000000000000004e-2" height="2.0000000000000018e-2" x="3.3649051523065195e-2" y="0.29181974387556564" /><rect width="1.9999999999999997e-2" height="2.0000000000000004e-2" x="6.0233443471822364e-2" y="8.547334844075946e-3" /><rect width="2.0000000000000018e-2" height="2.0000000000000004e-2" x="0.14935751480095116" y="-0.1387607376556279" /><rect width="2.0000000000000004e-2" height="2.0000000000000004e-2" x="0.12176884063828143" y="0.10711627293468835" /><rect width="2.0000000000000018e-2" height="2.0000000000000004e-2" x="0.16681076374408366" y="-4.5741790997775526e-2" /><rect width="2.0000000000000018e-2" height="1.999999999999999e-2" x="0.15256357427897838" y="7.767431776016089e-2" /><rect width="2.0000000000000018e-2" height="2.0000000000000004e-2" x="0.195113308473711" y="-4.418030119387938e-2" /><rect width="2.0000000000000018e-2" height="1.9999999999999997e-2" x="0.2471395759139936" y="-7.227829378285631e-2" /><rect width="2.0000000000000018e-2" height="2.0000000000000004e-2" x="0.24747738682319553" y="3.632090947017747e-2" /><rect width="2.0000000000000018e-2" height="2.0000000000000004e-2" x="0.2156905604006758" y="0.10936129049958106" /><rect width="2.0000000000000018e-2" height="2.0000000000000018e-2" x="0.17209070786928626" y="0.1408127643707487" /><rect width="2.0000000000000018e-2" height="1.9999999999999997e-2" x="0.1742107527367216" y="4.49317373778424e-2" /><rect width="2.0000000000000004e-2" height="2.0000000000000018e-2" x="0.1076315749826159" y="0.19523058398393944" /><rect width="2.0000000000000004e-2" height="2.0000000000000004e-2" x="0.12232986617898879" y="2.5164212365329182e-2" /><rect width="2.0000000000000018e-2" height="1.9999999999999997e-2" x="0.1773451187852021" y="-6.977843017837858e-2" /><rect width="2.0000000000000018e-2" height="2.0000000000000004e-2" x="0.1823542318244965" y="3.31877994082277e-2" /><rect width="2.0000000000000018e-2" height="2.0000000000000018e-2" x="0.14148871200485613" y="0.13690110111271486" /><rect width="2.0000000000000018e-2" height="2.0000000000000004e-2" x="0.15752905116391636" y="1.7270061090559126e-2" /><rect width="2.0000000000000004e-2" height="2.0000000000000018e-2" x="0.12266396327561259" y="0.12590948269177843" /><rect width="2.0000000000000004e-2" height="1.999999999999999e-2" x="0.11548047489701975" y="7.062519518996531e-2" /><rect width="2.0000000000000018e-2" height="1.999999999999999e-2" x="0.18304262403565585" y="-9.588511547488042e-2" /><rect width="2.0000000000000018e-2" height="2.0000000000000004e-2" x="0.1992079436756211" y="7.1991849443155485e-3" /><rect width="2.0000000000000018e-2" height="1.9999999999999997e-2" x="0.19704363596642427" y="4.850710508451845e-2" /><rect width="2.0000000000000018e-2" height="2.0000000000000004e-2" x="0.24502524152125071" y="-6.150609835606157e-2" /><rect width="2.0000000000000018e-2" height="2.0000000000000004e-2" x="0.2884044086718749" y="-5.807793978238817e-2" /><rect width="2.0000000000000018e-2" height="2.0000000000000004e-2" x="0.2914516028617006" y="2.6597603105306185e-2" /><rect width="2.0000000000000018e-2" height="2.0000000000000004e-2" x="0.29073413321547126" y="3.5743247765212045e-2" /><rect width="2.0000000000000018e-2" height="2.0000000000000004e-2" x="0.250867007072472" y="0.1218397520936514" /><rect width="2.0000000000000018e-2" height="2.0000000000000004e-2" x="0.2689071463225925" y="5.307693923999966e-4" /><rect width="2.0000000000000018e-2" height="1.9999999999999997e-2" x="0.260327915886978" y="5.506877397713051e-2" /><rect width="2.0000000000000018e-2" height="1.999999999999999e-2" x="0.24367959144329798" y="7.484052688108052e-2" /><rect width="2.0000000000000018e-2" height="2.0000000000000004e-2" x="0.27825417932565555" y="-3.6216717463810826e-2" /><rect width="2.0000000000000018e-2" height="1.999999999999999e-2" x="0.25742474982915964" y="8.045093139790456e-2" /><rect width="2.0000000000000018e-2" height="2.0000000000000004e-2" x="0.27069849233930876" y="9.521316712731218e-3" /><rect width="2.0000000000000018e-2" height="1.999999999999999e-2" x="0.2562321473076239" y="6.805789072767489e-2" /><rect width="2.0000000000000018e-2" height="1.999999999999999e-2" x="0.24132652937045707" y="7.177777597901448e-2" /><rect width="2.0000000000000018e-2" height="2.0000000000000018e-2" x="0.18086714976980156" y="0.1747942211885556" /><rect width="2.0000000000000018e-2" height="1.999999999999999e-2" x="0.245623685117765" y="-9.461814579164739e-2" /><rect width="2.0000000000000018e-2" height="2.0000000000000004e-2" x="0.2070093825022724" y="0.12225708851709939" /><rect width="2.0000000000000018e-2" height="1.9999999999999997e-2" x="0.26089783267341293" y="-7.434025031141432e-2" /><rect width="2.0000000000000018e-2" height="2.0000000000000004e-2" x="0.27872692059540993" y="-4.1073123214914655e-3" /><rect width="2.0000000000000018e-2" height="2.0000000000000004e-2" x="0.2774523547390195" y="3.7751288072449825e-2" /><rect width="2.0000000000000018e-2" height="2.0000000000000004e-2" x="0.3160112739971789" y="-4.923136015122941e-2" /><rect width="2.0000000000000018e-2" height="1.9999999999999997e-2" x="0.3054594843926345" y="5.349279289994497e-2" /><rect width="2.0000000000000018e-2" height="2.0000000000000004e-2" x="0.31555386421220777" y="1.087788316885747e-2" /><rect width="2.0000000000000018e-2" height="2.0000000000000004e-2" x="0.3144644974805546" y="3.368713730776591e-2" /><rect width="2.0000000000000018e-2" height="2.0000000000000004e-2" x="0.31699382207109716" y="2.620154816718357e-2" /><rect width="2.0000000000000018e-2" height="1.999999999999999e-2" x="0.2901606496485434" y="9.037996484504097e-2" /><rect width="2.0000000000000018e-2" height="2.0000000000000004e-2" x="0.2979974003135256" y="1.8128496180587268e-2" /><rect width="2.0000000000000018e-2" height="1.9999999999999997e-2" x="0.28732908296865656" y="5.6862060111712805e-2" /><rect width="2.0000000000000018e-2" height="1.999999999999999e-2" x="0.27196115296828416" y="6.920422259423283e-2" /><rect width="2.0000000000000018e-2" height="1.999999999999999e-2" x="0.24798315827171802" y="9.034998756023445e-2" /><rect width="2.0000000000000018e-2" height="2.0000000000000004e-2" x="0.25411712684626675" y="2.6548526302580262e-2" /><rect width="2.0000000000000018e-2" height="2.0000000000000004e-2" x="0.21897502218035647" y="0.11628497627232277" /><rect width="2.0000000000000018e-2" height="2.0000000000000004e-2" x="0.22750716267844717" y="2.488754467278593e-2" /><rect width="2.0000000000000018e-2" height="2.0000000000000018e-2" x="0.1562362981259935" y="0.1991062929961765" /><rect width="2.0000000000000018e-2" height="2.0000000000000004e-2" x="0.17003715050902124" y="2.108899366689227e-2" /><rect width="2.0000000000000018e-2" height="2.0000000000000018e-2" x="0.12711245892521983" y="0.14157197730118132" /><rect width="2.0000000000000018e-2" height="2.0000000000000004e-2" x="0.16217520367081284" y="-2.2883689861735494e-2" /><rect width="2.0000000000000018e-2" height="2.0000000000000004e-2" x="0.16690860679360064" y="3.7131447965038485e-2" /><rect width="2.0000000000000018e-2" height="2.0000000000000004e-2" x="0.18342824327385276" y="1.1519579163582436e-2" /><rect width="2.0000000000000018e-2" height="1.999999999999999e-2" x="0.15854230618000154" y="0.10066165517073845" /><rect width="2.0000000000000018e-2" height="2.0000000000000004e-2" x="0.20372003723205423" y="-4.9819122754509164e-2" /><rect width="2.0000000000000018e-2" height="2.0000000000000004e-2" x="0.24438605312869477" y="-4.828354451730132e-2" /><rect width="2.0000000000000018e-2" height="2.0000000000000004e-2" x="0.28484540601110153" y="-5.204763969706005e-2" /><rect width="2.0000000000000018e-2" height="2.0000000000000004e-2" x="0.29687713129138416" y="7.029972406040317e-3" /><rect width="2.0000000000000018e-2" height="2.0000000000000004e-2" x="0.25537948574194647" y="0.12465978193554685" /><rect width="2.0000000000000018e-2" height="2.0000000000000004e-2" x="0.29657805921325875" y="-5.12314787237853e-2" /><rect width="2.0000000000000018e-2" height="2.0000000000000004e-2" x="0.2959972222016207" y="3.3569644158456265e-2" /><rect width="2.0000000000000018e-2" height="1.9999999999999997e-2" x="0.2854633904625178" y="5.6984928483700466e-2" /><rect width="2.0000000000000018e-2" height="2.0000000000000004e-2" x="0.30079974371196705" y="1.49139631644408e-3" /><rect width="2.0000000000000018e-2" height="2.0000000000000004e-2" x="0.3058689207155272" y="2.157555527896566e-2" /><rect width="2.0000000000000018e-2" height="1.999999999999999e-2" x="0.2799614181935508" y="8.956406306399091e-2" /><rect width="2.0000000000000018e-2" height="1.9999999999999997e-2" x="0.271160016018575" y="5.609919834440231e-2" /><rect width="2.0000000000000018e-2" height="2.0000000000000004e-2" x="0.27647058712015293" y="2.5151840356110684e-2" /><rect width="2.0000000000000018e-2" height="2.0e-2" x="0.29595660124917456" y="-7.4387733258047175e-3" /><rect width="2.0000000000000018e-2" height="2.0000000000000004e-2" x="0.3359393169561611" y="-5.5115468405856786e-2" /><rect width="2.0000000000000018e-2" height="1.999999999999999e-2" x="0.3126360368859896" y="7.929757547580397e-2" /><rect width="2.0000000000000018e-2" height="2.0000000000000004e-2" x="0.2736561850030699" y="0.1187088795403738" /><rect width="2.0000000000000018e-2" height="2.0000000000000004e-2" x="0.2413898236355394" y="0.10967552439492069" /><rect width="2.0000000000000018e-2" height="2.0e-2" x="0.2638538479480401" y="-8.585895979045957e-3" /><rect width="2.0000000000000018e-2" height="1.9999999999999997e-2" x="0.2545110238495071" y="5.7120378434384673e-2" /><rect width="2.0000000000000018e-2" height="2.0e-2" x="0.27603775813016895" y="-9.047669836998331e-3" /><rect width="2.0000000000000018e-2" height="2.0e-2" x="0.294495847604738" y="-5.9270543327541916e-3" /><rect width="2.0000000000000018e-2" height="2.0000000000000004e-2" x="0.3066295126202847" y="6.311184181049709e-3" /><rect width="2.0000000000000018e-2" height="2.0000000000000004e-2" x="0.314743326749538" y="1.4219900834775432e-2" /><rect width="2.0000000000000018e-2" height="1.9999999999999997e-2" x="0.30699751635864203" y="4.8470928523085495e-2" /><rect width="2.0000000000000018e-2" height="1.9999999999999997e-2" x="0.293994970738613" y="6.158558730432296e-2" /><rect width="2.0000000000000018e-2" height="2.0000000000000004e-2" x="0.2533115645311451" y="0.12488061509029437" /><rect width="2.0000000000000018e-2" height="1.999999999999999e-2" x="0.23087402471638296" y="9.015631873363801e-2" /><rect width="2.0000000000000018e-2" height="2.0000000000000004e-2" x="0.2612006104303538" y="-2.5209178678755488e-2" /><rect width="2.0000000000000018e-2" height="2.0000000000000018e-2" x="0.21884036713461574" y="0.1303452074396268" /><rect width="2.0000000000000018e-2" height="2.0000000000000004e-2" x="0.25775835498797695" y="-4.208954759248406e-2" /><rect width="2.0000000000000018e-2" height="2.0000000000000004e-2" x="0.27014252959873875" y="8.692752349027342e-3" /><rect width="2.0000000000000018e-2" height="2.0000000000000004e-2" x="0.2779767802351849" y="1.8610179752511787e-2" /><rect width="2.0000000000000018e-2" height="2.0000000000000004e-2" x="0.2837414534482916" y="2.2595516631793718e-2" /><rect width="2.0000000000000018e-2" height="1.9999999999999997e-2" x="0.2769317072212868" y="4.9980072836695706e-2" /><rect width="2.0000000000000018e-2" height="1.999999999999999e-2" x="0.26426144862601997" y="6.436312241285759e-2" /><rect width="2.0000000000000018e-2" height="2.0000000000000004e-2" x="0.29172221045987645" y="-2.310696919075394e-2" /><rect width="2.0000000000000018e-2" height="2.0000000000000004e-2" x="0.3243992342872619" y="-3.934585391530842e-2" /><rect width="2.0000000000000018e-2" height="1.9999999999999997e-2" x="0.3184334479962564" y="4.256315512077869e-2" /><rect width="2.0000000000000018e-2" height="2.0000000000000004e-2" x="0.3407578447285169" y="-1.7613201404722438e-2" /><rect width="2.0000000000000018e-2" height="1.999999999999999e-2" x="0.31029419340318587" y="9.488967449754794e-2" /><rect width="2.0000000000000018e-2" height="1.9999999999999997e-2" x="0.30549402398230985" y="4.406196867960633e-2" /><rect width="2.0000000000000018e-2" height="1.999999999999999e-2" x="0.2915124919848503" y="6.395193563107439e-2" /><rect width="2.0000000000000018e-2" height="1.999999999999999e-2" x="0.2726927992010979" y="7.674501412071812e-2" /><rect width="2.0000000000000018e-2" height="1.999999999999999e-2" x="0.25065921573382854" y="8.621091751669953e-2" /><rect width="2.0000000000000018e-2" height="1.999999999999999e-2" x="0.23692824137535562" y="7.017569179374107e-2" /><rect width="2.0000000000000018e-2" height="2.0000000000000004e-2" x="0.24436247409588263" y="2.448903292984695e-2" /><rect width="2.0000000000000018e-2" height="2.0000000000000004e-2" x="0.2602360765618277" y="4.079473312853641e-3" /><rect width="2.0000000000000018e-2" height="2.0000000000000004e-2" x="0.25817345386801727" y="4.15928665614464e-2" /><rect width="2.0000000000000018e-2" height="2.0e-2" x="0.2811520113238807" y="-1.2981145808492625e-2" /><rect width="2.0000000000000018e-2" height="2.0000000000000004e-2" x="0.27748218453822215" y="4.2494516174927395e-2" /><rect width="2.0000000000000018e-2" height="2.0000000000000004e-2" x="0.245255955044427" y="0.10761369069831435" /><rect width="2.0000000000000018e-2" height="2.0e-2" x="0.269964962780437" y="-1.3939372768394178e-2" /><rect width="2.0000000000000018e-2" height="2.0000000000000004e-2" x="0.27170405205430137" y="3.163856828060369e-2" /><rect width="2.0000000000000018e-2" height="2.0000000000000004e-2" x="0.3066175525027339" y="-4.122165188422577e-2" /><rect width="2.0000000000000018e-2" height="1.9999999999999997e-2" x="0.2982259130202669" y="4.9650212320494165e-2" /><rect width="2.0000000000000018e-2" height="1.999999999999999e-2" x="0.2753207475631292" y="8.468723208082087e-2" /><rect width="2.0000000000000018e-2" height="1.9999999999999997e-2" x="0.26503729464274095" y="6.0066338317546715e-2" /><rect width="2.0000000000000018e-2" height="1.999999999999999e-2" x="0.2450302071948003" y="8.216310923383836e-2" /><rect width="2.0000000000000018e-2" height="2.0000000000000004e-2" x="0.256523962260522" y="1.4895382391206644e-2" /><rect width="2.0000000000000018e-2" height="1.9999999999999997e-2" x="0.2529202515294431" y="4.563158491268566e-2" /><rect width="2.0000000000000018e-2" height="2.0000000000000004e-2" x="0.26803854249716397" y="5.172709698804243e-3" /><rect width="2.0000000000000018e-2" height="1.9999999999999997e-2" x="0.2618177099091611" y="4.9963650138874334e-2" /><rect width="2.0000000000000018e-2" height="2.0000000000000004e-2" x="0.2619121312765902" y="3.76527154005415e-2" /><rect width="2.0000000000000018e-2" height="2.0000000000000018e-2" x="0.2172421000164776" y="0.1366994055956101" /><rect width="2.0000000000000018e-2" height="2.0000000000000004e-2" x="0.18837160482065107" y="0.10714823511211453" /><rect width="2.0000000000000018e-2" height="1.9999999999999997e-2" x="0.18660035466698033" y="4.994717711870284e-2" /><rect width="2.0000000000000018e-2" height="1.9999999999999997e-2" x="0.17946042437315124" y="6.1321107601476695e-2" /><rect width="2.0000000000000004e-2" height="2.0000000000000018e-2" x="1.1341601827752465e-2" y="0.41684521085193615" /><rect width="1.999999999999999e-2" height="2.0000000000000018e-2" x="-9.178738302866528e-2" y="0.2765300717239992" /><rect width="2.0000000000000004e-2" height="1.999999999999999e-2" x="-1.9908308528503692e-4" y="-0.11117651783820491" /><rect width="2.0000000000000004e-2" height="2.0000000000000004e-2" x="-2.083166318926854e-2" y="0.11135868997878597" /><rect width="1.999999999999999e-2" height="2.0000000000000018e-2" x="0.10172016725383294" y="-0.1907506244556142" /><rect width="1.999999999999999e-2" height="1.9999999999999997e-2" x="0.10322056445773288" y="4.836087869330092e-2" /><rect width="2.0000000000000004e-2" height="2.0000000000000018e-2" x="3.437059602570481e-2" y="0.2066260918299493" /><rect width="2.0000000000000004e-2" height="1.9999999999999997e-2" x="4.102271738384745e-2" y="4.9570849849438166e-2" /><rect width="2.0000000000000004e-2" height="1.999999999999999e-2" x="2.659134077471271e-2" y="9.34306382997346e-2" /><rect width="2.0000000000000004e-2" height="2.0000000000000004e-2" x="6.7741921363788735e-3" y="0.10696738015300096" /><rect width="2.0000000000000004e-2" height="2.0000000000000018e-2" x="-0.14373319521388106" y="0.39389461495998934" /><rect width="2.0000000000000004e-2" height="2.0000000000000018e-2" x="-2.9983336034766543e-2" y="-0.15948021860151873" /><rect width="1.999999999999999e-2" height="2.0000000000000018e-2" x="-0.10890280333569301" y="0.23976420784887853" /><rect width="2.0000000000000004e-2" height="2.0000000000000004e-2" x="-0.12759276318769325" y="0.11868130131220923" /><rect width="2.0000000000000004e-2" height="2.0000000000000004e-2" x="-3.0407650767234166e-2" y="-0.1271677975041121" /><rect width="2.0000000000000004e-2" height="1.9999999999999997e-2" x="3.4280082949677e-2" y="-7.436584578310156e-2" /><rect width="1.999999999999999e-2" height="1.9999999999999997e-2" x="9.366854818604876e-2" y="-7.113890878677741e-2" /><rect width="1.999999999999999e-2" height="2.0000000000000004e-2" x="6.57045371612739e-2" y="0.11596169384492551" /><rect width="1.999999999999999e-2" height="2.0000000000000004e-2" x="0.10033770096627616" y="-1.649527204335332e-2" /><rect width="2.0000000000000018e-2" height="2.0000000000000004e-2" x="0.13539537801249235" y="-2.3775344239376876e-2" /><rect width="2.0000000000000018e-2" height="2.0000000000000018e-2" x="0.24259102319743608" y="-0.18763257000109135" /><rect width="2.0000000000000018e-2" height="1.999999999999999e-2" x="0.22580759941921347" y="7.34648243660755e-2" /><rect width="2.0000000000000018e-2" height="2.0000000000000018e-2" x="0.17764785450989506" y="0.1482390943227257" /><rect width="1.999999999999999e-2" height="2.0000000000000018e-2" x="7.95145184656001e-2" y="0.26664493771692765" /><rect width="1.999999999999999e-2" height="1.9999999999999997e-2" x="7.952628541017583e-2" y="6.203558832565243e-2" /><rect width="1.9999999999999997e-2" height="2.0000000000000018e-2" x="4.7066929362597494e-2" y="0.12995697629863" /><rect width="2.0000000000000004e-2" height="1.9999999999999997e-2" x="0.10761046260070352" y="-7.153168204835579e-2" /><rect width="2.0000000000000004e-2" height="2.0000000000000004e-2" x="0.12164372659977542" y="2.087865620129737e-2" /><rect width="2.0000000000000004e-2" height="2.0000000000000018e-2" x="4.085485398689815e-2" y="0.23203301711572516" /><rect width="2.0000000000000004e-2" height="2.0000000000000018e-2" x="-4.2154164964957934e-2" y="0.2490886652494788" /><rect width="2.0e-2" height="2.0000000000000004e-2" x="-1.3860562166851156e-2" y="1.1794936442161017e-2" /><rect width="2.0000000000000004e-2" height="2.0000000000000004e-2" x="-3.7193120436609044e-2" y="0.11862581716000971" /><rect width="1.9999999999999997e-2" height="2.0000000000000004e-2" x="5.2350739860468905e-2" y="-0.12569728593075324" /><rect width="1.999999999999999e-2" height="2.0000000000000004e-2" x="7.376849384299024e-2" y="9.37215511978918e-3" /><rect width="2.0000000000000018e-2" height="2.0000000000000018e-2" x="0.19264185418652757" y="-0.20682062953643388" /><rect width="2.0000000000000018e-2" height="1.999999999999999e-2" x="0.17939254153018314" y="6.98360607369445e-2" /><rect width="2.0000000000000018e-2" height="2.0000000000000004e-2" x="0.22106324563343893" y="-4.486049412438319e-2" /><rect width="2.0000000000000018e-2" height="1.9999999999999997e-2" x="0.2738932394404039" y="-7.535526929231116e-2" /><rect width="1.999999999999999e-2" height="2.0000000000000018e-2" x="0.10273423092807844" y="0.4111087866541392" /><rect width="1.999999999999999e-2" height="1.9999999999999997e-2" x="0.10314355720609193" y="6.24855765820393e-2" /><rect width="2.0e-2" height="2.0000000000000018e-2" x="-1.0441982369933536e-2" y="0.30773460793007335" /><rect width="2.0000000000000004e-2" height="2.0000000000000004e-2" x="1.0621419019072329e-2" y="2.599611315824408e-2" /><rect width="2.0000000000000004e-2" height="1.9999999999999997e-2" x="1.7471305807343136e-2" y="4.951543036498191e-2" /><rect width="1.9999999999999997e-2" height="2.0e-2" x="5.3083618985634747e-2" y="-1.4497926386504925e-2" /><rect width="1.9999999999999997e-2" height="1.9999999999999997e-2" x="5.817514512489597e-2" y="4.777660169778775e-2" /><rect width="2.0000000000000004e-2" height="2.0000000000000018e-2" x="-3.1844442367194796e-2" y="0.2596780177560568" /><rect width="2.0000000000000004e-2" height="2.0000000000000018e-2" x="-0.12504831109302122" y="0.278802974548935" /><rect width="1.999999999999999e-2" height="1.9999999999999997e-2" x="-0.10752433578670344" y="4.459793129163148e-2" /><rect width="2.0000000000000018e-2" height="2.0000000000000018e-2" x="-0.1716567910087834" y="0.21794781212885012" /><rect width="2.0000000000000018e-2" height="2.0000000000000018e-2" x="-0.2346544553116332" y="0.22219784037011808" /><rect width="2.0000000000000018e-2" height="2.0000000000000018e-2" x="-0.32113286267882635" y="0.27670079526265257" /><rect width="2.0000000000000018e-2" height="2.0000000000000018e-2" x="-0.4404089706452564" y="0.3509611757723079" /><rect width="2.0000000000000018e-2" height="2.0000000000000018e-2" x="-0.14843087672234323" y="-0.4922490950901587" /><rect width="1.999999999999999e-2" height="2.0000000000000004e-2" x="-9.307741904518972e-2" y="-4.918475277931133e-2" /><rect width="1.999999999999999e-2" height="1.9999999999999997e-2" x="-8.625744002292761e-2" y="5.935840293864026e-2" /><rect width="2.0000000000000004e-2" height="2.0000000000000004e-2" x="-3.0249182706991222e-2" y="-4.8405878942170515e-2" /><rect width="2.0e-2" height="2.0000000000000004e-2" x="-1.4029273967172398e-2" y="3.146928116011722e-2" /><rect width="2.0000000000000004e-2" height="2.0000000000000018e-2" x="-0.12951491860351755" y="0.32408964630372294" /><rect width="1.9999999999999997e-2" height="2.0000000000000018e-2" x="5.761047887654703e-2" y="-0.32954233836538993" /><rect width="1.999999999999999e-2" height="2.0000000000000004e-2" x="9.54619909216692e-2" y="-3.2069374718793e-2" /><rect width="2.0000000000000018e-2" height="2.0000000000000004e-2" x="0.1478726474910077" y="-6.1650675887863875e-2" /><rect width="2.0000000000000018e-2" height="2.0000000000000004e-2" x="0.1697080997323137" y="1.141445735511424e-4" /><rect width="2.0000000000000018e-2" height="2.0e-2" x="0.19315100987330536" y="-4.535970306756889e-3" /><rect width="2.0000000000000018e-2" height="1.9999999999999997e-2" x="0.191905606395815" y="4.7180689680206896e-2" /><rect width="2.0000000000000018e-2" height="1.999999999999999e-2" x="0.16517248123426098" y="0.10412603988386772" /><rect width="2.0000000000000018e-2" height="1.9999999999999997e-2" x="0.22064765256340924" y="-7.293844165923456e-2" /><rect width="2.0000000000000018e-2" height="2.0000000000000004e-2" x="0.22963637370530887" y="2.089327728852431e-2" /><rect width="2.0000000000000018e-2" height="2.0000000000000004e-2" x="0.2659052081415918" y="-3.8474190747699304e-2" /><rect width="2.0000000000000018e-2" height="1.999999999999999e-2" x="0.32851883693316053" y="-9.99650833021165e-2" /><rect width="2.0000000000000018e-2" height="2.0000000000000018e-2" x="0.24782176414434698" y="0.20398003809543397" /><rect width="2.0000000000000018e-2" height="2.0000000000000004e-2" x="0.25698730758047905" y="2.1107495578445108e-2" /><rect width="2.0000000000000018e-2" height="2.0000000000000004e-2" x="0.26046881280541045" y="3.028012906378153e-2" /><rect width="2.0000000000000018e-2" height="2.0000000000000004e-2" x="0.2997273936495196" y="-4.836441172204175e-2" /><rect width="2.0000000000000018e-2" height="2.0000000000000018e-2" x="0.2537024102912946" y="0.1330845833435016" /><rect width="2.0000000000000018e-2" height="1.9999999999999997e-2" x="0.24366394906504718" y="6.174858075753226e-2" /><rect width="2.0000000000000018e-2" height="2.0000000000000004e-2" x="0.3189765885253637" y="-0.12588267873161252" /><rect width="2.0000000000000018e-2" height="2.0000000000000004e-2" x="0.35552927421344205" y="-4.956352845227107e-2" /><rect width="2.0000000000000018e-2" height="2.0000000000000004e-2" x="0.3515102849049513" y="3.5574633632122495e-2" /><rect width="2.0000000000000018e-2" height="2.0000000000000004e-2" x="0.3778557831003987" y="-2.94813623041743e-2" /><rect width="2.0000000000000018e-2" height="2.0e-2" x="0.39234504899402567" y="-6.637677810019052e-3" /><rect width="2.0000000000000018e-2" height="1.999999999999999e-2" x="0.3704248755973505" y="7.029829517890814e-2" /><rect width="2.0000000000000018e-2" height="2.0000000000000018e-2" x="0.31313306418746056" y="0.15001245823121212" /><rect width="2.0000000000000018e-2" height="2.0000000000000004e-2" x="0.3108221734311708" y="3.804586887997891e-2" /><rect width="2.0000000000000018e-2" height="2.0000000000000004e-2" x="0.30832634423902494" y="3.767942813107556e-2" /><rect width="2.0000000000000018e-2" height="1.999999999999999e-2" x="0.36701715741743157" y="-9.67525742068621e-2" /><rect width="2.0000000000000018e-2" height="2.0000000000000004e-2" x="0.373130590732217" y="1.2005227337141886e-2" /><rect width="2.0000000000000018e-2" height="1.999999999999999e-2" x="0.3502342184310506" y="7.505674110725065e-2" /><rect width="2.0000000000000018e-2" height="1.9999999999999997e-2" x="0.39710491228858835" y="-7.466522453786194e-2" /><rect width="2.0000000000000018e-2" height="2.0000000000000004e-2" x="0.3941016452000401" y="2.8914283227233058e-2" /><rect width="2.0000000000000018e-2" height="2.0000000000000004e-2" x="0.3927504824233975" y="2.582743737204702e-2" /><rect width="2.0000000000000018e-2" height="1.999999999999999e-2" x="0.3644016565101199" y="8.480684571723775e-2" /><rect width="2.0000000000000018e-2" height="2.0000000000000004e-2" x="0.3880828141880739" y="-2.5450438215022568e-2" /><rect width="2.0000000000000018e-2" height="2.0000000000000004e-2" x="0.38419559857278407" y="3.187604612817369e-2" /><rect width="2.0000000000000018e-2" height="1.9999999999999997e-2" x="0.3703410289335012" y="5.434166028602156e-2" /><rect width="2.0000000000000018e-2" height="1.9999999999999997e-2" x="0.35854797223865387" y="5.1602219018188906e-2" /><rect width="2.0000000000000018e-2" height="1.999999999999999e-2" x="0.33587689583768776" y="7.699427663543108e-2" /><rect width="2.0000000000000018e-2" height="2.0000000000000004e-2" x="0.36325247914822567" y="-3.0795105739691013e-2" /><rect width="2.0000000000000018e-2" height="1.999999999999999e-2" x="0.334751601545918" y="8.875555009141974e-2" /><rect width="2.0000000000000018e-2" height="1.9999999999999997e-2" x="0.32207944049073256" y="5.8135570185005266e-2" /><rect width="2.0000000000000018e-2" height="2.0000000000000004e-2" x="0.2828355427769621" y="0.11828243789106398" /><rect width="2.0000000000000018e-2" height="2.0000000000000018e-2" x="0.23784272594209388" y="0.13620994234074274" /><rect width="2.0000000000000018e-2" height="1.999999999999999e-2" x="0.22520556472436692" y="6.926694047225025e-2" /><rect width="2.0000000000000018e-2" height="1.999999999999999e-2" x="0.29662599920228394" y="-0.11621520911832993" /><rect width="2.0000000000000018e-2" height="2.0000000000000004e-2" x="0.30507278453869846" y="1.2787978466643488e-2" /><rect width="2.0000000000000018e-2" height="2.0000000000000004e-2" x="0.33384202989084244" y="-3.139452076580639e-2" /><rect width="2.0000000000000018e-2" height="1.9999999999999997e-2" x="0.32191592999497587" y="5.520357337674126e-2" /><rect width="2.0000000000000018e-2" height="2.0e-2" x="0.3403694124900599" y="-9.694011120538462e-3" /><rect width="2.0000000000000018e-2" height="2.0000000000000004e-2" x="0.35117153296803927" y="4.454338275278644e-3" /><rect width="2.0000000000000018e-2" height="1.9999999999999997e-2" x="0.34229077213908776" y="4.700590851778603e-2" /><rect width="2.0000000000000018e-2" height="1.999999999999999e-2" x="0.3199642052392445" y="7.83185399802387e-2" /><rect width="2.0000000000000018e-2" height="1.9999999999999997e-2" x="0.3678011259279007" y="-7.43764255499718e-2" /><rect width="2.0000000000000018e-2" height="2.0000000000000018e-2" x="0.26221925589773676" y="0.25840586300644064" /><rect width="2.0000000000000018e-2" height="1.9999999999999997e-2" x="0.2561226248413795" y="5.48839575325596e-2" /><rect width="2.0000000000000018e-2" height="2.0000000000000004e-2" x="0.2887921670557315" y="-3.396636838637845e-2" /><rect width="2.0000000000000018e-2" height="1.999999999999999e-2" x="0.259999831843327" y="9.727805827161203e-2" /><rect width="2.0000000000000018e-2" height="2.0000000000000004e-2" x="0.27491161189526325" y="5.744752699940634e-3" /><rect width="2.0000000000000018e-2" height="2.0000000000000004e-2" x="0.30398326631721284" y="-2.9018608655581916e-2" /><rect width="2.0000000000000018e-2" height="1.9999999999999997e-2" x="0.3552896504014773" y="-8.224608436028845e-2" /><rect width="2.0000000000000018e-2" height="1.9999999999999997e-2" x="0.3462518741489303" y="4.5360328203056306e-2" /><rect width="2.0000000000000018e-2" height="2.0000000000000004e-2" x="0.349315426176252" y="2.171054336465956e-2" /><rect width="2.0000000000000018e-2" height="2.0000000000000004e-2" x="0.3517250095483855" y="2.2417042833362995e-2" /><rect width="2.0000000000000018e-2" height="2.0e-2" x="0.366796870832392" y="-5.841021811659122e-3" /><rect width="2.0000000000000018e-2" height="2.0000000000000004e-2" x="0.362946746241144" y="3.392280243089885e-2" /><rect width="2.0000000000000018e-2" height="2.0000000000000004e-2" x="0.32376149490763484" y="0.11317672586683737" /><rect width="2.0000000000000018e-2" height="2.0000000000000004e-2" x="0.33514288818524496" y="6.980641573066224e-3" /><rect width="2.0000000000000018e-2" height="1.9999999999999997e-2" x="0.3278817780750053" y="4.513159410577567e-2" /><rect width="2.0000000000000018e-2" height="2.0000000000000004e-2" x="0.3540722526064449" y="-2.7639033134782658e-2" /><rect width="2.0000000000000018e-2" height="1.9999999999999997e-2" x="0.3422517759322765" y="5.2549945321734355e-2" /><rect width="2.0000000000000018e-2" height="2.0000000000000004e-2" x="0.3373772557578548" y="3.9897587548103026e-2" /><rect width="2.0000000000000018e-2" height="1.999999999999999e-2" x="0.3187056425282716" y="7.084859070623846e-2" /><rect width="2.0000000000000018e-2" height="2.0000000000000004e-2" x="0.3205050906703465" y="2.8024352898723688e-2" /><rect width="2.0000000000000018e-2" height="2.0000000000000004e-2" x="0.31901095601899243" y="3.431653684179387e-2" /><rect width="2.0000000000000018e-2" height="2.0000000000000004e-2" x="0.3565999435082299" y="-5.2247480966775665e-2" /><rect width="2.0000000000000018e-2" height="1.999999999999999e-2" x="0.3366021989921558" y="6.993398623462034e-2" /><rect width="2.0000000000000018e-2" height="1.9999999999999997e-2" x="0.3277791552728563" y="4.9656221641393834e-2" /><rect width="2.0000000000000018e-2" height="2.0e-2" x="0.344439733918654" y="-6.381110114023139e-3" /><rect width="2.0000000000000018e-2" height="2.0000000000000004e-2" x="0.34176843141898294" y="3.3655729187803914e-2" /><rect width="2.0000000000000018e-2" height="2.0000000000000004e-2" x="0.3389754413514199" y="3.4989267139680376e-2" /><rect width="2.0000000000000018e-2" height="2.0000000000000018e-2" x="0.293931450460971" y="0.12922623504516845" /><rect width="2.0000000000000018e-2" height="1.999999999999999e-2" x="0.2788788517301909" y="6.918109298730919e-2" /><rect width="2.0000000000000018e-2" height="2.0000000000000004e-2" x="0.3228146513923672" y="-6.102233641346765e-2" /><rect width="2.0000000000000018e-2" height="1.999999999999999e-2" x="0.2928938883218092" y="9.534302778689437e-2" /><rect width="2.0000000000000018e-2" height="2.0000000000000018e-2" x="0.20475284292682416" y="0.23054851604879312" /><rect width="2.0000000000000018e-2" height="1.999999999999999e-2" x="0.1964705437230282" y="6.340962035682064e-2" /><rect width="2.0000000000000018e-2" height="1.999999999999999e-2" x="0.18060604544506131" y="7.917760456219176e-2" /><rect width="2.0000000000000018e-2" height="2.0000000000000004e-2" x="0.20035488089948883" y="4.296372739759311e-3" /><rect width="1.999999999999999e-2" height="2.0000000000000018e-2" x="7.552709972596651e-2" y="0.3169576409769337" /><rect width="2.0000000000000004e-2" height="2.0000000000000004e-2" x="0.12272388522317003" y="-4.315181610618856e-2" /><rect width="2.0000000000000018e-2" height="2.0000000000000004e-2" x="0.15628634353866488" y="-1.913351116582595e-2" /><rect width="2.0000000000000018e-2" height="2.0000000000000004e-2" x="0.20282830373526917" y="-5.28436292247153e-2" /><rect width="2.0000000000000018e-2" height="2.0000000000000004e-2" x="0.17195885677098122" y="0.11060322276980895" /><rect width="2.0000000000000018e-2" height="2.0000000000000004e-2" x="0.1389036383923199" y="0.12080276507717093" /><rect width="2.0000000000000018e-2" height="2.0000000000000004e-2" x="0.18492043965587368" y="-4.844218654406895e-2" /><rect width="2.0000000000000018e-2" height="1.999999999999999e-2" x="0.17024728666801847" y="7.69808796734915e-2" /><rect width="2.0000000000000004e-2" height="2.0000000000000018e-2" x="0.11081274965921452" y="0.17872889904785683" /><rect width="2.0000000000000004e-2" height="2.0000000000000004e-2" x="0.12213934215211665" y="3.052765981794337e-2" /><rect width="1.999999999999999e-2" height="2.0000000000000018e-2" x="8.254300620938539e-2" y="0.13900947065404812" /><rect width="1.9999999999999997e-2" height="2.0000000000000004e-2" x="5.222500435519951e-2" y="0.1226213877640286" /><rect width="1.999999999999999e-2" height="2.0000000000000004e-2" x="7.023903936317046e-2" y="2.2264644074213642e-2" /><rect width="2.0000000000000004e-2" height="2.0000000000000018e-2" x="7.928387045570204e-3" y="0.19314501286327768" /><rect width="2.0000000000000004e-2" height="1.999999999999999e-2" x="2.0136366628605937e-3" y="7.632417782615404e-2" /><rect width="2.0000000000000004e-2" height="2.0000000000000018e-2" x="0.12326497118902659" y="-0.19006319510984815" /><rect width="2.0000000000000018e-2" height="2.0000000000000004e-2" x="0.16582832952879145" y="-4.476508288416758e-2" /><rect width="2.0000000000000018e-2" height="2.0000000000000004e-2" x="0.19688471991044632" y="-2.2409564837540412e-2" /><rect width="2.0000000000000018e-2" height="1.9999999999999997e-2" x="0.2482169020563192" y="-7.047706785072581e-2" /><rect width="2.0000000000000018e-2" height="2.0e-2" x="0.2678332430029292" y="-6.103086794238257e-3" /><rect width="2.0000000000000018e-2" height="1.9999999999999997e-2" x="0.26186297079380405" y="4.9443235561145556e-2" /><rect width="2.0000000000000018e-2" height="1.999999999999999e-2" x="0.24807639943056148" y="6.821823327186967e-2" /><rect width="2.0000000000000018e-2" height="2.0000000000000004e-2" x="0.2659052200069" y="1.2278528611654217e-4" /><rect width="2.0000000000000018e-2" height="1.999999999999999e-2" x="0.253723581280768" y="6.347505640889285e-2" /><rect width="2.0000000000000018e-2" height="2.0000000000000004e-2" x="0.2553840727006397" y="3.520788669699849e-2" /><rect width="2.0000000000000018e-2" height="2.0000000000000004e-2" x="0.3006570246164467" y="-6.189335730799516e-2" /><rect width="2.0000000000000018e-2" height="2.0000000000000004e-2" x="0.30965078145804137" y="1.2435736541842666e-2" /><rect width="2.0000000000000018e-2" height="2.0000000000000004e-2" x="0.3513597519090136" y="-5.919489964387436e-2" /><rect width="2.0000000000000018e-2" height="1.9999999999999997e-2" x="0.3364558320341573" y="5.955455005134431e-2" /><rect width="2.0000000000000018e-2" height="1.999999999999999e-2" x="0.3202240410819226" y="6.481537366969183e-2" /><rect width="2.0000000000000018e-2" height="2.0000000000000018e-2" x="0.26552561360706484" y="0.15157441787673614" /><rect width="2.0000000000000018e-2" height="1.9999999999999997e-2" x="0.2564316509880684" y="5.927532127753616e-2" /><rect width="2.0000000000000018e-2" height="2.0000000000000004e-2" x="0.27236921771872924" y="3.157384104832692e-3" /><rect width="2.0000000000000018e-2" height="2.0000000000000004e-2" x="0.29677257903200294" y="-1.8232473627450722e-2" /><rect width="2.0000000000000018e-2" height="2.0000000000000004e-2" x="0.3295370539454635" y="-3.936666075728489e-2" /><rect width="2.0000000000000018e-2" height="2.0000000000000004e-2" x="0.33696568785911707" y="1.3067837894315934e-2" /><rect width="2.0000000000000018e-2" height="2.0000000000000004e-2" x="0.36828549004703537" y="-3.936720299869378e-2" /><rect width="2.0000000000000018e-2" height="1.999999999999999e-2" x="0.3497561894587097" y="6.56382179482355e-2" /><rect width="2.0000000000000018e-2" height="1.999999999999999e-2" x="0.31712580917662125" y="9.941269593298975e-2" /><rect width="2.0000000000000018e-2" height="2.0000000000000004e-2" x="0.31736062333028137" y="3.1825196113581596e-2" /><rect width="2.0000000000000018e-2" height="2.0e-2" x="0.33360717409414364" y="-4.450156721582102e-3" /><rect width="2.0000000000000018e-2" height="2.0000000000000004e-2" x="0.33770973004669436" y="2.0192868427748374e-2" /><rect width="2.0000000000000018e-2" height="2.0e-2" x="0.3535092831117038" y="-5.661235834837066e-3" /><rect width="2.0000000000000018e-2" height="1.9999999999999997e-2" x="0.34597997073996667" y="4.3601133706180135e-2" /><rect width="2.0000000000000018e-2" height="1.999999999999999e-2" x="0.32091920638359395" y="8.343943086677248e-2" /><rect width="2.0000000000000018e-2" height="2.0000000000000004e-2" x="0.28181793856577897" y="0.11836259969152686" /><rect width="2.0000000000000018e-2" height="2.0000000000000004e-2" x="0.2957304363308717" y="5.827819513718144e-3" /><rect width="2.0000000000000018e-2" height="2.0000000000000004e-2" x="0.25925510046543854" y="0.11439768613181085" /><rect width="2.0000000000000018e-2" height="2.0000000000000004e-2" x="0.2705033759130222" y="1.4170983071212126e-2" /><rect width="2.0000000000000018e-2" height="2.0000000000000004e-2" x="0.3004267574630518" y="-3.0267837135233393e-2" /><rect width="2.0000000000000018e-2" height="2.0e-2" x="0.3178133651297812" y="-6.413492426244774e-3" /><rect width="2.0000000000000018e-2" height="1.999999999999999e-2" x="0.28469065684197314" y="0.10417996712682455" /><rect width="2.0000000000000018e-2" height="2.0000000000000004e-2" x="0.3173346781876667" y="-3.622676913797617e-2" /><rect width="2.0000000000000018e-2" height="1.999999999999999e-2" x="0.302316469282049" y="6.352591014504062e-2" /><rect width="2.0000000000000018e-2" height="1.999999999999999e-2" x="0.28403685210342644" y="7.424417449459682e-2" /><rect width="2.0000000000000018e-2" height="2.0000000000000018e-2" x="0.22493367246992702" y="0.1671680375131459" /><rect width="2.0000000000000018e-2" height="2.0000000000000018e-2" x="0.1783241321667277" y="0.1459949616681166" /><rect width="2.0000000000000018e-2" height="2.0000000000000018e-2" x="0.14167856369843412" y="0.12677117688967643" /><rect width="2.0e-2" height="2.0000000000000018e-2" x="-1.0101721486169049e-2" y="0.38144392336599037" /><rect width="1.999999999999999e-2" height="1.999999999999999e-2" x="6.782129413925998e-2" y="-9.81399169604824e-2" /><rect width="1.999999999999999e-2" height="2.0000000000000004e-2" x="7.8141637647701e-2" y="3.703662590258034e-2" /><rect width="2.0000000000000018e-2" height="2.0000000000000018e-2" x="0.17927067897128635" y="-0.16098093832263805" /><rect width="2.0000000000000018e-2" height="2.0000000000000004e-2" x="0.14472417632191725" y="0.1193149002209253" /><rect width="1.999999999999999e-2" height="2.0000000000000018e-2" x="8.492767391048663e-2" y="0.1832639055897871" /><rect width="2.0000000000000018e-2" height="1.999999999999999e-2" x="0.1671905040716477" y="-0.12131191203488854" /><rect width="2.0000000000000004e-2" height="2.0000000000000018e-2" x="1.7535292433124468e-2" y="0.3758878302941319" /><rect width="2.0000000000000004e-2" height="2.0000000000000004e-2" x="4.0099573110878424e-2" y="1.821205792812753e-2" /><rect width="2.0000000000000004e-2" height="1.999999999999999e-2" x="0.12040524742934856" y="-0.11358821727226119" /><rect width="2.0000000000000018e-2" height="1.999999999999999e-2" x="0.1828352508002835" y="-8.814664688951156e-2" /><rect width="2.0000000000000018e-2" height="2.0000000000000018e-2" x="0.14213132638563297" y="0.1338446146622419" /><rect width="2.0000000000000018e-2" height="2.0000000000000004e-2" x="0.1864267451052697" y="-4.56979778831813e-2" /><rect width="2.0000000000000018e-2" height="1.9999999999999997e-2" x="0.1831684514652825" y="5.117906611951168e-2" /><rect width="1.9999999999999997e-2" height="2.0000000000000018e-2" x="5.205216315237949e-2" y="0.3376513709395542" /><rect width="2.0000000000000004e-2" height="1.9999999999999997e-2" x="0.11622508214025241" y="-7.58082314083569e-2" /><rect width="1.999999999999999e-2" height="1.999999999999999e-2" x="0.10260268675817853" y="8.120200659100653e-2" /><rect width="2.0000000000000018e-2" height="2.0000000000000004e-2" x="0.13996030051671493" y="-2.6933934496576543e-2" /><rect width="2.0000000000000018e-2" height="1.999999999999999e-2" x="0.20474449094747627" y="-9.45269078304448e-2" /><rect width="2.0000000000000018e-2" height="2.0000000000000004e-2" x="0.20581583853158214" y="3.8414439195736234e-2" /><rect width="2.0000000000000018e-2" height="2.0000000000000004e-2" x="0.17034767288991182" y="0.12247703928507121" /><rect width="2.0000000000000018e-2" height="1.9999999999999997e-2" x="0.22601139032106798" y="-7.426164388324873e-2" /><rect width="2.0000000000000018e-2" height="1.999999999999999e-2" x="0.28783734488766166" y="-9.806546221292343e-2" /><rect width="2.0000000000000018e-2" height="2.0000000000000004e-2" x="0.28637535994602425" y="3.544098908481292e-2" /><rect width="2.0000000000000018e-2" height="1.9999999999999997e-2" x="0.281051538047262" y="4.660005039963706e-2" /><rect width="2.0000000000000018e-2" height="2.0000000000000004e-2" x="0.27818831120350507" y="4.197501906333435e-2" /><rect width="2.0000000000000018e-2" height="2.0000000000000004e-2" x="0.31006384639030227" y="-3.4484483225598266e-2" /><rect width="2.0000000000000018e-2" height="2.0000000000000004e-2" x="0.3180256829696787" y="1.361045194508321e-2" /><rect width="2.0000000000000018e-2" height="1.9999999999999997e-2" x="0.30775851622985084" y="5.3607117999072536e-2" /><rect width="2.0000000000000018e-2" height="1.999999999999999e-2" x="0.2861462921148167" y="8.044987641182073e-2" /><rect width="2.0000000000000018e-2" height="2.0000000000000004e-2" x="0.29466457299982496" y="1.6907021052334943e-2" /><rect width="2.0000000000000018e-2" height="2.0000000000000004e-2" x="0.2909837780435902" y="4.174827174556684e-2" /><rect width="2.0000000000000018e-2" height="1.9999999999999997e-2" x="0.28607236092005073" y="4.5333579068306214e-2" /><rect width="2.0000000000000018e-2" height="1.999999999999999e-2" x="0.256722528026576" y="0.10008388809369285" /><rect width="2.0000000000000018e-2" height="1.9999999999999997e-2" x="0.2534784310075323" y="4.663320781157721e-2" /><rect width="2.0000000000000018e-2" height="2.0000000000000018e-2" x="0.20811775527492604" y="0.13946561331608182" /><rect width="2.0000000000000018e-2" height="2.0000000000000004e-2" x="0.2388313540670287" y="-2.266154608189907e-2" /><rect width="2.0000000000000018e-2" height="1.999999999999999e-2" x="0.2236211597085288" y="7.257539217405164e-2" /><rect width="2.0000000000000018e-2" height="1.999999999999999e-2" x="0.19557925269897114" y="0.10478339499742718" /><rect width="2.0000000000000018e-2" height="2.0e-2" x="0.22106534394263888" y="-1.0386738927312447e-2" /><rect width="2.0000000000000018e-2" height="2.0000000000000018e-2" x="0.15729976556016334" y="0.18259947974826257" /><rect width="1.999999999999999e-2" height="2.0000000000000018e-2" x="6.896424305871197e-2" y="0.24628163354700627" /><rect width="2.0000000000000004e-2" height="2.0000000000000004e-2" x="0.11656229939216246" y="-4.2667165865156835e-2" /><rect width="2.0000000000000018e-2" height="1.999999999999999e-2" x="0.19078107495047825" y="-0.11129692763146491" /><rect width="2.0000000000000018e-2" height="1.999999999999999e-2" x="0.16671615754158697" y="9.542407026205914e-2" /><rect width="1.999999999999999e-2" height="2.0000000000000018e-2" x="8.964533028733425e-2" y="0.2198116382276643" /><rect width="2.0000000000000018e-2" height="2.0000000000000004e-2" x="0.1417083058204689" y="-5.514498659155386e-2" /><rect width="2.0000000000000018e-2" height="2.0000000000000004e-2" x="0.17522990351577394" y="-2.5502547464526286e-2" /><rect width="2.0000000000000018e-2" height="1.9999999999999997e-2" x="0.22963672167134763" y="-7.532816582535383e-2" /><rect width="2.0000000000000018e-2" height="1.9999999999999997e-2" x="0.21953164218341636" y="6.097732523061317e-2" /><rect width="2.0000000000000018e-2" height="1.9999999999999997e-2" x="0.2678207266622422" y="-6.451480742550773e-2" /><rect width="2.0000000000000018e-2" height="1.999999999999999e-2" x="0.2529258432216225" y="6.779361922518846e-2" /><rect width="2.0000000000000018e-2" height="2.0000000000000004e-2" x="0.26389112654886715" y="1.4900283957218327e-2" /><rect width="2.0000000000000018e-2" height="1.999999999999999e-2" x="0.24027492555607444" y="8.918865388693105e-2" /><rect width="2.0000000000000018e-2" height="2.0000000000000004e-2" x="0.27254993989639653" y="-3.0533405674400986e-2" /><rect width="2.0000000000000018e-2" height="1.999999999999999e-2" x="0.24984524576839373" y="8.527716894204536e-2" /><rect width="2.0000000000000018e-2" height="2.0000000000000004e-2" x="0.26154861461461465" y="1.3966228893473607e-2" /><rect width="2.0000000000000018e-2" height="2.0000000000000004e-2" x="0.26735803596258245" y="2.42376252584059e-2" /><rect width="2.0000000000000018e-2" height="2.0000000000000004e-2" x="0.2837615489679476" y="3.9546522084883164e-4" /><rect width="2.0000000000000018e-2" height="2.0000000000000004e-2" x="0.3067623047999777" y="-1.6286720958467275e-2" /><rect width="2.0000000000000018e-2" height="1.9999999999999997e-2" x="0.2962876081082372" y="5.48076430346971e-2" /><rect width="2.0000000000000018e-2" height="2.0000000000000004e-2" x="0.3074775306272266" y="9.466126577567133e-3" /><rect width="2.0000000000000018e-2" height="1.999999999999999e-2" x="0.2861007314561692" y="7.919306555306284e-2" /><rect width="2.0000000000000018e-2" height="2.0000000000000004e-2" x="0.3300210461332125" y="-6.128671063532897e-2" /><rect width="2.0000000000000018e-2" height="2.0000000000000004e-2" x="0.3411110240611199" y="4.474386901865199e-3" /><rect width="2.0000000000000018e-2" height="1.9999999999999997e-2" x="0.3272536915926767" y="5.873726764444188e-2" /><rect width="2.0000000000000018e-2" height="2.0000000000000004e-2" x="0.32404580218142176" y="3.775298143625078e-2" /><rect width="2.0000000000000018e-2" height="2.0000000000000004e-2" x="0.3311022192117038" y="1.5262719824268087e-2" /><rect width="2.0000000000000018e-2" height="2.0000000000000004e-2" x="0.33681632363556613" y="1.7139948025099667e-2" /><rect width="2.0000000000000018e-2" height="1.999999999999999e-2" x="0.3193605099555167" y="6.738166754446319e-2" /><rect width="2.0000000000000018e-2" height="2.0000000000000004e-2" x="0.320980203136803" y="2.8184577966866582e-2" /><rect width="2.0000000000000018e-2" height="2.0000000000000004e-2" x="0.317945398341145" y="3.76523329377172e-2" /><rect width="2.0000000000000018e-2" height="2.0000000000000004e-2" x="0.31576387070100576" y="3.625898398688971e-2" /><rect width="2.0000000000000018e-2" height="2.0000000000000004e-2" x="0.34804924605012766" y="-3.962178271199556e-2" /><rect width="2.0000000000000018e-2" height="2.0000000000000004e-2" x="0.34222721428285663" y="3.996557958852776e-2" /><rect width="2.0000000000000018e-2" height="1.9999999999999997e-2" x="0.33159245690614336" y="5.2141765897192334e-2" /><rect width="2.0000000000000018e-2" height="1.999999999999999e-2" x="0.3056752857367864" y="8.736916456707168e-2" /><rect width="2.0000000000000018e-2" height="1.999999999999999e-2" x="0.29240383224963673" y="6.315586576245581e-2" /><rect width="2.0000000000000018e-2" height="2.0000000000000004e-2" x="0.298396698176431" y="2.1416262484431133e-2" /><rect width="2.0000000000000018e-2" height="2.0000000000000004e-2" x="0.3303051606668723" y="-3.754665527814171e-2" /><rect width="2.0000000000000018e-2" height="2.0000000000000004e-2" x="0.3337912484028578" y="2.1186483111950878e-2" /><rect width="2.0000000000000018e-2" height="2.0000000000000004e-2" x="0.34748099844370817" y="-7.301756700683806e-4" /><rect width="2.0000000000000018e-2" height="1.999999999999999e-2" x="0.31906632731469253" y="9.021338431843041e-2" /><rect width="2.0000000000000018e-2" height="2.0000000000000018e-2" x="0.2697160226262082" y="0.14187152346834586" /><rect width="2.0000000000000018e-2" height="2.0000000000000004e-2" x="0.233250895786279" y="0.11955828150571869" /><rect width="2.0000000000000018e-2" height="2.0000000000000004e-2" x="0.26340397432480434" y="-2.448364556221682e-2" /><rect width="2.0000000000000018e-2" height="2.0000000000000004e-2" x="0.2666891181037807" y="2.8898055437490973e-2" /><rect width="2.0000000000000018e-2" height="2.0000000000000004e-2" x="0.30826830297816943" y="-5.549077699633952e-2" /><rect width="2.0000000000000018e-2" height="1.999999999999999e-2" x="0.28568031311651987" y="8.075234455268217e-2" /><rect width="2.0000000000000018e-2" height="1.9999999999999997e-2" x="0.27585164632534487" y="5.775063045582313e-2" /><rect width="2.0000000000000018e-2" height="2.0000000000000004e-2" x="0.2862901014436767" y="1.3290028617206526e-2" /><rect width="2.0000000000000018e-2" height="2.0000000000000004e-2" x="0.32395638050296305" y="-4.931789838618005e-2" /><rect width="2.0000000000000018e-2" height="1.9999999999999997e-2" x="0.31688435088783196" y="4.4748178020126046e-2" /><rect width="2.0000000000000018e-2" height="2.0000000000000004e-2" x="0.3463787108777582" y="-3.358100374977468e-2" /><rect width="2.0000000000000018e-2" height="2.0000000000000004e-2" x="0.3397130317539736" y="4.1829954447949076e-2" /><rect width="2.0000000000000018e-2" height="1.9999999999999997e-2" x="0.33010103103739874" y="5.0359844201896826e-2" /><rect width="2.0000000000000018e-2" height="2.0000000000000004e-2" x="0.34559810798415713" y="-3.881442372451629e-3" /><rect width="2.0000000000000018e-2" height="2.0e-2" x="0.36239856361103506" y="-9.251012470340039e-3" /><rect width="2.0000000000000018e-2" height="2.0000000000000004e-2" x="0.3578275422725161" y="3.593545152158629e-2" /><rect width="2.0000000000000018e-2" height="1.9999999999999997e-2" x="0.348407494571751" y="4.7727296713659335e-2" /><rect width="2.0000000000000018e-2" height="2.0e-2" x="0.3663656006944531" y="-1.1277880143735644e-2" /><rect width="2.0000000000000018e-2" height="1.9999999999999997e-2" x="0.35737775149973994" y="4.5177387462883085e-2" /><rect width="2.0000000000000018e-2" height="2.0000000000000004e-2" x="0.3198929677538961" y="0.10997264363459354" /><rect width="2.0000000000000018e-2" height="2.0000000000000004e-2" x="0.3288468638401745" y="1.2871075784240857e-2" /><rect width="2.0000000000000018e-2" height="2.0000000000000004e-2" x="0.36352657486178364" y="-4.715379485329751e-2" /><rect width="2.0000000000000018e-2" height="2.0000000000000004e-2" x="0.3186237808900081" y="0.12427505640772542" /><rect width="2.0000000000000018e-2" height="2.0000000000000004e-2" x="0.3307470497321471" y="6.366234693816872e-3" /><rect width="2.0000000000000018e-2" height="1.999999999999999e-2" x="0.3094404156837016" y="7.674568377768355e-2" /><rect width="2.0000000000000018e-2" height="2.0e-2" x="0.3283603893495586" y="-8.782182795685203e-3" /><rect width="2.0000000000000018e-2" height="2.0000000000000004e-2" x="0.35424689568218914" y="-2.8146628704557745e-2" /><rect width="2.0000000000000018e-2" height="1.999999999999999e-2" x="0.3311616456315184" y="7.732408227953404e-2" /><rect width="2.0000000000000018e-2" height="2.0000000000000004e-2" x="0.3593681294671821" y="-3.168773206744956e-2" /><rect width="2.0000000000000018e-2" height="1.9999999999999997e-2" x="0.34272924553220996" y="6.239551469835037e-2" /><rect width="2.0000000000000018e-2" height="2.0000000000000004e-2" x="0.3447680875598814" y="2.47953723453156e-2" /><rect width="2.0000000000000018e-2" height="2.0000000000000004e-2" x="0.3787599122941899" y="-4.701869922671464e-2" /><rect width="2.0000000000000018e-2" height="2.0000000000000004e-2" x="0.3881970167931482" y="2.7248017967915848e-3" /><rect width="2.0000000000000018e-2" height="1.999999999999999e-2" x="0.36455298141581094" y="7.506039143790795e-2" /><rect width="2.0000000000000018e-2" height="2.0000000000000004e-2" x="0.3576635164120937" y="4.234439032437271e-2" /><rect width="2.0000000000000018e-2" height="2.0000000000000004e-2" x="0.3551171632940874" y="3.2885359318319436e-2" /><rect width="2.0000000000000018e-2" height="2.0000000000000018e-2" x="0.3015000141847116" y="0.1464798564582694" /><rect width="2.0000000000000018e-2" height="2.0000000000000018e-2" x="0.21724488802293418" y="0.2217298295941234" /><rect width="2.0000000000000018e-2" height="1.9999999999999997e-2" x="0.26779861634341007" y="-6.55902753369869e-2" /><rect width="2.0000000000000018e-2" height="1.9999999999999997e-2" x="0.2586248916328472" y="5.5190460814559146e-2" /><rect width="2.0000000000000018e-2" height="2.0000000000000004e-2" x="0.2711033726025325" y="1.0784255156325648e-2" /><rect width="2.0000000000000018e-2" height="2.0000000000000018e-2" x="0.17675992554104614" y="0.24404703837916109" /><rect width="2.0000000000000018e-2" height="2.0000000000000004e-2" x="0.21522560872944385" y="-3.475749697545038e-2" /><rect width="2.0000000000000018e-2" height="1.999999999999999e-2" x="0.28868715124109434" y="-0.11965821667542241" /><rect width="2.0000000000000018e-2" height="1.9999999999999997e-2" x="0.3380845513399896" y="-7.875350353988207e-2" /><rect width="2.0000000000000018e-2" height="2.0000000000000004e-2" x="0.34619471703052973" y="8.664069258905846e-3" /></g><g /></svg>