<svg viewBox="-0.8833626921176594 -0.68275 1.3908626921176594 1.486260262610592" xmlns="http://www.w3.org/2000/svg" xmlns:xlink="http://www.w3.org/1999/xlink" version="1.1" width="600.0" height="400.0"><g stroke-width="0.0" stroke="none" fill="#000000" transform="translate(-0.8278626921176594, 6.038013130529607e-2)" fill-opacity="1.0" font-size="6.0e-2" text-anchor="middle"><text transform="rotate(-90.0, 0.0, -0.0)" x="0.0" y="-0.0">ma 0.99</text></g><g stroke-width="0.0" stroke="none" fill="#000000" transform="translate(-0.1401813460588297, 0.7720102626105921)" fill-opacity="1.0" font-size="6.0e-2" text-anchor="middle"><text transform="rotate(0.0, 0.0, -0.0)" x="0.0" y="-0.0">std 0.95</text></g><g stroke-width="0.0" stroke="none" fill="#000000" transform="translate(-0.1401813460588297, -0.57175)" fill-opacity="1.0" font-size="0.12" text-anchor="middle"><text transform="rotate(0.0, 0.0, -0.0)" x="0.0" y="-0.0">std 0.95 vs ma 0.99</text></g><g stroke-width="0.0" stroke="#000000" fill="#666666" fill-opacity="3.0e-2" stroke-opacity="0.0"><rect width="1.0" height="1.0" x="-0.5" y="-0.5" /></g><g stroke-width="5.0e-3" stroke="#A8E5EE" fill="none" stroke-opacity="0.3"><polyline points="-0.505,0.5 0.505,0.5" /></g><g stroke-width="5.0e-3" stroke="#A8E5EE" fill="none" stroke-opacity="0.3"><polyline points="-0.505,0.35714285714285715 0.505,0.35714285714285715" /></g><g stroke-width="5.0e-3" stroke="#A8E5EE" fill="none" stroke-opacity="0.3"><polyline points="-0.505,0.2142857142857143 0.505,0.2142857142857143" /></g><g stroke-width="5.0e-3" stroke="#A8E5EE" fill="none" stroke-opacity="0.3"><polyline points="-0.505,7.142857142857145e-2 0.505,7.142857142857145e-2" /></g><g stroke-width="5.0e-3" stroke="#A8E5EE" fill="none" stroke-opacity="0.3"><polyline points="-0.505,-7.14285714285714e-2 0.505,-7.14285714285714e-2" /></g><g stroke-width="5.0e-3" stroke="#A8E5EE" fill="none" stroke-opacity="0.3"><polyline points="-0.505,-0.2142857142857143 0.505,-0.2142857142857143" /></g><g stroke-width="5.0e-3" stroke="#A8E5EE" fill="none" stroke-opacity="0.3"><polyline points="-0.505,-0.3571428571428571 0.505,-0.3571428571428571" /></g><g stroke-width="5.0e-3" stroke="#A8E5EE" fill="none" stroke-opacity="0.3"><polyline points="-0.505,-0.5 0.505,-0.5" /></g><g stroke-width="0.0" stroke="none" fill="#666666" fill-opacity="1.0" font-size="5.0e-2" text-anchor="end"><text x="-0.6128626921176593" y="0.5145">-2.0e-3</text></g><g stroke-width="0.0" stroke="none" fill="#666666" fill-opacity="1.0" font-size="5.0e-2" text-anchor="end"><text x="-0.6128626921176593" y="0.37164285714285716">-1.0e-3</text></g><g stroke-width="0.0" stroke="none" fill="#666666" fill-opacity="1.0" font-size="5.0e-2" text-anchor="end"><text x="-0.6128626921176593" y="0.22878571428571431">0.0e0</text></g><g stroke-width="0.0" stroke="none" fill="#666666" fill-opacity="1.0" font-size="5.0e-2" text-anchor="end"><text x="-0.6128626921176593" y="8.592857142857145e-2">1.0e-3</text></g><g stroke-width="0.0" stroke="none" fill="#666666" fill-opacity="1.0" font-size="5.0e-2" text-anchor="end"><text x="-0.6128626921176593" y="-5.69285714285714e-2">2.0e-3</text></g><g stroke-width="0.0" stroke="none" fill="#666666" fill-opacity="1.0" font-size="5.0e-2" text-anchor="end"><text x="-0.6128626921176593" y="-0.1997857142857143">3.0e-3</text></g><g stroke-width="0.0" stroke="none" fill="#666666" fill-opacity="1.0" font-size="5.0e-2" text-anchor="end"><text x="-0.6128626921176593" y="-0.3426428571428571">4.0e-3</text></g><g stroke-width="0.0" stroke="none" fill="#666666" fill-opacity="1.0" font-size="5.0e-2" text-anchor="end"><text x="-0.6128626921176593" y="-0.4855">5.0e-3</text></g><g stroke-width="0.0" stroke="#2C429D" fill="#5F0391" fill-opacity="1.0" stroke-opacity="0.4"><line stroke-width="5.0e-3" transform="rotate(-90.0, -0.5827876921176592, 0.5)" x1="-0.5827876921176592" y1="0.515" x2="-0.5827876921176592" y2="0.485" /><line stroke-width="5.0e-3" transform="rotate(-90.0, -0.5827876921176592, 0.35714285714285715)" x1="-0.5827876921176592" y1="0.37214285714285716" x2="-0.5827876921176592" y2="0.34214285714285714" /><line stroke-width="5.0e-3" transform="rotate(-90.0, -0.5827876921176592, 0.2142857142857143)" x1="-0.5827876921176592" y1="0.22928571428571431" x2="-0.5827876921176592" y2="0.1992857142857143" /><line stroke-width="5.0e-3" transform="rotate(-90.0, -0.5827876921176592, 7.142857142857145e-2)" x1="-0.5827876921176592" y1="8.642857142857145e-2" x2="-0.5827876921176592" y2="5.642857142857145e-2" /><line stroke-width="5.0e-3" transform="rotate(-90.0, -0.5827876921176592, -7.14285714285714e-2)" x1="-0.5827876921176592" y1="-5.64285714285714e-2" x2="-0.5827876921176592" y2="-8.64285714285714e-2" /><line stroke-width="5.0e-3" transform="rotate(-90.0, -0.5827876921176592, -0.2142857142857143)" x1="-0.5827876921176592" y1="-0.1992857142857143" x2="-0.5827876921176592" y2="-0.22928571428571431" /><line stroke-width="5.0e-3" transform="rotate(-90.0, -0.5827876921176592, -0.3571428571428571)" x1="-0.5827876921176592" y1="-0.3421428571428571" x2="-0.5827876921176592" y2="-0.3721428571428571" /><line stroke-width="5.0e-3" transform="rotate(-90.0, -0.5827876921176592, -0.5)" x1="-0.5827876921176592" y1="-0.485" x2="-0.5827876921176592" y2="-0.515" /></g><g stroke-width="0.0" stroke="#666666" fill="#5F0391" fill-opacity="0.5" stroke-opacity="0.0"><rect width="5.0000000000000044e-3" height="1.0" x="-0.5727876921176592" y="-0.5" /></g><g stroke-width="5.0e-3" stroke="#A8E5EE" fill="none" stroke-opacity="0.3"><polyline points="-0.5,0.505 -0.5,-0.505" /></g><g stroke-width="5.0e-3" stroke="#A8E5EE" fill="none" stroke-opacity="0.3"><polyline points="-0.4,0.505 -0.4,-0.505" /></g><g stroke-width="5.0e-3" stroke="#A8E5EE" fill="none" stroke-opacity="0.3"><polyline points="-0.3,0.505 -0.3,-0.505" /></g><g stroke-width="5.0e-3" stroke="#A8E5EE" fill="none" stroke-opacity="0.3"><polyline points="-0.2,0.505 -0.2,-0.505" /></g><g stroke-width="5.0e-3" stroke="#A8E5EE" fill="none" stroke-opacity="0.3"><polyline points="-9.999999999999998e-2,0.505 -9.999999999999998e-2,-0.505" /></g><g stroke-width="5.0e-3" stroke="#A8E5EE" fill="none" stroke-opacity="0.3"><polyline points="0.0,0.505 0.0,-0.505" /></g><g stroke-width="5.0e-3" stroke="#A8E5EE" fill="none" stroke-opacity="0.3"><polyline points="9.999999999999998e-2,0.505 9.999999999999998e-2,-0.505" /></g><g stroke-width="5.0e-3" stroke="#A8E5EE" fill="none" stroke-opacity="0.3"><polyline points="0.19999999999999996,0.505 0.19999999999999996,-0.505" /></g><g stroke-width="5.0e-3" stroke="#A8E5EE" fill="none" stroke-opacity="0.3"><polyline points="0.30000000000000004,0.505 0.30000000000000004,-0.505" /></g><g stroke-width="5.0e-3" stroke="#A8E5EE" fill="none" stroke-opacity="0.3"><polyline points="0.40000000000000013,0.505 0.40000000000000013,-0.505" /></g><g stroke-width="5.0e-3" stroke="#A8E5EE" fill="none" stroke-opacity="0.3"><polyline points="0.5,0.505 0.5,-0.505" /></g><g stroke-width="0.0" stroke="none" fill="#666666" fill-opacity="1.0" font-size="4.137931034482759e-2" text-anchor="end"><text transform="rotate(-45.0, -0.5, 0.6000000000000001)" x="-0.5" y="0.6000000000000001">0.000</text></g><g stroke-width="0.0" stroke="none" fill="#666666" fill-opacity="1.0" font-size="4.137931034482759e-2" text-anchor="end"><text transform="rotate(-45.0, -0.4, 0.6000000000000001)" x="-0.4" y="0.6000000000000001">0.002</text></g><g stroke-width="0.0" stroke="none" fill="#666666" fill-opacity="1.0" font-size="4.137931034482759e-2" text-anchor="end"><text transform="rotate(-45.0, -0.3, 0.6000000000000001)" x="-0.3" y="0.6000000000000001">0.004</text></g><g stroke-width="0.0" stroke="none" fill="#666666" fill-opacity="1.0" font-size="4.137931034482759e-2" text-anchor="end"><text transform="rotate(-45.0, -0.2, 0.6000000000000001)" x="-0.2" y="0.6000000000000001">0.006</text></g><g stroke-width="0.0" stroke="none" fill="#666666" fill-opacity="1.0" font-size="4.137931034482759e-2" text-anchor="end"><text transform="rotate(-45.0, -9.999999999999998e-2, 0.6000000000000001)" x="-9.999999999999998e-2" y="0.6000000000000001">0.008</text></g><g stroke-width="0.0" stroke="none" fill="#666666" fill-opacity="1.0" font-size="4.137931034482759e-2" text-anchor="end"><text transform="rotate(-45.0, 0.0, 0.6000000000000001)" x="0.0" y="0.6000000000000001">0.010</text></g><g stroke-width="0.0" stroke="none" fill="#666666" fill-opacity="1.0" font-size="4.137931034482759e-2" text-anchor="end"><text transform="rotate(-45.0, 9.999999999999998e-2, 0.6000000000000001)" x="9.999999999999998e-2" y="0.6000000000000001">0.012</text></g><g stroke-width="0.0" stroke="none" fill="#666666" fill-opacity="1.0" font-size="4.137931034482759e-2" text-anchor="end"><text transform="rotate(-45.0, 0.19999999999999996, 0.6000000000000001)" x="0.19999999999999996" y="0.6000000000000001">0.014</text></g><g stroke-width="0.0" stroke="none" fill="#666666" fill-opacity="1.0" font-size="4.137931034482759e-2" text-anchor="end"><text transform="rotate(-45.0, 0.30000000000000004, 0.6000000000000001)" x="0.30000000000000004" y="0.6000000000000001">0.016</text></g><g stroke-width="0.0" stroke="none" fill="#666666" fill-opacity="1.0" font-size="4.137931034482759e-2" text-anchor="end"><text transform="rotate(-45.0, 0.40000000000000013, 0.6000000000000001)" x="0.40000000000000013" y="0.6000000000000001">0.018</text></g><g stroke-width="0.0" stroke="none" fill="#666666" fill-opacity="1.0" font-size="4.137931034482759e-2" text-anchor="end"><text transform="rotate(-45.0, 0.5, 0.6000000000000001)" x="0.5" y="0.6000000000000001">0.020</text></g><g stroke-width="0.0" stroke="#2C429D" fill="#5F0391" fill-opacity="1.0" stroke-opacity="0.4"><line stroke-width="5.0e-3" x1="-0.5" y1="0.54" x2="-0.5" y2="0.51" /><line stroke-width="5.0e-3" x1="-0.4" y1="0.54" x2="-0.4" y2="0.51" /><line stroke-width="5.0e-3" x1="-0.3" y1="0.54" x2="-0.3" y2="0.51" /><line stroke-width="5.0e-3" x1="-0.2" y1="0.54" x2="-0.2" y2="0.51" /><line stroke-width="5.0e-3" x1="-9.999999999999998e-2" y1="0.54" x2="-9.999999999999998e-2" y2="0.51" /><line stroke-width="5.0e-3" y1="0.54" y2="0.51" /><line stroke-width="5.0e-3" x1="9.999999999999998e-2" y1="0.54" x2="9.999999999999998e-2" y2="0.51" /><line stroke-width="5.0e-3" x1="0.19999999999999996" y1="0.54" x2="0.19999999999999996" y2="0.51" /><line stroke-width="5.0e-3" x1="0.30000000000000004" y1="0.54" x2="0.30000000000000004" y2="0.51" /><line stroke-width="5.0e-3" x1="0.40000000000000013" y1="0.54" x2="0.40000000000000013" y2="0.51" /><line stroke-width="5.0e-3" x1="0.5" y1="0.54" x2="0.5" y2="0.51" /></g><g stroke-width="0.0" stroke="#666666" fill="#5F0391" fill-opacity="0.5" stroke-opacity="0.0"><rect width="1.0" height="5.0000000000000044e-3" x="-0.5" y="0.51" /></g><g stroke-width="3.0e-3" stroke="#2C429D" fill="#D99721" fill-opacity="0.3" stroke-opacity="0.0"><rect width="2.0000000000000018e-2" height="2.0000000000000018e-2" x="-0.4682030871258111" y="-0.42430318856765925" /><rect width="2.0000000000000018e-2" height="2.0000000000000018e-2" x="-0.4748715468002055" y="-0.4050255703164637" /><rect width="2.0000000000000018e-2" height="2.0000000000000018e-2" x="-0.4761050094435769" y="-0.43093700455713235" /><rect width="2.0000000000000018e-2" height="2.0000000000000018e-2" x="-0.3955155511611146" y="-0.27612731806536317" /><rect width="2.0000000000000018e-2" height="2.0000000000000018e-2" x="-0.40219427501546634" y="-0.23497541942476352" /><rect width="2.0000000000000018e-2" height="2.0000000000000018e-2" x="-0.3963842412726658" y="-0.29711543442115107" /><rect width="2.0000000000000018e-2" height="2.0000000000000018e-2" x="-0.37736096324759905" y="-0.21219118071996024" /><rect width="2.0000000000000018e-2" height="2.0000000000000018e-2" x="-0.3800676572225484" y="-0.1709535780570951" /><rect width="2.0000000000000018e-2" height="2.0000000000000018e-2" x="-0.3873322898771091" y="-0.15400479928644906" /><rect width="2.0000000000000018e-2" height="2.0000000000000004e-2" x="-0.3926748942757505" y="-0.133659415444492" /><rect width="2.0000000000000018e-2" height="1.9999999999999997e-2" x="-0.3765020955112999" y="-7.145288765005985e-2" /><rect width="2.0000000000000018e-2" height="2.0000000000000018e-2" x="-0.28952663041618576" y="-0.20734840449778413" /><rect width="2.0000000000000018e-2" height="1.999999999999999e-2" x="-0.2633166577491456" y="-0.11202022638161112" /><rect width="2.0000000000000018e-2" height="1.999999999999999e-2" x="-0.2740163440836113" y="-9.455997568814521e-2" /><rect width="2.0000000000000018e-2" height="2.0000000000000004e-2" x="-0.2729600557165732" y="-4.287152526961723e-2" /><rect width="2.0000000000000018e-2" height="2.0000000000000004e-2" x="-0.27528256029615844" y="-5.963158631844736e-4" /><rect width="2.0000000000000018e-2" height="2.0000000000000004e-2" x="-0.28051739584597823" y="3.1525496666031945e-2" /><rect width="2.0000000000000018e-2" height="2.0000000000000004e-2" x="-0.2899241524905146" y="3.489284693160611e-2" /><rect width="2.0000000000000018e-2" height="2.0000000000000004e-2" x="-0.2960902210823231" y="1.859356856784678e-2" /><rect width="2.0000000000000018e-2" height="2.0000000000000004e-2" x="-0.304197855805226" y="2.5600670988795433e-2" /><rect width="2.0000000000000018e-2" height="1.9999999999999997e-2" x="-0.3040413836205942" y="5.898387451324744e-2" /><rect width="2.0000000000000018e-2" height="2.0000000000000004e-2" x="-0.2878649692717586" y="8.296767544801473e-3" /><rect width="2.0000000000000018e-2" height="2.0000000000000004e-2" x="-0.2928644334281971" y="2.8293110942882678e-2" /><rect width="2.0000000000000018e-2" height="1.9999999999999997e-2" x="-0.29850277080884724" y="4.467071437225951e-2" /><rect width="2.0000000000000018e-2" height="1.999999999999999e-2" x="-0.3027294297642913" y="6.411051609165087e-2" /><rect width="2.0000000000000018e-2" height="2.0000000000000018e-2" x="-0.2514498328802661" y="0.14506034063517315" /><rect width="2.0000000000000018e-2" height="2.0000000000000018e-2" x="-0.2586783645444282" y="0.13647819150754015" /><rect width="2.0000000000000018e-2" height="2.0000000000000018e-2" x="-0.26664920126169733" y="0.1451542495241009" /><rect width="2.0000000000000018e-2" height="2.0000000000000018e-2" x="-0.2743792214959093" y="0.15205987763906775" /><rect width="2.0000000000000018e-2" height="2.0000000000000018e-2" x="-0.28168846052711005" y="0.1594546459732999" /><rect width="2.0000000000000018e-2" height="2.0000000000000004e-2" x="-0.271149713376889" y="0.12355336297424475" /><rect width="2.0000000000000018e-2" height="2.0000000000000004e-2" x="-0.2783406518917072" y="0.12092360647538304" /><rect width="2.0000000000000018e-2" height="2.0000000000000004e-2" x="-0.2832110251380945" y="0.10933856873965099" /><rect width="2.0000000000000018e-2" height="2.0000000000000004e-2" x="-0.2878347496646437" y="0.12341569998486608" /><rect width="2.0000000000000018e-2" height="2.0000000000000018e-2" x="-0.2933637733321113" y="0.1338131293610037" /><rect width="2.0000000000000018e-2" height="2.0000000000000018e-2" x="-0.2997743063505509" y="0.13350925516070722" /><rect width="2.0000000000000018e-2" height="2.0000000000000018e-2" x="-0.30251924619448606" y="0.14950738089564597" /><rect width="2.0000000000000018e-2" height="2.0000000000000018e-2" x="-0.30732855688089566" y="0.14270441949580043" /><rect width="2.0000000000000018e-2" height="2.0000000000000018e-2" x="-0.31293768988458337" y="0.14813572757544774" /><rect width="2.0000000000000018e-2" height="2.0000000000000018e-2" x="-0.3184845746268512" y="0.14689039336731907" /><rect width="2.0000000000000018e-2" height="2.0000000000000018e-2" x="-0.32316182717663267" y="0.15451023530403296" /><rect width="2.0000000000000018e-2" height="2.0000000000000018e-2" x="-0.3233995788230827" y="0.17126509553705532" /><rect width="2.0000000000000018e-2" height="2.0000000000000018e-2" x="-0.31340717688800857" y="0.1995223276821556" /><rect width="2.0000000000000018e-2" height="2.0000000000000018e-2" x="-0.29201627358717097" y="0.16597649660926228" /><rect width="2.0000000000000018e-2" height="2.0000000000000018e-2" x="-0.2956742761814636" y="0.1782323057334984" /><rect width="2.0000000000000018e-2" height="2.0000000000000018e-2" x="-0.3009617071276595" y="0.18544280547443642" /><rect width="2.0000000000000018e-2" height="2.0000000000000018e-2" x="-0.28804804533606687" y="0.15783162386967992" /><rect width="2.0000000000000018e-2" height="2.0000000000000018e-2" x="-0.29123275344930655" y="0.17019255443240855" /><rect width="2.0000000000000018e-2" height="2.0000000000000018e-2" x="-0.2643913142740244" y="0.13206146423379395" /><rect width="2.0000000000000018e-2" height="2.0000000000000004e-2" x="-0.26303236321173773" y="0.11223234495187125" /><rect width="2.0000000000000018e-2" height="2.0000000000000004e-2" x="-0.2693041476381096" y="0.116199006199202" /><rect width="2.0000000000000018e-2" height="2.0000000000000004e-2" x="-0.2758240520198427" y="0.11641984803309359" /><rect width="2.0000000000000018e-2" height="2.0000000000000018e-2" x="-0.2802042643971353" y="0.12504939477180926" /><rect width="2.0000000000000018e-2" height="2.0000000000000004e-2" x="-0.2860384553107556" y="0.12109268835464994" /><rect width="2.0000000000000018e-2" height="2.0000000000000004e-2" x="-0.29197443387539135" y="0.11908128964922583" /><rect width="2.0000000000000018e-2" height="2.0000000000000018e-2" x="-0.2966800256802804" y="0.12520250228836205" /><rect width="2.0000000000000018e-2" height="2.0000000000000018e-2" x="-0.30237593915937955" y="0.1251108151436227" /><rect width="2.0000000000000018e-2" height="2.0000000000000004e-2" x="-0.3041801136835418" y="0.11384958220951243" /><rect width="2.0000000000000018e-2" height="2.0000000000000004e-2" x="-0.3094804105473562" y="0.11572852757115316" /><rect width="2.0000000000000018e-2" height="2.0000000000000004e-2" x="-0.31381549109485807" y="0.12085810988451774" /><rect width="2.0000000000000018e-2" height="2.0000000000000004e-2" x="-0.318923701975465" y="0.11917619700080408" /><rect width="2.0000000000000018e-2" height="2.0000000000000018e-2" x="-0.3213256636602225" y="0.12758424544221614" /><rect width="2.0000000000000018e-2" height="2.0000000000000018e-2" x="-0.32495934054174" y="0.13365636862664437" /><rect width="2.0000000000000018e-2" height="2.0000000000000004e-2" x="-0.3234759335790839" y="0.12093681867431268" /><rect width="2.0000000000000018e-2" height="2.0000000000000004e-2" x="-0.3277728380954968" y="0.12468036629883823" /><rect width="2.0000000000000018e-2" height="2.0000000000000018e-2" x="-0.23555408982727483" y="0.17978869263940284" /><rect width="2.0000000000000018e-2" height="2.0000000000000018e-2" x="-0.23893250443740693" y="0.16966531286066328" /><rect width="2.0000000000000018e-2" height="2.0000000000000018e-2" x="-0.2350908076978961" y="0.15109319461513043" /><rect width="2.0000000000000018e-2" height="2.0000000000000018e-2" x="-0.23665219708458468" y="0.13759109801722097" /><rect width="2.0000000000000018e-2" height="2.0000000000000018e-2" x="-0.24330293621736393" y="0.13375628522428729" /><rect width="2.0000000000000018e-2" height="2.0000000000000018e-2" x="-0.24930067021734315" y="0.12822980938487227" /><rect width="2.0000000000000018e-2" height="2.0000000000000004e-2" x="-0.2525635405081737" y="0.11751337663682056" /><rect width="2.0000000000000018e-2" height="2.0000000000000004e-2" x="-0.25917815914773046" y="0.11832180386850973" /><rect width="2.0000000000000018e-2" height="2.0000000000000004e-2" x="-0.26470794208958326" y="0.12319808537709649" /><rect width="2.0000000000000018e-2" height="2.0000000000000018e-2" x="-0.2707287534265761" y="0.12594677052330988" /><rect width="2.0000000000000018e-2" height="2.0000000000000004e-2" x="-0.264745805922152" y="0.10740156889121295" /><rect width="2.0000000000000018e-2" height="1.999999999999999e-2" x="-0.2691821006655107" y="9.94549378670432e-2" /><rect width="2.0000000000000018e-2" height="1.999999999999999e-2" x="-0.2740093990331204" y="0.10454455674390929" /><rect width="2.0000000000000018e-2" height="2.0000000000000004e-2" x="-0.27639630012940675" y="0.11354583206128062" /><rect width="2.0000000000000018e-2" height="2.0000000000000004e-2" x="-0.2822474229670361" y="0.11115565477266" /><rect width="2.0000000000000018e-2" height="2.0000000000000004e-2" x="-0.2880165361388945" y="0.11213472132769949" /><rect width="2.0000000000000018e-2" height="2.0000000000000004e-2" x="-0.29297899085716983" y="0.11586009700638518" /><rect width="2.0000000000000018e-2" height="2.0000000000000004e-2" x="-0.2977311681787056" y="0.11986488569212668" /><rect width="2.0000000000000018e-2" height="2.0000000000000004e-2" x="-0.2988727600660685" y="0.11013959278219755" /><rect width="2.0000000000000018e-2" height="2.0000000000000004e-2" x="-0.3033146528777041" y="0.1142262100831052" /><rect width="2.0000000000000018e-2" height="2.0000000000000004e-2" x="-0.3059822651414498" y="0.12126645038813406" /><rect width="2.0000000000000018e-2" height="2.0000000000000004e-2" x="-0.31117850623851817" y="0.1219904960340767" /><rect width="2.0000000000000018e-2" height="1.999999999999999e-2" x="-0.2985261443702213" y="0.10329539440083547" /><rect width="2.0000000000000018e-2" height="2.0000000000000004e-2" x="-0.28743547354091564" y="0.12111712101946993" /><rect width="2.0000000000000018e-2" height="2.0000000000000004e-2" x="-0.29275577996991664" y="0.12389408596613923" /><rect width="2.0000000000000018e-2" height="2.0000000000000018e-2" x="-0.2980399454352755" y="0.12630603388741957" /><rect width="2.0000000000000018e-2" height="2.0000000000000004e-2" x="-0.3031073652599695" y="0.1239210999304577" /><rect width="2.0000000000000018e-2" height="2.0000000000000004e-2" x="-0.30837651510621267" y="0.12449793726433551" /><rect width="2.0000000000000018e-2" height="2.0000000000000018e-2" x="-0.2920886536158723" y="0.14462020671852183" /><rect width="2.0000000000000018e-2" height="2.0000000000000018e-2" x="-0.2773449061319986" y="0.12534377321300783" /><rect width="2.0000000000000018e-2" height="2.0000000000000018e-2" x="-0.2621788498735145" y="0.1464244941890867" /><rect width="2.0000000000000018e-2" height="2.0000000000000018e-2" x="-0.26795602563839743" y="0.1438547419537013" /><rect width="2.0000000000000018e-2" height="2.0000000000000018e-2" x="-0.27292369600169697" y="0.13958185611418794" /><rect width="2.0000000000000018e-2" height="2.0000000000000018e-2" x="-0.2785822112386069" y="0.13733005826580708" /><rect width="2.0000000000000018e-2" height="2.0000000000000018e-2" x="-0.26075572117681334" y="0.15946942736975034" /><rect width="2.0000000000000018e-2" height="2.0000000000000018e-2" x="-0.2567122683737526" y="0.14594899830121466" /><rect width="2.0000000000000018e-2" height="2.0000000000000018e-2" x="-0.2630094904143015" y="0.1447992562895214" /><rect width="2.0000000000000018e-2" height="2.0000000000000018e-2" x="-0.2690640874126568" y="0.14744182607179718" /><rect width="2.0000000000000018e-2" height="2.0000000000000018e-2" x="-0.26256125620942705" y="0.13236267025611348" /><rect width="2.0000000000000018e-2" height="2.0000000000000018e-2" x="-0.26838286414510637" y="0.12937781134748266" /><rect width="2.0000000000000018e-2" height="2.0000000000000004e-2" x="-0.270304966545237" y="0.12040468289523866" /><rect width="2.0000000000000018e-2" height="2.0000000000000004e-2" x="-0.276227135138706" y="0.12178544270562676" /><rect width="2.0000000000000018e-2" height="2.0000000000000004e-2" x="-0.28216458288849666" y="0.12174213966534482" /><rect width="2.0000000000000018e-2" height="2.0000000000000004e-2" x="-0.2822531103101116" y="0.11153353457340599" /><rect width="2.0000000000000018e-2" height="2.0000000000000004e-2" x="-0.2877117837184647" y="0.11323975319597475" /><rect width="2.0000000000000018e-2" height="2.0000000000000004e-2" x="-0.29291954565946976" y="0.11536554352729318" /><rect width="2.0000000000000018e-2" height="2.0000000000000004e-2" x="-0.2974223926526803" y="0.11891538964207722" /><rect width="2.0000000000000018e-2" height="2.0000000000000004e-2" x="-0.3014581755260861" y="0.11405305586617655" /><rect width="2.0000000000000018e-2" height="2.0000000000000004e-2" x="-0.3066599498051743" y="0.11478070452215623" /><rect width="2.0000000000000018e-2" height="2.0000000000000004e-2" x="-0.31086005292521274" y="0.11810069820899251" /><rect width="2.0000000000000018e-2" height="2.0000000000000004e-2" x="-0.31460420711872006" y="0.12211977849787521" /><rect width="2.0000000000000018e-2" height="2.0000000000000004e-2" x="-0.31899183160638844" y="0.12480104055895326" /><rect width="2.0000000000000018e-2" height="2.0000000000000004e-2" x="-0.3227025319041157" y="0.12093115985788717" /><rect width="2.0000000000000018e-2" height="2.0000000000000004e-2" x="-0.32744693472548714" y="0.12111661765304867" /><rect width="2.0000000000000018e-2" height="2.0000000000000018e-2" x="-0.3294206122281391" y="0.12673704452177753" /><rect width="2.0000000000000018e-2" height="2.0000000000000004e-2" x="-0.3333546971429522" y="0.12401874773300826" /><rect width="2.0000000000000018e-2" height="2.0000000000000004e-2" x="-0.337437540341034" y="0.12183620810418423" /><rect width="2.0000000000000018e-2" height="2.0000000000000018e-2" x="-0.33857186235554815" y="0.12784092011256748" /><rect width="2.0000000000000018e-2" height="2.0000000000000018e-2" x="-0.34267075316583284" y="0.12963596710650727" /><rect width="2.0000000000000018e-2" height="2.0000000000000018e-2" x="-0.2789246825898259" y="0.15967941550362674" /><rect width="2.0000000000000018e-2" height="2.0000000000000018e-2" x="-0.2841135018291858" y="0.15777220517288998" /><rect width="2.0000000000000018e-2" height="2.0000000000000018e-2" x="-0.26317087573807024" y="0.13868890065481576" /><rect width="2.0000000000000018e-2" height="2.0000000000000018e-2" x="-0.2692824822004317" y="0.14057287652814243" /><rect width="2.0000000000000018e-2" height="2.0000000000000018e-2" x="-0.2750293403519236" y="0.13866659053340108" /><rect width="2.0000000000000018e-2" height="2.0000000000000018e-2" x="-0.22309649020634564" y="0.1699267356356594" /><rect width="2.0000000000000018e-2" height="2.0000000000000018e-2" x="-0.22999028053670373" y="0.1739667789843326" /><rect width="2.0000000000000018e-2" height="2.0000000000000018e-2" x="-0.23643724211939443" y="0.1721265526105808" /><rect width="2.0000000000000018e-2" height="2.0000000000000018e-2" x="-0.220378469201559" y="0.1534630433284796" /><rect width="2.0000000000000018e-2" height="2.0000000000000018e-2" x="-0.22515538316148037" y="0.16080359138836442" /><rect width="2.0000000000000018e-2" height="2.0000000000000018e-2" x="-0.2315705787428891" y="0.16536869799181042" /><rect width="2.0000000000000018e-2" height="2.0000000000000018e-2" x="-0.2378328661453628" y="0.16269542180780644" /><rect width="2.0000000000000018e-2" height="2.0000000000000018e-2" x="-0.2446424840275906" y="0.16232250995027453" /><rect width="2.0000000000000018e-2" height="2.0000000000000018e-2" x="-0.25115970117182296" y="0.1612810160870502" /><rect width="2.0000000000000018e-2" height="2.0000000000000018e-2" x="-0.25264541216130704" y="0.15313961359589523" /><rect width="2.0000000000000018e-2" height="2.0000000000000018e-2" x="-0.2520213371250518" y="0.14305745909314582" /><rect width="2.0000000000000018e-2" height="2.0000000000000018e-2" x="-0.2580052603687381" y="0.1401402314477892" /><rect width="2.0000000000000018e-2" height="2.0000000000000018e-2" x="-0.24897846596913736" y="0.1551837003060676" /><rect width="2.0000000000000018e-2" height="2.0000000000000018e-2" x="-0.2534950841966544" y="0.14999058038596352" /><rect width="2.0000000000000018e-2" height="2.0000000000000018e-2" x="-0.25994571890561774" y="0.15103066073381038" /><rect width="2.0000000000000018e-2" height="2.0000000000000018e-2" x="-0.26554490184052293" y="0.15448899587163611" /><rect width="2.0000000000000018e-2" height="2.0000000000000018e-2" x="-0.24511084690453777" y="0.13517827585221703" /><rect width="2.0000000000000018e-2" height="2.0000000000000018e-2" x="-0.2501922710270697" y="0.12987307471541987" /><rect width="2.0000000000000018e-2" height="2.0000000000000018e-2" x="-0.2567728085206446" y="0.12943888608903276" /><rect width="2.0000000000000018e-2" height="2.0000000000000018e-2" x="-0.2622980094245858" y="0.13242108812986442" /><rect width="2.0000000000000018e-2" height="2.0000000000000018e-2" x="-0.26826498522359754" y="0.12996483606094555" /><rect width="2.0000000000000018e-2" height="2.0000000000000018e-2" x="-0.2742745329967715" y="0.1282595459907943" /><rect width="2.0000000000000018e-2" height="2.0000000000000018e-2" x="-0.28022336682200044" y="0.12720894718669418" /><rect width="2.0000000000000018e-2" height="2.0000000000000018e-2" x="-0.2860333519570077" y="0.12703727099654644" /><rect width="2.0000000000000018e-2" height="2.0000000000000018e-2" x="-0.287665111718139" y="0.13353641636944208" /><rect width="2.0000000000000018e-2" height="2.0000000000000018e-2" x="-0.29329655660584875" y="0.13326146385601306" /><rect width="2.0000000000000018e-2" height="2.0000000000000018e-2" x="-0.29650877518049945" y="0.1381608706541444" /><rect width="2.0000000000000018e-2" height="2.0000000000000018e-2" x="-0.30186731919321663" y="0.13886237523042405" /><rect width="2.0000000000000018e-2" height="2.0000000000000018e-2" x="-0.3033551945356716" y="0.1323814943354606" /><rect width="2.0000000000000018e-2" height="2.0000000000000018e-2" x="-0.3084971676847038" y="0.13113005870517347" /><rect width="2.0000000000000018e-2" height="2.0000000000000018e-2" x="-0.31085355296842576" y="0.12545271085128568" /><rect width="2.0000000000000018e-2" height="2.0000000000000004e-2" x="-0.3130870956647369" y="0.11956093726702406" /><rect width="2.0000000000000018e-2" height="2.0000000000000004e-2" x="-0.3176442468787184" y="0.1167887369307919" /><rect width="2.0000000000000018e-2" height="2.0000000000000004e-2" x="-0.32250194402220733" y="0.11566821535621842" /><rect width="2.0000000000000018e-2" height="2.0000000000000004e-2" x="-0.32054401187190723" y="0.10682617362275211" /><rect width="2.0000000000000018e-2" height="2.0000000000000004e-2" x="-0.32357450973257795" y="0.10991842061439795" /><rect width="2.0000000000000018e-2" height="2.0000000000000004e-2" x="-0.3254462298508721" y="0.11425094234756107" /><rect width="2.0000000000000018e-2" height="2.0000000000000004e-2" x="-0.3295547038852469" y="0.1112902560388397" /><rect width="2.0000000000000018e-2" height="2.0000000000000004e-2" x="-0.33394642630143434" y="0.10927792308716124" /><rect width="2.0000000000000018e-2" height="2.0000000000000004e-2" x="-0.33571279455058667" y="0.11338327152063367" /><rect width="2.0000000000000018e-2" height="2.0000000000000004e-2" x="-0.34012344284094764" y="0.11296305632644611" /><rect width="2.0000000000000018e-2" height="2.0000000000000004e-2" x="-0.34420622268896883" y="0.11103514587350528" /><rect width="2.0000000000000018e-2" height="2.0000000000000004e-2" x="-0.34836384990206376" y="0.11100117814075795" /><rect width="2.0000000000000018e-2" height="2.0000000000000004e-2" x="-0.3524340365450982" y="0.11084713642877005" /><rect width="2.0000000000000018e-2" height="2.0000000000000004e-2" x="-0.3562613201717207" y="0.11140998038583917" /><rect width="2.0000000000000018e-2" height="1.999999999999999e-2" x="-0.3534495502910431" y="0.10373958820154446" /><rect width="2.0000000000000018e-2" height="2.0000000000000004e-2" x="-0.34748317918696636" y="0.11179050128606934" /><rect width="2.0000000000000018e-2" height="2.0000000000000004e-2" x="-0.35140410430681523" y="0.11012819552727128" /><rect width="2.0000000000000018e-2" height="2.0000000000000004e-2" x="-0.34378560802071695" y="0.11925739093245503" /><rect width="2.0000000000000018e-2" height="2.0000000000000004e-2" x="-0.34785454112731395" y="0.11810430482842678" /><rect width="2.0000000000000018e-2" height="2.0000000000000004e-2" x="-0.3327821890751792" y="0.10542300887478918" /><rect width="2.0000000000000018e-2" height="2.0000000000000004e-2" x="-0.33117347244353" y="0.11204232227292273" /><rect width="2.0000000000000018e-2" height="2.0000000000000004e-2" x="-0.3356980267005437" y="0.11153563123832035" /><rect width="2.0000000000000018e-2" height="2.0000000000000004e-2" x="-0.33991666646609575" y="0.1099393119064362" /><rect width="2.0000000000000018e-2" height="2.0000000000000004e-2" x="-0.3440527347572172" y="0.1107354425874464" /><rect width="2.0000000000000018e-2" height="2.0000000000000004e-2" x="-0.34641343095883215" y="0.10661846019368316" /><rect width="2.0000000000000018e-2" height="2.0000000000000004e-2" x="-0.3505196024682644" y="0.10562916798694523" /><rect width="2.0000000000000018e-2" height="2.0000000000000004e-2" x="-0.35404192810748436" y="0.10710969135112093" /><rect width="2.0000000000000018e-2" height="2.0000000000000004e-2" x="-0.3578828281312797" y="0.10582891792889661" /><rect width="2.0000000000000018e-2" height="2.0000000000000004e-2" x="-0.35309698702450815" y="0.11330533957753121" /><rect width="2.0000000000000018e-2" height="2.0000000000000004e-2" x="-0.3560733950662388" y="0.1158749330577651" /><rect width="2.0000000000000018e-2" height="2.0000000000000004e-2" x="-0.35992077881964435" y="0.11526614553849147" /><rect width="2.0000000000000018e-2" height="2.0000000000000004e-2" x="-0.3602146876859585" y="0.12016358086705688" /><rect width="2.0000000000000018e-2" height="2.0000000000000018e-2" x="-0.3498669320589579" y="0.13037345643291337" /><rect width="2.0000000000000018e-2" height="2.0000000000000004e-2" x="-0.3313938954092576" y="0.1176606032730413" /><rect width="2.0000000000000018e-2" height="2.0000000000000004e-2" x="-0.3324099273408549" y="0.12303239860494732" /><rect width="2.0000000000000018e-2" height="2.0000000000000004e-2" x="-0.3366632046488025" y="0.12186209215422601" /><rect width="2.0000000000000018e-2" height="2.0000000000000004e-2" x="-0.32866064508714254" y="0.11202794530683687" /><rect width="2.0000000000000018e-2" height="2.0000000000000004e-2" x="-0.33247094086181894" y="0.11433493917683325" /><rect width="2.0000000000000018e-2" height="2.0000000000000004e-2" x="-0.3363382869184929" y="0.11198539196433473" /><rect width="2.0000000000000018e-2" height="2.0000000000000004e-2" x="-0.3402707172508395" y="0.11368255132183826" /><rect width="2.0000000000000018e-2" height="1.999999999999999e-2" x="-0.3171776418012787" y="9.860870992684008e-2" /><rect width="2.0000000000000018e-2" height="1.999999999999999e-2" x="-0.3213182590600198" y="0.10042978294089124" /><rect width="2.0000000000000018e-2" height="1.999999999999999e-2" x="-0.31061092891549796" y="8.824667700410484e-2" /><rect width="2.0000000000000018e-2" height="1.999999999999999e-2" x="-0.31201919985927057" y="9.289436278673076e-2" /><rect width="2.0000000000000018e-2" height="1.999999999999999e-2" x="-0.3153821604155982" y="9.589001852679148e-2" /><rect width="2.0000000000000018e-2" height="1.999999999999999e-2" x="-0.31294263121589183" y="0.10324435542826156" /><rect width="2.0000000000000018e-2" height="1.999999999999999e-2" x="-0.31761025571276114" y="0.10458332097005581" /><rect width="2.0000000000000018e-2" height="1.999999999999999e-2" x="-0.3211271741837968" y="0.10095307702292385" /><rect width="2.0000000000000018e-2" height="1.999999999999999e-2" x="-0.31940123408222665" y="9.320272821357041e-2" /><rect width="2.0000000000000018e-2" height="1.999999999999999e-2" x="-0.3229397322498947" y="8.927554757176916e-2" /><rect width="2.0000000000000018e-2" height="1.999999999999999e-2" x="-0.3276541110341299" y="8.807164264239083e-2" /><rect width="2.0000000000000018e-2" height="1.999999999999999e-2" x="-0.3312243736519151" y="9.015447423405916e-2" /><rect width="2.0000000000000018e-2" height="1.999999999999999e-2" x="-0.326462003381208" y="9.804113090176055e-2" /><rect width="2.0000000000000018e-2" height="1.999999999999999e-2" x="-0.3110561996150374" y="8.481637914951308e-2" /><rect width="2.0000000000000018e-2" height="1.999999999999999e-2" x="-0.31124875481952813" y="7.754035449289289e-2" /><rect width="2.0000000000000018e-2" height="1.999999999999999e-2" x="-0.3093957761876803" y="8.417978724587662e-2" /><rect width="2.0000000000000018e-2" height="1.999999999999999e-2" x="-0.31309555385851934" y="8.686417699917044e-2" /><rect width="2.0000000000000018e-2" height="1.999999999999999e-2" x="-0.3178915699321261" y="8.499798561609036e-2" /><rect width="2.0000000000000018e-2" height="1.999999999999999e-2" x="-0.3218441755479262" y="8.707291299282845e-2" /><rect width="2.0000000000000018e-2" height="1.999999999999999e-2" x="-0.3250288855631801" y="9.008459171229784e-2" /><rect width="2.0000000000000018e-2" height="1.999999999999999e-2" x="-0.3296913909043573" y="9.009864318209994e-2" /><rect width="2.0000000000000018e-2" height="1.999999999999999e-2" x="-0.3340402682470659" y="8.844733460970296e-2" /><rect width="2.0000000000000018e-2" height="1.999999999999999e-2" x="-0.3253948653629034" y="9.803916176043888e-2" /><rect width="2.0000000000000018e-2" height="1.999999999999999e-2" x="-0.3123265188640022" y="8.603798867805014e-2" /><rect width="2.0000000000000018e-2" height="1.999999999999999e-2" x="-0.3090326323667757" y="7.719621109925641e-2" /><rect width="2.0000000000000018e-2" height="1.999999999999999e-2" x="-0.3120438267980381" y="7.221466669839095e-2" /><rect width="2.0000000000000018e-2" height="1.999999999999999e-2" x="-0.30801902714298746" y="6.254449220906706e-2" /><rect width="2.0000000000000018e-2" height="1.9999999999999997e-2" x="-0.31312742218462475" y="6.148281912412019e-2" /><rect width="2.0000000000000018e-2" height="1.9999999999999997e-2" x="-0.3180375103944853" y="6.100319585461412e-2" /><rect width="2.0000000000000018e-2" height="1.999999999999999e-2" x="-0.320280103182516" y="6.435462202887816e-2" /><rect width="2.0000000000000018e-2" height="1.9999999999999997e-2" x="-0.31600041556625724" y="5.48143686432856e-2" /><rect width="2.0000000000000018e-2" height="1.9999999999999997e-2" x="-0.313716727592807" y="4.58357963603987e-2" /><rect width="2.0000000000000018e-2" height="1.9999999999999997e-2" x="-0.3089671145124192" y="5.316158417473061e-2" /><rect width="2.0000000000000018e-2" height="2.0000000000000004e-2" x="-0.2976189699861056" y="4.0049930492569615e-2" /><rect width="2.0000000000000018e-2" height="1.9999999999999997e-2" x="-0.29879559709532233" y="4.4410112875421244e-2" /><rect width="2.0000000000000018e-2" height="2.0000000000000004e-2" x="-0.30257111132473546" y="3.9284476862683666e-2" /><rect width="2.0000000000000018e-2" height="2.0000000000000004e-2" x="-0.2979091172477631" y="2.846764317566198e-2" /><rect width="2.0000000000000018e-2" height="2.0000000000000004e-2" x="-0.3032576211582634" y="2.6989101468571704e-2" /><rect width="2.0000000000000018e-2" height="2.0000000000000004e-2" x="-0.30586867592046435" y="2.9815591470380494e-2" /><rect width="2.0000000000000018e-2" height="2.0000000000000004e-2" x="-0.31019541979922216" y="3.0785749323680785e-2" /><rect width="2.0000000000000018e-2" height="2.0000000000000004e-2" x="-0.28908023643948355" y="1.4251688473356014e-2" /><rect width="2.0000000000000018e-2" height="2.0000000000000004e-2" x="-0.2713951357164429" y="2.6901787648469573e-2" /><rect width="2.0000000000000018e-2" height="1.9999999999999997e-2" x="-0.23674458553558508" y="4.597278414651302e-2" /><rect width="2.0000000000000018e-2" height="1.9999999999999997e-2" x="-0.24341338395774725" y="4.693997284947749e-2" /><rect width="2.0000000000000018e-2" height="1.9999999999999997e-2" x="-0.24911540405919852" y="4.966993516274915e-2" /><rect width="2.0000000000000018e-2" height="1.999999999999999e-2" x="-0.1542971692375827" y="8.477236983245708e-2" /><rect width="1.999999999999999e-2" height="2.0000000000000018e-2" x="6.495121468807054e-2" y="0.1512396980843801" /><rect width="1.999999999999999e-2" height="2.0000000000000004e-2" x="8.797958806384511e-2" y="0.12491384963034764" /><rect width="1.999999999999999e-2" height="2.0000000000000018e-2" x="7.45601327899711e-2" y="0.13357247879633882" /><rect width="2.0000000000000018e-2" height="2.0000000000000018e-2" x="0.1889595682570825" y="0.19376578858625693" /><rect width="2.0000000000000018e-2" height="2.0000000000000018e-2" x="0.19830475645001955" y="0.1708727465415273" /><rect width="2.0000000000000018e-2" height="2.0000000000000018e-2" x="0.2017612351964717" y="0.1498092612193196" /><rect width="2.0000000000000018e-2" height="2.0000000000000018e-2" x="0.1850321150459161" y="0.14635735664512922" /><rect width="2.0000000000000018e-2" height="2.0000000000000018e-2" x="0.18536631162807915" y="0.12637725739696454" /><rect width="2.0000000000000018e-2" height="2.0000000000000004e-2" x="0.1810168145046709" y="0.10866636144894255" /><rect width="2.0000000000000018e-2" height="2.0000000000000004e-2" x="0.16352111917681145" y="0.1091236777458491" /><rect width="2.0000000000000018e-2" height="2.0000000000000004e-2" x="0.14984352572643778" y="0.11919814103260619" /><rect width="2.0000000000000018e-2" height="2.0000000000000018e-2" x="0.13588723612045794" y="0.1286205361985342" /><rect width="2.0000000000000004e-2" height="2.0000000000000018e-2" x="0.1196906517331885" y="0.12793696612086164" /><rect width="2.0000000000000018e-2" height="1.999999999999999e-2" x="0.1285004046473166" y="0.10426645972842132" /><rect width="2.0000000000000004e-2" height="1.999999999999999e-2" x="0.12405413896641161" y="8.73537184635765e-2" /><rect width="2.0000000000000018e-2" height="2.0000000000000004e-2" x="0.1262855325152844" y="0.10828059540712616" /><rect width="2.0000000000000004e-2" height="2.0000000000000018e-2" x="0.122865642266492" y="0.12646059108061625" /><rect width="2.0000000000000004e-2" height="2.0000000000000018e-2" x="0.12351428684333356" y="0.14789602282684844" /><rect width="2.0000000000000004e-2" height="2.0000000000000018e-2" x="0.11079517178523614" y="0.14073912963717727" /><rect width="2.0000000000000004e-2" height="2.0000000000000004e-2" x="0.10792633761217886" y="0.1245979673650779" /><rect width="1.999999999999999e-2" height="2.0000000000000004e-2" x="9.294233910023099e-2" y="0.12141468026280368" /><rect width="1.999999999999999e-2" height="2.0000000000000004e-2" x="7.77190157233313e-2" y="0.12304391382645148" /><rect width="1.999999999999999e-2" height="2.0000000000000004e-2" x="6.476297430887624e-2" y="0.11710066397091047" /><rect width="1.999999999999999e-2" height="1.999999999999999e-2" x="7.96166591054548e-2" y="9.169111204434362e-2" /><rect width="1.999999999999999e-2" height="1.999999999999999e-2" x="6.531914023246034e-2" y="9.484300340082104e-2" /><rect width="1.9999999999999997e-2" height="2.0000000000000004e-2" x="5.661252340685264e-2" y="0.10575955558880125" /><rect width="1.9999999999999997e-2" height="2.0000000000000004e-2" x="4.671117088834121e-2" y="0.11557105746289527" /><rect width="2.0000000000000004e-2" height="2.0000000000000004e-2" x="3.2762754689663394e-2" y="0.11771057922719987" /><rect width="2.0000000000000004e-2" height="2.0000000000000004e-2" x="1.9233363340904093e-2" y="0.1160406715269552" /><rect width="2.0000000000000004e-2" height="2.0000000000000018e-2" x="3.0124182593728406e-2" y="0.13876452923751748" /><rect width="2.0000000000000004e-2" height="2.0000000000000018e-2" x="1.6823227561810324e-2" y="0.13720929990798347" /><rect width="2.0000000000000004e-2" height="2.0000000000000018e-2" x="3.777151519017261e-3" y="0.14072999648088075" /><rect width="1.9999999999999997e-2" height="2.0000000000000018e-2" x="6.0873536757518616e-2" y="0.1801352347149655" /><rect width="1.999999999999999e-2" height="2.0000000000000018e-2" x="8.600380685773691e-2" y="0.2125734034957512" /><rect width="2.0000000000000018e-2" height="2.0000000000000018e-2" x="0.1532174205917165" y="0.17181680150526263" /><rect width="2.0000000000000018e-2" height="2.0000000000000018e-2" x="0.16045853067920213" y="0.19859555192568917" /><rect width="2.0000000000000018e-2" height="2.0000000000000018e-2" x="0.143573536696739" y="0.20308369560669198" /><rect width="2.0000000000000018e-2" height="2.0000000000000018e-2" x="0.14944070900870532" y="0.18237825802493973" /><rect width="2.0000000000000018e-2" height="2.0000000000000018e-2" x="0.1737589086855451" y="0.21681361953526163" /><rect width="2.0000000000000018e-2" height="2.0000000000000018e-2" x="0.17566247182832306" y="0.19771233550670586" /><rect width="2.0000000000000018e-2" height="2.0000000000000018e-2" x="0.17318840387191825" y="0.18039101760543408" /><rect width="2.0000000000000018e-2" height="2.0000000000000018e-2" x="0.16116246889492525" y="0.17030702581931673" /><rect width="2.0000000000000018e-2" height="2.0000000000000018e-2" x="0.18553584539810086" y="0.2041446391579665" /><rect width="2.0000000000000018e-2" height="2.0000000000000018e-2" x="0.17002033363298996" y="0.19911761726221205" /><rect width="2.0000000000000018e-2" height="2.0000000000000018e-2" x="0.18093468086965614" y="0.1741440346159659" /><rect width="2.0000000000000018e-2" height="2.0000000000000018e-2" x="0.16574377173525245" y="0.18281705020207006" /><rect width="2.0000000000000018e-2" height="2.0000000000000018e-2" x="0.15573134942998634" y="0.17066006299366143" /><rect width="2.0000000000000018e-2" height="2.0000000000000018e-2" x="0.13951956606781912" y="0.1753688576328506" /><rect width="2.0000000000000018e-2" height="2.0000000000000018e-2" x="0.1297263587239228" y="0.16351524484669566" /><rect width="2.0000000000000004e-2" height="2.0000000000000018e-2" x="0.12404016462246605" y="0.14798807203042819" /><rect width="2.0000000000000004e-2" height="2.0000000000000018e-2" x="0.10799188010917894" y="0.14733099871257482" /><rect width="1.999999999999999e-2" height="2.0000000000000018e-2" x="9.628913887902325e-2" y="0.15656147764436357" /><rect width="1.999999999999999e-2" height="2.0000000000000018e-2" x="8.87561714380093e-2" y="0.16994232456427022" /><rect width="1.999999999999999e-2" height="2.0000000000000018e-2" x="7.360031382707512e-2" y="0.1702188557117313" /><rect width="1.999999999999999e-2" height="2.0000000000000018e-2" x="7.704207281563426e-2" y="0.19079252266359792" /><rect width="1.999999999999999e-2" height="2.0000000000000018e-2" x="6.290905268319015e-2" y="0.1881812354423043" /><rect width="1.9999999999999997e-2" height="2.0000000000000018e-2" x="6.127826893225475e-2" y="0.1727883681608951" /><rect width="1.9999999999999997e-2" height="2.0000000000000018e-2" x="4.6978935131040685e-2" y="0.17145096072385413" /><rect width="2.0000000000000004e-2" height="2.0000000000000018e-2" x="4.009207349061351e-2" y="0.18410826987094114" /><rect width="2.0000000000000004e-2" height="2.0000000000000018e-2" x="2.71756898242086e-2" y="0.18050864780115278" /><rect width="2.0000000000000004e-2" height="2.0000000000000018e-2" x="1.895215583557653e-2" y="0.19157872287587235" /><rect width="2.0000000000000004e-2" height="2.0000000000000018e-2" x="5.847388140880936e-3" y="0.19508609009943456" /><rect width="2.0000000000000004e-2" height="2.0000000000000018e-2" x="1.3810984230205445e-2" y="0.17615292495662355" /><rect width="2.0000000000000004e-2" height="2.0000000000000018e-2" x="1.9949191219594906e-3" y="0.17128929901952833" /><rect width="2.0e-2" height="2.0000000000000018e-2" x="-1.0953307080998944e-2" y="0.17203104422369242" /><rect width="2.0e-2" height="2.0000000000000018e-2" x="-1.2568844396994341e-2" y="0.15798386765518263" /><rect width="2.0000000000000004e-2" height="2.0000000000000018e-2" x="-1.583690537329651e-2" y="0.14455025749977768" /><rect width="2.0000000000000004e-2" height="2.0000000000000018e-2" x="-2.8287315646597748e-2" y="0.14262924540074196" /><rect width="2.0000000000000004e-2" height="2.0000000000000018e-2" x="-4.048175219620236e-2" y="0.14195613275818625" /><rect width="2.0000000000000004e-2" height="2.0000000000000018e-2" x="-4.4363049789577606e-2" y="0.15283732145961892" /><rect width="2.0000000000000004e-2" height="2.0000000000000018e-2" x="-5.462353552729892e-2" y="0.14733767359540134" /><rect width="1.9999999999999997e-2" height="2.0000000000000018e-2" x="-6.578662188089178e-2" y="0.14920605149465704" /><rect width="1.9999999999999997e-2" height="2.0000000000000018e-2" x="-7.549448737759155e-2" y="0.15370243820404067" /><rect width="1.9999999999999997e-2" height="2.0000000000000018e-2" x="-8.004545863599254e-2" y="0.143280705518203" /><rect width="1.999999999999999e-2" height="2.0000000000000018e-2" x="-8.863543632206432e-2" y="0.14858602006883875" /><rect width="1.999999999999999e-2" height="2.0000000000000018e-2" x="-9.836288249041612e-2" y="0.14434488933258527" /><rect width="1.999999999999999e-2" height="2.0000000000000018e-2" x="-0.10759193291248008" y="0.14797749585496595" /><rect width="1.999999999999999e-2" height="2.0000000000000018e-2" x="-0.11638919025647303" y="0.15206804539909174" /><rect width="1.999999999999999e-2" height="2.0000000000000018e-2" x="-0.1041341756096452" y="0.169879374386827" /><rect width="1.999999999999999e-2" height="2.0000000000000018e-2" x="-9.089973965350849e-2" y="0.15151415692688242" /><rect width="1.999999999999999e-2" height="2.0000000000000018e-2" x="-9.351408228389323e-2" y="0.16230309848618923" /><rect width="1.999999999999999e-2" height="2.0000000000000018e-2" x="-8.79065044580236e-2" y="0.14673712876518358" /><rect width="1.999999999999999e-2" height="2.0000000000000018e-2" x="-9.655760822602981e-2" y="0.1407087979277319" /><rect width="1.999999999999999e-2" height="2.0000000000000018e-2" x="-0.10702064785906072" y="0.14032752241499263" /><rect width="1.999999999999999e-2" height="2.0000000000000018e-2" x="-0.10848844285971125" y="0.1283544152691689" /><rect width="1.999999999999999e-2" height="2.0000000000000018e-2" x="-0.11805850575459119" y="0.13019929875916197" /><rect width="2.0000000000000004e-2" height="2.0000000000000018e-2" x="-0.12739142824141853" y="0.12634732368381912" /><rect width="2.0000000000000004e-2" height="2.0000000000000018e-2" x="-0.13707297146214747" y="0.1255741238069083" /><rect width="2.0000000000000018e-2" height="2.0000000000000004e-2" x="-0.1464773652082525" y="0.12381270029260412" /><rect width="2.0000000000000018e-2" height="2.0000000000000018e-2" x="-0.15097767081565616" y="0.1306104928050819" /><rect width="2.0000000000000018e-2" height="2.0000000000000018e-2" x="-0.15971046493569013" y="0.12772420288350045" /><rect width="2.0000000000000018e-2" height="2.0000000000000018e-2" x="-0.16780945787456014" y="0.13001962785269522" /><rect width="2.0000000000000018e-2" height="2.0000000000000018e-2" x="-0.17475473907055172" y="0.13393117346244032" /><rect width="2.0000000000000018e-2" height="2.0000000000000018e-2" x="-0.17898074518504786" y="0.14061098306414338" /><rect width="2.0000000000000018e-2" height="2.0000000000000018e-2" x="-0.18712908569121262" y="0.13874385147856372" /><rect width="2.0000000000000018e-2" height="2.0000000000000018e-2" x="-0.18617407909005956" y="0.14881371790741443" /><rect width="2.0000000000000018e-2" height="2.0000000000000018e-2" x="-0.19391043397561664" y="0.14664258299098426" /><rect width="2.0000000000000018e-2" height="2.0000000000000018e-2" x="-0.16529131103426414" y="0.16761582226769212" /><rect width="2.0000000000000018e-2" height="2.0000000000000018e-2" x="-0.17287909699154969" y="0.16474801314468251" /><rect width="2.0000000000000018e-2" height="2.0000000000000018e-2" x="-0.1688201568776233" y="0.17789038418775682" /><rect width="2.0000000000000018e-2" height="2.0000000000000018e-2" x="-0.1693164029510582" y="0.16908833479827134" /><rect width="2.0000000000000018e-2" height="2.0000000000000018e-2" x="-0.1777444871925271" y="0.16833469997225303" /><rect width="2.0000000000000018e-2" height="2.0000000000000018e-2" x="-0.184160225186083" y="0.16419530713327724" /><rect width="2.0000000000000018e-2" height="2.0000000000000018e-2" x="-0.18798446349527598" y="0.1719079415869012" /><rect width="2.0000000000000018e-2" height="2.0000000000000018e-2" x="-0.18147905684870486" y="0.1596114912829249" /><rect width="2.0000000000000018e-2" height="2.0000000000000018e-2" x="-0.17720485318012136" y="0.14764881720008194" /><rect width="2.0000000000000018e-2" height="2.0000000000000018e-2" x="-0.17342040085670718" y="0.13531466437481815" /><rect width="2.0000000000000018e-2" height="2.0000000000000018e-2" x="-0.18080011739830526" y="0.1309273700621566" /><rect width="2.0000000000000018e-2" height="2.0000000000000018e-2" x="-0.17693232482571158" y="0.14214499859194352" /><rect width="2.0000000000000018e-2" height="2.0000000000000018e-2" x="-0.17374300229026873" y="0.12998587900052194" /><rect width="2.0000000000000018e-2" height="2.0000000000000018e-2" x="-0.18225720738116236" y="0.12916547985171672" /><rect width="2.0000000000000018e-2" height="2.0000000000000018e-2" x="-0.18973760931523598" y="0.1314480706576499" /><rect width="2.0000000000000018e-2" height="2.0000000000000018e-2" x="-0.19613962125446766" y="0.12637485396014525" /><rect width="2.0000000000000018e-2" height="2.0000000000000004e-2" x="-0.20387594079279409" y="0.12400796987955255" /><rect width="2.0000000000000018e-2" height="2.0000000000000018e-2" x="-0.20643782724126214" y="0.13064358186340386" /><rect width="2.0000000000000018e-2" height="2.0000000000000018e-2" x="-0.21343043976299042" y="0.13279149461011397" /><rect width="2.0000000000000018e-2" height="2.0000000000000018e-2" x="-0.22072701517290033" y="0.13083256949717315" /><rect width="2.0000000000000018e-2" height="2.0000000000000004e-2" x="-0.2248663058110399" y="0.12459431491324426" /><rect width="2.0000000000000018e-2" height="2.0000000000000004e-2" x="-0.21874643790355136" y="0.11213294123975821" /><rect width="2.0000000000000018e-2" height="2.0000000000000004e-2" x="-0.22191482135229962" y="0.11752782846913513" /><rect width="2.0000000000000018e-2" height="2.0000000000000018e-2" x="-0.21655358886937898" y="0.12806170472861816" /><rect width="2.0000000000000018e-2" height="2.0000000000000018e-2" x="-0.21502967681024426" y="0.13729424134010443" /><rect width="2.0000000000000018e-2" height="2.0000000000000018e-2" x="-0.21860655279363228" y="0.13084649055089248" /><rect width="2.0000000000000018e-2" height="2.0000000000000018e-2" x="-0.22532635925313266" y="0.13312255472842882" /><rect width="2.0000000000000018e-2" height="2.0000000000000018e-2" x="-0.22866291919983756" y="0.12665997797886697" /><rect width="2.0000000000000018e-2" height="2.0000000000000004e-2" x="-0.23271971811396636" y="0.12067614800499678" /><rect width="2.0000000000000018e-2" height="2.0000000000000004e-2" x="-0.23838861563798136" y="0.11636608213247836" /><rect width="2.0000000000000018e-2" height="2.0000000000000004e-2" x="-0.2446576583363297" y="0.11314201371218409" /><rect width="2.0000000000000018e-2" height="2.0000000000000004e-2" x="-0.25084836741926975" y="0.11445840427391947" /><rect width="2.0000000000000018e-2" height="2.0000000000000004e-2" x="-0.25579980466482466" y="0.11748618284709596" /><rect width="2.0000000000000018e-2" height="2.0000000000000018e-2" x="-0.24666266773669088" y="0.1288066908111919" /><rect width="2.0000000000000018e-2" height="2.0000000000000018e-2" x="-0.24837115756549716" y="0.13544293668172286" /><rect width="2.0000000000000018e-2" height="2.0000000000000018e-2" x="-0.2468465399179573" y="0.12684417669954606" /><rect width="2.0000000000000018e-2" height="2.0000000000000018e-2" x="-0.23790172364389012" y="0.1387796462939424" /><rect width="2.0000000000000018e-2" height="2.0000000000000018e-2" x="-0.2321576360763748" y="0.1279325050330985" /><rect width="2.0000000000000018e-2" height="2.0000000000000004e-2" x="-0.23765703724128706" y="0.12387008963675829" /><rect width="2.0000000000000018e-2" height="2.0000000000000004e-2" x="-0.243962713853156" y="0.12115256186882557" /><rect width="2.0000000000000018e-2" height="2.0000000000000004e-2" x="-0.25037740131909064" y="0.11898668888407844" /><rect width="2.0000000000000018e-2" height="2.0000000000000004e-2" x="-0.25653113153473656" y="0.12043858072519466" /><rect width="2.0000000000000018e-2" height="2.0000000000000004e-2" x="-0.2613715790866237" y="0.12376319452869657" /><rect width="2.0000000000000018e-2" height="2.0000000000000004e-2" x="-0.2605354312541558" y="0.1155744343368836" /><rect width="2.0000000000000018e-2" height="2.0000000000000004e-2" x="-0.2563626967777838" y="0.10534045056670267" /><rect width="2.0000000000000018e-2" height="2.0000000000000004e-2" x="-0.2625055777291504" y="0.10595751915288117" /><rect width="2.0000000000000018e-2" height="1.999999999999999e-2" x="-0.26407202610918107" y="9.867594394079361e-2" /><rect width="2.0000000000000018e-2" height="2.0000000000000004e-2" x="-0.26167360479812074" y="0.10622193997999348" /><rect width="2.0000000000000018e-2" height="2.0000000000000004e-2" x="-0.26767461394054015" y="0.10702596440000968" /><rect width="2.0000000000000018e-2" height="2.0000000000000004e-2" x="-0.2718230866890381" y="0.11042871422501395" /><rect width="2.0000000000000018e-2" height="2.0000000000000004e-2" x="-0.2741356105935329" y="0.11547258015513774" /><rect width="2.0000000000000018e-2" height="2.0000000000000004e-2" x="-0.27496186001039935" y="0.12170429297384484" /><rect width="2.0000000000000018e-2" height="2.0000000000000018e-2" x="-0.27885982239744456" y="0.12577076243407753" /><rect width="2.0000000000000018e-2" height="2.0000000000000004e-2" x="-0.28417269868560546" y="0.12381141480768844" /><rect width="2.0000000000000018e-2" height="2.0000000000000004e-2" x="-0.28715049813985893" y="0.11919987659528632" /><rect width="2.0000000000000018e-2" height="2.0000000000000004e-2" x="-0.2927617664644344" y="0.11954753528505387" /><rect width="2.0000000000000018e-2" height="2.0000000000000004e-2" x="-0.2924353904042831" y="0.11274786227585833" /><rect width="2.0000000000000018e-2" height="2.0000000000000004e-2" x="-0.29783220253472104" y="0.11327909609213678" /><rect width="2.0000000000000018e-2" height="2.0000000000000004e-2" x="-0.2915445879682821" y="0.12232571775266766" /><rect width="2.0000000000000018e-2" height="2.0000000000000004e-2" x="-0.2907420191219345" y="0.11537597753862879" /><rect width="2.0000000000000018e-2" height="2.0000000000000004e-2" x="-0.29623522125833934" y="0.11446017305866742" /><rect width="2.0000000000000018e-2" height="1.999999999999999e-2" x="-0.28814704528119944" y="0.10402490835635127" /><rect width="2.0000000000000018e-2" height="2.0000000000000004e-2" x="-0.29311872842823666" y="0.10558010932720903" /><rect width="2.0000000000000018e-2" height="2.0000000000000004e-2" x="-0.29271987146221096" y="0.11169979102593332" /><rect width="2.0000000000000018e-2" height="2.0000000000000004e-2" x="-0.2969117626877591" y="0.1145378292198609" /><rect width="2.0000000000000018e-2" height="2.0000000000000004e-2" x="-0.2976806560793603" y="0.12023450265398673" /><rect width="2.0000000000000018e-2" height="2.0000000000000004e-2" x="-0.3016586065862279" y="0.11708224348578435" /><rect width="2.0000000000000018e-2" height="2.0000000000000004e-2" x="-0.30680438511850894" y="0.11797835096998523" /><rect width="2.0000000000000018e-2" height="2.0000000000000004e-2" x="-0.30925350794229095" y="0.11358000978548517" /><rect width="2.0000000000000018e-2" height="2.0000000000000004e-2" x="-0.31391959000926034" y="0.11507722775497671" /><rect width="2.0000000000000018e-2" height="2.0000000000000004e-2" x="-0.31888444529243504" y="0.11495127278453156" /><rect width="2.0000000000000018e-2" height="2.0000000000000018e-2" x="-0.2998866297287914" y="0.12775899453952383" /><rect width="2.0000000000000018e-2" height="2.0000000000000018e-2" x="-0.2956292297392532" y="0.1365767059499448" /><rect width="2.0000000000000018e-2" height="2.0000000000000018e-2" x="-0.3010171465446012" y="0.13783724236140799" /><rect width="2.0000000000000018e-2" height="2.0000000000000018e-2" x="-0.3057539586560928" y="0.14056925754069993" /><rect width="1.999999999999999e-2" height="2.0000000000000018e-2" x="-9.60169494912073e-2" y="0.18966493759446423" /><rect width="2.0000000000000004e-2" height="2.0000000000000018e-2" x="-5.640560591972104e-2" y="0.21994785254557397" /><rect width="2.0000000000000004e-2" height="2.0000000000000018e-2" x="-3.136049336407664e-2" y="0.19934296772812138" /><rect width="2.0000000000000004e-2" height="2.0000000000000018e-2" x="-4.140688875536779e-2" y="0.20797606989094436" /><rect width="2.0000000000000004e-2" height="2.0000000000000018e-2" x="1.2835277313015267e-2" y="0.1771214003305412" /><rect width="2.0000000000000004e-2" height="2.0000000000000018e-2" x="-3.5186041682909973e-4" y="0.17776299343632607" /><rect width="2.0000000000000004e-2" height="2.0000000000000018e-2" x="8.421231758581458e-3" y="0.19903148101441864" /><rect width="2.0e-2" height="2.0000000000000018e-2" x="-4.535520052893585e-3" y="0.19960796238447953" /><rect width="2.0000000000000004e-2" height="2.0000000000000018e-2" x="-1.638689916923463e-2" y="0.2058953431775436" /><rect width="2.0000000000000004e-2" height="2.0000000000000018e-2" x="-2.7028339377858028e-2" y="0.2138821911355398" /><rect width="1.9999999999999997e-2" height="2.0000000000000018e-2" x="6.011253544007834e-2" y="0.25917443762314507" /><rect width="1.999999999999999e-2" height="2.0000000000000018e-2" x="9.418880597419534e-2" y="0.23190462802676798" /><rect width="1.999999999999999e-2" height="2.0000000000000018e-2" x="0.10190016062760966" y="0.2569242362055172" /><rect width="1.999999999999999e-2" height="2.0000000000000018e-2" x="8.769033993843535e-2" y="0.26591541621168324" /><rect width="2.0000000000000004e-2" height="2.0000000000000018e-2" x="0.10721655658082486" y="0.24279663892175862" /><rect width="2.0000000000000004e-2" height="2.0000000000000018e-2" x="0.10810573384105739" y="0.22679102437628557" /><rect width="2.0000000000000004e-2" height="2.0000000000000018e-2" x="0.10667705505715865" y="0.21136961840171636" /><rect width="1.999999999999999e-2" height="2.0000000000000018e-2" x="9.389373310079298e-2" y="0.2204637870645274" /><rect width="1.999999999999999e-2" height="2.0000000000000018e-2" x="8.328908508775769e-2" y="0.21222290325941007" /><rect width="1.999999999999999e-2" height="2.0000000000000018e-2" x="7.348212758682572e-2" y="0.20311912296110501" /><rect width="2.0000000000000004e-2" height="2.0000000000000018e-2" x="0.10521602543602628" y="0.1727849828820725" /><rect width="1.999999999999999e-2" height="2.0000000000000018e-2" x="9.055435384718404e-2" y="0.17673562701491774" /><rect width="1.999999999999999e-2" height="2.0000000000000018e-2" x="8.466112518374959e-2" y="0.19037390830907552" /><rect width="2.0000000000000004e-2" height="2.0000000000000018e-2" x="0.10844527878603173" y="0.21927571295307624" /><rect width="1.999999999999999e-2" height="2.0000000000000018e-2" x="9.280092525102736e-2" y="0.2212673856611006" /><rect width="1.999999999999999e-2" height="2.0000000000000018e-2" x="8.177144851839314e-2" y="0.23207266249470065" /><rect width="1.999999999999999e-2" height="2.0000000000000018e-2" x="8.136301435495098e-2" y="0.21656513738949545" /><rect width="1.999999999999999e-2" height="2.0000000000000018e-2" x="6.735202976867295e-2" y="0.2132324158652667" /><rect width="1.999999999999999e-2" height="2.0000000000000018e-2" x="7.94443466845547e-2" y="0.23738653854207376" /><rect width="1.999999999999999e-2" height="2.0000000000000018e-2" x="9.307747091368947e-2" y="0.2635106738611709" /><rect width="1.999999999999999e-2" height="2.0000000000000018e-2" x="8.071237184717596e-2" y="0.25852330434284065" /><rect width="1.999999999999999e-2" height="2.0000000000000018e-2" x="6.785271007655848e-2" y="0.2674720267275533" /><rect width="1.999999999999999e-2" height="2.0000000000000018e-2" x="8.533666603713998e-2" y="0.24457794060573645" /><rect width="1.999999999999999e-2" height="2.0000000000000018e-2" x="7.247965504351285e-2" y="0.23946920654539833" /><rect width="2.0000000000000004e-2" height="2.0000000000000018e-2" x="0.11454743335688723" y="0.20632293654027173" /><rect width="1.999999999999999e-2" height="2.0000000000000018e-2" x="9.920958260943004e-2" y="0.20945706837362654" /><rect width="1.999999999999999e-2" height="2.0000000000000018e-2" x="9.050882285315166e-2" y="0.19765966226334958" /><rect width="1.999999999999999e-2" height="2.0000000000000018e-2" x="8.650264001596332e-2" y="0.18202191439724225" /><rect width="2.0000000000000018e-2" height="2.0000000000000018e-2" x="0.17797663012049592" y="0.22972289944389107" /><rect width="2.0000000000000018e-2" height="2.0000000000000018e-2" x="0.16059863889958748" y="0.23166405449629995" /><rect width="2.0000000000000018e-2" height="2.0000000000000018e-2" x="0.1889660988953098" y="0.26543097243735003" /><rect width="2.0000000000000018e-2" height="2.0000000000000018e-2" x="0.17250304717551235" y="0.2622736720073828" /><rect width="2.0000000000000018e-2" height="2.0000000000000018e-2" x="0.15541217137953312" y="0.2622022620159922" /><rect width="2.0000000000000018e-2" height="2.0000000000000018e-2" x="0.14322596040280045" y="0.2538219878540321" /><rect width="2.0000000000000018e-2" height="2.0000000000000018e-2" x="0.12681727678399135" y="0.2536102707644956" /><rect width="2.0000000000000018e-2" height="2.0000000000000018e-2" x="0.14076418061607598" y="0.2809022464788735" /><rect width="2.0000000000000018e-2" height="2.0000000000000018e-2" x="0.1564425069090999" y="0.3103978049360382" /><rect width="2.0000000000000018e-2" height="2.0000000000000018e-2" x="0.1405322762033644" y="0.3092023156479684" /><rect width="2.0000000000000018e-2" height="2.0000000000000018e-2" x="0.13856101029102674" y="0.3305112133532557" /><rect width="2.0000000000000018e-2" height="2.0000000000000018e-2" x="0.1361286076865711" y="0.3521543041440518" /><rect width="2.0000000000000018e-2" height="2.0000000000000018e-2" x="0.14512275615961223" y="0.38064745605910305" /><rect width="2.0000000000000018e-2" height="2.0000000000000018e-2" x="0.17367306703392849" y="0.41848309005787865" /><rect width="2.0000000000000018e-2" height="2.0000000000000018e-2" x="0.38328047879206084" y="0.34656763379521494" /><rect width="2.0000000000000018e-2" height="2.0000000000000018e-2" x="0.37040423245896903" y="0.332846225333001" /><rect width="2.0000000000000018e-2" height="2.0000000000000018e-2" x="0.34829297099895773" y="0.3333396215466017" /><rect width="2.0000000000000018e-2" height="2.0000000000000018e-2" x="0.33547326446058234" y="0.31985427340016764" /><rect width="2.0000000000000018e-2" height="2.0000000000000018e-2" x="0.31494008888236347" y="0.3168625790903631" /><rect width="2.0000000000000018e-2" height="2.0000000000000018e-2" x="0.3322921121378457" y="0.3518382831069696" /><rect width="2.0000000000000018e-2" height="2.0000000000000018e-2" x="0.40441053520541026" y="0.3017242907439526" /><rect width="2.0000000000000018e-2" height="2.0000000000000018e-2" x="0.38587087865458225" y="0.290680323733017" /><rect width="2.0000000000000018e-2" height="2.0000000000000018e-2" x="0.3707636434307373" y="0.27591405960514354" /><rect width="2.0000000000000018e-2" height="2.0000000000000018e-2" x="0.3498559699362813" y="0.2693028094542138" /><rect width="2.0000000000000018e-2" height="2.0000000000000018e-2" x="0.3296374298933542" y="0.26215602379028935" /><rect width="2.0000000000000018e-2" height="2.0000000000000018e-2" x="0.30838035206440906" y="0.26178342874092253" /><rect width="2.0000000000000018e-2" height="2.0000000000000018e-2" x="0.28976151336103584" y="0.2687931075632518" /><rect width="2.0000000000000018e-2" height="2.0000000000000018e-2" x="0.27848123515642964" y="0.25279061115236434" /><rect width="2.0000000000000018e-2" height="2.0000000000000018e-2" x="0.25879351088601876" y="0.2491069583389361" /><rect width="2.0000000000000018e-2" height="2.0000000000000018e-2" x="0.24335861634794498" y="0.2377699586850303" /><rect width="2.0000000000000018e-2" height="2.0000000000000018e-2" x="0.23645452637329833" y="0.21858301417066783" /><rect width="2.0000000000000018e-2" height="2.0000000000000018e-2" x="0.23727921094911608" y="0.2389588228597947" /><rect width="2.0000000000000018e-2" height="2.0000000000000018e-2" x="0.21856365233639685" y="0.23544299156594556" /><rect width="2.0000000000000018e-2" height="2.0000000000000018e-2" x="0.2001551810118759" y="0.23315096173027677" /><rect width="2.0000000000000018e-2" height="2.0000000000000018e-2" x="0.18727826080140308" y="0.2206981121888325" /><rect width="2.0000000000000018e-2" height="2.0000000000000018e-2" x="0.17664530757112495" y="0.23186668516547226" /><rect width="2.0000000000000018e-2" height="2.0000000000000018e-2" x="0.15965722846321295" y="0.23368543698354088" /><rect width="2.0000000000000018e-2" height="2.0000000000000018e-2" x="0.1625255937002843" y="0.21119374250826112" /><rect width="2.0000000000000018e-2" height="2.0000000000000018e-2" x="0.15025566759537823" y="0.1988104621168158" /><rect width="2.0000000000000018e-2" height="2.0000000000000018e-2" x="0.13359149088256228" y="0.1975736877635107" /><rect width="2.0000000000000004e-2" height="2.0000000000000018e-2" x="0.11978069523309111" y="0.18792846010997416" /><rect width="1.999999999999999e-2" height="2.0000000000000018e-2" x="0.10460127515718255" y="0.18133776196162876" /><rect width="1.999999999999999e-2" height="2.0000000000000018e-2" x="9.082547109062535e-2" y="0.1847711085290839" /></g><g /></svg>