<svg viewBox="-1.3559678118201535 -0.68275 2.3634678118201533 1.5045159178324474" xmlns="http://www.w3.org/2000/svg" xmlns:xlink="http://www.w3.org/1999/xlink" version="1.1" width="600.0" height="400.0"><g stroke-width="0.0" stroke="none" fill="#000000" transform="translate(-0.17423390591007692, -0.57175)" fill-opacity="1.0" font-size="0.12" text-anchor="middle"><text transform="rotate(0.0, 0.0, -0.0)" x="0.0" y="-0.0">moving std dev return</text></g><g stroke-width="0.0" stroke="#000000" fill="#666666" fill-opacity="3.0e-2" stroke-opacity="0.0"><rect width="1.9999999999999998" height="1.0" x="-1.0" y="-0.5" /></g><g stroke-width="5.0e-3" stroke="#A8E5EE" fill="none" stroke-opacity="0.3"><polyline points="-1.005,0.5 1.0049999999999997,0.5" /></g><g stroke-width="5.0e-3" stroke="#A8E5EE" fill="none" stroke-opacity="0.3"><polyline points="-1.005,0.25 1.0049999999999997,0.25" /></g><g stroke-width="5.0e-3" stroke="#A8E5EE" fill="none" stroke-opacity="0.3"><polyline points="-1.005,-0.0 1.0049999999999997,-0.0" /></g><g stroke-width="5.0e-3" stroke="#A8E5EE" fill="none" stroke-opacity="0.3"><polyline points="-1.005,-0.25 1.0049999999999997,-0.25" /></g><g stroke-width="5.0e-3" stroke="#A8E5EE" fill="none" stroke-opacity="0.3"><polyline points="-1.005,-0.5 1.0049999999999997,-0.5" /></g><g stroke-width="0.0" stroke="none" fill="#666666" fill-opacity="1.0" font-size="5.0e-2" text-anchor="end"><text x="-1.2309678118201535" y="0.5145">0.000</text></g><g stroke-width="0.0" stroke="none" fill="#666666" fill-opacity="1.0" font-size="5.0e-2" text-anchor="end"><text x="-1.2309678118201535" y="0.2645">0.005</text></g><g stroke-width="0.0" stroke="none" fill="#666666" fill-opacity="1.0" font-size="5.0e-2" text-anchor="end"><text x="-1.2309678118201535" y="1.4499999999999999e-2">0.010</text></g><g stroke-width="0.0" stroke="none" fill="#666666" fill-opacity="1.0" font-size="5.0e-2" text-anchor="end"><text x="-1.2309678118201535" y="-0.2355">0.015</text></g><g stroke-width="0.0" stroke="none" fill="#666666" fill-opacity="1.0" font-size="5.0e-2" text-anchor="end"><text x="-1.2309678118201535" y="-0.4855">0.020</text></g><g stroke-width="0.0" stroke="#2C429D" fill="#5F0391" fill-opacity="1.0" stroke-opacity="0.4"><line stroke-width="5.0e-3" transform="rotate(-90.0, -1.2008928118201536, 0.5)" x1="-1.2008928118201536" y1="0.515" x2="-1.2008928118201536" y2="0.485" /><line stroke-width="5.0e-3" transform="rotate(-90.0, -1.2008928118201536, 0.25)" x1="-1.2008928118201536" y1="0.265" x2="-1.2008928118201536" y2="0.235" /><line stroke-width="5.0e-3" transform="rotate(-90.0, -1.2008928118201536, -0.0)" x1="-1.2008928118201536" y1="1.5e-2" x2="-1.2008928118201536" y2="-1.5e-2" /><line stroke-width="5.0e-3" transform="rotate(-90.0, -1.2008928118201536, -0.25)" x1="-1.2008928118201536" y1="-0.235" x2="-1.2008928118201536" y2="-0.265" /><line stroke-width="5.0e-3" transform="rotate(-90.0, -1.2008928118201536, -0.5)" x1="-1.2008928118201536" y1="-0.485" x2="-1.2008928118201536" y2="-0.515" /></g><g stroke-width="0.0" stroke="#666666" fill="#5F0391" fill-opacity="0.5" stroke-opacity="0.0"><rect width="4.999999999999893e-3" height="1.0" x="-1.1908928118201536" y="-0.5" /></g><g stroke-width="5.0e-3" stroke="#A8E5EE" fill="none" stroke-opacity="0.3"><polyline points="-1.0,0.505 -1.0,-0.505" /></g><g stroke-width="5.0e-3" stroke="#A8E5EE" fill="none" stroke-opacity="0.3"><polyline points="-0.8637274549098197,0.505 -0.8637274549098197,-0.505" /></g><g stroke-width="5.0e-3" stroke="#A8E5EE" fill="none" stroke-opacity="0.3"><polyline points="-0.6112224448897796,0.505 -0.6112224448897796,-0.505" /></g><g stroke-width="5.0e-3" stroke="#A8E5EE" fill="none" stroke-opacity="0.3"><polyline points="-0.3587174348697396,0.505 -0.3587174348697396,-0.505" /></g><g stroke-width="5.0e-3" stroke="#A8E5EE" fill="none" stroke-opacity="0.3"><polyline points="-0.1062124248496995,0.505 -0.1062124248496995,-0.505" /></g><g stroke-width="5.0e-3" stroke="#A8E5EE" fill="none" stroke-opacity="0.3"><polyline points="0.13827655310621223,0.505 0.13827655310621223,-0.505" /></g><g stroke-width="5.0e-3" stroke="#A8E5EE" fill="none" stroke-opacity="0.3"><polyline points="0.3947895791583165,0.505 0.3947895791583165,-0.505" /></g><g stroke-width="5.0e-3" stroke="#A8E5EE" fill="none" stroke-opacity="0.3"><polyline points="0.6472945891783566,0.505 0.6472945891783566,-0.505" /></g><g stroke-width="5.0e-3" stroke="#A8E5EE" fill="none" stroke-opacity="0.3"><polyline points="0.8997995991983965,0.505 0.8997995991983965,-0.505" /></g><g stroke-width="5.0e-3" stroke="#A8E5EE" fill="none" stroke-opacity="0.3"><polyline points="0.9999999999999998,0.505 0.9999999999999998,-0.505" /></g><g stroke-width="0.0" stroke="none" fill="#666666" fill-opacity="1.0" font-size="5.0e-2" text-anchor="end"><text transform="rotate(-45.0, -1.0, 0.60875)" x="-1.0" y="0.60875">10 Feb 2017</text></g><g stroke-width="0.0" stroke="none" fill="#666666" fill-opacity="1.0" font-size="5.0e-2" text-anchor="end"><text transform="rotate(-45.0, -0.8637274549098197, 0.60875)" x="-0.8637274549098197" y="0.60875">31 Mar 2017</text></g><g stroke-width="0.0" stroke="none" fill="#666666" fill-opacity="1.0" font-size="5.0e-2" text-anchor="end"><text transform="rotate(-45.0, -0.6112224448897796, 0.60875)" x="-0.6112224448897796" y="0.60875">30 Jun 2017</text></g><g stroke-width="0.0" stroke="none" fill="#666666" fill-opacity="1.0" font-size="5.0e-2" text-anchor="end"><text transform="rotate(-45.0, -0.3587174348697396, 0.60875)" x="-0.3587174348697396" y="0.60875">30 Sep 2017</text></g><g stroke-width="0.0" stroke="none" fill="#666666" fill-opacity="1.0" font-size="5.0e-2" text-anchor="end"><text transform="rotate(-45.0, -0.1062124248496995, 0.60875)" x="-0.1062124248496995" y="0.60875">31 Dec 2017</text></g><g stroke-width="0.0" stroke="none" fill="#666666" fill-opacity="1.0" font-size="5.0e-2" text-anchor="end"><text transform="rotate(-45.0, 0.13827655310621223, 0.60875)" x="0.13827655310621223" y="0.60875">31 Mar 2018</text></g><g stroke-width="0.0" stroke="none" fill="#666666" fill-opacity="1.0" font-size="5.0e-2" text-anchor="end"><text transform="rotate(-45.0, 0.3947895791583165, 0.60875)" x="0.3947895791583165" y="0.60875">30 Jun 2018</text></g><g stroke-width="0.0" stroke="none" fill="#666666" fill-opacity="1.0" font-size="5.0e-2" text-anchor="end"><text transform="rotate(-45.0, 0.6472945891783566, 0.60875)" x="0.6472945891783566" y="0.60875">30 Sep 2018</text></g><g stroke-width="0.0" stroke="none" fill="#666666" fill-opacity="1.0" font-size="5.0e-2" text-anchor="end"><text transform="rotate(-45.0, 0.8997995991983965, 0.60875)" x="0.8997995991983965" y="0.60875">31 Dec 2018</text></g><g stroke-width="0.0" stroke="none" fill="#666666" fill-opacity="1.0" font-size="5.0e-2" text-anchor="end"><text transform="rotate(-45.0, 0.9999999999999998, 0.60875)" x="0.9999999999999998" y="0.60875">06 Feb 2019</text></g><g stroke-width="0.0" stroke="#2C429D" fill="#5F0391" fill-opacity="1.0" stroke-opacity="0.4"><line stroke-width="5.0e-3" x1="-1.0" y1="0.5425" x2="-1.0" y2="0.5125" /><line stroke-width="5.0e-3" x1="-0.8637274549098197" y1="0.5425" x2="-0.8637274549098197" y2="0.5125" /><line stroke-width="5.0e-3" x1="-0.6112224448897796" y1="0.5425" x2="-0.6112224448897796" y2="0.5125" /><line stroke-width="5.0e-3" x1="-0.3587174348697396" y1="0.5425" x2="-0.3587174348697396" y2="0.5125" /><line stroke-width="5.0e-3" x1="-0.1062124248496995" y1="0.5425" x2="-0.1062124248496995" y2="0.5125" /><line stroke-width="5.0e-3" x1="0.13827655310621223" y1="0.5425" x2="0.13827655310621223" y2="0.5125" /><line stroke-width="5.0e-3" x1="0.3947895791583165" y1="0.5425" x2="0.3947895791583165" y2="0.5125" /><line stroke-width="5.0e-3" x1="0.6472945891783566" y1="0.5425" x2="0.6472945891783566" y2="0.5125" /><line stroke-width="5.0e-3" x1="0.8997995991983965" y1="0.5425" x2="0.8997995991983965" y2="0.5125" /><line stroke-width="5.0e-3" x1="0.9999999999999998" y1="0.5425" x2="0.9999999999999998" y2="0.5125" /></g><g stroke-width="0.0" stroke="#666666" fill="#5F0391" fill-opacity="0.5" stroke-opacity="0.0"><rect width="1.9999999999999998" height="5.0000000000000044e-3" x="-1.0" y="0.5125" /></g><g stroke-width="5.0e-3" stroke="#C58C4B" fill="none" stroke-opacity="0.5"><polyline points="-1.0,0.5 0.9999999999999998,0.5" /></g><g stroke-width="5.0e-3" stroke="#3C7F2B" fill="none" stroke-opacity="0.5"><polyline points="-1.0,0.29626821917483037 -0.9959919839679359,0.2962749570984168 -0.9919839679358717,0.2992074602616722 -0.9879759519038076,0.30044166160627905 -0.9839679358717435,0.3036803115349825 -0.9799599198396793,0.3086361865488251 -0.9759519038076152,0.3069703838141393 -0.9719438877755511,0.30943670512672994 -0.9679358717434869,0.3138482189022286 -0.9639278557114228,0.3185616667515081 -0.9599198396793587,0.323077703372618 -0.9559118236472945,0.32197946705835484 -0.9519038076152304,0.2806896216250661 -0.9478957915831663,0.27010251913346284 -0.9438877755511023,0.2756608440777617 -0.9398797595190381,0.27534129475627167 -0.935871743486974,0.2764500835599486 -0.9318637274549099,0.27917394796554945 -0.9278557114228457,0.2847648860684653 -0.9238476953907816,0.288559353488406 -0.9198396793587175,0.2938112765894235 -0.9158316633266533,0.29360121567198494 -0.9118236472945892,0.28234638545084756 -0.9078156312625251,0.28578931981452044 -0.9038076152304609,0.28974544270282787 -0.8997995991983968,0.29271481092707263 -0.8957915831663327,0.2520543613941974 -0.8917835671342685,0.25749883744469754 -0.8877755511022044,0.2632791548585278 -0.8837675350701403,0.26905481401773923 -0.8797595190380761,0.2746113913692502 -0.875751503006012,0.266554355473652 -0.8717434869739479,0.2723208564124123 -0.8677354709418837,0.27634864387261804 -0.8637274549098196,0.279942078547755 -0.8597194388777555,0.28439776330886224 -0.8557114228456915,0.28983273717025926 -0.8517034068136273,0.29194424915021033 -0.8476953907815632,0.2962518424905777 -0.8436873747494991,0.30109241631411443 -0.8396793587174349,0.30604152401044005 -0.8356713426853708,0.31013528826459275 -0.8316633266533067,0.31020714738175426 -0.8276553106212425,0.30094922761044607 -0.8236472945891784,0.2825711276349627 -0.8196392785571143,0.2856900287470933 -0.8156312625250501,0.2903985051314581 -0.811623246492986,0.2789977495582501 -0.8076152304609219,0.2817548063475338 -0.8036072144288577,0.25709102752577556 -0.7995991983967936,0.25573308259245764 -0.7955911823647295,0.261484711918022 -0.7915831663326653,0.26751232872160513 -0.7875751503006012,0.2715369342434538 -0.7835671342685371,0.27699462181084467 -0.779559118236473,0.282570153093443 -0.7755511022044088,0.28698464266615603 -0.7715430861723447,0.29237816147625917 -0.7675350701402806,0.29411941743620457 -0.7635270541082164,0.2991704180964429 -0.7595190380761523,0.30331145283301475 -0.7555110220440882,0.30822104715693466 -0.751503006012024,0.3105300597249403 -0.7474949899799599,0.3140285111131432 -0.7434869739478958,0.31269177790158953 -0.7394789579158316,0.31685400012747605 -0.7354709418837675,0.22721361566327591 -0.7314629258517034,0.2304945237822279 -0.7274549098196392,0.2267513540714411 -0.7234468937875751,0.22823497979587903 -0.719438877755511,0.2346747935516863 -0.7154308617234469,0.2404912054408312 -0.7114228456913828,0.2436410273835531 -0.7074148296593187,0.25007682699003464 -0.7034068136272545,0.2554566965054116 -0.6993987975951904,0.26133057507248414 -0.6953907815631263,0.2554270865483613 -0.6913827655310621,0.2597562628520764 -0.687374749498998,0.26448358241843806 -0.6833667334669339,0.2668104756700684 -0.6793587174348698,0.27255861739208065 -0.6753507014028056,0.2782321414716107 -0.6713426853707415,0.2831152115889396 -0.6673346693386774,0.2877954839206027 -0.6633266533066133,0.28892516102247706 -0.6593186372745492,0.2933091183516862 -0.6553106212424851,0.2959404738164936 -0.6513026052104209,0.30107938862435185 -0.6472945891783568,0.288572798147518 -0.6432865731462927,0.27757796434377013 -0.6392785571142285,0.2828414776431894 -0.6352705410821644,0.28807341874029163 -0.6312625250501003,0.2930988479018224 -0.6272545090180361,0.29832480472442174 -0.623246492985972,0.2821394008237996 -0.6192384769539079,0.2675151509740352 -0.6152304609218437,0.25241192111962024 -0.6112224448897796,0.25814849997293843 -0.6072144288577155,0.2630843623286452 -0.6032064128256514,0.26870718002407723 -0.5991983967935872,0.25093889831301086 -0.5951903807615231,0.24692135815508098 -0.591182364729459,0.2531823273339061 -0.5871743486973948,0.25920097416765536 -0.5831663326653307,0.2527273981172774 -0.5791583166332666,0.2585200775208939 -0.5751503006012024,0.26043067052198604 -0.5711422845691383,0.26632570820653967 -0.5671342685370742,0.27223816302969234 -0.56312625250501,0.27232351021264767 -0.5591182364729459,0.27776169596161493 -0.5551102204408818,0.2829511012664785 -0.5511022044088176,0.2874387085548703 -0.5470941883767535,0.2914627005838713 -0.5430861723446894,0.2966498229586789 -0.5390781563126252,0.3008387348876391 -0.5350701402805611,0.3045734058329751 -0.531062124248497,0.3089507730851643 -0.5270541082164328,0.31265527772851853 -0.5230460921843687,0.3173906151909184 -0.5190380761523046,0.3193611438238886 -0.5150300601202404,0.32329005033836655 -0.5110220440881764,0.3273676165800422 -0.5070140280561123,0.32850159675149404 -0.5030060120240482,0.332595071600466 -0.498997995991984,0.2689473577028602 -0.4949899799599199,0.27412933184847305 -0.49098196392785576,0.2532194988439882 -0.4869739478957916,0.2593212074215014 -0.4829659318637275,0.26506016451316283 -0.47895791583166336,0.21316894124924946 -0.47494989979959923,0.2200518005255948 -0.4709418837675351,0.22649120079308915 -0.46693386773547096,0.21044835376164384 -0.46292585170340683,0.21521668148028794 -0.4589178356713427,0.22162318911811935 -0.45490981963927857,0.22787923495217094 -0.45090180360721444,0.23468210902292258 -0.4468937875751503,0.2411933762022822 -0.44288577154308617,0.2426779467270193 -0.43887775551102204,0.2420538038443838 -0.434869739478958,0.2480329041231099 -0.4308617234468939,0.23900809058667533 -0.42685370741482975,0.24352155766573258 -0.4228456913827656,0.2499675826489644 -0.4188376753507015,0.25556262368379773 -0.41482965931863736,0.23513814128335792 -0.4108216432865732,0.24021622285670258 -0.4068136272545091,0.24679295560150044 -0.40280561122244496,0.2523149654456564 -0.3987975951903808,0.2582789186664697 -0.3947895791583167,0.26428562287190116 -0.39078156312625256,0.27023182744193086 -0.38677354709418843,0.27603941027710666 -0.3827655310621243,0.2776701799344734 -0.37875751503006017,0.2832995873056944 -0.37474949899799603,0.28651047387252926 -0.3707414829659319,0.2918673005877934 -0.36673346693386777,0.2933549782815004 -0.36272545090180364,0.2984955614204991 -0.3587174348697395,0.30085147999424505 -0.35470941883767537,0.3030845613181968 -0.35070140280561124,0.30764068883257056 -0.3466933867735471,0.3124973794582122 -0.342685370741483,0.310539979108152 -0.33867735470941884,0.31357009681730763 -0.3346693386773547,0.31544169854464066 -0.3306613226452907,0.3195495295095041 -0.32665330661322656,0.3239406084961261 -0.3226452905811624,0.32570696082083767 -0.3186372745490983,0.3301170642622486 -0.31462925851703416,0.33419939910791063 -0.31062124248497003,0.33835661387803917 -0.3066132264529059,0.34242643796600886 -0.30260521042084176,0.34625343473955716 -0.29859719438877763,0.34344247787908777 -0.2945891783567135,0.3374774207901795 -0.29058116232464937,0.34139806906898507 -0.28657314629258523,0.3337808467662508 -0.2825651302605211,0.33784951349471987 -0.27855711422845697,0.322779186523909 -0.27454909819639284,0.32117079271145804 -0.2705410821643287,0.325695031164735 -0.2665330661322646,0.32991341262417495 -0.26252505010020044,0.33404924741079844 -0.2585170340681363,0.3364099017537221 -0.2545090180360722,0.3405158786825025 -0.25050100200400804,0.3440380809112968 -0.2464929859719439,0.3478788411553927 -0.24248496993987978,0.3430935692891086 -0.23847695390781565,0.34606989974860736 -0.23446893787575152,0.34991717176735704 -0.2304609218436875,0.35021119588297617 -0.22645290581162336,0.33986417700764 -0.22244488977955923,0.32139247593049847 -0.2184368737474951,0.3224084872411096 -0.21442885771543096,0.3266616386328277 -0.21042084168336683,0.31865957510947995 -0.2064128256513027,0.32246975315405707 -0.20240480961923857,0.3263370028459768 -0.19839679358717444,0.3302693314643156 -0.1943887775551103,0.30717716701079195 -0.19038076152304617,0.31131767852834324 -0.18637274549098204,0.3006106612271583 -0.1823647294589179,0.3020189310797364 -0.17835671342685377,0.30538182430097427 -0.17434869739478964,0.3029423833418924 -0.1703406813627255,0.30760990402581356 -0.16633266533066138,0.3111267558883932 -0.16232464929859725,0.3094008669817081 -0.1583166332665331,0.31293929728101444 -0.15430861723446898,0.3176535954245754 -0.15030060120240485,0.3212238165811049 -0.14629258517034072,0.3164615778761922 -0.14228456913827658,0.301056048948383 -0.13827655310621245,0.30124858824475703 -0.13426853707414832,0.29939566844574994 -0.1302605210420842,0.30309540383210015 -0.12625250501002017,0.30789135761434566 -0.12224448897795603,0.3118439233089071 -0.1182364729458919,0.31502860662011123 -0.11422845691382777,0.3196910657253227 -0.11022044088176364,0.32403990347061473 -0.1062124248496995,0.31539462112118394 -0.10220440881763537,0.30232642397338105 -9.819639278557124e-2,0.2990325635683784 -9.418837675350711e-2,0.3020437259843994 -9.018036072144298e-2,0.2980189455260994 -8.617234468937884e-2,0.3031273022715024 -8.216432865731471e-2,0.308037358219733 -7.815631262525058e-2,0.3102799513011397 -7.414829659318645e-2,0.3060002834774727 -7.014028056112231e-2,0.30371659652081695 -6.613226452905818e-2,0.2989670448435554 -6.212424849699405e-2,0.28761894283178974 -5.811623246492992e-2,0.2887955798634921 -5.4108216432865786e-2,0.2925710659564811 -5.010020040080165e-2,0.28790907427220125 -4.609218436873752e-2,0.29325755478427795 -4.208416833667339e-2,0.29586861208203996 -3.8076152304609256e-2,0.3001953450623396 -3.4068136272545124e-2,0.27908022057371823 -3.0060120240480992e-2,0.2613952165462669 -2.605210420841686e-2,0.22674479276734966 -2.204408817635284e-2,0.23341356325512463 -1.8036072144288706e-2,0.23911556079342106 -1.4028056112224574e-2,0.14429753432230785 -1.0020040080160442e-2,-7.495051706759404e-2 -6.012024048096309e-3,-9.797886057515293e-2 -2.004008016032177e-3,-8.455946698821448e-2 2.004008016031955e-3,-0.1989588204784788 6.012024048096087e-3,-0.20830400653877912 1.002004008016022e-2,-0.21176050149143089 1.4028056112224352e-2,-0.1950314352088205 1.8036072144288484e-2,-0.19536565649702153 2.2044088176352616e-2,-0.191016192525438 2.605210420841675e-2,-0.17352054630079816 3.006012024048088e-2,-0.15984299663329316 3.406813627254501e-2,-0.1458867485893245 3.8076152304609145e-2,-0.12969020265571451 4.208416833667328e-2,-0.13849996673251652 4.609218436873741e-2,-0.13405372623965073 5.010020040080154e-2,-0.13628513932322217 5.4108216432865675e-2,-0.13286527362333578 5.811623246492981e-2,-0.1335139408130156 6.212424849699394e-2,-0.12079484932079876 6.613226452905807e-2,-0.11792603002792712 7.01402805611222e-2,-0.10294205541660173 7.414829659318634e-2,-8.771875504664417e-2 7.815631262525047e-2,-7.47627331395817e-2 8.21643286573146e-2,-8.961642181679252e-2 8.617234468937873e-2,-7.531892173665944e-2 9.018036072144286e-2,-6.661231996535932e-2 9.4188376753507e-2,-5.671098248292994e-2 9.819639278557113e-2,-4.2762581788917675e-2 0.10220440881763526,-2.9233204493918086e-2 0.1062124248496994,-4.012402951688265e-2 0.11022044088176353,-2.682308676785783e-2 0.11422845691382766,-1.3777022706287667e-2 0.11823647294589179,-7.087340122948838e-2 0.12224448897795592,-9.600367679318467e-2 0.12625250501002006,-0.16321726823952354 0.13026052104208397,-0.17045838760771748 0.1342685370741481,-0.15357340559113364 0.13827655310621223,-0.15944057962987535 0.14228456913827636,-0.18375878438444937 0.1462925851703405,-0.18566235023944166 0.15030060120240463,-0.18318828696280975 0.15430861723446876,-0.17116235943285896 0.1583166332665329,-0.19553573938030444 0.16232464929859702,-0.18002023508465215 0.16633266533066116,-0.19093458352149106 0.1703406813627253,-0.175743682155456 0.17434869739478942,-0.16573126524623505 0.17835671342685355,-0.14951948866723452 0.18236472945891768,-0.1397262861282057 0.18637274549098182,-0.1340400961161139 0.19038076152304595,-0.11799181707243722 0.19438877755511008,-0.10628908055832509 0.1983967935871742,-9.87561172417235e-2 0.20240480961923835,-8.360026402023424e-2 0.20641282565130248,-8.704202588245158e-2 0.2104208416833666,-7.29090093697008e-2 0.21442885771543074,-7.127822739733936e-2 0.21843687374749488,-5.697889693949609e-2 0.222444889779559,-5.0092038150007956e-2 0.22645290581162314,-3.717565720252658e-2 0.23046092184368727,-2.8952125823827113e-2 0.2344689378757514,-1.5847360723282966e-2 0.23847695390781554,-2.3810957062733618e-2 0.24248496993987967,-1.1994894035312842e-2 0.2464929859719438,9.533300522768795e-4 0.25050100200400793,2.5688662725523725e-3 0.25450901803607207,5.836925993287556e-3 0.2585170340681362,1.8287334527726684e-2 0.26252505010020033,3.048176947122344e-2 0.26653306613226446,3.436306598193439e-2 0.2705410821643286,4.4623550417327296e-2 0.2745490981963927,5.5786635490755965e-2 0.27855711422845686,6.549449984484934e-2 0.282565130260521,7.004547031013136e-2 0.2865731462925851,7.863544704532355e-2 0.29058116232464926,8.836289229881372e-2 0.2945891783567134,9.759194186905618e-2 0.2985971943887775,0.10638919842535743 0.30260521042084165,9.413418365189086e-2 0.3066132264529058,8.089974786480825e-2 0.3106212424849699,8.351408994250098e-2 0.31462925851703405,7.790651196887527e-2 0.3186372745490982,8.655761512733606e-2 0.3226452905811623,9.702065413693967e-2 0.32665330661322645,9.848844877151974e-2 0.3306613226452906,0.10805851114516118 0.3346693386773545,0.11739143313778783 0.3386773547094186,0.12707297589721084 0.34268537074148275,0.13647736921674875 0.3466933867735469,0.14097767454361815 0.350701402805611,0.1497104683022767 0.35470941883767515,0.1578094609209003 0.3587174348697393,0.1647547418368493 0.3627254509018034,0.1689807477287636 0.36673346693386755,0.177129087973375 0.3707414829659317,0.17617408124527678 0.3747494989979958,0.18391043591106276 0.37875751503005994,0.155291313189945 0.3827655310621241,0.16287909895727298 0.3867735470941882,0.15882015872055222 0.39078156312625234,0.15931640475679637 0.3947895791583165,0.16774448881596166 0.3987975951903806,0.17416022667716824 0.40280561122244474,0.17798446483802255 0.40681362725450887,0.1714790582417367 0.410821643286573,0.16720485456991074 0.41482965931863713,0.16342040221812576 0.41883767535070127,0.1708001186273458 0.4228456913827654,0.16693232602309666 0.42685370741482953,0.16374300345416648 0.43086172344689366,0.17225720842421532 0.4348697394789578,0.1797376102539081 0.4388777555110219,0.1861396221012112 0.44288577154308606,0.1938759415455258 0.4468937875751502,0.19643782794232856 0.4509018036072143,0.20343044038634112 0.45490981963927846,0.21072701572275193 0.4589178356713426,0.21486630630957626 0.4629258517034067,0.20874643840152624 0.46693386773547085,0.21191482181490362 0.470941883767535,0.20655358933707652 0.4749498997995991,0.2050296772573636 0.47895791583166325,0.20860655320618088 0.4829659318637274,0.21532635961634583 0.4869739478957915,0.2186629195333059 0.49098196392785565,0.22271971841507865 0.4949899799599198,0.2283886159023003 0.4989979959919839,0.23465765856426807 0.503006012024048,0.24084836761552864 0.5070140280561122,0.24579980483589892 0.5110220440881763,0.23666266792649848 0.5150300601202404,0.2383711577375966 0.5190380761523046,0.23684654008928413 0.5230460921843687,0.2279017238246231 0.5270541082164328,0.22215763626681617 0.531062124248497,0.22765703741021165 0.5350701402805611,0.23396271399980106 0.539078156312625,0.24037740144464104 0.5430861723446891,0.24653113164118667 0.5470941883767533,0.2513715791776717 0.5511022044088174,0.2505354313425172 0.5551102204408815,0.24636269686745293 0.5591182364729457,0.2525055778041335 0.5631262525050098,0.2540720261757109 0.5671342685370739,0.25167360486758894 0.5711422845691381,0.2576746139977415 0.5751503006012022,0.26182308673774884 0.5791583166332663,0.2641356106365806 0.5831663326653305,0.2649618600494511 0.5871743486973946,0.268859822428688 0.5911823647294587,0.27417269870912286 0.5951903807615229,0.2771504981593338 0.599198396793587,0.2827617664763734 0.6032064128256511,0.28243539041638643 0.6072144288577153,0.28783220254043856 0.6112224448897794,0.28154458797927706 0.6152304609218435,0.2807420191338257 0.6192384769539077,0.2862352212646665 0.6232464929859718,0.27814704529391865 0.6272545090180359,0.2831187284364378 0.6312625250501,0.28271987147042404 0.6352705410821642,0.286911762692321 0.6392785571142283,0.2876806560826646 0.6432865731462925,0.291658606586916 0.6472945891783566,0.29680438511564333 0.6513026052104207,0.29925350793824324 0.6553106212424848,0.30391959000241553 0.659318637274549,0.30888444528290016 0.6633266533066131,0.2898866297291317 0.6673346693386772,0.28562922974034766 0.6713426853707414,0.2910171465428999 0.6753507014028055,0.2957539586518274 0.6793587174348696,8.601694954993638e-2 0.6833667334669338,4.640560597954019e-2 0.6873747494989979,2.136049343326224e-2 0.691382765531062,3.140688881748588e-2 0.6953907815631262,-2.283527723682177e-2 0.6993987975951903,-9.648139513365628e-3 0.7034068136272544,-1.8421231692853146e-2 0.7074148296593186,-5.464479886875706e-3 0.7114228456913827,6.386899223804698e-3 0.7154308617234468,1.7028339427112016e-2 0.719438877755511,-7.01125353851848e-2 0.7234468937875751,-0.1041888059125251 0.7274549098196392,-0.11190016057055518 0.7314629258517034,-9.769033988687592e-2 0.7354709418837675,-0.11721655652631591 0.7394789579158316,-0.11810573378764644 0.7434869739478958,-0.11667705500553249 0.7474949899799597,-0.1038937330535048 0.7515030060120238,-9.328908504340028e-2 0.7555110220440879,-8.348212754520268e-2 0.7595190380761521,-0.11521602539299969 0.7635270541082162,-0.10055435380758149 0.7675350701402803,-9.466112514682434e-2 0.7715430861723445,-0.11844527874996735 0.7755511022044086,-0.10280092521793616 0.7795591182364727,-9.177144848809848e-2 0.7835671342685369,-9.136301432559357e-2 0.787575150300601,-7.735202974154742e-2 0.7915831663326651,-8.944434665877898e-2 0.7955911823647293,-0.10307747088939823 0.7995991983967934,-9.071237182446223e-2 0.8036072144288575,-7.785271005593974e-2 0.8076152304609217,-9.533666601577995e-2 0.8116232464929858,-8.24796550236474e-2 0.8156312625250499,-0.12454743333560558 0.819639278557114,-0.10920958258987123 0.8236472945891782,-0.1005088228348151 0.8276553106212423,-9.650263999864306e-2 0.8316633266533064,-0.18797663010122523 0.8356713426853706,-0.17059863888186844 0.8396793587174347,-0.19896609887812977 0.8436873747494988,-0.18250304715958854 0.847695390781563,-0.16541217136486353 0.8517034068136271,-0.1532259603890359 0.8557114228456912,-0.13681727677131994 0.8597194388777554,-0.15076418060409924 0.8637274549098195,-0.16644250689787488 0.8677354709418836,-0.1505322761929775 0.8717434869739478,-0.14856101028158697 0.8757515030060119,-0.1461286076780678 0.879759519038076,-0.1551227561519397 0.8837675350701402,-0.18367306702690855 0.8877755511022043,-0.3932804787799552 0.8917835671342684,-0.38040423244747557 0.8957915831663326,-0.35829297098835144 0.8997995991983967,-0.3454732644505435 0.9038076152304608,-0.3249400888730669 0.907815631262525,-0.34229211212907606 0.9118236472945891,-0.41441053519581583 0.9158316633266532,-0.395870878645628 0.9198396793587174,-0.3807636434223456 0.9238476953907815,-0.359855969928508 0.9278557114228456,-0.339637429886154 0.9318637274549098,-0.31838035205776627 0.9358717434869739,-0.2997615133549034 0.939879759519038,-0.28848123515067536 0.9438877755511021,-0.26879351088070713 0.9478957915831663,-0.25335861634301127 0.9519038076152302,-0.24645452636866583 0.9559118236472943,-0.24727921094470695 0.9599198396793585,-0.2285636523323299 0.9639278557114226,-0.21015518100812725 0.9679358717434867,-0.19727826079791833 0.9719438877755509,-0.18664530756787556 0.975951903807615,-0.16965722846021902 0.9799599198396791,-0.17252559369742548 0.9839679358717432,-0.16025566759272936 0.9879759519038074,-0.14359149088012302 0.9919839679358715,-0.12978069523084235 0.9959919839679356,-0.11460127515511553 0.9999999999999998,-0.10082547108871165" /></g><g stroke-width="5.0e-3" stroke="#382A8C" fill="none" stroke-opacity="0.5"><polyline points="-1.0,0.1760494814511404 -0.9959919839679359,0.1768692093539776 -0.9919839679358717,0.1780738705353041 -0.9879759519038076,0.1789921849597771 -0.9839679358717435,0.1805086275706747 -0.9799599198396793,0.18208605979884945 -0.9759519038076152,0.18259538184163426 -0.9719438877755511,0.18405558304357483 -0.9679358717434869,0.18564358886885257 -0.9639278557114228,0.18720886229423944 -0.9599198396793587,0.18878408435377192 -0.9559118236472945,0.18989589694967857 -0.9519038076152304,0.18489674555294044 -0.9478957915831663,0.18467383549714517 -0.9438877755511023,0.1862595615823726 -0.9398797595190381,0.18717196779110024 -0.935871743486974,0.1882040824945591 -0.9318637274549099,0.18940885916374361 -0.9278557114228457,0.19097398346155853 -0.9238476953907816,0.1922675184179541 -0.9198396793587175,0.19381290238439525 -0.9158316633266533,0.1946650321852761 -0.9118236472945892,0.193816366546046 -0.9078156312625251,0.19512519891822033 -0.9038076152304609,0.19648782712035712 -0.8997995991983968,0.19770944399305596 -0.8957915831663327,0.19213322522223042 -0.8917835671342685,0.1936127839571659 -0.8877755511022044,0.19504710372794853 -0.8837675350701403,0.19650261163194943 -0.8797595190380761,0.19793058167635041 -0.875751503006012,0.1976024465343963 -0.8717434869739479,0.19911563498999724 -0.8677354709418837,0.20040563482219637 -0.8637274549098196,0.20156823762278459 -0.8597194388777555,0.2028613263272399 -0.8557114228456915,0.20435760889416554 -0.8517034068136273,0.20528928345990582 -0.8476953907815632,0.20669115175678204 -0.8436873747494991,0.2080871260251645 -0.8396793587174349,0.2095558572278695 -0.8356713426853708,0.21085077027788268 -0.8316633266533067,0.21151430352759132 -0.8276553106212425,0.2106603129589879 -0.8236472945891784,0.20924636081505033 -0.8196392785571143,0.21021631798002127 -0.8156312625250501,0.21147253555387613 -0.811623246492986,0.21075051168981201 -0.8076152304609219,0.21166614263903794 -0.8036072144288577,0.20854301197064 -0.7995991983967936,0.20871436589118025 -0.7955911823647295,0.21012758566762718 -0.7915831663326653,0.21158613893904482 -0.7875751503006012,0.21276141133625776 -0.7835671342685371,0.21414973234346985 -0.779559118236473,0.21557275025845146 -0.7755511022044088,0.216849560391554 -0.7715430861723447,0.218274161208453 -0.7675350701402806,0.21915041940534763 -0.7635270541082164,0.22054830205730458 -0.7595190380761523,0.2218341688116922 -0.7555110220440882,0.22322073205879556 -0.751503006012024,0.2242679040079606 -0.7474949899799599,0.22546399176470194 -0.7434869739478958,0.22603984748606837 -0.7394789579158316,0.22734281623458935 -0.7354709418837675,0.2127830469359242 -0.7314629258517034,0.2137586121738504 -0.7274549098196392,0.2134630639195333 -0.7234468937875751,0.21396110153843867 -0.719438877755511,0.21532588475934766 -0.7154308617234469,0.2165931104135893 -0.7114228456913828,0.21736195265241592 -0.7074148296593187,0.21877929282674302 -0.7034068136272545,0.22004806164064927 -0.6993987975951904,0.22140689993499496 -0.6953907815631263,0.22064276522405157 -0.6913827655310621,0.22163085145608458 -0.687374749498998,0.22286954696615868 -0.6833667334669339,0.22373057406454822 -0.6793587174348698,0.22507924723042078 -0.6753507014028056,0.22645528529791986 -0.6713426853707415,0.22773335944772838 -0.6673346693386774,0.22898574715477965 -0.6633266533066133,0.22964785497501788 -0.6593186372745492,0.23088373559219372 -0.6553106212424851,0.23185685208054618 -0.6513026052104209,0.23320021033506377 -0.6472945891783568,0.23176738459188712 -0.6432865731462927,0.23059140526158028 -0.6392785571142285,0.23188151063283646 -0.6352705410821644,0.2331790570236706 -0.6312625250501003,0.23447427440932445 -0.6272545090180361,0.23580540569583092 -0.623246492985972,0.23359837511022946 -0.6192384769539079,0.23174828144767978 -0.6152304609218437,0.2291817176574289 -0.6112224448897796,0.23049175633997787 -0.6072144288577155,0.23169342104449653 -0.6032064128256514,0.23300035251851808 -0.5991983967935872,0.22977478472066476 -0.5951903807615231,0.22949713394653648 -0.591182364729459,0.23084701910647398 -0.5871743486973948,0.23212498008289628 -0.5831663326653307,0.2313227804022464 -0.5791583166332666,0.23259018101263407 -0.5751503006012024,0.23314750476165141 -0.5711422845691383,0.23446857451439207 -0.5671342685370742,0.23580253058544587 -0.56312625250501,0.23605826739705177 -0.5591182364729459,0.23735476769031588 -0.5551102204408818,0.2386271050442399 -0.5511022044088176,0.23980518472882584 -0.5470941883767535,0.24085493034708533 -0.5430861723446894,0.24215103076277833 -0.5390781563126252,0.2433234487365329 -0.5350701402805611,0.24442876650255346 -0.531062124248497,0.24562831494749593 -0.5270541082164328,0.24673392361614016 -0.5230460921843687,0.24800549449145048 -0.5190380761523046,0.24889037066648778 -0.5150300601202404,0.2500643835630906 -0.5110220440881764,0.2512624909133703 -0.5070140280561123,0.25206022456925026 -0.5030060120240482,0.25326290160052856 -0.498997995991984,0.24320601446325352 -0.4949899799599199,0.24445806448815743 -0.49098196392785576,0.24129617380397428 -0.4869739478957916,0.24254724905332814 -0.4829659318637275,0.24379830521925805 -0.47895791583166336,0.23284093905170888 -0.47494989979959923,0.23396182728867015 -0.4709418837675351,0.23526423535110103 -0.46693386773547096,0.23232121691048013 -0.46292585170340683,0.23296532337647213 -0.4589178356713427,0.23402423486348983 -0.45490981963927857,0.23527883821324103 -0.45090180360721444,0.2366073424606897 -0.4468937875751503,0.2379193139173431 -0.44288577154308617,0.2383868292197831 -0.43887775551102204,0.23837327135343783 -0.434869739478958,0.2395784244988972 -0.4308617234468939,0.23779197966714782 -0.42685370741482975,0.23875772621428354 -0.4228456913827656,0.24005140472699454 -0.4188376753507015,0.2411803465796991 -0.41482965931863736,0.23735237803130232 -0.4108216432865732,0.23828694923472699 -0.4068136272545091,0.23959852865070858 -0.40280561122244496,0.24077650257259375 -0.3987975951903808,0.24199414978897288 -0.3947895791583167,0.2432488302692637 -0.39078156312625256,0.2445223833731731 -0.38677354709418843,0.24580448389376536 -0.3827655310621243,0.24644431204274642 -0.37875751503006017,0.24771622698676654 -0.37474949899799603,0.24861095353317597 -0.3707414829659319,0.24986401450528878 -0.36673346693386777,0.2504792351721225 -0.36272545090180364,0.25170859564966663 -0.3587174348697395,0.25245221809519647 -0.35470941883767537,0.25314623779625645 -0.35070140280561124,0.2542623801183077 -0.3466933867735471,0.2554753410288263 -0.342685370741483,0.25542613364823163 -0.33867735470941884,0.25649909772253265 -0.3346693386773547,0.25741271712815034 -0.3306613226452907,0.258482999146653 -0.32665330661322656,0.2596258627399751 -0.3226452905811624,0.2605480394309039 -0.3186372745490983,0.2617465801735141 -0.31462925851703416,0.2628772187224017 -0.31062124248497003,0.26406716324861024 -0.3066132264529059,0.26525066579497436 -0.30260521042084176,0.26642334417820507 -0.29859719438877763,0.26653709325509733 -0.2945891783567135,0.26654945200688057 -0.29058116232464937,0.2676701609961102 -0.28657314629258523,0.26732161810504584 -0.2825651302605211,0.2684649794737458 -0.27855711422845697,0.2666718704679465 -0.27454909819639284,0.2670424047285796 -0.2705410821643287,0.26820640449873034 -0.2665330661322646,0.26932122002719633 -0.26252505010020044,0.27046718017273086 -0.2585170340681363,0.2712949583499917 -0.2545090180360722,0.27242302970512056 -0.25050100200400804,0.273523790643446 -0.2464929859719439,0.27462728060782104 -0.24248496993987978,0.27466878693153113 -0.23847695390781565,0.27566997590623105 -0.23446893787575152,0.2767881020494176 -0.2304609218436875,0.27742870410309617 -0.22645290581162336,0.2764517752886847 -0.22244488977955923,0.27435261257696897 -0.2184368737474951,0.2749077647154744 -0.21442885771543096,0.2760099400964299 -0.21042084168336683,0.2751822266624528 -0.2064128256513027,0.27620301696470817 -0.20240480961923857,0.2772125319381491 -0.19839679358717444,0.27827152124379234 -0.1943887775551103,0.27471291763516603 -0.19038076152304617,0.27577730589295524 -0.18637274549098204,0.2738451770291135 -0.1823647294589179,0.27454473256408884 -0.17835671342685377,0.27549485230799176 -0.17434869739478964,0.27550801783460055 -0.1703406813627255,0.27659793401673693 -0.16633266533066138,0.27743896422193115 -0.16232464929859725,0.27728024625807923 -0.1583166332665331,0.27806513056704957 -0.15430861723446898,0.279145551632881 -0.15030060120240485,0.2801636850769358 -0.14629258517034072,0.2799355549515816 -0.14228456913827658,0.27726309309257935 -0.13827655310621245,0.2772324307578906 -0.13426853707414832,0.2774167592987171 -0.1302605210420842,0.27838243744274177 -0.12625250501002017,0.2794152062344438 -0.12224448897795603,0.2804309664752798 -0.1182364729458919,0.2813371261804535 -0.11422845691382777,0.28243396335792414 -0.11022044088176364,0.28346182222752014 -0.1062124248496995,0.28249819007226495 -0.10220440881763537,0.28036046880850385 -9.819639278557124e-2,0.27970899433745666 -9.418837675350711e-2,0.28025060062999047 -9.018036072144298e-2,0.27924397859690453 -8.617234468937884e-2,0.28032305826005854 -8.216432865731471e-2,0.2814183240577378 -7.815631262525058e-2,0.2822692360337996 -7.414829659318645e-2,0.2812683529972634 -7.014028056112231e-2,0.2805098503344946 -6.613226452905818e-2,0.2804184332107162 -6.212424849699405e-2,0.2775979459990723 -5.811623246492992e-2,0.2783008724172167 -5.4108216432865786e-2,0.2788009201066883 -5.010020040080165e-2,0.2772251373236978 -4.609218436873752e-2,0.27828686173985395 -4.208416833667339e-2,0.2792281783904473 -3.8076152304609256e-2,0.28031752245715796 -3.4068136272545124e-2,0.27513200485642325 -3.0060120240480992e-2,0.2727264662965151 -2.605210420841686e-2,0.2659284959445011 -2.204408817635284e-2,0.26708479106002203 -1.8036072144288706e-2,0.26809715556485125 -1.4028056112224574e-2,0.24357412210553708 -1.0020040080160442e-2,0.16809185051623615 -6.012024048096309e-3,0.15921665464625923 -2.004008016032177e-3,0.15979314243941012 2.004008016031955e-3,0.11039614952440963 6.012024048096087e-3,0.10549991404662212 1.002004008016022e-2,0.10172466882857056 1.4028056112224352e-2,0.10356944680645636 1.8036072144288484e-2,0.10037440453083124 2.2044088176352616e-2,9.831933482560068e-2 2.605210420841675e-2,0.10033116898043332 3.006012024048088e-2,0.10101407824405717 3.406813627254501e-2,0.10185309972336942 3.8076152304609145e-2,0.10384382326596425 4.208416833667328e-2,9.848693259895402e-2 4.609218436873741e-2,9.677144248386016e-2 5.010020040080154e-2,9.313277513852186e-2 5.4108216432865675e-2,9.091890806872299e-2 5.811623246492981e-2,8.708257568167921e-2 6.212424849699394e-2,8.850243275526376e-2 6.613226452905807e-2,8.72358835592873e-2 7.01402805611222e-2,8.917615031239057e-2 7.414829659318634e-2,9.120193599320014e-2 7.815631262525047e-2,9.279356801372751e-2 8.21643286573146e-2,8.648191216104156e-2 8.617234468937873e-2,8.842901403515196e-2 9.018036072144286e-2,8.895468776867466e-2 9.4188376753507e-2,8.976810542509872e-2 9.819639278557113e-2,9.176563415764816e-2 0.10220440881763526,9.37761840136237e-2 0.1062124248496994,8.904866597555344e-2 0.11022044088176353,9.107836201436526e-2 0.11422845691382766,9.296468289457854e-2 0.11823647294589179,7.493505793750266e-2 0.12224448897795592,6.388564159969645e-2 0.12625250501002006,4.602353166361434e-2 0.13026052104208397,3.981585004930954e-2 0.1342685370741481,4.188120555218683e-2 0.13827655310621223,3.915829920990127e-2 0.14228456913827636,2.76788732224425e-2 0.1462925851703405,2.5893762590729896e-2 0.15030060120240463,2.485923516152988e-2 0.15430861723446876,2.608591431019064e-2 0.1583166332665329,1.5443229030217054e-2 0.16232464929859702,1.759388669107803e-2 0.16633266533066116,1.3023459324700337e-2 0.1703406813627253,1.4614691521643353e-2 0.17434869739478942,1.5393359624507774e-2 0.17835671342685355,1.7569370271381446e-2 0.18236472945891768,1.8400557741055146e-2 0.18637274549098182,1.8080753988241383e-2 0.19038076152304595,2.0492519449388347e-2 0.19438877755511008,2.191600018214329e-2 0.1983967935871742,2.2246774722759877e-2 0.20240480961923835,2.464125326731198e-2 0.20641282565130248,2.2118421211073547e-2 0.2104208416833666,2.4437899607788083e-2 0.21442885771543074,2.4085016485780597e-2 0.21843687374749488,2.6451324182467595e-2 0.222444889779559,2.69453570434659e-2 0.22645290581162314,2.9167951972600192e-2 0.23046092184368727,3.0076815115557487e-2 0.2344689378757514,3.2284544175053054e-2 0.23847695390781554,3.0398314905464352e-2 0.24248496993987967,3.2475409027777014e-2 0.2464929859719438,3.48125780404035e-2 0.25050100200400793,3.479126412155353e-2 0.25450901803607207,3.496713648660643e-2 0.2585170340681362,3.725497047632936e-2 0.26252505010020033,3.956985084662795e-2 0.26653306613226446,4.043721907235087e-2 0.2705410821643286,4.2374573677491756e-2 0.2745490981963927,4.4625679376108285e-2 0.27855711422845686,4.6658104266771305e-2 0.282565130260521,4.759020742905529e-2 0.2865731462925851,4.9507251399457e-2 0.29058116232464926,5.1542536723204746e-2 0.2945891783567134,5.362426315270419e-2 0.2985971943887775,5.564970635207428e-2 0.30260521042084165,5.386007591680542e-2 0.3066132264529058,5.18564076582107e-2 0.3106212424849699,5.2633862265498876e-2 0.31462925851703405,5.182998995799676e-2 0.3186372745490982,5.361985362144239e-2 0.3226452905811623,5.58561349669649e-2 0.32665330661322645,5.62592217256504e-2 0.3306613226452906,5.8440313052979864e-2 0.3346693386773545,6.046386325032338e-2 0.3386773547094186,6.265990632731189e-2 0.34268537074148275,6.481239190911836e-2 0.3466933867735469,6.639008068781488e-2 0.350701402805611,6.845501904651974e-2 0.35470941883767515,7.054885989334397e-2 0.3587174348697393,7.249843010705681e-2 0.3627254509018034,7.404563608285886e-2 0.36673346693386755,7.613487202305314e-2 0.3707414829659317,7.689338313816896e-2 0.3747494989979958,7.895158274846026e-2 0.37875751503005994,7.512231825751575e-2 0.3827655310621241,7.714291788553823e-2 0.3867735470941882,7.692424891738792e-2 0.39078156312625234,7.800148879915664e-2 0.3947895791583165,8.010980974342491e-2 0.3987975951903806,8.198258001674291e-2 0.40280561122244474,8.32589340533772e-2 0.40681362725450887,8.327419686606052e-2 0.410821643286573,8.339783631285963e-2 0.41482965931863713,8.339397221848438e-2 0.41883767535070127,8.521738597777728e-2 0.4228456913827654,8.555203626234653e-2 0.42685370741482953,8.558154482335728e-2 0.43086172344689366,8.764993769236623e-2 0.4348697394789578,8.964413904194568e-2 0.4388777555110219,9.134009216055011e-2 0.44288577154308606,9.330988040926269e-2 0.4468937875751502,9.472327108394568e-2 0.4509018036072143,9.668906546940892e-2 0.45490981963927846,9.865622175668681e-2 0.4589178356713426,0.10010810211583199 0.4629258517034067,9.987105776544442e-2 0.46693386773547085,0.10145603612822801 0.470941883767535,0.10184330517443813 0.4749498997995991,0.10259891408060895 0.47895791583166325,0.10398555423538547 0.4829659318637274,0.10589475536600196 0.4869739478957915,0.10725617857280872 0.49098196392785565,0.10869605403771698 0.4949899799599198,0.11038196002152961 0.4989979959919839,0.11218005542686682 0.503006012024048,0.11409835895736309 0.5070140280561122,0.11589477395880787 0.5110220440881763,0.11588176499557878 0.5150300601202404,0.11713934728728453 0.5190380761523046,0.11793544665526251 0.5230460921843687,0.11768133112527945 0.5270541082164328,0.11780778472248177 0.531062124248497,0.11947208439158397 0.5350701402805611,0.12126655019678523 0.539078156312625,0.12309292265317512 0.5430861723446891,0.1249497447055426 0.5470941883767533,0.12665758400977595 0.5511022044088174,0.12748020689176032 0.5551102204408815,0.12770562577123368 0.5591182364729457,0.12956608008085158 0.5631262525050098,0.1305851059216397 0.5671342685370739,0.13153575577578636 0.5711422845691381,0.13337271378343662 0.5751503006012022,0.13502573555962016 0.5791583166332663,0.13644690241936253 0.5831663326653305,0.1376431210445373 0.5871743486973946,0.13919172382358824 0.5911823647294587,0.1409381249106723 0.5951903807615229,0.14239048892352074 0.599198396793587,0.1441812528376405 0.6032064128256511,0.1452018402949179 0.6072144288577153,0.14697583260243957 0.6112224448897794,0.14738424925548288 0.6152304609218435,0.14834677587769662 0.6192384769539077,0.15009560458206261 0.6232464929859718,0.1500210760583991 0.6272545090180359,0.15173496146261156 0.6312625250501,0.1528479619039253 0.6352705410821642,0.15445158056997532 0.6392785571142283,0.15563041892254403 0.6432865731462925,0.157186607875682 0.6472945891783566,0.15889133956027346 0.6513026052104207,0.1602666652065492 0.6553106212424848,0.16193083937707792 0.659318637274549,0.16362532748646974 0.6633266533066131,0.16244197084070927 0.6673346693386772,0.16277471529457538 0.6713426853707414,0.16443725454055513 0.6753507014028055,0.1659876020183475 0.6793587174348696,0.12739409834542126 0.6833667334669338,0.11495979883671725 0.6873747494989979,0.11042562688441154 0.691382765531062,0.11124407938803127 0.6953907815631262,9.895954487136949e-2 0.6993987975951903,0.10096372789864855 0.7034068136272544,9.629529536228398e-2 0.7074148296593186,9.831399976398109e-2 0.7114228456913827,9.97423121299641e-2 0.7154308617234468,0.10080161242688324 0.719438877755511,7.338122015544035e-2 0.7234468937875751,6.531053600349634e-2 0.7274549098196392,5.901237884399102e-2 0.7314629258517034,6.0131286725520816e-2 0.7354709418837675,5.518872007108794e-2 0.7394789579158316,5.401641535013846e-2 0.7434869739478958,5.309973558202691e-2 0.7474949899799597,5.4238376426616e-2 0.7515030060120238,5.5570768517943736e-2 0.7555110220440879,5.6693728653109565e-2 0.7595190380761521,4.6743685326783635e-2 0.7635270541082162,4.881028486997996e-2 0.7675350701402803,4.862244118480419e-2 0.7715430861723445,3.9993075930343236e-2 0.7755511022044086,4.224710164022266e-2 0.7795591182364727,4.3021721471718344e-2 0.7835671342685369,4.21933091614865e-2 0.787575150300601,4.434468689352877e-2 0.7915831663326651,3.9053601695427154e-2 0.7955911823647293,3.26118967263353e-2 0.7995991983967934,3.463968164095038e-2 0.8036072144288575,3.5943751363035126e-2 0.8076152304609217,3.1589813525348454e-2 0.8116232464929858,3.360732650313786e-2 0.8156312625250499,2.210344270791187e-2 0.819639278557114,2.4375682487331685e-2 0.8236472945891782,2.501879747663288e-2 0.8276553106212423,2.4338388517402387e-2 0.8316633266533064,-1.0438331706852377e-3 0.8356713426853706,1.4223943451870391e-3 0.8396793587174347,-9.569637020817034e-3 0.8436873747494988,-7.131052424351192e-3 0.847695390781563,-4.588901986627203e-3 0.8517034068136271,-2.8881715893779303e-3 0.8557114228456912,-3.6772418328379075e-4 0.8597194388777554,-6.69337191385766e-3 0.8637274549098195,-1.43331323737661e-2 0.8677354709418836,-1.1770980876336656e-2 0.8717434869739478,-1.4496746245297842e-2 0.8757515030060119,-1.7348344719787412e-2 0.879759519038076,-2.407943090876352e-2 0.8837675350701402,-3.7579355957031546e-2 0.8877755511022043,-8.965550151160095e-2 0.8917835671342684,-8.860360998290229e-2 0.8957915831663326,-8.565569803485318e-2 0.8997995991983967,-8.457249927560628e-2 0.9038076152304608,-8.173283424161748e-2 0.907815631262525,-9.129894419352336e-2 0.9118236472945891,-0.11325052342110498 0.9158316633266532,-0.11136454520168115 0.9198396793587174,-0.11043092739862481 0.9238476953907815,-0.10779861577579408 0.9278557114228456,-0.10525404408665351 0.9318637274549098,-0.10222130601288293 0.9358717434869739,-9.969347012853014e-2 0.939879759519038,-9.924100224175136e-2 0.9438877755511021,-9.63722672763605e-2 0.9478957915831663,-9.467297415851506e-2 0.9519038076152302,-9.539411638987794e-2 0.9559118236472943,-9.658555304230587e-2 0.9599198396793585,-9.371879197873434e-2 0.9639278557114226,-9.079535113276127e-2 0.9679358717434867,-8.940662114482167e-2 0.9719438877755509,-8.772402578235994e-2 0.975951903807615,-8.481200981016712e-2 0.9799599198396791,-8.705308287151514e-2 0.9839679358717432,-8.567684065377323e-2 0.9879759519038074,-8.27565275092299e-2 0.9919839679358715,-8.079334934797977e-2 0.9959919839679356,-7.833091850030605e-2 0.9999999999999998,-7.555475725096217e-2" /></g><g /><g stroke-width="4.0e-3" stroke="#3764A0" fill="#FFFFFF" fill-opacity="1.0" stroke-opacity="0.5"><rect width="0.41888109989568045" height="0.2491854488909991" x="0.3557126688701444" y="8.93088673377452e-2" /></g><g stroke-width="0.0" stroke="none" fill="#666666" fill-opacity="1.0" font-size="4.000000000000001e-2" text-anchor="start"><text x="0.3801728790830308" y="0.2903027907356738">rate = 0.99</text></g><g stroke-width="5.0e-3" stroke="#382A8C" fill="none" stroke-opacity="0.5"><polyline points="0.6981556118505546,0.2825451305343502 0.7470760322763275,0.2825451305343502" /></g><g stroke-width="0.0" stroke="none" fill="#666666" fill-opacity="1.0" font-size="4.000000000000001e-2" text-anchor="start"><text x="0.3801728790830308" y="0.22330481626969756">rate = 0.95</text></g><g stroke-width="5.0e-3" stroke="#3C7F2B" fill="none" stroke-opacity="0.5"><polyline points="0.6981556118505546,0.21554715606837402 0.7470760322763275,0.21554715606837402" /></g><g stroke-width="0.0" stroke="none" fill="#666666" fill-opacity="1.0" font-size="4.000000000000001e-2" text-anchor="start"><text x="0.3801728790830308" y="0.1563068418037214">zero</text></g><g stroke-width="5.0e-3" stroke="#C58C4B" fill="none" stroke-opacity="0.5"><polyline points="0.6981556118505546,0.14854918160239783 0.7470760322763275,0.14854918160239783" /></g><g /></svg>