<?xml version="1.0" encoding="UTF-8"?>
<!DOCTYPE svg PUBLIC "-//W3C//DTD SVG 1.1//EN"
    "http://www.w3.org/Graphics/SVG/1.1/DTD/svg11.dtd"><svg xmlns="http://www.w3.org/2000/svg" height="300.0000" stroke-opacity="1" viewBox="0 0 300 300" font-size="1" width="300.0000" xmlns:xlink="http://www.w3.org/1999/xlink" stroke="rgb(0,0,0)" version="1.1"><defs></defs><g stroke-linejoin="miter" stroke-opacity="0.0" fill-opacity="0.2" stroke="rgb(0,0,0)" stroke-width="0.0" fill="rgb(85,85,85)" stroke-linecap="butt" stroke-miterlimit="10.0"><path d="M 43.9904,212.7404 l -0.0000,-144.2308 h -2.8846 l -0.0000,144.2308 Z"/></g><g stroke-linejoin="miter" stroke-opacity="1.0" fill-opacity="0.7" font-size="5.7692307692307665px" stroke="rgb(0,0,0)" stroke-width="0.9949874371066196" fill="rgb(51,51,51)" stroke-linecap="butt" stroke-miterlimit="10.0"><text dominant-baseline="middle" transform="matrix(1.0000,0.0000,0.0000,1.0000,36.7788,68.5096)" stroke="none" text-anchor="end">1.0e2</text></g><g stroke-linejoin="miter" stroke-opacity="0.5" fill-opacity="0.0" stroke="rgb(26,102,204)" stroke-width="0.9949874371066196" fill="rgb(0,0,0)" stroke-linecap="butt" stroke-miterlimit="10.0"><path d="M 39.6635,68.5096 h 2.8846 "/></g><g stroke-linejoin="miter" stroke-opacity="1.0" fill-opacity="0.7" font-size="5.7692307692307665px" stroke="rgb(0,0,0)" stroke-width="0.9949874371066196" fill="rgb(51,51,51)" stroke-linecap="butt" stroke-miterlimit="10.0"><text dominant-baseline="middle" transform="matrix(1.0000,0.0000,0.0000,1.0000,36.7788,82.9327)" stroke="none" text-anchor="end">90</text></g><g stroke-linejoin="miter" stroke-opacity="0.5" fill-opacity="0.0" stroke="rgb(26,102,204)" stroke-width="0.9949874371066196" fill="rgb(0,0,0)" stroke-linecap="butt" stroke-miterlimit="10.0"><path d="M 39.6635,82.9327 h 2.8846 "/></g><g stroke-linejoin="miter" stroke-opacity="1.0" fill-opacity="0.7" font-size="5.7692307692307665px" stroke="rgb(0,0,0)" stroke-width="0.9949874371066196" fill="rgb(51,51,51)" stroke-linecap="butt" stroke-miterlimit="10.0"><text dominant-baseline="middle" transform="matrix(1.0000,0.0000,0.0000,1.0000,36.7788,97.3558)" stroke="none" text-anchor="end">80</text></g><g stroke-linejoin="miter" stroke-opacity="0.5" fill-opacity="0.0" stroke="rgb(26,102,204)" stroke-width="0.9949874371066196" fill="rgb(0,0,0)" stroke-linecap="butt" stroke-miterlimit="10.0"><path d="M 39.6635,97.3558 h 2.8846 "/></g><g stroke-linejoin="miter" stroke-opacity="1.0" fill-opacity="0.7" font-size="5.7692307692307665px" stroke="rgb(0,0,0)" stroke-width="0.9949874371066196" fill="rgb(51,51,51)" stroke-linecap="butt" stroke-miterlimit="10.0"><text dominant-baseline="middle" transform="matrix(1.0000,0.0000,0.0000,1.0000,36.7788,111.7788)" stroke="none" text-anchor="end">70</text></g><g stroke-linejoin="miter" stroke-opacity="0.5" fill-opacity="0.0" stroke="rgb(26,102,204)" stroke-width="0.9949874371066196" fill="rgb(0,0,0)" stroke-linecap="butt" stroke-miterlimit="10.0"><path d="M 39.6635,111.7788 h 2.8846 "/></g><g stroke-linejoin="miter" stroke-opacity="1.0" fill-opacity="0.7" font-size="5.7692307692307665px" stroke="rgb(0,0,0)" stroke-width="0.9949874371066196" fill="rgb(51,51,51)" stroke-linecap="butt" stroke-miterlimit="10.0"><text dominant-baseline="middle" transform="matrix(1.0000,0.0000,0.0000,1.0000,36.7788,126.2019)" stroke="none" text-anchor="end">60</text></g><g stroke-linejoin="miter" stroke-opacity="0.5" fill-opacity="0.0" stroke="rgb(26,102,204)" stroke-width="0.9949874371066196" fill="rgb(0,0,0)" stroke-linecap="butt" stroke-miterlimit="10.0"><path d="M 39.6635,126.2019 h 2.8846 "/></g><g stroke-linejoin="miter" stroke-opacity="1.0" fill-opacity="0.7" font-size="5.7692307692307665px" stroke="rgb(0,0,0)" stroke-width="0.9949874371066196" fill="rgb(51,51,51)" stroke-linecap="butt" stroke-miterlimit="10.0"><text dominant-baseline="middle" transform="matrix(1.0000,0.0000,0.0000,1.0000,36.7788,140.6250)" stroke="none" text-anchor="end">50</text></g><g stroke-linejoin="miter" stroke-opacity="0.5" fill-opacity="0.0" stroke="rgb(26,102,204)" stroke-width="0.9949874371066196" fill="rgb(0,0,0)" stroke-linecap="butt" stroke-miterlimit="10.0"><path d="M 39.6635,140.6250 h 2.8846 "/></g><g stroke-linejoin="miter" stroke-opacity="1.0" fill-opacity="0.7" font-size="5.7692307692307665px" stroke="rgb(0,0,0)" stroke-width="0.9949874371066196" fill="rgb(51,51,51)" stroke-linecap="butt" stroke-miterlimit="10.0"><text dominant-baseline="middle" transform="matrix(1.0000,0.0000,0.0000,1.0000,36.7788,155.0481)" stroke="none" text-anchor="end">40</text></g><g stroke-linejoin="miter" stroke-opacity="0.5" fill-opacity="0.0" stroke="rgb(26,102,204)" stroke-width="0.9949874371066196" fill="rgb(0,0,0)" stroke-linecap="butt" stroke-miterlimit="10.0"><path d="M 39.6635,155.0481 h 2.8846 "/></g><g stroke-linejoin="miter" stroke-opacity="1.0" fill-opacity="0.7" font-size="5.7692307692307665px" stroke="rgb(0,0,0)" stroke-width="0.9949874371066196" fill="rgb(51,51,51)" stroke-linecap="butt" stroke-miterlimit="10.0"><text dominant-baseline="middle" transform="matrix(1.0000,0.0000,0.0000,1.0000,36.7788,169.4712)" stroke="none" text-anchor="end">30</text></g><g stroke-linejoin="miter" stroke-opacity="0.5" fill-opacity="0.0" stroke="rgb(26,102,204)" stroke-width="0.9949874371066196" fill="rgb(0,0,0)" stroke-linecap="butt" stroke-miterlimit="10.0"><path d="M 39.6635,169.4712 h 2.8846 "/></g><g stroke-linejoin="miter" stroke-opacity="1.0" fill-opacity="0.7" font-size="5.7692307692307665px" stroke="rgb(0,0,0)" stroke-width="0.9949874371066196" fill="rgb(51,51,51)" stroke-linecap="butt" stroke-miterlimit="10.0"><text dominant-baseline="middle" transform="matrix(1.0000,0.0000,0.0000,1.0000,36.7788,183.8942)" stroke="none" text-anchor="end">20</text></g><g stroke-linejoin="miter" stroke-opacity="0.5" fill-opacity="0.0" stroke="rgb(26,102,204)" stroke-width="0.9949874371066196" fill="rgb(0,0,0)" stroke-linecap="butt" stroke-miterlimit="10.0"><path d="M 39.6635,183.8942 h 2.8846 "/></g><g stroke-linejoin="miter" stroke-opacity="1.0" fill-opacity="0.7" font-size="5.7692307692307665px" stroke="rgb(0,0,0)" stroke-width="0.9949874371066196" fill="rgb(51,51,51)" stroke-linecap="butt" stroke-miterlimit="10.0"><text dominant-baseline="middle" transform="matrix(1.0000,0.0000,0.0000,1.0000,36.7788,198.3173)" stroke="none" text-anchor="end">10</text></g><g stroke-linejoin="miter" stroke-opacity="0.5" fill-opacity="0.0" stroke="rgb(26,102,204)" stroke-width="0.9949874371066196" fill="rgb(0,0,0)" stroke-linecap="butt" stroke-miterlimit="10.0"><path d="M 39.6635,198.3173 h 2.8846 "/></g><g stroke-linejoin="miter" stroke-opacity="1.0" fill-opacity="0.7" font-size="5.7692307692307665px" stroke="rgb(0,0,0)" stroke-width="0.9949874371066196" fill="rgb(51,51,51)" stroke-linecap="butt" stroke-miterlimit="10.0"><text dominant-baseline="middle" transform="matrix(1.0000,0.0000,0.0000,1.0000,36.7788,212.7404)" stroke="none" text-anchor="end">0.0</text></g><g stroke-linejoin="miter" stroke-opacity="0.5" fill-opacity="0.0" stroke="rgb(26,102,204)" stroke-width="0.9949874371066196" fill="rgb(0,0,0)" stroke-linecap="butt" stroke-miterlimit="10.0"><path d="M 39.6635,212.7404 h 2.8846 "/></g><g stroke-linejoin="miter" stroke-opacity="0.0" fill-opacity="0.2" stroke="rgb(0,0,0)" stroke-width="0.0" fill="rgb(85,85,85)" stroke-linecap="butt" stroke-miterlimit="10.0"><path d="M 267.5481,222.8365 l -0.0000,-2.8846 h -216.3462 l -0.0000,2.8846 Z"/></g><g stroke-linejoin="miter" stroke-opacity="1.0" fill-opacity="0.7" font-size="5.7692307692307665px" stroke="rgb(0,0,0)" stroke-width="0.9949874371066196" fill="rgb(51,51,51)" stroke-linecap="butt" stroke-miterlimit="10.0"><text dominant-baseline="text-before-edge" transform="matrix(1.0000,0.0000,0.0000,1.0000,266.4717,227.1635)" stroke="none" text-anchor="middle">2.0e2</text></g><g stroke-linejoin="miter" stroke-opacity="0.5" fill-opacity="0.0" stroke="rgb(26,102,204)" stroke-width="0.9949874371066196" fill="rgb(0,0,0)" stroke-linecap="butt" stroke-miterlimit="10.0"><path d="M 266.4717,221.3942 v 2.8846 "/></g><g stroke-linejoin="miter" stroke-opacity="1.0" fill-opacity="0.7" font-size="5.7692307692307665px" stroke="rgb(0,0,0)" stroke-width="0.9949874371066196" fill="rgb(51,51,51)" stroke-linecap="butt" stroke-miterlimit="10.0"><text dominant-baseline="text-before-edge" transform="matrix(1.0000,0.0000,0.0000,1.0000,244.9447,227.1635)" stroke="none" text-anchor="middle">1.8e2</text></g><g stroke-linejoin="miter" stroke-opacity="0.5" fill-opacity="0.0" stroke="rgb(26,102,204)" stroke-width="0.9949874371066196" fill="rgb(0,0,0)" stroke-linecap="butt" stroke-miterlimit="10.0"><path d="M 244.9447,221.3942 v 2.8846 "/></g><g stroke-linejoin="miter" stroke-opacity="1.0" fill-opacity="0.7" font-size="5.7692307692307665px" stroke="rgb(0,0,0)" stroke-width="0.9949874371066196" fill="rgb(51,51,51)" stroke-linecap="butt" stroke-miterlimit="10.0"><text dominant-baseline="text-before-edge" transform="matrix(1.0000,0.0000,0.0000,1.0000,223.4178,227.1635)" stroke="none" text-anchor="middle">1.6e2</text></g><g stroke-linejoin="miter" stroke-opacity="0.5" fill-opacity="0.0" stroke="rgb(26,102,204)" stroke-width="0.9949874371066196" fill="rgb(0,0,0)" stroke-linecap="butt" stroke-miterlimit="10.0"><path d="M 223.4178,221.3942 v 2.8846 "/></g><g stroke-linejoin="miter" stroke-opacity="1.0" fill-opacity="0.7" font-size="5.7692307692307665px" stroke="rgb(0,0,0)" stroke-width="0.9949874371066196" fill="rgb(51,51,51)" stroke-linecap="butt" stroke-miterlimit="10.0"><text dominant-baseline="text-before-edge" transform="matrix(1.0000,0.0000,0.0000,1.0000,201.8908,227.1635)" stroke="none" text-anchor="middle">1.4e2</text></g><g stroke-linejoin="miter" stroke-opacity="0.5" fill-opacity="0.0" stroke="rgb(26,102,204)" stroke-width="0.9949874371066196" fill="rgb(0,0,0)" stroke-linecap="butt" stroke-miterlimit="10.0"><path d="M 201.8908,221.3942 v 2.8846 "/></g><g stroke-linejoin="miter" stroke-opacity="1.0" fill-opacity="0.7" font-size="5.7692307692307665px" stroke="rgb(0,0,0)" stroke-width="0.9949874371066196" fill="rgb(51,51,51)" stroke-linecap="butt" stroke-miterlimit="10.0"><text dominant-baseline="text-before-edge" transform="matrix(1.0000,0.0000,0.0000,1.0000,180.3638,227.1635)" stroke="none" text-anchor="middle">1.2e2</text></g><g stroke-linejoin="miter" stroke-opacity="0.5" fill-opacity="0.0" stroke="rgb(26,102,204)" stroke-width="0.9949874371066196" fill="rgb(0,0,0)" stroke-linecap="butt" stroke-miterlimit="10.0"><path d="M 180.3638,221.3942 v 2.8846 "/></g><g stroke-linejoin="miter" stroke-opacity="1.0" fill-opacity="0.7" font-size="5.7692307692307665px" stroke="rgb(0,0,0)" stroke-width="0.9949874371066196" fill="rgb(51,51,51)" stroke-linecap="butt" stroke-miterlimit="10.0"><text dominant-baseline="text-before-edge" transform="matrix(1.0000,0.0000,0.0000,1.0000,158.8368,227.1635)" stroke="none" text-anchor="middle">1.0e2</text></g><g stroke-linejoin="miter" stroke-opacity="0.5" fill-opacity="0.0" stroke="rgb(26,102,204)" stroke-width="0.9949874371066196" fill="rgb(0,0,0)" stroke-linecap="butt" stroke-miterlimit="10.0"><path d="M 158.8368,221.3942 v 2.8846 "/></g><g stroke-linejoin="miter" stroke-opacity="1.0" fill-opacity="0.7" font-size="5.7692307692307665px" stroke="rgb(0,0,0)" stroke-width="0.9949874371066196" fill="rgb(51,51,51)" stroke-linecap="butt" stroke-miterlimit="10.0"><text dominant-baseline="text-before-edge" transform="matrix(1.0000,0.0000,0.0000,1.0000,137.3098,227.1635)" stroke="none" text-anchor="middle">80</text></g><g stroke-linejoin="miter" stroke-opacity="0.5" fill-opacity="0.0" stroke="rgb(26,102,204)" stroke-width="0.9949874371066196" fill="rgb(0,0,0)" stroke-linecap="butt" stroke-miterlimit="10.0"><path d="M 137.3098,221.3942 v 2.8846 "/></g><g stroke-linejoin="miter" stroke-opacity="1.0" fill-opacity="0.7" font-size="5.7692307692307665px" stroke="rgb(0,0,0)" stroke-width="0.9949874371066196" fill="rgb(51,51,51)" stroke-linecap="butt" stroke-miterlimit="10.0"><text dominant-baseline="text-before-edge" transform="matrix(1.0000,0.0000,0.0000,1.0000,115.7829,227.1635)" stroke="none" text-anchor="middle">60</text></g><g stroke-linejoin="miter" stroke-opacity="0.5" fill-opacity="0.0" stroke="rgb(26,102,204)" stroke-width="0.9949874371066196" fill="rgb(0,0,0)" stroke-linecap="butt" stroke-miterlimit="10.0"><path d="M 115.7829,221.3942 v 2.8846 "/></g><g stroke-linejoin="miter" stroke-opacity="1.0" fill-opacity="0.7" font-size="5.7692307692307665px" stroke="rgb(0,0,0)" stroke-width="0.9949874371066196" fill="rgb(51,51,51)" stroke-linecap="butt" stroke-miterlimit="10.0"><text dominant-baseline="text-before-edge" transform="matrix(1.0000,0.0000,0.0000,1.0000,94.2559,227.1635)" stroke="none" text-anchor="middle">40</text></g><g stroke-linejoin="miter" stroke-opacity="0.5" fill-opacity="0.0" stroke="rgb(26,102,204)" stroke-width="0.9949874371066196" fill="rgb(0,0,0)" stroke-linecap="butt" stroke-miterlimit="10.0"><path d="M 94.2559,221.3942 v 2.8846 "/></g><g stroke-linejoin="miter" stroke-opacity="1.0" fill-opacity="0.7" font-size="5.7692307692307665px" stroke="rgb(0,0,0)" stroke-width="0.9949874371066196" fill="rgb(51,51,51)" stroke-linecap="butt" stroke-miterlimit="10.0"><text dominant-baseline="text-before-edge" transform="matrix(1.0000,0.0000,0.0000,1.0000,72.7289,227.1635)" stroke="none" text-anchor="middle">20</text></g><g stroke-linejoin="miter" stroke-opacity="0.5" fill-opacity="0.0" stroke="rgb(26,102,204)" stroke-width="0.9949874371066196" fill="rgb(0,0,0)" stroke-linecap="butt" stroke-miterlimit="10.0"><path d="M 72.7289,221.3942 v 2.8846 "/></g><g stroke-linejoin="miter" stroke-opacity="1.0" fill-opacity="0.7" font-size="5.7692307692307665px" stroke="rgb(0,0,0)" stroke-width="0.9949874371066196" fill="rgb(51,51,51)" stroke-linecap="butt" stroke-miterlimit="10.0"><text dominant-baseline="text-before-edge" transform="matrix(1.0000,0.0000,0.0000,1.0000,51.2019,227.1635)" stroke="none" text-anchor="middle">0.0</text></g><g stroke-linejoin="miter" stroke-opacity="0.5" fill-opacity="0.0" stroke="rgb(26,102,204)" stroke-width="0.9949874371066196" fill="rgb(0,0,0)" stroke-linecap="butt" stroke-miterlimit="10.0"><path d="M 51.2019,221.3942 v 2.8846 "/></g><g stroke-linejoin="miter" stroke-opacity="0.0" fill-opacity="2.0e-2" stroke="rgb(0,0,0)" stroke-width="0.0" fill="rgb(255,255,255)" stroke-linecap="butt" stroke-miterlimit="10.0"><path d="M 267.5481,212.7404 l -0.0000,-144.2308 h -216.3462 l -0.0000,144.2308 Z"/></g><g stroke-linejoin="miter" stroke-opacity="1.0" fill-opacity="0.0" stroke="rgb(84,84,84)" stroke-width="0.4974937185533098" fill="rgb(0,0,0)" stroke-linecap="butt" stroke-miterlimit="10.0"><path d="M 51.2019,212.7404 l 1.0763,-1.4423 l 1.0763,-1.4423 l 1.0763,-1.4423 l 1.0763,-1.4423 l 1.0763,-1.4423 l 1.0763,-1.4423 l 1.0763,-1.4423 l 1.0763,-1.4423 l 1.0763,-1.4423 l 1.0763,-1.4423 l 1.0763,-1.4423 l 1.0763,-1.4423 l 1.0763,-1.4423 l 1.0763,-1.4423 l 1.0763,-1.4423 l 1.0763,-1.4423 l 1.0763,-1.4423 l 1.0763,-1.4423 l 1.0763,-1.4423 l 1.0763,-1.4423 l 1.0763,-1.4423 l 1.0763,-1.4423 l 1.0763,-1.4423 l 1.0763,-1.4423 l 1.0763,-1.4423 l 1.0763,-1.4423 l 1.0763,-1.4423 l 1.0763,-1.4423 l 1.0763,-1.4423 l 1.0763,-1.4423 l 1.0763,-1.4423 l 1.0763,-1.4423 l 1.0763,-1.4423 l 1.0763,-1.4423 l 1.0763,-1.4423 l 1.0763,-1.4423 l 1.0763,-1.4423 l 1.0763,-1.4423 l 1.0763,-1.4423 l 1.0763,-1.4423 l 1.0763,-1.4423 l 1.0763,-1.4423 l 1.0763,-1.4423 l 1.0763,-1.4423 l 1.0763,-1.4423 l 1.0763,-1.4423 l 1.0763,-1.4423 l 1.0763,-1.4423 l 1.0763,-1.4423 l 1.0763,-1.4423 l 1.0763,-1.4423 l 1.0763,-1.4423 l 1.0763,-1.4423 l 1.0763,-1.4423 l 1.0763,-1.4423 l 1.0763,-1.4423 l 1.0763,-1.4423 l 1.0763,-1.4423 l 1.0763,-1.4423 l 1.0763,-1.4423 l 1.0763,-1.4423 l 1.0763,-1.4423 l 1.0763,-1.4423 l 1.0763,-1.4423 l 1.0763,-1.4423 l 1.0763,-1.4423 l 1.0763,-1.4423 l 1.0763,-1.4423 l 1.0763,-1.4423 l 1.0763,-1.4423 l 1.0763,-1.4423 l 1.0763,-1.4423 l 1.0763,-1.4423 l 1.0763,-1.4423 l 1.0763,-1.4423 l 1.0763,-1.4423 l 1.0763,-1.4423 l 1.0763,-1.4423 l 1.0763,-1.4423 l 1.0763,-1.4423 l 1.0763,-1.4423 l 1.0763,-1.4423 l 1.0763,-1.4423 l 1.0763,-1.4423 l 1.0763,-1.4423 l 1.0763,-1.4423 l 1.0763,-1.4423 l 1.0763,-1.4423 l 1.0763,-1.4423 l 1.0763,-1.4423 l 1.0763,-1.4423 l 1.0763,-1.4423 l 1.0763,-1.4423 l 1.0763,-1.4423 l 1.0763,-1.4423 l 1.0763,-1.4423 l 1.0763,-1.4423 l 1.0763,-1.4423 l 1.0763,-1.4423 l 1.0763,-1.4423 h 1.0763 h 1.0763 h 1.0763 h 1.0763 h 1.0763 h 1.0763 h 1.0763 h 1.0763 h 1.0763 h 1.0763 h 1.0763 h 1.0763 h 1.0763 h 1.0763 h 1.0763 h 1.0763 h 1.0763 h 1.0763 h 1.0763 h 1.0763 h 1.0763 h 1.0763 h 1.0763 h 1.0763 h 1.0763 h 1.0763 h 1.0763 h 1.0763 h 1.0763 h 1.0763 h 1.0763 h 1.0763 h 1.0763 h 1.0763 h 1.0763 h 1.0763 h 1.0763 h 1.0763 h 1.0763 h 1.0763 h 1.0763 h 1.0763 h 1.0763 h 1.0763 h 1.0763 h 1.0763 h 1.0763 h 1.0763 h 1.0763 h 1.0763 h 1.0763 h 1.0763 h 1.0763 h 1.0763 h 1.0763 h 1.0763 h 1.0763 h 1.0763 h 1.0763 h 1.0763 h 1.0763 h 1.0763 h 1.0763 h 1.0763 h 1.0763 h 1.0763 h 1.0763 h 1.0763 h 1.0763 h 1.0763 h 1.0763 h 1.0763 h 1.0763 h 1.0763 h 1.0763 h 1.0763 h 1.0763 h 1.0763 h 1.0763 h 1.0763 h 1.0763 h 1.0763 h 1.0763 h 1.0763 h 1.0763 h 1.0763 h 1.0763 h 1.0763 h 1.0763 h 1.0763 h 1.0763 h 1.0763 h 1.0763 h 1.0763 h 1.0763 h 1.0763 h 1.0763 h 1.0763 h 1.0763 h 1.0763 h 1.0763 "/></g><g stroke-linejoin="miter" stroke-opacity="1.0" fill-opacity="0.0" stroke="rgb(31,84,212)" stroke-width="1.2437342963832745" fill="rgb(0,0,0)" stroke-linecap="butt" stroke-miterlimit="10.0"><path d="M 51.2019,212.7404 l 1.0763,-0.7211 l 1.0763,-0.4565 l 1.0763,-0.4349 l 1.0763,-0.4271 l 1.0763,-0.4234 l 1.0763,-0.4213 l 1.0763,-0.4199 l 1.0763,-0.4191 l 1.0763,-0.4184 l 1.0763,-0.4179 l 1.0763,-0.4175 l 1.0763,-0.4172 l 1.0763,-0.4169 l 1.0763,-0.4167 l 1.0763,-0.4165 l 1.0763,-0.4163 l 1.0763,-0.4161 l 1.0763,-0.4159 l 1.0763,-0.4157 l 1.0763,-0.4155 l 1.0763,-0.4154 l 1.0763,-0.4152 l 1.0763,-0.4150 l 1.0763,-0.4148 l 1.0763,-0.4146 l 1.0763,-0.4144 l 1.0763,-0.4143 l 1.0763,-0.4141 l 1.0763,-0.4139 l 1.0763,-0.4137 l 1.0763,-0.4135 l 1.0763,-0.4132 l 1.0763,-0.4130 l 1.0763,-0.4128 l 1.0763,-0.4126 l 1.0763,-0.4123 l 1.0763,-0.4121 l 1.0763,-0.4119 l 1.0763,-0.4116 l 1.0763,-0.4113 l 1.0763,-0.4111 l 1.0763,-0.4108 l 1.0763,-0.4106 l 1.0763,-0.4103 l 1.0763,-0.4100 l 1.0763,-0.4097 l 1.0763,-0.4094 l 1.0763,-0.4091 l 1.0763,-0.4088 l 1.0763,-0.4085 l 1.0763,-0.4082 l 1.0763,-0.4078 l 1.0763,-0.4075 l 1.0763,-0.4072 l 1.0763,-0.4068 l 1.0763,-0.4065 l 1.0763,-0.4061 l 1.0763,-0.4058 l 1.0763,-0.4054 l 1.0763,-0.4051 l 1.0763,-0.4047 l 1.0763,-0.4043 l 1.0763,-0.4039 l 1.0763,-0.4035 l 1.0763,-0.4031 l 1.0763,-0.4027 l 1.0763,-0.4023 l 1.0763,-0.4019 l 1.0763,-0.4015 l 1.0763,-0.4011 l 1.0763,-0.4006 l 1.0763,-0.4002 l 1.0763,-0.3998 l 1.0763,-0.3993 l 1.0763,-0.3989 l 1.0763,-0.3984 l 1.0763,-0.3980 l 1.0763,-0.3975 l 1.0763,-0.3970 l 1.0763,-0.3965 l 1.0763,-0.3961 l 1.0763,-0.3956 l 1.0763,-0.3951 l 1.0763,-0.3946 l 1.0763,-0.3941 l 1.0763,-0.3936 l 1.0763,-0.3931 l 1.0763,-0.3925 l 1.0763,-0.3920 l 1.0763,-0.3915 l 1.0763,-0.3910 l 1.0763,-0.3904 l 1.0763,-0.3899 l 1.0763,-0.3893 l 1.0763,-0.3888 l 1.0763,-0.3882 l 1.0763,-0.3877 l 1.0763,-0.3871 l 1.0763,-0.3865 l 1.0763,-0.3859 l 1.0763,-0.3529 l 1.0763,-0.3222 l 1.0763,-0.2937 l 1.0763,-0.2672 l 1.0763,-0.2424 l 1.0763,-0.2194 l 1.0763,-0.1978 l 1.0763,-0.1776 l 1.0763,-0.1586 l 1.0763,-0.1409 l 1.0763,-0.1242 l 1.0763,-0.1085 l 1.0763,-0.0937 l 1.0763,-0.0798 l 1.0763,-0.0667 l 1.0763,-0.0544 l 1.0763,-0.0427 l 1.0763,-0.0317 l 1.0763,-0.0213 l 1.0763,-0.0115 l 1.0763,-0.0022 l 1.0763,0.0066 l 1.0763,0.0150 l 1.0763,0.0228 l 1.0763,0.0303 l 1.0763,0.0374 l 1.0763,0.0441 l 1.0763,0.0504 l 1.0763,0.0565 l 1.0763,0.0622 l 1.0763,0.0676 l 1.0763,0.0727 l 1.0763,0.0776 l 1.0763,0.0822 l 1.0763,0.0866 l 1.0763,0.0908 l 1.0763,0.0947 l 1.0763,0.0985 l 1.0763,0.1020 l 1.0763,0.1054 l 1.0763,0.1086 l 1.0763,0.1116 l 1.0763,0.1145 l 1.0763,0.1172 l 1.0763,0.1198 l 1.0763,0.1223 l 1.0763,0.1246 l 1.0763,0.1268 l 1.0763,0.1288 l 1.0763,0.1308 l 1.0763,0.1326 l 1.0763,0.1344 l 1.0763,0.1360 l 1.0763,0.1376 l 1.0763,0.1391 l 1.0763,0.1405 l 1.0763,0.1417 l 1.0763,0.1430 l 1.0763,0.1441 l 1.0763,0.1452 l 1.0763,0.1462 l 1.0763,0.1471 l 1.0763,0.1480 l 1.0763,0.1488 l 1.0763,0.1496 l 1.0763,0.1503 l 1.0763,0.1509 l 1.0763,0.1515 l 1.0763,0.1521 l 1.0763,0.1526 l 1.0763,0.1530 l 1.0763,0.1535 l 1.0763,0.1538 l 1.0763,0.1542 l 1.0763,0.1545 l 1.0763,0.1547 l 1.0763,0.1549 l 1.0763,0.1551 l 1.0763,0.1553 l 1.0763,0.1554 l 1.0763,0.1555 l 1.0763,0.1556 l 1.0763,0.1556 l 1.0763,0.1557 l 1.0763,0.1557 l 1.0763,0.1556 l 1.0763,0.1556 l 1.0763,0.1555 l 1.0763,0.1554 l 1.0763,0.1553 l 1.0763,0.1551 l 1.0763,0.1550 l 1.0763,0.1548 l 1.0763,0.1546 l 1.0763,0.1544 l 1.0763,0.1542 l 1.0763,0.1540 l 1.0763,0.1537 l 1.0763,0.1534 l 1.0763,0.1532 l 1.0763,0.1529 "/></g><g stroke-linejoin="miter" stroke-opacity="1.0" fill-opacity="0.0" stroke="rgb(224,84,31)" stroke-width="1.2437342963832745" fill="rgb(0,0,0)" stroke-linecap="butt" stroke-miterlimit="10.0"><path d="M 51.2019,212.7404 l 1.0763,-0.7202 l 1.0763,-0.4542 l 1.0763,-0.4306 l 1.0763,-0.4201 l 1.0763,-0.4131 l 1.0763,-0.4070 l 1.0763,-0.4011 l 1.0763,-0.3950 l 1.0763,-0.3887 l 1.0763,-0.3820 l 1.0763,-0.3749 l 1.0763,-0.3675 l 1.0763,-0.3596 l 1.0763,-0.3515 l 1.0763,-0.3430 l 1.0763,-0.3343 l 1.0763,-0.3253 l 1.0763,-0.3162 l 1.0763,-0.3068 l 1.0763,-0.2974 l 1.0763,-0.2878 l 1.0763,-0.2782 l 1.0763,-0.2685 l 1.0763,-0.2589 l 1.0763,-0.2493 l 1.0763,-0.2397 l 1.0763,-0.2302 l 1.0763,-0.2209 l 1.0763,-0.2117 l 1.0763,-0.2026 l 1.0763,-0.1937 l 1.0763,-0.1850 l 1.0763,-0.1765 l 1.0763,-0.1682 l 1.0763,-0.1602 l 1.0763,-0.1524 l 1.0763,-0.1448 l 1.0763,-0.1375 l 1.0763,-0.1304 l 1.0763,-0.1235 l 1.0763,-0.1170 l 1.0763,-0.1107 l 1.0763,-0.1046 l 1.0763,-0.0988 l 1.0763,-0.0932 l 1.0763,-0.0879 l 1.0763,-0.0828 l 1.0763,-0.0780 l 1.0763,-0.0733 l 1.0763,-0.0689 l 1.0763,-0.0648 l 1.0763,-0.0608 l 1.0763,-0.0570 l 1.0763,-0.0535 l 1.0763,-0.0501 l 1.0763,-0.0469 l 1.0763,-0.0439 l 1.0763,-0.0411 l 1.0763,-0.0384 l 1.0763,-0.0359 l 1.0763,-0.0335 l 1.0763,-0.0312 l 1.0763,-0.0291 l 1.0763,-0.0272 l 1.0763,-0.0253 l 1.0763,-0.0236 l 1.0763,-0.0219 l 1.0763,-0.0204 l 1.0763,-0.0190 l 1.0763,-0.0176 l 1.0763,-0.0164 l 1.0763,-0.0152 l 1.0763,-0.0141 l 1.0763,-0.0131 l 1.0763,-0.0122 l 1.0763,-0.0113 l 1.0763,-0.0104 l 1.0763,-0.0097 l 1.0763,-0.0090 l 1.0763,-0.0083 l 1.0763,-0.0077 l 1.0763,-0.0071 l 1.0763,-0.0066 l 1.0763,-0.0061 l 1.0763,-0.0056 l 1.0763,-0.0052 l 1.0763,-0.0048 l 1.0763,-0.0044 l 1.0763,-0.0041 l 1.0763,-0.0038 l 1.0763,-0.0035 l 1.0763,-0.0032 l 1.0763,-0.0029 l 1.0763,-0.0027 l 1.0763,-0.0025 l 1.0763,-0.0023 l 1.0763,-0.0021 l 1.0763,-0.0020 l 1.0763,-0.0018 l 1.0763,-0.0017 l 1.0763,0.1292 l 1.0763,0.2251 l 1.0763,0.2952 l 1.0763,0.3459 l 1.0763,0.3817 l 1.0763,0.4060 l 1.0763,0.4214 l 1.0763,0.4298 l 1.0763,0.4327 l 1.0763,0.4313 l 1.0763,0.4266 l 1.0763,0.4194 l 1.0763,0.4102 l 1.0763,0.3995 l 1.0763,0.3878 l 1.0763,0.3753 l 1.0763,0.3623 l 1.0763,0.3490 l 1.0763,0.3355 l 1.0763,0.3221 l 1.0763,0.3088 l 1.0763,0.2957 l 1.0763,0.2829 l 1.0763,0.2704 l 1.0763,0.2582 l 1.0763,0.2464 l 1.0763,0.2349 l 1.0763,0.2239 l 1.0763,0.2133 l 1.0763,0.2031 l 1.0763,0.1934 l 1.0763,0.1840 l 1.0763,0.1750 l 1.0763,0.1664 l 1.0763,0.1582 l 1.0763,0.1504 l 1.0763,0.1429 l 1.0763,0.1358 l 1.0763,0.1290 l 1.0763,0.1226 l 1.0763,0.1164 l 1.0763,0.1105 l 1.0763,0.1050 l 1.0763,0.0997 l 1.0763,0.0946 l 1.0763,0.0898 l 1.0763,0.0853 l 1.0763,0.0809 l 1.0763,0.0768 l 1.0763,0.0729 l 1.0763,0.0692 l 1.0763,0.0657 l 1.0763,0.0623 l 1.0763,0.0591 l 1.0763,0.0561 l 1.0763,0.0532 l 1.0763,0.0505 l 1.0763,0.0479 l 1.0763,0.0455 l 1.0763,0.0432 l 1.0763,0.0409 l 1.0763,0.0388 l 1.0763,0.0369 l 1.0763,0.0350 l 1.0763,0.0332 l 1.0763,0.0315 l 1.0763,0.0299 l 1.0763,0.0283 l 1.0763,0.0269 l 1.0763,0.0255 l 1.0763,0.0242 l 1.0763,0.0230 l 1.0763,0.0218 l 1.0763,0.0207 l 1.0763,0.0196 l 1.0763,0.0186 l 1.0763,0.0176 l 1.0763,0.0167 l 1.0763,0.0159 l 1.0763,0.0151 l 1.0763,0.0143 l 1.0763,0.0136 l 1.0763,0.0129 l 1.0763,0.0122 l 1.0763,0.0116 l 1.0763,0.0110 l 1.0763,0.0104 l 1.0763,0.0099 l 1.0763,0.0094 l 1.0763,0.0089 l 1.0763,0.0084 l 1.0763,0.0080 l 1.0763,0.0076 l 1.0763,0.0072 l 1.0763,0.0068 l 1.0763,0.0065 l 1.0763,0.0062 l 1.0763,0.0058 l 1.0763,0.0055 l 1.0763,0.0053 l 1.0763,0.0050 "/></g></svg>