<svg viewBox="-1.4059678118201535 -0.68275 2.413467811820153 1.5020159178324475" xmlns="http://www.w3.org/2000/svg" xmlns:xlink="http://www.w3.org/1999/xlink" version="1.1" width="600.0" height="400.0"><g stroke-width="0.0" stroke="none" fill="#000000" transform="translate(-0.19923390591007695, -0.57175)" fill-opacity="1.0" font-size="0.12" text-anchor="middle"><text transform="rotate(0.0, 0.0, -0.0)" x="0.0" y="-0.0">std alpha</text></g><g stroke-width="0.0" stroke="#000000" fill="#666666" fill-opacity="3.0e-2" stroke-opacity="0.0"><rect width="1.9999999999999998" height="1.0" x="-1.0" y="-0.5" /></g><g stroke-width="5.0e-3" stroke="#A8E5EE" fill="none" stroke-opacity="0.3"><polyline points="-1.005,0.5 1.0049999999999997,0.5" /></g><g stroke-width="5.0e-3" stroke="#A8E5EE" fill="none" stroke-opacity="0.3"><polyline points="-1.005,0.3 1.0049999999999997,0.3" /></g><g stroke-width="5.0e-3" stroke="#A8E5EE" fill="none" stroke-opacity="0.3"><polyline points="-1.005,9.999999999999998e-2 1.0049999999999997,9.999999999999998e-2" /></g><g stroke-width="5.0e-3" stroke="#A8E5EE" fill="none" stroke-opacity="0.3"><polyline points="-1.005,-9.999999999999998e-2 1.0049999999999997,-9.999999999999998e-2" /></g><g stroke-width="5.0e-3" stroke="#A8E5EE" fill="none" stroke-opacity="0.3"><polyline points="-1.005,-0.30000000000000004 1.0049999999999997,-0.30000000000000004" /></g><g stroke-width="5.0e-3" stroke="#A8E5EE" fill="none" stroke-opacity="0.3"><polyline points="-1.005,-0.5 1.0049999999999997,-0.5" /></g><g stroke-width="0.0" stroke="none" fill="#666666" fill-opacity="1.0" font-size="5.0e-2" text-anchor="end"><text x="-1.2309678118201535" y="0.5145">-6.0e-3</text></g><g stroke-width="0.0" stroke="none" fill="#666666" fill-opacity="1.0" font-size="5.0e-2" text-anchor="end"><text x="-1.2309678118201535" y="0.3145">-4.0e-3</text></g><g stroke-width="0.0" stroke="none" fill="#666666" fill-opacity="1.0" font-size="5.0e-2" text-anchor="end"><text x="-1.2309678118201535" y="0.11449999999999998">-2.0e-3</text></g><g stroke-width="0.0" stroke="none" fill="#666666" fill-opacity="1.0" font-size="5.0e-2" text-anchor="end"><text x="-1.2309678118201535" y="-8.549999999999998e-2">0.0e0</text></g><g stroke-width="0.0" stroke="none" fill="#666666" fill-opacity="1.0" font-size="5.0e-2" text-anchor="end"><text x="-1.2309678118201535" y="-0.28550000000000003">2.0e-3</text></g><g stroke-width="0.0" stroke="none" fill="#666666" fill-opacity="1.0" font-size="5.0e-2" text-anchor="end"><text x="-1.2309678118201535" y="-0.4855">4.0e-3</text></g><g stroke-width="0.0" stroke="#2C429D" fill="#5F0391" fill-opacity="1.0" stroke-opacity="0.4"><line stroke-width="5.0e-3" transform="rotate(-90.0, -1.2008928118201536, 0.5)" x1="-1.2008928118201536" y1="0.515" x2="-1.2008928118201536" y2="0.485" /><line stroke-width="5.0e-3" transform="rotate(-90.0, -1.2008928118201536, 0.3)" x1="-1.2008928118201536" y1="0.315" x2="-1.2008928118201536" y2="0.285" /><line stroke-width="5.0e-3" transform="rotate(-90.0, -1.2008928118201536, 9.999999999999998e-2)" x1="-1.2008928118201536" y1="0.11499999999999998" x2="-1.2008928118201536" y2="8.499999999999998e-2" /><line stroke-width="5.0e-3" transform="rotate(-90.0, -1.2008928118201536, -9.999999999999998e-2)" x1="-1.2008928118201536" y1="-8.499999999999998e-2" x2="-1.2008928118201536" y2="-0.11499999999999998" /><line stroke-width="5.0e-3" transform="rotate(-90.0, -1.2008928118201536, -0.30000000000000004)" x1="-1.2008928118201536" y1="-0.28500000000000003" x2="-1.2008928118201536" y2="-0.31500000000000006" /><line stroke-width="5.0e-3" transform="rotate(-90.0, -1.2008928118201536, -0.5)" x1="-1.2008928118201536" y1="-0.485" x2="-1.2008928118201536" y2="-0.515" /></g><g stroke-width="0.0" stroke="#666666" fill="#5F0391" fill-opacity="0.5" stroke-opacity="0.0"><rect width="4.999999999999893e-3" height="1.0" x="-1.1908928118201536" y="-0.5" /></g><g stroke-width="5.0e-3" stroke="#A8E5EE" fill="none" stroke-opacity="0.3"><polyline points="-1.0,0.505 -1.0,-0.505" /></g><g stroke-width="5.0e-3" stroke="#A8E5EE" fill="none" stroke-opacity="0.3"><polyline points="-0.8637274549098197,0.505 -0.8637274549098197,-0.505" /></g><g stroke-width="5.0e-3" stroke="#A8E5EE" fill="none" stroke-opacity="0.3"><polyline points="-0.6112224448897796,0.505 -0.6112224448897796,-0.505" /></g><g stroke-width="5.0e-3" stroke="#A8E5EE" fill="none" stroke-opacity="0.3"><polyline points="-0.3587174348697396,0.505 -0.3587174348697396,-0.505" /></g><g stroke-width="5.0e-3" stroke="#A8E5EE" fill="none" stroke-opacity="0.3"><polyline points="-0.1062124248496995,0.505 -0.1062124248496995,-0.505" /></g><g stroke-width="5.0e-3" stroke="#A8E5EE" fill="none" stroke-opacity="0.3"><polyline points="0.13827655310621223,0.505 0.13827655310621223,-0.505" /></g><g stroke-width="5.0e-3" stroke="#A8E5EE" fill="none" stroke-opacity="0.3"><polyline points="0.3947895791583165,0.505 0.3947895791583165,-0.505" /></g><g stroke-width="5.0e-3" stroke="#A8E5EE" fill="none" stroke-opacity="0.3"><polyline points="0.6472945891783566,0.505 0.6472945891783566,-0.505" /></g><g stroke-width="5.0e-3" stroke="#A8E5EE" fill="none" stroke-opacity="0.3"><polyline points="0.8997995991983965,0.505 0.8997995991983965,-0.505" /></g><g stroke-width="5.0e-3" stroke="#A8E5EE" fill="none" stroke-opacity="0.3"><polyline points="0.9999999999999998,0.505 0.9999999999999998,-0.505" /></g><g stroke-width="0.0" stroke="none" fill="#666666" fill-opacity="1.0" font-size="5.0e-2" text-anchor="end"><text transform="rotate(-45.0, -1.0, 0.6062500000000001)" x="-1.0" y="0.6062500000000001">10 Feb 2017</text></g><g stroke-width="0.0" stroke="none" fill="#666666" fill-opacity="1.0" font-size="5.0e-2" text-anchor="end"><text transform="rotate(-45.0, -0.8637274549098197, 0.6062500000000001)" x="-0.8637274549098197" y="0.6062500000000001">31 Mar 2017</text></g><g stroke-width="0.0" stroke="none" fill="#666666" fill-opacity="1.0" font-size="5.0e-2" text-anchor="end"><text transform="rotate(-45.0, -0.6112224448897796, 0.6062500000000001)" x="-0.6112224448897796" y="0.6062500000000001">30 Jun 2017</text></g><g stroke-width="0.0" stroke="none" fill="#666666" fill-opacity="1.0" font-size="5.0e-2" text-anchor="end"><text transform="rotate(-45.0, -0.3587174348697396, 0.6062500000000001)" x="-0.3587174348697396" y="0.6062500000000001">30 Sep 2017</text></g><g stroke-width="0.0" stroke="none" fill="#666666" fill-opacity="1.0" font-size="5.0e-2" text-anchor="end"><text transform="rotate(-45.0, -0.1062124248496995, 0.6062500000000001)" x="-0.1062124248496995" y="0.6062500000000001">31 Dec 2017</text></g><g stroke-width="0.0" stroke="none" fill="#666666" fill-opacity="1.0" font-size="5.0e-2" text-anchor="end"><text transform="rotate(-45.0, 0.13827655310621223, 0.6062500000000001)" x="0.13827655310621223" y="0.6062500000000001">31 Mar 2018</text></g><g stroke-width="0.0" stroke="none" fill="#666666" fill-opacity="1.0" font-size="5.0e-2" text-anchor="end"><text transform="rotate(-45.0, 0.3947895791583165, 0.6062500000000001)" x="0.3947895791583165" y="0.6062500000000001">30 Jun 2018</text></g><g stroke-width="0.0" stroke="none" fill="#666666" fill-opacity="1.0" font-size="5.0e-2" text-anchor="end"><text transform="rotate(-45.0, 0.6472945891783566, 0.6062500000000001)" x="0.6472945891783566" y="0.6062500000000001">30 Sep 2018</text></g><g stroke-width="0.0" stroke="none" fill="#666666" fill-opacity="1.0" font-size="5.0e-2" text-anchor="end"><text transform="rotate(-45.0, 0.8997995991983965, 0.6062500000000001)" x="0.8997995991983965" y="0.6062500000000001">31 Dec 2018</text></g><g stroke-width="0.0" stroke="none" fill="#666666" fill-opacity="1.0" font-size="5.0e-2" text-anchor="end"><text transform="rotate(-45.0, 0.9999999999999998, 0.6062500000000001)" x="0.9999999999999998" y="0.6062500000000001">06 Feb 2019</text></g><g stroke-width="0.0" stroke="#2C429D" fill="#5F0391" fill-opacity="1.0" stroke-opacity="0.4"><line stroke-width="5.0e-3" x1="-1.0" y1="0.54" x2="-1.0" y2="0.51" /><line stroke-width="5.0e-3" x1="-0.8637274549098197" y1="0.54" x2="-0.8637274549098197" y2="0.51" /><line stroke-width="5.0e-3" x1="-0.6112224448897796" y1="0.54" x2="-0.6112224448897796" y2="0.51" /><line stroke-width="5.0e-3" x1="-0.3587174348697396" y1="0.54" x2="-0.3587174348697396" y2="0.51" /><line stroke-width="5.0e-3" x1="-0.1062124248496995" y1="0.54" x2="-0.1062124248496995" y2="0.51" /><line stroke-width="5.0e-3" x1="0.13827655310621223" y1="0.54" x2="0.13827655310621223" y2="0.51" /><line stroke-width="5.0e-3" x1="0.3947895791583165" y1="0.54" x2="0.3947895791583165" y2="0.51" /><line stroke-width="5.0e-3" x1="0.6472945891783566" y1="0.54" x2="0.6472945891783566" y2="0.51" /><line stroke-width="5.0e-3" x1="0.8997995991983965" y1="0.54" x2="0.8997995991983965" y2="0.51" /><line stroke-width="5.0e-3" x1="0.9999999999999998" y1="0.54" x2="0.9999999999999998" y2="0.51" /></g><g stroke-width="0.0" stroke="#666666" fill="#5F0391" fill-opacity="0.5" stroke-opacity="0.0"><rect width="1.9999999999999998" height="5.0000000000000044e-3" x="-1.0" y="0.51" /></g><g stroke-width="5.0e-3" stroke="#C58C4B" fill="none" stroke-opacity="0.5"><polyline points="-1.0,-9.999999999999998e-2 0.9999999999999998,-9.999999999999998e-2" /></g><g stroke-width="5.0e-3" stroke="#3C7F2B" fill="none" stroke-opacity="0.5"><polyline points="-1.0,-0.2102734525687231 -0.9959919839679359,-0.23488826048749467 -0.9919839679358717,-0.25086575638217856 -0.9879759519038076,-0.2717447775034718 -0.9839679358717435,-0.2567771972777938 -0.9799599198396793,-0.2580267085888063 -0.9759519038076152,-0.2851771858935943 -0.9719438877755511,-0.26786090166322385 -0.9679358717434869,-0.26075553811802565 -0.9639278557114228,-0.26061377193940816 -0.9599198396793587,-0.2574244184395913 -0.9559118236472945,-0.23060391127967483 -0.9519038076152304,-0.30156859158687366 -0.9478957915831663,-0.2614348415092794 -0.9438877755511023,-0.25673119413533374 -0.9398797595190381,-0.23314299859454768 -0.935871743486974,-0.2126210027825407 -0.9318637274549099,-0.1962355226017295 -0.9278557114228457,-0.19603128393530034 -0.9238476953907816,-0.20813288756520942 -0.9198396793587175,-0.20502916119963044 -0.9158316633266533,-0.18156878805403298 -0.9118236472945892,-0.22003077347874878 -0.9078156312625251,-0.20625985146288617 -0.9038076152304609,-0.1945917731125668 -0.8997995991983968,-0.17961640345951035 -0.8957915831663327,-0.10854897633310356 -0.8917835671342685,-0.11673269542542297 -0.8877755511022044,-0.11130753250055381 -0.8837675350701403,-0.10703279689522449 -0.8797595190380761,-0.10202194951484989 -0.875751503006012,-0.1370663864555769 -0.8717434869739479,-0.1405973611093817 -0.8677354709418837,-0.15297314246766658 -0.8637274549098196,-0.13924368726208403 -0.8597194388777555,-0.12909314276216255 -0.8557114228456915,-0.13059379077385358 -0.8517034068136273,-0.11291367238636685 -0.8476953907815632,-0.12253818523932869 -0.8436873747494991,-0.1169191877966248 -0.8396793587174349,-0.11987991016302824 -0.8356713426853708,-0.1106588301156598 -0.8316633266533067,-8.830391633325407e-2 -0.8276553106212425,-5.042917109555489e-2 -0.8236472945891784,-9.975740742849915e-2 -0.8196392785571143,-8.541830962354446e-2 -0.8156312625250501,-7.749719059803128e-2 -0.811623246492986,-0.1171181294694541 -0.8076152304609219,-0.1015498739166143 -0.8036072144288577,-0.15465186561819855 -0.7995991983967936,-0.1795649664466148 -0.7955911823647295,-0.1736446443861186 -0.7915831663326653,-0.17264667672863399 -0.7875751503006012,-0.1600933506890435 -0.7835671342685371,-0.16541174002901304 -0.779559118236473,-0.16792075223235048 -0.7755511022044088,-0.15797360802447513 -0.7715430861723447,-0.15785903024562797 -0.7675350701402806,-0.17630915658417656 -0.7635270541082164,-0.17237529726781964 -0.7595190380761523,-0.1627639243980531 -0.7555110220440882,-0.16543689722904964 -0.751503006012024,-0.14934401932143793 -0.7474949899799599,-0.13786067979486705 -0.7434869739478958,-0.16332923112345443 -0.7394789579158316,-0.15567185435155273 -0.7354709418837675,-5.5516956988931554e-2 -0.7314629258517034,-7.227387877148916e-2 -0.7274549098196392,-0.10216025608317103 -0.7234468937875751,-0.1233845186668604 -0.719438877755511,-0.12911112050370843 -0.7154308617234469,-0.137583286834555 -0.7114228456913828,-0.1548989344666225 -0.7074148296593187,-0.1525869738699981 -0.7034068136272545,-0.1436104370457013 -0.6993987975951904,-0.13829542940120187 -0.6953907815631263,-0.17383229877042683 -0.6913827655310621,-0.1870058345819463 -0.687374749498998,-0.17610904036017205 -0.6833667334669339,-0.158329960087632 -0.6793587174348698,-0.16217554325461558 -0.6753507014028056,-0.15934058700507925 -0.6713426853707415,-0.1510146260579417 -0.6673346693386774,-0.14218183848137544 -0.6633266533066133,-0.16407223398628534 -0.6593186372745492,-0.15437320014436773 -0.6553106212424851,-0.1384233902219606 -0.6513026052104209,-0.1368128476593482 -0.6472945891783568,-0.1838103868974167 -0.6432865731462927,-0.1450647586929762 -0.6392785571142285,-0.13927857409589983 -0.6352705410821644,-0.13430459466036282 -0.6312625250501003,-0.1401291047017459 -0.6272545090180361,-0.1390424342044555 -0.623246492985972,-9.444266390556255e-2 -0.6192384769539079,-0.14069646936178515 -0.6152304609218437,-9.854202040349114e-2 -0.6112224448897796,-0.10519143835718525 -0.6072144288577155,-0.11531991551706056 -0.6032064128256514,-0.1210504717912062 -0.5991983967935872,-7.530416086801062e-2 -0.5951903807615231,-0.10592385308812602 -0.591182364729459,-0.1094144690114548 -0.5871743486973948,-0.10491018963204302 -0.5831663326653307,-0.1398631594447104 -0.5791583166332666,-0.14628292316205083 -0.5751503006012024,-0.1661879313099207 -0.5711422845691383,-0.1622335700029678 -0.5671342685370742,-0.1615923827833442 -0.56312625250501,-0.18561392737836369 -0.5591182364729459,-0.18004544532169842 -0.5551102204408818,-0.17353357226983013 -0.5511022044088176,-0.16356411966230777 -0.5470941883767535,-0.1755623196951438 -0.5430861723446894,-0.1724895188316622 -0.5390781563126252,-0.1624857021950309 -0.5350701402805611,-0.15074628109418875 -0.531062124248497,-0.1429531675176724 -0.5270541082164328,-0.15448741979055436 -0.5230460921843687,-0.15359783441139163 -0.5190380761523046,-0.13646386751671635 -0.5150300601202404,-0.1453246596981762 -0.5110220440881764,-0.15231572188775266 -0.5070140280561123,-0.13320949536808646 -0.5030060120240482,-0.12797866579668604 -0.498997995991984,-4.867729108985841e-2 -0.4949899799599199,-5.5943832823794004e-2 -0.49098196392785576,-0.1083886631959754 -0.4869739478957916,-0.10488060301587465 -0.4829659318637275,-0.11011279348267977 -0.47895791583166336,-4.19875902015755e-2 -0.47494989979959923,-3.6463358817532154e-2 -0.4709418837675351,-4.353841197960828e-2 -0.46693386773547096,-8.972725778997115e-2 -0.46292585170340683,-7.534280881744826e-2 -0.4589178356713427,-6.71417745245595e-2 -0.45490981963927857,-7.52467837126991e-2 -0.45090180360721444,-7.789214223096586e-2 -0.4468937875751503,-8.20896397091806e-2 -0.44288577154308617,-0.10400755102490433 -0.43887775551102204,-0.13043674323901477 -0.434869739478958,-0.13754728532506244 -0.4308617234468939,-0.1004588631226051 -0.42685370741482975,-0.11449978596065158 -0.4228456913827656,-0.11234149597091336 -0.4188376753507015,-0.10398140116088805 -0.41482965931863736,-0.1589863766328823 -0.4108216432865732,-0.17135566098468258 -0.4068136272545091,-0.17098969865510183 -0.40280561122244496,-0.1617599389644483 -0.3987975951903808,-0.1673042105541278 -0.3947895791583167,-0.1707239351850628 -0.39078156312625256,-0.17226876443320904 -0.38677354709418843,-0.17125204549682904 -0.3827655310621243,-0.15057316004201127 -0.37875751503006017,-0.1507334066099275 -0.37474949899799603,-0.13502015585944438 -0.3707414829659319,-0.1327437149908528 -0.36673346693386777,-0.15431551823942924 -0.36272545090180364,-0.15765354514707974 -0.3587174348697395,-0.1760174860771846 -0.35470941883767537,-0.194478438785342 -0.35070140280561124,-0.20165063246890536 -0.3466933867735471,-0.2029644021688789 -0.342685370741483,-0.23167274353058398 -0.33867735470941884,-0.21713327356106793 -0.3346693386773547,-0.19873324420072402 -0.3306613226452907,-0.20692981795488408 -0.32665330661322656,-0.2115541642560692 -0.3226452905811624,-0.19347607064399208 -0.3186372745490983,-0.19290090910160795 -0.31462925851703416,-0.1981449847553426 -0.31062124248497003,-0.19591021193957503 -0.3066132264529059,-0.19423298608214568 -0.30260521042084176,-0.189696676372604 -0.29859719438877763,-0.21933556218426264 -0.2945891783567135,-0.18464403960025533 -0.29058116232464937,-0.1893243665442701 -0.28657314629258523,-0.15432478183238052 -0.2825651302605211,-0.15817544050656807 -0.27855711422845697,-0.20413481565457448 -0.27454909819639284,-0.18101450632656402 -0.2705410821643287,-0.1815970783971046 -0.2665330661322646,-0.18576170431135286 -0.26252505010020044,-0.18185432083914943 -0.2585170340681363,-0.1949604975620305 -0.2545090180360722,-0.19679976925726117 -0.25050100200400804,-0.18981261552296969 -0.2464929859719439,-0.19306175963582972 -0.24248496993987978,-0.16425740764206997 -0.23847695390781565,-0.15484389308135815 -0.23446893787575152,-0.15706643117918162 -0.2304609218436875,-0.1393143968760966 -0.22645290581162336,-0.10521173333778144 -0.22244488977955923,-0.15205395406752875 -0.2184368737474951,-0.13641051389720904 -0.21442885771543096,-0.14061661155577787 -0.21042084168336683,-0.17224298843964903 -0.2064128256513027,-0.16484933774196375 -0.20240480961923857,-0.1716217043171897 -0.19839679358717444,-0.16579260735623014 -0.1943887775551103,-0.2140209863685587 -0.19038076152304617,-0.20696152782478727 -0.18637274549098204,-0.24082960580843327 -0.1823647294589179,-0.22522635562053506 -0.17835671342685377,-0.2146492087903994 -0.17434869739478964,-0.1918120669740634 -0.1703406813627255,-0.18710299732020508 -0.16633266533066138,-0.19688732220892713 -0.16232464929859725,-0.21872145155822298 -0.1583166332665331,-0.2283527688262722 -0.15430861723446898,-0.22962695031970493 -0.15030060120240485,-0.22074502342116686 -0.14629258517034072,-0.19378508559397456 -0.14228456913827658,-0.233722933766082 -0.13827655310621245,-0.25233317453731297 -0.13426853707414832,-0.23016162649925997 -0.1302605210420842,-0.22028410914832464 -0.12625250501002017,-0.22397920172078045 -0.12224448897795603,-0.2157651294138544 -0.1182364729458919,-0.20481877039661467 -0.11422845691382777,-0.2035448176901633 -0.11022044088176364,-0.20767857681613366 -0.1062124248496995,-0.1746834114415513 -0.10220440881763537,-0.21253443781110126 -9.819639278557124e-2,-0.23739236527074703 -9.418837675350711e-2,-0.2496542997592034 -9.018036072144298e-2,-0.2759636861518946 -8.617234468937884e-2,-0.27529498601424685 -8.216432865731471e-2,-0.27293589431770215 -7.815631262525058e-2,-0.25889042001675067 -7.414829659318645e-2,-0.28598718872006956 -7.014028056112231e-2,-0.30978417476206443 -6.613226452905818e-2,-0.2827411215837906 -6.212424849699405e-2,-0.31892825266655667 -5.811623246492992e-2,-0.3015939543908551 -5.4108216432865786e-2,-0.31230602098466 -5.010020040080165e-2,-0.3401244677939306 -4.609218436873752e-2,-0.338840095749104 -4.208416833667339e-2,-0.32483723617799376 -3.8076152304609256e-2,-0.31683211682848944 -3.4068136272545124e-2,-0.3644883527453049 -3.0060120240480992e-2,-0.32192007147739843 -2.605210420841686e-2,-0.2627801767787704 -2.204408817635284e-2,-0.25868691166108215 -1.8036072144288706e-2,-0.2500169666532771 -1.4028056112224574e-2,-0.14039257909429892 -1.0020040080160442e-2,6.060386889207836e-2 -6.012024048096309e-3,-1.2566574222786953e-2 -2.004008016032177e-3,2.572942663858213e-3 2.004008016031955e-3,0.1584047086906784 6.012024048096087e-3,9.05116581004281e-2 1.002004008016022e-2,3.0281772863936962e-2 1.4028056112224352e-2,1.605289416169825e-2 1.8036072144288484e-2,-3.794848108598292e-2 2.2044088176352616e-2,-8.390758503717166e-2 2.605210420841675e-2,-8.251856048419492e-2 3.006012024048088e-2,-5.8451342803209405e-2 3.406813627254501e-2,-3.6937308380269096e-2 3.8076152304609145e-2,-4.0986636898021844e-2 4.208416833667328e-2,-0.1066548930405049 4.609218436873741e-2,-0.1509975140087515 5.010020040080154e-2,-9.779084475014665e-2 5.4108216432865675e-2,-5.246166138077413e-2 5.811623246492981e-2,8.863384703960975e-5 6.212424849699394e-2,-2.35559600977836e-2 6.613226452905807e-2,-7.179988335206133e-2 7.01402805611222e-2,-8.218299421004804e-2 7.414829659318634e-2,-7.900912567663498e-2 7.815631262525047e-2,-9.768917143015321e-2 8.21643286573146e-2,-0.17701996797043307 8.617234468937873e-2,-0.16590892127037526 9.018036072144286e-2,-0.13291205282591567 9.4188376753507e-2,-0.10381953669387989 9.819639278557113e-2,-9.828726427150625e-2 0.10220440881763526,-0.10483091989801929 0.1062124248496994,-3.5583249146573626e-2 0.11022044088176353,-4.435655280441875e-2 0.11422845691382766,-3.649956583676006e-2 0.11823647294589179,8.364249972476512e-2 0.12224448897795592,0.17168928337608713 0.12625250501002006,3.3693226354029104e-2 0.13026052104208397,0.10138825459482848 0.1342685370741481,0.10569877938263361 0.13827655310621223,3.7529181021210445e-2 0.14228456913827636,0.12892221688367245 0.1462925851703405,6.583100232184841e-2 0.15030060120240463,9.81433798228093e-3 0.15430861723446876,-2.3342611188237772e-2 0.1583166332665329,6.967683531583646e-2 0.16232464929859702,4.876019587410413e-2 0.16633266533066116,-3.1710148644574554e-2 0.1703406813627253,-9.362853208639388e-3 0.17434869739478942,-4.9400712836671024e-2 0.17835671342685355,-3.726898531043665e-2 0.18236472945891768,-7.696976020881419e-2 0.18637274549098182,-0.12773274512899946 0.19038076152304595,-0.12884756059844182 0.19438877755511008,-9.815469630566498e-2 0.1983967935871742,-5.468848533527526e-2 0.20240480961923835,-5.582721418015979e-2 0.20641282565130248,1.1398550411435893e-2 0.2104208416833666,-2.402270180176691e-3 0.21442885771543074,-6.208160017055753e-2 0.21843687374749488,-6.874735879619132e-2 0.222444889779559,-2.5372704059025808e-2 0.22645290581162314,-4.213917631811115e-2 0.23046092184368727,-4.1574524594727436e-3 0.2344689378757514,4.641498098879426e-3 0.23847695390781554,-7.537873186726907e-2 0.24248496993987967,-9.5537888327483e-2 0.2464929859719438,-9.351934057080369e-2 0.25050100200400793,-0.15051964358743142 0.25450901803607207,-0.2022044280775216 0.2585170340681362,-0.20637310805490827 0.26252505010020033,-0.20544934583775742 0.26653306613226446,-0.1568059237562659 0.2705410821643286,-0.17805250764694835 0.2745490981963927,-0.16762576749942448 0.27855711422845686,-0.14611141637136027 0.282565130260521,-0.19081218638898867 0.2865731462925851,-0.16438364469459743 0.29058116232464926,-0.18143463573104834 0.2945891783567134,-0.16219296823315554 0.2985971943887775,-0.1413961514950961 0.30260521042084165,-6.0106186977430975e-2 0.3066132264529058,-0.14528284274330994 0.3106212424849699,-9.976101656601843e-2 0.31462925851703405,-0.16605122796807426 0.3186372745490982,-0.18873736863859492 0.3226452905811623,-0.1875552794823595 0.32665330661322645,-0.23513377453561968 0.3306613226452906,-0.22269289429994998 0.3346693386773545,-0.2350269043369183 0.3386773547094186,-0.23365162505896064 0.34268537074148275,-0.236784377898406 0.3466933867735469,-0.2006404380961635 0.350701402805611,-0.21052528632879375 0.35470941883767515,-0.1959091188383113 0.3587174348697393,-0.17406680910921313 0.3627254509018034,-0.1399301844957781 0.36673346693386755,-0.14823357900154321 0.3707414829659317,-9.913856461206849e-2 0.3747494989979958,-0.11074777572922123 0.37875751503005994,-1.990555149754536e-2 0.3827655310621241,-3.655583648465921e-2 0.3867735470941882,1.3066699471837584e-2 0.39078156312625234,-3.148615422083478e-2 0.3947895791583165,-3.832813273952429e-2 0.3987975951903806,-5.986648503476799e-2 0.40280561122244474,-3.004739505171461e-2 0.40681362725450887,-8.964422026394514e-2 0.410821643286573,-0.14203069158722303 0.41482965931863713,-0.1917600655355941 0.41883767535070127,-0.2065000373029775 0.4228456913827654,-0.15826189653697265 0.42685370741482953,-0.2052943086535186 0.43086172344689366,-0.2053512909537697 0.4348697394789578,-0.1930871108318476 0.4388777555110219,-0.21105942489259744 0.44288577154308606,-0.2174023147582549 0.4468937875751502,-0.18567606934135406 0.4509018036072143,-0.17418432560744979 0.45490981963927846,-0.1807239680408559 0.4589178356713426,-0.20609391242225006 0.4629258517034067,-0.25724384334742756 0.46693386773547085,-0.22885003191752606 0.470941883767535,-0.18015597243181602 0.4749498997995991,-0.1408362628363513 0.47895791583166325,-0.16700966546961027 0.4829659318637274,-0.15645779031144236 0.4869739478957915,-0.18272212618922967 0.49098196392785565,-0.20592494469497158 0.4949899799599198,-0.22127550673332874 0.4989979959919839,-0.23159876196424334 0.503006012024048,-0.22176989118814672 0.5070140280561122,-0.2045425707692171 0.5110220440881763,-0.1517246343836074 0.5150300601202404,-0.12348715974467617 0.5190380761523046,-0.1612985811337354 0.5230460921843687,-0.11255204038897493 0.5270541082164328,-0.15752439080743186 0.531062124248497,-0.1724917467289998 0.5350701402805611,-0.18182743683759806 0.539078156312625,-0.18878917128357953 0.5430861723446891,-0.1808653718528016 0.5470941883767533,-0.16539060554245455 0.5511022044088174,-0.19924560151326687 0.5551102204408815,-0.23923759857281734 0.5591182364729457,-0.23283124521809806 0.5631262525050098,-0.25902463807604914 0.5671342685370739,-0.22296592573235385 0.5711422845691381,-0.21657746904677022 0.5751503006012022,-0.19961686572457404 0.5791583166332663,-0.17645380787178766 0.5831663326653305,-0.14950972252574546 0.5871743486973946,-0.13266654865415484 0.5911823647294587,-0.1416580337286535 0.5951903807615229,-0.16205063240132034 0.599198396793587,-0.15997651461955786 0.6032064128256511,-0.1898047248905862 0.6072144288577153,-0.18578554285287308 0.6112224448897794,-0.14492958475954465 0.6152304609218435,-0.17492131827617907 0.6192384769539077,-0.1777469049484104 0.6232464929859718,-0.22072875534658876 0.6272545090180359,-0.2116910999514655 0.6312625250501,-0.18418112191153435 0.6352705410821642,-0.17143779374715917 0.6392785571142283,-0.14748506561154173 0.6432865731462925,-0.16082975417904732 0.6472945891783566,-0.15683412030501653 0.6513026052104207,-0.175628603818215 0.6553106212424848,-0.1683386619959203 0.659318637274549,-0.16833104942186516 0.6633266533066131,-0.11384146826354136 0.6673346693386772,-8.237776980144162e-2 0.6713426853707414,-8.038133718055163e-2 0.6753507014028055,-7.275227465232659e-2 0.6793587174348696,8.70540403308862e-2 0.6833667334669338,0.1611020193482297 0.6873747494989979,9.686214948637334e-2 0.691382765531062,0.1121555896454351 0.6953907815631262,1.744893662706931e-2 0.6993987975951903,1.617592418917463e-2 0.7034068136272544,6.695756257389329e-2 0.7074148296593186,6.28594329199792e-2 0.7114228456913827,7.379944614212447e-2 0.7154308617234468,8.88534415421196e-2 0.719438877755511,0.2122982997996995 0.7234468937875751,0.1289628170939185 0.7274549098196392,0.18704080518436328 0.7314629258517034,0.20014935132091954 0.7354709418837675,0.12815993473625958 0.7394789579158316,7.78998116506241e-2 0.7434869739478958,3.0812267373118374e-2 0.7474949899799597,5.202300475310728e-2 0.7515030060120238,2.541905004056494e-2 0.7555110220440879,-2.984447168410509e-3 0.7595190380761521,-9.834836415439152e-2 0.7635270541082162,-8.536343690491743e-2 0.7675350701402803,-4.6943953869821975e-2 0.7715430861723445,3.17363200067482e-2 0.7755511022044086,3.369011668829808e-2 0.7795591182364727,6.059585633773501e-2 0.7835671342685369,8.9998333769708e-3 0.787575150300601,-3.8127532584839585e-3 0.7915831663326651,6.491441173016332e-2 0.7955911823647293,0.13726111334423108 0.7995991983967934,0.11425699765157882 0.8036072144288575,0.13400765296253997 0.8076152304609217,5.3426668594171944e-2 0.8116232464929858,3.294688556907782e-2 0.8156312625250499,-7.911655962507247e-2 0.819639278557114,-6.943010266736704e-2 0.8236472945891782,-0.10601775788327095 0.8276553106212423,-0.15423634339423264 0.8316633266533064,-5.837768131930932e-3 0.8356713426853706,-2.84701278711863e-3 0.8396793587174347,9.414198419757613e-2 0.8436873747494988,7.844231640781368e-2 0.847695390781563,7.220970175183639e-2 0.8517034068136271,4.109309902143887e-2 0.8557114228456912,3.5850383756410586e-2 0.8597194388777554,0.11787137715519369 0.8637274549098195,0.2034042889597018 0.8677354709418836,0.18894769178174342 0.8717434869739478,0.24642831454805475 0.8757515030060119,0.3033493364247606 0.879759519038076,0.3815787178765444 0.8837675350701402,0.488359586241892 0.8877755511022043,0.24588414638835 0.8917835671342684,0.1991811961741674 0.8957915831663326,0.1931087774831231 0.8997995991983967,0.14786256188582259 0.9038076152304608,0.13405014217337347 0.907815631262525,0.22915672215261534 0.9118236472945891,6.832175408611862e-2 0.9158316633266532,3.51895414810367e-2 0.9198396793587174,-8.126308450996711e-3 0.9238476953907815,-2.6209706556105328e-2 0.9278557114228456,-4.5647047023309684e-2 0.9318637274549098,-4.420799222188643e-2 0.9358717434869739,-2.0432747431846643e-2 0.939879759519038,-7.10628411220997e-2 0.9438877755511021,-7.959453682062911e-2 0.9478957915831663,-0.11399983008134495 0.9519038076152302,-0.17573721380756513 0.9559118236472943,-0.10225025880674565 0.9599198396793585,-0.11000543759472903 0.9639278557114226,-0.11346771718524407 0.9679358717434867,-0.1542735715352852 0.9719438877755509,-0.10838184494948522 0.975951903807615,-9.732775780774516e-2 0.9799599198396791,-0.18181533727679133 0.9839679358717432,-0.22194421649856988 0.9879759519038074,-0.21793220575664052 0.9919839679358715,-0.24745851628058801 0.9959919839679356,-0.2640289997515701 0.9999999999999998,-0.2394778557405467" /></g><g stroke-width="5.0e-3" stroke="#382A8C" fill="none" stroke-opacity="0.5"><polyline points="-1.0,-0.16410946646631375 -0.9959919839679359,-0.17026030380073975 -0.9919839679358717,-0.1746970196849188 -0.9879759519038076,-0.18040374190798203 -0.9839679358717435,-0.17820548231471334 -0.9799599198396793,-0.17945787968210958 -0.9759519038076152,-0.18656596650804158 -0.9719438877755511,-0.18398849900024816 -0.9679358717434869,-0.18347624419342679 -0.9639278557114228,-0.1844325655590554 -0.9599198396793587,-0.18473193582477643 -0.9559118236472945,-0.18006121870366276 -0.9519038076152304,-0.1973706180607675 -0.9478957915831663,-0.18819432249958323 -0.9438877755511023,-0.18775864605412018 -0.9398797595190381,-0.18221963133945407 -0.935871743486974,-0.17723193934151849 -0.9318637274549099,-0.17314469478730576 -0.9278557114228457,-0.1732637083953339 -0.9238476953907816,-0.17671688228285487 -0.9198396793587175,-0.1762095691174046 -0.9158316633266533,-0.17057574076243054 -0.9118236472945892,-0.18095867475884586 -0.9078156312625251,-0.17769605582082137 -0.9038076152304609,-0.17488603075530562 -0.8997995991983968,-0.1711449245204224 -0.8957915831663327,-0.1532395807182514 -0.8917835671342685,-0.15500934022696355 -0.8877755511022044,-0.15283502447774022 -0.8837675350701403,-0.15096526689054712 -0.8797595190380761,-0.14887289450650554 -0.875751503006012,-0.15793527193406043 -0.8717434869739479,-0.15859528913832965 -0.8677354709418837,-0.16174083804418915 -0.8637274549098196,-0.15784908048930402 -0.8597194388777555,-0.15482121535601812 -0.8557114228456915,-0.15480845970674673 -0.8517034068136273,-0.14986803542783622 -0.8476953907815632,-0.15178104780541013 -0.8436873747494991,-0.14989963830930408 -0.8396793587174349,-0.15011641541597698 -0.8356713426853708,-0.14740118181377526 -0.8316633266533067,-0.14149806052495073 -0.8276553106212425,-0.1315034393668354 -0.8236472945891784,-0.1428881172547911 -0.8196392785571143,-0.13830263704817758 -0.8156312625250501,-0.1353700534523231 -0.811623246492986,-0.14517901787525755 -0.8076152304609219,-0.14040116570855943 -0.8036072144288577,-0.1545304869346047 -0.7995991983967936,-0.16189214877164493 -0.7955911823647295,-0.1604160215331245 -0.7915831663326653,-0.16033927660651415 -0.7875751503006012,-0.15694971472113417 -0.7835671342685371,-0.15849731658649013 -0.779559118236473,-0.1593003088434819 -0.7755511022044088,-0.15675721786842356 -0.7715430861723447,-0.15675812725761118 -0.7675350701402806,-0.16154870025065382 -0.7635270541082164,-0.16075258553150473 -0.7595190380761523,-0.15849974236903286 -0.7555110220440882,-0.1592387977080808 -0.751503006012024,-0.15540991891174327 -0.7474949899799599,-0.15256501647876597 -0.7434869739478958,-0.1584471074805014 -0.7394789579158316,-0.15666332082392376 -0.7354709418837675,-0.13118557153623367 -0.7314629258517034,-0.135471779036754 -0.7274549098196392,-0.14373092193990855 -0.7234468937875751,-0.14977187798838876 -0.719438877755511,-0.15145681270059608 -0.7154308617234469,-0.1539736796360507 -0.7114228456913828,-0.1590058054900223 -0.7074148296593187,-0.15862308767369537 -0.7034068136272545,-0.15626551356209384 -0.6993987975951904,-0.15489965165333064 -0.6953907815631263,-0.16408118072661426 -0.6913827655310621,-0.16807436800814735 -0.687374749498998,-0.1655914919223741 -0.6833667334669339,-0.1610738966275489 -0.6793587174348698,-0.16231975106105412 -0.6753507014028056,-0.16183892257996613 -0.6713426853707415,-0.15990508197118347 -0.6673346693386774,-0.15778669735294892 -0.6633266533066133,-0.1630151470562219 -0.6593186372745492,-0.16083197157174534 -0.6553106212424851,-0.15699637877120498 -0.6513026052104209,-0.1565860174166258 -0.6472945891783568,-0.16702065975731228 -0.6432865731462927,-0.15718649399879625 -0.6392785571142285,-0.1556355414670184 -0.6352705410821644,-0.15426357404721314 -0.6312625250501003,-0.15559093310343042 -0.6272545090180361,-0.15524180032387214 -0.623246492985972,-0.14370621253571125 -0.6192384769539079,-0.15475443255245247 -0.6152304609218437,-0.14286066081886462 -0.6112224448897796,-0.14422568535845515 -0.6072144288577155,-0.146588836504281 -0.6032064128256514,-0.14782141864215825 -0.5991983967935872,-0.13512537599353203 -0.5951903807615231,-0.14281953099887568 -0.591182364729459,-0.14339912104736363 -0.5871743486973948,-0.14179183910957838 -0.5831663326653307,-0.1505930921366152 -0.5791583166332666,-0.15230065953895733 -0.5751503006012024,-0.15757677123853808 -0.5711422845691383,-0.15675217016739873 -0.5671342685370742,-0.15676890805750865 -0.56312625250501,-0.16293849084151701 -0.5591182364729459,-0.16192204440435076 -0.5551102204408818,-0.1606346860876936 -0.5511022044088176,-0.15845123890320767 -0.5470941883767535,-0.16148190425683595 -0.5430861723446894,-0.16103690620547984 -0.5390781563126252,-0.15894519974005927 -0.5350701402805611,-0.15638293474451537 -0.531062124248497,-0.15465025383171682 -0.5270541082164328,-0.15714845133610889 -0.5230460921843687,-0.1570215717384048 -0.5190380761523046,-0.15331828393176972 -0.5150300601202404,-0.15510406311295744 -0.5110220440881764,-0.15655175501454077 -0.5070140280561123,-0.15250793934359652 -0.5030060120240482,-0.1512710115985676 -0.498997995991984,-0.13147636733587842 -0.4949899799599199,-0.13261920964966756 -0.49098196392785576,-0.14512877772496258 -0.4869739478957916,-0.1438805776640214 -0.4829659318637275,-0.14506703822271538 -0.47895791583166336,-0.12549254205650617 -0.47494989979959923,-0.1229120871298014 -0.4709418837675351,-0.12394379919499254 -0.46693386773547096,-0.1357222883961302 -0.46292585170340683,-0.1311562766403912 -0.4589178356713427,-0.1282561067508179 -0.45490981963927857,-0.1298401307202921 -0.45090180360721444,-0.12999017105790311 -0.4468937875751503,-0.13056845890728985 -0.44288577154308617,-0.13573632678383118 -0.43887775551102204,-0.14219609908144026 -0.434869739478958,-0.144030390181768 -0.4308617234468939,-0.1344009435545096 -0.42685370741482975,-0.13768617796920857 -0.4228456913827656,-0.13695911270493943 -0.4188376753507015,-0.13465852461918792 -0.41482965931863736,-0.1474066503401804 -0.4108216432865732,-0.15080300614163467 -0.4068136272545091,-0.1510655011646399 -0.40280561122244496,-0.1491060115545143 -0.3987975951903808,-0.1506988280388849 -0.3947895791583167,-0.15180956769125165 -0.39078156312625256,-0.15249473998009255 -0.38677354709418843,-0.15259677546341543 -0.3827655310621243,-0.14820905131848938 -0.37875751503006017,-0.14837268354670408 -0.37474949899799603,-0.14501389229558703 -0.3707414829659319,-0.144502467574672 -0.36673346693386777,-0.14897456261607278 -0.36272545090180364,-0.14982404249418935 -0.3587174348697395,-0.1537863557078749 -0.35470941883767537,-0.15792201971588815 -0.35070140280561124,-0.15987715186253348 -0.3466933867735471,-0.1606757174735064 -0.342685370741483,-0.16699438662989474 -0.33867735470941884,-0.16480426564027162 -0.3346693386773547,-0.16170764301295626 -0.3306613226452907,-0.16385238228262766 -0.32665330661322656,-0.16532464478692455 -0.3226452905811624,-0.16234020941576488 -0.3186372745490983,-0.16265688603254713 -0.31462925851703416,-0.1640908538957334 -0.31062124248497003,-0.16412714919561966 -0.3066132264529059,-0.16425349576853165 -0.30260521042084176,-0.16384055009207676 -0.29859719438877763,-0.1696596214812931 -0.2945891783567135,-0.1635789243355097 -0.29058116232464937,-0.16484840481841612 -0.28657314629258523,-0.15792352151012057 -0.2825651302605211,-0.15880125527626698 -0.27855711422845697,-0.16848637418096513 -0.27454909819639284,-0.16350182494186527 -0.2705410821643287,-0.1638941614797561 -0.2665330661322646,-0.1651195861867848 -0.26252505010020044,-0.1645203793421799 -0.2585170340681363,-0.1677036077354983 -0.2545090180360722,-0.1684837765921634 -0.25050100200400804,-0.16734547982445835 -0.2464929859719439,-0.16836239112050178 -0.24248496993987978,-0.16249201364422994 -0.23847695390781565,-0.16047735377842076 -0.23446893787575152,-0.1609640239029071 -0.2304609218436875,-0.15707890854542816 -0.22645290581162336,-0.14900360455839545 -0.22244488977955923,-0.15911365015847334 -0.2184368737474951,-0.1549337867399302 -0.21442885771543096,-0.15584833983864155 -0.21042084168336683,-0.16359878277699424 -0.2064128256513027,-0.16180227990775242 -0.20240480961923857,-0.1636562068408094 -0.19839679358717444,-0.16232238527887044 -0.1943887775551103,-0.17422682798904088 -0.19038076152304617,-0.17283034093782323 -0.18637274549098204,-0.18225759862913904 -0.1823647294589179,-0.17869128948314184 -0.17835671342685377,-0.17639366911333543 -0.17434869739478964,-0.17068794869595338 -0.1703406813627255,-0.16966196826012703 -0.16633266533066138,-0.17250378473450267 -0.16232464929859725,-0.1785600131911398 -0.1583166332665331,-0.18164158171336153 -0.15430861723446898,-0.18260912161579756 -0.15030060120240485,-0.18098656550013237 -0.14629258517034072,-0.1747277091838546 -0.14228456913827658,-0.18506760916597098 -0.13827655310621245,-0.19069537028681838 -0.13426853707414832,-0.1855377176153472 -0.1302605210420842,-0.18347450382115993 -0.12625250501002017,-0.1849510016877104 -0.12224448897795603,-0.18334540917144238 -0.1182364729458919,-0.18098875327022723 -0.11422845691382777,-0.1809982488593771 -0.11022044088176364,-0.18233152019086074 -0.1062124248496995,-0.17464268585194265 -0.10220440881763537,-0.18408369652228163 -9.819639278557124e-2,-0.1909490561829288 -9.418837675350711e-2,-0.19482758775508047 -9.018036072144298e-2,-0.2022717796793707 -8.617234468937884e-2,-0.20312898406046143 -8.216432865731471e-2,-0.2035388337462214 -7.815631262525058e-2,-0.20093438704338606 -7.414829659318645e-2,-0.2083202309412432 -7.014028056112231e-2,-0.21521549575921095 -6.613226452905818e-2,-0.20948459779223894 -6.212424849699405e-2,-0.2193452560484198 -5.811623246492992e-2,-0.2160393049048065 -5.4108216432865786e-2,-0.21994625023989522 -5.010020040080165e-2,-0.22801247856150741 -4.609218436873752e-2,-0.22917995107267997 -4.208416833667339e-2,-0.2270633106976635 -3.8076152304609256e-2,-0.22636955638102108 -3.4068136272545124e-2,-0.23845824943613791 -3.0060120240480992e-2,-0.228758123069009 -2.605210420841686e-2,-0.21422861231025359 -2.204408817635284e-2,-0.21358179163183766 -1.8036072144288706e-2,-0.21166311380438596 -1.4028056112224574e-2,-0.1856171144330413 -1.0020040080160442e-2,-0.14136798613408552 -6.012024048096309e-3,-0.15534194172054583 -2.004008016032177e-3,-0.15079725016969014 2.004008016031955e-3,-0.11730539531777762 6.012024048096087e-3,-0.12866845106934843 1.002004008016022e-2,-0.13920062355754892 1.4028056112224352e-2,-0.14090800670867065 1.8036072144288484e-2,-0.1510090057190413 2.2044088176352616e-2,-0.1599936522423917 2.605210420841675e-2,-0.15973475632263046 3.006012024048088e-2,-0.1546673080479113 3.406813627254501e-2,-0.14990663261483006 3.8076152304609145e-2,-0.15023103425867235 4.208416833667328e-2,-0.16249922261717065 4.609218436873741e-2,-0.17122255482384707 5.010020040080154e-2,-0.16073599118232285 5.4108216432865675e-2,-0.15155571725867545 5.811623246492981e-2,-0.14066038390362334 6.212424849699394e-2,-0.14428335768270606 6.613226452905807e-2,-0.15254442407447888 7.01402805611222e-2,-0.15415006326027603 7.414829659318634e-2,-0.15329698720092955 7.815631262525047e-2,-0.15634128128518976 8.21643286573146e-2,-0.16974934120365703 8.617234468937873e-2,-0.16810776271144945 9.018036072144286e-2,-0.1624957681874285 9.4188376753507e-2,-0.1574268059981465 9.819639278557113e-2,-0.1562993682816004 0.10220440881763526,-0.15715248860605435 0.1062124248496994,-0.14529735278267075 0.11022044088176353,-0.14609604978797097 0.11422845691382766,-0.1442384853995905 0.11823647294589179,-0.12312267582305014 0.12224448897795592,-0.10580541980152802 0.12625250501002006,-0.12665278282696035 0.13026052104208397,-0.11277193728152912 0.1342685370741481,-0.11048311144672684 0.13827655310621223,-0.12100220131469586 0.14228456913827636,-0.10291711295318573 0.1462925851703405,-0.11256600722348042 0.15030060120240463,-0.12136151066128065 0.15430861723446876,-0.12649646530090652 0.1583166332665329,-0.10886618102241885 0.16232464929859702,-0.11142817881038292 0.16633266533066116,-0.12416901278093517 0.1703406813627253,-0.11971832125798354 0.17434869739478942,-0.1259383663838406 0.17835671342685355,-0.1235060114004275 0.18236472945891768,-0.12960811998099597 0.18637274549098182,-0.13764656545291076 0.19038076152304595,-0.13796442638912254 0.19438877755511008,-0.13315462688502833 0.1983967935871742,-0.12616307886471567 0.20240480961923835,-0.12600619928383916 0.20641282565130248,-0.11514377102820239 0.2104208416833666,-0.11650683622992553 0.21442885771543074,-0.12459157854963632 0.21843687374749488,-0.12528529264165122 0.222444889779559,-0.11855761861708802 0.22645290581162314,-0.12045823302173742 0.23046092184368727,-0.11453376809891269 0.2344689378757514,-0.11265243860952545 0.23847695390781554,-0.12277540241096863 0.24248496993987967,-0.1253735294385716 0.2464929859719438,-0.12496319400675004 0.25050100200400793,-0.13255932611146082 0.25450901803607207,-0.13985042179875662 0.2585170340681362,-0.14087820031991038 0.26252505010020033,-0.14122939947571334 0.26653306613226446,-0.13526449282100717 0.2705410821643286,-0.13827583712748515 0.2745490981963927,-0.13723129828727187 0.27855711422845686,-0.13472793346142153 0.282565130260521,-0.1405313242541144 0.2865731462925851,-0.13755981701900932 0.29058116232464926,-0.1399266035338944 0.2945891783567134,-0.13787000737381883 0.2985971943887775,-0.1355456890468013 0.30260521042084165,-0.12541560100285065 0.3066132264529058,-0.1358688244943359 0.3106212424849699,-0.1297411137853648 0.31462925851703405,-0.13861848028002544 0.3186372745490982,-0.14204486573141895 0.3226452905811623,-0.14225086655090635 0.32665330661322645,-0.14915301351548838 0.3306613226452906,-0.14807986756022484 0.3346693386773545,-0.15030126860710824 0.3386773547094186,-0.15074001198290699 0.34268537074148275,-0.15175937699122288 0.3466933867735469,-0.14777012164503145 0.350701402805611,-0.1494635825150301 0.35470941883767515,-0.14809577811368202 0.3587174348697393,-0.1457617707090233 0.3627254509018034,-0.1417667768571903 0.36673346693386755,-0.1428791405755231 0.3707414829659317,-0.13680993873155345 0.3747494989979958,-0.1381147716854062 0.37875751503005994,-0.12538756531203632 0.3827655310621241,-0.1271115462938398 0.3867735470941882,-0.11911809050509381 0.39078156312625234,-0.12446784059047933 0.3947895791583165,-0.12491657398601141 0.3987975951903806,-0.12744716985113735 0.40280561122244474,-0.12268580684327224 0.40681362725450887,-0.13030148096824679 0.410821643286573,-0.13772682464063368 0.41482965931863713,-0.1454032749521239 0.41883767535070127,-0.14812602910601635 0.4228456913827654,-0.14114410891139662 0.42685370741482953,-0.14877242632288112 0.43086172344689366,-0.14928042313402745 0.4348697394789578,-0.14784041448213758 0.4388777555110219,-0.1510493529320912 0.44288577154308606,-0.15254968920892897 0.4468937875751502,-0.14832050875305047 0.4509018036072143,-0.1469404187456853 0.45490981963927846,-0.1481985053134499 0.4589178356713426,-0.1522437901687318 0.4629258517034067,-0.16038724762570566 0.46693386773547085,-0.15688628336648736 0.470941883767535,-0.15003397971336196 0.4749498997995991,-0.14401216061177535 0.47895791583166325,-0.14824528197556852 0.4829659318637274,-0.14674500657047984 0.4869739478957915,-0.15102743908096528 0.49098196392785565,-0.1550082204817841 0.4949899799599198,-0.15788554298393176 0.4989979959919839,-0.16004735649095614 0.503006012024048,-0.1591618843266317 0.5070140280561122,-0.1571159613169103 0.5110220440881763,-0.14945459006181738 0.5150300601202404,-0.14495146114846624 0.5190380761523046,-0.1508382584544643 0.5230460921843687,-0.14271114291938902 0.5270541082164328,-0.15015793821236123 0.531062124248497,-0.15294045218124153 0.5350701402805611,-0.15480960744124006 0.539078156312625,-0.15630680108897954 0.5430861723446891,-0.15529956397597466 0.5470941883767533,-0.15298271389287688 0.5511022044088174,-0.1587435419736467 0.5551102204408815,-0.16596513518006129 0.5591182364729457,-0.16553376156796074 0.5631262525050098,-0.1706973959775917 0.5671342685370739,-0.1653667640108245 0.5711422845691381,-0.16479806446237544 0.5751503006012022,-0.16237278104426467 0.5791583166332663,-0.15876210632433985 0.5831663326653305,-0.15428517920358598 0.5871743486973946,-0.15135147876831967 0.5911823647294587,-0.15277647768334046 0.5951903807615229,-0.15615017548771004 0.599198396793587,-0.15589720501850968 0.6032064128256511,-0.16092152066878773 0.6072144288577153,-0.1605318347778153 0.6112224448897794,-0.15384552215535852 0.6152304609218435,-0.15902566954365116 0.6192384769539077,-0.1597106154705813 0.6232464929859718,-0.16755189769097223 0.6272545090180359,-0.16639282613869832 0.6312625250501,-0.16180693295792803 0.6352705410821642,-0.15967277980734706 0.6392785571142283,-0.15537211126185846 0.6432865731462925,-0.1577733235826836 0.6472945891783566,-0.15709258037293605 0.6513026052104207,-0.16047559275463175 0.6553106212424848,-0.1593266274421099 0.659318637274549,-0.15942748511399563 0.6633266533066131,-0.14954045362416502 0.6673346693386772,-0.1427607399744404 0.6713426853707414,-0.14178875168537075 0.6753507014028055,-0.1396711480651982 0.6793587174348696,-0.10329697619910172 0.6833667334669338,-8.292661128538747e-2 0.6873747494989979,-9.695647075495195e-2 0.691382765531062,-9.126754903876133e-2 0.6953907815631262,-0.11229448840086054 0.6993987975951903,-0.11186922322188464 0.7034068136272544,-9.825298089986756e-2 0.7074148296593186,-9.786990592880962e-2 0.7114228456913827,-9.380813066322724e-2 0.7154308617234468,-8.863614833076705e-2 0.719438877755511,-5.962351915317132e-2 0.7234468937875751,-7.669211388634511e-2 0.7274549098196392,-6.1531768654493724e-2 0.7314629258517034,-5.609182389860434e-2 0.7354709418837675,-7.022273768019138e-2 0.7394789579158316,-7.992916369148106e-2 0.7434869739478958,-8.929051489108297e-2 0.7474949899799597,-8.382461625362525e-2 0.7515030060120238,-8.881022885798218e-2 0.7555110220440879,-9.434530325625456e-2 0.7595190380761521,-0.11328316345679967 0.7635270541082162,-0.11090173679600035 0.7675350701402803,-0.10275259044596463 0.7715430861723445,-8.554792203599748e-2 0.7755511022044086,-8.43453386037859e-2 0.7795591182364727,-7.78835212791037e-2 0.7835671342685369,-8.724554701160181e-2 0.787575150300601,-8.923370409235187e-2 0.7915831663326651,-7.475179369444396e-2 0.7955911823647293,-5.9105370357260045e-2 0.7995991983967934,-6.206164591721475e-2 0.8036072144288575,-5.670754867310501e-2 0.8076152304609217,-7.047884479695721e-2 0.8116232464929858,-7.35161775327191e-2 0.8156312625250499,-9.368529717939555e-2 0.819639278557114,-9.182027609633692e-2 0.8236472945891782,-9.884566359669433e-2 0.8276553106212423,-0.10822280886149938 0.8316633266533064,-8.01774001814417e-2 0.8356713426853706,-7.904327871767014e-2 0.8396793587174347,-5.9387453300884796e-2 0.8436873747494988,-6.1193631890286815e-2 0.847695390781563,-6.1228843988334725e-2 0.8517034068136271,-6.607307997955147e-2 0.8557114228456912,-6.618806701407176e-2 0.8597194388777554,-5.0162722499505596e-2 0.8637274549098195,-3.281482070867414e-2 0.8677354709418836,-3.3508943088170984e-2 0.8717434869739478,-2.1016815825692814e-2 0.8757515030060119,-8.301150725509188e-3 0.879759519038076,8.605389144879516e-3 0.8837675350701402,3.134521326200862e-2 0.8877755511022043,-8.127766103443457e-3 0.8917835671342684,-1.5615420480390108e-2 0.8957915831663326,-1.5353414299853041e-2 0.8997995991983967,-2.2758482303596894e-2 0.9038076152304608,-2.4406790074775975e-2 0.907815631262525,-4.773474038283099e-3 0.9118236472945891,-3.2407917169004374e-2 0.9158316633266532,-3.841500711230461e-2 0.9198396793587174,-4.648381822167824e-2 0.9238476953907815,-5.0080195467447575e-2 0.9278557114228456,-5.398157324347852e-2 0.9318637274549098,-5.415428576481984e-2 0.9358717434869739,-5.026054896309984e-2 0.939879759519038,-5.916441542015294e-2 0.9438877755511021,-6.117818723252044e-2 0.9478957915831663,-6.750122751139764e-2 0.9519038076152302,-7.833515244729994e-2 0.9559118236472943,-6.702105779628309e-2 0.9599198396793585,-6.895516614708408e-2 0.9639278557114226,-7.020625792253976e-2 0.9679358717434867,-7.725614541655379e-2 0.9719438877755509,-7.094009629082543e-2 0.975951903807615,-6.987186802815626e-2 0.9799599198396791,-8.287799444854815e-2 0.9839679358717432,-8.996464872154297e-2 0.9879759519038074,-9.062565397786693e-2 0.9919839679358715,-9.616411890510712e-2 0.9959919839679356,-9.993555795810716e-2 0.9999999999999998,-9.791149403509813e-2" /></g><g /><g stroke-width="4.0e-3" stroke="#3764A0" fill="#FFFFFF" fill-opacity="1.0" stroke-opacity="0.5"><rect width="0.4277426781621746" height="0.2487713863909992" x="0.3462818797368973" y="8.926589858774511e-2" /></g><g stroke-width="0.0" stroke="none" fill="#666666" fill-opacity="1.0" font-size="4.000000000000001e-2" text-anchor="start"><text x="0.3712595543741046" y="0.28992583761067375">rate = 0.99</text></g><g stroke-width="5.0e-3" stroke="#382A8C" fill="none" stroke-opacity="0.5"><polyline points="0.6959693246577991,0.28218106803435017 0.7459246739322136,0.28218106803435017" /></g><g stroke-width="0.0" stroke="none" fill="#666666" fill-opacity="1.0" font-size="4.000000000000001e-2" text-anchor="start"><text x="0.3712595543741046" y="0.22303919126969754">rate = 0.95</text></g><g stroke-width="5.0e-3" stroke="#3C7F2B" fill="none" stroke-opacity="0.5"><polyline points="0.6959693246577991,0.21529442169337398 0.7459246739322136,0.21529442169337398" /></g><g stroke-width="0.0" stroke="none" fill="#666666" fill-opacity="1.0" font-size="4.000000000000001e-2" text-anchor="start"><text x="0.3712595543741046" y="0.15615254492872135">zero</text></g><g stroke-width="5.0e-3" stroke="#C58C4B" fill="none" stroke-opacity="0.5"><polyline points="0.6959693246577991,0.14840777535239777 0.7459246739322136,0.14840777535239777" /></g><g /></svg>