
<svg xmlns="http://www.w3.org/2000/svg" height="300.0" viewBox="-1.081603951867382 -0.7503423852183649 1.8541039518673819 1.5809499006544652" width="450.0" xmlns:xlink="http://www.w3.org/1999/xlink">
  <g transform="translate(-1.0449017946421715, 8.772495032723276e-2)" fill-opacity="1.0" font-size="8.0e-2" stroke="none" stroke-width="0.0" fill="#333333" text-anchor="middle">
    <text transform="rotate(-90.0, 5.7297842774789665e-2, -4.759238521836506e-2)" x="5.7297842774789665e-2" y="-4.759238521836506e-2">sqrt (1/r) * std of ma
    </text>
  </g>
  <g transform="translate(-0.12370089732108575, 0.8161999006544653)" fill-opacity="1.0" font-size="8.0e-2" stroke="none" stroke-width="0.0" fill="#333333" text-anchor="middle">
    <text transform="rotate(0.0, 5.7297842774789665e-2, -4.759238521836506e-2)" x="5.7297842774789665e-2" y="-4.759238521836506e-2">rate
    </text>
  </g>
  <g transform="translate(-0.12370089732108575, -0.5717499999999999)" fill-opacity="1.0" font-size="0.12" stroke="none" stroke-width="0.0" fill="#333333" text-anchor="middle">
    <text transform="rotate(0.0, 5.7297842774789665e-2, -4.759238521836506e-2)" x="5.7297842774789665e-2" y="-4.759238521836506e-2">std of ma
    </text>
  </g>
  <g stroke-opacity="0.0" fill-opacity="0.1" stroke="#000000" stroke-width="0.0" fill="#cccccc">
    <rect height="0.8958566629339305" width="1.3762294514408149" x="-0.6308168829456179" y="-0.49552071668533026"/>
  </g>
  <g stroke-opacity="0.1" stroke="#808080" stroke-width="5.0e-3" fill="none">
    <polyline points="-0.6354043144504206,0.40033594624860025
0.75,0.40033594624860025"/>
  </g>
  <g stroke-opacity="0.1" stroke="#808080" stroke-width="5.0e-3" fill="none">
    <polyline points="-0.6354043144504206,0.3007963170337191
0.75,0.3007963170337191"/>
  </g>
  <g stroke-opacity="0.1" stroke="#808080" stroke-width="5.0e-3" fill="none">
    <polyline points="-0.6354043144504206,0.20125668781883788
0.75,0.20125668781883788"/>
  </g>
  <g stroke-opacity="0.1" stroke="#808080" stroke-width="5.0e-3" fill="none">
    <polyline points="-0.6354043144504206,0.1017170586039568
0.75,0.1017170586039568"/>
  </g>
  <g stroke-opacity="0.1" stroke="#808080" stroke-width="5.0e-3" fill="none">
    <polyline points="-0.6354043144504206,2.177429389075558e-3
0.75,2.177429389075558e-3"/>
  </g>
  <g stroke-opacity="0.1" stroke="#808080" stroke-width="5.0e-3" fill="none">
    <polyline points="-0.6354043144504206,-9.736219982580552e-2
0.75,-9.736219982580552e-2"/>
  </g>
  <g stroke-opacity="0.1" stroke="#808080" stroke-width="5.0e-3" fill="none">
    <polyline points="-0.6354043144504206,-0.19690182904068665
0.75,-0.19690182904068665"/>
  </g>
  <g stroke-opacity="0.1" stroke="#808080" stroke-width="5.0e-3" fill="none">
    <polyline points="-0.6354043144504206,-0.296441458255568
0.75,-0.296441458255568"/>
  </g>
  <g stroke-opacity="0.1" stroke="#808080" stroke-width="5.0e-3" fill="none">
    <polyline points="-0.6354043144504206,-0.39598108747044924
0.75,-0.39598108747044924"/>
  </g>
  <g stroke-opacity="0.1" stroke="#808080" stroke-width="5.0e-3" fill="none">
    <polyline points="-0.6354043144504206,-0.49552071668533026
0.75,-0.49552071668533026"/>
  </g>
  <g fill-opacity="0.8" font-size="5.0e-2" stroke="none" stroke-width="0.0" fill="#333333" text-anchor="end">
    <text x="-0.75" y="0.4133258678611422">-0.02
    </text>
  </g>
  <g fill-opacity="0.8" font-size="5.0e-2" stroke="none" stroke-width="0.0" fill="#333333" text-anchor="end">
    <text x="-0.75" y="0.3137862386462611">0.00
    </text>
  </g>
  <g fill-opacity="0.8" font-size="5.0e-2" stroke="none" stroke-width="0.0" fill="#333333" text-anchor="end">
    <text x="-0.75" y="0.2142466094313799">0.02
    </text>
  </g>
  <g fill-opacity="0.8" font-size="5.0e-2" stroke="none" stroke-width="0.0" fill="#333333" text-anchor="end">
    <text x="-0.75" y="0.11470698021649878">0.04
    </text>
  </g>
  <g fill-opacity="0.8" font-size="5.0e-2" stroke="none" stroke-width="0.0" fill="#333333" text-anchor="end">
    <text x="-0.75" y="1.5167351001617535e-2">0.06
    </text>
  </g>
  <g fill-opacity="0.8" font-size="5.0e-2" stroke="none" stroke-width="0.0" fill="#333333" text-anchor="end">
    <text x="-0.75" y="-8.437227821326365e-2">0.08
    </text>
  </g>
  <g fill-opacity="0.8" font-size="5.0e-2" stroke="none" stroke-width="0.0" fill="#333333" text-anchor="end">
    <text x="-0.75" y="-0.18391190742814467">0.10
    </text>
  </g>
  <g fill-opacity="0.8" font-size="5.0e-2" stroke="none" stroke-width="0.0" fill="#333333" text-anchor="end">
    <text x="-0.75" y="-0.283451536643026">0.12
    </text>
  </g>
  <g fill-opacity="0.8" font-size="5.0e-2" stroke="none" stroke-width="0.0" fill="#333333" text-anchor="end">
    <text x="-0.75" y="-0.38299116585790705">0.14
    </text>
  </g>
  <g fill-opacity="0.8" font-size="5.0e-2" stroke="none" stroke-width="0.0" fill="#333333" text-anchor="end">
    <text x="-0.75" y="-0.4825307950727883">0.16
    </text>
  </g>
  <g stroke-opacity="0.5" fill-opacity="0.5" stroke="#570d66" stroke-width="5.0e-3" fill="#570d66">
    <g transform="rotate(-90.0, -0.7201128837462103, 0.40033594624860025)">
      <polyline points="-0.7201128837462103,0.41533594624860026
-0.7201128837462103,0.38533594624860024"/>
    </g>
    <g transform="rotate(-90.0, -0.7201128837462103, 0.3007963170337191)">
      <polyline points="-0.7201128837462103,0.31579631703371913
-0.7201128837462103,0.2857963170337191"/>
    </g>
    <g transform="rotate(-90.0, -0.7201128837462103, 0.20125668781883788)">
      <polyline points="-0.7201128837462103,0.2162566878188379
-0.7201128837462103,0.18625668781883786"/>
    </g>
    <g transform="rotate(-90.0, -0.7201128837462103, 0.1017170586039568)">
      <polyline points="-0.7201128837462103,0.1167170586039568
-0.7201128837462103,8.67170586039568e-2"/>
    </g>
    <g transform="rotate(-90.0, -0.7201128837462103, 2.177429389075558e-3)">
      <polyline points="-0.7201128837462103,1.7177429389075557e-2
-0.7201128837462103,-1.2822570610924441e-2"/>
    </g>
    <g transform="rotate(-90.0, -0.7201128837462103, -9.736219982580552e-2)">
      <polyline points="-0.7201128837462103,-8.236219982580552e-2
-0.7201128837462103,-0.11236219982580552"/>
    </g>
    <g transform="rotate(-90.0, -0.7201128837462103, -0.19690182904068665)">
      <polyline points="-0.7201128837462103,-0.18190182904068664
-0.7201128837462103,-0.21190182904068666"/>
    </g>
    <g transform="rotate(-90.0, -0.7201128837462103, -0.296441458255568)">
      <polyline points="-0.7201128837462103,-0.281441458255568
-0.7201128837462103,-0.311441458255568"/>
    </g>
    <g transform="rotate(-90.0, -0.7201128837462103, -0.39598108747044924)">
      <polyline points="-0.7201128837462103,-0.38098108747044923
-0.7201128837462103,-0.41098108747044926"/>
    </g>
    <g transform="rotate(-90.0, -0.7201128837462103, -0.49552071668533026)">
      <polyline points="-0.7201128837462103,-0.48052071668533025
-0.7201128837462103,-0.5105207166853303"/>
    </g>
  </g>
  <g stroke-opacity="0.5" fill-opacity="0.5" stroke="#570d66" stroke-width="0.0" fill="#570d66">
    <rect height="0.8958566629339305" width="4.587431504802675e-3" x="-0.7086443049842035" y="-0.49552071668533026"/>
  </g>
  <g stroke-opacity="0.1" stroke="#808080" stroke-width="5.0e-3" fill="none">
    <polyline points="-0.6308168829456179,0.40481522956326993
-0.6308168829456179,-0.5"/>
  </g>
  <g stroke-opacity="0.1" stroke="#808080" stroke-width="5.0e-3" fill="none">
    <polyline points="-0.51613109532555,0.40481522956326993
-0.51613109532555,-0.5"/>
  </g>
  <g stroke-opacity="0.1" stroke="#808080" stroke-width="5.0e-3" fill="none">
    <polyline points="-0.40144530770548204,0.40481522956326993
-0.40144530770548204,-0.5"/>
  </g>
  <g stroke-opacity="0.1" stroke="#808080" stroke-width="5.0e-3" fill="none">
    <polyline points="-0.28675952008541417,0.40481522956326993
-0.28675952008541417,-0.5"/>
  </g>
  <g stroke-opacity="0.1" stroke="#808080" stroke-width="5.0e-3" fill="none">
    <polyline points="-0.17207373246534619,0.40481522956326993
-0.17207373246534619,-0.5"/>
  </g>
  <g stroke-opacity="0.1" stroke="#808080" stroke-width="5.0e-3" fill="none">
    <polyline points="-5.7387944845278316e-2,0.40481522956326993
-5.7387944845278316e-2,-0.5"/>
  </g>
  <g stroke-opacity="0.1" stroke="#808080" stroke-width="5.0e-3" fill="none">
    <polyline points="5.7297842774789665e-2,0.40481522956326993
5.7297842774789665e-2,-0.5"/>
  </g>
  <g stroke-opacity="0.1" stroke="#808080" stroke-width="5.0e-3" fill="none">
    <polyline points="0.17198363039485742,0.40481522956326993
0.17198363039485742,-0.5"/>
  </g>
  <g stroke-opacity="0.1" stroke="#808080" stroke-width="5.0e-3" fill="none">
    <polyline points="0.2866694180149254,0.40481522956326993
0.2866694180149254,-0.5"/>
  </g>
  <g stroke-opacity="0.1" stroke="#808080" stroke-width="5.0e-3" fill="none">
    <polyline points="0.4013552056349934,0.40481522956326993
0.4013552056349934,-0.5"/>
  </g>
  <g stroke-opacity="0.1" stroke="#808080" stroke-width="5.0e-3" fill="none">
    <polyline points="0.5160409932550611,0.40481522956326993
0.5160409932550611,-0.5"/>
  </g>
  <g stroke-opacity="0.1" stroke="#808080" stroke-width="5.0e-3" fill="none">
    <polyline points="0.6307267808751291,0.40481522956326993
0.6307267808751291,-0.5"/>
  </g>
  <g stroke-opacity="0.1" stroke="#808080" stroke-width="5.0e-3" fill="none">
    <polyline points="0.7454125684951971,0.40481522956326993
0.7454125684951971,-0.5"/>
  </g>
  <g fill-opacity="0.8" font-size="5.0e-2" stroke="none" stroke-width="0.0" fill="#333333" text-anchor="end">
    <text transform="rotate(-45.0, -0.6308168829456179, 0.5)" x="-0.6308168829456179" y="0.5">-0.02
    </text>
  </g>
  <g fill-opacity="0.8" font-size="5.0e-2" stroke="none" stroke-width="0.0" fill="#333333" text-anchor="end">
    <text transform="rotate(-45.0, -0.51613109532555, 0.5)" x="-0.51613109532555" y="0.5">0.00
    </text>
  </g>
  <g fill-opacity="0.8" font-size="5.0e-2" stroke="none" stroke-width="0.0" fill="#333333" text-anchor="end">
    <text transform="rotate(-45.0, -0.40144530770548204, 0.5)" x="-0.40144530770548204" y="0.5">0.02
    </text>
  </g>
  <g fill-opacity="0.8" font-size="5.0e-2" stroke="none" stroke-width="0.0" fill="#333333" text-anchor="end">
    <text transform="rotate(-45.0, -0.28675952008541417, 0.5)" x="-0.28675952008541417" y="0.5">0.04
    </text>
  </g>
  <g fill-opacity="0.8" font-size="5.0e-2" stroke="none" stroke-width="0.0" fill="#333333" text-anchor="end">
    <text transform="rotate(-45.0, -0.17207373246534619, 0.5)" x="-0.17207373246534619" y="0.5">0.06
    </text>
  </g>
  <g fill-opacity="0.8" font-size="5.0e-2" stroke="none" stroke-width="0.0" fill="#333333" text-anchor="end">
    <text transform="rotate(-45.0, -5.7387944845278316e-2, 0.5)" x="-5.7387944845278316e-2" y="0.5">0.08
    </text>
  </g>
  <g fill-opacity="0.8" font-size="5.0e-2" stroke="none" stroke-width="0.0" fill="#333333" text-anchor="end">
    <text transform="rotate(-45.0, 5.7297842774789665e-2, 0.5)" x="5.7297842774789665e-2" y="0.5">0.10
    </text>
  </g>
  <g fill-opacity="0.8" font-size="5.0e-2" stroke="none" stroke-width="0.0" fill="#333333" text-anchor="end">
    <text transform="rotate(-45.0, 0.17198363039485742, 0.5)" x="0.17198363039485742" y="0.5">0.12
    </text>
  </g>
  <g fill-opacity="0.8" font-size="5.0e-2" stroke="none" stroke-width="0.0" fill="#333333" text-anchor="end">
    <text transform="rotate(-45.0, 0.2866694180149254, 0.5)" x="0.2866694180149254" y="0.5">0.14
    </text>
  </g>
  <g fill-opacity="0.8" font-size="5.0e-2" stroke="none" stroke-width="0.0" fill="#333333" text-anchor="end">
    <text transform="rotate(-45.0, 0.4013552056349934, 0.5)" x="0.4013552056349934" y="0.5">0.16
    </text>
  </g>
  <g fill-opacity="0.8" font-size="5.0e-2" stroke="none" stroke-width="0.0" fill="#333333" text-anchor="end">
    <text transform="rotate(-45.0, 0.5160409932550611, 0.5)" x="0.5160409932550611" y="0.5">0.18
    </text>
  </g>
  <g fill-opacity="0.8" font-size="5.0e-2" stroke="none" stroke-width="0.0" fill="#333333" text-anchor="end">
    <text transform="rotate(-45.0, 0.6307267808751291, 0.5)" x="0.6307267808751291" y="0.5">0.20
    </text>
  </g>
  <g fill-opacity="0.8" font-size="5.0e-2" stroke="none" stroke-width="0.0" fill="#333333" text-anchor="end">
    <text transform="rotate(-45.0, 0.7454125684951971, 0.5)" x="0.7454125684951971" y="0.5">0.22
    </text>
  </g>
  <g stroke-opacity="0.5" fill-opacity="0.5" stroke="#570d66" stroke-width="5.0e-3" fill="#570d66">
    <polyline points="-0.6308168829456179,0.4399720044792833
-0.6308168829456179,0.4099720044792833"/>
    <polyline points="-0.51613109532555,0.4399720044792833
-0.51613109532555,0.4099720044792833"/>
    <polyline points="-0.40144530770548204,0.4399720044792833
-0.40144530770548204,0.4099720044792833"/>
    <polyline points="-0.28675952008541417,0.4399720044792833
-0.28675952008541417,0.4099720044792833"/>
    <polyline points="-0.17207373246534619,0.4399720044792833
-0.17207373246534619,0.4099720044792833"/>
    <polyline points="-5.7387944845278316e-2,0.4399720044792833
-5.7387944845278316e-2,0.4099720044792833"/>
    <polyline points="5.7297842774789665e-2,0.4399720044792833
5.7297842774789665e-2,0.4099720044792833"/>
    <polyline points="0.17198363039485742,0.4399720044792833
0.17198363039485742,0.4099720044792833"/>
    <polyline points="0.2866694180149254,0.4399720044792833
0.2866694180149254,0.4099720044792833"/>
    <polyline points="0.4013552056349934,0.4399720044792833
0.4013552056349934,0.4099720044792833"/>
    <polyline points="0.5160409932550611,0.4399720044792833
0.5160409932550611,0.4099720044792833"/>
    <polyline points="0.6307267808751291,0.4399720044792833
0.6307267808751291,0.4099720044792833"/>
    <polyline points="0.7454125684951971,0.4399720044792833
0.7454125684951971,0.4099720044792833"/>
  </g>
  <g stroke-opacity="0.5" fill-opacity="0.5" stroke="#570d66" stroke-width="0.0" fill="#570d66">
    <rect height="4.47928331466968e-3" width="1.3762294514408149" x="-0.6308168829456179" y="0.40929451287793955"/>
  </g>
  <g stroke-opacity="1.0" stroke="#026062" stroke-width="1.2e-2" fill="none">
    <polyline points="-0.5103968059445465,0.2964029362290419
-0.48745964842053296,0.28327600418362275
-0.45878820151551597,0.26437333149333114
-0.40144530770548204,0.2276921074465073
-0.22941662627538006,0.12165931054424123
5.729784277478989e-2,-5.974792806348961e-2
0.6307267808751291,-0.4411572549132322"/>
  </g>
</svg>