
<svg xmlns="http://www.w3.org/2000/svg" height="300.0" viewBox="-0.8969862583781796 -0.7291117908787541 1.6733675714790326 1.4621277087112015" width="450.0" xmlns:xlink="http://www.w3.org/1999/xlink">
  <g transform="translate(-8.294640591007696e-2, -0.5475)" fill-opacity="1.0" font-size="0.12" stroke="none" stroke-width="0.0" fill="#000000" text-anchor="middle">
    <text transform="rotate(0.0, 2.2643933271413452e-2, -5.0611790878754115e-2)" x="2.2643933271413452e-2" y="-5.0611790878754115e-2">digitalised return
    </text>
  </g>
  <g stroke-opacity="0.0" fill-opacity="3.0e-2" stroke="#000000" stroke-width="0.0" fill="#666666">
    <rect height="0.8898776418242489" width="1.4474747596588788" x="-0.7010934465580259" y="-0.49555061179087856"/>
  </g>
  <g stroke-opacity="0.3" stroke="#a8e5ee" stroke-width="5.0e-3" fill="none">
    <polyline points="-0.7010934465580259,0.39877641824249166
-0.7010934465580259,-0.5"/>
  </g>
  <g stroke-opacity="0.3" stroke="#a8e5ee" stroke-width="5.0e-3" fill="none">
    <polyline points="-0.6401776751094558,0.39877641824249166
-0.6401776751094558,-0.5"/>
  </g>
  <g stroke-opacity="0.3" stroke="#a8e5ee" stroke-width="5.0e-3" fill="none">
    <polyline points="-0.45452960974238527,0.39877641824249166
-0.45452960974238527,-0.5"/>
  </g>
  <g stroke-opacity="0.3" stroke="#a8e5ee" stroke-width="5.0e-3" fill="none">
    <polyline points="-0.2717822953966751,0.39877641824249166
-0.2717822953966751,-0.5"/>
  </g>
  <g stroke-opacity="0.3" stroke="#a8e5ee" stroke-width="5.0e-3" fill="none">
    <polyline points="-8.903498105096497e-2,0.39877641824249166
-8.903498105096497e-2,-0.5"/>
  </g>
  <g stroke-opacity="0.3" stroke="#a8e5ee" stroke-width="5.0e-3" fill="none">
    <polyline points="8.791083125202404e-2,0.39877641824249166
8.791083125202404e-2,-0.5"/>
  </g>
  <g stroke-opacity="0.3" stroke="#a8e5ee" stroke-width="5.0e-3" fill="none">
    <polyline points="0.2706581455977344,0.39877641824249166
0.2706581455977344,-0.5"/>
  </g>
  <g stroke-opacity="0.3" stroke="#a8e5ee" stroke-width="5.0e-3" fill="none">
    <polyline points="0.45630621096480506,0.39877641824249166
0.45630621096480506,-0.5"/>
  </g>
  <g stroke-opacity="0.3" stroke="#a8e5ee" stroke-width="5.0e-3" fill="none">
    <polyline points="0.6419542763318757,0.39877641824249166
0.6419542763318757,-0.5"/>
  </g>
  <g stroke-opacity="0.3" stroke="#a8e5ee" stroke-width="5.0e-3" fill="none">
    <polyline points="0.746381313100853,0.39877641824249166
0.746381313100853,-0.5"/>
  </g>
  <g fill-opacity="1.0" font-size="5.0e-2" stroke="none" stroke-width="0.0" fill="#666666" text-anchor="end">
    <text transform="rotate(-45.0, -0.7010934465580259, 0.5)" x="-0.7010934465580259" y="0.5">28 Feb 2018
    </text>
  </g>
  <g fill-opacity="1.0" font-size="5.0e-2" stroke="none" stroke-width="0.0" fill="#666666" text-anchor="end">
    <text transform="rotate(-45.0, -0.6401776751094558, 0.5)" x="-0.6401776751094558" y="0.5">31 Mar 2018
    </text>
  </g>
  <g fill-opacity="1.0" font-size="5.0e-2" stroke="none" stroke-width="0.0" fill="#666666" text-anchor="end">
    <text transform="rotate(-45.0, -0.45452960974238527, 0.5)" x="-0.45452960974238527" y="0.5">30 Jun 2018
    </text>
  </g>
  <g fill-opacity="1.0" font-size="5.0e-2" stroke="none" stroke-width="0.0" fill="#666666" text-anchor="end">
    <text transform="rotate(-45.0, -0.2717822953966751, 0.5)" x="-0.2717822953966751" y="0.5">30 Sep 2018
    </text>
  </g>
  <g fill-opacity="1.0" font-size="5.0e-2" stroke="none" stroke-width="0.0" fill="#666666" text-anchor="end">
    <text transform="rotate(-45.0, -8.903498105096497e-2, 0.5)" x="-8.903498105096497e-2" y="0.5">31 Dec 2018
    </text>
  </g>
  <g fill-opacity="1.0" font-size="5.0e-2" stroke="none" stroke-width="0.0" fill="#666666" text-anchor="end">
    <text transform="rotate(-45.0, 8.791083125202404e-2, 0.5)" x="8.791083125202404e-2" y="0.5">31 Mar 2019
    </text>
  </g>
  <g fill-opacity="1.0" font-size="5.0e-2" stroke="none" stroke-width="0.0" fill="#666666" text-anchor="end">
    <text transform="rotate(-45.0, 0.2706581455977344, 0.5)" x="0.2706581455977344" y="0.5">30 Jun 2019
    </text>
  </g>
  <g fill-opacity="1.0" font-size="5.0e-2" stroke="none" stroke-width="0.0" fill="#666666" text-anchor="end">
    <text transform="rotate(-45.0, 0.45630621096480506, 0.5)" x="0.45630621096480506" y="0.5">30 Sep 2019
    </text>
  </g>
  <g fill-opacity="1.0" font-size="5.0e-2" stroke="none" stroke-width="0.0" fill="#666666" text-anchor="end">
    <text transform="rotate(-45.0, 0.6419542763318757, 0.5)" x="0.6419542763318757" y="0.5">31 Dec 2019
    </text>
  </g>
  <g fill-opacity="1.0" font-size="5.0e-2" stroke="none" stroke-width="0.0" fill="#666666" text-anchor="end">
    <text transform="rotate(-45.0, 0.746381313100853, 0.5)" x="0.746381313100853" y="0.5">24 Feb 2020
    </text>
  </g>
  <g stroke-opacity="0.4" fill-opacity="1.0" stroke="#2c429d" stroke-width="5.0e-3" fill="#5f0391">
    <polyline points="-0.7010934465580259,0.44047274749721915
-0.7010934465580259,0.4104727474972191"/>
    <polyline points="-0.6401776751094558,0.44047274749721915
-0.6401776751094558,0.4104727474972191"/>
    <polyline points="-0.45452960974238527,0.44047274749721915
-0.45452960974238527,0.4104727474972191"/>
    <polyline points="-0.2717822953966751,0.44047274749721915
-0.2717822953966751,0.4104727474972191"/>
    <polyline points="-8.903498105096497e-2,0.44047274749721915
-8.903498105096497e-2,0.4104727474972191"/>
    <polyline points="8.791083125202404e-2,0.44047274749721915
8.791083125202404e-2,0.4104727474972191"/>
    <polyline points="0.2706581455977344,0.44047274749721915
0.2706581455977344,0.4104727474972191"/>
    <polyline points="0.45630621096480506,0.44047274749721915
0.45630621096480506,0.4104727474972191"/>
    <polyline points="0.6419542763318757,0.44047274749721915
0.6419542763318757,0.4104727474972191"/>
    <polyline points="0.746381313100853,0.44047274749721915
0.746381313100853,0.4104727474972191"/>
  </g>
  <g stroke-opacity="0.0" fill-opacity="0.5" stroke="#666666" stroke-width="0.0" fill="#5f0391">
    <rect height="4.449388209121219e-3" width="1.4474747596588788" x="-0.7010934465580259" y="0.4121245828698554"/>
  </g>
  <g stroke-opacity="0.3" stroke="#a8e5ee" stroke-width="5.0e-3" fill="none">
    <polyline points="-0.704712133457173,0.34488938326535656
0.75,0.34488938326535656"/>
  </g>
  <g stroke-opacity="0.3" stroke="#a8e5ee" stroke-width="5.0e-3" fill="none">
    <polyline points="-0.704712133457173,0.24601408972932892
0.75,0.24601408972932892"/>
  </g>
  <g stroke-opacity="0.3" stroke="#a8e5ee" stroke-width="5.0e-3" fill="none">
    <polyline points="-0.704712133457173,0.14713879619330117
0.75,0.14713879619330117"/>
  </g>
  <g stroke-opacity="0.3" stroke="#a8e5ee" stroke-width="5.0e-3" fill="none">
    <polyline points="-0.704712133457173,4.826350265727347e-2
0.75,4.826350265727347e-2"/>
  </g>
  <g stroke-opacity="0.3" stroke="#a8e5ee" stroke-width="5.0e-3" fill="none">
    <polyline points="-0.704712133457173,-5.0611790878754115e-2
0.75,-5.0611790878754115e-2"/>
  </g>
  <g stroke-opacity="0.3" stroke="#a8e5ee" stroke-width="5.0e-3" fill="none">
    <polyline points="-0.704712133457173,-0.14948708441478187
0.75,-0.14948708441478187"/>
  </g>
  <g stroke-opacity="0.3" stroke="#a8e5ee" stroke-width="5.0e-3" fill="none">
    <polyline points="-0.704712133457173,-0.2483623779508095
0.75,-0.2483623779508095"/>
  </g>
  <g stroke-opacity="0.3" stroke="#a8e5ee" stroke-width="5.0e-3" fill="none">
    <polyline points="-0.704712133457173,-0.34723767148683726
0.75,-0.34723767148683726"/>
  </g>
  <g stroke-opacity="0.3" stroke="#a8e5ee" stroke-width="5.0e-3" fill="none">
    <polyline points="-0.704712133457173,-0.4461129650228649
0.75,-0.4461129650228649"/>
  </g>
  <g fill-opacity="1.0" font-size="5.0e-2" stroke="none" stroke-width="0.0" fill="#666666" text-anchor="end">
    <text x="-0.75" y="0.35779260907180815">10th
    </text>
  </g>
  <g fill-opacity="1.0" font-size="5.0e-2" stroke="none" stroke-width="0.0" fill="#666666" text-anchor="end">
    <text x="-0.75" y="0.25891731553578057">20th
    </text>
  </g>
  <g fill-opacity="1.0" font-size="5.0e-2" stroke="none" stroke-width="0.0" fill="#666666" text-anchor="end">
    <text x="-0.75" y="0.16004202199975281">30th
    </text>
  </g>
  <g fill-opacity="1.0" font-size="5.0e-2" stroke="none" stroke-width="0.0" fill="#666666" text-anchor="end">
    <text x="-0.75" y="6.116672846372512e-2">40th
    </text>
  </g>
  <g fill-opacity="1.0" font-size="5.0e-2" stroke="none" stroke-width="0.0" fill="#666666" text-anchor="end">
    <text x="-0.75" y="-3.770856507230258e-2">50th
    </text>
  </g>
  <g fill-opacity="1.0" font-size="5.0e-2" stroke="none" stroke-width="0.0" fill="#666666" text-anchor="end">
    <text x="-0.75" y="-0.13658385860833033">60th
    </text>
  </g>
  <g fill-opacity="1.0" font-size="5.0e-2" stroke="none" stroke-width="0.0" fill="#666666" text-anchor="end">
    <text x="-0.75" y="-0.23545915214435797">70th
    </text>
  </g>
  <g fill-opacity="1.0" font-size="5.0e-2" stroke="none" stroke-width="0.0" fill="#666666" text-anchor="end">
    <text x="-0.75" y="-0.3343344456803856">80th
    </text>
  </g>
  <g fill-opacity="1.0" font-size="5.0e-2" stroke="none" stroke-width="0.0" fill="#666666" text-anchor="end">
    <text x="-0.75" y="-0.43320973921641315">90th
    </text>
  </g>
  <g stroke-opacity="0.4" fill-opacity="1.0" stroke="#2c429d" stroke-width="5.0e-3" fill="#5f0391">
    <g transform="rotate(-90.0, -0.7264242548520562, 0.34488938326535656)">
      <polyline points="-0.7264242548520562,0.3598893832653566
-0.7264242548520562,0.32988938326535655"/>
    </g>
    <g transform="rotate(-90.0, -0.7264242548520562, 0.24601408972932892)">
      <polyline points="-0.7264242548520562,0.26101408972932894
-0.7264242548520562,0.2310140897293289"/>
    </g>
    <g transform="rotate(-90.0, -0.7264242548520562, 0.14713879619330117)">
      <polyline points="-0.7264242548520562,0.16213879619330118
-0.7264242548520562,0.13213879619330116"/>
    </g>
    <g transform="rotate(-90.0, -0.7264242548520562, 4.826350265727347e-2)">
      <polyline points="-0.7264242548520562,6.326350265727347e-2
-0.7264242548520562,3.326350265727347e-2"/>
    </g>
    <g transform="rotate(-90.0, -0.7264242548520562, -5.0611790878754115e-2)">
      <polyline points="-0.7264242548520562,-3.5611790878754115e-2
-0.7264242548520562,-6.561179087875411e-2"/>
    </g>
    <g transform="rotate(-90.0, -0.7264242548520562, -0.14948708441478187)">
      <polyline points="-0.7264242548520562,-0.13448708441478185
-0.7264242548520562,-0.16448708441478188"/>
    </g>
    <g transform="rotate(-90.0, -0.7264242548520562, -0.2483623779508095)">
      <polyline points="-0.7264242548520562,-0.2333623779508095
-0.7264242548520562,-0.2633623779508095"/>
    </g>
    <g transform="rotate(-90.0, -0.7264242548520562, -0.34723767148683726)">
      <polyline points="-0.7264242548520562,-0.33223767148683725
-0.7264242548520562,-0.3622376714868373"/>
    </g>
    <g transform="rotate(-90.0, -0.7264242548520562, -0.4461129650228649)">
      <polyline points="-0.7264242548520562,-0.4311129650228649
-0.7264242548520562,-0.4611129650228649"/>
    </g>
  </g>
  <g stroke-opacity="0.0" fill-opacity="0.5" stroke="#666666" stroke-width="0.0" fill="#5f0391">
    <rect height="0.8898776418242489" width="3.6186868991471277e-3" x="-0.7191868810537617" y="-0.49555061179087856"/>
  </g>
  <g stroke-opacity="0.4" fill-opacity="0.8" stroke="#2c429d" stroke-width="3.0e-3" fill="#5da5da">
    <circle cy="0.3943270300333704" r="5.0e-3" cx="-0.7010934465580259"/>
    <circle cy="0.3943270300333704" r="5.0e-3" cx="-0.6981926955366653"/>
    <circle cy="-0.2978000247188233" r="5.0e-3" cx="-0.6952919445153048"/>
    <circle cy="-0.49555061179087856" r="5.0e-3" cx="-0.6923911934939444"/>
    <circle cy="-0.19892473118279563" r="5.0e-3" cx="-0.689490442472584"/>
    <circle cy="9.77011494252874e-2" r="5.0e-3" cx="-0.6865896914512234"/>
    <circle cy="-0.2978000247188233" r="5.0e-3" cx="-0.683688940429863"/>
    <circle cy="-0.49555061179087856" r="5.0e-3" cx="-0.6807881894085025"/>
    <circle cy="0.19657644296131505" r="5.0e-3" cx="-0.677887438387142"/>
    <circle cy="0.3943270300333704" r="5.0e-3" cx="-0.6749866873657815"/>
    <circle cy="0.2954517364973427" r="5.0e-3" cx="-0.672085936344421"/>
    <circle cy="9.77011494252874e-2" r="5.0e-3" cx="-0.6691851853230606"/>
    <circle cy="-0.10004943764676799" r="5.0e-3" cx="-0.6662844343017"/>
    <circle cy="0.3943270300333704" r="5.0e-3" cx="-0.6633836832803396"/>
    <circle cy="-0.10004943764676799" r="5.0e-3" cx="-0.6604829322589791"/>
    <circle cy="0.19657644296131505" r="5.0e-3" cx="-0.6575821812376187"/>
    <circle cy="0.3943270300333704" r="5.0e-3" cx="-0.6546814302162582"/>
    <circle cy="0.3943270300333704" r="5.0e-3" cx="-0.6517806791948977"/>
    <circle cy="-0.49555061179087856" r="5.0e-3" cx="-0.6488799281735372"/>
    <circle cy="0.3943270300333704" r="5.0e-3" cx="-0.6459791771521768"/>
    <circle cy="0.19657644296131505" r="5.0e-3" cx="-0.6430784261308163"/>
    <circle cy="-0.49555061179087856" r="5.0e-3" cx="-0.6401776751094558"/>
    <circle cy="0.3943270300333704" r="5.0e-3" cx="-0.6372769240880953"/>
    <circle cy="-0.49555061179087856" r="5.0e-3" cx="-0.6343761730667349"/>
    <circle cy="-0.49555061179087856" r="5.0e-3" cx="-0.6314754220453743"/>
    <circle cy="-0.3966753182548509" r="5.0e-3" cx="-0.6285746710240139"/>
    <circle cy="0.3943270300333704" r="5.0e-3" cx="-0.6256739200026534"/>
    <circle cy="-0.2978000247188233" r="5.0e-3" cx="-0.622773168981293"/>
    <circle cy="-0.49555061179087856" r="5.0e-3" cx="-0.6198724179599324"/>
    <circle cy="0.2954517364973427" r="5.0e-3" cx="-0.616971666938572"/>
    <circle cy="-0.3966753182548509" r="5.0e-3" cx="-0.6140709159172115"/>
    <circle cy="0.19657644296131505" r="5.0e-3" cx="-0.611170164895851"/>
    <circle cy="-0.3966753182548509" r="5.0e-3" cx="-0.6082694138744905"/>
    <circle cy="-0.3966753182548509" r="5.0e-3" cx="-0.6053686628531301"/>
    <circle cy="-0.10004943764676799" r="5.0e-3" cx="-0.6024679118317695"/>
    <circle cy="0.2954517364973427" r="5.0e-3" cx="-0.5995671608104091"/>
    <circle cy="0.2954517364973427" r="5.0e-3" cx="-0.5966664097890486"/>
    <circle cy="-1.1741441107403494e-3" r="5.0e-3" cx="-0.5937656587676882"/>
    <circle cy="0.3943270300333704" r="5.0e-3" cx="-0.5908649077463277"/>
    <circle cy="-0.19892473118279563" r="5.0e-3" cx="-0.5879641567249672"/>
    <circle cy="-0.3966753182548509" r="5.0e-3" cx="-0.5850634057036067"/>
    <circle cy="-0.10004943764676799" r="5.0e-3" cx="-0.5821626546822463"/>
    <circle cy="0.2954517364973427" r="5.0e-3" cx="-0.5792619036608857"/>
    <circle cy="-0.19892473118279563" r="5.0e-3" cx="-0.5763611526395254"/>
    <circle cy="0.2954517364973427" r="5.0e-3" cx="-0.5734604016181648"/>
    <circle cy="0.19657644296131505" r="5.0e-3" cx="-0.5705596505968044"/>
    <circle cy="-0.49555061179087856" r="5.0e-3" cx="-0.5676588995754439"/>
    <circle cy="-0.2978000247188233" r="5.0e-3" cx="-0.5647581485540834"/>
    <circle cy="-1.1741441107403494e-3" r="5.0e-3" cx="-0.5618573975327229"/>
    <circle cy="-0.3966753182548509" r="5.0e-3" cx="-0.5589566465113625"/>
    <circle cy="-0.3966753182548509" r="5.0e-3" cx="-0.5560558954900019"/>
    <circle cy="-0.10004943764676799" r="5.0e-3" cx="-0.5531551444686414"/>
    <circle cy="-0.10004943764676799" r="5.0e-3" cx="-0.550254393447281"/>
    <circle cy="0.2954517364973427" r="5.0e-3" cx="-0.5473536424259204"/>
    <circle cy="-0.2978000247188233" r="5.0e-3" cx="-0.54445289140456"/>
    <circle cy="9.77011494252874e-2" r="5.0e-3" cx="-0.5415521403831995"/>
    <circle cy="0.19657644296131505" r="5.0e-3" cx="-0.538651389361839"/>
    <circle cy="-0.2978000247188233" r="5.0e-3" cx="-0.5357506383404785"/>
    <circle cy="0.19657644296131505" r="5.0e-3" cx="-0.5328498873191181"/>
    <circle cy="-0.19892473118279563" r="5.0e-3" cx="-0.5299491362977576"/>
    <circle cy="0.19657644296131505" r="5.0e-3" cx="-0.5270483852763972"/>
    <circle cy="0.19657644296131505" r="5.0e-3" cx="-0.5241476342550366"/>
    <circle cy="0.3943270300333704" r="5.0e-3" cx="-0.5212468832336761"/>
    <circle cy="-0.49555061179087856" r="5.0e-3" cx="-0.5183461322123156"/>
    <circle cy="0.2954517364973427" r="5.0e-3" cx="-0.5154453811909552"/>
    <circle cy="-0.3966753182548509" r="5.0e-3" cx="-0.5125446301695947"/>
    <circle cy="-0.2978000247188233" r="5.0e-3" cx="-0.5096438791482343"/>
    <circle cy="-1.1741441107403494e-3" r="5.0e-3" cx="-0.5067431281268737"/>
    <circle cy="-0.3966753182548509" r="5.0e-3" cx="-0.5038423771055133"/>
    <circle cy="9.77011494252874e-2" r="5.0e-3" cx="-0.5009416260841528"/>
    <circle cy="-0.19892473118279563" r="5.0e-3" cx="-0.4980408750627923"/>
    <circle cy="-0.10004943764676799" r="5.0e-3" cx="-0.49514012404143193"/>
    <circle cy="-0.10004943764676799" r="5.0e-3" cx="-0.4922393730200714"/>
    <circle cy="0.2954517364973427" r="5.0e-3" cx="-0.4893386219987109"/>
    <circle cy="-0.19892473118279563" r="5.0e-3" cx="-0.4864378709773505"/>
    <circle cy="9.77011494252874e-2" r="5.0e-3" cx="-0.48353711995598997"/>
    <circle cy="0.19657644296131505" r="5.0e-3" cx="-0.48063636893462947"/>
    <circle cy="0.2954517364973427" r="5.0e-3" cx="-0.477735617913269"/>
    <circle cy="-0.10004943764676799" r="5.0e-3" cx="-0.4748348668919085"/>
    <circle cy="0.2954517364973427" r="5.0e-3" cx="-0.47193411587054807"/>
    <circle cy="-0.19892473118279563" r="5.0e-3" cx="-0.46903336484918756"/>
    <circle cy="0.3943270300333704" r="5.0e-3" cx="-0.4661326138278271"/>
    <circle cy="-0.19892473118279563" r="5.0e-3" cx="-0.4632318628064666"/>
    <circle cy="0.3943270300333704" r="5.0e-3" cx="-0.4603311117851061"/>
    <circle cy="-0.2978000247188233" r="5.0e-3" cx="-0.4574303607637457"/>
    <circle cy="-1.1741441107403494e-3" r="5.0e-3" cx="-0.45452960974238527"/>
    <circle cy="-0.19892473118279563" r="5.0e-3" cx="-0.45162885872102476"/>
    <circle cy="0.2954517364973427" r="5.0e-3" cx="-0.44872810769966426"/>
    <circle cy="-0.3966753182548509" r="5.0e-3" cx="-0.44582735667830375"/>
    <circle cy="-0.3966753182548509" r="5.0e-3" cx="-0.4429266056569433"/>
    <circle cy="-0.3966753182548509" r="5.0e-3" cx="-0.44002585463558286"/>
    <circle cy="-0.2978000247188233" r="5.0e-3" cx="-0.43712510361422235"/>
    <circle cy="0.2954517364973427" r="5.0e-3" cx="-0.43422435259286185"/>
    <circle cy="-0.3966753182548509" r="5.0e-3" cx="-0.4313236015715014"/>
    <circle cy="-0.10004943764676799" r="5.0e-3" cx="-0.4284228505501409"/>
    <circle cy="9.77011494252874e-2" r="5.0e-3" cx="-0.42552209952878045"/>
    <circle cy="-0.2978000247188233" r="5.0e-3" cx="-0.42262134850741995"/>
    <circle cy="-0.19892473118279563" r="5.0e-3" cx="-0.41972059748605944"/>
    <circle cy="0.19657644296131505" r="5.0e-3" cx="-0.41681984646469894"/>
    <circle cy="9.77011494252874e-2" r="5.0e-3" cx="-0.4139190954433385"/>
    <circle cy="-0.10004943764676799" r="5.0e-3" cx="-0.41101834442197804"/>
    <circle cy="-0.2978000247188233" r="5.0e-3" cx="-0.40811759340061754"/>
    <circle cy="-0.3966753182548509" r="5.0e-3" cx="-0.40521684237925704"/>
    <circle cy="0.19657644296131505" r="5.0e-3" cx="-0.4023160913578966"/>
    <circle cy="0.2954517364973427" r="5.0e-3" cx="-0.3994153403365361"/>
    <circle cy="0.2954517364973427" r="5.0e-3" cx="-0.39651458931517564"/>
    <circle cy="-0.2978000247188233" r="5.0e-3" cx="-0.39361383829381513"/>
    <circle cy="9.77011494252874e-2" r="5.0e-3" cx="-0.39071308727245463"/>
    <circle cy="-0.2978000247188233" r="5.0e-3" cx="-0.3878123362510941"/>
    <circle cy="-0.2978000247188233" r="5.0e-3" cx="-0.3849115852297337"/>
    <circle cy="-0.19892473118279563" r="5.0e-3" cx="-0.38201083420837323"/>
    <circle cy="-0.19892473118279563" r="5.0e-3" cx="-0.3791100831870127"/>
    <circle cy="-1.1741441107403494e-3" r="5.0e-3" cx="-0.3762093321656522"/>
    <circle cy="9.77011494252874e-2" r="5.0e-3" cx="-0.3733085811442918"/>
    <circle cy="0.3943270300333704" r="5.0e-3" cx="-0.3704078301229313"/>
    <circle cy="0.2954517364973427" r="5.0e-3" cx="-0.36750707910157077"/>
    <circle cy="-0.3966753182548509" r="5.0e-3" cx="-0.3646063280802103"/>
    <circle cy="0.3943270300333704" r="5.0e-3" cx="-0.36170557705884987"/>
    <circle cy="-0.3966753182548509" r="5.0e-3" cx="-0.3588048260374893"/>
    <circle cy="-0.19892473118279563" r="5.0e-3" cx="-0.35590407501612886"/>
    <circle cy="-0.19892473118279563" r="5.0e-3" cx="-0.35300332399476836"/>
    <circle cy="-0.10004943764676799" r="5.0e-3" cx="-0.3501025729734079"/>
    <circle cy="9.77011494252874e-2" r="5.0e-3" cx="-0.3472018219520475"/>
    <circle cy="9.77011494252874e-2" r="5.0e-3" cx="-0.344301070930687"/>
    <circle cy="-0.3966753182548509" r="5.0e-3" cx="-0.34140031990932657"/>
    <circle cy="-0.3966753182548509" r="5.0e-3" cx="-0.33849956888796606"/>
    <circle cy="-1.1741441107403494e-3" r="5.0e-3" cx="-0.3355988178666056"/>
    <circle cy="-0.2978000247188233" r="5.0e-3" cx="-0.33269806684524517"/>
    <circle cy="0.2954517364973427" r="5.0e-3" cx="-0.3297973158238846"/>
    <circle cy="-1.1741441107403494e-3" r="5.0e-3" cx="-0.32689656480252416"/>
    <circle cy="0.19657644296131505" r="5.0e-3" cx="-0.3239958137811636"/>
    <circle cy="0.19657644296131505" r="5.0e-3" cx="-0.32109506275980315"/>
    <circle cy="0.19657644296131505" r="5.0e-3" cx="-0.3181943117384427"/>
    <circle cy="0.19657644296131505" r="5.0e-3" cx="-0.3152935607170822"/>
    <circle cy="-0.10004943764676799" r="5.0e-3" cx="-0.31239280969572175"/>
    <circle cy="-0.2978000247188233" r="5.0e-3" cx="-0.30949205867436125"/>
    <circle cy="-1.1741441107403494e-3" r="5.0e-3" cx="-0.3065913076530008"/>
    <circle cy="-0.2978000247188233" r="5.0e-3" cx="-0.30369055663164035"/>
    <circle cy="-1.1741441107403494e-3" r="5.0e-3" cx="-0.3007898056102798"/>
    <circle cy="0.2954517364973427" r="5.0e-3" cx="-0.29788905458891934"/>
    <circle cy="-0.2978000247188233" r="5.0e-3" cx="-0.2949883035675588"/>
    <circle cy="-0.10004943764676799" r="5.0e-3" cx="-0.29208755254619845"/>
    <circle cy="-0.3966753182548509" r="5.0e-3" cx="-0.2891868015248379"/>
    <circle cy="9.77011494252874e-2" r="5.0e-3" cx="-0.28628605050347744"/>
    <circle cy="0.2954517364973427" r="5.0e-3" cx="-0.283385299482117"/>
    <circle cy="9.77011494252874e-2" r="5.0e-3" cx="-0.2804845484607565"/>
    <circle cy="0.19657644296131505" r="5.0e-3" cx="-0.27758379743939604"/>
    <circle cy="-0.19892473118279563" r="5.0e-3" cx="-0.27468304641803554"/>
    <circle cy="-1.1741441107403494e-3" r="5.0e-3" cx="-0.2717822953966751"/>
    <circle cy="-0.2978000247188233" r="5.0e-3" cx="-0.26888154437531464"/>
    <circle cy="-1.1741441107403494e-3" r="5.0e-3" cx="-0.2659807933539541"/>
    <circle cy="-0.10004943764676799" r="5.0e-3" cx="-0.26308004233259363"/>
    <circle cy="0.3943270300333704" r="5.0e-3" cx="-0.2601792913112331"/>
    <circle cy="0.2954517364973427" r="5.0e-3" cx="-0.2572785402898726"/>
    <circle cy="9.77011494252874e-2" r="5.0e-3" cx="-0.2543777892685122"/>
    <circle cy="9.77011494252874e-2" r="5.0e-3" cx="-0.2514770382471517"/>
    <circle cy="0.3943270300333704" r="5.0e-3" cx="-0.24857628722579128"/>
    <circle cy="0.3943270300333704" r="5.0e-3" cx="-0.24567553620443072"/>
    <circle cy="-0.49555061179087856" r="5.0e-3" cx="-0.24277478518307027"/>
    <circle cy="0.2954517364973427" r="5.0e-3" cx="-0.23987403416170983"/>
    <circle cy="-0.49555061179087856" r="5.0e-3" cx="-0.23697328314034927"/>
    <circle cy="-1.1741441107403494e-3" r="5.0e-3" cx="-0.23407253211898882"/>
    <circle cy="0.3943270300333704" r="5.0e-3" cx="-0.23117178109762826"/>
    <circle cy="-1.1741441107403494e-3" r="5.0e-3" cx="-0.2282710300762678"/>
    <circle cy="0.2954517364973427" r="5.0e-3" cx="-0.22537027905490736"/>
    <circle cy="0.2954517364973427" r="5.0e-3" cx="-0.22246952803354691"/>
    <circle cy="0.3943270300333704" r="5.0e-3" cx="-0.21956877701218636"/>
    <circle cy="-0.49555061179087856" r="5.0e-3" cx="-0.21666802599082602"/>
    <circle cy="0.3943270300333704" r="5.0e-3" cx="-0.21376727496946546"/>
    <circle cy="0.2954517364973427" r="5.0e-3" cx="-0.21086652394810512"/>
    <circle cy="-0.49555061179087856" r="5.0e-3" cx="-0.20796577292674456"/>
    <circle cy="-0.49555061179087856" r="5.0e-3" cx="-0.20506502190538412"/>
    <circle cy="-0.49555061179087856" r="5.0e-3" cx="-0.20216427088402356"/>
    <circle cy="0.2954517364973427" r="5.0e-3" cx="-0.1992635198626631"/>
    <circle cy="-0.2978000247188233" r="5.0e-3" cx="-0.19636276884130266"/>
    <circle cy="-0.3966753182548509" r="5.0e-3" cx="-0.1934620178199421"/>
    <circle cy="-0.49555061179087856" r="5.0e-3" cx="-0.19056126679858165"/>
    <circle cy="9.77011494252874e-2" r="5.0e-3" cx="-0.1876605157772211"/>
    <circle cy="0.3943270300333704" r="5.0e-3" cx="-0.18475976475586076"/>
    <circle cy="0.3943270300333704" r="5.0e-3" cx="-0.1818590137345002"/>
    <circle cy="9.77011494252874e-2" r="5.0e-3" cx="-0.17895826271313975"/>
    <circle cy="0.2954517364973427" r="5.0e-3" cx="-0.1760575116917793"/>
    <circle cy="-0.3966753182548509" r="5.0e-3" cx="-0.17315676067041874"/>
    <circle cy="-0.19892473118279563" r="5.0e-3" cx="-0.1702560096490583"/>
    <circle cy="0.3943270300333704" r="5.0e-3" cx="-0.16735525862769784"/>
    <circle cy="0.3943270300333704" r="5.0e-3" cx="-0.16445450760633729"/>
    <circle cy="-0.19892473118279563" r="5.0e-3" cx="-0.16155375658497684"/>
    <circle cy="0.2954517364973427" r="5.0e-3" cx="-0.1586530055636164"/>
    <circle cy="-0.49555061179087856" r="5.0e-3" cx="-0.15575225454225583"/>
    <circle cy="-0.19892473118279563" r="5.0e-3" cx="-0.1528515035208955"/>
    <circle cy="-0.49555061179087856" r="5.0e-3" cx="-0.14995075249953493"/>
    <circle cy="9.77011494252874e-2" r="5.0e-3" cx="-0.14705000147817449"/>
    <circle cy="-0.3966753182548509" r="5.0e-3" cx="-0.14414925045681404"/>
    <circle cy="-0.49555061179087856" r="5.0e-3" cx="-0.1412484994354536"/>
    <circle cy="0.3943270300333704" r="5.0e-3" cx="-0.13834774841409314"/>
    <circle cy="9.77011494252874e-2" r="5.0e-3" cx="-0.13544699739273258"/>
    <circle cy="0.3943270300333704" r="5.0e-3" cx="-0.13254624637137213"/>
    <circle cy="-0.10004943764676799" r="5.0e-3" cx="-0.12964549535001157"/>
    <circle cy="-1.1741441107403494e-3" r="5.0e-3" cx="-0.12674474432865113"/>
    <circle cy="-0.2978000247188233" r="5.0e-3" cx="-0.12384399330729068"/>
    <circle cy="-1.1741441107403494e-3" r="5.0e-3" cx="-0.12094324228593023"/>
    <circle cy="0.3943270300333704" r="5.0e-3" cx="-0.11804249126456967"/>
    <circle cy="0.3943270300333704" r="5.0e-3" cx="-0.11514174024320922"/>
    <circle cy="-0.10004943764676799" r="5.0e-3" cx="-0.11224098922184877"/>
    <circle cy="0.2954517364973427" r="5.0e-3" cx="-0.10934023820048833"/>
    <circle cy="0.2954517364973427" r="5.0e-3" cx="-0.10643948717912777"/>
    <circle cy="0.3943270300333704" r="5.0e-3" cx="-0.10353873615776732"/>
    <circle cy="0.3943270300333704" r="5.0e-3" cx="-0.10063798513640676"/>
    <circle cy="-0.49555061179087856" r="5.0e-3" cx="-9.773723411504631e-2"/>
    <circle cy="-0.3966753182548509" r="5.0e-3" cx="-9.483648309368586e-2"/>
    <circle cy="-1.1741441107403494e-3" r="5.0e-3" cx="-9.19357320723253e-2"/>
    <circle cy="-0.3966753182548509" r="5.0e-3" cx="-8.903498105096497e-2"/>
    <circle cy="-0.10004943764676799" r="5.0e-3" cx="-8.613423002960441e-2"/>
    <circle cy="0.3943270300333704" r="5.0e-3" cx="-8.323347900824396e-2"/>
    <circle cy="-0.49555061179087856" r="5.0e-3" cx="-8.033272798688351e-2"/>
    <circle cy="-0.2978000247188233" r="5.0e-3" cx="-7.743197696552295e-2"/>
    <circle cy="-0.3966753182548509" r="5.0e-3" cx="-7.45312259441625e-2"/>
    <circle cy="-0.2978000247188233" r="5.0e-3" cx="-7.163047492280195e-2"/>
    <circle cy="-0.2978000247188233" r="5.0e-3" cx="-6.872972390144161e-2"/>
    <circle cy="-1.1741441107403494e-3" r="5.0e-3" cx="-6.582897288008116e-2"/>
    <circle cy="0.19657644296131505" r="5.0e-3" cx="-6.29282218587206e-2"/>
    <circle cy="-0.3966753182548509" r="5.0e-3" cx="-6.002747083736015e-2"/>
    <circle cy="-0.19892473118279563" r="5.0e-3" cx="-5.7126719815999705e-2"/>
    <circle cy="-0.3966753182548509" r="5.0e-3" cx="-5.4225968794639146e-2"/>
    <circle cy="-0.49555061179087856" r="5.0e-3" cx="-5.132521777327881e-2"/>
    <circle cy="0.2954517364973427" r="5.0e-3" cx="-4.842446675191825e-2"/>
    <circle cy="-0.19892473118279563" r="5.0e-3" cx="-4.55237157305578e-2"/>
    <circle cy="-0.10004943764676799" r="5.0e-3" cx="-4.262296470919724e-2"/>
    <circle cy="-0.3966753182548509" r="5.0e-3" cx="-3.9722213687836794e-2"/>
    <circle cy="0.2954517364973427" r="5.0e-3" cx="-3.6821462666476346e-2"/>
    <circle cy="9.77011494252874e-2" r="5.0e-3" cx="-3.3920711645115786e-2"/>
    <circle cy="-0.49555061179087856" r="5.0e-3" cx="-3.1019960623755338e-2"/>
    <circle cy="-0.3966753182548509" r="5.0e-3" cx="-2.811920960239478e-2"/>
    <circle cy="-0.10004943764676799" r="5.0e-3" cx="-2.5218458581034442e-2"/>
    <circle cy="-0.2978000247188233" r="5.0e-3" cx="-2.2317707559673883e-2"/>
    <circle cy="-0.2978000247188233" r="5.0e-3" cx="-1.9416956538313546e-2"/>
    <circle cy="9.77011494252874e-2" r="5.0e-3" cx="-1.6516205516952875e-2"/>
    <circle cy="0.2954517364973427" r="5.0e-3" cx="-1.3615454495592538e-2"/>
    <circle cy="-1.1741441107403494e-3" r="5.0e-3" cx="-1.0714703474231868e-2"/>
    <circle cy="-1.1741441107403494e-3" r="5.0e-3" cx="-7.813952452871642e-3"/>
    <circle cy="-0.49555061179087856" r="5.0e-3" cx="-4.913201431510972e-3"/>
    <circle cy="-0.19892473118279563" r="5.0e-3" cx="-2.0124504101506346e-3"/>
    <circle cy="0.19657644296131505" r="5.0e-3" cx="8.883006112099245e-4"/>
    <circle cy="-0.3966753182548509" r="5.0e-3" cx="3.7890516325704837e-3"/>
    <circle cy="-0.10004943764676799" r="5.0e-3" cx="6.689802653930821e-3"/>
    <circle cy="-0.10004943764676799" r="5.0e-3" cx="9.59055367529138e-3"/>
    <circle cy="0.19657644296131505" r="5.0e-3" cx="1.2491304696651717e-2"/>
    <circle cy="-0.2978000247188233" r="5.0e-3" cx="1.5392055718012276e-2"/>
    <circle cy="-0.10004943764676799" r="5.0e-3" cx="1.8292806739372836e-2"/>
    <circle cy="9.77011494252874e-2" r="5.0e-3" cx="2.1193557760733284e-2"/>
    <circle cy="9.77011494252874e-2" r="5.0e-3" cx="2.4094308782093732e-2"/>
    <circle cy="0.19657644296131505" r="5.0e-3" cx="2.699505980345418e-2"/>
    <circle cy="-0.2978000247188233" r="5.0e-3" cx="2.9895810824814628e-2"/>
    <circle cy="0.19657644296131505" r="5.0e-3" cx="3.279656184617519e-2"/>
    <circle cy="9.77011494252874e-2" r="5.0e-3" cx="3.5697312867535747e-2"/>
    <circle cy="0.2954517364973427" r="5.0e-3" cx="3.8598063888896084e-2"/>
    <circle cy="0.2954517364973427" r="5.0e-3" cx="4.149881491025664e-2"/>
    <circle cy="9.77011494252874e-2" r="5.0e-3" cx="4.439956593161698e-2"/>
    <circle cy="-0.49555061179087856" r="5.0e-3" cx="4.730031695297765e-2"/>
    <circle cy="-0.19892473118279563" r="5.0e-3" cx="5.02010679743381e-2"/>
    <circle cy="-0.2978000247188233" r="5.0e-3" cx="5.3101818995698546e-2"/>
    <circle cy="9.77011494252874e-2" r="5.0e-3" cx="5.6002570017058995e-2"/>
    <circle cy="-0.2978000247188233" r="5.0e-3" cx="5.890332103841944e-2"/>
    <circle cy="-0.19892473118279563" r="5.0e-3" cx="6.180407205978011e-2"/>
    <circle cy="-1.1741441107403494e-3" r="5.0e-3" cx="6.470482308114045e-2"/>
    <circle cy="0.19657644296131505" r="5.0e-3" cx="6.760557410250101e-2"/>
    <circle cy="-0.3966753182548509" r="5.0e-3" cx="7.050632512386135e-2"/>
    <circle cy="0.3943270300333704" r="5.0e-3" cx="7.34070761452219e-2"/>
    <circle cy="9.77011494252874e-2" r="5.0e-3" cx="7.630782716658246e-2"/>
    <circle cy="-0.3966753182548509" r="5.0e-3" cx="7.920857818794291e-2"/>
    <circle cy="0.19657644296131505" r="5.0e-3" cx="8.210932920930336e-2"/>
    <circle cy="-0.19892473118279563" r="5.0e-3" cx="8.501008023066381e-2"/>
    <circle cy="-0.3966753182548509" r="5.0e-3" cx="8.791083125202426e-2"/>
    <circle cy="-0.49555061179087856" r="5.0e-3" cx="9.08115822733847e-2"/>
    <circle cy="-1.1741441107403494e-3" r="5.0e-3" cx="9.371233329474538e-2"/>
    <circle cy="-0.10004943764676799" r="5.0e-3" cx="9.661308431610571e-2"/>
    <circle cy="-0.10004943764676799" r="5.0e-3" cx="9.951383533746627e-2"/>
    <circle cy="-0.2978000247188233" r="5.0e-3" cx="0.10241458635882661"/>
    <circle cy="-0.10004943764676799" r="5.0e-3" cx="0.10531533738018717"/>
    <circle cy="0.2954517364973427" r="5.0e-3" cx="0.10821608840154773"/>
    <circle cy="-0.19892473118279563" r="5.0e-3" cx="0.11111683942290818"/>
    <circle cy="-1.1741441107403494e-3" r="5.0e-3" cx="0.11401759044426862"/>
    <circle cy="-0.3966753182548509" r="5.0e-3" cx="0.11691834146562896"/>
    <circle cy="9.77011494252874e-2" r="5.0e-3" cx="0.11981909248698952"/>
    <circle cy="-1.1741441107403494e-3" r="5.0e-3" cx="0.12271984350834997"/>
    <circle cy="0.19657644296131505" r="5.0e-3" cx="0.12562059452971042"/>
    <circle cy="-0.10004943764676799" r="5.0e-3" cx="0.12852134555107086"/>
    <circle cy="-0.10004943764676799" r="5.0e-3" cx="0.1314220965724313"/>
    <circle cy="-0.3966753182548509" r="5.0e-3" cx="0.13432284759379187"/>
    <circle cy="0.19657644296131505" r="5.0e-3" cx="0.13722359861515243"/>
    <circle cy="-1.1741441107403494e-3" r="5.0e-3" cx="0.14012434963651277"/>
    <circle cy="-0.2978000247188233" r="5.0e-3" cx="0.14302510065787333"/>
    <circle cy="-0.10004943764676799" r="5.0e-3" cx="0.14592585167923366"/>
    <circle cy="-1.1741441107403494e-3" r="5.0e-3" cx="0.14882660270059433"/>
    <circle cy="0.2954517364973427" r="5.0e-3" cx="0.15172735372195478"/>
    <circle cy="0.19657644296131505" r="5.0e-3" cx="0.15462810474331523"/>
    <circle cy="-0.3966753182548509" r="5.0e-3" cx="0.15752885576467568"/>
    <circle cy="0.2954517364973427" r="5.0e-3" cx="0.16042960678603613"/>
    <circle cy="0.3943270300333704" r="5.0e-3" cx="0.1633303578073968"/>
    <circle cy="9.77011494252874e-2" r="5.0e-3" cx="0.16623110882875713"/>
    <circle cy="0.19657644296131505" r="5.0e-3" cx="0.1691318598501177"/>
    <circle cy="-0.19892473118279563" r="5.0e-3" cx="0.17203261087147803"/>
    <circle cy="0.3943270300333704" r="5.0e-3" cx="0.1749333618928386"/>
    <circle cy="-0.3966753182548509" r="5.0e-3" cx="0.17783411291419915"/>
    <circle cy="-0.2978000247188233" r="5.0e-3" cx="0.1807348639355596"/>
    <circle cy="-0.3966753182548509" r="5.0e-3" cx="0.18363561495692005"/>
    <circle cy="0.2954517364973427" r="5.0e-3" cx="0.1865363659782805"/>
    <circle cy="0.2954517364973427" r="5.0e-3" cx="0.18943711699964094"/>
    <circle cy="-0.3966753182548509" r="5.0e-3" cx="0.1923378680210015"/>
    <circle cy="0.19657644296131505" r="5.0e-3" cx="0.19523861904236206"/>
    <circle cy="0.3943270300333704" r="5.0e-3" cx="0.1981393700637224"/>
    <circle cy="-0.10004943764676799" r="5.0e-3" cx="0.20104012108508296"/>
    <circle cy="0.2954517364973427" r="5.0e-3" cx="0.2039408721064433"/>
    <circle cy="0.2954517364973427" r="5.0e-3" cx="0.20684162312780396"/>
    <circle cy="-0.19892473118279563" r="5.0e-3" cx="0.2097423741491644"/>
    <circle cy="0.3943270300333704" r="5.0e-3" cx="0.21264312517052486"/>
    <circle cy="0.19657644296131505" r="5.0e-3" cx="0.2155438761918853"/>
    <circle cy="-0.49555061179087856" r="5.0e-3" cx="0.21844462721324576"/>
    <circle cy="-0.3966753182548509" r="5.0e-3" cx="0.22134537823460643"/>
    <circle cy="-0.2978000247188233" r="5.0e-3" cx="0.22424612925596676"/>
    <circle cy="-0.49555061179087856" r="5.0e-3" cx="0.22714688027732732"/>
    <circle cy="-0.2978000247188233" r="5.0e-3" cx="0.23004763129868766"/>
    <circle cy="-1.1741441107403494e-3" r="5.0e-3" cx="0.23294838232004822"/>
    <circle cy="9.77011494252874e-2" r="5.0e-3" cx="0.23584913334140878"/>
    <circle cy="-0.19892473118279563" r="5.0e-3" cx="0.23874988436276923"/>
    <circle cy="9.77011494252874e-2" r="5.0e-3" cx="0.24165063538412968"/>
    <circle cy="-0.10004943764676799" r="5.0e-3" cx="0.24455138640549012"/>
    <circle cy="-0.49555061179087856" r="5.0e-3" cx="0.24745213742685057"/>
    <circle cy="-0.19892473118279563" r="5.0e-3" cx="0.25035288844821113"/>
    <circle cy="-0.3966753182548509" r="5.0e-3" cx="0.2532536394695717"/>
    <circle cy="9.77011494252874e-2" r="5.0e-3" cx="0.256154390490932"/>
    <circle cy="9.77011494252874e-2" r="5.0e-3" cx="0.2590551415122926"/>
    <circle cy="0.3943270300333704" r="5.0e-3" cx="0.2619558925336529"/>
    <circle cy="9.77011494252874e-2" r="5.0e-3" cx="0.2648566435550135"/>
    <circle cy="-0.19892473118279563" r="5.0e-3" cx="0.2677573945763738"/>
    <circle cy="-0.2978000247188233" r="5.0e-3" cx="0.2706581455977344"/>
    <circle cy="-0.3966753182548509" r="5.0e-3" cx="0.2735588966190947"/>
    <circle cy="-0.19892473118279563" r="5.0e-3" cx="0.2764596476404553"/>
    <circle cy="-0.3966753182548509" r="5.0e-3" cx="0.27936039866181583"/>
    <circle cy="9.77011494252874e-2" r="5.0e-3" cx="0.28226114968317617"/>
    <circle cy="0.2954517364973427" r="5.0e-3" cx="0.28516190070453673"/>
    <circle cy="-0.10004943764676799" r="5.0e-3" cx="0.2880626517258973"/>
    <circle cy="-0.2978000247188233" r="5.0e-3" cx="0.2909634027472576"/>
    <circle cy="-0.10004943764676799" r="5.0e-3" cx="0.2938641537686182"/>
    <circle cy="-0.2978000247188233" r="5.0e-3" cx="0.29676490478997875"/>
    <circle cy="-1.1741441107403494e-3" r="5.0e-3" cx="0.2996656558113391"/>
    <circle cy="0.19657644296131505" r="5.0e-3" cx="0.30256640683269964"/>
    <circle cy="0.2954517364973427" r="5.0e-3" cx="0.30546715785406"/>
    <circle cy="-0.19892473118279563" r="5.0e-3" cx="0.30836790887542076"/>
    <circle cy="0.2954517364973427" r="5.0e-3" cx="0.3112686598967811"/>
    <circle cy="-0.19892473118279563" r="5.0e-3" cx="0.31416941091814143"/>
    <circle cy="-0.3966753182548509" r="5.0e-3" cx="0.317070161939502"/>
    <circle cy="-0.2978000247188233" r="5.0e-3" cx="0.31997091296086255"/>
    <circle cy="0.2954517364973427" r="5.0e-3" cx="0.3228716639822231"/>
    <circle cy="-0.3966753182548509" r="5.0e-3" cx="0.32577241500358345"/>
    <circle cy="9.77011494252874e-2" r="5.0e-3" cx="0.328673166024944"/>
    <circle cy="0.19657644296131505" r="5.0e-3" cx="0.33157391704630435"/>
    <circle cy="0.3943270300333704" r="5.0e-3" cx="0.3344746680676649"/>
    <circle cy="0.3943270300333704" r="5.0e-3" cx="0.33737541908902546"/>
    <circle cy="0.2954517364973427" r="5.0e-3" cx="0.340276170110386"/>
    <circle cy="0.3943270300333704" r="5.0e-3" cx="0.34317692113174636"/>
    <circle cy="-0.49555061179087856" r="5.0e-3" cx="0.3460776721531067"/>
    <circle cy="-0.10004943764676799" r="5.0e-3" cx="0.34897842317446726"/>
    <circle cy="-0.49555061179087856" r="5.0e-3" cx="0.3518791741958278"/>
    <circle cy="0.2954517364973427" r="5.0e-3" cx="0.3547799252171884"/>
    <circle cy="0.3943270300333704" r="5.0e-3" cx="0.3576806762385487"/>
    <circle cy="-0.49555061179087856" r="5.0e-3" cx="0.36058142725990927"/>
    <circle cy="0.3943270300333704" r="5.0e-3" cx="0.3634821782812696"/>
    <circle cy="-0.19892473118279563" r="5.0e-3" cx="0.36638292930263017"/>
    <circle cy="-0.49555061179087856" r="5.0e-3" cx="0.3692836803239907"/>
    <circle cy="-0.49555061179087856" r="5.0e-3" cx="0.3721844313453513"/>
    <circle cy="0.2954517364973427" r="5.0e-3" cx="0.3750851823667116"/>
    <circle cy="-0.3966753182548509" r="5.0e-3" cx="0.37798593338807196"/>
    <circle cy="-1.1741441107403494e-3" r="5.0e-3" cx="0.38088668440943274"/>
    <circle cy="0.3943270300333704" r="5.0e-3" cx="0.3837874354307931"/>
    <circle cy="-0.49555061179087856" r="5.0e-3" cx="0.38668818645215364"/>
    <circle cy="0.19657644296131505" r="5.0e-3" cx="0.389588937473514"/>
    <circle cy="-0.2978000247188233" r="5.0e-3" cx="0.39248968849487453"/>
    <circle cy="-0.49555061179087856" r="5.0e-3" cx="0.3953904395162351"/>
    <circle cy="-1.1741441107403494e-3" r="5.0e-3" cx="0.39829119053759543"/>
    <circle cy="0.2954517364973427" r="5.0e-3" cx="0.401191941558956"/>
    <circle cy="-0.3966753182548509" r="5.0e-3" cx="0.40409269258031655"/>
    <circle cy="-0.49555061179087856" r="5.0e-3" cx="0.4069934436016769"/>
    <circle cy="-1.1741441107403494e-3" r="5.0e-3" cx="0.40989419462303744"/>
    <circle cy="-1.1741441107403494e-3" r="5.0e-3" cx="0.4127949456443978"/>
    <circle cy="-1.1741441107403494e-3" r="5.0e-3" cx="0.41569569666575834"/>
    <circle cy="-0.2978000247188233" r="5.0e-3" cx="0.4185964476871187"/>
    <circle cy="-0.19892473118279563" r="5.0e-3" cx="0.421497198708479"/>
    <circle cy="9.77011494252874e-2" r="5.0e-3" cx="0.4243979497298398"/>
    <circle cy="0.19657644296131505" r="5.0e-3" cx="0.42729870075120013"/>
    <circle cy="-0.10004943764676799" r="5.0e-3" cx="0.4301994517725607"/>
    <circle cy="-1.1741441107403494e-3" r="5.0e-3" cx="0.43310020279392103"/>
    <circle cy="-1.1741441107403494e-3" r="5.0e-3" cx="0.4360009538152816"/>
    <circle cy="0.19657644296131505" r="5.0e-3" cx="0.43890170483664215"/>
    <circle cy="-1.1741441107403494e-3" r="5.0e-3" cx="0.4418024558580025"/>
    <circle cy="0.2954517364973427" r="5.0e-3" cx="0.44470320687936304"/>
    <circle cy="-0.2978000247188233" r="5.0e-3" cx="0.4476039579007236"/>
    <circle cy="0.19657644296131505" r="5.0e-3" cx="0.45050470892208394"/>
    <circle cy="0.19657644296131505" r="5.0e-3" cx="0.4534054599434445"/>
    <circle cy="-0.2978000247188233" r="5.0e-3" cx="0.45630621096480506"/>
    <circle cy="0.3943270300333704" r="5.0e-3" cx="0.4592069619861654"/>
    <circle cy="0.3943270300333704" r="5.0e-3" cx="0.46210771300752596"/>
    <circle cy="-0.3966753182548509" r="5.0e-3" cx="0.4650084640288863"/>
    <circle cy="-0.49555061179087856" r="5.0e-3" cx="0.4679092150502471"/>
    <circle cy="0.19657644296131505" r="5.0e-3" cx="0.4708099660716074"/>
    <circle cy="0.3943270300333704" r="5.0e-3" cx="0.47371071709296775"/>
    <circle cy="-0.3966753182548509" r="5.0e-3" cx="0.4766114681143283"/>
    <circle cy="-0.2978000247188233" r="5.0e-3" cx="0.47951221913568887"/>
    <circle cy="-0.49555061179087856" r="5.0e-3" cx="0.4824129701570494"/>
    <circle cy="9.77011494252874e-2" r="5.0e-3" cx="0.48531372117840976"/>
    <circle cy="-0.3966753182548509" r="5.0e-3" cx="0.4882144721997703"/>
    <circle cy="9.77011494252874e-2" r="5.0e-3" cx="0.49111522322113066"/>
    <circle cy="-0.19892473118279563" r="5.0e-3" cx="0.4940159742424912"/>
    <circle cy="0.19657644296131505" r="5.0e-3" cx="0.4969167252638518"/>
    <circle cy="-0.2978000247188233" r="5.0e-3" cx="0.49981747628521234"/>
    <circle cy="0.19657644296131505" r="5.0e-3" cx="0.5027182273065727"/>
    <circle cy="-0.19892473118279563" r="5.0e-3" cx="0.505618978327933"/>
    <circle cy="-0.10004943764676799" r="5.0e-3" cx="0.5085197293492936"/>
    <circle cy="-0.19892473118279563" r="5.0e-3" cx="0.5114204803706541"/>
    <circle cy="-0.2978000247188233" r="5.0e-3" cx="0.5143212313920147"/>
    <circle cy="9.77011494252874e-2" r="5.0e-3" cx="0.517221982413375"/>
    <circle cy="-0.19892473118279563" r="5.0e-3" cx="0.5201227334347356"/>
    <circle cy="0.19657644296131505" r="5.0e-3" cx="0.5230234844560959"/>
    <circle cy="-0.3966753182548509" r="5.0e-3" cx="0.5259242354774565"/>
    <circle cy="-0.19892473118279563" r="5.0e-3" cx="0.528824986498817"/>
    <circle cy="9.77011494252874e-2" r="5.0e-3" cx="0.5317257375201776"/>
    <circle cy="-0.10004943764676799" r="5.0e-3" cx="0.5346264885415379"/>
    <circle cy="-0.10004943764676799" r="5.0e-3" cx="0.5375272395628983"/>
    <circle cy="-0.10004943764676799" r="5.0e-3" cx="0.540427990584259"/>
    <circle cy="9.77011494252874e-2" r="5.0e-3" cx="0.5433287416056194"/>
    <circle cy="-0.10004943764676799" r="5.0e-3" cx="0.54622949262698"/>
    <circle cy="-1.1741441107403494e-3" r="5.0e-3" cx="0.5491302436483403"/>
    <circle cy="-0.10004943764676799" r="5.0e-3" cx="0.5520309946697008"/>
    <circle cy="-0.3966753182548509" r="5.0e-3" cx="0.5549317456910614"/>
    <circle cy="-1.1741441107403494e-3" r="5.0e-3" cx="0.5578324967124217"/>
    <circle cy="9.77011494252874e-2" r="5.0e-3" cx="0.5607332477337823"/>
    <circle cy="0.19657644296131505" r="5.0e-3" cx="0.5636339987551426"/>
    <circle cy="9.77011494252874e-2" r="5.0e-3" cx="0.566534749776503"/>
    <circle cy="-0.10004943764676799" r="5.0e-3" cx="0.5694355007978635"/>
    <circle cy="-0.3966753182548509" r="5.0e-3" cx="0.5723362518192241"/>
    <circle cy="-0.10004943764676799" r="5.0e-3" cx="0.5752370028405847"/>
    <circle cy="-0.2978000247188233" r="5.0e-3" cx="0.578137753861945"/>
    <circle cy="0.2954517364973427" r="5.0e-3" cx="0.5810385048833053"/>
    <circle cy="0.3943270300333704" r="5.0e-3" cx="0.5839392559046661"/>
    <circle cy="0.2954517364973427" r="5.0e-3" cx="0.5868400069260264"/>
    <circle cy="-0.2978000247188233" r="5.0e-3" cx="0.589740757947387"/>
    <circle cy="-0.10004943764676799" r="5.0e-3" cx="0.5926415089687473"/>
    <circle cy="-0.3966753182548509" r="5.0e-3" cx="0.5955422599901079"/>
    <circle cy="0.19657644296131505" r="5.0e-3" cx="0.5984430110114685"/>
    <circle cy="9.77011494252874e-2" r="5.0e-3" cx="0.6013437620328288"/>
    <circle cy="-0.19892473118279563" r="5.0e-3" cx="0.6042445130541894"/>
    <circle cy="-0.3966753182548509" r="5.0e-3" cx="0.6071452640755499"/>
    <circle cy="-1.1741441107403494e-3" r="5.0e-3" cx="0.6100460150969103"/>
    <circle cy="-0.3966753182548509" r="5.0e-3" cx="0.6129467661182708"/>
    <circle cy="-1.1741441107403494e-3" r="5.0e-3" cx="0.6158475171396314"/>
    <circle cy="9.77011494252874e-2" r="5.0e-3" cx="0.6187482681609917"/>
    <circle cy="-0.2978000247188233" r="5.0e-3" cx="0.6216490191823523"/>
    <circle cy="-0.2978000247188233" r="5.0e-3" cx="0.6245497702037126"/>
    <circle cy="-1.1741441107403494e-3" r="5.0e-3" cx="0.6274505212250734"/>
    <circle cy="9.77011494252874e-2" r="5.0e-3" cx="0.6303512722464337"/>
    <circle cy="-0.2978000247188233" r="5.0e-3" cx="0.6332520232677941"/>
    <circle cy="-1.1741441107403494e-3" r="5.0e-3" cx="0.6361527742891546"/>
    <circle cy="0.2954517364973427" r="5.0e-3" cx="0.6390535253105152"/>
    <circle cy="-0.19892473118279563" r="5.0e-3" cx="0.6419542763318757"/>
    <circle cy="-0.3966753182548509" r="5.0e-3" cx="0.6448550273532361"/>
    <circle cy="0.3943270300333704" r="5.0e-3" cx="0.6477557783745966"/>
    <circle cy="-0.19892473118279563" r="5.0e-3" cx="0.650656529395957"/>
    <circle cy="0.19657644296131505" r="5.0e-3" cx="0.6535572804173175"/>
    <circle cy="-0.2978000247188233" r="5.0e-3" cx="0.6564580314386781"/>
    <circle cy="-0.3966753182548509" r="5.0e-3" cx="0.6593587824600387"/>
    <circle cy="0.19657644296131505" r="5.0e-3" cx="0.662259533481399"/>
    <circle cy="-0.3966753182548509" r="5.0e-3" cx="0.6651602845027593"/>
    <circle cy="0.19657644296131505" r="5.0e-3" cx="0.6680610355241199"/>
    <circle cy="-0.10004943764676799" r="5.0e-3" cx="0.6709617865454804"/>
    <circle cy="-0.3966753182548509" r="5.0e-3" cx="0.673862537566841"/>
    <circle cy="-0.19892473118279563" r="5.0e-3" cx="0.6767632885882013"/>
    <circle cy="0.19657644296131505" r="5.0e-3" cx="0.6796640396095619"/>
    <circle cy="-1.1741441107403494e-3" r="5.0e-3" cx="0.6825647906309222"/>
    <circle cy="-0.10004943764676799" r="5.0e-3" cx="0.6854655416522828"/>
    <circle cy="0.3943270300333704" r="5.0e-3" cx="0.6883662926736434"/>
    <circle cy="0.3943270300333704" r="5.0e-3" cx="0.6912670436950039"/>
    <circle cy="-0.49555061179087856" r="5.0e-3" cx="0.6941677947163643"/>
    <circle cy="9.77011494252874e-2" r="5.0e-3" cx="0.6970685457377246"/>
    <circle cy="-0.19892473118279563" r="5.0e-3" cx="0.6999692967590854"/>
    <circle cy="0.3943270300333704" r="5.0e-3" cx="0.7028700477804459"/>
    <circle cy="-0.3966753182548509" r="5.0e-3" cx="0.7057707988018063"/>
    <circle cy="-0.49555061179087856" r="5.0e-3" cx="0.7086715498231664"/>
    <circle cy="-0.49555061179087856" r="5.0e-3" cx="0.7115723008445272"/>
    <circle cy="-0.19892473118279563" r="5.0e-3" cx="0.7144730518658875"/>
    <circle cy="0.2954517364973427" r="5.0e-3" cx="0.7173738028872478"/>
    <circle cy="-0.3966753182548509" r="5.0e-3" cx="0.7202745539086084"/>
    <circle cy="-0.10004943764676799" r="5.0e-3" cx="0.7231753049299692"/>
    <circle cy="-0.2978000247188233" r="5.0e-3" cx="0.7260760559513293"/>
    <circle cy="0.19657644296131505" r="5.0e-3" cx="0.7289768069726899"/>
    <circle cy="-0.10004943764676799" r="5.0e-3" cx="0.7318775579940504"/>
    <circle cy="0.19657644296131505" r="5.0e-3" cx="0.734778309015411"/>
    <circle cy="-0.19892473118279563" r="5.0e-3" cx="0.7376790600367713"/>
    <circle cy="0.2954517364973427" r="5.0e-3" cx="0.7405798110581316"/>
    <circle cy="0.3943270300333704" r="5.0e-3" cx="0.7434805620794924"/>
    <circle cy="0.3943270300333704" r="5.0e-3" cx="0.746381313100853"/>
  </g>
  <g stroke-opacity="0.5" stroke="#5da5da" stroke-width="2.0e-2" fill="none">
    <polyline points="-0.7010934465580259,0.3943270300333704
-0.6981926955366653,0.3943270300333704
-0.6952919445153048,0.15168827288974424
-0.6923911934939444,-2.2775525669674335e-2
-0.689490442472584,-6.170885064380682e-2
-0.6865896914512234,-3.1621058985561334e-2
-0.683688940429863,-7.573969915660217e-2
-0.6807881894085025,-0.13810398856402306
-0.677887438387142,-9.284639596950306e-2
-0.6749866873657815,-3.214140295591872e-2
-0.672085936344421,5.844822642173841e-3
-0.6691851853230606,1.5837027879095578e-2
-0.6662844343017,3.930670092212818e-3
-0.6633836832803396,4.203112820249444e-2
-0.6604829322589791,2.8794846830424325e-2
-0.6575821812376187,4.377873575105351e-2
-0.6546814302162582,7.390079667703198e-2
-0.6517806791948977,0.10047958273385771
-0.6488799281735372,5.26169277059263e-2
-0.6459791771521768,7.925002230693512e-2
-0.6430784261308163,8.814595749447707e-2
-0.6401776751094558,4.500290398839657e-2
-0.6372769240880953,7.021965051828882e-2
-0.6343761730667349,3.026474291387049e-2
-0.6314754220453743,-6.1183021645396796e-3
-0.6285746710240139,-3.26334190845996e-2
-0.6256739200026534,-4.156324241761045e-3
-0.622773168981293,-2.341990719925202e-2
-0.6198724179599324,-5.391676693087111e-2
-0.616971666938572,-3.1674231433306055e-2
-0.6140709159172115,-5.4598751993571115e-2
-0.611170164895851,-3.9022739802314854e-2
-0.6082694138744905,-6.0938422110057844e-2
-0.6053686628531301,-8.128178802568164e-2
-0.6024679118317695,-8.240705938139758e-2
-0.5995671608104091,-5.997477069217161e-2
-0.5966664097890486,-3.907002816438021e-2
-0.5937656587676882,-3.68606242539371e-2
-0.5908649077463277,-1.1928528493386326e-2
-0.5879641567249672,-2.2657089086519755e-2
-0.5850634057036067,-4.3958632457918645e-2
-0.5821626546822463,-4.7131125508416694e-2
-0.5792619036608857,-2.7880936736643824e-2
-0.5763611526395254,-3.743297620586772e-2
-0.5734604016181648,-1.8950875751903795e-2
-0.5705596505968044,-7.050281580692763e-3
-0.5676588995754439,-3.3883434928583256e-2
-0.5647581485540834,-4.830916762674764e-2
-0.5618573975327229,-4.5744708854266514e-2
-0.5589566465113625,-6.475390115598156e-2
-0.5560558954900019,-8.265877778607866e-2
-0.5531551444686414,-8.359319969005874e-2
-0.550254393447281,-8.447412697599122e-2
-0.5473536424259204,-6.420769251276515e-2
-0.54445289140456,-7.662672008025195e-2
-0.5415521403831995,-6.738775574727063e-2
-0.538651389361839,-5.344008817499446e-2
-0.5357506383404785,-6.631532555393915e-2
-0.5328498873191181,-5.25008086913763e-2
-0.5299491362977576,-6.017557998679812e-2
-0.5270483852763972,-4.6750408641407226e-2
-0.5241476342550366,-3.405626921356386e-2
-0.5212468832336761,-1.1756274672735989e-2
-0.5183461322123156,-3.6889078352695504e-2
-0.5154453811909552,-1.9657777359810225e-2
-0.5125446301695947,-3.916942686628044e-2
-0.5096438791482343,-5.253082305579604e-2
-0.5067431281268737,-4.98820324091197e-2
-0.5038423771055133,-6.774021738144764e-2
-0.5009416260841528,-5.923350244980252e-2
-0.4980408750627923,-6.640601606182339e-2
-0.49514012404143193,-6.813113267822002e-2
-0.4922393730200714,-6.976570485006872e-2
-0.4893386219987109,-5.108513476589205e-2
-0.4864378709773505,-5.8638327931347156e-2
-0.48353711995598997,-5.065957245180763e-2
-0.48063636893462947,-3.805497281011394e-2
-0.477735617913269,-2.1068797404358297e-2
-0.4748348668919085,-2.5087696386270175e-2
-0.47193411587054807,-8.79158841797445e-3
-0.46903336484918756,-1.8449778754033197e-2
-0.4661326138278271,2.501340748424452e-3
-0.4632318628064666,-7.714619508238263e-3
-0.4603311117851061,1.2661560812900763e-2
-0.4574303607637457,-3.0624601599021917e-3
-0.45452960974238527,-2.966884032889805e-3
-0.45162885872102476,-1.2879096934193757e-2
-0.44872810769966426,2.7082294107876326e-3
-0.44582735667830375,-1.7470989526609082e-2
-0.4429266056569433,-3.662056393884405e-2
-0.44002585463558286,-5.479402214831497e-2
-0.43712510361422235,-6.705373097290313e-2
-0.43422435259286185,-4.877347693490042e-2
-0.4313236015715014,-6.63098089841424e-2
-0.4284228505501409,-6.800979775918292e-2
-0.42552209952878045,-5.966358296052021e-2
-0.42262134850741995,-7.165319830457773e-2
-0.41972059748605944,-7.805879659039994e-2
-0.41681984646469894,-6.424091972465984e-2
-0.4139190954433385,-5.6095591614074514e-2
-0.41101834442197804,-5.83057147594388e-2
-0.40811759340061754,-7.034475820885377e-2
-0.40521684237925704,-8.674453333500898e-2
-0.4023160913578966,-7.250984044603848e-2
-0.3994153403365361,-5.402708855172822e-2
-0.39651458931517564,-3.6476765960849034e-2
-0.39361383829381513,-4.9597175578259156e-2
-0.39071308727245463,-4.220321733854682e-2
-0.3878123362510941,-5.503092313785207e-2
-0.3849115852297337,-6.721256016554777e-2
-0.38201083420837323,-7.382042133360178e-2
-0.3791100831870127,-8.009571284968042e-2
-0.3762093321656522,-7.613760470562525e-2
-0.3733085811442918,-6.742049814993878e-2
-0.3704078301229313,-4.426962052099859e-2
-0.36750707910157077,-2.7239175028098805e-2
-0.3646063280802103,-4.5756822508414285e-2
-0.36170557705884987,-2.3700760221038064e-2
-0.3588048260374893,-4.239124515246473e-2
-0.35590407501612886,-5.0234566325735974e-2
-0.35300332399476836,-5.768409509113159e-2
-0.3501025729734079,-5.980642752505705e-2
-0.3472018219520475,-5.191669160424206e-2
-0.344301070930687,-4.44228447182059e-2
-0.34140031990932657,-6.2064441066519316e-2
-0.33849956888796606,-7.88211283478133e-2
-0.3355988178666056,-7.493301629486815e-2
-0.33269806684524517,-8.609207935782404e-2
-0.3297973158238846,-6.69893356276211e-2
-0.32689656480252416,-6.369438891562607e-2
-0.3239958137811636,-5.066511791260031e-2
-0.32109506275980315,-3.828884583800707e-2
-0.3181943117384427,-2.653277279462174e-2
-0.3152935607170822,-1.5365753536194404e-2
-0.31239280969572175,-1.9604105319507403e-2
-0.30949205867436125,-3.352690708611061e-2
-0.3065913076530008,-3.190783212224779e-2
-0.30369055663164035,-4.521365933811994e-2
-0.3007898056102798,-4.3009918589237306e-2
-0.29788905458891934,-2.6073949934168117e-2
-0.2949883035675588,-3.96700811879227e-2
-0.29208755254619845,-4.2691123488501126e-2
-0.2891868015248379,-6.0401886707251884e-2
-0.28628605050347744,-5.2491832840850794e-2
-0.283385299482117,-3.5084405943756836e-2
-0.2804845484607565,-2.8441412735918825e-2
-0.27758379743939604,-1.7184538758536205e-2
-0.27468304641803554,-2.627613754656799e-2
-0.2717822953966751,-2.502043572613366e-2
-0.26888154437531464,-3.866563131249534e-2
-0.2659807933539541,-3.6790245328064075e-2
-0.26308004233259363,-3.9954505892912606e-2
-0.2601792913112331,-1.823194466721867e-2
-0.2572785402898726,-2.541938795064591e-3
-0.2543777892685122,2.4719830221663908e-3
-0.2514770382471517,7.235036368704317e-3
-0.24857628722579128,2.6595795310103865e-2
-0.24567553620443072,4.49879155952132e-2
-0.24277478518307027,1.7953227208561406e-2
-0.23987403416170983,3.183193819677682e-2
-0.23697328314034927,5.4559761657212436e-3
-0.23407253211898882,5.124388527049661e-3
-0.23117178109762826,2.4589072526546574e-2
-0.2282710300762678,2.3300625449720058e-2
-0.22537027905490736,3.691105354589275e-2
-0.22246952803354691,4.9840680108070745e-2
-0.21956877701218636,6.706827906223284e-2
-0.21666802599082602,3.893224322064537e-2
-0.21376727496946546,5.6705037799057056e-2
-0.21086652394810512,6.86443225391023e-2
-0.20796577292674456,4.043019855523233e-2
-0.20506502190538412,1.3627207617036341e-2
-0.20216427088402356,-1.1835248554275424e-2
-0.1992635198626631,3.5311446906430843e-3
-0.19636276884130266,-1.1537317924189328e-2
-0.1934620178199421,-3.0796529968489694e-2
-0.19056126679858165,-5.403688451735722e-2
-0.1876605157772211,-4.644916074179384e-2
-0.18475976475586076,-2.440808260171312e-2
-0.1818590137345002,-3.4692795788950903e-3
-0.17895826271313975,1.5897118049129078e-3
-0.1760575116917793,1.6284109764761856e-2
-0.17315676067041874,-4.365592781706229e-3
-0.1702560096490583,-1.4094324519582258e-2
-0.16735525862769784,6.328288385240077e-3
-0.16445450760633729,2.57296199792173e-2
-0.16155375658497684,1.4496135362268625e-2
-0.1586530055636164,2.8544826744824392e-2
-0.15575225454225583,2.3384398328334943e-3
-0.1528515035208955,-7.725307893539313e-3
-0.14995075249953493,-3.211792973613847e-2
-0.14705000147817449,-2.5626632802098648e-2
-0.14414925045681404,-4.417999835097497e-2
-0.1412484994354536,-6.674960524882434e-2
-0.13834774841409314,-4.369472908721084e-2
-0.13544699739273258,-3.66246308965269e-2
-0.13254624637137213,-1.5076166868993712e-2
-0.12964549535001157,-1.9324995430341718e-2
-0.12674474432865113,-1.841741937703467e-2
-0.12384399330729068,-3.2387039316549515e-2
-0.12094324228593023,-3.0826342585006494e-2
-0.11804249126456967,-9.5680014458005e-3
-0.11514174024320922,1.0627357064916465e-2
-0.11224098922184877,5.0933593302894264e-3
-0.10934023820048833,1.9611671970069133e-2
-0.10643948717912777,3.340403058318148e-2
-0.10353873615776732,5.145062231070552e-2
-0.10063798513640676,6.859484137973781e-2
-9.773723411504631e-2,4.038694555456657e-2
-9.483648309368586e-2,1.853337371605701e-2
-9.19357320723253e-2,1.7547978177940515e-2
-8.903498105096497e-2,-3.163578942582679e-3
-8.613423002960441e-2,-8.007959047609758e-3
-8.323347900824396e-2,1.2109134294234547e-2
-8.033272798688351e-2,-1.3274265226094872e-2
-7.743197696552295e-2,-2.7500772681785857e-2
-7.45312259441625e-2,-4.595977049980415e-2
-7.163047492280195e-2,-5.855195853708961e-2
-6.872972390144161e-2,-7.051452007796721e-2
-6.582897288008116e-2,-6.704745771289056e-2
-6.29282218587206e-2,-5.386610532556002e-2
-6.002747083736015e-2,-7.100676035928033e-2
-5.7126719815999705e-2,-7.740272780854807e-2
-5.4225968794639146e-2,-9.336652072018481e-2
-5.132521777327881e-2,-0.11347592080232582
-4.842446675191825e-2,-9.302934907068428e-2
-4.55237157305578e-2,-9.832416463950289e-2
-4.262296470919724e-2,-9.84104290090061e-2
-3.9722213687836794e-2,-0.11332379157980743
-3.6821462666476346e-2,-9.288486140036889e-2
-3.3920711645115786e-2,-8.335549274813414e-2
-3.1019960623755338e-2,-0.10396538864360816
-2.811920960239478e-2,-0.1186009795324956
-2.5218458581034442e-2,-0.11767339675391808
-2.2317707559673883e-2,-0.12667978058431661
-1.9416956538313546e-2,-0.13523584011103218
-1.6516205516952875e-2,-0.12358892944072963
-1.3615454495592538e-2,-0.10263679156436423
-1.0714703474231868e-2,-9.756363513587674e-2
-7.813952452871642e-3,-9.274413887426525e-2
-4.913201431510972e-3,-0.11288454871015507
-2.0124504101506346e-3,-0.11718657532361643
8.883006112099245e-4,-0.10149836381817445
3.7890516325704837e-3,-0.11625726569191286
6.689802653930821e-3,-0.11544687146490806
9.59055367529138e-3,-0.11467699722466729
1.2491304696651717e-2,-9.911427625822833e-2
1.5392055718012276e-2,-0.10904859337002304
1.8292806739372836e-2,-0.10859863430639038
2.1193557760733284e-2,-9.828361729890045e-2
2.4094308782093732e-2,-8.848435385433018e-2
2.699505980345418e-2,-7.423127931933104e-2
2.9895810824814628e-2,-8.540974243892996e-2
3.279656184617519e-2,-7.131040219511453e-2
3.5697312867535747e-2,-6.285980697782811e-2
3.8598063888896084e-2,-4.494419428393359e-2
4.149881491025664e-2,-2.7924365687953645e-2
4.439956593161698e-2,-2.1643078693003415e-2
4.730031695297765e-2,-4.5338495626845776e-2
5.02010679743381e-2,-5.3017819805748045e-2
5.3101818995698546e-2,-6.525694882776578e-2
5.6002570017058995e-2,-5.710903204018003e-2
5.890332103841944e-2,-6.914359833655359e-2
6.180407205978011e-2,-7.563266351407016e-2
6.470482308114045e-2,-7.190973289189684e-2
6.760557410250101e-2,-5.848540816352488e-2
7.050632512386135e-2,-7.539492273734738e-2
7.34070761452219e-2,-5.1908799937252614e-2
7.630782716658246e-2,-4.442829485568878e-2
7.920857818794291e-2,-6.2040663054726775e-2
8.210932920930336e-2,-4.910979587643438e-2
8.501008023066381e-2,-5.660054917826551e-2
8.791083125202426e-2,-7.36043017278718e-2
9.08115822733847e-2,-9.470163384583241e-2
9.371233329474538e-2,-9.002525586042331e-2
9.661308431610571e-2,-9.052646530597375e-2
9.951383533746627e-2,-9.100261424451384e-2
0.10241458635882661,-0.10134249140073526
0.10531533738018717,-0.10127783867363904
0.10821608840154773,-8.144134843158901e-2
0.11111683942290818,-8.731552079972382e-2
0.11401759044426862,-8.300844971498333e-2
0.11691834146562896,-9.86918009262695e-2
0.11981909248698952,-8.887214877848892e-2
0.12271984350834997,-8.44872465808938e-2
0.12562059452971042,-7.043405612344111e-2
0.12852134555107086,-7.19148257982426e-2
0.1314220965724313,-7.332155693093712e-2
0.13432284759379187,-8.948925089601889e-2
0.13722359861515243,-7.51859612454383e-2
0.14012434963651277,-7.14853691701618e-2
0.14302510065787333,-8.280110548736908e-2
0.14592585167923366,-8.366352235163022e-2
0.14882660270059433,-7.953905227516989e-2
0.15172735372195478,-6.0789507807860965e-2
0.15462810474331523,-4.792120699065161e-2
0.15752885576467568,-6.53589167747145e-2
0.16042960678603613,-4.731837996268107e-2
0.1633303578073968,-2.523610463893944e-2
0.16623110882875713,-1.908924066006723e-2
0.1691318598501177,-8.305954353032052e-3
0.17203261087147803,-1.7836894979628592e-2
0.1749333618928386,2.7713049378656485e-3
0.17783411291419915,-1.720102959778891e-2
0.1807348639355596,-3.1230981606812702e-2
0.18363561495692005,-4.950320122671237e-2
0.1865363659782805,-3.225545184085932e-2
0.18943711699964094,-1.5870090168014772e-2
0.1923378680210015,-3.4910354062744564e-2
0.19523861904236206,-2.333601277335917e-2
0.1981393700637224,-2.4528581679068573e-3
0.20104012108508296,-7.3326876890794646e-3
0.2039408721064433,7.80653513308438e-3
0.20684162312780396,2.2188796656887944e-2
0.2097423741491644,1.1133119201933661e-2
0.21264312517052486,3.029281649354526e-2
0.2155438761918853,3.860699853837746e-2
0.21844462721324576,1.1899115820276474e-2
0.22134537823460643,-8.529607483300672e-3
0.22424612925596676,-2.299312942111509e-2
0.22714688027732732,-4.6621005209547595e-2
0.23004763129868766,-5.917995702825751e-2
0.23294838232004822,-5.6279666197384115e-2
0.23584913334140878,-4.8580624949714935e-2
0.23874988436276923,-5.609783069411001e-2
0.24165063538412968,-4.840788126758899e-2
0.24455138640549012,-5.098995922069727e-2
0.24745213742685057,-7.321799294629971e-2
0.25035288844821113,-7.95033301528345e-2
0.2532536394695717,-9.536193026434159e-2
0.256154390490932,-8.570877587136905e-2
0.2590551415122926,-7.653827923787293e-2
0.2619558925336529,-5.2995012875170944e-2
0.2648566435550135,-4.546020448677446e-2
0.2677573945763738,-5.31334310860514e-2
0.2706581455977344,-6.53667611682579e-2
0.2735588966190947,-8.19321895378845e-2
0.2764596476404553,-8.778181679299502e-2
0.27936039866181583,-0.1032264922996795
0.28226114968317617,-9.318010994549242e-2
0.28516190070453673,-7.374851713101893e-2
0.2880626517258973,-7.50635631884593e-2
0.2909634027472576,-8.62003865196358e-2
0.2938641537686182,-8.689283909103462e-2
0.29676490478997875,-9.743819859004732e-2
0.2996656558113391,-9.262499577171912e-2
0.30256640683269964,-7.816492356575167e-2
0.30546715785406,-5.948409023206691e-2
0.30836790887542076,-6.645612239679533e-2
0.3112686598967811,-4.83607291631335e-2
0.31416941091814143,-5.588892937831946e-2
0.317070161939502,-7.292824906770812e-2
0.31997091296086255,-8.417183800419892e-2
0.3228716639822231,-6.519065903224541e-2
0.32577241500358345,-8.176489219816785e-2
0.328673166024944,-7.279159001166424e-2
0.33157391704630435,-5.932318821282445e-2
0.3344746680676649,-3.664067706022134e-2
0.33737541908902546,-1.5092291488676968e-2
0.340276170110386,4.3491005907764224e-4
0.34317692113174636,2.012951623667525e-2
0.3460776721531067,-5.654490387184796e-3
0.34897842317446726,-1.0374237788852825e-2
0.3518791741958278,-3.463305667786731e-2
0.3547799252171884,-1.812881689700796e-2
0.3576806762385487,2.493975594450526e-3
0.36058142725990927,-2.2408253941081147e-2
0.3634821782812696,-1.5714896101933773e-3
0.36638292930263017,-1.1439151748283471e-2
0.3692836803239907,-3.5644724888977075e-2
0.3721844313453513,-5.864001935912577e-2
0.3750851823667116,-4.0935431474834805e-2
0.37798593338807196,-5.872242590113419e-2
0.38088668440943274,-5.584501179819834e-2
0.3837874354307931,-3.333640960691864e-2
0.38668818645215364,-5.6447119813366364e-2
0.389588937473514,-4.379594162405798e-2
0.39248968849487453,-5.649614582702811e-2
0.3953904395162351,-7.844886920442229e-2
0.39829119053759543,-7.458513293649549e-2
0.401191941558956,-5.608328940456031e-2
0.40409269258031655,-7.311289089975181e-2
0.4069934436016769,-9.423477700637706e-2
0.40989419462303744,-8.958174534860541e-2
0.4127949456443978,-8.516136527498885e-2
0.41569569666575834,-8.096200420619615e-2
0.4185964476871187,-9.180390525777782e-2
0.421497198708479,-9.715994656620741e-2
0.4243979497298398,-8.741689174558631e-2
0.42729870075120013,-7.321722498110161e-2
0.4301994517725607,-7.455883561700027e-2
0.43310020279392103,-7.088960103489172e-2
0.4360009538152816,-6.74038281825512e-2
0.43890170483664215,-5.420481460329607e-2
0.4418024558580025,-5.155328107445789e-2
0.44470320687936304,-3.420303016969484e-2
0.4476039579007236,-4.738287991603907e-2
0.45050470892208394,-3.518491375556476e-2
0.4534054599434445,-2.359684590473321e-2
0.45630621096480506,-3.730700486228333e-2
0.4592069619861654,-1.572530309230913e-2
0.46210771300752596,4.777313586709964e-3
0.4650084640288863,-1.5295318026513627e-2
0.4679092150502471,-3.9308082738763295e-2
0.4708099660716074,-2.7513856442546003e-2
0.47371071709296775,-6.421812099699942e-3
0.4766114681143283,-2.5934487424200126e-2
0.47951221913568887,-3.952776430001148e-2
0.4824129701570494,-6.2328906692211805e-2
0.48531372117840976,-5.432740388045043e-2
0.4882144721997703,-7.144479961113337e-2
0.49111522322113066,-6.29875021536972e-2
0.4940159742424912,-6.978436360943929e-2
0.4969167252638518,-5.6466323272921226e-2
0.49981747628521234,-6.853300835208531e-2
0.5027182273065727,-5.527753577924688e-2
0.505618978327933,-6.245989555311415e-2
0.5085197293492936,-6.433937265871403e-2
0.5114204803706541,-7.10686405880383e-2
0.5143212313920147,-8.240520979957089e-2
0.517221982413375,-7.339989183455964e-2
0.5201227334347356,-7.967613380446648e-2
0.5230234844560959,-6.586350496096116e-2
0.5259242354774565,-8.240409563158968e-2
0.528824986498817,-8.823012741113567e-2
0.5317257375201776,-7.893356356630443e-2
0.5346264885415379,-7.998935727065237e-2
0.5375272395628983,-8.09923612897514e-2
0.540427990584259,-8.194521510786656e-2
0.5433287416056194,-7.296289687884006e-2
0.54622949262698,-7.431722391757589e-2
0.5491302436483403,-7.066006992636364e-2
0.5520309946697008,-7.212953831271607e-2
0.5549317456910614,-8.835682731330863e-2
0.5578324967124217,-8.399769315229066e-2
0.5607332477337823,-7.491275102165051e-2
0.5636339987551426,-6.1338291320002125e-2
0.566534749776503,-5.3386319281346406e-2
0.5694355007978635,-5.571947520000531e-2
0.5723362518192241,-7.276726735543948e-2
0.5752370028405847,-7.413137587021046e-2
0.578137753861945,-8.531480831423488e-2
0.5810385048833053,-6.627648107107842e-2
0.5839392559046661,-4.324630551289399e-2
0.5868400069260264,-2.6311403410313017e-2
0.589740757947387,-3.988583447731431e-2
0.5926415089687473,-4.289401463611853e-2
0.5955422599901079,-6.0583079818908314e-2
0.5984430110114685,-4.7725103678617486e-2
0.6013437620328288,-4.045379102273483e-2
0.6042445130541894,-4.83773380314495e-2
0.6071452640755499,-6.579223704410553e-2
0.6100460150969103,-6.256133239717532e-2
0.6129467661182708,-7.926703169134552e-2
0.6158475171396314,-7.53623873120296e-2
0.6187482681609917,-6.670921047456235e-2
0.6216490191823523,-7.826375118753837e-2
0.6245497702037126,-8.924056486479115e-2
0.6274505212250734,-8.483724382682611e-2
0.6303512722464337,-7.571032416370382e-2
0.6332520232677941,-8.681480919205709e-2
0.6361527742891546,-8.253277593777242e-2
0.6390535253105152,-6.363355031509932e-2
0.6419542763318757,-7.039810935879609e-2
0.6448550273532361,-8.671196980431328e-2
0.6477557783745966,-6.266001981142844e-2
0.650656529395957,-6.947325538026605e-2
0.6535572804173175,-5.617077046268748e-2
0.6564580314386781,-6.825223317592521e-2
0.6593587824600387,-8.467338743042807e-2
0.662259533481399,-7.061089591038805e-2
0.6651602845027593,-8.691411702810992e-2
0.6680610355241199,-7.273958902822675e-2
0.6709617865454804,-7.410508145919148e-2
0.673862537566841,-9.02335932993974e-2
0.6767632885882013,-9.566815019370278e-2
0.6796640396095619,-8.105592053560606e-2
0.6825647906309222,-7.706183171427294e-2
0.6854655416522828,-7.821121201092229e-2
0.6883662926736434,-5.458429990822811e-2
0.6912670436950039,-3.213873341071549e-2
0.6941677947163643,-5.530932733014793e-2
0.6970685457377246,-4.765880349224316e-2
0.6999692967590854,-5.522209987689575e-2
0.7028700477804459,-3.274464338102956e-2
0.7057707988018063,-5.094117712499202e-2
0.7086715498231664,-7.317164885860139e-2
0.7115723008445272,-9.429059700549958e-2
0.7144730518658875,-9.952230371443116e-2
0.7173738028872478,-7.977360170360248e-2
0.7202745539086084,-9.561868753134783e-2
0.7231753049299692,-9.584022503712131e-2
0.7260760559513293,-0.10593821502131162
0.7289768069726899,-9.081248212203052e-2
0.7318775579940504,-9.127432989827178e-2
0.734778309015411,-7.688179125516392e-2
0.7376790600367713,-8.298393825159722e-2
0.7405798110581316,-6.406215451399766e-2
0.7434805620794924,-4.114269528645387e-2
0.746381313100853,-1.9369209020304257e-2"/>
  </g>
  <g stroke-opacity="0.5" stroke="#ff0000" stroke-width="2.0e-2" fill="none">
    <polyline points="-0.7010934465580259,0.3943270300333704
-0.6981926955366653,0.3943270300333704
-0.6952919445153048,6.40797259075877e-2
-0.6923911934939444,-8.348171276240102e-3
-0.689490442472584,3.1489564685079574e-2
-0.6865896914512234,6.162053283434382e-2
-0.683688940429863,7.47282751250618e-2
-0.6807881894085025,6.377970105518366e-2
-0.677887438387142,6.632537524853399e-2
-0.6749866873657815,4.781866944280655e-2
-0.672085936344421,5.206022226063328e-2
-0.6691851853230606,6.994874348166785e-2
-0.6662844343017,8.505579301654942e-2
-0.6633836832803396,7.851606458453392e-2
-0.6604829322589791,9.076404248254216e-2
-0.6575821812376187,0.10071094104964068
-0.6546814302162582,9.691421567468128e-2
-0.6517806791948977,9.612012714416668e-2
-0.6488799281735372,6.565845746565774e-2
-0.6459791771521768,6.570091238413839e-2
-0.6430784261308163,7.688207579886436e-2
-0.6401776751094558,5.279508524360904e-2
-0.6372769240880953,5.3157293899011415e-2
-0.6343761730667349,3.4902896188619414e-2
-0.6314754220453743,2.277094465860413e-2
-0.6285746710240139,2.2394259124800142e-2
-0.6256739200026534,1.9553584310622263e-2
-0.622773168981293,2.4832027584809624e-2
-0.6198724179599324,1.8592826542967733e-2
-0.616971666938572,2.087780385276017e-2
-0.6140709159172115,2.210804983338782e-2
-0.611170164895851,2.8779474589632037e-2
-0.6082694138744905,2.991675144242656e-2
-0.6053686628531301,3.216055598849116e-2
-0.6024679118317695,4.3157500219425715e-2
-0.5995671608104091,4.223052945389322e-2
-0.5966664097890486,4.265458141798434e-2
-0.5937656587676882,5.2944619545935545e-2
-0.5908649077463277,4.801492516663208e-2
-0.5879641567249672,5.529562799748866e-2
-0.5850634057036067,5.3872381868701025e-2
-0.5821626546822463,6.338682004799057e-2
-0.5792619036608857,6.328098715632091e-2
-0.5763611526395254,7.026861169104415e-2
-0.5734604016181648,7.029894159234662e-2
-0.5705596505968044,7.554794844043122e-2
-0.5676588995754439,6.50457944852118e-2
-0.5647581485540834,6.859918842779472e-2
-0.5618573975327229,7.740360834104015e-2
-0.5589566465113625,7.603571765356049e-2
-0.5560558954900019,7.578842314758377e-2
-0.5531551444686414,8.44395008974313e-2
-0.550254393447281,9.28251968949868e-2
-0.5473536424259204,8.88056720370412e-2
-0.54445289140456,9.245383720071387e-2
-0.5415521403831995,9.797734247476825e-2
-0.538651389361839,9.99297186078103e-2
-0.5357506383404785,0.10263610118111538
-0.5328498873191181,0.10440724629726605
-0.5299491362977576,0.11022720962352933
-0.5270483852763972,0.11191054973821213
-0.5241476342550366,0.11410248710743998
-0.5212468832336761,0.10537426970060182
-0.5183461322123156,9.318967889284507e-2
-0.5154453811909552,9.198342307622942e-2
-0.5125446301695947,8.829371057088298e-2
-0.5096438791482343,9.0855372399061e-2
-0.5067431281268737,9.856676134233044e-2
-0.5038423771055133,9.626021969322685e-2
-0.5009416260841528,0.10173409981198084
-0.4980408750627923,0.10768195973901507
-0.49514012404143193,0.1150291498280337
-0.4922393730200714,0.1221837492636626
-0.4893386219987109,0.11729406573946821
-0.4864378709773505,0.12250756691651865
-0.48353711995598997,0.12730866800631074
-0.48063636893462947,0.12858038145678335
-0.477735617913269,0.12525293435033286
-0.4748348668919085,0.13161417778074408
-0.47193411587054807,0.12887049372956727
-0.46903336484918756,0.1323523858041798
-0.4661326138278271,0.1234830823735999
-0.4632318628064666,0.12676519636516265
-0.4603311117851061,0.11912175132514624
-0.4574303607637457,0.11767474370178244
-0.45452960974238527,0.1247666385104092
-0.45162885872102476,0.12818534339131982
-0.44872810769966426,0.12634627975839818
-0.44582735667830375,0.11894134101785081
-0.4429266056569433,0.1134312498307859
-0.44002585463558286,0.10948835445005817
-0.43712510361422235,0.11171639444234899
-0.43422435259286185,0.10773723412343222
-0.4313236015715014,0.10486704925425067
-0.4284228505501409,0.11215706036629164
-0.42552209952878045,0.11697680398199167
-0.42262134850741995,0.11907866951279122
-0.41972059748605944,0.1246554128228834
-0.41681984646469894,0.12475740776526151
-0.4139190954433385,0.12925066858110906
-0.41101834442197804,0.13582250374979465
-0.40811759340061754,0.13702612561114885
-0.40521684237925704,0.1336366500711369
-0.4023160913578966,0.1328401362471689
-0.3994153403365361,0.12711883006093933
-0.39651458931517564,0.12296001243075111
-0.39361383829381513,0.12377335358705827
-0.39071308727245463,0.12869694514874502
-0.3878123362510941,0.12950193320333797
-0.3849115852297337,0.1308461512240509
-0.38201083420837323,0.13593583835059647
-0.3791100831870127,0.1410234966074269
-0.3762093321656522,0.14685687130626035
-0.3733085811442918,0.15017559797639762
-0.3704078301229313,0.13591819640673758
-0.36750707910157077,0.13179471543597882
-0.3646063280802103,0.12606095264738865
-0.36170557705884987,0.11579531079329192
-0.3588048260374893,0.11092982076033914
-0.35590407501612886,0.1160179161373846
-0.35300332399476836,0.12114665666078067
-0.3501025729734079,0.1279168416163547
-0.3472018219520475,0.13241169086645316
-0.344301070930687,0.1369775044511748
-0.34140031990932657,0.13200096931623867
-0.33849956888796606,0.12844167745303153
-0.3355988178666056,0.13463142829173053
-0.33269806684524517,0.13659185044970484
-0.3297973158238846,0.12970423856633434
-0.32689656480252416,0.13601422242585298
-0.3239958137811636,0.13624453158717337
-0.32109506275980315,0.13707388609844084
-0.3181943117384427,0.1384178661620662
-0.3152935607170822,0.1402042349821127
-0.31239280969572175,0.14595784372520554
-0.30949205867436125,0.14476856315332054
-0.3065913076530008,0.15099094304313027
-0.30369055663164035,0.15017502590075
-0.3007898056102798,0.1561684751852287
-0.29788905458891934,0.15075627663838437
-0.2949883035675588,0.14964805823963157
-0.29208755254619845,0.15548475097113978
-0.2891868015248379,0.1490778714242295
-0.28628605050347744,0.1528193448602418
-0.283385299482117,0.14701805388310435
-0.2804845484607565,0.15155162758724933
-0.27758379743939604,0.15267104524462582
-0.27468304641803554,0.1554841708833441
-0.2717822953966751,0.16147044067313565
-0.26888154437531464,0.1597086473202955
-0.2659807933539541,0.16550592409083797
-0.26308004233259363,0.17087631323700947
-0.2601792913112331,0.15685161275786258
-0.2572785402898726,0.1529780690257
-0.2543777892685122,0.15807864481140843
-0.2514770382471517,0.16312885826250678
-0.24857628722579128,0.15370560502645658
-0.24567553620443072,0.14648040711405264
-0.24277478518307027,0.12555559321685206
-0.23987403416170983,0.12547037950322776
-0.23697328314034927,0.10817445255599195
-0.23407253211898882,0.11541806074477029
-0.23117178109762826,0.10955233803764047
-0.2282710300762678,0.11670781716472711
-0.22537027905490736,0.11731287540394014
-0.22246952803354691,0.11851026193889719
-0.21956877701218636,0.11520644151141163
-0.21666802599082602,9.591387425626663e-2
-0.21376727496946546,9.333265843581462e-2
-0.21086652394810512,9.637584351567607e-2
-0.20796577292674456,7.895787435700719e-2
-0.20506502190538412,6.549337213671325e-2
-0.20216427088402356,5.5150350485480726e-2
-0.1992635198626631,5.702333847287283e-2
-0.19636276884130266,5.906905284294822e-2
-0.1934620178199421,5.694908449626662e-2
-0.19056126679858165,5.024423380684451e-2
-0.1876605157772211,5.73308083356483e-2
-0.18475976475586076,5.2103536397033856e-2
-0.1818590137345002,4.8509333048652015e-2
-0.17895826271313975,5.654595150196712e-2
-0.1760575116917793,5.8927341756703666e-2
-0.17315676067041874,5.525637233411135e-2
-0.1702560096490583,6.113313309802648e-2
-0.16735525862769784,5.759153680269902e-2
-0.16445450760633729,5.5399123511959525e-2
-0.16155375658497684,6.0372561085258236e-2
-0.1586530055636164,6.311918137145484e-2
-0.15575225454225583,5.1892741216746585e-2
-0.1528515035208955,5.769366932528314e-2
-0.14995075249953493,4.9421330489894444e-2
-0.14705000147817449,5.696641071523151e-2
-0.14414925045681404,5.5710333802363954e-2
-0.1412484994354536,4.9935101584892116e-2
-0.13834774841409314,4.393613529328133e-2
-0.13544699739273258,5.142103354956562e-2
-0.13254624637137213,4.71569478111839e-2
-0.12964549535001157,5.544141078023235e-2
-0.12674474432865113,6.399881825973891e-2
-0.12384399330729068,6.665582531184883e-2
-0.12094324228593023,7.488048239485573e-2
-0.11804249126456967,6.947357244796559e-2
-0.11514174024320922,6.56903395445777e-2
-0.11224098922184877,7.310486946805322e-2
-0.10934023820048833,7.490711053093041e-2
-0.10643948717912777,7.724383084472802e-2
-0.10353873615776732,7.541905752172728e-2
-0.10063798513640676,7.463735874309096e-2
-9.773723411504631e-2,5.935095696882792e-2
-9.483648309368586e-2,5.422087561003247e-2
-9.19357320723253e-2,6.280490431189151e-2
-8.903498105096497e-2,5.8824853248410636e-2
-8.613423002960441e-2,6.663905690924932e-2
-8.323347900824396e-2,6.311794403362214e-2
-8.033272798688351e-2,5.30702208335625e-2
-7.743197696552295e-2,5.597998360782386e-2
-7.45312259441625e-2,5.487370294431043e-2
-7.163047492280195e-2,5.894708187717412e-2
-6.872972390144161e-2,6.33065373297304e-2
-6.582897288008116e-2,7.133452810681318e-2
-6.29282218587206e-2,7.431287769354161e-2
-6.002747083736015e-2,7.3592374673429e-2
-5.7126719815999705e-2,8.047295796488008e-2
-5.4225968794639146e-2,8.060570776104803e-2
-5.132521777327881e-2,7.62338681779795e-2
-4.842446675191825e-2,7.17326154997025e-2
-4.55237157305578e-2,7.905506131617163e-2
-4.262296470919724e-2,8.703776321326945e-2
-3.9722213687836794e-2,8.784530873761887e-2
-3.6821462666476346e-2,8.260336636792837e-2
-3.3920711645115786e-2,8.767024936823492e-2
-3.1019960623755338e-2,8.222614758020463e-2
-2.811920960239478e-2,8.35113875247977e-2
-2.5218458581034442e-2,9.135448420310832e-2
-2.2317707559673883e-2,9.642789738781088e-2
-1.9416956538313546e-2,0.10158553507674711
-1.6516205516952875e-2,0.10451670069081076
-1.3615454495592538e-2,9.745784940051722e-2
-1.0714703474231868e-2,0.10413102220401149
-7.813952452871642e-3,0.11069991727509743
-4.913201431510972e-3,0.10427676496753707
-2.0124504101506346e-3,0.11099979683472727
8.883006112099245e-4,0.10983300526357404
3.7890516325704837e-3,0.10967170284572814
6.689802653930821e-3,0.11685687596080147
9.59055367529138e-3,0.12386178140568882
1.2491304696651717e-2,0.1221219256928393
1.5392055718012276e-2,0.12550377324534828
1.8292806739372836e-2,0.1323032090730123
2.1193557760733284e-2,0.13501016680169514
2.4094308782093732e-2,0.1379923933576937
2.699505980345418e-2,0.136874299780111
2.9895810824814628e-2,0.13870621285908824
3.279656184617519e-2,0.13771073541504225
3.5697312867535747e-2,0.14151058414998202
3.8598063888896084e-2,0.1358338137471935
4.149881491025664e-2,0.13168353542285666
4.439956593161698e-2,0.13687382229531597
4.730031695297765e-2,0.12296748140181668
5.02010679743381e-2,0.12772870871717096
5.3101818995698546e-2,0.12905914479410907
5.6002570017058995e-2,0.1333479624032769
5.890332103841944e-2,0.13460343414474712
6.180407205978011e-2,0.1396044853403643
6.470482308114045e-2,0.14552442620474848
6.760557410250101e-2,0.14486435080167542
7.050632512386135e-2,0.14025471958954794
7.34070761452219e-2,0.12636164415275003
7.630782716658246e-2,0.13111918059732253
7.920857818794291e-2,0.1265432388606202
8.210932920930336e-2,0.12730702384896864
8.501008023066381e-2,0.13202794169523668
8.791083125202426e-2,0.1281425302496465
9.08115822733847e-2,0.11906657200187126
9.371233329474538e-2,0.12526309280549364
9.661308431610571e-2,0.13206684885505543
9.951383533746627e-2,0.13869900376591016
0.10241458635882661,0.14112800142573045
0.10531533738018717,0.1475389870702124
0.10821608840154773,0.13871921426731448
0.11111683942290818,0.1438790361310031
0.11401759044426862,0.14949963716222286
0.11691834146562896,0.1460996980270597
0.11981909248698952,0.14862792264191754
0.12271984350834997,0.15408763430833328
0.12562059452971042,0.1522907371656277
0.12852134555107086,0.15833095293082272
0.1314220965724313,0.1642247943644775
0.13432284759379187,0.15923943725501344
0.13722359861515243,0.15686132116130352
0.14012434963651277,0.16231268353847644
0.14302510065787333,0.1628707828352755
0.14592585167923366,0.1687000694494441
0.14882660270059433,0.17367943300275634
0.15172735372195478,0.16426083440714012
0.15462810474331523,0.16317729439476314
0.15752885576467568,0.15655384214085138
0.16042960678603613,0.1495964829196531
0.1633303578073968,0.1371047591130909
0.16623110882875713,0.14219011131684095
0.1691318598501177,0.14411975713008024
0.17203261087147803,0.146941839951595
0.1749333618928386,0.13701648074448297
0.17783411291419915,0.12885147613482195
0.1807348639355596,0.12844480695718546
0.18363561495692005,0.12321396625821085
0.1865363659782805,0.11959190376471224
0.18943711699964094,0.11718710087749146
0.1923378680210015,0.11174197522741397
0.19523861904236206,0.11431463948602
0.1981393700637224,0.10662474084555296
0.20104012108508296,0.11310395432094772
0.2039408721064433,0.11239295658107007
0.20684162312780396,0.11247135890352966
0.2097423741491644,0.11541338777204896
0.21264312517052486,0.10993651713352498
0.2155438761918853,0.11477837236601773
0.21844462721324576,9.802821651615706e-2
0.22134537823460643,9.211409429073614e-2
0.22424612925596676,9.309505825293152e-2
0.22714688027732732,8.31825002036069e-2
0.23004763129868766,8.615955912034623e-2
0.23294838232004822,9.36966051591685e-2
0.23584913334140878,9.939322579434373e-2
0.23874988436276923,0.10499968879996374
0.24165063538412968,0.11034047103132982
0.24455138640549012,0.11730244159894421
0.24745213742685057,0.10745926437624276
0.25035288844821113,0.1133838635269091
0.2532536394695717,0.11190709798370563
0.256154390490932,0.11586078203314892
0.2590551415122926,0.11998392250255169
0.2619558925336529,0.10791411922178296
0.2648566435550135,0.1132408672164748
0.2677573945763738,0.118324042863932
0.2706581455977344,0.12007860398408365
0.2735588966190947,0.11744177606054096
0.2764596476404553,0.12325081163314516
0.27936039866181583,0.1216726294369252
0.28226114968317617,0.12499254083243166
0.28516190070453673,0.1184862016140023
0.2880626517258973,0.1254095483107131
0.2909634027472576,0.12776122374505927
0.2938641537686182,0.13449328920791037
0.29676490478997875,0.1369347581126154
0.2996656558113391,0.14257633193242752
0.30256640683269964,0.1409848242453816
0.30546715785406,0.13431999832393254
0.30836790887542076,0.1390878303482696
0.3112686598967811,0.13334596114935598
0.31416941091814143,0.13784630073326876
0.317070161939502,0.13354038152509706
0.31997091296086255,0.13546193059298578
0.3228716639822231,0.12879736966807576
0.32577241500358345,0.12562626842055336
0.328673166024944,0.12952526048501556
0.33157391704630435,0.1296375188851675
0.3344746680676649,0.11804286430588462
0.33737541908902546,0.10912776884510528
0.340276170110386,0.10822831745601869
0.34317692113174636,0.10255739093226968
0.3460776721531067,8.854192413598433e-2
0.34897842317446726,9.557537950664735e-2
0.3518791741958278,8.453478236516182e-2
0.3547799252171884,8.39271532809952e-2
0.3576806762385487,7.871433850683174e-2
0.36058142725990927,6.811681856705343e-2
0.3634821782812696,6.365847833746713e-2
0.36638292930263017,6.917375717991509e-2
0.3692836803239907,6.0305018995285564e-2
0.3721844313453513,5.3681970822484215e-2
0.3750851823667116,5.345652720995919e-2
0.37798593338807196,5.3161042727389696e-2
0.38088668440943274,6.156310463232895e-2
0.3837874354307931,5.5474046047707615e-2
0.38668818645215364,4.9032559982427226e-2
0.389588937473514,5.328766083866754e-2
0.39248968849487453,5.734473481818547e-2
0.3953904395162351,5.222217318562816e-2
0.39829119053759543,6.045941090146467e-2
0.401191941558956,5.90685420324677e-2
0.40409269258031655,5.923229676065955e-2
0.4069934436016769,5.498855064684588e-2
0.40989419462303744,6.295950482304596e-2
0.4127949456443978,7.077568889857222e-2
0.41569569666575834,7.84374055553263e-2
0.4185964476871187,8.283010927411127e-2
0.421497198708479,8.982108355696172e-2
0.4243979497298398,9.450826297413889e-2
0.42729870075120013,9.561695555043848e-2
0.4301994517725607,0.10312173883518522
0.43310020279392103,0.11004495550469101
0.4360009538152816,0.11682685952700805
0.43890170483664215,0.1178019993090445
0.4418024558580025,0.12455607171691802
0.44470320687936304,0.12072669311551637
0.4476039579007236,0.12153636398973461
0.45050470892208394,0.12317941841199453
0.4534054599434445,0.12526131514359906
0.45630621096480506,0.12535130308425652
0.4592069619861654,0.11579485637511566
0.46210771300752596,0.108515988112178
0.4650084640288863,0.10233584121972561
0.4679092150502471,9.109188014940789e-2
0.4708099660716074,9.433211338230957e-2
0.47371071709296775,8.781485268929856e-2
0.4766114681143283,8.370447036537576e-2
0.47951221913568887,8.582610266483842e-2
0.4824129701570494,7.763770141691156e-2
0.48531372117840976,8.36922264301343e-2
0.4882144721997703,8.24995430520461e-2
0.49111522322113066,8.816766911745227e-2
0.4940159742424912,9.445268010259544e-2
0.4969167252638518,9.633637879752693e-2
0.49981747628521234,9.915758768580374e-2
0.5027182273065727,0.10088675805935371
0.505618978327933,0.10660846424531101
0.5085197293492936,0.11377402133136882
0.5114204803706541,0.11930908689994235
0.5143212313920147,0.1217560047600556
0.517221982413375,0.12577343220464338
0.5201227334347356,0.13114759274447269
0.5230234844560959,0.13084034916663806
0.5259242354774565,0.12758333077098305
0.528824986498817,0.13310011465220384
0.5317257375201776,0.13650999774299533
0.5346264885415379,0.14299593299678598
0.5375272395628983,0.14932076757465734
0.540427990584259,0.15548834830755487
0.5433287416056194,0.15826627754049216
0.54622949262698,0.1641677487600518
0.5491302436483403,0.16942982963119263
0.5520309946697008,0.17503079062158705
0.5549317456910614,0.16918380485135198
0.5578324967124217,0.17406346696734798
0.5607332477337823,0.17601893891018988
0.5636339987551426,0.1734728820445251
0.566534749776503,0.17629223859905696
0.5694355007978635,0.1815697963705033
0.5723362518192241,0.17404476660544566
0.5752370028405847,0.1795401197006526
0.578137753861945,0.17937805918110716
0.5810385048833053,0.16898372029073955
0.5839392559046661,0.152835792883118
0.5868400069260264,0.14764678353288468
0.589740757947387,0.14671922480674804
0.5926415089687473,0.15263284773305413
0.5955422599901079,0.14645522570148484
0.5984430110114685,0.1463156728921418
0.6013437620328288,0.15052645707640627
0.6042445130541894,0.15420278562676315
0.6071452640755499,0.14828035649705257
0.6100460150969103,0.1540972370600086
0.6129467661182708,0.14911821463512953
0.6158475171396314,0.15472178447692309
0.6187482681609917,0.15776242589491807
0.6216490191823523,0.15831577575736977
0.6245497702037126,0.1593683850148141
0.6274505212250734,0.16451475422455974
0.6303512722464337,0.1668282155424714
0.6332520232677941,0.16736710574736807
0.6361527742891546,0.1723278245456314
0.6390535253105152,0.16279755301487275
0.6419542763318757,0.16674181585211523
0.6448550273532361,0.16138502644027558
0.6477557783745966,0.1442464273145324
0.650656529395957,0.14877606615283678
0.6535572804173175,0.14806968889620586
0.6564580314386781,0.1485958410380132
0.6593587824600387,0.14435091474135564
0.662259533481399,0.14308814969693223
0.6651602845027593,0.1393465766643604
0.6680610355241199,0.13823777282719357
0.6709617865454804,0.14465114193942435
0.673862537566841,0.14102168932788695
0.6767632885882013,0.14630168936745824
0.6796640396095619,0.14433189210528174
0.6825647906309222,0.1500407375342544
0.6854655416522828,0.1561735007838308
0.6883662926736434,0.14038286913635972
0.6912670436950039,0.12817759707654985
0.6941677947163643,0.11594887597163478
0.6970685457377246,0.12095593315097636
0.6999692967590854,0.1258460542233359
0.7028700477804459,0.11490366377162542
0.7057707988018063,0.11066400865440357
0.7086715498231664,0.10135747904004244
0.7115723008445272,9.430404863962988e-2
0.7144730518658875,0.10101295903986657
0.7173738028872478,9.576095623791436e-2
0.7202745539086084,9.523693732997385e-2
0.7231753049299692,0.10280846823314177
0.7260760559513293,0.10680079312098029
0.7289768069726899,0.10642993351044416
0.7318775579940504,0.11371242948490357
0.734778309015411,0.11371504785490338
0.7376790600367713,0.11952998114758312
0.7405798110581316,0.11407644347043389
0.7434805620794924,0.10347637708637458
0.746381313100853,9.537551793973453e-2"/>
  </g>
</svg>