
<svg xmlns="http://www.w3.org/2000/svg" height="300.0" viewBox="-0.8969862583781796 -0.7291117908787541 1.6733675714790326 1.4621277087112015" width="450.0" xmlns:xlink="http://www.w3.org/1999/xlink">
  <g transform="translate(-8.294640591007696e-2, -0.5475)" fill-opacity="1.0" font-size="0.12" stroke="none" stroke-width="0.0" fill="#000000" text-anchor="middle">
    <text transform="rotate(0.0, 2.2643933271413452e-2, -5.0611790878754115e-2)" x="2.2643933271413452e-2" y="-5.0611790878754115e-2">digitalised return
    </text>
  </g>
  <g stroke-opacity="0.0" fill-opacity="3.0e-2" stroke="#000000" stroke-width="0.0" fill="#666666">
    <rect height="0.8898776418242489" width="1.4474747596588788" x="-0.7010934465580259" y="-0.49555061179087856"/>
  </g>
  <g stroke-opacity="0.3" stroke="#a8e5ee" stroke-width="5.0e-3" fill="none">
    <polyline points="-0.7010934465580259,0.39877641824249166
-0.7010934465580259,-0.5"/>
  </g>
  <g stroke-opacity="0.3" stroke="#a8e5ee" stroke-width="5.0e-3" fill="none">
    <polyline points="-0.6401776751094558,0.39877641824249166
-0.6401776751094558,-0.5"/>
  </g>
  <g stroke-opacity="0.3" stroke="#a8e5ee" stroke-width="5.0e-3" fill="none">
    <polyline points="-0.45452960974238527,0.39877641824249166
-0.45452960974238527,-0.5"/>
  </g>
  <g stroke-opacity="0.3" stroke="#a8e5ee" stroke-width="5.0e-3" fill="none">
    <polyline points="-0.2717822953966751,0.39877641824249166
-0.2717822953966751,-0.5"/>
  </g>
  <g stroke-opacity="0.3" stroke="#a8e5ee" stroke-width="5.0e-3" fill="none">
    <polyline points="-8.903498105096497e-2,0.39877641824249166
-8.903498105096497e-2,-0.5"/>
  </g>
  <g stroke-opacity="0.3" stroke="#a8e5ee" stroke-width="5.0e-3" fill="none">
    <polyline points="8.791083125202404e-2,0.39877641824249166
8.791083125202404e-2,-0.5"/>
  </g>
  <g stroke-opacity="0.3" stroke="#a8e5ee" stroke-width="5.0e-3" fill="none">
    <polyline points="0.2706581455977344,0.39877641824249166
0.2706581455977344,-0.5"/>
  </g>
  <g stroke-opacity="0.3" stroke="#a8e5ee" stroke-width="5.0e-3" fill="none">
    <polyline points="0.45630621096480506,0.39877641824249166
0.45630621096480506,-0.5"/>
  </g>
  <g stroke-opacity="0.3" stroke="#a8e5ee" stroke-width="5.0e-3" fill="none">
    <polyline points="0.6419542763318757,0.39877641824249166
0.6419542763318757,-0.5"/>
  </g>
  <g stroke-opacity="0.3" stroke="#a8e5ee" stroke-width="5.0e-3" fill="none">
    <polyline points="0.746381313100853,0.39877641824249166
0.746381313100853,-0.5"/>
  </g>
  <g fill-opacity="1.0" font-size="5.0e-2" stroke="none" stroke-width="0.0" fill="#666666" text-anchor="end">
    <text transform="rotate(-45.0, -0.7010934465580259, 0.5)" x="-0.7010934465580259" y="0.5">28 Feb 2018
    </text>
  </g>
  <g fill-opacity="1.0" font-size="5.0e-2" stroke="none" stroke-width="0.0" fill="#666666" text-anchor="end">
    <text transform="rotate(-45.0, -0.6401776751094558, 0.5)" x="-0.6401776751094558" y="0.5">31 Mar 2018
    </text>
  </g>
  <g fill-opacity="1.0" font-size="5.0e-2" stroke="none" stroke-width="0.0" fill="#666666" text-anchor="end">
    <text transform="rotate(-45.0, -0.45452960974238527, 0.5)" x="-0.45452960974238527" y="0.5">30 Jun 2018
    </text>
  </g>
  <g fill-opacity="1.0" font-size="5.0e-2" stroke="none" stroke-width="0.0" fill="#666666" text-anchor="end">
    <text transform="rotate(-45.0, -0.2717822953966751, 0.5)" x="-0.2717822953966751" y="0.5">30 Sep 2018
    </text>
  </g>
  <g fill-opacity="1.0" font-size="5.0e-2" stroke="none" stroke-width="0.0" fill="#666666" text-anchor="end">
    <text transform="rotate(-45.0, -8.903498105096497e-2, 0.5)" x="-8.903498105096497e-2" y="0.5">31 Dec 2018
    </text>
  </g>
  <g fill-opacity="1.0" font-size="5.0e-2" stroke="none" stroke-width="0.0" fill="#666666" text-anchor="end">
    <text transform="rotate(-45.0, 8.791083125202404e-2, 0.5)" x="8.791083125202404e-2" y="0.5">31 Mar 2019
    </text>
  </g>
  <g fill-opacity="1.0" font-size="5.0e-2" stroke="none" stroke-width="0.0" fill="#666666" text-anchor="end">
    <text transform="rotate(-45.0, 0.2706581455977344, 0.5)" x="0.2706581455977344" y="0.5">30 Jun 2019
    </text>
  </g>
  <g fill-opacity="1.0" font-size="5.0e-2" stroke="none" stroke-width="0.0" fill="#666666" text-anchor="end">
    <text transform="rotate(-45.0, 0.45630621096480506, 0.5)" x="0.45630621096480506" y="0.5">30 Sep 2019
    </text>
  </g>
  <g fill-opacity="1.0" font-size="5.0e-2" stroke="none" stroke-width="0.0" fill="#666666" text-anchor="end">
    <text transform="rotate(-45.0, 0.6419542763318757, 0.5)" x="0.6419542763318757" y="0.5">31 Dec 2019
    </text>
  </g>
  <g fill-opacity="1.0" font-size="5.0e-2" stroke="none" stroke-width="0.0" fill="#666666" text-anchor="end">
    <text transform="rotate(-45.0, 0.746381313100853, 0.5)" x="0.746381313100853" y="0.5">24 Feb 2020
    </text>
  </g>
  <g stroke-opacity="0.4" fill-opacity="1.0" stroke="#2c429d" stroke-width="5.0e-3" fill="#5f0391">
    <polyline points="-0.7010934465580259,0.44047274749721915
-0.7010934465580259,0.4104727474972191"/>
    <polyline points="-0.6401776751094558,0.44047274749721915
-0.6401776751094558,0.4104727474972191"/>
    <polyline points="-0.45452960974238527,0.44047274749721915
-0.45452960974238527,0.4104727474972191"/>
    <polyline points="-0.2717822953966751,0.44047274749721915
-0.2717822953966751,0.4104727474972191"/>
    <polyline points="-8.903498105096497e-2,0.44047274749721915
-8.903498105096497e-2,0.4104727474972191"/>
    <polyline points="8.791083125202404e-2,0.44047274749721915
8.791083125202404e-2,0.4104727474972191"/>
    <polyline points="0.2706581455977344,0.44047274749721915
0.2706581455977344,0.4104727474972191"/>
    <polyline points="0.45630621096480506,0.44047274749721915
0.45630621096480506,0.4104727474972191"/>
    <polyline points="0.6419542763318757,0.44047274749721915
0.6419542763318757,0.4104727474972191"/>
    <polyline points="0.746381313100853,0.44047274749721915
0.746381313100853,0.4104727474972191"/>
  </g>
  <g stroke-opacity="0.0" fill-opacity="0.5" stroke="#666666" stroke-width="0.0" fill="#5f0391">
    <rect height="4.449388209121219e-3" width="1.4474747596588788" x="-0.7010934465580259" y="0.4121245828698554"/>
  </g>
  <g stroke-opacity="0.3" stroke="#a8e5ee" stroke-width="5.0e-3" fill="none">
    <polyline points="-0.704712133457173,0.34488938326535656
0.75,0.34488938326535656"/>
  </g>
  <g stroke-opacity="0.3" stroke="#a8e5ee" stroke-width="5.0e-3" fill="none">
    <polyline points="-0.704712133457173,0.24601408972932892
0.75,0.24601408972932892"/>
  </g>
  <g stroke-opacity="0.3" stroke="#a8e5ee" stroke-width="5.0e-3" fill="none">
    <polyline points="-0.704712133457173,0.14713879619330117
0.75,0.14713879619330117"/>
  </g>
  <g stroke-opacity="0.3" stroke="#a8e5ee" stroke-width="5.0e-3" fill="none">
    <polyline points="-0.704712133457173,4.826350265727347e-2
0.75,4.826350265727347e-2"/>
  </g>
  <g stroke-opacity="0.3" stroke="#a8e5ee" stroke-width="5.0e-3" fill="none">
    <polyline points="-0.704712133457173,-5.0611790878754115e-2
0.75,-5.0611790878754115e-2"/>
  </g>
  <g stroke-opacity="0.3" stroke="#a8e5ee" stroke-width="5.0e-3" fill="none">
    <polyline points="-0.704712133457173,-0.14948708441478187
0.75,-0.14948708441478187"/>
  </g>
  <g stroke-opacity="0.3" stroke="#a8e5ee" stroke-width="5.0e-3" fill="none">
    <polyline points="-0.704712133457173,-0.2483623779508095
0.75,-0.2483623779508095"/>
  </g>
  <g stroke-opacity="0.3" stroke="#a8e5ee" stroke-width="5.0e-3" fill="none">
    <polyline points="-0.704712133457173,-0.34723767148683726
0.75,-0.34723767148683726"/>
  </g>
  <g stroke-opacity="0.3" stroke="#a8e5ee" stroke-width="5.0e-3" fill="none">
    <polyline points="-0.704712133457173,-0.4461129650228649
0.75,-0.4461129650228649"/>
  </g>
  <g fill-opacity="1.0" font-size="5.0e-2" stroke="none" stroke-width="0.0" fill="#666666" text-anchor="end">
    <text x="-0.75" y="0.35779260907180815">10th
    </text>
  </g>
  <g fill-opacity="1.0" font-size="5.0e-2" stroke="none" stroke-width="0.0" fill="#666666" text-anchor="end">
    <text x="-0.75" y="0.25891731553578057">20th
    </text>
  </g>
  <g fill-opacity="1.0" font-size="5.0e-2" stroke="none" stroke-width="0.0" fill="#666666" text-anchor="end">
    <text x="-0.75" y="0.16004202199975281">30th
    </text>
  </g>
  <g fill-opacity="1.0" font-size="5.0e-2" stroke="none" stroke-width="0.0" fill="#666666" text-anchor="end">
    <text x="-0.75" y="6.116672846372512e-2">40th
    </text>
  </g>
  <g fill-opacity="1.0" font-size="5.0e-2" stroke="none" stroke-width="0.0" fill="#666666" text-anchor="end">
    <text x="-0.75" y="-3.770856507230258e-2">50th
    </text>
  </g>
  <g fill-opacity="1.0" font-size="5.0e-2" stroke="none" stroke-width="0.0" fill="#666666" text-anchor="end">
    <text x="-0.75" y="-0.13658385860833033">60th
    </text>
  </g>
  <g fill-opacity="1.0" font-size="5.0e-2" stroke="none" stroke-width="0.0" fill="#666666" text-anchor="end">
    <text x="-0.75" y="-0.23545915214435797">70th
    </text>
  </g>
  <g fill-opacity="1.0" font-size="5.0e-2" stroke="none" stroke-width="0.0" fill="#666666" text-anchor="end">
    <text x="-0.75" y="-0.3343344456803856">80th
    </text>
  </g>
  <g fill-opacity="1.0" font-size="5.0e-2" stroke="none" stroke-width="0.0" fill="#666666" text-anchor="end">
    <text x="-0.75" y="-0.43320973921641315">90th
    </text>
  </g>
  <g stroke-opacity="0.4" fill-opacity="1.0" stroke="#2c429d" stroke-width="5.0e-3" fill="#5f0391">
    <g transform="rotate(-90.0, -0.7264242548520562, 0.34488938326535656)">
      <polyline points="-0.7264242548520562,0.3598893832653566
-0.7264242548520562,0.32988938326535655"/>
    </g>
    <g transform="rotate(-90.0, -0.7264242548520562, 0.24601408972932892)">
      <polyline points="-0.7264242548520562,0.26101408972932894
-0.7264242548520562,0.2310140897293289"/>
    </g>
    <g transform="rotate(-90.0, -0.7264242548520562, 0.14713879619330117)">
      <polyline points="-0.7264242548520562,0.16213879619330118
-0.7264242548520562,0.13213879619330116"/>
    </g>
    <g transform="rotate(-90.0, -0.7264242548520562, 4.826350265727347e-2)">
      <polyline points="-0.7264242548520562,6.326350265727347e-2
-0.7264242548520562,3.326350265727347e-2"/>
    </g>
    <g transform="rotate(-90.0, -0.7264242548520562, -5.0611790878754115e-2)">
      <polyline points="-0.7264242548520562,-3.5611790878754115e-2
-0.7264242548520562,-6.561179087875411e-2"/>
    </g>
    <g transform="rotate(-90.0, -0.7264242548520562, -0.14948708441478187)">
      <polyline points="-0.7264242548520562,-0.13448708441478185
-0.7264242548520562,-0.16448708441478188"/>
    </g>
    <g transform="rotate(-90.0, -0.7264242548520562, -0.2483623779508095)">
      <polyline points="-0.7264242548520562,-0.2333623779508095
-0.7264242548520562,-0.2633623779508095"/>
    </g>
    <g transform="rotate(-90.0, -0.7264242548520562, -0.34723767148683726)">
      <polyline points="-0.7264242548520562,-0.33223767148683725
-0.7264242548520562,-0.3622376714868373"/>
    </g>
    <g transform="rotate(-90.0, -0.7264242548520562, -0.4461129650228649)">
      <polyline points="-0.7264242548520562,-0.4311129650228649
-0.7264242548520562,-0.4611129650228649"/>
    </g>
  </g>
  <g stroke-opacity="0.0" fill-opacity="0.5" stroke="#666666" stroke-width="0.0" fill="#5f0391">
    <rect height="0.8898776418242489" width="3.6186868991471277e-3" x="-0.7191868810537617" y="-0.49555061179087856"/>
  </g>
  <g stroke-opacity="0.4" fill-opacity="0.8" stroke="#2c429d" stroke-width="3.0e-3" fill="#5da5da">
    <circle cy="0.3943270300333704" r="5.0e-3" cx="-0.7010934465580259"/>
    <circle cy="0.3943270300333704" r="5.0e-3" cx="-0.6981926955366653"/>
    <circle cy="-0.2978000247188233" r="5.0e-3" cx="-0.6952919445153048"/>
    <circle cy="-0.49555061179087856" r="5.0e-3" cx="-0.6923911934939444"/>
    <circle cy="-0.19892473118279563" r="5.0e-3" cx="-0.689490442472584"/>
    <circle cy="9.77011494252874e-2" r="5.0e-3" cx="-0.6865896914512234"/>
    <circle cy="-0.2978000247188233" r="5.0e-3" cx="-0.683688940429863"/>
    <circle cy="-0.49555061179087856" r="5.0e-3" cx="-0.6807881894085025"/>
    <circle cy="0.19657644296131505" r="5.0e-3" cx="-0.677887438387142"/>
    <circle cy="0.3943270300333704" r="5.0e-3" cx="-0.6749866873657815"/>
    <circle cy="0.2954517364973427" r="5.0e-3" cx="-0.672085936344421"/>
    <circle cy="9.77011494252874e-2" r="5.0e-3" cx="-0.6691851853230606"/>
    <circle cy="-0.19892473118279563" r="5.0e-3" cx="-0.6662844343017"/>
    <circle cy="0.3943270300333704" r="5.0e-3" cx="-0.6633836832803396"/>
    <circle cy="-0.10004943764676799" r="5.0e-3" cx="-0.6604829322589791"/>
    <circle cy="0.19657644296131505" r="5.0e-3" cx="-0.6575821812376187"/>
    <circle cy="0.3943270300333704" r="5.0e-3" cx="-0.6546814302162582"/>
    <circle cy="0.3943270300333704" r="5.0e-3" cx="-0.6517806791948977"/>
    <circle cy="-0.49555061179087856" r="5.0e-3" cx="-0.6488799281735372"/>
    <circle cy="0.3943270300333704" r="5.0e-3" cx="-0.6459791771521768"/>
    <circle cy="0.19657644296131505" r="5.0e-3" cx="-0.6430784261308163"/>
    <circle cy="-0.49555061179087856" r="5.0e-3" cx="-0.6401776751094558"/>
    <circle cy="0.3943270300333704" r="5.0e-3" cx="-0.6372769240880953"/>
    <circle cy="-0.49555061179087856" r="5.0e-3" cx="-0.6343761730667349"/>
    <circle cy="-0.3966753182548509" r="5.0e-3" cx="-0.6314754220453743"/>
    <circle cy="-0.3966753182548509" r="5.0e-3" cx="-0.6285746710240139"/>
    <circle cy="0.3943270300333704" r="5.0e-3" cx="-0.6256739200026534"/>
    <circle cy="-0.2978000247188233" r="5.0e-3" cx="-0.622773168981293"/>
    <circle cy="-0.49555061179087856" r="5.0e-3" cx="-0.6198724179599324"/>
    <circle cy="0.2954517364973427" r="5.0e-3" cx="-0.616971666938572"/>
    <circle cy="-0.3966753182548509" r="5.0e-3" cx="-0.6140709159172115"/>
    <circle cy="0.19657644296131505" r="5.0e-3" cx="-0.611170164895851"/>
    <circle cy="-0.3966753182548509" r="5.0e-3" cx="-0.6082694138744905"/>
    <circle cy="-0.3966753182548509" r="5.0e-3" cx="-0.6053686628531301"/>
    <circle cy="-1.1741441107403494e-3" r="5.0e-3" cx="-0.6024679118317695"/>
    <circle cy="0.2954517364973427" r="5.0e-3" cx="-0.5995671608104091"/>
    <circle cy="0.2954517364973427" r="5.0e-3" cx="-0.5966664097890486"/>
    <circle cy="-1.1741441107403494e-3" r="5.0e-3" cx="-0.5937656587676882"/>
    <circle cy="0.3943270300333704" r="5.0e-3" cx="-0.5908649077463277"/>
    <circle cy="-0.19892473118279563" r="5.0e-3" cx="-0.5879641567249672"/>
    <circle cy="-0.3966753182548509" r="5.0e-3" cx="-0.5850634057036067"/>
    <circle cy="-0.10004943764676799" r="5.0e-3" cx="-0.5821626546822463"/>
    <circle cy="0.2954517364973427" r="5.0e-3" cx="-0.5792619036608857"/>
    <circle cy="-0.19892473118279563" r="5.0e-3" cx="-0.5763611526395254"/>
    <circle cy="0.2954517364973427" r="5.0e-3" cx="-0.5734604016181648"/>
    <circle cy="0.19657644296131505" r="5.0e-3" cx="-0.5705596505968044"/>
    <circle cy="-0.49555061179087856" r="5.0e-3" cx="-0.5676588995754439"/>
    <circle cy="-0.2978000247188233" r="5.0e-3" cx="-0.5647581485540834"/>
    <circle cy="-1.1741441107403494e-3" r="5.0e-3" cx="-0.5618573975327229"/>
    <circle cy="-0.3966753182548509" r="5.0e-3" cx="-0.5589566465113625"/>
    <circle cy="-0.3966753182548509" r="5.0e-3" cx="-0.5560558954900019"/>
    <circle cy="-0.10004943764676799" r="5.0e-3" cx="-0.5531551444686414"/>
    <circle cy="-0.10004943764676799" r="5.0e-3" cx="-0.550254393447281"/>
    <circle cy="0.2954517364973427" r="5.0e-3" cx="-0.5473536424259204"/>
    <circle cy="-0.2978000247188233" r="5.0e-3" cx="-0.54445289140456"/>
    <circle cy="9.77011494252874e-2" r="5.0e-3" cx="-0.5415521403831995"/>
    <circle cy="0.19657644296131505" r="5.0e-3" cx="-0.538651389361839"/>
    <circle cy="-0.3966753182548509" r="5.0e-3" cx="-0.5357506383404785"/>
    <circle cy="0.19657644296131505" r="5.0e-3" cx="-0.5328498873191181"/>
    <circle cy="-0.19892473118279563" r="5.0e-3" cx="-0.5299491362977576"/>
    <circle cy="0.19657644296131505" r="5.0e-3" cx="-0.5270483852763972"/>
    <circle cy="0.19657644296131505" r="5.0e-3" cx="-0.5241476342550366"/>
    <circle cy="0.3943270300333704" r="5.0e-3" cx="-0.5212468832336761"/>
    <circle cy="-0.49555061179087856" r="5.0e-3" cx="-0.5183461322123156"/>
    <circle cy="0.2954517364973427" r="5.0e-3" cx="-0.5154453811909552"/>
    <circle cy="-0.3966753182548509" r="5.0e-3" cx="-0.5125446301695947"/>
    <circle cy="-0.2978000247188233" r="5.0e-3" cx="-0.5096438791482343"/>
    <circle cy="-1.1741441107403494e-3" r="5.0e-3" cx="-0.5067431281268737"/>
    <circle cy="-0.3966753182548509" r="5.0e-3" cx="-0.5038423771055133"/>
    <circle cy="9.77011494252874e-2" r="5.0e-3" cx="-0.5009416260841528"/>
    <circle cy="-0.19892473118279563" r="5.0e-3" cx="-0.4980408750627923"/>
    <circle cy="-0.10004943764676799" r="5.0e-3" cx="-0.49514012404143193"/>
    <circle cy="-0.10004943764676799" r="5.0e-3" cx="-0.4922393730200714"/>
    <circle cy="0.2954517364973427" r="5.0e-3" cx="-0.4893386219987109"/>
    <circle cy="-0.19892473118279563" r="5.0e-3" cx="-0.4864378709773505"/>
    <circle cy="9.77011494252874e-2" r="5.0e-3" cx="-0.48353711995598997"/>
    <circle cy="0.19657644296131505" r="5.0e-3" cx="-0.48063636893462947"/>
    <circle cy="0.2954517364973427" r="5.0e-3" cx="-0.477735617913269"/>
    <circle cy="-0.10004943764676799" r="5.0e-3" cx="-0.4748348668919085"/>
    <circle cy="0.2954517364973427" r="5.0e-3" cx="-0.47193411587054807"/>
    <circle cy="-0.19892473118279563" r="5.0e-3" cx="-0.46903336484918756"/>
    <circle cy="0.3943270300333704" r="5.0e-3" cx="-0.4661326138278271"/>
    <circle cy="-0.19892473118279563" r="5.0e-3" cx="-0.4632318628064666"/>
    <circle cy="0.3943270300333704" r="5.0e-3" cx="-0.4603311117851061"/>
    <circle cy="-0.2978000247188233" r="5.0e-3" cx="-0.4574303607637457"/>
    <circle cy="-1.1741441107403494e-3" r="5.0e-3" cx="-0.45452960974238527"/>
    <circle cy="-0.2978000247188233" r="5.0e-3" cx="-0.45162885872102476"/>
    <circle cy="0.2954517364973427" r="5.0e-3" cx="-0.44872810769966426"/>
    <circle cy="-0.3966753182548509" r="5.0e-3" cx="-0.44582735667830375"/>
    <circle cy="-0.3966753182548509" r="5.0e-3" cx="-0.4429266056569433"/>
    <circle cy="-0.3966753182548509" r="5.0e-3" cx="-0.44002585463558286"/>
    <circle cy="-0.2978000247188233" r="5.0e-3" cx="-0.43712510361422235"/>
    <circle cy="0.2954517364973427" r="5.0e-3" cx="-0.43422435259286185"/>
    <circle cy="-0.3966753182548509" r="5.0e-3" cx="-0.4313236015715014"/>
    <circle cy="-0.10004943764676799" r="5.0e-3" cx="-0.4284228505501409"/>
    <circle cy="9.77011494252874e-2" r="5.0e-3" cx="-0.42552209952878045"/>
    <circle cy="-0.2978000247188233" r="5.0e-3" cx="-0.42262134850741995"/>
    <circle cy="-0.19892473118279563" r="5.0e-3" cx="-0.41972059748605944"/>
    <circle cy="0.19657644296131505" r="5.0e-3" cx="-0.41681984646469894"/>
    <circle cy="9.77011494252874e-2" r="5.0e-3" cx="-0.4139190954433385"/>
    <circle cy="-0.19892473118279563" r="5.0e-3" cx="-0.41101834442197804"/>
    <circle cy="-0.2978000247188233" r="5.0e-3" cx="-0.40811759340061754"/>
    <circle cy="-0.3966753182548509" r="5.0e-3" cx="-0.40521684237925704"/>
    <circle cy="0.19657644296131505" r="5.0e-3" cx="-0.4023160913578966"/>
    <circle cy="0.2954517364973427" r="5.0e-3" cx="-0.3994153403365361"/>
    <circle cy="0.2954517364973427" r="5.0e-3" cx="-0.39651458931517564"/>
    <circle cy="-0.2978000247188233" r="5.0e-3" cx="-0.39361383829381513"/>
    <circle cy="9.77011494252874e-2" r="5.0e-3" cx="-0.39071308727245463"/>
    <circle cy="-0.2978000247188233" r="5.0e-3" cx="-0.3878123362510941"/>
    <circle cy="-0.2978000247188233" r="5.0e-3" cx="-0.3849115852297337"/>
    <circle cy="-0.19892473118279563" r="5.0e-3" cx="-0.38201083420837323"/>
    <circle cy="-0.19892473118279563" r="5.0e-3" cx="-0.3791100831870127"/>
    <circle cy="-1.1741441107403494e-3" r="5.0e-3" cx="-0.3762093321656522"/>
    <circle cy="9.77011494252874e-2" r="5.0e-3" cx="-0.3733085811442918"/>
    <circle cy="0.3943270300333704" r="5.0e-3" cx="-0.3704078301229313"/>
    <circle cy="0.19657644296131505" r="5.0e-3" cx="-0.36750707910157077"/>
    <circle cy="-0.3966753182548509" r="5.0e-3" cx="-0.3646063280802103"/>
    <circle cy="0.3943270300333704" r="5.0e-3" cx="-0.36170557705884987"/>
    <circle cy="-0.3966753182548509" r="5.0e-3" cx="-0.3588048260374893"/>
    <circle cy="-0.19892473118279563" r="5.0e-3" cx="-0.35590407501612886"/>
    <circle cy="-0.19892473118279563" r="5.0e-3" cx="-0.35300332399476836"/>
    <circle cy="-0.10004943764676799" r="5.0e-3" cx="-0.3501025729734079"/>
    <circle cy="-1.1741441107403494e-3" r="5.0e-3" cx="-0.3472018219520475"/>
    <circle cy="9.77011494252874e-2" r="5.0e-3" cx="-0.344301070930687"/>
    <circle cy="-0.2978000247188233" r="5.0e-3" cx="-0.34140031990932657"/>
    <circle cy="-0.3966753182548509" r="5.0e-3" cx="-0.33849956888796606"/>
    <circle cy="-1.1741441107403494e-3" r="5.0e-3" cx="-0.3355988178666056"/>
    <circle cy="-0.2978000247188233" r="5.0e-3" cx="-0.33269806684524517"/>
    <circle cy="0.2954517364973427" r="5.0e-3" cx="-0.3297973158238846"/>
    <circle cy="-1.1741441107403494e-3" r="5.0e-3" cx="-0.32689656480252416"/>
    <circle cy="0.19657644296131505" r="5.0e-3" cx="-0.3239958137811636"/>
    <circle cy="0.19657644296131505" r="5.0e-3" cx="-0.32109506275980315"/>
    <circle cy="0.19657644296131505" r="5.0e-3" cx="-0.3181943117384427"/>
    <circle cy="0.19657644296131505" r="5.0e-3" cx="-0.3152935607170822"/>
    <circle cy="-0.10004943764676799" r="5.0e-3" cx="-0.31239280969572175"/>
    <circle cy="-0.2978000247188233" r="5.0e-3" cx="-0.30949205867436125"/>
    <circle cy="-1.1741441107403494e-3" r="5.0e-3" cx="-0.3065913076530008"/>
    <circle cy="-0.2978000247188233" r="5.0e-3" cx="-0.30369055663164035"/>
    <circle cy="-1.1741441107403494e-3" r="5.0e-3" cx="-0.3007898056102798"/>
    <circle cy="0.2954517364973427" r="5.0e-3" cx="-0.29788905458891934"/>
    <circle cy="-0.2978000247188233" r="5.0e-3" cx="-0.2949883035675588"/>
    <circle cy="-0.10004943764676799" r="5.0e-3" cx="-0.29208755254619845"/>
    <circle cy="-0.3966753182548509" r="5.0e-3" cx="-0.2891868015248379"/>
    <circle cy="-1.1741441107403494e-3" r="5.0e-3" cx="-0.28628605050347744"/>
    <circle cy="0.19657644296131505" r="5.0e-3" cx="-0.283385299482117"/>
    <circle cy="9.77011494252874e-2" r="5.0e-3" cx="-0.2804845484607565"/>
    <circle cy="0.19657644296131505" r="5.0e-3" cx="-0.27758379743939604"/>
    <circle cy="-0.19892473118279563" r="5.0e-3" cx="-0.27468304641803554"/>
    <circle cy="-1.1741441107403494e-3" r="5.0e-3" cx="-0.2717822953966751"/>
    <circle cy="-0.2978000247188233" r="5.0e-3" cx="-0.26888154437531464"/>
    <circle cy="9.77011494252874e-2" r="5.0e-3" cx="-0.2659807933539541"/>
    <circle cy="-0.10004943764676799" r="5.0e-3" cx="-0.26308004233259363"/>
    <circle cy="0.3943270300333704" r="5.0e-3" cx="-0.2601792913112331"/>
    <circle cy="0.2954517364973427" r="5.0e-3" cx="-0.2572785402898726"/>
    <circle cy="-1.1741441107403494e-3" r="5.0e-3" cx="-0.2543777892685122"/>
    <circle cy="9.77011494252874e-2" r="5.0e-3" cx="-0.2514770382471517"/>
    <circle cy="0.3943270300333704" r="5.0e-3" cx="-0.24857628722579128"/>
    <circle cy="0.3943270300333704" r="5.0e-3" cx="-0.24567553620443072"/>
    <circle cy="-0.49555061179087856" r="5.0e-3" cx="-0.24277478518307027"/>
    <circle cy="0.2954517364973427" r="5.0e-3" cx="-0.23987403416170983"/>
    <circle cy="-0.49555061179087856" r="5.0e-3" cx="-0.23697328314034927"/>
    <circle cy="-1.1741441107403494e-3" r="5.0e-3" cx="-0.23407253211898882"/>
    <circle cy="0.3943270300333704" r="5.0e-3" cx="-0.23117178109762826"/>
    <circle cy="-1.1741441107403494e-3" r="5.0e-3" cx="-0.2282710300762678"/>
    <circle cy="0.2954517364973427" r="5.0e-3" cx="-0.22537027905490736"/>
    <circle cy="0.2954517364973427" r="5.0e-3" cx="-0.22246952803354691"/>
    <circle cy="0.3943270300333704" r="5.0e-3" cx="-0.21956877701218636"/>
    <circle cy="-0.49555061179087856" r="5.0e-3" cx="-0.21666802599082602"/>
    <circle cy="0.3943270300333704" r="5.0e-3" cx="-0.21376727496946546"/>
    <circle cy="0.2954517364973427" r="5.0e-3" cx="-0.21086652394810512"/>
    <circle cy="-0.49555061179087856" r="5.0e-3" cx="-0.20796577292674456"/>
    <circle cy="-0.49555061179087856" r="5.0e-3" cx="-0.20506502190538412"/>
    <circle cy="-0.49555061179087856" r="5.0e-3" cx="-0.20216427088402356"/>
    <circle cy="0.2954517364973427" r="5.0e-3" cx="-0.1992635198626631"/>
    <circle cy="-0.2978000247188233" r="5.0e-3" cx="-0.19636276884130266"/>
    <circle cy="-0.3966753182548509" r="5.0e-3" cx="-0.1934620178199421"/>
    <circle cy="-0.49555061179087856" r="5.0e-3" cx="-0.19056126679858165"/>
    <circle cy="9.77011494252874e-2" r="5.0e-3" cx="-0.1876605157772211"/>
    <circle cy="0.3943270300333704" r="5.0e-3" cx="-0.18475976475586076"/>
    <circle cy="0.3943270300333704" r="5.0e-3" cx="-0.1818590137345002"/>
    <circle cy="9.77011494252874e-2" r="5.0e-3" cx="-0.17895826271313975"/>
    <circle cy="0.2954517364973427" r="5.0e-3" cx="-0.1760575116917793"/>
    <circle cy="-0.49555061179087856" r="5.0e-3" cx="-0.17315676067041874"/>
    <circle cy="-0.19892473118279563" r="5.0e-3" cx="-0.1702560096490583"/>
    <circle cy="0.3943270300333704" r="5.0e-3" cx="-0.16735525862769784"/>
    <circle cy="0.3943270300333704" r="5.0e-3" cx="-0.16445450760633729"/>
    <circle cy="-0.19892473118279563" r="5.0e-3" cx="-0.16155375658497684"/>
    <circle cy="0.2954517364973427" r="5.0e-3" cx="-0.1586530055636164"/>
    <circle cy="-0.49555061179087856" r="5.0e-3" cx="-0.15575225454225583"/>
    <circle cy="-0.19892473118279563" r="5.0e-3" cx="-0.1528515035208955"/>
    <circle cy="-0.49555061179087856" r="5.0e-3" cx="-0.14995075249953493"/>
    <circle cy="9.77011494252874e-2" r="5.0e-3" cx="-0.14705000147817449"/>
    <circle cy="-0.3966753182548509" r="5.0e-3" cx="-0.14414925045681404"/>
    <circle cy="-0.49555061179087856" r="5.0e-3" cx="-0.1412484994354536"/>
    <circle cy="0.3943270300333704" r="5.0e-3" cx="-0.13834774841409314"/>
    <circle cy="9.77011494252874e-2" r="5.0e-3" cx="-0.13544699739273258"/>
    <circle cy="0.3943270300333704" r="5.0e-3" cx="-0.13254624637137213"/>
    <circle cy="-0.10004943764676799" r="5.0e-3" cx="-0.12964549535001157"/>
    <circle cy="-1.1741441107403494e-3" r="5.0e-3" cx="-0.12674474432865113"/>
    <circle cy="-0.2978000247188233" r="5.0e-3" cx="-0.12384399330729068"/>
    <circle cy="-1.1741441107403494e-3" r="5.0e-3" cx="-0.12094324228593023"/>
    <circle cy="0.3943270300333704" r="5.0e-3" cx="-0.11804249126456967"/>
    <circle cy="0.3943270300333704" r="5.0e-3" cx="-0.11514174024320922"/>
    <circle cy="-0.10004943764676799" r="5.0e-3" cx="-0.11224098922184877"/>
    <circle cy="0.2954517364973427" r="5.0e-3" cx="-0.10934023820048833"/>
    <circle cy="0.2954517364973427" r="5.0e-3" cx="-0.10643948717912777"/>
    <circle cy="0.3943270300333704" r="5.0e-3" cx="-0.10353873615776732"/>
    <circle cy="0.3943270300333704" r="5.0e-3" cx="-0.10063798513640676"/>
    <circle cy="-0.49555061179087856" r="5.0e-3" cx="-9.773723411504631e-2"/>
    <circle cy="-0.3966753182548509" r="5.0e-3" cx="-9.483648309368586e-2"/>
    <circle cy="-1.1741441107403494e-3" r="5.0e-3" cx="-9.19357320723253e-2"/>
    <circle cy="-0.3966753182548509" r="5.0e-3" cx="-8.903498105096497e-2"/>
    <circle cy="-0.10004943764676799" r="5.0e-3" cx="-8.613423002960441e-2"/>
    <circle cy="0.3943270300333704" r="5.0e-3" cx="-8.323347900824396e-2"/>
    <circle cy="-0.49555061179087856" r="5.0e-3" cx="-8.033272798688351e-2"/>
    <circle cy="-0.2978000247188233" r="5.0e-3" cx="-7.743197696552295e-2"/>
    <circle cy="-0.3966753182548509" r="5.0e-3" cx="-7.45312259441625e-2"/>
    <circle cy="-0.19892473118279563" r="5.0e-3" cx="-7.163047492280195e-2"/>
    <circle cy="-0.2978000247188233" r="5.0e-3" cx="-6.872972390144161e-2"/>
    <circle cy="-1.1741441107403494e-3" r="5.0e-3" cx="-6.582897288008116e-2"/>
    <circle cy="0.19657644296131505" r="5.0e-3" cx="-6.29282218587206e-2"/>
    <circle cy="-0.3966753182548509" r="5.0e-3" cx="-6.002747083736015e-2"/>
    <circle cy="-0.19892473118279563" r="5.0e-3" cx="-5.7126719815999705e-2"/>
    <circle cy="-0.3966753182548509" r="5.0e-3" cx="-5.4225968794639146e-2"/>
    <circle cy="-0.49555061179087856" r="5.0e-3" cx="-5.132521777327881e-2"/>
    <circle cy="0.2954517364973427" r="5.0e-3" cx="-4.842446675191825e-2"/>
    <circle cy="-0.19892473118279563" r="5.0e-3" cx="-4.55237157305578e-2"/>
    <circle cy="-0.10004943764676799" r="5.0e-3" cx="-4.262296470919724e-2"/>
    <circle cy="-0.3966753182548509" r="5.0e-3" cx="-3.9722213687836794e-2"/>
    <circle cy="0.2954517364973427" r="5.0e-3" cx="-3.6821462666476346e-2"/>
    <circle cy="9.77011494252874e-2" r="5.0e-3" cx="-3.3920711645115786e-2"/>
    <circle cy="-0.49555061179087856" r="5.0e-3" cx="-3.1019960623755338e-2"/>
    <circle cy="-0.3966753182548509" r="5.0e-3" cx="-2.811920960239478e-2"/>
    <circle cy="-0.10004943764676799" r="5.0e-3" cx="-2.5218458581034442e-2"/>
    <circle cy="-0.2978000247188233" r="5.0e-3" cx="-2.2317707559673883e-2"/>
    <circle cy="-0.19892473118279563" r="5.0e-3" cx="-1.9416956538313546e-2"/>
    <circle cy="9.77011494252874e-2" r="5.0e-3" cx="-1.6516205516952875e-2"/>
    <circle cy="0.2954517364973427" r="5.0e-3" cx="-1.3615454495592538e-2"/>
    <circle cy="-0.10004943764676799" r="5.0e-3" cx="-1.0714703474231868e-2"/>
    <circle cy="-0.10004943764676799" r="5.0e-3" cx="-7.813952452871642e-3"/>
    <circle cy="-0.49555061179087856" r="5.0e-3" cx="-4.913201431510972e-3"/>
    <circle cy="-0.19892473118279563" r="5.0e-3" cx="-2.0124504101506346e-3"/>
    <circle cy="0.19657644296131505" r="5.0e-3" cx="8.883006112099245e-4"/>
    <circle cy="-0.3966753182548509" r="5.0e-3" cx="3.7890516325704837e-3"/>
    <circle cy="-0.10004943764676799" r="5.0e-3" cx="6.689802653930821e-3"/>
    <circle cy="-0.10004943764676799" r="5.0e-3" cx="9.59055367529138e-3"/>
    <circle cy="0.19657644296131505" r="5.0e-3" cx="1.2491304696651717e-2"/>
    <circle cy="-0.2978000247188233" r="5.0e-3" cx="1.5392055718012276e-2"/>
    <circle cy="-0.10004943764676799" r="5.0e-3" cx="1.8292806739372836e-2"/>
    <circle cy="9.77011494252874e-2" r="5.0e-3" cx="2.1193557760733284e-2"/>
    <circle cy="9.77011494252874e-2" r="5.0e-3" cx="2.4094308782093732e-2"/>
    <circle cy="0.19657644296131505" r="5.0e-3" cx="2.699505980345418e-2"/>
    <circle cy="-0.2978000247188233" r="5.0e-3" cx="2.9895810824814628e-2"/>
    <circle cy="0.19657644296131505" r="5.0e-3" cx="3.279656184617519e-2"/>
    <circle cy="9.77011494252874e-2" r="5.0e-3" cx="3.5697312867535747e-2"/>
    <circle cy="0.2954517364973427" r="5.0e-3" cx="3.8598063888896084e-2"/>
    <circle cy="0.2954517364973427" r="5.0e-3" cx="4.149881491025664e-2"/>
    <circle cy="9.77011494252874e-2" r="5.0e-3" cx="4.439956593161698e-2"/>
    <circle cy="-0.49555061179087856" r="5.0e-3" cx="4.730031695297765e-2"/>
    <circle cy="-0.19892473118279563" r="5.0e-3" cx="5.02010679743381e-2"/>
    <circle cy="-0.2978000247188233" r="5.0e-3" cx="5.3101818995698546e-2"/>
    <circle cy="9.77011494252874e-2" r="5.0e-3" cx="5.6002570017058995e-2"/>
    <circle cy="-0.2978000247188233" r="5.0e-3" cx="5.890332103841944e-2"/>
    <circle cy="-0.19892473118279563" r="5.0e-3" cx="6.180407205978011e-2"/>
    <circle cy="-1.1741441107403494e-3" r="5.0e-3" cx="6.470482308114045e-2"/>
    <circle cy="0.19657644296131505" r="5.0e-3" cx="6.760557410250101e-2"/>
    <circle cy="-0.3966753182548509" r="5.0e-3" cx="7.050632512386135e-2"/>
    <circle cy="0.3943270300333704" r="5.0e-3" cx="7.34070761452219e-2"/>
    <circle cy="-1.1741441107403494e-3" r="5.0e-3" cx="7.630782716658246e-2"/>
    <circle cy="-0.2978000247188233" r="5.0e-3" cx="7.920857818794291e-2"/>
    <circle cy="0.19657644296131505" r="5.0e-3" cx="8.210932920930336e-2"/>
    <circle cy="-0.19892473118279563" r="5.0e-3" cx="8.501008023066381e-2"/>
    <circle cy="-0.2978000247188233" r="5.0e-3" cx="8.791083125202426e-2"/>
    <circle cy="-0.49555061179087856" r="5.0e-3" cx="9.08115822733847e-2"/>
    <circle cy="-1.1741441107403494e-3" r="5.0e-3" cx="9.371233329474538e-2"/>
    <circle cy="-0.10004943764676799" r="5.0e-3" cx="9.661308431610571e-2"/>
    <circle cy="-0.10004943764676799" r="5.0e-3" cx="9.951383533746627e-2"/>
    <circle cy="-0.2978000247188233" r="5.0e-3" cx="0.10241458635882661"/>
    <circle cy="-0.10004943764676799" r="5.0e-3" cx="0.10531533738018717"/>
    <circle cy="0.2954517364973427" r="5.0e-3" cx="0.10821608840154773"/>
    <circle cy="-0.19892473118279563" r="5.0e-3" cx="0.11111683942290818"/>
    <circle cy="-1.1741441107403494e-3" r="5.0e-3" cx="0.11401759044426862"/>
    <circle cy="-0.2978000247188233" r="5.0e-3" cx="0.11691834146562896"/>
    <circle cy="9.77011494252874e-2" r="5.0e-3" cx="0.11981909248698952"/>
    <circle cy="-1.1741441107403494e-3" r="5.0e-3" cx="0.12271984350834997"/>
    <circle cy="0.19657644296131505" r="5.0e-3" cx="0.12562059452971042"/>
    <circle cy="-0.10004943764676799" r="5.0e-3" cx="0.12852134555107086"/>
    <circle cy="-0.10004943764676799" r="5.0e-3" cx="0.1314220965724313"/>
    <circle cy="-0.3966753182548509" r="5.0e-3" cx="0.13432284759379187"/>
    <circle cy="0.19657644296131505" r="5.0e-3" cx="0.13722359861515243"/>
    <circle cy="9.77011494252874e-2" r="5.0e-3" cx="0.14012434963651277"/>
    <circle cy="-0.2978000247188233" r="5.0e-3" cx="0.14302510065787333"/>
    <circle cy="-0.10004943764676799" r="5.0e-3" cx="0.14592585167923366"/>
    <circle cy="-1.1741441107403494e-3" r="5.0e-3" cx="0.14882660270059433"/>
    <circle cy="0.2954517364973427" r="5.0e-3" cx="0.15172735372195478"/>
    <circle cy="0.19657644296131505" r="5.0e-3" cx="0.15462810474331523"/>
    <circle cy="-0.3966753182548509" r="5.0e-3" cx="0.15752885576467568"/>
    <circle cy="0.2954517364973427" r="5.0e-3" cx="0.16042960678603613"/>
    <circle cy="0.3943270300333704" r="5.0e-3" cx="0.1633303578073968"/>
    <circle cy="9.77011494252874e-2" r="5.0e-3" cx="0.16623110882875713"/>
    <circle cy="0.19657644296131505" r="5.0e-3" cx="0.1691318598501177"/>
    <circle cy="-0.2978000247188233" r="5.0e-3" cx="0.17203261087147803"/>
    <circle cy="0.3943270300333704" r="5.0e-3" cx="0.1749333618928386"/>
    <circle cy="-0.3966753182548509" r="5.0e-3" cx="0.17783411291419915"/>
    <circle cy="-0.2978000247188233" r="5.0e-3" cx="0.1807348639355596"/>
    <circle cy="-0.3966753182548509" r="5.0e-3" cx="0.18363561495692005"/>
    <circle cy="0.2954517364973427" r="5.0e-3" cx="0.1865363659782805"/>
    <circle cy="0.2954517364973427" r="5.0e-3" cx="0.18943711699964094"/>
    <circle cy="-0.3966753182548509" r="5.0e-3" cx="0.1923378680210015"/>
    <circle cy="0.19657644296131505" r="5.0e-3" cx="0.19523861904236206"/>
    <circle cy="0.3943270300333704" r="5.0e-3" cx="0.1981393700637224"/>
    <circle cy="-0.10004943764676799" r="5.0e-3" cx="0.20104012108508296"/>
    <circle cy="0.2954517364973427" r="5.0e-3" cx="0.2039408721064433"/>
    <circle cy="0.2954517364973427" r="5.0e-3" cx="0.20684162312780396"/>
    <circle cy="-0.19892473118279563" r="5.0e-3" cx="0.2097423741491644"/>
    <circle cy="0.3943270300333704" r="5.0e-3" cx="0.21264312517052486"/>
    <circle cy="9.77011494252874e-2" r="5.0e-3" cx="0.2155438761918853"/>
    <circle cy="-0.49555061179087856" r="5.0e-3" cx="0.21844462721324576"/>
    <circle cy="-0.3966753182548509" r="5.0e-3" cx="0.22134537823460643"/>
    <circle cy="-0.2978000247188233" r="5.0e-3" cx="0.22424612925596676"/>
    <circle cy="-0.49555061179087856" r="5.0e-3" cx="0.22714688027732732"/>
    <circle cy="-0.19892473118279563" r="5.0e-3" cx="0.23004763129868766"/>
    <circle cy="-1.1741441107403494e-3" r="5.0e-3" cx="0.23294838232004822"/>
    <circle cy="9.77011494252874e-2" r="5.0e-3" cx="0.23584913334140878"/>
    <circle cy="-0.19892473118279563" r="5.0e-3" cx="0.23874988436276923"/>
    <circle cy="9.77011494252874e-2" r="5.0e-3" cx="0.24165063538412968"/>
    <circle cy="-0.10004943764676799" r="5.0e-3" cx="0.24455138640549012"/>
    <circle cy="-0.49555061179087856" r="5.0e-3" cx="0.24745213742685057"/>
    <circle cy="-0.19892473118279563" r="5.0e-3" cx="0.25035288844821113"/>
    <circle cy="-0.3966753182548509" r="5.0e-3" cx="0.2532536394695717"/>
    <circle cy="9.77011494252874e-2" r="5.0e-3" cx="0.256154390490932"/>
    <circle cy="9.77011494252874e-2" r="5.0e-3" cx="0.2590551415122926"/>
    <circle cy="0.3943270300333704" r="5.0e-3" cx="0.2619558925336529"/>
    <circle cy="9.77011494252874e-2" r="5.0e-3" cx="0.2648566435550135"/>
    <circle cy="-0.19892473118279563" r="5.0e-3" cx="0.2677573945763738"/>
    <circle cy="-0.2978000247188233" r="5.0e-3" cx="0.2706581455977344"/>
    <circle cy="-0.3966753182548509" r="5.0e-3" cx="0.2735588966190947"/>
    <circle cy="-0.19892473118279563" r="5.0e-3" cx="0.2764596476404553"/>
    <circle cy="-0.3966753182548509" r="5.0e-3" cx="0.27936039866181583"/>
    <circle cy="9.77011494252874e-2" r="5.0e-3" cx="0.28226114968317617"/>
    <circle cy="0.2954517364973427" r="5.0e-3" cx="0.28516190070453673"/>
    <circle cy="-0.10004943764676799" r="5.0e-3" cx="0.2880626517258973"/>
    <circle cy="-0.2978000247188233" r="5.0e-3" cx="0.2909634027472576"/>
    <circle cy="-0.19892473118279563" r="5.0e-3" cx="0.2938641537686182"/>
    <circle cy="-0.2978000247188233" r="5.0e-3" cx="0.29676490478997875"/>
    <circle cy="-1.1741441107403494e-3" r="5.0e-3" cx="0.2996656558113391"/>
    <circle cy="0.19657644296131505" r="5.0e-3" cx="0.30256640683269964"/>
    <circle cy="0.2954517364973427" r="5.0e-3" cx="0.30546715785406"/>
    <circle cy="-0.19892473118279563" r="5.0e-3" cx="0.30836790887542076"/>
    <circle cy="0.2954517364973427" r="5.0e-3" cx="0.3112686598967811"/>
    <circle cy="-0.19892473118279563" r="5.0e-3" cx="0.31416941091814143"/>
    <circle cy="-0.3966753182548509" r="5.0e-3" cx="0.317070161939502"/>
    <circle cy="-0.2978000247188233" r="5.0e-3" cx="0.31997091296086255"/>
    <circle cy="0.2954517364973427" r="5.0e-3" cx="0.3228716639822231"/>
    <circle cy="-0.3966753182548509" r="5.0e-3" cx="0.32577241500358345"/>
    <circle cy="9.77011494252874e-2" r="5.0e-3" cx="0.328673166024944"/>
    <circle cy="0.19657644296131505" r="5.0e-3" cx="0.33157391704630435"/>
    <circle cy="0.3943270300333704" r="5.0e-3" cx="0.3344746680676649"/>
    <circle cy="0.3943270300333704" r="5.0e-3" cx="0.33737541908902546"/>
    <circle cy="0.2954517364973427" r="5.0e-3" cx="0.340276170110386"/>
    <circle cy="0.3943270300333704" r="5.0e-3" cx="0.34317692113174636"/>
    <circle cy="-0.49555061179087856" r="5.0e-3" cx="0.3460776721531067"/>
    <circle cy="-1.1741441107403494e-3" r="5.0e-3" cx="0.34897842317446726"/>
    <circle cy="-0.49555061179087856" r="5.0e-3" cx="0.3518791741958278"/>
    <circle cy="0.2954517364973427" r="5.0e-3" cx="0.3547799252171884"/>
    <circle cy="0.3943270300333704" r="5.0e-3" cx="0.3576806762385487"/>
    <circle cy="-0.49555061179087856" r="5.0e-3" cx="0.36058142725990927"/>
    <circle cy="0.3943270300333704" r="5.0e-3" cx="0.3634821782812696"/>
    <circle cy="-0.19892473118279563" r="5.0e-3" cx="0.36638292930263017"/>
    <circle cy="-0.49555061179087856" r="5.0e-3" cx="0.3692836803239907"/>
    <circle cy="-0.49555061179087856" r="5.0e-3" cx="0.3721844313453513"/>
    <circle cy="0.2954517364973427" r="5.0e-3" cx="0.3750851823667116"/>
    <circle cy="-0.3966753182548509" r="5.0e-3" cx="0.37798593338807196"/>
    <circle cy="-1.1741441107403494e-3" r="5.0e-3" cx="0.38088668440943274"/>
    <circle cy="0.3943270300333704" r="5.0e-3" cx="0.3837874354307931"/>
    <circle cy="-0.49555061179087856" r="5.0e-3" cx="0.38668818645215364"/>
    <circle cy="0.19657644296131505" r="5.0e-3" cx="0.389588937473514"/>
    <circle cy="-0.2978000247188233" r="5.0e-3" cx="0.39248968849487453"/>
    <circle cy="-0.49555061179087856" r="5.0e-3" cx="0.3953904395162351"/>
    <circle cy="-1.1741441107403494e-3" r="5.0e-3" cx="0.39829119053759543"/>
    <circle cy="0.2954517364973427" r="5.0e-3" cx="0.401191941558956"/>
    <circle cy="-0.3966753182548509" r="5.0e-3" cx="0.40409269258031655"/>
    <circle cy="-0.49555061179087856" r="5.0e-3" cx="0.4069934436016769"/>
    <circle cy="-0.10004943764676799" r="5.0e-3" cx="0.40989419462303744"/>
    <circle cy="-1.1741441107403494e-3" r="5.0e-3" cx="0.4127949456443978"/>
    <circle cy="-1.1741441107403494e-3" r="5.0e-3" cx="0.41569569666575834"/>
    <circle cy="-0.2978000247188233" r="5.0e-3" cx="0.4185964476871187"/>
    <circle cy="-0.19892473118279563" r="5.0e-3" cx="0.421497198708479"/>
    <circle cy="9.77011494252874e-2" r="5.0e-3" cx="0.4243979497298398"/>
    <circle cy="0.19657644296131505" r="5.0e-3" cx="0.42729870075120013"/>
    <circle cy="-0.10004943764676799" r="5.0e-3" cx="0.4301994517725607"/>
    <circle cy="-1.1741441107403494e-3" r="5.0e-3" cx="0.43310020279392103"/>
    <circle cy="-1.1741441107403494e-3" r="5.0e-3" cx="0.4360009538152816"/>
    <circle cy="0.19657644296131505" r="5.0e-3" cx="0.43890170483664215"/>
    <circle cy="-1.1741441107403494e-3" r="5.0e-3" cx="0.4418024558580025"/>
    <circle cy="0.2954517364973427" r="5.0e-3" cx="0.44470320687936304"/>
    <circle cy="-0.2978000247188233" r="5.0e-3" cx="0.4476039579007236"/>
    <circle cy="9.77011494252874e-2" r="5.0e-3" cx="0.45050470892208394"/>
    <circle cy="0.19657644296131505" r="5.0e-3" cx="0.4534054599434445"/>
    <circle cy="-0.2978000247188233" r="5.0e-3" cx="0.45630621096480506"/>
    <circle cy="0.3943270300333704" r="5.0e-3" cx="0.4592069619861654"/>
    <circle cy="0.3943270300333704" r="5.0e-3" cx="0.46210771300752596"/>
    <circle cy="-0.3966753182548509" r="5.0e-3" cx="0.4650084640288863"/>
    <circle cy="-0.49555061179087856" r="5.0e-3" cx="0.4679092150502471"/>
    <circle cy="0.19657644296131505" r="5.0e-3" cx="0.4708099660716074"/>
    <circle cy="0.3943270300333704" r="5.0e-3" cx="0.47371071709296775"/>
    <circle cy="-0.3966753182548509" r="5.0e-3" cx="0.4766114681143283"/>
    <circle cy="-0.2978000247188233" r="5.0e-3" cx="0.47951221913568887"/>
    <circle cy="-0.49555061179087856" r="5.0e-3" cx="0.4824129701570494"/>
    <circle cy="9.77011494252874e-2" r="5.0e-3" cx="0.48531372117840976"/>
    <circle cy="-0.3966753182548509" r="5.0e-3" cx="0.4882144721997703"/>
    <circle cy="9.77011494252874e-2" r="5.0e-3" cx="0.49111522322113066"/>
    <circle cy="-0.10004943764676799" r="5.0e-3" cx="0.4940159742424912"/>
    <circle cy="0.19657644296131505" r="5.0e-3" cx="0.4969167252638518"/>
    <circle cy="-0.2978000247188233" r="5.0e-3" cx="0.49981747628521234"/>
    <circle cy="0.19657644296131505" r="5.0e-3" cx="0.5027182273065727"/>
    <circle cy="-0.19892473118279563" r="5.0e-3" cx="0.505618978327933"/>
    <circle cy="-0.10004943764676799" r="5.0e-3" cx="0.5085197293492936"/>
    <circle cy="-0.19892473118279563" r="5.0e-3" cx="0.5114204803706541"/>
    <circle cy="-0.2978000247188233" r="5.0e-3" cx="0.5143212313920147"/>
    <circle cy="-1.1741441107403494e-3" r="5.0e-3" cx="0.517221982413375"/>
    <circle cy="-0.19892473118279563" r="5.0e-3" cx="0.5201227334347356"/>
    <circle cy="0.19657644296131505" r="5.0e-3" cx="0.5230234844560959"/>
    <circle cy="-0.3966753182548509" r="5.0e-3" cx="0.5259242354774565"/>
    <circle cy="-0.19892473118279563" r="5.0e-3" cx="0.528824986498817"/>
    <circle cy="9.77011494252874e-2" r="5.0e-3" cx="0.5317257375201776"/>
    <circle cy="-0.10004943764676799" r="5.0e-3" cx="0.5346264885415379"/>
    <circle cy="-0.10004943764676799" r="5.0e-3" cx="0.5375272395628983"/>
    <circle cy="-0.10004943764676799" r="5.0e-3" cx="0.540427990584259"/>
    <circle cy="9.77011494252874e-2" r="5.0e-3" cx="0.5433287416056194"/>
    <circle cy="-0.10004943764676799" r="5.0e-3" cx="0.54622949262698"/>
    <circle cy="-1.1741441107403494e-3" r="5.0e-3" cx="0.5491302436483403"/>
    <circle cy="-1.1741441107403494e-3" r="5.0e-3" cx="0.5520309946697008"/>
    <circle cy="-0.3966753182548509" r="5.0e-3" cx="0.5549317456910614"/>
    <circle cy="-1.1741441107403494e-3" r="5.0e-3" cx="0.5578324967124217"/>
    <circle cy="9.77011494252874e-2" r="5.0e-3" cx="0.5607332477337823"/>
    <circle cy="0.19657644296131505" r="5.0e-3" cx="0.5636339987551426"/>
    <circle cy="9.77011494252874e-2" r="5.0e-3" cx="0.566534749776503"/>
    <circle cy="-0.10004943764676799" r="5.0e-3" cx="0.5694355007978635"/>
    <circle cy="-0.3966753182548509" r="5.0e-3" cx="0.5723362518192241"/>
    <circle cy="-0.10004943764676799" r="5.0e-3" cx="0.5752370028405847"/>
    <circle cy="-0.2978000247188233" r="5.0e-3" cx="0.578137753861945"/>
    <circle cy="0.2954517364973427" r="5.0e-3" cx="0.5810385048833053"/>
    <circle cy="0.3943270300333704" r="5.0e-3" cx="0.5839392559046661"/>
    <circle cy="0.2954517364973427" r="5.0e-3" cx="0.5868400069260264"/>
    <circle cy="-0.2978000247188233" r="5.0e-3" cx="0.589740757947387"/>
    <circle cy="-0.10004943764676799" r="5.0e-3" cx="0.5926415089687473"/>
    <circle cy="-0.3966753182548509" r="5.0e-3" cx="0.5955422599901079"/>
    <circle cy="0.19657644296131505" r="5.0e-3" cx="0.5984430110114685"/>
    <circle cy="9.77011494252874e-2" r="5.0e-3" cx="0.6013437620328288"/>
    <circle cy="-0.19892473118279563" r="5.0e-3" cx="0.6042445130541894"/>
    <circle cy="-0.3966753182548509" r="5.0e-3" cx="0.6071452640755499"/>
    <circle cy="-1.1741441107403494e-3" r="5.0e-3" cx="0.6100460150969103"/>
    <circle cy="-0.3966753182548509" r="5.0e-3" cx="0.6129467661182708"/>
    <circle cy="-1.1741441107403494e-3" r="5.0e-3" cx="0.6158475171396314"/>
    <circle cy="9.77011494252874e-2" r="5.0e-3" cx="0.6187482681609917"/>
    <circle cy="-0.2978000247188233" r="5.0e-3" cx="0.6216490191823523"/>
    <circle cy="-0.2978000247188233" r="5.0e-3" cx="0.6245497702037126"/>
    <circle cy="-1.1741441107403494e-3" r="5.0e-3" cx="0.6274505212250734"/>
    <circle cy="9.77011494252874e-2" r="5.0e-3" cx="0.6303512722464337"/>
    <circle cy="-0.2978000247188233" r="5.0e-3" cx="0.6332520232677941"/>
    <circle cy="-1.1741441107403494e-3" r="5.0e-3" cx="0.6361527742891546"/>
    <circle cy="0.2954517364973427" r="5.0e-3" cx="0.6390535253105152"/>
    <circle cy="-0.19892473118279563" r="5.0e-3" cx="0.6419542763318757"/>
    <circle cy="-0.3966753182548509" r="5.0e-3" cx="0.6448550273532361"/>
    <circle cy="0.2954517364973427" r="5.0e-3" cx="0.6477557783745966"/>
    <circle cy="-0.19892473118279563" r="5.0e-3" cx="0.650656529395957"/>
    <circle cy="0.19657644296131505" r="5.0e-3" cx="0.6535572804173175"/>
    <circle cy="-0.2978000247188233" r="5.0e-3" cx="0.6564580314386781"/>
    <circle cy="-0.2978000247188233" r="5.0e-3" cx="0.6593587824600387"/>
    <circle cy="0.19657644296131505" r="5.0e-3" cx="0.662259533481399"/>
    <circle cy="-0.3966753182548509" r="5.0e-3" cx="0.6651602845027593"/>
    <circle cy="9.77011494252874e-2" r="5.0e-3" cx="0.6680610355241199"/>
    <circle cy="-0.10004943764676799" r="5.0e-3" cx="0.6709617865454804"/>
    <circle cy="-0.3966753182548509" r="5.0e-3" cx="0.673862537566841"/>
    <circle cy="-0.19892473118279563" r="5.0e-3" cx="0.6767632885882013"/>
    <circle cy="0.19657644296131505" r="5.0e-3" cx="0.6796640396095619"/>
    <circle cy="-1.1741441107403494e-3" r="5.0e-3" cx="0.6825647906309222"/>
    <circle cy="-0.10004943764676799" r="5.0e-3" cx="0.6854655416522828"/>
    <circle cy="0.3943270300333704" r="5.0e-3" cx="0.6883662926736434"/>
    <circle cy="0.3943270300333704" r="5.0e-3" cx="0.6912670436950039"/>
    <circle cy="-0.49555061179087856" r="5.0e-3" cx="0.6941677947163643"/>
    <circle cy="9.77011494252874e-2" r="5.0e-3" cx="0.6970685457377246"/>
    <circle cy="-0.19892473118279563" r="5.0e-3" cx="0.6999692967590854"/>
    <circle cy="0.3943270300333704" r="5.0e-3" cx="0.7028700477804459"/>
    <circle cy="-0.3966753182548509" r="5.0e-3" cx="0.7057707988018063"/>
    <circle cy="-0.49555061179087856" r="5.0e-3" cx="0.7086715498231664"/>
    <circle cy="-0.49555061179087856" r="5.0e-3" cx="0.7115723008445272"/>
    <circle cy="-0.19892473118279563" r="5.0e-3" cx="0.7144730518658875"/>
    <circle cy="0.2954517364973427" r="5.0e-3" cx="0.7173738028872478"/>
    <circle cy="-0.3966753182548509" r="5.0e-3" cx="0.7202745539086084"/>
    <circle cy="-0.10004943764676799" r="5.0e-3" cx="0.7231753049299692"/>
    <circle cy="-0.2978000247188233" r="5.0e-3" cx="0.7260760559513293"/>
    <circle cy="0.19657644296131505" r="5.0e-3" cx="0.7289768069726899"/>
    <circle cy="-0.10004943764676799" r="5.0e-3" cx="0.7318775579940504"/>
    <circle cy="0.19657644296131505" r="5.0e-3" cx="0.734778309015411"/>
    <circle cy="-0.2978000247188233" r="5.0e-3" cx="0.7376790600367713"/>
    <circle cy="0.2954517364973427" r="5.0e-3" cx="0.7405798110581316"/>
    <circle cy="0.3943270300333704" r="5.0e-3" cx="0.7434805620794924"/>
    <circle cy="0.3943270300333704" r="5.0e-3" cx="0.746381313100853"/>
  </g>
  <g stroke-opacity="0.5" stroke="#5da5da" stroke-width="2.0e-2" fill="none">
    <polyline points="-0.7010934465580259,0.3943270300333704
-0.6981926955366653,0.3943270300333704
-0.6952919445153048,0.15168827288974424
-0.6923911934939444,-2.2775525669674335e-2
-0.689490442472584,-6.170885064380682e-2
-0.6865896914512234,-3.1621058985561334e-2
-0.683688940429863,-7.573969915660217e-2
-0.6807881894085025,-0.13810398856402306
-0.677887438387142,-9.284639596950306e-2
-0.6749866873657815,-3.214140295591872e-2
-0.672085936344421,5.844822642173841e-3
-0.6691851853230606,1.5837027879095578e-2
-0.6662844343017,-6.227933121552898e-3
-0.6633836832803396,3.286394672294618e-2
-0.6604829322589791,2.048168358149638e-2
-0.6575821812376187,3.6207987150534415e-2
-0.6546814302162582,6.698059053904853e-2
-0.6517806791948977,9.413339538479804e-2
-0.6488799281735372,4.678035443115508e-2
-0.6459791771521768,7.386835512687379e-2
-0.6430784261308163,8.3172339602613e-2
-0.6401776751094558,4.0396903578146626e-2
-0.6372769240880953,6.594614459153442e-2
-0.6343761730667349,2.6293033574574687e-2
-0.6314754220453743,-2.973659521506189e-3
-0.6285746710240139,-2.9702267849777253e-2
-0.6256739200026534,-1.420672781883292e-3
-0.622773168981293,-2.0863719656885604e-2
-0.6198724179599324,-5.1525694031905656e-2
-0.616971666938572,-2.9435386120143736e-2
-0.6140709159172115,-5.2500521208052375e-2
-0.611170164895851,-3.705462564037909e-2
-0.6082694138744905,-5.909090700798336e-2
-0.6053686628531301,-7.954621973728093e-2
-0.6024679118317695,-7.48471842389059e-2
-0.5995671608104091,-5.286370156796116e-2
-0.5966664097890486,-3.237720322323412e-2
-0.5937656587676882,-3.0558004053125254e-2
-0.5908649077463277,-5.990337860134254e-3
-0.5879641567249672,-1.7059591136360353e-2
-0.5850634057036067,-3.867993005315784e-2
-0.5821626546822463,-4.21509862395989e-2
-0.5792619036608857,-2.3180638147751398e-2
-0.5763611526395254,-3.2995168505835726e-2
-0.5734604016181648,-1.4759459684101861e-2
-0.5705596505968044,-3.0902994764523406e-3
-0.5676588995754439,-3.0140973264937587e-2
-0.5647581485540834,-4.477126965360645e-2
-0.5618573975327229,-4.239929606128623e-2
-0.5589566465113625,-6.1589702521603784e-2
-0.5560558954900019,-7.966526589640344e-2
-0.5531551444686414,-8.076053293805774e-2
-0.550254393447281,-8.179309715585481e-2
-0.5473536424259204,-6.1669677213006424e-2
-0.54445289140456,-7.422363935508636e-2
-0.5415521403831995,-6.511203261083742e-2
-0.538651389361839,-5.128461251889682e-2
-0.5357506383404785,-6.948312487623653e-2
-0.5328498873191181,-5.550214552836186e-2
-0.5299491362977576,-6.301960254472017e-2
-0.5270483852763972,-4.944572160120486e-2
-0.5241476342550366,-3.661097015998127e-2
-0.5212468832336761,-1.4177987668272163e-2
-0.5183461322123156,-3.9184984920549004e-2
-0.5154453811909552,-2.1834645111621587e-2
-0.5125446301695947,-4.1233635985566286e-2
-0.5096438791482343,-5.4488390826031186e-2
-0.5067431281268737,-5.1738635956072754e-2
-0.5038423771055133,-6.950121478227567e-2
-0.5009416260841528,-6.090395234625867e-2
-0.4980408750627923,-6.799069590149642e-2
-0.49514012404143193,-6.963455569577737e-2
-0.4922393730200714,-7.119213588984308e-2
-0.4893386219987109,-5.24386050376634e-2
-0.4864378709773505,-5.9922648782705035e-2
-0.48353711995598997,-5.1878348232889504e-2
-0.48063636893462947,-3.921161289972763e-2
-0.477735617913269,-2.2166527460394825e-2
-0.4748348668919085,-2.61295688778318e-2
-0.47193411587054807,-9.780492491706871e-3
-0.46903336484918756,-1.9388449482703685e-2
-0.4661326138278271,1.6103136910822213e-3
-0.4632318628064666,-8.560455310455573e-3
-0.4603311117851061,1.1858593461869127e-2
-0.4574303607637457,-3.8247594345710567e-3
-0.45452960974238527,-3.6905999293528335e-3
-0.45162885872102476,-1.8567652709806648e-2
-0.44872810769966426,-2.69274768085348e-3
-0.44582735667830375,-2.2599077312105642e-2
-0.4429266056569433,-4.148968659340402e-2
-0.44002585463558286,-5.941737996844698e-2
-0.43712510361422235,-7.144383932566767e-2
-0.43422435259286185,-5.294220298272212e-2
-0.4313236015715014,-7.02684063246265e-2
-0.4284228505501409,-7.176893910947157e-2
-0.42552209952878045,-6.323339100663616e-2
-0.42262134850741995,-7.504327482783646e-2
-0.41972059748605944,-8.127824997527788e-2
-0.41681984646469894,-6.729839094541412e-2
-0.4139190954433385,-5.8999278790865306e-2
-0.41101834442197804,-6.603512454431615e-2
-0.40811759340061754,-7.768562139212609e-2
-0.40521684237925704,-9.37164807004659e-2
-0.4023160913578966,-7.913150125353308e-2
-0.3994153403365361,-6.0316142583129895e-2
-0.39651458931517564,-4.2449992768592515e-2
-0.39361383829381513,-5.527050109582354e-2
-0.39071308727245463,-4.7591758002270224e-2
-0.3878123362510941,-6.014902766025476e-2
-0.3849115852297337,-7.20738490917493e-2
-0.38201083420837323,-7.843782450441683e-2
-0.3791100831870127,-8.448150488752115e-2
-0.3762093321656522,-8.03034386323882e-2
-0.3733085811442918,-7.137743723956136e-2
-0.3704078301229313,-4.802816848331082e-2
-0.36750707910157077,-3.57659853250859e-2
-0.3646063280802103,-5.385623426818198e-2
-0.36170557705884987,-3.139424677079694e-2
-0.3588048260374893,-4.9699196036770976e-2
-0.35590407501612886,-5.7176342486935594e-2
-0.35300332399476836,-6.427808119341549e-2
-0.3501025729734079,-6.607008157454686e-2
-0.3472018219520475,-6.28193693304967e-2
-0.344301070930687,-5.477944453713257e-2
-0.34140031990932657,-6.695046192376353e-2
-0.33849956888796606,-8.346246641338428e-2
-0.3355988178666056,-7.934194298410757e-2
-0.33269806684524517,-9.028024887302899e-2
-0.3297973158238846,-7.096781617494607e-2
-0.32689656480252416,-6.747369232624434e-2
-0.3239958137811636,-5.425522775133629e-2
-0.32109506275980315,-4.169924407815562e-2
-0.3181943117384427,-2.9772465133429238e-2
-0.3152935607170822,-1.844329342147699e-2
-0.31239280969572175,-2.2527616754114965e-2
-0.30949205867436125,-3.630410627338432e-2
-0.3065913076530008,-3.45460480122618e-2
-0.30369055663164035,-4.771985313132909e-2
-0.3007898056102798,-4.53907022511546e-2
-0.29788905458891934,-2.833560377187405e-2
-0.2949883035675588,-4.1818570536529154e-2
-0.29208755254619845,-4.473211455317161e-2
-0.2891868015248379,-6.234076160399071e-2
-0.28628605050347744,-5.9280534229283255e-2
-0.283385299482117,-4.648014928459765e-2
-0.2804845484607565,-3.926705004827569e-2
-0.27758379743939604,-2.7468606449351562e-2
-0.27468304641803554,-3.6045742167290395e-2
-0.2717822953966751,-3.4301325761756485e-2
-0.26888154437531464,-4.7482265352208675e-2
-0.2659807933539541,-4.021995164935688e-2
-0.26308004233259363,-4.321265636494964e-2
-0.2601792913112331,-2.1327123962135763e-2
-0.2572785402898726,-5.482301680239665e-3
-0.2543777892685122,-5.266817843765037e-3
-0.2514770382471517,-1.1669483406706593e-4
-0.24857628722579128,1.9611767645376033e-2
-0.24567553620443072,3.835319488283301e-2
-0.24277478518307027,1.1650337804966937e-2
-0.23987403416170983,2.5844279244860713e-2
-0.23697328314034927,-2.3222224246921552e-4
-0.23407253211898882,-2.7932993208723556e-4
-0.23117178109762826,1.9455603189620863e-2
-0.2282710300762678,1.8423886615598517e-2
-0.22537027905490736,3.227820312725521e-2
-0.22246952803354691,4.5439518664443235e-2
-0.21956877701218636,6.288721761472932e-2
-0.21666802599082602,3.496027268113544e-2
-0.21376727496946546,5.293169993253399e-2
-0.21086652394810512,6.505968238213683e-2
-0.20796577292674456,3.7024818217297806e-2
-0.20506502190538412,1.0392121395191134e-2
-0.20216427088402356,-1.4908557813349543e-2
-0.1992635198626631,6.115213373688588e-4
-0.19636276884130266,-1.4310941660383047e-2
-0.1934620178199421,-3.343145586749108e-2
-0.19056126679858165,-5.65400490946234e-2
-0.1876605157772211,-4.882715352868172e-2
-0.18475976475586076,-2.6667163510125436e-2
-0.1818590137345002,-5.615395396187717e-3
-0.17895826271313975,-4.490882528714879e-4
-0.1760575116917793,1.4347258706481403e-2
-0.17315676067041874,-1.1149772334417496e-2
-0.1702560096490583,-2.053926807714923e-2
-0.16735525862769784,2.056163886537954e-4
-0.16445450760633729,1.991310358803927e-2
-0.16155375658497684,8.970464650537913e-3
-0.1586530055636164,2.3295457492103933e-2
-0.15575225454225583,-2.6484447814686396e-3
-0.1528515035208955,-1.2462833678575258e-2
-0.14995075249953493,-3.661856605680924e-2
-0.14705000147817449,-2.9902225416264083e-2
-0.14414925045681404,-4.824180060333949e-2
-0.1412484994354536,-7.060830770380955e-2
-0.13834774841409314,-4.736048767899259e-2
-0.13544699739273258,-4.010709367049636e-2
-0.13254624637137213,-1.8384499385174724e-2
-0.12964549535001157,-2.246790489576178e-2
-0.12674474432865113,-2.1403177570687992e-2
-0.12384399330729068,-3.5223504367397296e-2
-0.12094324228593023,-3.352097966043566e-2
-0.11804249126456967,-1.2127902405076996e-2
-0.11514174024320922,8.195455000390484e-3
-0.11224098922184877,2.783055840703874e-3
-0.10934023820048833,1.7416886788175823e-2
-0.10643948717912777,3.131898748809958e-2
-0.10353873615776732,4.946983392238535e-2
-0.10063798513640676,6.671309471401471e-2
-9.773723411504631e-2,3.859928830074555e-2
-9.483648309368586e-2,1.6835101200873726e-2
-9.19357320723253e-2,1.593462098155457e-2
-8.903498105096497e-2,-4.696266751185507e-3
-8.613423002960441e-2,-9.46401108679773e-3
-8.323347900824396e-2,1.0725886101537463e-2
-8.033272798688351e-2,-1.4588349885969576e-2
-7.743197696552295e-2,-2.8749152094991737e-2
-7.45312259441625e-2,-4.7145730027509214e-2
-7.163047492280195e-2,-5.473478575089086e-2
-6.872972390144161e-2,-6.688820845564658e-2
-6.582897288008116e-2,-6.360246395010594e-2
-6.29282218587206e-2,-5.059336330718567e-2
-6.002747083736015e-2,-6.789765729760733e-2
-5.7126719815999705e-2,-7.444908157480046e-2
-5.4225968794639146e-2,-9.05605583096678e-2
-5.132521777327881e-2,-0.11081025787650067
-4.842446675191825e-2,-9.04969705223091e-2
-4.55237157305578e-2,-9.591840612966607e-2
-4.262296470919724e-2,-9.612495942744581e-2
-3.9722213687836794e-2,-0.11115259638233754
-3.6821462666476346e-2,-9.082222677954543e-2
-3.3920711645115786e-2,-8.139599059548885e-2
-3.1019960623755338e-2,-0.10210386226386092
-2.811920960239478e-2,-0.11683253007213734
-2.5218458581034442e-2,-0.11599337030844015
-2.2317707559673883e-2,-0.1250837559501431
-1.9416956538313546e-2,-0.12877582513106767
-1.6516205516952875e-2,-0.11745191690683532
-1.3615454495592538e-2,-9.680663118877142e-2
-1.0714703474231868e-2,-9.696877228050904e-2
-7.813952452871642e-3,-9.712280624269787e-2
-4.913201431510972e-3,-0.11704428177324544
-2.0124504101506346e-3,-0.12113832088798204
8.883006112099245e-4,-0.1052525213411949
3.7890516325704837e-3,-0.11982371465006059
6.689802653930821e-3,-0.11883499735357728
9.59055367529138e-3,-0.11789571625793527
1.2491304696651717e-2,-0.10217205883355973
1.5392055718012276e-2,-0.11195348635967639
1.8292806739372836e-2,-0.11135828223419841
2.1193557760733284e-2,-0.1009052824581611
2.4094308782093732e-2,-9.097493541975632e-2
2.699505980345418e-2,-7.659733150336168e-2
2.9895810824814628e-2,-8.765749174018989e-2
3.279656184617519e-2,-7.344576378441514e-2
3.5697312867535747e-2,-6.488840026483988e-2
3.8598063888896084e-2,-4.687135770549611e-2
4.149881491025664e-2,-2.975517075694678e-2
4.439956593161698e-2,-2.338234334475109e-2
4.730031695297765e-2,-4.699079689818009e-2
5.02010679743381e-2,-5.458750588010297e-2
5.3101818995698546e-2,-6.674815047799798e-2
5.6002570017058995e-2,-5.852567349923521e-2
5.890332103841944e-2,-7.048940762458544e-2
6.180407205978011e-2,-7.69111822491918e-2
6.470482308114045e-2,-7.312432561038329e-2
6.760557410250101e-2,-5.9639271173996034e-2
7.050632512386135e-2,-7.649109253223296e-2
7.34070761452219e-2,-5.295016118367557e-2
7.630782716658246e-2,-5.03613576952211e-2
7.920857818794291e-2,-6.273330300861124e-2
8.210932920930336e-2,-4.9767803800813804e-2
8.501008023066381e-2,-5.722565667771651e-2
8.791083125202426e-2,-6.925438505135151e-2
9.08115822733847e-2,-9.056921317442312e-2
9.371233329474538e-2,-8.609945637716909e-2
9.661308431610571e-2,-8.679695593639492e-2
9.951383533746627e-2,-8.7459580469324e-2
0.10241458635882661,-9.797660942793884e-2
0.10531533738018717,-9.808025090203687e-2
0.10821608840154773,-7.840364014112244e-2
0.11111683942290818,-8.442969800731193e-2
0.11401759044426862,-8.026691813757914e-2
0.11691834146562896,-9.114357886517588e-2
0.11981909248698952,-8.17013379984084e-2
0.12271984350834997,-7.767497650042499e-2
0.12562059452971042,-6.396239969194384e-2
0.12852134555107086,-6.576675231913609e-2
0.1314220965724313,-6.748088724384727e-2
0.13432284759379187,-8.394061479983372e-2
0.13722359861515243,-6.99147570502241e-2
0.14012434963651277,-6.1533958966795255e-2
0.14302510065787333,-7.334726594982033e-2
0.14592585167923366,-7.468237493143237e-2
0.14882660270059433,-7.100696235275938e-2
0.15172735372195478,-5.268402249598747e-2
0.15462810474331523,-4.022099604763296e-2
0.15752885576467568,-5.8043716472039764e-2
0.16042960678603613,-4.03689397592466e-2
0.1633303578073968,-1.863413652158319e-2
0.16623110882875713,-1.2817371017084356e-2
0.1691318598501177,-2.347678254024599e-3
0.17203261087147803,-1.71202983441191e-2
0.1749333618928386,3.452071735224327e-3
0.17783411291419915,-1.655430114605172e-2
0.1807348639355596,-3.061658958285507e-2
0.18363561495692005,-4.8919528808639035e-2
0.1865363659782805,-3.170096304791903e-2
0.18943711699964094,-1.53433258185387e-2
0.1923378680210015,-3.440992793418718e-2
0.19523861904236206,-2.2860607954338863e-2
0.1981393700637224,-2.0012235926432087e-3
0.20104012108508296,-6.903634845111251e-3
0.2039408721064433,8.214135332568706e-3
0.20684162312780396,2.2576016844335356e-2
0.2097423741491644,1.150097837814723e-2
0.21264312517052486,3.0642282709268165e-2
0.2155438761918853,3.3995226336012985e-2
0.21844462721324576,7.517932247038561e-3
0.22134537823460643,-1.2691731860721478e-2
0.22424612925596676,-2.6947147564182594e-2
0.22714688027732732,-5.037732243148885e-2
0.23004763129868766,-5.780469336775029e-2
0.23294838232004822,-5.497316572428845e-2
0.23584913334140878,-4.73394495042323e-2
0.23874988436276923,-5.4918714024474236e-2
0.24165063538412968,-4.728772043465934e-2
0.24455138640549012,-4.9925806432323805e-2
0.24745213742685057,-7.220704779997111e-2
0.25035288844821113,-7.854293226619247e-2
0.2532536394695717,-9.444955227417073e-2
0.256154390490932,-8.484201678263703e-2
0.2590551415122926,-7.571485810531986e-2
0.2619558925336529,-5.221276280081777e-2
0.2648566435550135,-4.471706691755806e-2
0.2677573945763738,-5.242745039657637e-2
0.2706581455977344,-6.469607951441236e-2
0.2735588966190947,-8.12950419677746e-2
0.2764596476404553,-8.717652660233188e-2
0.27936039866181583,-0.10265146661939928
0.28226114968317617,-9.263383554999305e-2
0.28516190070453673,-7.32295564559865e-2
0.2880626517258973,-7.457055054780304e-2
0.2909634027472576,-8.573202451157613e-2
0.2938641537686182,-9.139165996808152e-2
0.29676490478997875,-0.10171207841859964
0.2996656558113391,-9.668518160465434e-2
0.30256640683269964,-8.202210010325928e-2
0.30546715785406,-6.314840793928678e-2
0.30836790887542076,-6.993722421557447e-2
0.3112686598967811,-5.166777588819438e-2
0.31416941091814143,-5.903062376461887e-2
0.317070161939502,-7.591285873242859e-2
0.31997091296086255,-8.700721718364035e-2
0.3228716639822231,-6.788426925087099e-2
0.32577241500358345,-8.432382190419807e-2
0.328673166024944,-7.522257323089088e-2
0.33157391704630435,-6.163262226973454e-2
0.3344746680676649,-3.8834639413062644e-2
0.33737541908902546,-1.7176555722772102e-2
0.340276170110386,-1.5451409623162826e-3
0.34317692113174636,1.8248467767250198e-2
0.3460776721531067,-7.441486432327005e-3
0.34897842317446726,-7.128119313678849e-3
0.3518791741958278,-3.154924412771598e-2
0.3547799252171884,-1.5199194975504926e-2
0.3576806762385487,5.277116418849093e-3
0.36058142725990927,-1.9764270158831643e-2
0.3634821782812696,9.402949821051276e-4
0.36638292930263017,-9.052956386356614e-3
0.3692836803239907,-3.337783929582938e-2
0.3721844313453513,-5.648647804625195e-2
0.3750851823667116,-3.888956722816095e-2
0.37798593338807196,-5.677885486729617e-2
0.38088668440943274,-5.399861931650518e-2
0.3837874354307931,-3.158233674971911e-2
0.38668818645215364,-5.478075059939591e-2
0.389588937473514,-4.2212890871119124e-2
0.39248968849487453,-5.4992247612036804e-2
0.3953904395162351,-7.702016590045191e-2
0.39829119053759543,-7.322786479796839e-2
0.401191941558956,-5.479388467318058e-2
0.40409269258031655,-7.188795640514056e-2
0.4069934436016769,-9.307108923667629e-2
0.40989419462303744,-9.342000665815486e-2
0.4127949456443978,-8.880771351855188e-2
0.41569569666575834,-8.442603503712165e-2
0.4185964476871187,-9.509473454674244e-2
0.421497198708479,-0.10028623439034967
0.4243979497298398,-9.038686517818395e-2
0.42729870075120013,-7.603869974176458e-2
0.4301994517725607,-7.723923663935506e-2
0.43310020279392103,-7.343598200588042e-2
0.4360009538152816,-6.982289010476639e-2
0.43890170483664215,-5.650292342919827e-2
0.4418024558580025,-5.373648445888268e-2
0.44470320687936304,-3.627707338473374e-2
0.4476039579007236,-4.935322097017747e-2
0.45050470892208394,-4.2000502440393994e-2
0.4534054599434445,-3.0071655154880195e-2
0.45630621096480506,-4.345807364952514e-2
0.4592069619861654,-2.156881843982994e-2
0.46210771300752596,-7.740259931108273e-4
0.4650084640288863,-2.0569090627050923e-2
0.4679092150502471,-4.431816670900979e-2
0.4708099660716074,-3.2273436214042106e-2
0.47371071709296775,-1.09434128824063e-2
0.4766114681143283,-3.023000816757715e-2
0.47951221913568887,-4.360850900604485e-2
0.4824129701570494,-6.620561416278525e-2
0.48531372117840976,-5.801027597735264e-2
0.4882144721997703,-7.494352810306182e-2
0.49111522322113066,-6.63112942209132e-2
0.4940159742424912,-6.799820139326995e-2
0.4969167252638518,-5.476946916761405e-2
0.49981747628521234,-6.692099695209164e-2
0.5027182273065727,-5.3746124949296536e-2
0.505618978327933,-6.100505526470079e-2
0.5085197293492936,-6.295727438475685e-2
0.5114204803706541,-6.97556472278108e-2
0.5143212313920147,-8.115786610738385e-2
0.517221982413375,-7.715868000587811e-2
0.5201227334347356,-8.324698256714436e-2
0.5230234844560959,-6.925581128543767e-2
0.5259242354774565,-8.562678663978152e-2
0.528824986498817,-9.1291683868863e-2
0.5317257375201776,-8.184204220109592e-2
0.5346264885415379,-8.275241197365957e-2
0.5375272395628983,-8.361726325756769e-2
0.540427990584259,-8.443887197725586e-2
0.5433287416056194,-7.533187090472682e-2
0.54622949262698,-7.65677492421385e-2
0.5491302436483403,-7.279806898467145e-2
0.5520309946697008,-6.921687274016519e-2
0.5549317456910614,-8.558979501941644e-2
0.5578324967124217,-8.136901247312134e-2
0.5607332477337823,-7.241550437646516e-2
0.5636339987551426,-5.896590700709914e-2
0.566534749776503,-5.1132554184109336e-2
0.5694355007978635,-5.357839835764877e-2
0.5723362518192241,-7.073324435521777e-2
0.5752370028405847,-7.219905402001514e-2
0.578137753861945,-8.347910255656299e-2
0.5810385048833053,-6.453256060130275e-2
0.5839392559046661,-4.1589581066618364e-2
0.5868400069260264,-2.4737515186361247e-2
0.589740757947387,-3.83906406645691e-2
0.5926415089687473,-4.147358051401895e-2
0.5955422599901079,-5.923366740292113e-2
0.5984430110114685,-4.6443161883436335e-2
0.6013437620328288,-3.923594631731875e-2
0.6042445130541894,-4.72203855613097e-2
0.6071452640755499,-6.469313219747763e-2
0.6100460150969103,-6.151718279288343e-2
0.6129467661182708,-7.827508956727214e-2
0.6158475171396314,-7.442004229416355e-2
0.6187482681609917,-6.581398270759287e-2
0.6216490191823523,-7.741328480892018e-2
0.6245497702037126,-8.843262180510658e-2
0.6274505212250734,-8.40696979201283e-2
0.6303512722464337,-7.498115555234308e-2
0.6332520232677941,-8.612209901126622e-2
0.6361527742891546,-8.187470126602292e-2
0.6390535253105152,-6.300837937693893e-2
0.6419542763318757,-6.980419696754503e-2
0.6448550273532361,-8.614775303262623e-2
0.6477557783745966,-6.706777855533386e-2
0.650656529395957,-7.366062618696756e-2
0.6535572804173175,-6.014877272904606e-2
0.6564580314386781,-7.203133532895878e-2
0.6593587824600387,-8.33197697988346e-2
0.662259533481399,-6.932495916037651e-2
0.6651602845027593,-8.56924771156008e-2
0.6680610355241199,-7.652279578828991e-2
0.6709617865454804,-7.769912788124633e-2
0.673862537566841,-9.364793740034472e-2
0.6767632885882013,-9.891177708959853e-2
0.6796640396095619,-8.413736608670319e-2
0.6825647906309222,-7.99892049878117e-2
0.6854655416522828,-8.099221662078093e-2
0.6883662926736434,-5.7226254287591094e-2
0.6912670436950039,-3.4648590071107765e-2
0.6941677947163643,-5.769369115751832e-2
0.6970685457377246,-4.992394912824294e-2
0.6999692967590854,-5.737398823109363e-2
0.7028700477804459,-3.478893731751587e-2
0.7057707988018063,-5.288325636465252e-2
0.7086715498231664,-7.501662413627752e-2
0.7115723008445272,-9.604332351929068e-2
0.7144730518658875,-0.10118739390253173
0.7173738028872478,-8.135543738229689e-2
0.7202745539086084,-9.712143142610663e-2
0.7231753049299692,-9.726783173714126e-2
0.7260760559513293,-0.10729444138632982
0.7289768069726899,-9.210089716879721e-2
0.7318775579940504,-9.249832419269943e-2
0.734778309015411,-7.804458583486962e-2
0.7376790600367713,-8.903235777916052e-2
0.7405798110581316,-6.98081530651804e-2
0.7434805620794924,-4.660139391007523e-2
0.746381313100853,-2.455497271274254e-2"/>
  </g>
  <g stroke-opacity="0.5" stroke="#ff0000" stroke-width="2.0e-2" fill="none">
    <polyline points="-0.7010934465580259,0.3943270300333704
-0.6981926955366653,0.3943270300333704
-0.6952919445153048,6.40797259075877e-2
-0.6923911934939444,-8.348171276240102e-3
-0.689490442472584,3.1489564685079574e-2
-0.6865896914512234,6.162053283434382e-2
-0.683688940429863,7.47282751250618e-2
-0.6807881894085025,6.377970105518366e-2
-0.677887438387142,6.632537524853399e-2
-0.6749866873657815,4.781866944280655e-2
-0.672085936344421,5.206022226063328e-2
-0.6691851853230606,6.994874348166785e-2
-0.6662844343017,8.022112271129073e-2
-0.6633836832803396,7.313566479319161e-2
-0.6604829322589791,8.603244311181574e-2
-0.6575821812376187,9.586526472527174e-2
-0.6546814302162582,9.184021500909662e-2
-0.6517806791948977,9.09135276337702e-2
-0.6488799281735372,6.21401025996714e-2
-0.6459791771521768,6.201973727592447e-2
-0.6430784261308163,7.321902018016019e-2
-0.6401776751094558,5.021295591717484e-2
-0.6372769240880953,5.044280232170145e-2
-0.6343761730667349,3.294388496751771e-2
-0.6314754220453743,2.952078581912676e-2
-0.6285746710240139,2.846208103682646e-2
-0.6256739200026534,2.5380380155827997e-2
-0.622773168981293,3.021677307344106e-2
-0.6198724179599324,2.3345475324412723e-2
-0.616971666938572,2.5488133474490526e-2
-0.6140709159172115,2.6310440841898708e-2
-0.611170164895851,3.2877023221859425e-2
-0.6082694138744905,3.366142021192736e-2
-0.6053686628531301,3.560051093557015e-2
-0.6024679118317695,4.602367760432058e-2
-0.5995671608104091,4.53710038507123e-2
-0.5966664097890486,4.601059251620676e-2
-0.5937656587676882,5.623776640287742e-2
-0.5908649077463277,5.1500663977293526e-2
-0.5879641567249672,5.8469966149478914e-2
-0.5850634057036067,5.651698376280506e-2
-0.5821626546822463,6.590318477033952e-2
-0.5792619036608857,6.592808543789308e-2
-0.5763611526395254,7.268798881716027e-2
-0.5734604016181648,7.282298500714962e-2
-0.5705596505968044,7.811921472433331e-2
-0.5676588995754439,6.708895980504942e-2
-0.5647581485540834,7.039282908698308e-2
-0.5618573975327229,7.917297490021952e-2
-0.5589566465113625,7.751094129703251e-2
-0.5560558954900019,7.701304172044526e-2
-0.5531551444686414,8.562135704977514e-2
-0.550254393447281,9.396635752941535e-2
-0.5473536424259204,9.003998537203317e-2
-0.54445289140456,9.353680525425523e-2
-0.5415521403831995,9.909271464911978e-2
-0.538651389361839,0.10109514676701636
-0.5357506383404785,9.867718132637016e-2
-0.5328498873191181,0.1004904214353905
-0.5299491362977576,0.10651436932487163
-0.5270483852763972,0.10824272677648844
-0.5241476342550366,0.11048307208410013
-0.5212468832336761,0.10185934230390281
-0.5183461322123156,9.017892091186319e-2
-0.5154453811909552,8.901601205109494e-2
-0.5125446301695947,8.564286194365484e-2
-0.5096438791482343,8.840500971100596e-2
-0.5067431281268737,9.616536353350097e-2
-0.5038423771055133,9.410395705799418e-2
-0.5009416260841528,9.960185117663295e-2
-0.4980408750627923,0.1056562697683211
-0.49514012404143193,0.11306577392913064
-0.4922393730200714,0.12028024968242096
-0.4893386219987109,0.11542844020255866
-0.4864378709773505,0.12073850869465252
-0.48353711995598997,0.12556328381279663
-0.48063636893462947,0.12686117978696965
-0.477735617913269,0.1235720918760238
-0.4748348668919085,0.12999594389378155
-0.47193411587054807,0.12728962468263244
-0.46903336484918756,0.13086608078894624
-0.4661326138278271,0.12204933846727678
-0.4632318628064666,0.1254194357695878
-0.4603311117851061,0.11782011889841437
-0.4574303607637457,0.11648840588246229
-0.45452960974238527,0.12361040772967141
-0.45162885872102476,0.12278603055129922
-0.44872810769966426,0.12094092495541625
-0.44582735667830375,0.11430891907443269
-0.4429266056569433,0.10944081809469153
-0.44002585463558286,0.10603911706401126
-0.43712510361422235,0.10860116565481714
-0.43422435259286185,0.10455425504600696
-0.4313236015715014,0.10210938605463143
-0.4284228505501409,0.10949179766829198
-0.42552209952878045,0.11429396733409952
-0.42262134850741995,0.11665625762978044
-0.41972059748605944,0.12238205188001383
-0.41681984646469894,0.12244081954079111
-0.4139190954433385,0.12692383805424823
-0.41101834442197804,0.13194560556610324
-0.40811759340061754,0.13365911479634623
-0.40521684237925704,0.1309077237590413
-0.4023160913578966,0.12989437874708337
-0.3994153403365361,0.12394543794977331
-0.39651458931517564,0.11960549819825261
-0.39361383829381513,0.12084575275583698
-0.39071308727245463,0.12571331266902763
-0.3878123362510941,0.126901529658085
-0.3849115852297337,0.12858354116833098
-0.38201083420837323,0.13385924624237616
-0.3791100831870127,0.1391171865243609
-0.3762093321656522,0.14493548923607463
-0.3733085811442918,0.1481837295693651
-0.3704078301229313,0.13379385272347732
-0.36750707910157077,0.13485869235908154
-0.3646063280802103,0.12946677206563256
-0.36170557705884987,0.11828774619160393
-0.3588048260374893,0.11373720238639551
-0.35590407501612886,0.1189261957931495
-0.35300332399476836,0.12413838851194398
-0.3501025729734079,0.130877428045368
-0.3472018219520475,0.13717051622469922
-0.344301070930687,0.14125943911105682
-0.34140031990932657,0.1420465278092513
-0.33849956888796606,0.1381435439206431
-0.3355988178666056,0.14399584756004197
-0.33269806684524517,0.1457351705904265
-0.3297973158238846,0.13785026472564588
-0.32689656480252416,0.14388983531220295
-0.3239958137811636,0.14353893575351245
-0.32109506275980315,0.1438512633384169
-0.3181943117384427,0.14473256670396784
-0.3152935607170822,0.14610274751116492
-0.31239280969572175,0.15174071221739066
-0.30949205867436125,0.15038961979667753
-0.3065913076530008,0.1564484598172674
-0.30369055663164035,0.1554776557025474
-0.3007898056102798,0.16130927727972655
-0.29788905458891934,0.15536559545841155
-0.2949883035675588,0.15412552490801662
-0.29208755254619845,0.15986783943451105
-0.2891868015248379,0.1532711413086723
-0.28628605050347744,0.15900053021714544
-0.283385299482117,0.15827783971926318
-0.2804845484607565,0.16212094616600642
-0.27758379743939604,0.16223732376027333
-0.27468304641803554,0.16504985020521484
-0.2717822953966751,0.17072884014005257
-0.26888154437531464,0.16895039649909666
-0.2659807933539541,0.1723914035905827
-0.26308004233259363,0.1776204682556221
-0.2601792913112331,0.16257383760694022
-0.2572785402898726,0.15812517859943936
-0.2543777892685122,0.1641061640658537
-0.2514770382471517,0.16881771546305124
-0.24857628722579128,0.15831119321683895
-0.24567553620443072,0.15021861724398972
-0.24277478518307027,0.12946417850910408
-0.23987403416170983,0.12886413416723858
-0.23697328314034927,0.11172788088876834
-0.23407253211898882,0.11888515940876643
-0.23117178109762826,0.11241926478240366
-0.2282710300762678,0.11952214409702894
-0.22537027905490736,0.11975985899853142
-0.22246952803354691,0.12063466877363316
-0.21956877701218636,0.11693870708967002
-0.21666802599082602,9.782758722310575e-2
-0.21376727496946546,9.490937993551707e-2
-0.21086652394810512,9.77434139062876e-2
-0.20796577292674456,8.04898960303746e-2
-0.20506502190538412,6.715283663770555e-2
-0.20216427088402356,5.690944586942437e-2
-0.1992635198626631,5.856925876141683e-2
-0.19636276884130266,6.067112959190624e-2
-0.1934620178199421,5.861184117308338e-2
-0.19056126679858165,5.196212616721174e-2
-0.1876605157772211,5.8942827225575256e-2
-0.18475976475586076,5.346476530430938e-2
-0.1818590137345002,4.9658121591229676e-2
-0.17895826271313975,5.7632292783882655e-2
-0.1760575116917793,5.9881222863350736e-2
-0.17315676067041874,4.992666362891096e-2
-0.1702560096490583,5.6162116204774404e-2
-0.16735525862769784,5.2547416760778676e-2
-0.16445450760633729,5.0305262308234344e-2
-0.16155375658497684,5.564141504053982e-2
-0.1586530055636164,5.836451250005076e-2
-0.15575225454225583,4.7895607712762134e-2
-0.1528515035208955,5.396890672892529e-2
-0.14995075249953493,4.6279638133376266e-2
-0.14705000147817449,5.383202955318289e-2
-0.14414925045681404,5.296236461664394e-2
-0.1412484994354536,4.761743935411605e-2
-0.13834774841409314,4.153082414522391e-2
-0.13544699739273258,4.9013818011311217e-2
-0.13254624637137213,4.46928282932082e-2
-0.12964549535001157,5.30816187393357e-2
-0.12674474432865113,6.1690091680939085e-2
-0.12384399330729068,6.456398554831039e-2
-0.12094324228593023,7.282839480305303e-2
-0.11804249126456967,6.738902045739403e-2
-0.11514174024320922,6.358337040723672e-2
-0.11224098922184877,7.109613067336384e-2
-0.10934023820048833,7.288826933118431e-2
-0.10643948717912777,7.522109152165446e-2
-0.10353873615776732,7.339635937677658e-2
-0.10063798513640676,7.261958006494473e-2
-9.773723411504631e-2,5.767027343948333e-2
-9.483648309368586e-2,5.275641892382854e-2
-9.19357320723253e-2,6.138221771650493e-2
-8.903498105096497e-2,5.758320088949054e-2
-8.613423002960441e-2,6.54526280606772e-2
-8.323347900824396e-2,6.191880379587944e-2
-8.033272798688351e-2,5.206167989630256e-2
-7.743197696552295e-2,5.506580732232025e-2
-7.45312259441625e-2,5.407222501711034e-2
-7.163047492280195e-2,6.1042090902766466e-2
-6.872972390144161e-2,6.518997109752578e-2
-6.582897288008116e-2,7.320446958198673e-2
-6.29282218587206e-2,7.624039211193351e-2
-6.002747083736015e-2,7.525123701104175e-2
-5.7126719815999705e-2,8.202216046311483e-2
-5.4225968794639146e-2,8.193380683733009e-2
-5.132521777327881e-2,7.73082944086867e-2
-4.842446675191825e-2,7.289947151867643e-2
-4.55237157305578e-2,8.014827767863203e-2
-4.262296470919724e-2,8.810220497949017e-2
-3.9722213687836794e-2,8.875272486520891e-2
-3.6821462666476346e-2,8.358609212076479e-2
-3.3920711645115786e-2,8.867999274436733e-2
-3.1019960623755338e-2,8.304497318768173e-2
-2.811920960239478e-2,8.420870877222092e-2
-2.5218458581034442e-2,9.203899758505596e-2
-2.2317707559673883e-2,9.704066518572901e-2
-1.9416956538313546e-2,0.10412159630983353
-1.6516205516952875e-2,0.10719537812589058
-1.3615454495592538e-2,0.10035318468084603
-1.0714703474231868e-2,0.10779593280875882
-7.813952452871642e-3,0.11505028824904806
-4.913201431510972e-3,0.10860669215174718
-2.0124504101506346e-3,0.11527013634145644
8.883006112099245e-4,0.113660160226219
3.7890516325704837e-3,0.11349034973777572
6.689802653930821e-3,0.12056739310395986
9.59055367529138e-3,0.12746775600523436
1.2491304696651717e-2,0.1253463868169839
1.5392055718012276e-2,0.12871285356918788
1.8292806739372836e-2,0.13542537446170383
2.1193557760733284e-2,0.13790045605281248
2.4094308782093732e-2,0.14067279879028172
2.699505980345418e-2,0.13927601146063934
2.9895810824814628e-2,0.14110247842515994
3.279656184617519e-2,0.139858927982693
3.5697312867535747e-2,0.14351306443865852
3.8598063888896084e-2,0.13755883381036288
4.149881491025664e-2,0.13317629334173098
4.439956593161698e-2,0.13827750355235952
4.730031695297765e-2,0.12437686797720976
5.02010679743381e-2,0.12913668800280637
5.3101818995698546e-2,0.13047222912414924
5.6002570017058995e-2,0.13466772527725973
5.890332103841944e-2,0.1359256253576877
6.180407205978011e-2,0.1409177548231727
6.470482308114045e-2,0.146783278880544
6.760557410250101e-2,0.1459944052867228
7.050632512386135e-2,0.14138173597910997
7.34070761452219e-2,0.12728476012105838
7.630782716658246e-2,0.13380193023472375
7.920857818794291e-2,0.13473525322108593
8.210932920930336e-2,0.13507335291296435
8.501008023066381e-2,0.13955534094024902
8.791083125202426e-2,0.14053125856478954
9.08115822733847e-2,0.13008512324570842
9.371233329474538e-2,0.13604000187002963
9.661308431610571e-2,0.1425616219627755
9.951383533746627e-2,0.1489194713188925
0.10241458635882661,0.15077996457342185
0.10531533738018717,0.15694628792989557
0.10821608840154773,0.1475713999426997
0.11111683942290818,0.15238927780490502
0.11401759044426862,0.1578182005276617
0.11691834146562896,0.15898188822458947
0.11981909248698952,0.16127783098545828
0.12271984350834997,0.16650176473629924
0.12562059452971042,0.16436661665885977
0.12852134555107086,0.17005139801372654
0.1314220965724313,0.17560252960940803
0.13432284759379187,0.1693916751536761
0.13722359861515243,0.16672236187576395
0.14012434963651277,0.1694977455593556
0.14302510065787333,0.1692218871531017
0.14592585167923366,0.17484451108499827
0.14882660270059433,0.1798028797465187
0.15172735372195478,0.1705001986204141
0.15462810474331523,0.16950545623676955
0.15752885576467568,0.16183436607194635
0.16042960678603613,0.15498260936936975
0.1633303578073968,0.14253923606393998
0.16623110882875713,0.1476083680074325
0.1691318598501177,0.1495633335534327
0.17203261087147803,0.14722345223150352
0.1749333618928386,0.13732821095439007
0.17783411291419915,0.12908974832573467
0.1807348639355596,0.12863833100227978
0.18363561495692005,0.12335486708227023
0.1865363659782805,0.11975879228812791
0.18943711699964094,0.1173754030609353
0.1923378680210015,0.11188364977027687
0.19523861904236206,0.11447010565493448
0.1981393700637224,0.10680126400542406
0.20104012108508296,0.11326804798210555
0.2039408721064433,0.11257033456345389
0.20684162312780396,0.11265966944398853
0.2097423741491644,0.11557956481335546
0.21264312517052486,0.11011488748397724
0.2155438761918853,0.11692602626402754
0.21844462721324576,0.10034804350905974
0.22134537823460643,9.455604868680234e-2
0.22424612925596676,9.561206686839285e-2
0.22714688027732732,8.578272939189274e-2
0.23004763129868766,9.1857598961049e-2
0.23294838232004822,9.925805162042084e-2
0.23584913334140878,0.1048108553049118
0.23874988436276923,0.11021421069355669
0.24165063538412968,0.11541754951445754
0.24455138640549012,0.12223659717189356
0.24745213742685057,0.11190152937872039
0.25035288844821113,0.11767078081459953
0.2532536394695717,0.1159044439060658
0.256154390490932,0.11974194408260941
0.2590551415122926,0.12375371977970845
0.2619558925336529,0.11140647397710385
0.2648566435550135,0.11664130393286576
0.2677573945763738,0.12159374560227337
0.2706581455977344,0.12317368238193199
0.2735588966190947,0.12031440934644311
0.2764596476404553,0.12602493216946803
0.27936039866181583,0.12425904544641164
0.28226114968317617,0.1275001459947857
0.28516190070453673,0.12084805212379729
0.2880626517258973,0.127708612181945
0.2909634027472576,0.1299445361304895
0.2938641537686182,0.13546066328236633
0.29676490478997875,0.13803634422349276
0.2996656558113391,0.14356659871108302
0.30256640683269964,0.1416971281894649
0.30546715785406,0.13471408232087767
0.30836790887542076,0.13956319641669918
0.3112686598967811,0.13355689693480866
0.31416941091814143,0.13814149535083037
0.317070161939502,0.13401056122133348
0.31997091296086255,0.13603447950708386
0.3228716639822231,0.12913399646886864
0.32577241500358345,0.12609970736519122
0.328673166024944,0.1298985452711678
0.33157391704630435,0.12987410251850567
0.3344746680676649,0.11807751310205267
0.33737541908902546,0.10900180351929784
0.340276170110386,0.10800126804843146
0.34317692113174636,0.10221870808193256
0.3460776721531067,8.838519045652465e-2
0.34897842317446726,9.612868247729883e-2
0.3518791741958278,8.479903931221544e-2
0.3547799252171884,8.433290726456133e-2
0.3576806762385487,7.927489865033743e-2
0.36058142725990927,6.842934226833736e-2
0.3634821782812696,6.410931549668636e-2
0.36638292930263017,6.953634607737591e-2
0.3692836803239907,6.047550987797601e-2
0.3721844313453513,5.36950144223452e-2
0.3750851823667116,5.3574868439701606e-2
0.37798593338807196,5.317172900202094e-2
0.38088668440943274,6.158920995953693e-2
0.3837874354307931,5.561470555839243e-2
0.38668818645215364,4.905192458566077e-2
0.389588937473514,5.336482633886014e-2
0.39248968849487453,5.7362061065011016e-2
0.3953904395162351,5.214655829504827e-2
0.39829119053759543,6.04013633627139e-2
0.401191941558956,5.908464888255588e-2
0.40409269258031655,5.918523935755016e-2
0.4069934436016769,5.4871884194835296e-2
0.40989419462303744,6.346358487460052e-2
0.4127949456443978,7.121516075018225e-2
0.41569569666575834,7.881791911270153e-2
0.4185964476871187,8.331046948040471e-2
0.421497198708479,9.034213300563854e-2
0.4243979497298398,9.4913554333169e-2
0.42729870075120013,9.586843136663781e-2
0.4301994517725607,0.10337850736746612
0.43310020279392103,0.11026133189056797
0.4360009538152816,0.11700647717195023
0.43890170483664215,0.11786299384138449
0.4418024558580025,0.12459354000510708
0.44470320687936304,0.12062986616047322
0.4476039579007236,0.12153891133307648
0.45050470892208394,0.12652136030606237
0.4534054599434445,0.1281738158004221
0.45630621096480506,0.12843159087051165
0.4592069619861654,0.11815857473301328
0.46210771300752596,0.110299550079128
0.4650084640288863,0.10435621084362806
0.4679092150502471,9.333653874306064e-2
0.4708099660716074,9.629691885500408e-2
0.47371071709296775,8.932657460822746e-2
0.4766114681143283,8.539095848315692e-2
0.47951221913568887,8.761849919042253e-2
0.4824129701570494,7.957542828442343e-2
0.48531372117840976,8.547229063276202e-2
0.4882144721997703,8.437598056931467e-2
0.49111522322113066,8.988990322288504e-2
0.4940159742424912,9.75073315142384e-2
0.4969167252638518,9.933241224778055e-2
0.49981747628521234,0.1019637864225727
0.5027182273065727,0.1036374693449662
0.505618978327933,0.10923660758288078
0.5085197293492936,0.1163249912770159
0.5114204803706541,0.12174857074910256
0.5143212313920147,0.12404150146794679
0.517221982413375,0.1303091709733275
0.5201227334347356,0.1356294468608389
0.5230234844560959,0.13490937033679484
0.5259242354774565,0.13160129109979374
0.528824986498817,0.13706587215368926
0.5317257375201776,0.14021926350586034
0.5346264885415379,0.14662162870458517
0.5375272395628983,0.15286424006087118
0.540427990584259,0.15895096759221622
0.5433287416056194,0.16150175620601098
0.54622949262698,0.167333091269597
0.5491302436483403,0.17247136722833067
0.5520309946697008,0.17752617042620117
0.5549317456910614,0.17128922789275497
0.5578324967124217,0.17615954110637805
0.5607332477337823,0.17813188346388198
0.5636339987551426,0.1756028520199216
0.566534749776503,0.17842399703665218
0.5694355007978635,0.18362089677043208
0.5723362518192241,0.17576649620712342
0.5752370028405847,0.18120477647869482
0.578137753861945,0.18086136390348279
0.5810385048833053,0.17047513999585318
0.5839392559046661,0.15431575711754664
0.5868400069260264,0.1491312084264097
0.589740757947387,0.14804124023378568
0.5926415089687473,0.15390148732174258
0.5955422599901079,0.14753316352219925
0.5984430110114685,0.1474055941130279
0.6013437620328288,0.15161604777495985
0.6042445130541894,0.15521520683384743
0.6071452640755499,0.14914060826705872
0.6100460150969103,0.15494823233990385
0.6129467661182708,0.14984222540334619
0.6158475171396314,0.15544097956145236
0.6187482681609917,0.15848717160224884
0.6216490191823523,0.1589640141223551
0.6245497702037126,0.1599490196221094
0.6274505212250734,0.16509338030533854
0.6303512722464337,0.16741274378400356
0.6332520232677941,0.16788966465272426
0.6361527742891546,0.17284801571627512
0.6390535253105152,0.16332241963762095
0.6419542763318757,0.16723133848354632
0.6448550273532361,0.16179970876484112
0.6477557783745966,0.15290961045865353
0.650656529395957,0.1572740842422573
0.6535572804173175,0.15588788130546521
0.6564580314386781,0.15622352974734438
0.6593587824600387,0.1570934756851602
0.662259533481399,0.15518897134267612
0.6651602845027593,0.15056961415713044
0.6680610355241199,0.15340303379796383
0.6709617865454804,0.15944739117439888
0.673862537566841,0.15507204369193106
0.6767632885882013,0.16000406226899572
0.6796640396095619,0.157031282600325
0.6825647906309222,0.16233404364845616
0.6854655416522828,0.1681659744567634
0.6883662926736434,0.15076393707161428
0.6912670436950039,0.13734045694411018
0.6941677947163643,0.12445585556660127
0.6970685457377246,0.12911779716163646
0.6999692967590854,0.1338012176646866
0.7028700477804459,0.12198235882565217
0.7057707988018063,0.11740877098905061
0.7086715498231664,0.10769596142477889
0.7115723008445272,0.10030352643396068
0.7144730518658875,0.10687251645354606
0.7173738028872478,0.10111820343126043
0.7202745539086084,0.10039572854778644
0.7231753049299692,0.10783752460379659
0.7260760559513293,0.1116920180386764
0.7289768069726899,0.1109995614800976
0.7318775579940504,0.11816813966140527
0.734778309015411,0.11788563191679802
0.7376790600367713,0.1206616398638144
0.7405798110581316,0.11473815439889867
0.7434805620794924,0.10364857856390491
0.746381313100853,9.515464978120808e-2"/>
  </g>
</svg>