
<svg xmlns="http://www.w3.org/2000/svg" height="300.0" viewBox="-0.8325 -0.7250768799102133 1.6525 1.2713268799102133" width="450.0" xmlns:xlink="http://www.w3.org/1999/xlink">
  <g transform="translate(-6.249999999999978e-3, -0.5475)" fill-opacity="1.0" font-size="0.12" stroke="none" stroke-width="0.0" fill="#000000" text-anchor="middle">
    <text transform="rotate(0.0, 0.0, -4.657687991021331e-2)" x="0.0" y="-4.657687991021331e-2">forecast error
    </text>
  </g>
  <g stroke-opacity="0.0" fill-opacity="3.0e-2" stroke="#000000" stroke-width="0.0" fill="#666666">
    <rect height="0.8978675645342313" width="1.5" x="-0.75" y="-0.495510662177329"/>
  </g>
  <g stroke-opacity="0.3" stroke="#a8e5ee" stroke-width="5.0e-3" fill="none">
    <polyline points="-0.75,0.4068462401795735
-0.75,-0.5"/>
  </g>
  <g stroke-opacity="0.3" stroke="#a8e5ee" stroke-width="5.0e-3" fill="none">
    <polyline points="-0.6000000000000001,0.4068462401795735
-0.6000000000000001,-0.5"/>
  </g>
  <g stroke-opacity="0.3" stroke="#a8e5ee" stroke-width="5.0e-3" fill="none">
    <polyline points="-0.44999999999999996,0.4068462401795735
-0.44999999999999996,-0.5"/>
  </g>
  <g stroke-opacity="0.3" stroke="#a8e5ee" stroke-width="5.0e-3" fill="none">
    <polyline points="-0.29999999999999993,0.4068462401795735
-0.29999999999999993,-0.5"/>
  </g>
  <g stroke-opacity="0.3" stroke="#a8e5ee" stroke-width="5.0e-3" fill="none">
    <polyline points="-0.1499999999999999,0.4068462401795735
-0.1499999999999999,-0.5"/>
  </g>
  <g stroke-opacity="0.3" stroke="#a8e5ee" stroke-width="5.0e-3" fill="none">
    <polyline points="0.0,0.4068462401795735
0.0,-0.5"/>
  </g>
  <g stroke-opacity="0.3" stroke="#a8e5ee" stroke-width="5.0e-3" fill="none">
    <polyline points="0.15000000000000013,0.4068462401795735
0.15000000000000013,-0.5"/>
  </g>
  <g stroke-opacity="0.3" stroke="#a8e5ee" stroke-width="5.0e-3" fill="none">
    <polyline points="0.30000000000000004,0.4068462401795735
0.30000000000000004,-0.5"/>
  </g>
  <g stroke-opacity="0.3" stroke="#a8e5ee" stroke-width="5.0e-3" fill="none">
    <polyline points="0.4500000000000002,0.4068462401795735
0.4500000000000002,-0.5"/>
  </g>
  <g stroke-opacity="0.3" stroke="#a8e5ee" stroke-width="5.0e-3" fill="none">
    <polyline points="0.6000000000000001,0.4068462401795735
0.6000000000000001,-0.5"/>
  </g>
  <g stroke-opacity="0.3" stroke="#a8e5ee" stroke-width="5.0e-3" fill="none">
    <polyline points="0.75,0.4068462401795735
0.75,-0.5"/>
  </g>
  <g fill-opacity="1.0" font-size="5.0e-2" stroke="none" stroke-width="0.0" fill="#666666" text-anchor="middle">
    <text x="-0.75" y="0.5">-100%
    </text>
  </g>
  <g fill-opacity="1.0" font-size="5.0e-2" stroke="none" stroke-width="0.0" fill="#666666" text-anchor="middle">
    <text x="-0.6000000000000001" y="0.5">-80%
    </text>
  </g>
  <g fill-opacity="1.0" font-size="5.0e-2" stroke="none" stroke-width="0.0" fill="#666666" text-anchor="middle">
    <text x="-0.44999999999999996" y="0.5">-60%
    </text>
  </g>
  <g fill-opacity="1.0" font-size="5.0e-2" stroke="none" stroke-width="0.0" fill="#666666" text-anchor="middle">
    <text x="-0.29999999999999993" y="0.5">-40%
    </text>
  </g>
  <g fill-opacity="1.0" font-size="5.0e-2" stroke="none" stroke-width="0.0" fill="#666666" text-anchor="middle">
    <text x="-0.1499999999999999" y="0.5">-20%
    </text>
  </g>
  <g fill-opacity="1.0" font-size="5.0e-2" stroke="none" stroke-width="0.0" fill="#666666" text-anchor="middle">
    <text x="0.0" y="0.5">0%
    </text>
  </g>
  <g fill-opacity="1.0" font-size="5.0e-2" stroke="none" stroke-width="0.0" fill="#666666" text-anchor="middle">
    <text x="0.15000000000000013" y="0.5">20%
    </text>
  </g>
  <g fill-opacity="1.0" font-size="5.0e-2" stroke="none" stroke-width="0.0" fill="#666666" text-anchor="middle">
    <text x="0.30000000000000004" y="0.5">40%
    </text>
  </g>
  <g fill-opacity="1.0" font-size="5.0e-2" stroke="none" stroke-width="0.0" fill="#666666" text-anchor="middle">
    <text x="0.4500000000000002" y="0.5">60%
    </text>
  </g>
  <g fill-opacity="1.0" font-size="5.0e-2" stroke="none" stroke-width="0.0" fill="#666666" text-anchor="middle">
    <text x="0.6000000000000001" y="0.5">80%
    </text>
  </g>
  <g fill-opacity="1.0" font-size="5.0e-2" stroke="none" stroke-width="0.0" fill="#666666" text-anchor="middle">
    <text x="0.75" y="0.5">100%
    </text>
  </g>
  <g stroke-opacity="0.4" fill-opacity="1.0" stroke="#2c429d" stroke-width="5.0e-3" fill="#5f0391">
    <polyline points="-0.75,0.43980359147025816
-0.75,0.40980359147025813"/>
    <polyline points="-0.6000000000000001,0.43980359147025816
-0.6000000000000001,0.40980359147025813"/>
    <polyline points="-0.44999999999999996,0.43980359147025816
-0.44999999999999996,0.40980359147025813"/>
    <polyline points="-0.29999999999999993,0.43980359147025816
-0.29999999999999993,0.40980359147025813"/>
    <polyline points="-0.1499999999999999,0.43980359147025816
-0.1499999999999999,0.40980359147025813"/>
    <polyline points="0.0,0.43980359147025816
0.0,0.40980359147025813"/>
    <polyline points="0.15000000000000013,0.43980359147025816
0.15000000000000013,0.40980359147025813"/>
    <polyline points="0.30000000000000004,0.43980359147025816
0.30000000000000004,0.40980359147025813"/>
    <polyline points="0.4500000000000002,0.43980359147025816
0.4500000000000002,0.40980359147025813"/>
    <polyline points="0.6000000000000001,0.43980359147025816
0.6000000000000001,0.40980359147025813"/>
    <polyline points="0.75,0.43980359147025816
0.75,0.40980359147025813"/>
  </g>
  <g stroke-opacity="0.0" fill-opacity="0.5" stroke="#666666" stroke-width="0.0" fill="#5f0391">
    <rect height="4.489337822671191e-3" width="1.5" x="-0.75" y="0.41133557800224463"/>
  </g>
  <g stroke-opacity="0.5" fill-opacity="0.5" stroke="#026062" stroke-width="2.0e-2" fill="#9d1102">
    <rect height="8.978675645342271e-3" width="2.2500000000000853e-3" x="-2.475000000000005e-2" y="-5.555555555555558e-2"/>
    <rect height="1.7957351290683876e-3" width="2.2499999999999742e-3" x="-2.2499999999999964e-2" y="-4.83726150392817e-2"/>
    <rect height="8.978675645342271e-3" width="2.2499999999999742e-3" x="-2.024999999999999e-2" y="-5.555555555555558e-2"/>
    <rect height="7.1829405162737725e-3" width="2.2499999999999742e-3" x="-1.8000000000000016e-2" y="-5.375982042648708e-2"/>
    <rect height="1.4365881032547656e-2" width="2.2499999999999742e-3" x="-1.5750000000000042e-2" y="-6.0942760942760965e-2"/>
    <rect height="1.2570145903479157e-2" width="2.2500000000000853e-3" x="-1.3500000000000068e-2" y="-5.9147025813692466e-2"/>
    <rect height="2.154882154882154e-2" width="2.2499999999999742e-3" x="-1.1249999999999982e-2" y="-6.812570145903485e-2"/>
    <rect height="1.7957351290684653e-2" width="2.2499999999999742e-3" x="-9.000000000000008e-3" y="-6.453423120089796e-2"/>
    <rect height="7.54208754208755e-2" width="2.2500000000000853e-3" x="-6.750000000000034e-3" y="-0.12199775533108881"/>
    <rect height="8.439955106621777e-2" width="2.2499999999999742e-3" x="-4.4999999999999485e-3" y="-0.13097643097643108"/>
    <rect height="0.17059483726150393" width="2.2499999999999742e-3" x="-2.2499999999999742e-3" y="-0.21717171717171724"/>
    <rect height="0.1777777777777776" width="2.2500000000000853e-3" x="0.0" y="-0.2243546576879909"/>
    <rect height="9.876543209876532e-2" width="2.2499999999998632e-3" x="2.2500000000000853e-3" y="-0.14534231200897862"/>
    <rect height="9.696969696969715e-2" width="2.2499999999999742e-3" x="4.4999999999999485e-3" y="-0.14354657687991046"/>
    <rect height="4.848484848484835e-2" width="2.2500000000000853e-3" x="6.749999999999923e-3" y="-9.506172839506166e-2"/>
    <rect height="2.6936026936026924e-2" width="2.2499999999999742e-3" x="9.000000000000008e-3" y="-7.351290684624023e-2"/>
    <rect height="8.978675645342271e-3" width="2.2500000000000853e-3" x="1.1249999999999982e-2" y="-5.555555555555558e-2"/>
    <rect height="5.387205387205385e-3" width="2.2499999999998632e-3" x="1.3500000000000068e-2" y="-5.1964085297418694e-2"/>
    <rect height="5.387205387205385e-3" width="2.2500000000000853e-3" x="1.574999999999993e-2" y="-5.1964085297418694e-2"/>
    <rect height="1.7957351290683876e-3" width="2.2499999999998632e-3" x="1.8000000000000016e-2" y="-4.83726150392817e-2"/>
    <rect height="0.0" width="2.2500000000000853e-3" x="2.024999999999988e-2" y="-4.657687991021331e-2"/>
    <rect height="3.5914702581368863e-3" width="2.2499999999999742e-3" x="2.2499999999999964e-2" y="-5.0168350168350195e-2"/>
  </g>
</svg>