
<svg xmlns="http://www.w3.org/2000/svg" height="300.0" viewBox="-0.9104277680948124 -0.7283312039844088 1.7014318670455961 1.461347121816856" width="450.0" xmlns:xlink="http://www.w3.org/1999/xlink">
  <g transform="translate(-8.219640591007693e-2, -0.57175)" fill-opacity="1.0" font-size="8.0e-2" stroke="none" stroke-width="0.0" fill="#000000" text-anchor="middle">
    <text transform="rotate(0.0, -0.14087383487083993, -6.25812039844088e-2)" x="-0.14087383487083993" y="-6.25812039844088e-2">moving average return
    </text>
  </g>
  <g stroke-opacity="0.0" fill-opacity="3.0e-2" stroke="#000000" stroke-width="0.0" fill="#666666">
    <rect height="0.8661758336942399" width="1.1519299626582706" x="-0.7168388161999752" y="-0.4956691208315287"/>
  </g>
  <g stroke-opacity="0.3" stroke="#a8e5ee" stroke-width="5.0e-3" fill="none">
    <polyline points="-0.7145349562746587,0.3748375920311824
-0.7145349562746587,-0.5"/>
  </g>
  <g stroke-opacity="0.3" stroke="#a8e5ee" stroke-width="5.0e-3" fill="none">
    <polyline points="-0.6661538978430113,0.3748375920311824
-0.6661538978430113,-0.5"/>
  </g>
  <g stroke-opacity="0.3" stroke="#a8e5ee" stroke-width="5.0e-3" fill="none">
    <polyline points="-0.5187068626227527,0.3748375920311824
-0.5187068626227527,-0.5"/>
  </g>
  <g stroke-opacity="0.3" stroke="#a8e5ee" stroke-width="5.0e-3" fill="none">
    <polyline points="-0.37356368732781053,0.3748375920311824
-0.37356368732781053,-0.5"/>
  </g>
  <g stroke-opacity="0.3" stroke="#a8e5ee" stroke-width="5.0e-3" fill="none">
    <polyline points="-0.2284205120328685,0.3748375920311824
-0.2284205120328685,-0.5"/>
  </g>
  <g stroke-opacity="0.3" stroke="#a8e5ee" stroke-width="5.0e-3" fill="none">
    <polyline points="-8.78850565885595e-2,0.3748375920311824
-8.78850565885595e-2,-0.5"/>
  </g>
  <g stroke-opacity="0.3" stroke="#a8e5ee" stroke-width="5.0e-3" fill="none">
    <polyline points="5.7258118706382755e-2,0.3748375920311824
5.7258118706382755e-2,-0.5"/>
  </g>
  <g stroke-opacity="0.3" stroke="#a8e5ee" stroke-width="5.0e-3" fill="none">
    <polyline points="0.20470515392664124,0.3748375920311824
0.20470515392664124,-0.5"/>
  </g>
  <g stroke-opacity="0.3" stroke="#a8e5ee" stroke-width="5.0e-3" fill="none">
    <polyline points="0.35215218914689994,0.3748375920311824
0.35215218914689994,-0.5"/>
  </g>
  <g stroke-opacity="0.3" stroke="#a8e5ee" stroke-width="5.0e-3" fill="none">
    <polyline points="0.4350911464582954,0.3748375920311824
0.4350911464582954,-0.5"/>
  </g>
  <g fill-opacity="1.0" font-size="5.0e-2" stroke="none" stroke-width="0.0" fill="#666666" text-anchor="end">
    <text transform="rotate(-45.0, -0.7145349562746587, 0.5)" x="-0.7145349562746587" y="0.5">28 Feb 2018
    </text>
  </g>
  <g fill-opacity="1.0" font-size="5.0e-2" stroke="none" stroke-width="0.0" fill="#666666" text-anchor="end">
    <text transform="rotate(-45.0, -0.6661538978430113, 0.5)" x="-0.6661538978430113" y="0.5">31 Mar 2018
    </text>
  </g>
  <g fill-opacity="1.0" font-size="5.0e-2" stroke="none" stroke-width="0.0" fill="#666666" text-anchor="end">
    <text transform="rotate(-45.0, -0.5187068626227527, 0.5)" x="-0.5187068626227527" y="0.5">30 Jun 2018
    </text>
  </g>
  <g fill-opacity="1.0" font-size="5.0e-2" stroke="none" stroke-width="0.0" fill="#666666" text-anchor="end">
    <text transform="rotate(-45.0, -0.37356368732781053, 0.5)" x="-0.37356368732781053" y="0.5">30 Sep 2018
    </text>
  </g>
  <g fill-opacity="1.0" font-size="5.0e-2" stroke="none" stroke-width="0.0" fill="#666666" text-anchor="end">
    <text transform="rotate(-45.0, -0.2284205120328685, 0.5)" x="-0.2284205120328685" y="0.5">31 Dec 2018
    </text>
  </g>
  <g fill-opacity="1.0" font-size="5.0e-2" stroke="none" stroke-width="0.0" fill="#666666" text-anchor="end">
    <text transform="rotate(-45.0, -8.78850565885595e-2, 0.5)" x="-8.78850565885595e-2" y="0.5">31 Mar 2019
    </text>
  </g>
  <g fill-opacity="1.0" font-size="5.0e-2" stroke="none" stroke-width="0.0" fill="#666666" text-anchor="end">
    <text transform="rotate(-45.0, 5.7258118706382755e-2, 0.5)" x="5.7258118706382755e-2" y="0.5">30 Jun 2019
    </text>
  </g>
  <g fill-opacity="1.0" font-size="5.0e-2" stroke="none" stroke-width="0.0" fill="#666666" text-anchor="end">
    <text transform="rotate(-45.0, 0.20470515392664124, 0.5)" x="0.20470515392664124" y="0.5">30 Sep 2019
    </text>
  </g>
  <g fill-opacity="1.0" font-size="5.0e-2" stroke="none" stroke-width="0.0" fill="#666666" text-anchor="end">
    <text transform="rotate(-45.0, 0.35215218914689994, 0.5)" x="0.35215218914689994" y="0.5">31 Dec 2019
    </text>
  </g>
  <g fill-opacity="1.0" font-size="5.0e-2" stroke="none" stroke-width="0.0" fill="#666666" text-anchor="end">
    <text transform="rotate(-45.0, 0.4350911464582954, 0.5)" x="0.4350911464582954" y="0.5">24 Feb 2020
    </text>
  </g>
  <g stroke-opacity="0.4" fill-opacity="1.0" stroke="#2c429d" stroke-width="5.0e-3" fill="#5f0391">
    <polyline points="-0.7145349562746587,0.4424577739281074
-0.7145349562746587,0.4124577739281074"/>
    <polyline points="-0.6661538978430113,0.4424577739281074
-0.6661538978430113,0.4124577739281074"/>
    <polyline points="-0.5187068626227527,0.4424577739281074
-0.5187068626227527,0.4124577739281074"/>
    <polyline points="-0.37356368732781053,0.4424577739281074
-0.37356368732781053,0.4124577739281074"/>
    <polyline points="-0.2284205120328685,0.4424577739281074
-0.2284205120328685,0.4124577739281074"/>
    <polyline points="-8.78850565885595e-2,0.4424577739281074
-8.78850565885595e-2,0.4124577739281074"/>
    <polyline points="5.7258118706382755e-2,0.4424577739281074
5.7258118706382755e-2,0.4124577739281074"/>
    <polyline points="0.20470515392664124,0.4424577739281074
0.20470515392664124,0.4124577739281074"/>
    <polyline points="0.35215218914689994,0.4424577739281074
0.35215218914689994,0.4124577739281074"/>
    <polyline points="0.4350911464582954,0.4424577739281074
0.4350911464582954,0.4124577739281074"/>
  </g>
  <g stroke-opacity="0.0" fill-opacity="0.5" stroke="#666666" stroke-width="0.0" fill="#5f0391">
    <rect height="4.330879168471247e-3" width="1.1519299626582706" x="-0.7168388161999752" y="0.4144651364226938"/>
  </g>
  <g stroke-opacity="0.3" stroke="#a8e5ee" stroke-width="5.0e-3" fill="none">
    <polyline points="-0.7197186411066209,0.3705067128627112
0.4379709713649409,0.3705067128627112"/>
  </g>
  <g stroke-opacity="0.3" stroke="#a8e5ee" stroke-width="5.0e-3" fill="none">
    <polyline points="-0.7197186411066209,0.2261440739136712
0.4379709713649409,0.2261440739136712"/>
  </g>
  <g stroke-opacity="0.3" stroke="#a8e5ee" stroke-width="5.0e-3" fill="none">
    <polyline points="-0.7197186411066209,8.17814349646312e-2
0.4379709713649409,8.17814349646312e-2"/>
  </g>
  <g stroke-opacity="0.3" stroke="#a8e5ee" stroke-width="5.0e-3" fill="none">
    <polyline points="-0.7197186411066209,-6.25812039844088e-2
0.4379709713649409,-6.25812039844088e-2"/>
  </g>
  <g stroke-opacity="0.3" stroke="#a8e5ee" stroke-width="5.0e-3" fill="none">
    <polyline points="-0.7197186411066209,-0.2069438429334487
0.4379709713649409,-0.2069438429334487"/>
  </g>
  <g stroke-opacity="0.3" stroke="#a8e5ee" stroke-width="5.0e-3" fill="none">
    <polyline points="-0.7197186411066209,-0.3513064818824887
0.4379709713649409,-0.3513064818824887"/>
  </g>
  <g stroke-opacity="0.3" stroke="#a8e5ee" stroke-width="5.0e-3" fill="none">
    <polyline points="-0.7197186411066209,-0.4956691208315287
0.4379709713649409,-0.4956691208315287"/>
  </g>
  <g fill-opacity="1.0" font-size="5.0e-2" stroke="none" stroke-width="0.0" fill="#666666" text-anchor="end">
    <text x="-0.75" y="0.3830662624512776">-60%
    </text>
  </g>
  <g fill-opacity="1.0" font-size="5.0e-2" stroke="none" stroke-width="0.0" fill="#666666" text-anchor="end">
    <text x="-0.75" y="0.23870362350223773">-40%
    </text>
  </g>
  <g fill-opacity="1.0" font-size="5.0e-2" stroke="none" stroke-width="0.0" fill="#666666" text-anchor="end">
    <text x="-0.75" y="9.434098455319773e-2">-20%
    </text>
  </g>
  <g fill-opacity="1.0" font-size="5.0e-2" stroke="none" stroke-width="0.0" fill="#666666" text-anchor="end">
    <text x="-0.75" y="-5.0021654395842385e-2">0%
    </text>
  </g>
  <g fill-opacity="1.0" font-size="5.0e-2" stroke="none" stroke-width="0.0" fill="#666666" text-anchor="end">
    <text x="-0.75" y="-0.19438429334488216">20%
    </text>
  </g>
  <g fill-opacity="1.0" font-size="5.0e-2" stroke="none" stroke-width="0.0" fill="#666666" text-anchor="end">
    <text x="-0.75" y="-0.3387469322939223">40%
    </text>
  </g>
  <g fill-opacity="1.0" font-size="5.0e-2" stroke="none" stroke-width="0.0" fill="#666666" text-anchor="end">
    <text x="-0.75" y="-0.4831095712429623">60%
    </text>
  </g>
  <g stroke-opacity="0.4" fill-opacity="1.0" stroke="#2c429d" stroke-width="5.0e-3" fill="#5f0391">
    <g transform="rotate(-90.0, -0.7312379407332036, 0.3705067128627112)">
      <polyline points="-0.7312379407332036,0.3855067128627112
-0.7312379407332036,0.3555067128627112"/>
    </g>
    <g transform="rotate(-90.0, -0.7312379407332036, 0.2261440739136712)">
      <polyline points="-0.7312379407332036,0.2411440739136712
-0.7312379407332036,0.21114407391367118"/>
    </g>
    <g transform="rotate(-90.0, -0.7312379407332036, 8.17814349646312e-2)">
      <polyline points="-0.7312379407332036,9.67814349646312e-2
-0.7312379407332036,6.67814349646312e-2"/>
    </g>
    <g transform="rotate(-90.0, -0.7312379407332036, -6.25812039844088e-2)">
      <polyline points="-0.7312379407332036,-4.758120398440881e-2
-0.7312379407332036,-7.75812039844088e-2"/>
    </g>
    <g transform="rotate(-90.0, -0.7312379407332036, -0.2069438429334487)">
      <polyline points="-0.7312379407332036,-0.19194384293344868
-0.7312379407332036,-0.2219438429334487"/>
    </g>
    <g transform="rotate(-90.0, -0.7312379407332036, -0.3513064818824887)">
      <polyline points="-0.7312379407332036,-0.3363064818824887
-0.7312379407332036,-0.3663064818824887"/>
    </g>
    <g transform="rotate(-90.0, -0.7312379407332036, -0.4956691208315287)">
      <polyline points="-0.7312379407332036,-0.4806691208315287
-0.7312379407332036,-0.5106691208315287"/>
    </g>
  </g>
  <g stroke-opacity="0.0" fill-opacity="0.5" stroke="#666666" stroke-width="0.0" fill="#5f0391">
    <rect height="0.8661758336942399" width="2.8798249066456227e-3" x="-0.7254782909199122" y="-0.4956691208315287"/>
  </g>
  <g stroke-opacity="0.5" stroke="#ac0505" stroke-width="2.0e-3" fill="none">
    <polyline points="-0.7145349562746587,-6.25812039844088e-2
0.4350911464582954,-6.25812039844088e-2"/>
  </g>
  <g stroke-opacity="0.5" stroke="#4b2282" stroke-width="7.0e-3" fill="none">
    <polyline points="-0.7145349562746587,-6.246269868357357e-2
-0.7122310963493421,-6.198450507456699e-2
-0.7099272364240256,-6.2196914924004254e-2
-0.707623376498709,-6.26121022895848e-2
-0.7053195165733925,-6.270567008591021e-2
-0.703015656648076,-6.268197920129293e-2
-0.7007117967227594,-6.283765749885217e-2
-0.6984079367974428,-6.344666052342784e-2
-0.6961040768721263,-6.335737943025055e-2
-0.6938002169468098,-6.308817111862541e-2
-0.6914963570214933,-6.285562736193684e-2
-0.6891924970961767,-6.281367476985744e-2
-0.6868886371708601,-6.286347746408782e-2
-0.6845847772455436,-6.233304934732686e-2
-0.6822809173202271,-6.239889682460187e-2
-0.6799770573949105,-6.23413999462854e-2
-0.677673197469594,-6.143362375368322e-2
-0.6753693375442774,-6.0726248648447e-2
-0.673065477618961,-6.178604711107771e-2
-0.6707616176936444,-6.1196842713451605e-2
-0.6684577577683278,-6.11606428894691e-2
-0.6661538978430113,-6.1725238773826296e-2
-0.6638500379176948,-6.0952724409847114e-2
-0.6615461779923782,-6.148657949790759e-2
-0.6592423180670617,-6.195635699979063e-2
-0.6569384581417451,-6.223443858665456e-2
-0.6546345982164286,-6.145186105662337e-2
-0.6523307382911121,-6.1628546003350104e-2
-0.6500268783657955,-6.227487238326057e-2
-0.647723018440479,-6.209022195539082e-2
-0.6454191585151624,-6.2411324354208264e-2
-0.6431152985898458,-6.23154874683145e-2
-0.6408114386645294,-6.262025361668677e-2
-0.6385075787392128,-6.300104517033e-2
-0.6362037188138963,-6.3010045185793e-2
-0.6338998588885797,-6.278134955700843e-2
-0.6315959989632631,-6.246193066079608e-2
-0.6292921390379467,-6.246992370223947e-2
-0.6269882791126301,-6.198931448735745e-2
-0.6246844191873135,-6.208514881887173e-2
-0.622380559261997,-6.248457782824168e-2
-0.6200766993366804,-6.25295782346037e-2
-0.617772839411364,-6.2235451262997454e-2
-0.6154689794860474,-6.2344618578974886e-2
-0.6131651195607308,-6.2095441958575526e-2
-0.6108612596354144,-6.2038301670566565e-2
-0.6085573997100978,-6.25248740366382e-2
-0.6062535397847812,-6.265227479049462e-2
-0.6039496798594648,-6.263913280515254e-2
-0.6016458199341481,-6.298399325255633e-2
-0.5993419600088317,-6.330047178738196e-2
-0.5970381000835151,-6.332608409781693e-2
-0.5947342401581985,-6.332071173463139e-2
-0.592430380232882,-6.30359503222877e-2
-0.5901265203075654,-6.315946462708644e-2
-0.587822660382249,-6.309964937383816e-2
-0.5855188004569324,-6.29786042079451e-2
-0.5832149405316158,-6.322434717945413e-2
-0.5809110806062993,-6.307884048787915e-2
-0.5786072206809827,-6.317100591740266e-2
-0.5763033607556662,-6.306842274839353e-2
-0.5739995008303497,-6.2958887738228e-2
-0.5716956409050331,-6.252021242080208e-2
-0.5693917809797165,-6.297857727236211e-2
-0.5670879210544,-6.270956275997097e-2
-0.5647840611290835,-6.309259189306393e-2
-0.562480201203767,-6.322833312628195e-2
-0.5601763412784504,-6.322132481414156e-2
-0.5578724813531338,-6.349720460702679e-2
-0.5555686214278173,-6.342561982731576e-2
-0.5532647615025008,-6.349603902609746e-2
-0.5509609015771842,-6.348884704713864e-2
-0.5486570416518677,-6.3506330037717e-2
-0.5463531817265511,-6.331447482509034e-2
-0.5440493218012346,-6.336690108999732e-2
-0.5417454618759181,-6.32908896477895e-2
-0.5394416019506015,-6.317859032414341e-2
-0.537137742025285,-6.30032208659772e-2
-0.5348338820999685,-6.30438599545774e-2
-0.5325300221746518,-6.279098381017167e-2
-0.5302261622493354,-6.284763078098687e-2
-0.5279223023240188,-6.233554651463502e-2
-0.5256184423987023,-6.242730646287298e-2
-0.5233145824733857,-6.212312078485438e-2
-0.5210107225480691,-6.236833186338042e-2
-0.5187068626227527,-6.240633636408255e-2
-0.516403002697436,-6.252563485287244e-2
-0.5140991427721195,-6.234941701978425e-2
-0.5117952828468031,-6.267080341153941e-2
-0.5094914229214865,-6.297112774307456e-2
-0.50718756299617,-6.32686624112282e-2
-0.5048837030708534,-6.335942480506951e-2
-0.5025798431455368,-6.306356680856928e-2
-0.5002759832202204,-6.335383409355078e-2
-0.4979721232949038,-6.335413198407902e-2
-0.49566826336958725,-6.327836039867984e-2
-0.4933644034442707,-6.338663179249626e-2
-0.4910605435189542,-6.342425061246326e-2
-0.4887566835936376,-6.323914942636055e-2
-0.4864528236683211,-6.317200580908044e-2
-0.48414896374300453,-6.3208741241914e-2
-0.481845103817688,-6.33494994638939e-2
-0.47954124389237146,-6.363808176895758e-2
-0.4772373839670549,-6.347563405535539e-2
-0.47493352404173844,-6.319329761644077e-2
-0.47262966411642193,-6.295442135026263e-2
-0.47032580419110537,-6.311162438677931e-2
-0.4680219442657888,-6.304753684452524e-2
-0.46571808434047224,-6.320158232932249e-2
-0.46341422441515573,-6.333778703274118e-2
-0.46111036448983916,-6.342742945565227e-2
-0.45880650456452265,-6.348690112589528e-2
-0.4565026446392061,-6.343214556024179e-2
-0.4541987847138896,-6.333752995753283e-2
-0.45189492478857296,-6.304205116702521e-2
-0.44959106486325645,-6.28741395486967e-2
-0.44728720493793994,-6.308935165279339e-2
-0.4449833450126234,-6.27885289138842e-2
-0.4426794850873068,-6.30628535320038e-2
-0.4403756251619903,-6.31585056649916e-2
-0.4380717652366738,-6.321716313388936e-2
-0.4357679053113572,-6.325994291267567e-2
-0.43346404538604066,-6.32116335394668e-2
-0.4311601854607241,-6.311902161989091e-2
-0.4288563255354076,-6.3315160402872e-2
-0.426552465610091,-6.355423641865743e-2
-0.4242486056847745,-6.351530192991328e-2
-0.42194474575945795,-6.367378117749456e-2
-0.4196408858341414,-6.345890358251549e-2
-0.4173370259088248,-6.341987166180707e-2
-0.4150331659835083,-6.331818325743965e-2
-0.4127293060581918,-6.318002554596247e-2
-0.41042544613287524,-6.3018029065261e-2
-0.4081215862075587,-6.291621820570414e-2
-0.4058177262822421,-6.296789640162359e-2
-0.4035138663569256,-6.308328336913549e-2
-0.40121000643160903,-6.307104962680399e-2
-0.3989061465062925,-6.323669565274925e-2
-0.39660228658097596,-6.321386201114187e-2
-0.39429842665565945,-6.298065228106653e-2
-0.3919945667303429,-6.315393282379134e-2
-0.3896907068050263,-6.317049949407094e-2
-0.3873868468797098,-6.342290328522682e-2
-0.38508298695439325,-6.336751527072948e-2
-0.3827791270290768,-6.320109264632578e-2
-0.38047526710376023,-6.312296567787734e-2
-0.37817140717844366,-6.297696970673283e-2
-0.37586754725312715,-6.305677273454591e-2
-0.37356368732781053,-6.303274634319889e-2
-0.371259827402494,-6.314134045885478e-2
-0.3689559674771775,-6.309901398648421e-2
-0.36665210755186095,-6.309879357061243e-2
-0.3643482476265444,-6.27768611229712e-2
-0.3620443877012279,-6.256701638630546e-2
-0.35974052777591137,-6.255346293745301e-2
-0.3574366678505948,-6.25036405946523e-2
-0.35513280792527824,-6.130149924084127e-2
-0.35282894799996173,-6.061524699533338e-2
-0.3505250880746452,-6.122264819201029e-2
-0.34822122814932865,-6.107682968518935e-2
-0.3459173682240121,-6.191961834753401e-2
-0.3436135082986956,-6.194357772592385e-2
-0.34130964837337896,-6.1452271125436386e-2
-0.3390057884480624,-6.1495680554031096e-2
-0.3367019285227459,-6.139444940199079e-2
-0.3343980685974294,-6.125431129752712e-2
-0.3320942086721128,-6.018918582996946e-2
-0.32979034874679625,-6.097479358468394e-2
-0.32748648882147974,-6.04242804815297e-2
-0.32518262889616323,-6.029460651294638e-2
-0.32287876897084666,-6.096997735092591e-2
-0.3205749090455301,-6.144006079167508e-2
-0.3182710491202136,-6.187616006501662e-2
-0.3159671891948971,-6.168271582536222e-2
-0.3136633292695805,-6.192919551324694e-2
-0.31135946934426395,-6.2186993985515526e-2
-0.30905560941894744,-6.296414200433842e-2
-0.30675174949363093,-6.285433286922348e-2
-0.30444788956831437,-6.250714149692738e-2
-0.3021440296429978,-6.179270722557273e-2
-0.2998401697176813,-6.17786089366541e-2
-0.2975363097923648,-6.154458721666067e-2
-0.2952324498670482,-6.1976742608460755e-2
-0.29292858994173165,-6.208711717760984e-2
-0.29062473001641514,-6.150610614400576e-2
-0.28832087009109864,-6.0898752503375175e-2
-0.28601701016578207,-6.109254265670705e-2
-0.28371315024046545,-6.092962839765703e-2
-0.28140929031514894,-6.156847163587875e-2
-0.2791054303898324,-6.173663331738444e-2
-0.2768015704645158,-6.25986269450669e-2
-0.2744977105391993,-6.251887986012639e-2
-0.2721938506138828,-6.281568553144545e-2
-0.26988999068856623,-6.319670007405465e-2
-0.26758613076324966,-6.197853431313727e-2
-0.26528227083793315,-6.195368771411258e-2
-0.26297841091261664,-6.113345621421451e-2
-0.2606745509873001,-6.126938494035017e-2
-0.2583706910619835,-6.1322112824109154e-2
-0.256066831136667,-6.158013274185359e-2
-0.2537629712113504,-6.162296996933303e-2
-0.2514591112860338,-6.097537090383787e-2
-0.24915525136071737,-6.029803714563742e-2
-0.2468513914354008,-6.041531361123709e-2
-0.24454753151008424,-5.996364497455964e-2
-0.24224367158476767,-5.952076049332222e-2
-0.2399398116594511,-5.892298431986187e-2
-0.23763595173413465,-5.811388676207152e-2
-0.2353320918088182,-6.0084155230917036e-2
-0.23302823188350164,-6.051672489784843e-2
-0.23072437195818507,-6.0575111478338606e-2
-0.2284205120328685,-6.098062131851212e-2
-0.22611665210755194,-6.1106402321563946e-2
-0.22381279218223538,-6.027540978133761e-2
-0.2215089322569188,-6.1609098463901946e-2
-0.21920507233160236,-6.190983222254398e-2
-0.2169012124062858,-6.229162469736116e-2
-0.21459735248096923,-6.2453702600629546e-2
-0.21229349255565277,-6.26227830802687e-2
-0.2099896326303362,-6.261542375097451e-2
-0.20768577270501964,-6.24234646451034e-2
-0.20538191277970308,-6.281624475155767e-2
-0.20307805285438651,-6.288459667576118e-2
-0.20077419292907006,-6.314237097791031e-2
-0.1984703330037535,-6.358698885313596e-2
-0.19616647307843693,-6.302210176857304e-2
-0.19386261315312037,-6.307947401466418e-2
-0.1915587532278038,-6.310417723499373e-2
-0.18925489330248724,-6.338309814932952e-2
-0.18695103337717067,-6.30586893149595e-2
-0.18464717345185422,-6.298221983892094e-2
-0.18234331352653765,-6.351903384898394e-2
-0.1800394536012211,-6.378110182135288e-2
-0.17773559367590464,-6.375352378918508e-2
-0.17543173375058807,-6.393864178040864e-2
-0.1731278738252714,-6.404030108894043e-2
-0.17082401389995483,-6.38869753729816e-2
-0.16852015397463838,-6.348239154643331e-2
-0.1662162940493218,-6.346172846441045e-2
-0.16391243412400536,-6.34432851694563e-2
-0.1616085741986888,-6.386242496283234e-2
-0.15930471427337234,-6.390733719443153e-2
-0.15700085434805577,-6.374520393343286e-2
-0.1546969944227392,-6.407750505333143e-2
-0.15239313449742264,-6.405674014017182e-2
-0.15008927457210608,-6.404704350470591e-2
-0.14778541464678963,-6.384625516675413e-2
-0.14548155472147306,-6.401364497344808e-2
-0.1431776947961565,-6.39864542887324e-2
-0.14087383487083993,-6.388765237532812e-2
-0.13856997494552337,-6.380268951814261e-2
-0.1362661150202068,-6.363949644001698e-2
-0.13396225509489024,-6.38345844348196e-2
-0.13165839516957378,-6.36315910617542e-2
-0.12935453524425722,-6.353821081000932e-2
-0.12705067531894065,-6.325413001027258e-2
-0.1247468153936242,-6.292602323021579e-2
-0.12244295546830763,-6.28317660851192e-2
-0.12013909554299107,-6.3344701230995e-2
-0.1178352356176745,-6.341295649115641e-2
-0.11553137569235794,-6.362131641286572e-2
-0.11322751576704149,-6.353796967902148e-2
-0.11092365584172492,-6.366959290032737e-2
-0.10861979591640836,-6.37486762992544e-2
-0.10631593599109179,-6.368559032378218e-2
-0.10401207606577523,-6.352395059466287e-2
-0.10170821614045866,-6.386637641292803e-2
-9.94043562151421e-2,-6.311073526018862e-2
-9.710049628982564e-2,-6.305396517083361e-2
-9.479663636450908e-2,-6.328862988041906e-2
-9.249277643919251e-2,-6.308525139038212e-2
-9.018891651387606e-2,-6.318936382583651e-2
-8.78850565885595e-2,-6.340118573366194e-2
-8.558119666324293e-2,-6.37753084701358e-2
-8.327733673792637e-2,-6.37162332305038e-2
-8.09734768126098e-2,-6.37369349363166e-2
-7.866961688729335e-2,-6.375430594282627e-2
-7.636575696197667e-2,-6.386259603746924e-2
-7.406189703666022e-2,-6.383631017934566e-2
-7.175803711134365e-2,-6.355390795689264e-2
-6.945417718602709e-2,-6.363057367626535e-2
-6.715031726071052e-2,-6.357948104681466e-2
-6.484645733539396e-2,-6.376731724697693e-2
-6.25425974100775e-2,-6.368529008645563e-2
-6.023873748476094e-2,-6.364846417416081e-2
-5.7934877559444375e-2,-6.351294435004406e-2
-5.563101763412792e-2,-6.352330286306418e-2
-5.332715770881136e-2,-6.35127038387654e-2
-5.10232977834949e-2,-6.378381150792878e-2
-4.871943785817834e-2,-6.364449213487333e-2
-4.641557793286177e-2,-6.357800876901476e-2
-4.411171800754521e-2,-6.369686891755577e-2
-4.1807858082228755e-2,-6.367973690301831e-2
-3.950399815691219e-2,-6.365913120256339e-2
-3.7200138231595625e-2,-6.333345607854801e-2
-3.489627830627917e-2,-6.321910591329205e-2
-3.259241838096261e-2,-6.353339702521632e-2
-3.0288558455646042e-2,-6.332406464937579e-2
-2.7984698530329366e-2,-6.268603060520828e-2
-2.5680838605012912e-2,-6.262280185517e-2
-2.3376978679696347e-2,-6.251151167572455e-2
-2.1073118754379783e-2,-6.264901512496868e-2
-1.876925882906333e-2,-6.176405718357947e-2
-1.6465398903746764e-2,-6.2093061901681734e-2
-1.41615389784302e-2,-6.232758862427601e-2
-1.1857679053113634e-2,-6.265988672192158e-2
-9.55381912779707e-3,-6.244466208580668e-2
-7.249959202480616e-3,-6.2207073920283906e-2
-4.946099277164051e-3,-6.253110556824792e-2
-2.6422393518474863e-3,-6.243153195388551e-2
-3.383794265310325e-4,-6.2006444006096006e-2
1.9654804987856433e-3,-6.2083999819319224e-2
4.269340424102097e-3,-6.1805303293292146e-2
6.573200349418773e-3,-6.159377675468003e-2
8.877060274735227e-3,-6.171880396845797e-2
1.1180920200051792e-2,-6.1282524339128286e-2
1.3484780125368245e-2,-6.1247520727031546e-2
1.578864005068481e-2,-6.207954079689171e-2
1.8092499976001264e-2,-6.239799506533239e-2
2.039635990131794e-2,-6.262791632820586e-2
2.2700219826634616e-2,-6.300247472602083e-2
2.500407975195107e-2,-6.3149204601468e-2
2.7307939677267634e-2,-6.310817496210142e-2
2.9611799602584088e-2,-6.300821381425137e-2
3.191565952790065e-2,-6.31344384133744e-2
3.4219519453217107e-2,-6.304856923940638e-2
3.652337937853378e-2,-6.305881277245484e-2
3.8827239303850236e-2,-6.338394668088387e-2
4.113109922916691e-2,-6.345138558238117e-2
4.3434959154483366e-2,-6.374812500241633e-2
4.573881907979993e-2,-6.364430412907496e-2
4.8042679005116384e-2,-6.352858999216571e-2
5.034653893043295e-2,-6.313685171195882e-2
5.2650398855749625e-2,-6.306450833796173e-2
5.495425878106608e-2,-6.317806096124035e-2
5.7258118706382755e-2,-6.335541249227228e-2
5.956197863169921e-2,-6.359254364653533e-2
6.186583855701577e-2,-6.364750024499344e-2
6.416969848233223e-2,-6.387002978961875e-2
6.647355840764879e-2,-6.374035340042783e-2
6.877741833296525e-2,-6.35074582570665e-2
7.108127825828192e-2,-6.350574613456739e-2
7.338513818359838e-2,-6.36219467285567e-2
7.568899810891505e-2,-6.36522908409004e-2
7.79928580342315e-2,-6.376509763904814e-2
8.029671795954807e-2,-6.371224962983535e-2
8.260057788486463e-2,-6.353264318873497e-2
8.490443781018109e-2,-6.324858121107235e-2
8.720829773549776e-2,-6.334425802341015e-2
8.951215766081422e-2,-6.308249158298318e-2
9.18160175861309e-2,-6.315937255199788e-2
9.411987751144713e-2,-6.337675203099213e-2
9.64237374367638e-2,-6.350577760431031e-2
9.872759736208037e-2,-6.326912389889905e-2
0.10103145728739682,-6.350037448862811e-2
0.10333531721271338,-6.33960421475025e-2
0.10563917713802984,-6.326211468459653e-2
0.10794303706334651,-6.283304940768952e-2
0.11024689698866297,-6.249421462554783e-2
0.11255075691397964,-6.223476343597345e-2
0.1148546168392961,-6.116105823982432e-2
0.11715847676461266,-6.169882690124928e-2
0.11946233668992912,-6.177061220584257e-2
0.12176619661524568,-6.248201167591094e-2
0.12407005654056213,-6.224738007982078e-2
0.1263739164658788,-6.1816770529497966e-2
0.12867777639119526,-6.239701422491273e-2
0.13098163631651194,-6.133323568738158e-2
0.1332854962418285,-6.148446175842914e-2
0.13558935616714496,-6.2056227488752724e-2
0.13789321609246152,-6.251676154965569e-2
0.14019707601777798,-6.223319952552442e-2
0.14250093594309465,-6.254701160062093e-2
0.1448047958684111,-6.253045201449181e-2
0.14710865579372778,-6.158420654628438e-2
0.14941251571904424,-6.202827877072825e-2
0.1517163756443608,-6.194013457725411e-2
0.15402023556967726,-6.2207648976874474e-2
0.15632409549499382,-6.268133908971063e-2
0.15862795542031027,-6.269952350031727e-2
0.16093181534562695,-6.244375155538828e-2
0.16323567527094363,-6.283981592709476e-2
0.16553953519626008,-6.32933900586603e-2
0.16784339512157664,-6.329063014232172e-2
0.1701472550468931,-6.325176578623692e-2
0.17245111497220966,-6.322986799955499e-2
0.17475497489752612,-6.345742008479982e-2
0.1770588348228428,-6.35173705053853e-2
0.17936269474815925,-6.344440812212293e-2
0.18166655467347592,-6.328790472786205e-2
0.18397041459879238,-6.33456267606487e-2
0.18627427452410894,-6.331977147955115e-2
0.1885781344494254,-6.328356400334478e-2
0.19088199437474196,-6.307132750939215e-2
0.1931858543000584,-6.30433226830438e-2
0.1954897142253751,-6.271517889808864e-2
0.19779357415069176,-6.293006543691726e-2
0.20009743407600822,-6.282485453515341e-2
0.20240129400132478,-6.262028949941412e-2
0.20470515392664124,-6.280004845297016e-2
0.2070090138519578,-6.2343959453640574e-2
0.20931287377727426,-6.170382931935392e-2
0.21161673370259093,-6.2034268898008116e-2
0.21392059362790738,-6.257109974552277e-2
0.21622445355322406,-6.240961735914363e-2
0.21852831347854051,-6.185218112124202e-2
0.22083217340385708,-6.2215732605698015e-2
0.22313603332917353,-6.246481325538089e-2
0.2254398932544901,-6.286328400331587e-2
0.22774375317980677,-6.279908320913663e-2
0.23004761310512323,-6.314571940570102e-2
0.2323514730304399,-6.304525656198445e-2
0.23465533295575636,-6.312162885905948e-2
0.23695919288107292,-6.295287794483373e-2
0.23926305280638938,-6.318144720847074e-2
0.24156691273170594,-6.302240915455282e-2
0.2438707726570224,-6.310295837995183e-2
0.24617463258233885,-6.314611436171913e-2
0.24847849250765552,-6.326455678815035e-2
0.250782352432972,-6.343126326014692e-2
0.25308621235828865,-6.335870573238234e-2
0.2553900722836051,-6.343705633488528e-2
0.2576939322089218,-6.328500145900107e-2
0.259997792134238,-6.359685685704286e-2
0.2623016520595547,-6.367951026051855e-2
0.26460551198487114,-6.358177688243272e-2
0.2669093719101878,-6.35570929234267e-2
0.2692132318355043,-6.360669516541961e-2
0.27151709176082095,-6.364771896742794e-2
0.2738209516861374,-6.352349689602332e-2
0.27612481161145386,-6.353280722737042e-2
0.27842867153677053,-6.351089768434104e-2
0.280732531462087,-6.349460979071175e-2
0.28303639138740366,-6.372561153509615e-2
0.2853402513127201,-6.368654570526244e-2
0.2876441112380368,-6.360988516283805e-2
0.28994797116335325,-6.342263269349313e-2
0.2922518310886697,-6.332339343190807e-2
0.2945556910139864,-6.336469358644303e-2
0.29685955093930283,-6.359545024688518e-2
0.2991634108646193,-6.362389065714702e-2
0.30146727078993596,-6.372210046727711e-2
0.3037711307152524,-6.351999694388877e-2
0.3060749906405691,-6.316020600369077e-2
0.30837885056588554,-6.289088397933285e-2
0.3106827104912022,-6.310290314616784e-2
0.3129865704165187,-6.313092266933484e-2
0.3152904303418351,-6.343165406872431e-2
0.3175942902671518,-6.327480235887195e-2
0.31989815019246826,-6.320051164040597e-2
0.32220201011778493,-6.327435127562964e-2
0.3245058700431014,-6.354786004368196e-2
0.32680972996841806,-6.35021466761837e-2
0.3291135898937343,-6.371315024299706e-2
0.33141744981905097,-6.366865182674519e-2
0.3337213097443674,-6.359867406234787e-2
0.3360251696696841,-6.370838156867065e-2
0.3383290295950008,-6.383004333169051e-2
0.34063288952031723,-6.379884752770282e-2
0.3429367494456339,-6.373091080611071e-2
0.34524060937095014,-6.385803143868396e-2
0.3475444692962668,-6.379541658243093e-2
0.34984832922158327,-6.352546687921423e-2
0.35215218914689994,-6.35844212879495e-2
0.3544560490722164,-6.383539711830166e-2
0.35675990899753307,-6.35169884084742e-2
0.3590637689228495,-6.359749617718569e-2
0.361367628848166,-6.344536877405293e-2
0.36367148877348265,-6.357866094699538e-2
0.3659753486987991,-6.376818516872262e-2
0.36827920862411556,-6.360564344566433e-2
0.37058306854943224,-6.380532352246748e-2
0.3728869284747489,-6.368941561837316e-2
0.37519078840006537,-6.370143864174882e-2
0.3774946483253818,-6.394612517522069e-2
0.3797985082506985,-6.401699861433341e-2
0.38210236817601495,-6.384937012391945e-2
0.3844062281013314,-6.379639325607711e-2
0.3867100880266481,-6.377678891644945e-2
0.38901394795196453,-6.338918776580116e-2
0.391317807877281,-6.277654401237731e-2
0.39362166780259766,-6.312780571644339e-2
0.3959255277279141,-6.306917599879436e-2
0.39822938765323057,-6.31577215658935e-2
0.40053324757854725,-6.2484156138936875e-2
0.4028371075038639,-6.274988718193875e-2
0.40514096742918015,-6.327809644317528e-2
0.40744482735449705,-6.364702612743989e-2
0.4097486872798133,-6.371356160791997e-2
0.4120525472051302,-6.346149508729215e-2
0.4143564071304464,-6.368093116497664e-2
0.4166602670557631,-6.368683150485743e-2
0.4189641269810793,-6.38640408554968e-2
0.4212679869063962,-6.374100712405661e-2
0.42357184683171245,-6.374949005017427e-2
0.42587570675702935,-6.358553893541152e-2
0.4281795666823456,-6.370475874774706e-2
0.43048342660766226,-6.351061300519723e-2
0.4327872865329787,-6.308252680802462e-2
0.4350911464582954,-6.1827199396103816e-2"/>
  </g>
  <g stroke-opacity="0.5" stroke="#431712" stroke-width="7.0e-3" fill="none">
    <polyline points="-0.7145349562746587,-6.297763295613146e-2
-0.7122310963493421,-6.28768448916045e-2
-0.7099272364240256,-6.291040346332166e-2
-0.707623376498709,-6.29863060510446e-2
-0.7053195165733925,-6.300127757269502e-2
-0.703015656648076,-6.299358332090377e-2
-0.7007117967227594,-6.302160293921955e-2
-0.6984079367974428,-6.314156408973093e-2
-0.6961040768721263,-6.31267588354325e-2
-0.6938002169468098,-6.307522337905558e-2
-0.6914963570214933,-6.302884410511367e-2
-0.6891924970961767,-6.30187214192659e-2
-0.6868886371708601,-6.302663149161791e-2
-0.6845847772455436,-6.291891432799046e-2
-0.6822809173202271,-6.292622517363877e-2
-0.6799770573949105,-6.29094525144851e-2
-0.677673197469594,-6.272221675028267e-2
-0.6753693375442774,-6.256785579926938e-2
-0.673065477618961,-6.276139942028747e-2
-0.6707616176936444,-6.263380501767002e-2
-0.6684577577683278,-6.261219542983132e-2
-0.6661538978430113,-6.271059908129928e-2
-0.6638500379176948,-6.254624260542863e-2
-0.6615461779923782,-6.26370784410849e-2
-0.6592423180670617,-6.27195289520297e-2
-0.6569384581417451,-6.276751354988008e-2
-0.6546345982164286,-6.260566729424166e-2
-0.6523307382911121,-6.26294662212108e-2
-0.6500268783657955,-6.274872229501438e-2
-0.647723018440479,-6.270705371032281e-2
-0.6454191585151624,-6.276510587253692e-2
-0.6431152985898458,-6.2742400680175e-2
-0.6408114386645294,-6.279908477773077e-2
-0.6385075787392128,-6.287345477684902e-2
-0.6362037188138963,-6.287653068387633e-2
-0.6338998588885797,-6.283212670313865e-2
-0.6315959989632631,-6.276773515243483e-2
-0.6292921390379467,-6.276627571580717e-2
-0.6269882791126301,-6.266719035269508e-2
-0.6246844191873135,-6.267957846034455e-2
-0.622380559261997,-6.27535199658038e-2
-0.6200766993366804,-6.275983062570056e-2
-0.617772839411364,-6.269870270746836e-2
-0.6154689794860474,-6.271590365621915e-2
-0.6131651195607308,-6.26623554813669e-2
-0.6108612596354144,-6.264525828853718e-2
-0.6085573997100978,-6.273650319557178e-2
-0.6062535397847812,-6.275986705475378e-2
-0.6039496798594648,-6.27561627350427e-2
-0.6016458199341481,-6.282396452522454e-2
-0.5993419600088317,-6.288886051946307e-2
-0.5970381000835151,-6.289809909422917e-2
-0.5947342401581985,-6.2901304471628e-2
-0.592430380232882,-6.284854626178926e-2
-0.5901265203075654,-6.287512316335397e-2
-0.587822660382249,-6.286600352734173e-2
-0.5855188004569324,-6.284413095262797e-2
-0.5832149405316158,-6.2894624279483e-2
-0.5809110806062993,-6.28688201701677e-2
-0.5786072206809827,-6.288935345924951e-2
-0.5763033607556662,-6.28716533500292e-2
-0.5739995008303497,-6.285171404197976e-2
-0.5716956409050331,-6.276505071545713e-2
-0.5693917809797165,-6.28542753028225e-2
-0.5670879210544,-6.280171542003965e-2
-0.5647840611290835,-6.287739972005757e-2
-0.562480201203767,-6.290669988843123e-2
-0.5601763412784504,-6.290851455838165e-2
-0.5578724813531338,-6.296681861951625e-2
-0.5555686214278173,-6.29578055234492e-2
-0.5532647615025008,-6.297656750624425e-2
-0.5509609015771842,-6.298032382565111e-2
-0.5486570416518677,-6.298890565598148e-2
-0.5463531817265511,-6.295570885727364e-2
-0.5440493218012346,-6.296978176993306e-2
-0.5417454618759181,-6.295855067469225e-2
-0.5394416019506015,-6.293941419969395e-2
-0.537137742025285,-6.29067320693052e-2
-0.5348338820999685,-6.291582477499191e-2
-0.5325300221746518,-6.286652989790675e-2
-0.5302261622493354,-6.287710383119238e-2
-0.5279223023240188,-6.277439224741999e-2
-0.5256184423987023,-6.278835577973974e-2
-0.5233145824733857,-6.27239081509674e-2
-0.5210107225480691,-6.276694249301129e-2
-0.5187068626227527,-6.277055728685554e-2
-0.516403002697436,-6.279077477538575e-2
-0.5140991427721195,-6.275287980954292e-2
-0.5117952828468031,-6.281312245999648e-2
-0.5094914229214865,-6.287176413581885e-2
-0.50718756299617,-6.293226470552216e-2
-0.5048837030708534,-6.295378116134742e-2
-0.5025798431455368,-6.28986659984847e-2
-0.5002759832202204,-6.295836846358183e-2
-0.4979721232949038,-6.296238269798726e-2
-0.49566826336958725,-6.295114587376827e-2
-0.4933644034442707,-6.297607229778068e-2
-0.4910605435189542,-6.298770165672118e-2
-0.4887566835936376,-6.295504690905807e-2
-0.4864528236683211,-6.294445921077518e-2
-0.48414896374300453,-6.295408176332484e-2
-0.481845103817688,-6.298478000250674e-2
-0.47954124389237146,-6.304614365813332e-2
-0.4772373839670549,-6.30195734965211e-2
-0.47493352404173844,-6.296766681432653e-2
-0.47262966411642193,-6.292214786911221e-2
-0.47032580419110537,-6.295391121122695e-2
-0.4680219442657888,-6.294267083453153e-2
-0.46571808434047224,-6.297452859159092e-2
-0.46341422441515573,-6.300404006965199e-2
-0.46111036448983916,-6.302530602386525e-2
-0.45880650456452265,-6.304122159223169e-2
-0.4565026446392061,-6.30347272744376e-2
-0.4541987847138896,-6.301977833675387e-2
-0.45189492478857296,-6.29638600948601e-2
-0.44959106486325645,-6.293105968191604e-2
-0.44728720493793994,-6.297353290140317e-2
-0.4449833450126234,-6.291452654113527e-2
-0.4426794850873068,-6.296813148848679e-2
-0.4403756251619903,-6.298820913551939e-2
-0.4380717652366738,-6.30016435945937e-2
-0.4357679053113572,-6.301235474574385e-2
-0.43346404538604066,-6.300516875277151e-2
-0.4311601854607241,-6.298871101672321e-2
-0.4288563255354076,-6.30292418793511e-2
-0.426552465610091,-6.307991626774334e-2
-0.4242486056847745,-6.307687257150374e-2
-0.42194474575945795,-6.311295271460415e-2
-0.4196408858341414,-6.307558548023717e-2
-0.4173370259088248,-6.307161227711822e-2
-0.4150331659835083,-6.305475719009168e-2
-0.4127293060581918,-6.30297599084697e-2
-0.41042544613287524,-6.29988632687043e-2
-0.4081215862075587,-6.297869275475854e-2
-0.4058177262822421,-6.298840364845193e-2
-0.4035138663569256,-6.301127596948597e-2
-0.40121000643160903,-6.300954929501612e-2
-0.3989061465062925,-6.304329350352311e-2
-0.39660228658097596,-6.30406607966939e-2
-0.39429842665565945,-6.299575086282327e-2
-0.3919945667303429,-6.303025598555068e-2
-0.3896907068050263,-6.303480608798895e-2
-0.3873868468797098,-6.308664378028106e-2
-0.38508298695439325,-6.307892877243093e-2
-0.3827791270290768,-6.304853011253331e-2
-0.38047526710376023,-6.303443034418144e-2
-0.37817140717844366,-6.300611650328958e-2
-0.37586754725312715,-6.302178564088656e-2
-0.37356368732781053,-6.301733023355383e-2
-0.371259827402494,-6.303920321778145e-2
-0.3689559674771775,-6.303175929571792e-2
-0.36665210755186095,-6.30323877594513e-2
-0.3643482476265444,-6.296866532803469e-2
-0.3620443877012279,-6.292477833865084e-2
-0.35974052777591137,-6.291849002935701e-2
-0.3574366678505948,-6.290487528987776e-2
-0.35513280792527824,-6.266043467216331e-2
-0.35282894799996173,-6.250959486874852e-2
-0.3505250880746452,-6.261213162934964e-2
-0.34822122814932865,-6.256907309361215e-2
-0.3459173682240121,-6.27227083919969e-2
-0.3436135082986956,-6.271946936723016e-2
-0.34130964837337896,-6.261344913071965e-2
-0.3390057884480624,-6.261051923638572e-2
-0.3367019285227459,-6.257912461915427e-2
-0.3343980685974294,-6.253925024608986e-2
-0.3320942086721128,-6.2313375763092704e-2
-0.32979034874679625,-6.244925541470436e-2
-0.32748648882147974,-6.232440817577323e-2
-0.32518262889616323,-6.2279472105114086e-2
-0.32287876897084666,-6.23946976167884e-2
-0.3205749090455301,-6.247446710227955e-2
-0.3182710491202136,-6.25513428938419e-2
-0.3159671891948971,-6.250590221762276e-2
-0.3136633292695805,-6.25469662912771e-2
-0.31135946934426395,-6.259234827795046e-2
-0.30905560941894744,-6.274372433879072e-2
-0.30675174949363093,-6.272396668842317e-2
-0.30444788956831437,-6.265583207577197e-2
-0.3021440296429978,-6.25114583157127e-2
-0.2998401697176813,-6.250145114702754e-2
-0.2975363097923648,-6.2447418380925046e-2
-0.2952324498670482,-6.252482114764235e-2
-0.29292858994173165,-6.254141527608048e-2
-0.29062473001641514,-6.242067008837493e-2
-0.28832087009109864,-6.2290053720805094e-2
-0.28601701016578207,-6.2314898739297186e-2
-0.28371315024046545,-6.2270092326661364e-2
-0.28140929031514894,-6.238445633501555e-2
-0.2791054303898324,-6.240992882432539e-2
-0.2768015704645158,-6.257559459479234e-2
-0.2744977105391993,-6.255987550130704e-2
-0.2721938506138828,-6.261882667915908e-2
-0.26988999068856623,-6.269699817620378e-2
-0.26758613076324966,-6.245836204299893e-2
-0.26528227083793315,-6.2448594445895234e-2
-0.26297841091261664,-6.2279599078597925e-2
-0.2606745509873001,-6.229532339518107e-2
-0.2583706910619835,-6.229560958738456e-2
-0.256066831136667,-6.233747860330063e-2
-0.2537629712113504,-6.2338472590182104e-2
-0.2514591112860338,-6.220179775087464e-2
-0.24915525136071737,-6.205406673076419e-2
-0.2468513914354008,-6.205996172803274e-2
-0.24454753151008424,-6.195318151952944e-2
-0.24224367158476767,-6.184470925783225e-2
-0.2399398116594511,-6.1701914535495006e-2
-0.23763595173413465,-6.151230572178068e-2
-0.2353320918088182,-6.187237522595268e-2
-0.23302823188350164,-6.1941006959388534e-2
-0.23072437195818507,-6.193844145487115e-2
-0.2284205120328685,-6.2005910123140606e-2
-0.22611665210755194,-6.202081343570465e-2
-0.22381279218223538,-6.184547081651803e-2
-0.2215089322569188,-6.209650794267907e-2
-0.21920507233160236,-6.215178059961968e-2
-0.2169012124062858,-6.222571961081236e-2
-0.21459735248096923,-6.2258794242331494e-2
-0.21229349255565277,-6.2294559421842366e-2
-0.2099896326303362,-6.2296369792567696e-2
-0.20768577270501964,-6.226116851097763e-2
-0.20538191277970308,-6.2341347493609756e-2
-0.20307805285438651,-6.235976685102984e-2
-0.20077419292907006,-6.241657000970713e-2
-0.1984703330037535,-6.251275159443426e-2
-0.19616647307843693,-6.241051655010876e-2
-0.19386261315312037,-6.2428106851511456e-2
-0.1915587532278038,-6.2439561167208946e-2
-0.18925489330248724,-6.250199151075397e-2
-0.18695103337717067,-6.244592081026579e-2
-0.18464717345185422,-6.243675460010489e-2
-0.18234331352653765,-6.254957205450573e-2
-0.1800394536012211,-6.261168026692421e-2
-0.17773559367590464,-6.261785887603499e-2
-0.17543173375058807,-6.266623912341118e-2
-0.1731278738252714,-6.269929501168747e-2
-0.17082401389995483,-6.268203992926835e-2
-0.16852015397463838,-6.261317251839582e-2
-0.1662162940493218,-6.261773209227162e-2
-0.16391243412400536,-6.262248339700216e-2
-0.1616085741986888,-6.271451937340189e-2
-0.15930471427337234,-6.273498087561602e-2
-0.15700085434805577,-6.271427778660454e-2
-0.1546969944227392,-6.279104727205242e-2
-0.15239313449742264,-6.279975886723332e-2
-0.15008927457210608,-6.281038935286953e-2
-0.14778541464678963,-6.278259822679744e-2
-0.14548155472147306,-6.282671275753593e-2
-0.1431776947961565,-6.283314394275186e-2
-0.14087383487083993,-6.282491666353074e-2
-0.13856997494552337,-6.281855144921167e-2
-0.1362661150202068,-6.279575421427586e-2
-0.13396225509489024,-6.284320923549391e-2
-0.13165839516957378,-6.281252431287399e-2
-0.12935453524425722,-6.280203893001379e-2
-0.12705067531894065,-6.275258448886634e-2
-0.1247468153936242,-6.269197858806919e-2
-0.12244295546830763,-6.267546760547127e-2
-0.12013909554299107,-6.277961761944295e-2
-0.1178352356176745,-6.279891950759076e-2
-0.11553137569235794,-6.284673186176815e-2
-0.11322751576704149,-6.283780836051045e-2
-0.11092365584172492,-6.287113461795657e-2
-0.10861979591640836,-6.289493588056572e-2
-0.10631593599109179,-6.289085608965828e-2
-0.10401207606577523,-6.286647548617552e-2
-0.10170821614045866,-6.294153540091352e-2
-9.94043562151421e-2,-6.279965558048572e-2
-9.710049628982564e-2,-6.279141235941177e-2
-9.479663636450908e-2,-6.284097082944307e-2
-9.249277643919251e-2,-6.280477172194554e-2
-9.018891651387606e-2,-6.282839900572068e-2
-8.78850565885595e-2,-6.287437303548682e-2
-8.558119666324293e-2,-6.295446570976349e-2
-8.327733673792637e-2,-6.295085908944087e-2
-8.09734768126098e-2,-6.2962653172014e-2
-7.866961688729335e-2,-6.29738701909589e-2
-7.636575696197667e-2,-6.30033325674062e-2
-7.406189703666022e-2,-6.300666803048216e-2
-7.175803711134365e-2,-6.295848400748005e-2
-6.945417718602709e-2,-6.297977139084876e-2
-6.715031726071052e-2,-6.297606088781293e-2
-6.484645733539396e-2,-6.301966232943534e-2
-6.25425974100775e-2,-6.301073344650643e-2
-6.023873748476094e-2,-6.301011383044697e-2
-5.7934877559444375e-2,-6.298939336906084e-2
-5.563101763412792e-2,-6.299670058147466e-2
-5.332715770881136e-2,-6.299984679943083e-2
-5.10232977834949e-2,-6.30591969036568e-2
-4.871943785817834e-2,-6.303857917508837e-2
-4.641557793286177e-2,-6.303134163151458e-2
-4.411171800754521e-2,-6.306058033259776e-2
-4.1807858082228755e-2,-6.30635168155399e-2
-3.950399815691219e-2,-6.306555787632362e-2
-3.7200138231595625e-2,-6.300635858478287e-2
-3.489627830627917e-2,-6.298675952666954e-2
-3.259241838096261e-2,-6.305194121292057e-2
-3.0288558455646042e-2,-6.30148892958754e-2
-2.7984698530329366e-2,-6.289037424057686e-2
-2.5680838605012912e-2,-6.287568505421559e-2
-2.3376978679696347e-2,-6.285089818633605e-2
-2.1073118754379783e-2,-6.287500501107868e-2
-1.876925882906333e-2,-6.269575352393975e-2
-1.6465398903746764e-2,-6.27522375041566e-2
-1.41615389784302e-2,-6.27925510926507e-2
-1.1857679053113634e-2,-6.285436108749609e-2
-9.55381912779707e-3,-6.280937141661735e-2
-7.249959202480616e-3,-6.275820669020471e-2
-4.946099277164051e-3,-6.281750169209832e-2
-2.6422393518474863e-3,-6.279472300798727e-2
-3.383794265310325e-4,-6.270607350788837e-2
1.9654804987856433e-3,-6.271458837551513e-2
4.269340424102097e-3,-6.265254318474767e-2
6.573200349418773e-3,-6.26017654781107e-2
8.877060274735227e-3,-6.261669103363199e-2
1.1180920200051792e-2,-6.252045623711433e-2
1.3484780125368245e-2,-6.25010761957151e-2
1.578864005068481e-2,-6.265494465500032e-2
1.8092499976001264e-2,-6.271288147010734e-2
2.039635990131794e-2,-6.275571685863435e-2
2.2700219826634616e-2,-6.282935053289296e-2
2.500407975195107e-2,-6.286042774991385e-2
2.7307939677267634e-2,-6.285510959055596e-2
2.9611799602584088e-2,-6.283764801470149e-2
3.191565952790065e-2,-6.286459859252158e-2
3.4219519453217107e-2,-6.285012315593641e-2
3.652337937853378e-2,-6.285415632338087e-2
3.8827239303850236e-2,-6.292122966955749e-2
4.113109922916691e-2,-6.293934461997008e-2
4.3434959154483366e-2,-6.300381291360124e-2
4.573881907979993e-2,-6.29904918598212e-2
4.8042679005116384e-2,-6.297388715513186e-2
5.034653893043295e-2,-6.290108652746074e-2
5.2650398855749625e-2,-6.288897550450634e-2
5.495425878106608e-2,-6.291344135749666e-2
5.7258118706382755e-2,-6.295155785974049e-2
5.956197863169921e-2,-6.300302263691826e-2
6.186583855701577e-2,-6.301990916670619e-2
6.416969848233223e-2,-6.307069098641416e-2
6.647355840764879e-2,-6.305274909660807e-2
6.877741833296525e-2,-6.301304611097391e-2
7.108127825828192e-2,-6.301764780793506e-2
7.338513818359838e-2,-6.304576890999924e-2
7.568899810891505e-2,-6.305759951065348e-2
7.79928580342315e-2,-6.308610778358548e-2
8.029671795954807e-2,-6.308232808029757e-2
8.260057788486463e-2,-6.305270600757285e-2
8.490443781018109e-2,-6.300069298385191e-2
8.720829773549776e-2,-6.30223072285917e-2
8.951215766081422e-2,-6.297317344845454e-2
9.18160175861309e-2,-6.298964282360275e-2
9.411987751144713e-2,-6.303481601668548e-2
9.64237374367638e-2,-6.306404049149228e-2
9.872759736208037e-2,-6.302112712153818e-2
0.10103145728739682,-6.306985720725766e-2
0.10333531721271338,-6.305329591184627e-2
0.10563917713802984,-6.302993788162159e-2
0.10794303706334651,-6.294644659426996e-2
0.11024689698866297,-6.287754566597581e-2
0.11255075691397964,-6.282182211765663e-2
0.1148546168392961,-6.260121049160994e-2
0.11715847676461266,-6.269436270137707e-2
0.11946233668992912,-6.269876440429456e-2
0.12176619661524568,-6.283176277632363e-2
0.12407005654056213,-6.27813389461015e-2
0.1263739164658788,-6.268987744737409e-2
0.12867777639119526,-6.279719511727822e-2
0.13098163631651194,-6.25804376008483e-2
0.1332854962418285,-6.259821079592331e-2
0.13558935616714496,-6.270142645161303e-2
0.13789321609246152,-6.27870812741651e-2
0.14019707601777798,-6.272766567209365e-2
0.14250093594309465,-6.278548342564727e-2
0.1448047958684111,-6.277978679017115e-2
0.14710865579372778,-6.258804434877285e-2
0.14941251571904424,-6.266682041563687e-2
0.1517163756443608,-6.264280616049289e-2
0.15402023556967726,-6.26892823245846e-2
0.15632409549499382,-6.277920401367465e-2
0.15862795542031027,-6.278186224655635e-2
0.16093181534562695,-6.272988447010819e-2
0.16323567527094363,-6.280623601530222e-2
0.16553953519626008,-6.289728664073324e-2
0.16784339512157664,-6.290069569164491e-2
0.1701472550468931,-6.289682216493475e-2
0.17245111497220966,-6.289599204381136e-2
0.17475497489752612,-6.294484122041777e-2
0.1770588348228428,-6.296195709317864e-2
0.17936269474815925,-6.295291875064823e-2
0.18166655467347592,-6.292653296551087e-2
0.18397041459879238,-6.294169108969161e-2
0.18627427452410894,-6.294055939018173e-2
0.1885781344494254,-6.293711001583413e-2
0.19088199437474196,-6.289812725691879e-2
0.1931858543000584,-6.289425829417372e-2
0.1954897142253751,-6.283012018107148e-2
0.19779357415069176,-6.287194807600738e-2
0.20009743407600822,-6.285148706926369e-2
0.20240129400132478,-6.281030773677476e-2
0.20470515392664124,-6.284435934511234e-2
0.2070090138519578,-6.275269843632503e-2
0.20931287377727426,-6.262058501964085e-2
0.21161673370259093,-6.267750537836869e-2
0.21392059362790738,-6.277843918306814e-2
0.21622445355322406,-6.274406931141685e-2
0.21852831347854051,-6.262923754431382e-2
0.22083217340385708,-6.269417727697424e-2
0.22313603332917353,-6.273920896019813e-2
0.2254398932544901,-6.281615915273697e-2
0.22774375317980677,-6.280379024240679e-2
0.23004761310512323,-6.287307041138701e-2
0.2323514730304399,-6.285570433258691e-2
0.23465533295575636,-6.287287431429589e-2
0.23695919288107292,-6.284161167689828e-2
0.23926305280638938,-6.288843819230505e-2
0.24156691273170594,-6.285956067168319e-2
0.2438707726570224,-6.287729900159167e-2
0.24617463258233885,-6.28881867917287e-2
0.24847849250765552,-6.291445455271483e-2
0.250782352432972,-6.295129686946843e-2
0.25308621235828865,-6.294158502782243e-2
0.2553900722836051,-6.296142635536861e-2
0.2576939322089218,-6.293577167998687e-2
0.259997792134238,-6.300163505738543e-2
0.2623016520595547,-6.30241179560771e-2
0.26460551198487114,-6.301112520350438e-2
0.2669093719101878,-6.301189492849246e-2
0.2692132318355043,-6.302726735684039e-2
0.27151709176082095,-6.304126639532781e-2
0.2738209516861374,-6.30224865067679e-2
0.27612481161145386,-6.302935867692994e-2
0.27842867153677053,-6.303001125382834e-2
0.280732531462087,-6.303156253940767e-2
0.28303639138740366,-6.308239336079757e-2
0.2853402513127201,-6.308101237657382e-2
0.2876441112380368,-6.30717356013758e-2
0.28994797116335325,-6.303966660312144e-2
0.2922518310886697,-6.302364841170816e-2
0.2945556910139864,-6.303490589281713e-2
0.29685955093930283,-6.308435510184185e-2
0.2991634108646193,-6.309515413534461e-2
0.30146727078993596,-6.312008346258868e-2
0.3037711307152524,-6.308568292795791e-2
0.3060749906405691,-6.301806788007758e-2
0.30837885056588554,-6.296562485644219e-2
0.3106827104912022,-6.300728128103805e-2
0.3129865704165187,-6.301384140432276e-2
0.3152904303418351,-6.307515849685086e-2
0.3175942902671518,-6.304735311059906e-2
0.31989815019246826,-6.303476945938868e-2
0.32220201011778493,-6.30511948082435e-2
0.3245058700431014,-6.310812812652777e-2
0.32680972996841806,-6.310338277219973e-2
0.3291135898937343,-6.314957112460218e-2
0.33141744981905097,-6.314630723253578e-2
0.3337213097443674,-6.313753512559839e-2
0.3360251696696841,-6.316408801623041e-2
0.3383290295950008,-6.319386330435883e-2
0.34063288952031723,-6.319398594383463e-2
0.3429367494456339,-6.318644721535482e-2
0.34524060937095014,-6.321731597777702e-2
0.3475444692962668,-6.321120016113557e-2
0.34984832922158327,-6.316305238470521e-2
0.35215218914689994,-6.317846741139732e-2
0.3544560490722164,-6.323272211623321e-2
0.35675990899753307,-6.317506712428844e-2
0.3590637689228495,-6.319458789087262e-2
0.361367628848166,-6.316819149310915e-2
0.36367148877348265,-6.319762170050713e-2
0.3659753486987991,-6.323933693731754e-2
0.36827920862411556,-6.321211707501984e-2
0.37058306854943224,-6.325598835408686e-2
0.3728869284747489,-6.323830012495191e-2
0.37519078840006537,-6.324521588456122e-2
0.3774946483253818,-6.329871541882748e-2
0.3797985082506985,-6.331936420421402e-2
0.38210236817601495,-6.32928148502323e-2
0.3844062281013314,-6.32877850294008e-2
0.3867100880266481,-6.328895024374204e-2
0.38901394795196453,-6.321630840033943e-2
0.391317807877281,-6.309550844330925e-2
0.39362166780259766,-6.316257113981305e-2
0.3959255277279141,-6.31504975420496e-2
0.39822938765323057,-6.316739344003697e-2
0.40053324757854725,-6.303258363590403e-2
0.4028371075038639,-6.308024556953495e-2
0.40514096742918015,-6.31825838379062e-2
0.40744482735449705,-6.325732490081182e-2
0.4097486872798133,-6.327452900917407e-2
0.4120525472051302,-6.322850603103602e-2
0.4143564071304464,-6.327472313713545e-2
0.4166602670557631,-6.327996528539004e-2
0.4189641269810793,-6.331947581771258e-2
0.4212679869063962,-6.330031472180242e-2
0.42357184683171245,-6.330641823104843e-2
0.42587570675702935,-6.327805872628722e-2
0.4281795666823456,-6.330497749084552e-2
0.43048342660766226,-6.327014615490456e-2
0.4327872865329787,-6.318693358397298e-2
0.4350911464582954,-6.293482403382933e-2"/>
  </g>
  <g stroke-opacity="0.5" fill-opacity="1.0" stroke="#3764a0" stroke-width="4.0e-3" fill="#ffffff">
    <rect height="0.1342572542226072" width="0.19784397108655827" x="0.5394847993242009" y="-6.74465492280435e-2"/>
  </g>
  <g fill-opacity="1.0" font-size="4.000000000000001e-2" stroke="none" stroke-width="0.0" fill="#666666" text-anchor="start">
    <text x="0.5510040989507838" y="3.1297495813099874e-2">rate = 0.99
    </text>
  </g>
  <g stroke-opacity="0.5" stroke="#431712" stroke-width="6.999999999999999e-3" fill="none">
    <polyline points="0.7007549940963589,2.5580735310717917e-2
0.7237935933495243,2.5580735310717917e-2"/>
  </g>
  <g fill-opacity="1.0" font-size="4.000000000000001e-2" stroke="none" stroke-width="0.0" fill="#666666" text-anchor="start">
    <text x="0.5510040989507838" y="-1.8074526707471894e-2">rate = 0.95
    </text>
  </g>
  <g stroke-opacity="0.5" stroke="#4b2282" stroke-width="6.999999999999999e-3" fill="none">
    <polyline points="0.7007549940963589,-2.3791287209853795e-2
0.7237935933495243,-2.3791287209853795e-2"/>
  </g>
</svg>