
<svg xmlns="http://www.w3.org/2000/svg" height="300.0" viewBox="-0.9104277680948124 -0.7283312039844088 1.7014318670455961 1.461347121816856" width="450.0" xmlns:xlink="http://www.w3.org/1999/xlink">
  <g transform="translate(-8.219640591007693e-2, -0.57175)" fill-opacity="1.0" font-size="8.0e-2" stroke="none" stroke-width="0.0" fill="#000000" text-anchor="middle">
    <text transform="rotate(0.0, -0.14087383487083993, -6.25812039844088e-2)" x="-0.14087383487083993" y="-6.25812039844088e-2">ma alpha
    </text>
  </g>
  <g stroke-opacity="0.0" fill-opacity="3.0e-2" stroke="#000000" stroke-width="0.0" fill="#666666">
    <rect height="0.8661758336942399" width="1.1519299626582706" x="-0.7168388161999752" y="-0.4956691208315287"/>
  </g>
  <g stroke-opacity="0.3" stroke="#a8e5ee" stroke-width="5.0e-3" fill="none">
    <polyline points="-0.7145349562746587,0.3748375920311824
-0.7145349562746587,-0.5"/>
  </g>
  <g stroke-opacity="0.3" stroke="#a8e5ee" stroke-width="5.0e-3" fill="none">
    <polyline points="-0.6661538978430113,0.3748375920311824
-0.6661538978430113,-0.5"/>
  </g>
  <g stroke-opacity="0.3" stroke="#a8e5ee" stroke-width="5.0e-3" fill="none">
    <polyline points="-0.5187068626227527,0.3748375920311824
-0.5187068626227527,-0.5"/>
  </g>
  <g stroke-opacity="0.3" stroke="#a8e5ee" stroke-width="5.0e-3" fill="none">
    <polyline points="-0.37356368732781053,0.3748375920311824
-0.37356368732781053,-0.5"/>
  </g>
  <g stroke-opacity="0.3" stroke="#a8e5ee" stroke-width="5.0e-3" fill="none">
    <polyline points="-0.2284205120328685,0.3748375920311824
-0.2284205120328685,-0.5"/>
  </g>
  <g stroke-opacity="0.3" stroke="#a8e5ee" stroke-width="5.0e-3" fill="none">
    <polyline points="-8.78850565885595e-2,0.3748375920311824
-8.78850565885595e-2,-0.5"/>
  </g>
  <g stroke-opacity="0.3" stroke="#a8e5ee" stroke-width="5.0e-3" fill="none">
    <polyline points="5.7258118706382755e-2,0.3748375920311824
5.7258118706382755e-2,-0.5"/>
  </g>
  <g stroke-opacity="0.3" stroke="#a8e5ee" stroke-width="5.0e-3" fill="none">
    <polyline points="0.20470515392664124,0.3748375920311824
0.20470515392664124,-0.5"/>
  </g>
  <g stroke-opacity="0.3" stroke="#a8e5ee" stroke-width="5.0e-3" fill="none">
    <polyline points="0.35215218914689994,0.3748375920311824
0.35215218914689994,-0.5"/>
  </g>
  <g stroke-opacity="0.3" stroke="#a8e5ee" stroke-width="5.0e-3" fill="none">
    <polyline points="0.4350911464582954,0.3748375920311824
0.4350911464582954,-0.5"/>
  </g>
  <g fill-opacity="1.0" font-size="5.0e-2" stroke="none" stroke-width="0.0" fill="#666666" text-anchor="end">
    <text transform="rotate(-45.0, -0.7145349562746587, 0.5)" x="-0.7145349562746587" y="0.5">28 Feb 2018
    </text>
  </g>
  <g fill-opacity="1.0" font-size="5.0e-2" stroke="none" stroke-width="0.0" fill="#666666" text-anchor="end">
    <text transform="rotate(-45.0, -0.6661538978430113, 0.5)" x="-0.6661538978430113" y="0.5">31 Mar 2018
    </text>
  </g>
  <g fill-opacity="1.0" font-size="5.0e-2" stroke="none" stroke-width="0.0" fill="#666666" text-anchor="end">
    <text transform="rotate(-45.0, -0.5187068626227527, 0.5)" x="-0.5187068626227527" y="0.5">30 Jun 2018
    </text>
  </g>
  <g fill-opacity="1.0" font-size="5.0e-2" stroke="none" stroke-width="0.0" fill="#666666" text-anchor="end">
    <text transform="rotate(-45.0, -0.37356368732781053, 0.5)" x="-0.37356368732781053" y="0.5">30 Sep 2018
    </text>
  </g>
  <g fill-opacity="1.0" font-size="5.0e-2" stroke="none" stroke-width="0.0" fill="#666666" text-anchor="end">
    <text transform="rotate(-45.0, -0.2284205120328685, 0.5)" x="-0.2284205120328685" y="0.5">31 Dec 2018
    </text>
  </g>
  <g fill-opacity="1.0" font-size="5.0e-2" stroke="none" stroke-width="0.0" fill="#666666" text-anchor="end">
    <text transform="rotate(-45.0, -8.78850565885595e-2, 0.5)" x="-8.78850565885595e-2" y="0.5">31 Mar 2019
    </text>
  </g>
  <g fill-opacity="1.0" font-size="5.0e-2" stroke="none" stroke-width="0.0" fill="#666666" text-anchor="end">
    <text transform="rotate(-45.0, 5.7258118706382755e-2, 0.5)" x="5.7258118706382755e-2" y="0.5">30 Jun 2019
    </text>
  </g>
  <g fill-opacity="1.0" font-size="5.0e-2" stroke="none" stroke-width="0.0" fill="#666666" text-anchor="end">
    <text transform="rotate(-45.0, 0.20470515392664124, 0.5)" x="0.20470515392664124" y="0.5">30 Sep 2019
    </text>
  </g>
  <g fill-opacity="1.0" font-size="5.0e-2" stroke="none" stroke-width="0.0" fill="#666666" text-anchor="end">
    <text transform="rotate(-45.0, 0.35215218914689994, 0.5)" x="0.35215218914689994" y="0.5">31 Dec 2019
    </text>
  </g>
  <g fill-opacity="1.0" font-size="5.0e-2" stroke="none" stroke-width="0.0" fill="#666666" text-anchor="end">
    <text transform="rotate(-45.0, 0.4350911464582954, 0.5)" x="0.4350911464582954" y="0.5">24 Feb 2020
    </text>
  </g>
  <g stroke-opacity="0.4" fill-opacity="1.0" stroke="#2c429d" stroke-width="5.0e-3" fill="#5f0391">
    <polyline points="-0.7145349562746587,0.4424577739281074
-0.7145349562746587,0.4124577739281074"/>
    <polyline points="-0.6661538978430113,0.4424577739281074
-0.6661538978430113,0.4124577739281074"/>
    <polyline points="-0.5187068626227527,0.4424577739281074
-0.5187068626227527,0.4124577739281074"/>
    <polyline points="-0.37356368732781053,0.4424577739281074
-0.37356368732781053,0.4124577739281074"/>
    <polyline points="-0.2284205120328685,0.4424577739281074
-0.2284205120328685,0.4124577739281074"/>
    <polyline points="-8.78850565885595e-2,0.4424577739281074
-8.78850565885595e-2,0.4124577739281074"/>
    <polyline points="5.7258118706382755e-2,0.4424577739281074
5.7258118706382755e-2,0.4124577739281074"/>
    <polyline points="0.20470515392664124,0.4424577739281074
0.20470515392664124,0.4124577739281074"/>
    <polyline points="0.35215218914689994,0.4424577739281074
0.35215218914689994,0.4124577739281074"/>
    <polyline points="0.4350911464582954,0.4424577739281074
0.4350911464582954,0.4124577739281074"/>
  </g>
  <g stroke-opacity="0.0" fill-opacity="0.5" stroke="#666666" stroke-width="0.0" fill="#5f0391">
    <rect height="4.330879168471247e-3" width="1.1519299626582706" x="-0.7168388161999752" y="0.4144651364226938"/>
  </g>
  <g stroke-opacity="0.3" stroke="#a8e5ee" stroke-width="5.0e-3" fill="none">
    <polyline points="-0.7197186411066209,0.3705067128627112
0.4379709713649409,0.3705067128627112"/>
  </g>
  <g stroke-opacity="0.3" stroke="#a8e5ee" stroke-width="5.0e-3" fill="none">
    <polyline points="-0.7197186411066209,0.2261440739136712
0.4379709713649409,0.2261440739136712"/>
  </g>
  <g stroke-opacity="0.3" stroke="#a8e5ee" stroke-width="5.0e-3" fill="none">
    <polyline points="-0.7197186411066209,8.17814349646312e-2
0.4379709713649409,8.17814349646312e-2"/>
  </g>
  <g stroke-opacity="0.3" stroke="#a8e5ee" stroke-width="5.0e-3" fill="none">
    <polyline points="-0.7197186411066209,-6.25812039844088e-2
0.4379709713649409,-6.25812039844088e-2"/>
  </g>
  <g stroke-opacity="0.3" stroke="#a8e5ee" stroke-width="5.0e-3" fill="none">
    <polyline points="-0.7197186411066209,-0.2069438429334487
0.4379709713649409,-0.2069438429334487"/>
  </g>
  <g stroke-opacity="0.3" stroke="#a8e5ee" stroke-width="5.0e-3" fill="none">
    <polyline points="-0.7197186411066209,-0.3513064818824887
0.4379709713649409,-0.3513064818824887"/>
  </g>
  <g stroke-opacity="0.3" stroke="#a8e5ee" stroke-width="5.0e-3" fill="none">
    <polyline points="-0.7197186411066209,-0.4956691208315287
0.4379709713649409,-0.4956691208315287"/>
  </g>
  <g fill-opacity="1.0" font-size="5.0e-2" stroke="none" stroke-width="0.0" fill="#666666" text-anchor="end">
    <text x="-0.75" y="0.3830662624512776">-60%
    </text>
  </g>
  <g fill-opacity="1.0" font-size="5.0e-2" stroke="none" stroke-width="0.0" fill="#666666" text-anchor="end">
    <text x="-0.75" y="0.23870362350223773">-40%
    </text>
  </g>
  <g fill-opacity="1.0" font-size="5.0e-2" stroke="none" stroke-width="0.0" fill="#666666" text-anchor="end">
    <text x="-0.75" y="9.434098455319773e-2">-20%
    </text>
  </g>
  <g fill-opacity="1.0" font-size="5.0e-2" stroke="none" stroke-width="0.0" fill="#666666" text-anchor="end">
    <text x="-0.75" y="-5.0021654395842385e-2">0%
    </text>
  </g>
  <g fill-opacity="1.0" font-size="5.0e-2" stroke="none" stroke-width="0.0" fill="#666666" text-anchor="end">
    <text x="-0.75" y="-0.19438429334488216">20%
    </text>
  </g>
  <g fill-opacity="1.0" font-size="5.0e-2" stroke="none" stroke-width="0.0" fill="#666666" text-anchor="end">
    <text x="-0.75" y="-0.3387469322939223">40%
    </text>
  </g>
  <g fill-opacity="1.0" font-size="5.0e-2" stroke="none" stroke-width="0.0" fill="#666666" text-anchor="end">
    <text x="-0.75" y="-0.4831095712429623">60%
    </text>
  </g>
  <g stroke-opacity="0.4" fill-opacity="1.0" stroke="#2c429d" stroke-width="5.0e-3" fill="#5f0391">
    <g transform="rotate(-90.0, -0.7312379407332036, 0.3705067128627112)">
      <polyline points="-0.7312379407332036,0.3855067128627112
-0.7312379407332036,0.3555067128627112"/>
    </g>
    <g transform="rotate(-90.0, -0.7312379407332036, 0.2261440739136712)">
      <polyline points="-0.7312379407332036,0.2411440739136712
-0.7312379407332036,0.21114407391367118"/>
    </g>
    <g transform="rotate(-90.0, -0.7312379407332036, 8.17814349646312e-2)">
      <polyline points="-0.7312379407332036,9.67814349646312e-2
-0.7312379407332036,6.67814349646312e-2"/>
    </g>
    <g transform="rotate(-90.0, -0.7312379407332036, -6.25812039844088e-2)">
      <polyline points="-0.7312379407332036,-4.758120398440881e-2
-0.7312379407332036,-7.75812039844088e-2"/>
    </g>
    <g transform="rotate(-90.0, -0.7312379407332036, -0.2069438429334487)">
      <polyline points="-0.7312379407332036,-0.19194384293344868
-0.7312379407332036,-0.2219438429334487"/>
    </g>
    <g transform="rotate(-90.0, -0.7312379407332036, -0.3513064818824887)">
      <polyline points="-0.7312379407332036,-0.3363064818824887
-0.7312379407332036,-0.3663064818824887"/>
    </g>
    <g transform="rotate(-90.0, -0.7312379407332036, -0.4956691208315287)">
      <polyline points="-0.7312379407332036,-0.4806691208315287
-0.7312379407332036,-0.5106691208315287"/>
    </g>
  </g>
  <g stroke-opacity="0.0" fill-opacity="0.5" stroke="#666666" stroke-width="0.0" fill="#5f0391">
    <rect height="0.8661758336942399" width="2.8798249066456227e-3" x="-0.7254782909199122" y="-0.4956691208315287"/>
  </g>
  <g stroke-opacity="0.5" stroke="#ac0505" stroke-width="2.0e-3" fill="none">
    <polyline points="-0.7145349562746587,-6.25812039844088e-2
0.4350911464582954,-6.25812039844088e-2"/>
  </g>
  <g stroke-opacity="0.5" stroke="#4b2282" stroke-width="7.0e-3" fill="none">
    <polyline points="-0.7145349562746587,-6.246932894522261e-2
-0.7122310963493421,-6.198959029854956e-2
-0.7099272364240256,-6.2201829800691555e-2
-0.707623376498709,-6.261700405007264e-2
-0.7053195165733925,-6.27104027557871e-2
-0.703015656648076,-6.268659824743683e-2
-0.7007117967227594,-6.28421762326622e-2
-0.6984079367974428,-6.345070705785627e-2
-0.6961040768721263,-6.33622208533916e-2
-0.6938002169468098,-6.30939698258336e-2
-0.6914963570214933,-6.286180121740337e-2
-0.6891924970961767,-6.281982953212228e-2
-0.6868886371708601,-6.286958183492075e-2
-0.6845847772455436,-6.233861263486695e-2
-0.6822809173202271,-6.2404079033198445e-2
-0.6799770573949105,-6.234603130439886e-2
-0.677673197469594,-6.143555403324252e-2
-0.6753693375442774,-6.072562246607294e-2
-0.673065477618961,-6.178685371948578e-2
-0.6707616176936444,-6.1196860542518494e-2
-0.6684577577683278,-6.115984673477015e-2
-0.6661538978430113,-6.1722670498865595e-2
-0.6638500379176948,-6.095078223597017e-2
-0.6615461779923782,-6.1482122460680966e-2
-0.6592423180670617,-6.1950230972817155e-2
-0.6569384581417451,-6.222776428624588e-2
-0.6546345982164286,-6.1446012282657225e-2
-0.6523307382911121,-6.162145313159151e-2
-0.6500268783657955,-6.226636563039245e-2
-0.647723018440479,-6.208180368344329e-2
-0.6454191585151624,-6.2402808569941626e-2
-0.6431152985898458,-6.230714319136943e-2
-0.6408114386645294,-6.261232434460273e-2
-0.6385075787392128,-6.299439962402986e-2
-0.6362037188138963,-6.300416281429688e-2
-0.6338998588885797,-6.27756808430251e-2
-0.6315959989632631,-6.2456422872248174e-2
-0.6292921390379467,-6.246456082339902e-2
-0.6269882791126301,-6.198422467218523e-2
-0.6246844191873135,-6.2079560553516155e-2
-0.622380559261997,-6.247861748038086e-2
-0.6200766993366804,-6.252383786822313e-2
-0.617772839411364,-6.2229863380623085e-2
-0.6154689794860474,-6.233889295227435e-2
-0.6131651195607308,-6.2089833641328696e-2
-0.6108612596354144,-6.2032493618190854e-2
-0.6085573997100978,-6.251860653099595e-2
-0.6062535397847812,-6.264641822721007e-2
-0.6039496798594648,-6.263362833718134e-2
-0.6016458199341481,-6.297950448212619e-2
-0.5993419600088317,-6.32974928611938e-2
-0.5970381000835151,-6.332386114909538e-2
-0.5947342401581985,-6.3319125800393e-2
-0.592430380232882,-6.303467365330839e-2
-0.5901265203075654,-6.315874899816876e-2
-0.587822660382249,-6.309946896471408e-2
-0.5855188004569324,-6.297893275524535e-2
-0.5832149405316158,-6.322494937113576e-2
-0.5809110806062993,-6.308009363488654e-2
-0.5786072206809827,-6.317256740354482e-2
-0.5763033607556662,-6.30705834058708e-2
-0.5739995008303497,-6.296154823017841e-2
-0.5716956409050331,-6.252324195113024e-2
-0.5693917809797165,-6.298140935638019e-2
-0.5670879210544,-6.271283000424444e-2
-0.5647840611290835,-6.309562116433798e-2
-0.562480201203767,-6.323149161744812e-2
-0.5601763412784504,-6.322496608415284e-2
-0.5578724813531338,-6.350036431421457e-2
-0.5555686214278173,-6.342966539992578e-2
-0.5532647615025008,-6.350020033778547e-2
-0.5509609015771842,-6.349353619645903e-2
-0.5486570416518677,-6.351135250797724e-2
-0.5463531817265511,-6.332125485723483e-2
-0.5440493218012346,-6.33737295558987e-2
-0.5417454618759181,-6.329852030977756e-2
-0.5394416019506015,-6.318700891027218e-2
-0.537137742025285,-6.301214968778823e-2
-0.5348338820999685,-6.305277379072505e-2
-0.5325300221746518,-6.279959314731864e-2
-0.5302261622493354,-6.285623459932121e-2
-0.5279223023240188,-6.23410513674405e-2
-0.5256184423987023,-6.2433256116329106e-2
-0.5233145824733857,-6.2126011720969876e-2
-0.5210107225480691,-6.237320634461141e-2
-0.5187068626227527,-6.241103104447454e-2
-0.516403002697436,-6.253051862279535e-2
-0.5140991427721195,-6.2353270791096094e-2
-0.5117952828468031,-6.267542864769249e-2
-0.5094914229214865,-6.297563805642403e-2
-0.50718756299617,-6.327255186987168e-2
-0.5048837030708534,-6.336324628444678e-2
-0.5025798431455368,-6.306926205828078e-2
-0.5002759832202204,-6.335865035726773e-2
-0.4979721232949038,-6.335935839126283e-2
-0.49566826336958725,-6.328446881278615e-2
-0.4933644034442707,-6.339236437726081e-2
-0.4910605435189542,-6.343003555025417e-2
-0.4887566835936376,-6.324679631533048e-2
-0.4864528236683211,-6.318023947381146e-2
-0.48414896374300453,-6.321699242830381e-2
-0.481845103817688,-6.335706138217867e-2
-0.47954124389237146,-6.364289288612435e-2
-0.4772373839670549,-6.34832229235518e-2
-0.47493352404173844,-6.320365632827729e-2
-0.47262966411642193,-6.296499252761512e-2
-0.47032580419110537,-6.312232858118805e-2
-0.4680219442657888,-6.305828739637642e-2
-0.46571808434047224,-6.321214783911122e-2
-0.46341422441515573,-6.334774719723402e-2
-0.46111036448983916,-6.343681497367015e-2
-0.45880650456452265,-6.349586556735509e-2
-0.4565026446392061,-6.344215097600281e-2
-0.4541987847138896,-6.334881070770826e-2
-0.45189492478857296,-6.305433175255692e-2
-0.44959106486325645,-6.288510994960217e-2
-0.44728720493793994,-6.310158408047861e-2
-0.4449833450126234,-6.279886066052753e-2
-0.4426794850873068,-6.307498106518461e-2
-0.4403756251619903,-6.31706071456033e-2
-0.4380717652366738,-6.322917183896992e-2
-0.4357679053113572,-6.327187714580362e-2
-0.43346404538604066,-6.322393898785283e-2
-0.4311601854607241,-6.313157509985068e-2
-0.4288563255354076,-6.332710213236925e-2
-0.426552465610091,-6.356365751309401e-2
-0.4242486056847745,-6.352574280892032e-2
-0.42194474575945795,-6.368160694246161e-2
-0.4196408858341414,-6.347138679010622e-2
-0.4173370259088248,-6.343306987862507e-2
-0.4150331659835083,-6.33324390974952e-2
-0.4127293060581918,-6.31946019120102e-2
-0.41042544613287524,-6.303146961909256e-2
-0.4081215862075587,-6.29280360827611e-2
-0.4058177262822421,-6.29802484270553e-2
-0.4035138663569256,-6.309662945587813e-2
-0.40121000643160903,-6.308419570375201e-2
-0.3989061465062925,-6.325013098249321e-2
-0.39660228658097596,-6.322742406090787e-2
-0.39429842665565945,-6.299324555961983e-2
-0.3919945667303429,-6.316760014904277e-2
-0.3896907068050263,-6.318415576866632e-2
-0.3873868468797098,-6.343498878985332e-2
-0.38508298695439325,-6.338059139794916e-2
-0.3827791270290768,-6.321544575553661e-2
-0.38047526710376023,-6.313717889113568e-2
-0.37817140717844366,-6.298983750635845e-2
-0.37586754725312715,-6.307032473610197e-2
-0.37356368732781053,-6.304594528929008e-2
-0.371259827402494,-6.315505689932832e-2
-0.3689559674771775,-6.31125640911766e-2
-0.36665210755186095,-6.311226460642227e-2
-0.3643482476265444,-6.278615558837464e-2
-0.3620443877012279,-6.257075893149588e-2
-0.35974052777591137,-6.255658154600985e-2
-0.3574366678505948,-6.250505017232932e-2
-0.35513280792527824,-6.129301323245773e-2
-0.35282894799996173,-6.0599479548691604e-2
-0.3505250880746452,-6.12209264828979e-2
-0.34822122814932865,-6.1074718211988066e-2
-0.3459173682240121,-6.1921174366234455e-2
-0.3436135082986956,-6.194457478448334e-2
-0.34130964837337896,-6.1452516190715456e-2
-0.3390057884480624,-6.14954156378803e-2
-0.3367019285227459,-6.139386124120949e-2
-0.3343980685974294,-6.125374556917862e-2
-0.3320942086721128,-6.0192121076282024e-2
-0.32979034874679625,-6.0972073425779594e-2
-0.32748648882147974,-6.042445960126763e-2
-0.32518262889616323,-6.029618811213011e-2
-0.32287876897084666,-6.096352422100959e-2
-0.3205749090455301,-6.142976765648045e-2
-0.3182710491202136,-6.186412941729991e-2
-0.3159671891948971,-6.1670841288425926e-2
-0.3136633292695805,-6.1916720537086745e-2
-0.31135946934426395,-6.217472923026712e-2
-0.30905560941894744,-6.295538009230262e-2
-0.30675174949363093,-6.284547062660817e-2
-0.30444788956831437,-6.249710355001015e-2
-0.3021440296429978,-6.178220531174172e-2
-0.2998401697176813,-6.1767859601613795e-2
-0.2975363097923648,-6.153417136798134e-2
-0.2952324498670482,-6.196481094090578e-2
-0.29292858994173165,-6.207515981604461e-2
-0.29062473001641514,-6.149494541240319e-2
-0.28832087009109864,-6.0890462004865586e-2
-0.28601701016578207,-6.108179396263258e-2
-0.28371315024046545,-6.091955504491686e-2
-0.28140929031514894,-6.155299619291732e-2
-0.2791054303898324,-6.1720522741731676e-2
-0.2768015704645158,-6.258452398601311e-2
-0.2744977105391993,-6.250497537514521e-2
-0.2721938506138828,-6.280439511216962e-2
-0.26988999068856623,-6.318942613319078e-2
-0.26758613076324966,-6.196537062080454e-2
-0.26528227083793315,-6.194049923884326e-2
-0.26297841091261664,-6.11220956375742e-2
-0.2606745509873001,-6.1256499081419835e-2
-0.2583706910619835,-6.130827736357913e-2
-0.256066831136667,-6.156473064815671e-2
-0.2537629712113504,-6.1607117607642814e-2
-0.2514591112860338,-6.096196041816182e-2
-0.24915525136071737,-6.0289839642377996e-2
-0.2468513914354008,-6.040471311237072e-2
-0.24454753151008424,-5.995858495990891e-2
-0.24224367158476767,-5.952365636964807e-2
-0.2399398116594511,-5.894030985648746e-2
-0.23763595173413465,-5.815549070872639e-2
-0.2353320918088182,-6.00598425898502e-2
-0.23302823188350164,-6.048791277667753e-2
-0.23072437195818507,-6.0545353149635495e-2
-0.2284205120328685,-6.094888148379085e-2
-0.22611665210755194,-6.107448899842671e-2
-0.22381279218223538,-6.024613577555926e-2
-0.2215089322569188,-6.157584913689407e-2
-0.21920507233160236,-6.187900179395067e-2
-0.2169012124062858,-6.226494026291918e-2
-0.21459735248096923,-6.2429838279659866e-2
-0.21229349255565277,-6.260197959575686e-2
-0.2099896326303362,-6.259560379362894e-2
-0.20768577270501964,-6.240258508380159e-2
-0.20538191277970308,-6.280024639065651e-2
-0.20307805285438651,-6.287037237284177e-2
-0.20077419292907006,-6.313214043946935e-2
-0.1984703330037535,-6.358326926771796e-2
-0.19616647307843693,-6.301136649718664e-2
-0.19386261315312037,-6.307005496382179e-2
-0.1915587532278038,-6.309573530052026e-2
-0.18925489330248724,-6.337761646831952e-2
-0.18695103337717067,-6.305126513939707e-2
-0.18464717345185422,-6.297504566914458e-2
-0.18234331352653765,-6.351529106125198e-2
-0.1800394536012211,-6.37795533327492e-2
-0.17773559367590464,-6.375211790812085e-2
-0.17543173375058807,-6.39383792349828e-2
-0.1731278738252714,-6.404046678488429e-2
-0.17082401389995483,-6.388676998205056e-2
-0.16852015397463838,-6.348217966331615e-2
-0.1662162940493218,-6.346195363898799e-2
-0.16391243412400536,-6.344393587818631e-2
-0.1616085741986888,-6.386291460848748e-2
-0.15930471427337234,-6.390796823272293e-2
-0.15700085434805577,-6.374670107039881e-2
-0.1546969944227392,-6.407792499276033e-2
-0.15239313449742264,-6.405739525194543e-2
-0.15008927457210608,-6.404788694776997e-2
-0.14778541464678963,-6.38489338467273e-2
-0.14548155472147306,-6.401528641180498e-2
-0.1431776947961565,-6.398852807903055e-2
-0.14087383487083993,-6.389092032569588e-2
-0.13856997494552337,-6.380698405114393e-2
-0.1362661150202068,-6.36454013753508e-2
-0.13396225509489024,-6.38393087389646e-2
-0.13165839516957378,-6.3638436789344e-2
-0.12935453524425722,-6.354580520446773e-2
-0.12705067531894065,-6.326283459774529e-2
-0.1247468153936242,-6.29339246192181e-2
-0.12244295546830763,-6.283876363229923e-2
-0.12013909554299107,-6.335444027455983e-2
-0.1178352356176745,-6.34226313235462e-2
-0.11553137569235794,-6.363030636834732e-2
-0.11322751576704149,-6.354772375095097e-2
-0.11092365584172492,-6.367873760444875e-2
-0.10861979591640836,-6.375736792571207e-2
-0.10631593599109179,-6.369516539965736e-2
-0.10401207606577523,-6.353499714059974e-2
-0.10170821614045866,-6.387527688449979e-2
-9.94043562151421e-2,-6.312481410656434e-2
-9.710049628982564e-2,-6.306745205355369e-2
-9.479663636450908e-2,-6.33030124992291e-2
-9.249277643919251e-2,-6.309893811779965e-2
-9.018891651387606e-2,-6.320333813713619e-2
-8.78850565885595e-2,-6.341537534101371e-2
-8.558119666324293e-2,-6.378792750522966e-2
-8.327733673792637e-2,-6.372977864094331e-2
-8.09734768126098e-2,-6.37506030871996e-2
-7.866961688729335e-2,-6.376811243888114e-2
-7.636575696197667e-2,-6.387549479553811e-2
-7.406189703666022e-2,-6.384990921202183e-2
-7.175803711134365e-2,-6.357054339701762e-2
-6.945417718602709e-2,-6.364698454987927e-2
-6.715031726071052e-2,-6.35963144268401e-2
-6.484645733539396e-2,-6.378304253817957e-2
-6.25425974100775e-2,-6.370209166282925e-2
-6.023873748476094e-2,-6.366571563492118e-2
-5.7934877559444375e-2,-6.353089168736814e-2
-5.563101763412792e-2,-6.354125099829033e-2
-5.332715770881136e-2,-6.353067236244214e-2
-5.10232977834949e-2,-6.380043208249864e-2
-4.871943785817834e-2,-6.366286023485057e-2
-4.641557793286177e-2,-6.35968175909567e-2
-4.411171800754521e-2,-6.371512522489153e-2
-4.1807858082228755e-2,-6.369830411325195e-2
-3.950399815691219e-2,-6.367799507801719e-2
-3.7200138231595625e-2,-6.335216683527678e-2
-3.489627830627917e-2,-6.323591239158455e-2
-3.259241838096261e-2,-6.355338660461585e-2
-3.0288558455646042e-2,-6.334318627140201e-2
-2.7984698530329366e-2,-6.26941399489166e-2
-2.5680838605012912e-2,-6.262858872621357e-2
-2.3376978679696347e-2,-6.251349417689156e-2
-2.1073118754379783e-2,-6.265539410906407e-2
-1.876925882906333e-2,-6.175403819475955e-2
-1.6465398903746764e-2,-6.209422046168489e-2
-1.41615389784302e-2,-6.233337015441387e-2
-1.1857679053113634e-2,-6.266959366587588e-2
-9.55381912779707e-3,-6.245201372549025e-2
-7.249959202480616e-3,-6.221128790085717e-2
-4.946099277164051e-3,-6.253865564445382e-2
-2.6422393518474863e-3,-6.243792064320908e-2
-3.383794265310325e-4,-6.200879054150643e-2
1.9654804987856433e-3,-6.208690560500241e-2
4.269340424102097e-3,-6.1805407784870425e-2
6.573200349418773e-3,-6.159193317937606e-2
8.877060274735227e-3,-6.171844213395228e-2
1.1180920200051792e-2,-6.1280119933167065e-2
1.3484780125368245e-2,-6.124609288717309e-2
1.578864005068481e-2,-6.207974998983379e-2
1.8092499976001264e-2,-6.239778714475541e-2
2.039635990131794e-2,-6.26275458955613e-2
2.2700219826634616e-2,-6.300219491675907e-2
2.500407975195107e-2,-6.314927917016544e-2
2.7307939677267634e-2,-6.310868680669202e-2
2.9611799602584088e-2,-6.300917658124705e-2
3.191565952790065e-2,-6.313560051105194e-2
3.4219519453217107e-2,-6.305020511181625e-2
3.652337937853378e-2,-6.306073500954945e-2
3.8827239303850236e-2,-6.338554917601225e-2
4.113109922916691e-2,-6.345313627431781e-2
4.3434959154483366e-2,-6.374880372563596e-2
4.573881907979993e-2,-6.364595402903905e-2
4.8042679005116384e-2,-6.353141551717034e-2
5.034653893043295e-2,-6.314236022443098e-2
5.2650398855749625e-2,-6.307037904311652e-2
5.495425878106608e-2,-6.318380408405644e-2
5.7258118706382755e-2,-6.336065419151471e-2
5.956197863169921e-2,-6.35965025428179e-2
6.186583855701577e-2,-6.365123508996617e-2
6.416969848233223e-2,-6.387140577800643e-2
6.647355840764879e-2,-6.37439795555188e-2
6.877741833296525e-2,-6.351446072326206e-2
7.108127825828192e-2,-6.351303959101118e-2
7.338513818359838e-2,-6.36283030147774e-2
7.568899810891505e-2,-6.36585188255826e-2
7.79928580342315e-2,-6.376988696292885e-2
8.029671795954807e-2,-6.371823765581319e-2
8.260057788486463e-2,-6.35416955843594e-2
8.490443781018109e-2,-6.325987714616321e-2
8.720829773549776e-2,-6.335546573272344e-2
8.951215766081422e-2,-6.30937849522506e-2
9.18160175861309e-2,-6.317093731036771e-2
9.411987751144713e-2,-6.338836929188074e-2
9.64237374367638e-2,-6.35166711501457e-2
9.872759736208037e-2,-6.328177483093622e-2
0.10103145728739682,-6.35122694142376e-2
0.10333531721271338,-6.340894972984701e-2
0.10563917713802984,-6.327550571301255e-2
0.10794303706334651,-6.284364274882659e-2
0.11024689698866297,-6.2498524733842986e-2
0.11255075691397964,-6.223269439417556e-2
0.1148546168392961,-6.1145788999404815e-2
0.11715847676461266,-6.1698948907565554e-2
0.11946233668992912,-6.177164226862808e-2
0.12176619661524568,-6.2488705567319336e-2
0.12407005654056213,-6.22528030852878e-2
0.1263739164658788,-6.181963345491881e-2
0.12867777639119526,-6.240183893237394e-2
0.13098163631651194,-6.1334950363713836e-2
0.1332854962418285,-6.1486089716017545e-2
0.13558935616714496,-6.205798514230898e-2
0.13789321609246152,-6.251809567123201e-2
0.14019707601777798,-6.2234344456884805e-2
0.14250093594309465,-6.254777971880376e-2
0.1448047958684111,-6.253114365177292e-2
0.14710865579372778,-6.158465292451454e-2
0.14941251571904424,-6.2027780220942796e-2
0.1517163756443608,-6.1939112935202045e-2
0.15402023556967726,-6.220589204775229e-2
0.15632409549499382,-6.267920928881854e-2
0.15862795542031027,-6.269761733563683e-2
0.16093181534562695,-6.244205013578552e-2
0.16323567527094363,-6.283809420945219e-2
0.16553953519626008,-6.329224951480994e-2
0.16784339512157664,-6.329021274007418e-2
0.1701472550468931,-6.325204082271085e-2
0.17245111497220966,-6.323078369046908e-2
0.17475497489752612,-6.345871454230367e-2
0.1770588348228428,-6.351923216579614e-2
0.17936269474815925,-6.344709224217826e-2
0.18166655467347592,-6.329157226376236e-2
0.18397041459879238,-6.334964229680207e-2
0.18627427452410894,-6.332436058765367e-2
0.1885781344494254,-6.328871832393412e-2
0.19088199437474196,-6.307740157991037e-2
0.1931858543000584,-6.304964073357766e-2
0.1954897142253751,-6.272172036806312e-2
0.19779357415069176,-6.293656132335423e-2
0.20009743407600822,-6.283140306874258e-2
0.20240129400132478,-6.26265249462884e-2
0.20470515392664124,-6.28062846960512e-2
0.2070090138519578,-6.2349210970204516e-2
0.20931287377727426,-6.170576964122676e-2
0.21161673370259093,-6.2037416286496394e-2
0.21392059362790738,-6.257473240271372e-2
0.21622445355322406,-6.241292303563384e-2
0.21852831347854051,-6.18542621594671e-2
0.22083217340385708,-6.221769161653368e-2
0.22313603332917353,-6.246643301349819e-2
0.2254398932544901,-6.286469848000731e-2
0.22774375317980677,-6.280076226015341e-2
0.23004761310512323,-6.314738167007561e-2
0.2323514730304399,-6.304751723955326e-2
0.23465533295575636,-6.312418806290898e-2
0.23695919288107292,-6.295607438841266e-2
0.23926305280638938,-6.31846053843711e-2
0.24156691273170594,-6.302629599971876e-2
0.2438707726570224,-6.310700879330078e-2
0.24617463258233885,-6.315042657603542e-2
0.24847849250765552,-6.326891787708566e-2
0.250782352432972,-6.343540273086612e-2
0.25308621235828865,-6.336372300596216e-2
0.2553900722836051,-6.344209977904736e-2
0.2576939322089218,-6.329138842468451e-2
0.259997792134238,-6.360175485585229e-2
0.2623016520595547,-6.368408932375313e-2
0.26460551198487114,-6.358784942664553e-2
0.2669093719101878,-6.356383901019635e-2
0.2692132318355043,-6.361330778478191e-2
0.27151709176082095,-6.365420957398737e-2
0.2738209516861374,-6.353194401451279e-2
0.27612481161145386,-6.354148125724313e-2
0.27842867153677053,-6.352013519442767e-2
0.280732531462087,-6.350431726876926e-2
0.28303639138740366,-6.373264298867232e-2
0.2853402513127201,-6.369461376610042e-2
0.2876441112380368,-6.361957237273885e-2
0.28994797116335325,-6.343493412069656e-2
0.2922518310886697,-6.333638557414012e-2
0.2945556910139864,-6.337760661878267e-2
0.29685955093930283,-6.360661261244172e-2
0.2991634108646193,-6.363487459241524e-2
0.30146727078993596,-6.373156593962537e-2
0.3037711307152524,-6.353346122267278e-2
0.3060749906405691,-6.317489945856458e-2
0.30837885056588554,-6.290213916521536e-2
0.3106827104912022,-6.311713594766666e-2
0.3129865704165187,-6.314518963935556e-2
0.3152904303418351,-6.344628669547114e-2
0.3175942902671518,-6.32901125801687e-2
0.31989815019246826,-6.321563650190365e-2
0.32220201011778493,-6.32895821767725e-2
0.3245058700431014,-6.356184069301773e-2
0.32680972996841806,-6.351689903553404e-2
0.3291135898937343,-6.372526933445488e-2
0.33141744981905097,-6.368197478360749e-2
0.3337213097443674,-6.36134772918533e-2
0.3360251696696841,-6.37216047849537e-2
0.3383290295950008,-6.384073900604081e-2
0.34063288952031723,-6.38107391278182e-2
0.3429367494456339,-6.374486560170511e-2
0.34524060937095014,-6.386901924549848e-2
0.3475444692962668,-6.380863422527039e-2
0.34984832922158327,-6.354399232796493e-2
0.35215218914689994,-6.360265712588642e-2
0.3544560490722164,-6.384990616082842e-2
0.35675990899753307,-6.353710155717673e-2
0.3590637689228495,-6.361733305716011e-2
0.361367628848166,-6.346565092009782e-2
0.36367148877348265,-6.359888925623747e-2
0.3659753486987991,-6.378631400504764e-2
0.36827920862411556,-6.362640954810617e-2
0.37058306854943224,-6.382362817795217e-2
0.3728869284747489,-6.371009476281275e-2
0.37519078840006537,-6.37221287517915e-2
0.3774946483253818,-6.396200361070015e-2
0.3797985082506985,-6.403075175359885e-2
0.38210236817601495,-6.386910258080825e-2
0.3844062281013314,-6.381749113020319e-2
0.3867100880266481,-6.379842024762061e-2
0.38901394795196453,-6.341092305751539e-2
0.391317807877281,-6.278261297376897e-2
0.39362166780259766,-6.314644136863146e-2
0.3959255277279141,-6.308611019059895e-2
0.39822938765323057,-6.317614037711561e-2
0.40053324757854725,-6.2488078514620016e-2
0.4028371075038639,-6.276194738600416e-2
0.40514096742918015,-6.329742640248415e-2
0.40744482735449705,-6.366593557767208e-2
0.4097486872798133,-6.373226706855417e-2
0.4120525472051302,-6.348174460359735e-2
0.4143564071304464,-6.370043367519895e-2
0.4166602670557631,-6.37065639673784e-2
0.4189641269810793,-6.388229874090579e-2
0.4212679869063962,-6.376110464550588e-2
0.42357184683171245,-6.376979494800572e-2
0.42587570675702935,-6.360721507405953e-2
0.4281795666823456,-6.372591685136919e-2
0.43048342660766226,-6.353278587696543e-2
0.4327872865329787,-6.31013858568864e-2
0.4350911464582954,-6.182630601636918e-2"/>
  </g>
  <g stroke-opacity="0.5" stroke="#431712" stroke-width="7.0e-3" fill="none">
    <polyline points="-0.7145349562746587,-6.297980705350281e-2
-0.7122310963493421,-6.287884396659738e-2
-0.7099272364240256,-6.291247010065737e-2
-0.707623376498709,-6.298848029262338e-2
-0.7053195165733925,-6.300346107467225e-2
-0.703015656648076,-6.299575845509553e-2
-0.7007117967227594,-6.302379339913822e-2
-0.6984079367974428,-6.314371594084145e-2
-0.6961040768721263,-6.312893071598957e-2
-0.6938002169468098,-6.307743215876449e-2
-0.6914963570214933,-6.303105301341183e-2
-0.6891924970961767,-6.302092486696187e-2
-0.6868886371708601,-6.302883675611959e-2
-0.6845847772455436,-6.292100642621268e-2
-0.6822809173202271,-6.292832422496919e-2
-0.6799770573949105,-6.291151559331298e-2
-0.677673197469594,-6.27237558364101e-2
-0.6753693375442774,-6.256870431394501e-2
-0.673065477618961,-6.276315173368785e-2
-0.6707616176936444,-6.263511497065244e-2
-0.6684577577683278,-6.261340235516066e-2
-0.6661538978430113,-6.271218774210785e-2
-0.6638500379176948,-6.25472283496703e-2
-0.6615461779923782,-6.263844500906612e-2
-0.6592423180670617,-6.272115743878626e-2
-0.6569384581417451,-6.276925528345834e-2
-0.6546345982164286,-6.260695518482284e-2
-0.6523307382911121,-6.263082539758391e-2
-0.6500268783657955,-6.275041658730518e-2
-0.647723018440479,-6.270864070349158e-2
-0.6454191585151624,-6.276681672206097e-2
-0.6431152985898458,-6.274405472975719e-2
-0.6408114386645294,-6.280084071329328e-2
-0.6385075787392128,-6.287530567348198e-2
-0.6362037188138963,-6.28783792915164e-2
-0.6338998588885797,-6.28339188145044e-2
-0.6315959989632631,-6.276941797791724e-2
-0.6292921390379467,-6.276794663318996e-2
-0.6269882791126301,-6.266863434618708e-2
-0.6246844191873135,-6.26810437592984e-2
-0.622380559261997,-6.275514390965675e-2
-0.6200766993366804,-6.27614571390056e-2
-0.617772839411364,-6.270019689794348e-2
-0.6154689794860474,-6.271742610388342e-2
-0.6131651195607308,-6.26637443680862e-2
-0.6108612596354144,-6.264659149717677e-2
-0.6085573997100978,-6.273804215657086e-2
-0.6062535397847812,-6.276143866227946e-2
-0.6039496798594648,-6.275771982457368e-2
-0.6016458199341481,-6.282561066588466e-2
-0.5993419600088317,-6.289055633001384e-2
-0.5970381000835151,-6.289979665103584e-2
-0.5947342401581985,-6.290300093454859e-2
-0.592430380232882,-6.285020646965245e-2
-0.5901265203075654,-6.287679950845004e-2
-0.587822660382249,-6.28676700871299e-2
-0.5855188004569324,-6.284577583045414e-2
-0.5832149405316158,-6.289630074504116e-2
-0.5809110806062993,-6.287047928735434e-2
-0.5786072206809827,-6.289102160563431e-2
-0.5763033607556662,-6.287330845169936e-2
-0.5739995008303497,-6.285335077843335e-2
-0.5716956409050331,-6.276658204558272e-2
-0.5693917809797165,-6.285590899045834e-2
-0.5670879210544,-6.280329374523097e-2
-0.5647840611290835,-6.287904199551242e-2
-0.562480201203767,-6.290835209326084e-2
-0.5601763412784504,-6.291016570778063e-2
-0.5578724813531338,-6.296847112602066e-2
-0.5555686214278173,-6.295946098141147e-2
-0.5532647615025008,-6.297821949559124e-2
-0.5509609015771842,-6.298197619477608e-2
-0.5486570416518677,-6.299055648325824e-2
-0.5463531817265511,-6.29573715178321e-2
-0.5440493218012346,-6.297144246334663e-2
-0.5417454618759181,-6.29602149557087e-2
-0.5394416019506015,-6.294108049071889e-2
-0.537137742025285,-6.290839249843683e-2
-0.5348338820999685,-6.291748631572258e-2
-0.5325300221746518,-6.2868166961777e-2
-0.5302261622493354,-6.287874469219157e-2
-0.5279223023240188,-6.277592224574513e-2
-0.5256184423987023,-6.278989999439266e-2
-0.5233145824733857,-6.272533704349403e-2
-0.5210107225480691,-6.276844268375448e-2
-0.5187068626227527,-6.277205607464142e-2
-0.516403002697436,-6.279229644187934e-2
-0.5140991427721195,-6.275433819241161e-2
-0.5117952828468031,-6.281466091130039e-2
-0.5094914229214865,-6.287334744548334e-2
-0.50718756299617,-6.293386170540194e-2
-0.5048837030708534,-6.295537531271922e-2
-0.5025798431455368,-6.290026197165133e-2
-0.5002759832202204,-6.29599638731968e-2
-0.4979721232949038,-6.296397826190503e-2
-0.49566826336958725,-6.295274630260461e-2
-0.4933644034442707,-6.297766524968296e-2
-0.4910605435189542,-6.298929062704395e-2
-0.4887566835936376,-6.295665309646392e-2
-0.4864528236683211,-6.294606884900478e-2
-0.48414896374300453,-6.295569017178071e-2
-0.481845103817688,-6.298637725273215e-2
-0.47954124389237146,-6.304769062744509e-2
-0.4772373839670549,-6.302115454027002e-2
-0.47493352404173844,-6.296928711821626e-2
-0.47262966411642193,-6.292377664981186e-2
-0.47032580419110537,-6.295553812079124e-2
-0.4680219442657888,-6.29443006645819e-2
-0.46571808434047224,-6.297615040444782e-2
-0.46341422441515573,-6.300564601603209e-2
-0.46111036448983916,-6.302689632537917e-2
-0.45880650456452265,-6.304279850843841e-2
-0.4565026446392061,-6.303631651810082e-2
-0.4541987847138896,-6.30213877467708e-2
-0.45189492478857296,-6.296551011558438e-2
-0.44959106486325645,-6.293271499648612e-2
-0.44728720493793994,-6.297518167331373e-2
-0.4449833450126234,-6.291618255701947e-2
-0.4426794850873068,-6.29697858152789e-2
-0.4403756251619903,-6.298985561652337e-2
-0.4380717652366738,-6.300328346811035e-2
-0.4357679053113572,-6.301398881832243e-2
-0.43346404538604066,-6.300681219426585e-2
-0.4311601854607241,-6.299036898422161e-2
-0.4288563255354076,-6.303086886258513e-2
-0.426552465610091,-6.308147781395979e-2
-0.4242486056847745,-6.307844526967488e-2
-0.42194474575945795,-6.311446319493796e-2
-0.4196408858341414,-6.307717575277438e-2
-0.4173370259088248,-6.307321470222793e-2
-0.4150331659835083,-6.305639072449398e-2
-0.4127293060581918,-6.303142942792561e-2
-0.41042544613287524,-6.300056344870453e-2
-0.4081215862075587,-6.298040561818063e-2
-0.4058177262822421,-6.299011357561968e-2
-0.4035138663569256,-6.301297273862405e-2
-0.40121000643160903,-6.301125016692832e-2
-0.3989061465062925,-6.304496276752947e-2
-0.39660228658097596,-6.304233741467602e-2
-0.39429842665565945,-6.299747383039545e-2
-0.3919945667303429,-6.303195278994467e-2
-0.3896907068050263,-6.303650119519921e-2
-0.3873868468797098,-6.30882654119741e-2
-0.38508298695439325,-6.308057037889281e-2
-0.3827791270290768,-6.305022561911833e-2
-0.38047526710376023,-6.303614741352626e-2
-0.37817140717844366,-6.30078632677058e-2
-0.37586754725312715,-6.302352191480298e-2
-0.37356368732781053,-6.301907327698242e-2
-0.371259827402494,-6.304092642750303e-2
-0.3689559674771775,-6.303349459330909e-2
-0.36665210755186095,-6.303412545907139e-2
-0.3643482476265444,-6.297044609458413e-2
-0.3620443877012279,-6.292654756634208e-2
-0.35974052777591137,-6.292025301995163e-2
-0.3574366678505948,-6.290662454035878e-2
-0.35513280792527824,-6.266163471172914e-2
-0.35282894799996173,-6.251014298554736e-2
-0.3505250880746452,-6.261319776291963e-2
-0.34822122814932865,-6.25699504743723e-2
-0.3459173682240121,-6.272415568753953e-2
-0.3436135082986956,-6.272089974065442e-2
-0.34130964837337896,-6.261456943858545e-2
-0.3390057884480624,-6.261161904726664e-2
-0.3367019285227459,-6.25801015497901e-2
-0.3343980685974294,-6.254006246000632e-2
-0.3320942086721128,-6.231326014074223e-2
-0.32979034874679625,-6.2449868970511746e-2
-0.32748648882147974,-6.232450106703202e-2
-0.32518262889616323,-6.22793450870085e-2
-0.32287876897084666,-6.239514789197542e-2
-0.3205749090455301,-6.247521629775932e-2
-0.3182710491202136,-6.25523187783873e-2
-0.3159671891948971,-6.250674505122689e-2
-0.3136633292695805,-6.254791368916846e-2
-0.31135946934426395,-6.25933954762603e-2
-0.30905560941894744,-6.27450181713658e-2
-0.30675174949363093,-6.27252339216311e-2
-0.30444788956831437,-6.265700363862714e-2
-0.3021440296429978,-6.25123499480792e-2
-0.2998401697176813,-6.25023071205335e-2
-0.2975363097923648,-6.24481248159221e-2
-0.2952324498670482,-6.252572013201652e-2
-0.29292858994173165,-6.254233958888211e-2
-0.29062473001641514,-6.2421311509645805e-2
-0.28832087009109864,-6.229031875690605e-2
-0.28601701016578207,-6.231524089619611e-2
-0.28371315024046545,-6.227028672460577e-2
-0.28140929031514894,-6.238500806665925e-2
-0.2791054303898324,-6.2410534123294004e-2
-0.2768015704645158,-6.257652018466409e-2
-0.2744977105391993,-6.256077042688635e-2
-0.2721938506138828,-6.261978647779465e-2
-0.26988999068856623,-6.269801948390685e-2
-0.26758613076324966,-6.245913170811357e-2
-0.26528227083793315,-6.244933627784677e-2
-0.26297841091261664,-6.228002478394379e-2
-0.2606745509873001,-6.229577453914159e-2
-0.2583706910619835,-6.2296051170222744e-2
-0.256066831136667,-6.233799568659981e-2
-0.2537629712113504,-6.23389805641591e-2
-0.2514591112860338,-6.2202037423154e-2
-0.24915525136071737,-6.205397459255202e-2
-0.2468513914354008,-6.205988815056562e-2
-0.24454753151008424,-6.195285380003901e-2
-0.24224367158476767,-6.1844119549572474e-2
-0.2399398116594511,-6.170098803586199e-2
-0.23763595173413465,-6.1510962972391336e-2
-0.2353320918088182,-6.1872250001206996e-2
-0.23302823188350164,-6.1941002170041504e-2
-0.23072437195818507,-6.1938433286919614e-2
-0.2284205120328685,-6.200599246547944e-2
-0.22611665210755194,-6.202090820525885e-2
-0.22381279218223538,-6.184537867726014e-2
-0.2215089322569188,-6.209670233872089e-2
-0.21920507233160236,-6.215200253438513e-2
-0.2169012124062858,-6.22259727454042e-2
-0.21459735248096923,-6.2259050900510426e-2
-0.21229349255565277,-6.229481903179768e-2
-0.2099896326303362,-6.229661841520462e-2
-0.20768577270501964,-6.226139260578023e-2
-0.20538191277970308,-6.234158755613006e-2
-0.20307805285438651,-6.236000143686926e-2
-0.20077419292907006,-6.2416807875825264e-2
-0.1984703330037535,-6.251299665074062e-2
-0.19616647307843693,-6.24107422021245e-2
-0.19386261315312037,-6.2428327089139035e-2
-0.1915587532278038,-6.243977530539935e-2
-0.18925489330248724,-6.250220632188075e-2
-0.18695103337717067,-6.244612394476068e-2
-0.18464717345185422,-6.2436949295245125e-2
-0.18234331352653765,-6.254977114787519e-2
-0.1800394536012211,-6.261187845304317e-2
-0.17773559367590464,-6.261805638600537e-2
-0.17543173375058807,-6.266643589239473e-2
-0.1731278738252714,-6.26994921223395e-2
-0.17082401389995483,-6.268224060329375e-2
-0.16852015397463838,-6.261337643568365e-2
-0.1662162940493218,-6.261793532772941e-2
-0.16391243412400536,-6.262268612978406e-2
-0.1616085741986888,-6.271471981460164e-2
-0.15930471427337234,-6.273518329736116e-2
-0.15700085434805577,-6.27144858671922e-2
-0.1546969944227392,-6.279125189809509e-2
-0.15239313449742264,-6.27999685206182e-2
-0.15008927457210608,-6.281060389959703e-2
-0.14778541464678963,-6.278282347175268e-2
-0.14548155472147306,-6.282693720186183e-2
-0.1431776947961565,-6.283337438004943e-2
-0.14087383487083993,-6.28251559124674e-2
-0.13856997494552337,-6.281879880720576e-2
-0.1362661150202068,-6.279601221284692e-2
-0.13396225509489024,-6.28434643687591e-2
-0.13165839516957378,-6.28127931676361e-2
-0.12935453524425722,-6.280231599315744e-2
-0.12705067531894065,-6.27528751658365e-2
-0.1247468153936242,-6.269227876211458e-2
-0.12244295546830763,-6.267576992536972e-2
-0.12013909554299107,-6.277991266164962e-2
-0.1178352356176745,-6.27992162630443e-2
-0.11553137569235794,-6.284702419129162e-2
-0.11322751576704149,-6.28381101034311e-2
-0.11092365584172492,-6.28714343590826e-2
-0.10861979591640836,-6.289523595400015e-2
-0.10631593599109179,-6.289116596619582e-2
-0.10401207606577523,-6.286680171079018e-2
-0.10170821614045866,-6.294184218566079e-2
-9.94043562151421e-2,-6.280002183588773e-2
-9.710049628982564e-2,-6.279178532205687e-2
-9.479663636450908e-2,-6.284133723790175e-2
-9.249277643919251e-2,-6.280515388053542e-2
-9.018891651387606e-2,-6.28287806255321e-2
-8.78850565885595e-2,-6.28747468308607e-2
-8.558119666324293e-2,-6.295481432821692e-2
-8.327733673792637e-2,-6.295121898985356e-2
-8.09734768126098e-2,-6.296301615270439e-2
-7.866961688729335e-2,-6.29742362992477e-2
-7.636575696197667e-2,-6.300369020645791e-2
-7.406189703666022e-2,-6.300703337414781e-2
-7.175803711134365e-2,-6.295889103341801e-2
-6.945417718602709e-2,-6.298017429906377e-2
-6.715031726071052e-2,-6.297647554952734e-2
-6.484645733539396e-2,-6.3020055570849e-2
-6.25425974100775e-2,-6.301114345816494e-2
-6.023873748476094e-2,-6.301053387818423e-2
-5.7934877559444375e-2,-6.298983911716716e-2
-5.563101763412792e-2,-6.299714974107706e-2
-5.332715770881136e-2,-6.300030249977584e-2
-5.10232977834949e-2,-6.305960982805447e-2
-4.871943785817834e-2,-6.303902228863312e-2
-4.641557793286177e-2,-6.30318011155171e-2
-4.411171800754521e-2,-6.306101995110791e-2
-4.1807858082228755e-2,-6.306396264444014e-2
-3.950399815691219e-2,-6.306601074697527e-2
-3.7200138231595625e-2,-6.3006884547684e-2
-3.489627830627917e-2,-6.298731201272023e-2
-3.259241838096261e-2,-6.3052439469506e-2
-3.0288558455646042e-2,-6.301543700626833e-2
-2.7984698530329366e-2,-6.289103331483248e-2
-2.5680838605012912e-2,-6.28763565188788e-2
-2.3376978679696347e-2,-6.285158473584984e-2
-2.1073118754379783e-2,-6.287568555623435e-2
-1.876925882906333e-2,-6.269647032038117e-2
-1.6465398903746764e-2,-6.275296019541954e-2
-1.41615389784302e-2,-6.279327200398188e-2
-1.1857679053113634e-2,-6.285506974425636e-2
-9.55381912779707e-3,-6.281009704236085e-2
-7.249959202480616e-3,-6.275893993661119e-2
-4.946099277164051e-3,-6.281822983076035e-2
-2.6422393518474863e-3,-6.279545769074069e-2
-3.383794265310325e-4,-6.270680879960511e-2
1.9654804987856433e-3,-6.271532311002603e-2
4.269340424102097e-3,-6.265325898053609e-2
6.573200349418773e-3,-6.260245200392489e-2
8.877060274735227e-3,-6.261738018847207e-2
1.1180920200051792e-2,-6.252107502052884e-2
1.3484780125368245e-2,-6.250166896374532e-2
1.578864005068481e-2,-6.2655638110523e-2
1.8092499976001264e-2,-6.271358592155818e-2
2.039635990131794e-2,-6.275642272294546e-2
2.2700219826634616e-2,-6.283004701578354e-2
2.500407975195107e-2,-6.286111717203191e-2
2.7307939677267634e-2,-6.285580557559556e-2
2.9611799602584088e-2,-6.2838354470795e-2
3.191565952790065e-2,-6.286529878778668e-2
3.4219519453217107e-2,-6.285083368682909e-2
3.652337937853378e-2,-6.285486923563677e-2
3.8827239303850236e-2,-6.292191355891708e-2
4.113109922916691e-2,-6.294002252393072e-2
4.3434959154483366e-2,-6.300444428540364e-2
4.573881907979993e-2,-6.299114496392821e-2
4.8042679005116384e-2,-6.297456400783241e-2
5.034653893043295e-2,-6.290182753914253e-2
5.2650398855749625e-2,-6.288972864632081e-2
5.495425878106608e-2,-6.291418532286253e-2
5.7258118706382755e-2,-6.29522804959437e-2
5.956197863169921e-2,-6.300370560568724e-2
6.186583855701577e-2,-6.302058193305626e-2
6.416969848233223e-2,-6.307130972284469e-2
6.647355840764879e-2,-6.305340186580666e-2
6.877741833296525e-2,-6.301375826551492e-2
7.108127825828192e-2,-6.301836273516193e-2
7.338513818359838e-2,-6.304645721702873e-2
7.568899810891505e-2,-6.305828024039195e-2
7.79928580342315e-2,-6.308675520594098e-2
8.029671795954807e-2,-6.308299048135935e-2
8.260057788486463e-2,-6.305342300566763e-2
8.490443781018109e-2,-6.300148798291616e-2
8.720829773549776e-2,-6.302308365137232e-2
8.951215766081422e-2,-6.297401537863112e-2
9.18160175861309e-2,-6.299047405772418e-2
9.411987751144713e-2,-6.303559992268837e-2
9.64237374367638e-2,-6.306479000759757e-2
9.872759736208037e-2,-6.302194855883259e-2
0.10103145728739682,-6.307061710369466e-2
0.10333531721271338,-6.30540904700736e-2
0.10563917713802984,-6.303077499401366e-2
0.10794303706334651,-6.294738927669219e-2
0.11024689698866297,-6.287853683197708e-2
0.11255075691397964,-6.282282671623951e-2
0.1148546168392961,-6.260209351238422e-2
0.11715847676461266,-6.269533916416414e-2
0.11946233668992912,-6.269973889342217e-2
0.12176619661524568,-6.283278286211114e-2
0.12407005654056213,-6.278235681320998e-2
0.1263739164658788,-6.269085440299604e-2
0.12867777639119526,-6.279821653230211e-2
0.13098163631651194,-6.258133588185577e-2
0.1332854962418285,-6.259912026444048e-2
0.13558935616714496,-6.270241571978696e-2
0.13789321609246152,-6.278809666934837e-2
0.14019707601777798,-6.272866535593458e-2
0.14250093594309465,-6.278649586974605e-2
0.1448047958684111,-6.27807973189819e-2
0.14710865579372778,-6.25889536175096e-2
0.14941251571904424,-6.266778805422679e-2
0.1517163756443608,-6.264375147389856e-2
0.15402023556967726,-6.269025078105817e-2
0.15632409549499382,-6.278019812234892e-2
0.15862795542031027,-6.278285551929419e-2
0.16093181534562695,-6.27308662262247e-2
0.16323567527094363,-6.280722817388307e-2
0.16553953519626008,-6.28982613204202e-2
0.16784339512157664,-6.290167304661742e-2
0.1701472550468931,-6.289780542687551e-2
0.17245111497220966,-6.289697968703523e-2
0.17475497489752612,-6.294580750181722e-2
0.1770588348228428,-6.296291754093197e-2
0.17936269474815925,-6.29538922047902e-2
0.18166655467347592,-6.292752947251978e-2
0.18397041459879238,-6.294268345940646e-2
0.18627427452410894,-6.294155804430213e-2
0.1885781344494254,-6.293811632832458e-2
0.19088199437474196,-6.289916003520468e-2
0.1931858543000584,-6.289529630107393e-2
0.1954897142253751,-6.283117811729966e-2
0.19779357415069176,-6.287299968961557e-2
0.20009743407600822,-6.28525460100614e-2
0.20240129400132478,-6.281137141692317e-2
0.20470515392664124,-6.284542138702653e-2
0.2070090138519578,-6.275375408452444e-2
0.20931287377727426,-6.262155169776995e-2
0.21161673370259093,-6.267851548904546e-2
0.21392059362790738,-6.277949235396507e-2
0.21622445355322406,-6.274511169817998e-2
0.21852831347854051,-6.263020672000208e-2
0.22083217340385708,-6.269518966392007e-2
0.22313603332917353,-6.274023815874508e-2
0.2254398932544901,-6.281719926509799e-2
0.22774375317980677,-6.280483066026776e-2
0.23004761310512323,-6.287410183972231e-2
0.2323514730304399,-6.28567434448174e-2
0.23465533295575636,-6.287391083002691e-2
0.23695919288107292,-6.284265867083305e-2
0.23926305280638938,-6.288947409379064e-2
0.24156691273170594,-6.286060963465256e-2
0.2438707726570224,-6.287834491179112e-2
0.24617463258233885,-6.288923154359505e-2
0.24847849250765552,-6.291549031731936e-2
0.250782352432972,-6.29523134788128e-2
0.25308621235828865,-6.294261466261819e-2
0.2553900722836051,-6.296244641549575e-2
0.2576939322089218,-6.29368174303262e-2
0.259997792134238,-6.300263064371647e-2
0.2623016520595547,-6.302509590611627e-2
0.26460551198487114,-6.30121265788719e-2
0.2669093719101878,-6.301290309481089e-2
0.2692132318355043,-6.302826486956048e-2
0.27151709176082095,-6.304225386500972e-2
0.2738209516861374,-6.30235068693017e-2
0.27612481161145386,-6.303037809483092e-2
0.27842867153677053,-6.303103767316998e-2
0.280732531462087,-6.303259470843081e-2
0.28303639138740366,-6.308335895800798e-2
0.2853402513127201,-6.308198932994258e-2
0.2876441112380368,-6.30727369562446e-2
0.28994797116335325,-6.304072626086343e-2
0.2922518310886697,-6.302473761034866e-2
0.2945556910139864,-6.303598713895386e-2
0.29685955093930283,-6.30853677551444e-2
0.2991634108646193,-6.309615588911854e-2
0.30146727078993596,-6.312104548712316e-2
0.3037711307152524,-6.308672251118619e-2
0.3060749906405691,-6.30192239231111e-2
0.30837885056588554,-6.296684383525786e-2
0.3106827104912022,-6.300846423562667e-2
0.3129865704165187,-6.30150224597762e-2
0.3152904303418351,-6.307625805415729e-2
0.3175942902671518,-6.304850649444826e-2
0.31989815019246826,-6.303594842014704e-2
0.32220201011778493,-6.305235626826433e-2
0.3245058700431014,-6.310919726690334e-2
0.32680972996841806,-6.310447011679843e-2
0.3291135898937343,-6.315056619253445e-2
0.33141744981905097,-6.314731931093664e-2
0.3337213097443674,-6.313857737690776e-2
0.3360251696696841,-6.316507322328291e-2
0.3383290295950008,-6.319477550337249e-2
0.34063288952031723,-6.319490673380979e-2
0.3429367494456339,-6.318739936566331e-2
0.34524060937095014,-6.32181829700863e-2
0.3475444692962668,-6.321209587961318e-2
0.34984832922158327,-6.316410590268606e-2
0.35215218914689994,-6.317948609792678e-2
0.3544560490722164,-6.323358142839464e-2
0.35675990899753307,-6.31761270143979e-2
0.3590637689228495,-6.319559847646494e-2
0.361367628848166,-6.316929042897623e-2
0.36367148877348265,-6.31986421560623e-2
0.3659753486987991,-6.32402270764143e-2
0.36827920862411556,-6.32131135014179e-2
0.37058306854943224,-6.325683849880337e-2
0.3728869284747489,-6.323922675442195e-2
0.37519078840006537,-6.324612446109779e-2
0.3774946483253818,-6.329941815328355e-2
0.3797985082506985,-6.331997928665989e-2
0.38210236817601495,-6.32935631441559e-2
0.3844062281013314,-6.328856310971753e-2
0.3867100880266481,-6.328973016175055e-2
0.38901394795196453,-6.321740577255375e-2
0.391317807877281,-6.309696236532791e-2
0.39362166780259766,-6.316389086953667e-2
0.3959255277279141,-6.315185537663015e-2
0.39822938765323057,-6.316871461700568e-2
0.40053324757854725,-6.303417780671683e-2
0.4028371075038639,-6.308179093709099e-2
0.40514096742918015,-6.318393842696879e-2
0.40744482735449705,-6.325846435277638e-2
0.4097486872798133,-6.327561352387134e-2
0.4120525472051302,-6.322976799590785e-2
0.4143564071304464,-6.327583450058971e-2
0.4166602670557631,-6.328106447790394e-2
0.4189641269810793,-6.332042138566552e-2
0.4212679869063962,-6.330135339546039e-2
0.42357184683171245,-6.33074385665453e-2
0.42587570675702935,-6.327920854604685e-2
0.4281795666823456,-6.330602447109301e-2
0.43048342660766226,-6.32713499173212e-2
0.4327872865329787,-6.318843579004019e-2
0.4350911464582954,-6.293661291896979e-2"/>
  </g>
  <g stroke-opacity="0.5" fill-opacity="1.0" stroke="#3764a0" stroke-width="4.0e-3" fill="#ffffff">
    <rect height="0.1342572542226072" width="0.19784397108655827" x="0.5394847993242009" y="-6.74465492280435e-2"/>
  </g>
  <g fill-opacity="1.0" font-size="4.000000000000001e-2" stroke="none" stroke-width="0.0" fill="#666666" text-anchor="start">
    <text x="0.5510040989507838" y="3.1297495813099874e-2">rate = 0.99
    </text>
  </g>
  <g stroke-opacity="0.5" stroke="#431712" stroke-width="6.999999999999999e-3" fill="none">
    <polyline points="0.7007549940963589,2.5580735310717917e-2
0.7237935933495243,2.5580735310717917e-2"/>
  </g>
  <g fill-opacity="1.0" font-size="4.000000000000001e-2" stroke="none" stroke-width="0.0" fill="#666666" text-anchor="start">
    <text x="0.5510040989507838" y="-1.8074526707471894e-2">rate = 0.95
    </text>
  </g>
  <g stroke-opacity="0.5" stroke="#4b2282" stroke-width="6.999999999999999e-3" fill="none">
    <polyline points="0.7007549940963589,-2.3791287209853795e-2
0.7237935933495243,-2.3791287209853795e-2"/>
  </g>
</svg>