
<svg xmlns="http://www.w3.org/2000/svg" height="300.0" viewBox="-0.9104277680948124 -0.7283312039844088 1.7014318670455961 1.461347121816856" width="450.0" xmlns:xlink="http://www.w3.org/1999/xlink">
  <g transform="translate(-8.219640591007693e-2, -0.57175)" fill-opacity="1.0" font-size="8.0e-2" stroke="none" stroke-width="0.0" fill="#000000" text-anchor="middle">
    <text transform="rotate(0.0, -0.14087383487083993, -6.25812039844088e-2)" x="-0.14087383487083993" y="-6.25812039844088e-2">ma beta
    </text>
  </g>
  <g stroke-opacity="0.0" fill-opacity="3.0e-2" stroke="#000000" stroke-width="0.0" fill="#666666">
    <rect height="0.8661758336942399" width="1.1519299626582706" x="-0.7168388161999752" y="-0.4956691208315287"/>
  </g>
  <g stroke-opacity="0.3" stroke="#a8e5ee" stroke-width="5.0e-3" fill="none">
    <polyline points="-0.7145349562746587,0.3748375920311824
-0.7145349562746587,-0.5"/>
  </g>
  <g stroke-opacity="0.3" stroke="#a8e5ee" stroke-width="5.0e-3" fill="none">
    <polyline points="-0.6661538978430113,0.3748375920311824
-0.6661538978430113,-0.5"/>
  </g>
  <g stroke-opacity="0.3" stroke="#a8e5ee" stroke-width="5.0e-3" fill="none">
    <polyline points="-0.5187068626227527,0.3748375920311824
-0.5187068626227527,-0.5"/>
  </g>
  <g stroke-opacity="0.3" stroke="#a8e5ee" stroke-width="5.0e-3" fill="none">
    <polyline points="-0.37356368732781053,0.3748375920311824
-0.37356368732781053,-0.5"/>
  </g>
  <g stroke-opacity="0.3" stroke="#a8e5ee" stroke-width="5.0e-3" fill="none">
    <polyline points="-0.2284205120328685,0.3748375920311824
-0.2284205120328685,-0.5"/>
  </g>
  <g stroke-opacity="0.3" stroke="#a8e5ee" stroke-width="5.0e-3" fill="none">
    <polyline points="-8.78850565885595e-2,0.3748375920311824
-8.78850565885595e-2,-0.5"/>
  </g>
  <g stroke-opacity="0.3" stroke="#a8e5ee" stroke-width="5.0e-3" fill="none">
    <polyline points="5.7258118706382755e-2,0.3748375920311824
5.7258118706382755e-2,-0.5"/>
  </g>
  <g stroke-opacity="0.3" stroke="#a8e5ee" stroke-width="5.0e-3" fill="none">
    <polyline points="0.20470515392664124,0.3748375920311824
0.20470515392664124,-0.5"/>
  </g>
  <g stroke-opacity="0.3" stroke="#a8e5ee" stroke-width="5.0e-3" fill="none">
    <polyline points="0.35215218914689994,0.3748375920311824
0.35215218914689994,-0.5"/>
  </g>
  <g stroke-opacity="0.3" stroke="#a8e5ee" stroke-width="5.0e-3" fill="none">
    <polyline points="0.4350911464582954,0.3748375920311824
0.4350911464582954,-0.5"/>
  </g>
  <g fill-opacity="1.0" font-size="5.0e-2" stroke="none" stroke-width="0.0" fill="#666666" text-anchor="end">
    <text transform="rotate(-45.0, -0.7145349562746587, 0.5)" x="-0.7145349562746587" y="0.5">28 Feb 2018
    </text>
  </g>
  <g fill-opacity="1.0" font-size="5.0e-2" stroke="none" stroke-width="0.0" fill="#666666" text-anchor="end">
    <text transform="rotate(-45.0, -0.6661538978430113, 0.5)" x="-0.6661538978430113" y="0.5">31 Mar 2018
    </text>
  </g>
  <g fill-opacity="1.0" font-size="5.0e-2" stroke="none" stroke-width="0.0" fill="#666666" text-anchor="end">
    <text transform="rotate(-45.0, -0.5187068626227527, 0.5)" x="-0.5187068626227527" y="0.5">30 Jun 2018
    </text>
  </g>
  <g fill-opacity="1.0" font-size="5.0e-2" stroke="none" stroke-width="0.0" fill="#666666" text-anchor="end">
    <text transform="rotate(-45.0, -0.37356368732781053, 0.5)" x="-0.37356368732781053" y="0.5">30 Sep 2018
    </text>
  </g>
  <g fill-opacity="1.0" font-size="5.0e-2" stroke="none" stroke-width="0.0" fill="#666666" text-anchor="end">
    <text transform="rotate(-45.0, -0.2284205120328685, 0.5)" x="-0.2284205120328685" y="0.5">31 Dec 2018
    </text>
  </g>
  <g fill-opacity="1.0" font-size="5.0e-2" stroke="none" stroke-width="0.0" fill="#666666" text-anchor="end">
    <text transform="rotate(-45.0, -8.78850565885595e-2, 0.5)" x="-8.78850565885595e-2" y="0.5">31 Mar 2019
    </text>
  </g>
  <g fill-opacity="1.0" font-size="5.0e-2" stroke="none" stroke-width="0.0" fill="#666666" text-anchor="end">
    <text transform="rotate(-45.0, 5.7258118706382755e-2, 0.5)" x="5.7258118706382755e-2" y="0.5">30 Jun 2019
    </text>
  </g>
  <g fill-opacity="1.0" font-size="5.0e-2" stroke="none" stroke-width="0.0" fill="#666666" text-anchor="end">
    <text transform="rotate(-45.0, 0.20470515392664124, 0.5)" x="0.20470515392664124" y="0.5">30 Sep 2019
    </text>
  </g>
  <g fill-opacity="1.0" font-size="5.0e-2" stroke="none" stroke-width="0.0" fill="#666666" text-anchor="end">
    <text transform="rotate(-45.0, 0.35215218914689994, 0.5)" x="0.35215218914689994" y="0.5">31 Dec 2019
    </text>
  </g>
  <g fill-opacity="1.0" font-size="5.0e-2" stroke="none" stroke-width="0.0" fill="#666666" text-anchor="end">
    <text transform="rotate(-45.0, 0.4350911464582954, 0.5)" x="0.4350911464582954" y="0.5">24 Feb 2020
    </text>
  </g>
  <g stroke-opacity="0.4" fill-opacity="1.0" stroke="#2c429d" stroke-width="5.0e-3" fill="#5f0391">
    <polyline points="-0.7145349562746587,0.4424577739281074
-0.7145349562746587,0.4124577739281074"/>
    <polyline points="-0.6661538978430113,0.4424577739281074
-0.6661538978430113,0.4124577739281074"/>
    <polyline points="-0.5187068626227527,0.4424577739281074
-0.5187068626227527,0.4124577739281074"/>
    <polyline points="-0.37356368732781053,0.4424577739281074
-0.37356368732781053,0.4124577739281074"/>
    <polyline points="-0.2284205120328685,0.4424577739281074
-0.2284205120328685,0.4124577739281074"/>
    <polyline points="-8.78850565885595e-2,0.4424577739281074
-8.78850565885595e-2,0.4124577739281074"/>
    <polyline points="5.7258118706382755e-2,0.4424577739281074
5.7258118706382755e-2,0.4124577739281074"/>
    <polyline points="0.20470515392664124,0.4424577739281074
0.20470515392664124,0.4124577739281074"/>
    <polyline points="0.35215218914689994,0.4424577739281074
0.35215218914689994,0.4124577739281074"/>
    <polyline points="0.4350911464582954,0.4424577739281074
0.4350911464582954,0.4124577739281074"/>
  </g>
  <g stroke-opacity="0.0" fill-opacity="0.5" stroke="#666666" stroke-width="0.0" fill="#5f0391">
    <rect height="4.330879168471247e-3" width="1.1519299626582706" x="-0.7168388161999752" y="0.4144651364226938"/>
  </g>
  <g stroke-opacity="0.3" stroke="#a8e5ee" stroke-width="5.0e-3" fill="none">
    <polyline points="-0.7197186411066209,0.3705067128627112
0.4379709713649409,0.3705067128627112"/>
  </g>
  <g stroke-opacity="0.3" stroke="#a8e5ee" stroke-width="5.0e-3" fill="none">
    <polyline points="-0.7197186411066209,0.2261440739136712
0.4379709713649409,0.2261440739136712"/>
  </g>
  <g stroke-opacity="0.3" stroke="#a8e5ee" stroke-width="5.0e-3" fill="none">
    <polyline points="-0.7197186411066209,8.17814349646312e-2
0.4379709713649409,8.17814349646312e-2"/>
  </g>
  <g stroke-opacity="0.3" stroke="#a8e5ee" stroke-width="5.0e-3" fill="none">
    <polyline points="-0.7197186411066209,-6.25812039844088e-2
0.4379709713649409,-6.25812039844088e-2"/>
  </g>
  <g stroke-opacity="0.3" stroke="#a8e5ee" stroke-width="5.0e-3" fill="none">
    <polyline points="-0.7197186411066209,-0.2069438429334487
0.4379709713649409,-0.2069438429334487"/>
  </g>
  <g stroke-opacity="0.3" stroke="#a8e5ee" stroke-width="5.0e-3" fill="none">
    <polyline points="-0.7197186411066209,-0.3513064818824887
0.4379709713649409,-0.3513064818824887"/>
  </g>
  <g stroke-opacity="0.3" stroke="#a8e5ee" stroke-width="5.0e-3" fill="none">
    <polyline points="-0.7197186411066209,-0.4956691208315287
0.4379709713649409,-0.4956691208315287"/>
  </g>
  <g fill-opacity="1.0" font-size="5.0e-2" stroke="none" stroke-width="0.0" fill="#666666" text-anchor="end">
    <text x="-0.75" y="0.3830662624512776">-60%
    </text>
  </g>
  <g fill-opacity="1.0" font-size="5.0e-2" stroke="none" stroke-width="0.0" fill="#666666" text-anchor="end">
    <text x="-0.75" y="0.23870362350223773">-40%
    </text>
  </g>
  <g fill-opacity="1.0" font-size="5.0e-2" stroke="none" stroke-width="0.0" fill="#666666" text-anchor="end">
    <text x="-0.75" y="9.434098455319773e-2">-20%
    </text>
  </g>
  <g fill-opacity="1.0" font-size="5.0e-2" stroke="none" stroke-width="0.0" fill="#666666" text-anchor="end">
    <text x="-0.75" y="-5.0021654395842385e-2">0%
    </text>
  </g>
  <g fill-opacity="1.0" font-size="5.0e-2" stroke="none" stroke-width="0.0" fill="#666666" text-anchor="end">
    <text x="-0.75" y="-0.19438429334488216">20%
    </text>
  </g>
  <g fill-opacity="1.0" font-size="5.0e-2" stroke="none" stroke-width="0.0" fill="#666666" text-anchor="end">
    <text x="-0.75" y="-0.3387469322939223">40%
    </text>
  </g>
  <g fill-opacity="1.0" font-size="5.0e-2" stroke="none" stroke-width="0.0" fill="#666666" text-anchor="end">
    <text x="-0.75" y="-0.4831095712429623">60%
    </text>
  </g>
  <g stroke-opacity="0.4" fill-opacity="1.0" stroke="#2c429d" stroke-width="5.0e-3" fill="#5f0391">
    <g transform="rotate(-90.0, -0.7312379407332036, 0.3705067128627112)">
      <polyline points="-0.7312379407332036,0.3855067128627112
-0.7312379407332036,0.3555067128627112"/>
    </g>
    <g transform="rotate(-90.0, -0.7312379407332036, 0.2261440739136712)">
      <polyline points="-0.7312379407332036,0.2411440739136712
-0.7312379407332036,0.21114407391367118"/>
    </g>
    <g transform="rotate(-90.0, -0.7312379407332036, 8.17814349646312e-2)">
      <polyline points="-0.7312379407332036,9.67814349646312e-2
-0.7312379407332036,6.67814349646312e-2"/>
    </g>
    <g transform="rotate(-90.0, -0.7312379407332036, -6.25812039844088e-2)">
      <polyline points="-0.7312379407332036,-4.758120398440881e-2
-0.7312379407332036,-7.75812039844088e-2"/>
    </g>
    <g transform="rotate(-90.0, -0.7312379407332036, -0.2069438429334487)">
      <polyline points="-0.7312379407332036,-0.19194384293344868
-0.7312379407332036,-0.2219438429334487"/>
    </g>
    <g transform="rotate(-90.0, -0.7312379407332036, -0.3513064818824887)">
      <polyline points="-0.7312379407332036,-0.3363064818824887
-0.7312379407332036,-0.3663064818824887"/>
    </g>
    <g transform="rotate(-90.0, -0.7312379407332036, -0.4956691208315287)">
      <polyline points="-0.7312379407332036,-0.4806691208315287
-0.7312379407332036,-0.5106691208315287"/>
    </g>
  </g>
  <g stroke-opacity="0.0" fill-opacity="0.5" stroke="#666666" stroke-width="0.0" fill="#5f0391">
    <rect height="0.8661758336942399" width="2.8798249066456227e-3" x="-0.7254782909199122" y="-0.4956691208315287"/>
  </g>
  <g stroke-opacity="0.5" stroke="#ac0505" stroke-width="2.0e-3" fill="none">
    <polyline points="-0.7145349562746587,-6.25812039844088e-2
0.4350911464582954,-6.25812039844088e-2"/>
  </g>
  <g stroke-opacity="0.5" stroke="#4b2282" stroke-width="7.0e-3" fill="none">
    <polyline points="-0.7145349562746587,-4.836219539512043e-2
-0.7122310963493421,-5.0884903211718346e-2
-0.7099272364240256,-4.9358508499587894e-2
-0.707623376498709,-4.756794131362241e-2
-0.7053195165733925,-4.7427491071404315e-2
-0.703015656648076,-4.7452520845642776e-2
-0.7007117967227594,-4.7368249830876175e-2
-0.6984079367974428,-4.909027853766901e-2
-0.6961040768721263,-4.8543936756532347e-2
-0.6938002169468098,-4.73782042035823e-2
-0.6914963570214933,-4.7048136272903385e-2
-0.6891924970961767,-4.706244103188262e-2
-0.6868886371708601,-4.704349314680367e-2
-0.6845847772455436,-4.8417467317779406e-2
-0.6822809173202271,-4.802259884075355e-2
-0.6799770573949105,-4.835402235768527e-2
-0.677673197469594,-5.5985141427048024e-2
-0.6753693375442774,-6.57355170304268e-2
-0.673065477618961,-4.915957966259299e-2
-0.6707616176936444,-5.372104552198609e-2
-0.6684577577683278,-5.4109945156858186e-2
-0.6661538978430113,-4.889732359187249e-2
-0.6638500379176948,-5.440688441279928e-2
-0.6615461779923782,-4.9414944058129184e-2
-0.6592423180670617,-4.716664603685383e-2
-0.6569384581417451,-4.672137377969254e-2
-0.6546345982164286,-4.878072277519596e-2
-0.6523307382911121,-4.783046392110957e-2
-0.6500268783657955,-4.6309577890124465e-2
-0.647723018440479,-4.632583758142916e-2
-0.6454191585151624,-4.639128404437798e-2
-0.6431152985898458,-4.6266609790754365e-2
-0.6408114386645294,-4.685769435955911e-2
-0.6385075787392128,-4.863094383272515e-2
-0.6362037188138963,-4.869042919103239e-2
-0.6338998588885797,-4.736700910747138e-2
-0.6315959989632631,-4.638658819085606e-2
-0.6292921390379467,-4.639661127078465e-2
-0.6269882791126301,-4.679871289462245e-2
-0.6246844191873135,-4.6493980185987493e-2
-0.622380559261997,-4.6223069192487864e-2
-0.6200766993366804,-4.6312213855578044e-2
-0.617772839411364,-4.608682971586975e-2
-0.6154689794860474,-4.6022936602772124e-2
-0.6131651195607308,-4.631981624872328e-2
-0.6108612596354144,-4.65053296784389e-2
-0.6085573997100978,-4.6123815324252915e-2
-0.6062535397847812,-4.65662179429821e-2
-0.6039496798594648,-4.650905974526587e-2
-0.6016458199341481,-4.8612638970344846e-2
-0.5993419600088317,-5.1841667004972836e-2
-0.5970381000835151,-5.217836499898265e-2
-0.5947342401581985,-5.2106392057163164e-2
-0.592430380232882,-4.879556604698654e-2
-0.5901265203075654,-4.991025262062898e-2
-0.587822660382249,-4.931378324133662e-2
-0.5855188004569324,-4.8293247901067704e-2
-0.5832149405316158,-5.0384393298868235e-2
-0.5809110806062993,-4.887883436320106e-2
-0.5786072206809827,-4.971393102676169e-2
-0.5763033607556662,-4.8743362581407546e-2
-0.5739995008303497,-4.796984442825025e-2
-0.5716956409050331,-4.736827127470877e-2
-0.5693917809797165,-4.726931405483359e-2
-0.5670879210544,-4.6505240619971966e-2
-0.5647840611290835,-4.7582388887284166e-2
-0.562480201203767,-4.868507286265933e-2
-0.5601763412784504,-4.861686090986195e-2
-0.5578724813531338,-5.17624477310199e-2
-0.5555686214278173,-5.07141083066619e-2
-0.5532647615025008,-5.1697805408888686e-2
-0.5509609015771842,-5.158947275950643e-2
-0.5486570416518677,-5.1852847202333296e-2
-0.5463531817265511,-4.9256326425128893e-2
-0.5440493218012346,-4.979806409897547e-2
-0.5417454618759181,-4.900094926625187e-2
-0.5394416019506015,-4.814007769601747e-2
-0.537137742025285,-4.757962429787688e-2
-0.5348338820999685,-4.7591542580353696e-2
-0.5325300221746518,-4.81597328996497e-2
-0.5302261622493354,-4.7789444252948954e-2
-0.5279223023240188,-5.294107479643306e-2
-0.5256184423987023,-5.1258596385214794e-2
-0.5233145824733857,-5.6663616632437575e-2
-0.5210107225480691,-5.1307464481263e-2
-0.5187068626227527,-5.072626298457683e-2
-0.516403002697436,-4.916782209182924e-2
-0.5140991427721195,-5.13142742451429e-2
-0.5117952828468031,-4.7607214931766895e-2
-0.5094914229214865,-4.7529115848556014e-2
-0.50718756299617,-5.010197868815225e-2
-0.5048837030708534,-5.1462918062156304e-2
-0.5025798431455368,-4.7610762955120234e-2
-0.5002759832202204,-5.0382715083462704e-2
-0.4979721232949038,-5.038716568400159e-2
-0.49566826336958725,-4.932262317885683e-2
-0.4933644034442707,-5.0785042345360076e-2
-0.4910605435189542,-5.140179851531812e-2
-0.4887566835936376,-4.867747784664833e-2
-0.4864528236683211,-4.8086972021093355e-2
-0.48414896374300453,-4.8369392054194216e-2
-0.481845103817688,-4.987266784267841e-2
-0.47954124389237146,-5.480245769152914e-2
-0.4772373839670549,-5.10964978450944e-2
-0.47493352404173844,-4.7562015575476346e-2
-0.47262966411642193,-4.742785581260589e-2
-0.47032580419110537,-4.703600907671268e-2
-0.4680219442657888,-4.7020953067638094e-2
-0.46571808434047224,-4.723899411423804e-2
-0.46341422441515573,-4.8295194586123635e-2
-0.46111036448983916,-4.9449936210772316e-2
-0.45880650456452265,-5.04281139221604e-2
-0.4565026446392061,-4.947623898163778e-2
-0.4541987847138896,-4.819714136234576e-2
-0.45189492478857296,-4.7181026732378784e-2
-0.44959106486325645,-4.868552245759594e-2
-0.44728720493793994,-4.6701126705868345e-2
-0.4449833450126234,-4.911059957422015e-2
-0.4426794850873068,-4.625874725169776e-2
-0.4403756251619903,-4.621039316995801e-2
-0.4380717652366738,-4.6402197859498284e-2
-0.4357679053113572,-4.665149504380328e-2
-0.43346404538604066,-4.6362895042693086e-2
-0.4311601854607241,-4.6160071410708436e-2
-0.4288563255354076,-4.694047482620167e-2
-0.426552465610091,-5.044324855921822e-2
-0.4242486056847745,-4.960732738560836e-2
-0.42194474575945795,-5.3143800179214384e-2
-0.4196408858341414,-4.81238434387351e-2
-0.4173370259088248,-4.760154171687747e-2
-0.4150331659835083,-4.665496327067731e-2
-0.4127293060581918,-4.6410596899388645e-2
-0.41042544613287524,-4.761101065754725e-2
-0.4081215862075587,-4.920028606624238e-2
-0.4058177262822421,-4.82556270595772e-2
-0.4035138663569256,-4.680401311623894e-2
-0.40121000643160903,-4.690112857695983e-2
-0.3989061465062925,-4.640196714321232e-2
-0.39660228658097596,-4.6325430837895865e-2
-0.39429842665565945,-4.752469459306641e-2
-0.3919945667303429,-4.595935653641514e-2
-0.3896907068050263,-4.5943666846637865e-2
-0.3873868468797098,-4.785339873352168e-2
-0.38508298695439325,-4.697473750166781e-2
-0.3827791270290768,-4.5703938686072365e-2
-0.38047526710376023,-4.587664079418485e-2
-0.37817140717844366,-4.7368216592280854e-2
-0.37586754725312715,-4.6272464170934224e-2
-0.37356368732781053,-4.653112031015172e-2
-0.371259827402494,-4.569985279784117e-2
-0.3689559674771775,-4.5867019522316976e-2
-0.36665210755186095,-4.586835904857922e-2
-0.3643482476265444,-5.098603535178847e-2
-0.3620443877012279,-5.7752456101567096e-2
-0.35974052777591137,-5.834004260828085e-2
-0.3574366678505948,-6.055778570635251e-2
-0.35513280792527824,-7.550876838952636e-2
-0.35282894799996173,-9.205521830299501e-2
-0.3505250880746452,-6.720906788460335e-2
-0.34822122814932865,-7.072347642507815e-2
-0.3459173682240121,-5.163475191785871e-2
-0.3436135082986956,-5.140501794320862e-2
-0.34130964837337896,-5.654269861644323e-2
-0.3390057884480624,-5.589926579116056e-2
-0.3367019285227459,-5.736971454439921e-2
-0.3343980685974294,-5.9594601536626435e-2
-0.3320942086721128,-7.337791729102949e-2
-0.32979034874679625,-5.616523034404097e-2
-0.32748648882147974,-6.292965588311727e-2
-0.32518262889616323,-6.506116260970907e-2
-0.32287876897084666,-5.413754186049624e-2
-0.3205749090455301,-5.02931535364427e-2
-0.3182710491202136,-4.882903710914599e-2
-0.3159671891948971,-4.908612092667719e-2
-0.3136633292695805,-4.869169670829687e-2
-0.31135946934426395,-4.8929656353430384e-2
-0.30905560941894744,-5.263354245706786e-2
-0.30675174949363093,-5.1643337140392154e-2
-0.30444788956831437,-4.921160017600812e-2
-0.3021440296429978,-4.796259978791273e-2
-0.2998401697176813,-4.79977909050765e-2
-0.2975363097923648,-4.880060642416806e-2
-0.2952324498670482,-4.747494096402294e-2
-0.29292858994173165,-4.7487863446309286e-2
-0.29062473001641514,-4.839698842217244e-2
-0.28832087009109864,-5.2495090858865834e-2
-0.28601701016578207,-5.0603827925134515e-2
-0.28371315024046545,-5.204053246444784e-2
-0.28140929031514894,-4.7443136493873994e-2
-0.2791054303898324,-4.710996495599917e-2
-0.2768015704645158,-4.912111754458204e-2
-0.2744977105391993,-4.85951304663893e-2
-0.2721938506138828,-5.068121132492609e-2
-0.26988999068856623,-5.436293477616527e-2
-0.26758613076324966,-4.608956271286935e-2
-0.26528227083793315,-4.609644712533767e-2
-0.26297841091261664,-4.8442457743090306e-2
-0.2606745509873001,-4.766039786435161e-2
-0.2583706910619835,-4.7399184420321205e-2
-0.256066831136667,-4.6418792169327094e-2
-0.2537629712113504,-4.631659889352868e-2
-0.2514591112860338,-4.906663079794382e-2
-0.24915525136071737,-5.4803090972439183e-2
-0.2468513914354008,-5.3437942437302044e-2
-0.24454753151008424,-5.853785212734752e-2
-0.24224367158476767,-6.469469403030104e-2
-0.2399398116594511,-7.40272164217397e-2
-0.23763595173413465,-8.717861128121518e-2
-0.2353320918088182,-4.989376764316622e-2
-0.23302823188350164,-4.812768971934356e-2
-0.23072437195818507,-4.797064310083854e-2
-0.2284205120328685,-4.7276725925183505e-2
-0.22611665210755194,-4.724614716579456e-2
-0.22381279218223538,-4.850158363351598e-2
-0.2215089322569188,-4.700730641116535e-2
-0.21920507233160236,-4.7868731993006786e-2
-0.2169012124062858,-4.9483003369150236e-2
-0.21459735248096923,-5.0377235122403774e-2
-0.21229349255565277,-5.143557440393254e-2
-0.2099896326303362,-5.1385442748395516e-2
-0.20768577270501964,-5.014862506664697e-2
-0.20538191277970308,-5.262193249585201e-2
-0.20307805285438651,-5.31597533412278e-2
-0.20077419292907006,-5.5342308969253184e-2
-0.1984703330037535,-5.9728187469927585e-2
-0.19616647307843693,-5.3396967969639e-2
-0.19386261315312037,-5.385901403694904e-2
-0.1915587532278038,-5.4065912416153994e-2
-0.18925489330248724,-5.6528041694429376e-2
-0.18695103337717067,-5.335590895714604e-2
-0.18464717345185422,-5.277304785263126e-2
-0.18234331352653765,-5.697065702279713e-2
-0.1800394536012211,-5.985873096077654e-2
-0.17773559367590464,-5.9506386385954846e-2
-0.17543173375058807,-6.183777864377249e-2
-0.1731278738252714,-6.326740399119635e-2
-0.17082401389995483,-6.098063595871661e-2
-0.16852015397463838,-5.5845518758670165e-2
-0.1662162940493218,-5.5661548820390205e-2
-0.16391243412400536,-5.550121580356204e-2
-0.1616085741986888,-5.925094090389127e-2
-0.15930471427337234,-5.9818676070900745e-2
-0.15700085434805577,-5.7734025157378466e-2
-0.1546969944227392,-6.145853515295241e-2
-0.15239313449742264,-6.1153947193410385e-2
-0.15008927457210608,-6.101422611446683e-2
-0.14778541464678963,-5.821060790875432e-2
-0.14548155472147306,-6.01308293567957e-2
-0.1431776947961565,-5.976203719914608e-2
-0.14087383487083993,-5.84765919336977e-2
-0.13856997494552337,-5.751004818482308e-2
-0.1362661150202068,-5.593991158644318e-2
-0.13396225509489024,-5.743476934956637e-2
-0.13165839516957378,-5.5442049927524995e-2
-0.12935453524425722,-5.486108232697329e-2
-0.12705067531894065,-5.3883752730011225e-2
-0.1247468153936242,-5.465916266702853e-2
-0.12244295546830763,-5.5377701706423865e-2
-0.12013909554299107,-5.2222668382295834e-2
-0.1178352356176745,-5.235489455476172e-2
-0.11553137569235794,-5.318126628397557e-2
-0.11322751576704149,-5.2634300794121014e-2
-0.11092365584172492,-5.341687355844149e-2
-0.10861979591640836,-5.408796417525563e-2
-0.10631593599109179,-5.348859193333977e-2
-0.10401207606577523,-5.2323561709617605e-2
-0.10170821614045866,-5.440338563576419e-2
-9.94043562151421e-2,-5.004408480192135e-2
-9.710049628982564e-2,-5.035934462438296e-2
-9.479663636450908e-2,-4.9277242467496984e-2
-9.249277643919251e-2,-4.986152098261476e-2
-9.018891651387606e-2,-4.936224255397592e-2
-8.78850565885595e-2,-4.902094915238453e-2
-8.558119666324293e-2,-5.0573266214446355e-2
-8.327733673792637e-2,-5.0051480212905286e-2
-8.09734768126098e-2,-5.0218913299510226e-2
-7.866961688729335e-2,-5.036748010143388e-2
-7.636575696197667e-2,-5.141488617952905e-2
-7.406189703666022e-2,-5.1116385563848676e-2
-7.175803711134365e-2,-4.887579952265664e-2
-6.945417718602709e-2,-4.913492265036723e-2
-6.715031726071052e-2,-4.891932906380614e-2
-6.484645733539396e-2,-4.989630801664102e-2
-6.25425974100775e-2,-4.924518022136959e-2
-6.023873748476094e-2,-4.903312278513261e-2
-5.7934877559444375e-2,-4.859930650188682e-2
-5.563101763412792e-2,-4.860261656796716e-2
-5.332715770881136e-2,-4.859828677645306e-2
-5.10232977834949e-2,-4.964999683475513e-2
-4.871943785817834e-2,-4.849898001343178e-2
-4.641557793286177e-2,-4.825376415035065e-2
-4.411171800754521e-2,-4.871066088367848e-2
-4.1807858082228755e-2,-4.859634484025177e-2
-3.950399815691219e-2,-4.847607763498596e-2
-3.7200138231595625e-2,-4.867168527447219e-2
-3.489627830627917e-2,-4.9945002224048185e-2
-3.259241838096261e-2,-4.729528840633623e-2
-3.0288558455646042e-2,-4.796541232599616e-2
-2.7984698530329366e-2,-5.63159150864585e-2
-2.5680838605012912e-2,-5.7902576609831446e-2
-2.3376978679696347e-2,-6.08981393357555e-2
-2.1073118754379783e-2,-5.685597424032329e-2
-1.876925882906333e-2,-7.20048432788587e-2
-1.6465398903746764e-2,-6.136603358059145e-2
-1.41615389784302e-2,-5.5950471484616626e-2
-1.1857679053113634e-2,-5.0608628902517605e-2
-9.55381912779707e-3,-5.310349693833394e-2
-7.249959202480616e-3,-5.678827264083719e-2
-4.946099277164051e-3,-5.123021831358421e-2
-2.6422393518474863e-3,-5.241492301533912e-2
-3.383794265310325e-4,-5.858118286066605e-2
1.9654804987856433e-3,-5.696600286335096e-2
4.269340424102097e-3,-6.235264221846648e-2
6.573200349418773e-3,-6.742551723869694e-2
8.877060274735227e-3,-6.381555471493205e-2
1.1180920200051792e-2,-7.357316653647239e-2
1.3484780125368245e-2,-7.469740151140514e-2
1.578864005068481e-2,-5.189120077179532e-2
1.8092499976001264e-2,-4.971454109518758e-2
2.039635990131794e-2,-4.937153365624014e-2
2.2700219826634616e-2,-5.062591606986788e-2
2.500407975195107e-2,-5.1847280401351004e-2
2.7307939677267634e-2,-5.1440843239613177e-2
2.9611799602584088e-2,-5.0569302618065026e-2
3.191565952790065e-2,-5.158924295640066e-2
3.4219519453217107e-2,-5.0791891379602605e-2
3.652337937853378e-2,-5.087419280280148e-2
3.8827239303850236e-2,-5.4105513520712134e-2
4.113109922916691e-2,-5.513848444770253e-2
4.3434959154483366e-2,-6.018913051960684e-2
4.573881907979993e-2,-5.787237233079612e-2
4.8042679005116384e-2,-5.563044362709535e-2
5.034653893043295e-2,-5.038899712827993e-2
5.2650398855749625e-2,-5.002906181952027e-2
5.495425878106608e-2,-5.0561239703041605e-2
5.7258118706382755e-2,-5.199732231615306e-2
5.956197863169921e-2,-5.5027785052669365e-2
6.186583855701577e-2,-5.600541717515228e-2
6.416969848233223e-2,-6.033810977600784e-2
6.647355840764879e-2,-5.718544878113041e-2
6.877741833296525e-2,-5.2838382467443545e-2
7.108127825828192e-2,-5.281696458394658e-2
7.338513818359838e-2,-5.436524497826767e-2
7.568899810891505e-2,-5.486433274326452e-2
7.79928580342315e-2,-5.6885743750955675e-2
8.029671795954807e-2,-5.578331265028569e-2
8.260057788486463e-2,-5.268970759105185e-2
8.490443781018109e-2,-5.050408717443e-2
8.720829773549776e-2,-5.059153520495219e-2
8.951215766081422e-2,-5.057845147909057e-2
9.18160175861309e-2,-5.01269311108089e-2
9.411987751144713e-2,-4.99838490094634e-2
9.64237374367638e-2,-5.088275973362266e-2
9.872759736208037e-2,-4.924592578928555e-2
0.10103145728739682,-5.004571039000549e-2
0.10333531721271338,-4.920721192963984e-2
0.10563917713802984,-4.882301315793747e-2
0.10794303706334651,-5.168062122204575e-2
0.11024689698866297,-5.799924252879751e-2
0.11255075691397964,-6.491223074172858e-2
0.1148546168392961,-8.121970334670736e-2
0.11715847676461266,-6.240175552714011e-2
0.11946233668992912,-6.0819747721594375e-2
0.12176619661524568,-4.9177079940774804e-2
0.12407005654056213,-5.0982429503682036e-2
0.1263739164658788,-5.578168764352931e-2
0.12867777639119526,-4.8678897381510544e-2
0.13098163631651194,-5.717098107359131e-2
0.1332854962418285,-5.499658235847349e-2
0.13558935616714496,-4.88426625399937e-2
0.13789321609246152,-4.691772834137209e-2
0.14019707601777798,-4.760526980871249e-2
0.14250093594309465,-4.6751084188178194e-2
0.1448047958684111,-4.6764376654437334e-2
0.14710865579372778,-5.0842426138151264e-2
0.14941251571904424,-4.7444901406888396e-2
0.1517163756443608,-4.79006708110169e-2
0.15402023556967726,-4.668411407867368e-2
0.15632409549499382,-4.630692306537176e-2
0.15862795542031027,-4.6343228895708966e-2
0.16093181534562695,-4.611434191417163e-2
0.16323567527094363,-4.659184829417595e-2
0.16553953519626008,-4.9064606740517824e-2
0.16784339512157664,-4.904184783188725e-2
0.1701472550468931,-4.8728658306953165e-2
0.17245111497220966,-4.856087716767721e-2
0.17475497489752612,-5.048110002008954e-2
0.1770588348228428,-5.111252206829364e-2
0.17936269474815925,-5.0328168119398886e-2
0.18166655467347592,-4.889120036117012e-2
0.18397041459879238,-4.934856952966726e-2
0.18627427452410894,-4.913270691237592e-2
0.1885781344494254,-4.884860007138625e-2
0.19088199437474196,-4.759165230560558e-2
0.1931858543000584,-4.749908967887406e-2
0.1954897142253751,-4.736761948205681e-2
0.19779357415069176,-4.7031775717018e-2
0.20009743407600822,-4.70277862628391e-2
0.20240129400132478,-4.762310598893771e-2
0.20470515392664124,-4.6940756114071336e-2
0.2070090138519578,-4.925073729913476e-2
0.20931287377727426,-5.7158539926948526e-2
0.21161673370259093,-5.130632332428764e-2
0.21392059362790738,-4.659990645749923e-2
0.21622445355322406,-4.7223216517119804e-2
0.21852831347854051,-5.1775871613594204e-2
0.22083217340385708,-4.779225850097846e-2
0.22313603332917353,-4.6468233470553955e-2
0.2254398932544901,-4.640401009898165e-2
0.22774375317980677,-4.621687451271772e-2
0.23004761310512323,-4.781426331467342e-2
0.2323514730304399,-4.710159141971604e-2
0.23465533295575636,-4.7605033772095684e-2
0.23695919288107292,-4.658106951313423e-2
0.23926305280638938,-4.7928345865031474e-2
0.24156691273170594,-4.680252626694226e-2
0.2438707726570224,-4.727240902099805e-2
0.24617463258233885,-4.758186872900105e-2
0.24847849250765552,-4.861456181685264e-2
0.250782352432972,-5.054693822306522e-2
0.25308621235828865,-4.9571579635260266e-2
0.2553900722836051,-5.0579667907394654e-2
0.2576939322089218,-4.865126766067318e-2
0.259997792134238,-5.246833333080614e-2
0.2623016520595547,-5.394912985726408e-2
0.26460551198487114,-5.2111786312422304e-2
0.2669093719101878,-5.170629956627215e-2
0.2692132318355043,-5.251508308933328e-2
0.27151709176082095,-5.3243655319412775e-2
0.2738209516861374,-5.1076477488675054e-2
0.27612481161145386,-5.1209772710827384e-2
0.27842867153677053,-5.089657471766629e-2
0.280732531462087,-5.067662653240612e-2
0.28303639138740366,-5.418985083842964e-2
0.2853402513127201,-5.336389668310437e-2
0.2876441112380368,-5.1913852930062454e-2
0.28994797116335325,-4.941006718092511e-2
0.2922518310886697,-4.884098755025279e-2
0.2945556910139864,-4.8984094750104346e-2
0.29685955093930283,-5.091091699139838e-2
0.2991634108646193,-5.1360630777151695e-2
0.30146727078993596,-5.313643212273511e-2
0.3037711307152524,-4.952318691410984e-2
0.3060749906405691,-4.851491753607229e-2
0.30837885056588554,-5.167992566306334e-2
0.3106827104912022,-4.8380964637762425e-2
0.3129865704165187,-4.8145575559678244e-2
0.3152904303418351,-4.7603792821295676e-2
0.3175942902671518,-4.706997888790032e-2
0.31989815019246826,-4.723746227838832e-2
0.32220201011778493,-4.7029114622841206e-2
0.3245058700431014,-4.8291825739865346e-2
0.32680972996841806,-4.777606515849242e-2
0.3291135898937343,-5.058693691723415e-2
0.33141744981905097,-4.974965158659117e-2
0.3337213097443674,-4.863837600642218e-2
0.3360251696696841,-5.032731838815341e-2
0.3383290295950008,-5.288631673742428e-2
0.34063288952031723,-5.210008959995038e-2
0.3429367494456339,-5.057389218554864e-2
0.34524060937095014,-5.3298783096717095e-2
0.3475444692962668,-5.1684385576720504e-2
0.34984832922158327,-4.759832575672207e-2
0.35215218914689994,-4.787521848772702e-2
0.3544560490722164,-5.095089292227206e-2
0.35675990899753307,-4.676924994381515e-2
0.3590637689228495,-4.700138988016567e-2
0.361367628848166,-4.67355154951159e-2
0.36367148877348265,-4.6726316403957635e-2
0.3659753486987991,-4.843068007305629e-2
0.36827920862411556,-4.6598765028847966e-2
0.37058306854943224,-4.855792579725715e-2
0.3728869284747489,-4.697235328897953e-2
0.37519078840006537,-4.708715645346995e-2
0.3774946483253818,-5.078610586422416e-2
0.3797985082506985,-5.256747226682068e-2
0.38210236817601495,-4.852889008188188e-2
0.3844062281013314,-4.774286978113229e-2
0.3867100880266481,-4.750640106756021e-2
0.38901394795196453,-4.7549928224278615e-2
0.391317807877281,-5.83362051277625e-2
0.39362166780259766,-4.899560255304525e-2
0.3959255277279141,-4.99531512669521e-2
0.39822938765323057,-4.849684989594971e-2
0.40053324757854725,-5.952233883967395e-2
0.4028371075038639,-5.2626107533175204e-2
0.40514096742918015,-4.595431127243965e-2
0.40744482735449705,-4.61769620996334e-2
0.4097486872798133,-4.657873277370295e-2
0.4120525472051302,-4.554911166962616e-2
0.4143564071304464,-4.619854519605748e-2
0.4166602670557631,-4.623410339810585e-2
0.4189641269810793,-4.7656396610900376e-2
0.4212679869063962,-4.6516303098116496e-2
0.42357184683171245,-4.657808912228556e-2
0.42587570675702935,-4.572960714961716e-2
0.4281795666823456,-4.6199273690208376e-2
0.43048342660766226,-4.5587924412860525e-2
0.4327872865329787,-4.811810469112421e-2
0.4350911464582954,-6.328273474075086e-2"/>
  </g>
  <g stroke-opacity="0.5" stroke="#431712" stroke-width="7.0e-3" fill="none">
    <polyline points="-0.7145349562746587,-5.9300647493736425e-2
-0.7122310963493421,-5.955956828472042e-2
-0.7099272364240256,-5.9445502411192175e-2
-0.707623376498709,-5.927204258429386e-2
-0.7053195165733925,-5.925309538181622e-2
-0.703015656648076,-5.92621004432744e-2
-0.7007117967227594,-5.923442320199568e-2
-0.6984079367974428,-5.9291182866691994e-2
-0.6961040768721263,-5.926675536357795e-2
-0.6938002169468098,-5.921560818793781e-2
-0.6914963570214933,-5.921685443219904e-2
-0.6891924970961767,-5.922330962197464e-2
-0.6868886371708601,-5.9217975076305884e-2
-0.6845847772455436,-5.938868439245015e-2
-0.6822809173202271,-5.9368885357586e-2
-0.6799770573949105,-5.9415436514378195e-2
-0.677673197469594,-6.021233813338056e-2
-0.6753693375442774,-6.1266025609913344e-2
-0.673065477618961,-5.9836928876245254e-2
-0.6707616176936444,-6.0517132771229276e-2
-0.6684577577683278,-6.066248775093985e-2
-0.6661538978430113,-6.0031868401153154e-2
-0.6638500379176948,-6.0988024254572726e-2
-0.6615461779923782,-6.0348453892145604e-2
-0.6592423180670617,-5.989707456131699e-2
-0.6569384581417451,-5.969064166204996e-2
-0.6546345982164286,-6.04315463614824e-2
-0.6523307382911121,-6.029095414186536e-2
-0.6500268783657955,-5.970071495400753e-2
-0.647723018440479,-5.986670099947988e-2
-0.6454191585151624,-5.963416691888879e-2
-0.6431152985898458,-5.9715930164951914e-2
-0.6408114386645294,-5.952066982276427e-2
-0.6385075787392128,-5.933979553819224e-2
-0.6362037188138963,-5.93343577677814e-2
-0.6338998588885797,-5.942470435941194e-2
-0.6315959989632631,-5.96056563227777e-2
-0.6292921390379467,-5.961057963100691e-2
-0.6269882791126301,-5.9999967908319074e-2
-0.6246844191873135,-5.994110391179963e-2
-0.622380559261997,-5.9633023364106585e-2
-0.6200766993366804,-5.9611532355145935e-2
-0.617772839411364,-5.983808903260479e-2
-0.6154689794860474,-5.976647738148544e-2
-0.6131651195607308,-5.999647746072834e-2
-0.6108612596354144,-6.0080318394529875e-2
-0.6085573997100978,-5.9670094811199226e-2
-0.6062535397847812,-5.959060563427787e-2
-0.6039496798594648,-5.960247442005395e-2
-0.6016458199341481,-5.941513871734927e-2
-0.5993419600088317,-5.9308048299059335e-2
-0.5970381000835151,-5.9298857502750324e-2
-0.5947342401581985,-5.9296008311852e-2
-0.592430380232882,-5.9361669276789764e-2
-0.5901265203075654,-5.93211901696703e-2
-0.587822660382249,-5.9333460588158804e-2
-0.5855188004569324,-5.936828902923652e-2
-0.5832149405316158,-5.929711464638754e-2
-0.5809110806062993,-5.93262359042519e-2
-0.5786072206809827,-5.9301362987437045e-2
-0.5763033607556662,-5.932177546404804e-2
-0.5739995008303497,-5.9351238141137186e-2
-0.5716956409050331,-5.955135822343405e-2
-0.5693917809797165,-5.933272232747866e-2
-0.5670879210544,-5.943501228531012e-2
-0.5647840611290835,-5.9294684200667414e-2
-0.562480201203767,-5.9268890836487564e-2
-0.5601763412784504,-5.926782726938762e-2
-0.5578724813531338,-5.926211526252023e-2
-0.5555686214278173,-5.92586130801267e-2
-0.5532647615025008,-5.92671379214913e-2
-0.5509609015771842,-5.926964845390292e-2
-0.5486570416518677,-5.927631316653792e-2
-0.5463531817265511,-5.925697040785316e-2
-0.5440493218012346,-5.926214270677377e-2
-0.5417454618759181,-5.9257495799831084e-2
-0.5394416019506015,-5.9254946114672524e-2
-0.537137742025285,-5.926633755929378e-2
-0.5348338820999685,-5.926080945970014e-2
-0.5325300221746518,-5.9307314591813154e-2
-0.5302261622493354,-5.92928325210168e-2
-0.5279223023240188,-5.950952543072996e-2
-0.5256184423987023,-5.946657375654851e-2
-0.5233145824733857,-5.968698556782093e-2
-0.5210107225480691,-5.9524243057688886e-2
-0.5187068626227527,-5.951250559338239e-2
-0.516403002697436,-5.9451173862519635e-2
-0.5140991427721195,-5.9569215041601065e-2
-0.5117952828468031,-5.938760143860211e-2
-0.5094914229214865,-5.9283499689297026e-2
-0.50718756299617,-5.924960232760357e-2
-0.5048837030708534,-5.925603108931876e-2
-0.5025798431455368,-5.925478091647629e-2
-0.5002759832202204,-5.9253182673947746e-2
-0.4979721232949038,-5.925585306078096e-2
-0.49566826336958725,-5.924906590107548e-2
-0.4933644034442707,-5.9266856218164854e-2
-0.4910605435189542,-5.927970346838041e-2
-0.4887566835936376,-5.924959807204744e-2
-0.4864528236683211,-5.924491880613425e-2
-0.48414896374300453,-5.924890365029234e-2
-0.481845103817688,-5.927434468417636e-2
-0.47954124389237146,-5.938348184358555e-2
-0.4772373839670549,-5.932384408770541e-2
-0.47493352404173844,-5.925132370281738e-2
-0.47262966411642193,-5.923725735618912e-2
-0.47032580419110537,-5.924008780673207e-2
-0.4680219442657888,-5.9236110681141985e-2
-0.46571808434047224,-5.9253490496985806e-2
-0.46341422441515573,-5.928993231166613e-2
-0.46111036448983916,-5.9328518570759825e-2
-0.45880650456452265,-5.936420877693105e-2
-0.4565026446392061,-5.934876207079931e-2
-0.4541987847138896,-5.931681818996226e-2
-0.45189492478857296,-5.924220697303839e-2
-0.44959106486325645,-5.9233930427357584e-2
-0.44728720493793994,-5.924649730977727e-2
-0.4449833450126234,-5.9235169234218676e-2
-0.4426794850873068,-5.9236342781883056e-2
-0.4403756251619903,-5.925499447194271e-2
-0.4380717652366738,-5.9272945190452786e-2
-0.4357679053113572,-5.929040949248332e-2
-0.43346404538604066,-5.927824389466718e-2
-0.4311601854607241,-5.9255052406865016e-2
-0.4288563255354076,-5.93215341658585e-2
-0.426552465610091,-5.9460240234573636e-2
-0.4242486056847745,-5.944987843747074e-2
-0.42194474575945795,-5.958476202792451e-2
-0.4196408858341414,-5.94409622674249e-2
-0.4173370259088248,-5.942807905745817e-2
-0.4150331659835083,-5.93776571638136e-2
-0.4127293060581918,-5.9316443493176885e-2
-0.41042544613287524,-5.926362630566662e-2
-0.4081215862075587,-5.924318563221598e-2
-0.4058177262822421,-5.9251344041096776e-2
-0.4035138663569256,-5.928022163285973e-2
-0.40121000643160903,-5.9277497481370456e-2
-0.3989061465062925,-5.934383341363103e-2
-0.39660228658097596,-5.933740691982747e-2
-0.39429842665565945,-5.925543277832801e-2
-0.3919945667303429,-5.930948663613289e-2
-0.3896907068050263,-5.931926804966603e-2
-0.3873868468797098,-5.946717594906592e-2
-0.38508298695439325,-5.943964622244813e-2
-0.3827791270290768,-5.934683391254103e-2
-0.38047526710376023,-5.93133816194793e-2
-0.37817140717844366,-5.9263336963936486e-2
-0.37586754725312715,-5.9287154853768564e-2
-0.37356368732781053,-5.927952884847476e-2
-0.371259827402494,-5.93218075161458e-2
-0.3689559674771775,-5.930550032899495e-2
-0.36665210755186095,-5.930680412611877e-2
-0.3643482476265444,-5.923160867338839e-2
-0.3620443877012279,-5.9253635601495436e-2
-0.35974052777591137,-5.926188901522922e-2
-0.3574366678505948,-5.928379427702146e-2
-0.35513280792527824,-6.03155742353102e-2
-0.35282894799996173,-6.153811071567694e-2
-0.3505250880746452,-6.052788955624766e-2
-0.34822122814932865,-6.087577005906075e-2
-0.3459173682240121,-5.9738627553916235e-2
-0.3436135082986956,-5.975448025825714e-2
-0.34130964837337896,-6.0353391344677876e-2
-0.3390057884480624,-6.037404015174663e-2
-0.3367019285227459,-6.060246872589725e-2
-0.3343980685974294,-6.0919380881039875e-2
-0.3320942086721128,-6.28204490364167e-2
-0.32979034874679625,-6.1288791182578684e-2
-0.32748648882147974,-6.238278678851972e-2
-0.32518262889616323,-6.28573770888462e-2
-0.32287876897084666,-6.1583126809289124e-2
-0.3205749090455301,-6.089400678193524e-2
-0.3182710491202136,-6.035380883482766e-2
-0.3159671891948971,-6.0636202697972874e-2
-0.3136633292695805,-6.036743314992887e-2
-0.31135946934426395,-6.010674377852199e-2
-0.30905560941894744,-5.9494219707575735e-2
-0.30675174949363093,-5.954362594858509e-2
-0.30444788956831437,-5.9758102324442786e-2
-0.3021440296429978,-6.041639286951028e-2
-0.2998401697176813,-6.047699109607241e-2
-0.2975363097923648,-6.082222958548544e-2
-0.2952324498670482,-6.0309595358078005e-2
-0.29292858994173165,-6.021728889014488e-2
-0.29062473001641514,-6.0921846536054036e-2
-0.28832087009109864,-6.1884581025970276e-2
-0.28601701016578207,-6.166295848425052e-2
-0.28371315024046545,-6.20489053836587e-2
-0.28140929031514894,-6.103678627616904e-2
-0.2791054303898324,-6.0856431959236845e-2
-0.2768015704645158,-5.989881718607015e-2
-0.2744977105391993,-5.996088994174931e-2
-0.2721938506138828,-5.974007430924044e-2
-0.26988999068856623,-5.9532213778840104e-2
-0.26758613076324966,-6.027142635819738e-2
-0.26528227083793315,-6.032080565175557e-2
-0.26297841091261664,-6.126350551922266e-2
-0.2606745509873001,-6.1151987490608795e-2
-0.2583706910619835,-6.115000766544587e-2
-0.256066831136667,-6.086616265271916e-2
-0.2537629712113504,-6.085988537856346e-2
-0.2514591112860338,-6.175129541050617e-2
-0.24915525136071737,-6.290950764088232e-2
-0.2468513914354008,-6.285316928212947e-2
-0.24454753151008424,-6.38386977097678e-2
-0.24224367158476767,-6.494659895331167e-2
-0.2399398116594511,-6.649692868260793e-2
-0.23763595173413465,-6.862792974697673e-2
-0.2353320918088182,-6.31919578228135e-2
-0.23302823188350164,-6.26059983590469e-2
-0.23072437195818507,-6.26259938189887e-2
-0.2284205120328685,-6.2101446564072016e-2
-0.22611665210755194,-6.19960146514319e-2
-0.22381279218223538,-6.318514354834581e-2
-0.2215089322569188,-6.120099356442965e-2
-0.21920507233160236,-6.0909023662800155e-2
-0.2169012124062858,-6.056331642655399e-2
-0.21459735248096923,-6.042922299556641e-2
-0.21229349255565277,-6.0296039496454124e-2
-0.2099896326303362,-6.028973931192372e-2
-0.20768577270501964,-6.0415374590041315e-2
-0.20538191277970308,-6.0131583906245956e-2
-0.20307805285438651,-6.007753770927848e-2
-0.20077419292907006,-5.992917626478911e-2
-0.1984703330037535,-5.9748654914158594e-2
-0.19616647307843693,-5.9917100649049426e-2
-0.19386261315312037,-5.9878544050289695e-2
-0.1915587532278038,-5.985518028026826e-2
-0.18925489330248724,-5.974748819355791e-2
-0.18695103337717067,-5.983428703164484e-2
-0.18464717345185422,-5.9851945676348106e-2
-0.18234331352653765,-5.967988677572933e-2
-0.1800394536012211,-5.964499464376849e-2
-0.17773559367590464,-5.96440132859164e-2
-0.17543173375058807,-5.964785112775317e-2
-0.1731278738252714,-5.9664812288987124e-2
-0.17082401389995483,-5.965367886133788e-2
-0.16852015397463838,-5.963692569003465e-2
-0.1662162940493218,-5.963615266966493e-2
-0.16391243412400536,-5.963558158723159e-2
-0.1616085741986888,-5.966394495951033e-2
-0.15930471427337234,-5.968402662867667e-2
-0.15700085434805577,-5.966283681895557e-2
-0.1546969944227392,-5.9756084996872905e-2
-0.15239313449742264,-5.977135690899926e-2
-0.15008927457210608,-5.9791097265962545e-2
-0.14778541464678963,-5.9740849520429684e-2
-0.14548155472147306,-5.9820470589790675e-2
-0.1431776947961565,-5.983421058565097e-2
-0.14087383487083993,-5.981655405194619e-2
-0.13856997494552337,-5.980344904920709e-2
-0.1362661150202068,-5.975992333276248e-2
-0.13396225509489024,-5.9852658626018185e-2
-0.13165839516957378,-5.978645593372389e-2
-0.12935453524425722,-5.9766743282159474e-2
-0.12705067531894065,-5.9689406045012716e-2
-0.1247468153936242,-5.963505327227303e-2
-0.12244295546830763,-5.962893799974178e-2
-0.12013909554299107,-5.970791715476298e-2
-0.1178352356176745,-5.9738896885698e-2
-0.11553137569235794,-5.983319611411353e-2
-0.11322751576704149,-5.981275630640248e-2
-0.11092365584172492,-5.9891944350492166e-2
-0.10861979591640836,-5.995728345373186e-2
-0.10631593599109179,-5.9945382486475296e-2
-0.10401207606577523,-5.987793531894403e-2
-0.10170821614045866,-6.009557143661792e-2
-9.94043562151421e-2,-5.970140766463916e-2
-9.710049628982564e-2,-5.9688577232253515e-2
-9.479663636450908e-2,-5.977473436057823e-2
-9.249277643919251e-2,-5.9704624126132755e-2
-9.018891651387606e-2,-5.9746421953828954e-2
-8.78850565885595e-2,-5.984676176682491e-2
-8.558119666324293e-2,-6.0080238030336464e-2
-8.327733673792637e-2,-6.006741956869899e-2
-8.09734768126098e-2,-6.010959786780423e-2
-7.866961688729335e-2,-6.015143616312324e-2
-7.636575696197667e-2,-6.026802723773983e-2
-7.406189703666022e-2,-6.0282166202641596e-2
-7.175803711134365e-2,-6.008742947422274e-2
-6.945417718602709e-2,-6.016585343498826e-2
-6.715031726071052e-2,-6.0151523542417484e-2
-6.484645733539396e-2,-6.032675192463577e-2
-6.25425974100775e-2,-6.028754710967854e-2
-6.023873748476094e-2,-6.0284882976363474e-2
-5.7934877559444375e-2,-6.01979696001288e-2
-5.563101763412792e-2,-6.022736042129184e-2
-5.332715770881136e-2,-6.0240290489491644e-2
-5.10232977834949e-2,-6.05011997665299e-2
-4.871943785817834e-2,-6.0400074624114786e-2
-4.641557793286177e-2,-6.036642559588046e-2
-4.411171800754521e-2,-6.050385057790597e-2
-4.1807858082228755e-2,-6.051860755063054e-2
-3.950399815691219e-2,-6.052894947417675e-2
-3.7200138231595625e-2,-6.024539090704417e-2
-3.489627830627917e-2,-6.016661598795858e-2
-3.259241838096261e-2,-6.0434861633518966e-2
-3.0288558455646042e-2,-6.026375898876135e-2
-2.7984698530329366e-2,-5.9834914799905214e-2
-2.5680838605012912e-2,-5.98050718908224e-2
-2.3376978679696347e-2,-5.976206475062651e-2
-2.1073118754379783e-2,-5.980156984134344e-2
-1.876925882906333e-2,-5.967277234836399e-2
-1.6465398903746764e-2,-5.963837502180791e-2
-1.41615389784302e-2,-5.9644591334782615e-2
-1.1857679053113634e-2,-5.9700062357603945e-2
-9.55381912779707e-3,-5.9646875936536836e-2
-7.249959202480616e-3,-5.962428745691739e-2
-4.946099277164051e-3,-5.964455862187468e-2
-2.6422393518474863e-3,-5.9627626006511836e-2
-3.383794265310325e-4,-5.9630760526552806e-2
1.9654804987856433e-3,-5.9623951903955086e-2
4.269340424102097e-3,-5.969277782100901e-2
6.573200349418773e-3,-5.9794134603194715e-2
8.877060274735227e-3,-5.975849884152551e-2
1.1180920200051792e-2,-6.002632872586111e-2
1.3484780125368245e-2,-6.010031318482323e-2
1.578864005068481e-2,-5.963577054867364e-2
1.8092499976001264e-2,-5.9572031415709215e-2
2.039635990131794e-2,-5.955932569057576e-2
2.2700219826634616e-2,-5.960053304129964e-2
2.500407975195107e-2,-5.9644589200647524e-2
2.7307939677267634e-2,-5.963571342719798e-2
2.9611799602584088e-2,-5.96094065015923e-2
3.191565952790065e-2,-5.965023769578748e-2
3.4219519453217107e-2,-5.9625989058980644e-2
3.652337937853378e-2,-5.96322900660865e-2
3.8827239303850236e-2,-5.9768211807469496e-2
4.113109922916691e-2,-5.981873271577831e-2
4.3434959154483366e-2,-6.003437798907929e-2
4.573881907979993e-2,-5.998210663598047e-2
4.8042679005116384e-2,-5.992102297786006e-2
5.034653893043295e-2,-5.970163724137412e-2
5.2650398855749625e-2,-5.967548292244074e-2
5.495425878106608e-2,-5.972928337297523e-2
5.7258118706382755e-2,-5.9832062397399466e-2
5.956197863169921e-2,-6.000747087646097e-2
6.186583855701577e-2,-6.007603617296642e-2
6.416969848233223e-2,-6.030596690806711e-2
6.647355840764879e-2,-6.0216146470611465e-2
6.877741833296525e-2,-6.0035780058320554e-2
7.108127825828192e-2,-6.005463190213156e-2
7.338513818359838e-2,-6.017605129871351e-2
7.568899810891505e-2,-6.023187091138871e-2
7.79928580342315e-2,-6.03750116774695e-2
8.029671795954807e-2,-6.035477502604625e-2
8.260057788486463e-2,-6.020297991946255e-2
8.490443781018109e-2,-5.9974666863444104e-2
8.720829773549776e-2,-6.005841441001436e-2
8.951215766081422e-2,-5.987226478521679e-2
9.18160175861309e-2,-5.992651638761448e-2
9.411987751144713e-2,-6.009771209251902e-2
9.64237374367638e-2,-6.022996212732945e-2
9.872759736208037e-2,-6.003234153011627e-2
0.10103145728739682,-6.024412517837563e-2
0.10333531721271338,-6.0163681290596904e-2
0.10563917713802984,-6.0059173351903916e-2
0.10794303706334651,-5.9765693229729355e-2
0.11024689698866297,-5.9635946133809625e-2
0.11255075691397964,-5.9602582821202676e-2
0.1148546168392961,-5.9962755246964816e-2
0.11715847676461266,-5.965884708402169e-2
0.11946233668992912,-5.964919017426795e-2
0.12176619661524568,-5.949626814969433e-2
0.12407005654056213,-5.950450914145278e-2
0.1263739164658788,-5.962338284627211e-2
0.12867777639119526,-5.947185763947638e-2
0.13098163631651194,-5.984425855330344e-2
0.1332854962418285,-5.9782089973902885e-2
0.13558935616714496,-5.9507983173251566e-2
0.13789321609246152,-5.941152170090669e-2
0.14019707601777798,-5.9457141298332794e-2
0.14250093594309465,-5.940564540868076e-2
0.1448047958684111,-5.940808823073773e-2
0.14710865579372778,-5.972215870646824e-2
0.14941251571904424,-5.9508815970625184e-2
0.1517163756443608,-5.956087320426895e-2
0.15402023556967726,-5.946425954299328e-2
0.15632409549499382,-5.93650360458432e-2
0.15862795542031027,-5.936411975444578e-2
0.16093181534562695,-5.93982497892771e-2
0.16323567527094363,-5.935380297671922e-2
0.16553953519626008,-5.9411107984609135e-2
0.16784339512157664,-5.94158358412149e-2
0.1701472550468931,-5.9410451044745516e-2
0.17245111497220966,-5.940932844465763e-2
0.17475497489752612,-5.949031486618772e-2
0.1770588348228428,-5.952764693239854e-2
0.17936269474815925,-5.950710938789383e-2
0.18166655467347592,-5.94538948816874e-2
0.18397041459879238,-5.948241639442342e-2
0.18627427452410894,-5.948014281837488e-2
0.1885781344494254,-5.9473329087593396e-2
0.19088199437474196,-5.940818104480272e-2
0.1931858543000584,-5.940320666079457e-2
0.1954897142253751,-5.935277467088562e-2
0.19779357415069176,-5.937374806132378e-2
0.20009743407600822,-5.935876457341516e-2
0.20240129400132478,-5.9348850881824955e-2
0.20470515392664124,-5.9352684012231705e-2
0.2070090138519578,-5.93755913941445e-2
0.20931287377727426,-5.9637561559240826e-2
0.21161673370259093,-5.947944014915252e-2
0.21392059362790738,-5.9328010238420825e-2
0.21622445355322406,-5.9356292812388634e-2
0.21852831347854051,-5.957371065146555e-2
0.22083217340385708,-5.941449199671678e-2
0.22313603332917353,-5.93453892441852e-2
0.2254398932544901,-5.930084873063168e-2
0.22774375317980677,-5.930075779464172e-2
0.23004761310512323,-5.9328200642925766e-2
0.2323514730304399,-5.9312963282296516e-2
0.23465533295575636,-5.932751054209007e-2
0.23695919288107292,-5.9303417469008135e-2
0.23926305280638938,-5.934233678944256e-2
0.24156691273170594,-5.931231268968529e-2
0.2438707726570224,-5.9328388887336714e-2
0.24617463258233885,-5.9340926946630734e-2
0.24847849250765552,-5.937901704172677e-2
0.250782352432972,-5.94516121964187e-2
0.25308621235828865,-5.9429742192307566e-2
0.2553900722836051,-5.947545095671969e-2
0.2576939322089218,-5.9416342449727044e-2
0.259997792134238,-5.958275012092351e-2
0.2623016520595547,-5.965791471432691e-2
0.26460551198487114,-5.9612655703917716e-2
0.2669093719101878,-5.961523387969614e-2
0.2692132318355043,-5.966857808936221e-2
0.27151709176082095,-5.9720911451e-2
0.2738209516861374,-5.965043457580199e-2
0.27612481161145386,-5.967511720275942e-2
0.27842867153677053,-5.967751474800942e-2
0.280732531462087,-5.9683244059375085e-2
0.28303639138740366,-5.989038238103506e-2
0.2853402513127201,-5.9883953754416464e-2
0.2876441112380368,-5.9841562245198876e-2
0.28994797116335325,-5.970674938031151e-2
0.2922518310886697,-5.964782243491895e-2
0.2945556910139864,-5.968806839343721e-2
0.29685955093930283,-5.9889955676782125e-2
0.2991634108646193,-5.994142752834297e-2
0.30146727078993596,-6.0068142199385166e-2
0.3037711307152524,-5.9891100369413586e-2
0.3060749906405691,-5.961373340199638e-2
0.30837885056588554,-5.946940854401428e-2
0.3106827104912022,-5.957218987015733e-2
0.3129865704165187,-5.959201081600429e-2
0.3152904303418351,-5.981259208059608e-2
0.3175942902671518,-5.9697909072063515e-2
0.31989815019246826,-5.96519681240818e-2
0.32220201011778493,-5.9711555971317054e-2
0.3245058700431014,-5.995563558659589e-2
0.32680972996841806,-5.993193135818031e-2
0.3291135898937343,-6.0175108741372996e-2
0.33141744981905097,-6.015590151530448e-2
0.3337213097443674,-6.010528778478674e-2
0.3360251696696841,-6.026008595157195e-2
0.3383290295950008,-6.0451313171726695e-2
0.34063288952031723,-6.045215734899889e-2
0.3429367494456339,-6.040064348403085e-2
0.34524060937095014,-6.061377363779952e-2
0.3475444692962668,-6.056870803404302e-2
0.34984832922158327,-6.0236695491282966e-2
0.35215218914689994,-6.033206532125257e-2
0.3544560490722164,-6.069950489299758e-2
0.35675990899753307,-6.028272962582171e-2
0.3590637689228495,-6.040670339804255e-2
0.361367628848166,-6.0236027740049325e-2
0.36367148877348265,-6.0419406603209436e-2
0.3659753486987991,-6.07106128283037e-2
0.36827920862411556,-6.0506262159793156e-2
0.37058306854943224,-6.0825277809330225e-2
0.3728869284747489,-6.0684954509739764e-2
0.37519078840006537,-6.073780493445757e-2
0.3774946483253818,-6.116768224427671e-2
0.3797985082506985,-6.135623392166922e-2
0.38210236817601495,-6.110622649874009e-2
0.3844062281013314,-6.1061845431099826e-2
0.3867100880266481,-6.1072013156605154e-2
0.38901394795196453,-6.047660479652306e-2
0.391317807877281,-5.981183305307114e-2
0.39362166780259766,-6.007638358767731e-2
0.3959255277279141,-6.001761458414201e-2
0.39822938765323057,-6.0098963809983696e-2
0.40053324757854725,-5.9601726238032504e-2
0.4028371075038639,-5.9697804483718975e-2
0.40514096742918015,-6.006107352635892e-2
0.40744482735449705,-6.0472919150560855e-2
0.4097486872798133,-6.0589171815468634e-2
0.4120525472051302,-6.0280813989238013e-2
0.4143564071304464,-6.05681167875457e-2
0.4166602670557631,-6.060479544758579e-2
0.4189641269810793,-6.089352037590734e-2
0.4212679869063962,-6.074252091463428e-2
0.42357184683171245,-6.078867121330245e-2
0.42587570675702935,-6.057652978634065e-2
0.4281795666823456,-6.0768213260803505e-2
0.43048342660766226,-6.051195999432901e-2
0.4327872865329787,-6.001538041331533e-2
0.4350911464582954,-5.953890564430908e-2"/>
  </g>
  <g stroke-opacity="0.5" fill-opacity="1.0" stroke="#3764a0" stroke-width="4.0e-3" fill="#ffffff">
    <rect height="0.1342572542226072" width="0.19784397108655827" x="0.5394847993242009" y="-6.74465492280435e-2"/>
  </g>
  <g fill-opacity="1.0" font-size="4.000000000000001e-2" stroke="none" stroke-width="0.0" fill="#666666" text-anchor="start">
    <text x="0.5510040989507838" y="3.1297495813099874e-2">rate = 0.99
    </text>
  </g>
  <g stroke-opacity="0.5" stroke="#431712" stroke-width="6.999999999999999e-3" fill="none">
    <polyline points="0.7007549940963589,2.5580735310717917e-2
0.7237935933495243,2.5580735310717917e-2"/>
  </g>
  <g fill-opacity="1.0" font-size="4.000000000000001e-2" stroke="none" stroke-width="0.0" fill="#666666" text-anchor="start">
    <text x="0.5510040989507838" y="-1.8074526707471894e-2">rate = 0.95
    </text>
  </g>
  <g stroke-opacity="0.5" stroke="#4b2282" stroke-width="6.999999999999999e-3" fill="none">
    <polyline points="0.7007549940963589,-2.3791287209853795e-2
0.7237935933495243,-2.3791287209853795e-2"/>
  </g>
</svg>