
<svg xmlns="http://www.w3.org/2000/svg" height="300.0" viewBox="-0.86625 -0.7297956892248981 1.72 1.2760456892248981" width="450.0" xmlns:xlink="http://www.w3.org/1999/xlink">
  <g transform="translate(-6.249999999999978e-3, -0.5499999999999999)" fill-opacity="1.0" font-size="0.12" stroke="none" stroke-width="0.0" fill="#000000" text-anchor="middle">
    <text transform="rotate(0.0, 0.0, -4.879568922489819e-2)" x="0.0" y="-4.879568922489819e-2">most recent moving histogram
    </text>
  </g>
  <g stroke-opacity="0.0" fill-opacity="3.0e-2" stroke="#000000" stroke-width="0.0" fill="#666666">
    <rect height="0.893473882722974" width="1.5" x="-0.75" y="-0.4955326305863852"/>
  </g>
  <g stroke-opacity="0.3" stroke="#a8e5ee" stroke-width="5.0e-3" fill="none">
    <polyline points="-0.75,0.40240862155020374
-0.75,-0.4999999999999999"/>
  </g>
  <g stroke-opacity="0.3" stroke="#a8e5ee" stroke-width="5.0e-3" fill="none">
    <polyline points="-0.6000000000000001,0.40240862155020374
-0.6000000000000001,-0.4999999999999999"/>
  </g>
  <g stroke-opacity="0.3" stroke="#a8e5ee" stroke-width="5.0e-3" fill="none">
    <polyline points="-0.44999999999999996,0.40240862155020374
-0.44999999999999996,-0.4999999999999999"/>
  </g>
  <g stroke-opacity="0.3" stroke="#a8e5ee" stroke-width="5.0e-3" fill="none">
    <polyline points="-0.29999999999999993,0.40240862155020374
-0.29999999999999993,-0.4999999999999999"/>
  </g>
  <g stroke-opacity="0.3" stroke="#a8e5ee" stroke-width="5.0e-3" fill="none">
    <polyline points="-0.1499999999999999,0.40240862155020374
-0.1499999999999999,-0.4999999999999999"/>
  </g>
  <g stroke-opacity="0.3" stroke="#a8e5ee" stroke-width="5.0e-3" fill="none">
    <polyline points="0.0,0.40240862155020374
0.0,-0.4999999999999999"/>
  </g>
  <g stroke-opacity="0.3" stroke="#a8e5ee" stroke-width="5.0e-3" fill="none">
    <polyline points="0.15000000000000013,0.40240862155020374
0.15000000000000013,-0.4999999999999999"/>
  </g>
  <g stroke-opacity="0.3" stroke="#a8e5ee" stroke-width="5.0e-3" fill="none">
    <polyline points="0.30000000000000004,0.40240862155020374
0.30000000000000004,-0.4999999999999999"/>
  </g>
  <g stroke-opacity="0.3" stroke="#a8e5ee" stroke-width="5.0e-3" fill="none">
    <polyline points="0.4500000000000002,0.40240862155020374
0.4500000000000002,-0.4999999999999999"/>
  </g>
  <g stroke-opacity="0.3" stroke="#a8e5ee" stroke-width="5.0e-3" fill="none">
    <polyline points="0.6000000000000001,0.40240862155020374
0.6000000000000001,-0.4999999999999999"/>
  </g>
  <g stroke-opacity="0.3" stroke="#a8e5ee" stroke-width="5.0e-3" fill="none">
    <polyline points="0.75,0.40240862155020374
0.75,-0.4999999999999999"/>
  </g>
  <g fill-opacity="1.0" font-size="5.0e-2" stroke="none" stroke-width="0.0" fill="#666666" text-anchor="middle">
    <text x="-0.75" y="0.5">-100%
    </text>
  </g>
  <g fill-opacity="1.0" font-size="5.0e-2" stroke="none" stroke-width="0.0" fill="#666666" text-anchor="middle">
    <text x="-0.6000000000000001" y="0.5">-80%
    </text>
  </g>
  <g fill-opacity="1.0" font-size="5.0e-2" stroke="none" stroke-width="0.0" fill="#666666" text-anchor="middle">
    <text x="-0.44999999999999996" y="0.5">-60%
    </text>
  </g>
  <g fill-opacity="1.0" font-size="5.0e-2" stroke="none" stroke-width="0.0" fill="#666666" text-anchor="middle">
    <text x="-0.29999999999999993" y="0.5">-40%
    </text>
  </g>
  <g fill-opacity="1.0" font-size="5.0e-2" stroke="none" stroke-width="0.0" fill="#666666" text-anchor="middle">
    <text x="-0.1499999999999999" y="0.5">-20%
    </text>
  </g>
  <g fill-opacity="1.0" font-size="5.0e-2" stroke="none" stroke-width="0.0" fill="#666666" text-anchor="middle">
    <text x="0.0" y="0.5">0%
    </text>
  </g>
  <g fill-opacity="1.0" font-size="5.0e-2" stroke="none" stroke-width="0.0" fill="#666666" text-anchor="middle">
    <text x="0.15000000000000013" y="0.5">20%
    </text>
  </g>
  <g fill-opacity="1.0" font-size="5.0e-2" stroke="none" stroke-width="0.0" fill="#666666" text-anchor="middle">
    <text x="0.30000000000000004" y="0.5">40%
    </text>
  </g>
  <g fill-opacity="1.0" font-size="5.0e-2" stroke="none" stroke-width="0.0" fill="#666666" text-anchor="middle">
    <text x="0.4500000000000002" y="0.5">60%
    </text>
  </g>
  <g fill-opacity="1.0" font-size="5.0e-2" stroke="none" stroke-width="0.0" fill="#666666" text-anchor="middle">
    <text x="0.6000000000000001" y="0.5">80%
    </text>
  </g>
  <g fill-opacity="1.0" font-size="5.0e-2" stroke="none" stroke-width="0.0" fill="#666666" text-anchor="middle">
    <text x="0.75" y="0.5">100%
    </text>
  </g>
  <g stroke-opacity="0.4" fill-opacity="1.0" stroke="#2c429d" stroke-width="5.0e-3" fill="#5f0391">
    <polyline points="-0.75,0.440171562321951
-0.75,0.41017156232195096"/>
    <polyline points="-0.6000000000000001,0.440171562321951
-0.6000000000000001,0.41017156232195096"/>
    <polyline points="-0.44999999999999996,0.440171562321951
-0.44999999999999996,0.41017156232195096"/>
    <polyline points="-0.29999999999999993,0.440171562321951
-0.29999999999999993,0.41017156232195096"/>
    <polyline points="-0.1499999999999999,0.440171562321951
-0.1499999999999999,0.41017156232195096"/>
    <polyline points="0.0,0.440171562321951
0.0,0.41017156232195096"/>
    <polyline points="0.15000000000000013,0.440171562321951
0.15000000000000013,0.41017156232195096"/>
    <polyline points="0.30000000000000004,0.440171562321951
0.30000000000000004,0.41017156232195096"/>
    <polyline points="0.4500000000000002,0.440171562321951
0.4500000000000002,0.41017156232195096"/>
    <polyline points="0.6000000000000001,0.440171562321951
0.6000000000000001,0.41017156232195096"/>
    <polyline points="0.75,0.440171562321951
0.75,0.41017156232195096"/>
  </g>
  <g stroke-opacity="0.0" fill-opacity="0.5" stroke="#666666" stroke-width="0.0" fill="#5f0391">
    <rect height="4.467369413614863e-3" width="1.5" x="-0.75" y="0.4117694540811063"/>
  </g>
  <g stroke-opacity="0.5" fill-opacity="0.5" stroke="#026062" stroke-width="2.0e-2" fill="#9d1102">
    <rect height="0.16762845705441687" width="3.6162795216477805e-3" x="-6.462653202304436e-3" y="0.22627151937223"/>
    <rect height="0.3767558179329078" width="1.6089767632977425e-3" x="-2.8463736806566553e-3" y="1.714415849373907e-2"/>
    <rect height="0.4872298654711391" width="1.2441588651490587e-3" x="-1.2373969173589128e-3" y="-9.332988904449224e-2"/>
    <rect height="0.8894326070130321" width="6.815483845674652e-4" x="6.761947790145939e-6" y="-0.4955326305863852"/>
    <rect height="0.4242654541575708" width="1.4288020637809318e-3" x="6.883103323576112e-4" y="-3.0365477730923907e-2"/>
    <rect height="0.4400810228439115" width="1.3774539801192365e-3" x="2.117112396138543e-3" y="-4.6181046417264615e-2"/>
    <rect height="0.3767655171386437" width="1.608935342849338e-3" x="3.4945663762577794e-3" y="1.7134459288003168e-2"/>
    <rect height="0.3893531867149805" width="1.5569189547562923e-3" x="5.1035017191071175e-3" y="4.546789711666388e-3"/>
  </g>
</svg>