
<svg xmlns="http://www.w3.org/2000/svg" height="300.0" viewBox="-0.86625 -0.7288756878014337 1.72 1.2751256878014336" width="450.0" xmlns:xlink="http://www.w3.org/1999/xlink">
  <g transform="translate(-6.249999999999978e-3, -0.55)" fill-opacity="1.0" font-size="0.12" stroke="none" stroke-width="0.0" fill="#000000" text-anchor="middle">
    <text transform="rotate(0.0, 0.0, -4.78756878014337e-2)" x="0.0" y="-4.78756878014337e-2">most recent moving histogram
    </text>
  </g>
  <g stroke-opacity="0.0" fill-opacity="3.0e-2" stroke="#000000" stroke-width="0.0" fill="#666666">
    <rect height="0.8952956677199332" width="1.5" x="-0.75" y="-0.49552352166140023"/>
  </g>
  <g stroke-opacity="0.3" stroke="#a8e5ee" stroke-width="5.0e-3" fill="none">
    <polyline points="-0.75,0.4042486243971326
-0.75,-0.5"/>
  </g>
  <g stroke-opacity="0.3" stroke="#a8e5ee" stroke-width="5.0e-3" fill="none">
    <polyline points="-0.6000000000000001,0.4042486243971326
-0.6000000000000001,-0.5"/>
  </g>
  <g stroke-opacity="0.3" stroke="#a8e5ee" stroke-width="5.0e-3" fill="none">
    <polyline points="-0.44999999999999996,0.4042486243971326
-0.44999999999999996,-0.5"/>
  </g>
  <g stroke-opacity="0.3" stroke="#a8e5ee" stroke-width="5.0e-3" fill="none">
    <polyline points="-0.29999999999999993,0.4042486243971326
-0.29999999999999993,-0.5"/>
  </g>
  <g stroke-opacity="0.3" stroke="#a8e5ee" stroke-width="5.0e-3" fill="none">
    <polyline points="-0.1499999999999999,0.4042486243971326
-0.1499999999999999,-0.5"/>
  </g>
  <g stroke-opacity="0.3" stroke="#a8e5ee" stroke-width="5.0e-3" fill="none">
    <polyline points="0.0,0.4042486243971326
0.0,-0.5"/>
  </g>
  <g stroke-opacity="0.3" stroke="#a8e5ee" stroke-width="5.0e-3" fill="none">
    <polyline points="0.15000000000000013,0.4042486243971326
0.15000000000000013,-0.5"/>
  </g>
  <g stroke-opacity="0.3" stroke="#a8e5ee" stroke-width="5.0e-3" fill="none">
    <polyline points="0.30000000000000004,0.4042486243971326
0.30000000000000004,-0.5"/>
  </g>
  <g stroke-opacity="0.3" stroke="#a8e5ee" stroke-width="5.0e-3" fill="none">
    <polyline points="0.4500000000000002,0.4042486243971326
0.4500000000000002,-0.5"/>
  </g>
  <g stroke-opacity="0.3" stroke="#a8e5ee" stroke-width="5.0e-3" fill="none">
    <polyline points="0.6000000000000001,0.4042486243971326
0.6000000000000001,-0.5"/>
  </g>
  <g stroke-opacity="0.3" stroke="#a8e5ee" stroke-width="5.0e-3" fill="none">
    <polyline points="0.75,0.4042486243971326
0.75,-0.5"/>
  </g>
  <g fill-opacity="1.0" font-size="5.0e-2" stroke="none" stroke-width="0.0" fill="#666666" text-anchor="middle">
    <text x="-0.75" y="0.5">-100%
    </text>
  </g>
  <g fill-opacity="1.0" font-size="5.0e-2" stroke="none" stroke-width="0.0" fill="#666666" text-anchor="middle">
    <text x="-0.6000000000000001" y="0.5">-80%
    </text>
  </g>
  <g fill-opacity="1.0" font-size="5.0e-2" stroke="none" stroke-width="0.0" fill="#666666" text-anchor="middle">
    <text x="-0.44999999999999996" y="0.5">-60%
    </text>
  </g>
  <g fill-opacity="1.0" font-size="5.0e-2" stroke="none" stroke-width="0.0" fill="#666666" text-anchor="middle">
    <text x="-0.29999999999999993" y="0.5">-40%
    </text>
  </g>
  <g fill-opacity="1.0" font-size="5.0e-2" stroke="none" stroke-width="0.0" fill="#666666" text-anchor="middle">
    <text x="-0.1499999999999999" y="0.5">-20%
    </text>
  </g>
  <g fill-opacity="1.0" font-size="5.0e-2" stroke="none" stroke-width="0.0" fill="#666666" text-anchor="middle">
    <text x="0.0" y="0.5">0%
    </text>
  </g>
  <g fill-opacity="1.0" font-size="5.0e-2" stroke="none" stroke-width="0.0" fill="#666666" text-anchor="middle">
    <text x="0.15000000000000013" y="0.5">20%
    </text>
  </g>
  <g fill-opacity="1.0" font-size="5.0e-2" stroke="none" stroke-width="0.0" fill="#666666" text-anchor="middle">
    <text x="0.30000000000000004" y="0.5">40%
    </text>
  </g>
  <g fill-opacity="1.0" font-size="5.0e-2" stroke="none" stroke-width="0.0" fill="#666666" text-anchor="middle">
    <text x="0.4500000000000002" y="0.5">60%
    </text>
  </g>
  <g fill-opacity="1.0" font-size="5.0e-2" stroke="none" stroke-width="0.0" fill="#666666" text-anchor="middle">
    <text x="0.6000000000000001" y="0.5">80%
    </text>
  </g>
  <g fill-opacity="1.0" font-size="5.0e-2" stroke="none" stroke-width="0.0" fill="#666666" text-anchor="middle">
    <text x="0.75" y="0.5">100%
    </text>
  </g>
  <g stroke-opacity="0.4" fill-opacity="1.0" stroke="#2c429d" stroke-width="5.0e-3" fill="#5f0391">
    <polyline points="-0.75,0.4400189878284556
-0.75,0.4100189878284556"/>
    <polyline points="-0.6000000000000001,0.4400189878284556
-0.6000000000000001,0.4100189878284556"/>
    <polyline points="-0.44999999999999996,0.4400189878284556
-0.44999999999999996,0.4100189878284556"/>
    <polyline points="-0.29999999999999993,0.4400189878284556
-0.29999999999999993,0.4100189878284556"/>
    <polyline points="-0.1499999999999999,0.4400189878284556
-0.1499999999999999,0.4100189878284556"/>
    <polyline points="0.0,0.4400189878284556
0.0,0.4100189878284556"/>
    <polyline points="0.15000000000000013,0.4400189878284556
0.15000000000000013,0.4100189878284556"/>
    <polyline points="0.30000000000000004,0.4400189878284556
0.30000000000000004,0.4100189878284556"/>
    <polyline points="0.4500000000000002,0.4400189878284556
0.4500000000000002,0.4100189878284556"/>
    <polyline points="0.6000000000000001,0.4400189878284556
0.6000000000000001,0.4100189878284556"/>
    <polyline points="0.75,0.4400189878284556
0.75,0.4100189878284556"/>
  </g>
  <g stroke-opacity="0.0" fill-opacity="0.5" stroke="#666666" stroke-width="0.0" fill="#5f0391">
    <rect height="4.47647833859971e-3" width="1.5" x="-0.75" y="0.4115895528126566"/>
  </g>
  <g stroke-opacity="0.5" fill-opacity="0.5" stroke="#026062" stroke-width="2.0e-2" fill="#9d1102">
    <rect height="0.25328975448095353" width="3.6056570543596678e-3" x="-6.436894231848456e-3" y="0.14039388497730443"/>
    <rect height="0.5741903440119409" width="1.5905457128728706e-3" x="-2.831237177488788e-3" y="-0.180506704553683"/>
    <rect height="0.7868844258344057" width="1.1606227802423152e-3" x="-1.2406914646159173e-3" y="-0.39320078637614764"/>
    <rect height="0.8892071611196581" width="1.027067740762666e-3" x="-8.006868437360204e-5" y="-0.49552352166140023"/>
    <rect height="0.8252511104140288" width="1.1066643576924662e-3" x="9.46999056389064e-4" y="-0.43156747095577075"/>
    <rect height="0.6726257913505997" width="1.357777239269109e-3" x="2.05366341408153e-3" y="-0.2789421518923417"/>
    <rect height="0.576750361594083" width="1.5834857693318716e-3" x="3.411440653350639e-3" y="-0.18306672213582498"/>
    <rect height="0.5518746154982008" width="1.6548613840787763e-3" x="4.994926422682511e-3" y="-0.15819097603994292"/>
  </g>
</svg>