
<svg xmlns="http://www.w3.org/2000/svg" height="300.0" viewBox="-0.87 -0.5487415824915824 1.6739498301835438 1.0949915824915823" width="450.0" xmlns:xlink="http://www.w3.org/1999/xlink">
  <g stroke-opacity="0.0" fill-opacity="3.0e-2" stroke="#000000" stroke-width="0.0" fill="#666666">
    <rect height="0.8978675645342313" width="1.4200679265824885" x="-0.6736180963989445" y="-0.495510662177329"/>
  </g>
  <g stroke-opacity="0.3" stroke="#a8e5ee" stroke-width="5.0e-3" fill="none">
    <polyline points="-0.6771682662154007,0.40235690235690236
0.75,0.40235690235690236"/>
  </g>
  <g stroke-opacity="0.3" stroke="#a8e5ee" stroke-width="5.0e-3" fill="none">
    <polyline points="-0.6771682662154007,0.3125701459034792
0.75,0.3125701459034792"/>
  </g>
  <g stroke-opacity="0.3" stroke="#a8e5ee" stroke-width="5.0e-3" fill="none">
    <polyline points="-0.6771682662154007,0.2227833894500561
0.75,0.2227833894500561"/>
  </g>
  <g stroke-opacity="0.3" stroke="#a8e5ee" stroke-width="5.0e-3" fill="none">
    <polyline points="-0.6771682662154007,0.13299663299663295
0.75,0.13299663299663295"/>
  </g>
  <g stroke-opacity="0.3" stroke="#a8e5ee" stroke-width="5.0e-3" fill="none">
    <polyline points="-0.6771682662154007,4.3209876543209846e-2
0.75,4.3209876543209846e-2"/>
  </g>
  <g stroke-opacity="0.3" stroke="#a8e5ee" stroke-width="5.0e-3" fill="none">
    <polyline points="-0.6771682662154007,-4.657687991021331e-2
0.75,-4.657687991021331e-2"/>
  </g>
  <g stroke-opacity="0.3" stroke="#a8e5ee" stroke-width="5.0e-3" fill="none">
    <polyline points="-0.6771682662154007,-0.13636363636363646
0.75,-0.13636363636363646"/>
  </g>
  <g stroke-opacity="0.3" stroke="#a8e5ee" stroke-width="5.0e-3" fill="none">
    <polyline points="-0.6771682662154007,-0.22615039281705962
0.75,-0.22615039281705962"/>
  </g>
  <g stroke-opacity="0.3" stroke="#a8e5ee" stroke-width="5.0e-3" fill="none">
    <polyline points="-0.6771682662154007,-0.31593714927048266
0.75,-0.31593714927048266"/>
  </g>
  <g stroke-opacity="0.3" stroke="#a8e5ee" stroke-width="5.0e-3" fill="none">
    <polyline points="-0.6771682662154007,-0.4057239057239058
0.75,-0.4057239057239058"/>
  </g>
  <g stroke-opacity="0.3" stroke="#a8e5ee" stroke-width="5.0e-3" fill="none">
    <polyline points="-0.6771682662154007,-0.495510662177329
0.75,-0.495510662177329"/>
  </g>
  <g fill-opacity="1.0" font-size="5.0e-2" stroke="none" stroke-width="0.0" fill="#666666" text-anchor="end">
    <text x="-0.75" y="0.41537598204264864">-0.5
    </text>
  </g>
  <g fill-opacity="1.0" font-size="5.0e-2" stroke="none" stroke-width="0.0" fill="#666666" text-anchor="end">
    <text x="-0.75" y="0.3255892255892256">-0.4
    </text>
  </g>
  <g fill-opacity="1.0" font-size="5.0e-2" stroke="none" stroke-width="0.0" fill="#666666" text-anchor="end">
    <text x="-0.75" y="0.23580246913580244">-0.3
    </text>
  </g>
  <g fill-opacity="1.0" font-size="5.0e-2" stroke="none" stroke-width="0.0" fill="#666666" text-anchor="end">
    <text x="-0.75" y="0.14601571268237928">-0.2
    </text>
  </g>
  <g fill-opacity="1.0" font-size="5.0e-2" stroke="none" stroke-width="0.0" fill="#666666" text-anchor="end">
    <text x="-0.75" y="5.6228956228956184e-2">-0.1
    </text>
  </g>
  <g fill-opacity="1.0" font-size="5.0e-2" stroke="none" stroke-width="0.0" fill="#666666" text-anchor="end">
    <text x="-0.75" y="-3.355780022446697e-2">0.0
    </text>
  </g>
  <g fill-opacity="1.0" font-size="5.0e-2" stroke="none" stroke-width="0.0" fill="#666666" text-anchor="end">
    <text x="-0.75" y="-0.12334455667789013">0.1
    </text>
  </g>
  <g fill-opacity="1.0" font-size="5.0e-2" stroke="none" stroke-width="0.0" fill="#666666" text-anchor="end">
    <text x="-0.75" y="-0.21313131313131328">0.2
    </text>
  </g>
  <g fill-opacity="1.0" font-size="5.0e-2" stroke="none" stroke-width="0.0" fill="#666666" text-anchor="end">
    <text x="-0.75" y="-0.3029180695847362">0.3
    </text>
  </g>
  <g fill-opacity="1.0" font-size="5.0e-2" stroke="none" stroke-width="0.0" fill="#666666" text-anchor="end">
    <text x="-0.75" y="-0.3927048260381595">0.4
    </text>
  </g>
  <g fill-opacity="1.0" font-size="5.0e-2" stroke="none" stroke-width="0.0" fill="#666666" text-anchor="end">
    <text x="-0.75" y="-0.4824915824915824">0.5
    </text>
  </g>
  <g stroke-opacity="0.4" fill-opacity="1.0" stroke="#2c429d" stroke-width="5.0e-3" fill="#5f0391">
    <g transform="rotate(-90.0, -0.7268706436457879, 0.40235690235690236)">
      <polyline points="-0.7268706436457879,0.41735690235690237
-0.7268706436457879,0.38735690235690234"/>
    </g>
    <g transform="rotate(-90.0, -0.7268706436457879, 0.3125701459034792)">
      <polyline points="-0.7268706436457879,0.3275701459034792
-0.7268706436457879,0.2975701459034792"/>
    </g>
    <g transform="rotate(-90.0, -0.7268706436457879, 0.2227833894500561)">
      <polyline points="-0.7268706436457879,0.23778338945005612
-0.7268706436457879,0.2077833894500561"/>
    </g>
    <g transform="rotate(-90.0, -0.7268706436457879, 0.13299663299663295)">
      <polyline points="-0.7268706436457879,0.14799663299663296
-0.7268706436457879,0.11799663299663295"/>
    </g>
    <g transform="rotate(-90.0, -0.7268706436457879, 4.3209876543209846e-2)">
      <polyline points="-0.7268706436457879,5.8209876543209846e-2
-0.7268706436457879,2.8209876543209847e-2"/>
    </g>
    <g transform="rotate(-90.0, -0.7268706436457879, -4.657687991021331e-2)">
      <polyline points="-0.7268706436457879,-3.157687991021331e-2
-0.7268706436457879,-6.157687991021331e-2"/>
    </g>
    <g transform="rotate(-90.0, -0.7268706436457879, -0.13636363636363646)">
      <polyline points="-0.7268706436457879,-0.12136363636363647
-0.7268706436457879,-0.15136363636363648"/>
    </g>
    <g transform="rotate(-90.0, -0.7268706436457879, -0.22615039281705962)">
      <polyline points="-0.7268706436457879,-0.2111503928170596
-0.7268706436457879,-0.24115039281705963"/>
    </g>
    <g transform="rotate(-90.0, -0.7268706436457879, -0.31593714927048266)">
      <polyline points="-0.7268706436457879,-0.30093714927048265
-0.7268706436457879,-0.3309371492704827"/>
    </g>
    <g transform="rotate(-90.0, -0.7268706436457879, -0.4057239057239058)">
      <polyline points="-0.7268706436457879,-0.3907239057239058
-0.7268706436457879,-0.42072390572390583"/>
    </g>
    <g transform="rotate(-90.0, -0.7268706436457879, -0.495510662177329)">
      <polyline points="-0.7268706436457879,-0.48051066217732896
-0.7268706436457879,-0.510510662177329"/>
    </g>
  </g>
  <g stroke-opacity="0.0" fill-opacity="0.5" stroke="#666666" stroke-width="0.0" fill="#5f0391">
    <rect height="0.8978675645342313" width="3.5501698164561724e-3" x="-0.7197703040128755" y="-0.495510662177329"/>
  </g>
  <g stroke-opacity="0.3" stroke="#a8e5ee" stroke-width="5.0e-3" fill="none">
    <polyline points="-0.6736180963989445,0.4068462401795735
-0.6736180963989445,-0.5"/>
  </g>
  <g stroke-opacity="0.3" stroke="#a8e5ee" stroke-width="5.0e-3" fill="none">
    <polyline points="-0.5316113037406958,0.4068462401795735
-0.5316113037406958,-0.5"/>
  </g>
  <g stroke-opacity="0.3" stroke="#a8e5ee" stroke-width="5.0e-3" fill="none">
    <polyline points="-0.38960451108244687,0.4068462401795735
-0.38960451108244687,-0.5"/>
  </g>
  <g stroke-opacity="0.3" stroke="#a8e5ee" stroke-width="5.0e-3" fill="none">
    <polyline points="-0.24759771842419798,0.4068462401795735
-0.24759771842419798,-0.5"/>
  </g>
  <g stroke-opacity="0.3" stroke="#a8e5ee" stroke-width="5.0e-3" fill="none">
    <polyline points="-0.1055909257659492,0.4068462401795735
-0.1055909257659492,-0.5"/>
  </g>
  <g stroke-opacity="0.3" stroke="#a8e5ee" stroke-width="5.0e-3" fill="none">
    <polyline points="3.64158668922997e-2,0.4068462401795735
3.64158668922997e-2,-0.5"/>
  </g>
  <g stroke-opacity="0.3" stroke="#a8e5ee" stroke-width="5.0e-3" fill="none">
    <polyline points="0.1784226595505486,0.4068462401795735
0.1784226595505486,-0.5"/>
  </g>
  <g stroke-opacity="0.3" stroke="#a8e5ee" stroke-width="5.0e-3" fill="none">
    <polyline points="0.32042945220879737,0.4068462401795735
0.32042945220879737,-0.5"/>
  </g>
  <g stroke-opacity="0.3" stroke="#a8e5ee" stroke-width="5.0e-3" fill="none">
    <polyline points="0.46243624486704626,0.4068462401795735
0.46243624486704626,-0.5"/>
  </g>
  <g stroke-opacity="0.3" stroke="#a8e5ee" stroke-width="5.0e-3" fill="none">
    <polyline points="0.6044430375252952,0.4068462401795735
0.6044430375252952,-0.5"/>
  </g>
  <g stroke-opacity="0.3" stroke="#a8e5ee" stroke-width="5.0e-3" fill="none">
    <polyline points="0.7464498301835438,0.4068462401795735
0.7464498301835438,-0.5"/>
  </g>
  <g fill-opacity="1.0" font-size="5.0e-2" stroke="none" stroke-width="0.0" fill="#666666" text-anchor="middle">
    <text x="-0.6736180963989445" y="0.5">-0.5
    </text>
  </g>
  <g fill-opacity="1.0" font-size="5.0e-2" stroke="none" stroke-width="0.0" fill="#666666" text-anchor="middle">
    <text x="-0.5316113037406958" y="0.5">-0.4
    </text>
  </g>
  <g fill-opacity="1.0" font-size="5.0e-2" stroke="none" stroke-width="0.0" fill="#666666" text-anchor="middle">
    <text x="-0.38960451108244687" y="0.5">-0.3
    </text>
  </g>
  <g fill-opacity="1.0" font-size="5.0e-2" stroke="none" stroke-width="0.0" fill="#666666" text-anchor="middle">
    <text x="-0.24759771842419798" y="0.5">-0.2
    </text>
  </g>
  <g fill-opacity="1.0" font-size="5.0e-2" stroke="none" stroke-width="0.0" fill="#666666" text-anchor="middle">
    <text x="-0.1055909257659492" y="0.5">-0.1
    </text>
  </g>
  <g fill-opacity="1.0" font-size="5.0e-2" stroke="none" stroke-width="0.0" fill="#666666" text-anchor="middle">
    <text x="3.64158668922997e-2" y="0.5">0.0
    </text>
  </g>
  <g fill-opacity="1.0" font-size="5.0e-2" stroke="none" stroke-width="0.0" fill="#666666" text-anchor="middle">
    <text x="0.1784226595505486" y="0.5">0.1
    </text>
  </g>
  <g fill-opacity="1.0" font-size="5.0e-2" stroke="none" stroke-width="0.0" fill="#666666" text-anchor="middle">
    <text x="0.32042945220879737" y="0.5">0.2
    </text>
  </g>
  <g fill-opacity="1.0" font-size="5.0e-2" stroke="none" stroke-width="0.0" fill="#666666" text-anchor="middle">
    <text x="0.46243624486704626" y="0.5">0.3
    </text>
  </g>
  <g fill-opacity="1.0" font-size="5.0e-2" stroke="none" stroke-width="0.0" fill="#666666" text-anchor="middle">
    <text x="0.6044430375252952" y="0.5">0.4
    </text>
  </g>
  <g fill-opacity="1.0" font-size="5.0e-2" stroke="none" stroke-width="0.0" fill="#666666" text-anchor="middle">
    <text x="0.7464498301835438" y="0.5">0.5
    </text>
  </g>
  <g stroke-opacity="0.4" fill-opacity="1.0" stroke="#2c429d" stroke-width="5.0e-3" fill="#5f0391">
    <polyline points="-0.6736180963989445,0.43980359147025816
-0.6736180963989445,0.40980359147025813"/>
    <polyline points="-0.5316113037406958,0.43980359147025816
-0.5316113037406958,0.40980359147025813"/>
    <polyline points="-0.38960451108244687,0.43980359147025816
-0.38960451108244687,0.40980359147025813"/>
    <polyline points="-0.24759771842419798,0.43980359147025816
-0.24759771842419798,0.40980359147025813"/>
    <polyline points="-0.1055909257659492,0.43980359147025816
-0.1055909257659492,0.40980359147025813"/>
    <polyline points="3.64158668922997e-2,0.43980359147025816
3.64158668922997e-2,0.40980359147025813"/>
    <polyline points="0.1784226595505486,0.43980359147025816
0.1784226595505486,0.40980359147025813"/>
    <polyline points="0.32042945220879737,0.43980359147025816
0.32042945220879737,0.40980359147025813"/>
    <polyline points="0.46243624486704626,0.43980359147025816
0.46243624486704626,0.40980359147025813"/>
    <polyline points="0.6044430375252952,0.43980359147025816
0.6044430375252952,0.40980359147025813"/>
    <polyline points="0.7464498301835438,0.43980359147025816
0.7464498301835438,0.40980359147025813"/>
  </g>
  <g stroke-opacity="0.0" fill-opacity="0.5" stroke="#666666" stroke-width="0.0" fill="#5f0391">
    <rect height="4.489337822671191e-3" width="1.4200679265824885" x="-0.6736180963989445" y="0.41133557800224463"/>
  </g>
  <g stroke-opacity="0.0" fill-opacity="0.3" stroke="#2c429d" stroke-width="3.0e-3" fill="#ff0000">
    <rect height="2.0000000000000004e-2" width="2.0000000000000004e-2" x="2.7195755606642787e-2" y="-4.65586331545269e-2"/>
    <rect height="2.0000000000000004e-2" width="2.0000000000000004e-2" x="2.69981676291804e-2" y="-4.453293539780089e-2"/>
    <rect height="2.0000000000000004e-2" width="2.0000000000000004e-2" x="2.706506055821479e-2" y="-6.1118833410756294e-2"/>
    <rect height="1.9999999999999997e-2" width="2.0000000000000004e-2" x="2.721415769024494e-2" y="-6.642788626806205e-2"/>
    <rect height="2.0000000000000004e-2" width="2.0000000000000004e-2" x="2.724292480119806e-2" y="-5.8943179685141504e-2"/>
    <rect height="2.0000000000000004e-2" width="2.0000000000000004e-2" x="2.722764545686652e-2" y="-5.6142347475308434e-2"/>
    <rect height="2.0000000000000004e-2" width="2.0000000000000004e-2" x="2.728283883884198e-2" y="-6.0575172959061445e-2"/>
    <rect height="1.9999999999999997e-2" width="2.0000000000000004e-2" x="2.751858244431938e-2" y="-7.204661615207662e-2"/>
    <rect height="2.0000000000000004e-2" width="2.0000000000000004e-2" x="2.748838153433731e-2" y="-5.5432447139446166e-2"/>
    <rect height="2.0000000000000004e-2" width="2.0000000000000004e-2" x="2.7387122906407775e-2" y="-5.0845019669716766e-2"/>
    <rect height="2.0000000000000004e-2" width="2.0000000000000004e-2" x="2.7296352753724225e-2" y="-5.14222432579332e-2"/>
    <rect height="2.0000000000000004e-2" width="2.0000000000000004e-2" x="2.727686018791676e-2" y="-5.587449080896855e-2"/>
    <rect height="2.0000000000000004e-2" width="2.0000000000000004e-2" x="2.729251202581285e-2" y="-5.810502647367543e-2"/>
    <rect height="2.0000000000000004e-2" width="2.0000000000000004e-2" x="2.7080505462423694e-2" y="-4.373209382686926e-2"/>
    <rect height="2.0000000000000004e-2" width="2.0000000000000004e-2" x="2.7095821286692752e-2" y="-5.79062182718103e-2"/>
    <rect height="2.0000000000000004e-2" width="2.0000000000000004e-2" x="2.7062732398065677e-2" y="-5.491972293498203e-2"/>
    <rect height="2.0000000000000004e-2" width="2.0000000000000004e-2" x="2.6694198652626462e-2" y="-3.369503850347776e-2"/>
    <rect height="2.0000000000000004e-2" width="2.0000000000000004e-2" x="2.639077002921731e-2" y="-3.755120088353058e-2"/>
    <rect height="1.9999999999999997e-2" width="2.0000000000000004e-2" x="2.677392382896305e-2" y="-8.063484698650979e-2"/>
    <rect height="2.0000000000000004e-2" width="2.0000000000000004e-2" x="2.6520915591405243e-2" y="-4.0929882322538684e-2"/>
    <rect height="2.0000000000000004e-2" width="2.0000000000000004e-2" x="2.6478937656622244e-2" y="-5.395415139219494e-2"/>
    <rect height="1.9999999999999997e-2" width="2.0000000000000004e-2" x="2.6673344030336395e-2" y="-6.885576786031976e-2"/>
    <rect height="2.0000000000000004e-2" width="2.0000000000000004e-2" x="2.6348462642213917e-2" y="-3.6293764725532245e-2"/>
    <rect height="1.9999999999999997e-2" width="2.0000000000000004e-2" x="2.652869346419296e-2" y="-6.783219745416123e-2"/>
    <rect height="1.9999999999999997e-2" width="2.0000000000000004e-2" x="2.669079725422075e-2" y="-6.690245801450433e-2"/>
    <rect height="1.9999999999999997e-2" width="2.0000000000000004e-2" x="2.6784742109483346e-2" y="-6.271781656857066e-2"/>
    <rect height="2.0000000000000004e-2" width="2.0000000000000004e-2" x="2.6465437229954987e-2" y="-3.667674348031346e-2"/>
    <rect height="2.0000000000000004e-2" width="2.0000000000000004e-2" x="2.6513337463584204e-2" y="-5.956744320002982e-2"/>
    <rect height="1.9999999999999997e-2" width="2.0000000000000004e-2" x="2.6748390449416133e-2" y="-7.147112582626845e-2"/>
    <rect height="2.0000000000000004e-2" width="2.0000000000000004e-2" x="2.666534167137736e-2" y="-5.160227648563697e-2"/>
    <rect height="1.9999999999999997e-2" width="2.0000000000000004e-2" x="2.6780023480535105e-2" y="-6.39544432680582e-2"/>
    <rect height="2.0000000000000004e-2" width="2.0000000000000004e-2" x="2.67348170923909e-2" y="-5.3981424378528035e-2"/>
    <rect height="1.9999999999999997e-2" width="2.0000000000000004e-2" x="2.684662720665299e-2" y="-6.382826227380377e-2"/>
    <rect height="1.9999999999999997e-2" width="2.0000000000000004e-2" x="2.699254649773209e-2" y="-6.60988071294789e-2"/>
    <rect height="2.0000000000000004e-2" width="2.0000000000000004e-2" x="2.6997932048668856e-2" y="-5.732311393731448e-2"/>
    <rect height="2.0000000000000004e-2" width="2.0000000000000004e-2" x="2.6910507687658798e-2" y="-5.1420860924837435e-2"/>
    <rect height="2.0000000000000004e-2" width="2.0000000000000004e-2" x="2.678411695803163e-2" y="-4.8879327682722844e-2"/>
    <rect height="2.0000000000000004e-2" width="2.0000000000000004e-2" x="2.6781747013739705e-2" y="-5.662728945992745e-2"/>
    <rect height="2.0000000000000004e-2" width="2.0000000000000004e-2" x="2.6586572023914908e-2" y="-4.448192811802076e-2"/>
    <rect height="2.0000000000000004e-2" width="2.0000000000000004e-2" x="2.661166913307312e-2" y="-5.822466521851443e-2"/>
    <rect height="1.9999999999999997e-2" width="2.0000000000000004e-2" x="2.6757279221544035e-2" y="-6.5896797949319e-2"/>
    <rect height="2.0000000000000004e-2" width="2.0000000000000004e-2" x="2.6769095383337056e-2" y="-5.7576294548381195e-2"/>
    <rect height="2.0000000000000004e-2" width="2.0000000000000004e-2" x="2.6648633523745698e-2" y="-4.919542168337209e-2"/>
    <rect height="2.0000000000000004e-2" width="2.0000000000000004e-2" x="2.668296369994761e-2" y="-5.886257643263725e-2"/>
    <rect height="2.0000000000000004e-2" width="2.0000000000000004e-2" x="2.657730477244758e-2" y="-5.008363327294273e-2"/>
    <rect height="2.0000000000000004e-2" width="2.0000000000000004e-2" x="2.6543954644617125e-2" y="-5.455105044480645e-2"/>
    <rect height="1.9999999999999997e-2" width="2.0000000000000004e-2" x="2.6723916130528942e-2" y="-6.80064290843899e-2"/>
    <rect height="2.0000000000000004e-2" width="2.0000000000000004e-2" x="2.676918791172956e-2" y="-5.9676384606071047e-2"/>
    <rect height="2.0000000000000004e-2" width="2.0000000000000004e-2" x="2.676168694370141e-2" y="-5.6338370857367696e-2"/>
    <rect height="1.9999999999999997e-2" width="2.0000000000000004e-2" x="2.6895193550752212e-2" y="-6.522832669095001e-2"/>
    <rect height="1.9999999999999997e-2" width="2.0000000000000004e-2" x="2.702230925067562e-2" y="-6.495130377590573e-2"/>
    <rect height="2.0000000000000004e-2" width="2.0000000000000004e-2" x="2.7039901646997995e-2" y="-5.810883566376878e-2"/>
    <rect height="2.0000000000000004e-2" width="2.0000000000000004e-2" x="2.7046120515915602e-2" y="-5.73697936710491e-2"/>
    <rect height="2.0000000000000004e-2" width="2.0000000000000004e-2" x="2.694228327116833e-2" y="-5.04125003919833e-2"/>
    <rect height="2.0000000000000004e-2" width="2.0000000000000004e-2" x="2.6995034866467822e-2" y="-6.021524646885212e-2"/>
    <rect height="2.0000000000000004e-2" width="2.0000000000000004e-2" x="2.69768476783483e-2" y="-5.580813498725767e-2"/>
    <rect height="2.0000000000000004e-2" width="2.0000000000000004e-2" x="2.6933881506664432e-2" y="-5.421041758087796e-2"/>
    <rect height="1.9999999999999997e-2" width="2.0000000000000004e-2" x="2.7033422841812767e-2" y="-6.318474035622267e-2"/>
    <rect height="2.0000000000000004e-2" width="2.0000000000000004e-2" x="2.698219559903859e-2" y="-5.375705155931642e-2"/>
    <rect height="2.0000000000000004e-2" width="2.0000000000000004e-2" x="2.7022819198355925e-2" y="-5.9488737594481915e-2"/>
    <rect height="2.0000000000000004e-2" width="2.0000000000000004e-2" x="2.6987804601907535e-2" y="-5.475850939125403e-2"/>
    <rect height="2.0000000000000004e-2" width="2.0000000000000004e-2" x="2.694872119739645e-2" y="-5.445791260326715e-2"/>
    <rect height="2.0000000000000004e-2" width="2.0000000000000004e-2" x="2.67783387649665e-2" y="-4.613335137421314e-2"/>
    <rect height="1.9999999999999997e-2" width="2.0000000000000004e-2" x="2.6954683323311086e-2" y="-6.790404769584578e-2"/>
    <rect height="2.0000000000000004e-2" width="2.0000000000000004e-2" x="2.685045623603822e-2" y="-5.0378776236553284e-2"/>
    <rect height="1.9999999999999997e-2" width="2.0000000000000004e-2" x="2.699984683245927e-2" y="-6.62654298792613e-2"/>
    <rect height="2.0000000000000004e-2" width="2.0000000000000004e-2" x="2.7056811640434837e-2" y="-6.059004095078268e-2"/>
    <rect height="2.0000000000000004e-2" width="2.0000000000000004e-2" x="2.706011420765942e-2" y="-5.720752778763615e-2"/>
    <rect height="1.9999999999999997e-2" width="2.0000000000000004e-2" x="2.717480059174094e-2" y="-6.423642865419597e-2"/>
    <rect height="2.0000000000000004e-2" width="2.0000000000000004e-2" x="2.7156543253939132e-2" y="-5.5935486993494925e-2"/>
    <rect height="2.0000000000000004e-2" width="2.0000000000000004e-2" x="2.719353841078454e-2" y="-5.937911606267376e-2"/>
    <rect height="2.0000000000000004e-2" width="2.0000000000000004e-2" x="2.7200762433694077e-2" y="-5.7535944011044775e-2"/>
    <rect height="2.0000000000000004e-2" width="2.0000000000000004e-2" x="2.7217616312614552e-2" y="-5.814084010321307e-2"/>
    <rect height="2.0000000000000004e-2" width="2.0000000000000004e-2" x="2.7152230672415463e-2" y="-5.295470542217406e-2"/>
    <rect height="2.0000000000000004e-2" width="2.0000000000000004e-2" x="2.7180219372022647e-2" y="-5.879320794051401e-2"/>
    <rect height="2.0000000000000004e-2" width="2.0000000000000004e-2" x="2.7157998572795224e-2" y="-5.566322297638237e-2"/>
    <rect height="2.0000000000000004e-2" width="2.0000000000000004e-2" x="2.7120453269833707e-2" y="-5.466587651314846e-2"/>
    <rect height="2.0000000000000004e-2" width="2.0000000000000004e-2" x="2.705632876478959e-2" y="-5.2957127829027055e-2"/>
    <rect height="2.0000000000000004e-2" width="2.0000000000000004e-2" x="2.7074509971508405e-2" y="-5.811280146600927e-2"/>
    <rect height="2.0000000000000004e-2" width="2.0000000000000004e-2" x="2.697744107255485e-2" y="-5.08613711654241e-2"/>
    <rect height="2.0000000000000004e-2" width="2.0000000000000004e-2" x="2.6998679901839136e-2" y="-5.824702220377031e-2"/>
    <rect height="2.0000000000000004e-2" width="2.0000000000000004e-2" x="2.6796470913864952e-2" y="-4.4168739510971215e-2"/>
    <rect height="2.0000000000000004e-2" width="2.0000000000000004e-2" x="2.6824807494354903e-2" y="-5.8553975820408326e-2"/>
    <rect height="2.0000000000000004e-2" width="2.0000000000000004e-2" x="2.6697794708759222e-2" y="-4.881797714288993e-2"/>
    <rect height="2.0000000000000004e-2" width="2.0000000000000004e-2" x="2.678304419728173e-2" y="-6.210732398433771e-2"/>
    <rect height="2.0000000000000004e-2" width="2.0000000000000004e-2" x="2.678978855028192e-2" y="-5.725761587712374e-2"/>
    <rect height="2.0000000000000004e-2" width="2.0000000000000004e-2" x="2.682954679118566e-2" y="-5.932726184087777e-2"/>
    <rect height="2.0000000000000004e-2" width="2.0000000000000004e-2" x="2.6754764117786108e-2" y="-5.2123861759491456e-2"/>
    <rect height="1.9999999999999997e-2" width="2.0000000000000004e-2" x="2.68736668599805e-2" y="-6.428392462213771e-2"/>
    <rect height="1.9999999999999997e-2" width="2.0000000000000004e-2" x="2.698853435011129e-2" y="-6.415983749185826e-2"/>
    <rect height="1.9999999999999997e-2" width="2.0000000000000004e-2" x="2.7107033885698024e-2" y="-6.446400679931373e-2"/>
    <rect height="2.0000000000000004e-2" width="2.0000000000000004e-2" x="2.7148815714020065e-2" y="-5.9690058346537726e-2"/>
    <rect height="2.0000000000000004e-2" width="2.0000000000000004e-2" x="2.7040191537806686e-2" y="-5.018461919263816e-2"/>
    <rect height="1.9999999999999997e-2" width="2.0000000000000004e-2" x="2.715814510519355e-2" y="-6.439805439743272e-2"/>
    <rect height="2.0000000000000004e-2" width="2.0000000000000004e-2" x="2.7165504067853792e-2" y="-5.754543840694858e-2"/>
    <rect height="2.0000000000000004e-2" width="2.0000000000000004e-2" x="2.7143363297195917e-2" y="-5.565329421905007e-2"/>
    <rect height="2.0000000000000004e-2" width="2.0000000000000004e-2" x="2.7192507879184376e-2" y="-6.013762005074751e-2"/>
    <rect height="2.0000000000000004e-2" width="2.0000000000000004e-2" x="2.7215167862497565e-2" y="-5.851465771034169e-2"/>
    <rect height="2.0000000000000004e-2" width="2.0000000000000004e-2" x="2.7150820018394424e-2" y="-5.3020636879228526e-2"/>
    <rect height="2.0000000000000004e-2" width="2.0000000000000004e-2" x="2.7130288722832192e-2" y="-5.572486837172063e-2"/>
    <rect height="2.0000000000000004e-2" width="2.0000000000000004e-2" x="2.7149317573366034e-2" y="-5.8225664976835116e-2"/>
    <rect height="2.0000000000000004e-2" width="2.0000000000000004e-2" x="2.7209628634876977e-2" y="-6.0859249920828244e-2"/>
    <rect height="1.9999999999999997e-2" width="2.0000000000000004e-2" x="2.7330097608416322e-2" y="-6.471191214951931e-2"/>
    <rect height="2.0000000000000004e-2" width="2.0000000000000004e-2" x="2.727728111931494e-2" y="-5.3850252037869965e-2"/>
    <rect height="2.0000000000000004e-2" width="2.0000000000000004e-2" x="2.7175388357896575e-2" y="-5.06655001942684e-2"/>
    <rect height="2.0000000000000004e-2" width="2.0000000000000004e-2" x="2.708630906616028e-2" y="-5.1395468286830163e-2"/>
    <rect height="2.0000000000000004e-2" width="2.0000000000000004e-2" x="2.714921288044781e-2" y="-6.09519467008881e-2"/>
    <rect height="2.0000000000000004e-2" width="2.0000000000000004e-2" x="2.7126811449249673e-2" y="-5.564234876848972e-2"/>
    <rect height="2.0000000000000004e-2" width="2.0000000000000004e-2" x="2.718959102158581e-2" y="-6.0989261760116646e-2"/>
    <rect height="2.0000000000000004e-2" width="2.0000000000000004e-2" x="2.7247369692411157e-2" y="-6.0737090810278664e-2"/>
    <rect height="2.0000000000000004e-2" width="2.0000000000000004e-2" x="2.7288956478492617e-2" y="-5.974814224350677e-2"/>
    <rect height="2.0000000000000004e-2" width="2.0000000000000004e-2" x="2.732009649825385e-2" y="-5.9109054029064405e-2"/>
    <rect height="2.0000000000000004e-2" width="2.0000000000000004e-2" x="2.730718515758946e-2" y="-5.6341294215867414e-2"/>
    <rect height="2.0000000000000004e-2" width="2.0000000000000004e-2" x="2.7277832587109037e-2" y="-5.528152380930262e-2"/>
    <rect height="2.0000000000000004e-2" width="2.0000000000000004e-2" x="2.7167944870120093e-2" y="-5.01667740892242e-2"/>
    <rect height="2.0000000000000004e-2" width="2.0000000000000004e-2" x="2.710392525568884e-2" y="-5.297277783521669e-2"/>
    <rect height="2.0000000000000004e-2" width="2.0000000000000004e-2" x="2.718778381897003e-2" y="-6.229524227258187e-2"/>
    <rect height="2.0000000000000004e-2" width="2.0000000000000004e-2" x="2.7071313046774355e-2" y="-4.972519086907611e-2"/>
    <rect height="1.9999999999999997e-2" width="2.0000000000000004e-2" x="2.717730925464435e-2" y="-6.365931248783262e-2"/>
    <rect height="2.0000000000000004e-2" width="2.0000000000000004e-2" x="2.7216324801312315e-2" y="-5.955569229053869e-2"/>
    <rect height="2.0000000000000004e-2" width="2.0000000000000004e-2" x="2.7242580136671475e-2" y="-5.875428401550974e-2"/>
    <rect height="2.0000000000000004e-2" width="2.0000000000000004e-2" x="2.726354031184764e-2" y="-5.843223659092133e-2"/>
    <rect height="2.0000000000000004e-2" width="2.0000000000000004e-2" x="2.724931092524075e-2" y="-5.621934316022214e-2"/>
    <rect height="2.0000000000000004e-2" width="2.0000000000000004e-2" x="2.7216999068190535e-2" y="-5.5057076527805e-2"/>
    <rect height="2.0000000000000004e-2" width="2.0000000000000004e-2" x="2.729690003522723e-2" y="-6.212536675839985e-2"/>
    <rect height="1.9999999999999997e-2" width="2.0000000000000004e-2" x="2.7396275459685378e-2" y="-6.343759986745455e-2"/>
    <rect height="2.0000000000000004e-2" width="2.0000000000000004e-2" x="2.7389864204241506e-2" y="-5.681869004635664e-2"/>
    <rect height="2.0000000000000004e-2" width="2.0000000000000004e-2" x="2.7460932703806236e-2" y="-6.1681425927205484e-2"/>
    <rect height="2.0000000000000004e-2" width="2.0000000000000004e-2" x="2.7387071725325736e-2" y="-5.259028444015334e-2"/>
    <rect height="2.0000000000000004e-2" width="2.0000000000000004e-2" x="2.7379581364259338e-2" y="-5.669757379917905e-2"/>
    <rect height="2.0000000000000004e-2" width="2.0000000000000004e-2" x="2.7346449260631463e-2" y="-5.5090303742494566e-2"/>
    <rect height="2.0000000000000004e-2" width="2.0000000000000004e-2" x="2.729740951225324e-2" y="-5.405651962211943e-2"/>
    <rect height="2.0000000000000004e-2" width="2.0000000000000004e-2" x="2.7236842815806968e-2" y="-5.3291598135575484e-2"/>
    <rect height="2.0000000000000004e-2" width="2.0000000000000004e-2" x="2.7197441172165167e-2" y="-5.4587373951571976e-2"/>
    <rect height="2.0000000000000004e-2" width="2.0000000000000004e-2" x="2.721673259175806e-2" y="-5.827922517289685e-2"/>
    <rect height="2.0000000000000004e-2" width="2.0000000000000004e-2" x="2.7261648761270803e-2" y="-5.992848251568416e-2"/>
    <rect height="2.0000000000000004e-2" width="2.0000000000000004e-2" x="2.725805086230993e-2" y="-5.689709720266655e-2"/>
    <rect height="2.0000000000000004e-2" width="2.0000000000000004e-2" x="2.7324468747483406e-2" y="-6.130711840427782e-2"/>
    <rect height="2.0000000000000004e-2" width="2.0000000000000004e-2" x="2.7318997887395342e-2" y="-5.6824236627839746e-2"/>
    <rect height="2.0000000000000004e-2" width="2.0000000000000004e-2" x="2.7230655589710613e-2" y="-5.15620811107984e-2"/>
    <rect height="2.0000000000000004e-2" width="2.0000000000000004e-2" x="2.7298956352480815e-2" y="-6.1384550885885895e-2"/>
    <rect height="2.0000000000000004e-2" width="2.0000000000000004e-2" x="2.730760899757812e-2" y="-5.770148494253268e-2"/>
    <rect height="1.9999999999999997e-2" width="2.0000000000000004e-2" x="2.740959036293234e-2" y="-6.35891795013067e-2"/>
    <rect height="2.0000000000000004e-2" width="2.0000000000000004e-2" x="2.7393973550385205e-2" y="-5.624599855547085e-2"/>
    <rect height="2.0000000000000004e-2" width="2.0000000000000004e-2" x="2.7334214566848487e-2" y="-5.3414724231404025e-2"/>
    <rect height="2.0000000000000004e-2" width="2.0000000000000004e-2" x="2.730674300799541e-2" y="-5.540429140419389e-2"/>
    <rect height="2.0000000000000004e-2" width="2.0000000000000004e-2" x="2.725116161500308e-2" y="-5.3618693754392426e-2"/>
    <rect height="2.0000000000000004e-2" width="2.0000000000000004e-2" x="2.7282251472538495e-2" y="-5.9054469660867574e-2"/>
    <rect height="2.0000000000000004e-2" width="2.0000000000000004e-2" x="2.7273349556650735e-2" y="-5.657073612377849e-2"/>
    <rect height="2.0000000000000004e-2" width="2.0000000000000004e-2" x="2.731643296582443e-2" y="-5.984014018146599e-2"/>
    <rect height="2.0000000000000004e-2" width="2.0000000000000004e-2" x="2.7301597188417855e-2" y="-5.622067024691479e-2"/>
    <rect height="2.0000000000000004e-2" width="2.0000000000000004e-2" x="2.730290638914435e-2" y="-5.7215493256072995e-2"/>
    <rect height="2.0000000000000004e-2" width="2.0000000000000004e-2" x="2.717752794166995e-2" y="-4.921172031101683e-2"/>
    <rect height="2.0000000000000004e-2" width="2.0000000000000004e-2" x="2.7091768657012356e-2" y="-5.159969368342054e-2"/>
    <rect height="2.0000000000000004e-2" width="2.0000000000000004e-2" x="2.707979077153156e-2" y="-5.6222001400060055e-2"/>
    <rect height="2.0000000000000004e-2" width="2.0000000000000004e-2" x="2.705305564893968e-2" y="-5.5302895906502385e-2"/>
    <rect height="2.0000000000000004e-2" width="2.0000000000000004e-2" x="2.6572104533444614e-2" y="-2.657367544181887e-2"/>
    <rect height="2.0000000000000004e-2" width="2.0000000000000004e-2" x="2.627583891317476e-2" y="-3.7912272543066276e-2"/>
    <rect height="1.9999999999999997e-2" width="2.0000000000000004e-2" x="2.6479210990283837e-2" y="-6.924209796223434e-2"/>
    <rect height="2.0000000000000004e-2" width="2.0000000000000004e-2" x="2.6393583406816863e-2" y="-5.1259454906315886e-2"/>
    <rect height="1.9999999999999997e-2" width="2.0000000000000004e-2" x="2.669719863886933e-2" y="-7.567232880000473e-2"/>
    <rect height="2.0000000000000004e-2" width="2.0000000000000004e-2" x="2.6689608824604923e-2" y="-5.635018713140549e-2"/>
    <rect height="2.0000000000000004e-2" width="2.0000000000000004e-2" x="2.6480669262532903e-2" y="-4.3561078999151064e-2"/>
    <rect height="2.0000000000000004e-2" width="2.0000000000000004e-2" x="2.647551034737517e-2" y="-5.625241168444494e-2"/>
    <rect height="2.0000000000000004e-2" width="2.0000000000000004e-2" x="2.6413539900794765e-2" y="-5.270818635512808e-2"/>
    <rect height="2.0000000000000004e-2" width="2.0000000000000004e-2" x="2.633493603316129e-2" y="-5.161430822557122e-2"/>
    <rect height="2.0000000000000004e-2" width="2.0000000000000004e-2" x="2.588869697083907e-2" y="-2.842826904924877e-2"/>
    <rect height="1.9999999999999997e-2" width="2.0000000000000004e-2" x="2.6158426800934727e-2" y="-7.314542731684558e-2"/>
    <rect height="2.0000000000000004e-2" width="2.0000000000000004e-2" x="2.5910910659152415e-2" y="-4.088325144206605e-2"/>
    <rect height="2.0000000000000004e-2" width="2.0000000000000004e-2" x="2.5821807838649853e-2" y="-5.066772873795843e-2"/>
    <rect height="1.9999999999999997e-2" width="2.0000000000000004e-2" x="2.6050647999426142e-2" y="-7.053432258170154e-2"/>
    <rect height="1.9999999999999997e-2" width="2.0000000000000004e-2" x="2.6208208406819374e-2" y="-6.626749820020571e-2"/>
    <rect height="1.9999999999999997e-2" width="2.0000000000000004e-2" x="2.6359687231828584e-2" y="-6.600673561464408e-2"/>
    <rect height="2.0000000000000004e-2" width="2.0000000000000004e-2" x="2.626953751432249e-2" y="-5.088749499794109e-2"/>
    <rect height="2.0000000000000004e-2" width="2.0000000000000004e-2" x="2.635082718131488e-2" y="-6.15910882010342e-2"/>
    <rect height="2.0000000000000004e-2" width="2.0000000000000004e-2" x="2.6440082885058065e-2" y="-6.217937686333907e-2"/>
    <rect height="1.9999999999999997e-2" width="2.0000000000000004e-2" x="2.6738054953650454e-2" y="-7.542036480367985e-2"/>
    <rect height="2.0000000000000004e-2" width="2.0000000000000004e-2" x="2.66978804113377e-2" y="-5.432158546087839e-2"/>
    <rect height="2.0000000000000004e-2" width="2.0000000000000004e-2" x="2.6563893756310637e-2" y="-4.827922021185604e-2"/>
    <rect height="2.0000000000000004e-2" width="2.0000000000000004e-2" x="2.6279965732791684e-2" y="-3.871107125070849e-2"/>
    <rect height="2.0000000000000004e-2" width="2.0000000000000004e-2" x="2.6261048189695775e-2" y="-5.524516009040747e-2"/>
    <rect height="2.0000000000000004e-2" width="2.0000000000000004e-2" x="2.6154434332276717e-2" y="-4.9756563082489984e-2"/>
    <rect height="1.9999999999999997e-2" width="2.0000000000000004e-2" x="2.630753838835665e-2" y="-6.603847486810531e-2"/>
    <rect height="2.0000000000000004e-2" width="2.0000000000000004e-2" x="2.6339769835591838e-2" y="-5.857097278732503e-2"/>
    <rect height="2.0000000000000004e-2" width="2.0000000000000004e-2" x="2.6101480450325017e-2" y="-4.1507994127573326e-2"/>
    <rect height="2.0000000000000004e-2" width="2.0000000000000004e-2" x="2.5843895122724676e-2" y="-4.012975993494671e-2"/>
    <rect height="2.0000000000000004e-2" width="2.0000000000000004e-2" x="2.5893349865527278e-2" y="-5.9305010747659585e-2"/>
    <rect height="2.0000000000000004e-2" width="2.0000000000000004e-2" x="2.580456641989249e-2" y="-5.0672212305813084e-2"/>
    <rect height="1.9999999999999997e-2" width="2.0000000000000004e-2" x="2.603118808224015e-2" y="-7.041549336365237e-2"/>
    <rect height="2.0000000000000004e-2" width="2.0000000000000004e-2" x="2.6081022393058102e-2" y="-5.950079105653782e-2"/>
    <rect height="1.9999999999999997e-2" width="2.0000000000000004e-2" x="2.640790436856367e-2" y="-7.697091506916197e-2"/>
    <rect height="2.0000000000000004e-2" width="2.0000000000000004e-2" x="2.6375706758994817e-2" y="-5.461481888545449e-2"/>
    <rect height="1.9999999999999997e-2" width="2.0000000000000004e-2" x="2.6491937788648452e-2" y="-6.388322735909722e-2"/>
    <rect height="1.9999999999999997e-2" width="2.0000000000000004e-2" x="2.6645372629219295e-2" y="-6.634745161509113e-2"/>
    <rect height="2.0000000000000004e-2" width="2.0000000000000004e-2" x="2.617497754533405e-2" y="-2.7037224871943814e-2"/>
    <rect height="2.0000000000000004e-2" width="2.0000000000000004e-2" x="2.6157192166216266e-2" y="-5.520879740302264e-2"/>
    <rect height="2.0000000000000004e-2" width="2.0000000000000004e-2" x="2.582381461277162e-2" y="-3.539069385974724e-2"/>
    <rect height="2.0000000000000004e-2" width="2.0000000000000004e-2" x="2.5855498697787145e-2" y="-5.815744091201624e-2"/>
    <rect height="2.0000000000000004e-2" width="2.0000000000000004e-2" x="2.585598322788186e-2" y="-5.6256890026623256e-2"/>
    <rect height="2.0000000000000004e-2" width="2.0000000000000004e-2" x="2.5938723111127666e-2" y="-6.142968653179392e-2"/>
    <rect height="2.0000000000000004e-2" width="2.0000000000000004e-2" x="2.594046917759752e-2" y="-5.639740143407312e-2"/>
    <rect height="2.0000000000000004e-2" width="2.0000000000000004e-2" x="2.5670458022834193e-2" y="-3.927405468189004e-2"/>
    <rect height="2.0000000000000004e-2" width="2.0000000000000004e-2" x="2.5378276267171714e-2" y="-3.772860362791996e-2"/>
    <rect height="2.0000000000000004e-2" width="2.0000000000000004e-2" x="2.5389859128969856e-2" y="-5.6654263689116184e-2"/>
    <rect height="2.0000000000000004e-2" width="2.0000000000000004e-2" x="2.5177888042545955e-2" y="-4.264619251035106e-2"/>
    <rect height="2.0000000000000004e-2" width="2.0000000000000004e-2" x="2.496170600158632e-2" y="-4.2302755884794034e-2"/>
    <rect height="2.0000000000000004e-2" width="2.0000000000000004e-2" x="2.467630306305047e-2" y="-3.7898476701559096e-2"/>
    <rect height="2.0000000000000004e-2" width="2.0000000000000004e-2" x="2.4295823862498407e-2" y="-3.189763787249588e-2"/>
    <rect height="1.999999999999999e-2" width="2.0000000000000004e-2" x="2.501931834158922e-2" y="-0.10003584157855382"/>
    <rect height="1.9999999999999997e-2" width="2.0000000000000004e-2" x="2.515631020056986e-2" y="-6.42326624019197e-2"/>
    <rect height="2.0000000000000004e-2" width="2.0000000000000004e-2" x="2.5151226025208702e-2" y="-5.546149830349933e-2"/>
    <rect height="1.9999999999999997e-2" width="2.0000000000000004e-2" x="2.5285058035710024e-2" y="-6.416972310194867e-2"/>
    <rect height="2.0000000000000004e-2" width="2.0000000000000004e-2" x="2.5314479793176255e-2" y="-5.7715164709844606e-2"/>
    <rect height="2.0000000000000004e-2" width="2.0000000000000004e-2" x="2.496730961452954e-2" y="-3.406907459723007e-2"/>
    <rect height="1.999999999999999e-2" width="2.0000000000000004e-2" x="2.546544444685895e-2" y="-8.688782083311795e-2"/>
    <rect height="1.9999999999999997e-2" width="2.0000000000000004e-2" x="2.557368131851235e-2" y="-6.284960154854423e-2"/>
    <rect height="1.9999999999999997e-2" width="2.0000000000000004e-2" x="2.5719360211708737e-2" y="-6.524000972382292e-2"/>
    <rect height="2.0000000000000004e-2" width="2.0000000000000004e-2" x="2.5784160186601464e-2" y="-6.0248913120880314e-2"/>
    <rect height="2.0000000000000004e-2" width="2.0000000000000004e-2" x="2.5854452089954634e-2" y="-6.0624679979895284e-2"/>
    <rect height="2.0000000000000004e-2" width="2.0000000000000004e-2" x="2.5857774290947384e-2" y="-5.644555594054445e-2"/>
    <rect height="2.0000000000000004e-2" width="2.0000000000000004e-2" x="2.5788363523800102e-2" y="-5.184391147964262e-2"/>
    <rect height="1.9999999999999997e-2" width="2.0000000000000004e-2" x="2.5946591372015833e-2" y="-6.615215241241844e-2"/>
    <rect height="2.0000000000000004e-2" width="2.0000000000000004e-2" x="2.598231815713859e-2" y="-5.8569791285326904e-2"/>
    <rect height="1.9999999999999997e-2" width="2.0000000000000004e-2" x="2.6094040838414274e-2" y="-6.336716243976924e-2"/>
    <rect height="1.9999999999999997e-2" width="2.0000000000000004e-2" x="2.6282949404835117e-2" y="-6.833612345426752e-2"/>
    <rect height="2.0000000000000004e-2" width="2.0000000000000004e-2" x="2.6081003897341366e-2" y="-4.3774901523152325e-2"/>
    <rect height="2.0000000000000004e-2" width="2.0000000000000004e-2" x="2.6116360013361824e-2" y="-5.855248071644436e-2"/>
    <rect height="2.0000000000000004e-2" width="2.0000000000000004e-2" x="2.6138762982375614e-2" y="-5.7811257808538456e-2"/>
    <rect height="1.9999999999999997e-2" width="2.0000000000000004e-2" x="2.6261543867895483e-2" y="-6.416637221547371e-2"/>
    <rect height="2.0000000000000004e-2" width="2.0000000000000004e-2" x="2.6150708605704016e-2" y="-4.950382715967227e-2"/>
    <rect height="2.0000000000000004e-2" width="2.0000000000000004e-2" x="2.6133072026487077e-2" y="-5.526835262116469e-2"/>
    <rect height="1.9999999999999997e-2" width="2.0000000000000004e-2" x="2.6355169394380436e-2" y="-7.043047460008543e-2"/>
    <rect height="1.9999999999999997e-2" width="2.0000000000000004e-2" x="2.6476467835178992e-2" y="-6.426327053710833e-2"/>
    <rect height="2.0000000000000004e-2" width="2.0000000000000004e-2" x="2.6488124936009612e-2" y="-5.738341905554122e-2"/>
    <rect height="1.9999999999999997e-2" width="2.0000000000000004e-2" x="2.6583255859291673e-2" y="-6.264046923221166e-2"/>
    <rect height="2.0000000000000004e-2" width="2.0000000000000004e-2" x="2.6647906563060826e-2" y="-6.079451492965359e-2"/>
    <rect height="2.0000000000000004e-2" width="2.0000000000000004e-2" x="2.6613700236613143e-2" y="-5.45774666073161e-2"/>
    <rect height="2.0000000000000004e-2" width="2.0000000000000004e-2" x="2.647835255641718e-2" y="-4.813591807783701e-2"/>
    <rect height="2.0000000000000004e-2" width="2.0000000000000004e-2" x="2.6487874128820484e-2" y="-5.718372327793663e-2"/>
    <rect height="2.0000000000000004e-2" width="2.0000000000000004e-2" x="2.6497184026167638e-2" y="-5.7213334651585616e-2"/>
    <rect height="1.9999999999999997e-2" width="2.0000000000000004e-2" x="2.6678212655255946e-2" y="-6.807652675970154e-2"/>
    <rect height="2.0000000000000004e-2" width="2.0000000000000004e-2" x="2.6717747240105012e-2" y="-5.9288017544024456e-2"/>
    <rect height="2.0000000000000004e-2" width="2.0000000000000004e-2" x="2.6676857439121966e-2" y="-5.4192945724217616e-2"/>
    <rect height="1.9999999999999997e-2" width="2.0000000000000004e-2" x="2.6828082515165448e-2" y="-6.62916904228129e-2"/>
    <rect height="2.0000000000000004e-2" width="2.0000000000000004e-2" x="2.68446488776486e-2" y="-5.792162918926968e-2"/>
    <rect height="2.0000000000000004e-2" width="2.0000000000000004e-2" x="2.686551755562317e-2" y="-5.817107127857767e-2"/>
    <rect height="2.0000000000000004e-2" width="2.0000000000000004e-2" x="2.68107511654967e-2" y="-5.340505848300669e-2"/>
    <rect height="2.0000000000000004e-2" width="2.0000000000000004e-2" x="2.6897797697299504e-2" y="-6.231473799268427e-2"/>
    <rect height="2.0000000000000004e-2" width="2.0000000000000004e-2" x="2.691013921270092e-2" y="-5.7682294813436e-2"/>
    <rect height="2.0000000000000004e-2" width="2.0000000000000004e-2" x="2.6893910232437264e-2" y="-5.586689164916558e-2"/>
    <rect height="2.0000000000000004e-2" width="2.0000000000000004e-2" x="2.6881456793104615e-2" y="-5.608826064050564e-2"/>
    <rect height="2.0000000000000004e-2" width="2.0000000000000004e-2" x="2.683664734480385e-2" y="-5.403637719668807e-2"/>
    <rect height="1.9999999999999997e-2" width="2.0000000000000004e-2" x="2.6930232448639353e-2" y="-6.274663031790971e-2"/>
    <rect height="2.0000000000000004e-2" width="2.0000000000000004e-2" x="2.6869490901442646e-2" y="-5.3085971260850455e-2"/>
    <rect height="2.0000000000000004e-2" width="2.0000000000000004e-2" x="2.6849099807789052e-2" y="-5.5560313071469906e-2"/>
    <rect height="2.0000000000000004e-2" width="2.0000000000000004e-2" x="2.6751865683453564e-2" y="-5.069996012552568e-2"/>
    <rect height="2.0000000000000004e-2" width="2.0000000000000004e-2" x="2.663301501489835e-2" y="-4.925127289726882e-2"/>
    <rect height="2.0000000000000004e-2" width="2.0000000000000004e-2" x="2.6601020971968932e-2" y="-5.466080840179354e-2"/>
    <rect height="1.9999999999999997e-2" width="2.0000000000000004e-2" x="2.6806060598116195e-2" y="-6.964926493436562e-2"/>
    <rect height="2.0000000000000004e-2" width="2.0000000000000004e-2" x="2.6843238896325013e-2" y="-5.922476492749917e-2"/>
    <rect height="1.9999999999999997e-2" width="2.0000000000000004e-2" x="2.6937200822742653e-2" y="-6.279506789577781e-2"/>
    <rect height="2.0000000000000004e-2" width="2.0000000000000004e-2" x="2.691929068264088e-2" y="-5.5797242106481064e-2"/>
    <rect height="2.0000000000000004e-2" width="2.0000000000000004e-2" x="2.6984974273478686e-2" y="-6.104149135878655e-2"/>
    <rect height="2.0000000000000004e-2" width="2.0000000000000004e-2" x="2.7031607990481328e-2" y="-5.9898190397508315e-2"/>
    <rect height="2.0000000000000004e-2" width="2.0000000000000004e-2" x="2.702342045365281e-2" y="-5.645967967084108e-2"/>
    <rect height="2.0000000000000004e-2" width="2.0000000000000004e-2" x="2.6975459524424934e-2" y="-5.392936601730957e-2"/>
    <rect height="1.9999999999999997e-2" width="2.0000000000000004e-2" x="2.712344016450797e-2" y="-6.626835313086198e-2"/>
    <rect height="2.0000000000000004e-2" width="2.0000000000000004e-2" x="2.6843532560785872e-2" y="-3.937685506569721e-2"/>
    <rect height="2.0000000000000004e-2" width="2.0000000000000004e-2" x="2.6828434331650504e-2" y="-5.582306964944516e-2"/>
    <rect height="1.9999999999999997e-2" width="2.0000000000000004e-2" x="2.6926035256941934e-2" y="-6.300289396612734e-2"/>
    <rect height="2.0000000000000004e-2" width="2.0000000000000004e-2" x="2.6854420770164873e-2" y="-5.239728373113805e-2"/>
    <rect height="2.0000000000000004e-2" width="2.0000000000000004e-2" x="2.690121240985622e-2" y="-5.97939144844044e-2"/>
    <rect height="1.9999999999999997e-2" width="2.0000000000000004e-2" x="2.699152963425356e-2" y="-6.260307499798189e-2"/>
    <rect height="1.9999999999999997e-2" width="2.0000000000000004e-2" x="2.714889531441545e-2" y="-6.690428515593803e-2"/>
    <rect height="2.0000000000000004e-2" width="2.0000000000000004e-2" x="2.714126298433995e-2" y="-5.6592655857889966e-2"/>
    <rect height="2.0000000000000004e-2" width="2.0000000000000004e-2" x="2.7164539476345458e-2" y="-5.850374958220494e-2"/>
    <rect height="2.0000000000000004e-2" width="2.0000000000000004e-2" x="2.718657761493582e-2" y="-5.844665871604681e-2"/>
    <rect height="2.0000000000000004e-2" width="2.0000000000000004e-2" x="2.7244574611624002e-2" y="-6.073013868736187e-2"/>
    <rect height="2.0000000000000004e-2" width="2.0000000000000004e-2" x="2.725098234862467e-2" y="-5.751690036473089e-2"/>
    <rect height="2.0000000000000004e-2" width="2.0000000000000004e-2" x="2.7156022205375614e-2" y="-5.111254291536226e-2"/>
    <rect height="2.0000000000000004e-2" width="2.0000000000000004e-2" x="2.719830224264009e-2" y="-5.9694044676475204e-2"/>
    <rect height="2.0000000000000004e-2" width="2.0000000000000004e-2" x="2.7190869760628907e-2" y="-5.661113942130668e-2"/>
    <rect height="2.0000000000000004e-2" width="2.0000000000000004e-2" x="2.7276820597039737e-2" y="-6.249159414781635e-2"/>
    <rect height="2.0000000000000004e-2" width="2.0000000000000004e-2" x="2.7258972477657746e-2" y="-5.601167669678463e-2"/>
    <rect height="2.0000000000000004e-2" width="2.0000000000000004e-2" x="2.7257825910255835e-2" y="-5.703408944616927e-2"/>
    <rect height="2.0000000000000004e-2" width="2.0000000000000004e-2" x="2.7217014095921373e-2" y="-5.453299828187529e-2"/>
    <rect height="2.0000000000000004e-2" width="2.0000000000000004e-2" x="2.7231564031951157e-2" y="-5.799354275116941e-2"/>
    <rect height="2.0000000000000004e-2" width="2.0000000000000004e-2" x="2.7237734414530486e-2" y="-5.748508344263847e-2"/>
    <rect height="1.9999999999999997e-2" width="2.0000000000000004e-2" x="2.7354691039957364e-2" y="-6.448015558878549e-2"/>
    <rect height="2.0000000000000004e-2" width="2.0000000000000004e-2" x="2.7313719682498412e-2" y="-5.460690571392534e-2"/>
    <rect height="2.0000000000000004e-2" width="2.0000000000000004e-2" x="2.729959363732771e-2" y="-5.624551295378188e-2"/>
    <rect height="2.0000000000000004e-2" width="2.0000000000000004e-2" x="2.735728996298393e-2" y="-6.077378218654294e-2"/>
    <rect height="2.0000000000000004e-2" width="2.0000000000000004e-2" x="2.7362933040028688e-2" y="-5.753848204094069e-2"/>
    <rect height="2.0000000000000004e-2" width="2.0000000000000004e-2" x="2.7366959484933624e-2" y="-5.74307213983648e-2"/>
    <rect height="2.0000000000000004e-2" width="2.0000000000000004e-2" x="2.7250251085133355e-2" y="-4.981561288074964e-2"/>
    <rect height="2.0000000000000004e-2" width="2.0000000000000004e-2" x="2.7212030423116935e-2" y="-5.4667745572293806e-2"/>
    <rect height="1.9999999999999997e-2" width="2.0000000000000004e-2" x="2.7340585213091136e-2" y="-6.518923481680104e-2"/>
    <rect height="2.0000000000000004e-2" width="2.0000000000000004e-2" x="2.726718712876864e-2" y="-5.2553649830913256e-2"/>
    <rect height="2.0000000000000004e-2" width="2.0000000000000004e-2" x="2.702216713456474e-2" y="-4.162795380974948e-2"/>
    <rect height="2.0000000000000004e-2" width="2.0000000000000004e-2" x="2.6994199433142747e-2" y="-5.51341271989999e-2"/>
    <rect height="2.0000000000000004e-2" width="2.0000000000000004e-2" x="2.694554100218017e-2" y="-5.385994665715176e-2"/>
    <rect height="2.0000000000000004e-2" width="2.0000000000000004e-2" x="2.6993175538651222e-2" y="-5.991095528926759e-2"/>
    <rect height="2.0000000000000004e-2" width="2.0000000000000004e-2" x="2.6640308504026773e-2" y="-3.46453982600009e-2"/>
    <rect height="1.9999999999999997e-2" width="2.0000000000000004e-2" x="2.6752854745472517e-2" y="-6.374515236772792e-2"/>
    <rect height="2.0000000000000004e-2" width="2.0000000000000004e-2" x="2.6831712532952252e-2" y="-6.180427924123399e-2"/>
    <rect height="1.9999999999999997e-2" width="2.0000000000000004e-2" x="2.6953000348506236e-2" y="-6.452832918538663e-2"/>
    <rect height="2.0000000000000004e-2" width="2.0000000000000004e-2" x="2.686399778180793e-2" y="-5.132050276158683e-2"/>
    <rect height="2.0000000000000004e-2" width="2.0000000000000004e-2" x="2.6763698990834868e-2" y="-5.0496297322607846e-2"/>
    <rect height="1.9999999999999997e-2" width="2.0000000000000004e-2" x="2.6880765813930403e-2" y="-6.417265704957685e-2"/>
    <rect height="2.0000000000000004e-2" width="2.0000000000000004e-2" x="2.683547927056141e-2" y="-5.4037459779471046e-2"/>
    <rect height="2.0000000000000004e-2" width="2.0000000000000004e-2" x="2.666125999251357e-2" y="-4.581539760780517e-2"/>
    <rect height="2.0000000000000004e-2" width="2.0000000000000004e-2" x="2.6678721292516368e-2" y="-5.77912553233536e-2"/>
    <rect height="2.0000000000000004e-2" width="2.0000000000000004e-2" x="2.6556575073691364e-2" y="-4.902504838710275e-2"/>
    <rect height="2.0000000000000004e-2" width="2.0000000000000004e-2" x="2.6457127515596264e-2" y="-5.0349337913568985e-2"/>
    <rect height="2.0000000000000004e-2" width="2.0000000000000004e-2" x="2.6486880391156216e-2" y="-5.845897376729136e-2"/>
    <rect height="2.0000000000000004e-2" width="2.0000000000000004e-2" x="2.6297324333378176e-2" y="-4.4650459117670065e-2"/>
    <rect height="2.0000000000000004e-2" width="2.0000000000000004e-2" x="2.625980346874935e-2" y="-5.409052659541746e-2"/>
    <rect height="1.9999999999999997e-2" width="2.0000000000000004e-2" x="2.6562949037679313e-2" y="-7.561677895388218e-2"/>
    <rect height="1.9999999999999997e-2" width="2.0000000000000004e-2" x="2.6675705308900406e-2" y="-6.387551735988782e-2"/>
    <rect height="2.0000000000000004e-2" width="2.0000000000000004e-2" x="2.6759501057432862e-2" y="-6.206901085106952e-2"/>
    <rect height="1.9999999999999997e-2" width="2.0000000000000004e-2" x="2.6904013491564356e-2" y="-6.595325351880142e-2"/>
    <rect height="2.0000000000000004e-2" width="2.0000000000000004e-2" x="2.6964571334182848e-2" y="-6.0751315655651054e-2"/>
    <rect height="2.0000000000000004e-2" width="2.0000000000000004e-2" x="2.695386600065542e-2" y="-5.626272395016562e-2"/>
    <rect height="2.0000000000000004e-2" width="2.0000000000000004e-2" x="2.6919556411084906e-2" y="-5.4745552417985725e-2"/>
    <rect height="2.0000000000000004e-2" width="2.0000000000000004e-2" x="2.6972735614389072e-2" y="-6.0248214881481126e-2"/>
    <rect height="2.0000000000000004e-2" width="2.0000000000000004e-2" x="2.694404349924829e-2" y="-5.512883943721646e-2"/>
    <rect height="2.0000000000000004e-2" width="2.0000000000000004e-2" x="2.695210409519056e-2" y="-5.7413055171510845e-2"/>
    <rect height="1.9999999999999997e-2" width="2.0000000000000004e-2" x="2.708407326062024e-2" y="-6.525962034363152e-2"/>
    <rect height="2.0000000000000004e-2" width="2.0000000000000004e-2" x="2.7119232723718863e-2" y="-5.925322892142237e-2"/>
    <rect height="1.9999999999999997e-2" width="2.0000000000000004e-2" x="2.724604775893747e-2" y="-6.504156315865205e-2"/>
    <rect height="2.0000000000000004e-2" width="2.0000000000000004e-2" x="2.7219375459823787e-2" y="-5.5445648031765764e-2"/>
    <rect height="2.0000000000000004e-2" width="2.0000000000000004e-2" x="2.7186780934926998e-2" y="-5.502053097169712e-2"/>
    <rect height="2.0000000000000004e-2" width="2.0000000000000004e-2" x="2.7043567549041032e-2" y="-4.8009699116582476e-2"/>
    <rect height="2.0000000000000004e-2" width="2.0000000000000004e-2" x="2.702031321393584e-2" y="-5.5468211973083485e-2"/>
    <rect height="2.0000000000000004e-2" width="2.0000000000000004e-2" x="2.706856940499814e-2" y="-6.000299477491821e-2"/>
    <rect height="2.0000000000000004e-2" width="2.0000000000000004e-2" x="2.7143419301595702e-2" y="-6.173146812702179e-2"/>
    <rect height="1.9999999999999997e-2" width="2.0000000000000004e-2" x="2.724448256974977e-2" y="-6.343928122842256e-2"/>
    <rect height="2.0000000000000004e-2" width="2.0000000000000004e-2" x="2.7277402225669663e-2" y="-5.920215002425288e-2"/>
    <rect height="1.9999999999999997e-2" width="2.0000000000000004e-2" x="2.7377361787083616e-2" y="-6.34393250459102e-2"/>
    <rect height="2.0000000000000004e-2" width="2.0000000000000004e-2" x="2.7341695801389128e-2" y="-5.495403850474411e-2"/>
    <rect height="2.0000000000000004e-2" width="2.0000000000000004e-2" x="2.726358632292692e-2" y="-5.222478775850147e-2"/>
    <rect height="2.0000000000000004e-2" width="2.0000000000000004e-2" x="2.7272942619565484e-2" y="-5.768640390552437e-2"/>
    <rect height="2.0000000000000004e-2" width="2.0000000000000004e-2" x="2.7328327388702618e-2" y="-6.0617745548769635e-2"/>
    <rect height="2.0000000000000004e-2" width="2.0000000000000004e-2" x="2.735147389139681e-2" y="-5.862638998114721e-2"/>
    <rect height="2.0000000000000004e-2" width="2.0000000000000004e-2" x="2.740760456551162e-2" y="-6.071561052761886e-2"/>
    <rect height="2.0000000000000004e-2" width="2.0000000000000004e-2" x="2.739999871638999e-2" y="-5.673481298895066e-2"/>
    <rect height="2.0000000000000004e-2" width="2.0000000000000004e-2" x="2.7341644389436988e-2" y="-5.351555665274132e-2"/>
    <rect height="2.0000000000000004e-2" width="2.0000000000000004e-2" x="2.7239367994326698e-2" y="-5.0693482404276284e-2"/>
    <rect height="2.0000000000000004e-2" width="2.0000000000000004e-2" x="2.7282319763483283e-2" y="-5.9787202014604184e-2"/>
    <rect height="2.0000000000000004e-2" width="2.0000000000000004e-2" x="2.718541228620875e-2" y="-5.1013879459606774e-2"/>
    <rect height="2.0000000000000004e-2" width="2.0000000000000004e-2" x="2.7218213198378034e-2" y="-5.911300697965515e-2"/>
    <rect height="1.9999999999999997e-2" width="2.0000000000000004e-2" x="2.730706353530022e-2" y="-6.270402275391361e-2"/>
    <rect height="2.0000000000000004e-2" width="2.0000000000000004e-2" x="2.736434873656602e-2" y="-6.077639893904562e-2"/>
    <rect height="2.0000000000000004e-2" width="2.0000000000000004e-2" x="2.727961673671831e-2" y="-5.183955372263593e-2"/>
    <rect height="1.9999999999999997e-2" width="2.0000000000000004e-2" x="2.737591744651669e-2" y="-6.318555261272073e-2"/>
    <rect height="2.0000000000000004e-2" width="2.0000000000000004e-2" x="2.7342986033397805e-2" y="-5.512473004439621e-2"/>
    <rect height="2.0000000000000004e-2" width="2.0000000000000004e-2" x="2.7297090696923217e-2" y="-5.425860767271506e-2"/>
    <rect height="2.0000000000000004e-2" width="2.0000000000000004e-2" x="2.7132842414794307e-2" y="-4.6749608640912925e-2"/>
    <rect height="2.0000000000000004e-2" width="2.0000000000000004e-2" x="2.6997896260736683e-2" y="-4.846056426475386e-2"/>
    <rect height="2.0000000000000004e-2" width="2.0000000000000004e-2" x="2.6888820448947477e-2" y="-5.001400141856704e-2"/>
    <rect height="2.0000000000000004e-2" width="2.0000000000000004e-2" x="2.6455246910432113e-2" y="-2.943438554169319e-2"/>
    <rect height="1.9999999999999997e-2" width="2.0000000000000004e-2" x="2.6640252747897726e-2" y="-6.818863526504458e-2"/>
    <rect height="2.0000000000000004e-2" width="2.0000000000000004e-2" x="2.664816368587198e-2" y="-5.726527826600924e-2"/>
    <rect height="1.9999999999999997e-2" width="2.0000000000000004e-2" x="2.6909825165791552e-2" y="-7.326669759733993e-2"/>
    <rect height="2.0000000000000004e-2" width="2.0000000000000004e-2" x="2.6809506223192232e-2" y="-5.0616528826142974e-2"/>
    <rect height="2.0000000000000004e-2" width="2.0000000000000004e-2" x="2.662997552090641e-2" y="-4.5448932432699644e-2"/>
    <rect height="1.9999999999999997e-2" width="2.0000000000000004e-2" x="2.6841888163675394e-2" y="-7.006111971550154e-2"/>
    <rect height="2.0000000000000004e-2" width="2.0000000000000004e-2" x="2.6414515145479885e-2" y="-2.9883362759621328e-2"/>
    <rect height="2.0000000000000004e-2" width="2.0000000000000004e-2" x="2.6451120533076307e-2" y="-5.878645547606597e-2"/>
    <rect height="1.9999999999999997e-2" width="2.0000000000000004e-2" x="2.6654191814219137e-2" y="-6.943698276498632e-2"/>
    <rect height="1.9999999999999997e-2" width="2.0000000000000004e-2" x="2.6821861099489926e-2" y="-6.738109828961257e-2"/>
    <rect height="2.0000000000000004e-2" width="2.0000000000000004e-2" x="2.6704223790741784e-2" y="-4.9442410487450565e-2"/>
    <rect height="1.9999999999999997e-2" width="2.0000000000000004e-2" x="2.6818482700421094e-2" y="-6.395090281435366e-2"/>
    <rect height="2.0000000000000004e-2" width="2.0000000000000004e-2" x="2.6806772530743046e-2" y="-5.612245481413591e-2"/>
    <rect height="2.0000000000000004e-2" width="2.0000000000000004e-2" x="2.6429565756625258e-2" y="-3.297317765696083e-2"/>
    <rect height="1.9999999999999997e-2" width="2.0000000000000004e-2" x="2.658615181258884e-2" y="-6.638405461436779e-2"/>
    <rect height="2.0000000000000004e-2" width="2.0000000000000004e-2" x="2.6538215650929405e-2" y="-5.369635861441923e-2"/>
    <rect height="2.0000000000000004e-2" width="2.0000000000000004e-2" x="2.662987808490503e-2" y="-6.243461648008252e-2"/>
    <rect height="1.9999999999999997e-2" width="2.0000000000000004e-2" x="2.6806413014959236e-2" y="-6.789667493130423e-2"/>
    <rect height="2.0000000000000004e-2" width="2.0000000000000004e-2" x="2.6810852338723608e-2" y="-5.7153939818077475e-2"/>
    <rect height="2.0000000000000004e-2" width="2.0000000000000004e-2" x="2.670856592354643e-2" y="-5.036100243712104e-2"/>
    <rect height="1.9999999999999997e-2" width="2.0000000000000004e-2" x="2.6859230437576105e-2" y="-6.62590778446621e-2"/>
    <rect height="1.9999999999999997e-2" width="2.0000000000000004e-2" x="2.7037689128997962e-2" y="-6.818261871978736e-2"/>
    <rect height="2.0000000000000004e-2" width="2.0000000000000004e-2" x="2.704361859389138e-2" y="-5.739421861491977e-2"/>
    <rect height="2.0000000000000004e-2" width="2.0000000000000004e-2" x="2.703597547722248e-2" y="-5.649247628644915e-2"/>
    <rect height="2.0000000000000004e-2" width="2.0000000000000004e-2" x="2.703438345721821e-2" y="-5.6866216192412826e-2"/>
    <rect height="1.9999999999999997e-2" width="2.0000000000000004e-2" x="2.713052211137313e-2" y="-6.304476183192263e-2"/>
    <rect height="2.0000000000000004e-2" width="2.0000000000000004e-2" x="2.716380923005069e-2" y="-5.915830242419084e-2"/>
    <rect height="2.0000000000000004e-2" width="2.0000000000000004e-2" x="2.7145889359072146e-2" y="-5.5926248601646404e-2"/>
    <rect height="2.0000000000000004e-2" width="2.0000000000000004e-2" x="2.70940461322502e-2" y="-5.375713681071725e-2"/>
    <rect height="2.0000000000000004e-2" width="2.0000000000000004e-2" x="2.7124111261066626e-2" y="-5.889191300138263e-2"/>
    <rect height="2.0000000000000004e-2" width="2.0000000000000004e-2" x="2.712176690609259e-2" y="-5.6884539207990185e-2"/>
    <rect height="2.0000000000000004e-2" width="2.0000000000000004e-2" x="2.7114998694745103e-2" y="-5.6594817404132185e-2"/>
    <rect height="2.0000000000000004e-2" width="2.0000000000000004e-2" x="2.7038323581590425e-2" y="-5.217055000814163e-2"/>
    <rect height="2.0000000000000004e-2" width="2.0000000000000004e-2" x="2.7031055053628912e-2" y="-5.648979689962574e-2"/>
    <rect height="2.0000000000000004e-2" width="2.0000000000000004e-2" x="2.6904901852811254e-2" y="-4.898818837400908e-2"/>
    <rect height="2.0000000000000004e-2" width="2.0000000000000004e-2" x="2.6987758627269993e-2" y="-6.20893729718257e-2"/>
    <rect height="2.0000000000000004e-2" width="2.0000000000000004e-2" x="2.694714130149834e-2" y="-5.439345876932488e-2"/>
    <rect height="2.0000000000000004e-2" width="2.0000000000000004e-2" x="2.6866308368149523e-2" y="-5.179079187450652e-2"/>
    <rect height="2.0000000000000004e-2" width="2.0000000000000004e-2" x="2.69336621726708e-2" y="-6.109746936337434e-2"/>
    <rect height="2.0000000000000004e-2" width="2.0000000000000004e-2" x="2.6753036191823128e-2" y="-4.550262340979249e-2"/>
    <rect height="2.0000000000000004e-2" width="2.0000000000000004e-2" x="2.649386952272515e-2" y="-4.035659077959108e-2"/>
    <rect height="1.9999999999999997e-2" width="2.0000000000000004e-2" x="2.6606980915932395e-2" y="-6.370598871188703e-2"/>
    <rect height="1.9999999999999997e-2" width="2.0000000000000004e-2" x="2.6805118031452364e-2" y="-6.925182804653805e-2"/>
    <rect height="2.0000000000000004e-2" width="2.0000000000000004e-2" x="2.6736599075084085e-2" y="-5.254710094403125e-2"/>
    <rect height="2.0000000000000004e-2" width="2.0000000000000004e-2" x="2.651093797911553e-2" y="-4.249558030034594e-2"/>
    <rect height="1.9999999999999997e-2" width="2.0000000000000004e-2" x="2.663970340455158e-2" y="-6.471429745745459e-2"/>
    <rect height="2.0000000000000004e-2" width="2.0000000000000004e-2" x="2.672774834004466e-2" y="-6.231894884112898e-2"/>
    <rect height="1.9999999999999997e-2" width="2.0000000000000004e-2" x="2.6878742364779835e-2" y="-6.634526143594331e-2"/>
    <rect height="2.0000000000000004e-2" width="2.0000000000000004e-2" x="2.6853720782364927e-2" y="-5.533067630010768e-2"/>
    <rect height="1.9999999999999997e-2" width="2.0000000000000004e-2" x="2.699012950883984e-2" y="-6.547145469656178e-2"/>
    <rect height="2.0000000000000004e-2" width="2.0000000000000004e-2" x="2.695535288535656e-2" y="-5.477986466418227e-2"/>
    <rect height="2.0000000000000004e-2" width="2.0000000000000004e-2" x="2.698929291927988e-2" y="-5.9054073574725356e-2"/>
    <rect height="2.0000000000000004e-2" width="2.0000000000000004e-2" x="2.692763718827152e-2" y="-5.305097297434446e-2"/>
    <rect height="1.9999999999999997e-2" width="2.0000000000000004e-2" x="2.70200469932197e-2" y="-6.272548283788647e-2"/>
    <rect height="2.0000000000000004e-2" width="2.0000000000000004e-2" x="2.696282163984643e-2" y="-5.3367052565850386e-2"/>
    <rect height="2.0000000000000004e-2" width="2.0000000000000004e-2" x="2.699798283024569e-2" y="-5.912955277179565e-2"/>
    <rect height="2.0000000000000004e-2" width="2.0000000000000004e-2" x="2.7019253635028002e-2" y="-5.8299540944326426e-2"/>
    <rect height="2.0000000000000004e-2" width="2.0000000000000004e-2" x="2.7070849863930053e-2" y="-6.022618013928049e-2"/>
    <rect height="2.0000000000000004e-2" width="2.0000000000000004e-2" x="2.71431310355943e-2" y="-6.157423558811425e-2"/>
    <rect height="2.0000000000000004e-2" width="2.0000000000000004e-2" x="2.712371362875788e-2" y="-5.5829236477555326e-2"/>
    <rect height="2.0000000000000004e-2" width="2.0000000000000004e-2" x="2.7162858181802536e-2" y="-5.949319740338432e-2"/>
    <rect height="2.0000000000000004e-2" width="2.0000000000000004e-2" x="2.711220747770094e-2" y="-5.385869728415204e-2"/>
    <rect height="1.9999999999999997e-2" width="2.0000000000000004e-2" x="2.7242068012618866e-2" y="-6.521059839028474e-2"/>
    <rect height="2.0000000000000004e-2" width="2.0000000000000004e-2" x="2.7285813187667658e-2" y="-5.989657030647088e-2"/>
    <rect height="2.0000000000000004e-2" width="2.0000000000000004e-2" x="2.7260064048360684e-2" y="-5.551169105454567e-2"/>
    <rect height="2.0000000000000004e-2" width="2.0000000000000004e-2" x="2.7261699879294617e-2" y="-5.720739095015714e-2"/>
    <rect height="2.0000000000000004e-2" width="2.0000000000000004e-2" x="2.7291978451385653e-2" y="-5.902478582789305e-2"/>
    <rect height="2.0000000000000004e-2" width="2.0000000000000004e-2" x="2.7319441462436707e-2" y="-5.88730906197451e-2"/>
    <rect height="2.0000000000000004e-2" width="2.0000000000000004e-2" x="2.7282361823713026e-2" y="-5.481315368888739e-2"/>
    <rect height="2.0000000000000004e-2" width="2.0000000000000004e-2" x="2.7296059711732552e-2" y="-5.798059527091547e-2"/>
    <rect height="2.0000000000000004e-2" width="2.0000000000000004e-2" x="2.7297305838792425e-2" y="-5.7215524162159796e-2"/>
    <rect height="2.0000000000000004e-2" width="2.0000000000000004e-2" x="2.730037093426097e-2" y="-5.732811801677217e-2"/>
    <rect height="1.9999999999999997e-2" width="2.0000000000000004e-2" x="2.7400484602404525e-2" y="-6.345989714395482e-2"/>
    <rect height="2.0000000000000004e-2" width="2.0000000000000004e-2" x="2.7397408473718084e-2" y="-5.702859513987212e-2"/>
    <rect height="2.0000000000000004e-2" width="2.0000000000000004e-2" x="2.7379158104236308e-2" y="-5.6044660892707425e-2"/>
    <rect height="2.0000000000000004e-2" width="2.0000000000000004e-2" x="2.7316070502604102e-2" y="-5.319800241433314e-2"/>
    <rect height="2.0000000000000004e-2" width="2.0000000000000004e-2" x="2.728479264848483e-2" y="-5.51546326207668e-2"/>
    <rect height="2.0000000000000004e-2" width="2.0000000000000004e-2" x="2.7307101147706077e-2" y="-5.852752985535447e-2"/>
    <rect height="1.9999999999999997e-2" width="2.0000000000000004e-2" x="2.7404411586466233e-2" y="-6.329221007859286e-2"/>
    <rect height="2.0000000000000004e-2" width="2.0000000000000004e-2" x="2.7425343621734773e-2" y="-5.8546097885454056e-2"/>
    <rect height="2.0000000000000004e-2" width="2.0000000000000004e-2" x="2.7474410276239543e-2" y="-6.031714101935481e-2"/>
    <rect height="2.0000000000000004e-2" width="2.0000000000000004e-2" x="2.740645376807383e-2" y="-5.2968166474829374e-2"/>
    <rect height="2.0000000000000004e-2" width="2.0000000000000004e-2" x="2.7273530447905266e-2" y="-4.879377139200813e-2"/>
    <rect height="2.0000000000000004e-2" width="2.0000000000000004e-2" x="2.7170854872626722e-2" y="-5.059686165161425e-2"/>
    <rect height="2.0000000000000004e-2" width="2.0000000000000004e-2" x="2.7253289757183892e-2" y="-6.223661333387164e-2"/>
    <rect height="2.0000000000000004e-2" width="2.0000000000000004e-2" x="2.7265873547166593e-2" y="-5.7922940525814474e-2"/>
    <rect height="1.9999999999999997e-2" width="2.0000000000000004e-2" x="2.738655279198577e-2" y="-6.474224011642703e-2"/>
    <rect height="2.0000000000000004e-2" width="2.0000000000000004e-2" x="2.733133832614299e-2" y="-5.3732694940748386e-2"/>
    <rect height="2.0000000000000004e-2" width="2.0000000000000004e-2" x="2.73067921834318e-2" y="-5.559141931221189e-2"/>
    <rect height="2.0000000000000004e-2" width="2.0000000000000004e-2" x="2.7339246493924614e-2" y="-5.9184195218362705e-2"/>
    <rect height="1.9999999999999997e-2" width="2.0000000000000004e-2" x="2.745125751834699e-2" y="-6.424342164287876e-2"/>
    <rect height="2.0000000000000004e-2" width="2.0000000000000004e-2" x="2.7441516035318976e-2" y="-5.664212253933886e-2"/>
    <rect height="1.9999999999999997e-2" width="2.0000000000000004e-2" x="2.753258406906412e-2" y="-6.297175338943183e-2"/>
    <rect height="2.0000000000000004e-2" width="2.0000000000000004e-2" x="2.7525863622247966e-2" y="-5.687793858557543e-2"/>
    <rect height="2.0000000000000004e-2" width="2.0000000000000004e-2" x="2.7508608687659593e-2" y="-5.618865456505428e-2"/>
    <rect height="2.0000000000000004e-2" width="2.0000000000000004e-2" x="2.7561029533021315e-2" y="-6.0571788833688626e-2"/>
    <rect height="2.0000000000000004e-2" width="2.0000000000000004e-2" x="2.761960049368884e-2" y="-6.100569348806339e-2"/>
    <rect height="2.0000000000000004e-2" width="2.0000000000000004e-2" x="2.7619687229958563e-2" y="-5.735426205437243e-2"/>
    <rect height="2.0000000000000004e-2" width="2.0000000000000004e-2" x="2.7604830767112516e-2" y="-5.64013856752149e-2"/>
    <rect height="2.0000000000000004e-2" width="2.0000000000000004e-2" x="2.7665789656662672e-2" y="-6.1169480774802436e-2"/>
    <rect height="2.0000000000000004e-2" width="2.0000000000000004e-2" x="2.7653570483437313e-2" y="-5.660743894800501e-2"/>
    <rect height="2.0000000000000004e-2" width="2.0000000000000004e-2" x="2.7558620264823815e-2" y="-5.13714586513011e-2"/>
    <rect height="2.0000000000000004e-2" width="2.0000000000000004e-2" x="2.758933759200067e-2" y="-5.921804999274371e-2"/>
    <rect height="1.9999999999999997e-2" width="2.0000000000000004e-2" x="2.769626635324774e-2" y="-6.406854458971677e-2"/>
    <rect height="2.0000000000000004e-2" width="2.0000000000000004e-2" x="2.758221436556197e-2" y="-5.021570812417941e-2"/>
    <rect height="2.0000000000000004e-2" width="2.0000000000000004e-2" x="2.762108363251082e-2" y="-5.974369371722243e-2"/>
    <rect height="2.0000000000000004e-2" width="2.0000000000000004e-2" x="2.756892514561305e-2" y="-5.4056465508425126e-2"/>
    <rect height="2.0000000000000004e-2" width="2.0000000000000004e-2" x="2.7627132728293986e-2" y="-6.0967808261828675e-2"/>
    <rect height="1.9999999999999997e-2" width="2.0000000000000004e-2" x="2.7709261175319806e-2" y="-6.25326119716366e-2"/>
    <rect height="2.0000000000000004e-2" width="2.0000000000000004e-2" x="2.7655339709569023e-2" y="-5.400972623554833e-2"/>
    <rect height="1.9999999999999997e-2" width="2.0000000000000004e-2" x="2.7742065130089373e-2" y="-6.281876173833488e-2"/>
    <rect height="2.0000000000000004e-2" width="2.0000000000000004e-2" x="2.7706948410610506e-2" y="-5.521607513099746e-2"/>
    <rect height="2.0000000000000004e-2" width="2.0000000000000004e-2" x="2.7720704767327582e-2" y="-5.8254470472656854e-2"/>
    <rect height="1.9999999999999997e-2" width="2.0000000000000004e-2" x="2.7826296012326453e-2" y="-6.405762777140676e-2"/>
    <rect height="2.0000000000000004e-2" width="2.0000000000000004e-2" x="2.7866909831060223e-2" y="-6.003795092102248e-2"/>
    <rect height="2.0000000000000004e-2" width="2.0000000000000004e-2" x="2.781436777681235e-2" y="-5.419265074800294e-2"/>
    <rect height="2.0000000000000004e-2" width="2.0000000000000004e-2" x="2.7804551550118635e-2" y="-5.68363680097027e-2"/>
    <rect height="2.0000000000000004e-2" width="2.0000000000000004e-2" x="2.7806887975610046e-2" y="-5.760073415160604e-2"/>
    <rect height="2.0000000000000004e-2" width="2.0000000000000004e-2" x="2.766344636472607e-2" y="-4.842138084736768e-2"/>
    <rect height="2.0000000000000004e-2" width="2.0000000000000004e-2" x="2.7425756516606066e-2" y="-4.234057493739984e-2"/>
    <rect height="1.9999999999999997e-2" width="2.0000000000000004e-2" x="2.755871177476544e-2" y="-6.555836119445911e-2"/>
    <rect height="2.0000000000000004e-2" width="2.0000000000000004e-2" x="2.7534482648207133e-2" y="-5.5798301707465574e-2"/>
    <rect height="2.0000000000000004e-2" width="2.0000000000000004e-2" x="2.7567861461021533e-2" y="-5.938668196267637e-2"/>
    <rect height="2.0000000000000004e-2" width="2.0000000000000004e-2" x="2.730227009017728e-2" y="-4.053716412648766e-2"/>
    <rect height="1.9999999999999997e-2" width="2.0000000000000004e-2" x="2.739715531461096e-2" y="-6.306682354908232e-2"/>
    <rect height="1.9999999999999997e-2" width="2.0000000000000004e-2" x="2.7598235967775116e-2" y="-6.992748776726197e-2"/>
    <rect height="1.9999999999999997e-2" width="2.0000000000000004e-2" x="2.7744827569629933e-2" y="-6.662205640277362e-2"/>
    <rect height="2.0000000000000004e-2" width="2.0000000000000004e-2" x="2.777835094532067e-2" y="-5.955801011600314e-2"/>
    <rect height="2.0000000000000004e-2" width="2.0000000000000004e-2" x="2.768748007059752e-2" y="-5.17145647185645e-2"/>
    <rect height="1.9999999999999997e-2" width="2.0000000000000004e-2" x="2.7778905003694516e-2" y="-6.313092074835812e-2"/>
    <rect height="2.0000000000000004e-2" width="2.0000000000000004e-2" x="2.7789010013783873e-2" y="-5.809167656881408e-2"/>
    <rect height="2.0000000000000004e-2" width="2.0000000000000004e-2" x="2.7866960947638193e-2" y="-6.236076813186197e-2"/>
    <rect height="2.0000000000000004e-2" width="2.0000000000000004e-2" x="2.782896171826977e-2" y="-5.511183327163315e-2"/>
    <rect height="2.0000000000000004e-2" width="2.0000000000000004e-2" x="2.784111993029626e-2" y="-5.823057369357298e-2"/>
    <rect height="2.0000000000000004e-2" width="2.0000000000000004e-2" x="2.7785132113575146e-2" y="-5.3951365825203094e-2"/>
    <rect height="2.0000000000000004e-2" width="2.0000000000000004e-2" x="2.7838407771569214e-2" y="-6.079207363606542e-2"/>
    <rect height="2.0000000000000004e-2" width="2.0000000000000004e-2" x="2.776955184131636e-2" y="-5.314457257863247e-2"/>
    <rect height="2.0000000000000004e-2" width="2.0000000000000004e-2" x="2.7605693708559483e-2" y="-4.7083060306989825e-2"/>
    <rect height="2.0000000000000004e-2" width="2.0000000000000004e-2" x="2.711006222232549e-2" y="-2.5970510306365206e-2"/>
  </g>
</svg>