
<svg xmlns="http://www.w3.org/2000/svg" height="300.0" viewBox="-0.9104277680948124 -0.7283312039844088 1.7014318670455961 1.461347121816856" width="450.0" xmlns:xlink="http://www.w3.org/1999/xlink">
  <g transform="translate(-8.219640591007693e-2, -0.57175)" fill-opacity="1.0" font-size="8.0e-2" stroke="none" stroke-width="0.0" fill="#000000" text-anchor="middle">
    <text transform="rotate(0.0, -0.14087383487083993, -6.25812039844088e-2)" x="-0.14087383487083993" y="-6.25812039844088e-2">moving std dev return
    </text>
  </g>
  <g stroke-opacity="0.0" fill-opacity="3.0e-2" stroke="#000000" stroke-width="0.0" fill="#666666">
    <rect height="0.8661758336942399" width="1.1519299626582706" x="-0.7168388161999752" y="-0.4956691208315287"/>
  </g>
  <g stroke-opacity="0.3" stroke="#a8e5ee" stroke-width="5.0e-3" fill="none">
    <polyline points="-0.7145349562746587,0.3748375920311824
-0.7145349562746587,-0.5"/>
  </g>
  <g stroke-opacity="0.3" stroke="#a8e5ee" stroke-width="5.0e-3" fill="none">
    <polyline points="-0.6661538978430113,0.3748375920311824
-0.6661538978430113,-0.5"/>
  </g>
  <g stroke-opacity="0.3" stroke="#a8e5ee" stroke-width="5.0e-3" fill="none">
    <polyline points="-0.5187068626227527,0.3748375920311824
-0.5187068626227527,-0.5"/>
  </g>
  <g stroke-opacity="0.3" stroke="#a8e5ee" stroke-width="5.0e-3" fill="none">
    <polyline points="-0.37356368732781053,0.3748375920311824
-0.37356368732781053,-0.5"/>
  </g>
  <g stroke-opacity="0.3" stroke="#a8e5ee" stroke-width="5.0e-3" fill="none">
    <polyline points="-0.2284205120328685,0.3748375920311824
-0.2284205120328685,-0.5"/>
  </g>
  <g stroke-opacity="0.3" stroke="#a8e5ee" stroke-width="5.0e-3" fill="none">
    <polyline points="-8.78850565885595e-2,0.3748375920311824
-8.78850565885595e-2,-0.5"/>
  </g>
  <g stroke-opacity="0.3" stroke="#a8e5ee" stroke-width="5.0e-3" fill="none">
    <polyline points="5.7258118706382755e-2,0.3748375920311824
5.7258118706382755e-2,-0.5"/>
  </g>
  <g stroke-opacity="0.3" stroke="#a8e5ee" stroke-width="5.0e-3" fill="none">
    <polyline points="0.20470515392664124,0.3748375920311824
0.20470515392664124,-0.5"/>
  </g>
  <g stroke-opacity="0.3" stroke="#a8e5ee" stroke-width="5.0e-3" fill="none">
    <polyline points="0.35215218914689994,0.3748375920311824
0.35215218914689994,-0.5"/>
  </g>
  <g stroke-opacity="0.3" stroke="#a8e5ee" stroke-width="5.0e-3" fill="none">
    <polyline points="0.4350911464582954,0.3748375920311824
0.4350911464582954,-0.5"/>
  </g>
  <g fill-opacity="1.0" font-size="5.0e-2" stroke="none" stroke-width="0.0" fill="#666666" text-anchor="end">
    <text transform="rotate(-45.0, -0.7145349562746587, 0.5)" x="-0.7145349562746587" y="0.5">28 Feb 2018
    </text>
  </g>
  <g fill-opacity="1.0" font-size="5.0e-2" stroke="none" stroke-width="0.0" fill="#666666" text-anchor="end">
    <text transform="rotate(-45.0, -0.6661538978430113, 0.5)" x="-0.6661538978430113" y="0.5">31 Mar 2018
    </text>
  </g>
  <g fill-opacity="1.0" font-size="5.0e-2" stroke="none" stroke-width="0.0" fill="#666666" text-anchor="end">
    <text transform="rotate(-45.0, -0.5187068626227527, 0.5)" x="-0.5187068626227527" y="0.5">30 Jun 2018
    </text>
  </g>
  <g fill-opacity="1.0" font-size="5.0e-2" stroke="none" stroke-width="0.0" fill="#666666" text-anchor="end">
    <text transform="rotate(-45.0, -0.37356368732781053, 0.5)" x="-0.37356368732781053" y="0.5">30 Sep 2018
    </text>
  </g>
  <g fill-opacity="1.0" font-size="5.0e-2" stroke="none" stroke-width="0.0" fill="#666666" text-anchor="end">
    <text transform="rotate(-45.0, -0.2284205120328685, 0.5)" x="-0.2284205120328685" y="0.5">31 Dec 2018
    </text>
  </g>
  <g fill-opacity="1.0" font-size="5.0e-2" stroke="none" stroke-width="0.0" fill="#666666" text-anchor="end">
    <text transform="rotate(-45.0, -8.78850565885595e-2, 0.5)" x="-8.78850565885595e-2" y="0.5">31 Mar 2019
    </text>
  </g>
  <g fill-opacity="1.0" font-size="5.0e-2" stroke="none" stroke-width="0.0" fill="#666666" text-anchor="end">
    <text transform="rotate(-45.0, 5.7258118706382755e-2, 0.5)" x="5.7258118706382755e-2" y="0.5">30 Jun 2019
    </text>
  </g>
  <g fill-opacity="1.0" font-size="5.0e-2" stroke="none" stroke-width="0.0" fill="#666666" text-anchor="end">
    <text transform="rotate(-45.0, 0.20470515392664124, 0.5)" x="0.20470515392664124" y="0.5">30 Sep 2019
    </text>
  </g>
  <g fill-opacity="1.0" font-size="5.0e-2" stroke="none" stroke-width="0.0" fill="#666666" text-anchor="end">
    <text transform="rotate(-45.0, 0.35215218914689994, 0.5)" x="0.35215218914689994" y="0.5">31 Dec 2019
    </text>
  </g>
  <g fill-opacity="1.0" font-size="5.0e-2" stroke="none" stroke-width="0.0" fill="#666666" text-anchor="end">
    <text transform="rotate(-45.0, 0.4350911464582954, 0.5)" x="0.4350911464582954" y="0.5">24 Feb 2020
    </text>
  </g>
  <g stroke-opacity="0.4" fill-opacity="1.0" stroke="#2c429d" stroke-width="5.0e-3" fill="#5f0391">
    <polyline points="-0.7145349562746587,0.4424577739281074
-0.7145349562746587,0.4124577739281074"/>
    <polyline points="-0.6661538978430113,0.4424577739281074
-0.6661538978430113,0.4124577739281074"/>
    <polyline points="-0.5187068626227527,0.4424577739281074
-0.5187068626227527,0.4124577739281074"/>
    <polyline points="-0.37356368732781053,0.4424577739281074
-0.37356368732781053,0.4124577739281074"/>
    <polyline points="-0.2284205120328685,0.4424577739281074
-0.2284205120328685,0.4124577739281074"/>
    <polyline points="-8.78850565885595e-2,0.4424577739281074
-8.78850565885595e-2,0.4124577739281074"/>
    <polyline points="5.7258118706382755e-2,0.4424577739281074
5.7258118706382755e-2,0.4124577739281074"/>
    <polyline points="0.20470515392664124,0.4424577739281074
0.20470515392664124,0.4124577739281074"/>
    <polyline points="0.35215218914689994,0.4424577739281074
0.35215218914689994,0.4124577739281074"/>
    <polyline points="0.4350911464582954,0.4424577739281074
0.4350911464582954,0.4124577739281074"/>
  </g>
  <g stroke-opacity="0.0" fill-opacity="0.5" stroke="#666666" stroke-width="0.0" fill="#5f0391">
    <rect height="4.330879168471247e-3" width="1.1519299626582706" x="-0.7168388161999752" y="0.4144651364226938"/>
  </g>
  <g stroke-opacity="0.3" stroke="#a8e5ee" stroke-width="5.0e-3" fill="none">
    <polyline points="-0.7197186411066209,0.3705067128627112
0.4379709713649409,0.3705067128627112"/>
  </g>
  <g stroke-opacity="0.3" stroke="#a8e5ee" stroke-width="5.0e-3" fill="none">
    <polyline points="-0.7197186411066209,0.2261440739136712
0.4379709713649409,0.2261440739136712"/>
  </g>
  <g stroke-opacity="0.3" stroke="#a8e5ee" stroke-width="5.0e-3" fill="none">
    <polyline points="-0.7197186411066209,8.17814349646312e-2
0.4379709713649409,8.17814349646312e-2"/>
  </g>
  <g stroke-opacity="0.3" stroke="#a8e5ee" stroke-width="5.0e-3" fill="none">
    <polyline points="-0.7197186411066209,-6.25812039844088e-2
0.4379709713649409,-6.25812039844088e-2"/>
  </g>
  <g stroke-opacity="0.3" stroke="#a8e5ee" stroke-width="5.0e-3" fill="none">
    <polyline points="-0.7197186411066209,-0.2069438429334487
0.4379709713649409,-0.2069438429334487"/>
  </g>
  <g stroke-opacity="0.3" stroke="#a8e5ee" stroke-width="5.0e-3" fill="none">
    <polyline points="-0.7197186411066209,-0.3513064818824887
0.4379709713649409,-0.3513064818824887"/>
  </g>
  <g stroke-opacity="0.3" stroke="#a8e5ee" stroke-width="5.0e-3" fill="none">
    <polyline points="-0.7197186411066209,-0.4956691208315287
0.4379709713649409,-0.4956691208315287"/>
  </g>
  <g fill-opacity="1.0" font-size="5.0e-2" stroke="none" stroke-width="0.0" fill="#666666" text-anchor="end">
    <text x="-0.75" y="0.3830662624512776">-60%
    </text>
  </g>
  <g fill-opacity="1.0" font-size="5.0e-2" stroke="none" stroke-width="0.0" fill="#666666" text-anchor="end">
    <text x="-0.75" y="0.23870362350223773">-40%
    </text>
  </g>
  <g fill-opacity="1.0" font-size="5.0e-2" stroke="none" stroke-width="0.0" fill="#666666" text-anchor="end">
    <text x="-0.75" y="9.434098455319773e-2">-20%
    </text>
  </g>
  <g fill-opacity="1.0" font-size="5.0e-2" stroke="none" stroke-width="0.0" fill="#666666" text-anchor="end">
    <text x="-0.75" y="-5.0021654395842385e-2">0%
    </text>
  </g>
  <g fill-opacity="1.0" font-size="5.0e-2" stroke="none" stroke-width="0.0" fill="#666666" text-anchor="end">
    <text x="-0.75" y="-0.19438429334488216">20%
    </text>
  </g>
  <g fill-opacity="1.0" font-size="5.0e-2" stroke="none" stroke-width="0.0" fill="#666666" text-anchor="end">
    <text x="-0.75" y="-0.3387469322939223">40%
    </text>
  </g>
  <g fill-opacity="1.0" font-size="5.0e-2" stroke="none" stroke-width="0.0" fill="#666666" text-anchor="end">
    <text x="-0.75" y="-0.4831095712429623">60%
    </text>
  </g>
  <g stroke-opacity="0.4" fill-opacity="1.0" stroke="#2c429d" stroke-width="5.0e-3" fill="#5f0391">
    <g transform="rotate(-90.0, -0.7312379407332036, 0.3705067128627112)">
      <polyline points="-0.7312379407332036,0.3855067128627112
-0.7312379407332036,0.3555067128627112"/>
    </g>
    <g transform="rotate(-90.0, -0.7312379407332036, 0.2261440739136712)">
      <polyline points="-0.7312379407332036,0.2411440739136712
-0.7312379407332036,0.21114407391367118"/>
    </g>
    <g transform="rotate(-90.0, -0.7312379407332036, 8.17814349646312e-2)">
      <polyline points="-0.7312379407332036,9.67814349646312e-2
-0.7312379407332036,6.67814349646312e-2"/>
    </g>
    <g transform="rotate(-90.0, -0.7312379407332036, -6.25812039844088e-2)">
      <polyline points="-0.7312379407332036,-4.758120398440881e-2
-0.7312379407332036,-7.75812039844088e-2"/>
    </g>
    <g transform="rotate(-90.0, -0.7312379407332036, -0.2069438429334487)">
      <polyline points="-0.7312379407332036,-0.19194384293344868
-0.7312379407332036,-0.2219438429334487"/>
    </g>
    <g transform="rotate(-90.0, -0.7312379407332036, -0.3513064818824887)">
      <polyline points="-0.7312379407332036,-0.3363064818824887
-0.7312379407332036,-0.3663064818824887"/>
    </g>
    <g transform="rotate(-90.0, -0.7312379407332036, -0.4956691208315287)">
      <polyline points="-0.7312379407332036,-0.4806691208315287
-0.7312379407332036,-0.5106691208315287"/>
    </g>
  </g>
  <g stroke-opacity="0.0" fill-opacity="0.5" stroke="#666666" stroke-width="0.0" fill="#5f0391">
    <rect height="0.8661758336942399" width="2.8798249066456227e-3" x="-0.7254782909199122" y="-0.4956691208315287"/>
  </g>
  <g stroke-opacity="0.5" stroke="#ac0505" stroke-width="2.0e-3" fill="none">
    <polyline points="-0.7145349562746587,-6.25812039844088e-2
0.4350911464582954,-6.25812039844088e-2"/>
  </g>
  <g stroke-opacity="0.5" stroke="#4b2282" stroke-width="7.0e-3" fill="none">
    <polyline points="-0.7145349562746587,-7.171741408435772e-2
-0.7122310963493421,-7.172677841508734e-2
-0.7099272364240256,-7.15431622538013e-2
-0.707623376498709,-7.150174722142277e-2
-0.7053195165733925,-7.128543460973791e-2
-0.703015656648076,-7.106566702824457e-2
-0.7007117967227594,-7.08786304769653e-2
-0.6984079367974428,-7.109306224652368e-2
-0.6961040768721263,-7.088665976232855e-2
-0.6938002169468098,-7.076096896152961e-2
-0.6914963570214933,-7.061803064072025e-2
-0.6891924970961767,-7.041666784738887e-2
-0.6868886371708601,-7.022135418642383e-2
-0.6845847772455436,-7.037857701048922e-2
-0.6822809173202271,-7.018656109091292e-2
-0.6799770573949105,-6.999822466732974e-2
-0.677673197469594,-7.082248305513639e-2
-0.6753693375442774,-7.118527034492628e-2
-0.673065477618961,-7.215558348837348e-2
-0.6707616176936444,-7.226011819846712e-2
-0.6684577577683278,-7.201636214221419e-2
-0.6661538978430113,-7.210106221495538e-2
-0.6638500379176948,-7.245212623624298e-2
-0.6615461779923782,-7.24796066152672e-2
-0.6592423180670617,-7.244389038491306e-2
-0.6569384581417451,-7.227028092150933e-2
-0.6546345982164286,-7.262214146644175e-2
-0.6523307382911121,-7.239815555196683e-2
-0.6500268783657955,-7.255571796624227e-2
-0.647723018440479,-7.233641810532032e-2
-0.6454191585151624,-7.219187621259282e-2
-0.6431152985898458,-7.195783872769279e-2
-0.6408114386645294,-7.181646147146292e-2
-0.6385075787392128,-7.173437413189176e-2
-0.6362037188138963,-7.150269694055778e-2
-0.6338998588885797,-7.133375314794743e-2
-0.6315959989632631,-7.122500530159814e-2
-0.6292921390379467,-7.100621140494012e-2
-0.6269882791126301,-7.105589758744635e-2
-0.6246844191873135,-7.085186963143708e-2
-0.622380559261997,-7.082832723252919e-2
-0.6200766993366804,-7.062189832451915e-2
-0.617772839411364,-7.052247781362708e-2
-0.6154689794860474,-7.033601352970209e-2
-0.6131651195607308,-7.021729646057107e-2
-0.6108612596354144,-7.002811261329867e-2
-0.6085573997100978,-7.014307719160773e-2
-0.6062535397847812,-6.997249738754496e-2
-0.6039496798594648,-6.978557340764613e-2
-0.6016458199341481,-6.976225110043843e-2
-0.5993419600088317,-6.971507252788567e-2
-0.5970381000835151,-6.953533514468313e-2
-0.5947342401581985,-6.93592930637894e-2
-0.592430380232882,-6.930326164310652e-2
-0.5901265203075654,-6.915513858210753e-2
-0.587822660382249,-6.899398534010626e-2
-0.5855188004569324,-6.885384004843464e-2
-0.5832149405316158,-6.878814103781994e-2
-0.5809110806062993,-6.866413386681958e-2
-0.5786072206809827,-6.852370590011692e-2
-0.5763033607556662,-6.839047290502176e-2
-0.5739995008303497,-6.826347338782379e-2
-0.5716956409050331,-6.844039001512958e-2
-0.5693917809797165,-6.863144582265235e-2
-0.5670879210544,-6.859370449050717e-2
-0.5647840611290835,-6.867465696594577e-2
-0.562480201203767,-6.854976735776819e-2
-0.5601763412784504,-6.839872016548287e-2
-0.5578724813531338,-6.837753069479457e-2
-0.5555686214278173,-6.823937474887809e-2
-0.5532647615025008,-6.810464222408197e-2
-0.5509609015771842,-6.79648769178971e-2
-0.5486570416518677,-6.78291126141648e-2
-0.5463531817265511,-6.776414501885852e-2
-0.5440493218012346,-6.763807610361872e-2
-0.5417454618759181,-6.752115690889338e-2
-0.5394416019506015,-6.742089300076648e-2
-0.537137742025285,-6.735988526448933e-2
-0.5348338820999685,-6.724225367441272e-2
-0.5325300221746518,-6.725604040356092e-2
-0.5302261622493354,-6.714435634602123e-2
-0.5279223023240188,-6.755750955406403e-2
-0.5256184423987023,-6.744797027634886e-2
-0.5233145824733857,-6.750656620873985e-2
-0.5210107225480691,-6.749940227000384e-2
-0.5187068626227527,-6.737773222439736e-2
-0.516403002697436,-6.728511293955242e-2
-0.5140991427721195,-6.722990522826544e-2
-0.5117952828468031,-6.732381899463302e-2
-0.5094914229214865,-6.73855225267801e-2
-0.50718756299617,-6.744015587962826e-2
-0.5048837030708534,-6.733362034607515e-2
-0.5025798431455368,-6.738945682080089e-2
-0.5002759832202204,-6.743549872305199e-2
-0.4979721232949038,-6.731258541324903e-2
-0.49566826336958725,-6.72045963583956e-2
-0.4933644034442707,-6.711217522590973e-2
-0.4910605435189542,-6.70004916768363e-2
-0.4887566835936376,-6.696350760874326e-2
-0.4864528236683211,-6.686256041018679e-2
-0.48414896374300453,-6.675722512310134e-2
-0.481845103817688,-6.669746923185227e-2
-0.47954124389237146,-6.678581725997468e-2
-0.4772373839670549,-6.674007764089906e-2
-0.47493352404173844,-6.681747380775094e-2
-0.47262966411642193,-6.683947340468632e-2
-0.47032580419110537,-6.678783667956989e-2
-0.4680219442657888,-6.669082778090996e-2
-0.46571808434047224,-6.664266032144761e-2
-0.46341422441515573,-6.658409530222187e-2
-0.46111036448983916,-6.650225760210304e-2
-0.45880650456452265,-6.641175604786664e-2
-0.4565026446392061,-6.632238533830603e-2
-0.4541987847138896,-6.625090508393372e-2
-0.45189492478857296,-6.638281120360168e-2
-0.44959106486325645,-6.635814699382692e-2
-0.44728720493793994,-6.638015677653675e-2
-0.4449833450126234,-6.650928650462495e-2
-0.4426794850873068,-6.659220966844481e-2
-0.4403756251619903,-6.651281886227478e-2
-0.4380717652366738,-6.642178845099156e-2
-0.4357679053113572,-6.63291843302346e-2
-0.43346404538604066,-6.624034745717922e-2
-0.4311601854607241,-6.617046947917316e-2
-0.4288563255354076,-6.61825403299765e-2
-0.426552465610091,-6.624277902602194e-2
-0.4242486056847745,-6.615409877574507e-2
-0.42194474575945795,-6.613148511367517e-2
-0.4196408858341414,-6.616610935661038e-2
-0.4173370259088248,-6.607947720517182e-2
-0.4150331659835083,-6.601958875793623e-2
-0.4127293060581918,-6.598620455266946e-2
-0.41042544613287524,-6.597427659810218e-2
-0.4081215862075587,-6.591800458454311e-2
-0.4058177262822421,-6.58413065005179e-2
-0.4035138663569256,-6.579831820182847e-2
-0.40121000643160903,-6.57173124516186e-2
-0.3989061465062925,-6.572202410254957e-2
-0.39660228658097596,-6.564411429853545e-2
-0.39429842665565945,-6.573488396160987e-2
-0.3919945667303429,-6.574647005725665e-2
-0.3896907068050263,-6.566716874166778e-2
-0.3873868468797098,-6.578393178440989e-2
-0.38508298695439325,-6.571215925456264e-2
-0.3827791270290768,-6.571791725898035e-2
-0.38047526710376023,-6.565740201108239e-2
-0.37817140717844366,-6.564630206319233e-2
-0.37586754725312715,-6.558887531995206e-2
-0.37356368732781053,-6.551458950316658e-2
-0.371259827402494,-6.547923331978855e-2
-0.3689559674771775,-6.541187252775482e-2
-0.36665210755186095,-6.53401985667258e-2
-0.3643482476265444,-6.561445604548666e-2
-0.3620443877012279,-6.56759169952309e-2
-0.35974052777591137,-6.559813560642547e-2
-0.3574366678505948,-6.552975373680048e-2
-0.35513280792527824,-6.85575725487233e-2
-0.35282894799996173,-6.912941235773717e-2
-0.3505250880746452,-6.949097021173278e-2
-0.34822122814932865,-6.934593779677367e-2
-0.3459173682240121,-7.012899202016487e-2
-0.3436135082986956,-6.993861901997056e-2
-0.34130964837337896,-7.006526969384796e-2
-0.3390057884480624,-6.98782226055561e-2
-0.3367019285227459,-6.970713296919584e-2
-0.3343980685974294,-6.955351033019896e-2
-0.3320942086721128,-7.081149899502215e-2
-0.32979034874679625,-7.130343302890896e-2
-0.32748648882147974,-7.141475617973947e-2
-0.32518262889616323,-7.120961945845061e-2
-0.32287876897084666,-7.149150507472657e-2
-0.3205749090455301,-7.150434147232054e-2
-0.3182710491202136,-7.148371668840092e-2
-0.3159671891948971,-7.129917327924784e-2
-0.3136633292695805,-7.114608178206139e-2
-0.31135946934426395,-7.100450595561136e-2
-0.30905560941894744,-7.146262487935606e-2
-0.30675174949363093,-7.125096511920859e-2
-0.30444788956831437,-7.116588891506881e-2
-0.3021440296429978,-7.150924323300079e-2
-0.2998401697176813,-7.128339721694732e-2
-0.2975363097923648,-7.112417278025251e-2
-0.2952324498670482,-7.111827651689906e-2
-0.29292858994173165,-7.091601024601624e-2
-0.29062473001641514,-7.109057812413422e-2
-0.28832087009109864,-7.128738950323943e-2
-0.28601701016578207,-7.110888367005141e-2
-0.28371315024046545,-7.09232381991618e-2
-0.28140929031514894,-7.117564120132491e-2
-0.2791054303898324,-7.099003399774284e-2
-0.2768015704645158,-7.15973355469266e-2
-0.2744977105391993,-7.137591428598045e-2
-0.2721938506138828,-7.125030782207042e-2
-0.26988999068856623,-7.119247350943614e-2
-0.26758613076324966,-7.251301617007688e-2
-0.26528227083793315,-7.226214290287092e-2
-0.26297841091261664,-7.267166304140504e-2
-0.2606745509873001,-7.243399808228079e-2
-0.2583706910619835,-7.218726968911304e-2
-0.256066831136667,-7.201134633158712e-2
-0.2537629712113504,-7.177446624471373e-2
-0.2514591112860338,-7.197580742896059e-2
-0.24915525136071737,-7.220214388476787e-2
-0.2468513914354008,-7.197245959568321e-2
-0.24454753151008424,-7.194400188077943e-2
-0.24224367158476767,-7.190888707489629e-2
-0.2399398116594511,-7.203872897577501e-2
-0.23763595173413465,-7.245088879784767e-2
-0.2353320918088182,-7.547683670824246e-2
-0.23302823188350164,-7.5290951818211e-2
-0.23072437195818507,-7.497174781273785e-2
-0.2284205120328685,-7.478667914610282e-2
-0.22611665210755194,-7.449025680486598e-2
-0.22381279218223538,-7.474075519170009e-2
-0.2215089322569188,-7.578187577877604e-2
-0.21920507233160236,-7.551423240429656e-2
-0.2169012124062858,-7.529614036989085e-2
-0.21459735248096923,-7.499431167790538e-2
-0.21229349255565277,-7.470243149828426e-2
-0.2099896326303362,-7.43955587131192e-2
-0.20768577270501964,-7.412677224418796e-2
-0.20538191277970308,-7.39639271712238e-2
-0.20307805285438651,-7.367970998817241e-2
-0.20077419292907006,-7.34568877774362e-2
-0.1984703330037535,-7.335721851261245e-2
-0.19616647307843693,-7.336912387678218e-2
-0.19386261315312037,-7.30989411337134e-2
-0.1915587532278038,-7.283319158377544e-2
-0.18925489330248724,-7.264729696546723e-2
-0.18695103337717067,-7.249379684665613e-2
-0.18464717345185422,-7.224855245359052e-2
-0.18234331352653765,-7.228996093110185e-2
-0.1800394536012211,-7.211282903988347e-2
-0.17773559367590464,-7.187226058726892e-2
-0.17543173375058807,-7.16728842966774e-2
-0.1731278738252714,-7.145375018269262e-2
-0.17082401389995483,-7.125487903982541e-2
-0.16852015397463838,-7.12172378194511e-2
-0.1662162940493218,-7.0999050423743e-2
-0.16391243412400536,-7.078629963832084e-2
-0.1616085741986888,-7.078457524973558e-2
-0.15930471427337234,-7.057925750844496e-2
-0.15700085434805577,-7.040871149681649e-2
-0.1546969944227392,-7.034679712436842e-2
-0.15239313449742264,-7.015070908219234e-2
-0.15008927457210608,-6.995916600139895e-2
-0.14778541464678963,-6.98254161930919e-2
-0.14548155472147306,-6.967958743407743e-2
-0.1431776947961565,-6.950086745541462e-2
-0.14087383487083993,-6.9339393828452e-2
-0.13856997494552337,-6.917867535794608e-2
-0.1362661150202068,-6.905084885353618e-2
-0.13396225509489024,-6.894411343564244e-2
-0.13165839516957378,-6.884580339147617e-2
-0.12935453524425722,-6.870073198919657e-2
-0.12705067531894065,-6.867296300509518e-2
-0.1247468153936242,-6.868853389944307e-2
-0.12244295546830763,-6.854805478991366e-2
-0.12013909554299107,-6.881194149468928e-2
-0.1178352356176745,-6.866145909880728e-2
-0.11553137569235794,-6.85766931576024e-2
-0.11322751576704149,-6.843616622061444e-2
-0.11092365584172492,-6.831668325151241e-2
-0.10861979591640836,-6.81820758627808e-2
-0.10631593599109179,-6.804718006135657e-2
-0.10401207606577523,-6.79551662459662e-2
-0.10170821614045866,-6.802761107977817e-2
-9.94043562151421e-2,-6.882852822912511e-2
-9.710049628982564e-2,-6.867536850676548e-2
-9.479663636450908e-2,-6.86084904515386e-2
-9.249277643919251e-2,-6.852238791044463e-2
-9.018891651387606e-2,-6.83897091024187e-2
-8.78850565885595e-2,-6.831743070697738e-2
-8.558119666324293e-2,-6.840516061019708e-2
-8.327733673792637e-2,-6.826353229549076e-2
-8.09734768126098e-2,-6.812038758264993e-2
-7.866961688729335e-2,-6.798066326046126e-2
-7.636575696197667e-2,-6.786507194239377e-2
-7.406189703666022e-2,-6.77325558019376e-2
-7.175803711134365e-2,-6.775081456551069e-2
-6.945417718602709e-2,-6.763098664312184e-2
-6.715031726071052e-2,-6.75081592647141e-2
-6.484645733539396e-2,-6.745270377822565e-2
-6.25425974100775e-2,-6.734279776961338e-2
-6.023873748476094e-2,-6.722500667348208e-2
-5.7934877559444375e-2,-6.714580748045706e-2
-5.563101763412792e-2,-6.703045824769571e-2
-5.332715770881136e-2,-6.691804670364754e-2
-5.10232977834949e-2,-6.697031352167815e-2
-4.871943785817834e-2,-6.690206689245204e-2
-4.641557793286177e-2,-6.680261893408856e-2
-4.411171800754521e-2,-6.672822145866952e-2
-4.1807858082228755e-2,-6.662390640330529e-2
-3.950399815691219e-2,-6.65225664402479e-2
-3.7200138231595625e-2,-6.667667008114653e-2
-3.489627830627917e-2,-6.66039696583749e-2
-3.259241838096261e-2,-6.673455331259126e-2
-3.0288558455646042e-2,-6.673094806540258e-2
-2.7984698530329366e-2,-6.748976981667332e-2
-2.5680838605012912e-2,-6.737341404084285e-2
-2.3376978679696347e-2,-6.727719567312773e-2
-2.1073118754379783e-2,-6.719736665658771e-2
-1.876925882906333e-2,-6.850770130810213e-2
-1.6465398903746764e-2,-6.853299699051163e-2
-1.41615389784302e-2,-6.847167942164867e-2
-1.1857679053113634e-2,-6.850242297387099e-2
-9.55381912779707e-3,-6.842824630005306e-2
-7.249959202480616e-3,-6.837352849538192e-2
-4.946099277164051e-3,-6.840086082542274e-2
-2.6422393518474863e-3,-6.827008512648491e-2
-3.383794265310325e-4,-6.842744172504156e-2
1.9654804987856433e-3,-6.828943086437145e-2
4.269340424102097e-3,-6.827597568538524e-2
6.573200349418773e-3,-6.820783970605804e-2
8.877060274735227e-3,-6.809238192986189e-2
1.1180920200051792e-2,-6.827952712490537e-2
1.3484780125368245e-2,-6.813733771994646e-2
1.578864005068481e-2,-6.909887086138078e-2
1.8092499976001264e-2,-6.908372901272597e-2
2.039635990131794e-2,-6.899783098868473e-2
2.2700219826634616e-2,-6.904495157234114e-2
2.500407975195107e-2,-6.891366754191175e-2
2.7307939677267634e-2,-6.875591654181357e-2
2.9611799602584088e-2,-6.861532146741767e-2
3.191565952790065e-2,-6.848821384116943e-2
3.4219519453217107e-2,-6.83507987675106e-2
3.652337937853378e-2,-6.820488662415225e-2
3.8827239303850236e-2,-6.824274487189896e-2
4.113109922916691e-2,-6.810721566218825e-2
4.3434959154483366e-2,-6.812042741323521e-2
4.573881907979993e-2,-6.799910423135169e-2
4.8042679005116384e-2,-6.788595340352976e-2
5.034653893043295e-2,-6.802629964960061e-2
5.2650398855749625e-2,-6.789778664382462e-2
5.495425878106608e-2,-6.778675279145074e-2
5.7258118706382755e-2,-6.771350066416137e-2
5.956197863169921e-2,-6.768922104102382e-2
6.186583855701577e-2,-6.756564283594502e-2
6.416969848233223e-2,-6.753532022223163e-2
6.647355840764879e-2,-6.744285058461796e-2
6.877741833296525e-2,-6.742727353511524e-2
7.108127825828192e-2,-6.730457420933034e-2
7.338513818359838e-2,-6.721275490720102e-2
7.568899810891505e-2,-6.709741869263752e-2
7.79928580342315e-2,-6.701044405768763e-2
8.029671795954807e-2,-6.690443478727826e-2
8.260057788486463e-2,-6.686707838132533e-2
8.490443781018109e-2,-6.69382002335186e-2
8.720829773549776e-2,-6.684830750963333e-2
8.951215766081422e-2,-6.689393810414968e-2
9.18160175861309e-2,-6.679807424477191e-2
9.411987751144713e-2,-6.679910843721071e-2
9.64237374367638e-2,-6.67305998979304e-2
9.872759736208037e-2,-6.675501599193912e-2
0.10103145728739682,-6.677235313592367e-2
0.10333531721271338,-6.669146725583341e-2
0.10563917713802984,-6.662970317466299e-2
0.10794303706334651,-6.694797299981492e-2
0.11024689698866297,-6.708637981165544e-2
0.11255075691397964,-6.71156016564648e-2
0.1148546168392961,-6.901834141128149e-2
0.11715847676461266,-6.927893560569875e-2
0.11946233668992912,-6.91168399822627e-2
0.12176619661524568,-6.966601209161083e-2
0.12407005654056213,-6.956194666351367e-2
0.1263739164658788,-6.963934092315105e-2
0.12867777639119526,-6.991082910231472e-2
0.13098163631651194,-7.109813447091073e-2
0.1332854962418285,-7.090861155417716e-2
0.13558935616714496,-7.107177734246084e-2
0.13789321609246152,-7.109678294034716e-2
0.14019707601777798,-7.097269203577017e-2
0.14250093594309465,-7.087380915295405e-2
0.1448047958684111,-7.066415800105874e-2
0.14710865579372778,-7.1473878924463e-2
0.14941251571904424,-7.146222233141852e-2
0.1517163756443608,-7.124587253628945e-2
0.15402023556967726,-7.110659970451083e-2
0.15632409549499382,-7.114341851758255e-2
0.15862795542031027,-7.092699481628817e-2
0.16093181534562695,-7.079172040223836e-2
0.16323567527094363,-7.076792638102436e-2
0.16553953519626008,-7.080191945101921e-2
0.16784339512157664,-7.059377531759792e-2
0.1701472550468931,-7.039272961812948e-2
0.17245111497220966,-7.019553565817582e-2
0.17475497489752612,-7.006872450689883e-2
0.1770588348228428,-6.988381327161663e-2
0.17936269474815925,-6.97060088210053e-2
0.18166655467347592,-6.95590313466683e-2
0.18397041459879238,-6.938700120376029e-2
0.18627427452410894,-6.921563187361213e-2
0.1885781344494254,-6.904957011439239e-2
0.19088199437474196,-6.895330054911042e-2
0.1931858543000584,-6.87931549689278e-2
0.1954897142253751,-6.880252272008303e-2
0.19779357415069176,-6.871691215357179e-2
0.20009743407600822,-6.857911081458101e-2
0.20240129400132478,-6.849485194901972e-2
0.20470515392664124,-6.839812954549063e-2
0.2070090138519578,-6.858929171386874e-2
0.20931287377727426,-6.906794642143055e-2
0.21161673370259093,-6.906568947361524e-2
0.21392059362790738,-6.932076511810015e-2
0.21622445355322406,-6.918772006492568e-2
0.21852831347854051,-6.946362507100423e-2
0.22083217340385708,-6.947399427337786e-2
0.22313603332917353,-6.938662919523908e-2
0.2254398932544901,-6.943794675976722e-2
0.22774375317980677,-6.927018660589546e-2
0.23004761310512323,-6.92736131535816e-2
0.2323514730304399,-6.911884012751368e-2
0.23465533295575636,-6.896199342225262e-2
0.23695919288107292,-6.884377619617466e-2
0.23926305280638938,-6.876598000537482e-2
0.24156691273170594,-6.864910730082097e-2
0.2438707726570224,-6.850587726662394e-2
0.24617463258233885,-6.835892431014534e-2
0.24847849250765552,-6.823624537360373e-2
0.250782352432972,-6.814074968222761e-2
0.25308621235828865,-6.800920069127026e-2
0.2553900722836051,-6.788277246539187e-2
0.2576939322089218,-6.779086711756321e-2
0.259997792134238,-6.783776012501741e-2
0.2623016520595547,-6.771731276960957e-2
0.26460551198487114,-6.76053573689499e-2
0.2669093719101878,-6.747932485150032e-2
0.2692132318355043,-6.736019508013291e-2
0.27151709176082095,-6.724261945534171e-2
0.2738209516861374,-6.715674174739106e-2
0.27612481161145386,-6.704107119012004e-2
0.27842867153677053,-6.692919377871476e-2
0.280732531462087,-6.681969488364614e-2
0.28303639138740366,-6.683331395006531e-2
0.2853402513127201,-6.672914490059667e-2
0.2876441112380368,-6.663790252984048e-2
0.28994797116335325,-6.661855078550483e-2
0.2922518310886697,-6.654002715834129e-2
0.2945556910139864,-6.644398474816804e-2
0.29685955093930283,-6.647822150526428e-2
0.2991634108646193,-6.638156930392014e-2
0.30146727078993596,-6.630999680554628e-2
0.3037711307152524,-6.632082588467791e-2
0.3060749906405691,-6.65492103164913e-2
0.30837885056588554,-6.662298245955489e-2
0.3106827104912022,-6.662759311486188e-2
0.3129865704165187,-6.652702690557344e-2
0.3152904303418351,-6.664437893953012e-2
0.3175942902671518,-6.660008043174048e-2
0.31989815019246826,-6.651168265883567e-2
0.32220201011778493,-6.642565752457386e-2
0.3245058700431014,-6.651340003104644e-2
0.32680972996841806,-6.641901090882874e-2
0.3291135898937343,-6.643324908910586e-2
0.33141744981905097,-6.634072004184477e-2
0.3337213097443674,-6.62582005576331e-2
0.3360251696696841,-6.619685988776236e-2
0.3383290295950008,-6.614498699378579e-2
0.34063288952031723,-6.605741057443915e-2
0.3429367494456339,-6.59823073654332e-2
0.34524060937095014,-6.594218039719202e-2
0.3475444692962668,-6.586842866628995e-2
0.34984832922158327,-6.599443380479575e-2
0.35215218914689994,-6.59179190966589e-2
0.3544560490722164,-6.601249715671265e-2
0.35675990899753307,-6.620216825045311e-2
0.3590637689228495,-6.612788717026086e-2
0.361367628848166,-6.610110820592685e-2
0.36367148877348265,-6.606083165216492e-2
0.3659753486987991,-6.607188979850154e-2
0.36827920862411556,-6.605649095141342e-2
0.37058306854943224,-6.607853283029252e-2
0.3728869284747489,-6.602721643444986e-2
0.37519078840006537,-6.594037028339983e-2
0.3774946483253818,-6.602465527731971e-2
0.3797985082506985,-6.595165303600103e-2
0.38210236817601495,-6.594658915910734e-2
0.3844062281013314,-6.586949395449626e-2
0.3867100880266481,-6.578737158039027e-2
0.38901394795196453,-6.613366700441903e-2
0.391317807877281,-6.695388152073434e-2
0.39362166780259766,-6.710984664032404e-2
0.3959255277279141,-6.700257091351203e-2
0.39822938765323057,-6.690786866719678e-2
0.40053324757854725,-6.771970018630069e-2
0.4028371075038639,-6.772178593717426e-2
0.40514096742918015,-6.8095313080347e-2
0.40744482735449705,-6.81911239742583e-2
0.4097486872798133,-6.805676373761937e-2
0.4120525472051302,-6.803004606011975e-2
0.4143564071304464,-6.79775247327834e-2
0.4166602670557631,-6.78409497201431e-2
0.4189641269810793,-6.776563634190691e-2
0.4212679869063962,-6.766274219723067e-2
0.42357184683171245,-6.753421279912186e-2
0.42587570675702935,-6.746140898986708e-2
0.4281795666823456,-6.736614230793492e-2
0.43048342660766226,-6.732114194176719e-2
0.4327872865329787,-6.756372937818356e-2
0.4350911464582954,-6.989730763634694e-2"/>
  </g>
  <g stroke-opacity="0.5" stroke="#431712" stroke-width="7.0e-3" fill="none">
    <polyline points="-0.7145349562746587,-6.846895201909309e-2
-0.7122310963493421,-6.852505261895236e-2
-0.7099272364240256,-6.850453414121127e-2
-0.707623376498709,-6.852311960359192e-2
-0.7053195165733925,-6.849502898480131e-2
-0.703015656648076,-6.846570526612317e-2
-0.7007117967227594,-6.844268822124755e-2
-0.6984079367974428,-6.853468496641024e-2
-0.6961040768721263,-6.85065132939221e-2
-0.6938002169468098,-6.849905312591753e-2
-0.6914963570214933,-6.848739900178946e-2
-0.6891924970961767,-6.845849277854144e-2
-0.6868886371708601,-6.842939029232264e-2
-0.6845847772455436,-6.849839138443192e-2
-0.6822809173202271,-6.846901149605011e-2
-0.6799770573949105,-6.844172777966728e-2
-0.677673197469594,-6.870418482885887e-2
-0.6753693375442774,-6.886499004809599e-2
-0.673065477618961,-6.912470698789874e-2
-0.6707616176936444,-6.921502577320615e-2
-0.6684577577683278,-6.918511596187049e-2
-0.6661538978430113,-6.922476065553929e-2
-0.6638500379176948,-6.939160679800271e-2
-0.6615461779923782,-6.94176094204011e-2
-0.6592423180670617,-6.943270336538365e-2
-0.6569384581417451,-6.941496184317564e-2
-0.6546345982164286,-6.956957839567501e-2
-0.6523307382911121,-6.953842384936926e-2
-0.6500268783657955,-6.960482609635987e-2
-0.647723018440479,-6.958179991138458e-2
-0.6454191585151624,-6.957055597304129e-2
-0.6431152985898458,-6.953904241616893e-2
-0.6408114386645294,-6.952703708008334e-2
-0.6385075787392128,-6.953173088089348e-2
-0.6362037188138963,-6.949679613054294e-2
-0.6338998588885797,-6.947621511843372e-2
-0.6315959989632631,-6.947149364702843e-2
-0.6292921390379467,-6.943681529761259e-2
-0.6269882791126301,-6.947350116939521e-2
-0.6246844191873135,-6.943991185584375e-2
-0.622380559261997,-6.944509007260358e-2
-0.6200766993366804,-6.941082429377288e-2
-0.617772839411364,-6.940373108766773e-2
-0.6154689794860474,-6.937155214300916e-2
-0.6131651195607308,-6.935843986337398e-2
-0.6108612596354144,-6.93264823739208e-2
-0.6085573997100978,-6.935390308273548e-2
-0.6062535397847812,-6.932383821666177e-2
-0.6039496798594648,-6.929000582789491e-2
-0.6016458199341481,-6.929037307594754e-2
-0.5993419600088317,-6.928787795677893e-2
-0.5970381000835151,-6.925476230027594e-2
-0.5947342401581985,-6.9221257075745e-2
-0.592430380232882,-6.920875664614679e-2
-0.5901265203075654,-6.91807247739944e-2
-0.587822660382249,-6.914815057028967e-2
-0.5855188004569324,-6.911875109217946e-2
-0.5832149405316158,-6.910529598856474e-2
-0.5809110806062993,-6.907757275419746e-2
-0.5786072206809827,-6.904812752053391e-2
-0.5763033607556662,-6.901801704735477e-2
-0.5739995008303497,-6.898872403478717e-2
-0.5716956409050331,-6.901475725696715e-2
-0.5693917809797165,-6.904386498210136e-2
-0.5670879210544,-6.90326704976505e-2
-0.5647840611290835,-6.90443811411191e-2
-0.562480201203767,-6.901849690468442e-2
-0.5601763412784504,-6.898614710916373e-2
-0.5578724813531338,-6.898036121375872e-2
-0.5555686214278173,-6.894881558795307e-2
-0.5532647615025008,-6.891954888214369e-2
-0.5509609015771842,-6.888778601698986e-2
-0.5486570416518677,-6.885665454250334e-2
-0.5463531817265511,-6.883386430080052e-2
-0.5440493218012346,-6.880400265609166e-2
-0.5417454618759181,-6.877372817186711e-2
-0.5394416019506015,-6.874554710698155e-2
-0.537137742025285,-6.872320078431216e-2
-0.5348338820999685,-6.86929917892054e-2
-0.5325300221746518,-6.868207955390404e-2
-0.5302261622493354,-6.865232179092517e-2
-0.5279223023240188,-6.87079007878657e-2
-0.5256184423987023,-6.867868841246427e-2
-0.5233145824733857,-6.868193358622687e-2
-0.5210107225480691,-6.866638947683301e-2
-0.5187068626227527,-6.863590899421601e-2
-0.516403002697436,-6.860884063997141e-2
-0.5140991427721195,-6.859042089678802e-2
-0.5117952828468031,-6.85902632356008e-2
-0.5094914229214865,-6.858853353186745e-2
-0.50718756299617,-6.85886489643498e-2
-0.5048837030708534,-6.856229652064183e-2
-0.5025798431455368,-6.855752559958483e-2
-0.5002759832202204,-6.855715636718729e-2
-0.4979721232949038,-6.852725919974456e-2
-0.49566826336958725,-6.849844012086581e-2
-0.4933644034442707,-6.847393604122887e-2
-0.4910605435189542,-6.844546795272954e-2
-0.4887566835936376,-6.84250680840216e-2
-0.4864528236683211,-6.839666279836154e-2
-0.48414896374300453,-6.836823511590595e-2
-0.481845103817688,-6.834726831963245e-2
-0.47954124389237146,-6.83507595473214e-2
-0.4772373839670549,-6.832787554617514e-2
-0.47493352404173844,-6.832234366958612e-2
-0.47262966411642193,-6.831147449050146e-2
-0.47032580419110537,-6.829145399757885e-2
-0.4680219442657888,-6.826387200450834e-2
-0.46571808434047224,-6.824421731775887e-2
-0.46341422441515573,-6.822342682367166e-2
-0.46111036448983916,-6.819907473187115e-2
-0.45880650456452265,-6.817309915096137e-2
-0.4565026446392061,-6.814538718366525e-2
-0.4541987847138896,-6.811944234700862e-2
-0.45189492478857296,-6.811970801774969e-2
-0.44959106486325645,-6.810156886995611e-2
-0.44728720493793994,-6.809010170455343e-2
-0.4449833450126234,-6.809385682456537e-2
-0.4426794850873068,-6.809208448768589e-2
-0.4403756251619903,-6.806804835383706e-2
-0.4380717652366738,-6.80421287481745e-2
-0.4357679053113572,-6.801574793219933e-2
-0.43346404538604066,-6.798892945121582e-2
-0.4311601854607241,-6.796426991981075e-2
-0.4288563255354076,-6.795241902946214e-2
-0.426552465610091,-6.794921263144937e-2
-0.4242486056847745,-6.79223421581645e-2
-0.42194474575945795,-6.790764754575407e-2
-0.4196408858341414,-6.789395613666338e-2
-0.4173370259088248,-6.786742682700386e-2
-0.4150331659835083,-6.784356297349892e-2
-0.4127293060581918,-6.782305725798243e-2
-0.41042544613287524,-6.780580901429711e-2
-0.4081215862075587,-6.778345753372317e-2
-0.4058177262822421,-6.775823853563923e-2
-0.4035138663569256,-6.773727465025992e-2
-0.40121000643160903,-6.771141555329585e-2
-0.3989061465062925,-6.769670099166669e-2
-0.39660228658097596,-6.767108531801602e-2
-0.39429842665565945,-6.766524437146915e-2
-0.3919945667303429,-6.765137043303071e-2
-0.3896907068050263,-6.762611845984012e-2
-0.3873868468797098,-6.762725344400122e-2
-0.38508298695439325,-6.760250949585855e-2
-0.3827791270290768,-6.758646704089111e-2
-0.38047526710376023,-6.756332035484691e-2
-0.37817140717844366,-6.754632429915475e-2
-0.37586754725312715,-6.752386023195989e-2
-0.37356368732781053,-6.749924900220838e-2
-0.371259827402494,-6.747940225768045e-2
-0.3689559674771775,-6.745537884977981e-2
-0.36665210755186095,-6.743091571220772e-2
-0.3643482476265444,-6.744811428162345e-2
-0.3620443877012279,-6.74433651245191e-2
-0.35974052777591137,-6.741936517344871e-2
-0.3574366678505948,-6.73969898515554e-2
-0.35513280792527824,-6.795550489281688e-2
-0.35282894799996173,-6.813543121181342e-2
-0.3505250880746452,-6.820106038906337e-2
-0.34822122814932865,-6.818926396016634e-2
-0.3459173682240121,-6.836698091973814e-2
-0.3436135082986956,-6.833803224331991e-2
-0.34130964837337896,-6.840559036200455e-2
-0.3390057884480624,-6.837643166190477e-2
-0.3367019285227459,-6.83558119990283e-2
-0.3343980685974294,-6.834052899437792e-2
-0.3320942086721128,-6.873707553911601e-2
-0.32979034874679625,-6.885380259793228e-2
-0.32748648882147974,-6.894488731541715e-2
-0.32518262889616323,-6.892873376770925e-2
-0.32287876897084666,-6.900022062575084e-2
-0.3205749090455301,-6.901719413753071e-2
-0.3182710491202136,-6.90304702109269e-2
-0.3159671891948971,-6.901403225040348e-2
-0.3136633292695805,-6.899479345960491e-2
-0.31135946934426395,-6.897858221597986e-2
-0.30905560941894744,-6.912244007525292e-2
-0.30675174949363093,-6.909258767239057e-2
-0.30444788956831437,-6.909532588680867e-2
-0.3021440296429978,-6.922008592059159e-2
-0.2998401697176813,-6.918752363004788e-2
-0.2975363097923648,-6.917634563025055e-2
-0.2952324498670482,-6.918833951038017e-2
-0.29292858994173165,-6.91572617735815e-2
-0.29062473001641514,-6.923375738754423e-2
-0.28832087009109864,-6.93268777269882e-2
-0.28601701016578207,-6.92975869957988e-2
-0.28371315024046545,-6.927875440238596e-2
-0.28140929031514894,-6.934170169634302e-2
-0.2791054303898324,-6.931255952851045e-2
-0.2768015704645158,-6.94788348714821e-2
-0.2744977105391993,-6.944601059547595e-2
-0.2721938506138828,-6.943673020909169e-2
-0.26988999068856623,-6.944657632506446e-2
-0.26758613076324966,-6.981339387130059e-2
-0.26528227083793315,-6.977776545302927e-2
-0.26297841091261664,-6.993661097863191e-2
-0.2606745509873001,-6.990138250149092e-2
-0.2583706910619835,-6.986465747406179e-2
-0.256066831136667,-6.984009232464716e-2
-0.2537629712113504,-6.980368167666862e-2
-0.2514591112860338,-6.989509081876033e-2
-0.24915525136071737,-7.000548253413674e-2
-0.2468513914354008,-6.996846969498238e-2
-0.24454753151008424,-7.000785638617357e-2
-0.24224367158476767,-7.004905911682335e-2
-0.2399398116594511,-7.01463099954267e-2
-0.23763595173413465,-7.034134912926837e-2
-0.2353320918088182,-7.109374529318324e-2
-0.23302823188350164,-7.10785514022304e-2
-0.23072437195818507,-7.103596264730849e-2
-0.2284205120328685,-7.102031653989482e-2
-0.22611665210755194,-7.097929319421392e-2
-0.22381279218223538,-7.111747965273052e-2
-0.2215089322569188,-7.143460259730394e-2
-0.21920507233160236,-7.140735644538398e-2
-0.2169012124062858,-7.139386833268402e-2
-0.21459735248096923,-7.135584049288113e-2
-0.21229349255565277,-7.131908048670943e-2
-0.2099896326303362,-7.127526840688425e-2
-0.20768577270501964,-7.123874962704668e-2
-0.20538191277970308,-7.123221280720549e-2
-0.20307805285438651,-7.119077121261963e-2
-0.20077419292907006,-7.116622329021627e-2
-0.1984703330037535,-7.117663912444727e-2
-0.19616647307843693,-7.119384732317457e-2
-0.19386261315312037,-7.11524353609635e-2
-0.1915587532278038,-7.111020500166831e-2
-0.18925489330248724,-7.109014397541769e-2
-0.18695103337717067,-7.106583786686904e-2
-0.18464717345185422,-7.102377346678113e-2
-0.18234331352653765,-7.105614464952381e-2
-0.1800394536012211,-7.103626428135745e-2
-0.17773559367590464,-7.099408090296888e-2
-0.17543173375058807,-7.096572290572878e-2
-0.1731278738252714,-7.093015378098e-2
-0.17082401389995483,-7.089005386793312e-2
-0.16852015397463838,-7.087674616441009e-2
-0.1662162940493218,-7.083526416015784e-2
-0.16391243412400536,-7.079400184810247e-2
-0.1616085741986888,-7.080399086803724e-2
-0.15930471427337234,-7.076528366125012e-2
-0.15700085434805577,-7.072684373020177e-2
-0.1546969944227392,-7.072192461831062e-2
-0.15239313449742264,-7.068155971722134e-2
-0.15008927457210608,-7.064162782139305e-2
-0.14778541464678963,-7.060597081812314e-2
-0.14548155472147306,-7.057778575588214e-2
-0.1431776947961565,-7.053793809103703e-2
-0.14087383487083993,-7.049845673602195e-2
-0.13856997494552337,-7.045900484976475e-2
-0.1362661150202068,-7.04227796714958e-2
-0.13396225509489024,-7.039773370300706e-2
-0.13165839516957378,-7.03645267741907e-2
-0.12935453524425722,-7.032619578681187e-2
-0.12705067531894065,-7.030305665377157e-2
-0.1247468153936242,-7.028797159833189e-2
-0.12244295546830763,-7.025108248546363e-2
-0.12013909554299107,-7.02826883133637e-2
-0.1178352356176745,-7.024647265040873e-2
-0.11553137569235794,-7.022286036153969e-2
-0.11322751576704149,-7.01850567314185e-2
-0.11092365584172492,-7.015418992884326e-2
-0.10861979591640836,-7.01199341093196e-2
-0.10631593599109179,-7.008223836269656e-2
-0.10401207606577523,-7.004856543001459e-2
-0.10170821614045866,-7.004857395310071e-2
-9.94043562151421e-2,-7.014410908578128e-2
-9.710049628982564e-2,-7.010663009975948e-2
-9.479663636450908e-2,-7.008511724429256e-2
-9.249277643919251e-2,-7.005617390952024e-2
-9.018891651387606e-2,-7.002240483257338e-2
-8.78850565885595e-2,-6.999921220893845e-2
-8.558119666324293e-2,-7.000492665567426e-2
-8.327733673792637e-2,-6.996778660274916e-2
-8.09734768126098e-2,-6.993168258560911e-2
-7.866961688729335e-2,-6.989567447426126e-2
-7.636575696197667e-2,-6.986489866650691e-2
-7.406189703666022e-2,-6.982845005523386e-2
-7.175803711134365e-2,-6.980803577215944e-2
-6.945417718602709e-2,-6.977491622558529e-2
-6.715031726071052e-2,-6.973893866028635e-2
-6.484645733539396e-2,-6.971625150130689e-2
-6.25425974100775e-2,-6.968102934305265e-2
-6.023873748476094e-2,-6.964543035602477e-2
-5.7934877559444375e-2,-6.961303184259349e-2
-5.563101763412792e-2,-6.957814911332694e-2
-5.332715770881136e-2,-6.95431340343341e-2
-5.10232977834949e-2,-6.953335742653666e-2
-4.871943785817834e-2,-6.950153973981776e-2
-4.641557793286177e-2,-6.946721571663306e-2
-4.411171800754521e-2,-6.943886213587325e-2
-4.1807858082228755e-2,-6.940453827837612e-2
-3.950399815691219e-2,-6.937035447960715e-2
-3.7200138231595625e-2,-6.936195395843192e-2
-3.489627830627917e-2,-6.933077262801468e-2
-3.259241838096261e-2,-6.93281807370133e-2
-3.0288558455646042e-2,-6.930446929330325e-2
-2.7984698530329366e-2,-6.938455268269217e-2
-2.5680838605012912e-2,-6.93520178312369e-2
-2.3376978679696347e-2,-6.932258242735567e-2
-2.1073118754379783e-2,-6.929306842555438e-2
-1.876925882906333e-2,-6.949354732031865e-2
-1.6465398903746764e-2,-6.948181868732317e-2
-1.41615389784302e-2,-6.945892817069699e-2
-1.1857679053113634e-2,-6.945202981645204e-2
-9.55381912779707e-3,-6.943222389092729e-2
-7.249959202480616e-3,-6.94168618399239e-2
-4.946099277164051e-3,-6.940813499455523e-2
-2.6422393518474863e-3,-6.93776859764138e-2
-3.383794265310325e-4,-6.940090788202669e-2
1.9654804987856433e-3,-6.936724288018237e-2
4.269340424102097e-3,-6.936138933547331e-2
6.573200349418773e-3,-6.934629141986459e-2
8.877060274735227e-3,-6.931401002958038e-2
1.1180920200051792e-2,-6.934835629851188e-2
1.3484780125368245e-2,-6.931718758632222e-2
1.578864005068481e-2,-6.945609469376035e-2
1.8092499976001264e-2,-6.94458781009506e-2
2.039635990131794e-2,-6.942474730582204e-2
2.2700219826634616e-2,-6.94297456728521e-2
2.500407975195107e-2,-6.940242165936517e-2
2.7307939677267634e-2,-6.936842749378047e-2
2.9611799602584088e-2,-6.933663277836521e-2
3.191565952790065e-2,-6.930811016528649e-2
3.4219519453217107e-2,-6.927593275730859e-2
3.652337937853378e-2,-6.924248760592955e-2
3.8827239303850236e-2,-6.924261125636522e-2
4.113109922916691e-2,-6.921166310315163e-2
4.3434959154483366e-2,-6.920953702492638e-2
4.573881907979993e-2,-6.917763648125708e-2
4.8042679005116384e-2,-6.91466435228606e-2
5.034653893043295e-2,-6.915377379022003e-2
5.2650398855749625e-2,-6.912193134175548e-2
5.495425878106608e-2,-6.909369007872113e-2
5.7258118706382755e-2,-6.907212957713449e-2
5.956197863169921e-2,-6.905985837984019e-2
6.186583855701577e-2,-6.902956610409872e-2
6.416969848233223e-2,-6.901710448000697e-2
6.647355840764879e-2,-6.898732587614764e-2
6.877741833296525e-2,-6.896744104340713e-2
7.108127825828192e-2,-6.893558777069209e-2
7.338513818359838e-2,-6.890991843557537e-2
7.568899810891505e-2,-6.88792889480917e-2
7.79928580342315e-2,-6.885413026548115e-2
8.029671795954807e-2,-6.882279381629164e-2
8.260057788486463e-2,-6.879849307388541e-2
8.490443781018109e-2,-6.878893729646618e-2
8.720829773549776e-2,-6.876155778652415e-2
8.951215766081422e-2,-6.874997894773016e-2
9.18160175861309e-2,-6.872123888336956e-2
9.411987751144713e-2,-6.870696991199032e-2
9.64237374367638e-2,-6.86831914199717e-2
9.872759736208037e-2,-6.866759819192314e-2
0.10103145728739682,-6.86564658051988e-2
0.10333531721271338,-6.862825382423621e-2
0.10563917713802984,-6.860242522536775e-2
0.10794303706334651,-6.862957025962091e-2
0.11024689698866297,-6.863817689383589e-2
0.11255075691397964,-6.863326586735485e-2
0.1148546168392961,-6.899059136598651e-2
0.11715847676461266,-6.90254708137763e-2
0.11946233668992912,-6.899331256228258e-2
0.12176619661524568,-6.909698260639807e-2
0.12407005654056213,-6.90837039787956e-2
0.1263739164658788,-6.911480245814339e-2
0.12867777639119526,-6.916917271089185e-2
0.13098163631651194,-6.948188597847138e-2
0.1332854962418285,-6.94495676034187e-2
0.13558935616714496,-6.949188111552163e-2
0.13789321609246152,-6.950985871055126e-2
0.14019707601777798,-6.950042851574623e-2
0.14250093594309465,-6.948973722016949e-2
0.1448047958684111,-6.945533619368571e-2
0.14710865579372778,-6.968200642293465e-2
0.14941251571904424,-6.968975921987708e-2
0.1517163756443608,-6.965815726620372e-2
0.15402023556967726,-6.963784871011192e-2
0.15632409549499382,-6.965925577378407e-2
0.15862795542031027,-6.962382112549981e-2
0.16093181534562695,-6.960757638440351e-2
0.16323567527094363,-6.961351112125069e-2
0.16553953519626008,-6.963666852923245e-2
0.16784339512157664,-6.960137959210877e-2
0.1701472550468931,-6.956629205052034e-2
0.17245111497220966,-6.95312790051531e-2
0.17475497489752612,-6.95134985151249e-2
0.1770588348228428,-6.948084751655537e-2
0.17936269474815925,-6.944684720408256e-2
0.18166655467347592,-6.941747205326354e-2
0.18397041459879238,-6.938487238758373e-2
0.18627427452410894,-6.93507735754253e-2
0.1885781344494254,-6.931692385116772e-2
0.19088199437474196,-6.929437270453509e-2
0.1931858543000584,-6.926082930658739e-2
0.1954897142253751,-6.925791548716287e-2
0.19779357415069176,-6.923746895563065e-2
0.20009743407600822,-6.920722877278018e-2
0.20240129400132478,-6.918673278803278e-2
0.20470515392664124,-6.916234615790584e-2
0.2070090138519578,-6.919256844855282e-2
0.20931287377727426,-6.928949238144733e-2
0.21161673370259093,-6.927985002431081e-2
0.21392059362790738,-6.932151373288076e-2
0.21622445355322406,-6.929643807961172e-2
0.21852831347854051,-6.935977097535995e-2
0.22083217340385708,-6.935667256158229e-2
0.22313603332917353,-6.933758115498478e-2
0.2254398932544901,-6.934717534459123e-2
0.22774375317980677,-6.931438185215777e-2
0.23004761310512323,-6.931600168521734e-2
0.2323514730304399,-6.928446724578319e-2
0.23465533295575636,-6.925305098704337e-2
0.23695919288107292,-6.92268891323009e-2
0.23926305280638938,-6.920996960513048e-2
0.24156691273170594,-6.918299552082952e-2
0.2438707726570224,-6.915227116157463e-2
0.24617463258233885,-6.912022749166247e-2
0.24847849250765552,-6.909269482228275e-2
0.250782352432972,-6.907041545470805e-2
0.25308621235828865,-6.903860794432304e-2
0.2553900722836051,-6.900926918255545e-2
0.2576939322089218,-6.898213745661708e-2
0.259997792134238,-6.898367906546798e-2
0.2623016520595547,-6.895551006516654e-2
0.26460551198487114,-6.892487313297357e-2
0.2669093719101878,-6.889307686777446e-2
0.2692132318355043,-6.88632977526874e-2
0.27151709176082095,-6.883335738888952e-2
0.2738209516861374,-6.880482143614197e-2
0.27612481161145386,-6.877399995120448e-2
0.27842867153677053,-6.874295892788951e-2
0.280732531462087,-6.871208954365082e-2
0.28303639138740366,-6.870228716942872e-2
0.2853402513127201,-6.867161781394793e-2
0.2876441112380368,-6.864178976619917e-2
0.28994797116335325,-6.861984519261877e-2
0.2922518310886697,-6.85916874361806e-2
0.2945556910139864,-6.856260598873787e-2
0.29685955093930283,-6.855292588321449e-2
0.2991634108646193,-6.852396136300054e-2
0.30146727078993596,-6.849937115155746e-2
0.3037711307152524,-6.847964419103181e-2
0.3060749906405691,-6.848851314541127e-2
0.30837885056588554,-6.848201858333325e-2
0.3106827104912022,-6.846705070253645e-2
0.3129865704165187,-6.843790907879899e-2
0.3152904303418351,-6.844040198777135e-2
0.3175942902671518,-6.841759180646023e-2
0.31989815019246826,-6.838968422710034e-2
0.32220201011778493,-6.836287715542155e-2
0.3245058700431014,-6.83617196214582e-2
0.32680972996841806,-6.833293625516479e-2
0.3291135898937343,-6.832252710119335e-2
0.33141744981905097,-6.829383873791328e-2
0.3337213097443674,-6.826587206386314e-2
0.3360251696696841,-6.824354257180576e-2
0.3383290295950008,-6.822294218801184e-2
0.34063288952031723,-6.819466090399351e-2
0.3429367494456339,-6.816702502069139e-2
0.34524060937095014,-6.81475044994524e-2
0.3475444692962668,-6.811993565036312e-2
0.34984832922158327,-6.811295547343266e-2
0.35215218914689994,-6.808736215495281e-2
0.3544560490722164,-6.808629333395888e-2
0.35675990899753307,-6.808865715642509e-2
0.3590637689228495,-6.806449018643657e-2
0.361367628848166,-6.804332185718753e-2
0.36367148877348265,-6.802382442204091e-2
0.3659753486987991,-6.801242498591231e-2
0.36827920862411556,-6.799198215386892e-2
0.37058306854943224,-6.798252698929874e-2
0.3728869284747489,-6.795833224912196e-2
0.37519078840006537,-6.793182000176023e-2
0.3774946483253818,-6.793154549601943e-2
0.3797985082506985,-6.790868824114182e-2
0.38210236817601495,-6.788856114919362e-2
0.3844062281013314,-6.786219344121669e-2
0.3867100880266481,-6.783573351694772e-2
0.38901394795196453,-6.78591207131759e-2
0.391317807877281,-6.796846485621744e-2
0.39362166780259766,-6.798283347164202e-2
0.3959255277279141,-6.795709861133437e-2
0.39822938765323057,-6.793279141553332e-2
0.40053324757854725,-6.807232144858122e-2
0.4028371075038639,-6.806533887350319e-2
0.40514096742918015,-6.813204604795631e-2
0.40744482735449705,-6.815406435469562e-2
0.4097486872798133,-6.812877033407183e-2
0.4120525472051302,-6.811992488015384e-2
0.4143564071304464,-6.811131369632151e-2
0.4166602670557631,-6.808383956124253e-2
0.4189641269810793,-6.80703519947835e-2
0.4212679869063962,-6.804616283103548e-2
0.42357184683171245,-6.801910722662607e-2
0.42587570675702935,-6.799920156576311e-2
0.4281795666823456,-6.797869197123374e-2
0.43048342660766226,-6.79628070409053e-2
0.4327872865329787,-6.799946624289155e-2
0.4350911464582954,-6.852734755549139e-2"/>
  </g>
  <g stroke-opacity="0.5" fill-opacity="1.0" stroke="#3764a0" stroke-width="4.0e-3" fill="#ffffff">
    <rect height="0.1342572542226072" width="0.19784397108655827" x="0.5394847993242009" y="-6.74465492280435e-2"/>
  </g>
  <g fill-opacity="1.0" font-size="4.000000000000001e-2" stroke="none" stroke-width="0.0" fill="#666666" text-anchor="start">
    <text x="0.5510040989507838" y="3.1297495813099874e-2">rate = 0.99
    </text>
  </g>
  <g stroke-opacity="0.5" stroke="#431712" stroke-width="6.999999999999999e-3" fill="none">
    <polyline points="0.7007549940963589,2.5580735310717917e-2
0.7237935933495243,2.5580735310717917e-2"/>
  </g>
  <g fill-opacity="1.0" font-size="4.000000000000001e-2" stroke="none" stroke-width="0.0" fill="#666666" text-anchor="start">
    <text x="0.5510040989507838" y="-1.8074526707471894e-2">rate = 0.95
    </text>
  </g>
  <g stroke-opacity="0.5" stroke="#4b2282" stroke-width="6.999999999999999e-3" fill="none">
    <polyline points="0.7007549940963589,-2.3791287209853795e-2
0.7237935933495243,-2.3791287209853795e-2"/>
  </g>
</svg>