
<svg xmlns="http://www.w3.org/2000/svg" height="300.0" viewBox="-0.9104277680948124 -0.7283312039844088 1.7014318670455961 1.461347121816856" width="450.0" xmlns:xlink="http://www.w3.org/1999/xlink">
  <g transform="translate(-8.219640591007693e-2, -0.57175)" fill-opacity="1.0" font-size="8.0e-2" stroke="none" stroke-width="0.0" fill="#000000" text-anchor="middle">
    <text transform="rotate(0.0, -0.14087383487083993, -6.25812039844088e-2)" x="-0.14087383487083993" y="-6.25812039844088e-2">moving std dev return
    </text>
  </g>
  <g stroke-opacity="0.0" fill-opacity="3.0e-2" stroke="#000000" stroke-width="0.0" fill="#666666">
    <rect height="0.8661758336942399" width="1.1519299626582706" x="-0.7168388161999752" y="-0.4956691208315287"/>
  </g>
  <g stroke-opacity="0.3" stroke="#a8e5ee" stroke-width="5.0e-3" fill="none">
    <polyline points="-0.7145349562746587,0.3748375920311824
-0.7145349562746587,-0.5"/>
  </g>
  <g stroke-opacity="0.3" stroke="#a8e5ee" stroke-width="5.0e-3" fill="none">
    <polyline points="-0.6661538978430113,0.3748375920311824
-0.6661538978430113,-0.5"/>
  </g>
  <g stroke-opacity="0.3" stroke="#a8e5ee" stroke-width="5.0e-3" fill="none">
    <polyline points="-0.5187068626227527,0.3748375920311824
-0.5187068626227527,-0.5"/>
  </g>
  <g stroke-opacity="0.3" stroke="#a8e5ee" stroke-width="5.0e-3" fill="none">
    <polyline points="-0.37356368732781053,0.3748375920311824
-0.37356368732781053,-0.5"/>
  </g>
  <g stroke-opacity="0.3" stroke="#a8e5ee" stroke-width="5.0e-3" fill="none">
    <polyline points="-0.2284205120328685,0.3748375920311824
-0.2284205120328685,-0.5"/>
  </g>
  <g stroke-opacity="0.3" stroke="#a8e5ee" stroke-width="5.0e-3" fill="none">
    <polyline points="-8.78850565885595e-2,0.3748375920311824
-8.78850565885595e-2,-0.5"/>
  </g>
  <g stroke-opacity="0.3" stroke="#a8e5ee" stroke-width="5.0e-3" fill="none">
    <polyline points="5.7258118706382755e-2,0.3748375920311824
5.7258118706382755e-2,-0.5"/>
  </g>
  <g stroke-opacity="0.3" stroke="#a8e5ee" stroke-width="5.0e-3" fill="none">
    <polyline points="0.20470515392664124,0.3748375920311824
0.20470515392664124,-0.5"/>
  </g>
  <g stroke-opacity="0.3" stroke="#a8e5ee" stroke-width="5.0e-3" fill="none">
    <polyline points="0.35215218914689994,0.3748375920311824
0.35215218914689994,-0.5"/>
  </g>
  <g stroke-opacity="0.3" stroke="#a8e5ee" stroke-width="5.0e-3" fill="none">
    <polyline points="0.4350911464582954,0.3748375920311824
0.4350911464582954,-0.5"/>
  </g>
  <g fill-opacity="1.0" font-size="5.0e-2" stroke="none" stroke-width="0.0" fill="#666666" text-anchor="end">
    <text transform="rotate(-45.0, -0.7145349562746587, 0.5)" x="-0.7145349562746587" y="0.5">28 Feb 2018
    </text>
  </g>
  <g fill-opacity="1.0" font-size="5.0e-2" stroke="none" stroke-width="0.0" fill="#666666" text-anchor="end">
    <text transform="rotate(-45.0, -0.6661538978430113, 0.5)" x="-0.6661538978430113" y="0.5">31 Mar 2018
    </text>
  </g>
  <g fill-opacity="1.0" font-size="5.0e-2" stroke="none" stroke-width="0.0" fill="#666666" text-anchor="end">
    <text transform="rotate(-45.0, -0.5187068626227527, 0.5)" x="-0.5187068626227527" y="0.5">30 Jun 2018
    </text>
  </g>
  <g fill-opacity="1.0" font-size="5.0e-2" stroke="none" stroke-width="0.0" fill="#666666" text-anchor="end">
    <text transform="rotate(-45.0, -0.37356368732781053, 0.5)" x="-0.37356368732781053" y="0.5">30 Sep 2018
    </text>
  </g>
  <g fill-opacity="1.0" font-size="5.0e-2" stroke="none" stroke-width="0.0" fill="#666666" text-anchor="end">
    <text transform="rotate(-45.0, -0.2284205120328685, 0.5)" x="-0.2284205120328685" y="0.5">31 Dec 2018
    </text>
  </g>
  <g fill-opacity="1.0" font-size="5.0e-2" stroke="none" stroke-width="0.0" fill="#666666" text-anchor="end">
    <text transform="rotate(-45.0, -8.78850565885595e-2, 0.5)" x="-8.78850565885595e-2" y="0.5">31 Mar 2019
    </text>
  </g>
  <g fill-opacity="1.0" font-size="5.0e-2" stroke="none" stroke-width="0.0" fill="#666666" text-anchor="end">
    <text transform="rotate(-45.0, 5.7258118706382755e-2, 0.5)" x="5.7258118706382755e-2" y="0.5">30 Jun 2019
    </text>
  </g>
  <g fill-opacity="1.0" font-size="5.0e-2" stroke="none" stroke-width="0.0" fill="#666666" text-anchor="end">
    <text transform="rotate(-45.0, 0.20470515392664124, 0.5)" x="0.20470515392664124" y="0.5">30 Sep 2019
    </text>
  </g>
  <g fill-opacity="1.0" font-size="5.0e-2" stroke="none" stroke-width="0.0" fill="#666666" text-anchor="end">
    <text transform="rotate(-45.0, 0.35215218914689994, 0.5)" x="0.35215218914689994" y="0.5">31 Dec 2019
    </text>
  </g>
  <g fill-opacity="1.0" font-size="5.0e-2" stroke="none" stroke-width="0.0" fill="#666666" text-anchor="end">
    <text transform="rotate(-45.0, 0.4350911464582954, 0.5)" x="0.4350911464582954" y="0.5">24 Feb 2020
    </text>
  </g>
  <g stroke-opacity="0.4" fill-opacity="1.0" stroke="#2c429d" stroke-width="5.0e-3" fill="#5f0391">
    <polyline points="-0.7145349562746587,0.4424577739281074
-0.7145349562746587,0.4124577739281074"/>
    <polyline points="-0.6661538978430113,0.4424577739281074
-0.6661538978430113,0.4124577739281074"/>
    <polyline points="-0.5187068626227527,0.4424577739281074
-0.5187068626227527,0.4124577739281074"/>
    <polyline points="-0.37356368732781053,0.4424577739281074
-0.37356368732781053,0.4124577739281074"/>
    <polyline points="-0.2284205120328685,0.4424577739281074
-0.2284205120328685,0.4124577739281074"/>
    <polyline points="-8.78850565885595e-2,0.4424577739281074
-8.78850565885595e-2,0.4124577739281074"/>
    <polyline points="5.7258118706382755e-2,0.4424577739281074
5.7258118706382755e-2,0.4124577739281074"/>
    <polyline points="0.20470515392664124,0.4424577739281074
0.20470515392664124,0.4124577739281074"/>
    <polyline points="0.35215218914689994,0.4424577739281074
0.35215218914689994,0.4124577739281074"/>
    <polyline points="0.4350911464582954,0.4424577739281074
0.4350911464582954,0.4124577739281074"/>
  </g>
  <g stroke-opacity="0.0" fill-opacity="0.5" stroke="#666666" stroke-width="0.0" fill="#5f0391">
    <rect height="4.330879168471247e-3" width="1.1519299626582706" x="-0.7168388161999752" y="0.4144651364226938"/>
  </g>
  <g stroke-opacity="0.3" stroke="#a8e5ee" stroke-width="5.0e-3" fill="none">
    <polyline points="-0.7197186411066209,0.3705067128627112
0.4379709713649409,0.3705067128627112"/>
  </g>
  <g stroke-opacity="0.3" stroke="#a8e5ee" stroke-width="5.0e-3" fill="none">
    <polyline points="-0.7197186411066209,0.2261440739136712
0.4379709713649409,0.2261440739136712"/>
  </g>
  <g stroke-opacity="0.3" stroke="#a8e5ee" stroke-width="5.0e-3" fill="none">
    <polyline points="-0.7197186411066209,8.17814349646312e-2
0.4379709713649409,8.17814349646312e-2"/>
  </g>
  <g stroke-opacity="0.3" stroke="#a8e5ee" stroke-width="5.0e-3" fill="none">
    <polyline points="-0.7197186411066209,-6.25812039844088e-2
0.4379709713649409,-6.25812039844088e-2"/>
  </g>
  <g stroke-opacity="0.3" stroke="#a8e5ee" stroke-width="5.0e-3" fill="none">
    <polyline points="-0.7197186411066209,-0.2069438429334487
0.4379709713649409,-0.2069438429334487"/>
  </g>
  <g stroke-opacity="0.3" stroke="#a8e5ee" stroke-width="5.0e-3" fill="none">
    <polyline points="-0.7197186411066209,-0.3513064818824887
0.4379709713649409,-0.3513064818824887"/>
  </g>
  <g stroke-opacity="0.3" stroke="#a8e5ee" stroke-width="5.0e-3" fill="none">
    <polyline points="-0.7197186411066209,-0.4956691208315287
0.4379709713649409,-0.4956691208315287"/>
  </g>
  <g fill-opacity="1.0" font-size="5.0e-2" stroke="none" stroke-width="0.0" fill="#666666" text-anchor="end">
    <text x="-0.75" y="0.3830662624512776">-60%
    </text>
  </g>
  <g fill-opacity="1.0" font-size="5.0e-2" stroke="none" stroke-width="0.0" fill="#666666" text-anchor="end">
    <text x="-0.75" y="0.23870362350223773">-40%
    </text>
  </g>
  <g fill-opacity="1.0" font-size="5.0e-2" stroke="none" stroke-width="0.0" fill="#666666" text-anchor="end">
    <text x="-0.75" y="9.434098455319773e-2">-20%
    </text>
  </g>
  <g fill-opacity="1.0" font-size="5.0e-2" stroke="none" stroke-width="0.0" fill="#666666" text-anchor="end">
    <text x="-0.75" y="-5.0021654395842385e-2">0%
    </text>
  </g>
  <g fill-opacity="1.0" font-size="5.0e-2" stroke="none" stroke-width="0.0" fill="#666666" text-anchor="end">
    <text x="-0.75" y="-0.19438429334488216">20%
    </text>
  </g>
  <g fill-opacity="1.0" font-size="5.0e-2" stroke="none" stroke-width="0.0" fill="#666666" text-anchor="end">
    <text x="-0.75" y="-0.3387469322939223">40%
    </text>
  </g>
  <g fill-opacity="1.0" font-size="5.0e-2" stroke="none" stroke-width="0.0" fill="#666666" text-anchor="end">
    <text x="-0.75" y="-0.4831095712429623">60%
    </text>
  </g>
  <g stroke-opacity="0.4" fill-opacity="1.0" stroke="#2c429d" stroke-width="5.0e-3" fill="#5f0391">
    <g transform="rotate(-90.0, -0.7312379407332036, 0.3705067128627112)">
      <polyline points="-0.7312379407332036,0.3855067128627112
-0.7312379407332036,0.3555067128627112"/>
    </g>
    <g transform="rotate(-90.0, -0.7312379407332036, 0.2261440739136712)">
      <polyline points="-0.7312379407332036,0.2411440739136712
-0.7312379407332036,0.21114407391367118"/>
    </g>
    <g transform="rotate(-90.0, -0.7312379407332036, 8.17814349646312e-2)">
      <polyline points="-0.7312379407332036,9.67814349646312e-2
-0.7312379407332036,6.67814349646312e-2"/>
    </g>
    <g transform="rotate(-90.0, -0.7312379407332036, -6.25812039844088e-2)">
      <polyline points="-0.7312379407332036,-4.758120398440881e-2
-0.7312379407332036,-7.75812039844088e-2"/>
    </g>
    <g transform="rotate(-90.0, -0.7312379407332036, -0.2069438429334487)">
      <polyline points="-0.7312379407332036,-0.19194384293344868
-0.7312379407332036,-0.2219438429334487"/>
    </g>
    <g transform="rotate(-90.0, -0.7312379407332036, -0.3513064818824887)">
      <polyline points="-0.7312379407332036,-0.3363064818824887
-0.7312379407332036,-0.3663064818824887"/>
    </g>
    <g transform="rotate(-90.0, -0.7312379407332036, -0.4956691208315287)">
      <polyline points="-0.7312379407332036,-0.4806691208315287
-0.7312379407332036,-0.5106691208315287"/>
    </g>
  </g>
  <g stroke-opacity="0.0" fill-opacity="0.5" stroke="#666666" stroke-width="0.0" fill="#5f0391">
    <rect height="0.8661758336942399" width="2.8798249066456227e-3" x="-0.7254782909199122" y="-0.4956691208315287"/>
  </g>
  <g stroke-opacity="0.5" stroke="#ac0505" stroke-width="2.0e-3" fill="none">
    <polyline points="-0.7145349562746587,-6.25812039844088e-2
0.4350911464582954,-6.25812039844088e-2"/>
  </g>
  <g stroke-opacity="0.5" stroke="#4b2282" stroke-width="7.0e-3" fill="none">
    <polyline points="-0.7145349562746587,-7.171741408435583e-2
-0.7122310963493421,-7.172677841508612e-2
-0.7099272364240256,-7.154316225380097e-2
-0.707623376498709,-7.150174722142233e-2
-0.7053195165733925,-7.128543460973868e-2
-0.703015656648076,-7.106566702824668e-2
-0.7007117967227594,-7.087863047696807e-2
-0.6984079367974428,-7.109306224652501e-2
-0.6961040768721263,-7.088665976233088e-2
-0.6938002169468098,-7.07609689615325e-2
-0.6914963570214933,-7.061803064072358e-2
-0.6891924970961767,-7.041666784739309e-2
-0.6868886371708601,-7.022135418642872e-2
-0.6845847772455436,-7.037857701049344e-2
-0.6822809173202271,-7.018656109091748e-2
-0.6799770573949105,-6.999822466733485e-2
-0.677673197469594,-7.082248305513916e-2
-0.6753693375442774,-7.118527034492828e-2
-0.673065477618961,-7.215558348837192e-2
-0.6707616176936444,-7.226011819846567e-2
-0.6684577577683278,-7.201636214221352e-2
-0.6661538978430113,-7.210106221495416e-2
-0.6638500379176948,-7.245212623624153e-2
-0.6615461779923782,-7.247960661526542e-2
-0.6592423180670617,-7.244389038491139e-2
-0.6569384581417451,-7.227028092150789e-2
-0.6546345982164286,-7.262214146644008e-2
-0.6523307382911121,-7.23981555519656e-2
-0.6500268783657955,-7.255571796624061e-2
-0.647723018440479,-7.23364181053191e-2
-0.6454191585151624,-7.219187621259193e-2
-0.6431152985898458,-7.195783872769201e-2
-0.6408114386645294,-7.181646147146248e-2
-0.6385075787392128,-7.173437413189121e-2
-0.6362037188138963,-7.150269694055778e-2
-0.6338998588885797,-7.133375314794743e-2
-0.6315959989632631,-7.122500530159837e-2
-0.6292921390379467,-7.100621140494057e-2
-0.6269882791126301,-7.10558975874469e-2
-0.6246844191873135,-7.085186963143775e-2
-0.622380559261997,-7.082832723252974e-2
-0.6200766993366804,-7.062189832451993e-2
-0.617772839411364,-7.052247781362786e-2
-0.6154689794860474,-7.033601352970298e-2
-0.6131651195607308,-7.021729646057207e-2
-0.6108612596354144,-7.002811261329989e-2
-0.6085573997100978,-7.014307719160862e-2
-0.6062535397847812,-6.997249738754596e-2
-0.6039496798594648,-6.978557340764724e-2
-0.6016458199341481,-6.976225110043954e-2
-0.5993419600088317,-6.971507252788678e-2
-0.5970381000835151,-6.953533514468413e-2
-0.5947342401581985,-6.935929306379063e-2
-0.592430380232882,-6.930326164310763e-2
-0.5901265203075654,-6.915513858210875e-2
-0.587822660382249,-6.899398534010748e-2
-0.5855188004569324,-6.885384004843587e-2
-0.5832149405316158,-6.878814103782105e-2
-0.5809110806062993,-6.86641338668208e-2
-0.5786072206809827,-6.852370590011814e-2
-0.5763033607556662,-6.839047290502298e-2
-0.5739995008303497,-6.826347338782512e-2
-0.5716956409050331,-6.84403900151308e-2
-0.5693917809797165,-6.863144582265324e-2
-0.5670879210544,-6.859370449050817e-2
-0.5647840611290835,-6.867465696594666e-2
-0.562480201203767,-6.854976735776908e-2
-0.5601763412784504,-6.839872016548376e-2
-0.5578724813531338,-6.837753069479535e-2
-0.5555686214278173,-6.823937474887887e-2
-0.5532647615025008,-6.810464222408275e-2
-0.5509609015771842,-6.796487691789788e-2
-0.5486570416518677,-6.782911261416569e-2
-0.5463531817265511,-6.77641450188593e-2
-0.5440493218012346,-6.76380761036195e-2
-0.5417454618759181,-6.752115690889415e-2
-0.5394416019506015,-6.742089300076726e-2
-0.537137742025285,-6.735988526449022e-2
-0.5348338820999685,-6.72422536744135e-2
-0.5325300221746518,-6.72560404035617e-2
-0.5302261622493354,-6.71443563460219e-2
-0.5279223023240188,-6.755750955406459e-2
-0.5256184423987023,-6.744797027634941e-2
-0.5233145824733857,-6.75065662087404e-2
-0.5210107225480691,-6.749940227000428e-2
-0.5187068626227527,-6.73777322243978e-2
-0.516403002697436,-6.728511293955297e-2
-0.5140991427721195,-6.722990522826588e-2
-0.5117952828468031,-6.732381899463358e-2
-0.5094914229214865,-6.738552252678054e-2
-0.50718756299617,-6.74401558796286e-2
-0.5048837030708534,-6.73336203460756e-2
-0.5025798431455368,-6.738945682080122e-2
-0.5002759832202204,-6.743549872305232e-2
-0.4979721232949038,-6.731258541324936e-2
-0.49566826336958725,-6.720459635839593e-2
-0.4933644034442707,-6.711217522591006e-2
-0.4910605435189542,-6.700049167683664e-2
-0.4887566835936376,-6.696350760874359e-2
-0.4864528236683211,-6.686256041018701e-2
-0.48414896374300453,-6.675722512310156e-2
-0.481845103817688,-6.669746923185249e-2
-0.47954124389237146,-6.678581725997512e-2
-0.4772373839670549,-6.674007764089929e-2
-0.47493352404173844,-6.681747380775116e-2
-0.47262966411642193,-6.683947340468654e-2
-0.47032580419110537,-6.678783667957e-2
-0.4680219442657888,-6.669082778091029e-2
-0.46571808434047224,-6.664266032144783e-2
-0.46341422441515573,-6.658409530222198e-2
-0.46111036448983916,-6.650225760210327e-2
-0.45880650456452265,-6.641175604786675e-2
-0.4565026446392061,-6.632238533830614e-2
-0.4541987847138896,-6.625090508393394e-2
-0.45189492478857296,-6.63828112036019e-2
-0.44959106486325645,-6.635814699382703e-2
-0.44728720493793994,-6.638015677653697e-2
-0.4449833450126234,-6.650928650462495e-2
-0.4426794850873068,-6.659220966844492e-2
-0.4403756251619903,-6.6512818862275e-2
-0.4380717652366738,-6.642178845099167e-2
-0.4357679053113572,-6.632918433023471e-2
-0.43346404538604066,-6.624034745717933e-2
-0.4311601854607241,-6.617046947917327e-2
-0.4288563255354076,-6.618254032997661e-2
-0.426552465610091,-6.624277902602205e-2
-0.4242486056847745,-6.615409877574507e-2
-0.42194474575945795,-6.613148511367528e-2
-0.4196408858341414,-6.616610935661038e-2
-0.4173370259088248,-6.607947720517182e-2
-0.4150331659835083,-6.601958875793634e-2
-0.4127293060581918,-6.598620455266946e-2
-0.41042544613287524,-6.597427659810229e-2
-0.4081215862075587,-6.591800458454322e-2
-0.4058177262822421,-6.58413065005179e-2
-0.4035138663569256,-6.579831820182858e-2
-0.40121000643160903,-6.57173124516186e-2
-0.3989061465062925,-6.572202410254957e-2
-0.39660228658097596,-6.564411429853556e-2
-0.39429842665565945,-6.573488396160998e-2
-0.3919945667303429,-6.574647005725665e-2
-0.3896907068050263,-6.566716874166778e-2
-0.3873868468797098,-6.578393178441e-2
-0.38508298695439325,-6.571215925456275e-2
-0.3827791270290768,-6.571791725898035e-2
-0.38047526710376023,-6.565740201108239e-2
-0.37817140717844366,-6.564630206319233e-2
-0.37586754725312715,-6.558887531995206e-2
-0.37356368732781053,-6.551458950316658e-2
-0.371259827402494,-6.547923331978855e-2
-0.3689559674771775,-6.541187252775493e-2
-0.36665210755186095,-6.53401985667258e-2
-0.3643482476265444,-6.561445604548677e-2
-0.3620443877012279,-6.567591699523101e-2
-0.35974052777591137,-6.559813560642558e-2
-0.3574366678505948,-6.552975373680048e-2
-0.35513280792527824,-6.85575725487233e-2
-0.35282894799996173,-6.912941235773729e-2
-0.3505250880746452,-6.949097021173278e-2
-0.34822122814932865,-6.934593779677367e-2
-0.3459173682240121,-7.012899202016487e-2
-0.3436135082986956,-6.993861901997056e-2
-0.34130964837337896,-7.006526969384796e-2
-0.3390057884480624,-6.98782226055561e-2
-0.3367019285227459,-6.970713296919584e-2
-0.3343980685974294,-6.955351033019896e-2
-0.3320942086721128,-7.081149899502215e-2
-0.32979034874679625,-7.130343302890896e-2
-0.32748648882147974,-7.141475617973947e-2
-0.32518262889616323,-7.120961945845061e-2
-0.32287876897084666,-7.149150507472657e-2
-0.3205749090455301,-7.150434147232054e-2
-0.3182710491202136,-7.148371668840092e-2
-0.3159671891948971,-7.129917327924795e-2
-0.3136633292695805,-7.114608178206139e-2
-0.31135946934426395,-7.100450595561136e-2
-0.30905560941894744,-7.146262487935606e-2
-0.30675174949363093,-7.125096511920859e-2
-0.30444788956831437,-7.116588891506881e-2
-0.3021440296429978,-7.150924323300079e-2
-0.2998401697176813,-7.128339721694732e-2
-0.2975363097923648,-7.112417278025251e-2
-0.2952324498670482,-7.111827651689906e-2
-0.29292858994173165,-7.091601024601624e-2
-0.29062473001641514,-7.109057812413422e-2
-0.28832087009109864,-7.128738950323954e-2
-0.28601701016578207,-7.110888367005141e-2
-0.28371315024046545,-7.09232381991618e-2
-0.28140929031514894,-7.117564120132491e-2
-0.2791054303898324,-7.099003399774284e-2
-0.2768015704645158,-7.15973355469266e-2
-0.2744977105391993,-7.137591428598045e-2
-0.2721938506138828,-7.125030782207042e-2
-0.26988999068856623,-7.119247350943614e-2
-0.26758613076324966,-7.251301617007688e-2
-0.26528227083793315,-7.226214290287092e-2
-0.26297841091261664,-7.267166304140504e-2
-0.2606745509873001,-7.243399808228079e-2
-0.2583706910619835,-7.218726968911304e-2
-0.256066831136667,-7.201134633158712e-2
-0.2537629712113504,-7.177446624471373e-2
-0.2514591112860338,-7.197580742896059e-2
-0.24915525136071737,-7.220214388476787e-2
-0.2468513914354008,-7.197245959568321e-2
-0.24454753151008424,-7.194400188077943e-2
-0.24224367158476767,-7.190888707489629e-2
-0.2399398116594511,-7.203872897577501e-2
-0.23763595173413465,-7.245088879784767e-2
-0.2353320918088182,-7.547683670824246e-2
-0.23302823188350164,-7.5290951818211e-2
-0.23072437195818507,-7.497174781273785e-2
-0.2284205120328685,-7.478667914610282e-2
-0.22611665210755194,-7.449025680486598e-2
-0.22381279218223538,-7.474075519170009e-2
-0.2215089322569188,-7.578187577877604e-2
-0.21920507233160236,-7.551423240429656e-2
-0.2169012124062858,-7.529614036989085e-2
-0.21459735248096923,-7.499431167790538e-2
-0.21229349255565277,-7.470243149828426e-2
-0.2099896326303362,-7.43955587131192e-2
-0.20768577270501964,-7.412677224418796e-2
-0.20538191277970308,-7.39639271712238e-2
-0.20307805285438651,-7.367970998817241e-2
-0.20077419292907006,-7.34568877774362e-2
-0.1984703330037535,-7.335721851261245e-2
-0.19616647307843693,-7.336912387678218e-2
-0.19386261315312037,-7.30989411337134e-2
-0.1915587532278038,-7.283319158377544e-2
-0.18925489330248724,-7.264729696546723e-2
-0.18695103337717067,-7.249379684665613e-2
-0.18464717345185422,-7.224855245359052e-2
-0.18234331352653765,-7.228996093110185e-2
-0.1800394536012211,-7.211282903988347e-2
-0.17773559367590464,-7.187226058726892e-2
-0.17543173375058807,-7.16728842966774e-2
-0.1731278738252714,-7.145375018269262e-2
-0.17082401389995483,-7.125487903982541e-2
-0.16852015397463838,-7.12172378194511e-2
-0.1662162940493218,-7.0999050423743e-2
-0.16391243412400536,-7.078629963832084e-2
-0.1616085741986888,-7.078457524973558e-2
-0.15930471427337234,-7.057925750844496e-2
-0.15700085434805577,-7.040871149681649e-2
-0.1546969944227392,-7.034679712436842e-2
-0.15239313449742264,-7.015070908219234e-2
-0.15008927457210608,-6.995916600139895e-2
-0.14778541464678963,-6.98254161930919e-2
-0.14548155472147306,-6.967958743407743e-2
-0.1431776947961565,-6.950086745541462e-2
-0.14087383487083993,-6.9339393828452e-2
-0.13856997494552337,-6.917867535794608e-2
-0.1362661150202068,-6.905084885353618e-2
-0.13396225509489024,-6.894411343564244e-2
-0.13165839516957378,-6.884580339147617e-2
-0.12935453524425722,-6.870073198919657e-2
-0.12705067531894065,-6.867296300509518e-2
-0.1247468153936242,-6.868853389944307e-2
-0.12244295546830763,-6.854805478991366e-2
-0.12013909554299107,-6.881194149468928e-2
-0.1178352356176745,-6.866145909880728e-2
-0.11553137569235794,-6.85766931576024e-2
-0.11322751576704149,-6.843616622061444e-2
-0.11092365584172492,-6.831668325151241e-2
-0.10861979591640836,-6.81820758627808e-2
-0.10631593599109179,-6.804718006135657e-2
-0.10401207606577523,-6.79551662459662e-2
-0.10170821614045866,-6.802761107977817e-2
-9.94043562151421e-2,-6.882852822912511e-2
-9.710049628982564e-2,-6.867536850676548e-2
-9.479663636450908e-2,-6.86084904515386e-2
-9.249277643919251e-2,-6.852238791044463e-2
-9.018891651387606e-2,-6.83897091024187e-2
-8.78850565885595e-2,-6.831743070697738e-2
-8.558119666324293e-2,-6.840516061019708e-2
-8.327733673792637e-2,-6.826353229549076e-2
-8.09734768126098e-2,-6.812038758264993e-2
-7.866961688729335e-2,-6.798066326046126e-2
-7.636575696197667e-2,-6.786507194239377e-2
-7.406189703666022e-2,-6.77325558019376e-2
-7.175803711134365e-2,-6.775081456551069e-2
-6.945417718602709e-2,-6.763098664312184e-2
-6.715031726071052e-2,-6.75081592647141e-2
-6.484645733539396e-2,-6.745270377822565e-2
-6.25425974100775e-2,-6.734279776961338e-2
-6.023873748476094e-2,-6.722500667348208e-2
-5.7934877559444375e-2,-6.714580748045706e-2
-5.563101763412792e-2,-6.703045824769571e-2
-5.332715770881136e-2,-6.691804670364754e-2
-5.10232977834949e-2,-6.697031352167815e-2
-4.871943785817834e-2,-6.690206689245204e-2
-4.641557793286177e-2,-6.680261893408856e-2
-4.411171800754521e-2,-6.672822145866952e-2
-4.1807858082228755e-2,-6.662390640330529e-2
-3.950399815691219e-2,-6.65225664402479e-2
-3.7200138231595625e-2,-6.667667008114653e-2
-3.489627830627917e-2,-6.66039696583749e-2
-3.259241838096261e-2,-6.673455331259126e-2
-3.0288558455646042e-2,-6.673094806540258e-2
-2.7984698530329366e-2,-6.748976981667332e-2
-2.5680838605012912e-2,-6.737341404084285e-2
-2.3376978679696347e-2,-6.727719567312773e-2
-2.1073118754379783e-2,-6.719736665658771e-2
-1.876925882906333e-2,-6.850770130810213e-2
-1.6465398903746764e-2,-6.853299699051163e-2
-1.41615389784302e-2,-6.847167942164867e-2
-1.1857679053113634e-2,-6.850242297387099e-2
-9.55381912779707e-3,-6.842824630005306e-2
-7.249959202480616e-3,-6.837352849538192e-2
-4.946099277164051e-3,-6.840086082542274e-2
-2.6422393518474863e-3,-6.827008512648491e-2
-3.383794265310325e-4,-6.842744172504156e-2
1.9654804987856433e-3,-6.828943086437145e-2
4.269340424102097e-3,-6.827597568538524e-2
6.573200349418773e-3,-6.820783970605804e-2
8.877060274735227e-3,-6.809238192986189e-2
1.1180920200051792e-2,-6.827952712490537e-2
1.3484780125368245e-2,-6.813733771994646e-2
1.578864005068481e-2,-6.909887086138078e-2
1.8092499976001264e-2,-6.908372901272597e-2
2.039635990131794e-2,-6.899783098868473e-2
2.2700219826634616e-2,-6.904495157234114e-2
2.500407975195107e-2,-6.891366754191175e-2
2.7307939677267634e-2,-6.875591654181357e-2
2.9611799602584088e-2,-6.861532146741767e-2
3.191565952790065e-2,-6.848821384116943e-2
3.4219519453217107e-2,-6.83507987675106e-2
3.652337937853378e-2,-6.820488662415225e-2
3.8827239303850236e-2,-6.824274487189896e-2
4.113109922916691e-2,-6.810721566218825e-2
4.3434959154483366e-2,-6.812042741323521e-2
4.573881907979993e-2,-6.799910423135169e-2
4.8042679005116384e-2,-6.788595340352976e-2
5.034653893043295e-2,-6.802629964960061e-2
5.2650398855749625e-2,-6.789778664382462e-2
5.495425878106608e-2,-6.778675279145074e-2
5.7258118706382755e-2,-6.771350066416137e-2
5.956197863169921e-2,-6.768922104102382e-2
6.186583855701577e-2,-6.756564283594502e-2
6.416969848233223e-2,-6.753532022223163e-2
6.647355840764879e-2,-6.744285058461796e-2
6.877741833296525e-2,-6.742727353511524e-2
7.108127825828192e-2,-6.730457420933034e-2
7.338513818359838e-2,-6.721275490720102e-2
7.568899810891505e-2,-6.709741869263752e-2
7.79928580342315e-2,-6.701044405768763e-2
8.029671795954807e-2,-6.690443478727826e-2
8.260057788486463e-2,-6.686707838132533e-2
8.490443781018109e-2,-6.69382002335186e-2
8.720829773549776e-2,-6.684830750963333e-2
8.951215766081422e-2,-6.689393810414968e-2
9.18160175861309e-2,-6.679807424477191e-2
9.411987751144713e-2,-6.679910843721071e-2
9.64237374367638e-2,-6.67305998979304e-2
9.872759736208037e-2,-6.675501599193912e-2
0.10103145728739682,-6.677235313592367e-2
0.10333531721271338,-6.669146725583341e-2
0.10563917713802984,-6.662970317466299e-2
0.10794303706334651,-6.694797299981492e-2
0.11024689698866297,-6.708637981165544e-2
0.11255075691397964,-6.71156016564648e-2
0.1148546168392961,-6.901834141128149e-2
0.11715847676461266,-6.927893560569875e-2
0.11946233668992912,-6.91168399822627e-2
0.12176619661524568,-6.966601209161083e-2
0.12407005654056213,-6.956194666351367e-2
0.1263739164658788,-6.963934092315105e-2
0.12867777639119526,-6.991082910231472e-2
0.13098163631651194,-7.109813447091073e-2
0.1332854962418285,-7.090861155417716e-2
0.13558935616714496,-7.107177734246084e-2
0.13789321609246152,-7.109678294034716e-2
0.14019707601777798,-7.097269203577017e-2
0.14250093594309465,-7.087380915295405e-2
0.1448047958684111,-7.066415800105874e-2
0.14710865579372778,-7.1473878924463e-2
0.14941251571904424,-7.146222233141852e-2
0.1517163756443608,-7.124587253628945e-2
0.15402023556967726,-7.110659970451083e-2
0.15632409549499382,-7.114341851758255e-2
0.15862795542031027,-7.092699481628817e-2
0.16093181534562695,-7.079172040223836e-2
0.16323567527094363,-7.076792638102436e-2
0.16553953519626008,-7.080191945101921e-2
0.16784339512157664,-7.059377531759792e-2
0.1701472550468931,-7.039272961812948e-2
0.17245111497220966,-7.019553565817582e-2
0.17475497489752612,-7.006872450689883e-2
0.1770588348228428,-6.988381327161663e-2
0.17936269474815925,-6.97060088210053e-2
0.18166655467347592,-6.95590313466683e-2
0.18397041459879238,-6.938700120376029e-2
0.18627427452410894,-6.921563187361213e-2
0.1885781344494254,-6.904957011439239e-2
0.19088199437474196,-6.895330054911042e-2
0.1931858543000584,-6.87931549689278e-2
0.1954897142253751,-6.880252272008303e-2
0.19779357415069176,-6.871691215357179e-2
0.20009743407600822,-6.857911081458101e-2
0.20240129400132478,-6.849485194901972e-2
0.20470515392664124,-6.839812954549063e-2
0.2070090138519578,-6.858929171386874e-2
0.20931287377727426,-6.906794642143055e-2
0.21161673370259093,-6.906568947361524e-2
0.21392059362790738,-6.932076511810015e-2
0.21622445355322406,-6.918772006492568e-2
0.21852831347854051,-6.946362507100423e-2
0.22083217340385708,-6.947399427337786e-2
0.22313603332917353,-6.938662919523908e-2
0.2254398932544901,-6.943794675976722e-2
0.22774375317980677,-6.927018660589546e-2
0.23004761310512323,-6.92736131535816e-2
0.2323514730304399,-6.911884012751368e-2
0.23465533295575636,-6.896199342225262e-2
0.23695919288107292,-6.884377619617466e-2
0.23926305280638938,-6.876598000537482e-2
0.24156691273170594,-6.864910730082097e-2
0.2438707726570224,-6.850587726662394e-2
0.24617463258233885,-6.835892431014534e-2
0.24847849250765552,-6.823624537360373e-2
0.250782352432972,-6.814074968222761e-2
0.25308621235828865,-6.800920069127026e-2
0.2553900722836051,-6.788277246539187e-2
0.2576939322089218,-6.779086711756321e-2
0.259997792134238,-6.783776012501741e-2
0.2623016520595547,-6.771731276960957e-2
0.26460551198487114,-6.76053573689499e-2
0.2669093719101878,-6.747932485150032e-2
0.2692132318355043,-6.736019508013291e-2
0.27151709176082095,-6.724261945534171e-2
0.2738209516861374,-6.715674174739106e-2
0.27612481161145386,-6.704107119012004e-2
0.27842867153677053,-6.692919377871476e-2
0.280732531462087,-6.681969488364614e-2
0.28303639138740366,-6.683331395006531e-2
0.2853402513127201,-6.672914490059667e-2
0.2876441112380368,-6.663790252984048e-2
0.28994797116335325,-6.661855078550483e-2
0.2922518310886697,-6.654002715834129e-2
0.2945556910139864,-6.644398474816804e-2
0.29685955093930283,-6.647822150526428e-2
0.2991634108646193,-6.638156930392014e-2
0.30146727078993596,-6.630999680554628e-2
0.3037711307152524,-6.632082588467791e-2
0.3060749906405691,-6.65492103164913e-2
0.30837885056588554,-6.662298245955489e-2
0.3106827104912022,-6.662759311486188e-2
0.3129865704165187,-6.652702690557344e-2
0.3152904303418351,-6.664437893953012e-2
0.3175942902671518,-6.660008043174048e-2
0.31989815019246826,-6.651168265883567e-2
0.32220201011778493,-6.642565752457386e-2
0.3245058700431014,-6.651340003104644e-2
0.32680972996841806,-6.641901090882874e-2
0.3291135898937343,-6.643324908910586e-2
0.33141744981905097,-6.634072004184477e-2
0.3337213097443674,-6.62582005576331e-2
0.3360251696696841,-6.619685988776236e-2
0.3383290295950008,-6.614498699378579e-2
0.34063288952031723,-6.605741057443915e-2
0.3429367494456339,-6.59823073654332e-2
0.34524060937095014,-6.594218039719202e-2
0.3475444692962668,-6.586842866628995e-2
0.34984832922158327,-6.599443380479575e-2
0.35215218914689994,-6.59179190966589e-2
0.3544560490722164,-6.601249715671265e-2
0.35675990899753307,-6.620216825045311e-2
0.3590637689228495,-6.612788717026086e-2
0.361367628848166,-6.610110820592685e-2
0.36367148877348265,-6.606083165216492e-2
0.3659753486987991,-6.607188979850154e-2
0.36827920862411556,-6.605649095141342e-2
0.37058306854943224,-6.607853283029252e-2
0.3728869284747489,-6.602721643444986e-2
0.37519078840006537,-6.594037028339983e-2
0.3774946483253818,-6.602465527731971e-2
0.3797985082506985,-6.595165303600103e-2
0.38210236817601495,-6.594658915910734e-2
0.3844062281013314,-6.586949395449626e-2
0.3867100880266481,-6.578737158039027e-2
0.38901394795196453,-6.613366700441903e-2
0.391317807877281,-6.695388152073434e-2
0.39362166780259766,-6.710984664032404e-2
0.3959255277279141,-6.700257091351203e-2
0.39822938765323057,-6.690786866719678e-2
0.40053324757854725,-6.771970018630069e-2
0.4028371075038639,-6.772178593717426e-2
0.40514096742918015,-6.8095313080347e-2
0.40744482735449705,-6.81911239742583e-2
0.4097486872798133,-6.805676373761937e-2
0.4120525472051302,-6.803004606011975e-2
0.4143564071304464,-6.79775247327834e-2
0.4166602670557631,-6.78409497201431e-2
0.4189641269810793,-6.776563634190691e-2
0.4212679869063962,-6.766274219723067e-2
0.42357184683171245,-6.753421279912186e-2
0.42587570675702935,-6.746140898986708e-2
0.4281795666823456,-6.736614230793492e-2
0.43048342660766226,-6.732114194176719e-2
0.4327872865329787,-6.756372937818356e-2
0.4350911464582954,-6.989730763634694e-2"/>
  </g>
  <g stroke-opacity="0.5" stroke="#431712" stroke-width="7.0e-3" fill="none">
    <polyline points="-0.7145349562746587,-6.848677372425993e-2
-0.7122310963493421,-6.854213189656144e-2
-0.7099272364240256,-6.85216439137385e-2
-0.707623376498709,-6.853992006825738e-2
-0.7053195165733925,-6.851192273459661e-2
-0.703015656648076,-6.84826912202201e-2
-0.7007117967227594,-6.845972428126446e-2
-0.6984079367974428,-6.85508026273085e-2
-0.6961040768721263,-6.852270608721633e-2
-0.6938002169468098,-6.851512066636711e-2
-0.6914963570214933,-6.850338315973148e-2
-0.6891924970961767,-6.847455859200613e-2
-0.6868886371708601,-6.8445545942446e-2
-0.6845847772455436,-6.851376643932183e-2
-0.6822809173202271,-6.84844772888199e-2
-0.6799770573949105,-6.845725710167394e-2
-0.677673197469594,-6.871743948696263e-2
-0.6753693375442774,-6.887689737735192e-2
-0.673065477618961,-6.913466504978527e-2
-0.6707616176936444,-6.922425495835127e-2
-0.6684577577683278,-6.919445246260347e-2
-0.6661538978430113,-6.923374857002396e-2
-0.6638500379176948,-6.939942061589388e-2
-0.6615461779923782,-6.942518389440411e-2
-0.6592423180670617,-6.944011577762266e-2
-0.6569384581417451,-6.942241542089234e-2
-0.6546345982164286,-6.957601484785902e-2
-0.6523307382911121,-6.95449800957475e-2
-0.6500268783657955,-6.961094189234851e-2
-0.647723018440479,-6.958798168374036e-2
-0.6454191585151624,-6.957674682902126e-2
-0.6431152985898458,-6.954534646889021e-2
-0.6408114386645294,-6.953335353281287e-2
-0.6385075787392128,-6.953797178921994e-2
-0.6362037188138963,-6.950316821187741e-2
-0.6338998588885797,-6.948262793282134e-2
-0.6315959989632631,-6.94778580208939e-2
-0.6292921390379467,-6.944330347330785e-2
-0.6269882791126301,-6.94797181947816e-2
-0.6246844191873135,-6.944624559997903e-2
-0.622380559261997,-6.945134049661905e-2
-0.6200766993366804,-6.941719188359685e-2
-0.617772839411364,-6.941006544651362e-2
-0.6154689794860474,-6.93779904876829e-2
-0.6131651195607308,-6.936487680960823e-2
-0.6108612596354144,-6.933301662366498e-2
-0.6085573997100978,-6.936024092555171e-2
-0.6062535397847812,-6.933026536748699e-2
-0.6039496798594648,-6.929653642096767e-2
-0.6016458199341481,-6.929684572802486e-2
-0.5993419600088317,-6.929430930944769e-2
-0.5970381000835151,-6.926129193660824e-2
-0.5947342401581985,-6.922788409320091e-2
-0.592430380232882,-6.92153680120583e-2
-0.5901265203075654,-6.918740848171911e-2
-0.587822660382249,-6.915492074815965e-2
-0.5855188004569324,-6.912558914361622e-2
-0.5832149405316158,-6.911213771325375e-2
-0.5809110806062993,-6.908447114565608e-2
-0.5786072206809827,-6.905509762834083e-2
-0.5763033607556662,-6.902505392187541e-2
-0.5739995008303497,-6.899582244702729e-2
-0.5716956409050331,-6.902165423303197e-2
-0.5693917809797165,-6.905057389831881e-2
-0.5670879210544,-6.903935474129819e-2
-0.5647840611290835,-6.905095802149341e-2
-0.562480201203767,-6.902512605207656e-2
-0.5601763412784504,-6.899285091072271e-2
-0.5578724813531338,-6.89870342300184e-2
-0.5555686214278173,-6.895555547129606e-2
-0.5532647615025008,-6.892635035761718e-2
-0.5509609015771842,-6.889465554089347e-2
-0.5486570416518677,-6.886358927853786e-2
-0.5463531817265511,-6.88408191523765e-2
-0.5440493218012346,-6.881101625050012e-2
-0.5417454618759181,-6.878079613829802e-2
-0.5394416019506015,-6.875265824646737e-2
-0.537137742025285,-6.87303277654544e-2
-0.5348338820999685,-6.870017375833715e-2
-0.5325300221746518,-6.868922671595501e-2
-0.5302261622493354,-6.865952046766655e-2
-0.5279223023240188,-6.871479096370559e-2
-0.5256184423987023,-6.868562724820049e-2
-0.5233145824733857,-6.868878449867721e-2
-0.5210107225480691,-6.867323630915967e-2
-0.5187068626227527,-6.864280631993613e-2
-0.516403002697436,-6.861577593134371e-2
-0.5140991427721195,-6.859735431598235e-2
-0.5117952828468031,-6.859713389427347e-2
-0.5094914229214865,-6.859534933697409e-2
-0.50718756299617,-6.85954052159169e-2
-0.5048837030708534,-6.856908700913467e-2
-0.5025798431455368,-6.85642572286298e-2
-0.5002759832202204,-6.856383140983657e-2
-0.4979721232949038,-6.853397711095022e-2
-0.49566826336958725,-6.850519361748109e-2
-0.4933644034442707,-6.848071480953755e-2
-0.4910605435189542,-6.845228349783739e-2
-0.4887566835936376,-6.843188307562709e-2
-0.4864528236683211,-6.840350930157268e-2
-0.48414896374300453,-6.837511575215693e-2
-0.481845103817688,-6.835415948776447e-2
-0.47954124389237146,-6.835758082601473e-2
-0.4772373839670549,-6.833470339758341e-2
-0.47493352404173844,-6.832911351783189e-2
-0.47262966411642193,-6.83182071068884e-2
-0.47032580419110537,-6.829819225266642e-2
-0.4680219442657888,-6.827063484975537e-2
-0.46571808434047224,-6.825098388204542e-2
-0.46341422441515573,-6.82302005194727e-2
-0.46111036448983916,-6.820586593644506e-2
-0.45880650456452265,-6.817991196752993e-2
-0.4565026446392061,-6.815222285079747e-2
-0.4541987847138896,-6.812629300989892e-2
-0.45189492478857296,-6.812648038017821e-2
-0.44959106486325645,-6.810832803261535e-2
-0.44728720493793994,-6.809683655962695e-2
-0.4449833450126234,-6.810050411960833e-2
-0.4426794850873068,-6.809867829701455e-2
-0.4403756251619903,-6.807465514387934e-2
-0.4380717652366738,-6.804875312176861e-2
-0.4357679053113572,-6.802239050766712e-2
-0.43346404538604066,-6.799558833390629e-2
-0.4311601854607241,-6.797093655251918e-2
-0.4288563255354076,-6.795906204463165e-2
-0.426552465610091,-6.79558077105451e-2
-0.4242486056847745,-6.792895292255674e-2
-0.42194474575945795,-6.791424349432196e-2
-0.4196408858341414,-6.790052085975773e-2
-0.4173370259088248,-6.78740050904515e-2
-0.4150331659835083,-6.785014423976887e-2
-0.4127293060581918,-6.782963000038444e-2
-0.41042544613287524,-6.781236270129432e-2
-0.4081215862075587,-6.779000897400922e-2
-0.4058177262822421,-6.776480010772556e-2
-0.4035138663569256,-6.774383541090512e-2
-0.40121000643160903,-6.77179861262226e-2
-0.3989061465062925,-6.770325376490693e-2
-0.39660228658097596,-6.767764648852304e-2
-0.39429842665565945,-6.767175034502959e-2
-0.3919945667303429,-6.765785596904228e-2
-0.3896907068050263,-6.763261181383018e-2
-0.3873868468797098,-6.763368667477221e-2
-0.38508298695439325,-6.760894683148477e-2
-0.3827791270290768,-6.759288034355193e-2
-0.38047526710376023,-6.756973207120931e-2
-0.37817140717844366,-6.755271522678652e-2
-0.37586754725312715,-6.753025151481173e-2
-0.37356368732781053,-6.750564364374079e-2
-0.371259827402494,-6.748579053327108e-2
-0.3689559674771775,-6.746176802032922e-2
-0.36665210755186095,-6.743730791218183e-2
-0.3643482476265444,-6.74543879725279e-2
-0.3620443877012279,-6.744958396917977e-2
-0.35974052777591137,-6.742558497478335e-2
-0.3574366678505948,-6.740320540084166e-2
-0.35513280792527824,-6.796028857444392e-2
-0.35282894799996173,-6.813977551850048e-2
-0.3505250880746452,-6.820522436708898e-2
-0.34822122814932865,-6.819341022835967e-2
-0.3459173682240121,-6.837073479626743e-2
-0.3436135082986956,-6.834180455970551e-2
-0.34130964837337896,-6.840919356595854e-2
-0.3390057884480624,-6.838005367903155e-2
-0.3367019285227459,-6.835943622101359e-2
-0.3343980685974294,-6.834414548154699e-2
-0.3320942086721128,-6.873996105684621e-2
-0.32979034874679625,-6.88564609897443e-2
-0.32748648882147974,-6.894737696760556e-2
-0.32518262889616323,-6.89312262411923e-2
-0.32287876897084666,-6.90025722008053e-2
-0.3205749090455301,-6.90194944394581e-2
-0.3182710491202136,-6.903272682705996e-2
-0.3159671891948971,-6.90162910988017e-2
-0.3136633292695805,-6.899705796221178e-2
-0.31135946934426395,-6.898084798924031e-2
-0.30905560941894744,-6.912447880841266e-2
-0.30675174949363093,-6.909464754970329e-2
-0.30444788956831437,-6.909735989308419e-2
-0.3021440296429978,-6.922192829917129e-2
-0.2998401697176813,-6.918939143858371e-2
-0.2975363097923648,-6.91782104613402e-2
-0.2952324498670482,-6.91901688922717e-2
-0.29292858994173165,-6.915911354038418e-2
-0.29062473001641514,-6.923549326429268e-2
-0.28832087009109864,-6.932848292294469e-2
-0.28601701016578207,-6.929921154343321e-2
-0.28371315024046545,-6.928038775216694e-2
-0.28140929031514894,-6.934323814854404e-2
-0.2791054303898324,-6.931411501159557e-2
-0.2768015704645158,-6.948017779171922e-2
-0.2744977105391993,-6.944737781690935e-2
-0.2721938506138828,-6.943809457437589e-2
-0.26988999068856623,-6.944791692359742e-2
-0.26758613076324966,-6.98143224215948e-2
-0.26528227083793315,-6.97787221325249e-2
-0.26297841091261664,-6.993739925099651e-2
-0.2606745509873001,-6.99021978289106e-2
-0.2583706910619835,-6.986550144341008e-2
-0.256066831136667,-6.98409510882263e-2
-0.2537629712113504,-6.980456791987921e-2
-0.2514591112860338,-6.989588359715238e-2
-0.24915525136071737,-7.00061695354871e-2
-0.2468513914354008,-6.996918426650478e-2
-0.24454753151008424,-7.000853388162132e-2
-0.24224367158476767,-7.004970008685274e-2
-0.2399398116594511,-7.014686936373304e-2
-0.23763595173413465,-7.034175154416056e-2
-0.2353320918088182,-7.109350051228713e-2
-0.23302823188350164,-7.107831651899088e-2
-0.23072437195818507,-7.103576274348244e-2
-0.2284205120328685,-7.102012679902947e-2
-0.22611665210755194,-7.09791354471101e-2
-0.22381279218223538,-7.111723108722001e-2
-0.2215089322569188,-7.14341168014051e-2
-0.21920507233160236,-7.140689241567622e-2
-0.2169012124062858,-7.139341592484616e-2
-0.21459735248096923,-7.1355417777343e-2
-0.21229349255565277,-7.131868617699466e-2
-0.2099896326303362,-7.127490765901556e-2
-0.20768577270501964,-7.123841789180341e-2
-0.20538191277970308,-7.123188704231453e-2
-0.20307805285438651,-7.119047585807525e-2
-0.20077419292907006,-7.116594625529216e-2
-0.1984703330037535,-7.11763573097276e-2
-0.19616647307843693,-7.119355804723149e-2
-0.19386261315312037,-7.115217525550899e-2
-0.1915587532278038,-7.110997423446164e-2
-0.18925489330248724,-7.108992774241873e-2
-0.18695103337717067,-7.106563941713462e-2
-0.18464717345185422,-7.102360329310264e-2
-0.18234331352653765,-7.105595560615507e-2
-0.1800394536012211,-7.103608934582684e-2
-0.17773559367590464,-7.09939333248677e-2
-0.17543173375058807,-7.096559418236248e-2
-0.1731278738252714,-7.093004794539226e-2
-0.17082401389995483,-7.088997282094889e-2
-0.16852015397463838,-7.087667337986914e-2
-0.1662162940493218,-7.083521649638069e-2
-0.16391243412400536,-7.079397880398575e-2
-0.1616085741986888,-7.080396295016611e-2
-0.15930471427337234,-7.076527851932501e-2
-0.15700085434805577,-7.072686039778042e-2
-0.1546969944227392,-7.072194492466444e-2
-0.15239313449742264,-7.068160272292523e-2
-0.15008927457210608,-7.064169297956235e-2
-0.14778541464678963,-7.060605478269333e-2
-0.14548155472147306,-7.057788524114172e-2
-0.1431776947961565,-7.053805868113106e-2
-0.14087383487083993,-7.049859764787647e-2
-0.13856997494552337,-7.045916579426015e-2
-0.1362661150202068,-7.042295832466017e-2
-0.13396225509489024,-7.039792490474128e-2
-0.13165839516957378,-7.036473336188542e-2
-0.12935453524425722,-7.032642061510797e-2
-0.12705067531894065,-7.030329083208575e-2
-0.1247468153936242,-7.028821076241076e-2
-0.12244295546830763,-7.025133844108522e-2
-0.12013909554299107,-7.028292640691147e-2
-0.1178352356176745,-7.02467272357119e-2
-0.11553137569235794,-7.022312523165375e-2
-0.11322751576704149,-7.018533799192062e-2
-0.11092365584172492,-7.015448456604967e-2
-0.10861979591640836,-7.012024347831336e-2
-0.10631593599109179,-7.008256340456964e-2
-0.10401207606577523,-7.004890350887572e-2
-0.10170821614045866,-7.004891018612114e-2
-9.94043562151421e-2,-7.014439299546482e-2
-9.710049628982564e-2,-7.010692898971316e-2
-9.479663636450908e-2,-7.008542410645624e-2
-9.249277643919251e-2,-7.005649084223031e-2
-9.018891651387606e-2,-7.00227348132082e-2
-8.78850565885595e-2,-6.999955048447837e-2
-8.558119666324293e-2,-7.000526048728828e-2
-8.327733673792637e-2,-6.99681341026428e-2
-8.09734768126098e-2,-6.993204340204995e-2
-7.866961688729335e-2,-6.989604834860375e-2
-7.636575696197667e-2,-6.98652834542276e-2
-7.406189703666022e-2,-6.982884753189988e-2
-7.175803711134365e-2,-6.980843733672049e-2
-6.945417718602709e-2,-6.977532901987049e-2
-6.715031726071052e-2,-6.973936322342011e-2
-6.484645733539396e-2,-6.97166828568867e-2
-6.25425974100775e-2,-6.968147164994554e-2
-6.023873748476094e-2,-6.96458838017483e-2
-5.7934877559444375e-2,-6.961349438845188e-2
-5.563101763412792e-2,-6.957862232144574e-2
-5.332715770881136e-2,-6.954361769803719e-2
-5.10232977834949e-2,-6.95338418812661e-2
-4.871943785817834e-2,-6.950203240086072e-2
-4.641557793286177e-2,-6.946771784353445e-2
-4.411171800754521e-2,-6.94393719367904e-2
-4.1807858082228755e-2,-6.940505748933667e-2
-3.950399815691219e-2,-6.937088286614779e-2
-3.7200138231595625e-2,-6.93624791579831e-2
-3.489627830627917e-2,-6.93313050380785e-2
-3.259241838096261e-2,-6.93287103506478e-2
-3.0288558455646042e-2,-6.930500241624227e-2
-2.7984698530329366e-2,-6.938504603129747e-2
-2.5680838605012912e-2,-6.935251887742766e-2
-2.3376978679696347e-2,-6.932308968647494e-2
-2.1073118754379783e-2,-6.929358250118245e-2
-1.876925882906333e-2,-6.949397792599199e-2
-1.6465398903746764e-2,-6.948224975254058e-2
-1.41615389784302e-2,-6.945936374725381e-2
-1.1857679053113634e-2,-6.945246427469065e-2
-9.55381912779707e-3,-6.9432660674422e-2
-7.249959202480616e-3,-6.941729930857121e-2
-4.946099277164051e-3,-6.94085717872982e-2
-2.6422393518474863e-3,-6.937812899365425e-2
-3.383794265310325e-4,-6.94013375856225e-2
1.9654804987856433e-3,-6.936768008833194e-2
4.269340424102097e-3,-6.936182388926015e-2
6.573200349418773e-3,-6.934672668444952e-2
8.877060274735227e-3,-6.931445200295616e-2
1.1180920200051792e-2,-6.934878221155172e-2
1.3484780125368245e-2,-6.931761971715222e-2
1.578864005068481e-2,-6.94564769774344e-2
1.8092499976001264e-2,-6.944626011828503e-2
2.039635990131794e-2,-6.942513253054172e-2
2.2700219826634616e-2,-6.943012610731447e-2
2.500407975195107e-2,-6.940280720150716e-2
2.7307939677267634e-2,-6.936881974740605e-2
2.9611799602584088e-2,-6.933703081945497e-2
3.191565952790065e-2,-6.930851334950539e-2
3.4219519453217107e-2,-6.927634167298158e-2
3.652337937853378e-2,-6.924290274371803e-2
3.8827239303850236e-2,-6.924302300019936e-2
4.113109922916691e-2,-6.921208034161641e-2
4.3434959154483366e-2,-6.920995167755695e-2
4.573881907979993e-2,-6.917805631082408e-2
4.8042679005116384e-2,-6.914706812524574e-2
5.034653893043295e-2,-6.915419108346132e-2
5.2650398855749625e-2,-6.912235364032482e-2
5.495425878106608e-2,-6.909411667007948e-2
5.7258118706382755e-2,-6.907255863819617e-2
5.956197863169921e-2,-6.90602874145354e-2
6.186583855701577e-2,-6.902999977955815e-2
6.416969848233223e-2,-6.901753819446443e-2
6.647355840764879e-2,-6.8987763381813e-2
6.877741833296525e-2,-6.896787914908564e-2
7.108127825828192e-2,-6.893603048466723e-2
7.338513818359838e-2,-6.891036431510456e-2
7.568899810891505e-2,-6.887973906288603e-2
7.79928580342315e-2,-6.885458330773941e-2
8.029671795954807e-2,-6.882325089087982e-2
8.260057788486463e-2,-6.879895175501016e-2
8.490443781018109e-2,-6.878939321915767e-2
8.720829773549776e-2,-6.87620168614258e-2
8.951215766081422e-2,-6.875043586927088e-2
9.18160175861309e-2,-6.872169912895265e-2
9.411987751144713e-2,-6.870742997876456e-2
9.64237374367638e-2,-6.868365360791462e-2
9.872759736208037e-2,-6.866805922074493e-2
0.10103145728739682,-6.865692584321692e-2
0.10333531721271338,-6.862871632574463e-2
0.10563917713802984,-6.860288943147785e-2
0.10794303706334651,-6.863002183408062e-2
0.11024689698866297,-6.863862107907737e-2
0.11255075691397964,-6.863370636855426e-2
0.1148546168392961,-6.899094163302855e-2
0.11715847676461266,-6.902580990262885e-2
0.11946233668992912,-6.899365547433167e-2
0.12176619661524568,-6.909729997041036e-2
0.12407005654056213,-6.908402072275932e-2
0.1263739164658788,-6.911510899186357e-2
0.12867777639119526,-6.916946526072987e-2
0.13098163631651194,-6.948211211671829e-2
0.1332854962418285,-6.944979776188043e-2
0.13558935616714496,-6.949210105797987e-2
0.13789321609246152,-6.951007340819593e-2
0.14019707601777798,-6.950064257002775e-2
0.14250093594309465,-6.948995136774272e-2
0.1448047958684111,-6.945555451493723e-2
0.14710865579372778,-6.968218134558324e-2
0.14941251571904424,-6.968993114835442e-2
0.1517163756443608,-6.965833289612622e-2
0.15402023556967726,-6.963802617614456e-2
0.15632409549499382,-6.965942813726167e-2
0.15862795542031027,-6.962399775822126e-2
0.16093181534562695,-6.960775377319228e-2
0.16323567527094363,-6.961368606414498e-2
0.16553953519626008,-6.963683844082302e-2
0.16784339512157664,-6.96015535731328e-2
0.1701472550468931,-6.956646995508786e-2
0.17245111497220966,-6.95314607778893e-2
0.17475497489752612,-6.951368166297556e-2
0.1770588348228428,-6.948103417457463e-2
0.17936269474815925,-6.944703733211877e-2
0.18166655467347592,-6.941766473826494e-2
0.18397041459879238,-6.938506838537728e-2
0.18627427452410894,-6.935097295185011e-2
0.1885781344494254,-6.931712649539135e-2
0.19088199437474196,-6.929457656806559e-2
0.1931858543000584,-6.926103629150493e-2
0.1954897142253751,-6.925812049669922e-2
0.19779357415069176,-6.92376752475975e-2
0.20009743407600822,-6.920743747016678e-2
0.20240129400132478,-6.918694228612055e-2
0.20470515392664124,-6.916255737232246e-2
0.2070090138519578,-6.919277269313495e-2
0.20931287377727426,-6.928968025806692e-2
0.21161673370259093,-6.928003747775868e-2
0.21392059362790738,-6.932169373887676e-2
0.21622445355322406,-6.929661965497169e-2
0.21852831347854051,-6.935994182349225e-2
0.22083217340385708,-6.935684222320493e-2
0.22313603332917353,-6.933775178668988e-2
0.2254398932544901,-6.934734326050318e-2
0.22774375317980677,-6.931455235656392e-2
0.23004761310512323,-6.931617057210437e-2
0.2323514730304399,-6.928463845314192e-2
0.23465533295575636,-6.925322461977479e-2
0.23695919288107292,-6.922706424944369e-2
0.23926305280638938,-6.921014534843617e-2
0.24156691273170594,-6.918317279531416e-2
0.2438707726570224,-6.915245062753594e-2
0.24617463258233885,-6.912040924757312e-2
0.24847849250765552,-6.909287834286015e-2
0.250782352432972,-6.907060011926469e-2
0.25308621235828865,-6.903879465276797e-2
0.2553900722836051,-6.900945776107936e-2
0.2576939322089218,-6.8982327340948e-2
0.259997792134238,-6.898386724957639e-2
0.2623016520595547,-6.895569992611894e-2
0.26460551198487114,-6.892506470766657e-2
0.2669093719101878,-6.889327035308013e-2
0.2692132318355043,-6.886349296756322e-2
0.27151709176082095,-6.883355431480165e-2
0.2738209516861374,-6.88050196584662e-2
0.27612481161145386,-6.877419988096378e-2
0.27842867153677053,-6.874316052051022e-2
0.280732531462087,-6.8712292754887e-2
0.28303639138740366,-6.870248983660376e-2
0.2853402513127201,-6.86718220059288e-2
0.2876441112380368,-6.864199530258452e-2
0.28994797116335325,-6.862005098799351e-2
0.2922518310886697,-6.859189429955026e-2
0.2945556910139864,-6.856281417240173e-2
0.29685955093930283,-6.855313340794811e-2
0.2991634108646193,-6.852417015650425e-2
0.30146727078993596,-6.849958079885488e-2
0.3037711307152524,-6.847985370770138e-2
0.3060749906405691,-6.848871915982768e-2
0.30837885056588554,-6.848222296373774e-2
0.3106827104912022,-6.846725488953675e-2
0.3129865704165187,-6.843811441497827e-2
0.3152904303418351,-6.84406053694967e-2
0.3175942902671518,-6.841779541748094e-2
0.31989815019246826,-6.8389888692718e-2
0.32220201011778493,-6.836308250929635e-2
0.3245058700431014,-6.836192339933855e-2
0.32680972996841806,-6.833314097163201e-2
0.3291135898937343,-6.83227311627651e-2
0.33141744981905097,-6.829404370232117e-2
0.3337213097443674,-6.826607780027172e-2
0.3360251696696841,-6.824374872536676e-2
0.3383290295950008,-6.822314859814327e-2
0.34063288952031723,-6.819486812854914e-2
0.3429367494456339,-6.816723292116311e-2
0.34524060937095014,-6.81477125183364e-2
0.3475444692962668,-6.812014431662139e-2
0.34984832922158327,-6.811316241094434e-2
0.35215218914689994,-6.808756967098761e-2
0.3544560490722164,-6.808649926897581e-2
0.35675990899753307,-6.808886039345363e-2
0.3590637689228495,-6.806469386781033e-2
0.361367628848166,-6.804352536821867e-2
0.36367148877348265,-6.802402796876361e-2
0.3659753486987991,-6.801262787991291e-2
0.36827920862411556,-6.799218476858948e-2
0.37058306854943224,-6.798272878208178e-2
0.3728869284747489,-6.79585341686193e-2
0.37519078840006537,-6.793202243173879e-2
0.3774946483253818,-6.793174632067978e-2
0.3797985082506985,-6.790888932804173e-2
0.38210236817601495,-6.788876187491177e-2
0.3844062281013314,-6.78623945380713e-2
0.3867100880266481,-6.78359350281611e-2
0.38901394795196453,-6.78593175927571e-2
0.391317807877281,-6.796864946090653e-2
0.39362166780259766,-6.798301536537976e-2
0.3959255277279141,-6.795728080102559e-2
0.39822938765323057,-6.793297393315412e-2
0.40053324757854725,-6.807248997351845e-2
0.4028371075038639,-6.806550648590104e-2
0.40514096742918015,-6.813220724370772e-2
0.40744482735449705,-6.815422266685023e-2
0.4097486872798133,-6.812892910517698e-2
0.4120525472051302,-6.812008246408319e-2
0.4143564071304464,-6.811147062655176e-2
0.4166602670557631,-6.808399701827639e-2
0.4189641269810793,-6.807050913133972e-2
0.4212679869063962,-6.804632007633327e-2
0.42357184683171245,-6.801926494295973e-2
0.42587570675702935,-6.799935900328269e-2
0.4281795666823456,-6.79788495025131e-2
0.43048342660766226,-6.796296395138068e-2
0.4327872865329787,-6.799961849446823e-2
0.4350911464582954,-6.852746221516903e-2"/>
  </g>
  <g stroke-opacity="0.5" fill-opacity="1.0" stroke="#3764a0" stroke-width="4.0e-3" fill="#ffffff">
    <rect height="0.1342572542226072" width="0.19784397108655827" x="0.5394847993242009" y="-6.74465492280435e-2"/>
  </g>
  <g fill-opacity="1.0" font-size="4.000000000000001e-2" stroke="none" stroke-width="0.0" fill="#666666" text-anchor="start">
    <text x="0.5510040989507838" y="3.1297495813099874e-2">rate = 0.99
    </text>
  </g>
  <g stroke-opacity="0.5" stroke="#431712" stroke-width="6.999999999999999e-3" fill="none">
    <polyline points="0.7007549940963589,2.5580735310717917e-2
0.7237935933495243,2.5580735310717917e-2"/>
  </g>
  <g fill-opacity="1.0" font-size="4.000000000000001e-2" stroke="none" stroke-width="0.0" fill="#666666" text-anchor="start">
    <text x="0.5510040989507838" y="-1.8074526707471894e-2">rate = 0.95
    </text>
  </g>
  <g stroke-opacity="0.5" stroke="#4b2282" stroke-width="6.999999999999999e-3" fill="none">
    <polyline points="0.7007549940963589,-2.3791287209853795e-2
0.7237935933495243,-2.3791287209853795e-2"/>
  </g>
</svg>