
<svg xmlns="http://www.w3.org/2000/svg" height="300.0" viewBox="-0.9104277680948124 -0.7283312039844088 1.7014318670455961 1.461347121816856" width="450.0" xmlns:xlink="http://www.w3.org/1999/xlink">
  <g transform="translate(-8.219640591007693e-2, -0.57175)" fill-opacity="1.0" font-size="8.0e-2" stroke="none" stroke-width="0.0" fill="#000000" text-anchor="middle">
    <text transform="rotate(0.0, -0.14087383487083993, -6.25812039844088e-2)" x="-0.14087383487083993" y="-6.25812039844088e-2">std alpha
    </text>
  </g>
  <g stroke-opacity="0.0" fill-opacity="3.0e-2" stroke="#000000" stroke-width="0.0" fill="#666666">
    <rect height="0.8661758336942399" width="1.1519299626582706" x="-0.7168388161999752" y="-0.4956691208315287"/>
  </g>
  <g stroke-opacity="0.3" stroke="#a8e5ee" stroke-width="5.0e-3" fill="none">
    <polyline points="-0.7145349562746587,0.3748375920311824
-0.7145349562746587,-0.5"/>
  </g>
  <g stroke-opacity="0.3" stroke="#a8e5ee" stroke-width="5.0e-3" fill="none">
    <polyline points="-0.6661538978430113,0.3748375920311824
-0.6661538978430113,-0.5"/>
  </g>
  <g stroke-opacity="0.3" stroke="#a8e5ee" stroke-width="5.0e-3" fill="none">
    <polyline points="-0.5187068626227527,0.3748375920311824
-0.5187068626227527,-0.5"/>
  </g>
  <g stroke-opacity="0.3" stroke="#a8e5ee" stroke-width="5.0e-3" fill="none">
    <polyline points="-0.37356368732781053,0.3748375920311824
-0.37356368732781053,-0.5"/>
  </g>
  <g stroke-opacity="0.3" stroke="#a8e5ee" stroke-width="5.0e-3" fill="none">
    <polyline points="-0.2284205120328685,0.3748375920311824
-0.2284205120328685,-0.5"/>
  </g>
  <g stroke-opacity="0.3" stroke="#a8e5ee" stroke-width="5.0e-3" fill="none">
    <polyline points="-8.78850565885595e-2,0.3748375920311824
-8.78850565885595e-2,-0.5"/>
  </g>
  <g stroke-opacity="0.3" stroke="#a8e5ee" stroke-width="5.0e-3" fill="none">
    <polyline points="5.7258118706382755e-2,0.3748375920311824
5.7258118706382755e-2,-0.5"/>
  </g>
  <g stroke-opacity="0.3" stroke="#a8e5ee" stroke-width="5.0e-3" fill="none">
    <polyline points="0.20470515392664124,0.3748375920311824
0.20470515392664124,-0.5"/>
  </g>
  <g stroke-opacity="0.3" stroke="#a8e5ee" stroke-width="5.0e-3" fill="none">
    <polyline points="0.35215218914689994,0.3748375920311824
0.35215218914689994,-0.5"/>
  </g>
  <g stroke-opacity="0.3" stroke="#a8e5ee" stroke-width="5.0e-3" fill="none">
    <polyline points="0.4350911464582954,0.3748375920311824
0.4350911464582954,-0.5"/>
  </g>
  <g fill-opacity="1.0" font-size="5.0e-2" stroke="none" stroke-width="0.0" fill="#666666" text-anchor="end">
    <text transform="rotate(-45.0, -0.7145349562746587, 0.5)" x="-0.7145349562746587" y="0.5">28 Feb 2018
    </text>
  </g>
  <g fill-opacity="1.0" font-size="5.0e-2" stroke="none" stroke-width="0.0" fill="#666666" text-anchor="end">
    <text transform="rotate(-45.0, -0.6661538978430113, 0.5)" x="-0.6661538978430113" y="0.5">31 Mar 2018
    </text>
  </g>
  <g fill-opacity="1.0" font-size="5.0e-2" stroke="none" stroke-width="0.0" fill="#666666" text-anchor="end">
    <text transform="rotate(-45.0, -0.5187068626227527, 0.5)" x="-0.5187068626227527" y="0.5">30 Jun 2018
    </text>
  </g>
  <g fill-opacity="1.0" font-size="5.0e-2" stroke="none" stroke-width="0.0" fill="#666666" text-anchor="end">
    <text transform="rotate(-45.0, -0.37356368732781053, 0.5)" x="-0.37356368732781053" y="0.5">30 Sep 2018
    </text>
  </g>
  <g fill-opacity="1.0" font-size="5.0e-2" stroke="none" stroke-width="0.0" fill="#666666" text-anchor="end">
    <text transform="rotate(-45.0, -0.2284205120328685, 0.5)" x="-0.2284205120328685" y="0.5">31 Dec 2018
    </text>
  </g>
  <g fill-opacity="1.0" font-size="5.0e-2" stroke="none" stroke-width="0.0" fill="#666666" text-anchor="end">
    <text transform="rotate(-45.0, -8.78850565885595e-2, 0.5)" x="-8.78850565885595e-2" y="0.5">31 Mar 2019
    </text>
  </g>
  <g fill-opacity="1.0" font-size="5.0e-2" stroke="none" stroke-width="0.0" fill="#666666" text-anchor="end">
    <text transform="rotate(-45.0, 5.7258118706382755e-2, 0.5)" x="5.7258118706382755e-2" y="0.5">30 Jun 2019
    </text>
  </g>
  <g fill-opacity="1.0" font-size="5.0e-2" stroke="none" stroke-width="0.0" fill="#666666" text-anchor="end">
    <text transform="rotate(-45.0, 0.20470515392664124, 0.5)" x="0.20470515392664124" y="0.5">30 Sep 2019
    </text>
  </g>
  <g fill-opacity="1.0" font-size="5.0e-2" stroke="none" stroke-width="0.0" fill="#666666" text-anchor="end">
    <text transform="rotate(-45.0, 0.35215218914689994, 0.5)" x="0.35215218914689994" y="0.5">31 Dec 2019
    </text>
  </g>
  <g fill-opacity="1.0" font-size="5.0e-2" stroke="none" stroke-width="0.0" fill="#666666" text-anchor="end">
    <text transform="rotate(-45.0, 0.4350911464582954, 0.5)" x="0.4350911464582954" y="0.5">24 Feb 2020
    </text>
  </g>
  <g stroke-opacity="0.4" fill-opacity="1.0" stroke="#2c429d" stroke-width="5.0e-3" fill="#5f0391">
    <polyline points="-0.7145349562746587,0.4424577739281074
-0.7145349562746587,0.4124577739281074"/>
    <polyline points="-0.6661538978430113,0.4424577739281074
-0.6661538978430113,0.4124577739281074"/>
    <polyline points="-0.5187068626227527,0.4424577739281074
-0.5187068626227527,0.4124577739281074"/>
    <polyline points="-0.37356368732781053,0.4424577739281074
-0.37356368732781053,0.4124577739281074"/>
    <polyline points="-0.2284205120328685,0.4424577739281074
-0.2284205120328685,0.4124577739281074"/>
    <polyline points="-8.78850565885595e-2,0.4424577739281074
-8.78850565885595e-2,0.4124577739281074"/>
    <polyline points="5.7258118706382755e-2,0.4424577739281074
5.7258118706382755e-2,0.4124577739281074"/>
    <polyline points="0.20470515392664124,0.4424577739281074
0.20470515392664124,0.4124577739281074"/>
    <polyline points="0.35215218914689994,0.4424577739281074
0.35215218914689994,0.4124577739281074"/>
    <polyline points="0.4350911464582954,0.4424577739281074
0.4350911464582954,0.4124577739281074"/>
  </g>
  <g stroke-opacity="0.0" fill-opacity="0.5" stroke="#666666" stroke-width="0.0" fill="#5f0391">
    <rect height="4.330879168471247e-3" width="1.1519299626582706" x="-0.7168388161999752" y="0.4144651364226938"/>
  </g>
  <g stroke-opacity="0.3" stroke="#a8e5ee" stroke-width="5.0e-3" fill="none">
    <polyline points="-0.7197186411066209,0.3705067128627112
0.4379709713649409,0.3705067128627112"/>
  </g>
  <g stroke-opacity="0.3" stroke="#a8e5ee" stroke-width="5.0e-3" fill="none">
    <polyline points="-0.7197186411066209,0.2261440739136712
0.4379709713649409,0.2261440739136712"/>
  </g>
  <g stroke-opacity="0.3" stroke="#a8e5ee" stroke-width="5.0e-3" fill="none">
    <polyline points="-0.7197186411066209,8.17814349646312e-2
0.4379709713649409,8.17814349646312e-2"/>
  </g>
  <g stroke-opacity="0.3" stroke="#a8e5ee" stroke-width="5.0e-3" fill="none">
    <polyline points="-0.7197186411066209,-6.25812039844088e-2
0.4379709713649409,-6.25812039844088e-2"/>
  </g>
  <g stroke-opacity="0.3" stroke="#a8e5ee" stroke-width="5.0e-3" fill="none">
    <polyline points="-0.7197186411066209,-0.2069438429334487
0.4379709713649409,-0.2069438429334487"/>
  </g>
  <g stroke-opacity="0.3" stroke="#a8e5ee" stroke-width="5.0e-3" fill="none">
    <polyline points="-0.7197186411066209,-0.3513064818824887
0.4379709713649409,-0.3513064818824887"/>
  </g>
  <g stroke-opacity="0.3" stroke="#a8e5ee" stroke-width="5.0e-3" fill="none">
    <polyline points="-0.7197186411066209,-0.4956691208315287
0.4379709713649409,-0.4956691208315287"/>
  </g>
  <g fill-opacity="1.0" font-size="5.0e-2" stroke="none" stroke-width="0.0" fill="#666666" text-anchor="end">
    <text x="-0.75" y="0.3830662624512776">-60%
    </text>
  </g>
  <g fill-opacity="1.0" font-size="5.0e-2" stroke="none" stroke-width="0.0" fill="#666666" text-anchor="end">
    <text x="-0.75" y="0.23870362350223773">-40%
    </text>
  </g>
  <g fill-opacity="1.0" font-size="5.0e-2" stroke="none" stroke-width="0.0" fill="#666666" text-anchor="end">
    <text x="-0.75" y="9.434098455319773e-2">-20%
    </text>
  </g>
  <g fill-opacity="1.0" font-size="5.0e-2" stroke="none" stroke-width="0.0" fill="#666666" text-anchor="end">
    <text x="-0.75" y="-5.0021654395842385e-2">0%
    </text>
  </g>
  <g fill-opacity="1.0" font-size="5.0e-2" stroke="none" stroke-width="0.0" fill="#666666" text-anchor="end">
    <text x="-0.75" y="-0.19438429334488216">20%
    </text>
  </g>
  <g fill-opacity="1.0" font-size="5.0e-2" stroke="none" stroke-width="0.0" fill="#666666" text-anchor="end">
    <text x="-0.75" y="-0.3387469322939223">40%
    </text>
  </g>
  <g fill-opacity="1.0" font-size="5.0e-2" stroke="none" stroke-width="0.0" fill="#666666" text-anchor="end">
    <text x="-0.75" y="-0.4831095712429623">60%
    </text>
  </g>
  <g stroke-opacity="0.4" fill-opacity="1.0" stroke="#2c429d" stroke-width="5.0e-3" fill="#5f0391">
    <g transform="rotate(-90.0, -0.7312379407332036, 0.3705067128627112)">
      <polyline points="-0.7312379407332036,0.3855067128627112
-0.7312379407332036,0.3555067128627112"/>
    </g>
    <g transform="rotate(-90.0, -0.7312379407332036, 0.2261440739136712)">
      <polyline points="-0.7312379407332036,0.2411440739136712
-0.7312379407332036,0.21114407391367118"/>
    </g>
    <g transform="rotate(-90.0, -0.7312379407332036, 8.17814349646312e-2)">
      <polyline points="-0.7312379407332036,9.67814349646312e-2
-0.7312379407332036,6.67814349646312e-2"/>
    </g>
    <g transform="rotate(-90.0, -0.7312379407332036, -6.25812039844088e-2)">
      <polyline points="-0.7312379407332036,-4.758120398440881e-2
-0.7312379407332036,-7.75812039844088e-2"/>
    </g>
    <g transform="rotate(-90.0, -0.7312379407332036, -0.2069438429334487)">
      <polyline points="-0.7312379407332036,-0.19194384293344868
-0.7312379407332036,-0.2219438429334487"/>
    </g>
    <g transform="rotate(-90.0, -0.7312379407332036, -0.3513064818824887)">
      <polyline points="-0.7312379407332036,-0.3363064818824887
-0.7312379407332036,-0.3663064818824887"/>
    </g>
    <g transform="rotate(-90.0, -0.7312379407332036, -0.4956691208315287)">
      <polyline points="-0.7312379407332036,-0.4806691208315287
-0.7312379407332036,-0.5106691208315287"/>
    </g>
  </g>
  <g stroke-opacity="0.0" fill-opacity="0.5" stroke="#666666" stroke-width="0.0" fill="#5f0391">
    <rect height="0.8661758336942399" width="2.8798249066456227e-3" x="-0.7254782909199122" y="-0.4956691208315287"/>
  </g>
  <g stroke-opacity="0.5" stroke="#ac0505" stroke-width="2.0e-3" fill="none">
    <polyline points="-0.7145349562746587,-6.25812039844088e-2
0.4350911464582954,-6.25812039844088e-2"/>
  </g>
  <g stroke-opacity="0.5" stroke="#4b2282" stroke-width="7.0e-3" fill="none">
    <polyline points="-0.7145349562746587,-6.2238065983692636e-2
-0.7122310963493421,-6.1858751018860625e-2
-0.7099272364240256,-6.2029420817798386e-2
-0.707623376498709,-6.237765182151045e-2
-0.7053195165733925,-6.245259848570839e-2
-0.703015656648076,-6.242968908385038e-2
-0.7007117967227594,-6.256452411888358e-2
-0.6984079367974428,-6.313714427580797e-2
-0.6961040768721263,-6.305694327465261e-2
-0.6938002169468098,-6.281876752436788e-2
-0.6914963570214933,-6.260877390424335e-2
-0.6891924970961767,-6.256884123192952e-2
-0.6868886371708601,-6.261607420166038e-2
-0.6845847772455436,-6.211623537712263e-2
-0.6822809173202271,-6.217956224054e-2
-0.6799770573949105,-6.2122849471898056e-2
-0.677673197469594,-6.1255648190235545e-2
-0.6753693375442774,-6.0620114888291554e-2
-0.673065477618961,-6.161618863610485e-2
-0.6707616176936444,-6.1127556990076326e-2
-0.6684577577683278,-6.109644305339512e-2
-0.6661538978430113,-6.1588500209172725e-2
-0.6638500379176948,-6.09288132172392e-2
-0.6615461779923782,-6.138421392867144e-2
-0.6592423180670617,-6.178854960313063e-2
-0.6569384581417451,-6.202788083721844e-2
-0.6546345982164286,-6.135645419867297e-2
-0.6523307382911121,-6.150743326206076e-2
-0.6500268783657955,-6.2088278826653465e-2
-0.647723018440479,-6.1926973099528215e-2
-0.6454191585151624,-6.2215971653216906e-2
-0.6431152985898458,-6.212840324318203e-2
-0.6408114386645294,-6.241496867481455e-2
-0.6385075787392128,-6.278138259801502e-2
-0.6362037188138963,-6.278942948317046e-2
-0.6338998588885797,-6.256788433885996e-2
-0.6315959989632631,-6.225413949281988e-2
-0.6292921390379467,-6.226235898787469e-2
-0.6269882791126301,-6.177711454878421e-2
-0.6246844191873135,-6.187673069279753e-2
-0.622380559261997,-6.230750397120366e-2
-0.6200766993366804,-6.235561829649339e-2
-0.617772839411364,-6.204253431542528e-2
-0.6154689794860474,-6.216355692448472e-2
-0.6131651195607308,-6.188939983008135e-2
-0.6108612596354144,-6.182588784395204e-2
-0.6085573997100978,-6.240348442231314e-2
-0.6062535397847812,-6.25489958735923e-2
-0.6039496798594648,-6.253442572954238e-2
-0.6016458199341481,-6.294586143776115e-2
-0.5993419600088317,-6.331892903188618e-2
-0.5970381000835151,-6.334901911400981e-2
-0.5947342401581985,-6.334235127643828e-2
-0.592430380232882,-6.299123663747841e-2
-0.5901265203075654,-6.314459728343402e-2
-0.587822660382249,-6.306933569726736e-2
-0.5855188004569324,-6.291404227206121e-2
-0.5832149405316158,-6.323669832820111e-2
-0.5809110806062993,-6.304593362707234e-2
-0.5786072206809827,-6.316900993020824e-2
-0.5763033607556662,-6.303012103531946e-2
-0.5739995008303497,-6.28800068680172e-2
-0.5716956409050331,-6.2293245178124845e-2
-0.5693917809797165,-6.290806151828565e-2
-0.5670879210544,-6.257947897044913e-2
-0.5647840611290835,-6.305797046317363e-2
-0.562480201203767,-6.322172201991183e-2
-0.5601763412784504,-6.321318954440858e-2
-0.5578724813531338,-6.35566173995642e-2
-0.5555686214278173,-6.346681748448058e-2
-0.5532647615025008,-6.355584599636865e-2
-0.5509609015771842,-6.35459190490758e-2
-0.5486570416518677,-6.35685316724296e-2
-0.5463531817265511,-6.330763994583632e-2
-0.5440493218012346,-6.337899008466008e-2
-0.5417454618759181,-6.327348865914761e-2
-0.5394416019506015,-6.311582798548587e-2
-0.537137742025285,-6.286942532478546e-2
-0.5348338820999685,-6.292936032193985e-2
-0.5325300221746518,-6.257498603011447e-2
-0.5302261622493354,-6.265878284776394e-2
-0.5279223023240188,-6.20030716868597e-2
-0.5256184423987023,-6.21232556408593e-2
-0.5233145824733857,-6.176507362875816e-2
-0.5210107225480691,-6.2086662005347404e-2
-0.5187068626227527,-6.213604830907704e-2
-0.516403002697436,-6.229151497787466e-2
-0.5140991427721195,-6.207627685182404e-2
-0.5117952828468031,-6.250645459985527e-2
-0.5094914229214865,-6.288458706212807e-2
-0.50718756299617,-6.32435402449516e-2
-0.5048837030708534,-6.334993530607025e-2
-0.5025798431455368,-6.300174604112141e-2
-0.5002759832202204,-6.33412321975857e-2
-0.4979721232949038,-6.334164350334748e-2
-0.49566826336958725,-6.325311903300013e-2
-0.4933644034442707,-6.338284556729168e-2
-0.4910605435189542,-6.342862938327021e-2
-0.4887566835936376,-6.319962515765376e-2
-0.4864528236683211,-6.311667623507611e-2
-0.48414896374300453,-6.316388023704955e-2
-0.481845103817688,-6.3347003843094e-2
-0.47954124389237146,-6.3716210793615e-2
-0.4772373839670549,-6.351126051622291e-2
-0.47493352404173844,-6.315978036979797e-2
-0.47262966411642193,-6.28759655178025e-2
-0.47032580419110537,-6.306488859152304e-2
-0.4680219442657888,-6.29887237643384e-2
-0.46571808434047224,-6.317830320621642e-2
-0.46341422441515573,-6.334578421174364e-2
-0.46111036448983916,-6.34565865940041e-2
-0.45880650456452265,-6.353110121238814e-2
-0.4565026446392061,-6.346015512623171e-2
-0.4541987847138896,-6.333580605434685e-2
-0.45189492478857296,-6.295455922032345e-2
-0.44959106486325645,-6.27507374025168e-2
-0.44728720493793994,-6.302366523122371e-2
-0.4449833450126234,-6.267180626814628e-2
-0.4426794850873068,-6.299642262745364e-2
-0.4403756251619903,-6.310445897739991e-2
-0.4380717652366738,-6.31718452204244e-2
-0.4357679053113572,-6.322209593823858e-2
-0.43346404538604066,-6.316490090842208e-2
-0.4311601854607241,-6.305320200333797e-2
-0.4288563255354076,-6.329757183133577e-2
-0.426552465610091,-6.358623934295371e-2
-0.4242486056847745,-6.353999743913741e-2
-0.42194474575945795,-6.372906480493745e-2
-0.4196408858341414,-6.346878826138558e-2
-0.4173370259088248,-6.342267553808845e-2
-0.4150331659835083,-6.330025166540043e-2
-0.4127293060581918,-6.313305765751254e-2
-0.41042544613287524,-6.293857169428141e-2
-0.4081215862075587,-6.281699544286234e-2
-0.4058177262822421,-6.288189716853365e-2
-0.4035138663569256,-6.302909363650444e-2
-0.40121000643160903,-6.301412238068105e-2
-0.3989061465062925,-6.322942633817363e-2
-0.39660228658097596,-6.320041535190468e-2
-0.39429842665565945,-6.290551165554747e-2
-0.3919945667303429,-6.312199594540335e-2
-0.3896907068050263,-6.31423914028324e-2
-0.3873868468797098,-6.345264007035212e-2
-0.38508298695439325,-6.338740508121443e-2
-0.3827791270290768,-6.31888344298508e-2
-0.38047526710376023,-6.309685140571075e-2
-0.37817140717844366,-6.29239574535263e-2
-0.37586754725312715,-6.302028117640424e-2
-0.37356368732781053,-6.29914401638878e-2
-0.371259827402494,-6.312710122577014e-2
-0.3689559674771775,-6.307448146380767e-2
-0.36665210755186095,-6.307442651524364e-2
-0.3643482476265444,-6.268111352868144e-2
-0.3620443877012279,-6.2454004401627294e-2
-0.35974052777591137,-6.24395938875455e-2
-0.3574366678505948,-6.23845263075814e-2
-0.35513280792527824,-6.123102323999641e-2
-0.35282894799996173,-6.0696535157007125e-2
-0.3505250880746452,-6.116022701395718e-2
-0.34822122814932865,-6.104983694495858e-2
-0.3459173682240121,-6.173344206274667e-2
-0.3436135082986956,-6.174263083449416e-2
-0.34130964837337896,-6.137608226812552e-2
-0.3390057884480624,-6.140566310870521e-2
-0.3367019285227459,-6.132669664976098e-2
-0.3343980685974294,-6.1218034924627296e-2
-0.3320942086721128,-6.032699364948968e-2
-0.32979034874679625,-6.0928520159564625e-2
-0.32748648882147974,-6.0509305578285155e-2
-0.32518262889616323,-6.041468636263225e-2
-0.32287876897084666,-6.0934315470360434e-2
-0.3205749090455301,-6.12970996704878e-2
-0.3182710491202136,-6.163698377816429e-2
-0.3159671891948971,-6.148388187705278e-2
-0.3136633292695805,-6.1675912732491955e-2
-0.31135946934426395,-6.188093292311547e-2
-0.30905560941894744,-6.256928225894598e-2
-0.30675174949363093,-6.247555534073135e-2
-0.30444788956831437,-6.219823844283112e-2
-0.3021440296429978,-6.163031384432838e-2
-0.2998401697176813,-6.161621108208237e-2
-0.2975363097923648,-6.142200190314906e-2
-0.2952324498670482,-6.179442880484365e-2
-0.29292858994173165,-6.188691174576644e-2
-0.29062473001641514,-6.139083000050405e-2
-0.28832087009109864,-6.08686219622907e-2
-0.28601701016578207,-6.103466870469476e-2
-0.28371315024046545,-6.08921058686116e-2
-0.28140929031514894,-6.147375004623812e-2
-0.2791054303898324,-6.162157582236838e-2
-0.2768015704645158,-6.2430464556265775e-2
-0.2744977105391993,-6.236054643184186e-2
-0.2721938506138828,-6.2624640954838e-2
-0.26988999068856623,-6.297268906737574e-2
-0.26758613076324966,-6.19015285703185e-2
-0.26528227083793315,-6.187994090361715e-2
-0.26297841091261664,-6.117986152593058e-2
-0.2606745509873001,-6.129318379956816e-2
-0.2583706910619835,-6.13381716345327e-2
-0.256066831136667,-6.156277537879706e-2
-0.2537629712113504,-6.160061798934302e-2
-0.2514591112860338,-6.10085796365295e-2
-0.24915525136071737,-6.03911917932749e-2
-0.2468513914354008,-6.0495541419216536e-2
-0.24454753151008424,-6.008063869966762e-2
-0.24224367158476767,-5.966977525317774e-2
-0.2399398116594511,-5.910510525569124e-2
-0.23763595173413465,-5.833434685836658e-2
-0.2353320918088182,-6.008456657724581e-2
-0.23302823188350164,-6.042167463422721e-2
-0.23072437195818507,-6.046550615357926e-2
-0.2284205120328685,-6.079209930788343e-2
-0.22611665210755194,-6.089179917588161e-2
-0.22381279218223538,-6.0205307332520386e-2
-0.2215089322569188,-6.13662353537886e-2
-0.21920507233160236,-6.1605388036083175e-2
-0.2169012124062858,-6.1918047556308586e-2
-0.21459735248096923,-6.204857590988966e-2
-0.21229349255565277,-6.218887719808941e-2
-0.2099896326303362,-6.217848991065311e-2
-0.20768577270501964,-6.2006877056675735e-2
-0.20538191277970308,-6.237233175344381e-2
-0.20307805285438651,-6.243391465873116e-2
-0.20077419292907006,-6.26822566051779e-2
-0.1984703330037535,-6.312788518700418e-2
-0.19616647307843693,-6.259744664939182e-2
-0.19386261315312037,-6.265342455315959e-2
-0.1915587532278038,-6.267841574408295e-2
-0.18925489330248724,-6.297295778501e-2
-0.18695103337717067,-6.264170524721735e-2
-0.18464717345185422,-6.256191538766964e-2
-0.18234331352653765,-6.317175788419804e-2
-0.1800394536012211,-6.34614134293241e-2
-0.17773559367590464,-6.34324542064143e-2
-0.17543173375058807,-6.364557901169754e-2
-0.1731278738252714,-6.376518694782429e-2
-0.17082401389995483,-6.358797355089174e-2
-0.16852015397463838,-6.311892944278352e-2
-0.1662162940493218,-6.30968516315471e-2
-0.16391243412400536,-6.307718542092622e-2
-0.1616085741986888,-6.36200256458066e-2
-0.15930471427337234,-6.367802296597802e-2
-0.15700085434805577,-6.347618750578266e-2
-0.1546969944227392,-6.391444897137899e-2
-0.15239313449742264,-6.388924311088262e-2
-0.15008927457210608,-6.387816571953375e-2
-0.14778541464678963,-6.361264137312339e-2
-0.14548155472147306,-6.384524010614878e-2
-0.1431776947961565,-6.380965358158641e-2
-0.14087383487083993,-6.367328062100652e-2
-0.13856997494552337,-6.355478796471059e-2
-0.1362661150202068,-6.332347401335958e-2
-0.13396225509489024,-6.36193962656717e-2
-0.13165839516957378,-6.332731852131324e-2
-0.12935453524425722,-6.319390065759689e-2
-0.12705067531894065,-6.27891442269497e-2
-0.1247468153936242,-6.234033606402245e-2
-0.12244295546830763,-6.221368728197596e-2
-0.12013909554299107,-6.302672329672043e-2
-0.1178352356176745,-6.312359509015153e-2
-0.11553137569235794,-6.342015714083904e-2
-0.11322751576704149,-6.330756155856143e-2
-0.11092365584172492,-6.34982860350366e-2
-0.10861979591640836,-6.361423464237814e-2
-0.10631593599109179,-6.352441396976616e-2
-0.10401207606577523,-6.32908325942435e-2
-0.10170821614045866,-6.380943832986963e-2
-9.94043562151421e-2,-6.283451029358256e-2
-9.710049628982564e-2,-6.277063508474523e-2
-9.479663636450908e-2,-6.305911159617694e-2
-9.249277643919251e-2,-6.282315402066607e-2
-9.018891651387606e-2,-6.295244831893243e-2
-8.78850565885595e-2,-6.322036785679774e-2
-8.558119666324293e-2,-6.369282316743918e-2
-8.327733673792637e-2,-6.362261545432457e-2
-8.09734768126098e-2,-6.364885123771802e-2
-7.866961688729335e-2,-6.36715076465253e-2
-7.636575696197667e-2,-6.381214242799238e-2
-7.406189703666022e-2,-6.3778252394875e-2
-7.175803711134365e-2,-6.340956170771639e-2
-6.945417718602709e-2,-6.351209454797813e-2
-6.715031726071052e-2,-6.344532140760795e-2
-6.484645733539396e-2,-6.37048561373087e-2
-6.25425974100775e-2,-6.359415439731686e-2
-6.023873748476094e-2,-6.354422784502123e-2
-5.7934877559444375e-2,-6.335630127639602e-2
-5.563101763412792e-2,-6.3373016595629e-2
-5.332715770881136e-2,-6.335952952066248e-2
-5.10232977834949e-2,-6.376533693961117e-2
-4.871943785817834e-2,-6.356817895142752e-2
-4.641557793286177e-2,-6.34742209534006e-2
-4.411171800754521e-2,-6.364967051635861e-2
-4.1807858082228755e-2,-6.362512788426178e-2
-3.950399815691219e-2,-6.359503224589846e-2
-3.7200138231595625e-2,-6.312717564182346e-2
-3.489627830627917e-2,-6.297245664889073e-2
-3.259241838096261e-2,-6.34340887335707e-2
-3.0288558455646042e-2,-6.316448460196467e-2
-2.7984698530329366e-2,-6.2442967794114956e-2
-2.5680838605012912e-2,-6.237791032778928e-2
-2.3376978679696347e-2,-6.226164600585493e-2
-2.1073118754379783e-2,-6.241753411909712e-2
-1.876925882906333e-2,-6.1572989152892776e-2
-1.6465398903746764e-2,-6.1873016776894274e-2
-1.41615389784302e-2,-6.208471410721628e-2
-1.1857679053113634e-2,-6.239561204228927e-2
-9.55381912779707e-3,-6.220814949442133e-2
-7.249959202480616e-3,-6.199861398531181e-2
-4.946099277164051e-3,-6.230838528976235e-2
-2.6422393518474863e-3,-6.2217262226755166e-2
-3.383794265310325e-4,-6.1836644744775016e-2
1.9654804987856433e-3,-6.1907758562171566e-2
4.269340424102097e-3,-6.165188920291831e-2
6.573200349418773e-3,-6.14549548581701e-2
8.877060274735227e-3,-6.15760772429893e-2
1.1180920200051792e-2,-6.116300074456393e-2
1.3484780125368245e-2,-6.112945855256502e-2
1.578864005068481e-2,-6.198451983969011e-2
1.8092499976001264e-2,-6.2263715567714595e-2
2.039635990131794e-2,-6.246579899797888e-2
2.2700219826634616e-2,-6.280761310307759e-2
2.500407975195107e-2,-6.293751388993252e-2
2.7307939677267634e-2,-6.289942985231778e-2
2.9611799602584088e-2,-6.280725690904565e-2
3.191565952790065e-2,-6.292776768002017e-2
3.4219519453217107e-2,-6.284526492797737e-2
3.652337937853378e-2,-6.285531931904453e-2
3.8827239303850236e-2,-6.319840314991354e-2
4.113109922916691e-2,-6.326703658352162e-2
4.3434959154483366e-2,-6.358365221282114e-2
4.573881907979993e-2,-6.347814879927072e-2
4.8042679005116384e-2,-6.335827054026366e-2
5.034653893043295e-2,-6.295730656085552e-2
5.2650398855749625e-2,-6.288299659648078e-2
5.495425878106608e-2,-6.300615316317082e-2
5.7258118706382755e-2,-6.320333077597784e-2
5.956197863169921e-2,-6.347036724374011e-2
6.186583855701577e-2,-6.353172011457708e-2
6.416969848233223e-2,-6.378681926244656e-2
6.647355840764879e-2,-6.364207154314905e-2
6.877741833296525e-2,-6.338088794157959e-2
7.108127825828192e-2,-6.337965204078078e-2
7.338513818359838e-2,-6.351814844468628e-2
7.568899810891505e-2,-6.355519235836771e-2
7.79928580342315e-2,-6.369468711375437e-2
8.029671795954807e-2,-6.362993935314509e-2
8.260057788486463e-2,-6.340733828422973e-2
8.490443781018109e-2,-6.306474657484973e-2
8.720829773549776e-2,-6.318486946953406e-2
8.951215766081422e-2,-6.287581626785366e-2
9.18160175861309e-2,-6.297192818572173e-2
9.411987751144713e-2,-6.324934288158146e-2
9.64237374367638e-2,-6.34100451211157e-2
9.872759736208037e-2,-6.312722461329512e-2
0.10103145728739682,-6.341442001743414e-2
0.10333531721271338,-6.329158396322221e-2
0.10563917713802984,-6.313243494741316e-2
0.10794303706334651,-6.264855076667308e-2
0.11024689698866297,-6.2298560386158774e-2
0.11255075691397964,-6.203696014215654e-2
0.1148546168392961,-6.104259557938252e-2
0.11715847676461266,-6.1499813964316474e-2
0.11946233668992912,-6.155350532183479e-2
0.12176619661524568,-6.219481984159636e-2
0.12407005654056213,-6.2009162689062425e-2
0.1263739164658788,-6.1671414236467714e-2
0.12867777639119526,-6.216571253566039e-2
0.13098163631651194,-6.132050156126123e-2
0.1332854962418285,-6.143552963143628e-2
0.13558935616714496,-6.1891332971739876e-2
0.13789321609246152,-6.2258658035036274e-2
0.14019707601777798,-6.2036169390012885e-2
0.14250093594309465,-6.2287382026135485e-2
0.1448047958684111,-6.2269425992902416e-2
0.14710865579372778,-6.151119987839426e-2
0.14941251571904424,-6.186790955870791e-2
0.1517163756443608,-6.179497486161134e-2
0.15402023556967726,-6.2013559504446425e-2
0.15632409549499382,-6.2418281055973135e-2
0.15862795542031027,-6.242985529529588e-2
0.16093181534562695,-6.221378923878573e-2
0.16323567527094363,-6.256705419445174e-2
0.16553953519626008,-6.297978021722139e-2
0.16784339512157664,-6.297472105212143e-2
0.1701472550468931,-6.293792925338015e-2
0.17245111497220966,-6.291633363477778e-2
0.17475497489752612,-6.313621138742365e-2
0.1770588348228428,-6.319367433217227e-2
0.17936269474815925,-6.312206044237101e-2
0.18166655467347592,-6.296685570640703e-2
0.18397041459879238,-6.302751458416966e-2
0.18627427452410894,-6.300104497416315e-2
0.1885781344494254,-6.296303340599296e-2
0.19088199437474196,-6.273489701010448e-2
0.1931858543000584,-6.270514404353267e-2
0.1954897142253751,-6.234762184015297e-2
0.19779357415069176,-6.260409655384414e-2
0.20009743407600822,-6.248616195543455e-2
0.20240129400132478,-6.225491564457053e-2
0.20470515392664124,-6.247819442413072e-2
0.2070090138519578,-6.1974675255785816e-2
0.20931287377727426,-6.1326842926207714e-2
0.21161673370259093,-6.169059194504012e-2
0.21392059362790738,-6.228954568631295e-2
0.21622445355322406,-6.213131687713169e-2
0.21852831347854051,-6.15989832785101e-2
0.22083217340385708,-6.1968206210213816e-2
0.22313603332917353,-6.221797865306977e-2
0.2254398932544901,-6.26289481159219e-2
0.22774375317980677,-6.256596410194437e-2
0.23004761310512323,-6.292782766179439e-2
0.2323514730304399,-6.282755432364695e-2
0.23465533295575636,-6.290738364478432e-2
0.23695919288107292,-6.273234974543174e-2
0.23926305280638938,-6.298474922027508e-2
0.24156691273170594,-6.28150036233559e-2
0.2438707726570224,-6.2905950192365e-2
0.24617463258233885,-6.295618784073387e-2
0.24847849250765552,-6.309650439284797e-2
0.250782352432972,-6.329757917091328e-2
0.25308621235828865,-6.321194027467081e-2
0.2553900722836051,-6.330979655171376e-2
0.2576939322089218,-6.312307260985184e-2
0.259997792134238,-6.352505862269964e-2
0.2623016520595547,-6.362816917979441e-2
0.26460551198487114,-6.35058155069832e-2
0.2669093719101878,-6.347485233931005e-2
0.2692132318355043,-6.354099552248338e-2
0.27151709176082095,-6.359680016641023e-2
0.2738209516861374,-6.342863326483916e-2
0.27612481161145386,-6.344261755892189e-2
0.27842867153677053,-6.34127920480535e-2
0.280732531462087,-6.339057168160556e-2
0.28303639138740366,-6.373121167260654e-2
0.2853402513127201,-6.36751367495827e-2
0.2876441112380368,-6.356358468311174e-2
0.28994797116335325,-6.329221377208838e-2
0.2922518310886697,-6.315080770838166e-2
0.2945556910139864,-6.32144416987751e-2
0.29685955093930283,-6.356567374613142e-2
0.2991634108646193,-6.360738983943603e-2
0.30146727078993596,-6.375259767854669e-2
0.3037711307152524,-6.345418131063862e-2
0.3060749906405691,-6.296680699792001e-2
0.30837885056588554,-6.263911625999108e-2
0.3106827104912022,-6.291850929690512e-2
0.3129865704165187,-6.29550470857474e-2
0.3152904303418351,-6.334850516945145e-2
0.3175942902671518,-6.316312248252909e-2
0.31989815019246826,-6.307476180097316e-2
0.32220201011778493,-6.316782383698083e-2
0.3245058700431014,-6.351637263510346e-2
0.32680972996841806,-6.346151773708375e-2
0.3291135898937343,-6.372181561217238e-2
0.33141744981905097,-6.36676814342203e-2
0.3337213097443674,-6.35808957241144e-2
0.3360251696696841,-6.371967425546154e-2
0.3383290295950008,-6.387416869939766e-2
0.34063288952031723,-6.383351562117678e-2
0.3429367494456339,-6.374366819837762e-2
0.34524060937095014,-6.391209898460193e-2
0.3475444692962668,-6.382738241255825e-2
0.34984832922158327,-6.34670561539602e-2
0.35215218914689994,-6.354282064859462e-2
0.3544560490722164,-6.386507957350451e-2
0.35675990899753307,-6.347938484679694e-2
0.3590637689228495,-6.357141765478003e-2
0.361367628848166,-6.339704855842898e-2
0.36367148877348265,-6.355283963096536e-2
0.3659753486987991,-6.377414745221566e-2
0.36827920862411556,-6.358722280020868e-2
0.37058306854943224,-6.381669140713486e-2
0.3728869284747489,-6.368515057935853e-2
0.37519078840006537,-6.369898122608697e-2
0.3774946483253818,-6.398303925907256e-2
0.3797985082506985,-6.406267158762813e-2
0.38210236817601495,-6.386796968639918e-2
0.3844062281013314,-6.380699468849049e-2
0.3867100880266481,-6.378392287566348e-2
0.38901394795196453,-6.333423526074489e-2
0.391317807877281,-6.272167902510395e-2
0.39362166780259766,-6.30391505980179e-2
0.3959255277279141,-6.298825745700798e-2
0.39822938765323057,-6.30660183679922e-2
0.40053324757854725,-6.246867055324756e-2
0.4028371075038639,-6.268679867251747e-2
0.40514096742918015,-6.314480705608283e-2
0.40744482735449705,-6.345293401237884e-2
0.4097486872798133,-6.350274617146412e-2
0.4120525472051302,-6.330147259783081e-2
0.4143564071304464,-6.348549946303295e-2
0.4166602670557631,-6.34878093044563e-2
0.4189641269810793,-6.364157166076967e-2
0.4212679869063962,-6.353528958541743e-2
0.42357184683171245,-6.354122265257345e-2
0.42587570675702935,-6.339554253644542e-2
0.4281795666823456,-6.350693146068942e-2
0.43048342660766226,-6.332948725815679e-2
0.4327872865329787,-6.294403559323936e-2
0.4350911464582954,-6.181329622135012e-2"/>
  </g>
  <g stroke-opacity="0.5" stroke="#431712" stroke-width="7.0e-3" fill="none">
    <polyline points="-0.7145349562746587,-6.295343726570257e-2
-0.7122310963493421,-6.287481255735994e-2
-0.7099272364240256,-6.290095637580162e-2
-0.707623376498709,-6.296056974257813e-2
-0.7053195165733925,-6.297215692844726e-2
-0.703015656648076,-6.29660012098553e-2
-0.7007117967227594,-6.298797052924698e-2
-0.6984079367974428,-6.308472617370064e-2
-0.6961040768721263,-6.307288102692832e-2
-0.6938002169468098,-6.303238229312136e-2
-0.6914963570214933,-6.299580204171273e-2
-0.6891924970961767,-6.29876662699711e-2
-0.6868886371708601,-6.299382343407456e-2
-0.6845847772455436,-6.290826687136963e-2
-0.6822809173202271,-6.291403067442658e-2
-0.6799770573949105,-6.290062492402826e-2
-0.677673197469594,-6.27482367148815e-2
-0.6753693375442774,-6.262326601965529e-2
-0.673065477618961,-6.277370897464118e-2
-0.6707616176936444,-6.267353937246722e-2
-0.6684577577683278,-6.265702070524426e-2
-0.6661538978430113,-6.273292894512839e-2
-0.6638500379176948,-6.26024204235841e-2
-0.6615461779923782,-6.267204822498285e-2
-0.6592423180670617,-6.273551810408473e-2
-0.6569384581417451,-6.277257274374726e-2
-0.6546345982164286,-6.264534547868705e-2
-0.6523307382911121,-6.26638321199281e-2
-0.6500268783657955,-6.275577352979345e-2
-0.647723018440479,-6.272365466831897e-2
-0.6454191585151624,-6.276854018301237e-2
-0.6431152985898458,-6.27509863638811e-2
-0.6408114386645294,-6.279502146063509e-2
-0.6385075787392128,-6.285303054034563e-2
-0.6362037188138963,-6.28553242233838e-2
-0.6338998588885797,-6.282061338492007e-2
-0.6315959989632631,-6.277015719026624e-2
-0.6292921390379467,-6.276902433876286e-2
-0.6269882791126301,-6.269063246283102e-2
-0.6246844191873135,-6.270046820994069e-2
-0.622380559261997,-6.27588128462182e-2
-0.6200766993366804,-6.276381850393298e-2
-0.617772839411364,-6.271526527045213e-2
-0.6154689794860474,-6.272898077763489e-2
-0.6131651195607308,-6.268622369723575e-2
-0.6108612596354144,-6.267264520659721e-2
-0.6085573997100978,-6.27457008703638e-2
-0.6062535397847812,-6.27644506540872e-2
-0.6039496798594648,-6.276148859360975e-2
-0.6016458199341481,-6.281630909322711e-2
-0.5993419600088317,-6.28689284293591e-2
-0.5970381000835151,-6.287634577438794e-2
-0.5947342401581985,-6.287888026047161e-2
-0.592430380232882,-6.283583059604136e-2
-0.5901265203075654,-6.28575634605909e-2
-0.587822660382249,-6.285002463146105e-2
-0.5855188004569324,-6.283195712039735e-2
-0.5832149405316158,-6.287384076488689e-2
-0.5809110806062993,-6.285239454462688e-2
-0.5786072206809827,-6.286947589825809e-2
-0.5763033607556662,-6.285463270075331e-2
-0.5739995008303497,-6.283785717412871e-2
-0.5716956409050331,-6.276474475135563e-2
-0.5693917809797165,-6.284018761009946e-2
-0.5670879210544,-6.279596166826473e-2
-0.5647840611290835,-6.286003145500152e-2
-0.562480201203767,-6.288476044920899e-2
-0.5601763412784504,-6.288624707761514e-2
-0.5578724813531338,-6.293606175594169e-2
-0.5555686214278173,-6.292831648131991e-2
-0.5532647615025008,-6.294434911913227e-2
-0.5509609015771842,-6.294751573582369e-2
-0.5486570416518677,-6.295487294260138e-2
-0.5463531817265511,-6.292608070373107e-2
-0.5440493218012346,-6.293830309931425e-2
-0.5417454618759181,-6.292843101336876e-2
-0.5394416019506015,-6.291158530612284e-2
-0.537137742025285,-6.288275130377385e-2
-0.5348338820999685,-6.289077960694112e-2
-0.5325300221746518,-6.284697471829359e-2
-0.5302261622493354,-6.285639209610216e-2
-0.5279223023240188,-6.276453228152601e-2
-0.5256184423987023,-6.277697467193977e-2
-0.5233145824733857,-6.271928103660473e-2
-0.5210107225480691,-6.275789239766227e-2
-0.5187068626227527,-6.276113067279554e-2
-0.516403002697436,-6.277939490622142e-2
-0.5140991427721195,-6.274502893278489e-2
-0.5117952828468031,-6.279999490704746e-2
-0.5094914229214865,-6.285358726966916e-2
-0.50718756299617,-6.290899208636824e-2
-0.5048837030708534,-6.292864364725681e-2
-0.5025798431455368,-6.287825050129814e-2
-0.5002759832202204,-6.293330810671505e-2
-0.4979721232949038,-6.293697455572078e-2
-0.49566826336958725,-6.292658102442306e-2
-0.4933644034442707,-6.294974179679291e-2
-0.4910605435189542,-6.296057062154681e-2
-0.4887566835936376,-6.293004569878691e-2
-0.4864528236683211,-6.292008457045262e-2
-0.48414896374300453,-6.292916489371392e-2
-0.481845103817688,-6.295836221453732e-2
-0.47954124389237146,-6.301713844914925e-2
-0.4772373839670549,-6.299186953661828e-2
-0.47493352404173844,-6.294241135438039e-2
-0.47262966411642193,-6.289894735286616e-2
-0.47032580419110537,-6.292950048076484e-2
-0.4680219442657888,-6.291867180566646e-2
-0.46571808434047224,-6.29495809240258e-2
-0.46341422441515573,-6.297831289566358e-2
-0.46111036448983916,-6.299908052848135e-2
-0.45880650456452265,-6.301468388543274e-2
-0.4565026446392061,-6.30082927936344e-2
-0.4541987847138896,-6.299352581399431e-2
-0.45189492478857296,-6.29382274737389e-2
-0.44959106486325645,-6.290572474386424e-2
-0.44728720493793994,-6.294821383152127e-2
-0.4449833450126234,-6.28895536866102e-2
-0.4426794850873068,-6.294330236925505e-2
-0.4403756251619903,-6.296338577564964e-2
-0.4380717652366738,-6.297687683292807e-2
-0.4357679053113572,-6.298768318717551e-2
-0.43346404538604066,-6.298041311608693e-2
-0.4311601854607241,-6.296369047680739e-2
-0.4288563255354076,-6.300527063311445e-2
-0.426552465610091,-6.305739419746648e-2
-0.4242486056847745,-6.305428067262031e-2
-0.42194474575945795,-6.309155061291905e-2
-0.4196408858341414,-6.305307492475676e-2
-0.4173370259088248,-6.30489701869239e-2
-0.4150331659835083,-6.303146489350486e-2
-0.4127293060581918,-6.300540355769657e-2
-0.41042544613287524,-6.29730896597841e-2
-0.4081215862075587,-6.295191455375926e-2
-0.4058177262822421,-6.296219985824214e-2
-0.4035138663569256,-6.29865505117716e-2
-0.40121000643160903,-6.298472454960491e-2
-0.3989061465062925,-6.30209890501382e-2
-0.39660228658097596,-6.301817632878359e-2
-0.39429842665565945,-6.296991509614991e-2
-0.3919945667303429,-6.300730440252011e-2
-0.3896907068050263,-6.301224820611995e-2
-0.3873868468797098,-6.306884501577215e-2
-0.38508298695439325,-6.306047899183309e-2
-0.3827791270290768,-6.30273784134947e-2
-0.38047526710376023,-6.301197428679894e-2
-0.37817140717844366,-6.298093237303215e-2
-0.37586754725312715,-6.299826393771857e-2
-0.37356368732781053,-6.29933503446427e-2
-0.371259827402494,-6.301776841678364e-2
-0.3689559674771775,-6.300947524967238e-2
-0.36665210755186095,-6.301020317767048e-2
-0.3643482476265444,-6.293883879682971e-2
-0.3620443877012279,-6.288990301882713e-2
-0.35974052777591137,-6.288288712482437e-2
-0.3574366678505948,-6.286760224384569e-2
-0.35513280792527824,-6.260505179158438e-2
-0.35282894799996173,-6.245801915922311e-2
-0.3505250880746452,-6.255928478998318e-2
-0.34822122814932865,-6.251822217273506e-2
-0.3459173682240121,-6.266999142327889e-2
-0.3436135082986956,-6.266692165613763e-2
-0.34130964837337896,-6.256864014526542e-2
-0.3390057884480624,-6.256587480320941e-2
-0.3367019285227459,-6.253655686423121e-2
-0.3343980685974294,-6.249922549060383e-2
-0.3320942086721128,-6.2289815560204964e-2
-0.32979034874679625,-6.241301438960711e-2
-0.32748648882147974,-6.230358866651853e-2
-0.32518262889616323,-6.2264323305495806e-2
-0.32287876897084666,-6.2366318158105116e-2
-0.3205749090455301,-6.243637749557096e-2
-0.3182710491202136,-6.250394615376487e-2
-0.3159671891948971,-6.246449361675965e-2
-0.3136633292695805,-6.250047882323895e-2
-0.31135946934426395,-6.254043002982723e-2
-0.30905560941894744,-6.267712042824425e-2
-0.30675174949363093,-6.265993142315418e-2
-0.30444788956831437,-6.260111153638115e-2
-0.3021440296429978,-6.2476929831880135e-2
-0.2998401697176813,-6.246824939273976e-2
-0.2975363097923648,-6.242160839570188e-2
-0.2952324498670482,-6.2489182051288616e-2
-0.29292858994173165,-6.250353203545322e-2
-0.29062473001641514,-6.239900289305289e-2
-0.28832087009109864,-6.228606863382524e-2
-0.28601701016578207,-6.2307406205978855e-2
-0.28371315024046545,-6.226876048028129e-2
-0.28140929031514894,-6.2368159859008454e-2
-0.2791054303898324,-6.2390082596145535e-2
-0.2768015704645158,-6.253566058148807e-2
-0.2744977105391993,-6.252219882171528e-2
-0.2721938506138828,-6.25729070073695e-2
-0.26988999068856623,-6.264058992713484e-2
-0.26758613076324966,-6.243816097974164e-2
-0.26528227083793315,-6.242997471605005e-2
-0.26297841091261664,-6.22881014423845e-2
-0.2606745509873001,-6.2301137753662306e-2
-0.2583706910619835,-6.2301391475350965e-2
-0.256066831136667,-6.233635616688782e-2
-0.2537629712113504,-6.2337185733528866e-2
-0.2514591112860338,-6.222151652568442e-2
-0.24915525136071737,-6.209630144328848e-2
-0.2468513914354008,-6.210131095127813e-2
-0.24454753151008424,-6.201114398582064e-2
-0.24224367158476767,-6.191936355259153e-2
-0.2399398116594511,-6.179733422596345e-2
-0.23763595173413465,-6.163320175148168e-2
-0.2353320918088182,-6.191811449062534e-2
-0.23302823188350164,-6.197215856688687e-2
-0.23072437195818507,-6.197026686702889e-2
-0.2284205120328685,-6.202371497116821e-2
-0.22611665210755194,-6.203561168475569e-2
-0.22381279218223538,-6.18939012944244e-2
-0.2215089322569188,-6.209336243253538e-2
-0.21920507233160236,-6.213672021750827e-2
-0.2169012124062858,-6.219495925582208e-2
-0.21459735248096923,-6.2220917016486355e-2
-0.21229349255565277,-6.2249076267023695e-2
-0.2099896326303362,-6.2250322586909324e-2
-0.20768577270501964,-6.222221784487114e-2
-0.20538191277970308,-6.228648445001905e-2
-0.20307805285438651,-6.2301019331367335e-2
-0.20077419292907006,-6.2346657982171094e-2
-0.1984703330037535,-6.242485566537603e-2
-0.19616647307843693,-6.234319171612468e-2
-0.19386261315312037,-6.2357151666313615e-2
-0.1915587532278038,-6.2366181700000856e-2
-0.18925489330248724,-6.2417066791082054e-2
-0.18695103337717067,-6.237147805603949e-2
-0.18464717345185422,-6.2363767504955425e-2
-0.18234331352653765,-6.245764412886745e-2
-0.1800394536012211,-6.250879472406279e-2
-0.17773559367590464,-6.251356569208011e-2
-0.17543173375058807,-6.255354168799077e-2
-0.1731278738252714,-6.258076350276665e-2
-0.17082401389995483,-6.256615392175868e-2
-0.16852015397463838,-6.250911452061825e-2
-0.1662162940493218,-6.251266068453865e-2
-0.16391243412400536,-6.251639212221638e-2
-0.1616085741986888,-6.259526430104645e-2
-0.15930471427337234,-6.261232625294189e-2
-0.15700085434805577,-6.259457190350992e-2
-0.1546969944227392,-6.266081581927885e-2
-0.15239313449742264,-6.266797601939489e-2
-0.15008927457210608,-6.267682931127316e-2
-0.14778541464678963,-6.26528020884517e-2
-0.14548155472147306,-6.269108040330007e-2
-0.1431776947961565,-6.269641342712262e-2
-0.14087383487083993,-6.268901587981945e-2
-0.13856997494552337,-6.268322129929393e-2
-0.1362661150202068,-6.266306367734487e-2
-0.13396225509489024,-6.270528143580256e-2
-0.13165839516957378,-6.267808308716838e-2
-0.12935453524425722,-6.266858111143603e-2
-0.12705067531894065,-6.262469076544508e-2
-0.1247468153936242,-6.257088705647895e-2
-0.12244295546830763,-6.255593520574387e-2
-0.12013909554299107,-6.265226523001977e-2
-0.1178352356176745,-6.266959359520041e-2
-0.11553137569235794,-6.271327455424691e-2
-0.11322751576704149,-6.270503143960549e-2
-0.11092365584172492,-6.273559008175433e-2
-0.10861979591640836,-6.27574193122854e-2
-0.10631593599109179,-6.275353517895588e-2
-0.10401207606577523,-6.273098496260465e-2
-0.10170821614045866,-6.280209216116028e-2
-9.94043562151421e-2,-6.267445262005855e-2
-9.710049628982564e-2,-6.26667538832385e-2
-9.479663636450908e-2,-6.271309121297675e-2
-9.249277643919251e-2,-6.267964977774332e-2
-9.018891651387606e-2,-6.270171365596999e-2
-8.78850565885595e-2,-6.27451864950983e-2
-8.558119666324293e-2,-6.282192962737021e-2
-8.327733673792637e-2,-6.281845195192504e-2
-8.09734768126098e-2,-6.282954411208541e-2
-7.866961688729335e-2,-6.284014767837942e-2
-7.636575696197667e-2,-6.286840346581812e-2
-7.406189703666022e-2,-6.287153979860116e-2
-7.175803711134365e-2,-6.282567908134373e-2
-6.945417718602709e-2,-6.284630342344188e-2
-6.715031726071052e-2,-6.284266473463351e-2
-6.484645733539396e-2,-6.288564202453839e-2
-6.25425974100775e-2,-6.287689760513837e-2
-6.023873748476094e-2,-6.287626519336509e-2
-5.7934877559444375e-2,-6.285588928054608e-2
-5.563101763412792e-2,-6.286314776920032e-2
-5.332715770881136e-2,-6.28662862885575e-2
-5.10232977834949e-2,-6.29267640159148e-2
-4.871943785817834e-2,-6.29061832543969e-2
-4.641557793286177e-2,-6.289890826490008e-2
-4.411171800754521e-2,-6.292880567028747e-2
-4.1807858082228755e-2,-6.293182022226085e-2
-3.950399815691219e-2,-6.29339387432799e-2
-3.7200138231595625e-2,-6.287410624864198e-2
-3.489627830627917e-2,-6.285407989167136e-2
-3.259241838096261e-2,-6.292272910923402e-2
-3.0288558455646042e-2,-6.288484588966015e-2
-2.7984698530329366e-2,-6.276015138355728e-2
-2.5680838605012912e-2,-6.274519527382993e-2
-2.3376978679696347e-2,-6.271989396466959e-2
-2.1073118754379783e-2,-6.27450221318383e-2
-1.876925882906333e-2,-6.256806563173933e-2
-1.6465398903746764e-2,-6.26257710492516e-2
-1.41615389784302e-2,-6.266685433929309e-2
-1.1857679053113634e-2,-6.27303926505629e-2
-9.55381912779707e-3,-6.268538906966148e-2
-7.249959202480616e-3,-6.263414991408334e-2
-4.946099277164051e-3,-6.269542411443585e-2
-2.6422393518474863e-3,-6.267237762518563e-2
-3.383794265310325e-4,-6.258377403510407e-2
1.9654804987856433e-3,-6.259249594182781e-2
4.269340424102097e-3,-6.252998565095791e-2
6.573200349418773e-3,-6.2478651077706115e-2
8.877060274735227e-3,-6.249407544488039e-2
1.1180920200051792e-2,-6.239729438334063e-2
1.3484780125368245e-2,-6.237753582174932e-2
1.578864005068481e-2,-6.254211048065939e-2
1.8092499976001264e-2,-6.260138015985561e-2
2.039635990131794e-2,-6.264511188152522e-2
2.2700219826634616e-2,-6.272102213574604e-2
2.500407975195107e-2,-6.275273211868948e-2
2.7307939677267634e-2,-6.274734853262032e-2
2.9611799602584088e-2,-6.272959798108069e-2
3.191565952790065e-2,-6.275746741473465e-2
3.4219519453217107e-2,-6.274262344560255e-2
3.652337937853378e-2,-6.274684190693391e-2
3.8827239303850236e-2,-6.28177692540145e-2
4.113109922916691e-2,-6.28367375846961e-2
4.3434959154483366e-2,-6.290512055877695e-2
4.573881907979993e-2,-6.289127502652048e-2
4.8042679005116384e-2,-6.287394071032637e-2
5.034653893043295e-2,-6.279841840829781e-2
5.2650398855749625e-2,-6.27857434401774e-2
5.495425878106608e-2,-6.281184098567094e-2
5.7258118706382755e-2,-6.285275961366577e-2
5.956197863169921e-2,-6.290829579891921e-2
6.186583855701577e-2,-6.292645051684587e-2
6.416969848233223e-2,-6.298154659947397e-2
6.647355840764879e-2,-6.296239687316829e-2
6.877741833296525e-2,-6.291996326774463e-2
7.108127825828192e-2,-6.292501483962964e-2
7.338513818359838e-2,-6.295584736300519e-2
7.568899810891505e-2,-6.296886573789506e-2
7.79928580342315e-2,-6.300038826337073e-2
8.029671795954807e-2,-6.29963021406742e-2
8.260057788486463e-2,-6.296380080542274e-2
8.490443781018109e-2,-6.290677914587117e-2
8.720829773549776e-2,-6.293099639522048e-2
8.951215766081422e-2,-6.287686018129801e-2
9.18160175861309e-2,-6.289541930835774e-2
9.411987751144713e-2,-6.29466828120433e-2
9.64237374367638e-2,-6.297981130408337e-2
9.872759736208037e-2,-6.293193588528245e-2
0.10103145728739682,-6.298762227819743e-2
0.10333531721271338,-6.296903872540605e-2
0.10563917713802984,-6.294272321120264e-2
0.10794303706334651,-6.284945792983099e-2
0.11024689698866297,-6.277287162409584e-2
0.11255075691397964,-6.271098813264575e-2
0.1148546168392961,-6.2478351769729934e-2
0.11715847676461266,-6.257914081007188e-2
0.11946233668992912,-6.258381175655636e-2
0.12176619661524568,-6.272844170942427e-2
0.12407005654056213,-6.267691459648583e-2
0.1263739164658788,-6.25842093661968e-2
0.12867777639119526,-6.269759545191023e-2
0.13098163631651194,-6.248628855201277e-2
0.1332854962418285,-6.25036674131676e-2
0.13558935616714496,-6.260695973454355e-2
0.13789321609246152,-6.269188724340236e-2
0.14019707601777798,-6.263475614660197e-2
0.14250093594309465,-6.269170599424023e-2
0.1448047958684111,-6.268612979272681e-2
0.14710865579372778,-6.25045658291683e-2
0.14941251571904424,-6.258055893656878e-2
0.1517163756443608,-6.255776482525255e-2
0.15402023556967726,-6.260250919502208e-2
0.15632409549499382,-6.26901069009238e-2
0.15862795542031027,-6.269260734389182e-2
0.16093181534562695,-6.264308798089424e-2
0.16323567527094363,-6.271766373478904e-2
0.16553953519626008,-6.280683485479888e-2
0.16784339512157664,-6.281007268823591e-2
0.1701472550468931,-6.280630230103901e-2
0.17245111497220966,-6.280546834790735e-2
0.17475497489752612,-6.28535302007519e-2
0.1770588348228428,-6.28702999779237e-2
0.17936269474815925,-6.286141957161095e-2
0.18166655467347592,-6.283549132656363e-2
0.18397041459879238,-6.285055885307556e-2
0.18627427452410894,-6.28494281837998e-2
0.1885781344494254,-6.284597761199961e-2
0.19088199437474196,-6.28070538990827e-2
0.1931858543000584,-6.280315871674602e-2
0.1954897142253751,-6.273891764622574e-2
0.19779357415069176,-6.278174985089968e-2
0.20009743407600822,-6.276101602885131e-2
0.20240129400132478,-6.271926381117154e-2
0.20470515392664124,-6.275446284089514e-2
0.2070090138519578,-6.26618618467214e-2
0.20931287377727426,-6.253014366708742e-2
0.21161673370259093,-6.258822631760641e-2
0.21392059362790738,-6.269217493983281e-2
0.21622445355322406,-6.26578970191517e-2
0.21852831347854051,-6.254466138597004e-2
0.22083217340385708,-6.261024968545004e-2
0.22313603332917353,-6.265558761541445e-2
0.2254398932544901,-6.273372065307559e-2
0.22774375317980677,-6.272137901227404e-2
0.23004761310512323,-6.279186354474409e-2
0.2323514730304399,-6.27744748948934e-2
0.23465533295575636,-6.279186633252432e-2
0.23695919288107292,-6.276035139678604e-2
0.23926305280638938,-6.280843710823414e-2
0.24156691273170594,-6.277913273025415e-2
0.2438707726570224,-6.279738685248304e-2
0.24617463258233885,-6.280864040315604e-2
0.24847849250765552,-6.28359689997714e-2
0.250782352432972,-6.287451863796345e-2
0.25308621235828865,-6.286444297309612e-2
0.2553900722836051,-6.288533113662897e-2
0.2576939322089218,-6.285849712714497e-2
0.259997792134238,-6.292889300011939e-2
0.2623016520595547,-6.295275167132852e-2
0.26460551198487114,-6.293904489716295e-2
0.2669093719101878,-6.293990676498373e-2
0.2692132318355043,-6.295645142300721e-2
0.27151709176082095,-6.297159005863018e-2
0.2738209516861374,-6.295140835800583e-2
0.27612481161145386,-6.295892861645791e-2
0.27842867153677053,-6.295969497804399e-2
0.280732531462087,-6.296145304300094e-2
0.28303639138740366,-6.301795066764715e-2
0.2853402513127201,-6.301648365890211e-2
0.2876441112380368,-6.300627800010794e-2
0.28994797116335325,-6.297082948227228e-2
0.2922518310886697,-6.295305452634703e-2
0.2945556910139864,-6.296577825265404e-2
0.29685955093930283,-6.302201065355861e-2
0.2991634108646193,-6.303427543982265e-2
0.30146727078993596,-6.306269136858778e-2
0.3037711307152524,-6.302383280384272e-2
0.3060749906405691,-6.294770230081148e-2
0.30837885056588554,-6.288875830945695e-2
0.3106827104912022,-6.293655736129888e-2
0.3129865704165187,-6.294411602851668e-2
0.3152904303418351,-6.301502841470485e-2
0.3175942902671518,-6.298347927007031e-2
0.31989815019246826,-6.296916004170616e-2
0.32220201011778493,-6.298819940464839e-2
0.3245058700431014,-6.305462817286744e-2
0.32680972996841806,-6.304921577494615e-2
0.3291135898937343,-6.310317746147454e-2
0.33141744981905097,-6.30994463764587e-2
0.3337213097443674,-6.308928249776413e-2
0.3360251696696841,-6.312056413884337e-2
0.3383290295950008,-6.315574540929547e-2
0.34063288952031723,-6.315594139921221e-2
0.3429367494456339,-6.314706633669032e-2
0.34524060937095014,-6.318397648153684e-2
0.3475444692962668,-6.317672684825959e-2
0.34984832922158327,-6.311936064655921e-2
0.35215218914689994,-6.313793913926069e-2
0.3544560490722164,-6.320360738942732e-2
0.35675990899753307,-6.313478948726992e-2
0.3590637689228495,-6.315829981638277e-2
0.361367628848166,-6.312667748595302e-2
0.36367148877348265,-6.316237717867823e-2
0.3659753486987991,-6.321309109350681e-2
0.36827920862411556,-6.318022992029904e-2
0.37058306854943224,-6.32337405759581e-2
0.3728869284747489,-6.32123010659904e-2
0.37519078840006537,-6.322078557986166e-2
0.3774946483253818,-6.32865290509268e-2
0.3797985082506985,-6.331181978170342e-2
0.38210236817601495,-6.327926987447363e-2
0.3844062281013314,-6.327309985644836e-2
0.3867100880266481,-6.327456545072518e-2
0.38901394795196453,-6.318492906621087e-2
0.391317807877281,-6.303907249903495e-2
0.39362166780259766,-6.312007005895326e-2
0.3959255277279141,-6.310577995013589e-2
0.39822938765323057,-6.312608575574441e-2
0.40053324757854725,-6.29683890193381e-2
0.4028371075038639,-6.302414580102766e-2
0.40514096742918015,-6.314420043429525e-2
0.40744482735449705,-6.322996971664496e-2
0.4097486872798133,-6.324951983570792e-2
0.4120525472051302,-6.319738147964549e-2
0.4143564071304464,-6.325021950235288e-2
0.4166602670557631,-6.325622192735803e-2
0.4189641269810793,-6.330157754299881e-2
0.4212679869063962,-6.327964972466649e-2
0.42357184683171245,-6.328670439827e-2
0.42587570675702935,-6.325398482098354e-2
0.4281795666823456,-6.3285301313741e-2
0.43048342660766226,-6.324488039334786e-2
0.4327872865329787,-6.314874189676234e-2
0.4350911464582954,-6.287135877684435e-2"/>
  </g>
  <g stroke-opacity="0.5" fill-opacity="1.0" stroke="#3764a0" stroke-width="4.0e-3" fill="#ffffff">
    <rect height="0.1342572542226072" width="0.19784397108655827" x="0.5394847993242009" y="-6.74465492280435e-2"/>
  </g>
  <g fill-opacity="1.0" font-size="4.000000000000001e-2" stroke="none" stroke-width="0.0" fill="#666666" text-anchor="start">
    <text x="0.5510040989507838" y="3.1297495813099874e-2">rate = 0.99
    </text>
  </g>
  <g stroke-opacity="0.5" stroke="#431712" stroke-width="6.999999999999999e-3" fill="none">
    <polyline points="0.7007549940963589,2.5580735310717917e-2
0.7237935933495243,2.5580735310717917e-2"/>
  </g>
  <g fill-opacity="1.0" font-size="4.000000000000001e-2" stroke="none" stroke-width="0.0" fill="#666666" text-anchor="start">
    <text x="0.5510040989507838" y="-1.8074526707471894e-2">rate = 0.95
    </text>
  </g>
  <g stroke-opacity="0.5" stroke="#4b2282" stroke-width="6.999999999999999e-3" fill="none">
    <polyline points="0.7007549940963589,-2.3791287209853795e-2
0.7237935933495243,-2.3791287209853795e-2"/>
  </g>
</svg>