
<svg xmlns="http://www.w3.org/2000/svg" height="300.0" viewBox="-0.9104277680948124 -0.7283312039844088 1.7014318670455961 1.461347121816856" width="450.0" xmlns:xlink="http://www.w3.org/1999/xlink">
  <g transform="translate(-8.219640591007693e-2, -0.57175)" fill-opacity="1.0" font-size="8.0e-2" stroke="none" stroke-width="0.0" fill="#000000" text-anchor="middle">
    <text transform="rotate(0.0, -0.14087383487083993, -6.25812039844088e-2)" x="-0.14087383487083993" y="-6.25812039844088e-2">std beta
    </text>
  </g>
  <g stroke-opacity="0.0" fill-opacity="3.0e-2" stroke="#000000" stroke-width="0.0" fill="#666666">
    <rect height="0.8661758336942399" width="1.1519299626582706" x="-0.7168388161999752" y="-0.4956691208315287"/>
  </g>
  <g stroke-opacity="0.3" stroke="#a8e5ee" stroke-width="5.0e-3" fill="none">
    <polyline points="-0.7145349562746587,0.3748375920311824
-0.7145349562746587,-0.5"/>
  </g>
  <g stroke-opacity="0.3" stroke="#a8e5ee" stroke-width="5.0e-3" fill="none">
    <polyline points="-0.6661538978430113,0.3748375920311824
-0.6661538978430113,-0.5"/>
  </g>
  <g stroke-opacity="0.3" stroke="#a8e5ee" stroke-width="5.0e-3" fill="none">
    <polyline points="-0.5187068626227527,0.3748375920311824
-0.5187068626227527,-0.5"/>
  </g>
  <g stroke-opacity="0.3" stroke="#a8e5ee" stroke-width="5.0e-3" fill="none">
    <polyline points="-0.37356368732781053,0.3748375920311824
-0.37356368732781053,-0.5"/>
  </g>
  <g stroke-opacity="0.3" stroke="#a8e5ee" stroke-width="5.0e-3" fill="none">
    <polyline points="-0.2284205120328685,0.3748375920311824
-0.2284205120328685,-0.5"/>
  </g>
  <g stroke-opacity="0.3" stroke="#a8e5ee" stroke-width="5.0e-3" fill="none">
    <polyline points="-8.78850565885595e-2,0.3748375920311824
-8.78850565885595e-2,-0.5"/>
  </g>
  <g stroke-opacity="0.3" stroke="#a8e5ee" stroke-width="5.0e-3" fill="none">
    <polyline points="5.7258118706382755e-2,0.3748375920311824
5.7258118706382755e-2,-0.5"/>
  </g>
  <g stroke-opacity="0.3" stroke="#a8e5ee" stroke-width="5.0e-3" fill="none">
    <polyline points="0.20470515392664124,0.3748375920311824
0.20470515392664124,-0.5"/>
  </g>
  <g stroke-opacity="0.3" stroke="#a8e5ee" stroke-width="5.0e-3" fill="none">
    <polyline points="0.35215218914689994,0.3748375920311824
0.35215218914689994,-0.5"/>
  </g>
  <g stroke-opacity="0.3" stroke="#a8e5ee" stroke-width="5.0e-3" fill="none">
    <polyline points="0.4350911464582954,0.3748375920311824
0.4350911464582954,-0.5"/>
  </g>
  <g fill-opacity="1.0" font-size="5.0e-2" stroke="none" stroke-width="0.0" fill="#666666" text-anchor="end">
    <text transform="rotate(-45.0, -0.7145349562746587, 0.5)" x="-0.7145349562746587" y="0.5">28 Feb 2018
    </text>
  </g>
  <g fill-opacity="1.0" font-size="5.0e-2" stroke="none" stroke-width="0.0" fill="#666666" text-anchor="end">
    <text transform="rotate(-45.0, -0.6661538978430113, 0.5)" x="-0.6661538978430113" y="0.5">31 Mar 2018
    </text>
  </g>
  <g fill-opacity="1.0" font-size="5.0e-2" stroke="none" stroke-width="0.0" fill="#666666" text-anchor="end">
    <text transform="rotate(-45.0, -0.5187068626227527, 0.5)" x="-0.5187068626227527" y="0.5">30 Jun 2018
    </text>
  </g>
  <g fill-opacity="1.0" font-size="5.0e-2" stroke="none" stroke-width="0.0" fill="#666666" text-anchor="end">
    <text transform="rotate(-45.0, -0.37356368732781053, 0.5)" x="-0.37356368732781053" y="0.5">30 Sep 2018
    </text>
  </g>
  <g fill-opacity="1.0" font-size="5.0e-2" stroke="none" stroke-width="0.0" fill="#666666" text-anchor="end">
    <text transform="rotate(-45.0, -0.2284205120328685, 0.5)" x="-0.2284205120328685" y="0.5">31 Dec 2018
    </text>
  </g>
  <g fill-opacity="1.0" font-size="5.0e-2" stroke="none" stroke-width="0.0" fill="#666666" text-anchor="end">
    <text transform="rotate(-45.0, -8.78850565885595e-2, 0.5)" x="-8.78850565885595e-2" y="0.5">31 Mar 2019
    </text>
  </g>
  <g fill-opacity="1.0" font-size="5.0e-2" stroke="none" stroke-width="0.0" fill="#666666" text-anchor="end">
    <text transform="rotate(-45.0, 5.7258118706382755e-2, 0.5)" x="5.7258118706382755e-2" y="0.5">30 Jun 2019
    </text>
  </g>
  <g fill-opacity="1.0" font-size="5.0e-2" stroke="none" stroke-width="0.0" fill="#666666" text-anchor="end">
    <text transform="rotate(-45.0, 0.20470515392664124, 0.5)" x="0.20470515392664124" y="0.5">30 Sep 2019
    </text>
  </g>
  <g fill-opacity="1.0" font-size="5.0e-2" stroke="none" stroke-width="0.0" fill="#666666" text-anchor="end">
    <text transform="rotate(-45.0, 0.35215218914689994, 0.5)" x="0.35215218914689994" y="0.5">31 Dec 2019
    </text>
  </g>
  <g fill-opacity="1.0" font-size="5.0e-2" stroke="none" stroke-width="0.0" fill="#666666" text-anchor="end">
    <text transform="rotate(-45.0, 0.4350911464582954, 0.5)" x="0.4350911464582954" y="0.5">24 Feb 2020
    </text>
  </g>
  <g stroke-opacity="0.4" fill-opacity="1.0" stroke="#2c429d" stroke-width="5.0e-3" fill="#5f0391">
    <polyline points="-0.7145349562746587,0.4424577739281074
-0.7145349562746587,0.4124577739281074"/>
    <polyline points="-0.6661538978430113,0.4424577739281074
-0.6661538978430113,0.4124577739281074"/>
    <polyline points="-0.5187068626227527,0.4424577739281074
-0.5187068626227527,0.4124577739281074"/>
    <polyline points="-0.37356368732781053,0.4424577739281074
-0.37356368732781053,0.4124577739281074"/>
    <polyline points="-0.2284205120328685,0.4424577739281074
-0.2284205120328685,0.4124577739281074"/>
    <polyline points="-8.78850565885595e-2,0.4424577739281074
-8.78850565885595e-2,0.4124577739281074"/>
    <polyline points="5.7258118706382755e-2,0.4424577739281074
5.7258118706382755e-2,0.4124577739281074"/>
    <polyline points="0.20470515392664124,0.4424577739281074
0.20470515392664124,0.4124577739281074"/>
    <polyline points="0.35215218914689994,0.4424577739281074
0.35215218914689994,0.4124577739281074"/>
    <polyline points="0.4350911464582954,0.4424577739281074
0.4350911464582954,0.4124577739281074"/>
  </g>
  <g stroke-opacity="0.0" fill-opacity="0.5" stroke="#666666" stroke-width="0.0" fill="#5f0391">
    <rect height="4.330879168471247e-3" width="1.1519299626582706" x="-0.7168388161999752" y="0.4144651364226938"/>
  </g>
  <g stroke-opacity="0.3" stroke="#a8e5ee" stroke-width="5.0e-3" fill="none">
    <polyline points="-0.7197186411066209,0.3705067128627112
0.4379709713649409,0.3705067128627112"/>
  </g>
  <g stroke-opacity="0.3" stroke="#a8e5ee" stroke-width="5.0e-3" fill="none">
    <polyline points="-0.7197186411066209,0.2261440739136712
0.4379709713649409,0.2261440739136712"/>
  </g>
  <g stroke-opacity="0.3" stroke="#a8e5ee" stroke-width="5.0e-3" fill="none">
    <polyline points="-0.7197186411066209,8.17814349646312e-2
0.4379709713649409,8.17814349646312e-2"/>
  </g>
  <g stroke-opacity="0.3" stroke="#a8e5ee" stroke-width="5.0e-3" fill="none">
    <polyline points="-0.7197186411066209,-6.25812039844088e-2
0.4379709713649409,-6.25812039844088e-2"/>
  </g>
  <g stroke-opacity="0.3" stroke="#a8e5ee" stroke-width="5.0e-3" fill="none">
    <polyline points="-0.7197186411066209,-0.2069438429334487
0.4379709713649409,-0.2069438429334487"/>
  </g>
  <g stroke-opacity="0.3" stroke="#a8e5ee" stroke-width="5.0e-3" fill="none">
    <polyline points="-0.7197186411066209,-0.3513064818824887
0.4379709713649409,-0.3513064818824887"/>
  </g>
  <g stroke-opacity="0.3" stroke="#a8e5ee" stroke-width="5.0e-3" fill="none">
    <polyline points="-0.7197186411066209,-0.4956691208315287
0.4379709713649409,-0.4956691208315287"/>
  </g>
  <g fill-opacity="1.0" font-size="5.0e-2" stroke="none" stroke-width="0.0" fill="#666666" text-anchor="end">
    <text x="-0.75" y="0.3830662624512776">-60%
    </text>
  </g>
  <g fill-opacity="1.0" font-size="5.0e-2" stroke="none" stroke-width="0.0" fill="#666666" text-anchor="end">
    <text x="-0.75" y="0.23870362350223773">-40%
    </text>
  </g>
  <g fill-opacity="1.0" font-size="5.0e-2" stroke="none" stroke-width="0.0" fill="#666666" text-anchor="end">
    <text x="-0.75" y="9.434098455319773e-2">-20%
    </text>
  </g>
  <g fill-opacity="1.0" font-size="5.0e-2" stroke="none" stroke-width="0.0" fill="#666666" text-anchor="end">
    <text x="-0.75" y="-5.0021654395842385e-2">0%
    </text>
  </g>
  <g fill-opacity="1.0" font-size="5.0e-2" stroke="none" stroke-width="0.0" fill="#666666" text-anchor="end">
    <text x="-0.75" y="-0.19438429334488216">20%
    </text>
  </g>
  <g fill-opacity="1.0" font-size="5.0e-2" stroke="none" stroke-width="0.0" fill="#666666" text-anchor="end">
    <text x="-0.75" y="-0.3387469322939223">40%
    </text>
  </g>
  <g fill-opacity="1.0" font-size="5.0e-2" stroke="none" stroke-width="0.0" fill="#666666" text-anchor="end">
    <text x="-0.75" y="-0.4831095712429623">60%
    </text>
  </g>
  <g stroke-opacity="0.4" fill-opacity="1.0" stroke="#2c429d" stroke-width="5.0e-3" fill="#5f0391">
    <g transform="rotate(-90.0, -0.7312379407332036, 0.3705067128627112)">
      <polyline points="-0.7312379407332036,0.3855067128627112
-0.7312379407332036,0.3555067128627112"/>
    </g>
    <g transform="rotate(-90.0, -0.7312379407332036, 0.2261440739136712)">
      <polyline points="-0.7312379407332036,0.2411440739136712
-0.7312379407332036,0.21114407391367118"/>
    </g>
    <g transform="rotate(-90.0, -0.7312379407332036, 8.17814349646312e-2)">
      <polyline points="-0.7312379407332036,9.67814349646312e-2
-0.7312379407332036,6.67814349646312e-2"/>
    </g>
    <g transform="rotate(-90.0, -0.7312379407332036, -6.25812039844088e-2)">
      <polyline points="-0.7312379407332036,-4.758120398440881e-2
-0.7312379407332036,-7.75812039844088e-2"/>
    </g>
    <g transform="rotate(-90.0, -0.7312379407332036, -0.2069438429334487)">
      <polyline points="-0.7312379407332036,-0.19194384293344868
-0.7312379407332036,-0.2219438429334487"/>
    </g>
    <g transform="rotate(-90.0, -0.7312379407332036, -0.3513064818824887)">
      <polyline points="-0.7312379407332036,-0.3363064818824887
-0.7312379407332036,-0.3663064818824887"/>
    </g>
    <g transform="rotate(-90.0, -0.7312379407332036, -0.4956691208315287)">
      <polyline points="-0.7312379407332036,-0.4806691208315287
-0.7312379407332036,-0.5106691208315287"/>
    </g>
  </g>
  <g stroke-opacity="0.0" fill-opacity="0.5" stroke="#666666" stroke-width="0.0" fill="#5f0391">
    <rect height="0.8661758336942399" width="2.8798249066456227e-3" x="-0.7254782909199122" y="-0.4956691208315287"/>
  </g>
  <g stroke-opacity="0.5" stroke="#ac0505" stroke-width="2.0e-3" fill="none">
    <polyline points="-0.7145349562746587,-6.25812039844088e-2
0.4350911464582954,-6.25812039844088e-2"/>
  </g>
  <g stroke-opacity="0.5" stroke="#4b2282" stroke-width="7.0e-3" fill="none">
    <polyline points="-0.7145349562746587,-8.691582556119937e-2
-0.7122310963493421,-7.595601137550834e-2
-0.7099272364240256,-8.009105639941971e-2
-0.707623376498709,-8.673090062369104e-2
-0.7053195165733925,-8.829795181234334e-2
-0.703015656648076,-8.793282477913589e-2
-0.7007117967227594,-8.978091917745534e-2
-0.6984079367974428,-9.318260313397186e-2
-0.6961040768721263,-9.204051871041952e-2
-0.6938002169468098,-8.882928736197337e-2
-0.6914963570214933,-8.65076771226051e-2
-0.6891924970961767,-8.621829972065387e-2
-0.6868886371708601,-8.64091976005813e-2
-0.6845847772455436,-8.344279922205189e-2
-0.6822809173202271,-8.364383385054563e-2
-0.6799770573949105,-8.355614715017745e-2
-0.677673197469594,-7.967386733623316e-2
-0.6753693375442774,-7.272526626066456e-2
-0.673065477618961,-7.870366171059362e-2
-0.6707616176936444,-6.907351799269146e-2
-0.6684577577683278,-6.852078173936071e-2
-0.6661538978430113,-7.510081047830042e-2
-0.6638500379176948,-6.474799596588066e-2
-0.6615461779923782,-7.174775761886787e-2
-0.6592423180670617,-7.74385311333966e-2
-0.6569384581417451,-8.067959108054346e-2
-0.6546345982164286,-7.086768355267037e-2
-0.6523307382911121,-7.299196804146457e-2
-0.6500268783657955,-7.848619024566039e-2
-0.647723018440479,-7.637364433846172e-2
-0.6454191585151624,-7.896978576425406e-2
-0.6431152985898458,-7.818484778623525e-2
-0.6408114386645294,-7.963171939875924e-2
-0.6385075787392128,-8.076888885495959e-2
-0.6362037188138963,-8.080230042080006e-2
-0.6338998588885797,-8.01933897946232e-2
-0.6315959989632631,-7.972485925717576e-2
-0.6292921390379467,-7.971645827953211e-2
-0.6269882791126301,-8.013108221093812e-2
-0.6246844191873135,-7.984332257185622e-2
-0.622380559261997,-7.728473151166326e-2
-0.6200766993366804,-7.706328519175132e-2
-0.617772839411364,-7.869998690113722e-2
-0.6154689794860474,-7.777078024947359e-2
-0.6131651195607308,-7.995216824196527e-2
-0.6108612596354144,-8.058667535879249e-2
-0.6085573997100978,-7.293587849169636e-2
-0.6062535397847812,-7.14381189574651e-2
-0.6039496798594648,-7.161563828095885e-2
-0.6016458199341481,-6.589432472615497e-2
-0.5993419600088317,-6.096658042564518e-2
-0.5970381000835151,-6.056119128363946e-2
-0.5947342401581985,-6.066074735014915e-2
-0.592430380232882,-6.658277329312501e-2
-0.5901265203075654,-6.392290425495006e-2
-0.587822660382249,-6.534143416941485e-2
-0.5855188004569324,-6.851662461250685e-2
-0.5832149405316158,-6.143418415013813e-2
-0.5809110806062993,-6.566827113853646e-2
-0.5786072206809827,-6.277043345573319e-2
-0.5763033607556662,-6.625268975841325e-2
-0.5739995008303497,-7.022988114079709e-2
-0.5716956409050331,-8.485261427210433e-2
-0.5693917809797165,-6.957176162757872e-2
-0.5670879210544,-7.558695326602127e-2
-0.5647840611290835,-6.607182811284795e-2
-0.562480201203767,-6.325275182539725e-2
-0.5601763412784504,-6.34142412502352e-2
-0.5578724813531338,-5.6443825018507865e-2
-0.5555686214278173,-5.828887387930626e-2
-0.5532647615025008,-5.629236209375965e-2
-0.5509609015771842,-5.652075297343706e-2
-0.5486570416518677,-5.5906630334010776e-2
-0.5463531817265511,-6.332277507889872e-2
-0.5440493218012346,-6.125492043862879e-2
-0.5417454618759181,-6.451261225077876e-2
-0.5394416019506015,-6.963220244141322e-2
-0.537137742025285,-7.780014335742458e-2
-0.5348338820999685,-7.576810022711988e-2
-0.5325300221746518,-8.778054882161435e-2
-0.5302261622493354,-8.488569754919573e-2
-0.5279223023240188,-0.10235301305482625
-0.5256184423987023,-9.927443988460494e-2
-0.5233145824733857,-0.10619710354742051
-0.5210107225480691,-9.718513683854257e-2
-0.5187068626227527,-9.605956726673959e-2
-0.516403002697436,-9.183852883316368e-2
-0.5140991427721195,-9.70345395336818e-2
-0.5117952828468031,-8.350815180024151e-2
-0.5094914229214865,-7.369140146811781e-2
-0.50718756299617,-6.583005467767689e-2
-0.5048837030708534,-6.381640091101903e-2
-0.5025798431455368,-7.068602808806557e-2
-0.5002759832202204,-6.424386891904099e-2
-0.4979721232949038,-6.423824264117906e-2
-0.49566826336958725,-6.595232105701088e-2
-0.4933644034442707,-6.309055548669718e-2
-0.4910605435189542,-6.198752163875043e-2
-0.4887566835936376,-6.798589534879895e-2
-0.4864528236683211,-7.021195354810661e-2
-0.48414896374300453,-6.88249970442949e-2
-0.481845103817688,-6.293196256994804e-2
-0.47954124389237146,-5.1490124175419094e-2
-0.4772373839670549,-5.747957483680477e-2
-0.47493352404173844,-6.74231501703556e-2
-0.47262966411642193,-7.400193103024622e-2
-0.47032580419110537,-6.943286400594584e-2
-0.4680219442657888,-7.126667848394908e-2
-0.46571808434047224,-6.6046631991457e-2
-0.46341422441515573,-6.1380965628299644e-2
-0.46111036448983916,-5.816821844898845e-2
-0.45880650456452265,-5.5831427973378145e-2
-0.4565026446392061,-5.826293953515804e-2
-0.4541987847138896,-6.284967713093426e-2
-0.45189492478857296,-7.635017950550904e-2
-0.44959106486325645,-8.216914230532946e-2
-0.44728720493793994,-7.309685562690083e-2
-0.4449833450126234,-8.141544196089845e-2
-0.4426794850873068,-7.336615089791199e-2
-0.4403756251619903,-7.139873587905965e-2
-0.4380717652366738,-7.001606492379975e-2
-0.4357679053113572,-6.883008676853808e-2
-0.43346404538604066,-7.035263100355926e-2
-0.4311601854607241,-7.361330498684304e-2
-0.4288563255354076,-6.55539993048212e-2
-0.426552465610091,-5.71293957098008e-2
-0.4242486056847745,-5.834546985204092e-2
-0.42194474575945795,-5.302690847689129e-2
-0.4196408858341414,-6.085999627774097e-2
-0.4173370259088248,-6.208964570181763e-2
-0.4150331659835083,-6.574866988760952e-2
-0.4127293060581918,-7.094398951549563e-2
-0.41042544613287524,-7.684299303997666e-2
-0.4081215862075587,-8.053092161609487e-2
-0.4058177262822421,-7.826714754353714e-2
-0.4035138663569256,-7.25530631442578e-2
-0.40121000643160903,-7.31518626957488e-2
-0.3989061465062925,-6.394419107286431e-2
-0.39660228658097596,-6.512586368395334e-2
-0.39429842665565945,-7.69423385820932e-2
-0.3919945667303429,-6.873585380952985e-2
-0.3896907068050263,-6.804028381676319e-2
-0.3873868468797098,-5.675639064150573e-2
-0.38508298695439325,-5.865954474241031e-2
-0.3827791270290768,-6.501576806795228e-2
-0.38047526710376023,-6.780342879396584e-2
-0.37817140717844366,-7.326127540528238e-2
-0.37586754725312715,-6.998645149776239e-2
-0.37356368732781053,-7.102870944288198e-2
-0.371259827402494,-6.551806271692495e-2
-0.3689559674771775,-6.768493657081298e-2
-0.36665210755186095,-6.76976224646747e-2
-0.3643482476265444,-8.28860205415547e-2
-0.3620443877012279,-8.667835070903984e-2
-0.35974052777591137,-8.696572091457089e-2
-0.3574366678505948,-8.822351682001506e-2
-0.35513280792527824,-7.784497117058664e-2
-0.35282894799996173,-4.564733962887346e-2
-0.3505250880746452,-7.503080660905637e-2
-0.34822122814932865,-6.773066899243951e-2
-0.3459173682240121,-9.675231197844425e-2
-0.3436135082986956,-9.784264527616593e-2
-0.34130964837337896,-7.544338051562383e-2
-0.3390057884480624,-7.722836112121412e-2
-0.3367019285227459,-7.326117784835706e-2
-0.3343980685974294,-6.814478840764215e-2
-0.3320942086721128,-4.194288551481662e-2
-0.32979034874679625,-6.927437498466782e-2
-0.32748648882147974,-5.072612621809147e-2
-0.32518262889616323,-4.640957100921672e-2
-0.32287876897084666,-6.724181428011589e-2
-0.3205749090455301,-8.070877738886595e-2
-0.3182710491202136,-9.207208904835695e-2
-0.3159671891948971,-8.647565275479185e-2
-0.3136633292695805,-9.234706137650783e-2
-0.31135946934426395,-9.785387849437255e-2
-0.30905560941894744,-0.10731623548401281
-0.30675174949363093,-0.10466517281143362
-0.30444788956831437,-9.633723925053261e-2
-0.3021440296429978,-8.006512551479039e-2
-0.2998401697176813,-7.97803710785513e-2
-0.2975363097923648,-7.538667727655968e-2
-0.2952324498670482,-8.140358551817406e-2
-0.29292858994173165,-8.302477803195818e-2
-0.29062473001641514,-7.424791793527408e-2
-0.28832087009109864,-6.560145293350539e-2
-0.28601701016578207,-6.83224131332898e-2
-0.28371315024046545,-6.627177395599981e-2
-0.28140929031514894,-7.183440222081028e-2
-0.2791054303898324,-7.373003748941076e-2
-0.2768015704645158,-7.877150899070462e-2
-0.2744977105391993,-7.767232442837702e-2
-0.2721938506138828,-8.064441601797745e-2
-0.26988999068856623,-8.361879130976024e-2
-0.26758613076324966,-6.9769787215755e-2
-0.26528227083793315,-6.936901542947993e-2
-0.26297841091261664,-5.8359454426973434e-2
-0.2606745509873001,-6.0445116216043315e-2
-0.2583706910619835,-6.115587844393788e-2
-0.256066831136667,-6.410795272468905e-2
-0.2537629712113504,-6.453272421631784e-2
-0.2514591112860338,-5.969794100346071e-2
-0.24915525136071737,-5.454553014887098e-2
-0.2468513914354008,-5.571205981651284e-2
-0.24454753151008424,-5.262090666163688e-2
-0.24224367158476767,-4.996060788269974e-2
-0.2399398116594511,-4.7229233423655814e-2
-0.23763595173413465,-4.409399077027176e-2
-0.2353320918088182,-6.254696058588649e-2
-0.23302823188350164,-7.030567350898909e-2
-0.23072437195818507,-7.130063641193762e-2
-0.2284205120328685,-7.730946613665413e-2
-0.22611665210755194,-7.908217014121788e-2
-0.22381279218223538,-6.789999174617067e-2
-0.2215089322569188,-8.075490148826825e-2
-0.21920507233160236,-8.49508869094775e-2
-0.2169012124062858,-8.960293126161212e-2
-0.21459735248096923,-9.148872877571912e-2
-0.21229349255565277,-9.319464984765324e-2
-0.2099896326303362,-9.312607477542689e-2
-0.20768577270501964,-9.149523053393971e-2
-0.20538191277970308,-9.322299768982911e-2
-0.20307805285438651,-9.35531531128565e-2
-0.20077419292907006,-9.411202986004241e-2
-0.1984703330037535,-9.399168391611679e-2
-0.19616647307843693,-9.160376024550654e-2
-0.19386261315312037,-9.166787630534456e-2
-0.1915587532278038,-9.165578995303714e-2
-0.18925489330248724,-9.063125215672785e-2
-0.18695103337717067,-9.116539475409224e-2
-0.18464717345185422,-9.147768981743198e-2
-0.18234331352653765,-8.65518129381393e-2
-0.1800394536012211,-8.472685226023025e-2
-0.17773559367590464,-8.491773748598563e-2
-0.17543173375058807,-8.307643356473837e-2
-0.1731278738252714,-8.193649379836221e-2
-0.17082401389995483,-8.376026180240415e-2
-0.16852015397463838,-8.851917770966222e-2
-0.1662162940493218,-8.881185749218623e-2
-0.16391243412400536,-8.911418969210849e-2
-0.1616085741986888,-8.030514051249982e-2
-0.15930471427337234,-7.949127276441348e-2
-0.15700085434805577,-8.26020821650878e-2
-0.1546969944227392,-7.483445747126471e-2
-0.15239313449742264,-7.528988779670742e-2
-0.15008927457210608,-7.552690742784807e-2
-0.14778541464678963,-8.068532570575626e-2
-0.14548155472147306,-7.577854754167035e-2
-0.1431776947961565,-7.659721933655061e-2
-0.14087383487083993,-7.978212411095875e-2
-0.13856997494552337,-8.272301779404678e-2
-0.1362661150202068,-8.859251482894737e-2
-0.13396225509489024,-8.052835114288415e-2
-0.13165839516957378,-8.829866948144727e-2
-0.12935453524425722,-9.20756235619784e-2
-0.12705067531894065,-0.10296575639740391
-0.1247468153936242,-0.11413712809893972
-0.12244295546830763,-0.11769165730898434
-0.12013909554299107,-9.131112061633717e-2
-0.1178352356176745,-8.901645070787267e-2
-0.11553137569235794,-8.11727678698303e-2
-0.11322751576704149,-8.412628440908376e-2
-0.11092365584172492,-7.879562180104993e-2
-0.10861979591640836,-7.546599336949544e-2
-0.10631593599109179,-7.822878224321306e-2
-0.10401207606577523,-8.551683552765732e-2
-0.10170821614045866,-6.825907769806028e-2
-9.94043562151421e-2,-9.04716334963741e-2
-9.710049628982564e-2,-9.13705548140098e-2
-9.479663636450908e-2,-8.606960726268331e-2
-9.249277643919251e-2,-8.960018705831718e-2
-9.018891651387606e-2,-8.719066001765852e-2
-8.78850565885595e-2,-8.151894793860037e-2
-8.558119666324293e-2,-7.129324686176397e-2
-8.327733673792637e-2,-7.254267123348235e-2
-8.09734768126098e-2,-7.203051492612422e-2
-7.866961688729335e-2,-7.154271810887891e-2
-7.636575696197667e-2,-6.809443147345828e-2
-7.406189703666022e-2,-6.898947576896519e-2
-7.175803711134365e-2,-7.868469397947164e-2
-6.945417718602709e-2,-7.593310379854346e-2
-6.715031726071052e-2,-7.786187104037012e-2
-6.484645733539396e-2,-6.977552409812704e-2
-6.25425974100775e-2,-7.31964579367489e-2
-6.023873748476094e-2,-7.486464903122936e-2
-5.7934877559444375e-2,-8.126633678455952e-2
-5.563101763412792e-2,-8.073100680627998e-2
-5.332715770881136e-2,-8.131924982606054e-2
-5.10232977834949e-2,-6.487157326977888e-2
-4.871943785817834e-2,-7.215995991711133e-2
-4.641557793286177e-2,-7.577253528505035e-2
-4.411171800754521e-2,-6.865806589151924e-2
-4.1807858082228755e-2,-6.970490393917905e-2
-3.950399815691219e-2,-7.105702142670867e-2
-3.7200138231595625e-2,-9.024215884127518e-2
-3.489627830627917e-2,-9.605567812919391e-2
-3.259241838096261e-2,-7.622522284491096e-2
-3.0288558455646042e-2,-8.47380264404809e-2
-2.7984698530329366e-2,-9.667309896673937e-2
-2.5680838605012912e-2,-9.700910312443767e-2
-2.3376978679696347e-2,-9.782582973637188e-2
-2.1073118754379783e-2,-9.536755102381234e-2
-1.876925882906333e-2,-8.977162816121242e-2
-1.6465398903746764e-2,-9.363378438317682e-2
-1.41615389784302e-2,-9.657733655748635e-2
-1.1857679053113634e-2,-9.931150235488051e-2
-9.55381912779707e-3,-9.522426273678708e-2
-7.249959202480616e-3,-9.118370604692272e-2
-4.946099277164051e-3,-9.298671493713839e-2
-2.6422393518474863e-3,-9.16865245389098e-2
-3.383794265310325e-4,-8.556478699140757e-2
1.9654804987856433e-3,-8.632243212914925e-2
4.269340424102097e-3,-8.318015869679185e-2
6.573200349418773e-3,-8.116572920134135e-2
8.877060274735227e-3,-8.164695563779722e-2
1.1180920200051792e-2,-7.853153955403658e-2
1.3484780125368245e-2,-7.829447369855758e-2
1.578864005068481e-2,-7.521238409603392e-2
1.8092499976001264e-2,-8.025404165513494e-2
2.039635990131794e-2,-8.372161563835989e-2
2.2700219826634616e-2,-8.779084010325644e-2
2.500407975195107e-2,-8.975270490000797e-2
2.7307939677267634e-2,-8.920680813678894e-2
2.9611799602584088e-2,-8.809715754002556e-2
3.191565952790065e-2,-8.87422808594831e-2
3.4219519453217107e-2,-8.82700312453617e-2
3.652337937853378e-2,-8.828109015486896e-2
3.8827239303850236e-2,-8.603294303622644e-2
4.113109922916691e-2,-8.589201022538417e-2
4.3434959154483366e-2,-8.341194086597337e-2
4.573881907979993e-2,-8.365461457183476e-2
4.8042679005116384e-2,-8.423474114221041e-2
5.034653893043295e-2,-8.548283574372417e-2
5.2650398855749625e-2,-8.577750165149423e-2
5.495425878106608e-2,-8.461484938079233e-2
5.7258118706382755e-2,-8.214773341670245e-2
5.956197863169921e-2,-7.836742894501414e-2
6.186583855701577e-2,-7.760530766053464e-2
6.416969848233223e-2,-7.34353416026402e-2
6.647355840764879e-2,-7.54687540584501e-2
6.877741833296525e-2,-7.927567808227776e-2
7.108127825828192e-2,-7.930860011856344e-2
7.338513818359838e-2,-7.644230796634355e-2
7.568899810891505e-2,-7.564109456976631e-2
7.79928580342315e-2,-7.212715518656843e-2
8.029671795954807e-2,-7.383504391704998e-2
8.260057788486463e-2,-7.987001853546472e-2
8.490443781018109e-2,-8.817693038988794e-2
8.720829773549776e-2,-8.495172633693393e-2
8.951215766081422e-2,-9.183762470448797e-2
9.18160175861309e-2,-8.932152826428619e-2
9.411987751144713e-2,-8.090972653086892e-2
9.64237374367638e-2,-7.646348919741708e-2
9.872759736208037e-2,-8.333082291784233e-2
0.10103145728739682,-7.524795696123643e-2
0.10333531721271338,-7.8086669199398e-2
0.10563917713802984,-8.198058118467766e-2
0.10794303706334651,-9.040510920463374e-2
0.11024689698866297,-9.221734876311738e-2
0.11255075691397964,-9.262487728057112e-2
0.1148546168392961,-8.061544498101214e-2
0.11715847676461266,-9.234581969584521e-2
0.11946233668992912,-9.443436491255375e-2
0.12176619661524568,-0.10403620880668174
0.12407005654056213,-9.626497405610446e-2
0.1263739164658788,-8.276363892560334e-2
0.12867777639119526,-9.413268390429408e-2
0.13098163631651194,-6.428542567468454e-2
0.1332854962418285,-6.894555646815703e-2
0.13558935616714496,-8.350455394100509e-2
0.13789321609246152,-9.454455535045392e-2
0.14019707601777798,-8.643153234795364e-2
0.14250093594309465,-9.338193761143365e-2
0.1448047958684111,-9.299568869552788e-2
0.14710865579372778,-7.096017318272352e-2
0.14941251571904424,-8.061353616538414e-2
0.1517163756443608,-7.859627800401547e-2
0.15402023556967726,-8.365281216527087e-2
0.15632409549499382,-9.074299892368753e-2
0.15862795542031027,-9.106624591591528e-2
0.16093181534562695,-8.660625218340468e-2
0.16323567527094363,-9.081177617716707e-2
0.16553953519626008,-9.475976466112723e-2
0.16784339512157664,-9.472473165692552e-2
0.1701472550468931,-9.430844838168373e-2
0.17245111497220966,-9.412953388028333e-2
0.17475497489752612,-9.480274212705986e-2
0.1770588348228428,-9.498653167347726e-2
0.17936269474815925,-9.483086216129977e-2
0.18166655467347592,-9.472098124785366e-2
0.18397041459879238,-9.447839867445051e-2
0.18627427452410894,-9.462744621903407e-2
0.1885781344494254,-9.493154344555343e-2
0.19088199437474196,-9.669929869308236e-2
0.1931858543000584,-9.705713954397277e-2
0.1954897142253751,-0.10028335735447769
0.19779357415069176,-9.621235226217273e-2
0.20009743407600822,-9.774130659308089e-2
0.20240129400132478,-0.10077346662279396
0.20470515392664124,-9.646770302356455e-2
0.2070090138519578,-0.10175822766152554
0.20931287377727426,-0.10281060073664305
0.21161673370259093,-9.933137972194028e-2
0.21392059362790738,-9.274780527552817e-2
0.21622445355322406,-9.239861814564687e-2
0.21852831347854051,-8.973539762932115e-2
0.22083217340385708,-8.909723923186796e-2
0.22313603332917353,-8.899281514870228e-2
0.2254398932544901,-8.764436780734053e-2
0.22774375317980677,-8.749430822360316e-2
0.23004761310512323,-8.587823183733856e-2
0.2323514730304399,-8.58680669422982e-2
0.23465533295575636,-8.553406204960978e-2
0.23695919288107292,-8.626989055648182e-2
0.23926305280638938,-8.378220691128047e-2
0.24156691273170594,-8.502210626747664e-2
0.2438707726570224,-8.39939554870287e-2
0.24617463258233885,-8.333619439657369e-2
0.24847849250765552,-8.10615724849636e-2
0.250782352432972,-7.738464423734048e-2
0.25308621235828865,-7.895362324159738e-2
0.2553900722836051,-7.689295796980422e-2
0.2576939322089218,-8.095169466734431e-2
0.259997792134238,-7.080103305980279e-2
0.2623016520595547,-6.850826808619026e-2
0.26460551198487114,-7.142954583296557e-2
0.2669093719101878,-7.225247405425705e-2
0.2692132318355043,-7.038613458116627e-2
0.27151709176082095,-6.869547207900273e-2
0.2738209516861374,-7.41016543762213e-2
0.27612481161145386,-7.366156391735823e-2
0.27842867153677053,-7.478104181159384e-2
0.280732531462087,-7.568315111747115e-2
0.28303639138740366,-6.186664802740771e-2
0.2853402513127201,-6.405524646931904e-2
0.2876441112380368,-6.864128420345195e-2
0.28994797116335325,-7.987989263060258e-2
0.2922518310886697,-8.57721546357042e-2
0.2945556910139864,-8.304013523735876e-2
0.29685955093930283,-6.669145722945602e-2
0.2991634108646193,-6.488831094148872e-2
0.30146727078993596,-5.826014613614039e-2
0.3037711307152524,-7.203310801632645e-2
0.3060749906405691,-9.071566302710188e-2
0.30837885056588554,-9.957727212062362e-2
0.3106827104912022,-8.991919402144943e-2
0.3129865704165187,-8.887834206586143e-2
0.3152904303418351,-7.512830921718483e-2
0.3175942902671518,-7.956144732867632e-2
0.31989815019246826,-8.184853502866052e-2
0.32220201011778493,-7.903962611308091e-2
0.3245058700431014,-6.748945624336877e-2
0.32680972996841806,-6.896255802360762e-2
0.3291135898937343,-6.1208868958715246e-2
0.33141744981905097,-6.273608417766197e-2
0.3337213097443674,-6.54428671135201e-2
0.3360251696696841,-6.074698273360457e-2
0.3383290295950008,-5.534669362641942e-2
0.34063288952031723,-5.6842581723679175e-2
0.3429367494456339,-6.044783404769549e-2
0.34524060937095014,-5.3442805626782275e-2
0.3475444692962668,-5.712023785156328e-2
0.34984832922158327,-7.26719525423476e-2
0.35215218914689994,-6.983432563537628e-2
0.3544560490722164,-5.735533352370603e-2
0.35675990899753307,-6.925608029119645e-2
0.3590637689228495,-6.723580461085354e-2
0.361367628848166,-7.125896284621414e-2
0.36367148877348265,-6.724740404342655e-2
0.3659753486987991,-6.1496766308356876e-2
0.36827920862411556,-6.595189929221767e-2
0.37058306854943224,-6.048860563648384e-2
0.3728869284747489,-6.337057809632862e-2
0.37519078840006537,-6.303868559361436e-2
0.3774946483253818,-5.5662915578058136e-2
0.3797985082506985,-5.397578501307043e-2
0.38210236817601495,-5.90555976810776e-2
0.3844062281013314,-6.055992239773034e-2
0.3867100880266481,-6.12120378199823e-2
0.38901394795196453,-7.320618448478966e-2
0.391317807877281,-7.321500739190434e-2
0.39362166780259766,-7.961582010587931e-2
0.3959255277279141,-7.797113618348372e-2
0.39822938765323057,-7.98795758105737e-2
0.40053324757854725,-6.548335095349966e-2
0.4028371075038639,-7.421030425570074e-2
0.40514096742918015,-8.677213640970094e-2
0.40744482735449705,-9.713956129250811e-2
0.4097486872798133,-9.941039669484686e-2
0.4120525472051302,-9.008959536879768e-2
0.4143564071304464,-9.568387506108555e-2
0.4166602670557631,-9.58490593231095e-2
0.4189641269810793,-9.936732605069099e-2
0.4212679869063962,-9.628117697992966e-2
0.42357184683171245,-9.64394247536845e-2
0.42587570675702935,-9.329166967710956e-2
0.4281795666823456,-9.440969303539115e-2
0.43048342660766226,-9.162593065532554e-2
0.4327872865329787,-8.473048460880694e-2
0.4350911464582954,-6.479327611985652e-2"/>
  </g>
  <g stroke-opacity="0.5" stroke="#431712" stroke-width="7.0e-3" fill="none">
    <polyline points="-0.7145349562746587,-6.71247223270347e-2
-0.7122310963493421,-6.266291559884785e-2
-0.7099272364240256,-6.413759938258246e-2
-0.707623376498709,-6.736314254836451e-2
-0.7053195165733925,-6.80056615614546e-2
-0.703015656648076,-6.767584673177307e-2
-0.7007117967227594,-6.883684297539772e-2
-0.6984079367974428,-7.334823227329301e-2
-0.6961040768721263,-7.272448320493441e-2
-0.6938002169468098,-7.054972540804816e-2
-0.6914963570214933,-6.86314558514054e-2
-0.6891924970961767,-6.822347972650844e-2
-0.6868886371708601,-6.853315045979314e-2
-0.6845847772455436,-6.429585671421678e-2
-0.6822809173202271,-6.457944019286921e-2
-0.6799770573949105,-6.393504425123442e-2
-0.677673197469594,-5.740691369553763e-2
-0.6753693375442774,-5.2020102679960045e-2
-0.673065477618961,-5.998319896481219e-2
-0.6707616176936444,-5.506539342331751e-2
-0.6684577577683278,-5.41930871830002e-2
-0.6661538978430113,-5.824884723225443e-2
-0.6638500379176948,-5.230583284937451e-2
-0.6615461779923782,-5.608226971165997e-2
-0.6592423180670617,-5.942529411400932e-2
-0.6569384581417451,-6.133340640680596e-2
-0.6546345982164286,-5.539843836316383e-2
-0.6523307382911121,-5.634275576983838e-2
-0.6500268783657955,-6.1022961572557044e-2
-0.647723018440479,-5.942044496532972e-2
-0.6454191585151624,-6.164663044185392e-2
-0.6431152985898458,-6.07897424804299e-2
-0.6408114386645294,-6.290138913978693e-2
-0.6385075787392128,-6.560790136050165e-2
-0.6362037188138963,-6.571966784608385e-2
-0.6338998588885797,-6.411504025401604e-2
-0.6315959989632631,-6.183407287820719e-2
-0.6292921390379467,-6.1782512497172815e-2
-0.6269882791126301,-5.8440791010847315e-2
-0.6246844191873135,-5.886861262570442e-2
-0.622380559261997,-6.1390229100314886e-2
-0.6200766993366804,-6.160213245198287e-2
-0.617772839411364,-5.9604548082104136e-2
-0.6154689794860474,-6.016824954740929e-2
-0.6131651195607308,-5.847149721809919e-2
-0.6108612596354144,-5.793145931406196e-2
-0.6085573997100978,-6.081291210271578e-2
-0.6062535397847812,-6.1540412822249646e-2
-0.6039496798594648,-6.142697681944265e-2
-0.6016458199341481,-6.345378667511159e-2
-0.5993419600088317,-6.535667484261065e-2
-0.5970381000835151,-6.562745299670825e-2
-0.5947342401581985,-6.571955158205489e-2
-0.592430380232882,-6.421515198372751e-2
-0.5901265203075654,-6.49532451999183e-2
-0.587822660382249,-6.470253236729717e-2
-0.5855188004569324,-6.411303627999299e-2
-0.5832149405316158,-6.542531447070543e-2
-0.5809110806062993,-6.475213282348313e-2
-0.5786072206809827,-6.527127843817437e-2
-0.5763033607556662,-6.482874873852518e-2
-0.5739995008303497,-6.434139126223803e-2
-0.5716956409050331,-6.2283745739246776e-2
-0.5693917809797165,-6.437511306534482e-2
-0.5670879210544,-6.311611671529693e-2
-0.5647840611290835,-6.486516145246346e-2
-0.562480201203767,-6.554475454747377e-2
-0.5601763412784504,-6.558605718736099e-2
-0.5578724813531338,-6.685266336652262e-2
-0.5555686214278173,-6.665283573910852e-2
-0.5532647615025008,-6.705172030291773e-2
-0.5509609015771842,-6.71299335400799e-2
-0.5486570416518677,-6.730348373616413e-2
-0.5463531817265511,-6.66352754165851e-2
-0.5440493218012346,-6.690446447201925e-2
-0.5417454618759181,-6.669252371011458e-2
-0.5394416019506015,-6.634132840589413e-2
-0.537137742025285,-6.575704058466936e-2
-0.5348338820999685,-6.591180403526409e-2
-0.5325300221746518,-6.508051746460009e-2
-0.5302261622493354,-6.5250978398539e-2
-0.5279223023240188,-6.361679993404468e-2
-0.5256184423987023,-6.384303457256468e-2
-0.5233145824733857,-6.282978914911475e-2
-0.5210107225480691,-6.349505827511082e-2
-0.5187068626227527,-6.354983853353757e-2
-0.516403002697436,-6.384316669270174e-2
-0.5140991427721195,-6.33086867617233e-2
-0.5117952828468031,-6.411256534791354e-2
-0.5094914229214865,-6.487996785850025e-2
-0.50718756299617,-6.565326522789638e-2
-0.5048837030708534,-6.593216058234785e-2
-0.5025798431455368,-6.521420952772528e-2
-0.5002759832202204,-6.5921828317683e-2
-0.4979721232949038,-6.59708655794986e-2
-0.49566826336958725,-6.583844931460758e-2
-0.4933644034442707,-6.610801883285922e-2
-0.4910605435189542,-6.622906406828755e-2
-0.4887566835936376,-6.589419448002953e-2
-0.4864528236683211,-6.579275326846779e-2
-0.48414896374300453,-6.587704861849042e-2
-0.481845103817688,-6.61201122131091e-2
-0.47954124389237146,-6.655150263479459e-2
-0.4772373839670549,-6.633740032449387e-2
-0.47493352404173844,-6.593429476853463e-2
-0.47262966411642193,-6.559406986732508e-2
-0.47032580419110537,-6.579921438736991e-2
-0.4680219442657888,-6.572704707221189e-2
-0.46571808434047224,-6.589771712355486e-2
-0.46341422441515573,-6.604245765471528e-2
-0.46111036448983916,-6.613812111887707e-2
-0.45880650456452265,-6.620159507777834e-2
-0.4565026446392061,-6.617789388251494e-2
-0.4541987847138896,-6.613162765801206e-2
-0.45189492478857296,-6.59679899000929e-2
-0.44959106486325645,-6.58812570115418e-2
-0.44728720493793994,-6.59399609033603e-2
-0.4449833450126234,-6.581034668703067e-2
-0.4426794850873068,-6.586705146428118e-2
-0.4403756251619903,-6.58943797088436e-2
-0.4380717652366738,-6.59058314126253e-2
-0.4357679053113572,-6.59085353244736e-2
-0.43346404538604066,-6.590992100230386e-2
-0.4311601854607241,-6.592224612800035e-2
-0.4288563255354076,-6.584086620405272e-2
-0.426552465610091,-6.57196732966937e-2
-0.4242486056847745,-6.572538405725037e-2
-0.42194474575945795,-6.561826367420098e-2
-0.4196408858341414,-6.571299101996675e-2
-0.4173370259088248,-6.572589093833914e-2
-0.4150331659835083,-6.578957238446292e-2
-0.4127293060581918,-6.58968279286053e-2
-0.41042544613287524,-6.604295398988336e-2
-0.4081215862075587,-6.614975733815642e-2
-0.4058177262822421,-6.608889146357966e-2
-0.4035138663569256,-6.592631562997064e-2
-0.40121000643160903,-6.593907488449113e-2
-0.3989061465062925,-6.565279876160812e-2
-0.39660228658097596,-6.567505965742293e-2
-0.39429842665565945,-6.606013377433739e-2
-0.3919945667303429,-6.572585442866274e-2
-0.3896907068050263,-6.56819161922152e-2
-0.3873868468797098,-6.511951014847517e-2
-0.38508298695439325,-6.519761285860115e-2
-0.3827791270290768,-6.55182418607807e-2
-0.38047526710376023,-6.567550413546352e-2
-0.37817140717844366,-6.600391761186797e-2
-0.37586754725312715,-6.580575074450812e-2
-0.37356368732781053,-6.58639293994765e-2
-0.371259827402494,-6.555555367871702e-2
-0.3689559674771775,-6.566215534483377e-2
-0.36665210755186095,-6.565273861999299e-2
-0.3643482476265444,-6.659550612186849e-2
-0.3620443877012279,-6.721995715724305e-2
-0.35974052777591137,-6.731425569232397e-2
-0.3574366678505948,-6.752618579193792e-2
-0.35513280792527824,-6.97247282237361e-2
-0.35282894799996173,-6.908583868325524e-2
-0.3505250880746452,-6.936580642706236e-2
-0.34822122814932865,-6.905537328525613e-2
-0.3459173682240121,-6.946273923153923e-2
-0.3436135082986956,-6.943195127002677e-2
-0.34130964837337896,-6.830436822135921e-2
-0.3390057884480624,-6.827506239601822e-2
-0.3367019285227459,-6.796650120945746e-2
-0.3343980685974294,-6.758970311359369e-2
-0.3320942086721128,-6.52625238595359e-2
-0.32979034874679625,-6.706911013358374e-2
-0.32748648882147974,-6.493372870578551e-2
-0.32518262889616323,-6.414597151015877e-2
-0.32287876897084666,-6.59903092926094e-2
-0.3205749090455301,-6.73283215047561e-2
-0.3182710491202136,-6.860451594366301e-2
-0.3159671891948971,-6.777439096948878e-2
-0.3136633292695805,-6.846188178795587e-2
-0.31135946934426395,-6.919646515133038e-2
-0.30905560941894744,-7.121712374822309e-2
-0.30675174949363093,-7.085197485995842e-2
-0.30444788956831437,-6.957799490581074e-2
-0.3021440296429978,-6.68518543067056e-2
-0.2998401697176813,-6.666424678658933e-2
-0.2975363097923648,-6.566493872144163e-2
-0.2952324498670482,-6.698253149761213e-2
-0.29292858994173165,-6.727433267354244e-2
-0.29062473001641514,-6.51084020310505e-2
-0.28832087009109864,-6.27611178931915e-2
-0.28601701016578207,-6.322566446699829e-2
-0.28371315024046545,-6.240939711269167e-2
-0.28140929031514894,-6.439799600680329e-2
-0.2791054303898324,-6.486196229050456e-2
-0.2768015704645158,-6.751959000545193e-2
-0.2744977105391993,-6.721296170639268e-2
-0.2721938506138828,-6.82815488932832e-2
-0.26988999068856623,-6.9640489709066e-2
-0.26758613076324966,-6.494641467794215e-2
-0.26528227083793315,-6.473560112113907e-2
-0.26297841091261664,-6.125256207784713e-2
-0.2606745509873001,-6.1600025982022966e-2
-0.2583706910619835,-6.160626097700839e-2
-0.256066831136667,-6.2489179256744576e-2
-0.2537629712113504,-6.250977515222456e-2
-0.2514591112860338,-5.985120300812896e-2
-0.24915525136071737,-5.701966028058503e-2
-0.2468513914354008,-5.7145897314756944e-2
-0.24454753151008424,-5.507680987525698e-2
-0.24224367158476767,-5.301025523502578e-2
-0.2399398116594511,-5.045094777314019e-2
-0.23763595173413465,-4.7330031855640664e-2
-0.2353320918088182,-5.6724115188332314e-2
-0.23302823188350164,-5.85405321798349e-2
-0.23072437195818507,-5.847461872813586e-2
-0.2284205120328685,-6.019886257187301e-2
-0.22611665210755194,-6.0572336584040376e-2
-0.22381279218223538,-5.65263689136517e-2
-0.2215089322569188,-6.276722341484842e-2
-0.21920507233160236,-6.419043855142437e-2
-0.2169012124062858,-6.605214056193187e-2
-0.21459735248096923,-6.687975972285709e-2
-0.21229349255565277,-6.775859884261548e-2
-0.2099896326303362,-6.78028439674514e-2
-0.20768577270501964,-6.695078089737572e-2
-0.20538191277970308,-6.87907180237809e-2
-0.20307805285438651,-6.921779895512714e-2
-0.20077419292907006,-7.048607574305787e-2
-0.1984703330037535,-7.253411198449877e-2
-0.19616647307843693,-7.013565055237458e-2
-0.19386261315312037,-7.052407882634415e-2
-0.1915587532278038,-7.077294216134955e-2
-0.18925489330248724,-7.205995681703703e-2
-0.18695103337717067,-7.084018775606338e-2
-0.18464717345185422,-7.06488015041764e-2
-0.18234331352653765,-7.276274875618427e-2
-0.1800394536012211,-7.396352036387333e-2
-0.17773559367590464,-7.408652939829663e-2
-0.17543173375058807,-7.499259865383046e-2
-0.1731278738252714,-7.560769858693883e-2
-0.17082401389995483,-7.527747542261087e-2
-0.16852015397463838,-7.393263037230491e-2
-0.1662162940493218,-7.401494521729257e-2
-0.16391243412400536,-7.409860688911196e-2
-0.1616085741986888,-7.55232808206191e-2
-0.15930471427337234,-7.586573047519396e-2
-0.15700085434805577,-7.55114667577157e-2
-0.1546969944227392,-7.663649075081724e-2
-0.15239313449742264,-7.67749698916449e-2
-0.15008927457210608,-7.693872255040834e-2
-0.14778541464678963,-7.649994946039373e-2
-0.14548155472147306,-7.710775135575965e-2
-0.1431776947961565,-7.719946592949423e-2
-0.14087383487083993,-7.70830817301058e-2
-0.13856997494552337,-7.699620916726535e-2
-0.1362661150202068,-7.668712477194883e-2
-0.13396225509489024,-7.723147629305394e-2
-0.13165839516957378,-7.683327942773477e-2
-0.12935453524425722,-7.670649667072149e-2
-0.12705067531894065,-7.608850414343826e-2
-0.1247468153936242,-7.533985011943511e-2
-0.12244295546830763,-7.515568545490314e-2
-0.12013909554299107,-7.598593955678856e-2
-0.1178352356176745,-7.61808932401512e-2
-0.11553137569235794,-7.66087900771425e-2
-0.11322751576704149,-7.651977799840293e-2
-0.11092365584172492,-7.680193933843404e-2
-0.10861979591640836,-7.699904633581034e-2
-0.10631593599109179,-7.696419402936983e-2
-0.10401207606577523,-7.675531935966351e-2
-0.10170821614045866,-7.717136441579042e-2
-9.94043562151421e-2,-7.564498164887146e-2
-9.710049628982564e-2,-7.557435324885087e-2
-9.479663636450908e-2,-7.590807762466611e-2
-9.249277643919251e-2,-7.560297316445297e-2
-9.018891651387606e-2,-7.57598881450896e-2
-8.78850565885595e-2,-7.601895687759774e-2
-8.558119666324293e-2,-7.637241501572489e-2
-8.327733673792637e-2,-7.634891747494976e-2
-8.09734768126098e-2,-7.641532512018223e-2
-7.866961688729335e-2,-7.647317319145708e-2
-7.636575696197667e-2,-7.659652584803678e-2
-7.406189703666022e-2,-7.661134093984012e-2
-7.175803711134365e-2,-7.635618974699288e-2
-6.945417718602709e-2,-7.642359179449998e-2
-6.715031726071052e-2,-7.641110170208132e-2
-6.484645733539396e-2,-7.64797759611493e-2
-6.25425974100775e-2,-7.645593303814524e-2
-6.023873748476094e-2,-7.645472879297677e-2
-5.7934877559444375e-2,-7.641368102030477e-2
-5.563101763412792e-2,-7.641899527089902e-2
-5.332715770881136e-2,-7.642002805675707e-2
-5.10232977834949e-2,-7.631400356356721e-2
-4.871943785817834e-2,-7.630707215362653e-2
-4.641557793286177e-2,-7.631084747962813e-2
-4.411171800754521e-2,-7.62496014202193e-2
-4.1807858082228755e-2,-7.624440647925557e-2
-3.950399815691219e-2,-7.623976286794809e-2
-3.7200138231595625e-2,-7.62983807557458e-2
-3.489627830627917e-2,-7.634300812683315e-2
-3.259241838096261e-2,-7.599912142618659e-2
-3.0288558455646042e-2,-7.608309286077497e-2
-2.7984698530329366e-2,-7.60847445135916e-2
-2.5680838605012912e-2,-7.611311768200546e-2
-2.3376978679696347e-2,-7.616610412683966e-2
-2.1073118754379783e-2,-7.606843125680018e-2
-1.876925882906333e-2,-7.580685934498965e-2
-1.6465398903746764e-2,-7.568981866951441e-2
-1.41615389784302e-2,-7.56172419279153e-2
-1.1857679053113634e-2,-7.54487939890579e-2
-9.55381912779707e-3,-7.544493551471965e-2
-7.249959202480616e-3,-7.544685165309173e-2
-4.946099277164051e-3,-7.52524746822929e-2
-2.6422393518474863e-3,-7.527916409891267e-2
-3.383794265310325e-4,-7.526423666683413e-2
1.9654804987856433e-3,-7.524635710875327e-2
4.269340424102097e-3,-7.528872568272293e-2
6.573200349418773e-3,-7.534242801021451e-2
8.877060274735227e-3,-7.529605829456298e-2
1.1180920200051792e-2,-7.534366152894734e-2
1.3484780125368245e-2,-7.538352919249403e-2
1.578864005068481e-2,-7.42961780885355e-2
1.8092499976001264e-2,-7.416651123179219e-2
2.039635990131794e-2,-7.408024741268993e-2
2.2700219826634616e-2,-7.385469221960239e-2
2.500407975195107e-2,-7.379434889668224e-2
2.7307939677267634e-2,-7.38022837414043e-2
2.9611799602584088e-2,-7.38324273723121e-2
3.191565952790065e-2,-7.37431224248728e-2
3.4219519453217107e-2,-7.378288588272874e-2
3.652337937853378e-2,-7.376787347733771e-2
3.8827239303850236e-2,-7.33789346878525e-2
4.113109922916691e-2,-7.329633655250234e-2
4.3434959154483366e-2,-7.290043368463595e-2
4.573881907979993e-2,-7.295777734562703e-2
4.8042679005116384e-2,-7.303661209543555e-2
5.034653893043295e-2,-7.331681111128885e-2
5.2650398855749625e-2,-7.337944826581011e-2
5.495425878106608e-2,-7.321752986076802e-2
5.7258118706382755e-2,-7.293497943893956e-2
5.956197863169921e-2,-7.252100450775978e-2
6.186583855701577e-2,-7.239617098632334e-2
6.416969848233223e-2,-7.195618980841534e-2
6.647355840764879e-2,-7.208678092853649e-2
6.877741833296525e-2,-7.237503735384543e-2
7.108127825828192e-2,-7.233529346080392e-2
7.338513818359838e-2,-7.206090091521677e-2
7.568899810891505e-2,-7.19447453513008e-2
7.79928580342315e-2,-7.163835997505141e-2
8.029671795954807e-2,-7.167786888207306e-2
8.260057788486463e-2,-7.198602364099049e-2
8.490443781018109e-2,-7.251705583127022e-2
8.720829773549776e-2,-7.22536318193292e-2
8.951215766081422e-2,-7.278604481476059e-2
9.18160175861309e-2,-7.257648590449961e-2
9.411987751144713e-2,-7.194605993903103e-2
9.64237374367638e-2,-7.154460771407645e-2
9.872759736208037e-2,-7.207571443420002e-2
0.10103145728739682,-7.135150333527418e-2
0.10333531721271338,-7.157401366382454e-2
0.10563917713802984,-7.189613244210802e-2
0.10794303706334651,-7.29391346007704e-2
0.11024689698866297,-7.376286469649651e-2
0.11255075691397964,-7.442667485830301e-2
0.1148546168392961,-7.570367352848772e-2
0.11715847676461266,-7.490237503971486e-2
0.11946233668992912,-7.487943650014905e-2
0.12176619661524568,-7.365221232697916e-2
0.12407005654056213,-7.376923427691096e-2
0.1263739164658788,-7.389786859903102e-2
0.12867777639119526,-7.326048469231417e-2
0.13098163631651194,-7.26599981392374e-2
0.1332854962418285,-7.270123471000134e-2
0.13558935616714496,-7.269992056155494e-2
0.13789321609246152,-7.2782376188406e-2
0.14019707601777798,-7.252973161118825e-2
0.14250093594309465,-7.262474200455937e-2
0.1448047958684111,-7.260882152050752e-2
0.14710865579372778,-7.150252591255635e-2
0.14941251571904424,-7.180176151954598e-2
0.1517163756443608,-7.16644442802904e-2
0.15402023556967726,-7.184870848652047e-2
0.15632409549499382,-7.209964407583169e-2
0.15862795542031027,-7.211212454373506e-2
0.16093181534562695,-7.184179295610793e-2
0.16323567527094363,-7.20332669571504e-2
0.16553953519626008,-7.223650568572848e-2
0.16784339512157664,-7.225086810323422e-2
0.1701472550468931,-7.223599729909291e-2
0.17245111497220966,-7.223328979076693e-2
0.17475497489752612,-7.231806119331263e-2
0.1770588348228428,-7.235386004892941e-2
0.17936269474815925,-7.233462263883539e-2
0.18166655467347592,-7.22827688714599e-2
0.18397041459879238,-7.229263901045235e-2
0.18627427452410894,-7.229209437759798e-2
0.1885781344494254,-7.229211762281351e-2
0.19088199437474196,-7.228372352543921e-2
0.1931858543000584,-7.228718379101395e-2
0.1954897142253751,-7.229512052487652e-2
0.19779357415069176,-7.219241174031321e-2
0.20009743407600822,-7.222178198653595e-2
0.20240129400132478,-7.228215640773872e-2
0.20470515392664124,-7.216454116279658e-2
0.2070090138519578,-7.226138018958006e-2
0.20931287377727426,-7.221322746956815e-2
0.21161673370259093,-7.209381780697399e-2
0.21392059362790738,-7.177965885869952e-2
0.21622445355322406,-7.176807429165954e-2
0.21852831347854051,-7.159166635910452e-2
0.22083217340385708,-7.152631648776275e-2
0.22313603332917353,-7.149625187250919e-2
0.2254398932544901,-7.13747973103318e-2
0.22774375317980677,-7.13711584300536e-2
0.23004761310512323,-7.124714982201752e-2
0.2323514730304399,-7.1248938073188e-2
0.23465533295575636,-7.122710491296214e-2
0.23695919288107292,-7.125339520871665e-2
0.23926305280638938,-7.112320534024874e-2
0.24156691273170594,-7.116879709963075e-2
0.2438707726570224,-7.111676510627452e-2
0.24617463258233885,-7.108070503366526e-2
0.24847849250765552,-7.097160724754581e-2
0.250782352432972,-7.07942323914933e-2
0.25308621235828865,-7.083579275044627e-2
0.2553900722836051,-7.072851349765374e-2
0.2576939322089218,-7.085712676157863e-2
0.259997792134238,-7.037961792237435e-2
0.2623016520595547,-7.023738735937612e-2
0.26460551198487114,-7.031732249288114e-2
0.2669093719101878,-7.031196698167863e-2
0.2692132318355043,-7.019181584282519e-2
0.27151709176082095,-7.007522642307495e-2
0.2738209516861374,-7.023005429522322e-2
0.27612481161145386,-7.016635062120846e-2
0.27842867153677053,-7.016000631352692e-2
0.280732531462087,-7.014397642560355e-2
0.28303639138740366,-6.954218816257518e-2
0.2853402513127201,-6.955736484341524e-2
0.2876441112380368,-6.966341981801816e-2
0.28994797116335325,-7.003355656608334e-2
0.2922518310886697,-7.022989284204573e-2
0.2945556910139864,-7.007926945094467e-2
0.29685955093930283,-6.93541053052047e-2
0.2991634108646193,-6.920257871516178e-2
0.30146727078993596,-6.883212819951523e-2
0.3037711307152524,-6.932194081306142e-2
0.3060749906405691,-7.02529046918583e-2
0.30837885056588554,-7.096706848585321e-2
0.3106827104912022,-7.030803065917368e-2
0.3129865704165187,-7.020780417805728e-2
0.3152904303418351,-6.917009346095704e-2
0.3175942902671518,-6.95859364736302e-2
0.31989815019246826,-6.978356896984417e-2
0.32220201011778493,-6.950601891093633e-2
0.3245058700431014,-6.8473813833282e-2
0.32680972996841806,-6.855402682343414e-2
0.3291135898937343,-6.770741711504291e-2
0.33141744981905097,-6.77651219085238e-2
0.3337213097443674,-6.792495071444882e-2
0.3360251696696841,-6.741035826701247e-2
0.3383290295950008,-6.681967230365993e-2
0.34063288952031723,-6.68172447027856e-2
0.3429367494456339,-6.697105149406057e-2
0.34524060937095014,-6.630705849177942e-2
0.3475444692962668,-6.643828873629765e-2
0.34984832922158327,-6.746919491477243e-2
0.35215218914689994,-6.71238221079894e-2
0.3544560490722164,-6.585671369870827e-2
0.35675990899753307,-6.710863719070337e-2
0.3590637689228495,-6.666870337290898e-2
0.361367628848166,-6.7260399483701e-2
0.36367148877348265,-6.656354342471116e-2
0.3659753486987991,-6.55576903134445e-2
0.36827920862411556,-6.619737281145888e-2
0.37058306854943224,-6.511560065318822e-2
0.3728869284747489,-6.554320580778672e-2
0.37519078840006537,-6.537033301555972e-2
0.3774946483253818,-6.398691899767917e-2
0.3797985082506985,-6.346218167151785e-2
0.38210236817601495,-6.41457505430093e-2
0.3844062281013314,-6.427811740662537e-2
0.3867100880266481,-6.424662994242014e-2
0.38901394795196453,-6.619101752095347e-2
0.391317807877281,-6.906356521005008e-2
0.39362166780259766,-6.747564346821722e-2
0.3959255277279141,-6.773685405218366e-2
0.39822938765323057,-6.73523356523491e-2
0.40053324757854725,-6.999210744298512e-2
0.4028371075038639,-6.90684966554469e-2
0.40514096742918015,-6.70321840138095e-2
0.40744482735449705,-6.576354504480675e-2
0.4097486872798133,-6.54958020525146e-2
0.4120525472051302,-6.620631161273127e-2
0.4143564071304464,-6.54432598064364e-2
0.4166602670557631,-6.535824413723701e-2
0.4189641269810793,-6.46826640596696e-2
0.4212679869063962,-6.500663062492851e-2
0.42357184683171245,-6.489877099578412e-2
0.42587570675702935,-6.540959708370941e-2
0.4281795666823456,-6.489986676034387e-2
0.43048342660766226,-6.555574244933449e-2
0.4327872865329787,-6.707119392561267e-2
0.4350911464582954,-7.003247239642207e-2"/>
  </g>
  <g stroke-opacity="0.5" fill-opacity="1.0" stroke="#3764a0" stroke-width="4.0e-3" fill="#ffffff">
    <rect height="0.1342572542226072" width="0.19784397108655827" x="0.5394847993242009" y="-6.74465492280435e-2"/>
  </g>
  <g fill-opacity="1.0" font-size="4.000000000000001e-2" stroke="none" stroke-width="0.0" fill="#666666" text-anchor="start">
    <text x="0.5510040989507838" y="3.1297495813099874e-2">rate = 0.99
    </text>
  </g>
  <g stroke-opacity="0.5" stroke="#431712" stroke-width="6.999999999999999e-3" fill="none">
    <polyline points="0.7007549940963589,2.5580735310717917e-2
0.7237935933495243,2.5580735310717917e-2"/>
  </g>
  <g fill-opacity="1.0" font-size="4.000000000000001e-2" stroke="none" stroke-width="0.0" fill="#666666" text-anchor="start">
    <text x="0.5510040989507838" y="-1.8074526707471894e-2">rate = 0.95
    </text>
  </g>
  <g stroke-opacity="0.5" stroke="#4b2282" stroke-width="6.999999999999999e-3" fill="none">
    <polyline points="0.7007549940963589,-2.3791287209853795e-2
0.7237935933495243,-2.3791287209853795e-2"/>
  </g>
</svg>