
<svg xmlns="http://www.w3.org/2000/svg" height="300.0" viewBox="-0.9104277680948124 -0.7283312039844088 1.7014318670455961 1.461347121816856" width="450.0" xmlns:xlink="http://www.w3.org/1999/xlink">
  <g transform="translate(-8.219640591007693e-2, -0.57175)" fill-opacity="1.0" font-size="8.0e-2" stroke="none" stroke-width="0.0" fill="#000000" text-anchor="middle">
    <text transform="rotate(0.0, -0.14087383487083993, -6.25812039844088e-2)" x="-0.14087383487083993" y="-6.25812039844088e-2">std beta
    </text>
  </g>
  <g stroke-opacity="0.0" fill-opacity="3.0e-2" stroke="#000000" stroke-width="0.0" fill="#666666">
    <rect height="0.8661758336942399" width="1.1519299626582706" x="-0.7168388161999752" y="-0.4956691208315287"/>
  </g>
  <g stroke-opacity="0.3" stroke="#a8e5ee" stroke-width="5.0e-3" fill="none">
    <polyline points="-0.7145349562746587,0.3748375920311824
-0.7145349562746587,-0.5"/>
  </g>
  <g stroke-opacity="0.3" stroke="#a8e5ee" stroke-width="5.0e-3" fill="none">
    <polyline points="-0.6661538978430113,0.3748375920311824
-0.6661538978430113,-0.5"/>
  </g>
  <g stroke-opacity="0.3" stroke="#a8e5ee" stroke-width="5.0e-3" fill="none">
    <polyline points="-0.5187068626227527,0.3748375920311824
-0.5187068626227527,-0.5"/>
  </g>
  <g stroke-opacity="0.3" stroke="#a8e5ee" stroke-width="5.0e-3" fill="none">
    <polyline points="-0.37356368732781053,0.3748375920311824
-0.37356368732781053,-0.5"/>
  </g>
  <g stroke-opacity="0.3" stroke="#a8e5ee" stroke-width="5.0e-3" fill="none">
    <polyline points="-0.2284205120328685,0.3748375920311824
-0.2284205120328685,-0.5"/>
  </g>
  <g stroke-opacity="0.3" stroke="#a8e5ee" stroke-width="5.0e-3" fill="none">
    <polyline points="-8.78850565885595e-2,0.3748375920311824
-8.78850565885595e-2,-0.5"/>
  </g>
  <g stroke-opacity="0.3" stroke="#a8e5ee" stroke-width="5.0e-3" fill="none">
    <polyline points="5.7258118706382755e-2,0.3748375920311824
5.7258118706382755e-2,-0.5"/>
  </g>
  <g stroke-opacity="0.3" stroke="#a8e5ee" stroke-width="5.0e-3" fill="none">
    <polyline points="0.20470515392664124,0.3748375920311824
0.20470515392664124,-0.5"/>
  </g>
  <g stroke-opacity="0.3" stroke="#a8e5ee" stroke-width="5.0e-3" fill="none">
    <polyline points="0.35215218914689994,0.3748375920311824
0.35215218914689994,-0.5"/>
  </g>
  <g stroke-opacity="0.3" stroke="#a8e5ee" stroke-width="5.0e-3" fill="none">
    <polyline points="0.4350911464582954,0.3748375920311824
0.4350911464582954,-0.5"/>
  </g>
  <g fill-opacity="1.0" font-size="5.0e-2" stroke="none" stroke-width="0.0" fill="#666666" text-anchor="end">
    <text transform="rotate(-45.0, -0.7145349562746587, 0.5)" x="-0.7145349562746587" y="0.5">28 Feb 2018
    </text>
  </g>
  <g fill-opacity="1.0" font-size="5.0e-2" stroke="none" stroke-width="0.0" fill="#666666" text-anchor="end">
    <text transform="rotate(-45.0, -0.6661538978430113, 0.5)" x="-0.6661538978430113" y="0.5">31 Mar 2018
    </text>
  </g>
  <g fill-opacity="1.0" font-size="5.0e-2" stroke="none" stroke-width="0.0" fill="#666666" text-anchor="end">
    <text transform="rotate(-45.0, -0.5187068626227527, 0.5)" x="-0.5187068626227527" y="0.5">30 Jun 2018
    </text>
  </g>
  <g fill-opacity="1.0" font-size="5.0e-2" stroke="none" stroke-width="0.0" fill="#666666" text-anchor="end">
    <text transform="rotate(-45.0, -0.37356368732781053, 0.5)" x="-0.37356368732781053" y="0.5">30 Sep 2018
    </text>
  </g>
  <g fill-opacity="1.0" font-size="5.0e-2" stroke="none" stroke-width="0.0" fill="#666666" text-anchor="end">
    <text transform="rotate(-45.0, -0.2284205120328685, 0.5)" x="-0.2284205120328685" y="0.5">31 Dec 2018
    </text>
  </g>
  <g fill-opacity="1.0" font-size="5.0e-2" stroke="none" stroke-width="0.0" fill="#666666" text-anchor="end">
    <text transform="rotate(-45.0, -8.78850565885595e-2, 0.5)" x="-8.78850565885595e-2" y="0.5">31 Mar 2019
    </text>
  </g>
  <g fill-opacity="1.0" font-size="5.0e-2" stroke="none" stroke-width="0.0" fill="#666666" text-anchor="end">
    <text transform="rotate(-45.0, 5.7258118706382755e-2, 0.5)" x="5.7258118706382755e-2" y="0.5">30 Jun 2019
    </text>
  </g>
  <g fill-opacity="1.0" font-size="5.0e-2" stroke="none" stroke-width="0.0" fill="#666666" text-anchor="end">
    <text transform="rotate(-45.0, 0.20470515392664124, 0.5)" x="0.20470515392664124" y="0.5">30 Sep 2019
    </text>
  </g>
  <g fill-opacity="1.0" font-size="5.0e-2" stroke="none" stroke-width="0.0" fill="#666666" text-anchor="end">
    <text transform="rotate(-45.0, 0.35215218914689994, 0.5)" x="0.35215218914689994" y="0.5">31 Dec 2019
    </text>
  </g>
  <g fill-opacity="1.0" font-size="5.0e-2" stroke="none" stroke-width="0.0" fill="#666666" text-anchor="end">
    <text transform="rotate(-45.0, 0.4350911464582954, 0.5)" x="0.4350911464582954" y="0.5">24 Feb 2020
    </text>
  </g>
  <g stroke-opacity="0.4" fill-opacity="1.0" stroke="#2c429d" stroke-width="5.0e-3" fill="#5f0391">
    <polyline points="-0.7145349562746587,0.4424577739281074
-0.7145349562746587,0.4124577739281074"/>
    <polyline points="-0.6661538978430113,0.4424577739281074
-0.6661538978430113,0.4124577739281074"/>
    <polyline points="-0.5187068626227527,0.4424577739281074
-0.5187068626227527,0.4124577739281074"/>
    <polyline points="-0.37356368732781053,0.4424577739281074
-0.37356368732781053,0.4124577739281074"/>
    <polyline points="-0.2284205120328685,0.4424577739281074
-0.2284205120328685,0.4124577739281074"/>
    <polyline points="-8.78850565885595e-2,0.4424577739281074
-8.78850565885595e-2,0.4124577739281074"/>
    <polyline points="5.7258118706382755e-2,0.4424577739281074
5.7258118706382755e-2,0.4124577739281074"/>
    <polyline points="0.20470515392664124,0.4424577739281074
0.20470515392664124,0.4124577739281074"/>
    <polyline points="0.35215218914689994,0.4424577739281074
0.35215218914689994,0.4124577739281074"/>
    <polyline points="0.4350911464582954,0.4424577739281074
0.4350911464582954,0.4124577739281074"/>
  </g>
  <g stroke-opacity="0.0" fill-opacity="0.5" stroke="#666666" stroke-width="0.0" fill="#5f0391">
    <rect height="4.330879168471247e-3" width="1.1519299626582706" x="-0.7168388161999752" y="0.4144651364226938"/>
  </g>
  <g stroke-opacity="0.3" stroke="#a8e5ee" stroke-width="5.0e-3" fill="none">
    <polyline points="-0.7197186411066209,0.3705067128627112
0.4379709713649409,0.3705067128627112"/>
  </g>
  <g stroke-opacity="0.3" stroke="#a8e5ee" stroke-width="5.0e-3" fill="none">
    <polyline points="-0.7197186411066209,0.2261440739136712
0.4379709713649409,0.2261440739136712"/>
  </g>
  <g stroke-opacity="0.3" stroke="#a8e5ee" stroke-width="5.0e-3" fill="none">
    <polyline points="-0.7197186411066209,8.17814349646312e-2
0.4379709713649409,8.17814349646312e-2"/>
  </g>
  <g stroke-opacity="0.3" stroke="#a8e5ee" stroke-width="5.0e-3" fill="none">
    <polyline points="-0.7197186411066209,-6.25812039844088e-2
0.4379709713649409,-6.25812039844088e-2"/>
  </g>
  <g stroke-opacity="0.3" stroke="#a8e5ee" stroke-width="5.0e-3" fill="none">
    <polyline points="-0.7197186411066209,-0.2069438429334487
0.4379709713649409,-0.2069438429334487"/>
  </g>
  <g stroke-opacity="0.3" stroke="#a8e5ee" stroke-width="5.0e-3" fill="none">
    <polyline points="-0.7197186411066209,-0.3513064818824887
0.4379709713649409,-0.3513064818824887"/>
  </g>
  <g stroke-opacity="0.3" stroke="#a8e5ee" stroke-width="5.0e-3" fill="none">
    <polyline points="-0.7197186411066209,-0.4956691208315287
0.4379709713649409,-0.4956691208315287"/>
  </g>
  <g fill-opacity="1.0" font-size="5.0e-2" stroke="none" stroke-width="0.0" fill="#666666" text-anchor="end">
    <text x="-0.75" y="0.3830662624512776">-60%
    </text>
  </g>
  <g fill-opacity="1.0" font-size="5.0e-2" stroke="none" stroke-width="0.0" fill="#666666" text-anchor="end">
    <text x="-0.75" y="0.23870362350223773">-40%
    </text>
  </g>
  <g fill-opacity="1.0" font-size="5.0e-2" stroke="none" stroke-width="0.0" fill="#666666" text-anchor="end">
    <text x="-0.75" y="9.434098455319773e-2">-20%
    </text>
  </g>
  <g fill-opacity="1.0" font-size="5.0e-2" stroke="none" stroke-width="0.0" fill="#666666" text-anchor="end">
    <text x="-0.75" y="-5.0021654395842385e-2">0%
    </text>
  </g>
  <g fill-opacity="1.0" font-size="5.0e-2" stroke="none" stroke-width="0.0" fill="#666666" text-anchor="end">
    <text x="-0.75" y="-0.19438429334488216">20%
    </text>
  </g>
  <g fill-opacity="1.0" font-size="5.0e-2" stroke="none" stroke-width="0.0" fill="#666666" text-anchor="end">
    <text x="-0.75" y="-0.3387469322939223">40%
    </text>
  </g>
  <g fill-opacity="1.0" font-size="5.0e-2" stroke="none" stroke-width="0.0" fill="#666666" text-anchor="end">
    <text x="-0.75" y="-0.4831095712429623">60%
    </text>
  </g>
  <g stroke-opacity="0.4" fill-opacity="1.0" stroke="#2c429d" stroke-width="5.0e-3" fill="#5f0391">
    <g transform="rotate(-90.0, -0.7312379407332036, 0.3705067128627112)">
      <polyline points="-0.7312379407332036,0.3855067128627112
-0.7312379407332036,0.3555067128627112"/>
    </g>
    <g transform="rotate(-90.0, -0.7312379407332036, 0.2261440739136712)">
      <polyline points="-0.7312379407332036,0.2411440739136712
-0.7312379407332036,0.21114407391367118"/>
    </g>
    <g transform="rotate(-90.0, -0.7312379407332036, 8.17814349646312e-2)">
      <polyline points="-0.7312379407332036,9.67814349646312e-2
-0.7312379407332036,6.67814349646312e-2"/>
    </g>
    <g transform="rotate(-90.0, -0.7312379407332036, -6.25812039844088e-2)">
      <polyline points="-0.7312379407332036,-4.758120398440881e-2
-0.7312379407332036,-7.75812039844088e-2"/>
    </g>
    <g transform="rotate(-90.0, -0.7312379407332036, -0.2069438429334487)">
      <polyline points="-0.7312379407332036,-0.19194384293344868
-0.7312379407332036,-0.2219438429334487"/>
    </g>
    <g transform="rotate(-90.0, -0.7312379407332036, -0.3513064818824887)">
      <polyline points="-0.7312379407332036,-0.3363064818824887
-0.7312379407332036,-0.3663064818824887"/>
    </g>
    <g transform="rotate(-90.0, -0.7312379407332036, -0.4956691208315287)">
      <polyline points="-0.7312379407332036,-0.4806691208315287
-0.7312379407332036,-0.5106691208315287"/>
    </g>
  </g>
  <g stroke-opacity="0.0" fill-opacity="0.5" stroke="#666666" stroke-width="0.0" fill="#5f0391">
    <rect height="0.8661758336942399" width="2.8798249066456227e-3" x="-0.7254782909199122" y="-0.4956691208315287"/>
  </g>
  <g stroke-opacity="0.5" stroke="#ac0505" stroke-width="2.0e-3" fill="none">
    <polyline points="-0.7145349562746587,-6.25812039844088e-2
0.4350911464582954,-6.25812039844088e-2"/>
  </g>
  <g stroke-opacity="0.5" stroke="#4b2282" stroke-width="7.0e-3" fill="none">
    <polyline points="-0.7145349562746587,-8.691582556798239e-2
-0.7122310963493421,-7.595601138821417e-2
-0.7099272364240256,-8.009105640922232e-2
-0.707623376498709,-8.673090062793243e-2
-0.7053195165733925,-8.829795181541145e-2
-0.703015656648076,-8.793282478249143e-2
-0.7007117967227594,-8.978091917888098e-2
-0.6984079367974428,-9.318260312855975e-2
-0.6961040768721263,-9.204051870600216e-2
-0.6938002169468098,-8.882928736054752e-2
-0.6914963570214933,-8.65076771236627e-2
-0.6891924970961767,-8.621829972215256e-2
-0.6868886371708601,-8.640919760155386e-2
-0.6845847772455436,-8.344279922803077e-2
-0.6822809173202271,-8.364383385588414e-2
-0.6799770573949105,-8.355614715605908e-2
-0.677673197469594,-7.967386734743831e-2
-0.6753693375442774,-7.272526627499387e-2
-0.673065477618961,-7.870366171634302e-2
-0.6707616176936444,-6.907351800076877e-2
-0.6684577577683278,-6.852078174759824e-2
-0.6661538978430113,-7.510081048354733e-2
-0.6638500379176948,-6.474799597346315e-2
-0.6615461779923782,-7.174775762410135e-2
-0.6592423180670617,-7.743853113678112e-2
-0.6569384581417451,-8.067959108292921e-2
-0.6546345982164286,-7.086768355712625e-2
-0.6523307382911121,-7.299196804536356e-2
-0.6500268783657955,-7.848619024747916e-2
-0.647723018440479,-7.637364434076921e-2
-0.6454191585151624,-7.89697857656586e-2
-0.6431152985898458,-7.818484778788992e-2
-0.6408114386645294,-7.963171939959113e-2
-0.6385075787392128,-8.076888885481315e-2
-0.6362037188138963,-8.080230042063097e-2
-0.6338998588885797,-8.019338979501889e-2
-0.6315959989632631,-7.972485925832551e-2
-0.6292921390379467,-7.971645828066276e-2
-0.6269882791126301,-8.013108221307674e-2
-0.6246844191873135,-7.984332257377569e-2
-0.622380559261997,-7.728473151264759e-2
-0.6200766993366804,-7.706328519263939e-2
-0.617772839411364,-7.869998690261193e-2
-0.6154689794860474,-7.777078025071837e-2
-0.6131651195607308,-7.995216824368823e-2
-0.6108612596354144,-8.058667536062925e-2
-0.6085573997100978,-7.293587849248961e-2
-0.6062535397847812,-7.143811895801933e-2
-0.6039496798594648,-7.161563828153772e-2
-0.6016458199341481,-6.589432472610213e-2
-0.5993419600088317,-6.096658042505787e-2
-0.5970381000835151,-6.056119128300885e-2
-0.5947342401581985,-6.0660747349527866e-2
-0.592430380232882,-6.658277329299056e-2
-0.5901265203075654,-6.392290425461633e-2
-0.587822660382249,-6.534143416917881e-2
-0.5855188004569324,-6.85166246124671e-2
-0.5832149405316158,-6.1434184149717797e-2
-0.5809110806062993,-6.566827113834495e-2
-0.5786072206809827,-6.277043345540179e-2
-0.5763033607556662,-6.625268975824017e-2
-0.5739995008303497,-7.022988114079087e-2
-0.5716956409050331,-8.485261427269164e-2
-0.5693917809797165,-6.957176162754986e-2
-0.5670879210544,-7.558695326630827e-2
-0.5647840611290835,-6.607182811269963e-2
-0.562480201203767,-6.325275182510459e-2
-0.5601763412784504,-6.341424124995032e-2
-0.5578724813531338,-5.644382501795209e-2
-0.5555686214278173,-5.828887387882564e-2
-0.5532647615025008,-5.629236209320854e-2
-0.5509609015771842,-5.6520752972893384e-2
-0.5486570416518677,-5.590663033344967e-2
-0.5463531817265511,-6.332277507854212e-2
-0.5440493218012346,-6.125492043822134e-2
-0.5417454618759181,-6.45126122504478e-2
-0.5394416019506015,-6.963220244119495e-2
-0.537137742025285,-7.780014335737795e-2
-0.5348338820999685,-7.576810022703517e-2
-0.5325300221746518,-8.778054882176045e-2
-0.5302261622493354,-8.488569754929132e-2
-0.5279223023240188,-0.10235301305527023
-0.5256184423987023,-9.927443988498053e-2
-0.5233145824733857,-0.1061971035479724
-0.5210107225480691,-9.718513683891328e-2
-0.5187068626227527,-9.605956726708598e-2
-0.516403002697436,-9.183852883343113e-2
-0.5140991427721195,-9.703453953405017e-2
-0.5117952828468031,-8.350815180039894e-2
-0.5094914229214865,-7.369140146810793e-2
-0.50718756299617,-6.583005467752379e-2
-0.5048837030708534,-6.381640091082308e-2
-0.5025798431455368,-7.068602808801638e-2
-0.5002759832202204,-6.424386891887368e-2
-0.4979721232949038,-6.423824264101174e-2
-0.49566826336958725,-6.595232105687598e-2
-0.4933644034442707,-6.309055548651898e-2
-0.4910605435189542,-6.198752163855703e-2
-0.4887566835936376,-6.798589534868593e-2
-0.4864528236683211,-7.021195354802057e-2
-0.48414896374300453,-6.882499704419442e-2
-0.481845103817688,-6.293196256979561e-2
-0.47954124389237146,-5.149012417517862e-2
-0.4772373839670549,-5.7479574836627245e-2
-0.47493352404173844,-6.7423150170282e-2
-0.47262966411642193,-7.400193103024821e-2
-0.47032580419110537,-6.94328640059021e-2
-0.4680219442657888,-7.126667848392398e-2
-0.46571808434047224,-6.604663199138938e-2
-0.46341422441515573,-6.138096562819617e-2
-0.46111036448983916,-5.816821844886155e-2
-0.45880650456452265,-5.58314279732357e-2
-0.4565026446392061,-5.826293953503092e-2
-0.4541987847138896,-6.284967713083378e-2
-0.45189492478857296,-7.635017950548995e-2
-0.44959106486325645,-8.216914230534955e-2
-0.44728720493793994,-7.30968556268734e-2
-0.4449833450126234,-8.14154419609322e-2
-0.4426794850873068,-7.336615089789444e-2
-0.4403756251619903,-7.139873587902557e-2
-0.4380717652366738,-7.001606492375556e-2
-0.4357679053113572,-6.883008676848668e-2
-0.43346404538604066,-7.035263100351619e-2
-0.4311601854607241,-7.36133049868164e-2
-0.4288563255354076,-6.555399930476447e-2
-0.426552465610091,-5.7129395709713315e-2
-0.4242486056847745,-5.834546985195943e-2
-0.42194474575945795,-5.3026908476790036e-2
-0.4196408858341414,-6.0859996277675465e-2
-0.4173370259088248,-6.208964570175746e-2
-0.4150331659835083,-6.574866988756367e-2
-0.4127293060581918,-7.094398951546865e-2
-0.41042544613287524,-7.684299303997078e-2
-0.4081215862075587,-8.053092161610131e-2
-0.4058177262822421,-7.826714754353736e-2
-0.4035138663569256,-7.25530631442447e-2
-0.40121000643160903,-7.315186269573715e-2
-0.3989061465062925,-6.394419107283489e-2
-0.39660228658097596,-6.512586368392648e-2
-0.39429842665565945,-7.694233858209232e-2
-0.3919945667303429,-6.873585380951275e-2
-0.3896907068050263,-6.804028381674432e-2
-0.3873868468797098,-5.675639064146809e-2
-0.38508298695439325,-5.8659544742377334e-2
-0.3827791270290768,-6.501576806793452e-2
-0.38047526710376023,-6.780342879395429e-2
-0.37817140717844366,-7.326127540528227e-2
-0.37586754725312715,-6.99864514977564e-2
-0.37356368732781053,-7.102870944287787e-2
-0.371259827402494,-6.551806271691307e-2
-0.3689559674771775,-6.768493657080421e-2
-0.36665210755186095,-6.769762246466582e-2
-0.3643482476265444,-8.288602054156624e-2
-0.3620443877012279,-8.667835070906127e-2
-0.35974052777591137,-8.69657209145932e-2
-0.3574366678505948,-8.822351682003982e-2
-0.35513280792527824,-7.784497117060718e-2
-0.35282894799996173,-4.564733962889689e-2
-0.3505250880746452,-7.503080660907102e-2
-0.34822122814932865,-6.773066899245528e-2
-0.3459173682240121,-9.675231197845069e-2
-0.3436135082986956,-9.784264527617215e-2
-0.34130964837337896,-7.54433805156326e-2
-0.3390057884480624,-7.722836112122267e-2
-0.3367019285227459,-7.326117784836617e-2
-0.3343980685974294,-6.814478840765203e-2
-0.3320942086721128,-4.194288551482772e-2
-0.32979034874679625,-6.927437498467448e-2
-0.32748648882147974,-5.0726126218099354e-2
-0.32518262889616323,-4.640957100922505e-2
-0.32287876897084666,-6.724181428012155e-2
-0.3205749090455301,-8.070877738886983e-2
-0.3182710491202136,-9.207208904835962e-2
-0.3159671891948971,-8.647565275479485e-2
-0.3136633292695805,-9.234706137651016e-2
-0.31135946934426395,-9.785387849437421e-2
-0.30905560941894744,-0.10731623548401259
-0.30675174949363093,-0.10466517281143362
-0.30444788956831437,-9.633723925053328e-2
-0.3021440296429978,-8.006512551479239e-2
-0.2998401697176813,-7.978037107855329e-2
-0.2975363097923648,-7.538667727656201e-2
-0.2952324498670482,-8.14035855181755e-2
-0.29292858994173165,-8.302477803195951e-2
-0.29062473001641514,-7.424791793527619e-2
-0.28832087009109864,-6.560145293350816e-2
-0.28601701016578207,-6.832241313329224e-2
-0.28371315024046545,-6.627177395600248e-2
-0.28140929031514894,-7.183440222081183e-2
-0.2791054303898324,-7.373003748941209e-2
-0.2768015704645158,-7.877150899070484e-2
-0.2744977105391993,-7.767232442837713e-2
-0.2721938506138828,-8.064441601797745e-2
-0.26988999068856623,-8.36187913097598e-2
-0.26758613076324966,-6.976978721575555e-2
-0.26528227083793315,-6.936901542948037e-2
-0.26297841091261664,-5.835945442697443e-2
-0.2606745509873001,-6.0445116216044315e-2
-0.2583706910619835,-6.115587844393888e-2
-0.256066831136667,-6.410795272468983e-2
-0.2537629712113504,-6.453272421631862e-2
-0.2514591112860338,-5.969794100346171e-2
-0.24915525136071737,-5.45455301488722e-2
-0.2468513914354008,-5.571205981651395e-2
-0.24454753151008424,-5.262090666163832e-2
-0.24224367158476767,-4.996060788270118e-2
-0.2399398116594511,-4.722923342365759e-2
-0.23763595173413465,-4.409399077027365e-2
-0.2353320918088182,-6.254696058588716e-2
-0.23302823188350164,-7.030567350898964e-2
-0.23072437195818507,-7.130063641193807e-2
-0.2284205120328685,-7.730946613665446e-2
-0.22611665210755194,-7.908217014121821e-2
-0.22381279218223538,-6.789999174617123e-2
-0.2215089322569188,-8.075490148826847e-2
-0.21920507233160236,-8.495088690947772e-2
-0.2169012124062858,-8.960293126161234e-2
-0.21459735248096923,-9.148872877571923e-2
-0.21229349255565277,-9.319464984765335e-2
-0.2099896326303362,-9.312607477542689e-2
-0.20768577270501964,-9.149523053393982e-2
-0.20538191277970308,-9.322299768982911e-2
-0.20307805285438651,-9.35531531128565e-2
-0.20077419292907006,-9.411202986004241e-2
-0.1984703330037535,-9.399168391611668e-2
-0.19616647307843693,-9.160376024550643e-2
-0.19386261315312037,-9.166787630534445e-2
-0.1915587532278038,-9.165578995303714e-2
-0.18925489330248724,-9.063125215672774e-2
-0.18695103337717067,-9.116539475409213e-2
-0.18464717345185422,-9.147768981743187e-2
-0.18234331352653765,-8.655181293813918e-2
-0.1800394536012211,-8.472685226023013e-2
-0.17773559367590464,-8.491773748598552e-2
-0.17543173375058807,-8.307643356473826e-2
-0.1731278738252714,-8.19364937983621e-2
-0.17082401389995483,-8.376026180240392e-2
-0.16852015397463838,-8.851917770966222e-2
-0.1662162940493218,-8.881185749218612e-2
-0.16391243412400536,-8.911418969210838e-2
-0.1616085741986888,-8.03051405124997e-2
-0.15930471427337234,-7.949127276441326e-2
-0.15700085434805577,-8.260208216508769e-2
-0.1546969944227392,-7.483445747126449e-2
-0.15239313449742264,-7.52898877967072e-2
-0.15008927457210608,-7.552690742784784e-2
-0.14778541464678963,-8.068532570575615e-2
-0.14548155472147306,-7.577854754167002e-2
-0.1431776947961565,-7.659721933655039e-2
-0.14087383487083993,-7.978212411095875e-2
-0.13856997494552337,-8.272301779404667e-2
-0.1362661150202068,-8.859251482894714e-2
-0.13396225509489024,-8.052835114288404e-2
-0.13165839516957378,-8.829866948144705e-2
-0.12935453524425722,-9.207562356197829e-2
-0.12705067531894065,-0.10296575639740391
-0.1247468153936242,-0.11413712809893961
-0.12244295546830763,-0.11769165730898423
-0.12013909554299107,-9.131112061633717e-2
-0.1178352356176745,-8.901645070787256e-2
-0.11553137569235794,-8.11727678698303e-2
-0.11322751576704149,-8.412628440908365e-2
-0.11092365584172492,-7.879562180104982e-2
-0.10861979591640836,-7.546599336949533e-2
-0.10631593599109179,-7.822878224321295e-2
-0.10401207606577523,-8.551683552765721e-2
-0.10170821614045866,-6.825907769806017e-2
-9.94043562151421e-2,-9.0471633496374e-2
-9.710049628982564e-2,-9.13705548140098e-2
-9.479663636450908e-2,-8.606960726268331e-2
-9.249277643919251e-2,-8.960018705831718e-2
-9.018891651387606e-2,-8.719066001765852e-2
-8.78850565885595e-2,-8.151894793860037e-2
-8.558119666324293e-2,-7.129324686176397e-2
-8.327733673792637e-2,-7.254267123348235e-2
-8.09734768126098e-2,-7.203051492612422e-2
-7.866961688729335e-2,-7.15427181088788e-2
-7.636575696197667e-2,-6.809443147345817e-2
-7.406189703666022e-2,-6.898947576896519e-2
-7.175803711134365e-2,-7.868469397947164e-2
-6.945417718602709e-2,-7.593310379854334e-2
-6.715031726071052e-2,-7.786187104037001e-2
-6.484645733539396e-2,-6.977552409812704e-2
-6.25425974100775e-2,-7.319645793674878e-2
-6.023873748476094e-2,-7.486464903122925e-2
-5.7934877559444375e-2,-8.126633678455952e-2
-5.563101763412792e-2,-8.073100680627987e-2
-5.332715770881136e-2,-8.131924982606054e-2
-5.10232977834949e-2,-6.487157326977877e-2
-4.871943785817834e-2,-7.215995991711122e-2
-4.641557793286177e-2,-7.577253528505024e-2
-4.411171800754521e-2,-6.865806589151924e-2
-4.1807858082228755e-2,-6.970490393917905e-2
-3.950399815691219e-2,-7.105702142670867e-2
-3.7200138231595625e-2,-9.024215884127507e-2
-3.489627830627917e-2,-9.605567812919391e-2
-3.259241838096261e-2,-7.622522284491084e-2
-3.0288558455646042e-2,-8.47380264404809e-2
-2.7984698530329366e-2,-9.667309896673937e-2
-2.5680838605012912e-2,-9.700910312443767e-2
-2.3376978679696347e-2,-9.782582973637188e-2
-2.1073118754379783e-2,-9.536755102381234e-2
-1.876925882906333e-2,-8.977162816121254e-2
-1.6465398903746764e-2,-9.363378438317682e-2
-1.41615389784302e-2,-9.657733655748635e-2
-1.1857679053113634e-2,-9.931150235488051e-2
-9.55381912779707e-3,-9.522426273678708e-2
-7.249959202480616e-3,-9.118370604692272e-2
-4.946099277164051e-3,-9.298671493713839e-2
-2.6422393518474863e-3,-9.16865245389098e-2
-3.383794265310325e-4,-8.556478699140757e-2
1.9654804987856433e-3,-8.632243212914925e-2
4.269340424102097e-3,-8.318015869679185e-2
6.573200349418773e-3,-8.116572920134135e-2
8.877060274735227e-3,-8.164695563779722e-2
1.1180920200051792e-2,-7.853153955403658e-2
1.3484780125368245e-2,-7.829447369855758e-2
1.578864005068481e-2,-7.521238409603392e-2
1.8092499976001264e-2,-8.025404165513494e-2
2.039635990131794e-2,-8.372161563835989e-2
2.2700219826634616e-2,-8.779084010325644e-2
2.500407975195107e-2,-8.975270490000797e-2
2.7307939677267634e-2,-8.920680813678894e-2
2.9611799602584088e-2,-8.809715754002556e-2
3.191565952790065e-2,-8.87422808594831e-2
3.4219519453217107e-2,-8.82700312453617e-2
3.652337937853378e-2,-8.828109015486896e-2
3.8827239303850236e-2,-8.603294303622644e-2
4.113109922916691e-2,-8.589201022538417e-2
4.3434959154483366e-2,-8.341194086597337e-2
4.573881907979993e-2,-8.365461457183476e-2
4.8042679005116384e-2,-8.423474114221041e-2
5.034653893043295e-2,-8.548283574372417e-2
5.2650398855749625e-2,-8.577750165149423e-2
5.495425878106608e-2,-8.461484938079233e-2
5.7258118706382755e-2,-8.214773341670245e-2
5.956197863169921e-2,-7.836742894501414e-2
6.186583855701577e-2,-7.760530766053464e-2
6.416969848233223e-2,-7.34353416026402e-2
6.647355840764879e-2,-7.54687540584501e-2
6.877741833296525e-2,-7.927567808227776e-2
7.108127825828192e-2,-7.930860011856344e-2
7.338513818359838e-2,-7.644230796634355e-2
7.568899810891505e-2,-7.564109456976631e-2
7.79928580342315e-2,-7.212715518656843e-2
8.029671795954807e-2,-7.383504391704998e-2
8.260057788486463e-2,-7.987001853546472e-2
8.490443781018109e-2,-8.817693038988794e-2
8.720829773549776e-2,-8.495172633693393e-2
8.951215766081422e-2,-9.183762470448797e-2
9.18160175861309e-2,-8.932152826428619e-2
9.411987751144713e-2,-8.090972653086892e-2
9.64237374367638e-2,-7.646348919741708e-2
9.872759736208037e-2,-8.333082291784233e-2
0.10103145728739682,-7.524795696123643e-2
0.10333531721271338,-7.8086669199398e-2
0.10563917713802984,-8.198058118467766e-2
0.10794303706334651,-9.040510920463374e-2
0.11024689698866297,-9.221734876311738e-2
0.11255075691397964,-9.262487728057112e-2
0.1148546168392961,-8.061544498101214e-2
0.11715847676461266,-9.234581969584521e-2
0.11946233668992912,-9.443436491255375e-2
0.12176619661524568,-0.10403620880668174
0.12407005654056213,-9.626497405610446e-2
0.1263739164658788,-8.276363892560334e-2
0.12867777639119526,-9.413268390429408e-2
0.13098163631651194,-6.428542567468454e-2
0.1332854962418285,-6.894555646815703e-2
0.13558935616714496,-8.350455394100509e-2
0.13789321609246152,-9.454455535045392e-2
0.14019707601777798,-8.643153234795364e-2
0.14250093594309465,-9.338193761143365e-2
0.1448047958684111,-9.299568869552788e-2
0.14710865579372778,-7.096017318272352e-2
0.14941251571904424,-8.061353616538414e-2
0.1517163756443608,-7.859627800401547e-2
0.15402023556967726,-8.365281216527087e-2
0.15632409549499382,-9.074299892368753e-2
0.15862795542031027,-9.106624591591528e-2
0.16093181534562695,-8.660625218340468e-2
0.16323567527094363,-9.081177617716707e-2
0.16553953519626008,-9.475976466112723e-2
0.16784339512157664,-9.472473165692552e-2
0.1701472550468931,-9.430844838168373e-2
0.17245111497220966,-9.412953388028333e-2
0.17475497489752612,-9.480274212705986e-2
0.1770588348228428,-9.498653167347726e-2
0.17936269474815925,-9.483086216129977e-2
0.18166655467347592,-9.472098124785366e-2
0.18397041459879238,-9.447839867445051e-2
0.18627427452410894,-9.462744621903407e-2
0.1885781344494254,-9.493154344555343e-2
0.19088199437474196,-9.669929869308236e-2
0.1931858543000584,-9.705713954397277e-2
0.1954897142253751,-0.10028335735447769
0.19779357415069176,-9.621235226217273e-2
0.20009743407600822,-9.774130659308089e-2
0.20240129400132478,-0.10077346662279396
0.20470515392664124,-9.646770302356455e-2
0.2070090138519578,-0.10175822766152554
0.20931287377727426,-0.10281060073664305
0.21161673370259093,-9.933137972194028e-2
0.21392059362790738,-9.274780527552817e-2
0.21622445355322406,-9.239861814564687e-2
0.21852831347854051,-8.973539762932115e-2
0.22083217340385708,-8.909723923186796e-2
0.22313603332917353,-8.899281514870228e-2
0.2254398932544901,-8.764436780734053e-2
0.22774375317980677,-8.749430822360316e-2
0.23004761310512323,-8.587823183733856e-2
0.2323514730304399,-8.58680669422982e-2
0.23465533295575636,-8.553406204960978e-2
0.23695919288107292,-8.626989055648182e-2
0.23926305280638938,-8.378220691128047e-2
0.24156691273170594,-8.502210626747664e-2
0.2438707726570224,-8.39939554870287e-2
0.24617463258233885,-8.333619439657369e-2
0.24847849250765552,-8.10615724849636e-2
0.250782352432972,-7.738464423734048e-2
0.25308621235828865,-7.895362324159738e-2
0.2553900722836051,-7.689295796980422e-2
0.2576939322089218,-8.095169466734431e-2
0.259997792134238,-7.080103305980279e-2
0.2623016520595547,-6.850826808619026e-2
0.26460551198487114,-7.142954583296557e-2
0.2669093719101878,-7.225247405425705e-2
0.2692132318355043,-7.038613458116627e-2
0.27151709176082095,-6.869547207900273e-2
0.2738209516861374,-7.41016543762213e-2
0.27612481161145386,-7.366156391735823e-2
0.27842867153677053,-7.478104181159384e-2
0.280732531462087,-7.568315111747115e-2
0.28303639138740366,-6.186664802740771e-2
0.2853402513127201,-6.405524646931904e-2
0.2876441112380368,-6.864128420345195e-2
0.28994797116335325,-7.987989263060258e-2
0.2922518310886697,-8.57721546357042e-2
0.2945556910139864,-8.304013523735876e-2
0.29685955093930283,-6.669145722945602e-2
0.2991634108646193,-6.488831094148872e-2
0.30146727078993596,-5.826014613614039e-2
0.3037711307152524,-7.203310801632645e-2
0.3060749906405691,-9.071566302710188e-2
0.30837885056588554,-9.957727212062362e-2
0.3106827104912022,-8.991919402144943e-2
0.3129865704165187,-8.887834206586143e-2
0.3152904303418351,-7.512830921718483e-2
0.3175942902671518,-7.956144732867632e-2
0.31989815019246826,-8.184853502866052e-2
0.32220201011778493,-7.903962611308091e-2
0.3245058700431014,-6.748945624336877e-2
0.32680972996841806,-6.896255802360762e-2
0.3291135898937343,-6.1208868958715246e-2
0.33141744981905097,-6.273608417766197e-2
0.3337213097443674,-6.54428671135201e-2
0.3360251696696841,-6.074698273360457e-2
0.3383290295950008,-5.534669362641942e-2
0.34063288952031723,-5.6842581723679175e-2
0.3429367494456339,-6.044783404769549e-2
0.34524060937095014,-5.3442805626782275e-2
0.3475444692962668,-5.712023785156328e-2
0.34984832922158327,-7.26719525423476e-2
0.35215218914689994,-6.983432563537628e-2
0.3544560490722164,-5.735533352370603e-2
0.35675990899753307,-6.925608029119645e-2
0.3590637689228495,-6.723580461085354e-2
0.361367628848166,-7.125896284621414e-2
0.36367148877348265,-6.724740404342655e-2
0.3659753486987991,-6.1496766308356876e-2
0.36827920862411556,-6.595189929221767e-2
0.37058306854943224,-6.048860563648384e-2
0.3728869284747489,-6.337057809632862e-2
0.37519078840006537,-6.303868559361436e-2
0.3774946483253818,-5.5662915578058136e-2
0.3797985082506985,-5.397578501307043e-2
0.38210236817601495,-5.90555976810776e-2
0.3844062281013314,-6.055992239773034e-2
0.3867100880266481,-6.12120378199823e-2
0.38901394795196453,-7.320618448478966e-2
0.391317807877281,-7.321500739190434e-2
0.39362166780259766,-7.961582010587931e-2
0.3959255277279141,-7.797113618348372e-2
0.39822938765323057,-7.98795758105737e-2
0.40053324757854725,-6.548335095349966e-2
0.4028371075038639,-7.421030425570074e-2
0.40514096742918015,-8.677213640970094e-2
0.40744482735449705,-9.713956129250811e-2
0.4097486872798133,-9.941039669484686e-2
0.4120525472051302,-9.008959536879768e-2
0.4143564071304464,-9.568387506108555e-2
0.4166602670557631,-9.58490593231095e-2
0.4189641269810793,-9.936732605069099e-2
0.4212679869063962,-9.628117697992966e-2
0.42357184683171245,-9.64394247536845e-2
0.42587570675702935,-9.329166967710956e-2
0.4281795666823456,-9.440969303539115e-2
0.43048342660766226,-9.162593065532554e-2
0.4327872865329787,-8.473048460880694e-2
0.4350911464582954,-6.479327611985652e-2"/>
  </g>
  <g stroke-opacity="0.5" stroke="#431712" stroke-width="7.0e-3" fill="none">
    <polyline points="-0.7145349562746587,-6.696314677469795e-2
-0.7122310963493421,-6.294750385514247e-2
-0.7099272364240256,-6.427563336994757e-2
-0.707623376498709,-6.717539414548124e-2
-0.7053195165733925,-6.775502700121816e-2
-0.703015656648076,-6.745924881063681e-2
-0.7007117967227594,-6.850286875478862e-2
-0.6984079367974428,-7.254542846935741e-2
-0.6961040768721263,-7.198419344681872e-2
-0.6938002169468098,-7.002551682143476e-2
-0.6914963570214933,-6.829828466696797e-2
-0.6891924970961767,-6.79320484216357e-2
-0.6868886371708601,-6.8211175248308e-2
-0.6845847772455436,-6.440116876984314e-2
-0.6822809173202271,-6.465719905873335e-2
-0.6799770573949105,-6.407814316085503e-2
-0.677673197469594,-5.818559035942117e-2
-0.6753693375442774,-5.3261271410674715e-2
-0.673065477618961,-6.0520376580951774e-2
-0.6707616176936444,-5.596341444570718e-2
-0.6684577577683278,-5.515508484900378e-2
-0.6661538978430113,-5.890091579650303e-2
-0.6638500379176948,-5.33700838361546e-2
-0.6615461779923782,-5.6878725395496876e-2
-0.6592423180670617,-5.998803597342306e-2
-0.6569384581417451,-6.176510499766574e-2
-0.6546345982164286,-5.621438473328422e-2
-0.6523307382911121,-5.7097236187613754e-2
-0.6500268783657955,-6.1462035351373956e-2
-0.647723018440479,-5.996061021653398e-2
-0.6454191585151624,-6.204194145911657e-2
-0.6431152985898458,-6.1240060267298335e-2
-0.6408114386645294,-6.321272002985634e-2
-0.6385075787392128,-6.57398194857185e-2
-0.6362037188138963,-6.584478266878158e-2
-0.6338998588885797,-6.434466105919967e-2
-0.6315959989632631,-6.2211943494576705e-2
-0.6292921390379467,-6.216405782715273e-2
-0.6269882791126301,-5.903918420957843e-2
-0.6246844191873135,-5.943879101972005e-2
-0.622380559261997,-6.178841862998119e-2
-0.6200766993366804,-6.198641776239566e-2
-0.617772839411364,-6.01210704846159e-2
-0.6154689794860474,-6.0646623279592915e-2
-0.6131651195607308,-5.906405157994221e-2
-0.6108612596354144,-5.8561018416032895e-2
-0.6085573997100978,-6.123607571381928e-2
-0.6062535397847812,-6.191336275389159e-2
-0.6039496798594648,-6.180801539603775e-2
-0.6016458199341481,-6.368870817366135e-2
-0.5993419600088317,-6.545481871136805e-2
-0.5970381000835151,-6.570673308544384e-2
-0.5947342401581985,-6.579253918397887e-2
-0.592430380232882,-6.439640882568853e-2
-0.5901265203075654,-6.508011403902247e-2
-0.587822660382249,-6.48482936384438e-2
-0.5855188004569324,-6.430339913202177e-2
-0.5832149405316158,-6.551309858722898e-2
-0.5809110806062993,-6.489195225030364e-2
-0.5786072206809827,-6.537010922452857e-2
-0.5763033607556662,-6.496311815714562e-2
-0.5739995008303497,-6.45155477773749e-2
-0.5716956409050331,-6.262381242285164e-2
-0.5693917809797165,-6.453830334599364e-2
-0.5670879210544,-6.337857583463036e-2
-0.5647840611290835,-6.498238837290904e-2
-0.562480201203767,-6.560712173881444e-2
-0.5601763412784504,-6.564527906837647e-2
-0.5578724813531338,-6.680405788305677e-2
-0.5555686214278173,-6.662116254261252e-2
-0.5532647615025008,-6.698583646437994e-2
-0.5509609015771842,-6.705742392544167e-2
-0.5486570416518677,-6.721554614390524e-2
-0.5463531817265511,-6.660830515743721e-2
-0.5440493218012346,-6.685219696320233e-2
-0.5417454618759181,-6.666083121690325e-2
-0.5394416019506015,-6.634440585766832e-2
-0.537137742025285,-6.58189805903685e-2
-0.5348338820999685,-6.595762021961205e-2
-0.5325300221746518,-6.521373765388283e-2
-0.5302261622493354,-6.536555911818442e-2
-0.5279223023240188,-6.39049675933323e-2
-0.5256184423987023,-6.410704165282444e-2
-0.5233145824733857,-6.320072101546992e-2
-0.5210107225480691,-6.379129886708368e-2
-0.5187068626227527,-6.384002580554193e-2
-0.516403002697436,-6.409901874595136e-2
-0.5140991427721195,-6.362712814799343e-2
-0.5117952828468031,-6.432817885520514e-2
-0.5094914229214865,-6.49974893263261e-2
-0.50718756299617,-6.5671552601968e-2
-0.5048837030708534,-6.59156420867012e-2
-0.5025798431455368,-6.528656046949688e-2
-0.5002759832202204,-6.589880864277486e-2
-0.4979721232949038,-6.594158218746016e-2
-0.49566826336958725,-6.582710727723062e-2
-0.4933644034442707,-6.605747775655713e-2
-0.4910605435189542,-6.616033825686607e-2
-0.4887566835936376,-6.587696480215866e-2
-0.4864528236683211,-6.57921681773378e-2
-0.48414896374300453,-6.586154480616158e-2
-0.481845103817688,-6.605717017699209e-2
-0.47954124389237146,-6.639561844435249e-2
-0.4772373839670549,-6.622258565734718e-2
-0.47493352404173844,-6.589917494802489e-2
-0.47262966411642193,-6.562779725595891e-2
-0.47032580419110537,-6.578531714110558e-2
-0.4680219442657888,-6.573003066987881e-2
-0.46571808434047224,-6.585337949813008e-2
-0.46341422441515573,-6.595459990824692e-2
-0.46111036448983916,-6.601904087851629e-2
-0.45880650456452265,-6.605922057073255e-2
-0.4565026446392061,-6.604511834960414e-2
-0.4541987847138896,-6.602088420074437e-2
-0.45189492478857296,-6.593944331961588e-2
-0.44959106486325645,-6.590022660260852e-2
-0.44728720493793994,-6.58980433862103e-2
-0.4449833450126234,-6.585265490587366e-2
-0.4426794850873068,-6.583377071803953e-2
-0.4403756251619903,-6.583297276600353e-2
-0.4380717652366738,-6.582565710607069e-2
-0.4357679053113572,-6.581343456319877e-2
-0.43346404538604066,-6.582485236468316e-2
-0.4311601854607241,-6.58601243304946e-2
-0.4288563255354076,-6.57232897244645e-2
-0.426552465610091,-6.553402696044808e-2
-0.4242486056847745,-6.554388637133157e-2
-0.42194474575945795,-6.538865525806559e-2
-0.4196408858341414,-6.553496853029317e-2
-0.4173370259088248,-6.555320924663266e-2
-0.4150331659835083,-6.563970287334309e-2
-0.4127293060581918,-6.578075089966184e-2
-0.41042544613287524,-6.596844606705055e-2
-0.4081215862075587,-6.610214651970092e-2
-0.4058177262822421,-6.60283836258947e-2
-0.4035138663569256,-6.583570385114712e-2
-0.40121000643160903,-6.585068770541114e-2
-0.3989061465062925,-6.552060281112848e-2
-0.39660228658097596,-6.55462486130095e-2
-0.39429842665565945,-6.5990536465098e-2
-0.3919945667303429,-6.561203640461277e-2
-0.3896907068050263,-6.556217061030112e-2
-0.3873868468797098,-6.493503552628643e-2
-0.38508298695439325,-6.502294484936566e-2
-0.3827791270290768,-6.538272052910676e-2
-0.38047526710376023,-6.555787397952628e-2
-0.37817140717844366,-6.592229761084256e-2
-0.37586754725312715,-6.570444294658151e-2
-0.37356368732781053,-6.576813680416116e-2
-0.371259827402494,-6.543255468755083e-2
-0.3689559674771775,-6.554837713821826e-2
-0.36665210755186095,-6.553808082725565e-2
-0.3643482476265444,-6.656075076852508e-2
-0.3620443877012279,-6.72389969985352e-2
-0.35974052777591137,-6.734089226092799e-2
-0.3574366678505948,-6.756929645158039e-2
-0.35513280792527824,-7.000072220358922e-2
-0.35282894799996173,-6.949079804455116e-2
-0.3505250880746452,-6.965884890267482e-2
-0.34822122814932865,-6.938857943030463e-2
-0.3459173682240121,-6.963550394273998e-2
-0.3436135082986956,-6.960770421794371e-2
-0.34130964837337896,-6.85688871568424e-2
-0.3390057884480624,-6.854219437795162e-2
-0.3367019285227459,-6.826078560874327e-2
-0.3343980685974294,-6.791785371523174e-2
-0.3320942086721128,-6.572054765714863e-2
-0.32979034874679625,-6.740363585070741e-2
-0.32748648882147974,-6.534722523711489e-2
-0.32518262889616323,-6.4590379797003e-2
-0.32287876897084666,-6.633888664671839e-2
-0.3205749090455301,-6.761563549629557e-2
-0.3182710491202136,-6.883460114895579e-2
-0.3159671891948971,-6.803476694872845e-2
-0.3136633292695805,-6.869301688737228e-2
-0.31135946934426395,-6.939552530131099e-2
-0.30905560941894744,-7.130874774580631e-2
-0.30675174949363093,-7.095642834279314e-2
-0.30444788956831437,-6.97252727180715e-2
-0.3021440296429978,-6.708105213392013e-2
-0.2998401697176813,-6.68995565016296e-2
-0.2975363097923648,-6.593176291005476e-2
-0.2952324498670482,-6.719913216537299e-2
-0.29292858994173165,-6.748078412565273e-2
-0.29062473001641514,-6.537850617036789e-2
-0.28832087009109864,-6.309471447906767e-2
-0.28601701016578207,-6.354470654562894e-2
-0.28371315024046545,-6.27521363311897e-2
-0.28140929031514894,-6.466874228273167e-2
-0.2791054303898324,-6.511838156270577e-2
-0.2768015704645158,-6.767663255771972e-2
-0.2744977105391993,-6.737807410528074e-2
-0.2721938506138828,-6.841522971878744e-2
-0.26988999068856623,-6.973299061885185e-2
-0.26758613076324966,-6.513715099611561e-2
-0.26528227083793315,-6.493077814562143e-2
-0.26297841091261664,-6.151107713660775e-2
-0.2606745509873001,-6.185145856605956e-2
-0.2583706910619835,-6.185750925618505e-2
-0.256066831136667,-6.272132594935265e-2
-0.2537629712113504,-6.274144221133926e-2
-0.2514591112860338,-6.013186763230094e-2
-0.24915525136071737,-5.734862534721097e-2
-0.2468513914354008,-5.747235133561601e-2
-0.24454753151008424,-5.5438622484397904e-2
-0.24224367158476767,-5.3406314724325665e-2
-0.2399398116594511,-5.088604732814073e-2
-0.23763595173413465,-4.7805589721438e-2
-0.2353320918088182,-5.700856303617019e-2
-0.23302823188350164,-5.880235519222943e-2
-0.23072437195818507,-5.8737071808992236e-2
-0.2284205120328685,-6.043947317509868e-2
-0.22611665210755194,-6.080833831629273e-2
-0.22381279218223538,-5.6801878085562585e-2
-0.2215089322569188,-6.295502813195919e-2
-0.21920507233160236,-6.436288299895887e-2
-0.2169012124062858,-6.620405125257234e-2
-0.21459735248096923,-6.70228031573048e-2
-0.21229349255565277,-6.789210368177234e-2
-0.2099896326303362,-6.793582737266979e-2
-0.20768577270501964,-6.709253141255211e-2
-0.20538191277970308,-6.891089729160804e-2
-0.20307805285438651,-6.933321944202497e-2
-0.20077419292907006,-7.05867000523609e-2
-0.1984703330037535,-7.260971197200738e-2
-0.19616647307843693,-7.023519937119627e-2
-0.19386261315312037,-7.061927186100914e-2
-0.1915587532278038,-7.0865310447639e-2
-0.18925489330248724,-7.213679206873591e-2
-0.18695103337717067,-7.093013082850674e-2
-0.18464717345185422,-7.0740904928413e-2
-0.18234331352653765,-7.282690922817392e-2
-0.1800394536012211,-7.401290129788152e-2
-0.17773559367590464,-7.413447404595297e-2
-0.17543173375058807,-7.502923385736249e-2
-0.1731278738252714,-7.563668867313478e-2
-0.17082401389995483,-7.531042885547734e-2
-0.16852015397463838,-7.398106836684937e-2
-0.1662162940493218,-7.406234941475753e-2
-0.16391243412400536,-7.414493713463155e-2
-0.1616085741986888,-7.554861961025128e-2
-0.15930471427337234,-7.588651487008491e-2
-0.15700085434805577,-7.553685098699792e-2
-0.1546969944227392,-7.664489093021976e-2
-0.15239313449742264,-7.6781479294455e-2
-0.15008927457210608,-7.694292775309275e-2
-0.14778541464678963,-7.651022697867427e-2
-0.14548155472147306,-7.710848839044115e-2
-0.1431776947961565,-7.71988328522264e-2
-0.14087383487083993,-7.708424028119687e-2
-0.13856997494552337,-7.69987526337601e-2
-0.1362661150202068,-7.669456917752815e-2
-0.13396225509489024,-7.722883960250448e-2
-0.13165839516957378,-7.683718230789127e-2
-0.12935453524425722,-7.67126318421184e-2
-0.12705067531894065,-7.610504928047457e-2
-0.1247468153936242,-7.536898150797822e-2
-0.12244295546830763,-7.518824820913061e-2
-0.12013909554299107,-7.599682170064481e-2
-0.1178352356176745,-7.618784517807442e-2
-0.11553137569235794,-7.660606193361941e-2
-0.11322751576704149,-7.651886901994398e-2
-0.11092365584172492,-7.67943438749954e-2
-0.10861979591640836,-7.698669758264676e-2
-0.10631593599109179,-7.69526753525247e-2
-0.10401207606577523,-7.674869971035181e-2
-0.10170821614045866,-7.715009634295722e-2
-9.94043562151421e-2,-7.565171000530746e-2
-9.710049628982564e-2,-7.558266689114201e-2
-9.479663636450908e-2,-7.590697281118741e-2
-9.249277643919251e-2,-7.560874858601596e-2
-9.018891651387606e-2,-7.576121097003663e-2
-8.78850565885595e-2,-7.601168134248004e-2
-8.558119666324293e-2,-7.635048023128244e-2
-8.327733673792637e-2,-7.632766132947266e-2
-8.09734768126098e-2,-7.639190645610727e-2
-7.866961688729335e-2,-7.644770340725371e-2
-7.636575696197667e-2,-7.656571020013658e-2
-7.406189703666022e-2,-7.657992291625071e-2
-7.175803711134365e-2,-7.63337105328672e-2
-6.945417718602709e-2,-7.639728033877158e-2
-6.715031726071052e-2,-7.638546803131718e-2
-6.484645733539396e-2,-7.644641983277878e-2
-6.25425974100775e-2,-7.642419161667335e-2
-6.023873748476094e-2,-7.642310157188092e-2
-5.7934877559444375e-2,-7.638579154004221e-2
-5.563101763412792e-2,-7.638980818799956e-2
-5.332715770881136e-2,-7.63902827348949e-2
-5.10232977834949e-2,-7.627406662514868e-2
-4.871943785817834e-2,-7.627080335716985e-2
-4.641557793286177e-2,-7.627585281436089e-2
-4.411171800754521e-2,-7.620956785492927e-2
-4.1807858082228755e-2,-7.620385850692779e-2
-3.950399815691219e-2,-7.619885627099698e-2
-3.7200138231595625e-2,-7.62680354575721e-2
-3.489627830627917e-2,-7.631606564947746e-2
-3.259241838096261e-2,-7.596138298768695e-2
-3.0288558455646042e-2,-7.605177609974811e-2
-2.7984698530329366e-2,-7.607509932515288e-2
-2.5680838605012912e-2,-7.610590401796469e-2
-2.3376978679696347e-2,-7.616298606910554e-2
-2.1073118754379783e-2,-7.606136679178788e-2
-1.876925882906333e-2,-7.582807495472188e-2
-1.6465398903746764e-2,-7.570220387366566e-2
-1.41615389784302e-2,-7.56233990085563e-2
-1.1857679053113634e-2,-7.544552114722325e-2
-9.55381912779707e-3,-7.54485290971576e-2
-7.249959202480616e-3,-7.545817047484915e-2
-4.946099277164051e-3,-7.525487966880096e-2
-2.6422393518474863e-3,-7.528497364636233e-2
-3.383794265310325e-4,-7.528303133164471e-2
1.9654804987856433e-3,-7.52638979862259e-2
4.269340424102097e-3,-7.531518399848103e-2
6.573200349418773e-3,-7.537610892364743e-2
8.877060274735227e-3,-7.532756991099931e-2
1.1180920200051792e-2,-7.538823592424293e-2
1.3484780125368245e-2,-7.543081577892075e-2
1.578864005068481e-2,-7.432068820824422e-2
1.8092499976001264e-2,-7.418305867834074e-2
2.039635990131794e-2,-7.409098923356594e-2
2.2700219826634616e-2,-7.385558610932985e-2
2.500407975195107e-2,-7.379112889033679e-2
2.7307939677267634e-2,-7.379976680290556e-2
2.9611799602584088e-2,-7.383221736604217e-2
3.191565952790065e-2,-7.373937459290358e-2
3.4219519453217107e-2,-7.378103821540827e-2
3.652337937853378e-2,-7.376549579448666e-2
3.8827239303850236e-2,-7.336794678603908e-2
4.113109922916691e-2,-7.328301452499741e-2
4.3434959154483366e-2,-7.287902858456252e-2
4.573881907979993e-2,-7.293808039480354e-2
4.8042679005116384e-2,-7.301904162719952e-2
5.034653893043295e-2,-7.330864465236786e-2
5.2650398855749625e-2,-7.337280571963178e-2
5.495425878106608e-2,-7.320783019569543e-2
5.7258118706382755e-2,-7.292056648601808e-2
5.956197863169921e-2,-7.250032665670636e-2
6.186583855701577e-2,-7.237341455465884e-2
6.416969848233223e-2,-7.192735758143964e-2
6.647355840764879e-2,-7.206016397870152e-2
6.877741833296525e-2,-7.235336423513095e-2
7.108127825828192e-2,-7.231305373410046e-2
7.338513818359838e-2,-7.203529400386266e-2
7.568899810891505e-2,-7.191770798589225e-2
7.79928580342315e-2,-7.160793955550337e-2
8.029671795954807e-2,-7.164789351518608e-2
8.260057788486463e-2,-7.195965975836216e-2
8.490443781018109e-2,-7.24970669361692e-2
8.720829773549776e-2,-7.223109627756652e-2
8.951215766081422e-2,-7.276944713216493e-2
9.18160175861309e-2,-7.255795535947795e-2
9.411987751144713e-2,-7.192235993578144e-2
9.64237374367638e-2,-7.151755263074722e-2
9.872759736208037e-2,-7.205376410778452e-2
0.10103145728739682,-7.132409683558094e-2
0.10333531721271338,-7.154852038406101e-2
0.10563917713802984,-7.187334476825624e-2
0.10794303706334651,-7.29261989336617e-2
0.11024689698866297,-7.375780205045135e-2
0.11255075691397964,-7.442784590755824e-2
0.1148546168392961,-7.572676396155764e-2
0.11715847676461266,-7.491579295808914e-2
0.11946233668992912,-7.489241335900332e-2
0.12176619661524568,-7.365206933808688e-2
0.12407005654056213,-7.377394770454992e-2
0.1263739164658788,-7.391115122707737e-2
0.12867777639119526,-7.326362589822333e-2
0.13098163631651194,-7.268115434072497e-2
0.1332854962418285,-7.272085961668451e-2
0.13558935616714496,-7.271055554953532e-2
0.13789321609246152,-7.278582585152382e-2
0.14019707601777798,-7.253804146661325e-2
0.14250093594309465,-7.262830714261936e-2
0.1448047958684111,-7.261285046408328e-2
0.14710865579372778,-7.152083271364418e-2
0.14941251571904424,-7.181391668913795e-2
0.1517163756443608,-7.167840155941885e-2
0.15402023556967726,-7.185912676273909e-2
0.15632409549499382,-7.210329524131909e-2
0.15862795542031027,-7.211558065709045e-2
0.16093181534562695,-7.18490507553089e-2
0.16323567527094363,-7.203493664971117e-2
0.16553953519626008,-7.22316950094466e-2
0.16784339512157664,-7.224581624473847e-2
0.1701472550468931,-7.223122297566886e-2
0.17245111497220966,-7.222857580295461e-2
0.17475497489752612,-7.23099363663493e-2
0.1770588348228428,-7.234453770031324e-2
0.17936269474815925,-7.23259379194221e-2
0.18166655467347592,-7.227594656161551e-2
0.18397041459879238,-7.228476318104948e-2
0.18627427452410894,-7.228429762255273e-2
0.1885781344494254,-7.228456083927193e-2
0.19088199437474196,-7.227889235875395e-2
0.1931858543000584,-7.22826195565125e-2
0.1954897142253751,-7.229499161100295e-2
0.19779357415069176,-7.218944490521717e-2
0.20009743407600822,-7.222020770409632e-2
0.20240129400132478,-7.22833731575715e-2
0.20470515392664124,-7.216346921731531e-2
0.2070090138519578,-7.226639777455168e-2
0.20931287377727426,-7.222651147514847e-2
0.21161673370259093,-7.21033972526337e-2
0.21392059362790738,-7.178278289202178e-2
0.21622445355322406,-7.177333422285015e-2
0.21852831347854051,-7.160375585872392e-2
0.22083217340385708,-7.153440079858853e-2
0.22313603332917353,-7.150160805009842e-2
0.2254398932544901,-7.137555467630163e-2
0.22774375317980677,-7.137264768660534e-2
0.23004761310512323,-7.124459076953493e-2
0.2323514730304399,-7.124739578250128e-2
0.23465533295575636,-7.122456404492294e-2
0.23695919288107292,-7.125267594149132e-2
0.23926305280638938,-7.111979686992831e-2
0.24156691273170594,-7.116705671636891e-2
0.2438707726570224,-7.111400904393295e-2
0.24617463258233885,-7.107732623992413e-2
0.24847849250765552,-7.096673747773763e-2
0.250782352432972,-7.078729088782243e-2
0.25308621235828865,-7.08294016296993e-2
0.2553900722836051,-7.07210073215131e-2
0.2576939322089218,-7.08510764569148e-2
0.259997792134238,-7.036997932163025e-2
0.2623016520595547,-7.022651007167313e-2
0.26460551198487114,-7.030716825234318e-2
0.2669093719101878,-7.030176745969419e-2
0.2692132318355043,-7.018077147166113e-2
0.27151709176082095,-7.006341391815019e-2
0.2738209516861374,-7.021928138749278e-2
0.27612481161145386,-7.015519896482247e-2
0.27842867153677053,-7.014881523843908e-2
0.280732531462087,-7.01326968124576e-2
0.28303639138740366,-6.952823815625775e-2
0.2853402513127201,-6.954348503724861e-2
0.2876441112380368,-6.965003954570215e-2
0.28994797116335325,-7.002193518309363e-2
0.2922518310886697,-7.021913506903699e-2
0.2945556910139864,-7.006790855346912e-2
0.29685955093930283,-6.934019937634595e-2
0.2991634108646193,-6.918809921335778e-2
0.30146727078993596,-6.881635217498971e-2
0.3037711307152524,-6.930802484053311e-2
0.3060749906405691,-7.024268659093413e-2
0.30837885056588554,-7.09596422575679e-2
0.3106827104912022,-7.029850102057944e-2
0.3129865704165187,-7.019793402597874e-2
0.3152904303418351,-6.915722525297163e-2
0.3175942902671518,-6.957450350955119e-2
0.31989815019246826,-6.977277340703802e-2
0.32220201011778493,-6.949439818275871e-2
0.3245058700431014,-6.845946536031444e-2
0.32680972996841806,-6.853991028428674e-2
0.3291135898937343,-6.76911003163927e-2
0.33141744981905097,-6.774896054261481e-2
0.3337213097443674,-6.790922016476508e-2
0.3360251696696841,-6.739334836920952e-2
0.3383290295950008,-6.680124260011866e-2
0.34063288952031723,-6.67988009783893e-2
0.3429367494456339,-6.695297171157855e-2
0.34524060937095014,-6.628752480450051e-2
0.3475444692962668,-6.641904604893711e-2
0.34984832922158327,-6.745241189604667e-2
0.35215218914689994,-6.710630176450649e-2
0.3544560490722164,-6.583677321623993e-2
0.35675990899753307,-6.709163201231161e-2
0.3590637689228495,-6.665078965797178e-2
0.361367628848166,-6.72437629708924e-2
0.36367148877348265,-6.65455682263334e-2
0.3659753486987991,-6.553787068870753e-2
0.36827920862411556,-6.617885995980854e-2
0.37058306854943224,-6.509517816795507e-2
0.3728869284747489,-6.552361176421351e-2
0.37519078840006537,-6.535041461563251e-2
0.3774946483253818,-6.396475639139587e-2
0.3797985082506985,-6.343910245852646e-2
0.38210236817601495,-6.412392197420502e-2
0.3844062281013314,-6.42565084081489e-2
0.3867100880266481,-6.422495805924544e-2
0.38901394795196453,-6.617296732927402e-2
0.391317807877281,-6.905156223388009e-2
0.39362166780259766,-6.746097640306692e-2
0.3959255277279141,-6.77227028877927e-2
0.39822938765323057,-6.733747392588263e-2
0.40053324757854725,-6.998356168642683e-2
0.4028371075038639,-6.90580858366594e-2
0.40514096742918015,-6.701812813714014e-2
0.40744482735449705,-6.574683758569766e-2
0.4097486872798133,-6.547843538460374e-2
0.4120525472051302,-6.619083901404088e-2
0.4143564071304464,-6.542611693310918e-2
0.4166602670557631,-6.534089621318473e-2
0.4189641269810793,-6.466389418789276e-2
0.4212679869063962,-6.498860760717196e-2
0.42357184683171245,-6.488051238541637e-2
0.42587570675702935,-6.539245601721877e-2
0.4281795666823456,-6.488174720953788e-2
0.43048342660766226,-6.553900015931557e-2
0.4327872865329787,-6.705789673676477e-2
0.4350911464582954,-7.0029318846074e-2"/>
  </g>
  <g stroke-opacity="0.5" fill-opacity="1.0" stroke="#3764a0" stroke-width="4.0e-3" fill="#ffffff">
    <rect height="0.1342572542226072" width="0.19784397108655827" x="0.5394847993242009" y="-6.74465492280435e-2"/>
  </g>
  <g fill-opacity="1.0" font-size="4.000000000000001e-2" stroke="none" stroke-width="0.0" fill="#666666" text-anchor="start">
    <text x="0.5510040989507838" y="3.1297495813099874e-2">rate = 0.99
    </text>
  </g>
  <g stroke-opacity="0.5" stroke="#431712" stroke-width="6.999999999999999e-3" fill="none">
    <polyline points="0.7007549940963589,2.5580735310717917e-2
0.7237935933495243,2.5580735310717917e-2"/>
  </g>
  <g fill-opacity="1.0" font-size="4.000000000000001e-2" stroke="none" stroke-width="0.0" fill="#666666" text-anchor="start">
    <text x="0.5510040989507838" y="-1.8074526707471894e-2">rate = 0.95
    </text>
  </g>
  <g stroke-opacity="0.5" stroke="#4b2282" stroke-width="6.999999999999999e-3" fill="none">
    <polyline points="0.7007549940963589,-2.3791287209853795e-2
0.7237935933495243,-2.3791287209853795e-2"/>
  </g>
</svg>