
<svg xmlns="http://www.w3.org/2000/svg" height="300.0" viewBox="-0.87 -0.5487415824915824 1.6739498301835438 1.0949915824915823" width="450.0" xmlns:xlink="http://www.w3.org/1999/xlink">
  <g stroke-opacity="0.0" fill-opacity="3.0e-2" stroke="#000000" stroke-width="0.0" fill="#666666">
    <rect height="0.8978675645342313" width="1.4200679265824885" x="-0.6736180963989445" y="-0.495510662177329"/>
  </g>
  <g stroke-opacity="0.3" stroke="#a8e5ee" stroke-width="5.0e-3" fill="none">
    <polyline points="-0.6771682662154007,0.40235690235690236
0.75,0.40235690235690236"/>
  </g>
  <g stroke-opacity="0.3" stroke="#a8e5ee" stroke-width="5.0e-3" fill="none">
    <polyline points="-0.6771682662154007,0.3125701459034792
0.75,0.3125701459034792"/>
  </g>
  <g stroke-opacity="0.3" stroke="#a8e5ee" stroke-width="5.0e-3" fill="none">
    <polyline points="-0.6771682662154007,0.2227833894500561
0.75,0.2227833894500561"/>
  </g>
  <g stroke-opacity="0.3" stroke="#a8e5ee" stroke-width="5.0e-3" fill="none">
    <polyline points="-0.6771682662154007,0.13299663299663295
0.75,0.13299663299663295"/>
  </g>
  <g stroke-opacity="0.3" stroke="#a8e5ee" stroke-width="5.0e-3" fill="none">
    <polyline points="-0.6771682662154007,4.3209876543209846e-2
0.75,4.3209876543209846e-2"/>
  </g>
  <g stroke-opacity="0.3" stroke="#a8e5ee" stroke-width="5.0e-3" fill="none">
    <polyline points="-0.6771682662154007,-4.657687991021331e-2
0.75,-4.657687991021331e-2"/>
  </g>
  <g stroke-opacity="0.3" stroke="#a8e5ee" stroke-width="5.0e-3" fill="none">
    <polyline points="-0.6771682662154007,-0.13636363636363646
0.75,-0.13636363636363646"/>
  </g>
  <g stroke-opacity="0.3" stroke="#a8e5ee" stroke-width="5.0e-3" fill="none">
    <polyline points="-0.6771682662154007,-0.22615039281705962
0.75,-0.22615039281705962"/>
  </g>
  <g stroke-opacity="0.3" stroke="#a8e5ee" stroke-width="5.0e-3" fill="none">
    <polyline points="-0.6771682662154007,-0.31593714927048266
0.75,-0.31593714927048266"/>
  </g>
  <g stroke-opacity="0.3" stroke="#a8e5ee" stroke-width="5.0e-3" fill="none">
    <polyline points="-0.6771682662154007,-0.4057239057239058
0.75,-0.4057239057239058"/>
  </g>
  <g stroke-opacity="0.3" stroke="#a8e5ee" stroke-width="5.0e-3" fill="none">
    <polyline points="-0.6771682662154007,-0.495510662177329
0.75,-0.495510662177329"/>
  </g>
  <g fill-opacity="1.0" font-size="5.0e-2" stroke="none" stroke-width="0.0" fill="#666666" text-anchor="end">
    <text x="-0.75" y="0.41537598204264864">-0.5
    </text>
  </g>
  <g fill-opacity="1.0" font-size="5.0e-2" stroke="none" stroke-width="0.0" fill="#666666" text-anchor="end">
    <text x="-0.75" y="0.3255892255892256">-0.4
    </text>
  </g>
  <g fill-opacity="1.0" font-size="5.0e-2" stroke="none" stroke-width="0.0" fill="#666666" text-anchor="end">
    <text x="-0.75" y="0.23580246913580244">-0.3
    </text>
  </g>
  <g fill-opacity="1.0" font-size="5.0e-2" stroke="none" stroke-width="0.0" fill="#666666" text-anchor="end">
    <text x="-0.75" y="0.14601571268237928">-0.2
    </text>
  </g>
  <g fill-opacity="1.0" font-size="5.0e-2" stroke="none" stroke-width="0.0" fill="#666666" text-anchor="end">
    <text x="-0.75" y="5.6228956228956184e-2">-0.1
    </text>
  </g>
  <g fill-opacity="1.0" font-size="5.0e-2" stroke="none" stroke-width="0.0" fill="#666666" text-anchor="end">
    <text x="-0.75" y="-3.355780022446697e-2">0.0
    </text>
  </g>
  <g fill-opacity="1.0" font-size="5.0e-2" stroke="none" stroke-width="0.0" fill="#666666" text-anchor="end">
    <text x="-0.75" y="-0.12334455667789013">0.1
    </text>
  </g>
  <g fill-opacity="1.0" font-size="5.0e-2" stroke="none" stroke-width="0.0" fill="#666666" text-anchor="end">
    <text x="-0.75" y="-0.21313131313131328">0.2
    </text>
  </g>
  <g fill-opacity="1.0" font-size="5.0e-2" stroke="none" stroke-width="0.0" fill="#666666" text-anchor="end">
    <text x="-0.75" y="-0.3029180695847362">0.3
    </text>
  </g>
  <g fill-opacity="1.0" font-size="5.0e-2" stroke="none" stroke-width="0.0" fill="#666666" text-anchor="end">
    <text x="-0.75" y="-0.3927048260381595">0.4
    </text>
  </g>
  <g fill-opacity="1.0" font-size="5.0e-2" stroke="none" stroke-width="0.0" fill="#666666" text-anchor="end">
    <text x="-0.75" y="-0.4824915824915824">0.5
    </text>
  </g>
  <g stroke-opacity="0.4" fill-opacity="1.0" stroke="#2c429d" stroke-width="5.0e-3" fill="#5f0391">
    <g transform="rotate(-90.0, -0.7268706436457879, 0.40235690235690236)">
      <polyline points="-0.7268706436457879,0.41735690235690237
-0.7268706436457879,0.38735690235690234"/>
    </g>
    <g transform="rotate(-90.0, -0.7268706436457879, 0.3125701459034792)">
      <polyline points="-0.7268706436457879,0.3275701459034792
-0.7268706436457879,0.2975701459034792"/>
    </g>
    <g transform="rotate(-90.0, -0.7268706436457879, 0.2227833894500561)">
      <polyline points="-0.7268706436457879,0.23778338945005612
-0.7268706436457879,0.2077833894500561"/>
    </g>
    <g transform="rotate(-90.0, -0.7268706436457879, 0.13299663299663295)">
      <polyline points="-0.7268706436457879,0.14799663299663296
-0.7268706436457879,0.11799663299663295"/>
    </g>
    <g transform="rotate(-90.0, -0.7268706436457879, 4.3209876543209846e-2)">
      <polyline points="-0.7268706436457879,5.8209876543209846e-2
-0.7268706436457879,2.8209876543209847e-2"/>
    </g>
    <g transform="rotate(-90.0, -0.7268706436457879, -4.657687991021331e-2)">
      <polyline points="-0.7268706436457879,-3.157687991021331e-2
-0.7268706436457879,-6.157687991021331e-2"/>
    </g>
    <g transform="rotate(-90.0, -0.7268706436457879, -0.13636363636363646)">
      <polyline points="-0.7268706436457879,-0.12136363636363647
-0.7268706436457879,-0.15136363636363648"/>
    </g>
    <g transform="rotate(-90.0, -0.7268706436457879, -0.22615039281705962)">
      <polyline points="-0.7268706436457879,-0.2111503928170596
-0.7268706436457879,-0.24115039281705963"/>
    </g>
    <g transform="rotate(-90.0, -0.7268706436457879, -0.31593714927048266)">
      <polyline points="-0.7268706436457879,-0.30093714927048265
-0.7268706436457879,-0.3309371492704827"/>
    </g>
    <g transform="rotate(-90.0, -0.7268706436457879, -0.4057239057239058)">
      <polyline points="-0.7268706436457879,-0.3907239057239058
-0.7268706436457879,-0.42072390572390583"/>
    </g>
    <g transform="rotate(-90.0, -0.7268706436457879, -0.495510662177329)">
      <polyline points="-0.7268706436457879,-0.48051066217732896
-0.7268706436457879,-0.510510662177329"/>
    </g>
  </g>
  <g stroke-opacity="0.0" fill-opacity="0.5" stroke="#666666" stroke-width="0.0" fill="#5f0391">
    <rect height="0.8978675645342313" width="3.5501698164561724e-3" x="-0.7197703040128755" y="-0.495510662177329"/>
  </g>
  <g stroke-opacity="0.3" stroke="#a8e5ee" stroke-width="5.0e-3" fill="none">
    <polyline points="-0.6736180963989445,0.4068462401795735
-0.6736180963989445,-0.5"/>
  </g>
  <g stroke-opacity="0.3" stroke="#a8e5ee" stroke-width="5.0e-3" fill="none">
    <polyline points="-0.5316113037406958,0.4068462401795735
-0.5316113037406958,-0.5"/>
  </g>
  <g stroke-opacity="0.3" stroke="#a8e5ee" stroke-width="5.0e-3" fill="none">
    <polyline points="-0.38960451108244687,0.4068462401795735
-0.38960451108244687,-0.5"/>
  </g>
  <g stroke-opacity="0.3" stroke="#a8e5ee" stroke-width="5.0e-3" fill="none">
    <polyline points="-0.24759771842419798,0.4068462401795735
-0.24759771842419798,-0.5"/>
  </g>
  <g stroke-opacity="0.3" stroke="#a8e5ee" stroke-width="5.0e-3" fill="none">
    <polyline points="-0.1055909257659492,0.4068462401795735
-0.1055909257659492,-0.5"/>
  </g>
  <g stroke-opacity="0.3" stroke="#a8e5ee" stroke-width="5.0e-3" fill="none">
    <polyline points="3.64158668922997e-2,0.4068462401795735
3.64158668922997e-2,-0.5"/>
  </g>
  <g stroke-opacity="0.3" stroke="#a8e5ee" stroke-width="5.0e-3" fill="none">
    <polyline points="0.1784226595505486,0.4068462401795735
0.1784226595505486,-0.5"/>
  </g>
  <g stroke-opacity="0.3" stroke="#a8e5ee" stroke-width="5.0e-3" fill="none">
    <polyline points="0.32042945220879737,0.4068462401795735
0.32042945220879737,-0.5"/>
  </g>
  <g stroke-opacity="0.3" stroke="#a8e5ee" stroke-width="5.0e-3" fill="none">
    <polyline points="0.46243624486704626,0.4068462401795735
0.46243624486704626,-0.5"/>
  </g>
  <g stroke-opacity="0.3" stroke="#a8e5ee" stroke-width="5.0e-3" fill="none">
    <polyline points="0.6044430375252952,0.4068462401795735
0.6044430375252952,-0.5"/>
  </g>
  <g stroke-opacity="0.3" stroke="#a8e5ee" stroke-width="5.0e-3" fill="none">
    <polyline points="0.7464498301835438,0.4068462401795735
0.7464498301835438,-0.5"/>
  </g>
  <g fill-opacity="1.0" font-size="5.0e-2" stroke="none" stroke-width="0.0" fill="#666666" text-anchor="middle">
    <text x="-0.6736180963989445" y="0.5">-0.5
    </text>
  </g>
  <g fill-opacity="1.0" font-size="5.0e-2" stroke="none" stroke-width="0.0" fill="#666666" text-anchor="middle">
    <text x="-0.5316113037406958" y="0.5">-0.4
    </text>
  </g>
  <g fill-opacity="1.0" font-size="5.0e-2" stroke="none" stroke-width="0.0" fill="#666666" text-anchor="middle">
    <text x="-0.38960451108244687" y="0.5">-0.3
    </text>
  </g>
  <g fill-opacity="1.0" font-size="5.0e-2" stroke="none" stroke-width="0.0" fill="#666666" text-anchor="middle">
    <text x="-0.24759771842419798" y="0.5">-0.2
    </text>
  </g>
  <g fill-opacity="1.0" font-size="5.0e-2" stroke="none" stroke-width="0.0" fill="#666666" text-anchor="middle">
    <text x="-0.1055909257659492" y="0.5">-0.1
    </text>
  </g>
  <g fill-opacity="1.0" font-size="5.0e-2" stroke="none" stroke-width="0.0" fill="#666666" text-anchor="middle">
    <text x="3.64158668922997e-2" y="0.5">0.0
    </text>
  </g>
  <g fill-opacity="1.0" font-size="5.0e-2" stroke="none" stroke-width="0.0" fill="#666666" text-anchor="middle">
    <text x="0.1784226595505486" y="0.5">0.1
    </text>
  </g>
  <g fill-opacity="1.0" font-size="5.0e-2" stroke="none" stroke-width="0.0" fill="#666666" text-anchor="middle">
    <text x="0.32042945220879737" y="0.5">0.2
    </text>
  </g>
  <g fill-opacity="1.0" font-size="5.0e-2" stroke="none" stroke-width="0.0" fill="#666666" text-anchor="middle">
    <text x="0.46243624486704626" y="0.5">0.3
    </text>
  </g>
  <g fill-opacity="1.0" font-size="5.0e-2" stroke="none" stroke-width="0.0" fill="#666666" text-anchor="middle">
    <text x="0.6044430375252952" y="0.5">0.4
    </text>
  </g>
  <g fill-opacity="1.0" font-size="5.0e-2" stroke="none" stroke-width="0.0" fill="#666666" text-anchor="middle">
    <text x="0.7464498301835438" y="0.5">0.5
    </text>
  </g>
  <g stroke-opacity="0.4" fill-opacity="1.0" stroke="#2c429d" stroke-width="5.0e-3" fill="#5f0391">
    <polyline points="-0.6736180963989445,0.43980359147025816
-0.6736180963989445,0.40980359147025813"/>
    <polyline points="-0.5316113037406958,0.43980359147025816
-0.5316113037406958,0.40980359147025813"/>
    <polyline points="-0.38960451108244687,0.43980359147025816
-0.38960451108244687,0.40980359147025813"/>
    <polyline points="-0.24759771842419798,0.43980359147025816
-0.24759771842419798,0.40980359147025813"/>
    <polyline points="-0.1055909257659492,0.43980359147025816
-0.1055909257659492,0.40980359147025813"/>
    <polyline points="3.64158668922997e-2,0.43980359147025816
3.64158668922997e-2,0.40980359147025813"/>
    <polyline points="0.1784226595505486,0.43980359147025816
0.1784226595505486,0.40980359147025813"/>
    <polyline points="0.32042945220879737,0.43980359147025816
0.32042945220879737,0.40980359147025813"/>
    <polyline points="0.46243624486704626,0.43980359147025816
0.46243624486704626,0.40980359147025813"/>
    <polyline points="0.6044430375252952,0.43980359147025816
0.6044430375252952,0.40980359147025813"/>
    <polyline points="0.7464498301835438,0.43980359147025816
0.7464498301835438,0.40980359147025813"/>
  </g>
  <g stroke-opacity="0.0" fill-opacity="0.5" stroke="#666666" stroke-width="0.0" fill="#5f0391">
    <rect height="4.489337822671191e-3" width="1.4200679265824885" x="-0.6736180963989445" y="0.41133557800224463"/>
  </g>
  <g stroke-opacity="0.0" fill-opacity="0.3" stroke="#2c429d" stroke-width="3.0e-3" fill="#ff0000">
    <rect height="2.0000000000000004e-2" width="2.0000000000000004e-2" x="4.124319629844476e-2" y="-5.515015067411099e-2"/>
    <rect height="2.0000000000000004e-2" width="2.0000000000000004e-2" x="3.973703471231572e-2" y="-5.598848722305149e-2"/>
    <rect height="2.0000000000000004e-2" width="2.0000000000000004e-2" x="3.841458212752281e-2" y="-5.6017522242782995e-2"/>
    <rect height="2.0000000000000004e-2" width="2.0000000000000004e-2" x="3.769822530509926e-2" y="-5.677295123449443e-2"/>
    <rect height="2.0000000000000004e-2" width="2.0000000000000004e-2" x="3.991379022558373e-2" y="-5.904192134632535e-2"/>
    <rect height="2.0000000000000004e-2" width="2.0000000000000004e-2" x="3.9118934638965104e-2" y="-5.8553803078881576e-2"/>
    <rect height="2.0000000000000004e-2" width="2.0000000000000004e-2" x="3.8964784989192765e-2" y="-5.759323256570414e-2"/>
    <rect height="2.0000000000000004e-2" width="2.0000000000000004e-2" x="3.862160800047177e-2" y="-5.6877673097236785e-2"/>
    <rect height="2.0000000000000004e-2" width="2.0000000000000004e-2" x="3.794920871829855e-2" y="-5.676855096288524e-2"/>
    <rect height="2.0000000000000004e-2" width="2.0000000000000004e-2" x="3.735951344280176e-2" y="-5.690586485118864e-2"/>
    <rect height="2.0000000000000004e-2" width="2.0000000000000004e-2" x="3.8511699501515124e-2" y="-5.5620165908324186e-2"/>
    <rect height="2.0000000000000004e-2" width="2.0000000000000004e-2" x="3.798234810272328e-2" y="-5.5833148650047286e-2"/>
    <rect height="2.0000000000000004e-2" width="2.0000000000000004e-2" x="3.74614807433289e-2" y="-5.57515716638639e-2"/>
    <rect height="2.0000000000000004e-2" width="2.0000000000000004e-2" x="4.080710306604352e-2" y="-5.3856270389015075e-2"/>
    <rect height="2.0000000000000004e-2" width="2.0000000000000004e-2" x="4.192442392051388e-2" y="-5.250379707696073e-2"/>
    <rect height="2.0000000000000004e-2" width="1.9999999999999997e-2" x="4.5583628525361915e-2" y="-5.476282249370323e-2"/>
    <rect height="2.0000000000000004e-2" width="1.9999999999999997e-2" x="4.5733434138274805e-2" y="-5.3684643720392715e-2"/>
    <rect height="2.0000000000000004e-2" width="1.9999999999999997e-2" x="4.498699334118229e-2" y="-5.370508823246111e-2"/>
    <rect height="2.0000000000000004e-2" width="1.9999999999999997e-2" x="4.535522814804472e-2" y="-5.482493893111295e-2"/>
    <rect height="2.0000000000000004e-2" width="1.9999999999999997e-2" x="4.617292504639504e-2" y="-5.348720099902637e-2"/>
    <rect height="2.0000000000000004e-2" width="1.9999999999999997e-2" x="4.632971378911722e-2" y="-5.450027228857945e-2"/>
    <rect height="2.0000000000000004e-2" width="1.9999999999999997e-2" x="4.626284561230266e-2" y="-5.535842323458894e-2"/>
    <rect height="2.0000000000000004e-2" width="1.9999999999999997e-2" x="4.579971665515515e-2" y="-5.5858053396379385e-2"/>
    <rect height="2.0000000000000004e-2" width="1.9999999999999997e-2" x="4.661401130919308e-2" y="-5.457869508899193e-2"/>
    <rect height="2.0000000000000004e-2" width="1.9999999999999997e-2" x="4.603774897250535e-2" y="-5.490598143141267e-2"/>
    <rect height="2.0000000000000004e-2" width="1.9999999999999997e-2" x="4.645640221211212e-2" y="-5.5975999776791456e-2"/>
    <rect height="2.0000000000000004e-2" width="1.9999999999999997e-2" x="4.588138797589104e-2" y="-5.569753416244593e-2"/>
    <rect height="2.0000000000000004e-2" width="1.9999999999999997e-2" x="4.552469532637272e-2" y="-5.6216131287477815e-2"/>
    <rect height="2.0000000000000004e-2" width="1.9999999999999997e-2" x="4.494234259992392e-2" y="-5.607754524804786e-2"/>
    <rect height="2.0000000000000004e-2" width="1.9999999999999997e-2" x="4.460494236273594e-2" y="-5.65524877488176e-2"/>
    <rect height="2.0000000000000004e-2" width="1.9999999999999997e-2" x="4.4409526808127715e-2" y="-5.7130930965658126e-2"/>
    <rect height="2.0000000000000004e-2" width="1.9999999999999997e-2" x="4.38619059749067e-2" y="-5.714244861683326e-2"/>
    <rect height="2.0000000000000004e-2" width="1.9999999999999997e-2" x="4.3470723018300024e-2" y="-5.6802772440729614e-2"/>
    <rect height="2.0000000000000004e-2" width="1.9999999999999997e-2" x="4.322223252782887e-2" y="-5.6336746129930886e-2"/>
    <rect height="2.0000000000000004e-2" width="1.9999999999999997e-2" x="4.272530927946273e-2" y="-5.635368988968114e-2"/>
    <rect height="2.0000000000000004e-2" width="1.9999999999999997e-2" x="4.2842197916483034e-2" y="-5.566723487057789e-2"/>
    <rect height="2.0000000000000004e-2" width="2.0000000000000004e-2" x="4.239174193605622e-2" y="-5.581397058215131e-2"/>
    <rect height="2.0000000000000004e-2" width="2.0000000000000004e-2" x="4.2364265460293156e-2" y="-5.638822446075153e-2"/>
    <rect height="2.0000000000000004e-2" width="2.0000000000000004e-2" x="4.1912760007778445e-2" y="-5.645541693755384e-2"/>
    <rect height="2.0000000000000004e-2" width="2.0000000000000004e-2" x="4.170153319526682e-2" y="-5.604746339411947e-2"/>
    <rect height="2.0000000000000004e-2" width="2.0000000000000004e-2" x="4.1303731099880066e-2" y="-5.620468040606074e-2"/>
    <rect height="2.0000000000000004e-2" width="2.0000000000000004e-2" x="4.105339283256693e-2" y="-5.5864828720988295e-2"/>
    <rect height="2.0000000000000004e-2" width="2.0000000000000004e-2" x="4.065145344598665e-2" y="-5.579228937639546e-2"/>
    <rect height="2.0000000000000004e-2" width="2.0000000000000004e-2" x="4.0938038346581614e-2" y="-5.646321521629138e-2"/>
    <rect height="2.0000000000000004e-2" width="2.0000000000000004e-2" x="4.0582744489984564e-2" y="-5.663884313375488e-2"/>
    <rect height="2.0000000000000004e-2" width="2.0000000000000004e-2" x="4.01923905626479e-2" y="-5.6622493627370256e-2"/>
    <rect height="2.0000000000000004e-2" width="2.0000000000000004e-2" x="4.0163726645624516e-2" y="-5.70886587926922e-2"/>
    <rect height="2.0000000000000004e-2" width="2.0000000000000004e-2" x="4.007969306326365e-2" y="-5.751279424029309e-2"/>
    <rect height="2.0000000000000004e-2" width="2.0000000000000004e-2" x="3.970923694211815e-2" y="-5.754481661483656e-2"/>
    <rect height="2.0000000000000004e-2" width="2.0000000000000004e-2" x="3.934868635584477e-2" y="-5.753544697654255e-2"/>
    <rect height="2.0000000000000004e-2" width="2.0000000000000004e-2" x="3.9251161915027095e-2" y="-5.7155483004543754e-2"/>
    <rect height="2.0000000000000004e-2" width="2.0000000000000004e-2" x="3.8952415070592e-2" y="-5.731816173578574e-2"/>
    <rect height="2.0000000000000004e-2" width="2.0000000000000004e-2" x="3.8627416687112344e-2" y="-5.7238131557670206e-2"/>
    <rect height="2.0000000000000004e-2" width="2.0000000000000004e-2" x="3.834859938284175e-2" y="-5.7078148608825645e-2"/>
    <rect height="2.0000000000000004e-2" width="2.0000000000000004e-2" x="3.822872916756071e-2" y="-5.73999074655066e-2"/>
    <rect height="2.0000000000000004e-2" width="2.0000000000000004e-2" x="3.798581558510362e-2" y="-5.720847660774008e-2"/>
    <rect height="2.0000000000000004e-2" width="2.0000000000000004e-2" x="3.770716074860903e-2" y="-5.7327998890489555e-2"/>
    <rect height="2.0000000000000004e-2" width="2.0000000000000004e-2" x="3.7445160770594905e-2" y="-5.719364173353746e-2"/>
    <rect height="2.0000000000000004e-2" width="2.0000000000000004e-2" x="3.719663353231462e-2" y="-5.705092108866704e-2"/>
    <rect height="2.0000000000000004e-2" width="2.0000000000000004e-2" x="3.7591192488721566e-2" y="-5.648258987254661e-2"/>
    <rect height="2.0000000000000004e-2" width="2.0000000000000004e-2" x="3.801206774465849e-2" y="-5.7075938547446296e-2"/>
    <rect height="2.0000000000000004e-2" width="2.0000000000000004e-2" x="3.794910410732389e-2" y="-5.672869308651262e-2"/>
    <rect height="2.0000000000000004e-2" width="2.0000000000000004e-2" x="3.813323582642337e-2" y="-5.722225252428558e-2"/>
    <rect height="2.0000000000000004e-2" width="2.0000000000000004e-2" x="3.788729502691602e-2" y="-5.7396236567564866e-2"/>
    <rect height="2.0000000000000004e-2" width="2.0000000000000004e-2" x="3.7587746772956405e-2" y="-5.738650191068905e-2"/>
    <rect height="2.0000000000000004e-2" width="2.0000000000000004e-2" x="3.7556635355237906e-2" y="-5.773924378624417e-2"/>
    <rect height="2.0000000000000004e-2" width="2.0000000000000004e-2" x="3.728471423693525e-2" y="-5.76464933980999e-2"/>
    <rect height="2.0000000000000004e-2" width="2.0000000000000004e-2" x="3.701926700277825e-2" y="-5.7735457513857884e-2"/>
    <rect height="2.0000000000000004e-2" width="2.0000000000000004e-2" x="3.6744071742005786e-2" y="-5.7725226216330354e-2"/>
    <rect height="2.0000000000000004e-2" width="2.0000000000000004e-2" x="3.64771802958126e-2" y="-5.774651057907964e-2"/>
    <rect height="2.0000000000000004e-2" width="2.0000000000000004e-2" x="3.6357689823446566e-2" y="-5.750141105551298e-2"/>
    <rect height="2.0000000000000004e-2" width="2.0000000000000004e-2" x="3.611083768195434e-2" y="-5.756741253709984e-2"/>
    <rect height="2.0000000000000004e-2" width="2.0000000000000004e-2" x="3.5883435485824185e-2" y="-5.747023098778869e-2"/>
    <rect height="2.0000000000000004e-2" width="2.0000000000000004e-2" x="3.5690396801538855e-2" y="-5.732725873085464e-2"/>
    <rect height="2.0000000000000004e-2" width="2.0000000000000004e-2" x="3.5578025853619584e-2" y="-5.710467820030806e-2"/>
    <rect height="2.0000000000000004e-2" width="2.0000000000000004e-2" x="3.534875178901565e-2" y="-5.715597878178113e-2"/>
    <rect height="2.0000000000000004e-2" width="2.0000000000000004e-2" x="3.5389295440119824e-2" y="-5.683595953758357e-2"/>
    <rect height="2.0000000000000004e-2" width="2.0000000000000004e-2" x="3.5172138891041434e-2" y="-5.690764101791523e-2"/>
    <rect height="2.0000000000000004e-2" width="2.0000000000000004e-2" x="3.6025197537911564e-2" y="-5.6261051404091315e-2"/>
    <rect height="2.0000000000000004e-2" width="2.0000000000000004e-2" x="3.581210152784187e-2" y="-5.6377351613338005e-2"/>
    <rect height="2.0000000000000004e-2" width="2.0000000000000004e-2" x="3.5939113319076295e-2" y="-5.599422423998012e-2"/>
    <rect height="2.0000000000000004e-2" width="2.0000000000000004e-2" x="3.593394444144638e-2" y="-5.630384257187481e-2"/>
    <rect height="2.0000000000000004e-2" width="2.0000000000000004e-2" x="3.5695833325920974e-2" y="-5.6352114853092876e-2"/>
    <rect height="2.0000000000000004e-2" width="2.0000000000000004e-2" x="3.551669158760485e-2" y="-5.650260893094838e-2"/>
    <rect height="2.0000000000000004e-2" width="2.0000000000000004e-2" x="3.541253448961968e-2" y="-5.628124253948907e-2"/>
    <rect height="2.0000000000000004e-2" width="2.0000000000000004e-2" x="3.561021379782615e-2" y="-5.6685591513317084e-2"/>
    <rect height="2.0000000000000004e-2" width="2.0000000000000004e-2" x="3.5741505450688334e-2" y="-5.706303605953066e-2"/>
    <rect height="2.0000000000000004e-2" width="2.0000000000000004e-2" x="3.5857509900601665e-2" y="-5.743659393125799e-2"/>
    <rect height="2.0000000000000004e-2" width="2.0000000000000004e-2" x="3.5649271016083846e-2" y="-5.755027932177358e-2"/>
    <rect height="2.0000000000000004e-2" width="2.0000000000000004e-2" x="3.5767614215832085e-2" y="-5.717884250761018e-2"/>
    <rect height="2.0000000000000004e-2" width="2.0000000000000004e-2" x="3.586506180902361e-2" y="-5.7542741097205245e-2"/>
    <rect height="2.0000000000000004e-2" width="2.0000000000000004e-2" x="3.5623933955050376e-2" y="-5.754287354980169e-2"/>
    <rect height="2.0000000000000004e-2" width="2.0000000000000004e-2" x="3.541282352712095e-2" y="-5.7447701847717185e-2"/>
    <rect height="2.0000000000000004e-2" width="2.0000000000000004e-2" x="3.52326265962939e-2" y="-5.758313522356672e-2"/>
    <rect height="2.0000000000000004e-2" width="2.0000000000000004e-2" x="3.50139229394515e-2" y="-5.763001809476397e-2"/>
    <rect height="2.0000000000000004e-2" width="2.0000000000000004e-2" x="3.494502840290071e-2" y="-5.739810094774333e-2"/>
    <rect height="2.0000000000000004e-2" width="2.0000000000000004e-2" x="3.474786113822815e-2" y="-5.731394240797771e-2"/>
    <rect height="2.0000000000000004e-2" width="2.0000000000000004e-2" x="3.4541793901349045e-2" y="-5.735978764348503e-2"/>
    <rect height="2.0000000000000004e-2" width="2.0000000000000004e-2" x="3.442673044085188e-2" y="-5.753570203358171e-2"/>
    <rect height="2.0000000000000004e-2" width="2.0000000000000004e-2" x="3.46071708302449e-2" y="-5.789634513111163e-2"/>
    <rect height="2.0000000000000004e-2" width="2.0000000000000004e-2" x="3.452021999572886e-2" y="-5.7693054716561935e-2"/>
    <rect height="2.0000000000000004e-2" width="2.0000000000000004e-2" x="3.4678742071840636e-2" y="-5.734005825325205e-2"/>
    <rect height="2.0000000000000004e-2" width="2.0000000000000004e-2" x="3.472626154013248e-2" y="-5.704152988474919e-2"/>
    <rect height="2.0000000000000004e-2" width="2.0000000000000004e-2" x="3.462679458142371e-2" y="-5.72378672659225e-2"/>
    <rect height="2.0000000000000004e-2" width="2.0000000000000004e-2" x="3.443700771592973e-2" y="-5.7157774096269647e-2"/>
    <rect height="2.0000000000000004e-2" width="2.0000000000000004e-2" x="3.434431296500629e-2" y="-5.735006868289771e-2"/>
    <rect height="2.0000000000000004e-2" width="2.0000000000000004e-2" x="3.4230835887616e-2" y="-5.7520022120847496e-2"/>
    <rect height="2.0000000000000004e-2" width="2.0000000000000004e-2" x="3.407102847285693e-2" y="-5.763180406911827e-2"/>
    <rect height="2.0000000000000004e-2" width="2.0000000000000004e-2" x="3.389397504401082e-2" y="-5.770590330716129e-2"/>
    <rect height="2.0000000000000004e-2" width="2.0000000000000004e-2" x="3.371924835770724e-2" y="-5.7637463462439024e-2"/>
    <rect height="2.0000000000000004e-2" width="2.0000000000000004e-2" x="3.358008389246104e-2" y="-5.7519324848986246e-2"/>
    <rect height="2.0000000000000004e-2" width="2.0000000000000004e-2" x="3.3845055739069714e-2" y="-5.715068359671837e-2"/>
    <rect height="2.0000000000000004e-2" width="2.0000000000000004e-2" x="3.379862243115451e-2" y="-5.694124395744903e-2"/>
    <rect height="2.0000000000000004e-2" width="2.0000000000000004e-2" x="3.384467437217876e-2" y="-5.7209612880051545e-2"/>
    <rect height="2.0000000000000004e-2" width="2.0000000000000004e-2" x="3.410301573993758e-2" y="-5.6834503342194746e-2"/>
    <rect height="2.0000000000000004e-2" width="2.0000000000000004e-2" x="3.4269360712700266e-2" y="-5.717651486584884e-2"/>
    <rect height="2.0000000000000004e-2" width="2.0000000000000004e-2" x="3.411397347082857e-2" y="-5.7295724699347954e-2"/>
    <rect height="2.0000000000000004e-2" width="2.0000000000000004e-2" x="3.39355126921952e-2" y="-5.736879960575136e-2"/>
    <rect height="2.0000000000000004e-2" width="2.0000000000000004e-2" x="3.375391904757597e-2" y="-5.742207333927817e-2"/>
    <rect height="2.0000000000000004e-2" width="2.0000000000000004e-2" x="3.357979969647907e-2" y="-5.736182609102713e-2"/>
    <rect height="2.0000000000000004e-2" width="2.0000000000000004e-2" x="3.344321259962247e-2" y="-5.724638847130236e-2"/>
    <rect height="2.0000000000000004e-2" width="2.0000000000000004e-2" x="3.34687573329614e-2" y="-5.749074222030714e-2"/>
    <rect height="2.0000000000000004e-2" width="2.0000000000000004e-2" x="3.358946527055307e-2" y="-5.778855039267127e-2"/>
    <rect height="2.0000000000000004e-2" width="2.0000000000000004e-2" x="3.341555303419875e-2" y="-5.773998207939501e-2"/>
    <rect height="2.0000000000000004e-2" width="2.0000000000000004e-2" x="3.337221214607967e-2" y="-5.793733458755245e-2"/>
    <rect height="2.0000000000000004e-2" width="2.0000000000000004e-2" x="3.344221345646959e-2" y="-5.766961942324244e-2"/>
    <rect height="2.0000000000000004e-2" width="2.0000000000000004e-2" x="3.327227432462699e-2" y="-5.7620957357163875e-2"/>
    <rect height="2.0000000000000004e-2" width="2.0000000000000004e-2" x="3.315521334613803e-2" y="-5.749427093233405e-2"/>
    <rect height="2.0000000000000004e-2" width="2.0000000000000004e-2" x="3.30905206508253e-2" y="-5.7322185489519166e-2"/>
    <rect height="2.0000000000000004e-2" width="2.0000000000000004e-2" x="3.306818386033906e-2" y="-5.712043592699944e-2"/>
    <rect height="2.0000000000000004e-2" width="2.0000000000000004e-2" x="3.295815211379994e-2" y="-5.699365224813801e-2"/>
    <rect height="2.0000000000000004e-2" width="2.0000000000000004e-2" x="3.2807727468414656e-2" y="-5.7057996009639116e-2"/>
    <rect height="2.0000000000000004e-2" width="2.0000000000000004e-2" x="3.272388489637513e-2" y="-5.7201655357011265e-2"/>
    <rect height="2.0000000000000004e-2" width="2.0000000000000004e-2" x="3.256491576716059e-2" y="-5.7186412406540314e-2"/>
    <rect height="2.0000000000000004e-2" width="2.0000000000000004e-2" x="3.257524199539664e-2" y="-5.739262375962117e-2"/>
    <rect height="2.0000000000000004e-2" width="2.0000000000000004e-2" x="3.2422355682791955e-2" y="-5.736417938031634e-2"/>
    <rect height="2.0000000000000004e-2" width="2.0000000000000004e-2" x="3.260259244708464e-2" y="-5.70738509364429e-2"/>
    <rect height="2.0000000000000004e-2" width="2.0000000000000004e-2" x="3.262633719775666e-2" y="-5.7289546753798264e-2"/>
    <rect height="2.0000000000000004e-2" width="2.0000000000000004e-2" x="3.24706411675565e-2" y="-5.731015597354271e-2"/>
    <rect height="2.0000000000000004e-2" width="2.0000000000000004e-2" x="3.270185562151862e-2" y="-5.762431503305864e-2"/>
    <rect height="2.0000000000000004e-2" width="2.0000000000000004e-2" x="3.256099756519815e-2" y="-5.755535279991774e-2"/>
    <rect height="2.0000000000000004e-2" width="2.0000000000000004e-2" x="3.257311359679505e-2" y="-5.734819799573942e-2"/>
    <rect height="2.0000000000000004e-2" width="2.0000000000000004e-2" x="3.2454431466202534e-2" y="-5.725094926954876e-2"/>
    <rect height="2.0000000000000004e-2" width="2.0000000000000004e-2" x="3.243321697559099e-2" y="-5.706923905163929e-2"/>
    <rect height="2.0000000000000004e-2" width="2.0000000000000004e-2" x="3.232058502196256e-2" y="-5.716855343094051e-2"/>
    <rect height="2.0000000000000004e-2" width="2.0000000000000004e-2" x="3.217469161420595e-2" y="-5.713864698261761e-2"/>
    <rect height="2.0000000000000004e-2" width="2.0000000000000004e-2" x="3.2105563750795436e-2" y="-5.7273784840001556e-2"/>
    <rect height="2.0000000000000004e-2" width="2.0000000000000004e-2" x="3.197330846200531e-2" y="-5.722110450174355e-2"/>
    <rect height="2.0000000000000004e-2" width="2.0000000000000004e-2" x="3.183253261257724e-2" y="-5.722082432168373e-2"/>
    <rect height="2.0000000000000004e-2" width="2.0000000000000004e-2" x="3.237383739288103e-2" y="-5.682020864617398e-2"/>
    <rect height="2.0000000000000004e-2" width="2.0000000000000004e-2" x="3.249544491687396e-2" y="-5.6559087202303286e-2"/>
    <rect height="2.0000000000000004e-2" width="2.0000000000000004e-2" x="3.2342590752433516e-2" y="-5.6542229280954974e-2"/>
    <rect height="2.0000000000000004e-2" width="2.0000000000000004e-2" x="3.220825202361822e-2" y="-5.6480241394495805e-2"/>
    <rect height="2.0000000000000004e-2" width="2.0000000000000004e-2" x="3.817086834213446e-2" y="-5.4984422865820275e-2"/>
    <rect height="2.0000000000000004e-2" width="2.0000000000000004e-2" x="3.929644614836448e-2" y="-5.413056296167439e-2"/>
    <rect height="2.0000000000000004e-2" width="2.0000000000000004e-2" x="4.000826901104038e-2" y="-5.488637237967297e-2"/>
    <rect height="2.0000000000000004e-2" width="2.0000000000000004e-2" x="3.9722886747346815e-2" y="-5.470496803518165e-2"/>
    <rect height="2.0000000000000004e-2" width="2.0000000000000004e-2" x="4.126414209545804e-2" y="-5.575362000637806e-2"/>
    <rect height="2.0000000000000004e-2" width="2.0000000000000004e-2" x="4.088954188482453e-2" y="-5.578344604355045e-2"/>
    <rect height="2.0000000000000004e-2" width="2.0000000000000004e-2" x="4.113879939635146e-2" y="-5.5172178348375726e-2"/>
    <rect height="2.0000000000000004e-2" width="2.0000000000000004e-2" x="4.0770754862891286e-2" y="-5.522620836436653e-2"/>
    <rect height="2.0000000000000004e-2" width="2.0000000000000004e-2" x="4.0434106141285404e-2" y="-5.5100278913781435e-2"/>
    <rect height="2.0000000000000004e-2" width="2.0000000000000004e-2" x="4.013183149978495e-2" y="-5.492594487812207e-2"/>
    <rect height="2.0000000000000004e-2" width="1.9999999999999997e-2" x="4.260729363590721e-2" y="-5.360079708363329e-2"/>
    <rect height="2.0000000000000004e-2" width="1.9999999999999997e-2" x="4.3575406293286496e-2" y="-5.457822782308085e-2"/>
    <rect height="2.0000000000000004e-2" width="1.9999999999999997e-2" x="4.379442577263471e-2" y="-5.389334513780996e-2"/>
    <rect height="2.0000000000000004e-2" width="1.9999999999999997e-2" x="4.339077517954793e-2" y="-5.373204286782395e-2"/>
    <rect height="2.0000000000000004e-2" width="1.9999999999999997e-2" x="4.394550774474416e-2" y="-5.457229714778044e-2"/>
    <rect height="2.0000000000000004e-2" width="1.9999999999999997e-2" x="4.3970798503238935e-2" y="-5.51571412655728e-2"/>
    <rect height="2.0000000000000004e-2" width="1.9999999999999997e-2" x="4.393023819777487e-2" y="-5.569969682016029e-2"/>
    <rect height="2.0000000000000004e-2" width="1.9999999999999997e-2" x="4.356712211700887e-2" y="-5.545904715884486e-2"/>
    <rect height="2.0000000000000004e-2" width="1.9999999999999997e-2" x="4.326590985195567e-2" y="-5.576569331251346e-2"/>
    <rect height="2.0000000000000004e-2" width="1.9999999999999997e-2" x="4.29873570492535e-2" y="-5.608641628631838e-2"/>
    <rect height="2.0000000000000004e-2" width="1.9999999999999997e-2" x="4.388876829472455e-2" y="-5.705323059356326e-2"/>
    <rect height="2.0000000000000004e-2" width="1.9999999999999997e-2" x="4.347231317383538e-2" y="-5.6916622986925784e-2"/>
    <rect height="2.0000000000000004e-2" width="1.9999999999999997e-2" x="4.330492312051571e-2" y="-5.6484705371381165e-2"/>
    <rect height="2.0000000000000004e-2" width="1.9999999999999997e-2" x="4.398048997714433e-2" y="-5.559593197717904e-2"/>
    <rect height="2.0000000000000004e-2" width="1.9999999999999997e-2" x="4.3536128543664517e-2" y="-5.557840002141067e-2"/>
    <rect height="2.0000000000000004e-2" width="1.9999999999999997e-2" x="4.3222846064326144e-2" y="-5.5287279739871346e-2"/>
    <rect height="2.0000000000000004e-2" width="1.9999999999999997e-2" x="4.321126096428852e-2" y="-5.5824892707522215e-2"/>
    <rect height="2.0000000000000004e-2" width="1.9999999999999997e-2" x="4.281330285387309e-2" y="-5.5962203913493706e-2"/>
    <rect height="2.0000000000000004e-2" width="1.9999999999999997e-2" x="4.315676593450946e-2" y="-5.523943020748367e-2"/>
    <rect height="2.0000000000000004e-2" width="1.9999999999999997e-2" x="4.3543984809258036e-2" y="-5.4483891698811175e-2"/>
    <rect height="2.0000000000000004e-2" width="1.9999999999999997e-2" x="4.3192783777738726e-2" y="-5.4724973700837724e-2"/>
    <rect height="2.0000000000000004e-2" width="1.9999999999999997e-2" x="4.2827526672349465e-2" y="-5.452231816856445e-2"/>
    <rect height="2.0000000000000004e-2" width="1.9999999999999997e-2" x="4.332415071057861e-2" y="-5.531703577503443e-2"/>
    <rect height="2.0000000000000004e-2" width="1.9999999999999997e-2" x="4.295897785004144e-2" y="-5.5526230328863495e-2"/>
    <rect height="2.0000000000000004e-2" width="1.9999999999999997e-2" x="4.415384326865069e-2" y="-5.659853293942629e-2"/>
    <rect height="2.0000000000000004e-2" width="1.9999999999999997e-2" x="4.371820436080865e-2" y="-5.649933081709712e-2"/>
    <rect height="2.0000000000000004e-2" width="1.9999999999999997e-2" x="4.347108072284545e-2" y="-5.6868548811146884e-2"/>
    <rect height="2.0000000000000004e-2" width="1.9999999999999997e-2" x="4.335729601350825e-2" y="-5.734251778455623e-2"/>
    <rect height="2.0000000000000004e-2" width="1.9999999999999997e-2" x="4.595539818634165e-2" y="-5.582716483736371e-2"/>
    <rect height="2.0000000000000004e-2" width="1.9999999999999997e-2" x="4.546181637967928e-2" y="-5.579625922153585e-2"/>
    <rect height="2.0000000000000004e-2" width="1.9999999999999997e-2" x="4.626751102592342e-2" y="-5.4775929329429644e-2"/>
    <rect height="2.0000000000000004e-2" width="1.9999999999999997e-2" x="4.5799919827937303e-2" y="-5.494502285955782e-2"/>
    <rect height="2.0000000000000004e-2" width="1.9999999999999997e-2" x="4.531449722402293e-2" y="-5.501061768791415e-2"/>
    <rect height="2.0000000000000004e-2" width="1.9999999999999997e-2" x="4.496838206084953e-2" y="-5.5331584967291285e-2"/>
    <rect height="2.0000000000000004e-2" width="1.9999999999999997e-2" x="4.450233755845812e-2" y="-5.5384875049024e-2"/>
    <rect height="2.0000000000000004e-2" width="1.9999999999999997e-2" x="4.489845454867803e-2" y="-5.457929998451593e-2"/>
    <rect height="2.0000000000000004e-2" width="1.9999999999999997e-2" x="4.534374413931209e-2" y="-5.373673907223408e-2"/>
    <rect height="2.0000000000000004e-2" width="1.9999999999999997e-2" x="4.489186055875117e-2" y="-5.388262893124828e-2"/>
    <rect height="2.0000000000000004e-2" width="1.9999999999999997e-2" x="4.483586579867938e-2" y="-5.332078486715352e-2"/>
    <rect height="2.0000000000000004e-2" width="1.9999999999999997e-2" x="4.476677361373849e-2" y="-5.276986905090574e-2"/>
    <rect height="2.0000000000000004e-2" width="1.9999999999999997e-2" x="4.50222162057985e-2" y="-5.202627902924583e-2"/>
    <rect height="2.0000000000000004e-2" width="1.9999999999999997e-2" x="5.178637091946537e-2" y="-5.3470709831034184e-2"/>
    <rect height="2.0000000000000004e-2" width="1.9999999999999997e-2" x="5.142065941605046e-2" y="-5.400880085090153e-2"/>
    <rect height="2.0000000000000004e-2" width="1.9999999999999997e-2" x="5.079265433303393e-2" y="-5.408143278603816e-2"/>
    <rect height="2.0000000000000004e-2" width="1.9999999999999997e-2" x="5.042854930878549e-2" y="-5.458586121039965e-2"/>
    <rect height="2.0000000000000004e-2" width="1.9999999999999997e-2" x="4.984536683616559e-2" y="-5.474232597348871e-2"/>
    <rect height="2.0000000000000004e-2" width="1.9999999999999997e-2" x="5.033818556012704e-2" y="-5.3708633911261676e-2"/>
    <rect height="2.0000000000000004e-2" width="1.9999999999999997e-2" x="5.238647516361051e-2" y="-5.5367646608682534e-2"/>
    <rect height="2.0000000000000004e-2" width="1.9999999999999997e-2" x="5.185991307350513e-2" y="-5.574173810778459e-2"/>
    <rect height="2.0000000000000004e-2" width="1.9999999999999997e-2" x="5.1430838160913435e-2" y="-5.621665984436618e-2"/>
    <rect height="2.0000000000000004e-2" width="1.9999999999999997e-2" x="5.0837021295986336e-2" y="-5.6418272819760855e-2"/>
    <rect height="2.0000000000000004e-2" width="1.9999999999999997e-2" x="5.026277764748178e-2" y="-5.6628596147652026e-2"/>
    <rect height="2.0000000000000004e-2" width="1.9999999999999997e-2" x="4.965903837111952e-2" y="-5.661944193268297e-2"/>
    <rect height="2.0000000000000004e-2" width="1.9999999999999997e-2" x="4.913022992211414e-2" y="-5.638066025870724e-2"/>
    <rect height="2.0000000000000004e-2" width="1.9999999999999997e-2" x="4.880984943368417e-2" y="-5.686924756151345e-2"/>
    <rect height="2.0000000000000004e-2" width="1.9999999999999997e-2" x="4.825068408361067e-2" y="-5.6954271872510114e-2"/>
    <rect height="2.0000000000000004e-2" width="1.9999999999999997e-2" x="4.781230638222068e-2" y="-5.727492208143558e-2"/>
    <rect height="2.0000000000000004e-2" width="1.9999999999999997e-2" x="4.761621725883992e-2" y="-5.7827990012197066e-2"/>
    <rect height="2.0000000000000004e-2" width="1.9999999999999997e-2" x="4.763963862518806e-2" y="-5.712531681636112e-2"/>
    <rect height="2.0000000000000004e-2" width="1.9999999999999997e-2" x="4.710808590491023e-2" y="-5.71966830264835e-2"/>
    <rect height="2.0000000000000004e-2" width="1.9999999999999997e-2" x="4.6585255341612626e-2" y="-5.722741165113931e-2"/>
    <rect height="2.0000000000000004e-2" width="1.9999999999999997e-2" x="4.621952969710042e-2" y="-5.7574365604696524e-2"/>
    <rect height="2.0000000000000004e-2" width="1.9999999999999997e-2" x="4.5917536799388266e-2" y="-5.717082831502162e-2"/>
    <rect height="2.0000000000000004e-2" width="1.9999999999999997e-2" x="4.5435048529276274e-2" y="-5.7075706732740865e-2"/>
    <rect height="2.0000000000000004e-2" width="1.9999999999999997e-2" x="4.551651392061729e-2" y="-5.774345724134044e-2"/>
    <rect height="2.0000000000000004e-2" width="1.9999999999999997e-2" x="4.516802860186587e-2" y="-5.806944692532456e-2"/>
    <rect height="2.0000000000000004e-2" width="1.9999999999999997e-2" x="4.46947403424558e-2" y="-5.803514188165159e-2"/>
    <rect height="2.0000000000000004e-2" width="1.9999999999999997e-2" x="4.430249242737295e-2" y="-5.826541221828784e-2"/>
    <rect height="2.0000000000000004e-2" width="1.9999999999999997e-2" x="4.3871373770853934e-2" y="-5.839186713023902e-2"/>
    <rect height="2.0000000000000004e-2" width="1.9999999999999997e-2" x="4.348012046030104e-2" y="-5.82011429934629e-2"/>
    <rect height="2.0000000000000004e-2" width="1.9999999999999997e-2" x="4.340606682683835e-2" y="-5.769787601489328e-2"/>
    <rect height="2.0000000000000004e-2" width="1.9999999999999997e-2" x="4.29768113108906e-2" y="-5.7672172780114155e-2"/>
    <rect height="2.0000000000000004e-2" width="1.9999999999999997e-2" x="4.2558251773928364e-2" y="-5.7649230785146825e-2"/>
    <rect height="2.0000000000000004e-2" width="1.9999999999999997e-2" x="4.2554859397457186e-2" y="-5.817060324671707e-2"/>
    <rect height="2.0000000000000004e-2" width="2.0000000000000004e-2" x="4.215092358242601e-2" y="-5.822646979440859e-2"/>
    <rect height="2.0000000000000004e-2" width="2.0000000000000004e-2" x="4.181539697521553e-2" y="-5.8024790264408536e-2"/>
    <rect height="2.0000000000000004e-2" width="2.0000000000000004e-2" x="4.169358870908125e-2" y="-5.8438142838394096e-2"/>
    <rect height="2.0000000000000004e-2" width="2.0000000000000004e-2" x="4.130781148675145e-2" y="-5.8412312880831256e-2"/>
    <rect height="2.0000000000000004e-2" width="2.0000000000000004e-2" x="4.093097596066842e-2" y="-5.8400250885499265e-2"/>
    <rect height="2.0000000000000004e-2" width="2.0000000000000004e-2" x="4.066784145227876e-2" y="-5.815048809664169e-2"/>
    <rect height="2.0000000000000004e-2" width="2.0000000000000004e-2" x="4.038094289365613e-2" y="-5.835870566858758e-2"/>
    <rect height="2.0000000000000004e-2" width="2.0000000000000004e-2" x="4.0029335365548764e-2" y="-5.832488271355917e-2"/>
    <rect height="2.0000000000000004e-2" width="2.0000000000000004e-2" x="3.971165790134302e-2" y="-5.8201981921149774e-2"/>
    <rect height="2.0000000000000004e-2" width="2.0000000000000004e-2" x="3.939546613417067e-2" y="-5.8096295697006466e-2"/>
    <rect height="2.0000000000000004e-2" width="2.0000000000000004e-2" x="3.914398509419415e-2" y="-5.789329825191102e-2"/>
    <rect height="2.0000000000000004e-2" width="2.0000000000000004e-2" x="3.893399781187069e-2" y="-5.813596977154655e-2"/>
    <rect height="2.0000000000000004e-2" width="2.0000000000000004e-2" x="3.874058660959601e-2" y="-5.788346446092351e-2"/>
    <rect height="2.0000000000000004e-2" width="2.0000000000000004e-2" x="3.845517850473091e-2" y="-5.7767307886217194e-2"/>
    <rect height="2.0000000000000004e-2" width="2.0000000000000004e-2" x="3.8400547568550276e-2" y="-5.741393736737676e-2"/>
    <rect height="2.0000000000000004e-2" width="2.0000000000000004e-2" x="3.843118205101748e-2" y="-5.7005802650797126e-2"/>
    <rect height="2.0000000000000004e-2" width="2.0000000000000004e-2" x="3.815480866855404e-2" y="-5.6888555433347913e-2"/>
    <rect height="2.0000000000000004e-2" width="2.0000000000000004e-2" x="3.8673971476518305e-2" y="-5.752659948728899e-2"/>
    <rect height="2.0000000000000004e-2" width="2.0000000000000004e-2" x="3.837791793688195e-2" y="-5.761150268410497e-2"/>
    <rect height="2.0000000000000004e-2" width="2.0000000000000004e-2" x="3.821115276749421e-2" y="-5.787068312747345e-2"/>
    <rect height="2.0000000000000004e-2" width="2.0000000000000004e-2" x="3.793468535294831e-2" y="-5.776700742637685e-2"/>
    <rect height="2.0000000000000004e-2" width="2.0000000000000004e-2" x="3.769961908696063e-2" y="-5.793073447183638e-2"/>
    <rect height="2.0000000000000004e-2" width="2.0000000000000004e-2" x="3.74347975645919e-2" y="-5.802910682585493e-2"/>
    <rect height="2.0000000000000004e-2" width="2.0000000000000004e-2" x="3.716940869449404e-2" y="-5.795063365077512e-2"/>
    <rect height="2.0000000000000004e-2" width="2.0000000000000004e-2" x="3.698838445340958e-2" y="-5.774956876525283e-2"/>
    <rect height="2.0000000000000004e-2" width="2.0000000000000004e-2" x="3.713091048113571e-2" y="-5.8175514633437723e-2"/>
    <rect height="2.0000000000000004e-2" width="2.0000000000000004e-2" x="3.870660821374639e-2" y="-5.7235567202166486e-2"/>
    <rect height="2.0000000000000004e-2" width="2.0000000000000004e-2" x="3.840528747319639e-2" y="-5.7164950475848235e-2"/>
    <rect height="2.0000000000000004e-2" width="2.0000000000000004e-2" x="3.82737142785834e-2" y="-5.745685152254409e-2"/>
    <rect height="2.0000000000000004e-2" width="2.0000000000000004e-2" x="3.8104319539948646e-2" y="-5.7203867597740314e-2"/>
    <rect height="2.0000000000000004e-2" width="2.0000000000000004e-2" x="3.784329225395867e-2" y="-5.7333373753434495e-2"/>
    <rect height="2.0000000000000004e-2" width="2.0000000000000004e-2" x="3.770109461922178e-2" y="-5.759686043868139e-2"/>
    <rect height="2.0000000000000004e-2" width="2.0000000000000004e-2" x="3.787369164381805e-2" y="-5.806223419166722e-2"/>
    <rect height="2.0000000000000004e-2" width="2.0000000000000004e-2" x="3.7595057446048415e-2" y="-5.798875006413461e-2"/>
    <rect height="2.0000000000000004e-2" width="2.0000000000000004e-2" x="3.731343992922332e-2" y="-5.801450101389693e-2"/>
    <rect height="2.0000000000000004e-2" width="2.0000000000000004e-2" x="3.703855157542813e-2" y="-5.8036108885048614e-2"/>
    <rect height="2.0000000000000004e-2" width="2.0000000000000004e-2" x="3.681114162627975e-2" y="-5.81708116033206e-2"/>
    <rect height="2.0000000000000004e-2" width="2.0000000000000004e-2" x="3.655043441347262e-2" y="-5.813811441483107e-2"/>
    <rect height="2.0000000000000004e-2" width="2.0000000000000004e-2" x="3.658635644924236e-2" y="-5.778683243428694e-2"/>
    <rect height="2.0000000000000004e-2" width="2.0000000000000004e-2" x="3.635061156841025e-2" y="-5.7882197389637284e-2"/>
    <rect height="2.0000000000000004e-2" width="2.0000000000000004e-2" x="3.610896568608824e-2" y="-5.7818642916547806e-2"/>
    <rect height="2.0000000000000004e-2" width="2.0000000000000004e-2" x="3.5999864826767654e-2" y="-5.805229353433838e-2"/>
    <rect height="2.0000000000000004e-2" width="2.0000000000000004e-2" x="3.578363999348056e-2" y="-5.7950259404358044e-2"/>
    <rect height="2.0000000000000004e-2" width="2.0000000000000004e-2" x="3.555190231228545e-2" y="-5.7904451397140504e-2"/>
    <rect height="2.0000000000000004e-2" width="2.0000000000000004e-2" x="3.539608897330183e-2" y="-5.7735877419082364e-2"/>
    <rect height="2.0000000000000004e-2" width="2.0000000000000004e-2" x="3.516915531852317e-2" y="-5.774876242118531e-2"/>
    <rect height="2.0000000000000004e-2" width="2.0000000000000004e-2" x="3.4948001169093475e-2" y="-5.773557821296226e-2"/>
    <rect height="2.0000000000000004e-2" width="2.0000000000000004e-2" x="3.505082928184234e-2" y="-5.807281070236591e-2"/>
    <rect height="2.0000000000000004e-2" width="2.0000000000000004e-2" x="3.491656360975837e-2" y="-5.7899510456201335e-2"/>
    <rect height="2.0000000000000004e-2" width="2.0000000000000004e-2" x="3.4720913551755224e-2" y="-5.781681137316074e-2"/>
    <rect height="2.0000000000000004e-2" width="2.0000000000000004e-2" x="3.4574546887854e-2" y="-5.796466222423768e-2"/>
    <rect height="2.0000000000000004e-2" width="2.0000000000000004e-2" x="3.4369321469428844e-2" y="-5.794335159107355e-2"/>
    <rect height="2.0000000000000004e-2" width="2.0000000000000004e-2" x="3.4169949138607165e-2" y="-5.791772002032091e-2"/>
    <rect height="2.0000000000000004e-2" width="2.0000000000000004e-2" x="3.44731273272404e-2" y="-5.751261074709856e-2"/>
    <rect height="2.0000000000000004e-2" width="2.0000000000000004e-2" x="3.433009938270649e-2" y="-5.737036987820698e-2"/>
    <rect height="2.0000000000000004e-2" width="2.0000000000000004e-2" x="3.458700509885038e-2" y="-5.77613184805642e-2"/>
    <rect height="2.0000000000000004e-2" width="2.0000000000000004e-2" x="3.457991247346604e-2" y="-5.7500928670349165e-2"/>
    <rect height="2.0000000000000004e-2" width="2.0000000000000004e-2" x="3.6072790662346595e-2" y="-5.670727429104049e-2"/>
    <rect height="2.0000000000000004e-2" width="2.0000000000000004e-2" x="3.5843876740045195e-2" y="-5.6628623673270255e-2"/>
    <rect height="2.0000000000000004e-2" width="2.0000000000000004e-2" x="3.565458040893477e-2" y="-5.649018915807479e-2"/>
    <rect height="2.0000000000000004e-2" width="2.0000000000000004e-2" x="3.549752788709438e-2" y="-5.666123052220439e-2"/>
    <rect height="2.0000000000000004e-2" width="2.0000000000000004e-2" x="3.807543165385608e-2" y="-5.556042608032185e-2"/>
    <rect height="2.0000000000000004e-2" width="2.0000000000000004e-2" x="3.812519752734101e-2" y="-5.596967701389232e-2"/>
    <rect height="2.0000000000000004e-2" width="2.0000000000000004e-2" x="3.800456371046291e-2" y="-5.626140620165986e-2"/>
    <rect height="2.0000000000000004e-2" width="2.0000000000000004e-2" x="3.806504749943774e-2" y="-5.667475377594255e-2"/>
    <rect height="2.0000000000000004e-2" width="2.0000000000000004e-2" x="3.791911514500424e-2" y="-5.6407034582445996e-2"/>
    <rect height="2.0000000000000004e-2" width="2.0000000000000004e-2" x="3.781146543893799e-2" y="-5.6111497266657755e-2"/>
    <rect height="2.0000000000000004e-2" width="2.0000000000000004e-2" x="3.7865238108953043e-2" y="-5.651456214677108e-2"/>
    <rect height="2.0000000000000004e-2" width="2.0000000000000004e-2" x="3.760795495202119e-2" y="-5.639070194536643e-2"/>
    <rect height="2.0000000000000004e-2" width="2.0000000000000004e-2" x="3.791753247073016e-2" y="-5.586193255499849e-2"/>
    <rect height="2.0000000000000004e-2" width="2.0000000000000004e-2" x="3.7646015132349005e-2" y="-5.5958404692223566e-2"/>
    <rect height="2.0000000000000004e-2" width="2.0000000000000004e-2" x="3.761954395904966e-2" y="-5.561173245688766e-2"/>
    <rect height="2.0000000000000004e-2" width="2.0000000000000004e-2" x="3.748549583042982e-2" y="-5.534861336524365e-2"/>
    <rect height="2.0000000000000004e-2" width="2.0000000000000004e-2" x="3.725834858889688e-2" y="-5.5504135455157415e-2"/>
    <rect height="2.0000000000000004e-2" width="2.0000000000000004e-2" x="3.7626531045075635e-2" y="-5.4961444684387566e-2"/>
    <rect height="2.0000000000000004e-2" width="2.0000000000000004e-2" x="3.7346792993693485e-2" y="-5.49179034962417e-2"/>
    <rect height="2.0000000000000004e-2" width="2.0000000000000004e-2" x="3.923847719303542e-2" y="-5.5952858117673025e-2"/>
    <rect height="2.0000000000000004e-2" width="2.0000000000000004e-2" x="3.9208687721580045e-2" y="-5.6348985240115994e-2"/>
    <rect height="2.0000000000000004e-2" width="2.0000000000000004e-2" x="3.903969521210927e-2" y="-5.663498563867885e-2"/>
    <rect height="2.0000000000000004e-2" width="2.0000000000000004e-2" x="3.9132398497926386e-2" y="-5.7100901007755105e-2"/>
    <rect height="2.0000000000000004e-2" width="2.0000000000000004e-2" x="3.8874115267172556e-2" y="-5.728341915140988e-2"/>
    <rect height="2.0000000000000004e-2" width="2.0000000000000004e-2" x="3.8563761919535595e-2" y="-5.72323821437739e-2"/>
    <rect height="2.0000000000000004e-2" width="2.0000000000000004e-2" x="3.8287160494455914e-2" y="-5.710803989135648e-2"/>
    <rect height="2.0000000000000004e-2" width="2.0000000000000004e-2" x="3.8037093766253645e-2" y="-5.726505140126003e-2"/>
    <rect height="2.0000000000000004e-2" width="2.0000000000000004e-2" x="3.776674855599361e-2" y="-5.7158238237503094e-2"/>
    <rect height="2.0000000000000004e-2" width="2.0000000000000004e-2" x="3.7479686531362584e-2" y="-5.717098022698474e-2"/>
    <rect height="2.0000000000000004e-2" width="2.0000000000000004e-2" x="3.755416744215135e-2" y="-5.7575416176100395e-2"/>
    <rect height="2.0000000000000004e-2" width="2.0000000000000004e-2" x="3.728753240955774e-2" y="-5.765930381407402e-2"/>
    <rect height="2.0000000000000004e-2" width="2.0000000000000004e-2" x="3.731352472932282e-2" y="-5.802841969194094e-2"/>
    <rect height="2.0000000000000004e-2" width="2.0000000000000004e-2" x="3.707483810222768e-2" y="-5.789927630546176e-2"/>
    <rect height="2.0000000000000004e-2" width="2.0000000000000004e-2" x="3.68522294562439e-2" y="-5.7755338820426376e-2"/>
    <rect height="2.0000000000000004e-2" width="2.0000000000000004e-2" x="3.712834138672406e-2" y="-5.726805331117334e-2"/>
    <rect height="2.0000000000000004e-2" width="2.0000000000000004e-2" x="3.6875509770248456e-2" y="-5.717806497029764e-2"/>
    <rect height="2.0000000000000004e-2" width="2.0000000000000004e-2" x="3.6657065979903265e-2" y="-5.731931373281129e-2"/>
    <rect height="2.0000000000000004e-2" width="2.0000000000000004e-2" x="3.65129525285306e-2" y="-5.7539922323990626e-2"/>
    <rect height="2.0000000000000004e-2" width="2.0000000000000004e-2" x="3.646518573148883e-2" y="-5.783489113230288e-2"/>
    <rect height="2.0000000000000004e-2" width="2.0000000000000004e-2" x="3.6222062655318917e-2" y="-5.790325196033385e-2"/>
    <rect height="2.0000000000000004e-2" width="2.0000000000000004e-2" x="3.616240710579289e-2" y="-5.818005774099232e-2"/>
    <rect height="2.0000000000000004e-2" width="2.0000000000000004e-2" x="3.598048585206371e-2" y="-5.8018752532192124e-2"/>
    <rect height="2.0000000000000004e-2" width="2.0000000000000004e-2" x="3.594984017173498e-2" y="-5.772905292152863e-2"/>
    <rect height="2.0000000000000004e-2" width="2.0000000000000004e-2" x="3.5708446169922865e-2" y="-5.7726923201512396e-2"/>
    <rect height="2.0000000000000004e-2" width="2.0000000000000004e-2" x="3.55278043591758e-2" y="-5.787146578786594e-2"/>
    <rect height="2.0000000000000004e-2" width="2.0000000000000004e-2" x="3.530089626397804e-2" y="-5.790921100266221e-2"/>
    <rect height="2.0000000000000004e-2" width="2.0000000000000004e-2" x="3.512978566819381e-2" y="-5.804953202642659e-2"/>
    <rect height="2.0000000000000004e-2" width="2.0000000000000004e-2" x="3.4921227051047506e-2" y="-5.798379408284537e-2"/>
    <rect height="2.0000000000000004e-2" width="2.0000000000000004e-2" x="3.484773348569648e-2" y="-5.776038059753474e-2"/>
    <rect height="2.0000000000000004e-2" width="2.0000000000000004e-2" x="3.498765594478948e-2" y="-5.7407034270568695e-2"/>
    <rect height="2.0000000000000004e-2" width="2.0000000000000004e-2" x="3.48108044107951e-2" y="-5.7526047206676305e-2"/>
    <rect height="2.0000000000000004e-2" width="2.0000000000000004e-2" x="3.490057633080513e-2" y="-5.720043442741806e-2"/>
    <rect height="2.0000000000000004e-2" width="2.0000000000000004e-2" x="3.471197741036359e-2" y="-5.729606710608492e-2"/>
    <rect height="2.0000000000000004e-2" width="2.0000000000000004e-2" x="3.4714012052691874e-2" y="-5.75664666878991e-2"/>
    <rect height="2.0000000000000004e-2" width="2.0000000000000004e-2" x="3.457923095398697e-2" y="-5.7726962338832226e-2"/>
    <rect height="2.0000000000000004e-2" width="2.0000000000000004e-2" x="3.462726626564273e-2" y="-5.7432587435726316e-2"/>
    <rect height="2.0000000000000004e-2" width="2.0000000000000004e-2" x="3.466137471657294e-2" y="-5.772024137118647e-2"/>
    <rect height="2.0000000000000004e-2" width="2.0000000000000004e-2" x="3.4502242905760656e-2" y="-5.7590461772872074e-2"/>
    <rect height="2.0000000000000004e-2" width="2.0000000000000004e-2" x="3.438073059870362e-2" y="-5.7423868632940904e-2"/>
    <rect height="2.0000000000000004e-2" width="2.0000000000000004e-2" x="3.5006882620773346e-2" y="-5.689015187314838e-2"/>
    <rect height="2.0000000000000004e-2" width="2.0000000000000004e-2" x="3.5279178952246755e-2" y="-5.64686733439732e-2"/>
    <rect height="2.0000000000000004e-2" width="2.0000000000000004e-2" x="3.533666891029053e-2" y="-5.614594052134369e-2"/>
    <rect height="2.0000000000000004e-2" width="2.0000000000000004e-2" x="3.908004707004343e-2" y="-5.481035247031928e-2"/>
    <rect height="2.0000000000000004e-2" width="2.0000000000000004e-2" x="3.959273022490429e-2" y="-5.5479285993146214e-2"/>
    <rect height="2.0000000000000004e-2" width="2.0000000000000004e-2" x="3.927382943681768e-2" y="-5.556858014578824e-2"/>
    <rect height="2.0000000000000004e-2" width="2.0000000000000004e-2" x="4.035424984993042e-2" y="-5.6453494026046706e-2"/>
    <rect height="2.0000000000000004e-2" width="2.0000000000000004e-2" x="4.01495154697531e-2" y="-5.61616344386947e-2"/>
    <rect height="2.0000000000000004e-2" width="2.0000000000000004e-2" x="4.030177800596469e-2" y="-5.5625996750806365e-2"/>
    <rect height="2.0000000000000004e-2" width="2.0000000000000004e-2" x="4.0835893569021404e-2" y="-5.6347765210077e-2"/>
    <rect height="2.0000000000000004e-2" width="1.9999999999999997e-2" x="4.3171753176088574e-2" y="-5.5024524990081584e-2"/>
    <rect height="2.0000000000000004e-2" width="1.9999999999999997e-2" x="4.2798892969926124e-2" y="-5.521263596720526e-2"/>
    <rect height="2.0000000000000004e-2" width="1.9999999999999997e-2" x="4.311989916219384e-2" y="-5.592385863648252e-2"/>
    <rect height="2.0000000000000004e-2" width="1.9999999999999997e-2" x="4.316909422896532e-2" y="-5.6496719594301796e-2"/>
    <rect height="2.0000000000000004e-2" width="1.9999999999999997e-2" x="4.292496248449119e-2" y="-5.61439951677034e-2"/>
    <rect height="2.0000000000000004e-2" width="1.9999999999999997e-2" x="4.273042404751282e-2" y="-5.653434780627053e-2"/>
    <rect height="2.0000000000000004e-2" width="2.0000000000000004e-2" x="4.2317964314179786e-2" y="-5.651374924230456e-2"/>
    <rect height="2.0000000000000004e-2" width="1.9999999999999997e-2" x="4.391097858236193e-2" y="-5.5336709083069306e-2"/>
    <rect height="2.0000000000000004e-2" width="1.9999999999999997e-2" x="4.3888045843441754e-2" y="-5.588909306756428e-2"/>
    <rect height="2.0000000000000004e-2" width="1.9999999999999997e-2" x="4.346240745325681e-2" y="-5.577945000055728e-2"/>
    <rect height="2.0000000000000004e-2" width="1.9999999999999997e-2" x="4.318840736099073e-2" y="-5.61122126949699e-2"/>
    <rect height="2.0000000000000004e-2" width="1.9999999999999997e-2" x="4.3260843299316905e-2" y="-5.6701438539969e-2"/>
    <rect height="2.0000000000000004e-2" width="1.9999999999999997e-2" x="4.283505950930223e-2" y="-5.6724058232530676e-2"/>
    <rect height="2.0000000000000004e-2" width="1.9999999999999997e-2" x="4.256892575252814e-2" y="-5.640590204522155e-2"/>
    <rect height="2.0000000000000004e-2" width="1.9999999999999997e-2" x="4.2522114297095744e-2" y="-5.689856878583476e-2"/>
    <rect height="2.0000000000000004e-2" width="1.9999999999999997e-2" x="4.258899097533731e-2" y="-5.74627722459704e-2"/>
    <rect height="2.0000000000000004e-2" width="2.0000000000000004e-2" x="4.217949609375849e-2" y="-5.7459339170154326e-2"/>
    <rect height="2.0000000000000004e-2" width="2.0000000000000004e-2" x="4.178396640227911e-2" y="-5.74109955749652e-2"/>
    <rect height="2.0000000000000004e-2" width="2.0000000000000004e-2" x="4.1396014477249506e-2" y="-5.738375679264073e-2"/>
    <rect height="2.0000000000000004e-2" width="2.0000000000000004e-2" x="4.1146531023298356e-2" y="-5.766681013458607e-2"/>
    <rect height="2.0000000000000004e-2" width="2.0000000000000004e-2" x="4.078274366549873e-2" y="-5.774138280598672e-2"/>
    <rect height="2.0000000000000004e-2" width="2.0000000000000004e-2" x="4.043293792669345e-2" y="-5.7650624479530614e-2"/>
    <rect height="2.0000000000000004e-2" width="2.0000000000000004e-2" x="4.014378001307029e-2" y="-5.74559490111236e-2"/>
    <rect height="2.0000000000000004e-2" width="2.0000000000000004e-2" x="3.980533442849899e-2" y="-5.752774977819041e-2"/>
    <rect height="2.0000000000000004e-2" width="2.0000000000000004e-2" x="3.946818890197113e-2" y="-5.7495588245923816e-2"/>
    <rect height="2.0000000000000004e-2" width="2.0000000000000004e-2" x="3.9141485289422635e-2" y="-5.745054955889272e-2"/>
    <rect height="2.0000000000000004e-2" width="2.0000000000000004e-2" x="3.895208819489627e-2" y="-5.718654736875794e-2"/>
    <rect height="2.0000000000000004e-2" width="2.0000000000000004e-2" x="3.863702384886759e-2" y="-5.71517120048911e-2"/>
    <rect height="2.0000000000000004e-2" width="2.0000000000000004e-2" x="3.8655453608124064e-2" y="-5.674353207188953e-2"/>
    <rect height="2.0000000000000004e-2" width="2.0000000000000004e-2" x="3.848702662390369e-2" y="-5.701083066792722e-2"/>
    <rect height="2.0000000000000004e-2" width="2.0000000000000004e-2" x="3.8215921491416845e-2" y="-5.687995822482338e-2"/>
    <rect height="2.0000000000000004e-2" width="2.0000000000000004e-2" x="3.805015379242472e-2" y="-5.662549860563192e-2"/>
    <rect height="2.0000000000000004e-2" width="2.0000000000000004e-2" x="3.785986580111068e-2" y="-5.684910179717905e-2"/>
    <rect height="2.0000000000000004e-2" width="2.0000000000000004e-2" x="3.823595100840128e-2" y="-5.628177007964651e-2"/>
    <rect height="2.0000000000000004e-2" width="2.0000000000000004e-2" x="3.917763814360765e-2" y="-5.548550854071876e-2"/>
    <rect height="2.0000000000000004e-2" width="2.0000000000000004e-2" x="3.917319791046881e-2" y="-5.589654422452583e-2"/>
    <rect height="2.0000000000000004e-2" width="2.0000000000000004e-2" x="3.9675024068635774e-2" y="-5.6564311189242204e-2"/>
    <rect height="2.0000000000000004e-2" width="2.0000000000000004e-2" x="3.94132762726045e-2" y="-5.636344232434364e-2"/>
    <rect height="2.0000000000000004e-2" width="2.0000000000000004e-2" x="3.9956081327161115e-2" y="-5.567004419670684e-2"/>
    <rect height="2.0000000000000004e-2" width="2.0000000000000004e-2" x="3.997648130332066e-2" y="-5.612226796960195e-2"/>
    <rect height="2.0000000000000004e-2" width="2.0000000000000004e-2" x="3.980460255931063e-2" y="-5.643210081574456e-2"/>
    <rect height="2.0000000000000004e-2" width="2.0000000000000004e-2" x="3.990556279146363e-2" y="-5.6927760860314695e-2"/>
    <rect height="2.0000000000000004e-2" width="2.0000000000000004e-2" x="3.9575517821787594e-2" y="-5.684790112489801e-2"/>
    <rect height="2.0000000000000004e-2" width="2.0000000000000004e-2" x="3.95822590820727e-2" y="-5.727908387422242e-2"/>
    <rect height="2.0000000000000004e-2" width="2.0000000000000004e-2" x="3.927776449554666e-2" y="-5.715411756778898e-2"/>
    <rect height="2.0000000000000004e-2" width="2.0000000000000004e-2" x="3.896919023115664e-2" y="-5.724911750532157e-2"/>
    <rect height="2.0000000000000004e-2" width="2.0000000000000004e-2" x="3.873661414035579e-2" y="-5.7039207277066566e-2"/>
    <rect height="2.0000000000000004e-2" width="2.0000000000000004e-2" x="3.858356086269089e-2" y="-5.732352589257272e-2"/>
    <rect height="2.0000000000000004e-2" width="2.0000000000000004e-2" x="3.835362993259928e-2" y="-5.7125697546867686e-2"/>
    <rect height="2.0000000000000004e-2" width="2.0000000000000004e-2" x="3.807184459091629e-2" y="-5.722589318944448e-2"/>
    <rect height="2.0000000000000004e-2" width="2.0000000000000004e-2" x="3.778273491301488e-2" y="-5.7279575162204825e-2"/>
    <rect height="2.0000000000000004e-2" width="2.0000000000000004e-2" x="3.754138102212668e-2" y="-5.7426906374456015e-2"/>
    <rect height="2.0000000000000004e-2" width="2.0000000000000004e-2" x="3.7353506417723066e-2" y="-5.763427350926486e-2"/>
    <rect height="2.0000000000000004e-2" width="2.0000000000000004e-2" x="3.7094701917907986e-2" y="-5.7544018785113275e-2"/>
    <rect height="2.0000000000000004e-2" width="2.0000000000000004e-2" x="3.684597181725891e-2" y="-5.7641479548064416e-2"/>
    <rect height="2.0000000000000004e-2" width="2.0000000000000004e-2" x="3.666516071872939e-2" y="-5.745233761751899e-2"/>
    <rect height="2.0000000000000004e-2" width="2.0000000000000004e-2" x="3.675741624485585e-2" y="-5.784025633230382e-2"/>
    <rect height="2.0000000000000004e-2" width="2.0000000000000004e-2" x="3.652045268213711e-2" y="-5.794306937400661e-2"/>
    <rect height="2.0000000000000004e-2" width="2.0000000000000004e-2" x="3.630019586942202e-2" y="-5.782149826553273e-2"/>
    <rect height="2.0000000000000004e-2" width="2.0000000000000004e-2" x="3.605224427055421e-2" y="-5.779079374761286e-2"/>
    <rect height="2.0000000000000004e-2" width="2.0000000000000004e-2" x="3.5817872872755736e-2" y="-5.785249426035143e-2"/>
    <rect height="2.0000000000000004e-2" width="2.0000000000000004e-2" x="3.558655904404107e-2" y="-5.790352400248688e-2"/>
    <rect height="2.0000000000000004e-2" width="2.0000000000000004e-2" x="3.541760649579718e-2" y="-5.774900345677746e-2"/>
    <rect height="2.0000000000000004e-2" width="2.0000000000000004e-2" x="3.519004062473486e-2" y="-5.776058463122379e-2"/>
    <rect height="2.0000000000000004e-2" width="2.0000000000000004e-2" x="3.496993724511622e-2" y="-5.773333122522483e-2"/>
    <rect height="2.0000000000000004e-2" width="2.0000000000000004e-2" x="3.475451326840751e-2" y="-5.771307062109509e-2"/>
    <rect height="2.0000000000000004e-2" width="2.0000000000000004e-2" x="3.478130690376769e-2" y="-5.800041501322006e-2"/>
    <rect height="2.0000000000000004e-2" width="2.0000000000000004e-2" x="3.457636866332626e-2" y="-5.7951820803859515e-2"/>
    <rect height="2.0000000000000004e-2" width="2.0000000000000004e-2" x="3.439686188074998e-2" y="-5.7856462316311356e-2"/>
    <rect height="2.0000000000000004e-2" width="2.0000000000000004e-2" x="3.435878999241904e-2" y="-5.762353789782614e-2"/>
    <rect height="2.0000000000000004e-2" width="2.0000000000000004e-2" x="3.4204305584024104e-2" y="-5.7500093612276364e-2"/>
    <rect height="2.0000000000000004e-2" width="2.0000000000000004e-2" x="3.401535538577539e-2" y="-5.755146711090441e-2"/>
    <rect height="2.0000000000000004e-2" width="2.0000000000000004e-2" x="3.408271148447307e-2" y="-5.783850664169798e-2"/>
    <rect height="2.0000000000000004e-2" width="2.0000000000000004e-2" x="3.38925616061776e-2" y="-5.787388383081137e-2"/>
    <rect height="2.0000000000000004e-2" width="2.0000000000000004e-2" x="3.3751752585142965e-2" y="-5.799604757578635e-2"/>
    <rect height="2.0000000000000004e-2" width="2.0000000000000004e-2" x="3.377305730521863e-2" y="-5.774464984618043e-2"/>
    <rect height="2.0000000000000004e-2" width="2.0000000000000004e-2" x="3.422237218218172e-2" y="-5.729710383619579e-2"/>
    <rect height="2.0000000000000004e-2" width="2.0000000000000004e-2" x="3.4367508701053436e-2" y="-5.696209262848006e-2"/>
    <rect height="2.0000000000000004e-2" width="2.0000000000000004e-2" x="3.4376579529688873e-2" y="-5.7225824483714154e-2"/>
    <rect height="2.0000000000000004e-2" width="2.0000000000000004e-2" x="3.417872938046918e-2" y="-5.726067812896506e-2"/>
    <rect height="2.0000000000000004e-2" width="2.0000000000000004e-2" x="3.4409603325241685e-2" y="-5.76347596380613e-2"/>
    <rect height="2.0000000000000004e-2" width="2.0000000000000004e-2" x="3.432245211975005e-2" y="-5.7439650898348564e-2"/>
    <rect height="2.0000000000000004e-2" width="2.0000000000000004e-2" x="3.414854169116011e-2" y="-5.734724024840442e-2"/>
    <rect height="2.0000000000000004e-2" width="2.0000000000000004e-2" x="3.397929910192433e-2" y="-5.743908979331657e-2"/>
    <rect height="2.0000000000000004e-2" width="2.0000000000000004e-2" x="3.415192038432136e-2" y="-5.777930891546223e-2"/>
    <rect height="2.0000000000000004e-2" width="2.0000000000000004e-2" x="3.3966222802125474e-2" y="-5.7722445795963855e-2"/>
    <rect height="2.0000000000000004e-2" width="2.0000000000000004e-2" x="3.399423445852779e-2" y="-5.798491434050456e-2"/>
    <rect height="2.0000000000000004e-2" width="2.0000000000000004e-2" x="3.381219631731414e-2" y="-5.792956250581626e-2"/>
    <rect height="2.0000000000000004e-2" width="2.0000000000000004e-2" x="3.364985061114124e-2" y="-5.7842516764126654e-2"/>
    <rect height="2.0000000000000004e-2" width="2.0000000000000004e-2" x="3.352917130174627e-2" y="-5.7978982559202745e-2"/>
    <rect height="2.0000000000000004e-2" width="2.0000000000000004e-2" x="3.342711853587122e-2" y="-5.8130318322609724e-2"/>
    <rect height="2.0000000000000004e-2" width="2.0000000000000004e-2" x="3.325482400713776e-2" y="-5.809151368346165e-2"/>
    <rect height="2.0000000000000004e-2" width="2.0000000000000004e-2" x="3.310706879976811e-2" y="-5.800700680660153e-2"/>
    <rect height="2.0000000000000004e-2" width="2.0000000000000004e-2" x="3.302812452308102e-2" y="-5.8165132889091524e-2"/>
    <rect height="2.0000000000000004e-2" width="2.0000000000000004e-2" x="3.288302816251821e-2" y="-5.808724591098945e-2"/>
    <rect height="2.0000000000000004e-2" width="2.0000000000000004e-2" x="3.3130925897225445e-2" y="-5.775145392997238e-2"/>
    <rect height="2.0000000000000004e-2" width="2.0000000000000004e-2" x="3.298039375994511e-2" y="-5.7824787656449265e-2"/>
    <rect height="2.0000000000000004e-2" width="2.0000000000000004e-2" x="3.3166463051384716e-2" y="-5.8136977928397886e-2"/>
    <rect height="2.0000000000000004e-2" width="2.0000000000000004e-2" x="3.353961477382895e-2" y="-5.774090751168292e-2"/>
    <rect height="2.0000000000000004e-2" width="2.0000000000000004e-2" x="3.339347699152163e-2" y="-5.784105158600438e-2"/>
    <rect height="2.0000000000000004e-2" width="2.0000000000000004e-2" x="3.334079307190053e-2" y="-5.765181943847563e-2"/>
    <rect height="2.0000000000000004e-2" width="2.0000000000000004e-2" x="3.3261554506314635e-2" y="-5.781762233535525e-2"/>
    <rect height="2.0000000000000004e-2" width="2.0000000000000004e-2" x="3.32833098844112e-2" y="-5.8053372599586976e-2"/>
    <rect height="2.0000000000000004e-2" width="2.0000000000000004e-2" x="3.3253014776215235e-2" y="-5.7851186019893024e-2"/>
    <rect height="2.0000000000000004e-2" width="2.0000000000000004e-2" x="3.329637913349127e-2" y="-5.80995692103845e-2"/>
    <rect height="2.0000000000000004e-2" width="2.0000000000000004e-2" x="3.319542120094111e-2" y="-5.7955390705029634e-2"/>
    <rect height="2.0000000000000004e-2" width="2.0000000000000004e-2" x="3.302456337436844e-2" y="-5.7970346212624306e-2"/>
    <rect height="2.0000000000000004e-2" width="2.0000000000000004e-2" x="3.3190382477512166e-2" y="-5.827471319217902e-2"/>
    <rect height="2.0000000000000004e-2" width="2.0000000000000004e-2" x="3.304676063433765e-2" y="-5.836287306876497e-2"/>
    <rect height="2.0000000000000004e-2" width="2.0000000000000004e-2" x="3.303679815485872e-2" y="-5.8154359030042506e-2"/>
    <rect height="2.0000000000000004e-2" width="2.0000000000000004e-2" x="3.288512397080368e-2" y="-5.808846080089591e-2"/>
    <rect height="2.0000000000000004e-2" width="2.0000000000000004e-2" x="3.272355952398454e-2" y="-5.806407485061781e-2"/>
    <rect height="2.0000000000000004e-2" width="2.0000000000000004e-2" x="3.340484801860811e-2" y="-5.758193556072299e-2"/>
    <rect height="2.0000000000000004e-2" width="2.0000000000000004e-2" x="3.501850697649934e-2" y="-5.68198644891088e-2"/>
    <rect height="2.0000000000000004e-2" width="2.0000000000000004e-2" x="3.532534684258682e-2" y="-5.725680093339346e-2"/>
    <rect height="2.0000000000000004e-2" width="2.0000000000000004e-2" x="3.5114296642821514e-2" y="-5.718387109201727e-2"/>
    <rect height="2.0000000000000004e-2" width="2.0000000000000004e-2" x="3.492798303212031e-2" y="-5.729401342976014e-2"/>
    <rect height="2.0000000000000004e-2" width="2.0000000000000004e-2" x="3.652514959891796e-2" y="-5.645616153973009e-2"/>
    <rect height="2.0000000000000004e-2" width="2.0000000000000004e-2" x="3.652925302615729e-2" y="-5.678670590514511e-2"/>
    <rect height="2.0000000000000004e-2" width="2.0000000000000004e-2" x="3.726411617303472e-2" y="-5.7443748428626755e-2"/>
    <rect height="2.0000000000000004e-2" width="2.0000000000000004e-2" x="3.7452610895019285e-2" y="-5.790266217460804e-2"/>
    <rect height="2.0000000000000004e-2" width="2.0000000000000004e-2" x="3.7188275656971255e-2" y="-5.798542603962031e-2"/>
    <rect height="2.0000000000000004e-2" width="2.0000000000000004e-2" x="3.713571231071778e-2" y="-5.7671879051801815e-2"/>
    <rect height="2.0000000000000004e-2" width="2.0000000000000004e-2" x="3.7032383841589474e-2" y="-5.7944836844867946e-2"/>
    <rect height="2.0000000000000004e-2" width="2.0000000000000004e-2" x="3.676369133716451e-2" y="-5.795217631141802e-2"/>
    <rect height="2.0000000000000004e-2" width="2.0000000000000004e-2" x="3.6615522650788275e-2" y="-5.8172608037009625e-2"/>
    <rect height="2.0000000000000004e-2" width="2.0000000000000004e-2" x="3.641309260967774e-2" y="-5.80195656742356e-2"/>
    <rect height="2.0000000000000004e-2" width="2.0000000000000004e-2" x="3.616022874239789e-2" y="-5.803011763458831e-2"/>
    <rect height="2.0000000000000004e-2" width="2.0000000000000004e-2" x="3.60169972869382e-2" y="-5.782617790449195e-2"/>
    <rect height="2.0000000000000004e-2" width="2.0000000000000004e-2" x="3.582957322699066e-2" y="-5.797447611146e-2"/>
    <rect height="2.0000000000000004e-2" width="2.0000000000000004e-2" x="3.574104121186351e-2" y="-5.7732977111027865e-2"/>
    <rect height="2.0000000000000004e-2" width="2.0000000000000004e-2" x="3.621829854155057e-2" y="-5.7200478240035484e-2"/>
    <rect height="2.0000000000000004e-2" width="2.0000000000000004e-2" x="4.080929197690931e-2" y="-5.563896928695999e-2"/>
  </g>
</svg>