
<svg xmlns="http://www.w3.org/2000/svg" height="300.0" viewBox="-0.78 -0.7316117908787542 1.56 1.2778617908787542" width="450.0" xmlns:xlink="http://www.w3.org/1999/xlink">
  <g transform="translate(0.0, -0.55)" fill-opacity="1.0" font-size="0.12" stroke="none" stroke-width="0.0" fill="#000000" text-anchor="middle">
    <text transform="rotate(0.0, 0.0, -5.0611790878754115e-2)" x="0.0" y="-5.0611790878754115e-2">digit count
    </text>
  </g>
  <g stroke-opacity="0.0" fill-opacity="3.0e-2" stroke="#000000" stroke-width="0.0" fill="#666666">
    <rect height="0.8898776418242489" width="1.5" x="-0.75" y="-0.49555061179087856"/>
  </g>
  <g stroke-opacity="0.3" stroke="#a8e5ee" stroke-width="5.0e-3" fill="none">
    <polyline points="-0.6136363636363635,0.39877641824249166
-0.6136363636363635,-0.5"/>
  </g>
  <g stroke-opacity="0.3" stroke="#a8e5ee" stroke-width="5.0e-3" fill="none">
    <polyline points="-0.4772727272727273,0.39877641824249166
-0.4772727272727273,-0.5"/>
  </g>
  <g stroke-opacity="0.3" stroke="#a8e5ee" stroke-width="5.0e-3" fill="none">
    <polyline points="-0.34090909090909094,0.39877641824249166
-0.34090909090909094,-0.5"/>
  </g>
  <g stroke-opacity="0.3" stroke="#a8e5ee" stroke-width="5.0e-3" fill="none">
    <polyline points="-0.20454545454545459,0.39877641824249166
-0.20454545454545459,-0.5"/>
  </g>
  <g stroke-opacity="0.3" stroke="#a8e5ee" stroke-width="5.0e-3" fill="none">
    <polyline points="-6.818181818181823e-2,0.39877641824249166
-6.818181818181823e-2,-0.5"/>
  </g>
  <g stroke-opacity="0.3" stroke="#a8e5ee" stroke-width="5.0e-3" fill="none">
    <polyline points="6.818181818181812e-2,0.39877641824249166
6.818181818181812e-2,-0.5"/>
  </g>
  <g stroke-opacity="0.3" stroke="#a8e5ee" stroke-width="5.0e-3" fill="none">
    <polyline points="0.20454545454545459,0.39877641824249166
0.20454545454545459,-0.5"/>
  </g>
  <g stroke-opacity="0.3" stroke="#a8e5ee" stroke-width="5.0e-3" fill="none">
    <polyline points="0.34090909090909083,0.39877641824249166
0.34090909090909083,-0.5"/>
  </g>
  <g stroke-opacity="0.3" stroke="#a8e5ee" stroke-width="5.0e-3" fill="none">
    <polyline points="0.4772727272727273,0.39877641824249166
0.4772727272727273,-0.5"/>
  </g>
  <g fill-opacity="1.0" font-size="5.0e-2" stroke="none" stroke-width="0.0" fill="#666666" text-anchor="middle">
    <text x="-0.6136363636363635" y="0.5">10th
    </text>
  </g>
  <g fill-opacity="1.0" font-size="5.0e-2" stroke="none" stroke-width="0.0" fill="#666666" text-anchor="middle">
    <text x="-0.4772727272727273" y="0.5">20th
    </text>
  </g>
  <g fill-opacity="1.0" font-size="5.0e-2" stroke="none" stroke-width="0.0" fill="#666666" text-anchor="middle">
    <text x="-0.34090909090909094" y="0.5">30th
    </text>
  </g>
  <g fill-opacity="1.0" font-size="5.0e-2" stroke="none" stroke-width="0.0" fill="#666666" text-anchor="middle">
    <text x="-0.20454545454545459" y="0.5">40th
    </text>
  </g>
  <g fill-opacity="1.0" font-size="5.0e-2" stroke="none" stroke-width="0.0" fill="#666666" text-anchor="middle">
    <text x="-6.818181818181823e-2" y="0.5">50th
    </text>
  </g>
  <g fill-opacity="1.0" font-size="5.0e-2" stroke="none" stroke-width="0.0" fill="#666666" text-anchor="middle">
    <text x="6.818181818181812e-2" y="0.5">60th
    </text>
  </g>
  <g fill-opacity="1.0" font-size="5.0e-2" stroke="none" stroke-width="0.0" fill="#666666" text-anchor="middle">
    <text x="0.20454545454545459" y="0.5">70th
    </text>
  </g>
  <g fill-opacity="1.0" font-size="5.0e-2" stroke="none" stroke-width="0.0" fill="#666666" text-anchor="middle">
    <text x="0.34090909090909083" y="0.5">80th
    </text>
  </g>
  <g fill-opacity="1.0" font-size="5.0e-2" stroke="none" stroke-width="0.0" fill="#666666" text-anchor="middle">
    <text x="0.4772727272727273" y="0.5">90th
    </text>
  </g>
  <g stroke-opacity="0.4" fill-opacity="1.0" stroke="#2c429d" stroke-width="5.0e-3" fill="#5f0391">
    <polyline points="-0.6136363636363635,0.44047274749721915
-0.6136363636363635,0.4104727474972191"/>
    <polyline points="-0.4772727272727273,0.44047274749721915
-0.4772727272727273,0.4104727474972191"/>
    <polyline points="-0.34090909090909094,0.44047274749721915
-0.34090909090909094,0.4104727474972191"/>
    <polyline points="-0.20454545454545459,0.44047274749721915
-0.20454545454545459,0.4104727474972191"/>
    <polyline points="-6.818181818181823e-2,0.44047274749721915
-6.818181818181823e-2,0.4104727474972191"/>
    <polyline points="6.818181818181812e-2,0.44047274749721915
6.818181818181812e-2,0.4104727474972191"/>
    <polyline points="0.20454545454545459,0.44047274749721915
0.20454545454545459,0.4104727474972191"/>
    <polyline points="0.34090909090909083,0.44047274749721915
0.34090909090909083,0.4104727474972191"/>
    <polyline points="0.4772727272727273,0.44047274749721915
0.4772727272727273,0.4104727474972191"/>
  </g>
  <g stroke-opacity="0.0" fill-opacity="0.5" stroke="#666666" stroke-width="0.0" fill="#5f0391">
    <rect height="4.449388209121219e-3" width="1.5" x="-0.75" y="0.4121245828698554"/>
  </g>
  <g stroke-opacity="0.5" fill-opacity="0.5" stroke="#026062" stroke-width="2.0e-2" fill="#9d1102">
    <rect height="0.8268623829773645" width="0.13636363636363646" x="-0.75" y="-0.43253535294399414"/>
    <rect height="0.8226045952174399" width="0.13636363636363624" x="-0.6136363636363635" y="-0.42827756518406956"/>
    <rect height="0.8711433756805806" width="0.13636363636363635" x="-0.4772727272727273" y="-0.4768163456472103"/>
    <rect height="0.8549637821928671" width="0.13636363636363635" x="-0.34090909090909094" y="-0.4606367521594966"/>
    <rect height="0.8898776418242489" width="0.13636363636363646" x="-0.20454545454545459" y="-0.49555061179087856"/>
    <rect height="0.8898776418242489" width="0.13636363636363624" x="-6.818181818181812e-2" y="-0.49555061179087856"/>
    <rect height="0.8549637821928671" width="0.13636363636363646" x="6.818181818181812e-2" y="-0.4606367521594966"/>
    <rect height="0.8549637821928671" width="0.13636363636363624" x="0.20454545454545459" y="-0.4606367521594966"/>
    <rect height="0.8336748433932439" width="0.13636363636363646" x="0.34090909090909083" y="-0.4393478133598736"/>
    <rect height="0.8166436923535454" width="0.13636363636363646" x="0.4772727272727273" y="-0.42231666232017495"/>
    <rect height="0.0" width="0.13636363636363624" x="0.6136363636363638" y="0.3943270300333704"/>
  </g>
</svg>