
<svg xmlns="http://www.w3.org/2000/svg" height="300.0" viewBox="-0.78 -0.7316117908787543 1.56 1.2778617908787542" width="450.0" xmlns:xlink="http://www.w3.org/1999/xlink">
  <g transform="translate(0.0, -0.5499999999999999)" fill-opacity="1.0" font-size="0.12" stroke="none" stroke-width="0.0" fill="#000000" text-anchor="middle">
    <text transform="rotate(0.0, 0.0, -5.061179087875434e-2)" x="0.0" y="-5.061179087875434e-2">digit count
    </text>
  </g>
  <g stroke-opacity="0.0" fill-opacity="3.0e-2" stroke="#000000" stroke-width="0.0" fill="#666666">
    <rect height="0.8898776418242493" width="1.5" x="-0.75" y="-0.4955506117908789"/>
  </g>
  <g stroke-opacity="0.3" stroke="#a8e5ee" stroke-width="5.0e-3" fill="none">
    <polyline points="-0.6136363636363636,0.3987764182424916
-0.6136363636363636,-0.5"/>
  </g>
  <g stroke-opacity="0.3" stroke="#a8e5ee" stroke-width="5.0e-3" fill="none">
    <polyline points="-0.4772727272727273,0.3987764182424916
-0.4772727272727273,-0.5"/>
  </g>
  <g stroke-opacity="0.3" stroke="#a8e5ee" stroke-width="5.0e-3" fill="none">
    <polyline points="-0.34090909090909094,0.3987764182424916
-0.34090909090909094,-0.5"/>
  </g>
  <g stroke-opacity="0.3" stroke="#a8e5ee" stroke-width="5.0e-3" fill="none">
    <polyline points="-0.20454545454545459,0.3987764182424916
-0.20454545454545459,-0.5"/>
  </g>
  <g stroke-opacity="0.3" stroke="#a8e5ee" stroke-width="5.0e-3" fill="none">
    <polyline points="-6.818181818181834e-2,0.3987764182424916
-6.818181818181834e-2,-0.5"/>
  </g>
  <g stroke-opacity="0.3" stroke="#a8e5ee" stroke-width="5.0e-3" fill="none">
    <polyline points="6.818181818181812e-2,0.3987764182424916
6.818181818181812e-2,-0.5"/>
  </g>
  <g stroke-opacity="0.3" stroke="#a8e5ee" stroke-width="5.0e-3" fill="none">
    <polyline points="0.20454545454545459,0.3987764182424916
0.20454545454545459,-0.5"/>
  </g>
  <g stroke-opacity="0.3" stroke="#a8e5ee" stroke-width="5.0e-3" fill="none">
    <polyline points="0.34090909090909083,0.3987764182424916
0.34090909090909083,-0.5"/>
  </g>
  <g stroke-opacity="0.3" stroke="#a8e5ee" stroke-width="5.0e-3" fill="none">
    <polyline points="0.47727272727272707,0.3987764182424916
0.47727272727272707,-0.5"/>
  </g>
  <g fill-opacity="1.0" font-size="5.0e-2" stroke="none" stroke-width="0.0" fill="#666666" text-anchor="middle">
    <text x="-0.6136363636363636" y="0.5">10th
    </text>
  </g>
  <g fill-opacity="1.0" font-size="5.0e-2" stroke="none" stroke-width="0.0" fill="#666666" text-anchor="middle">
    <text x="-0.4772727272727273" y="0.5">20th
    </text>
  </g>
  <g fill-opacity="1.0" font-size="5.0e-2" stroke="none" stroke-width="0.0" fill="#666666" text-anchor="middle">
    <text x="-0.34090909090909094" y="0.5">30th
    </text>
  </g>
  <g fill-opacity="1.0" font-size="5.0e-2" stroke="none" stroke-width="0.0" fill="#666666" text-anchor="middle">
    <text x="-0.20454545454545459" y="0.5">40th
    </text>
  </g>
  <g fill-opacity="1.0" font-size="5.0e-2" stroke="none" stroke-width="0.0" fill="#666666" text-anchor="middle">
    <text x="-6.818181818181834e-2" y="0.5">50th
    </text>
  </g>
  <g fill-opacity="1.0" font-size="5.0e-2" stroke="none" stroke-width="0.0" fill="#666666" text-anchor="middle">
    <text x="6.818181818181812e-2" y="0.5">60th
    </text>
  </g>
  <g fill-opacity="1.0" font-size="5.0e-2" stroke="none" stroke-width="0.0" fill="#666666" text-anchor="middle">
    <text x="0.20454545454545459" y="0.5">70th
    </text>
  </g>
  <g fill-opacity="1.0" font-size="5.0e-2" stroke="none" stroke-width="0.0" fill="#666666" text-anchor="middle">
    <text x="0.34090909090909083" y="0.5">80th
    </text>
  </g>
  <g fill-opacity="1.0" font-size="5.0e-2" stroke="none" stroke-width="0.0" fill="#666666" text-anchor="middle">
    <text x="0.47727272727272707" y="0.5">90th
    </text>
  </g>
  <g stroke-opacity="0.4" fill-opacity="1.0" stroke="#2c429d" stroke-width="5.0e-3" fill="#5f0391">
    <polyline points="-0.6136363636363636,0.44047274749721915
-0.6136363636363636,0.4104727474972191"/>
    <polyline points="-0.4772727272727273,0.44047274749721915
-0.4772727272727273,0.4104727474972191"/>
    <polyline points="-0.34090909090909094,0.44047274749721915
-0.34090909090909094,0.4104727474972191"/>
    <polyline points="-0.20454545454545459,0.44047274749721915
-0.20454545454545459,0.4104727474972191"/>
    <polyline points="-6.818181818181834e-2,0.44047274749721915
-6.818181818181834e-2,0.4104727474972191"/>
    <polyline points="6.818181818181812e-2,0.44047274749721915
6.818181818181812e-2,0.4104727474972191"/>
    <polyline points="0.20454545454545459,0.44047274749721915
0.20454545454545459,0.4104727474972191"/>
    <polyline points="0.34090909090909083,0.44047274749721915
0.34090909090909083,0.4104727474972191"/>
    <polyline points="0.47727272727272707,0.44047274749721915
0.47727272727272707,0.4104727474972191"/>
  </g>
  <g stroke-opacity="0.0" fill-opacity="0.5" stroke="#666666" stroke-width="0.0" fill="#5f0391">
    <rect height="4.449388209121274e-3" width="1.5" x="-0.75" y="0.41212458286985537"/>
  </g>
  <g stroke-opacity="0.5" fill-opacity="0.5" stroke="#026062" stroke-width="2.0e-2" fill="#9d1102">
    <rect height="0.8503657001988483" width="0.13636363636363635" x="-0.75" y="-0.45603867016547783"/>
    <rect height="0.8280328636279695" width="0.13636363636363635" x="-0.6136363636363636" y="-0.43370583359459913"/>
    <rect height="0.8658268947479182" width="0.13636363636363635" x="-0.4772727272727273" y="-0.47149986471454786"/>
    <rect height="0.8684037605060964" width="0.13636363636363635" x="-0.34090909090909094" y="-0.474076730472726"/>
    <rect height="0.8855828655606188" width="0.13636363636363646" x="-0.20454545454545459" y="-0.4912558355272484"/>
    <rect height="0.8898776418242493" width="0.13636363636363624" x="-6.818181818181812e-2" y="-0.4955506117908789"/>
    <rect height="0.8709806262642747" width="0.13636363636363646" x="6.818181818181812e-2" y="-0.4766535962309044"/>
    <rect height="0.8538015212097527" width="0.13636363636363624" x="0.20454545454545459" y="-0.4594744911763824"/>
    <rect height="0.8486477896933962" width="0.13636363636363624" x="0.34090909090909083" y="-0.4543207596600257"/>
    <rect height="0.8280328636279695" width="0.1363636363636367" x="0.47727272727272707" y="-0.43370583359459913"/>
    <rect height="0.0" width="0.13636363636363624" x="0.6136363636363638" y="0.3943270300333704"/>
  </g>
</svg>