
<svg xmlns="http://www.w3.org/2000/svg" height="300.0" viewBox="-0.8325 -0.7250768799102133 1.6525 1.2713268799102133" width="450.0" xmlns:xlink="http://www.w3.org/1999/xlink">
  <g transform="translate(-6.249999999999978e-3, -0.5475)" fill-opacity="1.0" font-size="0.12" stroke="none" stroke-width="0.0" fill="#000000" text-anchor="middle">
    <text transform="rotate(0.0, 0.0, -4.657687991021331e-2)" x="0.0" y="-4.657687991021331e-2">daily return (all series)
    </text>
  </g>
  <g stroke-opacity="0.0" fill-opacity="3.0e-2" stroke="#000000" stroke-width="0.0" fill="#666666">
    <rect height="0.8978675645342313" width="1.5" x="-0.75" y="-0.495510662177329"/>
  </g>
  <g stroke-opacity="0.3" stroke="#a8e5ee" stroke-width="5.0e-3" fill="none">
    <polyline points="-0.75,0.4068462401795735
-0.75,-0.5"/>
  </g>
  <g stroke-opacity="0.3" stroke="#a8e5ee" stroke-width="5.0e-3" fill="none">
    <polyline points="-0.6000000000000001,0.4068462401795735
-0.6000000000000001,-0.5"/>
  </g>
  <g stroke-opacity="0.3" stroke="#a8e5ee" stroke-width="5.0e-3" fill="none">
    <polyline points="-0.44999999999999996,0.4068462401795735
-0.44999999999999996,-0.5"/>
  </g>
  <g stroke-opacity="0.3" stroke="#a8e5ee" stroke-width="5.0e-3" fill="none">
    <polyline points="-0.29999999999999993,0.4068462401795735
-0.29999999999999993,-0.5"/>
  </g>
  <g stroke-opacity="0.3" stroke="#a8e5ee" stroke-width="5.0e-3" fill="none">
    <polyline points="-0.1499999999999999,0.4068462401795735
-0.1499999999999999,-0.5"/>
  </g>
  <g stroke-opacity="0.3" stroke="#a8e5ee" stroke-width="5.0e-3" fill="none">
    <polyline points="0.0,0.4068462401795735
0.0,-0.5"/>
  </g>
  <g stroke-opacity="0.3" stroke="#a8e5ee" stroke-width="5.0e-3" fill="none">
    <polyline points="0.15000000000000013,0.4068462401795735
0.15000000000000013,-0.5"/>
  </g>
  <g stroke-opacity="0.3" stroke="#a8e5ee" stroke-width="5.0e-3" fill="none">
    <polyline points="0.30000000000000004,0.4068462401795735
0.30000000000000004,-0.5"/>
  </g>
  <g stroke-opacity="0.3" stroke="#a8e5ee" stroke-width="5.0e-3" fill="none">
    <polyline points="0.4500000000000002,0.4068462401795735
0.4500000000000002,-0.5"/>
  </g>
  <g stroke-opacity="0.3" stroke="#a8e5ee" stroke-width="5.0e-3" fill="none">
    <polyline points="0.6000000000000001,0.4068462401795735
0.6000000000000001,-0.5"/>
  </g>
  <g stroke-opacity="0.3" stroke="#a8e5ee" stroke-width="5.0e-3" fill="none">
    <polyline points="0.75,0.4068462401795735
0.75,-0.5"/>
  </g>
  <g fill-opacity="1.0" font-size="5.0e-2" stroke="none" stroke-width="0.0" fill="#666666" text-anchor="middle">
    <text x="-0.75" y="0.5">-100%
    </text>
  </g>
  <g fill-opacity="1.0" font-size="5.0e-2" stroke="none" stroke-width="0.0" fill="#666666" text-anchor="middle">
    <text x="-0.6000000000000001" y="0.5">-80%
    </text>
  </g>
  <g fill-opacity="1.0" font-size="5.0e-2" stroke="none" stroke-width="0.0" fill="#666666" text-anchor="middle">
    <text x="-0.44999999999999996" y="0.5">-60%
    </text>
  </g>
  <g fill-opacity="1.0" font-size="5.0e-2" stroke="none" stroke-width="0.0" fill="#666666" text-anchor="middle">
    <text x="-0.29999999999999993" y="0.5">-40%
    </text>
  </g>
  <g fill-opacity="1.0" font-size="5.0e-2" stroke="none" stroke-width="0.0" fill="#666666" text-anchor="middle">
    <text x="-0.1499999999999999" y="0.5">-20%
    </text>
  </g>
  <g fill-opacity="1.0" font-size="5.0e-2" stroke="none" stroke-width="0.0" fill="#666666" text-anchor="middle">
    <text x="0.0" y="0.5">0%
    </text>
  </g>
  <g fill-opacity="1.0" font-size="5.0e-2" stroke="none" stroke-width="0.0" fill="#666666" text-anchor="middle">
    <text x="0.15000000000000013" y="0.5">20%
    </text>
  </g>
  <g fill-opacity="1.0" font-size="5.0e-2" stroke="none" stroke-width="0.0" fill="#666666" text-anchor="middle">
    <text x="0.30000000000000004" y="0.5">40%
    </text>
  </g>
  <g fill-opacity="1.0" font-size="5.0e-2" stroke="none" stroke-width="0.0" fill="#666666" text-anchor="middle">
    <text x="0.4500000000000002" y="0.5">60%
    </text>
  </g>
  <g fill-opacity="1.0" font-size="5.0e-2" stroke="none" stroke-width="0.0" fill="#666666" text-anchor="middle">
    <text x="0.6000000000000001" y="0.5">80%
    </text>
  </g>
  <g fill-opacity="1.0" font-size="5.0e-2" stroke="none" stroke-width="0.0" fill="#666666" text-anchor="middle">
    <text x="0.75" y="0.5">100%
    </text>
  </g>
  <g stroke-opacity="0.4" fill-opacity="1.0" stroke="#2c429d" stroke-width="5.0e-3" fill="#5f0391">
    <polyline points="-0.75,0.43980359147025816
-0.75,0.40980359147025813"/>
    <polyline points="-0.6000000000000001,0.43980359147025816
-0.6000000000000001,0.40980359147025813"/>
    <polyline points="-0.44999999999999996,0.43980359147025816
-0.44999999999999996,0.40980359147025813"/>
    <polyline points="-0.29999999999999993,0.43980359147025816
-0.29999999999999993,0.40980359147025813"/>
    <polyline points="-0.1499999999999999,0.43980359147025816
-0.1499999999999999,0.40980359147025813"/>
    <polyline points="0.0,0.43980359147025816
0.0,0.40980359147025813"/>
    <polyline points="0.15000000000000013,0.43980359147025816
0.15000000000000013,0.40980359147025813"/>
    <polyline points="0.30000000000000004,0.43980359147025816
0.30000000000000004,0.40980359147025813"/>
    <polyline points="0.4500000000000002,0.43980359147025816
0.4500000000000002,0.40980359147025813"/>
    <polyline points="0.6000000000000001,0.43980359147025816
0.6000000000000001,0.40980359147025813"/>
    <polyline points="0.75,0.43980359147025816
0.75,0.40980359147025813"/>
  </g>
  <g stroke-opacity="0.0" fill-opacity="0.5" stroke="#666666" stroke-width="0.0" fill="#5f0391">
    <rect height="4.489337822671191e-3" width="1.5" x="-0.75" y="0.41133557800224463"/>
  </g>
  <g stroke-opacity="0.5" fill-opacity="0.5" stroke="#026062" stroke-width="2.0e-2" fill="#9d1102">
    <rect height="8.978675645342271e-3" width="2.2500000000000853e-3" x="-2.475000000000005e-2" y="-5.555555555555558e-2"/>
    <rect height="3.232323232323253e-3" width="2.2499999999999742e-3" x="-2.2499999999999964e-2" y="-4.980920314253656e-2"/>
    <rect height="4.938271604938205e-3" width="2.2499999999999742e-3" x="-2.024999999999999e-2" y="-5.1515151515151514e-2"/>
    <rect height="8.170594837261458e-3" width="2.2499999999999742e-3" x="-1.8000000000000016e-2" y="-5.474747474747477e-2"/>
    <rect height="1.1762065095398344e-2" width="2.2499999999999742e-3" x="-1.5750000000000042e-2" y="-5.833894500561165e-2"/>
    <rect height="1.8585858585858595e-2" width="2.2500000000000853e-3" x="-1.3500000000000068e-2" y="-6.51627384960719e-2"/>
    <rect height="2.4691358024691246e-2" width="2.2499999999999742e-3" x="-1.1249999999999982e-2" y="-7.126823793490455e-2"/>
    <rect height="3.851851851851851e-2" width="2.2499999999999742e-3" x="-9.000000000000008e-3" y="-8.509539842873182e-2"/>
    <rect height="6.312008978675643e-2" width="2.2500000000000853e-3" x="-6.750000000000034e-3" y="-0.10969696969696974"/>
    <rect height="9.167227833894509e-2" width="2.2499999999999742e-3" x="-4.4999999999999485e-3" y="-0.1382491582491584"/>
    <rect height="0.14527497194163863" width="2.2499999999999742e-3" x="-2.2499999999999742e-3" y="-0.19185185185185194"/>
    <rect height="0.1553310886644218" width="2.2500000000000853e-3" x="0.0" y="-0.2019079685746351"/>
    <rect height="0.1126823793490459" width="2.2499999999998632e-3" x="2.2500000000000853e-3" y="-0.1592592592592592"/>
    <rect height="7.721661054994389e-2" width="2.2499999999999742e-3" x="4.4999999999999485e-3" y="-0.1237934904601572"/>
    <rect height="4.9741863075196346e-2" width="2.2500000000000853e-3" x="6.749999999999923e-3" y="-9.631874298540966e-2"/>
    <rect height="3.1335578002244624e-2" width="2.2499999999999742e-3" x="9.000000000000008e-3" y="-7.791245791245793e-2"/>
    <rect height="1.9393939393939297e-2" width="2.2500000000000853e-3" x="1.1249999999999982e-2" y="-6.59708193041526e-2"/>
    <rect height="9.786756453423084e-3" width="2.2499999999998632e-3" x="1.3500000000000068e-2" y="-5.6363636363636394e-2"/>
    <rect height="8.799102132435399e-3" width="2.2500000000000853e-3" x="1.574999999999993e-2" y="-5.537598204264871e-2"/>
    <rect height="4.3097643097642635e-3" width="2.2499999999998632e-3" x="1.8000000000000016e-2" y="-5.088664421997757e-2"/>
    <rect height="2.783389450056073e-3" width="2.2500000000000853e-3" x="2.024999999999988e-2" y="-4.936026936026938e-2"/>
    <rect height="7.542087542087517e-3" width="2.2499999999999742e-3" x="2.2499999999999964e-2" y="-5.4118967452300826e-2"/>
  </g>
</svg>