
<svg xmlns="http://www.w3.org/2000/svg" height="300.0" viewBox="-0.86625 -0.7286898967481172 1.72 1.2749398967481174" width="450.0" xmlns:xlink="http://www.w3.org/1999/xlink">
  <g transform="translate(-6.249999999999978e-3, -0.55)" fill-opacity="1.0" font-size="0.12" stroke="none" stroke-width="0.0" fill="#000000" text-anchor="middle">
    <text transform="rotate(0.0, 0.0, -4.768989674811719e-2)" x="0.0" y="-4.768989674811719e-2">most recent moving histogram
    </text>
  </g>
  <g stroke-opacity="0.0" fill-opacity="3.0e-2" stroke="#000000" stroke-width="0.0" fill="#666666">
    <rect height="0.8956635707958078" width="1.5" x="-0.75" y="-0.4955216821460211"/>
  </g>
  <g stroke-opacity="0.3" stroke="#a8e5ee" stroke-width="5.0e-3" fill="none">
    <polyline points="-0.75,0.40462020650376584
-0.75,-0.5"/>
  </g>
  <g stroke-opacity="0.3" stroke="#a8e5ee" stroke-width="5.0e-3" fill="none">
    <polyline points="-0.6000000000000001,0.40462020650376584
-0.6000000000000001,-0.5"/>
  </g>
  <g stroke-opacity="0.3" stroke="#a8e5ee" stroke-width="5.0e-3" fill="none">
    <polyline points="-0.44999999999999996,0.40462020650376584
-0.44999999999999996,-0.5"/>
  </g>
  <g stroke-opacity="0.3" stroke="#a8e5ee" stroke-width="5.0e-3" fill="none">
    <polyline points="-0.29999999999999993,0.40462020650376584
-0.29999999999999993,-0.5"/>
  </g>
  <g stroke-opacity="0.3" stroke="#a8e5ee" stroke-width="5.0e-3" fill="none">
    <polyline points="-0.1499999999999999,0.40462020650376584
-0.1499999999999999,-0.5"/>
  </g>
  <g stroke-opacity="0.3" stroke="#a8e5ee" stroke-width="5.0e-3" fill="none">
    <polyline points="0.0,0.40462020650376584
0.0,-0.5"/>
  </g>
  <g stroke-opacity="0.3" stroke="#a8e5ee" stroke-width="5.0e-3" fill="none">
    <polyline points="0.15000000000000013,0.40462020650376584
0.15000000000000013,-0.5"/>
  </g>
  <g stroke-opacity="0.3" stroke="#a8e5ee" stroke-width="5.0e-3" fill="none">
    <polyline points="0.30000000000000004,0.40462020650376584
0.30000000000000004,-0.5"/>
  </g>
  <g stroke-opacity="0.3" stroke="#a8e5ee" stroke-width="5.0e-3" fill="none">
    <polyline points="0.4500000000000002,0.40462020650376584
0.4500000000000002,-0.5"/>
  </g>
  <g stroke-opacity="0.3" stroke="#a8e5ee" stroke-width="5.0e-3" fill="none">
    <polyline points="0.6000000000000001,0.40462020650376584
0.6000000000000001,-0.5"/>
  </g>
  <g stroke-opacity="0.3" stroke="#a8e5ee" stroke-width="5.0e-3" fill="none">
    <polyline points="0.75,0.40462020650376584
0.75,-0.5"/>
  </g>
  <g fill-opacity="1.0" font-size="5.0e-2" stroke="none" stroke-width="0.0" fill="#666666" text-anchor="middle">
    <text x="-0.75" y="0.5">-100%
    </text>
  </g>
  <g fill-opacity="1.0" font-size="5.0e-2" stroke="none" stroke-width="0.0" fill="#666666" text-anchor="middle">
    <text x="-0.6000000000000001" y="0.5">-80%
    </text>
  </g>
  <g fill-opacity="1.0" font-size="5.0e-2" stroke="none" stroke-width="0.0" fill="#666666" text-anchor="middle">
    <text x="-0.44999999999999996" y="0.5">-60%
    </text>
  </g>
  <g fill-opacity="1.0" font-size="5.0e-2" stroke="none" stroke-width="0.0" fill="#666666" text-anchor="middle">
    <text x="-0.29999999999999993" y="0.5">-40%
    </text>
  </g>
  <g fill-opacity="1.0" font-size="5.0e-2" stroke="none" stroke-width="0.0" fill="#666666" text-anchor="middle">
    <text x="-0.1499999999999999" y="0.5">-20%
    </text>
  </g>
  <g fill-opacity="1.0" font-size="5.0e-2" stroke="none" stroke-width="0.0" fill="#666666" text-anchor="middle">
    <text x="0.0" y="0.5">0%
    </text>
  </g>
  <g fill-opacity="1.0" font-size="5.0e-2" stroke="none" stroke-width="0.0" fill="#666666" text-anchor="middle">
    <text x="0.15000000000000013" y="0.5">20%
    </text>
  </g>
  <g fill-opacity="1.0" font-size="5.0e-2" stroke="none" stroke-width="0.0" fill="#666666" text-anchor="middle">
    <text x="0.30000000000000004" y="0.5">40%
    </text>
  </g>
  <g fill-opacity="1.0" font-size="5.0e-2" stroke="none" stroke-width="0.0" fill="#666666" text-anchor="middle">
    <text x="0.4500000000000002" y="0.5">60%
    </text>
  </g>
  <g fill-opacity="1.0" font-size="5.0e-2" stroke="none" stroke-width="0.0" fill="#666666" text-anchor="middle">
    <text x="0.6000000000000001" y="0.5">80%
    </text>
  </g>
  <g fill-opacity="1.0" font-size="5.0e-2" stroke="none" stroke-width="0.0" fill="#666666" text-anchor="middle">
    <text x="0.75" y="0.5">100%
    </text>
  </g>
  <g stroke-opacity="0.4" fill-opacity="1.0" stroke="#2c429d" stroke-width="5.0e-3" fill="#5f0391">
    <polyline points="-0.75,0.4399881759458511
-0.75,0.4099881759458511"/>
    <polyline points="-0.6000000000000001,0.4399881759458511
-0.6000000000000001,0.4099881759458511"/>
    <polyline points="-0.44999999999999996,0.4399881759458511
-0.44999999999999996,0.4099881759458511"/>
    <polyline points="-0.29999999999999993,0.4399881759458511
-0.29999999999999993,0.4099881759458511"/>
    <polyline points="-0.1499999999999999,0.4399881759458511
-0.1499999999999999,0.4099881759458511"/>
    <polyline points="0.0,0.4399881759458511
0.0,0.4099881759458511"/>
    <polyline points="0.15000000000000013,0.4399881759458511
0.15000000000000013,0.4099881759458511"/>
    <polyline points="0.30000000000000004,0.4399881759458511
0.30000000000000004,0.4099881759458511"/>
    <polyline points="0.4500000000000002,0.4399881759458511
0.4500000000000002,0.4099881759458511"/>
    <polyline points="0.6000000000000001,0.4399881759458511
0.6000000000000001,0.4099881759458511"/>
    <polyline points="0.75,0.4399881759458511
0.75,0.4099881759458511"/>
  </g>
  <g stroke-opacity="0.0" fill-opacity="0.5" stroke="#666666" stroke-width="0.0" fill="#5f0391">
    <rect height="4.478317853979064e-3" width="1.5" x="-0.75" y="0.41155322238391395"/>
  </g>
  <g stroke-opacity="0.5" fill-opacity="0.5" stroke="#026062" stroke-width="2.0e-2" fill="#9d1102">
    <rect height="0.271698927966703" width="3.5896006641140676e-3" x="-6.4252285032708745e-3" y="0.12194102300129483"/>
    <rect height="0.6501211621979055" width="1.500167521037321e-3" x="-2.835627839156807e-3" y="-0.25648121122990764"/>
    <rect height="0.8128914709193886" width="1.1997796595961674e-3" x="-1.3354603181194857e-3" y="-0.41925151995139076"/>
    <rect height="0.8891616331140189" width="1.0968654246278353e-3" x="-1.3568065852331834e-4" y="-0.4955216821460211"/>
    <rect height="0.8395899826136344" width="1.1616273091209495e-3" x="9.61184766104517e-4" y="-0.4459500316456365"/>
    <rect height="0.8281665552281403" width="1.1776503725142717e-3" x="2.1228120752254664e-3" y="-0.43452660426014256"/>
    <rect height="0.5351970048569601" width="1.8223021493347646e-3" x="3.300462447739738e-3" y="-0.14155705388896223"/>
    <rect height="0.6401476427361288" width="1.5235401759815526e-3" x="5.122764597074503e-3" y="-0.24650769176813103"/>
  </g>
</svg>