
<svg xmlns="http://www.w3.org/2000/svg" height="300.0" viewBox="-0.86625 -0.731408529855112 1.72 1.277658529855112" width="450.0" xmlns:xlink="http://www.w3.org/1999/xlink">
  <g transform="translate(-6.249999999999978e-3, -0.5498548085967374)" fill-opacity="1.0" font-size="0.12" stroke="none" stroke-width="0.0" fill="#000000" text-anchor="middle">
    <text transform="rotate(0.0, 0.0, -5.055372125837454e-2)" x="0.0" y="-5.055372125837454e-2">most recent moving histogram
    </text>
  </g>
  <g stroke-opacity="0.0" fill-opacity="3.0e-2" stroke="#000000" stroke-width="0.0" fill="#666666">
    <rect height="0.8899926311715356" width="1.5" x="-0.75" y="-0.49555003684414234"/>
  </g>
  <g stroke-opacity="0.3" stroke="#a8e5ee" stroke-width="5.0e-3" fill="none">
    <polyline points="-0.75,0.3988925574832509
-0.75,-0.5"/>
  </g>
  <g stroke-opacity="0.3" stroke="#a8e5ee" stroke-width="5.0e-3" fill="none">
    <polyline points="-0.5357142857142857,0.3988925574832509
-0.5357142857142857,-0.5"/>
  </g>
  <g stroke-opacity="0.3" stroke="#a8e5ee" stroke-width="5.0e-3" fill="none">
    <polyline points="-0.32142857142857145,0.3988925574832509
-0.32142857142857145,-0.5"/>
  </g>
  <g stroke-opacity="0.3" stroke="#a8e5ee" stroke-width="5.0e-3" fill="none">
    <polyline points="-0.1071428571428572,0.3988925574832509
-0.1071428571428572,-0.5"/>
  </g>
  <g stroke-opacity="0.3" stroke="#a8e5ee" stroke-width="5.0e-3" fill="none">
    <polyline points="0.1071428571428571,0.3988925574832509
0.1071428571428571,-0.5"/>
  </g>
  <g stroke-opacity="0.3" stroke="#a8e5ee" stroke-width="5.0e-3" fill="none">
    <polyline points="0.3214285714285712,0.3988925574832509
0.3214285714285712,-0.5"/>
  </g>
  <g stroke-opacity="0.3" stroke="#a8e5ee" stroke-width="5.0e-3" fill="none">
    <polyline points="0.5357142857142856,0.3988925574832509
0.5357142857142856,-0.5"/>
  </g>
  <g stroke-opacity="0.3" stroke="#a8e5ee" stroke-width="5.0e-3" fill="none">
    <polyline points="0.75,0.3988925574832509
0.75,-0.5"/>
  </g>
  <g fill-opacity="1.0" font-size="5.0e-2" stroke="none" stroke-width="0.0" fill="#666666" text-anchor="middle">
    <text x="-0.75" y="0.5">-4%
    </text>
  </g>
  <g fill-opacity="1.0" font-size="5.0e-2" stroke="none" stroke-width="0.0" fill="#666666" text-anchor="middle">
    <text x="-0.5357142857142857" y="0.5">-3%
    </text>
  </g>
  <g fill-opacity="1.0" font-size="5.0e-2" stroke="none" stroke-width="0.0" fill="#666666" text-anchor="middle">
    <text x="-0.32142857142857145" y="0.5">-2%
    </text>
  </g>
  <g fill-opacity="1.0" font-size="5.0e-2" stroke="none" stroke-width="0.0" fill="#666666" text-anchor="middle">
    <text x="-0.1071428571428572" y="0.5">-1%
    </text>
  </g>
  <g fill-opacity="1.0" font-size="5.0e-2" stroke="none" stroke-width="0.0" fill="#666666" text-anchor="middle">
    <text x="0.1071428571428571" y="0.5">0%
    </text>
  </g>
  <g fill-opacity="1.0" font-size="5.0e-2" stroke="none" stroke-width="0.0" fill="#666666" text-anchor="middle">
    <text x="0.3214285714285712" y="0.5">1%
    </text>
  </g>
  <g fill-opacity="1.0" font-size="5.0e-2" stroke="none" stroke-width="0.0" fill="#666666" text-anchor="middle">
    <text x="0.5357142857142856" y="0.5">2%
    </text>
  </g>
  <g fill-opacity="1.0" font-size="5.0e-2" stroke="none" stroke-width="0.0" fill="#666666" text-anchor="middle">
    <text x="0.75" y="0.5">3%
    </text>
  </g>
  <g stroke-opacity="0.4" fill-opacity="1.0" stroke="#2c429d" stroke-width="5.0e-3" fill="#5f0391">
    <polyline points="-0.75,0.4404631171393839
-0.75,0.4104631171393839"/>
    <polyline points="-0.5357142857142857,0.4404631171393839
-0.5357142857142857,0.4104631171393839"/>
    <polyline points="-0.32142857142857145,0.4404631171393839
-0.32142857142857145,0.4104631171393839"/>
    <polyline points="-0.1071428571428572,0.4404631171393839
-0.1071428571428572,0.4104631171393839"/>
    <polyline points="0.1071428571428571,0.4404631171393839
0.1071428571428571,0.4104631171393839"/>
    <polyline points="0.3214285714285712,0.4404631171393839
0.3214285714285712,0.4104631171393839"/>
    <polyline points="0.5357142857142856,0.4404631171393839
0.5357142857142856,0.4104631171393839"/>
    <polyline points="0.75,0.4404631171393839
0.75,0.4104631171393839"/>
  </g>
  <g stroke-opacity="0.0" fill-opacity="0.5" stroke="#666666" stroke-width="0.0" fill="#5f0391">
    <rect height="4.449963155857717e-3" width="1.5" x="-0.75" y="0.41211322767181086"/>
  </g>
  <g stroke-opacity="0.5" fill-opacity="0.5" stroke="#026062" stroke-width="2.0e-2" fill="#9d1102">
    <rect height="6.367910274689392e-2" width="0.43483410268606126" x="-0.5341728264684553" y="0.33063427230148623"/>
    <rect height="0.19355561118871556" width="0.14305886216753305" x="-9.933872378239406e-2" y="0.2007577638596646"/>
    <rect height="0.8897341926135093" width="3.1121480699154658e-2" x="4.3720138385138996e-2" y="-0.4954208175651291"/>
    <rect height="0.5759247873937692" width="4.807892646556122e-2" x="7.484161908429365e-2" y="-0.18161141234538902"/>
    <rect height="0.4834973483029794" width="5.726990147926858e-2" x="0.12292054554985488" y="-8.918397325459926e-2"/>
    <rect height="0.5353312475820874" width="5.172469499560328e-2" x="0.18019044702912346" y="-0.14101787253370723"/>
    <rect height="0.3564770617263267" width="7.767637381407977e-2" x="0.23191514202472674" y="3.783631332205345e-2"/>
    <rect height="0.15656472200007904" width="0.17685877858733212" x="0.3095915158388065" y="0.23774865304830112"/>
  </g>
</svg>