<svg viewBox="-1.0125 -0.6585 2.025 1.2934999999999999" xmlns="http://www.w3.org/2000/svg" xmlns:xlink="http://www.w3.org/1999/xlink" version="1.1" width="600.0" height="400.0"><g stroke-width="0.0" stroke="none" fill="#000000" transform="translate(0.0, -0.5475)" fill-opacity="1.0" font-size="0.12" text-anchor="middle"><text transform="rotate(0.0, 0.0, -0.0)" x="0.0" y="-0.0">digit count</text></g><g stroke-width="0.0" stroke="#000000" fill="#666666" fill-opacity="3.0e-2" stroke-opacity="0.0"><rect width="2.0" height="1.0" x="-1.0" y="-0.5" /></g><g stroke-width="5.0e-3" stroke="#A8E5EE" fill="none" stroke-opacity="0.3"><polyline points="-1.0,0.505 -1.0,-0.505" /></g><g stroke-width="5.0e-3" stroke="#A8E5EE" fill="none" stroke-opacity="0.3"><polyline points="-0.7777777777777778,0.505 -0.7777777777777778,-0.505" /></g><g stroke-width="5.0e-3" stroke="#A8E5EE" fill="none" stroke-opacity="0.3"><polyline points="-0.5555555555555556,0.505 -0.5555555555555556,-0.505" /></g><g stroke-width="5.0e-3" stroke="#A8E5EE" fill="none" stroke-opacity="0.3"><polyline points="-0.33333333333333337,0.505 -0.33333333333333337,-0.505" /></g><g stroke-width="5.0e-3" stroke="#A8E5EE" fill="none" stroke-opacity="0.3"><polyline points="-0.11111111111111116,0.505 -0.11111111111111116,-0.505" /></g><g stroke-width="5.0e-3" stroke="#A8E5EE" fill="none" stroke-opacity="0.3"><polyline points="0.11111111111111116,0.505 0.11111111111111116,-0.505" /></g><g stroke-width="5.0e-3" stroke="#A8E5EE" fill="none" stroke-opacity="0.3"><polyline points="0.33333333333333326,0.505 0.33333333333333326,-0.505" /></g><g stroke-width="5.0e-3" stroke="#A8E5EE" fill="none" stroke-opacity="0.3"><polyline points="0.5555555555555556,0.505 0.5555555555555556,-0.505" /></g><g stroke-width="5.0e-3" stroke="#A8E5EE" fill="none" stroke-opacity="0.3"><polyline points="0.7777777777777777,0.505 0.7777777777777777,-0.505" /></g><g stroke-width="5.0e-3" stroke="#A8E5EE" fill="none" stroke-opacity="0.3"><polyline points="1.0,0.505 1.0,-0.505" /></g><g stroke-width="0.0" stroke="none" fill="#666666" fill-opacity="1.0" font-size="5.0e-2" text-anchor="middle"><text x="-1.0" y="0.60875">0</text></g><g stroke-width="0.0" stroke="none" fill="#666666" fill-opacity="1.0" font-size="5.0e-2" text-anchor="middle"><text x="-0.7777777777777778" y="0.60875">1</text></g><g stroke-width="0.0" stroke="none" fill="#666666" fill-opacity="1.0" font-size="5.0e-2" text-anchor="middle"><text x="-0.5555555555555556" y="0.60875">2</text></g><g stroke-width="0.0" stroke="none" fill="#666666" fill-opacity="1.0" font-size="5.0e-2" text-anchor="middle"><text x="-0.33333333333333337" y="0.60875">3</text></g><g stroke-width="0.0" stroke="none" fill="#666666" fill-opacity="1.0" font-size="5.0e-2" text-anchor="middle"><text x="-0.11111111111111116" y="0.60875">4</text></g><g stroke-width="0.0" stroke="none" fill="#666666" fill-opacity="1.0" font-size="5.0e-2" text-anchor="middle"><text x="0.11111111111111116" y="0.60875">5</text></g><g stroke-width="0.0" stroke="none" fill="#666666" fill-opacity="1.0" font-size="5.0e-2" text-anchor="middle"><text x="0.33333333333333326" y="0.60875">6</text></g><g stroke-width="0.0" stroke="none" fill="#666666" fill-opacity="1.0" font-size="5.0e-2" text-anchor="middle"><text x="0.5555555555555556" y="0.60875">7</text></g><g stroke-width="0.0" stroke="none" fill="#666666" fill-opacity="1.0" font-size="5.0e-2" text-anchor="middle"><text x="0.7777777777777777" y="0.60875">8</text></g><g stroke-width="0.0" stroke="none" fill="#666666" fill-opacity="1.0" font-size="5.0e-2" text-anchor="middle"><text x="1.0" y="0.60875">9</text></g><g stroke-width="0.0" stroke="#2C429D" fill="#5F0391" fill-opacity="1.0" stroke-opacity="0.4"><line stroke-width="5.0e-3" x1="-1.0" y1="0.5425" x2="-1.0" y2="0.5125" /><line stroke-width="5.0e-3" x1="-0.7777777777777778" y1="0.5425" x2="-0.7777777777777778" y2="0.5125" /><line stroke-width="5.0e-3" x1="-0.5555555555555556" y1="0.5425" x2="-0.5555555555555556" y2="0.5125" /><line stroke-width="5.0e-3" x1="-0.33333333333333337" y1="0.5425" x2="-0.33333333333333337" y2="0.5125" /><line stroke-width="5.0e-3" x1="-0.11111111111111116" y1="0.5425" x2="-0.11111111111111116" y2="0.5125" /><line stroke-width="5.0e-3" x1="0.11111111111111116" y1="0.5425" x2="0.11111111111111116" y2="0.5125" /><line stroke-width="5.0e-3" x1="0.33333333333333326" y1="0.5425" x2="0.33333333333333326" y2="0.5125" /><line stroke-width="5.0e-3" x1="0.5555555555555556" y1="0.5425" x2="0.5555555555555556" y2="0.5125" /><line stroke-width="5.0e-3" x1="0.7777777777777777" y1="0.5425" x2="0.7777777777777777" y2="0.5125" /><line stroke-width="5.0e-3" x1="1.0" y1="0.5425" x2="1.0" y2="0.5125" /></g><g stroke-width="0.0" stroke="#666666" fill="#5F0391" fill-opacity="0.5" stroke-opacity="0.0"><rect width="2.0" height="5.0000000000000044e-3" x="-1.0" y="0.5125" /></g><g stroke-width="5.0e-3" stroke="#666666" fill="#FF0000" fill-opacity="0.5" stroke-opacity="0.5"><rect width="0.18181818181818188" x="-1.0" y="0.5" /><rect width="0.18181818181818177" height="0.9310344827586198" x="-0.8181818181818181" y="-0.4310344827586198" /><rect width="0.18181818181818177" height="0.8275862068965509" x="-0.6363636363636364" y="-0.32758620689655094" /><rect width="0.18181818181818188" height="0.8275862068965507" x="-0.4545454545454546" y="-0.3275862068965507" /><rect width="0.18181818181818177" height="0.7758620689655168" x="-0.2727272727272727" y="-0.2758620689655168" /><rect width="0.18181818181818177" x="-9.090909090909094e-2" y="0.5" /><rect width="0.18181818181818188" height="0.7931034482758611" x="9.090909090909083e-2" y="-0.2931034482758611" /><rect width="0.18181818181818188" height="0.8448275862068956" x="0.2727272727272727" y="-0.3448275862068956" /><rect width="0.18181818181818188" height="0.9827586206896541" x="0.4545454545454546" y="-0.48275862068965414" /><rect width="0.18181818181818166" height="1.0" x="0.6363636363636365" y="-0.5" /><rect width="0.18181818181818188" height="0.7241379310344819" x="0.8181818181818181" y="-0.22413793103448187" /></g><g /></svg>