<svg viewBox="-1.2809678118201535 -0.68275 2.2924678118201536 1.5135159178324473" xmlns="http://www.w3.org/2000/svg" xmlns:xlink="http://www.w3.org/1999/xlink" version="1.1" width="600.0" height="400.0"><g stroke-width="0.0" stroke="none" fill="#000000" transform="translate(-0.13473390591007683, -0.57175)" fill-opacity="1.0" font-size="0.12" text-anchor="middle"><text transform="rotate(0.0, 0.0, -0.0)" x="0.0" y="-0.0">digitalised return</text></g><g stroke-width="0.0" stroke="#000000" fill="#666666" fill-opacity="3.0e-2" stroke-opacity="0.0"><rect width="1.9999999999999998" height="1.0" x="-1.0" y="-0.5" /></g><g stroke-width="5.0e-3" stroke="#A8E5EE" fill="none" stroke-opacity="0.3"><polyline points="-1.005,0.5 1.0049999999999997,0.5" /></g><g stroke-width="5.0e-3" stroke="#A8E5EE" fill="none" stroke-opacity="0.3"><polyline points="-1.005,0.3 1.0049999999999997,0.3" /></g><g stroke-width="5.0e-3" stroke="#A8E5EE" fill="none" stroke-opacity="0.3"><polyline points="-1.005,9.999999999999998e-2 1.0049999999999997,9.999999999999998e-2" /></g><g stroke-width="5.0e-3" stroke="#A8E5EE" fill="none" stroke-opacity="0.3"><polyline points="-1.005,-9.999999999999998e-2 1.0049999999999997,-9.999999999999998e-2" /></g><g stroke-width="5.0e-3" stroke="#A8E5EE" fill="none" stroke-opacity="0.3"><polyline points="-1.005,-0.30000000000000004 1.0049999999999997,-0.30000000000000004" /></g><g stroke-width="5.0e-3" stroke="#A8E5EE" fill="none" stroke-opacity="0.3"><polyline points="-1.005,-0.5 1.0049999999999997,-0.5" /></g><g stroke-width="0.0" stroke="none" fill="#666666" fill-opacity="1.0" font-size="5.0e-2" text-anchor="end"><text x="-1.2309678118201535" y="0.5145">0</text></g><g stroke-width="0.0" stroke="none" fill="#666666" fill-opacity="1.0" font-size="5.0e-2" text-anchor="end"><text x="-1.2309678118201535" y="0.3145">2</text></g><g stroke-width="0.0" stroke="none" fill="#666666" fill-opacity="1.0" font-size="5.0e-2" text-anchor="end"><text x="-1.2309678118201535" y="0.11449999999999998">4</text></g><g stroke-width="0.0" stroke="none" fill="#666666" fill-opacity="1.0" font-size="5.0e-2" text-anchor="end"><text x="-1.2309678118201535" y="-8.549999999999998e-2">6</text></g><g stroke-width="0.0" stroke="none" fill="#666666" fill-opacity="1.0" font-size="5.0e-2" text-anchor="end"><text x="-1.2309678118201535" y="-0.28550000000000003">8</text></g><g stroke-width="0.0" stroke="none" fill="#666666" fill-opacity="1.0" font-size="5.0e-2" text-anchor="end"><text x="-1.2309678118201535" y="-0.4855">10</text></g><g stroke-width="0.0" stroke="#2C429D" fill="#5F0391" fill-opacity="1.0" stroke-opacity="0.4"><line stroke-width="5.0e-3" transform="rotate(-90.0, -1.2008928118201536, 0.5)" x1="-1.2008928118201536" y1="0.515" x2="-1.2008928118201536" y2="0.485" /><line stroke-width="5.0e-3" transform="rotate(-90.0, -1.2008928118201536, 0.3)" x1="-1.2008928118201536" y1="0.315" x2="-1.2008928118201536" y2="0.285" /><line stroke-width="5.0e-3" transform="rotate(-90.0, -1.2008928118201536, 9.999999999999998e-2)" x1="-1.2008928118201536" y1="0.11499999999999998" x2="-1.2008928118201536" y2="8.499999999999998e-2" /><line stroke-width="5.0e-3" transform="rotate(-90.0, -1.2008928118201536, -9.999999999999998e-2)" x1="-1.2008928118201536" y1="-8.499999999999998e-2" x2="-1.2008928118201536" y2="-0.11499999999999998" /><line stroke-width="5.0e-3" transform="rotate(-90.0, -1.2008928118201536, -0.30000000000000004)" x1="-1.2008928118201536" y1="-0.28500000000000003" x2="-1.2008928118201536" y2="-0.31500000000000006" /><line stroke-width="5.0e-3" transform="rotate(-90.0, -1.2008928118201536, -0.5)" x1="-1.2008928118201536" y1="-0.485" x2="-1.2008928118201536" y2="-0.515" /></g><g stroke-width="0.0" stroke="#666666" fill="#5F0391" fill-opacity="0.5" stroke-opacity="0.0"><rect width="4.999999999999893e-3" height="1.0" x="-1.1908928118201536" y="-0.5" /></g><g stroke-width="5.0e-3" stroke="#A8E5EE" fill="none" stroke-opacity="0.3"><polyline points="-1.0,0.505 -1.0,-0.505" /></g><g stroke-width="5.0e-3" stroke="#A8E5EE" fill="none" stroke-opacity="0.3"><polyline points="-0.9118236472945892,0.505 -0.9118236472945892,-0.505" /></g><g stroke-width="5.0e-3" stroke="#A8E5EE" fill="none" stroke-opacity="0.3"><polyline points="-0.6553106212424851,0.505 -0.6553106212424851,-0.505" /></g><g stroke-width="5.0e-3" stroke="#A8E5EE" fill="none" stroke-opacity="0.3"><polyline points="-0.40280561122244496,0.505 -0.40280561122244496,-0.505" /></g><g stroke-width="5.0e-3" stroke="#A8E5EE" fill="none" stroke-opacity="0.3"><polyline points="-0.15030060120240496,0.505 -0.15030060120240496,-0.505" /></g><g stroke-width="5.0e-3" stroke="#A8E5EE" fill="none" stroke-opacity="0.3"><polyline points="9.418837675350678e-2,0.505 9.418837675350678e-2,-0.505" /></g><g stroke-width="5.0e-3" stroke="#A8E5EE" fill="none" stroke-opacity="0.3"><polyline points="0.3466933867735469,0.505 0.3466933867735469,-0.505" /></g><g stroke-width="5.0e-3" stroke="#A8E5EE" fill="none" stroke-opacity="0.3"><polyline points="0.6032064128256511,0.505 0.6032064128256511,-0.505" /></g><g stroke-width="5.0e-3" stroke="#A8E5EE" fill="none" stroke-opacity="0.3"><polyline points="0.8597194388777554,0.505 0.8597194388777554,-0.505" /></g><g stroke-width="5.0e-3" stroke="#A8E5EE" fill="none" stroke-opacity="0.3"><polyline points="0.9999999999999998,0.505 0.9999999999999998,-0.505" /></g><g stroke-width="0.0" stroke="none" fill="#666666" fill-opacity="1.0" font-size="5.0e-2" text-anchor="end"><text transform="rotate(-45.0, -1.0, 0.61775)" x="-1.0" y="0.61775">27 Feb 2018</text></g><g stroke-width="0.0" stroke="none" fill="#666666" fill-opacity="1.0" font-size="5.0e-2" text-anchor="end"><text transform="rotate(-45.0, -0.9118236472945892, 0.61775)" x="-0.9118236472945892" y="0.61775">31 Mar 2018</text></g><g stroke-width="0.0" stroke="none" fill="#666666" fill-opacity="1.0" font-size="5.0e-2" text-anchor="end"><text transform="rotate(-45.0, -0.6553106212424851, 0.61775)" x="-0.6553106212424851" y="0.61775">30 Jun 2018</text></g><g stroke-width="0.0" stroke="none" fill="#666666" fill-opacity="1.0" font-size="5.0e-2" text-anchor="end"><text transform="rotate(-45.0, -0.40280561122244496, 0.61775)" x="-0.40280561122244496" y="0.61775">30 Sep 2018</text></g><g stroke-width="0.0" stroke="none" fill="#666666" fill-opacity="1.0" font-size="5.0e-2" text-anchor="end"><text transform="rotate(-45.0, -0.15030060120240496, 0.61775)" x="-0.15030060120240496" y="0.61775">31 Dec 2018</text></g><g stroke-width="0.0" stroke="none" fill="#666666" fill-opacity="1.0" font-size="5.0e-2" text-anchor="end"><text transform="rotate(-45.0, 9.418837675350678e-2, 0.61775)" x="9.418837675350678e-2" y="0.61775">31 Mar 2019</text></g><g stroke-width="0.0" stroke="none" fill="#666666" fill-opacity="1.0" font-size="5.0e-2" text-anchor="end"><text transform="rotate(-45.0, 0.3466933867735469, 0.61775)" x="0.3466933867735469" y="0.61775">30 Jun 2019</text></g><g stroke-width="0.0" stroke="none" fill="#666666" fill-opacity="1.0" font-size="5.0e-2" text-anchor="end"><text transform="rotate(-45.0, 0.6032064128256511, 0.61775)" x="0.6032064128256511" y="0.61775">30 Sep 2019</text></g><g stroke-width="0.0" stroke="none" fill="#666666" fill-opacity="1.0" font-size="5.0e-2" text-anchor="end"><text transform="rotate(-45.0, 0.8597194388777554, 0.61775)" x="0.8597194388777554" y="0.61775">31 Dec 2019</text></g><g stroke-width="0.0" stroke="none" fill="#666666" fill-opacity="1.0" font-size="5.0e-2" text-anchor="end"><text transform="rotate(-45.0, 0.9999999999999998, 0.61775)" x="0.9999999999999998" y="0.61775">21 Feb 2020</text></g><g stroke-width="0.0" stroke="#2C429D" fill="#5F0391" fill-opacity="1.0" stroke-opacity="0.4"><line stroke-width="5.0e-3" x1="-1.0" y1="0.5515" x2="-1.0" y2="0.5215" /><line stroke-width="5.0e-3" x1="-0.9118236472945892" y1="0.5515" x2="-0.9118236472945892" y2="0.5215" /><line stroke-width="5.0e-3" x1="-0.6553106212424851" y1="0.5515" x2="-0.6553106212424851" y2="0.5215" /><line stroke-width="5.0e-3" x1="-0.40280561122244496" y1="0.5515" x2="-0.40280561122244496" y2="0.5215" /><line stroke-width="5.0e-3" x1="-0.15030060120240496" y1="0.5515" x2="-0.15030060120240496" y2="0.5215" /><line stroke-width="5.0e-3" x1="9.418837675350678e-2" y1="0.5515" x2="9.418837675350678e-2" y2="0.5215" /><line stroke-width="5.0e-3" x1="0.3466933867735469" y1="0.5515" x2="0.3466933867735469" y2="0.5215" /><line stroke-width="5.0e-3" x1="0.6032064128256511" y1="0.5515" x2="0.6032064128256511" y2="0.5215" /><line stroke-width="5.0e-3" x1="0.8597194388777554" y1="0.5515" x2="0.8597194388777554" y2="0.5215" /><line stroke-width="5.0e-3" x1="0.9999999999999998" y1="0.5515" x2="0.9999999999999998" y2="0.5215" /></g><g stroke-width="0.0" stroke="#666666" fill="#5F0391" fill-opacity="0.5" stroke-opacity="0.0"><rect width="1.9999999999999998" height="5.0000000000000044e-3" x="-1.0" y="0.5215" /></g><g stroke-width="3.0e-3" stroke="#2C429D" fill="#D99721" fill-opacity="0.8" stroke-opacity="0.4"><rect width="2.0000000000000018e-2" height="2.0000000000000018e-2" x="-1.01" y="0.49" /><rect width="2.0000000000000018e-2" height="2.0000000000000018e-2" x="-1.0059919839679359" y="0.49" /><rect width="2.0000000000000018e-2" height="2.0000000000000018e-2" x="-1.0019839679358717" y="0.49" /><rect width="2.0000000000000018e-2" height="2.0000000000000018e-2" x="-0.9979759519038076" y="-0.21000000000000008" /><rect width="2.0000000000000018e-2" height="2.0000000000000018e-2" x="-0.9939679358717435" y="-0.41000000000000003" /><rect width="2.0000000000000018e-2" height="1.999999999999999e-2" x="-0.9899599198396793" y="-0.11000000000000008" /><rect width="2.0000000000000018e-2" height="2.0000000000000018e-2" x="-0.9859519038076152" y="0.18999999999999995" /><rect width="2.0000000000000018e-2" height="2.0000000000000018e-2" x="-0.9819438877755511" y="-0.21000000000000008" /><rect width="2.0000000000000018e-2" height="2.0000000000000018e-2" x="-0.977935871743487" y="-0.41000000000000003" /><rect width="2.0000000000000018e-2" height="2.0000000000000018e-2" x="-0.9739278557114228" y="0.29" /><rect width="2.0000000000000018e-2" height="2.0000000000000018e-2" x="-0.9699198396793587" y="0.49" /><rect width="2.0000000000000018e-2" height="2.0000000000000018e-2" x="-0.9659118236472946" y="0.39" /><rect width="2.0000000000000018e-2" height="2.0000000000000018e-2" x="-0.9619038076152304" y="0.18999999999999995" /><rect width="2.0000000000000018e-2" height="1.999999999999999e-2" x="-0.9578957915831663" y="-0.11000000000000008" /><rect width="2.0000000000000018e-2" height="2.0000000000000018e-2" x="-0.9538877755511023" y="0.49" /><rect width="2.0000000000000018e-2" height="2.0e-2" x="-0.9498797595190381" y="-1.0e-2" /><rect width="2.0000000000000018e-2" height="2.0000000000000018e-2" x="-0.945871743486974" y="0.29" /><rect width="2.0000000000000018e-2" height="2.0000000000000018e-2" x="-0.9418637274549099" y="0.49" /><rect width="2.0000000000000018e-2" height="2.0000000000000018e-2" x="-0.9378557114228457" y="0.49" /><rect width="2.0000000000000018e-2" height="2.0000000000000018e-2" x="-0.9338476953907816" y="-0.41000000000000003" /><rect width="2.0000000000000018e-2" height="2.0000000000000018e-2" x="-0.9298396793587175" y="0.49" /><rect width="2.0000000000000018e-2" height="2.0000000000000018e-2" x="-0.9258316633266533" y="0.29" /><rect width="2.0000000000000018e-2" height="2.0000000000000018e-2" x="-0.9218236472945892" y="-0.41000000000000003" /><rect width="2.0000000000000018e-2" height="2.0000000000000018e-2" x="-0.9178156312625251" y="0.49" /><rect width="2.0000000000000018e-2" height="2.0000000000000018e-2" x="-0.913807615230461" y="-0.41000000000000003" /><rect width="2.0000000000000018e-2" height="2.0000000000000018e-2" x="-0.9097995991983968" y="-0.31000000000000005" /><rect width="2.0000000000000018e-2" height="2.0000000000000018e-2" x="-0.9057915831663327" y="-0.31000000000000005" /><rect width="2.0000000000000018e-2" height="2.0000000000000018e-2" x="-0.9017835671342685" y="0.49" /><rect width="2.0000000000000018e-2" height="2.0000000000000018e-2" x="-0.8977755511022044" y="-0.21000000000000008" /><rect width="2.0000000000000018e-2" height="2.0000000000000018e-2" x="-0.8937675350701403" y="-0.41000000000000003" /><rect width="2.0000000000000018e-2" height="2.0000000000000018e-2" x="-0.8897595190380762" y="0.39" /><rect width="2.0000000000000018e-2" height="2.0000000000000018e-2" x="-0.885751503006012" y="-0.31000000000000005" /><rect width="2.0000000000000018e-2" height="2.0000000000000018e-2" x="-0.8817434869739479" y="0.29" /><rect width="2.0000000000000018e-2" height="2.0000000000000018e-2" x="-0.8777354709418838" y="-0.31000000000000005" /><rect width="2.0000000000000018e-2" height="2.0000000000000018e-2" x="-0.8737274549098196" y="-0.31000000000000005" /><rect width="2.0000000000000018e-2" height="1.999999999999999e-2" x="-0.8697194388777555" y="8.999999999999998e-2" /><rect width="2.0000000000000018e-2" height="2.0000000000000018e-2" x="-0.8657114228456915" y="0.39" /><rect width="2.0000000000000018e-2" height="2.0000000000000018e-2" x="-0.8617034068136273" y="0.39" /><rect width="2.0000000000000018e-2" height="1.999999999999999e-2" x="-0.8576953907815632" y="8.999999999999998e-2" /><rect width="2.0000000000000018e-2" height="2.0000000000000018e-2" x="-0.8536873747494991" y="0.49" /><rect width="2.0000000000000018e-2" height="1.999999999999999e-2" x="-0.8496793587174349" y="-0.11000000000000008" /><rect width="2.0000000000000018e-2" height="2.0000000000000018e-2" x="-0.8456713426853708" y="-0.31000000000000005" /><rect width="2.0000000000000018e-2" height="2.0e-2" x="-0.8416633266533067" y="-1.0e-2" /><rect width="2.0000000000000018e-2" height="2.0000000000000018e-2" x="-0.8376553106212425" y="0.39" /><rect width="2.0000000000000018e-2" height="1.999999999999999e-2" x="-0.8336472945891784" y="-0.11000000000000008" /><rect width="2.0000000000000018e-2" height="2.0000000000000018e-2" x="-0.8296392785571143" y="0.39" /><rect width="2.0000000000000018e-2" height="2.0000000000000018e-2" x="-0.8256312625250501" y="0.29" /><rect width="2.0000000000000018e-2" height="2.0000000000000018e-2" x="-0.821623246492986" y="-0.41000000000000003" /><rect width="2.0000000000000018e-2" height="2.0000000000000018e-2" x="-0.8176152304609219" y="-0.21000000000000008" /><rect width="2.0000000000000018e-2" height="1.999999999999999e-2" x="-0.8136072144288578" y="8.999999999999998e-2" /><rect width="2.0000000000000018e-2" height="2.0000000000000018e-2" x="-0.8095991983967936" y="-0.31000000000000005" /><rect width="2.0000000000000018e-2" height="2.0000000000000018e-2" x="-0.8055911823647295" y="-0.31000000000000005" /><rect width="2.0000000000000018e-2" height="2.0e-2" x="-0.8015831663326654" y="-1.0e-2" /><rect width="2.0000000000000018e-2" height="2.0e-2" x="-0.7975751503006012" y="-1.0e-2" /><rect width="2.0000000000000018e-2" height="2.0000000000000018e-2" x="-0.7935671342685371" y="0.39" /><rect width="2.0000000000000018e-2" height="2.0000000000000018e-2" x="-0.789559118236473" y="-0.21000000000000008" /><rect width="2.0000000000000018e-2" height="2.0000000000000018e-2" x="-0.7855511022044088" y="0.18999999999999995" /><rect width="2.0000000000000018e-2" height="2.0000000000000018e-2" x="-0.7815430861723447" y="0.29" /><rect width="2.0000000000000018e-2" height="2.0000000000000018e-2" x="-0.7775350701402806" y="-0.31000000000000005" /><rect width="2.0000000000000018e-2" height="2.0000000000000018e-2" x="-0.7735270541082164" y="0.29" /><rect width="2.0000000000000018e-2" height="1.999999999999999e-2" x="-0.7695190380761523" y="-0.11000000000000008" /><rect width="2.0000000000000018e-2" height="2.0000000000000018e-2" x="-0.7655110220440882" y="0.29" /><rect width="2.0000000000000018e-2" height="2.0000000000000018e-2" x="-0.761503006012024" y="0.29" /><rect width="2.0000000000000018e-2" height="2.0000000000000018e-2" x="-0.7574949899799599" y="0.49" /><rect width="2.0000000000000018e-2" height="2.0000000000000018e-2" x="-0.7534869739478958" y="-0.41000000000000003" /><rect width="2.0000000000000018e-2" height="2.0000000000000018e-2" x="-0.7494789579158316" y="0.39" /><rect width="2.0000000000000018e-2" height="2.0000000000000018e-2" x="-0.7454709418837675" y="-0.31000000000000005" /><rect width="2.0000000000000018e-2" height="2.0000000000000018e-2" x="-0.7414629258517034" y="-0.21000000000000008" /><rect width="2.0000000000000018e-2" height="1.999999999999999e-2" x="-0.7374549098196392" y="8.999999999999998e-2" /><rect width="2.0000000000000018e-2" height="2.0000000000000018e-2" x="-0.7334468937875751" y="-0.31000000000000005" /><rect width="2.0000000000000018e-2" height="2.0000000000000018e-2" x="-0.729438877755511" y="0.18999999999999995" /><rect width="2.0000000000000018e-2" height="1.999999999999999e-2" x="-0.725430861723447" y="-0.11000000000000008" /><rect width="2.0000000000000018e-2" height="2.0e-2" x="-0.7214228456913828" y="-1.0e-2" /><rect width="2.0000000000000018e-2" height="2.0e-2" x="-0.7174148296593187" y="-1.0e-2" /><rect width="2.0000000000000018e-2" height="2.0000000000000018e-2" x="-0.7134068136272546" y="0.39" /><rect width="2.0000000000000018e-2" height="1.999999999999999e-2" x="-0.7093987975951904" y="-0.11000000000000008" /><rect width="2.0000000000000018e-2" height="2.0000000000000018e-2" x="-0.7053907815631263" y="0.18999999999999995" /><rect width="2.0000000000000018e-2" height="2.0000000000000018e-2" x="-0.7013827655310622" y="0.29" /><rect width="2.0000000000000018e-2" height="2.0000000000000018e-2" x="-0.697374749498998" y="0.39" /><rect width="2.0000000000000018e-2" height="2.0e-2" x="-0.6933667334669339" y="-1.0e-2" /><rect width="2.0000000000000018e-2" height="2.0000000000000018e-2" x="-0.6893587174348698" y="0.39" /><rect width="2.0000000000000018e-2" height="1.999999999999999e-2" x="-0.6853507014028056" y="-0.11000000000000008" /><rect width="2.0000000000000018e-2" height="2.0000000000000018e-2" x="-0.6813426853707415" y="0.49" /><rect width="2.0000000000000018e-2" height="1.999999999999999e-2" x="-0.6773346693386774" y="-0.11000000000000008" /><rect width="2.0000000000000018e-2" height="2.0000000000000018e-2" x="-0.6733266533066133" y="0.49" /><rect width="2.0000000000000018e-2" height="2.0000000000000018e-2" x="-0.6693186372745492" y="-0.21000000000000008" /><rect width="2.0000000000000018e-2" height="1.999999999999999e-2" x="-0.6653106212424851" y="8.999999999999998e-2" /><rect width="2.0000000000000018e-2" height="2.0000000000000018e-2" x="-0.661302605210421" y="-0.21000000000000008" /><rect width="2.0000000000000018e-2" height="2.0000000000000018e-2" x="-0.6572945891783568" y="0.39" /><rect width="2.0000000000000018e-2" height="2.0000000000000018e-2" x="-0.6532865731462927" y="-0.31000000000000005" /><rect width="2.0000000000000018e-2" height="2.0000000000000018e-2" x="-0.6492785571142285" y="-0.31000000000000005" /><rect width="2.0000000000000018e-2" height="2.0000000000000018e-2" x="-0.6452705410821644" y="-0.31000000000000005" /><rect width="2.0000000000000018e-2" height="2.0000000000000018e-2" x="-0.6412625250501003" y="-0.21000000000000008" /><rect width="2.0000000000000018e-2" height="2.0000000000000018e-2" x="-0.6372545090180362" y="0.39" /><rect width="2.0000000000000018e-2" height="2.0000000000000018e-2" x="-0.633246492985972" y="-0.31000000000000005" /><rect width="2.0000000000000018e-2" height="2.0e-2" x="-0.6292384769539079" y="-1.0e-2" /><rect width="2.0000000000000018e-2" height="2.0000000000000018e-2" x="-0.6252304609218438" y="0.18999999999999995" /><rect width="2.0000000000000018e-2" height="2.0000000000000018e-2" x="-0.6212224448897796" y="-0.21000000000000008" /><rect width="2.0000000000000018e-2" height="1.999999999999999e-2" x="-0.6172144288577155" y="-0.11000000000000008" /><rect width="2.0000000000000018e-2" height="2.0000000000000018e-2" x="-0.6132064128256514" y="0.29" /><rect width="2.0000000000000018e-2" height="2.0000000000000018e-2" x="-0.6091983967935872" y="0.18999999999999995" /><rect width="2.0000000000000018e-2" height="1.999999999999999e-2" x="-0.6051903807615231" y="-0.11000000000000008" /><rect width="2.0000000000000018e-2" height="2.0000000000000018e-2" x="-0.601182364729459" y="-0.21000000000000008" /><rect width="2.0000000000000018e-2" height="2.0000000000000018e-2" x="-0.5971743486973948" y="-0.31000000000000005" /><rect width="2.0000000000000018e-2" height="2.0000000000000018e-2" x="-0.5931663326653307" y="0.29" /><rect width="2.0000000000000018e-2" height="2.0000000000000018e-2" x="-0.5891583166332666" y="0.39" /><rect width="2.0000000000000018e-2" height="2.0000000000000018e-2" x="-0.5851503006012024" y="0.39" /><rect width="2.0000000000000018e-2" height="2.0000000000000018e-2" x="-0.5811422845691383" y="-0.21000000000000008" /><rect width="2.0000000000000018e-2" height="2.0000000000000018e-2" x="-0.5771342685370742" y="0.18999999999999995" /><rect width="2.0000000000000018e-2" height="2.0000000000000018e-2" x="-0.57312625250501" y="-0.21000000000000008" /><rect width="2.0000000000000018e-2" height="2.0000000000000018e-2" x="-0.5691182364729459" y="-0.21000000000000008" /><rect width="2.0000000000000018e-2" height="1.999999999999999e-2" x="-0.5651102204408818" y="-0.11000000000000008" /><rect width="2.0000000000000018e-2" height="1.999999999999999e-2" x="-0.5611022044088176" y="-0.11000000000000008" /><rect width="2.0000000000000018e-2" height="1.999999999999999e-2" x="-0.5570941883767535" y="8.999999999999998e-2" /><rect width="2.0000000000000018e-2" height="2.0000000000000018e-2" x="-0.5530861723446894" y="0.18999999999999995" /><rect width="2.0000000000000018e-2" height="2.0000000000000018e-2" x="-0.5490781563126252" y="0.49" /><rect width="2.0000000000000018e-2" height="2.0000000000000018e-2" x="-0.5450701402805611" y="0.29" /><rect width="2.0000000000000018e-2" height="2.0000000000000018e-2" x="-0.541062124248497" y="-0.31000000000000005" /><rect width="2.0000000000000018e-2" height="2.0000000000000018e-2" x="-0.5370541082164328" y="0.49" /><rect width="2.0000000000000018e-2" height="2.0000000000000018e-2" x="-0.5330460921843687" y="-0.31000000000000005" /><rect width="2.0000000000000018e-2" height="1.999999999999999e-2" x="-0.5290380761523046" y="-0.11000000000000008" /><rect width="2.0000000000000018e-2" height="1.999999999999999e-2" x="-0.5250300601202404" y="-0.11000000000000008" /><rect width="2.0000000000000018e-2" height="2.0e-2" x="-0.5210220440881764" y="-1.0e-2" /><rect width="2.0000000000000018e-2" height="1.999999999999999e-2" x="-0.5170140280561123" y="8.999999999999998e-2" /><rect width="2.0000000000000018e-2" height="2.0000000000000018e-2" x="-0.5130060120240482" y="0.18999999999999995" /><rect width="2.0000000000000018e-2" height="2.0000000000000018e-2" x="-0.508997995991984" y="-0.21000000000000008" /><rect width="2.0000000000000018e-2" height="2.0000000000000018e-2" x="-0.5049899799599199" y="-0.31000000000000005" /><rect width="2.0000000000000018e-2" height="1.999999999999999e-2" x="-0.5009819639278558" y="8.999999999999998e-2" /><rect width="2.0000000000000018e-2" height="2.0000000000000018e-2" x="-0.49697394789579163" y="-0.21000000000000008" /><rect width="2.0000000000000018e-2" height="2.0000000000000018e-2" x="-0.4929659318637275" y="0.39" /><rect width="2.0000000000000018e-2" height="1.999999999999999e-2" x="-0.48895791583166337" y="8.999999999999998e-2" /><rect width="2.0000000000000018e-2" height="2.0000000000000018e-2" x="-0.48494989979959924" y="0.29" /><rect width="2.0000000000000018e-2" height="2.0000000000000018e-2" x="-0.4809418837675351" y="0.29" /><rect width="2.0000000000000018e-2" height="2.0000000000000018e-2" x="-0.476933867735471" y="0.29" /><rect width="2.0000000000000018e-2" height="2.0000000000000018e-2" x="-0.47292585170340684" y="0.29" /><rect width="2.0000000000000018e-2" height="2.0e-2" x="-0.4689178356713427" y="-1.0e-2" /><rect width="2.0000000000000018e-2" height="2.0000000000000018e-2" x="-0.4649098196392786" y="-0.21000000000000008" /><rect width="2.0000000000000018e-2" height="1.999999999999999e-2" x="-0.46090180360721444" y="8.999999999999998e-2" /><rect width="2.0000000000000018e-2" height="2.0000000000000018e-2" x="-0.4568937875751503" y="-0.21000000000000008" /><rect width="2.0000000000000018e-2" height="1.999999999999999e-2" x="-0.4528857715430862" y="8.999999999999998e-2" /><rect width="2.0000000000000018e-2" height="2.0000000000000018e-2" x="-0.44887775551102205" y="0.39" /><rect width="2.0000000000000018e-2" height="2.0000000000000018e-2" x="-0.444869739478958" y="-0.21000000000000008" /><rect width="2.0000000000000018e-2" height="2.0e-2" x="-0.4408617234468939" y="-1.0e-2" /><rect width="2.0000000000000018e-2" height="2.0000000000000018e-2" x="-0.43685370741482976" y="-0.31000000000000005" /><rect width="2.0000000000000018e-2" height="1.999999999999999e-2" x="-0.43284569138276563" y="8.999999999999998e-2" /><rect width="2.0000000000000018e-2" height="2.0000000000000018e-2" x="-0.4288376753507015" y="0.29" /><rect width="2.0000000000000018e-2" height="2.0000000000000018e-2" x="-0.42482965931863736" y="0.18999999999999995" /><rect width="2.0000000000000018e-2" height="2.0000000000000018e-2" x="-0.42082164328657323" y="0.29" /><rect width="2.0000000000000018e-2" height="1.999999999999999e-2" x="-0.4168136272545091" y="-0.11000000000000008" /><rect width="2.0000000000000018e-2" height="1.999999999999999e-2" x="-0.41280561122244497" y="8.999999999999998e-2" /><rect width="2.0000000000000018e-2" height="2.0000000000000018e-2" x="-0.40879759519038084" y="-0.21000000000000008" /><rect width="2.0000000000000018e-2" height="2.0000000000000018e-2" x="-0.4047895791583167" y="0.18999999999999995" /><rect width="2.0000000000000018e-2" height="2.0e-2" x="-0.40078156312625257" y="-1.0e-2" /><rect width="2.0000000000000018e-2" height="2.0000000000000018e-2" x="-0.39677354709418844" y="0.49" /><rect width="2.0000000000000018e-2" height="2.0000000000000018e-2" x="-0.3927655310621243" y="0.39" /><rect width="2.0000000000000018e-2" height="1.999999999999999e-2" x="-0.3887575150300602" y="8.999999999999998e-2" /><rect width="2.0000000000000018e-2" height="2.0000000000000018e-2" x="-0.38474949899799604" y="0.18999999999999995" /><rect width="2.0000000000000018e-2" height="2.0000000000000018e-2" x="-0.3807414829659319" y="0.49" /><rect width="2.0000000000000018e-2" height="2.0000000000000018e-2" x="-0.3767334669338678" y="0.49" /><rect width="2.0000000000000018e-2" height="2.0000000000000018e-2" x="-0.37272545090180365" y="-0.41000000000000003" /><rect width="2.0000000000000018e-2" height="2.0000000000000018e-2" x="-0.3687174348697395" y="0.39" /><rect width="2.0000000000000018e-2" height="2.0000000000000018e-2" x="-0.3647094188376754" y="-0.41000000000000003" /><rect width="2.0000000000000018e-2" height="1.999999999999999e-2" x="-0.36070140280561125" y="8.999999999999998e-2" /><rect width="2.0000000000000018e-2" height="2.0000000000000018e-2" x="-0.3566933867735471" y="0.49" /><rect width="2.0000000000000018e-2" height="1.999999999999999e-2" x="-0.352685370741483" y="8.999999999999998e-2" /><rect width="2.0000000000000018e-2" height="2.0000000000000018e-2" x="-0.34867735470941885" y="0.39" /><rect width="2.0000000000000018e-2" height="2.0000000000000018e-2" x="-0.3446693386773547" y="0.39" /><rect width="2.0000000000000018e-2" height="2.0000000000000018e-2" x="-0.3406613226452907" y="0.49" /><rect width="2.0000000000000018e-2" height="2.0000000000000018e-2" x="-0.33665330661322657" y="-0.41000000000000003" /><rect width="2.0000000000000018e-2" height="2.0000000000000018e-2" x="-0.33264529058116243" y="0.49" /><rect width="2.0000000000000018e-2" height="2.0000000000000018e-2" x="-0.3286372745490983" y="0.39" /><rect width="2.0000000000000018e-2" height="2.0000000000000018e-2" x="-0.32462925851703417" y="-0.41000000000000003" /><rect width="2.0000000000000018e-2" height="2.0000000000000018e-2" x="-0.32062124248497004" y="-0.41000000000000003" /><rect width="2.0000000000000018e-2" height="2.0000000000000018e-2" x="-0.3166132264529059" y="-0.41000000000000003" /><rect width="2.0000000000000018e-2" height="2.0000000000000018e-2" x="-0.3126052104208418" y="0.39" /><rect width="2.0000000000000018e-2" height="2.0000000000000018e-2" x="-0.30859719438877764" y="-0.21000000000000008" /><rect width="2.0000000000000018e-2" height="2.0000000000000018e-2" x="-0.3045891783567135" y="-0.31000000000000005" /><rect width="2.0000000000000018e-2" height="2.0000000000000018e-2" x="-0.3005811623246494" y="-0.41000000000000003" /><rect width="2.0000000000000018e-2" height="2.0000000000000018e-2" x="-0.29657314629258524" y="0.18999999999999995" /><rect width="2.0000000000000018e-2" height="2.0000000000000018e-2" x="-0.2925651302605211" y="0.49" /><rect width="2.0000000000000018e-2" height="2.0000000000000018e-2" x="-0.288557114228457" y="0.49" /><rect width="2.0000000000000018e-2" height="2.0000000000000018e-2" x="-0.28454909819639285" y="0.18999999999999995" /><rect width="2.0000000000000018e-2" height="2.0000000000000018e-2" x="-0.2805410821643287" y="0.39" /><rect width="2.0000000000000018e-2" height="2.0000000000000018e-2" x="-0.2765330661322646" y="-0.41000000000000003" /><rect width="2.0000000000000018e-2" height="1.999999999999999e-2" x="-0.27252505010020045" y="-0.11000000000000008" /><rect width="2.0000000000000018e-2" height="2.0000000000000018e-2" x="-0.2685170340681363" y="0.49" /><rect width="2.0000000000000018e-2" height="2.0000000000000018e-2" x="-0.2645090180360722" y="0.49" /><rect width="2.0000000000000018e-2" height="1.999999999999999e-2" x="-0.26050100200400805" y="-0.11000000000000008" /><rect width="2.0000000000000018e-2" height="2.0000000000000018e-2" x="-0.2564929859719439" y="0.39" /><rect width="2.0000000000000018e-2" height="2.0000000000000018e-2" x="-0.2524849699398798" y="-0.41000000000000003" /><rect width="2.0000000000000018e-2" height="1.999999999999999e-2" x="-0.24847695390781566" y="-0.11000000000000008" /><rect width="2.0000000000000018e-2" height="2.0000000000000018e-2" x="-0.24446893787575152" y="-0.41000000000000003" /><rect width="2.0000000000000018e-2" height="2.0000000000000018e-2" x="-0.2404609218436875" y="0.18999999999999995" /><rect width="2.0000000000000018e-2" height="2.0000000000000018e-2" x="-0.23645290581162337" y="-0.31000000000000005" /><rect width="2.0000000000000018e-2" height="2.0000000000000018e-2" x="-0.23244488977955924" y="-0.41000000000000003" /><rect width="2.0000000000000018e-2" height="2.0000000000000018e-2" x="-0.2284368737474951" y="0.49" /><rect width="2.0000000000000018e-2" height="2.0000000000000018e-2" x="-0.22442885771543097" y="0.18999999999999995" /><rect width="2.0000000000000018e-2" height="2.0000000000000018e-2" x="-0.22042084168336684" y="0.49" /><rect width="2.0000000000000018e-2" height="2.0e-2" x="-0.2164128256513027" y="-1.0e-2" /><rect width="2.0000000000000018e-2" height="1.999999999999999e-2" x="-0.21240480961923858" y="8.999999999999998e-2" /><rect width="2.0000000000000018e-2" height="2.0000000000000018e-2" x="-0.20839679358717444" y="-0.21000000000000008" /><rect width="2.0000000000000018e-2" height="1.999999999999999e-2" x="-0.2043887775551103" y="8.999999999999998e-2" /><rect width="2.0000000000000018e-2" height="2.0000000000000018e-2" x="-0.20038076152304618" y="0.49" /><rect width="2.0000000000000018e-2" height="2.0000000000000018e-2" x="-0.19637274549098205" y="0.49" /><rect width="2.0000000000000018e-2" height="2.0e-2" x="-0.19236472945891792" y="-1.0e-2" /><rect width="2.0000000000000018e-2" height="2.0000000000000018e-2" x="-0.18835671342685378" y="0.39" /><rect width="2.0000000000000018e-2" height="2.0000000000000018e-2" x="-0.18434869739478965" y="0.39" /><rect width="2.0000000000000018e-2" height="2.0000000000000018e-2" x="-0.18034068136272552" y="0.49" /><rect width="2.0000000000000018e-2" height="2.0000000000000018e-2" x="-0.1763326653306614" y="0.49" /><rect width="2.0000000000000018e-2" height="2.0000000000000018e-2" x="-0.17232464929859725" y="-0.41000000000000003" /><rect width="2.0000000000000018e-2" height="2.0000000000000018e-2" x="-0.16831663326653312" y="-0.31000000000000005" /><rect width="2.0000000000000018e-2" height="1.999999999999999e-2" x="-0.164308617234469" y="8.999999999999998e-2" /><rect width="2.0000000000000018e-2" height="2.0000000000000018e-2" x="-0.16030060120240486" y="-0.31000000000000005" /><rect width="2.0000000000000018e-2" height="2.0e-2" x="-0.15629258517034073" y="-1.0e-2" /><rect width="2.0000000000000018e-2" height="2.0000000000000018e-2" x="-0.1522845691382766" y="0.49" /><rect width="2.0000000000000018e-2" height="2.0000000000000018e-2" x="-0.14827655310621246" y="-0.41000000000000003" /><rect width="2.0000000000000004e-2" height="2.0000000000000018e-2" x="-0.14426853707414833" y="-0.21000000000000008" /><rect width="2.0000000000000004e-2" height="2.0000000000000018e-2" x="-0.1402605210420842" y="-0.31000000000000005" /><rect width="2.0000000000000004e-2" height="1.999999999999999e-2" x="-0.13625250501002018" y="-0.11000000000000008" /><rect width="2.0000000000000004e-2" height="2.0000000000000018e-2" x="-0.13224448897795604" y="-0.21000000000000008" /><rect width="2.0000000000000004e-2" height="1.999999999999999e-2" x="-0.1282364729458919" y="8.999999999999998e-2" /><rect width="1.999999999999999e-2" height="2.0000000000000018e-2" x="-0.12422845691382776" y="0.29" /><rect width="1.999999999999999e-2" height="2.0000000000000018e-2" x="-0.12022044088176363" y="-0.31000000000000005" /><rect width="1.999999999999999e-2" height="1.999999999999999e-2" x="-0.1162124248496995" y="-0.11000000000000008" /><rect width="1.999999999999999e-2" height="2.0000000000000018e-2" x="-0.11220440881763537" y="-0.31000000000000005" /><rect width="1.999999999999999e-2" height="2.0000000000000018e-2" x="-0.10819639278557124" y="-0.41000000000000003" /><rect width="1.999999999999999e-2" height="2.0000000000000018e-2" x="-0.1041883767535071" y="0.39" /><rect width="1.999999999999999e-2" height="1.999999999999999e-2" x="-0.10018036072144297" y="-0.11000000000000008" /><rect width="1.999999999999999e-2" height="2.0e-2" x="-9.617234468937884e-2" y="-1.0e-2" /><rect width="1.999999999999999e-2" height="2.0000000000000018e-2" x="-9.21643286573147e-2" y="-0.31000000000000005" /><rect width="1.999999999999999e-2" height="2.0000000000000018e-2" x="-8.815631262525057e-2" y="0.39" /><rect width="1.999999999999999e-2" height="2.0000000000000018e-2" x="-8.414829659318644e-2" y="0.18999999999999995" /><rect width="1.9999999999999997e-2" height="2.0000000000000018e-2" x="-8.014028056112231e-2" y="-0.41000000000000003" /><rect width="1.9999999999999997e-2" height="2.0000000000000018e-2" x="-7.613226452905818e-2" y="-0.31000000000000005" /><rect width="1.9999999999999997e-2" height="2.0e-2" x="-7.212424849699405e-2" y="-1.0e-2" /><rect width="1.9999999999999997e-2" height="2.0000000000000018e-2" x="-6.811623246492991e-2" y="-0.21000000000000008" /><rect width="1.9999999999999997e-2" height="1.999999999999999e-2" x="-6.410821643286578e-2" y="-0.11000000000000008" /><rect width="2.0000000000000004e-2" height="2.0000000000000018e-2" x="-6.0100200400801655e-2" y="0.18999999999999995" /><rect width="2.0000000000000004e-2" height="2.0000000000000018e-2" x="-5.609218436873752e-2" y="0.39" /><rect width="2.0000000000000004e-2" height="2.0e-2" x="-5.208416833667339e-2" y="-1.0e-2" /><rect width="2.0000000000000004e-2" height="2.0e-2" x="-4.807615230460926e-2" y="-1.0e-2" /><rect width="2.0000000000000004e-2" height="2.0000000000000018e-2" x="-4.4068136272545126e-2" y="-0.41000000000000003" /><rect width="2.0000000000000004e-2" height="1.999999999999999e-2" x="-4.0060120240480994e-2" y="-0.11000000000000008" /><rect width="2.0000000000000004e-2" height="2.0000000000000018e-2" x="-3.605210420841686e-2" y="0.29" /><rect width="2.0000000000000004e-2" height="2.0000000000000018e-2" x="-3.204408817635284e-2" y="-0.31000000000000005" /><rect width="2.0000000000000004e-2" height="2.0e-2" x="-2.8036072144288708e-2" y="-1.0e-2" /><rect width="2.0000000000000004e-2" height="2.0e-2" x="-2.4028056112224576e-2" y="-1.0e-2" /><rect width="2.0000000000000004e-2" height="2.0000000000000018e-2" x="-2.0020040080160444e-2" y="0.29" /><rect width="2.0000000000000004e-2" height="2.0000000000000018e-2" x="-1.601202404809631e-2" y="-0.21000000000000008" /><rect width="2.0e-2" height="2.0e-2" x="-1.2004008016032177e-2" y="-1.0e-2" /><rect width="2.0e-2" height="2.0000000000000018e-2" x="-7.995991983968045e-3" y="0.18999999999999995" /><rect width="2.0000000000000004e-2" height="2.0000000000000018e-2" x="-3.987975951903913e-3" y="0.18999999999999995" /><rect width="2.0000000000000004e-2" height="2.0000000000000018e-2" x="2.0040080160219423e-5" y="0.29" /><rect width="2.0000000000000004e-2" height="2.0000000000000018e-2" x="4.028056112224352e-3" y="-0.21000000000000008" /><rect width="2.0000000000000004e-2" height="2.0000000000000018e-2" x="8.036072144288484e-3" y="0.29" /><rect width="2.0000000000000004e-2" height="2.0000000000000018e-2" x="1.2044088176352616e-2" y="0.18999999999999995" /><rect width="2.0000000000000004e-2" height="2.0000000000000018e-2" x="1.6052104208416747e-2" y="0.39" /><rect width="2.0000000000000004e-2" height="2.0000000000000018e-2" x="2.006012024048088e-2" y="0.39" /><rect width="2.0000000000000004e-2" height="2.0000000000000018e-2" x="2.406813627254501e-2" y="0.18999999999999995" /><rect width="2.0000000000000004e-2" height="2.0000000000000018e-2" x="2.8076152304609144e-2" y="-0.41000000000000003" /><rect width="2.0000000000000004e-2" height="1.999999999999999e-2" x="3.2084168336673276e-2" y="-0.11000000000000008" /><rect width="2.0000000000000004e-2" height="2.0000000000000018e-2" x="3.609218436873741e-2" y="-0.21000000000000008" /><rect width="2.0000000000000004e-2" height="2.0000000000000018e-2" x="4.010020040080154e-2" y="0.18999999999999995" /><rect width="1.9999999999999997e-2" height="2.0000000000000018e-2" x="4.410821643286567e-2" y="-0.21000000000000008" /><rect width="1.9999999999999997e-2" height="1.999999999999999e-2" x="4.8116232464929805e-2" y="-0.11000000000000008" /><rect width="1.9999999999999997e-2" height="1.999999999999999e-2" x="5.212424849699394e-2" y="8.999999999999998e-2" /><rect width="1.9999999999999997e-2" height="2.0000000000000018e-2" x="5.613226452905807e-2" y="0.29" /><rect width="1.9999999999999997e-2" height="2.0000000000000018e-2" x="6.01402805611222e-2" y="-0.31000000000000005" /><rect width="1.999999999999999e-2" height="2.0000000000000018e-2" x="6.414829659318634e-2" y="0.49" /><rect width="1.999999999999999e-2" height="1.999999999999999e-2" x="6.815631262525047e-2" y="8.999999999999998e-2" /><rect width="1.999999999999999e-2" height="2.0000000000000018e-2" x="7.21643286573146e-2" y="-0.21000000000000008" /><rect width="1.999999999999999e-2" height="2.0000000000000018e-2" x="7.617234468937874e-2" y="0.29" /><rect width="1.999999999999999e-2" height="1.999999999999999e-2" x="8.018036072144287e-2" y="-0.11000000000000008" /><rect width="1.999999999999999e-2" height="2.0000000000000018e-2" x="8.4188376753507e-2" y="-0.21000000000000008" /><rect width="1.999999999999999e-2" height="2.0000000000000018e-2" x="8.819639278557113e-2" y="-0.41000000000000003" /><rect width="1.999999999999999e-2" height="1.999999999999999e-2" x="9.220440881763527e-2" y="8.999999999999998e-2" /><rect width="1.999999999999999e-2" height="2.0e-2" x="9.62124248496994e-2" y="-1.0e-2" /><rect width="1.999999999999999e-2" height="2.0e-2" x="0.10022044088176353" y="-1.0e-2" /><rect width="1.999999999999999e-2" height="2.0000000000000018e-2" x="0.10422845691382766" y="-0.21000000000000008" /><rect width="2.0000000000000004e-2" height="2.0e-2" x="0.1082364729458918" y="-1.0e-2" /><rect width="2.0000000000000004e-2" height="2.0000000000000018e-2" x="0.11224448897795593" y="0.39" /><rect width="2.0000000000000004e-2" height="1.999999999999999e-2" x="0.11625250501002006" y="-0.11000000000000008" /><rect width="2.0000000000000004e-2" height="1.999999999999999e-2" x="0.12026052104208397" y="8.999999999999998e-2" /><rect width="2.0000000000000004e-2" height="2.0000000000000018e-2" x="0.1242685370741481" y="-0.21000000000000008" /><rect width="2.0000000000000018e-2" height="2.0000000000000018e-2" x="0.12827655310621222" y="0.18999999999999995" /><rect width="2.0000000000000018e-2" height="1.999999999999999e-2" x="0.13228456913827635" y="8.999999999999998e-2" /><rect width="2.0000000000000018e-2" height="2.0000000000000018e-2" x="0.13629258517034049" y="0.29" /><rect width="2.0000000000000018e-2" height="2.0e-2" x="0.14030060120240462" y="-1.0e-2" /><rect width="2.0000000000000018e-2" height="2.0e-2" x="0.14430861723446875" y="-1.0e-2" /><rect width="2.0000000000000018e-2" height="2.0000000000000018e-2" x="0.14831663326653288" y="-0.31000000000000005" /><rect width="2.0000000000000018e-2" height="2.0000000000000018e-2" x="0.15232464929859701" y="0.29" /><rect width="2.0000000000000018e-2" height="2.0000000000000018e-2" x="0.15633266533066115" y="0.18999999999999995" /><rect width="2.0000000000000018e-2" height="2.0000000000000018e-2" x="0.16034068136272528" y="-0.21000000000000008" /><rect width="2.0000000000000018e-2" height="2.0e-2" x="0.1643486973947894" y="-1.0e-2" /><rect width="2.0000000000000018e-2" height="1.999999999999999e-2" x="0.16835671342685354" y="8.999999999999998e-2" /><rect width="2.0000000000000018e-2" height="2.0000000000000018e-2" x="0.17236472945891768" y="0.39" /><rect width="2.0000000000000018e-2" height="2.0000000000000018e-2" x="0.1763727454909818" y="0.29" /><rect width="2.0000000000000018e-2" height="2.0000000000000018e-2" x="0.18038076152304594" y="-0.31000000000000005" /><rect width="2.0000000000000018e-2" height="2.0000000000000018e-2" x="0.18438877755511007" y="0.39" /><rect width="2.0000000000000018e-2" height="2.0000000000000018e-2" x="0.1883967935871742" y="0.49" /><rect width="2.0000000000000018e-2" height="2.0000000000000018e-2" x="0.19240480961923834" y="0.18999999999999995" /><rect width="2.0000000000000018e-2" height="2.0000000000000018e-2" x="0.19641282565130247" y="0.29" /><rect width="2.0000000000000018e-2" height="2.0000000000000018e-2" x="0.2004208416833666" y="-0.21000000000000008" /><rect width="2.0000000000000018e-2" height="2.0000000000000018e-2" x="0.20442885771543073" y="0.49" /><rect width="2.0000000000000018e-2" height="2.0000000000000018e-2" x="0.20843687374749487" y="-0.31000000000000005" /><rect width="2.0000000000000018e-2" height="2.0000000000000018e-2" x="0.212444889779559" y="-0.21000000000000008" /><rect width="2.0000000000000018e-2" height="2.0000000000000018e-2" x="0.21645290581162313" y="-0.31000000000000005" /><rect width="2.0000000000000018e-2" height="2.0000000000000018e-2" x="0.22046092184368726" y="0.39" /><rect width="2.0000000000000018e-2" height="2.0000000000000018e-2" x="0.2244689378757514" y="0.39" /><rect width="2.0000000000000018e-2" height="2.0000000000000018e-2" x="0.22847695390781553" y="-0.31000000000000005" /><rect width="2.0000000000000018e-2" height="2.0000000000000018e-2" x="0.23248496993987966" y="0.29" /><rect width="2.0000000000000018e-2" height="2.0000000000000018e-2" x="0.2364929859719438" y="0.49" /><rect width="2.0000000000000018e-2" height="2.0e-2" x="0.24050100200400792" y="-1.0e-2" /><rect width="2.0000000000000018e-2" height="2.0000000000000018e-2" x="0.24450901803607206" y="0.39" /><rect width="2.0000000000000018e-2" height="2.0000000000000018e-2" x="0.2485170340681362" y="0.39" /><rect width="2.0000000000000018e-2" height="1.999999999999999e-2" x="0.2525250501002003" y="-0.11000000000000008" /><rect width="2.0000000000000018e-2" height="2.0000000000000018e-2" x="0.25653306613226445" y="0.49" /><rect width="2.0000000000000018e-2" height="2.0000000000000018e-2" x="0.2605410821643286" y="0.18999999999999995" /><rect width="2.0000000000000018e-2" height="2.0000000000000018e-2" x="0.2645490981963927" y="-0.41000000000000003" /><rect width="2.0000000000000018e-2" height="2.0000000000000018e-2" x="0.26855711422845685" y="-0.31000000000000005" /><rect width="2.0000000000000018e-2" height="2.0000000000000018e-2" x="0.272565130260521" y="-0.21000000000000008" /><rect width="2.0000000000000018e-2" height="2.0000000000000018e-2" x="0.2765731462925851" y="-0.41000000000000003" /><rect width="2.0000000000000018e-2" height="1.999999999999999e-2" x="0.28058116232464925" y="-0.11000000000000008" /><rect width="2.0000000000000018e-2" height="1.999999999999999e-2" x="0.2845891783567134" y="8.999999999999998e-2" /><rect width="2.0000000000000018e-2" height="2.0000000000000018e-2" x="0.2885971943887775" y="0.18999999999999995" /><rect width="2.0000000000000018e-2" height="1.999999999999999e-2" x="0.29260521042084164" y="-0.11000000000000008" /><rect width="2.0000000000000018e-2" height="2.0000000000000018e-2" x="0.2966132264529058" y="0.18999999999999995" /><rect width="2.0000000000000018e-2" height="2.0e-2" x="0.3006212424849699" y="-1.0e-2" /><rect width="2.0000000000000018e-2" height="2.0000000000000018e-2" x="0.30462925851703404" y="-0.41000000000000003" /><rect width="2.0000000000000018e-2" height="1.999999999999999e-2" x="0.3086372745490982" y="-0.11000000000000008" /><rect width="2.0000000000000018e-2" height="2.0000000000000018e-2" x="0.3126452905811623" y="-0.31000000000000005" /><rect width="2.0000000000000018e-2" height="2.0000000000000018e-2" x="0.31665330661322644" y="0.18999999999999995" /><rect width="2.0000000000000018e-2" height="2.0000000000000018e-2" x="0.32066132264529057" y="0.18999999999999995" /><rect width="2.0000000000000018e-2" height="2.0000000000000018e-2" x="0.3246693386773545" y="0.49" /><rect width="2.0000000000000018e-2" height="2.0000000000000018e-2" x="0.3286773547094186" y="0.18999999999999995" /><rect width="2.0000000000000018e-2" height="1.999999999999999e-2" x="0.33268537074148274" y="-0.11000000000000008" /><rect width="2.0000000000000018e-2" height="2.0000000000000018e-2" x="0.3366933867735469" y="-0.21000000000000008" /><rect width="2.0000000000000018e-2" height="2.0000000000000018e-2" x="0.340701402805611" y="-0.31000000000000005" /><rect width="2.0000000000000018e-2" height="1.999999999999999e-2" x="0.34470941883767514" y="-0.11000000000000008" /><rect width="2.0000000000000018e-2" height="2.0000000000000018e-2" x="0.3487174348697393" y="-0.31000000000000005" /><rect width="2.0000000000000018e-2" height="2.0000000000000018e-2" x="0.3527254509018034" y="0.18999999999999995" /><rect width="2.0000000000000018e-2" height="2.0000000000000018e-2" x="0.35673346693386754" y="0.39" /><rect width="2.0000000000000018e-2" height="2.0e-2" x="0.36074148296593167" y="-1.0e-2" /><rect width="2.0000000000000018e-2" height="2.0000000000000018e-2" x="0.3647494989979958" y="-0.21000000000000008" /><rect width="2.0000000000000018e-2" height="1.999999999999999e-2" x="0.36875751503005993" y="-0.11000000000000008" /><rect width="2.0000000000000018e-2" height="2.0000000000000018e-2" x="0.37276553106212407" y="-0.21000000000000008" /><rect width="2.0000000000000018e-2" height="1.999999999999999e-2" x="0.3767735470941882" y="8.999999999999998e-2" /><rect width="2.0000000000000018e-2" height="2.0000000000000018e-2" x="0.38078156312625233" y="0.29" /><rect width="2.0000000000000018e-2" height="2.0000000000000018e-2" x="0.38478957915831646" y="0.39" /><rect width="2.0000000000000018e-2" height="1.999999999999999e-2" x="0.3887975951903806" y="-0.11000000000000008" /><rect width="2.0000000000000018e-2" height="2.0000000000000018e-2" x="0.39280561122244473" y="0.39" /><rect width="2.0000000000000018e-2" height="1.999999999999999e-2" x="0.39681362725450886" y="-0.11000000000000008" /><rect width="2.0000000000000018e-2" height="2.0000000000000018e-2" x="0.400821643286573" y="-0.31000000000000005" /><rect width="2.0000000000000018e-2" height="2.0000000000000018e-2" x="0.4048296593186371" y="-0.21000000000000008" /><rect width="2.0000000000000018e-2" height="2.0000000000000018e-2" x="0.40883767535070126" y="0.39" /><rect width="2.0000000000000018e-2" height="2.0000000000000018e-2" x="0.4128456913827654" y="-0.31000000000000005" /><rect width="2.0000000000000018e-2" height="2.0000000000000018e-2" x="0.4168537074148295" y="0.18999999999999995" /><rect width="2.0000000000000018e-2" height="2.0000000000000018e-2" x="0.42086172344689365" y="0.29" /><rect width="2.0000000000000018e-2" height="2.0000000000000018e-2" x="0.4248697394789578" y="0.49" /><rect width="2.0000000000000018e-2" height="2.0000000000000018e-2" x="0.4288777555110219" y="0.49" /><rect width="2.0000000000000018e-2" height="2.0000000000000018e-2" x="0.43288577154308605" y="0.39" /><rect width="2.0000000000000018e-2" height="2.0000000000000018e-2" x="0.4368937875751502" y="0.49" /><rect width="2.0000000000000018e-2" height="2.0000000000000018e-2" x="0.4409018036072143" y="-0.41000000000000003" /><rect width="2.0000000000000018e-2" height="1.999999999999999e-2" x="0.44490981963927845" y="8.999999999999998e-2" /><rect width="2.0000000000000018e-2" height="2.0000000000000018e-2" x="0.4489178356713426" y="-0.41000000000000003" /><rect width="2.0000000000000018e-2" height="2.0000000000000018e-2" x="0.4529258517034067" y="0.39" /><rect width="2.0000000000000018e-2" height="2.0000000000000018e-2" x="0.45693386773547084" y="0.49" /><rect width="2.0000000000000018e-2" height="2.0000000000000018e-2" x="0.460941883767535" y="-0.41000000000000003" /><rect width="2.0000000000000018e-2" height="2.0000000000000018e-2" x="0.4649498997995991" y="0.49" /><rect width="2.0000000000000018e-2" height="1.999999999999999e-2" x="0.46895791583166324" y="-0.11000000000000008" /><rect width="2.0000000000000018e-2" height="2.0000000000000018e-2" x="0.4729659318637274" y="-0.41000000000000003" /><rect width="2.0000000000000018e-2" height="2.0000000000000018e-2" x="0.4769739478957915" y="-0.41000000000000003" /><rect width="2.0000000000000018e-2" height="2.0000000000000018e-2" x="0.48098196392785564" y="0.39" /><rect width="2.0000000000000018e-2" height="2.0000000000000018e-2" x="0.48498997995991977" y="-0.31000000000000005" /><rect width="2.0000000000000018e-2" height="1.999999999999999e-2" x="0.4889979959919839" y="8.999999999999998e-2" /><rect width="2.0000000000000018e-2" height="2.0000000000000018e-2" x="0.49300601202404803" y="0.49" /><rect width="2.0000000000000018e-2" height="2.0000000000000018e-2" x="0.49701402805611217" y="-0.41000000000000003" /><rect width="2.0000000000000018e-2" height="2.0000000000000018e-2" x="0.5010220440881763" y="0.29" /><rect width="2.0000000000000018e-2" height="2.0000000000000018e-2" x="0.5050300601202404" y="-0.21000000000000008" /><rect width="2.0000000000000018e-2" height="2.0000000000000018e-2" x="0.5090380761523046" y="-0.41000000000000003" /><rect width="2.0000000000000018e-2" height="1.999999999999999e-2" x="0.5130460921843687" y="8.999999999999998e-2" /><rect width="2.0000000000000018e-2" height="2.0000000000000018e-2" x="0.5170541082164328" y="0.39" /><rect width="2.0000000000000018e-2" height="2.0000000000000018e-2" x="0.521062124248497" y="-0.31000000000000005" /><rect width="2.0000000000000018e-2" height="2.0000000000000018e-2" x="0.5250701402805611" y="-0.41000000000000003" /><rect width="2.0000000000000018e-2" height="2.0e-2" x="0.529078156312625" y="-1.0e-2" /><rect width="2.0000000000000018e-2" height="1.999999999999999e-2" x="0.5330861723446891" y="8.999999999999998e-2" /><rect width="2.0000000000000018e-2" height="1.999999999999999e-2" x="0.5370941883767533" y="8.999999999999998e-2" /><rect width="2.0000000000000018e-2" height="2.0000000000000018e-2" x="0.5411022044088174" y="-0.21000000000000008" /><rect width="2.0000000000000018e-2" height="1.999999999999999e-2" x="0.5451102204408815" y="-0.11000000000000008" /><rect width="2.0000000000000018e-2" height="2.0000000000000018e-2" x="0.5491182364729457" y="0.18999999999999995" /><rect width="2.0000000000000018e-2" height="2.0000000000000018e-2" x="0.5531262525050098" y="0.29" /><rect width="2.0000000000000018e-2" height="2.0e-2" x="0.5571342685370739" y="-1.0e-2" /><rect width="2.0000000000000018e-2" height="1.999999999999999e-2" x="0.5611422845691381" y="8.999999999999998e-2" /><rect width="2.0000000000000018e-2" height="1.999999999999999e-2" x="0.5651503006012022" y="8.999999999999998e-2" /><rect width="2.0000000000000018e-2" height="2.0000000000000018e-2" x="0.5691583166332663" y="0.29" /><rect width="2.0000000000000018e-2" height="1.999999999999999e-2" x="0.5731663326653305" y="8.999999999999998e-2" /><rect width="2.0000000000000018e-2" height="2.0000000000000018e-2" x="0.5771743486973946" y="0.39" /><rect width="2.0000000000000018e-2" height="2.0000000000000018e-2" x="0.5811823647294587" y="-0.21000000000000008" /><rect width="2.0000000000000018e-2" height="2.0000000000000018e-2" x="0.5851903807615229" y="0.18999999999999995" /><rect width="2.0000000000000018e-2" height="2.0000000000000018e-2" x="0.589198396793587" y="0.29" /><rect width="2.0000000000000018e-2" height="2.0000000000000018e-2" x="0.5932064128256511" y="-0.21000000000000008" /><rect width="2.0000000000000018e-2" height="2.0000000000000018e-2" x="0.5972144288577153" y="0.49" /><rect width="2.0000000000000018e-2" height="2.0000000000000018e-2" x="0.6012224448897794" y="0.49" /><rect width="2.0000000000000018e-2" height="2.0000000000000018e-2" x="0.6052304609218435" y="-0.31000000000000005" /><rect width="2.0000000000000018e-2" height="2.0000000000000018e-2" x="0.6092384769539076" y="-0.41000000000000003" /><rect width="2.0000000000000018e-2" height="2.0000000000000018e-2" x="0.6132464929859718" y="0.29" /><rect width="2.0000000000000018e-2" height="2.0000000000000018e-2" x="0.6172545090180359" y="0.49" /><rect width="2.0000000000000018e-2" height="2.0000000000000018e-2" x="0.6212625250501" y="-0.31000000000000005" /><rect width="2.0000000000000018e-2" height="2.0000000000000018e-2" x="0.6252705410821642" y="-0.21000000000000008" /><rect width="2.0000000000000018e-2" height="2.0000000000000018e-2" x="0.6292785571142283" y="-0.41000000000000003" /><rect width="2.0000000000000018e-2" height="2.0000000000000018e-2" x="0.6332865731462924" y="0.18999999999999995" /><rect width="2.0000000000000018e-2" height="2.0000000000000018e-2" x="0.6372945891783566" y="-0.31000000000000005" /><rect width="2.0000000000000018e-2" height="2.0000000000000018e-2" x="0.6413026052104207" y="0.18999999999999995" /><rect width="2.0000000000000018e-2" height="2.0e-2" x="0.6453106212424848" y="-1.0e-2" /><rect width="2.0000000000000018e-2" height="2.0000000000000018e-2" x="0.649318637274549" y="0.29" /><rect width="2.0000000000000018e-2" height="2.0000000000000018e-2" x="0.6533266533066131" y="-0.21000000000000008" /><rect width="2.0000000000000018e-2" height="2.0000000000000018e-2" x="0.6573346693386772" y="0.29" /><rect width="2.0000000000000018e-2" height="1.999999999999999e-2" x="0.6613426853707414" y="-0.11000000000000008" /><rect width="2.0000000000000018e-2" height="2.0e-2" x="0.6653507014028055" y="-1.0e-2" /><rect width="2.0000000000000018e-2" height="1.999999999999999e-2" x="0.6693587174348696" y="-0.11000000000000008" /><rect width="2.0000000000000018e-2" height="2.0000000000000018e-2" x="0.6733667334669338" y="-0.21000000000000008" /><rect width="2.0000000000000018e-2" height="1.999999999999999e-2" x="0.6773747494989979" y="8.999999999999998e-2" /><rect width="2.0000000000000018e-2" height="1.999999999999999e-2" x="0.681382765531062" y="-0.11000000000000008" /><rect width="2.0000000000000018e-2" height="2.0000000000000018e-2" x="0.6853907815631262" y="0.29" /><rect width="2.0000000000000018e-2" height="2.0000000000000018e-2" x="0.6893987975951903" y="-0.31000000000000005" /><rect width="2.0000000000000018e-2" height="1.999999999999999e-2" x="0.6934068136272544" y="-0.11000000000000008" /><rect width="2.0000000000000018e-2" height="2.0000000000000018e-2" x="0.6974148296593186" y="0.18999999999999995" /><rect width="2.0000000000000018e-2" height="2.0e-2" x="0.7014228456913827" y="-1.0e-2" /><rect width="2.0000000000000018e-2" height="2.0e-2" x="0.7054308617234468" y="-1.0e-2" /><rect width="2.0000000000000018e-2" height="2.0e-2" x="0.709438877755511" y="-1.0e-2" /><rect width="2.0000000000000018e-2" height="2.0000000000000018e-2" x="0.7134468937875751" y="0.18999999999999995" /><rect width="2.0000000000000018e-2" height="2.0e-2" x="0.7174549098196392" y="-1.0e-2" /><rect width="2.0000000000000018e-2" height="1.999999999999999e-2" x="0.7214629258517034" y="8.999999999999998e-2" /><rect width="2.0000000000000018e-2" height="1.999999999999999e-2" x="0.7254709418837675" y="8.999999999999998e-2" /><rect width="2.0000000000000018e-2" height="2.0000000000000018e-2" x="0.7294789579158316" y="-0.31000000000000005" /><rect width="2.0000000000000018e-2" height="1.999999999999999e-2" x="0.7334869739478957" y="8.999999999999998e-2" /><rect width="2.0000000000000018e-2" height="2.0000000000000018e-2" x="0.7374949899799597" y="0.18999999999999995" /><rect width="2.0000000000000018e-2" height="2.0000000000000018e-2" x="0.7415030060120238" y="0.29" /><rect width="2.0000000000000018e-2" height="2.0000000000000018e-2" x="0.7455110220440879" y="0.18999999999999995" /><rect width="2.0000000000000018e-2" height="2.0e-2" x="0.749519038076152" y="-1.0e-2" /><rect width="2.0000000000000018e-2" height="2.0000000000000018e-2" x="0.7535270541082162" y="-0.31000000000000005" /><rect width="2.0000000000000018e-2" height="2.0e-2" x="0.7575350701402803" y="-1.0e-2" /><rect width="2.0000000000000018e-2" height="2.0000000000000018e-2" x="0.7615430861723445" y="-0.21000000000000008" /><rect width="2.0000000000000018e-2" height="2.0000000000000018e-2" x="0.7655511022044086" y="0.39" /><rect width="2.0000000000000018e-2" height="2.0000000000000018e-2" x="0.7695591182364727" y="0.49" /><rect width="2.0000000000000018e-2" height="2.0000000000000018e-2" x="0.7735671342685368" y="0.39" /><rect width="2.0000000000000018e-2" height="2.0000000000000018e-2" x="0.777575150300601" y="-0.21000000000000008" /><rect width="2.0000000000000018e-2" height="2.0e-2" x="0.7815831663326651" y="-1.0e-2" /><rect width="2.0000000000000018e-2" height="2.0000000000000018e-2" x="0.7855911823647292" y="-0.31000000000000005" /><rect width="2.0000000000000018e-2" height="2.0000000000000018e-2" x="0.7895991983967934" y="0.29" /><rect width="2.0000000000000018e-2" height="2.0000000000000018e-2" x="0.7936072144288575" y="0.18999999999999995" /><rect width="2.0000000000000018e-2" height="1.999999999999999e-2" x="0.7976152304609216" y="-0.11000000000000008" /><rect width="2.0000000000000018e-2" height="2.0000000000000018e-2" x="0.8016232464929858" y="-0.31000000000000005" /><rect width="2.0000000000000018e-2" height="1.999999999999999e-2" x="0.8056312625250499" y="8.999999999999998e-2" /><rect width="2.0000000000000018e-2" height="2.0000000000000018e-2" x="0.809639278557114" y="-0.31000000000000005" /><rect width="2.0000000000000018e-2" height="1.999999999999999e-2" x="0.8136472945891782" y="8.999999999999998e-2" /><rect width="2.0000000000000018e-2" height="2.0000000000000018e-2" x="0.8176553106212423" y="0.18999999999999995" /><rect width="2.0000000000000018e-2" height="2.0000000000000018e-2" x="0.8216633266533064" y="-0.21000000000000008" /><rect width="2.0000000000000018e-2" height="2.0000000000000018e-2" x="0.8256713426853706" y="-0.21000000000000008" /><rect width="2.0000000000000018e-2" height="1.999999999999999e-2" x="0.8296793587174347" y="8.999999999999998e-2" /><rect width="2.0000000000000018e-2" height="2.0000000000000018e-2" x="0.8336873747494988" y="0.18999999999999995" /><rect width="2.0000000000000018e-2" height="2.0000000000000018e-2" x="0.837695390781563" y="-0.21000000000000008" /><rect width="2.0000000000000018e-2" height="1.999999999999999e-2" x="0.8417034068136271" y="8.999999999999998e-2" /><rect width="2.0000000000000018e-2" height="2.0000000000000018e-2" x="0.8457114228456912" y="0.39" /><rect width="2.0000000000000018e-2" height="1.999999999999999e-2" x="0.8497194388777554" y="-0.11000000000000008" /><rect width="2.0000000000000018e-2" height="2.0000000000000018e-2" x="0.8537274549098195" y="-0.31000000000000005" /><rect width="2.0000000000000018e-2" height="2.0000000000000018e-2" x="0.8577354709418836" y="0.39" /><rect width="2.0000000000000018e-2" height="1.999999999999999e-2" x="0.8617434869739478" y="-0.11000000000000008" /><rect width="2.0000000000000018e-2" height="2.0000000000000018e-2" x="0.8657515030060119" y="0.29" /><rect width="2.0000000000000018e-2" height="2.0000000000000018e-2" x="0.869759519038076" y="-0.21000000000000008" /><rect width="2.0000000000000018e-2" height="2.0000000000000018e-2" x="0.8737675350701402" y="-0.21000000000000008" /><rect width="2.0000000000000018e-2" height="2.0000000000000018e-2" x="0.8777755511022043" y="0.29" /><rect width="2.0000000000000018e-2" height="2.0000000000000018e-2" x="0.8817835671342684" y="-0.31000000000000005" /><rect width="2.0000000000000018e-2" height="2.0000000000000018e-2" x="0.8857915831663326" y="0.18999999999999995" /><rect width="2.0000000000000018e-2" height="2.0e-2" x="0.8897995991983967" y="-1.0e-2" /><rect width="2.0000000000000018e-2" height="2.0000000000000018e-2" x="0.8938076152304608" y="-0.31000000000000005" /><rect width="2.0000000000000018e-2" height="1.999999999999999e-2" x="0.897815631262525" y="-0.11000000000000008" /><rect width="2.0000000000000018e-2" height="2.0000000000000018e-2" x="0.9018236472945891" y="0.29" /><rect width="2.0000000000000018e-2" height="1.999999999999999e-2" x="0.9058316633266532" y="8.999999999999998e-2" /><rect width="2.0000000000000018e-2" height="2.0e-2" x="0.9098396793587173" y="-1.0e-2" /><rect width="2.0000000000000018e-2" height="2.0000000000000018e-2" x="0.9138476953907815" y="0.49" /><rect width="2.0000000000000018e-2" height="2.0000000000000018e-2" x="0.9178557114228456" y="0.49" /><rect width="2.0000000000000018e-2" height="2.0000000000000018e-2" x="0.9218637274549097" y="-0.41000000000000003" /><rect width="2.0000000000000018e-2" height="2.0000000000000018e-2" x="0.9258717434869739" y="0.18999999999999995" /><rect width="2.0000000000000018e-2" height="1.999999999999999e-2" x="0.929879759519038" y="-0.11000000000000008" /><rect width="2.0000000000000018e-2" height="2.0000000000000018e-2" x="0.9338877755511021" y="0.49" /><rect width="2.0000000000000018e-2" height="2.0000000000000018e-2" x="0.9378957915831663" y="-0.31000000000000005" /><rect width="2.0000000000000018e-2" height="2.0000000000000018e-2" x="0.9419038076152302" y="-0.41000000000000003" /><rect width="2.0000000000000018e-2" height="2.0000000000000018e-2" x="0.9459118236472943" y="-0.41000000000000003" /><rect width="2.0000000000000018e-2" height="1.999999999999999e-2" x="0.9499198396793584" y="-0.11000000000000008" /><rect width="2.0000000000000018e-2" height="2.0000000000000018e-2" x="0.9539278557114226" y="0.39" /><rect width="2.0000000000000018e-2" height="2.0000000000000018e-2" x="0.9579358717434867" y="-0.31000000000000005" /><rect width="2.0000000000000018e-2" height="2.0e-2" x="0.9619438877755508" y="-1.0e-2" /><rect width="2.0000000000000018e-2" height="2.0000000000000018e-2" x="0.965951903807615" y="-0.21000000000000008" /><rect width="2.0000000000000018e-2" height="2.0000000000000018e-2" x="0.9699599198396791" y="0.29" /><rect width="2.0000000000000018e-2" height="2.0e-2" x="0.9739679358717432" y="-1.0e-2" /><rect width="2.0000000000000018e-2" height="2.0000000000000018e-2" x="0.9779759519038074" y="0.29" /><rect width="2.0000000000000018e-2" height="2.0000000000000018e-2" x="0.9819839679358715" y="-0.21000000000000008" /><rect width="2.0000000000000018e-2" height="2.0000000000000018e-2" x="0.9859919839679356" y="0.39" /><rect width="2.0000000000000018e-2" height="2.0000000000000018e-2" x="0.9899999999999998" y="0.49" /></g><g stroke-width="2.0e-2" stroke="#5DA5DA" fill="none" stroke-opacity="0.5"><polyline points="-1.0,0.5 -0.9959919839679359,0.5 -0.9919839679358717,0.5 -0.9879759519038076,0.32235301551949436 -0.9839679358717435,0.17496396206287912 -0.9799599198396793,0.1279775191296879 -0.9759519038076152,0.1385792486817441 -0.9719438877755511,9.475322972103384e-2 -0.9679358717434869,3.754491762117951e-2 -0.9639278557114228,6.49932315647197e-2 -0.9599198396793587,0.10655634188303842 -0.9559118236472945,0.1323842102795591 -0.9519038076152304,0.13790481400895427 -0.9478957915831663,0.11977931119431146 -0.9438877755511023,0.14694925676920245 -0.9398797595190381,0.13705649712419526 -0.935871743486974,0.147431310313548 -0.9318637274549099,0.16873632593151516 -0.9278557114228457,0.18779293592781232 -0.9238476953907816,0.15551312646271132 -0.9198396793587175,0.17361808331145662 -0.9158316633266533,0.17998912189018035 -0.9118236472945892,0.15188692896086087 -0.9078156312625251,0.16812946587941258 -0.9038076152304609,0.14255862503067118 -0.8997995991983968,0.12331333544883999 -0.8957915831663327,0.10550141210359493 -0.8917835671342685,0.12158496728405949 -0.8877755511022044,0.10886544700666434 -0.8837675350701403,8.931622776150111e-2 -0.8797595190380761,0.10092204333853694 -0.875751503006012,8.634410234893924e-2 -0.8717434869739479,9.391331979274398e-2 -0.8677354709418837,8.030413990517582e-2 -0.8637274549098196,6.747995565529696e-2 -0.8597194388777555,6.855114999833711e-2 -0.8557114228456915,7.922408106760237e-2 -0.8517034068136273,8.932899718515946e-2 -0.8476953907815632,8.965807392743058e-2 -0.8436873747494991,0.10205405332482426 -0.8396793587174349,9.607113035817089e-2 -0.8356713426853708,8.456882932317383e-2 -0.8316633266533067,8.215875628871516e-2 -0.8276553106212425,9.105219674636061e-2 -0.8236472945891784,8.58008340483925e-2 -0.8196392785571143,9.428865748706555e-2 -0.8156312625250501,9.975280672107523e-2 -0.811623246492986,8.66945382993643e-2 -0.8076152304609219,7.932227685082444e-2 -0.8036072144288577,7.984577155362477e-2 -0.7995991983967936,7.037434752838062e-2 -0.7955911823647295,6.1274990872056456e-2 -0.7915831663326653,5.979120277200384e-2 -0.7875751503006012,5.836363810700429e-2 -0.7835671342685371,6.640885613015274e-2 -0.779559118236473,6.021904199350858e-2 -0.7755511022044088,6.34243302690442e-2 -0.7715430861723447,6.877994572838997e-2 -0.7675350701402806,6.053567289471545e-2 -0.7635270541082164,6.582368966876118e-2 -0.7595190380761523,6.220557293344908e-2 -0.7555110220440882,6.733341708803164e-2 -0.751503006012024,7.229332610886458e-2 -0.7474949899799599,8.130899868810554e-2 -0.7434869739478958,7.127460926360119e-2 -0.7394789579158316,7.805436912044567e-2 -0.7354709418837675,7.033919826108953e-2 -0.7314629258517034,6.487905902977564e-2 -0.7274549098196392,6.558124897724704e-2 -0.7234468937875751,5.834432841860093e-2 -0.719438877755511,6.112129313981213e-2 -0.7154308617234469,5.799277676474507e-2 -0.7114228456913828,5.687722759280561e-2 -0.7074148296593187,5.5793149672884956e-2 -0.7034068136272545,6.2294815051296526e-2 -0.6993987975951904,5.925626471447076e-2 -0.6953907815631263,6.186854151074361e-2 -0.6913827655310621,6.62508700030301e-2 -0.687374749498998,7.234166774922418e-2 -0.6833667334669339,7.103226128090795e-2 -0.6793587174348698,7.693883362226694e-2 -0.6753507014028056,7.378699269041167e-2 -0.6713426853707415,8.132033674943767e-2 -0.6673346693386774,7.813989748321348e-2 -0.6633266533066133,8.548413231784924e-2 -0.6593186372745492,8.055064319082833e-2 -0.6553106212424851,8.088432055444605e-2 -0.6513026052104209,7.60996486661436e-2 -0.6472945891783568,8.157852898851381e-2 -0.6432865731462927,7.5168332044032e-2 -0.6392785571142285,6.890838335605531e-2 -0.6352705410821644,6.279376686617844e-2 -0.6312625250501003,5.84664403521542e-2 -0.6272545090180361,6.405421151438806e-2 -0.623246492985972,5.813563094576668e-2 -0.6192384769539079,5.719637316627724e-2 -0.6152304609218437,5.948943723512873e-2 -0.6112224448897796,5.534778291056336e-2 -0.6072144288577155,5.2883002838543636e-2 -0.6032064128256514,5.6780946113091035e-2 -0.5991983967935872,5.9027068584164955e-2 -0.5951903807615231,5.6547120881737245e-2 -0.591182364729459,5.2568654207687415e-2 -0.5871743486973948,4.71310591990341e-2 -0.5831663326653307,5.1009971148308686e-2 -0.5791583166332666,5.633491036726185e-2 -0.5751503006012024,6.155117306348101e-2 -0.5711422845691383,5.760171423101007e-2 -0.5671342685370742,5.974103716836532e-2 -0.56312625250501,5.585831841750116e-2 -0.5591182364729459,5.2052473117095543e-2 -0.5551102204408818,4.98016927605337e-2 -0.5511022044088176,4.759482873722243e-2 -0.5470941883767535,4.83632206864224e-2 -0.5430861723446894,5.057627978439e-2 -0.5390781563126252,5.710538496940215e-2 -0.5350701402805611,6.0618186656786754e-2 -0.531062124248497,5.542600649579943e-2 -0.5270541082164328,6.179895403497371e-2 -0.5230460921843687,5.6634968477780046e-2 -0.5190380761523046,5.440881750236293e-2 -0.5150300601202404,5.2223510640590276e-2 -0.5110220440881764,5.148746182077868e-2 -0.5070140280561123,5.2168419457591486e-2 -0.5030060120240482,5.423514932013851e-2 -0.498997995991984,5.0694956661954005e-2 -0.4949899799599199,4.5830664986817427e-2 -0.49098196392785576,4.65791203903827e-2 -0.4869739478957916,4.3185101970185324e-2 -0.4829659318637275,4.807803281940809e-2 -0.47895791583166336,4.878739458306991e-2 -0.47494989979959923,5.220695712468548e-2 -0.4709418837675351,5.556783157595485e-2 -0.46693386773547096,5.887135050503528e-2 -0.46292585170340683,6.211880707888584e-2 -0.4589178356713427,6.1285098572155916e-2 -0.45490981963927857,5.7790297193033524e-2 -0.45090180360721444,5.835297098504577e-2 -0.4468937875751503,5.492044474591151e-2 -0.44288577154308617,5.551741844075675e-2 -0.43887775551102204,6.006454292231589e-2 -0.434869739478958,5.664267490211505e-2 -0.4308617234468939,5.589972996817111e-2 -0.42685370741482975,5.124612813037632e-2 -0.4228456913827656,5.188165952626206e-2 -0.4188376753507015,5.510621950423972e-2 -0.41482965931863736,5.698364240073239e-2 -0.4108216432865732,6.0123178328935156e-2 -0.4068136272545091,5.8060562816810934e-2 -0.40280561122244496,5.859925054989884e-2 -0.3987975951903808,5.52871143476486e-2 -0.3947895791583167,5.713540532930761e-2 -0.39078156312625256,5.64076821624539e-2 -0.38677354709418843,6.2042215382412336e-2 -0.3827655310621243,6.632340513925195e-2 -0.37875751503006017,6.674887922803402e-2 -0.37474949899799603,6.842796675726726e-2 -0.3707414829659319,7.385206638434888e-2 -0.36673346693386777,7.91942745842788e-2 -0.36272545090180364,7.320227121964762e-2 -0.3587174348697395,7.727844978153253e-2 -0.35470941883767537,7.133999749305936e-2 -0.35070140280561124,7.169572567786514e-2 -0.3466933867735471,7.699905016118896e-2 -0.342685370741483,7.728317437141041e-2 -0.33867735470941884,8.126024687127226e-2 -0.3346693386773547,8.517920047519306e-2 -0.3306613226452907,9.026780599455253e-2 -0.32665330661322656,8.426729540997618e-2 -0.3226452905811624,8.934418377719067e-2 -0.3186372745490983,9.312951036395334e-2 -0.31462925851703416,8.713385058714979e-2 -0.31062124248497003,8.122384445106512e-2 -0.3066132264529059,7.539796165880658e-2 -0.30260521042084176,7.931945982813077e-2 -0.29859719438877763,7.595202526513256e-2 -0.2945891783567135,7.142890150477654e-2 -0.29058116232464937,6.576858082028325e-2 -0.28657314629258523,6.737703382050114e-2 -0.2825651302605211,7.255076127193927e-2 -0.27855711422845697,7.765262182376015e-2 -0.27454909819639284,7.911008938628938e-2 -0.2705410821643287,8.292540511000679e-2 -0.2665330661322646,7.719435086324022e-2 -0.26252505010020044,7.50954394628855e-2 -0.2585170340681363,8.011927002266783e-2 -0.2545090180360722,8.507466582719797e-2 -0.25050100200400804,8.289435946285911e-2 -0.2464929859719439,8.662344084836843e-2 -0.24248496993987978,8.091092597177663e-2 -0.23847695390781565,7.879088382195709e-2 -0.23446893787575152,7.318970049326379e-2 -0.2304609218436875,7.467068793508042e-2 -0.22645290581162336,7.030233118020773e-2 -0.22244488977955923,6.482806976248534e-2 -0.2184368737474951,6.988512467512908e-2 -0.21442885771543096,7.139471951070697e-2 -0.21042084168336683,7.635945115613862e-2 -0.2064128256513027,7.547634295853783e-2 -0.20240480961923857,7.575951941906078e-2 -0.19839679358717444,7.25802226949045e-2 -0.1943887775551103,7.28958690949878e-2 -0.19038076152304617,7.780511392309913e-2 -0.18637274549098204,8.265069008922432e-2 -0.1823647294589179,8.170349832411805e-2 -0.17835671342685377,8.534591486509169e-2 -0.17434869739478964,8.89414594592372e-2 -0.1703406813627255,9.363192224899519e-2 -0.16633266533066138,9.826233152236702e-2 -0.16232464929859725,9.259272920515105e-2 -0.1583166332665331,8.813166552538676e-2 -0.15430861723446898,8.82663428161562e-2 -0.15030060120240485,8.386637528777557e-2 -0.14629258517034072,8.291723730083617e-2 -0.14228456913827658,8.763126379777553e-2 -0.13827655310621245,8.212704013878164e-2 -0.13426853707414832,7.894657695598511e-2 -0.1302605210420842,7.468008359878214e-2 -0.12625250501002017,7.271586364149651e-2 -0.12224448897795603,6.965307581604435e-2 -0.1182364729458919,6.999347384488147e-2 -0.11422845691382777,7.257029542829674e-2 -0.11022044088176364,6.84013120428224e-2 -0.1062124248496995,6.651917606323793e-2 -0.10220440881763537,6.2427591006162686e-2 -9.819639278557124e-2,5.7271344468994345e-2 -9.418837675350711e-2,6.1088510350687464e-2 -9.018036072144298e-2,5.929641373340916e-2 -8.617234468937884e-2,5.863748717707962e-2 -8.216432865731471e-2,5.4656585809695235e-2 -7.815631262525058e-2,5.8485709724591106e-2 -7.414829659318645e-2,6.005309708323309e-2 -7.014028056112231e-2,5.4963105928723444e-2 -6.613226452905818e-2,5.1039996020973255e-2 -6.212424849699405e-2,5.0476486597346215e-2 -5.811623246492992e-2,4.771396395840166e-2 -5.4108216432865786e-2,4.6086491131352825e-2 -5.010020040080165e-2,4.7780544788892376e-2 -4.609218436873752e-2,5.16533606946627e-2 -4.208416833667339e-2,5.108597290374772e-2 -3.8076152304609256e-2,5.0525369529716535e-2 -3.4068136272545124e-2,4.558623775859372e-2 -3.0060120240480992e-2,4.3991704292055955e-2 -2.605210420841686e-2,4.6792967291263976e-2 -2.204408817635284e-2,4.300190272492671e-2 -1.8036072144288706e-2,4.253225297753821e-2 -1.4028056112224574e-2,4.206816026828886e-2 -1.0020040080160442e-2,4.4880032697599936e-2 -6.012024048096309e-3,4.221285074275061e-2 -2.004008016032177e-3,4.1753486882426805e-2 2.004008016031955e-3,4.347402134439027e-2 6.012024048096087e-3,4.517436576116668e-2 1.002004008016022e-2,4.794015411560276e-2 1.4028056112224352e-2,4.525139361701541e-2 1.8036072144288484e-2,4.80116569011555e-2 2.2044088176352616e-2,4.965711331162814e-2 2.605210420841675e-2,5.344686485854139e-2 3.006012024048088e-2,5.719256043922555e-2 3.406813627254501e-2,5.873483794320844e-2 3.8076152304609145e-2,5.3784598024046615e-2 4.208416833667328e-2,5.2126409348297154e-2 4.609218436873741e-2,4.940997181949469e-2 5.010020040080154e-2,5.103119026422731e-2 5.4108216432865675e-2,4.8330712771331275e-2 5.811623246492981e-2,4.673624740439697e-2 6.212424849699394e-2,4.730837175346697e-2 6.613226452905807e-2,5.002060903777755e-2 7.01402805611222e-2,4.6266455292522934e-2 7.414829659318634e-2,5.11294561975697e-2 7.815631262525047e-2,5.165286260233076e-2 8.21643286573146e-2,4.895955801538471e-2 8.617234468937873e-2,5.164442218690801e-2 9.018036072144286e-2,5.0023719461365135e-2 9.4188376753507e-2,4.735342195540121e-2 9.819639278557113e-2,4.257885590496968e-2 0.10220440881763526,4.3191294903072386e-2 0.1062124248496994,4.2730934258383924e-2 0.11022044088176353,4.227578021857459e-2 0.11422845691382766,3.969682911641792e-2 0.11823647294589179,3.9274540836055805e-2 0.12224448897795592,4.310943238303905e-2 0.12625250501002006,4.158898787531856e-2 0.13026052104208397,4.220917961845616e-2 0.1342685370741481,3.963905810030438e-2 0.13827655310621223,4.133963514758576e-2 0.14228456913827636,4.196133382449502e-2 0.1462925851703405,4.469446340007943e-2 0.15030060120240463,4.4221342469315306e-2 0.15430861723446876,4.3753503841546415e-2 0.1583166332665329,4.011887810360387e-2 0.16232464929859702,4.2865117329357605e-2 0.16633266533066116,4.452466578542136e-2 0.1703406813627253,4.194361645324135e-2 0.17434869739478942,4.150113163369773e-2 0.17835671342685355,4.2117927396377375e-2 0.18236472945891768,4.588928564983108e-2 0.18637274549098182,4.8565662339886795e-2 0.19038076152304595,4.4896408653585684e-2 0.19438877755511008,4.863251740919389e-2 0.1983967935871742,5.337896212776039e-2 0.20240480961923835,5.491999016530541e-2 0.20641282565130248,5.7494535746227426e-2 0.2104208416833666,5.4790941675005866e-2 0.21442885771543074,5.946313208001397e-2 0.21843687374749488,5.569265552736535e-2 0.222444889779559,5.30119584306365e-2 0.22645290581162314,4.931275057828005e-2 0.23046092184368727,5.2985838471608815e-2 0.2344689378757514,5.661873266626766e-2 0.23847695390781554,5.28870383312931e-2 0.24248496993987967,5.54716537279793e-2 0.2464929859719438,6.011895105354759e-2 0.25050100200400793,5.949072625602675e-2 0.25450901803607207,6.304734545153962e-2 0.2585170340681362,6.656525029540566e-2 0.26252505010020033,6.48270156306065e-2 0.26653306613226446,6.936639756723256e-2 0.2705410821643286,7.072847710666519e-2 0.2745490981963927,6.582241821835288e-2 0.27855711422845686,6.201132781791513e-2 0.282565130260521,5.928286800459737e-2 0.2865731462925851,5.450209429354813e-2 0.29058116232464926,5.289450676079355e-2 0.2945891783567134,5.33844389563084e-2 0.2985971943887775,5.49087390785824e-2 0.30260521042084165,5.329885672765622e-2 0.3066132264529058,5.4822843896358886e-2 0.3106212424849699,5.425354448577496e-2 0.31462925851703405,4.953823056710388e-2 0.3186372745490982,4.798656055077605e-2 0.3226452905811623,4.4377067914895374e-2 0.32665330661322645,4.5990666613761944e-2 0.3306613226452906,4.758694602502844e-2 0.3346693386773545,5.2274416952739156e-2 0.3386773547094186,5.3804455603535084e-2 0.34268537074148275,5.221202520713386e-2 0.3466933867735469,4.960164486429103e-2 0.350701402805611,4.59845531891796e-2 0.35470941883767515,4.4474672699006124e-2 0.3587174348697393,4.0913080926364365e-2 0.3627254509018034,4.25573543136375e-2 0.36673346693386755,4.625053161591541e-2 0.3707414829659317,4.5772819493636485e-2 0.3747494989979958,4.323511753094955e-2 0.37875751503005994,4.17566391534534e-2 0.3827655310621241,3.926202121326e-2 0.3867735470941882,3.988855943914815e-2 0.39078156312625234,4.257087410942845e-2 0.3947895791583165,4.6255595494783364e-2 0.3987975951903806,4.474831857568967e-2 0.40280561122244474,4.8408342510295244e-2 0.40681362725450887,4.6879809962966645e-2 0.410821643286573,4.330818915537643e-2 0.41482965931863713,4.080372780999092e-2 0.41883767535070127,4.449998376215314e-2 0.4228456913827654,4.095598679122936e-2 0.42685370741482953,4.259166052302854e-2 0.43086172344689366,4.523820054804584e-2 0.4348697394789578,4.991251149587028e-2 0.4388777555110219,5.453748862789093e-2 0.44288577154308606,5.80863892956876e-2 0.4468937875751502,6.262488359668938e-2 0.4509018036072143,5.787496550135296e-2 0.45490981963927846,5.830736115639468e-2 0.4589178356713426,5.360427434270293e-2 0.4629258517034067,5.715800882886368e-2 0.46693386773547085,6.170002528505791e-2 0.470941883767535,5.696580548779834e-2 0.4749498997995991,6.150747489924946e-2 0.47895791583166325,5.985223181973981e-2 0.4829659318637274,5.5140512050271706e-2 0.4869739478957915,5.0478216990593294e-2 0.49098196392785565,5.4057719821454464e-2 0.4949899799599198,5.043263797547154e-2 0.4989979959919839,5.094002097533179e-2 0.503006012024048,5.55356173191488e-2 0.5070140280561122,5.0874840252247644e-2 0.5110220440881763,5.342315511847351e-2 0.5150300601202404,5.083146946041789e-2 0.5190380761523046,4.6221990821513514e-2 0.5230460921843687,4.677171502905064e-2 0.5270541082164328,5.038164824414704e-2 0.531062124248497,4.6801594179239625e-2 0.5350701402805611,4.223735428583386e-2 0.539078156312625,4.180597733655805e-2 0.5430861723446891,4.2400195662916806e-2 0.5470941883767533,4.298822236935612e-2 0.5511022044088174,4.050811443557456e-2 0.5551102204408815,3.907428661069284e-2 0.5591182364729457,4.0716131773335995e-2 0.5631262525050098,4.336094077696512e-2 0.5671342685370739,4.291872882810832e-2 0.5711422845691381,4.3500750639660135e-2 0.5751503006012022,4.407672483639358e-2 0.5791583166332663,4.668519413591177e-2 0.5831663326653305,4.722849479494112e-2 0.5871743486973946,5.082270277528789e-2 0.5911823647294587,4.8267680457010353e-2 0.5951903807615229,4.9813023616801955e-2 0.599198396793587,5.236062422100324e-2 0.6032064128256511,4.979135945191926e-2 0.6072144288577153,5.437407104809927e-2 0.6112224448897794,5.8909322646459816e-2 0.6152304609218435,5.525725599528952e-2 0.6192384769539077,5.0625617675227885e-2 0.6232464929859718,5.3162230482140305e-2 0.6272545090180359,5.770664111462498e-2 0.6312625250501,5.406932704139328e-2 0.6352705410821642,5.148627654730198e-2 0.6392785571142283,4.689690926541662e-2 0.6432865731462925,4.845294855146276e-2 0.6472945891783566,4.4912079955663264e-2 0.6513026052104207,4.64877795571208e-2 0.6553106212424848,4.601553739628672e-2 0.659318637274549,4.8595208332212314e-2 0.6633266533066131,4.607067086972155e-2 0.6673346693386772,4.864897728030815e-2 0.6713426853707414,4.7139881273876194e-2 0.6753507014028055,4.666138629257116e-2 0.6793587174348696,4.5172918927342987e-2 0.6833667334669338,4.26850280873845e-2 0.6873747494989979,4.326654567750693e-2 0.691382765531062,4.181317578136967e-2 0.6953907815631262,4.4431977925960875e-2 0.6993987975951903,4.093888647294458e-2 0.7034068136272544,3.950974298580251e-2 0.7074148296593186,4.113691251424906e-2 0.7114228456913827,4.071989377402274e-2 0.7154308617234468,4.030715917693051e-2 0.719438877755511,3.9898663567816406e-2 0.7234468937875751,4.152100299048944e-2 0.7274549098196392,4.1100318254346124e-2 0.7314629258517034,4.169700254948561e-2 0.7354709418837675,4.2287565044415276e-2 0.7394789579158316,3.8820915050035654e-2 0.7434869739478958,3.944045071649516e-2 0.7474949899799597,4.106616605018237e-2 0.7515030060120238,4.368762309115215e-2 0.7555110220440879,4.526993990478434e-2 0.7595190380761521,4.4811738230709164e-2 0.7635270541082162,4.13221353004794e-2 0.7675350701402803,4.090399264010958e-2 0.7715430861723445,3.8466552264616705e-2 0.7755511022044086,4.2124077146607763e-2 0.7795591182364727,4.675572929362637e-2 0.7835671342685369,5.03285653513037e-2 0.787575150300601,4.779694420963565e-2 0.7915831663326651,4.731361918818622e-2 0.7955911823647293,4.3801960477521495e-2 0.7995991983967934,4.639206996331041e-2 0.8036072144288575,4.79448440567376e-2 0.8076152304609217,4.644947883542616e-2 0.8116232464929858,4.294808766482383e-2 0.8156312625250499,4.3524621336576086e-2 0.819639278557114,4.0053525871075024e-2 0.8236472945891782,4.065918325117224e-2 0.8276553106212423,4.2268885484911145e-2 0.8316633266533064,3.982167265496067e-2 0.8356713426853706,3.739942487063419e-2 0.8396793587174347,3.803164009090887e-2 0.8436873747494988,3.966722739976647e-2 0.847695390781563,3.7247259763857565e-2 0.8517034068136271,3.788082507418511e-2 0.8557114228456912,4.153650726274838e-2 0.8597194388777554,4.0107797468771134e-2 0.8637274549098195,3.667497620869503e-2 0.8677354709418836,4.034179443048447e-2 0.8717434869739478,3.89255410082599e-2 0.8757515030060119,4.1559922191437115e-2 0.879759519038076,3.9122673799390884e-2 0.8837675350701402,3.671023253189404e-2 0.8877755511022043,3.9366253159425824e-2 0.8917835671342684,3.594308702715404e-2 0.8957915831663326,3.759777497497846e-2 0.8997995991983967,3.721859417482737e-2 0.9038076152304608,3.381796942834486e-2 0.907815631262525,3.246861819953906e-2 0.9118236472945891,3.516604116870181e-2 0.9158316633266532,3.5819684704098353e-2 0.9198396793587174,3.545858705518157e-2 0.9238476953907815,4.0141242136314925e-2 0.9278557114228456,4.477632369043594e-2 0.9318637274549098,4.0293619149776194e-2 0.9358717434869739,4.1903102935262115e-2 0.939879759519038,4.0473147650714636e-2 0.9438877755511021,4.5103435888722454e-2 0.9478957915831663,4.162636679916615e-2 0.9519038076152302,3.717712232759274e-2 0.9559118236472943,3.277303147075422e-2 0.9599198396793585,3.1435584385183235e-2 0.9639278557114226,3.5147929626089425e-2 0.9679358717434867,3.177241468506853e-2 0.9719438877755509,3.145243487889626e-2 0.975951903807615,2.9121644206704878e-2 0.9799599198396791,3.1849273219621554e-2 0.9839679358717432,3.152858699151051e-2 0.9879759519038074,3.42316048952776e-2 0.9919839679358715,3.1873480236917995e-2 0.9959919839679356,3.557934068020563e-2 0.9999999999999998,4.0254263776331234e-2" /></g><g /></svg>