<svg viewBox="-1.0625 -0.6585 2.1125 1.2934999999999999" xmlns="http://www.w3.org/2000/svg" xmlns:xlink="http://www.w3.org/1999/xlink" version="1.1" width="600.0" height="400.0"><g stroke-width="0.0" stroke="none" fill="#000000" transform="translate(-6.249999999999978e-3, -0.5475)" fill-opacity="1.0" font-size="0.12" text-anchor="middle"><text transform="rotate(0.0, 0.0, -0.0)" x="0.0" y="-0.0">forecast error</text></g><g stroke-width="0.0" stroke="#000000" fill="#666666" fill-opacity="3.0e-2" stroke-opacity="0.0"><rect width="2.0" height="1.0" x="-1.0" y="-0.5" /></g><g stroke-width="5.0e-3" stroke="#A8E5EE" fill="none" stroke-opacity="0.3"><polyline points="-1.0,0.505 -1.0,-0.505" /></g><g stroke-width="5.0e-3" stroke="#A8E5EE" fill="none" stroke-opacity="0.3"><polyline points="-0.75,0.505 -0.75,-0.505" /></g><g stroke-width="5.0e-3" stroke="#A8E5EE" fill="none" stroke-opacity="0.3"><polyline points="-0.5,0.505 -0.5,-0.505" /></g><g stroke-width="5.0e-3" stroke="#A8E5EE" fill="none" stroke-opacity="0.3"><polyline points="-0.25,0.505 -0.25,-0.505" /></g><g stroke-width="5.0e-3" stroke="#A8E5EE" fill="none" stroke-opacity="0.3"><polyline points="0.0,0.505 0.0,-0.505" /></g><g stroke-width="5.0e-3" stroke="#A8E5EE" fill="none" stroke-opacity="0.3"><polyline points="0.25,0.505 0.25,-0.505" /></g><g stroke-width="5.0e-3" stroke="#A8E5EE" fill="none" stroke-opacity="0.3"><polyline points="0.5,0.505 0.5,-0.505" /></g><g stroke-width="5.0e-3" stroke="#A8E5EE" fill="none" stroke-opacity="0.3"><polyline points="0.7500000000000002,0.505 0.7500000000000002,-0.505" /></g><g stroke-width="5.0e-3" stroke="#A8E5EE" fill="none" stroke-opacity="0.3"><polyline points="1.0,0.505 1.0,-0.505" /></g><g stroke-width="0.0" stroke="none" fill="#666666" fill-opacity="1.0" font-size="5.0e-2" text-anchor="middle"><text x="-1.0" y="0.60875">-0.04</text></g><g stroke-width="0.0" stroke="none" fill="#666666" fill-opacity="1.0" font-size="5.0e-2" text-anchor="middle"><text x="-0.75" y="0.60875">-0.03</text></g><g stroke-width="0.0" stroke="none" fill="#666666" fill-opacity="1.0" font-size="5.0e-2" text-anchor="middle"><text x="-0.5" y="0.60875">-0.02</text></g><g stroke-width="0.0" stroke="none" fill="#666666" fill-opacity="1.0" font-size="5.0e-2" text-anchor="middle"><text x="-0.25" y="0.60875">-0.01</text></g><g stroke-width="0.0" stroke="none" fill="#666666" fill-opacity="1.0" font-size="5.0e-2" text-anchor="middle"><text x="0.0" y="0.60875">0.00</text></g><g stroke-width="0.0" stroke="none" fill="#666666" fill-opacity="1.0" font-size="5.0e-2" text-anchor="middle"><text x="0.25" y="0.60875">0.01</text></g><g stroke-width="0.0" stroke="none" fill="#666666" fill-opacity="1.0" font-size="5.0e-2" text-anchor="middle"><text x="0.5" y="0.60875">0.02</text></g><g stroke-width="0.0" stroke="none" fill="#666666" fill-opacity="1.0" font-size="5.0e-2" text-anchor="middle"><text x="0.7500000000000002" y="0.60875">0.03</text></g><g stroke-width="0.0" stroke="none" fill="#666666" fill-opacity="1.0" font-size="5.0e-2" text-anchor="middle"><text x="1.0" y="0.60875">0.04</text></g><g stroke-width="0.0" stroke="#2C429D" fill="#5F0391" fill-opacity="1.0" stroke-opacity="0.4"><line stroke-width="5.0e-3" x1="-1.0" y1="0.5425" x2="-1.0" y2="0.5125" /><line stroke-width="5.0e-3" x1="-0.75" y1="0.5425" x2="-0.75" y2="0.5125" /><line stroke-width="5.0e-3" x1="-0.5" y1="0.5425" x2="-0.5" y2="0.5125" /><line stroke-width="5.0e-3" x1="-0.25" y1="0.5425" x2="-0.25" y2="0.5125" /><line stroke-width="5.0e-3" y1="0.5425" y2="0.5125" /><line stroke-width="5.0e-3" x1="0.25" y1="0.5425" x2="0.25" y2="0.5125" /><line stroke-width="5.0e-3" x1="0.5" y1="0.5425" x2="0.5" y2="0.5125" /><line stroke-width="5.0e-3" x1="0.7500000000000002" y1="0.5425" x2="0.7500000000000002" y2="0.5125" /><line stroke-width="5.0e-3" x1="1.0" y1="0.5425" x2="1.0" y2="0.5125" /></g><g stroke-width="0.0" stroke="#666666" fill="#5F0391" fill-opacity="0.5" stroke-opacity="0.0"><rect width="2.0" height="5.0000000000000044e-3" x="-1.0" y="0.5125" /></g><g stroke-width="5.0e-3" stroke="#666666" fill="#FF0000" fill-opacity="0.5" stroke-opacity="0.5"><rect width="7.499999999999996e-2" height="4.040404040404039e-2" x="-0.825" y="0.4595959595959596" /><rect width="7.499999999999996e-2" height="1.010101010101011e-2" x="-0.75" y="0.4898989898989899" /><rect width="7.500000000000007e-2" height="5.050505050505055e-2" x="-0.675" y="0.44949494949494945" /><rect width="7.500000000000007e-2" height="4.040404040404039e-2" x="-0.6" y="0.4595959595959596" /><rect width="7.499999999999996e-2" height="8.080808080808088e-2" x="-0.5249999999999999" y="0.4191919191919191" /><rect width="7.499999999999996e-2" height="7.070707070707077e-2" x="-0.44999999999999996" y="0.4292929292929292" /><rect width="7.500000000000007e-2" height="0.13131313131313127" x="-0.375" y="0.36868686868686873" /><rect width="7.500000000000007e-2" height="0.1010101010101011" x="-0.29999999999999993" y="0.3989898989898989" /><rect width="7.499999999999996e-2" height="0.42424242424242475" x="-0.22499999999999987" y="7.575757575757525e-2" /><rect width="7.500000000000007e-2" height="0.47474747474747525" x="-0.1499999999999999" y="2.525252525252475e-2" /><rect width="7.499999999999984e-2" height="0.9595959595959607" x="-7.499999999999984e-2" y="-0.45959595959596067" /><rect width="7.500000000000018e-2" height="1.0" y="-0.5" /><rect width="7.499999999999996e-2" height="0.5555555555555556" x="7.500000000000018e-2" y="-5.555555555555558e-2" /><rect width="7.499999999999996e-2" height="0.5454545454545467" x="0.15000000000000013" y="-4.5454545454546746e-2" /><rect width="7.499999999999996e-2" height="0.27272727272727276" x="0.2250000000000001" y="0.22727272727272724" /><rect width="7.499999999999996e-2" height="0.15151515151515182" x="0.30000000000000004" y="0.3484848484848482" /><rect width="7.500000000000018e-2" height="5.05050505050505e-2" x="0.375" y="0.4494949494949495" /><rect width="7.499999999999996e-2" height="3.0303030303030276e-2" x="0.4500000000000002" y="0.4696969696969697" /><rect width="7.499999999999996e-2" height="3.0303030303030387e-2" x="0.5250000000000001" y="0.4696969696969696" /><rect width="7.499999999999996e-2" height="1.010101010101011e-2" x="0.6000000000000001" y="0.4898989898989899" /><rect width="7.500000000000018e-2" x="0.675" y="0.5" /><rect width="7.499999999999996e-2" height="2.020202020202022e-2" x="0.7500000000000002" y="0.4797979797979798" /></g><g /></svg>