<svg viewBox="-1.1825749999999997 -0.68275 2.1900749999999993 1.5427659178324475" xmlns="http://www.w3.org/2000/svg" xmlns:xlink="http://www.w3.org/1999/xlink" version="1.1" width="600.0" height="400.0"><g stroke-width="0.0" stroke="none" fill="#000000" transform="translate(-8.753750000000005e-2, -0.57175)" fill-opacity="1.0" font-size="0.12" text-anchor="middle"><text transform="rotate(0.0, 0.0, -0.0)" x="0.0" y="-0.0">ma beta</text></g><g stroke-width="0.0" stroke="#000000" fill="#666666" fill-opacity="3.0e-2" stroke-opacity="0.0"><rect width="1.9999999999999998" height="1.0" x="-1.0" y="-0.5" /></g><g stroke-width="5.0e-3" stroke="#A8E5EE" fill="none" stroke-opacity="0.3"><polyline points="-1.0,0.505 -1.0,-0.505" /></g><g stroke-width="5.0e-3" stroke="#A8E5EE" fill="none" stroke-opacity="0.3"><polyline points="-0.9118236472945892,0.505 -0.9118236472945892,-0.505" /></g><g stroke-width="5.0e-3" stroke="#A8E5EE" fill="none" stroke-opacity="0.3"><polyline points="-0.6553106212424851,0.505 -0.6553106212424851,-0.505" /></g><g stroke-width="5.0e-3" stroke="#A8E5EE" fill="none" stroke-opacity="0.3"><polyline points="-0.40280561122244496,0.505 -0.40280561122244496,-0.505" /></g><g stroke-width="5.0e-3" stroke="#A8E5EE" fill="none" stroke-opacity="0.3"><polyline points="-0.15030060120240496,0.505 -0.15030060120240496,-0.505" /></g><g stroke-width="5.0e-3" stroke="#A8E5EE" fill="none" stroke-opacity="0.3"><polyline points="9.418837675350678e-2,0.505 9.418837675350678e-2,-0.505" /></g><g stroke-width="5.0e-3" stroke="#A8E5EE" fill="none" stroke-opacity="0.3"><polyline points="0.3466933867735469,0.505 0.3466933867735469,-0.505" /></g><g stroke-width="5.0e-3" stroke="#A8E5EE" fill="none" stroke-opacity="0.3"><polyline points="0.6032064128256511,0.505 0.6032064128256511,-0.505" /></g><g stroke-width="5.0e-3" stroke="#A8E5EE" fill="none" stroke-opacity="0.3"><polyline points="0.8597194388777554,0.505 0.8597194388777554,-0.505" /></g><g stroke-width="5.0e-3" stroke="#A8E5EE" fill="none" stroke-opacity="0.3"><polyline points="0.9999999999999998,0.505 0.9999999999999998,-0.505" /></g><g stroke-width="0.0" stroke="none" fill="#666666" fill-opacity="1.0" font-size="5.0e-2" text-anchor="end"><text transform="rotate(-45.0, -1.0, 0.647)" x="-1.0" y="0.647">27 Feb 2018</text></g><g stroke-width="0.0" stroke="none" fill="#666666" fill-opacity="1.0" font-size="5.0e-2" text-anchor="end"><text transform="rotate(-45.0, -0.9118236472945892, 0.647)" x="-0.9118236472945892" y="0.647">31 Mar 2018</text></g><g stroke-width="0.0" stroke="none" fill="#666666" fill-opacity="1.0" font-size="5.0e-2" text-anchor="end"><text transform="rotate(-45.0, -0.6553106212424851, 0.647)" x="-0.6553106212424851" y="0.647">30 Jun 2018</text></g><g stroke-width="0.0" stroke="none" fill="#666666" fill-opacity="1.0" font-size="5.0e-2" text-anchor="end"><text transform="rotate(-45.0, -0.40280561122244496, 0.647)" x="-0.40280561122244496" y="0.647">30 Sep 2018</text></g><g stroke-width="0.0" stroke="none" fill="#666666" fill-opacity="1.0" font-size="5.0e-2" text-anchor="end"><text transform="rotate(-45.0, -0.15030060120240496, 0.647)" x="-0.15030060120240496" y="0.647">31 Dec 2018</text></g><g stroke-width="0.0" stroke="none" fill="#666666" fill-opacity="1.0" font-size="5.0e-2" text-anchor="end"><text transform="rotate(-45.0, 9.418837675350678e-2, 0.647)" x="9.418837675350678e-2" y="0.647">31 Mar 2019</text></g><g stroke-width="0.0" stroke="none" fill="#666666" fill-opacity="1.0" font-size="5.0e-2" text-anchor="end"><text transform="rotate(-45.0, 0.3466933867735469, 0.647)" x="0.3466933867735469" y="0.647">30 Jun 2019</text></g><g stroke-width="0.0" stroke="none" fill="#666666" fill-opacity="1.0" font-size="5.0e-2" text-anchor="end"><text transform="rotate(-45.0, 0.6032064128256511, 0.647)" x="0.6032064128256511" y="0.647">30 Sep 2019</text></g><g stroke-width="0.0" stroke="none" fill="#666666" fill-opacity="1.0" font-size="5.0e-2" text-anchor="end"><text transform="rotate(-45.0, 0.8597194388777554, 0.647)" x="0.8597194388777554" y="0.647">31 Dec 2019</text></g><g stroke-width="0.0" stroke="none" fill="#666666" fill-opacity="1.0" font-size="5.0e-2" text-anchor="end"><text transform="rotate(-45.0, 0.9999999999999998, 0.647)" x="0.9999999999999998" y="0.647">21 Feb 2020</text></g><g stroke-width="0.0" stroke="#2C429D" fill="#5F0391" fill-opacity="1.0" stroke-opacity="0.4"><line stroke-width="5.0e-3" x1="-1.0" y1="0.58075" x2="-1.0" y2="0.55075" /><line stroke-width="5.0e-3" x1="-0.9118236472945892" y1="0.58075" x2="-0.9118236472945892" y2="0.55075" /><line stroke-width="5.0e-3" x1="-0.6553106212424851" y1="0.58075" x2="-0.6553106212424851" y2="0.55075" /><line stroke-width="5.0e-3" x1="-0.40280561122244496" y1="0.58075" x2="-0.40280561122244496" y2="0.55075" /><line stroke-width="5.0e-3" x1="-0.15030060120240496" y1="0.58075" x2="-0.15030060120240496" y2="0.55075" /><line stroke-width="5.0e-3" x1="9.418837675350678e-2" y1="0.58075" x2="9.418837675350678e-2" y2="0.55075" /><line stroke-width="5.0e-3" x1="0.3466933867735469" y1="0.58075" x2="0.3466933867735469" y2="0.55075" /><line stroke-width="5.0e-3" x1="0.6032064128256511" y1="0.58075" x2="0.6032064128256511" y2="0.55075" /><line stroke-width="5.0e-3" x1="0.8597194388777554" y1="0.58075" x2="0.8597194388777554" y2="0.55075" /><line stroke-width="5.0e-3" x1="0.9999999999999998" y1="0.58075" x2="0.9999999999999998" y2="0.55075" /></g><g stroke-width="0.0" stroke="#666666" fill="#5F0391" fill-opacity="0.5" stroke-opacity="0.0"><rect width="1.9999999999999998" height="5.0000000000000044e-3" x="-1.0" y="0.55075" /></g><g stroke-width="5.0e-3" stroke="#A8E5EE" fill="none" stroke-opacity="0.3"><polyline points="-1.005,0.5 1.0049999999999997,0.5" /></g><g stroke-width="5.0e-3" stroke="#A8E5EE" fill="none" stroke-opacity="0.3"><polyline points="-1.005,0.375 1.0049999999999997,0.375" /></g><g stroke-width="5.0e-3" stroke="#A8E5EE" fill="none" stroke-opacity="0.3"><polyline points="-1.005,0.25 1.0049999999999997,0.25" /></g><g stroke-width="5.0e-3" stroke="#A8E5EE" fill="none" stroke-opacity="0.3"><polyline points="-1.005,0.125 1.0049999999999997,0.125" /></g><g stroke-width="5.0e-3" stroke="#A8E5EE" fill="none" stroke-opacity="0.3"><polyline points="-1.005,-0.0 1.0049999999999997,-0.0" /></g><g stroke-width="5.0e-3" stroke="#A8E5EE" fill="none" stroke-opacity="0.3"><polyline points="-1.005,-0.125 1.0049999999999997,-0.125" /></g><g stroke-width="5.0e-3" stroke="#A8E5EE" fill="none" stroke-opacity="0.3"><polyline points="-1.005,-0.25 1.0049999999999997,-0.25" /></g><g stroke-width="5.0e-3" stroke="#A8E5EE" fill="none" stroke-opacity="0.3"><polyline points="-1.005,-0.3750000000000001 1.0049999999999997,-0.3750000000000001" /></g><g stroke-width="5.0e-3" stroke="#A8E5EE" fill="none" stroke-opacity="0.3"><polyline points="-1.005,-0.5 1.0049999999999997,-0.5" /></g><g stroke-width="0.0" stroke="none" fill="#666666" fill-opacity="1.0" font-size="5.0e-2" text-anchor="end"><text x="-1.0575749999999997" y="0.5145">-0.03</text></g><g stroke-width="0.0" stroke="none" fill="#666666" fill-opacity="1.0" font-size="5.0e-2" text-anchor="end"><text x="-1.0575749999999997" y="0.3895">-0.02</text></g><g stroke-width="0.0" stroke="none" fill="#666666" fill-opacity="1.0" font-size="5.0e-2" text-anchor="end"><text x="-1.0575749999999997" y="0.2645">-0.01</text></g><g stroke-width="0.0" stroke="none" fill="#666666" fill-opacity="1.0" font-size="5.0e-2" text-anchor="end"><text x="-1.0575749999999997" y="0.1395">0.00</text></g><g stroke-width="0.0" stroke="none" fill="#666666" fill-opacity="1.0" font-size="5.0e-2" text-anchor="end"><text x="-1.0575749999999997" y="1.4499999999999999e-2">0.01</text></g><g stroke-width="0.0" stroke="none" fill="#666666" fill-opacity="1.0" font-size="5.0e-2" text-anchor="end"><text x="-1.0575749999999997" y="-0.1105">0.02</text></g><g stroke-width="0.0" stroke="none" fill="#666666" fill-opacity="1.0" font-size="5.0e-2" text-anchor="end"><text x="-1.0575749999999997" y="-0.2355">0.03</text></g><g stroke-width="0.0" stroke="none" fill="#666666" fill-opacity="1.0" font-size="5.0e-2" text-anchor="end"><text x="-1.0575749999999997" y="-0.3605000000000001">0.04</text></g><g stroke-width="0.0" stroke="none" fill="#666666" fill-opacity="1.0" font-size="5.0e-2" text-anchor="end"><text x="-1.0575749999999997" y="-0.4855">0.05</text></g><g stroke-width="0.0" stroke="#2C429D" fill="#5F0391" fill-opacity="1.0" stroke-opacity="0.4"><line stroke-width="5.0e-3" transform="rotate(-90.0, -1.0274999999999999, 0.5)" x1="-1.0274999999999999" y1="0.515" x2="-1.0274999999999999" y2="0.485" /><line stroke-width="5.0e-3" transform="rotate(-90.0, -1.0274999999999999, 0.375)" x1="-1.0274999999999999" y1="0.39" x2="-1.0274999999999999" y2="0.36" /><line stroke-width="5.0e-3" transform="rotate(-90.0, -1.0274999999999999, 0.25)" x1="-1.0274999999999999" y1="0.265" x2="-1.0274999999999999" y2="0.235" /><line stroke-width="5.0e-3" transform="rotate(-90.0, -1.0274999999999999, 0.125)" x1="-1.0274999999999999" y1="0.14" x2="-1.0274999999999999" y2="0.11" /><line stroke-width="5.0e-3" transform="rotate(-90.0, -1.0274999999999999, -0.0)" x1="-1.0274999999999999" y1="1.5e-2" x2="-1.0274999999999999" y2="-1.5e-2" /><line stroke-width="5.0e-3" transform="rotate(-90.0, -1.0274999999999999, -0.125)" x1="-1.0274999999999999" y1="-0.11" x2="-1.0274999999999999" y2="-0.14" /><line stroke-width="5.0e-3" transform="rotate(-90.0, -1.0274999999999999, -0.25)" x1="-1.0274999999999999" y1="-0.235" x2="-1.0274999999999999" y2="-0.265" /><line stroke-width="5.0e-3" transform="rotate(-90.0, -1.0274999999999999, -0.3750000000000001)" x1="-1.0274999999999999" y1="-0.3600000000000001" x2="-1.0274999999999999" y2="-0.3900000000000001" /><line stroke-width="5.0e-3" transform="rotate(-90.0, -1.0274999999999999, -0.5)" x1="-1.0274999999999999" y1="-0.485" x2="-1.0274999999999999" y2="-0.515" /></g><g stroke-width="0.0" stroke="#666666" fill="#5F0391" fill-opacity="0.5" stroke-opacity="0.0"><rect width="4.999999999999893e-3" height="1.0" x="-1.0174999999999998" y="-0.5" /></g><g stroke-width="5.0e-3" stroke="#C58C4B" fill="none" stroke-opacity="0.5"><polyline points="-1.0,0.125 0.9999999999999998,0.125" /></g><g stroke-width="5.0e-3" stroke="#3C7F2B" fill="none" stroke-opacity="0.5"><polyline points="-1.0,0.3838568998004433 -0.9959919839679359,0.37123768126410217 -0.9919839679358717,0.3275506886555962 -0.9879759519038076,0.35398402908004845 -0.9839679358717435,0.38499217631686966 -0.9799599198396793,0.38742442338520033 -0.9759519038076152,0.38699097027015245 -0.9719438877755511,0.38845033356615755 -0.9679358717434869,0.35862910142728815 -0.9639278557114228,0.36809037522331456 -0.9599198396793587,0.38827794871243465 -0.9559118236472945,0.39399390010470947 -0.9519038076152304,0.3937461774415862 -0.9478957915831663,0.39407430744083394 -0.9438877755511023,0.37028050973980553 -0.9398797595190381,0.3771186445900315 -0.935871743486974,0.3713792178361697 -0.9318637274549099,0.2392273133560719 -0.9278557114228457,7.037518384653135e-2 -0.9238476953907816,0.35742897920453237 -0.9198396793587175,0.2784357941866049 -0.9158316633266533,0.27170102475993985 -0.9118236472945892,0.36197059870820847 -0.9078156312625251,0.2665587791938616 -0.9038076152304609,0.3530067062832317 -0.8997995991983968,0.39194160726443295 -0.8957915831663327,0.3996526095765711 -0.8917835671342685,0.363989833349086 -0.8877755511022044,0.38044594105409185 -0.8837675350701403,0.4067838848929225 -0.8797595190380761,0.40650230768935824 -0.875751503006012,0.40536893856603257 -0.8717434869739479,0.4075279849534814 -0.8677354709418837,0.3972918779320572 -0.8637274549098196,0.36658363017907103 -0.8597194388777555,0.3655534924865482 -0.8557114228456915,0.388471819784379 -0.8517034068136273,0.40545025900883674 -0.8476953907815632,0.40527668432214464 -0.8436873747494991,0.398313289452532 -0.8396793587174349,0.4035904981340348 -0.8356713426853708,0.4082819992626211 -0.8316633266533067,0.4067382365594211 -0.8276553106212425,0.41064132639957096 -0.8236472945891784,0.41174779538531886 -0.8196392785571143,0.40660658211717066 -0.8156312625250501,0.4033939532982219 -0.811623246492986,0.41000082812525307 -0.8076152304609219,0.40233952077505264 -0.8036072144288577,0.40332935786403595 -0.7995991983967936,0.36690062463271506 -0.7955911823647295,0.3109819316421526 -0.7915831663326653,0.3051511641308178 -0.7875751503006012,0.3063975555507876 -0.7835671342685371,0.3637327849827261 -0.779559118236473,0.3444292002433552 -0.7755511022044088,0.3547585587193964 -0.7715430861723447,0.37243167947478883 -0.7675350701402806,0.33621826904774865 -0.7635270541082164,0.36229078591650077 -0.7595190380761523,0.34782899944506684 -0.7555110220440882,0.3646368184977205 -0.751503006012024,0.37803221911526386 -0.7474949899799599,0.3884499622024311 -0.7434869739478958,0.3901636538565917 -0.7394789579158316,0.40339549556522697 -0.7354709418837675,0.3847419804453251 -0.7314629258517034,0.36564625070153345 -0.7274549098196392,0.3668275111941134 -0.7234468937875751,0.3123538114182419 -0.719438877755511,0.33050842939967817 -0.7154308617234469,0.31347325483174704 -0.7114228456913828,0.31534930548743534 -0.7074148296593187,0.31078831857375244 -0.7034068136272545,0.35575356713328954 -0.6993987975951904,0.34637202496636943 -0.6953907815631263,0.36017606108217454 -0.6913827655310621,0.37508420449987123 -0.687374749498998,0.3847898562223996 -0.6833667334669339,0.3845834613655499 -0.6793587174348698,0.3747438255114216 -0.6753507014028056,0.3811562991505883 -0.6713426853707415,0.29194293721409215 -0.6673346693386774,0.32107925710027985 -0.6633266533066133,0.22747781896916586 -0.6593186372745492,0.3202329838468779 -0.6553106212424851,0.3302979407657114 -0.6513026052104209,0.35728624092575667 -0.6472945891783568,0.32011505576086546 -0.6432865731462927,0.38431205541991903 -0.6392785571142285,0.38566453629313524 -0.6352705410821644,0.34110898406816903 -0.6312625250501003,0.3175409164587816 -0.6272545090180361,0.384250612525077 -0.623246492985972,0.33624733154229336 -0.6192384769539079,0.3361702582674595 -0.6152304609218437,0.3546054731003536 -0.6112224448897796,0.3292800291843616 -0.6072144288577155,0.3185993542110864 -0.6032064128256514,0.3657777773908902 -0.5991983967935872,0.3760038620249784 -0.5951903807615231,0.37111305310173126 -0.591182364729459,0.34508007463456475 -0.5871743486973948,0.2597084389269141 -0.5831663326653307,0.32388639856764323 -0.5791583166332666,0.3850947952718884 -0.5751503006012024,0.38741810696548984 -0.5711422845691383,0.39420391281424844 -0.5671342685370742,0.3944646452514239 -0.56312625250501,0.39068871942685823 -0.5591182364729459,0.3723979677549175 -0.5551102204408818,0.35240072967002267 -0.5511022044088176,0.33546113715303605 -0.5470941883767535,0.35194523143556 -0.5430861723446894,0.3740960044576882 -0.5390781563126252,0.39169256956223397 -0.5350701402805611,0.3656384648408307 -0.531062124248497,0.4000032382712942 -0.5270541082164328,0.3582771918736761 -0.5230460921843687,0.40766414446887006 -0.5190380761523046,0.4085015162793713 -0.5150300601202404,0.4051799385682424 -0.5110220440881764,0.400862734579028 -0.5070140280561123,0.4058605650982673 -0.5030060120240482,0.40937296334518314 -0.498997995991984,0.3958583271973247 -0.4949899799599199,0.33519904307574716 -0.49098196392785576,0.3496751079997392 -0.4869739478957916,0.2884322403964268 -0.4829659318637275,0.3753653412497306 -0.47895791583166336,0.3844103013180086 -0.47494989979959923,0.40080267356010385 -0.4709418837675351,0.405034488194917 -0.46693386773547096,0.3842463229380303 -0.46292585170340683,0.35672404604796726 -0.4589178356713427,0.37308317839588195 -0.45490981963927857,0.3982215028596219 -0.45090180360721444,0.39653970586858966 -0.4468937875751503,0.40518393399747993 -0.44288577154308617,0.40650935146480355 -0.43887775551102204,0.38574110138466483 -0.434869739478958,0.412848843180695 -0.4308617234468939,0.41312054938341 -0.42685370741482975,0.38004876743225974 -0.4228456913827656,0.395264983314899 -0.4188376753507015,0.41727204180398986 -0.41482965931863736,0.4142812730467602 -0.4108216432865732,0.38845090916324443 -0.4068136272545091,0.407426601719906 -0.40280561122244496,0.40294732402901035 -0.3987975951903808,0.41734279917343525 -0.3947895791583167,0.4144478894223294 -0.39078156312625256,0.41442469217628325 -0.38677354709418843,0.32579933279547074 -0.3827655310621243,0.2086218414611895 -0.37875751503006017,0.19844631213117492 -0.37474949899799603,0.16004054603032453 -0.3707414829659319,-9.887309658558097e-2 -0.36673346693386777,-0.3854162429620729 -0.36272545090180364,4.48569669084114e-2 -0.3587174348697395,-1.600380299125903e-2 -0.35470941883767537,0.3145651836624991 -0.35070140280561124,0.3185436017685009 -0.3466933867735471,0.22957181670976218 -0.342685370741483,0.24071446466159607 -0.33867735470941884,0.21524996837738625 -0.3346693386773547,0.17672048788949019 -0.3306613226452907,-6.197208268738408e-2 -0.32665330661322656,0.23610862351708223 -0.3226452905811624,0.1189656842441289 -0.3186372745490983,8.205331650637682e-2 -0.31462925851703416,0.27122311883086625 -0.31062124248497003,0.3377983136326622 -0.3066132264529059,0.3631531498623709 -0.30260521042084176,0.35870110085227436 -0.29859719438877763,0.36553154225407514 -0.2945891783567135,0.36141067609947214 -0.29058116232464937,0.2972686284997277 -0.28657314629258523,0.31441650907126184 -0.2825651302605211,0.35652811395198336 -0.27855711422845697,0.3781576781728244 -0.27454909819639284,0.37754825600134234 -0.2705410821643287,0.3636454982494741 -0.2665330661322646,0.38660270985553685 -0.26252505010020044,0.386378924768542 -0.2585170340681363,0.37063515299903393 -0.2545090180360722,0.2996662640515937 -0.25050100200400804,0.332418209906485 -0.2464929859719439,0.30753807904692587 -0.24248496993987978,0.3871534837673417 -0.23847695390781565,0.3929231818744867 -0.23446893787575152,0.35809504692170246 -0.2304609218436875,0.36720382814830566 -0.22645290581162336,0.33107812288059413 -0.22244488977955923,0.2673198770137603 -0.2184368737474951,0.41059399771988747 -0.21442885771543096,0.4104747769069667 -0.21042084168336683,0.3698477380340359 -0.2064128256513027,0.3833910599840925 -0.20240480961923857,0.38791462380108926 -0.19839679358717444,0.40489256660768114 -0.1943887775551103,0.40666229866131876 -0.19038076152304617,0.3590386211566118 -0.18637274549098204,0.25969747208478616 -0.1823647294589179,0.2833384318420228 -0.17835671342685377,0.19502074578466255 -0.17434869739478964,8.839963613026491e-2 -0.1703406813627255,-7.32163203834737e-2 -0.16633266533066138,-0.3009656008624393 -0.16232464929859725,0.3447146788394709 -0.1583166332665331,0.37529873328527075 -0.15430861723446898,0.3780183881012291 -0.15030060120240485,0.3900352987906341 -0.14629258517034072,0.3905648464563535 -0.14228456913827658,0.3688238254265872 -0.13827655310621245,0.39470097122464437 -0.13426853707414832,0.37978323371110445 -0.1302605210420842,0.35182808915474 -0.12625250501002017,0.3363422307677713 -0.12224448897795603,0.31801444025989856 -0.1182364729458919,0.3188825952046608 -0.11422845691382777,0.3403011854083402 -0.11022044088176364,0.2974696840030837 -0.1062124248496995,0.288155971513289 -0.10220440881763537,0.2503595644249589 -9.819639278557124e-2,0.1744071134895283 -9.418837675350711e-2,0.28404800718577805 -9.018036072144298e-2,0.27604652441513466 -8.617234468937884e-2,0.2724635617332529 -8.216432865731471e-2,0.2298256379567185 -7.815631262525058e-2,0.28475904663462426 -7.414829659318645e-2,0.29485274381205884 -7.014028056112231e-2,0.2221606470077101 -6.613226452905818e-2,0.1721464265867529 -6.212424849699405e-2,0.1782481537612281 -5.811623246492992e-2,0.1378742683364707 -5.4108216432865786e-2,0.11311673138245781 -5.010020040080165e-2,0.15271783678492556 -4.609218436873752e-2,0.24164522889672974 -4.208416833667339e-2,0.2448311283028919 -3.8076152304609256e-2,0.24760769532181726 -3.4068136272545124e-2,0.18267183089686417 -3.0060120240480992e-2,0.17284007714217808 -2.605210420841686e-2,0.2089410193370994 -2.204408817635284e-2,0.14444181748874946 -1.8036072144288706e-2,0.14971651947811898 -1.4028056112224574e-2,0.1521361392627234 -1.0020040080160442e-2,0.20068779754015065 -6.012024048096309e-3,0.16743436261369127 -2.004008016032177e-3,0.1738209208037909 2.004008016031955e-3,0.1960816191881916 6.012024048096087e-3,0.2128197405593304 1.002004008016022e-2,0.24001058110177115 1.4028056112224352e-2,0.2141233817888859 1.8036072144288484e-2,0.24863230038008655 2.2044088176352616e-2,0.2586932068026415 2.605210420841675e-2,0.27561811209803194 3.006012024048088e-2,0.2621899505137354 3.406813627254501e-2,0.24974665069900515 3.8076152304609145e-2,0.30438394028959265 4.208416833667328e-2,0.30209411354791366 4.609218436873741e-2,0.28778342112725375 5.010020040080154e-2,0.2972554959978092 5.4108216432865675e-2,0.2837032921516892 5.811623246492981e-2,0.2720816803950111 6.212424849699394e-2,0.28246130919438894 6.613226452905807e-2,0.3026367200936968 7.01402805611222e-2,0.26661936925265306 7.414829659318634e-2,0.3421115614427271 7.815631262525047e-2,0.3366520494672494 8.21643286573146e-2,0.35539135356912266 8.617234468937873e-2,0.3452731103835682 9.018036072144286e-2,0.3539193645715216 9.4188376753507e-2,0.3598297130535818 9.819639278557113e-2,0.33294746233132533 0.10220440881763526,0.34198349141301143 0.1062124248496994,0.3390839689357323 0.11022044088176353,0.336511163343417 0.11422845691382766,0.31837270858600375 0.11823647294589179,0.32354199299804803 0.12224448897795592,0.36234334176639404 0.12625250501002006,0.3578559770022657 0.13026052104208397,0.3615895189375389 0.1342685370741481,0.3446706859218205 0.13827655310621223,0.3559465915164337 0.14228456913827636,0.35961889616846743 0.1462925851703405,0.3671315096535741 0.15030060120240463,0.36707418758422894 0.15430861723446876,0.36714916874877546 0.1583166332665329,0.3489361798141286 0.16232464929859702,0.3688689136173955 0.16633266533066116,0.3731154393263034 0.1703406813627253,0.3652031301468978 0.17434869739478942,0.36718279822894 0.17835671342685355,0.3692655255561288 0.18236472945891768,0.36587809025932605 0.18637274549098182,0.3438274239850453 0.19038076152304595,0.38971384302327244 0.19438877755511008,0.3781089720445604 0.1983967935871742,0.23349914049025494 0.20240480961923835,0.20602212955924293 0.20641282565130248,0.15414647205305326 0.2104208416833666,0.22414666609320105 0.21442885771543074,-3.8193873481635054e-2 0.21843687374749488,0.14604371346810785 0.222444889779559,0.2398277100651504 0.22645290581162314,0.33233506898065074 0.23046092184368727,0.28913019177040244 0.2344689378757514,0.22531908854230487 0.23847695390781554,0.3215706943545076 0.24248496993987967,0.3010545706818655 0.2464929859719438,0.19427036581041757 0.25050100200400793,0.22224124541391876 0.25450901803607207,0.12895811838170645 0.2585170340681362,4.110860521886517e-2 0.26252505010020033,0.1036241312241638 0.26653306613226446,-6.535331149536028e-2 0.2705410821643286,-8.482225067375682e-2 0.2745490981963927,0.31012413063443545 0.27855711422845686,0.3478184345840896 0.282565130260521,0.3537584659080627 0.2865731462925851,0.3320356984600622 0.29058116232464926,0.3108847216496033 0.2945891783567134,0.3179231971979967 0.2985971943887775,0.333016101911658 0.30260521042084165,0.3153532851025301 0.3066132264529058,0.32916142103373014 0.3106212424849699,0.32773616613748624 0.31462925851703405,0.2717777696050666 0.3186372745490982,0.25388929557691076 0.3226452905811623,0.16642473222670662 0.32665330661322645,0.20654519216143585 0.3306613226452906,0.24536979248777396 0.3346693386773545,0.33613854223101225 0.3386773547094186,0.3423717219404563 0.34268537074148275,0.3331557314425771 0.3466933867735469,0.30828637079001675 0.350701402805611,0.2558063323503974 0.35470941883767515,0.23887618806929817 0.3587174348697393,0.16384478395398266 0.3627254509018034,0.2184409907327705 0.36673346693386755,0.2937213116200451 0.3707414829659317,0.2940922158175048 0.3747494989979958,0.26727987008884646 0.37875751503005994,0.25863691771851244 0.3827655310621241,0.22363113259282424 0.3867735470941882,0.24272248317867806 0.39078156312625234,0.29629598879196 0.3947895791583165,0.3341454703568081 0.3987975951903806,0.33263108908824046 0.40280561122244474,0.3328576665108487 0.40681362725450887,0.34067687048856593 0.410821643286573,0.34315469477861676 0.41482965931863713,0.32758780831299017 0.41883767535070127,0.3559336801440457 0.4228456913827654,0.34208341032107814 0.42685370741482953,0.35660410740846016 0.43086172344689366,0.36325746963741834 0.4348697394789578,0.31377084198722394 0.4388777555110219,0.20434811750755033 0.44288577154308606,8.463244413011961e-2 0.4468937875751502,-0.19777221270660095 0.4509018036072143,0.12810759865875398 0.45490981963927846,0.1555040188312906 0.4589178356713426,0.3571259181256326 0.4629258517034067,0.3258617770699883 0.46693386773547085,0.24275062423318194 0.470941883767535,0.36575319459569267 0.4749498997995991,0.21869153525808416 0.47895791583166325,0.2563466850071373 0.4829659318637274,0.3629171914636602 0.4869739478957915,0.39625223944829024 0.49098196392785565,0.38434574008762307 0.4949899799599198,0.39913809957122415 0.4989979959919839,0.3989079072867831 0.503006012024048,0.32828628535256565 0.5070140280561122,0.3871229198862103 0.5110220440881763,0.3792301332302152 0.5150300601202404,0.4002978544425688 0.5190380761523046,0.40682985981542374 0.5230460921843687,0.4062011335985599 0.5270541082164328,0.4101648839013331 0.531062124248497,0.4018956671656091 0.5350701402805611,0.3590736727710818 0.539078156312625,0.35946780017129226 0.5430861723446891,0.36489145976933934 0.5470941883767533,0.3677970096487475 0.5511022044088174,0.33454355040209866 0.5551102204408815,0.3236088990823221 0.5591182364729457,0.33719194859230944 0.5631262525050098,0.3620766377454358 0.5671342685370739,0.3541561471699879 0.5711422845691381,0.3578943480449302 0.5751503006012022,0.3628143682637688 0.5791583166332663,0.38458156119767367 0.5831663326653305,0.38618451448609903 0.5871743486973946,0.3884612496194813 0.5911823647294587,0.39427722402053933 0.5951903807615229,0.39434631139328274 0.599198396793587,0.3840368620365707 0.6032064128256511,0.39585345599457045 0.6072144288577153,0.35585035682223365 0.6112224448897794,0.2189069848150687 0.6152304609218435,0.3202527458316463 0.6192384769539077,0.40175611992225846 0.6232464929859718,0.39096194796477524 0.6272545090180359,0.3121213433315816 0.6312625250501,0.3811075634093029 0.6352705410821642,0.4040363668736817 0.6392785571142283,0.4051485551108843 0.6432865731462925,0.4083892756260106 0.6472945891783566,0.3807264950481448 0.6513026052104207,0.39306819058906695 0.6553106212424848,0.3843498276517324 0.659318637274549,0.40208232870629823 0.6633266533066131,0.3787508704823186 0.6673346693386772,0.39824725137222533 0.6713426853707414,0.39011005677886434 0.6753507014028055,0.3847509882855237 0.6793587174348696,0.36686732573665376 0.6833667334669338,0.33340339732207036 0.6873747494989979,0.35029416966638094 0.691382765531062,0.33283660101369494 0.6953907815631262,0.3662316722862934 0.6993987975951903,0.3001296375437683 0.7034068136272544,0.274485943696829 0.7074148296593186,0.3063041405346254 0.7114228456913827,0.31332615726108093 0.7154308617234468,0.2993200486004709 0.719438877755511,0.28670299900606866 0.7234468937875751,0.3242331010898686 0.7274549098196392,0.32192476108024565 0.7314629258517034,0.3273485673268133 0.7354709418837675,0.3311575200250559 0.7394789579158316,0.2703172581054932 0.7434869739478958,0.2846207191903386 0.7474949899799597,0.30973185188364155 0.7515030060120238,0.3530911615943288 0.7555110220440879,0.3629461980984976 0.7595190380761521,0.3604679391650663 0.7635270541082162,0.3271001950014544 0.7675350701402803,0.31931227651667343 0.7715430861723445,0.28855983671453433 0.7755511022044086,0.35113221061490296 0.7795591182364727,0.36859291556906637 0.7835671342685369,0.31378288732989923 0.787575150300601,0.3709126448855475 0.7915831663326651,0.3749889952452715 0.7955911823647293,0.3843713178172121 0.7995991983967934,0.3936156406087867 0.8036072144288575,0.3907152469940096 0.8076152304609217,0.3943233075189466 0.8116232464929858,0.3724563077498809 0.8156312625250499,0.3813879916178066 0.819639278557114,0.33271071993579604 0.8236472945891782,0.3472104086492053 0.8276553106212423,0.3664549235087833 0.8316633266533064,0.33720666381315034 0.8356713426853706,0.29289120989965334 0.8396793587174347,0.30650669835285627 0.8436873747494988,0.33293662207675906 0.847695390781563,0.2857483237225983 0.8517034068136271,0.3137056527751404 0.8557114228456912,0.3844659937079642 0.8597194388777554,0.3796709038387863 0.8637274549098195,0.3264079118185531 0.8677354709418836,0.3988235140979807 0.8717434869739478,0.39480343075022983 0.8757515030060119,0.39940771041332956 0.879759519038076,0.39956701567446223 0.8837675350701402,0.3700516978348442 0.8877755511022043,0.40177588661292485 0.8917835671342684,0.3678481200059985 0.8957915831663326,0.39530627191809387 0.8997995991983967,0.3933181681170318 0.9038076152304608,0.3292616116962941 0.907815631262525,0.2984127990193299 0.9118236472945891,0.3683509460070076 0.9158316633266532,0.3819628525652395 0.9198396793587174,0.38605789951252345 0.9238476953907815,0.3853041179760535 0.9278557114228456,0.19851276769997162 0.9318637274549098,0.36026865278763803 0.9358717434869739,0.3436863029345576 0.939879759519038,0.3689058019268895 0.9438877755511021,0.17797189714394485 0.9478957915831663,0.29739738279424 0.9519038076152302,0.4129362145395261 0.9559118236472943,0.4090804588395974 0.9599198396793585,0.40212279519139754 0.9639278557114226,0.4199532586612491 0.9679358717434867,0.40870669356727407 0.9719438877755509,0.40809091440330264 0.975951903807615,0.38346035169073134 0.9799599198396791,0.4032039210983668 0.9839679358717432,0.40213394162481897 0.9879759519038074,0.4168275281865027 0.9919839679358715,0.40869407786981443 0.9959919839679356,0.4192811189802865 0.9999999999999998,0.37546472201145764" /></g><g stroke-width="5.0e-3" stroke="#382A8C" fill="none" stroke-opacity="0.5"><polyline points="-1.0,0.1858951335614742 -0.9959919839679359,0.18419838722439835 -0.9919839679358717,0.1789647908223168 -0.9879759519038076,0.18117321245324597 -0.9839679358717435,0.18465572212011627 -0.9799599198396793,0.18507649272128057 -0.9759519038076152,0.18487103933507787 -0.9719438877755511,0.18551980794080497 -0.9679358717434869,0.18511321991627366 -0.9639278557114228,0.18545838734230324 -0.9599198396793587,0.18604737012398165 -0.9559118236472945,0.18574857168788028 -0.9519038076152304,0.18557654060162287 -0.9478957915831663,0.18571447904939142 -0.9438877755511023,0.1820465151257108 -0.9398797595190381,0.1824340357887087 -0.935871743486974,0.1815200339580726 -0.9318637274549099,0.16644005684373936 -0.9278557114228457,0.14718414399417035 -0.9238476953907816,0.17317202159050465 -0.9198396793587175,0.16068960762286194 -0.9158316633266533,0.15804901748320876 -0.9118236472945892,0.16952063132025602 -0.9078156312625251,0.15211584399228245 -0.9038076152304609,0.16368251376960702 -0.8997995991983968,0.17190313486979025 -0.8957915831663327,0.17569696283708003 -0.8917835671342685,0.16212931889841947 -0.8877755511022044,0.16467588472597422 -0.8837675350701403,0.1754237452937742 -0.8797595190380761,0.17237430683693367 -0.875751503006012,0.17664004252954468 -0.8717434869739479,0.1751311717059842 -0.8677354709418837,0.17873678734483073 -0.8637274549098196,0.18214244014387732 -0.8597194388777555,0.18224729667688894 -0.8557114228456915,0.18051620458490159 -0.8517034068136273,0.17713293088136167 -0.8476953907815632,0.17704148281867083 -0.8436873747494991,0.1699015219971851 -0.8396793587174349,0.17097105598688495 -0.8356713426853708,0.1765951947730161 -0.8316633266533067,0.17699073525279557 -0.8276553106212425,0.172831571308239 -0.8236472945891784,0.17413807672695208 -0.8196392785571143,0.1699455345353833 -0.8156312625250501,0.1684251841376147 -0.811623246492986,0.17588128915149037 -0.8076152304609219,0.1773424452137653 -0.8036072144288577,0.17712309578224011 -0.7995991983967936,0.1806012169961433 -0.7955911823647295,0.1826634685966816 -0.7915831663326653,0.18285157381717293 -0.7875751503006012,0.18291079884009664 -0.7835671342685371,0.18159940516831818 -0.779559118236473,0.18238538057786075 -0.7755511022044088,0.18214310625358798 -0.7715430861723447,0.1814676017034676 -0.7675350701402806,0.18285838485672223 -0.7635270541082164,0.18227097557806893 -0.7595190380761523,0.1827659881154901 -0.7555110220440882,0.18235561026659242 -0.751503006012024,0.18178022778941993 -0.7474949899799599,0.17801684172143095 -0.7434869739478958,0.18208681781241431 -0.7394789579158316,0.18014464987854817 -0.7354709418837675,0.18280334175453616 -0.7314629258517034,0.18333500257688984 -0.7274549098196392,0.18335856125538524 -0.7234468937875751,0.18361530687920413 -0.719438877755511,0.18365103726759058 -0.7154308617234469,0.18355409830923586 -0.7114228456913828,0.18352089281835626 -0.7074148296593187,0.18342861292344576 -0.7034068136272545,0.18367030095544407 -0.6993987975951904,0.18361916907545123 -0.6953907815631263,0.1836684013099203 -0.6913827655310621,0.18365806084386027 -0.687374749498998,0.18336453439992478 -0.6833667334669339,0.18348639510621434 -0.6793587174348698,0.18253068962880292 -0.6753507014028056,0.1828128032128647 -0.6713426853707415,0.17872961145050387 -0.6673346693386774,0.17951704494767068 -0.6633266533066133,0.17549045106239491 -0.6593186372745492,0.17844542641972344 -0.6553106212424851,0.17865971628540112 -0.6513026052104209,0.17978388043139337 -0.6472945891783568,0.17762009086465153 -0.6432865731462927,0.18094615920634577 -0.6392785571142285,0.18291239890138078 -0.6352705410821644,0.18365520490796683 -0.6312625250501003,0.1835982139999353 -0.6272545090180361,0.18346980345126046 -0.623246492985972,0.1836440350438926 -0.6192384769539079,0.18360782863729663 -0.6152304609218437,0.18369704057343172 -0.6112224448897796,0.18344948441461684 -0.6072144288577155,0.1832551694190624 -0.6032064128256514,0.18369346902471784 -0.5991983967935872,0.18374757275368742 -0.5951903807615231,0.18370269852413834 -0.591182364729459,0.18333572361628991 -0.5871743486973948,0.18157864423850723 -0.5831663326653307,0.18254909018664028 -0.5791583166332666,0.18367432538390155 -0.5751503006012024,0.18379944337056753 -0.5711422845691383,0.18382764462877776 -0.5671342685370742,0.18386839761655627 -0.56312625250501,0.18364293640658597 -0.5591182364729459,0.1830793856293106 -0.5551102204408818,0.18245892627734078 -0.5511022044088176,0.1818762091589165 -0.5470941883767535,0.1821294066418715 -0.5430861723446894,0.1826482434983554 -0.5390781563126252,0.18379939230871384 -0.5350701402805611,0.18385898325008299 -0.531062124248497,0.18374069359088013 -0.5270541082164328,0.18378338433435076 -0.5230460921843687,0.18388663535667438 -0.5190380761523046,0.1836094311317138 -0.5150300601202404,0.18332895369864816 -0.5110220440881764,0.18305057844334638 -0.5070140280561123,0.18324509336367278 -0.5030060120240482,0.18360833185553 -0.498997995991984,0.1825435906406866 -0.4949899799599199,0.180240720473696 -0.49098196392785576,0.18041439341770088 -0.4869739478957916,0.17814687664197643 -0.4829659318637275,0.18055736330341404 -0.47895791583166336,0.18077267056789226 -0.47494989979959923,0.18160984611804543 -0.4709418837675351,0.18261407561962306 -0.46693386773547096,0.18345674145227503 -0.46292585170340683,0.1837630917680501 -0.4589178356713427,0.1836441266320098 -0.45490981963927857,0.18319451706067608 -0.45090180360721444,0.18323798000464797 -0.4468937875751503,0.18215973749168368 -0.44288577154308617,0.18226562162721355 -0.43887775551102204,0.18357854601080664 -0.434869739478958,0.1827153866651514 -0.4308617234468939,0.1825560549835744 -0.42685370741482975,0.180092803379365 -0.4228456913827656,0.18055419734279676 -0.4188376753507015,0.1820951692867886 -0.41482965931863736,0.18264385990242843 -0.4108216432865732,0.18344554870782737 -0.4068136272545091,0.1830670676286068 -0.40280561122244496,0.1831894232014038 -0.3987975951903808,0.1825033093701991 -0.3947895791583167,0.18276964981359745 -0.39078156312625256,0.18274865383560618 -0.38677354709418843,0.18389285369584735 -0.3827655310621243,0.18340100014460903 -0.37875751503006017,0.1832424692185276 -0.37474949899799603,0.1828287969729177 -0.3707414829659319,0.16429546045836618 -0.36673346693386777,0.14277467816021355 -0.36272545090180364,0.1605223916942582 -0.3587174348697395,0.15440261503332203 -0.35470941883767537,0.17441963672918742 -0.35070140280561124,0.17413891695994316 -0.3466933867735471,0.163566308642706 -0.342685370741483,0.16320298895036645 -0.33867735470941884,0.15918597665972534 -0.3346693386773547,0.15361917719073004 -0.3306613226452907,0.12032331181548322 -0.32665330661322656,0.14712557138844912 -0.3226452905811624,0.12798482957833862 -0.3186372745490983,0.11969062380712425 -0.31462925851703416,0.14197283522494203 -0.31062124248497003,0.15403684500808584 -0.3066132264529059,0.1635069986123311 -0.30260521042084176,0.15855328849327688 -0.29859719438877763,0.16326672887325916 -0.2945891783567135,0.16784396476187202 -0.29058116232464937,0.17863858287826834 -0.28657314629258523,0.17776028235174351 -0.2825651302605211,0.17396592363321295 -0.27855711422845697,0.16239529760558635 -0.27454909819639284,0.16133357337004522 -0.2705410821643287,0.1552884489504872 -0.2665330661322646,0.16426522506291635 -0.26252505010020044,0.16588368302659612 -0.2585170340681363,0.15354460948024173 -0.2545090180360722,0.13672486856794835 -0.25050100200400804,0.14059504408551238 -0.2464929859719439,0.1338578011170541 -0.24248496993987978,0.15153506377705128 -0.23847695390781565,0.15468789897651664 -0.23446893787575152,0.1714533013406211 -0.2304609218436875,0.17036346729804241 -0.22645290581162336,0.1742429556598466 -0.22244488977955923,0.17791140677429557 -0.2184368737474951,0.16491126340047757 -0.21442885771543096,0.16404771595072815 -0.21042084168336683,0.14758560774490492 -0.2064128256513027,0.14953150322773495 -0.20240480961923857,0.14956637522029043 -0.19839679358717444,0.15452009110403825 -0.1943887775551103,0.15462991545521665 -0.19038076152304617,0.13908440240824033 -0.18637274549098204,0.11891217878528615 -0.1823647294589179,0.119894019255885 -0.17835671342685377,0.10274126469995809 -0.17434869739478964,8.346822377413365e-2 -0.1703406813627255,5.6513147043539824e-2 -0.16633266533066138,1.9485002041273014e-2 -0.16232464929859725,0.11405203219882126 -0.1583166332665331,0.12424722947103978 -0.15430861723446898,0.12390006869651043 -0.15030060120240485,0.13302866216477305 -0.14629258517034072,0.13486411312441254 -0.14228456913827658,0.11418327647916693 -0.13827655310621245,0.14871276246061083 -0.13426853707414832,0.1537972744360095 -0.1302605210420842,0.15982055468383316 -0.12625250501002017,0.1621582127745117 -0.12224448897795603,0.16448098346280254 -0.1182364729458919,0.1645910189399759 -0.11422845691382777,0.16240014579196566 -0.11022044088176364,0.16735092775173294 -0.1062124248496995,0.1682947661187813 -0.10220440881763537,0.17088785904103992 -9.819639278557124e-2,0.17405240996079507 -9.418837675350711e-2,0.17109710849751142 -9.018036072144298e-2,0.17177175895763824 -8.617234468937884e-2,0.17218084132835526 -8.216432865731471e-2,0.1740697031332148 -7.815631262525058e-2,0.17254589423754646 -7.414829659318645e-2,0.17223665102492164 -7.014028056112231e-2,0.17525842629692162 -6.613226452905818e-2,0.17588399389588233 -6.212424849699405e-2,0.17590304686238628 -5.811623246492992e-2,0.1758523932897859 -5.4108216432865786e-2,0.1755691401952394 -5.010020040080165e-2,0.1757565001237174 -4.609218436873752e-2,0.17602430444117229 -4.208416833667339e-2,0.17603919464446105 -3.8076152304609256e-2,0.17605064635511175 -3.4068136272545124e-2,0.1755884497932551 -3.0060120240480992e-2,0.17524686743861895 -2.605210420841686e-2,0.17560755545342444 -2.204408817635284e-2,0.17401509644270335 -1.8036072144288706e-2,0.17375313887120636 -1.4028056112224574e-2,0.17341432822972935 -1.0020040080160442e-2,0.1742765331608157 -6.012024048096309e-3,0.1729100882383196 -2.004008016032177e-3,0.1726739792303157 2.004008016031955e-3,0.17297749349176195 6.012024048096087e-3,0.17320269143262007 1.002004008016022e-2,0.17394995433755767 1.4028056112224352e-2,0.1723572030885957 1.8036072144288484e-2,0.17349504422017215 2.2044088176352616e-2,0.17383346244743492 2.605210420841675e-2,0.17515819534477745 3.006012024048088e-2,0.17608095251171546 3.406813627254501e-2,0.1761817285784471 3.8076152304609145e-2,0.1748444023041551 4.208416833667328e-2,0.17431334139085564 4.609218436873741e-2,0.17269322173064577 5.010020040080154e-2,0.17304482044517983 5.4108216432865675e-2,0.17168230638418774 5.811623246492981e-2,0.17055699959812776 6.212424849699394e-2,0.1707621056833818 6.613226452905807e-2,0.17192369664723145 7.01402805611222e-2,0.1681732907988357 7.414829659318634e-2,0.17495997409036262 7.815631262525047e-2,0.17517994637204742 8.21643286573146e-2,0.17370091554367234 8.617234468937873e-2,0.17490535388538675 9.018036072144286e-2,0.17418778036264804 9.4188376753507e-2,0.17246181631641788 9.819639278557113e-2,0.16843723811849431 0.10220440881763526,0.16865846610860424 0.1062124248496994,0.16793088375146437 0.11022044088176353,0.1672090405407392 0.11422845691382766,0.1651966738048949 0.11823647294589179,0.16495269751275238 0.12224448897795592,0.16831359301392568 0.12625250501002006,0.16696048535525732 0.13026052104208397,0.1672078786886052 0.1342685370741481,0.16418307196123333 0.13827655310621223,0.16486009792362466 0.14228456913827636,0.16490621284903495 0.1462925851703405,0.16640659263604013 0.15030060120240463,0.16589940745573983 0.15430861723446876,0.16567632531679705 0.1583166332665329,0.16117069398627554 0.16232464929859702,0.16291743054321994 0.16633266533066116,0.16349864285157334 0.1703406813627253,0.16112520991095874 0.17434869739478942,0.1608704421653281 0.17835671342685355,0.1606919378921422 0.18236472945891768,0.16558837608104598 0.18637274549098182,0.16694796878647 0.19038076152304595,0.16231666988768856 0.19438877755511008,0.1652711690557992 0.1983967935871742,0.17266466339507963 0.20240480961923835,0.17317775539250374 0.20641282565130248,0.17391608972691902 0.2104208416833666,0.17323809300919346 0.21442885771543074,0.17541757953937087 0.21843687374749488,0.17602814957560992 0.222444889779559,0.17593070198395355 0.22645290581162314,0.17498481050703085 0.23046092184368727,0.17589469369594724 0.2344689378757514,0.17627274132832815 0.23847695390781554,0.17593609754983952 0.24248496993987967,0.17622370021209394 0.2464929859719438,0.17614626543276257 0.25050100200400793,0.17626637021670788 0.25450901803607207,0.17505795727885554 0.2585170340681362,0.1732888609367057 0.26252505010020033,0.17391007496862576 0.26653306613226446,0.1692452900434236 0.2705410821643286,0.16795855318822106 0.2745490981963927,0.17604454987313983 0.27855711422845686,0.17716207456341337 0.282565130260521,0.1773918113686464 0.2865731462925851,0.176693729033838 0.29058116232464926,0.1759371502279436 0.2945891783567134,0.17608977727132424 0.2985971943887775,0.17654169103088613 0.30260521042084165,0.1758401071834747 0.3066132264529058,0.17625703680924276 0.3106212424849699,0.1761487713599934 0.31462925851703405,0.17380775038670587 0.3186372745490982,0.1729363277387101 0.3226452905811623,0.1692130990160977 0.32665330661322645,0.17011594025632437 0.3306613226452906,0.17117072231646552 0.3346693386773545,0.174955203664874 0.3386773547094186,0.17540575089395316 0.34268537074148275,0.17447878477346007 0.3466933867735469,0.17270594596383737 0.350701402805611,0.16967722180925954 0.35470941883767515,0.16849282338055527 0.3587174348697393,0.16451914983205979 0.3627254509018034,0.16607162896072974 0.36673346693386755,0.1691880014320324 0.3707414829659317,0.16886240418224907 0.3747494989979958,0.16676448945805833 0.37875751503005994,0.16579989224355468 0.3827655310621241,0.16332569805026886 0.3867735470941882,0.1636756140566334 0.39078156312625234,0.16629920917399688 0.3947895791583165,0.17024333156842525 0.3987975951903806,0.16879683224159503 0.40280561122244474,0.1720111331554559 0.40681362725450887,0.17107463138627366 0.410821643286573,0.1681175491333644 0.41482965931863713,0.16583215558678455 0.41883767535070127,0.1692466911123982 0.4228456913827654,0.16558693626110166 0.42685370741482953,0.16697724456430613 0.43086172344689366,0.16878297329338854 0.4348697394789578,0.17384873408625312 0.4388777555110219,0.17608158263746954 0.44288577154308606,0.17664771975618737 0.4468937875751502,0.17036123579607892 0.4509018036072143,0.17564279695915003 0.45490981963927846,0.17581087414438518 0.4589178356713426,0.1784816411223173 0.4629258517034067,0.17833008594506444 0.46693386773547085,0.1762547161877015 0.470941883767535,0.17889647787009216 0.4749498997995991,0.17240935252030593 0.47895791583166325,0.17348895522880314 0.4829659318637274,0.1782521086241639 0.4869739478957915,0.17993484053472547 0.49098196392785565,0.17913601061823248 0.4949899799599198,0.18003591657170986 0.4989979959919839,0.17999280583378408 0.503006012024048,0.17452492322285823 0.5070140280561122,0.17823068656585345 0.5110220440881763,0.17732580906064122 0.5150300601202404,0.17900529278029442 0.5190380761523046,0.18073502372959283 0.5230460921843687,0.1807512249401989 0.5270541082164328,0.18015338305033624 0.531062124248497,0.18093238698105357 0.5350701402805611,0.17995007491831527 0.539078156312625,0.17986859315523068 0.5430861723446891,0.17996141709209296 0.5470941883767533,0.1799807737424311 0.5511022044088174,0.17858350171141335 0.5551102204408815,0.17793884114930275 0.5591182364729457,0.17829353707199147 0.5631262525050098,0.17921214058384694 0.5671342685370739,0.17871987799953426 0.5711422845691381,0.17875914249765695 0.5751503006012022,0.1788767744575993 0.5791583166332663,0.1800004847812825 0.5831663326653305,0.18008619655430447 0.5871743486973946,0.1809517584591488 0.5911823647294587,0.18059328200894992 0.5951903807615229,0.180850366094983 0.599198396793587,0.1810170601362921 0.6032064128256511,0.18095460535168717 0.6072144288577153,0.18054639904413539 0.6112224448897794,0.17599260426903757 0.6152304609218435,0.1787379068812654 0.6192384769539077,0.18137162599781526 0.6232464929859718,0.18087790062657344 0.6272545090180359,0.17709893254137288 0.6312625250501,0.17986363635391045 0.6352705410821642,0.18106525134850432 0.6392785571142283,0.1818444051840084 0.6432865731462925,0.18184469765186728 0.6472945891783566,0.18137608187750826 0.6513026052104207,0.18163823470629653 0.6553106212424848,0.1813879783762825 0.659318637274549,0.1818020604593925 0.6633266533066131,0.181132488426829 0.6673346693386772,0.18164957339140503 0.6713426853707414,0.18137287865656548 0.6753507014028055,0.18115679487103437 0.6793587174348696,0.18049961019608401 0.6833667334669338,0.17924573374947045 0.6873747494989979,0.17962358371304166 0.691382765531062,0.1788338055668915 0.6953907815631262,0.17985501918405045 0.6993987975951903,0.17697871584005953 0.7034068136272544,0.17567895055390104 0.7074148296593186,0.17646161466538302 0.7114228456913827,0.17641705591974716 0.7154308617234468,0.17549458300423604 0.719438877755511,0.174589490191835 0.7234468937875751,0.17580835553690666 0.7274549098196392,0.1753815219935556 0.7314629258517034,0.17534008281065966 0.7354709418837675,0.17524102264333563 0.7394789579158316,0.17165784343326723 0.7434869739478958,0.17176909172364174 0.7474949899799597,0.1725024633960371 0.7515030060120238,0.174834277617317 0.7555110220440879,0.17585335586220718 0.7595190380761521,0.17515737418251748 0.7635270541082162,0.17166502221931718 0.7675350701402803,0.1707745530554433 0.7715430861723445,0.16858210982540123 0.7755511022044086,0.17164511837191454 0.7795591182364727,0.17644210557923357 0.7835671342685369,0.17893648095557035 0.787575150300601,0.1771600477775339 0.7915831663326651,0.1768173770243167 0.7955911823647293,0.1730020844843363 0.7995991983967934,0.17498574378372928 0.8036072144288575,0.17578027257072987 0.8076152304609217,0.17474971562042152 0.8116232464929858,0.1705269913567778 0.8156312625250499,0.17093714607660732 0.819639278557114,0.16672915368902663 0.8236472945891782,0.16706156809306716 0.8276553106212423,0.1679374333828021 0.8316633266533064,0.1652586281354853 0.8356713426853706,0.1619491084006323 0.8396793587174347,0.16193454622458026 0.8436873747494988,0.1628261290930707 0.847695390781563,0.15913732750565013 0.8517034068136271,0.15991736362172937 0.8557114228456912,0.16566309892941644 0.8597194388777554,0.1640126733574046 0.8637274549098195,0.15765290026153778 0.8677354709418836,0.16486573236444363 0.8717434869739478,0.16272020433585438 0.8757515030060119,0.1656738653406834 0.879759519038076,0.16250022693455668 0.8837675350701402,0.15745989405206406 0.8877755511022043,0.16099675156891047 0.8917835671342684,0.15547488357253803 0.8957915831663326,0.15790372417904736 0.8997995991983967,0.15698899985723658 0.9038076152304608,0.14954758804380658 0.907815631262525,0.14628361530891365 0.9118236472945891,0.15061135364439882 0.9158316633266532,0.15137965057596553 0.9198396793587174,0.15120370436601016 0.9238476953907815,0.16150870474818624 0.9278557114228456,0.1730093927828777 0.9318637274549098,0.16843229587587732 0.9358717434869739,0.16944916260308274 0.939879759519038,0.16804158437780264 0.9438877755511021,0.17663981494213732 0.9478957915831663,0.17497925778365347 0.9519038076152302,0.168693884393454 0.9559118236472943,0.16156552265414165 0.9599198396793585,0.15955331420072943 0.9639278557114226,0.16489026977750743 0.9679358717434867,0.159917336250757 0.9719438877755509,0.15928249113880394 0.975951903807615,0.15428450312772612 0.9799599198396791,0.1568983520082387 0.9839679358717432,0.15609952515930164 0.9879759519038074,0.15977156725459896 0.9919839679358715,0.1564535465663427 0.9959919839679356,0.16088903711787916 0.9999999999999998,0.16948241274521697" /></g><g /><g stroke-width="4.0e-3" stroke="#3764A0" fill="#FFFFFF" fill-opacity="1.0" stroke-opacity="0.5"><rect width="0.3881504204398447" height="0.25552060514099917" x="0.3884172897800776" y="8.996628921274516e-2" /></g><g stroke-width="0.0" stroke="none" fill="#666666" fill-opacity="1.0" font-size="4.000000000000001e-2" text-anchor="start"><text x="0.4110830077619664" y="0.2960701735481737">rate = 0.99</text></g><g stroke-width="5.0e-3" stroke="#382A8C" fill="none" stroke-opacity="0.5"><polyline points="0.70573734152652,0.28811528678435017 0.7510687774902974,0.28811528678435017" /></g><g stroke-width="0.0" stroke="none" fill="#666666" fill-opacity="1.0" font-size="4.000000000000001e-2" text-anchor="start"><text x="0.4110830077619664" y="0.22736887876969752">rate = 0.95</text></g><g stroke-width="5.0e-3" stroke="#3C7F2B" fill="none" stroke-opacity="0.5"><polyline points="0.70573734152652,0.219413992005874 0.7510687774902974,0.219413992005874" /></g><g stroke-width="0.0" stroke="none" fill="#666666" fill-opacity="1.0" font-size="4.000000000000001e-2" text-anchor="start"><text x="0.4110830077619664" y="0.15866758399122136">zero</text></g><g stroke-width="5.0e-3" stroke="#C58C4B" fill="none" stroke-opacity="0.5"><polyline points="0.70573734152652,0.15071269722739777 0.7510687774902974,0.15071269722739777" /></g><g /></svg>