<svg viewBox="-0.885728829736698 -0.6827499999999999 1.4154999999999998 1.5169379730590995" xmlns="http://www.w3.org/2000/svg" xmlns:xlink="http://www.w3.org/1999/xlink" version="1.1" width="600.0" height="400.0"><g stroke-width="0.0" stroke="none" fill="#000000" transform="translate(-0.830228829736698, 7.571898652954995e-2)" fill-opacity="1.0" font-size="6.0e-2" text-anchor="middle"><text transform="rotate(-90.0, 0.0, -0.0)" x="0.0" y="-0.0">actual</text></g><g stroke-width="0.0" stroke="none" fill="#000000" transform="translate(-0.13022882973669803, 0.8026879730590998)" fill-opacity="1.0" font-size="6.0e-2" text-anchor="middle"><text transform="rotate(0.0, 0.0, -0.0)" x="0.0" y="-0.0">forecast</text></g><g stroke-width="0.0" stroke="none" fill="#000000" transform="translate(-0.13022882973669808, -0.5717499999999999)" fill-opacity="1.0" font-size="0.12" text-anchor="middle"><text transform="rotate(0.0, 0.0, -0.0)" x="0.0" y="-0.0">forecast versus actual</text></g><g stroke-width="0.0" stroke="#000000" fill="#666666" fill-opacity="3.0e-2" stroke-opacity="0.0"><rect width="1.0" height="0.9999999999999999" x="-0.5" y="-0.4999999999999999" /></g><g stroke-width="5.0e-3" stroke="#A8E5EE" fill="none" stroke-opacity="0.3"><polyline points="-0.505,0.5 0.505,0.5" /></g><g stroke-width="5.0e-3" stroke="#A8E5EE" fill="none" stroke-opacity="0.3"><polyline points="-0.505,0.3888888888888889 0.505,0.3888888888888889" /></g><g stroke-width="5.0e-3" stroke="#A8E5EE" fill="none" stroke-opacity="0.3"><polyline points="-0.505,0.2777777777777778 0.505,0.2777777777777778" /></g><g stroke-width="5.0e-3" stroke="#A8E5EE" fill="none" stroke-opacity="0.3"><polyline points="-0.505,0.16666666666666674 0.505,0.16666666666666674" /></g><g stroke-width="5.0e-3" stroke="#A8E5EE" fill="none" stroke-opacity="0.3"><polyline points="-0.505,5.555555555555558e-2 0.505,5.555555555555558e-2" /></g><g stroke-width="5.0e-3" stroke="#A8E5EE" fill="none" stroke-opacity="0.3"><polyline points="-0.505,-5.555555555555547e-2 0.505,-5.555555555555547e-2" /></g><g stroke-width="5.0e-3" stroke="#A8E5EE" fill="none" stroke-opacity="0.3"><polyline points="-0.505,-0.16666666666666652 0.505,-0.16666666666666652" /></g><g stroke-width="5.0e-3" stroke="#A8E5EE" fill="none" stroke-opacity="0.3"><polyline points="-0.505,-0.2777777777777778 0.505,-0.2777777777777778" /></g><g stroke-width="5.0e-3" stroke="#A8E5EE" fill="none" stroke-opacity="0.3"><polyline points="-0.505,-0.38888888888888884 0.505,-0.38888888888888884" /></g><g stroke-width="5.0e-3" stroke="#A8E5EE" fill="none" stroke-opacity="0.3"><polyline points="-0.505,-0.4999999999999999 0.505,-0.4999999999999999" /></g><g stroke-width="0.0" stroke="none" fill="#666666" fill-opacity="1.0" font-size="5.0e-2" text-anchor="end"><text x="-0.6429576594733961" y="0.5145">-0.04</text></g><g stroke-width="0.0" stroke="none" fill="#666666" fill-opacity="1.0" font-size="5.0e-2" text-anchor="end"><text x="-0.6429576594733961" y="0.4033888888888889">-0.03</text></g><g stroke-width="0.0" stroke="none" fill="#666666" fill-opacity="1.0" font-size="5.0e-2" text-anchor="end"><text x="-0.6429576594733961" y="0.2922777777777778">-0.02</text></g><g stroke-width="0.0" stroke="none" fill="#666666" fill-opacity="1.0" font-size="5.0e-2" text-anchor="end"><text x="-0.6429576594733961" y="0.18116666666666675">-0.01</text></g><g stroke-width="0.0" stroke="none" fill="#666666" fill-opacity="1.0" font-size="5.0e-2" text-anchor="end"><text x="-0.6429576594733961" y="7.005555555555558e-2">0.00</text></g><g stroke-width="0.0" stroke="none" fill="#666666" fill-opacity="1.0" font-size="5.0e-2" text-anchor="end"><text x="-0.6429576594733961" y="-4.105555555555547e-2">0.01</text></g><g stroke-width="0.0" stroke="none" fill="#666666" fill-opacity="1.0" font-size="5.0e-2" text-anchor="end"><text x="-0.6429576594733961" y="-0.1521666666666665">0.02</text></g><g stroke-width="0.0" stroke="none" fill="#666666" fill-opacity="1.0" font-size="5.0e-2" text-anchor="end"><text x="-0.6429576594733961" y="-0.2632777777777778">0.03</text></g><g stroke-width="0.0" stroke="none" fill="#666666" fill-opacity="1.0" font-size="5.0e-2" text-anchor="end"><text x="-0.6429576594733961" y="-0.3743888888888888">0.04</text></g><g stroke-width="0.0" stroke="none" fill="#666666" fill-opacity="1.0" font-size="5.0e-2" text-anchor="end"><text x="-0.6429576594733961" y="-0.4854999999999999">0.05</text></g><g stroke-width="0.0" stroke="#2C429D" fill="#5F0391" fill-opacity="1.0" stroke-opacity="0.4"><line stroke-width="5.0e-3" transform="rotate(-90.0, -0.612882659473396, 0.5)" x1="-0.612882659473396" y1="0.515" x2="-0.612882659473396" y2="0.485" /><line stroke-width="5.0e-3" transform="rotate(-90.0, -0.612882659473396, 0.3888888888888889)" x1="-0.612882659473396" y1="0.4038888888888889" x2="-0.612882659473396" y2="0.3738888888888889" /><line stroke-width="5.0e-3" transform="rotate(-90.0, -0.612882659473396, 0.2777777777777778)" x1="-0.612882659473396" y1="0.2927777777777778" x2="-0.612882659473396" y2="0.2627777777777778" /><line stroke-width="5.0e-3" transform="rotate(-90.0, -0.612882659473396, 0.16666666666666674)" x1="-0.612882659473396" y1="0.18166666666666675" x2="-0.612882659473396" y2="0.15166666666666673" /><line stroke-width="5.0e-3" transform="rotate(-90.0, -0.612882659473396, 5.555555555555558e-2)" x1="-0.612882659473396" y1="7.055555555555558e-2" x2="-0.612882659473396" y2="4.055555555555558e-2" /><line stroke-width="5.0e-3" transform="rotate(-90.0, -0.612882659473396, -5.555555555555547e-2)" x1="-0.612882659473396" y1="-4.055555555555547e-2" x2="-0.612882659473396" y2="-7.055555555555547e-2" /><line stroke-width="5.0e-3" transform="rotate(-90.0, -0.612882659473396, -0.16666666666666652)" x1="-0.612882659473396" y1="-0.1516666666666665" x2="-0.612882659473396" y2="-0.18166666666666653" /><line stroke-width="5.0e-3" transform="rotate(-90.0, -0.612882659473396, -0.2777777777777778)" x1="-0.612882659473396" y1="-0.2627777777777778" x2="-0.612882659473396" y2="-0.2927777777777778" /><line stroke-width="5.0e-3" transform="rotate(-90.0, -0.612882659473396, -0.38888888888888884)" x1="-0.612882659473396" y1="-0.3738888888888888" x2="-0.612882659473396" y2="-0.40388888888888885" /><line stroke-width="5.0e-3" transform="rotate(-90.0, -0.612882659473396, -0.4999999999999999)" x1="-0.612882659473396" y1="-0.4849999999999999" x2="-0.612882659473396" y2="-0.5149999999999999" /></g><g stroke-width="0.0" stroke="#666666" fill="#5F0391" fill-opacity="0.5" stroke-opacity="0.0"><rect width="5.0000000000000044e-3" height="0.9999999999999999" x="-0.602882659473396" y="-0.4999999999999999" /></g><g stroke-width="5.0e-3" stroke="#A8E5EE" fill="none" stroke-opacity="0.3"><polyline points="-0.5,0.505 -0.5,-0.5049999999999999" /></g><g stroke-width="5.0e-3" stroke="#A8E5EE" fill="none" stroke-opacity="0.3"><polyline points="-0.33333333333333337,0.505 -0.33333333333333337,-0.5049999999999999" /></g><g stroke-width="5.0e-3" stroke="#A8E5EE" fill="none" stroke-opacity="0.3"><polyline points="-0.16666666666666669,0.505 -0.16666666666666669,-0.5049999999999999" /></g><g stroke-width="5.0e-3" stroke="#A8E5EE" fill="none" stroke-opacity="0.3"><polyline points="0.0,0.505 0.0,-0.5049999999999999" /></g><g stroke-width="5.0e-3" stroke="#A8E5EE" fill="none" stroke-opacity="0.3"><polyline points="0.16666666666666663,0.505 0.16666666666666663,-0.5049999999999999" /></g><g stroke-width="5.0e-3" stroke="#A8E5EE" fill="none" stroke-opacity="0.3"><polyline points="0.33333333333333337,0.505 0.33333333333333337,-0.5049999999999999" /></g><g stroke-width="5.0e-3" stroke="#A8E5EE" fill="none" stroke-opacity="0.3"><polyline points="0.5,0.505 0.5,-0.5049999999999999" /></g><g stroke-width="0.0" stroke="none" fill="#666666" fill-opacity="1.0" font-size="4.1776419806619516e-2" text-anchor="end"><text transform="rotate(-45.0, -0.5, 0.6002879043597992)" x="-0.5" y="0.6002879043597992">-1.5e-3</text></g><g stroke-width="0.0" stroke="none" fill="#666666" fill-opacity="1.0" font-size="4.1776419806619516e-2" text-anchor="end"><text transform="rotate(-45.0, -0.33333333333333337, 0.6002879043597992)" x="-0.33333333333333337" y="0.6002879043597992">-1.0e-3</text></g><g stroke-width="0.0" stroke="none" fill="#666666" fill-opacity="1.0" font-size="4.1776419806619516e-2" text-anchor="end"><text transform="rotate(-45.0, -0.16666666666666669, 0.6002879043597992)" x="-0.16666666666666669" y="0.6002879043597992">-5.0e-4</text></g><g stroke-width="0.0" stroke="none" fill="#666666" fill-opacity="1.0" font-size="4.1776419806619516e-2" text-anchor="end"><text transform="rotate(-45.0, 0.0, 0.6002879043597992)" x="0.0" y="0.6002879043597992">0.0e0</text></g><g stroke-width="0.0" stroke="none" fill="#666666" fill-opacity="1.0" font-size="4.1776419806619516e-2" text-anchor="end"><text transform="rotate(-45.0, 0.16666666666666663, 0.6002879043597992)" x="0.16666666666666663" y="0.6002879043597992">5.0e-4</text></g><g stroke-width="0.0" stroke="none" fill="#666666" fill-opacity="1.0" font-size="4.1776419806619516e-2" text-anchor="end"><text transform="rotate(-45.0, 0.33333333333333337, 0.6002879043597992)" x="0.33333333333333337" y="0.6002879043597992">1.0e-3</text></g><g stroke-width="0.0" stroke="none" fill="#666666" fill-opacity="1.0" font-size="4.1776419806619516e-2" text-anchor="end"><text transform="rotate(-45.0, 0.5, 0.6002879043597992)" x="0.5" y="0.6002879043597992">1.5e-3</text></g><g stroke-width="0.0" stroke="#2C429D" fill="#5F0391" fill-opacity="1.0" stroke-opacity="0.4"><line stroke-width="5.0e-3" x1="-0.5" y1="0.54" x2="-0.5" y2="0.51" /><line stroke-width="5.0e-3" x1="-0.33333333333333337" y1="0.54" x2="-0.33333333333333337" y2="0.51" /><line stroke-width="5.0e-3" x1="-0.16666666666666669" y1="0.54" x2="-0.16666666666666669" y2="0.51" /><line stroke-width="5.0e-3" y1="0.54" y2="0.51" /><line stroke-width="5.0e-3" x1="0.16666666666666663" y1="0.54" x2="0.16666666666666663" y2="0.51" /><line stroke-width="5.0e-3" x1="0.33333333333333337" y1="0.54" x2="0.33333333333333337" y2="0.51" /><line stroke-width="5.0e-3" x1="0.5" y1="0.54" x2="0.5" y2="0.51" /></g><g stroke-width="0.0" stroke="#666666" fill="#5F0391" fill-opacity="0.5" stroke-opacity="0.0"><rect width="1.0" height="5.0000000000000044e-3" x="-0.5" y="0.51" /></g><g stroke-width="3.0e-3" stroke="#2C429D" fill="#D99721" fill-opacity="0.3" stroke-opacity="0.0"><rect width="2.0000000000000018e-2" height="2.0000000000000018e-2" x="0.21376059610274234" y="0.1876451878376793" /><rect width="2.0000000000000018e-2" height="2.0000000000000018e-2" x="0.17428603171399004" y="0.16953135915717554" /><rect width="2.0000000000000018e-2" height="2.0000000000000018e-2" x="0.12758906483499288" y="0.19459936889665896" /><rect width="2.0000000000000018e-2" height="2.0e-2" x="0.14339360061505213" y="-1.0651119013664214e-2" /><rect width="2.0000000000000018e-2" height="1.9999999999999997e-2" x="0.1786103972572921" y="-7.635064812282298e-2" /><rect width="2.0000000000000018e-2" height="2.0000000000000004e-2" x="0.18538789063945582" y="1.6272595840818922e-2" /><rect width="2.0000000000000018e-2" height="1.9999999999999997e-2" x="0.18176447718034217" y="5.093289443750316e-2" /><rect width="2.0000000000000018e-2" height="2.0000000000000004e-2" x="0.194790784606915" y="-3.92332092394059e-3" /><rect width="2.0000000000000018e-2" height="2.0000000000000018e-2" x="0.25045637600211357" y="-0.14588243043750326" /><rect width="2.0000000000000018e-2" height="1.9999999999999997e-2" x="0.2432940618483035" y="5.9717911093797434e-2" /><rect width="2.0000000000000018e-2" height="2.0000000000000004e-2" x="0.21936794567173623" y="0.11648732603170082" /><rect width="2.0000000000000018e-2" height="2.0000000000000004e-2" x="0.1979241669346412" y="0.10934418412752052" /><rect width="2.0000000000000018e-2" height="1.9999999999999997e-2" x="0.19331291015871566" y="5.424762068346085e-2" /><rect width="2.0000000000000018e-2" height="2.0000000000000004e-2" x="0.19699753075657567" y="2.6644741832711545e-2" /><rect width="2.0000000000000018e-2" height="2.0000000000000018e-2" x="0.14692583980701457" y="0.2045097833369371" /><rect width="2.0000000000000018e-2" height="2.0000000000000004e-2" x="0.15054002168400926" y="2.9104993330792313e-2" /><rect width="2.0000000000000018e-2" height="1.999999999999999e-2" x="0.14271761745957223" y="6.606287312404292e-2" /><rect width="1.9999999999999997e-2" height="2.0000000000000018e-2" x="5.569714526538639e-2" y="0.32871834296390773" /><rect width="2.0000000000000004e-2" height="2.0000000000000018e-2" x="-1.5950948223878485e-2" y="0.2809983335107535" /><rect width="1.999999999999999e-2" height="2.0000000000000018e-2" x="7.452090076422647e-2" y="-0.252161787013613" /><rect width="2.0000000000000004e-2" height="2.0000000000000018e-2" x="1.4781453577468193e-2" y="0.23918715070302943" /><rect width="2.0000000000000004e-2" height="1.999999999999999e-2" x="4.86943481980485e-3" y="7.801182096603278e-2" /><rect width="1.9999999999999997e-2" height="1.999999999999999e-2" x="5.0762878926951645e-2" y="-0.10639568282700994" /><rect width="2.0000000000000004e-2" height="2.0000000000000018e-2" x="-2.592817892285803e-2" y="0.29655910596598234" /><rect width="2.0000000000000004e-2" height="1.999999999999999e-2" x="1.661431796146829e-2" y="-9.372899905080088e-2" /><rect width="1.9999999999999997e-2" height="1.9999999999999997e-2" x="5.487302649749371e-2" y="-8.222347348504576e-2" /><rect width="1.999999999999999e-2" height="2.0000000000000004e-2" x="7.703884399113471e-2" y="-3.043853559161768e-2" /><rect width="2.0000000000000004e-2" height="2.0000000000000018e-2" x="1.6840731618003122e-3" y="0.29181974387556564" /><rect width="2.0000000000000004e-2" height="2.0000000000000004e-2" x="1.2986756701233624e-2" y="8.547334844075946e-3" /><rect width="1.999999999999999e-2" height="2.0000000000000004e-2" x="6.845014315095944e-2" y="-0.1387607376556279" /><rect width="1.9999999999999997e-2" height="2.0000000000000004e-2" x="4.884944989389051e-2" y="0.10711627293468835" /><rect width="1.999999999999999e-2" height="2.0000000000000004e-2" x="7.590387716215043e-2" y="-4.5741790997775526e-2" /><rect width="1.999999999999999e-2" height="1.999999999999999e-2" x="6.523367376705315e-2" y="7.767431776016089e-2" /><rect width="1.999999999999999e-2" height="2.0000000000000004e-2" x="9.160637563274023e-2" y="-4.418030119387938e-2" /><rect width="2.0000000000000018e-2" height="1.9999999999999997e-2" x="0.1260191209413627" y="-7.227829378285631e-2" /><rect width="2.0000000000000018e-2" height="2.0000000000000004e-2" x="0.12728006048597607" y="3.632090947017747e-2" /><rect width="2.0000000000000004e-2" height="2.0000000000000004e-2" x="0.10665450519602916" y="0.10936129049958106" /><rect width="1.999999999999999e-2" height="2.0000000000000018e-2" x="7.68419029452433e-2" y="0.1408127643707487" /><rect width="1.999999999999999e-2" height="1.9999999999999997e-2" x="7.628035485438146e-2" y="4.49317373778424e-2" /><rect width="2.0000000000000004e-2" height="2.0000000000000018e-2" x="3.0248003717426537e-2" y="0.19523058398393944" /><rect width="2.0000000000000004e-2" height="2.0000000000000004e-2" x="3.6165598497405645e-2" y="2.5164212365329182e-2" /><rect width="1.999999999999999e-2" height="1.9999999999999997e-2" x="7.050066324746775e-2" y="-6.977843017837858e-2" /><rect width="1.999999999999999e-2" height="2.0000000000000004e-2" x="7.328181871309193e-2" y="3.31877994082277e-2" /><rect width="1.9999999999999997e-2" height="2.0000000000000018e-2" x="4.487468682879859e-2" y="0.13690110111271486" /><rect width="1.9999999999999997e-2" height="2.0000000000000004e-2" x="5.296747856007323e-2" y="1.7270061090559126e-2" /><rect width="2.0000000000000004e-2" height="2.0000000000000018e-2" x="2.805317706921085e-2" y="0.12590948269177843" /><rect width="2.0000000000000004e-2" height="1.999999999999999e-2" x="2.0189057946206963e-2" y="7.062519518996531e-2" /><rect width="1.999999999999999e-2" height="1.999999999999999e-2" x="6.261489535412325e-2" y="-9.588511547488042e-2" /><rect width="1.999999999999999e-2" height="2.0000000000000004e-2" x="7.328239956125505e-2" y="7.1991849443155485e-3" /><rect width="1.999999999999999e-2" height="1.9999999999999997e-2" x="7.151031686877397e-2" y="4.850710508451845e-2" /><rect width="1.999999999999999e-2" height="2.0000000000000004e-2" x="0.1029758669732518" y="-6.150609835606157e-2" /><rect width="2.0000000000000018e-2" height="2.0000000000000004e-2" x="0.1329293796303197" y="-5.807793978238817e-2" /><rect width="2.0000000000000018e-2" height="2.0000000000000004e-2" x="0.13706736296346123" y="2.6597603105306185e-2" /><rect width="2.0000000000000018e-2" height="2.0000000000000004e-2" x="0.1385267224022697" y="3.5743247765212045e-2" /><rect width="2.0000000000000004e-2" height="2.0000000000000004e-2" x="0.11405078663226244" y="0.1218397520936514" /><rect width="2.0000000000000018e-2" height="2.0000000000000004e-2" x="0.12647856083490938" y="5.307693923999966e-4" /><rect width="2.0000000000000004e-2" height="1.9999999999999997e-2" x="0.12218672948804755" y="5.506877397713051e-2" /><rect width="2.0000000000000004e-2" height="1.999999999999999e-2" x="0.11205773460479164" y="7.484052688108052e-2" /><rect width="2.0000000000000018e-2" height="2.0000000000000004e-2" x="0.13550806919074665" y="-3.6216717463810826e-2" /><rect width="2.0000000000000004e-2" height="1.999999999999999e-2" x="0.1234310601028903" y="8.045093139790456e-2" /><rect width="2.0000000000000018e-2" height="2.0000000000000004e-2" x="0.13299803183643089" y="9.521316712731218e-3" /><rect width="2.0000000000000004e-2" height="1.999999999999999e-2" x="0.124742809398409" y="6.805789072767489e-2" /><rect width="2.0000000000000004e-2" height="1.999999999999999e-2" x="0.11553093080250011" y="7.177777597901448e-2" /><rect width="1.999999999999999e-2" height="2.0000000000000018e-2" x="7.538781657908568e-2" y="0.1747942211885556" /><rect width="2.0000000000000004e-2" height="1.999999999999999e-2" x="0.11692965548574043" y="-9.461814579164739e-2" /><rect width="1.999999999999999e-2" height="2.0000000000000004e-2" x="9.237024858049782e-2" y="0.12225708851709939" /><rect width="2.0000000000000018e-2" height="1.9999999999999997e-2" x="0.12755810196012374" y="-7.434025031141432e-2" /><rect width="2.0000000000000018e-2" height="2.0000000000000004e-2" x="0.14096848007900653" y="-4.1073123214914655e-3" /><rect width="2.0000000000000018e-2" height="2.0000000000000004e-2" x="0.14174011135431974" y="3.7751288072449825e-2" /><rect width="2.0000000000000018e-2" height="2.0000000000000004e-2" x="0.16874608060576624" y="-4.923136015122941e-2" /><rect width="2.0000000000000018e-2" height="1.9999999999999997e-2" x="0.16443786653303272" y="5.349279289994497e-2" /><rect width="2.0000000000000018e-2" height="2.0000000000000004e-2" x="0.17314490097622015" y="1.087788316885747e-2" /><rect width="2.0000000000000018e-2" height="2.0000000000000004e-2" x="0.1748393006625164" y="3.368713730776591e-2" /><rect width="2.0000000000000018e-2" height="2.0000000000000004e-2" x="0.1788019777305624" y="2.620154816718357e-2" /><rect width="2.0000000000000018e-2" height="1.999999999999999e-2" x="0.16339870982256743" y="9.037996484504097e-2" /><rect width="2.0000000000000018e-2" height="2.0000000000000004e-2" x="0.16998510315032678" y="1.8128496180587268e-2" /><rect width="2.0000000000000018e-2" height="1.9999999999999997e-2" x="0.16474664736787603" y="5.6862060111712805e-2" /><rect width="2.0000000000000018e-2" height="1.999999999999999e-2" x="0.15590132131116097" y="6.920422259423283e-2" /><rect width="2.0000000000000018e-2" height="1.999999999999999e-2" x="0.14079863554628902" y="9.034998756023445e-2" /><rect width="2.0000000000000018e-2" height="2.0000000000000004e-2" x="0.14507589465558213" y="2.6548526302580262e-2" /><rect width="2.0000000000000004e-2" height="2.0000000000000004e-2" x="0.12221681168103883" y="0.11628497627232277" /><rect width="2.0000000000000018e-2" height="2.0000000000000004e-2" x="0.12721477041517382" y="2.488754467278593e-2" /><rect width="1.999999999999999e-2" height="2.0000000000000018e-2" x="7.96037163859963e-2" y="0.1991062929961765" /><rect width="1.999999999999999e-2" height="2.0000000000000004e-2" x="8.6274472346782e-2" y="2.108899366689227e-2" /><rect width="1.9999999999999997e-2" height="2.0000000000000018e-2" x="5.636904242659791e-2" y="0.14157197730118132" /><rect width="1.999999999999999e-2" height="2.0000000000000004e-2" x="7.643785012667371e-2" y="-2.2883689861735494e-2" /><rect width="1.999999999999999e-2" height="2.0000000000000004e-2" x="7.80222765580917e-2" y="3.7131447965038485e-2" /><rect width="1.999999999999999e-2" height="2.0000000000000004e-2" x="8.737903707652751e-2" y="1.1519579163582436e-2" /><rect width="1.999999999999999e-2" height="1.999999999999999e-2" x="6.977211021053321e-2" y="0.10066165517073845" /><rect width="1.999999999999999e-2" height="2.0000000000000004e-2" x="9.77594555082948e-2" y="-4.9819122754509164e-2" /><rect width="2.0000000000000004e-2" height="2.0000000000000004e-2" x="0.12479256204260271" y="-4.828354451730132e-2" /><rect width="2.0000000000000018e-2" height="2.0000000000000004e-2" x="0.15267804868389567" y="-5.204763969706005e-2" /><rect width="2.0000000000000018e-2" height="2.0000000000000004e-2" x="0.16250512730782396" y="7.029972406040317e-3" /><rect width="2.0000000000000018e-2" height="2.0000000000000004e-2" x="0.13693513530197532" y="0.12465978193554685" /><rect width="2.0000000000000018e-2" height="2.0000000000000004e-2" x="0.16469287774595964" y="-5.12314787237853e-2" /><rect width="2.0000000000000018e-2" height="2.0000000000000004e-2" x="0.1664179238123078" y="3.3569644158456265e-2" /><rect width="2.0000000000000018e-2" height="1.9999999999999997e-2" x="0.16120286678713203" y="5.6984928483700466e-2" /><rect width="2.0000000000000018e-2" height="2.0000000000000004e-2" x="0.17276377845531898" y="1.49139631644408e-3" /><rect width="2.0000000000000018e-2" height="2.0000000000000004e-2" x="0.17809044427546328" y="2.157555527896566e-2" /><rect width="2.0000000000000018e-2" height="1.999999999999999e-2" x="0.16294365088772456" y="8.956406306399091e-2" /><rect width="2.0000000000000018e-2" height="1.9999999999999997e-2" x="0.1581094398004328" y="5.609919834440231e-2" /><rect width="2.0000000000000018e-2" height="2.0000000000000004e-2" x="0.16258320346509592" y="2.5151840356110684e-2" /><rect width="2.0000000000000018e-2" height="2.0e-2" x="0.1767694834861563" y="-7.4387733258047175e-3" /><rect width="2.0000000000000018e-2" height="2.0000000000000004e-2" x="0.20510832972551973" y="-5.5115468405856786e-2" /><rect width="2.0000000000000018e-2" height="1.999999999999999e-2" x="0.19267410499507576" y="7.929757547580397e-2" /><rect width="2.0000000000000018e-2" height="2.0000000000000004e-2" x="0.1686978969923416" y="0.1187088795403738" /><rect width="2.0000000000000018e-2" height="2.0000000000000004e-2" x="0.14773780884447585" y="0.10967552439492069" /><rect width="2.0000000000000018e-2" height="2.0e-2" x="0.16253498895538077" y="-8.585895979045957e-3" /><rect width="2.0000000000000018e-2" height="1.9999999999999997e-2" x="0.15725970899460928" y="5.7120378434384673e-2" /><rect width="2.0000000000000018e-2" height="2.0e-2" x="0.17202562325681792" y="-9.047669836998331e-3" /><rect width="2.0000000000000018e-2" height="2.0e-2" x="0.18561270925893936" y="-5.9270543327541916e-3" /><rect width="2.0000000000000018e-2" height="2.0000000000000004e-2" x="0.19539012920295096" y="6.311184181049709e-3" /><rect width="2.0000000000000018e-2" height="2.0000000000000004e-2" x="0.2027099613398835" y="1.4219900834775432e-2" /><rect width="2.0000000000000018e-2" height="1.9999999999999997e-2" x="0.19966758467332157" y="4.8470928523085495e-2" /><rect width="2.0000000000000018e-2" height="1.9999999999999997e-2" x="0.19275896853691277" y="6.158558730432296e-2" /><rect width="2.0000000000000018e-2" height="2.0000000000000004e-2" x="0.16690742876767906" y="0.12488061509029437" /><rect width="2.0000000000000018e-2" height="1.999999999999999e-2" x="0.15184699027193016" y="9.015631873363801e-2" /><rect width="2.0000000000000018e-2" height="2.0000000000000004e-2" x="0.17156965138714753" y="-2.5209178678755488e-2" /><rect width="2.0000000000000018e-2" height="2.0000000000000018e-2" x="0.14416920853927562" y="0.1303452074396268" /><rect width="2.0000000000000018e-2" height="2.0000000000000004e-2" x="0.1690990903167331" y="-4.208954759248406e-2" /><rect width="2.0000000000000018e-2" height="2.0000000000000004e-2" x="0.1782700083469051" y="8.692752349027342e-3" /><rect width="2.0000000000000018e-2" height="2.0000000000000004e-2" x="0.18444058132638963" y="1.8610179752511787e-2" /><rect width="2.0000000000000018e-2" height="2.0000000000000004e-2" x="0.18936580067959297" y="2.2595516631793718e-2" /><rect width="2.0000000000000018e-2" height="1.9999999999999997e-2" x="0.18601498077834278" y="4.9980072836695706e-2" /><rect width="2.0000000000000018e-2" height="1.999999999999999e-2" x="0.1784124008949164" y="6.436312241285759e-2" /><rect width="2.0000000000000018e-2" height="2.0000000000000004e-2" x="0.19720008869960692" y="-2.310696919075394e-2" /><rect width="2.0000000000000018e-2" height="2.0000000000000004e-2" x="0.22056434656061707" y="-3.934585391530842e-2" /><rect width="2.0000000000000018e-2" height="1.9999999999999997e-2" x="0.2190501453820658" y="4.256315512077869e-2" /><rect width="2.0000000000000018e-2" height="2.0000000000000004e-2" x="0.23575816585706955" y="-1.7613201404722438e-2" /><rect width="2.0000000000000018e-2" height="1.999999999999999e-2" x="0.2183837246982704" y="9.488967449754794e-2" /><rect width="2.0000000000000018e-2" height="1.9999999999999997e-2" x="0.21661988826283463" y="4.406196867960633e-2" /><rect width="2.0000000000000018e-2" height="1.999999999999999e-2" x="0.2088252135977542" y="6.395193563107439e-2" /><rect width="2.0000000000000018e-2" height="1.999999999999999e-2" x="0.1972908024965312" y="7.674501412071812e-2" /><rect width="2.0000000000000018e-2" height="1.999999999999999e-2" x="0.18304657590980689" y="8.621091751669953e-2" /><rect width="2.0000000000000018e-2" height="1.999999999999999e-2" x="0.17377955616319063" y="7.017569179374107e-2" /><rect width="2.0000000000000018e-2" height="2.0000000000000004e-2" x="0.17831314148171074" y="2.448903292984695e-2" /><rect width="2.0000000000000018e-2" height="2.0000000000000004e-2" x="0.18887064162372158" y="4.079473312853641e-3" /><rect width="2.0000000000000018e-2" height="2.0000000000000004e-2" x="0.18802044019625153" y="4.15928665614464e-2" /><rect width="2.0000000000000018e-2" height="2.0e-2" x="0.20363329038252842" y="-1.2981145808492625e-2" /><rect width="2.0000000000000018e-2" height="2.0000000000000004e-2" x="0.2023421064011881" y="4.2494516174927395e-2" /><rect width="2.0000000000000018e-2" height="2.0000000000000004e-2" x="0.1815685696828776" y="0.10761369069831435" /><rect width="2.0000000000000018e-2" height="2.0e-2" x="0.1976251787307678" y="-1.3939372768394178e-2" /><rect width="2.0000000000000018e-2" height="2.0000000000000004e-2" x="0.19965473989972782" y="3.163856828060369e-2" /><rect width="2.0000000000000018e-2" height="2.0000000000000004e-2" x="0.22362682836653736" y="-4.122165188422577e-2" /><rect width="2.0000000000000018e-2" height="1.9999999999999997e-2" x="0.21994955338588706" y="4.9650212320494165e-2" /><rect width="2.0000000000000018e-2" height="1.999999999999999e-2" x="0.20589767922710256" y="8.468723208082087e-2" /><rect width="2.0000000000000018e-2" height="1.9999999999999997e-2" x="0.19943736082618713" y="6.0066338317546715e-2" /><rect width="2.0000000000000018e-2" height="1.999999999999999e-2" x="0.18636836964787107" y="8.216310923383836e-2" /><rect width="2.0000000000000018e-2" height="2.0000000000000004e-2" x="0.19367510196406756" y="1.4895382391206644e-2" /><rect width="2.0000000000000018e-2" height="1.9999999999999997e-2" x="0.1915787962497436" y="4.563158491268566e-2" /><rect width="2.0000000000000018e-2" height="2.0000000000000004e-2" x="0.2017037779147336" y="5.172709698804243e-3" /><rect width="2.0000000000000018e-2" height="1.9999999999999997e-2" x="0.19821235961191042" y="4.9963650138874334e-2" /><rect width="2.0000000000000018e-2" height="2.0000000000000004e-2" x="0.19851735952314187" y="3.76527154005415e-2" /><rect width="2.0000000000000018e-2" height="2.0000000000000018e-2" x="0.1690422978151963" y="0.1366994055956101" /><rect width="2.0000000000000018e-2" height="2.0000000000000004e-2" x="0.1488826636018603" y="0.10714823511211453" /><rect width="2.0000000000000018e-2" height="1.9999999999999997e-2" x="0.14606603922781192" y="4.994717711870284e-2" /><rect width="2.0000000000000018e-2" height="1.9999999999999997e-2" x="0.1397795359229933" y="6.1321107601476695e-2" /><rect width="2.0000000000000004e-2" height="2.0000000000000018e-2" x="2.6723069854118882e-2" y="0.41684521085193615" /><rect width="2.0000000000000004e-2" height="2.0000000000000018e-2" x="-4.2922109072941354e-2" y="0.2765300717239992" /><rect width="2.0000000000000004e-2" height="1.999999999999999e-2" x="4.8862125457187575e-3" y="-0.11117651783820491" /><rect width="2.0e-2" height="2.0000000000000004e-2" x="-1.5242392253848816e-2" y="0.11135868997878597" /><rect width="1.9999999999999997e-2" height="2.0000000000000018e-2" x="5.6127729103575115e-2" y="-0.1907506244556142" /><rect width="1.9999999999999997e-2" height="1.9999999999999997e-2" x="5.434173991894598e-2" y="4.836087869330092e-2" /><rect width="2.0000000000000004e-2" height="2.0000000000000018e-2" x="5.2291884373825235e-3" y="0.2066260918299493" /><rect width="2.0000000000000004e-2" height="1.9999999999999997e-2" x="4.016310891360795e-3" y="4.9570849849438166e-2" /><rect width="2.0e-2" height="1.999999999999999e-2" x="-1.0550131029446843e-2" y="9.34306382997346e-2" /><rect width="2.0000000000000004e-2" height="2.0000000000000004e-2" x="-2.9026100687510707e-2" y="0.10696738015300096" /><rect width="2.0000000000000004e-2" height="2.0000000000000018e-2" x="-0.13391338172882472" y="0.39389461495998934" /><rect width="1.9999999999999997e-2" height="2.0000000000000018e-2" x="-7.051367046918687e-2" y="-0.15948021860151873" /><rect width="2.0000000000000004e-2" height="2.0000000000000018e-2" x="-0.1286885650873717" y="0.23976420784887853" /><rect width="2.0000000000000018e-2" height="2.0000000000000004e-2" x="-0.14963239653793725" y="0.11868130131220923" /><rect width="1.999999999999999e-2" height="2.0000000000000004e-2" x="-9.584291092501211e-2" y="-0.1271677975041121" /><rect width="2.0000000000000004e-2" height="1.9999999999999997e-2" x="-5.880806943991939e-2" y="-7.436584578310156e-2" /><rect width="2.0000000000000004e-2" height="1.9999999999999997e-2" x="-2.3205177599261266e-2" y="-7.113890878677741e-2" /><rect width="2.0000000000000004e-2" height="2.0000000000000004e-2" x="-4.439187223626156e-2" y="0.11596169384492551" /><rect width="2.0000000000000004e-2" height="2.0000000000000004e-2" x="-2.5286965579368152e-2" y="-1.649527204335332e-2" /><rect width="2.0000000000000004e-2" height="2.0000000000000004e-2" x="-4.31025666256645e-3" y="-2.3775344239376876e-2" /><rect width="1.999999999999999e-2" height="2.0000000000000018e-2" x="6.571550312748943e-2" y="-0.18763257000109135" /><rect width="1.9999999999999997e-2" height="1.999999999999999e-2" x="5.627263344321077e-2" y="7.34648243660755e-2" /><rect width="2.0000000000000004e-2" height="2.0000000000000018e-2" x="2.478536474860627e-2" y="0.1482390943227257" /><rect width="2.0000000000000004e-2" height="2.0000000000000018e-2" x="-4.193753252916831e-2" y="0.26664493771692765" /><rect width="2.0000000000000004e-2" height="1.9999999999999997e-2" x="-4.638331197215811e-2" y="6.203558832565243e-2" /><rect width="1.9999999999999997e-2" height="2.0000000000000018e-2" x="-7.143706577541724e-2" y="0.12995697629863" /><rect width="2.0000000000000004e-2" height="1.9999999999999997e-2" x="-3.545754154426877e-2" y="-7.153168204835579e-2" /><rect width="2.0000000000000004e-2" height="2.0000000000000004e-2" x="-2.7882899228606532e-2" y="2.087865620129737e-2" /><rect width="1.999999999999999e-2" height="2.0000000000000018e-2" x="-8.387802211710098e-2" y="0.23203301711572516" /><rect width="2.0000000000000004e-2" height="2.0000000000000018e-2" x="-0.1444081200242605" y="0.2490886652494788" /><rect width="2.0000000000000004e-2" height="2.0000000000000004e-2" x="-0.13278670311209562" y="1.1794936442161017e-2" /><rect width="2.0000000000000018e-2" height="2.0000000000000004e-2" x="-0.15364821326154382" y="0.11862581716000971" /><rect width="1.999999999999999e-2" height="2.0000000000000004e-2" x="-0.10039362727998834" y="-0.12569728593075324" /><rect width="1.999999999999999e-2" height="2.0000000000000004e-2" x="-8.86816585603125e-2" y="9.37215511978918e-3" /><rect width="2.0e-2" height="2.0000000000000018e-2" x="-1.187126446989494e-2" y="-0.20682062953643388" /><rect width="2.0000000000000004e-2" height="1.999999999999999e-2" x="-1.9436630972783968e-2" y="6.98360607369445e-2" /><rect width="2.0000000000000004e-2" height="2.0000000000000004e-2" x="7.87371641724389e-3" y="-4.486049412438319e-2" /><rect width="1.9999999999999997e-2" height="1.9999999999999997e-2" x="4.392460553696043e-2" y="-7.535526929231116e-2" /><rect width="1.9999999999999997e-2" height="2.0000000000000018e-2" x="-6.659902155873242e-2" y="0.4111087866541392" /><rect width="1.9999999999999997e-2" height="1.9999999999999997e-2" x="-7.077813026134415e-2" y="6.24855765820393e-2" /><rect width="2.0000000000000018e-2" height="2.0000000000000018e-2" x="-0.1491075486855612" y="0.30773460793007335" /><rect width="2.0000000000000004e-2" height="2.0000000000000004e-2" x="-0.14166311520369923" y="2.599611315824408e-2" /><rect width="2.0000000000000004e-2" height="1.9999999999999997e-2" x="-0.14154786241285955" y="4.951543036498191e-2" /><rect width="1.999999999999999e-2" height="2.0e-2" x="-0.122106349933487" y="-1.4497926386504925e-2" /><rect width="1.999999999999999e-2" height="1.9999999999999997e-2" x="-0.12169476362798513" y="4.777660169778775e-2" /><rect width="2.0000000000000018e-2" height="2.0000000000000018e-2" x="-0.1851327741551781" y="0.2596780177560568" /><rect width="2.0000000000000018e-2" height="2.0000000000000018e-2" x="-0.25378084216380076" y="0.278802974548935" /><rect width="2.0000000000000018e-2" height="1.9999999999999997e-2" x="-0.25105928911588266" y="4.459793129163148e-2" /><rect width="2.0000000000000018e-2" height="2.0000000000000018e-2" x="-0.3008594784869621" y="0.21794781212885012" /><rect width="2.0000000000000018e-2" height="2.0000000000000018e-2" x="-0.3516505682185329" y="0.22219784037011808" /><rect width="2.0000000000000018e-2" height="2.0000000000000018e-2" x="-0.4187046970180659" y="0.27670079526265257" /><rect width="1.9999999999999962e-2" height="2.0000000000000018e-2" x="-0.508096811993305" y="0.3509611757723079" /><rect width="2.0000000000000018e-2" height="2.0000000000000018e-2" x="-0.3381041360608889" y="-0.4922490950901587" /><rect width="2.0000000000000018e-2" height="2.0000000000000004e-2" x="-0.30591159403726587" y="-4.918475277931133e-2" /><rect width="2.0000000000000018e-2" height="1.9999999999999997e-2" x="-0.3071026557766422" y="5.935840293864026e-2" /><rect width="2.0000000000000018e-2" height="2.0000000000000004e-2" x="-0.275658597201353" y="-4.8405878942170515e-2" /><rect width="2.0000000000000018e-2" height="2.0000000000000004e-2" x="-0.26874363596723383" y="3.146928116011722e-2" /><rect width="2.0000000000000018e-2" height="2.0000000000000018e-2" x="-0.3503003801420198" y="0.32408964630372294" /><rect width="2.0000000000000018e-2" height="2.0000000000000018e-2" x="-0.23327387263250476" y="-0.32954233836538993" /><rect width="2.0000000000000018e-2" height="2.0000000000000004e-2" x="-0.20784335114401026" y="-3.2069374718793e-2" /><rect width="2.0000000000000018e-2" height="2.0000000000000004e-2" x="-0.17361906575092995" y="-6.1650675887863875e-2" /><rect width="2.0000000000000018e-2" height="2.0000000000000004e-2" x="-0.15839506719699314" y="1.141445735511424e-4" /><rect width="2.0000000000000004e-2" height="2.0e-2" x="-0.14188145317841228" y="-4.535970306756889e-3" /><rect width="2.0000000000000004e-2" height="1.9999999999999997e-2" x="-0.14109991482438683" y="4.7180689680206896e-2" /><rect width="2.0000000000000018e-2" height="1.999999999999999e-2" x="-0.15740398639050723" y="0.10412603988386772" /><rect width="1.999999999999999e-2" height="1.9999999999999997e-2" x="-0.12023444674351329" y="-7.293844165923456e-2" /><rect width="1.999999999999999e-2" height="2.0000000000000004e-2" x="-0.11184111701891745" y="2.089327728852431e-2" /><rect width="1.999999999999999e-2" height="2.0000000000000004e-2" x="-8.559663973899333e-2" y="-3.8474190747699304e-2" /><rect width="2.0000000000000004e-2" height="1.999999999999999e-2" x="-4.122184296137937e-2" y="-9.99650833021165e-2" /><rect width="1.999999999999999e-2" height="2.0000000000000018e-2" x="-8.865761491559936e-2" y="0.20398003809543397" /><rect width="1.9999999999999997e-2" height="2.0000000000000004e-2" x="-8.035225497805858e-2" y="2.1107495578445108e-2" /><rect width="1.9999999999999997e-2" height="2.0000000000000004e-2" x="-7.508945406482846e-2" y="3.028012906378153e-2" /><rect width="2.0000000000000004e-2" height="2.0000000000000004e-2" x="-4.624890638322159e-2" y="-4.836441172204175e-2" /><rect width="1.9999999999999997e-2" height="2.0000000000000018e-2" x="-7.22825830726904e-2" y="0.1330845833435016" /><rect width="1.9999999999999997e-2" height="1.9999999999999997e-2" x="-7.642482990481607e-2" y="6.174858075753226e-2" /><rect width="2.0000000000000004e-2" height="2.0000000000000004e-2" x="-2.4256875331577214e-2" y="-0.12588267873161252" /><rect width="2.0000000000000004e-2" height="2.0000000000000004e-2" x="4.234081754901484e-3" y="-4.956352845227107e-2" /><rect width="2.0000000000000004e-2" height="2.0000000000000004e-2" x="6.971936746654759e-3" y="3.5574633632122495e-2" /><rect width="2.0000000000000004e-2" height="2.0000000000000004e-2" x="2.9316076661189967e-2" y="-2.94813623041743e-2" /><rect width="1.9999999999999997e-2" height="2.0e-2" x="4.450069561273252e-2" y="-6.637677810019052e-3" /><rect width="2.0000000000000004e-2" height="1.999999999999999e-2" x="3.646606145461074e-2" y="7.029829517890814e-2" /><rect width="2.0000000000000004e-2" height="2.0000000000000018e-2" x="4.6761489694472445e-3" y="0.15001245823121212" /><rect width="2.0000000000000004e-2" height="2.0000000000000004e-2" x="6.912516074591099e-3" y="3.804586887997891e-2" /><rect width="2.0000000000000004e-2" height="2.0000000000000004e-2" x="9.099040860210303e-3" y="3.767942813107556e-2" /><rect width="1.9999999999999997e-2" height="1.999999999999999e-2" x="5.161714221229597e-2" y="-9.67525742068621e-2" /><rect width="1.9999999999999997e-2" height="2.0000000000000004e-2" x="6.090194968473473e-2" y="1.2005227337141886e-2" /><rect width="1.9999999999999997e-2" height="1.999999999999999e-2" x="5.129784297786489e-2" y="7.505674110725065e-2" /><rect width="1.999999999999999e-2" height="1.9999999999999997e-2" x="8.681502222417516e-2" y="-7.466522453786194e-2" /><rect width="1.999999999999999e-2" height="2.0000000000000004e-2" x="9.070503891619187e-2" y="2.8914283227233058e-2" /><rect width="1.999999999999999e-2" height="2.0000000000000004e-2" x="9.560569303361922e-2" y="2.582743737204702e-2" /><rect width="1.999999999999999e-2" height="1.999999999999999e-2" x="8.274262260346989e-2" y="8.480684571723775e-2" /><rect width="1.999999999999999e-2" height="2.0000000000000004e-2" x="0.10318587009492021" y="-2.5450438215022568e-2" /><rect width="2.0000000000000004e-2" height="2.0000000000000004e-2" x="0.1060835847910724" y="3.187604612817369e-2" /><rect width="1.999999999999999e-2" height="1.9999999999999997e-2" x="0.10227146017039647" y="5.434166028602156e-2" /><rect width="1.999999999999999e-2" height="1.9999999999999997e-2" x="9.934614036615343e-2" y="5.1602219018188906e-2" /><rect width="1.999999999999999e-2" height="1.999999999999999e-2" x="8.882191881286929e-2" y="7.699427663543108e-2" /><rect width="2.0000000000000004e-2" height="2.0000000000000004e-2" x="0.11080018740265575" y="-3.0795105739691013e-2" /><rect width="1.999999999999999e-2" height="1.999999999999999e-2" x="9.653416069910682e-2" y="8.875555009141974e-2" /><rect width="1.999999999999999e-2" height="1.9999999999999997e-2" x="9.174487301728142e-2" y="5.8135570185005266e-2" /><rect width="1.999999999999999e-2" height="2.0000000000000004e-2" x="6.890904342315275e-2" y="0.11828243789106398" /><rect width="2.0000000000000004e-2" height="2.0000000000000018e-2" x="4.099688722963402e-2" y="0.13620994234074274" /><rect width="2.0000000000000004e-2" height="1.999999999999999e-2" x="3.3483032574401335e-2" y="6.926694047225025e-2" /><rect width="1.999999999999999e-2" height="1.999999999999999e-2" x="8.163572360709105e-2" y="-0.11621520911832993" /><rect width="1.999999999999999e-2" height="2.0000000000000004e-2" x="9.03660643075256e-2" y="1.2787978466643488e-2" /><rect width="2.0000000000000004e-2" height="2.0000000000000004e-2" x="0.1124318309962208" y="-3.139452076580639e-2" /><rect width="2.0000000000000004e-2" height="1.9999999999999997e-2" x="0.10822501414191422" y="5.520357337674126e-2" /><rect width="2.0000000000000004e-2" height="2.0e-2" x="0.1236496611470911" y="-9.694011120538462e-3" /><rect width="2.0000000000000018e-2" height="2.0000000000000004e-2" x="0.13460032271032574" y="4.454338275278644e-3" /><rect width="2.0000000000000018e-2" height="1.9999999999999997e-2" x="0.13267680757221179" y="4.700590851778603e-2" /><rect width="2.0000000000000004e-2" height="1.999999999999999e-2" x="0.12141317826672761" y="7.83185399802387e-2" /><rect width="2.0000000000000018e-2" height="1.9999999999999997e-2" x="0.15616385329834148" y="-7.43764255499718e-2" /><rect width="1.999999999999999e-2" height="2.0000000000000018e-2" x="9.04308103842514e-2" y="0.25840586300644064" /><rect width="1.999999999999999e-2" height="1.9999999999999997e-2" x="8.688524113279729e-2" y="5.48839575325596e-2" /><rect width="2.0000000000000004e-2" height="2.0000000000000004e-2" x="0.10980481621129402" y="-3.396636838637845e-2" /><rect width="1.999999999999999e-2" height="1.999999999999999e-2" x="9.298671967898255e-2" y="9.727805827161203e-2" /><rect width="1.999999999999999e-2" height="2.0000000000000004e-2" x="0.10397454353819903" y="5.744752699940634e-3" /><rect width="2.0000000000000018e-2" height="2.0000000000000004e-2" x="0.12518318310350074" y="-2.9018608655581916e-2" /><rect width="2.0000000000000018e-2" height="1.9999999999999997e-2" x="0.1621364151557222" y="-8.224608436028845e-2" /><rect width="2.0000000000000018e-2" height="1.9999999999999997e-2" x="0.16034304340467398" y="4.5360328203056306e-2" /><rect width="2.0000000000000018e-2" height="2.0000000000000004e-2" x="0.16580828761807298" y="2.171054336465956e-2" /><rect width="2.0000000000000018e-2" height="2.0000000000000004e-2" x="0.17098262268659392" y="2.2417042833362995e-2" /><rect width="2.0000000000000018e-2" height="2.0e-2" x="0.18460092923913862" y="-5.841021811659122e-3" /><rect width="2.0000000000000018e-2" height="2.0000000000000004e-2" x="0.18610468520969037" y="3.392280243089885e-2" /><rect width="2.0000000000000018e-2" height="2.0000000000000004e-2" x="0.16380516629949282" y="0.11317672586683737" /><rect width="2.0000000000000018e-2" height="2.0000000000000004e-2" x="0.1737329718354237" y="6.980641573066224e-3" /><rect width="2.0000000000000018e-2" height="1.9999999999999997e-2" x="0.1719868565467162" y="4.513159410577567e-2" /><rect width="2.0000000000000018e-2" height="2.0000000000000004e-2" x="0.19216910657715602" y="-2.7639033134782658e-2" /><rect width="2.0000000000000018e-2" height="1.9999999999999997e-2" x="0.18797704752767197" y="5.2549945321734355e-2" /><rect width="2.0000000000000018e-2" height="2.0000000000000004e-2" x="0.18770711617747182" y="3.9897587548103026e-2" /><rect width="2.0000000000000018e-2" height="1.999999999999999e-2" x="0.17812309467461185" y="7.084859070623846e-2" /><rect width="2.0000000000000018e-2" height="2.0000000000000004e-2" x="0.18153906051518398" y="2.8024352898723688e-2" /><rect width="2.0000000000000018e-2" height="2.0000000000000004e-2" x="0.18298722284538327" y="3.431653684179387e-2" /><rect width="2.0000000000000018e-2" height="2.0000000000000004e-2" x="0.21044957232172945" y="-5.2247480966775665e-2" /><rect width="2.0000000000000018e-2" height="1.999999999999999e-2" x="0.20082786044050005" y="6.993398623462034e-2" /><rect width="2.0000000000000018e-2" height="1.9999999999999997e-2" x="0.1975102613771046" y="4.9656221641393834e-2" /><rect width="2.0000000000000018e-2" height="2.0e-2" x="0.211057326100635" y="-6.381110114023139e-3" /><rect width="2.0000000000000018e-2" height="2.0000000000000004e-2" x="0.21238145180509327" y="3.3655729187803914e-2" /><rect width="2.0000000000000018e-2" height="2.0000000000000004e-2" x="0.21332612228362557" y="3.4989267139680376e-2" /><rect width="2.0000000000000018e-2" height="2.0000000000000018e-2" x="0.18592121697016672" y="0.12922623504516845" /><rect width="2.0000000000000018e-2" height="1.999999999999999e-2" x="0.17694632870821425" y="6.918109298730919e-2" /><rect width="2.0000000000000018e-2" height="2.0000000000000004e-2" x="0.2071314630806057" y="-6.102233641346765e-2" /><rect width="2.0000000000000018e-2" height="1.999999999999999e-2" x="0.1898960507341383" y="9.534302778689437e-2" /><rect width="2.0000000000000018e-2" height="2.0000000000000018e-2" x="0.13236340487445453" y="0.23054851604879312" /><rect width="2.0000000000000018e-2" height="1.999999999999999e-2" x="0.12579643057745726" y="6.340962035682064e-2" /><rect width="2.0000000000000004e-2" height="1.999999999999999e-2" x="0.11437076270452208" y="7.917760456219176e-2" /><rect width="2.0000000000000018e-2" height="2.0000000000000004e-2" x="0.12555528907051616" y="4.296372739759311e-3" /><rect width="1.9999999999999997e-2" height="2.0000000000000018e-2" x="4.269996090632867e-2" y="0.3169576409769337" /><rect width="1.999999999999999e-2" height="2.0000000000000004e-2" x="6.912657159262948e-2" y="-4.315181610618856e-2" /><rect width="1.999999999999999e-2" height="2.0000000000000004e-2" x="8.764230507454053e-2" y="-1.913351116582595e-2" /><rect width="2.0000000000000004e-2" height="2.0000000000000004e-2" x="0.11612060718713314" y="-5.28436292247153e-2" /><rect width="1.999999999999999e-2" height="2.0000000000000004e-2" x="9.522206009275248e-2" y="0.11060322276980895" /><rect width="1.999999999999999e-2" height="2.0000000000000004e-2" x="7.167157333889919e-2" y="0.12080276507717093" /><rect width="1.999999999999999e-2" height="2.0000000000000004e-2" x="9.915885581570728e-2" y="-4.844218654406895e-2" /><rect width="1.999999999999999e-2" height="1.999999999999999e-2" x="8.852507825092328e-2" y="7.69808796734915e-2" /><rect width="1.9999999999999997e-2" height="2.0000000000000018e-2" x="4.761824669500881e-2" y="0.17872889904785683" /><rect width="1.9999999999999997e-2" height="2.0000000000000004e-2" x="5.17181494845197e-2" y="3.052765981794337e-2" /><rect width="2.0000000000000004e-2" height="2.0000000000000018e-2" x="2.3038159298365952e-2" y="0.13900947065404812" /><rect width="2.0000000000000004e-2" height="2.0000000000000004e-2" x="-3.120146457369268e-4" y="0.1226213877640286" /><rect width="2.0000000000000004e-2" height="2.0000000000000004e-2" x="6.673929225685002e-3" y="2.2264644074213642e-2" /><rect width="2.0000000000000004e-2" height="2.0000000000000018e-2" x="-3.783348148365472e-2" y="0.19314501286327768" /><rect width="2.0000000000000004e-2" height="1.999999999999999e-2" x="-4.664322239069912e-2" y="7.632417782615404e-2" /><rect width="2.0000000000000004e-2" height="2.0000000000000018e-2" x="2.4534573568278602e-2" y="-0.19006319510984815" /><rect width="1.9999999999999997e-2" height="2.0000000000000004e-2" x="5.1008884218380686e-2" y="-4.476508288416758e-2" /><rect width="1.999999999999999e-2" height="2.0000000000000004e-2" x="7.068334259782917e-2" y="-2.2409564837540412e-2" /><rect width="1.999999999999999e-2" height="1.9999999999999997e-2" x="0.10461352154655935" y="-7.047706785072581e-2" /><rect width="2.0000000000000004e-2" height="2.0e-2" x="0.11883149405769101" y="-6.103086794238257e-3" /><rect width="2.0000000000000004e-2" height="1.9999999999999997e-2" x="0.11631754830863929" y="4.9443235561145556e-2" /><rect width="2.0000000000000004e-2" height="1.999999999999999e-2" x="0.10826167590736892" y="6.821823327186967e-2" /><rect width="2.0000000000000004e-2" height="2.0000000000000004e-2" x="0.1207473618122752" y="1.2278528611654217e-4" /><rect width="2.0000000000000004e-2" height="1.999999999999999e-2" x="0.11401035172030384" y="6.347505640889285e-2" /><rect width="2.0000000000000004e-2" height="2.0000000000000004e-2" x="0.11590262004413233" y="3.520788669699849e-2" /><rect width="2.0000000000000018e-2" height="2.0000000000000004e-2" x="0.14688706506098548" y="-6.189335730799516e-2" /><rect width="2.0000000000000018e-2" height="2.0000000000000004e-2" x="0.15514143266480662" y="1.2435736541842666e-2" /><rect width="2.0000000000000018e-2" height="2.0000000000000004e-2" x="0.18491539364611642" y="-5.919489964387436e-2" /><rect width="2.0000000000000018e-2" height="1.9999999999999997e-2" x="0.17865240944738103" y="5.955455005134431e-2" /><rect width="2.0000000000000018e-2" height="1.999999999999999e-2" x="0.17099931872063923" y="6.481537366969183e-2" /><rect width="2.0000000000000018e-2" height="2.0000000000000018e-2" x="0.13737468682380272" y="0.15157441787673614" /><rect width="2.0000000000000018e-2" height="1.9999999999999997e-2" x="0.13191482713180924" y="5.927532127753616e-2" /><rect width="2.0000000000000018e-2" height="2.0000000000000004e-2" x="0.14324431493024314" y="3.157384104832692e-3" /><rect width="2.0000000000000018e-2" height="2.0000000000000004e-2" x="0.16081738055824424" y="-1.8232473627450722e-2" /><rect width="2.0000000000000018e-2" height="2.0000000000000004e-2" x="0.18454473497590362" y="-3.936666075728489e-2" /><rect width="2.0000000000000018e-2" height="2.0000000000000004e-2" x="0.19227302960735626" y="1.3067837894315934e-2" /><rect width="2.0000000000000018e-2" height="2.0000000000000004e-2" x="0.2157411188233853" y="-3.936720299869378e-2" /><rect width="2.0000000000000018e-2" height="1.999999999999999e-2" x="0.20736674735549254" y="6.56382179482355e-2" /><rect width="2.0000000000000018e-2" height="1.999999999999999e-2" x="0.18902783775716636" y="9.941269593298975e-2" /><rect width="2.0000000000000018e-2" height="2.0000000000000004e-2" x="0.19122424007081296" y="3.1825196113581596e-2" /><rect width="2.0000000000000018e-2" height="2.0e-2" x="0.20422697795086153" y="-4.450156721582102e-3" /><rect width="2.0000000000000018e-2" height="2.0000000000000004e-2" x="0.20966071246551365" y="2.0192868427748374e-2" /><rect width="2.0000000000000018e-2" height="2.0e-2" x="0.22283844546232945" y="-5.661235834837066e-3" /><rect width="2.0000000000000018e-2" height="1.9999999999999997e-2" x="0.22105216823857377" y="4.3601133706180135e-2" /><rect width="2.0000000000000018e-2" height="1.999999999999999e-2" x="0.20735148893920408" y="8.343943086677248e-2" /><rect width="2.0000000000000018e-2" height="2.0000000000000004e-2" x="0.18333910034929657" y="0.11836259969152686" /><rect width="2.0000000000000018e-2" height="2.0000000000000004e-2" x="0.19342297418423515" y="5.827819513718144e-3" /><rect width="2.0000000000000018e-2" height="2.0000000000000004e-2" x="0.17067097065043912" y="0.11439768613181085" /><rect width="2.0000000000000018e-2" height="2.0000000000000004e-2" x="0.1783716503742645" y="1.4170983071212126e-2" /><rect width="2.0000000000000018e-2" height="2.0000000000000004e-2" x="0.1992310605662091" y="-3.0267837135233393e-2" /><rect width="2.0000000000000018e-2" height="2.0e-2" x="0.21267957019175976" y="-6.413492426244774e-3" /><rect width="2.0000000000000018e-2" height="1.999999999999999e-2" x="0.19278619104050032" y="0.10417996712682455" /><rect width="2.0000000000000018e-2" height="2.0000000000000004e-2" x="0.21539483491026945" y="-3.622676913797617e-2" /><rect width="2.0000000000000018e-2" height="1.999999999999999e-2" x="0.2076628166598673" y="6.352591014504062e-2" /><rect width="2.0000000000000018e-2" height="1.999999999999999e-2" x="0.19688753000864234" y="7.424417449459682e-2" /><rect width="2.0000000000000018e-2" height="2.0000000000000018e-2" x="0.1583263222109339" y="0.1671680375131459" /><rect width="2.0000000000000018e-2" height="2.0000000000000018e-2" x="0.12664466967357724" y="0.1459949616681166" /><rect width="1.999999999999999e-2" height="2.0000000000000018e-2" x="0.10103662160378558" y="0.12677117688967643" /><rect width="2.0000000000000004e-2" height="2.0000000000000018e-2" x="-7.546717058671739e-4" y="0.38144392336599037" /><rect width="1.9999999999999997e-2" height="1.999999999999999e-2" x="4.267988969443893e-2" y="-9.81399169604824e-2" /><rect width="1.9999999999999997e-2" height="2.0000000000000004e-2" x="4.4536945405733726e-2" y="3.703662590258034e-2" /><rect width="2.0000000000000004e-2" height="2.0000000000000018e-2" x="0.10596755930723513" y="-0.16098093832263805" /><rect width="1.999999999999999e-2" height="2.0000000000000004e-2" x="8.241512306436728e-2" y="0.1193149002209253" /><rect width="2.0000000000000004e-2" height="2.0000000000000018e-2" x="4.026650866084092e-2" y="0.1832639055897871" /><rect width="1.999999999999999e-2" height="1.999999999999999e-2" x="9.001738368949332e-2" y="-0.12131191203488854" /><rect width="2.0e-2" height="2.0000000000000018e-2" x="-1.0317306986837629e-2" y="0.3758878302941319" /><rect width="2.0000000000000004e-2" height="2.0000000000000004e-2" x="-1.7233468586120761e-3" y="1.821205792812753e-2" /><rect width="1.9999999999999997e-2" height="1.999999999999999e-2" x="4.5951643625119394e-2" y="-0.11358821727226119" /><rect width="1.999999999999999e-2" height="1.999999999999999e-2" x="8.531495797183321e-2" y="-8.814664688951156e-2" /><rect width="1.9999999999999997e-2" height="2.0000000000000018e-2" x="5.769716611101328e-2" y="0.1338446146622419" /><rect width="1.999999999999999e-2" height="2.0000000000000004e-2" x="8.452146698714526e-2" y="-4.56979778831813e-2" /><rect width="1.999999999999999e-2" height="1.9999999999999997e-2" x="8.177205832032432e-2" y="5.117906611951168e-2" /><rect width="2.0e-2" height="2.0000000000000018e-2" x="-6.783871708217029e-3" y="0.3376513709395542" /><rect width="2.0000000000000004e-2" height="1.9999999999999997e-2" x="2.9977539716502417e-2" y="-7.58082314083569e-2" /><rect width="2.0000000000000004e-2" height="1.999999999999999e-2" x="1.872358193240676e-2" y="8.120200659100653e-2" /><rect width="2.0000000000000004e-2" height="2.0000000000000004e-2" x="4.0242828746532185e-2" y="-2.6933934496576543e-2" /><rect width="1.999999999999999e-2" height="1.999999999999999e-2" x="8.16870855075449e-2" y="-9.45269078304448e-2" /><rect width="1.999999999999999e-2" height="2.0000000000000004e-2" x="8.27290171093137e-2" y="3.8414439195736234e-2" /><rect width="1.9999999999999997e-2" height="2.0000000000000004e-2" x="5.8715614191229955e-2" y="0.12247703928507121" /><rect width="1.999999999999999e-2" height="1.9999999999999997e-2" x="9.408627901634982e-2" y="-7.426164388324873e-2" /><rect width="2.0000000000000018e-2" height="1.999999999999999e-2" x="0.13598168019602686" y="-9.806546221292343e-2" /><rect width="2.0000000000000018e-2" height="2.0000000000000004e-2" x="0.1373733189280285" y="3.544098908481292e-2" /><rect width="2.0000000000000018e-2" height="1.9999999999999997e-2" x="0.13557878423763736" y="4.660005039963706e-2" /><rect width="2.0000000000000018e-2" height="2.0000000000000004e-2" x="0.1352048420699684" y="4.197501906333435e-2" /><rect width="2.0000000000000018e-2" height="2.0000000000000004e-2" x="0.15777437728024868" y="-3.4484483225598266e-2" /><rect width="2.0000000000000018e-2" height="2.0000000000000004e-2" x="0.16558859150046612" y="1.361045194508321e-2" /><rect width="2.0000000000000018e-2" height="1.9999999999999997e-2" x="0.16138142364324748" y="5.3607117999072536e-2" /><rect width="2.0000000000000018e-2" height="1.999999999999999e-2" x="0.14921043704717996" y="8.044987641182073e-2" /><rect width="2.0000000000000018e-2" height="2.0000000000000004e-2" x="0.15626839954023586" y="1.6907021052334943e-2" /><rect width="2.0000000000000018e-2" height="2.0000000000000004e-2" x="0.15571778870383524" y="4.174827174556684e-2" /><rect width="2.0000000000000018e-2" height="1.9999999999999997e-2" x="0.154128669550595" y="4.5333579068306214e-2" /><rect width="2.0000000000000018e-2" height="1.999999999999999e-2" x="0.13612821221600746" y="0.10008388809369285" /><rect width="2.0000000000000018e-2" height="1.9999999999999997e-2" x="0.13442174165949905" y="4.663320781157721e-2" /><rect width="1.999999999999999e-2" height="2.0000000000000018e-2" x="0.10480588152545124" y="0.13946561331608182" /><rect width="2.0000000000000004e-2" height="2.0000000000000004e-2" x="0.1242572609617555" y="-2.266154608189907e-2" /><rect width="2.0000000000000004e-2" height="1.999999999999999e-2" x="0.11472173066414505" y="7.257539217405164e-2" /><rect width="1.999999999999999e-2" height="1.999999999999999e-2" x="9.574535422369114e-2" y="0.10478339499742718" /><rect width="2.0000000000000004e-2" height="2.0e-2" x="0.11155718538371286" y="-1.0386738927312447e-2" /><rect width="1.999999999999999e-2" height="2.0000000000000018e-2" x="6.915349844181863e-2" y="0.18259947974826257" /><rect width="2.0000000000000004e-2" height="2.0000000000000018e-2" x="8.311893041872862e-3" y="0.24628163354700627" /><rect width="2.0000000000000004e-2" height="2.0000000000000004e-2" x="3.486583964070023e-2" y="-4.2667165865156835e-2" /><rect width="1.999999999999999e-2" height="1.999999999999999e-2" x="8.13800445463937e-2" y="-0.11129692763146491" /><rect width="1.999999999999999e-2" height="1.999999999999999e-2" x="6.529446313045296e-2" y="9.542407026205914e-2" /><rect width="2.0000000000000004e-2" height="2.0000000000000018e-2" x="1.2318767498309966e-2" y="0.2198116382276643" /><rect width="1.9999999999999997e-2" height="2.0000000000000004e-2" x="4.254747037049545e-2" y="-5.514498659155386e-2" /><rect width="1.999999999999999e-2" height="2.0000000000000004e-2" x="6.321652139614221e-2" y="-2.5502547464526286e-2" /><rect width="1.999999999999999e-2" height="1.9999999999999997e-2" x="9.866322925473271e-2" y="-7.532816582535383e-2" /><rect width="1.999999999999999e-2" height="1.9999999999999997e-2" x="9.278903520728977e-2" y="6.097732523061317e-2" /><rect width="2.0000000000000004e-2" height="1.9999999999999997e-2" x="0.12481167985271537" y="-6.451480742550773e-2" /><rect width="2.0000000000000004e-2" height="1.999999999999999e-2" x="0.11664742730905366" y="6.779361922518846e-2" /><rect width="2.0000000000000004e-2" height="2.0000000000000004e-2" x="0.12461491609977939" y="1.4900283957218327e-2" /><rect width="2.0000000000000004e-2" height="1.999999999999999e-2" x="0.11014076271615549" y="8.918865388693105e-2" /><rect width="2.0000000000000018e-2" height="2.0000000000000004e-2" x="0.13183431793280287" y="-3.0533405674400986e-2" /><rect width="2.0000000000000004e-2" height="1.999999999999999e-2" x="0.11840019573911677" y="8.527716894204536e-2" /><rect width="2.0000000000000018e-2" height="2.0000000000000004e-2" x="0.12665434364308092" y="1.3966228893473607e-2" /><rect width="2.0000000000000018e-2" height="2.0000000000000004e-2" x="0.1316475815125241" y="2.42376252584059e-2" /><rect width="2.0000000000000018e-2" height="2.0000000000000004e-2" x="0.14375982290285239" y="3.9546522084883164e-4" /><rect width="2.0000000000000018e-2" height="2.0000000000000004e-2" x="0.16072786855630383" y="-1.6286720958467275e-2" /><rect width="2.0000000000000018e-2" height="1.9999999999999997e-2" x="0.1561693420021184" y="5.48076430346971e-2" /><rect width="2.0000000000000018e-2" height="2.0000000000000004e-2" x="0.16535849022417748" y="9.466126577567133e-3" /><rect width="2.0000000000000018e-2" height="1.999999999999999e-2" x="0.153467908246272" y="7.919306555306284e-2" /><rect width="2.0000000000000018e-2" height="2.0000000000000004e-2" x="0.18395285824106133" y="-6.128671063532897e-2" /><rect width="2.0000000000000018e-2" height="2.0000000000000004e-2" x="0.19422181164392704" y="4.474386901865199e-3" /><rect width="2.0000000000000018e-2" height="1.9999999999999997e-2" x="0.18817692656741702" y="5.873726764444188e-2" /><rect width="2.0000000000000018e-2" height="2.0000000000000004e-2" x="0.18856078586949032" y="3.775298143625078e-2" /><rect width="2.0000000000000018e-2" height="2.0000000000000004e-2" x="0.19566853759437708" y="1.5262719824268087e-2" /><rect width="2.0000000000000018e-2" height="2.0000000000000004e-2" x="0.20211529184180732" y="1.7139948025099667e-2" /><rect width="2.0000000000000018e-2" height="1.999999999999999e-2" x="0.19341060393520715" y="6.738166754446319e-2" /><rect width="2.0000000000000018e-2" height="2.0000000000000004e-2" x="0.19662605172163528" y="2.8184577966866582e-2" /><rect width="2.0000000000000018e-2" height="2.0000000000000004e-2" x="0.19691838810505924" y="3.76523329377172e-2" /><rect width="2.0000000000000018e-2" height="2.0000000000000004e-2" x="0.1976377416489945" y="3.625898398688971e-2" /><rect width="2.0000000000000018e-2" height="2.0000000000000004e-2" x="0.221139241868609" y="-3.962178271199556e-2" /><rect width="2.0000000000000018e-2" height="2.0000000000000004e-2" x="0.22041681758431442" y="3.996557958852776e-2" /><rect width="2.0000000000000018e-2" height="1.9999999999999997e-2" x="0.2161323672273876" y="5.2141765897192334e-2" /><rect width="2.0000000000000018e-2" height="1.999999999999999e-2" x="0.20132243503966218" y="8.736916456707168e-2" /><rect width="2.0000000000000018e-2" height="1.999999999999999e-2" x="0.19397987941322514" y="6.315586576245581e-2" /><rect width="2.0000000000000018e-2" height="2.0000000000000004e-2" x="0.19921664609002077" y="2.1416262484431133e-2" /><rect width="2.0000000000000018e-2" height="2.0000000000000004e-2" x="0.2220599662839816" y="-3.754665527814171e-2" /><rect width="2.0000000000000018e-2" height="2.0000000000000004e-2" x="0.22697343951422244" y="2.1186483111950878e-2" /><rect width="2.0000000000000018e-2" height="2.0000000000000004e-2" x="0.2384915444792023" y="-7.301756700683806e-4" /><rect width="2.0000000000000018e-2" height="1.999999999999999e-2" x="0.2225386423144019" y="9.021338431843041e-2" /><rect width="2.0000000000000018e-2" height="2.0000000000000018e-2" x="0.19133506439418035" y="0.14187152346834586" /><rect width="2.0000000000000018e-2" height="2.0000000000000004e-2" x="0.16723215706827022" y="0.11955828150571869" /><rect width="2.0000000000000018e-2" height="2.0000000000000004e-2" x="0.18658353768240687" y="-2.448364556221682e-2" /><rect width="2.0000000000000018e-2" height="2.0000000000000004e-2" x="0.18953732719996375" y="2.8898055437490973e-2" /><rect width="2.0000000000000018e-2" height="2.0000000000000004e-2" x="0.217866315502951" y="-5.549077699633952e-2" /><rect width="2.0000000000000018e-2" height="1.999999999999999e-2" x="0.20490458427854275" y="8.075234455268217e-2" /><rect width="2.0000000000000018e-2" height="1.9999999999999997e-2" x="0.19914235071576414" y="5.775063045582313e-2" /><rect width="2.0000000000000018e-2" height="2.0000000000000004e-2" x="0.20676077568792328" y="1.3290028617206526e-2" /><rect width="2.0000000000000018e-2" height="2.0000000000000004e-2" x="0.23305480912796517" y="-4.931789838618005e-2" /><rect width="2.0000000000000018e-2" height="1.9999999999999997e-2" x="0.2307677391651095" y="4.4748178020126046e-2" /><rect width="2.0000000000000018e-2" height="2.0000000000000004e-2" x="0.25214546365930113" y="-3.358100374977468e-2" /><rect width="2.0000000000000018e-2" height="2.0000000000000004e-2" x="0.25056758372448673" y="4.1829954447949076e-2" /><rect width="2.0000000000000018e-2" height="1.9999999999999997e-2" x="0.24651689349060835" y="5.0359844201896826e-2" /><rect width="2.0000000000000018e-2" height="2.0000000000000004e-2" x="0.2588223106573937" y="-3.881442372451629e-3" /><rect width="2.0000000000000018e-2" height="2.0e-2" x="0.2725713410252346" y="-9.251012470340039e-3" /><rect width="2.0000000000000018e-2" height="2.0000000000000004e-2" x="0.2725914485214994" y="3.593545152158629e-2" /><rect width="2.0000000000000018e-2" height="1.9999999999999997e-2" x="0.2691037865711655" y="4.7727296713659335e-2" /><rect width="2.0000000000000018e-2" height="2.0e-2" x="0.28341342069525066" y="-1.1277880143735644e-2" /><rect width="2.0000000000000018e-2" height="1.9999999999999997e-2" x="0.2805447756618603" y="4.5177387462883085e-2" /><rect width="2.0000000000000018e-2" height="2.0000000000000004e-2" x="0.2582555638865828" y="0.10997264363459354" /><rect width="2.0000000000000018e-2" height="2.0000000000000004e-2" x="0.2654662358190272" y="1.2871075784240857e-2" /><rect width="2.0000000000000018e-2" height="2.0000000000000004e-2" x="0.29056696447702046" y="-4.715379485329751e-2" /><rect width="2.0000000000000018e-2" height="2.0000000000000004e-2" x="0.2637936219208249" y="0.12427505640772542" /><rect width="2.0000000000000018e-2" height="2.0000000000000004e-2" x="0.27291792398448" y="6.366234693816872e-3" /><rect width="2.0000000000000018e-2" height="1.999999999999999e-2" x="0.26067382257423155" y="7.674568377768355e-2" /><rect width="2.0000000000000018e-2" height="2.0e-2" x="0.27433759956515136" y="-8.782182795685203e-3" /><rect width="2.0000000000000018e-2" height="2.0000000000000004e-2" x="0.2936165032752508" y="-2.8146628704557745e-2" /><rect width="2.0000000000000018e-2" height="1.999999999999999e-2" x="0.2809585194401568" y="7.732408227953404e-2" /><rect width="2.0000000000000018e-2" height="2.0000000000000004e-2" x="0.30131664177796436" y="-3.168773206744956e-2" /><rect width="2.0000000000000018e-2" height="1.9999999999999997e-2" x="0.293072951777238" y="6.239551469835037e-2" /><rect width="2.0000000000000018e-2" height="2.0000000000000004e-2" x="0.29630203687233914" y="2.47953723453156e-2" /><rect width="2.0000000000000018e-2" height="2.0000000000000004e-2" x="0.321088656642728" y="-4.701869922671464e-2" /><rect width="2.0000000000000018e-2" height="2.0000000000000004e-2" x="0.33062214034623094" y="2.7248017967915848e-3" /><rect width="2.0000000000000018e-2" height="1.999999999999999e-2" x="0.3182880549393551" y="7.506039143790795e-2" /><rect width="2.0000000000000018e-2" height="2.0000000000000004e-2" x="0.31598366445308157" y="4.234439032437271e-2" /><rect width="2.0000000000000018e-2" height="2.0000000000000004e-2" x="0.3165319652375147" y="3.2885359318319436e-2" /><rect width="2.0000000000000018e-2" height="2.0000000000000018e-2" x="0.28286000309766557" y="0.1464798564582694" /><rect width="2.0000000000000018e-2" height="2.0000000000000018e-2" x="0.22706416908793625" y="0.2217298295941234" /><rect width="2.0000000000000018e-2" height="1.9999999999999997e-2" x="0.2582745258028788" y="-6.55902753369869e-2" /><rect width="2.0000000000000018e-2" height="1.9999999999999997e-2" x="0.25258665244926937" y="5.5190460814559146e-2" /><rect width="2.0000000000000018e-2" height="2.0000000000000004e-2" x="0.26042195756695186" y="1.0784255156325648e-2" /><rect width="2.0000000000000018e-2" height="2.0000000000000018e-2" x="0.19807634023720366" y="0.24404703837916109" /><rect width="2.0000000000000018e-2" height="2.0000000000000004e-2" x="0.22035001797188214" y="-3.475749697545038e-2" /><rect width="2.0000000000000018e-2" height="1.999999999999999e-2" x="0.26755189736595164" y="-0.11965821667542241" /><rect width="2.0000000000000018e-2" height="1.9999999999999997e-2" x="0.30196272614023356" y="-7.875350353988207e-2" /><rect width="2.0000000000000018e-2" height="2.0000000000000004e-2" x="0.3098317482537032" y="8.664069258905846e-3" /><rect width="2.0000000000000018e-2" height="2.0000000000000004e-2" x="0.2885004225765281" y="0.10572670605220848" /><rect width="2.0000000000000018e-2" height="2.0000000000000004e-2" x="0.30996157677510694" y="-3.555069981648428e-2" /><rect width="2.0000000000000018e-2" height="2.0000000000000004e-2" x="0.3123333941385962" y="2.680994690537048e-2" /><rect width="2.0000000000000018e-2" height="2.0000000000000004e-2" x="0.33063151154007375" y="-2.602006118734989e-2" /><rect width="2.0000000000000018e-2" height="1.999999999999999e-2" x="0.3217113072788921" y="6.368550770798438e-2" /><rect width="2.0000000000000018e-2" height="2.0000000000000004e-2" x="0.3245652262499551" y="2.5091094986479552e-2" /><rect width="2.0000000000000018e-2" height="1.999999999999999e-2" x="0.3114224559145854" y="7.804629235755613e-2" /><rect width="2.0000000000000018e-2" height="2.0e-2" x="0.32392832905318303" y="-6.607466801864572e-3" /><rect width="2.0000000000000018e-2" height="1.999999999999999e-2" x="0.30776486406808223" y="8.80303587838668e-2" /><rect width="2.0000000000000018e-2" height="2.0000000000000018e-2" x="0.26930069173350824" y="0.16304157314544454" /></g><g /></svg>