<svg viewBox="-1.1825749999999997 -0.68275 2.1900749999999993 1.5427659178324475" xmlns="http://www.w3.org/2000/svg" xmlns:xlink="http://www.w3.org/1999/xlink" version="1.1" width="600.0" height="400.0"><g stroke-width="0.0" stroke="none" fill="#000000" transform="translate(-8.753750000000005e-2, -0.57175)" fill-opacity="1.0" font-size="0.12" text-anchor="middle"><text transform="rotate(0.0, 0.0, -0.0)" x="0.0" y="-0.0">std beta</text></g><g stroke-width="0.0" stroke="#000000" fill="#666666" fill-opacity="3.0e-2" stroke-opacity="0.0"><rect width="1.9999999999999998" height="1.0" x="-1.0" y="-0.5" /></g><g stroke-width="5.0e-3" stroke="#A8E5EE" fill="none" stroke-opacity="0.3"><polyline points="-1.0,0.505 -1.0,-0.505" /></g><g stroke-width="5.0e-3" stroke="#A8E5EE" fill="none" stroke-opacity="0.3"><polyline points="-0.9118236472945892,0.505 -0.9118236472945892,-0.505" /></g><g stroke-width="5.0e-3" stroke="#A8E5EE" fill="none" stroke-opacity="0.3"><polyline points="-0.6553106212424851,0.505 -0.6553106212424851,-0.505" /></g><g stroke-width="5.0e-3" stroke="#A8E5EE" fill="none" stroke-opacity="0.3"><polyline points="-0.40280561122244496,0.505 -0.40280561122244496,-0.505" /></g><g stroke-width="5.0e-3" stroke="#A8E5EE" fill="none" stroke-opacity="0.3"><polyline points="-0.15030060120240496,0.505 -0.15030060120240496,-0.505" /></g><g stroke-width="5.0e-3" stroke="#A8E5EE" fill="none" stroke-opacity="0.3"><polyline points="9.418837675350678e-2,0.505 9.418837675350678e-2,-0.505" /></g><g stroke-width="5.0e-3" stroke="#A8E5EE" fill="none" stroke-opacity="0.3"><polyline points="0.3466933867735469,0.505 0.3466933867735469,-0.505" /></g><g stroke-width="5.0e-3" stroke="#A8E5EE" fill="none" stroke-opacity="0.3"><polyline points="0.6032064128256511,0.505 0.6032064128256511,-0.505" /></g><g stroke-width="5.0e-3" stroke="#A8E5EE" fill="none" stroke-opacity="0.3"><polyline points="0.8597194388777554,0.505 0.8597194388777554,-0.505" /></g><g stroke-width="5.0e-3" stroke="#A8E5EE" fill="none" stroke-opacity="0.3"><polyline points="0.9999999999999998,0.505 0.9999999999999998,-0.505" /></g><g stroke-width="0.0" stroke="none" fill="#666666" fill-opacity="1.0" font-size="5.0e-2" text-anchor="end"><text transform="rotate(-45.0, -1.0, 0.647)" x="-1.0" y="0.647">27 Feb 2018</text></g><g stroke-width="0.0" stroke="none" fill="#666666" fill-opacity="1.0" font-size="5.0e-2" text-anchor="end"><text transform="rotate(-45.0, -0.9118236472945892, 0.647)" x="-0.9118236472945892" y="0.647">31 Mar 2018</text></g><g stroke-width="0.0" stroke="none" fill="#666666" fill-opacity="1.0" font-size="5.0e-2" text-anchor="end"><text transform="rotate(-45.0, -0.6553106212424851, 0.647)" x="-0.6553106212424851" y="0.647">30 Jun 2018</text></g><g stroke-width="0.0" stroke="none" fill="#666666" fill-opacity="1.0" font-size="5.0e-2" text-anchor="end"><text transform="rotate(-45.0, -0.40280561122244496, 0.647)" x="-0.40280561122244496" y="0.647">30 Sep 2018</text></g><g stroke-width="0.0" stroke="none" fill="#666666" fill-opacity="1.0" font-size="5.0e-2" text-anchor="end"><text transform="rotate(-45.0, -0.15030060120240496, 0.647)" x="-0.15030060120240496" y="0.647">31 Dec 2018</text></g><g stroke-width="0.0" stroke="none" fill="#666666" fill-opacity="1.0" font-size="5.0e-2" text-anchor="end"><text transform="rotate(-45.0, 9.418837675350678e-2, 0.647)" x="9.418837675350678e-2" y="0.647">31 Mar 2019</text></g><g stroke-width="0.0" stroke="none" fill="#666666" fill-opacity="1.0" font-size="5.0e-2" text-anchor="end"><text transform="rotate(-45.0, 0.3466933867735469, 0.647)" x="0.3466933867735469" y="0.647">30 Jun 2019</text></g><g stroke-width="0.0" stroke="none" fill="#666666" fill-opacity="1.0" font-size="5.0e-2" text-anchor="end"><text transform="rotate(-45.0, 0.6032064128256511, 0.647)" x="0.6032064128256511" y="0.647">30 Sep 2019</text></g><g stroke-width="0.0" stroke="none" fill="#666666" fill-opacity="1.0" font-size="5.0e-2" text-anchor="end"><text transform="rotate(-45.0, 0.8597194388777554, 0.647)" x="0.8597194388777554" y="0.647">31 Dec 2019</text></g><g stroke-width="0.0" stroke="none" fill="#666666" fill-opacity="1.0" font-size="5.0e-2" text-anchor="end"><text transform="rotate(-45.0, 0.9999999999999998, 0.647)" x="0.9999999999999998" y="0.647">21 Feb 2020</text></g><g stroke-width="0.0" stroke="#2C429D" fill="#5F0391" fill-opacity="1.0" stroke-opacity="0.4"><line stroke-width="5.0e-3" x1="-1.0" y1="0.58075" x2="-1.0" y2="0.55075" /><line stroke-width="5.0e-3" x1="-0.9118236472945892" y1="0.58075" x2="-0.9118236472945892" y2="0.55075" /><line stroke-width="5.0e-3" x1="-0.6553106212424851" y1="0.58075" x2="-0.6553106212424851" y2="0.55075" /><line stroke-width="5.0e-3" x1="-0.40280561122244496" y1="0.58075" x2="-0.40280561122244496" y2="0.55075" /><line stroke-width="5.0e-3" x1="-0.15030060120240496" y1="0.58075" x2="-0.15030060120240496" y2="0.55075" /><line stroke-width="5.0e-3" x1="9.418837675350678e-2" y1="0.58075" x2="9.418837675350678e-2" y2="0.55075" /><line stroke-width="5.0e-3" x1="0.3466933867735469" y1="0.58075" x2="0.3466933867735469" y2="0.55075" /><line stroke-width="5.0e-3" x1="0.6032064128256511" y1="0.58075" x2="0.6032064128256511" y2="0.55075" /><line stroke-width="5.0e-3" x1="0.8597194388777554" y1="0.58075" x2="0.8597194388777554" y2="0.55075" /><line stroke-width="5.0e-3" x1="0.9999999999999998" y1="0.58075" x2="0.9999999999999998" y2="0.55075" /></g><g stroke-width="0.0" stroke="#666666" fill="#5F0391" fill-opacity="0.5" stroke-opacity="0.0"><rect width="1.9999999999999998" height="5.0000000000000044e-3" x="-1.0" y="0.55075" /></g><g stroke-width="5.0e-3" stroke="#A8E5EE" fill="none" stroke-opacity="0.3"><polyline points="-1.005,0.5 1.0049999999999997,0.5" /></g><g stroke-width="5.0e-3" stroke="#A8E5EE" fill="none" stroke-opacity="0.3"><polyline points="-1.005,0.3333333333333333 1.0049999999999997,0.3333333333333333" /></g><g stroke-width="5.0e-3" stroke="#A8E5EE" fill="none" stroke-opacity="0.3"><polyline points="-1.005,0.16666666666666663 1.0049999999999997,0.16666666666666663" /></g><g stroke-width="5.0e-3" stroke="#A8E5EE" fill="none" stroke-opacity="0.3"><polyline points="-1.005,-0.0 1.0049999999999997,-0.0" /></g><g stroke-width="5.0e-3" stroke="#A8E5EE" fill="none" stroke-opacity="0.3"><polyline points="-1.005,-0.16666666666666674 1.0049999999999997,-0.16666666666666674" /></g><g stroke-width="5.0e-3" stroke="#A8E5EE" fill="none" stroke-opacity="0.3"><polyline points="-1.005,-0.33333333333333337 1.0049999999999997,-0.33333333333333337" /></g><g stroke-width="5.0e-3" stroke="#A8E5EE" fill="none" stroke-opacity="0.3"><polyline points="-1.005,-0.5 1.0049999999999997,-0.5" /></g><g stroke-width="0.0" stroke="none" fill="#666666" fill-opacity="1.0" font-size="5.0e-2" text-anchor="end"><text x="-1.0575749999999997" y="0.5145">-0.04</text></g><g stroke-width="0.0" stroke="none" fill="#666666" fill-opacity="1.0" font-size="5.0e-2" text-anchor="end"><text x="-1.0575749999999997" y="0.3478333333333333">-0.02</text></g><g stroke-width="0.0" stroke="none" fill="#666666" fill-opacity="1.0" font-size="5.0e-2" text-anchor="end"><text x="-1.0575749999999997" y="0.18116666666666664">0.00</text></g><g stroke-width="0.0" stroke="none" fill="#666666" fill-opacity="1.0" font-size="5.0e-2" text-anchor="end"><text x="-1.0575749999999997" y="1.4499999999999999e-2">0.02</text></g><g stroke-width="0.0" stroke="none" fill="#666666" fill-opacity="1.0" font-size="5.0e-2" text-anchor="end"><text x="-1.0575749999999997" y="-0.15216666666666673">0.04</text></g><g stroke-width="0.0" stroke="none" fill="#666666" fill-opacity="1.0" font-size="5.0e-2" text-anchor="end"><text x="-1.0575749999999997" y="-0.31883333333333336">0.06</text></g><g stroke-width="0.0" stroke="none" fill="#666666" fill-opacity="1.0" font-size="5.0e-2" text-anchor="end"><text x="-1.0575749999999997" y="-0.4855">0.08</text></g><g stroke-width="0.0" stroke="#2C429D" fill="#5F0391" fill-opacity="1.0" stroke-opacity="0.4"><line stroke-width="5.0e-3" transform="rotate(-90.0, -1.0274999999999999, 0.5)" x1="-1.0274999999999999" y1="0.515" x2="-1.0274999999999999" y2="0.485" /><line stroke-width="5.0e-3" transform="rotate(-90.0, -1.0274999999999999, 0.3333333333333333)" x1="-1.0274999999999999" y1="0.34833333333333333" x2="-1.0274999999999999" y2="0.3183333333333333" /><line stroke-width="5.0e-3" transform="rotate(-90.0, -1.0274999999999999, 0.16666666666666663)" x1="-1.0274999999999999" y1="0.18166666666666664" x2="-1.0274999999999999" y2="0.15166666666666662" /><line stroke-width="5.0e-3" transform="rotate(-90.0, -1.0274999999999999, -0.0)" x1="-1.0274999999999999" y1="1.5e-2" x2="-1.0274999999999999" y2="-1.5e-2" /><line stroke-width="5.0e-3" transform="rotate(-90.0, -1.0274999999999999, -0.16666666666666674)" x1="-1.0274999999999999" y1="-0.15166666666666673" x2="-1.0274999999999999" y2="-0.18166666666666675" /><line stroke-width="5.0e-3" transform="rotate(-90.0, -1.0274999999999999, -0.33333333333333337)" x1="-1.0274999999999999" y1="-0.31833333333333336" x2="-1.0274999999999999" y2="-0.3483333333333334" /><line stroke-width="5.0e-3" transform="rotate(-90.0, -1.0274999999999999, -0.5)" x1="-1.0274999999999999" y1="-0.485" x2="-1.0274999999999999" y2="-0.515" /></g><g stroke-width="0.0" stroke="#666666" fill="#5F0391" fill-opacity="0.5" stroke-opacity="0.0"><rect width="4.999999999999893e-3" height="1.0" x="-1.0174999999999998" y="-0.5" /></g><g stroke-width="5.0e-3" stroke="#C58C4B" fill="none" stroke-opacity="0.5"><polyline points="-1.0,0.16666666666666663 0.9999999999999998,0.16666666666666663" /></g><g stroke-width="5.0e-3" stroke="#3C7F2B" fill="none" stroke-opacity="0.5"><polyline points="-1.0,-0.23542192255678707 -0.9959919839679359,-0.1142765394373767 -0.9919839679358717,1.225451533642652e-2 -0.9879759519038076,-3.548457946463135e-2 -0.9839679358717435,-0.11214158103384364 -0.9799599198396793,-0.1302331870068345 -0.9759519038076152,-0.12601779540845492 -0.9719438877755511,-0.14735404523705342 -0.9679358717434869,-0.18662648651503744 -0.9639278557114228,-0.17344112184512417 -0.9599198396793587,-0.13636745592731403 -0.9559118236472945,-0.1095644657138074 -0.9519038076152304,-0.1062236036082802 -0.9478957915831663,-0.10842751963204322 -0.9438877755511023,-7.418045035192078e-2 -0.9398797595190381,-7.650139513788101e-2 -0.935871743486974,-7.548905218212987e-2 -0.9318637274549099,-3.066813173014382e-2 -0.9278557114228457,4.955346768729452e-2 -0.9238476953907816,-1.9467107782137116e-2 -0.9198396793587175,9.171290144104421e-2 -0.9158316633266533,9.809424148574764e-2 -0.9118236472945892,2.212780969469058e-2 -0.9078156312625251,0.1416510532405746 -0.9038076152304609,6.08388049568368e-2 -0.8997995991983968,-4.861175268395357e-3 -0.8957915831663327,-4.2279212358207086e-2 -0.8917835671342685,7.099926005108731e-2 -0.8877755511022044,4.64743956279588e-2 -0.8837675350701403,-1.6956399719482484e-2 -0.8797595190380761,7.43294277912665e-3 -0.875751503006012,-2.2539509981644668e-2 -0.8717434869739479,-1.3477401025417834e-2 -0.8677354709418837,-3.0181533792007387e-2 -0.8637274549098196,-4.3310155163841846e-2 -0.8597194388777555,-4.3695891691469146e-2 -0.8557114228456915,-3.6666018512257925e-2 -0.8517034068136273,-3.125683345742736e-2 -0.8476953907815632,-3.115984417053086e-2 -0.8436873747494991,-3.5946677458612686e-2 -0.8396793587174349,-3.2624492425412766e-2 -0.8356713426853708,-3.0855586354855413e-3 -0.8316633266533067,-5.28960872102191e-4 -0.8276553106212425,-1.942468210696091e-2 -0.8236472945891784,-8.696991313504987e-3 -0.8196392785571143,-3.3881115686821395e-2 -0.8156312625250501,-4.120650035059148e-2 -0.811623246492986,4.712194948003323e-2 -0.8076152304609219,6.441358330273123e-2 -0.8036072144288577,6.2364122712996184e-2 -0.7995991983967936,0.12841668770320797 -0.7955911823647295,0.1853074956525924 -0.7915831663326653,0.18998771329704944 -0.7875751503006012,0.18883833850919512 -0.7835671342685371,0.12046854899753845 -0.779559118236473,0.15117673704326723 -0.7755511022044088,0.13479980918077106 -0.7715430861723447,9.814223551527529e-2 -0.7675350701402806,0.17990901065332138 -0.7635270541082164,0.1310264763722639 -0.7595190380761523,0.1644820124202271 -0.7555110220440882,0.12427936340578777 -0.751503006012024,7.836268889616649e-2 -0.7474949899799599,-9.045676510477618e-2 -0.7434869739478958,8.596067867627238e-2 -0.7394789579158316,1.6515291210452532e-2 -0.7354709418837675,0.1263674111038376 -0.7314629258517034,0.15891364684245657 -0.7274549098196392,0.1570492514327002 -0.7234468937875751,0.23752270682799215 -0.719438877755511,0.21622161773007526 -0.7154308617234469,0.2392713462942112 -0.7114228456913828,0.23663457358833517 -0.7074148296593187,0.24372461946051194 -0.7034068136272545,0.15810522838078 -0.6993987975951904,0.18197861020269362 -0.6953907815631263,0.14436855823142314 -0.6913827655310621,8.526288948054711e-2 -0.687374749498998,-9.035988394802796e-3 -0.6833667334669339,1.4423949544564718e-2 -0.6793587174348698,-0.12425976947887318 -0.6753507014028056,-9.083871153880008e-2 -0.6713426853707415,-0.2924988690513034 -0.6673346693386774,-0.2569567418010994 -0.6633266533066133,-0.3368788937883058 -0.6593186372745492,-0.23283573813430858 -0.6553106212424851,-0.21984103742784333 -0.6513026052104209,-0.17110914871220928 -0.6472945891783568,-0.23109709224969244 -0.6432865731462927,-7.493494586712157e-2 -0.6392785571142285,3.839943671724649e-2 -0.6352705410821644,0.129158685412884 -0.6312625250501003,0.15240631814895006 -0.6272545090180361,7.309647238994715e-2 -0.623246492985972,0.14747119999633712 -0.6192384769539079,0.14753615537425185 -0.6152304609218437,0.12774712006347466 -0.6112224448897796,0.16078620357274698 -0.6072144288577155,0.17352072934729174 -0.6032064128256514,0.10426950486477976 -0.5991983967935872,7.85696629537746e-2 -0.5951903807615231,9.458207579028066e-2 -0.591182364729459,0.16261715879661615 -0.5871743486973948,0.2947131830614564 -0.5831663326653307,0.22556497517575558 -0.5791583166332666,0.11076639794990895 -0.5751503006012024,3.481437292247336e-2 -0.5711422845691383,8.756425171802196e-2 -0.5671342685370742,6.639286356947527e-2 -0.56312625250501,0.12665830032529596 -0.5591182364729459,0.18052341848794756 -0.5551102204408818,0.21761458467309586 -0.5511022044088176,0.2445928307140146 -0.5470941883767535,0.2165210297332662 -0.5430861723446894,0.1635671441900321 -0.5390781563126252,7.703844275564031e-3 -0.5350701402805611,-5.947608124836401e-2 -0.531062124248497,4.52634684540959e-2 -0.5270541082164328,-5.077461077190737e-2 -0.5230460921843687,4.215445455027317e-2 -0.5190380761523046,6.486826094292453e-2 -0.5150300601202404,8.083119712140002e-2 -0.5110220440881764,9.452331492389593e-2 -0.5070140280561123,7.694554173057777e-2 -0.5030060120240482,3.930106059356553e-2 -0.498997995991984,0.13234574469250848 -0.4949899799599199,0.22960779319702074 -0.49098196392785576,0.21556821722486208 -0.4869739478957916,0.2769710083009649 -0.4829659318637275,0.1865380096401537 -0.47895791583166336,0.17234170703918578 -0.47494989979959923,0.1300982728142181 -0.4709418837675351,7.011830771027378e-2 -0.46693386773547096,2.0143120201394082e-3 -0.46292585170340683,-4.056282339114525e-2 -0.4589178356713427,-1.442755172346466e-2 -0.45490981963927857,5.154155266621285e-2 -0.45090180360721444,4.462841184424854e-2 -0.4468937875751503,0.15093098073044847 -0.44288577154308617,0.13728857043542597 -0.43887775551102204,8.67367736403446e-4 -0.434869739478958,9.561123443564523e-2 -0.4308617234468939,0.10364159000213741 -0.42685370741482975,0.23391413671048206 -0.4228456913827656,0.2119422226155412 -0.4188376753507015,0.13855962432215785 -0.41482965931863736,0.10637608124033082 -0.4108216432865732,4.3365242112683056e-2 -0.4068136272545091,8.117308412500485e-2 -0.40280561122244496,6.914021614859894e-2 -0.3987975951903808,0.13276063259977172 -0.3947895791583167,0.10774407395663416 -0.39078156312625256,0.1075976153120018 -0.38677354709418843,-6.775244048557716e-2 -0.3827655310621243,-0.11153489226919233 -0.37875751503006017,-0.1148525812920489 -0.37474949899799603,-0.1293738350204 -0.3707414829659319,-9.553525497754678e-3 -0.36673346693386777,0.3621681306513225 -0.36272545090180364,2.2936004365111284e-2 -0.3587174348697395,0.10721609314895336 -0.35470941883767537,-0.22783877512447182 -0.35070140280561124,-0.24042667304666687 -0.3466933867735471,1.8172838613790432e-2 -0.342685370741483,-2.4347624777492083e-3 -0.33867735470941884,4.336636840738517e-2 -0.3346693386773547,0.10243508450044103 -0.3306613226452907,0.4049360533981103 -0.32665330661322656,8.939400746867782e-2 -0.3226452905811624,0.3035335394788041 -0.3186372745490983,0.35336816936526194 -0.31462925851703416,0.11285992080273033 -0.31062124248497003,-4.2616168287788136e-2 -0.3066132264529059,-0.17380560139661472 -0.30260521042084176,-0.10919474438740306 -0.29859719438877763,-0.17698015692511482 -0.2945891783567135,-0.2405563605508626 -0.29058116232464937,-0.34979927199625993 -0.28657314629258523,-0.3191927534413327 -0.2825651302605211,-0.2230467604807329 -0.27855711422845697,-3.5185207401588925e-2 -0.27454909819639284,-3.189771743520853e-2 -0.2705410821643287,1.8827477508783497e-2 -0.2665330661322646,-5.063772814065359e-2 -0.26252505010020044,-6.935439571229107e-2 -0.2585170340681363,3.19744541039273e-2 -0.2545090180360722,0.1317978925493461 -0.25050100200400804,0.10038440704283658 -0.2464929859719439,0.12405903634464938 -0.24248496993987978,5.983849302741395e-2 -0.23847695390781565,3.7953383851420386e-2 -0.23446893787575152,-2.0250404631017016e-2 -0.2304609218436875,-7.56031885894437e-3 -0.22645290581162336,-4.1873116260882526e-2 -0.22244488977955923,-7.621227900451477e-2 -0.2184368737474951,8.367447326077587e-2 -0.21442885771543096,8.830138353332212e-2 -0.21042084168336683,0.21540676530725889 -0.2064128256513027,0.19132779995244703 -0.20240480961923857,0.18312205003140314 -0.19839679358717444,0.14904035246013148 -0.1943887775551103,0.14413636558927606 -0.19038076152304617,0.1999539377817126 -0.18637274549098204,0.2594385210979513 -0.1823647294589179,0.24597093608502585 -0.17835671342685377,0.2816582992580683 -0.17434869739478964,0.3123714486608983 -0.1703406813627255,0.34390516679056077 -0.16633266533066138,0.3801015432238804 -0.16232464929859725,0.16706200670260662 -0.1583166332665331,7.748766600538709e-2 -0.15430861723446898,6.600081929084589e-2 -0.15030060120240485,-3.3711198810049137e-3 -0.14629258517034072,-2.3836987613693572e-2 -0.14228456913827658,0.10526126195712637 -0.13827655310621245,-4.314867101539044e-2 -0.13426853707414832,-9.159132270325387e-2 -0.1302605210420842,-0.14529917474864762 -0.12625250501002017,-0.16707070704901195 -0.12224448897795603,-0.18676556582449155 -0.1182364729458919,-0.18597386661563697 -0.11422845691382777,-0.1671457698476685 -0.11022044088176364,-0.18709284166241114 -0.1062124248496995,-0.19090448602126264 -0.10220440881763537,-0.19735671806752364 -9.819639278557124e-2,-0.1959673241449027 -9.418837675350711e-2,-0.16839874536770638 -9.018036072144298e-2,-0.16913896527853733 -8.617234468937884e-2,-0.16899942834114845 -8.216432865731471e-2,-0.15717113948275774 -7.815631262525058e-2,-0.1633378157693287 -7.414829659318645e-2,-0.16694326227558598 -7.014028056112231e-2,-0.11007401370415204 -6.613226452905818e-2,-8.900484267769226e-2 -6.212424849699405e-2,-9.120861260903768e-2 -5.811623246492992e-2,-6.995075883823831e-2 -5.4108216432865786e-2,-5.679015423542533e-2 -5.010020040080165e-2,-7.784555584208885e-2 -4.609218436873752e-2,-0.13278723999138387 -4.208416833667339e-2,-0.1361662280806235 -3.8076152304609256e-2,-0.1396566533287268 -3.4068136272545124e-2,-3.7956180550144936e-2 -3.0060120240480992e-2,-2.8560077398488426e-2 -2.605210420841686e-2,-6.447437192927274e-2 -2.204408817635284e-2,2.5202855160914084e-2 -1.8036072144288706e-2,1.994491205367871e-2 -1.4028056112224574e-2,1.7208520412160033e-2 -1.0020040080160442e-2,-4.234541860629071e-2 -6.012024048096309e-3,1.4303335298081643e-2 -2.004008016032177e-3,4.851769426189645e-3 2.004008016031955e-3,-3.191795619435345e-2 6.012024048096087e-3,-6.58705737656059e-2 1.002004008016022e-2,-0.13363391703353444 1.4028056112224352e-2,-4.053314727792989e-2 1.8036072144288484e-2,-0.1302414724966392 2.2044088176352616e-2,-0.17384640735637436 2.605210420841675e-2,-0.29957299094136036 3.006012024048088e-2,-0.4285464772355907 3.406813627254501e-2,-0.4695835169655538 3.8076152304609145e-2,-0.16502022084894408 4.208416833667328e-2,-0.13852825675572122 4.609218436873741e-2,-4.797293839052308e-2 5.010020040080154e-2,-8.207128683620268e-2 5.4108216432865675e-2,-2.0528787026453332e-2 5.811623246492981e-2,1.7911773215842586e-2 6.212424849699394e-2,-1.3984624331224604e-2 6.613226452905807e-2,-9.812519950013432e-2 7.01402805611222e-2,0.10111561464256347 7.414829659318634e-2,-0.15532834204897017 7.815631262525047e-2,-0.1657063886610739 8.21643286573146e-2,-0.10450694918101144 8.617234468937873e-2,-0.14526749292160612 9.018036072144286e-2,-0.11744950323720149 9.4188376753507e-2,-5.1969587284473984e-2 9.819639278557113e-2,6.60861316476028e-2 0.10220440881763526,5.166152727611417e-2 0.1062124248496994,5.757437184456288e-2 0.11022044088176353,6.320598609966349e-2 0.11422845691382766,0.10301645530559711 0.11823647294589179,9.268316891396938e-2 0.12224448897795592,-1.9248125326328802e-2 0.12625250501002006,1.2518983312482856e-2 0.13026052104208397,-9.748634494405994e-3 0.1342685370741481,8.36082409537911e-2 0.13827655310621223,4.411355978690262e-2 0.14228456913827636,2.4854293601121957e-2 0.1462925851703405,-4.905319151107479e-2 0.15030060120240463,-4.28728069118367e-2 0.15430861723446876,-4.966407257520411e-2 0.1583166332665329,0.1402243532670709 0.16232464929859702,5.6079929423613006e-2 0.16633266533066116,1.4372746800758451e-2 0.1703406813627253,9.650929594907448e-2 0.17434869739478942,8.442355068884394e-2 0.17835671342685355,6.881335429531421e-2 0.18236472945891768,-0.1526790571558556 0.18637274549098182,-0.21979613733487646 0.19038076152304595,9.146468922170803e-3 0.19438877755511008,-8.913384858868689e-2 0.1983967935871742,-0.22692426090434115 0.20240480961923835,-0.23080342890496774 0.20641282565130248,-0.24023253763974917 0.2104208416833666,-0.21185170990324753 0.21442885771543074,-0.14724678045453365 0.21843687374749488,-0.19183537403711304 0.222444889779559,-0.2258186838895162 0.22645290581162314,-0.25738462802043094 0.23046092184368727,-0.21019744662954065 0.2344689378757514,-0.1635492196450592 0.23847695390781554,-0.1843649572825986 0.24248496993987967,-0.16935425913504876 0.2464929859719438,-9.867879914913447e-2 0.25050100200400793,-0.10742581226436188 0.25450901803607207,-7.114826548779674e-2 0.2585170340681362,-4.789167696282004e-2 0.26252505010020033,-5.344743617170433e-2 0.26653306613226446,-1.7479957484686448e-2 0.2705410821643286,-1.4743032183183402e-2 0.2745490981963927,2.0839692277953292e-2 0.27855711422845686,-3.73662442418673e-2 0.282565130260521,-7.739938587819983e-2 0.2865731462925851,-0.12437858232543098 0.29058116232464926,-0.14702831140392691 0.2945891783567134,-0.14072593327256366 0.2985971943887775,-0.12791501713293052 0.30260521042084165,-0.13536296585606833 0.3066132264529058,-0.1299108440610366 0.3106212424849699,-0.13003851917129894 0.31462925851703405,-0.1040836606865696 0.3186372745490982,-0.10245659138539609 0.3226452905811623,-7.382419063099832e-2 0.32665330661322645,-7.662585856516835e-2 0.3306613226452906,-8.332341982015445e-2 0.3346693386773545,-9.773267199463131e-2 0.3386773547094186,-0.10113458989983581 0.34268537074148275,-8.771176943458192e-2 0.3466933867735469,-5.922891562916566e-2 0.350701402805611,-1.5585300503523802e-2 0.35470941883767515,-6.786610274208238e-3 0.3587174348697393,4.1355647864182055e-2 0.3627254509018034,1.7879901061857828e-2 0.36673346693386755,-2.6071036793232638e-2 0.3707414829659317,-2.6451121702151803e-2 0.3747494989979958,6.640221195230056e-3 0.37875751503005994,1.5890229858712857e-2 0.3827655310621241,5.64586600377307e-2 0.3867735470941882,3.6741084644319466e-2 0.39078156312625234,-3.293269732527904e-2 0.3947895791583165,-0.12883599468459284 0.3987975951903806,-9.160101389324016e-2 0.40280561122244474,-0.1710987105466496 0.40681362725450887,-0.14205037714451985 0.410821643286573,-4.493612613222209e-2 0.41482965931863713,6.395683882480685e-3 0.41883767535070127,-7.288768391982914e-2 0.4228456913827654,2.042900354919097e-2 0.42685370741482953,-1.2343929240382745e-2 0.43086172344689366,-5.729914311043516e-2 0.4348697394789578,-0.1545603191008288 0.4388777555110219,-0.17548262480352494 0.44288577154308606,-0.1801875415375287 0.4468937875751502,-4.15386456391198e-2 0.4509018036072143,-0.17696582172186748 0.45490981963927846,-0.20107807624876717 0.4589178356713426,-0.3119313640064735 0.4629258517034067,-0.22221245881106022 0.46693386773547085,-6.63395447294236e-2 0.470941883767535,-0.19759516900840868 0.4749498997995991,0.14699142725243547 0.47895791583166325,9.319021724179594e-2 0.4829659318637274,-7.489340858223703e-2 0.4869739478957915,-0.2023502248543234 0.49098196392785565,-0.10868537429045844 0.4949899799599198,-0.18892780305733547 0.4989979959919839,-0.1844685593232035 0.503006012024048,6.99314672721234e-2 0.5070140280561122,-4.1516608362694774e-2 0.5110220440881763,-1.8227362889693066e-2 0.5150300601202404,-7.66050497813856e-2 0.5190380761523046,-0.15846125590730653 0.5230460921843687,-0.16219314243257488 0.5270541082164328,-0.11070251479074045 0.531062124248497,-0.1592552892987269 0.5350701402805611,-0.20483481634604683 0.539078156312625,-0.20443036031253903 0.5430861723446891,-0.1996243698998731 0.5470941883767533,-0.19755880198120623 0.5511022044088174,-0.20533099119023923 0.5551102204408815,-0.20745284150362964 0.5591182364729457,-0.20565563698554057 0.5631262525050098,-0.20438706183980426 0.5671342685370739,-0.2015864460298653 0.5711422845691381,-0.20330719993208157 0.5751503006012022,-0.20681800241224768 0.5791583166332663,-0.22722673674496974 0.5831663326653305,-0.2313580093684987 0.5871743486973946,-0.26860469399077835 0.5911823647294587,-0.22160494020011745 0.5951903807615229,-0.23925671795045322 0.599198396793587,-0.27426300549349003 0.6032064128256511,-0.22455296474038766 0.6072144288577153,-0.28563207168564586 0.6112224448897794,-0.2977817188378772 0.6152304609218435,-0.25761411222313546 0.6192384769539077,-0.18160674523930864 0.6232464929859718,-0.17757537982482818 0.6272545090180359,-0.14682849896384642 0.6312625250501,-0.13946096026524912 0.6352705410821642,-0.13825538422510164 0.6392785571142283,-0.12268755966908129 0.6432865731462925,-0.1209551217748327 0.6472945891783566,-0.10229751989540758 0.6513026052104207,-0.10218016618216696 0.6553106212424848,-9.832407969607837e-2 0.659318637274549,-0.10681921980791609 0.6633266533066131,-7.809891212406661e-2 0.6673346693386772,-9.241355019135089e-2 0.6713426853707414,-8.054354943108122e-2 0.6753507014028055,-7.294969764177639e-2 0.6793587174348696,-4.668918767223884e-2 0.6833667334669338,-4.239051053431031e-3 0.6873747494989979,-2.2352913657575635e-2 0.691382765531062,1.437466905274687e-3 0.6953907815631262,-4.542064826782721e-2 0.6993987975951903,7.176873999124228e-2 0.7034068136272544,9.82387116116013e-2 0.7074148296593186,6.451256002508116e-2 0.7114228456913827,5.50118537102714e-2 0.7154308617234468,7.655874292710552e-2 0.719438877755511,9.607744151458303e-2 0.7234468937875751,3.3663066893194205e-2 0.7274549098196392,3.874391124076798e-2 0.7314629258517034,2.581953895181832e-2 0.7354709418837675,1.5404687015463825e-2 0.7394789579158316,0.17491621519024841 0.7434869739478958,0.14964884617838187 0.7474949899799597,9.670304053781431e-2 0.7515030060120238,-3.304669375364e-2 0.7555110220440879,-0.10107285860253878 0.7595190380761521,-6.953169464863296e-2 0.7635270541082162,0.11921379295260354 0.7675350701402803,0.14003111684718372 0.7715430861723445,0.21655327952492487 0.7755511022044086,5.754443461817521e-2 0.7795591182364727,-0.158145662981229 0.7835671342685369,-0.2604529399659353 0.787575150300601,-0.1489504283109705 0.7915831663326651,-0.1369337924837064 0.7955911823647293,2.1810336754264414e-2 0.7995991983967934,-2.9370242742901898e-2 0.8036072144288575,-5.577467023922078e-2 0.8076152304609217,-2.3345816808853503e-2 0.8116232464929858,0.11000089433697147 0.8156312625250499,9.299393428411495e-2 0.819639278557114,0.182510274538299 0.8236472945891782,0.16487857483556018 0.8276553106212423,0.13362876584107997 0.8316633266533064,0.1878427510072045 0.8356713426853706,0.2501890887496571 0.8396793587174347,0.2329190606667929 0.8436873747494988,0.19129642258602625 0.847695390781563,0.2721694757054668 0.8517034068136271,0.2297135206703706 0.8557114228456912,5.016897456526542e-2 0.8597194388777554,8.292937720625126e-2 0.8637274549098195,0.22699934113547832 0.8677354709418836,8.960521970479846e-2 0.8717434869739478,0.11292930243435739 0.8757515030060119,6.64819406071217e-2 0.879759519038076,0.11279538698530339 0.8837675350701402,0.17918649963668487 0.8877755511022043,0.12775198933801235 0.8917835671342684,0.19082571459345965 0.8957915831663326,0.15755334254455033 0.8997995991983967,0.16138504148838545 0.9038076152304608,0.24653830631798207 0.907815631262525,0.26601622869076674 0.9118236472945891,0.2073697914386255 0.9158316633266532,0.19000236258487013 0.9198396793587174,0.18247369003497027 0.9238476953907815,4.400126678976629e-2 0.9278557114228456,4.3899406327129575e-2 0.9318637274549098,-2.9997976455713227e-2 0.9358717434869739,-1.10101005716563e-2 0.939879759519038,-3.3043036066411235e-2 0.9438877755511021,0.13316137990851318 0.9478957915831663,3.2408704034597835e-2 0.9519038076152302,-0.11261764818333642 0.9559118236472943,-0.2323095684553479 0.9599198396793585,-0.25852636317534883 0.9639278557114226,-0.15091771186611025 0.9679358717434867,-0.2155036709135708 0.9719438877755509,-0.21741072321863797 0.975951903807615,-0.2580291125885684 0.9799599198396791,-0.22239952156662668 0.9839679358717432,-0.22422649211462753 0.9879759519038074,-0.1878856597555686 0.9919839679358715,-0.20079323942693028 0.9959919839679356,-0.1686547027490738 0.9999999999999998,-8.904677814201589e-2" /></g><g stroke-width="5.0e-3" stroke="#382A8C" fill="none" stroke-opacity="0.5"><polyline points="-1.0,6.923184655309988e-2 -0.9959919839679359,0.11421174740105228 -0.9919839679358717,0.16572330607796948 -0.9879759519038076,0.1486980817947534 -0.9839679358717435,0.11145918594580029 -0.9799599198396793,0.10404130393967398 -0.9759519038076152,0.10784901614834869 -0.9719438877755511,9.444531451570115e-2 -0.9679358717434869,4.236132507150048e-2 -0.9639278557114228,4.9562508065700506e-2 -0.9599198396793587,7.467008683075133e-2 -0.9559118236472945,9.681650886219162e-2 -0.9519038076152304,0.10152659322412899 -0.9478957915831663,9.795144460835681e-2 -0.9438877755511023,0.14687100090103572 -0.9398797595190381,0.14359702963999282 -0.935871743486974,0.1510365807861661 -0.9318637274549099,0.22640384805168629 -0.9278557114228457,0.28859458122652937 -0.9238476953907816,0.19666063461791083 -0.9198396793587175,0.25343669959446613 -0.9158316633266533,0.263507475138931 -0.9118236472945892,0.21668372537029118 -0.9078156312625251,0.28529582642063994 -0.9038076152304609,0.24169686284555258 -0.8997995991983968,0.20310164612043052 -0.8957915831663327,0.181072489700092 -0.8917835671342685,0.24959169576394102 -0.8877755511022044,0.2386895513038832 -0.8837675350701403,0.1846565753114972 -0.8797595190380761,0.20315762954193606 -0.875751503006012,0.17745631821546431 -0.8717434869739479,0.18734908973010517 -0.8677354709418837,0.1629701290478282 -0.8637274549098196,0.1317234454596759 -0.8597194388777555,0.1304331013836298 -0.8557114228456915,0.14895852693405176 -0.8517034068136273,0.1752922952877643 -0.8476953907815632,0.175887559886807 -0.8436873747494991,0.21446773444643608 -0.8396793587174349,0.20952853390290999 -0.8356713426853708,0.18041647170353237 -0.8316633266533067,0.17797004750852513 -0.8276553106212425,0.20103215905877536 -0.8236472945891784,0.19452422564182775 -0.8196392785571143,0.2141132312837124 -0.8156312625250501,0.22034796888582148 -0.811623246492986,0.1870815964408145 -0.8076152304609219,0.17868260063379476 -0.8036072144288577,0.1799922192862019 -0.7995991983967936,0.15659269950250415 -0.7955911823647295,0.1346238556087273 -0.7915831663326653,0.1314977218196709 -0.7875751503006012,0.1304344436518432 -0.7835671342685371,0.1478027370145329 -0.779559118236473,0.13928145083361093 -0.7755511022044088,0.1421759304862224 -0.7715430861723447,0.1489816628141477 -0.7675350701402806,0.13383141110237268 -0.7635270541082164,0.14160329321955412 -0.7595190380761523,0.13560975709794376 -0.7555110220440882,0.14071876248039344 -0.751503006012024,0.1463453045441287 -0.7474949899799599,0.17010082210706268 -0.7434869739478958,0.1459559863272608 -0.7394789579158316,0.1604910991885642 -0.7354709418837675,0.14029837769797654 -0.7314629258517034,0.13245247541608118 -0.7274549098196392,0.1319756364385849 -0.7234468937875751,0.11735266810016348 -0.719438877755511,0.11965967805866029 -0.7154308617234469,0.11505455576948298 -0.7114228456913828,0.11415158394644442 -0.7074148296593187,0.11214794693265173 -0.7034068136272545,0.1198624119821915 -0.6993987975951904,0.11675462433720435 -0.6953907815631263,0.11920148043339529 -0.6913827655310621,0.12325603022061993 -0.687374749498998,0.13000163311665908 -0.6833667334669339,0.12821488907954437 -0.6793587174348698,0.13781209253785964 -0.6753507014028056,0.13584412105553495 -0.6713426853707415,0.15471071142812182 -0.6673346693386774,0.1520988325264087 -0.6633266533066133,0.16379675094013818 -0.6593186372745492,0.15611621888051264 -0.6553106212424851,0.15548378079697744 -0.6513026052104209,0.15209730719942527 -0.6472945891783568,0.15826787800257258 -0.6432865731462927,0.14898709972500546 -0.6392785571142285,0.14012743774028175 -0.6352705410821644,0.13119971961060412 -0.6312625250501003,0.12797987274346118 -0.6272545090180361,0.13626861766907955 -0.623246492985972,0.1280991587390174 -0.6192384769539079,0.12753302355135682 -0.6152304609218437,0.12906176932952224 -0.6112224448897796,0.1259495892413081 -0.6072144288577155,0.12455212199828841 -0.6032064128256514,0.12841819139472727 -0.5991983967935872,0.12958933018220736 -0.5951903807615231,0.12861614036619534 -0.591182364729459,0.12580997116632375 -0.5871743486973948,0.12082956874796502 -0.5831663326653307,0.12330137992038531 -0.5791583166332666,0.12795523356393562 -0.5751503006012024,0.13188313004840052 -0.5711422845691383,0.12951473656448176 -0.5671342685370742,0.1303479082179813 -0.56312625250501,0.1283775224752275 -0.5591182364729459,0.12670649304297926 -0.5551102204408818,0.12560205834923183 -0.5511022044088176,0.12486925149371653 -0.5470941883767535,0.1251428817930324 -0.5430861723446894,0.1256770253549187 -0.5390781563126252,0.12756622327009604 -0.5350701402805611,0.1285675544684174 -0.531062124248497,0.12788981803737337 -0.5270541082164328,0.12938621416489848 -0.5230460921843687,0.1287315575115412 -0.5190380761523046,0.12841605292806857 -0.5150300601202404,0.1282838430079089 -0.5110220440881764,0.1282526263456195 -0.5070140280561123,0.12823662869506908 -0.5030060120240482,0.12809433511890317 -0.498997995991984,0.12903386634087916 -0.4949899799599199,0.13043303845633863 -0.49098196392785576,0.13036710772571208 -0.4869739478957916,0.13160381254801667 -0.4829659318637275,0.13051018534115172 -0.47895791583166336,0.13036125578354257 -0.47494989979959923,0.12962605348804357 -0.4709418837675351,0.128387788230919 -0.46693386773547096,0.1267007628534647 -0.46292585170340683,0.1254677181976515 -0.4589178356713427,0.12617041471964008 -0.45490981963927857,0.12804735271865603 -0.45090180360721444,0.12790004712521835 -0.4468937875751503,0.13120510496390153 -0.44288577154308617,0.13094810292171954 -0.43887775551102204,0.12650242224194214 -0.434869739478958,0.13036167728775566 -0.4308617234468939,0.13086894422754342 -0.42685370741482975,0.13736192200252273 -0.4228456913827656,0.13646022621411796 -0.4188376753507015,0.1327585643839554 -0.41482965931863736,0.13094297142274097 -0.4108216432865732,0.12715143783765098 -0.4068136272545091,0.12943927432132118 -0.40280561122244496,0.12876760174971197 -0.3987975951903808,0.13232779944588058 -0.3947895791583167,0.13109708321056168 -0.39078156312625256,0.131205799298849 -0.38677354709418843,0.12032154848969595 -0.3827655310621243,0.11311226128629714 -0.37875751503006017,0.1120235846987871 -0.37474949899799603,0.10957685169874615 -0.3707414829659319,8.4194679323635e-2 -0.36673346693386777,9.157065906848605e-2 -0.36272545090180364,8.833843146623294e-2 -0.3587174348697395,9.192238208838577e-2 -0.35470941883767537,8.721934223854672e-2 -0.35070140280561124,8.757478925420864e-2 -0.3466933867735471,0.10059273555107573 -0.342685370741483,0.10093107130463791 -0.33867735470941884,0.10449341020348174 -0.3346693386773547,0.10884354422022852 -0.3306613226452907,0.13571082870832563 -0.32665330661322656,0.11485379017444386 -0.3226452905811624,0.1395067687583741 -0.3186372745490983,0.14860142558188494 -0.31462925851703416,0.12730854588349239 -0.31062124248497003,0.11186119489425828 -0.3066132264529059,9.712753009707908e-2 -0.30260521042084176,0.10671132292391972 -0.29859719438877763,9.877424142471658e-2 -0.2945891783567135,9.029347649455788e-2 -0.29058116232464937,6.696497299343235e-2 -0.28657314629258523,7.118061690844718e-2 -0.2825651302605211,8.588871547908272e-2 -0.27855711422845697,0.11736200869575075 -0.27454909819639284,0.11952793751549262 -0.2705410821643287,0.1310649491276233 -0.2665330661322646,0.1158533405267359 -0.26252505010020044,0.11248449595061977 -0.2585170340681363,0.1374901652181898 -0.2545090180360722,0.16458956058977153 -0.25050100200400804,0.15922637039517284 -0.2464929859719439,0.16865017700064366 -0.24248496993987978,0.14569180276812332 -0.23847695390781565,0.1403353120227926 -0.23446893787575152,0.10965300005372525 -0.2304609218436875,0.11319302376636442 -0.22645290581162336,0.1008561846937131 -0.22244488977955923,8.516721297550112e-2 -0.2184368737474951,0.13936030920982467 -0.21442885771543096,0.14179415172311582 -0.21042084168336683,0.18200583747792165 -0.2064128256513027,0.17799436670421237 -0.20240480961923857,0.17792238368710467 -0.19839679358717444,0.16772909214755116 -0.1943887775551103,0.16749131253423372 -0.19038076152304617,0.19818452793781843 -0.18637274549098204,0.23087468872731365 -0.1823647294589179,0.22941728216779828 -0.17835671342685377,0.2533048966568255 -0.17434869739478964,0.27716326997829377 -0.1703406813627255,0.3067104746257637 -0.16633266533066138,0.3427414488932956 -0.16232464929859725,0.23428675681736988 -0.1583166332665331,0.21331622265047212 -0.15430861723446898,0.21407719345033815 -0.15030060120240485,0.19417079827439188 -0.14629258517034072,0.18985904080391997 -0.14228456913827658,0.2365697375585572 -0.13827655310621245,0.16451907234224178 -0.13426853707414832,0.1480880535904724 -0.1302605210420842,0.1265947038791616 -0.12625250501002017,0.11703984066628104 -0.12224448897795603,0.10689364302867022 -0.1182364729458919,0.10638283306243995 -0.11422845691382777,0.11621990120646442 -0.11022044088176364,9.497782708211644e-2 -0.1062124248496995,9.004717772972448e-2 -0.10220440881763537,7.5404922213064e-2 -9.819639278557124e-2,5.176034380562855e-2 -9.418837675350711e-2,7.945058103950192e-2 -9.018036072144298e-2,7.496617661652377e-2 -8.617234468937884e-2,7.209304941388578e-2 -8.216432865731471e-2,5.7234465213974295e-2 -7.815631262525058e-2,7.13166990229161e-2 -7.414829659318645e-2,7.352625330094908e-2 -7.014028056112231e-2,4.912073227651975e-2 -6.613226452905818e-2,3.525782406574873e-2 -6.212424849699405e-2,3.3837684763331655e-2 -5.811623246492992e-2,2.3377115208194688e-2 -5.4108216432865786e-2,1.6275786480457466e-2 -5.010020040080165e-2,2.0088212912624137e-2 -4.609218436873752e-2,3.561444901840588e-2 -4.208416833667339e-2,3.466412413302372e-2 -3.8076152304609256e-2,3.369825013187011e-2 -3.4068136272545124e-2,1.7250389592619764e-2 -3.0060120240480992e-2,1.329680833055219e-2 -2.605210420841686e-2,1.7386782948839774e-2 -2.204408817635284e-2,4.398380948482605e-3 -1.8036072144288706e-2,2.799639267626386e-3 -1.4028056112224574e-2,9.091148222022949e-4 -1.0020040080160442e-2,5.974750146421959e-3 -6.012024048096309e-3,-1.0423227355781384e-3 -2.004008016032177e-3,-2.10116748934408e-3 2.004008016031955e-3,-7.575119074049175e-4 6.012024048096087e-3,2.45431830588394e-4 1.002004008016022e-2,3.81381117451679e-3 1.4028056112224352e-2,-2.470727136639761e-3 1.8036072144288484e-2,2.1264556734693074e-3 2.2044088176352616e-2,3.5901626031878964e-3 2.605210420841675e-2,1.0724886330672534e-2 3.006012024048088e-2,1.9368097037788523e-2 3.406813627254501e-2,2.1494278089809415e-2 3.8076152304609145e-2,1.1908994483543711e-2 4.208416833667328e-2,9.658254209120976e-3 4.609218436873741e-2,4.718185226055882e-3 5.010020040080154e-2,5.7458296751045634e-3 5.4108216432865675e-2,2.4882770044453717e-3 5.811623246492981e-2,2.1267671973651536e-4 6.212424849699394e-2,6.150465975914843e-4 6.613226452905807e-2,3.0265046593508926e-3 7.01402805611222e-2,-1.776735513633776e-3 7.414829659318634e-2,1.5845353530446582e-2 7.815631262525047e-2,1.6660758408683474e-2 8.21643286573146e-2,1.2807910489896879e-2 8.617234468937873e-2,1.633034148305723e-2 9.018036072144286e-2,1.4518758031607792e-2 9.4188376753507e-2,1.1527809514801202e-2 9.819639278557113e-2,7.447135310123032e-3 0.10220440881763526,7.7184144183721215e-3 0.1062124248496994,6.951738154163056e-3 0.11022044088176353,6.283882171294886e-3 0.11422845691382766,4.8597757510819295e-3 0.11823647294589179,4.6887355162119615e-3 0.12224448897795592,7.63445603763474e-3 0.12625250501002006,6.856299399163712e-3 0.13026052104208397,7.000497516137849e-3 0.1342685370741481,6.207653195198115e-3 0.13827655310621223,6.48291974127968e-3 0.14228456913827636,6.496822751749842e-3 0.1462925851703405,6.970719287248295e-3 0.15030060120240463,6.909366264137462e-3 0.15430861723446876,6.897442751406968e-3 0.1583166332665329,8.12149552528274e-3 0.16232464929859702,8.201518653048412e-3 0.16633266533066116,8.157932514359867e-3 0.1703406813627253,8.865018270234504e-3 0.17434869739478942,8.924993863662245e-3 0.17835671342685355,8.978604356205455e-3 0.18236472945891768,8.301860841581854e-3 0.18637274549098182,7.78663784237843e-3 0.19038076152304595,1.1756809801342305e-2 0.19438877755511008,1.078735958902044e-2 0.1983967935871742,1.0768291257252205e-2 0.20240480961923835,1.044072302791399e-2 0.20641282565130248,9.828994522303569e-3 0.2104208416833666,1.0956627806909036e-2 0.21442885771543074,1.3976475528761023e-2 0.21843687374749488,1.5327710127124028e-2 0.222444889779559,1.616560860888483e-2 0.22645290581162314,1.811034006299428e-2 0.23046092184368727,1.8154886149229665e-2 0.2344689378757514,1.813276433172406e-2 0.23847695390781554,2.037684645959692e-2 0.24248496993987967,2.0068717144721415e-2 0.2464929859719438,2.0241054348067722e-2 0.25050100200400793,2.044747384611051e-2 0.25450901803607207,1.9958328659630875e-2 0.2585170340681362,1.9338335288740738e-2 0.26252505010020033,1.987367365593745e-2 0.26653306613226446,1.9324094314970452e-2 0.2705410821643286,1.8863822139324804e-2 0.2745490981963927,3.141729063452475e-2 0.27855711422845686,3.291429449562738e-2 0.282565130260521,3.391021028716179e-2 0.2865731462925851,3.6514244991357636e-2 0.29058116232464926,3.7210908654470576e-2 0.2945891783567134,3.7119300872153926e-2 0.2985971943887775,3.677129265332402e-2 0.30260521042084165,3.780231827151148e-2 0.3066132264529058,3.7343249150563806e-2 0.3106212424849699,3.751656737080239e-2 0.31462925851703405,4.20068656954104e-2 0.3186372745490982,4.2960461168027375e-2 0.3226452905811623,4.753115977754635e-2 0.32665330661322645,4.6869127211403794e-2 0.3306613226452906,4.5958980024863316e-2 0.3346693386773545,4.272408238683739e-2 0.3386773547094186,4.200093643788938e-2 0.34268537074148275,4.387028442410157e-2 0.3466933867735469,4.71323290441103e-2 0.350701402805611,5.19116696245806e-2 0.35470941883767515,5.335287262956495e-2 0.3587174348697393,5.843245532851277e-2 0.3627254509018034,5.692478084671426e-2 0.36673346693386755,5.359686041652201e-2 0.3707414829659317,5.405570366168638e-2 0.3747494989979958,5.722356560049041e-2 0.37875751503005994,5.856458158590033e-2 0.3827655310621241,6.210180075469862e-2 0.3867735470941882,6.16456704231334e-2 0.39078156312625234,5.808802373143196e-2 0.3947895791583165,5.1957257094653875e-2 0.3987975951903806,5.499848731251161e-2 0.40280561122244474,4.885177928025669e-2 0.40681362725450887,5.1271136899219194e-2 0.410821643286573,5.8549404670554195e-2 0.41482965931863713,6.318417060765463e-2 0.41883767535070127,5.7052543523827715e-2 0.4228456913827654,6.541356066092718e-2 0.42685370741482953,6.284467891781315e-2 0.43086172344689366,5.9125817622530885e-2 0.4348697394789578,4.7084357700773294e-2 0.4388777555110219,3.757439374561572e-2 0.44288577154308606,2.991070542755908e-2 0.4468937875751502,1.5167755780276682e-2 0.4509018036072143,2.4418746833158755e-2 0.45490981963927846,2.468357227244633e-2 0.4589178356713426,3.8851875351693155e-2 0.4629258517034067,3.750085693973049e-2 0.46693386773547085,3.601577369085568e-2 0.470941883767535,4.337437089390056e-2 0.4749498997995991,5.0306988149170895e-2 0.47895791583166325,4.9830911939702405e-2 0.4829659318637274,4.984608378351474e-2 0.4869739478957915,4.889413357152106e-2 0.49098196392785565,5.1810915215497744e-2 0.4949899799599198,5.071402022402999e-2 0.4989979959919839,5.0897822212408905e-2 0.503006012024048,6.36700050062034e-2 0.5070140280561122,6.0215329923509364e-2 0.5110220440881763,6.18006574507135e-2 0.5150300601202404,5.967332718978846e-2 0.5190380761523046,5.677627581119038e-2 0.5230460921843687,5.663218880924453e-2 0.5270541082164328,5.975316698840061e-2 0.531062124248497,5.754259964636588e-2 0.5350701402805611,5.519620852493279e-2 0.539078156312625,5.503039441482871e-2 0.5430861723446891,5.5202077848640174e-2 0.5470941883767533,5.523333603226299e-2 0.5511022044088174,5.425465018987252e-2 0.5551102204408815,5.3841352401776565e-2 0.5591182364729457,5.406344830131343e-2 0.5631262525050098,5.46621000456618e-2 0.5671342685370739,5.454814929099411e-2 0.5711422845691381,5.455443707729801e-2 0.5751503006012022,5.455416871128538e-2 0.5791583166332663,5.4651078565471745e-2 0.5831663326653305,5.4611129799410796e-2 0.5871743486973946,5.451950020696844e-2 0.5911823647294587,5.5705273124751764e-2 0.5951903807615229,5.536619363211015e-2 0.599198396793587,5.466917093932344e-2 0.6032064128256511,5.6027038942180474e-2 0.6072144288577153,5.4909032377964684e-2 0.6112224448897794,5.546495553050318e-2 0.6152304609218435,5.684354008515213e-2 0.6192384769539077,6.047050514298058e-2 0.6232464929859718,6.060424896945704e-2 0.6272545090180359,6.264087855080436e-2 0.6312625250501,6.339534281544634e-2 0.6352705410821642,6.37424387985479e-2 0.6392785571142283,6.514463171888757e-2 0.6432865731462925,6.518664259169832e-2 0.6472945891783566,6.661832197147444e-2 0.6513026052104207,6.659767661171234e-2 0.6553106212424848,6.684974044651892e-2 0.659318637274549,6.654621898203356e-2 0.6633266533066131,6.804926101349518e-2 0.6673346693386772,6.75229041514297e-2 0.6713426853707414,6.812361351472634e-2 0.6753507014028055,6.853992705300149e-2 0.6793587174348696,6.979946099375056e-2 0.6833667334669338,7.184725370687556e-2 0.6873747494989979,7.136743936276368e-2 0.691382765531062,7.260597833625454e-2 0.6953907815631262,7.112113820424021e-2 0.6993987975951903,7.663397775285463e-2 0.7034068136272544,7.827602960266988e-2 0.7074148296593186,7.73531784863542e-2 0.7114228456913827,7.741500786318678e-2 0.7154308617234468,7.880215276124924e-2 0.719438877755511,8.014817761226661e-2 0.7234468937875751,7.836068982831412e-2 0.7274549098196392,7.90961487448153e-2 0.7314629258517034,7.916939377699878e-2 0.7354709418837675,7.935445883307524e-2 0.7394789579158316,8.630210432973628e-2 0.7434869739478958,8.612688954943759e-2 0.7474949899799597,8.490248486764707e-2 0.7515030060120238,8.06292561112345e-2 0.7555110220440879,7.836255380525026e-2 0.7595190380761521,8.01015008555121e-2 0.7635270541082162,8.84735209180792e-2 0.7675350701402803,9.022289540012413e-2 0.7715430861723445,9.449974660326299e-2 0.7755511022044086,8.884485997987285e-2 0.7795591182364727,7.809688199916265e-2 0.7835671342685369,6.985186099749319e-2 0.787575150300601,7.746045270650781e-2 0.7915831663326651,7.86175674309954e-2 0.7955911823647293,9.059793765991869e-2 0.7995991983967934,8.579703007860645e-2 0.8036072144288575,8.35153629098157e-2 0.8076152304609217,8.671967833990651e-2 0.8116232464929858,9.86364859614276e-2 0.8156312625250499,9.771042699012067e-2 0.819639278557114,0.10748453607349862 0.8236472945891782,0.1068183342327595 0.8276553106212423,0.10497311066835663 0.8316633266533064,0.11091408047400847 0.8356713426853706,0.11773354992091434 0.8396793587174347,0.11776157657300812 0.8436873747494988,0.11598587716773762 0.847695390781563,0.1236516763790737 0.8517034068136271,0.1221366232061114 0.8557114228456912,0.11023481137562136 0.8597194388777554,0.1142221404299309 0.8637274549098195,0.12885090701508212 0.8677354709418836,0.11439745029999843 0.8717434869739478,0.11947648622643398 0.8757515030060119,0.11264535462734049 0.879759519038076,0.1206905578283779 0.8837675350701402,0.13230313199795024 0.8877755511022043,0.12491799755837496 0.8917835671342684,0.1374070571256097 0.8957915831663326,0.13247035561577036 0.8997995991983967,0.13446617200203048 0.9038076152304608,0.15043768683846165 0.907815631262525,0.1564957792689951 0.9118236472945891,0.1486039766476256 0.9158316633266532,0.1470758012071784 0.9198396793587174,0.14743932398142795 0.9238476953907815,0.12499136938726002 0.9278557114228456,9.182780631664023e-2 0.9318637274549098,0.1101603628260992 0.9358717434869739,0.10714468663420679 0.939879759519038,0.11158395156029693 0.9438877755511021,8.110778623740439e-2 0.9478957915831663,9.1770872779533e-2 0.9519038076152302,0.11528010222723617 0.9559118236472943,0.12992653912437413 0.9599198396793585,0.13301763197038746 0.9639278557114226,0.12481479909768622 0.9679358717434867,0.13362423220135944 0.9719438877755509,0.13460573810226578 0.975951903807615,0.14240531009778207 0.9799599198396791,0.13866511610186805 0.9839679358717432,0.1399103555203403 0.9879759519038074,0.13401286833524334 0.9919839679358715,0.13989770491849868 0.9959919839679356,0.13232562008910065 0.9999999999999998,0.1148297327954712" /></g><g /><g stroke-width="4.0e-3" stroke="#3764A0" fill="#FFFFFF" fill-opacity="1.0" stroke-opacity="0.5"><rect width="0.3881504204398447" height="0.25552060514099917" x="0.3884172897800776" y="8.996628921274516e-2" /></g><g stroke-width="0.0" stroke="none" fill="#666666" fill-opacity="1.0" font-size="4.000000000000001e-2" text-anchor="start"><text x="0.4110830077619664" y="0.2960701735481737">rate = 0.99</text></g><g stroke-width="5.0e-3" stroke="#382A8C" fill="none" stroke-opacity="0.5"><polyline points="0.70573734152652,0.28811528678435017 0.7510687774902974,0.28811528678435017" /></g><g stroke-width="0.0" stroke="none" fill="#666666" fill-opacity="1.0" font-size="4.000000000000001e-2" text-anchor="start"><text x="0.4110830077619664" y="0.22736887876969752">rate = 0.95</text></g><g stroke-width="5.0e-3" stroke="#3C7F2B" fill="none" stroke-opacity="0.5"><polyline points="0.70573734152652,0.219413992005874 0.7510687774902974,0.219413992005874" /></g><g stroke-width="0.0" stroke="none" fill="#666666" fill-opacity="1.0" font-size="4.000000000000001e-2" text-anchor="start"><text x="0.4110830077619664" y="0.15866758399122136">zero</text></g><g stroke-width="5.0e-3" stroke="#C58C4B" fill="none" stroke-opacity="0.5"><polyline points="0.70573734152652,0.15071269722739777 0.7510687774902974,0.15071269722739777" /></g><g /></svg>