<svg viewBox="-0.8833626921176594 -0.68275 1.3908626921176594 1.486260262610592" xmlns="http://www.w3.org/2000/svg" xmlns:xlink="http://www.w3.org/1999/xlink" version="1.1" width="600.0" height="400.0"><g stroke-width="0.0" stroke="none" fill="#000000" transform="translate(-0.8278626921176594, 6.038013130529607e-2)" fill-opacity="1.0" font-size="6.0e-2" text-anchor="middle"><text transform="rotate(-90.0, 0.0, -0.0)" x="0.0" y="-0.0">ma</text></g><g stroke-width="0.0" stroke="none" fill="#000000" transform="translate(-0.1401813460588297, 0.7720102626105921)" fill-opacity="1.0" font-size="6.0e-2" text-anchor="middle"><text transform="rotate(0.0, 0.0, -0.0)" x="0.0" y="-0.0">std</text></g><g stroke-width="0.0" stroke="none" fill="#000000" transform="translate(-0.1401813460588297, -0.57175)" fill-opacity="1.0" font-size="0.12" text-anchor="middle"><text transform="rotate(0.0, 0.0, -0.0)" x="0.0" y="-0.0">std vs ma</text></g><g stroke-width="0.0" stroke="#000000" fill="#666666" fill-opacity="3.0e-2" stroke-opacity="0.0"><rect width="1.0" height="1.0" x="-0.5" y="-0.5" /></g><g stroke-width="5.0e-3" stroke="#A8E5EE" fill="none" stroke-opacity="0.3"><polyline points="-0.505,0.5 0.505,0.5" /></g><g stroke-width="5.0e-3" stroke="#A8E5EE" fill="none" stroke-opacity="0.3"><polyline points="-0.505,0.375 0.505,0.375" /></g><g stroke-width="5.0e-3" stroke="#A8E5EE" fill="none" stroke-opacity="0.3"><polyline points="-0.505,0.25 0.505,0.25" /></g><g stroke-width="5.0e-3" stroke="#A8E5EE" fill="none" stroke-opacity="0.3"><polyline points="-0.505,0.125 0.505,0.125" /></g><g stroke-width="5.0e-3" stroke="#A8E5EE" fill="none" stroke-opacity="0.3"><polyline points="-0.505,-0.0 0.505,-0.0" /></g><g stroke-width="5.0e-3" stroke="#A8E5EE" fill="none" stroke-opacity="0.3"><polyline points="-0.505,-0.125 0.505,-0.125" /></g><g stroke-width="5.0e-3" stroke="#A8E5EE" fill="none" stroke-opacity="0.3"><polyline points="-0.505,-0.25 0.505,-0.25" /></g><g stroke-width="5.0e-3" stroke="#A8E5EE" fill="none" stroke-opacity="0.3"><polyline points="-0.505,-0.375 0.505,-0.375" /></g><g stroke-width="5.0e-3" stroke="#A8E5EE" fill="none" stroke-opacity="0.3"><polyline points="-0.505,-0.5 0.505,-0.5" /></g><g stroke-width="0.0" stroke="none" fill="#666666" fill-opacity="1.0" font-size="5.0e-2" text-anchor="end"><text x="-0.6128626921176593" y="0.5145">-1.4e-2</text></g><g stroke-width="0.0" stroke="none" fill="#666666" fill-opacity="1.0" font-size="5.0e-2" text-anchor="end"><text x="-0.6128626921176593" y="0.3895">-1.2e-2</text></g><g stroke-width="0.0" stroke="none" fill="#666666" fill-opacity="1.0" font-size="5.0e-2" text-anchor="end"><text x="-0.6128626921176593" y="0.2645">-1.0e-2</text></g><g stroke-width="0.0" stroke="none" fill="#666666" fill-opacity="1.0" font-size="5.0e-2" text-anchor="end"><text x="-0.6128626921176593" y="0.1395">-8.0e-3</text></g><g stroke-width="0.0" stroke="none" fill="#666666" fill-opacity="1.0" font-size="5.0e-2" text-anchor="end"><text x="-0.6128626921176593" y="1.4499999999999999e-2">-6.0e-3</text></g><g stroke-width="0.0" stroke="none" fill="#666666" fill-opacity="1.0" font-size="5.0e-2" text-anchor="end"><text x="-0.6128626921176593" y="-0.1105">-4.0e-3</text></g><g stroke-width="0.0" stroke="none" fill="#666666" fill-opacity="1.0" font-size="5.0e-2" text-anchor="end"><text x="-0.6128626921176593" y="-0.2355">-2.0e-3</text></g><g stroke-width="0.0" stroke="none" fill="#666666" fill-opacity="1.0" font-size="5.0e-2" text-anchor="end"><text x="-0.6128626921176593" y="-0.3605">0.0e0</text></g><g stroke-width="0.0" stroke="none" fill="#666666" fill-opacity="1.0" font-size="5.0e-2" text-anchor="end"><text x="-0.6128626921176593" y="-0.4855">2.0e-3</text></g><g stroke-width="0.0" stroke="#2C429D" fill="#5F0391" fill-opacity="1.0" stroke-opacity="0.4"><line stroke-width="5.0e-3" transform="rotate(-90.0, -0.5827876921176592, 0.5)" x1="-0.5827876921176592" y1="0.515" x2="-0.5827876921176592" y2="0.485" /><line stroke-width="5.0e-3" transform="rotate(-90.0, -0.5827876921176592, 0.375)" x1="-0.5827876921176592" y1="0.39" x2="-0.5827876921176592" y2="0.36" /><line stroke-width="5.0e-3" transform="rotate(-90.0, -0.5827876921176592, 0.25)" x1="-0.5827876921176592" y1="0.265" x2="-0.5827876921176592" y2="0.235" /><line stroke-width="5.0e-3" transform="rotate(-90.0, -0.5827876921176592, 0.125)" x1="-0.5827876921176592" y1="0.14" x2="-0.5827876921176592" y2="0.11" /><line stroke-width="5.0e-3" transform="rotate(-90.0, -0.5827876921176592, -0.0)" x1="-0.5827876921176592" y1="1.5e-2" x2="-0.5827876921176592" y2="-1.5e-2" /><line stroke-width="5.0e-3" transform="rotate(-90.0, -0.5827876921176592, -0.125)" x1="-0.5827876921176592" y1="-0.11" x2="-0.5827876921176592" y2="-0.14" /><line stroke-width="5.0e-3" transform="rotate(-90.0, -0.5827876921176592, -0.25)" x1="-0.5827876921176592" y1="-0.235" x2="-0.5827876921176592" y2="-0.265" /><line stroke-width="5.0e-3" transform="rotate(-90.0, -0.5827876921176592, -0.375)" x1="-0.5827876921176592" y1="-0.36" x2="-0.5827876921176592" y2="-0.39" /><line stroke-width="5.0e-3" transform="rotate(-90.0, -0.5827876921176592, -0.5)" x1="-0.5827876921176592" y1="-0.485" x2="-0.5827876921176592" y2="-0.515" /></g><g stroke-width="0.0" stroke="#666666" fill="#5F0391" fill-opacity="0.5" stroke-opacity="0.0"><rect width="5.0000000000000044e-3" height="1.0" x="-0.5727876921176592" y="-0.5" /></g><g stroke-width="5.0e-3" stroke="#A8E5EE" fill="none" stroke-opacity="0.3"><polyline points="-0.5,0.505 -0.5,-0.505" /></g><g stroke-width="5.0e-3" stroke="#A8E5EE" fill="none" stroke-opacity="0.3"><polyline points="-0.4,0.505 -0.4,-0.505" /></g><g stroke-width="5.0e-3" stroke="#A8E5EE" fill="none" stroke-opacity="0.3"><polyline points="-0.3,0.505 -0.3,-0.505" /></g><g stroke-width="5.0e-3" stroke="#A8E5EE" fill="none" stroke-opacity="0.3"><polyline points="-0.2,0.505 -0.2,-0.505" /></g><g stroke-width="5.0e-3" stroke="#A8E5EE" fill="none" stroke-opacity="0.3"><polyline points="-9.999999999999998e-2,0.505 -9.999999999999998e-2,-0.505" /></g><g stroke-width="5.0e-3" stroke="#A8E5EE" fill="none" stroke-opacity="0.3"><polyline points="0.0,0.505 0.0,-0.505" /></g><g stroke-width="5.0e-3" stroke="#A8E5EE" fill="none" stroke-opacity="0.3"><polyline points="9.999999999999998e-2,0.505 9.999999999999998e-2,-0.505" /></g><g stroke-width="5.0e-3" stroke="#A8E5EE" fill="none" stroke-opacity="0.3"><polyline points="0.19999999999999996,0.505 0.19999999999999996,-0.505" /></g><g stroke-width="5.0e-3" stroke="#A8E5EE" fill="none" stroke-opacity="0.3"><polyline points="0.30000000000000004,0.505 0.30000000000000004,-0.505" /></g><g stroke-width="5.0e-3" stroke="#A8E5EE" fill="none" stroke-opacity="0.3"><polyline points="0.40000000000000013,0.505 0.40000000000000013,-0.505" /></g><g stroke-width="5.0e-3" stroke="#A8E5EE" fill="none" stroke-opacity="0.3"><polyline points="0.5,0.505 0.5,-0.505" /></g><g stroke-width="0.0" stroke="none" fill="#666666" fill-opacity="1.0" font-size="4.137931034482759e-2" text-anchor="end"><text transform="rotate(-45.0, -0.5, 0.6000000000000001)" x="-0.5" y="0.6000000000000001">0.000</text></g><g stroke-width="0.0" stroke="none" fill="#666666" fill-opacity="1.0" font-size="4.137931034482759e-2" text-anchor="end"><text transform="rotate(-45.0, -0.4, 0.6000000000000001)" x="-0.4" y="0.6000000000000001">0.002</text></g><g stroke-width="0.0" stroke="none" fill="#666666" fill-opacity="1.0" font-size="4.137931034482759e-2" text-anchor="end"><text transform="rotate(-45.0, -0.3, 0.6000000000000001)" x="-0.3" y="0.6000000000000001">0.004</text></g><g stroke-width="0.0" stroke="none" fill="#666666" fill-opacity="1.0" font-size="4.137931034482759e-2" text-anchor="end"><text transform="rotate(-45.0, -0.2, 0.6000000000000001)" x="-0.2" y="0.6000000000000001">0.006</text></g><g stroke-width="0.0" stroke="none" fill="#666666" fill-opacity="1.0" font-size="4.137931034482759e-2" text-anchor="end"><text transform="rotate(-45.0, -9.999999999999998e-2, 0.6000000000000001)" x="-9.999999999999998e-2" y="0.6000000000000001">0.008</text></g><g stroke-width="0.0" stroke="none" fill="#666666" fill-opacity="1.0" font-size="4.137931034482759e-2" text-anchor="end"><text transform="rotate(-45.0, 0.0, 0.6000000000000001)" x="0.0" y="0.6000000000000001">0.010</text></g><g stroke-width="0.0" stroke="none" fill="#666666" fill-opacity="1.0" font-size="4.137931034482759e-2" text-anchor="end"><text transform="rotate(-45.0, 9.999999999999998e-2, 0.6000000000000001)" x="9.999999999999998e-2" y="0.6000000000000001">0.012</text></g><g stroke-width="0.0" stroke="none" fill="#666666" fill-opacity="1.0" font-size="4.137931034482759e-2" text-anchor="end"><text transform="rotate(-45.0, 0.19999999999999996, 0.6000000000000001)" x="0.19999999999999996" y="0.6000000000000001">0.014</text></g><g stroke-width="0.0" stroke="none" fill="#666666" fill-opacity="1.0" font-size="4.137931034482759e-2" text-anchor="end"><text transform="rotate(-45.0, 0.30000000000000004, 0.6000000000000001)" x="0.30000000000000004" y="0.6000000000000001">0.016</text></g><g stroke-width="0.0" stroke="none" fill="#666666" fill-opacity="1.0" font-size="4.137931034482759e-2" text-anchor="end"><text transform="rotate(-45.0, 0.40000000000000013, 0.6000000000000001)" x="0.40000000000000013" y="0.6000000000000001">0.018</text></g><g stroke-width="0.0" stroke="none" fill="#666666" fill-opacity="1.0" font-size="4.137931034482759e-2" text-anchor="end"><text transform="rotate(-45.0, 0.5, 0.6000000000000001)" x="0.5" y="0.6000000000000001">0.020</text></g><g stroke-width="0.0" stroke="#2C429D" fill="#5F0391" fill-opacity="1.0" stroke-opacity="0.4"><line stroke-width="5.0e-3" x1="-0.5" y1="0.54" x2="-0.5" y2="0.51" /><line stroke-width="5.0e-3" x1="-0.4" y1="0.54" x2="-0.4" y2="0.51" /><line stroke-width="5.0e-3" x1="-0.3" y1="0.54" x2="-0.3" y2="0.51" /><line stroke-width="5.0e-3" x1="-0.2" y1="0.54" x2="-0.2" y2="0.51" /><line stroke-width="5.0e-3" x1="-9.999999999999998e-2" y1="0.54" x2="-9.999999999999998e-2" y2="0.51" /><line stroke-width="5.0e-3" y1="0.54" y2="0.51" /><line stroke-width="5.0e-3" x1="9.999999999999998e-2" y1="0.54" x2="9.999999999999998e-2" y2="0.51" /><line stroke-width="5.0e-3" x1="0.19999999999999996" y1="0.54" x2="0.19999999999999996" y2="0.51" /><line stroke-width="5.0e-3" x1="0.30000000000000004" y1="0.54" x2="0.30000000000000004" y2="0.51" /><line stroke-width="5.0e-3" x1="0.40000000000000013" y1="0.54" x2="0.40000000000000013" y2="0.51" /><line stroke-width="5.0e-3" x1="0.5" y1="0.54" x2="0.5" y2="0.51" /></g><g stroke-width="0.0" stroke="#666666" fill="#5F0391" fill-opacity="0.5" stroke-opacity="0.0"><rect width="1.0" height="5.0000000000000044e-3" x="-0.5" y="0.51" /></g><g stroke-width="3.0e-3" stroke="#2C429D" fill="#D99721" fill-opacity="0.3" stroke-opacity="0.0"><rect width="2.0000000000000018e-2" height="2.0000000000000018e-2" x="-0.46925076085656814" y="0.36306013122235403" /><rect width="2.0000000000000018e-2" height="2.0000000000000018e-2" x="-0.4620975225478147" y="0.39346743364011805" /><rect width="1.999999999999999e-2" height="2.0000000000000004e-2" x="-0.11907033533025028" y="0.11566776828963478" /><rect width="2.0000000000000004e-2" height="2.0000000000000004e-2" x="9.395214747928158e-3" y="-0.12640427161150014" /><rect width="2.0000000000000004e-2" height="2.0000000000000018e-2" x="-2.6511113558176196e-2" y="-0.19873992564024645" /><rect width="1.9999999999999997e-2" height="2.0000000000000018e-2" x="-6.691819811211062e-2" y="-0.22170472912137862" /><rect width="1.999999999999999e-2" height="2.0000000000000018e-2" x="-8.484326416848052e-2" y="-0.2788680570635257" /><rect width="2.0e-2" height="2.0000000000000018e-2" x="-5.1549739170078015e-3" y="-0.4156558633030901" /><rect width="2.0000000000000004e-2" height="2.0000000000000018e-2" x="-3.566711364053359e-2" y="-0.40411716087352767" /><rect width="2.0000000000000004e-2" height="2.0000000000000018e-2" x="-4.851493161308278e-2" y="-0.3641683180416003" /><rect width="1.9999999999999997e-2" height="2.0000000000000018e-2" x="-6.473937480853491e-2" y="-0.33442061128298073" /><rect width="1.999999999999999e-2" height="2.0000000000000018e-2" x="-8.820708965787853e-2" y="-0.33455856325046196" /><rect width="1.999999999999999e-2" height="2.0000000000000018e-2" x="-0.10797758316545057" y="-0.3465060919294506" /><rect width="1.9999999999999997e-2" height="2.0000000000000018e-2" x="-7.636360775810762e-2" y="-0.2853639189890713" /><rect width="1.999999999999999e-2" height="2.0000000000000018e-2" x="-9.385727771801576e-2" y="-0.2983016782754271" /><rect width="1.999999999999999e-2" height="2.0000000000000018e-2" x="-0.11207067995258095" y="-0.29647702520134867" /><rect width="2.0000000000000004e-2" height="2.0000000000000018e-2" x="-4.213829702702112e-3" y="-0.20557626559301756" /><rect width="2.0000000000000004e-2" height="2.0000000000000004e-2" x="3.214060341610137e-2" y="-0.13971133185224538" /><rect width="2.0000000000000018e-2" height="2.0000000000000018e-2" x="0.16108392346453182" y="-0.2451507530647482" /><rect width="2.0000000000000018e-2" height="2.0000000000000018e-2" x="0.16535055788220432" y="-0.19525610451330488" /><rect width="2.0000000000000018e-2" height="2.0000000000000018e-2" x="0.1399540628204866" y="-0.1956183815770427" /><rect width="2.0000000000000018e-2" height="2.0000000000000018e-2" x="0.15407556225348717" y="-0.2462089808580481" /><rect width="2.0000000000000018e-2" height="2.0000000000000018e-2" x="0.1814090268390649" y="-0.18680642513436607" /><rect width="2.0000000000000018e-2" height="2.0000000000000018e-2" x="0.18794052228519242" y="-0.23099119221174935" /><rect width="2.0000000000000018e-2" height="2.0000000000000018e-2" x="0.18653922164406245" y="-0.2689446249113394" /><rect width="2.0000000000000018e-2" height="2.0000000000000018e-2" x="0.17104258887432078" y="-0.29181449920812186" /><rect width="2.0000000000000018e-2" height="2.0000000000000018e-2" x="0.19849125659955658" y="-0.2391373575369644" /><rect width="2.0000000000000018e-2" height="2.0000000000000018e-2" x="0.17883646189590385" y="-0.25314094694539824" /><rect width="2.0000000000000018e-2" height="2.0000000000000018e-2" x="0.19423134812278908" y="-0.2980371499765567" /><rect width="2.0000000000000018e-2" height="2.0000000000000018e-2" x="0.17413449393011193" y="-0.2883496908695993" /><rect width="2.0000000000000018e-2" height="2.0000000000000018e-2" x="0.16211849793626343" y="-0.3105374309343043" /><rect width="2.0000000000000018e-2" height="2.0000000000000018e-2" x="0.14180085139122922" y="-0.30677462897281604" /><rect width="2.0000000000000018e-2" height="2.0000000000000018e-2" x="0.1303638382392014" y="-0.3269163778041999" /><rect width="2.0000000000000004e-2" height="2.0000000000000018e-2" x="0.12390626937399742" y="-0.35122576920317117" /><rect width="1.999999999999999e-2" height="2.0000000000000018e-2" x="0.1048161435414159" y="-0.3540491136752242" /><rect width="1.999999999999999e-2" height="2.0000000000000018e-2" x="9.096213033810487e-2" y="-0.34348851100510536" /><rect width="1.999999999999999e-2" height="2.0000000000000018e-2" x="8.202818601371366e-2" y="-0.3279169490299103" /><rect width="1.999999999999999e-2" height="2.0000000000000018e-2" x="6.467946774024903e-2" y="-0.32978567706138584" /><rect width="1.999999999999999e-2" height="2.0000000000000018e-2" x="6.842762285709948e-2" y="-0.3060198447877879" /><rect width="1.9999999999999997e-2" height="2.0000000000000018e-2" x="5.274657349012369e-2" y="-0.3117551343042425" /><rect width="1.9999999999999997e-2" height="2.0000000000000018e-2" x="5.201260999959568e-2" y="-0.3327228476616332" /><rect width="2.0000000000000004e-2" height="2.0000000000000018e-2" x="3.623553837624816e-2" y="-0.33619508765568684" /><rect width="2.0000000000000004e-2" height="2.0000000000000018e-2" x="2.865945783544411e-2" y="-0.3231834840877249" /><rect width="2.0000000000000004e-2" height="2.0000000000000018e-2" x="1.4781490314518928e-2" y="-0.3292560607202767" /><rect width="2.0000000000000004e-2" height="2.0000000000000018e-2" x="5.8716812264575455e-3" y="-0.3185516223689552" /><rect width="2.0e-2" height="2.0000000000000018e-2" x="-8.244174323164146e-3" y="-0.3165710044327549" /><rect width="2.0000000000000004e-2" height="2.0000000000000018e-2" x="1.978194909907036e-3" y="-0.3391479544632424" /><rect width="2.0e-2" height="2.0000000000000018e-2" x="-1.0434920648427983e-2" y="-0.34587493900122657" /><rect width="2.0000000000000004e-2" height="2.0000000000000018e-2" x="-2.4143520268633083e-2" y="-0.3464450812092703" /><rect width="2.0000000000000004e-2" height="2.0000000000000018e-2" x="-2.5044295904432516e-2" y="-0.362422951983542" /><rect width="2.0000000000000004e-2" height="2.0000000000000018e-2" x="-2.790379579713364e-2" y="-0.37729925053689983" /><rect width="2.0000000000000004e-2" height="2.0000000000000018e-2" x="-4.0915311759453e-2" y="-0.38006788619131116" /><rect width="2.0000000000000004e-2" height="2.0000000000000018e-2" x="-5.35951417451147e-2" y="-0.38150344037579986" /><rect width="2.0000000000000004e-2" height="2.0000000000000018e-2" x="-5.7171023725442964e-2" y="-0.3714807946766837" /><rect width="1.9999999999999997e-2" height="2.0000000000000018e-2" x="-6.763990496271254e-2" y="-0.377679474894312" /><rect width="1.9999999999999997e-2" height="2.0000000000000018e-2" x="-7.909536843496866e-2" y="-0.3766202007342495" /><rect width="1.999999999999999e-2" height="2.0000000000000018e-2" x="-8.89529847415914e-2" y="-0.3730807556009611" /><rect width="1.999999999999999e-2" height="2.0000000000000018e-2" x="-9.31228568615755e-2" y="-0.3836302100269212" /><rect width="1.999999999999999e-2" height="2.0000000000000018e-2" x="-0.10172954754255507" y="-0.3793257798418326" /><rect width="1.999999999999999e-2" height="2.0000000000000018e-2" x="-0.11151552981733497" y="-0.3838722345294986" /><rect width="1.999999999999999e-2" height="2.0000000000000018e-2" x="-0.12077602742842579" y="-0.3811669818509662" /><rect width="2.0000000000000004e-2" height="2.0000000000000018e-2" x="-0.12956430586583384" y="-0.3781043325524943" /><rect width="1.999999999999999e-2" height="2.0000000000000018e-2" x="-0.11587919195716888" y="-0.3629257429650087" /><rect width="1.999999999999999e-2" height="2.0000000000000018e-2" x="-0.10104176257365415" y="-0.37982453304393915" /><rect width="1.999999999999999e-2" height="2.0000000000000018e-2" x="-0.10334282088376216" y="-0.3710327102291755" /><rect width="1.999999999999999e-2" height="2.0000000000000018e-2" x="-9.68322563712306e-2" y="-0.38508112313175247" /><rect width="1.999999999999999e-2" height="2.0000000000000018e-2" x="-0.10546902314337774" y="-0.3907216118940343" /><rect width="1.999999999999999e-2" height="2.0000000000000018e-2" x="-0.11601693277447632" y="-0.3914848638820998" /><rect width="1.999999999999999e-2" height="2.0000000000000018e-2" x="-0.11708939532752753" y="-0.4019111650985513" /><rect width="2.0000000000000004e-2" height="2.0000000000000018e-2" x="-0.126681129454635" y="-0.40070428939722513" /><rect width="2.0000000000000004e-2" height="2.0000000000000018e-2" x="-0.1360195635607886" y="-0.40418694977489833" /><rect width="2.0000000000000018e-2" height="2.0000000000000018e-2" x="-0.14571449305037854" y="-0.4051020375509268" /><rect width="2.0000000000000018e-2" height="2.0000000000000018e-2" x="-0.15511369979671197" y="-0.40679388907732494" /><rect width="2.0000000000000018e-2" height="2.0000000000000018e-2" x="-0.1593722007058812" y="-0.4016195806272477" /><rect width="2.0000000000000018e-2" height="2.0000000000000018e-2" x="-0.1680616375702526" y="-0.40419693950412494" /><rect width="2.0000000000000018e-2" height="2.0000000000000018e-2" x="-0.17608796650843944" y="-0.40266016180700015" /><rect width="2.0000000000000018e-2" height="2.0000000000000018e-2" x="-0.18291190552421183" y="-0.39988711596144955" /><rect width="2.0000000000000018e-2" height="2.0000000000000018e-2" x="-0.18690980925606698" y="-0.39501707502518313" /><rect width="2.0000000000000018e-2" height="2.0000000000000018e-2" x="-0.19498293126301974" y="-0.39677101393818315" /><rect width="2.0000000000000018e-2" height="2.0000000000000018e-2" x="-0.19361504867302387" y="-0.3894161783386676" /><rect width="2.0000000000000018e-2" height="2.0000000000000018e-2" x="-0.2012599314625113" y="-0.39140851911157104" /><rect width="2.0000000000000018e-2" height="2.0000000000000018e-2" x="-0.17135584877832283" y="-0.3760287135775614" /><rect width="2.0000000000000018e-2" height="2.0000000000000018e-2" x="-0.1788534971714677" y="-0.378600242877945" /><rect width="2.0000000000000018e-2" height="2.0000000000000018e-2" x="-0.17443076100139288" y="-0.3693089786750873" /><rect width="2.0000000000000018e-2" height="2.0000000000000018e-2" x="-0.174605174508762" y="-0.3762330278043262" /><rect width="2.0000000000000018e-2" height="2.0000000000000018e-2" x="-0.18298759811021253" y="-0.37719633562534816" /><rect width="2.0000000000000018e-2" height="2.0000000000000018e-2" x="-0.18929033148706736" y="-0.3805905500983455" /><rect width="2.0000000000000018e-2" height="2.0000000000000018e-2" x="-0.19297994996957624" y="-0.3754217780681567" /><rect width="2.0000000000000018e-2" height="2.0000000000000018e-2" x="-0.18601799408031744" y="-0.384595280204855" /><rect width="2.0000000000000018e-2" height="2.0000000000000018e-2" x="-0.1813927559051573" y="-0.3934094975268272" /><rect width="2.0000000000000018e-2" height="2.0000000000000018e-2" x="-0.17730600994736495" y="-0.40237002795743426" /><rect width="2.0000000000000018e-2" height="2.0000000000000018e-2" x="-0.18463610387556667" y="-0.4056523706874636" /><rect width="2.0000000000000018e-2" height="2.0000000000000018e-2" x="-0.18050556887829916" y="-0.3980344385913246" /><rect width="2.0000000000000018e-2" height="2.0000000000000018e-2" x="-0.17707242528531708" y="-0.4066736701907002" /><rect width="2.0000000000000018e-2" height="2.0000000000000018e-2" x="-0.18556485855268284" y="-0.40741269754876075" /><rect width="2.0000000000000018e-2" height="2.0000000000000018e-2" x="-0.1930056930141132" y="-0.4060204473952448" /><rect width="2.0000000000000018e-2" height="2.0000000000000018e-2" x="-0.19934894035254758" y="-0.40964104814936664" /><rect width="2.0000000000000018e-2" height="2.0000000000000018e-2" x="-0.2070505130808758" y="-0.4113902232692328" /><rect width="2.0000000000000018e-2" height="2.0000000000000018e-2" x="-0.209493992047801" y="-0.4070691526495396" /><rect width="2.0000000000000018e-2" height="2.0000000000000018e-2" x="-0.21644281982926628" y="-0.40579293417734696" /><rect width="2.0000000000000018e-2" height="2.0000000000000018e-2" x="-0.2236995681743567" y="-0.4072585007292344" /><rect width="2.0000000000000018e-2" height="2.0000000000000018e-2" x="-0.22775034940836064" y="-0.4115361010791977" /><rect width="2.0000000000000018e-2" height="2.0000000000000018e-2" x="-0.22139979610378757" y="-0.4198604186975812" /><rect width="2.0000000000000018e-2" height="2.0000000000000018e-2" x="-0.22447485941476808" y="-0.41641411606521395" /><rect width="2.0000000000000018e-2" height="2.0000000000000018e-2" x="-0.2189172975220528" y="-0.40965622754281106" /><rect width="2.0000000000000018e-2" height="2.0000000000000018e-2" x="-0.21726123677707898" y="-0.4038075527611439" /><rect width="2.0000000000000018e-2" height="2.0000000000000018e-2" x="-0.22076258707323426" y="-0.40812233816372356" /><rect width="2.0000000000000018e-2" height="2.0000000000000018e-2" x="-0.22744938197149867" y="-0.4067975921150808" /><rect width="2.0000000000000018e-2" height="2.0000000000000018e-2" x="-0.23071271230145196" y="-0.41106311358895753" /><rect width="2.0000000000000018e-2" height="2.0000000000000018e-2" x="-0.23470800378502532" y="-0.41498302006224597" /><rect width="2.0000000000000018e-2" height="2.0000000000000018e-2" x="-0.2403350339569733" y="-0.41780686164637426" /><rect width="2.0000000000000018e-2" height="2.0000000000000018e-2" x="-0.24656983279974404" y="-0.4199202378747807" /><rect width="2.0000000000000018e-2" height="2.0000000000000018e-2" x="-0.2527260578112948" y="-0.419167740594545" /><rect width="2.0000000000000018e-2" height="2.0000000000000018e-2" x="-0.257631844779002" y="-0.41735310148932636" /><rect width="2.0000000000000018e-2" height="2.0000000000000018e-2" x="-0.24832090592700595" y="-0.41040071061245065" /><rect width="2.0000000000000018e-2" height="2.0000000000000018e-2" x="-0.2499639209535957" y="-0.40640510947116615" /><rect width="2.0000000000000018e-2" height="2.0000000000000018e-2" x="-0.2483430941526289" y="-0.411828158996421" /><rect width="2.0000000000000018e-2" height="2.0000000000000018e-2" x="-0.23926161398684304" y="-0.4046065147282384" /><rect width="2.0000000000000018e-2" height="2.0000000000000018e-2" x="-0.23340562455305858" y="-0.41136348932845257" /><rect width="2.0000000000000018e-2" height="2.0000000000000018e-2" x="-0.23887675077655512" y="-0.41393573879007584" /><rect width="2.0000000000000018e-2" height="2.0000000000000018e-2" x="-0.24516067768792038" y="-0.41567130892482296" /><rect width="2.0000000000000018e-2" height="2.0000000000000018e-2" x="-0.25155515162184533" y="-0.4170592876264244" /><rect width="2.0000000000000018e-2" height="2.0000000000000018e-2" x="-0.2576881127887729" y="-0.41625991329312306" /><rect width="2.0000000000000018e-2" height="2.0000000000000018e-2" x="-0.26250069739346593" y="-0.41434386722413064" /><rect width="2.0000000000000018e-2" height="2.0000000000000018e-2" x="-0.26160198533260565" y="-0.4193134845741281" /><rect width="2.0000000000000018e-2" height="2.0000000000000018e-2" x="-0.25735319189376105" y="-0.4254616639633513" /><rect width="2.0000000000000018e-2" height="2.0000000000000018e-2" x="-0.2634784673647005" y="-0.4251351137263314" /><rect width="2.0000000000000018e-2" height="2.0000000000000018e-2" x="-0.26500502109549634" y="-0.4294735558786078" /><rect width="2.0000000000000018e-2" height="2.0000000000000018e-2" x="-0.26254718968454027" y="-0.42505824996181363" /><rect width="2.0000000000000018e-2" height="2.0000000000000018e-2" x="-0.2685323290599321" y="-0.42462579115017707" /><rect width="2.0000000000000018e-2" height="2.0000000000000018e-2" x="-0.27265688580059777" y="-0.4226777926019528" /><rect width="2.0000000000000018e-2" height="2.0000000000000018e-2" x="-0.27493834833350006" y="-0.4197872072893132" /><rect width="2.0000000000000018e-2" height="2.0000000000000018e-2" x="-0.2757288772626084" y="-0.4162263345529331" /><rect width="2.0000000000000018e-2" height="2.0000000000000018e-2" x="-0.2796054651014106" y="-0.4139406755558501" /><rect width="2.0000000000000018e-2" height="2.0000000000000018e-2" x="-0.2849022716707449" y="-0.4151426921625595" /><rect width="2.0000000000000018e-2" height="2.0000000000000018e-2" x="-0.2878546745855861" y="-0.4178600641422274" /><rect width="2.0000000000000018e-2" height="2.0000000000000018e-2" x="-0.29345286343436605" y="-0.41771913411108086" /><rect width="2.0000000000000018e-2" height="2.0000000000000018e-2" x="-0.2930899320722984" y="-0.4216591915489042" /><rect width="2.0000000000000018e-2" height="2.0000000000000018e-2" x="-0.29847404332376465" y="-0.4214017015203675" /><rect width="2.0000000000000018e-2" height="2.0000000000000018e-2" x="-0.2921332345497895" y="-0.41631338519615135" /><rect width="2.0000000000000018e-2" height="2.0000000000000018e-2" x="-0.2912977489859261" y="-0.4203048249635929" /><rect width="2.0000000000000018e-2" height="2.0000000000000018e-2" x="-0.2967802999965603" y="-0.42086850865979886" /><rect width="2.0000000000000018e-2" height="2.0000000000000018e-2" x="-0.28864067552204287" y="-0.4267820444257263" /><rect width="2.0000000000000018e-2" height="2.0000000000000018e-2" x="-0.2936013683257176" y="-0.42593708812802855" /><rect width="2.0000000000000018e-2" height="2.0000000000000018e-2" x="-0.2931774747418787" y="-0.4225444059779089" /><rect width="2.0000000000000018e-2" height="2.0000000000000018e-2" x="-0.2973574808708831" y="-0.42100034174733714" /><rect width="2.0000000000000018e-2" height="2.0000000000000018e-2" x="-0.2981065355799042" y="-0.41787498165843573" /><rect width="2.0000000000000018e-2" height="2.0000000000000018e-2" x="-0.3020725088718066" y="-0.4196731297925601" /><rect width="2.0000000000000018e-2" height="2.0000000000000018e-2" x="-0.3072100068454283" y="-0.4192222582436985" /><rect width="2.0000000000000018e-2" height="2.0000000000000018e-2" x="-0.3096442671963764" y="-0.42169334860143726" /><rect width="2.0000000000000018e-2" height="2.0000000000000018e-2" x="-0.31430169293712423" y="-0.4209079727875893" /><rect width="2.0000000000000018e-2" height="2.0000000000000018e-2" x="-0.3192588350547047" y="-0.4210168241115132" /><rect width="2.0000000000000018e-2" height="2.0000000000000018e-2" x="-0.3002045380592997" y="-0.41404712429698354" /><rect width="2.0000000000000018e-2" height="2.0000000000000018e-2" x="-0.2959249091359063" y="-0.4092903020849735" /><rect width="2.0000000000000018e-2" height="2.0000000000000018e-2" x="-0.30130719518797267" y="-0.4086713571802496" /><rect width="2.0000000000000018e-2" height="2.0000000000000018e-2" x="-0.30603773482556895" y="-0.4072556024637741" /><rect width="1.999999999999999e-2" height="2.0000000000000018e-2" x="-9.610875958038011e-2" y="-0.3807268201254894" /><rect width="2.0000000000000004e-2" height="2.0000000000000018e-2" x="-5.647937952175191e-2" y="-0.36449326584684927" /><rect width="2.0000000000000004e-2" height="2.0000000000000018e-2" x="-3.141616055870466e-2" y="-0.3757740028770963" /><rect width="2.0000000000000004e-2" height="2.0000000000000018e-2" x="-4.146440185870625e-2" y="-0.3712720998921336" /><rect width="2.0000000000000004e-2" height="2.0000000000000018e-2" x="1.2802562240192281e-2" y="-0.38798173006179737" /><rect width="2.0000000000000004e-2" height="2.0000000000000018e-2" x="-3.8679165609055953e-4" y="-0.387748693083668" /><rect width="2.0000000000000004e-2" height="2.0000000000000018e-2" x="8.388840134109463e-3" y="-0.3764960576791426" /><rect width="2.0e-2" height="2.0000000000000018e-2" x="-4.5696848672171966e-3" y="-0.37632221476818695" /><rect width="2.0000000000000004e-2" height="2.0000000000000018e-2" x="-1.642292234280667e-2" y="-0.3731103813724672" /><rect width="2.0000000000000004e-2" height="2.0000000000000018e-2" x="-2.7065910736648317e-2" y="-0.3690093008790165" /><rect width="1.9999999999999997e-2" height="2.0000000000000018e-2" x="6.009254850217994e-2" y="-0.3451692183184383" /><rect width="1.999999999999999e-2" height="2.0000000000000018e-2" x="9.417958748650924e-2" y="-0.35977294707582785" /><rect width="1.999999999999999e-2" height="2.0000000000000018e-2" x="0.10189087343771587" y="-0.34674016894222903" /><rect width="1.999999999999999e-2" height="2.0000000000000018e-2" x="8.767858797900276e-2" y="-0.34219438111146017" /><rect width="2.0000000000000004e-2" height="2.0000000000000018e-2" x="0.10721070684513835" y="-0.3545277074577946" /><rect width="2.0000000000000004e-2" height="2.0000000000000018e-2" x="0.1081014217097467" y="-0.36308123972051143" /><rect width="2.0000000000000004e-2" height="2.0000000000000018e-2" x="0.10667353707472928" y="-0.3712933049477082" /><rect width="1.999999999999999e-2" height="2.0000000000000018e-2" x="9.388837627776116e-2" y="-0.36667429769799553" /><rect width="1.999999999999999e-2" height="2.0000000000000018e-2" x="8.32829978152946e-2" y="-0.37110324534503714" /><rect width="1.999999999999999e-2" height="2.0000000000000018e-2" x="7.347543969701266e-2" y="-0.37596241572243927" /><rect width="2.0000000000000004e-2" height="2.0000000000000018e-2" x="0.10521387922027782" y="-0.3918200675481074" /><rect width="1.999999999999999e-2" height="2.0000000000000018e-2" x="9.05506948318905e-2" y="-0.3898570112413253" /><rect width="1.999999999999999e-2" height="2.0000000000000018e-2" x="8.465684342216563e-2" y="-0.38289143274019954" /><rect width="2.0000000000000004e-2" height="2.0000000000000018e-2" x="0.10844290014561166" y="-0.36807308409181405" /><rect width="1.999999999999999e-2" height="2.0000000000000018e-2" x="9.279719250247621e-2" y="-0.367170569400317" /><rect width="1.999999999999999e-2" height="2.0000000000000018e-2" x="8.176662927527713e-2" y="-0.36173773638531936" /><rect width="1.999999999999999e-2" height="2.0000000000000018e-2" x="8.13588532326598e-2" y="-0.36982996880619345" /><rect width="1.999999999999999e-2" height="2.0000000000000018e-2" x="6.73470014759764e-2" y="-0.371653810295401" /><rect width="1.999999999999999e-2" height="2.0000000000000018e-2" x="7.943998912023821e-2" y="-0.3594094465250314" /><rect width="1.999999999999999e-2" height="2.0000000000000018e-2" x="9.307362602063042e-2" y="-0.3461997524981252" /><rect width="1.999999999999999e-2" height="2.0000000000000018e-2" x="8.07080758975386e-2" y="-0.3488941963778106" /><rect width="1.999999999999999e-2" height="2.0000000000000018e-2" x="6.784753908687281e-2" y="-0.344485227859463" /><rect width="1.999999999999999e-2" height="2.0000000000000018e-2" x="8.533354952942497e-2" y="-0.35626922559208984" /><rect width="1.999999999999999e-2" height="2.0000000000000018e-2" x="7.247603927126624e-2" y="-0.35899095161058514" /><rect width="2.0000000000000004e-2" height="2.0000000000000018e-2" x="0.11454680266418261" y="-0.37590288444060993" /><rect width="1.999999999999999e-2" height="2.0000000000000018e-2" x="9.920816280720525e-2" y="-0.3744138854996103" /><rect width="1.999999999999999e-2" height="2.0000000000000018e-2" x="9.050711740859897e-2" y="-0.3804671369656074" /><rect width="1.999999999999999e-2" height="2.0000000000000018e-2" x="8.65008790386247e-2" y="-0.3884364716911757" /><rect width="2.0000000000000018e-2" height="2.0000000000000018e-2" x="0.17797856424785619" y="-0.36450105875274297" /><rect width="2.0000000000000018e-2" height="2.0000000000000018e-2" x="0.16059979393160106" y="-0.36363423947421314" /><rect width="2.0000000000000018e-2" height="2.0000000000000018e-2" x="0.1889678290268214" y="-0.3467987800415536" /><rect width="2.0000000000000018e-2" height="2.0000000000000018e-2" x="0.17250419254441163" y="-0.34851318491919314" /><rect width="2.0000000000000018e-2" height="2.0000000000000018e-2" x="0.155412708438612" y="-0.3486772826417337" /><rect width="2.0000000000000018e-2" height="2.0000000000000018e-2" x="0.1432261923959739" y="-0.3529906830924505" /><rect width="2.0000000000000018e-2" height="2.0000000000000018e-2" x="0.12681699524424095" y="-0.35321530300902493" /><rect width="2.0000000000000018e-2" height="2.0000000000000018e-2" x="0.140764034655545" y="-0.3397363772980264" /><rect width="2.0000000000000018e-2" height="2.0000000000000018e-2" x="0.1564424316327231" y="-0.3251977031235229" /><rect width="2.0000000000000018e-2" height="2.0000000000000018e-2" x="0.1405318371034664" y="-0.3259449309960304" /><rect width="2.0000000000000018e-2" height="2.0000000000000018e-2" x="0.13856026611253036" y="-0.3155238075203891" /><rect width="2.0000000000000018e-2" height="2.0000000000000018e-2" x="0.13612754535545757" y="-0.3049637176082107" /><rect width="2.0000000000000018e-2" height="2.0000000000000018e-2" x="0.14512154494861051" y="-0.29104086068676904" /><rect width="2.0000000000000018e-2" height="2.0000000000000018e-2" x="0.17367197185381222" y="-0.27253655092733786" /><rect width="2.0000000000000018e-2" height="2.0000000000000018e-2" x="0.38328451690269083" y="-0.30823922168374585" /><rect width="2.0000000000000018e-2" height="2.0000000000000018e-2" x="0.37040801101003684" y="-0.3151667261225912" /><rect width="2.0000000000000018e-2" height="2.0000000000000018e-2" x="0.34829624641812107" y="-0.31507805758049723" /><rect width="2.0000000000000018e-2" height="2.0000000000000018e-2" x="0.33547629869865747" y="-0.3218600239757602" /><rect width="2.0000000000000018e-2" height="2.0000000000000018e-2" x="0.3149427170267193" y="-0.3234712717698809" /><rect width="2.0000000000000018e-2" height="2.0000000000000018e-2" x="0.332294629444002" y="-0.30645845975618535" /><rect width="2.0000000000000018e-2" height="2.0000000000000018e-2" x="0.4044140702044289" y="-0.3311615831460958" /><rect width="2.0000000000000018e-2" height="2.0000000000000018e-2" x="0.38587407016601527" y="-0.3366906386652838" /><rect width="2.0000000000000018e-2" height="2.0000000000000018e-2" x="0.37076655232402433" y="-0.3440240304425727" /><rect width="2.0000000000000018e-2" height="2.0000000000000018e-2" x="0.3498585327360011" y="-0.34735897963381857" /><rect width="2.0000000000000018e-2" height="2.0000000000000018e-2" x="0.32963967629737956" y="-0.3509461312834098" /><rect width="2.0000000000000018e-2" height="2.0000000000000018e-2" x="0.3083822841298224" y="-0.3512255392372131" /><rect width="2.0000000000000018e-2" height="2.0000000000000018e-2" x="0.2897631666770166" y="-0.34791287457800946" /><rect width="2.0000000000000018e-2" height="2.0000000000000018e-2" x="0.27848272550091857" y="-0.35578629977601317" /><rect width="2.0000000000000018e-2" height="2.0000000000000018e-2" x="0.2587947612053447" y="-0.3576632099110464" /><rect width="2.0000000000000018e-2" height="2.0000000000000018e-2" x="0.2433596827527067" y="-0.3632449724890433" /><rect width="2.0000000000000018e-2" height="2.0000000000000018e-2" x="0.23645548521379822" y="-0.3726147772689089" /><rect width="2.0000000000000018e-2" height="2.0000000000000018e-2" x="0.23728012561187117" y="-0.36282741564188625" /><rect width="2.0000000000000018e-2" height="2.0000000000000018e-2" x="0.21856438660352617" y="-0.36460410088741935" /><rect width="2.0000000000000018e-2" height="2.0000000000000018e-2" x="0.20015574935176395" y="-0.36578556939712614" /><rect width="2.0000000000000018e-2" height="2.0000000000000018e-2" x="0.1872787149153723" y="-0.37186306520097323" /><rect width="2.0000000000000018e-2" height="2.0000000000000018e-2" x="0.17664566646288304" y="-0.3665494897656838" /><rect width="2.0000000000000018e-2" height="2.0000000000000018e-2" x="0.15965745990012836" y="-0.3657450388992006" /><rect width="2.0000000000000018e-2" height="2.0000000000000018e-2" x="0.16252583433471324" y="-0.3766275734379697" /><rect width="2.0000000000000018e-2" height="2.0000000000000018e-2" x="0.15025582142672422" y="-0.38263346197846604" /><rect width="2.0000000000000018e-2" height="2.0000000000000018e-2" x="0.13359154299789733" y="-0.3832793828814395" /><rect width="2.0000000000000004e-2" height="2.0000000000000018e-2" x="0.11978066498811081" y="-0.387953579173711" /><rect width="1.999999999999999e-2" height="2.0000000000000018e-2" x="0.10460116244263686" y="-0.3911556853908619" /><rect width="1.999999999999999e-2" height="2.0000000000000018e-2" x="9.082529556373188e-2" y="-0.3895560191716123" /><rect width="1.999999999999999e-2" height="2.0000000000000018e-2" x="8.82178885460413e-2" y="-0.3830452694181392" /><rect width="1.999999999999999e-2" height="2.0000000000000018e-2" x="7.31039831946393e-2" y="-0.38353081869202577" /><rect width="1.9999999999999997e-2" height="2.0000000000000018e-2" x="5.836667852963696e-2" y="-0.38403311258784134" /><rect width="1.9999999999999997e-2" height="2.0000000000000018e-2" x="5.824724055976683e-2" y="-0.39281953251950164" /><rect width="1.9999999999999997e-2" height="2.0000000000000018e-2" x="4.402483158049098e-2" y="-0.3948007846611856" /><rect width="2.0000000000000004e-2" height="2.0000000000000018e-2" x="3.2211077722298705e-2" y="-0.39287773068725773" /><rect width="2.0000000000000004e-2" height="2.0000000000000018e-2" x="2.7922264262161163e-2" y="-0.4001842329563856" /><rect width="2.0000000000000004e-2" height="2.0000000000000018e-2" x="1.4339209909715276e-2" y="-0.4010406734320616" /><rect width="2.0000000000000004e-2" height="2.0000000000000018e-2" x="1.070988956851657e-3" y="-0.4020765084601654" /><rect width="2.0e-2" height="2.0000000000000018e-2" x="-8.193870686779783e-3" y="-0.39948336056205325" /><rect width="2.0000000000000004e-2" height="2.0000000000000018e-2" x="-1.8295446609912995e-2" y="-0.40367595433891923" /><rect width="2.0000000000000004e-2" height="2.0000000000000018e-2" x="-3.0675400978353577e-2" y="-0.4043100323794465" /><rect width="2.0000000000000004e-2" height="2.0000000000000018e-2" x="-4.1860693312436074e-2" y="-0.4035627316936593" /><rect width="2.0000000000000004e-2" height="2.0000000000000018e-2" x="-5.299367465695464e-2" y="-0.4029916079110175" /><rect width="2.0000000000000004e-2" height="2.0000000000000018e-2" x="-6.184821978835208e-2" y="-0.4008769277875772" /><rect width="1.9999999999999997e-2" height="2.0000000000000018e-2" x="-6.924178251231193e-2" y="-0.4053621861847575" /><rect width="1.9999999999999997e-2" height="2.0000000000000018e-2" x="-7.605171369577245e-2" y="-0.402508520130858" /><rect width="1.999999999999999e-2" height="2.0000000000000018e-2" x="-8.610081532483797e-2" y="-0.4015528980465707" /><rect width="1.999999999999999e-2" height="2.0000000000000018e-2" x="-8.802435264007412e-2" y="-0.3969485837089507" /><rect width="1.999999999999999e-2" height="2.0000000000000018e-2" x="-8.694573059319997e-2" y="-0.3913078742448738" /><rect width="1.999999999999999e-2" height="2.0000000000000018e-2" x="-9.667672308888851e-2" y="-0.38979936514283375" /><rect width="1.9999999999999997e-2" height="2.0000000000000018e-2" x="-7.83972162835113e-2" y="-0.399567135790558" /><rect width="1.999999999999999e-2" height="2.0000000000000018e-2" x="-8.882113734091e-2" y="-0.4013973990513271" /><rect width="1.999999999999999e-2" height="2.0000000000000018e-2" x="-9.469286821985799e-2" y="-0.40588426901745855" /><rect width="1.999999999999999e-2" height="2.0000000000000018e-2" x="-0.104427171546618" y="-0.40507512150359626" /><rect width="1.999999999999999e-2" height="2.0000000000000018e-2" x="-0.11270375602557835" y="-0.4082024166899706" /><rect width="1.999999999999999e-2" height="2.0000000000000018e-2" x="-0.12202801103477683" y="-0.41043819547540894" /><rect width="2.0000000000000004e-2" height="2.0000000000000018e-2" x="-0.13137224332794112" y="-0.41007729890646283" /><rect width="2.0000000000000004e-2" height="2.0000000000000018e-2" x="-0.13774603334383234" y="-0.40783004036774384" /><rect width="2.0000000000000004e-2" height="2.0000000000000018e-2" x="-0.13272775082213095" y="-0.41482089209362405" /><rect width="1.9999999999999997e-2" height="2.0000000000000018e-2" x="-7.724810251390728e-2" y="-0.40166890379836984" /><rect width="1.999999999999999e-2" height="2.0000000000000018e-2" x="-8.785748044753088e-2" y="-0.4009285204577425" /><rect width="1.999999999999999e-2" height="2.0000000000000018e-2" x="-9.249011695275304e-2" y="-0.4055454255894334" /><rect width="1.999999999999999e-2" height="2.0000000000000018e-2" x="-9.84544365427527e-2" y="-0.4022140364408595" /><rect width="1.999999999999999e-2" height="2.0000000000000018e-2" x="-0.10764509803594101" y="-0.40442343399382974" /><rect width="1.999999999999999e-2" height="2.0000000000000018e-2" x="-0.11265181686674657" y="-0.40869612621302176" /><rect width="1.999999999999999e-2" height="2.0000000000000018e-2" x="-0.10657474708605173" y="-0.4161158432094284" /><rect width="1.999999999999999e-2" height="2.0000000000000018e-2" x="-0.11638534146122169" y="-0.4157956057789932" /><rect width="2.0000000000000004e-2" height="2.0000000000000018e-2" x="-0.12630097687175368" y="-0.41689700524537576" /><rect width="2.0000000000000004e-2" height="2.0000000000000018e-2" x="-0.13597968129885923" y="-0.4179436032617544" /><rect width="2.0000000000000004e-2" height="2.0000000000000018e-2" x="-0.14398669061883995" y="-0.4206703873564539" /><rect width="2.0000000000000018e-2" height="2.0000000000000018e-2" x="-0.15316608322737163" y="-0.42098698644837385" /><rect width="2.0000000000000018e-2" height="2.0000000000000018e-2" x="-0.15190128539680886" y="-0.4165606355298337" /><rect width="2.0000000000000018e-2" height="2.0000000000000018e-2" x="-0.1602017643087914" y="-0.41853070031473427" /><rect width="2.0000000000000018e-2" height="2.0000000000000018e-2" x="-0.1687100155049353" y="-0.41819997891663674" /><rect width="2.0000000000000018e-2" height="2.0000000000000018e-2" x="-0.17255141110105354" y="-0.4222165560173806" /><rect width="2.0000000000000018e-2" height="2.0000000000000018e-2" x="-0.18016459791768247" y="-0.42140461362470205" /><rect width="2.0000000000000018e-2" height="2.0000000000000018e-2" x="-0.1883239854307978" y="-0.42135609650363737" /><rect width="2.0000000000000018e-2" height="2.0000000000000018e-2" x="-0.19381010897713347" y="-0.4194640463144065" /><rect width="2.0000000000000018e-2" height="2.0000000000000018e-2" x="-0.20180034854713064" y="-0.42014313175658535" /><rect width="2.0000000000000018e-2" height="2.0000000000000018e-2" x="-0.20958709421675553" y="-0.42044016106504034" /><rect width="2.0000000000000018e-2" height="2.0000000000000018e-2" x="-0.20596655926797142" y="-0.42588233553193755" /><rect width="2.0000000000000018e-2" height="2.0000000000000018e-2" x="-0.2106939984079435" y="-0.42400116892858786" /><rect width="2.0000000000000018e-2" height="2.0000000000000018e-2" x="-0.21758275583387332" y="-0.42334566844936883" /><rect width="2.0000000000000018e-2" height="2.0000000000000018e-2" x="-0.22273626506930283" y="-0.4260246353671696" /><rect width="2.0000000000000018e-2" height="2.0000000000000018e-2" x="-0.2299621667769453" y="-0.42629796946460663" /><rect width="2.0000000000000018e-2" height="2.0000000000000018e-2" x="-0.2369819837198991" y="-0.42648920439417537" /><rect width="2.0000000000000018e-2" height="2.0000000000000018e-2" x="-0.22630720787738295" y="-0.4210922555151402" /><rect width="2.0000000000000018e-2" height="2.0000000000000018e-2" x="-0.2313431627023217" y="-0.41931247659177484" /><rect width="2.0000000000000018e-2" height="2.0000000000000018e-2" x="-0.22229761966407308" y="-0.42526213216118725" /><rect width="2.0000000000000018e-2" height="2.0000000000000018e-2" x="-0.22254734887964311" y="-0.42189193039032347" /><rect width="2.0000000000000018e-2" height="2.0000000000000018e-2" x="-0.16998373291485935" y="-0.41056142278140506" /><rect width="2.0000000000000018e-2" height="2.0000000000000018e-2" x="-0.1780436968727746" y="-0.40923732587807216" /><rect width="2.0000000000000018e-2" height="2.0000000000000018e-2" x="-0.18470874204477794" y="-0.4069959729067215" /><rect width="2.0000000000000018e-2" height="2.0000000000000018e-2" x="-0.19023849582065622" y="-0.4092018494926102" /><rect width="1.999999999999999e-2" height="2.0000000000000018e-2" x="-9.947158104323588e-2" y="-0.39292658471711683" /><rect width="1.999999999999999e-2" height="2.0000000000000018e-2" x="-9.771934521098467e-2" y="-0.3980775381783124" /><rect width="1.999999999999999e-2" height="2.0000000000000018e-2" x="-0.10196681148959862" y="-0.4017553160765095" /><rect width="1.999999999999999e-2" height="2.0000000000000018e-2" x="-9.983720234547232e-2" y="-0.4073798286558157" /><rect width="1.999999999999999e-2" height="2.0000000000000018e-2" x="-0.1049754199598457" y="-0.40331297287667733" /><rect width="1.999999999999999e-2" height="2.0000000000000018e-2" x="-0.10876572149117118" y="-0.39869007753889263" /><rect width="1.999999999999999e-2" height="2.0000000000000018e-2" x="-0.1068724080707285" y="-0.40407968315930054" /><rect width="1.999999999999999e-2" height="2.0000000000000018e-2" x="-0.1159312408920906" y="-0.40203119593158965" /><rect width="1.999999999999999e-2" height="2.0000000000000018e-2" x="-0.10503114591931127" y="-0.39402165874104433" /><rect width="1.999999999999999e-2" height="2.0000000000000018e-2" x="-0.11459115820986131" y="-0.3948108051054694" /><rect width="1.999999999999999e-2" height="2.0000000000000018e-2" x="-0.11552319741328164" y="-0.3892175582189006" /><rect width="1.999999999999999e-2" height="2.0000000000000018e-2" x="-0.12024297630330415" y="-0.38464769078459426" /><rect width="2.0000000000000004e-2" height="2.0000000000000018e-2" x="-0.12824073596542312" y="-0.38601862935289044" /><rect width="1.999999999999999e-2" height="2.0000000000000018e-2" x="-0.11527718544565023" y="-0.3773480078487669" /><rect width="2.0000000000000004e-2" height="2.0000000000000018e-2" x="-0.1251266456707099" y="-0.37562327319513067" /><rect width="2.0000000000000004e-2" height="2.0000000000000018e-2" x="-5.852123332688008e-2" y="-0.3895343676007075" /><rect width="2.0000000000000004e-2" height="2.0000000000000018e-2" x="-5.957010811765439e-2" y="-0.394779880274603" /><rect width="1.9999999999999997e-2" height="2.0000000000000018e-2" x="-6.552026388647313e-2" y="-0.3986591519377847" /><rect width="2.0000000000000004e-2" height="2.0000000000000018e-2" x="-6.225621974777456e-2" y="-0.40531092141358027" /><rect width="1.9999999999999997e-2" height="2.0000000000000018e-2" x="-7.13502646308347e-2" y="-0.40812302025360114" /><rect width="1.9999999999999997e-2" height="2.0000000000000018e-2" x="-8.227767669271334e-2" y="-0.40765504557344723" /><rect width="1.999999999999999e-2" height="2.0000000000000018e-2" x="-9.20166976515354e-2" y="-0.40609416922098274" /><rect width="1.999999999999999e-2" height="2.0000000000000018e-2" x="-0.10082144291926091" y="-0.4085308780693522" /><rect width="1.999999999999999e-2" height="2.0000000000000018e-2" x="-0.11034018515790693" y="-0.4072392738554521" /><rect width="1.999999999999999e-2" height="2.0000000000000018e-2" x="-0.12044751943149433" y="-0.40761277754994285" /><rect width="1.999999999999999e-2" height="2.0000000000000018e-2" x="-0.11782507756234299" y="-0.4136519946610989" /><rect width="2.0000000000000004e-2" height="2.0000000000000018e-2" x="-0.1272131859474599" y="-0.4152877610788315" /><rect width="2.0000000000000004e-2" height="2.0000000000000018e-2" x="-0.1262980071709044" y="-0.42108534438485" /><rect width="2.0000000000000004e-2" height="2.0000000000000018e-2" x="-0.13470206390021383" y="-0.41989464702590784" /><rect width="2.0000000000000004e-2" height="2.0000000000000018e-2" x="-0.14254002161767593" y="-0.4184100787759616" /><rect width="2.0000000000000004e-2" height="2.0000000000000018e-2" x="-0.13281823577918744" y="-0.4118849939957" /><rect width="2.0000000000000004e-2" height="2.0000000000000018e-2" x="-0.14172033167082632" y="-0.4108072805119981" /><rect width="2.0000000000000018e-2" height="2.0000000000000018e-2" x="-0.14941164649502942" y="-0.4130093428512287" /><rect width="2.0000000000000018e-2" height="2.0000000000000018e-2" x="-0.15448582105239056" y="-0.4164330994126123" /><rect width="2.0000000000000018e-2" height="2.0000000000000018e-2" x="-0.1561676700572086" y="-0.4210502037107753" /><rect width="2.0000000000000018e-2" height="2.0000000000000018e-2" x="-0.16472793226545474" y="-0.42256738313021525" /><rect width="2.0000000000000018e-2" height="2.0000000000000018e-2" x="-0.16682837929620853" y="-0.4271179337547458" /><rect width="2.0000000000000018e-2" height="2.0000000000000018e-2" x="-0.17323375088360798" y="-0.42551498352580164" /><rect width="2.0000000000000018e-2" height="2.0000000000000018e-2" x="-0.1743127725985073" y="-0.4219662439683327" /><rect width="2.0000000000000018e-2" height="2.0000000000000018e-2" x="-0.18281215482969143" y="-0.42238219299341384" /><rect width="2.0000000000000018e-2" height="2.0000000000000018e-2" x="-0.1891724777132645" y="-0.42490057778582413" /><rect width="2.0000000000000018e-2" height="2.0000000000000018e-2" x="-0.19716181720464893" y="-0.42596130297360835" /><rect width="2.0000000000000018e-2" height="2.0000000000000018e-2" x="-0.20318654998338298" y="-0.42851141459084796" /><rect width="2.0000000000000018e-2" height="2.0000000000000018e-2" x="-0.21052981201415782" y="-0.4281759510788733" /><rect width="2.0000000000000018e-2" height="2.0000000000000018e-2" x="-0.21311748988225393" y="-0.4255331985512891" /><rect width="2.0000000000000018e-2" height="2.0000000000000018e-2" x="-0.20819087848510592" y="-0.4208933970638643" /><rect width="2.0000000000000018e-2" height="2.0000000000000018e-2" x="-0.2144177473072888" y="-0.42282656882758785" /><rect width="2.0000000000000018e-2" height="2.0000000000000018e-2" x="-0.2112569154777797" y="-0.4184472366177314" /><rect width="2.0000000000000018e-2" height="2.0000000000000018e-2" x="-0.21789740488304776" y="-0.41992106106416116" /><rect width="2.0000000000000018e-2" height="2.0000000000000018e-2" x="-0.21782576597352604" y="-0.42395301648244044" /><rect width="2.0000000000000018e-2" height="2.0000000000000018e-2" x="-0.22257135229878233" y="-0.42656106359185186" /><rect width="2.0000000000000018e-2" height="2.0000000000000018e-2" x="-0.22088004904409686" y="-0.422739951433705" /><rect width="2.0000000000000018e-2" height="2.0000000000000018e-2" x="-0.219679104699316" y="-0.42708423891303715" /><rect width="2.0000000000000018e-2" height="2.0000000000000018e-2" x="-0.22528206947383994" y="-0.4256117882042627" /><rect width="2.0000000000000018e-2" height="2.0000000000000018e-2" x="-0.22956046720029077" y="-0.42353507345007624" /><rect width="2.0000000000000018e-2" height="2.0000000000000018e-2" x="-0.20751391549266307" y="-0.41610765490062995" /><rect width="2.0000000000000018e-2" height="2.0000000000000018e-2" x="-0.19792647517102785" y="-0.4099825175450913" /><rect width="2.0000000000000018e-2" height="2.0000000000000018e-2" x="-0.19590227773424568" y="-0.40503283761964326" /><rect width="1.9999999999999997e-2" height="2.0000000000000018e-2" x="-6.409949263556385e-2" y="-0.3854229227111189" /><rect width="2.0000000000000004e-2" height="2.0000000000000018e-2" x="-4.604813236330251e-2" y="-0.3937177996827532" /><rect width="2.0000000000000004e-2" height="2.0000000000000018e-2" x="-5.727649623069674e-2" y="-0.3941201051552241" /><rect width="2.0000000000000004e-2" height="2.0000000000000018e-2" x="-1.923534365820783e-2" y="-0.4059485306106112" /><rect width="2.0000000000000004e-2" height="2.0000000000000018e-2" x="-2.6443955885605323e-2" y="-0.40147696017748735" /><rect width="2.0000000000000004e-2" height="2.0000000000000018e-2" x="-2.10828554464536e-2" y="-0.39336313179317606" /><rect width="2.0000000000000004e-2" height="2.0000000000000018e-2" x="-2.2768690127208304e-3" y="-0.4029021535601347" /><rect width="1.999999999999999e-2" height="2.0000000000000018e-2" x="7.996777442156301e-2" y="-0.3836702404923489" /><rect width="1.999999999999999e-2" height="2.0000000000000018e-2" x="6.683952192836952e-2" y="-0.3852603999483307" /><rect width="1.999999999999999e-2" height="2.0000000000000018e-2" x="7.814201621385365e-2" y="-0.39443000389839655" /><rect width="1.999999999999999e-2" height="2.0000000000000018e-2" x="7.987415402533284e-2" y="-0.40203737527901795" /><rect width="1.999999999999999e-2" height="2.0000000000000018e-2" x="7.12783770202834e-2" y="-0.3967767473559147" /><rect width="1.999999999999999e-2" height="2.0000000000000018e-2" x="6.442875971911667e-2" y="-0.401911795762234" /><rect width="1.9999999999999997e-2" height="2.0000000000000018e-2" x="4.9906224369395076e-2" y="-0.40141483191498806" /><rect width="2.0000000000000004e-2" height="2.0000000000000018e-2" x="0.10599559296748852" y="-0.38443212537996263" /><rect width="2.0000000000000004e-2" height="2.0000000000000018e-2" x="0.10518814079222862" y="-0.3914228715702741" /><rect width="1.999999999999999e-2" height="2.0000000000000018e-2" x="9.020159042503074e-2" y="-0.3893060404166627" /><rect width="1.999999999999999e-2" height="2.0000000000000018e-2" x="8.055416134853789e-2" y="-0.39343204244578045" /><rect width="1.999999999999999e-2" height="2.0000000000000018e-2" x="8.310460056094628e-2" y="-0.40140232184007163" /><rect width="1.999999999999999e-2" height="2.0000000000000018e-2" x="6.811293072702686e-2" y="-0.4016451885148352" /><rect width="1.9999999999999997e-2" height="2.0000000000000018e-2" x="5.8742472037945255e-2" y="-0.39705307870939255" /><rect width="1.9999999999999997e-2" height="2.0000000000000018e-2" x="5.709426020151965e-2" y="-0.4038164016448631" /><rect width="1.9999999999999997e-2" height="2.0000000000000018e-2" x="5.9448960181419215e-2" y="-0.4118768650993785" /><rect width="1.9999999999999997e-2" height="2.0000000000000018e-2" x="4.503081602541815e-2" y="-0.41218336272429157" /><rect width="2.0000000000000004e-2" height="2.0000000000000018e-2" x="3.110438039334385e-2" y="-0.4118457949548938" /><rect width="2.0000000000000004e-2" height="2.0000000000000018e-2" x="1.744475476063035e-2" y="-0.4117773445647662" /><rect width="2.0000000000000004e-2" height="2.0000000000000018e-2" x="8.660546301253355e-3" y="-0.4160993939515132" /><rect width="2.0000000000000004e-2" height="2.0000000000000018e-2" x="-4.148254987330393e-3" y="-0.4176156850147268" /><rect width="2.0000000000000004e-2" height="2.0000000000000018e-2" x="-1.6464769298414998e-2" y="-0.4168208286373126" /><rect width="2.0000000000000004e-2" height="2.0000000000000018e-2" x="-2.6645898955965523e-2" y="-0.41449407923220805" /><rect width="2.0000000000000004e-2" height="2.0000000000000018e-2" x="-3.8562426968647194e-2" y="-0.41583677427875887" /><rect width="2.0000000000000004e-2" height="2.0000000000000018e-2" x="-5.043318048020356e-2" y="-0.41574070203113567" /><rect width="2.0000000000000004e-2" height="2.0000000000000018e-2" x="-6.1936278551526995e-2" y="-0.4154400467850684" /><rect width="1.9999999999999997e-2" height="2.0000000000000018e-2" x="-6.860487133663738e-2" y="-0.4120035303404074" /><rect width="1.9999999999999997e-2" height="2.0000000000000018e-2" x="-7.969815568346937e-2" y="-0.411666611192396" /><rect width="1.9999999999999997e-2" height="2.0000000000000018e-2" x="-7.904925154304386e-2" y="-0.40601285754330474" /><rect width="1.999999999999999e-2" height="2.0000000000000018e-2" x="-8.497949547821591e-2" y="-0.4097077033148119" /><rect width="1.999999999999999e-2" height="2.0000000000000018e-2" x="-9.452499423335724e-2" y="-0.4079080762937758" /><rect width="1.999999999999999e-2" height="2.0000000000000018e-2" x="-0.1003616058468405" y="-0.40428232724356217" /><rect width="1.999999999999999e-2" height="2.0000000000000018e-2" x="-0.10706156673335591" y="-0.40728976819639084" /><rect width="1.999999999999999e-2" height="2.0000000000000018e-2" x="-9.38197632920366e-2" y="-0.3992159966367046" /><rect width="2.0000000000000004e-2" height="2.0000000000000018e-2" x="-6.066335163793051e-2" y="-0.3875802952511471" /><rect width="2.0000000000000004e-2" height="2.0000000000000018e-2" x="-6.081969039547335e-2" y="-0.39260380443744525" /><rect width="2.0000000000000004e-2" height="2.0000000000000018e-2" x="-4.315060045984514e-2" y="-0.40150266787314604" /><rect width="2.0000000000000004e-2" height="2.0000000000000018e-2" x="-5.236663129712881e-2" y="-0.3984813605968336" /><rect width="2.0000000000000004e-2" height="2.0000000000000018e-2" x="-3.325469149888154e-2" y="-0.38837549015730555" /><rect width="2.0000000000000004e-2" height="2.0000000000000018e-2" x="-3.253641683725305e-2" y="-0.3941011337035988" /><rect width="2.0000000000000004e-2" height="2.0000000000000018e-2" x="-3.858819579677935e-2" y="-0.39807224279023556" /><rect width="2.0000000000000004e-2" height="2.0000000000000018e-2" x="-3.50334280885533e-2" y="-0.40485131017236664" /><rect width="2.0000000000000004e-2" height="2.0000000000000018e-2" x="-4.665417395213e-2" y="-0.40376783239725533" /><rect width="2.0000000000000004e-2" height="2.0000000000000018e-2" x="-4.6416816985588354e-2" y="-0.4098687549630923" /><rect width="2.0000000000000004e-2" height="2.0000000000000018e-2" x="-5.713794450465381e-2" y="-0.4083451013343268" /><rect width="1.9999999999999997e-2" height="2.0000000000000018e-2" x="-6.800271578086318e-2" y="-0.40985965780357425" /><rect width="1.9999999999999997e-2" height="2.0000000000000018e-2" x="-7.619162303185222e-2" y="-0.4071142729689965" /><rect width="1.9999999999999997e-2" height="2.0000000000000018e-2" x="-8.158056516570276e-2" y="-0.41123620178196296" /><rect width="1.999999999999999e-2" height="2.0000000000000018e-2" x="-8.967633741022756e-2" y="-0.4087010740978918" /><rect width="1.999999999999999e-2" height="2.0000000000000018e-2" x="-9.959788188007045e-2" y="-0.41026442202091684" /><rect width="1.999999999999999e-2" height="2.0000000000000018e-2" x="-0.10977731317647398" y="-0.4112251534256107" /><rect width="1.999999999999999e-2" height="2.0000000000000018e-2" x="-0.11827528311026407" y="-0.41353711432122164" /><rect width="1.999999999999999e-2" height="2.0000000000000018e-2" x="-0.12489026964993581" y="-0.4167774795289514" /><rect width="2.0000000000000004e-2" height="2.0000000000000018e-2" x="-0.134002668253491" y="-0.4159269966173069" /><rect width="2.0000000000000004e-2" height="2.0000000000000018e-2" x="-0.14276035145967592" y="-0.4176726508034284" /><rect width="2.0000000000000018e-2" height="2.0000000000000018e-2" x="-0.14912663490151973" y="-0.4154220338815917" /><rect width="2.0000000000000018e-2" height="2.0000000000000018e-2" x="-0.14587835626625162" y="-0.4212085634357029" /><rect width="2.0000000000000018e-2" height="2.0000000000000018e-2" x="-0.15422174457467058" y="-0.42318457029820034" /><rect width="2.0000000000000018e-2" height="2.0000000000000018e-2" x="-0.16197689517706026" y="-0.42204563706539133" /><rect width="2.0000000000000018e-2" height="2.0000000000000018e-2" x="-0.17070716766017857" y="-0.42211502736677087" /><rect width="2.0000000000000018e-2" height="2.0000000000000018e-2" x="-0.17895928692191354" y="-0.4234659809493362" /><rect width="2.0000000000000018e-2" height="2.0000000000000018e-2" x="-0.187103750450217" y="-0.4246960306454266" /><rect width="2.0000000000000018e-2" height="2.0000000000000018e-2" x="-0.19305249927745177" y="-0.42304968160758594" /><rect width="2.0000000000000018e-2" height="2.0000000000000018e-2" x="-0.20106499877852568" y="-0.42365419129652515" /><rect width="2.0000000000000018e-2" height="2.0000000000000018e-2" x="-0.208814747065312" y="-0.42371295745334137" /><rect width="2.0000000000000018e-2" height="2.0000000000000018e-2" x="-0.2163997355253809" y="-0.42385051533988427" /><rect width="2.0000000000000018e-2" height="2.0000000000000018e-2" x="-0.21545634278838105" y="-0.42830958403550734" /><rect width="2.0000000000000018e-2" height="2.0000000000000018e-2" x="-0.22267213284359338" y="-0.4281893768648085" /><rect width="2.0000000000000018e-2" height="2.0000000000000018e-2" x="-0.22899249186389786" y="-0.4273769472929442" /><rect width="2.0000000000000018e-2" height="2.0000000000000018e-2" x="-0.23033298718936268" y="-0.4245667108266019" /><rect width="2.0000000000000018e-2" height="2.0000000000000018e-2" x="-0.23577231884075395" y="-0.42316402572540235" /><rect width="2.0000000000000018e-2" height="2.0000000000000018e-2" x="-0.24242517659189333" y="-0.42415210950039883" /><rect width="2.0000000000000018e-2" height="2.0000000000000018e-2" x="-0.2400535964218517" y="-0.4284866513920952" /><rect width="2.0000000000000018e-2" height="2.0000000000000018e-2" x="-0.24674869440759" y="-0.4294336579072292" /><rect width="2.0000000000000018e-2" height="2.0000000000000018e-2" x="-0.25170652136782506" y="-0.4316183616626901" /><rect width="2.0000000000000018e-2" height="2.0000000000000018e-2" x="-0.2509563910515209" y="-0.4286053684406381" /><rect width="2.0000000000000018e-2" height="2.0000000000000018e-2" x="-0.23513620144926684" y="-0.42268388992037165" /><rect width="2.0000000000000018e-2" height="2.0000000000000018e-2" x="-0.2300260050939567" y="-0.418092501456924" /><rect width="2.0000000000000018e-2" height="2.0000000000000018e-2" x="-0.22970662499721323" y="-0.42174221237831555" /><rect width="2.0000000000000018e-2" height="2.0000000000000018e-2" x="-0.23667284631370766" y="-0.4223181261359883" /><rect width="2.0000000000000018e-2" height="2.0000000000000018e-2" x="-0.22854387091582123" y="-0.42768775277723703" /><rect width="2.0000000000000018e-2" height="2.0000000000000018e-2" x="-0.2316124285484541" y="-0.4252545542233951" /><rect width="2.0000000000000018e-2" height="2.0000000000000018e-2" x="-0.23773574227655891" y="-0.4241542182939647" /><rect width="2.0000000000000018e-2" height="2.0000000000000018e-2" x="-0.24369470332582083" y="-0.4255929509905042" /><rect width="2.0000000000000018e-2" height="2.0000000000000018e-2" x="-0.23761677989821034" y="-0.43057620014295794" /><rect width="2.0000000000000018e-2" height="2.0000000000000018e-2" x="-0.24415511439343007" y="-0.4301614736814723" /><rect width="2.0000000000000018e-2" height="2.0000000000000018e-2" x="-0.24316883564305902" y="-0.43420307587535334" /><rect width="2.0000000000000018e-2" height="2.0000000000000018e-2" x="-0.24957832274605818" y="-0.4339176493717939" /><rect width="2.0000000000000018e-2" height="2.0000000000000018e-2" x="-0.255294447416474" y="-0.4331504610487298" /><rect width="2.0000000000000018e-2" height="2.0000000000000018e-2" x="-0.2595435156172425" y="-0.4354730936158294" /><rect width="2.0000000000000018e-2" height="2.0000000000000018e-2" x="-0.2631367509817336" y="-0.4380770691253917" /><rect width="2.0000000000000018e-2" height="2.0000000000000018e-2" x="-0.2692031695491338" y="-0.4380875063806713" /><rect width="2.0000000000000018e-2" height="2.0000000000000018e-2" x="-0.2744055688360596" y="-0.43742805200828005" /><rect width="2.0000000000000018e-2" height="2.0000000000000018e-2" x="-0.2771851639247875" y="-0.4401266631076717" /><rect width="2.0000000000000018e-2" height="2.0000000000000018e-2" x="-0.28229394632349136" y="-0.43959153689680186" /><rect width="2.0000000000000018e-2" height="2.0000000000000018e-2" x="-0.2735655703755495" y="-0.4353824118425548" /><rect width="2.0000000000000018e-2" height="2.0000000000000018e-2" x="-0.27886574420749094" y="-0.43672972881122574" /><rect width="2.0000000000000018e-2" height="2.0000000000000018e-2" x="-0.2723143219848436" y="-0.4414712107134039" /><rect width="2.0000000000000018e-2" height="2.0000000000000018e-2" x="-0.2591758053178385" y="-0.4364323014260092" /><rect width="2.0000000000000018e-2" height="2.0000000000000018e-2" x="-0.26432125574215026" y="-0.43813790185899093" /><rect width="2.0000000000000018e-2" height="2.0000000000000018e-2" x="-0.2661762346005093" y="-0.4358313432854062" /><rect width="2.0000000000000018e-2" height="2.0000000000000018e-2" x="-0.2689661914787257" y="-0.4384024136052127" /><rect width="2.0000000000000018e-2" height="2.0000000000000018e-2" x="-0.26820019368071696" y="-0.4420461908802664" /><rect width="2.0000000000000018e-2" height="2.0000000000000018e-2" x="-0.269266871817461" y="-0.4396679856857396" /><rect width="2.0000000000000018e-2" height="2.0000000000000018e-2" x="-0.2677400308662726" y="-0.4434993236312943" /><rect width="2.0000000000000018e-2" height="2.0000000000000018e-2" x="-0.27129471760563617" y="-0.4419538427750058" /><rect width="2.0000000000000018e-2" height="2.0000000000000018e-2" x="-0.2773105504885278" y="-0.4425571823881542" /><rect width="2.0000000000000018e-2" height="2.0000000000000018e-2" x="-0.2714721289581723" y="-0.4472280141056362" /><rect width="2.0000000000000018e-2" height="2.0000000000000018e-2" x="-0.2765289942139219" y="-0.4490298536535732" /><rect width="2.0000000000000018e-2" height="2.0000000000000018e-2" x="-0.27687976896544897" y="-0.4467108600155837" /><rect width="2.0000000000000018e-2" height="2.0000000000000018e-2" x="-0.28222015378849447" y="-0.4462708272459135" /><rect width="2.0000000000000018e-2" height="2.0000000000000018e-2" x="-0.2879087706425092" y="-0.4463716326313806" /><rect width="2.0000000000000018e-2" height="2.0000000000000018e-2" x="-0.2639208866172737" y="-0.4400304291670858" /><rect width="2.0000000000000018e-2" height="2.0000000000000018e-2" x="-0.2071046270681629" y="-0.42948726883070876" /><rect width="2.0000000000000018e-2" height="2.0000000000000018e-2" x="-0.19630092323317389" y="-0.43534013201845756" /><rect width="2.0000000000000018e-2" height="2.0000000000000018e-2" x="-0.20373191282935005" y="-0.4342865692618021" /><rect width="2.0000000000000018e-2" height="2.0000000000000018e-2" x="-0.2102919374314613" y="-0.43576087728680435" /><rect width="2.0000000000000018e-2" height="2.0000000000000018e-2" x="-0.1540563681007961" y="-0.42399903443058273" /><rect width="2.0000000000000018e-2" height="2.0000000000000018e-2" x="-0.15391188813744894" y="-0.42815795021252967" /><rect width="2.0000000000000004e-2" height="2.0000000000000018e-2" x="-0.12803766292887664" y="-0.4370858729458156" /><rect width="1.999999999999999e-2" height="2.0000000000000018e-2" x="-0.12140084230726038" y="-0.44360521831233735" /><rect width="2.0000000000000004e-2" height="2.0000000000000018e-2" x="-0.13070797589924976" y="-0.44510516038392123" /><rect width="2.0000000000000004e-2" height="2.0000000000000018e-2" x="-0.13255870941947395" y="-0.4410905518494811" /><rect width="2.0000000000000004e-2" height="2.0000000000000018e-2" x="-0.1361968617639428" y="-0.44512064932102535" /><rect width="2.0000000000000018e-2" height="2.0000000000000018e-2" x="-0.1456574128895416" y="-0.44557706568869515" /><rect width="2.0000000000000018e-2" height="2.0000000000000018e-2" x="-0.1508743705998889" y="-0.44902149144697034" /><rect width="2.0000000000000018e-2" height="2.0000000000000018e-2" x="-0.1580018480015538" y="-0.44734986684657563" /><rect width="2.0000000000000018e-2" height="2.0000000000000018e-2" x="-0.1669050794085376" y="-0.4478811497734174" /><rect width="2.0000000000000018e-2" height="2.0000000000000018e-2" x="-0.1719481992755147" y="-0.4454079570550177" /><rect width="2.0000000000000018e-2" height="2.0000000000000018e-2" x="-0.17854732233290566" y="-0.4477538215287602" /><rect width="2.0000000000000018e-2" height="2.0000000000000018e-2" x="-0.18166449769722331" y="-0.44471686657837683" /><rect width="2.0000000000000018e-2" height="2.0000000000000018e-2" x="-0.16486046597621218" y="-0.4374634085056661" /></g><g /></svg>