
<svg xmlns="http://www.w3.org/2000/svg" height="300.0" viewBox="-0.8969862583781796 -0.7291117908787541 1.6733675714790326 1.4621277087112015" width="450.0" xmlns:xlink="http://www.w3.org/1999/xlink">
  <g transform="translate(-8.294640591007696e-2, -0.5475)" fill-opacity="1.0" font-size="0.12" stroke="none" stroke-width="0.0" fill="#000000" text-anchor="middle">
    <text transform="rotate(0.0, 2.2643933271413452e-2, -5.0611790878754115e-2)" x="2.2643933271413452e-2" y="-5.0611790878754115e-2">digitalised return
    </text>
  </g>
  <g stroke-opacity="0.0" fill-opacity="3.0e-2" stroke="#000000" stroke-width="0.0" fill="#666666">
    <rect height="0.8898776418242489" width="1.4474747596588788" x="-0.7010934465580259" y="-0.49555061179087856"/>
  </g>
  <g stroke-opacity="0.3" stroke="#a8e5ee" stroke-width="5.0e-3" fill="none">
    <polyline points="-0.7010934465580259,0.39877641824249166
-0.7010934465580259,-0.5"/>
  </g>
  <g stroke-opacity="0.3" stroke="#a8e5ee" stroke-width="5.0e-3" fill="none">
    <polyline points="-0.6372769240880953,0.39877641824249166
-0.6372769240880953,-0.5"/>
  </g>
  <g stroke-opacity="0.3" stroke="#a8e5ee" stroke-width="5.0e-3" fill="none">
    <polyline points="-0.45162885872102476,0.39877641824249166
-0.45162885872102476,-0.5"/>
  </g>
  <g stroke-opacity="0.3" stroke="#a8e5ee" stroke-width="5.0e-3" fill="none">
    <polyline points="-0.26888154437531464,0.39877641824249166
-0.26888154437531464,-0.5"/>
  </g>
  <g stroke-opacity="0.3" stroke="#a8e5ee" stroke-width="5.0e-3" fill="none">
    <polyline points="-8.613423002960441e-2,0.39877641824249166
-8.613423002960441e-2,-0.5"/>
  </g>
  <g stroke-opacity="0.3" stroke="#a8e5ee" stroke-width="5.0e-3" fill="none">
    <polyline points="9.08115822733847e-2,0.39877641824249166
9.08115822733847e-2,-0.5"/>
  </g>
  <g stroke-opacity="0.3" stroke="#a8e5ee" stroke-width="5.0e-3" fill="none">
    <polyline points="0.2735588966190947,0.39877641824249166
0.2735588966190947,-0.5"/>
  </g>
  <g stroke-opacity="0.3" stroke="#a8e5ee" stroke-width="5.0e-3" fill="none">
    <polyline points="0.4592069619861654,0.39877641824249166
0.4592069619861654,-0.5"/>
  </g>
  <g stroke-opacity="0.3" stroke="#a8e5ee" stroke-width="5.0e-3" fill="none">
    <polyline points="0.6448550273532361,0.39877641824249166
0.6448550273532361,-0.5"/>
  </g>
  <g stroke-opacity="0.3" stroke="#a8e5ee" stroke-width="5.0e-3" fill="none">
    <polyline points="0.746381313100853,0.39877641824249166
0.746381313100853,-0.5"/>
  </g>
  <g fill-opacity="1.0" font-size="5.0e-2" stroke="none" stroke-width="0.0" fill="#666666" text-anchor="end">
    <text transform="rotate(-45.0, -0.7010934465580259, 0.5)" x="-0.7010934465580259" y="0.5">27 Feb 2018
    </text>
  </g>
  <g fill-opacity="1.0" font-size="5.0e-2" stroke="none" stroke-width="0.0" fill="#666666" text-anchor="end">
    <text transform="rotate(-45.0, -0.6372769240880953, 0.5)" x="-0.6372769240880953" y="0.5">31 Mar 2018
    </text>
  </g>
  <g fill-opacity="1.0" font-size="5.0e-2" stroke="none" stroke-width="0.0" fill="#666666" text-anchor="end">
    <text transform="rotate(-45.0, -0.45162885872102476, 0.5)" x="-0.45162885872102476" y="0.5">30 Jun 2018
    </text>
  </g>
  <g fill-opacity="1.0" font-size="5.0e-2" stroke="none" stroke-width="0.0" fill="#666666" text-anchor="end">
    <text transform="rotate(-45.0, -0.26888154437531464, 0.5)" x="-0.26888154437531464" y="0.5">30 Sep 2018
    </text>
  </g>
  <g fill-opacity="1.0" font-size="5.0e-2" stroke="none" stroke-width="0.0" fill="#666666" text-anchor="end">
    <text transform="rotate(-45.0, -8.613423002960441e-2, 0.5)" x="-8.613423002960441e-2" y="0.5">31 Dec 2018
    </text>
  </g>
  <g fill-opacity="1.0" font-size="5.0e-2" stroke="none" stroke-width="0.0" fill="#666666" text-anchor="end">
    <text transform="rotate(-45.0, 9.08115822733847e-2, 0.5)" x="9.08115822733847e-2" y="0.5">31 Mar 2019
    </text>
  </g>
  <g fill-opacity="1.0" font-size="5.0e-2" stroke="none" stroke-width="0.0" fill="#666666" text-anchor="end">
    <text transform="rotate(-45.0, 0.2735588966190947, 0.5)" x="0.2735588966190947" y="0.5">30 Jun 2019
    </text>
  </g>
  <g fill-opacity="1.0" font-size="5.0e-2" stroke="none" stroke-width="0.0" fill="#666666" text-anchor="end">
    <text transform="rotate(-45.0, 0.4592069619861654, 0.5)" x="0.4592069619861654" y="0.5">30 Sep 2019
    </text>
  </g>
  <g fill-opacity="1.0" font-size="5.0e-2" stroke="none" stroke-width="0.0" fill="#666666" text-anchor="end">
    <text transform="rotate(-45.0, 0.6448550273532361, 0.5)" x="0.6448550273532361" y="0.5">31 Dec 2019
    </text>
  </g>
  <g fill-opacity="1.0" font-size="5.0e-2" stroke="none" stroke-width="0.0" fill="#666666" text-anchor="end">
    <text transform="rotate(-45.0, 0.746381313100853, 0.5)" x="0.746381313100853" y="0.5">21 Feb 2020
    </text>
  </g>
  <g stroke-opacity="0.4" fill-opacity="1.0" stroke="#2c429d" stroke-width="5.0e-3" fill="#5f0391">
    <polyline points="-0.7010934465580259,0.44047274749721915
-0.7010934465580259,0.4104727474972191"/>
    <polyline points="-0.6372769240880953,0.44047274749721915
-0.6372769240880953,0.4104727474972191"/>
    <polyline points="-0.45162885872102476,0.44047274749721915
-0.45162885872102476,0.4104727474972191"/>
    <polyline points="-0.26888154437531464,0.44047274749721915
-0.26888154437531464,0.4104727474972191"/>
    <polyline points="-8.613423002960441e-2,0.44047274749721915
-8.613423002960441e-2,0.4104727474972191"/>
    <polyline points="9.08115822733847e-2,0.44047274749721915
9.08115822733847e-2,0.4104727474972191"/>
    <polyline points="0.2735588966190947,0.44047274749721915
0.2735588966190947,0.4104727474972191"/>
    <polyline points="0.4592069619861654,0.44047274749721915
0.4592069619861654,0.4104727474972191"/>
    <polyline points="0.6448550273532361,0.44047274749721915
0.6448550273532361,0.4104727474972191"/>
    <polyline points="0.746381313100853,0.44047274749721915
0.746381313100853,0.4104727474972191"/>
  </g>
  <g stroke-opacity="0.0" fill-opacity="0.5" stroke="#666666" stroke-width="0.0" fill="#5f0391">
    <rect height="4.449388209121219e-3" width="1.4474747596588788" x="-0.7010934465580259" y="0.4121245828698554"/>
  </g>
  <g stroke-opacity="0.3" stroke="#a8e5ee" stroke-width="5.0e-3" fill="none">
    <polyline points="-0.704712133457173,0.34488938326535656
0.75,0.34488938326535656"/>
  </g>
  <g stroke-opacity="0.3" stroke="#a8e5ee" stroke-width="5.0e-3" fill="none">
    <polyline points="-0.704712133457173,0.24601408972932892
0.75,0.24601408972932892"/>
  </g>
  <g stroke-opacity="0.3" stroke="#a8e5ee" stroke-width="5.0e-3" fill="none">
    <polyline points="-0.704712133457173,0.14713879619330117
0.75,0.14713879619330117"/>
  </g>
  <g stroke-opacity="0.3" stroke="#a8e5ee" stroke-width="5.0e-3" fill="none">
    <polyline points="-0.704712133457173,4.826350265727347e-2
0.75,4.826350265727347e-2"/>
  </g>
  <g stroke-opacity="0.3" stroke="#a8e5ee" stroke-width="5.0e-3" fill="none">
    <polyline points="-0.704712133457173,-5.0611790878754115e-2
0.75,-5.0611790878754115e-2"/>
  </g>
  <g stroke-opacity="0.3" stroke="#a8e5ee" stroke-width="5.0e-3" fill="none">
    <polyline points="-0.704712133457173,-0.14948708441478187
0.75,-0.14948708441478187"/>
  </g>
  <g stroke-opacity="0.3" stroke="#a8e5ee" stroke-width="5.0e-3" fill="none">
    <polyline points="-0.704712133457173,-0.2483623779508095
0.75,-0.2483623779508095"/>
  </g>
  <g stroke-opacity="0.3" stroke="#a8e5ee" stroke-width="5.0e-3" fill="none">
    <polyline points="-0.704712133457173,-0.34723767148683726
0.75,-0.34723767148683726"/>
  </g>
  <g stroke-opacity="0.3" stroke="#a8e5ee" stroke-width="5.0e-3" fill="none">
    <polyline points="-0.704712133457173,-0.4461129650228649
0.75,-0.4461129650228649"/>
  </g>
  <g fill-opacity="1.0" font-size="5.0e-2" stroke="none" stroke-width="0.0" fill="#666666" text-anchor="end">
    <text x="-0.75" y="0.35779260907180815">10th
    </text>
  </g>
  <g fill-opacity="1.0" font-size="5.0e-2" stroke="none" stroke-width="0.0" fill="#666666" text-anchor="end">
    <text x="-0.75" y="0.25891731553578057">20th
    </text>
  </g>
  <g fill-opacity="1.0" font-size="5.0e-2" stroke="none" stroke-width="0.0" fill="#666666" text-anchor="end">
    <text x="-0.75" y="0.16004202199975281">30th
    </text>
  </g>
  <g fill-opacity="1.0" font-size="5.0e-2" stroke="none" stroke-width="0.0" fill="#666666" text-anchor="end">
    <text x="-0.75" y="6.116672846372512e-2">40th
    </text>
  </g>
  <g fill-opacity="1.0" font-size="5.0e-2" stroke="none" stroke-width="0.0" fill="#666666" text-anchor="end">
    <text x="-0.75" y="-3.770856507230258e-2">50th
    </text>
  </g>
  <g fill-opacity="1.0" font-size="5.0e-2" stroke="none" stroke-width="0.0" fill="#666666" text-anchor="end">
    <text x="-0.75" y="-0.13658385860833033">60th
    </text>
  </g>
  <g fill-opacity="1.0" font-size="5.0e-2" stroke="none" stroke-width="0.0" fill="#666666" text-anchor="end">
    <text x="-0.75" y="-0.23545915214435797">70th
    </text>
  </g>
  <g fill-opacity="1.0" font-size="5.0e-2" stroke="none" stroke-width="0.0" fill="#666666" text-anchor="end">
    <text x="-0.75" y="-0.3343344456803856">80th
    </text>
  </g>
  <g fill-opacity="1.0" font-size="5.0e-2" stroke="none" stroke-width="0.0" fill="#666666" text-anchor="end">
    <text x="-0.75" y="-0.43320973921641315">90th
    </text>
  </g>
  <g stroke-opacity="0.4" fill-opacity="1.0" stroke="#2c429d" stroke-width="5.0e-3" fill="#5f0391">
    <g transform="rotate(-90.0, -0.7264242548520562, 0.34488938326535656)">
      <polyline points="-0.7264242548520562,0.3598893832653566
-0.7264242548520562,0.32988938326535655"/>
    </g>
    <g transform="rotate(-90.0, -0.7264242548520562, 0.24601408972932892)">
      <polyline points="-0.7264242548520562,0.26101408972932894
-0.7264242548520562,0.2310140897293289"/>
    </g>
    <g transform="rotate(-90.0, -0.7264242548520562, 0.14713879619330117)">
      <polyline points="-0.7264242548520562,0.16213879619330118
-0.7264242548520562,0.13213879619330116"/>
    </g>
    <g transform="rotate(-90.0, -0.7264242548520562, 4.826350265727347e-2)">
      <polyline points="-0.7264242548520562,6.326350265727347e-2
-0.7264242548520562,3.326350265727347e-2"/>
    </g>
    <g transform="rotate(-90.0, -0.7264242548520562, -5.0611790878754115e-2)">
      <polyline points="-0.7264242548520562,-3.5611790878754115e-2
-0.7264242548520562,-6.561179087875411e-2"/>
    </g>
    <g transform="rotate(-90.0, -0.7264242548520562, -0.14948708441478187)">
      <polyline points="-0.7264242548520562,-0.13448708441478185
-0.7264242548520562,-0.16448708441478188"/>
    </g>
    <g transform="rotate(-90.0, -0.7264242548520562, -0.2483623779508095)">
      <polyline points="-0.7264242548520562,-0.2333623779508095
-0.7264242548520562,-0.2633623779508095"/>
    </g>
    <g transform="rotate(-90.0, -0.7264242548520562, -0.34723767148683726)">
      <polyline points="-0.7264242548520562,-0.33223767148683725
-0.7264242548520562,-0.3622376714868373"/>
    </g>
    <g transform="rotate(-90.0, -0.7264242548520562, -0.4461129650228649)">
      <polyline points="-0.7264242548520562,-0.4311129650228649
-0.7264242548520562,-0.4611129650228649"/>
    </g>
  </g>
  <g stroke-opacity="0.0" fill-opacity="0.5" stroke="#666666" stroke-width="0.0" fill="#5f0391">
    <rect height="0.8898776418242489" width="3.6186868991471277e-3" x="-0.7191868810537617" y="-0.49555061179087856"/>
  </g>
  <g stroke-opacity="0.4" fill-opacity="0.8" stroke="#2c429d" stroke-width="3.0e-3" fill="#5da5da">
    <circle cy="0.3943270300333704" r="5.0e-3" cx="-0.7010934465580259"/>
    <circle cy="0.3943270300333704" r="5.0e-3" cx="-0.6981926955366653"/>
    <circle cy="0.3943270300333704" r="5.0e-3" cx="-0.6952919445153048"/>
    <circle cy="-0.2978000247188233" r="5.0e-3" cx="-0.6923911934939444"/>
    <circle cy="-0.49555061179087856" r="5.0e-3" cx="-0.689490442472584"/>
    <circle cy="-0.19892473118279563" r="5.0e-3" cx="-0.6865896914512234"/>
    <circle cy="9.77011494252874e-2" r="5.0e-3" cx="-0.683688940429863"/>
    <circle cy="-0.2978000247188233" r="5.0e-3" cx="-0.6807881894085025"/>
    <circle cy="-0.49555061179087856" r="5.0e-3" cx="-0.677887438387142"/>
    <circle cy="0.19657644296131505" r="5.0e-3" cx="-0.6749866873657815"/>
    <circle cy="0.3943270300333704" r="5.0e-3" cx="-0.672085936344421"/>
    <circle cy="0.2954517364973427" r="5.0e-3" cx="-0.6691851853230606"/>
    <circle cy="9.77011494252874e-2" r="5.0e-3" cx="-0.6662844343017"/>
    <circle cy="-0.19892473118279563" r="5.0e-3" cx="-0.6633836832803396"/>
    <circle cy="0.3943270300333704" r="5.0e-3" cx="-0.6604829322589791"/>
    <circle cy="-0.10004943764676799" r="5.0e-3" cx="-0.6575821812376187"/>
    <circle cy="0.19657644296131505" r="5.0e-3" cx="-0.6546814302162582"/>
    <circle cy="0.3943270300333704" r="5.0e-3" cx="-0.6517806791948977"/>
    <circle cy="0.3943270300333704" r="5.0e-3" cx="-0.6488799281735372"/>
    <circle cy="-0.49555061179087856" r="5.0e-3" cx="-0.6459791771521768"/>
    <circle cy="0.3943270300333704" r="5.0e-3" cx="-0.6430784261308163"/>
    <circle cy="0.19657644296131505" r="5.0e-3" cx="-0.6401776751094558"/>
    <circle cy="-0.49555061179087856" r="5.0e-3" cx="-0.6372769240880953"/>
    <circle cy="0.3943270300333704" r="5.0e-3" cx="-0.6343761730667349"/>
    <circle cy="-0.49555061179087856" r="5.0e-3" cx="-0.6314754220453743"/>
    <circle cy="-0.3966753182548509" r="5.0e-3" cx="-0.6285746710240139"/>
    <circle cy="-0.3966753182548509" r="5.0e-3" cx="-0.6256739200026534"/>
    <circle cy="0.3943270300333704" r="5.0e-3" cx="-0.622773168981293"/>
    <circle cy="-0.2978000247188233" r="5.0e-3" cx="-0.6198724179599324"/>
    <circle cy="-0.49555061179087856" r="5.0e-3" cx="-0.616971666938572"/>
    <circle cy="0.2954517364973427" r="5.0e-3" cx="-0.6140709159172115"/>
    <circle cy="-0.3966753182548509" r="5.0e-3" cx="-0.611170164895851"/>
    <circle cy="0.19657644296131505" r="5.0e-3" cx="-0.6082694138744905"/>
    <circle cy="-0.3966753182548509" r="5.0e-3" cx="-0.6053686628531301"/>
    <circle cy="-0.3966753182548509" r="5.0e-3" cx="-0.6024679118317695"/>
    <circle cy="-1.1741441107403494e-3" r="5.0e-3" cx="-0.5995671608104091"/>
    <circle cy="0.2954517364973427" r="5.0e-3" cx="-0.5966664097890486"/>
    <circle cy="0.2954517364973427" r="5.0e-3" cx="-0.5937656587676882"/>
    <circle cy="-1.1741441107403494e-3" r="5.0e-3" cx="-0.5908649077463277"/>
    <circle cy="0.3943270300333704" r="5.0e-3" cx="-0.5879641567249672"/>
    <circle cy="-0.19892473118279563" r="5.0e-3" cx="-0.5850634057036067"/>
    <circle cy="-0.3966753182548509" r="5.0e-3" cx="-0.5821626546822463"/>
    <circle cy="-0.10004943764676799" r="5.0e-3" cx="-0.5792619036608857"/>
    <circle cy="0.2954517364973427" r="5.0e-3" cx="-0.5763611526395254"/>
    <circle cy="-0.19892473118279563" r="5.0e-3" cx="-0.5734604016181648"/>
    <circle cy="0.2954517364973427" r="5.0e-3" cx="-0.5705596505968044"/>
    <circle cy="0.19657644296131505" r="5.0e-3" cx="-0.5676588995754439"/>
    <circle cy="-0.49555061179087856" r="5.0e-3" cx="-0.5647581485540834"/>
    <circle cy="-0.2978000247188233" r="5.0e-3" cx="-0.5618573975327229"/>
    <circle cy="-1.1741441107403494e-3" r="5.0e-3" cx="-0.5589566465113625"/>
    <circle cy="-0.3966753182548509" r="5.0e-3" cx="-0.5560558954900019"/>
    <circle cy="-0.3966753182548509" r="5.0e-3" cx="-0.5531551444686414"/>
    <circle cy="-0.10004943764676799" r="5.0e-3" cx="-0.550254393447281"/>
    <circle cy="-0.10004943764676799" r="5.0e-3" cx="-0.5473536424259204"/>
    <circle cy="0.2954517364973427" r="5.0e-3" cx="-0.54445289140456"/>
    <circle cy="-0.2978000247188233" r="5.0e-3" cx="-0.5415521403831995"/>
    <circle cy="9.77011494252874e-2" r="5.0e-3" cx="-0.538651389361839"/>
    <circle cy="0.19657644296131505" r="5.0e-3" cx="-0.5357506383404785"/>
    <circle cy="-0.3966753182548509" r="5.0e-3" cx="-0.5328498873191181"/>
    <circle cy="0.19657644296131505" r="5.0e-3" cx="-0.5299491362977576"/>
    <circle cy="-0.19892473118279563" r="5.0e-3" cx="-0.5270483852763972"/>
    <circle cy="0.19657644296131505" r="5.0e-3" cx="-0.5241476342550366"/>
    <circle cy="0.19657644296131505" r="5.0e-3" cx="-0.5212468832336761"/>
    <circle cy="0.3943270300333704" r="5.0e-3" cx="-0.5183461322123156"/>
    <circle cy="-0.49555061179087856" r="5.0e-3" cx="-0.5154453811909552"/>
    <circle cy="0.2954517364973427" r="5.0e-3" cx="-0.5125446301695947"/>
    <circle cy="-0.3966753182548509" r="5.0e-3" cx="-0.5096438791482343"/>
    <circle cy="-0.2978000247188233" r="5.0e-3" cx="-0.5067431281268737"/>
    <circle cy="-1.1741441107403494e-3" r="5.0e-3" cx="-0.5038423771055133"/>
    <circle cy="-0.3966753182548509" r="5.0e-3" cx="-0.5009416260841528"/>
    <circle cy="9.77011494252874e-2" r="5.0e-3" cx="-0.4980408750627923"/>
    <circle cy="-0.19892473118279563" r="5.0e-3" cx="-0.49514012404143193"/>
    <circle cy="-0.10004943764676799" r="5.0e-3" cx="-0.4922393730200714"/>
    <circle cy="-0.10004943764676799" r="5.0e-3" cx="-0.4893386219987109"/>
    <circle cy="0.2954517364973427" r="5.0e-3" cx="-0.4864378709773505"/>
    <circle cy="-0.19892473118279563" r="5.0e-3" cx="-0.48353711995598997"/>
    <circle cy="9.77011494252874e-2" r="5.0e-3" cx="-0.48063636893462947"/>
    <circle cy="0.19657644296131505" r="5.0e-3" cx="-0.477735617913269"/>
    <circle cy="0.2954517364973427" r="5.0e-3" cx="-0.4748348668919085"/>
    <circle cy="-0.10004943764676799" r="5.0e-3" cx="-0.47193411587054807"/>
    <circle cy="0.2954517364973427" r="5.0e-3" cx="-0.46903336484918756"/>
    <circle cy="-0.19892473118279563" r="5.0e-3" cx="-0.4661326138278271"/>
    <circle cy="0.3943270300333704" r="5.0e-3" cx="-0.4632318628064666"/>
    <circle cy="-0.19892473118279563" r="5.0e-3" cx="-0.4603311117851061"/>
    <circle cy="0.3943270300333704" r="5.0e-3" cx="-0.4574303607637457"/>
    <circle cy="-0.2978000247188233" r="5.0e-3" cx="-0.45452960974238527"/>
    <circle cy="-1.1741441107403494e-3" r="5.0e-3" cx="-0.45162885872102476"/>
    <circle cy="-0.2978000247188233" r="5.0e-3" cx="-0.44872810769966426"/>
    <circle cy="0.2954517364973427" r="5.0e-3" cx="-0.44582735667830375"/>
    <circle cy="-0.3966753182548509" r="5.0e-3" cx="-0.4429266056569433"/>
    <circle cy="-0.3966753182548509" r="5.0e-3" cx="-0.44002585463558286"/>
    <circle cy="-0.3966753182548509" r="5.0e-3" cx="-0.43712510361422235"/>
    <circle cy="-0.2978000247188233" r="5.0e-3" cx="-0.43422435259286185"/>
    <circle cy="0.2954517364973427" r="5.0e-3" cx="-0.4313236015715014"/>
    <circle cy="-0.3966753182548509" r="5.0e-3" cx="-0.4284228505501409"/>
    <circle cy="-0.10004943764676799" r="5.0e-3" cx="-0.42552209952878045"/>
    <circle cy="9.77011494252874e-2" r="5.0e-3" cx="-0.42262134850741995"/>
    <circle cy="-0.2978000247188233" r="5.0e-3" cx="-0.41972059748605944"/>
    <circle cy="-0.19892473118279563" r="5.0e-3" cx="-0.41681984646469894"/>
    <circle cy="0.19657644296131505" r="5.0e-3" cx="-0.4139190954433385"/>
    <circle cy="9.77011494252874e-2" r="5.0e-3" cx="-0.41101834442197804"/>
    <circle cy="-0.19892473118279563" r="5.0e-3" cx="-0.40811759340061754"/>
    <circle cy="-0.2978000247188233" r="5.0e-3" cx="-0.40521684237925704"/>
    <circle cy="-0.3966753182548509" r="5.0e-3" cx="-0.4023160913578966"/>
    <circle cy="0.19657644296131505" r="5.0e-3" cx="-0.3994153403365361"/>
    <circle cy="0.2954517364973427" r="5.0e-3" cx="-0.39651458931517564"/>
    <circle cy="0.2954517364973427" r="5.0e-3" cx="-0.39361383829381513"/>
    <circle cy="-0.2978000247188233" r="5.0e-3" cx="-0.39071308727245463"/>
    <circle cy="9.77011494252874e-2" r="5.0e-3" cx="-0.3878123362510941"/>
    <circle cy="-0.2978000247188233" r="5.0e-3" cx="-0.3849115852297337"/>
    <circle cy="-0.2978000247188233" r="5.0e-3" cx="-0.38201083420837323"/>
    <circle cy="-0.19892473118279563" r="5.0e-3" cx="-0.3791100831870127"/>
    <circle cy="-0.19892473118279563" r="5.0e-3" cx="-0.3762093321656522"/>
    <circle cy="-1.1741441107403494e-3" r="5.0e-3" cx="-0.3733085811442918"/>
    <circle cy="9.77011494252874e-2" r="5.0e-3" cx="-0.3704078301229313"/>
    <circle cy="0.3943270300333704" r="5.0e-3" cx="-0.36750707910157077"/>
    <circle cy="0.19657644296131505" r="5.0e-3" cx="-0.3646063280802103"/>
    <circle cy="-0.3966753182548509" r="5.0e-3" cx="-0.36170557705884987"/>
    <circle cy="0.3943270300333704" r="5.0e-3" cx="-0.3588048260374893"/>
    <circle cy="-0.3966753182548509" r="5.0e-3" cx="-0.35590407501612886"/>
    <circle cy="-0.19892473118279563" r="5.0e-3" cx="-0.35300332399476836"/>
    <circle cy="-0.19892473118279563" r="5.0e-3" cx="-0.3501025729734079"/>
    <circle cy="-0.10004943764676799" r="5.0e-3" cx="-0.3472018219520475"/>
    <circle cy="-1.1741441107403494e-3" r="5.0e-3" cx="-0.344301070930687"/>
    <circle cy="9.77011494252874e-2" r="5.0e-3" cx="-0.34140031990932657"/>
    <circle cy="-0.2978000247188233" r="5.0e-3" cx="-0.33849956888796606"/>
    <circle cy="-0.3966753182548509" r="5.0e-3" cx="-0.3355988178666056"/>
    <circle cy="-1.1741441107403494e-3" r="5.0e-3" cx="-0.33269806684524517"/>
    <circle cy="-0.2978000247188233" r="5.0e-3" cx="-0.3297973158238846"/>
    <circle cy="0.2954517364973427" r="5.0e-3" cx="-0.32689656480252416"/>
    <circle cy="-1.1741441107403494e-3" r="5.0e-3" cx="-0.3239958137811636"/>
    <circle cy="0.19657644296131505" r="5.0e-3" cx="-0.32109506275980315"/>
    <circle cy="0.19657644296131505" r="5.0e-3" cx="-0.3181943117384427"/>
    <circle cy="0.19657644296131505" r="5.0e-3" cx="-0.3152935607170822"/>
    <circle cy="0.19657644296131505" r="5.0e-3" cx="-0.31239280969572175"/>
    <circle cy="-0.10004943764676799" r="5.0e-3" cx="-0.30949205867436125"/>
    <circle cy="-0.2978000247188233" r="5.0e-3" cx="-0.3065913076530008"/>
    <circle cy="-1.1741441107403494e-3" r="5.0e-3" cx="-0.30369055663164035"/>
    <circle cy="-0.2978000247188233" r="5.0e-3" cx="-0.3007898056102798"/>
    <circle cy="-1.1741441107403494e-3" r="5.0e-3" cx="-0.29788905458891934"/>
    <circle cy="0.2954517364973427" r="5.0e-3" cx="-0.2949883035675588"/>
    <circle cy="-0.2978000247188233" r="5.0e-3" cx="-0.29208755254619845"/>
    <circle cy="-0.10004943764676799" r="5.0e-3" cx="-0.2891868015248379"/>
    <circle cy="-0.3966753182548509" r="5.0e-3" cx="-0.28628605050347744"/>
    <circle cy="-1.1741441107403494e-3" r="5.0e-3" cx="-0.283385299482117"/>
    <circle cy="0.19657644296131505" r="5.0e-3" cx="-0.2804845484607565"/>
    <circle cy="9.77011494252874e-2" r="5.0e-3" cx="-0.27758379743939604"/>
    <circle cy="0.19657644296131505" r="5.0e-3" cx="-0.27468304641803554"/>
    <circle cy="-0.19892473118279563" r="5.0e-3" cx="-0.2717822953966751"/>
    <circle cy="-1.1741441107403494e-3" r="5.0e-3" cx="-0.26888154437531464"/>
    <circle cy="-0.2978000247188233" r="5.0e-3" cx="-0.2659807933539541"/>
    <circle cy="9.77011494252874e-2" r="5.0e-3" cx="-0.26308004233259363"/>
    <circle cy="-0.10004943764676799" r="5.0e-3" cx="-0.2601792913112331"/>
    <circle cy="0.3943270300333704" r="5.0e-3" cx="-0.2572785402898726"/>
    <circle cy="0.2954517364973427" r="5.0e-3" cx="-0.2543777892685122"/>
    <circle cy="-1.1741441107403494e-3" r="5.0e-3" cx="-0.2514770382471517"/>
    <circle cy="9.77011494252874e-2" r="5.0e-3" cx="-0.24857628722579128"/>
    <circle cy="0.3943270300333704" r="5.0e-3" cx="-0.24567553620443072"/>
    <circle cy="0.3943270300333704" r="5.0e-3" cx="-0.24277478518307027"/>
    <circle cy="-0.49555061179087856" r="5.0e-3" cx="-0.23987403416170983"/>
    <circle cy="0.2954517364973427" r="5.0e-3" cx="-0.23697328314034927"/>
    <circle cy="-0.49555061179087856" r="5.0e-3" cx="-0.23407253211898882"/>
    <circle cy="-1.1741441107403494e-3" r="5.0e-3" cx="-0.23117178109762826"/>
    <circle cy="0.3943270300333704" r="5.0e-3" cx="-0.2282710300762678"/>
    <circle cy="-1.1741441107403494e-3" r="5.0e-3" cx="-0.22537027905490736"/>
    <circle cy="0.2954517364973427" r="5.0e-3" cx="-0.22246952803354691"/>
    <circle cy="0.2954517364973427" r="5.0e-3" cx="-0.21956877701218636"/>
    <circle cy="0.3943270300333704" r="5.0e-3" cx="-0.21666802599082602"/>
    <circle cy="-0.49555061179087856" r="5.0e-3" cx="-0.21376727496946546"/>
    <circle cy="0.3943270300333704" r="5.0e-3" cx="-0.21086652394810512"/>
    <circle cy="0.2954517364973427" r="5.0e-3" cx="-0.20796577292674456"/>
    <circle cy="-0.49555061179087856" r="5.0e-3" cx="-0.20506502190538412"/>
    <circle cy="-0.49555061179087856" r="5.0e-3" cx="-0.20216427088402356"/>
    <circle cy="-0.49555061179087856" r="5.0e-3" cx="-0.1992635198626631"/>
    <circle cy="0.2954517364973427" r="5.0e-3" cx="-0.19636276884130266"/>
    <circle cy="-0.2978000247188233" r="5.0e-3" cx="-0.1934620178199421"/>
    <circle cy="-0.3966753182548509" r="5.0e-3" cx="-0.19056126679858165"/>
    <circle cy="-0.49555061179087856" r="5.0e-3" cx="-0.1876605157772211"/>
    <circle cy="9.77011494252874e-2" r="5.0e-3" cx="-0.18475976475586076"/>
    <circle cy="0.3943270300333704" r="5.0e-3" cx="-0.1818590137345002"/>
    <circle cy="0.3943270300333704" r="5.0e-3" cx="-0.17895826271313975"/>
    <circle cy="9.77011494252874e-2" r="5.0e-3" cx="-0.1760575116917793"/>
    <circle cy="0.2954517364973427" r="5.0e-3" cx="-0.17315676067041874"/>
    <circle cy="-0.49555061179087856" r="5.0e-3" cx="-0.1702560096490583"/>
    <circle cy="-0.19892473118279563" r="5.0e-3" cx="-0.16735525862769784"/>
    <circle cy="0.3943270300333704" r="5.0e-3" cx="-0.16445450760633729"/>
    <circle cy="0.3943270300333704" r="5.0e-3" cx="-0.16155375658497684"/>
    <circle cy="-0.19892473118279563" r="5.0e-3" cx="-0.1586530055636164"/>
    <circle cy="0.2954517364973427" r="5.0e-3" cx="-0.15575225454225583"/>
    <circle cy="-0.49555061179087856" r="5.0e-3" cx="-0.1528515035208955"/>
    <circle cy="-0.19892473118279563" r="5.0e-3" cx="-0.14995075249953493"/>
    <circle cy="-0.49555061179087856" r="5.0e-3" cx="-0.14705000147817449"/>
    <circle cy="9.77011494252874e-2" r="5.0e-3" cx="-0.14414925045681404"/>
    <circle cy="-0.3966753182548509" r="5.0e-3" cx="-0.1412484994354536"/>
    <circle cy="-0.49555061179087856" r="5.0e-3" cx="-0.13834774841409314"/>
    <circle cy="0.3943270300333704" r="5.0e-3" cx="-0.13544699739273258"/>
    <circle cy="9.77011494252874e-2" r="5.0e-3" cx="-0.13254624637137213"/>
    <circle cy="0.3943270300333704" r="5.0e-3" cx="-0.12964549535001157"/>
    <circle cy="-0.10004943764676799" r="5.0e-3" cx="-0.12674474432865113"/>
    <circle cy="-1.1741441107403494e-3" r="5.0e-3" cx="-0.12384399330729068"/>
    <circle cy="-0.2978000247188233" r="5.0e-3" cx="-0.12094324228593023"/>
    <circle cy="-1.1741441107403494e-3" r="5.0e-3" cx="-0.11804249126456967"/>
    <circle cy="0.3943270300333704" r="5.0e-3" cx="-0.11514174024320922"/>
    <circle cy="0.3943270300333704" r="5.0e-3" cx="-0.11224098922184877"/>
    <circle cy="-0.10004943764676799" r="5.0e-3" cx="-0.10934023820048833"/>
    <circle cy="0.2954517364973427" r="5.0e-3" cx="-0.10643948717912777"/>
    <circle cy="0.2954517364973427" r="5.0e-3" cx="-0.10353873615776732"/>
    <circle cy="0.3943270300333704" r="5.0e-3" cx="-0.10063798513640676"/>
    <circle cy="0.3943270300333704" r="5.0e-3" cx="-9.773723411504631e-2"/>
    <circle cy="-0.49555061179087856" r="5.0e-3" cx="-9.483648309368586e-2"/>
    <circle cy="-0.3966753182548509" r="5.0e-3" cx="-9.19357320723253e-2"/>
    <circle cy="-1.1741441107403494e-3" r="5.0e-3" cx="-8.903498105096497e-2"/>
    <circle cy="-0.3966753182548509" r="5.0e-3" cx="-8.613423002960441e-2"/>
    <circle cy="-0.10004943764676799" r="5.0e-3" cx="-8.323347900824396e-2"/>
    <circle cy="0.3943270300333704" r="5.0e-3" cx="-8.033272798688351e-2"/>
    <circle cy="-0.49555061179087856" r="5.0e-3" cx="-7.743197696552295e-2"/>
    <circle cy="-0.2978000247188233" r="5.0e-3" cx="-7.45312259441625e-2"/>
    <circle cy="-0.3966753182548509" r="5.0e-3" cx="-7.163047492280195e-2"/>
    <circle cy="-0.19892473118279563" r="5.0e-3" cx="-6.872972390144161e-2"/>
    <circle cy="-0.2978000247188233" r="5.0e-3" cx="-6.582897288008116e-2"/>
    <circle cy="-1.1741441107403494e-3" r="5.0e-3" cx="-6.29282218587206e-2"/>
    <circle cy="0.19657644296131505" r="5.0e-3" cx="-6.002747083736015e-2"/>
    <circle cy="-0.3966753182548509" r="5.0e-3" cx="-5.7126719815999705e-2"/>
    <circle cy="-0.19892473118279563" r="5.0e-3" cx="-5.4225968794639146e-2"/>
    <circle cy="-0.3966753182548509" r="5.0e-3" cx="-5.132521777327881e-2"/>
    <circle cy="-0.49555061179087856" r="5.0e-3" cx="-4.842446675191825e-2"/>
    <circle cy="0.2954517364973427" r="5.0e-3" cx="-4.55237157305578e-2"/>
    <circle cy="-0.19892473118279563" r="5.0e-3" cx="-4.262296470919724e-2"/>
    <circle cy="-0.10004943764676799" r="5.0e-3" cx="-3.9722213687836794e-2"/>
    <circle cy="-0.3966753182548509" r="5.0e-3" cx="-3.6821462666476346e-2"/>
    <circle cy="0.2954517364973427" r="5.0e-3" cx="-3.3920711645115786e-2"/>
    <circle cy="9.77011494252874e-2" r="5.0e-3" cx="-3.1019960623755338e-2"/>
    <circle cy="-0.49555061179087856" r="5.0e-3" cx="-2.811920960239478e-2"/>
    <circle cy="-0.3966753182548509" r="5.0e-3" cx="-2.5218458581034442e-2"/>
    <circle cy="-0.10004943764676799" r="5.0e-3" cx="-2.2317707559673883e-2"/>
    <circle cy="-0.2978000247188233" r="5.0e-3" cx="-1.9416956538313546e-2"/>
    <circle cy="-0.19892473118279563" r="5.0e-3" cx="-1.6516205516952875e-2"/>
    <circle cy="9.77011494252874e-2" r="5.0e-3" cx="-1.3615454495592538e-2"/>
    <circle cy="0.2954517364973427" r="5.0e-3" cx="-1.0714703474231868e-2"/>
    <circle cy="-0.10004943764676799" r="5.0e-3" cx="-7.813952452871642e-3"/>
    <circle cy="-0.10004943764676799" r="5.0e-3" cx="-4.913201431510972e-3"/>
    <circle cy="-0.49555061179087856" r="5.0e-3" cx="-2.0124504101506346e-3"/>
    <circle cy="-0.19892473118279563" r="5.0e-3" cx="8.883006112099245e-4"/>
    <circle cy="0.19657644296131505" r="5.0e-3" cx="3.7890516325704837e-3"/>
    <circle cy="-0.3966753182548509" r="5.0e-3" cx="6.689802653930821e-3"/>
    <circle cy="-0.10004943764676799" r="5.0e-3" cx="9.59055367529138e-3"/>
    <circle cy="-0.10004943764676799" r="5.0e-3" cx="1.2491304696651717e-2"/>
    <circle cy="0.19657644296131505" r="5.0e-3" cx="1.5392055718012276e-2"/>
    <circle cy="-0.2978000247188233" r="5.0e-3" cx="1.8292806739372836e-2"/>
    <circle cy="-0.10004943764676799" r="5.0e-3" cx="2.1193557760733284e-2"/>
    <circle cy="9.77011494252874e-2" r="5.0e-3" cx="2.4094308782093732e-2"/>
    <circle cy="9.77011494252874e-2" r="5.0e-3" cx="2.699505980345418e-2"/>
    <circle cy="0.19657644296131505" r="5.0e-3" cx="2.9895810824814628e-2"/>
    <circle cy="-0.2978000247188233" r="5.0e-3" cx="3.279656184617519e-2"/>
    <circle cy="0.19657644296131505" r="5.0e-3" cx="3.5697312867535747e-2"/>
    <circle cy="9.77011494252874e-2" r="5.0e-3" cx="3.8598063888896084e-2"/>
    <circle cy="0.2954517364973427" r="5.0e-3" cx="4.149881491025664e-2"/>
    <circle cy="0.2954517364973427" r="5.0e-3" cx="4.439956593161698e-2"/>
    <circle cy="9.77011494252874e-2" r="5.0e-3" cx="4.730031695297765e-2"/>
    <circle cy="-0.49555061179087856" r="5.0e-3" cx="5.02010679743381e-2"/>
    <circle cy="-0.19892473118279563" r="5.0e-3" cx="5.3101818995698546e-2"/>
    <circle cy="-0.2978000247188233" r="5.0e-3" cx="5.6002570017058995e-2"/>
    <circle cy="9.77011494252874e-2" r="5.0e-3" cx="5.890332103841944e-2"/>
    <circle cy="-0.2978000247188233" r="5.0e-3" cx="6.180407205978011e-2"/>
    <circle cy="-0.19892473118279563" r="5.0e-3" cx="6.470482308114045e-2"/>
    <circle cy="-1.1741441107403494e-3" r="5.0e-3" cx="6.760557410250101e-2"/>
    <circle cy="0.19657644296131505" r="5.0e-3" cx="7.050632512386135e-2"/>
    <circle cy="-0.3966753182548509" r="5.0e-3" cx="7.34070761452219e-2"/>
    <circle cy="0.3943270300333704" r="5.0e-3" cx="7.630782716658246e-2"/>
    <circle cy="-1.1741441107403494e-3" r="5.0e-3" cx="7.920857818794291e-2"/>
    <circle cy="-0.2978000247188233" r="5.0e-3" cx="8.210932920930336e-2"/>
    <circle cy="0.19657644296131505" r="5.0e-3" cx="8.501008023066381e-2"/>
    <circle cy="-0.19892473118279563" r="5.0e-3" cx="8.791083125202426e-2"/>
    <circle cy="-0.2978000247188233" r="5.0e-3" cx="9.08115822733847e-2"/>
    <circle cy="-0.49555061179087856" r="5.0e-3" cx="9.371233329474538e-2"/>
    <circle cy="-1.1741441107403494e-3" r="5.0e-3" cx="9.661308431610571e-2"/>
    <circle cy="-0.10004943764676799" r="5.0e-3" cx="9.951383533746627e-2"/>
    <circle cy="-0.10004943764676799" r="5.0e-3" cx="0.10241458635882661"/>
    <circle cy="-0.2978000247188233" r="5.0e-3" cx="0.10531533738018717"/>
    <circle cy="-0.10004943764676799" r="5.0e-3" cx="0.10821608840154773"/>
    <circle cy="0.2954517364973427" r="5.0e-3" cx="0.11111683942290818"/>
    <circle cy="-0.19892473118279563" r="5.0e-3" cx="0.11401759044426862"/>
    <circle cy="-1.1741441107403494e-3" r="5.0e-3" cx="0.11691834146562896"/>
    <circle cy="-0.2978000247188233" r="5.0e-3" cx="0.11981909248698952"/>
    <circle cy="9.77011494252874e-2" r="5.0e-3" cx="0.12271984350834997"/>
    <circle cy="-1.1741441107403494e-3" r="5.0e-3" cx="0.12562059452971042"/>
    <circle cy="0.19657644296131505" r="5.0e-3" cx="0.12852134555107086"/>
    <circle cy="-0.10004943764676799" r="5.0e-3" cx="0.1314220965724313"/>
    <circle cy="-0.10004943764676799" r="5.0e-3" cx="0.13432284759379187"/>
    <circle cy="-0.3966753182548509" r="5.0e-3" cx="0.13722359861515243"/>
    <circle cy="0.19657644296131505" r="5.0e-3" cx="0.14012434963651277"/>
    <circle cy="9.77011494252874e-2" r="5.0e-3" cx="0.14302510065787333"/>
    <circle cy="-0.2978000247188233" r="5.0e-3" cx="0.14592585167923366"/>
    <circle cy="-0.10004943764676799" r="5.0e-3" cx="0.14882660270059433"/>
    <circle cy="-1.1741441107403494e-3" r="5.0e-3" cx="0.15172735372195478"/>
    <circle cy="0.2954517364973427" r="5.0e-3" cx="0.15462810474331523"/>
    <circle cy="0.19657644296131505" r="5.0e-3" cx="0.15752885576467568"/>
    <circle cy="-0.3966753182548509" r="5.0e-3" cx="0.16042960678603613"/>
    <circle cy="0.2954517364973427" r="5.0e-3" cx="0.1633303578073968"/>
    <circle cy="0.3943270300333704" r="5.0e-3" cx="0.16623110882875713"/>
    <circle cy="9.77011494252874e-2" r="5.0e-3" cx="0.1691318598501177"/>
    <circle cy="0.19657644296131505" r="5.0e-3" cx="0.17203261087147803"/>
    <circle cy="-0.2978000247188233" r="5.0e-3" cx="0.1749333618928386"/>
    <circle cy="0.3943270300333704" r="5.0e-3" cx="0.17783411291419915"/>
    <circle cy="-0.3966753182548509" r="5.0e-3" cx="0.1807348639355596"/>
    <circle cy="-0.2978000247188233" r="5.0e-3" cx="0.18363561495692005"/>
    <circle cy="-0.3966753182548509" r="5.0e-3" cx="0.1865363659782805"/>
    <circle cy="0.2954517364973427" r="5.0e-3" cx="0.18943711699964094"/>
    <circle cy="0.2954517364973427" r="5.0e-3" cx="0.1923378680210015"/>
    <circle cy="-0.3966753182548509" r="5.0e-3" cx="0.19523861904236206"/>
    <circle cy="0.19657644296131505" r="5.0e-3" cx="0.1981393700637224"/>
    <circle cy="0.3943270300333704" r="5.0e-3" cx="0.20104012108508296"/>
    <circle cy="-0.10004943764676799" r="5.0e-3" cx="0.2039408721064433"/>
    <circle cy="0.2954517364973427" r="5.0e-3" cx="0.20684162312780396"/>
    <circle cy="0.2954517364973427" r="5.0e-3" cx="0.2097423741491644"/>
    <circle cy="-0.19892473118279563" r="5.0e-3" cx="0.21264312517052486"/>
    <circle cy="0.3943270300333704" r="5.0e-3" cx="0.2155438761918853"/>
    <circle cy="9.77011494252874e-2" r="5.0e-3" cx="0.21844462721324576"/>
    <circle cy="-0.49555061179087856" r="5.0e-3" cx="0.22134537823460643"/>
    <circle cy="-0.3966753182548509" r="5.0e-3" cx="0.22424612925596676"/>
    <circle cy="-0.2978000247188233" r="5.0e-3" cx="0.22714688027732732"/>
    <circle cy="-0.49555061179087856" r="5.0e-3" cx="0.23004763129868766"/>
    <circle cy="-0.19892473118279563" r="5.0e-3" cx="0.23294838232004822"/>
    <circle cy="-1.1741441107403494e-3" r="5.0e-3" cx="0.23584913334140878"/>
    <circle cy="9.77011494252874e-2" r="5.0e-3" cx="0.23874988436276923"/>
    <circle cy="-0.19892473118279563" r="5.0e-3" cx="0.24165063538412968"/>
    <circle cy="9.77011494252874e-2" r="5.0e-3" cx="0.24455138640549012"/>
    <circle cy="-0.10004943764676799" r="5.0e-3" cx="0.24745213742685057"/>
    <circle cy="-0.49555061179087856" r="5.0e-3" cx="0.25035288844821113"/>
    <circle cy="-0.19892473118279563" r="5.0e-3" cx="0.2532536394695717"/>
    <circle cy="-0.3966753182548509" r="5.0e-3" cx="0.256154390490932"/>
    <circle cy="9.77011494252874e-2" r="5.0e-3" cx="0.2590551415122926"/>
    <circle cy="9.77011494252874e-2" r="5.0e-3" cx="0.2619558925336529"/>
    <circle cy="0.3943270300333704" r="5.0e-3" cx="0.2648566435550135"/>
    <circle cy="9.77011494252874e-2" r="5.0e-3" cx="0.2677573945763738"/>
    <circle cy="-0.19892473118279563" r="5.0e-3" cx="0.2706581455977344"/>
    <circle cy="-0.2978000247188233" r="5.0e-3" cx="0.2735588966190947"/>
    <circle cy="-0.3966753182548509" r="5.0e-3" cx="0.2764596476404553"/>
    <circle cy="-0.19892473118279563" r="5.0e-3" cx="0.27936039866181583"/>
    <circle cy="-0.3966753182548509" r="5.0e-3" cx="0.28226114968317617"/>
    <circle cy="9.77011494252874e-2" r="5.0e-3" cx="0.28516190070453673"/>
    <circle cy="0.2954517364973427" r="5.0e-3" cx="0.2880626517258973"/>
    <circle cy="-0.10004943764676799" r="5.0e-3" cx="0.2909634027472576"/>
    <circle cy="-0.2978000247188233" r="5.0e-3" cx="0.2938641537686182"/>
    <circle cy="-0.19892473118279563" r="5.0e-3" cx="0.29676490478997875"/>
    <circle cy="-0.2978000247188233" r="5.0e-3" cx="0.2996656558113391"/>
    <circle cy="-1.1741441107403494e-3" r="5.0e-3" cx="0.30256640683269964"/>
    <circle cy="0.19657644296131505" r="5.0e-3" cx="0.30546715785406"/>
    <circle cy="0.2954517364973427" r="5.0e-3" cx="0.30836790887542076"/>
    <circle cy="-0.19892473118279563" r="5.0e-3" cx="0.3112686598967811"/>
    <circle cy="0.2954517364973427" r="5.0e-3" cx="0.31416941091814143"/>
    <circle cy="-0.19892473118279563" r="5.0e-3" cx="0.317070161939502"/>
    <circle cy="-0.3966753182548509" r="5.0e-3" cx="0.31997091296086255"/>
    <circle cy="-0.2978000247188233" r="5.0e-3" cx="0.3228716639822231"/>
    <circle cy="0.2954517364973427" r="5.0e-3" cx="0.32577241500358345"/>
    <circle cy="-0.3966753182548509" r="5.0e-3" cx="0.328673166024944"/>
    <circle cy="9.77011494252874e-2" r="5.0e-3" cx="0.33157391704630435"/>
    <circle cy="0.19657644296131505" r="5.0e-3" cx="0.3344746680676649"/>
    <circle cy="0.3943270300333704" r="5.0e-3" cx="0.33737541908902546"/>
    <circle cy="0.3943270300333704" r="5.0e-3" cx="0.340276170110386"/>
    <circle cy="0.2954517364973427" r="5.0e-3" cx="0.34317692113174636"/>
    <circle cy="0.3943270300333704" r="5.0e-3" cx="0.3460776721531067"/>
    <circle cy="-0.49555061179087856" r="5.0e-3" cx="0.34897842317446726"/>
    <circle cy="-1.1741441107403494e-3" r="5.0e-3" cx="0.3518791741958278"/>
    <circle cy="-0.49555061179087856" r="5.0e-3" cx="0.3547799252171884"/>
    <circle cy="0.2954517364973427" r="5.0e-3" cx="0.3576806762385487"/>
    <circle cy="0.3943270300333704" r="5.0e-3" cx="0.36058142725990927"/>
    <circle cy="-0.49555061179087856" r="5.0e-3" cx="0.3634821782812696"/>
    <circle cy="0.3943270300333704" r="5.0e-3" cx="0.36638292930263017"/>
    <circle cy="-0.19892473118279563" r="5.0e-3" cx="0.3692836803239907"/>
    <circle cy="-0.49555061179087856" r="5.0e-3" cx="0.3721844313453513"/>
    <circle cy="-0.49555061179087856" r="5.0e-3" cx="0.3750851823667116"/>
    <circle cy="0.2954517364973427" r="5.0e-3" cx="0.37798593338807196"/>
    <circle cy="-0.3966753182548509" r="5.0e-3" cx="0.38088668440943274"/>
    <circle cy="-1.1741441107403494e-3" r="5.0e-3" cx="0.3837874354307931"/>
    <circle cy="0.3943270300333704" r="5.0e-3" cx="0.38668818645215364"/>
    <circle cy="-0.49555061179087856" r="5.0e-3" cx="0.389588937473514"/>
    <circle cy="0.19657644296131505" r="5.0e-3" cx="0.39248968849487453"/>
    <circle cy="-0.2978000247188233" r="5.0e-3" cx="0.3953904395162351"/>
    <circle cy="-0.49555061179087856" r="5.0e-3" cx="0.39829119053759543"/>
    <circle cy="-1.1741441107403494e-3" r="5.0e-3" cx="0.401191941558956"/>
    <circle cy="0.2954517364973427" r="5.0e-3" cx="0.40409269258031655"/>
    <circle cy="-0.3966753182548509" r="5.0e-3" cx="0.4069934436016769"/>
    <circle cy="-0.49555061179087856" r="5.0e-3" cx="0.40989419462303744"/>
    <circle cy="-0.10004943764676799" r="5.0e-3" cx="0.4127949456443978"/>
    <circle cy="-1.1741441107403494e-3" r="5.0e-3" cx="0.41569569666575834"/>
    <circle cy="-1.1741441107403494e-3" r="5.0e-3" cx="0.4185964476871187"/>
    <circle cy="-0.2978000247188233" r="5.0e-3" cx="0.421497198708479"/>
    <circle cy="-0.19892473118279563" r="5.0e-3" cx="0.4243979497298398"/>
    <circle cy="9.77011494252874e-2" r="5.0e-3" cx="0.42729870075120013"/>
    <circle cy="0.19657644296131505" r="5.0e-3" cx="0.4301994517725607"/>
    <circle cy="-0.10004943764676799" r="5.0e-3" cx="0.43310020279392103"/>
    <circle cy="-1.1741441107403494e-3" r="5.0e-3" cx="0.4360009538152816"/>
    <circle cy="-1.1741441107403494e-3" r="5.0e-3" cx="0.43890170483664215"/>
    <circle cy="0.19657644296131505" r="5.0e-3" cx="0.4418024558580025"/>
    <circle cy="-1.1741441107403494e-3" r="5.0e-3" cx="0.44470320687936304"/>
    <circle cy="0.2954517364973427" r="5.0e-3" cx="0.4476039579007236"/>
    <circle cy="-0.2978000247188233" r="5.0e-3" cx="0.45050470892208394"/>
    <circle cy="9.77011494252874e-2" r="5.0e-3" cx="0.4534054599434445"/>
    <circle cy="0.19657644296131505" r="5.0e-3" cx="0.45630621096480506"/>
    <circle cy="-0.2978000247188233" r="5.0e-3" cx="0.4592069619861654"/>
    <circle cy="0.3943270300333704" r="5.0e-3" cx="0.46210771300752596"/>
    <circle cy="0.3943270300333704" r="5.0e-3" cx="0.4650084640288863"/>
    <circle cy="-0.3966753182548509" r="5.0e-3" cx="0.4679092150502471"/>
    <circle cy="-0.49555061179087856" r="5.0e-3" cx="0.4708099660716074"/>
    <circle cy="0.19657644296131505" r="5.0e-3" cx="0.47371071709296775"/>
    <circle cy="0.3943270300333704" r="5.0e-3" cx="0.4766114681143283"/>
    <circle cy="-0.3966753182548509" r="5.0e-3" cx="0.47951221913568887"/>
    <circle cy="-0.2978000247188233" r="5.0e-3" cx="0.4824129701570494"/>
    <circle cy="-0.49555061179087856" r="5.0e-3" cx="0.48531372117840976"/>
    <circle cy="9.77011494252874e-2" r="5.0e-3" cx="0.4882144721997703"/>
    <circle cy="-0.3966753182548509" r="5.0e-3" cx="0.49111522322113066"/>
    <circle cy="9.77011494252874e-2" r="5.0e-3" cx="0.4940159742424912"/>
    <circle cy="-0.10004943764676799" r="5.0e-3" cx="0.4969167252638518"/>
    <circle cy="0.19657644296131505" r="5.0e-3" cx="0.49981747628521234"/>
    <circle cy="-0.2978000247188233" r="5.0e-3" cx="0.5027182273065727"/>
    <circle cy="0.19657644296131505" r="5.0e-3" cx="0.505618978327933"/>
    <circle cy="-0.19892473118279563" r="5.0e-3" cx="0.5085197293492936"/>
    <circle cy="-0.10004943764676799" r="5.0e-3" cx="0.5114204803706541"/>
    <circle cy="-0.19892473118279563" r="5.0e-3" cx="0.5143212313920147"/>
    <circle cy="-0.2978000247188233" r="5.0e-3" cx="0.517221982413375"/>
    <circle cy="-1.1741441107403494e-3" r="5.0e-3" cx="0.5201227334347356"/>
    <circle cy="-0.19892473118279563" r="5.0e-3" cx="0.5230234844560959"/>
    <circle cy="0.19657644296131505" r="5.0e-3" cx="0.5259242354774565"/>
    <circle cy="-0.3966753182548509" r="5.0e-3" cx="0.528824986498817"/>
    <circle cy="-0.19892473118279563" r="5.0e-3" cx="0.5317257375201776"/>
    <circle cy="9.77011494252874e-2" r="5.0e-3" cx="0.5346264885415379"/>
    <circle cy="-0.10004943764676799" r="5.0e-3" cx="0.5375272395628983"/>
    <circle cy="-0.10004943764676799" r="5.0e-3" cx="0.540427990584259"/>
    <circle cy="-0.10004943764676799" r="5.0e-3" cx="0.5433287416056194"/>
    <circle cy="9.77011494252874e-2" r="5.0e-3" cx="0.54622949262698"/>
    <circle cy="-0.10004943764676799" r="5.0e-3" cx="0.5491302436483403"/>
    <circle cy="-1.1741441107403494e-3" r="5.0e-3" cx="0.5520309946697008"/>
    <circle cy="-1.1741441107403494e-3" r="5.0e-3" cx="0.5549317456910614"/>
    <circle cy="-0.3966753182548509" r="5.0e-3" cx="0.5578324967124217"/>
    <circle cy="-1.1741441107403494e-3" r="5.0e-3" cx="0.5607332477337823"/>
    <circle cy="9.77011494252874e-2" r="5.0e-3" cx="0.5636339987551426"/>
    <circle cy="0.19657644296131505" r="5.0e-3" cx="0.566534749776503"/>
    <circle cy="9.77011494252874e-2" r="5.0e-3" cx="0.5694355007978635"/>
    <circle cy="-0.10004943764676799" r="5.0e-3" cx="0.5723362518192241"/>
    <circle cy="-0.3966753182548509" r="5.0e-3" cx="0.5752370028405847"/>
    <circle cy="-0.10004943764676799" r="5.0e-3" cx="0.578137753861945"/>
    <circle cy="-0.2978000247188233" r="5.0e-3" cx="0.5810385048833053"/>
    <circle cy="0.2954517364973427" r="5.0e-3" cx="0.5839392559046661"/>
    <circle cy="0.3943270300333704" r="5.0e-3" cx="0.5868400069260264"/>
    <circle cy="0.2954517364973427" r="5.0e-3" cx="0.589740757947387"/>
    <circle cy="-0.2978000247188233" r="5.0e-3" cx="0.5926415089687473"/>
    <circle cy="-0.10004943764676799" r="5.0e-3" cx="0.5955422599901079"/>
    <circle cy="-0.3966753182548509" r="5.0e-3" cx="0.5984430110114685"/>
    <circle cy="0.19657644296131505" r="5.0e-3" cx="0.6013437620328288"/>
    <circle cy="9.77011494252874e-2" r="5.0e-3" cx="0.6042445130541894"/>
    <circle cy="-0.19892473118279563" r="5.0e-3" cx="0.6071452640755499"/>
    <circle cy="-0.3966753182548509" r="5.0e-3" cx="0.6100460150969103"/>
    <circle cy="-1.1741441107403494e-3" r="5.0e-3" cx="0.6129467661182708"/>
    <circle cy="-0.3966753182548509" r="5.0e-3" cx="0.6158475171396314"/>
    <circle cy="-1.1741441107403494e-3" r="5.0e-3" cx="0.6187482681609917"/>
    <circle cy="9.77011494252874e-2" r="5.0e-3" cx="0.6216490191823523"/>
    <circle cy="-0.2978000247188233" r="5.0e-3" cx="0.6245497702037126"/>
    <circle cy="-0.2978000247188233" r="5.0e-3" cx="0.6274505212250734"/>
    <circle cy="-1.1741441107403494e-3" r="5.0e-3" cx="0.6303512722464337"/>
    <circle cy="9.77011494252874e-2" r="5.0e-3" cx="0.6332520232677941"/>
    <circle cy="-0.2978000247188233" r="5.0e-3" cx="0.6361527742891546"/>
    <circle cy="-1.1741441107403494e-3" r="5.0e-3" cx="0.6390535253105152"/>
    <circle cy="0.2954517364973427" r="5.0e-3" cx="0.6419542763318757"/>
    <circle cy="-0.19892473118279563" r="5.0e-3" cx="0.6448550273532361"/>
    <circle cy="-0.3966753182548509" r="5.0e-3" cx="0.6477557783745966"/>
    <circle cy="0.2954517364973427" r="5.0e-3" cx="0.650656529395957"/>
    <circle cy="-0.19892473118279563" r="5.0e-3" cx="0.6535572804173175"/>
    <circle cy="0.19657644296131505" r="5.0e-3" cx="0.6564580314386781"/>
    <circle cy="-0.2978000247188233" r="5.0e-3" cx="0.6593587824600387"/>
    <circle cy="-0.2978000247188233" r="5.0e-3" cx="0.662259533481399"/>
    <circle cy="0.19657644296131505" r="5.0e-3" cx="0.6651602845027593"/>
    <circle cy="-0.3966753182548509" r="5.0e-3" cx="0.6680610355241199"/>
    <circle cy="9.77011494252874e-2" r="5.0e-3" cx="0.6709617865454804"/>
    <circle cy="-0.10004943764676799" r="5.0e-3" cx="0.673862537566841"/>
    <circle cy="-0.3966753182548509" r="5.0e-3" cx="0.6767632885882013"/>
    <circle cy="-0.19892473118279563" r="5.0e-3" cx="0.6796640396095619"/>
    <circle cy="0.19657644296131505" r="5.0e-3" cx="0.6825647906309222"/>
    <circle cy="-1.1741441107403494e-3" r="5.0e-3" cx="0.6854655416522828"/>
    <circle cy="-0.10004943764676799" r="5.0e-3" cx="0.6883662926736434"/>
    <circle cy="0.3943270300333704" r="5.0e-3" cx="0.6912670436950039"/>
    <circle cy="0.3943270300333704" r="5.0e-3" cx="0.6941677947163643"/>
    <circle cy="-0.49555061179087856" r="5.0e-3" cx="0.6970685457377246"/>
    <circle cy="9.77011494252874e-2" r="5.0e-3" cx="0.6999692967590854"/>
    <circle cy="-0.19892473118279563" r="5.0e-3" cx="0.7028700477804459"/>
    <circle cy="0.3943270300333704" r="5.0e-3" cx="0.7057707988018063"/>
    <circle cy="-0.3966753182548509" r="5.0e-3" cx="0.7086715498231664"/>
    <circle cy="-0.49555061179087856" r="5.0e-3" cx="0.7115723008445272"/>
    <circle cy="-0.49555061179087856" r="5.0e-3" cx="0.7144730518658875"/>
    <circle cy="-0.19892473118279563" r="5.0e-3" cx="0.7173738028872478"/>
    <circle cy="0.2954517364973427" r="5.0e-3" cx="0.7202745539086084"/>
    <circle cy="-0.3966753182548509" r="5.0e-3" cx="0.7231753049299692"/>
    <circle cy="-0.10004943764676799" r="5.0e-3" cx="0.7260760559513293"/>
    <circle cy="-0.2978000247188233" r="5.0e-3" cx="0.7289768069726899"/>
    <circle cy="0.19657644296131505" r="5.0e-3" cx="0.7318775579940504"/>
    <circle cy="-0.10004943764676799" r="5.0e-3" cx="0.734778309015411"/>
    <circle cy="0.19657644296131505" r="5.0e-3" cx="0.7376790600367713"/>
    <circle cy="-0.2978000247188233" r="5.0e-3" cx="0.7405798110581316"/>
    <circle cy="0.2954517364973427" r="5.0e-3" cx="0.7434805620794924"/>
    <circle cy="0.3943270300333704" r="5.0e-3" cx="0.746381313100853"/>
  </g>
  <g stroke-opacity="0.5" stroke="#5da5da" stroke-width="2.0e-2" fill="none">
    <polyline points="-0.7010934465580259,0.3943270300333704
-0.6981926955366653,0.3943270300333704
-0.6952919445153048,0.3943270300333704
-0.6923911934939444,0.2077635865879191
-0.689490442472584,5.231377820167893e-2
-0.6865896914512234,4.893842666820414e-3
-0.683688940429863,2.027647127100307e-2
-0.6807881894085025,-2.6974836526440504e-2
-0.677887438387142,-9.033859950453915e-2
-0.6749866873657815,-5.4587109955355095e-2
-0.672085936344421,-2.533047332903937e-3
-0.6691851853230606,2.9881977541125537e-2
-0.6662844343017,3.684982595723513e-2
-0.6633836832803396,1.3839573917134362e-2
-0.6604829322589791,4.9285934913759155e-2
-0.6575821812376187,3.594940286275827e-2
-0.6546814302162582,4.9751830565663235e-2
-0.6517806791948977,7.833373040329428e-2
-0.6488799281735372,0.1037087507131158
-0.6459791771521768,5.700210907916342e-2
-0.6430784261308163,8.257879178383021e-2
-0.6401776751094558,9.100475661404889e-2
-0.6372769240880953,4.866294009459565e-2
-0.6343761730667349,7.307386745458128e-2
-0.6314754220453743,3.372870593359123e-2
-0.6285746710240139,4.5083551165368e-3
-0.6256739200026534,-2.2249499245843962e-2
-0.622773168981293,5.078710134696129e-3
-0.6198724179599324,-1.4485470298151504e-2
-0.616971666938572,-4.511246838554972e-2
-0.6140709159172115,-2.3722748193441667e-2
-0.611170164895851,-4.685048490757171e-2
-0.6082694138744905,-3.193414559469199e-2
-0.6053686628531301,-5.403497283507763e-2
-0.6024679118317695,-7.457901398023459e-2
-0.5995671608104091,-7.022119764760648e-2
-0.5966664097890486,-4.871380193272734e-2
-0.5937656587676882,-2.864828016337506e-2
-0.5908649077463277,-2.7059673012424068e-2
-0.5879641567249672,-2.8833918273110104e-3
-0.5850634057036067,-1.4048577818789876e-2
-0.5821626546822463,-3.5689926536840555e-2
-0.5792619036608857,-3.9306373462619004e-2
-0.5763611526395254,-2.061161350751861e-2
-0.5734604016181648,-3.0511740570644763e-2
-0.5705596505968044,-1.2513284141162595e-2
-0.5676588995754439,-1.0280581058079719e-3
-0.5647581485540834,-2.8058758140028783e-2
-0.5618573975327229,-4.27344770806003e-2
-0.5589566465113625,-4.0483238971457336e-2
-0.5560558954900019,-5.96973508294073e-2
-0.5531551444686414,-7.780359846137685e-2
-0.550254393447281,-7.899445185012999e-2
-0.5473536424259204,-8.011759068008661e-2
-0.54445289140456,-6.015030072810079e-2
-0.5415521403831995,-7.274517342356157e-2
-0.538651389361839,-6.373891931166531e-2
-0.5357506383404785,-5.002299627593698e-2
-0.5328498873191181,-6.823898825800023e-2
-0.5299491362977576,-5.435875724434269e-2
-0.5270483852763972,-6.191789134015957e-2
-0.5241476342550366,-4.84324782042187e-2
-0.5212468832336761,-3.5678251757832236e-2
-0.5183461322123156,-1.333975479860705e-2
-0.5154453811909552,-3.834156031749991e-2
-0.5125446301695947,-2.1066879145905437e-2
-0.5096438791482343,-4.047159463096772e-2
-0.5067431281268737,-5.374365880532428e-2
-0.5038423771055133,-5.103658183573456e-2
-0.5009416260841528,-6.880874037626561e-2
-0.4980408750627923,-6.0259209657908874e-2
-0.49514012404143193,-6.736949107503243e-2
-0.4922393730200714,-6.904306776703739e-2
-0.4893386219987109,-7.062901794361509e-2
-0.4864378709773505,-5.192578336056963e-2
-0.48353711995598997,-5.942784669258172e-2
-0.48063636893462947,-5.14170878844139e-2
-0.477735617913269,-3.878627268076895e-2
-0.4748348668919085,-2.1778702335943145e-2
-0.47193411587054807,-2.5757957998525538e-2
-0.46903336484918756,-9.44147407512208e-3
-0.4661326138278271,-1.90589871690382e-2
-0.4632318628064666,1.907192044553696e-3
-0.4603311117851061,-8.271324252420276e-3
-0.4574303607637457,1.2119169326885448e-2
-0.45452960974238527,-3.5672282265386546e-3
-0.45162885872102476,-3.446177910914505e-3
-0.44872810769966426,-1.8326913061634698e-2
-0.44582735667830375,-2.4729598771829897e-3
-0.4429266056569433,-2.2379925128736322e-2
-0.44002585463558286,-4.1272167498642154e-2
-0.43712510361422235,-5.9202338348426475e-2
-0.43422435259286185,-7.123422948145774e-2
-0.4313236015715014,-5.275106528547524e-2
-0.4284228505501409,-7.007986802241128e-2
-0.42552209952878045,-7.158931848273553e-2
-0.42262134850741995,-6.30659376148347e-2
-0.41972059748605944,-7.488014486113304e-2
-0.41681984646469894,-8.112126971623979e-2
-0.4139190954433385,-6.715368861028692e-2
-0.41101834442197804,-5.886432314960144e-2
-0.40811759340061754,-6.590496364807663e-2
-0.40521684237925704,-7.755887327238598e-2
-0.4023160913578966,-9.359201225675273e-2
-0.3994153403365361,-7.90168177217645e-2
-0.39651458931517564,-6.0211546971061125e-2
-0.39361383829381513,-4.2354552583507066e-2
-0.39071308727245463,-5.517719094987428e-2
-0.3878123362510941,-4.750464451426506e-2
-0.3849115852297337,-6.006393419118494e-2
-0.38201083420837323,-7.199090395191299e-2
-0.3791100831870127,-7.835796492755431e-2
-0.3762093321656522,-8.440468076256025e-2
-0.3733085811442918,-8.02311035857789e-2
-0.3704078301229313,-7.131002103682038e-2
-0.36750707910157077,-4.796734253310386e-2
-0.3646063280802103,-3.57098098138211e-2
-0.36170557705884987,-5.380062976048994e-2
-0.3588048260374893,-3.1344075841942765e-2
-0.35590407501612886,-4.964948985616502e-2
-0.35300332399476836,-5.712833154884267e-2
-0.3501025729734079,-6.423175807163795e-2
-0.3472018219520475,-6.602590689047994e-2
-0.344301070930687,-6.277770348628176e-2
-0.34140031990932657,-5.474056149808881e-2
-0.33849956888796606,-6.691252509404999e-2
-0.3355988178666056,-8.342513924512462e-2
-0.33269806684524517,-7.930679060219992e-2
-0.3297973158238846,-9.024608534285294e-2
-0.32689656480252416,-7.093665630973967e-2
-0.3239958137811636,-6.744431461805755e-2
-0.32109506275980315,-5.422811942177774e-2
-0.3181943117384427,-4.167421343565647e-2
-0.3152935607170822,-2.9749337722640656e-2
-0.31239280969572175,-1.842191041186092e-2
-0.30949205867436125,-2.2507102900821696e-2
-0.3065913076530008,-3.6283974996213386e-2
-0.30369055663164035,-3.452700222172733e-2
-0.3007898056102798,-4.770120463432881e-2
-0.29788905458891934,-4.537308023146713e-2
-0.2949883035675588,-2.8319512786921575e-2
-0.29208755254619845,-4.1802797032965855e-2
-0.2891868015248379,-4.471703014125383e-2
-0.28628605050347744,-6.2325857180925426e-2
-0.283385299482117,-5.926647034723276e-2
-0.2804845484607565,-4.646716600529077e-2
-0.27758379743939604,-3.9254918100319225e-2
-0.27468304641803554,-2.7457395010860863e-2
-0.2717822953966751,-3.603487499174585e-2
-0.26888154437531464,-3.4291044036829366e-2
-0.2659807933539541,-4.747219757398924e-2
-0.26308004233259363,-4.0210544679931126e-2
-0.2601792913112331,-4.3203658382951926e-2
-0.2572785402898726,-2.1319003609029163e-2
-0.2543777892685122,-5.474881554564326e-3
-0.2514770382471517,-5.259772647828065e-3
-0.24857628722579128,-1.1008826978153863e-4
-0.24567553620443072,1.9617729874910006e-2
-0.24277478518307027,3.835857562803552e-2
-0.23987403416170983,1.1655832881303008e-2
-0.23697328314034927,2.584930587073153e-2
-0.23407253211898882,-2.271090798126041e-4
-0.23117178109762826,-2.7447190741847205e-4
-0.2282710300762678,1.9459987451631855e-2
-0.22537027905490736,1.842806308110273e-2
-0.22246952803354691,3.228202449740847e-2
-0.21956877701218636,4.544301696111663e-2
-0.21666802599082602,6.289037476574583e-2
-0.21376727496946546,3.4963524664068824e-2
-0.21086652394810512,5.293463479534244e-2
-0.20796577292674456,6.50623714326003e-2
-0.20506502190538412,3.702759030028546e-2
-0.20216427088402356,1.0394951148189224e-2
-0.1992635198626631,-1.49056924157982e-2
-0.19636276884130266,6.141402121311867e-4
-0.1934620178199421,-1.4308359449012986e-2
-0.19056126679858165,-3.342888799945609e-2
-0.1876605157772211,-5.6537477848075945e-2
-0.18475976475586076,-4.882475264399366e-2
-0.1818590137345002,-2.6664996734585555e-2
-0.17895826271313975,-5.613439900889139e-3
-0.1760575116917793,-4.4725453819660643e-4
-0.17315676067041874,1.434893543616994e-2
-0.1702560096490583,-1.114807256357686e-2
-0.16735525862769784,-2.0537615908436613e-2
-0.16445450760633729,2.0710745933771868e-4
-0.16155375658497684,1.9914449269403833e-2
-0.1586530055636164,8.971780405841012e-3
-0.15575225454225583,2.329666099026262e-2
-0.1528515035208955,-2.647221516589471e-3
-0.14995075249953493,-1.246164284989204e-2
-0.14705000147817449,-3.661736759552614e-2
-0.14414925045681404,-2.990110462526563e-2
-0.1412484994354536,-4.8240689825111094e-2
-0.13834774841409314,-7.06071991375381e-2
-0.13544699739273258,-4.735948720258443e-2
-0.13254624637137213,-4.0106158828255856e-2
-0.12964549535001157,-1.8383655693592793e-2
-0.12674474432865113,-2.246709546014769e-2
-0.12384399330729068,-2.1402410572633368e-2
-0.12094324228593023,-3.522275149775089e-2
-0.11804249126456967,-3.3520267270258475e-2
-0.11514174024320922,-1.2127259475029573e-2
-0.11224098922184877,8.19603524296858e-3
-0.10934023820048833,2.7836147969421132e-3
-0.10643948717912777,1.7417397949638647e-2
-0.10353873615776732,3.1319455179701916e-2
-0.10063798513640676,4.947025601299598e-2
-9.773723411504631e-2,6.671347564988162e-2
-9.483648309368586e-2,3.859968124447244e-2
-9.19357320723253e-2,1.683549733608236e-2
-8.903498105096497e-2,1.5934998207331574e-2
-8.613423002960441e-2,-4.695888848139096e-3
-8.323347900824396e-2,-9.463647789611729e-3
-8.033272798688351e-2,1.072621397667245e-2
-7.743197696552295e-2,-1.4588017849882617e-2
-7.45312259441625e-2,-2.8748825737423434e-2
-7.163047492280195e-2,-4.714540650663257e-2
-6.872972390144161e-2,-5.4734473122921234e-2
-6.582897288008116e-2,-6.688790342135309e-2
-6.29282218587206e-2,-6.360217623214848e-2
-6.002747083736015e-2,-5.05930977402449e-2
-5.7126719815999705e-2,-6.789739519689897e-2
-5.4225968794639146e-2,-7.444882905007877e-2
-5.132521777327881e-2,-9.056031016618149e-2
-4.842446675191825e-2,-0.11081001229557375
-4.55237157305578e-2,-9.04967466023936e-2
-4.262296470919724e-2,-9.59181910271032e-2
-3.9722213687836794e-2,-9.612475499399942e-2
-3.6821462666476346e-2,-0.11115239621991935
-3.3920711645115786e-2,-9.082204427331497e-2
-3.1019960623755338e-2,-8.139582058334549e-2
-2.811920960239478e-2,-0.10210369372190387
-2.5218458581034442e-2,-0.11683236520686446
-2.2317707559673883e-2,-0.11599321394360185
-1.9416956538313546e-2,-0.12508360475751612
-1.6516205516952875e-2,-0.12877568047714172
-1.3615454495592538e-2,-0.1174517824604775
-1.0714703474231868e-2,-9.680650861718043e-2
-7.813952452871642e-3,-9.696865579908309e-2
-4.913201431510972e-3,-9.712269555067421e-2
-2.0124504101506346e-3,-0.11704417235317133
8.883006112099245e-4,-0.1211382161067166
3.7890516325704837e-3,-0.10525242486673936
6.689802653930821e-3,-0.119823620326176
9.59055367529138e-3,-0.11883490791821916
1.2491304696651717e-2,-0.11789563144987458
1.5392055718012276e-2,-0.10217198073909284
1.8292806739372836e-2,-0.11195341070834708
2.1193557760733284e-2,-0.11135821044993777
2.4094308782093732e-2,-0.10090521567277932
2.699505980345418e-2,-9.09748732458665e-2
2.9895810824814628e-2,-7.659727418804474e-2
3.279656184617519e-2,-8.76574360118394e-2
3.5697312867535747e-2,-7.344571240352626e-2
3.8598063888896084e-2,-6.48883523459568e-2
4.149881491025664e-2,-4.687131396862687e-2
4.439956593161698e-2,-2.9755130818848063e-2
4.730031695297765e-2,-2.3382305973715933e-2
5.02010679743381e-2,-4.6990759389140324e-2
5.3101818995698546e-2,-5.4587469633132546e-2
5.6002570017058995e-2,-6.674811511057943e-2
5.890332103841944e-2,-5.852564049937081e-2
6.180407205978011e-2,-7.04893754464967e-2
6.470482308114045e-2,-7.691115125767412e-2
6.760557410250101e-2,-7.312429640503815e-2
7.050632512386135e-2,-5.9639244229310884e-2
7.34070761452219e-2,-7.649106598457267e-2
7.630782716658246e-2,-5.295013722441466e-2
7.920857818794291e-2,-5.036133506566498e-2
8.210932920930336e-2,-6.27332809124227e-2
8.501008023066381e-2,-4.976778340490129e-2
8.791083125202426e-2,-5.722563697621008e-2
9.08115822733847e-2,-6.925436583634181e-2
9.371233329474538e-2,-9.05691940808594e-2
9.661308431610571e-2,-8.609943840548773e-2
9.951383533746627e-2,-8.67969388385108e-2
0.10241458635882661,-8.745956420396417e-2
0.10531533738018717,-9.797659363854028e-2
0.10821608840154773,-9.808023589895098e-2
0.11111683942290818,-7.84036264577388e-2
0.11401759044426862,-8.442968484239244e-2
0.11691834146562896,-8.026690573965123e-2
0.11981909248698952,-9.11435668172178e-2
0.12271984350834997,-8.170132677546094e-2
0.12562059452971042,-7.767496592880496e-2
0.12852134555107086,-6.396238994067494e-2
0.1314220965724313,-6.576674301895835e-2
0.13432284759379187,-6.748087837576189e-2
0.13722359861515243,-8.394060607488096e-2
0.14012434963651277,-6.991474900459682e-2
0.14302510065787333,-6.1533951461432146e-2
0.14592585167923366,-7.334725863495428e-2
0.14882660270059433,-7.468236796247152e-2
0.15172735372195478,-7.100695578412841e-2
0.15462810474331523,-5.2684016501501674e-2
0.15752885576467568,-4.022099051164596e-2
0.16042960678603613,-5.804371099714989e-2
0.1633303578073968,-4.036893476131764e-2
0.16623110882875713,-1.863413201095232e-2
0.1691318598501177,-1.281736679234291e-2
0.17203261087147803,-2.3476743437271796e-3
0.1749333618928386,-1.7120294490993837e-2
0.17783411291419915,3.4520752126698806e-3
0.1807348639355596,-1.6554297673389895e-2
0.18363561495692005,-3.0616586170918114e-2
0.1865363659782805,-4.8919525427689736e-2
0.18943711699964094,-3.1700959960788255e-2
0.1923378680210015,-1.5343322998370268e-2
0.19523861904236206,-3.440992513033547e-2
0.1981393700637224,-2.2860605362433395e-2
0.20104012108508296,-2.001221253448815e-3
0.2039408721064433,-6.903632595388509e-3
0.20684162312780396,8.214137389277565e-3
0.2097423741491644,2.2576018725532332e-2
0.21264312517052486,1.1500980218526025e-2
0.2155438761918853,3.0642284370209993e-2
0.21844462721324576,3.3995227899360436e-2
0.22134537823460643,7.517933841350188e-3
0.22424612925596676,-1.269173026699233e-2
0.22714688027732732,-2.694714599711201e-2
0.23004763129868766,-5.037732085997315e-2
0.23294838232004822,-5.780469184987569e-2
0.23584913334140878,-5.497316429133803e-2
0.23874988436276923,-4.7339448166058506e-2
0.24165063538412968,-5.491871273139337e-2
0.24455138640549012,-4.7287719227098624e-2
0.24745213742685057,-4.992580527828849e-2
0.25035288844821113,-7.220704664865152e-2
0.2532536394695717,-7.85429311575847e-2
0.256154390490932,-9.444955118556608e-2
0.2590551415122926,-8.48420157687908e-2
0.2619558925336529,-7.571485716051207e-2
0.2648566435550135,-5.221276194812874e-2
0.2677573945763738,-4.471706612110116e-2
0.2706581455977344,-5.2427449626654576e-2
0.2735588966190947,-6.46960787629004e-2
0.2764596476404553,-8.129504122802111e-2
0.27936039866181583,-8.717652589087577e-2
0.28226114968317617,-0.10265146592179386
0.28516190070453673,-9.26338349006266e-2
0.2880626517258973,-7.32295558636703e-2
0.2909634027472576,-7.457054998348889e-2
0.2938641537686182,-8.57320239627164e-2
0.29676490478997875,-9.139165944051753e-2
0.2996656558113391,-0.10171207790676495
0.30256640683269964,-9.66851811233389e-2
0.30546715785406,-8.202209965966445e-2
0.30836790887542076,-6.314840753456885e-2
0.3112686598967811,-6.99372238253867e-2
0.31416941091814143,-5.166777553210289e-2
0.317070161939502,-5.903062342074705e-2
0.31997091296086255,-7.591285839358564e-2
0.3228716639822231,-8.700721685414492e-2
0.32577241500358345,-6.788426895028632e-2
0.328673166024944,-8.432382160848606e-2
0.33157391704630435,-7.522257295530632e-2
0.3344746680676649,-6.1632622015506455e-2
0.33737541908902546,-3.883463918362173e-2
0.340276170110386,-1.717655551570163e-2
0.34317692113174636,-1.5451407730718847e-3
0.3460776721531067,1.824846793804319e-2
0.34897842317446726,-7.441486258990104e-3
0.3518791741958278,-7.1281191491374685e-3
0.3547799252171884,-3.1549243961892515e-2
0.3576806762385487,-1.5199194824020545e-2
0.36058142725990927,5.277116555563566e-3
0.3634821782812696,-1.976427002059311e-2
0.36638292930263017,9.402951068654408e-4
0.3692836803239907,-9.052956264823608e-3
0.3721844313453513,-3.337783917341053e-2
0.3750851823667116,-5.648647792367045e-2
0.37798593338807196,-3.888956711625413e-2
0.38088668440943274,-5.677885475659461e-2
0.3837874354307931,-5.39986192119869e-2
0.38668818645215364,-3.158233665539134e-2
0.389588937473514,-5.478075050490372e-2
0.39248968849487453,-4.221289078386359e-2
0.3953904395162351,-5.4992247526717275e-2
0.39829119053759543,-7.702016581542481e-2
0.401191941558956,-7.32278647178426e-2
0.40409269258031655,-5.479388460006218e-2
0.4069934436016769,-7.188795633303424e-2
0.40989419462303744,-9.307108916506279e-2
0.4127949456443978,-9.342000659007332e-2
0.41569569666575834,-8.880771345448601e-2
0.4185964476871187,-8.442603497681123e-2
0.421497198708479,-9.509473448817063e-2
0.4243979497298398,-0.10028623433411621
0.42729870075120013,-9.038686512583127e-2
0.4301994517725607,-7.603869969350163e-2
0.43310020279392103,-7.72392365933885e-2
0.4360009538152816,-7.34359819625644e-2
0.43890170483664215,-6.982289006393405e-2
0.4418024558580025,-5.650292339152074e-2
0.44470320687936304,-5.3736484423308584e-2
0.4476039579007236,-3.627707335225516e-2
0.45050470892208394,-4.93532209383859e-2
0.4534054599434445,-4.200050241069242e-2
0.45630621096480506,-3.007165512743537e-2
0.4592069619861654,-4.34580736226301e-2
0.46210771300752596,-2.1568818415557134e-2
0.4650084640288863,-7.740259712045727e-4
0.4679092150502471,-2.0569090605197404e-2
0.4708099660716074,-4.4318166687060456e-2
0.47371071709296775,-3.227343619376288e-2
0.4766114681143283,-1.0943412864104163e-2
0.47951221913568887,-3.023000814936283e-2
0.4824129701570494,-4.3608508988195904e-2
0.48531372117840976,-6.620561414495396e-2
0.4882144721997703,-5.8010275960714286e-2
0.49111522322113066,-7.494352808666382e-2
0.4940159742424912,-6.631129420562143e-2
0.4969167252638518,-6.799820137868962e-2
0.49981747628521234,-5.4769469154159034e-2
0.5027182273065727,-6.692099693896347e-2
0.505618978327933,-5.374612493718123e-2
0.5085197293492936,-6.100505525300459e-2
0.5114204803706541,-6.295727437359788e-2
0.5143212313920147,-6.975564721705219e-2
0.517221982413375,-8.115786609691189e-2
0.5201227334347356,-7.715867999601356e-2
0.5230234844560959,-8.324698255765206e-2
0.5259242354774565,-6.925581127668412e-2
0.528824986498817,-8.562678663117207e-2
0.5317257375201776,-9.129168386058739e-2
0.5346264885415379,-8.184204219338709e-2
0.5375272395628983,-8.275241196632221e-2
0.540427990584259,-8.36172632505845e-2
0.5433287416056194,-8.44388719706104e-2
0.54622949262698,-7.533187089853377e-2
0.5491302436483403,-7.656774923623966e-2
0.5520309946697008,-7.279806897911245e-2
0.5549317456910614,-6.92168727349245e-2
0.5578324967124217,-8.5589795014262e-2
0.5607332477337823,-8.136901246826767e-2
0.5636339987551426,-7.2415504371941e-2
0.566534749776503,-5.896590700292503e-2
0.5694355007978635,-5.113255418021234e-2
0.5723362518192241,-5.3578398353926415e-2
0.5752370028405847,-7.073324435154593e-2
0.578137753861945,-7.219905401651594e-2
0.5810385048833053,-8.347910255315849e-2
0.5839392559046661,-6.453256059819656e-2
0.5868400069260264,-4.158958106381505e-2
0.589740757947387,-2.4737515183801073e-2
0.5926415089687473,-3.839064066205777e-2
0.5955422599901079,-4.1473580511616315e-2
0.5984430110114685,-5.9233667400545476e-2
0.6013437620328288,-4.644316188124309e-2
0.6042445130541894,-3.9235946315269166e-2
0.6071452640755499,-4.722038555932684e-2
0.6100460150969103,-6.469313219551942e-2
0.6129467661182708,-6.1517182791035796e-2
0.6158475171396314,-7.827508956545248e-2
0.6187482681609917,-7.442004229244892e-2
0.6216490191823523,-6.581398270599403e-2
0.6245497702037126,-7.741328480736309e-2
0.6274505212250734,-8.843262180359268e-2
0.6303512722464337,-8.4069697918703e-2
0.6332520232677941,-7.49811555510147e-2
0.6361527742891546,-8.612209900997436e-2
0.6390535253105152,-8.187470126480656e-2
0.6419542763318757,-6.300837937582915e-2
0.6448550273532361,-6.9804196966475e-2
0.6477557783745966,-8.614775303157407e-2
0.650656529395957,-6.706777855437396e-2
0.6535572804173175,-7.366062618604263e-2
0.6564580314386781,-6.0148772728192745e-2
0.6593587824600387,-7.2031335328127e-2
0.662259533481399,-8.331976979802524e-2
0.6651602845027593,-6.93249591596301e-2
0.6680610355241199,-8.569247711486672e-2
0.6709617865454804,-7.65227957876059e-2
0.673862537566841,-7.769912788059474e-2
0.6767632885882013,-9.3647937399705e-2
0.6796640396095619,-9.891177708898402e-2
0.6825647906309222,-8.413736608613687e-2
0.6854655416522828,-7.998920498727846e-2
0.6883662926736434,-8.099221662027334e-2
0.6912670436950039,-5.7226254287133016e-2
0.6941677947163643,-3.464859007069432e-2
0.6970685457377246,-5.769369115710454e-2
0.6999692967590854,-4.992394912785647e-2
0.7028700477804459,-5.7373988230720374e-2
0.7057707988018063,-3.4788937317178914e-2
0.7086715498231664,-5.288325636431901e-2
0.7115723008445272,-7.50166241359449e-2
0.7144730518658875,-9.604332351896061e-2
0.7173738028872478,-0.10118739390221476
0.7202745539086084,-8.13554373820079e-2
0.7231753049299692,-9.712143142582297e-2
0.7260760559513293,-9.72678317368717e-2
0.7289768069726899,-0.10729444138606847
0.7318775579940504,-9.210089716855652e-2
0.734778309015411,-9.249832419247062e-2
0.7376790600367713,-7.804458583465868e-2
0.7405798110581316,-8.903235777895546e-2
0.7434805620794924,-6.980815306499333e-2
0.746381313100853,-4.660139390990636e-2"/>
  </g>
  <g stroke-opacity="0.5" stroke="#ff0000" stroke-width="2.0e-2" fill="none">
    <polyline points="-0.7010934465580259,0.3943270300333704
-0.6981926955366653,0.3943270300333704
-0.6952919445153048,0.3943270300333704
-0.6923911934939444,8.721192424060165e-2
-0.689490442472584,-3.966984532191686e-3
-0.6865896914512234,2.2357835212372112e-2
-0.683688940429863,5.283178891601725e-2
-0.6807881894085025,5.952603132050183e-2
-0.677887438387142,4.417032097987311e-2
-0.6749866873657815,5.328272288287417e-2
-0.672085936344421,4.292629953275784e-2
-0.6691851853230606,4.985874297091408e-2
-0.6662844343017,6.738475254002974e-2
-0.6633836832803396,7.596397238342029e-2
-0.6604829322589791,7.161475470492507e-2
-0.6575821812376187,8.343096915040016e-2
-0.6546814302162582,9.369874052631821e-2
-0.6517806791948977,9.115642567205523e-2
-0.6488799281735372,9.116688661629818e-2
-0.6459791771521768,6.183531749607124e-2
-0.6430784261308163,6.245049291874477e-2
-0.6401776751094558,7.356138914422944e-2
-0.6372769240880953,5.0079738146496966e-2
-0.6343761730667349,5.0845831788005835e-2
-0.6314754220453743,3.2884777760339545e-2
-0.6285746710240139,2.8958752158695533e-2
-0.6256739200026534,2.743586557403338e-2
-0.622773168981293,2.4981700466324253e-2
-0.6198724179599324,2.9433727749917316e-2
-0.616971666938572,2.2216989053974456e-2
-0.6140709159172115,2.4737598651355663e-2
-0.611170164895851,2.525208134378487e-2
-0.6082694138744905,3.200396136010353e-2
-0.6053686628531301,3.253138409085249e-2
-0.6024679118317695,3.423679537171659e-2
-0.5995671608104091,4.465851634600959e-2
-0.5966664097890486,4.435722704831235e-2
-0.5937656587676882,4.526923756743306e-2
-0.5908649077463277,5.545040837418669e-2
-0.5879641567249672,5.103145102157103e-2
-0.5850634057036067,5.786902622265999e-2
-0.5821626546822463,5.578104005949319e-2
-0.5792619036608857,6.509643908535823e-2
-0.5763611526395254,6.531600746364835e-2
-0.5734604016181648,7.198325543902717e-2
-0.5705596505968044,7.228489110665381e-2
-0.5676588995754439,7.765076825556633e-2
-0.5647581485540834,6.654821495389202e-2
-0.5618573975327229,6.97706738125684e-2
-0.5589566465113625,7.854317632295871e-2
-0.5560558954900019,7.681325577375869e-2
-0.5531551444686414,7.62521154282575e-2
-0.550254393447281,8.484221082422683e-2
-0.5473536424259204,9.317260269062094e-2
-0.54445289140456,8.941291631786091e-2
-0.5415521403831995,9.286422074249595e-2
-0.538651389361839,9.846933655651557e-2
-0.5357506383404785,0.10055484634020168
-0.5328498873191181,9.810100045767889e-2
-0.5299491362977576,9.999131467271322e-2
-0.5270483852763972,0.10598828437847951
-0.5241476342550366,0.10778561763472666
-0.5212468832336761,0.11008402316975563
-0.5183461322123156,0.10157534431036308
-0.5154453811909552,8.987503168901495e-2
-0.5125446301695947,8.877544128172798e-2
-0.5096438791482343,8.53763198318781e-2
-0.5067431281268737,8.811357271225484e-2
-0.5038423771055133,9.587581100106174e-2
-0.5009416260841528,9.379410767069862e-2
-0.4980408750627923,9.931347370281324e-2
-0.49514012404143193,0.10535359456575522
-0.4922393730200714,0.11275799729479613
-0.4893386219987109,0.11996847670244698
-0.4864378709773505,0.11517834855353187
-0.48353711995598997,0.12047731756972258
-0.48063636893462947,0.12531981034445755
-0.477735617913269,0.1266480872837119
-0.4748348668919085,0.12340019383700968
-0.47193411587054807,0.12981752652605572
-0.46903336484918756,0.12714537368450268
-0.4661326138278271,0.13071255602438264
-0.4632318628064666,0.1219383389390068
-0.4603311117851061,0.1252995148119574
-0.4574303607637457,0.1177342309519398
-0.45452960974238527,0.11639387134304041
-0.45162885872102476,0.12351397941264042
-0.44872810769966426,0.12268228886292065
-0.44582735667830375,0.120857107288173
-0.4429266056569433,0.11421946255668836
-0.44002585463558286,0.10934563185133056
-0.43712510361422235,0.10593829856400616
-0.43422435259286185,0.1084947088094273
-0.4313236015715014,0.10446873483974672
-0.4284228505501409,0.1020188755025867
-0.42552209952878045,0.10939979006781425
-0.42262134850741995,0.11420846695087195
-0.41972059748605944,0.11656669616034221
-0.41681984646469894,0.12228972091671042
-0.4139190954433385,0.12236064061826296
-0.41101834442197804,0.126849291020379
-0.40811759340061754,0.1318685543798761
-0.40521684237925704,0.13357939940292174
-0.4023160913578966,0.13082605357612698
-0.3994153403365361,0.12982377048456722
-0.39651458931517564,0.12388862817482416
-0.39361383829381513,0.11955966361385956
-0.39071308727245463,0.12079745232725614
-0.3878123362510941,0.12566814708093976
-0.3849115852297337,0.12685427695829338
-0.38201083420837323,0.12853440103717628
-0.3791100831870127,0.13380878752704423
-0.3762093321656522,0.1390656110433679
-0.3733085811442918,0.14488567633374944
-0.3704078301229313,0.14813778324814159
-0.36750707910157077,0.1337601365691945
-0.3646063280802103,0.13482908694985268
-0.36170557705884987,0.12943616422566084
-0.3588048260374893,0.11826532914162302
-0.35590407501612886,0.11371358361157086
-0.35300332399476836,0.11890148801384437
-0.3501025729734079,0.12411272609654628
-0.3472018219520475,0.13085147268488423
-0.344301070930687,0.13714520526996332
-0.34140031990932657,0.14123589642203166
-0.33849956888796606,0.1420222235430882
-0.3355988178666056,0.1381187468551991
-0.33269806684524517,0.143971882957107
-0.3297973158238846,0.1457106373310355
-0.32689656480252416,0.1378305904493926
-0.3239958137811636,0.14387071768883103
-0.32109506275980315,0.14352227127087663
-0.3181943117384427,0.1438366678799628
-0.3152935607170822,0.14471972515192677
-0.31239280969572175,0.1460913993293122
-0.30949205867436125,0.15172905706546996
-0.3065913076530008,0.1503775535369486
-0.30369055663164035,0.1564365739418635
-0.3007898056102798,0.15546543816335257
-0.29788905458891934,0.16129732055795604
-0.2949883035675588,0.1553559144377159
-0.29208755254619845,0.15411554879856476
-0.2891868015248379,0.15985774381833656
-0.28628605050347744,0.15326095787078226
-0.283385299482117,0.15899062440121725
-0.2804845484607565,0.15826919372948128
-0.27758379743939604,0.16211286830286636
-0.27468304641803554,0.1622302209095265
-0.2717822953966751,0.16504254596705598
-0.26888154437531464,0.17072166745504957
-0.2659807933539541,0.16894309672910884
-0.26308004233259363,0.17238459673906448
-0.2601792913112331,0.1776136131781676
-0.2572785402898726,0.1625688195951454
-0.2543777892685122,0.1581210907319487
-0.2514770382471517,0.16410207954398315
-0.24857628722579128,0.16881382627900238
-0.24567553620443072,0.15830833794945576
-0.24277478518307027,0.15021653896420994
-0.23987403416170983,0.1294621105610987
-0.23697328314034927,0.12886245619471864
-0.23407253211898882,0.11172614261891073
-0.23117178109762826,0.1188833750722329
-0.2282710300762678,0.1124179983061046
-0.22537027905490736,0.11952081426460959
-0.22246952803354691,0.11975878857347799
-0.21956877701218636,0.120633811239442
-0.21666802599082602,0.11693814207380959
-0.21376727496946546,9.782695803012509e-2
-0.21086652394810512,9.490899378545287e-2
-0.20796577292674456,9.774313229069997e-2
-0.20506502190538412,8.04895354730154e-2
-0.20216427088402356,6.715238201199114e-2
-0.1992635198626631,5.6908889509073135e-2
-0.19636276884130266,5.856883998126672e-2
-0.1934620178199421,6.067060254533069e-2
-0.19056126679858165,5.861121289469662e-2
-0.1876605157772211,5.196140935017457e-2
-0.18475976475586076,5.894214955950794e-2
-0.1818590137345002,5.346430441051081e-2
-0.17895826271313975,4.965782967012039e-2
-0.1760575116917793,5.763199973441524e-2
-0.17315676067041874,5.988100826289644e-2
-0.1702560096490583,4.9926384896245846e-2
-0.16735525862769784,5.6161776111139816e-2
-0.16445450760633729,5.254720357739345e-2
-0.16155375658497684,5.0305148253404375e-2
-0.1586530055636164,5.5641244711183035e-2
-0.15575225454225583,5.836439281340716e-2
-0.1528515035208955,4.789544060351386e-2
-0.14995075249953493,5.3968693281493174e-2
-0.14705000147817449,4.627938014020028e-2
-0.14414925045681404,5.383178113239934e-2
-0.1412484994354536,5.296207295944155e-2
-0.13834774841409314,4.761710940356306e-2
-0.13544699739273258,4.153059743072912e-2
-0.13254624637137213,4.9013601489300396e-2
-0.12964549535001157,4.469268771589596e-2
-0.12674474432865113,5.308145577804729e-2
-0.12384399330729068,6.168991923203854e-2
-0.12094324228593023,6.456378419034081e-2
-0.11804249126456967,7.282818843846084e-2
-0.11514174024320922,6.738887938235899e-2
-0.11224098922184877,6.358328020675807e-2
-0.10934023820048833,7.109602284686878e-2
-0.10643948717912777,7.288818761063648e-2
-0.10353873615776732,7.522103106860334e-2
-0.10063798513640676,7.339632900034865e-2
-9.773723411504631e-2,7.261957313430883e-2
-9.483648309368586e-2,5.767025177685514e-2
-9.19357320723253e-2,5.275637924656923e-2
-8.903498105096497e-2,6.1382169316967994e-2
-8.613423002960441e-2,5.75831364523442e-2
-8.323347900824396e-2,6.54525529800189e-2
-8.033272798688351e-2,6.191875667060448e-2
-7.743197696552295e-2,5.206162050778523e-2
-7.45312259441625e-2,5.5065734681845e-2
-7.163047492280195e-2,5.4072139809912545e-2
-6.872972390144161e-2,6.104199630162044e-2
-6.582897288008116e-2,6.51898662183224e-2
-6.29282218587206e-2,7.320436531627378e-2
-6.002747083736015e-2,7.624030131334936e-2
-5.7126719815999705e-2,7.525113763155361e-2
-5.4225968794639146e-2,8.202205505846338e-2
-5.132521777327881e-2,8.193369419127733e-2
-4.842446675191825e-2,7.730817581659694e-2
-4.55237157305578e-2,7.289937687137255e-2
-4.262296470919724e-2,8.014817878071778e-2
-3.9722213687836794e-2,8.810210508982963e-2
-3.6821462666476346e-2,8.87526198128527e-2
-3.3920711645115786e-2,8.358600809859912e-2
-3.1019960623755338e-2,8.867991505259565e-2
-2.811920960239478e-2,8.304489163412987e-2
-2.5218458581034442e-2,8.420862291234144e-2
-2.2317707559673883e-2,9.203891190944874e-2
-1.9416956538313546e-2,9.704057637370667e-2
-1.6516205516952875e-2,0.10412150606398429
-1.3615454495592538e-2,0.10719529602370703
-1.0714703474231868e-2,0.10035311897579607
-7.813952452871642e-3,0.10779586691417503
-4.913201431510972e-3,0.11505022230694134
-2.0124504101506346e-3,0.10860662480218469
8.883006112099245e-4,0.11527006792976918
3.7890516325704837e-3,0.11366010146523314
6.689802653930821e-3,0.11349028915510706
9.59055367529138e-3,0.12056733313656848
1.2491304696651717e-2,0.12746769670465719
1.5392055718012276e-2,0.12534633589551103
1.8292806739372836e-2,0.12871280131544816
2.1193557760733284e-2,0.13542532273352031
2.4094308782093732e-2,0.13790040885250282
2.699505980345418e-2,0.1406727555617464
2.9895810824814628e-2,0.13927597406824416
3.279656184617519e-2,0.14110244002809075
3.5697312867535747e-2,0.13985889473314878
3.8598063888896084e-2,0.14351303365746115
4.149881491025664e-2,0.1375588089613516
4.439956593161698e-2,0.133176273211016
4.730031695297765e-2,0.13827748452346617
5.02010679743381e-2,0.1243768487890663
5.3101818995698546e-2,0.12913666802956153
5.6002570017058995e-2,0.13047220834228962
5.890332103841944e-2,0.13466770596177058
6.180407205978011e-2,0.13592560536071296
6.470482308114045e-2,0.14091773434023958
6.760557410250101e-2,0.1467832590384629
7.050632512386135e-2,0.14599438802826775
7.34070761452219e-2,0.14138171840326835
7.630782716658246e-2,0.12728474720832939
7.920857818794291e-2,0.13380191755048804
8.210932920930336e-2,0.13473524004370196
8.501008023066381e-2,0.13507334139749338
8.791083125202426e-2,0.13955532903887358
9.08115822733847e-2,0.14053124627559266
9.371233329474538e-2,0.13008511092939218
9.661308431610571e-2,0.13603998998689837
9.951383533746627e-2,0.14256161009927926
0.10241458635882661,0.14891945949527513
0.10531533738018717,0.15077995252073445
0.10821608840154773,0.15694627598553973
0.11111683942290818,0.14757139040671313
0.11401759044426862,0.15238926810567288
0.11691834146562896,0.15781819117760693
0.11981909248698952,0.15898187871859787
0.12271984350834997,0.16127782227062165
0.12562059452971042,0.16650175633665365
0.12852134555107086,0.16436660938867537
0.1314220965724313,0.17005139074094394
0.13432284759379187,0.17560252234759294
0.13722359861515243,0.16939166792971155
0.14012434963651277,0.1667223556427645
0.14302510065787333,0.16949773980127786
0.14592585167923366,0.16922188131491472
0.14882660270059433,0.1748445052696901
0.15172735372195478,0.17980287413646856
0.15462810474331523,0.17050019413530942
0.15752885576467568,0.1695054523187065
0.16042960678603613,0.1618343621524747
0.1633303578073968,0.15498260620669935
0.16623110882875713,0.1425392337400565
0.1691318598501177,0.14760836580155934
0.17203261087147803,0.1495633315912362
0.1749333618928386,0.14722345018066063
0.17783411291419915,0.13732820945313345
0.1807348639355596,0.12908974675682783
0.18363561495692005,0.12863832934037417
0.1865363659782805,0.12335486535049878
0.18943711699964094,0.11975879088789065
0.1923378680210015,0.11737540192838763
0.19523861904236206,0.11188364856577437
0.1981393700637224,0.11447010459238322
0.20104012108508296,0.10680126324175215
0.2039408721064433,0.11326804716424677
0.20684162312780396,0.11257033390463783
0.2097423741491644,0.11265966891523554
0.21264312517052486,0.11557956421960452
0.2155438761918853,0.1101148870702825
0.21844462721324576,0.11692602585043804
0.22134537823460643,0.10034804306603184
0.22424612925596676,9.455604819174096e-2
0.22714688027732732,9.561206631896763e-2
0.23004763129868766,8.578272880455518e-2
0.23294838232004822,9.185759833430629e-2
0.23584913334140878,9.925805099997814e-2
0.23874988436276923,0.10481085472278978
0.24165063538412968,0.11021421008011839
0.24455138640549012,0.11541754893978257
0.24745213742685057,0.12223659658317854
0.25035288844821113,0.11190152877628429
0.2532536394695717,0.11767078019146499
0.256154390490932,0.11590444326058363
0.2590551415122926,0.11974194348848455
0.2619558925336529,0.123753719230978
0.2648566435550135,0.11140647357431999
0.2677573945763738,0.11664130355510438
0.2706581455977344,0.12159374520669264
0.2735588966190947,0.12317368196779782
0.2764596476404553,0.12031440891751449
0.27936039866181583,0.12602493172928497
0.28226114968317617,0.12425904499409202
0.28516190070453673,0.12750014558014466
0.2880626517258973,0.12084805179069324
0.2909634027472576,0.12770861184615628
0.2938641537686182,0.1299445357833231
0.29676490478997875,0.13546066292800835
0.2996656558113391,0.1380363438604021
0.30256640683269964,0.14356659836275704
0.30546715785406,0.14169712788888172
0.30836790887542076,0.13471408207912877
0.3112686598967811,0.13956319616823054
0.31416941091814143,0.13355689673439947
0.317070161939502,0.13814149514372304
0.31997091296086255,0.13401056100907655
0.3228716639822231,0.13603447928847917
0.32577241500358345,0.12913399629315042
0.328673166024944,0.1260997071841985
0.33157391704630435,0.1298985451040861
0.3344746680676649,0.12987410237306563
0.33737541908902546,0.11807751299533314
0.340276170110386,0.10900180344176502
0.34317692113174636,0.10800126798604576
0.3460776721531067,0.10221870803831701
0.34897842317446726,8.838519040870707e-2
0.3518791741958278,9.612868242765049e-2
0.3547799252171884,8.479903925839855e-2
0.3576806762385487,8.433290722183368e-2
0.36058142725990927,7.927489862128045e-2
0.3634821782812696,6.842934223491137e-2
0.36638292930263017,6.410931547473658e-2
0.3692836803239907,6.953634605083331e-2
0.3721844313453513,6.047550984733718e-2
0.3750851823667116,5.3695014387539985e-2
0.37798593338807196,5.3574868412575916e-2
0.38088668440943274,5.317172897069106e-2
0.3837874354307931,6.1589209927909505e-2
0.38668818645215364,5.56147055365947e-2
0.389588937473514,4.9051924560529536e-2
0.39248968849487453,5.336482631707856e-2
0.3953904395162351,5.736206104011965e-2
0.39829119053759543,5.214655826734982e-2
0.401191941558956,6.040136333523166e-2
0.40409269258031655,5.908464886086717e-2
0.4069934436016769,5.9185239333313655e-2
0.40989419462303744,5.487188416836114e-2
0.4127949456443978,6.346358484751041e-2
0.41569569666575834,7.121516072370776e-2
0.4185964476871187,7.881791908681696e-2
0.421497198708479,8.331046945293036e-2
0.4243979497298398,9.034213297717009e-2
0.42729870075120013,9.491355430696213e-2
0.4301994517725607,9.586843134391915e-2
0.43310020279392103,0.10337850734439546
0.4360009538152816,0.11026133186805681
0.43890170483664215,0.1170064771499782
0.4418024558580025,0.11786299382221677
0.44470320687936304,0.12459353998626826
0.4476039579007236,0.12062986614524612
0.45050470892208394,0.12153891131699585
0.4534054599434445,0.12652136029098138
0.45630621096480506,0.12817381578714643
0.4592069619861654,0.12843159085653844
0.46210771300752596,0.11815857472279545
0.4650084640288863,0.11029955007176534
0.4679092150502471,0.10435621083563063
0.4708099660716074,9.333653873459746e-2
0.47371071709296775,9.629691884757391e-2
0.4766114681143283,8.932657460295484e-2
0.47951221913568887,8.539095847726835e-2
0.4824129701570494,8.761849918392989e-2
0.48531372117840976,7.957542827747183e-2
0.4882144721997703,8.547229062625844e-2
0.49111522322113066,8.437598056231671e-2
0.4940159742424912,8.988990321636936e-2
0.4969167252638518,9.75073315075638e-2
0.49981747628521234,9.933241224195777e-2
0.5027182273065727,0.10196378641637743
0.505618978327933,0.10363746933955875
0.5085197293492936,0.1092366075772021
0.5114204803706541,0.11632499127123014
0.5143212313920147,0.12174857074310341
0.517221982413375,0.124041501461712
0.5201227334347356,0.13030917096728145
0.5230234844560959,0.135629446854648
0.5259242354774565,0.1349093703314227
0.528824986498817,0.13160129109428614
0.5317257375201776,0.1370658721480707
0.5346264885415379,0.14021926350069447
0.5375272395628983,0.14662162869942408
0.540427990584259,0.15286424005572408
0.5433287416056194,0.15895096758709115
0.54622949262698,0.1615017562012998
0.5491302436483403,0.16733309126490004
0.5520309946697008,0.17247136722379847
0.5549317456910614,0.17752617042182411
0.5578324967124217,0.17128922788840728
0.5607332477337823,0.17615954110219956
0.5636339987551426,0.17813188346004621
0.566534749776503,0.17560285201660336
0.5694355007978635,0.1784239970335763
0.5723362518192241,0.18362089676735116
0.5752370028405847,0.17576649620407975
0.578137753861945,0.18120477647566413
0.5810385048833053,0.18086136390043317
0.5839392559046661,0.17047513999342734
0.5868400069260264,0.15431575711577256
0.589740757947387,0.1491312084249709
0.5926415089687473,0.1480412402322941
0.5955422599901079,0.15390148732022774
0.5984430110114685,0.14753316352066254
0.6013437620328288,0.14740559411168458
0.6042445130541894,0.1516160477737029
0.6071452640755499,0.1552152068325534
0.6100460150969103,0.1491406082657487
0.6129467661182708,0.15494823233862987
0.6158475171396314,0.14984222540205822
0.6187482681609917,0.15544097956020708
0.6216490191823523,0.15848717160109888
0.6245497702037126,0.15896401412118305
0.6274505212250734,0.15994901962091762
0.6303512722464337,0.16509338030419274
0.6332520232677941,0.16741274378295112
0.6361527742891546,0.16788966465165822
0.6390535253105152,0.17284801571525027
0.6419542763318757,0.16332241963680272
0.6448550273532361,0.1672313384827147
0.6477557783745966,0.16179970876400868
0.650656529395957,0.1529096104579873
0.6535572804173175,0.15727408424157868
0.6564580314386781,0.15588788130487585
0.6593587824600387,0.15622352974674214
0.662259533481399,0.15709347568454635
0.6651602845027593,0.15518897134214504
0.6680610355241199,0.15056961415659403
0.6709617865454804,0.15340303379747056
0.673862537566841,0.15944739117390627
0.6767632885882013,0.1550720436914355
0.6796640396095619,0.16000406226849506
0.6825647906309222,0.15703128259989452
0.6854655416522828,0.16233404364804155
0.6883662926736434,0.16816597445635084
0.6912670436950039,0.15076393707131308
0.6941677947163643,0.13734045694388902
0.6970685457377246,0.12445585556637823
0.6999692967590854,0.12911779716142802
0.7028700477804459,0.13380121766447067
0.7057707988018063,0.12198235882549369
0.7086715498231664,0.11740877098888453
0.7115723008445272,0.10769596142460808
0.7144730518658875,0.10030352643378454
0.7173738028872478,0.10687251645336471
0.7202745539086084,0.10111820343111505
0.7231753049299692,0.10039572854763423
0.7260760559513293,0.10783752460364382
0.7289768069726899,0.11169201803851808
0.7318775579940504,0.11099956147996093
0.734778309015411,0.11816813966126849
0.7376790600367713,0.11788563191667956
0.7405798110581316,0.12066163986369138
0.7434805620794924,0.11473815439879975
0.746381313100853,0.10364857856383247"/>
  </g>
</svg>