<svg viewBox="-1.0025 -0.6584999999999999 2.005 1.2934999999999999" xmlns="http://www.w3.org/2000/svg" xmlns:xlink="http://www.w3.org/1999/xlink" version="1.1" width="300.0" height="200.0"><g stroke-width="0.0" stroke="none" fill="#000000" transform="translate(0.0, -0.5474999999999999)" fill-opacity="1.0" font-size="0.12" text-anchor="middle"><text transform="rotate(0.0, 0.0, -0.0)" x="0.0" y="-0.0">digit count</text></g><g stroke-width="0.0" stroke="#000000" fill="#666666" fill-opacity="3.0e-2" stroke-opacity="0.0"><rect width="2.0" height="0.9999999999999999" x="-1.0" y="-0.4999999999999999" /></g><g stroke-width="5.0e-3" stroke="#A8E5EE" fill="none" stroke-opacity="0.3"><polyline points="-0.8181818181818181,0.505 -0.8181818181818181,-0.5049999999999999" /></g><g stroke-width="5.0e-3" stroke="#A8E5EE" fill="none" stroke-opacity="0.3"><polyline points="-0.6363636363636364,0.505 -0.6363636363636364,-0.5049999999999999" /></g><g stroke-width="5.0e-3" stroke="#A8E5EE" fill="none" stroke-opacity="0.3"><polyline points="-0.4545454545454546,0.505 -0.4545454545454546,-0.5049999999999999" /></g><g stroke-width="5.0e-3" stroke="#A8E5EE" fill="none" stroke-opacity="0.3"><polyline points="-0.2727272727272727,0.505 -0.2727272727272727,-0.5049999999999999" /></g><g stroke-width="5.0e-3" stroke="#A8E5EE" fill="none" stroke-opacity="0.3"><polyline points="-9.090909090909094e-2,0.505 -9.090909090909094e-2,-0.5049999999999999" /></g><g stroke-width="5.0e-3" stroke="#A8E5EE" fill="none" stroke-opacity="0.3"><polyline points="9.090909090909083e-2,0.505 9.090909090909083e-2,-0.5049999999999999" /></g><g stroke-width="5.0e-3" stroke="#A8E5EE" fill="none" stroke-opacity="0.3"><polyline points="0.2727272727272727,0.505 0.2727272727272727,-0.5049999999999999" /></g><g stroke-width="5.0e-3" stroke="#A8E5EE" fill="none" stroke-opacity="0.3"><polyline points="0.4545454545454546,0.505 0.4545454545454546,-0.5049999999999999" /></g><g stroke-width="5.0e-3" stroke="#A8E5EE" fill="none" stroke-opacity="0.3"><polyline points="0.6363636363636365,0.505 0.6363636363636365,-0.5049999999999999" /></g><g stroke-width="0.0" stroke="none" fill="#666666" fill-opacity="1.0" font-size="5.0e-2" text-anchor="middle"><text x="-0.8181818181818181" y="0.60875">10th</text></g><g stroke-width="0.0" stroke="none" fill="#666666" fill-opacity="1.0" font-size="5.0e-2" text-anchor="middle"><text x="-0.6363636363636364" y="0.60875">20th</text></g><g stroke-width="0.0" stroke="none" fill="#666666" fill-opacity="1.0" font-size="5.0e-2" text-anchor="middle"><text x="-0.4545454545454546" y="0.60875">30th</text></g><g stroke-width="0.0" stroke="none" fill="#666666" fill-opacity="1.0" font-size="5.0e-2" text-anchor="middle"><text x="-0.2727272727272727" y="0.60875">40th</text></g><g stroke-width="0.0" stroke="none" fill="#666666" fill-opacity="1.0" font-size="5.0e-2" text-anchor="middle"><text x="-9.090909090909094e-2" y="0.60875">50th</text></g><g stroke-width="0.0" stroke="none" fill="#666666" fill-opacity="1.0" font-size="5.0e-2" text-anchor="middle"><text x="9.090909090909083e-2" y="0.60875">60th</text></g><g stroke-width="0.0" stroke="none" fill="#666666" fill-opacity="1.0" font-size="5.0e-2" text-anchor="middle"><text x="0.2727272727272727" y="0.60875">70th</text></g><g stroke-width="0.0" stroke="none" fill="#666666" fill-opacity="1.0" font-size="5.0e-2" text-anchor="middle"><text x="0.4545454545454546" y="0.60875">80th</text></g><g stroke-width="0.0" stroke="none" fill="#666666" fill-opacity="1.0" font-size="5.0e-2" text-anchor="middle"><text x="0.6363636363636365" y="0.60875">90th</text></g><g stroke-width="0.0" stroke="#2C429D" fill="#5F0391" fill-opacity="1.0" stroke-opacity="0.4"><line stroke-width="5.0e-3" x1="-0.8181818181818181" y1="0.5425" x2="-0.8181818181818181" y2="0.5125" /><line stroke-width="5.0e-3" x1="-0.6363636363636364" y1="0.5425" x2="-0.6363636363636364" y2="0.5125" /><line stroke-width="5.0e-3" x1="-0.4545454545454546" y1="0.5425" x2="-0.4545454545454546" y2="0.5125" /><line stroke-width="5.0e-3" x1="-0.2727272727272727" y1="0.5425" x2="-0.2727272727272727" y2="0.5125" /><line stroke-width="5.0e-3" x1="-9.090909090909094e-2" y1="0.5425" x2="-9.090909090909094e-2" y2="0.5125" /><line stroke-width="5.0e-3" x1="9.090909090909083e-2" y1="0.5425" x2="9.090909090909083e-2" y2="0.5125" /><line stroke-width="5.0e-3" x1="0.2727272727272727" y1="0.5425" x2="0.2727272727272727" y2="0.5125" /><line stroke-width="5.0e-3" x1="0.4545454545454546" y1="0.5425" x2="0.4545454545454546" y2="0.5125" /><line stroke-width="5.0e-3" x1="0.6363636363636365" y1="0.5425" x2="0.6363636363636365" y2="0.5125" /></g><g stroke-width="0.0" stroke="#666666" fill="#5F0391" fill-opacity="0.5" stroke-opacity="0.0"><rect width="2.0" height="5.0000000000000044e-3" x="-1.0" y="0.5125" /></g><g stroke-width="5.0e-3" stroke="#666666" fill="#FF0000" fill-opacity="0.5" stroke-opacity="0.5"><rect width="0.18181818181818188" height="0.9137931034482757" x="-1.0" y="-0.4137931034482757" /><rect width="0.18181818181818177" height="0.9310344827586206" x="-0.8181818181818181" y="-0.43103448275862055" /><rect width="0.18181818181818177" height="0.8275862068965516" x="-0.6363636363636364" y="-0.3275862068965516" /><rect width="0.18181818181818188" height="0.8275862068965516" x="-0.4545454545454546" y="-0.3275862068965516" /><rect width="0.18181818181818188" height="0.7758620689655171" x="-0.2727272727272727" y="-0.2758620689655171" /><rect width="0.18181818181818166" height="0.793103448275862" x="-9.090909090909083e-2" y="-0.293103448275862" /><rect width="0.18181818181818188" height="0.8448275862068965" x="9.090909090909083e-2" y="-0.34482758620689646" /><rect width="0.18181818181818188" height="0.9827586206896551" x="0.2727272727272727" y="-0.48275862068965514" /><rect width="0.18181818181818188" height="0.9999999999999999" x="0.4545454545454546" y="-0.4999999999999999" /><rect width="0.18181818181818188" height="0.7241379310344828" x="0.6363636363636365" y="-0.22413793103448276" /><rect width="0.18181818181818166" x="0.8181818181818183" y="0.5" /></g><g /></svg>