<svg viewBox="-0.7505750000000001 -0.6585 1.580075 1.4642688340826893" xmlns="http://www.w3.org/2000/svg" xmlns:xlink="http://www.w3.org/1999/xlink" version="1.1" width="300.0" height="200.0"><defs><linearGradient id="pixel" x1="0.0" y1="1.0" x2="6.123233995736766e-17" y2="0.0"><stop stop-opacity="1.0" stop-color="#666666" offset="0%" /><stop stop-opacity="1.0" stop-color="#5DA5DA" offset="100%" /></linearGradient></defs><g stroke-width="0.0" stroke="none" fill="#000000" transform="translate(-0.12153750000000008, -0.5475)" fill-opacity="1.0" font-size="0.12" text-anchor="middle"><text transform="rotate(0.0, 0.0, -0.0)" x="0.0" y="-0.0">std versus ma</text></g><g stroke-width="0.0" stroke="none" fill="#000000" transform="translate(-0.12153750000000008, 0.7742688340826893)" fill-opacity="1.0" font-size="6.0e-2" text-anchor="middle"><text transform="rotate(0.0, 0.0, -0.0)" x="0.0" y="-0.0">ma quantiles</text></g><g stroke-width="0.0" stroke="none" fill="#000000" transform="translate(-0.6950750000000001, 9.163441704134467e-2)" fill-opacity="1.0" font-size="6.0e-2" text-anchor="middle"><text transform="rotate(-90.0, 0.0, -0.0)" x="0.0" y="-0.0">std quantiles</text></g><g stroke-width="0.0" stroke="#000000" fill="#666666" fill-opacity="3.0e-2" stroke-opacity="0.0"><rect width="1.0" height="1.0" x="-0.5" y="-0.5" /></g><g stroke-width="5.0e-3" stroke="#A8E5EE" fill="none" stroke-opacity="0.3"><polyline points="-0.45,0.505 -0.45,-0.505" /></g><g stroke-width="5.0e-3" stroke="#A8E5EE" fill="none" stroke-opacity="0.3"><polyline points="-0.35,0.505 -0.35,-0.505" /></g><g stroke-width="5.0e-3" stroke="#A8E5EE" fill="none" stroke-opacity="0.3"><polyline points="-0.25,0.505 -0.25,-0.505" /></g><g stroke-width="5.0e-3" stroke="#A8E5EE" fill="none" stroke-opacity="0.3"><polyline points="-0.15000000000000002,0.505 -0.15000000000000002,-0.505" /></g><g stroke-width="5.0e-3" stroke="#A8E5EE" fill="none" stroke-opacity="0.3"><polyline points="-4.999999999999999e-2,0.505 -4.999999999999999e-2,-0.505" /></g><g stroke-width="5.0e-3" stroke="#A8E5EE" fill="none" stroke-opacity="0.3"><polyline points="5.0000000000000044e-2,0.505 5.0000000000000044e-2,-0.505" /></g><g stroke-width="5.0e-3" stroke="#A8E5EE" fill="none" stroke-opacity="0.3"><polyline points="0.15000000000000002,0.505 0.15000000000000002,-0.505" /></g><g stroke-width="5.0e-3" stroke="#A8E5EE" fill="none" stroke-opacity="0.3"><polyline points="0.25,0.505 0.25,-0.505" /></g><g stroke-width="5.0e-3" stroke="#A8E5EE" fill="none" stroke-opacity="0.3"><polyline points="0.35,0.505 0.35,-0.505" /></g><g stroke-width="5.0e-3" stroke="#A8E5EE" fill="none" stroke-opacity="0.3"><polyline points="0.44999999999999996,0.505 0.44999999999999996,-0.505" /></g><g stroke-width="0.0" stroke="none" fill="#666666" fill-opacity="1.0" font-size="4.810655172413793e-2" text-anchor="end"><text transform="rotate(-45.0, -0.45, 0.60487725)" x="-0.45" y="0.60487725">0th</text></g><g stroke-width="0.0" stroke="none" fill="#666666" fill-opacity="1.0" font-size="4.810655172413793e-2" text-anchor="end"><text transform="rotate(-45.0, -0.35, 0.60487725)" x="-0.35" y="0.60487725">10th</text></g><g stroke-width="0.0" stroke="none" fill="#666666" fill-opacity="1.0" font-size="4.810655172413793e-2" text-anchor="end"><text transform="rotate(-45.0, -0.25, 0.60487725)" x="-0.25" y="0.60487725">20th</text></g><g stroke-width="0.0" stroke="none" fill="#666666" fill-opacity="1.0" font-size="4.810655172413793e-2" text-anchor="end"><text transform="rotate(-45.0, -0.15000000000000002, 0.60487725)" x="-0.15000000000000002" y="0.60487725">30th</text></g><g stroke-width="0.0" stroke="none" fill="#666666" fill-opacity="1.0" font-size="4.810655172413793e-2" text-anchor="end"><text transform="rotate(-45.0, -4.999999999999999e-2, 0.60487725)" x="-4.999999999999999e-2" y="0.60487725">40th</text></g><g stroke-width="0.0" stroke="none" fill="#666666" fill-opacity="1.0" font-size="4.810655172413793e-2" text-anchor="end"><text transform="rotate(-45.0, 5.0000000000000044e-2, 0.60487725)" x="5.0000000000000044e-2" y="0.60487725">50th</text></g><g stroke-width="0.0" stroke="none" fill="#666666" fill-opacity="1.0" font-size="4.810655172413793e-2" text-anchor="end"><text transform="rotate(-45.0, 0.15000000000000002, 0.60487725)" x="0.15000000000000002" y="0.60487725">60th</text></g><g stroke-width="0.0" stroke="none" fill="#666666" fill-opacity="1.0" font-size="4.810655172413793e-2" text-anchor="end"><text transform="rotate(-45.0, 0.25, 0.60487725)" x="0.25" y="0.60487725">70th</text></g><g stroke-width="0.0" stroke="none" fill="#666666" fill-opacity="1.0" font-size="4.810655172413793e-2" text-anchor="end"><text transform="rotate(-45.0, 0.35, 0.60487725)" x="0.35" y="0.60487725">80th</text></g><g stroke-width="0.0" stroke="none" fill="#666666" fill-opacity="1.0" font-size="4.810655172413793e-2" text-anchor="end"><text transform="rotate(-45.0, 0.44999999999999996, 0.60487725)" x="0.44999999999999996" y="0.60487725">90th</text></g><g stroke-width="0.0" stroke="#2C429D" fill="#5F0391" fill-opacity="1.0" stroke-opacity="0.4"><line stroke-width="5.0e-3" x1="-0.45" y1="0.54" x2="-0.45" y2="0.51" /><line stroke-width="5.0e-3" x1="-0.35" y1="0.54" x2="-0.35" y2="0.51" /><line stroke-width="5.0e-3" x1="-0.25" y1="0.54" x2="-0.25" y2="0.51" /><line stroke-width="5.0e-3" x1="-0.15000000000000002" y1="0.54" x2="-0.15000000000000002" y2="0.51" /><line stroke-width="5.0e-3" x1="-4.999999999999999e-2" y1="0.54" x2="-4.999999999999999e-2" y2="0.51" /><line stroke-width="5.0e-3" x1="5.0000000000000044e-2" y1="0.54" x2="5.0000000000000044e-2" y2="0.51" /><line stroke-width="5.0e-3" x1="0.15000000000000002" y1="0.54" x2="0.15000000000000002" y2="0.51" /><line stroke-width="5.0e-3" x1="0.25" y1="0.54" x2="0.25" y2="0.51" /><line stroke-width="5.0e-3" x1="0.35" y1="0.54" x2="0.35" y2="0.51" /><line stroke-width="5.0e-3" x1="0.44999999999999996" y1="0.54" x2="0.44999999999999996" y2="0.51" /></g><g stroke-width="0.0" stroke="#666666" fill="#5F0391" fill-opacity="0.5" stroke-opacity="0.0"><rect width="1.0" height="5.0000000000000044e-3" x="-0.5" y="0.51" /></g><g stroke-width="5.0e-3" stroke="#A8E5EE" fill="none" stroke-opacity="0.3"><polyline points="-0.505,0.45 0.505,0.45" /></g><g stroke-width="5.0e-3" stroke="#A8E5EE" fill="none" stroke-opacity="0.3"><polyline points="-0.505,0.35 0.505,0.35" /></g><g stroke-width="5.0e-3" stroke="#A8E5EE" fill="none" stroke-opacity="0.3"><polyline points="-0.505,0.25 0.505,0.25" /></g><g stroke-width="5.0e-3" stroke="#A8E5EE" fill="none" stroke-opacity="0.3"><polyline points="-0.505,0.15000000000000002 0.505,0.15000000000000002" /></g><g stroke-width="5.0e-3" stroke="#A8E5EE" fill="none" stroke-opacity="0.3"><polyline points="-0.505,4.999999999999999e-2 0.505,4.999999999999999e-2" /></g><g stroke-width="5.0e-3" stroke="#A8E5EE" fill="none" stroke-opacity="0.3"><polyline points="-0.505,-5.0000000000000044e-2 0.505,-5.0000000000000044e-2" /></g><g stroke-width="5.0e-3" stroke="#A8E5EE" fill="none" stroke-opacity="0.3"><polyline points="-0.505,-0.15000000000000002 0.505,-0.15000000000000002" /></g><g stroke-width="5.0e-3" stroke="#A8E5EE" fill="none" stroke-opacity="0.3"><polyline points="-0.505,-0.25 0.505,-0.25" /></g><g stroke-width="5.0e-3" stroke="#A8E5EE" fill="none" stroke-opacity="0.3"><polyline points="-0.505,-0.35 0.505,-0.35" /></g><g stroke-width="5.0e-3" stroke="#A8E5EE" fill="none" stroke-opacity="0.3"><polyline points="-0.505,-0.44999999999999996 0.505,-0.44999999999999996" /></g><g stroke-width="0.0" stroke="none" fill="#666666" fill-opacity="1.0" font-size="5.0e-2" text-anchor="end"><text x="-0.5550750000000001" y="0.4645">0th</text></g><g stroke-width="0.0" stroke="none" fill="#666666" fill-opacity="1.0" font-size="5.0e-2" text-anchor="end"><text x="-0.5550750000000001" y="0.3645">10th</text></g><g stroke-width="0.0" stroke="none" fill="#666666" fill-opacity="1.0" font-size="5.0e-2" text-anchor="end"><text x="-0.5550750000000001" y="0.2645">20th</text></g><g stroke-width="0.0" stroke="none" fill="#666666" fill-opacity="1.0" font-size="5.0e-2" text-anchor="end"><text x="-0.5550750000000001" y="0.16450000000000004">30th</text></g><g stroke-width="0.0" stroke="none" fill="#666666" fill-opacity="1.0" font-size="5.0e-2" text-anchor="end"><text x="-0.5550750000000001" y="6.449999999999999e-2">40th</text></g><g stroke-width="0.0" stroke="none" fill="#666666" fill-opacity="1.0" font-size="5.0e-2" text-anchor="end"><text x="-0.5550750000000001" y="-3.5500000000000045e-2">50th</text></g><g stroke-width="0.0" stroke="none" fill="#666666" fill-opacity="1.0" font-size="5.0e-2" text-anchor="end"><text x="-0.5550750000000001" y="-0.1355">60th</text></g><g stroke-width="0.0" stroke="none" fill="#666666" fill-opacity="1.0" font-size="5.0e-2" text-anchor="end"><text x="-0.5550750000000001" y="-0.2355">70th</text></g><g stroke-width="0.0" stroke="none" fill="#666666" fill-opacity="1.0" font-size="5.0e-2" text-anchor="end"><text x="-0.5550750000000001" y="-0.33549999999999996">80th</text></g><g stroke-width="0.0" stroke="none" fill="#666666" fill-opacity="1.0" font-size="5.0e-2" text-anchor="end"><text x="-0.5550750000000001" y="-0.43549999999999994">90th</text></g><g stroke-width="0.0" stroke="#2C429D" fill="#5F0391" fill-opacity="1.0" stroke-opacity="0.4"><line stroke-width="5.0e-3" transform="rotate(-90.0, -0.525, 0.45)" x1="-0.525" y1="0.465" x2="-0.525" y2="0.435" /><line stroke-width="5.0e-3" transform="rotate(-90.0, -0.525, 0.35)" x1="-0.525" y1="0.365" x2="-0.525" y2="0.33499999999999996" /><line stroke-width="5.0e-3" transform="rotate(-90.0, -0.525, 0.25)" x1="-0.525" y1="0.265" x2="-0.525" y2="0.235" /><line stroke-width="5.0e-3" transform="rotate(-90.0, -0.525, 0.15000000000000002)" x1="-0.525" y1="0.16500000000000004" x2="-0.525" y2="0.135" /><line stroke-width="5.0e-3" transform="rotate(-90.0, -0.525, 4.999999999999999e-2)" x1="-0.525" y1="6.499999999999999e-2" x2="-0.525" y2="3.499999999999999e-2" /><line stroke-width="5.0e-3" transform="rotate(-90.0, -0.525, -5.0000000000000044e-2)" x1="-0.525" y1="-3.5000000000000045e-2" x2="-0.525" y2="-6.500000000000004e-2" /><line stroke-width="5.0e-3" transform="rotate(-90.0, -0.525, -0.15000000000000002)" x1="-0.525" y1="-0.135" x2="-0.525" y2="-0.16500000000000004" /><line stroke-width="5.0e-3" transform="rotate(-90.0, -0.525, -0.25)" x1="-0.525" y1="-0.235" x2="-0.525" y2="-0.265" /><line stroke-width="5.0e-3" transform="rotate(-90.0, -0.525, -0.35)" x1="-0.525" y1="-0.33499999999999996" x2="-0.525" y2="-0.365" /><line stroke-width="5.0e-3" transform="rotate(-90.0, -0.525, -0.44999999999999996)" x1="-0.525" y1="-0.43499999999999994" x2="-0.525" y2="-0.46499999999999997" /></g><g stroke-width="0.0" stroke="#666666" fill="#5F0391" fill-opacity="0.5" stroke-opacity="0.0"><rect width="5.0000000000000044e-3" height="1.0" x="-0.515" y="-0.5" /></g><g /><g stroke-width="0.0" stroke="#000000" fill="#666666" fill-opacity="1.0" stroke-opacity="0.0"><rect width="9.999999999999998e-2" height="9.999999999999998e-2" x="-0.5" y="0.4" /></g><g stroke-width="0.0" stroke="#000000" fill="#666666" fill-opacity="1.0" stroke-opacity="0.0"><rect width="9.999999999999998e-2" height="0.10000000000000003" x="-0.5" y="0.3" /></g><g stroke-width="0.0" stroke="#000000" fill="#666666" fill-opacity="1.0" stroke-opacity="0.0"><rect width="9.999999999999998e-2" height="0.10000000000000003" x="-0.5" y="0.19999999999999996" /></g><g stroke-width="0.0" stroke="#000000" fill="#666666" fill-opacity="1.0" stroke-opacity="0.0"><rect width="9.999999999999998e-2" height="9.999999999999998e-2" x="-0.5" y="9.999999999999998e-2" /></g><g stroke-width="0.0" stroke="#000000" fill="#666666" fill-opacity="1.0" stroke-opacity="0.0"><rect width="9.999999999999998e-2" height="9.999999999999998e-2" x="-0.5" /></g><g stroke-width="0.0" stroke="#000000" fill="#656C71" fill-opacity="1.0" stroke-opacity="0.0"><rect width="9.999999999999998e-2" height="0.10000000000000009" x="-0.5" y="-0.10000000000000009" /></g><g stroke-width="0.0" stroke="#000000" fill="#656A6D" fill-opacity="1.0" stroke-opacity="0.0"><rect width="9.999999999999998e-2" height="9.999999999999998e-2" x="-0.5" y="-0.20000000000000007" /></g><g stroke-width="0.0" stroke="#000000" fill="#64717B" fill-opacity="1.0" stroke-opacity="0.0"><rect width="9.999999999999998e-2" height="9.999999999999998e-2" x="-0.5" y="-0.30000000000000004" /></g><g stroke-width="0.0" stroke="#000000" fill="#6090B3" fill-opacity="1.0" stroke-opacity="0.0"><rect width="9.999999999999998e-2" height="9.999999999999998e-2" x="-0.5" y="-0.4" /></g><g stroke-width="0.0" stroke="#000000" fill="#5EA1D3" fill-opacity="1.0" stroke-opacity="0.0"><rect width="9.999999999999998e-2" height="9.999999999999998e-2" x="-0.5" y="-0.5" /></g><g stroke-width="0.0" stroke="#000000" fill="#666666" fill-opacity="1.0" stroke-opacity="0.0"><rect width="0.10000000000000003" height="9.999999999999998e-2" x="-0.4" y="0.4" /></g><g stroke-width="0.0" stroke="#000000" fill="#666666" fill-opacity="1.0" stroke-opacity="0.0"><rect width="0.10000000000000003" height="0.10000000000000003" x="-0.4" y="0.3" /></g><g stroke-width="0.0" stroke="#000000" fill="#666666" fill-opacity="1.0" stroke-opacity="0.0"><rect width="0.10000000000000003" height="0.10000000000000003" x="-0.4" y="0.19999999999999996" /></g><g stroke-width="0.0" stroke="#000000" fill="#656A6D" fill-opacity="1.0" stroke-opacity="0.0"><rect width="0.10000000000000003" height="9.999999999999998e-2" x="-0.4" y="9.999999999999998e-2" /></g><g stroke-width="0.0" stroke="#000000" fill="#656E74" fill-opacity="1.0" stroke-opacity="0.0"><rect width="0.10000000000000003" height="9.999999999999998e-2" x="-0.4" /></g><g stroke-width="0.0" stroke="#000000" fill="#64717B" fill-opacity="1.0" stroke-opacity="0.0"><rect width="0.10000000000000003" height="0.10000000000000009" x="-0.4" y="-0.10000000000000009" /></g><g stroke-width="0.0" stroke="#000000" fill="#656E74" fill-opacity="1.0" stroke-opacity="0.0"><rect width="0.10000000000000003" height="9.999999999999998e-2" x="-0.4" y="-0.20000000000000007" /></g><g stroke-width="0.0" stroke="#000000" fill="#647582" fill-opacity="1.0" stroke-opacity="0.0"><rect width="0.10000000000000003" height="9.999999999999998e-2" x="-0.4" y="-0.30000000000000004" /></g><g stroke-width="0.0" stroke="#000000" fill="#637B8D" fill-opacity="1.0" stroke-opacity="0.0"><rect width="0.10000000000000003" height="9.999999999999998e-2" x="-0.4" y="-0.4" /></g><g stroke-width="0.0" stroke="#000000" fill="#647786" fill-opacity="1.0" stroke-opacity="0.0"><rect width="0.10000000000000003" height="9.999999999999998e-2" x="-0.4" y="-0.5" /></g><g stroke-width="0.0" stroke="#000000" fill="#666666" fill-opacity="1.0" stroke-opacity="0.0"><rect width="0.10000000000000003" height="9.999999999999998e-2" x="-0.3" y="0.4" /></g><g stroke-width="0.0" stroke="#000000" fill="#66686A" fill-opacity="1.0" stroke-opacity="0.0"><rect width="0.10000000000000003" height="0.10000000000000003" x="-0.3" y="0.3" /></g><g stroke-width="0.0" stroke="#000000" fill="#666666" fill-opacity="1.0" stroke-opacity="0.0"><rect width="0.10000000000000003" height="0.10000000000000003" x="-0.3" y="0.19999999999999996" /></g><g stroke-width="0.0" stroke="#000000" fill="#64717B" fill-opacity="1.0" stroke-opacity="0.0"><rect width="0.10000000000000003" height="9.999999999999998e-2" x="-0.3" y="9.999999999999998e-2" /></g><g stroke-width="0.0" stroke="#000000" fill="#647582" fill-opacity="1.0" stroke-opacity="0.0"><rect width="0.10000000000000003" height="9.999999999999998e-2" x="-0.3" /></g><g stroke-width="0.0" stroke="#000000" fill="#656A6D" fill-opacity="1.0" stroke-opacity="0.0"><rect width="0.10000000000000003" height="0.10000000000000009" x="-0.3" y="-0.10000000000000009" /></g><g stroke-width="0.0" stroke="#000000" fill="#656C71" fill-opacity="1.0" stroke-opacity="0.0"><rect width="0.10000000000000003" height="9.999999999999998e-2" x="-0.3" y="-0.20000000000000007" /></g><g stroke-width="0.0" stroke="#000000" fill="#657078" fill-opacity="1.0" stroke-opacity="0.0"><rect width="0.10000000000000003" height="9.999999999999998e-2" x="-0.3" y="-0.30000000000000004" /></g><g stroke-width="0.0" stroke="#000000" fill="#62839B" fill-opacity="1.0" stroke-opacity="0.0"><rect width="0.10000000000000003" height="9.999999999999998e-2" x="-0.3" y="-0.4" /></g><g stroke-width="0.0" stroke="#000000" fill="#66686A" fill-opacity="1.0" stroke-opacity="0.0"><rect width="0.10000000000000003" height="9.999999999999998e-2" x="-0.3" y="-0.5" /></g><g stroke-width="0.0" stroke="#000000" fill="#666666" fill-opacity="1.0" stroke-opacity="0.0"><rect width="9.999999999999998e-2" height="9.999999999999998e-2" x="-0.19999999999999996" y="0.4" /></g><g stroke-width="0.0" stroke="#000000" fill="#66686A" fill-opacity="1.0" stroke-opacity="0.0"><rect width="9.999999999999998e-2" height="0.10000000000000003" x="-0.19999999999999996" y="0.3" /></g><g stroke-width="0.0" stroke="#000000" fill="#66686A" fill-opacity="1.0" stroke-opacity="0.0"><rect width="9.999999999999998e-2" height="0.10000000000000003" x="-0.19999999999999996" y="0.19999999999999996" /></g><g stroke-width="0.0" stroke="#000000" fill="#656C71" fill-opacity="1.0" stroke-opacity="0.0"><rect width="9.999999999999998e-2" height="9.999999999999998e-2" x="-0.19999999999999996" y="9.999999999999998e-2" /></g><g stroke-width="0.0" stroke="#000000" fill="#637D90" fill-opacity="1.0" stroke-opacity="0.0"><rect width="9.999999999999998e-2" height="9.999999999999998e-2" x="-0.19999999999999996" /></g><g stroke-width="0.0" stroke="#000000" fill="#657078" fill-opacity="1.0" stroke-opacity="0.0"><rect width="9.999999999999998e-2" height="0.10000000000000009" x="-0.19999999999999996" y="-0.10000000000000009" /></g><g stroke-width="0.0" stroke="#000000" fill="#656E74" fill-opacity="1.0" stroke-opacity="0.0"><rect width="9.999999999999998e-2" height="9.999999999999998e-2" x="-0.19999999999999996" y="-0.20000000000000007" /></g><g stroke-width="0.0" stroke="#000000" fill="#647786" fill-opacity="1.0" stroke-opacity="0.0"><rect width="9.999999999999998e-2" height="9.999999999999998e-2" x="-0.19999999999999996" y="-0.30000000000000004" /></g><g stroke-width="0.0" stroke="#000000" fill="#637989" fill-opacity="1.0" stroke-opacity="0.0"><rect width="9.999999999999998e-2" height="9.999999999999998e-2" x="-0.19999999999999996" y="-0.4" /></g><g stroke-width="0.0" stroke="#000000" fill="#666666" fill-opacity="1.0" stroke-opacity="0.0"><rect width="9.999999999999998e-2" height="9.999999999999998e-2" x="-0.19999999999999996" y="-0.5" /></g><g stroke-width="0.0" stroke="#000000" fill="#666666" fill-opacity="1.0" stroke-opacity="0.0"><rect width="9.999999999999998e-2" height="9.999999999999998e-2" x="-9.999999999999998e-2" y="0.4" /></g><g stroke-width="0.0" stroke="#000000" fill="#66686A" fill-opacity="1.0" stroke-opacity="0.0"><rect width="9.999999999999998e-2" height="0.10000000000000003" x="-9.999999999999998e-2" y="0.3" /></g><g stroke-width="0.0" stroke="#000000" fill="#656C71" fill-opacity="1.0" stroke-opacity="0.0"><rect width="9.999999999999998e-2" height="0.10000000000000003" x="-9.999999999999998e-2" y="0.19999999999999996" /></g><g stroke-width="0.0" stroke="#000000" fill="#656E74" fill-opacity="1.0" stroke-opacity="0.0"><rect width="9.999999999999998e-2" height="9.999999999999998e-2" x="-9.999999999999998e-2" y="9.999999999999998e-2" /></g><g stroke-width="0.0" stroke="#000000" fill="#627F94" fill-opacity="1.0" stroke-opacity="0.0"><rect width="9.999999999999998e-2" height="9.999999999999998e-2" x="-9.999999999999998e-2" /></g><g stroke-width="0.0" stroke="#000000" fill="#656A6D" fill-opacity="1.0" stroke-opacity="0.0"><rect width="9.999999999999998e-2" height="0.10000000000000009" x="-9.999999999999998e-2" y="-0.10000000000000009" /></g><g stroke-width="0.0" stroke="#000000" fill="#656A6D" fill-opacity="1.0" stroke-opacity="0.0"><rect width="9.999999999999998e-2" height="9.999999999999998e-2" x="-9.999999999999998e-2" y="-0.20000000000000007" /></g><g stroke-width="0.0" stroke="#000000" fill="#657078" fill-opacity="1.0" stroke-opacity="0.0"><rect width="9.999999999999998e-2" height="9.999999999999998e-2" x="-9.999999999999998e-2" y="-0.30000000000000004" /></g><g stroke-width="0.0" stroke="#000000" fill="#66686A" fill-opacity="1.0" stroke-opacity="0.0"><rect width="9.999999999999998e-2" height="9.999999999999998e-2" x="-9.999999999999998e-2" y="-0.4" /></g><g stroke-width="0.0" stroke="#000000" fill="#666666" fill-opacity="1.0" stroke-opacity="0.0"><rect width="9.999999999999998e-2" height="9.999999999999998e-2" x="-9.999999999999998e-2" y="-0.5" /></g><g stroke-width="0.0" stroke="#000000" fill="#666666" fill-opacity="1.0" stroke-opacity="0.0"><rect width="0.10000000000000009" height="9.999999999999998e-2" y="0.4" /></g><g stroke-width="0.0" stroke="#000000" fill="#66686A" fill-opacity="1.0" stroke-opacity="0.0"><rect width="0.10000000000000009" height="0.10000000000000003" y="0.3" /></g><g stroke-width="0.0" stroke="#000000" fill="#656C71" fill-opacity="1.0" stroke-opacity="0.0"><rect width="0.10000000000000009" height="0.10000000000000003" y="0.19999999999999996" /></g><g stroke-width="0.0" stroke="#000000" fill="#618AA9" fill-opacity="1.0" stroke-opacity="0.0"><rect width="0.10000000000000009" height="9.999999999999998e-2" y="9.999999999999998e-2" /></g><g stroke-width="0.0" stroke="#000000" fill="#62839B" fill-opacity="1.0" stroke-opacity="0.0"><rect width="0.10000000000000009" height="9.999999999999998e-2" /></g><g stroke-width="0.0" stroke="#000000" fill="#637989" fill-opacity="1.0" stroke-opacity="0.0"><rect width="0.10000000000000009" height="0.10000000000000009" y="-0.10000000000000009" /></g><g stroke-width="0.0" stroke="#000000" fill="#656E74" fill-opacity="1.0" stroke-opacity="0.0"><rect width="0.10000000000000009" height="9.999999999999998e-2" y="-0.20000000000000007" /></g><g stroke-width="0.0" stroke="#000000" fill="#666666" fill-opacity="1.0" stroke-opacity="0.0"><rect width="0.10000000000000009" height="9.999999999999998e-2" y="-0.30000000000000004" /></g><g stroke-width="0.0" stroke="#000000" fill="#66686A" fill-opacity="1.0" stroke-opacity="0.0"><rect width="0.10000000000000009" height="9.999999999999998e-2" y="-0.4" /></g><g stroke-width="0.0" stroke="#000000" fill="#666666" fill-opacity="1.0" stroke-opacity="0.0"><rect width="0.10000000000000009" height="9.999999999999998e-2" y="-0.5" /></g><g stroke-width="0.0" stroke="#000000" fill="#666666" fill-opacity="1.0" stroke-opacity="0.0"><rect width="9.999999999999998e-2" height="9.999999999999998e-2" x="0.10000000000000009" y="0.4" /></g><g stroke-width="0.0" stroke="#000000" fill="#637B8D" fill-opacity="1.0" stroke-opacity="0.0"><rect width="9.999999999999998e-2" height="0.10000000000000003" x="0.10000000000000009" y="0.3" /></g><g stroke-width="0.0" stroke="#000000" fill="#647786" fill-opacity="1.0" stroke-opacity="0.0"><rect width="9.999999999999998e-2" height="0.10000000000000003" x="0.10000000000000009" y="0.19999999999999996" /></g><g stroke-width="0.0" stroke="#000000" fill="#5F94BA" fill-opacity="1.0" stroke-opacity="0.0"><rect width="9.999999999999998e-2" height="9.999999999999998e-2" x="0.10000000000000009" y="9.999999999999998e-2" /></g><g stroke-width="0.0" stroke="#000000" fill="#657078" fill-opacity="1.0" stroke-opacity="0.0"><rect width="9.999999999999998e-2" height="9.999999999999998e-2" x="0.10000000000000009" /></g><g stroke-width="0.0" stroke="#000000" fill="#656E74" fill-opacity="1.0" stroke-opacity="0.0"><rect width="9.999999999999998e-2" height="0.10000000000000009" x="0.10000000000000009" y="-0.10000000000000009" /></g><g stroke-width="0.0" stroke="#000000" fill="#64717B" fill-opacity="1.0" stroke-opacity="0.0"><rect width="9.999999999999998e-2" height="9.999999999999998e-2" x="0.10000000000000009" y="-0.20000000000000007" /></g><g stroke-width="0.0" stroke="#000000" fill="#656E74" fill-opacity="1.0" stroke-opacity="0.0"><rect width="9.999999999999998e-2" height="9.999999999999998e-2" x="0.10000000000000009" y="-0.30000000000000004" /></g><g stroke-width="0.0" stroke="#000000" fill="#666666" fill-opacity="1.0" stroke-opacity="0.0"><rect width="9.999999999999998e-2" height="9.999999999999998e-2" x="0.10000000000000009" y="-0.4" /></g><g stroke-width="0.0" stroke="#000000" fill="#666666" fill-opacity="1.0" stroke-opacity="0.0"><rect width="9.999999999999998e-2" height="9.999999999999998e-2" x="0.10000000000000009" y="-0.5" /></g><g stroke-width="0.0" stroke="#000000" fill="#656E74" fill-opacity="1.0" stroke-opacity="0.0"><rect width="9.999999999999998e-2" height="9.999999999999998e-2" x="0.20000000000000007" y="0.4" /></g><g stroke-width="0.0" stroke="#000000" fill="#637D90" fill-opacity="1.0" stroke-opacity="0.0"><rect width="9.999999999999998e-2" height="0.10000000000000003" x="0.20000000000000007" y="0.3" /></g><g stroke-width="0.0" stroke="#000000" fill="#618AA9" fill-opacity="1.0" stroke-opacity="0.0"><rect width="9.999999999999998e-2" height="0.10000000000000003" x="0.20000000000000007" y="0.19999999999999996" /></g><g stroke-width="0.0" stroke="#000000" fill="#657078" fill-opacity="1.0" stroke-opacity="0.0"><rect width="9.999999999999998e-2" height="9.999999999999998e-2" x="0.20000000000000007" y="9.999999999999998e-2" /></g><g stroke-width="0.0" stroke="#000000" fill="#656C71" fill-opacity="1.0" stroke-opacity="0.0"><rect width="9.999999999999998e-2" height="9.999999999999998e-2" x="0.20000000000000007" /></g><g stroke-width="0.0" stroke="#000000" fill="#66686A" fill-opacity="1.0" stroke-opacity="0.0"><rect width="9.999999999999998e-2" height="0.10000000000000009" x="0.20000000000000007" y="-0.10000000000000009" /></g><g stroke-width="0.0" stroke="#000000" fill="#666666" fill-opacity="1.0" stroke-opacity="0.0"><rect width="9.999999999999998e-2" height="9.999999999999998e-2" x="0.20000000000000007" y="-0.20000000000000007" /></g><g stroke-width="0.0" stroke="#000000" fill="#666666" fill-opacity="1.0" stroke-opacity="0.0"><rect width="9.999999999999998e-2" height="9.999999999999998e-2" x="0.20000000000000007" y="-0.30000000000000004" /></g><g stroke-width="0.0" stroke="#000000" fill="#656A6D" fill-opacity="1.0" stroke-opacity="0.0"><rect width="9.999999999999998e-2" height="9.999999999999998e-2" x="0.20000000000000007" y="-0.4" /></g><g stroke-width="0.0" stroke="#000000" fill="#666666" fill-opacity="1.0" stroke-opacity="0.0"><rect width="9.999999999999998e-2" height="9.999999999999998e-2" x="0.20000000000000007" y="-0.5" /></g><g stroke-width="0.0" stroke="#000000" fill="#64717B" fill-opacity="1.0" stroke-opacity="0.0"><rect width="9.999999999999998e-2" height="9.999999999999998e-2" x="0.30000000000000004" y="0.4" /></g><g stroke-width="0.0" stroke="#000000" fill="#6188A5" fill-opacity="1.0" stroke-opacity="0.0"><rect width="9.999999999999998e-2" height="0.10000000000000003" x="0.30000000000000004" y="0.3" /></g><g stroke-width="0.0" stroke="#000000" fill="#618AA9" fill-opacity="1.0" stroke-opacity="0.0"><rect width="9.999999999999998e-2" height="0.10000000000000003" x="0.30000000000000004" y="0.19999999999999996" /></g><g stroke-width="0.0" stroke="#000000" fill="#66686A" fill-opacity="1.0" stroke-opacity="0.0"><rect width="9.999999999999998e-2" height="9.999999999999998e-2" x="0.30000000000000004" y="9.999999999999998e-2" /></g><g stroke-width="0.0" stroke="#000000" fill="#656A6D" fill-opacity="1.0" stroke-opacity="0.0"><rect width="9.999999999999998e-2" height="9.999999999999998e-2" x="0.30000000000000004" /></g><g stroke-width="0.0" stroke="#000000" fill="#66686A" fill-opacity="1.0" stroke-opacity="0.0"><rect width="9.999999999999998e-2" height="0.10000000000000009" x="0.30000000000000004" y="-0.10000000000000009" /></g><g stroke-width="0.0" stroke="#000000" fill="#66686A" fill-opacity="1.0" stroke-opacity="0.0"><rect width="9.999999999999998e-2" height="9.999999999999998e-2" x="0.30000000000000004" y="-0.20000000000000007" /></g><g stroke-width="0.0" stroke="#000000" fill="#666666" fill-opacity="1.0" stroke-opacity="0.0"><rect width="9.999999999999998e-2" height="9.999999999999998e-2" x="0.30000000000000004" y="-0.30000000000000004" /></g><g stroke-width="0.0" stroke="#000000" fill="#666666" fill-opacity="1.0" stroke-opacity="0.0"><rect width="9.999999999999998e-2" height="9.999999999999998e-2" x="0.30000000000000004" y="-0.4" /></g><g stroke-width="0.0" stroke="#000000" fill="#666666" fill-opacity="1.0" stroke-opacity="0.0"><rect width="9.999999999999998e-2" height="9.999999999999998e-2" x="0.30000000000000004" y="-0.5" /></g><g stroke-width="0.0" stroke="#000000" fill="#5DA5DA" fill-opacity="1.0" stroke-opacity="0.0"><rect width="9.999999999999998e-2" height="9.999999999999998e-2" x="0.4" y="0.4" /></g><g stroke-width="0.0" stroke="#000000" fill="#618AA9" fill-opacity="1.0" stroke-opacity="0.0"><rect width="9.999999999999998e-2" height="0.10000000000000003" x="0.4" y="0.3" /></g><g stroke-width="0.0" stroke="#000000" fill="#656E74" fill-opacity="1.0" stroke-opacity="0.0"><rect width="9.999999999999998e-2" height="0.10000000000000003" x="0.4" y="0.19999999999999996" /></g><g stroke-width="0.0" stroke="#000000" fill="#666666" fill-opacity="1.0" stroke-opacity="0.0"><rect width="9.999999999999998e-2" height="9.999999999999998e-2" x="0.4" y="9.999999999999998e-2" /></g><g stroke-width="0.0" stroke="#000000" fill="#656A6D" fill-opacity="1.0" stroke-opacity="0.0"><rect width="9.999999999999998e-2" height="9.999999999999998e-2" x="0.4" /></g><g stroke-width="0.0" stroke="#000000" fill="#657078" fill-opacity="1.0" stroke-opacity="0.0"><rect width="9.999999999999998e-2" height="0.10000000000000009" x="0.4" y="-0.10000000000000009" /></g><g stroke-width="0.0" stroke="#000000" fill="#656A6D" fill-opacity="1.0" stroke-opacity="0.0"><rect width="9.999999999999998e-2" height="9.999999999999998e-2" x="0.4" y="-0.20000000000000007" /></g><g stroke-width="0.0" stroke="#000000" fill="#666666" fill-opacity="1.0" stroke-opacity="0.0"><rect width="9.999999999999998e-2" height="9.999999999999998e-2" x="0.4" y="-0.30000000000000004" /></g><g stroke-width="0.0" stroke="#000000" fill="#666666" fill-opacity="1.0" stroke-opacity="0.0"><rect width="9.999999999999998e-2" height="9.999999999999998e-2" x="0.4" y="-0.4" /></g><g stroke-width="0.0" stroke="#000000" fill="#666666" fill-opacity="1.0" stroke-opacity="0.0"><rect width="9.999999999999998e-2" height="9.999999999999998e-2" x="0.4" y="-0.5" /></g><g stroke-width="1.3999999999999999e-2" stroke="#3764A0" fill="#FFFFFF" fill-opacity="1.0" stroke-opacity="0.5"><rect width="0.21000000000000008" height="0.535325" x="0.5984999999999999" y="-0.39816558295865534" /></g><g stroke-width="0.0" stroke="none" fill="#666666" fill-opacity="1.0" font-size="3.4999999999999996e-2" text-anchor="start"><text x="0.717521" y="8.378441704134465e-2">0</text></g><g stroke-width="0.0" stroke="none" fill="#666666" fill-opacity="1.0" font-size="3.4999999999999996e-2" text-anchor="start"><text x="0.717521" y="-2.2276189019261414e-2">10</text></g><g stroke-width="0.0" stroke="none" fill="#666666" fill-opacity="1.0" font-size="3.4999999999999996e-2" text-anchor="start"><text x="0.717521" y="-0.12833679507986745">20</text></g><g stroke-width="0.0" stroke="none" fill="#666666" fill-opacity="1.0" font-size="3.4999999999999996e-2" text-anchor="start"><text x="0.717521" y="-0.23439740114047347">30</text></g><g stroke-width="0.0" stroke="#2C429D" fill="#000000" fill-opacity="1.0" stroke-opacity="0.4"><line stroke-width="2.0e-3" transform="rotate(-90.0, 0.6755, 7.363441704134466e-2)" x1="0.6755" y1="8.413441704134465e-2" x2="0.6755" y2="6.313441704134466e-2" /><line stroke-width="2.0e-3" transform="rotate(-90.0, 0.6755, -3.2426189019261406e-2)" x1="0.6755" y1="-2.1926189019261407e-2" x2="0.6755" y2="-4.29261890192614e-2" /><line stroke-width="2.0e-3" transform="rotate(-90.0, 0.6755, -0.13848679507986747)" x1="0.6755" y1="-0.12798679507986746" x2="0.6755" y2="-0.14898679507986748" /><line stroke-width="2.0e-3" transform="rotate(-90.0, 0.6755, -0.24454740114047352)" x1="0.6755" y1="-0.2340474011404735" x2="0.6755" y2="-0.25504740114047353" /></g><g stroke-width="0.0" stroke="#000000" fill="url(#pixel)" stroke-opacity="0.0"><rect width="3.500000000000003e-2" height="0.35" x="0.6335" y="-0.2763655829586553" /></g><g stroke-width="0.0" stroke="none" fill="#666666" fill-opacity="1.0" font-size="5.5999999999999994e-2" text-anchor="start"><text x="0.6335" y="-0.31136558295865535">count</text></g><g /></svg>