<svg viewBox="-1.0375 -0.6585 2.0625 1.2934999999999999" xmlns="http://www.w3.org/2000/svg" xmlns:xlink="http://www.w3.org/1999/xlink" version="1.1" width="300.0" height="200.0"><g stroke-width="0.0" stroke="none" fill="#000000" transform="translate(-6.250000000000089e-3, -0.5475)" fill-opacity="1.0" font-size="0.12" text-anchor="middle"><text transform="rotate(0.0, 0.0, -0.0)" x="0.0" y="-0.0">daily return (all series)</text></g><g stroke-width="0.0" stroke="#000000" fill="#666666" fill-opacity="3.0e-2" stroke-opacity="0.0"><rect width="2.0" height="1.0" x="-1.0" y="-0.5" /></g><g stroke-width="5.0e-3" stroke="#A8E5EE" fill="none" stroke-opacity="0.3"><polyline points="-1.0,0.505 -1.0,-0.505" /></g><g stroke-width="5.0e-3" stroke="#A8E5EE" fill="none" stroke-opacity="0.3"><polyline points="-0.75,0.505 -0.75,-0.505" /></g><g stroke-width="5.0e-3" stroke="#A8E5EE" fill="none" stroke-opacity="0.3"><polyline points="-0.5,0.505 -0.5,-0.505" /></g><g stroke-width="5.0e-3" stroke="#A8E5EE" fill="none" stroke-opacity="0.3"><polyline points="-0.25,0.505 -0.25,-0.505" /></g><g stroke-width="5.0e-3" stroke="#A8E5EE" fill="none" stroke-opacity="0.3"><polyline points="0.0,0.505 0.0,-0.505" /></g><g stroke-width="5.0e-3" stroke="#A8E5EE" fill="none" stroke-opacity="0.3"><polyline points="0.25,0.505 0.25,-0.505" /></g><g stroke-width="5.0e-3" stroke="#A8E5EE" fill="none" stroke-opacity="0.3"><polyline points="0.5,0.505 0.5,-0.505" /></g><g stroke-width="5.0e-3" stroke="#A8E5EE" fill="none" stroke-opacity="0.3"><polyline points="0.7500000000000002,0.505 0.7500000000000002,-0.505" /></g><g stroke-width="5.0e-3" stroke="#A8E5EE" fill="none" stroke-opacity="0.3"><polyline points="1.0,0.505 1.0,-0.505" /></g><g stroke-width="0.0" stroke="none" fill="#666666" fill-opacity="1.0" font-size="5.0e-2" text-anchor="middle"><text x="-1.0" y="0.60875">-4%</text></g><g stroke-width="0.0" stroke="none" fill="#666666" fill-opacity="1.0" font-size="5.0e-2" text-anchor="middle"><text x="-0.75" y="0.60875">-3%</text></g><g stroke-width="0.0" stroke="none" fill="#666666" fill-opacity="1.0" font-size="5.0e-2" text-anchor="middle"><text x="-0.5" y="0.60875">-2%</text></g><g stroke-width="0.0" stroke="none" fill="#666666" fill-opacity="1.0" font-size="5.0e-2" text-anchor="middle"><text x="-0.25" y="0.60875">-1%</text></g><g stroke-width="0.0" stroke="none" fill="#666666" fill-opacity="1.0" font-size="5.0e-2" text-anchor="middle"><text x="0.0" y="0.60875">0%</text></g><g stroke-width="0.0" stroke="none" fill="#666666" fill-opacity="1.0" font-size="5.0e-2" text-anchor="middle"><text x="0.25" y="0.60875">1%</text></g><g stroke-width="0.0" stroke="none" fill="#666666" fill-opacity="1.0" font-size="5.0e-2" text-anchor="middle"><text x="0.5" y="0.60875">2%</text></g><g stroke-width="0.0" stroke="none" fill="#666666" fill-opacity="1.0" font-size="5.0e-2" text-anchor="middle"><text x="0.7500000000000002" y="0.60875">3%</text></g><g stroke-width="0.0" stroke="none" fill="#666666" fill-opacity="1.0" font-size="5.0e-2" text-anchor="middle"><text x="1.0" y="0.60875">4%</text></g><g stroke-width="0.0" stroke="#2C429D" fill="#5F0391" fill-opacity="1.0" stroke-opacity="0.4"><line stroke-width="5.0e-3" x1="-1.0" y1="0.5425" x2="-1.0" y2="0.5125" /><line stroke-width="5.0e-3" x1="-0.75" y1="0.5425" x2="-0.75" y2="0.5125" /><line stroke-width="5.0e-3" x1="-0.5" y1="0.5425" x2="-0.5" y2="0.5125" /><line stroke-width="5.0e-3" x1="-0.25" y1="0.5425" x2="-0.25" y2="0.5125" /><line stroke-width="5.0e-3" y1="0.5425" y2="0.5125" /><line stroke-width="5.0e-3" x1="0.25" y1="0.5425" x2="0.25" y2="0.5125" /><line stroke-width="5.0e-3" x1="0.5" y1="0.5425" x2="0.5" y2="0.5125" /><line stroke-width="5.0e-3" x1="0.7500000000000002" y1="0.5425" x2="0.7500000000000002" y2="0.5125" /><line stroke-width="5.0e-3" x1="1.0" y1="0.5425" x2="1.0" y2="0.5125" /></g><g stroke-width="0.0" stroke="#666666" fill="#5F0391" fill-opacity="0.5" stroke-opacity="0.0"><rect width="2.0" height="5.0000000000000044e-3" x="-1.0" y="0.5125" /></g><g stroke-width="5.0e-3" stroke="#666666" fill="#FF0000" fill-opacity="0.5" stroke-opacity="0.5"><rect width="7.499999999999996e-2" height="4.0816326530612235e-2" x="-0.825" y="0.45918367346938777" /><rect width="7.499999999999996e-2" height="2.0408163265306145e-2" x="-0.75" y="0.47959183673469385" /><rect width="7.500000000000007e-2" height="4.081632653061229e-2" x="-0.675" y="0.4591836734693877" /><rect width="7.500000000000007e-2" height="4.0816326530612235e-2" x="-0.6" y="0.45918367346938777" /><rect width="7.499999999999996e-2" height="8.163265306122458e-2" x="-0.5249999999999999" y="0.4183673469387754" /><rect width="7.499999999999996e-2" height="9.183673469387765e-2" x="-0.44999999999999996" y="0.40816326530612235" /><rect width="7.500000000000007e-2" height="0.10204081632653061" x="-0.375" y="0.3979591836734694" /><rect width="7.500000000000007e-2" height="0.10204081632653073" x="-0.29999999999999993" y="0.3979591836734693" /><rect width="7.499999999999996e-2" height="0.35714285714285754" x="-0.22499999999999987" y="0.14285714285714246" /><rect width="7.500000000000007e-2" height="0.4489795918367352" x="-0.1499999999999999" y="5.102040816326481e-2" /><rect width="7.499999999999984e-2" height="0.9387755102040827" x="-7.499999999999984e-2" y="-0.4387755102040827" /><rect width="7.500000000000018e-2" height="1.0" y="-0.5" /><rect width="7.499999999999996e-2" height="0.6224489795918366" x="7.500000000000018e-2" y="-0.12244897959183665" /><rect width="7.499999999999996e-2" height="0.602040816326532" x="0.15000000000000013" y="-0.10204081632653195" /><rect width="7.499999999999996e-2" height="0.30612244897959184" x="0.2250000000000001" y="0.19387755102040816" /><rect width="7.499999999999996e-2" height="0.1530612244897963" x="0.30000000000000004" y="0.3469387755102037" /><rect width="7.500000000000018e-2" height="6.122448979591838e-2" x="0.375" y="0.4387755102040816" /><rect width="7.499999999999996e-2" height="3.0612244897959162e-2" x="0.4500000000000002" y="0.46938775510204084" /><rect width="7.499999999999996e-2" height="3.0612244897959273e-2" x="0.5250000000000001" y="0.4693877551020407" /><rect width="7.499999999999996e-2" height="1.0204081632653073e-2" x="0.6000000000000001" y="0.4897959183673469" /><rect width="7.500000000000018e-2" x="0.675" y="0.5" /><rect width="7.499999999999996e-2" height="2.0408163265306145e-2" x="0.7500000000000002" y="0.47959183673469385" /></g><g /></svg>