
<svg xmlns="http://www.w3.org/2000/svg" height="300.0" viewBox="-0.9104277680948124 -0.7283312039844088 1.7014318670455961 1.461347121816856" width="450.0" xmlns:xlink="http://www.w3.org/1999/xlink">
  <g transform="translate(-8.219640591007693e-2, -0.57175)" fill-opacity="1.0" font-size="8.0e-2" stroke="none" stroke-width="0.0" fill="#000000" text-anchor="middle">
    <text transform="rotate(0.0, -0.14087383487083993, -6.25812039844088e-2)" x="-0.14087383487083993" y="-6.25812039844088e-2">moving average return
    </text>
  </g>
  <g stroke-opacity="0.0" fill-opacity="3.0e-2" stroke="#000000" stroke-width="0.0" fill="#666666">
    <rect height="0.8661758336942399" width="1.1519299626582706" x="-0.7168388161999752" y="-0.4956691208315287"/>
  </g>
  <g stroke-opacity="0.3" stroke="#a8e5ee" stroke-width="5.0e-3" fill="none">
    <polyline points="-0.7145349562746587,0.3748375920311824
-0.7145349562746587,-0.5"/>
  </g>
  <g stroke-opacity="0.3" stroke="#a8e5ee" stroke-width="5.0e-3" fill="none">
    <polyline points="-0.6638500379176948,0.3748375920311824
-0.6638500379176948,-0.5"/>
  </g>
  <g stroke-opacity="0.3" stroke="#a8e5ee" stroke-width="5.0e-3" fill="none">
    <polyline points="-0.5164030026974362,0.3748375920311824
-0.5164030026974362,-0.5"/>
  </g>
  <g stroke-opacity="0.3" stroke="#a8e5ee" stroke-width="5.0e-3" fill="none">
    <polyline points="-0.371259827402494,0.3748375920311824
-0.371259827402494,-0.5"/>
  </g>
  <g stroke-opacity="0.3" stroke="#a8e5ee" stroke-width="5.0e-3" fill="none">
    <polyline points="-0.22611665210755194,0.3748375920311824
-0.22611665210755194,-0.5"/>
  </g>
  <g stroke-opacity="0.3" stroke="#a8e5ee" stroke-width="5.0e-3" fill="none">
    <polyline points="-8.558119666324293e-2,0.3748375920311824
-8.558119666324293e-2,-0.5"/>
  </g>
  <g stroke-opacity="0.3" stroke="#a8e5ee" stroke-width="5.0e-3" fill="none">
    <polyline points="5.956197863169921e-2,0.3748375920311824
5.956197863169921e-2,-0.5"/>
  </g>
  <g stroke-opacity="0.3" stroke="#a8e5ee" stroke-width="5.0e-3" fill="none">
    <polyline points="0.2070090138519578,0.3748375920311824
0.2070090138519578,-0.5"/>
  </g>
  <g stroke-opacity="0.3" stroke="#a8e5ee" stroke-width="5.0e-3" fill="none">
    <polyline points="0.3544560490722164,0.3748375920311824
0.3544560490722164,-0.5"/>
  </g>
  <g stroke-opacity="0.3" stroke="#a8e5ee" stroke-width="5.0e-3" fill="none">
    <polyline points="0.4350911464582954,0.3748375920311824
0.4350911464582954,-0.5"/>
  </g>
  <g fill-opacity="1.0" font-size="5.0e-2" stroke="none" stroke-width="0.0" fill="#666666" text-anchor="end">
    <text transform="rotate(-45.0, -0.7145349562746587, 0.5)" x="-0.7145349562746587" y="0.5">27 Feb 2018
    </text>
  </g>
  <g fill-opacity="1.0" font-size="5.0e-2" stroke="none" stroke-width="0.0" fill="#666666" text-anchor="end">
    <text transform="rotate(-45.0, -0.6638500379176948, 0.5)" x="-0.6638500379176948" y="0.5">31 Mar 2018
    </text>
  </g>
  <g fill-opacity="1.0" font-size="5.0e-2" stroke="none" stroke-width="0.0" fill="#666666" text-anchor="end">
    <text transform="rotate(-45.0, -0.5164030026974362, 0.5)" x="-0.5164030026974362" y="0.5">30 Jun 2018
    </text>
  </g>
  <g fill-opacity="1.0" font-size="5.0e-2" stroke="none" stroke-width="0.0" fill="#666666" text-anchor="end">
    <text transform="rotate(-45.0, -0.371259827402494, 0.5)" x="-0.371259827402494" y="0.5">30 Sep 2018
    </text>
  </g>
  <g fill-opacity="1.0" font-size="5.0e-2" stroke="none" stroke-width="0.0" fill="#666666" text-anchor="end">
    <text transform="rotate(-45.0, -0.22611665210755194, 0.5)" x="-0.22611665210755194" y="0.5">31 Dec 2018
    </text>
  </g>
  <g fill-opacity="1.0" font-size="5.0e-2" stroke="none" stroke-width="0.0" fill="#666666" text-anchor="end">
    <text transform="rotate(-45.0, -8.558119666324293e-2, 0.5)" x="-8.558119666324293e-2" y="0.5">31 Mar 2019
    </text>
  </g>
  <g fill-opacity="1.0" font-size="5.0e-2" stroke="none" stroke-width="0.0" fill="#666666" text-anchor="end">
    <text transform="rotate(-45.0, 5.956197863169921e-2, 0.5)" x="5.956197863169921e-2" y="0.5">30 Jun 2019
    </text>
  </g>
  <g fill-opacity="1.0" font-size="5.0e-2" stroke="none" stroke-width="0.0" fill="#666666" text-anchor="end">
    <text transform="rotate(-45.0, 0.2070090138519578, 0.5)" x="0.2070090138519578" y="0.5">30 Sep 2019
    </text>
  </g>
  <g fill-opacity="1.0" font-size="5.0e-2" stroke="none" stroke-width="0.0" fill="#666666" text-anchor="end">
    <text transform="rotate(-45.0, 0.3544560490722164, 0.5)" x="0.3544560490722164" y="0.5">31 Dec 2019
    </text>
  </g>
  <g fill-opacity="1.0" font-size="5.0e-2" stroke="none" stroke-width="0.0" fill="#666666" text-anchor="end">
    <text transform="rotate(-45.0, 0.4350911464582954, 0.5)" x="0.4350911464582954" y="0.5">21 Feb 2020
    </text>
  </g>
  <g stroke-opacity="0.4" fill-opacity="1.0" stroke="#2c429d" stroke-width="5.0e-3" fill="#5f0391">
    <polyline points="-0.7145349562746587,0.4424577739281074
-0.7145349562746587,0.4124577739281074"/>
    <polyline points="-0.6638500379176948,0.4424577739281074
-0.6638500379176948,0.4124577739281074"/>
    <polyline points="-0.5164030026974362,0.4424577739281074
-0.5164030026974362,0.4124577739281074"/>
    <polyline points="-0.371259827402494,0.4424577739281074
-0.371259827402494,0.4124577739281074"/>
    <polyline points="-0.22611665210755194,0.4424577739281074
-0.22611665210755194,0.4124577739281074"/>
    <polyline points="-8.558119666324293e-2,0.4424577739281074
-8.558119666324293e-2,0.4124577739281074"/>
    <polyline points="5.956197863169921e-2,0.4424577739281074
5.956197863169921e-2,0.4124577739281074"/>
    <polyline points="0.2070090138519578,0.4424577739281074
0.2070090138519578,0.4124577739281074"/>
    <polyline points="0.3544560490722164,0.4424577739281074
0.3544560490722164,0.4124577739281074"/>
    <polyline points="0.4350911464582954,0.4424577739281074
0.4350911464582954,0.4124577739281074"/>
  </g>
  <g stroke-opacity="0.0" fill-opacity="0.5" stroke="#666666" stroke-width="0.0" fill="#5f0391">
    <rect height="4.330879168471247e-3" width="1.1519299626582706" x="-0.7168388161999752" y="0.4144651364226938"/>
  </g>
  <g stroke-opacity="0.3" stroke="#a8e5ee" stroke-width="5.0e-3" fill="none">
    <polyline points="-0.7197186411066209,0.3705067128627112
0.4379709713649409,0.3705067128627112"/>
  </g>
  <g stroke-opacity="0.3" stroke="#a8e5ee" stroke-width="5.0e-3" fill="none">
    <polyline points="-0.7197186411066209,0.2261440739136712
0.4379709713649409,0.2261440739136712"/>
  </g>
  <g stroke-opacity="0.3" stroke="#a8e5ee" stroke-width="5.0e-3" fill="none">
    <polyline points="-0.7197186411066209,8.17814349646312e-2
0.4379709713649409,8.17814349646312e-2"/>
  </g>
  <g stroke-opacity="0.3" stroke="#a8e5ee" stroke-width="5.0e-3" fill="none">
    <polyline points="-0.7197186411066209,-6.25812039844088e-2
0.4379709713649409,-6.25812039844088e-2"/>
  </g>
  <g stroke-opacity="0.3" stroke="#a8e5ee" stroke-width="5.0e-3" fill="none">
    <polyline points="-0.7197186411066209,-0.2069438429334487
0.4379709713649409,-0.2069438429334487"/>
  </g>
  <g stroke-opacity="0.3" stroke="#a8e5ee" stroke-width="5.0e-3" fill="none">
    <polyline points="-0.7197186411066209,-0.3513064818824887
0.4379709713649409,-0.3513064818824887"/>
  </g>
  <g stroke-opacity="0.3" stroke="#a8e5ee" stroke-width="5.0e-3" fill="none">
    <polyline points="-0.7197186411066209,-0.4956691208315287
0.4379709713649409,-0.4956691208315287"/>
  </g>
  <g fill-opacity="1.0" font-size="5.0e-2" stroke="none" stroke-width="0.0" fill="#666666" text-anchor="end">
    <text x="-0.75" y="0.3830662624512776">-60%
    </text>
  </g>
  <g fill-opacity="1.0" font-size="5.0e-2" stroke="none" stroke-width="0.0" fill="#666666" text-anchor="end">
    <text x="-0.75" y="0.23870362350223773">-40%
    </text>
  </g>
  <g fill-opacity="1.0" font-size="5.0e-2" stroke="none" stroke-width="0.0" fill="#666666" text-anchor="end">
    <text x="-0.75" y="9.434098455319773e-2">-20%
    </text>
  </g>
  <g fill-opacity="1.0" font-size="5.0e-2" stroke="none" stroke-width="0.0" fill="#666666" text-anchor="end">
    <text x="-0.75" y="-5.0021654395842385e-2">0%
    </text>
  </g>
  <g fill-opacity="1.0" font-size="5.0e-2" stroke="none" stroke-width="0.0" fill="#666666" text-anchor="end">
    <text x="-0.75" y="-0.19438429334488216">20%
    </text>
  </g>
  <g fill-opacity="1.0" font-size="5.0e-2" stroke="none" stroke-width="0.0" fill="#666666" text-anchor="end">
    <text x="-0.75" y="-0.3387469322939223">40%
    </text>
  </g>
  <g fill-opacity="1.0" font-size="5.0e-2" stroke="none" stroke-width="0.0" fill="#666666" text-anchor="end">
    <text x="-0.75" y="-0.4831095712429623">60%
    </text>
  </g>
  <g stroke-opacity="0.4" fill-opacity="1.0" stroke="#2c429d" stroke-width="5.0e-3" fill="#5f0391">
    <g transform="rotate(-90.0, -0.7312379407332036, 0.3705067128627112)">
      <polyline points="-0.7312379407332036,0.3855067128627112
-0.7312379407332036,0.3555067128627112"/>
    </g>
    <g transform="rotate(-90.0, -0.7312379407332036, 0.2261440739136712)">
      <polyline points="-0.7312379407332036,0.2411440739136712
-0.7312379407332036,0.21114407391367118"/>
    </g>
    <g transform="rotate(-90.0, -0.7312379407332036, 8.17814349646312e-2)">
      <polyline points="-0.7312379407332036,9.67814349646312e-2
-0.7312379407332036,6.67814349646312e-2"/>
    </g>
    <g transform="rotate(-90.0, -0.7312379407332036, -6.25812039844088e-2)">
      <polyline points="-0.7312379407332036,-4.758120398440881e-2
-0.7312379407332036,-7.75812039844088e-2"/>
    </g>
    <g transform="rotate(-90.0, -0.7312379407332036, -0.2069438429334487)">
      <polyline points="-0.7312379407332036,-0.19194384293344868
-0.7312379407332036,-0.2219438429334487"/>
    </g>
    <g transform="rotate(-90.0, -0.7312379407332036, -0.3513064818824887)">
      <polyline points="-0.7312379407332036,-0.3363064818824887
-0.7312379407332036,-0.3663064818824887"/>
    </g>
    <g transform="rotate(-90.0, -0.7312379407332036, -0.4956691208315287)">
      <polyline points="-0.7312379407332036,-0.4806691208315287
-0.7312379407332036,-0.5106691208315287"/>
    </g>
  </g>
  <g stroke-opacity="0.0" fill-opacity="0.5" stroke="#666666" stroke-width="0.0" fill="#5f0391">
    <rect height="0.8661758336942399" width="2.8798249066456227e-3" x="-0.7254782909199122" y="-0.4956691208315287"/>
  </g>
  <g stroke-opacity="0.5" stroke="#ac0505" stroke-width="2.0e-3" fill="none">
    <polyline points="-0.7145349562746587,-6.25812039844088e-2
0.4350911464582954,-6.25812039844088e-2"/>
  </g>
  <g stroke-opacity="0.5" stroke="#4b2282" stroke-width="7.0e-3" fill="none">
    <polyline points="-0.7145349562746587,-6.288034848935298e-2
-0.7122310963493421,-6.246269868356513e-2
-0.7099272364240256,-6.1984505074555885e-2
-0.707623376498709,-6.219691492399504e-2
-0.7053195165733925,-6.261210228957859e-2
-0.703015656648076,-6.270567008590477e-2
-0.7007117967227594,-6.26819792012876e-2
-0.6984079367974428,-6.283765749884784e-2
-0.6961040768721263,-6.344666052342662e-2
-0.6938002169468098,-6.3357379430249e-2
-0.6914963570214933,-6.308817111862286e-2
-0.6891924970961767,-6.28556273619334e-2
-0.6868886371708601,-6.281367476985411e-2
-0.6845847772455436,-6.286347746408472e-2
-0.6822809173202271,-6.233304934732209e-2
-0.6799770573949105,-6.239889682459754e-2
-0.677673197469594,-6.2341399946281184e-2
-0.6753693375442774,-6.1433623753676336e-2
-0.673065477618961,-6.072624864843845e-2
-0.6707616176936444,-6.1786047111072495e-2
-0.6684577577683278,-6.1196842713445165e-2
-0.6661538978430113,-6.116064288946266e-2
-0.6638500379176948,-6.1725238773821745e-2
-0.6615461779923782,-6.095272440984123e-2
-0.6592423180670617,-6.148657949790293e-2
-0.6569384581417451,-6.195635699978719e-2
-0.6546345982164286,-6.2234438586651786e-2
-0.6523307382911121,-6.145186105661926e-2
-0.6500268783657955,-6.162854600334655e-2
-0.647723018440479,-6.227487238325813e-2
-0.6454191585151624,-6.209022195538827e-2
-0.6431152985898458,-6.241132435420638e-2
-0.6408114386645294,-6.2315487468312614e-2
-0.6385075787392128,-6.262025361668533e-2
-0.6362037188138963,-6.300104517032923e-2
-0.6338998588885797,-6.301004518579223e-2
-0.6315959989632631,-6.278134955700754e-2
-0.6292921390379467,-6.246193066079475e-2
-0.6269882791126301,-6.246992370223814e-2
-0.6246844191873135,-6.1989314487355784e-2
-0.622380559261997,-6.2085148818870284e-2
-0.6200766993366804,-6.2484577828240684e-2
-0.617772839411364,-6.252957823460281e-2
-0.6154689794860474,-6.223545126299623e-2
-0.6131651195607308,-6.2344618578974e-2
-0.6108612596354144,-6.2095441958574304e-2
-0.6085573997100978,-6.2038301670565454e-2
-0.6062535397847812,-6.252487403663753e-2
-0.6039496798594648,-6.265227479049407e-2
-0.6016458199341481,-6.263913280515199e-2
-0.5993419600088317,-6.298399325255588e-2
-0.5970381000835151,-6.330047178738174e-2
-0.5947342401581985,-6.33260840978167e-2
-0.592430380232882,-6.332071173463105e-2
-0.5901265203075654,-6.303595032228748e-2
-0.587822660382249,-6.315946462708621e-2
-0.5855188004569324,-6.309964937383794e-2
-0.5832149405316158,-6.297860420794477e-2
-0.5809110806062993,-6.322434717945391e-2
-0.5786072206809827,-6.307884048787893e-2
-0.5763033607556662,-6.317100591740255e-2
-0.5739995008303497,-6.306842274839342e-2
-0.5716956409050331,-6.295888773822789e-2
-0.5693917809797165,-6.252021242080186e-2
-0.5670879210544,-6.297857727236178e-2
-0.5647840611290835,-6.270956275997075e-2
-0.562480201203767,-6.309259189306371e-2
-0.5601763412784504,-6.322833312628184e-2
-0.5578724813531338,-6.322132481414144e-2
-0.5555686214278173,-6.349720460702679e-2
-0.5532647615025008,-6.342561982731565e-2
-0.5509609015771842,-6.349603902609735e-2
-0.5486570416518677,-6.348884704713864e-2
-0.5463531817265511,-6.3506330037717e-2
-0.5440493218012346,-6.331447482509034e-2
-0.5417454618759181,-6.336690108999721e-2
-0.5394416019506015,-6.32908896477894e-2
-0.537137742025285,-6.31785903241433e-2
-0.5348338820999685,-6.30032208659772e-2
-0.5325300221746518,-6.304385995457729e-2
-0.5302261622493354,-6.279098381017156e-2
-0.5279223023240188,-6.284763078098687e-2
-0.5256184423987023,-6.233554651463491e-2
-0.5233145824733857,-6.2427306462872756e-2
-0.5210107225480691,-6.212312078485427e-2
-0.5187068626227527,-6.236833186338031e-2
-0.516403002697436,-6.240633636408244e-2
-0.5140991427721195,-6.252563485287232e-2
-0.5117952828468031,-6.234941701978414e-2
-0.5094914229214865,-6.26708034115393e-2
-0.50718756299617,-6.297112774307445e-2
-0.5048837030708534,-6.326866241122808e-2
-0.5025798431455368,-6.335942480506951e-2
-0.5002759832202204,-6.306356680856928e-2
-0.4979721232949038,-6.335383409355066e-2
-0.49566826336958725,-6.335413198407902e-2
-0.4933644034442707,-6.327836039867984e-2
-0.4910605435189542,-6.338663179249626e-2
-0.4887566835936376,-6.342425061246326e-2
-0.4864528236683211,-6.323914942636055e-2
-0.48414896374300453,-6.317200580908044e-2
-0.481845103817688,-6.3208741241914e-2
-0.47954124389237146,-6.33494994638939e-2
-0.4772373839670549,-6.363808176895758e-2
-0.47493352404173844,-6.347563405535539e-2
-0.47262966411642193,-6.319329761644066e-2
-0.47032580419110537,-6.295442135026263e-2
-0.4680219442657888,-6.311162438677931e-2
-0.46571808434047224,-6.304753684452524e-2
-0.46341422441515573,-6.320158232932249e-2
-0.46111036448983916,-6.333778703274118e-2
-0.45880650456452265,-6.342742945565227e-2
-0.4565026446392061,-6.348690112589528e-2
-0.4541987847138896,-6.343214556024179e-2
-0.45189492478857296,-6.333752995753283e-2
-0.44959106486325645,-6.304205116702521e-2
-0.44728720493793994,-6.28741395486967e-2
-0.4449833450126234,-6.308935165279328e-2
-0.4426794850873068,-6.27885289138842e-2
-0.4403756251619903,-6.30628535320038e-2
-0.4380717652366738,-6.31585056649916e-2
-0.4357679053113572,-6.321716313388936e-2
-0.43346404538604066,-6.325994291267567e-2
-0.4311601854607241,-6.32116335394668e-2
-0.4288563255354076,-6.311902161989091e-2
-0.426552465610091,-6.3315160402872e-2
-0.4242486056847745,-6.355423641865743e-2
-0.42194474575945795,-6.351530192991328e-2
-0.4196408858341414,-6.367378117749456e-2
-0.4173370259088248,-6.34589035825156e-2
-0.4150331659835083,-6.341987166180707e-2
-0.4127293060581918,-6.331818325743965e-2
-0.41042544613287524,-6.318002554596247e-2
-0.4081215862075587,-6.3018029065261e-2
-0.4058177262822421,-6.291621820570414e-2
-0.4035138663569256,-6.296789640162359e-2
-0.40121000643160903,-6.308328336913549e-2
-0.3989061465062925,-6.307104962680399e-2
-0.39660228658097596,-6.323669565274925e-2
-0.39429842665565945,-6.321386201114187e-2
-0.3919945667303429,-6.298065228106653e-2
-0.3896907068050263,-6.315393282379134e-2
-0.3873868468797098,-6.317049949407094e-2
-0.38508298695439325,-6.342290328522682e-2
-0.3827791270290768,-6.336751527072948e-2
-0.38047526710376023,-6.320109264632578e-2
-0.37817140717844366,-6.312296567787734e-2
-0.37586754725312715,-6.297696970673283e-2
-0.37356368732781053,-6.305677273454591e-2
-0.371259827402494,-6.303274634319889e-2
-0.3689559674771775,-6.314134045885478e-2
-0.36665210755186095,-6.309901398648421e-2
-0.3643482476265444,-6.309879357061243e-2
-0.3620443877012279,-6.27768611229712e-2
-0.35974052777591137,-6.256701638630546e-2
-0.3574366678505948,-6.255346293745301e-2
-0.35513280792527824,-6.25036405946523e-2
-0.35282894799996173,-6.130149924084127e-2
-0.3505250880746452,-6.061524699533338e-2
-0.34822122814932865,-6.122264819201029e-2
-0.3459173682240121,-6.107682968518935e-2
-0.3436135082986956,-6.191961834753401e-2
-0.34130964837337896,-6.194357772592385e-2
-0.3390057884480624,-6.1452271125436386e-2
-0.3367019285227459,-6.1495680554031096e-2
-0.3343980685974294,-6.139444940199079e-2
-0.3320942086721128,-6.125431129752712e-2
-0.32979034874679625,-6.018918582996957e-2
-0.32748648882147974,-6.097479358468394e-2
-0.32518262889616323,-6.04242804815297e-2
-0.32287876897084666,-6.029460651294638e-2
-0.3205749090455301,-6.096997735092591e-2
-0.3182710491202136,-6.144006079167508e-2
-0.3159671891948971,-6.187616006501662e-2
-0.3136633292695805,-6.168271582536222e-2
-0.31135946934426395,-6.192919551324694e-2
-0.30905560941894744,-6.2186993985515526e-2
-0.30675174949363093,-6.296414200433842e-2
-0.30444788956831437,-6.285433286922348e-2
-0.3021440296429978,-6.250714149692738e-2
-0.2998401697176813,-6.179270722557273e-2
-0.2975363097923648,-6.17786089366541e-2
-0.2952324498670482,-6.154458721666067e-2
-0.29292858994173165,-6.1976742608460755e-2
-0.29062473001641514,-6.208711717760984e-2
-0.28832087009109864,-6.150610614400576e-2
-0.28601701016578207,-6.0898752503375175e-2
-0.28371315024046545,-6.109254265670705e-2
-0.28140929031514894,-6.092962839765703e-2
-0.2791054303898324,-6.156847163587875e-2
-0.2768015704645158,-6.1736633317384326e-2
-0.2744977105391993,-6.25986269450668e-2
-0.2721938506138828,-6.251887986012639e-2
-0.26988999068856623,-6.281568553144534e-2
-0.26758613076324966,-6.319670007405465e-2
-0.26528227083793315,-6.197853431313727e-2
-0.26297841091261664,-6.195368771411258e-2
-0.2606745509873001,-6.113345621421451e-2
-0.2583706910619835,-6.126938494035017e-2
-0.256066831136667,-6.1322112824109154e-2
-0.2537629712113504,-6.158013274185348e-2
-0.2514591112860338,-6.162296996933303e-2
-0.24915525136071737,-6.097537090383787e-2
-0.2468513914354008,-6.029803714563742e-2
-0.24454753151008424,-6.041531361123709e-2
-0.24224367158476767,-5.996364497455964e-2
-0.2399398116594511,-5.952076049332222e-2
-0.23763595173413465,-5.892298431986187e-2
-0.2353320918088182,-5.811388676207152e-2
-0.23302823188350164,-6.0084155230917036e-2
-0.23072437195818507,-6.051672489784843e-2
-0.2284205120328685,-6.0575111478338606e-2
-0.22611665210755194,-6.098062131851212e-2
-0.22381279218223538,-6.1106402321563946e-2
-0.2215089322569188,-6.027540978133761e-2
-0.21920507233160236,-6.1609098463901724e-2
-0.2169012124062858,-6.190983222254398e-2
-0.21459735248096923,-6.229162469736116e-2
-0.21229349255565277,-6.2453702600629546e-2
-0.2099896326303362,-6.26227830802687e-2
-0.20768577270501964,-6.261542375097451e-2
-0.20538191277970308,-6.24234646451034e-2
-0.20307805285438651,-6.281624475155767e-2
-0.20077419292907006,-6.288459667576118e-2
-0.1984703330037535,-6.314237097791031e-2
-0.19616647307843693,-6.358698885313596e-2
-0.19386261315312037,-6.302210176857304e-2
-0.1915587532278038,-6.307947401466418e-2
-0.18925489330248724,-6.310417723499373e-2
-0.18695103337717067,-6.338309814932952e-2
-0.18464717345185422,-6.30586893149595e-2
-0.18234331352653765,-6.298221983892094e-2
-0.1800394536012211,-6.351903384898394e-2
-0.17773559367590464,-6.378110182135288e-2
-0.17543173375058807,-6.375352378918508e-2
-0.1731278738252714,-6.393864178040864e-2
-0.17082401389995483,-6.404030108894043e-2
-0.16852015397463838,-6.38869753729816e-2
-0.1662162940493218,-6.348239154643331e-2
-0.16391243412400536,-6.346172846441045e-2
-0.1616085741986888,-6.344328516945619e-2
-0.15930471427337234,-6.386242496283234e-2
-0.15700085434805577,-6.390733719443153e-2
-0.1546969944227392,-6.374520393343286e-2
-0.15239313449742264,-6.407750505333143e-2
-0.15008927457210608,-6.405674014017182e-2
-0.14778541464678963,-6.404704350470591e-2
-0.14548155472147306,-6.384625516675413e-2
-0.1431776947961565,-6.401364497344808e-2
-0.14087383487083993,-6.39864542887324e-2
-0.13856997494552337,-6.388765237532812e-2
-0.1362661150202068,-6.380268951814261e-2
-0.13396225509489024,-6.363949644001698e-2
-0.13165839516957378,-6.38345844348196e-2
-0.12935453524425722,-6.36315910617542e-2
-0.12705067531894065,-6.353821081000932e-2
-0.1247468153936242,-6.325413001027258e-2
-0.12244295546830763,-6.292602323021579e-2
-0.12013909554299107,-6.28317660851192e-2
-0.1178352356176745,-6.3344701230995e-2
-0.11553137569235794,-6.341295649115641e-2
-0.11322751576704149,-6.362131641286572e-2
-0.11092365584172492,-6.353796967902148e-2
-0.10861979591640836,-6.366959290032737e-2
-0.10631593599109179,-6.37486762992544e-2
-0.10401207606577523,-6.368559032378218e-2
-0.10170821614045866,-6.352395059466287e-2
-9.94043562151421e-2,-6.386637641292803e-2
-9.710049628982564e-2,-6.311073526018862e-2
-9.479663636450908e-2,-6.305396517083361e-2
-9.249277643919251e-2,-6.328862988041906e-2
-9.018891651387606e-2,-6.308525139038212e-2
-8.78850565885595e-2,-6.318936382583651e-2
-8.558119666324293e-2,-6.340118573366194e-2
-8.327733673792637e-2,-6.37753084701358e-2
-8.09734768126098e-2,-6.37162332305038e-2
-7.866961688729335e-2,-6.37369349363166e-2
-7.636575696197667e-2,-6.375430594282627e-2
-7.406189703666022e-2,-6.386259603746924e-2
-7.175803711134365e-2,-6.383631017934566e-2
-6.945417718602709e-2,-6.355390795689264e-2
-6.715031726071052e-2,-6.363057367626535e-2
-6.484645733539396e-2,-6.357948104681466e-2
-6.25425974100775e-2,-6.376731724697693e-2
-6.023873748476094e-2,-6.368529008645563e-2
-5.7934877559444375e-2,-6.36484641741607e-2
-5.563101763412792e-2,-6.351294435004406e-2
-5.332715770881136e-2,-6.352330286306418e-2
-5.10232977834949e-2,-6.351270383876528e-2
-4.871943785817834e-2,-6.378381150792867e-2
-4.641557793286177e-2,-6.364449213487333e-2
-4.411171800754521e-2,-6.357800876901476e-2
-4.1807858082228755e-2,-6.369686891755577e-2
-3.950399815691219e-2,-6.367973690301831e-2
-3.7200138231595625e-2,-6.365913120256339e-2
-3.489627830627917e-2,-6.333345607854801e-2
-3.259241838096261e-2,-6.321910591329205e-2
-3.0288558455646042e-2,-6.353339702521621e-2
-2.7984698530329366e-2,-6.332406464937579e-2
-2.5680838605012912e-2,-6.268603060520828e-2
-2.3376978679696347e-2,-6.262280185517e-2
-2.1073118754379783e-2,-6.251151167572455e-2
-1.876925882906333e-2,-6.264901512496868e-2
-1.6465398903746764e-2,-6.176405718357947e-2
-1.41615389784302e-2,-6.2093061901681734e-2
-1.1857679053113634e-2,-6.232758862427601e-2
-9.55381912779707e-3,-6.265988672192158e-2
-7.249959202480616e-3,-6.244466208580668e-2
-4.946099277164051e-3,-6.2207073920283906e-2
-2.6422393518474863e-3,-6.253110556824792e-2
-3.383794265310325e-4,-6.243153195388551e-2
1.9654804987856433e-3,-6.2006444006095895e-2
4.269340424102097e-3,-6.2083999819319224e-2
6.573200349418773e-3,-6.1805303293292146e-2
8.877060274735227e-3,-6.159377675468003e-2
1.1180920200051792e-2,-6.171880396845786e-2
1.3484780125368245e-2,-6.1282524339128286e-2
1.578864005068481e-2,-6.1247520727031546e-2
1.8092499976001264e-2,-6.207954079689171e-2
2.039635990131794e-2,-6.239799506533239e-2
2.2700219826634616e-2,-6.262791632820586e-2
2.500407975195107e-2,-6.300247472602083e-2
2.7307939677267634e-2,-6.3149204601468e-2
2.9611799602584088e-2,-6.310817496210142e-2
3.191565952790065e-2,-6.300821381425137e-2
3.4219519453217107e-2,-6.31344384133744e-2
3.652337937853378e-2,-6.304856923940638e-2
3.8827239303850236e-2,-6.305881277245484e-2
4.113109922916691e-2,-6.338394668088387e-2
4.3434959154483366e-2,-6.345138558238117e-2
4.573881907979993e-2,-6.374812500241633e-2
4.8042679005116384e-2,-6.364430412907496e-2
5.034653893043295e-2,-6.352858999216571e-2
5.2650398855749625e-2,-6.313685171195882e-2
5.495425878106608e-2,-6.306450833796173e-2
5.7258118706382755e-2,-6.317806096124035e-2
5.956197863169921e-2,-6.335541249227228e-2
6.186583855701577e-2,-6.359254364653533e-2
6.416969848233223e-2,-6.364750024499344e-2
6.647355840764879e-2,-6.387002978961875e-2
6.877741833296525e-2,-6.374035340042783e-2
7.108127825828192e-2,-6.35074582570665e-2
7.338513818359838e-2,-6.350574613456739e-2
7.568899810891505e-2,-6.36219467285567e-2
7.79928580342315e-2,-6.36522908409004e-2
8.029671795954807e-2,-6.376509763904814e-2
8.260057788486463e-2,-6.371224962983535e-2
8.490443781018109e-2,-6.353264318873497e-2
8.720829773549776e-2,-6.324858121107235e-2
8.951215766081422e-2,-6.334425802341015e-2
9.18160175861309e-2,-6.308249158298318e-2
9.411987751144713e-2,-6.315937255199788e-2
9.64237374367638e-2,-6.337675203099213e-2
9.872759736208037e-2,-6.350577760431031e-2
0.10103145728739682,-6.326912389889905e-2
0.10333531721271338,-6.350037448862811e-2
0.10563917713802984,-6.33960421475025e-2
0.10794303706334651,-6.326211468459653e-2
0.11024689698866297,-6.283304940768963e-2
0.11255075691397964,-6.249421462554783e-2
0.1148546168392961,-6.223476343597345e-2
0.11715847676461266,-6.116105823982443e-2
0.11946233668992912,-6.169882690124928e-2
0.12176619661524568,-6.177061220584268e-2
0.12407005654056213,-6.248201167591094e-2
0.1263739164658788,-6.224738007982078e-2
0.12867777639119526,-6.1816770529497966e-2
0.13098163631651194,-6.239701422491273e-2
0.1332854962418285,-6.133323568738158e-2
0.13558935616714496,-6.148446175842914e-2
0.13789321609246152,-6.2056227488752724e-2
0.14019707601777798,-6.251676154965569e-2
0.14250093594309465,-6.223319952552442e-2
0.1448047958684111,-6.254701160062093e-2
0.14710865579372778,-6.253045201449181e-2
0.14941251571904424,-6.158420654628438e-2
0.1517163756443608,-6.202827877072825e-2
0.15402023556967726,-6.194013457725411e-2
0.15632409549499382,-6.2207648976874474e-2
0.15862795542031027,-6.268133908971063e-2
0.16093181534562695,-6.269952350031727e-2
0.16323567527094363,-6.244375155538828e-2
0.16553953519626008,-6.283981592709476e-2
0.16784339512157664,-6.32933900586603e-2
0.1701472550468931,-6.329063014232172e-2
0.17245111497220966,-6.325176578623692e-2
0.17475497489752612,-6.322986799955499e-2
0.1770588348228428,-6.345742008479982e-2
0.17936269474815925,-6.35173705053853e-2
0.18166655467347592,-6.344440812212293e-2
0.18397041459879238,-6.328790472786205e-2
0.18627427452410894,-6.33456267606487e-2
0.1885781344494254,-6.331977147955115e-2
0.19088199437474196,-6.328356400334478e-2
0.1931858543000584,-6.307132750939215e-2
0.1954897142253751,-6.30433226830438e-2
0.19779357415069176,-6.271517889808864e-2
0.20009743407600822,-6.293006543691726e-2
0.20240129400132478,-6.282485453515341e-2
0.20470515392664124,-6.262028949941412e-2
0.2070090138519578,-6.280004845297016e-2
0.20931287377727426,-6.2343959453640574e-2
0.21161673370259093,-6.170382931935392e-2
0.21392059362790738,-6.2034268898008116e-2
0.21622445355322406,-6.257109974552277e-2
0.21852831347854051,-6.240961735914363e-2
0.22083217340385708,-6.185218112124202e-2
0.22313603332917353,-6.2215732605698015e-2
0.2254398932544901,-6.246481325538089e-2
0.22774375317980677,-6.286328400331587e-2
0.23004761310512323,-6.279908320913663e-2
0.2323514730304399,-6.314571940570102e-2
0.23465533295575636,-6.304525656198445e-2
0.23695919288107292,-6.312162885905948e-2
0.23926305280638938,-6.295287794483373e-2
0.24156691273170594,-6.318144720847074e-2
0.2438707726570224,-6.302240915455282e-2
0.24617463258233885,-6.310295837995183e-2
0.24847849250765552,-6.314611436171913e-2
0.250782352432972,-6.326455678815035e-2
0.25308621235828865,-6.343126326014692e-2
0.2553900722836051,-6.335870573238234e-2
0.2576939322089218,-6.343705633488528e-2
0.259997792134238,-6.328500145900107e-2
0.2623016520595547,-6.359685685704286e-2
0.26460551198487114,-6.367951026051855e-2
0.2669093719101878,-6.358177688243272e-2
0.2692132318355043,-6.35570929234267e-2
0.27151709176082095,-6.36066951654195e-2
0.2738209516861374,-6.364771896742794e-2
0.27612481161145386,-6.352349689602332e-2
0.27842867153677053,-6.353280722737042e-2
0.280732531462087,-6.351089768434104e-2
0.28303639138740366,-6.349460979071175e-2
0.2853402513127201,-6.372561153509615e-2
0.2876441112380368,-6.368654570526244e-2
0.28994797116335325,-6.360988516283805e-2
0.2922518310886697,-6.342263269349313e-2
0.2945556910139864,-6.332339343190807e-2
0.29685955093930283,-6.336469358644303e-2
0.2991634108646193,-6.359545024688518e-2
0.30146727078993596,-6.362389065714702e-2
0.3037711307152524,-6.372210046727711e-2
0.3060749906405691,-6.351999694388877e-2
0.30837885056588554,-6.316020600369077e-2
0.3106827104912022,-6.289088397933285e-2
0.3129865704165187,-6.310290314616773e-2
0.3152904303418351,-6.313092266933484e-2
0.3175942902671518,-6.343165406872431e-2
0.31989815019246826,-6.327480235887195e-2
0.32220201011778493,-6.320051164040597e-2
0.3245058700431014,-6.327435127562953e-2
0.32680972996841806,-6.354786004368196e-2
0.3291135898937343,-6.35021466761837e-2
0.33141744981905097,-6.371315024299706e-2
0.3337213097443674,-6.366865182674519e-2
0.3360251696696841,-6.359867406234787e-2
0.3383290295950008,-6.370838156867065e-2
0.34063288952031723,-6.383004333169051e-2
0.3429367494456339,-6.379884752770282e-2
0.34524060937095014,-6.373091080611071e-2
0.3475444692962668,-6.385803143868396e-2
0.34984832922158327,-6.379541658243093e-2
0.35215218914689994,-6.352546687921423e-2
0.3544560490722164,-6.35844212879495e-2
0.35675990899753307,-6.383539711830166e-2
0.3590637689228495,-6.35169884084742e-2
0.361367628848166,-6.359749617718569e-2
0.36367148877348265,-6.344536877405293e-2
0.3659753486987991,-6.357866094699538e-2
0.36827920862411556,-6.376818516872251e-2
0.37058306854943224,-6.360564344566433e-2
0.3728869284747489,-6.380532352246748e-2
0.37519078840006537,-6.368941561837316e-2
0.3774946483253818,-6.370143864174882e-2
0.3797985082506985,-6.394612517522069e-2
0.38210236817601495,-6.401699861433341e-2
0.3844062281013314,-6.384937012391945e-2
0.3867100880266481,-6.379639325607711e-2
0.38901394795196453,-6.377678891644945e-2
0.391317807877281,-6.338918776580116e-2
0.39362166780259766,-6.277654401237731e-2
0.3959255277279141,-6.312780571644339e-2
0.39822938765323057,-6.306917599879436e-2
0.40053324757854725,-6.31577215658935e-2
0.4028371075038639,-6.2484156138936875e-2
0.40514096742918015,-6.274988718193875e-2
0.40744482735449705,-6.327809644317528e-2
0.4097486872798133,-6.364702612743989e-2
0.4120525472051302,-6.371356160791997e-2
0.4143564071304464,-6.346149508729215e-2
0.4166602670557631,-6.368093116497664e-2
0.4189641269810793,-6.368683150485743e-2
0.4212679869063962,-6.38640408554968e-2
0.42357184683171245,-6.374100712405661e-2
0.42587570675702935,-6.374949005017427e-2
0.4281795666823456,-6.358553893541152e-2
0.43048342660766226,-6.370475874774717e-2
0.4327872865329787,-6.351061300519723e-2
0.4350911464582954,-6.308252680802462e-2"/>
  </g>
  <g stroke-opacity="0.5" stroke="#431712" stroke-width="7.0e-3" fill="none">
    <polyline points="-0.7145349562746587,-6.306629567110222e-2
-0.7122310963493421,-6.29803471621394e-2
-0.7099272364240256,-6.287887852488128e-2
-0.707623376498709,-6.291263194959229e-2
-0.7053195165733925,-6.298899421900928e-2
-0.703015656648076,-6.300403282718181e-2
-0.7007117967227594,-6.299626295859895e-2
-0.6984079367974428,-6.30244282682616e-2
-0.6961040768721263,-6.314509273949498e-2
-0.6938002169468098,-6.313016258418036e-2
-0.6914963570214933,-6.307828482086564e-2
-0.6891924970961767,-6.303160029656107e-2
-0.6868886371708601,-6.302139058769163e-2
-0.6845847772455436,-6.302931968545178e-2
-0.6822809173202271,-6.292095709760548e-2
-0.6799770573949105,-6.292828894783475e-2
-0.677673197469594,-6.291140117246818e-2
-0.6753693375442774,-6.27231030241141e-2
-0.673065477618961,-6.256788210948239e-2
-0.6707616176936444,-6.276248181823829e-2
-0.6684577577683278,-6.263418713038715e-2
-0.6661538978430113,-6.261245811647842e-2
-0.6638500379176948,-6.271138017346556e-2
-0.6615461779923782,-6.254615432820221e-2
-0.6592423180670617,-6.263746240493662e-2
-0.6569384581417451,-6.272033259779275e-2
-0.6546345982164286,-6.276855313365981e-2
-0.6523307382911121,-6.26058816673355e-2
-0.6500268783657955,-6.262979704382343e-2
-0.647723018440479,-6.274963814310142e-2
-0.6454191585151624,-6.270775684893393e-2
-0.6431152985898458,-6.276608261927275e-2
-0.6408114386645294,-6.274325893950672e-2
-0.6385075787392128,-6.28002029933048e-2
-0.6362037188138963,-6.287491059600314e-2
-0.6338998588885797,-6.287798616006901e-2
-0.6315959989632631,-6.283336344121582e-2
-0.6292921390379467,-6.276866644486256e-2
-0.6269882791126301,-6.276719107871631e-2
-0.6246844191873135,-6.266765463347046e-2
-0.622380559261997,-6.268009276973707e-2
-0.6200766993366804,-6.275435227329151e-2
-0.617772839411364,-6.276068187803663e-2
-0.6154689794860474,-6.269928358862287e-2
-0.6131651195607308,-6.271655163890921e-2
-0.6108612596354144,-6.266277218363592e-2
-0.6085573997100978,-6.264559976007922e-2
-0.6062535397847812,-6.273721659401865e-2
-0.6039496798594648,-6.276066843741646e-2
-0.6016458199341481,-6.27569411375194e-2
-0.5993419600088317,-6.282500571275795e-2
-0.5970381000835151,-6.289014765669998e-2
-0.5947342401581985,-6.289940944472361e-2
-0.592430380232882,-6.290261407926212e-2
-0.5901265203075654,-6.284964049136721e-2
-0.587822660382249,-6.287630726058735e-2
-0.5855188004569324,-6.286714148016492e-2
-0.5832149405316158,-6.284517614149898e-2
-0.5809110806062993,-6.289584487333577e-2
-0.5786072206809827,-6.286993446709954e-2
-0.5763033607556662,-6.28905306582378e-2
-0.5739995008303497,-6.287275551292848e-2
-0.5716956409050331,-6.285273463887375e-2
-0.5693917809797165,-6.276575770423065e-2
-0.5670879210544,-6.285528439522503e-2
-0.5647840611290835,-6.280253407404757e-2
-0.562480201203767,-6.2878467198348e-2
-0.5601763412784504,-6.290785516669184e-2
-0.5578724813531338,-6.290966428532874e-2
-0.5555686214278173,-6.296814892272806e-2
-0.5532647615025008,-6.295909308010494e-2
-0.5509609015771842,-6.297790273213733e-2
-0.5486570416518677,-6.29816576648573e-2
-0.5463531817265511,-6.299025327389052e-2
-0.5440493218012346,-6.295693895125509e-2
-0.5417454618759181,-6.29710431729682e-2
-0.5394416019506015,-6.295976494033051e-2
-0.537137742025285,-6.294055811733779e-2
-0.5348338820999685,-6.290776616711435e-2
-0.5325300221746518,-6.291687558812564e-2
-0.5302261622493354,-6.286742479563845e-2
-0.5279223023240188,-6.28780206248214e-2
-0.5256184423987023,-6.277500298359961e-2
-0.5233145824733857,-6.278900034456203e-2
-0.5210107225480691,-6.272436369886336e-2
-0.5187068626227527,-6.276751414844117e-2
-0.516403002697436,-6.277113324472627e-2
-0.5140991427721195,-6.27914005199085e-2
-0.5117952828468031,-6.275339618025089e-2
-0.5094914229214865,-6.281379590948977e-2
-0.50718756299617,-6.287258719357158e-2
-0.5048837030708534,-6.293323921076055e-2
-0.5025798431455368,-6.295480212234728e-2
-0.5002759832202204,-6.289953414184057e-2
-0.4979721232949038,-6.295938080369068e-2
-0.49566826336958725,-6.296339506657778e-2
-0.4933644034442707,-6.295211988942195e-2
-0.4910605435189542,-6.297709848590127e-2
-0.4887566835936376,-6.298874616450867e-2
-0.4864528236683211,-6.295600142489599e-2
-0.48414896374300453,-6.294537863354266e-2
-0.481845103817688,-6.295501493550659e-2
-0.47954124389237146,-6.298577635222802e-2
-0.4772373839670549,-6.304727355287865e-2
-0.47493352404173844,-6.3020630540504e-2
-0.47262966411642193,-6.29685942736471e-2
-0.47032580419110537,-6.292296273177633e-2
-0.4680219442657888,-6.295478926845088e-2
-0.46571808434047224,-6.294351509142193e-2
-0.46341422441515573,-6.297543453348409e-2
-0.46111036448983916,-6.300500126115727e-2
-0.45880650456452265,-6.302630347344118e-2
-0.4565026446392061,-6.304224304671813e-2
-0.4541987847138896,-6.303572475788122e-2
-0.45189492478857296,-6.302073452564494e-2
-0.44959106486325645,-6.296469079830791e-2
-0.44728720493793994,-6.293181475595822e-2
-0.4449833450126234,-6.29743666896534e-2
-0.4426794850873068,-6.291523331002069e-2
-0.4403756251619903,-6.296893789764924e-2
-0.4380717652366738,-6.298904703675079e-2
-0.4357679053113572,-6.300249931381807e-2
-0.43346404538604066,-6.30132225814749e-2
-0.4311601854607241,-6.300601415177776e-2
-0.4288563255354076,-6.298951678892928e-2
-0.426552465610091,-6.303011554060434e-2
-0.4242486056847745,-6.308087519728456e-2
-0.42194474575945795,-6.307781630344711e-2
-0.4196408858341414,-6.311395260047015e-2
-0.4173370259088248,-6.307650808109722e-2
-0.4150331659835083,-6.30725185546569e-2
-0.4127293060581918,-6.305562465137315e-2
-0.41042544613287524,-6.303057501898901e-2
-0.4081215862075587,-6.299961678961408e-2
-0.4058177262822421,-6.297940419942427e-2
-0.4035138663569256,-6.298912442332871e-2
-0.40121000643160903,-6.30120278971904e-2
-0.3989061465062925,-6.301029082314635e-2
-0.39660228658097596,-6.30440830880693e-2
-0.39429842665565945,-6.304143818707442e-2
-0.3919945667303429,-6.299644809549321e-2
-0.3896907068050263,-6.3031001282018e-2
-0.3873868468797098,-6.303555110595671e-2
-0.38508298695439325,-6.308746238665797e-2
-0.3827791270290768,-6.307972723817368e-2
-0.38047526710376023,-6.304927399918814e-2
-0.37817140717844366,-6.303514539091926e-2
-0.37586754725312715,-6.300678186606146e-2
-0.37356368732781053,-6.302246763694619e-2
-0.371259827402494,-6.30179988416738e-2
-0.3689559674771775,-6.303989700263446e-2
-0.36665210755186095,-6.303243539431491e-2
-0.3643482476265444,-6.303305798493242e-2
-0.3620443877012279,-6.296923874941895e-2
-0.35974052777591137,-6.292528459062652e-2
-0.3574366678505948,-6.291898249839656e-2
-0.35513280792527824,-6.290534415110705e-2
-0.35282894799996173,-6.266056687852306e-2
-0.3505250880746452,-6.25095229561502e-2
-0.34822122814932865,-6.261219691101172e-2
-0.3459173682240121,-6.256908098548641e-2
-0.3436135082986956,-6.272291661549478e-2
-0.34130964837337896,-6.271967132294176e-2
-0.3390057884480624,-6.261351352111466e-2
-0.3367019285227459,-6.26105792737991e-2
-0.3343980685974294,-6.257914471824255e-2
-0.3320942086721128,-6.253922068191742e-2
-0.32979034874679625,-6.231306911503853e-2
-0.32748648882147974,-6.244911703002631e-2
-0.32518262889616323,-6.2324120915525194e-2
-0.32287876897084666,-6.227913417913267e-2
-0.3205749090455301,-6.2394498991811265e-2
-0.3182710491202136,-6.247436361835168e-2
-0.3159671891948971,-6.25513293204869e-2
-0.3136633292695805,-6.250583677304777e-2
-0.31135946934426395,-6.254694802943894e-2
-0.30905560941894744,-6.259238110411003e-2
-0.30675174949363093,-6.274392493564063e-2
-0.30444788956831437,-6.272414355636946e-2
-0.3021440296429978,-6.265593301864447e-2
-0.2998401697176813,-6.251140269152855e-2
-0.2975363097923648,-6.250138540532102e-2
-0.2952324498670482,-6.244729623910106e-2
-0.29292858994173165,-6.252478114707971e-2
-0.29062473001641514,-6.254139285014837e-2
-0.28832087009109864,-6.24205241717839e-2
-0.28601701016578207,-6.228977677538028e-2
-0.28371315024046545,-6.231464951515153e-2
-0.28140929031514894,-6.2269801053606244e-2
-0.2791054303898324,-6.238428053278322e-2
-0.2768015704645158,-6.2409779600503756e-2
-0.2744977105391993,-6.257560666250928e-2
-0.2721938506138828,-6.255987243767891e-2
-0.26988999068856623,-6.261887937666755e-2
-0.26758613076324966,-6.269712350726331e-2
-0.26528227083793315,-6.245826501454177e-2
-0.26297841091261664,-6.244848942916259e-2
-0.2606745509873001,-6.2279341651418685e-2
-0.2583706910619835,-6.2295082680631e-2
-0.256066831136667,-6.2295371536831956e-2
-0.2537629712113504,-6.233727982558879e-2
-0.2514591112860338,-6.233827666900427e-2
-0.24915525136071737,-6.2201485766677056e-2
-0.2468513914354008,-6.2053631574523815e-2
-0.24454753151008424,-6.20595359162045e-2
-0.24224367158476767,-6.1952670501602136e-2
-0.2399398116594511,-6.1844113378428656e-2
-0.23763595173413465,-6.170120735941842e-2
-0.2353320918088182,-6.151145147829329e-2
-0.23302823188350164,-6.187181932531638e-2
-0.23072437195818507,-6.1940511306030954e-2
-0.2284205120328685,-6.193794873829206e-2
-0.22611665210755194,-6.2005475024117684e-2
-0.22381279218223538,-6.202039421261929e-2
-0.2215089322569188,-6.184492159005317e-2
-0.21920507233160236,-6.209615442162564e-2
-0.2169012124062858,-6.2151472077003556e-2
-0.21459735248096923,-6.222546908307225e-2
-0.21229349255565277,-6.225857053724959e-2
-0.2099896326303362,-6.229436398586663e-2
-0.20768577270501964,-6.229617761678907e-2
-0.20538191277970308,-6.226095314851543e-2
-0.20307805285438651,-6.23411909073045e-2
-0.20077419292907006,-6.235962470894907e-2
-0.1984703330037535,-6.2416468604630126e-2
-0.19616647307843693,-6.251271710714867e-2
-0.19386261315312037,-6.241041305807349e-2
-0.1915587532278038,-6.242801620784966e-2
-0.18925489330248724,-6.2439479045753865e-2
-0.18695103337717067,-6.250195130126146e-2
-0.18464717345185422,-6.2445844467977185e-2
-0.18234331352653765,-6.243667310887813e-2
-0.1800394536012211,-6.254956342572815e-2
-0.17773559367590464,-6.261171099089513e-2
-0.17543173375058807,-6.261789315976196e-2
-0.1731278738252714,-6.266630304225973e-2
-0.17082401389995483,-6.269937856864105e-2
-0.16852015397463838,-6.268211217116215e-2
-0.1662162940493218,-6.261320263285497e-2
-0.16391243412400536,-6.261776461929225e-2
-0.1616085741986888,-6.262251839826882e-2
-0.15930471427337234,-6.271460771404269e-2
-0.15700085434805577,-6.273508014921525e-2
-0.1546969944227392,-6.271436423013677e-2
-0.15239313449742264,-6.279117630359943e-2
-0.15008927457210608,-6.279989148932785e-2
-0.14778541464678963,-6.281052654525188e-2
-0.14548155472147306,-6.278271878367647e-2
-0.1431776947961565,-6.282685609338745e-2
-0.14087383487083993,-6.283328930614185e-2
-0.13856997494552337,-6.282505618838097e-2
-0.1362661150202068,-6.281868622013509e-2
-0.13396225509489024,-6.27958757305287e-2
-0.13165839516957378,-6.284335407220609e-2
-0.12935453524425722,-6.281265199381192e-2
-0.12705067531894065,-6.280216002004979e-2
-0.1247468153936242,-6.275267955719632e-2
-0.12244295546830763,-6.269204260480221e-2
-0.12013909554299107,-6.267552286344436e-2
-0.1178352356176745,-6.277972302169832e-2
-0.11553137569235794,-6.279903315689983e-2
-0.11322751576704149,-6.284686718430854e-2
-0.11092365584172492,-6.283793811456406e-2
-0.10861979591640836,-6.287127865657505e-2
-0.10631593599109179,-6.28950894957987e-2
-0.10401207606577523,-6.289100629838296e-2
-0.10170821614045866,-6.286661313097586e-2
-9.94043562151421e-2,-6.294170538164301e-2
-9.710049628982564e-2,-6.279976077317662e-2
-9.479663636450908e-2,-6.279151287099882e-2
-9.249277643919251e-2,-6.284109193314902e-2
-9.018891651387606e-2,-6.280487599627826e-2
-8.78850565885595e-2,-6.282851232868458e-2
-8.558119666324293e-2,-6.287450466498101e-2
-8.327733673792637e-2,-6.295462955099318e-2
-8.09734768126098e-2,-6.295101979687179e-2
-7.866961688729335e-2,-6.296281711068563e-2
-7.636575696197667e-2,-6.2974037045749e-2
-7.406189703666022e-2,-6.300350960039725e-2
-7.175803711134365e-2,-6.300684462027806e-2
-6.945417718602709e-2,-6.295863984063799e-2
-6.715031726071052e-2,-6.29799339708138e-2
-6.484645733539396e-2,-6.29762204080977e-2
-6.25425974100775e-2,-6.301983692731095e-2
-6.023873748476094e-2,-6.301090291745137e-2
-5.7934877559444375e-2,-6.301028137382003e-2
-5.563101763412792e-2,-6.298955154819952e-2
-5.332715770881136e-2,-6.299685986240688e-2
-5.10232977834949e-2,-6.300000563111685e-2
-4.871943785817834e-2,-6.305937551359186e-2
-4.641557793286177e-2,-6.303874864977721e-2
-4.411171800754521e-2,-6.303150685707937e-2
-4.1807858082228755e-2,-6.306075411904821e-2
-3.950399815691219e-2,-6.306368987904121e-2
-3.7200138231595625e-2,-6.306572990739123e-2
-3.489627830627917e-2,-6.300650882976155e-2
-3.259241838096261e-2,-6.298690169217935e-2
-3.0288558455646042e-2,-6.30521036093955e-2
-2.7984698530329366e-2,-6.301503788248008e-2
-2.5680838605012912e-2,-6.289048080083348e-2
-2.3376978679696347e-2,-6.287578581381625e-2
-2.1073118754379783e-2,-6.285099002848171e-2
-1.876925882906333e-2,-6.287510355009751e-2
-1.6465398903746764e-2,-6.269579501639011e-2
-1.41615389784302e-2,-6.275229607020028e-2
-1.1857679053113634e-2,-6.279262142994446e-2
-9.55381912779707e-3,-6.285444947794194e-2
-7.249959202480616e-3,-6.280944540698274e-2
-4.946099277164051e-3,-6.275826472316604e-2
-2.6422393518474863e-3,-6.281757660351939e-2
-3.383794265310325e-4,-6.279479053015602e-2
1.9654804987856433e-3,-6.270611477205579e-2
4.269340424102097e-3,-6.271463165957492e-2
6.573200349418773e-3,-6.265256848717682e-2
8.877060274735227e-3,-6.260177630929531e-2
1.1180920200051792e-2,-6.261670589394108e-2
1.3484780125368245e-2,-6.252044453867667e-2
1.578864005068481e-2,-6.250105934895067e-2
1.8092499976001264e-2,-6.265496936295167e-2
2.039635990131794e-2,-6.271292135838036e-2
2.2700219826634616e-2,-6.27557676400724e-2
2.500407975195107e-2,-6.28294200233388e-2
2.7307939677267634e-2,-6.286050457469727e-2
2.9611799602584088e-2,-6.285518428658621e-2
3.191565952790065e-2,-6.283771754183665e-2
3.4219519453217107e-2,-6.286467418056652e-2
3.652337937853378e-2,-6.285019439530248e-2
3.8827239303850236e-2,-6.285422784114447e-2
4.113109922916691e-2,-6.292131678733193e-2
4.3434959154483366e-2,-6.293943522868228e-2
4.573881907979993e-2,-6.300391798556271e-2
4.8042679005116384e-2,-6.299059273677698e-2
5.034653893043295e-2,-6.297398314323599e-2
5.2650398855749625e-2,-6.290116471505136e-2
5.495425878106608e-2,-6.288905013651391e-2
5.7258118706382755e-2,-6.291352078986345e-2
5.956197863169921e-2,-6.295164505286488e-2
6.186583855701577e-2,-6.300312039366285e-2
6.416969848233223e-2,-6.302000966041321e-2
6.647355840764879e-2,-6.30708015343533e-2
6.877741833296525e-2,-6.305285467048372e-2
7.108127825828192e-2,-6.301314215437726e-2
7.338513818359838e-2,-6.301774386309844e-2
7.568899810891505e-2,-6.30458698873203e-2
7.79928580342315e-2,-6.305770192818916e-2
8.029671795954807e-2,-6.308621502193579e-2
8.260057788486463e-2,-6.308243347882558e-2
8.490443781018109e-2,-6.30528043992239e-2
8.720829773549776e-2,-6.300078004369825e-2
8.951215766081422e-2,-6.302239767468931e-2
9.18160175861309e-2,-6.297325340958937e-2
9.411987751144713e-2,-6.298972516412582e-2
9.64237374367638e-2,-6.303490616640406e-2
9.872759736208037e-2,-6.306413526858479e-2
0.10103145728739682,-6.302121291301277e-2
0.10333531721271338,-6.306995117650971e-2
0.10563917713802984,-6.305338590104426e-2
0.10794303706334651,-6.303002272577185e-2
0.11024689698866297,-6.294651556822406e-2
0.11255075691397964,-6.287760167752388e-2
0.1148546168392961,-6.282186774285625e-2
0.11715847676461266,-6.260121714753075e-2
0.11946233668992912,-6.269438538998884e-2
0.12176619661524568,-6.269878761910774e-2
0.12407005654056213,-6.283180828722845e-2
0.1263739164658788,-6.278137554607388e-2
0.12867777639119526,-6.268989849719042e-2
0.13098163631651194,-6.279723359484557e-2
0.1332854962418285,-6.258044042452948e-2
0.13558935616714496,-6.259821645435115e-2
0.13789321609246152,-6.27014485136107e-2
0.14019707601777798,-6.278711663856462e-2
0.14250093594309465,-6.272769139616574e-2
0.1448047958684111,-6.278551783894148e-2
0.14710865579372778,-6.277981998661963e-2
0.14941251571904424,-6.258804813421215e-2
0.1517163756443608,-6.266683599063438e-2
0.15402023556967726,-6.26428180102836e-2
0.15632409549499382,-6.268930089489821e-2
0.15862795542031027,-6.27792354980311e-2
0.16093181534562695,-6.278189379940169e-2
0.16323567527094363,-6.272990828597469e-2
0.16553953519626008,-6.28062703854465e-2
0.16784339512157664,-6.289733340862724e-2
0.1701472550468931,-6.290074246408173e-2
0.17245111497220966,-6.28968679383155e-2
0.17475497489752612,-6.28960372466808e-2
0.1770588348228428,-6.294489253768698e-2
0.17936269474815925,-6.296201017497571e-2
0.18166655467347592,-6.295297011077061e-2
0.18397041459879238,-6.29265803704484e-2
0.18627427452410894,-6.294173997783004e-2
0.1885781344494254,-6.294060764470566e-2
0.19088199437474196,-6.293715735121164e-2
0.1931858543000584,-6.289816923471125e-2
0.1954897142253751,-6.289429937223989e-2
0.19779357415069176,-6.283015297233985e-2
0.20009743407600822,-6.287198562429264e-2
0.20240129400132478,-6.285152177947684e-2
0.20470515392664124,-6.28103371933536e-2
0.2070090138519578,-6.284439252374074e-2
0.20931287377727426,-6.275272057915049e-2
0.21161673370259093,-6.262059166736866e-2
0.21392059362790738,-6.26775184743662e-2
0.21622445355322406,-6.277846358481809e-2
0.21852831347854051,-6.27440896136483e-2
0.22083217340385708,-6.262924489096366e-2
0.22313603332917353,-6.269419168984602e-2
0.2254398932544901,-6.273922813034793e-2
0.22774375317980677,-6.28161864229565e-2
0.23004761310512323,-6.280381592040896e-2
0.2323514730304399,-6.287310314931294e-2
0.23465533295575636,-6.285573492739693e-2
0.23695919288107292,-6.287290638037168e-2
0.23926305280638938,-6.284164021868288e-2
0.24156691273170594,-6.288847119913876e-2
0.2438707726570224,-6.285959044812306e-2
0.24617463258233885,-6.287733024395636e-2
0.24847849250765552,-6.288821879338324e-2
0.250782352432972,-6.291448879414041e-2
0.25308621235828865,-6.295133432285949e-2
0.2553900722836051,-6.294162117905111e-2
0.2576939322089218,-6.296146402117331e-2
0.259997792134238,-6.293580656754749e-2
0.2623016520595547,-6.300167569989079e-2
0.26460551198487114,-6.302416025487279e-2
0.2669093719101878,-6.301116589914102e-2
0.2692132318355043,-6.301193528635118e-2
0.27151709176082095,-6.302730867957496e-2
0.2738209516861374,-6.304130853856305e-2
0.27612481161145386,-6.302252658997576e-2
0.27842867153677053,-6.302939895287618e-2
0.280732531462087,-6.303005118278537e-2
0.28303639138740366,-6.303160220037163e-2
0.2853402513127201,-6.308243688537063e-2
0.2876441112380368,-6.308105535127895e-2
0.28994797116335325,-6.307177738426362e-2
0.2922518310886697,-6.303970536020376e-2
0.2945556910139864,-6.302368549157078e-2
0.29685955093930283,-6.303494349912242e-2
0.2991634108646193,-6.3084396233958e-2
0.30146727078993596,-6.309519569970823e-2
0.3037711307152524,-6.312012653923404e-2
0.3060749906405691,-6.30857229399785e-2
0.30837885056588554,-6.301810236687566e-2
0.3106827104912022,-6.296565506303398e-2
0.3129865704165187,-6.300731428016881e-2
0.3152904303418351,-6.301387455591123e-2
0.3175942902671518,-6.307519578144882e-2
0.31989815019246826,-6.304738801803722e-2
0.32220201011778493,-6.30348031197353e-2
0.3245058700431014,-6.305122929238327e-2
0.32680972996841806,-6.310816624781013e-2
0.3291135898937343,-6.310342018366433e-2
0.33141744981905097,-6.314961132812313e-2
0.3337213097443674,-6.314634681249309e-2
0.3360251696696841,-6.313757372037165e-2
0.3383290295950008,-6.316412799115712e-2
0.34063288952031723,-6.319390484016407e-2
0.3429367494456339,-6.319402707224964e-2
0.34524060937095014,-6.318648744592548e-2
0.3475444692962668,-6.321735777829807e-2
0.34984832922158327,-6.321124115677801e-2
0.35215218914689994,-6.31630899553064e-2
0.3544560490722164,-6.317850556191917e-2
0.35675990899753307,-6.323276321509308e-2
0.3590637689228495,-6.317510430896423e-2
0.361367628848166,-6.319462587791735e-2
0.36367148877348265,-6.31682275283102e-2
0.3659753486987991,-6.319765911042685e-2
0.36827920862411556,-6.323937640789101e-2
0.37058306854943224,-6.321215457802343e-2
0.3728869284747489,-6.32560279916955e-2
0.37519078840006537,-6.323833836442594e-2
0.3774946483253818,-6.324525412936188e-2
0.3797985082506985,-6.329875625069648e-2
0.38210236817601495,-6.331940576240858e-2
0.3844062281013314,-6.329285454850486e-2
0.3867100880266481,-6.328782405977706e-2
0.38901394795196453,-6.328898894592139e-2
0.391317807877281,-6.321634288104938e-2
0.39362166780259766,-6.309553626649089e-2
0.3959255277279141,-6.316260215423009e-2
0.39822938765323057,-6.315052762792672e-2
0.40053324757854725,-6.316742408175191e-2
0.4028371075038639,-6.303260720397186e-2
0.40514096742918015,-6.308027127052862e-2
0.40744482735449705,-6.318261431684291e-2
0.4097486872798133,-6.325735871537441e-2
0.4120525472051302,-6.327456331515902e-2
0.4143564071304464,-6.322853779690407e-2
0.4166602670557631,-6.327475676957373e-2
0.4189641269810793,-6.327999882675717e-2
0.4212679869063962,-6.331951085377752e-2
0.42357184683171245,-6.330034852882482e-2
0.42587570675702935,-6.330645197707341e-2
0.4281795666823456,-6.32780908602425e-2
0.43048342660766226,-6.330501050118942e-2
0.4327872865329787,-6.327017730081919e-2
0.4350911464582954,-6.318696078957942e-2"/>
  </g>
  <g stroke-opacity="0.5" fill-opacity="1.0" stroke="#3764a0" stroke-width="4.0e-3" fill="#ffffff">
    <rect height="0.1342572542226072" width="0.19784397108655827" x="0.5394847993242009" y="-6.74465492280435e-2"/>
  </g>
  <g fill-opacity="1.0" font-size="4.000000000000001e-2" stroke="none" stroke-width="0.0" fill="#666666" text-anchor="start">
    <text x="0.5510040989507838" y="3.1297495813099874e-2">rate = 0.99
    </text>
  </g>
  <g stroke-opacity="0.5" stroke="#431712" stroke-width="6.999999999999999e-3" fill="none">
    <polyline points="0.7007549940963589,2.5580735310717917e-2
0.7237935933495243,2.5580735310717917e-2"/>
  </g>
  <g fill-opacity="1.0" font-size="4.000000000000001e-2" stroke="none" stroke-width="0.0" fill="#666666" text-anchor="start">
    <text x="0.5510040989507838" y="-1.8074526707471894e-2">rate = 0.95
    </text>
  </g>
  <g stroke-opacity="0.5" stroke="#4b2282" stroke-width="6.999999999999999e-3" fill="none">
    <polyline points="0.7007549940963589,-2.3791287209853795e-2
0.7237935933495243,-2.3791287209853795e-2"/>
  </g>
</svg>