<svg viewBox="-1.1835749999999998 -0.6457499999999999 2.7303249999999997 1.5057659178324474" xmlns="http://www.w3.org/2000/svg" xmlns:xlink="http://www.w3.org/1999/xlink" version="1.1" width="300.0" height="200.0"><g stroke-width="0.0" stroke="none" fill="#000000" transform="translate(-8.80375000000001e-2, -0.57175)" fill-opacity="1.0" font-size="8.0e-2" text-anchor="middle"><text transform="rotate(0.0, 0.0, -0.0)" x="0.0" y="-0.0">moving average return</text></g><g stroke-width="0.0" stroke="#000000" fill="#666666" fill-opacity="3.0e-2" stroke-opacity="0.0"><rect width="1.9999999999999998" height="1.0" x="-1.0" y="-0.5" /></g><g stroke-width="5.0e-3" stroke="#A8E5EE" fill="none" stroke-opacity="0.3"><polyline points="-1.0,0.505 -1.0,-0.505" /></g><g stroke-width="5.0e-3" stroke="#A8E5EE" fill="none" stroke-opacity="0.3"><polyline points="-0.9118236472945892,0.505 -0.9118236472945892,-0.505" /></g><g stroke-width="5.0e-3" stroke="#A8E5EE" fill="none" stroke-opacity="0.3"><polyline points="-0.6553106212424851,0.505 -0.6553106212424851,-0.505" /></g><g stroke-width="5.0e-3" stroke="#A8E5EE" fill="none" stroke-opacity="0.3"><polyline points="-0.40280561122244496,0.505 -0.40280561122244496,-0.505" /></g><g stroke-width="5.0e-3" stroke="#A8E5EE" fill="none" stroke-opacity="0.3"><polyline points="-0.15030060120240496,0.505 -0.15030060120240496,-0.505" /></g><g stroke-width="5.0e-3" stroke="#A8E5EE" fill="none" stroke-opacity="0.3"><polyline points="9.418837675350678e-2,0.505 9.418837675350678e-2,-0.505" /></g><g stroke-width="5.0e-3" stroke="#A8E5EE" fill="none" stroke-opacity="0.3"><polyline points="0.3466933867735469,0.505 0.3466933867735469,-0.505" /></g><g stroke-width="5.0e-3" stroke="#A8E5EE" fill="none" stroke-opacity="0.3"><polyline points="0.6032064128256511,0.505 0.6032064128256511,-0.505" /></g><g stroke-width="5.0e-3" stroke="#A8E5EE" fill="none" stroke-opacity="0.3"><polyline points="0.8597194388777554,0.505 0.8597194388777554,-0.505" /></g><g stroke-width="5.0e-3" stroke="#A8E5EE" fill="none" stroke-opacity="0.3"><polyline points="0.9999999999999998,0.505 0.9999999999999998,-0.505" /></g><g stroke-width="0.0" stroke="none" fill="#666666" fill-opacity="1.0" font-size="5.0e-2" text-anchor="end"><text transform="rotate(-45.0, -1.0, 0.647)" x="-1.0" y="0.647">27 Feb 2018</text></g><g stroke-width="0.0" stroke="none" fill="#666666" fill-opacity="1.0" font-size="5.0e-2" text-anchor="end"><text transform="rotate(-45.0, -0.9118236472945892, 0.647)" x="-0.9118236472945892" y="0.647">31 Mar 2018</text></g><g stroke-width="0.0" stroke="none" fill="#666666" fill-opacity="1.0" font-size="5.0e-2" text-anchor="end"><text transform="rotate(-45.0, -0.6553106212424851, 0.647)" x="-0.6553106212424851" y="0.647">30 Jun 2018</text></g><g stroke-width="0.0" stroke="none" fill="#666666" fill-opacity="1.0" font-size="5.0e-2" text-anchor="end"><text transform="rotate(-45.0, -0.40280561122244496, 0.647)" x="-0.40280561122244496" y="0.647">30 Sep 2018</text></g><g stroke-width="0.0" stroke="none" fill="#666666" fill-opacity="1.0" font-size="5.0e-2" text-anchor="end"><text transform="rotate(-45.0, -0.15030060120240496, 0.647)" x="-0.15030060120240496" y="0.647">31 Dec 2018</text></g><g stroke-width="0.0" stroke="none" fill="#666666" fill-opacity="1.0" font-size="5.0e-2" text-anchor="end"><text transform="rotate(-45.0, 9.418837675350678e-2, 0.647)" x="9.418837675350678e-2" y="0.647">31 Mar 2019</text></g><g stroke-width="0.0" stroke="none" fill="#666666" fill-opacity="1.0" font-size="5.0e-2" text-anchor="end"><text transform="rotate(-45.0, 0.3466933867735469, 0.647)" x="0.3466933867735469" y="0.647">30 Jun 2019</text></g><g stroke-width="0.0" stroke="none" fill="#666666" fill-opacity="1.0" font-size="5.0e-2" text-anchor="end"><text transform="rotate(-45.0, 0.6032064128256511, 0.647)" x="0.6032064128256511" y="0.647">30 Sep 2019</text></g><g stroke-width="0.0" stroke="none" fill="#666666" fill-opacity="1.0" font-size="5.0e-2" text-anchor="end"><text transform="rotate(-45.0, 0.8597194388777554, 0.647)" x="0.8597194388777554" y="0.647">31 Dec 2019</text></g><g stroke-width="0.0" stroke="none" fill="#666666" fill-opacity="1.0" font-size="5.0e-2" text-anchor="end"><text transform="rotate(-45.0, 0.9999999999999998, 0.647)" x="0.9999999999999998" y="0.647">21 Feb 2020</text></g><g stroke-width="0.0" stroke="#2C429D" fill="#5F0391" fill-opacity="1.0" stroke-opacity="0.4"><line stroke-width="5.0e-3" x1="-1.0" y1="0.58075" x2="-1.0" y2="0.55075" /><line stroke-width="5.0e-3" x1="-0.9118236472945892" y1="0.58075" x2="-0.9118236472945892" y2="0.55075" /><line stroke-width="5.0e-3" x1="-0.6553106212424851" y1="0.58075" x2="-0.6553106212424851" y2="0.55075" /><line stroke-width="5.0e-3" x1="-0.40280561122244496" y1="0.58075" x2="-0.40280561122244496" y2="0.55075" /><line stroke-width="5.0e-3" x1="-0.15030060120240496" y1="0.58075" x2="-0.15030060120240496" y2="0.55075" /><line stroke-width="5.0e-3" x1="9.418837675350678e-2" y1="0.58075" x2="9.418837675350678e-2" y2="0.55075" /><line stroke-width="5.0e-3" x1="0.3466933867735469" y1="0.58075" x2="0.3466933867735469" y2="0.55075" /><line stroke-width="5.0e-3" x1="0.6032064128256511" y1="0.58075" x2="0.6032064128256511" y2="0.55075" /><line stroke-width="5.0e-3" x1="0.8597194388777554" y1="0.58075" x2="0.8597194388777554" y2="0.55075" /><line stroke-width="5.0e-3" x1="0.9999999999999998" y1="0.58075" x2="0.9999999999999998" y2="0.55075" /></g><g stroke-width="0.0" stroke="#666666" fill="#5F0391" fill-opacity="0.5" stroke-opacity="0.0"><rect width="1.9999999999999998" height="5.0000000000000044e-3" x="-1.0" y="0.55075" /></g><g stroke-width="5.0e-3" stroke="#A8E5EE" fill="none" stroke-opacity="0.3"><polyline points="-1.005,0.5 1.0049999999999997,0.5" /></g><g stroke-width="5.0e-3" stroke="#A8E5EE" fill="none" stroke-opacity="0.3"><polyline points="-1.005,0.33333333333333337 1.0049999999999997,0.33333333333333337" /></g><g stroke-width="5.0e-3" stroke="#A8E5EE" fill="none" stroke-opacity="0.3"><polyline points="-1.005,0.16666666666666669 1.0049999999999997,0.16666666666666669" /></g><g stroke-width="5.0e-3" stroke="#A8E5EE" fill="none" stroke-opacity="0.3"><polyline points="-1.005,-0.0 1.0049999999999997,-0.0" /></g><g stroke-width="5.0e-3" stroke="#A8E5EE" fill="none" stroke-opacity="0.3"><polyline points="-1.005,-0.16666666666666663 1.0049999999999997,-0.16666666666666663" /></g><g stroke-width="5.0e-3" stroke="#A8E5EE" fill="none" stroke-opacity="0.3"><polyline points="-1.005,-0.33333333333333337 1.0049999999999997,-0.33333333333333337" /></g><g stroke-width="5.0e-3" stroke="#A8E5EE" fill="none" stroke-opacity="0.3"><polyline points="-1.005,-0.5 1.0049999999999997,-0.5" /></g><g stroke-width="0.0" stroke="none" fill="#666666" fill-opacity="1.0" font-size="5.0e-2" text-anchor="end"><text x="-1.0585749999999998" y="0.5145">-0.8%</text></g><g stroke-width="0.0" stroke="none" fill="#666666" fill-opacity="1.0" font-size="5.0e-2" text-anchor="end"><text x="-1.0585749999999998" y="0.3478333333333334">-0.6%</text></g><g stroke-width="0.0" stroke="none" fill="#666666" fill-opacity="1.0" font-size="5.0e-2" text-anchor="end"><text x="-1.0585749999999998" y="0.1811666666666667">-0.4%</text></g><g stroke-width="0.0" stroke="none" fill="#666666" fill-opacity="1.0" font-size="5.0e-2" text-anchor="end"><text x="-1.0585749999999998" y="1.4499999999999999e-2">-0.2%</text></g><g stroke-width="0.0" stroke="none" fill="#666666" fill-opacity="1.0" font-size="5.0e-2" text-anchor="end"><text x="-1.0585749999999998" y="-0.15216666666666662">0.0%</text></g><g stroke-width="0.0" stroke="none" fill="#666666" fill-opacity="1.0" font-size="5.0e-2" text-anchor="end"><text x="-1.0585749999999998" y="-0.31883333333333336">0.2%</text></g><g stroke-width="0.0" stroke="none" fill="#666666" fill-opacity="1.0" font-size="5.0e-2" text-anchor="end"><text x="-1.0585749999999998" y="-0.4855">0.4%</text></g><g stroke-width="0.0" stroke="#2C429D" fill="#5F0391" fill-opacity="1.0" stroke-opacity="0.4"><line stroke-width="5.0e-3" transform="rotate(-90.0, -1.0285, 0.5)" x1="-1.0285" y1="0.515" x2="-1.0285" y2="0.485" /><line stroke-width="5.0e-3" transform="rotate(-90.0, -1.0285, 0.33333333333333337)" x1="-1.0285" y1="0.3483333333333334" x2="-1.0285" y2="0.31833333333333336" /><line stroke-width="5.0e-3" transform="rotate(-90.0, -1.0285, 0.16666666666666669)" x1="-1.0285" y1="0.1816666666666667" x2="-1.0285" y2="0.15166666666666667" /><line stroke-width="5.0e-3" transform="rotate(-90.0, -1.0285, -0.0)" x1="-1.0285" y1="1.5e-2" x2="-1.0285" y2="-1.5e-2" /><line stroke-width="5.0e-3" transform="rotate(-90.0, -1.0285, -0.16666666666666663)" x1="-1.0285" y1="-0.15166666666666662" x2="-1.0285" y2="-0.18166666666666664" /><line stroke-width="5.0e-3" transform="rotate(-90.0, -1.0285, -0.33333333333333337)" x1="-1.0285" y1="-0.31833333333333336" x2="-1.0285" y2="-0.3483333333333334" /><line stroke-width="5.0e-3" transform="rotate(-90.0, -1.0285, -0.5)" x1="-1.0285" y1="-0.485" x2="-1.0285" y2="-0.515" /></g><g stroke-width="0.0" stroke="#666666" fill="#5F0391" fill-opacity="0.5" stroke-opacity="0.0"><rect width="4.999999999999893e-3" height="1.0" x="-1.0185" y="-0.5" /></g><g stroke-width="2.0e-3" stroke="#AC0505" fill="none" stroke-opacity="0.5"><polyline points="-1.0,-0.16666666666666663 0.9999999999999998,-0.16666666666666663" /></g><g stroke-width="7.0e-3" stroke="#4B2282" fill="none" stroke-opacity="0.5"><polyline points="-1.0,-0.20120289976246686 -0.9959919839679359,-0.15298522968427308 -0.9919839679358717,-9.777777752413985e-2 -0.9879759519038076,-0.12230049464190318 -0.9839679358717435,-0.17023387599851525 -0.9799599198396793,-0.18103627808437162 -0.9759519038076152,-0.17830116545532193 -0.9719438877755511,-0.1962742249086562 -0.9679358717434869,-0.26658362409627745 -0.9639278557114228,-0.256276121888918 -0.9599198396793587,-0.22519602231168068 -0.9559118236472945,-0.19834884560188215 -0.9519038076152304,-0.1935054188463169 -0.9478957915831663,-0.19925513989525312 -0.9438877755511023,-0.13801721381501275 -0.9398797595190381,-0.1456193050664476 -0.935871743486974,-0.13898129046481944 -0.9318637274549099,-3.41785290285993e-2 -0.9278557114228457,4.7487926871107644e-2 -0.9238476953907816,-7.48658056400009e-2 -0.9198396793587175,-6.842157933911852e-3 -0.9158316633266533,-2.6628882551409383e-3 -0.9118236472945892,-6.784548310438732e-2 -0.9078156312625251,2.1341300217177173e-2 -0.9038076152304609,-4.029226969955935e-2 -0.8997995991983968,-9.452808229209742e-2 -0.8957915831663327,-0.1266326014956184 -0.8917835671342685,-3.6284025653369634e-2 -0.8877755511022044,-5.668230275303132e-2 -0.8837675350701403,-0.1313006833138255 -0.8797595190380761,-0.10998279141624934 -0.875751503006012,-0.14705406335979632 -0.8717434869739479,-0.1359896948833612 -0.8677354709418837,-0.17117494671300226 -0.8637274549098196,-0.21513733158117188 -0.8597194388777555,-0.2161763833663799 -0.8557114228456915,-0.1897734730231866 -0.8517034068136273,-0.1528965614554164 -0.8476953907815632,-0.15381935809006908 -0.8436873747494991,-9.833302423188928e-2 -0.8396793587174349,-0.10939709780524454 -0.8356713426853708,-0.15551117693705185 -0.8316633266533067,-0.16070647385156278 -0.8276553106212425,-0.1267495149795852 -0.8236472945891784,-0.1393528816092089 -0.8196392785571143,-0.11058544078407229 -0.8156312625250501,-0.10398859453344522 -0.811623246492986,-0.16016337419646565 -0.8076152304609219,-0.1748717912292076 -0.8036072144288577,-0.17335454902146896 -0.7995991983967936,-0.21316868767424602 -0.7955911823647295,-0.2497061345198922 -0.7915831663326653,-0.2526630757596148 -0.7875751503006012,-0.2520428364298355 -0.7835671342685371,-0.2191671313747563 -0.779559118236473,-0.23342685786377548 -0.7755511022044088,-0.2265211868762642 -0.7715430861723447,-0.21254652247389216 -0.7675350701402806,-0.24091754853463487 -0.7635270541082164,-0.2241188009922913 -0.7595190380761523,-0.2347592998307878 -0.7555110220440882,-0.22291607296868543 -0.751503006012024,-0.21027025604507443 -0.7474949899799599,-0.15962519064823177 -0.7434869739478958,-0.21254341276084832 -0.7394789579158316,-0.1814856873052907 -0.7354709418837675,-0.2257064007208771 -0.7314629258517034,-0.2413777260959118 -0.7274549098196392,-0.24056861645929273 -0.7234468937875751,-0.2724189385479052 -0.719438877755511,-0.2641544757302695 -0.7154308617234469,-0.2722843722296123 -0.7114228456913828,-0.2714540582588275 -0.7074148296593187,-0.2734724695210994 -0.7034068136272545,-0.25132278522334783 -0.6993987975951904,-0.2573753975068448 -0.6953907815631263,-0.24859987650395832 -0.6913827655310621,-0.23563491958901572 -0.687374749498998,-0.2153885156437294 -0.6833667334669339,-0.220080298422615 -0.6793587174348698,-0.19088574755097376 -0.6753507014028056,-0.1974256403315936 -0.6713426853707415,-0.1383055117812686 -0.6673346693386774,-0.14889919780533645 -0.6633266533066133,-0.11378096127808313 -0.6593186372745492,-0.14209058029391808 -0.6553106212424851,-0.14647819989998234 -0.6513026052104209,-0.16025121043077606 -0.6472945891783568,-0.1399068616007475 -0.6432865731462927,-0.1770109205288808 -0.6392785571142285,-0.211683364604618 -0.6352705410821644,-0.2460337420429517 -0.6312625250501003,-0.2565122604119455 -0.6272545090180361,-0.22235545471598595 -0.623246492985972,-0.2558668127670982 -0.6192384769539079,-0.2559012042285981 -0.6152304609218437,-0.24715337469425225 -0.6112224448897796,-0.25965330711036705 -0.6072144288577155,-0.26399639987555423 -0.6032064128256514,-0.24262646793999187 -0.5991983967935872,-0.2348747373250053 -0.5951903807615231,-0.23911584304563338 -0.591182364729459,-0.2553663797732193 -0.5871743486973948,-0.288683206892817 -0.5831663326653307,-0.2699286183574605 -0.5791583166332666,-0.23733287648474466 -0.5751503006012024,-0.20975461155449848 -0.5711422845691383,-0.22790370212034428 -0.5671342685370742,-0.2205047953671062 -0.56312625250501,-0.23828934658695478 -0.5591182364729459,-0.25401417959663186 -0.5551102204408818,-0.2643633973217201 -0.5511022044088176,-0.2712294016512762 -0.5470941883767535,-0.26490787159658347 -0.5430861723446894,-0.25398450026383745 -0.5390781563126252,-0.2198714738997234 -0.5350701402805611,-0.20048607756370274 -0.531062124248497,-0.22533231498165962 -0.5270541082164328,-0.19060232977460134 -0.5230460921843687,-0.2222731069365177 -0.5190380761523046,-0.2333161456899442 -0.5150300601202404,-0.24008815047419718 -0.5110220440881764,-0.24502707593506878 -0.5070140280561123,-0.23944975879810826 -0.5030060120240482,-0.22875771268307254 -0.498997995991984,-0.2514019351782423 -0.4949899799599199,-0.27900326120066443 -0.49098196392785576,-0.27450827447515036 -0.4869739478957916,-0.29280470360842414 -0.4829659318637275,-0.2679970852680854 -0.47895791583166336,-0.2634908500222982 -0.47494989979959923,-0.25175092373807506 -0.4709418837675351,-0.23580061594804436 -0.46693386773547096,-0.21709812225105374 -0.46292585170340683,-0.20534405851521242 -0.4589178356713427,-0.21131030623410996 -0.45490981963927857,-0.22463173163336503 -0.45090180360721444,-0.22321934608118965 -0.4468937875751503,-0.2423431797765746 -0.44288577154308617,-0.23970703585300202 -0.43887775551102204,-0.21278297251580403 -0.434869739478958,-0.23278821117337456 -0.4308617234468939,-0.23470083325715818 -0.42685370741482975,-0.26384085094610954 -0.4228456913827656,-0.25744630467238694 -0.4188376753507015,-0.23823281268498842 -0.41482965931863736,-0.2292130541776004 -0.4108216432865732,-0.21235781930897812 -0.4068136272545091,-0.2215710788699916 -0.40280561122244496,-0.21879723198898948 -0.3987975951903808,-0.23133442264145432 -0.3947895791583167,-0.22644783140626412 -0.39078156312625256,-0.2264223843938814 -0.38677354709418843,-0.18925528331369756 -0.3827655310621243,-0.1650287084656339 -0.37875751503006017,-0.1634639627956178 -0.37474949899799603,-0.157711973319284 -0.3707414829659319,-1.8924754021790502e-2 -0.36673346693386777,6.03030677220987e-2 -0.36272545090180364,-9.82140043424995e-3 -0.3587174348697395,7.013346178215085e-3 -0.35470941883767537,-9.028660488947615e-2 -0.35070140280561124,-9.305271512457769e-2 -0.3466933867735471,-3.6331368098300065e-2 -0.342685370741483,-4.1342986629559486e-2 -0.33867735470941884,-2.9655850126496186e-2 -0.3346693386773547,-1.3476905966173014e-2 -0.3306613226452907,0.10949182926335566 -0.32665330661322656,1.879341398157386e-2 -0.3226452905811624,8.235015174072913e-2 -0.3186372745490983,9.73210114136644e-2 -0.31462925851703416,1.934944816893236e-2 -0.31062124248497003,-3.492168506554516e-2 -0.3066132264529059,-8.526934617284143e-2 -0.30260521042084176,-6.29362087047427e-2 -0.29859719438877763,-9.1392288671019e-2 -0.2945891783567135,-0.12115512229444492 -0.29058116232464937,-0.21087686106754 -0.28657314629258523,-0.19819939641853124 -0.2825651302605211,-0.15811615248693278 -0.27855711422845697,-7.563471585905168e-2 -0.27454909819639284,-7.400706840337923e-2 -0.2705410821643287,-4.698926083013866e-2 -0.2665330661322646,-9.688160081345665e-2 -0.26252505010020044,-0.10962434482173011 -0.2585170340681363,-4.254662099214135e-2 -0.2545090180360722,2.757235681867387e-2 -0.25050100200400804,5.199283616502293e-3 -0.2464929859719439,2.4007734823823068e-2 -0.24248496993987978,-4.974671702886613e-2 -0.23847695390781565,-6.916098315869956e-2 -0.23446893787575152,-0.16867814747464394 -0.2304609218436875,-0.159471346518261 -0.22645290581162336,-0.19373756127204023 -0.22244488977955923,-0.2377256902162721 -0.2184368737474951,-9.708845311837033e-2 -0.21442885771543096,-9.421991326096502e-2 -0.21042084168336683,4.7581340225882895e-4 -0.2064128256513027,-1.5217158030099931e-2 -0.20240480961923857,-2.130459221007186e-2 -0.19839679358717444,-5.109299171366266e-2 -0.1943887775551103,-5.603854962616017e-2 -0.19038076152304617,1.8726762485259285e-2 -0.18637274549098204,9.692494486948566e-2 -0.1823647294589179,8.33853769160115e-2 -0.17835671342685377,0.13553052102041702 -0.17434869739478964,0.18666153437928923 -0.1703406813627255,0.2556747936052777 -0.16633266533066138,0.3490851066521746 -0.16232464929859725,0.12161761192395287 -0.1583166332665331,7.167744387674546e-2 -0.15430861723446898,6.493671315913596e-2 -0.15030060120240485,1.812060211110017e-2 -0.14629258517034072,3.5991853087681824e-3 -0.14228456913827658,9.953727407790214e-2 -0.13827655310621245,-5.44370843241353e-2 -0.13426853707414832,-8.915679675937349e-2 -0.1302605210420842,-0.13323473797700924 -0.12625250501002017,-0.15194663190935098 -0.12224448897795603,-0.1714669732836891 -0.1182364729458919,-0.17061733871667928 -0.11422845691382777,-0.1484556599438629 -0.11022044088176364,-0.19380212323399537 -0.1062124248496995,-0.2016933528833007 -0.10220440881763537,-0.23145339606642124 -9.819639278557124e-2,-0.2827845297612136 -9.418837675350711e-2,-0.2175683158484284 -9.018036072144298e-2,-0.22419194165964895 -8.617234468937884e-2,-0.22704392844669563 -8.216432865731471e-2,-0.25924534800677046 -7.815631262525058e-2,-0.22179234807874937 -7.414829659318645e-2,-0.21296394707008892 -7.014028056112231e-2,-0.2749391245318652 -6.613226452905818e-2,-0.3051948719418648 -6.212424849699405e-2,-0.3020109881280917 -5.811623246492992e-2,-0.32338286021484375 -5.4108216432865786e-2,-0.3351194273848519 -5.010020040080165e-2,-0.3174179734774015 -4.609218436873752e-2,-0.27070877070239263 -4.208416833667339e-2,-0.2683232178828565 -3.8076152304609256e-2,-0.2661939394803935 -3.4068136272545124e-2,-0.314583628625664 -3.0060120240480992e-2,-0.319768745763785 -2.605210420841686e-2,-0.3010504607815022 -2.204408817635284e-2,-0.33941462507377795 -1.8036072144288706e-2,-0.337017315849505 -1.4028056112224574e-2,-0.3358978392849665 -1.0020040080160442e-2,-0.3127168256684276 -6.012024048096309e-3,-0.33204197885125586 -2.004008016032177e-3,-0.32890281430082857 2.004008016031955e-3,-0.3174961333983001 6.012024048096087e-3,-0.30768717153623837 1.002004008016022e-2,-0.28884653066663823 1.4028056112224352e-2,-0.31136943966658315 1.8036072144288484e-2,-0.2879338547461957 2.2044088176352616e-2,-0.2771531046822484 2.605210420841675e-2,-0.24435597635264417 3.006012024048088e-2,-0.20647604859508606 3.406813627254501e-2,-0.19559406119367195 3.8076152304609145e-2,-0.2548124237850454 4.208416833667328e-2,-0.2626924935706775 4.609218436873741e-2,-0.2867476465320168 5.010020040080154e-2,-0.277125266109704 5.4108216432865675e-2,-0.292321167009463 5.811623246492981e-2,-0.30145134541558627 6.212424849699394e-2,-0.2941680695473198 6.613226452905807e-2,-0.2755067628204886 7.01402805611222e-2,-0.31503982353921733 7.414829659318634e-2,-0.22780105245544602 7.815631262525047e-2,-0.2212469456394084 8.21643286573146e-2,-0.24833898636105067 8.617234468937873e-2,-0.22485893968628845 9.018036072144286e-2,-0.23687872035949142 9.4188376753507e-2,-0.2613335596179356 9.819639278557113e-2,-0.3045260295438438 0.10220440881763526,-0.29770579312833967 0.1062124248496994,-0.300095805064422 0.11022044088176353,-0.3021012877659569 0.11422845691382766,-0.31460337919250014 0.11823647294589179,-0.31156867687212264 0.12224448897795592,-0.27896534028993414 0.12625250501002006,-0.2878163975915027 0.13026052104208397,-0.2819177535214258 0.1342685370741481,-0.30360344283014573 0.13827655310621223,-0.2941334071479784 0.14228456913827636,-0.28988185557352364 0.1462925851703405,-0.27423609187925224 0.15030060120240463,-0.2754319822074326 0.15430861723446876,-0.2742083248521291 0.1583166332665329,-0.3055077052570433 0.16232464929859702,-0.28942328363779124 0.16633266533066116,-0.2817477790494234 0.1703406813627253,-0.29547018319847307 0.17434869739478942,-0.2934922921201407 0.17835671342685355,-0.291113364002603 0.18236472945891768,-0.2535141709350376 0.18637274549098182,-0.240312444356246 0.19038076152304595,-0.2765973532278936 0.19438877755511008,-0.2524299304371006 0.1983967935871742,-0.17876890003796353 0.20240480961923835,-0.1714691408460508 0.20641282565130248,-0.15862068962906095 0.2104208416833666,-0.1744954628442923 0.21442885771543074,-7.232706851091308e-2 0.21843687374749488,-0.11031066321582317 0.222444889779559,-0.13738677333933924 0.22645290581162314,-0.17575058871251414 0.23046092184368727,-0.15090290447305243 0.2344689378757514,-0.12347335076346111 0.23847695390781554,-0.16088280452089598 0.24248496993987967,-0.14938703074275683 0.2464929859719438,-0.10031062717045103 0.25050100200400793,-0.10926444580707106 0.25450901803607207,-7.708893187725718e-2 0.2585170340681362,-5.266819299447567e-2 0.26252505010020033,-6.710258482514075e-2 0.26653306613226446,-1.6734101619029995e-2 0.2705410821643286,-1.269293460244958e-2 0.2745490981963927,-0.10874965166782524 0.27855711422845686,-0.14551519695929394 0.282565130260521,-0.17205960675804266 0.2865731462925851,-0.21530237378576833 0.29058116232464926,-0.23224233790614301 0.2945891783567134,-0.22750546604128097 0.2985971943887775,-0.21596495152198691 0.30260521042084165,-0.23053758149074421 0.3066132264529058,-0.22062398535614647 0.3106212424849699,-0.2218066012465778 0.31462925851703405,-0.2593433109747202 0.3186372745490982,-0.2671291321525706 0.3226452905811623,-0.3013876981956335 0.32665330661322645,-0.2894015783683749 0.3306613226452906,-0.2760423812622026 0.3346693386773545,-0.2308161968123137 0.3386773547094186,-0.22246415428436206 0.34268537074148275,-0.2355738046418674 0.3466933867735469,-0.25604903889950337 0.350701402805611,-0.28342583065917093 0.35470941883767515,-0.28977056995117434 0.3587174348697393,-0.3154616058781622 0.3627254509018034,-0.30049046674606616 0.36673346693386755,-0.2736027224449993 0.3707414829659317,-0.2734050579024818 0.3747494989979958,-0.2868204164785513 0.37875751503005994,-0.29032364424861623 0.3827655310621241,-0.30334718909477665 0.3867735470941882,-0.2972458864311538 0.39078156312625234,-0.27651032280611465 0.3947895791583165,-0.24371536748496025 0.3987975951903806,-0.25476125546938044 0.40280561122244474,-0.22454031992207768 0.40681362725450887,-0.23341622779483107 0.410821643286573,-0.2585126886447109 0.41482965931863713,-0.27340869108429666 0.41883767535070127,-0.24608702079456857 0.4228456913827654,-0.2727849013787743 0.42685370741482953,-0.26073973259582395 0.43086172344689366,-0.24527780700333235 0.4348697394789578,-0.1957422207844316 0.4388777555110219,-0.1566237451861613 0.44288577154308606,-0.12667010534980494 0.4468937875751502,-2.7108404543849662e-3 0.4509018036072143,-6.479623241589927e-2 0.45490981963927846,-7.308384583119842e-2 0.4589178356713426,-0.15521491465058612 0.4629258517034067,-0.12812669688197087 0.46693386773547085,-7.841282429720042e-2 0.470941883767535,-0.14540195893282826 0.4749498997995991,-2.258872677487478e-2 0.47895791583166325,-4.00477766773093e-2 0.4829659318637274,-0.10605813024318322 0.4869739478957915,-0.15922678757441466 0.49098196392785565,-0.12648955188846422 0.4949899799599198,-0.16271915595835573 0.4989979959919839,-0.1608073517397398 0.503006012024048,-5.1563312435200404e-2 0.5070140280561122,-0.10283145074725475 0.5110220440881763,-9.265520361065072e-2 0.5150300601202404,-0.1235397410468353 0.5190380761523046,-0.17822726457376203 0.5230460921843687,-0.1803266547783028 0.5270541082164328,-0.15079778373624986 0.531062124248497,-0.19652341544976204 0.5350701402805611,-0.24888854893899848 0.539078156312625,-0.24856991659771144 0.5430861723446891,-0.2440830266877302 0.5470941883767533,-0.24155492721530092 0.5511022044088174,-0.26782581545680273 0.5551102204408815,-0.2747470915134127 0.5591182364729457,-0.26632358436575887 0.5631262525050098,-0.24825526749835425 0.5671342685370739,-0.254919276183568 0.5711422845691381,-0.25193428398084716 0.5751503006012022,-0.2477541308528196 0.5791583166332663,-0.22325142762599848 0.5831663326653305,-0.2200182704240793 0.5871743486973946,-0.18213407045100927 0.5911823647294587,-0.20694272135876524 0.5951903807615229,-0.19479612275013436 0.599198396793587,-0.1711790893740407 0.6032064128256511,-0.1919322605620687 0.6072144288577153,-0.13927678558947632 0.6112224448897794,-6.537376158607677e-2 0.6152304609218435,-0.10352301094170702 0.6192384769539077,-0.165500132287268 0.6232464929859718,-0.14685699077980485 0.6272545090180359,-8.250097711406257e-2 0.6312625250501,-0.12447299599451289 0.6352705410821642,-0.15322935700039297 0.6392785571142283,-0.19923280484948525 0.6432865731462925,-0.19182082316149462 0.6472945891783566,-0.23183997205485563 0.6513026052104207,-0.22024153674777225 0.6553106212424848,-0.2290587184450842 0.659318637274549,-0.20957642539772448 0.6633266533066131,-0.23596474688461833 0.6673346693386772,-0.21760380355978926 0.6713426853707414,-0.22690321163211324 0.6753507014028055,-0.23188556972715046 0.6793587174348696,-0.24555974785863566 0.6833667334669338,-0.26480601005061954 0.6873747494989979,-0.2564292434702127 0.691382765531062,-0.26547482052916827 0.6953907815631262,-0.24792008510834196 0.6993987975951903,-0.2839237908122687 0.7034068136272544,-0.2934661262435406 0.7074148296593186,-0.282182807743527 0.7114228456913827,-0.2793330446762834 0.7154308617234468,-0.28505962351435987 0.719438877755511,-0.28979582145621996 0.7234468937875751,-0.27545438331256966 0.7274549098196392,-0.2765292610665888 0.7314629258517034,-0.27399980432384585 0.7354709418837675,-0.27211936700434736 0.7394789579158316,-0.29878851839351583 0.7434869739478958,-0.2942783683392155 0.7474949899799597,-0.28542790871631907 0.7515030060120238,-0.26380961113045176 0.7555110220440879,-0.2523524383804534 0.7595190380761521,-0.2571205412215133 0.7635270541082162,-0.2837613976695603 0.7675350701402803,-0.2870448430342959 0.7715430861723445,-0.2983831656138157 0.7755511022044086,-0.2750503138386198 0.7795591182364727,-0.23351244979276664 0.7835671342685369,-0.20241922208064445 0.787575150300601,-0.2268968348917385 0.7915831663326651,-0.23013168884137847 0.7955911823647293,-0.2648511289008899 0.7995991983967934,-0.2467425989984413 0.8036072144288575,-0.23816573555154263 0.8076152304609217,-0.246690521438104 0.8116232464929858,-0.278267108709757 0.8156312625250499,-0.2729895004320745 0.819639278557114,-0.29734986222067217 0.8236472945891782,-0.292212520064403 0.8276553106212423,-0.2841335871647318 0.8316633266533064,-0.2967993187696901 0.8356713426853706,-0.310845169310339 0.8396793587174347,-0.30724361373995934 0.8436873747494988,-0.29940031923214416 0.847695390781563,-0.31407639626273043 0.8517034068136271,-0.3068475111083089 0.8557114228456912,-0.2756818178719469 0.8597194388777554,-0.2824881043604468 0.8637274549098195,-0.31146326397459356 0.8677354709418836,-0.27470297842501246 0.8717434869739478,-0.28399760032275034 0.8757515030060119,-0.2664344916310748 0.879759519038076,-0.2818230729972766 0.8837675350701402,-0.303703644395687 0.8877755511022043,-0.28493820246862267 0.8917835671342684,-0.3079912673355436 0.8957915831663326,-0.2946096998078481 0.8997995991983967,-0.295997757856573 0.9038076152304608,-0.3242468181458905 0.907815631262525,-0.33242915669147155 0.9118236472945891,-0.3130764474731753 0.9158316633266532,-0.3069602680807745 0.9198396793587174,-0.3046969470707537 0.9238476953907815,-0.25994839422840743 0.9278557114228456,-0.1892186728956361 0.9318637274549098,-0.2297718366300593 0.9358717434869739,-0.2230030357274735 0.939879759519038,-0.23322562144908077 0.9438877755511021,-0.15546249290692327 0.9478957915831663,-0.18614114182150066 0.9519038076152302,-0.24712290103125845 0.9559118236472943,-0.2897158330796099 0.9599198396793585,-0.2973973543010302 0.9639278557114226,-0.2682962744945392 0.9679358717434867,-0.29363016966323063 0.9719438877755509,-0.29431136390245793 0.975951903807615,-0.3147701834337695 0.9799599198396791,-0.3005659391390063 0.9839679358717432,-0.30154529295928767 0.9879759519038074,-0.2826171367599305 0.9919839679358715,-0.2963810640940714 0.9959919839679356,-0.2739669381166894 0.9999999999999998,-0.22454438665311294" /></g><g stroke-width="7.0e-3" stroke="#431712" fill="none" stroke-opacity="0.5"><polyline points="-1.0,-0.22267050189542614 -0.9959919839679359,-0.2127477465356573 -0.9919839679358717,-0.20103319236421902 -0.9879759519038076,-0.20493002524710346 -0.9839679358717435,-0.21374604925128815 -0.9799599198396793,-0.21548225656480824 -0.9759519038076152,-0.21458522523692047 -0.9719438877755511,-0.2178369102374773 -0.9679358717434869,-0.23176762344136914 -0.9639278557114228,-0.2300439370102928 -0.9599198396793587,-0.2240546492356078 -0.9559118236472945,-0.2186649209046443 -0.9519038076152304,-0.21748621001567303 -0.9478957915831663,-0.2184016243520731 -0.9438877755511023,-0.20589116358522286 -0.9398797595190381,-0.20673762569419396 -0.935871743486974,-0.20478793202812662 -0.9318637274549099,-0.18304891080064423 -0.9278557114228457,-0.1651286562064017 -0.9238476953907816,-0.1875951925822834 -0.9198396793587175,-0.17278357086986484 -0.9158316633266533,-0.1702749562141045 -0.9118236472945892,-0.1816955076932545 -0.9078156312625251,-0.16262018385762023 -0.9038076152304609,-0.17316170131660524 -0.8997995991983968,-0.18272906508185294 -0.8957915831663327,-0.1882961259476882 -0.8917835671342685,-0.16951570516055237 -0.8877755511022044,-0.17227673537607913 -0.8837675350701403,-0.18611239028772675 -0.8797595190380761,-0.18127719487608795 -0.875751503006012,-0.18801090506171847 -0.8717434869739479,-0.18537591123271646 -0.8677354709418837,-0.19195010224371145 -0.8637274549098196,-0.20057509497524384 -0.8597194388777555,-0.20093016884663606 -0.8557114228456915,-0.19577847595503162 -0.8517034068136273,-0.18830920772605086 -0.8476953907815632,-0.18813887670446117 -0.8436873747494991,-0.17664739410082464 -0.8396793587174349,-0.17808337693281007 -0.8356713426853708,-0.18665663661817133 -0.8316633266533067,-0.18738738948600142 -0.8276553106212425,-0.18029895697318055 -0.8236472945891784,-0.18229255337874006 -0.8196392785571143,-0.1760837152674325 -0.8156312625250501,-0.17410115896781186 -0.811623246492986,-0.18467832244612004 -0.8076152304609219,-0.1873858377664045 -0.8036072144288577,-0.18695552099328716 -0.7995991983967936,-0.1948135762045734 -0.7955911823647295,-0.20233421363268234 -0.7915831663326653,-0.20340348706001588 -0.7875751503006012,-0.20377346211748149 -0.7835671342685371,-0.1976576613950175 -0.779559118236473,-0.20073633990147266 -0.7755511022044088,-0.1996781505517078 -0.7715430861723447,-0.19714225220272008 -0.7675350701402806,-0.2029919572932768 -0.7635270541082164,-0.20000060089332605 -0.7595190380761523,-0.2023784311602309 -0.7555110220440882,-0.20032629063425877 -0.751503006012024,-0.19801488072465023 -0.7474949899799599,-0.18797339362010757 -0.7434869739478958,-0.1983092500954058 -0.7394789579158316,-0.1922192255154599 -0.7354709418837675,-0.20098570471594546 -0.7314629258517034,-0.20437854566123503 -0.7274549098196392,-0.20458740840787304 -0.7234468937875751,-0.21133945979563618 -0.719438877755511,-0.21029396276479373 -0.7154308617234469,-0.21246553709192273 -0.7114228456913828,-0.21289904407444693 -0.7074148296593187,-0.21389140713732968 -0.7034068136272545,-0.21004526858906802 -0.6993987975951904,-0.21167360098583576 -0.6953907815631263,-0.2103715290278244 -0.6913827655310621,-0.20815410131330614 -0.687374749498998,-0.20436827066002672 -0.6833667334669339,-0.205419953315768 -0.6793587174348698,-0.19971085932311894 -0.6753507014028056,-0.20093414780229857 -0.6713426853707415,-0.18904076112324109 -0.6673346693386774,-0.19065675644635482 -0.6633266533066133,-0.18319445570044524 -0.6593186372745492,-0.18817617510420293 -0.6553106212424851,-0.1885939997703171 -0.6513026052104209,-0.1909338566900981 -0.6472945891783568,-0.18654625567663607 -0.6432865731462927,-0.19351940441726379 -0.6392785571142285,-0.20030685816450033 -0.6352705410821644,-0.20730913354897662 -0.6312625250501003,-0.20979857169166294 -0.6272545090180361,-0.20341788334217292 -0.623246492985972,-0.2103271804527569 -0.6192384769539079,-0.21079062710307084 -0.6152304609218437,-0.20948890790043562 -0.6112224448897796,-0.21237268686397348 -0.6072144288577155,-0.21371741135920075 -0.6032064128256514,-0.2099370311709109 -0.5991983967935872,-0.20871062990917522 -0.5951903807615231,-0.20982314097090482 -0.591182364729459,-0.2133745465313882 -0.5871743486973948,-0.2204743983465084 -0.5831663326653307,-0.21739846256786244 -0.5791583166332666,-0.21139087555922953 -0.5751503006012024,-0.20612271405024163 -0.5711422845691383,-0.20979708770932648 -0.5671342685370742,-0.20849548397132556 -0.56312625250501,-0.21218058355741487 -0.5591182364729459,-0.21559406226727418 -0.5551102204408818,-0.21805340267546658 -0.5511022044088176,-0.219893626410278 -0.5470941883767535,-0.2191410899640559 -0.5430861723446894,-0.21741046765238026 -0.5390781563126252,-0.2109402193313119 -0.5350701402805611,-0.20714468024205124 -0.531062124248497,-0.21205730098716113 -0.5270541082164328,-0.20523035230855668 -0.5230460921843687,-0.21143054695028485 -0.5190380761523046,-0.21375214705954515 -0.5150300601202404,-0.21530521244696654 -0.5110220440881764,-0.21654321369794682 -0.5070140280561123,-0.2157110004894135 -0.5030060120240482,-0.2138063799485549 -0.498997995991984,-0.21849350582943938 -0.4949899799599199,-0.2243537081931748 -0.49098196392785576,-0.2240005588996432 -0.4869739478957916,-0.22817249439094145 -0.4829659318637275,-0.2238495246293365 -0.47895791583166336,-0.22338893380180802 -0.47494989979959923,-0.22143853266769653 -0.4709418837675351,-0.2185465526089515 -0.46693386773547096,-0.21497242502762515 -0.46292585170340683,-0.21263888149021115 -0.4589178356713427,-0.21376108133997418 -0.45490981963927857,-0.21640528739729525 -0.45090180360721444,-0.21620474219891883 -0.4468937875751503,-0.22010605918427306 -0.44288577154308617,-0.219800705364411 -0.43887775551102204,-0.21460659929136405 -0.434869739478958,-0.21859576467565478 -0.4308617234468939,-0.2191210418493763 -0.42685370741482975,-0.22511419920632247 -0.4228456913827656,-0.22422117631381755 -0.4188376753507015,-0.220705349872945 -0.41482965931863736,-0.21907420204829497 -0.4108216432865732,-0.21579963310346173 -0.4068136272545091,-0.2176105553521085 -0.40280561122244496,-0.2170946329379163 -0.3987975951903808,-0.219622775620828 -0.3947895791583167,-0.2187613329403284 -0.39078156312625256,-0.2188332110271185 -0.38677354709418843,-0.21146528028708755 -0.3827655310621243,-0.20639077265450245 -0.37875751503006017,-0.20566319610655315 -0.37474949899799603,-0.2040886489119833 -0.3707414829659319,-0.17582911279216396 -0.36673346693386777,-0.15839109195421108 -0.36272545090180364,-0.17024480004298048 -0.3587174348697395,-0.1652670664410838 -0.35470941883767537,-0.18302738992554912 -0.35070140280561124,-0.1826527209003027 -0.3466933867735471,-0.1703968026793573 -0.342685370741483,-0.1700580438267807 -0.33867735470941884,-0.16642892438778722 -0.3346693386773547,-0.16181969439403532 -0.3306613226452907,-0.13571049599787166 -0.32665330661322656,-0.15141722778320277 -0.3226452905811624,-0.13698642636405167 -0.3186372745490983,-0.13179270764753437 -0.31462925851703416,-0.14511157527128216 -0.31062124248497003,-0.1543319464053603 -0.3066132264529059,-0.16321763671689637 -0.30260521042084176,-0.157965522115037 -0.29859719438877763,-0.16271181666540568 -0.2945891783567135,-0.16795706513617037 -0.29058116232464937,-0.18545280048638624 -0.28657314629258523,-0.18316904024952552 -0.2825651302605211,-0.17529413366917457 -0.27855711422845697,-0.1586081074036353 -0.27454909819639284,-0.1574516117109812 -0.2705410821643287,-0.15120701747088572 -0.2665330661322646,-0.1601526500970214 -0.26252505010020044,-0.16207047121630158 -0.2585170340681363,-0.14811618229912016 -0.2545090180360722,-0.13302139538431557 -0.25050100200400804,-0.13589295319090833 -0.2464929859719439,-0.1307151983055178 -0.24248496993987978,-0.14393185417648346 -0.23847695390781565,-0.1468757215448241 -0.23446893787575152,-0.166020455853365 -0.2304609218436875,-0.16420393959670598 -0.22645290581162336,-0.17101629070294166 -0.22244488977955923,-0.18004957558021983 -0.2184368737474951,-0.1524733625955046 -0.21442885771543096,-0.1513447712634851 -0.21042084168336683,-0.13181666032295247 -0.2064128256513027,-0.1336339621455268 -0.20240480961923857,-0.13366731059391446 -0.19839679358717444,-0.1385056225308927 -0.1943887775551103,-0.1386207081032249 -0.19038076152304617,-0.12282819842954262 -0.18637274549098204,-0.10575843194544865 -0.1823647294589179,-0.1064400881924733 -0.17835671342685377,-9.410247607663103e-2 -0.17434869739478964,-8.156955620626005e-2 -0.1703406813627255,-6.507105631151544e-2 -0.16633266533066138,-4.3163739835632486e-2 -0.16232464929859725,-8.476820777444427e-2 -0.1583166332665331,-9.269869694794064e-2 -0.15430861723446898,-9.240284850248937e-2 -0.15030060120240485,-0.10019875820104851 -0.14629258517034072,-0.10192117851356264 -0.14228456913827658,-8.166286423830837e-2 -0.13827655310621245,-0.11066769464335335 -0.13426853707414832,-0.11705411795673171 -0.1302605210420842,-0.12559707230736938 -0.12625250501002017,-0.1294186351921376 -0.12224448897795603,-0.13355098883496974 -0.1182364729458919,-0.13376037252495476 -0.11422845691382777,-0.12969370766277577 -0.11022044088176364,-0.13895715691497712 -0.1062124248496995,-0.14108533931483724 -0.10220440881763537,-0.1476479670712274 -9.819639278557124e-2,-0.15875985668697734 -9.418837675350711e-2,-0.1469488542212566 -9.018036072144298e-2,-0.14898113786291745 -8.617234468937884e-2,-0.15030452249893744 -8.216432865731471e-2,-0.15751694439729336 -7.815631262525058e-2,-0.15103941049464042 -7.414829659318645e-2,-0.14998057708666324 -7.014028056112231e-2,-0.16301376416697388 -6.613226452905818e-2,-0.17018870056551794 -6.212424849699405e-2,-0.17090243196118982 -5.811623246492992e-2,-0.17649135289554707 -5.4108216432865786e-2,-0.18030992241628152 -5.010020040080165e-2,-0.1783165168273424 -4.609218436873752e-2,-0.1703609106297843 -4.208416833667339e-2,-0.17088759196396253 -3.8076152304609256e-2,-0.17143641574680635 -3.4068136272545124e-2,-0.18206812725289012 -3.0060120240480992e-2,-0.18443166989357618 -2.605210420841686e-2,-0.18204001703595718 -2.204408817635284e-2,-0.1909079709172281 -1.8036072144288706e-2,-0.19191413910957777 -1.4028056112224574e-2,-0.19314195631600517 -1.0020040080160442e-2,-0.18993155024212383 -6.012024048096309e-3,-0.19502720264824602 -2.004008016032177e-3,-0.19576991706074331 2.004008016031955e-3,-0.19481940361525518 6.012024048096087e-3,-0.19408399078126193 1.002004008016022e-2,-0.19145051975620198 1.4028056112224352e-2,-0.1969318943028635 1.8036072144288484e-2,-0.19338733935226082 2.2044088176352616e-2,-0.19217604098142127 2.605210420841675e-2,-0.18646352154498047 3.006012024048088e-2,-0.1794629853910802 3.406813627254501e-2,-0.1775557812513221 3.8076152304609145e-2,-0.18958568952173271 4.208416833667328e-2,-0.19181504463075505 4.609218436873741e-2,-0.19733748309509713 5.010020040080154e-2,-0.1963066219930898 5.4108216432865675e-2,-0.2001557875682599 5.811623246492981e-2,-0.2029047489566218 6.212424849699394e-2,-0.2024333438149738 6.613226452905807e-2,-0.19961715263783975 7.01402805611222e-2,-0.20828655297735987 7.414829659318634e-2,-0.1918990479299183 7.815631262525047e-2,-0.19094682762348403 8.21643286573146e-2,-0.1966707303487153 8.617234468937873e-2,-0.19248960043700536 9.018036072144286e-2,-0.19521841501331072 9.4188376753507e-2,-0.2005282302387339 9.819639278557113e-2,-0.2097786483288313 0.10220440881763526,-0.20936190221551776 0.1062124248496994,-0.2107239020953291 0.11022044088176353,-0.21201924359840119 0.11422845691382766,-0.21542185003253056 0.11823647294589179,-0.2158068780777609 0.12224448897795592,-0.21024163626833348 0.12625250501002006,-0.21270004359711647 0.13026052104208397,-0.21227131278154887 0.1342685370741481,-0.2173068399247131 0.13827655310621223,-0.21627540848643734 0.14228456913827636,-0.21620365127419705 0.1462925851703405,-0.21381039290629777 0.15030060120240463,-0.21465413778155407 0.15430861723446876,-0.2150173167791114 0.1583166332665329,-0.22187156971085797 0.16232464929859702,-0.2194901982834504 0.16633266533066116,-0.21865413331648176 0.1703406813627253,-0.2220307297107731 0.17434869739478942,-0.22236966320197238 0.17835671342685355,-0.22260518447499777 0.18236472945891768,-0.21576811106264882 0.18637274549098182,-0.2135044670287718 0.19038076152304595,-0.22103202837139035 0.19438877755511008,-0.21675279019899163 0.1983967935871742,-0.20237267512290058 0.20240480961923835,-0.20067613887174918 0.20641282565130248,-0.19781346545487555 0.2104208416833666,-0.20059737152542356 0.21442885771543074,-0.17989620130891082 0.21843687374749488,-0.1864192479712976 0.222444889779559,-0.19107481075376442 0.22645290581162314,-0.19821285889507023 0.23046092184368727,-0.19301713890282324 0.2344689378757514,-0.18710832895619778 0.23847695390781554,-0.19395588554297416 0.24248496993987967,-0.19132523337317564 0.2464929859719438,-0.18108761710051036 0.25050100200400793,-0.18207089176458768 0.25450901803607207,-0.1749056985112355 0.2585170340681362,-0.16904174157481167 0.26252505010020033,-0.1707653621221642 0.26653306613226446,-0.15965198865688757 0.2705410821643286,-0.1574139685030186 0.2745490981963927,-0.17518287961944845 0.27855711422845686,-0.18187343749167806 0.282565130260521,-0.18682004071302494 0.2865731462925851,-0.19532320836112838 0.29058116232464926,-0.19891191981547085 0.2945891783567134,-0.19829769255304397 0.2985971943887775,-0.19628115687170988 0.30260521042084165,-0.19939330081307016 0.3066132264529058,-0.19772160960434215 0.3106212424849699,-0.19818727092679633 0.31462925851703405,-0.2059326897641396 0.3186372745490982,-0.2080244638180445 0.3226452905811623,-0.2154689980998752 0.32665330661322645,-0.21393059812756676 0.3306613226452906,-0.2120130205532671 0.3346693386773545,-0.2036061330193506 0.3386773547094186,-0.20220750492720085 0.34268537074148275,-0.20503264185639491 0.3466933867735469,-0.20943408801991148 0.350701402805611,-0.2153769161150454 0.35470941883767515,-0.21732678196137345 0.3587174348697393,-0.22319070380775585 0.3627254509018034,-0.22111873837401863 0.36673346693386755,-0.21653392838951968 0.3707414829659317,-0.2170651956613786 0.3747494989979958,-0.22031234515779896 0.37875751503005994,-0.22167835427609772 0.3827655310621241,-0.2249701909491575 0.3867735470941882,-0.2245336117970933 0.39078156312625234,-0.22111293455707404 0.3947895791583165,-0.21510672271164155 0.3987975951903806,-0.21760247820955225 0.40280561122244474,-0.2119287728037671 0.40681362725450887,-0.21383043686499703 0.410821643286573,-0.21904658357803342 0.41482965931863713,-0.22242108342478917 0.41883767535070127,-0.21746569747400446 0.4228456913827654,-0.22309252999472573 0.42685370741482953,-0.2211800689422303 0.43086172344689366,-0.2184827903570269 0.4348697394789578,-0.20884188901812917 0.4388777555110219,-0.20088578033680282 0.44288577154308606,-0.19445129757942503 0.4468937875751502,-0.1689771863490992 0.4509018036072143,-0.1797334599408742 0.45490981963927846,-0.18024169729266437 0.4589178356713426,-0.19559893342719292 0.4629258517034067,-0.18977647346089999 0.46693386773547085,-0.17921544816730617 0.470941883767535,-0.19160728519158965 0.4749498997995991,-0.16657851367860088 0.47895791583166325,-0.1686307563215188 0.4829659318637274,-0.18054889756301506 0.4869739478957915,-0.19043928258895781 0.49098196392785565,-0.18357863835399646 0.4949899799599198,-0.1902547011724509 0.4989979959919839,-0.1895968841219121 0.503006012024048,-0.16745682376146342 0.5070140280561122,-0.1765528817854114 0.5110220440881763,-0.1737800059539053 0.5150300601202404,-0.17914645498266735 0.5190380761523046,-0.1895294049143662 0.5230460921843687,-0.18983630580758704 0.5270541082164328,-0.18383457828245708 0.531062124248497,-0.19265058266647184 0.5350701402805611,-0.20316380869268857 0.539078156312625,-0.20355738414490843 0.5430861723446891,-0.20311007014518911 0.5470941883767533,-0.20301416679597262 0.5511022044088174,-0.20865451014262415 0.5551102204408815,-0.21063074136761362 0.5591182364729457,-0.20958706595513243 0.5631262525050098,-0.2065403704349449 0.5671342685370739,-0.2082905471071541 0.5711422845691381,-0.20815981924794047 0.5751503006012022,-0.20776148286406837 0.5791583166332663,-0.2032603048140842 0.5831663326653305,-0.20281352919175788 0.5871743486973946,-0.19540782732330042 0.5911823647294587,-0.20023740699126003 0.5951903807615229,-0.19787485610727795 0.599198396793587,-0.19312009563935073 0.6032064128256511,-0.19705178353253705 0.6072144288577153,-0.18646825752959062 0.6112224448897794,-0.17121397466438104 0.6152304609218435,-0.17778617453225143 0.6192384769539077,-0.18944028753391629 0.6232464929859718,-0.18547181256236756 0.6272545090180359,-0.1722129893284322 0.6312625250501,-0.1797110972593895 0.6352705410821642,-0.18491055431533687 0.6392785571142283,-0.19379538919699812 0.6432865731462925,-0.19236721467788465 0.6472945891783566,-0.20036642525484039 0.6513026052104207,-0.19836126403464083 0.6553106212424848,-0.20034370828058456 0.659318637274549,-0.19673402991360622 0.6633266533066131,-0.20214066660724317 0.6673346693386772,-0.19880638390247762 0.6713426853707414,-0.20085444333143743 0.6753507014028055,-0.20211152636276541 0.6793587174348696,-0.20514439795017758 0.6833667334669338,-0.20939821424079796 0.6873747494989979,-0.2082768317881143 0.691382765531062,-0.210567687911131 0.6953907815631262,-0.20760553489002787 0.6993987975951903,-0.21521012621906888 0.7034068136272544,-0.21780596809174158 0.7074148296593186,-0.2163057697225117 0.7114228456913827,-0.21639459547591644 0.7154308617234468,-0.21816945372359298 0.719438877755511,-0.21978573744377716 0.7234468937875751,-0.21761736147937982 0.7274549098196392,-0.21841077577622114 0.7314629258517034,-0.21848607571924406 0.7354709418837675,-0.21866514069957588 0.7394789579158316,-0.22453400508270227 0.7434869739478958,-0.22437450697182293 0.7474949899799597,-0.22330336567991538 0.7515030060120238,-0.21960065050219613 0.7555110220440879,-0.21775115666851663 0.7595190380761521,-0.21905089364035757 0.7635270541082162,-0.22476021187712625 0.7675350701402803,-0.22600701019798874 0.7715430861723445,-0.2288852756212375 0.7755511022044086,-0.22491338008719786 0.7795591182364727,-0.21710658492246915 0.7835671342685369,-0.21105154369395163 0.787575150300601,-0.21586110031216055 0.7915831663326651,-0.21661848414661722 0.7955911823647293,-0.22369801963493186 0.7995991983967934,-0.22048761334906486 0.8036072144288575,-0.21903468684011151 0.8076152304609217,-0.2209310884723249 0.8116232464929858,-0.22750445997635216 0.8156312625250499,-0.22695652687071222 0.819639278557114,-0.232289294498489 0.8236472945891782,-0.23191240616899256 0.8276553106212423,-0.23089955268356954 0.8316633266533064,-0.23396524324576762 0.8356713426853706,-0.23740298046361963 0.8396793587174347,-0.2374170921578901 0.8436873747494988,-0.23654664229876554 0.847695390781563,-0.24011062217118628 0.8517034068136271,-0.23940445821668954 0.8557114228456912,-0.23384540200679782 0.8597194388777554,-0.23562513379023542 0.8637274549098195,-0.2418891798491718 0.8677354709418836,-0.23523245913658386 0.8717434869739478,-0.237486224272222 0.8757515030060119,-0.23443853481008248 0.879759519038076,-0.23783641096544406 0.8837675350701402,-0.24265267295768866 0.8877755511022043,-0.2395099126994663 0.8917835671342684,-0.2445750983079118 0.8957915831663326,-0.24253283083963295 0.8997995991983967,-0.24333125590149451 0.9038076152304608,-0.24950807580958223 0.907815631262525,-0.2518920619367394 0.9118236472945891,-0.24882672429154973 0.9158316633266532,-0.24824595436793317 0.9198396793587174,-0.24838044047328467 0.9238476953907815,-0.2399934522838223 0.9278557114228456,-0.22604632863304308 0.9318637274549098,-0.2337890853725293 0.9358717434869739,-0.23239508131081532 0.939879759519038,-0.2343457769049273 0.9438877755511021,-0.2187811683652222 0.9478957915831663,-0.22428398484920575 0.9519038076152302,-0.23609948954618654 0.9559118236472943,-0.24472873035663734 0.9599198396793585,-0.2467150014017857 0.9639278557114226,-0.24140135531924078 0.9679358717434867,-0.24673733571394985 0.9719438877755509,-0.24734253121577743 0.975951903807615,-0.2519041947352769 0.9799599198396791,-0.2496919043194955 0.9839679358717432,-0.25039654741980155 0.9879759519038074,-0.2471222564816592 0.9919839679358715,-0.25023012902899133 0.9959919839679356,-0.24620863604625276 0.9999999999999998,-0.23660128982361484" /></g><g /><g stroke-width="4.0e-3" stroke="#3764A0" fill="#FFFFFF" fill-opacity="1.0" stroke-opacity="0.5"><rect width="0.34350000000000014" height="0.15500000000000003" x="1.1812499999999997" y="-6.867041083776254e-3" /></g><g stroke-width="0.0" stroke="none" fill="#666666" fill-opacity="1.0" font-size="4.000000000000001e-2" text-anchor="start"><text x="1.2012499999999997" y="0.10713295891622376">rate = 0.99</text></g><g stroke-width="6.999999999999999e-3" stroke="#431712" fill="none" stroke-opacity="0.5"><polyline points="1.4612499999999997,0.10053295891622377 1.5012499999999998,0.10053295891622377" /></g><g stroke-width="0.0" stroke="none" fill="#666666" fill-opacity="1.0" font-size="4.000000000000001e-2" text-anchor="start"><text x="1.2012499999999997" y="5.0132958916223755e-2">rate = 0.95</text></g><g stroke-width="6.999999999999999e-3" stroke="#4B2282" fill="none" stroke-opacity="0.5"><polyline points="1.4612499999999997,4.3532958916223746e-2 1.5012499999999998,4.3532958916223746e-2" /></g><g /></svg>