
<svg xmlns="http://www.w3.org/2000/svg" height="300.0" viewBox="-0.9104277680948124 -0.7283312039844088 1.7014318670455961 1.461347121816856" width="450.0" xmlns:xlink="http://www.w3.org/1999/xlink">
  <g transform="translate(-8.219640591007693e-2, -0.57175)" fill-opacity="1.0" font-size="8.0e-2" stroke="none" stroke-width="0.0" fill="#000000" text-anchor="middle">
    <text transform="rotate(0.0, -0.14087383487083993, -6.25812039844088e-2)" x="-0.14087383487083993" y="-6.25812039844088e-2">ma alpha
    </text>
  </g>
  <g stroke-opacity="0.0" fill-opacity="3.0e-2" stroke="#000000" stroke-width="0.0" fill="#666666">
    <rect height="0.8661758336942399" width="1.1519299626582706" x="-0.7168388161999752" y="-0.4956691208315287"/>
  </g>
  <g stroke-opacity="0.3" stroke="#a8e5ee" stroke-width="5.0e-3" fill="none">
    <polyline points="-0.7145349562746587,0.3748375920311824
-0.7145349562746587,-0.5"/>
  </g>
  <g stroke-opacity="0.3" stroke="#a8e5ee" stroke-width="5.0e-3" fill="none">
    <polyline points="-0.6638500379176948,0.3748375920311824
-0.6638500379176948,-0.5"/>
  </g>
  <g stroke-opacity="0.3" stroke="#a8e5ee" stroke-width="5.0e-3" fill="none">
    <polyline points="-0.5164030026974362,0.3748375920311824
-0.5164030026974362,-0.5"/>
  </g>
  <g stroke-opacity="0.3" stroke="#a8e5ee" stroke-width="5.0e-3" fill="none">
    <polyline points="-0.371259827402494,0.3748375920311824
-0.371259827402494,-0.5"/>
  </g>
  <g stroke-opacity="0.3" stroke="#a8e5ee" stroke-width="5.0e-3" fill="none">
    <polyline points="-0.22611665210755194,0.3748375920311824
-0.22611665210755194,-0.5"/>
  </g>
  <g stroke-opacity="0.3" stroke="#a8e5ee" stroke-width="5.0e-3" fill="none">
    <polyline points="-8.558119666324293e-2,0.3748375920311824
-8.558119666324293e-2,-0.5"/>
  </g>
  <g stroke-opacity="0.3" stroke="#a8e5ee" stroke-width="5.0e-3" fill="none">
    <polyline points="5.956197863169921e-2,0.3748375920311824
5.956197863169921e-2,-0.5"/>
  </g>
  <g stroke-opacity="0.3" stroke="#a8e5ee" stroke-width="5.0e-3" fill="none">
    <polyline points="0.2070090138519578,0.3748375920311824
0.2070090138519578,-0.5"/>
  </g>
  <g stroke-opacity="0.3" stroke="#a8e5ee" stroke-width="5.0e-3" fill="none">
    <polyline points="0.3544560490722164,0.3748375920311824
0.3544560490722164,-0.5"/>
  </g>
  <g stroke-opacity="0.3" stroke="#a8e5ee" stroke-width="5.0e-3" fill="none">
    <polyline points="0.4350911464582954,0.3748375920311824
0.4350911464582954,-0.5"/>
  </g>
  <g fill-opacity="1.0" font-size="5.0e-2" stroke="none" stroke-width="0.0" fill="#666666" text-anchor="end">
    <text transform="rotate(-45.0, -0.7145349562746587, 0.5)" x="-0.7145349562746587" y="0.5">27 Feb 2018
    </text>
  </g>
  <g fill-opacity="1.0" font-size="5.0e-2" stroke="none" stroke-width="0.0" fill="#666666" text-anchor="end">
    <text transform="rotate(-45.0, -0.6638500379176948, 0.5)" x="-0.6638500379176948" y="0.5">31 Mar 2018
    </text>
  </g>
  <g fill-opacity="1.0" font-size="5.0e-2" stroke="none" stroke-width="0.0" fill="#666666" text-anchor="end">
    <text transform="rotate(-45.0, -0.5164030026974362, 0.5)" x="-0.5164030026974362" y="0.5">30 Jun 2018
    </text>
  </g>
  <g fill-opacity="1.0" font-size="5.0e-2" stroke="none" stroke-width="0.0" fill="#666666" text-anchor="end">
    <text transform="rotate(-45.0, -0.371259827402494, 0.5)" x="-0.371259827402494" y="0.5">30 Sep 2018
    </text>
  </g>
  <g fill-opacity="1.0" font-size="5.0e-2" stroke="none" stroke-width="0.0" fill="#666666" text-anchor="end">
    <text transform="rotate(-45.0, -0.22611665210755194, 0.5)" x="-0.22611665210755194" y="0.5">31 Dec 2018
    </text>
  </g>
  <g fill-opacity="1.0" font-size="5.0e-2" stroke="none" stroke-width="0.0" fill="#666666" text-anchor="end">
    <text transform="rotate(-45.0, -8.558119666324293e-2, 0.5)" x="-8.558119666324293e-2" y="0.5">31 Mar 2019
    </text>
  </g>
  <g fill-opacity="1.0" font-size="5.0e-2" stroke="none" stroke-width="0.0" fill="#666666" text-anchor="end">
    <text transform="rotate(-45.0, 5.956197863169921e-2, 0.5)" x="5.956197863169921e-2" y="0.5">30 Jun 2019
    </text>
  </g>
  <g fill-opacity="1.0" font-size="5.0e-2" stroke="none" stroke-width="0.0" fill="#666666" text-anchor="end">
    <text transform="rotate(-45.0, 0.2070090138519578, 0.5)" x="0.2070090138519578" y="0.5">30 Sep 2019
    </text>
  </g>
  <g fill-opacity="1.0" font-size="5.0e-2" stroke="none" stroke-width="0.0" fill="#666666" text-anchor="end">
    <text transform="rotate(-45.0, 0.3544560490722164, 0.5)" x="0.3544560490722164" y="0.5">31 Dec 2019
    </text>
  </g>
  <g fill-opacity="1.0" font-size="5.0e-2" stroke="none" stroke-width="0.0" fill="#666666" text-anchor="end">
    <text transform="rotate(-45.0, 0.4350911464582954, 0.5)" x="0.4350911464582954" y="0.5">21 Feb 2020
    </text>
  </g>
  <g stroke-opacity="0.4" fill-opacity="1.0" stroke="#2c429d" stroke-width="5.0e-3" fill="#5f0391">
    <polyline points="-0.7145349562746587,0.4424577739281074
-0.7145349562746587,0.4124577739281074"/>
    <polyline points="-0.6638500379176948,0.4424577739281074
-0.6638500379176948,0.4124577739281074"/>
    <polyline points="-0.5164030026974362,0.4424577739281074
-0.5164030026974362,0.4124577739281074"/>
    <polyline points="-0.371259827402494,0.4424577739281074
-0.371259827402494,0.4124577739281074"/>
    <polyline points="-0.22611665210755194,0.4424577739281074
-0.22611665210755194,0.4124577739281074"/>
    <polyline points="-8.558119666324293e-2,0.4424577739281074
-8.558119666324293e-2,0.4124577739281074"/>
    <polyline points="5.956197863169921e-2,0.4424577739281074
5.956197863169921e-2,0.4124577739281074"/>
    <polyline points="0.2070090138519578,0.4424577739281074
0.2070090138519578,0.4124577739281074"/>
    <polyline points="0.3544560490722164,0.4424577739281074
0.3544560490722164,0.4124577739281074"/>
    <polyline points="0.4350911464582954,0.4424577739281074
0.4350911464582954,0.4124577739281074"/>
  </g>
  <g stroke-opacity="0.0" fill-opacity="0.5" stroke="#666666" stroke-width="0.0" fill="#5f0391">
    <rect height="4.330879168471247e-3" width="1.1519299626582706" x="-0.7168388161999752" y="0.4144651364226938"/>
  </g>
  <g stroke-opacity="0.3" stroke="#a8e5ee" stroke-width="5.0e-3" fill="none">
    <polyline points="-0.7197186411066209,0.3705067128627112
0.4379709713649409,0.3705067128627112"/>
  </g>
  <g stroke-opacity="0.3" stroke="#a8e5ee" stroke-width="5.0e-3" fill="none">
    <polyline points="-0.7197186411066209,0.2261440739136712
0.4379709713649409,0.2261440739136712"/>
  </g>
  <g stroke-opacity="0.3" stroke="#a8e5ee" stroke-width="5.0e-3" fill="none">
    <polyline points="-0.7197186411066209,8.17814349646312e-2
0.4379709713649409,8.17814349646312e-2"/>
  </g>
  <g stroke-opacity="0.3" stroke="#a8e5ee" stroke-width="5.0e-3" fill="none">
    <polyline points="-0.7197186411066209,-6.25812039844088e-2
0.4379709713649409,-6.25812039844088e-2"/>
  </g>
  <g stroke-opacity="0.3" stroke="#a8e5ee" stroke-width="5.0e-3" fill="none">
    <polyline points="-0.7197186411066209,-0.2069438429334487
0.4379709713649409,-0.2069438429334487"/>
  </g>
  <g stroke-opacity="0.3" stroke="#a8e5ee" stroke-width="5.0e-3" fill="none">
    <polyline points="-0.7197186411066209,-0.3513064818824887
0.4379709713649409,-0.3513064818824887"/>
  </g>
  <g stroke-opacity="0.3" stroke="#a8e5ee" stroke-width="5.0e-3" fill="none">
    <polyline points="-0.7197186411066209,-0.4956691208315287
0.4379709713649409,-0.4956691208315287"/>
  </g>
  <g fill-opacity="1.0" font-size="5.0e-2" stroke="none" stroke-width="0.0" fill="#666666" text-anchor="end">
    <text x="-0.75" y="0.3830662624512776">-60%
    </text>
  </g>
  <g fill-opacity="1.0" font-size="5.0e-2" stroke="none" stroke-width="0.0" fill="#666666" text-anchor="end">
    <text x="-0.75" y="0.23870362350223773">-40%
    </text>
  </g>
  <g fill-opacity="1.0" font-size="5.0e-2" stroke="none" stroke-width="0.0" fill="#666666" text-anchor="end">
    <text x="-0.75" y="9.434098455319773e-2">-20%
    </text>
  </g>
  <g fill-opacity="1.0" font-size="5.0e-2" stroke="none" stroke-width="0.0" fill="#666666" text-anchor="end">
    <text x="-0.75" y="-5.0021654395842385e-2">0%
    </text>
  </g>
  <g fill-opacity="1.0" font-size="5.0e-2" stroke="none" stroke-width="0.0" fill="#666666" text-anchor="end">
    <text x="-0.75" y="-0.19438429334488216">20%
    </text>
  </g>
  <g fill-opacity="1.0" font-size="5.0e-2" stroke="none" stroke-width="0.0" fill="#666666" text-anchor="end">
    <text x="-0.75" y="-0.3387469322939223">40%
    </text>
  </g>
  <g fill-opacity="1.0" font-size="5.0e-2" stroke="none" stroke-width="0.0" fill="#666666" text-anchor="end">
    <text x="-0.75" y="-0.4831095712429623">60%
    </text>
  </g>
  <g stroke-opacity="0.4" fill-opacity="1.0" stroke="#2c429d" stroke-width="5.0e-3" fill="#5f0391">
    <g transform="rotate(-90.0, -0.7312379407332036, 0.3705067128627112)">
      <polyline points="-0.7312379407332036,0.3855067128627112
-0.7312379407332036,0.3555067128627112"/>
    </g>
    <g transform="rotate(-90.0, -0.7312379407332036, 0.2261440739136712)">
      <polyline points="-0.7312379407332036,0.2411440739136712
-0.7312379407332036,0.21114407391367118"/>
    </g>
    <g transform="rotate(-90.0, -0.7312379407332036, 8.17814349646312e-2)">
      <polyline points="-0.7312379407332036,9.67814349646312e-2
-0.7312379407332036,6.67814349646312e-2"/>
    </g>
    <g transform="rotate(-90.0, -0.7312379407332036, -6.25812039844088e-2)">
      <polyline points="-0.7312379407332036,-4.758120398440881e-2
-0.7312379407332036,-7.75812039844088e-2"/>
    </g>
    <g transform="rotate(-90.0, -0.7312379407332036, -0.2069438429334487)">
      <polyline points="-0.7312379407332036,-0.19194384293344868
-0.7312379407332036,-0.2219438429334487"/>
    </g>
    <g transform="rotate(-90.0, -0.7312379407332036, -0.3513064818824887)">
      <polyline points="-0.7312379407332036,-0.3363064818824887
-0.7312379407332036,-0.3663064818824887"/>
    </g>
    <g transform="rotate(-90.0, -0.7312379407332036, -0.4956691208315287)">
      <polyline points="-0.7312379407332036,-0.4806691208315287
-0.7312379407332036,-0.5106691208315287"/>
    </g>
  </g>
  <g stroke-opacity="0.0" fill-opacity="0.5" stroke="#666666" stroke-width="0.0" fill="#5f0391">
    <rect height="0.8661758336942399" width="2.8798249066456227e-3" x="-0.7254782909199122" y="-0.4956691208315287"/>
  </g>
  <g stroke-opacity="0.5" stroke="#ac0505" stroke-width="2.0e-3" fill="none">
    <polyline points="-0.7145349562746587,-6.25812039844088e-2
0.4350911464582954,-6.25812039844088e-2"/>
  </g>
  <g stroke-opacity="0.5" stroke="#4b2282" stroke-width="7.0e-3" fill="none">
    <polyline points="-0.7145349562746587,-6.288735933948197e-2
-0.7122310963493421,-6.246932894521151e-2
-0.7099272364240256,-6.198959029853601e-2
-0.707623376498709,-6.2201829800679675e-2
-0.7053195165733925,-6.261700405006387e-2
-0.703015656648076,-6.271040275577922e-2
-0.7007117967227594,-6.268659824742917e-2
-0.6984079367974428,-6.284217623265564e-2
-0.6961040768721263,-6.34507070578535e-2
-0.6938002169468098,-6.33622208533886e-2
-0.6914963570214933,-6.309396982582927e-2
-0.6891924970961767,-6.286180121739815e-2
-0.6868886371708601,-6.281982953211729e-2
-0.6845847772455436,-6.286958183491609e-2
-0.6822809173202271,-6.2338612634860846e-2
-0.6799770573949105,-6.240407903319267e-2
-0.677673197469594,-6.23460313043932e-2
-0.6753693375442774,-6.143555403323464e-2
-0.673065477618961,-6.0725622466063944e-2
-0.6707616176936444,-6.178685371947923e-2
-0.6684577577683278,-6.119686054251061e-2
-0.6661538978430113,-6.115984673476271e-2
-0.6638500379176948,-6.172267049885949e-2
-0.6615461779923782,-6.095078223596262e-2
-0.6592423180670617,-6.148212246067486e-2
-0.6569384581417451,-6.195023097281216e-2
-0.6546345982164286,-6.222776428624166e-2
-0.6523307382911121,-6.1446012282651785e-2
-0.6500268783657955,-6.162145313158662e-2
-0.647723018440479,-6.226636563038901e-2
-0.6454191585151624,-6.208180368343974e-2
-0.6431152985898458,-6.240280856993874e-2
-0.6408114386645294,-6.230714319136654e-2
-0.6385075787392128,-6.261232434460051e-2
-0.6362037188138963,-6.299439962402842e-2
-0.6338998588885797,-6.300416281429544e-2
-0.6315959989632631,-6.277568084302332e-2
-0.6292921390379467,-6.2456422872246065e-2
-0.6269882791126301,-6.246456082339713e-2
-0.6246844191873135,-6.19842246721829e-2
-0.622380559261997,-6.2079560553513935e-2
-0.6200766993366804,-6.2478617480379195e-2
-0.617772839411364,-6.252383786822158e-2
-0.6154689794860474,-6.222986338062142e-2
-0.6131651195607308,-6.2338892952272684e-2
-0.6108612596354144,-6.208983364132692e-2
-0.6085573997100978,-6.203249361818919e-2
-0.6062535397847812,-6.251860653099472e-2
-0.6039496798594648,-6.264641822720896e-2
-0.6016458199341481,-6.263362833718034e-2
-0.5993419600088317,-6.297950448212553e-2
-0.5970381000835151,-6.329749286119346e-2
-0.5947342401581985,-6.332386114909505e-2
-0.592430380232882,-6.331912580039256e-2
-0.5901265203075654,-6.303467365330795e-2
-0.587822660382249,-6.315874899816831e-2
-0.5855188004569324,-6.309946896471363e-2
-0.5832149405316158,-6.297893275524502e-2
-0.5809110806062993,-6.322494937113554e-2
-0.5786072206809827,-6.308009363488598e-2
-0.5763033607556662,-6.317256740354438e-2
-0.5739995008303497,-6.307058340587046e-2
-0.5716956409050331,-6.296154823017797e-2
-0.5693917809797165,-6.252324195112957e-2
-0.5670879210544,-6.298140935637997e-2
-0.5647840611290835,-6.271283000424399e-2
-0.562480201203767,-6.309562116433787e-2
-0.5601763412784504,-6.32314916174479e-2
-0.5578724813531338,-6.322496608415273e-2
-0.5555686214278173,-6.350036431421446e-2
-0.5532647615025008,-6.342966539992556e-2
-0.5509609015771842,-6.350020033778547e-2
-0.5486570416518677,-6.349353619645903e-2
-0.5463531817265511,-6.351135250797713e-2
-0.5440493218012346,-6.332125485723483e-2
-0.5417454618759181,-6.337372955589848e-2
-0.5394416019506015,-6.329852030977734e-2
-0.537137742025285,-6.318700891027196e-2
-0.5348338820999685,-6.301214968778812e-2
-0.5325300221746518,-6.305277379072483e-2
-0.5302261622493354,-6.279959314731853e-2
-0.5279223023240188,-6.28562345993211e-2
-0.5256184423987023,-6.234105136744039e-2
-0.5233145824733857,-6.2433256116328884e-2
-0.5210107225480691,-6.2126011720969765e-2
-0.5187068626227527,-6.237320634461119e-2
-0.516403002697436,-6.241103104447443e-2
-0.5140991427721195,-6.253051862279524e-2
-0.5117952828468031,-6.235327079109598e-2
-0.5094914229214865,-6.267542864769249e-2
-0.50718756299617,-6.297563805642392e-2
-0.5048837030708534,-6.327255186987168e-2
-0.5025798431455368,-6.336324628444678e-2
-0.5002759832202204,-6.306926205828078e-2
-0.4979721232949038,-6.335865035726762e-2
-0.49566826336958725,-6.335935839126272e-2
-0.4933644034442707,-6.328446881278604e-2
-0.4910605435189542,-6.33923643772607e-2
-0.4887566835936376,-6.343003555025417e-2
-0.4864528236683211,-6.324679631533048e-2
-0.48414896374300453,-6.318023947381135e-2
-0.481845103817688,-6.321699242830381e-2
-0.47954124389237146,-6.335706138217867e-2
-0.4772373839670549,-6.364289288612435e-2
-0.47493352404173844,-6.348322292355169e-2
-0.47262966411642193,-6.320365632827718e-2
-0.47032580419110537,-6.296499252761512e-2
-0.4680219442657888,-6.312232858118794e-2
-0.46571808434047224,-6.305828739637642e-2
-0.46341422441515573,-6.321214783911122e-2
-0.46111036448983916,-6.334774719723402e-2
-0.45880650456452265,-6.343681497367004e-2
-0.4565026446392061,-6.349586556735509e-2
-0.4541987847138896,-6.344215097600281e-2
-0.45189492478857296,-6.334881070770826e-2
-0.44959106486325645,-6.305433175255692e-2
-0.44728720493793994,-6.288510994960217e-2
-0.4449833450126234,-6.310158408047861e-2
-0.4426794850873068,-6.279886066052753e-2
-0.4403756251619903,-6.307498106518461e-2
-0.4380717652366738,-6.31706071456033e-2
-0.4357679053113572,-6.322917183896992e-2
-0.43346404538604066,-6.327187714580362e-2
-0.4311601854607241,-6.322393898785283e-2
-0.4288563255354076,-6.313157509985068e-2
-0.426552465610091,-6.332710213236925e-2
-0.4242486056847745,-6.356365751309401e-2
-0.42194474575945795,-6.352574280892032e-2
-0.4196408858341414,-6.368160694246161e-2
-0.4173370259088248,-6.347138679010622e-2
-0.4150331659835083,-6.343306987862507e-2
-0.4127293060581918,-6.333243909749509e-2
-0.41042544613287524,-6.31946019120102e-2
-0.4081215862075587,-6.303146961909256e-2
-0.4058177262822421,-6.29280360827611e-2
-0.4035138663569256,-6.29802484270553e-2
-0.40121000643160903,-6.309662945587802e-2
-0.3989061465062925,-6.308419570375201e-2
-0.39660228658097596,-6.325013098249321e-2
-0.39429842665565945,-6.322742406090787e-2
-0.3919945667303429,-6.299324555961983e-2
-0.3896907068050263,-6.316760014904277e-2
-0.3873868468797098,-6.318415576866632e-2
-0.38508298695439325,-6.343498878985332e-2
-0.3827791270290768,-6.338059139794916e-2
-0.38047526710376023,-6.321544575553661e-2
-0.37817140717844366,-6.313717889113568e-2
-0.37586754725312715,-6.298983750635845e-2
-0.37356368732781053,-6.307032473610197e-2
-0.371259827402494,-6.304594528929008e-2
-0.3689559674771775,-6.315505689932832e-2
-0.36665210755186095,-6.31125640911766e-2
-0.3643482476265444,-6.311226460642227e-2
-0.3620443877012279,-6.278615558837464e-2
-0.35974052777591137,-6.257075893149588e-2
-0.3574366678505948,-6.255658154600985e-2
-0.35513280792527824,-6.250505017232955e-2
-0.35282894799996173,-6.129301323245773e-2
-0.3505250880746452,-6.0599479548691604e-2
-0.34822122814932865,-6.12209264828979e-2
-0.3459173682240121,-6.107471821198818e-2
-0.3436135082986956,-6.1921174366234455e-2
-0.34130964837337896,-6.194457478448334e-2
-0.3390057884480624,-6.1452516190715456e-2
-0.3367019285227459,-6.14954156378803e-2
-0.3343980685974294,-6.139386124120949e-2
-0.3320942086721128,-6.125374556917862e-2
-0.32979034874679625,-6.0192121076282024e-2
-0.32748648882147974,-6.0972073425779594e-2
-0.32518262889616323,-6.042445960126763e-2
-0.32287876897084666,-6.029618811213011e-2
-0.3205749090455301,-6.096352422100959e-2
-0.3182710491202136,-6.142976765648045e-2
-0.3159671891948971,-6.186412941729991e-2
-0.3136633292695805,-6.1670841288425926e-2
-0.31135946934426395,-6.1916720537086745e-2
-0.30905560941894744,-6.217472923026712e-2
-0.30675174949363093,-6.295538009230262e-2
-0.30444788956831437,-6.284547062660817e-2
-0.3021440296429978,-6.249710355001015e-2
-0.2998401697176813,-6.178220531174172e-2
-0.2975363097923648,-6.1767859601613795e-2
-0.2952324498670482,-6.153417136798134e-2
-0.29292858994173165,-6.196481094090578e-2
-0.29062473001641514,-6.207515981604461e-2
-0.28832087009109864,-6.149494541240319e-2
-0.28601701016578207,-6.0890462004865586e-2
-0.28371315024046545,-6.108179396263258e-2
-0.28140929031514894,-6.091955504491686e-2
-0.2791054303898324,-6.155299619291721e-2
-0.2768015704645158,-6.1720522741731676e-2
-0.2744977105391993,-6.258452398601311e-2
-0.2721938506138828,-6.250497537514521e-2
-0.26988999068856623,-6.280439511216962e-2
-0.26758613076324966,-6.318942613319078e-2
-0.26528227083793315,-6.196537062080454e-2
-0.26297841091261664,-6.194049923884326e-2
-0.2606745509873001,-6.11220956375742e-2
-0.2583706910619835,-6.1256499081419835e-2
-0.256066831136667,-6.130827736357913e-2
-0.2537629712113504,-6.156473064815671e-2
-0.2514591112860338,-6.1607117607642814e-2
-0.24915525136071737,-6.096196041816182e-2
-0.2468513914354008,-6.0289839642377996e-2
-0.24454753151008424,-6.040471311237072e-2
-0.24224367158476767,-5.995858495990891e-2
-0.2399398116594511,-5.952365636964807e-2
-0.23763595173413465,-5.894030985648746e-2
-0.2353320918088182,-5.815549070872639e-2
-0.23302823188350164,-6.00598425898502e-2
-0.23072437195818507,-6.048791277667753e-2
-0.2284205120328685,-6.0545353149635495e-2
-0.22611665210755194,-6.094888148379085e-2
-0.22381279218223538,-6.107448899842671e-2
-0.2215089322569188,-6.024613577555926e-2
-0.21920507233160236,-6.157584913689407e-2
-0.2169012124062858,-6.187900179395067e-2
-0.21459735248096923,-6.226494026291918e-2
-0.21229349255565277,-6.2429838279659866e-2
-0.2099896326303362,-6.260197959575686e-2
-0.20768577270501964,-6.259560379362894e-2
-0.20538191277970308,-6.240258508380159e-2
-0.20307805285438651,-6.280024639065651e-2
-0.20077419292907006,-6.287037237284177e-2
-0.1984703330037535,-6.313214043946935e-2
-0.19616647307843693,-6.358326926771796e-2
-0.19386261315312037,-6.301136649718664e-2
-0.1915587532278038,-6.307005496382179e-2
-0.18925489330248724,-6.309573530052026e-2
-0.18695103337717067,-6.337761646831952e-2
-0.18464717345185422,-6.305126513939707e-2
-0.18234331352653765,-6.297504566914458e-2
-0.1800394536012211,-6.351529106125198e-2
-0.17773559367590464,-6.37795533327492e-2
-0.17543173375058807,-6.375211790812085e-2
-0.1731278738252714,-6.39383792349828e-2
-0.17082401389995483,-6.404046678488429e-2
-0.16852015397463838,-6.388676998205056e-2
-0.1662162940493218,-6.348217966331615e-2
-0.16391243412400536,-6.346195363898799e-2
-0.1616085741986888,-6.344393587818631e-2
-0.15930471427337234,-6.386291460848748e-2
-0.15700085434805577,-6.390796823272293e-2
-0.1546969944227392,-6.374670107039881e-2
-0.15239313449742264,-6.407792499276033e-2
-0.15008927457210608,-6.405739525194543e-2
-0.14778541464678963,-6.404788694776997e-2
-0.14548155472147306,-6.38489338467273e-2
-0.1431776947961565,-6.401528641180498e-2
-0.14087383487083993,-6.398852807903055e-2
-0.13856997494552337,-6.389092032569588e-2
-0.1362661150202068,-6.380698405114382e-2
-0.13396225509489024,-6.36454013753508e-2
-0.13165839516957378,-6.38393087389646e-2
-0.12935453524425722,-6.3638436789344e-2
-0.12705067531894065,-6.354580520446773e-2
-0.1247468153936242,-6.326283459774529e-2
-0.12244295546830763,-6.29339246192181e-2
-0.12013909554299107,-6.283876363229923e-2
-0.1178352356176745,-6.335444027455983e-2
-0.11553137569235794,-6.342263132354609e-2
-0.11322751576704149,-6.363030636834732e-2
-0.11092365584172492,-6.354772375095097e-2
-0.10861979591640836,-6.367873760444875e-2
-0.10631593599109179,-6.375736792571196e-2
-0.10401207606577523,-6.369516539965736e-2
-0.10170821614045866,-6.353499714059974e-2
-9.94043562151421e-2,-6.387527688449979e-2
-9.710049628982564e-2,-6.312481410656434e-2
-9.479663636450908e-2,-6.306745205355369e-2
-9.249277643919251e-2,-6.33030124992291e-2
-9.018891651387606e-2,-6.309893811779965e-2
-8.78850565885595e-2,-6.320333813713619e-2
-8.558119666324293e-2,-6.34153753410136e-2
-8.327733673792637e-2,-6.378792750522966e-2
-8.09734768126098e-2,-6.372977864094331e-2
-7.866961688729335e-2,-6.375060308719949e-2
-7.636575696197667e-2,-6.376811243888114e-2
-7.406189703666022e-2,-6.387549479553811e-2
-7.175803711134365e-2,-6.384990921202183e-2
-6.945417718602709e-2,-6.357054339701762e-2
-6.715031726071052e-2,-6.364698454987927e-2
-6.484645733539396e-2,-6.35963144268401e-2
-6.25425974100775e-2,-6.378304253817957e-2
-6.023873748476094e-2,-6.370209166282925e-2
-5.7934877559444375e-2,-6.366571563492107e-2
-5.563101763412792e-2,-6.353089168736803e-2
-5.332715770881136e-2,-6.354125099829033e-2
-5.10232977834949e-2,-6.353067236244214e-2
-4.871943785817834e-2,-6.380043208249864e-2
-4.641557793286177e-2,-6.366286023485057e-2
-4.411171800754521e-2,-6.35968175909567e-2
-4.1807858082228755e-2,-6.371512522489153e-2
-3.950399815691219e-2,-6.369830411325195e-2
-3.7200138231595625e-2,-6.367799507801719e-2
-3.489627830627917e-2,-6.335216683527678e-2
-3.259241838096261e-2,-6.323591239158455e-2
-3.0288558455646042e-2,-6.355338660461585e-2
-2.7984698530329366e-2,-6.334318627140201e-2
-2.5680838605012912e-2,-6.26941399489166e-2
-2.3376978679696347e-2,-6.262858872621357e-2
-2.1073118754379783e-2,-6.251349417689156e-2
-1.876925882906333e-2,-6.265539410906396e-2
-1.6465398903746764e-2,-6.175403819475955e-2
-1.41615389784302e-2,-6.209422046168489e-2
-1.1857679053113634e-2,-6.233337015441387e-2
-9.55381912779707e-3,-6.266959366587588e-2
-7.249959202480616e-3,-6.245201372549025e-2
-4.946099277164051e-3,-6.221128790085717e-2
-2.6422393518474863e-3,-6.253865564445382e-2
-3.383794265310325e-4,-6.243792064320908e-2
1.9654804987856433e-3,-6.200879054150643e-2
4.269340424102097e-3,-6.208690560500241e-2
6.573200349418773e-3,-6.1805407784870425e-2
8.877060274735227e-3,-6.159193317937606e-2
1.1180920200051792e-2,-6.171844213395228e-2
1.3484780125368245e-2,-6.1280119933167065e-2
1.578864005068481e-2,-6.124609288717309e-2
1.8092499976001264e-2,-6.207974998983379e-2
2.039635990131794e-2,-6.239778714475541e-2
2.2700219826634616e-2,-6.26275458955613e-2
2.500407975195107e-2,-6.300219491675907e-2
2.7307939677267634e-2,-6.314927917016544e-2
2.9611799602584088e-2,-6.310868680669202e-2
3.191565952790065e-2,-6.300917658124705e-2
3.4219519453217107e-2,-6.313560051105194e-2
3.652337937853378e-2,-6.305020511181625e-2
3.8827239303850236e-2,-6.306073500954945e-2
4.113109922916691e-2,-6.338554917601225e-2
4.3434959154483366e-2,-6.345313627431781e-2
4.573881907979993e-2,-6.374880372563596e-2
4.8042679005116384e-2,-6.364595402903905e-2
5.034653893043295e-2,-6.353141551717034e-2
5.2650398855749625e-2,-6.314236022443098e-2
5.495425878106608e-2,-6.307037904311652e-2
5.7258118706382755e-2,-6.318380408405644e-2
5.956197863169921e-2,-6.336065419151471e-2
6.186583855701577e-2,-6.35965025428179e-2
6.416969848233223e-2,-6.365123508996617e-2
6.647355840764879e-2,-6.387140577800643e-2
6.877741833296525e-2,-6.374397955551891e-2
7.108127825828192e-2,-6.351446072326206e-2
7.338513818359838e-2,-6.351303959101118e-2
7.568899810891505e-2,-6.36283030147774e-2
7.79928580342315e-2,-6.36585188255826e-2
8.029671795954807e-2,-6.376988696292885e-2
8.260057788486463e-2,-6.371823765581319e-2
8.490443781018109e-2,-6.35416955843594e-2
8.720829773549776e-2,-6.325987714616321e-2
8.951215766081422e-2,-6.335546573272344e-2
9.18160175861309e-2,-6.30937849522506e-2
9.411987751144713e-2,-6.317093731036771e-2
9.64237374367638e-2,-6.338836929188074e-2
9.872759736208037e-2,-6.35166711501457e-2
0.10103145728739682,-6.328177483093622e-2
0.10333531721271338,-6.35122694142376e-2
0.10563917713802984,-6.340894972984701e-2
0.10794303706334651,-6.327550571301255e-2
0.11024689698866297,-6.284364274882659e-2
0.11255075691397964,-6.2498524733842986e-2
0.1148546168392961,-6.223269439417556e-2
0.11715847676461266,-6.1145788999404815e-2
0.11946233668992912,-6.1698948907565554e-2
0.12176619661524568,-6.177164226862808e-2
0.12407005654056213,-6.2488705567319336e-2
0.1263739164658788,-6.22528030852878e-2
0.12867777639119526,-6.181963345491881e-2
0.13098163631651194,-6.240183893237394e-2
0.1332854962418285,-6.1334950363713836e-2
0.13558935616714496,-6.1486089716017545e-2
0.13789321609246152,-6.205798514230909e-2
0.14019707601777798,-6.251809567123201e-2
0.14250093594309465,-6.2234344456884805e-2
0.1448047958684111,-6.254777971880376e-2
0.14710865579372778,-6.253114365177292e-2
0.14941251571904424,-6.158465292451454e-2
0.1517163756443608,-6.2027780220942796e-2
0.15402023556967726,-6.1939112935202045e-2
0.15632409549499382,-6.220589204775229e-2
0.15862795542031027,-6.267920928881854e-2
0.16093181534562695,-6.269761733563683e-2
0.16323567527094363,-6.244205013578552e-2
0.16553953519626008,-6.283809420945219e-2
0.16784339512157664,-6.329224951480994e-2
0.1701472550468931,-6.329021274007418e-2
0.17245111497220966,-6.325204082271085e-2
0.17475497489752612,-6.323078369046908e-2
0.1770588348228428,-6.345871454230367e-2
0.17936269474815925,-6.351923216579614e-2
0.18166655467347592,-6.344709224217826e-2
0.18397041459879238,-6.329157226376236e-2
0.18627427452410894,-6.334964229680207e-2
0.1885781344494254,-6.332436058765367e-2
0.19088199437474196,-6.328871832393412e-2
0.1931858543000584,-6.307740157991037e-2
0.1954897142253751,-6.304964073357766e-2
0.19779357415069176,-6.272172036806312e-2
0.20009743407600822,-6.293656132335435e-2
0.20240129400132478,-6.283140306874258e-2
0.20470515392664124,-6.26265249462884e-2
0.2070090138519578,-6.28062846960512e-2
0.20931287377727426,-6.2349210970204516e-2
0.21161673370259093,-6.170576964122676e-2
0.21392059362790738,-6.2037416286496394e-2
0.21622445355322406,-6.257473240271372e-2
0.21852831347854051,-6.241292303563384e-2
0.22083217340385708,-6.18542621594671e-2
0.22313603332917353,-6.221769161653368e-2
0.2254398932544901,-6.246643301349808e-2
0.22774375317980677,-6.286469848000731e-2
0.23004761310512323,-6.280076226015341e-2
0.2323514730304399,-6.314738167007561e-2
0.23465533295575636,-6.304751723955326e-2
0.23695919288107292,-6.312418806290898e-2
0.23926305280638938,-6.295607438841266e-2
0.24156691273170594,-6.31846053843711e-2
0.2438707726570224,-6.302629599971876e-2
0.24617463258233885,-6.310700879330078e-2
0.24847849250765552,-6.315042657603542e-2
0.250782352432972,-6.326891787708566e-2
0.25308621235828865,-6.343540273086612e-2
0.2553900722836051,-6.336372300596216e-2
0.2576939322089218,-6.344209977904736e-2
0.259997792134238,-6.329138842468451e-2
0.2623016520595547,-6.360175485585229e-2
0.26460551198487114,-6.368408932375313e-2
0.2669093719101878,-6.358784942664553e-2
0.2692132318355043,-6.356383901019635e-2
0.27151709176082095,-6.361330778478191e-2
0.2738209516861374,-6.365420957398737e-2
0.27612481161145386,-6.353194401451279e-2
0.27842867153677053,-6.354148125724313e-2
0.280732531462087,-6.352013519442767e-2
0.28303639138740366,-6.350431726876926e-2
0.2853402513127201,-6.373264298867232e-2
0.2876441112380368,-6.369461376610042e-2
0.28994797116335325,-6.361957237273885e-2
0.2922518310886697,-6.343493412069656e-2
0.2945556910139864,-6.333638557414012e-2
0.29685955093930283,-6.337760661878267e-2
0.2991634108646193,-6.360661261244172e-2
0.30146727078993596,-6.363487459241524e-2
0.3037711307152524,-6.373156593962526e-2
0.3060749906405691,-6.353346122267278e-2
0.30837885056588554,-6.317489945856458e-2
0.3106827104912022,-6.290213916521536e-2
0.3129865704165187,-6.311713594766666e-2
0.3152904303418351,-6.314518963935556e-2
0.3175942902671518,-6.344628669547114e-2
0.31989815019246826,-6.32901125801687e-2
0.32220201011778493,-6.321563650190365e-2
0.3245058700431014,-6.32895821767725e-2
0.32680972996841806,-6.356184069301773e-2
0.3291135898937343,-6.351689903553404e-2
0.33141744981905097,-6.372526933445488e-2
0.3337213097443674,-6.368197478360749e-2
0.3360251696696841,-6.36134772918533e-2
0.3383290295950008,-6.37216047849537e-2
0.34063288952031723,-6.384073900604081e-2
0.3429367494456339,-6.38107391278182e-2
0.34524060937095014,-6.374486560170511e-2
0.3475444692962668,-6.386901924549848e-2
0.34984832922158327,-6.380863422527039e-2
0.35215218914689994,-6.354399232796493e-2
0.3544560490722164,-6.360265712588642e-2
0.35675990899753307,-6.384990616082842e-2
0.3590637689228495,-6.353710155717673e-2
0.361367628848166,-6.361733305716011e-2
0.36367148877348265,-6.346565092009782e-2
0.3659753486987991,-6.359888925623747e-2
0.36827920862411556,-6.378631400504764e-2
0.37058306854943224,-6.362640954810617e-2
0.3728869284747489,-6.382362817795206e-2
0.37519078840006537,-6.371009476281275e-2
0.3774946483253818,-6.37221287517915e-2
0.3797985082506985,-6.396200361070015e-2
0.38210236817601495,-6.403075175359885e-2
0.3844062281013314,-6.386910258080825e-2
0.3867100880266481,-6.381749113020319e-2
0.38901394795196453,-6.379842024762061e-2
0.391317807877281,-6.341092305751539e-2
0.39362166780259766,-6.278261297376897e-2
0.3959255277279141,-6.314644136863146e-2
0.39822938765323057,-6.308611019059895e-2
0.40053324757854725,-6.317614037711561e-2
0.4028371075038639,-6.2488078514620016e-2
0.40514096742918015,-6.276194738600416e-2
0.40744482735449705,-6.329742640248415e-2
0.4097486872798133,-6.366593557767208e-2
0.4120525472051302,-6.373226706855417e-2
0.4143564071304464,-6.348174460359735e-2
0.4166602670557631,-6.370043367519895e-2
0.4189641269810793,-6.37065639673784e-2
0.4212679869063962,-6.388229874090579e-2
0.42357184683171245,-6.376110464550588e-2
0.42587570675702935,-6.376979494800572e-2
0.4281795666823456,-6.360721507405953e-2
0.43048342660766226,-6.372591685136919e-2
0.4327872865329787,-6.353278587696543e-2
0.4350911464582954,-6.31013858568864e-2"/>
  </g>
  <g stroke-opacity="0.5" stroke="#431712" stroke-width="7.0e-3" fill="none">
    <polyline points="-0.7145349562746587,-6.306858850489372e-2
-0.7122310963493421,-6.298256158862348e-2
-0.7099272364240256,-6.288086796971859e-2
-0.707623376498709,-6.29147062705252e-2
-0.7053195165733925,-6.29912101289849e-2
-0.703015656648076,-6.300626454197467e-2
-0.7007117967227594,-6.299848358960725e-2
-0.6984079367974428,-6.302667559941166e-2
-0.6961040768721263,-6.314733802072359e-2
-0.6938002169468098,-6.313242431093269e-2
-0.6914963570214933,-6.308056741235613e-2
-0.6891924970961767,-6.303386696459568e-2
-0.6868886371708601,-6.302364848635422e-2
-0.6845847772455436,-6.303158268786824e-2
-0.6822809173202271,-6.292306248448387e-2
-0.6799770573949105,-6.293040477859335e-2
-0.677673197469594,-6.291347413844794e-2
-0.6753693375442774,-6.27245618551171e-2
-0.673065477618961,-6.256856940160127e-2
-0.6707616176936444,-6.276417755526909e-2
-0.6684577577683278,-6.263538429816506e-2
-0.6661538978430113,-6.261354293382815e-2
-0.6638500379176948,-6.271289364475852e-2
-0.6615461779923782,-6.25469948600973e-2
-0.6592423180670617,-6.263872722243835e-2
-0.6569384581417451,-6.27218936962125e-2
-0.6546345982164286,-6.27702456110436e-2
-0.6523307382911121,-6.260706162921081e-2
-0.6500268783657955,-6.263105875115826e-2
-0.647723018440479,-6.275127904833622e-2
-0.6454191585151624,-6.270927726429887e-2
-0.6431152985898458,-6.276774645780969e-2
-0.6408114386645294,-6.274485941191943e-2
-0.6385075787392128,-6.280192311820865e-2
-0.6362037188138963,-6.287674630152562e-2
-0.6338998588885797,-6.28798207708523e-2
-0.6315959989632631,-6.283513036510158e-2
-0.6292921390379467,-6.27703065454005e-2
-0.6269882791126301,-6.276881934879919e-2
-0.6246844191873135,-6.266902669318652e-2
-0.622380559261997,-6.268149074069596e-2
-0.6200766993366804,-6.275593148154002e-2
-0.617772839411364,-6.276226589675638e-2
-0.6154689794860474,-6.270071857997161e-2
-0.6131651195607308,-6.271802043378805e-2
-0.6108612596354144,-6.266409250153393e-2
-0.6085573997100978,-6.264685993649033e-2
-0.6062535397847812,-6.273870927711933e-2
-0.6039496798594648,-6.276220027177026e-2
-0.6016458199341481,-6.275845798953195e-2
-0.5993419600088317,-6.282662809494854e-2
-0.5970381000835151,-6.289183359393513e-2
-0.5947342401581985,-6.290109930091714e-2
-0.592430380232882,-6.290430383057843e-2
-0.5901265203075654,-6.285128379770744e-2
-0.587822660382249,-6.287797241136117e-2
-0.5855188004569324,-6.286879540916313e-2
-0.5832149405316158,-6.284680433126799e-2
-0.5809110806062993,-6.289751475848937e-2
-0.5786072206809827,-6.287158246465385e-2
-0.5763033607556662,-6.289219188834316e-2
-0.5739995008303497,-6.287440072623818e-2
-0.5716956409050331,-6.285435798079808e-2
-0.5693917809797165,-6.276725779910819e-2
-0.5670879210544,-6.285690533554955e-2
-0.5647840611290835,-6.280408969444695e-2
-0.562480201203767,-6.288010123546983e-2
-0.5601763412784504,-6.290950437162834e-2
-0.5578724813531338,-6.291131305812214e-2
-0.5555686214278173,-6.296980804690144e-2
-0.5532647615025008,-6.296075422060476e-2
-0.5509609015771842,-6.297956335947863e-2
-0.5486570416518677,-6.298331953509706e-2
-0.5463531817265511,-6.299191509664015e-2
-0.5440493218012346,-6.295860833770406e-2
-0.5417454618759181,-6.297271287462947e-2
-0.5394416019506015,-6.296143699052659e-2
-0.537137742025285,-6.294222972530905e-2
-0.5348338820999685,-6.29094272028985e-2
-0.5325300221746518,-6.291853942237857e-2
-0.5302261622493354,-6.286905641521312e-2
-0.5279223023240188,-6.28796580602895e-2
-0.5256184423987023,-6.277651124573114e-2
-0.5233145824733857,-6.279052577017286e-2
-0.5210107225480691,-6.272576147403808e-2
-0.5187068626227527,-6.27689920279717e-2
-0.516403002697436,-6.277261069255335e-2
-0.5140991427721195,-6.27929048107615e-2
-0.5117952828468031,-6.275483051358732e-2
-0.5094914229214865,-6.281532125600331e-2
-0.50718756299617,-6.28741667276258e-2
-0.5048837030708534,-6.29348407591036e-2
-0.5025798431455368,-6.295640370356381e-2
-0.5002759832202204,-6.29011306784737e-2
-0.4979721232949038,-6.296098431274955e-2
-0.49566826336958725,-6.29649994669722e-2
-0.4933644034442707,-6.295372812773237e-2
-0.4910605435189542,-6.29787022928403e-2
-0.4887566835936376,-6.299034750879584e-2
-0.4864528236683211,-6.295761661648236e-2
-0.48414896374300453,-6.294699629656753e-2
-0.481845103817688,-6.29566327280362e-2
-0.47954124389237146,-6.298738653921354e-2
-0.4772373839670549,-6.304883928758831e-2
-0.47493352404173844,-6.302222826160375e-2
-0.47262966411642193,-6.297022612996495e-2
-0.47032580419110537,-6.292459794872896e-2
-0.4680219442657888,-6.29564264702771e-2
-0.46571808434047224,-6.294515416697821e-2
-0.46341422441515573,-6.297706923385982e-2
-0.46111036448983916,-6.300662322018158e-2
-0.45880650456452265,-6.302791197395552e-2
-0.4565026446392061,-6.304383979941686e-2
-0.4541987847138896,-6.30373335821085e-2
-0.45189492478857296,-6.302236246717596e-2
-0.44959106486325645,-6.296635386441085e-2
-0.44728720493793994,-6.293347959788853e-2
-0.4449833450126234,-6.29760297059554e-2
-0.4426794850873068,-6.29168970040016e-2
-0.4403756251619903,-6.297060583591463e-2
-0.4380717652366738,-6.299070929961637e-2
-0.4357679053113572,-6.300415643973767e-2
-0.43346404538604066,-6.301487509532389e-2
-0.4311601854607241,-6.30076756194714e-2
-0.4288563255354076,-6.299119144902665e-2
-0.426552465610091,-6.303176292188573e-2
-0.4242486056847745,-6.308246100119386e-2
-0.42194474575945795,-6.307941335191736e-2
-0.4196408858341414,-6.31154899165276e-2
-0.4173370259088248,-6.307812298933246e-2
-0.4150331659835083,-6.307414561727609e-2
-0.4127293060581918,-6.305728182352022e-2
-0.41042544613287524,-6.303226635901593e-2
-0.4081215862075587,-6.30013361839673e-2
-0.4058177262822421,-6.298113448995868e-2
-0.4035138663569256,-6.299085288446016e-2
-0.40121000643160903,-6.301374544210603e-2
-0.3989061465062925,-6.301201250818389e-2
-0.39660228658097596,-6.304577608727824e-2
-0.39429842665565945,-6.304313855023058e-2
-0.3919945667303429,-6.299819093645276e-2
-0.3896907068050263,-6.303272104514823e-2
-0.3873868468797098,-6.30372697402588e-2
-0.38508298695439325,-6.308911126682326e-2
-0.3827791270290768,-6.30813958297155e-2
-0.38047526710376023,-6.30509944270704e-2
-0.37817140717844366,-6.303688644635264e-2
-0.37586754725312715,-6.300855029416352e-2
-0.37356368732781053,-6.302422707861344e-2
-0.371259827402494,-6.301976483861405e-2
-0.3689559674771775,-6.304164509742793e-2
-0.36665210755186095,-6.303419515163022e-2
-0.3643482476265444,-6.303482036958441e-2
-0.3620443877012279,-6.297103814104454e-2
-0.35974052777591137,-6.29270677258722e-2
-0.3574366678505948,-6.292075877388492e-2
-0.35513280792527824,-6.290710518670506e-2
-0.35282894799996173,-6.266174455292262e-2
-0.3505250880746452,-6.251002600169853e-2
-0.34822122814932865,-6.261323548008202e-2
-0.3459173682240121,-6.256992480013834e-2
-0.3436135082986956,-6.272435165919354e-2
-0.34130964837337896,-6.272108921731734e-2
-0.3390057884480624,-6.26146090859161e-2
-0.3367019285227459,-6.261165420775228e-2
-0.3343980685974294,-6.2580093046818e-2
-0.3320942086721128,-6.253999939880583e-2
-0.32979034874679625,-6.2312892749872506e-2
-0.32748648882147974,-6.2449690680014935e-2
-0.32518262889616323,-6.232415952648385e-2
-0.32287876897084666,-6.227894766123099e-2
-0.3205749090455301,-6.239490618919408e-2
-0.3182710491202136,-6.247507935021901e-2
-0.3159671891948971,-6.255227983951195e-2
-0.3136633292695805,-6.250665026936919e-2
-0.31135946934426395,-6.25478702608816e-2
-0.30905560941894744,-6.25934073655725e-2
-0.30675174949363093,-6.274520929206073e-2
-0.30444788956831437,-6.272540017808848e-2
-0.3021440296429978,-6.265708952441551e-2
-0.2998401697176813,-6.251226875044591e-2
-0.2975363097923648,-6.250221523422816e-2
-0.2952324498670482,-6.2447972324005674e-2
-0.29292858994173165,-6.252565658451004e-2
-0.29062473001641514,-6.254229510213227e-2
-0.28832087009109864,-6.242113467906962e-2
-0.28601701016578207,-6.229000060602452e-2
-0.28371315024046545,-6.231495321308944e-2
-0.28140929031514894,-6.226995357011322e-2
-0.2791054303898324,-6.2384800998955825e-2
-0.2768015704645158,-6.241035590420707e-2
-0.2744977105391993,-6.257651481502047e-2
-0.2721938506138828,-6.256074921102628e-2
-0.26988999068856623,-6.261982440380309e-2
-0.26758613076324966,-6.269813393394563e-2
-0.26528227083793315,-6.245901233976703e-2
-0.26297841091261664,-6.244920858386849e-2
-0.2606745509873001,-6.227973519708485e-2
-0.2583706910619835,-6.229550305533893e-2
-0.256066831136667,-6.229578271854452e-2
-0.2537629712113504,-6.233776943262037e-2
-0.2514591112860338,-6.2338757524727395e-2
-0.24915525136071737,-6.2201690823859734e-2
-0.2468513914354008,-6.205349623077261e-2
-0.24454753151008424,-6.2059420158970924e-2
-0.24224367158476767,-6.195229429006377e-2
-0.2399398116594511,-6.184346864541779e-2
-0.23763595173413465,-6.170021713055074e-2
-0.2353320918088182,-6.151003364624108e-2
-0.23302823188350164,-6.1871651228048496e-2
-0.23072437195818507,-6.1940468025772466e-2
-0.2284205120328685,-6.193790251050357e-2
-0.22611665210755194,-6.200552318382846e-2
-0.22381279218223538,-6.202045594793604e-2
-0.2215089322569188,-6.1844789360787855e-2
-0.21920507233160236,-6.2096321162651846e-2
-0.2169012124062858,-6.215166870614597e-2
-0.21459735248096923,-6.222569970088454e-2
-0.21229349255565277,-6.2258805951743046e-2
-0.2099896326303362,-6.229460363336092e-2
-0.20768577270501964,-6.22964065351993e-2
-0.20538191277970308,-6.2261156755134106e-2
-0.20307805285438651,-6.234141291747641e-2
-0.20077419292907006,-6.235984189073107e-2
-0.1984703330037535,-6.241669060372146e-2
-0.19616647307843693,-6.251294851414602e-2
-0.19386261315312037,-6.241062310415868e-2
-0.1915587532278038,-6.2428221375103954e-2
-0.18925489330248724,-6.243967850114185e-2
-0.18695103337717067,-6.250215281513793e-2
-0.18464717345185422,-6.244603336006327e-2
-0.18234331352653765,-6.243685351605788e-2
-0.1800394536012211,-6.254975047103872e-2
-0.17773559367590464,-6.261189822405111e-2
-0.17543173375058807,-6.26180799174968e-2
-0.1731278738252714,-6.266648983144629e-2
-0.17082401389995483,-6.269956621699346e-2
-0.16852015397463838,-6.26823032821271e-2
-0.1662162940493218,-6.261339620063944e-2
-0.16391243412400536,-6.261795767381917e-2
-0.1616085741986888,-6.262271111884543e-2
-0.15930471427337234,-6.271479938560243e-2
-0.15700085434805577,-6.273527411871527e-2
-0.1546969944227392,-6.271456374291595e-2
-0.15239313449742264,-6.279137321567685e-2
-0.15008927457210608,-6.280009360378502e-2
-0.14778541464678963,-6.281073374077828e-2
-0.14548155472147306,-6.278293654778289e-2
-0.1431776947961565,-6.282707351629946e-2
-0.14087383487083993,-6.283351286939531e-2
-0.13856997494552337,-6.282528860194547e-2
-0.1362661150202068,-6.281892679206202e-2
-0.13396225509489024,-6.279612685901337e-2
-0.13165839516957378,-6.284360279313606e-2
-0.12935453524425722,-6.281291430962599e-2
-0.12705067531894065,-6.28024305537469e-2
-0.1247468153936242,-6.275296337149239e-2
-0.12244295546830763,-6.269233539555785e-2
-0.12013909554299107,-6.267581769984565e-2
-0.1178352356176745,-6.278001170974845e-2
-0.11553137569235794,-6.279932379982822e-2
-0.11322751576704149,-6.284715383488348e-2
-0.11092365584172492,-6.283823420729906e-2
-0.10861979591640836,-6.287157304671565e-2
-0.10631593599109179,-6.289538444042175e-2
-0.10401207606577523,-6.289131111536195e-2
-0.10170821614045866,-6.286693424825518e-2
-9.94043562151421e-2,-6.294200753481916e-2
-9.710049628982564e-2,-6.280012168492777e-2
-9.479663636450908e-2,-6.279188049981932e-2
-9.249277643919251e-2,-6.284145345496206e-2
-9.018891651387606e-2,-6.280525308587692e-2
-8.78850565885595e-2,-6.282888912839013e-2
-8.558119666324293e-2,-6.287487401558345e-2
-8.327733673792637e-2,-6.295497420379736e-2
-8.09734768126098e-2,-6.295137580569343e-2
-7.866961688729335e-2,-6.296317633134996e-2
-7.636575696197667e-2,-6.297439952114814e-2
-7.406189703666022e-2,-6.300386378594558e-2
-7.175803711134365e-2,-6.300720661135661e-2
-6.945417718602709e-2,-6.295904345336467e-2
-6.715031726071052e-2,-6.29803336275061e-2
-6.484645733539396e-2,-6.297663189041824e-2
-6.25425974100775e-2,-6.302022720717337e-2
-6.023873748476094e-2,-6.301131003466898e-2
-5.7934877559444375e-2,-6.301069861271646e-2
-5.563101763412792e-2,-6.298999451096043e-2
-5.332715770881136e-2,-6.299730634252554e-2
-5.10232977834949e-2,-6.300045874406912e-2
-4.871943785817834e-2,-6.305978608224738e-2
-4.641557793286177e-2,-6.303918945992515e-2
-4.411171800754521e-2,-6.303196410705791e-2
-4.1807858082228755e-2,-6.306119165180557e-2
-3.950399815691219e-2,-6.306413371613762e-2
-3.7200138231595625e-2,-6.306618087823856e-2
-3.489627830627917e-2,-6.300703283259201e-2
-3.259241838096261e-2,-6.298745222065871e-2
-3.0288558455646042e-2,-6.305260019312675e-2
-2.7984698530329366e-2,-6.301558389757278e-2
-2.5680838605012912e-2,-6.289113762182164e-2
-2.3376978679696347e-2,-6.28764549764046e-2
-2.1073118754379783e-2,-6.285167414096171e-2
-1.876925882906333e-2,-6.287578189131438e-2
-1.6465398903746764e-2,-6.269650798124882e-2
-1.41615389784302e-2,-6.275301559148572e-2
-1.1857679053113634e-2,-6.279333960181388e-2
-9.55381912779707e-3,-6.285515595086344e-2
-7.249959202480616e-3,-6.281016853560695e-2
-4.946099277164051e-3,-6.275899504914317e-2
-2.6422393518474863e-3,-6.281830239649255e-2
-3.383794265310325e-4,-6.279552271687716e-2
1.9654804987856433e-3,-6.270684674984162e-2
4.269340424102097e-3,-6.271536320981996e-2
6.573200349418773e-3,-6.265328045135177e-2
8.877060274735227e-3,-6.260245842262802e-2
1.1180920200051792e-2,-6.261739086828244e-2
1.3484780125368245e-2,-6.25210579246912e-2
1.578864005068481e-2,-6.250164649242773e-2
1.8092499976001264e-2,-6.26556592420826e-2
2.039635990131794e-2,-6.27136228512768e-2
2.2700219826634616e-2,-6.275647095877446e-2
2.500407975195107e-2,-6.283011454678766e-2
2.7307939677267634e-2,-6.286119227174936e-2
2.9611799602584088e-2,-6.285587855482544e-2
3.191565952790065e-2,-6.283842221158265e-2
3.4219519453217107e-2,-6.286537279206217e-2
3.652337937853378e-2,-6.285090329515586e-2
3.8827239303850236e-2,-6.285493918452578e-2
4.113109922916691e-2,-6.292199949960886e-2
4.3434959154483366e-2,-6.29401120778289e-2
4.573881907979993e-2,-6.300454857382409e-2
4.8042679005116384e-2,-6.299124506832998e-2
5.034653893043295e-2,-6.297465921633072e-2
5.2650398855749625e-2,-6.290190467466517e-2
5.495425878106608e-2,-6.288980220047713e-2
5.7258118706382755e-2,-6.291426383877763e-2
5.956197863169921e-2,-6.295236698001627e-2
6.186583855701577e-2,-6.300380287529017e-2
6.416969848233223e-2,-6.30206820346223e-2
6.647355840764879e-2,-6.30714200365452e-2
6.877741833296525e-2,-6.305350722727299e-2
7.108127825828192e-2,-6.30138540473828e-2
7.338513818359838e-2,-6.301845858828681e-2
7.568899810891505e-2,-6.304655811153392e-2
7.79928580342315e-2,-6.305838265086638e-2
8.029671795954807e-2,-6.308686253988727e-2
8.260057788486463e-2,-6.30830960236125e-2
8.490443781018109e-2,-6.305352153291388e-2
8.720829773549776e-2,-6.300157506847281e-2
8.951215766081422e-2,-6.302317423505555e-2
9.18160175861309e-2,-6.29740953363902e-2
9.411987751144713e-2,-6.29905564971085e-2
9.64237374367638e-2,-6.303569035920542e-2
9.872759736208037e-2,-6.306488518987352e-2
0.10103145728739682,-6.302203467749834e-2
0.10333531721271338,-6.307071157254662e-2
0.10563917713802984,-6.305418096281667e-2
0.10794303706334651,-6.303086031421412e-2
0.11024689698866297,-6.294745840469418e-2
0.11255075691397964,-6.287859262001594e-2
0.1148546168392961,-6.282287174417611e-2
0.11715847676461266,-6.26020975307282e-2
0.11946233668992912,-6.269536019359034e-2
0.12176619661524568,-6.269976050869897e-2
0.12407005654056213,-6.283282781289168e-2
0.1263739164658788,-6.278239252431983e-2
0.12867777639119526,-6.269087385301875e-2
0.13098163631651194,-6.279825425021823e-2
0.1332854962418285,-6.258133621714468e-2
0.13558935616714496,-6.259912362321807e-2
0.13789321609246152,-6.270243636355222e-2
0.14019707601777798,-6.278813121195681e-2
0.14250093594309465,-6.272868988710645e-2
0.1448047958684111,-6.278652947871688e-2
0.14710865579372778,-6.278082969304899e-2
0.14941251571904424,-6.258895523152641e-2
0.1517163756443608,-6.266780208506129e-2
0.15402023556967726,-6.264376162354879e-2
0.15632409549499382,-6.269026799431865e-2
0.15862795542031027,-6.278022880936718e-2
0.16093181534562695,-6.278288630461026e-2
0.16323567527094363,-6.273088899309542e-2
0.16553953519626008,-6.280726192641606e-2
0.16784339512157664,-6.289830788316952e-2
0.1701472550468931,-6.290171964501945e-2
0.17245111497220966,-6.289785102928458e-2
0.17475497489752612,-6.28970247332945e-2
0.1770588348228428,-6.294585885171933e-2
0.17936269474815925,-6.296297072895907e-2
0.18166655467347592,-6.295394366314544e-2
0.18397041459879238,-6.292757690640682e-2
0.18627427452410894,-6.294273244570059e-2
0.1885781344494254,-6.294160641169577e-2
0.19088199437474196,-6.293816378320594e-2
0.1931858543000584,-6.289920200828547e-2
0.1954897142253751,-6.289533737514708e-2
0.19779357415069176,-6.283121064394148e-2
0.20009743407600822,-6.287303716592263e-2
0.20240129400132478,-6.28525805760175e-2
0.20470515392664124,-6.281140055386547e-2
0.2070090138519578,-6.284545441189293e-2
0.20931287377727426,-6.27537756357025e-2
0.21161673370259093,-6.262155697243088e-2
0.21392059362790738,-6.267852758415815e-2
0.21622445355322406,-6.277951629986411e-2
0.21852831347854051,-6.274513138702065e-2
0.22083217340385708,-6.263021282184644e-2
0.22313603332917353,-6.269520321774735e-2
0.2254398932544901,-6.274025670987549e-2
0.22774375317980677,-6.281722626342623e-2
0.23004761310512323,-6.280485602702612e-2
0.2323514730304399,-6.28741345320355e-2
0.23465533295575636,-6.285677394587896e-2
0.23695919288107292,-6.28739428727334e-2
0.23926305280638938,-6.284268709066487e-2
0.24156691273170594,-6.288950714698005e-2
0.2438707726570224,-6.286063937329411e-2
0.24617463258233885,-6.287837618650083e-2
0.24847849250765552,-6.288926362375946e-2
0.250782352432972,-6.291552472708206e-2
0.25308621235828865,-6.295235121029685e-2
0.2553900722836051,-6.29426510812987e-2
0.2576939322089218,-6.296248441132468e-2
0.259997792134238,-6.29368525965357e-2
0.2623016520595547,-6.300267172513896e-2
0.26460551198487114,-6.302513870185855e-2
0.2669093719101878,-6.301216776454666e-2
0.2692132318355043,-6.301294396060708e-2
0.27151709176082095,-6.302830674471471e-2
0.2738209516861374,-6.304229660152727e-2
0.27612481161145386,-6.302354752991601e-2
0.27842867153677053,-6.303041897706285e-2
0.280732531462087,-6.303107822618725e-2
0.28303639138740366,-6.303263501271117e-2
0.2853402513127201,-6.308340321691885e-2
0.2876441112380368,-6.308203305677906e-2
0.28994797116335325,-6.307277949743295e-2
0.2922518310886697,-6.304076574033068e-2
0.2945556910139864,-6.30247753976727e-2
0.29685955093930283,-6.303602548901777e-2
0.2991634108646193,-6.308540972205912e-2
0.30146727078993596,-6.309619832096036e-2
0.3037711307152524,-6.312108947826611e-2
0.3060749906405691,-6.308676341291952e-2
0.30837885056588554,-6.301925918534867e-2
0.3106827104912022,-6.296687469674456e-2
0.3129865704165187,-6.300849799963426e-2
0.3152904303418351,-6.301505640296123e-2
0.3175942902671518,-6.307629625080713e-2
0.31989815019246826,-6.304854227937895e-2
0.32220201011778493,-6.303598294670221e-2
0.3245058700431014,-6.305239166313303e-2
0.32680972996841806,-6.310923639568577e-2
0.3291135898937343,-6.310450854670913e-2
0.33141744981905097,-6.315060747960599e-2
0.3337213097443674,-6.314735999135557e-2
0.3360251696696841,-6.313861708231316e-2
0.3383290295950008,-6.316511435189909e-2
0.34063288952031723,-6.319481823263573e-2
0.3429367494456339,-6.319494907857026e-2
0.34524060937095014,-6.318744082997496e-2
0.3475444692962668,-6.321822604111482e-2
0.34984832922158327,-6.32121381668247e-2
0.35215218914689994,-6.31641447424488e-2
0.3544560490722164,-6.317952555125961e-2
0.35675990899753307,-6.323362387690512e-2
0.3590637689228495,-6.317616552036986e-2
0.361367628848166,-6.319563782116222e-2
0.36367148877348265,-6.316932781275164e-2
0.3659753486987991,-6.319868095987469e-2
0.36827920862411556,-6.32402679837103e-2
0.37058306854943224,-6.321315244411108e-2
0.3728869284747489,-6.325687961608017e-2
0.37519078840006537,-6.323926648778389e-2
0.3774946483253818,-6.324616422596396e-2
0.3797985082506985,-6.329946053361035e-2
0.38210236817601495,-6.332002241798251e-2
0.3844062281013314,-6.32936044409268e-2
0.3867100880266481,-6.328860376324708e-2
0.38901394795196453,-6.328977051264206e-2
0.391317807877281,-6.321744185269662e-2
0.39362166780259766,-6.309699153356674e-2
0.3959255277279141,-6.316392335677024e-2
0.39822938765323057,-6.315188692647256e-2
0.40053324757854725,-6.316874676351769e-2
0.4028371075038639,-6.303420251119063e-2
0.40514096742918015,-6.308181790077494e-2
0.40744482735449705,-6.318397034304302e-2
0.4097486872798133,-6.325849968805586e-2
0.4120525472051302,-6.327564938125585e-2
0.4143564071304464,-6.322980127807853e-2
0.4166602670557631,-6.32758697032696e-2
0.4189641269810793,-6.328109961150685e-2
0.4212679869063962,-6.332045805179265e-2
0.42357184683171245,-6.33013888405135e-2
0.42587570675702935,-6.330747397362413e-2
0.4281795666823456,-6.327924233428694e-2
0.43048342660766226,-6.330605917225596e-2
0.4327872865329787,-6.327138273628397e-2
0.4350911464582954,-6.318846453506699e-2"/>
  </g>
  <g stroke-opacity="0.5" fill-opacity="1.0" stroke="#3764a0" stroke-width="4.0e-3" fill="#ffffff">
    <rect height="0.1342572542226072" width="0.19784397108655827" x="0.5394847993242009" y="-6.74465492280435e-2"/>
  </g>
  <g fill-opacity="1.0" font-size="4.000000000000001e-2" stroke="none" stroke-width="0.0" fill="#666666" text-anchor="start">
    <text x="0.5510040989507838" y="3.1297495813099874e-2">rate = 0.99
    </text>
  </g>
  <g stroke-opacity="0.5" stroke="#431712" stroke-width="6.999999999999999e-3" fill="none">
    <polyline points="0.7007549940963589,2.5580735310717917e-2
0.7237935933495243,2.5580735310717917e-2"/>
  </g>
  <g fill-opacity="1.0" font-size="4.000000000000001e-2" stroke="none" stroke-width="0.0" fill="#666666" text-anchor="start">
    <text x="0.5510040989507838" y="-1.8074526707471894e-2">rate = 0.95
    </text>
  </g>
  <g stroke-opacity="0.5" stroke="#4b2282" stroke-width="6.999999999999999e-3" fill="none">
    <polyline points="0.7007549940963589,-2.3791287209853795e-2
0.7237935933495243,-2.3791287209853795e-2"/>
  </g>
</svg>