<svg viewBox="-1.1835749999999998 -0.6457499999999999 2.7303249999999997 1.5057659178324474" xmlns="http://www.w3.org/2000/svg" xmlns:xlink="http://www.w3.org/1999/xlink" version="1.1" width="300.0" height="200.0"><g stroke-width="0.0" stroke="none" fill="#000000" transform="translate(-8.80375000000001e-2, -0.57175)" fill-opacity="1.0" font-size="8.0e-2" text-anchor="middle"><text transform="rotate(0.0, 0.0, -0.0)" x="0.0" y="-0.0">ma alpha</text></g><g stroke-width="0.0" stroke="#000000" fill="#666666" fill-opacity="3.0e-2" stroke-opacity="0.0"><rect width="1.9999999999999998" height="1.0" x="-1.0" y="-0.5" /></g><g stroke-width="5.0e-3" stroke="#A8E5EE" fill="none" stroke-opacity="0.3"><polyline points="-1.0,0.505 -1.0,-0.505" /></g><g stroke-width="5.0e-3" stroke="#A8E5EE" fill="none" stroke-opacity="0.3"><polyline points="-0.9118236472945892,0.505 -0.9118236472945892,-0.505" /></g><g stroke-width="5.0e-3" stroke="#A8E5EE" fill="none" stroke-opacity="0.3"><polyline points="-0.6553106212424851,0.505 -0.6553106212424851,-0.505" /></g><g stroke-width="5.0e-3" stroke="#A8E5EE" fill="none" stroke-opacity="0.3"><polyline points="-0.40280561122244496,0.505 -0.40280561122244496,-0.505" /></g><g stroke-width="5.0e-3" stroke="#A8E5EE" fill="none" stroke-opacity="0.3"><polyline points="-0.15030060120240496,0.505 -0.15030060120240496,-0.505" /></g><g stroke-width="5.0e-3" stroke="#A8E5EE" fill="none" stroke-opacity="0.3"><polyline points="9.418837675350678e-2,0.505 9.418837675350678e-2,-0.505" /></g><g stroke-width="5.0e-3" stroke="#A8E5EE" fill="none" stroke-opacity="0.3"><polyline points="0.3466933867735469,0.505 0.3466933867735469,-0.505" /></g><g stroke-width="5.0e-3" stroke="#A8E5EE" fill="none" stroke-opacity="0.3"><polyline points="0.6032064128256511,0.505 0.6032064128256511,-0.505" /></g><g stroke-width="5.0e-3" stroke="#A8E5EE" fill="none" stroke-opacity="0.3"><polyline points="0.8597194388777554,0.505 0.8597194388777554,-0.505" /></g><g stroke-width="5.0e-3" stroke="#A8E5EE" fill="none" stroke-opacity="0.3"><polyline points="0.9999999999999998,0.505 0.9999999999999998,-0.505" /></g><g stroke-width="0.0" stroke="none" fill="#666666" fill-opacity="1.0" font-size="5.0e-2" text-anchor="end"><text transform="rotate(-45.0, -1.0, 0.647)" x="-1.0" y="0.647">27 Feb 2018</text></g><g stroke-width="0.0" stroke="none" fill="#666666" fill-opacity="1.0" font-size="5.0e-2" text-anchor="end"><text transform="rotate(-45.0, -0.9118236472945892, 0.647)" x="-0.9118236472945892" y="0.647">31 Mar 2018</text></g><g stroke-width="0.0" stroke="none" fill="#666666" fill-opacity="1.0" font-size="5.0e-2" text-anchor="end"><text transform="rotate(-45.0, -0.6553106212424851, 0.647)" x="-0.6553106212424851" y="0.647">30 Jun 2018</text></g><g stroke-width="0.0" stroke="none" fill="#666666" fill-opacity="1.0" font-size="5.0e-2" text-anchor="end"><text transform="rotate(-45.0, -0.40280561122244496, 0.647)" x="-0.40280561122244496" y="0.647">30 Sep 2018</text></g><g stroke-width="0.0" stroke="none" fill="#666666" fill-opacity="1.0" font-size="5.0e-2" text-anchor="end"><text transform="rotate(-45.0, -0.15030060120240496, 0.647)" x="-0.15030060120240496" y="0.647">31 Dec 2018</text></g><g stroke-width="0.0" stroke="none" fill="#666666" fill-opacity="1.0" font-size="5.0e-2" text-anchor="end"><text transform="rotate(-45.0, 9.418837675350678e-2, 0.647)" x="9.418837675350678e-2" y="0.647">31 Mar 2019</text></g><g stroke-width="0.0" stroke="none" fill="#666666" fill-opacity="1.0" font-size="5.0e-2" text-anchor="end"><text transform="rotate(-45.0, 0.3466933867735469, 0.647)" x="0.3466933867735469" y="0.647">30 Jun 2019</text></g><g stroke-width="0.0" stroke="none" fill="#666666" fill-opacity="1.0" font-size="5.0e-2" text-anchor="end"><text transform="rotate(-45.0, 0.6032064128256511, 0.647)" x="0.6032064128256511" y="0.647">30 Sep 2019</text></g><g stroke-width="0.0" stroke="none" fill="#666666" fill-opacity="1.0" font-size="5.0e-2" text-anchor="end"><text transform="rotate(-45.0, 0.8597194388777554, 0.647)" x="0.8597194388777554" y="0.647">31 Dec 2019</text></g><g stroke-width="0.0" stroke="none" fill="#666666" fill-opacity="1.0" font-size="5.0e-2" text-anchor="end"><text transform="rotate(-45.0, 0.9999999999999998, 0.647)" x="0.9999999999999998" y="0.647">21 Feb 2020</text></g><g stroke-width="0.0" stroke="#2C429D" fill="#5F0391" fill-opacity="1.0" stroke-opacity="0.4"><line stroke-width="5.0e-3" x1="-1.0" y1="0.58075" x2="-1.0" y2="0.55075" /><line stroke-width="5.0e-3" x1="-0.9118236472945892" y1="0.58075" x2="-0.9118236472945892" y2="0.55075" /><line stroke-width="5.0e-3" x1="-0.6553106212424851" y1="0.58075" x2="-0.6553106212424851" y2="0.55075" /><line stroke-width="5.0e-3" x1="-0.40280561122244496" y1="0.58075" x2="-0.40280561122244496" y2="0.55075" /><line stroke-width="5.0e-3" x1="-0.15030060120240496" y1="0.58075" x2="-0.15030060120240496" y2="0.55075" /><line stroke-width="5.0e-3" x1="9.418837675350678e-2" y1="0.58075" x2="9.418837675350678e-2" y2="0.55075" /><line stroke-width="5.0e-3" x1="0.3466933867735469" y1="0.58075" x2="0.3466933867735469" y2="0.55075" /><line stroke-width="5.0e-3" x1="0.6032064128256511" y1="0.58075" x2="0.6032064128256511" y2="0.55075" /><line stroke-width="5.0e-3" x1="0.8597194388777554" y1="0.58075" x2="0.8597194388777554" y2="0.55075" /><line stroke-width="5.0e-3" x1="0.9999999999999998" y1="0.58075" x2="0.9999999999999998" y2="0.55075" /></g><g stroke-width="0.0" stroke="#666666" fill="#5F0391" fill-opacity="0.5" stroke-opacity="0.0"><rect width="1.9999999999999998" height="5.0000000000000044e-3" x="-1.0" y="0.55075" /></g><g stroke-width="5.0e-3" stroke="#A8E5EE" fill="none" stroke-opacity="0.3"><polyline points="-1.005,0.5 1.0049999999999997,0.5" /></g><g stroke-width="5.0e-3" stroke="#A8E5EE" fill="none" stroke-opacity="0.3"><polyline points="-1.005,0.33333333333333337 1.0049999999999997,0.33333333333333337" /></g><g stroke-width="5.0e-3" stroke="#A8E5EE" fill="none" stroke-opacity="0.3"><polyline points="-1.005,0.16666666666666669 1.0049999999999997,0.16666666666666669" /></g><g stroke-width="5.0e-3" stroke="#A8E5EE" fill="none" stroke-opacity="0.3"><polyline points="-1.005,-0.0 1.0049999999999997,-0.0" /></g><g stroke-width="5.0e-3" stroke="#A8E5EE" fill="none" stroke-opacity="0.3"><polyline points="-1.005,-0.16666666666666663 1.0049999999999997,-0.16666666666666663" /></g><g stroke-width="5.0e-3" stroke="#A8E5EE" fill="none" stroke-opacity="0.3"><polyline points="-1.005,-0.33333333333333337 1.0049999999999997,-0.33333333333333337" /></g><g stroke-width="5.0e-3" stroke="#A8E5EE" fill="none" stroke-opacity="0.3"><polyline points="-1.005,-0.5 1.0049999999999997,-0.5" /></g><g stroke-width="0.0" stroke="none" fill="#666666" fill-opacity="1.0" font-size="5.0e-2" text-anchor="end"><text x="-1.0585749999999998" y="0.5145">-0.8%</text></g><g stroke-width="0.0" stroke="none" fill="#666666" fill-opacity="1.0" font-size="5.0e-2" text-anchor="end"><text x="-1.0585749999999998" y="0.3478333333333334">-0.6%</text></g><g stroke-width="0.0" stroke="none" fill="#666666" fill-opacity="1.0" font-size="5.0e-2" text-anchor="end"><text x="-1.0585749999999998" y="0.1811666666666667">-0.4%</text></g><g stroke-width="0.0" stroke="none" fill="#666666" fill-opacity="1.0" font-size="5.0e-2" text-anchor="end"><text x="-1.0585749999999998" y="1.4499999999999999e-2">-0.2%</text></g><g stroke-width="0.0" stroke="none" fill="#666666" fill-opacity="1.0" font-size="5.0e-2" text-anchor="end"><text x="-1.0585749999999998" y="-0.15216666666666662">0.0%</text></g><g stroke-width="0.0" stroke="none" fill="#666666" fill-opacity="1.0" font-size="5.0e-2" text-anchor="end"><text x="-1.0585749999999998" y="-0.31883333333333336">0.2%</text></g><g stroke-width="0.0" stroke="none" fill="#666666" fill-opacity="1.0" font-size="5.0e-2" text-anchor="end"><text x="-1.0585749999999998" y="-0.4855">0.4%</text></g><g stroke-width="0.0" stroke="#2C429D" fill="#5F0391" fill-opacity="1.0" stroke-opacity="0.4"><line stroke-width="5.0e-3" transform="rotate(-90.0, -1.0285, 0.5)" x1="-1.0285" y1="0.515" x2="-1.0285" y2="0.485" /><line stroke-width="5.0e-3" transform="rotate(-90.0, -1.0285, 0.33333333333333337)" x1="-1.0285" y1="0.3483333333333334" x2="-1.0285" y2="0.31833333333333336" /><line stroke-width="5.0e-3" transform="rotate(-90.0, -1.0285, 0.16666666666666669)" x1="-1.0285" y1="0.1816666666666667" x2="-1.0285" y2="0.15166666666666667" /><line stroke-width="5.0e-3" transform="rotate(-90.0, -1.0285, -0.0)" x1="-1.0285" y1="1.5e-2" x2="-1.0285" y2="-1.5e-2" /><line stroke-width="5.0e-3" transform="rotate(-90.0, -1.0285, -0.16666666666666663)" x1="-1.0285" y1="-0.15166666666666662" x2="-1.0285" y2="-0.18166666666666664" /><line stroke-width="5.0e-3" transform="rotate(-90.0, -1.0285, -0.33333333333333337)" x1="-1.0285" y1="-0.31833333333333336" x2="-1.0285" y2="-0.3483333333333334" /><line stroke-width="5.0e-3" transform="rotate(-90.0, -1.0285, -0.5)" x1="-1.0285" y1="-0.485" x2="-1.0285" y2="-0.515" /></g><g stroke-width="0.0" stroke="#666666" fill="#5F0391" fill-opacity="0.5" stroke-opacity="0.0"><rect width="4.999999999999893e-3" height="1.0" x="-1.0185" y="-0.5" /></g><g stroke-width="2.0e-3" stroke="#AC0505" fill="none" stroke-opacity="0.5"><polyline points="-1.0,-0.16666666666666663 0.9999999999999998,-0.16666666666666663" /></g><g stroke-width="7.0e-3" stroke="#4B2282" fill="none" stroke-opacity="0.5"><polyline points="-1.0,-0.2020123024098639 -0.9959919839679359,-0.15375069339133418 -0.9919839679358717,-9.836486663264998e-2 -0.9879759519038076,-0.12286791715514056 -0.9839679358717435,-0.17079978424654385 -0.9799599198396793,-0.18158266482138286 -0.9759519038076152,-0.17883443433236446 -0.9719438877755511,-0.196795912726769 -0.9679358717434869,-0.2670507964958483 -0.9639278557114228,-0.25683506419037516 -0.9599198396793587,-0.2258654830586595 -0.9559118236472945,-0.19906161721528992 -0.9519038076152304,-0.19421598614961166 -0.9478957915831663,-0.19995988950773447 -0.9438877755511023,-0.1386594953613587 -0.9398797595190381,-0.14621759104876364 -0.935871743486974,-0.13951598075885874 -0.9318637274549099,-3.440137980361324e-2 -0.9278557114228457,4.7560219626250844e-2 -0.9238476953907816,-7.495892858053954e-2 -0.9198396793587175,-6.844216299525252e-3 -0.9158316633266533,-2.5709721950128994e-3 -0.9118236472945892,-6.75489757600024e-2 -0.9078156312625251,2.1565524191443586e-2 -0.9038076152304609,-3.9777704751573384e-2 -0.8997995991983968,-9.382083247783735e-2 -0.8957915831663327,-0.1258620535132836 -0.8917835671342685,-3.560878469881945e-2 -0.8877755511022044,-5.586343070833877e-2 -0.8837675350701403,-0.13031857869507768 -0.8797595190380761,-0.10901090191978147 -0.875751503006012,-0.1460709160660898 -0.8717434869739479,-0.13502634810993586 -0.8677354709418837,-0.1702595122507906 -0.8637274549098196,-0.21437010326075512 -0.8597194388777555,-0.21549726357708576 -0.8557114228456915,-0.18911901999371517 -0.8517034068136273,-0.15226068726747122 -0.8476953907815632,-0.15320021372786585 -0.8436873747494991,-9.774540507018581e-2 -0.8396793587174349,-0.10875193256985827 -0.8356713426853708,-0.15482305477643898 -0.8316633266533067,-0.1600437485528563 -0.8276553106212425,-0.12610439395939954 -0.8236472945891784,-0.13869185800655115 -0.8196392785571143,-0.10993796055786542 -0.8156312625250501,-0.1033180548866185 -0.811623246492986,-0.15943979067001446 -0.8076152304609219,-0.1741956509979501 -0.8036072144288577,-0.17271905819413724 -0.7995991983967936,-0.21265045912806613 -0.7955911823647295,-0.2493622174914436 -0.7915831663326653,-0.25240643632969473 -0.7875751503006012,-0.25185974032199276 -0.7835671342685371,-0.21901973994106627 -0.779559118236473,-0.2333442385052067 -0.7755511022044088,-0.22650035864285123 -0.7715430861723447,-0.21258445325970066 -0.7675350701402806,-0.24098707156425714 -0.7635270541082164,-0.22426347681426495 -0.7595190380761523,-0.23493957340587668 -0.7555110220440882,-0.22316552087441588 -0.751503006012024,-0.21057740984072182 -0.7474949899799599,-0.15997494992458872 -0.7434869739478958,-0.21287037686073573 -0.7394789579158316,-0.18186289065663708 -0.7354709418837675,-0.22605613008947156 -0.7314629258517034,-0.24174237390103248 -0.7274549098196392,-0.2409890010820942 -0.7234468937875751,-0.27278372674273244 -0.719438877755511,-0.264621537088081 -0.7154308617234469,-0.27276479566399425 -0.7114228456913828,-0.27199542054786086 -0.7074148296593187,-0.27405231371262695 -0.7034068136272545,-0.25210553993443063 -0.6993987975951904,-0.25816374389515884 -0.6953907815631263,-0.2494808364304718 -0.6913827655310621,-0.23660684535757381 -0.687374749498998,-0.21641934812180674 -0.6833667334669339,-0.22110940080586095 -0.6793587174348698,-0.19187969552458928 -0.6753507014028056,-0.19841895115829078 -0.6713426853707415,-0.13894104703766352 -0.6673346693386774,-0.1495860852968458 -0.6633266533066133,-0.11411471985262744 -0.6593186372745492,-0.14265333915204048 -0.6553106212424851,-0.147020200751236 -0.6513026052104209,-0.16081504166837612 -0.6472945891783568,-0.14035177949869637 -0.6432865731462927,-0.17754490404275725 -0.6392785571142285,-0.21220408028080928 -0.6352705410821644,-0.2464827800433541 -0.6312625250501003,-0.25695345020604476 -0.6272545090180361,-0.2230129712951816 -0.623246492985972,-0.25642285041323 -0.6192384769539079,-0.25650459293794825 -0.6152304609218437,-0.24785859110281594 -0.6112224448897796,-0.2603151340214248 -0.6072144288577155,-0.26466427094351064 -0.6032064128256514,-0.243509301271572 -0.5991983967935872,-0.2358253139182056 -0.5951903807615231,-0.24006844251434356 -0.591182364729459,-0.2562394032391899 -0.5871743486973948,-0.2892386503697273 -0.5831663326653307,-0.27080475319071884 -0.5791583166332666,-0.23852878976627834 -0.5751503006012024,-0.21097505397983762 -0.5711422845691383,-0.22913950136482086 -0.5671342685370742,-0.22174594657832836 -0.56312625250501,-0.2395091346920697 -0.5591182364729459,-0.25516408058733164 -0.5551102204408818,-0.2654469553768751 -0.5511022044088176,-0.2722643464178165 -0.5470941883767535,-0.2660629968461974 -0.5430861723446894,-0.2552868628715872 -0.5390781563126252,-0.22128926749936073 -0.5350701402805611,-0.2017526103482391 -0.531062124248497,-0.22674454875791983 -0.5270541082164328,-0.19179512992456738 -0.5230460921843687,-0.22367323064223488 -0.5190380761523046,-0.23471326162656636 -0.5150300601202404,-0.24147455547575125 -0.5110220440881764,-0.24640488314970088 -0.5070140280561123,-0.24087042281427828 -0.5030060120240482,-0.2302070119444345 -0.498997995991984,-0.25278060784869905 -0.4949899799599199,-0.28009092655337176 -0.49098196392785576,-0.2757136739565136 -0.4869739478957916,-0.293708188173862 -0.4829659318637275,-0.26943827158444233 -0.47895791583166336,-0.26501458415393286 -0.47494989979959923,-0.2533967604724745 -0.4709418837675351,-0.23748345740825239 -0.46693386773547096,-0.2186498341909041 -0.46292585170340683,-0.20670843242143355 -0.4589178356713427,-0.21273634757020776 -0.45490981963927857,-0.22617253734778775 -0.45090180360721444,-0.22473706066483368 -0.4468937875751503,-0.24389428859550188 -0.44288577154308617,-0.24127277449849172 -0.43887775551102204,-0.2142368665247708 -0.434869739478958,-0.23436610387365286 -0.4308617234468939,-0.23627745015919077 -0.42685370741482975,-0.26523612245522865 -0.4228456913827656,-0.25895594355989693 -0.4188376753507015,-0.23988987914336246 -0.41482965931863736,-0.23085396964829263 -0.4108216432865732,-0.21384340677575486 -0.4068136272545091,-0.22313565744963615 -0.40280561122244496,-0.22032105031520932 -0.3987975951903808,-0.23291798569411815 -0.3947895791583167,-0.22801219099299597 -0.39078156312625256,-0.22797761547811812 -0.38677354709418843,-0.19032832934452026 -0.3827655310621243,-0.16546078530786767 -0.37875751503006017,-0.1638240061535109 -0.37474949899799603,-0.1578747090621032 -0.3707414829659319,-1.7945044353910644e-2 -0.36673346693386777,6.2123419436892924e-2 -0.36272545090180364,-9.622629117240322e-3 -0.3587174348697395,7.257115759296995e-3 -0.35470941883767537,-9.046624724843755e-2 -0.35070140280561124,-9.316782553527092e-2 -0.3466933867735471,-3.635966088476483e-2 -0.342685370741483,-4.131240205996001e-2 -0.33867735470941884,-2.9587946964306555e-2 -0.3346693386773547,-1.3411592628344238e-2 -0.3306613226452907,0.10915295507656247 -0.32665330661322656,1.9107456327074668e-2 -0.3226452905811624,8.232947236696847e-2 -0.3186372745490983,9.71384157879086e-2 -0.31462925851703416,2.0094462017764658e-2 -0.31062124248497003,-3.373334260734129e-2 -0.3066132264529059,-8.388040789393614e-2 -0.30260521042084176,-6.156529341545025e-2 -0.29859719438877763,-8.995205267334139e-2 -0.2945891783567135,-0.11973915630100196 -0.29058116232464937,-0.2098652983230027 -0.28657314629258523,-0.19717625050857845 -0.2825651302605211,-0.156957271515341 -0.27855711422845697,-7.442226990724299e-2 -0.27454909819639284,-7.276605767297939e-2 -0.2705410821643287,-4.57867511001222e-2 -0.2665330661322646,-9.550408979424296e-2 -0.26252505010020044,-0.10824386742901526 -0.2585170340681363,-4.125811452862671e-2 -0.2545090180360722,2.8529494871594452e-2 -0.25050100200400804,6.4402203473940545e-3 -0.2464929859719439,2.5170703397683236e-2 -0.24248496993987978,-4.796007713895911e-2 -0.23847695390781565,-6.730101719958503e-2 -0.23446893787575152,-0.1670499608518795 -0.2304609218436875,-0.15786607372718608 -0.22645290581162336,-0.19243408236664772 -0.22244488977955923,-0.23688591374354073 -0.2184368737474951,-9.556870483855873e-2 -0.21442885771543096,-9.269730379112695e-2 -0.21042084168336683,1.787391975395236e-3 -0.2064128256513027,-1.3729485616585824e-2 -0.20240480961923857,-1.9707288291879066e-2 -0.19839679358717444,-4.931481999636589e-2 -0.1943887775551103,-5.420839446902426e-2 -0.19038076152304617,2.0275003056544505e-2 -0.18637274549098204,9.787134662079583e-2 -0.1823647294589179,8.460920451012377e-2 -0.17835671342685377,0.1361146997118472 -0.17434869739478964,0.186327205457468 -0.1703406813627255,0.25367456040184894 -0.16633266533066138,0.3442819310108653 -0.16232464929859725,0.12442450633512214 -0.1583166332665331,7.500380326591499e-2 -0.15430861723446898,6.83723122079073e-2 -0.15030060120240485,2.1784966029668118e-2 -0.14629258517034072,7.283578464966578e-3 -0.14228456913827658,0.10291695804501 -0.13827655310621245,-5.059844952109005e-2 -0.13426853707414832,-8.559742377826984e-2 -0.1302605210420842,-0.1301540200206992 -0.12625250501002017,-0.14919149605339366 -0.12224448897795603,-0.1690652109968106 -0.1182364729458919,-0.1683291246411347 -0.11422845691382777,-0.14604511459156777 -0.11022044088176364,-0.19195511246796082 -0.1062124248496995,-0.2000511571112451 -0.10220440881763537,-0.23027228040341075 -9.819639278557124e-2,-0.28235510362470995 -9.418837675350711e-2,-0.21632892876686827 -9.018036072144298e-2,-0.2231045122398888 -8.617234468937884e-2,-0.22606930711173612 -8.216432865731471e-2,-0.2586124879341588 -7.815631262525058e-2,-0.22093522701006763 -7.414829659318645e-2,-0.21213568916941283 -7.014028056112231e-2,-0.2745070196882129 -6.613226452905818e-2,-0.3050160989325671 -6.212424849699405e-2,-0.3018486791592302 -5.811623246492992e-2,-0.32335254934543944 -5.4108216432865786e-2,-0.3351385569815565 -5.010020040080165e-2,-0.3173942610944087 -4.609218436873752e-2,-0.27068430879652516 -4.208416833667339e-2,-0.2683492142878411 -3.8076152304609256e-2,-0.26626906380327464 -3.4068136272545124e-2,-0.314640158216554 -3.0060120240480992e-2,-0.31984159913453547 -2.605210420841686e-2,-0.30122330524421115 -2.204408817635284e-2,-0.3394631070808468 -1.8036072144288706e-2,-0.3370929485037564 -1.4028056112224574e-2,-0.33599521478671013 -1.0020040080160442e-2,-0.3130260792713351 -6.012024048096309e-3,-0.3322314829095486 -2.004008016032177e-3,-0.32914223339074367 2.004008016031955e-3,-0.317873418268258 6.012024048096087e-3,-0.30818297537123185 1.002004008016022e-2,-0.28952825545090966 1.4028056112224352e-2,-0.3119148605801363 1.8036072144288484e-2,-0.2887241939964248 2.2044088176352616e-2,-0.27802987752247244 2.605210420841675e-2,-0.24536092097635842 3.006012024048088e-2,-0.207388263955407 3.406813627254501e-2,-0.19640192801561118 3.8076152304609145e-2,-0.25593679636460587 4.208416833667328e-2,-0.2638094529700765 4.609218436873741e-2,-0.2877855368923631 5.010020040080154e-2,-0.27825137371395847 5.4108216432865675e-2,-0.2933769231002815 5.811623246492981e-2,-0.3024547936901155 6.212424849699394e-2,-0.2952735120571126 6.613226452905807e-2,-0.2767820865489178 7.01402805611222e-2,-0.3160673829821703 7.414829659318634e-2,-0.2294264552695282 7.815631262525047e-2,-0.22280400624943708 8.21643286573146e-2,-0.24999945970266813 8.617234468937873e-2,-0.22643907236663807 9.018036072144286e-2,-0.23849205459904288 9.4188376753507e-2,-0.26297174978670046 9.819639278557113e-2,-0.30598289714543425 0.10220440881763526,-0.2992696107635755 0.1062124248496994,-0.3016737930838548 0.11022044088176353,-0.3036952477355016 0.11422845691382766,-0.3160925408115415 0.11823647294589179,-0.31313868519459476 0.12224448897795592,-0.2808859018523515 0.12625250501002006,-0.2897110329502235 0.13026052104208397,-0.28386116724535915 0.1342685370741481,-0.3054189276995056 0.13827655310621223,-0.2960731491403089 0.14228456913827636,-0.2918735367183112 0.1462925851703405,-0.2763081119733072 0.15030060120240463,-0.27750409441929125 0.15430861723446876,-0.27628279091060837 0.1583166332665329,-0.307426550591134 0.16232464929859702,-0.2915438807801658 0.16633266533066116,-0.2839192575426195 0.1703406813627253,-0.2975778738803968 0.17434869739478942,-0.29563587654160184 0.17835671342685355,-0.2932911984237577 0.18236472945891768,-0.2556743277993737 0.18637274549098182,-0.24225275227510368 0.19038076152304595,-0.27890515016956785 0.19438877755511008,-0.2546375217000387 0.1983967935871742,-0.17970512376908288 0.20240480961923835,-0.17213723510802448 0.20641282565130248,-0.15884956938880113 0.2104208416833666,-0.17523191655811865 0.21442885771543074,-7.11703762516539e-2 0.21843687374749488,-0.11044441896819135 0.222444889779559,-0.13805425099375113 0.22645290581162314,-0.17687125539204474 0.23046092184368727,-0.1517516512745135 0.2344689378757514,-0.1239598548206392 0.23847695390781554,-0.16175446081885891 0.24248496993987967,-0.15012460492514657 0.2464929859719438,-0.10058153468358955 0.25050100200400793,-0.10959991876419883 0.25450901803607207,-7.710099542996096e-2 0.2585170340681362,-5.2455352225632024e-2 0.26252505010020033,-6.706081103146722e-2 0.26653306613226446,-1.6456512950807745e-2 0.2705410821643286,-1.2528090490805277e-2 0.2745490981963927,-0.10877380299297645 0.27855711422845686,-0.14549119252867482 0.282565130260521,-0.17201684030922892 0.2865731462925851,-0.21527006980651175 0.29058116232464926,-0.2322509468622711 0.2945891783567134,-0.22756455849926094 0.2985971943887775,-0.21607610297165425 0.30260521042084165,-0.23067174566761417 0.3066132264529058,-0.220812846825847 0.3106212424849699,-0.22202852351914482 0.31462925851703405,-0.2595283190372899 0.3186372745490982,-0.267331249536673 0.3226452905811623,-0.30146605679133875 0.32665330661322645,-0.28959205931923293 0.3306613226452906,-0.2763685881239858 0.3346693386773545,-0.2314521545772349 0.3386773547094186,-0.22314192719448278 0.34268537074148275,-0.23623684817098756 0.3466933867735469,-0.25665419307703863 0.350701402805611,-0.2838828852349914 0.35470941883767515,-0.2902017578032705 0.3587174348697393,-0.3156204637375112 0.3627254509018034,-0.30090910635131884 0.36673346693386755,-0.27441115716727305 0.3707414829659317,-0.27424708744891546 0.3747494989979958,-0.28755424972273125 0.37875751503005994,-0.2910426650801903 0.3827655310621241,-0.30390011653680715 0.3867735470941882,-0.2979372040302961 0.39078156312625234,-0.27755542188096594 0.3947895791583165,-0.2450194831912117 0.3987975951903806,-0.25605518550959494 0.40280561122244474,-0.22584413940400316 0.40681362725450887,-0.23475137914862765 0.410821643286573,-0.259853901414301 0.41482965931863713,-0.27466635095099745 0.41883767535070127,-0.24754757089825674 0.4228456913827654,-0.2741581705404008 0.42685370741482953,-0.26222991297750775 0.43086172344689366,-0.24682380123396397 0.4348697394789578,-0.1969652220187068 0.4388777555110219,-0.1571213471888394 0.44288577154308606,-0.12643123447423543 0.4468937875751502,-9.480066479478078e-4 0.4509018036072143,-6.481031804510595e-2 0.45490981963927846,-7.320276657978553e-2 0.4589178356713426,-0.15598772441369646 0.4629258517034067,-0.12875278286314928 0.46693386773547085,-7.874334903704572e-2 0.470941883767535,-0.1459589714092473 0.4749498997995991,-2.2786686157437286e-2 0.47895791583166325,-4.023572438088818e-2 0.4829659318637274,-0.10626105134624331 0.4869739478957915,-0.15938081191040232 0.49098196392785565,-0.12662173421402456 0.4949899799599198,-0.16280783520256958 0.4989979959919839,-0.16088720126384526 0.503006012024048,-5.161484680187578e-2 0.5070140280561122,-0.10277389317451968 0.5110220440881763,-9.253725503574206e-2 0.5150300601202404,-0.12333690357967053 0.5190380761523046,-0.1779813790607686 0.5230460921843687,-0.1801065880659516 0.5270541082164328,-0.1506013548431131 0.531062124248497,-0.1963246431479232 0.5350701402805611,-0.24875687315147976 0.539078156312625,-0.24852172750823787 0.5430861723446891,-0.24411477964863237 0.5470941883767533,-0.24166064373132456 0.5511022044088174,-0.2679752605756275 0.5551102204408815,-0.2749620202078289 0.5591182364729457,-0.2666334660261531 0.5631262525050098,-0.24867868451804143 0.5671342685370739,-0.25538286983247516 0.5711422845691381,-0.2524640965112871 0.5751503006012022,-0.24834919716485648 0.5791583166332663,-0.22395267906731886 0.5831663326653305,-0.22074768935821165 0.5871743486973946,-0.18288928315954978 0.5911823647294587,-0.20769267144792092 0.5951903807615229,-0.19555215095299738 0.599198396793587,-0.17189897171566382 0.6032064128256511,-0.19265223482577876 0.6072144288577153,-0.13988307317676452 0.6112224448897794,-6.559777174630577e-2 0.6152304609218435,-0.10388637694267899 0.6192384769539077,-0.16591952255997322 0.6232464929859718,-0.14723863113059021 0.6272545090180359,-8.274123297714309e-2 0.6312625250501,-0.12469916379549328 0.6352705410821642,-0.15341635807502574 0.6392785571142283,-0.19939610618351322 0.6432865731462925,-0.19201466960137326 0.6472945891783566,-0.23203188047689827 0.6513026052104207,-0.220502531973089 0.6553106212424848,-0.2293541785295079 0.659318637274549,-0.20994545480891524 0.6633266533066131,-0.23632935829231372 0.6673346693386772,-0.21805253983420247 0.6713426853707414,-0.22737083185323714 0.6753507014028055,-0.2323834148699535 0.6793587174348696,-0.24606323557620668 0.6833667334669338,-0.2652839119451592 0.6873747494989979,-0.25700848770499307 0.691382765531062,-0.26605708615767554 0.6953907815631262,-0.24865746029650182 0.6993987975951903,-0.2844892647748185 0.7034068136272544,-0.29399477909396243 0.7074148296593186,-0.28288388297290035 0.7114228456913827,-0.28011188039384305 0.7154308617234468,-0.2858230504197409 0.719438877755511,-0.29054516198351554 0.7234468937875751,-0.2764296031421659 0.7274549098196392,-0.27753067781539253 0.7314629258517034,-0.2750662748633479 0.7354709418837675,-0.2732400953460825 0.7394789579158316,-0.2996002997088819 0.7434869739478958,-0.2952098259629622 0.7474949899799597,-0.28654629709937407 0.7515030060120238,-0.26522981090108533 0.7555110220440879,-0.25385238120115405 0.7595190380761521,-0.25861135080513453 0.7635270541082162,-0.28505009277306503 0.7675350701402803,-0.288312938361 0.7715430861723445,-0.2994759543964114 0.7755511022044086,-0.27660476482424645 0.7795591182364727,-0.23520880915796205 0.7835671342685369,-0.20371863329079465 0.787575150300601,-0.22854001182478778 0.7915831663326651,-0.23177881053028204 0.7955911823647293,-0.26654046565880796 0.7995991983967934,-0.24851016404714843 0.8036072144288575,-0.23991190081144187 0.8076152304609217,-0.24844892897505688 0.8116232464929858,-0.27988117467556883 0.8156312625250499,-0.2746926603190831 0.819639278557114,-0.29874901132948095 0.8236472945891782,-0.29375065543416445 0.8276553106212423,-0.2858426200111207 0.8316633266533064,-0.2983259390895797 0.8356713426853706,-0.31207998491409006 0.8396793587174347,-0.30861649897327714 0.8436873747494988,-0.30101140038352137 0.847695390781563,-0.315344938559471 0.8517034068136271,-0.30837348797413466 0.8557114228456912,-0.2778205809302192 0.8597194388777554,-0.2845934318502552 0.8637274549098195,-0.31313833293430937 0.8677354709418836,-0.27702504144273743 0.8717434869739478,-0.2862877681158077 0.8757515030060119,-0.2687760653919705 0.879759519038076,-0.28415843129927687 0.8837675350701402,-0.30579661854942375 0.8877755511022043,-0.2873356489955292 0.8917835671342684,-0.31010453981124264 0.8957915831663326,-0.296997107033408 0.8997995991983967,-0.2983864310609947 0.9038076152304608,-0.32607998352200307 0.907815631262525,-0.3340169566196548 0.9118236472945891,-0.3153545596209779 0.9158316633266532,-0.3093960176486291 0.9198396793587174,-0.30719428425447204 0.9238476953907815,-0.26245773365682634 0.9278557114228456,-0.1899193344882969 0.9318637274549098,-0.2319233226751668 0.9358717434869739,-0.22495808817132068 0.939879759519038,-0.2353520732046651 0.9438877755511021,-0.1559153311795396 0.9478957915831663,-0.18753349238084616 0.9519038076152302,-0.24935454483346065 0.9559118236472943,-0.2918989291089247 0.9599198396793585,-0.29955689973124777 0.9639278557114226,-0.27063408115198506 0.9679358717434867,-0.2958817344683896 0.9719438877755509,-0.2965894767005096 0.975951903807615,-0.31687805630424515 0.9799599198396791,-0.30288619799032124 0.9839679358717432,-0.3038894934139248 0.9879759519038074,-0.28511964696684444 0.9919839679358715,-0.298823767157249 0.9959919839679356,-0.27652679616233256 0.9999999999999998,-0.22672166384420445" /></g><g stroke-width="7.0e-3" stroke="#431712" fill="none" stroke-opacity="0.5"><polyline points="-1.0,-0.22293520955664747 -0.9959919839679359,-0.21300340207324553 -0.9919839679358717,-0.20126287377068308 -0.9879759519038076,-0.20516950559881253 -0.9839679358717435,-0.21400187605796916 -0.9799599198396793,-0.21573990803763343 -0.9759519038076152,-0.2148415970868256 -0.9719438877755511,-0.21809636461874282 -0.9679358717434869,-0.23202684115921535 -0.9639278557114228,-0.23030505336384133 -0.9599198396793587,-0.22431817442318436 -0.9559118236472945,-0.21892660772924932 -0.9519038076152304,-0.21774688441626622 -0.9478957915831663,-0.21866288798106204 -0.9438877755511023,-0.20613423050033408 -0.9398797595190381,-0.2069818983552747 -0.935871743486974,-0.2050272559504892 -0.9318637274549099,-0.18321733283993202 -0.9278557114228457,-0.1652080040815318 -0.9238476953907816,-0.18779096542248763 -0.9198396793587175,-0.1729217838898256 -0.9158316633266533,-0.17040019837713594 -0.9118236472945892,-0.181870237954049 -0.9078156312625251,-0.16271722326490334 -0.9038076152304609,-0.17330772449717702 -0.8997995991983968,-0.1829092938943967 -0.8957915831663327,-0.18849152246165934 -0.8917835671342685,-0.16965193175905258 -0.8877755511022044,-0.17242239948790616 -0.8837675350701403,-0.18630183279709167 -0.8797595190380761,-0.18145272682997382 -0.875751503006012,-0.18820299522079942 -0.8717434869739479,-0.18556068577277007 -0.8677354709418837,-0.19214869066385598 -0.8637274549098196,-0.20078702717780372 -0.8597194388777555,-0.2011419746615699 -0.8557114228456915,-0.19598246731764568 -0.8517034068136273,-0.18849855733315257 -0.8476953907815632,-0.18832686048552905 -0.8436873747494991,-0.17680579839505162 -0.8396793587174349,-0.17824477268001182 -0.8356713426853708,-0.18683895621045432 -0.8316633266533067,-0.18757026444719171 -0.8276553106212425,-0.1804646267243879 -0.8236472945891784,-0.18246212574749787 -0.8196392785571143,-0.17623614596875836 -0.8156312625250501,-0.1742466463344754 -0.811623246492986,-0.1848506527100976 -0.8076152304609219,-0.18756268804254128 -0.8036072144288577,-0.1871306415581372 -0.7995991983967936,-0.1950008802284806 -0.7955911823647295,-0.20252885508648721 -0.7915831663326653,-0.20359858095755834 -0.7875751503006012,-0.2039685439069585 -0.7835671342685371,-0.19784738111199696 -0.779559118236473,-0.2009285815583176 -0.7755511022044088,-0.19986909665455566 -0.7715430861723447,-0.19733022671155886 -0.7675350701402806,-0.20318474553426646 -0.7635270541082164,-0.20019086221096316 -0.7595190380761523,-0.202570220175881 -0.7555110220440882,-0.20051623051086276 -0.751503006012024,-0.1982022955498024 -0.7474949899799599,-0.18814657957371073 -0.7434869739478958,-0.19849638765587363 -0.7394789579158316,-0.19239882189057622 -0.7354709418837675,-0.20117435430165898 -0.7314629258517034,-0.20456894637115042 -0.7274549098196392,-0.20477775922687036 -0.7234468937875751,-0.21153100568145244 -0.719438877755511,-0.21048574143548526 -0.7154308617234469,-0.21265725651846867 -0.7114228456913828,-0.21309090699361888 -0.7074148296593187,-0.21408326457377003 -0.7034068136272545,-0.21023799925460696 -0.6993987975951904,-0.21186636804264158 -0.6953907815631263,-0.21056456722296146 -0.6913827655310621,-0.20834708845360195 -0.687374749498998,-0.20456003724130267 -0.6833667334669339,-0.20561204298028235 -0.6793587174348698,-0.19989922980302932 -0.6753507014028056,-0.20112318972709664 -0.6713426853707415,-0.18921488998633118 -0.6673346693386774,-0.19083286683312772 -0.6633266533066133,-0.1833558288443673 -0.6593186372745492,-0.18834679629600992 -0.6553106212424851,-0.18876457112195433 -0.6513026052104209,-0.19110752706907874 -0.6472945891783568,-0.18671184946032593 -0.6432865731462927,-0.19369550567225158 -0.6392785571142285,-0.20048921537107045 -0.6352705410821644,-0.2074940323051776 -0.6312625250501003,-0.20998347424311115 -0.6272545090180361,-0.20360220349645486 -0.623246492985972,-0.21051230557359668 -0.6192384769539079,-0.21097585512861083 -0.6152304609218437,-0.20967457901336373 -0.6112224448897796,-0.21255784637509145 -0.6072144288577155,-0.21390228655714227 -0.6032064128256514,-0.21012350503955124 -0.5991983967935872,-0.20889738910538802 -0.5951903807615231,-0.21000991511845568 -0.591182364729459,-0.2135604426188683 -0.5871743486973948,-0.22065516241873917 -0.5831663326653307,-0.21758291946881647 -0.5791583166332666,-0.2115792733711328 -0.5751503006012024,-0.20631149984742703 -0.5711422845691383,-0.20998610266016038 -0.5671342685370742,-0.20868471524430265 -0.56312625250501,-0.21236930971578616 -0.5591182364729459,-0.2157813174366272 -0.5551102204408818,-0.2182391040598355 -0.5511022044088176,-0.22007797150935204 -0.5470941883767535,-0.21932682872109144 -0.5430861723446894,-0.2175984135021345 -0.5390781563126252,-0.2111322203129059 -0.5350701402805611,-0.2073368862428927 -0.531062124248497,-0.2122492962192266 -0.5270541082164328,-0.20542242577865832 -0.5230460921843687,-0.21162311042301274 -0.5190380761523046,-0.21394405530737792 -0.5150300601202404,-0.2154965276343851 -0.5110220440881764,-0.2167339964218139 -0.5070140280561123,-0.2159028169346452 -0.5030060120240482,-0.2139997194568003 -0.498997995991984,-0.2186836959983688 -0.4949899799599199,-0.2245367892545036 -0.49098196392785576,-0.22418493814552964 -0.4869739478957916,-0.22834997752977937 -0.4829659318637275,-0.22403596578510132 -0.47895791583166336,-0.22357677818119892 -0.47494989979959923,-0.22162985319208528 -0.4709418837675351,-0.21874181781506508 -0.46693386773547096,-0.21517092910569202 -0.46292585170340683,-0.21283864353240634 -0.4589178356713427,-0.2139606321775882 -0.45490981963927857,-0.21660357795780683 -0.45090180360721444,-0.21640351073649988 -0.4468937875751503,-0.22030151594292946 -0.44288577154308617,-0.21999701229078683 -0.43887775551102204,-0.21480781028014162 -0.434869739478958,-0.2187943113290335 -0.4308617234468939,-0.21931945817954068 -0.42685370741482975,-0.2253045624214144 -0.4228456913827656,-0.22441381520733472 -0.4188376753507015,-0.2209039732719511 -0.41482965931863736,-0.21927520689807078 -0.4108216432865732,-0.21600379812784698 -0.4068136272545091,-0.2178136828925904 -0.40280561122244496,-0.21729851728466232 -0.3987975951903808,-0.21982459316471548 -0.3947895791583167,-0.2189644969223863 -0.39078156312625256,-0.21903667833519425 -0.38677354709418843,-0.21167302005026667 -0.3827655310621243,-0.2065966356186092 -0.37875751503006017,-0.20586826711168293 -0.37474949899799603,-0.20429196047176745 -0.3707414829659319,-0.17596507530158223 -0.36673346693386777,-0.15844916856275804 -0.36272545090180364,-0.1703647028421421 -0.3587174348697395,-0.16536448484264066 -0.35470941883767537,-0.1831930657205768 -0.35070140280561124,-0.1828164168059565 -0.3466933867735471,-0.17052328563569064 -0.342685370741483,-0.17018214495166717 -0.33867735470941884,-0.16653840892180805 -0.3346693386773547,-0.1619095972588066 -0.3306613226452907,-0.13569013463945223 -0.32665330661322656,-0.1514834556743918 -0.3226452905811624,-0.13699088399922021 -0.3186372745490983,-0.1317711741557891 -0.31462925851703416,-0.14515858620913147 -0.31062124248497003,-0.1544145776494591 -0.3066132264529059,-0.16332737413832943 -0.30260521042084176,-0.15805944026532937 -0.29859719438877763,-0.16281828828545142 -0.2945891783567135,-0.16807554702201943 -0.29058116232464937,-0.18560107943507909 -0.28657314629258523,-0.18331411722697333 -0.2825651302605211,-0.17542765226044255 -0.27855711422845697,-0.1587080939056541 -0.27454909819639284,-0.15754741545830064 -0.2705410821643287,-0.1512850714731111 -0.2665330661322646,-0.16025371934835075 -0.26252505010020044,-0.16217463620783956 -0.2585170340681363,-0.1481866653652565 -0.2545090180360722,-0.13304723663220464 -0.25050100200400804,-0.13592801511785424 -0.2464929859719439,-0.13073280633624507 -0.24248496993987978,-0.1439919419961153 -0.23847695390781565,-0.1469422558073733 -0.23446893787575152,-0.16612530206078124 -0.2304609218436875,-0.1643051630796447 -0.22645290581162336,-0.1711253940857379 -0.22244488977955923,-0.1801662293406825 -0.2184368737474951,-0.15255964129277455 -0.21442885771543096,-0.15142779767429648 -0.21042084168336683,-0.1318620951701145 -0.2064128256513027,-0.1336824944055366 -0.20240480961923857,-0.13371478152263538 -0.19839679358717444,-0.1385621476626956 -0.1943887775551103,-0.13867622289643344 -0.19038076152304617,-0.12285187228126826 -0.18637274549098204,-0.10574280650935919 -0.1823647294589179,-0.10642672401986053 -0.17835671342685377,-9.405904245452412e-2 -0.17434869739478964,-8.149512178015905e-2 -0.1703406813627255,-6.495673438876093e-2 -0.16633266533066138,-4.300005112519756e-2 -0.16232464929859725,-8.474880094487425e-2 -0.1583166332665331,-9.269370024210266e-2 -0.15430861723446898,-9.239751150431286e-2 -0.15030060120240485,-0.10020431823965958 -0.14629258517034072,-0.10192830585587864 -0.14228456913827658,-8.164759836963298e-2 -0.13827655310621245,-0.110686944894826 -0.13426853707414832,-0.11707681879122156 -0.1302605210420842,-0.1256236971337944 -0.12625250501002017,-0.12944581379540243 -0.12224448897795603,-0.1335786561381842 -0.1182364729458919,-0.13378680115542585 -0.11422845691382777,-0.12971721404690395 -0.11022044088176364,-0.13898278798932662 -0.1062124248496995,-0.14111041295157434 -0.10220440881763537,-0.14767359686630044 -9.819639278557124e-2,-0.15878657262483264 -9.418837675350711e-2,-0.14697310404178343 -9.018036072144298e-2,-0.14900482442241547 -8.617234468937884e-2,-0.15032754962349237 -8.216432865731471e-2,-0.1575402091743553 -7.815631262525058e-2,-0.15106121808597095 -7.414829659318645e-2,-0.1500014050955395 -7.014028056112231e-2,-0.16303535854807993 -6.613226452905818e-2,-0.17021031663336827 -6.212424849699405e-2,-0.1709239931416725 -5.811623246492992e-2,-0.1765129177071364 -5.4108216432865786e-2,-0.1803315864185705 -5.010020040080165e-2,-0.1783385805882347 -4.609218436873752e-2,-0.17038325803049992 -4.208416833667339e-2,-0.17090988010908925 -3.8076152304609256e-2,-0.17145866533738408 -3.4068136272545124e-2,-0.18209025573447846 -3.0060120240480992e-2,-0.18445406367235695 -2.605210420841686e-2,-0.18206305078631302 -2.204408817635284e-2,-0.19093070441657112 -1.8036072144288706e-2,-0.19193747322364685 -1.4028056112224574e-2,-0.19316587703952348 -1.0020040080160442e-2,-0.18995669110819957 -6.012024048096309e-3,-0.1950523041234412 -2.004008016032177e-3,-0.1957957274383597 2.004008016031955e-3,-0.19484623576126658 6.012024048096087e-3,-0.19411176481022785 1.002004008016022e-2,-0.19147951253976048 1.4028056112224352e-2,-0.1969606091342282 1.8036072144288484e-2,-0.19341762371299276 2.2044088176352616e-2,-0.1922072740967522 2.605210420841675e-2,-0.1864962879054617 3.006012024048088e-2,-0.17949678808382996 3.406813627254501e-2,-0.1775898201138495 3.8076152304609145e-2,-0.18961901855714036 4.208416833667328e-2,-0.19184859935683263 4.609218436873741e-2,-0.19737057690396964 5.010020040080154e-2,-0.19634080589934155 5.4108216432865675e-2,-0.20018977490999657 5.811623246492981e-2,-0.20293880031335965 6.212424849699394e-2,-0.2024685349352009 6.613226452905807e-2,-0.1996542256277305 7.01402805611222e-2,-0.20832143656154323 7.414829659318634e-2,-0.1919407151915703 7.815631262525047e-2,-0.19098927037081215 8.21643286573146e-2,-0.19671246804204734 8.617234468937873e-2,-0.19253313543117412 9.018036072144286e-2,-0.1952619165393117 9.4188376753507e-2,-0.20057087176577515 9.819639278557113e-2,-0.20981843849507675 0.10220440881763526,-0.2094030034339679 0.1062124248496994,-0.2107653741210218 0.11022044088176353,-0.21206109138323004 0.11422845691382766,-0.215462740754087 0.11823647294589179,-0.21584866994778973 0.12224448897795592,-0.2102882333576115 0.12625250501002006,-0.21274618396224476 0.13026052104208397,-0.21231881841546485 0.1342685370741481,-0.217351897734833 0.13827655310621223,-0.21632241016920628 0.14228456913827636,-0.21625182150478006 0.1462925851703405,-0.21386153295706178 0.15030060120240463,-0.21470568391124534 0.15430861723446876,-0.2150696286694529 0.1583166332665329,-0.22191896986213 0.16232464929859702,-0.21954108981502085 0.16633266533066116,-0.21870692282651416 0.1703406813627253,-0.22208124286762554 0.17434869739478942,-0.22242090419476113 0.17835671342685355,-0.22265724905931383 0.18236472945891768,-0.21582860718941832 0.18637274549098182,-0.21356802554171272 0.19038076152304595,-0.22108935896314763 0.19438877755511008,-0.21681582764144625 0.1983967935871742,-0.2024485051059668 0.20240480961923835,-0.20075339369258982 0.20641282565130248,-0.197892446240709 0.2104208416833666,-0.20067568601891905 0.21442885771543074,-0.1799785131018472 0.21843687374749488,-0.1865023167037 0.222444889779559,-0.19115772369607864 0.22645290581162314,-0.1982944211938431 0.23046092184368727,-0.19310062410248086 0.2344689378757514,-0.18719264509025502 0.23847695390781554,-0.19403967834172986 0.24248496993987967,-0.19140976433013346 0.2464929859719438,-0.18117212393589144 0.25050100200400793,-0.18215534924037946 0.25450901803607207,-0.1749878947752349 0.2585170340681362,-0.16912049155907094 0.26252505010020033,-0.17084444240988095 0.26653306613226446,-0.15972280407228356 0.2705410821643286,-0.15748175421745236 0.2745490981963927,-0.17526252616510174 0.27855711422845686,-0.1819544248465753 0.282565130260521,-0.18690123885717935 0.2865731462925851,-0.19540339109330263 0.29058116232464926,-0.19899131444013007 0.2945891783567134,-0.19837784582126028 0.2985971943887775,-0.19636251099389213 0.30260521042084165,-0.19947395551024905 0.3066132264529058,-0.1978034520924149 0.3106212424849699,-0.19826939552017575 0.31462925851703405,-0.20601150889651276 0.3186372745490982,-0.20810260605201436 0.3226452905811623,-0.21554179951464925 0.32665330661322645,-0.21400590980536227 0.3306613226452906,-0.21209107319205212 0.3346693386773545,-0.20369156135676147 0.3386773547094186,-0.2022943307117544 0.34268537074148275,-0.20511842685354964 0.3466933867735469,-0.20951743450954763 0.350701402805611,-0.21545570861892682 0.35470941883767515,-0.2174044075638143 0.3587174348697393,-0.22326210988581274 0.3627254509018034,-0.22119407605533226 0.36673346693386755,-0.2166161164370075 0.3707414829659317,-0.21714771068438332 0.3747494989979958,-0.22039180064326513 0.37875751503005994,-0.22175694370919996 0.3827655310621241,-0.22504494689664978 0.3867735470941882,-0.22461010259272185 0.39078156312625234,-0.22119572764158701 0.3947895791583165,-0.2151985083218676 0.3987975951903806,-0.2176921321038391 0.40280561122244474,-0.21202597325292194 0.40681362725450887,-0.21392641425784553 0.410821643286573,-0.21913711863693197 0.41482965931863713,-0.22250766183757253 0.41883767535070127,-0.21756057018385744 0.4228456913827654,-0.22318031771717228 0.42685370741482953,-0.2212718588238498 0.43086172344689366,-0.21857948994268883 0.4348697394789578,-0.2089507394886102 0.4388777555110219,-0.20100018464750413 0.44288577154308606,-0.19456720953180007 0.4468937875751502,-0.16907882658925089 0.4509018036072143,-0.17984600101667503 0.45490981963927846,-0.18035401739596402 0.4589178356713426,-0.1957166376650189 0.4629258517034067,-0.18989388359938997 0.46693386773547085,-0.17932805299768462 0.470941883767535,-0.1917251198543598 0.4749498997995991,-0.16668193293602784 0.47895791583166325,-0.1687354889672006 0.4829659318637274,-0.18066294483877998 0.4869739478957915,-0.19055641508709165 0.49098196392785565,-0.18369391413311342 0.4949899799599198,-0.19037149498454187 0.4989979959919839,-0.18971345472916856 0.503006012024048,-0.16756154814638868 0.5070140280561122,-0.17666441738698913 0.5110220440881763,-0.17388894610538164 0.5150300601202404,-0.17925810661076402 0.5190380761523046,-0.1896440827081094 0.5230460921843687,-0.18995089053392655 0.5270541082164328,-0.18394780091954244 0.531062124248497,-0.19276505607139882 0.5350701402805611,-0.20327631177859273 0.539078156312625,-0.20367019968416555 0.5430861723446891,-0.20322356799757813 0.5470941883767533,-0.20312817212551804 0.5511022044088174,-0.20876607109767087 0.5551102204408815,-0.21074163732498674 0.5591182364729457,-0.2096994625768127 0.5631262525050098,-0.206655420511336 0.5671342685370739,-0.20840512752280627 0.5711422845691381,-0.20827512689694871 0.5751503006012022,-0.20787767543780167 0.5791583166332663,-0.20337953852322388 0.5831663326653305,-0.2029333666273938 0.5871743486973946,-0.19552993550971454 0.5911823647294587,-0.2003588074724435 0.5951903807615229,-0.1979970941678958 0.599198396793587,-0.19324286061043305 0.6032064128256511,-0.19717437851970576 0.6072144288577153,-0.18659006380852539 0.6112224448897794,-0.17132541913382016 0.6152304609218435,-0.17790267625773215 0.6192384769539077,-0.18956182348597772 0.6232464929859718,-0.18559208529820925 0.6272545090180359,-0.172324736948838 0.6312625250501,-0.1798278781556033 0.6352705410821642,-0.18502930382179184 0.6392785571142283,-0.193915438779229 0.6432865731462925,-0.1924872949868356 0.6472945891783566,-0.2004854983901715 0.6513026052104207,-0.19848121871839874 0.6553106212424848,-0.2004633713237438 0.659318637274549,-0.19685489128392863 0.6633266533066131,-0.20226026678552145 0.6673346693386772,-0.19892748231347013 0.6713426853707414,-0.20097519739818814 0.6753507014028055,-0.20223215202969003 0.6793587174348696,-0.20526399640829185 0.6833667334669338,-0.20951561389544493 0.6873747494989979,-0.20839573400259614 0.691382765531062,-0.21068549195410413 0.6953907815631262,-0.20772629893670835 0.6993987975951903,-0.21532511733396187 0.7034068136272544,-0.21791892979624516 0.7074148296593186,-0.21642143508358436 0.7114228456913827,-0.2165110469187571 0.7154308617234468,-0.2182846803439844 0.719438877755511,-0.2198998093129959 0.7234468937875751,-0.21773522899547781 0.7274549098196392,-0.21852853756857527 0.7314629258517034,-0.21860464787998302 0.7354709418837675,-0.21878437888417435 0.7394789579158316,-0.22464556805995073 0.7434869739478958,-0.2244873830718146 0.7474949899799597,-0.2234190596453134 0.7515030060120238,-0.2197230713878423 0.7555110220440879,-0.21787698632798524 0.7595190380761521,-0.21917580937378167 0.7635270541082162,-0.22487721907839453 0.7675350701402803,-0.22612276282154176 0.7715430861723445,-0.22899644693250354 0.7755511022044086,-0.22503350268823075 0.7795591182364727,-0.2172401396151824 0.7835671342685369,-0.21119235040582507 0.787575150300601,-0.2159977607244441 0.7915831663326651,-0.2167549283885416 0.7955911823647293,-0.22382506882234332 0.7995991983967934,-0.2206208728209702 0.8036072144288575,-0.2191708978634288 0.8076152304609217,-0.22106528417537363 0.8116232464929858,-0.22762800854859055 0.8156312625250499,-0.2270821783842334 0.819639278557114,-0.23240430018716907 0.8236472945891782,-0.2320293776686645 0.8276553106212423,-0.2310200088197345 0.8316633266533064,-0.23407911859341402 0.8356713426853706,-0.23750843162445434 0.8396793587174347,-0.23752353778759872 0.8436873747494988,-0.23665671048727155 0.847695390781563,-0.24021086311339035 0.8517034068136271,-0.23950801802658972 0.8557114228456912,-0.23396717718237936 0.8597194388777554,-0.2357428915595936 0.8637274549098195,-0.24198854325536645 0.8677354709418836,-0.23535497599336086 0.8717434869739478,-0.2376030531198522 0.8757515030060119,-0.2345655626488541 0.879759519038076,-0.23795438348419762 0.8837675350701402,-0.24275560538601648 0.8877755511022043,-0.23962511633930283 0.8917835671342684,-0.2446734183431284 0.8957915831663326,-0.2426399826813218 0.8997995991983967,-0.243436326554206 0.9038076152304608,-0.24958938527199626 0.907815631262525,-0.25196325482275994 0.9118236472945891,-0.24891329937167805 0.9158316633266532,-0.24833597113354222 0.9198396793587174,-0.24847067235120568 0.9238476953907815,-0.2401203285604966 0.9278557114228456,-0.22621433921695 0.9318637274549098,-0.2339416182057964 0.9358717434869739,-0.2325520123279312 0.939879759519038,-0.23449848051479616 0.9438877755511021,-0.21896534658363354 0.9478957915831663,-0.22446254331113513 0.9519038076152302,-0.23625604277098677 0.9559118236472943,-0.24486045565272674 0.9599198396793585,-0.24684038773266093 0.9639278557114226,-0.24154722422083552 0.9679358717434867,-0.2468658239091357 0.9719438877755509,-0.2474696168151399 0.975951903807615,-0.25201354874612314 0.9799599198396791,-0.24981200830395345 0.9839679358717432,-0.25051453692157444 0.9879759519038074,-0.24725519416009856 0.9919839679358715,-0.25035119810361417 0.9959919839679356,-0.2463478035706509 0.9999999999999998,-0.236774897240152" /></g><g /><g stroke-width="4.0e-3" stroke="#3764A0" fill="#FFFFFF" fill-opacity="1.0" stroke-opacity="0.5"><rect width="0.34350000000000014" height="0.15500000000000003" x="1.1812499999999997" y="-6.867041083776254e-3" /></g><g stroke-width="0.0" stroke="none" fill="#666666" fill-opacity="1.0" font-size="4.000000000000001e-2" text-anchor="start"><text x="1.2012499999999997" y="0.10713295891622376">rate = 0.99</text></g><g stroke-width="6.999999999999999e-3" stroke="#431712" fill="none" stroke-opacity="0.5"><polyline points="1.4612499999999997,0.10053295891622377 1.5012499999999998,0.10053295891622377" /></g><g stroke-width="0.0" stroke="none" fill="#666666" fill-opacity="1.0" font-size="4.000000000000001e-2" text-anchor="start"><text x="1.2012499999999997" y="5.0132958916223755e-2">rate = 0.95</text></g><g stroke-width="6.999999999999999e-3" stroke="#4B2282" fill="none" stroke-opacity="0.5"><polyline points="1.4612499999999997,4.3532958916223746e-2 1.5012499999999998,4.3532958916223746e-2" /></g><g /></svg>