
<svg xmlns="http://www.w3.org/2000/svg" height="300.0" viewBox="-0.9104277680948124 -0.7283312039844088 1.7014318670455961 1.461347121816856" width="450.0" xmlns:xlink="http://www.w3.org/1999/xlink">
  <g transform="translate(-8.219640591007693e-2, -0.57175)" fill-opacity="1.0" font-size="8.0e-2" stroke="none" stroke-width="0.0" fill="#000000" text-anchor="middle">
    <text transform="rotate(0.0, -0.14087383487083993, -6.25812039844088e-2)" x="-0.14087383487083993" y="-6.25812039844088e-2">ma beta
    </text>
  </g>
  <g stroke-opacity="0.0" fill-opacity="3.0e-2" stroke="#000000" stroke-width="0.0" fill="#666666">
    <rect height="0.8661758336942399" width="1.1519299626582706" x="-0.7168388161999752" y="-0.4956691208315287"/>
  </g>
  <g stroke-opacity="0.3" stroke="#a8e5ee" stroke-width="5.0e-3" fill="none">
    <polyline points="-0.7145349562746587,0.3748375920311824
-0.7145349562746587,-0.5"/>
  </g>
  <g stroke-opacity="0.3" stroke="#a8e5ee" stroke-width="5.0e-3" fill="none">
    <polyline points="-0.6638500379176948,0.3748375920311824
-0.6638500379176948,-0.5"/>
  </g>
  <g stroke-opacity="0.3" stroke="#a8e5ee" stroke-width="5.0e-3" fill="none">
    <polyline points="-0.5164030026974362,0.3748375920311824
-0.5164030026974362,-0.5"/>
  </g>
  <g stroke-opacity="0.3" stroke="#a8e5ee" stroke-width="5.0e-3" fill="none">
    <polyline points="-0.371259827402494,0.3748375920311824
-0.371259827402494,-0.5"/>
  </g>
  <g stroke-opacity="0.3" stroke="#a8e5ee" stroke-width="5.0e-3" fill="none">
    <polyline points="-0.22611665210755194,0.3748375920311824
-0.22611665210755194,-0.5"/>
  </g>
  <g stroke-opacity="0.3" stroke="#a8e5ee" stroke-width="5.0e-3" fill="none">
    <polyline points="-8.558119666324293e-2,0.3748375920311824
-8.558119666324293e-2,-0.5"/>
  </g>
  <g stroke-opacity="0.3" stroke="#a8e5ee" stroke-width="5.0e-3" fill="none">
    <polyline points="5.956197863169921e-2,0.3748375920311824
5.956197863169921e-2,-0.5"/>
  </g>
  <g stroke-opacity="0.3" stroke="#a8e5ee" stroke-width="5.0e-3" fill="none">
    <polyline points="0.2070090138519578,0.3748375920311824
0.2070090138519578,-0.5"/>
  </g>
  <g stroke-opacity="0.3" stroke="#a8e5ee" stroke-width="5.0e-3" fill="none">
    <polyline points="0.3544560490722164,0.3748375920311824
0.3544560490722164,-0.5"/>
  </g>
  <g stroke-opacity="0.3" stroke="#a8e5ee" stroke-width="5.0e-3" fill="none">
    <polyline points="0.4350911464582954,0.3748375920311824
0.4350911464582954,-0.5"/>
  </g>
  <g fill-opacity="1.0" font-size="5.0e-2" stroke="none" stroke-width="0.0" fill="#666666" text-anchor="end">
    <text transform="rotate(-45.0, -0.7145349562746587, 0.5)" x="-0.7145349562746587" y="0.5">27 Feb 2018
    </text>
  </g>
  <g fill-opacity="1.0" font-size="5.0e-2" stroke="none" stroke-width="0.0" fill="#666666" text-anchor="end">
    <text transform="rotate(-45.0, -0.6638500379176948, 0.5)" x="-0.6638500379176948" y="0.5">31 Mar 2018
    </text>
  </g>
  <g fill-opacity="1.0" font-size="5.0e-2" stroke="none" stroke-width="0.0" fill="#666666" text-anchor="end">
    <text transform="rotate(-45.0, -0.5164030026974362, 0.5)" x="-0.5164030026974362" y="0.5">30 Jun 2018
    </text>
  </g>
  <g fill-opacity="1.0" font-size="5.0e-2" stroke="none" stroke-width="0.0" fill="#666666" text-anchor="end">
    <text transform="rotate(-45.0, -0.371259827402494, 0.5)" x="-0.371259827402494" y="0.5">30 Sep 2018
    </text>
  </g>
  <g fill-opacity="1.0" font-size="5.0e-2" stroke="none" stroke-width="0.0" fill="#666666" text-anchor="end">
    <text transform="rotate(-45.0, -0.22611665210755194, 0.5)" x="-0.22611665210755194" y="0.5">31 Dec 2018
    </text>
  </g>
  <g fill-opacity="1.0" font-size="5.0e-2" stroke="none" stroke-width="0.0" fill="#666666" text-anchor="end">
    <text transform="rotate(-45.0, -8.558119666324293e-2, 0.5)" x="-8.558119666324293e-2" y="0.5">31 Mar 2019
    </text>
  </g>
  <g fill-opacity="1.0" font-size="5.0e-2" stroke="none" stroke-width="0.0" fill="#666666" text-anchor="end">
    <text transform="rotate(-45.0, 5.956197863169921e-2, 0.5)" x="5.956197863169921e-2" y="0.5">30 Jun 2019
    </text>
  </g>
  <g fill-opacity="1.0" font-size="5.0e-2" stroke="none" stroke-width="0.0" fill="#666666" text-anchor="end">
    <text transform="rotate(-45.0, 0.2070090138519578, 0.5)" x="0.2070090138519578" y="0.5">30 Sep 2019
    </text>
  </g>
  <g fill-opacity="1.0" font-size="5.0e-2" stroke="none" stroke-width="0.0" fill="#666666" text-anchor="end">
    <text transform="rotate(-45.0, 0.3544560490722164, 0.5)" x="0.3544560490722164" y="0.5">31 Dec 2019
    </text>
  </g>
  <g fill-opacity="1.0" font-size="5.0e-2" stroke="none" stroke-width="0.0" fill="#666666" text-anchor="end">
    <text transform="rotate(-45.0, 0.4350911464582954, 0.5)" x="0.4350911464582954" y="0.5">21 Feb 2020
    </text>
  </g>
  <g stroke-opacity="0.4" fill-opacity="1.0" stroke="#2c429d" stroke-width="5.0e-3" fill="#5f0391">
    <polyline points="-0.7145349562746587,0.4424577739281074
-0.7145349562746587,0.4124577739281074"/>
    <polyline points="-0.6638500379176948,0.4424577739281074
-0.6638500379176948,0.4124577739281074"/>
    <polyline points="-0.5164030026974362,0.4424577739281074
-0.5164030026974362,0.4124577739281074"/>
    <polyline points="-0.371259827402494,0.4424577739281074
-0.371259827402494,0.4124577739281074"/>
    <polyline points="-0.22611665210755194,0.4424577739281074
-0.22611665210755194,0.4124577739281074"/>
    <polyline points="-8.558119666324293e-2,0.4424577739281074
-8.558119666324293e-2,0.4124577739281074"/>
    <polyline points="5.956197863169921e-2,0.4424577739281074
5.956197863169921e-2,0.4124577739281074"/>
    <polyline points="0.2070090138519578,0.4424577739281074
0.2070090138519578,0.4124577739281074"/>
    <polyline points="0.3544560490722164,0.4424577739281074
0.3544560490722164,0.4124577739281074"/>
    <polyline points="0.4350911464582954,0.4424577739281074
0.4350911464582954,0.4124577739281074"/>
  </g>
  <g stroke-opacity="0.0" fill-opacity="0.5" stroke="#666666" stroke-width="0.0" fill="#5f0391">
    <rect height="4.330879168471247e-3" width="1.1519299626582706" x="-0.7168388161999752" y="0.4144651364226938"/>
  </g>
  <g stroke-opacity="0.3" stroke="#a8e5ee" stroke-width="5.0e-3" fill="none">
    <polyline points="-0.7197186411066209,0.3705067128627112
0.4379709713649409,0.3705067128627112"/>
  </g>
  <g stroke-opacity="0.3" stroke="#a8e5ee" stroke-width="5.0e-3" fill="none">
    <polyline points="-0.7197186411066209,0.2261440739136712
0.4379709713649409,0.2261440739136712"/>
  </g>
  <g stroke-opacity="0.3" stroke="#a8e5ee" stroke-width="5.0e-3" fill="none">
    <polyline points="-0.7197186411066209,8.17814349646312e-2
0.4379709713649409,8.17814349646312e-2"/>
  </g>
  <g stroke-opacity="0.3" stroke="#a8e5ee" stroke-width="5.0e-3" fill="none">
    <polyline points="-0.7197186411066209,-6.25812039844088e-2
0.4379709713649409,-6.25812039844088e-2"/>
  </g>
  <g stroke-opacity="0.3" stroke="#a8e5ee" stroke-width="5.0e-3" fill="none">
    <polyline points="-0.7197186411066209,-0.2069438429334487
0.4379709713649409,-0.2069438429334487"/>
  </g>
  <g stroke-opacity="0.3" stroke="#a8e5ee" stroke-width="5.0e-3" fill="none">
    <polyline points="-0.7197186411066209,-0.3513064818824887
0.4379709713649409,-0.3513064818824887"/>
  </g>
  <g stroke-opacity="0.3" stroke="#a8e5ee" stroke-width="5.0e-3" fill="none">
    <polyline points="-0.7197186411066209,-0.4956691208315287
0.4379709713649409,-0.4956691208315287"/>
  </g>
  <g fill-opacity="1.0" font-size="5.0e-2" stroke="none" stroke-width="0.0" fill="#666666" text-anchor="end">
    <text x="-0.75" y="0.3830662624512776">-60%
    </text>
  </g>
  <g fill-opacity="1.0" font-size="5.0e-2" stroke="none" stroke-width="0.0" fill="#666666" text-anchor="end">
    <text x="-0.75" y="0.23870362350223773">-40%
    </text>
  </g>
  <g fill-opacity="1.0" font-size="5.0e-2" stroke="none" stroke-width="0.0" fill="#666666" text-anchor="end">
    <text x="-0.75" y="9.434098455319773e-2">-20%
    </text>
  </g>
  <g fill-opacity="1.0" font-size="5.0e-2" stroke="none" stroke-width="0.0" fill="#666666" text-anchor="end">
    <text x="-0.75" y="-5.0021654395842385e-2">0%
    </text>
  </g>
  <g fill-opacity="1.0" font-size="5.0e-2" stroke="none" stroke-width="0.0" fill="#666666" text-anchor="end">
    <text x="-0.75" y="-0.19438429334488216">20%
    </text>
  </g>
  <g fill-opacity="1.0" font-size="5.0e-2" stroke="none" stroke-width="0.0" fill="#666666" text-anchor="end">
    <text x="-0.75" y="-0.3387469322939223">40%
    </text>
  </g>
  <g fill-opacity="1.0" font-size="5.0e-2" stroke="none" stroke-width="0.0" fill="#666666" text-anchor="end">
    <text x="-0.75" y="-0.4831095712429623">60%
    </text>
  </g>
  <g stroke-opacity="0.4" fill-opacity="1.0" stroke="#2c429d" stroke-width="5.0e-3" fill="#5f0391">
    <g transform="rotate(-90.0, -0.7312379407332036, 0.3705067128627112)">
      <polyline points="-0.7312379407332036,0.3855067128627112
-0.7312379407332036,0.3555067128627112"/>
    </g>
    <g transform="rotate(-90.0, -0.7312379407332036, 0.2261440739136712)">
      <polyline points="-0.7312379407332036,0.2411440739136712
-0.7312379407332036,0.21114407391367118"/>
    </g>
    <g transform="rotate(-90.0, -0.7312379407332036, 8.17814349646312e-2)">
      <polyline points="-0.7312379407332036,9.67814349646312e-2
-0.7312379407332036,6.67814349646312e-2"/>
    </g>
    <g transform="rotate(-90.0, -0.7312379407332036, -6.25812039844088e-2)">
      <polyline points="-0.7312379407332036,-4.758120398440881e-2
-0.7312379407332036,-7.75812039844088e-2"/>
    </g>
    <g transform="rotate(-90.0, -0.7312379407332036, -0.2069438429334487)">
      <polyline points="-0.7312379407332036,-0.19194384293344868
-0.7312379407332036,-0.2219438429334487"/>
    </g>
    <g transform="rotate(-90.0, -0.7312379407332036, -0.3513064818824887)">
      <polyline points="-0.7312379407332036,-0.3363064818824887
-0.7312379407332036,-0.3663064818824887"/>
    </g>
    <g transform="rotate(-90.0, -0.7312379407332036, -0.4956691208315287)">
      <polyline points="-0.7312379407332036,-0.4806691208315287
-0.7312379407332036,-0.5106691208315287"/>
    </g>
  </g>
  <g stroke-opacity="0.0" fill-opacity="0.5" stroke="#666666" stroke-width="0.0" fill="#5f0391">
    <rect height="0.8661758336942399" width="2.8798249066456227e-3" x="-0.7254782909199122" y="-0.4956691208315287"/>
  </g>
  <g stroke-opacity="0.5" stroke="#ac0505" stroke-width="2.0e-3" fill="none">
    <polyline points="-0.7145349562746587,-6.25812039844088e-2
0.4350911464582954,-6.25812039844088e-2"/>
  </g>
  <g stroke-opacity="0.5" stroke="#4b2282" stroke-width="7.0e-3" fill="none">
    <polyline points="-0.7145349562746587,-4.763349791826521e-2
-0.7122310963493421,-4.8362195394017427e-2
-0.7099272364240256,-5.0884903210301924e-2
-0.707623376498709,-4.9358508498337006e-2
-0.7053195165733925,-4.756794131272579e-2
-0.703015656648076,-4.742749107058175e-2
-0.7007117967227594,-4.745252084480134e-2
-0.6984079367974428,-4.7368249830162634e-2
-0.6961040768721263,-4.9090278537474386e-2
-0.6938002169468098,-4.854393675626878e-2
-0.6914963570214933,-4.7378204203122e-2
-0.6891924970961767,-4.704813627228477e-2
-0.6868886371708601,-4.7062441031235136e-2
-0.6845847772455436,-4.704349314619116e-2
-0.6822809173202271,-4.841746731688723e-2
-0.6799770573949105,-4.802259883990001e-2
-0.677673197469594,-4.8354022356796866e-2
-0.6753693375442774,-5.598514142595212e-2
-0.673065477618961,-6.57355170292171e-2
-0.6707616176936444,-4.915957966192963e-2
-0.6684577577683278,-5.372104552120083e-2
-0.6661538978430113,-5.410994515605949e-2
-0.6638500379176948,-4.8897323591268416e-2
-0.6615461779923782,-5.440688441207664e-2
-0.6592423180670617,-4.941494405755842e-2
-0.6569384581417451,-4.7166646036412074e-2
-0.6546345982164286,-4.672137377932317e-2
-0.6523307382911121,-4.878072277470269e-2
-0.6500268783657955,-4.783046392065293e-2
-0.647723018440479,-4.6309577889826925e-2
-0.6454191585151624,-4.632583758109665e-2
-0.6431152985898458,-4.63912840441153e-2
-0.6408114386645294,-4.6266609790473145e-2
-0.6385075787392128,-4.685769435934417e-2
-0.6362037188138963,-4.863094383259292e-2
-0.6338998588885797,-4.8690429190902385e-2
-0.6315959989632631,-4.73670091072973e-2
-0.6292921390379467,-4.63865881906258e-2
-0.6269882791126301,-4.6396611270556054e-2
-0.6246844191873135,-4.67987128943248e-2
-0.622380559261997,-4.649398018570605e-2
-0.6200766993366804,-4.622306919228403e-2
-0.617772839411364,-4.631221385538209e-2
-0.6154689794860474,-4.608682971563027e-2
-0.6131651195607308,-4.60229366025513e-2
-0.6108612596354144,-4.631981624846704e-2
-0.6085573997100978,-4.6505329678174e-2
-0.6062535397847812,-4.612381532407939e-2
-0.6039496798594648,-4.6566217942829446e-2
-0.6016458199341481,-4.6509059745111214e-2
-0.5993419600088317,-4.861263897024881e-2
-0.5970381000835151,-5.1841667004928316e-2
-0.5947342401581985,-5.217836499894224e-2
-0.592430380232882,-5.21063920571222e-2
-0.5901265203075654,-4.8795566046904826e-2
-0.587822660382249,-4.991025262056559e-2
-0.5855188004569324,-4.9313783241264786e-2
-0.5832149405316158,-4.829324790097933e-2
-0.5809110806062993,-5.038439329881628e-2
-0.5786072206809827,-4.8878834363129786e-2
-0.5763033607556662,-4.9713931026703184e-2
-0.5739995008303497,-4.874336258133549e-2
-0.5716956409050331,-4.796984442816432e-2
-0.5693917809797165,-4.7368271274581764e-2
-0.5670879210544,-4.7269314054765865e-2
-0.5647840611290835,-4.650524061988004e-2
-0.562480201203767,-4.7582388887234095e-2
-0.5601763412784504,-4.868507286262258e-2
-0.5578724813531338,-4.861686090982453e-2
-0.5555686214278173,-5.1762447731009464e-2
-0.5532647615025008,-5.071410830664469e-2
-0.5509609015771842,-5.169780540887847e-2
-0.5486570416518677,-5.158947275949566e-2
-0.5463531817265511,-5.185284720232408e-2
-0.5440493218012346,-4.925632642510236e-2
-0.5417454618759181,-4.979806409895371e-2
-0.5394416019506015,-4.900094926622345e-2
-0.537137742025285,-4.814007769597961e-2
-0.5348338820999685,-4.757962429782592e-2
-0.5325300221746518,-4.759154258030607e-2
-0.5302261622493354,-4.815973289958586e-2
-0.5279223023240188,-4.7789444252889335e-2
-0.5256184423987023,-5.294107479635668e-2
-0.5233145824733857,-5.1258596385143296e-2
-0.5210107225480691,-5.666361663235653e-2
-0.5187068626227527,-5.130746448119661e-2
-0.516403002697436,-5.0726262984512216e-2
-0.5140991427721195,-4.916782209177095e-2
-0.5117952828468031,-5.131427424507784e-2
-0.5094914229214865,-4.760721493172104e-2
-0.50718756299617,-4.7529115848526926e-2
-0.5048837030708534,-5.010197868813793e-2
-0.5025798431455368,-5.14629180621462e-2
-0.5002759832202204,-4.7610762955098695e-2
-0.4979721232949038,-5.03827150834536e-2
-0.49566826336958725,-5.0387165683992596e-2
-0.4933644034442707,-4.932262317884484e-2
-0.4910605435189542,-5.0785042345352194e-2
-0.4887566835936376,-5.140179851531179e-2
-0.4864528236683211,-4.867747784663545e-2
-0.48414896374300453,-4.8086972021078145e-2
-0.481845103817688,-4.836939205418034e-2
-0.47954124389237146,-4.987266784266986e-2
-0.4772373839670549,-5.4802457691530804e-2
-0.47493352404173844,-5.1096497845090516e-2
-0.47262966411642193,-4.75620155754648e-2
-0.47032580419110537,-4.7427855812589015e-2
-0.4680219442657888,-4.7036009076699914e-2
-0.46571808434047224,-4.702095306762377e-2
-0.46341422441515573,-4.723899411422783e-2
-0.46111036448983916,-4.8295194586117085e-2
-0.45880650456452265,-4.94499362107681e-2
-0.4565026446392061,-5.0428113922157625e-2
-0.4541987847138896,-4.947623898163356e-2
-0.45189492478857296,-4.8197141362339324e-2
-0.44959106486325645,-4.7181026732367015e-2
-0.44728720493793994,-4.868552245758162e-2
-0.4449833450126234,-4.6701126705858576e-2
-0.4426794850873068,-4.9110599574206604e-2
-0.4403756251619903,-4.6258747251689325e-2
-0.4380717652366738,-4.6210393169951125e-2
-0.4357679053113572,-4.640219785949229e-2
-0.43346404538604066,-4.665149504379795e-2
-0.4311601854607241,-4.636289504268698e-2
-0.4288563255354076,-4.616007141070111e-2
-0.426552465610091,-4.6940474826197454e-2
-0.4242486056847745,-5.044324855921767e-2
-0.42194474575945795,-4.960732738560758e-2
-0.4196408858341414,-5.314380017921594e-2
-0.4173370259088248,-4.812384343873355e-2
-0.4150331659835083,-4.760154171687547e-2
-0.4127293060581918,-4.665496327067398e-2
-0.41042544613287524,-4.641059689938409e-2
-0.4081215862075587,-4.761101065754103e-2
-0.4058177262822421,-4.92002860662355e-2
-0.4035138663569256,-4.825562705957087e-2
-0.40121000643160903,-4.680401311623372e-2
-0.3989061465062925,-4.69011285769545e-2
-0.39660228658097596,-4.640196714320888e-2
-0.39429842665565945,-4.632543083789209e-2
-0.3919945667303429,-4.752469459306097e-2
-0.3896907068050263,-4.595935653641148e-2
-0.3873868468797098,-4.594366684663431e-2
-0.38508298695439325,-4.785339873352046e-2
-0.3827791270290768,-4.697473750166592e-2
-0.38047526710376023,-4.570393868606959e-2
-0.37817140717844366,-4.587664079418163e-2
-0.37586754725312715,-4.736821659227697e-2
-0.37356368732781053,-4.627246417093078e-2
-0.371259827402494,-4.6531120310148055e-2
-0.3689559674771775,-4.569985279783828e-2
-0.36665210755186095,-4.586701952231387e-2
-0.3643482476265444,-4.586835904857611e-2
-0.3620443877012279,-5.098603535178459e-2
-0.35974052777591137,-5.7752456101562544e-2
-0.3574366678505948,-5.83400426082763e-2
-0.35513280792527824,-6.055778570634773e-2
-0.35282894799996173,-7.550876838952392e-2
-0.3505250880746452,-9.205521830299246e-2
-0.34822122814932865,-6.720906788460157e-2
-0.3459173682240121,-7.072347642507626e-2
-0.3436135082986956,-5.163475191785771e-2
-0.34130964837337896,-5.140501794320762e-2
-0.3390057884480624,-5.654269861644223e-2
-0.3367019285227459,-5.589926579115956e-2
-0.3343980685974294,-5.73697145443981e-2
-0.3320942086721128,-5.9594601536625325e-2
-0.32979034874679625,-7.337791729102838e-2
-0.32748648882147974,-5.6165230344040196e-2
-0.32518262889616323,-6.29296558831165e-2
-0.32287876897084666,-6.506116260970829e-2
-0.3205749090455301,-5.4137541860495575e-2
-0.3182710491202136,-5.029315353644226e-2
-0.3159671891948971,-4.882903710914566e-2
-0.3136633292695805,-4.908612092667686e-2
-0.31135946934426395,-4.869169670829643e-2
-0.30905560941894744,-4.892965635343027e-2
-0.30675174949363093,-5.263354245706786e-2
-0.30444788956831437,-5.164333714039193e-2
-0.3021440296429978,-4.92116001760079e-2
-0.2998401697176813,-4.796259978791251e-2
-0.2975363097923648,-4.7997790905076276e-2
-0.2952324498670482,-4.8800606424167836e-2
-0.29292858994173165,-4.7474940964022716e-2
-0.29062473001641514,-4.7487863446309175e-2
-0.28832087009109864,-4.8396988422172105e-2
-0.28601701016578207,-5.249509085886561e-2
-0.28371315024046545,-5.0603827925134404e-2
-0.28140929031514894,-5.204053246444773e-2
-0.2791054303898324,-4.744313649387377e-2
-0.2768015704645158,-4.710996495599895e-2
-0.2744977105391993,-4.912111754458193e-2
-0.2721938506138828,-4.859513046638908e-2
-0.26988999068856623,-5.068121132492598e-2
-0.26758613076324966,-5.436293477616505e-2
-0.26528227083793315,-4.6089562712869236e-2
-0.26297841091261664,-4.609644712533767e-2
-0.2606745509873001,-4.8442457743090084e-2
-0.2583706910619835,-4.76603978643515e-2
-0.256066831136667,-4.7399184420321205e-2
-0.2537629712113504,-4.641879216932687e-2
-0.2514591112860338,-4.631659889352857e-2
-0.24915525136071737,-4.90666307979436e-2
-0.2468513914354008,-5.480309097243907e-2
-0.24454753151008424,-5.343794243730193e-2
-0.24224367158476767,-5.85378521273473e-2
-0.2399398116594511,-6.469469403030081e-2
-0.23763595173413465,-7.402721642173948e-2
-0.2353320918088182,-8.717861128121485e-2
-0.23302823188350164,-4.9893767643166e-2
-0.23072437195818507,-4.812768971934345e-2
-0.2284205120328685,-4.797064310083843e-2
-0.22611665210755194,-4.7276725925183505e-2
-0.22381279218223538,-4.724614716579456e-2
-0.2215089322569188,-4.850158363351598e-2
-0.21920507233160236,-4.700730641116535e-2
-0.2169012124062858,-4.7868731993006786e-2
-0.21459735248096923,-4.9483003369150236e-2
-0.21229349255565277,-5.0377235122403885e-2
-0.2099896326303362,-5.143557440393254e-2
-0.20768577270501964,-5.1385442748395516e-2
-0.20538191277970308,-5.014862506664697e-2
-0.20307805285438651,-5.26219324958519e-2
-0.20077419292907006,-5.315975334122769e-2
-0.1984703330037535,-5.534230896925307e-2
-0.19616647307843693,-5.9728187469927585e-2
-0.19386261315312037,-5.3396967969639e-2
-0.1915587532278038,-5.385901403694904e-2
-0.18925489330248724,-5.4065912416153994e-2
-0.18695103337717067,-5.6528041694429376e-2
-0.18464717345185422,-5.3355908957145926e-2
-0.18234331352653765,-5.277304785263126e-2
-0.1800394536012211,-5.697065702279713e-2
-0.17773559367590464,-5.985873096077654e-2
-0.17543173375058807,-5.9506386385954735e-2
-0.1731278738252714,-6.183777864377238e-2
-0.17082401389995483,-6.326740399119624e-2
-0.16852015397463838,-6.098063595871661e-2
-0.1662162940493218,-5.5845518758670165e-2
-0.16391243412400536,-5.5661548820390205e-2
-0.1616085741986888,-5.550121580356182e-2
-0.15930471427337234,-5.925094090389116e-2
-0.15700085434805577,-5.9818676070900634e-2
-0.1546969944227392,-5.7734025157378244e-2
-0.15239313449742264,-6.145853515295219e-2
-0.15008927457210608,-6.1153947193410274e-2
-0.14778541464678963,-6.101422611446661e-2
-0.14548155472147306,-5.82106079087541e-2
-0.1431776947961565,-6.013082935679559e-2
-0.14087383487083993,-5.976203719914597e-2
-0.13856997494552337,-5.8476591933697586e-2
-0.1362661150202068,-5.751004818482286e-2
-0.13396225509489024,-5.593991158644307e-2
-0.13165839516957378,-5.743476934956626e-2
-0.12935453524425722,-5.5442049927524995e-2
-0.12705067531894065,-5.4861082326973176e-2
-0.1247468153936242,-5.3883752730011114e-2
-0.12244295546830763,-5.4659162667028305e-2
-0.12013909554299107,-5.5377701706423865e-2
-0.1178352356176745,-5.2222668382295834e-2
-0.11553137569235794,-5.235489455476172e-2
-0.11322751576704149,-5.318126628397557e-2
-0.11092365584172492,-5.26343007941209e-2
-0.10861979591640836,-5.341687355844149e-2
-0.10631593599109179,-5.408796417525552e-2
-0.10401207606577523,-5.348859193333977e-2
-0.10170821614045866,-5.2323561709617605e-2
-9.94043562151421e-2,-5.440338563576419e-2
-9.710049628982564e-2,-5.004408480192135e-2
-9.479663636450908e-2,-5.035934462438285e-2
-9.249277643919251e-2,-4.927724246749687e-2
-9.018891651387606e-2,-4.986152098261476e-2
-8.78850565885595e-2,-4.936224255397592e-2
-8.558119666324293e-2,-4.902094915238453e-2
-8.327733673792637e-2,-5.0573266214446355e-2
-8.09734768126098e-2,-5.0051480212905286e-2
-7.866961688729335e-2,-5.0218913299510226e-2
-7.636575696197667e-2,-5.036748010143399e-2
-7.406189703666022e-2,-5.141488617952916e-2
-7.175803711134365e-2,-5.111638556384879e-2
-6.945417718602709e-2,-4.887579952265664e-2
-6.715031726071052e-2,-4.913492265036723e-2
-6.484645733539396e-2,-4.891932906380614e-2
-6.25425974100775e-2,-4.989630801664102e-2
-6.023873748476094e-2,-4.924518022136948e-2
-5.7934877559444375e-2,-4.903312278513239e-2
-5.563101763412792e-2,-4.859930650188682e-2
-5.332715770881136e-2,-4.860261656796705e-2
-5.10232977834949e-2,-4.859828677645284e-2
-4.871943785817834e-2,-4.964999683475513e-2
-4.641557793286177e-2,-4.849898001343178e-2
-4.411171800754521e-2,-4.825376415035065e-2
-4.1807858082228755e-2,-4.871066088367848e-2
-3.950399815691219e-2,-4.859634484025166e-2
-3.7200138231595625e-2,-4.847607763498596e-2
-3.489627830627917e-2,-4.867168527447219e-2
-3.259241838096261e-2,-4.9945002224048185e-2
-3.0288558455646042e-2,-4.729528840633623e-2
-2.7984698530329366e-2,-4.796541232599616e-2
-2.5680838605012912e-2,-5.63159150864585e-2
-2.3376978679696347e-2,-5.7902576609831446e-2
-2.1073118754379783e-2,-6.08981393357555e-2
-1.876925882906333e-2,-5.685597424032329e-2
-1.6465398903746764e-2,-7.20048432788587e-2
-1.41615389784302e-2,-6.136603358059145e-2
-1.1857679053113634e-2,-5.5950471484616626e-2
-9.55381912779707e-3,-5.0608628902517605e-2
-7.249959202480616e-3,-5.310349693833394e-2
-4.946099277164051e-3,-5.678827264083697e-2
-2.6422393518474863e-3,-5.12302183135841e-2
-3.383794265310325e-4,-5.241492301533901e-2
1.9654804987856433e-3,-5.858118286066605e-2
4.269340424102097e-3,-5.696600286335096e-2
6.573200349418773e-3,-6.235264221846648e-2
8.877060274735227e-3,-6.742551723869694e-2
1.1180920200051792e-2,-6.381555471493205e-2
1.3484780125368245e-2,-7.357316653647239e-2
1.578864005068481e-2,-7.469740151140503e-2
1.8092499976001264e-2,-5.189120077179532e-2
2.039635990131794e-2,-4.971454109518758e-2
2.2700219826634616e-2,-4.937153365624003e-2
2.500407975195107e-2,-5.062591606986788e-2
2.7307939677267634e-2,-5.1847280401351004e-2
2.9611799602584088e-2,-5.1440843239613177e-2
3.191565952790065e-2,-5.0569302618065026e-2
3.4219519453217107e-2,-5.158924295640066e-2
3.652337937853378e-2,-5.0791891379602605e-2
3.8827239303850236e-2,-5.087419280280148e-2
4.113109922916691e-2,-5.4105513520712134e-2
4.3434959154483366e-2,-5.513848444770253e-2
4.573881907979993e-2,-6.018913051960695e-2
4.8042679005116384e-2,-5.787237233079623e-2
5.034653893043295e-2,-5.563044362709546e-2
5.2650398855749625e-2,-5.038899712827993e-2
5.495425878106608e-2,-5.002906181952027e-2
5.7258118706382755e-2,-5.0561239703041605e-2
5.956197863169921e-2,-5.199732231615306e-2
6.186583855701577e-2,-5.5027785052669365e-2
6.416969848233223e-2,-5.6005417175152505e-2
6.647355840764879e-2,-6.033810977600784e-2
6.877741833296525e-2,-5.718544878113052e-2
7.108127825828192e-2,-5.2838382467443545e-2
7.338513818359838e-2,-5.281696458394658e-2
7.568899810891505e-2,-5.436524497826789e-2
7.79928580342315e-2,-5.486433274326474e-2
8.029671795954807e-2,-5.6885743750955675e-2
8.260057788486463e-2,-5.578331265028569e-2
8.490443781018109e-2,-5.268970759105185e-2
8.720829773549776e-2,-5.050408717443e-2
8.951215766081422e-2,-5.059153520495219e-2
9.18160175861309e-2,-5.057845147909057e-2
9.411987751144713e-2,-5.0126931110809014e-2
9.64237374367638e-2,-4.99838490094634e-2
9.872759736208037e-2,-5.088275973362266e-2
0.10103145728739682,-4.924592578928566e-2
0.10333531721271338,-5.0045710390005604e-2
0.10563917713802984,-4.920721192963995e-2
0.10794303706334651,-4.882301315793747e-2
0.11024689698866297,-5.168062122204564e-2
0.11255075691397964,-5.79992425287974e-2
0.1148546168392961,-6.491223074172825e-2
0.11715847676461266,-8.121970334670714e-2
0.11946233668992912,-6.240175552714e-2
0.12176619661524568,-6.0819747721594375e-2
0.12407005654056213,-4.9177079940774804e-2
0.1263739164658788,-5.0982429503681925e-2
0.12867777639119526,-5.578168764352931e-2
0.13098163631651194,-4.867889738151043e-2
0.1332854962418285,-5.71709810735912e-2
0.13558935616714496,-5.499658235847327e-2
0.13789321609246152,-4.88426625399937e-2
0.14019707601777798,-4.691772834137209e-2
0.14250093594309465,-4.760526980871238e-2
0.1448047958684111,-4.6751084188178194e-2
0.14710865579372778,-4.6764376654437334e-2
0.14941251571904424,-5.0842426138151264e-2
0.1517163756443608,-4.7444901406888396e-2
0.15402023556967726,-4.79006708110169e-2
0.15632409549499382,-4.668411407867368e-2
0.15862795542031027,-4.630692306537176e-2
0.16093181534562695,-4.6343228895708966e-2
0.16323567527094363,-4.611434191417163e-2
0.16553953519626008,-4.659184829417584e-2
0.16784339512157664,-4.9064606740517824e-2
0.1701472550468931,-4.904184783188725e-2
0.17245111497220966,-4.8728658306953054e-2
0.17475497489752612,-4.856087716767732e-2
0.1770588348228428,-5.048110002008954e-2
0.17936269474815925,-5.111252206829364e-2
0.18166655467347592,-5.0328168119398886e-2
0.18397041459879238,-4.889120036117012e-2
0.18627427452410894,-4.934856952966715e-2
0.1885781344494254,-4.913270691237592e-2
0.19088199437474196,-4.884860007138625e-2
0.1931858543000584,-4.759165230560558e-2
0.1954897142253751,-4.749908967887406e-2
0.19779357415069176,-4.736761948205681e-2
0.20009743407600822,-4.7031775717018e-2
0.20240129400132478,-4.70277862628391e-2
0.20470515392664124,-4.762310598893771e-2
0.2070090138519578,-4.6940756114071336e-2
0.20931287377727426,-4.925073729913476e-2
0.21161673370259093,-5.7158539926948526e-2
0.21392059362790738,-5.130632332428775e-2
0.21622445355322406,-4.659990645749923e-2
0.21852831347854051,-4.7223216517119915e-2
0.22083217340385708,-5.1775871613594315e-2
0.22313603332917353,-4.779225850097868e-2
0.2254398932544901,-4.6468233470553955e-2
0.22774375317980677,-4.640401009898165e-2
0.23004761310512323,-4.621687451271772e-2
0.2323514730304399,-4.78142633146732e-2
0.23465533295575636,-4.710159141971604e-2
0.23695919288107292,-4.7605033772095684e-2
0.23926305280638938,-4.658106951313423e-2
0.24156691273170594,-4.7928345865031474e-2
0.2438707726570224,-4.680252626694226e-2
0.24617463258233885,-4.727240902099805e-2
0.24847849250765552,-4.758186872900105e-2
0.250782352432972,-4.861456181685264e-2
0.25308621235828865,-5.054693822306511e-2
0.2553900722836051,-4.9571579635260266e-2
0.2576939322089218,-5.057966790739454e-2
0.259997792134238,-4.865126766067318e-2
0.2623016520595547,-5.2468333330805916e-2
0.26460551198487114,-5.394912985726408e-2
0.2669093719101878,-5.2111786312422304e-2
0.2692132318355043,-5.170629956627226e-2
0.27151709176082095,-5.251508308933328e-2
0.2738209516861374,-5.3243655319412775e-2
0.27612481161145386,-5.1076477488675054e-2
0.27842867153677053,-5.1209772710827384e-2
0.280732531462087,-5.089657471766629e-2
0.28303639138740366,-5.067662653240612e-2
0.2853402513127201,-5.4189850838429754e-2
0.2876441112380368,-5.336389668310437e-2
0.28994797116335325,-5.1913852930062454e-2
0.2922518310886697,-4.941006718092511e-2
0.2945556910139864,-4.884098755025279e-2
0.29685955093930283,-4.8984094750104346e-2
0.2991634108646193,-5.09109169913986e-2
0.30146727078993596,-5.1360630777151806e-2
0.3037711307152524,-5.313643212273511e-2
0.3060749906405691,-4.952318691410984e-2
0.30837885056588554,-4.85149175360724e-2
0.3106827104912022,-5.167992566306334e-2
0.3129865704165187,-4.8380964637762425e-2
0.3152904303418351,-4.8145575559678244e-2
0.3175942902671518,-4.7603792821295676e-2
0.31989815019246826,-4.706997888790032e-2
0.32220201011778493,-4.723746227838832e-2
0.3245058700431014,-4.7029114622841206e-2
0.32680972996841806,-4.8291825739865346e-2
0.3291135898937343,-4.777606515849242e-2
0.33141744981905097,-5.058693691723426e-2
0.3337213097443674,-4.974965158659128e-2
0.3360251696696841,-4.863837600642218e-2
0.3383290295950008,-5.032731838815363e-2
0.34063288952031723,-5.288631673742428e-2
0.3429367494456339,-5.2100089599950494e-2
0.34524060937095014,-5.057389218554886e-2
0.3475444692962668,-5.329878309671732e-2
0.34984832922158327,-5.1684385576720615e-2
0.35215218914689994,-4.759832575672218e-2
0.3544560490722164,-4.787521848772702e-2
0.35675990899753307,-5.095089292227206e-2
0.3590637689228495,-4.676924994381515e-2
0.361367628848166,-4.700138988016567e-2
0.36367148877348265,-4.67355154951159e-2
0.3659753486987991,-4.6726316403957635e-2
0.36827920862411556,-4.843068007305651e-2
0.37058306854943224,-4.6598765028847966e-2
0.3728869284747489,-4.855792579725715e-2
0.37519078840006537,-4.697235328897964e-2
0.3774946483253818,-4.708715645347006e-2
0.3797985082506985,-5.0786105864224385e-2
0.38210236817601495,-5.256747226682079e-2
0.3844062281013314,-4.852889008188199e-2
0.3867100880266481,-4.774286978113229e-2
0.38901394795196453,-4.750640106756032e-2
0.391317807877281,-4.7549928224278615e-2
0.39362166780259766,-5.83362051277625e-2
0.3959255277279141,-4.899560255304536e-2
0.39822938765323057,-4.99531512669521e-2
0.40053324757854725,-4.849684989594971e-2
0.4028371075038639,-5.952233883967395e-2
0.40514096742918015,-5.2626107533175204e-2
0.40744482735449705,-4.595431127243965e-2
0.4097486872798133,-4.617696209963351e-2
0.4120525472051302,-4.657873277370295e-2
0.4143564071304464,-4.554911166962616e-2
0.4166602670557631,-4.619854519605748e-2
0.4189641269810793,-4.623410339810585e-2
0.4212679869063962,-4.765639661090049e-2
0.42357184683171245,-4.6516303098116496e-2
0.42587570675702935,-4.657808912228567e-2
0.4281795666823456,-4.572960714961716e-2
0.43048342660766226,-4.619927369020849e-2
0.4327872865329787,-4.5587924412860525e-2
0.4350911464582954,-4.81181046911241e-2"/>
  </g>
  <g stroke-opacity="0.5" stroke="#431712" stroke-width="7.0e-3" fill="none">
    <polyline points="-0.7145349562746587,-5.906481111237338e-2
-0.7122310963493421,-5.916278982391232e-2
-0.7099272364240256,-5.946500413903166e-2
-0.707623376498709,-5.933747870921047e-2
-0.7053195165733925,-5.913638099494056e-2
-0.703015656648076,-5.911208357319009e-2
-0.7007117967227594,-5.912394749039529e-2
-0.6984079367974428,-5.908648431119934e-2
-0.6961040768721263,-5.910996275927394e-2
-0.6938002169468098,-5.9090031047073555e-2
-0.6914963570214933,-5.9056020203610116e-2
-0.6891924970961767,-5.907327433590992e-2
-0.6868886371708601,-5.908320828054714e-2
-0.6845847772455436,-5.907524301721423e-2
-0.6822809173202271,-5.9287049797851155e-2
-0.6799770573949105,-5.926467239562827e-2
-0.677673197469594,-5.931745148213807e-2
-0.6753693375442774,-6.0188245598744694e-2
-0.673065477618961,-6.1300179356479245e-2
-0.6707616176936444,-5.979950792028266e-2
-0.6684577577683278,-6.052030560861199e-2
-0.6661538978430113,-6.067278663298914e-2
-0.6638500379176948,-6.001035765438101e-2
-0.6615461779923782,-6.1015398065986215e-2
-0.6592423180670617,-6.0347480076823556e-2
-0.6569384581417451,-5.987277985449457e-2
-0.6546345982164286,-5.9653705047663985e-2
-0.6523307382911121,-6.043716940098631e-2
-0.6500268783657955,-6.029011781573701e-2
-0.647723018440479,-5.966948200988731e-2
-0.6454191585151624,-5.9845572003064285e-2
-0.6431152985898458,-5.959924685840656e-2
-0.6408114386645294,-5.9686376687975384e-2
-0.6385075787392128,-5.947817021251156e-2
-0.6362037188138963,-5.9281510602345766e-2
-0.6338998588885797,-5.9275455656019105e-2
-0.6315959989632631,-5.937541766508436e-2
-0.6292921390379467,-5.9570784993136394e-2
-0.6269882791126301,-5.957606566659901e-2
-0.6246844191873135,-5.998836310107192e-2
-0.622380559261997,-5.99266028013925e-2
-0.6200766993366804,-5.9601836594599944e-2
-0.617772839411364,-5.957899608761108e-2
-0.6154689794860474,-5.98191672407542e-2
-0.6131651195607308,-5.974372301273556e-2
-0.6108612596354144,-5.9985821594607525e-2
-0.6085573997100978,-6.0073614312827206e-2
-0.6062535397847812,-5.9643061114393436e-2
-0.6039496798594648,-5.955868657636687e-2
-0.6016458199341481,-5.9571352921481635e-2
-0.5993419600088317,-5.9370508618672324e-2
-0.5970381000835151,-5.925142378537995e-2
-0.5947342401581985,-5.924056163896785e-2
-0.592430380232882,-5.923714168672756e-2
-0.5901265203075654,-5.931286818719106e-2
-0.587822660382249,-5.926748199348286e-2
-0.5855188004569324,-5.928147213780344e-2
-0.5832149405316158,-5.9320479185594355e-2
-0.5809110806062993,-5.924016833511059e-2
-0.5786072206809827,-5.927408831655434e-2
-0.5763033607556662,-5.924550379006832e-2
-0.5739995008303497,-5.92692010817617e-2
-0.5716956409050331,-5.930242657488549e-2
-0.5693917809797165,-5.951974351254896e-2
-0.5670879210544,-5.928472251696759e-2
-0.5647840611290835,-5.939687311225361e-2
-0.562480201203767,-5.9243346802105634e-2
-0.5601763412784504,-5.9212646018369286e-2
-0.5578724813531338,-5.921128562117017e-2
-0.5555686214278173,-5.9196459830852866e-2
-0.5532647615025008,-5.9194396577589736e-2
-0.5509609015771842,-5.9199994323127614e-2
-0.5486570416518677,-5.920191177604406e-2
-0.5463531817265511,-5.9207240483704626e-2
-0.5440493218012346,-5.9193284194863915e-2
-0.5417454618759181,-5.919623680811592e-2
-0.5394416019506015,-5.919339389000022e-2
-0.537137742025285,-5.9193991000787594e-2
-0.5348338820999685,-5.921094070160671e-2
-0.5325300221746518,-5.920390384834917e-2
-0.5302261622493354,-5.9259091114259976e-2
-0.5279223023240188,-5.9242800449668565e-2
-0.5256184423987023,-5.9478584584928273e-2
-0.5233145824733857,-5.94331141938691e-2
-0.5210107225480691,-5.9665630081571e-2
-0.5187068626227527,-5.949499486532561e-2
-0.516403002697436,-5.948262068512189e-2
-0.5140991427721195,-5.941770576403094e-2
-0.5117952828468031,-5.9542653912825094e-2
-0.5094914229214865,-5.935058991157238e-2
-0.50718756299617,-5.923704929109974e-2
-0.5048837030708534,-5.919415591696453e-2
-0.5025798431455368,-5.919744686011619e-2
-0.5002759832202204,-5.9204861934386566e-2
-0.4979721232949038,-5.919480092138629e-2
-0.49566826336958725,-5.919689166234754e-2
-0.4933644034442707,-5.919174011413708e-2
-0.4910605435189542,-5.920603525828683e-2
-0.4887566835936376,-5.9217255988505135e-2
-0.4864528236683211,-5.919194635341596e-2
-0.48414896374300453,-5.918882213057963e-2
-0.481845103817688,-5.919141339545908e-2
-0.47954124389237146,-5.9212604381909006e-2
-0.4772373839670549,-5.931406702823683e-2
-0.47493352404173844,-5.925802857302498e-2
-0.47262966411642193,-5.9193051804018904e-2
-0.47032580419110537,-5.918582685892493e-2
-0.4680219442657888,-5.91841983757021e-2
-0.46571808434047224,-5.918184509215785e-2
-0.46341422441515573,-5.919486436225874e-2
-0.46111036448983916,-5.922740663321435e-2
-0.45880650456452265,-5.9263235092978706e-2
-0.4565026446392061,-5.9296884125369265e-2
-0.4541987847138896,-5.9282263222643516e-2
-0.45189492478857296,-5.92523029595291e-2
-0.44959106486325645,-5.918582980749443e-2
-0.44728720493793994,-5.918238872527304e-2
-0.4449833450126234,-5.918921936821819e-2
-0.4426794850873068,-5.918675418886388e-2
-0.4403756251619903,-5.9180791952841094e-2
-0.4380717652366738,-5.9196799126218336e-2
-0.4357679053113572,-5.921299531117952e-2
-0.43346404538604066,-5.9229070105768944e-2
-0.4311601854607241,-5.9217837830883635e-2
-0.4288563255354076,-5.91968626039826e-2
-0.426552465610091,-5.925834614461167e-2
-0.4242486056847745,-5.9391325510397275e-2
-0.42194474575945795,-5.938129675659298e-2
-0.4196408858341414,-5.9512234638834816e-2
-0.4173370259088248,-5.937304095259621e-2
-0.4150331659835083,-5.93606080226422e-2
-0.4127293060581918,-5.931226527396871e-2
-0.41042544613287524,-5.9254275985585525e-2
-0.4081215862075587,-5.9205616200244005e-2
-0.4058177262822421,-5.9187925984232614e-2
-0.4035138663569256,-5.919479563262542e-2
-0.40121000643160903,-5.922075836231111e-2
-0.3989061465062925,-5.921824859219582e-2
-0.39660228658097596,-5.9280511766035215e-2
-0.39429842665565945,-5.9274397480744145e-2
-0.3919945667303429,-5.919858258924171e-2
-0.3896907068050263,-5.924842577363065e-2
-0.3873868468797098,-5.9257626390438745e-2
-0.38508298695439325,-5.9399866991230454e-2
-0.3827791270290768,-5.937322377116794e-2
-0.38047526710376023,-5.928424026061563e-2
-0.37817140717844366,-5.925255609051949e-2
-0.37586754725312715,-5.9206262525894116e-2
-0.37356368732781053,-5.9228117936849456e-2
-0.371259827402494,-5.9221052507497984e-2
-0.3689559674771775,-5.926067218881481e-2
-0.36665210755186095,-5.924529234510756e-2
-0.3643482476265444,-5.924650475902371e-2
-0.3620443877012279,-5.918043287449992e-2
-0.35974052777591137,-5.920883498515317e-2
-0.3574366678505948,-5.9217989362290835e-2
-0.35513280792527824,-5.9241876889105316e-2
-0.35282894799996173,-6.0312085436213914e-2
-0.3505250880746452,-6.155480420613746e-2
-0.34822122814932865,-6.052996150170298e-2
-0.3459173682240121,-6.0883348345123545e-2
-0.3436135082986956,-5.9727464314757506e-2
-0.34130964837337896,-5.974367449343476e-2
-0.3390057884480624,-6.035419034833511e-2
-0.3367019285227459,-6.037517026416239e-2
-0.3343980685974294,-6.060713286214947e-2
-0.3320942086721128,-6.0928588006887274e-2
-0.32979034874679625,-6.285125960355231e-2
-0.32748648882147974,-6.1303561634852066e-2
-0.32518262889616323,-6.2408844834512034e-2
-0.32287876897084666,-6.288779420775958e-2
-0.3205749090455301,-6.160110667100083e-2
-0.3182710491202136,-6.090446975556019e-2
-0.3159671891948971,-6.035761520933558e-2
-0.3136633292695805,-6.064366747548566e-2
-0.31135946934426395,-6.0371489598772365e-2
-0.30905560941894744,-6.010717685798339e-2
-0.30675174949363093,-5.948384103489146e-2
-0.30444788956831437,-5.953455854761114e-2
-0.3021440296429978,-5.9753664002701656e-2
-0.2998401697176813,-6.0421810445758006e-2
-0.2975363097923648,-6.0483119770749494e-2
-0.2952324498670482,-6.083219581634258e-2
-0.29292858994173165,-6.0313831380804594e-2
-0.29062473001641514,-6.0220373435738606e-2
-0.28832087009109864,-6.0932893923473896e-2
-0.28601701016578207,-6.190415079728895e-2
-0.28371315024046545,-6.168066729692445e-2
-0.28140929031514894,-6.206970976659132e-2
-0.2791054303898324,-6.1048935251794334e-2
-0.2768015704645158,-6.0866874607967913e-2
-0.2744977105391993,-5.9898755516638036e-2
-0.2721938506138828,-5.996168804399926e-2
-0.26988999068856623,-5.973766677292647e-2
-0.26758613076324966,-5.952583185943139e-2
-0.26528227083793315,-6.027652586109555e-2
-0.26297841091261664,-6.032639145657692e-2
-0.2606745509873001,-6.127699680987986e-2
-0.2583706910619835,-6.116463096707181e-2
-0.256066831136667,-6.1162617281923404e-2
-0.2537629712113504,-6.087656468289082e-2
-0.2514591112860338,-6.0870222869628066e-2
-0.24915525136071737,-6.176789938453919e-2
-0.2468513914354008,-6.293274555881112e-2
-0.24454753151008424,-6.287604912626621e-2
-0.24224367158476767,-6.386653589144164e-2
-0.2399398116594511,-6.497945871089161e-2
-0.23763595173413465,-6.65359811148526e-2
-0.2353320918088182,-6.867417340601856e-2
-0.23302823188350164,-6.32133949935717e-2
-0.23072437195818507,-6.262467276044226e-2
-0.2284205120328685,-6.264471957866258e-2
-0.22611665210755194,-6.211758844147408e-2
-0.22381279218223538,-6.201160022379604e-2
-0.2215089322569188,-6.320581628530864e-2
-0.21920507233160236,-6.121190919817465e-2
-0.2169012124062858,-6.0918303771559934e-2
-0.21459735248096923,-6.0570489118877746e-2
-0.21229349255565277,-6.043550092250549e-2
-0.2099896326303362,-6.030137240001132e-2
-0.20768577270501964,-6.02950183952663e-2
-0.20538191277970308,-6.042153048696597e-2
-0.20307805285438651,-6.013564730753662e-2
-0.20077419292907006,-6.0081145308573225e-2
-0.1984703330037535,-5.99314070136544e-2
-0.19616647307843693,-5.9748669844908564e-2
-0.19386261315312037,-5.991932389216037e-2
-0.1915587532278038,-5.9880366163843624e-2
-0.18925489330248724,-5.9856743679609914e-2
-0.18695103337717067,-5.974767124970615e-2
-0.18464717345185422,-5.983566367907922e-2
-0.18234331352653765,-5.985352094557983e-2
-0.1800394536012211,-5.967902836454897e-2
-0.17773559367590464,-5.964290492877822e-2
-0.17543173375058807,-5.964180471416847e-2
-0.1731278738252714,-5.964472970753365e-2
-0.17082401389995483,-5.96610861732213e-2
-0.16852015397463838,-5.9650267063737994e-2
-0.1662162940493218,-5.9634802688542154e-2
-0.16391243412400536,-5.963394285292556e-2
-0.1616085741986888,-5.9633281573257535e-2
-0.15930471427337234,-5.9659971139410684e-2
-0.15700085434805577,-5.967969583146415e-2
-0.1546969944227392,-5.965886788200225e-2
-0.15239313449742264,-5.97508245160846e-2
-0.15008927457210608,-5.976595127061024e-2
-0.14778541464678963,-5.978551590993331e-2
-0.14548155472147306,-5.973572783826675e-2
-0.1431776947961565,-5.9814633276262796e-2
-0.14087383487083993,-5.982826740405278e-2
-0.13856997494552337,-5.981074095615635e-2
-0.1362661150202068,-5.979773688854506e-2
-0.13396225509489024,-5.9754586150566835e-2
-0.13165839516957378,-5.984655965996277e-2
-0.12935453524425722,-5.9780854960579055e-2
-0.12705067531894065,-5.976131298123655e-2
-0.1247468153936242,-5.9684816206451274e-2
-0.12244295546830763,-5.963153154256007e-2
-0.12013909554299107,-5.9625712222985516e-2
-0.1178352356176745,-5.970293620302258e-2
-0.11553137569235794,-5.9733602344977266e-2
-0.11322751576704149,-5.9827156244801616e-2
-0.11092365584172492,-5.980685315748924e-2
-0.10861979591640836,-5.9885531607669185e-2
-0.10631593599109179,-5.995051251057448e-2
-0.10401207606577523,-5.993866864828157e-2
-0.10170821614045866,-5.987159251351337e-2
-9.94043562151421e-2,-6.008815990767513e-2
-9.710049628982564e-2,-5.9696262503804665e-2
-9.479663636450908e-2,-5.968356019217269e-2
-9.249277643919251e-2,-5.976896690956113e-2
-9.018891651387606e-2,-5.9699416550576756e-2
-8.78850565885595e-2,-5.9740852873529815e-2
-8.558119666324293e-2,-5.984051876330776e-2
-8.327733673792637e-2,-6.007291825503136e-2
-8.09734768126098e-2,-6.00601434324467e-2
-7.866961688729335e-2,-6.01021577160985e-2
-7.636575696197667e-2,-6.0143840592421505e-2
-7.406189703666022e-2,-6.026004482142944e-2
-7.175803711134365e-2,-6.02741332459793e-2
-6.945417718602709e-2,-6.008005814846684e-2
-6.715031726071052e-2,-6.0158193425421724e-2
-6.484645733539396e-2,-6.014390768363764e-2
-6.25425974100775e-2,-6.031857531622731e-2
-6.023873748476094e-2,-6.027948041440012e-2
-5.7934877559444375e-2,-6.0276817505469316e-2
-5.563101763412792e-2,-6.019017799127824e-2
-5.332715770881136e-2,-6.021946542770373e-2
-5.10232977834949e-2,-6.0232347318215806e-2
-4.871943785817834e-2,-6.0492525249818074e-2
-4.641557793286177e-2,-6.03916598502543e-2
-4.411171800754521e-2,-6.0358097713204995e-2
-4.1807858082228755e-2,-6.04951517302752e-2
-3.950399815691219e-2,-6.050986330790642e-2
-3.7200138231595625e-2,-6.052017104708285e-2
-3.489627830627917e-2,-6.0237425951722434e-2
-3.259241838096261e-2,-6.015891619538216e-2
-3.0288558455646042e-2,-6.042635080769809e-2
-2.7984698530329366e-2,-6.025574308902559e-2
-2.5680838605012912e-2,-5.9828805347476255e-2
-2.3376978679696347e-2,-5.9799176821567546e-2
-2.1073118754379783e-2,-5.975654166439037e-2
-1.876925882906333e-2,-5.9795692622538255e-2
-1.6465398903746764e-2,-5.9669838051718216e-2
-1.41615389784302e-2,-5.9634580651040214e-2
-1.1857679053113634e-2,-5.9640207767636566e-2
-9.55381912779707e-3,-5.969482832354367e-2
-7.249959202480616e-3,-5.9642287068228717e-2
-4.946099277164051e-3,-5.962045668668525e-2
-2.6422393518474863e-3,-5.963989620038457e-2
-3.383794265310325e-4,-5.962328856866783e-2
1.9654804987856433e-3,-5.9627760044304146e-2
4.269340424102097e-3,-5.9620824586879784e-2
6.573200349418773e-3,-5.969060445913932e-2
8.877060274735227e-3,-5.979276102574238e-2
1.1180920200051792e-2,-5.97568889869422e-2
1.3484780125368245e-2,-6.0026257251715176e-2
1.578864005068481e-2,-6.010055994293506e-2
1.8092499976001264e-2,-5.963363361494789e-2
2.039635990131794e-2,-5.9569102089596315e-2
2.2700219826634616e-2,-5.955583592500957e-2
2.500407975195107e-2,-5.9596146728232324e-2
2.7307939677267634e-2,-5.963983541342899e-2
2.9611799602584088e-2,-5.963102195632608e-2
3.191565952790065e-2,-5.9604926171162864e-2
3.4219519453217107e-2,-5.964543916942544e-2
3.652337937853378e-2,-5.9621363545012684e-2
3.8827239303850236e-2,-5.962761533939698e-2
4.113109922916691e-2,-5.976279772561244e-2
4.3434959154483366e-2,-5.9813118074854454e-2
4.573881907979993e-2,-6.0028116124377084e-2
4.8042679005116384e-2,-5.997598150678074e-2
5.034653893043295e-2,-5.9915073058093515e-2
5.2650398855749625e-2,-5.969653797228969e-2
5.495425878106608e-2,-5.967052109750526e-2
5.7258118706382755e-2,-5.9724048807653585e-2
5.956197863169921e-2,-5.982642148324879e-2
6.186583855701577e-2,-6.0001315327890214e-2
6.416969848233223e-2,-6.006970848098414e-2
6.647355840764879e-2,-6.0299168480897336e-2
6.877741833296525e-2,-6.0209520487326085e-2
7.108127825828192e-2,-6.002956538576387e-2
7.338513818359838e-2,-6.004836701704919e-2
7.568899810891505e-2,-6.016951121939895e-2
7.79928580342315e-2,-6.0225211939162415e-2
8.029671795954807e-2,-6.036808442036845e-2
8.260057788486463e-2,-6.034787850113277e-2
8.490443781018109e-2,-6.019637885526219e-2
8.720829773549776e-2,-5.996862528838298e-2
8.951215766081422e-2,-6.005215347240678e-2
9.18160175861309e-2,-5.986654348748621e-2
9.411987751144713e-2,-5.992062183419811e-2
9.64237374367638e-2,-6.009137871324588e-2
9.872759736208037e-2,-6.0223348890614425e-2
0.10103145728739682,-6.002617634690921e-2
0.10333531721271338,-6.023750909420522e-2
0.10563917713802984,-6.0157225663963754e-2
0.10794303706334651,-6.0052953758141236e-2
0.11024689698866297,-5.976043111960416e-2
0.11255075691397964,-5.963149515591337e-2
0.1148546168392961,-5.9598803536527356e-2
0.11715847676461266,-5.996181690220426e-2
0.11946233668992912,-5.965683285929557e-2
0.12176619661524568,-5.964712723289245e-2
0.12407005654056213,-5.949290364531157e-2
0.1263739164658788,-5.9501655207445325e-2
0.12867777639119526,-5.962149754943258e-2
0.13098163631651194,-5.94689488742548e-2
0.1332854962418285,-5.98435482881301e-2
0.13558935616714496,-5.9781206569723966e-2
0.13789321609246152,-5.950615801217474e-2
0.14019707601777798,-5.940898856447374e-2
0.14250093594309465,-5.945511704240025e-2
0.1448047958684111,-5.9403151923100306e-2
0.14710865579372778,-5.940564135505788e-2
0.14941251571904424,-5.9721384540328604e-2
0.1517163756443608,-5.950739503012248e-2
0.15402023556967726,-5.9559647231953616e-2
0.15632409549499382,-5.946266535121725e-2
0.15862795542031027,-5.936278194141231e-2
0.16093181534562695,-5.9361846401605356e-2
0.16323567527094363,-5.939636881476329e-2
0.16553953519626008,-5.935138518948724e-2
0.16784339512157664,-5.94081088541466e-2
0.1701472550468931,-5.941281402308474e-2
0.17245111497220966,-5.940745389969149e-2
0.17475497489752612,-5.940633614884183e-2
0.1770588348228428,-5.948702169993281e-2
0.17936269474815925,-5.9524247659921925e-2
0.18166655467347592,-5.950376572415239e-2
0.18397041459879238,-5.945072091330461e-2
0.18627427452410894,-5.947914664359544e-2
0.1885781344494254,-5.947687931296908e-2
0.19088199437474196,-5.94700866489043e-2
0.1931858543000584,-5.940519793380783e-2
0.1954897142253751,-5.940024850271075e-2
0.19779357415069176,-5.935026658240805e-2
0.20009743407600822,-5.937096682494869e-2
0.20240129400132478,-5.935612149011216e-2
0.20470515392664124,-5.934649573343198e-2
0.2070090138519578,-5.935010218844017e-2
0.20931287377727426,-5.9373674084357675e-2
0.21161673370259093,-5.963663321674384e-2
0.21392059362790738,-5.947810556481781e-2
0.21622445355322406,-5.9326021308051646e-2
0.21852831347854051,-5.9354531507055164e-2
0.22083217340385708,-5.957274822916858e-2
0.22313603332917353,-5.941310025385249e-2
0.2254398932544901,-5.934371292920437e-2
0.22774375317980677,-5.9298720647667946e-2
0.23004761310512323,-5.9298703759095295e-2
0.2323514730304399,-5.9325764003031134e-2
0.23465533295575636,-5.931062597336245e-2
0.23695919288107292,-5.932507703904821e-2
0.23926305280638938,-5.930116584614442e-2
0.24156691273170594,-5.933983032037948e-2
0.2438707726570224,-5.9309971220360636e-2
0.24617463258233885,-5.9325948973202425e-2
0.24847849250765552,-5.9338426743407835e-2
0.250782352432972,-5.937637590898881e-2
0.25308621235828865,-5.9448781074088575e-2
0.2553900722836051,-5.942696210694143e-2
0.2576939322089218,-5.947256788988642e-2
0.259997792134238,-5.941359785280487e-2
0.2623016520595547,-5.957969014926745e-2
0.26460551198487114,-5.965474516795721e-2
0.2669093719101878,-5.960955018533953e-2
0.2692132318355043,-5.96121232325828e-2
0.27151709176082095,-5.966539148235961e-2
0.2738209516861374,-5.9717656117116436e-2
0.27612481161145386,-5.9647272670021234e-2
0.27842867153677053,-5.967192019670531e-2
0.280732531462087,-5.967431310462468e-2
0.28303639138740366,-5.968003333949268e-2
0.2853402513127201,-5.98869442221297e-2
0.2876441112380368,-5.988052018341894e-2
0.28994797116335325,-5.983817159543592e-2
0.2922518310886697,-5.9703520853626846e-2
0.2945556910139864,-5.964467412373564e-2
0.29685955093930283,-5.968486362451175e-2
0.2991634108646193,-5.988652968273034e-2
0.30146727078993596,-5.993794987409018e-2
0.3037711307152524,-6.006455263026411e-2
0.3060749906405691,-5.9887679031504826e-2
0.30837885056588554,-5.961067673860343e-2
0.3106827104912022,-5.94666388938605e-2
0.3129865704165187,-5.956921912645963e-2
0.3152904303418351,-5.95890066681497e-2
0.3175942902671518,-5.980932094792335e-2
0.31989815019246826,-5.969477443142901e-2
0.32220201011778493,-5.96488943224639e-2
0.3245058700431014,-5.9708403890837425e-2
0.32680972996841806,-5.995224533813903e-2
0.3291135898937343,-5.992856093104615e-2
0.33141744981905097,-6.01715516853456e-2
0.3337213097443674,-6.015235639710892e-2
0.3360251696696841,-6.01017795072728e-2
0.3383290295950008,-6.025646726516609e-2
0.34063288952031723,-6.044757566619707e-2
0.3429367494456339,-6.044841655986255e-2
0.34524060937095014,-6.039693205756769e-2
0.3475444692962668,-6.06099421102555e-2
0.34984832922158327,-6.056489888137839e-2
0.35215218914689994,-6.023311107669027e-2
0.3544560490722164,-6.0328414993076174e-2
0.35675990899753307,-6.069566044397068e-2
0.3590637689228495,-6.027915505330195e-2
0.361367628848166,-6.040304868856039e-2
0.36367148877348265,-6.023248936967318e-2
0.3659753486987991,-6.041575129582455e-2
0.36827920862411556,-6.070680559826391e-2
0.37058306854943224,-6.0502569564376385e-2
0.3728869284747489,-6.0821430138730204e-2
0.37519078840006537,-6.068117660291339e-2
0.3774946483253818,-6.07339974097163e-2
0.3797985082506985,-6.1163702148473664e-2
0.38210236817601495,-6.1352180435460424e-2
0.3844062281013314,-6.110227494474374e-2
0.3867100880266481,-6.1057909595728876e-2
0.38901394795196453,-6.106806961940181e-2
0.391317807877281,-6.0473006799585005e-2
0.39362166780259766,-5.9808898929818e-2
0.3959255277279141,-6.007320364510593e-2
0.39822938765323057,-6.001448461942638e-2
0.40053324757854725,-6.009576530227789e-2
0.4028371075038639,-5.95992600004539e-2
0.40514096742918015,-5.969514896586381e-2
0.40744482735449705,-6.005809820161945e-2
0.4097486872798133,-6.046972584644761e-2
0.4120525472051302,-6.0585920935427806e-2
0.4143564071304464,-6.027773813902071e-2
0.4166602670557631,-6.056490046191665e-2
0.4189641269810793,-6.0601559628190804e-2
0.4212679869063962,-6.089016872367681e-2
0.42357184683171245,-6.07392318747948e-2
0.42587570675702935,-6.0785360175585335e-2
0.4281795666823456,-6.057331790070164e-2
0.43048342660766226,-6.076491718975929e-2
0.4327872865329787,-6.050878954133787e-2
0.4350911464582954,-6.0012564588120876e-2"/>
  </g>
  <g stroke-opacity="0.5" fill-opacity="1.0" stroke="#3764a0" stroke-width="4.0e-3" fill="#ffffff">
    <rect height="0.1342572542226072" width="0.19784397108655827" x="0.5394847993242009" y="-6.74465492280435e-2"/>
  </g>
  <g fill-opacity="1.0" font-size="4.000000000000001e-2" stroke="none" stroke-width="0.0" fill="#666666" text-anchor="start">
    <text x="0.5510040989507838" y="3.1297495813099874e-2">rate = 0.99
    </text>
  </g>
  <g stroke-opacity="0.5" stroke="#431712" stroke-width="6.999999999999999e-3" fill="none">
    <polyline points="0.7007549940963589,2.5580735310717917e-2
0.7237935933495243,2.5580735310717917e-2"/>
  </g>
  <g fill-opacity="1.0" font-size="4.000000000000001e-2" stroke="none" stroke-width="0.0" fill="#666666" text-anchor="start">
    <text x="0.5510040989507838" y="-1.8074526707471894e-2">rate = 0.95
    </text>
  </g>
  <g stroke-opacity="0.5" stroke="#4b2282" stroke-width="6.999999999999999e-3" fill="none">
    <polyline points="0.7007549940963589,-2.3791287209853795e-2
0.7237935933495243,-2.3791287209853795e-2"/>
  </g>
</svg>