<svg viewBox="-1.0625 -0.6584999999999999 2.1125 1.2934999999999999" xmlns="http://www.w3.org/2000/svg" xmlns:xlink="http://www.w3.org/1999/xlink" version="1.1" width="300.0" height="200.0"><g stroke-width="0.0" stroke="none" fill="#000000" transform="translate(-6.249999999999978e-3, -0.5474999999999999)" fill-opacity="1.0" font-size="0.12" text-anchor="middle"><text transform="rotate(0.0, 0.0, -0.0)" x="0.0" y="-0.0">most recent moving histogram</text></g><g stroke-width="0.0" stroke="#000000" fill="#666666" fill-opacity="3.0e-2" stroke-opacity="0.0"><rect width="2.0" height="0.9999999999999999" x="-1.0" y="-0.4999999999999999" /></g><g stroke-width="5.0e-3" stroke="#A8E5EE" fill="none" stroke-opacity="0.3"><polyline points="-1.0,0.505 -1.0,-0.5049999999999999" /></g><g stroke-width="5.0e-3" stroke="#A8E5EE" fill="none" stroke-opacity="0.3"><polyline points="-0.7777777777777778,0.505 -0.7777777777777778,-0.5049999999999999" /></g><g stroke-width="5.0e-3" stroke="#A8E5EE" fill="none" stroke-opacity="0.3"><polyline points="-0.5555555555555556,0.505 -0.5555555555555556,-0.5049999999999999" /></g><g stroke-width="5.0e-3" stroke="#A8E5EE" fill="none" stroke-opacity="0.3"><polyline points="-0.33333333333333337,0.505 -0.33333333333333337,-0.5049999999999999" /></g><g stroke-width="5.0e-3" stroke="#A8E5EE" fill="none" stroke-opacity="0.3"><polyline points="-0.11111111111111116,0.505 -0.11111111111111116,-0.5049999999999999" /></g><g stroke-width="5.0e-3" stroke="#A8E5EE" fill="none" stroke-opacity="0.3"><polyline points="0.11111111111111094,0.505 0.11111111111111094,-0.5049999999999999" /></g><g stroke-width="5.0e-3" stroke="#A8E5EE" fill="none" stroke-opacity="0.3"><polyline points="0.33333333333333326,0.505 0.33333333333333326,-0.5049999999999999" /></g><g stroke-width="5.0e-3" stroke="#A8E5EE" fill="none" stroke-opacity="0.3"><polyline points="0.5555555555555554,0.505 0.5555555555555554,-0.5049999999999999" /></g><g stroke-width="5.0e-3" stroke="#A8E5EE" fill="none" stroke-opacity="0.3"><polyline points="0.7777777777777777,0.505 0.7777777777777777,-0.5049999999999999" /></g><g stroke-width="5.0e-3" stroke="#A8E5EE" fill="none" stroke-opacity="0.3"><polyline points="1.0,0.505 1.0,-0.5049999999999999" /></g><g stroke-width="0.0" stroke="none" fill="#666666" fill-opacity="1.0" font-size="5.0e-2" text-anchor="middle"><text x="-1.0" y="0.60875">-0.8%</text></g><g stroke-width="0.0" stroke="none" fill="#666666" fill-opacity="1.0" font-size="5.0e-2" text-anchor="middle"><text x="-0.7777777777777778" y="0.60875">-0.6%</text></g><g stroke-width="0.0" stroke="none" fill="#666666" fill-opacity="1.0" font-size="5.0e-2" text-anchor="middle"><text x="-0.5555555555555556" y="0.60875">-0.4%</text></g><g stroke-width="0.0" stroke="none" fill="#666666" fill-opacity="1.0" font-size="5.0e-2" text-anchor="middle"><text x="-0.33333333333333337" y="0.60875">-0.2%</text></g><g stroke-width="0.0" stroke="none" fill="#666666" fill-opacity="1.0" font-size="5.0e-2" text-anchor="middle"><text x="-0.11111111111111116" y="0.60875">0.0%</text></g><g stroke-width="0.0" stroke="none" fill="#666666" fill-opacity="1.0" font-size="5.0e-2" text-anchor="middle"><text x="0.11111111111111094" y="0.60875">0.2%</text></g><g stroke-width="0.0" stroke="none" fill="#666666" fill-opacity="1.0" font-size="5.0e-2" text-anchor="middle"><text x="0.33333333333333326" y="0.60875">0.4%</text></g><g stroke-width="0.0" stroke="none" fill="#666666" fill-opacity="1.0" font-size="5.0e-2" text-anchor="middle"><text x="0.5555555555555554" y="0.60875">0.6%</text></g><g stroke-width="0.0" stroke="none" fill="#666666" fill-opacity="1.0" font-size="5.0e-2" text-anchor="middle"><text x="0.7777777777777777" y="0.60875">0.8%</text></g><g stroke-width="0.0" stroke="none" fill="#666666" fill-opacity="1.0" font-size="5.0e-2" text-anchor="middle"><text x="1.0" y="0.60875">1.0%</text></g><g stroke-width="0.0" stroke="#2C429D" fill="#5F0391" fill-opacity="1.0" stroke-opacity="0.4"><line stroke-width="5.0e-3" x1="-1.0" y1="0.5425" x2="-1.0" y2="0.5125" /><line stroke-width="5.0e-3" x1="-0.7777777777777778" y1="0.5425" x2="-0.7777777777777778" y2="0.5125" /><line stroke-width="5.0e-3" x1="-0.5555555555555556" y1="0.5425" x2="-0.5555555555555556" y2="0.5125" /><line stroke-width="5.0e-3" x1="-0.33333333333333337" y1="0.5425" x2="-0.33333333333333337" y2="0.5125" /><line stroke-width="5.0e-3" x1="-0.11111111111111116" y1="0.5425" x2="-0.11111111111111116" y2="0.5125" /><line stroke-width="5.0e-3" x1="0.11111111111111094" y1="0.5425" x2="0.11111111111111094" y2="0.5125" /><line stroke-width="5.0e-3" x1="0.33333333333333326" y1="0.5425" x2="0.33333333333333326" y2="0.5125" /><line stroke-width="5.0e-3" x1="0.5555555555555554" y1="0.5425" x2="0.5555555555555554" y2="0.5125" /><line stroke-width="5.0e-3" x1="0.7777777777777777" y1="0.5425" x2="0.7777777777777777" y2="0.5125" /><line stroke-width="5.0e-3" x1="1.0" y1="0.5425" x2="1.0" y2="0.5125" /></g><g stroke-width="0.0" stroke="#666666" fill="#5F0391" fill-opacity="0.5" stroke-opacity="0.0"><rect width="2.0" height="5.0000000000000044e-3" x="-1.0" y="0.5125" /></g><g stroke-width="5.0e-3" stroke="#666666" fill="#FF0000" fill-opacity="0.5" stroke-opacity="0.5"><rect width="0.41257784840708" height="0.25575644171754375" x="-0.9270053134462949" y="0.24424355828245625" /><rect width="0.2247065132422411" height="0.4695878233236683" x="-0.5144274650392149" y="3.0412176676331726e-2" /><rect width="0.18249975962170528" height="0.5781894872563166" x="-0.28972095179697377" y="-7.818948725631658e-2" /><rect width="0.10551944244007505" height="0.9999999999999999" x="-0.10722119217526849" y="-0.4999999999999999" /><rect width="0.20777431212052555" height="0.5078560547892241" x="-1.7017497351934363e-3" y="-7.856054789224132e-3" /><rect width="0.20161662848671846" height="0.5233667641011369" x="0.20607256238533211" y="-2.3366764101136916e-2" /><rect width="0.2416467409810199" height="0.4366681793915148" x="0.4076891908720506" y="6.333182060848519e-2" /><rect width="0.2303185663960472" height="0.45814562017821786" x="0.6493359318530705" y="4.185437982178214e-2" /></g><g /></svg>