
<svg xmlns="http://www.w3.org/2000/svg" height="300.0" viewBox="-0.87 -0.5487415824915824 1.6739498301835438 1.0949915824915823" width="450.0" xmlns:xlink="http://www.w3.org/1999/xlink">
  <g stroke-opacity="0.0" fill-opacity="3.0e-2" stroke="#000000" stroke-width="0.0" fill="#666666">
    <rect height="0.8978675645342313" width="1.4200679265824885" x="-0.6736180963989445" y="-0.495510662177329"/>
  </g>
  <g stroke-opacity="0.3" stroke="#a8e5ee" stroke-width="5.0e-3" fill="none">
    <polyline points="-0.6771682662154007,0.40235690235690236
0.75,0.40235690235690236"/>
  </g>
  <g stroke-opacity="0.3" stroke="#a8e5ee" stroke-width="5.0e-3" fill="none">
    <polyline points="-0.6771682662154007,0.3125701459034792
0.75,0.3125701459034792"/>
  </g>
  <g stroke-opacity="0.3" stroke="#a8e5ee" stroke-width="5.0e-3" fill="none">
    <polyline points="-0.6771682662154007,0.2227833894500561
0.75,0.2227833894500561"/>
  </g>
  <g stroke-opacity="0.3" stroke="#a8e5ee" stroke-width="5.0e-3" fill="none">
    <polyline points="-0.6771682662154007,0.13299663299663295
0.75,0.13299663299663295"/>
  </g>
  <g stroke-opacity="0.3" stroke="#a8e5ee" stroke-width="5.0e-3" fill="none">
    <polyline points="-0.6771682662154007,4.3209876543209846e-2
0.75,4.3209876543209846e-2"/>
  </g>
  <g stroke-opacity="0.3" stroke="#a8e5ee" stroke-width="5.0e-3" fill="none">
    <polyline points="-0.6771682662154007,-4.657687991021331e-2
0.75,-4.657687991021331e-2"/>
  </g>
  <g stroke-opacity="0.3" stroke="#a8e5ee" stroke-width="5.0e-3" fill="none">
    <polyline points="-0.6771682662154007,-0.13636363636363646
0.75,-0.13636363636363646"/>
  </g>
  <g stroke-opacity="0.3" stroke="#a8e5ee" stroke-width="5.0e-3" fill="none">
    <polyline points="-0.6771682662154007,-0.22615039281705962
0.75,-0.22615039281705962"/>
  </g>
  <g stroke-opacity="0.3" stroke="#a8e5ee" stroke-width="5.0e-3" fill="none">
    <polyline points="-0.6771682662154007,-0.31593714927048266
0.75,-0.31593714927048266"/>
  </g>
  <g stroke-opacity="0.3" stroke="#a8e5ee" stroke-width="5.0e-3" fill="none">
    <polyline points="-0.6771682662154007,-0.4057239057239058
0.75,-0.4057239057239058"/>
  </g>
  <g stroke-opacity="0.3" stroke="#a8e5ee" stroke-width="5.0e-3" fill="none">
    <polyline points="-0.6771682662154007,-0.495510662177329
0.75,-0.495510662177329"/>
  </g>
  <g fill-opacity="1.0" font-size="5.0e-2" stroke="none" stroke-width="0.0" fill="#666666" text-anchor="end">
    <text x="-0.75" y="0.41537598204264864">-0.5
    </text>
  </g>
  <g fill-opacity="1.0" font-size="5.0e-2" stroke="none" stroke-width="0.0" fill="#666666" text-anchor="end">
    <text x="-0.75" y="0.3255892255892256">-0.4
    </text>
  </g>
  <g fill-opacity="1.0" font-size="5.0e-2" stroke="none" stroke-width="0.0" fill="#666666" text-anchor="end">
    <text x="-0.75" y="0.23580246913580244">-0.3
    </text>
  </g>
  <g fill-opacity="1.0" font-size="5.0e-2" stroke="none" stroke-width="0.0" fill="#666666" text-anchor="end">
    <text x="-0.75" y="0.14601571268237928">-0.2
    </text>
  </g>
  <g fill-opacity="1.0" font-size="5.0e-2" stroke="none" stroke-width="0.0" fill="#666666" text-anchor="end">
    <text x="-0.75" y="5.6228956228956184e-2">-0.1
    </text>
  </g>
  <g fill-opacity="1.0" font-size="5.0e-2" stroke="none" stroke-width="0.0" fill="#666666" text-anchor="end">
    <text x="-0.75" y="-3.355780022446697e-2">0.0
    </text>
  </g>
  <g fill-opacity="1.0" font-size="5.0e-2" stroke="none" stroke-width="0.0" fill="#666666" text-anchor="end">
    <text x="-0.75" y="-0.12334455667789013">0.1
    </text>
  </g>
  <g fill-opacity="1.0" font-size="5.0e-2" stroke="none" stroke-width="0.0" fill="#666666" text-anchor="end">
    <text x="-0.75" y="-0.21313131313131328">0.2
    </text>
  </g>
  <g fill-opacity="1.0" font-size="5.0e-2" stroke="none" stroke-width="0.0" fill="#666666" text-anchor="end">
    <text x="-0.75" y="-0.3029180695847362">0.3
    </text>
  </g>
  <g fill-opacity="1.0" font-size="5.0e-2" stroke="none" stroke-width="0.0" fill="#666666" text-anchor="end">
    <text x="-0.75" y="-0.3927048260381595">0.4
    </text>
  </g>
  <g fill-opacity="1.0" font-size="5.0e-2" stroke="none" stroke-width="0.0" fill="#666666" text-anchor="end">
    <text x="-0.75" y="-0.4824915824915824">0.5
    </text>
  </g>
  <g stroke-opacity="0.4" fill-opacity="1.0" stroke="#2c429d" stroke-width="5.0e-3" fill="#5f0391">
    <g transform="rotate(-90.0, -0.7268706436457879, 0.40235690235690236)">
      <polyline points="-0.7268706436457879,0.41735690235690237
-0.7268706436457879,0.38735690235690234"/>
    </g>
    <g transform="rotate(-90.0, -0.7268706436457879, 0.3125701459034792)">
      <polyline points="-0.7268706436457879,0.3275701459034792
-0.7268706436457879,0.2975701459034792"/>
    </g>
    <g transform="rotate(-90.0, -0.7268706436457879, 0.2227833894500561)">
      <polyline points="-0.7268706436457879,0.23778338945005612
-0.7268706436457879,0.2077833894500561"/>
    </g>
    <g transform="rotate(-90.0, -0.7268706436457879, 0.13299663299663295)">
      <polyline points="-0.7268706436457879,0.14799663299663296
-0.7268706436457879,0.11799663299663295"/>
    </g>
    <g transform="rotate(-90.0, -0.7268706436457879, 4.3209876543209846e-2)">
      <polyline points="-0.7268706436457879,5.8209876543209846e-2
-0.7268706436457879,2.8209876543209847e-2"/>
    </g>
    <g transform="rotate(-90.0, -0.7268706436457879, -4.657687991021331e-2)">
      <polyline points="-0.7268706436457879,-3.157687991021331e-2
-0.7268706436457879,-6.157687991021331e-2"/>
    </g>
    <g transform="rotate(-90.0, -0.7268706436457879, -0.13636363636363646)">
      <polyline points="-0.7268706436457879,-0.12136363636363647
-0.7268706436457879,-0.15136363636363648"/>
    </g>
    <g transform="rotate(-90.0, -0.7268706436457879, -0.22615039281705962)">
      <polyline points="-0.7268706436457879,-0.2111503928170596
-0.7268706436457879,-0.24115039281705963"/>
    </g>
    <g transform="rotate(-90.0, -0.7268706436457879, -0.31593714927048266)">
      <polyline points="-0.7268706436457879,-0.30093714927048265
-0.7268706436457879,-0.3309371492704827"/>
    </g>
    <g transform="rotate(-90.0, -0.7268706436457879, -0.4057239057239058)">
      <polyline points="-0.7268706436457879,-0.3907239057239058
-0.7268706436457879,-0.42072390572390583"/>
    </g>
    <g transform="rotate(-90.0, -0.7268706436457879, -0.495510662177329)">
      <polyline points="-0.7268706436457879,-0.48051066217732896
-0.7268706436457879,-0.510510662177329"/>
    </g>
  </g>
  <g stroke-opacity="0.0" fill-opacity="0.5" stroke="#666666" stroke-width="0.0" fill="#5f0391">
    <rect height="0.8978675645342313" width="3.5501698164561724e-3" x="-0.7197703040128755" y="-0.495510662177329"/>
  </g>
  <g stroke-opacity="0.3" stroke="#a8e5ee" stroke-width="5.0e-3" fill="none">
    <polyline points="-0.6736180963989445,0.4068462401795735
-0.6736180963989445,-0.5"/>
  </g>
  <g stroke-opacity="0.3" stroke="#a8e5ee" stroke-width="5.0e-3" fill="none">
    <polyline points="-0.5316113037406958,0.4068462401795735
-0.5316113037406958,-0.5"/>
  </g>
  <g stroke-opacity="0.3" stroke="#a8e5ee" stroke-width="5.0e-3" fill="none">
    <polyline points="-0.38960451108244687,0.4068462401795735
-0.38960451108244687,-0.5"/>
  </g>
  <g stroke-opacity="0.3" stroke="#a8e5ee" stroke-width="5.0e-3" fill="none">
    <polyline points="-0.24759771842419798,0.4068462401795735
-0.24759771842419798,-0.5"/>
  </g>
  <g stroke-opacity="0.3" stroke="#a8e5ee" stroke-width="5.0e-3" fill="none">
    <polyline points="-0.1055909257659492,0.4068462401795735
-0.1055909257659492,-0.5"/>
  </g>
  <g stroke-opacity="0.3" stroke="#a8e5ee" stroke-width="5.0e-3" fill="none">
    <polyline points="3.64158668922997e-2,0.4068462401795735
3.64158668922997e-2,-0.5"/>
  </g>
  <g stroke-opacity="0.3" stroke="#a8e5ee" stroke-width="5.0e-3" fill="none">
    <polyline points="0.1784226595505486,0.4068462401795735
0.1784226595505486,-0.5"/>
  </g>
  <g stroke-opacity="0.3" stroke="#a8e5ee" stroke-width="5.0e-3" fill="none">
    <polyline points="0.32042945220879737,0.4068462401795735
0.32042945220879737,-0.5"/>
  </g>
  <g stroke-opacity="0.3" stroke="#a8e5ee" stroke-width="5.0e-3" fill="none">
    <polyline points="0.46243624486704626,0.4068462401795735
0.46243624486704626,-0.5"/>
  </g>
  <g stroke-opacity="0.3" stroke="#a8e5ee" stroke-width="5.0e-3" fill="none">
    <polyline points="0.6044430375252952,0.4068462401795735
0.6044430375252952,-0.5"/>
  </g>
  <g stroke-opacity="0.3" stroke="#a8e5ee" stroke-width="5.0e-3" fill="none">
    <polyline points="0.7464498301835438,0.4068462401795735
0.7464498301835438,-0.5"/>
  </g>
  <g fill-opacity="1.0" font-size="5.0e-2" stroke="none" stroke-width="0.0" fill="#666666" text-anchor="middle">
    <text x="-0.6736180963989445" y="0.5">-0.5
    </text>
  </g>
  <g fill-opacity="1.0" font-size="5.0e-2" stroke="none" stroke-width="0.0" fill="#666666" text-anchor="middle">
    <text x="-0.5316113037406958" y="0.5">-0.4
    </text>
  </g>
  <g fill-opacity="1.0" font-size="5.0e-2" stroke="none" stroke-width="0.0" fill="#666666" text-anchor="middle">
    <text x="-0.38960451108244687" y="0.5">-0.3
    </text>
  </g>
  <g fill-opacity="1.0" font-size="5.0e-2" stroke="none" stroke-width="0.0" fill="#666666" text-anchor="middle">
    <text x="-0.24759771842419798" y="0.5">-0.2
    </text>
  </g>
  <g fill-opacity="1.0" font-size="5.0e-2" stroke="none" stroke-width="0.0" fill="#666666" text-anchor="middle">
    <text x="-0.1055909257659492" y="0.5">-0.1
    </text>
  </g>
  <g fill-opacity="1.0" font-size="5.0e-2" stroke="none" stroke-width="0.0" fill="#666666" text-anchor="middle">
    <text x="3.64158668922997e-2" y="0.5">0.0
    </text>
  </g>
  <g fill-opacity="1.0" font-size="5.0e-2" stroke="none" stroke-width="0.0" fill="#666666" text-anchor="middle">
    <text x="0.1784226595505486" y="0.5">0.1
    </text>
  </g>
  <g fill-opacity="1.0" font-size="5.0e-2" stroke="none" stroke-width="0.0" fill="#666666" text-anchor="middle">
    <text x="0.32042945220879737" y="0.5">0.2
    </text>
  </g>
  <g fill-opacity="1.0" font-size="5.0e-2" stroke="none" stroke-width="0.0" fill="#666666" text-anchor="middle">
    <text x="0.46243624486704626" y="0.5">0.3
    </text>
  </g>
  <g fill-opacity="1.0" font-size="5.0e-2" stroke="none" stroke-width="0.0" fill="#666666" text-anchor="middle">
    <text x="0.6044430375252952" y="0.5">0.4
    </text>
  </g>
  <g fill-opacity="1.0" font-size="5.0e-2" stroke="none" stroke-width="0.0" fill="#666666" text-anchor="middle">
    <text x="0.7464498301835438" y="0.5">0.5
    </text>
  </g>
  <g stroke-opacity="0.4" fill-opacity="1.0" stroke="#2c429d" stroke-width="5.0e-3" fill="#5f0391">
    <polyline points="-0.6736180963989445,0.43980359147025816
-0.6736180963989445,0.40980359147025813"/>
    <polyline points="-0.5316113037406958,0.43980359147025816
-0.5316113037406958,0.40980359147025813"/>
    <polyline points="-0.38960451108244687,0.43980359147025816
-0.38960451108244687,0.40980359147025813"/>
    <polyline points="-0.24759771842419798,0.43980359147025816
-0.24759771842419798,0.40980359147025813"/>
    <polyline points="-0.1055909257659492,0.43980359147025816
-0.1055909257659492,0.40980359147025813"/>
    <polyline points="3.64158668922997e-2,0.43980359147025816
3.64158668922997e-2,0.40980359147025813"/>
    <polyline points="0.1784226595505486,0.43980359147025816
0.1784226595505486,0.40980359147025813"/>
    <polyline points="0.32042945220879737,0.43980359147025816
0.32042945220879737,0.40980359147025813"/>
    <polyline points="0.46243624486704626,0.43980359147025816
0.46243624486704626,0.40980359147025813"/>
    <polyline points="0.6044430375252952,0.43980359147025816
0.6044430375252952,0.40980359147025813"/>
    <polyline points="0.7464498301835438,0.43980359147025816
0.7464498301835438,0.40980359147025813"/>
  </g>
  <g stroke-opacity="0.0" fill-opacity="0.5" stroke="#666666" stroke-width="0.0" fill="#5f0391">
    <rect height="4.489337822671191e-3" width="1.4200679265824885" x="-0.6736180963989445" y="0.41133557800224463"/>
  </g>
  <g stroke-opacity="0.0" fill-opacity="0.3" stroke="#2c429d" stroke-width="3.0e-3" fill="#ff0000">
    <rect height="2.0000000000000004e-2" width="2.0000000000000004e-2" x="2.7369132629575084e-2" y="-4.509488942276895e-2"/>
    <rect height="2.0000000000000004e-2" width="2.0000000000000004e-2" x="2.720096294116226e-2" y="-4.655863315452679e-2"/>
    <rect height="2.0000000000000004e-2" width="2.0000000000000004e-2" x="2.700202434636157e-2" y="-4.453293539780089e-2"/>
    <rect height="2.0000000000000004e-2" width="2.0000000000000004e-2" x="2.7069354889428972e-2" y="-6.1118833410756294e-2"/>
    <rect height="1.9999999999999997e-2" width="2.0000000000000004e-2" x="2.721938561959481e-2" y="-6.642788626806205e-2"/>
    <rect height="2.0000000000000004e-2" width="2.0000000000000004e-2" x="2.724825912251872e-2" y="-5.8943179685141504e-2"/>
    <rect height="2.0000000000000004e-2" width="2.0000000000000004e-2" x="2.7232822642804584e-2" y="-5.6142347475308434e-2"/>
    <rect height="2.0000000000000004e-2" width="2.0000000000000004e-2" x="2.728831736693938e-2" y="-6.0575172959061445e-2"/>
    <rect height="1.9999999999999997e-2" width="2.0000000000000004e-2" x="2.7525464129803064e-2" y="-7.204661615207662e-2"/>
    <rect height="2.0000000000000004e-2" width="2.0000000000000004e-2" x="2.7494951211973324e-2" y="-5.5432447139446166e-2"/>
    <rect height="2.0000000000000004e-2" width="2.0000000000000004e-2" x="2.7393021081403297e-2" y="-5.0845019669716766e-2"/>
    <rect height="2.0000000000000004e-2" width="2.0000000000000004e-2" x="2.730166621417541e-2" y="-5.14222432579332e-2"/>
    <rect height="2.0000000000000004e-2" width="2.0000000000000004e-2" x="2.7282021320629075e-2" y="-5.587449080896833e-2"/>
    <rect height="2.0000000000000004e-2" width="2.0000000000000004e-2" x="2.729771855522723e-2" y="-5.810502647367543e-2"/>
    <rect height="2.0000000000000004e-2" width="2.0000000000000004e-2" x="2.708440294818549e-2" y="-4.373209382686926e-2"/>
    <rect height="2.0000000000000004e-2" width="2.0000000000000004e-2" x="2.709980009947866e-2" y="-5.79062182718103e-2"/>
    <rect height="2.0000000000000004e-2" width="2.0000000000000004e-2" x="2.7066475063434854e-2" y="-5.491972293498203e-2"/>
    <rect height="2.0000000000000004e-2" width="2.0000000000000004e-2" x="2.6695750118877933e-2" y="-3.369503850347776e-2"/>
    <rect height="2.0000000000000004e-2" width="2.0000000000000004e-2" x="2.6390514640183056e-2" y="-3.755120088353058e-2"/>
    <rect height="1.9999999999999997e-2" width="2.0000000000000004e-2" x="2.6775943153203093e-2" y="-8.063484698650979e-2"/>
    <rect height="2.0000000000000004e-2" width="2.0000000000000004e-2" x="2.652144093449805e-2" y="-4.0929882322538684e-2"/>
    <rect height="2.0000000000000004e-2" width="2.0000000000000004e-2" x="2.6479213714721624e-2" y="-5.395415139219494e-2"/>
    <rect height="1.9999999999999997e-2" width="2.0000000000000004e-2" x="2.6674729138772564e-2" y="-6.885576786031954e-2"/>
    <rect height="2.0000000000000004e-2" width="2.0000000000000004e-2" x="2.6348009604247886e-2" y="-3.6293764725532245e-2"/>
    <rect height="1.9999999999999997e-2" width="2.0000000000000004e-2" x="2.6529249310274457e-2" y="-6.783219745416123e-2"/>
    <rect height="1.9999999999999997e-2" width="2.0000000000000004e-2" x="2.6692239204987984e-2" y="-6.690245801450433e-2"/>
    <rect height="1.9999999999999997e-2" width="2.0000000000000004e-2" x="2.6786670104455464e-2" y="-6.271781656857066e-2"/>
    <rect height="2.0000000000000004e-2" width="2.0000000000000004e-2" x="2.64656434249464e-2" y="-3.667674348031346e-2"/>
    <rect height="2.0000000000000004e-2" width="2.0000000000000004e-2" x="2.651379516008246e-2" y="-5.956744320002982e-2"/>
    <rect height="1.9999999999999997e-2" width="2.0000000000000004e-2" x="2.6750080488673007e-2" y="-7.147112582626845e-2"/>
    <rect height="2.0000000000000004e-2" width="2.0000000000000004e-2" x="2.666657754117375e-2" y="-5.160227648563686e-2"/>
    <rect height="1.9999999999999997e-2" width="2.0000000000000004e-2" x="2.6781834914480836e-2" y="-6.39544432680582e-2"/>
    <rect height="2.0000000000000004e-2" width="2.0000000000000004e-2" x="2.6736377673646346e-2" y="-5.3981424378528035e-2"/>
    <rect height="1.9999999999999997e-2" width="2.0000000000000004e-2" x="2.684873075781658e-2" y="-6.382826227380399e-2"/>
    <rect height="1.9999999999999997e-2" width="2.0000000000000004e-2" x="2.699533606545202e-2" y="-6.60988071294789e-2"/>
    <rect height="2.0000000000000004e-2" width="2.0000000000000004e-2" x="2.700070792486598e-2" y="-5.732311393731448e-2"/>
    <rect height="2.0000000000000004e-2" width="2.0000000000000004e-2" x="2.6912838856260397e-2" y="-5.1420860924837435e-2"/>
    <rect height="2.0000000000000004e-2" width="2.0000000000000004e-2" x="2.67858310954674e-2" y="-4.8879327682722844e-2"/>
    <rect height="2.0000000000000004e-2" width="2.0000000000000004e-2" x="2.6783438786168297e-2" y="-5.662728945992745e-2"/>
    <rect height="2.0000000000000004e-2" width="2.0000000000000004e-2" x="2.6587331589863934e-2" y="-4.4481928118020646e-2"/>
    <rect height="2.0000000000000004e-2" width="2.0000000000000004e-2" x="2.661254174951267e-2" y="-5.822466521851443e-2"/>
    <rect height="1.9999999999999997e-2" width="2.0000000000000004e-2" x="2.6758816122138603e-2" y="-6.5896797949319e-2"/>
    <rect height="2.0000000000000004e-2" width="2.0000000000000004e-2" x="2.6770664411165386e-2" y="-5.7576294548381195e-2"/>
    <rect height="2.0000000000000004e-2" width="2.0000000000000004e-2" x="2.6649644240540178e-2" y="-4.919542168337209e-2"/>
    <rect height="2.0000000000000004e-2" width="2.0000000000000004e-2" x="2.6684121182462446e-2" y="-5.886257643263725e-2"/>
    <rect height="2.0000000000000004e-2" width="2.0000000000000004e-2" x="2.6577981181081352e-2" y="-5.008363327294273e-2"/>
    <rect height="2.0000000000000004e-2" width="2.0000000000000004e-2" x="2.6544478431069114e-2" y="-5.455105044480645e-2"/>
    <rect height="1.9999999999999997e-2" width="2.0000000000000004e-2" x="2.6725221143953266e-2" y="-6.80064290843899e-2"/>
    <rect height="2.0000000000000004e-2" width="2.0000000000000004e-2" x="2.6770666885697077e-2" y="-5.9676384606071047e-2"/>
    <rect height="2.0000000000000004e-2" width="2.0000000000000004e-2" x="2.676311745231231e-2" y="-5.6338370857367696e-2"/>
    <rect height="1.9999999999999997e-2" width="2.0000000000000004e-2" x="2.6897167107799443e-2" y="-6.522832669095001e-2"/>
    <rect height="1.9999999999999997e-2" width="2.0000000000000004e-2" x="2.7024775175637623e-2" y="-6.495130377590573e-2"/>
    <rect height="2.0000000000000004e-2" width="2.0000000000000004e-2" x="2.7042403827874047e-2" y="-5.810883566376878e-2"/>
    <rect height="2.0000000000000004e-2" width="2.0000000000000004e-2" x="2.7048620996471325e-2" y="-5.73697936710491e-2"/>
    <rect height="2.0000000000000004e-2" width="2.0000000000000004e-2" x="2.6944348522391033e-2" y="-5.04125003919833e-2"/>
    <rect height="2.0000000000000004e-2" width="2.0000000000000004e-2" x="2.699729337302304e-2" y="-6.021524646885212e-2"/>
    <rect height="2.0000000000000004e-2" width="2.0000000000000004e-2" x="2.6979009296897123e-2" y="-5.580813498725767e-2"/>
    <rect height="2.0000000000000004e-2" width="2.0000000000000004e-2" x="2.6935857714610385e-2" y="-5.421041758087796e-2"/>
    <rect height="1.9999999999999997e-2" width="2.0000000000000004e-2" x="2.7035760918649794e-2" y="-6.318474035622267e-2"/>
    <rect height="2.0000000000000004e-2" width="2.0000000000000004e-2" x="2.698431039888561e-2" y="-5.375705155931642e-2"/>
    <rect height="2.0000000000000004e-2" width="2.0000000000000004e-2" x="2.702506764802571e-2" y="-5.9488737594481915e-2"/>
    <rect height="2.0000000000000004e-2" width="2.0000000000000004e-2" x="2.698989871819258e-2" y="-5.4758509391254144e-2"/>
    <rect height="2.0000000000000004e-2" width="2.0000000000000004e-2" x="2.6950654238179668e-2" y="-5.445791260326715e-2"/>
    <rect height="2.0000000000000004e-2" width="2.0000000000000004e-2" x="2.677963639123427e-2" y="-4.6133351374213254e-2"/>
    <rect height="1.9999999999999997e-2" width="2.0000000000000004e-2" x="2.695661309036202e-2" y="-6.790404769584578e-2"/>
    <rect height="2.0000000000000004e-2" width="2.0000000000000004e-2" x="2.6851985012235964e-2" y="-5.037877623655317e-2"/>
    <rect height="1.9999999999999997e-2" width="2.0000000000000004e-2" x="2.700189243820495e-2" y="-6.62654298792613e-2"/>
    <rect height="2.0000000000000004e-2" width="2.0000000000000004e-2" x="2.7059023381754928e-2" y="-6.059004095078268e-2"/>
    <rect height="2.0000000000000004e-2" width="2.0000000000000004e-2" x="2.7062310688230624e-2" y="-5.720752778763604e-2"/>
    <rect height="1.9999999999999997e-2" width="2.0000000000000004e-2" x="2.7177361620511327e-2" y="-6.423642865419597e-2"/>
    <rect height="2.0000000000000004e-2" width="2.0000000000000004e-2" x="2.715900775063474e-2" y="-5.5935486993494925e-2"/>
    <rect height="2.0000000000000004e-2" width="2.0000000000000004e-2" x="2.7196101491680065e-2" y="-5.937911606267376e-2"/>
    <rect height="2.0000000000000004e-2" width="2.0000000000000004e-2" x="2.7203319979628e-2" y="-5.7535944011044775e-2"/>
    <rect height="2.0000000000000004e-2" width="2.0000000000000004e-2" x="2.7220201791451244e-2" y="-5.814084010321307e-2"/>
    <rect height="2.0000000000000004e-2" width="2.0000000000000004e-2" x="2.7154580731289187e-2" y="-5.295470542217406e-2"/>
    <rect height="2.0000000000000004e-2" width="2.0000000000000004e-2" x="2.718264010903882e-2" y="-5.8793207940513785e-2"/>
    <rect height="2.0000000000000004e-2" width="2.0000000000000004e-2" x="2.716032321991447e-2" y="-5.566322297638237e-2"/>
    <rect height="2.0000000000000004e-2" width="2.0000000000000004e-2" x="2.712264032841439e-2" y="-5.466587651314846e-2"/>
    <rect height="2.0000000000000004e-2" width="2.0000000000000004e-2" x="2.7058299809434645e-2" y="-5.2957127829027055e-2"/>
    <rect height="2.0000000000000004e-2" width="2.0000000000000004e-2" x="2.7076521804858984e-2" y="-5.811280146600927e-2"/>
    <rect height="2.0000000000000004e-2" width="2.0000000000000004e-2" x="2.6979137453169384e-2" y="-5.08613711654241e-2"/>
    <rect height="2.0000000000000004e-2" width="2.0000000000000004e-2" x="2.7000429775859487e-2" y="-5.824702220377031e-2"/>
    <rect height="2.0000000000000004e-2" width="2.0000000000000004e-2" x="2.679759698352658e-2" y="-4.4168739510971215e-2"/>
    <rect height="2.0000000000000004e-2" width="2.0000000000000004e-2" x="2.682601576328459e-2" y="-5.8553975820408326e-2"/>
    <rect height="2.0000000000000004e-2" width="2.0000000000000004e-2" x="2.6698612537703566e-2" y="-4.881797714288993e-2"/>
    <rect height="2.0000000000000004e-2" width="2.0000000000000004e-2" x="2.6784109748122516e-2" y="-6.210732398433771e-2"/>
    <rect height="2.0000000000000004e-2" width="2.0000000000000004e-2" x="2.6790859727594325e-2" y="-5.725761587712374e-2"/>
    <rect height="2.0000000000000004e-2" width="2.0000000000000004e-2" x="2.6830721434121248e-2" y="-5.932726184087777e-2"/>
    <rect height="2.0000000000000004e-2" width="2.0000000000000004e-2" x="2.6755712337736888e-2" y="-5.2123861759491456e-2"/>
    <rect height="1.9999999999999997e-2" width="2.0000000000000004e-2" x="2.6874944131959573e-2" y="-6.428392462213771e-2"/>
    <rect height="1.9999999999999997e-2" width="2.0000000000000004e-2" x="2.6990110674595343e-2" y="-6.415983749185826e-2"/>
    <rect height="1.9999999999999997e-2" width="2.0000000000000004e-2" x="2.710890853018478e-2" y="-6.446400679931351e-2"/>
    <rect height="2.0000000000000004e-2" width="2.0000000000000004e-2" x="2.7150773887682174e-2" y="-5.9690058346537726e-2"/>
    <rect height="2.0000000000000004e-2" width="2.0000000000000004e-2" x="2.7041840511090827e-2" y="-5.018461919263816e-2"/>
    <rect height="1.9999999999999997e-2" width="2.0000000000000004e-2" x="2.7160094150368026e-2" y="-6.439805439743272e-2"/>
    <rect height="2.0000000000000004e-2" width="2.0000000000000004e-2" x="2.7167443198140136e-2" y="-5.754543840694858e-2"/>
    <rect height="2.0000000000000004e-2" width="2.0000000000000004e-2" x="2.7145225992489815e-2" y="-5.565329421905007e-2"/>
    <rect height="2.0000000000000004e-2" width="2.0000000000000004e-2" x="2.7194477832075854e-2" y="-6.013762005074751e-2"/>
    <rect height="2.0000000000000004e-2" width="2.0000000000000004e-2" x="2.7217170513936358e-2" y="-5.851465771034169e-2"/>
    <rect height="2.0000000000000004e-2" width="2.0000000000000004e-2" x="2.71526420874948e-2" y="-5.3020636879228526e-2"/>
    <rect height="2.0000000000000004e-2" width="2.0000000000000004e-2" x="2.7132047363148677e-2" y="-5.572486837172063e-2"/>
    <rect height="2.0000000000000004e-2" width="2.0000000000000004e-2" x="2.7151106508022556e-2" y="-5.8225664976835116e-2"/>
    <rect height="2.0000000000000004e-2" width="2.0000000000000004e-2" x="2.7211542951788965e-2" y="-6.0859249920828244e-2"/>
    <rect height="1.9999999999999997e-2" width="2.0000000000000004e-2" x="2.733227221165136e-2" y="-6.471191214951931e-2"/>
    <rect height="2.0000000000000004e-2" width="2.0000000000000004e-2" x="2.7279299880456527e-2" y="-5.3850252037869965e-2"/>
    <rect height="2.0000000000000004e-2" width="2.0000000000000004e-2" x="2.7177156348499272e-2" y="-5.06655001942684e-2"/>
    <rect height="2.0000000000000004e-2" width="2.0000000000000004e-2" x="2.7087862101747857e-2" y="-5.1395468286830275e-2"/>
    <rect height="2.0000000000000004e-2" width="2.0000000000000004e-2" x="2.7150901104386012e-2" y="-6.09519467008881e-2"/>
    <rect height="2.0000000000000004e-2" width="2.0000000000000004e-2" x="2.7128427336757806e-2" y="-5.564234876848972e-2"/>
    <rect height="2.0000000000000004e-2" width="2.0000000000000004e-2" x="2.7191333140509373e-2" y="-6.0989261760116646e-2"/>
    <rect height="2.0000000000000004e-2" width="2.0000000000000004e-2" x="2.7249216895651192e-2" y="-6.0737090810278664e-2"/>
    <rect height="2.0000000000000004e-2" width="2.0000000000000004e-2" x="2.7290870697052945e-2" y="-5.974814224350677e-2"/>
    <rect height="2.0000000000000004e-2" width="2.0000000000000004e-2" x="2.732205467358973e-2" y="-5.910905402906418e-2"/>
    <rect height="2.0000000000000004e-2" width="2.0000000000000004e-2" x="2.7309093529015456e-2" y="-5.6341294215867414e-2"/>
    <rect height="2.0000000000000004e-2" width="2.0000000000000004e-2" x="2.7279661416438235e-2" y="-5.528152380930284e-2"/>
    <rect height="2.0000000000000004e-2" width="2.0000000000000004e-2" x="2.716952858900113e-2" y="-5.01667740892242e-2"/>
    <rect height="2.0000000000000004e-2" width="2.0000000000000004e-2" x="2.710536805199682e-2" y="-5.297277783521669e-2"/>
    <rect height="2.0000000000000004e-2" width="2.0000000000000004e-2" x="2.718939060742654e-2" y="-6.229524227258187e-2"/>
    <rect height="2.0000000000000004e-2" width="2.0000000000000004e-2" x="2.7072659137239226e-2" y="-4.972519086907622e-2"/>
    <rect height="1.9999999999999997e-2" width="2.0000000000000004e-2" x="2.7178865513816326e-2" y="-6.365931248783262e-2"/>
    <rect height="2.0000000000000004e-2" width="2.0000000000000004e-2" x="2.7217935493472074e-2" y="-5.955569229053869e-2"/>
    <rect height="2.0000000000000004e-2" width="2.0000000000000004e-2" x="2.7244223391802665e-2" y="-5.875428401550974e-2"/>
    <rect height="2.0000000000000004e-2" width="2.0000000000000004e-2" x="2.726520582990711e-2" y="-5.843223659092133e-2"/>
    <rect height="2.0000000000000004e-2" width="2.0000000000000004e-2" x="2.725093065429874e-2" y="-5.621934316022214e-2"/>
    <rect height="2.0000000000000004e-2" width="2.0000000000000004e-2" x="2.721854211474351e-2" y="-5.5057076527805e-2"/>
    <rect height="2.0000000000000004e-2" width="2.0000000000000004e-2" x="2.729858149334175e-2" y="-6.212536675839985e-2"/>
    <rect height="1.9999999999999997e-2" width="2.0000000000000004e-2" x="2.7398117992992084e-2" y="-6.343759986745477e-2"/>
    <rect height="2.0000000000000004e-2" width="2.0000000000000004e-2" x="2.7391667187407938e-2" y="-5.681869004635686e-2"/>
    <rect height="2.0000000000000004e-2" width="2.0000000000000004e-2" x="2.74628467593876e-2" y="-6.1681425927205484e-2"/>
    <rect height="2.0000000000000004e-2" width="2.0000000000000004e-2" x="2.7388828099492064e-2" y="-5.259028444015334e-2"/>
    <rect height="2.0000000000000004e-2" width="2.0000000000000004e-2" x="2.738131379684284e-2" y="-5.669757379917894e-2"/>
    <rect height="2.0000000000000004e-2" width="2.0000000000000004e-2" x="2.7348106894372955e-2" y="-5.5090303742494566e-2"/>
    <rect height="2.0000000000000004e-2" width="2.0000000000000004e-2" x="2.7298967952602123e-2" y="-5.405651962211943e-2"/>
    <rect height="2.0000000000000004e-2" width="2.0000000000000004e-2" x="2.7238284644657947e-2" y="-5.3291598135575484e-2"/>
    <rect height="2.0000000000000004e-2" width="2.0000000000000004e-2" x="2.719880525210628e-2" y="-5.4587373951571976e-2"/>
    <rect height="2.0000000000000004e-2" width="2.0000000000000004e-2" x="2.721811924941609e-2" y="-5.827922517289685e-2"/>
    <rect height="2.0000000000000004e-2" width="2.0000000000000004e-2" x="2.726309635142577e-2" y="-5.992848251568416e-2"/>
    <rect height="2.0000000000000004e-2" width="2.0000000000000004e-2" x="2.725947432009091e-2" y="-5.689709720266655e-2"/>
    <rect height="2.0000000000000004e-2" width="2.0000000000000004e-2" x="2.732598824346711e-2" y="-6.130711840427782e-2"/>
    <rect height="2.0000000000000004e-2" width="2.0000000000000004e-2" x="2.7320487536589562e-2" y="-5.6824236627839746e-2"/>
    <rect height="2.0000000000000004e-2" width="2.0000000000000004e-2" x="2.7231988036943384e-2" y="-5.15620811107984e-2"/>
    <rect height="2.0000000000000004e-2" width="2.0000000000000004e-2" x="2.7300392463499253e-2" y="-6.1384550885885895e-2"/>
    <rect height="2.0000000000000004e-2" width="2.0000000000000004e-2" x="2.730903880766245e-2" y="-5.770148494253268e-2"/>
    <rect height="1.9999999999999997e-2" width="2.0000000000000004e-2" x="2.7411164789557192e-2" y="-6.35891795013067e-2"/>
    <rect height="2.0000000000000004e-2" width="2.0000000000000004e-2" x="2.7395498848785456e-2" y="-5.624599855547085e-2"/>
    <rect height="2.0000000000000004e-2" width="2.0000000000000004e-2" x="2.7335635001381593e-2" y="-5.3414724231404025e-2"/>
    <rect height="2.0000000000000004e-2" width="2.0000000000000004e-2" x="2.7308112728511753e-2" y="-5.5404291404193666e-2"/>
    <rect height="2.0000000000000004e-2" width="2.0000000000000004e-2" x="2.7252436162896305e-2" y="-5.3618693754392426e-2"/>
    <rect height="2.0000000000000004e-2" width="2.0000000000000004e-2" x="2.728356433152735e-2" y="-5.9054469660867796e-2"/>
    <rect height="2.0000000000000004e-2" width="2.0000000000000004e-2" x="2.7274633641999786e-2" y="-5.657073612377849e-2"/>
    <rect height="2.0000000000000004e-2" width="2.0000000000000004e-2" x="2.731776812715881e-2" y="-5.984014018146599e-2"/>
    <rect height="2.0000000000000004e-2" width="2.0000000000000004e-2" x="2.7302893973708338e-2" y="-5.622067024691479e-2"/>
    <rect height="2.0000000000000004e-2" width="2.0000000000000004e-2" x="2.730419333548307e-2" y="-5.7215493256072995e-2"/>
    <rect height="2.0000000000000004e-2" width="2.0000000000000004e-2" x="2.7178623566186506e-2" y="-4.921172031101683e-2"/>
    <rect height="2.0000000000000004e-2" width="2.0000000000000004e-2" x="2.7092739416312635e-2" y="-5.159969368342054e-2"/>
    <rect height="2.0000000000000004e-2" width="2.0000000000000004e-2" x="2.708074002250805e-2" y="-5.6222001400060055e-2"/>
    <rect height="2.0000000000000004e-2" width="2.0000000000000004e-2" x="2.7053958237367677e-2" y="-5.5302895906502496e-2"/>
    <rect height="2.0000000000000004e-2" width="2.0000000000000004e-2" x="2.657231465329591e-2" y="-2.657367544181887e-2"/>
    <rect height="2.0000000000000004e-2" width="2.0000000000000004e-2" x="2.6275611998789812e-2" y="-3.7912272543066276e-2"/>
    <rect height="1.9999999999999997e-2" width="2.0000000000000004e-2" x="2.6479285191252984e-2" y="-6.924209796223434e-2"/>
    <rect height="2.0000000000000004e-2" width="2.0000000000000004e-2" x="2.6393533233004758e-2" y="-5.1259454906315886e-2"/>
    <rect height="1.9999999999999997e-2" width="2.0000000000000004e-2" x="2.6697584493772693e-2" y="-7.567232880000473e-2"/>
    <rect height="2.0000000000000004e-2" width="2.0000000000000004e-2" x="2.6689975815897833e-2" y="-5.635018713140549e-2"/>
    <rect height="2.0000000000000004e-2" width="2.0000000000000004e-2" x="2.6480746338443113e-2" y="-4.3561078999151064e-2"/>
    <rect height="2.0000000000000004e-2" width="2.0000000000000004e-2" x="2.6475579232937203e-2" y="-5.625241168444494e-2"/>
    <rect height="2.0000000000000004e-2" width="2.0000000000000004e-2" x="2.6413523222008524e-2" y="-5.270818635512808e-2"/>
    <rect height="2.0000000000000004e-2" width="2.0000000000000004e-2" x="2.6334811826236766e-2" y="-5.161430822557122e-2"/>
    <rect height="2.0000000000000004e-2" width="2.0000000000000004e-2" x="2.5887970635097186e-2" y="-2.8428269049248993e-2"/>
    <rect height="1.9999999999999997e-2" width="2.0000000000000004e-2" x="2.6158066324640357e-2" y="-7.314542731684558e-2"/>
    <rect height="2.0000000000000004e-2" width="2.0000000000000004e-2" x="2.5910229418701698e-2" y="-4.088325144206594e-2"/>
    <rect height="2.0000000000000004e-2" width="2.0000000000000004e-2" x="2.5821004428793655e-2" y="-5.066772873795843e-2"/>
    <rect height="1.9999999999999997e-2" width="2.0000000000000004e-2" x="2.60501585987123e-2" y="-7.053432258170154e-2"/>
    <rect height="1.9999999999999997e-2" width="2.0000000000000004e-2" x="2.6207934570389398e-2" y="-6.626749820020571e-2"/>
    <rect height="1.9999999999999997e-2" width="2.0000000000000004e-2" x="2.6359610144779173e-2" y="-6.60067356146443e-2"/>
    <rect height="2.0000000000000004e-2" width="2.0000000000000004e-2" x="2.626935050820612e-2" y="-5.088749499794087e-2"/>
    <rect height="2.0000000000000004e-2" width="2.0000000000000004e-2" x="2.6350741303757592e-2" y="-6.15910882010342e-2"/>
    <rect height="2.0000000000000004e-2" width="2.0000000000000004e-2" x="2.644010635837147e-2" y="-6.217937686333907e-2"/>
    <rect height="1.9999999999999997e-2" width="2.0000000000000004e-2" x="2.6738430364908757e-2" y="-7.542036480367963e-2"/>
    <rect height="2.0000000000000004e-2" width="2.0000000000000004e-2" x="2.66982018157882e-2" y="-5.432158546087839e-2"/>
    <rect height="2.0000000000000004e-2" width="2.0000000000000004e-2" x="2.6564059634681676e-2" y="-4.827922021185604e-2"/>
    <rect height="2.0000000000000004e-2" width="2.0000000000000004e-2" x="2.6279806495503107e-2" y="-3.871107125070849e-2"/>
    <rect height="2.0000000000000004e-2" width="2.0000000000000004e-2" x="2.6260866569115977e-2" y="-5.524516009040747e-2"/>
    <rect height="2.0000000000000004e-2" width="2.0000000000000004e-2" x="2.615413247246657e-2" y="-4.9756563082490095e-2"/>
    <rect height="1.9999999999999997e-2" width="2.0000000000000004e-2" x="2.6307412577589735e-2" y="-6.603847486810509e-2"/>
    <rect height="2.0000000000000004e-2" width="2.0000000000000004e-2" x="2.6339682097413004e-2" y="-5.857097278732503e-2"/>
    <rect height="2.0000000000000004e-2" width="2.0000000000000004e-2" x="2.6101131463236123e-2" y="-4.1507994127573326e-2"/>
    <rect height="2.0000000000000004e-2" width="2.0000000000000004e-2" x="2.5843260911343598e-2" y="-4.012975993494671e-2"/>
    <rect height="2.0000000000000004e-2" width="2.0000000000000004e-2" x="2.589277051559869e-2" y="-5.930501074765936e-2"/>
    <rect height="2.0000000000000004e-2" width="2.0000000000000004e-2" x="2.580389623120872e-2" y="-5.067221230581297e-2"/>
    <rect height="1.9999999999999997e-2" width="2.0000000000000004e-2" x="2.6030771619696365e-2" y="-7.041549336365237e-2"/>
    <rect height="2.0000000000000004e-2" width="2.0000000000000004e-2" x="2.6080666993104303e-2" y="-5.950079105653782e-2"/>
    <rect height="1.9999999999999997e-2" width="2.0000000000000004e-2" x="2.640789492433205e-2" y="-7.697091506916197e-2"/>
    <rect height="2.0000000000000004e-2" width="2.0000000000000004e-2" x="2.637566492136135e-2" y="-5.461481888545449e-2"/>
    <rect height="1.9999999999999997e-2" width="2.0000000000000004e-2" x="2.6492012566538443e-2" y="-6.388322735909722e-2"/>
    <rect height="1.9999999999999997e-2" width="2.0000000000000004e-2" x="2.66455967006295e-2" y="-6.634745161509135e-2"/>
    <rect height="2.0000000000000004e-2" width="2.0000000000000004e-2" x="2.6174743526725226e-2" y="-2.7037224871943925e-2"/>
    <rect height="2.0000000000000004e-2" width="2.0000000000000004e-2" x="2.615693967203426e-2" y="-5.520879740302264e-2"/>
    <rect height="2.0000000000000004e-2" width="2.0000000000000004e-2" x="2.5823240387598097e-2" y="-3.539069385974724e-2"/>
    <rect height="2.0000000000000004e-2" width="2.0000000000000004e-2" x="2.5854955191255476e-2" y="-5.815744091201624e-2"/>
    <rect height="2.0000000000000004e-2" width="2.0000000000000004e-2" x="2.58554461916305e-2" y="-5.6256890026623256e-2"/>
    <rect height="2.0000000000000004e-2" width="2.0000000000000004e-2" x="2.5938270996579423e-2" y="-6.142968653179392e-2"/>
    <rect height="2.0000000000000004e-2" width="2.0000000000000004e-2" x="2.5940024438113614e-2" y="-5.639740143407334e-2"/>
    <rect height="2.0000000000000004e-2" width="2.0000000000000004e-2" x="2.566976558588608e-2" y="-3.927405468189004e-2"/>
    <rect height="2.0000000000000004e-2" width="2.0000000000000004e-2" x="2.5377310827083284e-2" y="-3.772860362791996e-2"/>
    <rect height="2.0000000000000004e-2" width="2.0000000000000004e-2" x="2.538890519766491e-2" y="-5.6654263689116184e-2"/>
    <rect height="2.0000000000000004e-2" width="2.0000000000000004e-2" x="2.5176746242674082e-2" y="-4.264619251035106e-2"/>
    <rect height="2.0000000000000004e-2" width="2.0000000000000004e-2" x="2.4960365850221995e-2" y="-4.2302755884794034e-2"/>
    <rect height="2.0000000000000004e-2" width="2.0000000000000004e-2" x="2.46747015972626e-2" y="-3.7898476701558874e-2"/>
    <rect height="2.0000000000000004e-2" width="2.0000000000000004e-2" x="2.4293872971165593e-2" y="-3.189763787249588e-2"/>
    <rect height="1.999999999999999e-2" width="2.0000000000000004e-2" x="2.501807641170229e-2" y="-0.10003584157855382"/>
    <rect height="1.9999999999999997e-2" width="2.0000000000000004e-2" x="2.515522320091091e-2" y="-6.42326624019197e-2"/>
    <rect height="2.0000000000000004e-2" width="2.0000000000000004e-2" x="2.5150149035186982e-2" y="-5.546149830349933e-2"/>
    <rect height="1.9999999999999997e-2" width="2.0000000000000004e-2" x="2.528410713238017e-2" y="-6.416972310194867e-2"/>
    <rect height="2.0000000000000004e-2" width="2.0000000000000004e-2" x="2.531356627636639e-2" y="-5.7715164709844606e-2"/>
    <rect height="2.0000000000000004e-2" width="2.0000000000000004e-2" x="2.4966117926569005e-2" y="-3.406907459723007e-2"/>
    <rect height="1.999999999999999e-2" width="2.0000000000000004e-2" x="2.5464674696191743e-2" y="-8.688782083311795e-2"/>
    <rect height="1.9999999999999997e-2" width="2.0000000000000004e-2" x="2.5573013899957926e-2" y="-6.284960154854445e-2"/>
    <rect height="1.9999999999999997e-2" width="2.0000000000000004e-2" x="2.5718816329948664e-2" y="-6.524000972382292e-2"/>
    <rect height="2.0000000000000004e-2" width="2.0000000000000004e-2" x="2.5783673666130998e-2" y="-6.0248913120880314e-2"/>
    <rect height="2.0000000000000004e-2" width="2.0000000000000004e-2" x="2.585402502699042e-2" y="-6.062467997989506e-2"/>
    <rect height="2.0000000000000004e-2" width="2.0000000000000004e-2" x="2.585735453964034e-2" y="-5.644555594054445e-2"/>
    <rect height="2.0000000000000004e-2" width="2.0000000000000004e-2" x="2.5787895872328888e-2" y="-5.184391147964262e-2"/>
    <rect height="1.9999999999999997e-2" width="2.0000000000000004e-2" x="2.5946245685624543e-2" y="-6.615215241241844e-2"/>
    <rect height="2.0000000000000004e-2" width="2.0000000000000004e-2" x="2.5982002980641912e-2" y="-5.8569791285326904e-2"/>
    <rect height="1.9999999999999997e-2" width="2.0000000000000004e-2" x="2.6093809801947428e-2" y="-6.336716243976924e-2"/>
    <rect height="1.9999999999999997e-2" width="2.0000000000000004e-2" x="2.628285547890486e-2" y="-6.833612345426752e-2"/>
    <rect height="2.0000000000000004e-2" width="2.0000000000000004e-2" x="2.6080769423930235e-2" y="-4.3774901523152325e-2"/>
    <rect height="2.0000000000000004e-2" width="2.0000000000000004e-2" x="2.611615194972839e-2" y="-5.855248071644436e-2"/>
    <rect height="2.0000000000000004e-2" width="2.0000000000000004e-2" x="2.6138572554071045e-2" y="-5.7811257808538456e-2"/>
    <rect height="1.9999999999999997e-2" width="2.0000000000000004e-2" x="2.6261439164314122e-2" y="-6.416637221547371e-2"/>
    <rect height="2.0000000000000004e-2" width="2.0000000000000004e-2" x="2.615053039648086e-2" y="-4.950382715967216e-2"/>
    <rect height="2.0000000000000004e-2" width="2.0000000000000004e-2" x="2.6132883580869966e-2" y="-5.526835262116469e-2"/>
    <rect height="1.9999999999999997e-2" width="2.0000000000000004e-2" x="2.635512969812482e-2" y="-7.043047460008543e-2"/>
    <rect height="1.9999999999999997e-2" width="2.0000000000000004e-2" x="2.64765069811932e-2" y="-6.426327053710833e-2"/>
    <rect height="2.0000000000000004e-2" width="2.0000000000000004e-2" x="2.6488170801377338e-2" y="-5.738341905554122e-2"/>
    <rect height="1.9999999999999997e-2" width="2.0000000000000004e-2" x="2.658336139069651e-2" y="-6.264046923221166e-2"/>
    <rect height="2.0000000000000004e-2" width="2.0000000000000004e-2" x="2.6648050961747945e-2" y="-6.079451492965359e-2"/>
    <rect height="2.0000000000000004e-2" width="2.0000000000000004e-2" x="2.661382178293848e-2" y="-5.45774666073161e-2"/>
    <rect height="2.0000000000000004e-2" width="2.0000000000000004e-2" x="2.6478390277611348e-2" y="-4.813591807783701e-2"/>
    <rect height="2.0000000000000004e-2" width="2.0000000000000004e-2" x="2.6487917657205713e-2" y="-5.718372327793663e-2"/>
    <rect height="2.0000000000000004e-2" width="2.0000000000000004e-2" x="2.64972326983618e-2" y="-5.7213334651585394e-2"/>
    <rect height="1.9999999999999997e-2" width="2.0000000000000004e-2" x="2.6678368474449828e-2" y="-6.807652675970154e-2"/>
    <rect height="2.0000000000000004e-2" width="2.0000000000000004e-2" x="2.6717923646337967e-2" y="-5.9288017544024456e-2"/>
    <rect height="2.0000000000000004e-2" width="2.0000000000000004e-2" x="2.6677008194644143e-2" y="-5.4192945724217616e-2"/>
    <rect height="1.9999999999999997e-2" width="2.0000000000000004e-2" x="2.6828318615915288e-2" y="-6.629169042281267e-2"/>
    <rect height="2.0000000000000004e-2" width="2.0000000000000004e-2" x="2.6844890879730084e-2" y="-5.792162918926968e-2"/>
    <rect height="2.0000000000000004e-2" width="2.0000000000000004e-2" x="2.68657686649243e-2" y="-5.817107127857767e-2"/>
    <rect height="2.0000000000000004e-2" width="2.0000000000000004e-2" x="2.6810969363658683e-2" y="-5.340505848300669e-2"/>
    <rect height="2.0000000000000004e-2" width="2.0000000000000004e-2" x="2.6898061763892096e-2" y="-6.231473799268427e-2"/>
    <rect height="2.0000000000000004e-2" width="2.0000000000000004e-2" x="2.691040661899314e-2" y="-5.7682294813436e-2"/>
    <rect height="2.0000000000000004e-2" width="2.0000000000000004e-2" x="2.689416619127539e-2" y="-5.586689164916558e-2"/>
    <rect height="2.0000000000000004e-2" width="2.0000000000000004e-2" x="2.6881703732788316e-2" y="-5.608826064050553e-2"/>
    <rect height="2.0000000000000004e-2" width="2.0000000000000004e-2" x="2.6836868404348076e-2" y="-5.403637719668796e-2"/>
    <rect height="1.9999999999999997e-2" width="2.0000000000000004e-2" x="2.6930500307266632e-2" y="-6.274663031790993e-2"/>
    <rect height="2.0000000000000004e-2" width="2.0000000000000004e-2" x="2.6869724126382118e-2" y="-5.3085971260850455e-2"/>
    <rect height="2.0000000000000004e-2" width="2.0000000000000004e-2" x="2.6849320784897775e-2" y="-5.5560313071469906e-2"/>
    <rect height="2.0000000000000004e-2" width="2.0000000000000004e-2" x="2.6752035497347178e-2" y="-5.069996012552568e-2"/>
    <rect height="2.0000000000000004e-2" width="2.0000000000000004e-2" x="2.6633124024030737e-2" y="-4.925127289726882e-2"/>
    <rect height="2.0000000000000004e-2" width="2.0000000000000004e-2" x="2.66011134720281e-2" y="-5.466080840179354e-2"/>
    <rect height="1.9999999999999997e-2" width="2.0000000000000004e-2" x="2.680625374837043e-2" y="-6.964926493436562e-2"/>
    <rect height="2.0000000000000004e-2" width="2.0000000000000004e-2" x="2.6843446778820897e-2" y="-5.922476492749917e-2"/>
    <rect height="1.9999999999999997e-2" width="2.0000000000000004e-2" x="2.693745144147109e-2" y="-6.279506789577781e-2"/>
    <rect height="2.0000000000000004e-2" width="2.0000000000000004e-2" x="2.691952954440758e-2" y="-5.5797242106481064e-2"/>
    <rect height="2.0000000000000004e-2" width="2.0000000000000004e-2" x="2.6985241683880397e-2" y="-6.104149135878655e-2"/>
    <rect height="2.0000000000000004e-2" width="2.0000000000000004e-2" x="2.703189373366289e-2" y="-5.9898190397508315e-2"/>
    <rect height="2.0000000000000004e-2" width="2.0000000000000004e-2" x="2.702369916720105e-2" y="-5.645967967084108e-2"/>
    <rect height="2.0000000000000004e-2" width="2.0000000000000004e-2" x="2.6975713811060238e-2" y="-5.392936601730957e-2"/>
    <rect height="1.9999999999999997e-2" width="2.0000000000000004e-2" x="2.7123758768178526e-2" y="-6.626835313086198e-2"/>
    <rect height="2.0000000000000004e-2" width="2.0000000000000004e-2" x="2.6843722610301775e-2" y="-3.937685506569721e-2"/>
    <rect height="2.0000000000000004e-2" width="2.0000000000000004e-2" x="2.6828617762775238e-2" y="-5.582306964944527e-2"/>
    <rect height="1.9999999999999997e-2" width="2.0000000000000004e-2" x="2.6926259823154892e-2" y="-6.300289396612711e-2"/>
    <rect height="2.0000000000000004e-2" width="2.0000000000000004e-2" x="2.685461130473988e-2" y="-5.239728373113805e-2"/>
    <rect height="2.0000000000000004e-2" width="2.0000000000000004e-2" x="2.6901421673475985e-2" y="-5.97939144844044e-2"/>
    <rect height="1.9999999999999997e-2" width="2.0000000000000004e-2" x="2.699177479991533e-2" y="-6.260307499798189e-2"/>
    <rect height="1.9999999999999997e-2" width="2.0000000000000004e-2" x="2.7149203098778225e-2" y="-6.690428515593803e-2"/>
    <rect height="2.0000000000000004e-2" width="2.0000000000000004e-2" x="2.7141562969666085e-2" y="-5.6592655857889966e-2"/>
    <rect height="2.0000000000000004e-2" width="2.0000000000000004e-2" x="2.716484602372094e-2" y="-5.850374958220494e-2"/>
    <rect height="2.0000000000000004e-2" width="2.0000000000000004e-2" x="2.718688974553763e-2" y="-5.844665871604703e-2"/>
    <rect height="2.0000000000000004e-2" width="2.0000000000000004e-2" x="2.7244906506586515e-2" y="-6.073013868736187e-2"/>
    <rect height="2.0000000000000004e-2" width="2.0000000000000004e-2" x="2.725131281345617e-2" y="-5.751690036473089e-2"/>
    <rect height="2.0000000000000004e-2" width="2.0000000000000004e-2" x="2.7156312318708416e-2" y="-5.111254291536226e-2"/>
    <rect height="2.0000000000000004e-2" width="2.0000000000000004e-2" x="2.7198606793377163e-2" y="-5.969404467647509e-2"/>
    <rect height="2.0000000000000004e-2" width="2.0000000000000004e-2" x="2.719116798642441e-2" y="-5.661113942130668e-2"/>
    <rect height="2.0000000000000004e-2" width="2.0000000000000004e-2" x="2.7277148484287757e-2" y="-6.249159414781635e-2"/>
    <rect height="2.0000000000000004e-2" width="2.0000000000000004e-2" x="2.7259289458480225e-2" y="-5.601167669678463e-2"/>
    <rect height="2.0000000000000004e-2" width="2.0000000000000004e-2" x="2.7258139495921825e-2" y="-5.703408944616905e-2"/>
    <rect height="2.0000000000000004e-2" width="2.0000000000000004e-2" x="2.7217309611290215e-2" y="-5.453299828187529e-2"/>
    <rect height="2.0000000000000004e-2" width="2.0000000000000004e-2" x="2.7231862321875695e-2" y="-5.799354275116941e-2"/>
    <rect height="2.0000000000000004e-2" width="2.0000000000000004e-2" x="2.7238031788508373e-2" y="-5.748508344263847e-2"/>
    <rect height="1.9999999999999997e-2" width="2.0000000000000004e-2" x="2.7355026993548533e-2" y="-6.448015558878549e-2"/>
    <rect height="2.0000000000000004e-2" width="2.0000000000000004e-2" x="2.7314036540224358e-2" y="-5.460690571392512e-2"/>
    <rect height="2.0000000000000004e-2" width="2.0000000000000004e-2" x="2.729990289215479e-2" y="-5.624551295378188e-2"/>
    <rect height="2.0000000000000004e-2" width="2.0000000000000004e-2" x="2.735761614849442e-2" y="-6.077378218654294e-2"/>
    <rect height="2.0000000000000004e-2" width="2.0000000000000004e-2" x="2.736325719382538e-2" y="-5.753848204094069e-2"/>
    <rect height="2.0000000000000004e-2" width="2.0000000000000004e-2" x="2.7367281682568752e-2" y="-5.74307213983648e-2"/>
    <rect height="2.0000000000000004e-2" width="2.0000000000000004e-2" x="2.7250531201368673e-2" y="-4.981561288074964e-2"/>
    <rect height="2.0000000000000004e-2" width="2.0000000000000004e-2" x="2.7212296348472338e-2" y="-5.4667745572293806e-2"/>
    <rect height="1.9999999999999997e-2" width="2.0000000000000004e-2" x="2.7340891172017663e-2" y="-6.518923481680104e-2"/>
    <rect height="2.0000000000000004e-2" width="2.0000000000000004e-2" x="2.726746480319387e-2" y="-5.2553649830913256e-2"/>
    <rect height="2.0000000000000004e-2" width="2.0000000000000004e-2" x="2.702236400784353e-2" y="-4.16279538097497e-2"/>
    <rect height="2.0000000000000004e-2" width="2.0000000000000004e-2" x="2.699438735912186e-2" y="-5.51341271989999e-2"/>
    <rect height="2.0000000000000004e-2" width="2.0000000000000004e-2" x="2.6945711685663516e-2" y="-5.385994665715176e-2"/>
    <rect height="2.0000000000000004e-2" width="2.0000000000000004e-2" x="2.699336004716258e-2" y="-5.991095528926759e-2"/>
    <rect height="2.0000000000000004e-2" width="2.0000000000000004e-2" x="2.664037946494536e-2" y="-3.46453982600009e-2"/>
    <rect height="1.9999999999999997e-2" width="2.0000000000000004e-2" x="2.675296221167712e-2" y="-6.374515236772792e-2"/>
    <rect height="2.0000000000000004e-2" width="2.0000000000000004e-2" x="2.6831843009441532e-2" y="-6.180427924123399e-2"/>
    <rect height="1.9999999999999997e-2" width="2.0000000000000004e-2" x="2.695316637974233e-2" y="-6.452832918538663e-2"/>
    <rect height="2.0000000000000004e-2" width="2.0000000000000004e-2" x="2.686413431041946e-2" y="-5.132050276158683e-2"/>
    <rect height="2.0000000000000004e-2" width="2.0000000000000004e-2" x="2.6763804437735857e-2" y="-5.049629732260796e-2"/>
    <rect height="1.9999999999999997e-2" width="2.0000000000000004e-2" x="2.6880905862438638e-2" y="-6.417265704957685e-2"/>
    <rect height="2.0000000000000004e-2" width="2.0000000000000004e-2" x="2.6835603803064052e-2" y="-5.4037459779470935e-2"/>
    <rect height="2.0000000000000004e-2" width="2.0000000000000004e-2" x="2.6661332364652075e-2" y="-4.581539760780506e-2"/>
    <rect height="2.0000000000000004e-2" width="2.0000000000000004e-2" x="2.6678798786012543e-2" y="-5.77912553233536e-2"/>
    <rect height="2.0000000000000004e-2" width="2.0000000000000004e-2" x="2.655661618341843e-2" y="-4.902504838710275e-2"/>
    <rect height="2.0000000000000004e-2" width="2.0000000000000004e-2" x="2.6457139684124005e-2" y="-5.0349337913568985e-2"/>
    <rect height="2.0000000000000004e-2" width="2.0000000000000004e-2" x="2.64869012286102e-2" y="-5.845897376729136e-2"/>
    <rect height="2.0000000000000004e-2" width="2.0000000000000004e-2" x="2.6297290589279328e-2" y="-4.4650459117670065e-2"/>
    <rect height="2.0000000000000004e-2" width="2.0000000000000004e-2" x="2.62597592977687e-2" y="-5.409052659541746e-2"/>
    <rect height="1.9999999999999997e-2" width="2.0000000000000004e-2" x="2.656299121314721e-2" y="-7.561677895388218e-2"/>
    <rect height="1.9999999999999997e-2" width="2.0000000000000004e-2" x="2.6675777171444988e-2" y="-6.387551735988782e-2"/>
    <rect height="2.0000000000000004e-2" width="2.0000000000000004e-2" x="2.6759594373397706e-2" y="-6.206901085106952e-2"/>
    <rect height="1.9999999999999997e-2" width="2.0000000000000004e-2" x="2.69041438500024e-2" y="-6.595325351880164e-2"/>
    <rect height="2.0000000000000004e-2" width="2.0000000000000004e-2" x="2.6964715310234817e-2" y="-6.0751315655651054e-2"/>
    <rect height="2.0000000000000004e-2" width="2.0000000000000004e-2" x="2.6954005389052467e-2" y="-5.626272395016562e-2"/>
    <rect height="2.0000000000000004e-2" width="2.0000000000000004e-2" x="2.6919685730999572e-2" y="-5.4745552417985836e-2"/>
    <rect height="2.0000000000000004e-2" width="2.0000000000000004e-2" x="2.6972877297284377e-2" y="-6.0248214881481126e-2"/>
    <rect height="2.0000000000000004e-2" width="2.0000000000000004e-2" x="2.694417626142643e-2" y="-5.512883943721635e-2"/>
    <rect height="2.0000000000000004e-2" width="2.0000000000000004e-2" x="2.6952237710091705e-2" y="-5.7413055171510845e-2"/>
    <rect height="1.9999999999999997e-2" width="2.0000000000000004e-2" x="2.70842377598658e-2" y="-6.525962034363152e-2"/>
    <rect height="2.0000000000000004e-2" width="2.0000000000000004e-2" x="2.7119403047931152e-2" y="-5.925322892142237e-2"/>
    <rect height="1.9999999999999997e-2" width="2.0000000000000004e-2" x="2.724624618904182e-2" y="-6.504156315865205e-2"/>
    <rect height="2.0000000000000004e-2" width="2.0000000000000004e-2" x="2.7219564600085906e-2" y="-5.5445648031765764e-2"/>
    <rect height="2.0000000000000004e-2" width="2.0000000000000004e-2" x="2.718696087404516e-2" y="-5.502053097169712e-2"/>
    <rect height="2.0000000000000004e-2" width="2.0000000000000004e-2" x="2.7043713090145534e-2" y="-4.8009699116582476e-2"/>
    <rect height="2.0000000000000004e-2" width="2.0000000000000004e-2" x="2.7020452975248695e-2" y="-5.5468211973083485e-2"/>
    <rect height="2.0000000000000004e-2" width="2.0000000000000004e-2" x="2.706871890199026e-2" y="-6.000299477491821e-2"/>
    <rect height="2.0000000000000004e-2" width="2.0000000000000004e-2" x="2.7143583742600404e-2" y="-6.173146812702179e-2"/>
    <rect height="1.9999999999999997e-2" width="2.0000000000000004e-2" x="2.72446671075739e-2" y="-6.343928122842256e-2"/>
    <rect height="2.0000000000000004e-2" width="2.0000000000000004e-2" x="2.72775912175739e-2" y="-5.920215002425288e-2"/>
    <rect height="1.9999999999999997e-2" width="2.0000000000000004e-2" x="2.7377570059955454e-2" y="-6.34393250459102e-2"/>
    <rect height="2.0000000000000004e-2" width="2.0000000000000004e-2" x="2.7341893530975055e-2" y="-5.495403850474411e-2"/>
    <rect height="2.0000000000000004e-2" width="2.0000000000000004e-2" x="2.726376603898762e-2" y="-5.222478775850147e-2"/>
    <rect height="2.0000000000000004e-2" width="2.0000000000000004e-2" x="2.727312316042619e-2" y="-5.768640390552437e-2"/>
    <rect height="2.0000000000000004e-2" width="2.0000000000000004e-2" x="2.732851747348964e-2" y="-6.061774554876986e-2"/>
    <rect height="2.0000000000000004e-2" width="2.0000000000000004e-2" x="2.735166628980735e-2" y="-5.862638998114721e-2"/>
    <rect height="2.0000000000000004e-2" width="2.0000000000000004e-2" x="2.7407806117728757e-2" y="-6.071561052761875e-2"/>
    <rect height="2.0000000000000004e-2" width="2.0000000000000004e-2" x="2.740019621274837e-2" y="-5.673481298895066e-2"/>
    <rect height="2.0000000000000004e-2" width="2.0000000000000004e-2" x="2.7341828527012176e-2" y="-5.3515556652741096e-2"/>
    <rect height="2.0000000000000004e-2" width="2.0000000000000004e-2" x="2.7239530858380608e-2" y="-5.0693482404276284e-2"/>
    <rect height="2.0000000000000004e-2" width="2.0000000000000004e-2" x="2.728249021580665e-2" y="-5.9787202014604184e-2"/>
    <rect height="2.0000000000000004e-2" width="2.0000000000000004e-2" x="2.71855620443553e-2" y="-5.1013879459606774e-2"/>
    <rect height="2.0000000000000004e-2" width="2.0000000000000004e-2" x="2.721836850922133e-2" y="-5.911300697965515e-2"/>
    <rect height="1.9999999999999997e-2" width="2.0000000000000004e-2" x="2.730723384736434e-2" y="-6.270402275391339e-2"/>
    <rect height="2.0000000000000004e-2" width="2.0000000000000004e-2" x="2.7364527238903154e-2" y="-6.077639893904562e-2"/>
    <rect height="2.0000000000000004e-2" width="2.0000000000000004e-2" x="2.7279777389850997e-2" y="-5.183955372263593e-2"/>
    <rect height="1.9999999999999997e-2" width="2.0000000000000004e-2" x="2.737609481991999e-2" y="-6.318555261272095e-2"/>
    <rect height="2.0000000000000004e-2" width="2.0000000000000004e-2" x="2.734315484654449e-2" y="-5.5124730044396324e-2"/>
    <rect height="2.0000000000000004e-2" width="2.0000000000000004e-2" x="2.7297249929624907e-2" y="-5.425860767271506e-2"/>
    <rect height="2.0000000000000004e-2" width="2.0000000000000004e-2" x="2.7132971326413687e-2" y="-4.6749608640913036e-2"/>
    <rect height="2.0000000000000004e-2" width="2.0000000000000004e-2" x="2.6998001030525527e-2" y="-4.846056426475375e-2"/>
    <rect height="2.0000000000000004e-2" width="2.0000000000000004e-2" x="2.688890552734647e-2" y="-5.001400141856715e-2"/>
    <rect height="2.0000000000000004e-2" width="2.0000000000000004e-2" x="2.6455253874843272e-2" y="-2.943438554169319e-2"/>
    <rect height="1.9999999999999997e-2" width="2.0000000000000004e-2" x="2.6640293957492574e-2" y="-6.818863526504458e-2"/>
    <rect height="2.0000000000000004e-2" width="2.0000000000000004e-2" x="2.6648205393253084e-2" y="-5.726527826600924e-2"/>
    <rect height="1.9999999999999997e-2" width="2.0000000000000004e-2" x="2.6909912326788417e-2" y="-7.326669759733993e-2"/>
    <rect height="2.0000000000000004e-2" width="2.0000000000000004e-2" x="2.680957414888408e-2" y="-5.0616528826142974e-2"/>
    <rect height="2.0000000000000004e-2" width="2.0000000000000004e-2" x="2.66300124624912e-2" y="-4.544893243269953e-2"/>
    <rect height="1.9999999999999997e-2" width="2.0000000000000004e-2" x="2.6841961328333948e-2" y="-7.006111971550165e-2"/>
    <rect height="2.0000000000000004e-2" width="2.0000000000000004e-2" x="2.641451509987503e-2" y="-2.9883362759621217e-2"/>
    <rect height="2.0000000000000004e-2" width="2.0000000000000004e-2" x="2.6451127121296276e-2" y="-5.878645547606597e-2"/>
    <rect height="1.9999999999999997e-2" width="2.0000000000000004e-2" x="2.6654232295954434e-2" y="-6.943698276498632e-2"/>
    <rect height="1.9999999999999997e-2" width="2.0000000000000004e-2" x="2.6821928036517624e-2" y="-6.738109828961257e-2"/>
    <rect height="2.0000000000000004e-2" width="2.0000000000000004e-2" x="2.670427061524406e-2" y="-4.944241048745079e-2"/>
    <rect height="1.9999999999999997e-2" width="2.0000000000000004e-2" x="2.6818547603225558e-2" y="-6.395090281435366e-2"/>
    <rect height="2.0000000000000004e-2" width="2.0000000000000004e-2" x="2.6806834562031152e-2" y="-5.612245481413591e-2"/>
    <rect height="2.0000000000000004e-2" width="2.0000000000000004e-2" x="2.6429568254204623e-2" y="-3.297317765696083e-2"/>
    <rect height="1.9999999999999997e-2" width="2.0000000000000004e-2" x="2.6586179358104818e-2" y="-6.638405461436779e-2"/>
    <rect height="2.0000000000000004e-2" width="2.0000000000000004e-2" x="2.6538235204615963e-2" y="-5.369635861441923e-2"/>
    <rect height="2.0000000000000004e-2" width="2.0000000000000004e-2" x="2.6629911581230854e-2" y="-6.243461648008252e-2"/>
    <rect height="1.9999999999999997e-2" width="2.0000000000000004e-2" x="2.680647256053304e-2" y="-6.789667493130423e-2"/>
    <rect height="2.0000000000000004e-2" width="2.0000000000000004e-2" x="2.681091140148118e-2" y="-5.7153939818077475e-2"/>
    <rect height="2.0000000000000004e-2" width="2.0000000000000004e-2" x="2.6708609411604696e-2" y="-5.036100243712104e-2"/>
    <rect height="1.9999999999999997e-2" width="2.0000000000000004e-2" x="2.6859295651584965e-2" y="-6.62590778446621e-2"/>
    <rect height="1.9999999999999997e-2" width="2.0000000000000004e-2" x="2.703777859804469e-2" y="-6.818261871978736e-2"/>
    <rect height="2.0000000000000004e-2" width="2.0000000000000004e-2" x="2.704370726263073e-2" y="-5.739421861491977e-2"/>
    <rect height="2.0000000000000004e-2" width="2.0000000000000004e-2" x="2.7036062179159777e-2" y="-5.649247628644915e-2"/>
    <rect height="2.0000000000000004e-2" width="2.0000000000000004e-2" x="2.703446910932373e-2" y="-5.686621619241305e-2"/>
    <rect height="1.9999999999999997e-2" width="2.0000000000000004e-2" x="2.7130619928533724e-2" y="-6.304476183192263e-2"/>
    <rect height="2.0000000000000004e-2" width="2.0000000000000004e-2" x="2.71639100734904e-2" y="-5.915830242419084e-2"/>
    <rect height="2.0000000000000004e-2" width="2.0000000000000004e-2" x="2.7145986681083263e-2" y="-5.592624860164629e-2"/>
    <rect height="2.0000000000000004e-2" width="2.0000000000000004e-2" x="2.709413579798326e-2" y="-5.3757136810717136e-2"/>
    <rect height="2.0000000000000004e-2" width="2.0000000000000004e-2" x="2.7124204156473437e-2" y="-5.889191300138263e-2"/>
    <rect height="2.0000000000000004e-2" width="2.0000000000000004e-2" x="2.7121858442107245e-2" y="-5.6884539207990185e-2"/>
    <rect height="2.0000000000000004e-2" width="2.0000000000000004e-2" x="2.7115088470683897e-2" y="-5.659481740413241e-2"/>
    <rect height="2.0000000000000004e-2" width="2.0000000000000004e-2" x="2.7038402854310035e-2" y="-5.217055000814163e-2"/>
    <rect height="2.0000000000000004e-2" width="2.0000000000000004e-2" x="2.7031132941995224e-2" y="-5.648979689962574e-2"/>
    <rect height="2.0000000000000004e-2" width="2.0000000000000004e-2" x="2.6904963342711648e-2" y="-4.898818837400908e-2"/>
    <rect height="2.0000000000000004e-2" width="2.0000000000000004e-2" x="2.698783018290752e-2" y="-6.20893729718257e-2"/>
    <rect height="2.0000000000000004e-2" width="2.0000000000000004e-2" x="2.6947206880691528e-2" y="-5.439345876932466e-2"/>
    <rect height="2.0000000000000004e-2" width="2.0000000000000004e-2" x="2.6866363650054133e-2" y="-5.179079187450652e-2"/>
    <rect height="2.0000000000000004e-2" width="2.0000000000000004e-2" x="2.6933725272926708e-2" y="-6.109746936337434e-2"/>
    <rect height="2.0000000000000004e-2" width="2.0000000000000004e-2" x="2.6753076925541748e-2" y="-4.550262340979249e-2"/>
    <rect height="2.0000000000000004e-2" width="2.0000000000000004e-2" x="2.6493879288250984e-2" y="-4.0356590779590966e-2"/>
    <rect height="1.9999999999999997e-2" width="2.0000000000000004e-2" x="2.660700451191845e-2" y="-6.370598871188703e-2"/>
    <rect height="1.9999999999999997e-2" width="2.0000000000000004e-2" x="2.680516450346971e-2" y="-6.925182804653805e-2"/>
    <rect height="2.0000000000000004e-2" width="2.0000000000000004e-2" x="2.6736636648722063e-2" y="-5.254710094403125e-2"/>
    <rect height="2.0000000000000004e-2" width="2.0000000000000004e-2" x="2.651094938995536e-2" y="-4.249558030034594e-2"/>
    <rect height="1.9999999999999997e-2" width="2.0000000000000004e-2" x="2.663972982418817e-2" y="-6.471429745745437e-2"/>
    <rect height="2.0000000000000004e-2" width="2.0000000000000004e-2" x="2.672778419349143e-2" y="-6.231894884112898e-2"/>
    <rect height="1.9999999999999997e-2" width="2.0000000000000004e-2" x="2.6878794392290357e-2" y="-6.634526143594331e-2"/>
    <rect height="2.0000000000000004e-2" width="2.0000000000000004e-2" x="2.6853769128606382e-2" y="-5.5330676300107566e-2"/>
    <rect height="1.9999999999999997e-2" width="2.0000000000000004e-2" x="2.6990192120362362e-2" y="-6.547145469656178e-2"/>
    <rect height="2.0000000000000004e-2" width="2.0000000000000004e-2" x="2.6955410740816983e-2" y="-5.477986466418238e-2"/>
    <rect height="2.0000000000000004e-2" width="2.0000000000000004e-2" x="2.698935386667834e-2" y="-5.9054073574725356e-2"/>
    <rect height="2.0000000000000004e-2" width="2.0000000000000004e-2" x="2.6927691023724838e-2" y="-5.305097297434446e-2"/>
    <rect height="1.9999999999999997e-2" width="2.0000000000000004e-2" x="2.702010998965477e-2" y="-6.272548283788647e-2"/>
    <rect height="2.0000000000000004e-2" width="2.0000000000000004e-2" x="2.696287789150776e-2" y="-5.33670525658505e-2"/>
    <rect height="2.0000000000000004e-2" width="2.0000000000000004e-2" x="2.6998042243606697e-2" y="-5.912955277179565e-2"/>
    <rect height="2.0000000000000004e-2" width="2.0000000000000004e-2" x="2.701931445445139e-2" y="-5.8299540944326426e-2"/>
    <rect height="2.0000000000000004e-2" width="2.0000000000000004e-2" x="2.7070915071003683e-2" y="-6.022618013928049e-2"/>
    <rect height="2.0000000000000004e-2" width="2.0000000000000004e-2" x="2.7143202403231433e-2" y="-6.157423558811403e-2"/>
    <rect height="2.0000000000000004e-2" width="2.0000000000000004e-2" x="2.7123782151175287e-2" y="-5.5829236477555326e-2"/>
    <rect height="2.0000000000000004e-2" width="2.0000000000000004e-2" x="2.7162929795163444e-2" y="-5.9493197403384095e-2"/>
    <rect height="2.0000000000000004e-2" width="2.0000000000000004e-2" x="2.7112273492877932e-2" y="-5.385869728415204e-2"/>
    <rect height="1.9999999999999997e-2" width="2.0000000000000004e-2" x="2.724214559207106e-2" y="-6.521059839028474e-2"/>
    <rect height="2.0000000000000004e-2" width="2.0000000000000004e-2" x="2.7285893426171944e-2" y="-5.98965703064711e-2"/>
    <rect height="2.0000000000000004e-2" width="2.0000000000000004e-2" x="2.726014098392105e-2" y="-5.551169105454567e-2"/>
    <rect height="2.0000000000000004e-2" width="2.0000000000000004e-2" x="2.7261776302770276e-2" y="-5.720739095015714e-2"/>
    <rect height="2.0000000000000004e-2" width="2.0000000000000004e-2" x="2.7292056773534308e-2" y="-5.902478582789305e-2"/>
    <rect height="2.0000000000000004e-2" width="2.0000000000000004e-2" x="2.731952126034632e-2" y="-5.88730906197451e-2"/>
    <rect height="2.0000000000000004e-2" width="2.0000000000000004e-2" x="2.728243751602511e-2" y="-5.481315368888739e-2"/>
    <rect height="2.0000000000000004e-2" width="2.0000000000000004e-2" x="2.7296135978838516e-2" y="-5.798059527091547e-2"/>
    <rect height="2.0000000000000004e-2" width="2.0000000000000004e-2" x="2.7297381391404148e-2" y="-5.7215524162159796e-2"/>
    <rect height="2.0000000000000004e-2" width="2.0000000000000004e-2" x="2.7300445984090878e-2" y="-5.732811801677217e-2"/>
    <rect height="1.9999999999999997e-2" width="2.0000000000000004e-2" x="2.7400567164156182e-2" y="-6.345989714395482e-2"/>
    <rect height="2.0000000000000004e-2" width="2.0000000000000004e-2" x="2.739748948948973e-2" y="-5.702859513987212e-2"/>
    <rect height="2.0000000000000004e-2" width="2.0000000000000004e-2" x="2.737923685788491e-2" y="-5.6044660892707314e-2"/>
    <rect height="2.0000000000000004e-2" width="2.0000000000000004e-2" x="2.731614352880119e-2" y="-5.319800241433314e-2"/>
    <rect height="2.0000000000000004e-2" width="2.0000000000000004e-2" x="2.72848627455683e-2" y="-5.51546326207668e-2"/>
    <rect height="2.0000000000000004e-2" width="2.0000000000000004e-2" x="2.730717243875836e-2" y="-5.852752985535469e-2"/>
    <rect height="1.9999999999999997e-2" width="2.0000000000000004e-2" x="2.7404489637790748e-2" y="-6.329221007859286e-2"/>
    <rect height="2.0000000000000004e-2" width="2.0000000000000004e-2" x="2.7425422035017973e-2" y="-5.8546097885454056e-2"/>
    <rect height="2.0000000000000004e-2" width="2.0000000000000004e-2" x="2.7474491509325245e-2" y="-6.0317141019354585e-2"/>
    <rect height="2.0000000000000004e-2" width="2.0000000000000004e-2" x="2.7406528895224665e-2" y="-5.2968166474829374e-2"/>
    <rect height="2.0000000000000004e-2" width="2.0000000000000004e-2" x="2.727359529462737e-2" y="-4.8793771392008016e-2"/>
    <rect height="2.0000000000000004e-2" width="2.0000000000000004e-2" x="2.717091199773459e-2" y="-5.059686165161425e-2"/>
    <rect height="2.0000000000000004e-2" width="2.0000000000000004e-2" x="2.725335282257025e-2" y="-6.223661333387164e-2"/>
    <rect height="2.0000000000000004e-2" width="2.0000000000000004e-2" x="2.726593656783783e-2" y="-5.7922940525814474e-2"/>
    <rect height="1.9999999999999997e-2" width="2.0000000000000004e-2" x="2.7386623830882424e-2" y="-6.474224011642703e-2"/>
    <rect height="2.0000000000000004e-2" width="2.0000000000000004e-2" x="2.7331404214528073e-2" y="-5.37326949407485e-2"/>
    <rect height="2.0000000000000004e-2" width="2.0000000000000004e-2" x="2.7306855925324232e-2" y="-5.559141931221189e-2"/>
    <rect height="2.0000000000000004e-2" width="2.0000000000000004e-2" x="2.7339311968186293e-2" y="-5.9184195218362705e-2"/>
    <rect height="1.9999999999999997e-2" width="2.0000000000000004e-2" x="2.7451329908832374e-2" y="-6.424342164287876e-2"/>
    <rect height="2.0000000000000004e-2" width="2.0000000000000004e-2" x="2.744158652473206e-2" y="-5.664212253933886e-2"/>
    <rect height="1.9999999999999997e-2" width="2.0000000000000004e-2" x="2.753265998742461e-2" y="-6.297175338943183e-2"/>
    <rect height="2.0000000000000004e-2" width="2.0000000000000004e-2" x="2.752593789736247e-2" y="-5.687793858557543e-2"/>
    <rect height="2.0000000000000004e-2" width="2.0000000000000004e-2" x="2.7508681131517283e-2" y="-5.61886545650545e-2"/>
    <rect height="2.0000000000000004e-2" width="2.0000000000000004e-2" x="2.756110471624274e-2" y="-6.0571788833688626e-2"/>
    <rect height="2.0000000000000004e-2" width="2.0000000000000004e-2" x="2.761967838738367e-2" y="-6.100569348806339e-2"/>
    <rect height="2.0000000000000004e-2" width="2.0000000000000004e-2" x="2.7619764049415248e-2" y="-5.735426205437243e-2"/>
    <rect height="2.0000000000000004e-2" width="2.0000000000000004e-2" x="2.760490589879206e-2" y="-5.64013856752149e-2"/>
    <rect height="2.0000000000000004e-2" width="2.0000000000000004e-2" x="2.7665867856174205e-2" y="-6.1169480774802436e-2"/>
    <rect height="2.0000000000000004e-2" width="2.0000000000000004e-2" x="2.7653646843760156e-2" y="-5.660743894800501e-2"/>
    <rect height="2.0000000000000004e-2" width="2.0000000000000004e-2" x="2.755869025950753e-2" y="-5.13714586513011e-2"/>
    <rect height="2.0000000000000004e-2" width="2.0000000000000004e-2" x="2.758940919132869e-2" y="-5.921804999274371e-2"/>
    <rect height="1.9999999999999997e-2" width="2.0000000000000004e-2" x="2.769634341043182e-2" y="-6.406854458971654e-2"/>
    <rect height="2.0000000000000004e-2" width="2.0000000000000004e-2" x="2.758228351527748e-2" y="-5.021570812417941e-2"/>
    <rect height="2.0000000000000004e-2" width="2.0000000000000004e-2" x="2.7621154901416707e-2" y="-5.974369371722243e-2"/>
    <rect height="2.0000000000000004e-2" width="2.0000000000000004e-2" x="2.756899253430912e-2" y="-5.4056465508425126e-2"/>
    <rect height="2.0000000000000004e-2" width="2.0000000000000004e-2" x="2.7627203008691266e-2" y="-6.0967808261828675e-2"/>
    <rect height="1.9999999999999997e-2" width="2.0000000000000004e-2" x="2.7709335067146686e-2" y="-6.25326119716366e-2"/>
    <rect height="2.0000000000000004e-2" width="2.0000000000000004e-2" x="2.7655409476568422e-2" y="-5.400972623554833e-2"/>
    <rect height="1.9999999999999997e-2" width="2.0000000000000004e-2" x="2.774213922630043e-2" y="-6.281876173833488e-2"/>
    <rect height="2.0000000000000004e-2" width="2.0000000000000004e-2" x="2.7707019427000164e-2" y="-5.521607513099746e-2"/>
    <rect height="2.0000000000000004e-2" width="2.0000000000000004e-2" x="2.7720775987527542e-2" y="-5.8254470472656854e-2"/>
    <rect height="1.9999999999999997e-2" width="2.0000000000000004e-2" x="2.78263720387606e-2" y="-6.405762777140676e-2"/>
    <rect height="2.0000000000000004e-2" width="2.0000000000000004e-2" x="2.7866986622068442e-2" y="-6.003795092102248e-2"/>
    <rect height="2.0000000000000004e-2" width="2.0000000000000004e-2" x="2.7814440904798128e-2" y="-5.419265074800294e-2"/>
    <rect height="2.0000000000000004e-2" width="2.0000000000000004e-2" x="2.780462373173865e-2" y="-5.68363680097027e-2"/>
    <rect height="2.0000000000000004e-2" width="2.0000000000000004e-2" x="2.7806959604812727e-2" y="-5.760073415160604e-2"/>
    <rect height="2.0000000000000004e-2" width="2.0000000000000004e-2" x="2.7663510184433145e-2" y="-4.842138084736768e-2"/>
    <rect height="2.0000000000000004e-2" width="2.0000000000000004e-2" x="2.74258085614908e-2" y="-4.2340574937399726e-2"/>
    <rect height="1.9999999999999997e-2" width="2.0000000000000004e-2" x="2.755877104113514e-2" y="-6.555836119445911e-2"/>
    <rect height="2.0000000000000004e-2" width="2.0000000000000004e-2" x="2.753453954157515e-2" y="-5.5798301707465574e-2"/>
    <rect height="2.0000000000000004e-2" width="2.0000000000000004e-2" x="2.756791953805316e-2" y="-5.938668196267637e-2"/>
    <rect height="2.0000000000000004e-2" width="2.0000000000000004e-2" x="2.7302314503454113e-2" y="-4.053716412648755e-2"/>
    <rect height="1.9999999999999997e-2" width="2.0000000000000004e-2" x="2.7397204909528357e-2" y="-6.306682354908243e-2"/>
    <rect height="1.9999999999999997e-2" width="2.0000000000000004e-2" x="2.7598294534534114e-2" y="-6.992748776726197e-2"/>
    <rect height="1.9999999999999997e-2" width="2.0000000000000004e-2" x="2.7744891677342627e-2" y="-6.662205640277384e-2"/>
    <rect height="2.0000000000000004e-2" width="2.0000000000000004e-2" x="2.7778415315093404e-2" y="-5.955801011600314e-2"/>
    <rect height="2.0000000000000004e-2" width="2.0000000000000004e-2" x="2.768753952081638e-2" y="-5.17145647185645e-2"/>
    <rect height="1.9999999999999997e-2" width="2.0000000000000004e-2" x="2.777896841105077e-2" y="-6.31309207483579e-2"/>
    <rect height="2.0000000000000004e-2" width="2.0000000000000004e-2" x="2.778907283634769e-2" y="-5.809167656881408e-2"/>
    <rect height="2.0000000000000004e-2" width="2.0000000000000004e-2" x="2.7867026545263636e-2" y="-6.236076813186219e-2"/>
    <rect height="2.0000000000000004e-2" width="2.0000000000000004e-2" x="2.782902465735427e-2" y="-5.511183327163315e-2"/>
    <rect height="2.0000000000000004e-2" width="2.0000000000000004e-2" x="2.7841182933741944e-2" y="-5.823057369357298e-2"/>
    <rect height="2.0000000000000004e-2" width="2.0000000000000004e-2" x="2.7785192053882753e-2" y="-5.3951365825203094e-2"/>
    <rect height="2.0000000000000004e-2" width="2.0000000000000004e-2" x="2.783846962189674e-2" y="-6.079207363606542e-2"/>
    <rect height="2.0000000000000004e-2" width="2.0000000000000004e-2" x="2.776960996727352e-2" y="-5.314457257863247e-2"/>
    <rect height="2.0000000000000004e-2" width="2.0000000000000004e-2" x="2.760574475490874e-2" y="-4.7083060306989936e-2"/>
  </g>
</svg>