<svg viewBox="-0.7738359059966525 -0.68275 1.3199999999999998 1.5612345216804475" xmlns="http://www.w3.org/2000/svg" xmlns:xlink="http://www.w3.org/1999/xlink" version="1.1" width="300.0" height="200.0"><g stroke-width="0.0" stroke="none" fill="#000000" transform="translate(-0.11383590599665261, -0.57175)" fill-opacity="1.0" font-size="0.12" text-anchor="middle"><text transform="rotate(0.0, 0.0, -0.0)" x="0.0" y="-0.0">forecast versus actual</text></g><g stroke-width="0.0" stroke="none" fill="#000000" transform="translate(-0.11383590599665261, 0.8469845216804475)" fill-opacity="1.0" font-size="6.0e-2" text-anchor="middle"><text transform="rotate(0.0, 0.0, -0.0)" x="0.0" y="-0.0">forecast</text></g><g stroke-width="0.0" stroke="none" fill="#000000" transform="translate(-0.6796718119933052, 0.11586726084022375)" fill-opacity="1.0" font-size="6.0e-2" text-anchor="middle"><text transform="rotate(-90.0, 0.0, -0.0)" x="0.0" y="-0.0">actual</text></g><g stroke-width="0.0" stroke="#000000" fill="#666666" fill-opacity="3.0e-2" stroke-opacity="0.0"><rect width="1.0" height="1.0" x="-0.5" y="-0.5" /></g><g stroke-width="5.0e-3" stroke="#A8E5EE" fill="none" stroke-opacity="0.3"><polyline points="-0.5,0.505 -0.5,-0.505" /></g><g stroke-width="5.0e-3" stroke="#A8E5EE" fill="none" stroke-opacity="0.3"><polyline points="-0.33333333333333337,0.505 -0.33333333333333337,-0.505" /></g><g stroke-width="5.0e-3" stroke="#A8E5EE" fill="none" stroke-opacity="0.3"><polyline points="-0.16666666666666669,0.505 -0.16666666666666669,-0.505" /></g><g stroke-width="5.0e-3" stroke="#A8E5EE" fill="none" stroke-opacity="0.3"><polyline points="0.0,0.505 0.0,-0.505" /></g><g stroke-width="5.0e-3" stroke="#A8E5EE" fill="none" stroke-opacity="0.3"><polyline points="0.16666666666666663,0.505 0.16666666666666663,-0.505" /></g><g stroke-width="5.0e-3" stroke="#A8E5EE" fill="none" stroke-opacity="0.3"><polyline points="0.33333333333333337,0.505 0.33333333333333337,-0.505" /></g><g stroke-width="5.0e-3" stroke="#A8E5EE" fill="none" stroke-opacity="0.3"><polyline points="0.5,0.505 0.5,-0.505" /></g><g stroke-width="0.0" stroke="none" fill="#666666" fill-opacity="1.0" font-size="4.746917842730918e-2" text-anchor="end"><text transform="rotate(-45.0, -0.5, 0.6451651543597992)" x="-0.5" y="0.6451651543597992">-0.15%</text></g><g stroke-width="0.0" stroke="none" fill="#666666" fill-opacity="1.0" font-size="4.746917842730918e-2" text-anchor="end"><text transform="rotate(-45.0, -0.33333333333333337, 0.6451651543597992)" x="-0.33333333333333337" y="0.6451651543597992">-0.10%</text></g><g stroke-width="0.0" stroke="none" fill="#666666" fill-opacity="1.0" font-size="4.746917842730918e-2" text-anchor="end"><text transform="rotate(-45.0, -0.16666666666666669, 0.6451651543597992)" x="-0.16666666666666669" y="0.6451651543597992">-0.05%</text></g><g stroke-width="0.0" stroke="none" fill="#666666" fill-opacity="1.0" font-size="4.746917842730918e-2" text-anchor="end"><text transform="rotate(-45.0, 0.0, 0.6451651543597992)" x="0.0" y="0.6451651543597992">0.00%</text></g><g stroke-width="0.0" stroke="none" fill="#666666" fill-opacity="1.0" font-size="4.746917842730918e-2" text-anchor="end"><text transform="rotate(-45.0, 0.16666666666666663, 0.6451651543597992)" x="0.16666666666666663" y="0.6451651543597992">0.05%</text></g><g stroke-width="0.0" stroke="none" fill="#666666" fill-opacity="1.0" font-size="4.746917842730918e-2" text-anchor="end"><text transform="rotate(-45.0, 0.33333333333333337, 0.6451651543597992)" x="0.33333333333333337" y="0.6451651543597992">0.10%</text></g><g stroke-width="0.0" stroke="none" fill="#666666" fill-opacity="1.0" font-size="4.746917842730918e-2" text-anchor="end"><text transform="rotate(-45.0, 0.5, 0.6451651543597992)" x="0.5" y="0.6451651543597992">0.15%</text></g><g stroke-width="0.0" stroke="#2C429D" fill="#5F0391" fill-opacity="1.0" stroke-opacity="0.4"><line stroke-width="5.0e-3" x1="-0.5" y1="0.58075" x2="-0.5" y2="0.55075" /><line stroke-width="5.0e-3" x1="-0.33333333333333337" y1="0.58075" x2="-0.33333333333333337" y2="0.55075" /><line stroke-width="5.0e-3" x1="-0.16666666666666669" y1="0.58075" x2="-0.16666666666666669" y2="0.55075" /><line stroke-width="5.0e-3" y1="0.58075" y2="0.55075" /><line stroke-width="5.0e-3" x1="0.16666666666666663" y1="0.58075" x2="0.16666666666666663" y2="0.55075" /><line stroke-width="5.0e-3" x1="0.33333333333333337" y1="0.58075" x2="0.33333333333333337" y2="0.55075" /><line stroke-width="5.0e-3" x1="0.5" y1="0.58075" x2="0.5" y2="0.55075" /></g><g stroke-width="0.0" stroke="#666666" fill="#5F0391" fill-opacity="0.5" stroke-opacity="0.0"><rect width="1.0" height="5.0000000000000044e-3" x="-0.5" y="0.55075" /></g><g stroke-width="5.0e-3" stroke="#A8E5EE" fill="none" stroke-opacity="0.3"><polyline points="-0.505,0.5 0.505,0.5" /></g><g stroke-width="5.0e-3" stroke="#A8E5EE" fill="none" stroke-opacity="0.3"><polyline points="-0.505,0.30000000000000004 0.505,0.30000000000000004" /></g><g stroke-width="5.0e-3" stroke="#A8E5EE" fill="none" stroke-opacity="0.3"><polyline points="-0.505,0.10000000000000003 0.505,0.10000000000000003" /></g><g stroke-width="5.0e-3" stroke="#A8E5EE" fill="none" stroke-opacity="0.3"><polyline points="-0.505,-9.999999999999998e-2 0.505,-9.999999999999998e-2" /></g><g stroke-width="5.0e-3" stroke="#A8E5EE" fill="none" stroke-opacity="0.3"><polyline points="-0.505,-0.29999999999999993 0.505,-0.29999999999999993" /></g><g stroke-width="5.0e-3" stroke="#A8E5EE" fill="none" stroke-opacity="0.3"><polyline points="-0.505,-0.5 0.505,-0.5" /></g><g stroke-width="0.0" stroke="none" fill="#666666" fill-opacity="1.0" font-size="5.0e-2" text-anchor="end"><text x="-0.5646718119933051" y="0.5145">-4%</text></g><g stroke-width="0.0" stroke="none" fill="#666666" fill-opacity="1.0" font-size="5.0e-2" text-anchor="end"><text x="-0.5646718119933051" y="0.31450000000000006">-2%</text></g><g stroke-width="0.0" stroke="none" fill="#666666" fill-opacity="1.0" font-size="5.0e-2" text-anchor="end"><text x="-0.5646718119933051" y="0.11450000000000003">0%</text></g><g stroke-width="0.0" stroke="none" fill="#666666" fill-opacity="1.0" font-size="5.0e-2" text-anchor="end"><text x="-0.5646718119933051" y="-8.549999999999998e-2">2%</text></g><g stroke-width="0.0" stroke="none" fill="#666666" fill-opacity="1.0" font-size="5.0e-2" text-anchor="end"><text x="-0.5646718119933051" y="-0.2854999999999999">4%</text></g><g stroke-width="0.0" stroke="none" fill="#666666" fill-opacity="1.0" font-size="5.0e-2" text-anchor="end"><text x="-0.5646718119933051" y="-0.4855">6%</text></g><g stroke-width="0.0" stroke="#2C429D" fill="#5F0391" fill-opacity="1.0" stroke-opacity="0.4"><line stroke-width="5.0e-3" transform="rotate(-90.0, -0.534596811993305, 0.5)" x1="-0.534596811993305" y1="0.515" x2="-0.534596811993305" y2="0.485" /><line stroke-width="5.0e-3" transform="rotate(-90.0, -0.534596811993305, 0.30000000000000004)" x1="-0.534596811993305" y1="0.31500000000000006" x2="-0.534596811993305" y2="0.28500000000000003" /><line stroke-width="5.0e-3" transform="rotate(-90.0, -0.534596811993305, 0.10000000000000003)" x1="-0.534596811993305" y1="0.11500000000000003" x2="-0.534596811993305" y2="8.500000000000003e-2" /><line stroke-width="5.0e-3" transform="rotate(-90.0, -0.534596811993305, -9.999999999999998e-2)" x1="-0.534596811993305" y1="-8.499999999999998e-2" x2="-0.534596811993305" y2="-0.11499999999999998" /><line stroke-width="5.0e-3" transform="rotate(-90.0, -0.534596811993305, -0.29999999999999993)" x1="-0.534596811993305" y1="-0.2849999999999999" x2="-0.534596811993305" y2="-0.31499999999999995" /><line stroke-width="5.0e-3" transform="rotate(-90.0, -0.534596811993305, -0.5)" x1="-0.534596811993305" y1="-0.485" x2="-0.534596811993305" y2="-0.515" /></g><g stroke-width="0.0" stroke="#666666" fill="#5F0391" fill-opacity="0.5" stroke-opacity="0.0"><rect width="5.0000000000000044e-3" height="1.0" x="-0.524596811993305" y="-0.5" /></g><g stroke-width="3.0e-3" stroke="#2C429D" fill="#FF0000" fill-opacity="0.3" stroke-opacity="0.0"><rect width="2.0000000000000018e-2" height="2.0000000000000018e-2" x="0.21376059610274234" y="0.21788066905391135" /><rect width="2.0000000000000018e-2" height="2.0000000000000018e-2" x="0.17428603171399004" y="0.20157822324145797" /><rect width="2.0000000000000018e-2" height="2.0000000000000018e-2" x="0.12758906483499288" y="0.22413943200699304" /><rect width="2.0000000000000018e-2" height="2.0000000000000004e-2" x="0.14339360061505213" y="3.9413992887702205e-2" /><rect width="2.0000000000000018e-2" height="2.0000000000000004e-2" x="0.1786103972572921" y="-1.971558331054068e-2" /><rect width="2.0000000000000018e-2" height="1.999999999999999e-2" x="0.18538789063945582" y="6.364533625673703e-2" /><rect width="2.0000000000000018e-2" height="1.999999999999999e-2" x="0.18176447718034217" y="9.483960499375284e-2" /><rect width="2.0000000000000018e-2" height="1.9999999999999997e-2" x="0.194790784606915" y="4.546901116845343e-2" /><rect width="2.0000000000000018e-2" height="1.9999999999999997e-2" x="0.25045637600211357" y="-8.229418739375292e-2" /><rect width="2.0000000000000018e-2" height="1.999999999999999e-2" x="0.2432940618483035" y="0.1027461199844177" /><rect width="2.0000000000000018e-2" height="2.0000000000000018e-2" x="0.21936794567173623" y="0.15383859342853068" /><rect width="2.0000000000000018e-2" height="2.0000000000000018e-2" x="0.1979241669346412" y="0.14740976571476844" /><rect width="2.0000000000000018e-2" height="1.999999999999999e-2" x="0.19331291015871566" y="9.782285861511476e-2" /><rect width="2.0000000000000018e-2" height="1.999999999999999e-2" x="0.19699753075657567" y="7.298026764944034e-2" /><rect width="2.0000000000000018e-2" height="2.0000000000000018e-2" x="0.14692583980701457" y="0.23305880500324339" /><rect width="2.0000000000000018e-2" height="1.999999999999999e-2" x="0.15054002168400926" y="7.519449399771307e-2" /><rect width="2.0000000000000018e-2" height="2.0000000000000004e-2" x="0.14271761745957223" y="0.1084565858116386" /><rect width="1.9999999999999997e-2" height="2.0000000000000018e-2" x="5.569714526538639e-2" y="0.3448465086675169" /><rect width="2.0000000000000004e-2" height="2.0000000000000018e-2" x="-1.5950948223878485e-2" y="0.3018985001596781" /><rect width="1.999999999999999e-2" height="2.0000000000000018e-2" x="7.452090076422647e-2" y="-0.1779456083122517" /><rect width="2.0000000000000004e-2" height="2.0000000000000018e-2" x="1.4781453577468193e-2" y="0.2642684356327265" /><rect width="2.0000000000000004e-2" height="2.0000000000000004e-2" x="4.86943481980485e-3" y="0.11921063886942952" /><rect width="1.9999999999999997e-2" height="2.0000000000000004e-2" x="5.0762878926951645e-2" y="-4.675611454430905e-2" /><rect width="2.0000000000000004e-2" height="2.0000000000000018e-2" x="-2.592817892285803e-2" y="0.3159031953693841" /><rect width="2.0000000000000004e-2" height="2.0000000000000004e-2" x="1.661431796146829e-2" y="-3.535609914572079e-2" /><rect width="1.9999999999999997e-2" height="2.0000000000000004e-2" x="5.487302649749371e-2" y="-2.5001126136541256e-2" /><rect width="1.999999999999999e-2" height="2.0000000000000004e-2" x="7.703884399113471e-2" y="2.1605317967544065e-2" /><rect width="2.0000000000000004e-2" height="2.0000000000000018e-2" x="1.6840731618003122e-3" y="0.3116377694880091" /><rect width="2.0000000000000004e-2" height="1.9999999999999997e-2" x="1.2986756701233624e-2" y="5.669260135966837e-2" /><rect width="1.999999999999999e-2" height="1.9999999999999997e-2" x="6.845014315095944e-2" y="-7.588466389006508e-2" /><rect width="1.9999999999999997e-2" height="2.0000000000000018e-2" x="4.884944989389051e-2" y="0.14540464564121952" /><rect width="1.999999999999999e-2" height="2.0000000000000004e-2" x="7.590387716215043e-2" y="7.83238810200205e-3" /><rect width="1.999999999999999e-2" height="2.0000000000000004e-2" x="6.523367376705315e-2" y="0.1189068859841448" /><rect width="1.999999999999999e-2" height="2.0000000000000004e-2" x="9.160637563274023e-2" y="9.237728925508568e-3" /><rect width="2.0000000000000018e-2" height="2.0000000000000004e-2" x="0.1260191209413627" y="-1.605046440457069e-2" /><rect width="2.0000000000000018e-2" height="1.999999999999999e-2" x="0.12728006048597607" y="8.168881852315969e-2" /><rect width="2.0000000000000004e-2" height="2.0000000000000018e-2" x="0.10665450519602916" y="0.14742516144962292" /><rect width="1.999999999999999e-2" height="2.0000000000000018e-2" x="7.68419029452433e-2" y="0.17573148793367377" /><rect width="1.999999999999999e-2" height="1.999999999999999e-2" x="7.628035485438146e-2" y="8.943856364005816e-2" /><rect width="2.0000000000000004e-2" height="2.0000000000000018e-2" x="3.0248003717426537e-2" y="0.22470752558554552" /><rect width="2.0000000000000004e-2" height="1.999999999999999e-2" x="3.6165598497405645e-2" y="7.164779112879623e-2" /><rect width="1.999999999999999e-2" height="2.0e-2" x="7.050066324746775e-2" y="-1.380058716054077e-2" /><rect width="1.999999999999999e-2" height="1.999999999999999e-2" x="7.328181871309193e-2" y="7.886901946740489e-2" /><rect width="1.9999999999999997e-2" height="2.0000000000000018e-2" x="4.487468682879859e-2" y="0.17221099100144338" /><rect width="1.9999999999999997e-2" height="1.999999999999999e-2" x="5.296747856007323e-2" y="6.454305498150316e-2" /><rect width="2.0000000000000004e-2" height="2.0000000000000018e-2" x="2.805317706921085e-2" y="0.16231853442260058" /><rect width="2.0000000000000004e-2" height="2.0000000000000004e-2" x="2.0189057946206963e-2" y="0.11256267567096874" /><rect width="1.999999999999999e-2" height="2.0000000000000004e-2" x="6.261489535412325e-2" y="-3.729660392739242e-2" /><rect width="1.999999999999999e-2" height="1.9999999999999997e-2" x="7.328239956125505e-2" y="5.547926644988394e-2" /><rect width="1.999999999999999e-2" height="1.999999999999999e-2" x="7.151031686877397e-2" y="9.265639457606657e-2" /><rect width="1.999999999999999e-2" height="2.0e-2" x="0.1029758669732518" y="-6.355488520455468e-3" /><rect width="2.0000000000000018e-2" height="2.0000000000000004e-2" x="0.1329293796303197" y="-3.270145804149407e-3" /><rect width="2.0000000000000018e-2" height="1.999999999999999e-2" x="0.13706736296346123" y="7.293784279477557e-2" /><rect width="2.0000000000000018e-2" height="1.999999999999999e-2" x="0.1385267224022697" y="8.116892298869084e-2" /><rect width="2.0000000000000004e-2" height="2.0000000000000018e-2" x="0.11405078663226244" y="0.15865577688428623" /><rect width="2.0000000000000018e-2" height="1.9999999999999997e-2" x="0.12647856083490938" y="4.947769245315998e-2" /><rect width="2.0000000000000004e-2" height="1.999999999999999e-2" x="0.12218672948804755" y="9.85618965794174e-2" /><rect width="2.0000000000000004e-2" height="2.0000000000000004e-2" x="0.11205773460479164" y="0.11635647419297247" /><rect width="2.0000000000000018e-2" height="2.0000000000000004e-2" x="0.13550806919074665" y="1.6404954282570224e-2" /><rect width="2.0000000000000004e-2" height="2.0000000000000004e-2" x="0.1234310601028903" y="0.12140583825811409" /><rect width="2.0000000000000018e-2" height="1.9999999999999997e-2" x="0.13299803183643089" y="5.756918504145803e-2" /><rect width="2.0000000000000004e-2" height="2.0000000000000004e-2" x="0.124742809398409" y="0.11025210165490741" /><rect width="2.0000000000000004e-2" height="2.0000000000000004e-2" x="0.11553093080250011" y="0.11359999838111302" /><rect width="1.999999999999999e-2" height="2.0000000000000018e-2" x="7.538781657908568e-2" y="0.20631479906970002" /><rect width="2.0000000000000004e-2" height="2.0000000000000004e-2" x="0.11692965548574043" y="-3.615633121248262e-2" /><rect width="1.999999999999999e-2" height="2.0000000000000018e-2" x="9.237024858049782e-2" y="0.15903137966538938" /><rect width="2.0000000000000018e-2" height="2.0000000000000004e-2" x="0.12755810196012374" y="-1.7906225280272962e-2" /><rect width="2.0000000000000018e-2" height="1.9999999999999997e-2" x="0.14096848007900653" y="4.530341891065771e-2" /><rect width="2.0000000000000018e-2" height="1.999999999999999e-2" x="0.14174011135431974" y="8.297615926520487e-2" /><rect width="2.0000000000000018e-2" height="2.0000000000000004e-2" x="0.16874608060576624" y="4.69177586389353e-3" /><rect width="2.0000000000000018e-2" height="1.999999999999999e-2" x="0.16443786653303272" y="9.714351360995045e-2" /><rect width="2.0000000000000018e-2" height="1.9999999999999997e-2" x="0.17314490097622015" y="5.879009485197168e-2" /><rect width="2.0000000000000018e-2" height="1.999999999999999e-2" x="0.1748393006625164" y="7.931842357698933e-2" /><rect width="2.0000000000000018e-2" height="1.999999999999999e-2" x="0.1788019777305624" y="7.258139335046522e-2" /><rect width="2.0000000000000018e-2" height="2.0000000000000018e-2" x="0.16339870982256743" y="0.13034196836053685" /><rect width="2.0000000000000018e-2" height="1.999999999999999e-2" x="0.16998510315032678" y="6.531564656252854e-2" /><rect width="2.0000000000000018e-2" height="1.999999999999999e-2" x="0.16474664736787603" y="0.10017585410054154" /><rect width="2.0000000000000018e-2" height="2.0000000000000004e-2" x="0.15590132131116097" y="0.11128380033480952" /><rect width="2.0000000000000018e-2" height="2.0000000000000018e-2" x="0.14079863554628902" y="0.130314988804211" /><rect width="2.0000000000000018e-2" height="1.999999999999999e-2" x="0.14507589465558213" y="7.28936736723222e-2" /><rect width="2.0000000000000004e-2" height="2.0000000000000018e-2" x="0.12221681168103883" y="0.15365647864509047" /><rect width="2.0000000000000018e-2" height="1.999999999999999e-2" x="0.12721477041517382" y="7.139879020550734e-2" /><rect width="1.999999999999999e-2" height="2.0000000000000018e-2" x="7.96037163859963e-2" y="0.2281956636965588" /><rect width="1.999999999999999e-2" height="1.999999999999999e-2" x="8.6274472346782e-2" y="6.798009430020303e-2" /><rect width="1.9999999999999997e-2" height="2.0000000000000018e-2" x="5.636904242659791e-2" y="0.17641477957106316" /><rect width="1.999999999999999e-2" height="2.0000000000000004e-2" x="7.643785012667371e-2" y="2.8404679124438066e-2" /><rect width="1.999999999999999e-2" height="1.999999999999999e-2" x="7.80222765580917e-2" y="8.241830316853462e-2" /><rect width="1.999999999999999e-2" height="1.9999999999999997e-2" x="8.737903707652751e-2" y="5.9367621247224174e-2" /><rect width="1.999999999999999e-2" height="2.0000000000000018e-2" x="6.977211021053321e-2" y="0.13959548965366458" /><rect width="1.999999999999999e-2" height="2.0000000000000004e-2" x="9.77594555082948e-2" y="4.1627895209417985e-3" /><rect width="2.0000000000000004e-2" height="2.0000000000000004e-2" x="0.12479256204260271" y="5.544809934428749e-3" /><rect width="2.0000000000000018e-2" height="2.0000000000000004e-2" x="0.15267804868389567" y="2.1571242726459248e-3" /><rect width="2.0000000000000018e-2" height="1.9999999999999997e-2" x="0.16250512730782396" y="5.532697516543628e-2" /><rect width="2.0000000000000018e-2" height="2.0000000000000018e-2" x="0.13693513530197532" y="0.1611938037419921" /><rect width="2.0000000000000018e-2" height="2.0000000000000004e-2" x="0.16469287774595964" y="2.8916691485931876e-3" /><rect width="2.0000000000000018e-2" height="1.999999999999999e-2" x="0.1664179238123078" y="7.92126797426106e-2" /><rect width="2.0000000000000018e-2" height="1.999999999999999e-2" x="0.16120286678713203" y="0.10028643563533042" /><rect width="2.0000000000000018e-2" height="1.9999999999999997e-2" x="0.17276377845531898" y="5.034225668479964e-2" /><rect width="2.0000000000000018e-2" height="1.999999999999999e-2" x="0.17809044427546328" y="6.841799975106906e-2" /><rect width="2.0000000000000018e-2" height="2.0000000000000018e-2" x="0.16294365088772456" y="0.12960765675759178" /><rect width="2.0000000000000018e-2" height="1.999999999999999e-2" x="0.1581094398004328" y="9.948927850996205e-2" /><rect width="2.0000000000000018e-2" height="1.999999999999999e-2" x="0.16258320346509592" y="7.16366563204996e-2" /><rect width="2.0000000000000018e-2" height="2.0000000000000004e-2" x="0.1767694834861563" y="4.2305104006775736e-2" /><rect width="2.0000000000000018e-2" height="2.0000000000000004e-2" x="0.20510832972551973" y="-6.039215652711063e-4" /><rect width="2.0000000000000018e-2" height="2.0000000000000004e-2" x="0.19267410499507576" y="0.12036781792822361" /><rect width="2.0000000000000018e-2" height="2.0000000000000018e-2" x="0.1686978969923416" y="0.15583799158633638" /><rect width="2.0000000000000018e-2" height="2.0000000000000018e-2" x="0.14773780884447585" y="0.14770797195542862" /><rect width="2.0000000000000018e-2" height="2.0000000000000004e-2" x="0.16253498895538077" y="4.127269361885861e-2" /><rect width="2.0000000000000018e-2" height="1.999999999999999e-2" x="0.15725970899460928" y="0.10040834059094624" /><rect width="2.0000000000000018e-2" height="2.0000000000000004e-2" x="0.17202562325681792" y="4.08570971467015e-2" /><rect width="2.0000000000000018e-2" height="1.9999999999999997e-2" x="0.18561270925893936" y="4.366565110052124e-2" /><rect width="2.0000000000000018e-2" height="1.9999999999999997e-2" x="0.19539012920295096" y="5.4680065762944714e-2" /><rect width="2.0000000000000018e-2" height="1.9999999999999997e-2" x="0.2027099613398835" y="6.1797910751297876e-2" /><rect width="2.0000000000000018e-2" height="1.999999999999999e-2" x="0.19966758467332157" y="9.262383567077694e-2" /><rect width="2.0000000000000018e-2" height="1.999999999999999e-2" x="0.19275896853691277" y="0.10442702857389065" /><rect width="2.0000000000000018e-2" height="2.0000000000000018e-2" x="0.16690742876767906" y="0.16139255358126492" /><rect width="2.0000000000000018e-2" height="2.0000000000000018e-2" x="0.15184699027193016" y="0.13014068686027414" /><rect width="2.0000000000000018e-2" height="2.0000000000000004e-2" x="0.17156965138714753" y="2.631173918912006e-2" /><rect width="2.0000000000000018e-2" height="2.0000000000000018e-2" x="0.14416920853927562" y="0.16631068669566412" /><rect width="2.0000000000000018e-2" height="2.0000000000000004e-2" x="0.1690990903167331" y="1.1119407166764303e-2" /><rect width="2.0000000000000018e-2" height="1.9999999999999997e-2" x="0.1782700083469051" y="5.682347711412462e-2" /><rect width="2.0000000000000018e-2" height="1.999999999999999e-2" x="0.18444058132638963" y="6.57491617772606e-2" /><rect width="2.0000000000000018e-2" height="1.999999999999999e-2" x="0.18936580067959297" y="6.933596496861434e-2" /><rect width="2.0000000000000018e-2" height="1.999999999999999e-2" x="0.18601498077834278" y="9.398206555302614e-2" /><rect width="2.0000000000000018e-2" height="2.0000000000000004e-2" x="0.1784124008949164" y="0.10692681017157181" /><rect width="2.0000000000000018e-2" height="2.0000000000000004e-2" x="0.19720008869960692" y="2.8203727728321477e-2" /><rect width="2.0000000000000018e-2" height="2.0000000000000004e-2" x="0.22056434656061707" y="1.3588731476222424e-2" /><rect width="2.0000000000000018e-2" height="1.999999999999999e-2" x="0.2190501453820658" y="8.73068396087008e-2" /><rect width="2.0000000000000018e-2" height="2.0000000000000004e-2" x="0.23575816585706955" y="3.314811873574975e-2" /><rect width="2.0000000000000018e-2" height="2.0000000000000018e-2" x="0.2183837246982704" y="0.13440070704779317" /><rect width="2.0000000000000018e-2" height="1.999999999999999e-2" x="0.21661988826283463" y="8.865577181164565e-2" /><rect width="2.0000000000000018e-2" height="2.0000000000000004e-2" x="0.2088252135977542" y="0.10655674206796696" /><rect width="2.0000000000000018e-2" height="2.0000000000000004e-2" x="0.1972908024965312" y="0.11807051270864628" /><rect width="2.0000000000000018e-2" height="2.0000000000000018e-2" x="0.18304657590980689" y="0.12658982576502953" /><rect width="2.0000000000000018e-2" height="2.0000000000000004e-2" x="0.17377955616319063" y="0.11215812261436699" /><rect width="2.0000000000000018e-2" height="1.999999999999999e-2" x="0.17831314148171074" y="7.104012963686225e-2" /><rect width="2.0000000000000018e-2" height="1.9999999999999997e-2" x="0.18887064162372158" y="5.267152598156822e-2" /><rect width="2.0000000000000018e-2" height="1.999999999999999e-2" x="0.18802044019625153" y="8.643357990530177e-2" /><rect width="2.0000000000000018e-2" height="2.0000000000000004e-2" x="0.20363329038252842" y="3.7316968772356636e-2" /><rect width="2.0000000000000018e-2" height="1.999999999999999e-2" x="0.2023421064011881" y="8.724506455743465e-2" /><rect width="2.0000000000000018e-2" height="2.0000000000000018e-2" x="0.1815685696828776" y="0.14585232162848294" /><rect width="2.0000000000000018e-2" height="2.0000000000000004e-2" x="0.1976251787307678" y="3.645456450844526e-2" /><rect width="2.0000000000000018e-2" height="1.999999999999999e-2" x="0.19965473989972782" y="7.747471145254332e-2" /><rect width="2.0000000000000018e-2" height="2.0000000000000004e-2" x="0.22362682836653736" y="1.1900513304196789e-2" /><rect width="2.0000000000000018e-2" height="1.999999999999999e-2" x="0.21994955338588706" y="9.368519108844471e-2" /><rect width="2.0000000000000018e-2" height="2.0000000000000018e-2" x="0.20589767922710256" y="0.12521850887273878" /><rect width="2.0000000000000018e-2" height="1.999999999999999e-2" x="0.19943736082618713" y="0.10305970448579206" /><rect width="2.0000000000000018e-2" height="2.0000000000000004e-2" x="0.18636836964787107" y="0.12294679831045448" /><rect width="2.0000000000000018e-2" height="1.9999999999999997e-2" x="0.19367510196406756" y="6.240584415208595e-2" /><rect width="2.0000000000000018e-2" height="1.999999999999999e-2" x="0.1915787962497436" y="9.006842642141706e-2" /><rect width="2.0000000000000018e-2" height="1.9999999999999997e-2" x="0.2017037779147336" y="5.365543872892382e-2" /><rect width="2.0000000000000018e-2" height="1.999999999999999e-2" x="0.19821235961191042" y="9.396728512498688e-2" /><rect width="2.0000000000000018e-2" height="1.999999999999999e-2" x="0.19851735952314187" y="8.288744386048731e-2" /><rect width="2.0000000000000018e-2" height="2.0000000000000018e-2" x="0.1690422978151963" y="0.1720294650360491" /><rect width="2.0000000000000018e-2" height="2.0000000000000018e-2" x="0.1488826636018603" y="0.14543341160090306" /><rect width="2.0000000000000018e-2" height="1.999999999999999e-2" x="0.14606603922781192" y="9.395245940683257e-2" /><rect width="2.0000000000000018e-2" height="1.999999999999999e-2" x="0.1397795359229933" y="0.10418899684132905" /><rect width="2.0000000000000004e-2" height="2.0000000000000018e-2" x="2.6723069854118882e-2" y="0.42416068976674254" /><rect width="2.0000000000000004e-2" height="2.0000000000000018e-2" x="-4.2922109072941354e-2" y="0.29787706455159924" /><rect width="2.0000000000000004e-2" height="2.0000000000000004e-2" x="4.8862125457187575e-3" y="-5.105886605438447e-2" /><rect width="2.0e-2" height="2.0000000000000018e-2" x="-1.5242392253848816e-2" y="0.14922282098090733" /><rect width="1.9999999999999997e-2" height="1.999999999999999e-2" x="5.6127729103575115e-2" y="-0.1226755620100528" /><rect width="1.9999999999999997e-2" height="1.999999999999999e-2" x="5.434173991894598e-2" y="9.252479082397082e-2" /><rect width="2.0000000000000004e-2" height="2.0000000000000018e-2" x="5.2291884373825235e-3" y="0.23496348264695438" /><rect width="2.0000000000000004e-2" height="1.999999999999999e-2" x="4.016310891360795e-3" y="9.361376486449431e-2" /><rect width="2.0e-2" height="2.0000000000000018e-2" x="-1.0550131029446843e-2" y="0.1330875744697611" /><rect width="2.0000000000000004e-2" height="2.0000000000000018e-2" x="-2.9026100687510707e-2" y="0.1452706421377008" /><rect width="2.0000000000000004e-2" height="2.0000000000000018e-2" x="-0.13391338172882472" y="0.4035051534639904" /><rect width="1.9999999999999997e-2" height="1.999999999999999e-2" x="-7.051367046918687e-2" y="-9.453219674136691e-2" /><rect width="2.0000000000000004e-2" height="2.0000000000000018e-2" x="-0.1286885650873717" y="0.26478778706399064" /><rect width="2.0000000000000018e-2" height="2.0000000000000018e-2" x="-0.14963239653793725" y="0.1558131711809883" /><rect width="1.999999999999999e-2" height="1.9999999999999997e-2" x="-9.584291092501211e-2" y="-6.545101775370087e-2" /><rect width="2.0000000000000004e-2" height="2.0000000000000004e-2" x="-5.880806943991939e-2" y="-1.792926120479143e-2" /><rect width="2.0000000000000004e-2" height="2.0e-2" x="-2.3205177599261266e-2" y="-1.5025017908099727e-2" /><rect width="2.0000000000000004e-2" height="2.0000000000000018e-2" x="-4.439187223626156e-2" y="0.15336552446043294" /><rect width="2.0000000000000004e-2" height="2.0000000000000004e-2" x="-2.5286965579368152e-2" y="3.4154255160982035e-2" /><rect width="2.0000000000000004e-2" height="2.0000000000000004e-2" x="-4.31025666256645e-3" y="2.760219018456079e-2" /><rect width="1.999999999999999e-2" height="1.999999999999999e-2" x="6.571550312748943e-2" y="-0.11986931300098223" /><rect width="1.9999999999999997e-2" height="2.0000000000000004e-2" x="5.627263344321077e-2" y="0.11511834192946792" /><rect width="2.0000000000000004e-2" height="2.0000000000000018e-2" x="2.478536474860627e-2" y="0.18241518489045316" /><rect width="2.0000000000000004e-2" height="2.0000000000000018e-2" x="-4.193753252916831e-2" y="0.2889804439452349" /><rect width="2.0000000000000004e-2" height="1.999999999999999e-2" x="-4.638331197215811e-2" y="0.10483202949308719" /><rect width="1.9999999999999997e-2" height="2.0000000000000018e-2" x="-7.143706577541724e-2" y="0.16596127866876703" /><rect width="2.0000000000000004e-2" height="2.0e-2" x="-3.545754154426877e-2" y="-1.5378513843520283e-2" /><rect width="2.0000000000000004e-2" height="1.999999999999999e-2" x="-2.7882899228606532e-2" y="6.779079058116762e-2" /><rect width="1.999999999999999e-2" height="2.0000000000000018e-2" x="-8.387802211710098e-2" y="0.25782971540415267" /><rect width="2.0000000000000004e-2" height="2.0000000000000018e-2" x="-0.1444081200242605" y="0.27317979872453096" /><rect width="2.0000000000000004e-2" height="1.9999999999999997e-2" x="-0.13278670311209562" y="5.96154427979449e-2" /><rect width="2.0000000000000018e-2" height="2.0000000000000018e-2" x="-0.15364821326154382" y="0.15576323544400872" /><rect width="1.999999999999999e-2" height="1.9999999999999997e-2" x="-0.10039362727998834" y="-6.412755733767793e-2" /><rect width="1.999999999999999e-2" height="1.9999999999999997e-2" x="-8.86816585603125e-2" y="5.7434939607810216e-2" /><rect width="2.0e-2" height="2.0000000000000004e-2" x="-1.187126446989494e-2" y="-0.13713856658279056" /><rect width="2.0000000000000004e-2" height="2.0000000000000004e-2" x="-1.9436630972783968e-2" y="0.11185245466325001" /><rect width="2.0000000000000004e-2" height="2.0000000000000004e-2" x="7.87371641724389e-3" y="8.625555288055095e-3" /><rect width="1.9999999999999997e-2" height="2.0000000000000004e-2" x="4.392460553696043e-2" y="-1.8819742363080143e-2" /><rect width="1.9999999999999997e-2" height="2.0000000000000018e-2" x="-6.659902155873242e-2" y="0.41899790798872527" /><rect width="1.9999999999999997e-2" height="2.0000000000000004e-2" x="-7.077813026134415e-2" y="0.10523701892383537" /><rect width="2.0000000000000018e-2" height="2.0000000000000018e-2" x="-0.1491075486855612" y="0.32596114713706603" /><rect width="2.0000000000000004e-2" height="1.999999999999999e-2" x="-0.14166311520369923" y="7.239650184241965e-2" /><rect width="2.0000000000000004e-2" height="1.999999999999999e-2" x="-0.14154786241285955" y="9.356388732848371e-2" /><rect width="1.999999999999999e-2" height="2.0000000000000004e-2" x="-0.122106349933487" y="3.595186625214559e-2" /><rect width="1.999999999999999e-2" height="1.999999999999999e-2" x="-0.12169476362798513" y="9.199894152800893e-2" /><rect width="2.0000000000000018e-2" height="2.0000000000000018e-2" x="-0.1851327741551781" y="0.2827102159804511" /><rect width="2.0000000000000018e-2" height="2.0000000000000018e-2" x="-0.25378084216380076" y="0.29992267709404147" /><rect width="2.0000000000000018e-2" height="1.999999999999999e-2" x="-0.25105928911588266" y="8.913813816246831e-2" /><rect width="2.0000000000000018e-2" height="2.0000000000000018e-2" x="-0.3008594784869621" y="0.24515303091596508" /><rect width="2.0000000000000018e-2" height="2.0000000000000018e-2" x="-0.3516505682185329" y="0.24897805633310627" /><rect width="2.0000000000000018e-2" height="2.0000000000000018e-2" x="-0.4187046970180659" y="0.2980307157363873" /><rect width="1.9999999999999962e-2" height="2.0000000000000018e-2" x="-0.508096811993305" y="0.3648650581950771" /><rect width="2.0000000000000018e-2" height="2.0000000000000018e-2" x="-0.3381041360608889" y="-0.3940241855811428" /><rect width="2.0000000000000018e-2" height="2.0000000000000004e-2" x="-0.30591159403726587" y="4.733722498619761e-3" /><rect width="2.0000000000000018e-2" height="1.999999999999999e-2" x="-0.3071026557766422" y="0.10242256264477624" /><rect width="2.0000000000000018e-2" height="2.0000000000000004e-2" x="-0.275658597201353" y="5.434708952046461e-3" /><rect width="2.0000000000000018e-2" height="1.999999999999999e-2" x="-0.26874363596723383" y="7.732235304410547e-2" /><rect width="2.0000000000000018e-2" height="2.0000000000000018e-2" x="-0.3503003801420198" y="0.34068068167335064" /><rect width="2.0000000000000018e-2" height="2.0000000000000018e-2" x="-0.23327387263250476" y="-0.24758810452885105" /><rect width="2.0000000000000018e-2" height="2.0000000000000004e-2" x="-0.20784335114401026" y="2.0137562753086265e-2" /><rect width="2.0000000000000018e-2" height="2.0e-2" x="-0.17361906575092995" y="-6.485608299077563e-3" /><rect width="2.0000000000000018e-2" height="1.9999999999999997e-2" x="-0.15839506719699314" y="4.910273011619599e-2" /><rect width="2.0000000000000004e-2" height="1.9999999999999997e-2" x="-0.14188145317841228" y="4.491762672391881e-2" /><rect width="2.0000000000000004e-2" height="1.999999999999999e-2" x="-0.14109991482438683" y="9.146262071218621e-2" /><rect width="2.0000000000000018e-2" height="2.0000000000000018e-2" x="-0.15740398639050723" y="0.1427134358954809" /><rect width="1.999999999999999e-2" height="2.0000000000000004e-2" x="-0.12023444674351329" y="-1.6644597493311146e-2" /><rect width="1.999999999999999e-2" height="1.999999999999999e-2" x="-0.11184111701891745" y="6.780394955967185e-2" /><rect width="1.999999999999999e-2" height="2.0000000000000004e-2" x="-8.559663973899333e-2" y="1.4373228327070562e-2" /><rect width="2.0000000000000004e-2" height="2.0000000000000004e-2" x="-4.122184296137937e-2" y="-4.096857497190486e-2" /><rect width="1.999999999999999e-2" height="2.0000000000000018e-2" x="-8.865761491559936e-2" y="0.23258203428589053" /><rect width="1.9999999999999997e-2" height="1.999999999999999e-2" x="-8.035225497805858e-2" y="6.799674602060059e-2" /><rect width="1.9999999999999997e-2" height="1.999999999999999e-2" x="-7.508945406482846e-2" y="7.625211615740336e-2" /><rect width="2.0000000000000004e-2" height="2.0000000000000004e-2" x="-4.624890638322159e-2" y="5.472029450162405e-3" /><rect width="1.9999999999999997e-2" height="2.0000000000000018e-2" x="-7.22825830726904e-2" y="0.1687761250091514" /><rect width="1.9999999999999997e-2" height="1.999999999999999e-2" x="-7.642482990481607e-2" y="0.10457372268177902" /><rect width="2.0000000000000004e-2" height="1.9999999999999997e-2" x="-2.4256875331577214e-2" y="-6.429441085845132e-2" /><rect width="2.0000000000000004e-2" height="2.0000000000000004e-2" x="4.234081754901484e-3" y="4.392824392955972e-3" /><rect width="2.0000000000000004e-2" height="1.999999999999999e-2" x="6.971936746654759e-3" y="8.101717026891021e-2" /><rect width="2.0000000000000004e-2" height="2.0000000000000004e-2" x="2.9316076661189967e-2" y="2.246677392624314e-2" /><rect width="1.9999999999999997e-2" height="1.9999999999999997e-2" x="4.450069561273252e-2" y="4.3026089970982846e-2" /><rect width="2.0000000000000004e-2" height="2.0000000000000004e-2" x="3.646606145461074e-2" y="0.11226846566101735" /><rect width="2.0000000000000004e-2" height="2.0000000000000018e-2" x="4.6761489694472445e-3" y="0.18401121240809093" /><rect width="2.0000000000000004e-2" height="1.999999999999999e-2" x="6.912516074591099e-3" y="8.324128199198101e-2" /><rect width="2.0000000000000004e-2" height="1.999999999999999e-2" x="9.099040860210303e-3" y="8.2911485317968e-2" /><rect width="1.9999999999999997e-2" height="2.0000000000000004e-2" x="5.161714221229597e-2" y="-3.807731678617598e-2" /><rect width="1.9999999999999997e-2" height="1.9999999999999997e-2" x="6.090194968473473e-2" y="5.980470460342769e-2" /><rect width="1.9999999999999997e-2" height="2.0000000000000004e-2" x="5.129784297786489e-2" y="0.11655106699652552" /><rect width="1.999999999999999e-2" height="2.0000000000000004e-2" x="8.681502222417516e-2" y="-1.8198702084075695e-2" /><rect width="1.999999999999999e-2" height="1.999999999999999e-2" x="9.070503891619187e-2" y="7.502285490450973e-2" /><rect width="1.999999999999999e-2" height="1.999999999999999e-2" x="9.560569303361922e-2" y="7.224469363484233e-2" /><rect width="1.999999999999999e-2" height="2.0000000000000018e-2" x="8.274262260346989e-2" y="0.12532616114551398" /><rect width="1.999999999999999e-2" height="2.0000000000000004e-2" x="0.10318587009492021" y="2.6094605606479644e-2" /><rect width="2.0000000000000004e-2" height="1.999999999999999e-2" x="0.1060835847910724" y="7.768844151535632e-2" /><rect width="1.999999999999999e-2" height="1.999999999999999e-2" x="0.10227146017039647" y="9.790749425741942e-2" /><rect width="1.999999999999999e-2" height="1.999999999999999e-2" x="9.934614036615343e-2" y="9.544199711637004e-2" /><rect width="1.999999999999999e-2" height="2.0000000000000004e-2" x="8.882191881286929e-2" y="0.11829484897188793" /><rect width="2.0000000000000004e-2" height="2.0000000000000004e-2" x="0.11080018740265575" y="2.1284404834278077e-2" /><rect width="1.999999999999999e-2" height="2.0000000000000018e-2" x="9.653416069910682e-2" y="0.12887999508227777" /><rect width="1.999999999999999e-2" height="1.999999999999999e-2" x="9.174487301728142e-2" y="0.10132201316650476" /><rect width="1.999999999999999e-2" height="2.0000000000000018e-2" x="6.890904342315275e-2" y="0.15545419410195754" /><rect width="2.0000000000000004e-2" height="2.0000000000000018e-2" x="4.099688722963402e-2" y="0.17158894810666847" /><rect width="2.0000000000000004e-2" height="2.0000000000000004e-2" x="3.3483032574401335e-2" y="0.11134024642502523" /><rect width="1.999999999999999e-2" height="2.0000000000000004e-2" x="8.163572360709105e-2" y="-5.55936882064969e-2" /><rect width="1.999999999999999e-2" height="1.9999999999999997e-2" x="9.03660643075256e-2" y="6.0509180619979126e-2" /><rect width="2.0000000000000004e-2" height="2.0000000000000004e-2" x="0.1124318309962208" y="2.0744931310774213e-2" /><rect width="2.0000000000000004e-2" height="1.999999999999999e-2" x="0.10822501414191422" y="9.868321603906717e-2" /><rect width="2.0000000000000004e-2" height="2.0000000000000004e-2" x="0.1236496611470911" y="4.027538999151537e-2" /><rect width="2.0000000000000018e-2" height="1.9999999999999997e-2" x="0.13460032271032574" y="5.3008904447750756e-2" /><rect width="2.0000000000000018e-2" height="1.999999999999999e-2" x="0.13267680757221179" y="9.130531766600743e-2" /><rect width="2.0000000000000004e-2" height="2.0000000000000004e-2" x="0.12141317826672761" y="0.1194866859822148" /><rect width="2.0000000000000018e-2" height="2.0000000000000004e-2" x="0.15616385329834148" y="-1.7938782994974638e-2" /><rect width="1.999999999999999e-2" height="2.0000000000000018e-2" x="9.04308103842514e-2" y="0.28156527670579656" /><rect width="1.999999999999999e-2" height="1.999999999999999e-2" x="8.688524113279729e-2" y="9.839556177930366e-2" /><rect width="2.0000000000000004e-2" height="2.0000000000000004e-2" x="0.10980481621129402" y="1.8430268452259375e-2" /><rect width="1.999999999999999e-2" height="2.0000000000000018e-2" x="9.298671967898255e-2" y="0.1365502524444508" /><rect width="1.999999999999999e-2" height="1.9999999999999997e-2" x="0.10397454353819903" y="5.417027742994652e-2" /><rect width="2.0000000000000018e-2" height="2.0000000000000004e-2" x="0.12518318310350074" y="2.288325220997623e-2" /><rect width="2.0000000000000018e-2" height="2.0000000000000004e-2" x="0.1621364151557222" y="-2.502147592425962e-2" /><rect width="2.0000000000000018e-2" height="1.999999999999999e-2" x="0.16034304340467398" y="8.982429538275068e-2" /><rect width="2.0000000000000018e-2" height="1.999999999999999e-2" x="0.16580828761807298" y="6.853948902819358e-2" /><rect width="2.0000000000000018e-2" height="1.999999999999999e-2" x="0.17098262268659392" y="6.917533855002668e-2" /><rect width="2.0000000000000018e-2" height="1.9999999999999997e-2" x="0.18460092923913862" y="4.3743080369506755e-2" /><rect width="2.0000000000000018e-2" height="1.999999999999999e-2" x="0.18610468520969037" y="7.9530522187809e-2" /><rect width="2.0000000000000018e-2" height="2.0000000000000018e-2" x="0.16380516629949282" y="0.1508590532801536" /><rect width="2.0000000000000018e-2" height="1.9999999999999997e-2" x="0.1737329718354237" y="5.52825774157596e-2" /><rect width="2.0000000000000018e-2" height="1.999999999999999e-2" x="0.1719868565467162" y="8.961843469519805e-2" /><rect width="2.0000000000000018e-2" height="2.0000000000000004e-2" x="0.19216910657715602" y="2.412487017869564e-2" /><rect width="2.0000000000000018e-2" height="1.999999999999999e-2" x="0.18797704752767197" y="9.629495078956092e-2" /><rect width="2.0000000000000018e-2" height="1.999999999999999e-2" x="0.18770711617747182" y="8.490782879329269e-2" /><rect width="2.0000000000000018e-2" height="2.0000000000000004e-2" x="0.17812309467461185" y="0.11276373163561461" /><rect width="2.0000000000000018e-2" height="1.999999999999999e-2" x="0.18153906051518398" y="7.422191760885134e-2" /><rect width="2.0000000000000018e-2" height="1.999999999999999e-2" x="0.18298722284538327" y="7.988488315761445e-2" /><rect width="2.0000000000000018e-2" height="2.0000000000000004e-2" x="0.21044957232172945" y="1.9772671299018805e-3" /><rect width="2.0000000000000018e-2" height="2.0000000000000004e-2" x="0.20082786044050005" y="0.11194058761115828" /><rect width="2.0000000000000018e-2" height="1.999999999999999e-2" x="0.1975102613771046" y="9.369059947725446e-2" /><rect width="2.0000000000000018e-2" height="1.9999999999999997e-2" x="0.211057326100635" y="4.325700089737917e-2" /><rect width="2.0000000000000018e-2" height="1.999999999999999e-2" x="0.21238145180509327" y="7.929015626902354e-2" /><rect width="2.0000000000000018e-2" height="1.999999999999999e-2" x="0.21332612228362557" y="8.049034042571236e-2" /><rect width="2.0000000000000018e-2" height="2.0000000000000018e-2" x="0.18592121697016672" y="0.1653036115406516" /><rect width="2.0000000000000018e-2" height="2.0000000000000004e-2" x="0.17694632870821425" y="0.11126298368857825" /><rect width="2.0000000000000018e-2" height="2.0e-2" x="0.2071314630806057" y="-5.920102772120952e-3" /><rect width="2.0000000000000018e-2" height="2.0000000000000018e-2" x="0.1898960507341383" y="0.1348087250082049" /><rect width="2.0000000000000018e-2" height="2.0000000000000018e-2" x="0.13236340487445453" y="0.25649366444391375" /><rect width="2.0000000000000018e-2" height="2.0000000000000004e-2" x="0.12579643057745726" y="0.10606865832113856" /><rect width="2.0000000000000004e-2" height="2.0000000000000004e-2" x="0.11437076270452208" y="0.12025984410597258" /><rect width="2.0000000000000018e-2" height="1.9999999999999997e-2" x="0.12555528907051616" y="5.286673546578336e-2" /><rect width="1.9999999999999997e-2" height="2.0000000000000018e-2" x="4.269996090632867e-2" y="0.33426187687924036" /><rect width="1.999999999999999e-2" height="2.0000000000000004e-2" x="6.912657159262948e-2" y="1.016336550443032e-2" /><rect width="1.999999999999999e-2" height="2.0000000000000004e-2" x="8.764230507454053e-2" y="3.177983995075668e-2" /><rect width="2.0000000000000004e-2" height="2.0000000000000004e-2" x="0.11612060718713314" y="1.4407336977562777e-3" /><rect width="1.999999999999999e-2" height="2.0000000000000018e-2" x="9.522206009275248e-2" y="0.14854290049282803" /><rect width="1.999999999999999e-2" height="2.0000000000000018e-2" x="7.167157333889919e-2" y="0.1577224885694538" /><rect width="1.999999999999999e-2" height="2.0000000000000004e-2" x="9.915885581570728e-2" y="5.402032110337971e-3" /><rect width="1.999999999999999e-2" height="2.0000000000000004e-2" x="8.852507825092328e-2" y="0.11828279170614232" /><rect width="1.9999999999999997e-2" height="2.0000000000000018e-2" x="4.761824669500881e-2" y="0.20985600914307112" /><rect width="1.9999999999999997e-2" height="1.999999999999999e-2" x="5.17181494845197e-2" y="7.647489383614904e-2" /><rect width="2.0000000000000004e-2" height="2.0000000000000018e-2" x="2.3038159298365952e-2" y="0.17410852358864326" /><rect width="2.0000000000000004e-2" height="2.0000000000000018e-2" x="-3.120146457369268e-4" y="0.1593592489876257" /><rect width="2.0000000000000004e-2" height="1.999999999999999e-2" x="6.673929225685002e-3" y="6.903817966679228e-2" /><rect width="2.0000000000000004e-2" height="2.0000000000000018e-2" x="-3.783348148365472e-2" y="0.22283051157694989" /><rect width="2.0000000000000004e-2" height="2.0000000000000004e-2" x="-4.664322239069912e-2" y="0.11769176004353861" /><rect width="2.0000000000000004e-2" height="1.999999999999999e-2" x="2.4534573568278602e-2" y="-0.12205687559886334" /><rect width="1.9999999999999997e-2" height="2.0000000000000004e-2" x="5.1008884218380686e-2" y="8.711425404249193e-3" /><rect width="1.999999999999999e-2" height="2.0000000000000004e-2" x="7.068334259782917e-2" y="2.883139164621363e-2" /><rect width="1.999999999999999e-2" height="2.0e-2" x="0.10461352154655935" y="-1.4429361065653281e-2" /><rect width="2.0000000000000004e-2" height="1.9999999999999997e-2" x="0.11883149405769101" y="4.350722188518553e-2" /><rect width="2.0000000000000004e-2" height="1.999999999999999e-2" x="0.11631754830863929" y="9.349891200503098e-2" /><rect width="2.0000000000000004e-2" height="2.0000000000000004e-2" x="0.10826167590736892" y="0.11039640994468265" /><rect width="2.0000000000000004e-2" height="1.9999999999999997e-2" x="0.1207473618122752" y="4.91105067575049e-2" /><rect width="2.0000000000000004e-2" height="2.0000000000000004e-2" x="0.11401035172030384" y="0.10612755076800358" /><rect width="2.0000000000000004e-2" height="1.999999999999999e-2" x="0.11590262004413233" y="8.068709802729858e-2" /><rect width="2.0000000000000018e-2" height="2.0e-2" x="0.14688706506098548" y="-6.70402157719562e-3" /><rect width="2.0000000000000018e-2" height="1.9999999999999997e-2" x="0.15514143266480662" y="6.019216288765839e-2" /><rect width="2.0000000000000018e-2" height="2.0000000000000004e-2" x="0.18491539364611642" y="-4.27540967948691e-3" /><rect width="2.0000000000000018e-2" height="1.999999999999999e-2" x="0.17865240944738103" y="0.10259909504620986" /><rect width="2.0000000000000018e-2" height="2.0000000000000004e-2" x="0.17099931872063923" y="0.10733383630272265" /><rect width="2.0000000000000018e-2" height="2.0000000000000018e-2" x="0.13737468682380272" y="0.1854169760890625" /><rect width="2.0000000000000018e-2" height="1.999999999999999e-2" x="0.13191482713180924" y="0.1023477891497825" /><rect width="2.0000000000000018e-2" height="1.9999999999999997e-2" x="0.14324431493024314" y="5.184164569434941e-2" /><rect width="2.0000000000000018e-2" height="2.0000000000000004e-2" x="0.16081738055824424" y="3.259077373529435e-2" /><rect width="2.0000000000000018e-2" height="2.0000000000000004e-2" x="0.18454473497590362" y="1.357000531844361e-2" /><rect width="2.0000000000000018e-2" height="1.9999999999999997e-2" x="0.19227302960735626" y="6.076105410488431e-2" /><rect width="2.0000000000000018e-2" height="2.0000000000000004e-2" x="0.2157411188233853" y="1.3569517301175569e-2" /><rect width="2.0000000000000018e-2" height="2.0000000000000004e-2" x="0.20736674735549254" y="0.10807439615341198" /><rect width="2.0000000000000018e-2" height="2.0000000000000018e-2" x="0.18902783775716636" y="0.13847142633969078" /><rect width="2.0000000000000018e-2" height="1.999999999999999e-2" x="0.19122424007081296" y="7.764267650222346e-2" /><rect width="2.0000000000000018e-2" height="1.9999999999999997e-2" x="0.20422697795086153" y="4.4994858950576096e-2" /><rect width="2.0000000000000018e-2" height="1.999999999999999e-2" x="0.20966071246551365" y="6.717358158497351e-2" /><rect width="2.0000000000000018e-2" height="1.9999999999999997e-2" x="0.22283844546232945" y="4.39048877486466e-2" /><rect width="2.0000000000000018e-2" height="1.999999999999999e-2" x="0.22105216823857377" y="8.824102033556215e-2" /><rect width="2.0000000000000018e-2" height="2.0000000000000004e-2" x="0.20735148893920408" y="0.12409548778009523" /><rect width="2.0000000000000018e-2" height="2.0000000000000018e-2" x="0.18333910034929657" y="0.15552633972237417" /><rect width="2.0000000000000018e-2" height="1.9999999999999997e-2" x="0.19342297418423515" y="5.424503756234634e-2" /><rect width="2.0000000000000018e-2" height="2.0000000000000018e-2" x="0.17067097065043912" y="0.15195791751862975" /><rect width="2.0000000000000018e-2" height="1.9999999999999997e-2" x="0.1783716503742645" y="6.175388476409089e-2" /><rect width="2.0000000000000018e-2" height="2.0000000000000004e-2" x="0.1992310605662091" y="2.175894657828987e-2" /><rect width="2.0000000000000018e-2" height="1.9999999999999997e-2" x="0.21267957019175976" y="4.32278568163797e-2" /><rect width="2.0000000000000018e-2" height="2.0000000000000018e-2" x="0.19278619104050032" y="0.14276197041414207" /><rect width="2.0000000000000018e-2" height="2.0000000000000004e-2" x="0.21539483491026945" y="1.6395907775821457e-2" /><rect width="2.0000000000000018e-2" height="2.0000000000000004e-2" x="0.2076628166598673" y="0.10617331913053653" /><rect width="2.0000000000000018e-2" height="2.0000000000000004e-2" x="0.19688753000864234" y="0.1158197570451371" /><rect width="2.0000000000000018e-2" height="2.0000000000000018e-2" x="0.1583263222109339" y="0.19945123376183133" /><rect width="2.0000000000000018e-2" height="2.0000000000000018e-2" x="0.12664466967357724" y="0.18039546550130492" /><rect width="1.999999999999999e-2" height="2.0000000000000018e-2" x="0.10103662160378558" y="0.16309405920070874" /><rect width="2.0000000000000004e-2" height="2.0000000000000018e-2" x="-7.546717058671739e-4" y="0.3922995310293913" /><rect width="1.9999999999999997e-2" height="2.0000000000000004e-2" x="4.267988969443893e-2" y="-3.932592526443423e-2" /><rect width="1.9999999999999997e-2" height="1.999999999999999e-2" x="4.4536945405733726e-2" y="8.233296331232227e-2" /><rect width="2.0000000000000004e-2" height="1.999999999999999e-2" x="0.10596755930723513" y="-9.58828444903742e-2" /><rect width="1.999999999999999e-2" height="2.0000000000000018e-2" x="8.241512306436728e-2" y="0.15638341019883273" /><rect width="2.0000000000000004e-2" height="2.0000000000000018e-2" x="4.026650866084092e-2" y="0.21393751503080838" /><rect width="1.999999999999999e-2" height="2.0000000000000004e-2" x="9.001738368949332e-2" y="-6.0180720831399685e-2" /><rect width="2.0e-2" height="2.0000000000000018e-2" x="-1.0317306986837629e-2" y="0.38729904726471875" /><rect width="2.0000000000000004e-2" height="1.999999999999999e-2" x="-1.7233468586120761e-3" y="6.539085213531477e-2" /><rect width="1.9999999999999997e-2" height="2.0000000000000004e-2" x="4.5951643625119394e-2" y="-5.3229395545035134e-2" /><rect width="1.999999999999999e-2" height="2.0000000000000004e-2" x="8.531495797183321e-2" y="-3.033198220056043e-2" /><rect width="1.9999999999999997e-2" height="2.0000000000000018e-2" x="5.769716611101328e-2" y="0.1694601531960177" /><rect width="1.999999999999999e-2" height="2.0000000000000004e-2" x="8.452146698714526e-2" y="7.87181990513681e-3" /><rect width="1.999999999999999e-2" height="1.999999999999999e-2" x="8.177205832032432e-2" y="9.506115950756051e-2" /><rect width="2.0e-2" height="2.0000000000000018e-2" x="-6.783871708217029e-3" y="0.3528862338455988" /><rect width="2.0000000000000004e-2" height="2.0000000000000004e-2" x="2.9977539716502417e-2" y="-1.9227408267521222e-2" /><rect width="2.0000000000000004e-2" height="2.0000000000000004e-2" x="1.872358193240676e-2" y="0.12208180593190583" /><rect width="2.0000000000000004e-2" height="2.0000000000000004e-2" x="4.0242828746532185e-2" y="2.4759458953081077e-2" /><rect width="1.999999999999999e-2" height="2.0000000000000004e-2" x="8.16870855075449e-2" y="-3.607421704740043e-2" /><rect width="1.999999999999999e-2" height="1.999999999999999e-2" x="8.27290171093137e-2" y="8.357299527616259e-2" /><rect width="1.9999999999999997e-2" height="2.0000000000000018e-2" x="5.8715614191229955e-2" y="0.15922933535656403" /><rect width="1.999999999999999e-2" height="2.0000000000000004e-2" x="9.408627901634982e-2" y="-1.7835479494923805e-2" /><rect width="2.0000000000000018e-2" height="2.0000000000000004e-2" x="0.13598168019602686" y="-3.925891599163111e-2" /><rect width="2.0000000000000018e-2" height="1.999999999999999e-2" x="0.1373733189280285" y="8.089689017633163e-2" /><rect width="2.0000000000000018e-2" height="1.999999999999999e-2" x="0.13557878423763736" y="9.094004535967333e-2" /><rect width="2.0000000000000018e-2" height="1.999999999999999e-2" x="0.1352048420699684" y="8.67775171570009e-2" /><rect width="2.0000000000000018e-2" height="2.0000000000000004e-2" x="0.15777437728024868" y="1.7963965096961527e-2" /><rect width="2.0000000000000018e-2" height="1.9999999999999997e-2" x="0.16558859150046612" y="6.124940675057489e-2" /><rect width="2.0000000000000018e-2" height="1.999999999999999e-2" x="0.16138142364324748" y="9.724640619916526e-2" /><rect width="2.0000000000000018e-2" height="2.0000000000000004e-2" x="0.14921043704717996" y="0.12140488877063861" /><rect width="2.0000000000000018e-2" height="1.999999999999999e-2" x="0.15626839954023586" y="6.42163189471014e-2" /><rect width="2.0000000000000018e-2" height="1.999999999999999e-2" x="0.15571778870383524" y="8.657344457101014e-2" /><rect width="2.0000000000000018e-2" height="1.999999999999999e-2" x="0.154128669550595" y="8.980022116147558e-2" /><rect width="2.0000000000000018e-2" height="2.0000000000000018e-2" x="0.13612821221600746" y="0.13907549928432356" /><rect width="2.0000000000000018e-2" height="1.999999999999999e-2" x="0.13442174165949905" y="9.096988703041949e-2" /><rect width="1.999999999999999e-2" height="2.0000000000000018e-2" x="0.10480588152545124" y="0.17451905198447365" /><rect width="2.0000000000000004e-2" height="2.0000000000000004e-2" x="0.1242572609617555" y="2.8604608526290883e-2" /><rect width="2.0000000000000004e-2" height="2.0000000000000004e-2" x="0.11472173066414505" y="0.11431785295664644" /><rect width="1.999999999999999e-2" height="2.0000000000000018e-2" x="9.574535422369114e-2" y="0.14330505549768446" /><rect width="2.0000000000000004e-2" height="2.0000000000000004e-2" x="0.11155718538371286" y="3.965193496541881e-2" /><rect width="1.999999999999999e-2" height="2.0000000000000018e-2" x="6.915349844181863e-2" y="0.2133395317734363" /><rect width="2.0000000000000004e-2" height="2.0000000000000018e-2" x="8.311893041872862e-3" y="0.2706534701923056" /><rect width="2.0000000000000004e-2" height="2.0000000000000004e-2" x="3.486583964070023e-2" y="1.0599550721358772e-2" /><rect width="1.999999999999999e-2" height="2.0000000000000004e-2" x="8.13800445463937e-2" y="-5.1167234868318416e-2" /><rect width="1.999999999999999e-2" height="2.0000000000000018e-2" x="6.529446313045296e-2" y="0.13488166323585316" /><rect width="2.0000000000000004e-2" height="2.0000000000000018e-2" x="1.2318767498309966e-2" y="0.24683047440489786" /><rect width="1.9999999999999997e-2" height="2.0000000000000004e-2" x="4.254747037049545e-2" y="-6.30487932398496e-4" /><rect width="1.999999999999999e-2" height="2.0000000000000004e-2" x="6.321652139614221e-2" y="2.6047707281926354e-2" /><rect width="1.999999999999999e-2" height="2.0000000000000004e-2" x="9.866322925473271e-2" y="-1.8795349242818442e-2" /><rect width="1.999999999999999e-2" height="1.999999999999999e-2" x="9.278903520728977e-2" y="0.10387959270755183" /><rect width="2.0000000000000004e-2" height="2.0e-2" x="0.12481167985271537" y="-9.063326682956998e-3" /><rect width="2.0000000000000004e-2" height="2.0000000000000004e-2" x="0.11664742730905366" y="0.11001425730266957" /><rect width="2.0000000000000004e-2" height="1.9999999999999997e-2" x="0.12461491609977939" y="6.241025556149649e-2" /><rect width="2.0000000000000004e-2" height="2.0000000000000018e-2" x="0.11014076271615549" y="0.1292697884982379" /><rect width="2.0000000000000018e-2" height="2.0000000000000004e-2" x="0.13183431793280287" y="2.1519934893039057e-2" /><rect width="2.0000000000000004e-2" height="2.0000000000000018e-2" x="0.11840019573911677" y="0.12574945204784083" /><rect width="2.0000000000000018e-2" height="1.9999999999999997e-2" x="0.12665434364308092" y="6.1569606004126205e-2" /><rect width="2.0000000000000018e-2" height="1.999999999999999e-2" x="0.1316475815125241" y="7.08138627325653e-2" /><rect width="2.0000000000000018e-2" height="1.9999999999999997e-2" x="0.14375982290285239" y="4.935591869876394e-2" /><rect width="2.0000000000000018e-2" height="2.0000000000000004e-2" x="0.16072786855630383" y="3.4341951137379485e-2" /><rect width="2.0000000000000018e-2" height="1.999999999999999e-2" x="0.1561693420021184" y="9.832687873122738e-2" /><rect width="2.0000000000000018e-2" height="1.9999999999999997e-2" x="0.16535849022417748" y="5.7519513919810424e-2" /><rect width="2.0000000000000018e-2" height="2.0000000000000004e-2" x="0.153467908246272" y="0.12027375899775657" /><rect width="2.0000000000000018e-2" height="2.0e-2" x="0.18395285824106133" y="-6.158039571796161e-3" /><rect width="2.0000000000000018e-2" height="1.9999999999999997e-2" x="0.19422181164392704" y="5.3026948211678644e-2" /><rect width="2.0000000000000018e-2" height="1.999999999999999e-2" x="0.18817692656741702" y="0.10186354087999767" /><rect width="2.0000000000000018e-2" height="1.999999999999999e-2" x="0.18856078586949032" y="8.297768329262568e-2" /><rect width="2.0000000000000018e-2" height="1.999999999999999e-2" x="0.19566853759437708" y="6.27364478418413e-2" /><rect width="2.0000000000000018e-2" height="1.999999999999999e-2" x="0.20211529184180732" y="6.442595322258972e-2" /><rect width="2.0000000000000018e-2" height="2.0000000000000004e-2" x="0.19341060393520715" y="0.10964350079001685" /><rect width="2.0000000000000018e-2" height="1.999999999999999e-2" x="0.19662605172163528" y="7.436612017017992e-2" /><rect width="2.0000000000000018e-2" height="1.999999999999999e-2" x="0.19691838810505924" y="8.288709964394549e-2" /><rect width="2.0000000000000018e-2" height="1.999999999999999e-2" x="0.1976377416489945" y="8.163308558820072e-2" /><rect width="2.0000000000000018e-2" height="2.0000000000000004e-2" x="0.221139241868609" y="1.3340395559203974e-2" /><rect width="2.0000000000000018e-2" height="1.999999999999999e-2" x="0.22041681758431442" y="8.496902162967503e-2" /><rect width="2.0000000000000018e-2" height="1.999999999999999e-2" x="0.2161323672273876" y="9.59275893074731e-2" /><rect width="2.0000000000000018e-2" height="2.0000000000000018e-2" x="0.20132243503966218" y="0.12763224811036444" /><rect width="2.0000000000000018e-2" height="2.0000000000000004e-2" x="0.19397987941322514" y="0.10584027918621021" /><rect width="2.0000000000000018e-2" height="1.999999999999999e-2" x="0.19921664609002077" y="6.827463623598802e-2" /><rect width="2.0000000000000018e-2" height="2.0000000000000004e-2" x="0.2220599662839816" y="1.5208010249672452e-2" /><rect width="2.0000000000000018e-2" height="1.999999999999999e-2" x="0.22697343951422244" y="6.80678348007558e-2" /><rect width="2.0000000000000018e-2" height="1.9999999999999997e-2" x="0.2384915444792023" y="4.8342841896938445e-2" /><rect width="2.0000000000000018e-2" height="2.0000000000000018e-2" x="0.2225386423144019" y="0.1301920458865874" /><rect width="2.0000000000000018e-2" height="2.0000000000000018e-2" x="0.19133506439418035" y="0.17668437112151125" /><rect width="2.0000000000000018e-2" height="2.0000000000000018e-2" x="0.16723215706827022" y="0.15660245335514678" /><rect width="2.0000000000000018e-2" height="2.0000000000000004e-2" x="0.18658353768240687" y="2.6964718994004884e-2" /><rect width="2.0000000000000018e-2" height="1.999999999999999e-2" x="0.18953732719996375" y="7.50082498937419e-2" /><rect width="2.0000000000000018e-2" height="2.0000000000000004e-2" x="0.217866315502951" y="-9.416992967055584e-4" /><rect width="2.0000000000000018e-2" height="2.0000000000000004e-2" x="0.20490458427854275" y="0.1216771100974139" /><rect width="2.0000000000000018e-2" height="1.999999999999999e-2" x="0.19914235071576414" y="0.10097556741024084" /><rect width="2.0000000000000018e-2" height="1.9999999999999997e-2" x="0.20676077568792328" y="6.096102575548585e-2" /><rect width="2.0000000000000018e-2" height="2.0000000000000004e-2" x="0.23305480912796517" y="4.613891452437966e-3" /><rect width="2.0000000000000018e-2" height="1.999999999999999e-2" x="0.2307677391651095" y="8.927336021811345e-2" /><rect width="2.0000000000000018e-2" height="2.0000000000000004e-2" x="0.25214546365930113" y="1.877709662520278e-2" /><rect width="2.0000000000000018e-2" height="1.999999999999999e-2" x="0.25056758372448673" y="8.664695900315418e-2" /><rect width="2.0000000000000018e-2" height="1.999999999999999e-2" x="0.24651689349060835" y="9.432385978170711e-2" /><rect width="2.0000000000000018e-2" height="1.9999999999999997e-2" x="0.2588223106573937" y="4.5506701864793504e-2" /><rect width="2.0000000000000018e-2" height="2.0000000000000004e-2" x="0.2725713410252346" y="4.0674088776693935e-2" /><rect width="2.0000000000000018e-2" height="1.999999999999999e-2" x="0.2725914485214994" y="8.134190636942769e-2" /><rect width="2.0000000000000018e-2" height="1.999999999999999e-2" x="0.2691037865711655" y="9.195456704229339e-2" /><rect width="2.0000000000000018e-2" height="2.0000000000000004e-2" x="0.28341342069525066" y="3.884990787063792e-2" /><rect width="2.0000000000000018e-2" height="1.999999999999999e-2" x="0.2805447756618603" y="8.965964871659478e-2" /><rect width="2.0000000000000018e-2" height="2.0000000000000018e-2" x="0.2582555638865828" y="0.1479753792711342" /><rect width="2.0000000000000018e-2" height="1.9999999999999997e-2" x="0.2654662358190272" y="6.05839682058168e-2" /><rect width="2.0000000000000018e-2" height="2.0000000000000004e-2" x="0.29056696447702046" y="6.561584632032222e-3" /><rect width="2.0000000000000018e-2" height="2.0000000000000018e-2" x="0.2637936219208249" y="0.16084755076695284" /><rect width="2.0000000000000018e-2" height="1.9999999999999997e-2" x="0.27291792398448" y="5.4729611224435155e-2" /><rect width="2.0000000000000018e-2" height="2.0000000000000004e-2" x="0.26067382257423155" y="0.11807111539991517" /><rect width="2.0000000000000018e-2" height="2.0000000000000004e-2" x="0.27433759956515136" y="4.1096035483883304e-2" /><rect width="2.0000000000000018e-2" height="2.0000000000000004e-2" x="0.2936165032752508" y="2.366803416589803e-2" /><rect width="2.0000000000000018e-2" height="2.0000000000000004e-2" x="0.2809585194401568" y="0.11859167405158062" /><rect width="2.0000000000000018e-2" height="2.0000000000000004e-2" x="0.30131664177796436" y="2.0481041139295393e-2" /><rect width="2.0000000000000018e-2" height="2.0000000000000004e-2" x="0.293072951777238" y="0.1051559632285153" /><rect width="2.0000000000000018e-2" height="1.999999999999999e-2" x="0.29630203687233914" y="7.131583511078406e-2" /><rect width="2.0000000000000018e-2" height="2.0000000000000004e-2" x="0.321088656642728" y="6.683170695956817e-3" /><rect width="2.0000000000000018e-2" height="1.9999999999999997e-2" x="0.33062214034623094" y="5.145232161711239e-2" /><rect width="2.0000000000000018e-2" height="2.0000000000000004e-2" x="0.3182880549393551" y="0.11655435229411716" /><rect width="2.0000000000000018e-2" height="1.999999999999999e-2" x="0.31598366445308157" y="8.710995129193545e-2" /><rect width="2.0000000000000018e-2" height="1.999999999999999e-2" x="0.3165319652375147" y="7.859682338648745e-2" /><rect width="2.0000000000000018e-2" height="2.0000000000000018e-2" x="0.28286000309766557" y="0.1808318708124424" /><rect width="2.0000000000000018e-2" height="2.0000000000000018e-2" x="0.22706416908793625" y="0.24855684663471111" /><rect width="2.0000000000000018e-2" height="2.0e-2" x="0.2582745258028788" y="-1.0031247803288226e-2" /><rect width="2.0000000000000018e-2" height="1.999999999999999e-2" x="0.25258665244926937" y="9.867141473310322e-2" /><rect width="2.0000000000000018e-2" height="1.9999999999999997e-2" x="0.26042195756695186" y="5.870582964069305e-2" /><rect width="2.0000000000000018e-2" height="2.0000000000000018e-2" x="0.19807634023720366" y="0.268642334541245" /><rect width="2.0000000000000018e-2" height="2.0000000000000004e-2" x="0.22035001797188214" y="1.771825272209466e-2" /><rect width="2.0000000000000018e-2" height="2.0000000000000004e-2" x="0.26755189736595164" y="-5.869239500788025e-2" /><rect width="2.0000000000000018e-2" height="2.0000000000000004e-2" x="0.30196272614023356" y="-2.1878153185893916e-2" /><rect width="2.0000000000000018e-2" height="1.9999999999999997e-2" x="0.3098317482537032" y="5.679766233301526e-2" /><rect width="2.0000000000000018e-2" height="2.0000000000000018e-2" x="0.2885004225765281" y="0.14415403544698763" /><rect width="2.0000000000000018e-2" height="2.0000000000000004e-2" x="0.30996157677510694" y="1.7004370165164102e-2" /><rect width="2.0000000000000018e-2" height="1.999999999999999e-2" x="0.3123333941385962" y="7.312895221483341e-2" /><rect width="2.0000000000000018e-2" height="2.0000000000000004e-2" x="0.33063151154007375" y="2.5581944931385055e-2" /><rect width="2.0000000000000018e-2" height="2.0000000000000004e-2" x="0.3217113072788921" y="0.10631695693718592" /><rect width="2.0000000000000018e-2" height="1.999999999999999e-2" x="0.3245652262499551" y="7.158198548783158e-2" /><rect width="2.0000000000000018e-2" height="2.0000000000000004e-2" x="0.3114224559145854" y="0.11924166312180053" /><rect width="2.0000000000000018e-2" height="1.9999999999999997e-2" x="0.32392832905318303" y="4.3053279878321866e-2" /><rect width="2.0000000000000018e-2" height="2.0000000000000018e-2" x="0.30776486406808223" y="0.1282273229054801" /><rect width="2.0000000000000018e-2" height="2.0000000000000018e-2" x="0.26930069173350824" y="0.19573741583090004" /></g><g /></svg>