<svg viewBox="-1.1758928118201537 -0.6457499999999999 2.7226428118201538 1.5057659178324474" xmlns="http://www.w3.org/2000/svg" xmlns:xlink="http://www.w3.org/1999/xlink" version="1.1" width="300.0" height="200.0"><g stroke-width="0.0" stroke="none" fill="#000000" transform="translate(-8.419640591007704e-2, -0.57175)" fill-opacity="1.0" font-size="8.0e-2" text-anchor="middle"><text transform="rotate(0.0, 0.0, -0.0)" x="0.0" y="-0.0">moving std dev return</text></g><g stroke-width="0.0" stroke="#000000" fill="#666666" fill-opacity="3.0e-2" stroke-opacity="0.0"><rect width="1.9999999999999998" height="1.0" x="-1.0" y="-0.5" /></g><g stroke-width="5.0e-3" stroke="#A8E5EE" fill="none" stroke-opacity="0.3"><polyline points="-1.0,0.505 -1.0,-0.505" /></g><g stroke-width="5.0e-3" stroke="#A8E5EE" fill="none" stroke-opacity="0.3"><polyline points="-0.9118236472945892,0.505 -0.9118236472945892,-0.505" /></g><g stroke-width="5.0e-3" stroke="#A8E5EE" fill="none" stroke-opacity="0.3"><polyline points="-0.6553106212424851,0.505 -0.6553106212424851,-0.505" /></g><g stroke-width="5.0e-3" stroke="#A8E5EE" fill="none" stroke-opacity="0.3"><polyline points="-0.40280561122244496,0.505 -0.40280561122244496,-0.505" /></g><g stroke-width="5.0e-3" stroke="#A8E5EE" fill="none" stroke-opacity="0.3"><polyline points="-0.15030060120240496,0.505 -0.15030060120240496,-0.505" /></g><g stroke-width="5.0e-3" stroke="#A8E5EE" fill="none" stroke-opacity="0.3"><polyline points="9.418837675350678e-2,0.505 9.418837675350678e-2,-0.505" /></g><g stroke-width="5.0e-3" stroke="#A8E5EE" fill="none" stroke-opacity="0.3"><polyline points="0.3466933867735469,0.505 0.3466933867735469,-0.505" /></g><g stroke-width="5.0e-3" stroke="#A8E5EE" fill="none" stroke-opacity="0.3"><polyline points="0.6032064128256511,0.505 0.6032064128256511,-0.505" /></g><g stroke-width="5.0e-3" stroke="#A8E5EE" fill="none" stroke-opacity="0.3"><polyline points="0.8597194388777554,0.505 0.8597194388777554,-0.505" /></g><g stroke-width="5.0e-3" stroke="#A8E5EE" fill="none" stroke-opacity="0.3"><polyline points="0.9999999999999998,0.505 0.9999999999999998,-0.505" /></g><g stroke-width="0.0" stroke="none" fill="#666666" fill-opacity="1.0" font-size="5.0e-2" text-anchor="end"><text transform="rotate(-45.0, -1.0, 0.647)" x="-1.0" y="0.647">27 Feb 2018</text></g><g stroke-width="0.0" stroke="none" fill="#666666" fill-opacity="1.0" font-size="5.0e-2" text-anchor="end"><text transform="rotate(-45.0, -0.9118236472945892, 0.647)" x="-0.9118236472945892" y="0.647">31 Mar 2018</text></g><g stroke-width="0.0" stroke="none" fill="#666666" fill-opacity="1.0" font-size="5.0e-2" text-anchor="end"><text transform="rotate(-45.0, -0.6553106212424851, 0.647)" x="-0.6553106212424851" y="0.647">30 Jun 2018</text></g><g stroke-width="0.0" stroke="none" fill="#666666" fill-opacity="1.0" font-size="5.0e-2" text-anchor="end"><text transform="rotate(-45.0, -0.40280561122244496, 0.647)" x="-0.40280561122244496" y="0.647">30 Sep 2018</text></g><g stroke-width="0.0" stroke="none" fill="#666666" fill-opacity="1.0" font-size="5.0e-2" text-anchor="end"><text transform="rotate(-45.0, -0.15030060120240496, 0.647)" x="-0.15030060120240496" y="0.647">31 Dec 2018</text></g><g stroke-width="0.0" stroke="none" fill="#666666" fill-opacity="1.0" font-size="5.0e-2" text-anchor="end"><text transform="rotate(-45.0, 9.418837675350678e-2, 0.647)" x="9.418837675350678e-2" y="0.647">31 Mar 2019</text></g><g stroke-width="0.0" stroke="none" fill="#666666" fill-opacity="1.0" font-size="5.0e-2" text-anchor="end"><text transform="rotate(-45.0, 0.3466933867735469, 0.647)" x="0.3466933867735469" y="0.647">30 Jun 2019</text></g><g stroke-width="0.0" stroke="none" fill="#666666" fill-opacity="1.0" font-size="5.0e-2" text-anchor="end"><text transform="rotate(-45.0, 0.6032064128256511, 0.647)" x="0.6032064128256511" y="0.647">30 Sep 2019</text></g><g stroke-width="0.0" stroke="none" fill="#666666" fill-opacity="1.0" font-size="5.0e-2" text-anchor="end"><text transform="rotate(-45.0, 0.8597194388777554, 0.647)" x="0.8597194388777554" y="0.647">31 Dec 2019</text></g><g stroke-width="0.0" stroke="none" fill="#666666" fill-opacity="1.0" font-size="5.0e-2" text-anchor="end"><text transform="rotate(-45.0, 0.9999999999999998, 0.647)" x="0.9999999999999998" y="0.647">21 Feb 2020</text></g><g stroke-width="0.0" stroke="#2C429D" fill="#5F0391" fill-opacity="1.0" stroke-opacity="0.4"><line stroke-width="5.0e-3" x1="-1.0" y1="0.58075" x2="-1.0" y2="0.55075" /><line stroke-width="5.0e-3" x1="-0.9118236472945892" y1="0.58075" x2="-0.9118236472945892" y2="0.55075" /><line stroke-width="5.0e-3" x1="-0.6553106212424851" y1="0.58075" x2="-0.6553106212424851" y2="0.55075" /><line stroke-width="5.0e-3" x1="-0.40280561122244496" y1="0.58075" x2="-0.40280561122244496" y2="0.55075" /><line stroke-width="5.0e-3" x1="-0.15030060120240496" y1="0.58075" x2="-0.15030060120240496" y2="0.55075" /><line stroke-width="5.0e-3" x1="9.418837675350678e-2" y1="0.58075" x2="9.418837675350678e-2" y2="0.55075" /><line stroke-width="5.0e-3" x1="0.3466933867735469" y1="0.58075" x2="0.3466933867735469" y2="0.55075" /><line stroke-width="5.0e-3" x1="0.6032064128256511" y1="0.58075" x2="0.6032064128256511" y2="0.55075" /><line stroke-width="5.0e-3" x1="0.8597194388777554" y1="0.58075" x2="0.8597194388777554" y2="0.55075" /><line stroke-width="5.0e-3" x1="0.9999999999999998" y1="0.58075" x2="0.9999999999999998" y2="0.55075" /></g><g stroke-width="0.0" stroke="#666666" fill="#5F0391" fill-opacity="0.5" stroke-opacity="0.0"><rect width="1.9999999999999998" height="5.0000000000000044e-3" x="-1.0" y="0.55075" /></g><g stroke-width="5.0e-3" stroke="#A8E5EE" fill="none" stroke-opacity="0.3"><polyline points="-1.005,0.5 1.0049999999999997,0.5" /></g><g stroke-width="5.0e-3" stroke="#A8E5EE" fill="none" stroke-opacity="0.3"><polyline points="-1.005,0.25 1.0049999999999997,0.25" /></g><g stroke-width="5.0e-3" stroke="#A8E5EE" fill="none" stroke-opacity="0.3"><polyline points="-1.005,-0.0 1.0049999999999997,-0.0" /></g><g stroke-width="5.0e-3" stroke="#A8E5EE" fill="none" stroke-opacity="0.3"><polyline points="-1.005,-0.25 1.0049999999999997,-0.25" /></g><g stroke-width="5.0e-3" stroke="#A8E5EE" fill="none" stroke-opacity="0.3"><polyline points="-1.005,-0.5 1.0049999999999997,-0.5" /></g><g stroke-width="0.0" stroke="none" fill="#666666" fill-opacity="1.0" font-size="5.0e-2" text-anchor="end"><text x="-1.0585749999999998" y="0.5145">0.0%</text></g><g stroke-width="0.0" stroke="none" fill="#666666" fill-opacity="1.0" font-size="5.0e-2" text-anchor="end"><text x="-1.0585749999999998" y="0.2645">0.5%</text></g><g stroke-width="0.0" stroke="none" fill="#666666" fill-opacity="1.0" font-size="5.0e-2" text-anchor="end"><text x="-1.0585749999999998" y="1.4499999999999999e-2">1.0%</text></g><g stroke-width="0.0" stroke="none" fill="#666666" fill-opacity="1.0" font-size="5.0e-2" text-anchor="end"><text x="-1.0585749999999998" y="-0.2355">1.5%</text></g><g stroke-width="0.0" stroke="none" fill="#666666" fill-opacity="1.0" font-size="5.0e-2" text-anchor="end"><text x="-1.0585749999999998" y="-0.4855">2.0%</text></g><g stroke-width="0.0" stroke="#2C429D" fill="#5F0391" fill-opacity="1.0" stroke-opacity="0.4"><line stroke-width="5.0e-3" transform="rotate(-90.0, -1.0285, 0.5)" x1="-1.0285" y1="0.515" x2="-1.0285" y2="0.485" /><line stroke-width="5.0e-3" transform="rotate(-90.0, -1.0285, 0.25)" x1="-1.0285" y1="0.265" x2="-1.0285" y2="0.235" /><line stroke-width="5.0e-3" transform="rotate(-90.0, -1.0285, -0.0)" x1="-1.0285" y1="1.5e-2" x2="-1.0285" y2="-1.5e-2" /><line stroke-width="5.0e-3" transform="rotate(-90.0, -1.0285, -0.25)" x1="-1.0285" y1="-0.235" x2="-1.0285" y2="-0.265" /><line stroke-width="5.0e-3" transform="rotate(-90.0, -1.0285, -0.5)" x1="-1.0285" y1="-0.485" x2="-1.0285" y2="-0.515" /></g><g stroke-width="0.0" stroke="#666666" fill="#5F0391" fill-opacity="0.5" stroke-opacity="0.0"><rect width="4.999999999999893e-3" height="1.0" x="-1.0185" y="-0.5" /></g><g stroke-width="2.0e-3" stroke="#AC0505" fill="none" stroke-opacity="0.5"><polyline points="-1.0,0.5 0.9999999999999998,0.5" /></g><g stroke-width="7.0e-3" stroke="#4B2282" fill="none" stroke-opacity="0.5"><polyline points="-1.0,-0.13628513932339903 -0.9959919839679359,-0.132865273623459 -0.9919839679358717,-0.1335139408131023 -0.9879759519038076,-0.12079484932081896 -0.9839679358717435,-0.11792603002795354 -0.9799599198396793,-0.10294205541654611 -0.9759519038076152,-8.771875504650661e-2 -0.9719438877755511,-7.476273313938764e-2 -0.9679358717434869,-8.961642181669638e-2 -0.9639278557114228,-7.531892173649846e-2 -0.9599198396793587,-6.661231996516137e-2 -0.9559118236472945,-5.671098248269135e-2 -0.9519038076152304,-4.276258178862835e-2 -0.9478957915831663,-2.9233204493586573e-2 -0.9438877755511023,-4.012402951659422e-2 -0.9398797595190381,-2.6823086767534088e-2 -0.935871743486974,-1.3777022705927733e-2 -0.9318637274549099,-7.087340122930397e-2 -0.9278557114228457,-9.600367679304533e-2 -0.9238476953907816,-0.16321726823963045 -0.9198396793587175,-0.17045838760781262 -0.9158316633266533,-0.15357340559118227 -0.9118236472945892,-0.1594405796299565 -0.9078156312625251,-0.18375878438454885 -0.9038076152304609,-0.18566235023955935 -0.8997995991983968,-0.18318828696293 -0.8957915831663327,-0.171162359432958 -0.8917835671342685,-0.1955357393804208 -0.8877755511022044,-0.18002023508474263 -0.8837675350701403,-0.1909345835216062 -0.8797595190380761,-0.1757436821555407 -0.875751503006012,-0.16573126524630666 -0.8717434869739479,-0.1495194886672797 -0.8677354709418837,-0.13972628612823979 -0.8637274549098196,-0.13404009611614243 -0.8597194388777555,-0.11799181707244544 -0.8557114228456915,-0.10628908055831787 -0.8517034068136273,-9.875611724170541e-2 -0.8476953907815632,-8.360026402020071e-2 -0.8436873747494991,-8.704202588241772e-2 -0.8396793587174349,-7.290900936965561e-2 -0.8356713426853708,-7.127822739729894e-2 -0.8316633266533067,-5.697889693944502e-2 -0.8276553106212425,-5.0092038149950446e-2 -0.8236472945891784,-3.717565720246174e-2 -0.8196392785571143,-2.895212582375617e-2 -0.8156312625250501,-1.584736072320425e-2 -0.811623246492986,-2.3810957062669003e-2 -0.8076152304609219,-1.1994894035243564e-2 -0.8036072144288577,9.533300523522636e-4 -0.7995991983967936,2.568866272623427e-3 -0.7955911823647295,5.83692599335639e-3 -0.7915831663326653,1.8287334527800125e-2 -0.7875751503006012,3.048176947130088e-2 -0.7835671342685371,3.4363065982011e-2 -0.779559118236473,4.4623550417405955e-2 -0.7755511022044088,5.578663549083729e-2 -0.7715430861723447,6.549449984493261e-2 -0.7675350701402806,7.004547031021235e-2 -0.7635270541082164,7.863544704540543e-2 -0.7595190380761523,8.836289229889638e-2 -0.7555110220440882,9.759194186913978e-2 -0.751503006012024,0.10638919842544159 -0.7474949899799599,9.413418365196635e-2 -0.7434869739478958,8.089974786487286e-2 -0.7394789579158316,8.351408994256415e-2 -0.7354709418837675,7.790651196893222e-2 -0.7314629258517034,8.655761512739324e-2 -0.7274549098196392,9.702065413699779e-2 -0.7234468937875751,9.848844877157514e-2 -0.719438877755511,0.10805851114521714 -0.7154308617234469,0.117391433137844 -0.7114228456913828,0.1270729758972674 -0.7074148296593187,0.13647736921680548 -0.7034068136272545,0.1409776745436735 -0.6993987975951904,0.14971046830233192 -0.6953907815631263,0.15780946092095532 -0.6913827655310621,0.16475474183690375 -0.687374749498998,0.16898074772881672 -0.6833667334669339,0.17712908797342775 -0.6793587174348698,0.17617408124532702 -0.6753507014028056,0.18391043591111245 -0.6713426853707415,0.15529131318998624 -0.6673346693386774,0.16287909895731362 -0.6633266533066133,0.15882015872059058 -0.6593186372745492,0.1593164047568325 -0.6553106212424851,0.16774448881599757 -0.6513026052104209,0.17416022667720332 -0.6472945891783568,0.17798446483805686 -0.6432865731462927,0.1714790582417678 -0.6392785571142285,0.16720485456993933 -0.6352705410821644,0.16342040221815218 -0.6312625250501003,0.17080011862737193 -0.6272545090180361,0.16693232602312108 -0.623246492985972,0.16374300345418918 -0.6192384769539079,0.17225720842423797 -0.6152304609218437,0.17973761025393065 -0.6112224448897796,0.1861396221012333 -0.6072144288577155,0.1938759415455476 -0.6032064128256514,0.1964378279423497 -0.5991983967935872,0.203430440386362 -0.5951903807615231,0.21072701572277253 -0.591182364729459,0.21486630630959624 -0.5871743486973948,0.2087464384015446 -0.5831663326653307,0.21191482181492127 -0.5791583166332666,0.2065535893370929 -0.5751503006012024,0.2050296772573792 -0.5711422845691383,0.20860655320619592 -0.5671342685370742,0.21532635961636065 -0.56312625250501,0.21866291953332023 -0.5591182364729459,0.22271971841509247 -0.5551102204408818,0.2283886159023139 -0.5511022044088176,0.23465765856428145 -0.5470941883767535,0.24084836761554174 -0.5430861723446894,0.2457998048359118 -0.5390781563126252,0.23666266792651014 -0.5350701402805611,0.23837115773760786 -0.531062124248497,0.23684654008929473 -0.5270541082164328,0.2279017238246328 -0.5230460921843687,0.2221576362668251 -0.5190380761523046,0.22765703741022036 -0.5150300601202404,0.2339627139998096 -0.5110220440881764,0.24037740144464942 -0.5070140280561123,0.2465311316411949 -0.5030060120240482,0.2513715791776798 -0.498997995991984,0.2505354313425249 -0.4949899799599199,0.24636269686746004 -0.49098196392785576,0.2525055778041405 -0.4869739478957916,0.25407202617571756 -0.4829659318637275,0.25167360486759527 -0.47895791583166336,0.2576746139977477 -0.47494989979959923,0.2618230867377549 -0.4709418837675351,0.2641356106365864 -0.46693386773547096,0.26496186004945665 -0.46292585170340683,0.2688598224286934 -0.4589178356713427,0.2741726987091282 -0.45490981963927857,0.2771504981593389 -0.45090180360721444,0.2827617664763785 -0.4468937875751503,0.2824353904163912 -0.44288577154308617,0.2878322025404433 -0.43887775551102204,0.2815445879792815 -0.434869739478958,0.2807420191338298 -0.4308617234468939,0.28623522126467055 -0.42685370741482975,0.27814704529392237 -0.4228456913827656,0.28311872843644137 -0.4188376753507015,0.2827198714704275 -0.41482965931863736,0.2869117626923243 -0.4108216432865732,0.2876806560826678 -0.4068136272545091,0.2916586065869191 -0.40280561122244496,0.2968043851156464 -0.3987975951903808,0.2992535079382461 -0.3947895791583167,0.3039195900024184 -0.39078156312625256,0.30888444528290304 -0.38677354709418843,0.28988662972913415 -0.3827655310621243,0.2856292297403499 -0.37875751503006017,0.29101714654290217 -0.37474949899799603,0.29575395865182963 -0.3707414829659319,8.601694954993744e-2 -0.36673346693386777,4.640560597954113e-2 -0.36272545090180364,2.1360493433263128e-2 -0.3587174348697395,3.140688881748677e-2 -0.35470941883767537,-2.2835277236821105e-2 -0.35070140280561124,-9.64813951336485e-3 -0.3466933867735471,-1.842123169285248e-2 -0.342685370741483,-5.46447988687504e-3 -0.33867735470941884,6.386899223805365e-3 -0.3346693386773547,1.7028339427112626e-2 -0.3306613226452907,-7.011253538518425e-2 -0.32665330661322656,-0.10418880591252455 -0.3226452905811624,-0.11190016057055463 -0.3186372745490983,-9.769033988687537e-2 -0.31462925851703416,-0.11721655652631546 -0.31062124248497003,-0.1181057337876461 -0.3066132264529059,-0.11667705500553216 -0.30260521042084176,-0.10389373305350436 -0.29859719438877763,-9.328908504339994e-2 -0.2945891783567135,-8.348212754520223e-2 -0.29058116232464937,-0.11521602539299935 -0.28657314629258523,-0.10055435380758126 -0.2825651302605211,-9.466112514682412e-2 -0.27855711422845697,-0.11844527874996702 -0.27454909819639284,-0.10280092521793593 -0.2705410821643287,-9.177144848809815e-2 -0.2665330661322646,-9.136301432559324e-2 -0.26252505010020044,-7.735202974154709e-2 -0.2585170340681363,-8.944434665877876e-2 -0.2545090180360722,-0.10307747088939778 -0.25050100200400804,-9.071237182446201e-2 -0.2464929859719439,-7.785271005593941e-2 -0.24248496993987978,-9.533666601577961e-2 -0.23847695390781565,-8.247965502364718e-2 -0.23446893787575152,-0.12454743333560536 -0.2304609218436875,-0.10920958258987101 -0.22645290581162336,-0.10050882283481477 -0.22244488977955923,-9.650263999864284e-2 -0.2184368737474951,-0.187976630101225 -0.21442885771543096,-0.17059863888186833 -0.21042084168336683,-0.19896609887812966 -0.2064128256513027,-0.18250304715958832 -0.20240480961923857,-0.1654121713648633 -0.19839679358717444,-0.1532259603890357 -0.1943887775551103,-0.13681727677131983 -0.19038076152304617,-0.15076418060409902 -0.18637274549098204,-0.16644250689787465 -0.1823647294589179,-0.15053227619297727 -0.17835671342685377,-0.14856101028158686 -0.17434869739478964,-0.14612860767806768 -0.1703406813627255,-0.1551227561519396 -0.16633266533066138,-0.18367306702690844 -0.16232464929859725,-0.3932804787799551 -0.1583166332665331,-0.38040423244747545 -0.15430861723446898,-0.3582929709883512 -0.15030060120240485,-0.3454732644505435 -0.14629258517034072,-0.3249400888730669 -0.14228456913827658,-0.34229211212907584 -0.13827655310621245,-0.41441053519581583 -0.13426853707414832,-0.395870878645628 -0.1302605210420842,-0.3807636434223456 -0.12625250501002017,-0.359855969928508 -0.12224448897795603,-0.339637429886154 -0.1182364729458919,-0.31838035205776627 -0.11422845691382777,-0.2997615133549034 -0.11022044088176364,-0.28848123515067536 -0.1062124248496995,-0.26879351088070713 -0.10220440881763537,-0.25335861634301127 -9.819639278557124e-2,-0.24645452636866583 -9.418837675350711e-2,-0.24727921094470695 -9.018036072144298e-2,-0.2285636523323299 -8.617234468937884e-2,-0.21015518100812725 -8.216432865731471e-2,-0.19727826079791833 -7.815631262525058e-2,-0.18664530756787556 -7.414829659318645e-2,-0.16965722846021902 -7.014028056112231e-2,-0.17252559369742548 -6.613226452905818e-2,-0.16025566759272936 -6.212424849699405e-2,-0.14359149088012302 -5.811623246492992e-2,-0.12978069523084235 -5.4108216432865786e-2,-0.11460127515511553 -5.010020040080165e-2,-0.10082547108871165 -4.609218436873752e-2,-9.821806375337883e-2 -4.208416833667339e-2,-8.310422285267527e-2 -3.8076152304609256e-2,-6.836697594648766e-2 -3.4068136272545124e-2,-6.824752754918917e-2 -3.0060120240480992e-2,-5.402516760998566e-2 -2.605210420841686e-2,-4.2211445384479296e-2 -2.204408817635284e-2,-3.792263680500352e-2 -1.8036072144288706e-2,-2.433961812346397e-2 -1.4028056112224574e-2,-1.1071428916910153e-2 -1.0020040080160442e-2,-1.8065796954822577e-3 -6.012024048096309e-3,8.294978441457712e-3 -2.004008016032177e-3,2.0674911363422532e-2 2.004008016031955e-3,3.1860189503124525e-2 6.012024048096087e-3,4.299315795507197e-2 1.002004008016022e-2,5.1847699915548495e-2 1.4028056112224352e-2,5.9241262313039944e-2 1.8036072144288484e-2,6.605119907243956e-2 2.2044088176352616e-2,7.610029510835625e-2 2.605210420841675e-2,7.802385263705458e-2 3.006012024048088e-2,7.69452567855688e-2 3.406813627254501e-2,8.667624470267865e-2 3.8076152304609145e-2,6.839681266287073e-2 4.208416833667328e-2,7.882072822561248e-2 4.609218436873741e-2,8.469246497288513e-2 5.010020040080154e-2,9.442676589803584e-2 5.4108216432865675e-2,0.10270335116772944 5.811623246492981e-2,0.11202760498517178 6.212424849699394e-2,0.12137183714982586 6.613226452905807e-2,0.12774563414191803 7.01402805611222e-2,0.12272738050376508 7.414829659318634e-2,6.724784956850127e-2 7.815631262525047e-2,7.785722353634966e-2 8.21643286573146e-2,8.248986642192119e-2 8.617234468937873e-2,8.845418944349204e-2 9.018036072144286e-2,9.764485047545779e-2 9.4188376753507e-2,0.10265157492767102 9.819639278557113e-2,9.657452453165238e-2 0.10220440881763526,0.10638511789135724 0.1062124248496994,0.11630075214983254 0.11022044088176353,0.12597945594784565 0.11422845691382766,0.13398646655038354 0.11823647294589179,0.14316585959977818 0.12224448897795592,0.141901075047075 0.12625250501002006,0.15020155523094264 0.13026052104208397,0.15870980773325993 0.1342685370741481,0.16255120928231465 0.13827655310621223,0.17016439849887943 0.14228456913827636,0.17832378772789087 0.1462925851703405,0.18380991582873596 0.15030060120240463,0.19180015718211285 0.15430861723446876,0.19958690483833358 0.1583166332665329,0.1959663823533565 0.16232464929859702,0.20069382635984767 0.16633266533066116,0.20758258643568062 0.1703406813627253,0.2127360995579638 0.17434869739478942,0.21996200344303474 0.17835671342685355,0.22698182268402406 0.18236472945891768,0.2163070634789756 0.18637274549098182,0.22134302176437726 0.19038076152304595,0.2122974920368046 0.19438877755511008,0.21254722750955474 0.1983967935871742,0.15998364479903965 0.20240480961923835,0.16804360939081747 0.20641282565130248,0.17470865572244032 0.2104208416833666,0.18023841169816796 0.21442885771543074,8.947153038776362e-2 0.21843687374749488,8.771929846725585e-2 0.222444889779559,9.196676646239571e-2 0.22645290581162314,8.983716059995539e-2 0.23046092184368727,9.497537879532664e-2 0.2344689378757514,9.876568112489681e-2 0.23847695390781554,9.687237062296461e-2 0.24248496993987967,0.1059312032883894 0.2464929859719438,9.503111170637074e-2 0.25050100200400793,0.1045911240249871 0.25450901803607207,0.10552316427336106 0.2585170340681362,0.11024294356136327 0.26252505010020033,0.11824070371846879 0.26653306613226446,0.10527715605780597 0.2705410821643286,0.11512661613931097 0.2745490981963927,4.85212154321521e-2 0.27855711422845686,4.957009128846834e-2 0.282565130260521,5.5520247413808566e-2 0.2865731462925851,5.225620458392438e-2 0.29058116232464926,6.1350249371772636e-2 0.2945891783567134,7.227766114857365e-2 0.2985971943887775,8.201668195197226e-2 0.30260521042084165,9.0821427222187e-2 0.3066132264529058,0.10034016937453955 0.3106212424849699,0.11044750354496735 0.31462925851703405,0.10782506272355935 0.3186372745490982,0.11721317108022222 0.3226452905811623,0.11629799308519079 0.32665330661322645,0.12470204989427225 0.3306613226452906,0.13254000773749158 0.3346693386773545,0.12281822327216163 0.3386773547094186,0.13172031918226978 0.34268537074148275,0.1394116341362056 0.3466933867735469,0.14448580899354213 0.350701402805611,0.14616765848828278 0.35470941883767515,0.15472792075408648 0.3587174348697393,0.1568283682060117 0.3627254509018034,0.16323374000351032 0.36673346693386755,0.1643127622225667 0.3707414829659317,0.17281214451968568 0.3747494989979958,0.17917246757818245 0.37875751503005994,0.1871618071609989 0.3827655310621241,0.19318654012397785 0.3867735470941882,0.20052980228523287 0.39078156312625234,0.20311748052558531 0.3947895791583165,0.1981908698241629 0.3987975951903806,0.20441773880770042 0.40280561122244474,0.2012569075255496 0.40681362725450887,0.20789739706464982 0.410821643286573,0.20782575855441487 0.41482965931863713,0.2125713450703634 0.41883767535070127,0.21088004223837464 0.4228456913827654,0.20967909827456588 0.42685370741482953,0.2152820631884207 0.43086172344689366,0.2195604610910934 0.4348697394789578,0.19751391030281884 0.4388777555110219,0.18792647044662275 0.44288577154308606,0.18590227325668346 0.4468937875751502,5.409949044052775e-2 0.4509018036072143,3.604813059323847e-2 0.45490981963927846,4.7276494428665716e-2 0.4589178356713426,9.235342414109171e-3 0.4629258517034067,1.6443954618406698e-2 0.46693386773547085,1.1082854253325725e-2 0.470941883767535,-7.723131917343196e-3 0.4749498997995991,-8.996777479998685e-2 0.47895791583166325,-7.683952235785318e-2 0.4829659318637274,-8.814201651226505e-2 0.4869739478957915,-8.98741542778545e-2 0.49098196392785565,-8.127837731779464e-2 0.4949899799599198,-7.442876002512777e-2 0.4989979959919839,-5.99062247333374e-2 0.503006012024048,-0.11599559309755791 0.5070140280561122,-0.11518814089736928 0.5110220440881763,-0.1002015905887742 0.5150300601202404,-9.055416153146845e-2 0.5190380761523046,-9.310460071294724e-2 0.5230460921843687,-7.811293092427962e-2 0.5270541082164328,-6.87424722630553e-2 0.531062124248497,-6.70942604135577e-2 0.5350701402805611,-6.944896037209813e-2 0.539078156312625,-5.503081625000927e-2 0.5430861723446891,-4.110438064783184e-2 0.5470941883767533,-2.7444755041840074e-2 0.5511022044088174,-1.866054659288674e-2 0.5551102204408815,-5.851745324885527e-3 0.5591182364729457,6.464768968961532e-3 0.5631262525050098,1.6645898616286958e-2 0.5671342685370739,2.8562426615517778e-2 0.5711422845691381,4.043318011488617e-2 0.5751503006012022,5.193627817603963e-2 0.5791583166332663,5.8604870963117006e-2 0.5831663326653305,6.969815530237405e-2 0.5871743486973946,6.904925117984578e-2 0.5911823647294587,7.497949512208085e-2 0.5951903807615229,8.452499387397544e-2 0.599198396793587,9.036160549139954e-2 0.6032064128256511,9.706156638386526e-2 0.6072144288577153,8.381976298031174e-2 0.6112224448897794,5.066335138750433e-2 0.6152304609218435,5.081969016267357e-2 0.6192384769539077,3.3150600269197916e-2 0.6232464929859718,4.2366631102595365e-2 0.6272545090180359,2.3254691331530963e-2 0.6312625250501,2.2536416683108573e-2 0.6352705410821642,2.8588195645790737e-2 0.6392785571142283,2.5033427950918896e-2 0.6432865731462925,3.665417380961872e-2 0.6472945891783566,3.6416816851405076e-2 0.6513026052104207,4.7137944367127316e-2 0.6553106212424848,5.800271564055953e-2 0.659318637274549,6.619162289097602e-2 0.6633266533066131,7.158056502769017e-2 0.6673346693386772,7.967633727212986e-2 0.6713426853707414,8.959788174095207e-2 0.6753507014028055,9.9777313036232e-2 0.6793587174348696,0.10827528297047306 0.6833667334669338,0.11489026951209103 0.6873747494989979,0.12400266811570332 0.691382765531062,0.13276035132230313 0.6953907815631262,0.13912663476639403 0.6993987975951903,0.13587835614004684 0.7034068136272544,0.14422174444913882 0.7074148296593186,0.15197689505283873 0.7114228456913827,0.16070716753656678 0.7154308617234468,0.16895928679919575 0.719438877755511,0.17710375032848008 0.7234468937875751,0.18305249915822275 0.7274549098196392,0.1910649986603835 0.7314629258517034,0.19881474694842532 0.7354709418837675,0.20639973540982642 0.7394789579158316,0.2054563426789729 0.7434869739478958,0.21267213273566998 0.7474949899799597,0.21899249175795166 0.7515030060120238,0.2203329870880718 0.7555110220440879,0.22577231874170328 0.7595190380761521,0.23242517649439653 0.7635270541082162,0.23005359633033717 0.7675350701402803,0.2367486943174571 0.7715430861723445,0.24170652127980574 0.7755511022044086,0.24095639096835608 0.7795591182364727,0.2251362013766528 0.7835671342685369,0.22002600502662922 0.787575150300601,0.2197066249335144 0.7915831663326651,0.22667284625092593 0.7955911823647293,0.21854387085874982 0.7995991983967934,0.22161242849333956 0.8036072144288575,0.22773574222244947 0.8076152304609217,0.23369470327276898 0.8116232464929858,0.22761677984941137 0.8156312625250499,0.2341551143454303 0.819639278557114,0.23316883559763713 0.8236472945891782,0.239578322701412 0.8276553106212423,0.24529444737274853 0.8316633266533064,0.24954351557469412 0.8356713426853706,0.25313675094045407 0.8396793587174347,0.25920316950859773 0.8436873747494988,0.2644055687964456 0.847695390781563,0.2671851638865068 0.8517034068136271,0.27229394628608655 0.8557114228456912,0.26356557034179207 0.8597194388777554,0.26886574417444187 0.8637274549098195,0.26231432195451204 0.8677354709418836,0.2491758052911095 0.8717434869739478,0.25432125571602027 0.8757515030060119,0.25617623457544547 0.879759519038076,0.25896619145453265 0.8837675350701402,0.2582001936577956 0.8877755511022043,0.25926687179558683 0.8917835671342684,0.2577400308456302 0.8957915831663326,0.26129471758565836 0.8997995991983967,0.2673105504688964 0.9038076152304608,0.26147212894006844 0.907815631262525,0.26652899419620907 0.9118236472945891,0.2668797689486313 0.9158316633266532,0.27222015377203823 0.9198396793587174,0.2779087706263619 0.9238476953907815,0.2539208866038982 0.9278557114228456,0.1971046270587294 0.9318637274549098,0.18630092322474556 0.9358717434869739,0.19373191282102026 0.939879759519038,0.2002919374232766 0.9438877755511021,0.1440563680949456 0.9478957915831663,0.14391188813193406 0.9519038076152302,0.11803766292436169 0.9559118236472943,0.11140084230312391 0.9599198396793585,0.12070797589510612 0.9639278557114226,0.12255870941550434 0.9679358717434867,0.1261968617600891 0.9719438877755509,0.13565741288568545 0.975951903807615,0.14087437059611113 0.9799599198396791,0.14800184799783123 0.9839679358717432,0.15690507940482845 0.9879759519038074,0.1619481992719009 0.9919839679358715,0.16854732232934683 0.9959919839679356,0.17166449769379122 0.9999999999999998,0.15486046597322595" /></g><g stroke-width="7.0e-3" stroke="#431712" fill="none" stroke-opacity="0.5"><polyline points="-1.0,9.440571940730108e-2 -0.9959919839679359,9.215569363742615e-2 -0.9919839679358717,8.826960508516035e-2 -0.9879759519038076,8.969092003829754e-2 -0.9839679358717435,8.840350505918715e-2 -0.9799599198396793,9.034934222281232e-2 -0.9759519038076152,9.238059621564132e-2 -0.9719438877755511,9.397498691417994e-2 -0.9679358717434869,8.760237237676016e-2 -0.9639278557114228,8.955382413001484e-2 -0.9599198396793587,9.00705899676944e-2 -0.9559118236472945,9.087787114604218e-2 -0.9519038076152304,9.288020523043511e-2 -0.9478957915831663,9.489613445080347e-2 -0.9438877755511023,9.011642880040277e-2 -0.9398797595190381,9.215157366860499e-2 -0.935871743486974,9.404151670244981e-2 -0.9318637274549099,7.586111690494429e-2 -0.9278557114228457,6.472213936838433e-2 -0.9238476953907816,4.67315469482551e-2 -0.9198396793587175,4.047516469000734e-2 -0.9158316633266533,4.254701732123273e-2 -0.9118236472945892,3.9800829390795156e-2 -0.9078156312625251,2.8243397102346246e-2 -0.9038076152304609,2.644219544881221e-2 -0.8997995991983968,2.539663787987817e-2 -0.8957915831663327,2.66255931232256e-2 -0.8917835671342685,1.5915304531587182e-2 -0.8877755511022044,1.807337995418734e-2 -0.8837675350701403,1.3473696305150218e-2 -0.8797595190380761,1.5068720138388336e-2 -0.875751503006012,1.5847587747429448e-2 -0.8717434869739479,1.803053183197717e-2 -0.8677354709418837,1.8862141462623605e-2 -0.8637274549098196,1.85370018805025e-2 -0.8597194388777555,2.09569320372891e-2 -0.8557114228456915,2.238257874608962e-2 -0.8517034068136273,2.270963507033913e-2 -0.8476953907815632,2.5111804334370935e-2 -0.8436873747494991,2.2570573995988108e-2 -0.8396793587174349,2.4897305745700815e-2 -0.8356713426853708,2.453861067075197e-2 -0.8316633266533067,2.6912201170347094e-2 -0.8276553106212425,2.740354755725022e-2 -0.8236472945891784,2.9632583053750938e-2 -0.8196392785571143,3.054087066408101e-2 -0.8156312625250501,3.275456595850135e-2 -0.811623246492986,3.0855133458913997e-2 -0.8076152304609219,3.2937726731832595e-2 -0.8036072144288577,3.528129630172039e-2 -0.7995991983967936,3.525585702911016e-2 -0.7955911823647295,3.542869393391701e-2 -0.7915831663326653,3.7722615459885644e-2 -0.7875751503006012,4.004352236314296e-2 -0.7835671342685371,4.090942712140799e-2 -0.779559118236473,4.2851194905409506e-2 -0.7755511022044088,4.5107609996031306e-2 -0.7715430861723447,4.714411184472855e-2 -0.7675350701402806,4.807614687212153e-2 -0.7635270541082164,4.9996535316735535e-2 -0.7595190380761523,5.20362066526176e-2 -0.7555110220440882,5.4121959129732056e-2 -0.751503006012024,5.6151086110287574e-2 -0.7474949899799599,5.4347764809883625e-2 -0.7434869739478958,5.2331472689831016e-2 -0.7394789579158316,5.3106914627747304e-2 -0.7354709418837675,5.2295718354678444e-2 -0.7314629258517034,5.408871941250731e-2 -0.7274549098196392,5.632958974822433e-2 -0.7234468937875751,5.673037872293735e-2 -0.719438877755511,5.891554422249018e-2 -0.7154308617234469,6.094284893390434e-2 -0.7114228456913828,6.314306260311603e-2 -0.7074148296593187,6.529953984079384e-2 -0.7034068136272545,6.687821988354531e-2 -0.6993987975951904,6.894673601252899e-2 -0.6953907815631263,7.104384953477055e-2 -0.6913827655310621,7.299595189938457e-2 -0.687374749498998,7.454388167069642e-2 -0.6833667334669339,7.663645876174091e-2 -0.6793587174348698,7.739234930106487e-2 -0.6753507014028056,7.945366954260924e-2 -0.6713426853707415,7.560371242453484e-2 -0.6673346693386774,7.762725366859818e-2 -0.6633266533066133,7.740246048206306e-2 -0.6593186372745492,7.847920093977934e-2 -0.6553106212424851,8.059058397065977e-2 -0.6513026052104209,8.246560886918214e-2 -0.6472945891783568,8.3741544479487e-2 -0.6432865731462927,8.375246566993338e-2 -0.6392785571142285,8.387228224753907e-2 -0.6352705410821644,8.38642862394906e-2 -0.6312625250501003,8.568972001514219e-2 -0.6272545090180361,8.602020171675945e-2 -0.623246492985972,8.60457784449386e-2 -0.6192384769539079,8.811675523369766e-2 -0.6152304609218437,9.011305282762627e-2 -0.6112224448897796,9.18104504240711e-2 -0.6072144288577155,9.378243491442101e-2 -0.6032064128256514,9.519553381982537e-2 -0.5991983967935872,9.716316795749413e-2 -0.5951903807615231,9.913235352119948e-2 -0.591182364729459,0.10058472349905734 -0.5871743486973948,0.1003428861570479 -0.5831663326653307,0.10192806091645046 -0.5791583166332666,0.10231125400777225 -0.5751503006012024,0.1030641620429677 -0.5711422845691383,0.10445098158770905 -0.5671342685370742,0.10636158624771097 -0.56312625250501,0.10772306639883938 -0.5591182364729459,0.10916322392426409 -0.5551102204408818,0.11085009332328838 -0.5511022044088176,0.11264942181290322 -0.5470941883767535,0.11456902978751138 -0.5430861723446894,0.11636622862270812 -0.5390781563126252,0.11634782561048118 -0.5350701402805611,0.11760432437813378 -0.531062124248497,0.11839865492558338 -0.5270541082164328,0.11813853776235267 -0.5230460921843687,0.11826130753799691 -0.5190380761523046,0.11992629052970383 -0.5150300601202404,0.12172174161395155 -0.5110220440881764,0.12354914073654227 -0.5070140280561123,0.1254068569142726 -0.5030060120240482,0.12711502265470592 -0.498997995991984,0.12793593382915186 -0.4949899799599199,0.12815804101949724 -0.49098196392785576,0.13001935870394243 -0.4869739478957916,0.1310372545056176 -0.4829659318637275,0.13198565841332682 -0.47895791583166336,0.13382334369343846 -0.47494989979959923,0.13547639282573032 -0.4709418837675351,0.13689682373955292 -0.46693386773547096,0.13809160957963673 -0.46292585170340683,0.13963989663899534 -0.4589178356713427,0.14138681663626818 -0.45490981963927857,0.1428389849764931 -0.45090180360721444,0.14463024462320134 -0.4468937875751503,0.14564952230724532 -0.44288577154308617,0.1474239200210264 -0.43887775551102204,0.14782852238833394 -0.434869739478958,0.14878957010395744 -0.4308617234468939,0.1505387742868713 -0.42685370741482975,0.15046015393403406 -0.4228456913827656,0.1521741672218772 -0.4188376753507015,0.15328542807747508 -0.41482965931863736,0.154888799019746 -0.4108216432865732,0.15606611579755014 -0.4068136272545091,0.15762220173213554 -0.40280561122244496,0.15932702161702333 -0.3987975951903808,0.1607018056104666 -0.3947895791583167,0.16236590707575183 -0.39078156312625256,0.16406046861537027 -0.38677354709418843,0.16286912371193718 -0.3827655310621243,0.1631980978245628 -0.37875751503006017,0.16486057443520452 -0.37474949899799603,0.16641051298275827 -0.3707414829659319,0.1277221760745718 -0.36673346693386777,0.11525867995768291 -0.36272545090180364,0.11071254684957377 -0.3587174348697395,0.11152968547927927 -0.35470941883767537,9.921923168973446e-2 -0.35070140280561124,0.10122450650522691 -0.3466933867735471,9.654475562394704e-2 -0.342685370741483,9.856457877985064e-2 -0.33867735470941884,9.999290282731055e-2 -0.3346693386773547,0.10105155655944004 -0.3306613226452907,7.358277740543367e-2 -0.32665330661322656,6.549709404122961e-2 -0.3226452905811624,5.9187655661053884e-2 -0.3186372745490983,6.030661191077569e-2 -0.31462925851703416,5.5354717254241737e-2 -0.31062124248497003,5.4178962093249794e-2 -0.3066132264529059,5.325932848909665e-2 -0.30260521042084176,5.439798601454798e-2 -0.29859719438877763,5.5730657053164934e-2 -0.2945891783567135,5.6853609899077784e-2 -0.29058116232464937,4.688857598722862e-2 -0.28657314629258523,4.895645193350895e-2 -0.2825651302605211,4.8766775820761e-2 -0.27855711422845697,4.012464828061579e-2 -0.27454909819639284,4.238023814658415e-2 -0.2705410821643287,4.315453819254156e-2 -0.2665330661322646,4.232372211596841e-2 -0.26252505010020044,4.447647694400353e-2 -0.2585170340681363,3.917762576480738e-2 -0.2545090180360722,3.272717985152901e-2 -0.25050100200400804,3.475614880101224e-2 -0.2464929859719439,3.606068254672373e-2 -0.24248496993987978,3.170032349431662e-2 -0.23847695390781565,3.3719001460077114e-2 -0.23446893787575152,2.2201108452437612e-2 -0.2304609218436875,2.4474846051379506e-2 -0.22645290581162336,2.511769841621775e-2 -0.22244488977955923,2.443565796278485e-2 -0.2184368737474951,-9.737934649924895e-4 -0.21442885771543096,1.4941870686596692e-3 -0.21042084168336683,-9.509042489838193e-3 -0.2064128256513027,-7.068765878284533e-3 -0.20240480961923857,-4.524823228265418e-3 -0.19839679358717444,-2.8231953283126554e-3 -0.1943887775551103,-3.010297428313047e-4 -0.19038076152304617,-6.632941015528249e-3 -0.18637274549098204,-1.427977513965173e-2 -0.1823647294589179,-1.171589577142984e-2 -0.17835671342685377,-1.4444211870245693e-2 -0.17434869739478964,-1.729832502235329e-2 -0.1703406813627255,-2.4034893383206413e-2 -0.16633266533066138,-3.7545254184423005e-2 -0.16232464929859725,-8.966373645879921e-2 -0.1583166332665331,-8.861125563250227e-2 -0.15430861723446898,-8.566113257906305e-2 -0.15030060120240485,-8.457732671852347e-2 -0.14629258517034072,-8.173563956319396e-2 -0.14228456913827658,-9.130781554464229e-2 -0.13827655310621245,-0.11327492191524513 -0.13426853707414832,-0.1113875809717424 -0.1302605210420842,-0.1104532594050267 -0.12625250501002017,-0.1078190709418766 -0.12224448897795603,-0.10527270531436461 -0.1182364729458919,-0.10223784254487023 -0.11422845691382777,-9.970818666552028e-2 -0.11022044088176364,-9.925538115512844e-2 -0.1062124248496995,-9.638472189816105e-2 -0.10220440881763537,-9.468428731328571e-2 -9.819639278557124e-2,-9.540579215046485e-2 -9.418837675350711e-2,-9.659780407630392e-2 -9.018036072144298e-2,-9.372919745394792e-2 -8.617234468937884e-2,-9.080390046556952e-2 -8.216432865731471e-2,-8.941427317717832e-2 -7.815631262525058e-2,-8.773058903802256e-2 -7.414829659318645e-2,-8.481678804393533e-2 -7.014028056112231e-2,-8.705913987251668e-2 -6.613226452905818e-2,-8.568202676963699e-2 -6.212424849699405e-2,-8.27599841486577e-2 -5.811623246492992e-2,-8.079562567983545e-2 -5.4108216432865786e-2,-7.8331752408484e-2 -5.010020040080165e-2,-7.55540314317229e-2 -4.609218436873752e-2,-7.463220680869698e-2 -4.208416833667339e-2,-7.175874837413987e-2 -3.8076152304609256e-2,-6.890050801806347e-2 -3.4068136272545124e-2,-6.95924474289461e-2 -3.0060120240480992e-2,-6.69111992147986e-2 -2.605210420841686e-2,-6.424846519107852e-2 -2.204408817635284e-2,-6.390771831037789e-2 -1.8036072144288706e-2,-6.1111641611919953e-2 -1.4028056112224574e-2,-5.834555918789819e-2 -1.0020040080160442e-2,-5.587559857139357e-2 -6.012024048096309e-3,-5.3923219309962134e-2 -2.004008016032177e-3,-5.1162971566136584e-2 2.004008016031955e-3,-4.8428098104242534e-2 6.012024048096087e-3,-4.5695265943204055e-2 1.002004008016022e-2,-4.318594784451457e-2 1.4028056112224352e-2,-4.145101360730352e-2 1.8036072144288484e-2,-3.915076964818753e-2 2.2044088176352616e-2,-3.6495582152463624e-2 2.605210420841675e-2,-3.489273440675911e-2 3.006012024048088e-2,-3.384779261644855e-2 3.406813627254501e-2,-3.12924837680697e-2 3.8076152304609145e-2,-3.3481819466704144e-2 4.208416833667328e-2,-3.097316049381349e-2 4.609218436873741e-2,-2.9337537243858236e-2 5.010020040080154e-2,-2.6718879785358807e-2 5.4108216432865675e-2,-2.45807363709738e-2 5.811623246492981e-2,-2.220783575256735e-2 6.212424849699394e-2,-1.959665138399669e-2 6.613226452905807e-2,-1.7264127337110247e-2 7.01402805611222e-2,-1.7264717731291457e-2 7.414829659318634e-2,-2.3882436372071214e-2 7.815631262525047e-2,-2.1286267010344417e-2 8.21643286573146e-2,-1.979607151214946e-2 8.617234468937873e-2,-1.779116671246428e-2 9.018036072144286e-2,-1.5451982752360482e-2 9.4188376753507e-2,-1.3845429713172819e-2 9.819639278557113e-2,-1.4241269438557191e-2 0.10220440881763526,-1.1668577972440364e-2 0.1062124248496994,-9.167652705151408e-3 0.11022044088176353,-6.6733708320861895e-3 0.11422845691382766,-4.5415306289326995e-3 0.11823647294589179,-2.016735326056951e-3 0.12224448897795592,-6.02637937490158e-4 0.12625250501002006,1.6915530537075507e-3 0.13026052104208397,4.183719001961461e-3 0.1342685370741481,5.75525850446823e-3 0.13827655310621223,8.195097406739349e-3 0.14228456913827636,1.0661039238160475e-2 0.1462925851703405,1.2905284263547812e-2 0.15030060120240463,1.5321610919838469e-2 0.15430861723446876,1.774710544167335e-2 0.1583166332665329,1.8424331063803312e-2 0.16232464929859702,2.0628342222824447e-2 0.16633266533066116,2.300596730882809e-2 0.1703406813627253,2.4970019848056357e-2 0.17434869739478942,2.7347633456885956e-2 0.17835671342685355,2.971554519761388e-2 0.18236472945891768,3.0297449299418022e-2 0.18637274549098182,3.245738005742127e-2 0.19038076152304595,3.263692034708765e-2 0.19438877755511008,3.427941205288382e-2 0.1983967935871742,2.8732035669907785e-2 0.20240480961923835,3.0985724830217e-2 0.20641282565130248,3.3024715257070125e-2 0.2104208416833666,3.506915016184936e-2 0.21442885771543074,2.118197712152492e-2 0.21843687374749488,2.199441952912229e-2 0.222444889779559,2.358004561582261e-2 0.22645290581162314,2.4057894614366415e-2 0.23046092184368727,2.5429851075462584e-2 0.2344689378757514,2.6493980348469837e-2 0.23847695390781554,2.7098488927149667e-2 0.24248496993987967,2.9207692413811714e-2 0.2464929859719438,2.7599111012011235e-2 0.25050100200400793,2.9931085689773873e-2 0.25450901803607207,3.033656073176405e-2 0.2585170340681362,3.138239334597154e-2 0.26252505010020033,3.361852525096426e-2 0.26653306613226446,3.12393592020766e-2 0.2705410821643286,3.3398415895453504e-2 0.2745490981963927,2.377632056322465e-2 0.27855711422845686,2.4484023947150824e-2 0.282565130260521,2.5947754125703604e-2 0.2865731462925851,2.5601517241527483e-2 0.29058116232464926,2.7494251655765356e-2 0.2945891783567134,2.984902750583085e-2 0.2985971943887775,3.205144744263716e-2 0.30260521042084165,3.402720885060767e-2 0.3066132264529058,3.625613790123455e-2 0.3106212424849699,3.857288353725313e-2 0.31462925851703405,3.856431827157525e-2 0.3186372745490982,4.07080968446884e-2 0.3226452905811623,4.085537028334779e-2 0.32665330661322645,4.3065120943321156e-2 0.3306613226452906,4.5212003171444526e-2 0.3346693386773545,4.471808955145862e-2 0.3386773547094186,4.692381595659412e-2 0.34268537074148275,4.8880088246982145e-2 0.3466933867735469,5.0373584191893306e-2 0.350701402805611,5.122361002847248e-2 0.35470941883767515,5.332195596908135e-2 0.3587174348697393,5.418517266991041e-2 0.3627254509018034,5.6247936559249145e-2 0.36673346693386755,5.762535892318138e-2 0.3707414829659317,5.983183512415924e-2 0.3747494989979958,6.160994996768687e-2 0.37875751503005994,6.373165456568691e-2 0.3827655310621241,6.547439651011544e-2 0.3867735470941882,6.764507234547623e-2 0.39078156312625234,6.932838477195302e-2 0.3947895791583165,6.999031347378726e-2 0.3987975951903806,7.188689212746652e-2 0.40280561122244474,7.268895829072802e-2 0.40681362725450887,7.46797825489886e-2 0.410821643286573,7.566819419642762e-2 0.41482965931863713,7.731533033855342e-2 0.41883767535070127,7.839547324548013e-2 0.4228456913827654,7.91666136738794e-2 0.42685370741482953,8.112085759515458e-2 0.43086172344689366,8.291000463877707e-2 0.4348697394789578,8.102966811605822e-2 0.4388777555110219,8.043348656398475e-2 0.44288577154308606,8.077367336832786e-2 0.4468937875751502,5.602173607811278e-2 0.4509018036072143,5.360563672971069e-2 0.45490981963927846,5.5833238810689356e-2 0.4589178356713426,4.865201485480358e-2 0.4629258517034067,4.957182538882288e-2 0.46693386773547085,4.741763372440988e-2 0.470941883767535,4.3651406316518704e-2 0.4749498997995991,2.1989758271287796e-2 0.47895791583166325,2.422845211118102e-2 0.4829659318637274,2.129739512781803e-2 0.4869739478957915,2.0052087120108752e-2 0.49098196392785565,2.0705316714252242e-2 0.4949899799599198,2.1445902758860602e-2 0.4989979959919839,2.382886186338745e-2 0.503006012024048,8.127415083313938e-3 0.5070140280561122,7.590378839110623e-3 0.5110220440881763,9.779446170069483e-3 0.5150300601202404,1.1186219850536638e-2 0.5190380761523046,9.703352549978561e-3 0.5230460921843687,1.2157910636630131e-2 0.5270541082164328,1.3283183852366098e-2 0.531062124248497,1.2872084630963898e-2 0.5350701402805611,1.1267970980063324e-2 0.539078156312625,1.3712435654629929e-2 0.5430861723446891,1.614294966045632e-2 0.5470941883767533,1.8568303313042267e-2 0.5511022044088174,1.9799957857294714e-2 0.5551102204408815,2.206169252820972e-2 0.5591182364729457,2.4416894173197312e-2 0.5631262525050098,2.64517108704328e-2 0.5671342685370739,2.8709889712072167e-2 0.5711422845691381,3.1071914430287617e-2 0.5751503006012022,3.341668482961174e-2 0.5791583166332663,3.497880275685222e-2 0.5831663326653305,3.730235393269077e-2 0.5871743486973946,3.750419420422485e-2 0.5911823647294587,3.892052544346364e-2 0.5951903807615229,4.1015262909516015e-2 0.599198396793587,4.2435019772968596e-2 0.6032064128256511,4.412428164186649e-2 0.6072144288577153,4.2030783568748675e-2 0.6112224448897794,3.531686273714524e-2 0.6152304609218435,3.598478881598244e-2 0.6192384769539077,3.309874372334154e-2 0.6232464929859718,3.48357342252934e-2 0.6272545090180359,3.0448664536813164e-2 0.6312625250501,3.0663291659193792e-2 0.6352705410821642,3.1985753394204286e-2 0.6392785571142283,3.132116388016293e-2 0.6432865731462925,3.359276910103015e-2 0.6472945891783566,3.348056326499571e-2 0.6513026052104207,3.566495388459512e-2 0.6553106212424848,3.784115812750577e-2 0.659318637274549,3.965338980550759e-2 0.6633266533066131,4.082540545260305e-2 0.6673346693386772,4.269390027213599e-2 0.6713426853707414,4.482217663772703e-2 0.6753507014028055,4.704184165253855e-2 0.6793587174348696,4.894902966047343e-2 0.6833667334669338,5.049232145237337e-2 0.6873747494989979,5.2695627696743685e-2 0.691382765531062,5.472792372438301e-2 0.6953907815631262,5.6607338380129046e-2 0.6993987975951903,5.650055113502955e-2 0.7034068136272544,5.845181778591274e-2 0.7074148296593186,6.05740380789192e-2 0.7114228456913827,6.277656536925813e-2 0.7154308617234468,6.483936467134149e-2 0.719438877755511,6.691333367161961e-2 0.7234468937875751,6.889001911844095e-2 0.7274549098196392,7.102502338006045e-2 0.7314629258517034,7.317523506509194e-2 0.7354709418837675,7.531355731130207e-2 0.7394789579158316,7.599256777367597e-2 0.7434869739478958,7.8117034027822e-2 0.7474949899799597,8.01832228953826e-2 0.7515030060120238,8.170332350729248e-2 0.7555110220440879,8.365381129576888e-2 0.7595190380761521,8.566828316011976e-2 0.7635270541082162,8.63388240697322e-2 0.7675350701402803,8.834519638494631e-2 0.7715430861723445,9.004856033161956e-2 0.7755511022044086,9.14150468872279e-2 0.7795591182364727,9.080069441736571e-2 0.7835671342685369,9.125057273250387e-2 0.787575150300601,9.228739783529882e-2 0.7915831663326651,9.43060381115911e-2 0.7955911823647293,9.413335430707181e-2 0.7995991983967934,9.571341556649193e-2 0.8036072144288575,9.764657358875445e-2 0.8076152304609217,9.950349944394421e-2 0.8116232464929858,9.958368182158966e-2 0.8156312625250499,0.10157750560473983 0.819639278557114,0.10229854770033575 0.8236472945891782,0.10428579062474186 0.8276553106212423,0.10622304213619788 0.8316633266533064,0.10776980605101855 0.8356713426853706,0.10919679463641518 0.8396793587174347,0.11115583918037042 0.8436873747494988,0.11307017681670384 0.847695390781563,0.11442236332292366 0.8517034068136271,0.11633205749934683 0.8557114228456912,0.11681557435531809 0.8597194388777554,0.11858842352641807 0.8637274549098195,0.11866246075667097 0.8677354709418836,0.11849871877442592 0.8717434869739478,0.12017276478553429 0.8757515030060119,0.12163909495261405 0.879759519038076,0.12298968228521606 0.8837675350701402,0.12377932122585905 0.8877755511022043,0.12519539620149572 0.8917835671342684,0.1258503554512742 0.8957915831663326,0.12752632510331785 0.8997995991983967,0.12936282847806213 0.9038076152304608,0.12938184349073073 0.907815631262525,0.13096516553610077 0.9118236472945891,0.13235936919535407 0.9158316633266532,0.13418586032691732 0.9198396793587174,0.13601873928102926 0.9238476953907815,0.13439870819830813 0.9278557114228456,0.12682443940981675 0.9318637274549098,0.12582912541935698 0.9358717434869739,0.12761177919287092 0.939879759519038,0.12929553864600685 0.9438877755511021,0.1196302932567766 0.9478957915831663,0.12011397623242553 0.9519038076152302,0.11549317025806094 0.9559118236472943,0.11396796215022992 0.9599198396793585,0.11572007895884873 0.9639278557114226,0.1163328035517458 0.9679358717434867,0.11692930025580356 0.9719438877755509,0.11883243359272733 0.975951903807615,0.11976671732133909 0.9799599198396791,0.12144230069417083 0.9839679358717432,0.12331644241161316 0.9879759519038074,0.12469530753958868 0.9919839679358715,0.12611600715263044 0.9959919839679356,0.12721635627648797 0.9999999999999998,0.1246769733549018" /></g><g /><g stroke-width="4.0e-3" stroke="#3764A0" fill="#FFFFFF" fill-opacity="1.0" stroke-opacity="0.5"><rect width="0.34350000000000014" height="0.15500000000000003" x="1.1812499999999997" y="-6.867041083776254e-3" /></g><g stroke-width="0.0" stroke="none" fill="#666666" fill-opacity="1.0" font-size="4.000000000000001e-2" text-anchor="start"><text x="1.2012499999999997" y="0.10713295891622376">rate = 0.99</text></g><g stroke-width="6.999999999999999e-3" stroke="#431712" fill="none" stroke-opacity="0.5"><polyline points="1.4612499999999997,0.10053295891622377 1.5012499999999998,0.10053295891622377" /></g><g stroke-width="0.0" stroke="none" fill="#666666" fill-opacity="1.0" font-size="4.000000000000001e-2" text-anchor="start"><text x="1.2012499999999997" y="5.0132958916223755e-2">rate = 0.95</text></g><g stroke-width="6.999999999999999e-3" stroke="#4B2282" fill="none" stroke-opacity="0.5"><polyline points="1.4612499999999997,4.3532958916223746e-2 1.5012499999999998,4.3532958916223746e-2" /></g><g /></svg>