<svg viewBox="-1.1835749999999998 -0.6457499999999999 2.7303249999999997 1.5057659178324474" xmlns="http://www.w3.org/2000/svg" xmlns:xlink="http://www.w3.org/1999/xlink" version="1.1" width="300.0" height="200.0"><g stroke-width="0.0" stroke="none" fill="#000000" transform="translate(-8.80375000000001e-2, -0.57175)" fill-opacity="1.0" font-size="8.0e-2" text-anchor="middle"><text transform="rotate(0.0, 0.0, -0.0)" x="0.0" y="-0.0">std alpha</text></g><g stroke-width="0.0" stroke="#000000" fill="#666666" fill-opacity="3.0e-2" stroke-opacity="0.0"><rect width="1.9999999999999998" height="1.0" x="-1.0" y="-0.5" /></g><g stroke-width="5.0e-3" stroke="#A8E5EE" fill="none" stroke-opacity="0.3"><polyline points="-1.0,0.505 -1.0,-0.505" /></g><g stroke-width="5.0e-3" stroke="#A8E5EE" fill="none" stroke-opacity="0.3"><polyline points="-0.9118236472945892,0.505 -0.9118236472945892,-0.505" /></g><g stroke-width="5.0e-3" stroke="#A8E5EE" fill="none" stroke-opacity="0.3"><polyline points="-0.6553106212424851,0.505 -0.6553106212424851,-0.505" /></g><g stroke-width="5.0e-3" stroke="#A8E5EE" fill="none" stroke-opacity="0.3"><polyline points="-0.40280561122244496,0.505 -0.40280561122244496,-0.505" /></g><g stroke-width="5.0e-3" stroke="#A8E5EE" fill="none" stroke-opacity="0.3"><polyline points="-0.15030060120240496,0.505 -0.15030060120240496,-0.505" /></g><g stroke-width="5.0e-3" stroke="#A8E5EE" fill="none" stroke-opacity="0.3"><polyline points="9.418837675350678e-2,0.505 9.418837675350678e-2,-0.505" /></g><g stroke-width="5.0e-3" stroke="#A8E5EE" fill="none" stroke-opacity="0.3"><polyline points="0.3466933867735469,0.505 0.3466933867735469,-0.505" /></g><g stroke-width="5.0e-3" stroke="#A8E5EE" fill="none" stroke-opacity="0.3"><polyline points="0.6032064128256511,0.505 0.6032064128256511,-0.505" /></g><g stroke-width="5.0e-3" stroke="#A8E5EE" fill="none" stroke-opacity="0.3"><polyline points="0.8597194388777554,0.505 0.8597194388777554,-0.505" /></g><g stroke-width="5.0e-3" stroke="#A8E5EE" fill="none" stroke-opacity="0.3"><polyline points="0.9999999999999998,0.505 0.9999999999999998,-0.505" /></g><g stroke-width="0.0" stroke="none" fill="#666666" fill-opacity="1.0" font-size="5.0e-2" text-anchor="end"><text transform="rotate(-45.0, -1.0, 0.647)" x="-1.0" y="0.647">27 Feb 2018</text></g><g stroke-width="0.0" stroke="none" fill="#666666" fill-opacity="1.0" font-size="5.0e-2" text-anchor="end"><text transform="rotate(-45.0, -0.9118236472945892, 0.647)" x="-0.9118236472945892" y="0.647">31 Mar 2018</text></g><g stroke-width="0.0" stroke="none" fill="#666666" fill-opacity="1.0" font-size="5.0e-2" text-anchor="end"><text transform="rotate(-45.0, -0.6553106212424851, 0.647)" x="-0.6553106212424851" y="0.647">30 Jun 2018</text></g><g stroke-width="0.0" stroke="none" fill="#666666" fill-opacity="1.0" font-size="5.0e-2" text-anchor="end"><text transform="rotate(-45.0, -0.40280561122244496, 0.647)" x="-0.40280561122244496" y="0.647">30 Sep 2018</text></g><g stroke-width="0.0" stroke="none" fill="#666666" fill-opacity="1.0" font-size="5.0e-2" text-anchor="end"><text transform="rotate(-45.0, -0.15030060120240496, 0.647)" x="-0.15030060120240496" y="0.647">31 Dec 2018</text></g><g stroke-width="0.0" stroke="none" fill="#666666" fill-opacity="1.0" font-size="5.0e-2" text-anchor="end"><text transform="rotate(-45.0, 9.418837675350678e-2, 0.647)" x="9.418837675350678e-2" y="0.647">31 Mar 2019</text></g><g stroke-width="0.0" stroke="none" fill="#666666" fill-opacity="1.0" font-size="5.0e-2" text-anchor="end"><text transform="rotate(-45.0, 0.3466933867735469, 0.647)" x="0.3466933867735469" y="0.647">30 Jun 2019</text></g><g stroke-width="0.0" stroke="none" fill="#666666" fill-opacity="1.0" font-size="5.0e-2" text-anchor="end"><text transform="rotate(-45.0, 0.6032064128256511, 0.647)" x="0.6032064128256511" y="0.647">30 Sep 2019</text></g><g stroke-width="0.0" stroke="none" fill="#666666" fill-opacity="1.0" font-size="5.0e-2" text-anchor="end"><text transform="rotate(-45.0, 0.8597194388777554, 0.647)" x="0.8597194388777554" y="0.647">31 Dec 2019</text></g><g stroke-width="0.0" stroke="none" fill="#666666" fill-opacity="1.0" font-size="5.0e-2" text-anchor="end"><text transform="rotate(-45.0, 0.9999999999999998, 0.647)" x="0.9999999999999998" y="0.647">21 Feb 2020</text></g><g stroke-width="0.0" stroke="#2C429D" fill="#5F0391" fill-opacity="1.0" stroke-opacity="0.4"><line stroke-width="5.0e-3" x1="-1.0" y1="0.58075" x2="-1.0" y2="0.55075" /><line stroke-width="5.0e-3" x1="-0.9118236472945892" y1="0.58075" x2="-0.9118236472945892" y2="0.55075" /><line stroke-width="5.0e-3" x1="-0.6553106212424851" y1="0.58075" x2="-0.6553106212424851" y2="0.55075" /><line stroke-width="5.0e-3" x1="-0.40280561122244496" y1="0.58075" x2="-0.40280561122244496" y2="0.55075" /><line stroke-width="5.0e-3" x1="-0.15030060120240496" y1="0.58075" x2="-0.15030060120240496" y2="0.55075" /><line stroke-width="5.0e-3" x1="9.418837675350678e-2" y1="0.58075" x2="9.418837675350678e-2" y2="0.55075" /><line stroke-width="5.0e-3" x1="0.3466933867735469" y1="0.58075" x2="0.3466933867735469" y2="0.55075" /><line stroke-width="5.0e-3" x1="0.6032064128256511" y1="0.58075" x2="0.6032064128256511" y2="0.55075" /><line stroke-width="5.0e-3" x1="0.8597194388777554" y1="0.58075" x2="0.8597194388777554" y2="0.55075" /><line stroke-width="5.0e-3" x1="0.9999999999999998" y1="0.58075" x2="0.9999999999999998" y2="0.55075" /></g><g stroke-width="0.0" stroke="#666666" fill="#5F0391" fill-opacity="0.5" stroke-opacity="0.0"><rect width="1.9999999999999998" height="5.0000000000000044e-3" x="-1.0" y="0.55075" /></g><g stroke-width="5.0e-3" stroke="#A8E5EE" fill="none" stroke-opacity="0.3"><polyline points="-1.005,0.5 1.0049999999999997,0.5" /></g><g stroke-width="5.0e-3" stroke="#A8E5EE" fill="none" stroke-opacity="0.3"><polyline points="-1.005,0.3888888888888889 1.0049999999999997,0.3888888888888889" /></g><g stroke-width="5.0e-3" stroke="#A8E5EE" fill="none" stroke-opacity="0.3"><polyline points="-1.005,0.2777777777777778 1.0049999999999997,0.2777777777777778" /></g><g stroke-width="5.0e-3" stroke="#A8E5EE" fill="none" stroke-opacity="0.3"><polyline points="-1.005,0.16666666666666669 1.0049999999999997,0.16666666666666669" /></g><g stroke-width="5.0e-3" stroke="#A8E5EE" fill="none" stroke-opacity="0.3"><polyline points="-1.005,5.555555555555558e-2 1.0049999999999997,5.555555555555558e-2" /></g><g stroke-width="5.0e-3" stroke="#A8E5EE" fill="none" stroke-opacity="0.3"><polyline points="-1.005,-5.555555555555547e-2 1.0049999999999997,-5.555555555555547e-2" /></g><g stroke-width="5.0e-3" stroke="#A8E5EE" fill="none" stroke-opacity="0.3"><polyline points="-1.005,-0.16666666666666663 1.0049999999999997,-0.16666666666666663" /></g><g stroke-width="5.0e-3" stroke="#A8E5EE" fill="none" stroke-opacity="0.3"><polyline points="-1.005,-0.2777777777777777 1.0049999999999997,-0.2777777777777777" /></g><g stroke-width="5.0e-3" stroke="#A8E5EE" fill="none" stroke-opacity="0.3"><polyline points="-1.005,-0.38888888888888884 1.0049999999999997,-0.38888888888888884" /></g><g stroke-width="5.0e-3" stroke="#A8E5EE" fill="none" stroke-opacity="0.3"><polyline points="-1.005,-0.5 1.0049999999999997,-0.5" /></g><g stroke-width="0.0" stroke="none" fill="#666666" fill-opacity="1.0" font-size="5.0e-2" text-anchor="end"><text x="-1.0585749999999998" y="0.5145">-0.6%</text></g><g stroke-width="0.0" stroke="none" fill="#666666" fill-opacity="1.0" font-size="5.0e-2" text-anchor="end"><text x="-1.0585749999999998" y="0.4033888888888889">-0.5%</text></g><g stroke-width="0.0" stroke="none" fill="#666666" fill-opacity="1.0" font-size="5.0e-2" text-anchor="end"><text x="-1.0585749999999998" y="0.2922777777777778">-0.4%</text></g><g stroke-width="0.0" stroke="none" fill="#666666" fill-opacity="1.0" font-size="5.0e-2" text-anchor="end"><text x="-1.0585749999999998" y="0.1811666666666667">-0.3%</text></g><g stroke-width="0.0" stroke="none" fill="#666666" fill-opacity="1.0" font-size="5.0e-2" text-anchor="end"><text x="-1.0585749999999998" y="7.005555555555558e-2">-0.2%</text></g><g stroke-width="0.0" stroke="none" fill="#666666" fill-opacity="1.0" font-size="5.0e-2" text-anchor="end"><text x="-1.0585749999999998" y="-4.105555555555547e-2">-0.1%</text></g><g stroke-width="0.0" stroke="none" fill="#666666" fill-opacity="1.0" font-size="5.0e-2" text-anchor="end"><text x="-1.0585749999999998" y="-0.15216666666666662">0.0%</text></g><g stroke-width="0.0" stroke="none" fill="#666666" fill-opacity="1.0" font-size="5.0e-2" text-anchor="end"><text x="-1.0585749999999998" y="-0.26327777777777767">0.1%</text></g><g stroke-width="0.0" stroke="none" fill="#666666" fill-opacity="1.0" font-size="5.0e-2" text-anchor="end"><text x="-1.0585749999999998" y="-0.3743888888888888">0.2%</text></g><g stroke-width="0.0" stroke="none" fill="#666666" fill-opacity="1.0" font-size="5.0e-2" text-anchor="end"><text x="-1.0585749999999998" y="-0.4855">0.3%</text></g><g stroke-width="0.0" stroke="#2C429D" fill="#5F0391" fill-opacity="1.0" stroke-opacity="0.4"><line stroke-width="5.0e-3" transform="rotate(-90.0, -1.0285, 0.5)" x1="-1.0285" y1="0.515" x2="-1.0285" y2="0.485" /><line stroke-width="5.0e-3" transform="rotate(-90.0, -1.0285, 0.3888888888888889)" x1="-1.0285" y1="0.4038888888888889" x2="-1.0285" y2="0.3738888888888889" /><line stroke-width="5.0e-3" transform="rotate(-90.0, -1.0285, 0.2777777777777778)" x1="-1.0285" y1="0.2927777777777778" x2="-1.0285" y2="0.2627777777777778" /><line stroke-width="5.0e-3" transform="rotate(-90.0, -1.0285, 0.16666666666666669)" x1="-1.0285" y1="0.1816666666666667" x2="-1.0285" y2="0.15166666666666667" /><line stroke-width="5.0e-3" transform="rotate(-90.0, -1.0285, 5.555555555555558e-2)" x1="-1.0285" y1="7.055555555555558e-2" x2="-1.0285" y2="4.055555555555558e-2" /><line stroke-width="5.0e-3" transform="rotate(-90.0, -1.0285, -5.555555555555547e-2)" x1="-1.0285" y1="-4.055555555555547e-2" x2="-1.0285" y2="-7.055555555555547e-2" /><line stroke-width="5.0e-3" transform="rotate(-90.0, -1.0285, -0.16666666666666663)" x1="-1.0285" y1="-0.15166666666666662" x2="-1.0285" y2="-0.18166666666666664" /><line stroke-width="5.0e-3" transform="rotate(-90.0, -1.0285, -0.2777777777777777)" x1="-1.0285" y1="-0.26277777777777767" x2="-1.0285" y2="-0.2927777777777777" /><line stroke-width="5.0e-3" transform="rotate(-90.0, -1.0285, -0.38888888888888884)" x1="-1.0285" y1="-0.3738888888888888" x2="-1.0285" y2="-0.40388888888888885" /><line stroke-width="5.0e-3" transform="rotate(-90.0, -1.0285, -0.5)" x1="-1.0285" y1="-0.485" x2="-1.0285" y2="-0.515" /></g><g stroke-width="0.0" stroke="#666666" fill="#5F0391" fill-opacity="0.5" stroke-opacity="0.0"><rect width="4.999999999999893e-3" height="1.0" x="-1.0185" y="-0.5" /></g><g stroke-width="2.0e-3" stroke="#AC0505" fill="none" stroke-opacity="0.5"><polyline points="-1.0,-0.16666666666666663 0.9999999999999998,-0.16666666666666663" /></g><g stroke-width="7.0e-3" stroke="#4B2282" fill="none" stroke-opacity="0.5"><polyline points="-1.0,-0.16421204973519044 -0.9959919839679359,-0.11384629043947403 -0.9919839679358717,-5.5457073524036504e-2 -0.9879759519038076,-8.172884457125007e-2 -0.9839679358717435,-0.13533320373672597 -0.9799599198396793,-0.14686999357746633 -0.9759519038076152,-0.1433434729848535 -0.9719438877755511,-0.16409907937502233 -0.9679358717434869,-0.2522444088545943 -0.9639278557114228,-0.2398988014109017 -0.9599198396793587,-0.20323561425387449 -0.9559118236472945,-0.17091059633243477 -0.9519038076152304,-0.1647636269746573 -0.9478957915831663,-0.17203435544759615 -0.9438877755511023,-9.509249906408868e-2 -0.9398797595190381,-0.10484061423839741 -0.935871743486974,-9.611062871947329e-2 -0.9318637274549099,3.738055523042294e-2 -0.9278557114228457,0.13521031483928142 -0.9238476953907816,-1.811863739499453e-2 -0.9198396793587175,5.709806064794426e-2 -0.9158316633266533,6.1887532634025466e-2 -0.9118236472945892,-1.385646554144837e-2 -0.9078156312625251,8.769135208090556e-2 -0.9038076152304609,1.7590002570693652e-2 -0.8997995991983968,-4.465073558198185e-2 -0.8957915831663327,-8.149179021454811e-2 -0.8917835671342685,2.1863150343000903e-2 -0.8877755511022044,-1.377560147126422e-3 -0.8837675350701403,-9.078905405367754e-2 -0.8797595190380761,-6.595872579219375e-2 -0.875751503006012,-0.1104452364886167 -0.8717434869739479,-9.696553923760232e-2 -0.8677354709418837,-0.14107751134552526 -0.8637274549098196,-0.19748082792180432 -0.8597194388777555,-0.1987195117766527 -0.8557114228456915,-0.16461632923005143 -0.8517034068136273,-0.11632053926423469 -0.8476953907815632,-0.11758579353625931 -0.8436873747494991,-4.2890499547377e-2 -0.8396793587174349,-5.822474464873073e-2 -0.8356713426853708,-0.12453511130289074 -0.8316633266533067,-0.13194150977561003 -0.8276553106212425,-8.374744895761488e-2 -0.8236472945891784,-0.10237686257834666 -0.8196392785571143,-6.017494718074834e-2 -0.8156312625250501,-5.039833544942984e-2 -0.811623246492986,-0.13930970207637117 -0.8076152304609219,-0.16170876480946406 -0.8036072144288577,-0.15946593396874342 -0.7995991983967936,-0.22279960398596177 -0.7955911823647295,-0.2802271423072441 -0.7915831663326653,-0.2848590089487125 -0.7875751503006012,-0.28383260648524233 -0.7835671342685371,-0.22978435972898925 -0.779559118236473,-0.253391675162694 -0.7755511022044088,-0.24180640833230715 -0.7715430861723447,-0.21790157374595398 -0.7675350701402806,-0.2675690959870163 -0.7635270541082164,-0.23820404966036468 -0.7595190380761523,-0.2571495952561542 -0.7555110220440882,-0.23576996470325073 -0.751503006012024,-0.2126623905501719 -0.7474949899799599,-0.12234020775387955 -0.7434869739478958,-0.21698093638147042 -0.7394789579158316,-0.1664011295183625 -0.7354709418837675,-0.24005691996431688 -0.7314629258517034,-0.26526374293131694 -0.7274549098196392,-0.263950310535517 -0.7234468937875751,-0.31681530503867683 -0.719438877755511,-0.30299210477695904 -0.7154308617234469,-0.31669656037348004 -0.7114228456913828,-0.31516847228688427 -0.7074148296593187,-0.3186493087751381 -0.7034068136272545,-0.2784893756618926 -0.6993987975951904,-0.2894725403647348 -0.6953907815631263,-0.2732323542643348 -0.6913827655310621,-0.24896312123219655 -0.687374749498998,-0.2110335383286649 -0.6833667334669339,-0.22025953222389316 -0.6793587174348698,-0.16570951623595853 -0.6753507014028056,-0.17860863969937113 -0.6713426853707415,-7.767283499803701e-2 -0.6673346693386774,-9.617315165026963e-2 -0.6633266533066133,-4.103700058773496e-2 -0.6593186372745492,-9.054017135708992e-2 -0.6553106212424851,-9.814236971114398e-2 -0.6513026052104209,-0.12207387226129107 -0.6472945891783568,-8.894155005803195e-2 -0.6432865731462927,-0.15516024473797507 -0.6392785571142285,-0.21336743509693457 -0.6352705410821644,-0.2686222950393726 -0.6312625250501003,-0.2850000414475211 -0.6272545090180361,-0.23140210726326405 -0.623246492985972,-0.2836603429481599 -0.6192384769539079,-0.28372365661510646 -0.6152304609218437,-0.27009678981301355 -0.6112224448897796,-0.29006602765823597 -0.6072144288577155,-0.2971136830645039 -0.6032064128256514,-0.2618622992680524 -0.5991983967935872,-0.24909369511930557 -0.5951903807615231,-0.2563599644897384 -0.591182364729459,-0.28454879158010893 -0.5871743486973948,-0.3413820481635257 -0.5831663326653307,-0.30983336879704915 -0.5791583166332666,-0.2557288582575 -0.5751503006012024,-0.21204029204040709 -0.5711422845691383,-0.24112185052175084 -0.5671342685370742,-0.22939754479047514 -0.56312625250501,-0.2585801402101877 -0.5591182364729459,-0.28436104966096987 -0.5551102204408818,-0.30141722970356244 -0.5511022044088176,-0.31288751329345055 -0.5470941883767535,-0.30196654576447424 -0.5430861723446894,-0.28282507863236295 -0.5390781563126252,-0.22413848264844616 -0.5350701402805611,-0.19276351082745447 -0.531062124248497,-0.23477620125968768 -0.5270541082164328,-0.18061337821001888 -0.5230460921843687,-0.23058265645269294 -0.5190380761523046,-0.24721305192108445 -0.5150300601202404,-0.25758604093062754 -0.5110220440881764,-0.26532130142615495 -0.5070140280561123,-0.2565170798364108 -0.5030060120240482,-0.23932289504715343 -0.498997995991984,-0.27693955723691244 -0.4949899799599199,-0.3213751095252694 -0.49098196392785576,-0.3142569391311436 -0.4869739478957916,-0.34336070897329196 -0.4829659318637275,-0.3032954730358892 -0.47895791583166336,-0.29619718782969084 -0.47494989979959923,-0.27735207302726506 -0.4709418837675351,-0.2516153420797438 -0.46693386773547096,-0.22167746947305056 -0.46292585170340683,-0.2029628318379617 -0.4589178356713427,-0.2129533708096205 -0.45490981963927857,-0.23561181377923668 -0.45090180360721444,-0.23330723846616863 -0.4468937875751503,-0.26644969432284915 -0.44288577154308617,-0.26198393650317064 -0.43887775551102204,-0.21658842751060803 -0.434869739478958,-0.24991257586240856 -0.4308617234468939,-0.2530521166093309 -0.42685370741482975,-0.3008097281628447 -0.4228456913827656,-0.29076788883493443 -0.4188376753507015,-0.2602012465683575 -0.41482965931863736,-0.24604199305239083 -0.4108216432865732,-0.21942785067949255 -0.4068136272545091,-0.23425528242116012 -0.40280561122244496,-0.22981568922779416 -0.3987975951903808,-0.2506984486868967 -0.3947895791583167,-0.24259851332879412 -0.39078156312625256,-0.24259005491317742 -0.38677354709418843,-0.1820460758483904 -0.3827655310621243,-0.14708641089050933 -0.37875751503006017,-0.14486815242285433 -0.37474949899799603,-0.13639141628038365 -0.3707414829659319,4.117115592319087e-2 -0.36673346693386777,0.12344668816468535 -0.36272545090180364,5.2069054984846985e-2 -0.3587174348697395,6.906176627269278e-2 -0.35470941883767537,-3.616784819215402e-2 -0.35070140280561124,-3.758230645648164e-2 -0.3466933867735471,1.8841736193205783e-2 -0.342685370741483,1.4288258799967757e-2 -0.33867735470941884,2.644382904679543e-2 -0.3346693386773547,4.317049060234518e-2 -0.3306613226452907,0.1803314442218789 -0.32665330661322656,8.773646343767982e-2 -0.3226452905811624,0.15226756131595165 -0.3186372745490983,0.1668326125787914 -0.31462925851703416,8.684437192917066e-2 -0.31062124248497003,3.099979072290998e-2 -0.3066132264529059,-2.1319702918762284e-2 -0.30260521042084176,2.247783059003028e-3 -0.29859719438877763,-2.7312166621599077e-2 -0.2945891783567135,-5.887160796490454e-2 -0.29058116232464937,-0.1648315157271033 -0.28657314629258523,-0.15040381878324338 -0.2825651302605211,-0.10771550429980459 -0.27855711422845697,-2.029297777028316e-2 -0.27454909819639284,-1.812209256856112e-2 -0.2705410821643287,1.1773173708590656e-2 -0.2665330661322646,-4.555574069225743e-2 -0.26252505010020044,-5.979194806498478e-2 -0.2585170340681363,1.6571568589066943e-2 -0.2545090180360722,9.695679260469692e-2 -0.25050100200400804,7.139666405730588e-2 -0.2464929859719439,9.33418366250402e-2 -0.24248496993987978,3.807409549077212e-3 -0.23847695390781565,-1.894790492324938e-2 -0.23446893787575152,-0.14346284402785892 -0.2304609218436875,-0.13270011407485294 -0.22645290581162336,-0.17335306431474584 -0.22244488977955923,-0.226929270438036 -0.2184368737474951,-6.204196459103539e-2 -0.21442885771543096,-5.87189030967995e-2 -0.21042084168336683,4.904664910841633e-2 -0.2064128256513027,3.1602573786458144e-2 -0.20240480961923857,2.467744639092795e-2 -0.19839679358717444,-9.896556642846832e-3 -0.1943887775551103,-1.5721795826211582e-2 -0.19038076152304617,7.541264128354702e-2 -0.18637274549098204,0.17044920995522223 -0.1823647294589179,0.15438632420193515 -0.17835671342685377,0.21825368283116964 -0.17434869739478964,0.28149926269417586 -0.1703406813627255,0.36842079764060204 -0.16633266533066138,0.4870662069354324 -0.16232464929859725,0.21764905154261005 -0.1583166332665331,0.1657568846379628 -0.15430861723446898,0.15900975275902474 -0.15030060120240485,0.10873617987313539 -0.14629258517034072,9.338904685930305e-2 -0.14228456913827658,0.19906302461401604 -0.13827655310621245,2.03575045401313e-2 -0.13426853707414832,-1.6456065021070665e-2 -0.1302605210420842,-6.458478716777438e-2 -0.12625250501002017,-8.467745172900631e-2 -0.12224448897795603,-0.10627449669256661 -0.1182364729458919,-0.10467554691320735 -0.11422845691382777,-7.825860825760755e-2 -0.11022044088176364,-0.13451426791344423 -0.1062124248496995,-0.14399392980069914 -0.10220440881763537,-0.18222203342371657 -9.819639278557124e-2,-0.25081912645285 -9.418837675350711e-2,-0.1691669542297174 -9.018036072144298e-2,-0.1777838195496989 -8.617234468937884e-2,-0.1816307968724934 -8.216432865731471e-2,-0.22697063503920578 -7.815631262525058e-2,-0.17597982772165033 -7.414829659318645e-2,-0.16369750867527244 -7.014028056112231e-2,-0.2575725969742124 -6.613226452905818e-2,-0.3021602405539663 -6.212424849699405e-2,-0.29770245084071134 -5.811623246492992e-2,-0.3305094625339865 -5.4108216432865786e-2,-0.3489211108350777 -5.010020040080165e-2,-0.3216420619339405 -4.609218436873752e-2,-0.24944053889248052 -4.208416833667339e-2,-0.24604202781614737 -3.8076152304609256e-2,-0.24301474246124266 -3.4068136272545124e-2,-0.3265759477444993 -3.0060120240480992e-2,-0.33550366856288616 -2.605210420841686e-2,-0.30443446339013713 -2.204408817635284e-2,-0.3718975116609461 -1.8036072144288706e-2,-0.3680174895351934 -1.4028056112224574e-2,-0.36631230976023255 -1.0020040080160442e-2,-0.3254392620361203 -6.012024048096309e-3,-0.36124396033983996 -2.004008016032177e-3,-0.35576600799221125 2.004008016031955e-3,-0.3347736635936218 6.012024048096087e-3,-0.3165336940344635 1.002004008016022e-2,-0.28092676645649417 1.4028056112224352e-2,-0.326479065162396 1.8036072144288484e-2,-0.2815185643808277 2.2044088176352616e-2,-0.2609811078927453 2.605210420841675e-2,-0.1986756013351182 3.006012024048088e-2,-0.1295890647885427 3.406813627254501e-2,-0.11009359560549836 3.8076152304609145e-2,-0.2352469394751604 4.208416833667328e-2,-0.2501587375439853 4.609218436873741e-2,-0.2958095225464774 5.010020040080154e-2,-0.2784773092478894 5.4108216432865675e-2,-0.307836163659962 5.811623246492981e-2,-0.32568451928341124 6.212424849699394e-2,-0.3118581237460216 6.613226452905807e-2,-0.275902164007218 7.01402805611222e-2,-0.35573287357794114 7.414829659318634e-2,-0.20565895119214617 7.815631262525047e-2,-0.1958264273784469 8.21643286573146e-2,-0.24023257837150802 8.617234468937873e-2,-0.20391084224787037 9.018036072144286e-2,-0.22381354456100866 9.4188376753507e-2,-0.26505529208974166 9.819639278557113e-2,-0.3377819129078077 0.10220440881763526,-0.326974605602377 0.1062124248496994,-0.33101316719272755 0.11022044088176353,-0.3345007437218065 0.11422845691382766,-0.35614912441562174 0.11823647294589179,-0.3509323186510852 0.12224448897795592,-0.2941785322078122 0.12625250501002006,-0.30996175408543303 0.13026052104208397,-0.2996831420111099 0.1342685370741481,-0.33963418806972434 0.13827655310621223,-0.32259350022697386 0.14228456913827636,-0.31490813961026964 0.1462925851703405,-0.2859799764798867 0.15030060120240463,-0.2885530212871511 0.15430861723446876,-0.28647691088064786 0.1583166332665329,-0.3489441995708257 0.16232464929859702,-0.3185950132564017 0.16633266533066116,-0.30413174542681776 0.1703406813627253,-0.3311392814848103 0.17434869739478942,-0.32736135231735863 0.17835671342685355,-0.3227286303853162 0.18236472945891768,-0.2507099037980197 0.18637274549098182,-0.2268934934859249 0.19038076152304595,-0.2979540590543198 0.19438877755511008,-0.25645299639577157 0.1983967935871742,-0.14538750910741982 0.20240480961923835,-0.1353729964577055 0.20641282565130248,-0.11747604183462179 0.2104208416833666,-0.14147241873300642 0.21442885771543074,-1.146879693529379e-2 0.21843687374749488,-5.7653049189922756e-2 0.222444889779559,-9.024032490415945e-2 0.22645290581162314,-0.1380978803763998 0.23046092184368727,-0.1092411455079364 0.2344689378757514,-7.69866461390063e-2 0.23847695390781554,-0.12467077560409179 0.24248496993987967,-0.110643898771847 0.2464929859719438,-5.205418104571191e-2 0.25050100200400793,-6.300096800361532e-2 0.25450901803607207,-2.361414463588596e-2 0.2585170340681362,6.700615499013185e-3 0.26252505010020033,-1.1944156937497064e-2 0.26653306613226446,5.164208538678772e-2 0.2705410821643286,5.680534680848148e-2 0.2745490981963927,-7.481708732297854e-2 0.27855711422845686,-0.11779461639021349 0.282565130260521,-0.1489019924222279 0.2865731462925851,-0.20151857700042786 0.29058116232464926,-0.22151463812361427 0.2945891783567134,-0.21565223526679034 0.2985971943887775,-0.20146374686577562 0.30260521042084165,-0.2200143715444529 0.3066132264529058,-0.20731444791331688 0.3106212424849699,-0.20886215384492357 0.31462925851703405,-0.2616741915433519 0.3186372745490982,-0.2722391647567549 0.3226452905811623,-0.32097686396026226 0.32665330661322645,-0.30473637183440616 0.3306613226452906,-0.2862831118312631 0.3346693386773545,-0.22456138993435948 0.3386773547094186,-0.21312260941828076 0.34268537074148275,-0.23208051025076926 0.3466933867735469,-0.2624327174488663 0.350701402805611,-0.3035385310530686 0.35470941883767515,-0.312982782970576 0.3587174348697393,-0.3522510451326165 0.3627254509018034,-0.32996954620876073 0.36673346693386755,-0.28976468380715215 0.3707414829659317,-0.28957443747752454 0.3747494989979958,-0.310893650585376 0.37875751503005994,-0.31659594369807487 0.3827655310621241,-0.33806883637725194 0.3867735470941882,-0.3281019977608084 0.39078156312625234,-0.29383627321909767 0.3947895791583165,-0.24109998942187472 0.3987975951903806,-0.25959090701027543 0.40280561122244474,-0.2120173174982738 0.40681362725450887,-0.22681214538876138 0.410821643286573,-0.2695155142381166 0.41482965931863713,-0.29425294564374405 0.41883767535070127,-0.2507174421399003 0.4228456913827654,-0.2949263880170331 0.42685370741482953,-0.2760178247386852 0.43086172344689366,-0.2515194862384815 0.4348697394789578,-0.1770335813498899 0.4388777555110219,-0.12315839544269924 0.44288577154308606,-8.288939788263472e-2 0.4468937875751502,7.017645381370013e-2 0.4509018036072143,-2.0469624046293156e-4 0.45490981963927846,-8.469585874443242e-3 0.4589178356713426,-0.10718926761639946 0.4629258517034067,-7.861044326968691e-2 0.46693386773547085,-2.6619698133602654e-2 0.470941883767535,-0.10270868298932823 0.4749498997995991,2.739745966986118e-2 0.47895791583166325,9.690805400914992e-3 0.4829659318637274,-6.047252211650456e-2 0.4869739478957915,-0.11701609352659437 0.49098196392785565,-8.276767476931346e-2 0.4949899799599198,-0.12143767322312515 0.4989979959919839,-0.11867364117412127 0.503006012024048,-1.9573679474803596e-3 0.5070140280561122,-5.6866878070434446e-2 0.5110220440881763,-4.563979703070509e-2 0.5150300601202404,-7.928725971780215e-2 0.5190380761523046,-0.14158739721612734 0.5230460921843687,-0.143369058455879 0.5270541082164328,-0.11010929015709048 0.531062124248497,-0.164488542332614 0.5350701402805611,-0.22802083477095914 0.539078156312625,-0.22724206062323749 0.5430861723446891,-0.22157857640365752 0.5470941883767533,-0.21825429084679426 0.5511022044088174,-0.2521008062374065 0.5551102204408815,-0.26094626886572614 0.5591182364729457,-0.24992250409564087 0.5631262525050098,-0.22603132173959872 0.5671342685370739,-0.23536874498986782 0.5711422845691381,-0.23129418968951554 0.5751503006012022,-0.22544294229586037 0.5791583166332663,-0.19032514642209175 0.5831663326653305,-0.18574517310113792 0.5871743486973946,-0.13071058859422147 0.5911823647294587,-0.17019059618840982 0.5951903807615229,-0.1520365303399004 0.599198396793587,-0.11644001488754441 0.6032064128256511,-0.1508100616878545 0.6072144288577153,-7.330167770730411e-2 0.6112224448897794,2.6421312225756444e-2 0.6152304609218435,-2.9571786739850836e-2 0.6192384769539077,-0.121770732646438 0.6232464929859718,-9.741404461981817e-2 0.6272545090180359,-1.5470159338651701e-2 0.6312625250501,-7.230587595890614e-2 0.6352705410821642,-0.1107541806625425 0.6392785571142283,-0.17401607997758162 0.6432865731462925,-0.1643207407593077 0.6472945891783566,-0.22002360473889615 0.6513026052104207,-0.2045881955534007 0.6553106212424848,-0.21687658905381513 0.659318637274549,-0.18993303748012802 0.6633266533066131,-0.22878572997434143 0.6673346693386772,-0.20265622442192277 0.6713426853707414,-0.21665593294472696 0.6753507014028055,-0.22438918161697907 0.6793587174348696,-0.24598857620572967 0.6833667334669338,-0.27694068704258556 0.6873747494989979,-0.2637580062809999 0.691382765531062,-0.27882134919380686 0.6953907815631262,-0.2500783104098776 0.6993987975951903,-0.31195735732088514 0.7034068136272544,-0.3278295090763552 0.7074148296593186,-0.30899520037494765 0.7114228456913827,-0.30422893676445906 0.7154308617234468,-0.3144105774276047 0.719438877755511,-0.3230007722827576 0.7234468937875751,-0.29711428056757194 0.7274549098196392,-0.2992669295700465 0.7314629258517034,-0.2946757892637034 0.7354709418837675,-0.29125533418847904 0.7394789579158316,-0.34369118346989824 0.7434869739478958,-0.3350593836524276 0.7474949899799597,-0.31788780222033863 0.7515030060120238,-0.2761147733168139 0.7555110220440879,-0.2543476665768961 0.7595190380761521,-0.26414305883144973 0.7635270541082162,-0.3182093786545005 0.7675350701402803,-0.32463087595052664 0.7715430861723445,-0.3469832026509585 0.7755511022044086,-0.30104697641764655 0.7795591182364727,-0.22602382387980413 0.7835671342685369,-0.17558129628797892 0.787575150300601,-0.21858919777027597 0.7915831663326651,-0.22421358139937586 0.7955911823647293,-0.2847798957508967 0.7995991983967934,-0.2562433208106508 0.8036072144288575,-0.24264166656314068 0.8076152304609217,-0.25696701597260174 0.8116232464929858,-0.31062029429691307 0.8156312625250499,-0.3021762969951126 0.819639278557114,-0.3422448165670636 0.8236472945891782,-0.33391176210765816 0.8276553106212423,-0.32055254846534453 0.8316633266533064,-0.34191519039071605 0.8356713426853706,-0.3656970351272907 0.8396793587174347,-0.3594391712864832 0.8436873747494988,-0.34560865800359775 0.847695390781563,-0.37153577036305496 0.8517034068136271,-0.3584950660398023 0.8557114228456912,-0.30302884396628915 0.8597194388777554,-0.3146915251736673 0.8637274549098195,-0.3642979156814725 0.8677354709418836,-0.3049266407502971 0.8717434869739478,-0.3190935576591464 0.8757515030060119,-0.2922523414275109 0.879759519038076,-0.31623378052660267 0.8837675350701402,-0.3503004311444018 0.8877755511022043,-0.3215264963787884 0.8917835671342684,-0.3568493639382959 0.8957915831663326,-0.3366008458492712 0.8997995991983967,-0.33872984340232704 0.9038076152304608,-0.38245584327990756 0.907815631262525,-0.3947139130555781 0.9118236472945891,-0.3647428003930486 0.9158316633266532,-0.3553567157149816 0.9198396793587174,-0.35180519466047266 0.9238476953907815,-0.2825832811373278 0.9278557114228456,-0.1882904579310143 0.9318637274549098,-0.23715991538821668 0.9358717434869739,-0.2293257645487552 0.939879759519038,-0.24129576077960724 0.9438877755511021,-0.14934402049657935 0.9478957915831663,-0.1829212089895329 0.9519038076152302,-0.25342396616635354 0.9559118236472943,-0.3008549756388611 0.9599198396793585,-0.3085227273273752 0.9639278557114226,-0.2775400152261125 0.9679358717434867,-0.3058678840095572 0.9719438877755509,-0.3062234455993149 0.975951903807615,-0.32989259764782497 0.9799599198396791,-0.3135322435152741 0.9839679358717432,-0.31444554031948047 0.9879759519038074,-0.2920205144435073 0.9919839679358715,-0.30916698284881017 0.9959919839679356,-0.2818524052722572 0.9999999999999998,-0.22251854565264695" /></g><g stroke-width="7.0e-3" stroke="#431712" fill="none" stroke-opacity="0.5"><polyline points="-1.0,-0.23455733977200188 -0.9959919839679359,-0.22442566801630326 -0.9919839679358717,-0.21239803058026074 -0.9879759519038076,-0.21639302997317578 -0.9839679358717435,-0.22550026115485766 -0.9799599198396793,-0.22726494309948375 -0.9759519038076152,-0.2263181865889714 -0.9719438877755511,-0.22966627831114494 -0.9679358717434869,-0.24444274480018968 -0.9639278557114228,-0.24262199787008276 -0.9599198396793587,-0.2364303892131716 -0.9559118236472945,-0.23083929591812347 -0.9519038076152304,-0.22959092763660183 -0.9478957915831663,-0.23052357739531448 -0.9438877755511023,-0.21746801395611437 -0.9398797595190381,-0.21834463492992728 -0.935871743486974,-0.21629733828034914 -0.9318637274549099,-0.19300414112336906 -0.9278557114228457,-0.17385777892682486 -0.9238476953907816,-0.196840749605661 -0.9198396793587175,-0.18146730021222546 -0.9158316633266533,-0.1789408986929436 -0.9118236472945892,-0.19057218417767197 -0.9078156312625251,-0.17052552367269425 -0.9038076152304609,-0.1812081024136658 -0.8997995991983968,-0.19094612350679463 -0.8957915831663327,-0.19663247989193244 -0.8917835671342685,-0.17708628858732645 -0.8877755511022044,-0.179930201068645 -0.8837675350701403,-0.1940325930415434 -0.8797595190380761,-0.1891034470855888 -0.875751503006012,-0.19599113994337725 -0.8717434869739479,-0.1932993032871475 -0.8677354709418837,-0.2000520398008374 -0.8637274549098196,-0.20894393543069978 -0.8597194388777555,-0.20929354587363558 -0.8557114228456915,-0.20397076516812795 -0.8517034068136273,-0.19623590730976026 -0.8476953907815632,-0.19606336976537653 -0.8436873747494991,-0.18404735831383934 -0.8396793587174349,-0.1855574166409376 -0.8356713426853708,-0.19449041593054706 -0.8316633266533067,-0.19525810917787045 -0.8276553106212425,-0.18782284346306288 -0.8236472945891784,-0.1899244224365415 -0.8196392785571143,-0.18338021602815735 -0.8156312625250501,-0.18130558266317265 -0.811623246492986,-0.19247678284405434 -0.8076152304609219,-0.19534620623228216 -0.8036072144288577,-0.1948940274171841 -0.7995991983967936,-0.20327526920424788 -0.7955911823647295,-0.21131948896069008 -0.7915831663326653,-0.21245167557916234 -0.7875751503006012,-0.2128370097831641 -0.7835671342685371,-0.2062536890133888 -0.779559118236473,-0.2095737334627067 -0.7755511022044088,-0.20842011199761656 -0.7715430861723447,-0.20565812888686674 -0.7675350701402806,-0.21205416093602758 -0.7635270541082164,-0.2087762207866367 -0.7595190380761523,-0.2113832733288915 -0.7555110220440882,-0.2091148019791046 -0.751503006012024,-0.20655186757756827 -0.7474949899799599,-0.19538291408967556 -0.7434869739478958,-0.2068978754767936 -0.7394789579158316,-0.2001412608325135 -0.7354709418837675,-0.20992217947443115 -0.7314629258517034,-0.2136968298358406 -0.7274549098196392,-0.21392187343165892 -0.7234468937875751,-0.2215254790656268 -0.719438877755511,-0.22034021000463522 -0.7154308617234469,-0.2227850929646722 -0.7114228456913828,-0.2232655996406917 -0.7074148296593187,-0.22438561637095034 -0.7034068136272545,-0.21998885832018944 -0.6993987975951904,-0.22185145523988592 -0.6953907815631263,-0.22034252920922848 -0.6913827655310621,-0.21776993430271618 -0.687374749498998,-0.2133687020670645 -0.6833667334669339,-0.21459151286729927 -0.6793587174348698,-0.20790677862474893 -0.6753507014028056,-0.2093417953933877 -0.6713426853707415,-0.19532000862954646 -0.6673346693386774,-0.1972177127895245 -0.6633266533066133,-0.18841066550880126 -0.6593186372745492,-0.19429990988204038 -0.6553106212424851,-0.1947935332789713 -0.6513026052104209,-0.19757908669624147 -0.6472945891783568,-0.19233443840479725 -0.6432865731462927,-0.20071651889299014 -0.6392785571142285,-0.20889025446574883 -0.6352705410821644,-0.2173415479392361 -0.6312625250501003,-0.2203381156538753 -0.6272545090180361,-0.2126469332968306 -0.623246492985972,-0.22104612186420025 -0.6192384769539079,-0.22160362456335936 -0.6152304609218437,-0.22001583770722133 -0.6112224448897796,-0.22354774347838013 -0.6072144288577155,-0.225197882167132 -0.6032064128256514,-0.2205389315086559 -0.5991983967935872,-0.2190174157219189 -0.5951903807615231,-0.22040090670138013 -0.591182364729459,-0.22485334754140163 -0.5871743486973948,-0.23381968250128948 -0.5831663326653307,-0.22996259765613625 -0.5791583166332666,-0.22241544178493422 -0.5751503006012024,-0.21578214334383627 -0.5711422845691383,-0.22044225410705087 -0.5671342685370742,-0.21878838001277612 -0.56312625250501,-0.2235027532653222 -0.5591182364729459,-0.22788497116096407 -0.5551102204408818,-0.23105187059923038 -0.5511022044088176,-0.2334306904868063 -0.5470941883767535,-0.2324536337972365 -0.5430861723446894,-0.23019882674235792 -0.5390781563126252,-0.2217606830516301 -0.5350701402805611,-0.21679978848595327 -0.531062124248497,-0.22328160031053723 -0.5270541082164328,-0.21432870365158851 -0.5230460921843687,-0.22252972350643485 -0.5190380761523046,-0.22559318340201306 -0.5150300601202404,-0.22765049285842442 -0.5110220440881764,-0.2292980429733118 -0.5070140280561123,-0.2281869175332032 -0.5030060120240482,-0.22563334759080622 -0.498997995991984,-0.23197808685062304 -0.4949899799599199,-0.23993325738240578 -0.49098196392785576,-0.23945631229223008 -0.4869739478957916,-0.24514416293227725 -0.4829659318637275,-0.23927088342311098 -0.47895791583166336,-0.23864269012161565 -0.47494989979959923,-0.23596929636010677 -0.4709418837675351,-0.23199010084851424 -0.46693386773547096,-0.2270565146389425 -0.46292585170340683,-0.22382289502985941 -0.4589178356713427,-0.22539150868858593 -0.45490981963927857,-0.22910736527472786 -0.45090180360721444,-0.22882719759429504 -0.4468937875751503,-0.23436230227334176 -0.44288577154308617,-0.23393148927110774 -0.43887775551102204,-0.22656329557818622 -0.434869739478958,-0.2322706925665191 -0.4308617234468939,-0.23302411495228748 -0.42685370741482975,-0.24166597861358718 -0.4228456913827656,-0.24038727206571375 -0.4188376753507015,-0.23533245559383675 -0.41482965931863736,-0.23297914368503703 -0.4108216432865732,-0.22823821681413836 -0.4068136272545091,-0.2308835959884632 -0.40280561122244496,-0.2301320155377259 -0.3987975951903808,-0.2338598316615853 -0.3947895791583167,-0.2325921782676612 -0.39078156312625256,-0.23270211544968467 -0.38677354709418843,-0.22180344696886733 -0.3827655310621243,-0.21432822411737795 -0.37875751503006017,-0.2132554242389696 -0.37474949899799603,-0.21091957703480513 -0.3707414829659319,-0.17074064214485485 -0.36673346693386777,-0.14821661392013796 -0.36272545090180364,-0.16370006002109116 -0.3587174348697395,-0.15741289472367037 -0.35470941883767537,-0.18062571836696573 -0.35070140280561124,-0.18015492960491053 -0.3466933867735471,-0.1650956760344885 -0.342685370741483,-0.16467184669170176 -0.33867735470941884,-0.16018080710260973 -0.3346693386773547,-0.1544619141963851 -0.3306613226452907,-0.12231188060646181 -0.32665330661322656,-0.1411767417394606 -0.3226452905811624,-0.12438173361777971 -0.3186372745490983,-0.11835909179133175 -0.31462925851703416,-0.13398695718427922 -0.31062124248497003,-0.14472714682327603 -0.3066132264529059,-0.15508681640751965 -0.30260521042084176,-0.14903396076420605 -0.29859719438877763,-0.15455242055940732 -0.2945891783567135,-0.16067882367606812 -0.29058116232464937,-0.1816368170959588 -0.28657314629258523,-0.17899878760160393 -0.2825651302605211,-0.1699722738796684 -0.27855711422845697,-0.1509066131222967 -0.27454909819639284,-0.1495748059377413 -0.2705410821643287,-0.1424160921178197 -0.2665330661322646,-0.1527818604744453 -0.26252505010020044,-0.15498393127626897 -0.2585170340681363,-0.1389334552296141 -0.2545090180360722,-0.12158704629372696 -0.25050100200400804,-0.12486287964229903 -0.2464929859719439,-0.11893051549872602 -0.24248496993987978,-0.13417850087060845 -0.23847695390781565,-0.13754401146269624 -0.23446893787575152,-0.15987841572836925 -0.2304609218436875,-0.1578114983654636 -0.22645290581162336,-0.16559555017968497 -0.22244488977955923,-0.17598511508068115 -0.2184368737474951,-0.1448763804398252 -0.21442885771543096,-0.1436194563031693 -0.21042084168336683,-0.12181080269539057 -0.2064128256513027,-0.12381482977163671 -0.20240480961923857,-0.12385507117772476 -0.19839679358717444,-0.12922665547570233 -0.1943887775551103,-0.12935512321151832 -0.19038076152304617,-0.11157585850130813 -0.18637274549098204,-9.232477889343405e-2 -0.1823647294589179,-9.309657295827733e-2 -0.17835671342685377,-7.923617468323751e-2 -0.17434869739478964,-6.512660225648303e-2 -0.1703406813627255,-4.636007392374919e-2 -0.16633266533066138,-2.1105894838504113e-2 -0.16232464929859725,-6.48281593872786e-2 -0.1583166332665331,-7.314087601953267e-2 -0.15430861723446898,-7.285227716445264e-2 -0.15030060120240485,-8.1072527620631e-2 -0.14629258517034072,-8.29039851258152e-2 -0.14228456913827658,-6.1098918242265654e-2 -0.13827655310621245,-9.175675879839518e-2 -0.13426853707414832,-9.842710554396383e-2 -0.1302605210420842,-0.10738549138021403 -0.12625250501002017,-0.11137902886939555 -0.12224448897795603,-0.1157108508376784 -0.1182364729458919,-0.11590321673771753 -0.11422845691382777,-0.111580919586179 -0.11022044088176364,-0.1214642461657236 -0.1062124248496995,-0.12370004150851577 -0.10220440881763537,-0.1307185610577648 -9.819639278557124e-2,-0.14274295471230858 -9.418837675350711e-2,-0.13018163223692458 -9.018036072144298e-2,-0.13232865587545473 -8.617234468937884e-2,-0.13371743735120756 -8.216432865731471e-2,-0.14154191942918792 -7.815631262525058e-2,-0.13453066622207033 -7.414829659318645e-2,-0.1333450187082159 -7.014028056112231e-2,-0.14777850927274738 -6.613226452905818e-2,-0.15564334593347662 -6.212424849699405e-2,-0.15637655807422035 -5.811623246492992e-2,-0.16252285609168138 -5.4108216432865786e-2,-0.16670793371458337 -5.010020040080165e-2,-0.16446086812697858 -4.609218436873752e-2,-0.1556894029369953 -4.208416833667339e-2,-0.15623423550734827 -3.8076152304609256e-2,-0.1568075325011813 -3.4068136272545124e-2,-0.1689329702968292 -3.0060120240480992e-2,-0.17155560411612114 -2.605210420841686e-2,-0.16882518249176415 -2.204408817635284e-2,-0.17900898560751466 -1.8036072144288706e-2,-0.18010905585317105 -1.4028056112224574e-2,-0.18146939690260744 -1.0020040080160442e-2,-0.17777459158887443 -6.012024048096309e-3,-0.18365864637199003 -2.004008016032177e-3,-0.18447771626839926 2.004008016031955e-3,-0.18333964020562699 6.012024048096087e-3,-0.18244803527661646 1.002004008016022e-2,-0.17934841146929492 1.4028056112224352e-2,-0.18583771870089294 1.8036072144288484e-2,-0.1816557658038862 2.2044088176352616e-2,-0.1801943335203966 2.605210420841675e-2,-0.17344647576777383 3.006012024048088e-2,-0.1651746238019185 3.406813627254501e-2,-0.16287562479878048 3.8076152304609145e-2,-0.1776827778744018 4.208416833667328e-2,-0.18034598139531266 4.609218436873741e-2,-0.187060196462845 5.010020040080154e-2,-0.18579232488427955 5.4108216432865675e-2,-0.19048924404511758 5.811623246492981e-2,-0.1938441987708095 6.212424849699394e-2,-0.19324639288849765 6.613226452905807e-2,-0.18977924594434092 7.01402805611222e-2,-0.20070941429246003 7.414829659318634e-2,-0.1810871470684604 7.815631262525047e-2,-0.17990304342565255 8.21643286573146e-2,-0.18702589586701113 8.617234468937873e-2,-0.1818843193391918 9.018036072144286e-2,-0.18527562666558994 9.4188376753507e-2,-0.19195810029530314 9.819639278557113e-2,-0.20375544225349307 0.10220440881763526,-0.2032201385546374 0.1062124248496994,-0.20492467959541394 0.11022044088176353,-0.20655409955892334 0.11422845691382766,-0.2108972232315468 0.11823647294589179,-0.21137868447286134 0.12224448897795592,-0.20432809305572863 0.12625250501002006,-0.2074980398351879 0.13026052104208397,-0.20693804080676892 0.1342685370741481,-0.2135443777027105 0.13827655310621223,-0.21219948437152092 0.14228456913827636,-0.21210163907245605 0.1462925851703405,-0.20896873662904136 0.15030060120240463,-0.21008397000319878 0.15430861723446876,-0.21056585450729703 0.1583166332665329,-0.21986271516844236 0.16232464929859702,-0.21669833240228886 0.16633266533066116,-0.21557938860131165 0.1703406813627253,-0.22017497140733266 0.17434869739478942,-0.22063781452978248 0.17835671342685355,-0.2209629203308694 0.18236472945891768,-0.21176484612986368 0.18637274549098182,-0.20868572932710172 0.19038076152304595,-0.21923913659914762 0.19438877755511008,-0.21341494758743962 0.1983967935871742,-0.19424562895109776 0.20240480961923835,-0.19194586536005576 0.20641282565130248,-0.18805567023457304 0.2104208416833666,-0.19191841716582037 0.21442885771543074,-0.16471103952989763 0.21843687374749488,-0.17358286366439823 0.222444889779559,-0.17989912564743604 0.22645290581162314,-0.18966799526086375 0.23046092184368727,-0.18274809946986637 0.2344689378757514,-0.17486938258920848 0.23847695390781554,-0.18429028150059545 0.24248496993987967,-0.18074635449173637 0.2464929859719438,-0.16712215178851741 0.25050100200400793,-0.16846291774774902 0.25450901803607207,-0.15885073011448425 0.2585170340681362,-0.15095691648541676 0.26252505010020033,-0.15332831713035577 0.26653306613226446,-0.1384455009678066 0.2705410821643286,-0.13540703620334515 0.2745490981963927,-0.1607109817348088 0.27855711422845686,-0.16982469744758422 0.282565130260521,-0.1765492144828138 0.2865731462925851,-0.18822206758790594 0.29058116232464926,-0.19309804834990763 0.2945891783567134,-0.19226986408691638 0.2985971943887775,-0.18953992851512935 0.30260521042084165,-0.1938253328440317 0.3066132264529058,-0.19154236600662256 0.3106212424849699,-0.19219077936879647 0.31462925851703405,-0.20309771941783905 0.3186372745490982,-0.20601436754639857 0.3226452905811623,-0.21653027247235634 0.32665330661322645,-0.21440079668153844 0.3306613226452906,-0.21173482467739058 0.3346693386773545,-0.20012081930766423 0.3386773547094186,-0.19817135500700933 0.34268537074148275,-0.2021844622165192 0.3466933867735469,-0.2084768675677695 0.350701402805611,-0.2170173628462 0.35470941883767515,-0.21980902554574855 0.3587174348697393,-0.22828197422145136 0.3627254509018034,-0.2253367686878398 0.36673346693386755,-0.21881092941557545 0.3707414829659317,-0.2195875313301009 0.3747494989979958,-0.2243289895689481 0.37875751503005994,-0.22633080669538952 0.3827655310621241,-0.23117842318891402 0.3867735470941882,-0.23054977320584036 0.39078156312625234,-0.22555129011398978 0.3947895791583165,-0.21678197901379315 0.3987975951903806,-0.22050615304157495 0.40280561122244474,-0.2121804701771216 0.40681362725450887,-0.21503449268174502 0.410821643286573,-0.22291836770960416 0.41482965931863713,-0.22801315292161894 0.41883767535070127,-0.22065020214349806 0.4228456913827654,-0.22921448287085977 0.42685370741482953,-0.22635624458870984 0.43086172344689366,-0.2223088894839591 0.4348697394789578,-0.2079653317379897 0.4388777555110219,-0.19618647441932235 0.44288577154308606,-0.18666865639148178 0.4468937875751502,-0.15088513732257813 0.4509018036072143,-0.16638731486728742 0.45490981963927846,-0.16710559595130248 0.4589178356713426,-0.18935188565784278 0.4629258517034067,-0.18142574359527486 0.46693386773547085,-0.16716521256262296 0.470941883767535,-0.18460636011479692 0.4749498997995991,-0.15209856889590434 0.47895791583166325,-0.15477194754903445 0.4829659318637274,-0.17066164117419058 0.4869739478957915,-0.1837265790217053 0.49098196392785565,-0.17493725365856627 0.4949899799599198,-0.1836982893158079 0.4989979959919839,-0.18284027657635227 0.503006012024048,-0.15490604526211615 0.5070140280561122,-0.16659718598043183 0.5110220440881763,-0.1630901771125186 0.5150300601202404,-0.16997391121450056 0.5190380761523046,-0.18345059148944054 0.5230460921843687,-0.18383514220865416 0.5270541082164328,-0.1762163375000264 0.531062124248497,-0.18768975017975797 0.5350701402805611,-0.20140888148991543 0.539078156312625,-0.20190686252252543 0.5430861723446891,-0.2013266063709428 0.5470941883767533,-0.20119813366033423 0.5511022044088174,-0.20859248211986492 0.5551102204408815,-0.2111723994993957 0.5591182364729457,-0.2098059481812784 0.5631262525050098,-0.2058166556042038 0.5671342685370739,-0.20813468177907135 0.5711422845691381,-0.2079605616220339 0.5751503006012022,-0.20742952106590729 0.5791583166332663,-0.20144087127272414 0.5831663326653305,-0.2008414381125342 0.5871743486973946,-0.19095763088104722 0.5911823647294587,-0.19754740318930208 0.5951903807615229,-0.19435729130024526 0.599198396793587,-0.18793341663746999 0.6032064128256511,-0.19334881358080425 0.6072144288577153,-0.1791015031325588 0.6112224448897794,-0.15883506073813414 0.6152304609218435,-0.1677713988005709 0.6192384769539077,-0.18376466470000863 0.6232464929859718,-0.17849050653125542 0.6272545090180359,-0.1610673648351837 0.6312625250501,-0.17115879646749377 0.6352705410821642,-0.17813453264497792 0.6392785571142283,-0.1901562793499293 0.6432865731462925,-0.18825722722340066 0.6472945891783566,-0.19910224752251415 0.6513026052104207,-0.19642662388125443 0.6553106212424848,-0.19910245677169303 0.659318637274549,-0.19425329202011254 0.6633266533066131,-0.2016519453000929 0.6673346693386772,-0.19714290016190494 0.6713426853707414,-0.19995148553898845 0.6753507014028055,-0.20168291956173412 0.6793587174348696,-0.20588776703941147 0.6833667334669338,-0.21181917566434616 0.6873747494989979,-0.21026876419941753 0.691382765531062,-0.2134826536503327 0.6953907815631262,-0.20935371020396198 0.6993987975951903,-0.22018533295898368 0.7034068136272544,-0.22385631437909326 0.7074148296593186,-0.22174718987967923 0.7114228456913827,-0.22187969974922017 0.7154308617234468,-0.22442529262373745 0.719438877755511,-0.22675454577801746 0.7234468937875751,-0.2236491490658008 0.7274549098196392,-0.22480617940743564 0.7314629258517034,-0.22492400178273053 0.7354709418837675,-0.22519441739208035 0.7394789579158316,-0.2338876528119873 0.7434869739478958,-0.23366183383449313 0.7474949899799597,-0.2320914162047999 0.7515030060120238,-0.2266369546996463 0.7555110220440879,-0.22390186264718048 0.7595190380761521,-0.2258595732726445 0.7635270541082162,-0.23451207847068978 0.7675350701402803,-0.23639918397537385 0.7715430861723445,-0.24077150412241655 0.7755511022044086,-0.23479231810811285 0.7795591182364727,-0.22307820545771606 0.7835671342685369,-0.21400843467546626 0.787575150300601,-0.22136335305678867 0.7915831663326651,-0.22252634615897682 0.7955911823647293,-0.23343793139468083 0.7995991983967934,-0.22858333946554132 0.8036072144288575,-0.2263799303279116 0.8076152304609217,-0.22930952214839462 0.8116232464929858,-0.23953128310701466 0.8156312625250499,-0.23869838996461334 0.819639278557114,-0.2470017877710382 0.8236472945891782,-0.24642760606475056 0.8276553106212423,-0.24486358511523387 0.8316633266533064,-0.24967703833476096 0.8356713426853706,-0.25509057756530196 0.8396793587174347,-0.2551206797568991 0.8436873747494988,-0.25375497413897663 0.847695390781563,-0.25943458414274134 0.8517034068136271,-0.2583189915866969 0.8557114228456912,-0.24949182643884027 0.8597194388777554,-0.25235059126628856 0.8637274549098195,-0.2624556421715146 0.8677354709418836,-0.2518663406310858 0.8717434869739478,-0.25548404453925866 0.8757515030060119,-0.25061806647154805 0.879759519038076,-0.25611150478757183 0.8837675350701402,-0.26391541370667126 0.8877755511022043,-0.258858791467662 0.8917835671342684,-0.26709311880332454 0.8957915831663326,-0.263794004526969 0.8997995991983967,-0.2650995672197163 0.9038076152304608,-0.27521644591483607 0.907815631262525,-0.2791082130209206 0.9118236472945891,-0.274099451139049 0.9158316633266532,-0.27314997425601484 0.9198396793587174,-0.27337547210790836 0.9238476953907815,-0.25958254612667064 0.9278557114228456,-0.23713870329067122 0.9318637274549098,-0.24960317708879187 0.9358717434869739,-0.2474041204245193 0.939879759519038,-0.25052884639196615 0.9438877755511021,-0.22626249849689306 0.9478957915831663,-0.234842780593158 0.9519038076152302,-0.2533182472018084 0.9559118236472943,-0.2665174866443294 0.9599198396793585,-0.26952600940046123 0.9639278557114226,-0.26150259417832267 0.9679358717434867,-0.26963391581068386 0.9719438877755509,-0.2705575870989172 0.975951903807615,-0.2775374380724024 0.9799599198396791,-0.27416295793522827 0.9839679358717432,-0.2752485676129819 0.9879759519038074,-0.2702133706455263 0.9919839679358715,-0.2750327016141271 0.9959919839679356,-0.2688123607524777 0.9999999999999998,-0.25401792508630405" /></g><g /><g stroke-width="4.0e-3" stroke="#3764A0" fill="#FFFFFF" fill-opacity="1.0" stroke-opacity="0.5"><rect width="0.34350000000000014" height="0.15500000000000003" x="1.1812499999999997" y="-6.867041083776254e-3" /></g><g stroke-width="0.0" stroke="none" fill="#666666" fill-opacity="1.0" font-size="4.000000000000001e-2" text-anchor="start"><text x="1.2012499999999997" y="0.10713295891622376">rate = 0.99</text></g><g stroke-width="6.999999999999999e-3" stroke="#431712" fill="none" stroke-opacity="0.5"><polyline points="1.4612499999999997,0.10053295891622377 1.5012499999999998,0.10053295891622377" /></g><g stroke-width="0.0" stroke="none" fill="#666666" fill-opacity="1.0" font-size="4.000000000000001e-2" text-anchor="start"><text x="1.2012499999999997" y="5.0132958916223755e-2">rate = 0.95</text></g><g stroke-width="6.999999999999999e-3" stroke="#4B2282" fill="none" stroke-opacity="0.5"><polyline points="1.4612499999999997,4.3532958916223746e-2 1.5012499999999998,4.3532958916223746e-2" /></g><g /></svg>