
<svg xmlns="http://www.w3.org/2000/svg" height="300.0" viewBox="-0.9104277680948124 -0.7283312039844088 1.7014318670455961 1.461347121816856" width="450.0" xmlns:xlink="http://www.w3.org/1999/xlink">
  <g transform="translate(-8.219640591007693e-2, -0.57175)" fill-opacity="1.0" font-size="8.0e-2" stroke="none" stroke-width="0.0" fill="#000000" text-anchor="middle">
    <text transform="rotate(0.0, -0.14087383487083993, -6.25812039844088e-2)" x="-0.14087383487083993" y="-6.25812039844088e-2">std alpha
    </text>
  </g>
  <g stroke-opacity="0.0" fill-opacity="3.0e-2" stroke="#000000" stroke-width="0.0" fill="#666666">
    <rect height="0.8661758336942399" width="1.1519299626582706" x="-0.7168388161999752" y="-0.4956691208315287"/>
  </g>
  <g stroke-opacity="0.3" stroke="#a8e5ee" stroke-width="5.0e-3" fill="none">
    <polyline points="-0.7145349562746587,0.3748375920311824
-0.7145349562746587,-0.5"/>
  </g>
  <g stroke-opacity="0.3" stroke="#a8e5ee" stroke-width="5.0e-3" fill="none">
    <polyline points="-0.6638500379176948,0.3748375920311824
-0.6638500379176948,-0.5"/>
  </g>
  <g stroke-opacity="0.3" stroke="#a8e5ee" stroke-width="5.0e-3" fill="none">
    <polyline points="-0.5164030026974362,0.3748375920311824
-0.5164030026974362,-0.5"/>
  </g>
  <g stroke-opacity="0.3" stroke="#a8e5ee" stroke-width="5.0e-3" fill="none">
    <polyline points="-0.371259827402494,0.3748375920311824
-0.371259827402494,-0.5"/>
  </g>
  <g stroke-opacity="0.3" stroke="#a8e5ee" stroke-width="5.0e-3" fill="none">
    <polyline points="-0.22611665210755194,0.3748375920311824
-0.22611665210755194,-0.5"/>
  </g>
  <g stroke-opacity="0.3" stroke="#a8e5ee" stroke-width="5.0e-3" fill="none">
    <polyline points="-8.558119666324293e-2,0.3748375920311824
-8.558119666324293e-2,-0.5"/>
  </g>
  <g stroke-opacity="0.3" stroke="#a8e5ee" stroke-width="5.0e-3" fill="none">
    <polyline points="5.956197863169921e-2,0.3748375920311824
5.956197863169921e-2,-0.5"/>
  </g>
  <g stroke-opacity="0.3" stroke="#a8e5ee" stroke-width="5.0e-3" fill="none">
    <polyline points="0.2070090138519578,0.3748375920311824
0.2070090138519578,-0.5"/>
  </g>
  <g stroke-opacity="0.3" stroke="#a8e5ee" stroke-width="5.0e-3" fill="none">
    <polyline points="0.3544560490722164,0.3748375920311824
0.3544560490722164,-0.5"/>
  </g>
  <g stroke-opacity="0.3" stroke="#a8e5ee" stroke-width="5.0e-3" fill="none">
    <polyline points="0.4350911464582954,0.3748375920311824
0.4350911464582954,-0.5"/>
  </g>
  <g fill-opacity="1.0" font-size="5.0e-2" stroke="none" stroke-width="0.0" fill="#666666" text-anchor="end">
    <text transform="rotate(-45.0, -0.7145349562746587, 0.5)" x="-0.7145349562746587" y="0.5">27 Feb 2018
    </text>
  </g>
  <g fill-opacity="1.0" font-size="5.0e-2" stroke="none" stroke-width="0.0" fill="#666666" text-anchor="end">
    <text transform="rotate(-45.0, -0.6638500379176948, 0.5)" x="-0.6638500379176948" y="0.5">31 Mar 2018
    </text>
  </g>
  <g fill-opacity="1.0" font-size="5.0e-2" stroke="none" stroke-width="0.0" fill="#666666" text-anchor="end">
    <text transform="rotate(-45.0, -0.5164030026974362, 0.5)" x="-0.5164030026974362" y="0.5">30 Jun 2018
    </text>
  </g>
  <g fill-opacity="1.0" font-size="5.0e-2" stroke="none" stroke-width="0.0" fill="#666666" text-anchor="end">
    <text transform="rotate(-45.0, -0.371259827402494, 0.5)" x="-0.371259827402494" y="0.5">30 Sep 2018
    </text>
  </g>
  <g fill-opacity="1.0" font-size="5.0e-2" stroke="none" stroke-width="0.0" fill="#666666" text-anchor="end">
    <text transform="rotate(-45.0, -0.22611665210755194, 0.5)" x="-0.22611665210755194" y="0.5">31 Dec 2018
    </text>
  </g>
  <g fill-opacity="1.0" font-size="5.0e-2" stroke="none" stroke-width="0.0" fill="#666666" text-anchor="end">
    <text transform="rotate(-45.0, -8.558119666324293e-2, 0.5)" x="-8.558119666324293e-2" y="0.5">31 Mar 2019
    </text>
  </g>
  <g fill-opacity="1.0" font-size="5.0e-2" stroke="none" stroke-width="0.0" fill="#666666" text-anchor="end">
    <text transform="rotate(-45.0, 5.956197863169921e-2, 0.5)" x="5.956197863169921e-2" y="0.5">30 Jun 2019
    </text>
  </g>
  <g fill-opacity="1.0" font-size="5.0e-2" stroke="none" stroke-width="0.0" fill="#666666" text-anchor="end">
    <text transform="rotate(-45.0, 0.2070090138519578, 0.5)" x="0.2070090138519578" y="0.5">30 Sep 2019
    </text>
  </g>
  <g fill-opacity="1.0" font-size="5.0e-2" stroke="none" stroke-width="0.0" fill="#666666" text-anchor="end">
    <text transform="rotate(-45.0, 0.3544560490722164, 0.5)" x="0.3544560490722164" y="0.5">31 Dec 2019
    </text>
  </g>
  <g fill-opacity="1.0" font-size="5.0e-2" stroke="none" stroke-width="0.0" fill="#666666" text-anchor="end">
    <text transform="rotate(-45.0, 0.4350911464582954, 0.5)" x="0.4350911464582954" y="0.5">21 Feb 2020
    </text>
  </g>
  <g stroke-opacity="0.4" fill-opacity="1.0" stroke="#2c429d" stroke-width="5.0e-3" fill="#5f0391">
    <polyline points="-0.7145349562746587,0.4424577739281074
-0.7145349562746587,0.4124577739281074"/>
    <polyline points="-0.6638500379176948,0.4424577739281074
-0.6638500379176948,0.4124577739281074"/>
    <polyline points="-0.5164030026974362,0.4424577739281074
-0.5164030026974362,0.4124577739281074"/>
    <polyline points="-0.371259827402494,0.4424577739281074
-0.371259827402494,0.4124577739281074"/>
    <polyline points="-0.22611665210755194,0.4424577739281074
-0.22611665210755194,0.4124577739281074"/>
    <polyline points="-8.558119666324293e-2,0.4424577739281074
-8.558119666324293e-2,0.4124577739281074"/>
    <polyline points="5.956197863169921e-2,0.4424577739281074
5.956197863169921e-2,0.4124577739281074"/>
    <polyline points="0.2070090138519578,0.4424577739281074
0.2070090138519578,0.4124577739281074"/>
    <polyline points="0.3544560490722164,0.4424577739281074
0.3544560490722164,0.4124577739281074"/>
    <polyline points="0.4350911464582954,0.4424577739281074
0.4350911464582954,0.4124577739281074"/>
  </g>
  <g stroke-opacity="0.0" fill-opacity="0.5" stroke="#666666" stroke-width="0.0" fill="#5f0391">
    <rect height="4.330879168471247e-3" width="1.1519299626582706" x="-0.7168388161999752" y="0.4144651364226938"/>
  </g>
  <g stroke-opacity="0.3" stroke="#a8e5ee" stroke-width="5.0e-3" fill="none">
    <polyline points="-0.7197186411066209,0.3705067128627112
0.4379709713649409,0.3705067128627112"/>
  </g>
  <g stroke-opacity="0.3" stroke="#a8e5ee" stroke-width="5.0e-3" fill="none">
    <polyline points="-0.7197186411066209,0.2261440739136712
0.4379709713649409,0.2261440739136712"/>
  </g>
  <g stroke-opacity="0.3" stroke="#a8e5ee" stroke-width="5.0e-3" fill="none">
    <polyline points="-0.7197186411066209,8.17814349646312e-2
0.4379709713649409,8.17814349646312e-2"/>
  </g>
  <g stroke-opacity="0.3" stroke="#a8e5ee" stroke-width="5.0e-3" fill="none">
    <polyline points="-0.7197186411066209,-6.25812039844088e-2
0.4379709713649409,-6.25812039844088e-2"/>
  </g>
  <g stroke-opacity="0.3" stroke="#a8e5ee" stroke-width="5.0e-3" fill="none">
    <polyline points="-0.7197186411066209,-0.2069438429334487
0.4379709713649409,-0.2069438429334487"/>
  </g>
  <g stroke-opacity="0.3" stroke="#a8e5ee" stroke-width="5.0e-3" fill="none">
    <polyline points="-0.7197186411066209,-0.3513064818824887
0.4379709713649409,-0.3513064818824887"/>
  </g>
  <g stroke-opacity="0.3" stroke="#a8e5ee" stroke-width="5.0e-3" fill="none">
    <polyline points="-0.7197186411066209,-0.4956691208315287
0.4379709713649409,-0.4956691208315287"/>
  </g>
  <g fill-opacity="1.0" font-size="5.0e-2" stroke="none" stroke-width="0.0" fill="#666666" text-anchor="end">
    <text x="-0.75" y="0.3830662624512776">-60%
    </text>
  </g>
  <g fill-opacity="1.0" font-size="5.0e-2" stroke="none" stroke-width="0.0" fill="#666666" text-anchor="end">
    <text x="-0.75" y="0.23870362350223773">-40%
    </text>
  </g>
  <g fill-opacity="1.0" font-size="5.0e-2" stroke="none" stroke-width="0.0" fill="#666666" text-anchor="end">
    <text x="-0.75" y="9.434098455319773e-2">-20%
    </text>
  </g>
  <g fill-opacity="1.0" font-size="5.0e-2" stroke="none" stroke-width="0.0" fill="#666666" text-anchor="end">
    <text x="-0.75" y="-5.0021654395842385e-2">0%
    </text>
  </g>
  <g fill-opacity="1.0" font-size="5.0e-2" stroke="none" stroke-width="0.0" fill="#666666" text-anchor="end">
    <text x="-0.75" y="-0.19438429334488216">20%
    </text>
  </g>
  <g fill-opacity="1.0" font-size="5.0e-2" stroke="none" stroke-width="0.0" fill="#666666" text-anchor="end">
    <text x="-0.75" y="-0.3387469322939223">40%
    </text>
  </g>
  <g fill-opacity="1.0" font-size="5.0e-2" stroke="none" stroke-width="0.0" fill="#666666" text-anchor="end">
    <text x="-0.75" y="-0.4831095712429623">60%
    </text>
  </g>
  <g stroke-opacity="0.4" fill-opacity="1.0" stroke="#2c429d" stroke-width="5.0e-3" fill="#5f0391">
    <g transform="rotate(-90.0, -0.7312379407332036, 0.3705067128627112)">
      <polyline points="-0.7312379407332036,0.3855067128627112
-0.7312379407332036,0.3555067128627112"/>
    </g>
    <g transform="rotate(-90.0, -0.7312379407332036, 0.2261440739136712)">
      <polyline points="-0.7312379407332036,0.2411440739136712
-0.7312379407332036,0.21114407391367118"/>
    </g>
    <g transform="rotate(-90.0, -0.7312379407332036, 8.17814349646312e-2)">
      <polyline points="-0.7312379407332036,9.67814349646312e-2
-0.7312379407332036,6.67814349646312e-2"/>
    </g>
    <g transform="rotate(-90.0, -0.7312379407332036, -6.25812039844088e-2)">
      <polyline points="-0.7312379407332036,-4.758120398440881e-2
-0.7312379407332036,-7.75812039844088e-2"/>
    </g>
    <g transform="rotate(-90.0, -0.7312379407332036, -0.2069438429334487)">
      <polyline points="-0.7312379407332036,-0.19194384293344868
-0.7312379407332036,-0.2219438429334487"/>
    </g>
    <g transform="rotate(-90.0, -0.7312379407332036, -0.3513064818824887)">
      <polyline points="-0.7312379407332036,-0.3363064818824887
-0.7312379407332036,-0.3663064818824887"/>
    </g>
    <g transform="rotate(-90.0, -0.7312379407332036, -0.4956691208315287)">
      <polyline points="-0.7312379407332036,-0.4806691208315287
-0.7312379407332036,-0.5106691208315287"/>
    </g>
  </g>
  <g stroke-opacity="0.0" fill-opacity="0.5" stroke="#666666" stroke-width="0.0" fill="#5f0391">
    <rect height="0.8661758336942399" width="2.8798249066456227e-3" x="-0.7254782909199122" y="-0.4956691208315287"/>
  </g>
  <g stroke-opacity="0.5" stroke="#ac0505" stroke-width="2.0e-3" fill="none">
    <polyline points="-0.7145349562746587,-6.25812039844088e-2
0.4350911464582954,-6.25812039844088e-2"/>
  </g>
  <g stroke-opacity="0.5" stroke="#4b2282" stroke-width="7.0e-3" fill="none">
    <polyline points="-0.7145349562746587,-6.256525801040613e-2
-0.7122310963493421,-6.223806598379922e-2
-0.7099272364240256,-6.185875101899552e-2
-0.707623376498709,-6.202942081791629e-2
-0.7053195165733925,-6.237765182158983e-2
-0.703015656648076,-6.245259848577811e-2
-0.7007117967227594,-6.242968908392066e-2
-0.6984079367974428,-6.256452411893687e-2
-0.6961040768721263,-6.313714427579853e-2
-0.6938002169468098,-6.30569432746485e-2
-0.6914963570214933,-6.281876752438631e-2
-0.6891924970961767,-6.260877390428166e-2
-0.6868886371708601,-6.256884123197048e-2
-0.6845847772455436,-6.261607420169502e-2
-0.6822809173202271,-6.21162353772029e-2
-0.6799770573949105,-6.217956224061316e-2
-0.677673197469594,-6.212284947197566e-2
-0.6753693375442774,-6.1255648190361e-2
-0.673065477618961,-6.06201148884411e-2
-0.6707616176936444,-6.1616188636173685e-2
-0.6684577577683278,-6.11275569901607e-2
-0.6661538978430113,-6.109644305348183e-2
-0.6638500379176948,-6.158850020923412e-2
-0.6615461779923782,-6.092881321731758e-2
-0.6592423180670617,-6.1384213928730835e-2
-0.6569384581417451,-6.178854960317437e-2
-0.6546345982164286,-6.202788083725341e-2
-0.6523307382911121,-6.13564541987246e-2
-0.6500268783657955,-6.1507433262107836e-2
-0.647723018440479,-6.208827882668044e-2
-0.6454191585151624,-6.1926973099559524e-2
-0.6431152985898458,-6.221597165323911e-2
-0.6408114386645294,-6.2128403243206565e-2
-0.6385075787392128,-6.241496867483021e-2
-0.6362037188138963,-6.278138259801946e-2
-0.6338998588885797,-6.278942948317445e-2
-0.6315959989632631,-6.256788433886995e-2
-0.6292921390379467,-6.22541394928382e-2
-0.6269882791126301,-6.226235898789256e-2
-0.6246844191873135,-6.177711454881363e-2
-0.622380559261997,-6.187673069282407e-2
-0.6200766993366804,-6.2307503971218425e-2
-0.617772839411364,-6.235561829650671e-2
-0.6154689794860474,-6.204253431544582e-2
-0.6131651195607308,-6.216355692450204e-2
-0.6108612596354144,-6.188939983010444e-2
-0.6085573997100978,-6.182588784397636e-2
-0.6062535397847812,-6.2403484422323796e-2
-0.6039496798594648,-6.254899587359986e-2
-0.6016458199341481,-6.253442572955004e-2
-0.5993419600088317,-6.29458614377606e-2
-0.5970381000835151,-6.331892903187897e-2
-0.5947342401581985,-6.334901911400193e-2
-0.592430380232882,-6.334235127643073e-2
-0.5901265203075654,-6.299123663747708e-2
-0.587822660382249,-6.314459728343014e-2
-0.5855188004569324,-6.306933569726492e-2
-0.5832149405316158,-6.291404227206121e-2
-0.5809110806062993,-6.323669832819623e-2
-0.5786072206809827,-6.304593362707034e-2
-0.5763033607556662,-6.316900993020447e-2
-0.5739995008303497,-6.303012103531769e-2
-0.5716956409050331,-6.288000686801754e-2
-0.5693917809797165,-6.229324517813262e-2
-0.5670879210544,-6.290806151828576e-2
-0.5647840611290835,-6.25794789704528e-2
-0.562480201203767,-6.305797046317219e-2
-0.5601763412784504,-6.322172201990883e-2
-0.5578724813531338,-6.321318954440569e-2
-0.5555686214278173,-6.355661739955831e-2
-0.5532647615025008,-6.346681748447558e-2
-0.5509609015771842,-6.355584599636299e-2
-0.5486570416518677,-6.354591904907025e-2
-0.5463531817265511,-6.356853167242404e-2
-0.5440493218012346,-6.3307639945833e-2
-0.5417454618759181,-6.33789900846562e-2
-0.5394416019506015,-6.327348865914462e-2
-0.537137742025285,-6.311582798548421e-2
-0.5348338820999685,-6.286942532478557e-2
-0.5325300221746518,-6.292936032193952e-2
-0.5302261622493354,-6.257498603011658e-2
-0.5279223023240188,-6.265878284776549e-2
-0.5256184423987023,-6.20030716868647e-2
-0.5233145824733857,-6.212325564086352e-2
-0.5210107225480691,-6.1765073628763933e-2
-0.5187068626227527,-6.20866620053514e-2
-0.516403002697436,-6.2136048309080594e-2
-0.5140991427721195,-6.229151497787755e-2
-0.5117952828468031,-6.2076276851827705e-2
-0.5094914229214865,-6.250645459985693e-2
-0.50718756299617,-6.288458706212818e-2
-0.5048837030708534,-6.324354024495038e-2
-0.5025798431455368,-6.33499353060688e-2
-0.5002759832202204,-6.300174604112119e-2
-0.4979721232949038,-6.334123219758436e-2
-0.49566826336958725,-6.334164350334626e-2
-0.4933644034442707,-6.325311903299924e-2
-0.4910605435189542,-6.338284556729035e-2
-0.4887566835936376,-6.342862938326876e-2
-0.4864528236683211,-6.319962515765298e-2
-0.48414896374300453,-6.311667623507566e-2
-0.481845103817688,-6.316388023704889e-2
-0.47954124389237146,-6.3347003843093e-2
-0.4772373839670549,-6.371621079361323e-2
-0.47493352404173844,-6.351126051622158e-2
-0.47262966411642193,-6.315978036979741e-2
-0.47032580419110537,-6.28759655178025e-2
-0.4680219442657888,-6.306488859152282e-2
-0.46571808434047224,-6.298872376433828e-2
-0.46341422441515573,-6.317830320621598e-2
-0.46111036448983916,-6.334578421174286e-2
-0.45880650456452265,-6.345658659400322e-2
-0.4565026446392061,-6.353110121238703e-2
-0.4541987847138896,-6.346015512623093e-2
-0.45189492478857296,-6.333580605434619e-2
-0.44959106486325645,-6.295455922032334e-2
-0.44728720493793994,-6.275073740251702e-2
-0.4449833450126234,-6.30236652312236e-2
-0.4426794850873068,-6.267180626814639e-2
-0.4403756251619903,-6.299642262745364e-2
-0.4380717652366738,-6.31044589773998e-2
-0.4357679053113572,-6.317184522042407e-2
-0.43346404538604066,-6.322209593823835e-2
-0.4311601854607241,-6.316490090842186e-2
-0.4288563255354076,-6.305320200333797e-2
-0.426552465610091,-6.329757183133555e-2
-0.4242486056847745,-6.358623934295315e-2
-0.42194474575945795,-6.353999743913696e-2
-0.4196408858341414,-6.37290648049369e-2
-0.4173370259088248,-6.346878826138513e-2
-0.4150331659835083,-6.342267553808811e-2
-0.4127293060581918,-6.33002516654001e-2
-0.41042544613287524,-6.313305765751231e-2
-0.4081215862075587,-6.293857169428141e-2
-0.4058177262822421,-6.281699544286246e-2
-0.4035138663569256,-6.288189716853365e-2
-0.40121000643160903,-6.302909363650433e-2
-0.3989061465062925,-6.301412238068105e-2
-0.39660228658097596,-6.322942633817352e-2
-0.39429842665565945,-6.320041535190446e-2
-0.3919945667303429,-6.290551165554747e-2
-0.3896907068050263,-6.312199594540324e-2
-0.3873868468797098,-6.314239140283229e-2
-0.38508298695439325,-6.34526400703519e-2
-0.3827791270290768,-6.338740508121443e-2
-0.38047526710376023,-6.318883442985068e-2
-0.37817140717844366,-6.309685140571064e-2
-0.37586754725312715,-6.29239574535263e-2
-0.37356368732781053,-6.302028117640424e-2
-0.371259827402494,-6.29914401638878e-2
-0.3689559674771775,-6.312710122577014e-2
-0.36665210755186095,-6.307448146380767e-2
-0.3643482476265444,-6.307442651524364e-2
-0.3620443877012279,-6.268111352868155e-2
-0.35974052777591137,-6.2454004401627294e-2
-0.3574366678505948,-6.243959388754561e-2
-0.35513280792527824,-6.238452630758151e-2
-0.35282894799996173,-6.123102323999663e-2
-0.3505250880746452,-6.069653515700735e-2
-0.34822122814932865,-6.116022701395718e-2
-0.3459173682240121,-6.104983694495869e-2
-0.3436135082986956,-6.173344206274667e-2
-0.34130964837337896,-6.174263083449427e-2
-0.3390057884480624,-6.137608226812552e-2
-0.3367019285227459,-6.140566310870521e-2
-0.3343980685974294,-6.132669664976098e-2
-0.3320942086721128,-6.121803492462741e-2
-0.32979034874679625,-6.032699364948968e-2
-0.32748648882147974,-6.0928520159564625e-2
-0.32518262889616323,-6.0509305578285266e-2
-0.32287876897084666,-6.0414686362632364e-2
-0.3205749090455301,-6.0934315470360545e-2
-0.3182710491202136,-6.12970996704878e-2
-0.3159671891948971,-6.163698377816429e-2
-0.3136633292695805,-6.148388187705278e-2
-0.31135946934426395,-6.1675912732491955e-2
-0.30905560941894744,-6.188093292311547e-2
-0.30675174949363093,-6.256928225894598e-2
-0.30444788956831437,-6.247555534073135e-2
-0.3021440296429978,-6.219823844283112e-2
-0.2998401697176813,-6.163031384432838e-2
-0.2975363097923648,-6.161621108208237e-2
-0.2952324498670482,-6.142200190314906e-2
-0.29292858994173165,-6.179442880484365e-2
-0.29062473001641514,-6.188691174576644e-2
-0.28832087009109864,-6.139083000050405e-2
-0.28601701016578207,-6.0868621962290814e-2
-0.28371315024046545,-6.103466870469476e-2
-0.28140929031514894,-6.089210586861182e-2
-0.2791054303898324,-6.147375004623812e-2
-0.2768015704645158,-6.162157582236838e-2
-0.2744977105391993,-6.2430464556265775e-2
-0.2721938506138828,-6.236054643184186e-2
-0.26988999068856623,-6.2624640954838e-2
-0.26758613076324966,-6.297268906737574e-2
-0.26528227083793315,-6.19015285703185e-2
-0.26297841091261664,-6.187994090361715e-2
-0.2606745509873001,-6.117986152593058e-2
-0.2583706910619835,-6.129318379956816e-2
-0.256066831136667,-6.13381716345327e-2
-0.2537629712113504,-6.156277537879706e-2
-0.2514591112860338,-6.160061798934302e-2
-0.24915525136071737,-6.10085796365295e-2
-0.2468513914354008,-6.03911917932749e-2
-0.24454753151008424,-6.0495541419216536e-2
-0.24224367158476767,-6.008063869966762e-2
-0.2399398116594511,-5.966977525317774e-2
-0.23763595173413465,-5.910510525569124e-2
-0.2353320918088182,-5.833434685836658e-2
-0.23302823188350164,-6.008456657724581e-2
-0.23072437195818507,-6.042167463422721e-2
-0.2284205120328685,-6.046550615357926e-2
-0.22611665210755194,-6.079209930788343e-2
-0.22381279218223538,-6.089179917588161e-2
-0.2215089322569188,-6.0205307332520386e-2
-0.21920507233160236,-6.13662353537886e-2
-0.2169012124062858,-6.1605388036083175e-2
-0.21459735248096923,-6.1918047556308586e-2
-0.21229349255565277,-6.204857590988966e-2
-0.2099896326303362,-6.218887719808941e-2
-0.20768577270501964,-6.217848991065311e-2
-0.20538191277970308,-6.2006877056675624e-2
-0.20307805285438651,-6.237233175344381e-2
-0.20077419292907006,-6.243391465873116e-2
-0.1984703330037535,-6.26822566051779e-2
-0.19616647307843693,-6.312788518700418e-2
-0.19386261315312037,-6.259744664939182e-2
-0.1915587532278038,-6.265342455315959e-2
-0.18925489330248724,-6.267841574408295e-2
-0.18695103337717067,-6.297295778501e-2
-0.18464717345185422,-6.264170524721735e-2
-0.18234331352653765,-6.256191538766964e-2
-0.1800394536012211,-6.317175788419804e-2
-0.17773559367590464,-6.34614134293241e-2
-0.17543173375058807,-6.34324542064143e-2
-0.1731278738252714,-6.364557901169754e-2
-0.17082401389995483,-6.376518694782429e-2
-0.16852015397463838,-6.358797355089174e-2
-0.1662162940493218,-6.311892944278352e-2
-0.16391243412400536,-6.30968516315471e-2
-0.1616085741986888,-6.307718542092622e-2
-0.15930471427337234,-6.36200256458066e-2
-0.15700085434805577,-6.367802296597802e-2
-0.1546969944227392,-6.347618750578266e-2
-0.15239313449742264,-6.391444897137899e-2
-0.15008927457210608,-6.388924311088262e-2
-0.14778541464678963,-6.387816571953375e-2
-0.14548155472147306,-6.361264137312328e-2
-0.1431776947961565,-6.384524010614878e-2
-0.14087383487083993,-6.380965358158641e-2
-0.13856997494552337,-6.367328062100652e-2
-0.1362661150202068,-6.355478796471059e-2
-0.13396225509489024,-6.332347401335958e-2
-0.13165839516957378,-6.36193962656717e-2
-0.12935453524425722,-6.332731852131324e-2
-0.12705067531894065,-6.319390065759689e-2
-0.1247468153936242,-6.27891442269497e-2
-0.12244295546830763,-6.234033606402245e-2
-0.12013909554299107,-6.221368728197596e-2
-0.1178352356176745,-6.302672329672032e-2
-0.11553137569235794,-6.312359509015153e-2
-0.11322751576704149,-6.342015714083904e-2
-0.11092365584172492,-6.330756155856143e-2
-0.10861979591640836,-6.34982860350366e-2
-0.10631593599109179,-6.361423464237803e-2
-0.10401207606577523,-6.352441396976616e-2
-0.10170821614045866,-6.32908325942435e-2
-9.94043562151421e-2,-6.380943832986963e-2
-9.710049628982564e-2,-6.283451029358256e-2
-9.479663636450908e-2,-6.277063508474523e-2
-9.249277643919251e-2,-6.305911159617694e-2
-9.018891651387606e-2,-6.282315402066607e-2
-8.78850565885595e-2,-6.295244831893243e-2
-8.558119666324293e-2,-6.322036785679774e-2
-8.327733673792637e-2,-6.369282316743918e-2
-8.09734768126098e-2,-6.362261545432457e-2
-7.866961688729335e-2,-6.364885123771802e-2
-7.636575696197667e-2,-6.36715076465253e-2
-7.406189703666022e-2,-6.381214242799238e-2
-7.175803711134365e-2,-6.3778252394875e-2
-6.945417718602709e-2,-6.340956170771639e-2
-6.715031726071052e-2,-6.351209454797813e-2
-6.484645733539396e-2,-6.344532140760795e-2
-6.25425974100775e-2,-6.37048561373087e-2
-6.023873748476094e-2,-6.359415439731686e-2
-5.7934877559444375e-2,-6.354422784502123e-2
-5.563101763412792e-2,-6.335630127639602e-2
-5.332715770881136e-2,-6.3373016595629e-2
-5.10232977834949e-2,-6.335952952066248e-2
-4.871943785817834e-2,-6.376533693961117e-2
-4.641557793286177e-2,-6.356817895142752e-2
-4.411171800754521e-2,-6.34742209534006e-2
-4.1807858082228755e-2,-6.364967051635861e-2
-3.950399815691219e-2,-6.362512788426178e-2
-3.7200138231595625e-2,-6.359503224589846e-2
-3.489627830627917e-2,-6.312717564182346e-2
-3.259241838096261e-2,-6.297245664889073e-2
-3.0288558455646042e-2,-6.34340887335707e-2
-2.7984698530329366e-2,-6.316448460196467e-2
-2.5680838605012912e-2,-6.2442967794114956e-2
-2.3376978679696347e-2,-6.237791032778928e-2
-2.1073118754379783e-2,-6.226164600585493e-2
-1.876925882906333e-2,-6.241753411909712e-2
-1.6465398903746764e-2,-6.1572989152892776e-2
-1.41615389784302e-2,-6.1873016776894274e-2
-1.1857679053113634e-2,-6.2084714107216166e-2
-9.55381912779707e-3,-6.239561204228927e-2
-7.249959202480616e-3,-6.220814949442133e-2
-4.946099277164051e-3,-6.199861398531181e-2
-2.6422393518474863e-3,-6.230838528976235e-2
-3.383794265310325e-4,-6.2217262226755166e-2
1.9654804987856433e-3,-6.1836644744775016e-2
4.269340424102097e-3,-6.1907758562171566e-2
6.573200349418773e-3,-6.165188920291831e-2
8.877060274735227e-3,-6.14549548581701e-2
1.1180920200051792e-2,-6.15760772429893e-2
1.3484780125368245e-2,-6.116300074456393e-2
1.578864005068481e-2,-6.112945855256502e-2
1.8092499976001264e-2,-6.198451983969011e-2
2.039635990131794e-2,-6.2263715567714595e-2
2.2700219826634616e-2,-6.246579899797888e-2
2.500407975195107e-2,-6.280761310307759e-2
2.7307939677267634e-2,-6.293751388993252e-2
2.9611799602584088e-2,-6.289942985231778e-2
3.191565952790065e-2,-6.280725690904565e-2
3.4219519453217107e-2,-6.292776768002017e-2
3.652337937853378e-2,-6.284526492797737e-2
3.8827239303850236e-2,-6.285531931904453e-2
4.113109922916691e-2,-6.319840314991354e-2
4.3434959154483366e-2,-6.326703658352162e-2
4.573881907979993e-2,-6.358365221282114e-2
4.8042679005116384e-2,-6.347814879927072e-2
5.034653893043295e-2,-6.335827054026366e-2
5.2650398855749625e-2,-6.295730656085552e-2
5.495425878106608e-2,-6.288299659648078e-2
5.7258118706382755e-2,-6.300615316317082e-2
5.956197863169921e-2,-6.320333077597784e-2
6.186583855701577e-2,-6.347036724374011e-2
6.416969848233223e-2,-6.353172011457708e-2
6.647355840764879e-2,-6.378681926244656e-2
6.877741833296525e-2,-6.364207154314905e-2
7.108127825828192e-2,-6.338088794157959e-2
7.338513818359838e-2,-6.337965204078078e-2
7.568899810891505e-2,-6.351814844468628e-2
7.79928580342315e-2,-6.355519235836771e-2
8.029671795954807e-2,-6.369468711375437e-2
8.260057788486463e-2,-6.362993935314509e-2
8.490443781018109e-2,-6.340733828422973e-2
8.720829773549776e-2,-6.306474657484962e-2
8.951215766081422e-2,-6.318486946953406e-2
9.18160175861309e-2,-6.287581626785366e-2
9.411987751144713e-2,-6.297192818572173e-2
9.64237374367638e-2,-6.324934288158146e-2
9.872759736208037e-2,-6.34100451211157e-2
0.10103145728739682,-6.312722461329512e-2
0.10333531721271338,-6.341442001743414e-2
0.10563917713802984,-6.329158396322221e-2
0.10794303706334651,-6.313243494741316e-2
0.11024689698866297,-6.264855076667308e-2
0.11255075691397964,-6.2298560386158774e-2
0.1148546168392961,-6.203696014215654e-2
0.11715847676461266,-6.104259557938252e-2
0.11946233668992912,-6.1499813964316474e-2
0.12176619661524568,-6.155350532183479e-2
0.12407005654056213,-6.219481984159636e-2
0.1263739164658788,-6.2009162689062425e-2
0.12867777639119526,-6.1671414236467714e-2
0.13098163631651194,-6.216571253566039e-2
0.1332854962418285,-6.132050156126123e-2
0.13558935616714496,-6.143552963143628e-2
0.13789321609246152,-6.1891332971739876e-2
0.14019707601777798,-6.2258658035036274e-2
0.14250093594309465,-6.2036169390012885e-2
0.1448047958684111,-6.2287382026135485e-2
0.14710865579372778,-6.2269425992902416e-2
0.14941251571904424,-6.151119987839426e-2
0.1517163756443608,-6.186790955870791e-2
0.15402023556967726,-6.179497486161134e-2
0.15632409549499382,-6.2013559504446425e-2
0.15862795542031027,-6.2418281055973135e-2
0.16093181534562695,-6.242985529529588e-2
0.16323567527094363,-6.2213789238785844e-2
0.16553953519626008,-6.256705419445174e-2
0.16784339512157664,-6.297978021722139e-2
0.1701472550468931,-6.297472105212143e-2
0.17245111497220966,-6.293792925338015e-2
0.17475497489752612,-6.291633363477778e-2
0.1770588348228428,-6.313621138742365e-2
0.17936269474815925,-6.319367433217227e-2
0.18166655467347592,-6.312206044237101e-2
0.18397041459879238,-6.296685570640703e-2
0.18627427452410894,-6.302751458416966e-2
0.1885781344494254,-6.300104497416315e-2
0.19088199437474196,-6.296303340599307e-2
0.1931858543000584,-6.273489701010448e-2
0.1954897142253751,-6.270514404353267e-2
0.19779357415069176,-6.234762184015297e-2
0.20009743407600822,-6.260409655384414e-2
0.20240129400132478,-6.248616195543455e-2
0.20470515392664124,-6.225491564457053e-2
0.2070090138519578,-6.247819442413072e-2
0.20931287377727426,-6.1974675255785816e-2
0.21161673370259093,-6.1326842926207714e-2
0.21392059362790738,-6.169059194504012e-2
0.21622445355322406,-6.228954568631295e-2
0.21852831347854051,-6.213131687713169e-2
0.22083217340385708,-6.15989832785101e-2
0.22313603332917353,-6.1968206210213816e-2
0.2254398932544901,-6.221797865306977e-2
0.22774375317980677,-6.26289481159219e-2
0.23004761310512323,-6.256596410194437e-2
0.2323514730304399,-6.292782766179439e-2
0.23465533295575636,-6.282755432364695e-2
0.23695919288107292,-6.290738364478432e-2
0.23926305280638938,-6.273234974543174e-2
0.24156691273170594,-6.298474922027508e-2
0.2438707726570224,-6.28150036233559e-2
0.24617463258233885,-6.2905950192365e-2
0.24847849250765552,-6.295618784073387e-2
0.250782352432972,-6.309650439284797e-2
0.25308621235828865,-6.329757917091317e-2
0.2553900722836051,-6.321194027467081e-2
0.2576939322089218,-6.330979655171376e-2
0.259997792134238,-6.312307260985184e-2
0.2623016520595547,-6.352505862269953e-2
0.26460551198487114,-6.362816917979441e-2
0.2669093719101878,-6.35058155069832e-2
0.2692132318355043,-6.347485233931005e-2
0.27151709176082095,-6.354099552248338e-2
0.2738209516861374,-6.359680016641023e-2
0.27612481161145386,-6.342863326483916e-2
0.27842867153677053,-6.344261755892189e-2
0.280732531462087,-6.34127920480535e-2
0.28303639138740366,-6.339057168160556e-2
0.2853402513127201,-6.373121167260654e-2
0.2876441112380368,-6.36751367495827e-2
0.28994797116335325,-6.356358468311174e-2
0.2922518310886697,-6.329221377208838e-2
0.2945556910139864,-6.315080770838166e-2
0.29685955093930283,-6.32144416987751e-2
0.2991634108646193,-6.356567374613142e-2
0.30146727078993596,-6.360738983943603e-2
0.3037711307152524,-6.375259767854669e-2
0.3060749906405691,-6.345418131063862e-2
0.30837885056588554,-6.29668069979199e-2
0.3106827104912022,-6.263911625999108e-2
0.3129865704165187,-6.291850929690512e-2
0.3152904303418351,-6.29550470857474e-2
0.3175942902671518,-6.334850516945145e-2
0.31989815019246826,-6.316312248252909e-2
0.32220201011778493,-6.307476180097316e-2
0.3245058700431014,-6.316782383698083e-2
0.32680972996841806,-6.351637263510346e-2
0.3291135898937343,-6.346151773708375e-2
0.33141744981905097,-6.372181561217238e-2
0.3337213097443674,-6.36676814342203e-2
0.3360251696696841,-6.35808957241144e-2
0.3383290295950008,-6.371967425546154e-2
0.34063288952031723,-6.387416869939766e-2
0.3429367494456339,-6.383351562117678e-2
0.34524060937095014,-6.374366819837762e-2
0.3475444692962668,-6.391209898460193e-2
0.34984832922158327,-6.382738241255825e-2
0.35215218914689994,-6.34670561539602e-2
0.3544560490722164,-6.354282064859462e-2
0.35675990899753307,-6.386507957350451e-2
0.3590637689228495,-6.347938484679694e-2
0.361367628848166,-6.357141765478003e-2
0.36367148877348265,-6.339704855842898e-2
0.3659753486987991,-6.355283963096536e-2
0.36827920862411556,-6.377414745221566e-2
0.37058306854943224,-6.358722280020868e-2
0.3728869284747489,-6.381669140713486e-2
0.37519078840006537,-6.368515057935853e-2
0.3774946483253818,-6.369898122608697e-2
0.3797985082506985,-6.398303925907256e-2
0.38210236817601495,-6.406267158762813e-2
0.3844062281013314,-6.386796968639918e-2
0.3867100880266481,-6.380699468849049e-2
0.38901394795196453,-6.378392287566348e-2
0.391317807877281,-6.333423526074489e-2
0.39362166780259766,-6.272167902510395e-2
0.3959255277279141,-6.30391505980179e-2
0.39822938765323057,-6.298825745700798e-2
0.40053324757854725,-6.30660183679922e-2
0.4028371075038639,-6.246867055324756e-2
0.40514096742918015,-6.268679867251747e-2
0.40744482735449705,-6.314480705608283e-2
0.4097486872798133,-6.345293401237884e-2
0.4120525472051302,-6.350274617146412e-2
0.4143564071304464,-6.330147259783092e-2
0.4166602670557631,-6.348549946303295e-2
0.4189641269810793,-6.34878093044563e-2
0.4212679869063962,-6.364157166076967e-2
0.42357184683171245,-6.353528958541743e-2
0.42587570675702935,-6.354122265257345e-2
0.4281795666823456,-6.339554253644542e-2
0.43048342660766226,-6.350693146068942e-2
0.4327872865329787,-6.332948725815679e-2
0.4350911464582954,-6.294403559323936e-2"/>
  </g>
  <g stroke-opacity="0.5" stroke="#431712" stroke-width="7.0e-3" fill="none">
    <polyline points="-0.7145349562746587,-6.302224343723684e-2
-0.7122310963493421,-6.295642486801412e-2
-0.7099272364240256,-6.287828950138752e-2
-0.707623376498709,-6.290424229086078e-2
-0.7053195165733925,-6.296340576757165e-2
-0.703015656648076,-6.297486970398103e-2
-0.7007117967227594,-6.29687192719075e-2
-0.6984079367974428,-6.299046954294807e-2
-0.6961040768721263,-6.30864621792997e-2
-0.6938002169468098,-6.307463402687363e-2
-0.6914963570214933,-6.303441136344634e-2
-0.6891924970961767,-6.29980898392255e-2
-0.6868886371708601,-6.298998004094802e-2
-0.6845847772455436,-6.29960388310653e-2
-0.6822809173202271,-6.291122572946795e-2
-0.6799770573949105,-6.291692053873921e-2
-0.677673197469594,-6.29036206471223e-2
-0.6753693375442774,-6.275230061362091e-2
-0.673065477618961,-6.262791974183735e-2
-0.6707616176936444,-6.277722444525102e-2
-0.6684577577683278,-6.267735361766269e-2
-0.6661538978430113,-6.266094130809619e-2
-0.6638500379176948,-6.273650184610868e-2
-0.6615461779923782,-6.260627234954108e-2
-0.6592423180670617,-6.267566978614325e-2
-0.6569384581417451,-6.27389310751848e-2
-0.6546345982164286,-6.277587145880426e-2
-0.6523307382911121,-6.264889316968814e-2
-0.6500268783657955,-6.266736813167162e-2
-0.647723018440479,-6.27589817651032e-2
-0.6454191585151624,-6.27269604617946e-2
-0.6431152985898458,-6.277170511006958e-2
-0.6408114386645294,-6.275421808112047e-2
-0.6385075787392128,-6.279808600996639e-2
-0.6362037188138963,-6.28558505982938e-2
-0.6338998588885797,-6.28581217791705e-2
-0.6315959989632631,-6.28235432990567e-2
-0.6292921390379467,-6.277329519690189e-2
-0.6269882791126301,-6.277217433801663e-2
-0.6246844191873135,-6.26941144974914e-2
-0.622380559261997,-6.270392431771943e-2
-0.6200766993366804,-6.27619559285224e-2
-0.617772839411364,-6.276694310856124e-2
-0.6154689794860474,-6.271864125246684e-2
-0.6131651195607308,-6.273229377936251e-2
-0.6108612596354144,-6.268978052855012e-2
-0.6085573997100978,-6.267630304891625e-2
-0.6062535397847812,-6.274887472614155e-2
-0.6039496798594648,-6.276751541510794e-2
-0.6016458199341481,-6.276457791739176e-2
-0.5993419600088317,-6.281902513558413e-2
-0.5970381000835151,-6.287128295123867e-2
-0.5947342401581985,-6.287863799639992e-2
-0.592430380232882,-6.288114125021538e-2
-0.5901265203075654,-6.283837390004365e-2
-0.587822660382249,-6.285994196705957e-2
-0.5855188004569324,-6.285244767430243e-2
-0.5832149405316158,-6.283450495162535e-2
-0.5809110806062993,-6.287605561456922e-2
-0.5786072206809827,-6.285476107050647e-2
-0.5763033607556662,-6.2871697314826e-2
-0.5739995008303497,-6.285696060185642e-2
-0.5716956409050331,-6.284031096304177e-2
-0.5693917809797165,-6.276775388105027e-2
-0.5670879210544,-6.284255874064604e-2
-0.5647840611290835,-6.279866561822756e-2
-0.562480201203767,-6.286220558341982e-2
-0.5601763412784504,-6.288672691534769e-2
-0.5578724813531338,-6.288818887027925e-2
-0.5555686214278173,-6.293758431614738e-2
-0.5532647615025008,-6.29298844305195e-2
-0.5509609015771842,-6.294576716954092e-2
-0.5486570416518677,-6.294888869407111e-2
-0.5463531817265511,-6.295616467975929e-2
-0.5440493218012346,-6.292760193798297e-2
-0.5417454618759181,-6.293970196128129e-2
-0.5394416019506015,-6.292989949681171e-2
-0.537137742025285,-6.291318710027749e-2
-0.5348338820999685,-6.288459529276991e-2
-0.5325300221746518,-6.28925390615025e-2
-0.5302261622493354,-6.284911289708583e-2
-0.5279223023240188,-6.285843522343038e-2
-0.5256184423987023,-6.27673452271299e-2
-0.5233145824733857,-6.277967331825152e-2
-0.5210107225480691,-6.272245993184578e-2
-0.5187068626227527,-6.27607183405069e-2
-0.516403002697436,-6.276392507543715e-2
-0.5140991427721195,-6.278202091833851e-2
-0.5117952828468031,-6.274795001129141e-2
-0.5094914229214865,-6.280240267795356e-2
-0.50718756299617,-6.285550186963451e-2
-0.5048837030708534,-6.291040416591098e-2
-0.5025798431455368,-6.292987082494939e-2
-0.5002759832202204,-6.287990645277275e-2
-0.4979721232949038,-6.293447025897059e-2
-0.49566826336958725,-6.293809197420974e-2
-0.4933644034442707,-6.29277772046809e-2
-0.4910605435189542,-6.295072159037485e-2
-0.4887566835936376,-6.296144141728321e-2
-0.4864528236683211,-6.293117538875259e-2
-0.48414896374300453,-6.292129113721467e-2
-0.481845103817688,-6.293027873560875e-2
-0.47954124389237146,-6.295920321053317e-2
-0.4772373839670549,-6.301745138047599e-2
-0.47493352404173844,-6.299239452786576e-2
-0.47262966411642193,-6.294336579765003e-2
-0.47032580419110537,-6.29002737765949e-2
-0.4680219442657888,-6.293054734153569e-2
-0.46571808434047224,-6.291980324824231e-2
-0.46341422441515573,-6.295042931961015e-2
-0.46111036448983916,-6.297889760390407e-2
-0.45880650456452265,-6.299947079211288e-2
-0.4565026446392061,-6.301492436435774e-2
-0.4541987847138896,-6.300857709266283e-2
-0.45189492478857296,-6.29939291473085e-2
-0.44959106486325645,-6.29391122762124e-2
-0.44728720493793994,-6.290688472381512e-2
-0.4449833450126234,-6.29489926395228e-2
-0.4426794850873068,-6.289083176906607e-2
-0.4403756251619903,-6.294410820814045e-2
-0.4380717652366738,-6.296400942010838e-2
-0.4357679053113572,-6.297737435811013e-2
-0.43346404538604066,-6.298807736881751e-2
-0.4311601854607241,-6.298085914378426e-2
-0.4288563255354076,-6.296427033948115e-2
-0.426552465610091,-6.300548778811577e-2
-0.4242486056847745,-6.305716711162235e-2
-0.42194474575945795,-6.305406872428898e-2
-0.4196408858341414,-6.309101881506463e-2
-0.4173370259088248,-6.305286411924926e-2
-0.4150331659835083,-6.304878317532447e-2
-0.4127293060581918,-6.303141595729822e-2
-0.41042544613287524,-6.300556583487549e-2
-0.4081215862075587,-6.297351568626419e-2
-0.4058177262822421,-6.295250906255867e-2
-0.4035138663569256,-6.296269927688558e-2
-0.40121000643160903,-6.298683866570842e-2
-0.3989061465062925,-6.298501860715222e-2
-0.39660228658097596,-6.302097641147686e-2
-0.39429842665565945,-6.301817771289153e-2
-0.3919945667303429,-6.297031157803057e-2
-0.3896907068050263,-6.300738864811506e-2
-0.3873868468797098,-6.301228312008844e-2
-0.38508298695439325,-6.306842342104979e-2
-0.3827791270290768,-6.306011653572352e-2
-0.38047526710376023,-6.30272788366858e-2
-0.37817140717844366,-6.301199097240162e-2
-0.37586754725312715,-6.298119240026501e-2
-0.37356368732781053,-6.299837762660321e-2
-0.371259827402494,-6.299349512042696e-2
-0.3689559674771775,-6.301771220221897e-2
-0.36665210755186095,-6.300947712170413e-2
-0.3643482476265444,-6.301019130868135e-2
-0.3620443877012279,-6.293939008424987e-2
-0.35974052777591137,-6.289082865385909e-2
-0.3574366678505948,-6.288385940389107e-2
-0.35513280792527824,-6.286868499589515e-2
-0.35282894799996173,-6.260766982770583e-2
-0.3505250880746452,-6.2461346560763076e-2
-0.34822122814932865,-6.256193196202531e-2
-0.3459173682240121,-6.252108853220228e-2
-0.3436135082986956,-6.267188643373944e-2
-0.34130964837337896,-6.266882803987606e-2
-0.3390057884480624,-6.257099832850477e-2
-0.3367019285227459,-6.256824499799718e-2
-0.3343980685974294,-6.253906977329537e-2
-0.3320942086721128,-6.250191802206395e-2
-0.32979034874679625,-6.229306115595368e-2
-0.32748648882147974,-6.2415613307099105e-2
-0.32518262889616323,-6.2306507580886517e-2
-0.32287876897084666,-6.226738257984832e-2
-0.3205749090455301,-6.2368906174865346e-2
-0.3182710491202136,-6.2438677870224835e-2
-0.3159671891948971,-6.250597758601673e-2
-0.3136633292695805,-6.24666563063937e-2
-0.31135946934426395,-6.250250598024742e-2
-0.30905560941894744,-6.254230504770075e-2
-0.30675174949363093,-6.267845485337342e-2
-0.30444788956831437,-6.266131737289904e-2
-0.3021440296429978,-6.260267826253574e-2
-0.2998401697176813,-6.2478821653024874e-2
-0.2975363097923648,-6.247016980903686e-2
-0.2952324498670482,-6.242366452220316e-2
-0.29292858994173165,-6.2491003857564675e-2
-0.29062473001641514,-6.250530921140918e-2
-0.28832087009109864,-6.24010402028774e-2
-0.28601701016578207,-6.228835240121522e-2
-0.28371315024046545,-6.230963325882821e-2
-0.28140929031514894,-6.2271094730394494e-2
-0.2791054303898324,-6.237015050370687e-2
-0.2768015704645158,-6.2392013933278534e-2
-0.2744977105391993,-6.253710534254031e-2
-0.2721938506138828,-6.252367798851532e-2
-0.26988999068856623,-6.257424567028813e-2
-0.26758613076324966,-6.264173959558683e-2
-0.26528227083793315,-6.243964733936658e-2
-0.26297841091261664,-6.243148195952686e-2
-0.2606745509873001,-6.228980599412337e-2
-0.2583706910619835,-6.2302824792799694e-2
-0.256066831136667,-6.230308621380076e-2
-0.2537629712113504,-6.2337981737607295e-2
-0.2514591112860338,-6.2338816304968736e-2
-0.24915525136071737,-6.222331653422242e-2
-0.2468513914354008,-6.2098255384755885e-2
-0.24454753151008424,-6.2103269205012634e-2
-0.24224367158476767,-6.201322763977857e-2
-0.2399398116594511,-6.19215673598299e-2
-0.23763595173413465,-6.179965400989873e-2
-0.2353320918088182,-6.163559481272307e-2
-0.23302823188350164,-6.191962857982192e-2
-0.23072437195818507,-6.1973630636766086e-2
-0.2284205120328685,-6.197175580661185e-2
-0.22611665210755194,-6.20251571738023e-2
-0.22381279218223538,-6.20370549055379e-2
-0.2215089322569188,-6.1895402240638275e-2
-0.21920507233160236,-6.209456534516067e-2
-0.2169012124062858,-6.213789804381087e-2
-0.21459735248096923,-6.219609457371289e-2
-0.21229349255565277,-6.2222037866193514e-2
-0.2099896326303362,-6.225017876247951e-2
-0.20768577270501964,-6.225142843268339e-2
-0.20538191277970308,-6.222334941264296e-2
-0.20307805285438651,-6.2287554652440846e-2
-0.20077419292907006,-6.230207909165342e-2
-0.1984703330037535,-6.234767363181737e-2
-0.19616647307843693,-6.242578792580533e-2
-0.19386261315312037,-6.2344185571049704e-2
-0.1915587532278038,-6.235813332097517e-2
-0.18925489330248724,-6.236715528811965e-2
-0.18695103337717067,-6.241798561777301e-2
-0.18464717345185422,-6.23724382820835e-2
-0.18234331352653765,-6.236473593790515e-2
-0.1800394536012211,-6.2458500493326685e-2
-0.17773559367590464,-6.250959297921266e-2
-0.17543173375058807,-6.251435615899226e-2
-0.1731278738252714,-6.255428447006295e-2
-0.17082401389995483,-6.2581472068306e-2
-0.16852015397463838,-6.256687441399078e-2
-0.1662162940493218,-6.250989218018832e-2
-0.16391243412400536,-6.251343158623224e-2
-0.1616085741986888,-6.251715590624407e-2
-0.15930471427337234,-6.259592661518076e-2
-0.15700085434805577,-6.261296408044248e-2
-0.1546969944227392,-6.259522639124138e-2
-0.15239313449742264,-6.266138362239615e-2
-0.15008927457210608,-6.266853002936223e-2
-0.14778541464678963,-6.267736723843176e-2
-0.14548155472147306,-6.265336460538462e-2
-0.1431776947961565,-6.269158930081409e-2
-0.14087383487083993,-6.269691023994195e-2
-0.13856997494552337,-6.268951693507341e-2
-0.1362661150202068,-6.268372478525308e-2
-0.13396225509489024,-6.26635886409872e-2
-0.13165839516957378,-6.270574524924788e-2
-0.12935453524425722,-6.267857795022003e-2
-0.12705067531894065,-6.266908402027105e-2
-0.1247468153936242,-6.262524778541212e-2
-0.12244295546830763,-6.257151119836668e-2
-0.12013909554299107,-6.255657616803012e-2
-0.1178352356176745,-6.26527681542296e-2
-0.11553137569235794,-6.267006917320461e-2
-0.11322751576704149,-6.271368685445766e-2
-0.11092365584172492,-6.270545035654573e-2
-0.10861979591640836,-6.273596304057028e-2
-0.10631593599109179,-6.275775789586924e-2
-0.10401207606577523,-6.275387435830548e-2
-0.10170821614045866,-6.273135066659385e-2
-9.94043562151421e-2,-6.280235652420385e-2
-9.710049628982564e-2,-6.267488402166599e-2
-9.479663636450908e-2,-6.266719170696611e-2
-9.249277643919251e-2,-6.271346402685374e-2
-9.018891651387606e-2,-6.268006270683757e-2
-8.78850565885595e-2,-6.270209372021818e-2
-8.558119666324293e-2,-6.274550519897337e-2
-8.327733673792637e-2,-6.282214449276846e-2
-8.09734768126098e-2,-6.281866698931116e-2
-7.866961688729335e-2,-6.28297402312391e-2
-7.636575696197667e-2,-6.284032546270413e-2
-7.406189703666022e-2,-6.286853977846385e-2
-7.175803711134365e-2,-6.287166750415452e-2
-6.945417718602709e-2,-6.282586461491368e-2
-6.715031726071052e-2,-6.284645759962226e-2
-6.484645733539396e-2,-6.284281966743244e-2
-6.25425974100775e-2,-6.288573653769625e-2
-6.023873748476094e-2,-6.287699968192839e-2
-5.7934877559444375e-2,-6.287636404767716e-2
-5.563101763412792e-2,-6.285601171478372e-2
-5.332715770881136e-2,-6.28632566262659e-2
-5.10232977834949e-2,-6.286638710160652e-2
-4.871943785817834e-2,-6.292678247186079e-2
-4.641557793286177e-2,-6.290622563275627e-2
-4.411171800754521e-2,-6.289895661715883e-2
-4.1807858082228755e-2,-6.292881098792114e-2
-3.950399815691219e-2,-6.293181776437717e-2
-3.7200138231595625e-2,-6.293392975528933e-2
-3.489627830627917e-2,-6.287417613336854e-2
-3.259241838096261e-2,-6.285417320914088e-2
-3.0288558455646042e-2,-6.292273150670735e-2
-2.7984698530329366e-2,-6.288489571841116e-2
-2.5680838605012912e-2,-6.276036571427734e-2
-2.3376978679696347e-2,-6.274542571693409e-2
-2.1073118754379783e-2,-6.272015376938866e-2
-1.876925882906333e-2,-6.27452474047151e-2
-1.6465398903746764e-2,-6.256849960716693e-2
-1.41615389784302e-2,-6.262613380466253e-2
-1.1857679053113634e-2,-6.266716625583002e-2
-9.55381912779707e-3,-6.273062794669249e-2
-7.249959202480616e-3,-6.26856740978986e-2
-4.946099277164051e-3,-6.263449144167954e-2
-2.6422393518474863e-3,-6.269569260394492e-2
-3.383794265310325e-4,-6.26726701244591e-2
1.9654804987856433e-3,-6.258416296094749e-2
4.269340424102097e-3,-6.259287300399141e-2
6.573200349418773e-3,-6.253042916921492e-2
8.877060274735227e-3,-6.2479148439706145e-2
1.1180920200051792e-2,-6.2494553814185894e-2
1.3484780125368245e-2,-6.239787029645605e-2
1.578864005068481e-2,-6.237813146082738e-2
1.8092499976001264e-2,-6.254251395670085e-2
2.039635990131794e-2,-6.260171955899252e-2
2.2700219826634616e-2,-6.264540416511133e-2
2.500407975195107e-2,-6.272123473963553e-2
2.7307939677267634e-2,-6.275291066489763e-2
2.9611799602584088e-2,-6.274753051593918e-2
3.191565952790065e-2,-6.272979598429063e-2
3.4219519453217107e-2,-6.275763533679535e-2
3.652337937853378e-2,-6.274280445651759e-2
3.8827239303850236e-2,-6.274701675640182e-2
4.113109922916691e-2,-6.281787171557718e-2
4.3434959154483366e-2,-6.283681919150974e-2
4.573881907979993e-2,-6.29051338618819e-2
4.8042679005116384e-2,-6.289130010836863e-2
5.034653893043295e-2,-6.287398110444387e-2
5.2650398855749625e-2,-6.27985328235664e-2
5.495425878106608e-2,-6.278586848207235e-2
5.7258118706382755e-2,-6.281193890569414e-2
5.956197863169921e-2,-6.285281637657714e-2
6.186583855701577e-2,-6.290829815621168e-2
6.416969848233223e-2,-6.292643368695805e-2
6.647355840764879e-2,-6.298147666233078e-2
6.877741833296525e-2,-6.296234366839215e-2
7.108127825828192e-2,-6.291994973635062e-2
7.338513818359838e-2,-6.292499478993141e-2
7.568899810891505e-2,-6.295579681400354e-2
7.79928580342315e-2,-6.296880125614146e-2
8.029671795954807e-2,-6.30002929180743e-2
8.260057788486463e-2,-6.299620900740044e-2
8.490443781018109e-2,-6.296373726795579e-2
8.720829773549776e-2,-6.290676902780712e-2
8.951215766081422e-2,-6.293096244938223e-2
9.18160175861309e-2,-6.287687615966087e-2
9.411987751144713e-2,-6.289541679957822e-2
9.64237374367638e-2,-6.294663296476566e-2
9.872759736208037e-2,-6.297973031347948e-2
0.10103145728739682,-6.293189823826428e-2
0.10333531721271338,-6.2987534535757e-2
0.10563917713802984,-6.29689665088049e-2
0.10794303706334651,-6.294267359993899e-2
0.11024689698866297,-6.284949327677336e-2
0.11255075691397964,-6.277297406508875e-2
0.1148546168392961,-6.271114328534955e-2
0.11715847676461266,-6.2478682139384456e-2
0.11946233668992912,-6.257938922607587e-2
0.12176619661524568,-6.258405540895173e-2
0.12407005654056213,-6.272857439795054e-2
0.1263739164658788,-6.267708365263269e-2
0.12867777639119526,-6.258444269746177e-2
0.13098163631651194,-6.269774595137378e-2
0.1332854962418285,-6.248656497766936e-2
0.13558935616714496,-6.250393209754679e-2
0.13789321609246152,-6.26071566122186e-2
0.14019707601777798,-6.269203061296036e-2
0.14250093594309465,-6.263493235378015e-2
0.1448047958684111,-6.269184683401341e-2
0.14710865579372778,-6.268627290976414e-2
0.14941251571904424,-6.250480323903496e-2
0.1517163756443608,-6.258075261572393e-2
0.15402023556967726,-6.255796996824936e-2
0.15632409549499382,-6.260268889918474e-2
0.15862795542031027,-6.269023770997895e-2
0.16093181534562695,-6.269273587402757e-2
0.16323567527094363,-6.26432416901257e-2
0.16553953519626008,-6.271777663607458e-2
0.16784339512157664,-6.280690048607562e-2
0.1701472550468931,-6.281013552959624e-2
0.17245111497220966,-6.280636600067746e-2
0.17475497489752612,-6.280553140099832e-2
0.1770588348228428,-6.285356744555992e-2
0.17936269474815925,-6.287032741121301e-2
0.18166655467347592,-6.286145050789049e-2
0.18397041459879238,-6.2835534791712e-2
0.18627427452410894,-6.285059342862098e-2
0.1885781344494254,-6.284946228857968e-2
0.19088199437474196,-6.284601247985644e-2
0.1931858543000584,-6.28071083019015e-2
0.1954897142253751,-6.280321419302204e-2
0.19779357415069176,-6.273900583075598e-2
0.20009743407600822,-6.278181509217817e-2
0.20240129400132478,-6.276109110849015e-2
0.20470515392664124,-6.271935957105335e-2
0.2070090138519578,-6.27545397157695e-2
0.20931287377727426,-6.266198464572914e-2
0.21161673370259093,-6.253032737595143e-2
0.21392059362790738,-6.258838067648698e-2
0.21622445355322406,-6.269227802966648e-2
0.21852831347854051,-6.265801541705018e-2
0.22083217340385708,-6.254482913491899e-2
0.22313603332917353,-6.261038629147353e-2
0.2254398932544901,-6.265570289721722e-2
0.22774375317980677,-6.2733799995777e-2
0.23004761310512323,-6.272146314783489e-2
0.2323514730304399,-6.279191585657751e-2
0.23465533295575636,-6.277453415254164e-2
0.23695919288107292,-6.279191721592692e-2
0.23926305280638938,-6.27604154960163e-2
0.24156691273170594,-6.280847950606372e-2
0.2438707726570224,-6.277918731157583e-2
0.24617463258233885,-6.279743277742955e-2
0.24847849250765552,-6.280868072474055e-2
0.250782352432972,-6.28359967542621e-2
0.25308621235828865,-6.287452907534219e-2
0.2553900722836051,-6.286445710826816e-2
0.2576939322089218,-6.288533555857723e-2
0.259997792134238,-6.285851262583775e-2
0.2623016520595547,-6.292887829986349e-2
0.26460551198487114,-6.295272616530367e-2
0.2669093719101878,-6.293902462026646e-2
0.2692132318355043,-6.293988544661677e-2
0.27151709176082095,-6.29564224293443e-2
0.2738209516861374,-6.297155400029031e-2
0.27612481161145386,-6.295138035339409e-2
0.27842867153677053,-6.295889679129996e-2
0.280732531462087,-6.295966220300597e-2
0.28303639138740366,-6.296141890900009e-2
0.2853402513127201,-6.30178929372801e-2
0.2876441112380368,-6.301642594522183e-2
0.28994797116335325,-6.300622401172451e-2
0.2922518310886697,-6.297079009116258e-2
0.2945556910139864,-6.295302206137188e-2
0.29685955093930283,-6.296573997362043e-2
0.2991634108646193,-6.30219494053964e-2
0.30146727078993596,-6.303420864427478e-2
0.3037711307152524,-6.306261262963886e-2
0.3060749906405691,-6.302376993140824e-2
0.30837885056588554,-6.294767132172618e-2
0.3106827104912022,-6.288875119971071e-2
0.3129865704165187,-6.293653109391584e-2
0.3152904303418351,-6.294408626781489e-2
0.3175942902671518,-6.301497140360346e-2
0.31989815019246826,-6.298343442701737e-2
0.32220201011778493,-6.296912037891667e-2
0.3245058700431014,-6.298815194119778e-2
0.32680972996841806,-6.305455575859908e-2
0.3291135898937343,-6.304914501925907e-2
0.33141744981905097,-6.310308653814012e-2
0.3337213097443674,-6.309935647075404e-2
0.3360251696696841,-6.308919609213015e-2
0.3383290295950008,-6.312046581854536e-2
0.34063288952031723,-6.315563389496726e-2
0.3429367494456339,-6.315582944839904e-2
0.34524060937095014,-6.314695738938259e-2
0.3475444692962668,-6.318385394635817e-2
0.34984832922158327,-6.317660670151604e-2
0.35215218914689994,-6.31192626230328e-2
0.3544560490722164,-6.313783407059093e-2
0.35675990899753307,-6.320347970228357e-2
0.3590637689228495,-6.313468822410839e-2
0.361367628848166,-6.315818998184886e-2
0.36367148877348265,-6.312657903727725e-2
0.3659753486987991,-6.316226616362641e-2
0.36827920862411556,-6.321296284348199e-2
0.37058306854943224,-6.318011341360541e-2
0.3728869284747489,-6.323360622869201e-2
0.37519078840006537,-6.32121741307512e-2
0.3774946483253818,-6.322065548215494e-2
0.3797985082506985,-6.328637795094094e-2
0.38210236817601495,-6.331166011057332e-2
0.3844062281013314,-6.327912159683236e-2
0.3867100880266481,-6.327295349235174e-2
0.38901394795196453,-6.327441839827563e-2
0.391317807877281,-6.318481515456909e-2
0.39362166780259766,-6.303901279747082e-2
0.3959255277279141,-6.311998599234814e-2
0.39822938765323057,-6.310570021930173e-2
0.40053324757854725,-6.312599943520114e-2
0.4028371075038639,-6.296835750431062e-2
0.40514096742918015,-6.302409775179618e-2
0.40744482735449705,-6.31441202719909e-2
0.4097486872798133,-6.32298667387029e-2
0.4120525472051302,-6.32494110615015e-2
0.4143564071304464,-6.319728839873318e-2
0.4166602670557631,-6.325011205593778e-2
0.4189641269810793,-6.325611251904883e-2
0.4212679869063962,-6.330145585581903e-2
0.42357184683171245,-6.32795341572232e-2
0.42587570675702935,-6.328658662373088e-2
0.4281795666823456,-6.325387637924762e-2
0.43048342660766226,-6.328518428939445e-2
0.4327872865329787,-6.324477497240666e-2
0.4350911464582954,-6.314866560255272e-2"/>
  </g>
  <g stroke-opacity="0.5" fill-opacity="1.0" stroke="#3764a0" stroke-width="4.0e-3" fill="#ffffff">
    <rect height="0.1342572542226072" width="0.19784397108655827" x="0.5394847993242009" y="-6.74465492280435e-2"/>
  </g>
  <g fill-opacity="1.0" font-size="4.000000000000001e-2" stroke="none" stroke-width="0.0" fill="#666666" text-anchor="start">
    <text x="0.5510040989507838" y="3.1297495813099874e-2">rate = 0.99
    </text>
  </g>
  <g stroke-opacity="0.5" stroke="#431712" stroke-width="6.999999999999999e-3" fill="none">
    <polyline points="0.7007549940963589,2.5580735310717917e-2
0.7237935933495243,2.5580735310717917e-2"/>
  </g>
  <g fill-opacity="1.0" font-size="4.000000000000001e-2" stroke="none" stroke-width="0.0" fill="#666666" text-anchor="start">
    <text x="0.5510040989507838" y="-1.8074526707471894e-2">rate = 0.95
    </text>
  </g>
  <g stroke-opacity="0.5" stroke="#4b2282" stroke-width="6.999999999999999e-3" fill="none">
    <polyline points="0.7007549940963589,-2.3791287209853795e-2
0.7237935933495243,-2.3791287209853795e-2"/>
  </g>
</svg>