
<svg xmlns="http://www.w3.org/2000/svg" height="300.0" viewBox="-0.9104277680948124 -0.7283312039844088 1.7014318670455961 1.461347121816856" width="450.0" xmlns:xlink="http://www.w3.org/1999/xlink">
  <g transform="translate(-8.219640591007693e-2, -0.57175)" fill-opacity="1.0" font-size="8.0e-2" stroke="none" stroke-width="0.0" fill="#000000" text-anchor="middle">
    <text transform="rotate(0.0, -0.14087383487083993, -6.25812039844088e-2)" x="-0.14087383487083993" y="-6.25812039844088e-2">std beta
    </text>
  </g>
  <g stroke-opacity="0.0" fill-opacity="3.0e-2" stroke="#000000" stroke-width="0.0" fill="#666666">
    <rect height="0.8661758336942399" width="1.1519299626582706" x="-0.7168388161999752" y="-0.4956691208315287"/>
  </g>
  <g stroke-opacity="0.3" stroke="#a8e5ee" stroke-width="5.0e-3" fill="none">
    <polyline points="-0.7145349562746587,0.3748375920311824
-0.7145349562746587,-0.5"/>
  </g>
  <g stroke-opacity="0.3" stroke="#a8e5ee" stroke-width="5.0e-3" fill="none">
    <polyline points="-0.6638500379176948,0.3748375920311824
-0.6638500379176948,-0.5"/>
  </g>
  <g stroke-opacity="0.3" stroke="#a8e5ee" stroke-width="5.0e-3" fill="none">
    <polyline points="-0.5164030026974362,0.3748375920311824
-0.5164030026974362,-0.5"/>
  </g>
  <g stroke-opacity="0.3" stroke="#a8e5ee" stroke-width="5.0e-3" fill="none">
    <polyline points="-0.371259827402494,0.3748375920311824
-0.371259827402494,-0.5"/>
  </g>
  <g stroke-opacity="0.3" stroke="#a8e5ee" stroke-width="5.0e-3" fill="none">
    <polyline points="-0.22611665210755194,0.3748375920311824
-0.22611665210755194,-0.5"/>
  </g>
  <g stroke-opacity="0.3" stroke="#a8e5ee" stroke-width="5.0e-3" fill="none">
    <polyline points="-8.558119666324293e-2,0.3748375920311824
-8.558119666324293e-2,-0.5"/>
  </g>
  <g stroke-opacity="0.3" stroke="#a8e5ee" stroke-width="5.0e-3" fill="none">
    <polyline points="5.956197863169921e-2,0.3748375920311824
5.956197863169921e-2,-0.5"/>
  </g>
  <g stroke-opacity="0.3" stroke="#a8e5ee" stroke-width="5.0e-3" fill="none">
    <polyline points="0.2070090138519578,0.3748375920311824
0.2070090138519578,-0.5"/>
  </g>
  <g stroke-opacity="0.3" stroke="#a8e5ee" stroke-width="5.0e-3" fill="none">
    <polyline points="0.3544560490722164,0.3748375920311824
0.3544560490722164,-0.5"/>
  </g>
  <g stroke-opacity="0.3" stroke="#a8e5ee" stroke-width="5.0e-3" fill="none">
    <polyline points="0.4350911464582954,0.3748375920311824
0.4350911464582954,-0.5"/>
  </g>
  <g fill-opacity="1.0" font-size="5.0e-2" stroke="none" stroke-width="0.0" fill="#666666" text-anchor="end">
    <text transform="rotate(-45.0, -0.7145349562746587, 0.5)" x="-0.7145349562746587" y="0.5">27 Feb 2018
    </text>
  </g>
  <g fill-opacity="1.0" font-size="5.0e-2" stroke="none" stroke-width="0.0" fill="#666666" text-anchor="end">
    <text transform="rotate(-45.0, -0.6638500379176948, 0.5)" x="-0.6638500379176948" y="0.5">31 Mar 2018
    </text>
  </g>
  <g fill-opacity="1.0" font-size="5.0e-2" stroke="none" stroke-width="0.0" fill="#666666" text-anchor="end">
    <text transform="rotate(-45.0, -0.5164030026974362, 0.5)" x="-0.5164030026974362" y="0.5">30 Jun 2018
    </text>
  </g>
  <g fill-opacity="1.0" font-size="5.0e-2" stroke="none" stroke-width="0.0" fill="#666666" text-anchor="end">
    <text transform="rotate(-45.0, -0.371259827402494, 0.5)" x="-0.371259827402494" y="0.5">30 Sep 2018
    </text>
  </g>
  <g fill-opacity="1.0" font-size="5.0e-2" stroke="none" stroke-width="0.0" fill="#666666" text-anchor="end">
    <text transform="rotate(-45.0, -0.22611665210755194, 0.5)" x="-0.22611665210755194" y="0.5">31 Dec 2018
    </text>
  </g>
  <g fill-opacity="1.0" font-size="5.0e-2" stroke="none" stroke-width="0.0" fill="#666666" text-anchor="end">
    <text transform="rotate(-45.0, -8.558119666324293e-2, 0.5)" x="-8.558119666324293e-2" y="0.5">31 Mar 2019
    </text>
  </g>
  <g fill-opacity="1.0" font-size="5.0e-2" stroke="none" stroke-width="0.0" fill="#666666" text-anchor="end">
    <text transform="rotate(-45.0, 5.956197863169921e-2, 0.5)" x="5.956197863169921e-2" y="0.5">30 Jun 2019
    </text>
  </g>
  <g fill-opacity="1.0" font-size="5.0e-2" stroke="none" stroke-width="0.0" fill="#666666" text-anchor="end">
    <text transform="rotate(-45.0, 0.2070090138519578, 0.5)" x="0.2070090138519578" y="0.5">30 Sep 2019
    </text>
  </g>
  <g fill-opacity="1.0" font-size="5.0e-2" stroke="none" stroke-width="0.0" fill="#666666" text-anchor="end">
    <text transform="rotate(-45.0, 0.3544560490722164, 0.5)" x="0.3544560490722164" y="0.5">31 Dec 2019
    </text>
  </g>
  <g fill-opacity="1.0" font-size="5.0e-2" stroke="none" stroke-width="0.0" fill="#666666" text-anchor="end">
    <text transform="rotate(-45.0, 0.4350911464582954, 0.5)" x="0.4350911464582954" y="0.5">21 Feb 2020
    </text>
  </g>
  <g stroke-opacity="0.4" fill-opacity="1.0" stroke="#2c429d" stroke-width="5.0e-3" fill="#5f0391">
    <polyline points="-0.7145349562746587,0.4424577739281074
-0.7145349562746587,0.4124577739281074"/>
    <polyline points="-0.6638500379176948,0.4424577739281074
-0.6638500379176948,0.4124577739281074"/>
    <polyline points="-0.5164030026974362,0.4424577739281074
-0.5164030026974362,0.4124577739281074"/>
    <polyline points="-0.371259827402494,0.4424577739281074
-0.371259827402494,0.4124577739281074"/>
    <polyline points="-0.22611665210755194,0.4424577739281074
-0.22611665210755194,0.4124577739281074"/>
    <polyline points="-8.558119666324293e-2,0.4424577739281074
-8.558119666324293e-2,0.4124577739281074"/>
    <polyline points="5.956197863169921e-2,0.4424577739281074
5.956197863169921e-2,0.4124577739281074"/>
    <polyline points="0.2070090138519578,0.4424577739281074
0.2070090138519578,0.4124577739281074"/>
    <polyline points="0.3544560490722164,0.4424577739281074
0.3544560490722164,0.4124577739281074"/>
    <polyline points="0.4350911464582954,0.4424577739281074
0.4350911464582954,0.4124577739281074"/>
  </g>
  <g stroke-opacity="0.0" fill-opacity="0.5" stroke="#666666" stroke-width="0.0" fill="#5f0391">
    <rect height="4.330879168471247e-3" width="1.1519299626582706" x="-0.7168388161999752" y="0.4144651364226938"/>
  </g>
  <g stroke-opacity="0.3" stroke="#a8e5ee" stroke-width="5.0e-3" fill="none">
    <polyline points="-0.7197186411066209,0.3705067128627112
0.4379709713649409,0.3705067128627112"/>
  </g>
  <g stroke-opacity="0.3" stroke="#a8e5ee" stroke-width="5.0e-3" fill="none">
    <polyline points="-0.7197186411066209,0.2261440739136712
0.4379709713649409,0.2261440739136712"/>
  </g>
  <g stroke-opacity="0.3" stroke="#a8e5ee" stroke-width="5.0e-3" fill="none">
    <polyline points="-0.7197186411066209,8.17814349646312e-2
0.4379709713649409,8.17814349646312e-2"/>
  </g>
  <g stroke-opacity="0.3" stroke="#a8e5ee" stroke-width="5.0e-3" fill="none">
    <polyline points="-0.7197186411066209,-6.25812039844088e-2
0.4379709713649409,-6.25812039844088e-2"/>
  </g>
  <g stroke-opacity="0.3" stroke="#a8e5ee" stroke-width="5.0e-3" fill="none">
    <polyline points="-0.7197186411066209,-0.2069438429334487
0.4379709713649409,-0.2069438429334487"/>
  </g>
  <g stroke-opacity="0.3" stroke="#a8e5ee" stroke-width="5.0e-3" fill="none">
    <polyline points="-0.7197186411066209,-0.3513064818824887
0.4379709713649409,-0.3513064818824887"/>
  </g>
  <g stroke-opacity="0.3" stroke="#a8e5ee" stroke-width="5.0e-3" fill="none">
    <polyline points="-0.7197186411066209,-0.4956691208315287
0.4379709713649409,-0.4956691208315287"/>
  </g>
  <g fill-opacity="1.0" font-size="5.0e-2" stroke="none" stroke-width="0.0" fill="#666666" text-anchor="end">
    <text x="-0.75" y="0.3830662624512776">-60%
    </text>
  </g>
  <g fill-opacity="1.0" font-size="5.0e-2" stroke="none" stroke-width="0.0" fill="#666666" text-anchor="end">
    <text x="-0.75" y="0.23870362350223773">-40%
    </text>
  </g>
  <g fill-opacity="1.0" font-size="5.0e-2" stroke="none" stroke-width="0.0" fill="#666666" text-anchor="end">
    <text x="-0.75" y="9.434098455319773e-2">-20%
    </text>
  </g>
  <g fill-opacity="1.0" font-size="5.0e-2" stroke="none" stroke-width="0.0" fill="#666666" text-anchor="end">
    <text x="-0.75" y="-5.0021654395842385e-2">0%
    </text>
  </g>
  <g fill-opacity="1.0" font-size="5.0e-2" stroke="none" stroke-width="0.0" fill="#666666" text-anchor="end">
    <text x="-0.75" y="-0.19438429334488216">20%
    </text>
  </g>
  <g fill-opacity="1.0" font-size="5.0e-2" stroke="none" stroke-width="0.0" fill="#666666" text-anchor="end">
    <text x="-0.75" y="-0.3387469322939223">40%
    </text>
  </g>
  <g fill-opacity="1.0" font-size="5.0e-2" stroke="none" stroke-width="0.0" fill="#666666" text-anchor="end">
    <text x="-0.75" y="-0.4831095712429623">60%
    </text>
  </g>
  <g stroke-opacity="0.4" fill-opacity="1.0" stroke="#2c429d" stroke-width="5.0e-3" fill="#5f0391">
    <g transform="rotate(-90.0, -0.7312379407332036, 0.3705067128627112)">
      <polyline points="-0.7312379407332036,0.3855067128627112
-0.7312379407332036,0.3555067128627112"/>
    </g>
    <g transform="rotate(-90.0, -0.7312379407332036, 0.2261440739136712)">
      <polyline points="-0.7312379407332036,0.2411440739136712
-0.7312379407332036,0.21114407391367118"/>
    </g>
    <g transform="rotate(-90.0, -0.7312379407332036, 8.17814349646312e-2)">
      <polyline points="-0.7312379407332036,9.67814349646312e-2
-0.7312379407332036,6.67814349646312e-2"/>
    </g>
    <g transform="rotate(-90.0, -0.7312379407332036, -6.25812039844088e-2)">
      <polyline points="-0.7312379407332036,-4.758120398440881e-2
-0.7312379407332036,-7.75812039844088e-2"/>
    </g>
    <g transform="rotate(-90.0, -0.7312379407332036, -0.2069438429334487)">
      <polyline points="-0.7312379407332036,-0.19194384293344868
-0.7312379407332036,-0.2219438429334487"/>
    </g>
    <g transform="rotate(-90.0, -0.7312379407332036, -0.3513064818824887)">
      <polyline points="-0.7312379407332036,-0.3363064818824887
-0.7312379407332036,-0.3663064818824887"/>
    </g>
    <g transform="rotate(-90.0, -0.7312379407332036, -0.4956691208315287)">
      <polyline points="-0.7312379407332036,-0.4806691208315287
-0.7312379407332036,-0.5106691208315287"/>
    </g>
  </g>
  <g stroke-opacity="0.0" fill-opacity="0.5" stroke="#666666" stroke-width="0.0" fill="#5f0391">
    <rect height="0.8661758336942399" width="2.8798249066456227e-3" x="-0.7254782909199122" y="-0.4956691208315287"/>
  </g>
  <g stroke-opacity="0.5" stroke="#ac0505" stroke-width="2.0e-3" fill="none">
    <polyline points="-0.7145349562746587,-6.25812039844088e-2
0.4350911464582954,-6.25812039844088e-2"/>
  </g>
  <g stroke-opacity="0.5" stroke="#4b2282" stroke-width="7.0e-3" fill="none">
    <polyline points="-0.7145349562746587,-9.740914588336536e-2
-0.7122310963493421,-8.691582556119903e-2
-0.7099272364240256,-7.5956011375508e-2
-0.707623376498709,-8.009105639941938e-2
-0.7053195165733925,-8.673090062369071e-2
-0.703015656648076,-8.829795181234301e-2
-0.7007117967227594,-8.793282477913555e-2
-0.6984079367974428,-8.978091917745523e-2
-0.6961040768721263,-9.318260313397175e-2
-0.6938002169468098,-9.20405187104193e-2
-0.6914963570214933,-8.882928736197315e-2
-0.6891924970961767,-8.650767712260488e-2
-0.6868886371708601,-8.621829972065365e-2
-0.6845847772455436,-8.640919760058119e-2
-0.6822809173202271,-8.344279922205167e-2
-0.6799770573949105,-8.364383385054552e-2
-0.677673197469594,-8.355614715017723e-2
-0.6753693375442774,-7.967386733623305e-2
-0.673065477618961,-7.272526626066456e-2
-0.6707616176936444,-7.870366171059362e-2
-0.6684577577683278,-6.907351799269135e-2
-0.6661538978430113,-6.852078173936071e-2
-0.6638500379176948,-7.51008104783002e-2
-0.6615461779923782,-6.474799596588066e-2
-0.6592423180670617,-7.174775761886787e-2
-0.6569384581417451,-7.74385311333965e-2
-0.6546345982164286,-8.067959108054334e-2
-0.6523307382911121,-7.086768355267026e-2
-0.6500268783657955,-7.299196804146446e-2
-0.647723018440479,-7.848619024566039e-2
-0.6454191585151624,-7.637364433846172e-2
-0.6431152985898458,-7.896978576425384e-2
-0.6408114386645294,-7.818484778623502e-2
-0.6385075787392128,-7.963171939875913e-2
-0.6362037188138963,-8.076888885495959e-2
-0.6338998588885797,-8.080230042079994e-2
-0.6315959989632631,-8.01933897946231e-2
-0.6292921390379467,-7.972485925717576e-2
-0.6269882791126301,-7.9716458279532e-2
-0.6246844191873135,-8.013108221093801e-2
-0.622380559261997,-7.984332257185611e-2
-0.6200766993366804,-7.728473151166315e-2
-0.617772839411364,-7.706328519175121e-2
-0.6154689794860474,-7.869998690113711e-2
-0.6131651195607308,-7.777078024947348e-2
-0.6108612596354144,-7.995216824196516e-2
-0.6085573997100978,-8.058667535879238e-2
-0.6062535397847812,-7.293587849169625e-2
-0.6039496798594648,-7.14381189574651e-2
-0.6016458199341481,-7.161563828095885e-2
-0.5993419600088317,-6.589432472615497e-2
-0.5970381000835151,-6.096658042564518e-2
-0.5947342401581985,-6.056119128363946e-2
-0.592430380232882,-6.066074735014915e-2
-0.5901265203075654,-6.658277329312501e-2
-0.587822660382249,-6.392290425495017e-2
-0.5855188004569324,-6.534143416941485e-2
-0.5832149405316158,-6.851662461250685e-2
-0.5809110806062993,-6.143418415013813e-2
-0.5786072206809827,-6.566827113853646e-2
-0.5763033607556662,-6.277043345573319e-2
-0.5739995008303497,-6.625268975841303e-2
-0.5716956409050331,-7.022988114079687e-2
-0.5693917809797165,-8.485261427210422e-2
-0.5670879210544,-6.95717616275785e-2
-0.5647840611290835,-7.558695326602116e-2
-0.562480201203767,-6.607182811284795e-2
-0.5601763412784504,-6.325275182539714e-2
-0.5578724813531338,-6.341424125023531e-2
-0.5555686214278173,-5.6443825018507865e-2
-0.5532647615025008,-5.828887387930626e-2
-0.5509609015771842,-5.629236209375965e-2
-0.5486570416518677,-5.652075297343706e-2
-0.5463531817265511,-5.5906630334010776e-2
-0.5440493218012346,-6.332277507889872e-2
-0.5417454618759181,-6.125492043862901e-2
-0.5394416019506015,-6.451261225077898e-2
-0.537137742025285,-6.963220244141355e-2
-0.5348338820999685,-7.78001433574248e-2
-0.5325300221746518,-7.57681002271201e-2
-0.5302261622493354,-8.778054882161446e-2
-0.5279223023240188,-8.488569754919584e-2
-0.5256184423987023,-0.10235301305482625
-0.5233145824733857,-9.927443988460505e-2
-0.5210107225480691,-0.10619710354742073
-0.5187068626227527,-9.718513683854269e-2
-0.516403002697436,-9.605956726673959e-2
-0.5140991427721195,-9.183852883316368e-2
-0.5117952828468031,-9.703453953368191e-2
-0.5094914229214865,-8.350815180024151e-2
-0.50718756299617,-7.369140146811781e-2
-0.5048837030708534,-6.583005467767711e-2
-0.5025798431455368,-6.381640091101926e-2
-0.5002759832202204,-7.068602808806579e-2
-0.4979721232949038,-6.42438689190411e-2
-0.49566826336958725,-6.423824264117917e-2
-0.4933644034442707,-6.595232105701099e-2
-0.4910605435189542,-6.309055548669729e-2
-0.4887566835936376,-6.198752163875054e-2
-0.4864528236683211,-6.798589534879917e-2
-0.48414896374300453,-7.021195354810672e-2
-0.481845103817688,-6.88249970442949e-2
-0.47954124389237146,-6.293196256994804e-2
-0.4772373839670549,-5.149012417541876e-2
-0.47493352404173844,-5.747957483680477e-2
-0.47262966411642193,-6.742315017035572e-2
-0.47032580419110537,-7.400193103024622e-2
-0.4680219442657888,-6.943286400594573e-2
-0.46571808434047224,-7.126667848394896e-2
-0.46341422441515573,-6.604663199145688e-2
-0.46111036448983916,-6.138096562829953e-2
-0.45880650456452265,-5.816821844898823e-2
-0.4565026446392061,-5.5831427973378145e-2
-0.4541987847138896,-5.826293953515804e-2
-0.45189492478857296,-6.284967713093403e-2
-0.44959106486325645,-7.635017950550915e-2
-0.44728720493793994,-8.216914230532957e-2
-0.4449833450126234,-7.309685562690083e-2
-0.4426794850873068,-8.141544196089845e-2
-0.4403756251619903,-7.336615089791199e-2
-0.4380717652366738,-7.139873587905943e-2
-0.4357679053113572,-7.001606492379953e-2
-0.43346404538604066,-6.883008676853786e-2
-0.4311601854607241,-7.035263100355904e-2
-0.4288563255354076,-7.361330498684282e-2
-0.426552465610091,-6.555399930482086e-2
-0.4242486056847745,-5.712939570980036e-2
-0.42194474575945795,-5.8345469852040144e-2
-0.4196408858341414,-5.302690847689062e-2
-0.4173370259088248,-6.0859996277740414e-2
-0.4150331659835083,-6.20896457018173e-2
-0.4127293060581918,-6.574866988760919e-2
-0.41042544613287524,-7.094398951549519e-2
-0.4081215862075587,-7.684299303997633e-2
-0.4058177262822421,-8.053092161609454e-2
-0.4035138663569256,-7.826714754353659e-2
-0.40121000643160903,-7.255306314425758e-2
-0.3989061465062925,-7.315186269574858e-2
-0.39660228658097596,-6.39441910728642e-2
-0.39429842665565945,-6.512586368395323e-2
-0.3919945667303429,-7.694233858209287e-2
-0.3896907068050263,-6.873585380952973e-2
-0.3873868468797098,-6.804028381676297e-2
-0.38508298695439325,-5.675639064150573e-2
-0.3827791270290768,-5.86595447424102e-2
-0.38047526710376023,-6.501576806795228e-2
-0.37817140717844366,-6.780342879396584e-2
-0.37586754725312715,-7.326127540528216e-2
-0.37356368732781053,-6.998645149776184e-2
-0.371259827402494,-7.102870944288153e-2
-0.3689559674771775,-6.551806271692462e-2
-0.36665210755186095,-6.768493657081265e-2
-0.3643482476265444,-6.769762246467426e-2
-0.3620443877012279,-8.288602054155425e-2
-0.35974052777591137,-8.667835070903929e-2
-0.3574366678505948,-8.696572091457044e-2
-0.35513280792527824,-8.822351682001439e-2
-0.35282894799996173,-7.784497117058642e-2
-0.3505250880746452,-4.564733962887346e-2
-0.34822122814932865,-7.503080660905626e-2
-0.3459173682240121,-6.773066899243951e-2
-0.3436135082986956,-9.675231197844414e-2
-0.34130964837337896,-9.784264527616571e-2
-0.3390057884480624,-7.544338051562371e-2
-0.3367019285227459,-7.7228361121214e-2
-0.3343980685974294,-7.326117784835695e-2
-0.3320942086721128,-6.814478840764182e-2
-0.32979034874679625,-4.194288551481651e-2
-0.32748648882147974,-6.927437498466782e-2
-0.32518262889616323,-5.072612621809103e-2
-0.32287876897084666,-4.640957100921661e-2
-0.3205749090455301,-6.724181428011577e-2
-0.3182710491202136,-8.070877738886573e-2
-0.3159671891948971,-9.207208904835695e-2
-0.3136633292695805,-8.647565275479163e-2
-0.31135946934426395,-9.234706137650761e-2
-0.30905560941894744,-9.785387849437233e-2
-0.30675174949363093,-0.1073162354840127
-0.30444788956831437,-0.1046651728114334
-0.3021440296429978,-9.633723925053261e-2
-0.2998401697176813,-8.006512551479039e-2
-0.2975363097923648,-7.97803710785513e-2
-0.2952324498670482,-7.538667727655979e-2
-0.29292858994173165,-8.140358551817406e-2
-0.29062473001641514,-8.302477803195818e-2
-0.28832087009109864,-7.424791793527408e-2
-0.28601701016578207,-6.560145293350539e-2
-0.28371315024046545,-6.832241313328968e-2
-0.28140929031514894,-6.62717739559997e-2
-0.2791054303898324,-7.183440222081006e-2
-0.2768015704645158,-7.373003748941065e-2
-0.2744977105391993,-7.877150899070451e-2
-0.2721938506138828,-7.76723244283768e-2
-0.26988999068856623,-8.064441601797734e-2
-0.26758613076324966,-8.361879130976013e-2
-0.26528227083793315,-6.976978721575489e-2
-0.26297841091261664,-6.936901542947982e-2
-0.2606745509873001,-5.8359454426973434e-2
-0.2583706910619835,-6.0445116216043315e-2
-0.256066831136667,-6.115587844393788e-2
-0.2537629712113504,-6.410795272468905e-2
-0.2514591112860338,-6.453272421631784e-2
-0.24915525136071737,-5.969794100346071e-2
-0.2468513914354008,-5.454553014887098e-2
-0.24454753151008424,-5.571205981651284e-2
-0.24224367158476767,-5.262090666163688e-2
-0.2399398116594511,-4.996060788269974e-2
-0.23763595173413465,-4.7229233423655814e-2
-0.2353320918088182,-4.409399077027165e-2
-0.23302823188350164,-6.254696058588649e-2
-0.23072437195818507,-7.03056735089892e-2
-0.2284205120328685,-7.130063641193773e-2
-0.22611665210755194,-7.730946613665401e-2
-0.22381279218223538,-7.908217014121788e-2
-0.2215089322569188,-6.789999174617056e-2
-0.21920507233160236,-8.075490148826814e-2
-0.2169012124062858,-8.495088690947772e-2
-0.21459735248096923,-8.960293126161234e-2
-0.21229349255565277,-9.148872877571923e-2
-0.2099896326303362,-9.319464984765324e-2
-0.20768577270501964,-9.312607477542689e-2
-0.20538191277970308,-9.149523053393971e-2
-0.20307805285438651,-9.322299768982911e-2
-0.20077419292907006,-9.35531531128565e-2
-0.1984703330037535,-9.411202986004241e-2
-0.19616647307843693,-9.399168391611679e-2
-0.19386261315312037,-9.160376024550654e-2
-0.1915587532278038,-9.166787630534456e-2
-0.18925489330248724,-9.165578995303714e-2
-0.18695103337717067,-9.063125215672785e-2
-0.18464717345185422,-9.116539475409224e-2
-0.18234331352653765,-9.147768981743198e-2
-0.1800394536012211,-8.65518129381393e-2
-0.17773559367590464,-8.472685226023036e-2
-0.17543173375058807,-8.491773748598563e-2
-0.1731278738252714,-8.307643356473837e-2
-0.17082401389995483,-8.193649379836221e-2
-0.16852015397463838,-8.376026180240415e-2
-0.1662162940493218,-8.851917770966222e-2
-0.16391243412400536,-8.881185749218623e-2
-0.1616085741986888,-8.911418969210849e-2
-0.15930471427337234,-8.030514051249982e-2
-0.15700085434805577,-7.949127276441359e-2
-0.1546969944227392,-8.26020821650878e-2
-0.15239313449742264,-7.483445747126483e-2
-0.15008927457210608,-7.528988779670742e-2
-0.14778541464678963,-7.552690742784807e-2
-0.14548155472147306,-8.068532570575626e-2
-0.1431776947961565,-7.577854754167046e-2
-0.14087383487083993,-7.659721933655061e-2
-0.13856997494552337,-7.978212411095875e-2
-0.1362661150202068,-8.27230177940469e-2
-0.13396225509489024,-8.85925148289477e-2
-0.13165839516957378,-8.052835114288404e-2
-0.12935453524425722,-8.829866948144705e-2
-0.12705067531894065,-9.20756235619784e-2
-0.1247468153936242,-0.1029657563974038
-0.12244295546830763,-0.11413712809893961
-0.12013909554299107,-0.11769165730898401
-0.1178352356176745,-9.131112061633695e-2
-0.11553137569235794,-8.901645070787245e-2
-0.11322751576704149,-8.117276786983019e-2
-0.11092365584172492,-8.412628440908343e-2
-0.10861979591640836,-7.879562180104982e-2
-0.10631593599109179,-7.546599336949533e-2
-0.10401207606577523,-7.822878224321261e-2
-0.10170821614045866,-8.55168355276571e-2
-9.94043562151421e-2,-6.825907769805994e-2
-9.710049628982564e-2,-9.047163349637388e-2
-9.479663636450908e-2,-9.137055481400946e-2
-9.249277643919251e-2,-8.60696072626832e-2
-9.018891651387606e-2,-8.960018705831718e-2
-8.78850565885595e-2,-8.719066001765852e-2
-8.558119666324293e-2,-8.151894793860026e-2
-8.327733673792637e-2,-7.129324686176375e-2
-8.09734768126098e-2,-7.254267123348224e-2
-7.866961688729335e-2,-7.203051492612411e-2
-7.636575696197667e-2,-7.154271810887858e-2
-7.406189703666022e-2,-6.809443147345773e-2
-7.175803711134365e-2,-6.898947576896464e-2
-6.945417718602709e-2,-7.86846939794712e-2
-6.715031726071052e-2,-7.593310379854346e-2
-6.484645733539396e-2,-7.786187104037001e-2
-6.25425974100775e-2,-6.977552409812693e-2
-6.023873748476094e-2,-7.319645793674867e-2
-5.7934877559444375e-2,-7.486464903122947e-2
-5.563101763412792e-2,-8.126633678455963e-2
-5.332715770881136e-2,-8.073100680628009e-2
-5.10232977834949e-2,-8.131924982606065e-2
-4.871943785817834e-2,-6.487157326977877e-2
-4.641557793286177e-2,-7.215995991711155e-2
-4.411171800754521e-2,-7.577253528505046e-2
-4.1807858082228755e-2,-6.865806589151946e-2
-3.950399815691219e-2,-6.970490393917916e-2
-3.7200138231595625e-2,-7.105702142670878e-2
-3.489627830627917e-2,-9.024215884127507e-2
-3.259241838096261e-2,-9.605567812919391e-2
-3.0288558455646042e-2,-7.622522284491084e-2
-2.7984698530329366e-2,-8.4738026440481e-2
-2.5680838605012912e-2,-9.667309896673948e-2
-2.3376978679696347e-2,-9.700910312443778e-2
-2.1073118754379783e-2,-9.7825829736372e-2
-1.876925882906333e-2,-9.536755102381234e-2
-1.6465398903746764e-2,-8.977162816121265e-2
-1.41615389784302e-2,-9.363378438317704e-2
-1.1857679053113634e-2,-9.657733655748657e-2
-9.55381912779707e-3,-9.931150235488062e-2
-7.249959202480616e-3,-9.522426273678708e-2
-4.946099277164051e-3,-9.118370604692294e-2
-2.6422393518474863e-3,-9.29867149371385e-2
-3.383794265310325e-4,-9.168652453890991e-2
1.9654804987856433e-3,-8.556478699140757e-2
4.269340424102097e-3,-8.632243212914925e-2
6.573200349418773e-3,-8.318015869679185e-2
8.877060274735227e-3,-8.116572920134146e-2
1.1180920200051792e-2,-8.164695563779734e-2
1.3484780125368245e-2,-7.853153955403658e-2
1.578864005068481e-2,-7.82944736985578e-2
1.8092499976001264e-2,-7.521238409603404e-2
2.039635990131794e-2,-8.025404165513506e-2
2.2700219826634616e-2,-8.372161563836e-2
2.500407975195107e-2,-8.779084010325655e-2
2.7307939677267634e-2,-8.975270490000808e-2
2.9611799602584088e-2,-8.920680813678916e-2
3.191565952790065e-2,-8.809715754002567e-2
3.4219519453217107e-2,-8.874228085948332e-2
3.652337937853378e-2,-8.827003124536192e-2
3.8827239303850236e-2,-8.828109015486918e-2
4.113109922916691e-2,-8.603294303622655e-2
4.3434959154483366e-2,-8.58920102253844e-2
4.573881907979993e-2,-8.341194086597348e-2
4.8042679005116384e-2,-8.365461457183498e-2
5.034653893043295e-2,-8.423474114221063e-2
5.2650398855749625e-2,-8.548283574372428e-2
5.495425878106608e-2,-8.577750165149434e-2
5.7258118706382755e-2,-8.461484938079233e-2
5.956197863169921e-2,-8.214773341670256e-2
6.186583855701577e-2,-7.836742894501425e-2
6.416969848233223e-2,-7.760530766053486e-2
6.647355840764879e-2,-7.343534160264054e-2
6.877741833296525e-2,-7.546875405845033e-2
7.108127825828192e-2,-7.927567808227787e-2
7.338513818359838e-2,-7.930860011856367e-2
7.568899810891505e-2,-7.644230796634355e-2
7.79928580342315e-2,-7.564109456976642e-2
8.029671795954807e-2,-7.212715518656865e-2
8.260057788486463e-2,-7.383504391705042e-2
8.490443781018109e-2,-7.987001853546516e-2
8.720829773549776e-2,-8.817693038988816e-2
8.951215766081422e-2,-8.495172633693426e-2
9.18160175861309e-2,-9.183762470448809e-2
9.411987751144713e-2,-8.93215282642863e-2
9.64237374367638e-2,-8.090972653086959e-2
9.872759736208037e-2,-7.646348919741752e-2
0.10103145728739682,-8.333082291784288e-2
0.10333531721271338,-7.524795696123643e-2
0.10563917713802984,-7.808666919939788e-2
0.10794303706334651,-8.198058118467755e-2
0.11024689698866297,-9.040510920463374e-2
0.11255075691397964,-9.221734876311749e-2
0.1148546168392961,-9.262487728057123e-2
0.11715847676461266,-8.061544498101214e-2
0.11946233668992912,-9.234581969584532e-2
0.12176619661524568,-9.443436491255386e-2
0.12407005654056213,-0.10403620880668174
0.1263739164658788,-9.626497405610446e-2
0.12867777639119526,-8.276363892560334e-2
0.13098163631651194,-9.413268390429408e-2
0.1332854962418285,-6.428542567468443e-2
0.13558935616714496,-6.894555646815681e-2
0.13789321609246152,-8.350455394100498e-2
0.14019707601777798,-9.454455535045381e-2
0.14250093594309465,-8.643153234795364e-2
0.1448047958684111,-9.338193761143365e-2
0.14710865579372778,-9.299568869552788e-2
0.14941251571904424,-7.096017318272352e-2
0.1517163756443608,-8.061353616538414e-2
0.15402023556967726,-7.859627800401547e-2
0.15632409549499382,-8.365281216527087e-2
0.15862795542031027,-9.074299892368753e-2
0.16093181534562695,-9.106624591591517e-2
0.16323567527094363,-8.660625218340468e-2
0.16553953519626008,-9.081177617716696e-2
0.16784339512157664,-9.475976466112723e-2
0.1701472550468931,-9.472473165692552e-2
0.17245111497220966,-9.430844838168373e-2
0.17475497489752612,-9.412953388028344e-2
0.1770588348228428,-9.480274212705986e-2
0.17936269474815925,-9.498653167347737e-2
0.18166655467347592,-9.483086216129988e-2
0.18397041459879238,-9.472098124785366e-2
0.18627427452410894,-9.447839867445051e-2
0.1885781344494254,-9.462744621903407e-2
0.19088199437474196,-9.493154344555343e-2
0.1931858543000584,-9.669929869308236e-2
0.1954897142253751,-9.705713954397277e-2
0.19779357415069176,-0.10028335735447769
0.20009743407600822,-9.621235226217273e-2
0.20240129400132478,-9.7741306593081e-2
0.20470515392664124,-0.10077346662279396
0.2070090138519578,-9.646770302356467e-2
0.20931287377727426,-0.10175822766152554
0.21161673370259093,-0.10281060073664305
0.21392059362790738,-9.933137972194028e-2
0.21622445355322406,-9.274780527552828e-2
0.21852831347854051,-9.239861814564698e-2
0.22083217340385708,-8.973539762932115e-2
0.22313603332917353,-8.909723923186796e-2
0.2254398932544901,-8.899281514870239e-2
0.22774375317980677,-8.764436780734053e-2
0.23004761310512323,-8.749430822360316e-2
0.2323514730304399,-8.587823183733867e-2
0.23465533295575636,-8.58680669422982e-2
0.23695919288107292,-8.553406204960978e-2
0.23926305280638938,-8.626989055648182e-2
0.24156691273170594,-8.378220691128047e-2
0.2438707726570224,-8.502210626747653e-2
0.24617463258233885,-8.39939554870287e-2
0.24847849250765552,-8.333619439657358e-2
0.250782352432972,-8.10615724849636e-2
0.25308621235828865,-7.73846442373406e-2
0.2553900722836051,-7.895362324159738e-2
0.2576939322089218,-7.689295796980433e-2
0.259997792134238,-8.095169466734453e-2
0.2623016520595547,-7.08010330598029e-2
0.26460551198487114,-6.850826808619015e-2
0.2669093719101878,-7.142954583296535e-2
0.2692132318355043,-7.225247405425683e-2
0.27151709176082095,-7.038613458116594e-2
0.2738209516861374,-6.86954720790024e-2
0.27612481161145386,-7.410165437622107e-2
0.27842867153677053,-7.366156391735801e-2
0.280732531462087,-7.478104181159351e-2
0.28303639138740366,-7.568315111747093e-2
0.2853402513127201,-6.186664802740727e-2
0.2876441112380368,-6.40552464693186e-2
0.28994797116335325,-6.864128420345195e-2
0.2922518310886697,-7.987989263060258e-2
0.2945556910139864,-8.577215463570409e-2
0.29685955093930283,-8.304013523735809e-2
0.2991634108646193,-6.669145722945546e-2
0.30146727078993596,-6.488831094148839e-2
0.3037711307152524,-5.826014613614039e-2
0.3060749906405691,-7.203310801632656e-2
0.30837885056588554,-9.071566302710221e-2
0.3106827104912022,-9.957727212062373e-2
0.3129865704165187,-8.991919402144966e-2
0.3152904303418351,-8.887834206586165e-2
0.3175942902671518,-7.512830921718516e-2
0.31989815019246826,-7.956144732867632e-2
0.32220201011778493,-8.184853502866063e-2
0.3245058700431014,-7.903962611308091e-2
0.32680972996841806,-6.748945624336888e-2
0.3291135898937343,-6.896255802360773e-2
0.33141744981905097,-6.1208868958715246e-2
0.3337213097443674,-6.273608417766185e-2
0.3360251696696841,-6.544286711351988e-2
0.3383290295950008,-6.074698273360435e-2
0.34063288952031723,-5.53466936264192e-2
0.3429367494456339,-5.684258172367895e-2
0.34524060937095014,-6.044783404769516e-2
0.3475444692962668,-5.3442805626782164e-2
0.34984832922158327,-5.712023785156306e-2
0.35215218914689994,-7.267195254234737e-2
0.3544560490722164,-6.983432563537595e-2
0.35675990899753307,-5.735533352370625e-2
0.3590637689228495,-6.925608029119679e-2
0.361367628848166,-6.723580461085388e-2
0.36367148877348265,-7.125896284621436e-2
0.3659753486987991,-6.724740404342688e-2
0.36827920862411556,-6.149676630835699e-2
0.37058306854943224,-6.595189929221767e-2
0.3728869284747489,-6.048860563648395e-2
0.37519078840006537,-6.337057809632873e-2
0.3774946483253818,-6.30386855936147e-2
0.3797985082506985,-5.566291557805847e-2
0.38210236817601495,-5.397578501307054e-2
0.3844062281013314,-5.90555976810776e-2
0.3867100880266481,-6.055992239773034e-2
0.38901394795196453,-6.12120378199823e-2
0.391317807877281,-7.320618448479e-2
0.39362166780259766,-7.321500739190445e-2
0.3959255277279141,-7.961582010587953e-2
0.39822938765323057,-7.797113618348395e-2
0.40053324757854725,-7.987957581057414e-2
0.4028371075038639,-6.548335095349966e-2
0.40514096742918015,-7.421030425570108e-2
0.40744482735449705,-8.677213640970138e-2
0.4097486872798133,-9.713956129250878e-2
0.4120525472051302,-9.941039669484752e-2
0.4143564071304464,-9.008959536879835e-2
0.4166602670557631,-9.568387506108589e-2
0.4189641269810793,-9.584905932311005e-2
0.4212679869063962,-9.936732605069165e-2
0.42357184683171245,-9.62811769799301e-2
0.42587570675702935,-9.643942475368505e-2
0.4281795666823456,-9.329166967711e-2
0.43048342660766226,-9.44096930353916e-2
0.4327872865329787,-9.16259306553261e-2
0.4350911464582954,-8.47304846088075e-2"/>
  </g>
  <g stroke-opacity="0.5" stroke="#431712" stroke-width="7.0e-3" fill="none">
    <polyline points="-0.7145349562746587,-7.102077263868045e-2
-0.7122310963493421,-6.712472232703448e-2
-0.7099272364240256,-6.266291559884773e-2
-0.707623376498709,-6.413759938258234e-2
-0.7053195165733925,-6.736314254836429e-2
-0.703015656648076,-6.800566156145449e-2
-0.7007117967227594,-6.767584673177285e-2
-0.6984079367974428,-6.88368429753976e-2
-0.6961040768721263,-7.33482322732929e-2
-0.6938002169468098,-7.272448320493419e-2
-0.6914963570214933,-7.054972540804805e-2
-0.6891924970961767,-6.863145585140529e-2
-0.6868886371708601,-6.822347972650822e-2
-0.6845847772455436,-6.853315045979291e-2
-0.6822809173202271,-6.429585671421656e-2
-0.6799770573949105,-6.457944019286899e-2
-0.677673197469594,-6.393504425123442e-2
-0.6753693375442774,-5.740691369553752e-2
-0.673065477618961,-5.202010267995982e-2
-0.6707616176936444,-5.998319896481208e-2
-0.6684577577683278,-5.506539342331751e-2
-0.6661538978430113,-5.419308718300009e-2
-0.6638500379176948,-5.824884723225421e-2
-0.6615461779923782,-5.230583284937429e-2
-0.6592423180670617,-5.608226971165986e-2
-0.6569384581417451,-5.942529411400921e-2
-0.6546345982164286,-6.1333406406805846e-2
-0.6523307382911121,-5.5398438363163716e-2
-0.6500268783657955,-5.634275576983827e-2
-0.647723018440479,-6.102296157255693e-2
-0.6454191585151624,-5.942044496532961e-2
-0.6431152985898458,-6.164663044185381e-2
-0.6408114386645294,-6.0789742480429676e-2
-0.6385075787392128,-6.290138913978682e-2
-0.6362037188138963,-6.560790136050154e-2
-0.6338998588885797,-6.571966784608374e-2
-0.6315959989632631,-6.411504025401593e-2
-0.6292921390379467,-6.183407287820719e-2
-0.6269882791126301,-6.1782512497172815e-2
-0.6246844191873135,-5.844079101084709e-2
-0.622380559261997,-5.886861262570431e-2
-0.6200766993366804,-6.1390229100314775e-2
-0.617772839411364,-6.160213245198276e-2
-0.6154689794860474,-5.9604548082104136e-2
-0.6131651195607308,-6.016824954740918e-2
-0.6108612596354144,-5.847149721809908e-2
-0.6085573997100978,-5.793145931406185e-2
-0.6062535397847812,-6.0812912102715666e-2
-0.6039496798594648,-6.1540412822249646e-2
-0.6016458199341481,-6.1426976819442536e-2
-0.5993419600088317,-6.345378667511159e-2
-0.5970381000835151,-6.535667484261054e-2
-0.5947342401581985,-6.562745299670814e-2
-0.592430380232882,-6.571955158205489e-2
-0.5901265203075654,-6.421515198372751e-2
-0.587822660382249,-6.495324519991819e-2
-0.5855188004569324,-6.470253236729706e-2
-0.5832149405316158,-6.411303627999287e-2
-0.5809110806062993,-6.542531447070532e-2
-0.5786072206809827,-6.475213282348313e-2
-0.5763033607556662,-6.527127843817426e-2
-0.5739995008303497,-6.482874873852507e-2
-0.5716956409050331,-6.434139126223792e-2
-0.5693917809797165,-6.2283745739246665e-2
-0.5670879210544,-6.437511306534482e-2
-0.5647840611290835,-6.311611671529682e-2
-0.562480201203767,-6.486516145246346e-2
-0.5601763412784504,-6.554475454747377e-2
-0.5578724813531338,-6.558605718736088e-2
-0.5555686214278173,-6.685266336652251e-2
-0.5532647615025008,-6.66528357391083e-2
-0.5509609015771842,-6.705172030291762e-2
-0.5486570416518677,-6.71299335400799e-2
-0.5463531817265511,-6.730348373616402e-2
-0.5440493218012346,-6.66352754165851e-2
-0.5417454618759181,-6.690446447201925e-2
-0.5394416019506015,-6.669252371011447e-2
-0.537137742025285,-6.634132840589402e-2
-0.5348338820999685,-6.575704058466936e-2
-0.5325300221746518,-6.591180403526387e-2
-0.5302261622493354,-6.508051746459997e-2
-0.5279223023240188,-6.525097839853888e-2
-0.5256184423987023,-6.361679993404457e-2
-0.5233145824733857,-6.384303457256457e-2
-0.5210107225480691,-6.282978914911463e-2
-0.5187068626227527,-6.349505827511082e-2
-0.516403002697436,-6.354983853353735e-2
-0.5140991427721195,-6.384316669270163e-2
-0.5117952828468031,-6.330868676172319e-2
-0.5094914229214865,-6.411256534791354e-2
-0.50718756299617,-6.487996785850025e-2
-0.5048837030708534,-6.565326522789627e-2
-0.5025798431455368,-6.593216058234785e-2
-0.5002759832202204,-6.521420952772516e-2
-0.4979721232949038,-6.59218283176829e-2
-0.49566826336958725,-6.597086557949838e-2
-0.4933644034442707,-6.583844931460758e-2
-0.4910605435189542,-6.61080188328591e-2
-0.4887566835936376,-6.622906406828744e-2
-0.4864528236683211,-6.589419448002931e-2
-0.48414896374300453,-6.579275326846756e-2
-0.481845103817688,-6.587704861849031e-2
-0.47954124389237146,-6.612011221310887e-2
-0.4772373839670549,-6.655150263479437e-2
-0.47493352404173844,-6.633740032449387e-2
-0.47262966411642193,-6.593429476853452e-2
-0.47032580419110537,-6.559406986732486e-2
-0.4680219442657888,-6.57992143873698e-2
-0.46571808434047224,-6.572704707221178e-2
-0.46341422441515573,-6.589771712355463e-2
-0.46111036448983916,-6.604245765471517e-2
-0.45880650456452265,-6.613812111887707e-2
-0.4565026446392061,-6.620159507777823e-2
-0.4541987847138896,-6.617789388251494e-2
-0.45189492478857296,-6.613162765801195e-2
-0.44959106486325645,-6.596798990009278e-2
-0.44728720493793994,-6.588125701154168e-2
-0.4449833450126234,-6.593996090336018e-2
-0.4426794850873068,-6.581034668703056e-2
-0.4403756251619903,-6.586705146428107e-2
-0.4380717652366738,-6.589437970884349e-2
-0.4357679053113572,-6.590583141262518e-2
-0.43346404538604066,-6.59085353244735e-2
-0.4311601854607241,-6.590992100230375e-2
-0.4288563255354076,-6.592224612800024e-2
-0.426552465610091,-6.58408662040526e-2
-0.4242486056847745,-6.571967329669359e-2
-0.42194474575945795,-6.572538405725026e-2
-0.4196408858341414,-6.561826367420098e-2
-0.4173370259088248,-6.571299101996664e-2
-0.4150331659835083,-6.572589093833892e-2
-0.4127293060581918,-6.57895723844627e-2
-0.41042544613287524,-6.589682792860518e-2
-0.4081215862075587,-6.604295398988325e-2
-0.4058177262822421,-6.614975733815631e-2
-0.4035138663569256,-6.608889146357955e-2
-0.40121000643160903,-6.592631562997064e-2
-0.3989061465062925,-6.593907488449091e-2
-0.39660228658097596,-6.565279876160801e-2
-0.39429842665565945,-6.567505965742282e-2
-0.3919945667303429,-6.606013377433739e-2
-0.3896907068050263,-6.572585442866263e-2
-0.3873868468797098,-6.568191619221497e-2
-0.38508298695439325,-6.511951014847495e-2
-0.3827791270290768,-6.519761285860104e-2
-0.38047526710376023,-6.551824186078048e-2
-0.37817140717844366,-6.567550413546352e-2
-0.37586754725312715,-6.600391761186797e-2
-0.37356368732781053,-6.580575074450801e-2
-0.371259827402494,-6.586392939947638e-2
-0.3689559674771775,-6.55555536787169e-2
-0.36665210755186095,-6.566215534483366e-2
-0.3643482476265444,-6.565273861999288e-2
-0.3620443877012279,-6.659550612186826e-2
-0.35974052777591137,-6.721995715724283e-2
-0.3574366678505948,-6.731425569232385e-2
-0.35513280792527824,-6.75261857919377e-2
-0.35282894799996173,-6.972472822373599e-2
-0.3505250880746452,-6.908583868325513e-2
-0.34822122814932865,-6.936580642706225e-2
-0.3459173682240121,-6.905537328525602e-2
-0.3436135082986956,-6.946273923153912e-2
-0.34130964837337896,-6.943195127002666e-2
-0.3390057884480624,-6.83043682213591e-2
-0.3367019285227459,-6.8275062396018e-2
-0.3343980685974294,-6.796650120945724e-2
-0.3320942086721128,-6.758970311359358e-2
-0.32979034874679625,-6.526252385953579e-2
-0.32748648882147974,-6.706911013358363e-2
-0.32518262889616323,-6.49337287057854e-2
-0.32287876897084666,-6.414597151015855e-2
-0.3205749090455301,-6.59903092926093e-2
-0.3182710491202136,-6.732832150475598e-2
-0.3159671891948971,-6.860451594366279e-2
-0.3136633292695805,-6.777439096948867e-2
-0.31135946934426395,-6.846188178795576e-2
-0.30905560941894744,-6.919646515133027e-2
-0.30675174949363093,-7.121712374822287e-2
-0.30444788956831437,-7.085197485995831e-2
-0.3021440296429978,-6.957799490581063e-2
-0.2998401697176813,-6.685185430670548e-2
-0.2975363097923648,-6.666424678658922e-2
-0.2952324498670482,-6.566493872144152e-2
-0.29292858994173165,-6.698253149761191e-2
-0.29062473001641514,-6.727433267354233e-2
-0.28832087009109864,-6.51084020310504e-2
-0.28601701016578207,-6.276111789319139e-2
-0.28371315024046545,-6.322566446699807e-2
-0.28140929031514894,-6.2409397112691445e-2
-0.2791054303898324,-6.439799600680318e-2
-0.2768015704645158,-6.486196229050445e-2
-0.2744977105391993,-6.751959000545182e-2
-0.2721938506138828,-6.721296170639257e-2
-0.26988999068856623,-6.828154889328308e-2
-0.26758613076324966,-6.964048970906589e-2
-0.26528227083793315,-6.494641467794215e-2
-0.26297841091261664,-6.473560112113907e-2
-0.2606745509873001,-6.125256207784713e-2
-0.2583706910619835,-6.1600025982022966e-2
-0.256066831136667,-6.160626097700839e-2
-0.2537629712113504,-6.2489179256744465e-2
-0.2514591112860338,-6.250977515222456e-2
-0.24915525136071737,-5.985120300812896e-2
-0.2468513914354008,-5.701966028058503e-2
-0.24454753151008424,-5.714589731475683e-2
-0.24224367158476767,-5.507680987525698e-2
-0.2399398116594511,-5.301025523502578e-2
-0.23763595173413465,-5.045094777314019e-2
-0.2353320918088182,-4.7330031855640664e-2
-0.23302823188350164,-5.6724115188332314e-2
-0.23072437195818507,-5.85405321798349e-2
-0.2284205120328685,-5.847461872813586e-2
-0.22611665210755194,-6.019886257187301e-2
-0.22381279218223538,-6.0572336584040376e-2
-0.2215089322569188,-5.65263689136517e-2
-0.21920507233160236,-6.27672234148483e-2
-0.2169012124062858,-6.419043855142437e-2
-0.21459735248096923,-6.605214056193198e-2
-0.21229349255565277,-6.687975972285709e-2
-0.2099896326303362,-6.775859884261548e-2
-0.20768577270501964,-6.78028439674514e-2
-0.20538191277970308,-6.69507808973756e-2
-0.20307805285438651,-6.87907180237809e-2
-0.20077419292907006,-6.921779895512703e-2
-0.1984703330037535,-7.048607574305776e-2
-0.19616647307843693,-7.253411198449866e-2
-0.19386261315312037,-7.013565055237458e-2
-0.1915587532278038,-7.052407882634415e-2
-0.18925489330248724,-7.077294216134955e-2
-0.18695103337717067,-7.205995681703703e-2
-0.18464717345185422,-7.084018775606327e-2
-0.18234331352653765,-7.06488015041764e-2
-0.1800394536012211,-7.276274875618427e-2
-0.17773559367590464,-7.396352036387333e-2
-0.17543173375058807,-7.408652939829663e-2
-0.1731278738252714,-7.499259865383034e-2
-0.17082401389995483,-7.560769858693883e-2
-0.16852015397463838,-7.527747542261087e-2
-0.1662162940493218,-7.393263037230491e-2
-0.16391243412400536,-7.401494521729246e-2
-0.1616085741986888,-7.409860688911185e-2
-0.15930471427337234,-7.552328082061899e-2
-0.15700085434805577,-7.586573047519396e-2
-0.1546969944227392,-7.55114667577157e-2
-0.15239313449742264,-7.663649075081713e-2
-0.15008927457210608,-7.67749698916449e-2
-0.14778541464678963,-7.693872255040823e-2
-0.14548155472147306,-7.649994946039362e-2
-0.1431776947961565,-7.710775135575965e-2
-0.14087383487083993,-7.719946592949423e-2
-0.13856997494552337,-7.70830817301058e-2
-0.1362661150202068,-7.699620916726524e-2
-0.13396225509489024,-7.668712477194883e-2
-0.13165839516957378,-7.723147629305382e-2
-0.12935453524425722,-7.683327942773466e-2
-0.12705067531894065,-7.670649667072149e-2
-0.1247468153936242,-7.608850414343815e-2
-0.12244295546830763,-7.5339850119435e-2
-0.12013909554299107,-7.515568545490314e-2
-0.1178352356176745,-7.598593955678845e-2
-0.11553137569235794,-7.61808932401512e-2
-0.11322751576704149,-7.66087900771425e-2
-0.11092365584172492,-7.651977799840282e-2
-0.10861979591640836,-7.680193933843404e-2
-0.10631593599109179,-7.699904633581023e-2
-0.10401207606577523,-7.696419402936983e-2
-0.10170821614045866,-7.675531935966351e-2
-9.94043562151421e-2,-7.717136441579042e-2
-9.710049628982564e-2,-7.564498164887135e-2
-9.479663636450908e-2,-7.557435324885076e-2
-9.249277643919251e-2,-7.5908077624666e-2
-9.018891651387606e-2,-7.560297316445297e-2
-8.78850565885595e-2,-7.57598881450895e-2
-8.558119666324293e-2,-7.601895687759763e-2
-8.327733673792637e-2,-7.637241501572478e-2
-8.09734768126098e-2,-7.634891747494976e-2
-7.866961688729335e-2,-7.641532512018223e-2
-7.636575696197667e-2,-7.647317319145708e-2
-7.406189703666022e-2,-7.659652584803667e-2
-7.175803711134365e-2,-7.661134093984012e-2
-6.945417718602709e-2,-7.635618974699276e-2
-6.715031726071052e-2,-7.642359179449998e-2
-6.484645733539396e-2,-7.641110170208121e-2
-6.25425974100775e-2,-7.64797759611493e-2
-6.023873748476094e-2,-7.645593303814524e-2
-5.7934877559444375e-2,-7.645472879297677e-2
-5.563101763412792e-2,-7.641368102030466e-2
-5.332715770881136e-2,-7.64189952708989e-2
-5.10232977834949e-2,-7.642002805675707e-2
-4.871943785817834e-2,-7.631400356356721e-2
-4.641557793286177e-2,-7.630707215362653e-2
-4.411171800754521e-2,-7.631084747962802e-2
-4.1807858082228755e-2,-7.624960142021919e-2
-3.950399815691219e-2,-7.624440647925546e-2
-3.7200138231595625e-2,-7.623976286794809e-2
-3.489627830627917e-2,-7.62983807557458e-2
-3.259241838096261e-2,-7.634300812683315e-2
-3.0288558455646042e-2,-7.599912142618659e-2
-2.7984698530329366e-2,-7.608309286077486e-2
-2.5680838605012912e-2,-7.608474451359148e-2
-2.3376978679696347e-2,-7.611311768200546e-2
-2.1073118754379783e-2,-7.616610412683955e-2
-1.876925882906333e-2,-7.606843125680007e-2
-1.6465398903746764e-2,-7.580685934498954e-2
-1.41615389784302e-2,-7.56898186695143e-2
-1.1857679053113634e-2,-7.56172419279153e-2
-9.55381912779707e-3,-7.54487939890578e-2
-7.249959202480616e-3,-7.544493551471954e-2
-4.946099277164051e-3,-7.544685165309162e-2
-2.6422393518474863e-3,-7.525247468229268e-2
-3.383794265310325e-4,-7.527916409891255e-2
1.9654804987856433e-3,-7.526423666683402e-2
4.269340424102097e-3,-7.524635710875316e-2
6.573200349418773e-3,-7.528872568272282e-2
8.877060274735227e-3,-7.53424280102144e-2
1.1180920200051792e-2,-7.529605829456287e-2
1.3484780125368245e-2,-7.534366152894723e-2
1.578864005068481e-2,-7.538352919249391e-2
1.8092499976001264e-2,-7.429617808853539e-2
2.039635990131794e-2,-7.416651123179208e-2
2.2700219826634616e-2,-7.408024741268993e-2
2.500407975195107e-2,-7.385469221960228e-2
2.7307939677267634e-2,-7.379434889668224e-2
2.9611799602584088e-2,-7.380228374140418e-2
3.191565952790065e-2,-7.38324273723121e-2
3.4219519453217107e-2,-7.374312242487269e-2
3.652337937853378e-2,-7.378288588272863e-2
3.8827239303850236e-2,-7.376787347733771e-2
4.113109922916691e-2,-7.337893468785239e-2
4.3434959154483366e-2,-7.329633655250234e-2
4.573881907979993e-2,-7.290043368463583e-2
4.8042679005116384e-2,-7.295777734562692e-2
5.034653893043295e-2,-7.303661209543544e-2
5.2650398855749625e-2,-7.331681111128874e-2
5.495425878106608e-2,-7.337944826581011e-2
5.7258118706382755e-2,-7.32175298607679e-2
5.956197863169921e-2,-7.293497943893945e-2
6.186583855701577e-2,-7.252100450775978e-2
6.416969848233223e-2,-7.239617098632323e-2
6.647355840764879e-2,-7.195618980841523e-2
6.877741833296525e-2,-7.208678092853638e-2
7.108127825828192e-2,-7.237503735384532e-2
7.338513818359838e-2,-7.23352934608038e-2
7.568899810891505e-2,-7.206090091521666e-2
7.79928580342315e-2,-7.194474535130069e-2
8.029671795954807e-2,-7.16383599750513e-2
8.260057788486463e-2,-7.167786888207295e-2
8.490443781018109e-2,-7.198602364099049e-2
8.720829773549776e-2,-7.251705583127e-2
8.951215766081422e-2,-7.225363181932909e-2
9.18160175861309e-2,-7.278604481476048e-2
9.411987751144713e-2,-7.25764859044995e-2
9.64237374367638e-2,-7.194605993903092e-2
9.872759736208037e-2,-7.154460771407634e-2
0.10103145728739682,-7.207571443420002e-2
0.10333531721271338,-7.135150333527407e-2
0.10563917713802984,-7.157401366382443e-2
0.10794303706334651,-7.18961324421078e-2
0.11024689698866297,-7.293913460077028e-2
0.11255075691397964,-7.376286469649629e-2
0.1148546168392961,-7.44266748583029e-2
0.11715847676461266,-7.570367352848761e-2
0.11946233668992912,-7.490237503971475e-2
0.12176619661524568,-7.487943650014894e-2
0.12407005654056213,-7.365221232697905e-2
0.1263739164658788,-7.376923427691084e-2
0.12867777639119526,-7.38978685990308e-2
0.13098163631651194,-7.326048469231405e-2
0.1332854962418285,-7.26599981392374e-2
0.13558935616714496,-7.270123471000123e-2
0.13789321609246152,-7.269992056155494e-2
0.14019707601777798,-7.278237618840588e-2
0.14250093594309465,-7.252973161118825e-2
0.1448047958684111,-7.262474200455926e-2
0.14710865579372778,-7.26088215205074e-2
0.14941251571904424,-7.150252591255635e-2
0.1517163756443608,-7.180176151954587e-2
0.15402023556967726,-7.166444428029028e-2
0.15632409549499382,-7.184870848652036e-2
0.15862795542031027,-7.209964407583158e-2
0.16093181534562695,-7.211212454373506e-2
0.16323567527094363,-7.184179295610793e-2
0.16553953519626008,-7.203326695715029e-2
0.16784339512157664,-7.223650568572826e-2
0.1701472550468931,-7.225086810323411e-2
0.17245111497220966,-7.22359972990928e-2
0.17475497489752612,-7.223328979076682e-2
0.1770588348228428,-7.231806119331252e-2
0.17936269474815925,-7.235386004892941e-2
0.18166655467347592,-7.233462263883528e-2
0.18397041459879238,-7.22827688714599e-2
0.18627427452410894,-7.229263901045235e-2
0.1885781344494254,-7.229209437759787e-2
0.19088199437474196,-7.22921176228134e-2
0.1931858543000584,-7.22837235254391e-2
0.1954897142253751,-7.228718379101384e-2
0.19779357415069176,-7.229512052487641e-2
0.20009743407600822,-7.21924117403131e-2
0.20240129400132478,-7.222178198653584e-2
0.20470515392664124,-7.228215640773872e-2
0.2070090138519578,-7.216454116279658e-2
0.20931287377727426,-7.226138018957995e-2
0.21161673370259093,-7.221322746956804e-2
0.21392059362790738,-7.209381780697388e-2
0.21622445355322406,-7.177965885869952e-2
0.21852831347854051,-7.176807429165954e-2
0.22083217340385708,-7.159166635910452e-2
0.22313603332917353,-7.152631648776264e-2
0.2254398932544901,-7.149625187250919e-2
0.22774375317980677,-7.13747973103317e-2
0.23004761310512323,-7.137115843005348e-2
0.2323514730304399,-7.124714982201752e-2
0.23465533295575636,-7.124893807318788e-2
0.23695919288107292,-7.122710491296202e-2
0.23926305280638938,-7.125339520871654e-2
0.24156691273170594,-7.112320534024874e-2
0.2438707726570224,-7.116879709963064e-2
0.24617463258233885,-7.111676510627452e-2
0.24847849250765552,-7.108070503366515e-2
0.250782352432972,-7.097160724754581e-2
0.25308621235828865,-7.07942323914933e-2
0.2553900722836051,-7.083579275044627e-2
0.2576939322089218,-7.072851349765374e-2
0.259997792134238,-7.085712676157863e-2
0.2623016520595547,-7.037961792237435e-2
0.26460551198487114,-7.023738735937612e-2
0.2669093719101878,-7.031732249288103e-2
0.2692132318355043,-7.031196698167852e-2
0.27151709176082095,-7.019181584282519e-2
0.2738209516861374,-7.007522642307484e-2
0.27612481161145386,-7.023005429522322e-2
0.27842867153677053,-7.016635062120846e-2
0.280732531462087,-7.016000631352692e-2
0.28303639138740366,-7.014397642560344e-2
0.2853402513127201,-6.954218816257518e-2
0.2876441112380368,-6.955736484341524e-2
0.28994797116335325,-6.966341981801816e-2
0.2922518310886697,-7.003355656608334e-2
0.2945556910139864,-7.022989284204562e-2
0.29685955093930283,-7.007926945094445e-2
0.2991634108646193,-6.93541053052047e-2
0.30146727078993596,-6.920257871516167e-2
0.3037711307152524,-6.883212819951523e-2
0.3060749906405691,-6.932194081306142e-2
0.30837885056588554,-7.025290469185819e-2
0.3106827104912022,-7.09670684858531e-2
0.3129865704165187,-7.030803065917357e-2
0.3152904303418351,-7.020780417805716e-2
0.3175942902671518,-6.917009346095693e-2
0.31989815019246826,-6.95859364736301e-2
0.32220201011778493,-6.978356896984417e-2
0.3245058700431014,-6.950601891093633e-2
0.32680972996841806,-6.847381383328188e-2
0.3291135898937343,-6.855402682343403e-2
0.33141744981905097,-6.770741711504269e-2
0.3337213097443674,-6.77651219085238e-2
0.3360251696696841,-6.79249507144486e-2
0.3383290295950008,-6.741035826701236e-2
0.34063288952031723,-6.68196723036597e-2
0.3429367494456339,-6.681724470278538e-2
0.34524060937095014,-6.697105149406046e-2
0.3475444692962668,-6.630705849177931e-2
0.34984832922158327,-6.643828873629753e-2
0.35215218914689994,-6.746919491477221e-2
0.3544560490722164,-6.712382210798917e-2
0.35675990899753307,-6.585671369870805e-2
0.3590637689228495,-6.710863719070315e-2
0.361367628848166,-6.666870337290887e-2
0.36367148877348265,-6.726039948370077e-2
0.3659753486987991,-6.656354342471105e-2
0.36827920862411556,-6.555769031344438e-2
0.37058306854943224,-6.619737281145877e-2
0.3728869284747489,-6.511560065318811e-2
0.37519078840006537,-6.554320580778661e-2
0.3774946483253818,-6.537033301555961e-2
0.3797985082506985,-6.398691899767905e-2
0.38210236817601495,-6.346218167151763e-2
0.3844062281013314,-6.41457505430092e-2
0.3867100880266481,-6.427811740662526e-2
0.38901394795196453,-6.424662994242003e-2
0.391317807877281,-6.619101752095335e-2
0.39362166780259766,-6.906356521004997e-2
0.3959255277279141,-6.747564346821722e-2
0.39822938765323057,-6.773685405218366e-2
0.40053324757854725,-6.7352335652349e-2
0.4028371075038639,-6.999210744298501e-2
0.40514096742918015,-6.906849665544679e-2
0.40744482735449705,-6.703218401380939e-2
0.4097486872798133,-6.576354504480664e-2
0.4120525472051302,-6.549580205251448e-2
0.4143564071304464,-6.620631161273105e-2
0.4166602670557631,-6.544325980643628e-2
0.4189641269810793,-6.535824413723701e-2
0.4212679869063962,-6.468266405966949e-2
0.42357184683171245,-6.50066306249284e-2
0.42587570675702935,-6.4898770995784e-2
0.4281795666823456,-6.540959708370919e-2
0.43048342660766226,-6.489986676034365e-2
0.4327872865329787,-6.555574244933438e-2
0.4350911464582954,-6.707119392561234e-2"/>
  </g>
  <g stroke-opacity="0.5" fill-opacity="1.0" stroke="#3764a0" stroke-width="4.0e-3" fill="#ffffff">
    <rect height="0.1342572542226072" width="0.19784397108655827" x="0.5394847993242009" y="-6.74465492280435e-2"/>
  </g>
  <g fill-opacity="1.0" font-size="4.000000000000001e-2" stroke="none" stroke-width="0.0" fill="#666666" text-anchor="start">
    <text x="0.5510040989507838" y="3.1297495813099874e-2">rate = 0.99
    </text>
  </g>
  <g stroke-opacity="0.5" stroke="#431712" stroke-width="6.999999999999999e-3" fill="none">
    <polyline points="0.7007549940963589,2.5580735310717917e-2
0.7237935933495243,2.5580735310717917e-2"/>
  </g>
  <g fill-opacity="1.0" font-size="4.000000000000001e-2" stroke="none" stroke-width="0.0" fill="#666666" text-anchor="start">
    <text x="0.5510040989507838" y="-1.8074526707471894e-2">rate = 0.95
    </text>
  </g>
  <g stroke-opacity="0.5" stroke="#4b2282" stroke-width="6.999999999999999e-3" fill="none">
    <polyline points="0.7007549940963589,-2.3791287209853795e-2
0.7237935933495243,-2.3791287209853795e-2"/>
  </g>
</svg>