<svg viewBox="-0.7755750000000001 -0.68275 1.2830750000000002 1.5318658457611334" xmlns="http://www.w3.org/2000/svg" xmlns:xlink="http://www.w3.org/1999/xlink" version="1.1" width="300.0" height="200.0"><g stroke-width="0.0" stroke="none" fill="#000000" transform="translate(-0.1340375000000001, -0.57175)" fill-opacity="1.0" font-size="0.12" text-anchor="middle"><text transform="rotate(0.0, 0.0, -0.0)" x="0.0" y="-0.0">std vs ma</text></g><g stroke-width="0.0" stroke="none" fill="#000000" transform="translate(-0.1340375000000001, 0.8176158457611336)" fill-opacity="1.0" font-size="6.0e-2" text-anchor="middle"><text transform="rotate(0.0, 0.0, -0.0)" x="0.0" y="-0.0">std</text></g><g stroke-width="0.0" stroke="none" fill="#000000" transform="translate(-0.7200750000000001, 0.1011829228805668)" fill-opacity="1.0" font-size="6.0e-2" text-anchor="middle"><text transform="rotate(-90.0, 0.0, -0.0)" x="0.0" y="-0.0">ma</text></g><g stroke-width="0.0" stroke="#000000" fill="#666666" fill-opacity="3.0e-2" stroke-opacity="0.0"><rect width="1.0" height="1.0" x="-0.5" y="-0.5" /></g><g stroke-width="5.0e-3" stroke="#A8E5EE" fill="none" stroke-opacity="0.3"><polyline points="-0.5,0.505 -0.5,-0.505" /></g><g stroke-width="5.0e-3" stroke="#A8E5EE" fill="none" stroke-opacity="0.3"><polyline points="-0.3888888888888889,0.505 -0.3888888888888889,-0.505" /></g><g stroke-width="5.0e-3" stroke="#A8E5EE" fill="none" stroke-opacity="0.3"><polyline points="-0.2777777777777778,0.505 -0.2777777777777778,-0.505" /></g><g stroke-width="5.0e-3" stroke="#A8E5EE" fill="none" stroke-opacity="0.3"><polyline points="-0.16666666666666669,0.505 -0.16666666666666669,-0.505" /></g><g stroke-width="5.0e-3" stroke="#A8E5EE" fill="none" stroke-opacity="0.3"><polyline points="-5.555555555555558e-2,0.505 -5.555555555555558e-2,-0.505" /></g><g stroke-width="5.0e-3" stroke="#A8E5EE" fill="none" stroke-opacity="0.3"><polyline points="5.555555555555547e-2,0.505 5.555555555555547e-2,-0.505" /></g><g stroke-width="5.0e-3" stroke="#A8E5EE" fill="none" stroke-opacity="0.3"><polyline points="0.16666666666666663,0.505 0.16666666666666663,-0.505" /></g><g stroke-width="5.0e-3" stroke="#A8E5EE" fill="none" stroke-opacity="0.3"><polyline points="0.2777777777777777,0.505 0.2777777777777777,-0.505" /></g><g stroke-width="5.0e-3" stroke="#A8E5EE" fill="none" stroke-opacity="0.3"><polyline points="0.38888888888888884,0.505 0.38888888888888884,-0.505" /></g><g stroke-width="5.0e-3" stroke="#A8E5EE" fill="none" stroke-opacity="0.3"><polyline points="0.5,0.505 0.5,-0.505" /></g><g stroke-width="0.0" stroke="none" fill="#666666" fill-opacity="1.0" font-size="4.9141034482758625e-2" text-anchor="end"><text transform="rotate(-45.0, -0.5, 0.64637725)" x="-0.5" y="0.64637725">0.2%</text></g><g stroke-width="0.0" stroke="none" fill="#666666" fill-opacity="1.0" font-size="4.9141034482758625e-2" text-anchor="end"><text transform="rotate(-45.0, -0.3888888888888889, 0.64637725)" x="-0.3888888888888889" y="0.64637725">0.4%</text></g><g stroke-width="0.0" stroke="none" fill="#666666" fill-opacity="1.0" font-size="4.9141034482758625e-2" text-anchor="end"><text transform="rotate(-45.0, -0.2777777777777778, 0.64637725)" x="-0.2777777777777778" y="0.64637725">0.6%</text></g><g stroke-width="0.0" stroke="none" fill="#666666" fill-opacity="1.0" font-size="4.9141034482758625e-2" text-anchor="end"><text transform="rotate(-45.0, -0.16666666666666669, 0.64637725)" x="-0.16666666666666669" y="0.64637725">0.8%</text></g><g stroke-width="0.0" stroke="none" fill="#666666" fill-opacity="1.0" font-size="4.9141034482758625e-2" text-anchor="end"><text transform="rotate(-45.0, -5.555555555555558e-2, 0.64637725)" x="-5.555555555555558e-2" y="0.64637725">1.0%</text></g><g stroke-width="0.0" stroke="none" fill="#666666" fill-opacity="1.0" font-size="4.9141034482758625e-2" text-anchor="end"><text transform="rotate(-45.0, 5.555555555555547e-2, 0.64637725)" x="5.555555555555547e-2" y="0.64637725">1.2%</text></g><g stroke-width="0.0" stroke="none" fill="#666666" fill-opacity="1.0" font-size="4.9141034482758625e-2" text-anchor="end"><text transform="rotate(-45.0, 0.16666666666666663, 0.64637725)" x="0.16666666666666663" y="0.64637725">1.4%</text></g><g stroke-width="0.0" stroke="none" fill="#666666" fill-opacity="1.0" font-size="4.9141034482758625e-2" text-anchor="end"><text transform="rotate(-45.0, 0.2777777777777777, 0.64637725)" x="0.2777777777777777" y="0.64637725">1.6%</text></g><g stroke-width="0.0" stroke="none" fill="#666666" fill-opacity="1.0" font-size="4.9141034482758625e-2" text-anchor="end"><text transform="rotate(-45.0, 0.38888888888888884, 0.64637725)" x="0.38888888888888884" y="0.64637725">1.8%</text></g><g stroke-width="0.0" stroke="none" fill="#666666" fill-opacity="1.0" font-size="4.9141034482758625e-2" text-anchor="end"><text transform="rotate(-45.0, 0.5, 0.64637725)" x="0.5" y="0.64637725">2.0%</text></g><g stroke-width="0.0" stroke="#2C429D" fill="#5F0391" fill-opacity="1.0" stroke-opacity="0.4"><line stroke-width="5.0e-3" x1="-0.5" y1="0.58075" x2="-0.5" y2="0.55075" /><line stroke-width="5.0e-3" x1="-0.3888888888888889" y1="0.58075" x2="-0.3888888888888889" y2="0.55075" /><line stroke-width="5.0e-3" x1="-0.2777777777777778" y1="0.58075" x2="-0.2777777777777778" y2="0.55075" /><line stroke-width="5.0e-3" x1="-0.16666666666666669" y1="0.58075" x2="-0.16666666666666669" y2="0.55075" /><line stroke-width="5.0e-3" x1="-5.555555555555558e-2" y1="0.58075" x2="-5.555555555555558e-2" y2="0.55075" /><line stroke-width="5.0e-3" x1="5.555555555555547e-2" y1="0.58075" x2="5.555555555555547e-2" y2="0.55075" /><line stroke-width="5.0e-3" x1="0.16666666666666663" y1="0.58075" x2="0.16666666666666663" y2="0.55075" /><line stroke-width="5.0e-3" x1="0.2777777777777777" y1="0.58075" x2="0.2777777777777777" y2="0.55075" /><line stroke-width="5.0e-3" x1="0.38888888888888884" y1="0.58075" x2="0.38888888888888884" y2="0.55075" /><line stroke-width="5.0e-3" x1="0.5" y1="0.58075" x2="0.5" y2="0.55075" /></g><g stroke-width="0.0" stroke="#666666" fill="#5F0391" fill-opacity="0.5" stroke-opacity="0.0"><rect width="1.0" height="5.0000000000000044e-3" x="-0.5" y="0.55075" /></g><g stroke-width="5.0e-3" stroke="#A8E5EE" fill="none" stroke-opacity="0.3"><polyline points="-0.505,0.5 0.505,0.5" /></g><g stroke-width="5.0e-3" stroke="#A8E5EE" fill="none" stroke-opacity="0.3"><polyline points="-0.505,0.3888888888888889 0.505,0.3888888888888889" /></g><g stroke-width="5.0e-3" stroke="#A8E5EE" fill="none" stroke-opacity="0.3"><polyline points="-0.505,0.2777777777777778 0.505,0.2777777777777778" /></g><g stroke-width="5.0e-3" stroke="#A8E5EE" fill="none" stroke-opacity="0.3"><polyline points="-0.505,0.16666666666666669 0.505,0.16666666666666669" /></g><g stroke-width="5.0e-3" stroke="#A8E5EE" fill="none" stroke-opacity="0.3"><polyline points="-0.505,5.555555555555558e-2 0.505,5.555555555555558e-2" /></g><g stroke-width="5.0e-3" stroke="#A8E5EE" fill="none" stroke-opacity="0.3"><polyline points="-0.505,-5.555555555555547e-2 0.505,-5.555555555555547e-2" /></g><g stroke-width="5.0e-3" stroke="#A8E5EE" fill="none" stroke-opacity="0.3"><polyline points="-0.505,-0.16666666666666663 0.505,-0.16666666666666663" /></g><g stroke-width="5.0e-3" stroke="#A8E5EE" fill="none" stroke-opacity="0.3"><polyline points="-0.505,-0.2777777777777777 0.505,-0.2777777777777777" /></g><g stroke-width="5.0e-3" stroke="#A8E5EE" fill="none" stroke-opacity="0.3"><polyline points="-0.505,-0.38888888888888884 0.505,-0.38888888888888884" /></g><g stroke-width="5.0e-3" stroke="#A8E5EE" fill="none" stroke-opacity="0.3"><polyline points="-0.505,-0.5 0.505,-0.5" /></g><g stroke-width="0.0" stroke="none" fill="#666666" fill-opacity="1.0" font-size="5.0e-2" text-anchor="end"><text x="-0.5550750000000001" y="0.5145">-0.6%</text></g><g stroke-width="0.0" stroke="none" fill="#666666" fill-opacity="1.0" font-size="5.0e-2" text-anchor="end"><text x="-0.5550750000000001" y="0.4033888888888889">-0.5%</text></g><g stroke-width="0.0" stroke="none" fill="#666666" fill-opacity="1.0" font-size="5.0e-2" text-anchor="end"><text x="-0.5550750000000001" y="0.2922777777777778">-0.4%</text></g><g stroke-width="0.0" stroke="none" fill="#666666" fill-opacity="1.0" font-size="5.0e-2" text-anchor="end"><text x="-0.5550750000000001" y="0.1811666666666667">-0.3%</text></g><g stroke-width="0.0" stroke="none" fill="#666666" fill-opacity="1.0" font-size="5.0e-2" text-anchor="end"><text x="-0.5550750000000001" y="7.005555555555558e-2">-0.2%</text></g><g stroke-width="0.0" stroke="none" fill="#666666" fill-opacity="1.0" font-size="5.0e-2" text-anchor="end"><text x="-0.5550750000000001" y="-4.105555555555547e-2">-0.1%</text></g><g stroke-width="0.0" stroke="none" fill="#666666" fill-opacity="1.0" font-size="5.0e-2" text-anchor="end"><text x="-0.5550750000000001" y="-0.15216666666666662">0.0%</text></g><g stroke-width="0.0" stroke="none" fill="#666666" fill-opacity="1.0" font-size="5.0e-2" text-anchor="end"><text x="-0.5550750000000001" y="-0.26327777777777767">0.1%</text></g><g stroke-width="0.0" stroke="none" fill="#666666" fill-opacity="1.0" font-size="5.0e-2" text-anchor="end"><text x="-0.5550750000000001" y="-0.3743888888888888">0.2%</text></g><g stroke-width="0.0" stroke="none" fill="#666666" fill-opacity="1.0" font-size="5.0e-2" text-anchor="end"><text x="-0.5550750000000001" y="-0.4855">0.3%</text></g><g stroke-width="0.0" stroke="#2C429D" fill="#5F0391" fill-opacity="1.0" stroke-opacity="0.4"><line stroke-width="5.0e-3" transform="rotate(-90.0, -0.525, 0.5)" x1="-0.525" y1="0.515" x2="-0.525" y2="0.485" /><line stroke-width="5.0e-3" transform="rotate(-90.0, -0.525, 0.3888888888888889)" x1="-0.525" y1="0.4038888888888889" x2="-0.525" y2="0.3738888888888889" /><line stroke-width="5.0e-3" transform="rotate(-90.0, -0.525, 0.2777777777777778)" x1="-0.525" y1="0.2927777777777778" x2="-0.525" y2="0.2627777777777778" /><line stroke-width="5.0e-3" transform="rotate(-90.0, -0.525, 0.16666666666666669)" x1="-0.525" y1="0.1816666666666667" x2="-0.525" y2="0.15166666666666667" /><line stroke-width="5.0e-3" transform="rotate(-90.0, -0.525, 5.555555555555558e-2)" x1="-0.525" y1="7.055555555555558e-2" x2="-0.525" y2="4.055555555555558e-2" /><line stroke-width="5.0e-3" transform="rotate(-90.0, -0.525, -5.555555555555547e-2)" x1="-0.525" y1="-4.055555555555547e-2" x2="-0.525" y2="-7.055555555555547e-2" /><line stroke-width="5.0e-3" transform="rotate(-90.0, -0.525, -0.16666666666666663)" x1="-0.525" y1="-0.15166666666666662" x2="-0.525" y2="-0.18166666666666664" /><line stroke-width="5.0e-3" transform="rotate(-90.0, -0.525, -0.2777777777777777)" x1="-0.525" y1="-0.26277777777777767" x2="-0.525" y2="-0.2927777777777777" /><line stroke-width="5.0e-3" transform="rotate(-90.0, -0.525, -0.38888888888888884)" x1="-0.525" y1="-0.3738888888888888" x2="-0.525" y2="-0.40388888888888885" /><line stroke-width="5.0e-3" transform="rotate(-90.0, -0.525, -0.5)" x1="-0.525" y1="-0.485" x2="-0.525" y2="-0.515" /></g><g stroke-width="0.0" stroke="#666666" fill="#5F0391" fill-opacity="0.5" stroke-opacity="0.0"><rect width="5.0000000000000044e-3" height="1.0" x="-0.515" y="-0.5" /></g><g stroke-width="3.0e-3" stroke="#2C429D" fill="#FF0000" fill-opacity="0.3" stroke-opacity="0.0"><rect width="2.0000000000000004e-2" height="2.0000000000000018e-2" x="-4.400531694674658e-2" y="0.2239092670920539" /><rect width="1.999999999999999e-2" height="1.999999999999999e-2" x="-8.390123728686248e-2" y="9.303440068554748e-2" /><rect width="2.0000000000000004e-2" height="1.9999999999999997e-2" x="-0.1287979979023452" y="5.72453870500862e-2" /><rect width="2.0000000000000018e-2" height="2.0000000000000004e-2" x="-0.14871473796497842" y="-5.1006326947137796e-2" /><rect width="2.0000000000000004e-2" height="2.0000000000000018e-2" x="-6.0172193241119824e-2" y="-0.3268753112513405" /><rect width="1.999999999999999e-2" height="2.0000000000000018e-2" x="-9.407457071170398e-2" y="-0.2905085497990285" /><rect width="1.999999999999999e-2" height="2.0000000000000018e-2" x="-0.10834992401453646" y="-0.19505801164401537" /><rect width="2.0000000000000004e-2" height="1.999999999999999e-2" x="-0.12637708312059437" y="-0.12366767991255599" /><rect width="2.0000000000000018e-2" height="1.999999999999999e-2" x="-0.1524523218420873" y="-0.12018308080831706" /><rect width="2.0000000000000018e-2" height="2.0000000000000004e-2" x="-0.1744195368505007" y="-0.1441517016438062" /><rect width="2.0000000000000004e-2" height="2.0000000000000004e-2" x="-0.13929289750900853" y="9.032319597971437e-4" /><rect width="2.0000000000000018e-2" height="2.0000000000000004e-2" x="-0.15873030857557313" y="-2.9647701829521582e-2" /><rect width="2.0000000000000018e-2" height="2.0000000000000004e-2" x="-0.17896742216953448" y="-2.4658877663056182e-2" /><rect width="2.0000000000000004e-2" height="2.0000000000000018e-2" x="-5.912647744744686e-2" y="0.19761302037171957" /><rect width="2.0000000000000004e-2" height="2.0000000000000018e-2" x="-1.8732662870998555e-2" y="0.356623281133504" /><rect width="2.0000000000000004e-2" height="1.999999999999999e-2" x="0.12453769273836869" y="8.301146085847678e-2" /><rect width="2.0000000000000018e-2" height="2.0000000000000018e-2" x="0.12927839764689364" y="0.210141381270667" /><rect width="1.999999999999999e-2" height="2.0000000000000018e-2" x="0.10106006980054062" y="0.20553941534433806" /><rect width="2.0000000000000004e-2" height="1.999999999999999e-2" x="0.11675062472609678" y="6.82582659214583e-2" /><rect width="2.0000000000000018e-2" height="2.0000000000000018e-2" x="0.14712114093229423" y="0.22822406767209552" /><rect width="2.0000000000000018e-2" height="1.999999999999999e-2" x="0.15437835809465816" y="0.1038295638887844" /><rect width="2.0000000000000018e-2" height="2.0000000000000004e-2" x="0.15282135738229163" y="-1.963232268158357e-3" /><rect width="2.0000000000000018e-2" height="1.9999999999999997e-2" x="0.13560287652702296" y="-6.430110985546166e-2" /><rect width="2.0000000000000018e-2" height="1.999999999999999e-2" x="0.16610139622172948" y="8.988358303589496e-2" /><rect width="2.0000000000000018e-2" height="1.9999999999999997e-2" x="0.1442627354398931" y="4.8759050257454646e-2" /><rect width="2.0000000000000018e-2" height="1.999999999999999e-2" x="0.16136816458087666" y="-8.29385231022912e-2" /><rect width="2.0000000000000018e-2" height="2.0000000000000004e-2" x="0.13903832658901316" y="-5.015946940277815e-2" /><rect width="2.0000000000000018e-2" height="1.999999999999999e-2" x="0.12568721992918153" y="-0.11462125502416541" /><rect width="1.999999999999999e-2" height="1.999999999999999e-2" x="0.10311205710136574" y="-9.874118264265973e-2" /><rect width="1.999999999999999e-2" height="2.0000000000000018e-2" x="9.040426471022368e-2" y="-0.15783748232055528" /><rect width="1.999999999999999e-2" height="2.0000000000000018e-2" x="8.322918819333038e-2" y="-0.22961746994582866" /><rect width="1.9999999999999997e-2" height="2.0000000000000018e-2" x="6.2017937268239794e-2" y="-0.23195562154676486" /><rect width="1.9999999999999997e-2" height="2.0000000000000018e-2" x="4.662458926456082e-2" y="-0.19117538042297288" /><rect width="2.0000000000000004e-2" height="2.0000000000000004e-2" x="3.669798445968176e-2" y="-0.1347925011795018" /><rect width="2.0000000000000004e-2" height="2.0000000000000004e-2" x="1.742163082249882e-2" y="-0.13757500362643893" /><rect width="2.0000000000000004e-2" height="2.0000000000000004e-2" x="2.1586247618999417e-2" y="-5.394367920467335e-2" /><rect width="2.0000000000000004e-2" height="1.9999999999999997e-2" x="4.162859433470731e-3" y="-7.25476444190971e-2" /><rect width="2.0000000000000004e-2" height="2.0000000000000004e-2" x="3.3473444439952125e-3" y="-0.14366999083815324" /><rect width="2.0e-2" height="2.0000000000000018e-2" x="-1.4182735137502114e-2" y="-0.15247314699184478" /><rect width="2.0000000000000004e-2" height="1.999999999999999e-2" x="-2.2600602405062113e-2" y="-0.10281122148314446" /><rect width="2.0000000000000004e-2" height="1.999999999999999e-2" x="-3.802056631720129e-2" y="-0.12261681216298502" /><rect width="2.0000000000000004e-2" height="1.9999999999999997e-2" x="-4.792035419282497e-2" y="-8.123227340676763e-2" /><rect width="1.9999999999999997e-2" height="1.9999999999999997e-2" x="-6.360463813684912e-2" y="-7.270408922026649e-2" /><rect width="2.0000000000000004e-2" height="2.0000000000000018e-2" x="-5.224645010010331e-2" y="-0.15569936323971756" /><rect width="1.9999999999999997e-2" height="2.0000000000000018e-2" x="-6.603880072047556e-2" y="-0.1777079798259238" /><rect width="1.9999999999999997e-2" height="2.0000000000000018e-2" x="-8.127057807625902e-2" y="-0.17605255634283457" /><rect width="1.9999999999999997e-2" height="2.0000000000000018e-2" x="-8.227143989381396e-2" y="-0.23383867260945124" /><rect width="1.999999999999999e-2" height="2.0000000000000018e-2" x="-8.544866199681521e-2" y="-0.28645030394730386" /><rect width="1.999999999999999e-2" height="2.0000000000000018e-2" x="-9.990590195494779e-2" y="-0.2907214450896235" /><rect width="1.999999999999999e-2" height="2.0000000000000018e-2" x="-0.11399460193901638" y="-0.2898715495424743" /><rect width="1.999999999999999e-2" height="2.0000000000000018e-2" x="-0.11796780413938111" y="-0.24329571898880398" /><rect width="2.0000000000000004e-2" height="2.0000000000000018e-2" x="-0.12959989440301395" y="-0.26362725051489244" /><rect width="2.0000000000000004e-2" height="2.0000000000000018e-2" x="-0.1423281871499652" y="-0.2540053189148712" /><rect width="2.0000000000000018e-2" height="2.0000000000000018e-2" x="-0.15328109415732383" y="-0.23450012258420605" /><rect width="2.0000000000000018e-2" height="2.0000000000000018e-2" x="-0.15791428540175056" y="-0.27443159961069474" /><rect width="2.0000000000000018e-2" height="2.0000000000000018e-2" x="-0.16747727504728344" y="-0.2510163456552871" /><rect width="2.0000000000000018e-2" height="2.0000000000000018e-2" x="-0.1783505886859278" y="-0.2659708387449511" /><rect width="2.0000000000000018e-2" height="2.0000000000000018e-2" x="-0.18864003047602868" y="-0.24957235376590592" /><rect width="2.0000000000000018e-2" height="2.0000000000000018e-2" x="-0.19840478429537095" y="-0.23212685937855193" /><rect width="2.0000000000000018e-2" height="2.0000000000000018e-2" x="-0.1831991021746321" y="-0.16210655000244623" /><rect width="2.0000000000000018e-2" height="2.0000000000000018e-2" x="-0.16671306952628245" y="-0.2355405228743931" /><rect width="2.0000000000000018e-2" height="2.0000000000000018e-2" x="-0.16926980098195799" y="-0.1927974625639992" /><rect width="2.0000000000000018e-2" height="2.0000000000000018e-2" x="-0.16203584041247854" y="-0.253905802014202" /><rect width="2.0000000000000018e-2" height="2.0000000000000018e-2" x="-0.17163224793708642" y="-0.2755360265405975" /><rect width="2.0000000000000018e-2" height="2.0000000000000018e-2" x="-0.18335214752719597" y="-0.274463336953891" /><rect width="2.0000000000000018e-2" height="2.0000000000000018e-2" x="-0.18454377258614174" y="-0.31817307201141276" /><rect width="2.0000000000000018e-2" height="2.0000000000000018e-2" x="-0.19520125494959445" y="-0.30683141697971594" /><rect width="2.0000000000000018e-2" height="2.0000000000000018e-2" x="-0.20557729284532072" y="-0.31793873748774615" /><rect width="2.0000000000000018e-2" height="2.0000000000000018e-2" x="-0.21634943672264284" y="-0.31678186959900734" /><rect width="2.0000000000000018e-2" height="2.0000000000000018e-2" x="-0.22679299977412443" y="-0.3195145458534885" /><rect width="2.0000000000000018e-2" height="2.0000000000000018e-2" x="-0.23152466745097916" y="-0.2893150564908753" /><rect width="2.0000000000000018e-2" height="2.0000000000000018e-2" x="-0.24117959730028066" y="-0.2975637836533723" /><rect width="2.0000000000000018e-2" height="2.0000000000000018e-2" x="-0.2500977405649327" y="-0.28563571480833383" /><rect width="2.0000000000000018e-2" height="2.0000000000000018e-2" x="-0.25767989502690203" y="-0.2680408891844237" /><rect width="2.0000000000000018e-2" height="2.0000000000000018e-2" x="-0.26212201028451887" y="-0.24059776852421277" /><rect width="2.0000000000000018e-2" height="2.0000000000000018e-2" x="-0.2710921458477997" y="-0.24701096338240658" /><rect width="2.0000000000000018e-2" height="2.0000000000000018e-2" x="-0.2695722763033599" y="-0.20750881639227303" /><rect width="2.0000000000000018e-2" height="2.0000000000000018e-2" x="-0.2780665905139015" y="-0.21643420538107083" /><rect width="2.0000000000000018e-2" height="2.0000000000000004e-2" x="-0.2448398319759143" y="-0.13653827267274854" /><rect width="2.0000000000000018e-2" height="2.0000000000000018e-2" x="-0.25317055241274194" y="-0.15097303808160145" /><rect width="2.0000000000000018e-2" height="1.999999999999999e-2" x="-0.2482564011126588" y="-0.10364407607072056" /><rect width="2.0000000000000018e-2" height="2.0000000000000004e-2" x="-0.2484501938986245" y="-0.14198107393253634" /><rect width="2.0000000000000018e-2" height="2.0000000000000018e-2" x="-0.2577639979002362" y="-0.1479964848357629" /><rect width="2.0000000000000018e-2" height="2.0000000000000018e-2" x="-0.2647670349856304" y="-0.16665251755854327" /><rect width="2.0000000000000018e-2" height="2.0000000000000004e-2" x="-0.26886661107730697" y="-0.1393151804818309" /><rect width="2.0000000000000018e-2" height="2.0000000000000018e-2" x="-0.26113110453368604" y="-0.1893657647890804" /><rect width="2.0000000000000018e-2" height="2.0000000000000018e-2" x="-0.25599195100573036" y="-0.23608927035176197" /><rect width="2.0000000000000018e-2" height="2.0000000000000018e-2" x="-0.2514511221637388" y="-0.2823324422015747" /><rect width="2.0000000000000018e-2" height="2.0000000000000018e-2" x="-0.2595956709728519" y="-0.2964311792183246" /><rect width="2.0000000000000018e-2" height="2.0000000000000018e-2" x="-0.25500618764255467" y="-0.2505204812932902" /><rect width="2.0000000000000018e-2" height="2.0000000000000018e-2" x="-0.2511915836503523" y="-0.2955668562666949" /><rect width="2.0000000000000018e-2" height="2.0000000000000018e-2" x="-0.2606276206140921" y="-0.29561472643679576" /><rect width="2.0000000000000018e-2" height="2.0000000000000018e-2" x="-0.2688952144601258" y="-0.2838714275676856" /><rect width="2.0000000000000018e-2" height="2.0000000000000018e-2" x="-0.27594326705838623" y="-0.3006536403312392" /><rect width="2.0000000000000018e-2" height="2.0000000000000018e-2" x="-0.284500570089862" y="-0.306480505178815" /><rect width="2.0000000000000018e-2" height="2.0000000000000018e-2" x="-0.2872155467197789" y="-0.27781550759726914" /><rect width="2.0000000000000018e-2" height="2.0000000000000018e-2" x="-0.2949364664769626" y="-0.2674279868431685" /><rect width="2.0000000000000018e-2" height="2.0000000000000018e-2" x="-0.30299952019372967" y="-0.27312235978792654" /><rect width="2.0000000000000018e-2" height="2.0000000000000018e-2" x="-0.3075003882315118" y="-0.29490748630730046" /><rect width="2.0000000000000018e-2" height="2.0000000000000018e-2" x="-0.30044421789309733" y="-0.3395464585672531" /><rect width="2.0000000000000018e-2" height="2.0000000000000018e-2" x="-0.30386095490529785" y="-0.3144156579008426" /><rect width="2.0000000000000018e-2" height="2.0000000000000018e-2" x="-0.2976858861356143" y="-0.2707613599768579" /><rect width="2.0000000000000018e-2" height="2.0000000000000018e-2" x="-0.29584581864119885" y="-0.2338440504693292" /><rect width="2.0000000000000018e-2" height="2.0000000000000018e-2" x="-0.29973620785914923" y="-0.258151975026775" /><rect width="2.0000000000000018e-2" height="2.0000000000000018e-2" x="-0.30716597996833184" y="-0.24825805134848644" /><rect width="2.0000000000000018e-2" height="2.0000000000000018e-2" x="-0.3107919025571689" y="-0.2720648168178742" /><rect width="2.0000000000000018e-2" height="2.0000000000000018e-2" x="-0.3152311153166948" y="-0.29310706045972446" /><rect width="2.0000000000000018e-2" height="2.0000000000000018e-2" x="-0.3214833710633037" y="-0.306951456502226" /><rect width="2.0000000000000018e-2" height="2.0000000000000018e-2" x="-0.32841092533304894" y="-0.31613290962072105" /><rect width="2.0000000000000018e-2" height="2.0000000000000018e-2" x="-0.33525117534588317" y="-0.3076773259767862" /><rect width="2.0000000000000018e-2" height="2.0000000000000018e-2" x="-0.3407020497544466" y="-0.2930716492247385" /><rect width="2.0000000000000018e-2" height="2.0000000000000018e-2" x="-0.33035656214111775" y="-0.24746972514162957" /><rect width="2.0000000000000018e-2" height="2.0000000000000018e-2" x="-0.33218213439288413" y="-0.2215652378579629" /><rect width="2.0000000000000018e-2" height="2.0000000000000018e-2" x="-0.33038121572514323" y="-0.2547813682530736" /><rect width="2.0000000000000018e-2" height="2.0000000000000018e-2" x="-0.3202906822076034" y="-0.20837635447796699" /><rect width="2.0000000000000018e-2" height="2.0000000000000018e-2" x="-0.3137840272811762" y="-0.250704121412913" /><rect width="2.0000000000000018e-2" height="2.0000000000000018e-2" x="-0.3198630564183946" y="-0.26546315507908413" /><rect width="2.0000000000000018e-2" height="2.0000000000000018e-2" x="-0.3268451974310227" y="-0.27451330444120525" /><rect width="2.0000000000000018e-2" height="2.0000000000000018e-2" x="-0.33395016846871706" y="-0.2811129816211234" /><rect width="2.0000000000000018e-2" height="2.0000000000000018e-2" x="-0.3407645697653032" y="-0.27366539544637913" /><rect width="2.0000000000000018e-2" height="2.0000000000000018e-2" x="-0.34611188599274" y="-0.2593881562517434" /><rect width="2.0000000000000018e-2" height="2.0000000000000018e-2" x="-0.3451133170362285" y="-0.2896309656790874" /><rect width="2.0000000000000018e-2" height="2.0000000000000018e-2" x="-0.3403924354375123" y="-0.3264881652761753" /><rect width="2.0000000000000018e-2" height="2.0000000000000018e-2" x="-0.34719829707188943" y="-0.320484427384627" /><rect width="2.0000000000000018e-2" height="2.0000000000000018e-2" x="-0.34889446788388484" y="-0.3449108929700865" /><rect width="2.0000000000000018e-2" height="2.0000000000000018e-2" x="-0.3461635440939337" y="-0.3117889691487281" /><rect width="2.0000000000000018e-2" height="2.0000000000000018e-2" x="-0.35281369895548015" y="-0.3057726384707623" /><rect width="2.0000000000000018e-2" height="2.0000000000000018e-2" x="-0.357396539778442" y="-0.29010107707776844" /><rect width="2.0000000000000018e-2" height="2.0000000000000018e-2" x="-0.35993149814833336" y="-0.2688113675147583" /><rect width="2.0000000000000018e-2" height="2.0000000000000018e-2" x="-0.3608098636251205" y="-0.24385056838081642" /><rect width="2.0000000000000018e-2" height="2.0000000000000018e-2" x="-0.3651171834460118" y="-0.22816596265617284" /><rect width="2.0000000000000018e-2" height="2.0000000000000018e-2" x="-0.37100252407860546" y="-0.23613192890457468" /><rect width="2.0000000000000018e-2" height="2.0000000000000018e-2" x="-0.3742829717617623" y="-0.25391258804659356" /><rect width="2.0000000000000018e-2" height="2.0000000000000018e-2" x="-0.3805031815937401" y="-0.25202986165798835" /><rect width="2.0000000000000018e-2" height="2.0000000000000018e-2" x="-0.380099924524776" y="-0.2775507652886874" /><rect width="2.0000000000000018e-2" height="2.0000000000000018e-2" x="-0.3860822703597385" y="-0.2740341269974834" /><rect width="2.0000000000000018e-2" height="2.0000000000000018e-2" x="-0.3790369272775439" y="-0.23811039452664817" /><rect width="2.0000000000000018e-2" height="2.0000000000000018e-2" x="-0.37810860998436235" y="-0.264804610347839" /><rect width="2.0000000000000018e-2" height="2.0000000000000018e-2" x="-0.38420033332951153" y="-0.26735764436141307" /><rect width="2.0000000000000018e-2" height="2.0000000000000018e-2" x="-0.3751563061356032" y="-0.3062361574959318" /><rect width="2.0000000000000018e-2" height="2.0000000000000018e-2" x="-0.38066818702857513" y="-0.29770487751133845" /><rect width="2.0000000000000018e-2" height="2.0000000000000018e-2" x="-0.3801971941576431" y="-0.2720726173452509" /><rect width="2.0000000000000018e-2" height="2.0000000000000018e-2" x="-0.3848416454120923" y="-0.26004065851232083" /><rect width="2.0000000000000018e-2" height="2.0000000000000018e-2" x="-0.38567392842211573" y="-0.2375567223782621" /><rect width="2.0000000000000018e-2" height="2.0000000000000018e-2" x="-0.3900805654131184" y="-0.2498485368297163" /><rect width="2.0000000000000018e-2" height="2.0000000000000018e-2" x="-0.39578889649492033" y="-0.24614958988676916" /><rect width="2.0000000000000018e-2" height="2.0000000000000018e-2" x="-0.398493630218196" y="-0.26287430702722436" /><rect width="2.0000000000000018e-2" height="2.0000000000000018e-2" x="-0.4036685477079158" y="-0.25635697423505044" /><rect width="2.0000000000000018e-2" height="2.0000000000000018e-2" x="-0.4091764833941164" y="-0.25632392758201805" /><rect width="2.0000000000000018e-2" height="2.0000000000000018e-2" x="-0.3880050422881107" y="-0.2067502498470115" /><rect width="2.0000000000000018e-2" height="2.0000000000000018e-2" x="-0.3832498990398959" y="-0.1744384887791769" /><rect width="2.0000000000000018e-2" height="2.0000000000000018e-2" x="-0.38923021687552517" y="-0.17235367474851415" /><rect width="2.0000000000000018e-2" height="2.0000000000000018e-2" x="-0.3944863720284099" y="-0.1646840515061051" /><rect width="2.0000000000000018e-2" height="2.0000000000000004e-2" x="-0.16123195508931126" y="2.041936580595794e-2" /><rect width="1.999999999999999e-2" height="2.0000000000000018e-2" x="-0.11719931057972437" y="0.12608195781442993" /><rect width="1.999999999999999e-2" height="2.0000000000000004e-2" x="-8.93512895096719e-2" y="3.2551040073347144e-2" /><rect width="1.999999999999999e-2" height="1.9999999999999997e-2" x="-0.10051600206522919" y="5.499865125366105e-2" /><rect width="2.0000000000000004e-2" height="1.9999999999999997e-2" x="-4.0219375288675245e-2" y="-7.477115982982983e-2" /><rect width="2.0000000000000004e-2" height="1.9999999999999997e-2" x="-5.487421295121186e-2" y="-7.846294137689357e-2" /><rect width="2.0000000000000004e-2" height="2.0000000000000004e-2" x="-4.512351096210059e-2" y="-2.8202631838433103e-3" /><rect width="2.0000000000000004e-2" height="2.0e-2" x="-5.952187207468578e-2" y="-9.507132789859976e-3" /><rect width="1.9999999999999997e-2" height="2.0000000000000004e-2" x="-7.26921359364519e-2" y="6.0757755921583365e-3" /><rect width="1.999999999999999e-2" height="2.0000000000000004e-2" x="-8.451767859627589e-2" y="2.7648742612021056e-2" /><rect width="2.0000000000000004e-2" height="2.0000000000000018e-2" x="1.2325053891311008e-2" y="0.19163361004777035" /><rect width="1.9999999999999997e-2" height="1.999999999999999e-2" x="5.0199541651676956e-2" y="7.067714917367769e-2" /><rect width="1.9999999999999997e-2" height="2.0000000000000018e-2" x="5.876763715301759e-2" y="0.15543012178220716" /><rect width="1.9999999999999997e-2" height="2.0000000000000018e-2" x="4.2976208865558536e-2" y="0.1753906465840014" /><rect width="1.999999999999999e-2" height="1.999999999999999e-2" x="6.467856316126476e-2" y="7.140954963907227e-2" /><rect width="1.999999999999999e-2" height="2.0000000000000004e-2" x="6.566824634416292e-2" y="-9.648315456331404e-4" /><rect width="1.999999999999999e-2" height="1.9999999999999997e-2" x="6.408170786081026e-2" y="-6.81060702676831e-2" /><rect width="1.9999999999999997e-2" height="2.0000000000000004e-2" x="4.9875973641956846e-2" y="-3.83263322782551e-2" /><rect width="2.0000000000000004e-2" height="1.9999999999999997e-2" x="3.809221979477163e-2" y="-7.627398062369349e-2" /><rect width="2.0000000000000004e-2" height="1.999999999999999e-2" x="2.719493299668075e-2" y="-0.11596362764949118" /><rect width="1.9999999999999997e-2" height="2.0000000000000018e-2" x="6.245986580030861e-2" y="-0.23560662418056688" /><rect width="1.9999999999999997e-2" height="2.0000000000000018e-2" x="4.61674387021005e-2" y="-0.21870194646771912" /><rect width="2.0000000000000004e-2" height="2.0000000000000018e-2" x="3.9618714913517324e-2" y="-0.1652528129757278" /><rect width="1.999999999999999e-2" height="2.0000000000000004e-2" x="6.604766682845732e-2" y="-5.526800597117242e-2" /><rect width="1.9999999999999997e-2" height="2.0000000000000004e-2" x="4.8663547224973576e-2" y="-5.309875424958909e-2" /><rect width="2.0000000000000004e-2" height="2.0000000000000004e-2" x="3.640736586141891e-2" y="-1.7073079715094634e-2" /><rect width="2.0000000000000004e-2" height="1.999999999999999e-2" x="3.595428136962187e-2" y="-8.360268388355983e-2" /><rect width="2.0000000000000004e-2" height="1.999999999999999e-2" x="2.0385557195529265e-2" y="-0.1005951562958942" /><rect width="2.0000000000000004e-2" height="2.0e-2" x="3.382221013359788e-2" y="-1.1152516373859936e-2" /><rect width="1.9999999999999997e-2" height="1.999999999999999e-2" x="4.8970695578478114e-2" y="8.234480053830019e-2" /><rect width="2.0000000000000004e-2" height="1.9999999999999997e-2" x="3.52311954417095e-2" y="5.251079583615987e-2" /><rect width="2.0000000000000004e-2" height="1.999999999999999e-2" x="2.094171009652524e-2" y="7.758913314142442e-2" /><rect width="2.0000000000000004e-2" height="2.0000000000000004e-2" x="4.0370610588249874e-2" y="-2.075705683385031e-2" /><rect width="2.0000000000000004e-2" height="2.0000000000000004e-2" x="2.6084488079184738e-2" y="-4.664500200274623e-2" /><rect width="1.999999999999999e-2" height="2.0000000000000018e-2" x="7.282978073798053e-2" y="-0.17934226998639324" /><rect width="1.9999999999999997e-2" height="2.0000000000000018e-2" x="5.5786847563561344e-2" y="-0.16706623774357" /><rect width="1.9999999999999997e-2" height="2.0000000000000018e-2" x="4.611901934288765e-2" y="-0.21275703627208697" /><rect width="2.0000000000000004e-2" height="2.0000000000000018e-2" x="4.1667643376249626e-2" y="-0.2714107397334625" /><rect width="2.0000000000000018e-2" height="1.999999999999999e-2" x="0.1433095158309512" y="-8.3886417987302e-2" /><rect width="2.0000000000000004e-2" height="1.9999999999999997e-2" x="0.12399977103511219" y="-8.006200668540807e-2" /><rect width="2.0000000000000018e-2" height="1.9999999999999997e-2" x="0.15551981002980153" y="4.620341684857283e-2" /><rect width="2.0000000000000018e-2" height="2.0000000000000004e-2" x="0.13722688060490174" y="2.5278010671511204e-2" /><rect width="2.0000000000000004e-2" height="2.0000000000000004e-2" x="0.11823634270956886" y="1.7160547268341993e-2" /><rect width="1.999999999999999e-2" height="2.0000000000000004e-2" x="0.10469576932885984" y="-2.255919713822007e-2" /><rect width="1.999999999999999e-2" height="2.0000000000000004e-2" x="8.646332804915659e-2" y="-2.915394479282051e-2" /><rect width="1.999999999999999e-2" height="1.999999999999999e-2" x="0.10196003850616099" y="7.053570573236624e-2" /><rect width="2.0000000000000004e-2" height="2.0000000000000018e-2" x="0.11938047959191457" y="0.17480236911228514" /><rect width="1.999999999999999e-2" height="2.0000000000000018e-2" x="0.10170204122607375" y="0.1567484444763172" /><rect width="1.999999999999999e-2" height="2.0000000000000018e-2" x="9.951140679170035e-2" y="0.22627647548784413" /><rect width="1.999999999999999e-2" height="2.0000000000000018e-2" x="9.680838372828617e-2" y="0.294452150881762" /><rect width="2.0000000000000004e-2" height="2.0000000000000018e-2" x="0.10680171660956718" y="0.38647124224760837" /><rect width="2.0000000000000018e-2" height="2.0000000000000018e-2" x="0.3714272410029896" y="0.2077230256082735" /><rect width="2.0000000000000018e-2" height="2.0000000000000018e-2" x="0.3571200122333742" y="0.14113427452711602" /><rect width="2.0000000000000018e-2" height="2.0000000000000018e-2" x="0.33255138490902325" y="0.13214602363315925" /><rect width="2.0000000000000018e-2" height="1.999999999999999e-2" x="0.31830699855406386" y="6.972300980225228e-2" /><rect width="2.0000000000000018e-2" height="1.9999999999999997e-2" x="0.2954919078074658" y="5.0360457171437674e-2" /><rect width="2.0000000000000018e-2" height="2.0000000000000018e-2" x="0.31477181049333547" y="0.1782796868262826" /><rect width="2.0000000000000018e-2" height="2.0000000000000004e-2" x="0.39490452244936525" y="-2.7023013332094885e-2" /><rect width="2.0000000000000018e-2" height="1.9999999999999997e-2" x="0.37430452240668355" y="-7.331685224957506e-2" /><rect width="2.0000000000000018e-2" height="2.0000000000000004e-2" x="0.35751839147113806" y="-0.13208842490146933" /><rect width="2.0000000000000018e-2" height="2.0000000000000018e-2" x="0.33428725859555675" y="-0.15703806366864737" /><rect width="2.0000000000000018e-2" height="2.0000000000000018e-2" x="0.3118218625526439" y="-0.18306560705969088" /><rect width="2.0000000000000018e-2" height="2.0000000000000018e-2" x="0.28820253792202477" y="-0.18193282086908769" /><rect width="2.0000000000000018e-2" height="2.0000000000000018e-2" x="0.2675146296411296" y="-0.15238365115654817" /><rect width="2.0000000000000018e-2" height="2.0000000000000018e-2" x="0.2549808061121317" y="-0.2128463372762035" /><rect width="2.0000000000000018e-2" height="2.0000000000000018e-2" x="0.23310529022816073" y="-0.22336813140645384" /><rect width="2.0000000000000018e-2" height="2.0000000000000018e-2" x="0.21595520305856286" y="-0.2630486139844197" /><rect width="2.0000000000000018e-2" height="2.0000000000000018e-2" x="0.20828387245977575" y="-0.33149077571076035" /><rect width="2.0000000000000018e-2" height="2.0000000000000018e-2" x="0.2092001395687456" y="-0.2445350461914747" /><rect width="2.0000000000000018e-2" height="2.0000000000000018e-2" x="0.1884048740039178" y="-0.25336664519997454" /><rect width="2.0000000000000018e-2" height="2.0000000000000018e-2" x="0.16795083261307098" y="-0.2571693437715856" /><rect width="2.0000000000000018e-2" height="2.0000000000000018e-2" x="0.1536430165726358" y="-0.3001049098144164" /><rect width="2.0000000000000018e-2" height="2.0000000000000018e-2" x="0.1418285182920923" y="-0.2501672195804703" /><rect width="2.0000000000000004e-2" height="2.0000000000000018e-2" x="0.12295273322236479" y="-0.238395956089268" /><rect width="2.0000000000000018e-2" height="2.0000000000000018e-2" x="0.12613981592745904" y="-0.3210300799669825" /><rect width="2.0000000000000004e-2" height="2.0000000000000018e-2" x="0.1125064682519158" y="-0.3613713169201911" /><rect width="1.999999999999999e-2" height="2.0000000000000018e-2" x="9.399060333099708e-2" y="-0.3571260949599021" /><rect width="1.999999999999999e-2" height="2.0000000000000018e-2" x="7.864518332012306e-2" y="-0.3856220653576431" /><rect width="1.9999999999999997e-2" height="2.0000000000000018e-2" x="6.177906938070755e-2" y="-0.40127088010601997" /><rect width="1.9999999999999997e-2" height="2.0000000000000018e-2" x="4.647255062636869e-2" y="-0.37766879713239787" /><rect width="1.9999999999999997e-2" height="2.0000000000000018e-2" x="4.357543171782353e-2" y="-0.3153895453817924" /><rect width="2.0000000000000004e-2" height="2.0000000000000018e-2" x="2.6782203549599155e-2" y="-0.31220879029404214" /><rect width="2.0000000000000004e-2" height="2.0000000000000018e-2" x="1.0407420588485547e-2" y="-0.3093697375075253" /><rect width="2.0000000000000004e-2" height="2.0000000000000018e-2" x="1.0274711733074158e-2" y="-0.3738895833179604" /><rect width="2.0e-2" height="2.0000000000000018e-2" x="-5.5279649105656106e-3" y="-0.38080308450156275" /><rect width="2.0000000000000004e-2" height="2.0000000000000018e-2" x="-1.8654358086334803e-2" y="-0.3558452640004798" /><rect width="2.0000000000000004e-2" height="2.0000000000000018e-2" x="-2.341970637537654e-2" y="-0.40699765109693287" /><rect width="2.0000000000000004e-2" height="2.0000000000000018e-2" x="-3.851198898920532e-2" y="-0.40380120955228205" /><rect width="2.0000000000000004e-2" height="2.0000000000000018e-2" x="-5.3254456714609315e-2" y="-0.4023085522385442" /><rect width="1.9999999999999997e-2" height="2.0000000000000018e-2" x="-6.35487452075331e-2" y="-0.371400425610001" /><rect width="1.9999999999999997e-2" height="2.0000000000000018e-2" x="-7.477271845545895e-2" y="-0.39716735899445565" /><rect width="1.999999999999999e-2" height="2.0000000000000018e-2" x="-8.852822330928177e-2" y="-0.3929817811674361" /><rect width="1.999999999999999e-2" height="2.0000000000000018e-2" x="-0.10095632590270674" y="-0.3777728217785069" /><rect width="1.999999999999999e-2" height="2.0000000000000018e-2" x="-0.11332630517439406" y="-0.36469416415343936" /><rect width="1.999999999999999e-2" height="2.0000000000000018e-2" x="-0.12316468865372458" y="-0.33957324368676123" /><rect width="2.0000000000000004e-2" height="2.0000000000000018e-2" x="-0.13137975834701332" y="-0.3696038504077116" /><rect width="2.0000000000000004e-2" height="2.0000000000000018e-2" x="-0.13894634855085836" y="-0.338356330980363" /><rect width="2.0000000000000018e-2" height="2.0000000000000018e-2" x="-0.1501120170275978" y="-0.32398196505225074" /><rect width="2.0000000000000018e-2" height="2.0000000000000018e-2" x="-0.15224928071119354" y="-0.28025237586301277" /><rect width="2.0000000000000018e-2" height="2.0000000000000018e-2" x="-0.15105081177022223" y="-0.22974571699916135" /><rect width="2.0000000000000018e-2" height="2.0000000000000018e-2" x="-0.16186302565432065" y="-0.2152363820786728" /><rect width="2.0000000000000004e-2" height="2.0000000000000018e-2" x="-0.14155246253723486" y="-0.29419433357180835" /><rect width="2.0000000000000018e-2" height="2.0000000000000018e-2" x="-0.15313459704545562" y="-0.304701109867336" /><rect width="2.0000000000000018e-2" height="2.0000000000000018e-2" x="-0.1596587424665089" y="-0.3367746935273561" /><rect width="2.0000000000000018e-2" height="2.0000000000000018e-2" x="-0.17047463505179783" y="-0.32394483251536266" /><rect width="2.0000000000000018e-2" height="2.0000000000000018e-2" x="-0.17967084002842043" y="-0.34420605870216103" /><rect width="2.0000000000000018e-2" height="2.0000000000000018e-2" x="-0.19003112337197425" y="-0.35637964220963336" /><rect width="2.0000000000000018e-2" height="2.0000000000000018e-2" x="-0.20041360369771238" y="-0.3466685926636244" /><rect width="2.0000000000000018e-2" height="2.0000000000000018e-2" x="-0.2074955926042582" y="-0.32178681952695276" /><rect width="2.0000000000000018e-2" height="2.0000000000000018e-2" x="-0.2019197231357011" y="-0.3744976223902129" /><rect width="2.0000000000000004e-2" height="2.0000000000000018e-2" x="-0.14027566945989706" y="-0.2581791385649993" /><rect width="2.0000000000000018e-2" height="2.0000000000000018e-2" x="-0.15206386716392328" y="-0.2494403231518818" /><rect width="2.0000000000000018e-2" height="2.0000000000000018e-2" x="-0.1572112410586145" y="-0.28556307973477746" /><rect width="2.0000000000000018e-2" height="2.0000000000000018e-2" x="-0.1638382628252808" y="-0.2542563241760317" /><rect width="2.0000000000000018e-2" height="2.0000000000000018e-2" x="-0.1740501089288234" y="-0.27028271368503765" /><rect width="2.0000000000000018e-2" height="2.0000000000000018e-2" x="-0.17961312985194072" y="-0.30288919293685745" /><rect width="2.0000000000000018e-2" height="2.0000000000000018e-2" x="-0.1728608300956131" y="-0.3604791958075457" /><rect width="2.0000000000000018e-2" height="2.0000000000000018e-2" x="-0.1837614905124686" y="-0.3513855385250182" /><rect width="2.0000000000000018e-2" height="2.0000000000000018e-2" x="-0.19477886319083743" y="-0.3545722214293344" /><rect width="2.0000000000000018e-2" height="2.0000000000000018e-2" x="-0.20553297922095476" y="-0.3572461982349848" /><rect width="2.0000000000000018e-2" height="2.0000000000000018e-2" x="-0.21442965624315552" y="-0.3739156617898959" /><rect width="2.0000000000000018e-2" height="2.0000000000000018e-2" x="-0.22462898136374632" y="-0.36986938743253306" /><rect width="2.0000000000000018e-2" height="2.0000000000000018e-2" x="-0.2232236504408988" y="-0.326398246057521" /><rect width="2.0000000000000018e-2" height="2.0000000000000018e-2" x="-0.23244640478754602" y="-0.3381996612307733" /><rect width="2.0000000000000018e-2" height="2.0000000000000018e-2" x="-0.24190001722770593" y="-0.330334797567132" /><rect width="2.0000000000000018e-2" height="2.0000000000000018e-2" x="-0.24616823455672615" y="-0.35924906285782576" /><rect width="2.0000000000000018e-2" height="2.0000000000000018e-2" x="-0.2546273310196472" y="-0.34662234156016336" /><rect width="2.0000000000000018e-2" height="2.0000000000000018e-2" x="-0.26369331714533095" y="-0.3409536026693015" /><rect width="2.0000000000000018e-2" height="2.0000000000000018e-2" x="-0.26978900997459276" y="-0.32009257510371514" /><rect width="2.0000000000000018e-2" height="2.0000000000000018e-2" x="-0.2786670539412563" y="-0.3216870957459995" /><rect width="2.0000000000000018e-2" height="2.0000000000000018e-2" x="-0.2873189935741728" y="-0.32005555159240007" /><rect width="2.0000000000000018e-2" height="2.0000000000000018e-2" x="-0.28329617696441267" y="-0.36178807289675363" /><rect width="2.0000000000000018e-2" height="2.0000000000000018e-2" x="-0.28854888711993726" y="-0.3403421692705031" /><rect width="2.0000000000000018e-2" height="2.0000000000000018e-2" x="-0.2962030620376371" y="-0.3301081592858389" /><rect width="2.0000000000000018e-2" height="2.0000000000000018e-2" x="-0.3019291834103365" y="-0.34840470311645677" /><rect width="2.0000000000000018e-2" height="2.0000000000000018e-2" x="-0.30995796308549484" y="-0.3457675135471163" /><rect width="2.0000000000000018e-2" height="2.0000000000000018e-2" x="-0.3177577596887768" y="-0.3425956078925605" /><rect width="2.0000000000000018e-2" height="2.0000000000000018e-2" x="-0.3058968976415366" y="-0.29246333712356576" /><rect width="2.0000000000000018e-2" height="2.0000000000000018e-2" x="-0.31149240300257963" y="-0.2748610308528626" /><rect width="2.0000000000000018e-2" height="2.0000000000000018e-2" x="-0.3014417996267479" y="-0.32324092077670197" /><rect width="2.0000000000000018e-2" height="2.0000000000000018e-2" x="-0.30171927653293684" y="-0.2910176830816291" /><rect width="2.0000000000000018e-2" height="2.0000000000000018e-2" x="-0.24331525879428823" y="-0.19280295559752514" /><rect width="2.0000000000000018e-2" height="2.0000000000000018e-2" x="-0.2522707743030829" y="-0.18306994253428455" /><rect width="2.0000000000000018e-2" height="2.0000000000000018e-2" x="-0.2596763800497533" y="-0.16593867218825553" /><rect width="2.0000000000000018e-2" height="2.0000000000000018e-2" x="-0.26582055091184026" y="-0.1871050414961375" /><rect width="2.0000000000000018e-2" height="2.0000000000000004e-2" x="-0.1649684233813733" y="-5.088049369531721e-2" /><rect width="2.0000000000000018e-2" height="1.999999999999999e-2" x="-0.16302149467887195" y="-0.10152529687274324" /><rect width="2.0000000000000018e-2" height="2.0000000000000004e-2" x="-0.16774090165510963" y="-0.13762678413782592" /><rect width="2.0000000000000018e-2" height="2.0000000000000018e-2" x="-0.16537466927274702" y="-0.18877854661990834" /><rect width="2.0000000000000018e-2" height="2.0000000000000018e-2" x="-0.1710837999553842" y="-0.155648297211319" /><rect width="2.0000000000000018e-2" height="1.999999999999999e-2" x="-0.17529524610130137" y="-0.11907555514149336" /><rect width="2.0000000000000018e-2" height="2.0000000000000018e-2" x="-0.17319156452303175" y="-0.16895483419858837" /><rect width="2.0000000000000018e-2" height="2.0000000000000018e-2" x="-0.1832569343245452" y="-0.15362713483209023" /><rect width="2.0000000000000018e-2" height="1.999999999999999e-2" x="-0.1711457176881237" y="-8.819192359450677e-2" /><rect width="2.0000000000000018e-2" height="1.999999999999999e-2" x="-0.1817679535665126" y="-0.1001303509023762" /><rect width="2.0000000000000018e-2" height="2.0000000000000004e-2" x="-0.18280355268142406" y="-5.722966238500104e-2" /><rect width="2.0000000000000018e-2" height="2.0000000000000004e-2" x="-0.18804775144811575" y="-2.4668675305440917e-2" /><rect width="2.0000000000000018e-2" height="2.0000000000000004e-2" x="-0.1969341510726924" y="-4.3914534160819245e-2" /><rect width="2.0000000000000018e-2" height="2.0000000000000004e-2" x="-0.1825302060507225" y="2.3243448105613858e-2" /><rect width="2.0000000000000018e-2" height="2.0000000000000004e-2" x="-0.19347405074523327" y="2.8631669836455605e-2" /><rect width="1.999999999999999e-2" height="1.999999999999999e-2" x="-0.11946803702986679" y="-9.94439643014867e-2" /><rect width="1.999999999999999e-2" height="2.0000000000000018e-2" x="-0.1206334534640605" y="-0.14846469578876198" /><rect width="2.0000000000000004e-2" height="2.0000000000000018e-2" x="-0.12724473765163685" y="-0.1838572452519318" /><rect width="1.999999999999999e-2" height="2.0000000000000018e-2" x="-0.12361802194197179" y="-0.24151427223699484" /><rect width="2.0000000000000004e-2" height="2.0000000000000018e-2" x="-0.13372251625648307" y="-0.2641008927009587" /><rect width="2.0000000000000018e-2" height="2.0000000000000018e-2" x="-0.14586408521412597" y="-0.25778506327934225" /><rect width="2.0000000000000018e-2" height="2.0000000000000018e-2" x="-0.15668521961281717" y="-0.24239770982882425" /><rect width="2.0000000000000018e-2" height="2.0000000000000018e-2" x="-0.16646826991028996" y="-0.261827884348686" /><rect width="2.0000000000000018e-2" height="2.0000000000000018e-2" x="-0.17704465017545218" y="-0.24860975558665854" /><rect width="2.0000000000000018e-2" height="2.0000000000000018e-2" x="-0.18827502159054926" y="-0.25018657698502544" /><rect width="2.0000000000000018e-2" height="2.0000000000000018e-2" x="-0.1853611972914923" y="-0.30023552575867707" /><rect width="2.0000000000000018e-2" height="2.0000000000000018e-2" x="-0.195792428830511" y="-0.31061662112416344" /><rect width="2.0000000000000018e-2" height="2.0000000000000018e-2" x="-0.19477556352322717" y="-0.3562947110907191" /><rect width="2.0000000000000018e-2" height="2.0000000000000018e-2" x="-0.20411340433357095" y="-0.34031321722596386" /><rect width="2.0000000000000018e-2" height="2.0000000000000018e-2" x="-0.2128222462418622" y="-0.3225009536562823" /><rect width="2.0000000000000018e-2" height="2.0000000000000018e-2" x="-0.202020261976875" y="-0.2621993721588257" /><rect width="2.0000000000000018e-2" height="2.0000000000000018e-2" x="-0.2119114796342515" y="-0.2510633151394952" /><rect width="2.0000000000000018e-2" height="2.0000000000000018e-2" x="-0.2204573849944772" y="-0.26854284960605646" /><rect width="2.0000000000000018e-2" height="2.0000000000000018e-2" x="-0.22609535672487846" y="-0.29584316285017287" /><rect width="2.0000000000000018e-2" height="2.0000000000000018e-2" x="-0.22796407784134293" y="-0.3323455529481082" /><rect width="2.0000000000000018e-2" height="2.0000000000000018e-2" x="-0.23747548029494975" y="-0.3408052055270362" /><rect width="2.0000000000000018e-2" height="2.0000000000000018e-2" x="-0.23980931032912062" y="-0.3750599209525477" /><rect width="2.0000000000000018e-2" height="2.0000000000000018e-2" x="-0.24692638987067556" y="-0.35509840150380034" /><rect width="2.0000000000000018e-2" height="2.0000000000000018e-2" x="-0.2481253028872304" y="-0.31924807483623663" /><rect width="2.0000000000000018e-2" height="2.0000000000000018e-2" x="-0.2575690609218794" y="-0.31898452208359707" /><rect width="2.0000000000000018e-2" height="2.0000000000000018e-2" x="-0.26463608634807173" y="-0.3368716672184603" /><rect width="2.0000000000000018e-2" height="2.0000000000000018e-2" x="-0.2735131302273877" y="-0.3415426376348105" /><rect width="2.0000000000000018e-2" height="2.0000000000000018e-2" x="-0.2802072777593144" y="-0.3589073643938496" /><rect width="2.0000000000000018e-2" height="2.0000000000000018e-2" x="-0.28836645779350867" y="-0.35077229396635345" /><rect width="2.0000000000000018e-2" height="2.0000000000000018e-2" x="-0.2912416554247266" y="-0.3231248752631023" /><rect width="2.0000000000000018e-2" height="2.0000000000000018e-2" x="-0.2857676427612288" y="-0.2793982674127101" /><rect width="2.0000000000000018e-2" height="2.0000000000000018e-2" x="-0.2926863858969876" y="-0.29412611831103475" /><rect width="2.0000000000000018e-2" height="2.0000000000000018e-2" x="-0.2891743505308664" y="-0.25383153697465843" /><rect width="2.0000000000000018e-2" height="2.0000000000000018e-2" x="-0.2965526720922753" y="-0.2656660810105108" /><rect width="2.0000000000000018e-2" height="2.0000000000000018e-2" x="-0.2964730733039178" y="-0.29912802929316096" /><rect width="2.0000000000000018e-2" height="2.0000000000000018e-2" x="-0.30174594699864704" y="-0.3189893661381441" /><rect width="2.0000000000000018e-2" height="2.0000000000000018e-2" x="-0.29986672116010765" y="-0.28256047195599077" /><rect width="2.0000000000000018e-2" height="2.0000000000000018e-2" x="-0.29853233855479555" y="-0.31815764649684086" /><rect width="2.0000000000000018e-2" height="2.0000000000000018e-2" x="-0.3047578549709333" y="-0.30209742126311245" /><rect width="2.0000000000000018e-2" height="2.0000000000000018e-2" x="-0.3095116302225453" y="-0.2814815202535117" /><rect width="2.0000000000000018e-2" height="2.0000000000000018e-2" x="-0.28501546165851455" y="-0.21543407130670567" /><rect width="2.0000000000000018e-2" height="2.0000000000000018e-2" x="-0.274362750190031" y="-0.16327610338618492" /><rect width="2.0000000000000018e-2" height="1.999999999999999e-2" x="-0.27211364192693965" y="-0.12333791664028158" /><rect width="2.0000000000000004e-2" height="2.0000000000000004e-2" x="-0.1256661029284043" y="4.194110456622508e-2" /><rect width="1.999999999999999e-2" height="2.0000000000000004e-2" x="-0.10560903595922504" y="-4.083941887519315e-2" /><rect width="1.999999999999999e-2" height="2.0000000000000004e-2" x="-0.1180849958118853" y="-5.1889570287833135e-2" /><rect width="1.9999999999999997e-2" height="2.0000000000000018e-2" x="-7.581704850911984e-2" y="-0.1613976629537377" /><rect width="1.999999999999999e-2" height="2.0000000000000004e-2" x="-8.38266176506726e-2" y="-0.12528003905965235" /><rect width="1.9999999999999997e-2" height="2.0000000000000004e-2" x="-7.78698393849485e-2" y="-5.899487523209545e-2" /><rect width="2.0000000000000004e-2" height="2.0000000000000018e-2" x="-5.697429890302313e-2" y="-0.14831372205990223" /><rect width="2.0000000000000004e-2" height="2.0000000000000004e-2" x="3.440863824618102e-2" y="1.5437255089340416e-2" /><rect width="2.0000000000000004e-2" height="2.0e-2" x="1.9821691031521656e-2" y="-7.84147834217779e-3" /><rect width="2.0000000000000004e-2" height="1.999999999999999e-2" x="3.2380018015392815e-2" y="-9.585528365891614e-2" /><rect width="2.0000000000000004e-2" height="2.0000000000000018e-2" x="3.430461558370302e-2" y="-0.1667468271889616" /><rect width="2.0000000000000004e-2" height="1.999999999999999e-2" x="2.4753752244759293e-2" y="-0.12309717942786357" /><rect width="2.0000000000000004e-2" height="2.0000000000000018e-2" x="1.7143066354574084e-2" y="-0.1714033184563445" /><rect width="2.0000000000000004e-2" height="2.0000000000000018e-2" x="1.0069159659944569e-3" y="-0.1688542461835275" /><rect width="1.999999999999999e-2" height="2.0000000000000004e-2" x="6.332843663054268e-2" y="-2.319552652690548e-2" /><rect width="1.9999999999999997e-2" height="1.999999999999999e-2" x="6.243126754692064e-2" y="-9.155304460780066e-2" /><rect width="1.9999999999999997e-2" height="1.9999999999999997e-2" x="4.577954491670078e-2" y="-7.798471508244918e-2" /><rect width="2.0000000000000004e-2" height="1.999999999999999e-2" x="3.506017927615313e-2" y="-0.11916409852140684" /><rect width="2.0000000000000004e-2" height="2.0000000000000018e-2" x="3.7894000623273534e-2" y="-0.19208079683983403" /><rect width="2.0000000000000004e-2" height="2.0000000000000018e-2" x="2.1236589696696402e-2" y="-0.19487998380681737" /><rect width="2.0000000000000004e-2" height="2.0000000000000018e-2" x="1.0824968931050236e-2" y="-0.15550815564606102" /><rect width="2.0000000000000004e-2" height="2.0000000000000018e-2" x="8.993622446132896e-3" y="-0.21647566479890545" /><rect width="2.0000000000000004e-2" height="2.0000000000000018e-2" x="1.1609955757132426e-2" y="-0.28629584299173005" /><rect width="2.0e-2" height="2.0000000000000018e-2" x="-4.410204416202093e-3" y="-0.28587099987078957" /><rect width="2.0000000000000004e-2" height="2.0000000000000018e-2" x="-1.9884021785173504e-2" y="-0.27988847997760524" /><rect width="2.0000000000000004e-2" height="2.0000000000000018e-2" x="-3.5061383599299716e-2" y="-0.2765176806754889" /><rect width="2.0000000000000004e-2" height="2.0000000000000018e-2" x="-4.482161522082972e-2" y="-0.3115455317466067" /><rect width="2.0000000000000004e-2" height="2.0000000000000018e-2" x="-5.905361665258934e-2" y="-0.3207738998406998" /><rect width="1.9999999999999997e-2" height="2.0000000000000018e-2" x="-7.273863255379452e-2" y="-0.30954255695186117" /><rect width="1.999999999999999e-2" height="2.0000000000000018e-2" x="-8.405099883996169e-2" y="-0.2854514677473685" /><rect width="1.999999999999999e-2" height="2.0000000000000018e-2" x="-9.729158552071913e-2" y="-0.2943368126788538" /><rect width="1.999999999999999e-2" height="2.0000000000000018e-2" x="-0.11048131164467066" y="-0.29035682306874067" /><rect width="1.999999999999999e-2" height="2.0000000000000018e-2" x="-0.12326253172391886" y="-0.2847832855562298" /><rect width="2.0000000000000004e-2" height="2.0000000000000018e-2" x="-0.1306720792629305" y="-0.252113014536523" /><rect width="2.0000000000000004e-2" height="2.0000000000000018e-2" x="-0.14299795075941046" y="-0.2478021382645904" /><rect width="2.0000000000000004e-2" height="2.0000000000000018e-2" x="-0.14227694615893766" y="-0.1972898715653736" /><rect width="2.0000000000000018e-2" height="2.0000000000000018e-2" x="-0.14886610608690665" y="-0.23036807282810268" /><rect width="2.0000000000000018e-2" height="2.0000000000000018e-2" x="-0.15947221581484144" y="-0.21417260800038307" /><rect width="2.0000000000000018e-2" height="2.0000000000000018e-2" x="-0.1659573398298228" y="-0.18268323013244625" /><rect width="2.0000000000000018e-2" height="2.0000000000000018e-2" x="-0.17340174081483994" y="-0.2103541250893184" /><rect width="2.0000000000000018e-2" height="2.0000000000000004e-2" x="-0.15868862588004068" y="-0.14014682505323717" /><rect width="1.999999999999999e-2" height="2.0000000000000004e-2" x="-0.12184816848658946" y="-4.160945962042616e-2" /><rect width="1.999999999999999e-2" height="1.999999999999999e-2" x="-0.12202187821719267" y="-9.247512549244417e-2" /><rect width="1.999999999999999e-2" height="2.0000000000000018e-2" x="-0.10238955606649462" y="-0.1751112873754711" /><rect width="1.999999999999999e-2" height="2.0000000000000018e-2" x="-0.11262959033014318" y="-0.15025376534900214" /><rect width="1.999999999999999e-2" height="1.9999999999999997e-2" x="-9.139410166542399e-2" y="-6.444574706114502e-2" /><rect width="1.999999999999999e-2" height="1.999999999999999e-2" x="-9.059601870805899e-2" y="-0.12040843895746521" /><rect width="1.999999999999999e-2" height="2.0000000000000018e-2" x="-9.73202175519771e-2" y="-0.15875025366897955" /><rect width="1.999999999999999e-2" height="2.0000000000000018e-2" x="-9.337047565394817e-2" y="-0.22008818418502574" /><rect width="1.999999999999999e-2" height="2.0000000000000018e-2" x="-0.10628241550236665" y="-0.21020554193040153" /><rect width="1.999999999999999e-2" height="2.0000000000000018e-2" x="-0.10601868553954262" y="-0.2635644071601113" /><rect width="1.999999999999999e-2" height="2.0000000000000018e-2" x="-0.11793104944961534" y="-0.24809982674211983" /><rect width="2.0000000000000004e-2" height="2.0000000000000018e-2" x="-0.1300030175342925" y="-0.25985606901388114" /><rect width="2.0000000000000004e-2" height="2.0000000000000018e-2" x="-0.13910180336872474" y="-0.23387967827048173" /><rect width="2.0000000000000018e-2" height="2.0000000000000018e-2" x="-0.14508951685078092" y="-0.26906410694058025" /><rect width="2.0000000000000018e-2" height="2.0000000000000018e-2" x="-0.15408481934469737" y="-0.24458284916239903" /><rect width="2.0000000000000018e-2" height="2.0000000000000018e-2" x="-0.16510875764452276" y="-0.25698205993297063" /><rect width="2.0000000000000018e-2" height="2.0000000000000018e-2" x="-0.17641923686274896" y="-0.26362520406381507" /><rect width="2.0000000000000018e-2" height="2.0000000000000018e-2" x="-0.18586142567807123" y="-0.28185744158133397" /><rect width="2.0000000000000018e-2" height="2.0000000000000018e-2" x="-0.19321141072215092" y="-0.307519124515115" /><rect width="2.0000000000000018e-2" height="2.0000000000000018e-2" x="-0.20333629805943448" y="-0.29635010240330706" /><rect width="2.0000000000000018e-2" height="2.0000000000000018e-2" x="-0.21306705717741775" y="-0.3084108718198735" /><rect width="2.0000000000000018e-2" height="2.0000000000000018e-2" x="-0.22014070544613307" y="-0.28500455791688084" /><rect width="2.0000000000000018e-2" height="2.0000000000000018e-2" x="-0.21653150696250184" y="-0.33300949887207876" /><rect width="2.0000000000000018e-2" height="2.0000000000000018e-2" x="-0.2258019384163007" y="-0.34573261278399714" /><rect width="2.0000000000000018e-2" height="2.0000000000000018e-2" x="-0.23441877241895587" y="-0.330688188111943" /><rect width="2.0000000000000018e-2" height="2.0000000000000018e-2" x="-0.2441190751779762" y="-0.3268885040207016" /><rect width="2.0000000000000018e-2" height="2.0000000000000018e-2" x="-0.2532880965799039" y="-0.3345239424731957" /><rect width="2.0000000000000018e-2" height="2.0000000000000018e-2" x="-0.26233750050024107" y="-0.34083887306352767" /><rect width="2.0000000000000018e-2" height="2.0000000000000018e-2" x="-0.26894722141939087" y="-0.32171695553333035" /><rect width="2.0000000000000018e-2" height="2.0000000000000018e-2" x="-0.27784999864280635" y="-0.3231501258720906" /><rect width="2.0000000000000018e-2" height="2.0000000000000018e-2" x="-0.2864608300725689" y="-0.31977751688072775" /><rect width="2.0000000000000018e-2" height="2.0000000000000018e-2" x="-0.294888595028201" y="-0.31727026712063344" /><rect width="2.0000000000000018e-2" height="2.0000000000000018e-2" x="-0.29384038087597897" y="-0.35282913564659457" /><rect width="2.0000000000000018e-2" height="2.0000000000000018e-2" x="-0.3018579253817704" y="-0.3468156022391553" /><rect width="2.0000000000000018e-2" height="2.0000000000000018e-2" x="-0.3088805465154421" y="-0.33501498940599883" /><rect width="2.0000000000000018e-2" height="2.0000000000000018e-2" x="-0.31036998576595853" y="-0.30619059261947634" /><rect width="2.0000000000000018e-2" height="2.0000000000000018e-2" x="-0.3164136876008377" y="-0.2909143622835513" /><rect width="2.0000000000000018e-2" height="2.0000000000000018e-2" x="-0.32380575176877036" y="-0.2972718327393765" /><rect width="2.0000000000000018e-2" height="2.0000000000000018e-2" x="-0.32117066269094635" y="-0.3327929746754551" /><rect width="2.0000000000000018e-2" height="2.0000000000000018e-2" x="-0.3286096604528778" y="-0.33717090182881315" /><rect width="2.0000000000000018e-2" height="2.0000000000000018e-2" x="-0.3341183570753612" y="-0.3522886652699543" /><rect width="2.0000000000000018e-2" height="2.0000000000000018e-2" x="-0.33328487894613434" y="-0.32117819623200417" /><rect width="2.0000000000000018e-2" height="2.0000000000000018e-2" x="-0.31570689049918543" y="-0.2657943774972965" /><rect width="2.0000000000000018e-2" height="2.0000000000000018e-2" x="-0.3100288945488408" y="-0.22433674054319674" /><rect width="2.0000000000000018e-2" height="2.0000000000000018e-2" x="-0.30967402777468145" y="-0.2569735576286928" /><rect width="2.0000000000000018e-2" height="2.0000000000000018e-2" x="-0.3174142736818974" y="-0.26128669622890144" /><rect width="2.0000000000000018e-2" height="2.0000000000000018e-2" x="-0.30838207879535695" y="-0.3075792829797258" /><rect width="2.0000000000000018e-2" height="2.0000000000000018e-2" x="-0.31179158727606016" y="-0.28343457644080694" /><rect width="2.0000000000000018e-2" height="2.0000000000000018e-2" x="-0.31859526919617664" y="-0.2719987585106596" /><rect width="2.0000000000000018e-2" height="2.0000000000000018e-2" x="-0.32521633702868985" y="-0.2833651396938365" /><rect width="2.0000000000000018e-2" height="2.0000000000000018e-2" x="-0.3184630887757893" y="-0.325467256059524" /><rect width="2.0000000000000018e-2" height="2.0000000000000018e-2" x="-0.325727904881589" y="-0.3184304450219686" /><rect width="2.0000000000000018e-2" height="2.0000000000000018e-2" x="-0.3246320396033989" y="-0.35091092740907004" /><rect width="2.0000000000000018e-2" height="2.0000000000000018e-2" x="-0.33175369194006465" y="-0.34406113786671555" /><rect width="2.0000000000000018e-2" height="2.0000000000000018e-2" x="-0.33810494157386" y="-0.33328922733295596" /><rect width="2.0000000000000018e-2" height="2.0000000000000018e-2" x="-0.34282612846360283" y="-0.3501768694738494" /><rect width="2.0000000000000018e-2" height="2.0000000000000018e-2" x="-0.3468186122019263" y="-0.36890467019567297" /><rect width="2.0000000000000018e-2" height="2.0000000000000018e-2" x="-0.35355907727681535" y="-0.3641025961013561" /><rect width="2.0000000000000018e-2" height="2.0000000000000018e-2" x="-0.35933952092895516" y="-0.35364487009019185" /><rect width="2.0000000000000018e-2" height="2.0000000000000018e-2" x="-0.36242795991643056" y="-0.3732129727984954" /><rect width="2.0000000000000018e-2" height="2.0000000000000018e-2" x="-0.3681043848038793" y="-0.36357445925861154" /><rect width="2.0000000000000018e-2" height="2.0000000000000018e-2" x="-0.35840618930616613" y="-0.3220202016080588" /><rect width="2.0000000000000018e-2" height="2.0000000000000018e-2" x="-0.3642952713416566" y="-0.3310952502597384" /><rect width="2.0000000000000018e-2" height="2.0000000000000018e-2" x="-0.3570159133164929" y="-0.36972879641347334" /><rect width="2.0000000000000018e-2" height="2.0000000000000018e-2" x="-0.34241756146426505" y="-0.3207150823452827" /><rect width="2.0000000000000018e-2" height="2.0000000000000018e-2" x="-0.3481347286023892" y="-0.3331079115426907" /><rect width="2.0000000000000018e-2" height="2.0000000000000018e-2" x="-0.35019581622278817" y="-0.3096904332862256" /><rect width="2.0000000000000018e-2" height="2.0000000000000018e-2" x="-0.3532957683096953" y="-0.33020854177517267" /><rect width="2.0000000000000018e-2" height="2.0000000000000018e-2" x="-0.3524446596452411" y="-0.3593826369739411" /><rect width="2.0000000000000018e-2" height="2.0000000000000018e-2" x="-0.3536298575749567" y="-0.3343620477369943" /><rect width="2.0000000000000018e-2" height="2.0000000000000018e-2" x="-0.35193336762919186" y="-0.36509946756039613" /><rect width="2.0000000000000018e-2" height="2.0000000000000018e-2" x="-0.35588301956181795" y="-0.34725737752288177" /><rect width="2.0000000000000018e-2" height="2.0000000000000018e-2" x="-0.36256727832058644" y="-0.3491081215878312" /><rect width="2.0000000000000018e-2" height="2.0000000000000018e-2" x="-0.3560801432868581" y="-0.386773535307795" /><rect width="2.0000000000000018e-2" height="2.0000000000000018e-2" x="-0.3616988824599132" y="-0.3976833200353864" /><rect width="2.0000000000000018e-2" height="2.0000000000000018e-2" x="-0.36208863218383225" y="-0.3718797077436291" /><rect width="2.0000000000000018e-2" height="2.0000000000000018e-2" x="-0.3680223930983272" y="-0.36372480188683964" /><rect width="2.0000000000000018e-2" height="2.0000000000000018e-2" x="-0.3743430784916769" y="-0.3607070405400158" /><rect width="2.0000000000000018e-2" height="2.0000000000000018e-2" x="-0.34768987401919305" y="-0.3010423034156757" /><rect width="2.0000000000000018e-2" height="2.0000000000000018e-2" x="-0.28456069674240325" y="-0.20673600830358596" /><rect width="2.0000000000000018e-2" height="2.0000000000000018e-2" x="-0.27255658137019323" y="-0.26080689328384277" /><rect width="2.0000000000000018e-2" height="2.0000000000000018e-2" x="-0.28081323647705564" y="-0.25178182541361305" /><rect width="2.0000000000000018e-2" height="2.0000000000000018e-2" x="-0.28810215270162365" y="-0.2654119397093434" /><rect width="2.0000000000000018e-2" height="2.0000000000000018e-2" x="-0.22561818677866236" y="-0.16172776831828062" /><rect width="2.0000000000000018e-2" height="2.0000000000000018e-2" x="-0.2254576534860544" y="-0.20263263353839978" /><rect width="2.0000000000000018e-2" height="2.0000000000000018e-2" x="-0.19670851436541853" y="-0.2839416458192403" /><rect width="2.0000000000000018e-2" height="2.0000000000000018e-2" x="-0.18933426923028934" y="-0.34073222188444585" /><rect width="2.0000000000000018e-2" height="2.0000000000000018e-2" x="-0.19967552877694422" y="-0.35097425017977124" /><rect width="2.0000000000000018e-2" height="2.0000000000000018e-2" x="-0.2017318993549711" y="-0.3121728104373045" /><rect width="2.0000000000000018e-2" height="2.0000000000000018e-2" x="-0.20577429084882537" y="-0.3459513373292562" /><rect width="2.0000000000000018e-2" height="2.0000000000000018e-2" x="-0.2162860143217129" y="-0.34685959631487706" /><rect width="2.0000000000000018e-2" height="2.0000000000000018e-2" x="-0.22208263399987654" y="-0.3741380223568712" /><rect width="2.0000000000000018e-2" height="2.0000000000000018e-2" x="-0.23000205333505985" y="-0.3551990299636387" /><rect width="2.0000000000000018e-2" height="2.0000000000000018e-2" x="-0.23989453267615296" y="-0.3565048350573331" /><rect width="2.0000000000000018e-2" height="2.0000000000000018e-2" x="-0.24549799919501636" y="-0.3312672934579507" /><rect width="2.0000000000000018e-2" height="2.0000000000000018e-2" x="-0.25283035814767296" y="-0.34961919657027307" /><rect width="2.0000000000000018e-2" height="2.0000000000000018e-2" x="-0.25629388633024813" y="-0.31973369526684847" /><rect width="2.0000000000000018e-2" height="2.0000000000000018e-2" x="-0.23762273997356914" y="-0.25383695998159306" /></g><g /></svg>