
<svg xmlns="http://www.w3.org/2000/svg" height="300.0" viewBox="-0.87 -0.5487415824915824 1.6739498301835438 1.0949915824915823" width="450.0" xmlns:xlink="http://www.w3.org/1999/xlink">
  <g stroke-opacity="0.0" fill-opacity="3.0e-2" stroke="#000000" stroke-width="0.0" fill="#666666">
    <rect height="0.8978675645342313" width="1.4200679265824885" x="-0.6736180963989445" y="-0.495510662177329"/>
  </g>
  <g stroke-opacity="0.3" stroke="#a8e5ee" stroke-width="5.0e-3" fill="none">
    <polyline points="-0.6771682662154007,0.40235690235690236
0.75,0.40235690235690236"/>
  </g>
  <g stroke-opacity="0.3" stroke="#a8e5ee" stroke-width="5.0e-3" fill="none">
    <polyline points="-0.6771682662154007,0.3125701459034792
0.75,0.3125701459034792"/>
  </g>
  <g stroke-opacity="0.3" stroke="#a8e5ee" stroke-width="5.0e-3" fill="none">
    <polyline points="-0.6771682662154007,0.2227833894500561
0.75,0.2227833894500561"/>
  </g>
  <g stroke-opacity="0.3" stroke="#a8e5ee" stroke-width="5.0e-3" fill="none">
    <polyline points="-0.6771682662154007,0.13299663299663295
0.75,0.13299663299663295"/>
  </g>
  <g stroke-opacity="0.3" stroke="#a8e5ee" stroke-width="5.0e-3" fill="none">
    <polyline points="-0.6771682662154007,4.3209876543209846e-2
0.75,4.3209876543209846e-2"/>
  </g>
  <g stroke-opacity="0.3" stroke="#a8e5ee" stroke-width="5.0e-3" fill="none">
    <polyline points="-0.6771682662154007,-4.657687991021331e-2
0.75,-4.657687991021331e-2"/>
  </g>
  <g stroke-opacity="0.3" stroke="#a8e5ee" stroke-width="5.0e-3" fill="none">
    <polyline points="-0.6771682662154007,-0.13636363636363646
0.75,-0.13636363636363646"/>
  </g>
  <g stroke-opacity="0.3" stroke="#a8e5ee" stroke-width="5.0e-3" fill="none">
    <polyline points="-0.6771682662154007,-0.22615039281705962
0.75,-0.22615039281705962"/>
  </g>
  <g stroke-opacity="0.3" stroke="#a8e5ee" stroke-width="5.0e-3" fill="none">
    <polyline points="-0.6771682662154007,-0.31593714927048266
0.75,-0.31593714927048266"/>
  </g>
  <g stroke-opacity="0.3" stroke="#a8e5ee" stroke-width="5.0e-3" fill="none">
    <polyline points="-0.6771682662154007,-0.4057239057239058
0.75,-0.4057239057239058"/>
  </g>
  <g stroke-opacity="0.3" stroke="#a8e5ee" stroke-width="5.0e-3" fill="none">
    <polyline points="-0.6771682662154007,-0.495510662177329
0.75,-0.495510662177329"/>
  </g>
  <g fill-opacity="1.0" font-size="5.0e-2" stroke="none" stroke-width="0.0" fill="#666666" text-anchor="end">
    <text x="-0.75" y="0.41537598204264864">-0.5
    </text>
  </g>
  <g fill-opacity="1.0" font-size="5.0e-2" stroke="none" stroke-width="0.0" fill="#666666" text-anchor="end">
    <text x="-0.75" y="0.3255892255892256">-0.4
    </text>
  </g>
  <g fill-opacity="1.0" font-size="5.0e-2" stroke="none" stroke-width="0.0" fill="#666666" text-anchor="end">
    <text x="-0.75" y="0.23580246913580244">-0.3
    </text>
  </g>
  <g fill-opacity="1.0" font-size="5.0e-2" stroke="none" stroke-width="0.0" fill="#666666" text-anchor="end">
    <text x="-0.75" y="0.14601571268237928">-0.2
    </text>
  </g>
  <g fill-opacity="1.0" font-size="5.0e-2" stroke="none" stroke-width="0.0" fill="#666666" text-anchor="end">
    <text x="-0.75" y="5.6228956228956184e-2">-0.1
    </text>
  </g>
  <g fill-opacity="1.0" font-size="5.0e-2" stroke="none" stroke-width="0.0" fill="#666666" text-anchor="end">
    <text x="-0.75" y="-3.355780022446697e-2">0.0
    </text>
  </g>
  <g fill-opacity="1.0" font-size="5.0e-2" stroke="none" stroke-width="0.0" fill="#666666" text-anchor="end">
    <text x="-0.75" y="-0.12334455667789013">0.1
    </text>
  </g>
  <g fill-opacity="1.0" font-size="5.0e-2" stroke="none" stroke-width="0.0" fill="#666666" text-anchor="end">
    <text x="-0.75" y="-0.21313131313131328">0.2
    </text>
  </g>
  <g fill-opacity="1.0" font-size="5.0e-2" stroke="none" stroke-width="0.0" fill="#666666" text-anchor="end">
    <text x="-0.75" y="-0.3029180695847362">0.3
    </text>
  </g>
  <g fill-opacity="1.0" font-size="5.0e-2" stroke="none" stroke-width="0.0" fill="#666666" text-anchor="end">
    <text x="-0.75" y="-0.3927048260381595">0.4
    </text>
  </g>
  <g fill-opacity="1.0" font-size="5.0e-2" stroke="none" stroke-width="0.0" fill="#666666" text-anchor="end">
    <text x="-0.75" y="-0.4824915824915824">0.5
    </text>
  </g>
  <g stroke-opacity="0.4" fill-opacity="1.0" stroke="#2c429d" stroke-width="5.0e-3" fill="#5f0391">
    <g transform="rotate(-90.0, -0.7268706436457879, 0.40235690235690236)">
      <polyline points="-0.7268706436457879,0.41735690235690237
-0.7268706436457879,0.38735690235690234"/>
    </g>
    <g transform="rotate(-90.0, -0.7268706436457879, 0.3125701459034792)">
      <polyline points="-0.7268706436457879,0.3275701459034792
-0.7268706436457879,0.2975701459034792"/>
    </g>
    <g transform="rotate(-90.0, -0.7268706436457879, 0.2227833894500561)">
      <polyline points="-0.7268706436457879,0.23778338945005612
-0.7268706436457879,0.2077833894500561"/>
    </g>
    <g transform="rotate(-90.0, -0.7268706436457879, 0.13299663299663295)">
      <polyline points="-0.7268706436457879,0.14799663299663296
-0.7268706436457879,0.11799663299663295"/>
    </g>
    <g transform="rotate(-90.0, -0.7268706436457879, 4.3209876543209846e-2)">
      <polyline points="-0.7268706436457879,5.8209876543209846e-2
-0.7268706436457879,2.8209876543209847e-2"/>
    </g>
    <g transform="rotate(-90.0, -0.7268706436457879, -4.657687991021331e-2)">
      <polyline points="-0.7268706436457879,-3.157687991021331e-2
-0.7268706436457879,-6.157687991021331e-2"/>
    </g>
    <g transform="rotate(-90.0, -0.7268706436457879, -0.13636363636363646)">
      <polyline points="-0.7268706436457879,-0.12136363636363647
-0.7268706436457879,-0.15136363636363648"/>
    </g>
    <g transform="rotate(-90.0, -0.7268706436457879, -0.22615039281705962)">
      <polyline points="-0.7268706436457879,-0.2111503928170596
-0.7268706436457879,-0.24115039281705963"/>
    </g>
    <g transform="rotate(-90.0, -0.7268706436457879, -0.31593714927048266)">
      <polyline points="-0.7268706436457879,-0.30093714927048265
-0.7268706436457879,-0.3309371492704827"/>
    </g>
    <g transform="rotate(-90.0, -0.7268706436457879, -0.4057239057239058)">
      <polyline points="-0.7268706436457879,-0.3907239057239058
-0.7268706436457879,-0.42072390572390583"/>
    </g>
    <g transform="rotate(-90.0, -0.7268706436457879, -0.495510662177329)">
      <polyline points="-0.7268706436457879,-0.48051066217732896
-0.7268706436457879,-0.510510662177329"/>
    </g>
  </g>
  <g stroke-opacity="0.0" fill-opacity="0.5" stroke="#666666" stroke-width="0.0" fill="#5f0391">
    <rect height="0.8978675645342313" width="3.5501698164561724e-3" x="-0.7197703040128755" y="-0.495510662177329"/>
  </g>
  <g stroke-opacity="0.3" stroke="#a8e5ee" stroke-width="5.0e-3" fill="none">
    <polyline points="-0.6736180963989445,0.4068462401795735
-0.6736180963989445,-0.5"/>
  </g>
  <g stroke-opacity="0.3" stroke="#a8e5ee" stroke-width="5.0e-3" fill="none">
    <polyline points="-0.5316113037406958,0.4068462401795735
-0.5316113037406958,-0.5"/>
  </g>
  <g stroke-opacity="0.3" stroke="#a8e5ee" stroke-width="5.0e-3" fill="none">
    <polyline points="-0.38960451108244687,0.4068462401795735
-0.38960451108244687,-0.5"/>
  </g>
  <g stroke-opacity="0.3" stroke="#a8e5ee" stroke-width="5.0e-3" fill="none">
    <polyline points="-0.24759771842419798,0.4068462401795735
-0.24759771842419798,-0.5"/>
  </g>
  <g stroke-opacity="0.3" stroke="#a8e5ee" stroke-width="5.0e-3" fill="none">
    <polyline points="-0.1055909257659492,0.4068462401795735
-0.1055909257659492,-0.5"/>
  </g>
  <g stroke-opacity="0.3" stroke="#a8e5ee" stroke-width="5.0e-3" fill="none">
    <polyline points="3.64158668922997e-2,0.4068462401795735
3.64158668922997e-2,-0.5"/>
  </g>
  <g stroke-opacity="0.3" stroke="#a8e5ee" stroke-width="5.0e-3" fill="none">
    <polyline points="0.1784226595505486,0.4068462401795735
0.1784226595505486,-0.5"/>
  </g>
  <g stroke-opacity="0.3" stroke="#a8e5ee" stroke-width="5.0e-3" fill="none">
    <polyline points="0.32042945220879737,0.4068462401795735
0.32042945220879737,-0.5"/>
  </g>
  <g stroke-opacity="0.3" stroke="#a8e5ee" stroke-width="5.0e-3" fill="none">
    <polyline points="0.46243624486704626,0.4068462401795735
0.46243624486704626,-0.5"/>
  </g>
  <g stroke-opacity="0.3" stroke="#a8e5ee" stroke-width="5.0e-3" fill="none">
    <polyline points="0.6044430375252952,0.4068462401795735
0.6044430375252952,-0.5"/>
  </g>
  <g stroke-opacity="0.3" stroke="#a8e5ee" stroke-width="5.0e-3" fill="none">
    <polyline points="0.7464498301835438,0.4068462401795735
0.7464498301835438,-0.5"/>
  </g>
  <g fill-opacity="1.0" font-size="5.0e-2" stroke="none" stroke-width="0.0" fill="#666666" text-anchor="middle">
    <text x="-0.6736180963989445" y="0.5">-0.5
    </text>
  </g>
  <g fill-opacity="1.0" font-size="5.0e-2" stroke="none" stroke-width="0.0" fill="#666666" text-anchor="middle">
    <text x="-0.5316113037406958" y="0.5">-0.4
    </text>
  </g>
  <g fill-opacity="1.0" font-size="5.0e-2" stroke="none" stroke-width="0.0" fill="#666666" text-anchor="middle">
    <text x="-0.38960451108244687" y="0.5">-0.3
    </text>
  </g>
  <g fill-opacity="1.0" font-size="5.0e-2" stroke="none" stroke-width="0.0" fill="#666666" text-anchor="middle">
    <text x="-0.24759771842419798" y="0.5">-0.2
    </text>
  </g>
  <g fill-opacity="1.0" font-size="5.0e-2" stroke="none" stroke-width="0.0" fill="#666666" text-anchor="middle">
    <text x="-0.1055909257659492" y="0.5">-0.1
    </text>
  </g>
  <g fill-opacity="1.0" font-size="5.0e-2" stroke="none" stroke-width="0.0" fill="#666666" text-anchor="middle">
    <text x="3.64158668922997e-2" y="0.5">0.0
    </text>
  </g>
  <g fill-opacity="1.0" font-size="5.0e-2" stroke="none" stroke-width="0.0" fill="#666666" text-anchor="middle">
    <text x="0.1784226595505486" y="0.5">0.1
    </text>
  </g>
  <g fill-opacity="1.0" font-size="5.0e-2" stroke="none" stroke-width="0.0" fill="#666666" text-anchor="middle">
    <text x="0.32042945220879737" y="0.5">0.2
    </text>
  </g>
  <g fill-opacity="1.0" font-size="5.0e-2" stroke="none" stroke-width="0.0" fill="#666666" text-anchor="middle">
    <text x="0.46243624486704626" y="0.5">0.3
    </text>
  </g>
  <g fill-opacity="1.0" font-size="5.0e-2" stroke="none" stroke-width="0.0" fill="#666666" text-anchor="middle">
    <text x="0.6044430375252952" y="0.5">0.4
    </text>
  </g>
  <g fill-opacity="1.0" font-size="5.0e-2" stroke="none" stroke-width="0.0" fill="#666666" text-anchor="middle">
    <text x="0.7464498301835438" y="0.5">0.5
    </text>
  </g>
  <g stroke-opacity="0.4" fill-opacity="1.0" stroke="#2c429d" stroke-width="5.0e-3" fill="#5f0391">
    <polyline points="-0.6736180963989445,0.43980359147025816
-0.6736180963989445,0.40980359147025813"/>
    <polyline points="-0.5316113037406958,0.43980359147025816
-0.5316113037406958,0.40980359147025813"/>
    <polyline points="-0.38960451108244687,0.43980359147025816
-0.38960451108244687,0.40980359147025813"/>
    <polyline points="-0.24759771842419798,0.43980359147025816
-0.24759771842419798,0.40980359147025813"/>
    <polyline points="-0.1055909257659492,0.43980359147025816
-0.1055909257659492,0.40980359147025813"/>
    <polyline points="3.64158668922997e-2,0.43980359147025816
3.64158668922997e-2,0.40980359147025813"/>
    <polyline points="0.1784226595505486,0.43980359147025816
0.1784226595505486,0.40980359147025813"/>
    <polyline points="0.32042945220879737,0.43980359147025816
0.32042945220879737,0.40980359147025813"/>
    <polyline points="0.46243624486704626,0.43980359147025816
0.46243624486704626,0.40980359147025813"/>
    <polyline points="0.6044430375252952,0.43980359147025816
0.6044430375252952,0.40980359147025813"/>
    <polyline points="0.7464498301835438,0.43980359147025816
0.7464498301835438,0.40980359147025813"/>
  </g>
  <g stroke-opacity="0.0" fill-opacity="0.5" stroke="#666666" stroke-width="0.0" fill="#5f0391">
    <rect height="4.489337822671191e-3" width="1.4200679265824885" x="-0.6736180963989445" y="0.41133557800224463"/>
  </g>
  <g stroke-opacity="0.0" fill-opacity="0.3" stroke="#2c429d" stroke-width="3.0e-3" fill="#ff0000">
    <rect height="2.0000000000000004e-2" width="2.0000000000000004e-2" x="4.11673966059788e-2" y="-5.333990266771848e-2"/>
    <rect height="2.0000000000000004e-2" width="2.0000000000000004e-2" x="4.014760810220198e-2" y="-5.439747734575095e-2"/>
    <rect height="2.0000000000000004e-2" width="2.0000000000000004e-2" x="3.8999992006567015e-2" y="-5.468668149634059e-2"/>
    <rect height="2.0000000000000004e-2" width="2.0000000000000004e-2" x="3.8490895778796615e-2" y="-5.55614428215706e-2"/>
    <rect height="2.0000000000000004e-2" width="2.0000000000000004e-2" x="4.0754151481002705e-2" y="-5.7790687139180334e-2"/>
    <rect height="2.0000000000000004e-2" width="2.0000000000000004e-2" x="3.9887565261147236e-2" y="-5.74968143193637e-2"/>
    <rect height="2.0000000000000004e-2" width="2.0000000000000004e-2" x="3.95226697765595e-2" y="-5.6725496839323146e-2"/>
    <rect height="2.0000000000000004e-2" width="2.0000000000000004e-2" x="3.906187354838898e-2" y="-5.6148605269776046e-2"/>
    <rect height="2.0000000000000004e-2" width="2.0000000000000004e-2" x="3.8395358565034295e-2" y="-5.612044689317607e-2"/>
    <rect height="2.0000000000000004e-2" width="2.0000000000000004e-2" x="3.783384969057813e-2" y="-5.631413271810925e-2"/>
    <rect height="2.0000000000000004e-2" width="2.0000000000000004e-2" x="3.873172954073279e-2" y="-5.5141971638484215e-2"/>
    <rect height="2.0000000000000004e-2" width="2.0000000000000004e-2" x="3.8234885548167126e-2" y="-5.5388847871125295e-2"/>
    <rect height="2.0000000000000004e-2" width="2.0000000000000004e-2" x="3.771760018122206e-2" y="-5.534853414048712e-2"/>
    <rect height="2.0000000000000004e-2" width="2.0000000000000004e-2" x="4.078088125526325e-2" y="-5.355239759071117e-2"/>
    <rect height="2.0000000000000004e-2" width="2.0000000000000004e-2" x="4.1813396544485355e-2" y="-5.2267466190615945e-2"/>
    <rect height="2.0000000000000004e-2" width="1.9999999999999997e-2" x="4.547556200744197e-2" y="-5.4478470798899e-2"/>
    <rect height="2.0000000000000004e-2" width="1.9999999999999997e-2" x="4.559674022126182e-2" y="-5.3451158310719664e-2"/>
    <rect height="2.0000000000000004e-2" width="1.9999999999999997e-2" x="4.487544525956667e-2" y="-5.348834591416473e-2"/>
    <rect height="2.0000000000000004e-2" width="1.9999999999999997e-2" x="4.527651502796782e-2" y="-5.459768853576385e-2"/>
    <rect height="2.0000000000000004e-2" width="1.9999999999999997e-2" x="4.6052822555574975e-2" y="-5.330503559232424e-2"/>
    <rect height="2.0000000000000004e-2" width="1.9999999999999997e-2" x="4.623832589948818e-2" y="-5.431024370370451e-2"/>
    <rect height="2.0000000000000004e-2" width="1.9999999999999997e-2" x="4.619852705756878e-2" y="-5.516513498578079e-2"/>
    <rect height="2.0000000000000004e-2" width="1.9999999999999997e-2" x="4.575840163424217e-2" y="-5.566887541072873e-2"/>
    <rect height="2.0000000000000004e-2" width="1.9999999999999997e-2" x="4.6537981087522835e-2" y="-5.442293849847545e-2"/>
    <rect height="2.0000000000000004e-2" width="1.9999999999999997e-2" x="4.597975821627832e-2" y="-5.475525795527091e-2"/>
    <rect height="2.0000000000000004e-2" width="1.9999999999999997e-2" x="4.641699389956223e-2" y="-5.581948077029918e-2"/>
    <rect height="2.0000000000000004e-2" width="1.9999999999999997e-2" x="4.584621593827754e-2" y="-5.555459952828289e-2"/>
    <rect height="2.0000000000000004e-2" width="1.9999999999999997e-2" x="4.550494532794137e-2" y="-5.607550284643547e-2"/>
    <rect height="2.0000000000000004e-2" width="1.9999999999999997e-2" x="4.4927896563896404e-2" y="-5.5947179029211196e-2"/>
    <rect height="2.0000000000000004e-2" width="1.9999999999999997e-2" x="4.460306985283458e-2" y="-5.6424724885194226e-2"/>
    <rect height="2.0000000000000004e-2" width="1.9999999999999997e-2" x="4.4419666124251085e-2" y="-5.70047651892368e-2"/>
    <rect height="2.0000000000000004e-2" width="1.9999999999999997e-2" x="4.387748061606556e-2" y="-5.702365934358777e-2"/>
    <rect height="2.0000000000000004e-2" width="1.9999999999999997e-2" x="4.3484007819976196e-2" y="-5.6694122041577304e-2"/>
    <rect height="2.0000000000000004e-2" width="1.9999999999999997e-2" x="4.323027166411731e-2" y="-5.623850281536746e-2"/>
    <rect height="2.0000000000000004e-2" width="1.9999999999999997e-2" x="4.2737544496368025e-2" y="-5.626098768362552e-2"/>
    <rect height="2.0000000000000004e-2" width="1.9999999999999997e-2" x="4.284399719367405e-2" y="-5.5585179001429556e-2"/>
    <rect height="2.0000000000000004e-2" width="2.0000000000000004e-2" x="4.239863408845002e-2" y="-5.573551407386922e-2"/>
    <rect height="2.0000000000000004e-2" width="2.0000000000000004e-2" x="4.23777885282064e-2" y="-5.631024010553853e-2"/>
    <rect height="2.0000000000000004e-2" width="2.0000000000000004e-2" x="4.192969826045224e-2" y="-5.63813767209218e-2"/>
    <rect height="2.0000000000000004e-2" width="2.0000000000000004e-2" x="4.171452728074821e-2" y="-5.598006823196255e-2"/>
    <rect height="2.0000000000000004e-2" width="2.0000000000000004e-2" x="4.132037414949564e-2" y="-5.6140113409173346e-2"/>
    <rect height="2.0000000000000004e-2" width="2.0000000000000004e-2" x="4.106732346713727e-2" y="-5.580569289397163e-2"/>
    <rect height="2.0000000000000004e-2" width="2.0000000000000004e-2" x="4.066641399269145e-2" y="-5.57367782742828e-2"/>
    <rect height="2.0000000000000004e-2" width="2.0000000000000004e-2" x="4.09567431663227e-2" y="-5.640744715524792e-2"/>
    <rect height="2.0000000000000004e-2" width="2.0000000000000004e-2" x="4.060419382085568e-2" y="-5.658529456200522e-2"/>
    <rect height="2.0000000000000004e-2" width="2.0000000000000004e-2" x="4.021485096807543e-2" y="-5.657191740254585e-2"/>
    <rect height="2.0000000000000004e-2" width="2.0000000000000004e-2" x="4.018926771628651e-2" y="-5.703887591783174e-2"/>
    <rect height="2.0000000000000004e-2" width="2.0000000000000004e-2" x="4.01080540346126e-2" y="-5.746402041349107e-2"/>
    <rect height="2.0000000000000004e-2" width="2.0000000000000004e-2" x="3.973850930472656e-2" y="-5.749853468534826e-2"/>
    <rect height="2.0000000000000004e-2" width="2.0000000000000004e-2" x="3.937838490718338e-2" y="-5.7491666842543025e-2"/>
    <rect height="2.0000000000000004e-2" width="2.0000000000000004e-2" x="3.927682500099317e-2" y="-5.711529649463453e-2"/>
    <rect height="2.0000000000000004e-2" width="2.0000000000000004e-2" x="3.897949455154826e-2" y="-5.727959169888574e-2"/>
    <rect height="2.0000000000000004e-2" width="2.0000000000000004e-2" x="3.86541438263266e-2" y="-5.720183871625938e-2"/>
    <rect height="2.0000000000000004e-2" width="2.0000000000000004e-2" x="3.837417413133471e-2" y="-5.704422096813277e-2"/>
    <rect height="2.0000000000000004e-2" width="2.0000000000000004e-2" x="3.825574409822386e-2" y="-5.7366899570366996e-2"/>
    <rect height="2.0000000000000004e-2" width="2.0000000000000004e-2" x="3.801130239042228e-2" y="-5.717768539698997e-2"/>
    <rect height="2.0000000000000004e-2" width="2.0000000000000004e-2" x="3.773336719925203e-2" y="-5.729852978559335e-2"/>
    <rect height="2.0000000000000004e-2" width="2.0000000000000004e-2" x="3.747035648641795e-2" y="-5.716601677566168e-2"/>
    <rect height="2.0000000000000004e-2" width="2.0000000000000004e-2" x="3.722075743964127e-2" y="-5.702504308364264e-2"/>
    <rect height="2.0000000000000004e-2" width="2.0000000000000004e-2" x="3.760943326630751e-2" y="-5.645922240181555e-2"/>
    <rect height="2.0000000000000004e-2" width="2.0000000000000004e-2" x="3.803083641791683e-2" y="-5.7052628243205e-2"/>
    <rect height="2.0000000000000004e-2" width="2.0000000000000004e-2" x="3.796548323584915e-2" y="-5.670722977605024e-2"/>
    <rect height="2.0000000000000004e-2" width="2.0000000000000004e-2" x="3.815039211281302e-2" y="-5.720103453928426e-2"/>
    <rect height="2.0000000000000004e-2" width="2.0000000000000004e-2" x="3.7905096203163076e-2" y="-5.7375824232426924e-2"/>
    <rect height="2.0000000000000004e-2" width="2.0000000000000004e-2" x="3.760552123997086e-2" y="-5.736715603374642e-2"/>
    <rect height="2.0000000000000004e-2" width="2.0000000000000004e-2" x="3.757506184648985e-2" y="-5.77203660140092e-2"/>
    <rect height="2.0000000000000004e-2" width="2.0000000000000004e-2" x="3.7302643566605516e-2" y="-5.7628716276379326e-2"/>
    <rect height="2.0000000000000004e-2" width="2.0000000000000004e-2" x="3.703741935143257e-2" y="-5.771847240169669e-2"/>
    <rect height="2.0000000000000004e-2" width="2.0000000000000004e-2" x="3.6762070183059777e-2" y="-5.770912397431304e-2"/>
    <rect height="2.0000000000000004e-2" width="2.0000000000000004e-2" x="3.64951199423439e-2" y="-5.7731206206672485e-2"/>
    <rect height="2.0000000000000004e-2" width="2.0000000000000004e-2" x="3.6374172731215244e-2" y="-5.748716992899471e-2"/>
    <rect height="2.0000000000000004e-2" width="2.0000000000000004e-2" x="3.612738091939228e-2" y="-5.755382631010585e-2"/>
    <rect height="2.0000000000000004e-2" width="2.0000000000000004e-2" x="3.5899422273525834e-2" y="-5.745743787499446e-2"/>
    <rect height="2.0000000000000004e-2" width="2.0000000000000004e-2" x="3.570561313494048e-2" y="-5.7315257465912255e-2"/>
    <rect height="2.0000000000000004e-2" width="2.0000000000000004e-2" x="3.559206723767728e-2" y="-5.70934948747187e-2"/>
    <rect height="2.0000000000000004e-2" width="2.0000000000000004e-2" x="3.536277960508783e-2" y="-5.7145318671552585e-2"/>
    <rect height="2.0000000000000004e-2" width="2.0000000000000004e-2" x="3.540162932895564e-2" y="-5.6826109402945406e-2"/>
    <rect height="2.0000000000000004e-2" width="2.0000000000000004e-2" x="3.5184504271919e-2" y="-5.68982337584104e-2"/>
    <rect height="2.0000000000000004e-2" width="2.0000000000000004e-2" x="3.603382084579266e-2" y="-5.625261005975734e-2"/>
    <rect height="2.0000000000000004e-2" width="2.0000000000000004e-2" x="3.582087744563479e-2" y="-5.636925462871777e-2"/>
    <rect height="2.0000000000000004e-2" width="2.0000000000000004e-2" x="3.5946489161291846e-2" y="-5.598679837004405e-2"/>
    <rect height="2.0000000000000004e-2" width="2.0000000000000004e-2" x="3.594153558073621e-2" y="-5.629659229215966e-2"/>
    <rect height="2.0000000000000004e-2" width="2.0000000000000004e-2" x="3.5703463362667394e-2" y="-5.634520167319589e-2"/>
    <rect height="2.0000000000000004e-2" width="2.0000000000000004e-2" x="3.552445717230191e-2" y="-5.649595749317792e-2"/>
    <rect height="2.0000000000000004e-2" width="2.0000000000000004e-2" x="3.541966699493527e-2" y="-5.6275049718820684e-2"/>
    <rect height="2.0000000000000004e-2" width="2.0000000000000004e-2" x="3.5617396000227626e-2" y="-5.667949888493983e-2"/>
    <rect height="2.0000000000000004e-2" width="2.0000000000000004e-2" x="3.5748759047934515e-2" y="-5.705706256625442e-2"/>
    <rect height="2.0000000000000004e-2" width="2.0000000000000004e-2" x="3.5864828185109505e-2" y="-5.743074476302067e-2"/>
    <rect height="2.0000000000000004e-2" width="2.0000000000000004e-2" x="3.5656643559384145e-2" y="-5.754467395103468e-2"/>
    <rect height="2.0000000000000004e-2" width="2.0000000000000004e-2" x="3.5773956364768995e-2" y="-5.717367841224651e-2"/>
    <rect height="2.0000000000000004e-2" width="2.0000000000000004e-2" x="3.587146230684391e-2" y="-5.753768952314275e-2"/>
    <rect height="2.0000000000000004e-2" width="2.0000000000000004e-2" x="3.563026566481132e-2" y="-5.7538076352800165e-2"/>
    <rect height="2.0000000000000004e-2" width="2.0000000000000004e-2" x="3.5418935857497676e-2" y="-5.744318100840328e-2"/>
    <rect height="2.0000000000000004e-2" width="2.0000000000000004e-2" x="3.523877901558393e-2" y="-5.757879484891692e-2"/>
    <rect height="2.0000000000000004e-2" width="2.0000000000000004e-2" x="3.502004388726899e-2" y="-5.7625880625462915e-2"/>
    <rect height="2.0000000000000004e-2" width="2.0000000000000004e-2" x="3.49506457650648e-2" y="-5.7394244281369626e-2"/>
    <rect height="2.0000000000000004e-2" width="2.0000000000000004e-2" x="3.475328961586877e-2" y="-5.731030471972042e-2"/>
    <rect height="2.0000000000000004e-2" width="2.0000000000000004e-2" x="3.454718810434599e-2" y="-5.735631985462752e-2"/>
    <rect height="2.0000000000000004e-2" width="2.0000000000000004e-2" x="3.4432140414185526e-2" y="-5.7532361281046655e-2"/>
    <rect height="2.0000000000000004e-2" width="2.0000000000000004e-2" x="3.461250475546319e-2" y="-5.78930802488039e-2"/>
    <rect height="2.0000000000000004e-2" width="2.0000000000000004e-2" x="3.4525168779860456e-2" y="-5.769000307170157e-2"/>
    <rect height="2.0000000000000004e-2" width="2.0000000000000004e-2" x="3.46830110877372e-2" y="-5.733724106827542e-2"/>
    <rect height="2.0000000000000004e-2" width="2.0000000000000004e-2" x="3.4730045462705535e-2" y="-5.703891937528526e-2"/>
    <rect height="2.0000000000000004e-2" width="2.0000000000000004e-2" x="3.463060235759952e-2" y="-5.723534704847676e-2"/>
    <rect height="2.0000000000000004e-2" width="2.0000000000000004e-2" x="3.4440688298266194e-2" y="-5.7155396150066366e-2"/>
    <rect height="2.0000000000000004e-2" width="2.0000000000000004e-2" x="3.434800528355809e-2" y="-5.734777405284929e-2"/>
    <rect height="2.0000000000000004e-2" width="2.0000000000000004e-2" x="3.42345335776948e-2" y="-5.751781238530861e-2"/>
    <rect height="2.0000000000000004e-2" width="2.0000000000000004e-2" x="3.407471827631282e-2" y="-5.76296862927228e-2"/>
    <rect height="2.0000000000000004e-2" width="2.0000000000000004e-2" x="3.3897641519006656e-2" y="-5.77038798532764e-2"/>
    <rect height="2.0000000000000004e-2" width="2.0000000000000004e-2" x="3.3722796365252e-2" y="-5.763555190463842e-2"/>
    <rect height="2.0000000000000004e-2" width="2.0000000000000004e-2" x="3.358346535070234e-2" y="-5.751752623391492e-2"/>
    <rect height="2.0000000000000004e-2" width="2.0000000000000004e-2" x="3.384790866330401e-2" y="-5.7149025837283755e-2"/>
    <rect height="2.0000000000000004e-2" width="2.0000000000000004e-2" x="3.380124480446101e-2" y="-5.693969664711262e-2"/>
    <rect height="2.0000000000000004e-2" width="2.0000000000000004e-2" x="3.38472784875531e-2" y="-5.720810982202262e-2"/>
    <rect height="2.0000000000000004e-2" width="2.0000000000000004e-2" x="3.410520486173963e-2" y="-5.683311981171867e-2"/>
    <rect height="2.0000000000000004e-2" width="2.0000000000000004e-2" x="3.427152291720593e-2" y="-5.717516237280917e-2"/>
    <rect height="2.0000000000000004e-2" width="2.0000000000000004e-2" x="3.4116135499760454e-2" y="-5.729442729132372e-2"/>
    <rect height="2.0000000000000004e-2" width="2.0000000000000004e-2" x="3.393766343856409e-2" y="-5.736755981142171e-2"/>
    <rect height="2.0000000000000004e-2" width="2.0000000000000004e-2" x="3.3756051691745455e-2" y="-5.7420890536107876e-2"/>
    <rect height="2.0000000000000004e-2" width="2.0000000000000004e-2" x="3.358186726278279e-2" y="-5.736070802156445e-2"/>
    <rect height="2.0000000000000004e-2" width="2.0000000000000004e-2" x="3.344518332196112e-2" y="-5.7245336391708805e-2"/>
    <rect height="2.0000000000000004e-2" width="2.0000000000000004e-2" x="3.3470707965418296e-2" y="-5.748972273051566e-2"/>
    <rect height="2.0000000000000004e-2" width="2.0000000000000004e-2" x="3.359137947120195e-2" y="-5.7787558686855804e-2"/>
    <rect height="2.0000000000000004e-2" width="2.0000000000000004e-2" x="3.341741332644666e-2" y="-5.773904363318671e-2"/>
    <rect height="2.0000000000000004e-2" width="2.0000000000000004e-2" x="3.337405712662057e-2" y="-5.793642921367525e-2"/>
    <rect height="2.0000000000000004e-2" width="2.0000000000000004e-2" x="3.3443862877733384e-2" y="-5.766877730400776e-2"/>
    <rect height="2.0000000000000004e-2" width="2.0000000000000004e-2" x="3.327387678847083e-2" y="-5.762016049044837e-2"/>
    <rect height="2.0000000000000004e-2" width="2.0000000000000004e-2" x="3.315673377369511e-2" y="-5.749352161050502e-2"/>
    <rect height="2.0000000000000004e-2" width="2.0000000000000004e-2" x="3.309193713832182e-2" y="-5.7321483553430135e-2"/>
    <rect height="2.0000000000000004e-2" width="2.0000000000000004e-2" x="3.306948504277641e-2" y="-5.71197801260852e-2"/>
    <rect height="2.0000000000000004e-2" width="2.0000000000000004e-2" x="3.295938468168703e-2" y="-5.699303583740122e-2"/>
    <rect height="2.0000000000000004e-2" width="2.0000000000000004e-2" x="3.2808948179238635e-2" y="-5.705740728183272e-2"/>
    <rect height="2.0000000000000004e-2" width="2.0000000000000004e-2" x="3.2725095925524535e-2" y="-5.7201089375909724e-2"/>
    <rect height="2.0000000000000004e-2" width="2.0000000000000004e-2" x="3.2566099756902285e-2" y="-5.7185875425294734e-2"/>
    <rect height="2.0000000000000004e-2" width="2.0000000000000004e-2" x="3.2576407500638734e-2" y="-5.739210494958313e-2"/>
    <rect height="2.0000000000000004e-2" width="2.0000000000000004e-2" x="3.242349142661161e-2" y="-5.7363687670462286e-2"/>
    <rect height="2.0000000000000004e-2" width="2.0000000000000004e-2" x="3.2603579009981905e-2" y="-5.7073394882819144e-2"/>
    <rect height="2.0000000000000004e-2" width="2.0000000000000004e-2" x="3.262730793502922e-2" y="-5.7289105717737925e-2"/>
    <rect height="2.0000000000000004e-2" width="2.0000000000000004e-2" x="3.2471596038108126e-2" y="-5.7309736295625406e-2"/>
    <rect height="2.0000000000000004e-2" width="2.0000000000000004e-2" x="3.270277243112175e-2" y="-5.762390609873257e-2"/>
    <rect height="2.0000000000000004e-2" width="2.0000000000000004e-2" x="3.2561882016239226e-2" y="-5.7554966462493466e-2"/>
    <rect height="2.0000000000000004e-2" width="2.0000000000000004e-2" x="3.257392116989322e-2" y="-5.734783708741397e-2"/>
    <rect height="2.0000000000000004e-2" width="2.0000000000000004e-2" x="3.2455203317159016e-2" y="-5.725060913724888e-2"/>
    <rect height="2.0000000000000004e-2" width="2.0000000000000004e-2" x="3.243392914580801e-2" y="-5.7068920764448465e-2"/>
    <rect height="2.0000000000000004e-2" width="2.0000000000000004e-2" x="3.232129011641805e-2" y="-5.716824855799551e-2"/>
    <rect height="2.0000000000000004e-2" width="2.0000000000000004e-2" x="3.2175378194513334e-2" y="-5.7138358077648436e-2"/>
    <rect height="2.0000000000000004e-2" width="2.0000000000000004e-2" x="3.210624189352674e-2" y="-5.7273507307066256e-2"/>
    <rect height="2.0000000000000004e-2" width="2.0000000000000004e-2" x="3.197396467522929e-2" y="-5.722084199157395e-2"/>
    <rect height="2.0000000000000004e-2" width="2.0000000000000004e-2" x="3.183317510465567e-2" y="-5.72205749479131e-2"/>
    <rect height="2.0000000000000004e-2" width="2.0000000000000004e-2" x="3.2374343025190384e-2" y="-5.681997957227657e-2"/>
    <rect height="2.0000000000000004e-2" width="2.0000000000000004e-2" x="3.249589030062628e-2" y="-5.655887443233453e-2"/>
    <rect height="2.0000000000000004e-2" width="2.0000000000000004e-2" x="3.2343026064741494e-2" y="-5.654202745026859e-2"/>
    <rect height="2.0000000000000004e-2" width="2.0000000000000004e-2" x="3.220867231244596e-2" y="-5.648005069679451e-2"/>
    <rect height="2.0000000000000004e-2" width="2.0000000000000004e-2" x="3.8170940404566374e-2" y="-5.498426550639412e-2"/>
    <rect height="2.0000000000000004e-2" width="2.0000000000000004e-2" x="3.929646863599868e-2" y="-5.413042637905285e-2"/>
    <rect height="2.0000000000000004e-2" width="2.0000000000000004e-2" x="4.000829810372531e-2" y="-5.4886231774940446e-2"/>
    <rect height="2.0000000000000004e-2" width="2.0000000000000004e-2" x="3.972291439995158e-2" y="-5.470483693711969e-2"/>
    <rect height="2.0000000000000004e-2" width="2.0000000000000004e-2" x="4.12641699037486e-2" y="-5.575348187516815e-2"/>
    <rect height="2.0000000000000004e-2" width="2.0000000000000004e-2" x="4.0889574334939456e-2" y="-5.578331445332629e-2"/>
    <rect height="2.0000000000000004e-2" width="2.0000000000000004e-2" x="4.113881419975463e-2" y="-5.517206048812983e-2"/>
    <rect height="2.0000000000000004e-2" width="2.0000000000000004e-2" x="4.077077448515055e-2" y="-5.522609579807746e-2"/>
    <rect height="2.0000000000000004e-2" width="2.0000000000000004e-2" x="4.0434126437845615e-2" y="-5.510017330610161e-2"/>
    <rect height="2.0000000000000004e-2" width="2.0000000000000004e-2" x="4.0131851108623946e-2" y="-5.492584629988039e-2"/>
    <rect height="2.0000000000000004e-2" width="1.9999999999999997e-2" x="4.2607269758532025e-2" y="-5.360071605797533e-2"/>
    <rect height="2.0000000000000004e-2" width="1.9999999999999997e-2" x="4.357538797400818e-2" y="-5.457814200443278e-2"/>
    <rect height="2.0000000000000004e-2" width="1.9999999999999997e-2" x="4.379439897104843e-2" y="-5.389326949850525e-2"/>
    <rect height="2.0000000000000004e-2" width="1.9999999999999997e-2" x="4.339075075618149e-2" y="-5.373197232838966e-2"/>
    <rect height="2.0000000000000004e-2" width="1.9999999999999997e-2" x="4.394548946698152e-2" y="-5.457222361683355e-2"/>
    <rect height="2.0000000000000004e-2" width="1.9999999999999997e-2" x="4.3970786979200656e-2" y="-5.5157067101154415e-2"/>
    <rect height="2.0000000000000004e-2" width="1.9999999999999997e-2" x="4.393023311573963e-2" y="-5.569962256557492e-2"/>
    <rect height="2.0000000000000004e-2" width="1.9999999999999997e-2" x="4.356711718006013e-2" y="-5.545897821818568e-2"/>
    <rect height="2.0000000000000004e-2" width="1.9999999999999997e-2" x="4.326591002398373e-2" y="-5.5765625881583174e-2"/>
    <rect height="2.0000000000000004e-2" width="1.9999999999999997e-2" x="4.298736204954646e-2" y="-5.608635030199371e-2"/>
    <rect height="2.0000000000000004e-2" width="1.9999999999999997e-2" x="4.388877684968185e-2" y="-5.70531623951741e-2"/>
    <rect height="2.0000000000000004e-2" width="1.9999999999999997e-2" x="4.3472322492651656e-2" y="-5.691655893890867e-2"/>
    <rect height="2.0000000000000004e-2" width="1.9999999999999997e-2" x="4.330492910563156e-2" y="-5.648464674907438e-2"/>
    <rect height="2.0000000000000004e-2" width="1.9999999999999997e-2" x="4.398048543068845e-2" y="-5.559588063186582e-2"/>
    <rect height="2.0000000000000004e-2" width="1.9999999999999997e-2" x="4.3536126078434385e-2" y="-5.557835132502475e-2"/>
    <rect height="2.0000000000000004e-2" width="1.9999999999999997e-2" x="4.322284309741265e-2" y="-5.528723476312979e-2"/>
    <rect height="2.0000000000000004e-2" width="1.9999999999999997e-2" x="4.321126170382562e-2" y="-5.58248477261074e-2"/>
    <rect height="2.0000000000000004e-2" width="1.9999999999999997e-2" x="4.281330607839174e-2" y="-5.596216063448988e-2"/>
    <rect height="2.0000000000000004e-2" width="1.9999999999999997e-2" x="4.3156763356195234e-2" y="-5.523939182703907e-2"/>
    <rect height="2.0000000000000004e-2" width="1.9999999999999997e-2" x="4.354397716589343e-2" y="-5.448385795300147e-2"/>
    <rect height="2.0000000000000004e-2" width="1.9999999999999997e-2" x="4.319277874340655e-2" y="-5.472494081928136e-2"/>
    <rect height="2.0000000000000004e-2" width="1.9999999999999997e-2" x="4.282752202653751e-2" y="-5.452228758853172e-2"/>
    <rect height="2.0000000000000004e-2" width="1.9999999999999997e-2" x="4.332414847840461e-2" y="-5.531700427520058e-2"/>
    <rect height="2.0000000000000004e-2" width="1.9999999999999997e-2" x="4.295897771973834e-2" y="-5.552619979171702e-2"/>
    <rect height="2.0000000000000004e-2" width="1.9999999999999997e-2" x="4.4153844554560624e-2" y="-5.6598500947140355e-2"/>
    <rect height="2.0000000000000004e-2" width="1.9999999999999997e-2" x="4.37182063445949e-2" y="-5.649930068659225e-2"/>
    <rect height="2.0000000000000004e-2" width="1.9999999999999997e-2" x="4.34710848346287e-2" y="-5.686851926056002e-2"/>
    <rect height="2.0000000000000004e-2" width="1.9999999999999997e-2" x="4.3357302222319934e-2" y="-5.7342488581460065e-2"/>
    <rect height="2.0000000000000004e-2" width="1.9999999999999997e-2" x="4.5955392757592646e-2" y="-5.58271405269457e-2"/>
    <rect height="2.0000000000000004e-2" width="1.9999999999999997e-2" x="4.5461812071001535e-2" y="-5.5796236193193065e-2"/>
    <rect height="2.0000000000000004e-2" width="1.9999999999999997e-2" x="4.6267502806579215e-2" y="-5.477590953837296e-2"/>
    <rect height="2.0000000000000004e-2" width="1.9999999999999997e-2" x="4.5799913164107704e-2" y="-5.4945003729702784e-2"/>
    <rect height="2.0000000000000004e-2" width="1.9999999999999997e-2" x="4.531449179618075e-2" y="-5.501059939356678e-2"/>
    <rect height="2.0000000000000004e-2" width="1.9999999999999997e-2" x="4.4968378184802045e-2" y="-5.533156702513486e-2"/>
    <rect height="2.0000000000000004e-2" width="1.9999999999999997e-2" x="4.450233469327914e-2" y="-5.538485791527303e-2"/>
    <rect height="2.0000000000000004e-2" width="1.9999999999999997e-2" x="4.489844956005463e-2" y="-5.457928498173625e-2"/>
    <rect height="2.0000000000000004e-2" width="1.9999999999999997e-2" x="4.534373733380504e-2" y="-5.373672608573687e-2"/>
    <rect height="2.0000000000000004e-2" width="1.9999999999999997e-2" x="4.489185483412795e-2" y="-5.388261638582558e-2"/>
    <rect height="2.0000000000000004e-2" width="1.9999999999999997e-2" x="4.483585953954373e-2" y="-5.332077371098486e-2"/>
    <rect height="2.0000000000000004e-2" width="1.9999999999999997e-2" x="4.476676696511484e-2" y="-5.2769859162347214e-2"/>
    <rect height="2.0000000000000004e-2" width="1.9999999999999997e-2" x="4.5022208772193435e-2" y="-5.2026270545249435e-2"/>
    <rect height="2.0000000000000004e-2" width="1.9999999999999997e-2" x="5.1786360727624554e-2" y="-5.347070057869862e-2"/>
    <rect height="2.0000000000000004e-2" width="1.9999999999999997e-2" x="5.142065046713241e-2" y="-5.400879149652615e-2"/>
    <rect height="2.0000000000000004e-2" width="1.9999999999999997e-2" x="5.079264631319003e-2" y="-5.4081423826982326e-2"/>
    <rect height="2.0000000000000004e-2" width="1.9999999999999997e-2" x="5.0428542381652404e-2" y="-5.458585222157552e-2"/>
    <rect height="2.0000000000000004e-2" width="1.9999999999999997e-2" x="4.984536076664892e-2" y="-5.4742317293339664e-2"/>
    <rect height="2.0000000000000004e-2" width="1.9999999999999997e-2" x="5.033817865242186e-2" y="-5.370862654865404e-2"/>
    <rect height="2.0000000000000004e-2" width="1.9999999999999997e-2" x="5.238646874656073e-2" y="-5.536763826710566e-2"/>
    <rect height="2.0000000000000004e-2" width="1.9999999999999997e-2" x="5.185990755829296e-2" y="-5.5741729894721696e-2"/>
    <rect height="2.0000000000000004e-2" width="1.9999999999999997e-2" x="5.1430833527539306e-2" y="-5.621665169392875e-2"/>
    <rect height="2.0000000000000004e-2" width="1.9999999999999997e-2" x="5.083701736703317e-2" y="-5.641826493649182e-2"/>
    <rect height="2.0000000000000004e-2" width="1.9999999999999997e-2" x="5.026277437621985e-2" y="-5.6628588519449845e-2"/>
    <rect height="2.0000000000000004e-2" width="1.9999999999999997e-2" x="4.96590355598211e-2" y="-5.661943469164698e-2"/>
    <rect height="2.0000000000000004e-2" width="1.9999999999999997e-2" x="4.9130227329501126e-2" y="-5.6380653522252626e-2"/>
    <rect height="2.0000000000000004e-2" width="1.9999999999999997e-2" x="4.880984747526363e-2" y="-5.6869240884835796e-2"/>
    <rect height="2.0000000000000004e-2" width="1.9999999999999997e-2" x="4.8250682542546726e-2" y="-5.6954265483868165e-2"/>
    <rect height="2.0000000000000004e-2" width="1.9999999999999997e-2" x="4.781230534544923e-2" y="-5.727491584813448e-2"/>
    <rect height="2.0000000000000004e-2" width="1.9999999999999997e-2" x="4.761621675577344e-2" y="-5.782798382168063e-2"/>
    <rect height="2.0000000000000004e-2" width="1.9999999999999997e-2" x="4.763963766337876e-2" y="-5.712531125990871e-2"/>
    <rect height="2.0000000000000004e-2" width="1.9999999999999997e-2" x="4.7108085249617855e-2" y="-5.7196677716543014e-2"/>
    <rect height="2.0000000000000004e-2" width="1.9999999999999997e-2" x="4.658525494295152e-2" y="-5.7227406593889356e-2"/>
    <rect height="2.0000000000000004e-2" width="1.9999999999999997e-2" x="4.621952967109911e-2" y="-5.757436066292242e-2"/>
    <rect height="2.0000000000000004e-2" width="1.9999999999999997e-2" x="4.591753664971555e-2" y="-5.717082377214299e-2"/>
    <rect height="2.0000000000000004e-2" width="1.9999999999999997e-2" x="4.543504850431713e-2" y="-5.707570245100201e-2"/>
    <rect height="2.0000000000000004e-2" width="1.9999999999999997e-2" x="4.551651423503667e-2" y="-5.774345294698346e-2"/>
    <rect height="2.0000000000000004e-2" width="1.9999999999999997e-2" x="4.51680291992489e-2" y="-5.806944274054481e-2"/>
    <rect height="2.0000000000000004e-2" width="1.9999999999999997e-2" x="4.469474105292049e-2" y="-5.8035137916623174e-2"/>
    <rect height="2.0000000000000004e-2" width="1.9999999999999997e-2" x="4.430249335492765e-2" y="-5.826540838448379e-2"/>
    <rect height="2.0000000000000004e-2" width="1.9999999999999997e-2" x="4.387137486080151e-2" y="-5.8391863453157604e-2"/>
    <rect height="2.0000000000000004e-2" width="1.9999999999999997e-2" x="4.348012152648973e-2" y="-5.8201139550340446e-2"/>
    <rect height="2.0000000000000004e-2" width="1.9999999999999997e-2" x="4.3406067624942264e-2" y="-5.7697872869527426e-2"/>
    <rect height="2.0000000000000004e-2" width="1.9999999999999997e-2" x="4.2976812180243636e-2" y="-5.767216979811129e-2"/>
    <rect height="2.0000000000000004e-2" width="1.9999999999999997e-2" x="4.255825270666281e-2" y="-5.764922795741211e-2"/>
    <rect height="2.0000000000000004e-2" width="1.9999999999999997e-2" x="4.2554860506058174e-2" y="-5.81706004488095e-2"/>
    <rect height="2.0000000000000004e-2" width="2.0000000000000004e-2" x="4.215092476945404e-2" y="-5.822646712504075e-2"/>
    <rect height="2.0000000000000004e-2" width="2.0000000000000004e-2" x="4.1815398110522935e-2" y="-5.8024787767456225e-2"/>
    <rect height="2.0000000000000004e-2" width="2.0000000000000004e-2" x="4.1693589981766095e-2" y="-5.84381403904578e-2"/>
    <rect height="2.0000000000000004e-2" width="2.0000000000000004e-2" x="4.13078127851474e-2" y="-5.8412310559794005e-2"/>
    <rect height="2.0000000000000004e-2" width="2.0000000000000004e-2" x="4.093097728478801e-2" y="-5.840024868251125e-2"/>
    <rect height="2.0000000000000004e-2" width="2.0000000000000004e-2" x="4.06678426843038e-2" y="-5.8150486043088694e-2"/>
    <rect height="2.0000000000000004e-2" width="2.0000000000000004e-2" x="4.038094420477623e-2" y="-5.835870368659945e-2"/>
    <rect height="2.0000000000000004e-2" width="2.0000000000000004e-2" x="4.00293366821527e-2" y="-5.832488083547204e-2"/>
    <rect height="2.0000000000000004e-2" width="2.0000000000000004e-2" x="3.971165918429099e-2" y="-5.820198015354127e-2"/>
    <rect height="2.0000000000000004e-2" width="2.0000000000000004e-2" x="3.939546738959921e-2" y="-5.8096294031318545e-2"/>
    <rect height="2.0000000000000004e-2" width="2.0000000000000004e-2" x="3.9143986278687766e-2" y="-5.789329669421405e-2"/>
    <rect height="2.0000000000000004e-2" width="2.0000000000000004e-2" x="3.893399905293827e-2" y="-5.813596826367617e-2"/>
    <rect height="2.0000000000000004e-2" width="2.0000000000000004e-2" x="3.8740587755820906e-2" y="-5.788346305618252e-2"/>
    <rect height="2.0000000000000004e-2" width="2.0000000000000004e-2" x="3.845517961753298e-2" y="-5.77673065638341e-2"/>
    <rect height="2.0000000000000004e-2" width="2.0000000000000004e-2" x="3.840054854459397e-2" y="-5.741393614614331e-2"/>
    <rect height="2.0000000000000004e-2" width="2.0000000000000004e-2" x="3.843118287606729e-2" y="-5.7005801529061755e-2"/>
    <rect height="2.0000000000000004e-2" width="2.0000000000000004e-2" x="3.8154809469328484e-2" y="-5.6888554378189064e-2"/>
    <rect height="2.0000000000000004e-2" width="2.0000000000000004e-2" x="3.8673972295889654e-2" y="-5.7526598430658875e-2"/>
    <rect height="2.0000000000000004e-2" width="2.0000000000000004e-2" x="3.837791877663289e-2" y="-5.7611501673450964e-2"/>
    <rect height="2.0000000000000004e-2" width="2.0000000000000004e-2" x="3.8211153642738534e-2" y="-5.787068214747137e-2"/>
    <rect height="2.0000000000000004e-2" width="2.0000000000000004e-2" x="3.79346862038994e-2" y="-5.776700650292998e-2"/>
    <rect height="2.0000000000000004e-2" width="2.0000000000000004e-2" x="3.769961996069494e-2" y="-5.7930733583227416e-2"/>
    <rect height="2.0000000000000004e-2" width="2.0000000000000004e-2" x="3.743479845113829e-2" y="-5.8029105975206934e-2"/>
    <rect height="2.0000000000000004e-2" width="2.0000000000000004e-2" x="3.7169409559576934e-2" y="-5.7950632847562404e-2"/>
    <rect height="2.0000000000000004e-2" width="2.0000000000000004e-2" x="3.698838526413018e-2" y="-5.774956801413477e-2"/>
    <rect height="2.0000000000000004e-2" width="2.0000000000000004e-2" x="3.713091130524205e-2" y="-5.817551389585806e-2"/>
    <rect height="2.0000000000000004e-2" width="2.0000000000000004e-2" x="3.8706608688053874e-2" y="-5.7235566551815935e-2"/>
    <rect height="2.0000000000000004e-2" width="2.0000000000000004e-2" x="3.840528794156329e-2" y="-5.716494986160902e-2"/>
    <rect height="2.0000000000000004e-2" width="2.0000000000000004e-2" x="3.8273714771231544e-2" y="-5.745685092490515e-2"/>
    <rect height="2.0000000000000004e-2" width="2.0000000000000004e-2" x="3.8104319992158915e-2" y="-5.720386704160207e-2"/>
    <rect height="2.0000000000000004e-2" width="2.0000000000000004e-2" x="3.784329271994769e-2" y="-5.733337321945264e-2"/>
    <rect height="2.0000000000000004e-2" width="2.0000000000000004e-2" x="3.770109510336695e-2" y="-5.7596859920477354e-2"/>
    <rect height="2.0000000000000004e-2" width="2.0000000000000004e-2" x="3.78736921410301e-2" y="-5.8062233681048674e-2"/>
    <rect height="2.0000000000000004e-2" width="2.0000000000000004e-2" x="3.75950579327723e-2" y="-5.7988749581796e-2"/>
    <rect height="2.0000000000000004e-2" width="2.0000000000000004e-2" x="3.7313440416408834e-2" y="-5.801450055476009e-2"/>
    <rect height="2.0000000000000004e-2" width="2.0000000000000004e-2" x="3.70385520618527e-2" y="-5.8036108448139105e-2"/>
    <rect height="2.0000000000000004e-2" width="2.0000000000000004e-2" x="3.6811142119389524e-2" y="-5.817081118393629e-2"/>
    <rect height="2.0000000000000004e-2" width="2.0000000000000004e-2" x="3.655043489881194e-2" y="-5.8138114017412194e-2"/>
    <rect height="2.0000000000000004e-2" width="2.0000000000000004e-2" x="3.658635687546775e-2" y="-5.778683206690704e-2"/>
    <rect height="2.0000000000000004e-2" width="2.0000000000000004e-2" x="3.635061199790402e-2" y="-5.7882197038004006e-2"/>
    <rect height="2.0000000000000004e-2" width="2.0000000000000004e-2" x="3.610896610520498e-2" y="-5.781864258415647e-2"/>
    <rect height="2.0000000000000004e-2" width="2.0000000000000004e-2" x="3.599986525161803e-2" y="-5.805229321276816e-2"/>
    <rect height="2.0000000000000004e-2" width="2.0000000000000004e-2" x="3.578364040327054e-2" y="-5.795025910127182e-2"/>
    <rect height="2.0000000000000004e-2" width="2.0000000000000004e-2" x="3.555190271311171e-2" y="-5.790445111023456e-2"/>
    <rect height="2.0000000000000004e-2" width="2.0000000000000004e-2" x="3.539608935132322e-2" y="-5.773587715010863e-2"/>
    <rect height="2.0000000000000004e-2" width="2.0000000000000004e-2" x="3.516915569254198e-2" y="-5.774876216539981e-2"/>
    <rect height="2.0000000000000004e-2" width="2.0000000000000004e-2" x="3.4948001536984304e-2" y="-5.7735577970219214e-2"/>
    <rect height="2.0000000000000004e-2" width="2.0000000000000004e-2" x="3.505082964814111e-2" y="-5.807281046560785e-2"/>
    <rect height="2.0000000000000004e-2" width="2.0000000000000004e-2" x="3.49165639541903e-2" y="-5.789951023428474e-2"/>
    <rect height="2.0000000000000004e-2" width="2.0000000000000004e-2" x="3.4720913884698786e-2" y="-5.781681116370151e-2"/>
    <rect height="2.0000000000000004e-2" width="2.0000000000000004e-2" x="3.4574547221207126e-2" y="-5.796466202293881e-2"/>
    <rect height="2.0000000000000004e-2" width="2.0000000000000004e-2" x="3.4369321796094095e-2" y="-5.7943351400156266e-2"/>
    <rect height="2.0000000000000004e-2" width="2.0000000000000004e-2" x="3.416994945827057e-2" y="-5.791771983931137e-2"/>
    <rect height="2.0000000000000004e-2" width="2.0000000000000004e-2" x="3.447312759421895e-2" y="-5.75126105805721e-2"/>
    <rect height="2.0000000000000004e-2" width="2.0000000000000004e-2" x="3.433009963568668e-2" y="-5.737036972181885e-2"/>
    <rect height="2.0000000000000004e-2" width="2.0000000000000004e-2" x="3.458700534662929e-2" y="-5.776131832726405e-2"/>
    <rect height="2.0000000000000004e-2" width="2.0000000000000004e-2" x="3.457991269764205e-2" y="-5.750092852770793e-2"/>
    <rect height="2.0000000000000004e-2" width="2.0000000000000004e-2" x="3.607279080037785e-2" y="-5.6707274164200065e-2"/>
    <rect height="2.0000000000000004e-2" width="2.0000000000000004e-2" x="3.584387687425684e-2" y="-5.662862355358788e-2"/>
    <rect height="2.0000000000000004e-2" width="2.0000000000000004e-2" x="3.565458053669724e-2" y="-5.649018904574132e-2"/>
    <rect height="2.0000000000000004e-2" width="2.0000000000000004e-2" x="3.5497528017116815e-2" y="-5.66612304138857e-2"/>
    <rect height="2.0000000000000004e-2" width="2.0000000000000004e-2" x="3.807543170652195e-2" y="-5.556042598721244e-2"/>
    <rect height="2.0000000000000004e-2" width="2.0000000000000004e-2" x="3.8125197584625854e-2" y="-5.596967692197951e-2"/>
    <rect height="2.0000000000000004e-2" width="2.0000000000000004e-2" x="3.800456377199591e-2" y="-5.626140611200036e-2"/>
    <rect height="2.0000000000000004e-2" width="2.0000000000000004e-2" x="3.806504756483032e-2" y="-5.6674753687613204e-2"/>
    <rect height="2.0000000000000004e-2" width="2.0000000000000004e-2" x="3.791911520415093e-2" y="-5.640703450047301e-2"/>
    <rect height="2.0000000000000004e-2" width="2.0000000000000004e-2" x="3.781146549141668e-2" y="-5.6111497190817976e-2"/>
    <rect height="2.0000000000000004e-2" width="2.0000000000000004e-2" x="3.7865238164683464e-2" y="-5.6514562072087375e-2"/>
    <rect height="2.0000000000000004e-2" width="2.0000000000000004e-2" x="3.760795500584569e-2" y="-5.639070187518635e-2"/>
    <rect height="2.0000000000000004e-2" width="2.0000000000000004e-2" x="3.791753251119668e-2" y="-5.586193249144832e-2"/>
    <rect height="2.0000000000000004e-2" width="2.0000000000000004e-2" x="3.764601517456579e-2" y="-5.595840463130985e-2"/>
    <rect height="2.0000000000000004e-2" width="2.0000000000000004e-2" x="3.76195439949838e-2" y="-5.561173240086647e-2"/>
    <rect height="2.0000000000000004e-2" width="2.0000000000000004e-2" x="3.748549586253814e-2" y="-5.5348613313354826e-2"/>
    <rect height="2.0000000000000004e-2" width="2.0000000000000004e-2" x="3.725834862292444e-2" y="-5.5504135405115555e-2"/>
    <rect height="2.0000000000000004e-2" width="2.0000000000000004e-2" x="3.7626531069079545e-2" y="-5.496144463932617e-2"/>
    <rect height="2.0000000000000004e-2" width="2.0000000000000004e-2" x="3.734679301788436e-2" y="-5.4917903453622345e-2"/>
    <rect height="2.0000000000000004e-2" width="2.0000000000000004e-2" x="3.9238477214009866e-2" y="-5.5952858072918825e-2"/>
    <rect height="2.0000000000000004e-2" width="2.0000000000000004e-2" x="3.9208687745022404e-2" y="-5.6348985196048355e-2"/>
    <rect height="2.0000000000000004e-2" width="2.0000000000000004e-2" x="3.903969523771312e-2" y="-5.6634985595750746e-2"/>
    <rect height="2.0000000000000004e-2" width="2.0000000000000004e-2" x="3.913239852555928e-2" y="-5.7100900965327044e-2"/>
    <rect height="2.0000000000000004e-2" width="2.0000000000000004e-2" x="3.887411529633256e-2" y="-5.728341911049039e-2"/>
    <rect height="2.0000000000000004e-2" width="2.0000000000000004e-2" x="3.856376194854017e-2" y="-5.72323821050632e-2"/>
    <rect height="2.0000000000000004e-2" width="2.0000000000000004e-2" x="3.8287160522541226e-2" y="-5.710803985495804e-2"/>
    <rect height="2.0000000000000004e-2" width="2.0000000000000004e-2" x="3.8037093795412875e-2" y="-5.7265051366229607e-2"/>
    <rect height="2.0000000000000004e-2" width="2.0000000000000004e-2" x="3.7766748584322725e-2" y="-5.715823820451626e-2"/>
    <rect height="2.0000000000000004e-2" width="2.0000000000000004e-2" x="3.7479686559819266e-2" y="-5.717098019561417e-2"/>
    <rect height="2.0000000000000004e-2" width="2.0000000000000004e-2" x="3.755416747157337e-2" y="-5.7575416145300255e-2"/>
    <rect height="2.0000000000000004e-2" width="2.0000000000000004e-2" x="3.728753243939376e-2" y="-5.765930378461725e-2"/>
    <rect height="2.0000000000000004e-2" width="2.0000000000000004e-2" x="3.731352475994721e-2" y="-5.802841966313487e-2"/>
    <rect height="2.0000000000000004e-2" width="2.0000000000000004e-2" x="3.707483813165791e-2" y="-5.789927627836921e-2"/>
    <rect height="2.0000000000000004e-2" width="2.0000000000000004e-2" x="3.685222948436829e-2" y="-5.7755338794977844e-2"/>
    <rect height="2.0000000000000004e-2" width="2.0000000000000004e-2" x="3.7128341409535144e-2" y="-5.7268053287927716e-2"/>
    <rect height="2.0000000000000004e-2" width="2.0000000000000004e-2" x="3.68755097924336e-2" y="-5.717806494837751e-2"/>
    <rect height="2.0000000000000004e-2" width="2.0000000000000004e-2" x="3.665706600253161e-2" y="-5.7319313711743695e-2"/>
    <rect height="2.0000000000000004e-2" width="2.0000000000000004e-2" x="3.6512952551675755e-2" y="-5.753992230361526e-2"/>
    <rect height="2.0000000000000004e-2" width="2.0000000000000004e-2" x="3.646518575509395e-2" y="-5.783489111248751e-2"/>
    <rect height="2.0000000000000004e-2" width="2.0000000000000004e-2" x="3.6222062678992646e-2" y="-5.790325194140821e-2"/>
    <rect height="2.0000000000000004e-2" width="2.0000000000000004e-2" x="3.6162407129795245e-2" y="-5.818005772262446e-2"/>
    <rect height="2.0000000000000004e-2" width="2.0000000000000004e-2" x="3.598048587481318e-2" y="-5.80187525149578e-2"/>
    <rect height="2.0000000000000004e-2" width="2.0000000000000004e-2" x="3.594984019222492e-2" y="-5.7729052905522986e-2"/>
    <rect height="2.0000000000000004e-2" width="2.0000000000000004e-2" x="3.570844619017933e-2" y="-5.772692318630967e-2"/>
    <rect height="2.0000000000000004e-2" width="2.0000000000000004e-2" x="3.552780437958614e-2" y="-5.787146577325807e-2"/>
    <rect height="2.0000000000000004e-2" width="2.0000000000000004e-2" x="3.530089628426015e-2" y="-5.790921098874379e-2"/>
    <rect height="2.0000000000000004e-2" width="2.0000000000000004e-2" x="3.512978568855397e-2" y="-5.804953201305917e-2"/>
    <rect height="2.0000000000000004e-2" width="2.0000000000000004e-2" x="3.492122707082591e-2" y="-5.798379407021081e-2"/>
    <rect height="2.0000000000000004e-2" width="2.0000000000000004e-2" x="3.48477335039299e-2" y="-5.776038058574006e-2"/>
    <rect height="2.0000000000000004e-2" width="2.0000000000000004e-2" x="3.498765596056642e-2" y="-5.74070342596763e-2"/>
    <rect height="2.0000000000000004e-2" width="2.0000000000000004e-2" x="3.4810804426618e-2" y="-5.752604719622833e-2"/>
    <rect height="2.0000000000000004e-2" width="2.0000000000000004e-2" x="3.490057634466604e-2" y="-5.720043441775257e-2"/>
    <rect height="2.0000000000000004e-2" width="2.0000000000000004e-2" x="3.471197742424149e-2" y="-5.729606709683021e-2"/>
    <rect height="2.0000000000000004e-2" width="2.0000000000000004e-2" x="3.471401206659575e-2" y="-5.756646667891218e-2"/>
    <rect height="2.0000000000000004e-2" width="2.0000000000000004e-2" x="3.457923096792915e-2" y="-5.772696233018481e-2"/>
    <rect height="2.0000000000000004e-2" width="2.0000000000000004e-2" x="3.4627266278051134e-2" y="-5.7432587427702735e-2"/>
    <rect height="2.0000000000000004e-2" width="2.0000000000000004e-2" x="3.466137472896381e-2" y="-5.7720241363386375e-2"/>
    <rect height="2.0000000000000004e-2" width="2.0000000000000004e-2" x="3.450224291756255e-2" y="-5.759046176553805e-2"/>
    <rect height="2.0000000000000004e-2" width="2.0000000000000004e-2" x="3.438073060979253e-2" y="-5.7423868626066514e-2"/>
    <rect height="2.0000000000000004e-2" width="2.0000000000000004e-2" x="3.500688262922736e-2" y="-5.689015186690049e-2"/>
    <rect height="2.0000000000000004e-2" width="2.0000000000000004e-2" x="3.527917895920286e-2" y="-5.646867333824978e-2"/>
    <rect height="2.0000000000000004e-2" width="2.0000000000000004e-2" x="3.533666891634391e-2" y="-5.614594051606069e-2"/>
    <rect height="2.0000000000000004e-2" width="2.0000000000000004e-2" x="3.9080047071401565e-2" y="-5.4810352465907146e-2"/>
    <rect height="2.0000000000000004e-2" width="2.0000000000000004e-2" x="3.959273022647803e-2" y="-5.547928598866602e-2"/>
    <rect height="2.0000000000000004e-2" width="2.0000000000000004e-2" x="3.927382943855629e-2" y="-5.5568580141495454e-2"/>
    <rect height="2.0000000000000004e-2" width="2.0000000000000004e-2" x="4.035424985172465e-2" y="-5.645349402162402e-2"/>
    <rect height="2.0000000000000004e-2" width="2.0000000000000004e-2" x="4.0149515471338944e-2" y="-5.6161634434600975e-2"/>
    <rect height="2.0000000000000004e-2" width="2.0000000000000004e-2" x="4.030177800703539e-2" y="-5.562599674710566e-2"/>
    <rect height="2.0000000000000004e-2" width="2.0000000000000004e-2" x="4.0835893570281286e-2" y="-5.6347765206320226e-2"/>
    <rect height="2.0000000000000004e-2" width="1.9999999999999997e-2" x="4.317175317576583e-2" y="-5.5024524986932326e-2"/>
    <rect height="2.0000000000000004e-2" width="1.9999999999999997e-2" x="4.279889296981266e-2" y="-5.52126359641567e-2"/>
    <rect height="2.0000000000000004e-2" width="1.9999999999999997e-2" x="4.311989916231674e-2" y="-5.5923858633383e-2"/>
    <rect height="2.0000000000000004e-2" width="1.9999999999999997e-2" x="4.3169094229326584e-2" y="-5.64967195912015e-2"/>
    <rect height="2.0000000000000004e-2" width="1.9999999999999997e-2" x="4.2924962484748315e-2" y="-5.614399516484924e-2"/>
    <rect height="2.0000000000000004e-2" width="1.9999999999999997e-2" x="4.273042404797312e-2" y="-5.653434780346322e-2"/>
    <rect height="2.0000000000000004e-2" width="2.0000000000000004e-2" x="4.2317964314717134e-2" y="-5.651374923964247e-2"/>
    <rect height="2.0000000000000004e-2" width="1.9999999999999997e-2" x="4.391097858208549e-2" y="-5.533670908080101e-2"/>
    <rect height="2.0000000000000004e-2" width="1.9999999999999997e-2" x="4.38880458433586e-2" y="-5.58890930652931e-2"/>
    <rect height="2.0000000000000004e-2" width="1.9999999999999997e-2" x="4.346240745322728e-2" y="-5.577944999842165e-2"/>
    <rect height="2.0000000000000004e-2" width="1.9999999999999997e-2" x="4.3188407361117294e-2" y="-5.61122126928778e-2"/>
    <rect height="2.0000000000000004e-2" width="1.9999999999999997e-2" x="4.326084329960201e-2" y="-5.670143853787523e-2"/>
    <rect height="2.0000000000000004e-2" width="1.9999999999999997e-2" x="4.283505950966072e-2" y="-5.6724058230537715e-2"/>
    <rect height="2.0000000000000004e-2" width="1.9999999999999997e-2" x="4.256892575282612e-2" y="-5.6405902043380134e-2"/>
    <rect height="2.0000000000000004e-2" width="1.9999999999999997e-2" x="4.2522114297523624e-2" y="-5.689856878400911e-2"/>
    <rect height="2.0000000000000004e-2" width="1.9999999999999997e-2" x="4.2588990975887205e-2" y="-5.7462772244153186e-2"/>
    <rect height="2.0000000000000004e-2" width="2.0000000000000004e-2" x="4.2179496094351794e-2" y="-5.7459339168428374e-2"/>
    <rect height="2.0000000000000004e-2" width="2.0000000000000004e-2" x="4.178396640289717e-2" y="-5.741099557333195e-2"/>
    <rect height="2.0000000000000004e-2" width="2.0000000000000004e-2" x="4.139601447789432e-2" y="-5.738375679109264e-2"/>
    <rect height="2.0000000000000004e-2" width="2.0000000000000004e-2" x="4.114653102402289e-2" y="-5.7666810133081496e-2"/>
    <rect height="2.0000000000000004e-2" width="2.0000000000000004e-2" x="4.0782743666265116e-2" y="-5.774138280454887e-2"/>
    <rect height="2.0000000000000004e-2" width="2.0000000000000004e-2" x="4.043293792745573e-2" y="-5.765062447817448e-2"/>
    <rect height="2.0000000000000004e-2" width="2.0000000000000004e-2" x="4.014378001379449e-2" y="-5.745594900985528e-2"/>
    <rect height="2.0000000000000004e-2" width="2.0000000000000004e-2" x="3.980533442925383e-2" y="-5.752774977697838e-2"/>
    <rect height="2.0000000000000004e-2" width="2.0000000000000004e-2" x="3.94681889027313e-2" y="-5.74955882447754e-2"/>
    <rect height="2.0000000000000004e-2" width="2.0000000000000004e-2" x="3.9141485290182805e-2" y="-5.74505495578057e-2"/>
    <rect height="2.0000000000000004e-2" width="2.0000000000000004e-2" x="3.89520881955916e-2" y="-5.7186547367747524e-2"/>
    <rect height="2.0000000000000004e-2" width="2.0000000000000004e-2" x="3.86370238495637e-2" y="-5.715171200393387e-2"/>
    <rect height="2.0000000000000004e-2" width="2.0000000000000004e-2" x="3.8655453608708486e-2" y="-5.67435320710109e-2"/>
    <rect height="2.0000000000000004e-2" width="2.0000000000000004e-2" x="3.848702662452542e-2" y="-5.7010830667073346e-2"/>
    <rect height="2.0000000000000004e-2" width="2.0000000000000004e-2" x="3.821592149201725e-2" y="-5.6879958224021136e-2"/>
    <rect height="2.0000000000000004e-2" width="2.0000000000000004e-2" x="3.805015379297295e-2" y="-5.66254986048863e-2"/>
    <rect height="2.0000000000000004e-2" width="2.0000000000000004e-2" x="3.785986580168688e-2" y="-5.684910179645696e-2"/>
    <rect height="2.0000000000000004e-2" width="2.0000000000000004e-2" x="3.823595100882949e-2" y="-5.62817700789937e-2"/>
    <rect height="2.0000000000000004e-2" width="2.0000000000000004e-2" x="3.917763814384068e-2" y="-5.548550854014266e-2"/>
    <rect height="2.0000000000000004e-2" width="2.0000000000000004e-2" x="3.917319791073504e-2" y="-5.589654422395695e-2"/>
    <rect height="2.0000000000000004e-2" width="2.0000000000000004e-2" x="3.9675024068924876e-2" y="-5.656431118866822e-2"/>
    <rect height="2.0000000000000004e-2" width="2.0000000000000004e-2" x="3.94132762728765e-2" y="-5.636344232380796e-2"/>
    <rect height="2.0000000000000004e-2" width="2.0000000000000004e-2" x="3.9956081327321875e-2" y="-5.567004419622922e-2"/>
    <rect height="2.0000000000000004e-2" width="2.0000000000000004e-2" x="3.9976481303511065e-2" y="-5.6122267969128774e-2"/>
    <rect height="2.0000000000000004e-2" width="2.0000000000000004e-2" x="3.980460255952712e-2" y="-5.6432100815282486e-2"/>
    <rect height="2.0000000000000004e-2" width="2.0000000000000004e-2" x="3.9905562791705325e-2" y="-5.692776085985662e-2"/>
    <rect height="2.0000000000000004e-2" width="2.0000000000000004e-2" x="3.957551782202851e-2" y="-5.684790112446569e-2"/>
    <rect height="2.0000000000000004e-2" width="2.0000000000000004e-2" x="3.9582259082335265e-2" y="-5.727908387379665e-2"/>
    <rect height="2.0000000000000004e-2" width="2.0000000000000004e-2" x="3.92777644958029e-2" y="-5.715411756738863e-2"/>
    <rect height="2.0000000000000004e-2" width="2.0000000000000004e-2" x="3.8969190231422875e-2" y="-5.724911750493832e-2"/>
    <rect height="2.0000000000000004e-2" width="2.0000000000000004e-2" x="3.873661414060504e-2" y="-5.703920727670874e-2"/>
    <rect height="2.0000000000000004e-2" width="2.0000000000000004e-2" x="3.858356086295534e-2" y="-5.732352589222477e-2"/>
    <rect height="2.0000000000000004e-2" width="2.0000000000000004e-2" x="3.835362993284797e-2" y="-5.71256975465425e-2"/>
    <rect height="2.0000000000000004e-2" width="2.0000000000000004e-2" x="3.8071844591172084e-2" y="-5.722589318913284e-2"/>
    <rect height="2.0000000000000004e-2" width="2.0000000000000004e-2" x="3.778273491327478e-2" y="-5.7279575161907396e-2"/>
    <rect height="2.0000000000000004e-2" width="2.0000000000000004e-2" x="3.754138102239391e-2" y="-5.742690637417013e-2"/>
    <rect height="2.0000000000000004e-2" width="2.0000000000000004e-2" x="3.7353506417998734e-2" y="-5.7634273508988636e-2"/>
    <rect height="2.0000000000000004e-2" width="2.0000000000000004e-2" x="3.709470191817588e-2" y="-5.754401878485282e-2"/>
    <rect height="2.0000000000000004e-2" width="2.0000000000000004e-2" x="3.684597181753047e-2" y="-5.764147954781495e-2"/>
    <rect height="2.0000000000000004e-2" width="2.0000000000000004e-2" x="3.666516071898452e-2" y="-5.7452337617285736e-2"/>
    <rect height="2.0000000000000004e-2" width="2.0000000000000004e-2" x="3.675741624511553e-2" y="-5.784025633207512e-2"/>
    <rect height="2.0000000000000004e-2" width="2.0000000000000004e-2" x="3.652045268239946e-2" y="-5.7943069373787674e-2"/>
    <rect height="2.0000000000000004e-2" width="2.0000000000000004e-2" x="3.630019586967382e-2" y="-5.782149826532667e-2"/>
    <rect height="2.0000000000000004e-2" width="2.0000000000000004e-2" x="3.605224427080179e-2" y="-5.779079374741757e-2"/>
    <rect height="2.0000000000000004e-2" width="2.0000000000000004e-2" x="3.581787287300343e-2" y="-5.7852494260165026e-2"/>
    <rect height="2.0000000000000004e-2" width="2.0000000000000004e-2" x="3.55865590442881e-2" y="-5.790352400230913e-2"/>
    <rect height="2.0000000000000004e-2" width="2.0000000000000004e-2" x="3.54176064960311e-2" y="-5.77490034566106e-2"/>
    <rect height="2.0000000000000004e-2" width="2.0000000000000004e-2" x="3.519004062496634e-2" y="-5.776058463106525e-2"/>
    <rect height="2.0000000000000004e-2" width="2.0000000000000004e-2" x="3.496993724534337e-2" y="-5.7733331225074395e-2"/>
    <rect height="2.0000000000000004e-2" width="2.0000000000000004e-2" x="3.4754513268630556e-2" y="-5.771307062095243e-2"/>
    <rect height="2.0000000000000004e-2" width="2.0000000000000004e-2" x="3.478130690399029e-2" y="-5.800041501308139e-2"/>
    <rect height="2.0000000000000004e-2" width="2.0000000000000004e-2" x="3.4576368663542974e-2" y="-5.7951820803728286e-2"/>
    <rect height="2.0000000000000004e-2" width="2.0000000000000004e-2" x="3.439686188095848e-2" y="-5.785646231618768e-2"/>
    <rect height="2.0000000000000004e-2" width="2.0000000000000004e-2" x="3.435878999261011e-2" y="-5.762353789771068e-2"/>
    <rect height="2.0000000000000004e-2" width="2.0000000000000004e-2" x="3.420430558420629e-2" y="-5.7500093612167895e-2"/>
    <rect height="2.0000000000000004e-2" width="2.0000000000000004e-2" x="3.401535538595613e-2" y="-5.755146711080083e-2"/>
    <rect height="2.0000000000000004e-2" width="2.0000000000000004e-2" x="3.4082711484652035e-2" y="-5.783850664159739e-2"/>
    <rect height="2.0000000000000004e-2" width="2.0000000000000004e-2" x="3.389256160635457e-2" y="-5.787388383071545e-2"/>
    <rect height="2.0000000000000004e-2" width="2.0000000000000004e-2" x="3.3751752585319046e-2" y="-5.7996047575694425e-2"/>
    <rect height="2.0000000000000004e-2" width="2.0000000000000004e-2" x="3.3773057305377836e-2" y="-5.7744649846094724e-2"/>
    <rect height="2.0000000000000004e-2" width="2.0000000000000004e-2" x="3.4222372182310175e-2" y="-5.7297103836117406e-2"/>
    <rect height="2.0000000000000004e-2" width="2.0000000000000004e-2" x="3.436750870116435e-2" y="-5.696209262840745e-2"/>
    <rect height="2.0000000000000004e-2" width="2.0000000000000004e-2" x="3.4376579529799896e-2" y="-5.7225824483643876e-2"/>
    <rect height="2.0000000000000004e-2" width="2.0000000000000004e-2" x="3.4178729380579316e-2" y="-5.7260678128898006e-2"/>
    <rect height="2.0000000000000004e-2" width="2.0000000000000004e-2" x="3.440960332534971e-2" y="-5.7634759637995574e-2"/>
    <rect height="2.0000000000000004e-2" width="2.0000000000000004e-2" x="3.4322452119850196e-2" y="-5.743965089828717e-2"/>
    <rect height="2.0000000000000004e-2" width="2.0000000000000004e-2" x="3.414854169125659e-2" y="-5.734724024834658e-2"/>
    <rect height="2.0000000000000004e-2" width="2.0000000000000004e-2" x="3.397929910202036e-2" y="-5.743908979326106e-2"/>
    <rect height="2.0000000000000004e-2" width="2.0000000000000004e-2" x="3.415192038441584e-2" y="-5.777930891540805e-2"/>
    <rect height="2.0000000000000004e-2" width="2.0000000000000004e-2" x="3.396622280221729e-2" y="-5.772244579591267e-2"/>
    <rect height="2.0000000000000004e-2" width="2.0000000000000004e-2" x="3.399423445861861e-2" y="-5.7984914340454934e-2"/>
    <rect height="2.0000000000000004e-2" width="2.0000000000000004e-2" x="3.3812196317402295e-2" y="-5.79295625057693e-2"/>
    <rect height="2.0000000000000004e-2" width="2.0000000000000004e-2" x="3.364985061122639e-2" y="-5.7842516764082245e-2"/>
    <rect height="2.0000000000000004e-2" width="2.0000000000000004e-2" x="3.352917130183087e-2" y="-5.797898255916022e-2"/>
    <rect height="2.0000000000000004e-2" width="2.0000000000000004e-2" x="3.3427118535955376e-2" y="-5.813031832256887e-2"/>
    <rect height="2.0000000000000004e-2" width="2.0000000000000004e-2" x="3.325482400721958e-2" y="-5.8091513683422795e-2"/>
    <rect height="2.0000000000000004e-2" width="2.0000000000000004e-2" x="3.310706879984671e-2" y="-5.8007006806565e-2"/>
    <rect height="2.0000000000000004e-2" width="2.0000000000000004e-2" x="3.302812452315896e-2" y="-5.816513288905633e-2"/>
    <rect height="2.0000000000000004e-2" width="2.0000000000000004e-2" x="3.288302816259315e-2" y="-5.808724591095626e-2"/>
    <rect height="2.0000000000000004e-2" width="2.0000000000000004e-2" x="3.313092589728984e-2" y="-5.7751453929941736e-2"/>
    <rect height="2.0000000000000004e-2" width="2.0000000000000004e-2" x="3.2980393760008726e-2" y="-5.7824787656419956e-2"/>
    <rect height="2.0000000000000004e-2" width="2.0000000000000004e-2" x="3.3166463051446333e-2" y="-5.813697792836924e-2"/>
    <rect height="2.0000000000000004e-2" width="2.0000000000000004e-2" x="3.353961477388002e-2" y="-5.774090751165661e-2"/>
    <rect height="2.0000000000000004e-2" width="2.0000000000000004e-2" x="3.339347699157225e-2" y="-5.784105158597918e-2"/>
    <rect height="2.0000000000000004e-2" width="2.0000000000000004e-2" x="3.334079307194738e-2" y="-5.7651819438452205e-2"/>
    <rect height="2.0000000000000004e-2" width="2.0000000000000004e-2" x="3.3261554506361486e-2" y="-5.781762233533249e-2"/>
    <rect height="2.0000000000000004e-2" width="2.0000000000000004e-2" x="3.328330988445694e-2" y="-5.8053372599564994e-2"/>
    <rect height="2.0000000000000004e-2" width="2.0000000000000004e-2" x="3.3253014776257535e-2" y="-5.7851186019872484e-2"/>
    <rect height="2.0000000000000004e-2" width="2.0000000000000004e-2" x="3.329637913353301e-2" y="-5.8099569210364625e-2"/>
    <rect height="2.0000000000000004e-2" width="2.0000000000000004e-2" x="3.319542120098063e-2" y="-5.795539070501098e-2"/>
    <rect height="2.0000000000000004e-2" width="2.0000000000000004e-2" x="3.3024563374407075e-2" y="-5.797034621260654e-2"/>
    <rect height="2.0000000000000004e-2" width="2.0000000000000004e-2" x="3.319038247754969e-2" y="-5.827471319216181e-2"/>
    <rect height="2.0000000000000004e-2" width="2.0000000000000004e-2" x="3.304676063437496e-2" y="-5.8362873068748426e-2"/>
    <rect height="2.0000000000000004e-2" width="2.0000000000000004e-2" x="3.303679815489292e-2" y="-5.8154359030027074e-2"/>
    <rect height="2.0000000000000004e-2" width="2.0000000000000004e-2" x="3.2885123970836545e-2" y="-5.808846080088125e-2"/>
    <rect height="2.0000000000000004e-2" width="2.0000000000000004e-2" x="3.272355952401663e-2" y="-5.8064074850604046e-2"/>
    <rect height="2.0000000000000004e-2" width="2.0000000000000004e-2" x="3.340484801863287e-2" y="-5.758193556071022e-2"/>
    <rect height="2.0000000000000004e-2" width="2.0000000000000004e-2" x="3.501850697651455e-2" y="-5.6819864489097476e-2"/>
    <rect height="2.0000000000000004e-2" width="2.0000000000000004e-2" x="3.532534684260181e-2" y="-5.725680093338236e-2"/>
    <rect height="2.0000000000000004e-2" width="2.0000000000000004e-2" x="3.511429664283595e-2" y="-5.7183871092006726e-2"/>
    <rect height="2.0000000000000004e-2" width="2.0000000000000004e-2" x="3.492798303213485e-2" y="-5.729401342975004e-2"/>
    <rect height="2.0000000000000004e-2" width="2.0000000000000004e-2" x="3.6525149598926505e-2" y="-5.645616153972132e-2"/>
    <rect height="2.0000000000000004e-2" width="2.0000000000000004e-2" x="3.652925302616606e-2" y="-5.678670590513634e-2"/>
    <rect height="2.0000000000000004e-2" width="2.0000000000000004e-2" x="3.726411617304338e-2" y="-5.7443748428617984e-2"/>
    <rect height="2.0000000000000004e-2" width="2.0000000000000004e-2" x="3.745261089502817e-2" y="-5.790266217459938e-2"/>
    <rect height="2.0000000000000004e-2" width="2.0000000000000004e-2" x="3.718827565698014e-2" y="-5.798542603961209e-2"/>
    <rect height="2.0000000000000004e-2" width="2.0000000000000004e-2" x="3.713571231072577e-2" y="-5.7671879051794155e-2"/>
    <rect height="2.0000000000000004e-2" width="2.0000000000000004e-2" x="3.703238384159758e-2" y="-5.7944836844860396e-2"/>
    <rect height="2.0000000000000004e-2" width="2.0000000000000004e-2" x="3.676369133717273e-2" y="-5.795217631141091e-2"/>
    <rect height="2.0000000000000004e-2" width="2.0000000000000004e-2" x="3.661552265079649e-2" y="-5.817260803700285e-2"/>
    <rect height="2.0000000000000004e-2" width="2.0000000000000004e-2" x="3.641309260968562e-2" y="-5.801956567422927e-2"/>
    <rect height="2.0000000000000004e-2" width="2.0000000000000004e-2" x="3.616022874240566e-2" y="-5.8030117634582316e-2"/>
    <rect height="2.0000000000000004e-2" width="2.0000000000000004e-2" x="3.601699728694575e-2" y="-5.782617790448629e-2"/>
    <rect height="2.0000000000000004e-2" width="2.0000000000000004e-2" x="3.5829573226997986e-2" y="-5.797447611145456e-2"/>
    <rect height="2.0000000000000004e-2" width="2.0000000000000004e-2" x="3.574104121187017e-2" y="-5.773297711102276e-2"/>
    <rect height="2.0000000000000004e-2" width="2.0000000000000004e-2" x="3.621829854155579e-2" y="-5.720047824003082e-2"/>
  </g>
</svg>